<svg xmlns="http://www.w3.org/2000/svg" width="69.522" height="69.5" viewBox="0 0 69.522 69.5">
  <g id="交易手续费" transform="translate(-439.608 -406.157)">
    <path id="路径_39233" data-name="路径 39233" d="M505.88,406.157H473.213a3.269,3.269,0,0,0-3.25,3.25V426.88l-.406-.326a18.417,18.417,0,1,0,0,28.706l.406-.326v17.473a3.269,3.269,0,0,0,3.25,3.25H505.88a3.269,3.269,0,0,0,3.25-3.25v-63A3.269,3.269,0,0,0,505.88,406.157Zm-4.673,1.833-.709,2.833H478.6l-.709-2.833Zm-43.161,49.5a16.583,16.583,0,1,1,16.584-16.583A16.6,16.6,0,0,1,458.046,457.49Zm49.25,14.917a1.417,1.417,0,0,1-1.416,1.416H473.213a1.418,1.418,0,0,1-1.417-1.416V453.119l.062-.07a18.328,18.328,0,0,0,0-24.284l-.062-.071V409.407a1.419,1.419,0,0,1,1.417-1.417H476l.992,3.97a.918.918,0,0,0,.89.7h23.333a.918.918,0,0,0,.89-.7l.992-3.97h2.785a1.419,1.419,0,0,1,1.417,1.417Z" fill="#19d9b4"/>
    <path id="路径_39234" data-name="路径 39234" d="M501.213,424.823H488.13V422.24a.917.917,0,0,0-1.5-.707l-7,5.833a.917.917,0,0,0-.122,1.292.786.786,0,0,0,.119.119l7,5.837a.946.946,0,0,0,.974.126.917.917,0,0,0,.529-.833v-2.584h13.083a.917.917,0,0,0,.917-.916V425.74A.918.918,0,0,0,501.213,424.823Zm-.917,4.667H487.213a.918.918,0,0,0-.917.917v1.55l-4.653-3.884,4.653-3.881v1.548a.918.918,0,0,0,.917.917H500.3Z" fill="#19d9b4"/>
    <path id="路径_39235" data-name="路径 39235" d="M501.8,458.866l-7-5.833a.918.918,0,0,0-1.5.707v2.583H480.213a.918.918,0,0,0-.917.917v4.667a.917.917,0,0,0,.917.916H493.3v2.584a.92.92,0,0,0,.532.835.954.954,0,0,0,.972-.129l7-5.833a.919.919,0,0,0,.121-1.291A.938.938,0,0,0,501.8,458.866Zm-6.67,4.591v-1.55a.918.918,0,0,0-.917-.917H481.13v-2.833h13.083a.918.918,0,0,0,.917-.917v-1.548l4.653,3.881Z" fill="#19d9b4"/>
    <rect id="矩形_2370" data-name="矩形 2370" width="1.834" height="1.833" transform="translate(479.296 437.657)" fill="#19d9b4"/>
    <rect id="矩形_2371" data-name="矩形 2371" width="1.833" height="1.833" transform="translate(483.963 437.657)" fill="#19d9b4"/>
    <rect id="矩形_2372" data-name="矩形 2372" width="1.833" height="1.833" transform="translate(488.63 437.657)" fill="#19d9b4"/>
    <rect id="矩形_2373" data-name="矩形 2373" width="1.834" height="1.833" transform="translate(493.296 437.657)" fill="#19d9b4"/>
    <rect id="矩形_2374" data-name="矩形 2374" width="1.833" height="1.833" transform="translate(497.963 437.657)" fill="#19d9b4"/>
    <rect id="矩形_2375" data-name="矩形 2375" width="1.834" height="1.833" transform="translate(479.296 448.157)" fill="#19d9b4"/>
    <rect id="矩形_2376" data-name="矩形 2376" width="1.833" height="1.833" transform="translate(483.963 448.157)" fill="#19d9b4"/>
    <rect id="矩形_2377" data-name="矩形 2377" width="1.833" height="1.833" transform="translate(488.63 448.157)" fill="#19d9b4"/>
    <rect id="矩形_2378" data-name="矩形 2378" width="1.834" height="1.833" transform="translate(493.296 448.157)" fill="#19d9b4"/>
    <rect id="矩形_2379" data-name="矩形 2379" width="1.833" height="1.833" transform="translate(497.963 448.157)" fill="#19d9b4"/>
    <path id="路径_39251" data-name="路径 39251" d="M2.365-9.393,2.078-6.381H.955v1.335h1l-.22,2.4H.6v1.335h1L1.3,1.916h.861l.312-3.225H3.5L3.2,1.916h.861l.312-3.225h1.1V-2.644H4.5l.22-2.4H5.827V-6.381h-.98l.287-3.012h-.87L3.978-6.381H2.948l.287-3.012Zm.456,4.347h1.03l-.22,2.4H2.6ZM6.726.084c0,.852-.017,1.293-.068,1.875.346-.028.557-.043,1.072-.043H9.268A2.4,2.4,0,0,0,11.48.68a8.61,8.61,0,0,0,1-4.518,8.254,8.254,0,0,0-.937-4.3,2.4,2.4,0,0,0-2.28-1.25H7.731a10.449,10.449,0,0,1-1.072-.043c.051.625.068,1.051.068,1.847ZM7.849.24V-7.716H9.2a1.536,1.536,0,0,1,1.52.852,6.272,6.272,0,0,1,.583,3.04,6.685,6.685,0,0,1-.616,3.154A1.548,1.548,0,0,1,9.192.24Zm9.892-1.932c-.017-.327-.017-.369-.017-.4a9.421,9.421,0,0,0-.245-2.159c-.338-1.421-1.115-2.245-2.1-2.245C13.933-6.494,13-4.775,13-2.147c0,2.657.946,4.333,2.44,4.333a2,2,0,0,0,1.74-1.094,4.759,4.759,0,0,0,.515-1.307l-1-.54a2.665,2.665,0,0,1-.245.739,1.171,1.171,0,0,1-1.013.71A1.209,1.209,0,0,1,14.38-.1a3.927,3.927,0,0,1-.312-1.591ZM14.093-3.1c.127-1.193.608-1.932,1.267-1.932a1,1,0,0,1,.912.568A3.061,3.061,0,0,1,16.643-3.1Zm5.56.128h1.807a4.954,4.954,0,0,1,1.148.1v-1.89a5,5,0,0,1-1.148.1H19.654V-7.674H21.9a4.846,4.846,0,0,1,1.157.1V-9.492a5.181,5.181,0,0,1-1.157.1H19.535c-.515,0-.726-.014-1.072-.043.051.654.068,1.066.068,1.847V-.1a20.053,20.053,0,0,1-.068,2.017h1.258c-.051-.54-.068-1.037-.068-2.046Zm5.016-6.422v1.8h1.241v-1.8Zm0,3.154c.051.582.068,1.066.068,1.847V.069c0,.71-.017,1.208-.068,1.847H25.9c-.042-.6-.059-1.08-.059-1.861V-4.377c0-.867.017-1.335.059-1.861Z" transform="translate(443.608 444.828)" fill="#19d9b4"/>
  </g>
</svg>
