<svg xmlns="http://www.w3.org/2000/svg" width="59.149" height="69.1" viewBox="0 0 59.149 69.1">
  <g id="功能收费" transform="translate(-524.323 -413.32)">
    <path id="路径_39230" data-name="路径 39230" d="M551.034,476.823h7.134a.95.95,0,0,0,0-1.9h-7.134a.95.95,0,1,0,0,1.9Z" fill="#6287de"/>
    <path id="路径_39231" data-name="路径 39231" d="M582.521,435.721a10.407,10.407,0,0,0-6.767,2.179c-.156.13-.316.275-.477.433l-.765.752V416.51a3.208,3.208,0,0,0-3.192-3.19h-33.6a3.208,3.208,0,0,0-3.19,3.191v4.809l-.942-.941a5.431,5.431,0,1,0-7.68,7.68l6.6,6.6-.73.212a5.431,5.431,0,0,0-2.321,9.055l4.1,4.1-.917.112a5.431,5.431,0,0,0-4.735,6.045,5.446,5.446,0,0,0,1.552,3.183l2.978,2.981-.916.111a5.429,5.429,0,0,0-4.734,6.045,5.454,5.454,0,0,0,1.551,3.184l6.2,6.2v3.35a3.2,3.2,0,0,0,3.19,3.19H564.6a.951.951,0,0,0,.95-.95V468.03a8.093,8.093,0,0,1,3.2-6.407l5.377-4.033a.972.972,0,0,0,.38-.763v-11.2c0-6.18,4.106-7.616,6.554-7.922l.506-.063V481.47a.95.95,0,1,0,1.9,0v-44.8A.95.95,0,0,0,582.521,435.721Zm-55.268-9.006a3.538,3.538,0,0,1-1.034-2.494,3.541,3.541,0,0,1,6.031-2.5l2.282,2.282v9.985Zm3.545,15.863a3.538,3.538,0,0,1,0-4.988,3.544,3.544,0,0,1,5,0l6.33,6.329a3.448,3.448,0,0,1-.02,4.979,3.438,3.438,0,0,1-4.962.024Zm12.671,0L541.8,440.9l.022-.214a12.5,12.5,0,1,1,11.134,13.721,12.551,12.551,0,0,1-8.586-4.778l-.184-.238.15-.262A5.454,5.454,0,0,0,543.469,442.577ZM530.8,456.019a3.541,3.541,0,0,1,0-4.989,3.544,3.544,0,0,1,5,0l6.329,6.328a3.45,3.45,0,0,1-.021,4.981,3.438,3.438,0,0,1-4.961.023Zm-1.12,12.32a3.54,3.54,0,0,1,0-4.989,3.542,3.542,0,0,1,5,0l6.33,6.329a3.449,3.449,0,0,1-.02,4.979,3.44,3.44,0,0,1-4.962.024Zm33.974,12.182h-25.93a1.294,1.294,0,0,1-1.29-1.291v-2l.574.165a5.4,5.4,0,0,0,1.5.211h0a5.431,5.431,0,0,0,5.425-5.421q0-.237-.021-.471l-.042-.489h19.778Zm8.96-24.167-5,3.748a10.01,10.01,0,0,0-3.964,7.929v1.295H543.136l-.134-.2a5.372,5.372,0,0,0-.652-.79l-2.981-2.98.917-.111a5.428,5.428,0,0,0,3.183-9.229l-4.1-4.1.921-.11a5.4,5.4,0,0,0,2.233-.793l.337-.213.252.307a14.385,14.385,0,1,0,2-20.245,14.483,14.483,0,0,0-4.817,7.576l-.194.762-.559-.554c-1.046-1.035-2.768-2.731-2.936-2.871l-.165-.134-.006-.218v-12.37h36.18Zm0-35.2h-36.18V416.51a1.293,1.293,0,0,1,1.289-1.29h33.6a1.3,1.3,0,0,1,1.291,1.289Z" fill="#6287de"/>
    <path id="路径_39232" data-name="路径 39232" d="M552.981,442.94h2.38a2.481,2.481,0,0,1,.016,4.96h-3.545a1.166,1.166,0,0,1-.908-.41,1.293,1.293,0,0,1-.3-1.039.947.947,0,0,0-.938-.906.963.963,0,0,0-.968.934l0,.141a3.125,3.125,0,0,0,3.063,3.18h1.517v1.29a.949.949,0,1,0,1.9,0v-1.268l.418-.03a4.382,4.382,0,0,0-.255-8.752h-2.373a2.41,2.41,0,1,1,0-4.82h3.474a1.2,1.2,0,0,1,1.22,1.236.961.961,0,0,0,.908,1.028,1.029,1.029,0,0,0,.683-.25.942.942,0,0,0,.307-.659,3.122,3.122,0,0,0-2.984-3.253l-1.4,0v-1.29a.949.949,0,1,0-1.9,0v1.281l-.437.013a4.309,4.309,0,0,0,.126,8.616Z" fill="#6287de"/>
  </g>
</svg>
