<svg xmlns="http://www.w3.org/2000/svg" width="61.741" height="69.75" viewBox="0 0 61.741 69.75">
  <g id="商城支付" transform="translate(-469.872 -513.652)">
    <path id="路径_39221" data-name="路径 39221" d="M487.577,519.3a.915.915,0,0,0,.915.914h7.784a.915.915,0,0,0,0-1.829h-7.784A.915.915,0,0,0,487.577,519.3Z" fill="#ef54a1"/>
    <path id="路径_39222" data-name="路径 39222" d="M477.379,556.837v-5.794h3.168a4.315,4.315,0,0,0,4.31-4.311v-3.27a4.316,4.316,0,0,0-4.31-4.312h-4.083a.916.916,0,0,0-.914.915v16.772a.915.915,0,0,0,1.829,0Zm0-15.857h3.168a2.485,2.485,0,0,1,2.481,2.482v3.27a2.484,2.484,0,0,1-2.481,2.482h-3.168Z" fill="#ef54a1"/>
    <path id="路径_39223" data-name="路径 39223" d="M492.032,539.15a.912.912,0,0,0-.871.638l-5.342,16.772a.913.913,0,0,0,.594,1.148.915.915,0,0,0,1.149-.594l1.9-5.959h5.145l.028.087,1.87,5.872a.914.914,0,0,0,1.743-.554L492.9,539.788A.911.911,0,0,0,492.032,539.15Zm-1.99,10.176,1.99-6.247,1.99,6.247Z" fill="#ef54a1"/>
    <path id="路径_39224" data-name="路径 39224" d="M504.031,556.837a.914.914,0,0,0,1.829,0l.015-6.352,5.225-10a.918.918,0,0,0-.388-1.234.912.912,0,0,0-1.234.387l-4.532,8.671-4.531-8.671a.915.915,0,0,0-.537-.45.911.911,0,0,0-.7.063.916.916,0,0,0-.387,1.234l5.238,10.054Z" fill="#ef54a1"/>
    <path id="路径_39225" data-name="路径 39225" d="M529.784,560.484a.914.914,0,1,0,1.829,0V538.965a5.347,5.347,0,0,0-5.342-5.341H514.9v-14.6a5.377,5.377,0,0,0-5.37-5.37H475.241a5.376,5.376,0,0,0-5.369,5.37V565.9a.914.914,0,1,0,1.829,0V525.25h32.975a.914.914,0,1,0,0-1.829H471.7v-4.4a3.546,3.546,0,0,1,3.541-3.541h34.284a3.544,3.544,0,0,1,3.54,3.541v4.4h-4.574a.914.914,0,1,0,0,1.829h4.574v46.4H471.7v-1.934a.914.914,0,0,0-1.829,0v8.314a5.375,5.375,0,0,0,5.369,5.37h34.284a5.377,5.377,0,0,0,5.371-5.37V576.89h11.375a5.347,5.347,0,0,0,5.342-5.341V564.3a.914.914,0,0,0-1.829,0v7.249a3.518,3.518,0,0,1-3.513,3.513H514.9V535.453h11.375a3.516,3.516,0,0,1,3.513,3.512Zm-16.718,17.548a3.544,3.544,0,0,1-3.54,3.541H475.241a3.545,3.545,0,0,1-3.54-3.541v-4.551h41.365Z" fill="#ef54a1"/>
    <path id="路径_39226" data-name="路径 39226" d="M522.915,538.317a.916.916,0,0,0-.915.914V544.5a.914.914,0,1,0,1.829,0v-5.266A.916.916,0,0,0,522.915,538.317Z" fill="#ef54a1"/>
    <path id="路径_39227" data-name="路径 39227" d="M522.915,556.174a.915.915,0,0,0-.915.915v5.265a.914.914,0,1,0,1.829,0v-5.265A.915.915,0,0,0,522.915,556.174Z" fill="#ef54a1"/>
    <path id="路径_39228" data-name="路径 39228" d="M522.915,547.245a.915.915,0,0,0-.915.915v5.266a.914.914,0,0,0,1.829,0V548.16A.915.915,0,0,0,522.915,547.245Z" fill="#ef54a1"/>
    <path id="路径_39229" data-name="路径 39229" d="M522.915,565.1a.915.915,0,0,0-.915.915v5.265a.914.914,0,0,0,1.829,0v-5.265A.915.915,0,0,0,522.915,565.1Z" fill="#ef54a1"/>
  </g>
</svg>
