<svg xmlns="http://www.w3.org/2000/svg" width="67.75" height="67.75" viewBox="0 0 67.75 67.75">
  <g id="各社群生态支付" transform="translate(-539.115 -509.616)">
    <path id="路径_39239" data-name="路径 39239" d="M566.457,547.7l-.744-.267v-3.8a.926.926,0,0,0-1.852,0v3.794l-.753.264a5.027,5.027,0,0,0,1.658,9.773,3.176,3.176,0,1,1-3.176,3.176.926.926,0,0,0-1.852,0,5.038,5.038,0,0,0,3.37,4.745l.753.264v2.593a.926.926,0,1,0,1.852,0v-2.6l.745-.268a5.027,5.027,0,0,0-1.692-9.761,3.176,3.176,0,1,1,3.175-3.175.926.926,0,0,0,1.852,0A5.047,5.047,0,0,0,566.457,547.7Z" fill="#0080f4"/>
    <path id="路径_39240" data-name="路径 39240" d="M606.865,547.729a5.033,5.033,0,0,0-5.027-5.027H585.295a4.764,4.764,0,0,0-.48.024l-.6.06-.382-.464a26.922,26.922,0,0,0-6.842-5.939l-1.162-.7.9-1.012a5.02,5.02,0,0,0-1.6-7.891l-.893-.424,3.726-11.424a.926.926,0,0,0-.881-1.213h-7.3l-.266-.749a5.026,5.026,0,0,0-9.479,0l-.266.749h-7.3a.924.924,0,0,0-.879,1.214l3.724,11.423-.892.424a5.022,5.022,0,0,0-1.6,7.893l.906,1.012-1.163.7a28.207,28.207,0,0,0-13.467,23.649c0,6.608,2.613,11.357,7.766,14.115,4.1,2.2,9.788,3.217,17.906,3.217,6.677,0,11.573-.674,15.409-2.119l.743-.28.513.607a5.023,5.023,0,0,0,3.843,1.792h16.543a5.024,5.024,0,0,0,3.743-8.378l-.673-.751.673-.751a5.014,5.014,0,0,0,0-6.7l-.673-.751.673-.751a5.014,5.014,0,0,0,0-6.7l-.673-.751.673-.751A5.015,5.015,0,0,0,606.865,547.729Zm-53.106-32.16h6.927a.926.926,0,0,0,.925-.925,3.176,3.176,0,1,1,6.352,0v4.1a.926.926,0,1,0,1.851,0v-3.176h6l-3.5,10.727H557.256Zm-.351,15.754a3.18,3.18,0,0,1,3.166-3.176h16.4a3.176,3.176,0,1,1,.014,6.352H556.644A3.193,3.193,0,0,1,553.408,531.323Zm28.144,37.665a5.017,5.017,0,0,0-1.284,3.351v.777l-.725.4c-3.608,1.363-8.3,2-14.756,2-7.8,0-13.215-.952-17.033-3-4.567-2.446-6.787-6.529-6.787-12.484a26.11,26.11,0,0,1,15.584-23.6l.208-.087h16.049l.208.087a24.432,24.432,0,0,1,8.7,6.264l.7.78-.729.753a5.014,5.014,0,0,0-.135,6.846l.672.75-.672.751a5.015,5.015,0,0,0,0,6.7l.672.75-.672.751a5.015,5.015,0,0,0,0,6.7l.672.75Zm23.462,3.351a3.18,3.18,0,0,1-3.176,3.176H585.295a3.176,3.176,0,0,1,0-6.352h16.543A3.18,3.18,0,0,1,605.014,572.339Zm0-8.2a3.18,3.18,0,0,1-3.176,3.176H585.295a3.176,3.176,0,0,1,0-6.352h16.543A3.18,3.18,0,0,1,605.014,564.136Zm0-8.2a3.179,3.179,0,0,1-3.176,3.175H585.295a3.175,3.175,0,1,1,0-6.351h16.543A3.18,3.18,0,0,1,605.014,555.933Zm-3.176-5.028H585.295a3.176,3.176,0,1,1,0-6.351h16.543a3.176,3.176,0,1,1,0,6.351Z" fill="#0080f4"/>
  </g>
</svg>
