<svg xmlns="http://www.w3.org/2000/svg" width="256.486" height="47" viewBox="0 0 256.486 47">
  <g id="底部_LOGO" transform="translate(78.486 151.594)">
    <g id="组_2" data-name="组 2" transform="translate(-78.486 -145.594)">
      <path id="路径_2" data-name="路径 2" d="M133.3,526.359a4.3,4.3,0,0,0-1,1.175c-.248.469-.377,1.185.186,1.534a3.884,3.884,0,0,0,1.251-.359,5.924,5.924,0,0,1,3.019-.68c-.219-.987-.376-1.975-.495-2.945a6.828,6.828,0,0,0-2.958,1.276Z" transform="translate(-131.317 -508.567)" fill="#fff"/>
      <path id="路径_3" data-name="路径 3" d="M157.613,475.755a6.027,6.027,0,0,0-4.916.282c.893-1.909,1.9-3.973,2.777-6.06a19.236,19.236,0,0,0,1.856-6.736c0-8.063-6.049-13.373-11.8-13.373-6.483,0-12.18,4.91-12.193,12.562a.114.114,0,0,1,0,.013v.012a23.107,23.107,0,0,0,.1,3.159,6.07,6.07,0,0,0-3.357,1.448,4.952,4.952,0,0,0-1.18,1.389c-.482,1.071-.444,2.356.836,2.693a3.86,3.86,0,0,0,1.586-.418c.908-.336,2.04-.939,2.913-.5a33.369,33.369,0,0,0,2.335,6.465,19.885,19.885,0,0,0,3.8,5.518,7.006,7.006,0,0,0,4.769,2.274c2.688,0,5.1-1.337,7.042-2.633.971-.646,1.826-1.287,2.519-1.757a4.185,4.185,0,0,1,1.448-.724,5.866,5.866,0,0,1,1.954.553c.754.321,1.544.711,2.225.983a.413.413,0,0,0,.54-.357A5.08,5.08,0,0,0,157.613,475.755ZM131.015,470a3.858,3.858,0,0,1-1.241.357c-.559-.346-.431-1.058-.185-1.524a4.265,4.265,0,0,1,1-1.168,6.783,6.783,0,0,1,2.937-1.266c.118.963.274,1.944.492,2.925a5.885,5.885,0,0,0-3,.676Zm13-12.094a2.72,2.72,0,0,1,2.3-2.138c1.053.02,1.755,1.139,2.138,2.126a11.6,11.6,0,0,1,.615,3.774.415.415,0,0,1-.615.319,4.116,4.116,0,0,0-2.138-.516,4.165,4.165,0,0,0-2.151.516.415.415,0,0,1-.6-.319,13,13,0,0,1,.454-3.763Zm-7.325,4.081a.415.415,0,0,1-.6-.319,13.013,13.013,0,0,1,.455-3.761,2.72,2.72,0,0,1,2.3-2.138c1.053.02,1.755,1.139,2.139,2.126a11.607,11.607,0,0,1,.614,3.774.415.415,0,0,1-.614.319,4.118,4.118,0,0,0-2.139-.516,4.163,4.163,0,0,0-2.152.515Zm12.131,5.494a5.923,5.923,0,0,0-6.416-.5,7.138,7.138,0,0,0-2.176,1.61c-.51.592-.973,1.453-.1,1.905a4.152,4.152,0,0,0,1.389-.074c1.3-.218,2.633-.443,3.859.381l-.492.615c-.838-.648-2.157-.385-3.233-.221a4.42,4.42,0,0,1-1.711.074c-1.711-.446-1.063-2.275-.307-3.2a7.833,7.833,0,0,1,2.421-1.794,6.931,6.931,0,0,1,7.24.578Z" transform="translate(-128.614 -449.869)" fill="#fff"/>
    </g>
    <text id="SECRET" transform="translate(-26 -112.594)" fill="#fff" font-size="38" font-family="HiraginoSansGB-W6, Hiragino Sans GB" letter-spacing="0.2em"><tspan x="0" y="0">SECRET</tspan></text>
  </g>
</svg>
