<svg xmlns="http://www.w3.org/2000/svg" width="180.55" height="43.499" viewBox="0 0 180.55 43.499">
  <g id="logo-移动端" transform="translate(-2540.08 191.242)">
    <g id="组_21931" data-name="组 21931" transform="translate(2540.38 -191)">
      <path id="路径_39871" data-name="路径 39871" d="M684.64,1476.652c-.083-.382-.141-.946-.673-.871a7.079,7.079,0,0,1-1.346,2.262,6.782,6.782,0,0,1-1.8,1.093c-.307,1.441,1.672,2.323,2.7,1.453A4.006,4.006,0,0,0,684.64,1476.652Zm-1.544,3.266a1.391,1.391,0,0,1-1.522-.009c-.027-.088-.087-.264-.114-.35a3.712,3.712,0,0,0,2.566-2.431A2.723,2.723,0,0,1,683.1,1479.917Z" transform="translate(-666.959 -1462.753)" fill="#2d3436" stroke="#2d3436" stroke-miterlimit="10" stroke-width="0.3" fill-rule="evenodd"/>
      <path id="路径_39872" data-name="路径 39872" d="M671.8,1478.328c-1.137-.525-1.6-1.768-2.164-2.791-.52-.143-.58.5-.666.85a3.917,3.917,0,0,0,1.252,3.977,1.935,1.935,0,0,0,2.271-.239,1.332,1.332,0,0,0,.295-1C672.773,1478.621,672.142,1478.567,671.8,1478.328Zm.263,1.323c-.461.132-.977.378-1.425.066a2.849,2.849,0,0,1-1.063-2.9,3.769,3.769,0,0,0,2.541,2.431C672.105,1479.349,672.08,1479.548,672.066,1479.65Z" transform="translate(-664.492 -1462.7)" fill="#2d3436" stroke="#2d3436" stroke-miterlimit="10" stroke-width="0.3" fill-rule="evenodd"/>
      <path id="路径_39873" data-name="路径 39873" d="M698.725,1497.17a10.277,10.277,0,0,0-3.608-4.609,7.788,7.788,0,0,0-3.173-1.183,5.11,5.11,0,0,0-2.1.22l-.3.261c.026-.679.561-1.174.793-1.783a9.393,9.393,0,0,0,3.337-2.386,7.323,7.323,0,0,0,.527-5.383,13.185,13.185,0,0,1-.589-1.767,32.1,32.1,0,0,0,.762-4.319c.052-1.369.163-2.737.15-4.108a15.387,15.387,0,0,0-1.289-4.96,8.244,8.244,0,0,0,.822-3.212c.124-2.383-.288-2.168-1.346-.767a6,6,0,0,1-1.224,1.2,15.07,15.07,0,0,0-5.253-3.8c-1.17-.422-2.38-.717-3.579-1.033a22.8,22.8,0,0,0-3.97-.163,15.919,15.919,0,0,0-5.691,1.776,12.943,12.943,0,0,0-4.247,3.42,2.5,2.5,0,0,1-1.449-1.651c-.4-1.039-.592-1.078-.843.115a7.232,7.232,0,0,0,.32,4.73,8.706,8.706,0,0,1-.48,1.688,35.272,35.272,0,0,0-.973,6.965c.046.849.123,1.7.089,2.548a26.571,26.571,0,0,0-1.415,2.909,10.182,10.182,0,0,0,.441,8.149c.25.512.295,1.1.55,1.612a2.681,2.681,0,0,0,3.425,1.469c.3-.066.6-.373.914-.252a26.773,26.773,0,0,0,3.022,4.989,11.782,11.782,0,0,0,4.339,3.929,12.176,12.176,0,0,0,6.136.3,20.219,20.219,0,0,0,5-2.3c1.791-1.068,3.518-2.651,5.734-2.586,1.513.009,2.776,1.312,4.211,1.479C699.161,1498.829,699.158,1498.2,698.725,1497.17Zm-5.362-33.655c-.186,1.451-.307,3.095-1.441,4.156a1.73,1.73,0,0,1-1.5-1.772A6.21,6.21,0,0,0,693.363,1463.515Zm-26.47.634a17.156,17.156,0,0,0,1.271,1.167c-.343.522-.657,1.063-1.007,1.578A7.78,7.78,0,0,1,666.893,1464.148Zm1.271,28.24a2.256,2.256,0,0,1-2.632-2.555,4.887,4.887,0,0,1-1.132-2.509,12.017,12.017,0,0,1,1.216-6.189c.271,1.481.534,2.966.945,4.415a16.686,16.686,0,0,0,.6,2.614C669.427,1487.851,670.064,1491.485,668.164,1492.389Zm25.795,3.848a6.93,6.93,0,0,0-4.3,1.086c-2.3,1.326-4.472,2.982-7.07,3.708a9.347,9.347,0,0,1-4.839-.018c-2.582-1.113-4.3-3.464-5.848-5.707-.652-1.118-1.22-2.285-1.848-3.416a3.544,3.544,0,0,0-.218-3.606,3.038,3.038,0,0,0-1.611-1.068,43.8,43.8,0,0,1-1.793-8.963,25.424,25.424,0,0,1,1.984-11.455,14.108,14.108,0,0,1,12.158-6.366,12.357,12.357,0,0,1,9.979,4.629c-1.654.838-.266,3.75,1.473,3.275a3.14,3.14,0,0,1,.618-.234c.671,1.244.591,2.7.837,4.049a18.964,18.964,0,0,1-.659,6.844c-.282.8-.684,1.77-.12,2.544a5.645,5.645,0,0,1-.234,6.119,7.284,7.284,0,0,1-3.3,1.926,15.559,15.559,0,0,1-4.359.79,2.944,2.944,0,0,0-.236-2.387,7.3,7.3,0,0,0,4.013-2.871c.289-.252-.171-.924-.393-.454a6.752,6.752,0,0,1-4.668,2.4c-.828-.2-1.8-.591-2.566-.014-1.744.943-1.789,3.986.1,4.793a2.711,2.711,0,0,0,3.361-.807,16.353,16.353,0,0,0,4.286-.422,2.993,2.993,0,0,0-.53,2.312c1.2-.063,2.321-.747,3.553-.506,2.889.279,5.041,2.691,6.033,5.26C696.394,1497.441,695.4,1496.218,693.958,1496.236Zm-9.725-6.625c-.014,1.056-1.146,1.592-2.055,1.688a2.75,2.75,0,0,1-1.448-.673,2.34,2.34,0,0,1,.572-2.783A2.017,2.017,0,0,1,684.234,1489.611Z" transform="translate(-663.348 -1459.34)" fill="#2d3436" stroke="#2d3436" stroke-miterlimit="10" stroke-width="0.5" fill-rule="evenodd"/>
    </g>
    <path id="路径_39932" data-name="路径 39932" d="M7.459,13.18a41.9,41.9,0,0,0,6.443,4.6A6.333,6.333,0,0,1,17.43,23.6a8.28,8.28,0,0,1-2.3,6.13,8.092,8.092,0,0,1-5.983,2.146A7.683,7.683,0,0,1,3.47,29.884,7.952,7.952,0,0,1,1.016,24.06V22.528H4.544v1.379a4.992,4.992,0,0,0,1.227,3.678,4.165,4.165,0,0,0,3.068,1.226,5,5,0,0,0,3.682-1.226A4.771,4.771,0,0,0,13.9,24.06a4.2,4.2,0,0,0-2.148-3.678,76.443,76.443,0,0,1-7.21-5.211A6.987,6.987,0,0,1,1.936,9.808a6.992,6.992,0,0,1,2.3-5.67A7.274,7.274,0,0,1,9.3,1.992a7.059,7.059,0,0,1,5.216,1.839,8.237,8.237,0,0,1,2.148,6.437H13.135A4.745,4.745,0,0,0,11.908,6.13,3.552,3.552,0,0,0,9.3,5.057,3.552,3.552,0,0,0,6.692,6.13,4.409,4.409,0,0,0,5.311,9.348,5.145,5.145,0,0,0,7.459,13.18Zm21.416,1.379H39.306v2.912H28.874V28.964H40.993v2.912H25.346V1.992h14.88V4.9H28.874Zm36.143,5.824q-.46,6.9-2.915,9.348a7.045,7.045,0,0,1-10.125,0Q48.142,25.9,48.142,17.777q0-9.5,4.142-13.639a6.76,6.76,0,0,1,4.909-2.146,6.222,6.222,0,0,1,4.6,1.686q3.222,3.218,3.068,8.735H61.489q-.153-4.9-1.841-6.59a3.319,3.319,0,0,0-2.455-.92,3.38,3.38,0,0,0-2.455,1.073q-3.068,3.065-3.068,11.494,0,7.356,2.608,9.961a3.817,3.817,0,0,0,2.761,1.226,3.667,3.667,0,0,0,2.608-1.226q1.534-1.533,1.687-7.05Zm14.973-5.211a4.417,4.417,0,0,0,3.222-1.379,4.992,4.992,0,0,0,1.227-3.678,4.968,4.968,0,0,0-1.381-3.678A5.6,5.6,0,0,0,78.916,4.9H75.541V15.172Zm-.307-13.18a8.521,8.521,0,0,1,6.29,2.452,7.666,7.666,0,0,1,1.994,5.67,7.782,7.782,0,0,1-1.994,5.517,6.717,6.717,0,0,1-2.761,1.992l5.523,14.252H85.052L79.836,18.084h-4.3V31.876H72.012V1.992ZM99.564,14.559H110v2.912H99.564V28.964h12.119v2.912H96.036V1.992h14.88V4.9H99.564Zm25.558,17.317V4.9h-5.983V1.992h15.8V4.9h-6.29V31.876Z" transform="translate(2585.44 -186.195)" fill="#2d3436" stroke="#2d3436" stroke-width="0.5"/>
  </g>
</svg>
