<svg xmlns="http://www.w3.org/2000/svg" width="119.833" height="28.987" viewBox="0 0 119.833 28.987">
  <g id="logo" transform="translate(-2540.096 191.245)">
    <g id="组_21931" data-name="组 21931" transform="translate(1877.031 -1650.34)">
      <path id="路径_39871" data-name="路径 39871" d="M683.338,1476.355c-.055-.253-.094-.626-.446-.576a4.687,4.687,0,0,1-.891,1.5,4.49,4.49,0,0,1-1.193.723c-.2.954,1.107,1.538,1.786.962A2.652,2.652,0,0,0,683.338,1476.355Zm-1.022,2.162a.921.921,0,0,1-1.008-.006c-.018-.059-.057-.175-.075-.232a2.458,2.458,0,0,0,1.7-1.61A1.8,1.8,0,0,1,682.316,1478.517Z" transform="translate(-8.284 -7.807)" fill="#2d3436" stroke="#2d3436" stroke-miterlimit="10" stroke-width="0.3" fill-rule="evenodd"/>
      <path id="路径_39872" data-name="路径 39872" d="M670.813,1477.378c-.753-.347-1.056-1.171-1.433-1.848-.344-.094-.384.33-.441.563a2.594,2.594,0,0,0,.829,2.633,1.281,1.281,0,0,0,1.5-.158.881.881,0,0,0,.2-.659C671.455,1477.571,671.037,1477.536,670.813,1477.378Zm.174.876c-.305.087-.647.25-.943.044a1.886,1.886,0,0,1-.7-1.92,2.5,2.5,0,0,0,1.682,1.61C671.013,1478.053,671,1478.186,670.987,1478.253Z" transform="translate(-2.624 -7.684)" fill="#2d3436" stroke="#2d3436" stroke-miterlimit="10" stroke-width="0.3" fill-rule="evenodd"/>
      <path id="路径_39873" data-name="路径 39873" d="M686.769,1484.4a6.807,6.807,0,0,0-2.389-3.053,5.155,5.155,0,0,0-2.1-.784,3.38,3.38,0,0,0-1.392.146l-.2.173c.017-.45.372-.778.525-1.181a6.218,6.218,0,0,0,2.209-1.581,4.855,4.855,0,0,0,.349-3.566,8.732,8.732,0,0,1-.39-1.171,21.276,21.276,0,0,0,.5-2.861c.034-.907.108-1.813.1-2.722a10.2,10.2,0,0,0-.853-3.286,5.465,5.465,0,0,0,.544-2.128c.082-1.579-.191-1.436-.891-.508a3.975,3.975,0,0,1-.81.8,9.978,9.978,0,0,0-3.477-2.517c-.775-.28-1.575-.475-2.37-.685a15.08,15.08,0,0,0-2.628-.108,10.532,10.532,0,0,0-3.768,1.176,8.57,8.57,0,0,0-2.812,2.266,1.656,1.656,0,0,1-.96-1.094c-.266-.688-.392-.714-.558.076a4.794,4.794,0,0,0,.212,3.134,5.77,5.77,0,0,1-.318,1.118,23.386,23.386,0,0,0-.644,4.614c.03.563.081,1.124.059,1.688a17.616,17.616,0,0,0-.937,1.927,6.75,6.75,0,0,0,.292,5.4c.165.34.2.728.364,1.068a1.774,1.774,0,0,0,2.267.973c.2-.044.4-.247.605-.167a17.74,17.74,0,0,0,2,3.306,7.8,7.8,0,0,0,2.873,2.6,8.055,8.055,0,0,0,4.062.2,13.386,13.386,0,0,0,3.307-1.527c1.185-.707,2.329-1.756,3.8-1.714,1,.006,1.838.869,2.788.98C687.058,1485.5,687.056,1485.085,686.769,1484.4Zm-3.55-22.3a4.3,4.3,0,0,1-.954,2.753,1.146,1.146,0,0,1-.992-1.174A4.11,4.11,0,0,0,683.219,1462.106Zm-17.525.42a11.379,11.379,0,0,0,.841.773c-.227.346-.435.7-.667,1.046A5.158,5.158,0,0,1,665.695,1462.526Zm.841,18.709a1.494,1.494,0,0,1-1.742-1.693,3.239,3.239,0,0,1-.75-1.662,7.966,7.966,0,0,1,.805-4.1c.179.981.353,1.965.626,2.925a11.067,11.067,0,0,0,.394,1.732C667.373,1478.229,667.794,1480.637,666.536,1481.235Zm17.077,2.549a4.585,4.585,0,0,0-2.848.719,21.162,21.162,0,0,1-4.681,2.457,6.182,6.182,0,0,1-3.2-.012,9.824,9.824,0,0,1-3.872-3.781c-.432-.741-.808-1.514-1.223-2.263a2.349,2.349,0,0,0-.144-2.389,2.01,2.01,0,0,0-1.067-.708,29.037,29.037,0,0,1-1.187-5.938,16.854,16.854,0,0,1,1.313-7.589,9.338,9.338,0,0,1,8.049-4.218,8.178,8.178,0,0,1,6.607,3.066c-1.1.555-.176,2.484.975,2.17a2.088,2.088,0,0,1,.409-.155,8.67,8.67,0,0,1,.554,2.683,12.572,12.572,0,0,1-.436,4.535c-.187.53-.453,1.172-.08,1.685a3.742,3.742,0,0,1-.155,4.054,4.821,4.821,0,0,1-2.185,1.276,10.292,10.292,0,0,1-2.886.523,1.952,1.952,0,0,0-.156-1.581,4.833,4.833,0,0,0,2.657-1.9c.191-.167-.113-.612-.26-.3a4.469,4.469,0,0,1-3.091,1.591c-.548-.135-1.19-.391-1.7-.009a1.847,1.847,0,0,0,.069,3.175,1.794,1.794,0,0,0,2.225-.535,10.811,10.811,0,0,0,2.838-.28,1.984,1.984,0,0,0-.351,1.532c.8-.042,1.537-.5,2.352-.335a5.127,5.127,0,0,1,3.994,3.485C685.226,1484.583,684.568,1483.772,683.614,1483.784Zm-6.438-4.389c-.01.7-.759,1.055-1.36,1.118a1.822,1.822,0,0,1-.959-.446,1.551,1.551,0,0,1,.379-1.844A1.335,1.335,0,0,1,677.175,1479.4Z" fill="#2d3436" stroke="#2d3436" stroke-miterlimit="10" stroke-width="0.5" fill-rule="evenodd"/>
    </g>
    <path id="路径_39932" data-name="路径 39932" d="M5.281,9.406a27.738,27.738,0,0,0,4.266,3.047,4.2,4.2,0,0,1,2.336,3.859,5.491,5.491,0,0,1-1.523,4.063A5.354,5.354,0,0,1,6.4,21.8a5.083,5.083,0,0,1-3.758-1.32,5.272,5.272,0,0,1-1.625-3.859V15.6H3.352v.914a3.311,3.311,0,0,0,.813,2.438,2.756,2.756,0,0,0,2.031.813,3.311,3.311,0,0,0,2.438-.812,3.163,3.163,0,0,0,.914-2.336A2.783,2.783,0,0,0,8.125,14.18a50.611,50.611,0,0,1-4.773-3.453A4.632,4.632,0,0,1,1.625,7.172,4.636,4.636,0,0,1,3.148,3.414,4.814,4.814,0,0,1,6.5,1.992,4.67,4.67,0,0,1,9.953,3.211a5.462,5.462,0,0,1,1.422,4.266H9.039a3.146,3.146,0,0,0-.812-2.742A2.351,2.351,0,0,0,6.5,4.023a2.351,2.351,0,0,0-1.727.711,2.923,2.923,0,0,0-.914,2.133A3.411,3.411,0,0,0,5.281,9.406Zm14.178.914h6.906v1.93H19.459v7.617h8.023V21.8H17.123V1.992h9.852v1.93H19.459ZM43.388,14.18q-.3,4.57-1.93,6.2a4.661,4.661,0,0,1-6.7,0q-2.539-2.539-2.539-7.922,0-6.3,2.742-9.039a4.474,4.474,0,0,1,3.25-1.422,4.117,4.117,0,0,1,3.047,1.117A7.508,7.508,0,0,1,43.286,8.9H41.052q-.1-3.25-1.219-4.367a2.2,2.2,0,0,0-1.625-.609,2.237,2.237,0,0,0-1.625.711q-2.031,2.031-2.031,7.617,0,4.875,1.727,6.6a2.526,2.526,0,0,0,1.828.813,2.427,2.427,0,0,0,1.727-.812q1.016-1.016,1.117-4.672ZM53.3,10.727a2.923,2.923,0,0,0,2.133-.914,3.311,3.311,0,0,0,.813-2.437,3.294,3.294,0,0,0-.914-2.437,3.705,3.705,0,0,0-2.742-1.016H50.355v6.8Zm-.2-8.734a5.638,5.638,0,0,1,4.164,1.625,5.084,5.084,0,0,1,1.32,3.758,5.16,5.16,0,0,1-1.32,3.656,4.447,4.447,0,0,1-1.828,1.32L59.089,21.8H56.652L53.2,12.656H50.355V21.8H48.019V1.992ZM66.259,10.32h6.906v1.93H66.259v7.617h8.023V21.8H63.923V1.992h9.852v1.93H66.259ZM83.18,21.8V3.922H79.219V1.992H89.68v1.93H85.516V21.8Z" transform="translate(2570 -188.492)" fill="#2d3436" stroke="#2d3436" stroke-width="0.5"/>
  </g>
</svg>
