<svg xmlns="http://www.w3.org/2000/svg" width="256.099" height="36.399" viewBox="0 0 256.099 36.399">
  <g id="LOGO" transform="translate(78.989 146.493)">
    <path id="路径_30028" data-name="路径 30028" d="M1.71-8.4a12.99,12.99,0,0,0,.722,3.154A8.947,8.947,0,0,0,5.776-.912a15.278,15.278,0,0,0,7.98,1.976c4.066,0,7.068-.95,9.082-2.888a8.842,8.842,0,0,0,2.394-6.46,7.5,7.5,0,0,0-3.154-6.536,16.73,16.73,0,0,0-6.194-2.318c-4.218-.95-4.522-1.026-5.358-1.368-1.748-.76-2.584-1.862-2.584-3.458,0-2.47,2.242-4.142,5.548-4.142a6.012,6.012,0,0,1,4.75,1.824,4.908,4.908,0,0,1,1.14,2.7l5.434-.646a10.244,10.244,0,0,0-1.862-4.408c-1.862-2.508-5.13-3.838-9.462-3.838-6.536,0-10.792,3.42-10.792,8.7a7.479,7.479,0,0,0,2.926,6.156c1.368,1.064,2.888,1.672,5.738,2.318,5.244,1.216,5.472,1.254,6.612,1.862a3.858,3.858,0,0,1,1.9,3.5c0,2.85-2.28,4.56-6.08,4.56-2.47,0-4.446-.8-5.548-2.242A5.446,5.446,0,0,1,7.182-8.968ZM59.052-4.332a36.342,36.342,0,0,1-4.864.266h-11.4v-8.968H52.06a29.776,29.776,0,0,1,4.94.266v-4.978a39.549,39.549,0,0,1-4.94.266H42.826v-7.828H53.77a34.031,34.031,0,0,1,4.9.266v-5.016a40.6,40.6,0,0,1-4.9.266H42.294c-2.318,0-3.306-.038-4.826-.114a33.619,33.619,0,0,1,.3,4.9V-4.446a30.738,30.738,0,0,1-.3,5.016c1.52-.076,2.546-.114,4.826-.114H54.15a32.669,32.669,0,0,1,4.9.266ZM91.5-9.728a7.762,7.762,0,0,1-1.254,3.5A7.256,7.256,0,0,1,84.094-3.42c-5.32,0-8.664-4.332-8.664-11.286,0-6.992,3.268-11.21,8.664-11.21a6.881,6.881,0,0,1,5.548,2.356,7.918,7.918,0,0,1,1.634,3.268l5.282-1.216a13.514,13.514,0,0,0-1.178-2.926,11.666,11.666,0,0,0-4.028-4.142,13.428,13.428,0,0,0-7.3-1.824,13.2,13.2,0,0,0-9.5,3.61c-2.85,2.85-4.446,7.258-4.446,12.274,0,4.864,1.482,9.158,4.142,11.932C76.57-.19,79.876,1.064,84.018,1.064c4.56,0,8.208-1.482,10.374-4.142a14.519,14.519,0,0,0,2.546-5.7ZM134.406.456c-.532-1.026-1.482-3.078-1.786-3.762-3.762-8.892-4.484-9.956-6.878-10.716a8.034,8.034,0,0,0,4.218-2.2,7.813,7.813,0,0,0,1.938-5.662c0-5.016-3.306-7.9-9.082-7.9H113.7c-2.09,0-3.268-.038-4.864-.114a33.81,33.81,0,0,1,.3,4.94V-4.484a29.736,29.736,0,0,1-.3,4.94h5.662a29.654,29.654,0,0,1-.3-4.978v-7.752h5.662c2.926,0,4.256,1.406,6.308,6.65a30.762,30.762,0,0,1,1.976,6.08ZM114.19-16.606V-25.46h7.79c3.116,0,4.674,1.406,4.674,4.142a4.51,4.51,0,0,1-1.216,3.344,5.122,5.122,0,0,1-3.61,1.368Zm53.2,12.274a36.342,36.342,0,0,1-4.864.266h-11.4v-8.968H160.4a29.776,29.776,0,0,1,4.94.266v-4.978a39.549,39.549,0,0,1-4.94.266h-9.234v-7.828h10.944a34.031,34.031,0,0,1,4.9.266v-5.016a40.6,40.6,0,0,1-4.9.266H150.632c-2.318,0-3.306-.038-4.826-.114a33.619,33.619,0,0,1,.3,4.9V-4.446a30.738,30.738,0,0,1-.3,5.016c1.52-.076,2.546-.114,4.826-.114h11.856a32.669,32.669,0,0,1,4.9.266Zm25.384-20.9h4.75a39.957,39.957,0,0,1,5.586.266v-5.092a40.317,40.317,0,0,1-5.586.266H182.476a38.222,38.222,0,0,1-5.168-.266v5.092a37.734,37.734,0,0,1,5.206-.266h5.13V-4.484a31.854,31.854,0,0,1-.3,4.94h5.738a31.542,31.542,0,0,1-.3-4.94Z" transform="translate(-26 -112.594)" fill="#2d3436"/>
    <g id="组_21411" data-name="组 21411" transform="translate(-84.979 -145.993)">
      <path id="路径_37350" data-name="路径 37350" d="M29.688,11.407a2.648,2.648,0,0,1,2.355-2.154c1.077,0,1.817,1.144,2.154,2.154a12.358,12.358,0,0,1,.606,3.836.45.45,0,0,1-.471.4c-.067,0-.135,0-.135-.067a4.1,4.1,0,0,0-2.154-.538,4.34,4.34,0,0,0-2.221.538.372.372,0,0,1-.538-.2c0-.067-.067-.067-.067-.135a14.97,14.97,0,0,1,.471-3.836Z" transform="translate(-7.431 -3.026)"/>
      <path id="路径_37351" data-name="路径 37351" d="M18.523,15.579a.372.372,0,0,1-.538-.2c0-.067-.067-.067-.067-.135a14.614,14.614,0,0,1,.471-3.836,2.648,2.648,0,0,1,2.355-2.154c1.077,0,1.817,1.144,2.221,2.154a12.358,12.358,0,0,1,.606,3.836.45.45,0,0,1-.471.4c-.067,0-.135,0-.135-.067a4.183,4.183,0,0,0-2.221-.538,4.918,4.918,0,0,0-2.221.538Z" transform="translate(-3.736 -3.026)"/>
      <path id="路径_37352" data-name="路径 37352" d="M13.764,23.218a32.65,32.65,0,0,0,.913,5.458" transform="translate(-2.378 -7.593)" fill="none" stroke="#000" stroke-miterlimit="10" stroke-width="1"/>
      <path id="路径_3" data-name="路径 3" d="M36.188,26.448a6.284,6.284,0,0,0-5.047.269c.942-1.952,1.952-4.038,2.827-6.191a19.609,19.609,0,0,0,1.884-6.864C35.851,5.451,29.66,0,23.8,0c-6.663,0-12.45,5.047-12.45,12.854h0a25.885,25.885,0,0,0,.067,3.23l-.152.018a6.344,6.344,0,0,0-3.28,1.462,6.121,6.121,0,0,0-1.211,1.413c-.471,1.077-.471,2.423.875,2.759a4.394,4.394,0,0,0,1.615-.4,6.074,6.074,0,0,1,2.553-.656,1.445,1.445,0,0,1,.408.118,32.054,32.054,0,0,0,2.355,6.6,20.231,20.231,0,0,0,3.9,5.653A7.21,7.21,0,0,0,23.334,35.4a13.043,13.043,0,0,0,7.2-2.692c1.009-.673,1.884-1.346,2.557-1.817a4.374,4.374,0,0,1,1.481-.74,7.494,7.494,0,0,1,2.019.538c.74.336,1.548.74,2.288,1.009a.458.458,0,0,0,.538-.269v-.067A5.107,5.107,0,0,0,36.188,26.448ZM23.267,22.007c-.875-.673-2.221-.4-3.3-.2a5.1,5.1,0,0,1-1.75.067c-1.75-.471-1.077-2.355-.336-3.3a7.438,7.438,0,0,1,2.49-1.817,7.021,7.021,0,0,1,7.4.606" fill="none" stroke="#000" stroke-miterlimit="10" stroke-width="1"/>
    </g>
  </g>
</svg>
