<svg xmlns="http://www.w3.org/2000/svg" xmlns:xlink="http://www.w3.org/1999/xlink" width="1920" height="1080" viewBox="0 0 1920 1080">
  <defs>
    <clipPath id="clip-path">
      <rect id="矩形_2049" data-name="矩形 2049" width="1920" height="1080" fill="#fff"/>
    </clipPath>
  </defs>
  <g id="NAV_bg" clip-path="url(#clip-path)">
    <g id="组_466" data-name="组 466" transform="translate(-77.781 88)" opacity="0.05">
      <g id="组_464" data-name="组 464" transform="translate(0 8.158)">
        <g id="组_406" data-name="组 406" transform="translate(523.259 236.859)">
          <g id="组_404" data-name="组 404" transform="translate(0 0)">
            <rect id="矩形_139" data-name="矩形 139" width="498.127" height="1.995" transform="translate(0 89.364) rotate(-10.335)"/>
          </g>
          <g id="组_405" data-name="组 405" transform="translate(0 0)">
            <rect id="矩形_140" data-name="矩形 140" width="498.127" height="1.995" transform="translate(0 89.364) rotate(-10.335)"/>
          </g>
        </g>
        <g id="组_410" data-name="组 410" transform="translate(523.399 34.083)">
          <g id="组_407" data-name="组 407" transform="translate(489.598 0.386)">
            <rect id="矩形_141" data-name="矩形 141" width="203.507" height="1.33" transform="matrix(0.063, -0.998, 0.998, 0.063, 0, 203.1)"/>
          </g>
          <g id="组_408" data-name="组 408" transform="translate(0)">
            <path id="路径_730" data-name="路径 730" d="M63.265,353.255l-.665-1.33L564.718,59.3l1.33,1.33Z" transform="translate(-62.6 -59.3)"/>
          </g>
          <g id="组_409" data-name="组 409" transform="translate(0)">
            <path id="路径_731" data-name="路径 731" d="M63.265,353.255l-.665-1.33L564.718,59.3l1.33,1.33Z" transform="translate(-62.6 -59.3)"/>
          </g>
        </g>
        <g id="组_415" data-name="组 415" transform="translate(523.081 33.933)">
          <g id="组_411" data-name="组 411" transform="translate(344.719 0)">
            <rect id="矩形_142" data-name="矩形 142" width="192.201" height="1.33" transform="translate(0 109.728) rotate(-34.814)"/>
          </g>
          <g id="组_412" data-name="组 412" transform="translate(345.147 110.173)">
            <rect id="矩形_143" data-name="矩形 143" width="1.33" height="172.25" transform="matrix(0.54, -0.841, 0.841, 0.54, 0, 1.119)"/>
          </g>
          <g id="组_413" data-name="组 413" transform="translate(0 109.616)">
            <rect id="矩形_144" data-name="矩形 144" width="390.388" height="1.33" transform="translate(0 183.092) rotate(-27.969)"/>
          </g>
          <g id="组_414" data-name="组 414" transform="translate(0 109.616)">
            <rect id="矩形_145" data-name="矩形 145" width="390.388" height="1.33" transform="translate(0 183.092) rotate(-27.969)"/>
          </g>
        </g>
        <g id="组_418" data-name="组 418" transform="translate(0 326.708)">
          <g id="组_416" data-name="组 416">
            <path id="路径_732" data-name="路径 732" d="M-16.1,602.092,507.964,104.63l-.665-1.33L-16.1,600.1Z" transform="translate(16.1 -103.3)"/>
          </g>
          <g id="组_417" data-name="组 417">
            <path id="路径_733" data-name="路径 733" d="M-16.1,602.092,507.964,104.63l-.665-1.33L-16.1,600.1Z" transform="translate(16.1 -103.3)"/>
          </g>
        </g>
        <g id="组_425" data-name="组 425" transform="translate(0 143.817)">
          <g id="组_419" data-name="组 419" transform="translate(0 134.341)">
            <path id="路径_734" data-name="路径 734" d="M-16.1,514.985,59.716,96h-2L-16.1,505.675Z" transform="translate(16.1 -96)"/>
          </g>
          <g id="组_420" data-name="组 420" transform="translate(0 121.705)">
            <path id="路径_735" data-name="路径 735" d="M-16.1,94.1v1.33L58.386,107.4l.665-1.33Z" transform="translate(16.1 -94.1)"/>
          </g>
          <g id="组_421" data-name="组 421" transform="translate(74.486)">
            <path id="路径_736" data-name="路径 736" d="M-4.235,210.806l-.665-1.33L789.177,75.8v1.33Z" transform="translate(4.9 -75.8)"/>
          </g>
          <g id="组_422" data-name="组 422" transform="translate(0 133.676)">
            <path id="路径_737" data-name="路径 737" d="M-16.1,145.779,59.051,97.23l-.665-1.33L-16.1,143.784Z" transform="translate(16.1 -95.9)"/>
          </g>
          <g id="组_423" data-name="组 423" transform="translate(74.969 133.763)">
            <rect id="矩形_146" data-name="矩形 146" width="1.33" height="451.573" transform="translate(0 1.322) rotate(-83.754)"/>
          </g>
          <g id="组_424" data-name="组 424" transform="translate(74.969 133.763)">
            <rect id="矩形_147" data-name="矩形 147" width="1.33" height="451.573" transform="translate(0 1.322) rotate(-83.754)"/>
          </g>
        </g>
        <g id="组_431" data-name="组 431" transform="translate(523.188 34.956)">
          <g id="组_426" data-name="组 426" transform="translate(344.045 109.526)">
            <path id="路径_738" data-name="路径 738" d="M221.374,778.2,114.3,75.9h2L222.7,778.2Z" transform="translate(-114.3 -75.9)"/>
          </g>
          <g id="组_427" data-name="组 427" transform="translate(450.963 0)">
            <rect id="矩形_148" data-name="矩形 148" width="813.364" height="1.33" transform="translate(0 811.737) rotate(-86.406)"/>
          </g>
          <g id="组_428" data-name="组 428" transform="translate(451.145 203.273)">
            <rect id="矩形_149" data-name="矩形 149" width="609.857" height="1.33" transform="translate(0 608.637) rotate(-86.392)"/>
          </g>
          <g id="组_429" data-name="组 429" transform="translate(0 291.853)">
            <rect id="矩形_150" data-name="矩形 150" width="1.33" height="688.333" transform="matrix(0.755, -0.656, 0.656, 0.755, 0, 0.873)"/>
          </g>
          <g id="组_430" data-name="组 430" transform="translate(0 291.853)">
            <rect id="矩形_151" data-name="矩形 151" width="1.33" height="688.333" transform="matrix(0.755, -0.656, 0.656, 0.755, 0, 0.873)"/>
          </g>
        </g>
        <g id="组_439" data-name="组 439" transform="translate(0 144.24)">
          <g id="组_432" data-name="组 432" transform="translate(558.985 702.498)">
            <rect id="矩形_152" data-name="矩形 152" width="426.301" height="1.995" transform="matrix(0.976, -0.219, 0.219, 0.976, 0, 93.189)"/>
          </g>
          <g id="组_433" data-name="组 433" transform="translate(73.821 133.253)">
            <path id="路径_739" data-name="路径 739" d="M479.826,760.291-5,97.23l1.33-1.33L481.156,759.626Z" transform="translate(5 -95.9)"/>
          </g>
          <g id="组_434" data-name="组 434" transform="translate(0 711.187)">
            <path id="路径_740" data-name="路径 740" d="M-16.1,182.8v1.33l559.312,85.792v-2Z" transform="translate(16.1 -182.8)"/>
          </g>
          <g id="组_435" data-name="组 435" transform="translate(558.658)">
            <rect id="矩形_153" data-name="矩形 153" width="854.597" height="1.995" transform="translate(0 796.912) rotate(-68.826)"/>
          </g>
          <g id="组_436" data-name="组 436" transform="translate(558.647 93.35)">
            <path id="路径_741" data-name="路径 741" d="M69.23,794.195l-1.33-.665L522.133,89.9l1.33.665Z" transform="translate(-67.9 -89.9)"/>
          </g>
          <g id="组_437" data-name="组 437" transform="translate(522.859 182.9)">
            <rect id="矩形_154" data-name="矩形 154" width="1.995" height="615.177" transform="matrix(0.998, -0.058, 0.058, 0.998, 0, 0.116)"/>
          </g>
          <g id="组_438" data-name="组 438" transform="translate(522.859 182.9)">
            <rect id="矩形_155" data-name="矩形 155" width="1.995" height="615.177" transform="matrix(0.998, -0.058, 0.058, 0.998, 0, 0.116)"/>
          </g>
        </g>
        <g id="组_444" data-name="组 444" transform="translate(867.899 0)">
          <g id="组_440" data-name="组 440" transform="translate(582.589 0.165)">
            <path id="路径_742" data-name="路径 742" d="M826.488,388.723,202.665,54.2,202,55.53,826.488,390.053Z" transform="translate(-202 -54.2)"/>
          </g>
          <g id="组_441" data-name="组 441" transform="translate(0 0.165)">
            <path id="路径_743" data-name="路径 743" d="M115.065,199.182l-.665-1.33L696.989,54.2l.665,1.33Z" transform="translate(-114.4 -54.2)"/>
          </g>
          <g id="组_442" data-name="组 442" transform="translate(158.283 0.165)">
            <path id="路径_744" data-name="路径 744" d="M138.2,89.448v-1.33L562.506,54.2l.665,1.33Z" transform="translate(-138.2 -54.2)"/>
          </g>
          <g id="组_443" data-name="组 443" transform="translate(145.474)">
            <rect id="矩形_156" data-name="矩形 156" width="497.462" height="1.33" transform="matrix(0.879, -0.477, 0.477, 0.879, 0, 237.14)"/>
          </g>
        </g>
        <g id="组_447" data-name="组 447" transform="translate(974.973 237.566)">
          <g id="组_445" data-name="组 445" transform="translate(0 608.551)">
            <path id="路径_745" data-name="路径 745" d="M596.7,290.469,130.5,182.73V181.4L596.7,288.474Z" transform="translate(-130.5 -181.4)"/>
          </g>
          <g id="组_446" data-name="组 446" transform="translate(37.813 0)">
            <rect id="矩形_157" data-name="矩形 157" width="1.995" height="834.646" transform="translate(0 1.023) rotate(-30.843)"/>
          </g>
        </g>
        <g id="组_455" data-name="组 455" transform="translate(867.899 0.026)">
          <g id="组_448" data-name="组 448" transform="translate(572.481 563.975)">
            <rect id="矩形_158" data-name="矩形 158" width="420.316" height="1.995" transform="matrix(0.374, -0.927, 0.927, 0.374, 0, 389.759)"/>
          </g>
          <g id="组_449" data-name="组 449" transform="translate(581.961 0)">
            <rect id="矩形_159" data-name="矩形 159" width="1.995" height="582.589" transform="matrix(0.967, -0.253, 0.253, 0.967, 0, 0.505)"/>
          </g>
          <g id="组_450" data-name="组 450" transform="translate(730.232 415.134)">
            <path id="路径_746" data-name="路径 746" d="M701.045,116.6,224.2,264.908v1.33L701.045,118.6Z" transform="translate(-224.2 -116.6)"/>
          </g>
          <g id="组_451" data-name="组 451" transform="translate(106.826 562.824)">
            <rect id="矩形_160" data-name="矩形 160" width="684.343" height="1.33" transform="translate(0 283.386) rotate(-24.463)"/>
          </g>
          <g id="组_452" data-name="组 452" transform="translate(0 143.791)">
            <path id="路径_747" data-name="路径 747" d="M843.967,496.781,114.4,77.13l.665-1.33L845.3,495.45Z" transform="translate(-114.4 -75.8)"/>
          </g>
          <g id="组_453" data-name="组 453" transform="translate(157.804 33.806)">
            <rect id="矩形_161" data-name="矩形 161" width="1.995" height="779.446" transform="translate(0 1.465) rotate(-47.229)"/>
          </g>
          <g id="组_454" data-name="组 454" transform="translate(144.951 236.891)">
            <rect id="矩形_162" data-name="矩形 162" width="1.995" height="669.712" transform="translate(0 1.742) rotate(-60.849)"/>
          </g>
        </g>
        <g id="组_457" data-name="组 457" transform="translate(1598.13 563.468)">
          <g id="组_456" data-name="组 456">
            <path id="路径_748" data-name="路径 748" d="M701.045,263.266,224.2,138.9v1.33l476.845,125.03Z" transform="translate(-224.2 -138.9)"/>
          </g>
        </g>
        <g id="组_463" data-name="组 463" transform="translate(974.865 524.895)">
          <g id="组_458" data-name="组 458" transform="translate(783.543 359.795)">
            <path id="路径_749" data-name="路径 749" d="M564.867,187.2,248.3,288.954l.665,2L564.867,189.2Z" transform="translate(-248.3 -187.2)"/>
          </g>
          <g id="组_459" data-name="组 459" transform="translate(622.6 38.573)">
            <path id="路径_750" data-name="路径 750" d="M385.044,563.206,224.1,139.565l1.33-.665L386.374,562.541Z" transform="translate(-224.1 -138.9)"/>
          </g>
          <g id="组_460" data-name="组 460" transform="translate(466.016 427.831)">
            <rect id="矩形_163" data-name="矩形 163" width="1.995" height="319.227" transform="translate(0 1.984) rotate(-83.996)"/>
          </g>
          <g id="组_461" data-name="组 461" transform="translate(783.543)">
            <path id="路径_751" data-name="路径 751" d="M564.867,133.1,248.3,595.314l1.33.665L564.867,135.76Z" transform="translate(-248.3 -133.1)"/>
          </g>
          <g id="组_462" data-name="组 462" transform="translate(0 321.415)">
            <rect id="矩形_164" data-name="矩形 164" width="1.33" height="796.072" transform="translate(0 1.309) rotate(-79.81)"/>
          </g>
        </g>
      </g>
      <g id="组_465" data-name="组 465" transform="translate(66.163)">
        <path id="路径_752" data-name="路径 752" d="M72.332,119.117a8.633,8.633,0,1,1,5.986-10.641C79.647,112.467,76.987,117.787,72.332,119.117Z" transform="translate(387.565 225.059)"/>
        <path id="路径_753" data-name="路径 753" d="M146.032,105.617a8.633,8.633,0,1,1,5.985-10.641C152.682,99.632,150.022,104.287,146.032,105.617Z" transform="translate(804.011 148.777)"/>
        <path id="路径_754" data-name="路径 754" d="M72.332,119.117a8.633,8.633,0,1,1,5.986-10.641C79.647,112.467,76.987,117.787,72.332,119.117Z" transform="translate(387.565 225.059)"/>
        <path id="路径_755" data-name="路径 755" d="M146.032,105.617a8.633,8.633,0,1,1,5.985-10.641C152.682,99.632,150.022,104.287,146.032,105.617Z" transform="translate(804.011 148.777)"/>
        <path id="路径_756" data-name="路径 756" d="M146.032,105.617a8.633,8.633,0,1,1,5.985-10.641C152.682,99.632,150.022,104.287,146.032,105.617Z" transform="translate(804.011 148.777)"/>
        <path id="路径_757" data-name="路径 757" d="M147.932,75.117a8.633,8.633,0,1,1,5.985-10.641C155.247,68.467,152.587,73.787,147.932,75.117Z" transform="translate(814.747 -23.566)"/>
        <path id="路径_758" data-name="路径 758" d="M72.332,119.117a8.633,8.633,0,1,1,5.986-10.641C79.647,112.467,76.987,117.787,72.332,119.117Z" transform="translate(387.565 225.059)"/>
        <path id="路径_759" data-name="路径 759" d="M147.932,75.117a8.633,8.633,0,1,1,5.985-10.641C155.247,68.467,152.587,73.787,147.932,75.117Z" transform="translate(814.747 -23.566)"/>
        <path id="路径_760" data-name="路径 760" d="M72.332,119.117a8.633,8.633,0,1,1,5.986-10.641C79.647,112.467,76.987,117.787,72.332,119.117Z" transform="translate(387.565 225.059)"/>
        <path id="路径_761" data-name="路径 761" d="M147.932,75.117a8.633,8.633,0,1,1,5.985-10.641C155.247,68.467,152.587,73.787,147.932,75.117Z" transform="translate(814.747 -23.566)"/>
        <path id="路径_762" data-name="路径 762" d="M147.932,75.117a8.633,8.633,0,1,1,5.985-10.641C155.247,68.467,152.587,73.787,147.932,75.117Z" transform="translate(814.747 -23.566)"/>
        <path id="路径_763" data-name="路径 763" d="M124.132,91.617a8.633,8.633,0,1,1,5.986-10.641C131.447,84.967,128.787,90.287,124.132,91.617Z" transform="translate(680.264 69.669)"/>
        <path id="路径_764" data-name="路径 764" d="M146.032,105.617a8.633,8.633,0,1,1,5.985-10.641C152.682,99.632,150.022,104.287,146.032,105.617Z" transform="translate(804.011 148.777)"/>
        <path id="路径_765" data-name="路径 765" d="M124.132,91.617a8.633,8.633,0,1,1,5.986-10.641C131.447,84.967,128.787,90.287,124.132,91.617Z" transform="translate(680.264 69.669)"/>
        <path id="路径_766" data-name="路径 766" d="M72.332,119.117a8.633,8.633,0,1,1,5.986-10.641C79.647,112.467,76.987,117.787,72.332,119.117Z" transform="translate(387.565 225.059)"/>
        <path id="路径_767" data-name="路径 767" d="M124.132,91.617a8.633,8.633,0,1,1,5.986-10.641C131.447,84.967,128.787,90.287,124.132,91.617Z" transform="translate(680.264 69.669)"/>
        <path id="路径_768" data-name="路径 768" d="M72.332,119.117a8.633,8.633,0,1,1,5.986-10.641C79.647,112.467,76.987,117.787,72.332,119.117Z" transform="translate(387.565 225.059)"/>
        <path id="路径_769" data-name="路径 769" d="M124.132,91.617a8.633,8.633,0,1,1,5.986-10.641C131.447,84.967,128.787,90.287,124.132,91.617Z" transform="translate(680.264 69.669)"/>
        <path id="路径_770" data-name="路径 770" d="M72.332,119.117a8.633,8.633,0,1,1,5.986-10.641C79.647,112.467,76.987,117.787,72.332,119.117Z" transform="translate(387.565 225.059)"/>
        <path id="路径_771" data-name="路径 771" d="M72.332,119.117a8.633,8.633,0,1,1,5.986-10.641C79.647,112.467,76.987,117.787,72.332,119.117Z" transform="translate(387.565 225.059)"/>
        <path id="路径_772" data-name="路径 772" d="M4.832,111.717a8.54,8.54,0,0,1-10.641-5.986A8.54,8.54,0,0,1,.176,95.091a8.54,8.54,0,0,1,10.641,5.986C12.147,105.067,9.487,110.387,4.832,111.717Z" transform="translate(6.151 183.245)"/>
        <path id="路径_773" data-name="路径 773" d="M4.832,111.717a8.54,8.54,0,0,1-10.641-5.986A8.54,8.54,0,0,1,.176,95.091a8.54,8.54,0,0,1,10.641,5.986C12.147,105.067,9.487,110.387,4.832,111.717Z" transform="translate(6.151 183.245)"/>
        <path id="路径_774" data-name="路径 774" d="M124.132,91.617a8.633,8.633,0,1,1,5.986-10.641C131.447,84.967,128.787,90.287,124.132,91.617Z" transform="translate(680.264 69.669)"/>
        <path id="路径_775" data-name="路径 775" d="M4.832,111.717a8.54,8.54,0,0,1-10.641-5.986A8.54,8.54,0,0,1,.176,95.091a8.54,8.54,0,0,1,10.641,5.986C12.147,105.067,9.487,110.387,4.832,111.717Z" transform="translate(6.151 183.245)"/>
        <path id="路径_776" data-name="路径 776" d="M4.832,111.717a8.54,8.54,0,0,1-10.641-5.986A8.54,8.54,0,0,1,.176,95.091a8.54,8.54,0,0,1,10.641,5.986C12.147,105.067,9.487,110.387,4.832,111.717Z" transform="translate(6.151 183.245)"/>
        <path id="路径_777" data-name="路径 777" d="M72.332,119.117a8.633,8.633,0,1,1,5.986-10.641C79.647,112.467,76.987,117.787,72.332,119.117Z" transform="translate(387.565 225.059)"/>
        <path id="路径_778" data-name="路径 778" d="M4.832,111.717a8.54,8.54,0,0,1-10.641-5.986A8.54,8.54,0,0,1,.176,95.091a8.54,8.54,0,0,1,10.641,5.986C12.147,105.067,9.487,110.387,4.832,111.717Z" transform="translate(6.151 183.245)"/>
        <path id="路径_779" data-name="路径 779" d="M72.332,119.117a8.633,8.633,0,1,1,5.986-10.641C79.647,112.467,76.987,117.787,72.332,119.117Z" transform="translate(387.565 225.059)"/>
        <path id="路径_780" data-name="路径 780" d="M4.832,111.717a8.54,8.54,0,0,1-10.641-5.986A8.54,8.54,0,0,1,.176,95.091a8.54,8.54,0,0,1,10.641,5.986C12.147,105.067,9.487,110.387,4.832,111.717Z" transform="translate(6.151 183.245)"/>
        <path id="路径_781" data-name="路径 781" d="M124.132,91.617a8.633,8.633,0,1,1,5.986-10.641C131.447,84.967,128.787,90.287,124.132,91.617Z" transform="translate(680.264 69.669)"/>
        <path id="路径_782" data-name="路径 782" d="M140.232,197.117a8.633,8.633,0,1,1,5.986-10.641A8.54,8.54,0,0,1,140.232,197.117Z" transform="translate(771.238 665.803)"/>
        <path id="路径_783" data-name="路径 783" d="M147.932,75.117a8.633,8.633,0,1,1,5.985-10.641C155.247,68.467,152.587,73.787,147.932,75.117Z" transform="translate(814.747 -23.566)"/>
        <path id="路径_784" data-name="路径 784" d="M140.232,197.117a8.633,8.633,0,1,1,5.986-10.641A8.54,8.54,0,0,1,140.232,197.117Z" transform="translate(771.238 665.803)"/>
        <path id="路径_785" data-name="路径 785" d="M146.032,105.617a8.633,8.633,0,1,1,5.985-10.641C152.682,99.632,150.022,104.287,146.032,105.617Z" transform="translate(804.011 148.777)"/>
        <path id="路径_786" data-name="路径 786" d="M140.232,197.117a8.633,8.633,0,1,1,5.986-10.641A8.54,8.54,0,0,1,140.232,197.117Z" transform="translate(771.238 665.803)"/>
        <path id="路径_787" data-name="路径 787" d="M72.332,119.117a8.633,8.633,0,1,1,5.986-10.641C79.647,112.467,76.987,117.787,72.332,119.117Z" transform="translate(387.565 225.059)"/>
        <path id="路径_788" data-name="路径 788" d="M140.232,197.117a8.633,8.633,0,1,1,5.986-10.641A8.54,8.54,0,0,1,140.232,197.117Z" transform="translate(771.238 665.803)"/>
        <path id="路径_789" data-name="路径 789" d="M72.332,119.117a8.633,8.633,0,1,1,5.986-10.641C79.647,112.467,76.987,117.787,72.332,119.117Z" transform="translate(387.565 225.059)"/>
        <path id="路径_790" data-name="路径 790" d="M140.232,197.117a8.633,8.633,0,1,1,5.986-10.641A8.54,8.54,0,0,1,140.232,197.117Z" transform="translate(771.238 665.803)"/>
        <path id="路径_791" data-name="路径 791" d="M140.232,197.117a8.633,8.633,0,1,1,5.986-10.641A8.54,8.54,0,0,1,140.232,197.117Z" transform="translate(771.238 665.803)"/>
        <path id="路径_792" data-name="路径 792" d="M77.732,211.417a8.633,8.633,0,1,1,5.986-10.641A8.54,8.54,0,0,1,77.732,211.417Z" transform="translate(418.078 746.606)"/>
        <path id="路径_793" data-name="路径 793" d="M4.832,111.717a8.54,8.54,0,0,1-10.641-5.986A8.54,8.54,0,0,1,.176,95.091a8.54,8.54,0,0,1,10.641,5.986C12.147,105.067,9.487,110.387,4.832,111.717Z" transform="translate(6.151 183.245)"/>
        <path id="路径_794" data-name="路径 794" d="M77.732,211.417a8.633,8.633,0,1,1,5.986-10.641A8.54,8.54,0,0,1,77.732,211.417Z" transform="translate(418.078 746.606)"/>
        <path id="路径_795" data-name="路径 795" d="M77.732,211.417a8.633,8.633,0,1,1,5.986-10.641A8.54,8.54,0,0,1,77.732,211.417Z" transform="translate(418.078 746.606)"/>
        <path id="路径_796" data-name="路径 796" d="M124.132,91.617a8.633,8.633,0,1,1,5.986-10.641C131.447,84.967,128.787,90.287,124.132,91.617Z" transform="translate(680.264 69.669)"/>
        <path id="路径_797" data-name="路径 797" d="M77.732,211.417a8.633,8.633,0,1,1,5.986-10.641A8.54,8.54,0,0,1,77.732,211.417Z" transform="translate(418.078 746.606)"/>
        <path id="路径_798" data-name="路径 798" d="M146.032,105.617a8.633,8.633,0,1,1,5.985-10.641C152.682,99.632,150.022,104.287,146.032,105.617Z" transform="translate(804.011 148.777)"/>
        <path id="路径_799" data-name="路径 799" d="M77.732,211.417a8.633,8.633,0,1,1,5.986-10.641A8.54,8.54,0,0,1,77.732,211.417Z" transform="translate(418.078 746.606)"/>
        <path id="路径_800" data-name="路径 800" d="M72.332,119.117a8.633,8.633,0,1,1,5.986-10.641C79.647,112.467,76.987,117.787,72.332,119.117Z" transform="translate(387.565 225.059)"/>
        <path id="路径_801" data-name="路径 801" d="M77.732,211.417a8.633,8.633,0,1,1,5.986-10.641A8.54,8.54,0,0,1,77.732,211.417Z" transform="translate(418.078 746.606)"/>
        <path id="路径_802" data-name="路径 802" d="M72.332,119.117a8.633,8.633,0,1,1,5.986-10.641C79.647,112.467,76.987,117.787,72.332,119.117Z" transform="translate(387.565 225.059)"/>
        <path id="路径_803" data-name="路径 803" d="M77.732,211.417a8.633,8.633,0,1,1,5.986-10.641A8.54,8.54,0,0,1,77.732,211.417Z" transform="translate(418.078 746.606)"/>
        <path id="路径_804" data-name="路径 804" d="M211.732,69.917a8.633,8.633,0,1,1,5.985-10.641A8.54,8.54,0,0,1,211.732,69.917Z" transform="translate(1175.253 -52.949)"/>
        <path id="路径_805" data-name="路径 805" d="M124.132,91.617a8.633,8.633,0,1,1,5.986-10.641C131.447,84.967,128.787,90.287,124.132,91.617Z" transform="translate(680.264 69.669)"/>
        <path id="路径_806" data-name="路径 806" d="M211.732,69.917a8.633,8.633,0,1,1,5.985-10.641A8.54,8.54,0,0,1,211.732,69.917Z" transform="translate(1175.253 -52.949)"/>
        <path id="路径_807" data-name="路径 807" d="M147.932,75.117a8.633,8.633,0,1,1,5.985-10.641C155.247,68.467,152.587,73.787,147.932,75.117Z" transform="translate(814.747 -23.566)"/>
        <path id="路径_808" data-name="路径 808" d="M211.732,69.917a8.633,8.633,0,1,1,5.985-10.641A8.54,8.54,0,0,1,211.732,69.917Z" transform="translate(1175.253 -52.949)"/>
        <path id="路径_809" data-name="路径 809" d="M146.032,105.617a8.633,8.633,0,1,1,5.985-10.641C152.682,99.632,150.022,104.287,146.032,105.617Z" transform="translate(804.011 148.777)"/>
        <path id="路径_810" data-name="路径 810" d="M211.732,69.917a8.633,8.633,0,1,1,5.985-10.641A8.54,8.54,0,0,1,211.732,69.917Z" transform="translate(1175.253 -52.949)"/>
        <path id="路径_811" data-name="路径 811" d="M140.232,197.117a8.633,8.633,0,1,1,5.986-10.641A8.54,8.54,0,0,1,140.232,197.117Z" transform="translate(771.238 665.803)"/>
        <path id="路径_812" data-name="路径 812" d="M210.332,213.317a8.633,8.633,0,1,1,5.985-10.641A8.54,8.54,0,0,1,210.332,213.317Z" transform="translate(1167.342 757.342)"/>
        <path id="路径_813" data-name="路径 813" d="M146.032,105.617a8.633,8.633,0,1,1,5.985-10.641C152.682,99.632,150.022,104.287,146.032,105.617Z" transform="translate(804.011 148.777)"/>
        <path id="路径_814" data-name="路径 814" d="M210.332,213.317a8.633,8.633,0,1,1,5.985-10.641A8.54,8.54,0,0,1,210.332,213.317Z" transform="translate(1167.342 757.342)"/>
        <path id="路径_815" data-name="路径 815" d="M210.332,213.317a8.633,8.633,0,1,1,5.985-10.641A8.54,8.54,0,0,1,210.332,213.317Z" transform="translate(1167.342 757.342)"/>
        <path id="路径_816" data-name="路径 816" d="M233.932,154.617a8.633,8.633,0,1,1,5.986-10.641A8.54,8.54,0,0,1,233.932,154.617Z" transform="translate(1300.695 425.654)"/>
        <path id="路径_817" data-name="路径 817" d="M211.732,69.917a8.633,8.633,0,1,1,5.985-10.641A8.54,8.54,0,0,1,211.732,69.917Z" transform="translate(1175.253 -52.949)"/>
        <path id="路径_818" data-name="路径 818" d="M233.932,154.617a8.633,8.633,0,1,1,5.986-10.641A8.54,8.54,0,0,1,233.932,154.617Z" transform="translate(1300.695 425.654)"/>
        <path id="路径_819" data-name="路径 819" d="M233.932,154.617a8.633,8.633,0,1,1,5.986-10.641A8.54,8.54,0,0,1,233.932,154.617Z" transform="translate(1300.695 425.654)"/>
        <path id="路径_820" data-name="路径 820" d="M140.232,197.117a8.633,8.633,0,1,1,5.986-10.641A8.54,8.54,0,0,1,140.232,197.117Z" transform="translate(771.238 665.803)"/>
        <path id="路径_821" data-name="路径 821" d="M233.932,154.617a8.633,8.633,0,1,1,5.986-10.641A8.54,8.54,0,0,1,233.932,154.617Z" transform="translate(1300.695 425.654)"/>
        <path id="路径_822" data-name="路径 822" d="M124.132,91.617a8.633,8.633,0,1,1,5.986-10.641C131.447,84.967,128.787,90.287,124.132,91.617Z" transform="translate(680.264 69.669)"/>
        <path id="路径_823" data-name="路径 823" d="M233.932,154.617a8.633,8.633,0,1,1,5.986-10.641A8.54,8.54,0,0,1,233.932,154.617Z" transform="translate(1300.695 425.654)"/>
        <path id="路径_824" data-name="路径 824" d="M147.932,75.117a8.633,8.633,0,1,1,5.985-10.641C155.247,68.467,152.587,73.787,147.932,75.117Z" transform="translate(814.747 -23.566)"/>
        <path id="路径_825" data-name="路径 825" d="M233.932,154.617a8.633,8.633,0,1,1,5.986-10.641A8.54,8.54,0,0,1,233.932,154.617Z" transform="translate(1300.695 425.654)"/>
        <path id="路径_826" data-name="路径 826" d="M146.032,105.617a8.633,8.633,0,1,1,5.985-10.641C152.682,99.632,150.022,104.287,146.032,105.617Z" transform="translate(804.011 148.777)"/>
        <path id="路径_827" data-name="路径 827" d="M233.932,154.617a8.633,8.633,0,1,1,5.986-10.641A8.54,8.54,0,0,1,233.932,154.617Z" transform="translate(1300.695 425.654)"/>
        <path id="路径_828" data-name="路径 828" d="M233.932,154.617a8.633,8.633,0,1,1,5.986-10.641A8.54,8.54,0,0,1,233.932,154.617Z" transform="translate(1300.695 425.654)"/>
        <path id="路径_829" data-name="路径 829" d="M258.032,218.317a8.633,8.633,0,1,1,5.986-10.641A8.54,8.54,0,0,1,258.032,218.317Z" transform="translate(1436.874 785.595)"/>
        <path id="路径_830" data-name="路径 830" d="M233.932,154.617a8.633,8.633,0,1,1,5.986-10.641A8.54,8.54,0,0,1,233.932,154.617Z" transform="translate(1300.695 425.654)"/>
        <path id="路径_831" data-name="路径 831" d="M258.032,218.317a8.633,8.633,0,1,1,5.986-10.641A8.54,8.54,0,0,1,258.032,218.317Z" transform="translate(1436.874 785.595)"/>
        <path id="路径_832" data-name="路径 832" d="M210.332,213.317a8.633,8.633,0,1,1,5.985-10.641A8.54,8.54,0,0,1,210.332,213.317Z" transform="translate(1167.342 757.342)"/>
        <path id="路径_833" data-name="路径 833" d="M258.032,218.317a8.633,8.633,0,1,1,5.986-10.641A8.54,8.54,0,0,1,258.032,218.317Z" transform="translate(1436.874 785.595)"/>
        <path id="路径_834" data-name="路径 834" d="M258.032,218.317a8.633,8.633,0,1,1,5.986-10.641A8.54,8.54,0,0,1,258.032,218.317Z" transform="translate(1436.874 785.595)"/>
        <path id="路径_835" data-name="路径 835" d="M140.232,197.117a8.633,8.633,0,1,1,5.986-10.641A8.54,8.54,0,0,1,140.232,197.117Z" transform="translate(771.238 665.803)"/>
        <path id="路径_836" data-name="路径 836" d="M258.032,218.317a8.633,8.633,0,1,1,5.986-10.641A8.54,8.54,0,0,1,258.032,218.317Z" transform="translate(1436.874 785.595)"/>
      </g>
    </g>
  </g>
</svg>
