<svg xmlns="http://www.w3.org/2000/svg" width="20" height="20" viewBox="0 0 20 20">
  <g id="组_21883" data-name="组 21883" transform="translate(-37 -2.103)">
    <g id="组_21874" data-name="组 21874" transform="translate(33 7.625)">
      <g id="组_21872" data-name="组 21872" transform="translate(0)">
        <path id="路径_39920" data-name="路径 39920" d="M46.954,127.31h0a10,10,0,0,1-10-10h0a10,10,0,0,1,10-10h0a10,10,0,0,1,10,10h0A10,10,0,0,1,46.954,127.31Z" transform="translate(-32.954 -112.832)" fill="#fff"/>
        <path id="路径_39918" data-name="路径 39918" d="M0,8.893V3.261H3.231c.356,0,.474-.059.5-.119l.03-.03A.726.726,0,0,0,4.032,2.7V2.52a.618.618,0,0,0-.208-.445A.727.727,0,0,0,3.35,1.9H0V0H3.261a2.571,2.571,0,0,1,2.52,1.6,2.846,2.846,0,0,1,.178.978,2.481,2.481,0,0,1-.83,1.868,2.463,2.463,0,0,1-1.275.623,3.588,3.588,0,0,1-.563.03L1.9,5.128V8.893Z" transform="translate(8)" fill="#e60000"/>
        <path id="路径_39919" data-name="路径 39919" d="M25.206,8.893,20.7,4.447,25.176,0H28.23L23.842,4.447,28.2,8.893Z" transform="translate(-6.23)" fill="#e60000"/>
      </g>
    </g>
  </g>
</svg>
