<svg xmlns="http://www.w3.org/2000/svg" width="218" height="218" viewBox="0 0 218 218">
  <g id="secret_logo" transform="translate(-237.357 -260.357)">
    <g id="矩形_131" data-name="矩形 131" transform="translate(237.357 260.357)" fill="#fff" stroke="#9ba6ac" stroke-width="2">
      <rect width="218" height="218" rx="16" stroke="none"/>
      <rect x="1" y="1" width="216" height="216" rx="15" fill="none"/>
    </g>
    <g id="组_115" data-name="组 115" transform="translate(-0.027 5.568)">
      <g id="组_111" data-name="组 111" transform="translate(300.357 287.789)">
        <path id="路径_119" data-name="路径 119" d="M592.746,259.341a59.564,59.564,0,0,1,10.363.426c3.132.822,6.287,1.591,9.342,2.691a39.324,39.324,0,0,1,13.708,9.9,15.643,15.643,0,0,0,3.194-3.133c2.763-3.648,3.838-4.21,3.515,2-.374,2.845-.646,5.838-2.147,8.364,2.058,4,2.746,8.512,3.364,12.919.035,3.573-.255,7.134-.392,10.7-.214,3.815-1.257,7.518-1.987,11.251.16,1.632,1.15,3.023,1.536,4.6,1.162,4.632,1.044,9.79-1.376,14.019a24.5,24.5,0,0,1-8.708,6.217c-.606,1.586-2.005,2.875-2.071,4.644.2-.171.6-.515.8-.681a13.363,13.363,0,0,1,5.486-.573c2.854.721,5.932,1.165,8.281,3.081a26.777,26.777,0,0,1,9.417,12c1.13,2.684,1.138,4.324-2.531,3.9-3.745-.437-7.043-3.83-10.991-3.854-5.783-.165-10.292,3.957-14.965,6.737-4.153,2.36-8.364,4.839-13.039,6a31.846,31.846,0,0,1-16.016-.78c-4.745-2.136-8.263-6.158-11.324-10.234-3.292-3.9-5.54-8.512-7.889-13-.812-.314-1.6.484-2.384.657-3.369,1.562-7.557-.544-8.939-3.828-.664-1.336-.783-2.863-1.436-4.2-3.5-6.454-3.576-14.393-1.15-21.225.907-2.68,2.479-5.045,3.7-7.578.089-2.218-.113-4.425-.232-6.637a91.761,91.761,0,0,1,2.539-18.143c.38-1.479,1.174-2.857,1.251-4.395-1.9-3.822-1.7-8.212-.833-12.319.655-3.109,1.152-3.005,2.2-.3.724,1.869,1.77,3.642,3.783,4.3,2.716-4.017,7.053-6.424,11.086-8.909a41.575,41.575,0,0,1,14.853-4.626Zm-26.794,19.314h0c-4.253,9.281-5.534,19.71-5.178,29.837a114.049,114.049,0,0,0,4.68,23.348c1.561.651,3.293,1.242,4.206,2.78,2.254,2.656,1.744,6.389.57,9.393,1.637,2.946,3.12,5.986,4.823,8.9,4.045,5.845,8.524,11.966,15.262,14.865a24.444,24.444,0,0,0,12.629.047c6.78-1.893,12.439-6.2,18.454-9.659a18.118,18.118,0,0,1,11.229-2.827c3.76-.048,6.359,3.141,9.935,3.75-2.592-6.691-8.209-12.973-15.749-13.7-3.215-.627-6.127,1.154-9.272,1.319-.593-2.147.3-4.211,1.382-6.022a42.875,42.875,0,0,1-11.187,1.1,7.083,7.083,0,0,1-8.773,2.1c-4.941-2.1-4.822-10.027-.273-12.481,2-1.5,4.538-.5,6.7.035,4.6-.562,9.331-2.437,12.184-6.252.582-1.225,1.78.526,1.026,1.183-2.218,3.845-6.437,6-10.476,7.477a7.655,7.655,0,0,1,.616,6.217A40.726,40.726,0,0,0,620.115,338a19,19,0,0,0,8.613-5.016,14.675,14.675,0,0,0,.611-15.935c-1.471-2.017-.422-4.543.315-6.626a49.319,49.319,0,0,0,1.72-17.828c-.641-3.526-.433-7.305-2.182-10.548a8.362,8.362,0,0,0-1.614.61c-4.538,1.236-8.162-6.347-3.843-8.53-5.968-8.063-16.195-12.085-26.047-12.055-12.505-.58-24.949,6.181-31.735,16.58Zm65.119-8.547h0a16.2,16.2,0,0,1-7.67,6.211c.125,2.259,1.471,4.425,3.909,4.614,2.96-2.763,3.275-7.045,3.76-10.825Zm-69.087,1.65h0a20.182,20.182,0,0,0,.688,7.152c.914-1.343,1.733-2.751,2.628-4.112a44.6,44.6,0,0,1-3.316-3.04Zm-6.507,60.366h0c.1,2.5,1.584,4.56,2.954,6.536-.694,3.709,3.038,7.678,6.869,6.655,4.958-2.354,3.3-11.819-2.628-11-1-2.142-.919-4.567-1.554-6.808-1.073-3.774-1.762-7.643-2.467-11.5a31.244,31.244,0,0,0-3.174,16.12Zm44.121,1.348h0c-1.934,1.757-2.853,4.886-1.495,7.253a7.192,7.192,0,0,0,3.778,1.751c2.373-.249,5.327-1.644,5.362-4.4C607.652,334.311,602.664,331.632,599.6,333.471Z" transform="translate(-552.732 -259.234)" fill="#052231" stroke="#052231" stroke-width="0.5" fill-rule="evenodd"/>
        <path id="路径_122" data-name="路径 122" d="M566.365,300.667c.227-.925.382-2.607,1.749-2.231,1.492,2.685,2.7,5.948,5.68,7.326.888.626,2.547.77,2.6,2.106a3.5,3.5,0,0,1-.776,2.613c-1.683,1.164-4.182,2.077-5.961.627-3.222-2.315-4.045-6.754-3.288-10.441Zm1.587,1.128h0a7.486,7.486,0,0,0,2.792,7.613c1.176.817,2.53.173,3.741-.173.036-.268.1-.794.138-1.056C571.282,307.552,569.258,304.687,567.952,301.794Z" transform="translate(-554.601 -265.034)" fill="#070203" stroke="#052231" stroke-width="0.5" fill-rule="evenodd"/>
        <path id="路径_123" data-name="路径 123" d="M603.283,299.023c1.4-.2,1.551,1.283,1.766,2.286.805,3.64.012,7.857-2.948,10.334-2.691,2.285-7.887-.03-7.082-3.812,1.564-.973,3.5-1.426,4.732-2.871a18.566,18.566,0,0,0,3.532-5.936ZM596.7,308.94h0c.071.226.227.686.3.919,1.247.614,2.828,1,4,.024a7.151,7.151,0,0,0,2.44-7.327C602.149,305.473,600.066,308.373,596.7,308.94Z" transform="translate(-558.869 -265.127)" fill="#070203" stroke="#052231" stroke-width="0.5" fill-rule="evenodd"/>
      </g>
      <path id="路径_39932" data-name="路径 39932" d="M-75.559,7.969a22.281,22.281,0,0,0,3.426,2.46,3.39,3.39,0,0,1,1.876,3.113,4.444,4.444,0,0,1-1.223,3.279,4.287,4.287,0,0,1-3.181,1.148A4.07,4.07,0,0,1-77.679,16.9a4.266,4.266,0,0,1-1.3-3.115v-.819h1.876v.738a2.68,2.68,0,0,0,.652,1.967,2.207,2.207,0,0,0,1.631.656,2.648,2.648,0,0,0,1.958-.656,2.56,2.56,0,0,0,.733-1.885,2.249,2.249,0,0,0-1.142-1.967,40.648,40.648,0,0,1-3.833-2.787A3.745,3.745,0,0,1-78.5,6.166a3.751,3.751,0,0,1,1.223-3.033A3.856,3.856,0,0,1-74.58,1.985a3.74,3.74,0,0,1,2.773.984,4.422,4.422,0,0,1,1.142,3.443h-1.876A2.548,2.548,0,0,0-73.193,4.2a1.883,1.883,0,0,0-1.387-.574,1.883,1.883,0,0,0-1.387.574A2.365,2.365,0,0,0-76.7,5.92,2.756,2.756,0,0,0-75.559,7.969Zm24.026.738h5.546v1.558h-5.546v6.147h6.443v1.558h-8.319V1.985H-45.5V3.541h-6.036Zm31.857,3.115q-.245,3.691-1.55,5a3.735,3.735,0,0,1-2.692,1.148,3.735,3.735,0,0,1-2.692-1.148q-2.04-2.049-2.04-6.394,0-5.081,2.2-7.295a3.584,3.584,0,0,1,2.61-1.148,3.3,3.3,0,0,1,2.446.9,6.076,6.076,0,0,1,1.631,4.672h-1.793q-.081-2.621-.979-3.525a1.759,1.759,0,0,0-1.305-.492,1.792,1.792,0,0,0-1.305.574q-1.631,1.639-1.631,6.148,0,3.934,1.387,5.328a2.024,2.024,0,0,0,1.468.656,1.945,1.945,0,0,0,1.387-.656q.816-.82.9-3.771ZM.925,9.035A2.342,2.342,0,0,0,2.638,8.3,2.68,2.68,0,0,0,3.291,6.33a2.666,2.666,0,0,0-.734-1.967,2.967,2.967,0,0,0-2.2-.822H-1.441V9.035ZM.762,1.985A4.516,4.516,0,0,1,4.106,3.3a4.115,4.115,0,0,1,1.06,3.033A4.177,4.177,0,0,1,4.106,9.28a3.572,3.572,0,0,1-1.468,1.065l2.936,7.623H3.616L.843,10.592H-1.443v7.377H-3.317V1.985Zm23.21,6.722H29.52v1.558H23.972v6.147h6.443v1.558H22.1V1.985h7.911V3.541H23.972ZM50.2,17.969V3.541H45.424V1.985H57.016V3.541h-4.94V17.969Z" transform="translate(357.368 421.219)" fill="#052231" stroke="#2d3436" stroke-width="0.5"/>
    </g>
  </g>
</svg>
