<svg xmlns="http://www.w3.org/2000/svg" width="438.717" height="309.127" viewBox="0 0 438.717 309.127">
  <g id="首页-01秘密网络" transform="translate(-166.441 -837.262)">
    <ellipse id="椭圆_1629" data-name="椭圆 1629" cx="15.366" cy="18.682" rx="15.366" ry="18.682" transform="translate(167.069 914.749) rotate(-17.538)" fill="none" stroke="#2d3436" stroke-miterlimit="10" stroke-width="1"/>
    <ellipse id="椭圆_1630" data-name="椭圆 1630" cx="11.554" cy="13.773" rx="11.554" ry="13.773" transform="translate(416.181 850.918) rotate(-17.538)" fill="none" stroke="#2d3436" stroke-miterlimit="10" stroke-width="1"/>
    <ellipse id="椭圆_1631" data-name="椭圆 1631" cx="5.333" cy="6.357" rx="5.333" ry="6.357" transform="matrix(0.954, -0.301, 0.301, 0.954, 388.29, 965.037)" fill="none" stroke="#6287de" stroke-miterlimit="10" stroke-width="1.5"/>
    <ellipse id="椭圆_1632" data-name="椭圆 1632" cx="4.942" cy="5.891" rx="4.942" ry="5.891" transform="translate(543.77 919.352) rotate(-17.538)" fill="none" stroke="#2d3436" stroke-miterlimit="10" stroke-width="1"/>
    <ellipse id="椭圆_1633" data-name="椭圆 1633" cx="10.187" cy="12.143" rx="10.187" ry="12.143" transform="translate(513.999 971.53) rotate(-17.538)" fill="none" stroke="#ef54a1" stroke-miterlimit="10" stroke-width="1.5"/>
    <circle id="椭圆_1634" data-name="椭圆 1634" cx="27.955" cy="27.955" r="27.955" transform="translate(524.181 1014.968) rotate(-17.538)" fill="none" stroke="#2d3436" stroke-miterlimit="10" stroke-width="1.5"/>
    <path id="路径_36947" data-name="路径 36947" d="M343.789,951.485c-1.941-17.982,11.99-32.559,31.117-32.559a38.057,38.057,0,0,1,8.288.916" transform="translate(183.228 81.275)" fill="none" stroke="#2d3436" stroke-miterlimit="10" stroke-width="2" stroke-dasharray="1 1"/>
    <path id="路径_36948" data-name="路径 36948" d="M392.913,934.988c2.119,17.982-13.093,32.559-33.98,32.559" transform="translate(198.967 99.619)" fill="none" stroke="#2d3436" stroke-miterlimit="10" stroke-width="2" stroke-dasharray="1 1"/>
    <ellipse id="椭圆_1636" data-name="椭圆 1636" cx="5.206" cy="6.206" rx="5.206" ry="6.206" transform="translate(324.494 998.583) rotate(-17.538)" fill="none" stroke="#2d3436" stroke-miterlimit="10" stroke-width="1"/>
    <ellipse id="椭圆_1637" data-name="椭圆 1637" cx="22.877" cy="27.271" rx="22.877" ry="27.271" transform="translate(366.167 954.716) rotate(-17.538)" fill="none" stroke="#6287de" stroke-miterlimit="10" stroke-width="2" stroke-dasharray="1 1"/>
    <ellipse id="椭圆_1638" data-name="椭圆 1638" cx="15.772" cy="18.801" rx="15.772" ry="18.801" transform="translate(410.642 847.395) rotate(-17.538)" fill="none" stroke="#2d3436" stroke-miterlimit="10" stroke-width="1"/>
    <ellipse id="椭圆_1639" data-name="椭圆 1639" cx="11.438" cy="13.635" rx="11.438" ry="13.635" transform="translate(226.752 869.773) rotate(-17.538)" fill="none" stroke="#ffc200" stroke-miterlimit="10" stroke-width="2" stroke-dasharray="1 2"/>
    <path id="路径_36949" data-name="路径 36949" d="M178.865,959.735v-56.3l42.23,6.541v56.3Z" transform="translate(14.591 77.241)" fill="none" stroke="#ef54a1" stroke-miterlimit="10" stroke-width="1"/>
    <line id="直线_117" data-name="直线 117" x2="16.132" y2="2.407" transform="translate(198.439 987.955)" fill="none" stroke="#ef54a1" stroke-linecap="round" stroke-linejoin="round" stroke-width="1"/>
    <line id="直线_118" data-name="直线 118" x2="16.132" y2="2.407" transform="translate(198.439 993.469)" fill="none" stroke="#ef54a1" stroke-linecap="round" stroke-linejoin="round" stroke-width="1"/>
    <line id="直线_119" data-name="直线 119" x2="31.842" y2="4.971" transform="translate(198.439 1010.068)" fill="none" stroke="#2d3436" stroke-linecap="round" stroke-linejoin="round" stroke-width="1"/>
    <line id="直线_120" data-name="直线 120" x2="31.842" y2="4.971" transform="translate(198.439 1022.915)" fill="none" stroke="#2d3436" stroke-linecap="round" stroke-linejoin="round" stroke-width="1"/>
    <path id="路径_36950" data-name="路径 36950" d="M231.448,945.393s4.723-3.284,4.723-6.492V886.365s-.339-2.2-3.969-2.534l-21.454-2.787a9.5,9.5,0,0,0-7.32,5.293" transform="translate(39.71 44.268)" fill="none" stroke="#2d3436" stroke-linecap="round" stroke-linejoin="round" stroke-width="1.5"/>
    <path id="路径_36951" data-name="路径 36951" d="M203.428,889.8v47.721a3.976,3.976,0,0,0,2.872,2.534l24.157,3.462s2.027.422,2.027-2.787V888.19s-.338-2.2-3.971-2.534l-21.452-2.787s-3.547-.253-3.632,1.606Z" transform="translate(39.711 46.129)" fill="none" stroke="#2d3436" stroke-linecap="round" stroke-linejoin="round" stroke-width="1.5"/>
    <line id="直线_121" data-name="直线 121" x2="7.855" y2="1.014" transform="translate(254.331 934.605)" fill="none" stroke="#2d3436" stroke-linecap="round" stroke-linejoin="round" stroke-width="1"/>
    <path id="路径_36953" data-name="路径 36953" d="M231.333,892.566v96.992l186.49,24.663-2.138-128.264L263.774,868.722" transform="translate(68.179 31.608)" fill="none" stroke="#2d3436" stroke-linecap="round" stroke-linejoin="round" stroke-width="1"/>
    <path id="路径_36954" data-name="路径 36954" d="M235.368,885.983l1.28,91.471,167.908,21.713L402.53,889.22,259.564,872.5" transform="translate(72.325 35.488)" fill="none" stroke="#2d3436" stroke-linecap="round" stroke-linejoin="round" stroke-width="1"/>
    <path id="路径_36955" data-name="路径 36955" d="M327.92,996.582,378.6,943.2l-29.055-2.7v9.628L297.815,999.96V987.629l50.545-46.116" transform="translate(136.336 105.24)" fill="none" stroke="#2d3436" stroke-linecap="round" stroke-linejoin="round" stroke-width="1"/>
    <path id="路径_36956" data-name="路径 36956" d="M298.626,993.693l5.913,6.249s6.588,2.7,10.979-.675l14.189-13.514s4.224-3.547,1.859-12.162-15.2-6.081-15.2-6.081l-16.555,15.71S296.43,988.793,298.626,993.693Z" transform="translate(136.455 132.623)" fill="none" stroke="#2d3436" stroke-linecap="round" stroke-linejoin="round" stroke-width="1"/>
    <path id="路径_36957" data-name="路径 36957" d="M330.25,960.167v31.082l43.075,6.081V966.106Z" transform="translate(169.508 125.439)" fill="none" stroke="#ef54a1" stroke-linecap="round" stroke-linejoin="round" stroke-width="1.5"/>
    <path id="路径_36958" data-name="路径 36958" d="M297.955,988.408s-.947,2.872,2.094,7.095,9.04,8.865,17.317,5.656l14.991-14.271s5.7-6.927-.72-16.555" transform="translate(136.383 135.88)" fill="none" stroke="#2d3436" stroke-linecap="round" stroke-linejoin="round" stroke-width="1"/>
    <path id="路径_39971" data-name="路径 39971" d="M15.568,17.3,0,0" transform="translate(526.968 1105.214)" fill="none" stroke="#ef54a1" stroke-linecap="round" stroke-width="1.5"/>
    <path id="路径_39970" data-name="路径 39970" d="M0,13.014,15.763.169" transform="translate(499.876 1103.673)" fill="none" stroke="#ef54a1" stroke-linecap="round" stroke-width="1.5"/>
    <path id="路径_36960" data-name="路径 36960" d="M263.429,928.333l-63.346,45.609,198.109,26.183" transform="translate(36.216 92.774)" fill="none" stroke="#2d3436" stroke-linecap="round" stroke-linejoin="round" stroke-width="1"/>
    <path id="路径_36961" data-name="路径 36961" d="M397.8,989.359,200.083,961.813v-10.98" transform="translate(36.216 115.853)" fill="none" stroke="#2d3436" stroke-linecap="round" stroke-linejoin="round" stroke-width="1"/>
    <line id="直线_124" data-name="直线 124" x2="144.914" y2="21.073" transform="translate(302.589 1033.496)" opacity="0.5" stroke="#6287de" stroke-linecap="round" stroke-linejoin="round" stroke-width="2" stroke-dasharray="1 4" fill="none"/>
    <line id="直线_125" data-name="直线 125" x2="144.914" y2="21.073" transform="translate(287.891 1045.779)" opacity="0.5" stroke="#6287de" stroke-linecap="round" stroke-linejoin="round" stroke-width="2" stroke-dasharray="1 4" fill="none"/>
    <line id="直线_126" data-name="直线 126" x2="144.914" y2="21.073" transform="translate(274.686 1058.324)" opacity="0.5" stroke="#6287de" stroke-linecap="round" stroke-linejoin="round" stroke-width="2" stroke-dasharray="1 4" fill="none"/>
    <path id="路径_36962" data-name="路径 36962" d="M263.75,896.132V886.25l9.5,11.782" transform="translate(101.51 49.62)" fill="none" stroke="#6287de" stroke-linecap="round" stroke-linejoin="round" stroke-width="1"/>
    <line id="直线_127" data-name="直线 127" x1="9.502" y1="0.887" transform="translate(365.26 935.872)" fill="none" stroke="#6287de" stroke-linecap="round" stroke-linejoin="round" stroke-width="1"/>
    <path id="路径_36963" data-name="路径 36963" d="M274.813,888.213l7.221-6.588,6.081,7.475" transform="translate(112.84 44.875)" fill="none" stroke="#6287de" stroke-linecap="round" stroke-linejoin="round" stroke-width="1"/>
    <line id="直线_128" data-name="直线 128" x1="0.127" y1="13.936" transform="translate(394.873 926.499)" fill="none" stroke="#6287de" stroke-linecap="round" stroke-linejoin="round" stroke-width="1"/>
    <path id="路径_36964" data-name="路径 36964" d="M297.556,900.382V890.5l-8.868,8.488" transform="translate(127.057 53.981)" fill="none" stroke="#6287de" stroke-linecap="round" stroke-linejoin="round" stroke-width="1"/>
    <line id="直线_129" data-name="直线 129" x2="8.868" y2="1.52" transform="translate(415.744 942.963)" fill="none" stroke="#0080f4" stroke-linecap="round" stroke-linejoin="round" stroke-width="1"/>
    <path id="路径_36965" data-name="路径 36965" d="M296.75,904l6.335,7.6-6.335,6.841" transform="translate(135.318 67.831)" fill="none" stroke="#6287de" stroke-linecap="round" stroke-linejoin="round" stroke-width="1"/>
    <line id="直线_130" data-name="直线 130" x2="13.809" y2="0.887" transform="translate(424.597 978.546)" fill="none" stroke="#6287de" stroke-linecap="round" stroke-linejoin="round" stroke-width="1"/>
    <path id="路径_36966" data-name="路径 36966" d="M297.931,918.253v10h-8.868" transform="translate(127.441 82.457)" fill="none" stroke="#6287de" stroke-linecap="round" stroke-linejoin="round" stroke-width="1"/>
    <line id="直线_131" data-name="直线 131" x2="9.629" y2="10.895" transform="translate(415.743 999.817)" fill="none" stroke="#6287de" stroke-linecap="round" stroke-linejoin="round" stroke-width="1"/>
    <path id="路径_36967" data-name="路径 36967" d="M288.674,926.089l-6.715,6.63-6.335-8.657" transform="translate(113.672 88.417)" fill="none" stroke="#6287de" stroke-linecap="round" stroke-linejoin="round" stroke-width="1"/>
    <line id="直线_132" data-name="直线 132" x1="0.19" y2="14.612" transform="translate(395.632 1006.527)" fill="none" stroke="#6287de" stroke-linecap="round" stroke-linejoin="round" stroke-width="1"/>
    <path id="路径_36968" data-name="路径 36968" d="M273.943,925.713h-9.755V914.438" transform="translate(101.958 78.541)" fill="none" stroke="#6287de" stroke-linecap="round" stroke-linejoin="round" stroke-width="1"/>
    <line id="直线_133" data-name="直线 133" x1="9.755" y2="10.515" transform="translate(366.146 993.739)" fill="none" stroke="#6287de" stroke-linecap="round" stroke-linejoin="round" stroke-width="1"/>
    <path id="路径_36969" data-name="路径 36969" d="M263.961,913.448l-6.461-7.855,6.461-6.968" transform="translate(95.109 62.316)" fill="none" stroke="#6287de" stroke-linecap="round" stroke-linejoin="round" stroke-width="1"/>
    <line id="直线_134" data-name="直线 134" x1="13.556" y1="1.267" transform="translate(352.605 967.909)" fill="none" stroke="#6287de" stroke-linecap="round" stroke-linejoin="round" stroke-width="1"/>
    <path id="路径_36970" data-name="路径 36970" d="M272.667,911.977s9.8,12.162,22.381,4.393c0,0,1.942-5.783-5.4-8.615S273.681,905.052,272.667,911.977Z" transform="translate(110.636 69.903)" fill="none" stroke="#6287de" stroke-miterlimit="10" stroke-width="1.5"/>
    <path id="路径_36971" data-name="路径 36971" d="M294.375,861v18.666l7.264.929v-19Z" transform="translate(132.884 23.712)" fill="none" stroke="#2d3436" stroke-miterlimit="10" stroke-width="1"/>
    <path id="路径_36972" data-name="路径 36972" d="M294.987,857.874l0,6.362,4.528.364-.021-6.01" transform="translate(133.514 20.526)" fill="none" stroke="#2d3436" stroke-miterlimit="10" stroke-width="1"/>
    <ellipse id="椭圆_1640" data-name="椭圆 1640" cx="6.087" cy="7.256" rx="6.087" ry="7.256" transform="translate(251.208 946.616) rotate(-17.538)" fill="none" stroke="#6287de" stroke-miterlimit="10" stroke-width="1"/>
    <ellipse id="椭圆_1641" data-name="椭圆 1641" cx="8.309" cy="9.905" rx="8.309" ry="9.905" transform="translate(248.293 944.76) rotate(-17.538)" fill="none" stroke="#6287de" stroke-miterlimit="10" stroke-width="1"/>
    <path id="路径_36973" data-name="路径 36973" d="M210.29,900.343v9.834l3.827.49V900.654Z" transform="translate(46.747 64.08)" fill="none" stroke="#6287de" stroke-miterlimit="10" stroke-width="1"/>
    <path id="路径_36974" data-name="路径 36974" d="M210.613,898.7v3.392l2.782.258v-3.272" transform="translate(47.078 62.391)" fill="none" stroke="#6287de" stroke-miterlimit="10" stroke-width="1"/>
    <path id="路径_36975" data-name="路径 36975" d="M355.414,883v16.385h4.528" transform="translate(195.353 46.285)" fill="none" stroke="#2d3436" stroke-linecap="round" stroke-miterlimit="10" stroke-width="1"/>
    <line id="直线_135" data-name="直线 135" x1="3.215" transform="translate(550.767 940.262)" fill="none" stroke="#2d3436" stroke-linecap="round" stroke-miterlimit="10" stroke-width="1"/>
    <path id="路径_36976" data-name="路径 36976" d="M363.562,883.687V935.5l37.374,5.828V903.325l-12.289-15.583Z" transform="translate(203.722 46.982)" fill="none" stroke="#2d3436" stroke-miterlimit="10" stroke-width="1"/>
    <path id="路径_36977" data-name="路径 36977" d="M368.375,899.875l8.932,11.529,8.932-8.108" transform="translate(208.664 63.6)" fill="none" stroke="#2d3436" stroke-linecap="round" stroke-miterlimit="10" stroke-width="1"/>
    <line id="直线_136" data-name="直线 136" y2="21.791" transform="translate(585.971 953.215)" fill="none" stroke="#2d3436" stroke-linecap="round" stroke-miterlimit="10" stroke-width="1"/>
    <path id="路径_36978" data-name="路径 36978" d="M375.937,885.687V899.75l12.289,1.521" transform="translate(216.432 49.042)" fill="none" stroke="#2d3436" stroke-miterlimit="10" stroke-width="1"/>
    <line id="直线_137" data-name="直线 137" x2="20.355" y2="2.745" transform="translate(303.556 902.61)" fill="none" stroke="#6287de" stroke-linecap="round" stroke-linejoin="round" stroke-width="1.5"/>
    <line id="直线_138" data-name="直线 138" x2="20.355" y2="2.745" transform="translate(303.556 909.418)" fill="none" stroke="#6287de" stroke-linecap="round" stroke-linejoin="round" stroke-width="1.5"/>
    <path id="路径_36979" data-name="路径 36979" d="M168.375,949.375v21.369l23.311,2.872,4.983,5.912V953.345Z" transform="translate(3.817 114.38)" fill="none" stroke="#2d3436" stroke-linecap="round" stroke-linejoin="round" stroke-width="1.5"/>
    <line id="直线_139" data-name="直线 139" x2="13.767" y2="2.112" transform="translate(178.358 1071.364)" fill="none" stroke="#2d3436" stroke-linecap="round" stroke-linejoin="round" stroke-width="1.5"/>
    <line id="直线_140" data-name="直线 140" x2="13.767" y2="2.112" transform="translate(178.358 1077.38)" fill="none" stroke="#2d3436" stroke-linecap="round" stroke-linejoin="round" stroke-width="1.5"/>
    <path id="路径_36980" data-name="路径 36980" stroke="#6287de" d="M175.354,893.625V953.55l7.116,1.774" fill="none" transform="translate(10.985 57.175)" stroke-linecap="round" stroke-linejoin="round" stroke-width="1" stroke-dasharray="1 4"/>
    <path id="路径_36981" data-name="路径 36981" stroke="#6287de" d="M236.666,871.346l-26.479-3.6V894.7" fill="none" transform="translate(46.635 29.924)" stroke-linecap="round" stroke-linejoin="round" stroke-width="1" stroke-dasharray="1 4"/>
    <path id="路径_36982" data-name="路径 36982" stroke="#6287de" d="M214.143,912.4v7.953l61.268,7.443" fill="none" transform="translate(48.537 79.306)" stroke-linecap="round" stroke-linejoin="round" stroke-width="1" stroke-dasharray="1 4"/>
    <path id="路径_36983" data-name="路径 36983" stroke="#6287de" d="M267.53,887.565c.193.057,0-37.19,0-37.19l43.647,5.321" fill="none" transform="translate(105.359 12.824)" stroke-linecap="round" stroke-linejoin="round" stroke-width="2" stroke-dasharray="1 4"/>
    <path id="路径_36984" data-name="路径 36984" stroke="#6287de" d="M324,883l46.285,5.32v33.953" fill="none" transform="translate(163.191 46.281)" stroke-linecap="round" stroke-linejoin="round" stroke-width="1" stroke-dasharray="1 4"/>
    <path id="路径_36985" data-name="路径 36985" stroke="#6287de" d="M365.954,976.547v24.229l-55.829-7.348" fill="none" transform="translate(148.97 145.113)" stroke-linecap="round" stroke-linejoin="round" stroke-width="1" stroke-dasharray="1 4"/>
    <line id="直线_141" data-name="直线 141" y2="7.095" transform="translate(552.374 904.298)" fill="none" stroke="#6287de" stroke-linecap="round" stroke-linejoin="round" stroke-width="1"/>
    <line id="直线_142" data-name="直线 142" y2="6.419" transform="translate(547.731 907.844)" fill="none" stroke="#6287de" stroke-linecap="round" stroke-linejoin="round" stroke-width="1"/>
    <line id="直线_143" data-name="直线 143" y2="6.25" transform="translate(557.022 908.012)" fill="none" stroke="#6287de" stroke-linecap="round" stroke-linejoin="round" stroke-width="1"/>
    <path id="路径_36986" data-name="路径 36986" d="M341.833,910.977l4.9,6.461,15.71-13.695" transform="translate(181.404 67.569)" fill="none" stroke="#ef54a1" stroke-linecap="round" stroke-linejoin="round" stroke-width="1.5"/>
    <path id="路径_36987" data-name="路径 36987" d="M356.32,922.791c.186-.116,10.076.939,6.359,2.966s-5.187,2.619-2.761,4.139,8.759,1.1,8.42,2.281-3.547,3.377-5.321,3.462-3.632,7.095-5.489,7.348a4.634,4.634,0,0,0-3.886,2.619c-.592,1.435-1.942,1.182-2.449-2.7s-4.987-5.992-4.987-5.992" transform="translate(185.896 88.032)" fill="none" stroke="#2d3436" stroke-miterlimit="10" stroke-width="1"/>
    <path id="路径_36988" data-name="路径 36988" d="M358.316,922.783s-3.813.608-1.7,3.312,2.2,4.729,4.644,3.462,2.787-1.4,3.294-3.195-.253-4.068-2.534-3.14A3.48,3.48,0,0,1,358.316,922.783Z" transform="translate(195.931 88.038)" fill="none" stroke="#2d3436" stroke-miterlimit="10" stroke-width="1"/>
    <path id="路径_36989" data-name="路径 36989" d="M375.478,931.055s-2.161,1.549-4.863-1.407-7.012-3.464-7.18-1.52-1.689,3.819-1.774,5.625.845,3.243,3.8,2.9,4.814-.253,5.66,2.366,1.182,5.155-1.944,3.083-7.723-2.155-8.465.718-1.753,6.081.7,6.841,4.9-2.366,5.321,2.027.253,9.205,1.942,9.8,2.451.338,3.294-4.729,3.734-7.095,3.513-9.714,4.174-2.7,4.174-2.7" transform="translate(207.921 87.326)" fill="none" stroke="#2d3436" stroke-miterlimit="10" stroke-width="1"/>
    <path id="路径_36990" data-name="路径 36990" d="M355.413,935.634c.337.109.928-3.355,4.476.7s4.581,5.067,5.331,6.673.438,1.774-2.025,5.406-3.474,5.828-3.474,7.348-2.957,4.476-3.547,0,2.449-7.772-1.437-10.727-4.561-3.608-1.942-6.5Z" transform="translate(194.053 98.909)" fill="none" stroke="#2d3436" stroke-miterlimit="10" stroke-width="1"/>
    <path id="路径_36991" data-name="路径 36991" d="M309.564,972.354l3.083-2.617s3.041-1.437,3.251,1.561l-4.054,3.421a2.183,2.183,0,0,1-2.7.507C307.369,974.467,309.564,972.354,309.564,972.354Z" transform="translate(147.303 134.915)" fill="none" stroke="#2d3436" stroke-miterlimit="10" stroke-width="1"/>
    <path id="路径_36959" data-name="路径 36959" d="M330.25,960.167l21.537,24.494,21.538-18.554" transform="translate(169.508 125.439)" fill="none" stroke="#ef54a1" stroke-linecap="round" stroke-linejoin="round" stroke-width="1.5"/>
    <path id="路径_36952" data-name="路径 36952" d="M229.376,864.967v34.4l7.221-6.335,28.886,2.907V869.721Z" transform="translate(66.286 27.78)" fill="none" stroke="#6287de" stroke-linecap="round" stroke-linejoin="round" stroke-width="1.5"/>
  </g>
</svg>
