<svg xmlns="http://www.w3.org/2000/svg" xmlns:xlink="http://www.w3.org/1999/xlink" width="1920" height="600" viewBox="0 0 1920 600">
  <defs>
    <clipPath id="clip-path">
      <rect id="矩形_2352" data-name="矩形 2352" width="1920" height="600" transform="translate(584.655 1869) rotate(-90)" fill="#fff"/>
    </clipPath>
  </defs>
  <g id="首页01BG" transform="translate(1869 -584.655) rotate(90)">
    <g id="蒙版组_25" data-name="蒙版组 25" clip-path="url(#clip-path)">
      <g id="组_2049" data-name="组 2049" transform="translate(535 -1)" opacity="0.2">
        <g id="组_2039" data-name="组 2039" transform="translate(714.985)">
          <path id="路径_6878" data-name="路径 6878" d="M958.02,360.2V263.98H847V0" transform="translate(-847)" fill="none" stroke="rgba(0,0,0,0.3)" stroke-miterlimit="10" stroke-width="2"/>
          <path id="路径_6879" data-name="路径 6879" d="M913.406,159.2a13.121,13.121,0,1,1-13.122-13.12A13.119,13.119,0,0,1,913.406,159.2Z" transform="translate(-788.077 214.307)" fill="none" stroke="rgba(0,0,0,0.3)" stroke-miterlimit="10" stroke-width="1.5"/>
        </g>
        <path id="路径_6880" data-name="路径 6880" d="M849.406,175.2a13.121,13.121,0,1,1-13.123-13.12A13.119,13.119,0,0,1,849.406,175.2Z" transform="translate(-160.917 222.423)" fill="none" stroke="rgba(0,0,0,0.3)" stroke-miterlimit="10" stroke-width="1.5"/>
        <path id="路径_6881" data-name="路径 6881" d="M1157.729,405.456,821.767,96.217H597V0" transform="translate(-466.244)" fill="none" stroke="rgba(0,0,0,0.3)" stroke-miterlimit="10" stroke-width="2"/>
        <g id="组_2040" data-name="组 2040" transform="translate(2.467 317.976)">
          <path id="路径_6882" data-name="路径 6882" d="M816.406,243.2a13.121,13.121,0,1,1-13.122-13.12A13.119,13.119,0,0,1,816.406,243.2Z" transform="translate(-185.321 2.018)" fill="none" stroke="rgba(0,0,0,0.3)" stroke-miterlimit="10" stroke-width="1.5"/>
          <path id="路径_6883" data-name="路径 6883" d="M1153.343,373.3,917.694,136H545" transform="translate(-545 -136)" fill="none" stroke="rgba(0,0,0,0.3)" stroke-miterlimit="10" stroke-width="2"/>
        </g>
        <g id="组_2041" data-name="组 2041" transform="translate(321.016)">
          <path id="路径_6884" data-name="路径 6884" d="M820.406,367.2a13.121,13.121,0,1,1-13.123-13.123A13.12,13.12,0,0,1,820.406,367.2Z" transform="translate(-517.445 485.913)" fill="none" stroke="rgba(0,0,0,0.2)" stroke-miterlimit="10" stroke-width="1.5"/>
          <path id="路径_6885" data-name="路径 6885" d="M970.651,839.8V749.655H682v-351.1H945.98V0" transform="translate(-682)" fill="none" stroke="rgba(0,0,0,0.2)" stroke-miterlimit="10" stroke-width="2"/>
        </g>
        <g id="组_2042" data-name="组 2042" transform="translate(0 156.524)">
          <path id="路径_6886" data-name="路径 6886" d="M1205.183,452.868H1037.421V285.105H768.506V68H544" transform="translate(-544 -68)" fill="none" stroke="rgba(0,0,0,0.2)" stroke-miterlimit="10" stroke-width="2"/>
          <path id="路径_6887" data-name="路径 6887" d="M838.406,232.2a13.121,13.121,0,1,1-13.122-13.12A13.119,13.119,0,0,1,838.406,232.2Z" transform="translate(-150.577 153.643)" fill="none" stroke="rgba(0,0,0,0.2)" stroke-miterlimit="10" stroke-width="1.5"/>
        </g>
        <g id="组_2043" data-name="组 2043" transform="translate(0 226.546)">
          <path id="路径_6888" data-name="路径 6888" d="M1164.409,345.355,918.339,97H544" transform="translate(-544 -97)" fill="none" stroke="rgba(0,0,0,0.2)" stroke-miterlimit="10" stroke-width="2"/>
          <path id="路径_6889" data-name="路径 6889" d="M820.406,209.2a13.121,13.121,0,1,1-13.123-13.12A13.119,13.119,0,0,1,820.406,209.2Z" transform="translate(-176.985 48.353)" fill="none" stroke="rgba(0,0,0,0.2)" stroke-miterlimit="10" stroke-width="1.5"/>
        </g>
        <g id="组_2044" data-name="组 2044" transform="translate(430.553)">
          <path id="路径_6890" data-name="路径 6890" d="M942.638,261.513H728V0" transform="translate(-728)" fill="none" stroke="rgba(0,0,0,0.2)" stroke-miterlimit="10" stroke-width="2"/>
          <path id="路径_6891" data-name="路径 6891" d="M841.406,114.2a13.121,13.121,0,1,1-13.123-13.12A13.119,13.119,0,0,1,841.406,114.2Z" transform="translate(-600.123 148.287)" fill="none" stroke="rgba(0,0,0,0.2)" stroke-miterlimit="10" stroke-width="1.5"/>
        </g>
        <g id="组_2045" data-name="组 2045" transform="translate(256.081)">
          <path id="路径_6892" data-name="路径 6892" d="M935.25,342.927V167.763H654V0" transform="translate(-654)" fill="none" stroke="rgba(0,0,0,0.2)" stroke-miterlimit="10" stroke-width="2"/>
          <path id="路径_6893" data-name="路径 6893" d="M789.406,152.2a13.121,13.121,0,1,1-13.123-13.12A13.119,13.119,0,0,1,789.406,152.2Z" transform="translate(-493.847 204.037)" fill="none" stroke="rgba(0,0,0,0.2)" stroke-miterlimit="10" stroke-width="1.5"/>
        </g>
        <g id="组_2046" data-name="组 2046" transform="translate(0 258.747)">
          <path id="路径_6894" data-name="路径 6894" d="M544,402.184H706.829V116H874.592" transform="translate(-544 -103.85)" fill="none" stroke="rgba(0,0,0,0.2)" stroke-miterlimit="10" stroke-width="2"/>
          <path id="路径_6895" data-name="路径 6895" d="M704.406,124.2a13.121,13.121,0,1,1-13.122-13.12A13.119,13.119,0,0,1,704.406,124.2Z" transform="translate(-347.169 -111.075)" fill="none" stroke="rgba(0,0,0,0.2)" stroke-miterlimit="10" stroke-width="1.5"/>
        </g>
        <g id="组_2047" data-name="组 2047" transform="translate(0 379.753)">
          <line id="直线_52" data-name="直线 52" x2="106" transform="translate(0 14.079)" fill="none" stroke="rgba(0,0,0,0.2)" stroke-miterlimit="10" stroke-width="2"/>
          <path id="路径_6896" data-name="路径 6896" d="M613.406,173.2a13.121,13.121,0,1,1-13.123-13.12A13.119,13.119,0,0,1,613.406,173.2Z" transform="translate(-480.676 -160.075)" fill="none" stroke="rgba(0,0,0,0.2)" stroke-miterlimit="10" stroke-width="1.5"/>
        </g>
        <g id="组_2048" data-name="组 2048" transform="translate(0.983 460.892)">
          <path id="路径_6897" data-name="路径 6897" d="M544.4,239.577,639.794,195H911.175l78.639,78.329" transform="translate(-544.398 -195)" fill="none" stroke="rgba(0,0,0,0.2)" stroke-miterlimit="10" stroke-width="2"/>
          <path id="路径_6898" data-name="路径 6898" d="M749.406,238.2a13.121,13.121,0,1,1-13.122-13.12A13.119,13.119,0,0,1,749.406,238.2Z" transform="translate(-282.132 -150.877)" fill="none" stroke="rgba(0,0,0,0.2)" stroke-miterlimit="10" stroke-width="1.5"/>
        </g>
      </g>
      <g id="组_2060" data-name="组 2060" transform="translate(535 318.332)" opacity="0.2">
        <g id="组_2050" data-name="组 2050" transform="translate(1307.45 1119.343)">
          <path id="路径_6899" data-name="路径 6899" d="M958.02,355v98.684H847V712.73" transform="translate(-847 -331.405)" fill="none" stroke="rgba(0,0,0,0.4)" stroke-miterlimit="10" stroke-width="2"/>
          <path id="路径_6900" data-name="路径 6900" d="M913.406,358.556a13.121,13.121,0,1,0-13.122,13.12A13.121,13.121,0,0,0,913.406,358.556Z" transform="translate(-788.077 -345.436)" fill="none" stroke="rgba(0,0,0,0.4)" stroke-miterlimit="10" stroke-width="1.5"/>
        </g>
        <path id="路径_6901" data-name="路径 6901" d="M849.406,342.556a13.121,13.121,0,1,0-13.123,13.12A13.121,13.121,0,0,0,849.406,342.556Z" transform="translate(321.054 489.855)" fill="none" stroke="rgba(0,0,0,0.4)" stroke-miterlimit="10" stroke-width="1.5"/>
        <path id="路径_6902" data-name="路径 6902" d="M1157.729,337.155,821.767,647.627H597V738.91" transform="translate(-189.907 761.758)" fill="none" stroke="rgba(0,0,0,0.4)" stroke-miterlimit="10" stroke-width="2"/>
        <g id="组_2051" data-name="组 2051" transform="translate(2.467 616.677)">
          <path id="路径_6903" data-name="路径 6903" d="M816.406,274.556a13.121,13.121,0,1,0-13.122,13.12A13.121,13.121,0,0,0,816.406,274.556Z" transform="translate(-185.321 -261.436)" fill="none" stroke="rgba(0,0,0,0.4)" stroke-miterlimit="10" stroke-width="1.5"/>
          <path id="路径_6904" data-name="路径 6904" d="M1153.343,269.815l-235.649,237.3H545" transform="translate(-545 -249.143)" fill="none" stroke="rgba(0,0,0,0.4)" stroke-miterlimit="10" stroke-width="2"/>
        </g>
        <g id="组_2052" data-name="组 2052" transform="translate(674.957)">
          <path id="路径_6905" data-name="路径 6905" d="M820.406,142.556a13.121,13.121,0,1,0-13.123,13.12A13.121,13.121,0,0,0,820.406,142.556Z" transform="translate(-517.445 -129.436)" fill="none" stroke="rgba(0,0,0,0.2)" stroke-miterlimit="10" stroke-width="1.5"/>
          <path id="路径_6906" data-name="路径 6906" d="M970.651,139V298.573H682V900.04H945.98v716.032" transform="translate(-682 -115.405)" fill="none" stroke="rgba(0,0,0,0.2)" stroke-miterlimit="10" stroke-width="2"/>
        </g>
        <g id="组_2053" data-name="组 2053" transform="translate(0 754.05)">
          <path id="路径_6907" data-name="路径 6907" d="M1205.183,278H1037.421V445.763H768.506V662.868H544" transform="translate(-544 -264.273)" fill="none" stroke="rgba(0,0,0,0.2)" stroke-miterlimit="10" stroke-width="2"/>
          <path id="路径_6908" data-name="路径 6908" d="M838.406,285.556a13.121,13.121,0,1,0-13.122,13.12A13.121,13.121,0,0,0,838.406,285.556Z" transform="translate(-150.577 -272.436)" fill="none" stroke="rgba(0,0,0,0.2)" stroke-miterlimit="10" stroke-width="1.5"/>
        </g>
        <g id="组_2054" data-name="组 2054" transform="translate(0 782.529)">
          <path id="路径_6909" data-name="路径 6909" d="M1164.409,304.333,918.339,552.689H544" transform="translate(-544 -282.383)" fill="none" stroke="rgba(0,0,0,0.2)" stroke-miterlimit="10" stroke-width="2"/>
          <path id="路径_6910" data-name="路径 6910" d="M820.406,308.556a13.121,13.121,0,1,0-13.123,13.12A13.121,13.121,0,0,0,820.406,308.556Z" transform="translate(-176.985 -295.436)" fill="none" stroke="rgba(0,0,0,0.2)" stroke-miterlimit="10" stroke-width="1.5"/>
        </g>
        <g id="组_2055" data-name="组 2055" transform="translate(856.388 1230.362)">
          <path id="路径_6911" data-name="路径 6911" d="M942.638,396H728V652.579" transform="translate(-728 -382.273)" fill="none" stroke="rgba(0,0,0,0.2)" stroke-miterlimit="10" stroke-width="2"/>
          <path id="路径_6912" data-name="路径 6912" d="M841.406,403.556a13.121,13.121,0,1,0-13.123,13.12A13.121,13.121,0,0,0,841.406,403.556Z" transform="translate(-600.123 -390.436)" fill="none" stroke="rgba(0,0,0,0.2)" stroke-miterlimit="10" stroke-width="1.5"/>
        </g>
        <g id="组_2056" data-name="组 2056" transform="translate(534.591 1136.613)">
          <path id="路径_6913" data-name="路径 6913" d="M935.25,362V539.631H654V702.46" transform="translate(-654 -338.405)" fill="none" stroke="rgba(0,0,0,0.2)" stroke-miterlimit="10" stroke-width="2"/>
          <path id="路径_6914" data-name="路径 6914" d="M789.406,365.556a13.121,13.121,0,1,0-13.123,13.12A13.121,13.121,0,0,0,789.406,365.556Z" transform="translate(-493.847 -352.436)" fill="none" stroke="rgba(0,0,0,0.2)" stroke-miterlimit="10" stroke-width="1.5"/>
        </g>
        <g id="组_2057" data-name="组 2057" transform="translate(0 677.192)">
          <path id="路径_6915" data-name="路径 6915" d="M544,270H706.829V556.184H874.592" transform="translate(-544 -270)" fill="none" stroke="rgba(0,0,0,0.2)" stroke-miterlimit="10" stroke-width="2"/>
          <path id="路径_6916" data-name="路径 6916" d="M704.406,393.556a13.121,13.121,0,1,0-13.122,13.12A13.121,13.121,0,0,0,704.406,393.556Z" transform="translate(-347.169 -107.979)" fill="none" stroke="rgba(0,0,0,0.2)" stroke-miterlimit="10" stroke-width="1.5"/>
        </g>
        <g id="组_2058" data-name="组 2058" transform="translate(0 827.483)">
          <line id="直线_53" data-name="直线 53" x2="106" transform="translate(0 10.313)" fill="none" stroke="rgba(0,0,0,0.2)" stroke-miterlimit="10" stroke-width="2"/>
          <path id="路径_6917" data-name="路径 6917" d="M613.406,344.556a13.121,13.121,0,1,0-13.123,13.12A13.121,13.121,0,0,0,613.406,344.556Z" transform="translate(-480.676 -331.436)" fill="none" stroke="rgba(0,0,0,0.2)" stroke-miterlimit="10" stroke-width="1.5"/>
        </g>
        <g id="组_2059" data-name="组 2059" transform="translate(0.983 581.458)">
          <path id="路径_6918" data-name="路径 6918" d="M544.4,309.133l95.4,44.393H911.175l78.639-78.239" transform="translate(-544.398 -253.451)" fill="none" stroke="rgba(0,0,0,0.2)" stroke-miterlimit="10" stroke-width="2"/>
          <path id="路径_6919" data-name="路径 6919" d="M749.406,279.556a13.121,13.121,0,1,0-13.122,13.12A13.121,13.121,0,0,0,749.406,279.556Z" transform="translate(-282.132 -266.436)" fill="none" stroke="rgba(0,0,0,0.2)" stroke-miterlimit="10" stroke-width="1.5"/>
        </g>
      </g>
    </g>
  </g>
</svg>
