<svg xmlns="http://www.w3.org/2000/svg" width="670" height="540" viewBox="0 0 670 540">
  <g id="首页-03秘密网络" transform="translate(-793.377 -1110.028)">
    <g id="首页-03" transform="translate(793.377 1110.028)" fill="#fff">
      <path d="M 502.2217407226563 539.5 L 167.7782440185547 539.5 L 0.5884360074996948 270 L 167.7783355712891 0.5 L 502.2217407226563 0.5 L 669.4115600585938 270 L 502.2217407226563 539.5 Z" stroke="none"/>
      <path d="M 168.0564880371094 1 L 1.17681884765625 270 L 168.0564270019531 539 L 501.943603515625 539 L 668.8231811523438 270 L 501.943603515625 1 L 168.0564880371094 1 M 167.5000915527344 0 L 502.5 0 L 670 270 L 502.5 540 L 167.5 540 L 0 270 L 167.5000915527344 0 Z" stroke="none" fill="#ddd"/>
    </g>
    <path id="路径_39967" data-name="路径 39967" d="M3547.772,1142.424l-221.41,124.842,221.41,129.505,218.59-124.242Z" transform="translate(-2417.581 138.262)" fill="none" stroke="#707070" stroke-width="1" stroke-dasharray="4 4"/>
    <path id="路径_39968" data-name="路径 39968" d="M3547.772,1142.424,3326.362,1267.5l221.41,129.743,218.59-124.47Z" transform="translate(-2417.581 123.709)" fill="none" stroke="#707070" stroke-width="1" stroke-dasharray="4 4"/>
    <path id="路径_39969" data-name="路径 39969" d="M0-22.761,100.972-64.515,207.752-22.761V78.2H0Z" transform="translate(1025.818 1319.528)" fill="#fff"/>
    <g id="组_21995" data-name="组 21995" transform="translate(1016.842 1225.033)">
      <path id="路径_39958" data-name="路径 39958" d="M684.934,181.6,684,291.761l97.052,55.448" transform="translate(-675.912 -112.085)" fill="none" stroke="#000" stroke-linecap="round" stroke-miterlimit="10" stroke-width="1" stroke-dasharray="4"/>
      <path id="路径_39959" data-name="路径 39959" d="M860.759,192.771l.382,109.035-96.9,55.578" transform="translate(-644.707 -122.131)" fill="none" stroke="#000" stroke-linecap="round" stroke-miterlimit="10" stroke-width="1" stroke-dasharray="4"/>
      <path id="路径_39960" data-name="路径 39960" d="M688.75,189.139,785.664,134.5l96.2,56.711" transform="translate(-673.403 -134.5)" fill="none" stroke="#000" stroke-linecap="round" stroke-miterlimit="10" stroke-width="1" stroke-dasharray="4"/>
      <path id="路径_39961" data-name="路径 39961" d="M690.75,177.25,786.4,233.2l96.859-54.639" transform="translate(-674.198 -112.977)" fill="none" stroke="#000" stroke-linecap="round" stroke-miterlimit="10" stroke-width="1" stroke-dasharray="4 0"/>
      <line id="直线_692" data-name="直线 692" y1="113.48" transform="translate(112.206 119.377)" fill="none" stroke="#000" stroke-miterlimit="10" stroke-width="1"/>
      <line id="直线_693" data-name="直线 693" y2="42.03" transform="translate(19.55 75.502)" fill="none" stroke="#0080f4" stroke-miterlimit="10" stroke-width="1" stroke-dasharray="1 0"/>
      <path id="路径_39962" data-name="路径 39962" d="M691.5,225.043v46.233l40.624,23.689,39.232-24.071V225.043L732.124,202.5Z" transform="translate(-671.95 -98.847)" fill="none" stroke="#0080f4" stroke-miterlimit="10" stroke-width="1"/>
      <path id="路径_39963" data-name="路径 39963" d="M760.116,225.043v46.233l40.624,23.689,39.232-24.071V225.043L800.74,202.5Z" transform="translate(-635.697 -98.847)" fill="none" stroke="#0080f4" stroke-miterlimit="10" stroke-width="1"/>
      <path id="路径_39964" data-name="路径 39964" d="M726,167.043v46.233l40.624,23.689,39.232-24.072v-45.85L766.624,144.5Z" transform="translate(-653.722 -129.217)" fill="none" stroke="#0080f4" stroke-miterlimit="10" stroke-width="1"/>
      <line id="直线_694" data-name="直线 694" x1="34.388" y2="21.779" transform="translate(29.102 41.953)" fill="none" stroke="#0080f4" stroke-miterlimit="10" stroke-width="1"/>
      <line id="直线_695" data-name="直线 695" x2="34.77" y2="19.486" transform="translate(159.776 41.954)" fill="none" stroke="#0080f4" stroke-miterlimit="10" stroke-width="1"/>
      <line id="直线_696" data-name="直线 696" y2="39.737" transform="translate(204.276 77.792)" fill="none" stroke="#0080f4" stroke-miterlimit="10" stroke-width="1"/>
      <line id="直线_697" data-name="直线 697" x1="34.006" y2="19.869" transform="translate(121.185 200.181)" fill="none" stroke="#0080f4" stroke-miterlimit="10" stroke-width="1"/>
      <line id="直线_698" data-name="直线 698" x1="36.298" y1="19.869" transform="translate(68.075 200.181)" fill="none" stroke="#0080f4" stroke-miterlimit="10" stroke-width="1"/>
      <circle id="椭圆_2032" data-name="椭圆 2032" cx="8.756" cy="8.756" r="8.756" transform="translate(0 51.68)" fill="none" stroke="#000" stroke-miterlimit="10" stroke-width="1"/>
      <circle id="椭圆_2033" data-name="椭圆 2033" cx="8.756" cy="8.756" r="8.756" transform="translate(103.505 231.595)" fill="none" stroke="#000" stroke-miterlimit="10" stroke-width="1"/>
      <circle id="椭圆_2034" data-name="椭圆 2034" cx="8.756" cy="8.756" r="8.756" transform="translate(207.678 51.68)" fill="none" stroke="#000" stroke-miterlimit="10" stroke-width="1"/>
    </g>
    <g id="组_21990" data-name="组 21990" transform="translate(1116.055 1270.546)">
      <path id="路径_39941-2" data-name="路径 39941-2" d="M4127.915,240.948l9.167-5.713-.006-2.868-11.534,7.329v13.837l11.534-6.792v-2.8l-9.167,5.328V246.5l9.167-5.538v-2.606l-9.16,5.345Z" transform="translate(-4110.082 -223.534)" fill="#ef54a1"/>
      <path id="路径_39942-2" data-name="路径 39942-2" d="M4108.832,221.484l2.4-1.665,12.406,6.811,2.567-1.668-14.852-8.164L4104,221.758l12.193,6.7-2.4,1.614-12.192-6.7-2.393,1.513,14.686,8.07,7.248-4.71Z" transform="translate(-4099.21 -216.797)" fill="#ef54a1"/>
      <path id="路径_39943-2" data-name="路径 39943-2" d="M4118.433,256.254l2.14,1.166V243.593l-2.14-1.151Z" transform="translate(-4106.958 -227.424)" fill="#ef54a1"/>
      <path id="路径_39944-2" data-name="路径 39944-2" d="M4099.208,246.12l2.373,1.285V233.643l-2.373-1.271Z" transform="translate(-4099.208 -223.253)" fill="#ef54a1"/>
      <path id="路径_39945-2" data-name="路径 39945-2" d="M4108.822,239.852l2.425,1.383v-2.418l-2.425-1.3Z" transform="translate(-4103.086 -225.14)" fill="#ef54a1"/>
      <path id="路径_39946" data-name="路径 39946" d="M4108.822,253.892l2.425,1.314V245.63l-2.425-1.4Z" transform="translate(-4103.086 -228.113)" fill="#ef54a1"/>
    </g>
    <g id="关于我们_3" transform="translate(1161.706 1354.008)">
      <rect id="矩形_2187" data-name="矩形 2187" width="40" height="40" fill="#fff" opacity="0"/>
      <rect id="矩形_2191" data-name="矩形 2191" width="1.085" height="1.099" transform="translate(36.307 10.704)" fill="#ef54a1"/>
      <rect id="矩形_2192" data-name="矩形 2192" width="1.085" height="1.099" transform="translate(36.307 8.358)" fill="#ef54a1"/>
      <rect id="矩形_2193" data-name="矩形 2193" width="1.085" height="1.099" transform="translate(19.659 4.919)" fill="#ef54a1"/>
      <rect id="矩形_2194" data-name="矩形 2194" width="1.085" height="1.099" transform="translate(2.787 3.736)" fill="#ef54a1"/>
      <rect id="矩形_2195" data-name="矩形 2195" width="1.085" height="1.099" transform="translate(2.787 6.101)" fill="#ef54a1"/>
      <rect id="矩形_2196" data-name="矩形 2196" width="1.085" height="1.099" transform="translate(2.787 8.115)" fill="#ef54a1"/>
      <rect id="矩形_2197" data-name="矩形 2197" width="1.085" height="1.099" transform="translate(16.776 8.352)" fill="#ef54a1"/>
      <rect id="矩形_2198" data-name="矩形 2198" width="1.085" height="1.099" transform="translate(16.776 10.584)" fill="#ef54a1"/>
      <path id="路径_36929" data-name="路径 36929" d="M1850.66,767.964a5.055,5.055,0,0,1,3.467-.229c1.884.572,2.562,1.984,2.751,3.891s-.867,3.586-3.109,4.5h-23.008a6.015,6.015,0,0,1-3.109-2.8,3.988,3.988,0,0,1,3.862-5.493,3.944,3.944,0,0,1,.358-2.213,4.161,4.161,0,0,1,5.164-2.327,5.542,5.542,0,0,1,3.109-2.155,7.625,7.625,0,0,1,7.518,1.984s2.186-.191,3.222.591,2.3,2,2,3.853" transform="translate(-1822.194 -737.685)" fill="rgba(0,0,0,0)" stroke="#000" stroke-linecap="round" stroke-miterlimit="10" stroke-width="1.2"/>
      <path id="路径_36930" data-name="路径 36930" d="M1839.764,772.2s-1.9.811-1.865,3.9a3.577,3.577,0,0,0,3.53,3.653,5.96,5.96,0,0,0,4.65-1.147c1.715-1.2,1.747-3.84,1.747-3.84" transform="translate(-1825.638 -741.382)" fill="rgba(0,0,0,0)" stroke="#000" stroke-linecap="round" stroke-miterlimit="10" stroke-width="1.2"/>
      <path id="路径_36931" data-name="路径 36931" d="M1858.5,773.522a2.444,2.444,0,0,1-2.469,2.67" transform="translate(-1831.561 -741.812)" fill="rgba(0,0,0,0)" stroke="#000" stroke-linecap="round" stroke-miterlimit="10" stroke-width="1.2"/>
      <path id="路径_36932" data-name="路径 36932" d="M1865.825,777.657a3.555,3.555,0,0,0-3.58,3.739" transform="translate(-1833.59 -743.163)" fill="rgba(0,0,0,0)" stroke="#000" stroke-linecap="round" stroke-miterlimit="10" stroke-width="1.2"/>
      <path id="路径_36933" data-name="路径 36933" d="M1833.45,776.553a2.905,2.905,0,0,0,3,1.716" transform="translate(-1824.185 -742.802)" fill="rgba(0,0,0,0)" stroke="#000" stroke-linecap="round" stroke-miterlimit="10" stroke-width="1.2"/>
      <path id="路径_36934" data-name="路径 36934" d="M1844.727,772.169a3.092,3.092,0,0,1,3.844,2.852" transform="translate(-1827.868 -741.347)" fill="rgba(0,0,0,0)" stroke="#000" stroke-linecap="round" stroke-miterlimit="10" stroke-width="1.2"/>
      <path id="路径_36935" data-name="路径 36935" d="M1857.842,773.442a5.1,5.1,0,0,0-1.469-4.845,4.606,4.606,0,0,0-5.521-.725,5.359,5.359,0,0,0-2.547,3.081" transform="translate(-1829.037 -739.768)" fill="rgba(0,0,0,0)" stroke="#000" stroke-linecap="round" stroke-miterlimit="10" stroke-width="1.2"/>
      <path id="路径_36936" data-name="路径 36936" d="M1844.027,766.324s3.222-1.793,4.315,1.6" transform="translate(-1827.639 -739.307)" fill="rgba(0,0,0,0)" stroke="#000" stroke-linecap="round" stroke-miterlimit="10" stroke-width="1.2"/>
      <path id="路径_36937" data-name="路径 36937" d="M1839.082,766.5a2.3,2.3,0,0,0-.678,3.013" transform="translate(-1825.709 -739.518)" fill="rgba(0,0,0,0)" stroke="#000" stroke-linecap="round" stroke-miterlimit="10" stroke-width="1.2"/>
      <path id="路径_36938" data-name="路径 36938" d="M1824.635,750.926v5.409l8.036,3.753" transform="translate(-1821.305 -734.105)" fill="rgba(0,0,0,0)" stroke="#000" stroke-linecap="round" stroke-miterlimit="10" stroke-width="1.2"/>
      <path id="路径_36939" data-name="路径 36939" d="M1836.052,734.063v12.475l7.3,5.763" transform="translate(-1825.035 -728.924)" fill="none" stroke="#000" stroke-linecap="round" stroke-miterlimit="10" stroke-width="1.2"/>
      <path id="路径_36940" data-name="路径 36940" d="M1861.409,738.482V748.1l-7.607,5.974" transform="translate(-1830.832 -730.367)" fill="rgba(0,0,0,0)" stroke="#000" stroke-linecap="round" stroke-miterlimit="10" stroke-width="1.2"/>
      <path id="路径_36941" data-name="路径 36941" d="M1870.747,753.418V757.3l-7.971,3.895" transform="translate(-1833.764 -734.919)" fill="rgba(0,0,0,0)" stroke="#000" stroke-linecap="round" stroke-miterlimit="10" stroke-width="1.2"/>
      <ellipse id="椭圆_1625" data-name="椭圆 1625" cx="2.072" cy="2.097" rx="2.072" ry="2.097" transform="translate(1.347 11.903)" fill="rgba(0,0,0,0)" stroke="#000" stroke-linecap="round" stroke-miterlimit="10" stroke-width="1.2"/>
      <ellipse id="椭圆_1626" data-name="椭圆 1626" cx="2.072" cy="2.097" rx="2.072" ry="2.097" transform="translate(8.945 0.944)" fill="rgba(0,0,0,0)" stroke="#000" stroke-linecap="round" stroke-miterlimit="10" stroke-width="1.2"/>
      <ellipse id="椭圆_1627" data-name="椭圆 1627" cx="2.072" cy="2.097" rx="2.072" ry="2.097" transform="translate(28.505 3.92)" fill="rgba(0,0,0,0)" stroke="#000" stroke-linecap="round" stroke-miterlimit="10" stroke-width="1.2"/>
      <ellipse id="椭圆_1628" data-name="椭圆 1628" cx="2.072" cy="2.097" rx="2.072" ry="2.097" transform="translate(34.911 13.536)" fill="rgba(0,0,0,0)" stroke="#000" stroke-linecap="round" stroke-miterlimit="10" stroke-width="1.2"/>
      <line id="直线_114" data-name="直线 114" y2="5.608" transform="translate(17.317 12.998)" fill="none" stroke="#ef54a1" stroke-linecap="round" stroke-miterlimit="10" stroke-width="1.2"/>
      <line id="直线_115" data-name="直线 115" y2="3.089" transform="translate(23.115 11.682)" fill="none" stroke="#ef54a1" stroke-linecap="round" stroke-miterlimit="10" stroke-width="1.2"/>
      <line id="直线_116" data-name="直线 116" y2="4.807" transform="translate(20.201 7.352)" fill="none" stroke="#ef54a1" stroke-linecap="round" stroke-miterlimit="10" stroke-width="1.2"/>
    </g>
    <g id="组_21996" data-name="组 21996" transform="translate(397.432 -105.809)">
      <path id="路径_39871" data-name="路径 39871" d="M684.367,1476.589c-.077-.355-.131-.879-.626-.809a6.58,6.58,0,0,1-1.25,2.1,6.3,6.3,0,0,1-1.674,1.015c-.285,1.339,1.554,2.158,2.507,1.35A3.723,3.723,0,0,0,684.367,1476.589Zm-1.435,3.034a1.293,1.293,0,0,1-1.415-.008c-.025-.082-.08-.245-.105-.326a3.449,3.449,0,0,0,2.384-2.259A2.53,2.53,0,0,1,682.933,1479.624Z" transform="translate(-4.584 -4.32)" fill="#ef54a1" stroke="#ef54a1" stroke-miterlimit="10" stroke-width="0.3" fill-rule="evenodd"/>
      <path id="路径_39872" data-name="路径 39872" d="M671.6,1478.129c-1.057-.488-1.482-1.643-2.011-2.594-.483-.132-.539.463-.619.79a3.64,3.64,0,0,0,1.163,3.7,1.8,1.8,0,0,0,2.11-.222,1.237,1.237,0,0,0,.274-.925C672.5,1478.4,671.91,1478.351,671.6,1478.129Zm.245,1.229c-.429.122-.908.351-1.324.061a2.648,2.648,0,0,1-.988-2.695,3.5,3.5,0,0,0,2.361,2.259C671.876,1479.077,671.853,1479.263,671.84,1479.358Z" transform="translate(-1.454 -4.252)" fill="#ef54a1" stroke="#ef54a1" stroke-miterlimit="10" stroke-width="0.3" fill-rule="evenodd"/>
      <path id="路径_39873" data-name="路径 39873" d="M696.233,1494.53a9.559,9.559,0,0,0-3.354-4.287,7.234,7.234,0,0,0-2.949-1.1,4.743,4.743,0,0,0-1.954.2l-.283.243c.024-.632.522-1.093.737-1.659a8.728,8.728,0,0,0,3.1-2.22,6.816,6.816,0,0,0,.49-5.007,12.265,12.265,0,0,1-.548-1.644,29.865,29.865,0,0,0,.708-4.018c.048-1.274.152-2.546.139-3.822a14.319,14.319,0,0,0-1.2-4.613,7.675,7.675,0,0,0,.764-2.988c.116-2.217-.268-2.017-1.252-.713a5.591,5.591,0,0,1-1.137,1.119,14.01,14.01,0,0,0-4.883-3.535c-1.088-.393-2.212-.667-3.327-.961a21.176,21.176,0,0,0-3.691-.152,14.792,14.792,0,0,0-5.29,1.652,12.029,12.029,0,0,0-3.948,3.181,2.325,2.325,0,0,1-1.347-1.536c-.373-.966-.55-1-.784.107a6.731,6.731,0,0,0,.3,4.4,8.1,8.1,0,0,1-.446,1.57,32.837,32.837,0,0,0-.9,6.479c.043.79.114,1.578.083,2.37a24.73,24.73,0,0,0-1.316,2.706,9.478,9.478,0,0,0,.41,7.58c.232.477.274,1.023.511,1.5a2.491,2.491,0,0,0,3.183,1.367c.282-.061.56-.346.85-.234a24.907,24.907,0,0,0,2.809,4.641,10.954,10.954,0,0,0,4.034,3.655,11.307,11.307,0,0,0,5.7.279,18.782,18.782,0,0,0,4.644-2.144c1.664-.993,3.271-2.466,5.33-2.406,1.406.008,2.581,1.221,3.915,1.376C696.639,1496.073,696.636,1495.489,696.233,1494.53Zm-4.984-31.307c-.173,1.35-.285,2.879-1.339,3.866a1.609,1.609,0,0,1-1.392-1.648A5.772,5.772,0,0,0,691.249,1463.223Zm-24.606.59a15.962,15.962,0,0,0,1.181,1.086c-.319.486-.611.989-.936,1.469A7.239,7.239,0,0,1,666.643,1463.813Zm1.181,26.27a2.1,2.1,0,0,1-2.447-2.376,4.55,4.55,0,0,1-1.052-2.335,11.184,11.184,0,0,1,1.131-5.757c.251,1.378.5,2.759.879,4.107a15.526,15.526,0,0,0,.553,2.432C669,1485.862,669.591,1489.242,667.824,1490.082Zm23.978,3.579a6.436,6.436,0,0,0-4,1.01c-2.142,1.233-4.157,2.774-6.572,3.449a8.677,8.677,0,0,1-4.5-.017c-2.4-1.035-4-3.222-5.436-5.309-.606-1.04-1.134-2.126-1.717-3.178a3.3,3.3,0,0,0-.2-3.355,2.824,2.824,0,0,0-1.5-.994,40.766,40.766,0,0,1-1.667-8.338,23.662,23.662,0,0,1,1.844-10.656,13.111,13.111,0,0,1,11.3-5.922,11.483,11.483,0,0,1,9.277,4.305c-1.538.78-.247,3.488,1.369,3.046a2.935,2.935,0,0,1,.574-.217c.624,1.157.549,2.508.778,3.767a17.649,17.649,0,0,1-.612,6.367c-.262.744-.636,1.646-.112,2.366a5.255,5.255,0,0,1-.218,5.692,6.77,6.77,0,0,1-3.068,1.791,14.446,14.446,0,0,1-4.052.735,2.74,2.74,0,0,0-.22-2.22,6.788,6.788,0,0,0,3.73-2.671c.268-.234-.159-.859-.365-.422a6.276,6.276,0,0,1-4.339,2.234c-.769-.19-1.671-.55-2.385-.013-1.621.877-1.663,3.708.1,4.458a2.518,2.518,0,0,0,3.125-.75,15.181,15.181,0,0,0,3.984-.393,2.785,2.785,0,0,0-.492,2.151c1.12-.059,2.158-.695,3.3-.471,2.685.259,4.686,2.5,5.608,4.893C694.067,1494.783,693.142,1493.645,691.8,1493.662Zm-9.04-6.163c-.013.983-1.065,1.481-1.91,1.57a2.556,2.556,0,0,1-1.346-.626,2.177,2.177,0,0,1,.532-2.589A1.875,1.875,0,0,1,682.763,1487.5Z" transform="translate(0 0)" fill="#0c111a" stroke="#0c111a" stroke-miterlimit="10" stroke-width="0.3" fill-rule="evenodd"/>
    </g>
  </g>
</svg>
