<svg xmlns="http://www.w3.org/2000/svg" xmlns:xlink="http://www.w3.org/1999/xlink" width="1920" height="880" viewBox="0 0 1920 880">
  <defs>
    <clipPath id="clip-path">
      <rect id="矩形_2253" data-name="矩形 2253" width="1920" height="880" fill="#fff"/>
    </clipPath>
  </defs>
  <g id="NAV_bg" opacity="0.68" clip-path="url(#clip-path)">
    <g id="组_21480" data-name="组 21480" transform="translate(-52.747 27)" opacity="0.05">
      <g id="组_21478" data-name="组 21478" transform="translate(0 7.733)">
        <g id="组_21420" data-name="组 21420" transform="translate(523.259 224.523)">
          <g id="组_21418" data-name="组 21418" transform="translate(0 0)">
            <path id="路径_39883" data-name="路径 39883" d="M0,0,497.292,4.579l.018,1.895L.018,1.895Z" transform="translate(0 84.71) rotate(-10.335)"/>
          </g>
          <g id="组_21419" data-name="组 21419" transform="translate(0 0)">
            <path id="路径_39884" data-name="路径 39884" d="M0,0,497.292,4.579l.018,1.895L.018,1.895Z" transform="translate(0 84.71) rotate(-10.335)"/>
          </g>
        </g>
        <g id="组_21424" data-name="组 21424" transform="translate(523.399 32.308)">
          <g id="组_21421" data-name="组 21421" transform="translate(489.598 0.366)">
            <path id="路径_39885" data-name="路径 39885" d="M0,0,192.949.662l0,1.33L0,1.33Z" transform="matrix(0.063, -0.998, 0.998, 0.063, 0, 192.522)"/>
          </g>
          <g id="组_21422" data-name="组 21422" transform="translate(0)">
            <path id="路径_37381" data-name="路径 37381" d="M63.265,337.945l-.665-1.261L564.718,59.3l1.33,1.261Z" transform="translate(-62.6 -59.3)"/>
          </g>
          <g id="组_21423" data-name="组 21423" transform="translate(0)">
            <path id="路径_37382" data-name="路径 37382" d="M63.265,337.945l-.665-1.261L564.718,59.3l1.33,1.261Z" transform="translate(-62.6 -59.3)"/>
          </g>
        </g>
        <g id="组_21429" data-name="组 21429" transform="translate(523.081 32.165)">
          <g id="组_21425" data-name="组 21425" transform="translate(344.719 0)">
            <path id="路径_39886" data-name="路径 39886" d="M0,0,188.938,4.692l.032,1.283L.032,1.283Z" transform="translate(0 104.013) rotate(-34.814)"/>
          </g>
          <g id="组_21426" data-name="组 21426" transform="translate(345.147 104.435)">
            <path id="路径_39887" data-name="路径 39887" d="M0,0,1.281.031,5.36,169.662l-1.281-.031Z" transform="matrix(0.54, -0.841, 0.841, 0.54, 0, 1.061)"/>
          </g>
          <g id="组_21427" data-name="组 21427" transform="translate(0 103.907)">
            <path id="路径_39888" data-name="路径 39888" d="M0,0,385.916,8.422l.029,1.276L.029,1.276Z" transform="translate(0 173.556) rotate(-27.969)"/>
          </g>
          <g id="组_21428" data-name="组 21428" transform="translate(0 103.907)">
            <path id="路径_39889" data-name="路径 39889" d="M0,0,385.916,8.422l.029,1.276L.029,1.276Z" transform="translate(0 173.556) rotate(-27.969)"/>
          </g>
        </g>
        <g id="组_21432" data-name="组 21432" transform="translate(0 309.692)">
          <g id="组_21430" data-name="组 21430">
            <path id="路径_37383" data-name="路径 37383" d="M-16.1,576.113,507.964,104.561,507.3,103.3-16.1,574.222Z" transform="translate(16.1 -103.3)"/>
          </g>
          <g id="组_21431" data-name="组 21431">
            <path id="路径_37384" data-name="路径 37384" d="M-16.1,576.113,507.964,104.561,507.3,103.3-16.1,574.222Z" transform="translate(16.1 -103.3)"/>
          </g>
        </g>
        <g id="组_21439" data-name="组 21439" transform="translate(0 136.327)">
          <g id="组_21433" data-name="组 21433" transform="translate(0 127.344)">
            <path id="路径_37385" data-name="路径 37385" d="M-16.1,493.163,59.716,96h-2L-16.1,484.337Z" transform="translate(16.1 -96)"/>
          </g>
          <g id="组_21434" data-name="组 21434" transform="translate(0 115.366)">
            <path id="路径_37386" data-name="路径 37386" d="M-16.1,94.1v1.261l74.486,11.347.665-1.261Z" transform="translate(16.1 -94.1)"/>
          </g>
          <g id="组_21435" data-name="组 21435" transform="translate(74.486)">
            <path id="路径_37387" data-name="路径 37387" d="M-4.235,203.775l-.665-1.261L789.177,75.8v1.261Z" transform="translate(4.9 -75.8)"/>
          </g>
          <g id="组_21436" data-name="组 21436" transform="translate(0 126.714)">
            <path id="路径_37388" data-name="路径 37388" d="M-16.1,143.181,59.051,97.161,58.386,95.9-16.1,141.29Z" transform="translate(16.1 -95.9)"/>
          </g>
          <g id="组_21437" data-name="组 21437" transform="translate(74.969 126.796)">
            <path id="路径_39890" data-name="路径 39890" d="M0,0,1.262.007,3.805,451.3l-1.262-.008Z" transform="translate(0 1.253) rotate(-83.754)"/>
          </g>
          <g id="组_21438" data-name="组 21438" transform="translate(74.969 126.796)">
            <path id="路径_39891" data-name="路径 39891" d="M0,0,1.262.007,3.805,451.3l-1.262-.008Z" transform="translate(0 1.253) rotate(-83.754)"/>
          </g>
        </g>
        <g id="组_21445" data-name="组 21445" transform="translate(523.188 33.136)">
          <g id="组_21440" data-name="组 21440" transform="translate(344.045 103.822)">
            <path id="路径_37389" data-name="路径 37389" d="M221.374,741.621,114.3,75.9h2L222.7,741.621Z" transform="translate(-114.3 -75.9)"/>
          </g>
          <g id="组_21441" data-name="组 21441" transform="translate(450.963 0)">
            <path id="路径_39892" data-name="路径 39892" d="M0,0,771.168,2.65l0,1.33L0,1.33Z" transform="translate(0 769.459) rotate(-86.406)"/>
          </g>
          <g id="组_21442" data-name="组 21442" transform="translate(451.145 192.686)">
            <path id="路径_39893" data-name="路径 39893" d="M0,0,578.219,1.995l0,1.33L0,1.33Z" transform="translate(0 576.937) rotate(-86.392)"/>
          </g>
          <g id="组_21443" data-name="组 21443" transform="translate(0 276.653)">
            <path id="路径_39894" data-name="路径 39894" d="M0,0,1.3.034,19.051,667.946l-1.3-.034Z" transform="matrix(0.755, -0.656, 0.656, 0.755, 0, 0.827)"/>
          </g>
          <g id="组_21444" data-name="组 21444" transform="translate(0 276.653)">
            <path id="路径_39895" data-name="路径 39895" d="M0,0,1.3.034,19.051,667.946l-1.3-.034Z" transform="matrix(0.755, -0.656, 0.656, 0.755, 0, 0.827)"/>
          </g>
        </g>
        <g id="组_21453" data-name="组 21453" transform="translate(0 136.728)">
          <g id="组_21446" data-name="组 21446" transform="translate(558.985 665.909)">
            <path id="路径_39896" data-name="路径 39896" d="M0,0,425.24,4.736l.022,1.9L.022,1.9Z" transform="matrix(0.976, -0.219, 0.219, 0.976, 0, 88.336)"/>
          </g>
          <g id="组_21447" data-name="组 21447" transform="translate(73.821 126.313)">
            <path id="路径_37390" data-name="路径 37390" d="M479.826,725.688-5,97.161-3.67,95.9,481.156,725.057Z" transform="translate(5 -95.9)"/>
          </g>
          <g id="组_21448" data-name="组 21448" transform="translate(0 674.146)">
            <path id="路径_37391" data-name="路径 37391" d="M-16.1,182.8v1.261l559.312,81.324v-1.891Z" transform="translate(16.1 -182.8)"/>
          </g>
          <g id="组_21449" data-name="组 21449" transform="translate(558.658)">
            <path id="路径_39897" data-name="路径 39897" d="M0,0,815.894,14.992l.035,1.982L.035,1.982Z" transform="translate(0 755.406) rotate(-68.826)"/>
          </g>
          <g id="组_21450" data-name="组 21450" transform="translate(558.647 88.488)">
            <path id="路径_37392" data-name="路径 37392" d="M69.23,757.513l-1.33-.63L522.134,89.9l1.33.63Z" transform="translate(-67.9 -89.9)"/>
          </g>
          <g id="组_21451" data-name="组 21451" transform="translate(522.859 173.374)">
            <path id="路径_39898" data-name="路径 39898" d="M0,0,1.995.006,3.847,583.25l-1.995-.006Z" transform="matrix(0.998, -0.058, 0.058, 0.998, 0, 0.11)"/>
          </g>
          <g id="组_21452" data-name="组 21452" transform="translate(522.859 173.374)">
            <path id="路径_39899" data-name="路径 39899" d="M0,0,1.995.006,3.847,583.25l-1.995-.006Z" transform="matrix(0.998, -0.058, 0.058, 0.998, 0, 0.11)"/>
          </g>
        </g>
        <g id="组_21458" data-name="组 21458" transform="translate(867.899 0)">
          <g id="组_21454" data-name="组 21454" transform="translate(582.589 0.157)">
            <path id="路径_37393" data-name="路径 37393" d="M826.488,371.3,202.665,54.2,202,55.461l624.488,317.1Z" transform="translate(-202 -54.2)"/>
          </g>
          <g id="组_21455" data-name="组 21455" transform="translate(0 0.157)">
            <path id="路径_37394" data-name="路径 37394" d="M115.065,191.631l-.665-1.261L696.989,54.2l.665,1.261Z" transform="translate(-114.4 -54.2)"/>
          </g>
          <g id="组_21456" data-name="组 21456" transform="translate(158.283 0.157)">
            <path id="路径_37395" data-name="路径 37395" d="M138.2,87.612V86.351L562.506,54.2l.665,1.261Z" transform="translate(-138.2 -54.2)"/>
          </g>
          <g id="组_21457" data-name="组 21457" transform="translate(145.474)">
            <path id="路径_39900" data-name="路径 39900" d="M0,0,491.575,10.857l.029,1.277L.029,1.277Z" transform="matrix(0.879, -0.477, 0.477, 0.879, 0, 224.789)"/>
          </g>
        </g>
        <g id="组_21461" data-name="组 21461" transform="translate(974.973 225.193)">
          <g id="组_21459" data-name="组 21459" transform="translate(0 576.855)">
            <path id="路径_37396" data-name="路径 37396" d="M596.7,284.789,130.5,182.661V181.4L596.7,282.9Z" transform="translate(-130.5 -181.4)"/>
          </g>
          <g id="组_21460" data-name="组 21460" transform="translate(37.813 0)">
            <path id="路径_39901" data-name="路径 39901" d="M0,0,1.968.046,21.1,802.646l-1.968-.046Z" transform="translate(0 0.97) rotate(-30.843)"/>
          </g>
        </g>
        <g id="组_21469" data-name="组 21469" transform="translate(867.899 0.025)">
          <g id="组_21462" data-name="组 21462" transform="translate(572.481 534.601)">
            <path id="路径_39902" data-name="路径 39902" d="M0,0,401.491,7.6l.036,1.981L.036,1.981Z" transform="matrix(0.374, -0.927, 0.927, 0.374, 0, 369.459)"/>
          </g>
          <g id="组_21463" data-name="组 21463" transform="translate(581.961 0)">
            <path id="路径_39903" data-name="路径 39903" d="M0,0,1.989.025,9.421,554.217l-1.989-.025Z" transform="matrix(0.967, -0.253, 0.253, 0.967, 0, 0.479)"/>
          </g>
          <g id="组_21464" data-name="组 21464" transform="translate(730.232 393.513)">
            <path id="路径_37397" data-name="路径 37397" d="M701.045,116.6,224.2,257.183v1.261L701.045,118.491Z" transform="translate(-224.2 -116.6)"/>
          </g>
          <g id="组_21465" data-name="组 21465" transform="translate(106.826 533.511)">
            <path id="路径_39904" data-name="路径 39904" d="M0,0,678.231,13.435l.026,1.273L.026,1.273Z" transform="translate(0 268.627) rotate(-24.463)"/>
          </g>
          <g id="组_21466" data-name="组 21466" transform="translate(0 136.302)">
            <path id="路径_37398" data-name="路径 37398" d="M843.967,474.855,114.4,77.061l.665-1.261L845.3,473.594Z" transform="translate(-114.4 -75.8)"/>
          </g>
          <g id="组_21467" data-name="组 21467" transform="translate(157.804 32.046)">
            <path id="路径_39905" data-name="路径 39905" d="M0,0,1.939.052,22.176,760.777l-1.939-.052Z" transform="translate(0 1.388) rotate(-47.229)"/>
          </g>
          <g id="组_21468" data-name="组 21468" transform="translate(144.951 224.553)">
            <path id="路径_39906" data-name="路径 39906" d="M0,0,1.916.044,16.755,661.479l-1.916-.044Z" transform="translate(0 1.652) rotate(-60.849)"/>
          </g>
        </g>
        <g id="组_21471" data-name="组 21471" transform="translate(1598.13 534.12)">
          <g id="组_21470" data-name="组 21470">
            <path id="路径_37399" data-name="路径 37399" d="M701.045,256.788,224.2,138.9v1.261L701.045,258.679Z" transform="translate(-224.2 -138.9)"/>
          </g>
        </g>
        <g id="组_21477" data-name="组 21477" transform="translate(974.865 497.556)">
          <g id="组_21472" data-name="组 21472" transform="translate(783.543 341.056)">
            <path id="路径_37400" data-name="路径 37400" d="M564.867,187.2,248.3,283.654l.665,1.891,315.9-96.454Z" transform="translate(-248.3 -187.2)"/>
          </g>
          <g id="组_21473" data-name="组 21473" transform="translate(622.6 36.564)">
            <path id="路径_37401" data-name="路径 37401" d="M385.044,541.107,224.1,139.531l1.33-.631L386.374,540.476Z" transform="translate(-224.1 -138.9)"/>
          </g>
          <g id="组_21474" data-name="组 21474" transform="translate(466.016 405.549)">
            <path id="路径_39907" data-name="路径 39907" d="M0,0,1.892.011l1.73,319.045-1.892-.011Z" transform="translate(0 1.881) rotate(-83.996)"/>
          </g>
          <g id="组_21475" data-name="组 21475" transform="translate(783.543)">
            <path id="路径_37402" data-name="路径 37402" d="M564.867,133.1,248.3,571.241l1.33.63L564.867,135.622Z" transform="translate(-248.3 -133.1)"/>
          </g>
          <g id="组_21476" data-name="组 21476" transform="translate(0 304.675)">
            <path id="路径_39908" data-name="路径 39908" d="M0,0,1.263.012,8.482,794.787l-1.263-.012Z" transform="translate(0 1.241) rotate(-79.81)"/>
          </g>
        </g>
      </g>
      <g id="组_21479" data-name="组 21479" transform="translate(66.163)">
        <path id="路径_37403" data-name="路径 37403" d="M72.332,118.234a8.607,8.607,0,0,1-10.641-5.674c-1.33-4.413,1.33-8.826,5.986-10.087a8.607,8.607,0,0,1,10.641,5.674C79.647,111.929,76.987,116.973,72.332,118.234Z" transform="translate(387.565 208.017)"/>
        <path id="路径_37404" data-name="路径 37404" d="M146.032,104.734a8.608,8.608,0,0,1-10.641-5.674c-1.33-4.413,1.33-8.826,5.985-10.087a8.608,8.608,0,0,1,10.641,5.674A9.22,9.22,0,0,1,146.032,104.734Z" transform="translate(804.011 136.411)"/>
        <path id="路径_37405" data-name="路径 37405" d="M72.332,118.234a8.607,8.607,0,0,1-10.641-5.674c-1.33-4.413,1.33-8.826,5.986-10.087a8.607,8.607,0,0,1,10.641,5.674C79.647,111.929,76.987,116.973,72.332,118.234Z" transform="translate(387.565 208.017)"/>
        <path id="路径_37406" data-name="路径 37406" d="M146.032,104.734a8.608,8.608,0,0,1-10.641-5.674c-1.33-4.413,1.33-8.826,5.985-10.087a8.608,8.608,0,0,1,10.641,5.674A9.22,9.22,0,0,1,146.032,104.734Z" transform="translate(804.011 136.411)"/>
        <path id="路径_37407" data-name="路径 37407" d="M146.032,104.734a8.608,8.608,0,0,1-10.641-5.674c-1.33-4.413,1.33-8.826,5.985-10.087a8.608,8.608,0,0,1,10.641,5.674A9.22,9.22,0,0,1,146.032,104.734Z" transform="translate(804.011 136.411)"/>
        <path id="路径_37408" data-name="路径 37408" d="M147.932,74.234a8.608,8.608,0,0,1-10.641-5.674c-1.33-4.413,1.33-8.826,5.985-10.087a8.608,8.608,0,0,1,10.641,5.674C155.247,67.929,152.587,72.973,147.932,74.234Z" transform="translate(814.747 -25.367)"/>
        <path id="路径_37409" data-name="路径 37409" d="M72.332,118.234a8.607,8.607,0,0,1-10.641-5.674c-1.33-4.413,1.33-8.826,5.986-10.087a8.607,8.607,0,0,1,10.641,5.674C79.647,111.929,76.987,116.973,72.332,118.234Z" transform="translate(387.565 208.017)"/>
        <path id="路径_37410" data-name="路径 37410" d="M147.932,74.234a8.608,8.608,0,0,1-10.641-5.674c-1.33-4.413,1.33-8.826,5.985-10.087a8.608,8.608,0,0,1,10.641,5.674C155.247,67.929,152.587,72.973,147.932,74.234Z" transform="translate(814.747 -25.367)"/>
        <path id="路径_37411" data-name="路径 37411" d="M72.332,118.234a8.607,8.607,0,0,1-10.641-5.674c-1.33-4.413,1.33-8.826,5.986-10.087a8.607,8.607,0,0,1,10.641,5.674C79.647,111.929,76.987,116.973,72.332,118.234Z" transform="translate(387.565 208.017)"/>
        <path id="路径_37412" data-name="路径 37412" d="M147.932,74.234a8.608,8.608,0,0,1-10.641-5.674c-1.33-4.413,1.33-8.826,5.985-10.087a8.608,8.608,0,0,1,10.641,5.674C155.247,67.929,152.587,72.973,147.932,74.234Z" transform="translate(814.747 -25.367)"/>
        <path id="路径_37413" data-name="路径 37413" d="M147.932,74.234a8.608,8.608,0,0,1-10.641-5.674c-1.33-4.413,1.33-8.826,5.985-10.087a8.608,8.608,0,0,1,10.641,5.674C155.247,67.929,152.587,72.973,147.932,74.234Z" transform="translate(814.747 -25.367)"/>
        <path id="路径_37414" data-name="路径 37414" d="M124.132,90.734a8.607,8.607,0,0,1-10.641-5.674c-1.33-4.413,1.33-8.826,5.986-10.087a8.607,8.607,0,0,1,10.641,5.674C131.447,84.429,128.787,89.473,124.132,90.734Z" transform="translate(680.264 62.152)"/>
        <path id="路径_37415" data-name="路径 37415" d="M146.032,104.734a8.608,8.608,0,0,1-10.641-5.674c-1.33-4.413,1.33-8.826,5.985-10.087a8.608,8.608,0,0,1,10.641,5.674A9.22,9.22,0,0,1,146.032,104.734Z" transform="translate(804.011 136.411)"/>
        <path id="路径_37416" data-name="路径 37416" d="M124.132,90.734a8.607,8.607,0,0,1-10.641-5.674c-1.33-4.413,1.33-8.826,5.986-10.087a8.607,8.607,0,0,1,10.641,5.674C131.447,84.429,128.787,89.473,124.132,90.734Z" transform="translate(680.264 62.152)"/>
        <path id="路径_37417" data-name="路径 37417" d="M72.332,118.234a8.607,8.607,0,0,1-10.641-5.674c-1.33-4.413,1.33-8.826,5.986-10.087a8.607,8.607,0,0,1,10.641,5.674C79.647,111.929,76.987,116.973,72.332,118.234Z" transform="translate(387.565 208.017)"/>
        <path id="路径_37418" data-name="路径 37418" d="M124.132,90.734a8.607,8.607,0,0,1-10.641-5.674c-1.33-4.413,1.33-8.826,5.986-10.087a8.607,8.607,0,0,1,10.641,5.674C131.447,84.429,128.787,89.473,124.132,90.734Z" transform="translate(680.264 62.152)"/>
        <path id="路径_37419" data-name="路径 37419" d="M72.332,118.234a8.607,8.607,0,0,1-10.641-5.674c-1.33-4.413,1.33-8.826,5.986-10.087a8.607,8.607,0,0,1,10.641,5.674C79.647,111.929,76.987,116.973,72.332,118.234Z" transform="translate(387.565 208.017)"/>
        <path id="路径_37420" data-name="路径 37420" d="M124.132,90.734a8.607,8.607,0,0,1-10.641-5.674c-1.33-4.413,1.33-8.826,5.986-10.087a8.607,8.607,0,0,1,10.641,5.674C131.447,84.429,128.787,89.473,124.132,90.734Z" transform="translate(680.264 62.152)"/>
        <path id="路径_37421" data-name="路径 37421" d="M72.332,118.234a8.607,8.607,0,0,1-10.641-5.674c-1.33-4.413,1.33-8.826,5.986-10.087a8.607,8.607,0,0,1,10.641,5.674C79.647,111.929,76.987,116.973,72.332,118.234Z" transform="translate(387.565 208.017)"/>
        <path id="路径_37422" data-name="路径 37422" d="M72.332,118.234a8.607,8.607,0,0,1-10.641-5.674c-1.33-4.413,1.33-8.826,5.986-10.087a8.607,8.607,0,0,1,10.641,5.674C79.647,111.929,76.987,116.973,72.332,118.234Z" transform="translate(387.565 208.017)"/>
        <path id="路径_37423" data-name="路径 37423" d="M4.832,110.834A8.607,8.607,0,0,1-5.809,105.16c-1.33-4.413,1.33-8.826,5.986-10.087a8.607,8.607,0,0,1,10.641,5.674C12.147,104.529,9.487,109.573,4.832,110.834Z" transform="translate(6.151 168.766)"/>
        <path id="路径_37424" data-name="路径 37424" d="M4.832,110.834A8.607,8.607,0,0,1-5.809,105.16c-1.33-4.413,1.33-8.826,5.986-10.087a8.607,8.607,0,0,1,10.641,5.674C12.147,104.529,9.487,109.573,4.832,110.834Z" transform="translate(6.151 168.766)"/>
        <path id="路径_37425" data-name="路径 37425" d="M124.132,90.734a8.607,8.607,0,0,1-10.641-5.674c-1.33-4.413,1.33-8.826,5.986-10.087a8.607,8.607,0,0,1,10.641,5.674C131.447,84.429,128.787,89.473,124.132,90.734Z" transform="translate(680.264 62.152)"/>
        <path id="路径_37426" data-name="路径 37426" d="M4.832,110.834A8.607,8.607,0,0,1-5.809,105.16c-1.33-4.413,1.33-8.826,5.986-10.087a8.607,8.607,0,0,1,10.641,5.674C12.147,104.529,9.487,109.573,4.832,110.834Z" transform="translate(6.151 168.766)"/>
        <path id="路径_37427" data-name="路径 37427" d="M4.832,110.834A8.607,8.607,0,0,1-5.809,105.16c-1.33-4.413,1.33-8.826,5.986-10.087a8.607,8.607,0,0,1,10.641,5.674C12.147,104.529,9.487,109.573,4.832,110.834Z" transform="translate(6.151 168.766)"/>
        <path id="路径_37428" data-name="路径 37428" d="M72.332,118.234a8.607,8.607,0,0,1-10.641-5.674c-1.33-4.413,1.33-8.826,5.986-10.087a8.607,8.607,0,0,1,10.641,5.674C79.647,111.929,76.987,116.973,72.332,118.234Z" transform="translate(387.565 208.017)"/>
        <path id="路径_37429" data-name="路径 37429" d="M4.832,110.834A8.607,8.607,0,0,1-5.809,105.16c-1.33-4.413,1.33-8.826,5.986-10.087a8.607,8.607,0,0,1,10.641,5.674C12.147,104.529,9.487,109.573,4.832,110.834Z" transform="translate(6.151 168.766)"/>
        <path id="路径_37430" data-name="路径 37430" d="M72.332,118.234a8.607,8.607,0,0,1-10.641-5.674c-1.33-4.413,1.33-8.826,5.986-10.087a8.607,8.607,0,0,1,10.641,5.674C79.647,111.929,76.987,116.973,72.332,118.234Z" transform="translate(387.565 208.017)"/>
        <path id="路径_37431" data-name="路径 37431" d="M4.832,110.834A8.607,8.607,0,0,1-5.809,105.16c-1.33-4.413,1.33-8.826,5.986-10.087a8.607,8.607,0,0,1,10.641,5.674C12.147,104.529,9.487,109.573,4.832,110.834Z" transform="translate(6.151 168.766)"/>
        <path id="路径_37432" data-name="路径 37432" d="M124.132,90.734a8.607,8.607,0,0,1-10.641-5.674c-1.33-4.413,1.33-8.826,5.986-10.087a8.607,8.607,0,0,1,10.641,5.674C131.447,84.429,128.787,89.473,124.132,90.734Z" transform="translate(680.264 62.152)"/>
        <path id="路径_37433" data-name="路径 37433" d="M140.232,196.234a8.608,8.608,0,0,1-10.641-5.674c-1.33-4.413,1.33-8.826,5.986-10.087a8.607,8.607,0,0,1,10.641,5.674C147.548,190.56,144.887,194.973,140.232,196.234Z" transform="translate(771.238 621.743)"/>
        <path id="路径_37434" data-name="路径 37434" d="M147.932,74.234a8.608,8.608,0,0,1-10.641-5.674c-1.33-4.413,1.33-8.826,5.985-10.087a8.608,8.608,0,0,1,10.641,5.674C155.247,67.929,152.587,72.973,147.932,74.234Z" transform="translate(814.747 -25.367)"/>
        <path id="路径_37435" data-name="路径 37435" d="M140.232,196.234a8.608,8.608,0,0,1-10.641-5.674c-1.33-4.413,1.33-8.826,5.986-10.087a8.607,8.607,0,0,1,10.641,5.674C147.548,190.56,144.887,194.973,140.232,196.234Z" transform="translate(771.238 621.743)"/>
        <path id="路径_37436" data-name="路径 37436" d="M146.032,104.734a8.608,8.608,0,0,1-10.641-5.674c-1.33-4.413,1.33-8.826,5.985-10.087a8.608,8.608,0,0,1,10.641,5.674A9.22,9.22,0,0,1,146.032,104.734Z" transform="translate(804.011 136.411)"/>
        <path id="路径_37437" data-name="路径 37437" d="M140.232,196.234a8.608,8.608,0,0,1-10.641-5.674c-1.33-4.413,1.33-8.826,5.986-10.087a8.607,8.607,0,0,1,10.641,5.674C147.548,190.56,144.887,194.973,140.232,196.234Z" transform="translate(771.238 621.743)"/>
        <path id="路径_37438" data-name="路径 37438" d="M72.332,118.234a8.607,8.607,0,0,1-10.641-5.674c-1.33-4.413,1.33-8.826,5.986-10.087a8.607,8.607,0,0,1,10.641,5.674C79.647,111.929,76.987,116.973,72.332,118.234Z" transform="translate(387.565 208.017)"/>
        <path id="路径_37439" data-name="路径 37439" d="M140.232,196.234a8.608,8.608,0,0,1-10.641-5.674c-1.33-4.413,1.33-8.826,5.986-10.087a8.607,8.607,0,0,1,10.641,5.674C147.548,190.56,144.887,194.973,140.232,196.234Z" transform="translate(771.238 621.743)"/>
        <path id="路径_37440" data-name="路径 37440" d="M72.332,118.234a8.607,8.607,0,0,1-10.641-5.674c-1.33-4.413,1.33-8.826,5.986-10.087a8.607,8.607,0,0,1,10.641,5.674C79.647,111.929,76.987,116.973,72.332,118.234Z" transform="translate(387.565 208.017)"/>
        <path id="路径_37441" data-name="路径 37441" d="M140.232,196.234a8.608,8.608,0,0,1-10.641-5.674c-1.33-4.413,1.33-8.826,5.986-10.087a8.607,8.607,0,0,1,10.641,5.674C147.548,190.56,144.887,194.973,140.232,196.234Z" transform="translate(771.238 621.743)"/>
        <path id="路径_37442" data-name="路径 37442" d="M140.232,196.234a8.608,8.608,0,0,1-10.641-5.674c-1.33-4.413,1.33-8.826,5.986-10.087a8.607,8.607,0,0,1,10.641,5.674C147.548,190.56,144.887,194.973,140.232,196.234Z" transform="translate(771.238 621.743)"/>
        <path id="路径_37443" data-name="路径 37443" d="M77.732,210.534a8.607,8.607,0,0,1-10.641-5.674c-1.33-4.413,1.33-8.826,5.986-10.087a8.608,8.608,0,0,1,10.641,5.674C85.047,204.86,82.387,209.273,77.732,210.534Z" transform="translate(418.078 697.593)"/>
        <path id="路径_37444" data-name="路径 37444" d="M4.832,110.834A8.607,8.607,0,0,1-5.809,105.16c-1.33-4.413,1.33-8.826,5.986-10.087a8.607,8.607,0,0,1,10.641,5.674C12.147,104.529,9.487,109.573,4.832,110.834Z" transform="translate(6.151 168.766)"/>
        <path id="路径_37445" data-name="路径 37445" d="M77.732,210.534a8.607,8.607,0,0,1-10.641-5.674c-1.33-4.413,1.33-8.826,5.986-10.087a8.608,8.608,0,0,1,10.641,5.674C85.047,204.86,82.387,209.273,77.732,210.534Z" transform="translate(418.078 697.593)"/>
        <path id="路径_37446" data-name="路径 37446" d="M77.732,210.534a8.607,8.607,0,0,1-10.641-5.674c-1.33-4.413,1.33-8.826,5.986-10.087a8.608,8.608,0,0,1,10.641,5.674C85.047,204.86,82.387,209.273,77.732,210.534Z" transform="translate(418.078 697.593)"/>
        <path id="路径_37447" data-name="路径 37447" d="M124.132,90.734a8.607,8.607,0,0,1-10.641-5.674c-1.33-4.413,1.33-8.826,5.986-10.087a8.607,8.607,0,0,1,10.641,5.674C131.447,84.429,128.787,89.473,124.132,90.734Z" transform="translate(680.264 62.152)"/>
        <path id="路径_37448" data-name="路径 37448" d="M77.732,210.534a8.607,8.607,0,0,1-10.641-5.674c-1.33-4.413,1.33-8.826,5.986-10.087a8.608,8.608,0,0,1,10.641,5.674C85.047,204.86,82.387,209.273,77.732,210.534Z" transform="translate(418.078 697.593)"/>
        <path id="路径_37449" data-name="路径 37449" d="M146.032,104.734a8.608,8.608,0,0,1-10.641-5.674c-1.33-4.413,1.33-8.826,5.985-10.087a8.608,8.608,0,0,1,10.641,5.674A9.22,9.22,0,0,1,146.032,104.734Z" transform="translate(804.011 136.411)"/>
        <path id="路径_37450" data-name="路径 37450" d="M77.732,210.534a8.607,8.607,0,0,1-10.641-5.674c-1.33-4.413,1.33-8.826,5.986-10.087a8.608,8.608,0,0,1,10.641,5.674C85.047,204.86,82.387,209.273,77.732,210.534Z" transform="translate(418.078 697.593)"/>
        <path id="路径_37451" data-name="路径 37451" d="M72.332,118.234a8.607,8.607,0,0,1-10.641-5.674c-1.33-4.413,1.33-8.826,5.986-10.087a8.607,8.607,0,0,1,10.641,5.674C79.647,111.929,76.987,116.973,72.332,118.234Z" transform="translate(387.565 208.017)"/>
        <path id="路径_37452" data-name="路径 37452" d="M77.732,210.534a8.607,8.607,0,0,1-10.641-5.674c-1.33-4.413,1.33-8.826,5.986-10.087a8.608,8.608,0,0,1,10.641,5.674C85.047,204.86,82.387,209.273,77.732,210.534Z" transform="translate(418.078 697.593)"/>
        <path id="路径_37453" data-name="路径 37453" d="M72.332,118.234a8.607,8.607,0,0,1-10.641-5.674c-1.33-4.413,1.33-8.826,5.986-10.087a8.607,8.607,0,0,1,10.641,5.674C79.647,111.929,76.987,116.973,72.332,118.234Z" transform="translate(387.565 208.017)"/>
        <path id="路径_37454" data-name="路径 37454" d="M77.732,210.534a8.607,8.607,0,0,1-10.641-5.674c-1.33-4.413,1.33-8.826,5.986-10.087a8.608,8.608,0,0,1,10.641,5.674C85.047,204.86,82.387,209.273,77.732,210.534Z" transform="translate(418.078 697.593)"/>
        <path id="路径_37455" data-name="路径 37455" d="M211.732,69.034a8.607,8.607,0,0,1-10.641-5.674c-1.33-4.413,1.33-8.826,5.985-10.087a8.607,8.607,0,0,1,10.641,5.674C219.048,63.36,216.387,67.773,211.732,69.034Z" transform="translate(1175.253 -52.949)"/>
        <path id="路径_37456" data-name="路径 37456" d="M124.132,90.734a8.607,8.607,0,0,1-10.641-5.674c-1.33-4.413,1.33-8.826,5.986-10.087a8.607,8.607,0,0,1,10.641,5.674C131.447,84.429,128.787,89.473,124.132,90.734Z" transform="translate(680.264 62.152)"/>
        <path id="路径_37457" data-name="路径 37457" d="M211.732,69.034a8.607,8.607,0,0,1-10.641-5.674c-1.33-4.413,1.33-8.826,5.985-10.087a8.607,8.607,0,0,1,10.641,5.674C219.048,63.36,216.387,67.773,211.732,69.034Z" transform="translate(1175.253 -52.949)"/>
        <path id="路径_37458" data-name="路径 37458" d="M147.932,74.234a8.608,8.608,0,0,1-10.641-5.674c-1.33-4.413,1.33-8.826,5.985-10.087a8.608,8.608,0,0,1,10.641,5.674C155.247,67.929,152.587,72.973,147.932,74.234Z" transform="translate(814.747 -25.367)"/>
        <path id="路径_37459" data-name="路径 37459" d="M211.732,69.034a8.607,8.607,0,0,1-10.641-5.674c-1.33-4.413,1.33-8.826,5.985-10.087a8.607,8.607,0,0,1,10.641,5.674C219.048,63.36,216.387,67.773,211.732,69.034Z" transform="translate(1175.253 -52.949)"/>
        <path id="路径_37460" data-name="路径 37460" d="M146.032,104.734a8.608,8.608,0,0,1-10.641-5.674c-1.33-4.413,1.33-8.826,5.985-10.087a8.608,8.608,0,0,1,10.641,5.674A9.22,9.22,0,0,1,146.032,104.734Z" transform="translate(804.011 136.411)"/>
        <path id="路径_37461" data-name="路径 37461" d="M211.732,69.034a8.607,8.607,0,0,1-10.641-5.674c-1.33-4.413,1.33-8.826,5.985-10.087a8.607,8.607,0,0,1,10.641,5.674C219.048,63.36,216.387,67.773,211.732,69.034Z" transform="translate(1175.253 -52.949)"/>
        <path id="路径_37462" data-name="路径 37462" d="M140.232,196.234a8.608,8.608,0,0,1-10.641-5.674c-1.33-4.413,1.33-8.826,5.986-10.087a8.607,8.607,0,0,1,10.641,5.674C147.548,190.56,144.887,194.973,140.232,196.234Z" transform="translate(771.238 621.743)"/>
        <path id="路径_37463" data-name="路径 37463" d="M210.332,212.434a8.608,8.608,0,0,1-10.641-5.674c-1.33-4.413,1.33-8.826,5.985-10.087a8.608,8.608,0,0,1,10.641,5.674C217.648,206.76,214.987,211.173,210.332,212.434Z" transform="translate(1167.342 707.671)"/>
        <path id="路径_37464" data-name="路径 37464" d="M146.032,104.734a8.608,8.608,0,0,1-10.641-5.674c-1.33-4.413,1.33-8.826,5.985-10.087a8.608,8.608,0,0,1,10.641,5.674A9.22,9.22,0,0,1,146.032,104.734Z" transform="translate(804.011 136.411)"/>
        <path id="路径_37465" data-name="路径 37465" d="M210.332,212.434a8.608,8.608,0,0,1-10.641-5.674c-1.33-4.413,1.33-8.826,5.985-10.087a8.608,8.608,0,0,1,10.641,5.674C217.648,206.76,214.987,211.173,210.332,212.434Z" transform="translate(1167.342 707.671)"/>
        <path id="路径_37466" data-name="路径 37466" d="M210.332,212.434a8.608,8.608,0,0,1-10.641-5.674c-1.33-4.413,1.33-8.826,5.985-10.087a8.608,8.608,0,0,1,10.641,5.674C217.648,206.76,214.987,211.173,210.332,212.434Z" transform="translate(1167.342 707.671)"/>
        <path id="路径_37467" data-name="路径 37467" d="M233.932,153.733a8.607,8.607,0,0,1-10.641-5.674c-1.33-4.413,1.33-8.826,5.985-10.087a8.607,8.607,0,0,1,10.641,5.674C241.247,148.06,238.587,152.473,233.932,153.733Z" transform="translate(1300.695 396.315)"/>
        <path id="路径_37468" data-name="路径 37468" d="M211.732,69.034a8.607,8.607,0,0,1-10.641-5.674c-1.33-4.413,1.33-8.826,5.985-10.087a8.607,8.607,0,0,1,10.641,5.674C219.048,63.36,216.387,67.773,211.732,69.034Z" transform="translate(1175.253 -52.949)"/>
        <path id="路径_37469" data-name="路径 37469" d="M233.932,153.733a8.607,8.607,0,0,1-10.641-5.674c-1.33-4.413,1.33-8.826,5.985-10.087a8.607,8.607,0,0,1,10.641,5.674C241.247,148.06,238.587,152.473,233.932,153.733Z" transform="translate(1300.695 396.315)"/>
        <path id="路径_37470" data-name="路径 37470" d="M233.932,153.733a8.607,8.607,0,0,1-10.641-5.674c-1.33-4.413,1.33-8.826,5.985-10.087a8.607,8.607,0,0,1,10.641,5.674C241.247,148.06,238.587,152.473,233.932,153.733Z" transform="translate(1300.695 396.315)"/>
        <path id="路径_37471" data-name="路径 37471" d="M140.232,196.234a8.608,8.608,0,0,1-10.641-5.674c-1.33-4.413,1.33-8.826,5.986-10.087a8.607,8.607,0,0,1,10.641,5.674C147.548,190.56,144.887,194.973,140.232,196.234Z" transform="translate(771.238 621.743)"/>
        <path id="路径_37472" data-name="路径 37472" d="M233.932,153.733a8.607,8.607,0,0,1-10.641-5.674c-1.33-4.413,1.33-8.826,5.985-10.087a8.607,8.607,0,0,1,10.641,5.674C241.247,148.06,238.587,152.473,233.932,153.733Z" transform="translate(1300.695 396.315)"/>
        <path id="路径_37473" data-name="路径 37473" d="M124.132,90.734a8.607,8.607,0,0,1-10.641-5.674c-1.33-4.413,1.33-8.826,5.986-10.087a8.607,8.607,0,0,1,10.641,5.674C131.447,84.429,128.787,89.473,124.132,90.734Z" transform="translate(680.264 62.152)"/>
        <path id="路径_37474" data-name="路径 37474" d="M233.932,153.733a8.607,8.607,0,0,1-10.641-5.674c-1.33-4.413,1.33-8.826,5.985-10.087a8.607,8.607,0,0,1,10.641,5.674C241.247,148.06,238.587,152.473,233.932,153.733Z" transform="translate(1300.695 396.315)"/>
        <path id="路径_37475" data-name="路径 37475" d="M147.932,74.234a8.608,8.608,0,0,1-10.641-5.674c-1.33-4.413,1.33-8.826,5.985-10.087a8.608,8.608,0,0,1,10.641,5.674C155.247,67.929,152.587,72.973,147.932,74.234Z" transform="translate(814.747 -25.367)"/>
        <path id="路径_37476" data-name="路径 37476" d="M233.932,153.733a8.607,8.607,0,0,1-10.641-5.674c-1.33-4.413,1.33-8.826,5.985-10.087a8.607,8.607,0,0,1,10.641,5.674C241.247,148.06,238.587,152.473,233.932,153.733Z" transform="translate(1300.695 396.315)"/>
        <path id="路径_37477" data-name="路径 37477" d="M146.032,104.734a8.608,8.608,0,0,1-10.641-5.674c-1.33-4.413,1.33-8.826,5.985-10.087a8.608,8.608,0,0,1,10.641,5.674A9.22,9.22,0,0,1,146.032,104.734Z" transform="translate(804.011 136.411)"/>
        <path id="路径_37478" data-name="路径 37478" d="M233.932,153.733a8.607,8.607,0,0,1-10.641-5.674c-1.33-4.413,1.33-8.826,5.985-10.087a8.607,8.607,0,0,1,10.641,5.674C241.247,148.06,238.587,152.473,233.932,153.733Z" transform="translate(1300.695 396.315)"/>
        <path id="路径_37479" data-name="路径 37479" d="M233.932,153.733a8.607,8.607,0,0,1-10.641-5.674c-1.33-4.413,1.33-8.826,5.985-10.087a8.607,8.607,0,0,1,10.641,5.674C241.247,148.06,238.587,152.473,233.932,153.733Z" transform="translate(1300.695 396.315)"/>
        <path id="路径_37480" data-name="路径 37480" d="M258.032,217.434a8.608,8.608,0,0,1-10.641-5.674c-1.33-4.413,1.33-8.826,5.986-10.087a8.608,8.608,0,0,1,10.641,5.674C265.348,211.76,262.687,216.173,258.032,217.434Z" transform="translate(1436.874 734.192)"/>
        <path id="路径_37481" data-name="路径 37481" d="M233.932,153.733a8.607,8.607,0,0,1-10.641-5.674c-1.33-4.413,1.33-8.826,5.985-10.087a8.607,8.607,0,0,1,10.641,5.674C241.247,148.06,238.587,152.473,233.932,153.733Z" transform="translate(1300.695 396.315)"/>
        <path id="路径_37482" data-name="路径 37482" d="M258.032,217.434a8.608,8.608,0,0,1-10.641-5.674c-1.33-4.413,1.33-8.826,5.986-10.087a8.608,8.608,0,0,1,10.641,5.674C265.348,211.76,262.687,216.173,258.032,217.434Z" transform="translate(1436.874 734.192)"/>
        <path id="路径_37483" data-name="路径 37483" d="M210.332,212.434a8.608,8.608,0,0,1-10.641-5.674c-1.33-4.413,1.33-8.826,5.985-10.087a8.608,8.608,0,0,1,10.641,5.674C217.648,206.76,214.987,211.173,210.332,212.434Z" transform="translate(1167.342 707.671)"/>
        <path id="路径_37484" data-name="路径 37484" d="M258.032,217.434a8.608,8.608,0,0,1-10.641-5.674c-1.33-4.413,1.33-8.826,5.986-10.087a8.608,8.608,0,0,1,10.641,5.674C265.348,211.76,262.687,216.173,258.032,217.434Z" transform="translate(1436.874 734.192)"/>
        <path id="路径_37485" data-name="路径 37485" d="M258.032,217.434a8.608,8.608,0,0,1-10.641-5.674c-1.33-4.413,1.33-8.826,5.986-10.087a8.608,8.608,0,0,1,10.641,5.674C265.348,211.76,262.687,216.173,258.032,217.434Z" transform="translate(1436.874 734.192)"/>
        <path id="路径_37486" data-name="路径 37486" d="M140.232,196.234a8.608,8.608,0,0,1-10.641-5.674c-1.33-4.413,1.33-8.826,5.986-10.087a8.607,8.607,0,0,1,10.641,5.674C147.548,190.56,144.887,194.973,140.232,196.234Z" transform="translate(771.238 621.743)"/>
      </g>
    </g>
  </g>
</svg>
