<svg xmlns="http://www.w3.org/2000/svg" width="101.5" height="101.517" viewBox="0 0 101.5 101.517">
  <g id="智能生态" transform="translate(-1748.506 -121.128)">
    <path id="路径_37354" data-name="路径 37354" d="M1784.96,190.122a8.7,8.7,0,0,1-5.147-7.633V159.857s.8-6.523,8.589-6.656h21.9s7.722.133,7.722,8.919v20.369s0,2.8-1.332,4.127" fill="none" stroke="#6287de" stroke-linecap="round" stroke-miterlimit="10" stroke-width="1.5"/>
    <path id="路径_37355" data-name="路径 37355" d="M1790.064,174.368v-6.185s2-5.4,8.853-5.4a9.758,9.758,0,0,1,9.119,5.4V176.9a3.822,3.822,0,0,1-2.929,2.653" fill="none" stroke="#ef54a1" stroke-linecap="round" stroke-miterlimit="10" stroke-width="1.5"/>
    <path id="路径_37356" data-name="路径 37356" d="M1814.16,221.9h-16.641v-3.787s-4.526-3.8-5.192-7-1.6-5.059-4.66-8.254-3.017-5.68-1.863-7.056c1.04-1.241,4.127-1.731,7.322,3.062h.31V179.827a4.119,4.119,0,0,1,1.154-2.974,3.828,3.828,0,0,1,5.858,2.7v10.571h.355s-.241-3.486.569-4.964c.846-1.545,4.49-1.249,4.578,2.878v3.95h.311v-2.707s.089-1.287,2.441-1.243,3.461.133,3.284,6.08c0,0-.355-3.706,2.357-3.889s3.3,1.8,3.323,4.2v16.819s-.133,3.306-1.642,4.5a5.652,5.652,0,0,0-1.886,2.359Z" fill="none" stroke="#6287de" stroke-linecap="round" stroke-miterlimit="10" stroke-width="1.5"/>
    <path id="路径_37357" data-name="路径 37357" d="M1767.3,189.947v-9.322h12.514" fill="none" stroke="#6287de" stroke-linecap="round" stroke-miterlimit="10" stroke-width="1.5"/>
    <line id="直线_158" data-name="直线 158" x2="19.24" transform="translate(1759.907 171.661)" fill="none" stroke="#6287de" stroke-linecap="round" stroke-miterlimit="10" stroke-width="1.5"/>
    <path id="路径_37358" data-name="路径 37358" d="M1767.3,154.266v9.585h12.514" fill="none" stroke="#6287de" stroke-linecap="round" stroke-miterlimit="10" stroke-width="1.5"/>
    <line id="直线_159" data-name="直线 159" y2="6.79" transform="translate(1789.996 146.411)" fill="none" stroke="#6287de" stroke-linecap="round" stroke-miterlimit="10" stroke-width="1.5"/>
    <line id="直线_160" data-name="直线 160" y2="6.79" transform="translate(1798.917 146.411)" fill="none" stroke="#6287de" stroke-linecap="round" stroke-miterlimit="10" stroke-width="1.5"/>
    <line id="直线_161" data-name="直线 161" y2="6.79" transform="translate(1808.036 146.411)" fill="none" stroke="#6287de" stroke-linecap="round" stroke-miterlimit="10" stroke-width="1.5"/>
    <path id="路径_37359" data-name="路径 37359" d="M1830.535,154.266v9.053h-12.514" fill="none" stroke="#6287de" stroke-linecap="round" stroke-miterlimit="10" stroke-width="1.5"/>
    <line id="直线_162" data-name="直线 162" x1="20.585" transform="translate(1818.021 171.661)" fill="none" stroke="#6287de" stroke-linecap="round" stroke-miterlimit="10" stroke-width="1.5"/>
    <path id="路径_37360" data-name="路径 37360" d="M1830.535,189.811v-9.186h-12.292" fill="none" stroke="#6287de" stroke-linecap="round" stroke-miterlimit="10" stroke-width="1.5"/>
    <path id="路径_37361" data-name="路径 37361" d="M1786.735,138.29a13.72,13.72,0,0,1,9.186-7.322c5.7-1.188,11.6,2.267,14.392,8.125" fill="none" stroke="#ef54a1" stroke-linecap="round" stroke-miterlimit="10" stroke-width="1.5"/>
    <path id="路径_37362" data-name="路径 37362" d="M1777.816,134.991c.532-.4,3.062-7.962,13.18-11.769s20.5.72,28.622,11.769" fill="none" stroke="#ef54a1" stroke-linecap="round" stroke-miterlimit="10" stroke-width="1.5"/>
    <circle id="椭圆_1642" data-name="椭圆 1642" cx="5.325" cy="5.325" r="5.325" transform="translate(1761.974 143.615)" fill="none" stroke="#6287de" stroke-linecap="round" stroke-miterlimit="10" stroke-width="1.5"/>
    <circle id="椭圆_1643" data-name="椭圆 1643" cx="5.325" cy="5.325" r="5.325" transform="translate(1825.21 143.615)" fill="none" stroke="#6287de" stroke-linecap="round" stroke-miterlimit="10" stroke-width="1.5"/>
    <circle id="椭圆_1644" data-name="椭圆 1644" cx="5.325" cy="5.325" r="5.325" transform="translate(1749.256 166.336)" fill="none" stroke="#6287de" stroke-linecap="round" stroke-miterlimit="10" stroke-width="1.5"/>
    <circle id="椭圆_1645" data-name="椭圆 1645" cx="5.325" cy="5.325" r="5.325" transform="translate(1838.606 166.336)" fill="none" stroke="#6287de" stroke-linecap="round" stroke-miterlimit="10" stroke-width="1.5"/>
    <circle id="椭圆_1646" data-name="椭圆 1646" cx="5.325" cy="5.325" r="5.325" transform="translate(1761.974 190.122)" fill="none" stroke="#6287de" stroke-linecap="round" stroke-miterlimit="10" stroke-width="1.5"/>
    <circle id="椭圆_1647" data-name="椭圆 1647" cx="5.325" cy="5.325" r="5.325" transform="translate(1825.21 190.122)" fill="none" stroke="#6287de" stroke-linecap="round" stroke-miterlimit="10" stroke-width="1.5"/>
  </g>
</svg>
