<svg xmlns="http://www.w3.org/2000/svg" xmlns:xlink="http://www.w3.org/1999/xlink" width="602" height="488.543" viewBox="0 0 602 488.543">
  <defs>
    <linearGradient id="linear-gradient" x1="2250.887" y1="994.948" x2="2493.957" y2="953.199" gradientUnits="objectBoundingBox">
      <stop offset="0" stop-color="#12c2e9"/>
      <stop offset="1" stop-color="#7d1edc"/>
    </linearGradient>
    <linearGradient id="linear-gradient-2" x1="5938.539" y1="1429.156" x2="6321.605" y2="1363.403" xlink:href="#linear-gradient"/>
    <linearGradient id="linear-gradient-3" x1="2302.082" y1="5934.608" x2="2543.55" y2="5584.458" xlink:href="#linear-gradient"/>
    <linearGradient id="linear-gradient-4" x1="2148.718" y1="55143.074" x2="2389.344" y2="51434.277" xlink:href="#linear-gradient"/>
    <linearGradient id="linear-gradient-5" x1="541006.938" y1="3314584.75" x2="555931.125" y2="3071284.75" xlink:href="#linear-gradient"/>
    <linearGradient id="linear-gradient-6" x1="111238.438" y1="112594.281" x2="114744.688" y2="104480.516" xlink:href="#linear-gradient"/>
  </defs>
  <g id="糖果政策" transform="translate(-359 -2922.465)">
    <g id="组_21985" data-name="组 21985" transform="translate(0 -36)">
      <rect id="矩形_2696" data-name="矩形 2696" width="598" height="398" transform="translate(361 3047.008)" fill="#fff"/>
      <path id="路径_39928" data-name="路径 39928" d="M4346.667,292.067" transform="translate(-3473.398 2753.941)" fill="#fff" stroke="#ef54a1" stroke-width="2" stroke-dasharray="10"/>
      <path id="路径_39929" data-name="路径 39929" d="M3899.333,292.067" transform="translate(-3471.398 2753.941)" fill="#fff" stroke="#ef54a1" stroke-width="2" stroke-dasharray="10"/>
      <path id="路径_39930" data-name="路径 39930" d="M4361.208,292.142l70.189-.075v400h-600v-400h76.162" transform="translate(-3471.398 2753.941)" fill="#fff" stroke="#ef54a1" stroke-width="2" stroke-dasharray="10"/>
      <g id="组_21991" data-name="组 21991" transform="translate(-3449.596 2822.941)">
        <path id="路径_39928-2" data-name="路径 39928" d="M4134.695,422.245c-49.85-29.1-130.416-29.1-179.942.005-24.605,14.46-36.916,33.38-36.965,52.327-.015,5.858-.13,77.53.007,83.677.42,18.824,12.942,37.594,37.546,51.955,49.856,29.107,130.415,29.107,179.938,0,24.158-14.194,36.462-32.692,36.953-51.3.164-6.2.182-78.758,0-85C4171.691,455.187,4159.173,436.537,4134.695,422.245Z" transform="translate(-0.048 -40.951)" fill="#fff" stroke="#0080f4" stroke-miterlimit="10" stroke-width="1"/>
        <path id="路径_39929-2" data-name="路径 39929" d="M4134.358,422.2c-49.85-29.05-130.416-29.05-179.941.005-24.605,14.431-36.916,33.323-36.965,52.237a41.064,41.064,0,0,0,.007,4.31c.42,18.792,12.942,37.529,37.546,51.866,49.856,29.057,130.416,29.057,179.938,0,24.159-14.175,36.463-32.637,36.953-51.21.166-6.19.183.6,0-5.636C4171.355,455.086,4158.836,436.471,4134.358,422.2Z" transform="translate(0 -40.95)" fill="rgba(0,128,244,0)"/>
        <path id="路径_39930-2" data-name="路径 39930" d="M4172.233,563.213h-.251c.037,1.042.06,1.48.075,1.639.021-.149.023.243,0,0-.02.139-.058.751-.114,2.8-.487,18.4-12.794,36.69-36.953,50.73-49.521,28.778-130.082,28.778-179.938,0-23.007-13.281-35.446-30.372-37.308-47.757a18.85,18.85,0,0,0,.05,2.334c.42,18.616,12.942,37.178,37.546,51.381,49.856,28.784,130.415,28.784,179.938,0,24.158-14.037,36.462-32.331,36.953-50.73Q4172.492,568.414,4172.233,563.213Z" transform="translate(-0.048 -64.73)" fill="#0080f4" opacity="0.5"/>
        <path id="路径_39931" data-name="路径 39931" d="M4129.65,420.39c-46.392-26.635-121.37-26.631-167.457,0-22.9,13.236-34.356,30.552-34.4,47.9a36.433,36.433,0,0,0,.006,3.953c.391,17.231,12.041,34.408,34.941,47.556,46.4,26.643,121.369,26.643,167.457,0,22.482-12.993,33.937-29.923,34.389-46.949.153-5.676.171.547,0-5.168C4164.082,450.54,4152.432,433.473,4129.65,420.39Z" transform="translate(-1.511 -40.951)" fill="#fff" stroke="#0080f4" stroke-miterlimit="10" stroke-width="1.5" stroke-dasharray="3"/>
        <path id="路径_39932" data-name="路径 39932" d="M4119.7,417.234c-38.843-22.426-101.618-22.422-140.211,0-19.172,11.141-28.765,25.722-28.8,40.324-.012,4.514-.1,2.569.005,7.308.327,14.506,10.084,28.968,29.255,40.036,38.848,22.429,101.618,22.429,140.209,0,18.823-10.938,28.414-25.191,28.794-39.529.127-4.782.142-3.517,0-8.329C4148.537,442.617,4138.782,428.244,4119.7,417.234Z" transform="translate(-4.856 -40.951)" fill="none" stroke="#0080f4" stroke-miterlimit="10" stroke-width="1" opacity="0.46"/>
        <path id="矩形_2696-2" data-name="矩形 2696" d="M4105.847,405.464h0a1.034,1.034,0,0,1,1.034,1.034v96.334a1.034,1.034,0,0,1-1.034,1.034h0a1.034,1.034,0,0,1-1.034-1.034V406.5A1.034,1.034,0,0,1,4105.847,405.464Z" transform="translate(-27.375 -41.688)" fill="#0080f4"/>
        <path id="矩形_2697" data-name="矩形 2697" d="M4057.565,442.159h0a1.034,1.034,0,0,1,1.034,1.034V493.35a1.034,1.034,0,0,1-1.034,1.034h0a1.034,1.034,0,0,1-1.034-1.034V443.193A1.034,1.034,0,0,1,4057.565,442.159Z" transform="translate(-20.323 -47.048)" fill="#0080f4"/>
        <path id="路径_39937" data-name="路径 39937" d="M4180.792,557.425a7.417,7.417,0,0,0-3.346,5.86v40.636c.006,2.154,1.531,3.024,3.406,1.941a7.465,7.465,0,0,0,3.383-5.86V559.368C4184.228,557.215,4182.665,556.346,4180.792,557.425Z" transform="translate(-37.984 -63.817)" fill="#0080f4" opacity="0.19"/>
        <g id="组_21988" data-name="组 21988" transform="translate(3937.191 488.467)" opacity="0.28">
          <g id="组_21986" data-name="组 21986" transform="translate(0)">
            <path id="路径_39938" data-name="路径 39938" d="M3980.49,577.105a4.233,4.233,0,0,0,2.613,3.975q1.176.462,2.368.907a2.03,2.03,0,0,0,2.716-1.94,4.153,4.153,0,0,0-2.678-3.9q-1.11-.412-2.211-.84a2.018,2.018,0,0,0-2.808,1.793Z" transform="translate(-3946.406 -554.94)" fill="#0080f4"/>
            <path id="路径_39939" data-name="路径 39939" d="M4025.481,589.514a3.477,3.477,0,0,0-2.908-3.422q-6.887-1.154-13.573-2.764a2.264,2.264,0,0,0-2.76,2.253,3.816,3.816,0,0,0,2.946,3.682q6.616,1.6,13.453,2.747a2.481,2.481,0,0,0,2.841-2.5Z" transform="translate(-3950.168 -556.127)" fill="#0080f4"/>
            <path id="路径_39940" data-name="路径 39940" d="M3960.367,566.777a5.126,5.126,0,0,0-2.621-4.355,103.233,103.233,0,0,1-15.076-10.648,1.281,1.281,0,0,0-2.093,1,6.348,6.348,0,0,0,2.188,4.808,103.151,103.151,0,0,0,15.069,10.674,1.69,1.69,0,0,0,2.533-1.482Z" transform="translate(-3940.577 -551.484)" fill="#0080f4"/>
            <path id="路径_39941" data-name="路径 39941" d="M4078.494,592.393a2.872,2.872,0,0,0-2.932-2.811h0a1.127,1.127,0,0,0-.152.007,220.488,220.488,0,0,1-26.876-.2,2.786,2.786,0,0,0-3.014,2.538c-.006.065-.009.13-.009.195a3.189,3.189,0,0,0,2.95,3.2,220.337,220.337,0,0,0,26.992.249A3.189,3.189,0,0,0,4078.494,592.393Z" transform="translate(-3955.904 -557.018)" fill="#0080f4"/>
          </g>
          <g id="组_21987" data-name="组 21987" transform="translate(0 14.315)">
            <path id="路径_39942" data-name="路径 39942" d="M4008.012,601.96a3.679,3.679,0,0,0-2.853-3.579,162.06,162.06,0,0,1-36.954-13.078,1.747,1.747,0,0,0-2.523,1.586,4.732,4.732,0,0,0,2.54,4.23,161.563,161.563,0,0,0,36.958,13.158,2.337,2.337,0,0,0,2.779-1.79A2.308,2.308,0,0,0,4008.012,601.96Z" transform="translate(-3944.244 -570.712)" fill="#0080f4"/>
            <path id="路径_39943" data-name="路径 39943" d="M3947.723,575.414a6.027,6.027,0,0,0-2.351-4.685q-1.342-1.061-2.613-2.144a1.307,1.307,0,0,0-2.182.931,6.247,6.247,0,0,0,2.114,4.742q1.341,1.157,2.766,2.291a1.414,1.414,0,0,0,2.266-1.134Z" transform="translate(-3940.577 -568.248)" fill="#0080f4"/>
            <path id="路径_39944" data-name="路径 39944" d="M4042.435,608.552a3.275,3.275,0,0,0-2.951-3.245q-2.237-.228-4.458-.5a2.647,2.647,0,0,0-3.008,2.23h0a2.708,2.708,0,0,0-.028.332,3.361,3.361,0,0,0,2.923,3.349q2.281.284,4.576.518a2.682,2.682,0,0,0,2.933-2.4h0C4042.431,608.737,4042.435,608.645,4042.435,608.552Z" transform="translate(-3953.929 -573.583)" fill="#0080f4"/>
            <path id="路径_39945" data-name="路径 39945" d="M4071.955,609.641a2.9,2.9,0,0,0-2.883-2.924h-.037q-2.523.031-5.048,0a2.963,2.963,0,0,0-3.026,2.9v.031a3,3,0,0,0,2.921,3.03q2.523.029,5.047,0A3.048,3.048,0,0,0,4071.955,609.641Z" transform="translate(-3958.161 -573.867)" fill="#0080f4"/>
          </g>
        </g>
        <path id="矩形_2698" data-name="矩形 2698" d="M4158.636,296.024h0a1.034,1.034,0,0,1,1.034,1.034V445.067a1.034,1.034,0,0,1-1.034,1.034h0a1.034,1.034,0,0,1-1.034-1.034V297.058A1.034,1.034,0,0,1,4158.636,296.024Z" transform="translate(-35.086 -25.703)" fill="#fff" stroke="#0080f4" stroke-width="1" opacity="0.3"/>
        <path id="矩形_2699" data-name="矩形 2699" d="M3988.038,325.637h0a1.034,1.034,0,0,1,1.034,1.034V427.4a1.034,1.034,0,0,1-1.034,1.034h0A1.034,1.034,0,0,1,3987,427.4V326.671A1.034,1.034,0,0,1,3988.038,325.637Z" transform="translate(-29.167 -18.028)" fill="#fff" stroke="#0080f4" stroke-width="1" opacity="0.5"/>
        <path id="矩形_2700" data-name="矩形 2700" d="M4132.242,385.238h0a1.034,1.034,0,0,1,1.034,1.034v16.853a1.033,1.033,0,0,1-1.034,1.034h0a1.034,1.034,0,0,1-1.034-1.034V386.272A1.034,1.034,0,0,1,4132.242,385.238Z" transform="translate(-31.23 -38.734)" fill="#fff" stroke="#0080f4" stroke-width="1" opacity="0.5"/>
        <path id="路径_39969" data-name="路径 39969" d="M4215.579,158.919" transform="translate(-43.554 -5.676)" fill="none" stroke="#0c111a" stroke-miterlimit="10" stroke-width="1"/>
        <path id="路径_39970" data-name="路径 39970" d="M3918.35,248.919" transform="translate(-0.139 -18.822)" fill="none" stroke="#0c111a" stroke-miterlimit="10" stroke-width="1"/>
        <g id="组_21986-2" data-name="组 21986-2" transform="matrix(0.995, 0.105, -0.105, 0.995, 3979.654, 276.622)">
          <path id="路径_39960" data-name="路径 39960" d="M4058.173,315.529c.022.013.044.022.064.032q-2.209-1.2-4.422-2.391l-4.424-2.391c-7.394-3.995-17.435-3.084-28.335,3.672-21.659,13.426-38.52,44.865-37.653,70.206.427,12.592,5.155,21.31,12.454,25.256l8.851,4.776c-.212-.114-.412-.243-.62-.365,7.45,4.391,17.746,3.64,28.956-3.309,21.66-13.429,38.512-44.859,37.653-70.212C4070.26,328.188,4065.509,319.456,4058.173,315.529Z" transform="translate(-3983.37 -308.4)" fill="#fff" stroke="#6287de" stroke-miterlimit="10" stroke-width="1"/>
          <path id="路径_39963" data-name="路径 39963" d="M4031.086,320.052c21.659-13.425,39.924-3.757,40.791,21.591s-15.991,56.781-37.653,70.205-39.922,3.766-40.792-21.58S4009.421,333.485,4031.086,320.052Zm2.9,84.873c18.392-11.4,32.712-38.095,31.97-59.617s-16.241-29.728-34.634-18.325-32.713,38.091-31.977,59.618,16.241,29.73,34.639,18.324" transform="translate(-3984.835 -309.218)" fill="none" stroke="#6287de" stroke-miterlimit="10" stroke-width="1"/>
          <path id="路径_39964" data-name="路径 39964" d="M4068.4,346.772c-.427-12.455-5.8-20.435-13.813-22.754.256.077.525.149.776.237,4.9,3.814,8,10.637,8.315,19.971.737,21.519-13.578,48.216-31.974,59.617-8.09,5.016-15.622,6.234-21.581,4.2,6.4,4.971,15.889,4.8,26.3-1.653C4054.823,394.988,4069.144,368.294,4068.4,346.772Z" transform="translate(-3987.278 -310.681)" fill="none" stroke="#6287de" stroke-miterlimit="10" stroke-width="1"/>
          <g id="组_21985-2" data-name="组 21985" transform="translate(34.957 31.891)">
            <path id="路径_39928-2-2" data-name="路径 39928-2" d="M4045.189,374.745l10.2-6.019.859-3.955-12.879,7.771-4.172,19.071,12.717-7.027.842-3.851-10.087,5.489.837-3.826,10.15-5.777.786-3.592-10.086,5.513Z" transform="translate(-4026.482 -348.525)" fill="#6287de"/>
            <path id="路径_39929-2-2" data-name="路径 39929-2" d="M4039.837,351.675l2.779-1.793,9.724,11.962,2.939-1.766-11.637-14.332-8.474,5.311,9.554,11.766-2.763,1.728-9.554-11.766-2.733,1.589,11.508,14.175,8.3-4.987Z" transform="translate(-4025.09 -345.746)" fill="#6287de"/>
            <path id="路径_39930-2-2" data-name="路径 39930-2" d="M4034.886,390.024l1.628,2.037,4.167-19.055-1.633-2.019Z" transform="translate(-4025.852 -349.433)" fill="#6287de"/>
            <path id="路径_39931-2" data-name="路径 39931-2" d="M4024.307,377.162l1.808,2.252,4.148-18.968-1.812-2.232Z" transform="translate(-4024.307 -347.567)" fill="#6287de"/>
            <path id="路径_39932-2" data-name="路径 39932-2" d="M4033.612,367.928l1.826,2.4.729-3.33-1.852-2.281Z" transform="translate(-4025.666 -348.517)" fill="#6287de"/>
            <path id="路径_39933-2" data-name="路径 39933-2" d="M4029.57,384.679l1.848,2.3,2.886-13.2-1.821-2.426Z" transform="translate(-4025.075 -349.487)" fill="#6287de"/>
          </g>
        </g>
        <g id="组_21988-2" data-name="组 21988-2" transform="matrix(0.921, -0.391, 0.391, 0.921, 3918.904, 170.445)">
          <path id="路径_39960-2" data-name="路径 39960-2" d="M4045.21,127.188c.021.013.044.022.064.032l-4.423-2.391-4.425-2.391c-7.393-3.995-17.435-3.084-28.334,3.672-21.66,13.426-38.52,44.865-37.653,70.206.427,12.592,5.155,21.31,12.455,25.256l8.85,4.776c-.212-.114-.412-.243-.619-.365,7.45,4.391,17.745,3.64,28.956-3.309,21.659-13.429,38.513-44.859,37.653-70.212C4057.3,139.843,4052.546,131.115,4045.21,127.188Z" transform="translate(-3970.407 -120.059)" fill="#fff" stroke="#6287de" stroke-miterlimit="10" stroke-width="1"/>
          <path id="路径_39963-2" data-name="路径 39963-2" d="M4018.124,131.711c21.659-13.426,39.923-3.757,40.79,21.591s-15.99,56.781-37.653,70.2-39.921,3.767-40.791-21.579S3996.458,145.143,4018.124,131.711Zm2.9,84.873c18.393-11.4,32.712-38.095,31.97-59.617s-16.241-29.728-34.634-18.325-32.712,38.091-31.976,59.618,16.24,29.73,34.639,18.324" transform="translate(-3971.872 -120.877)" fill="none" stroke="#6287de" stroke-miterlimit="10" stroke-width="1"/>
          <path id="路径_39964-2" data-name="路径 39964-2" d="M4055.438,158.435c-.422-12.455-5.8-20.435-13.813-22.754.256.077.525.149.776.237,4.9,3.814,8,10.637,8.316,19.971.737,21.519-13.582,48.216-31.974,59.617-8.091,5.016-15.622,6.234-21.583,4.2,6.4,4.971,15.89,4.8,26.3-1.653C4041.859,206.649,4056.179,179.954,4055.438,158.435Z" transform="translate(-3974.314 -122.341)" fill="none" stroke="#6287de" stroke-miterlimit="10" stroke-width="1"/>
          <g id="组_21987-2" data-name="组 21987-2" transform="translate(34.807 32.964)">
            <path id="路径_39934-2" data-name="路径 39934-2" d="M4032.41,186.308l10.294-5.577.814-3.752-12.993,7.2-3.958,18.095,12.839-6.5.8-3.654-10.185,5.073.794-3.631,10.247-5.347.746-3.409-10.183,5.1Z" transform="translate(-4013.417 -161.337)" fill="#6287de"/>
            <path id="路径_39935" data-name="路径 39935" d="M4026.565,164.254l2.8-1.669,10.077,11.536,2.965-1.637-12.062-13.821-8.545,4.929,9.905,11.347-2.786,1.6-9.905-11.347-2.753,1.471,11.928,13.663,8.369-4.622Z" transform="translate(-4011.912 -158.662)" fill="#6287de"/>
            <path id="路径_39936" data-name="路径 39936" d="M4022.132,200.666l1.688,1.964,3.955-18.079-1.692-1.947Z" transform="translate(-4012.769 -162.159)" fill="#6287de"/>
            <path id="路径_39937-2" data-name="路径 39937-2" d="M4011.168,188.261l1.879,2.171,3.936-18-1.879-2.152Z" transform="translate(-4011.168 -160.359)" fill="#6287de"/>
            <path id="路径_39938-2" data-name="路径 39938-2" d="M4020.46,179.6l1.9,2.306.692-3.16-1.92-2.2Z" transform="translate(-4012.525 -161.275)" fill="#6287de"/>
            <path id="路径_39939-2" data-name="路径 39939-2" d="M4016.622,195.494l1.915,2.22,2.739-12.52-1.89-2.338Z" transform="translate(-4011.965 -162.196)" fill="#6287de"/>
          </g>
        </g>
        <path id="路径_39940-2" data-name="路径 39940-2" d="M4158.556,237.554c.036-.45.061-.9.08-1.355,0-.1.014-.2.017-.3v-.067c.011-.342.011-.694.012-1.043,0-.171.006-.347,0-.522q-.01-.786-.051-1.579c-.015-.256-.032-.521-.052-.78q-.038-.5-.09-.992a.655.655,0,0,0-.009-.085c-.058-.541-.129-1.078-.21-1.611-.017-.108-.033-.216-.051-.323q-.108-.693-.243-1.378c-.01-.05-.024-.1-.034-.149-.029-.148-.064-.293-.1-.44q-.127-.589-.274-1.171c-.045-.179-.092-.357-.14-.535q-.148-.555-.315-1.1c-.049-.161-.1-.323-.146-.482-.159-.5-.325-.992-.5-1.48l-.016-.046v-.007c-.181-.492-.376-.976-.578-1.457q-.086-.2-.175-.406-.244-.562-.506-1.114c-.056-.117-.109-.235-.166-.351q-.342-.7-.709-1.378c-.047-.085-.1-.175-.147-.263-.206-.372-.417-.74-.637-1.1l-.236-.387q-.349-.567-.719-1.119c-.043-.064-.085-.129-.127-.193-.289-.427-.588-.842-.894-1.254-.081-.108-.164-.216-.247-.324q-.363-.476-.739-.939c-.085-.108-.176-.218-.267-.326-.328-.393-.662-.781-1.005-1.159-.037-.041-.076-.08-.112-.12-.312-.342-.631-.672-.954-1-.1-.105-.209-.21-.314-.313-.294-.289-.593-.573-.9-.854l-.241-.225q-.566-.512-1.154-1c-.092-.077-.187-.151-.28-.226-.187-.153-.373-.308-.564-.457-.115-.091-.235-.175-.351-.264-.152-.114-.3-.228-.457-.342-.29-.214-.584-.422-.88-.628-.143-.1-.283-.2-.427-.294q-.593-.4-1.2-.769c-.044-.027-.085-.057-.133-.085q-.612-.371-1.237-.719c-.051-.029-.1-.055-.154-.085-.085-.046-.171-.085-.251-.135q-.606-.327-1.229-.632c-.064-.032-.129-.066-.2-.1q-.68-.328-1.377-.625c-.1-.044-.206-.085-.31-.131-.132-.056-.263-.114-.4-.171-.148-.061-.3-.11-.45-.171-.341-.132-.684-.26-1.025-.383-.243-.086-.489-.17-.735-.251-.346-.114-.692-.222-1.042-.324-.145-.043-.286-.094-.427-.135-.11-.031-.224-.055-.336-.085-.307-.085-.614-.159-.923-.234-.273-.066-.546-.132-.82-.191-.312-.067-.627-.128-.938-.188-.185-.034-.366-.078-.551-.109-.094-.016-.188-.026-.282-.041-.311-.051-.623-.094-.939-.136-.283-.039-.566-.079-.854-.11-.317-.036-.636-.062-.955-.085-.207-.017-.412-.044-.62-.057-.078-.005-.157-.005-.234-.009-.349-.02-.7-.031-1.053-.042-.271-.008-.541-.02-.812-.021-.365,0-.733.007-1.1.016-.217.005-.434,0-.651.009l-.28.013c-.374.018-.747.044-1.117.074-.118.009-.235.021-.353.032-.257.023-.507.047-.759.076-.137.015-.271.032-.407.049-.235.029-.471.061-.705.095-.136.02-.271.039-.406.061l-.229.033c-.112.019-.225.042-.341.061-.232.041-.465.085-.7.127-.175.034-.351.07-.527.107-.227.048-.456.1-.683.149-.171.041-.349.085-.522.125-.227.057-.452.114-.672.171-.17.046-.341.092-.512.14-.226.064-.45.132-.672.2-.114.034-.228.066-.341.1l-.32.1-3.245,1.064c.219-.072.439-.137.66-.2s.448-.137.675-.2l.508-.139c.224-.061.449-.117.676-.171.17-.043.341-.085.519-.124.226-.053.455-.1.683-.15.175-.037.351-.072.526-.107.231-.045.463-.085.7-.127.188-.032.376-.066.566-.1l.405-.06c.235-.034.47-.066.706-.095.135-.017.271-.034.407-.05.251-.028.5-.053.758-.076l.353-.032c.371-.03.743-.055,1.117-.073.313-.016.621-.015.932-.023.367-.009.735-.019,1.1-.016.272,0,.542.015.813.022.352.011.7.02,1.053.042.286.017.57.043.854.067.319.026.638.053.955.085.285.032.568.072.854.11.313.043.626.085.939.137.279.045.556.1.833.15.315.06.63.12.939.188.274.06.547.125.819.191.31.074.617.151.924.234.256.07.512.144.768.22q.524.155,1.042.324.372.122.736.251c.342.121.683.25,1.024.382.284.11.567.219.847.336l.309.132q.7.3,1.378.625l.2.1c.414.2.824.414,1.229.632.086.045.171.085.251.134q.7.387,1.391.8c.045.027.085.057.134.085q.607.374,1.2.769c.144.1.285.2.427.294.3.2.59.413.88.628.154.114.306.228.457.342q.463.354.915.72c.094.076.188.15.28.227q.587.487,1.154,1c.085.073.161.15.241.225q.455.419.9.854c.1.1.21.208.314.313q.486.491.954,1c.037.041.076.08.112.12.342.379.679.769,1.006,1.16.085.108.177.218.266.326q.377.464.741.939c.085.108.165.215.246.324q.459.617.893,1.254c.043.063.085.129.127.193q.37.552.719,1.119c.08.129.158.259.236.388q.327.546.637,1.1c.049.085.1.171.148.263.245.453.482.912.708,1.378.058.116.11.234.166.351q.262.552.506,1.114c.059.135.119.271.171.406.2.483.4.97.581,1.464l.016.046c.179.488.346.982.5,1.48.051.16.1.321.147.482.11.365.216.732.315,1.1.047.178.1.357.141.536.1.386.188.776.272,1.167.032.148.067.295.1.443q.155.757.278,1.526c.017.108.033.216.049.324.08.534.153,1.07.21,1.611,0,.029,0,.059.007.085.061.587.109,1.177.142,1.772q.044.793.052,1.579c0,.171,0,.348,0,.522,0,.348,0,.7-.012,1.042,0,.124-.013.246-.018.37-.019.453-.044.905-.081,1.354-.015.195-.034.388-.052.582-.037.381-.079.761-.127,1.139-.025.2-.053.4-.08.6q-.086.6-.194,1.184c-.03.165-.056.331-.085.5-.107.55-.223,1.1-.355,1.638-.012.053-.028.105-.042.159q-.189.762-.411,1.511c-.051.171-.1.342-.157.512q-.185.589-.387,1.17c-.073.209-.144.418-.221.626-.045.121-.09.243-.137.365q-.192.5-.4.986c-.032.078-.062.155-.1.232q-.256.593-.526,1.175c-.046.1-.095.2-.143.3q-.2.418-.413.83l-.273.519q-.188.352-.384.7c-.095.171-.189.336-.287.5q-.207.351-.419.7c-.1.159-.2.318-.3.477-.152.239-.31.474-.468.71-.1.143-.19.289-.288.427-.141.2-.288.4-.434.6-.134.185-.267.373-.405.557s-.3.385-.451.577-.281.363-.427.541-.315.374-.475.56-.295.349-.446.521-.332.362-.5.542-.308.342-.465.5c-.17.178-.347.35-.521.523s-.319.324-.483.482-.363.337-.545.5-.329.308-.5.459c-.187.166-.379.324-.57.487-.17.145-.341.293-.512.435-.193.159-.394.311-.591.465-.176.138-.35.279-.529.413-.2.152-.41.3-.615.446-.18.129-.357.262-.54.388-.209.145-.427.282-.636.422-.185.122-.367.248-.555.366-.216.137-.438.266-.658.4-.188.114-.375.231-.566.342-.228.132-.462.256-.693.383-.187.1-.373.209-.562.308-.239.126-.482.242-.724.361-.189.093-.374.19-.564.28-.256.123-.523.236-.785.352-.177.079-.352.162-.531.237-.289.123-.584.236-.878.351-.157.061-.311.127-.469.187q-.621.232-1.254.441c-.04.013-.079.028-.119.041h0l3.245-1.063q.694-.228,1.374-.483c.149-.056.295-.118.443-.176.3-.118.6-.235.9-.36.176-.074.348-.156.522-.234.266-.117.532-.232.794-.356.185-.085.365-.182.547-.272.248-.122.5-.241.741-.369.185-.1.366-.2.55-.3.235-.129.474-.256.706-.389.188-.108.371-.224.556-.336.223-.134.448-.266.667-.4.186-.117.366-.241.549-.361.214-.142.427-.281.643-.427.181-.126.358-.256.536-.385.207-.149.416-.295.619-.448.179-.134.353-.275.529-.413.2-.155.4-.307.591-.465.17-.143.341-.29.512-.435.19-.161.383-.321.57-.487.17-.149.331-.3.5-.457.183-.171.367-.335.546-.507.163-.156.32-.318.479-.477.176-.171.354-.348.525-.527s.31-.332.463-.5c.171-.181.337-.36.5-.545s.3-.347.446-.52.32-.371.476-.562.285-.359.427-.539.3-.383.452-.579.271-.371.405-.557c.12-.166.245-.329.361-.5.024-.035.047-.072.071-.107.1-.142.193-.287.29-.427.158-.235.315-.471.468-.71.1-.158.2-.318.3-.477.142-.231.282-.462.419-.7q.146-.251.288-.5.2-.347.384-.7c.092-.171.183-.342.272-.519.053-.1.108-.2.161-.307.085-.171.171-.348.256-.523.047-.1.1-.2.143-.3.182-.388.359-.78.527-1.175.033-.077.063-.155.1-.231q.205-.491.4-.987c.047-.121.093-.243.138-.365.039-.106.08-.21.119-.316s.066-.207.1-.309q.2-.582.386-1.171c.053-.171.107-.342.158-.512q.222-.749.411-1.511c.012-.045.026-.09.038-.135l0-.024q.2-.812.354-1.638c.031-.164.058-.33.085-.5.07-.393.135-.786.193-1.184.014-.091.031-.179.044-.27.015-.108.022-.219.036-.327q.073-.567.126-1.139C4158.521,237.94,4158.541,237.747,4158.556,237.554Z" transform="translate(-27.932 -11.47)" fill="none" stroke="#0080f4" stroke-miterlimit="10" stroke-width="1"/>
        <g id="组_21989" data-name="组 21989" transform="translate(4046.963 178.85)">
          <ellipse id="椭圆_2019" data-name="椭圆 2019" cx="35.539" cy="35.899" rx="35.539" ry="35.899" transform="matrix(0.95, -0.312, 0.312, 0.95, 0, 22.159)" fill="none" stroke="#0080f4" stroke-miterlimit="10" stroke-width="1"/>
        </g>
        <g id="组_21990" data-name="组 21990" transform="translate(4072.653 202.667)">
          <path id="路径_39941-2" data-name="路径 39941-2" d="M4128.843,244.3l12.752-7.948-.008-3.99-16.045,10.2v19.249l16.045-9.449v-3.891l-12.753,7.412v-3.862l12.753-7.7v-3.626l-12.743,7.436Z" transform="translate(-4103.055 -219.071)" fill="#0080f4"/>
          <path id="路径_39942-2" data-name="路径 39942-2" d="M4112.944,223.318l3.423-2.317,17.71,9.474,3.664-2.321-21.2-11.357-10.493,6.9,17.405,9.322-3.422,2.246-17.4-9.321-3.416,2.1,20.963,11.227,10.345-6.552Z" transform="translate(-4099.209 -216.797)" fill="#0080f4"/>
          <path id="路径_39943-2" data-name="路径 39943-2" d="M4118.433,261.656l2.977,1.622V244.043l-2.977-1.6Z" transform="translate(-4102.017 -220.543)" fill="#0080f4"/>
          <path id="路径_39944-2" data-name="路径 39944-2" d="M4099.209,251.5l3.3,1.788V234.14l-3.3-1.768Z" transform="translate(-4099.209 -219.072)" fill="#0080f4"/>
          <path id="路径_39945-2" data-name="路径 39945-2" d="M4108.822,240.766l3.374,1.924v-3.364l-3.374-1.808Z" transform="translate(-4100.613 -219.824)" fill="#0080f4"/>
          <path id="路径_39946" data-name="路径 39946" d="M4108.822,257.672l3.374,1.827V246.178l-3.374-1.951Z" transform="translate(-4100.613 -220.804)" fill="#0080f4"/>
        </g>
        <g id="组_22004" data-name="组 22004" transform="translate(4082.102 303.695)">
          <path id="路径_39955-2" data-name="路径 39955-2" d="M4145.562,354.3c.015-.178.024-.356.031-.535,0-.04.005-.079.007-.12v-.026c0-.137,0-.274,0-.412v-.206q0-.31-.02-.623c-.006-.1-.013-.206-.021-.307-.01-.131-.022-.261-.036-.391v-.035c-.023-.214-.051-.427-.085-.636-.007-.043-.013-.085-.02-.127-.029-.182-.061-.364-.1-.544a.286.286,0,0,0-.014-.059c-.012-.058-.026-.115-.038-.171-.034-.155-.069-.309-.108-.462-.018-.071-.037-.141-.056-.211-.039-.146-.081-.29-.125-.435-.019-.064-.038-.127-.057-.19-.062-.2-.128-.391-.2-.584l-.006-.018h0c-.072-.194-.148-.385-.228-.575-.022-.054-.046-.107-.069-.161-.065-.148-.131-.295-.2-.44-.022-.046-.043-.092-.065-.138-.089-.184-.183-.365-.28-.544-.019-.035-.039-.069-.058-.1q-.122-.22-.251-.436l-.093-.153q-.137-.224-.283-.441l-.051-.076c-.113-.171-.231-.332-.353-.494l-.1-.128c-.1-.126-.193-.249-.292-.371l-.1-.129c-.129-.155-.261-.308-.4-.457l-.044-.048q-.185-.2-.376-.395l-.124-.124c-.113-.114-.232-.226-.353-.336l-.1-.085q-.223-.2-.455-.395a1.388,1.388,0,0,0-.11-.085c-.074-.061-.147-.121-.223-.18-.046-.036-.093-.069-.139-.1l-.18-.135c-.114-.085-.23-.167-.347-.248-.057-.038-.111-.079-.171-.116-.157-.1-.313-.206-.474-.3l-.053-.033c-.161-.1-.323-.192-.487-.284l-.062-.032-.1-.053c-.161-.086-.322-.169-.485-.249l-.077-.038c-.179-.085-.36-.171-.543-.247l-.122-.051-.156-.066c-.06-.024-.119-.044-.178-.067-.134-.052-.269-.1-.4-.151-.1-.034-.192-.067-.29-.1-.137-.045-.273-.088-.411-.128-.057-.017-.113-.037-.171-.053s-.085-.021-.133-.033c-.121-.032-.243-.062-.365-.092s-.215-.052-.323-.075-.248-.05-.373-.074c-.073-.014-.144-.031-.217-.044l-.111-.016c-.123-.021-.246-.037-.369-.054s-.223-.031-.335-.044-.25-.025-.376-.035c-.085-.007-.163-.017-.245-.022h-.092c-.137-.008-.276-.012-.416-.016-.107,0-.213-.008-.32-.009-.144,0-.289,0-.435.006h-.256l-.111.005c-.147.007-.295.018-.44.029l-.14.013c-.1.009-.2.019-.3.03l-.16.019c-.093.011-.186.024-.278.038l-.161.024-.09.013-.133.024c-.091.016-.184.032-.275.05l-.208.042-.269.059-.206.05c-.085.022-.178.044-.266.068l-.2.056c-.085.026-.178.052-.266.079l-.134.04-.127.041-1.281.42c.085-.028.171-.054.256-.08s.177-.054.267-.079l.2-.055c.089-.024.178-.047.267-.068l.205-.049c.085-.021.179-.04.269-.059l.207-.042c.092-.018.183-.034.275-.05l.223-.038.161-.024c.093-.014.186-.026.278-.038l.161-.02c.1-.011.2-.021.3-.03l.139-.013c.146-.012.293-.022.44-.029.123-.007.245-.006.367-.009.146,0,.291-.008.434-.007.108,0,.214.006.32.009.139,0,.277.008.416.016.113.007.225.017.337.026s.251.021.376.035.224.028.337.044.247.033.369.054.219.038.329.059c.125.024.249.048.373.074.108.024.216.049.323.075.123.029.244.06.365.092.1.027.2.057.3.085q.207.061.411.128c.1.032.194.065.29.1.136.048.27.1.4.15.112.044.224.085.334.132l.123.052q.275.118.542.247l.078.038q.245.12.485.249l.1.053c.186.1.369.207.55.317l.053.033c.16.1.318.2.473.3l.17.116c.117.081.233.163.348.248.061.044.122.085.18.135q.183.14.361.284l.11.085c.156.128.307.26.456.395.032.029.063.059.094.085.121.11.239.223.354.336l.124.124q.192.193.376.395l.045.048c.135.149.268.3.4.458l.106.129c.1.122.2.245.292.371l.1.128q.181.243.353.494c.017.025.033.051.05.076.1.145.191.292.284.441l.093.153q.13.215.251.436c.019.035.039.069.058.1.1.178.19.36.28.544.021.046.043.092.065.138.069.145.135.292.2.44.023.053.046.107.069.161.08.19.159.383.23.577l.006.018c.071.192.137.388.2.584.02.063.039.126.059.19.043.144.084.289.125.435.019.07.038.141.056.212.037.152.073.307.107.46.012.058.026.116.038.171q.062.3.109.6c.007.043.013.085.02.128.031.211.06.422.085.636v.035q.037.347.056.7c.012.208.018.416.02.623v.206c0,.137,0,.275,0,.411,0,.049,0,.1-.007.146-.007.179-.018.357-.031.535-.006.077-.014.153-.021.23-.015.15-.032.3-.05.449-.011.079-.021.157-.032.235-.023.156-.048.313-.076.467-.012.065-.022.131-.035.2-.042.217-.085.433-.14.646l-.017.062q-.075.3-.162.6c-.02.067-.041.134-.062.2-.048.155-.1.309-.152.462-.029.085-.058.165-.085.247l-.054.143c-.049.131-.1.26-.156.389-.013.031-.024.061-.038.091-.066.156-.135.311-.208.464-.018.039-.038.078-.056.117-.053.11-.107.219-.163.327q-.053.1-.107.2c-.05.093-.1.184-.151.276-.038.067-.075.132-.114.2-.054.092-.109.184-.166.275-.038.062-.077.126-.117.188-.06.094-.123.187-.184.28l-.114.171c-.056.08-.113.159-.17.238s-.106.147-.16.219-.118.152-.178.228-.111.143-.171.214l-.187.221c-.062.073-.116.137-.176.206s-.131.143-.2.214-.122.133-.184.2-.136.138-.206.207-.125.128-.19.19-.143.133-.214.2-.13.121-.2.181-.149.128-.225.192-.134.115-.2.171-.155.123-.233.184-.139.11-.208.163-.162.118-.243.176-.141.1-.212.153-.171.111-.251.167-.146.1-.22.144-.17.105-.256.157-.147.091-.224.135-.182.1-.273.151c-.073.04-.146.085-.222.121-.095.05-.19.1-.286.143-.074.037-.147.075-.223.11-.1.049-.206.093-.31.139-.07.031-.139.064-.209.094-.115.049-.23.093-.347.138-.062.024-.123.05-.186.073-.163.061-.329.118-.5.171l-.047.016h0l1.281-.419c.182-.06.363-.123.542-.19.059-.022.116-.046.17-.069.12-.046.239-.093.356-.143.069-.029.138-.061.206-.092.1-.046.21-.091.313-.141.073-.034.144-.072.216-.108.1-.048.2-.095.292-.145.074-.038.145-.079.217-.12.093-.051.188-.1.279-.154.074-.043.146-.085.219-.132s.177-.105.263-.16.144-.095.216-.143.171-.111.256-.171.141-.1.211-.152.165-.116.245-.177.139-.108.208-.163.157-.121.233-.184.135-.114.2-.171.151-.126.225-.192.131-.12.2-.18.145-.132.215-.2.125-.126.188-.189.14-.137.208-.207.122-.131.184-.2.133-.143.2-.215.117-.137.177-.2.125-.147.187-.222.114-.142.171-.213.12-.151.178-.229.107-.146.161-.219.1-.13.143-.2l.028-.042c.04-.056.076-.114.115-.171.062-.093.125-.185.184-.28.04-.062.079-.126.117-.188.056-.091.112-.182.166-.274l.114-.2c.051-.091.1-.183.152-.276l.108-.2c.02-.04.042-.08.063-.121.034-.068.066-.137.1-.207.018-.039.038-.078.056-.117q.108-.229.208-.464l.038-.091c.054-.129.106-.259.156-.389l.055-.143c.015-.042.032-.085.047-.125s.026-.085.04-.122c.054-.153.1-.307.153-.462.021-.067.043-.134.063-.2q.086-.3.162-.6c0-.018.01-.035.015-.053v-.009c.052-.214.1-.427.14-.646.012-.065.023-.131.035-.2.027-.155.054-.31.076-.467,0-.036.013-.071.018-.107s.008-.085.014-.129c.02-.149.036-.3.051-.449C4145.548,354.456,4145.555,354.38,4145.562,354.3Z" transform="translate(-4112.552 -335.667)" fill="none" stroke="#0080f4" stroke-miterlimit="10" stroke-width="0.5" opacity="0.26"/>
          <g id="组_22002" data-name="组 22002" opacity="0.26">
            <ellipse id="椭圆_2020" data-name="椭圆 2020" cx="14.022" cy="14.164" rx="14.022" ry="14.164" transform="matrix(0.95, -0.312, 0.312, 0.95, 0, 8.743)" fill="#fff" stroke="#0080f4" stroke-miterlimit="10" stroke-width="0.5"/>
          </g>
          <g id="组_22003" data-name="组 22003" transform="translate(10.133 9.4)" opacity="0.39">
            <path id="路径_39956-2" data-name="路径 39956-2" d="M4133.839,356.964l5.031-3.136v-1.575l-6.331,4.023v7.595l6.331-3.728v-1.537l-5.032,2.925v-1.524l5.032-3.039v-1.431l-5.028,2.934Z" transform="translate(-4123.66 -347.011)" fill="#0080f4"/>
            <path id="路径_39957-2" data-name="路径 39957-2" d="M4127.564,348.685l1.351-.914,6.987,3.738,1.446-.915-8.369-4.48-4.141,2.723,6.867,3.678-1.35.886-6.868-3.678-1.348.831,8.271,4.429,4.082-2.585Z" transform="translate(-4122.141 -346.114)" fill="#0080f4"/>
            <path id="路径_39958-2" data-name="路径 39958-2" d="M4129.731,363.811l1.174.639v-7.589l-1.174-.632Z" transform="translate(-4123.25 -347.591)" fill="#0080f4"/>
            <path id="路径_39959-2" data-name="路径 39959-2" d="M4122.145,359.8l1.3.705v-7.554l-1.3-.7Z" transform="translate(-4122.142 -347.011)" fill="#0080f4"/>
            <path id="路径_39960-3" data-name="路径 39960-3" d="M4125.939,355.568l1.331.759V355l-1.331-.713Z" transform="translate(-4122.696 -347.308)" fill="#0080f4"/>
            <path id="路径_39961" data-name="路径 39961" d="M4125.939,362.238l1.331.721V357.7l-1.331-.769Z" transform="translate(-4122.696 -347.694)" fill="#0080f4"/>
          </g>
        </g>
      </g>
      <g id="组_22001" data-name="组 22001" transform="translate(-3497.398 2747.941)">
        <path id="路径_39947" data-name="路径 39947" d="M4401.677,420.437A15.481,15.481,0,0,1,4408.7,432.6l-.185,65.476c-.014,4.468-3.177,6.272-7.069,4.025l-133.889-76.848a15.468,15.468,0,0,1-7.023-12.159l.186-65.476c.013-4.469,3.177-6.274,7.068-4.028Z" transform="translate(0.365 -0.064)" fill="#fff" stroke="#0080f4" stroke-width="2" stroke-dasharray="4" opacity="0.5"/>
        <g id="组_22000" data-name="组 22000" transform="translate(9.632 5.57)">
          <g id="组_21999" data-name="组 21999">
            <g id="组_21992-2" data-name="组 21992-2">
              <path id="路径_39948" data-name="路径 39948" d="M4319.793,435.574a2.521,2.521,0,0,0,.579,1.488A2.521,2.521,0,0,1,4319.793,435.574Z" fill="url(#linear-gradient)"/>
            </g>
            <g id="组_21993-2" data-name="组 21993-2">
              <path id="路径_39949" data-name="路径 39949" d="M4324.321,436.564a2.019,2.019,0,0,0-.461-1.186A2.019,2.019,0,0,1,4324.321,436.564Z" fill="url(#linear-gradient-2)"/>
            </g>
            <g id="组_21994" data-name="组 21994">
              <path id="路径_39950" data-name="路径 39950" d="M4310.591,392.86a2.156,2.156,0,0,1,.581.514A2.156,2.156,0,0,0,4310.591,392.86Z" fill="url(#linear-gradient-3)"/>
            </g>
            <g id="组_21995" data-name="组 21995">
              <path id="路径_39951" data-name="路径 39951" d="M4339.221,440.253a1.017,1.017,0,0,1-.581-.156A1.017,1.017,0,0,0,4339.221,440.253Z" fill="url(#linear-gradient-4)"/>
            </g>
            <g id="组_21996" data-name="组 21996">
              <path id="路径_39952" data-name="路径 39952" d="M4329.051,397.723a.12.12,0,0,0-.074-.019A.12.12,0,0,1,4329.051,397.723Z" fill="url(#linear-gradient-5)"/>
            </g>
            <g id="组_21997" data-name="组 21997">
              <path id="路径_39953-2" data-name="路径 39953-2" d="M4339.275,421.48l-.1,6.816,3.674,4.562a2.529,2.529,0,0,1,.579,1.492l-.013,4.774c0,.476-.227.789-.587.82l-3.6.309a1.014,1.014,0,0,1-.582-.156,2.12,2.12,0,0,1-.581-.515l-3.541-4.394-5.323.429a2.1,2.1,0,0,1,.125.676l-.013,4.773c0,.475-.225.79-.585.822l-3.6.309a1.01,1.01,0,0,1-.581-.156,2.128,2.128,0,0,1-.581-.515l-3.59-4.464a2.524,2.524,0,0,1-.578-1.492l.015-4.773a.886.886,0,0,1,.25-.682l-5.2-6.455a.632.632,0,0,1-.166.038l-3.6.31a1.012,1.012,0,0,1-.582-.158,2.128,2.128,0,0,1-.581-.513l-3.591-4.464a2.52,2.52,0,0,1-.577-1.492l.013-4.774c0-.475.226-.79.585-.82l3.6-.31a.694.694,0,0,1,.129,0l.02-6.767c-.044-.045-.087-.1-.129-.148l-3.591-4.464a2.526,2.526,0,0,1-.579-1.492l.014-4.773c0-.476.226-.791.584-.821l3.6-.31a1.013,1.013,0,0,1,.582.157,2.16,2.16,0,0,1,.581.514l3.591,4.464,5.14-.416.014-4.8c0-.476.225-.792.584-.821l3.6-.31a1.011,1.011,0,0,1,.582.156,2.163,2.163,0,0,1,.581.514l3.591,4.464a2.518,2.518,0,0,1,.577,1.492l-.013,4.772a1.389,1.389,0,0,1-.01.159l5.015,6.226a.65.65,0,0,1,.115-.022l3.6-.31a1.009,1.009,0,0,1,.583.158,2.128,2.128,0,0,1,.581.513l3.591,4.464a2.538,2.538,0,0,1,.579,1.493l-.014,4.773c0,.476-.226.789-.585.821Zm-18.938-22.786-5.01.425a1.689,1.689,0,0,1,.014.211l-.014,4.774c0,.476-.225.789-.584.82l-3.6.31h-.047l-.019,6.857c.016.018.032.037.045.055l3.143,3.908,5.6-.49a.813.813,0,0,1,0-.129l.013-4.773c0-.477.224-.791.584-.822l3.6-.309a.559.559,0,0,1,.058,0l.018-6.109-.059-.069-3.59-4.464a1.872,1.872,0,0,1-.144-.2m13.624,11.316-5.077-6.3a.37.37,0,0,1-.046.006l-3.6.31a1.156,1.156,0,0,1-.118,0l-.017,6.044c.04.043.078.087.117.135l3.592,4.463a2.541,2.541,0,0,1,.577,1.494l-.012,4.713,5.72,7.107,3-.259a.709.709,0,0,1,.092,0l.019-6.806c-.031-.035-.063-.07-.091-.107l-3.6-4.46a2.523,2.523,0,0,1-.579-1.492l.013-4.773v-.069m-5.554,24.364,5.511-.442a1.732,1.732,0,0,1-.027-.305l.013-4.773a.882.882,0,0,1,.263-.692l-5.187-6.456a.584.584,0,0,1-.193.049l-3.6.31a1.02,1.02,0,0,1-.581-.157,2.163,2.163,0,0,1-.581-.514l-3.591-4.464c-.026-.032-.052-.067-.077-.1l-5.248.447a2.154,2.154,0,0,1,.184.83l-.014,4.763,5.693,7.058,3.03-.26a1.01,1.01,0,0,1,.581.157,2.105,2.105,0,0,1,.582.514l3.248,4.036m6.25-24.814c-.048,0-.077.043-.077.106a.315.315,0,0,0,.075.193l3.591,4.464a1.708,1.708,0,0,0,.463.4.837.837,0,0,0,.464.131l3.6-.31c.048,0,.076-.043.076-.107a.324.324,0,0,0-.075-.193l-3.59-4.464a1.758,1.758,0,0,0-.463-.409.806.806,0,0,0-.463-.126l-3.6.31m-28.137-16.24c-.047,0-.075.042-.075.105a.309.309,0,0,0,.075.194l3.591,4.463a1.686,1.686,0,0,0,.463.4.814.814,0,0,0,.463.131l3.6-.31c.048,0,.076-.043.076-.107a.315.315,0,0,0-.075-.192l-3.59-4.464a1.705,1.705,0,0,0-.463-.41.8.8,0,0,0-.464-.125l-3.6.31m14.1-1.21c-.049,0-.075.043-.076.107a.311.311,0,0,0,.074.193l3.592,4.463a1.675,1.675,0,0,0,.462.4.826.826,0,0,0,.463.13l3.6-.309c.049,0,.075-.043.075-.107a.318.318,0,0,0-.075-.193l-3.59-4.464a1.714,1.714,0,0,0-.462-.409.816.816,0,0,0-.463-.125l-3.6.31m3.481,42.938a1.7,1.7,0,0,0,.462.4.843.843,0,0,0,.462.132l3.6-.31c.05,0,.076-.043.076-.107a.317.317,0,0,0-.075-.194l-3.59-4.463a1.707,1.707,0,0,0-.462-.409.821.821,0,0,0-.462-.126l-3.6.31c-.048,0-.074.042-.075.106a.318.318,0,0,0,.075.193l3.591,4.464m-14.041-18.191a1.672,1.672,0,0,0,.462.4.819.819,0,0,0,.463.131l3.6-.31c.049,0,.075-.043.075-.107a.309.309,0,0,0-.074-.193l-3.519-4.374-.008,2.557a.137.137,0,0,1-.129.146h-.015a.628.628,0,0,1-.349-.1,1.27,1.27,0,0,1-.35-.3.551.551,0,0,1-.145-.317l.008-2.609-3.615.311c-.048,0-.075.041-.077.105a.316.316,0,0,0,.076.193l3.59,4.464m14.1-1.944a1.666,1.666,0,0,0,.462.4.824.824,0,0,0,.463.131l3.6-.31c.048,0,.075-.042.075-.1a.328.328,0,0,0-.074-.194l-3.59-4.462-.006,2.452a.141.141,0,0,1-.134.148h-.011a.642.642,0,0,1-.348-.105,1.264,1.264,0,0,1-.348-.3.552.552,0,0,1-.146-.319l.007-2.41-3.544.3c-.048,0-.075.044-.076.106a.313.313,0,0,0,.075.193l3.591,4.464M4342.725,433l-3.555-4.421-.008,2.582a.14.14,0,0,1-.134.147h-.01a.648.648,0,0,1-.349-.106,1.308,1.308,0,0,1-.349-.3.549.549,0,0,1-.144-.318l.007-2.583-3.578.307c-.047,0-.076.042-.076.106a.321.321,0,0,0,.075.193l3.59,4.464a1.724,1.724,0,0,0,.463.4.82.82,0,0,0,.464.13l3.6-.309c.047,0,.075-.043.075-.106a.317.317,0,0,0-.074-.193M4328.97,397.67l-3.6.31c-.286.025-.465.275-.467.653l-.013,4.774a.335.335,0,0,0,.152.261.12.12,0,0,0,.074.018l3.533-.3-1.669-2.074a.5.5,0,0,1-.1-.321.462.462,0,0,1,.351-.493.272.272,0,0,1,.155.035.375.375,0,0,1,.09.078l1.713,2.126.014-4.786a.334.334,0,0,0-.151-.261.12.12,0,0,0-.074-.019m-8.822-4.942-.012,4.64,1.772-.151a.16.16,0,0,1,.09.027.594.594,0,0,1,.156.144,1.691,1.691,0,0,1,.347.9c0,.128-.041.2-.1.2l-1.837.156.037.049,3.59,4.462a.254.254,0,0,0,.075.067c.061.035.151.032.151-.086l.014-4.773a2.006,2.006,0,0,0-.461-1.189l-3.59-4.464a.265.265,0,0,0-.074-.067c-.061-.036-.153-.033-.153.087m6.889,26.53a.516.516,0,0,1-.1-.323.466.466,0,0,1,.35-.493.261.261,0,0,1,.155.036.319.319,0,0,1,.092.08l1.6,1.988.013-4.555a.34.34,0,0,0-.15-.262.136.136,0,0,0-.075-.02l-3.6.31c-.285.026-.465.275-.466.654l-.013,4.774a.337.337,0,0,0,.15.262.115.115,0,0,0,.074.017l3.6-.309a.478.478,0,0,0,.093-.018l-1.721-2.141m-4.9-3.735a1.69,1.69,0,0,1,.346.9c0,.128-.039.2-.1.2l-1.8.154,3.554,4.417a.248.248,0,0,0,.074.066c.062.036.152.033.152-.086l.014-4.773a2.006,2.006,0,0,0-.461-1.189l-3.591-4.463a.3.3,0,0,0-.075-.067c-.061-.035-.152-.032-.152.087l-.013,4.744,1.8-.158a.169.169,0,0,1,.091.026.619.619,0,0,1,.155.143m6.94,25.373.013-4.773a.335.335,0,0,0-.151-.261.136.136,0,0,0-.074-.019l-3.6.31c-.287.025-.464.275-.466.655l-.013,4.772a.334.334,0,0,0,.151.261.12.12,0,0,0,.074.019l3.6-.31c.286-.025.465-.275.466-.654m-18.809-17.78.013-4.773a2.008,2.008,0,0,0-.46-1.189l-3.59-4.464a.293.293,0,0,0-.075-.066c-.062-.036-.151-.033-.151.086l-.013,4.773a2,2,0,0,0,.459,1.187l3.591,4.464a.267.267,0,0,0,.075.067c.06.036.151.033.153-.086m-.175-18.755a.27.27,0,0,0,.075.067c.061.035.153.032.153-.087l.012-4.772a2.007,2.007,0,0,0-.46-1.189l-3.592-4.464a.249.249,0,0,0-.073-.067c-.062-.036-.152-.032-.152.087l-.014,4.774a2.013,2.013,0,0,0,.461,1.187l3.59,4.464m14.215,36.944,0-4.746a2.015,2.015,0,0,0-.461-1.188l-3.591-4.464a.28.28,0,0,0-.074-.067c-.061-.036-.152-.031-.152.087l-.013,4.772a2,2,0,0,0,.46,1.19l3.591,4.463a.271.271,0,0,0,.073.067c.062.035.153.032.153-.086m9.887-31.125-.014,4.774a2,2,0,0,0,.459,1.187l3.591,4.464a.266.266,0,0,0,.076.067c.061.035.152.032.152-.087l.013-4.773a2,2,0,0,0-.46-1.188l-3.59-4.464a.3.3,0,0,0-.075-.067c-.062-.035-.151-.031-.151.087m4.21,29.18.014-4.773a2.014,2.014,0,0,0-.46-1.188l-3.591-4.464a.263.263,0,0,0-.075-.067c-.061-.036-.151-.032-.152.087l-.013,4.773a1.187,1.187,0,0,0,.007.15l1.915-.154a.155.155,0,0,1,.091.026.566.566,0,0,1,.154.143,1.668,1.668,0,0,1,.348.9c0,.129-.041.2-.1.2l-1.776.144,3.416,4.245a.243.243,0,0,0,.076.067c.061.036.151.033.151-.086m4.557-5.464-3.6.31c-.285.025-.464.276-.464.654l-.014,4.773a.329.329,0,0,0,.152.262.115.115,0,0,0,.074.02l3.6-.311c.287-.024.465-.274.466-.654l.014-4.773a.334.334,0,0,0-.151-.261.129.129,0,0,0-.074-.02m-28.085-35.019-3.6.31c-.286.024-.465.275-.467.654l-.013,4.773a.334.334,0,0,0,.151.261.119.119,0,0,0,.076.02l3.6-.31c.286-.024.464-.275.465-.654l.014-4.773a.334.334,0,0,0-.151-.261.116.116,0,0,0-.075-.02m24.28,22.264,3.6-.311c.285-.025.463-.275.464-.654l.014-4.773a.337.337,0,0,0-.15-.262.147.147,0,0,0-.075-.02l-3.6.311c-.287.024-.465.275-.466.654l-.013,4.772a.337.337,0,0,0,.151.262.135.135,0,0,0,.075.02m-24.121,1.4.013-4.609a.331.331,0,0,0-.15-.261.136.136,0,0,0-.074-.019l-3.6.31c-.286.025-.464.276-.465.654l-.014,4.772a.335.335,0,0,0,.152.262.121.121,0,0,0,.075.02l3.6-.31a.38.38,0,0,0,.059-.011l-1.792-2.223a.519.519,0,0,1-.1-.321.466.466,0,0,1,.351-.493.262.262,0,0,1,.155.035.3.3,0,0,1,.092.079l1.705,2.115" fill="#ef54a1"/>
            </g>
            <g id="组_21998" data-name="组 21998">
              <path id="路径_39954-2" data-name="路径 39954-2" d="M4320.305,392.676c-.061-.036-.153-.033-.153.087C4320.152,392.646,4320.244,392.64,4320.305,392.676Z" fill="url(#linear-gradient-6)"/>
            </g>
          </g>
        </g>
      </g>
      <g id="组_22001-2" data-name="组 22001" transform="translate(-3497.398 2859.941)" opacity="0.2">
        <path id="路径_39947-2" data-name="路径 39947" d="M4401.677,420.437A15.481,15.481,0,0,1,4408.7,432.6l-.185,65.476c-.014,4.468-3.177,6.272-7.069,4.025l-133.889-76.848a15.468,15.468,0,0,1-7.023-12.159l.186-65.476c.013-4.469,3.177-6.274,7.068-4.028Z" transform="translate(0.365 -0.064)" fill="#fff" stroke="#0080f4" stroke-width="2" stroke-dasharray="4" opacity="0.5"/>
        <g id="组_22000-2" data-name="组 22000" transform="translate(9.632 5.57)">
          <g id="组_21999-2" data-name="组 21999">
            <g id="组_21992-2-2" data-name="组 21992-2">
              <path id="路径_39948-2" data-name="路径 39948" d="M4319.793,435.574a2.521,2.521,0,0,0,.579,1.488A2.521,2.521,0,0,1,4319.793,435.574Z" fill="url(#linear-gradient)"/>
            </g>
            <g id="组_21993-2-2" data-name="组 21993-2">
              <path id="路径_39949-2" data-name="路径 39949" d="M4324.321,436.564a2.019,2.019,0,0,0-.461-1.186A2.019,2.019,0,0,1,4324.321,436.564Z" fill="url(#linear-gradient-2)"/>
            </g>
            <g id="组_21994-2" data-name="组 21994">
              <path id="路径_39950-2" data-name="路径 39950" d="M4310.591,392.86a2.156,2.156,0,0,1,.581.514A2.156,2.156,0,0,0,4310.591,392.86Z" fill="url(#linear-gradient-3)"/>
            </g>
            <g id="组_21995-2" data-name="组 21995">
              <path id="路径_39951-2" data-name="路径 39951" d="M4339.221,440.253a1.017,1.017,0,0,1-.581-.156A1.017,1.017,0,0,0,4339.221,440.253Z" fill="url(#linear-gradient-4)"/>
            </g>
            <g id="组_21996-2" data-name="组 21996">
              <path id="路径_39952-2" data-name="路径 39952" d="M4329.051,397.723a.12.12,0,0,0-.074-.019A.12.12,0,0,1,4329.051,397.723Z" fill="url(#linear-gradient-5)"/>
            </g>
            <g id="组_21997-2" data-name="组 21997">
              <path id="路径_39953-2-2" data-name="路径 39953-2" d="M4339.275,421.48l-.1,6.816,3.674,4.562a2.529,2.529,0,0,1,.579,1.492l-.013,4.774c0,.476-.227.789-.587.82l-3.6.309a1.014,1.014,0,0,1-.582-.156,2.12,2.12,0,0,1-.581-.515l-3.541-4.394-5.323.429a2.1,2.1,0,0,1,.125.676l-.013,4.773c0,.475-.225.79-.585.822l-3.6.309a1.01,1.01,0,0,1-.581-.156,2.128,2.128,0,0,1-.581-.515l-3.59-4.464a2.524,2.524,0,0,1-.578-1.492l.015-4.773a.886.886,0,0,1,.25-.682l-5.2-6.455a.632.632,0,0,1-.166.038l-3.6.31a1.012,1.012,0,0,1-.582-.158,2.128,2.128,0,0,1-.581-.513l-3.591-4.464a2.52,2.52,0,0,1-.577-1.492l.013-4.774c0-.475.226-.79.585-.82l3.6-.31a.694.694,0,0,1,.129,0l.02-6.767c-.044-.045-.087-.1-.129-.148l-3.591-4.464a2.526,2.526,0,0,1-.579-1.492l.014-4.773c0-.476.226-.791.584-.821l3.6-.31a1.013,1.013,0,0,1,.582.157,2.16,2.16,0,0,1,.581.514l3.591,4.464,5.14-.416.014-4.8c0-.476.225-.792.584-.821l3.6-.31a1.011,1.011,0,0,1,.582.156,2.163,2.163,0,0,1,.581.514l3.591,4.464a2.518,2.518,0,0,1,.577,1.492l-.013,4.772a1.389,1.389,0,0,1-.01.159l5.015,6.226a.65.65,0,0,1,.115-.022l3.6-.31a1.009,1.009,0,0,1,.583.158,2.128,2.128,0,0,1,.581.513l3.591,4.464a2.538,2.538,0,0,1,.579,1.493l-.014,4.773c0,.476-.226.789-.585.821Zm-18.938-22.786-5.01.425a1.689,1.689,0,0,1,.014.211l-.014,4.774c0,.476-.225.789-.584.82l-3.6.31h-.047l-.019,6.857c.016.018.032.037.045.055l3.143,3.908,5.6-.49a.813.813,0,0,1,0-.129l.013-4.773c0-.477.224-.791.584-.822l3.6-.309a.559.559,0,0,1,.058,0l.018-6.109-.059-.069-3.59-4.464a1.872,1.872,0,0,1-.144-.2m13.624,11.316-5.077-6.3a.37.37,0,0,1-.046.006l-3.6.31a1.156,1.156,0,0,1-.118,0l-.017,6.044c.04.043.078.087.117.135l3.592,4.463a2.541,2.541,0,0,1,.577,1.494l-.012,4.713,5.72,7.107,3-.259a.709.709,0,0,1,.092,0l.019-6.806c-.031-.035-.063-.07-.091-.107l-3.6-4.46a2.523,2.523,0,0,1-.579-1.492l.013-4.773v-.069m-5.554,24.364,5.511-.442a1.732,1.732,0,0,1-.027-.305l.013-4.773a.882.882,0,0,1,.263-.692l-5.187-6.456a.584.584,0,0,1-.193.049l-3.6.31a1.02,1.02,0,0,1-.581-.157,2.163,2.163,0,0,1-.581-.514l-3.591-4.464c-.026-.032-.052-.067-.077-.1l-5.248.447a2.154,2.154,0,0,1,.184.83l-.014,4.763,5.693,7.058,3.03-.26a1.01,1.01,0,0,1,.581.157,2.105,2.105,0,0,1,.582.514l3.248,4.036m6.25-24.814c-.048,0-.077.043-.077.106a.315.315,0,0,0,.075.193l3.591,4.464a1.708,1.708,0,0,0,.463.4.837.837,0,0,0,.464.131l3.6-.31c.048,0,.076-.043.076-.107a.324.324,0,0,0-.075-.193l-3.59-4.464a1.758,1.758,0,0,0-.463-.409.806.806,0,0,0-.463-.126l-3.6.31m-28.137-16.24c-.047,0-.075.042-.075.105a.309.309,0,0,0,.075.194l3.591,4.463a1.686,1.686,0,0,0,.463.4.814.814,0,0,0,.463.131l3.6-.31c.048,0,.076-.043.076-.107a.315.315,0,0,0-.075-.192l-3.59-4.464a1.705,1.705,0,0,0-.463-.41.8.8,0,0,0-.464-.125l-3.6.31m14.1-1.21c-.049,0-.075.043-.076.107a.311.311,0,0,0,.074.193l3.592,4.463a1.675,1.675,0,0,0,.462.4.826.826,0,0,0,.463.13l3.6-.309c.049,0,.075-.043.075-.107a.318.318,0,0,0-.075-.193l-3.59-4.464a1.714,1.714,0,0,0-.462-.409.816.816,0,0,0-.463-.125l-3.6.31m3.481,42.938a1.7,1.7,0,0,0,.462.4.843.843,0,0,0,.462.132l3.6-.31c.05,0,.076-.043.076-.107a.317.317,0,0,0-.075-.194l-3.59-4.463a1.707,1.707,0,0,0-.462-.409.821.821,0,0,0-.462-.126l-3.6.31c-.048,0-.074.042-.075.106a.318.318,0,0,0,.075.193l3.591,4.464m-14.041-18.191a1.672,1.672,0,0,0,.462.4.819.819,0,0,0,.463.131l3.6-.31c.049,0,.075-.043.075-.107a.309.309,0,0,0-.074-.193l-3.519-4.374-.008,2.557a.137.137,0,0,1-.129.146h-.015a.628.628,0,0,1-.349-.1,1.27,1.27,0,0,1-.35-.3.551.551,0,0,1-.145-.317l.008-2.609-3.615.311c-.048,0-.075.041-.077.105a.316.316,0,0,0,.076.193l3.59,4.464m14.1-1.944a1.666,1.666,0,0,0,.462.4.824.824,0,0,0,.463.131l3.6-.31c.048,0,.075-.042.075-.1a.328.328,0,0,0-.074-.194l-3.59-4.462-.006,2.452a.141.141,0,0,1-.134.148h-.011a.642.642,0,0,1-.348-.105,1.264,1.264,0,0,1-.348-.3.552.552,0,0,1-.146-.319l.007-2.41-3.544.3c-.048,0-.075.044-.076.106a.313.313,0,0,0,.075.193l3.591,4.464M4342.725,433l-3.555-4.421-.008,2.582a.14.14,0,0,1-.134.147h-.01a.648.648,0,0,1-.349-.106,1.308,1.308,0,0,1-.349-.3.549.549,0,0,1-.144-.318l.007-2.583-3.578.307c-.047,0-.076.042-.076.106a.321.321,0,0,0,.075.193l3.59,4.464a1.724,1.724,0,0,0,.463.4.82.82,0,0,0,.464.13l3.6-.309c.047,0,.075-.043.075-.106a.317.317,0,0,0-.074-.193M4328.97,397.67l-3.6.31c-.286.025-.465.275-.467.653l-.013,4.774a.335.335,0,0,0,.152.261.12.12,0,0,0,.074.018l3.533-.3-1.669-2.074a.5.5,0,0,1-.1-.321.462.462,0,0,1,.351-.493.272.272,0,0,1,.155.035.375.375,0,0,1,.09.078l1.713,2.126.014-4.786a.334.334,0,0,0-.151-.261.12.12,0,0,0-.074-.019m-8.822-4.942-.012,4.64,1.772-.151a.16.16,0,0,1,.09.027.594.594,0,0,1,.156.144,1.691,1.691,0,0,1,.347.9c0,.128-.041.2-.1.2l-1.837.156.037.049,3.59,4.462a.254.254,0,0,0,.075.067c.061.035.151.032.151-.086l.014-4.773a2.006,2.006,0,0,0-.461-1.189l-3.59-4.464a.265.265,0,0,0-.074-.067c-.061-.036-.153-.033-.153.087m6.889,26.53a.516.516,0,0,1-.1-.323.466.466,0,0,1,.35-.493.261.261,0,0,1,.155.036.319.319,0,0,1,.092.08l1.6,1.988.013-4.555a.34.34,0,0,0-.15-.262.136.136,0,0,0-.075-.02l-3.6.31c-.285.026-.465.275-.466.654l-.013,4.774a.337.337,0,0,0,.15.262.115.115,0,0,0,.074.017l3.6-.309a.478.478,0,0,0,.093-.018l-1.721-2.141m-4.9-3.735a1.69,1.69,0,0,1,.346.9c0,.128-.039.2-.1.2l-1.8.154,3.554,4.417a.248.248,0,0,0,.074.066c.062.036.152.033.152-.086l.014-4.773a2.006,2.006,0,0,0-.461-1.189l-3.591-4.463a.3.3,0,0,0-.075-.067c-.061-.035-.152-.032-.152.087l-.013,4.744,1.8-.158a.169.169,0,0,1,.091.026.619.619,0,0,1,.155.143m6.94,25.373.013-4.773a.335.335,0,0,0-.151-.261.136.136,0,0,0-.074-.019l-3.6.31c-.287.025-.464.275-.466.655l-.013,4.772a.334.334,0,0,0,.151.261.12.12,0,0,0,.074.019l3.6-.31c.286-.025.465-.275.466-.654m-18.809-17.78.013-4.773a2.008,2.008,0,0,0-.46-1.189l-3.59-4.464a.293.293,0,0,0-.075-.066c-.062-.036-.151-.033-.151.086l-.013,4.773a2,2,0,0,0,.459,1.187l3.591,4.464a.267.267,0,0,0,.075.067c.06.036.151.033.153-.086m-.175-18.755a.27.27,0,0,0,.075.067c.061.035.153.032.153-.087l.012-4.772a2.007,2.007,0,0,0-.46-1.189l-3.592-4.464a.249.249,0,0,0-.073-.067c-.062-.036-.152-.032-.152.087l-.014,4.774a2.013,2.013,0,0,0,.461,1.187l3.59,4.464m14.215,36.944,0-4.746a2.015,2.015,0,0,0-.461-1.188l-3.591-4.464a.28.28,0,0,0-.074-.067c-.061-.036-.152-.031-.152.087l-.013,4.772a2,2,0,0,0,.46,1.19l3.591,4.463a.271.271,0,0,0,.073.067c.062.035.153.032.153-.086m9.887-31.125-.014,4.774a2,2,0,0,0,.459,1.187l3.591,4.464a.266.266,0,0,0,.076.067c.061.035.152.032.152-.087l.013-4.773a2,2,0,0,0-.46-1.188l-3.59-4.464a.3.3,0,0,0-.075-.067c-.062-.035-.151-.031-.151.087m4.21,29.18.014-4.773a2.014,2.014,0,0,0-.46-1.188l-3.591-4.464a.263.263,0,0,0-.075-.067c-.061-.036-.151-.032-.152.087l-.013,4.773a1.187,1.187,0,0,0,.007.15l1.915-.154a.155.155,0,0,1,.091.026.566.566,0,0,1,.154.143,1.668,1.668,0,0,1,.348.9c0,.129-.041.2-.1.2l-1.776.144,3.416,4.245a.243.243,0,0,0,.076.067c.061.036.151.033.151-.086m4.557-5.464-3.6.31c-.285.025-.464.276-.464.654l-.014,4.773a.329.329,0,0,0,.152.262.115.115,0,0,0,.074.02l3.6-.311c.287-.024.465-.274.466-.654l.014-4.773a.334.334,0,0,0-.151-.261.129.129,0,0,0-.074-.02m-28.085-35.019-3.6.31c-.286.024-.465.275-.467.654l-.013,4.773a.334.334,0,0,0,.151.261.119.119,0,0,0,.076.02l3.6-.31c.286-.024.464-.275.465-.654l.014-4.773a.334.334,0,0,0-.151-.261.116.116,0,0,0-.075-.02m24.28,22.264,3.6-.311c.285-.025.463-.275.464-.654l.014-4.773a.337.337,0,0,0-.15-.262.147.147,0,0,0-.075-.02l-3.6.311c-.287.024-.465.275-.466.654l-.013,4.772a.337.337,0,0,0,.151.262.135.135,0,0,0,.075.02m-24.121,1.4.013-4.609a.331.331,0,0,0-.15-.261.136.136,0,0,0-.074-.019l-3.6.31c-.286.025-.464.276-.465.654l-.014,4.772a.335.335,0,0,0,.152.262.121.121,0,0,0,.075.02l3.6-.31a.38.38,0,0,0,.059-.011l-1.792-2.223a.519.519,0,0,1-.1-.321.466.466,0,0,1,.351-.493.262.262,0,0,1,.155.035.3.3,0,0,1,.092.079l1.705,2.115" fill="#0080f4"/>
            </g>
            <g id="组_21998-2" data-name="组 21998">
              <path id="路径_39954-2-2" data-name="路径 39954-2" d="M4320.305,392.676c-.061-.036-.153-.033-.153.087C4320.152,392.646,4320.244,392.64,4320.305,392.676Z" fill="url(#linear-gradient-6)"/>
            </g>
          </g>
        </g>
      </g>
    </g>
  </g>
</svg>
