<svg xmlns="http://www.w3.org/2000/svg" width="115.409" height="101.8" viewBox="0 0 115.409 101.8">
  <g id="秘密基础" transform="translate(5046.9 -3464.1)">
    <g id="组_773" data-name="组 773" transform="translate(-5046 3465)">
      <g id="组_772" data-name="组 772" transform="translate(0 0)">
        <circle id="椭圆_57" data-name="椭圆 57" cx="10.112" cy="10.112" r="10.112" transform="translate(46.864)" fill="none" stroke="#6287de" stroke-miterlimit="10" stroke-width="1.8"/>
        <circle id="椭圆_58" data-name="椭圆 58" cx="10.112" cy="10.112" r="10.112" transform="translate(0 27.223)" fill="none" stroke="#6287de" stroke-miterlimit="10" stroke-width="1.8"/>
        <circle id="椭圆_59" data-name="椭圆 59" cx="10.112" cy="10.112" r="10.112" transform="translate(93.384 27.206)" fill="none" stroke="#6287de" stroke-miterlimit="10" stroke-width="1.8"/>
        <circle id="椭圆_60" data-name="椭圆 60" cx="10.112" cy="10.112" r="10.112" transform="translate(93.384 79.775)" fill="none" stroke="#6287de" stroke-miterlimit="10" stroke-width="1.8"/>
        <circle id="椭圆_61" data-name="椭圆 61" cx="10.112" cy="10.112" r="10.112" transform="translate(0 79.775)" fill="none" stroke="#6287de" stroke-miterlimit="10" stroke-width="1.8"/>
        <path id="路径_1898" data-name="路径 1898" d="M19.431.141,1.517,11.62" transform="translate(22.846 17.476)" fill="none" stroke="#6287de" stroke-linecap="round" stroke-width="1.8"/>
        <line id="直线_67" data-name="直线 67" y2="20" transform="translate(10.5 53.592)" fill="none" stroke="#6287de" stroke-linecap="round" stroke-miterlimit="10" stroke-width="1.8"/>
        <path id="路径_1899" data-name="路径 1899" d="M.864.409l6.5,4.076" transform="translate(22.819 44.179)" fill="none" stroke="#6287de" stroke-linecap="round" stroke-width="1.8"/>
        <line id="直线_69" data-name="直线 69" x1="5.094" y2="3.245" transform="translate(24.294 79.832)" fill="none" stroke="#6287de" stroke-linecap="round" stroke-miterlimit="10" stroke-width="1.8"/>
        <path id="路径_1900" data-name="路径 1900" d="M7.387.724.575,4.508" transform="translate(82.932 44.091)" fill="none" stroke="#6287de" stroke-linecap="round" stroke-width="1.8"/>
        <path id="路径_1901" data-name="路径 1901" d="M0,1.993V21.42" transform="translate(103.496 52.302)" fill="none" stroke="#6287de" stroke-linecap="round" stroke-width="1.8"/>
        <path id="路径_1902" data-name="路径 1902" d="M0,0,5.355,3.249" transform="translate(84.192 79.774)" fill="none" stroke="#6287de" stroke-linecap="round" stroke-width="1.8"/>
        <line id="直线_73" data-name="直线 73" x2="19" y2="11" transform="translate(71.169 18.136)" fill="none" stroke="#6287de" stroke-linecap="round" stroke-miterlimit="10" stroke-width="1.8"/>
      </g>
      <g id="组_770" data-name="组 770" transform="translate(34.862 46.396)">
        <path id="路径_947" data-name="路径 947" d="M1581.39,480.108a45.436,45.436,0,0,0,3.178,8.8,27.061,27.061,0,0,0,5.167,7.508,9.532,9.532,0,0,0,6.488,3.094c3.657,0,6.942-1.819,9.582-3.578,1.321-.88,2.485-1.748,3.427-2.392a5.732,5.732,0,0,1,1.975-.984,7.983,7.983,0,0,1,2.659.752c1.026.437,2.1.968,3.027,1.337a.562.562,0,0,0,.71-.357.643.643,0,0,0,.026-.127,6.914,6.914,0,0,0-4.431-6.522,8.2,8.2,0,0,0-6.69.384c1.216-2.6,2.585-5.406,3.779-8.244,1.415-3.367,2.525-6.6,2.525-9.164,0-10.971-8.231-18.195-16.054-18.195-8.82,0-16.572,6.68-16.589,17.091v.033a31.2,31.2,0,0,0,.133,4.3l.117,1.07c.162,1.313.373,2.646.669,3.981Z" transform="translate(-1573.745 -452.416)" fill="none" stroke="#ef54a1" stroke-linecap="round" stroke-miterlimit="10" stroke-width="1.6"/>
        <path id="路径_948" data-name="路径 948" d="M1581.637,477.059a8.03,8.03,0,0,0-4.082.919,5.233,5.233,0,0,1-1.689.488c-.765-.473-.586-1.439-.25-2.078a5.81,5.81,0,0,1,1.354-1.588,9.226,9.226,0,0,1,4-1.723l-.117-1.07a8.269,8.269,0,0,0-4.565,1.967,6.737,6.737,0,0,0-1.6,1.891c-.656,1.454-.6,3.2,1.137,3.661a5.222,5.222,0,0,0,2.157-.57c1.234-.456,2.775-1.278,3.962-.683Z" transform="translate(-1574.291 -450.59)" fill="#ef54a1" stroke="#ef54a1" stroke-linecap="round" stroke-miterlimit="10" stroke-width="0.5"/>
        <path id="路径_949" data-name="路径 949" d="M1593.515,462.667a3.7,3.7,0,0,1,3.128-2.909c1.43.027,2.386,1.55,2.909,2.893a15.783,15.783,0,0,1,.837,5.138.567.567,0,0,1-.837.437,5.592,5.592,0,0,0-2.909-.7,5.662,5.662,0,0,0-2.927.7.563.563,0,0,1-.819-.437A17.643,17.643,0,0,1,1593.515,462.667Z" transform="translate(-1572.557 -451.731)" fill="#ef54a1"/>
        <path id="路径_950" data-name="路径 950" d="M1584.416,468.22a.565.565,0,0,1-.761-.243.58.58,0,0,1-.06-.2,17.707,17.707,0,0,1,.62-5.118,3.7,3.7,0,0,1,3.127-2.909c1.43.027,2.388,1.551,2.91,2.893a15.76,15.76,0,0,1,.836,5.138.566.566,0,0,1-.836.438,5.6,5.6,0,0,0-2.91-.7A5.67,5.67,0,0,0,1584.416,468.22Z" transform="translate(-1573.424 -451.732)" fill="#ef54a1"/>
        <path id="路径_951" data-name="路径 951" d="M1600.6,474.565a8.051,8.051,0,0,0-8.728-.685,9.666,9.666,0,0,0-2.961,2.186c-.694.809-1.326,1.977-.135,2.593a5.691,5.691,0,0,0,1.89-.1c1.776-.3,3.584-.6,5.249.519l-.668.834c-1.141-.881-2.935-.524-4.4-.3a6.031,6.031,0,0,1-2.324.1c-2.333-.607-1.446-3.1-.419-4.348a10.664,10.664,0,0,1,3.294-2.442,9.435,9.435,0,0,1,9.85.786Z" transform="translate(-1573.102 -450.6)" fill="#ef54a1" stroke="#ef54a1" stroke-linecap="round" stroke-miterlimit="10" stroke-width="0.5"/>
      </g>
    </g>
  </g>
</svg>
