<svg xmlns="http://www.w3.org/2000/svg" width="818.34" height="168.868" viewBox="0 0 818.34 168.868">
  <g id="社群崛起_让世界更美好" data-name="社群崛起，让世界更美好" transform="translate(-548 -3102)">
    <g id="组_21408" data-name="组 21408">
      <g id="组_64" data-name="组 64" transform="translate(306 1046)">
        <path id="路径_108" data-name="路径 108" d="M733.467,2163.4H927.947" transform="translate(-5 3.597)" fill="none" stroke="#d5d5d7" stroke-linecap="round" stroke-width="2" stroke-dasharray="0 6"/>
        <path id="路径_109" data-name="路径 109" d="M794.8,2151.8v8h8" transform="translate(1693.202 77.745) rotate(45)" fill="none" stroke="#d5d5d7" stroke-linecap="round" stroke-linejoin="round" stroke-width="2"/>
        <path id="路径_110" data-name="路径 110" d="M0,8V0H8" transform="translate(921.314 2166.957) rotate(135)" fill="none" stroke="#d5d5d7" stroke-linecap="round" stroke-linejoin="round" stroke-width="2"/>
      </g>
      <g id="组_70" data-name="组 70" transform="translate(-37 1046)">
        <path id="路径_108-2" data-name="路径 108" d="M733.467,2163.4H927.947" transform="translate(-5 3.597)" fill="none" stroke="#d5d5d7" stroke-linecap="round" stroke-width="2" stroke-dasharray="0 6"/>
        <path id="路径_109-2" data-name="路径 109" d="M794.8,2151.8v8h8" transform="translate(1693.202 77.745) rotate(45)" fill="none" stroke="#d5d5d7" stroke-linecap="round" stroke-linejoin="round" stroke-width="2"/>
        <path id="路径_110-2" data-name="路径 110" d="M0,8V0H8" transform="translate(921.314 2166.957) rotate(135)" fill="none" stroke="#d5d5d7" stroke-linecap="round" stroke-linejoin="round" stroke-width="2"/>
      </g>
      <g id="组_63" data-name="组 63" transform="translate(-38.281 936)">
        <path id="路径_108-3" data-name="路径 108" d="M658.2,2202.59V2163.4h695.242v39.188" transform="translate(-4.256 3.597)" fill="none" stroke="#d5d5d7" stroke-linecap="round" stroke-width="2" stroke-dasharray="0 6"/>
        <path id="路径_109-3" data-name="路径 109" d="M0,0,.522,8.522l8.522.522" transform="translate(647.5 2202.157) rotate(-45)" fill="none" stroke="#d5d5d7" stroke-linecap="round" stroke-linejoin="round" stroke-width="2"/>
        <path id="路径_110-3" data-name="路径 110" d="M-.251,8.793.271.271,8.793-.251" transform="translate(1349.137 2208.197) rotate(-135)" fill="none" stroke="#d5d5d7" stroke-linecap="round" stroke-linejoin="round" stroke-width="2"/>
      </g>
    </g>
    <g id="精神_秘密数据" data-name="精神：秘密数据">
      <g id="精神_秘密数据-2" data-name="精神：秘密数据" transform="translate(1540.089 3595.489)">
        <path id="路径_107" data-name="路径 107" d="M157.318,204.983l-1.345-14.277a3.525,3.525,0,1,0-3.817-5.442L110.3,165.5a3.585,3.585,0,1,0-7.045-.939c0,.105.007.208.015.31L62.433,175.849a3.584,3.584,0,1,0-5.695,4.166L46.419,197.6a3.586,3.586,0,1,0,.858,6.263l18.142,17.517a2.952,2.952,0,1,0,5.192,2.783l17.287,3.8a2.152,2.152,0,0,0,3.079,1.794L102.984,243.1a3.258,3.258,0,0,0,2.607,5.232c.092,0,.178-.02.267-.027l4.151,14.658a.629.629,0,0,0,.439.435.645.645,0,0,0,.165.022.624.624,0,0,0,.433-.174l8.508-8.126a2.8,2.8,0,0,0,4.38-2.764l17.232-6.537a3.206,3.206,0,1,0,4.407-4.423l10.693-28.513a4,4,0,1,0,1.053-7.9Zm-36.7,44.971a2.829,2.829,0,0,0-1.693,1.007l-10.193-5.044a3.179,3.179,0,0,0-.818-3.156l12.668-18.6a4.447,4.447,0,0,0,1.154.385ZM92.216,227.935l26.174-6.161a4.477,4.477,0,0,0,1.158,1.681l-12.668,18.6a3.222,3.222,0,0,0-2.963.209L91.909,228.921A2.148,2.148,0,0,0,92.216,227.935Zm25.865-7.788c0,.137.009.272.02.405l-26.173,6.161A2.175,2.175,0,0,0,90.9,225.8L92,215.658a4.092,4.092,0,0,0,.872-8.042l.616-5.683a3.764,3.764,0,0,0,3.523-3.371l16.694-1.1a5.177,5.177,0,0,0,5.086,4.216c.064,0,.125-.007.188-.009l2.26,14.192A4.482,4.482,0,0,0,118.081,220.147Zm-50.152-.172a2.942,2.942,0,0,0-1.643.5L48.151,202.966a3.563,3.563,0,0,0,.583-1.579L89.6,199.019a3.767,3.767,0,0,0,2.644,2.78l-.616,5.683a4.089,4.089,0,0,0-3.737,5.26L70.259,221.13A2.941,2.941,0,0,0,67.929,219.975Zm56-24.126,27.888-7.076a3.525,3.525,0,0,0,2.907,2.051l1.345,14.276a4,4,0,0,0-2.562,2.048L123.876,197.5a4.956,4.956,0,0,0,.052-1.648Zm27.692-9.45a3.5,3.5,0,0,0-.124.913c0,.082.007.163.012.244l-27.889,7.076a5.149,5.149,0,0,0-6.035-3.159l-8.914-23.831a3.585,3.585,0,0,0,1.1-1.01ZM103.6,166.08a3.565,3.565,0,0,0,3.892,2l8.912,23.828a5.174,5.174,0,0,0-2.776,4.3l-16.7,1.1a3.761,3.761,0,0,0-6.511-1.589l-27.9-16.889a3.59,3.59,0,0,0,.285-1.4,3.55,3.55,0,0,0-.019-.371ZM57.783,180.714a3.577,3.577,0,0,0,4.043-.834l27.943,16.913a3.734,3.734,0,0,0-.243.973l-40.865,2.368a3.579,3.579,0,0,0-1.159-1.9ZM70.8,222.262l17.625-8.386a4.1,4.1,0,0,0,2.327,1.647l-1.1,10.141a2.169,2.169,0,0,0-1.489,1.076l-17.279-3.8v-.008A2.944,2.944,0,0,0,70.8,222.262Zm40.128,39.358-3.866-13.652a3.279,3.279,0,0,0,1.113-.924l10.186,5.042a2.726,2.726,0,0,0,.327,2.123Zm12.566-10.44a2.844,2.844,0,0,0-1.623-1.163l1.118-25.411a4.452,4.452,0,0,0,2.046-.727l16.286,18.312a3.031,3.031,0,0,0-.6,2.456Zm20.9-10.221a3.223,3.223,0,0,0-.516-.052,3.182,3.182,0,0,0-1.616.451l-16.288-18.315a4.478,4.478,0,0,0-3.416-7.375c-.026,0-.051,0-.077,0l-2.261-14.192a5.183,5.183,0,0,0,3.261-2.788l29.635,9.654a3.947,3.947,0,0,0-.054.624,3.994,3.994,0,0,0,2.024,3.474Z" transform="translate(-1033.677 -594.46)" fill="#6287de"/>
      </g>
    </g>
    <g id="现实_秘密社群" data-name="现实：秘密社群">
      <path id="现实_秘密社群-2" data-name="现实：秘密社群" d="M-321.881-448.472a51.115,51.115,0,0,0-51.057,51.057,51.115,51.115,0,0,0,51.057,51.058,51.115,51.115,0,0,0,51.058-51.058A51.115,51.115,0,0,0-321.881-448.472ZM-356.3-432.741a49.4,49.4,0,0,1,22.175-12.485l3.245-.835-2.418,2.319a40.887,40.887,0,0,0-10.291,16.066l-.265.766-.786-.2a60.8,60.8,0,0,1-11.432-4.216l-1.12-.546Zm-14.891,33.565a49.245,49.245,0,0,1,12.361-30.909l.452-.509.606.31a61.23,61.23,0,0,0,12.42,4.743l.889.233-.272.878a87.69,87.69,0,0,0-3.944,25.292l-.007.871H-371.22Zm12.812,34.938-.452-.509a49.245,49.245,0,0,1-12.361-30.909l-.032-.909h22.534l.007.871a87.688,87.688,0,0,0,3.943,25.3l.272.878-.889.232a61.111,61.111,0,0,0-12.417,4.739Zm24.254,14.632A49.4,49.4,0,0,1-356.3-362.088l-.892-.871,1.12-.547a60.814,60.814,0,0,1,11.429-4.216l.784-.2.265.766A40.893,40.893,0,0,0-333.3-351.09l2.419,2.319Zm11.389,1.541-1-.142c-7.146-1.015-13.738-8-18.085-19.157l-.374-.96,1.007-.217a89.48,89.48,0,0,1,17.563-2l.891-.013Zm0-24.2-.866.011a90.96,90.96,0,0,0-18.39,2.135l-.786.174-.241-.768a86.083,86.083,0,0,1-3.956-24.965l-.009-.887h24.249Zm0-26.006h-24.249l.009-.887a86.068,86.068,0,0,1,3.957-24.965l.241-.768.786.174a90.944,90.944,0,0,0,18.389,2.136l.866.012Zm0-26-.891-.013a89.469,89.469,0,0,1-17.563-2l-1.007-.217.374-.96c4.346-11.16,10.938-18.144,18.085-19.159l1-.142Zm37.352-6.319.452.509a49.24,49.24,0,0,1,12.359,30.909l.032.909-22.534,0-.007-.871a87.679,87.679,0,0,0-3.942-25.292l-.272-.878.889-.233a61.17,61.17,0,0,0,12.419-4.739Zm-24.258-14.632a49.4,49.4,0,0,1,22.171,12.481l.842.822-1.085.6a60.734,60.734,0,0,1-11.414,4.208l-.785.2-.265-.766a40.889,40.889,0,0,0-10.291-16.067l-2.418-2.319Zm-11.388-1.541,1,.142c7.146,1.015,13.738,8,18.085,19.157l.374.96-1.007.217a87.148,87.148,0,0,1-17.344,2h-1.109Zm0,24.2.866-.012a90.957,90.957,0,0,0,18.39-2.136l.786-.174.241.768a86.09,86.09,0,0,1,3.956,24.965l.009.887h-24.249Zm0,26.005h24.247l-.009.887a86.075,86.075,0,0,1-3.957,24.964l-.241.768-.786-.174a90.942,90.942,0,0,0-18.389-2.136l-.866-.012Zm-.051,48.5.051-1.06v-21.439l.891.013a89.481,89.481,0,0,1,17.563,2l1.007.218-.374.96c-4.348,11.159-10.94,18.141-18.086,19.156Zm33.6-14.03A49.393,49.393,0,0,1-309.638-349.6l-3.247.837,2.42-2.321a40.884,40.884,0,0,0,10.291-16.066l.265-.766.79.188a60.787,60.787,0,0,1,11.418,4.225l1.12.546Zm14.9-33.564a49.244,49.244,0,0,1-12.361,30.909l-.452.509-.606-.31a61.227,61.227,0,0,0-12.419-4.743l-.889-.233.272-.878a87.689,87.689,0,0,0,3.944-25.292l.007-.871h22.534Z" transform="translate(1281.938 3610.472)" fill="#6287de"/>
    </g>
    <g id="数字_秘密世界_" data-name="数字：秘密世界  ">
      <g id="数字_秘密世界_2" data-name="数字：秘密世界  " transform="translate(-399.646 2429.173)">
        <rect id="矩形_50" data-name="矩形 50" width="81.56" height="81.56" rx="4" transform="translate(1667.894 743.3)" fill="none" stroke="#6287de" stroke-linecap="round" stroke-miterlimit="10" stroke-width="2"/>
        <line id="直线_28" data-name="直线 28" y1="14.946" transform="translate(1684.263 727.5)" fill="none" stroke="#6287de" stroke-linecap="round" stroke-miterlimit="10" stroke-width="2"/>
        <line id="直线_29" data-name="直线 29" y1="14.946" transform="translate(1696.219 727.5)" fill="none" stroke="#6287de" stroke-linecap="round" stroke-miterlimit="10" stroke-width="2"/>
        <line id="直线_30" data-name="直线 30" y1="14.946" transform="translate(1708.887 727.5)" fill="none" stroke="#6287de" stroke-linecap="round" stroke-miterlimit="10" stroke-width="2"/>
        <line id="直线_31" data-name="直线 31" y1="14.946" transform="translate(1720.132 727.5)" fill="none" stroke="#6287de" stroke-linecap="round" stroke-miterlimit="10" stroke-width="2"/>
        <line id="直线_32" data-name="直线 32" y1="14.946" transform="translate(1733.37 727.536)" fill="none" stroke="#6287de" stroke-linecap="round" stroke-miterlimit="10" stroke-width="2"/>
        <line id="直线_33" data-name="直线 33" x2="14.946" transform="translate(1750.041 759.713)" fill="none" stroke="#6287de" stroke-linecap="round" stroke-miterlimit="10" stroke-width="2"/>
        <line id="直线_34" data-name="直线 34" x2="14.946" transform="translate(1750.041 771.243)" fill="none" stroke="#6287de" stroke-linecap="round" stroke-miterlimit="10" stroke-width="2"/>
        <line id="直线_35" data-name="直线 35" x2="14.946" transform="translate(1750.041 784.338)" fill="none" stroke="#6287de" stroke-linecap="round" stroke-miterlimit="10" stroke-width="2"/>
        <line id="直线_36" data-name="直线 36" x2="14.946" transform="translate(1750.041 795.582)" fill="none" stroke="#6287de" stroke-linecap="round" stroke-miterlimit="10" stroke-width="2"/>
        <line id="直线_37" data-name="直线 37" x2="14.946" transform="translate(1750.006 808.82)" fill="none" stroke="#6287de" stroke-linecap="round" stroke-miterlimit="10" stroke-width="2"/>
        <line id="直线_38" data-name="直线 38" x2="14.946" transform="translate(1652.681 759.713)" fill="none" stroke="#6287de" stroke-linecap="round" stroke-miterlimit="10" stroke-width="2"/>
        <line id="直线_39" data-name="直线 39" x2="14.946" transform="translate(1652.681 771.243)" fill="none" stroke="#6287de" stroke-linecap="round" stroke-miterlimit="10" stroke-width="2"/>
        <line id="直线_40" data-name="直线 40" x2="14.946" transform="translate(1652.681 784.338)" fill="none" stroke="#6287de" stroke-linecap="round" stroke-miterlimit="10" stroke-width="2"/>
        <line id="直线_41" data-name="直线 41" x2="14.946" transform="translate(1652.681 795.582)" fill="none" stroke="#6287de" stroke-linecap="round" stroke-miterlimit="10" stroke-width="2"/>
        <line id="直线_42" data-name="直线 42" x2="14.946" transform="translate(1652.646 808.82)" fill="none" stroke="#6287de" stroke-linecap="round" stroke-miterlimit="10" stroke-width="2"/>
        <line id="直线_43" data-name="直线 43" y1="14.946" transform="translate(1733.37 825.714)" fill="none" stroke="#6287de" stroke-linecap="round" stroke-miterlimit="10" stroke-width="2"/>
        <line id="直线_44" data-name="直线 44" y1="14.946" transform="translate(1720.239 825.714)" fill="none" stroke="#6287de" stroke-linecap="round" stroke-miterlimit="10" stroke-width="2"/>
        <line id="直线_45" data-name="直线 45" y1="14.946" transform="translate(1708.745 825.714)" fill="none" stroke="#6287de" stroke-linecap="round" stroke-miterlimit="10" stroke-width="2"/>
        <line id="直线_46" data-name="直线 46" y1="14.946" transform="translate(1695.872 825.714)" fill="none" stroke="#6287de" stroke-linecap="round" stroke-miterlimit="10" stroke-width="2"/>
        <line id="直线_47" data-name="直线 47" y1="14.946" transform="translate(1684.263 825.749)" fill="none" stroke="#6287de" stroke-linecap="round" stroke-miterlimit="10" stroke-width="2"/>
        <rect id="矩形_51" data-name="矩形 51" width="57.861" height="57.861" rx="4" transform="translate(1679.566 754.829)" fill="none" stroke="#6287de" stroke-linecap="round" stroke-miterlimit="10" stroke-width="2"/>
        <path id="路径_947" data-name="路径 947" d="M1704.046,793.477a37.525,37.525,0,0,0,2.624,7.261,22.35,22.35,0,0,0,4.265,6.2,7.871,7.871,0,0,0,5.357,2.554c3.019,0,5.73-1.5,7.91-2.954,1.09-.727,2.051-1.446,2.829-1.975a4.709,4.709,0,0,1,1.629-.814,6.579,6.579,0,0,1,2.195.621c.847.36,1.734.8,2.5,1.1a.464.464,0,0,0,.607-.4,5.707,5.707,0,0,0-3.658-5.384,6.771,6.771,0,0,0-5.522.318c1-2.147,2.135-4.462,3.12-6.806,1.167-2.78,2.085-5.446,2.085-7.564,0-9.056-6.795-15.02-13.253-15.02-7.281,0-13.68,5.514-13.694,14.108v.027a25.842,25.842,0,0,0,.11,3.549l.1.884c.133,1.081.308,2.183.552,3.285Z" transform="translate(-7.353 -6.293)" fill="none" stroke="#6287de" stroke-linecap="round" stroke-miterlimit="10" stroke-width="2"/>
        <path id="路径_948" data-name="路径 948" d="M1702.9,795.491a6.613,6.613,0,0,0-3.368.759,4.332,4.332,0,0,1-1.395.4c-.628-.389-.484-1.188-.207-1.712a4.769,4.769,0,0,1,1.118-1.311,7.6,7.6,0,0,1,3.3-1.422l-.1-.884a6.824,6.824,0,0,0-3.769,1.629,5.555,5.555,0,0,0-1.325,1.56c-.542,1.2-.5,2.645.938,3.023a4.325,4.325,0,0,0,1.781-.47c1.019-.377,2.291-1.055,3.271-.565Z" transform="translate(-6.45 -9.316)" fill="#4dd0e2" stroke="#6287de" stroke-linecap="round" stroke-miterlimit="10" stroke-width="0.8"/>
        <path id="路径_949" data-name="路径 949" d="M1717,780.777a3.056,3.056,0,0,1,2.582-2.4c1.18.022,1.971,1.279,2.4,2.388a13.01,13.01,0,0,1,.691,4.239.467.467,0,0,1-.691.359,4.621,4.621,0,0,0-2.4-.58,4.678,4.678,0,0,0-2.416.58.466.466,0,0,1-.676-.359A14.614,14.614,0,0,1,1717,780.777Z" transform="translate(-9.319 -7.426)" fill="#6287de"/>
        <path id="路径_950" data-name="路径 950" d="M1707.34,785.36a.466.466,0,0,1-.677-.359,14.614,14.614,0,0,1,.511-4.225,3.056,3.056,0,0,1,2.582-2.4c1.18.022,1.971,1.279,2.4,2.388a13.038,13.038,0,0,1,.69,4.239.466.466,0,0,1-.69.359,4.627,4.627,0,0,0-2.4-.58A4.674,4.674,0,0,0,1707.34,785.36Z" transform="translate(-7.885 -7.426)" fill="#6287de"/>
        <path id="路径_951" data-name="路径 951" d="M1721.5,793.4a6.648,6.648,0,0,0-7.205-.566,8.01,8.01,0,0,0-2.443,1.808c-.573.668-1.094,1.632-.111,2.14a4.663,4.663,0,0,0,1.56-.084c1.465-.244,2.958-.5,4.334.429l-.552.689c-.942-.728-2.423-.432-3.631-.248a4.953,4.953,0,0,1-1.919.082c-1.926-.5-1.194-2.555-.345-3.589a8.8,8.8,0,0,1,2.719-2.016,7.786,7.786,0,0,1,8.131.649Z" transform="translate(-8.417 -9.298)" fill="#4dd0e2" stroke="#6287de" stroke-linecap="round" stroke-miterlimit="10" stroke-width="0.8"/>
      </g>
    </g>
  </g>
</svg>
