<svg xmlns="http://www.w3.org/2000/svg" width="51.088" height="44.192" viewBox="0 0 51.088 44.192">
  <g id="会议" transform="translate(-765.1 -255.73)">
    <path id="路径_1828" data-name="路径 1828" d="M773.333,281.676v-25.3h42.638v24.8H792.137" transform="translate(-3.831)" fill="none" stroke="#ffc200" stroke-linecap="round" stroke-miterlimit="10" stroke-width="1.3"/>
    <line id="直线_60" data-name="直线 60" x2="17.319" transform="translate(789.873 264.295)" fill="none" stroke="#ffc200" stroke-miterlimit="10" stroke-width="1.3"/>
    <line id="直线_61" data-name="直线 61" x2="8.814" transform="translate(789.873 267.841)" fill="none" stroke="#ffc200" stroke-miterlimit="10" stroke-width="1.3"/>
    <path id="路径_1829" data-name="路径 1829" d="M780,296.955v-10.33h23.01a1.917,1.917,0,0,1,1.917,1.917h0a1.917,1.917,0,0,1-1.917,1.917H792.494v6.8" transform="translate(-7.199 -15.279)" fill="none" stroke="#ffc200" stroke-miterlimit="10" stroke-width="1.3"/>
    <ellipse id="椭圆_46" data-name="椭圆 46" cx="3.752" cy="4.082" rx="3.752" ry="4.082" transform="translate(776.1 261.853)" fill="none" stroke="#ffc200" stroke-miterlimit="10" stroke-width="1.3"/>
    <ellipse id="椭圆_47" data-name="椭圆 47" cx="3.752" cy="4.082" rx="3.752" ry="4.082" transform="translate(769.049 284.7)" fill="none" stroke="#ffc200" stroke-miterlimit="10" stroke-width="1.3"/>
    <path id="路径_1830" data-name="路径 1830" d="M765.75,339.071v-1.856a3.34,3.34,0,0,1,3.34-3.34h7.422a3.34,3.34,0,0,1,3.34,3.34v1.856" transform="translate(0 -39.148)" fill="none" stroke="#ffc200" stroke-miterlimit="10" stroke-width="1.3"/>
    <ellipse id="椭圆_48" data-name="椭圆 48" cx="3.752" cy="4.082" rx="3.752" ry="4.082" transform="translate(786.904 284.7)" fill="none" stroke="#ffc200" stroke-miterlimit="10" stroke-width="1.3"/>
    <path id="路径_1831" data-name="路径 1831" d="M801.833,339.071v-1.856a3.34,3.34,0,0,1,3.34-3.34H812.6a3.34,3.34,0,0,1,3.34,3.34v1.856" transform="translate(-18.228 -39.148)" fill="none" stroke="#ffc200" stroke-miterlimit="10" stroke-width="1.3"/>
    <ellipse id="椭圆_49" data-name="椭圆 49" cx="3.752" cy="4.082" rx="3.752" ry="4.082" transform="translate(804.734 284.7)" fill="none" stroke="#ffc200" stroke-miterlimit="10" stroke-width="1.3"/>
    <path id="路径_1832" data-name="路径 1832" d="M837.866,339.071v-1.856a3.34,3.34,0,0,1,3.34-3.34h7.422a3.34,3.34,0,0,1,3.34,3.34v1.856" transform="translate(-36.431 -39.148)" fill="none" stroke="#ffc200" stroke-miterlimit="10" stroke-width="1.3"/>
  </g>
</svg>
