<svg xmlns="http://www.w3.org/2000/svg" width="43.668" height="43.668" viewBox="0 0 43.668 43.668">
  <g id="支付" transform="translate(-29.689 -221.377)">
    <path id="路径_950" data-name="路径 950" d="M72.754,230.886H55v-7.448a1.864,1.864,0,0,0-1.862-1.861H31.75a1.864,1.864,0,0,0-1.861,1.861v39.545a1.863,1.863,0,0,0,1.861,1.861H53.137A1.863,1.863,0,0,0,55,262.984v-10.19H72.754a.4.4,0,0,0,.4-.4v-21.1A.4.4,0,0,0,72.754,230.886Zm-42.06-7.448a1.057,1.057,0,0,1,1.056-1.056H53.137a1.057,1.057,0,0,1,1.056,1.056v39.545a1.058,1.058,0,0,1-1.056,1.056H31.75a1.057,1.057,0,0,1-1.056-1.056Zm41.657,28.55H55V236.594H72.351Zm0-16.2H55v-4.1H72.351Z" transform="translate(0 0)" fill="#ef54a1" stroke="#ef54a1" stroke-width="0.4"/>
    <path id="路径_951" data-name="路径 951" d="M104.7,278.078a3.915,3.915,0,0,0,2.022-.549l.234-.139.234.138a3.986,3.986,0,1,0,0-6.871l-.234.139-.234-.139a3.915,3.915,0,0,0-2.022-.55,3.986,3.986,0,0,0,0,7.971Zm4.509-7.166a3.18,3.18,0,1,1-3.18,3.18A3.184,3.184,0,0,1,109.212,270.913Zm-4.509,0a3.171,3.171,0,0,1,1.035.172l.583.2-.357.5a3.976,3.976,0,0,0,0,4.613l.358.5-.584.2a3.181,3.181,0,1,1-1.035-6.189Z" transform="translate(-42.969 -29.441)" fill="#ef54a1" stroke="#ef54a1" stroke-width="0.4"/>
    <path id="路径_952" data-name="路径 952" d="M46.8,269.813a22.877,22.877,0,0,0,3.534,1.9.4.4,0,0,0,.307,0,22.942,22.942,0,0,0,3.537-1.9c2.42-1.606,3.647-3.227,3.647-4.818v-8.538a.4.4,0,0,0-.185-.339h0a.4.4,0,0,0-.385-.027,4.022,4.022,0,0,1-1.689.368,4.074,4.074,0,0,1-3.665-2.322.405.405,0,0,0-.364-.23H49.446a.4.4,0,0,0-.364.231,4.074,4.074,0,0,1-3.665,2.322,4.022,4.022,0,0,1-1.689-.368.4.4,0,0,0-.571.366v8.538C43.157,266.586,44.384,268.207,46.8,269.813Zm-2.841-12.736.546.1a4.867,4.867,0,0,0,5.058-2.248l.135-.22h1.583l.135.22a4.867,4.867,0,0,0,5.058,2.248l.546-.1v7.918c0,2.907-5.693,5.536-6.342,5.827l-.188.084-.188-.084c-.649-.29-6.342-2.921-6.342-5.827Z" transform="translate(-8.049 -19.613)" fill="#ef54a1" stroke="#ef54a1" stroke-width="0.4"/>
    <path id="路径_953" data-name="路径 953" d="M55.807,275.71a.412.412,0,0,0,.57,0l3.549-3.549a.4.4,0,1,0-.57-.57l-3.264,3.264-1.864-1.864a.4.4,0,0,0-.688.285.4.4,0,0,0,.118.284Z" transform="translate(-14.349 -30.27)" fill="#ef54a1" stroke="#ef54a1" stroke-width="0.4"/>
  </g>
</svg>
