<svg xmlns="http://www.w3.org/2000/svg" width="604" height="434" viewBox="0 0 604 434">
  <g id="秘密网络" transform="translate(-958 -1215)">
    <g id="secure-global-network-technology-network-cyber-security-concept_24070-685_拷贝" data-name="secure-global-network-technology-network-cyber-security-concept_24070-685 拷贝" transform="translate(960 1217)" fill="#fff" stroke="#0080f4" stroke-width="2" stroke-dasharray="10">
      <rect width="600" height="430" stroke="none"/>
      <rect x="-1" y="-1" width="602" height="432" fill="none"/>
    </g>
    <g id="组_21984" data-name="组 21984" transform="translate(8.283 337.493)">
      <g id="组_21662" data-name="组 21662" transform="translate(978.717 1099.31)">
        <path id="路径_37595" data-name="路径 37595" d="M304.9,564.261l-16.5-10.014-4.5,2.8,16.341,10.036" transform="translate(-283.893 -554.247)" fill="none" stroke="#1a1311" stroke-miterlimit="10" stroke-width="1.5"/>
        <path id="路径_37596" data-name="路径 37596" d="M320.178,571.548" transform="translate(-299.174 -561.533)" fill="none" stroke="#1a1311" stroke-miterlimit="10" stroke-width="1.5"/>
        <path id="路径_37597" data-name="路径 37597" d="M325.178,574.582" transform="translate(-301.279 -562.811)" fill="none" stroke="#1a1311" stroke-miterlimit="10" stroke-width="1.5"/>
        <line id="直线_165" data-name="直线 165" x1="20.578" y1="12.49" transform="translate(23.899 11.771)" fill="none" stroke="#1a1311" stroke-miterlimit="10" stroke-width="1.5"/>
        <path id="路径_37598" data-name="路径 37598" d="M360.727,596.158" transform="translate(-316.25 -571.897)" fill="none" stroke="#1a1311" stroke-miterlimit="10" stroke-width="1.5"/>
        <path id="路径_37599" data-name="路径 37599" d="M366.668,599.764" transform="translate(-318.752 -573.416)" fill="none" stroke="#1a1311" stroke-miterlimit="10" stroke-width="1.5"/>
        <line id="直线_166" data-name="直线 166" x1="23.619" y1="14.335" transform="translate(47.916 26.348)" fill="none" stroke="#1a1311" stroke-miterlimit="10" stroke-width="1.5"/>
        <line id="直线_167" data-name="直线 167" x1="23.533" y1="14.282" transform="translate(74.057 42.213)" fill="none" stroke="#1a1311" stroke-miterlimit="10" stroke-width="1.5"/>
        <line id="直线_168" data-name="直线 168" x1="23.661" y1="14.36" transform="translate(99.872 57.881)" fill="none" stroke="#1a1311" stroke-miterlimit="10" stroke-width="1.5"/>
        <line id="直线_169" data-name="直线 169" x1="24.781" y1="15.04" transform="translate(126.223 73.875)" fill="none" stroke="#1a1311" stroke-miterlimit="10" stroke-width="1.5"/>
        <line id="直线_170" data-name="直线 170" x1="29.997" y1="18.206" transform="translate(153.541 90.455)" fill="none" stroke="#1a1311" stroke-miterlimit="10" stroke-width="1.5"/>
        <path id="路径_37600" data-name="路径 37600" d="M595.437,748.043,627.38,767.66l5.55-3.688L601.341,744.8" transform="translate(-415.094 -634.495)" fill="none" stroke="#1a1311" stroke-miterlimit="10" stroke-width="1.5"/>
        <line id="直线_171" data-name="直线 171" x2="29.317" y2="18.005" transform="translate(148.011 93.692)" fill="none" stroke="#1a1311" stroke-miterlimit="10" stroke-width="1.5"/>
        <line id="直线_172" data-name="直线 172" x2="24.692" y2="15.163" transform="translate(120.691 76.914)" fill="none" stroke="#1a1311" stroke-miterlimit="10" stroke-width="1.5"/>
        <line id="直线_173" data-name="直线 173" x2="22.631" y2="13.898" transform="translate(95.107 61.203)" fill="none" stroke="#1a1311" stroke-miterlimit="10" stroke-width="1.5"/>
        <line id="直线_174" data-name="直线 174" x2="23.04" y2="14.149" transform="translate(68.989 45.163)" fill="none" stroke="#1a1311" stroke-miterlimit="10" stroke-width="1.5"/>
        <line id="直线_175" data-name="直线 175" x2="23.376" y2="14.355" transform="translate(42.832 29.099)" fill="none" stroke="#1a1311" stroke-miterlimit="10" stroke-width="1.5"/>
        <line id="直线_176" data-name="直线 176" x2="20.431" y2="12.547" transform="translate(19.061 14.501)" fill="none" stroke="#1a1311" stroke-miterlimit="10" stroke-width="1.5"/>
        <path id="路径_37601" data-name="路径 37601" d="M316.821,579.3" transform="translate(-297.76 -564.796)" fill="none" stroke="#1a1311" stroke-miterlimit="10" stroke-width="1.5"/>
        <path id="路径_37602" data-name="路径 37602" d="M312.123,576.412" transform="translate(-295.782 -563.581)" fill="none" stroke="#1a1311" stroke-miterlimit="10" stroke-width="1.5"/>
      </g>
      <path id="路径_37603" data-name="路径 37603" d="M668.048,785.961l75.336,46.078,71.474-42.456L802.674,781.7" transform="translate(533.044 449.275)" fill="none" stroke="#0080f4" stroke-miterlimit="10" stroke-width="1.5" stroke-dasharray="15 5"/>
      <g id="组_21492" data-name="组 21492" transform="translate(1226.47 1143.125)">
        <path id="路径_37604" data-name="路径 37604" d="M802.812,787.3,770.29,806.538l-53.3-32.359,58.394-3.756Z" transform="translate(-714.038 -689.101)" fill="none" stroke="#1a1311" stroke-miterlimit="10" stroke-width="1.5"/>
        <path id="路径_37605" data-name="路径 37605" d="M711.972,739.311l65.7-41.31a.007.007,0,0,1,.009,0v0l-2.627,36.58-63.064,4.783a.032.032,0,0,1-.021-.06Z" transform="translate(-711.918 -658.601)" fill="none" stroke="#1a1311" stroke-miterlimit="10" stroke-width="1.5"/>
        <path id="路径_37606" data-name="路径 37606" d="M802.631,789.01l-26.818,15.919-46.078-27.117,49.783-2.986Z" transform="translate(-719.405 -690.955)" fill="none" stroke="#1a1311" stroke-miterlimit="10" stroke-width="1"/>
        <path id="路径_37607" data-name="路径 37607" d="M829.49,737.062,856.646,754.7l32.293-19.392-56.7-33.607Z" transform="translate(-761.415 -660.16)" fill="none" stroke="#1a1311" stroke-miterlimit="10" stroke-width="1.5"/>
        <path id="路径_37608" data-name="路径 37608" d="M836.677,709.133l-1.752,30.182,23.811,15.29,26.758-16.087Z" transform="translate(-763.704 -663.29)" fill="none" stroke="#1a1311" stroke-miterlimit="10" stroke-width="1"/>
        <g id="组_21489" data-name="组 21489" transform="translate(128.002)">
          <line id="直线_177" data-name="直线 177" y2="6.788" fill="none" stroke="#1a1311" stroke-miterlimit="10" stroke-width="1.5"/>
          <line id="直线_178" data-name="直线 178" y2="6.788" transform="translate(0 9.306)" fill="none" stroke="#1a1311" stroke-miterlimit="10" stroke-width="1.5"/>
          <line id="直线_179" data-name="直线 179" y2="6.788" transform="translate(0 18.955)" fill="none" stroke="#1a1311" stroke-miterlimit="10" stroke-width="1.5"/>
          <line id="直线_180" data-name="直线 180" y2="7.635" transform="translate(0 28.382)" fill="none" stroke="#1a1311" stroke-miterlimit="10" stroke-width="1.5"/>
          <line id="直线_181" data-name="直线 181" y2="7.312" transform="translate(0 38.777)" fill="none" stroke="#1a1311" stroke-miterlimit="10" stroke-width="1.5"/>
          <line id="直线_182" data-name="直线 182" y2="6.949" transform="translate(0 48.687)" fill="none" stroke="#1a1311" stroke-miterlimit="10" stroke-width="1.5"/>
          <line id="直线_183" data-name="直线 183" y2="6.949" transform="translate(0 58.497)" fill="none" stroke="#1a1311" stroke-miterlimit="10" stroke-width="1.5"/>
          <line id="直线_184" data-name="直线 184" y2="6.949" transform="translate(0 68.096)" fill="none" stroke="#1a1311" stroke-miterlimit="10" stroke-width="1.5"/>
        </g>
        <g id="组_21490" data-name="组 21490" transform="translate(65.765 4.731)">
          <line id="直线_185" data-name="直线 185" y2="7.312" fill="none" stroke="#1a1311" stroke-miterlimit="10" stroke-width="1.5"/>
          <line id="直线_186" data-name="直线 186" y2="6.949" transform="translate(0 9.911)" fill="none" stroke="#1a1311" stroke-miterlimit="10" stroke-width="1.5"/>
          <line id="直线_187" data-name="直线 187" y2="6.949" transform="translate(0 19.243)" fill="none" stroke="#1a1311" stroke-miterlimit="10" stroke-width="1.5"/>
          <line id="直线_188" data-name="直线 188" y2="6.949" transform="translate(0 28.841)" fill="none" stroke="#1a1311" stroke-miterlimit="10" stroke-width="1.5"/>
        </g>
        <g id="组_21491" data-name="组 21491" transform="translate(0 6.582)">
          <line id="直线_189" data-name="直线 189" y2="6.711" fill="none" stroke="#1a1311" stroke-miterlimit="10" stroke-width="1.5"/>
          <line id="直线_190" data-name="直线 190" y2="6.711" transform="translate(0 9.201)" fill="none" stroke="#1a1311" stroke-miterlimit="10" stroke-width="1.5"/>
          <line id="直线_191" data-name="直线 191" y2="6.711" transform="translate(0 18.741)" fill="none" stroke="#1a1311" stroke-miterlimit="10" stroke-width="1.5"/>
          <line id="直线_192" data-name="直线 192" y2="7.548" transform="translate(0 28.061)" fill="none" stroke="#1a1311" stroke-miterlimit="10" stroke-width="1.5"/>
          <line id="直线_193" data-name="直线 193" y2="7.229" transform="translate(0 38.338)" fill="none" stroke="#1a1311" stroke-miterlimit="10" stroke-width="1.5"/>
          <line id="直线_194" data-name="直线 194" y2="6.871" transform="translate(0 48.136)" fill="none" stroke="#1a1311" stroke-miterlimit="10" stroke-width="1.5"/>
          <line id="直线_195" data-name="直线 195" y2="6.871" transform="translate(0 57.835)" fill="none" stroke="#1a1311" stroke-miterlimit="10" stroke-width="1.5"/>
          <line id="直线_196" data-name="直线 196" y2="6.871" transform="translate(0 67.325)" fill="none" stroke="#1a1311" stroke-miterlimit="10" stroke-width="1.5"/>
        </g>
      </g>
      <path id="路径_37609" data-name="路径 37609" d="M1121.321,542.814l-16.066,9.377,5.495-29.744,41.451,2.329-13.917,7.7,18.575,11.886L1139,554.879Z" transform="translate(348.922 558.455)" fill="none" stroke="#1a1311" stroke-miterlimit="10" stroke-width="1.5"/>
      <path id="路径_37610" data-name="路径 37610" d="M1028,563.372l5.367,3.337-34.4,20.756L965.434,608.17l-69.841-41.85" transform="translate(437.217 541.22)" fill="none" stroke="#0080f4" stroke-miterlimit="10" stroke-width="1.5"/>
      <path id="路径_37611" data-name="路径 37611" d="M1044.13,556.829s-33.248-4.181-40.017-23.213c-1.991-5.814-1.752-33.846,45.472-32.413,0,0,17.719-18.077,50.689-4.937,0,0,14.454-2.986,18.037,2.986,0,0,11.467-2.15,13.737,5.734v4.6l-22.7,14.335-9.885-6.331" transform="translate(391.77 571.496)" fill="none" stroke="#1a1311" stroke-miterlimit="10" stroke-width="1.5"/>
      <g id="组_21498" data-name="组 21498" transform="translate(1086.48 1107.958)">
        <line id="直线_242" data-name="直线 242" x2="135.536" y2="82.717" transform="translate(0 32.258)" fill="none" stroke="#0080f4" stroke-miterlimit="10" stroke-width="1.5" stroke-dasharray="26 5"/>
        <line id="直线_243" data-name="直线 243" x1="56.876" y2="32.257" transform="translate(0)" fill="none" stroke="#0080f4" stroke-miterlimit="10" stroke-width="1.5" stroke-dasharray="29 5"/>
      </g>
      <ellipse id="椭圆_1654" data-name="椭圆 1654" cx="88.342" cy="48.444" rx="88.342" ry="48.444" transform="translate(1151.08 1043.264)" fill="none" stroke="#1a1311" stroke-miterlimit="10" stroke-width="1.5"/>
      <ellipse id="椭圆_1655" data-name="椭圆 1655" cx="95.386" cy="53.157" rx="95.386" ry="53.157" transform="translate(1143.909 1039.332)" fill="none" stroke="#0080f4" stroke-miterlimit="10" stroke-width="1.5" stroke-dasharray="29 5"/>
      <path id="路径_37612" data-name="路径 37612" d="M776.313,497.226,663.421,559.632,639,475.727Z" transform="translate(545.276 578.13)" fill="none" stroke="#1a1311" stroke-miterlimit="10" stroke-width="1.5"/>
      <path id="路径_37613" data-name="路径 37613" d="M770.439,501.761,668.385,557.706l-23.174-75.018Z" transform="translate(542.661 575.198)" fill="none" stroke="#1a1311" stroke-miterlimit="10" stroke-width="1" stroke-dasharray="10 5"/>
      <g id="组_21500" data-name="组 21500" transform="translate(1239.477 904.507)">
        <path id="路径_37618" data-name="路径 37618" d="M952.409,261.709l-38.863,22.259L955.555,307.1l59.249-35.916-41.849-20.308" transform="translate(-809.82 -231.686)" fill="none" stroke="#1a1311" stroke-miterlimit="10" stroke-width="1.5"/>
        <g id="组_21675" data-name="组 21675" transform="translate(0 22.796)">
          <line id="直线_244" data-name="直线 244" y1="6.789" transform="translate(34.343 104.842)" fill="none" stroke="#0080f4" stroke-miterlimit="10" stroke-width="1.5"/>
          <path id="路径_37619" data-name="路径 37619" d="M793.687,429.456v-6.271l2.369-1.613" transform="translate(-759.343 -326.366)" fill="none" stroke="#0080f4" stroke-miterlimit="10" stroke-width="1.5"/>
          <line id="直线_245" data-name="直线 245" y1="2.588" x2="4.201" transform="translate(38.883 91.443)" fill="none" stroke="#0080f4" stroke-miterlimit="10" stroke-width="1.5"/>
          <line id="直线_246" data-name="直线 246" x2="7.207" y2="4.44" transform="translate(35.837 82.105)" fill="none" stroke="#0080f4" stroke-miterlimit="10" stroke-width="1.5"/>
          <line id="直线_247" data-name="直线 247" x2="7.565" y2="4.639" transform="translate(26.28 76.332)" fill="none" stroke="#0080f4" stroke-miterlimit="10" stroke-width="1.5"/>
          <line id="直线_248" data-name="直线 248" x2="6.67" y2="3.962" transform="translate(17.361 71.195)" fill="none" stroke="#0080f4" stroke-miterlimit="10" stroke-width="1.5"/>
          <line id="直线_249" data-name="直线 249" x1="8.123" y1="4.977" transform="translate(7.168 65.024)" fill="none" stroke="#0080f4" stroke-miterlimit="10" stroke-width="1.5"/>
          <line id="直线_250" data-name="直线 250" x1="4.3" y1="2.728" transform="translate(0.737 61.181)" fill="none" stroke="#0080f4" stroke-miterlimit="10" stroke-width="1.5"/>
          <line id="直线_251" data-name="直线 251" x1="3.743" y2="2.668" transform="translate(0 56.542)" fill="none" stroke="#0080f4" stroke-miterlimit="10" stroke-width="1.5"/>
          <line id="直线_252" data-name="直线 252" y1="5.117" x2="8.421" transform="translate(6.032 50.271)" fill="none" stroke="#0080f4" stroke-miterlimit="10" stroke-width="1.5"/>
          <line id="直线_253" data-name="直线 253" y1="4.5" x2="7.764" transform="translate(16.385 44.577)" fill="none" stroke="#0080f4" stroke-miterlimit="10" stroke-width="1.5"/>
          <line id="直线_254" data-name="直线 254" y1="5.375" x2="8.959" transform="translate(26.499 37.987)" fill="none" stroke="#0080f4" stroke-miterlimit="10" stroke-width="1.5"/>
          <line id="直线_255" data-name="直线 255" x1="7.207" y2="4.3" transform="translate(37.907 32.432)" fill="none" stroke="#0080f4" stroke-miterlimit="10" stroke-width="1.5"/>
          <line id="直线_256" data-name="直线 256" y1="5.216" x2="8.601" transform="translate(47.384 26.021)" fill="none" stroke="#0080f4" stroke-miterlimit="10" stroke-width="1.5"/>
          <line id="直线_257" data-name="直线 257" y1="5.614" x2="9.317" transform="translate(58.603 19.17)" fill="none" stroke="#0080f4" stroke-miterlimit="10" stroke-width="1.5"/>
          <line id="直线_258" data-name="直线 258" y1="5.535" x2="9.019" transform="translate(70.299 12.284)" fill="none" stroke="#0080f4" stroke-miterlimit="10" stroke-width="1.5"/>
          <line id="直线_259" data-name="直线 259" y1="4.917" x2="8.262" transform="translate(81.408 6.112)" fill="none" stroke="#0080f4" stroke-miterlimit="10" stroke-width="1.5"/>
          <line id="直线_260" data-name="直线 260" y1="4.977" x2="7.963" transform="translate(91.92)" fill="none" stroke="#0080f4" stroke-miterlimit="10" stroke-width="1.5"/>
          <line id="直线_261" data-name="直线 261" x2="6.67" y2="3.882" transform="translate(102.293 0.08)" fill="none" stroke="#0080f4" stroke-miterlimit="10" stroke-width="1.5"/>
          <line id="直线_262" data-name="直线 262" x2="7.486" y2="4.241" transform="translate(111.192 5.057)" fill="none" stroke="#0080f4" stroke-miterlimit="10" stroke-width="1.5"/>
          <line id="直线_263" data-name="直线 263" x2="2.543" y2="1.631" transform="translate(120.828 10.612)" fill="none" stroke="#0080f4" stroke-miterlimit="10" stroke-width="1.5"/>
        </g>
        <circle id="椭圆_1656" data-name="椭圆 1656" cx="4.739" cy="4.739" r="4.739" transform="translate(146.372 4.619)" fill="none" stroke="#1a1311" stroke-miterlimit="10" stroke-width="1.5"/>
        <path id="路径_37620" data-name="路径 37620" d="M997.872,229.987c.2-6.968-5.07-12.264-11.03-12.264s-11.388,5.008-11.388,12.085c0,6.689,10.273,26.951,11.029,26.937C988.176,256.745,997.7,235.944,997.872,229.987Z" transform="translate(-835.891 -217.723)" fill="none" stroke="#1a1311" stroke-miterlimit="10" stroke-width="1.5"/>
        <path id="路径_37617" data-name="路径 37617" d="M942.941,253.2l-46.11,27.116,51.127,29.625,70.39-42.018-51.079-25.713" transform="translate(-802.781 -228.036)" fill="none" stroke="#1a1311" stroke-miterlimit="10" stroke-width="1.5"/>
      </g>
      <path id="路径_37627" data-name="路径 37627" d="M410.261,413.808l-12.194,29.841,36.9,19.6,49.48-7.985,12.34-27.7-35.812-21.291Z" transform="translate(646.119 607.023)" fill="none" stroke="#1a1311" stroke-miterlimit="10" stroke-width="1.5"/>
      <path id="路径_37628" data-name="路径 37628" d="M415.33,418.473l-10.871,25.8,34.164,17.679,45.393-8,10.512-23.413-32.134-19.113Z" transform="translate(644.049 605.21)" fill="none" stroke="#1a1311" stroke-miterlimit="10" stroke-width="1"/>
      <g id="组_21505" data-name="组 21505" transform="translate(1136.845 1067.164)">
        <line id="直线_302" data-name="直线 302" x2="4.241" y2="2.389" fill="none" stroke="#0080f4" stroke-miterlimit="10" stroke-width="2"/>
        <line id="直线_303" data-name="直线 303" x2="4.3" y2="2.509" transform="translate(6.331 3.703)" fill="none" stroke="#0080f4" stroke-miterlimit="10" stroke-width="2"/>
      </g>
      <g id="组_21982" data-name="组 21982" transform="translate(1205.237 1070.261)">
        <ellipse id="椭圆_1657" data-name="椭圆 1657" cx="28.789" cy="17.589" rx="28.789" ry="17.589" transform="translate(0 0.349)" fill="none" stroke="#1a1311" stroke-miterlimit="10" stroke-width="1.5"/>
        <line id="直线_304" data-name="直线 304" x1="39.083" y2="25.829" transform="translate(9.075 4.926)" fill="none" stroke="#1a1311" stroke-miterlimit="10" stroke-width="1.5"/>
        <path id="路径_37629" data-name="路径 37629" d="M510.226,454.249c-3.4-1.586-10.993-.156-18.156,4.416-6.295,4.018-10.362,9.044-11,12.7" transform="translate(-452.491 -435.837)" fill="none" stroke="#1a1311" stroke-miterlimit="10" stroke-width="1.5"/>
        <path id="路径_37630" data-name="路径 37630" d="M431.7,441.819a38.953,38.953,0,0,0,17.082-3.584c8.93-4.271,14.262-10.5,14.717-15.34" transform="translate(-431.698 -422.895)" fill="none" stroke="#1a1311" stroke-miterlimit="10" stroke-width="1.5"/>
        <line id="直线_305" data-name="直线 305" x2="43.914" y2="22.744" transform="translate(7.154 6.335)" fill="none" stroke="#1a1311" stroke-miterlimit="10" stroke-width="1.5"/>
        <g id="组_21506" data-name="组 21506" transform="translate(3.56 4.442)">
          <path id="路径_37631" data-name="路径 37631" d="M444.974,432.276c4.747-2.938,15.029-2.084,25.6,2.56,12.919,5.673,19.755,14.216,18.622,19.714" transform="translate(-440.849 -430.568)" fill="none" stroke="#1a1311" stroke-miterlimit="10" stroke-width="1.5" stroke-dasharray="10 5"/>
          <path id="路径_37632" data-name="路径 37632" d="M482.189,460.431c-4.747,2.938-15.029,2.084-25.6-2.56-12.919-5.673-19.754-14.216-18.622-19.714" transform="translate(-437.847 -433.764)" fill="none" stroke="#1a1311" stroke-miterlimit="10" stroke-width="1.5" stroke-dasharray="10 5"/>
        </g>
      </g>
      <g id="组_21508" data-name="组 21508" transform="translate(1395.279 1070.91)">
        <ellipse id="椭圆_1658" data-name="椭圆 1658" cx="1.078" cy="0.874" rx="1.078" ry="0.874" transform="translate(7.661 6.079)" fill="#1a1311"/>
        <path id="路径_37633" data-name="路径 37633" d="M1015.347,509.227s-6.6-1.389-7.675,5.152" transform="translate(-1005.262 -506.836)" fill="none" stroke="#1a1311" stroke-linecap="round" stroke-miterlimit="10" stroke-width="1"/>
        <path id="路径_37634" data-name="路径 37634" d="M1013.8,505.293s-10.413-1.583-10.288,7.436" transform="translate(-1003.508 -505.186)" fill="none" stroke="#1a1311" stroke-linecap="round" stroke-miterlimit="10" stroke-width="1"/>
        <path id="路径_37635" data-name="路径 37635" d="M1017,513.226s-3.624-.269-4.061,3.171" transform="translate(-1007.482 -508.57)" fill="none" stroke="#1a1311" stroke-linecap="round" stroke-miterlimit="10" stroke-width="1"/>
      </g>
      <ellipse id="椭圆_1648" data-name="椭圆 1648" cx="4.76" cy="3.231" rx="4.76" ry="3.231" transform="translate(1397.124 1145.64)" fill="#fff" stroke="#0080f4" stroke-width="2"/>
      <ellipse id="椭圆_1651" data-name="椭圆 1651" cx="5.531" cy="3.231" rx="5.531" ry="3.231" transform="translate(1233.202 984.615)" fill="#fff" stroke="#0080f4" stroke-width="2"/>
      <ellipse id="椭圆_1652" data-name="椭圆 1652" cx="4.76" cy="3.231" rx="4.76" ry="3.231" transform="translate(1082.473 1136.472)" fill="#fff" stroke="#0080f4" stroke-width="2"/>
      <ellipse id="椭圆_1653" data-name="椭圆 1653" cx="5.531" cy="4.002" rx="5.531" ry="4.002" transform="translate(1270.747 1275.666)" fill="#fff" stroke="#0080f4" stroke-width="2"/>
      <ellipse id="椭圆_1649" data-name="椭圆 1649" cx="5.531" cy="3.231" rx="5.531" ry="3.231" transform="translate(1278.864 1012.926)" fill="#fff" stroke="#0080f4" stroke-width="2"/>
      <path id="路径_37628-2" data-name="路径 37628" d="M412.483,416.627l-8.024,19.047,25.219,13.05,33.507-5.908,7.76-17.283-23.72-14.109Z" transform="translate(655.841 611.825)" fill="none" stroke="#1a1311" stroke-miterlimit="10" stroke-width="1"/>
      <g id="组_21983" data-name="组 21983" transform="translate(1071.395 989.186)">
        <path id="路径_39918" data-name="路径 39918" d="M451.526,1386.888a17.28,17.28,0,0,1,14.9-7.805c4.625-.014,9.425,1.88,12.227,5.675-2.027,1.027-.326,4.6,1.8,4.015a3.888,3.888,0,0,1,.758-.286c.821,1.526.724,3.305,1.025,4.965a23.279,23.279,0,0,1-.807,8.393c-.346.98-.838,2.169-.148,3.118a6.925,6.925,0,0,1-.287,7.5,8.916,8.916,0,0,1-4.043,2.361,19.076,19.076,0,0,1-5.341.969,3.611,3.611,0,0,0-.289-2.926c1.9-.7,3.876-1.71,4.917-3.52.354-.309-.209-1.134-.482-.557a8.267,8.267,0,0,1-5.72,2.943c-1.013-.251-2.2-.724-3.143-.017-2.136,1.156-2.192,4.887.128,5.875a3.319,3.319,0,0,0,4.118-.989,20.077,20.077,0,0,0,5.251-.518,3.67,3.67,0,0,0-.649,2.834c1.476-.078,2.843-.916,4.352-.621,3.539.342,6.176,3.3,7.393,6.449-1.679-.287-2.9-1.787-4.664-1.765a8.489,8.489,0,0,0-5.271,1.331c-2.823,1.626-5.48,3.656-8.663,4.547a11.446,11.446,0,0,1-5.928-.022c-3.163-1.364-5.265-4.246-7.164-7-.8-1.37-1.5-2.8-2.264-4.187.551-1.415.791-3.172-.267-4.422a3.721,3.721,0,0,0-1.974-1.309,53.82,53.82,0,0,1-2.2-10.99,31.2,31.2,0,0,1,2.431-14.045Zm-.716,7.64h0a4.8,4.8,0,0,0,1.534,4.873c.83.677,2,.25,2.782-.292a1.634,1.634,0,0,0,.362-1.22c-.023-.624-.8-.69-1.211-.983-1.392-.643-1.955-2.166-2.651-3.419-.638-.176-.71.61-.816,1.041Zm15.349-.807h0a8.672,8.672,0,0,1-1.648,2.771,8.321,8.321,0,0,1-2.208,1.339c-.376,1.765,2.049,2.846,3.305,1.779a4.9,4.9,0,0,0,1.376-4.823C466.883,1394.32,466.811,1393.629,466.159,1393.721Z" transform="translate(-445.321 -1377.746)" fill="#fff" fill-rule="evenodd"/>
        <path id="路径_39919" data-name="路径 39919" d="M525.965,1388.526c-.228,1.779-.376,3.8-1.765,5.1a2.121,2.121,0,0,1-1.835-2.172A7.608,7.608,0,0,0,525.965,1388.526Z" transform="translate(-489.191 -1383.408)" fill="#fff" fill-rule="evenodd"/>
        <path id="路径_39920" data-name="路径 39920" d="M450.53,1390.461a21.033,21.033,0,0,0,1.556,1.431c-.42.641-.8,1.3-1.234,1.935A9.525,9.525,0,0,1,450.53,1390.461Z" transform="translate(-446.188 -1384.566)" fill="#fff" fill-rule="evenodd"/>
        <path id="路径_39921" data-name="路径 39921" d="M455.114,1418.892a4.622,4.622,0,0,0,3.113,2.979c-.017.123-.047.368-.064.493-.565.161-1.2.462-1.746.081A3.493,3.493,0,0,1,455.114,1418.892Z" transform="translate(-448.884 -1401.584)" fill="#fff" fill-rule="evenodd"/>
        <path id="路径_39922" data-name="路径 39922" d="M483.988,1422.655a4.549,4.549,0,0,0,3.144-2.979,3.337,3.337,0,0,1-1.139,3.419,1.7,1.7,0,0,1-1.866-.011C484.094,1422.976,484.021,1422.761,483.988,1422.655Z" transform="translate(-466.221 -1402.053)" fill="#fff" fill-rule="evenodd"/>
        <path id="路径_39923" data-name="路径 39923" d="M442.882,1449.931a14.74,14.74,0,0,1,1.49-7.588c.331,1.815.654,3.636,1.158,5.413a20.489,20.489,0,0,0,.729,3.205c2.782-.385,3.561,4.071,1.234,5.179a2.766,2.766,0,0,1-3.224-3.132A6,6,0,0,1,442.882,1449.931Z" transform="translate(-441.594 -1415.62)" fill="#fff" fill-rule="evenodd"/>
        <path id="路径_39924" data-name="路径 39924" d="M493.033,1462.408c1.44-.866,3.781.4,3.589,2.169-.016,1.295-1.4,1.952-2.517,2.069a3.372,3.372,0,0,1-1.774-.824A2.871,2.871,0,0,1,493.033,1462.408Z" transform="translate(-471.033 -1427.462)" fill="#fff" fill-rule="evenodd"/>
        <path id="路径_39925" data-name="路径 39925" d="M458.515,1375.828a27.834,27.834,0,0,1,4.864.2c1.47.387,2.951.749,4.385,1.267a18.458,18.458,0,0,1,6.435,4.658,7.353,7.353,0,0,0,1.5-1.475c1.3-1.717,1.8-1.982,1.65.94a10.118,10.118,0,0,1-1.008,3.938,18.863,18.863,0,0,1,1.579,6.081c.017,1.682-.12,3.358-.184,5.037a39.342,39.342,0,0,1-.933,5.3,16.025,16.025,0,0,0,.721,2.166,8.978,8.978,0,0,1-.646,6.6,11.515,11.515,0,0,1-4.088,2.927c-.284.746-.941,1.353-.972,2.186l.373-.32a6.251,6.251,0,0,1,2.575-.27,9.518,9.518,0,0,1,3.887,1.451,12.6,12.6,0,0,1,4.42,5.65c.53,1.263.534,2.035-1.188,1.834-1.758-.206-3.306-1.8-5.16-1.815-2.715-.078-4.831,1.863-7.025,3.172a24.806,24.806,0,0,1-6.121,2.826,14.909,14.909,0,0,1-7.518-.367,14.437,14.437,0,0,1-5.316-4.817,32.8,32.8,0,0,1-3.7-6.118c-.381-.147-.749.228-1.119.309a3.283,3.283,0,0,1-4.2-1.8c-.312-.629-.368-1.348-.674-1.977a12.5,12.5,0,0,1-.54-9.991,32.622,32.622,0,0,1,1.735-3.567c.042-1.044-.053-2.083-.109-3.125a43.3,43.3,0,0,1,1.192-8.54,10.715,10.715,0,0,0,.587-2.069,8.876,8.876,0,0,1-.391-5.8c.307-1.463.541-1.415,1.033-.141a3.069,3.069,0,0,0,1.776,2.025c1.275-1.891,3.311-3.024,5.2-4.193a19.478,19.478,0,0,1,6.972-2.177Zm-12.578,9.091h0a31.2,31.2,0,0,0-2.431,14.045,53.818,53.818,0,0,0,2.2,10.99,3.722,3.722,0,0,1,1.974,1.309c1.058,1.25.819,3.007.267,4.422.768,1.386,1.465,2.818,2.264,4.188,1.9,2.751,4,5.633,7.164,7a11.444,11.444,0,0,0,5.928.023c3.183-.891,5.839-2.921,8.663-4.547a8.491,8.491,0,0,1,5.271-1.331c1.765-.022,2.985,1.479,4.664,1.765-1.217-3.149-3.854-6.106-7.393-6.449-1.509-.3-2.876.543-4.352.621a3.67,3.67,0,0,1,.649-2.834,20.077,20.077,0,0,1-5.251.518,3.319,3.319,0,0,1-4.118.988c-2.32-.988-2.264-4.72-.128-5.875.941-.707,2.13-.234,3.143.017a8.268,8.268,0,0,0,5.72-2.944c.273-.576.835.248.482.557-1.041,1.81-3.021,2.823-4.917,3.519a3.612,3.612,0,0,1,.289,2.926,19.071,19.071,0,0,0,5.341-.969,8.916,8.916,0,0,0,4.043-2.361,6.924,6.924,0,0,0,.287-7.5c-.69-.949-.2-2.139.148-3.119a23.279,23.279,0,0,0,.807-8.392c-.3-1.66-.2-3.439-1.025-4.965a3.875,3.875,0,0,0-.758.287c-2.13.582-3.831-2.988-1.8-4.015-2.8-3.8-7.6-5.689-12.227-5.675a17.28,17.28,0,0,0-14.9,7.805Zm30.568-4.024h0a7.609,7.609,0,0,1-3.6,2.924,2.121,2.121,0,0,0,1.835,2.172c1.389-1.3,1.537-3.316,1.765-5.1Zm-32.431.777h0a9.525,9.525,0,0,0,.323,3.367c.429-.632.813-1.295,1.234-1.935a20.993,20.993,0,0,1-1.556-1.431Zm-3.055,28.416h0a6,6,0,0,0,1.387,3.077,2.766,2.766,0,0,0,3.224,3.132c2.328-1.108,1.548-5.563-1.234-5.179a20.485,20.485,0,0,1-.729-3.205c-.5-1.776-.827-3.6-1.158-5.413a14.741,14.741,0,0,0-1.49,7.588Zm20.711.635h0a2.871,2.871,0,0,0-.7,3.414,3.372,3.372,0,0,0,1.774.824c1.114-.117,2.5-.774,2.517-2.069C465.513,1411.119,463.171,1409.857,461.732,1410.723Z" transform="translate(-439.732 -1375.778)" fill="#070203" fill-rule="evenodd"/>
        <path id="路径_39926" data-name="路径 39926" d="M453.225,1415.991c.106-.432.178-1.217.816-1.041.7,1.253,1.259,2.776,2.651,3.419.415.292,1.189.359,1.211.983a1.633,1.633,0,0,1-.362,1.219c-.785.543-1.952.969-2.782.292a4.8,4.8,0,0,1-1.534-4.873Zm.741.526h0a3.493,3.493,0,0,0,1.3,3.553c.549.381,1.181.081,1.746-.081.017-.125.047-.37.064-.493A4.622,4.622,0,0,1,453.966,1416.517Z" transform="translate(-447.735 -1399.209)" fill="#070203" fill-rule="evenodd"/>
        <path id="路径_39927" data-name="路径 39927" d="M485.831,1415.558c.652-.092.724.6.824,1.066a4.9,4.9,0,0,1-1.376,4.823c-1.256,1.067-3.681-.014-3.305-1.779a8.312,8.312,0,0,0,2.208-1.339,8.671,8.671,0,0,0,1.648-2.77Zm-3.072,4.628h0c.033.106.106.32.139.429a1.7,1.7,0,0,0,1.866.011,3.337,3.337,0,0,0,1.139-3.419A4.549,4.549,0,0,1,482.759,1420.185Z" transform="translate(-464.992 -1399.583)" fill="#070203" fill-rule="evenodd"/>
      </g>
    </g>
  </g>
</svg>
