<svg xmlns="http://www.w3.org/2000/svg" width="478.058" height="204.552" viewBox="0 0 478.058 204.552">
  <g id="糖果政策" transform="translate(1393.3 -4039)">
    <g id="用户" transform="translate(-2572.436 3769.742)">
      <g id="组_21413" data-name="组 21413">
        <line id="直线_163" data-name="直线 163" x2="5.419" transform="translate(1622.098 335.253)" fill="none" stroke="#6287de" stroke-linecap="round" stroke-miterlimit="10" stroke-width="1.2"/>
        <line id="直线_164" data-name="直线 164" y2="5.473" transform="translate(1624.808 332.516)" fill="none" stroke="#6287de" stroke-linecap="round" stroke-miterlimit="10" stroke-width="1.2"/>
      </g>
      <g id="组_21414" data-name="组 21414">
        <path id="路径_37363" data-name="路径 37363" d="M1579.9,373.495a.729.729,0,0,0,.548-.227.692.692,0,0,0-.062-.964.664.664,0,0,0-.489-.171h-6.62a3.994,3.994,0,0,1-.026-7.987h6.745a.685.685,0,0,0-.058-1.368h-6.661a5.362,5.362,0,1,0,0,10.725h5.115Z" fill="#6287de" stroke="#6287de" stroke-miterlimit="10" stroke-width="0.3"/>
        <path id="路径_37364" data-name="路径 37364" d="M1595.489,359.5a23.794,23.794,0,0,0-7.678-17.237,26.729,26.729,0,0,0-2.71-2.156l-3.122-2.048c-1.68-.72-3.6-1.4-3.988-1.509h-.008l-.064-.02a28.15,28.15,0,0,0-8.193-1.281h-.011a27.258,27.258,0,0,0-8.814,1.462.683.683,0,0,0-.465.648v69.319a.683.683,0,0,0,.72.62.688.688,0,0,0,.648-.723V337.846l.867-.239a25.909,25.909,0,0,1,7.037-.974h.005c13.467,0,24.41,10.365,24.41,23.1a.692.692,0,0,0,.02.161l3.53,14.119h-8.486a.685.685,0,0,0-.685.685V390.86l-18.03.009a.7.7,0,0,0-.564.752.687.687,0,0,0,.636.613h6.727l.057,14.491h0c.009,0,.039.075.082.144a.663.663,0,0,0,.163.182l.193.173,8.867,5.3v8.969a.694.694,0,0,0,.633.765.684.684,0,0,0,.732-.633.647.647,0,0,0,0-.1l0-9.391a.7.7,0,0,0-.335-.588l-9.026-5.427v-13.9h10.544a.688.688,0,0,0,.685-.686V375.381h8.675a.683.683,0,0,0,.683-.681.653.653,0,0,0-.021-.165Z" fill="#6287de" stroke="#6287de" stroke-miterlimit="10" stroke-width="0.3"/>
      </g>
      <g id="组_21415" data-name="组 21415">
        <path id="路径_37365" data-name="路径 37365" d="M1638.514,386.51a5.38,5.38,0,0,0-5.35-5h-6.732a.679.679,0,0,0-.607.72.668.668,0,0,0,.725.646h6.614a3.995,3.995,0,0,1,.027,7.988h-6.576a.669.669,0,0,0-.415.249.685.685,0,0,0,.486,1.115h6.871A5.364,5.364,0,0,0,1638.514,386.51Z" fill="#6287de" stroke="#6287de" stroke-miterlimit="10" stroke-width="0.3"/>
        <path id="路径_37366" data-name="路径 37366" d="M1647.883,421.483V357.4a.687.687,0,0,0-.465-.648,28.125,28.125,0,0,0-8.976-1.462,26.181,26.181,0,0,0-17.929,7.01l-.618.613a7.523,7.523,0,0,0-1.337,1.237l-1.337,1.875a23.4,23.4,0,0,0-4.394,13.516l-.025.227-3.7,14.8a.69.69,0,0,0,.665.852h8.674v16.163a.687.687,0,0,0,.685.678h10.544v9.216a.685.685,0,0,0,.685.684H1647.2a.685.685,0,0,0,.683-.623Zm-16.846-.678v-8.536h4.925a.689.689,0,0,0,.4-1.138.7.7,0,0,0-.472-.228h-5.678l-.031-.009H1619.8V394.738a.686.686,0,0,0-.685-.685h-8.487l3.532-14.12a.578.578,0,0,0,.02-.157c0-12.744,10.943-23.108,24.394-23.108a23.525,23.525,0,0,1,7.067.977l.858.235.011,62.925Z" fill="#6287de" stroke="#6287de" stroke-miterlimit="10" stroke-width="0.3"/>
      </g>
      <path id="路径_37367" data-name="路径 37367" d="M1611,342.867l-1.948-7.886a12.485,12.485,0,0,0-4.028-9.043,13.962,13.962,0,0,0-1.422-1.132l-1.6-1.132a19.642,19.642,0,0,0-2.126-.734h-.005l-.033-.011a14.754,14.754,0,0,0-4.3-.671h0a14.3,14.3,0,0,0-4.625.767.358.358,0,0,0-.244.34v23.061l.718,1.1V323.618l.454-.125a13.593,13.593,0,0,1,3.692-.511h0c7.065,0,12.807,5.437,12.807,12.121a.347.347,0,0,0,.01.084l1.852,7.408h-4.452a.359.359,0,0,0-.359.359v8.477l-9.46.005a.361.361,0,0,0,.038.716h3.529l.03,7.6h0c.005,0,.021.04.044.076a.335.335,0,0,0,.085.1l.1.091,4.652,2.78V367.5a.363.363,0,0,0,.332.4.359.359,0,0,0,.384-.332.444.444,0,0,0,0-.051v-4.927a.363.363,0,0,0-.176-.308l-4.735-2.848v-7.293h5.532a.361.361,0,0,0,.359-.36v-8.473h4.551a.356.356,0,0,0,.348-.444Z" fill="#6287de" stroke="#6287de" stroke-miterlimit="10" stroke-width="0.8"/>
      <path id="路径_37368" data-name="路径 37368" d="M1656.894,384.722V336.587a.517.517,0,0,0-.349-.487,21.137,21.137,0,0,0-6.743-1.1,19.672,19.672,0,0,0-13.469,5.265l-.464.461a5.682,5.682,0,0,0-1,.929l-1.005,1.409a17.58,17.58,0,0,0-3.3,10.153l-.019.171-1.064,4.261,1.153-.414.933-3.727a.438.438,0,0,0,.014-.118c0-9.573,8.221-17.359,18.325-17.359a17.675,17.675,0,0,1,5.309.734l.645.177.008,47.269H1647.1l-.014,1.025h9.294a.514.514,0,0,0,.512-.468Z" fill="#6287de" stroke="#6287de" stroke-miterlimit="10" stroke-width="0.6"/>
    </g>
    <g id="糖果" transform="translate(-2811.616 3766.175)">
      <path id="路径_37369" data-name="路径 37369" d="M1454.12,348.188a6.079,6.079,0,1,0,6.079,6.078A6.1,6.1,0,0,0,1454.12,348.188Zm0,11.244h0a5.167,5.167,0,1,1,5.167-5.167A5.183,5.183,0,0,1,1454.12,359.432Z" fill="#6287de" stroke="#6287de" stroke-miterlimit="10" stroke-width="0.6"/>
      <path id="路径_37370" data-name="路径 37370" d="M1479.772,348.188a6.079,6.079,0,1,0,6.079,6.078A6.1,6.1,0,0,0,1479.772,348.188Zm0,11.244h0a5.167,5.167,0,1,1,5.166-5.167A5.183,5.183,0,0,1,1479.772,359.432Z" fill="#6287de" stroke="#6287de" stroke-miterlimit="10" stroke-width="0.6"/>
      <rect id="矩形_2226" data-name="矩形 2226" width="10.081" height="0.914" transform="translate(1461.741 362.662)" fill="#6287de" stroke="#6287de" stroke-miterlimit="10" stroke-width="0.6"/>
      <path id="路径_37371" data-name="路径 37371" d="M1489.113,387.971H1445.23a4.52,4.52,0,1,0,0,9.041h43.882a4.52,4.52,0,0,0,0-9.041Zm0,8.127H1445.23a3.617,3.617,0,0,1-3.606-3.608h0a3.615,3.615,0,0,1,3.606-3.605h43.883a3.607,3.607,0,0,1,0,7.214Z" fill="#6287de" stroke="#6287de" stroke-miterlimit="10" stroke-width="0.6"/>
      <path id="路径_37372" data-name="路径 37372" d="M1528.08,404.328v8.562h-25.662v-8.562h25.662m.918-.917h-27.5v10.4H1529v-10.4Z" fill="#6287de" stroke="#6287de" stroke-miterlimit="10" stroke-width="0.6"/>
      <path id="路径_37373" data-name="路径 37373" d="M1532.506,413.808a4.9,4.9,0,0,0,4.888-4.888v-3.9a5.335,5.335,0,0,0-5.32-5.321,3.922,3.922,0,0,0-3.879,3.43l-.034.27v10.41h4.345Zm-3.415-.91v-9.58l0-.036a3,3,0,0,1,2.981-2.669,4.418,4.418,0,0,1,4.406,4.407v3.9a3.984,3.984,0,0,1-3.977,3.976Z" fill="#6287de" stroke="#6287de" stroke-miterlimit="10" stroke-width="0.6"/>
      <path id="路径_37374" data-name="路径 37374" d="M1506.463,377.274h-9.819a6.423,6.423,0,0,0-.644-.034h-17.808v-7.032h12.879a3.384,3.384,0,0,0,3.376-3.375v-4.1h3.971a4,4,0,0,0,3.993-3.994V349.3a4,4,0,0,0-3.994-3.991h-3.97V333.417a3.385,3.385,0,0,0-3.377-3.374h-9.107v-3.387a.832.832,0,0,0-.831-.831H1453.04a.832.832,0,0,0-.831.831v3.387h-9.182a3.383,3.383,0,0,0-3.373,3.374v11.889h-3.975a4,4,0,0,0-3.99,3.991v9.441a4,4,0,0,0,3.991,3.993h3.974v4.1a3.382,3.382,0,0,0,3.373,3.375h12.213v7.032h-16.9c-.2,0-.4.011-.62.032l-9.865,0a9.265,9.265,0,0,0-9.241,9.242v.937a3.724,3.724,0,0,0,3.527,3.713l.306.016V416.59l-.283.036a3.922,3.922,0,0,0-3.43,3.879,5.334,5.334,0,0,0,5.32,5.32h3.9a4.9,4.9,0,0,0,4.888-4.888v-2.243l.572.687a6.431,6.431,0,0,0,3.7,2.193l.261.051H1496.9A6.379,6.379,0,0,0,1498.9,421v-.626h-.746l-.594.176a5.414,5.414,0,0,1-1.544.233h-57.67a5.517,5.517,0,0,1-5.494-5.455l0-31.681a5.509,5.509,0,0,1,5.5-5.5H1496a5.509,5.509,0,0,1,5.5,5.5v6.619h-.022V403.4h.936V391.177h8.546V403.4h.915V391.183l.306-.017a3.725,3.725,0,0,0,3.528-3.715v-.937A9.268,9.268,0,0,0,1506.463,377.274Zm-12.016-31.055h3.971a3.087,3.087,0,0,1,3.079,3.077v9.442a3.087,3.087,0,0,1-3.079,3.079h-3.971Zm-54.8,15.6h-3.973a3.088,3.088,0,0,1-3.077-3.079V349.3a3.087,3.087,0,0,1,3.077-3.077h3.973Zm-7.716,59.118a3.985,3.985,0,0,1-3.977,3.977h-3.9a4.418,4.418,0,0,1-4.407-4.406,3,3,0,0,1,2.669-2.981l.036,0h9.58Zm0-16.586v12.244h-8.569V404.348Zm-8.569-.937V391.176h8.569v12.235Zm10.848-24.654a6.409,6.409,0,0,0-2.278,4.892v6.588h-9.484v.029l-.35-.016a2.8,2.8,0,0,1-2.571-2.8v-.938a8.349,8.349,0,0,1,8.327-8.327h7.03Zm8.816-47.8h48.044a2.465,2.465,0,0,1,2.461,2.46v4.28h-52.964v-4.28A2.467,2.467,0,0,1,1443.027,330.957Zm0,38.337a2.469,2.469,0,0,1-2.46-2.461V338.611h52.965v28.221a2.468,2.468,0,0,1-2.461,2.462Zm34.251,7.945h-21.125v-7.032h21.125Zm37.513,10.214a2.817,2.817,0,0,1-2.809,2.81h-9.572v-6.615c0-.031,0-.049,0-.067,0-.14-.01-.281-.022-.422a6.368,6.368,0,0,0-2.251-4.4l-.674-.57h7.005a8.349,8.349,0,0,1,8.327,8.327Z" fill="#6287de" stroke="#6287de" stroke-miterlimit="10" stroke-width="0.6"/>
      <path id="路径_37375" data-name="路径 37375" d="M1476.4,420.784l19.593-.018a5.518,5.518,0,0,0,5.495-5.455l-.014-16.926h.936l-.012,17.9a6.824,6.824,0,0,1-.909,2.386l-.572.687a6.425,6.425,0,0,1-3.7,2.193l-.262.051-20.557.018Z" fill="#6287de" stroke="#6287de" stroke-miterlimit="10" stroke-width="0.6"/>
      <g id="SIE" transform="translate(1516.662 360.531)">
        <ellipse id="椭圆_54" data-name="椭圆 54" cx="16.208" cy="16.208" rx="16.208" ry="16.208" transform="translate(0 0)" fill="none" stroke="#6287de" stroke-width="1"/>
        <path id="路径_1863" data-name="路径 1863" d="M-383.455,430.522V432.6l-8.584,5.055v-10.3l8.584-5.455,0,2.135-6.822,4.252v2.048l6.818-3.978v1.94l-6.823,4.121v2.066Z" transform="translate(409.969 -410.017)" fill="#6287de"/>
        <path id="路径_1864" data-name="路径 1864" d="M-397.425,420.25l9.311,4.987-1.831,1.2-9.311-4.986-1.828,1.126,11.215,6.006,5.535-3.505-9.4-5.035,1.831-1.239,9.474,5.068,1.96-1.241-11.341-6.074Z" transform="translate(406.983 -411.782)" fill="#6287de"/>
        <path id="路径_1865" data-name="路径 1865" d="M-394.481,435.643V425.364l1.592.856V436.51Z" transform="translate(409.162 -408.875)" fill="#6287de"/>
        <path id="路径_1866" data-name="路径 1866" d="M-401.084,432.137V421.905l1.766.946v10.242Z" transform="translate(406.983 -410.017)" fill="#6287de"/>
        <g id="组_746" data-name="组 746" transform="translate(10.29 14.24)">
          <path id="路径_1867" data-name="路径 1867" d="M-395.978,426.44v-1.8l-1.805-.967v1.737Z" transform="translate(397.783 -423.673)" fill="#6287de"/>
          <path id="路径_1868" data-name="路径 1868" d="M-397.783,425.978v7.193l1.805.978v-7.125Z" transform="translate(397.783 -422.912)" fill="#6287de"/>
        </g>
      </g>
    </g>
    <g id="组_21416" data-name="组 21416" transform="translate(-2309.281 1873)">
      <path id="路径_108" data-name="路径 108" d="M658.2,2202.59V2163.4h382.71v39.188" transform="translate(308.226 3.597)" fill="none" stroke="#d5d5d7" stroke-linecap="round" stroke-width="2" stroke-dasharray="0 6"/>
      <path id="路径_110" data-name="路径 110" d="M-.251,8.793.271.271,8.793-.251" transform="translate(1349.137 2208.197) rotate(-135)" fill="none" stroke="#d5d5d7" stroke-linecap="round" stroke-linejoin="round" stroke-width="2"/>
    </g>
    <g id="组_21417" data-name="组 21417" transform="translate(-1350.854 4201)">
      <path id="路径_108-2" data-name="路径 108" d="M1040.91,2163.4v39.188H658.2V2163.4" transform="translate(-651.806 -2161.039)" fill="none" stroke="#d5d5d7" stroke-linecap="round" stroke-width="2" stroke-dasharray="0 6"/>
      <path id="路径_110-2" data-name="路径 110" d="M0,9.044.522.522,9.044,0" transform="translate(6.395 0) rotate(45)" fill="none" stroke="#d5d5d7" stroke-linecap="round" stroke-linejoin="round" stroke-width="2"/>
    </g>
  </g>
</svg>
