<svg xmlns="http://www.w3.org/2000/svg" width="99.5" height="100.16" viewBox="0 0 99.5 100.16">
  <g id="核心功能" transform="translate(5732.754 -3468.246)">
    <g id="组_21412" data-name="组 21412" transform="translate(-5732.004 3468.996)">
      <line id="直线_144" data-name="直线 144" y2="14.463" transform="translate(4.601 0.232)" fill="none" stroke="#6287de" stroke-linecap="round" stroke-miterlimit="10" stroke-width="1.5"/>
      <line id="直线_145" data-name="直线 145" y2="14.463" transform="translate(26.878 0.232)" fill="none" stroke="#6287de" stroke-linecap="round" stroke-miterlimit="10" stroke-width="1.5"/>
      <line id="直线_146" data-name="直线 146" y2="14.463" transform="translate(49.203 0.232)" fill="none" stroke="#6287de" stroke-linecap="round" stroke-miterlimit="10" stroke-width="1.5"/>
      <line id="直线_147" data-name="直线 147" y2="14.463" transform="translate(71.347 0.232)" fill="none" stroke="#6287de" stroke-linecap="round" stroke-miterlimit="10" stroke-width="1.5"/>
      <line id="直线_148" data-name="直线 148" y2="14.463" transform="translate(93.399 0.232)" fill="none" stroke="#6287de" stroke-linecap="round" stroke-miterlimit="10" stroke-width="1.5"/>
      <line id="直线_149" data-name="直线 149" y2="14.463" transform="translate(81.548 20.87)" fill="none" stroke="#6287de" stroke-linecap="round" stroke-miterlimit="10" stroke-width="1.5"/>
      <line id="直线_150" data-name="直线 150" y2="14.463" transform="translate(81.548 60.799)" fill="none" stroke="#6287de" stroke-linecap="round" stroke-miterlimit="10" stroke-width="1.5"/>
      <line id="直线_151" data-name="直线 151" y2="14.463" transform="translate(59.868 20.87)" fill="none" stroke="#6287de" stroke-linecap="round" stroke-miterlimit="10" stroke-width="1.5"/>
      <line id="直线_152" data-name="直线 152" y2="14.463" transform="translate(37.589 20.87)" fill="none" stroke="#6287de" stroke-linecap="round" stroke-miterlimit="10" stroke-width="1.5"/>
      <line id="直线_153" data-name="直线 153" y2="14.463" transform="translate(15.898 20.87)" fill="none" stroke="#6287de" stroke-linecap="round" stroke-miterlimit="10" stroke-width="1.5"/>
      <line id="直线_154" data-name="直线 154" y2="14.463" transform="translate(15.898 60.799)" fill="none" stroke="#6287de" stroke-linecap="round" stroke-miterlimit="10" stroke-width="1.5"/>
      <line id="直线_155" data-name="直线 155" y2="14.463" transform="translate(4.601 40.79)" fill="none" stroke="#6287de" stroke-linecap="round" stroke-miterlimit="10" stroke-width="1.5"/>
      <line id="直线_156" data-name="直线 156" y2="14.463" transform="translate(93.399 40.79)" fill="none" stroke="#6287de" stroke-linecap="round" stroke-miterlimit="10" stroke-width="1.5"/>
      <rect id="矩形_2213" data-name="矩形 2213" width="9.203" height="14.463" rx="1.499" transform="translate(11.588 0)" stroke-width="1.5" stroke="#6287de" stroke-linecap="round" stroke-linejoin="round" fill="none"/>
      <rect id="矩形_2214" data-name="矩形 2214" width="9.203" height="14.463" rx="1.499" transform="translate(11.588 40.79)" stroke-width="1.5" stroke="#6287de" stroke-linecap="round" stroke-linejoin="round" fill="none"/>
      <rect id="矩形_2215" data-name="矩形 2215" width="9.203" height="14.463" rx="1.499" transform="translate(0 20.87)" stroke-width="1.5" stroke="#6287de" stroke-linecap="round" stroke-linejoin="round" fill="none"/>
      <rect id="矩形_2216" data-name="矩形 2216" width="9.203" height="14.463" rx="1.499" transform="translate(0 60.799)" stroke-width="1.5" stroke="#6287de" stroke-linecap="round" stroke-linejoin="round" fill="none"/>
      <rect id="矩形_2217" data-name="矩形 2217" width="9.203" height="14.463" rx="1.499" transform="translate(22.323 20.87)" stroke-width="1.5" stroke="#6287de" stroke-linecap="round" stroke-linejoin="round" fill="none"/>
      <rect id="矩形_2218" data-name="矩形 2218" width="9.203" height="14.463" rx="1.499" transform="translate(44.601 20.87)" stroke-width="1.5" stroke="#6287de" stroke-linecap="round" stroke-linejoin="round" fill="none"/>
      <rect id="矩形_2219" data-name="矩形 2219" width="9.203" height="14.463" rx="1.499" transform="translate(66.699 20.87)" stroke-width="1.5" stroke="#6287de" stroke-linecap="round" stroke-linejoin="round" fill="none"/>
      <rect id="矩形_2220" data-name="矩形 2220" width="9.203" height="14.463" rx="1.499" transform="translate(88.797 20.87)" stroke-width="1.5" stroke="#6287de" stroke-linecap="round" stroke-linejoin="round" fill="none"/>
      <rect id="矩形_2221" data-name="矩形 2221" width="9.203" height="14.463" rx="1.499" transform="translate(88.797 60.799)" stroke-width="1.5" stroke="#6287de" stroke-linecap="round" stroke-linejoin="round" fill="none"/>
      <rect id="矩形_2222" data-name="矩形 2222" width="9.203" height="14.463" rx="1.499" transform="translate(33.011 0)" stroke-width="1.5" stroke="#6287de" stroke-linecap="round" stroke-linejoin="round" fill="none"/>
      <rect id="矩形_2223" data-name="矩形 2223" width="9.203" height="14.463" rx="1.499" transform="translate(55.244 0)" stroke-width="1.5" stroke="#6287de" stroke-linecap="round" stroke-linejoin="round" fill="none"/>
      <rect id="矩形_2224" data-name="矩形 2224" width="9.203" height="14.463" rx="1.499" transform="translate(76.946 0)" stroke-width="1.5" stroke="#6287de" stroke-linecap="round" stroke-linejoin="round" fill="none"/>
      <rect id="矩形_2225" data-name="矩形 2225" width="9.203" height="14.463" rx="1.499" transform="translate(76.946 40.79)" stroke-width="1.5" stroke="#6287de" stroke-linecap="round" stroke-linejoin="round" fill="none"/>
      <path id="路径_37353" data-name="路径 37353" d="M1636.1,169.339a24.078,24.078,0,1,1-5.731,4.7" transform="translate(-1599.335 -127.986)" fill="none" stroke="#6287de" stroke-linecap="round" stroke-linejoin="round" stroke-width="2"/>
      <line id="直线_157" data-name="直线 157" y1="16.046" x2="13.645" transform="translate(21.368 81.954)" fill="none" stroke="#6287de" stroke-linecap="round" stroke-linejoin="round" stroke-width="2"/>
    </g>
    <g id="组_770" data-name="组 770" transform="translate(-5699.265 3516.558)">
      <path id="路径_947" data-name="路径 947" d="M1703.86,789.329a30.731,30.731,0,0,0,2.148,5.944,18.294,18.294,0,0,0,3.491,5.074,6.443,6.443,0,0,0,4.385,2.09,12,12,0,0,0,6.475-2.418c.892-.6,1.679-1.184,2.316-1.616a3.85,3.85,0,0,1,1.334-.666,5.386,5.386,0,0,1,1.8.508c.694.3,1.419.654,2.046.9a.38.38,0,0,0,.5-.328,4.672,4.672,0,0,0-2.994-4.407,5.543,5.543,0,0,0-4.521.26c.822-1.758,1.748-3.653,2.554-5.571a17.691,17.691,0,0,0,1.706-6.192c0-7.413-5.562-12.295-10.849-12.295a11.125,11.125,0,0,0-11.209,11.548v.022a21.131,21.131,0,0,0,.09,2.9l.079.724c.109.885.252,1.787.452,2.689Z" transform="translate(-1698.694 -770.616)" fill="none" stroke="#6287de" stroke-linecap="round" stroke-miterlimit="10" stroke-width="1.6"/>
      <path id="路径_948" data-name="路径 948" d="M1701.8,794.734a5.417,5.417,0,0,0-2.757.621,3.544,3.544,0,0,1-1.141.329c-.514-.319-.4-.972-.169-1.4a3.9,3.9,0,0,1,.915-1.073,6.223,6.223,0,0,1,2.7-1.164l-.079-.724a5.587,5.587,0,0,0-3.085,1.333,4.55,4.55,0,0,0-1.084,1.277c-.443.984-.408,2.165.768,2.475a3.542,3.542,0,0,0,1.458-.385c.834-.308,1.875-.863,2.677-.463Z" transform="translate(-1696.833 -776.846)" fill="#6287de" stroke="#6287de" stroke-linecap="round" stroke-miterlimit="10" stroke-width="0.5"/>
      <path id="路径_949" data-name="路径 949" d="M1716.909,780.341a2.5,2.5,0,0,1,2.113-1.966c.966.018,1.614,1.047,1.966,1.955a10.652,10.652,0,0,1,.566,3.47.382.382,0,0,1-.566.294,3.782,3.782,0,0,0-1.966-.475,3.83,3.83,0,0,0-1.978.475.381.381,0,0,1-.554-.294A11.96,11.96,0,0,1,1716.909,780.341Z" transform="translate(-1702.748 -772.951)" fill="#6287de"/>
      <path id="路径_950" data-name="路径 950" d="M1707.217,784.093a.382.382,0,0,1-.555-.294,11.96,11.96,0,0,1,.418-3.458,2.5,2.5,0,0,1,2.113-1.966c.966.018,1.613,1.047,1.966,1.955a10.665,10.665,0,0,1,.565,3.47.381.381,0,0,1-.565.294,3.787,3.787,0,0,0-1.966-.475A3.825,3.825,0,0,0,1707.217,784.093Z" transform="translate(-1699.791 -772.951)" fill="#6287de"/>
      <path id="路径_951" data-name="路径 951" d="M1719.468,793a5.441,5.441,0,0,0-5.9-.464,6.556,6.556,0,0,0-2,1.48c-.469.547-.9,1.336-.091,1.752a3.827,3.827,0,0,0,1.277-.069,4.589,4.589,0,0,1,3.548.351l-.452.564c-.771-.6-1.983-.354-2.972-.2a4.055,4.055,0,0,1-1.571.067c-1.577-.41-.978-2.092-.283-2.938a7.206,7.206,0,0,1,2.226-1.65,6.374,6.374,0,0,1,6.656.531Z" transform="translate(-1700.889 -776.809)" fill="#6287de" stroke="#6287de" stroke-linecap="round" stroke-miterlimit="10" stroke-width="0.5"/>
    </g>
  </g>
</svg>
