<svg xmlns="http://www.w3.org/2000/svg" xmlns:xlink="http://www.w3.org/1999/xlink" width="1820" height="880" viewBox="0 0 1820 880">
  <defs>
    <clipPath id="clip-path">
      <rect id="矩形_2278" data-name="矩形 2278" width="1820" height="880" transform="translate(50 82)" fill="#fff"/>
    </clipPath>
  </defs>
  <g id="banner9_EN" transform="translate(-12509 2138)">
    <g id="组_21710" data-name="组 21710" transform="translate(12459 -2192)">
      <path id="路径_38751" data-name="路径 38751" d="M9.713,70.063H3.224A50.405,50.405,0,0,1,3.566,76.6v24.54a54.617,54.617,0,0,1-.342,6.44H10.1a48.623,48.623,0,0,1-.342-6.489V97.383c0-.878,0-1.756-.049-2.1-.049-.976-.049-.976-.049-1.561,2.342,3.171,5.562,4.683,9.855,4.683,8.294,0,13.221-5.415,13.221-14.392,0-4.927-1.268-8.586-3.854-11.221-2.244-2.244-5.366-3.415-9.269-3.415a11.36,11.36,0,0,0-9.952,4.781c.049-.634.049-1.171.049-1.708ZM26.4,83.918c0,5.757-2.976,9.367-7.757,9.367-5.074,0-8.684-3.9-8.684-9.465,0-5.22,3.659-9.221,8.489-9.221C23.373,74.6,26.4,78.161,26.4,83.918ZM58.206,70.063a25.3,25.3,0,0,0-4.537-.537c-4.391,0-7.416,1.659-9.172,5.123V70.063H37.862A38.57,38.57,0,0,1,38.2,76.4V91.724a53.512,53.512,0,0,1-.342,6.342h6.976a51.308,51.308,0,0,1-.342-6.342V82.7a7.853,7.853,0,0,1,2-4.879,6.964,6.964,0,0,1,5.659-2.391,14.569,14.569,0,0,1,4.342.781Zm16.978,28.93c8.684,0,14.392-5.952,14.392-14.977s-5.61-14.782-14.441-14.782c-8.879,0-14.538,5.806-14.538,14.88C60.6,93.236,66.256,98.993,75.184,98.993Zm-.049-24.686c5.171,0,8.147,3.61,8.147,9.9,0,5.952-3.122,9.611-8.2,9.611s-8.2-3.708-8.2-9.708C66.89,78.015,70.012,74.307,75.135,74.307Zm34.931,23.759a26.08,26.08,0,0,1,1.464-4.342l7.513-18.539c.927-2.391,1.512-3.757,2.2-5.123h-7.416A22.09,22.09,0,0,1,112.6,74.6l-4.976,14.148c-.341.976-.732,2.2-1.073,3.269-.293-1.025-.732-2.488-1.025-3.269L100.553,74.6a25.761,25.761,0,0,1-1.22-4.537H91.869c.976,2.049,1.756,3.854,2.293,5.123l7.464,18.539a23.224,23.224,0,0,1,1.464,4.342Zm14.685-38.834v6.2h7.172v-6.2Zm0,10.831a40.1,40.1,0,0,1,.39,6.342V91.724a43.845,43.845,0,0,1-.39,6.342h7.123a49.01,49.01,0,0,1-.342-6.391V76.454a43.853,43.853,0,0,1,.342-6.391Zm35.126,28h6.489a51.214,51.214,0,0,1-.342-6.586V65.769a56.892,56.892,0,0,1,.342-6.537h-6.879a49.724,49.724,0,0,1,.342,6.586V70.7c0,.829,0,1.756.049,2.1.049.976.049.976.049,1.561a12.424,12.424,0,0,0-2.488-2.683,11.58,11.58,0,0,0-7.416-2.244c-8.05,0-13.172,5.659-13.172,14.587,0,5.269,1.805,9.708,5.074,12.245a12.4,12.4,0,0,0,8.147,2.488c4.732,0,7.318-1.268,9.855-4.83-.049.634-.049,1.171-.049,1.756Zm-16.685-14c0-5.806,3.025-9.513,7.757-9.513a8.931,8.931,0,0,1,6.342,2.732,10.13,10.13,0,0,1,2.342,6.489,11.036,11.036,0,0,1-1.9,6.537,8.158,8.158,0,0,1-6.537,3.22C146.314,93.529,143.192,89.87,143.192,84.064Zm55.519,1.61c-.1-1.122-.1-1.268-.1-1.366a20.055,20.055,0,0,0-1.415-7.416c-1.951-4.879-6.44-7.708-12.148-7.708-8.342,0-13.758,5.9-13.758,14.929,0,9.123,5.464,14.88,14.1,14.88a13.855,13.855,0,0,0,10.05-3.757,13.711,13.711,0,0,0,2.976-4.488l-5.757-1.854a7.091,7.091,0,0,1-1.415,2.537,8.207,8.207,0,0,1-11.953-.293c-1.122-1.415-1.561-2.781-1.805-5.464Zm-21.076-4.83c.732-4.1,3.513-6.635,7.318-6.635a6.958,6.958,0,0,1,5.269,1.951,7.658,7.658,0,0,1,2.147,4.683Zm24.686,9.269a10.974,10.974,0,0,0,1.9,4.342c2.1,2.83,5.854,4.342,10.879,4.342,4.44,0,7.855-1.073,10.1-3.171a7.844,7.844,0,0,0,2.391-5.513,6.934,6.934,0,0,0-2.83-6.05c-1.61-1.22-3.61-1.9-8.586-2.976a20.55,20.55,0,0,1-4.879-1.464,2.629,2.629,0,0,1-1.512-2.293c0-2.049,2.049-3.415,5.074-3.415,3.171,0,4.83,1.171,5.366,3.854l6.44-.829a9.5,9.5,0,0,0-2.634-4.83c-2-1.854-5.171-2.83-9.172-2.83-4.44,0-7.757,1.268-9.757,3.805a7.259,7.259,0,0,0-1.512,4.537,6.986,6.986,0,0,0,4.293,6.489,29.492,29.492,0,0,0,7.025,2.1c3.9.878,4.2.927,5.123,1.561a2.983,2.983,0,0,1,1.268,2.439c0,2.293-2.244,3.708-5.854,3.708-3.805,0-5.61-1.317-6.44-4.635Zm52.884-20.051h-6.489a50.4,50.4,0,0,1,.342,6.537v24.54a54.614,54.614,0,0,1-.342,6.44H255.6a48.621,48.621,0,0,1-.342-6.489V97.383c0-.878,0-1.756-.049-2.1-.049-.976-.049-.976-.049-1.561,2.342,3.171,5.562,4.683,9.855,4.683,8.294,0,13.221-5.415,13.221-14.392,0-4.927-1.268-8.586-3.854-11.221-2.244-2.244-5.366-3.415-9.269-3.415a11.36,11.36,0,0,0-9.952,4.781c.049-.634.049-1.171.049-1.708ZM271.89,83.918c0,5.757-2.976,9.367-7.757,9.367-5.074,0-8.684-3.9-8.684-9.465,0-5.22,3.659-9.221,8.489-9.221C268.865,74.6,271.89,78.161,271.89,83.918ZM309.5,85.674c-.1-1.122-.1-1.268-.1-1.366a20.056,20.056,0,0,0-1.415-7.416c-1.951-4.879-6.44-7.708-12.148-7.708-8.342,0-13.758,5.9-13.758,14.929,0,9.123,5.464,14.88,14.1,14.88a13.855,13.855,0,0,0,10.05-3.757,13.711,13.711,0,0,0,2.976-4.488l-5.757-1.854a7.09,7.09,0,0,1-1.415,2.537,8.207,8.207,0,0,1-11.953-.293c-1.122-1.415-1.561-2.781-1.805-5.464Zm-21.076-4.83c.732-4.1,3.513-6.635,7.318-6.635a6.958,6.958,0,0,1,5.269,1.951,7.658,7.658,0,0,1,2.147,4.683Zm46.347-10.782a25.3,25.3,0,0,0-4.537-.537c-4.391,0-7.415,1.659-9.172,5.123V70.063h-6.635a38.566,38.566,0,0,1,.341,6.342V91.724a53.506,53.506,0,0,1-.341,6.342h6.976a51.3,51.3,0,0,1-.342-6.342V82.7a7.853,7.853,0,0,1,2-4.879,6.964,6.964,0,0,1,5.659-2.391,14.569,14.569,0,0,1,4.342.781Zm2.342,20.051a10.973,10.973,0,0,0,1.9,4.342c2.1,2.83,5.854,4.342,10.879,4.342,4.44,0,7.855-1.073,10.1-3.171a7.844,7.844,0,0,0,2.391-5.513,6.933,6.933,0,0,0-2.83-6.05c-1.61-1.22-3.61-1.9-8.586-2.976a20.549,20.549,0,0,1-4.879-1.464,2.629,2.629,0,0,1-1.512-2.293c0-2.049,2.049-3.415,5.074-3.415,3.171,0,4.83,1.171,5.367,3.854l6.44-.829a9.5,9.5,0,0,0-2.634-4.83c-2-1.854-5.171-2.83-9.172-2.83-4.44,0-7.757,1.268-9.757,3.805a7.258,7.258,0,0,0-1.512,4.537,6.986,6.986,0,0,0,4.293,6.489,29.493,29.493,0,0,0,7.025,2.1c3.9.878,4.2.927,5.123,1.561a2.983,2.983,0,0,1,1.268,2.439c0,2.293-2.244,3.708-5.854,3.708-3.805,0-5.61-1.317-6.44-4.635Zm43.566,8.879c8.684,0,14.392-5.952,14.392-14.977s-5.61-14.782-14.441-14.782c-8.879,0-14.538,5.806-14.538,14.88C366.1,93.236,371.756,98.993,380.684,98.993Zm-.049-24.686c5.171,0,8.147,3.61,8.147,9.9,0,5.952-3.122,9.611-8.2,9.611s-8.2-3.708-8.2-9.708C372.39,78.015,375.512,74.307,380.635,74.307Zm26.345,23.759a43.407,43.407,0,0,1-.39-6.342V81.869c2.147-4.83,5.025-7.269,8.538-7.269a4.589,4.589,0,0,1,4.1,2,8.014,8.014,0,0,1,.829,4.293V91.724a51.842,51.842,0,0,1-.342,6.342h7.074a38.552,38.552,0,0,1-.39-6.342V80.015c0-3.269-.488-5.22-1.659-6.83-1.756-2.391-4.537-3.61-8.294-3.61-4.391,0-6.976,1.366-9.952,5.171a19.058,19.058,0,0,0,.1-2.1V70.063h-6.635a40.093,40.093,0,0,1,.39,6.342V91.724a40.49,40.49,0,0,1-.39,6.342Zm44.347,0h6.586a39.241,39.241,0,0,1-.39-6.1V78.844c0-3.317-.634-5.171-2.293-6.733-2.1-2.049-4.927-2.878-9.611-2.878-4.2,0-6.928.732-9.318,2.488-1.854,1.317-2.732,2.586-3.854,5.415l6.245,1.122a5.316,5.316,0,0,1,1.951-3.122,8.8,8.8,0,0,1,5.074-1.415c3.708,0,5.61,1.464,5.61,4.293V80.5c-6.976.146-10.587.634-13.758,1.951a8.655,8.655,0,0,0-5.513,7.9c0,5.123,3.61,8.2,9.562,8.2a17.263,17.263,0,0,0,4.537-.585,10.579,10.579,0,0,0,5.171-3.074Zm0-10.879a5.814,5.814,0,0,1-1.756,4.293,9.906,9.906,0,0,1-6.781,2.586c-2.732,0-4.44-1.415-4.44-3.708,0-3.805,3.659-5.415,12.977-5.61Zm12.392-27.955a43.992,43.992,0,0,1,.342,6.342V91.724a47.241,47.241,0,0,1-.342,6.342h7.074a50.252,50.252,0,0,1-.341-6.342v-26.1a45.2,45.2,0,0,1,.341-6.391Zm13.221,0v6.2h7.172v-6.2Zm0,10.831a40.1,40.1,0,0,1,.39,6.342V91.724a43.844,43.844,0,0,1-.39,6.342h7.123a49.009,49.009,0,0,1-.342-6.391V76.454a43.852,43.852,0,0,1,.342-6.391Zm35.224,22.149a45.655,45.655,0,0,1-6.391.341h-6.245c-.781,0-1.854,0-2.927.049.781-.927.781-.927,1.073-1.317.39-.439.488-.488.585-.683l9.221-11.66c.976-1.22,2.244-2.634,3.708-4.2v-4.83a54.507,54.507,0,0,1-5.9.146h-9.465a51.309,51.309,0,0,1-6.342-.342v6.1a48.218,48.218,0,0,1,6.342-.342H500.8a16.8,16.8,0,0,0,1.756-.049h.439a19.525,19.525,0,0,0-1.366,1.561l-9.416,11.9a35.469,35.469,0,0,1-3.708,4.147v5.171c1.464-.1,2.537-.146,6-.146h11.221a46.42,46.42,0,0,1,6.44.342ZM542.8,85.674c-.1-1.122-.1-1.268-.1-1.366a20.055,20.055,0,0,0-1.415-7.416c-1.951-4.879-6.44-7.708-12.148-7.708-8.342,0-13.758,5.9-13.758,14.929,0,9.123,5.464,14.88,14.1,14.88a13.855,13.855,0,0,0,10.05-3.757,13.71,13.71,0,0,0,2.976-4.488l-5.757-1.854a7.091,7.091,0,0,1-1.415,2.537,8.207,8.207,0,0,1-11.953-.293c-1.122-1.415-1.561-2.781-1.805-5.464Zm-21.076-4.83c.732-4.1,3.513-6.635,7.318-6.635a6.958,6.958,0,0,1,5.269,1.951,7.657,7.657,0,0,1,2.147,4.683Zm47.811,17.222h6.489a51.221,51.221,0,0,1-.341-6.586V65.769a56.9,56.9,0,0,1,.341-6.537h-6.879a49.718,49.718,0,0,1,.342,6.586V70.7c0,.829,0,1.756.049,2.1.049.976.049.976.049,1.561a12.423,12.423,0,0,0-2.488-2.683,11.58,11.58,0,0,0-7.416-2.244c-8.05,0-13.172,5.659-13.172,14.587,0,5.269,1.805,9.708,5.074,12.245a12.4,12.4,0,0,0,8.147,2.488c4.732,0,7.318-1.268,9.855-4.83-.049.634-.049,1.171-.049,1.756Zm-16.685-14c0-5.806,3.025-9.513,7.757-9.513a8.931,8.931,0,0,1,6.342,2.732,10.13,10.13,0,0,1,2.342,6.489,11.036,11.036,0,0,1-1.9,6.537,8.158,8.158,0,0,1-6.537,3.22C555.973,93.529,552.851,89.87,552.851,84.064Zm45.566-24.832a45.649,45.649,0,0,1,.342,6.391v26.1a40.1,40.1,0,0,1-.39,6.342h7.025a43.415,43.415,0,0,1-.39-6.342V81.869c2.2-4.879,5.025-7.22,8.684-7.22a4.529,4.529,0,0,1,3.366,1.415c.927.976,1.415,2.586,1.415,4.83V91.724a51.854,51.854,0,0,1-.341,6.342H625.2a38.56,38.56,0,0,1-.39-6.342V79.43c0-6.293-3.561-9.855-9.806-9.855-4.44,0-7.074,1.366-10.1,5.171a20.017,20.017,0,0,0,.1-2.1V65.672a46.893,46.893,0,0,1,.341-6.44Zm59.031,26.442c-.1-1.122-.1-1.268-.1-1.366a20.055,20.055,0,0,0-1.415-7.416c-1.951-4.879-6.44-7.708-12.148-7.708-8.342,0-13.758,5.9-13.758,14.929,0,9.123,5.464,14.88,14.1,14.88a13.855,13.855,0,0,0,10.05-3.757,13.71,13.71,0,0,0,2.976-4.488L651.4,88.894a7.091,7.091,0,0,1-1.415,2.537,8.207,8.207,0,0,1-11.953-.293c-1.122-1.415-1.561-2.781-1.805-5.464Zm-21.076-4.83c.732-4.1,3.513-6.635,7.318-6.635a6.958,6.958,0,0,1,5.269,1.951,7.657,7.657,0,0,1,2.147,4.683Zm25.906-21.612a43.987,43.987,0,0,1,.342,6.342V91.724a47.235,47.235,0,0,1-.342,6.342h7.074a50.257,50.257,0,0,1-.341-6.342v-26.1a45.2,45.2,0,0,1,.341-6.391Zm19.71,10.831H675.5a50.4,50.4,0,0,1,.342,6.537v24.54a54.611,54.611,0,0,1-.342,6.44h6.879a48.629,48.629,0,0,1-.341-6.489V97.383c0-.878,0-1.756-.049-2.1-.049-.976-.049-.976-.049-1.561,2.342,3.171,5.562,4.683,9.855,4.683,8.294,0,13.221-5.415,13.221-14.392,0-4.927-1.268-8.586-3.854-11.221-2.244-2.244-5.366-3.415-9.269-3.415a11.36,11.36,0,0,0-9.952,4.781c.049-.634.049-1.171.049-1.708Zm16.685,13.855c0,5.757-2.976,9.367-7.757,9.367-5.074,0-8.684-3.9-8.684-9.465,0-5.22,3.659-9.221,8.489-9.221C695.648,74.6,698.673,78.161,698.673,83.918Z" transform="translate(180 445.813)"/>
      <text id="OUR_MISSION" data-name="OUR MISSION" transform="translate(180 366)" font-size="12" font-family="HiraginoSansGB-W6, Hiragino Sans GB" letter-spacing="1.6em"><tspan x="0" y="0">OUR MISSION</tspan></text>
      <path id="路径_38752" data-name="路径 38752" d="M21.938-1.941c8.1,0,12.636-3.854,12.636-10.684a9.631,9.631,0,0,0-3.025-7.464c-1.317-1.22-2.439-1.708-4.927-2.244a8.255,8.255,0,0,0,3.854-2.049,8.726,8.726,0,0,0,2.732-6.879c0-6.1-4.244-9.513-11.806-9.513H9.888c-3.317,0-4.1,0-6.147-.1a46.506,46.506,0,0,1,.39,6V-8.38a34.818,34.818,0,0,1-.439,6.586c2-.1,3.415-.146,6.245-.146ZM10.571-24.87V-35.31h10.1A6.92,6.92,0,0,1,25.353-33.8a4.969,4.969,0,0,1,1.268,3.61c0,3.317-2.2,5.318-5.9,5.318Zm0,5.415H20.962A7.971,7.971,0,0,1,26.28-17.8a5.286,5.286,0,0,1,1.561,4.244c0,3.952-2.439,6.1-6.781,6.1H10.571Zm55.714,5.123c-.1-1.122-.1-1.268-.1-1.366a20.055,20.055,0,0,0-1.415-7.416c-1.951-4.879-6.44-7.708-12.148-7.708-8.342,0-13.758,5.9-13.758,14.929,0,9.123,5.464,14.88,14.1,14.88A13.855,13.855,0,0,0,63.016-4.77a13.711,13.711,0,0,0,2.976-4.488l-5.757-1.854a7.09,7.09,0,0,1-1.415,2.537,7.714,7.714,0,0,1-5.854,2.439,7.668,7.668,0,0,1-6.1-2.732c-1.122-1.415-1.561-2.781-1.805-5.464Zm-21.076-4.83c.732-4.1,3.513-6.635,7.318-6.635A6.958,6.958,0,0,1,57.8-23.846a7.658,7.658,0,0,1,2.147,4.683Zm25.32,21.71C73.847,6.3,77.067,7.622,82.775,7.622,87.8,7.622,91.849,6.5,94.288,4.5c2.83-2.391,4.1-6.147,4.1-12V-23.846a45.322,45.322,0,0,1,.341-6.1H92.19V-27.7a11.736,11.736,0,0,0,.1,1.61c-2.1-2.976-4.976-4.293-9.318-4.293-7.9,0-13.026,5.464-13.026,13.9,0,8.342,4.976,13.66,12.733,13.66,4.244,0,7.123-1.366,9.562-4.44-.1,3.317-.439,5.025-1.268,6.489-1.366,2.342-4.244,3.659-8,3.659-3.513,0-5.659-1.073-7.562-3.708Zm5.806-18.88c0-5.806,3.025-9.465,7.9-9.465a7.373,7.373,0,0,1,4.732,1.756c1.951,1.659,2.927,4.1,2.927,7.22a10.334,10.334,0,0,1-1.366,5.562A8.165,8.165,0,0,1,83.75-7.4a7.478,7.478,0,0,1-5.171-2.2C77.115-11.064,76.335-13.454,76.335-16.332Zm28.54-24.442v6.2h7.172v-6.2Zm0,10.831a40.1,40.1,0,0,1,.39,6.342V-8.283a43.844,43.844,0,0,1-.39,6.342H112a49.008,49.008,0,0,1-.341-6.391V-23.553A43.852,43.852,0,0,1,112-29.944Zm20.246,28a43.407,43.407,0,0,1-.39-6.342v-9.855c2.147-4.83,5.025-7.269,8.538-7.269a4.589,4.589,0,0,1,4.1,2,8.014,8.014,0,0,1,.829,4.293V-8.283a51.845,51.845,0,0,1-.342,6.342h7.074a38.554,38.554,0,0,1-.39-6.342V-19.991c0-3.269-.488-5.22-1.659-6.83-1.756-2.391-4.537-3.61-8.294-3.61-4.391,0-6.976,1.366-9.952,5.171a19.062,19.062,0,0,0,.1-2.1v-2.586H118.1a40.1,40.1,0,0,1,.39,6.342V-8.283a40.494,40.494,0,0,1-.39,6.342Zm32.833,0a43.407,43.407,0,0,1-.39-6.342v-9.855c2.147-4.83,5.025-7.269,8.538-7.269a4.589,4.589,0,0,1,4.1,2,8.014,8.014,0,0,1,.829,4.293V-8.283a51.845,51.845,0,0,1-.342,6.342h7.074a38.554,38.554,0,0,1-.39-6.342V-19.991c0-3.269-.488-5.22-1.659-6.83-1.756-2.391-4.537-3.61-8.294-3.61-4.391,0-6.976,1.366-9.952,5.171a19.061,19.061,0,0,0,.1-2.1v-2.586h-6.635a40.1,40.1,0,0,1,.39,6.342V-8.283a40.5,40.5,0,0,1-.39,6.342Zm52.055-12.392c-.1-1.122-.1-1.268-.1-1.366a20.055,20.055,0,0,0-1.415-7.416c-1.951-4.879-6.44-7.708-12.148-7.708-8.342,0-13.758,5.9-13.758,14.929,0,9.123,5.464,14.88,14.1,14.88a13.855,13.855,0,0,0,10.05-3.757,13.711,13.711,0,0,0,2.976-4.488l-5.757-1.854a7.091,7.091,0,0,1-1.415,2.537,7.714,7.714,0,0,1-5.854,2.439,7.668,7.668,0,0,1-6.1-2.732c-1.122-1.415-1.561-2.781-1.805-5.464Zm-21.076-4.83c.732-4.1,3.513-6.635,7.318-6.635a6.958,6.958,0,0,1,5.269,1.951,7.658,7.658,0,0,1,2.147,4.683Zm46.347-10.782a25.3,25.3,0,0,0-4.537-.537c-4.391,0-7.415,1.659-9.172,5.123v-4.586h-6.635a38.571,38.571,0,0,1,.342,6.342V-8.283a53.512,53.512,0,0,1-.342,6.342h6.976a51.305,51.305,0,0,1-.342-6.342v-9.025a7.853,7.853,0,0,1,2-4.879,6.964,6.964,0,0,1,5.659-2.391,14.569,14.569,0,0,1,4.342.781ZM254.5,2.548c3.317,3.757,6.537,5.074,12.245,5.074,5.025,0,9.074-1.122,11.514-3.122,2.83-2.391,4.1-6.147,4.1-12V-23.846a45.318,45.318,0,0,1,.342-6.1h-6.537V-27.7a11.736,11.736,0,0,0,.1,1.61c-2.1-2.976-4.976-4.293-9.318-4.293-7.9,0-13.026,5.464-13.026,13.9,0,8.342,4.976,13.66,12.733,13.66,4.244,0,7.123-1.366,9.562-4.44-.1,3.317-.439,5.025-1.268,6.489-1.366,2.342-4.244,3.659-8,3.659-3.513,0-5.659-1.073-7.562-3.708Zm5.806-18.88c0-5.806,3.025-9.465,7.9-9.465a7.373,7.373,0,0,1,4.732,1.756c1.951,1.659,2.927,4.1,2.927,7.22a10.334,10.334,0,0,1-1.366,5.562A8.165,8.165,0,0,1,267.724-7.4a7.478,7.478,0,0,1-5.171-2.2C261.089-11.064,260.308-13.454,260.308-16.332Zm48.25-13.611a51.472,51.472,0,0,1,.39,6.342v9.855c-2.2,4.83-4.976,7.22-8.489,7.22a6.07,6.07,0,0,1-2.683-.683c-1.512-.927-2.244-2.732-2.244-5.562V-23.6a43.664,43.664,0,0,1,.342-6.342H288.8a44.843,44.843,0,0,1,.39,6.342v12.343c0,4,1.268,6.733,3.952,8.44A10.628,10.628,0,0,0,299-1.4c4.635,0,7.318-1.415,10-5.22-.049,1.22-.049,1.366-.049,2.1v2.586h6.635a40.1,40.1,0,0,1-.39-6.342V-23.6a35.326,35.326,0,0,1,.39-6.342Zm13.124-10.831v6.2h7.172v-6.2Zm0,10.831a40.1,40.1,0,0,1,.39,6.342V-8.283a43.844,43.844,0,0,1-.39,6.342H328.8a49.01,49.01,0,0,1-.341-6.391V-23.553a43.853,43.853,0,0,1,.341-6.391Zm35.126,28H363.3a51.208,51.208,0,0,1-.342-6.586v-25.71a56.886,56.886,0,0,1,.342-6.537h-6.879a49.724,49.724,0,0,1,.341,6.586v4.879c0,.829,0,1.756.049,2.1.049.976.049.976.049,1.561a12.424,12.424,0,0,0-2.488-2.683,11.58,11.58,0,0,0-7.416-2.244c-8.05,0-13.172,5.659-13.172,14.587,0,5.269,1.805,9.708,5.074,12.245A12.4,12.4,0,0,0,347-1.257c4.732,0,7.318-1.268,9.855-4.83-.049.634-.049,1.171-.049,1.756Zm-16.685-14c0-5.806,3.025-9.513,7.757-9.513a8.932,8.932,0,0,1,6.342,2.732,10.13,10.13,0,0,1,2.342,6.489,11.036,11.036,0,0,1-1.9,6.537,8.158,8.158,0,0,1-6.537,3.22C343.245-6.478,340.122-10.137,340.122-15.942Zm47.811,14h6.586a39.233,39.233,0,0,1-.39-6.1V-21.162c0-3.317-.634-5.171-2.293-6.733-2.1-2.049-4.927-2.878-9.611-2.878-4.2,0-6.928.732-9.318,2.488-1.854,1.317-2.732,2.586-3.854,5.415l6.245,1.122a5.316,5.316,0,0,1,1.951-3.122,8.8,8.8,0,0,1,5.074-1.415c3.708,0,5.61,1.464,5.61,4.293V-19.5c-6.976.146-10.587.634-13.758,1.951a8.655,8.655,0,0,0-5.513,7.9c0,5.123,3.61,8.2,9.562,8.2a17.263,17.263,0,0,0,4.537-.585,10.579,10.579,0,0,0,5.171-3.074Zm0-10.879a5.814,5.814,0,0,1-1.756,4.293A9.906,9.906,0,0,1,379.4-5.941c-2.732,0-4.44-1.415-4.44-3.708,0-3.805,3.659-5.415,12.977-5.61ZM407.35-1.941a43.407,43.407,0,0,1-.39-6.342v-9.855c2.147-4.83,5.025-7.269,8.538-7.269a4.589,4.589,0,0,1,4.1,2,8.014,8.014,0,0,1,.829,4.293V-8.283a51.842,51.842,0,0,1-.342,6.342h7.074a38.552,38.552,0,0,1-.39-6.342V-19.991c0-3.269-.488-5.22-1.659-6.83-1.756-2.391-4.537-3.61-8.294-3.61-4.391,0-6.976,1.366-9.952,5.171a19.058,19.058,0,0,0,.1-2.1v-2.586h-6.635a40.1,40.1,0,0,1,.39,6.342V-8.283a40.493,40.493,0,0,1-.39,6.342Zm51.226-20.051a16.238,16.238,0,0,0-1.708-3.561c-2.342-3.415-6.147-5.269-10.928-5.269a13.359,13.359,0,0,0-9.806,3.708,15.775,15.775,0,0,0-4.147,11.27c0,9.025,5.562,14.831,14.148,14.831,4.635,0,8.391-1.708,10.733-4.927a13.659,13.659,0,0,0,2.049-4.147l-6.049-1.22a6.817,6.817,0,0,1-.976,2.439,6.531,6.531,0,0,1-5.61,2.732c-4.927,0-7.952-3.757-7.952-9.855,0-6.05,2.976-9.806,7.757-9.806a6.138,6.138,0,0,1,5.025,2.244,8.792,8.792,0,0,1,1.512,2.976ZM489.9-14.332c-.1-1.122-.1-1.268-.1-1.366a20.054,20.054,0,0,0-1.415-7.416c-1.951-4.879-6.44-7.708-12.148-7.708-8.342,0-13.758,5.9-13.758,14.929,0,9.123,5.464,14.88,14.1,14.88a13.855,13.855,0,0,0,10.05-3.757A13.711,13.711,0,0,0,489.6-9.258l-5.757-1.854a7.09,7.09,0,0,1-1.415,2.537,7.714,7.714,0,0,1-5.854,2.439,7.668,7.668,0,0,1-6.1-2.732c-1.122-1.415-1.561-2.781-1.805-5.464Zm-21.076-4.83c.732-4.1,3.513-6.635,7.318-6.635a6.957,6.957,0,0,1,5.269,1.951,7.658,7.658,0,0,1,2.147,4.683Z" transform="translate(179.971 452)" fill="#0080f4"/>
    </g>
    <g id="组_21800" data-name="组 21800" transform="translate(12088.384 -2251.063)">
      <g id="新手引导_2" data-name="新手引导 2" transform="translate(1759.789 344.374)">
        <path id="路径_1948" data-name="路径 1948" d="M1753.518,372.062h-34.511l-9.509,8.271a1.251,1.251,0,0,1-2.046-.739l-1.23-7.532h-6.158a.993.993,0,0,1-.994-.994h0V334.9a.993.993,0,0,1,.991-.994h53.458a.993.993,0,0,1,.994.994h0v36.167A.993.993,0,0,1,1753.518,372.062Z" transform="translate(-1699.069 -333.908)" fill="none" stroke="#0080f4" stroke-linecap="round" stroke-miterlimit="10" stroke-width="2"/>
        <g id="组_799" data-name="组 799" transform="translate(14.764 13.456)">
          <path id="路径_1951" data-name="路径 1951" d="M1711.491,353.751a4.789,4.789,0,0,1-1.495-3.474,4.934,4.934,0,0,1,1.376-3.523,4.79,4.79,0,0,1,3.474-1.5l6.392-.107a4.926,4.926,0,0,1,3.523,1.375,4.787,4.787,0,0,1,1.494,3.475.985.985,0,0,1-.287.7,1.123,1.123,0,0,1-.694.313.967.967,0,0,1-1-.937v-.028a3.01,3.01,0,0,0-3.021-2.92l-6.392.109a2.935,2.935,0,0,0-2.07.921,3.091,3.091,0,0,0-.85,2.1,2.928,2.928,0,0,0,.922,2.069,3.081,3.081,0,0,0,2.1.851l5.394-.092a.982.982,0,0,1,.034,1.964l-5.395.091A4.963,4.963,0,0,1,1711.491,353.751Z" transform="translate(-1709.995 -344.967)" fill="#0080f4"/>
          <path id="路径_1952" data-name="路径 1952" d="M1722.36,353.573a4.788,4.788,0,0,1-1.5-3.477.982.982,0,1,1,1.964-.033,3.008,3.008,0,0,0,3.02,2.919l6.394-.109a2.936,2.936,0,0,0,2.069-.922,3.092,3.092,0,0,0,.849-2.1,2.937,2.937,0,0,0-.922-2.069,3.09,3.09,0,0,0-2.1-.85l-5.394.089a.986.986,0,0,1-.018-1.969l5.393-.093a4.933,4.933,0,0,1,3.522,1.376,4.791,4.791,0,0,1,1.5,3.475,4.945,4.945,0,0,1-4.849,5.016l-6.393.109a4.938,4.938,0,0,1-3.526-1.378Z" transform="translate(-1710.346 -344.961)" fill="#0080f4"/>
        </g>
      </g>
      <g id="组_21419" data-name="组 21419" transform="translate(1551.745 432.959)">
        <path id="路径_37402" data-name="路径 37402" d="M1604.384,614.008l-71.89-41.511a15.271,15.271,0,0,1-7.636-13.225V476.255a15.274,15.274,0,0,1,7.636-13.226l71.89-41.509a15.275,15.275,0,0,1,15.272,0l71.894,41.509a15.272,15.272,0,0,1,7.636,13.226v83.018a15.271,15.271,0,0,1-7.636,13.225l-71.894,41.509A15.272,15.272,0,0,1,1604.384,614.008Z" transform="translate(-1514.984 -410.618)" fill="none" stroke="#0c111a" stroke-miterlimit="10" stroke-width="2"/>
        <line id="直线_167" data-name="直线 167" y1="10.654" transform="translate(0 62.064)" fill="none" stroke="#0c111a" stroke-miterlimit="10" stroke-width="2"/>
        <line id="直线_168" data-name="直线 168" y1="49.266" transform="translate(0 82.624)" fill="none" stroke="#0c111a" stroke-miterlimit="10" stroke-width="2"/>
        <line id="直线_169" data-name="直线 169" x1="8.85" y1="5.109" transform="translate(10.132 168.87)" fill="none" stroke="#0c111a" stroke-miterlimit="10" stroke-width="2"/>
        <line id="直线_170" data-name="直线 170" x1="43.538" y1="25.137" transform="translate(27.24 178.748)" fill="none" stroke="#0c111a" stroke-miterlimit="10" stroke-width="2"/>
        <line id="直线_171" data-name="直线 171" x1="8.549" y2="4.936" transform="translate(107.747 208.415)" fill="none" stroke="#0c111a" stroke-miterlimit="10" stroke-width="2"/>
        <line id="直线_172" data-name="直线 172" x1="43.246" y2="24.968" transform="translate(125.09 178.369)" fill="none" stroke="#0c111a" stroke-miterlimit="10" stroke-width="2"/>
        <line id="直线_173" data-name="直线 173" y2="10.111" transform="translate(194.922 141.458)" fill="none" stroke="#0c111a" stroke-miterlimit="10" stroke-width="2"/>
        <line id="直线_174" data-name="直线 174" y2="49.808" transform="translate(194.922 80.86)" fill="none" stroke="#0c111a" stroke-miterlimit="10" stroke-width="2"/>
        <line id="直线_175" data-name="直线 175" x2="8.871" y2="5.122" transform="translate(175.994 39.554)" fill="none" stroke="#0c111a" stroke-miterlimit="10" stroke-width="2"/>
        <line id="直线_176" data-name="直线 176" x2="43.283" y2="24.99" transform="translate(123.971 9.519)" fill="none" stroke="#0c111a" stroke-miterlimit="10" stroke-width="2"/>
        <line id="直线_177" data-name="直线 177" y1="4.983" x2="8.63" transform="translate(78.808)" fill="none" stroke="#0c111a" stroke-miterlimit="10" stroke-width="2" opacity="0.5"/>
        <line id="直线_178" data-name="直线 178" y1="24.775" x2="42.912" transform="translate(26.653 10.319)" fill="none" stroke="#0c111a" stroke-miterlimit="10" stroke-width="2"/>
      </g>
      <path id="路径_37403" data-name="路径 37403" d="M1722.089,417.935l-37.226-21.487a15.272,15.272,0,0,1-7.635-13.225V340.237a15.272,15.272,0,0,1,7.635-13.225l37.226-21.487a15.271,15.271,0,0,1,15.273,0l37.226,21.487a15.271,15.271,0,0,1,7.637,13.225v42.986a15.272,15.272,0,0,1-7.637,13.225l-37.226,21.487A15.272,15.272,0,0,1,1722.089,417.935Z" transform="translate(57.74 6.227)" fill="none" stroke="#0080f4" stroke-miterlimit="10" stroke-width="2"/>
      <path id="路径_37404" data-name="路径 37404" d="M1737.049,406.509l-6.92,3.995a15.671,15.671,0,0,1-1.5.759" transform="translate(64.766 20.462)" fill="none" stroke="#000" stroke-miterlimit="10" stroke-width="2"/>
      <path id="路径_37405" data-name="路径 37405" d="M1779.081,379.423a15.277,15.277,0,0,1-7.19,9.558l-29.076,16.787" transform="translate(66.737 16.736)" fill="none" stroke="#000" stroke-miterlimit="10" stroke-width="2"/>
      <line id="直线_179" data-name="直线 179" y2="9.467" transform="translate(1846.271 351.881)" fill="none" stroke="#000" stroke-miterlimit="10" stroke-width="2"/>
      <path id="路径_37406" data-name="路径 37406" d="M1746.736,308.386l24.619,14.211a15.272,15.272,0,0,1,7.635,13.225" transform="translate(67.275 6.899)" fill="none" stroke="#000" stroke-miterlimit="10" stroke-width="2"/>
      <path id="路径_37407" data-name="路径 37407" d="M1711.339,302.17l5.89-3.4q.594-.341,1.207-.628" transform="translate(62.383 5.497)" fill="none" stroke="#000" stroke-miterlimit="10" stroke-width="2"/>
      <path id="路径_37408" data-name="路径 37408" d="M1671.959,331.634a15.274,15.274,0,0,1,6.95-8.695l29.5-17.029" transform="translate(56.973 6.56)" fill="none" stroke="#000" stroke-miterlimit="10" stroke-width="2"/>
      <path id="路径_37409" data-name="路径 37409" d="M1703.986,404.57,1679,390.138a15.275,15.275,0,0,1-7.636-13.225" transform="translate(56.888 16.39)" fill="none" stroke="#000" stroke-miterlimit="10" stroke-width="2"/>
      <path id="路径_37410" data-name="路径 37410" d="M1614.816,428.005l30.982-55.513a15.27,15.27,0,0,1,13.114-7.827l19.753-.288" transform="translate(49.111 14.671)" fill="none" stroke="#0c111a" stroke-miterlimit="10" stroke-width="2"/>
      <path id="路径_37411" data-name="路径 37411" d="M1840.882,342.909l-12.029,18.045a15.27,15.27,0,0,1-13.69,6.769l-4.32-.279" transform="translate(76.181 11.703)" fill="none" stroke="#0c111a" stroke-miterlimit="10" stroke-width="2"/>
      <path id="路径_37412" data-name="路径 37412" d="M1839.75,514.533l-9.761-15.729a15.272,15.272,0,0,0-13.462-7.21l-9.218.138" transform="translate(75.697 32.192)" fill="none" stroke="#0c111a" stroke-miterlimit="10" stroke-width="2"/>
      <path id="路径_37413" data-name="路径 37413" d="M1716.225,702.2l-28.5-16.455a15.272,15.272,0,0,1-7.636-13.225V639.6a15.272,15.272,0,0,1,7.636-13.225l28.5-16.455a15.274,15.274,0,0,1,15.272,0L1760,626.38a15.272,15.272,0,0,1,7.635,13.225v32.911A15.272,15.272,0,0,1,1760,685.741L1731.5,702.2A15.275,15.275,0,0,1,1716.225,702.2Z" transform="translate(58.123 48.281)" fill="none" stroke="#0080f4" stroke-miterlimit="10" stroke-width="2"/>
      <path id="路径_37414" data-name="路径 37414" d="M1675.148,640.5v-7.276a15.282,15.282,0,0,1,.227-2.627" transform="translate(57.394 51.392)" fill="none" stroke="#000" stroke-miterlimit="10" stroke-width="2"/>
      <path id="路径_37415" data-name="路径 37415" d="M1692.983,689.239l-10.2-5.888a15.274,15.274,0,0,1-7.635-13.227V648.5" transform="translate(57.402 53.842)" fill="none" stroke="#000" stroke-miterlimit="10" stroke-width="2"/>
      <path id="路径_37416" data-name="路径 37416" d="M1731.993,693.194l-6.433,3.714a15.254,15.254,0,0,1-2.387,1.117" transform="translate(64.015 59.96)" fill="none" stroke="#000" stroke-miterlimit="10" stroke-width="2"/>
      <path id="路径_37417" data-name="路径 37417" d="M1765,656.978v11.986a15.275,15.275,0,0,1-7.636,13.227l-17.543,10.128" transform="translate(66.317 55.002)" fill="none" stroke="#000" stroke-miterlimit="10" stroke-width="2"/>
      <path id="路径_37418" data-name="路径 37418" d="M1749.746,618.1,1756,621.71a15.287,15.287,0,0,1,2.5,1.8" transform="translate(67.675 49.68)" fill="none" stroke="#000" stroke-miterlimit="10" stroke-width="2"/>
      <path id="路径_37419" data-name="路径 37419" d="M1702.45,610.377l10.674-6.163a15.276,15.276,0,0,1,15.273,0L1747.43,615.2" transform="translate(61.18 47.424)" fill="none" stroke="#000" stroke-miterlimit="10" stroke-width="2"/>
      <path id="路径_37420" data-name="路径 37420" d="M1295.7,435.668l-26.592-15.356a13.13,13.13,0,0,1-6.565-11.369V378.232a13.132,13.132,0,0,1,6.565-11.369L1295.7,351.5a13.133,13.133,0,0,1,13.131,0l26.6,15.356a13.132,13.132,0,0,1,6.566,11.369v30.712a13.132,13.132,0,0,1-6.566,11.369l-26.6,15.356A13.133,13.133,0,0,1,1295.7,435.668Z" transform="translate(0.548 12.657)" fill="none" stroke="#0c111a" stroke-miterlimit="10" stroke-width="2"/>
      <g id="组_21420" data-name="组 21420" transform="translate(1258.54 356.618)">
        <path id="路径_37421" data-name="路径 37421" d="M1258.54,379.462v-6.935a13.043,13.043,0,0,1,.191-2.228" transform="translate(-1258.54 -341.149)" fill="none" stroke="#000" stroke-miterlimit="10" stroke-width="2"/>
        <path id="路径_37422" data-name="路径 37422" d="M1274.7,423.748l-9.6-5.541a13.132,13.132,0,0,1-6.566-11.369V386.367" transform="translate(-1258.54 -338.95)" fill="none" stroke="#000" stroke-miterlimit="10" stroke-width="2"/>
        <line id="直线_180" data-name="直线 180" x1="6.479" y2="3.741" transform="translate(51.309 93.767)" fill="none" stroke="#000" stroke-miterlimit="10" stroke-width="2"/>
        <path id="路径_37423" data-name="路径 37423" d="M1340.145,404.37a13.136,13.136,0,0,1-6.567,11.371l-17.454,10.076" transform="translate(-1250.658 -336.485)" fill="none" stroke="#000" stroke-miterlimit="10" stroke-width="2"/>
        <path id="路径_37424" data-name="路径 37424" d="M1326.153,359.185l6.054,3.495a13.131,13.131,0,0,1,1.552,1.05" transform="translate(-1249.285 -342.67)" fill="none" stroke="#000" stroke-miterlimit="10" stroke-width="2"/>
        <path id="路径_37425" data-name="路径 37425" d="M1283.722,351.931l9.55-5.513a13.132,13.132,0,0,1,13.131,0l17.4,10.049" transform="translate(-1255.093 -344.659)" fill="none" stroke="#000" stroke-miterlimit="10" stroke-width="2"/>
      </g>
      <path id="路径_37426" data-name="路径 37426" d="M1448.444,653.722l-28.6-16.513a15.27,15.27,0,0,1-7.635-13.225V590.957a15.272,15.272,0,0,1,7.635-13.225l28.6-16.513a15.275,15.275,0,0,1,15.272,0l28.6,16.512a15.272,15.272,0,0,1,7.635,13.225v33.026a15.27,15.27,0,0,1-7.635,13.225l-28.6,16.513A15.274,15.274,0,0,1,1448.444,653.722Z" transform="translate(21.188 41.614)" fill="none" stroke="#0080f4" stroke-miterlimit="10" stroke-width="2"/>
      <path id="路径_37427" data-name="路径 37427" d="M1498.789,624.137a15.266,15.266,0,0,1-6.559,7.59l-34.187,19.737a15.319,15.319,0,0,1-2.55,1.174" transform="translate(27.144 50.507)" fill="none" stroke="#000" stroke-miterlimit="10" stroke-width="2"/>
      <path id="路径_37428" data-name="路径 37428" d="M1482.021,569.482l6.579,3.8a15.275,15.275,0,0,1,7.636,13.226V620.5" transform="translate(30.791 42.944)" fill="none" stroke="#000" stroke-miterlimit="10" stroke-width="2"/>
      <path id="路径_37429" data-name="路径 37429" d="M1408.983,581.633a15.272,15.272,0,0,1,5.969-6.286l34.187-19.737a15.37,15.37,0,0,1,2.7-1.227" transform="translate(20.734 40.848)" fill="none" stroke="#000" stroke-miterlimit="10" stroke-width="2"/>
      <path id="路径_37430" data-name="路径 37430" d="M1421.388,640.008l-6.237-3.6a15.274,15.274,0,0,1-7.635-13.227V589.949" transform="translate(20.526 45.827)" fill="none" stroke="#000" stroke-miterlimit="10" stroke-width="2"/>
      <path id="路径_37431" data-name="路径 37431" d="M1458.9,434.533l-41.931-24.209a15.27,15.27,0,0,1-7.635-13.225V348.681a15.273,15.273,0,0,1,7.635-13.226l41.931-24.21a15.269,15.269,0,0,1,15.272,0l41.932,24.209a15.274,15.274,0,0,1,7.636,13.227v48.414a15.271,15.271,0,0,1-7.636,13.225l-41.932,24.209A15.274,15.274,0,0,1,1458.9,434.533Z" transform="translate(20.798 7.01)" fill="none" stroke="#0080f4" stroke-miterlimit="10" stroke-width="2"/>
      <line id="直线_181" data-name="直线 181" y1="10.077" transform="translate(1422.756 387.027)" fill="none" stroke="#000" stroke-miterlimit="10" stroke-width="2"/>
      <path id="路径_37432" data-name="路径 37432" d="M1438.142,419.453,1410.51,403.5a15.27,15.27,0,0,1-7.635-13.225" transform="translate(19.89 18.232)" fill="none" stroke="#000" stroke-miterlimit="10" stroke-width="2"/>
      <line id="直线_182" data-name="直线 182" x1="8.031" y2="4.637" transform="translate(1494.711 445.402)" fill="none" stroke="#000" stroke-miterlimit="10" stroke-width="2"/>
      <path id="路径_37433" data-name="路径 37433" d="M1520.674,390.275a15.272,15.272,0,0,1-7.635,13.225l-31.851,18.389" transform="translate(30.684 18.233)" fill="none" stroke="#000" stroke-miterlimit="10" stroke-width="2"/>
      <line id="直线_183" data-name="直线 183" y2="9.874" transform="translate(1551.378 363.189)" fill="none" stroke="#000" stroke-miterlimit="10" stroke-width="2"/>
      <path id="路径_37434" data-name="路径 37434" d="M1485.192,315.022l27.3,15.761a15.272,15.272,0,0,1,7.635,13.225v1.417" transform="translate(31.234 7.807)" fill="none" stroke="#000" stroke-miterlimit="10" stroke-width="2"/>
      <line id="直线_184" data-name="直线 184" y1="4.346" x2="7.528" transform="translate(1471.893 310.307)" fill="none" stroke="#000" stroke-miterlimit="10" stroke-width="2"/>
      <path id="路径_37435" data-name="路径 37435" d="M1403.524,339.714a15.265,15.265,0,0,1,6.9-8.527l33.117-19.12" transform="translate(19.981 7.403)" fill="none" stroke="#000" stroke-miterlimit="10" stroke-width="2"/>
      <path id="路径_37436" data-name="路径 37436" d="M1869.329,364.526l-31.094-17.951a15.272,15.272,0,0,1-7.635-13.225v-35.9a15.274,15.274,0,0,1,7.635-13.227l31.094-17.951a15.275,15.275,0,0,1,15.272,0l31.094,17.951a15.273,15.273,0,0,1,7.635,13.227v35.9a15.271,15.271,0,0,1-7.635,13.225L1884.6,364.526A15.269,15.269,0,0,1,1869.329,364.526Z" transform="translate(78.886 0.854)" fill="none" stroke="#0c111a" stroke-miterlimit="10" stroke-width="2"/>
      <path id="路径_37437" data-name="路径 37437" d="M1845.792,272.319l21.282-12.287a15.274,15.274,0,0,1,13.453-.895" transform="translate(80.965 0)" fill="none" stroke="#000" stroke-miterlimit="10" stroke-width="2"/>
      <path id="路径_37438" data-name="路径 37438" d="M1825.365,327V290.3q0-.648.055-1.289" transform="translate(78.169 4.246)" fill="none" stroke="#000" stroke-miterlimit="10" stroke-width="2"/>
      <path id="路径_37439" data-name="路径 37439" d="M1854.549,352.973l-21.569-12.453a15.272,15.272,0,0,1-7.445-10.815" transform="translate(78.192 9.883)" fill="none" stroke="#000" stroke-miterlimit="10" stroke-width="2"/>
      <path id="路径_37440" data-name="路径 37440" d="M1910.039,341.752l-31.875,18.4a15.4,15.4,0,0,1-1.819.895" transform="translate(85.147 11.543)" fill="none" stroke="#000" stroke-miterlimit="10" stroke-width="2"/>
      <path id="路径_37441" data-name="路径 37441" d="M1918.009,305.892v24.661a15.272,15.272,0,0,1-7.635,13.225" transform="translate(89.805 6.558)" fill="none" stroke="#000" stroke-miterlimit="10" stroke-width="2"/>
      <path id="路径_37442" data-name="路径 37442" d="M1882.252,262.271l31.969,18.457a15.361,15.361,0,0,1,1.685,1.128" transform="translate(85.956 0.587)" fill="none" stroke="#000" stroke-miterlimit="10" stroke-width="2"/>
      <path id="路径_37443" data-name="路径 37443" d="M1864.336,611.078l-37.214-21.487a15.272,15.272,0,0,1-7.637-13.225V533.391a15.272,15.272,0,0,1,7.637-13.225l37.214-21.487a15.275,15.275,0,0,1,15.271,0l37.214,21.487a15.272,15.272,0,0,1,7.636,13.225v42.974a15.271,15.271,0,0,1-7.636,13.225l-37.214,21.487A15.269,15.269,0,0,1,1864.336,611.078Z" transform="translate(77.364 32.941)" fill="none" stroke="#0080f4" stroke-miterlimit="10" stroke-width="2"/>
      <g id="组_21801" data-name="组 21801" transform="translate(1891.225 522.231)">
        <line id="直线_185" data-name="直线 185" y1="24.245" transform="translate(0.001 40.127)" fill="none" stroke="#0c111a" stroke-miterlimit="10" stroke-width="2"/>
        <path id="路径_37444" data-name="路径 37444" d="M1840.89,595l-18.715-10.8a15.273,15.273,0,0,1-7.636-13.225V556.229" transform="translate(-1814.538 -481.131)" fill="none" stroke="#0c111a" stroke-miterlimit="10" stroke-width="2"/>
        <path id="路径_37445" data-name="路径 37445" d="M1893.416,592.251l-20.555,11.867a15.223,15.223,0,0,1-2.538,1.17" transform="translate(-1806.902 -476.2)" fill="none" stroke="#0c111a" stroke-miterlimit="10" stroke-width="2"/>
        <path id="路径_37446" data-name="路径 37446" d="M1919.613,550.136V571.8a15.272,15.272,0,0,1-7.635,13.225l-12.9,7.449" transform="translate(-1802.967 -481.965)" fill="none" stroke="#0c111a" stroke-miterlimit="10" stroke-width="2"/>
        <path id="路径_37447" data-name="路径 37447" d="M1891.662,503l21.329,12.314a15.43,15.43,0,0,1,1.464.962" transform="translate(-1803.981 -488.416)" fill="none" stroke="#0c111a" stroke-miterlimit="10" stroke-width="2"/>
        <path id="路径_37448" data-name="路径 37448" d="M1842.311,503.253l19.112-11.035a15.276,15.276,0,0,1,15.272,0l12.915,7.457" transform="translate(-1810.736 -490.173)" fill="none" stroke="#0c111a" stroke-miterlimit="10" stroke-width="2"/>
      </g>
      <path id="路径_37449" data-name="路径 37449" d="M1332.093,385.737h33.98a7.872,7.872,0,0,0,7.872-7.872h0V363.344a10.178,10.178,0,0,1,10.178-10.179h35.495" transform="translate(10.068 13.118)" fill="none" stroke="#0c111a" stroke-miterlimit="10" stroke-width="2"/>
      <line id="直线_186" data-name="直线 186" x2="41.529" transform="translate(1748.136 524.646)" fill="none" stroke="#0c111a" stroke-miterlimit="10" stroke-width="2"/>
      <line id="直线_187" data-name="直线 187" x2="45.703" transform="translate(1799.855 524.544)" fill="none" stroke="#0c111a" stroke-miterlimit="10" stroke-width="2"/>
      <line id="直线_188" data-name="直线 188" x2="9.093" y2="12.746" transform="translate(1536.913 425.092)" fill="none" stroke="#000" stroke-miterlimit="10" stroke-width="2"/>
      <line id="直线_189" data-name="直线 189" x2="24.116" y2="35.326" transform="translate(1551.673 446.152)" fill="none" stroke="#0c111a" stroke-miterlimit="10" stroke-width="2"/>
      <line id="直线_190" data-name="直线 190" y2="9.229" transform="translate(1728.915 374.225)" fill="none" stroke="#000" stroke-miterlimit="10" stroke-width="2"/>
      <line id="直线_191" data-name="直线 191" x2="37.186" transform="translate(1840.632 379.451)" fill="none" stroke="#000" stroke-miterlimit="10" stroke-width="2"/>
      <line id="直线_192" data-name="直线 192" x2="23.232" y2="35.49" transform="translate(1682.498 633.122)" fill="none" stroke="#000" stroke-miterlimit="10" stroke-width="2"/>
      <line id="直线_193" data-name="直线 193" x1="25.537" y2="37.891" transform="translate(1569.211 620.907)" fill="none" stroke="#0c111a" stroke-miterlimit="10" stroke-width="2"/>
      <path id="路径_37450" data-name="路径 37450" d="M1489.025,620.042h34.51s5.157.357,7.872-2.7" transform="translate(31.765 49.577)" fill="none" stroke="#000" stroke-miterlimit="10" stroke-width="2"/>
      <g id="组_21796" data-name="组 21796" transform="translate(1591.487 519.684)">
        <path id="路径_38716" data-name="路径 38716" d="M1578.887,488.329a6.1,6.1,0,0,0-1.091-.255,9.366,9.366,0,0,0-1.418-.092,9.514,9.514,0,0,0-1.468.093,6.185,6.185,0,0,0-1.065.252,2.666,2.666,0,0,0-1.864,2.572v12.153h-12.058V490.9a2.668,2.668,0,0,0-1.862-2.57,6.1,6.1,0,0,0-1.091-.255,11.2,11.2,0,0,0-2.866,0,6.156,6.156,0,0,0-1.116.257,2.666,2.666,0,0,0-1.859,2.57v34.033a2.7,2.7,0,0,0,.442,1.5,2.731,2.731,0,0,0,1.411,1.066,5.989,5.989,0,0,0,1.121.259,11.206,11.206,0,0,0,2.867,0,5.942,5.942,0,0,0,1.089-.254,2.665,2.665,0,0,0,1.865-2.572V511.244h12.058v13.688a2.665,2.665,0,0,0,1.851,2.567,6.056,6.056,0,0,0,1.078.257,9.5,9.5,0,0,0,1.468.093,9.373,9.373,0,0,0,1.418-.092,5.943,5.943,0,0,0,1.089-.254,2.665,2.665,0,0,0,1.865-2.572V490.9a2.668,2.668,0,0,0-1.862-2.57Z" transform="translate(-1551.129 -487.981)" fill="none" stroke="#ef54a1" stroke-miterlimit="10" stroke-width="2"/>
        <path id="路径_38717" data-name="路径 38717" d="M1606.957,521.116a2.99,2.99,0,0,0-1-1.037,2.788,2.788,0,0,0-1.468-.413h-12.017V511.06h9.851a2.877,2.877,0,0,0,1.371-.342,2.822,2.822,0,0,0,1.108-1.111,3.729,3.729,0,0,0,.414-1.261,7.482,7.482,0,0,0,.08-1.164,8.407,8.407,0,0,0-.075-1.186,3.729,3.729,0,0,0-.416-1.314,3.06,3.06,0,0,0-.932-1.033,2.733,2.733,0,0,0-1.55-.48h-9.851v-7.043H1604.3a2.754,2.754,0,0,0,2.534-1.628,4.425,4.425,0,0,0,.337-1.1,6.886,6.886,0,0,0,.1-1.236,7.113,7.113,0,0,0-.1-1.284,4.781,4.781,0,0,0-.325-1.09,2.747,2.747,0,0,0-2.547-1.667h-16.824a3.993,3.993,0,0,0-2.424.839,3.682,3.682,0,0,0-1.37,3.12v31.622a3.672,3.672,0,0,0,1.371,3.12,3.988,3.988,0,0,0,2.423.839h17.017a2.808,2.808,0,0,0,1.464-.412,2.918,2.918,0,0,0,1.028-1.1,3.812,3.812,0,0,0,.43-1.313,7.9,7.9,0,0,0,.078-1.164,8.353,8.353,0,0,0-.077-1.213A3.728,3.728,0,0,0,1606.957,521.116Z" transform="translate(-1546.674 -487.961)" fill="none" stroke="#ef54a1" stroke-miterlimit="10" stroke-width="2"/>
        <path id="路径_38718" data-name="路径 38718" d="M1631.577,521.092a3.008,3.008,0,0,0-.957-1.091,2.774,2.774,0,0,0-1.575-.48h-10.674V490.9a2.664,2.664,0,0,0-1.861-2.57,6.114,6.114,0,0,0-1.093-.255,11.2,11.2,0,0,0-2.866,0,6.123,6.123,0,0,0-1.115.257,2.67,2.67,0,0,0-1.86,2.57v32.827a3.676,3.676,0,0,0,1.371,3.12,3.993,3.993,0,0,0,2.424.839h15.674a2.763,2.763,0,0,0,1.582-.484,2.939,2.939,0,0,0,.99-1.194,4.351,4.351,0,0,0,.35-1.2,8.251,8.251,0,0,0,.077-1.219,8.6,8.6,0,0,0-.076-1.226A3.9,3.9,0,0,0,1631.577,521.092Z" transform="translate(-1543.129 -487.981)" fill="none" stroke="#ef54a1" stroke-miterlimit="10" stroke-width="2"/>
        <path id="路径_38719" data-name="路径 38719" d="M1659.115,496.239a11.2,11.2,0,0,0-1.963-3.562,11.316,11.316,0,0,0-3.088-2.592,12.336,12.336,0,0,0-3.515-1.4,22.858,22.858,0,0,0-2.746-.45c-.762-.069-1.565-.1-2.391-.1h-7.59a4.064,4.064,0,0,0-2.575.922,3.84,3.84,0,0,0-1.329,3.147v32.717a2.664,2.664,0,0,0,1.852,2.567,5.867,5.867,0,0,0,1.1.258,9.587,9.587,0,0,0,1.444.092,9.733,9.733,0,0,0,1.443-.091,5.58,5.58,0,0,0,1.111-.267,2.8,2.8,0,0,0,1.309-.946,2.656,2.656,0,0,0,.536-1.613V514.183h1.987a19.4,19.4,0,0,0,6.327-.935,13.312,13.312,0,0,0,4.718-2.758,12.253,12.253,0,0,0,3.01-4.369,14.64,14.64,0,0,0,1.029-5.57A13.433,13.433,0,0,0,1659.115,496.239Zm-16.4-.14h2.316a14.743,14.743,0,0,1,2.175.168,4.66,4.66,0,0,1,1.724.639,3.609,3.609,0,0,1,1.265,1.4,5.426,5.426,0,0,1,.55,2.625,6.544,6.544,0,0,1-.371,2.249,4.316,4.316,0,0,1-.987,1.594,4.61,4.61,0,0,1-1.655,1.05,7.968,7.968,0,0,1-2.811.41h-2.207Z" transform="translate(-1539.797 -487.961)" fill="none" stroke="#ef54a1" stroke-miterlimit="10" stroke-width="2"/>
      </g>
      <g id="组_21426" data-name="组 21426" transform="translate(1452.534 624.743)">
        <path id="路径_37377-2" data-name="路径 37377-2" d="M1436.774,605.464a8.432,8.432,0,0,0-4.3.969,5.53,5.53,0,0,1-1.779.511c-.8-.5-.617-1.514-.264-2.184a6.128,6.128,0,0,1,1.426-1.672,9.718,9.718,0,0,1,4.206-1.819l-.124-1.127a8.69,8.69,0,0,0-4.808,2.078,7.088,7.088,0,0,0-1.69,1.99c-.689,1.534-.634,3.375,1.2,3.857a5.526,5.526,0,0,0,2.274-.6c1.3-.481,2.922-1.346,4.173-.722Z" transform="translate(-1429.036 -577.592)" fill="#0080f4" stroke="#0080f4" stroke-miterlimit="10" stroke-width="0.8"/>
        <path id="路径_37378-2" data-name="路径 37378-2" d="M1436.278,609.465a47.815,47.815,0,0,0,3.346,9.263,28.516,28.516,0,0,0,5.442,7.907,10.03,10.03,0,0,0,6.833,3.258c3.851,0,7.31-1.916,10.09-3.769,1.39-.926,2.615-1.844,3.61-2.517a6,6,0,0,1,2.078-1.039,8.4,8.4,0,0,1,2.8.8c1.081.455,2.211,1.023,3.183,1.409a.592.592,0,0,0,.747-.379.524.524,0,0,0,.027-.132,7.275,7.275,0,0,0-4.661-6.868,8.639,8.639,0,0,0-7.048.4c1.28-2.74,2.728-5.692,3.979-8.682,1.49-3.546,2.659-6.948,2.659-9.65,0-11.553-8.668-19.16-16.905-19.16-9.288,0-17.452,7.034-17.47,18v.035a33.234,33.234,0,0,0,.141,4.526l.124,1.127c.169,1.38.392,2.785.7,4.192Z" transform="translate(-1428.224 -580.307)" fill="#fff" stroke="#0080f4" stroke-miterlimit="10" stroke-width="1.8"/>
        <path id="路径_37379-2" data-name="路径 37379-2" d="M1448.529,590.8a3.9,3.9,0,0,1,3.3-3.07c1.506.03,2.515,1.633,3.064,3.047a16.6,16.6,0,0,1,.881,5.407.593.593,0,0,1-.655.526.585.585,0,0,1-.226-.072,5.909,5.909,0,0,0-3.064-.74,5.973,5.973,0,0,0-3.082.74.593.593,0,0,1-.863-.455A18.631,18.631,0,0,1,1448.529,590.8Z" transform="translate(-1426.457 -579.291)" fill="#0080f4"/>
        <path id="路径_37380-2" data-name="路径 37380-2" d="M1439.323,596.648a.594.594,0,0,1-.8-.252.606.606,0,0,1-.063-.2,18.656,18.656,0,0,1,.651-5.389,3.9,3.9,0,0,1,3.3-3.07c1.505.03,2.515,1.633,3.07,3.047a16.627,16.627,0,0,1,.88,5.407.594.594,0,0,1-.88.455,5.908,5.908,0,0,0-3.07-.74A5.968,5.968,0,0,0,1439.323,596.648Z" transform="translate(-1427.747 -579.29)" fill="#0080f4"/>
        <path id="路径_37381-2" data-name="路径 37381-2" d="M1456.226,602.839a8.483,8.483,0,0,0-9.193-.722,10.238,10.238,0,0,0-3.118,2.307c-.731.853-1.4,2.082-.141,2.729a5.946,5.946,0,0,0,1.991-.106c1.868-.313,3.774-.635,5.53.546l-.7.881c-1.2-.93-3.091-.551-4.632-.316a6.355,6.355,0,0,1-2.447.1c-2.457-.639-1.523-3.261-.44-4.578a11.214,11.214,0,0,1,3.469-2.57,9.928,9.928,0,0,1,10.372.828Z" transform="translate(-1427.267 -577.608)" fill="#0080f4" stroke="#0080f4" stroke-miterlimit="10" stroke-width="0.8"/>
      </g>
      <g id="组_21424" data-name="组 21424" transform="translate(1455.042 346.819)">
        <circle id="椭圆_1642" data-name="椭圆 1642" cx="32.007" cy="32.007" r="32.007" fill="none" stroke="#0080f4" stroke-miterlimit="10" stroke-width="2"/>
        <path id="直线_194" data-name="直线 194" d="M0,0H64.015" transform="translate(0 32.007)" fill="none" stroke="#0080f4" stroke-width="2"/>
        <line id="直线_195" data-name="直线 195" x2="56.684" transform="translate(3.666 17.126)" fill="none" stroke="#0080f4" stroke-miterlimit="10" stroke-width="2"/>
        <line id="直线_196" data-name="直线 196" x2="56.013" transform="translate(3.666 46.886)" fill="none" stroke="#0080f4" stroke-miterlimit="10" stroke-width="2"/>
        <line id="直线_197" data-name="直线 197" y1="65.536" transform="translate(32.502 0.063)" fill="none" stroke="#0080f4" stroke-miterlimit="10" stroke-width="2"/>
        <ellipse id="椭圆_1643" data-name="椭圆 1643" cx="16.918" cy="31.975" rx="16.918" ry="31.975" transform="translate(15.331 0.063)" fill="none" stroke="#0080f4" stroke-miterlimit="10" stroke-width="2"/>
      </g>
      <g id="组_21425" data-name="组 21425" transform="translate(1767.125 679.367)">
        <rect id="矩形_2213" data-name="矩形 2213" width="31.736" height="24.576" transform="translate(0 21.074)" fill="none" stroke="#0080f4" stroke-miterlimit="10" stroke-width="2"/>
        <path id="矩形_2214" data-name="矩形 2214" d="M1720.595,628.291h0a12.214,12.214,0,0,1,12.215,12.215v8.729H1708.38v-8.729A12.214,12.214,0,0,1,1720.595,628.291Z" transform="translate(-1705.139 -628.291)" fill="none" stroke="#0080f4" stroke-miterlimit="10" stroke-width="2"/>
        <line id="直线_198" data-name="直线 198" y2="7.373" transform="translate(15.868 29.676)" fill="none" stroke="#0080f4" stroke-linecap="round" stroke-miterlimit="10" stroke-width="2"/>
      </g>
      <g id="组_21797" data-name="组 21797" transform="translate(1284.722 384.683)">
        <path id="路径_38720" data-name="路径 38720" d="M1317.056,372.47l-16.792-3.111a1.575,1.575,0,0,0-.556,0l-16.887,3.111a1.53,1.53,0,0,0-1.25,1.505v19.907a14.454,14.454,0,0,0,2.936,8.718,22.563,22.563,0,0,0,6.221,5.571,35.7,35.7,0,0,0,8.868,3.97,1.524,1.524,0,0,0,.8,0,35.854,35.854,0,0,0,8.814-4.008,22.649,22.649,0,0,0,6.185-5.587,14.424,14.424,0,0,0,2.919-8.676v-19.9A1.53,1.53,0,0,0,1317.056,372.47Zm-.89,21.6c0,4.751-2.72,8.9-8.086,12.343a36.484,36.484,0,0,1-7.966,3.723.4.4,0,0,1-.261,0q-16.143-5.513-16.143-16.065v-19.4a.407.407,0,0,1,.332-.4l15.872-2.921a.4.4,0,0,1,.147,0l15.773,2.921a.406.406,0,0,1,.332.4Z" transform="translate(-1281.57 -369.334)" fill="#0c111a"/>
      </g>
      <g id="组_21426-2" data-name="组 21426" transform="translate(1932.745 291.457)">
        <path id="路径_37377-2-2" data-name="路径 37377-2" d="M1858.8,312.584a8.43,8.43,0,0,0-4.3.969,5.5,5.5,0,0,1-1.779.51c-.8-.5-.617-1.514-.264-2.184a6.117,6.117,0,0,1,1.426-1.672,9.731,9.731,0,0,1,4.206-1.819l-.124-1.127a8.688,8.688,0,0,0-4.808,2.078,7.086,7.086,0,0,0-1.691,1.99c-.689,1.534-.634,3.375,1.2,3.857a5.525,5.525,0,0,0,2.274-.6c1.3-.481,2.922-1.346,4.173-.722Z" transform="translate(-1851.059 -284.712)" stroke="#000" stroke-miterlimit="10" stroke-width="0.8"/>
        <path id="路径_37378-2-2" data-name="路径 37378-2" d="M1858.3,316.585a47.79,47.79,0,0,0,3.346,9.263,28.47,28.47,0,0,0,5.442,7.907,10.029,10.029,0,0,0,6.833,3.258c3.85,0,7.31-1.916,10.09-3.769,1.39-.927,2.615-1.844,3.609-2.517a6,6,0,0,1,2.078-1.039,8.393,8.393,0,0,1,2.8.8c1.081.455,2.211,1.023,3.183,1.409a.591.591,0,0,0,.747-.379.636.636,0,0,0,.027-.132,7.278,7.278,0,0,0-4.661-6.868,8.643,8.643,0,0,0-7.049.4c1.28-2.74,2.728-5.692,3.979-8.682,1.49-3.546,2.659-6.947,2.659-9.65,0-11.553-8.668-19.16-16.906-19.16-9.288,0-17.453,7.034-17.47,18v.035a32.99,32.99,0,0,0,.141,4.526l.124,1.127c.169,1.38.392,2.785.705,4.192Z" transform="translate(-1850.248 -287.427)" fill="#fff" stroke="#000" stroke-miterlimit="10" stroke-width="1.8"/>
        <path id="路径_37379-2-2" data-name="路径 37379-2" d="M1870.552,297.923a3.9,3.9,0,0,1,3.3-3.07c1.506.03,2.515,1.633,3.064,3.047a16.609,16.609,0,0,1,.881,5.407.6.6,0,0,1-.656.527.611.611,0,0,1-.225-.073,5.91,5.91,0,0,0-3.064-.74,5.976,5.976,0,0,0-3.082.74.593.593,0,0,1-.863-.455A18.641,18.641,0,0,1,1870.552,297.923Z" transform="translate(-1848.48 -286.411)"/>
        <path id="路径_37380-2-2" data-name="路径 37380-2" d="M1861.346,303.768a.593.593,0,0,1-.863-.455,18.582,18.582,0,0,1,.652-5.389,3.9,3.9,0,0,1,3.3-3.07c1.505.03,2.515,1.633,3.07,3.047a16.63,16.63,0,0,1,.88,5.407.594.594,0,0,1-.88.455,5.908,5.908,0,0,0-3.07-.74A5.969,5.969,0,0,0,1861.346,303.768Z" transform="translate(-1849.77 -286.41)"/>
        <path id="路径_37381-2-2" data-name="路径 37381-2" d="M1878.249,309.958a8.482,8.482,0,0,0-9.193-.722,10.21,10.21,0,0,0-3.119,2.307c-.731.853-1.395,2.082-.141,2.728a5.951,5.951,0,0,0,1.991-.106c1.868-.313,3.775-.636,5.53.546l-.705.881c-1.2-.93-3.091-.551-4.632-.316a6.335,6.335,0,0,1-2.446.1c-2.457-.639-1.524-3.261-.44-4.578a11.218,11.218,0,0,1,3.469-2.571,9.929,9.929,0,0,1,10.372.828Z" transform="translate(-1849.291 -284.728)" stroke="#000" stroke-miterlimit="10" stroke-width="0.8"/>
      </g>
      <g id="组_21798" data-name="组 21798" transform="translate(1293.056 400.111)">
        <path id="路径_38721" data-name="路径 38721" d="M1296.406,394.908a1.778,1.778,0,0,1-1.129-.4l-5.918-4.841a1.251,1.251,0,1,1,1.583-1.937l5.466,4.472,11.146-9.023a1.251,1.251,0,0,1,1.573,1.944l-11.6,9.391A1.777,1.777,0,0,1,1296.406,394.908Z" transform="translate(-1288.9 -382.9)" fill="#0c111a"/>
      </g>
      <path id="路径_38722" data-name="路径 38722" d="M1893.7,555.854l-.036-.036a.736.736,0,0,0-1.037.011l-9.154,9.419c-.012.011-.03.011-.036,0l-4.293-4.419a.759.759,0,0,0-1.09,1.056l4.874,5.011a.741.741,0,0,0,.473.216h.108a.741.741,0,0,0,.474-.216l9.731-10.011A.73.73,0,0,0,1893.7,555.854Z" transform="translate(84.43 38.24)" fill="#0080f4" stroke="#0080f4" stroke-width="0.6"/>
      <g id="组_21799" data-name="组 21799" transform="translate(1932.177 565.38)">
        <path id="路径_38723" data-name="路径 38723" d="M1860.27,556.187a1.079,1.079,0,1,0,0,2.158h14.011a1.079,1.079,0,0,0,0-2.158Z" transform="translate(-1849.377 -524.299)" fill="#0080f4" stroke="#0080f4" stroke-miterlimit="10" stroke-width="0.5"/>
        <path id="路径_38724" data-name="路径 38724" d="M1880.217,547.895a1.082,1.082,0,0,0-1.079-1.079H1860.27a1.079,1.079,0,0,0,0,2.159h18.868A1.083,1.083,0,0,0,1880.217,547.895Z" transform="translate(-1849.377 -525.581)" fill="#0080f4" stroke="#0080f4" stroke-miterlimit="10" stroke-width="0.5"/>
        <path id="路径_38725" data-name="路径 38725" d="M1879.138,537.445H1860.27a1.079,1.079,0,0,0,0,2.159h18.868a1.079,1.079,0,0,0,0-2.159Z" transform="translate(-1849.377 -526.864)" fill="#0080f4" stroke="#0080f4" stroke-miterlimit="10" stroke-width="0.5"/>
        <path id="路径_38727" data-name="路径 38727" d="M1888.622,573.042h-35.731a.654.654,0,0,1-.654-.653V530.47a.654.654,0,0,1,.654-.653h35.983a.654.654,0,0,1,.653.653v22.458a.84.84,0,1,0,1.679,0V530.47a2.335,2.335,0,0,0-2.332-2.332h-35.983a2.334,2.334,0,0,0-2.332,2.332v41.919a2.334,2.334,0,0,0,2.332,2.332h35.731a.84.84,0,0,0,0-1.679Z" transform="translate(-1850.559 -528.138)" fill="#0080f4" stroke="#0080f4" stroke-miterlimit="10" stroke-width="0.5"/>
      </g>
    </g>
    <g id="蒙版组_29" data-name="蒙版组 29" transform="translate(12459 -2220)" clip-path="url(#clip-path)">
      <g id="组_21645" data-name="组 21645" transform="translate(607.025 42)" opacity="0.05">
        <g id="组_21643" data-name="组 21643" transform="translate(511.697 290.751)">
          <path id="路径_38579" data-name="路径 38579" d="M1013.384-159.409,893.756-228.476a25.412,25.412,0,0,1-12.707-22.007V-388.618a25.414,25.414,0,0,1,12.707-22.008l119.628-69.067a25.414,25.414,0,0,1,25.412,0l119.628,69.067a25.414,25.414,0,0,1,12.706,22.008v138.135a25.412,25.412,0,0,1-12.706,22.007L1038.8-159.409A25.414,25.414,0,0,1,1013.384-159.409Z" transform="translate(-864.619 497.837)" fill="none" stroke="#000" stroke-miterlimit="10" stroke-width="3"/>
          <line id="直线_476" data-name="直线 476" y1="17.727" transform="translate(0 103.269)" fill="none" stroke="#000" stroke-miterlimit="10" stroke-width="3"/>
          <line id="直线_477" data-name="直线 477" y1="81.974" transform="translate(0 137.481)" fill="none" stroke="#000" stroke-miterlimit="10" stroke-width="3"/>
          <line id="直线_478" data-name="直线 478" x1="14.725" y1="8.501" transform="translate(16.86 280.988)" fill="none" stroke="#000" stroke-miterlimit="10" stroke-width="3"/>
          <line id="直线_479" data-name="直线 479" x1="72.444" y1="41.826" transform="translate(45.325 297.423)" fill="none" stroke="#000" stroke-miterlimit="10" stroke-width="3"/>
          <line id="直线_480" data-name="直线 480" x1="14.226" y2="8.214" transform="translate(179.284 346.787)" fill="none" stroke="#000" stroke-miterlimit="10" stroke-width="3"/>
          <line id="直线_481" data-name="直线 481" x1="71.959" y2="41.545" transform="translate(208.141 296.794)" fill="none" stroke="#000" stroke-miterlimit="10" stroke-width="3"/>
          <line id="直线_482" data-name="直线 482" y2="16.824" transform="translate(324.336 235.376)" fill="none" stroke="#000" stroke-miterlimit="10" stroke-width="3"/>
          <line id="直线_483" data-name="直线 483" y2="82.877" transform="translate(324.336 134.545)" fill="none" stroke="#000" stroke-miterlimit="10" stroke-width="3"/>
          <line id="直线_484" data-name="直线 484" x2="14.76" y2="8.522" transform="translate(292.842 65.816)" fill="none" stroke="#000" stroke-miterlimit="10" stroke-width="3"/>
          <line id="直线_485" data-name="直线 485" x2="72.021" y2="41.581" transform="translate(206.279 15.839)" fill="none" stroke="#000" stroke-miterlimit="10" stroke-width="3"/>
          <line id="直线_486" data-name="直线 486" y1="8.291" x2="14.36" transform="translate(131.131)" fill="none" stroke="#000" stroke-miterlimit="10" stroke-width="3" opacity="0.5"/>
          <line id="直线_487" data-name="直线 487" y1="41.224" x2="71.402" transform="translate(44.349 17.17)" fill="none" stroke="#000" stroke-miterlimit="10" stroke-width="3"/>
        </g>
        <path id="路径_38580" data-name="路径 38580" d="M1168.183-454.584l-61.941-35.762a25.41,25.41,0,0,1-12.705-22.007v-71.525a25.41,25.41,0,0,1,12.705-22.007l61.941-35.761a25.407,25.407,0,0,1,25.412,0l61.941,35.761a25.412,25.412,0,0,1,12.706,22.007v71.525a25.412,25.412,0,0,1-12.706,22.007l-61.941,35.762A25.413,25.413,0,0,1,1168.183-454.584Z" transform="translate(-277.502 731.103)" fill="none" stroke="#000" stroke-miterlimit="10" stroke-width="3"/>
        <path id="路径_38581" data-name="路径 38581" d="M1179.55-501.2l-11.514,6.647a25.756,25.756,0,0,1-2.492,1.263" transform="translate(-251.943 782.163)" fill="none" stroke="#000" stroke-miterlimit="10" stroke-width="3"/>
        <path id="路径_38582" data-name="路径 38582" d="M1245.692-539.016a25.417,25.417,0,0,1-11.963,15.9l-48.381,27.932" transform="translate(-244.914 768.74)" fill="none" stroke="#000" stroke-miterlimit="10" stroke-width="3"/>
        <line id="直线_488" data-name="直线 488" y2="15.751" transform="translate(1001.521 156.114)" fill="none" stroke="#000" stroke-miterlimit="10" stroke-width="3"/>
        <path id="路径_38583" data-name="路径 38583" d="M1190.822-638.194l40.964,23.652a25.408,25.408,0,0,1,12.705,22.007" transform="translate(-242.971 733.537)" fill="none" stroke="#000" stroke-miterlimit="10" stroke-width="3"/>
        <path id="路径_38584" data-name="路径 38584" d="M1141.4-645.793l9.8-5.66q.987-.569,2.009-1.043" transform="translate(-260.515 728.461)" fill="none" stroke="#000" stroke-miterlimit="10" stroke-width="3"/>
        <path id="路径_38585" data-name="路径 38585" d="M1086.423-598.847a25.41,25.41,0,0,1,11.563-14.468l49.078-28.336" transform="translate(-280.027 732.31)" fill="none" stroke="#000" stroke-miterlimit="10" stroke-width="3"/>
        <path id="路径_38587" data-name="路径 38587" d="M1006.642-454.15l51.553-92.369a25.409,25.409,0,0,1,21.82-13.025l32.868-.478" transform="translate(-308.344 761.284)" fill="none" stroke="#000" stroke-miterlimit="10" stroke-width="3"/>
        <path id="路径_38588" data-name="路径 38588" d="M1310-590l-11.883,26.319c-2.99,6.623-8.145,10.387-13.524,9.874l-4.273-.406" transform="translate(-190.893 750.645)" fill="none" stroke="#000" stroke-miterlimit="10" stroke-width="3"/>
        <path id="路径_38589" data-name="路径 38589" d="M1329.37-344.239l-16.242-26.171a25.411,25.411,0,0,0-22.4-12l-15.338.229" transform="translate(-212.954 824.322)" fill="none" stroke="#000" stroke-miterlimit="10" stroke-width="3"/>
        <path id="路径_38590" data-name="路径 38590" d="M1157.853-63.183,1110.43-90.564a25.412,25.412,0,0,1-12.707-22.007v-54.76a25.41,25.41,0,0,1,12.707-22.007l47.423-27.381a25.413,25.413,0,0,1,25.412,0l47.425,27.381a25.409,25.409,0,0,1,12.705,22.007v54.76a25.411,25.411,0,0,1-12.705,22.007l-47.425,27.381A25.413,25.413,0,0,1,1157.853-63.183Z" transform="translate(-276.016 881.929)" fill="none" stroke="#000" stroke-miterlimit="10" stroke-width="3"/>
        <path id="路径_38592" data-name="路径 38592" d="M1120.55-95.561l-16.971-9.8a25.416,25.416,0,0,1-12.705-22.008v-35.976" transform="translate(-278.447 902.082)" fill="none" stroke="#000" stroke-miterlimit="10" stroke-width="3"/>
        <path id="路径_38593" data-name="路径 38593" d="M1172.6-100.947l-10.7,6.18a25.448,25.448,0,0,1-3.979,1.859" transform="translate(-254.65 924.229)" fill="none" stroke="#000" stroke-miterlimit="10" stroke-width="3"/>
        <path id="路径_38594" data-name="路径 38594" d="M1223.06-151.51v19.943a25.414,25.414,0,0,1-12.707,22.008l-29.191,16.853" transform="translate(-246.4 906.282)" fill="none" stroke="#000" stroke-miterlimit="10" stroke-width="3"/>
        <path id="路径_38595" data-name="路径 38595" d="M1195.024-205.792l10.409,6.009a25.435,25.435,0,0,1,4.158,3" transform="translate(-241.48 887.015)" fill="none" stroke="#000" stroke-miterlimit="10" stroke-width="3"/>
        <path id="路径_38597" data-name="路径 38597" d="M562.612-422.758,511.14-452.474a25.411,25.411,0,0,1-12.705-22.007v-59.435a25.41,25.41,0,0,1,12.705-22.007l51.471-29.717a25.413,25.413,0,0,1,25.412,0l51.47,29.717A25.412,25.412,0,0,1,652.2-533.916v59.435a25.412,25.412,0,0,1-12.707,22.007l-51.47,29.717A25.414,25.414,0,0,1,562.612-422.758Z" transform="translate(-488.728 750.983)" fill="none" stroke="#000" stroke-miterlimit="10" stroke-width="3"/>
        <g id="组_21644" data-name="组 21644" transform="translate(0 150.731)">
          <path id="路径_38598" data-name="路径 38598" d="M491.271-537.949v-13.414a25.314,25.314,0,0,1,.369-4.313" transform="translate(-491.271 612.095)" fill="none" stroke="#000" stroke-miterlimit="10" stroke-width="3"/>
          <path id="路径_38599" data-name="路径 38599" d="M522.553-457.247l-18.576-10.724a25.413,25.413,0,0,1-12.705-22.007v-39.614" transform="translate(-491.271 621.353)" fill="none" stroke="#000" stroke-miterlimit="10" stroke-width="3"/>
          <line id="直线_489" data-name="直线 489" x1="12.539" y2="7.24" transform="translate(99.295 181.463)" fill="none" stroke="#000" stroke-miterlimit="10" stroke-width="3"/>
          <path id="路径_38600" data-name="路径 38600" d="M631.261-500.356a25.452,25.452,0,0,1-.365,4.288,25.419,25.419,0,0,1-12.342,17.719l-33.776,19.5" transform="translate(-458.081 631.731)" fill="none" stroke="#000" stroke-miterlimit="10" stroke-width="3"/>
          <path id="路径_38601" data-name="路径 38601" d="M601.06-573.727l11.715,6.764a25.517,25.517,0,0,1,3,2.033" transform="translate(-452.302 605.688)" fill="none" stroke="#000" stroke-miterlimit="10" stroke-width="3"/>
          <path id="路径_38602" data-name="路径 38602" d="M532.161-583.242l18.48-10.669a25.413,25.413,0,0,1,25.412,0l33.682,19.446" transform="translate(-476.757 597.316)" fill="none" stroke="#000" stroke-miterlimit="10" stroke-width="3"/>
        </g>
        <path id="路径_38603" data-name="路径 38603" d="M784.13-130.363,736.539-157.84a25.409,25.409,0,0,1-12.705-22.007V-234.8a25.411,25.411,0,0,1,12.705-22.007l47.591-27.477a25.414,25.414,0,0,1,25.412,0l47.591,27.477A25.411,25.411,0,0,1,869.839-234.8v54.954a25.409,25.409,0,0,1-12.705,22.007l-47.591,27.477A25.413,25.413,0,0,1,784.13-130.363Z" transform="translate(-408.725 857.947)" fill="none" stroke="#000" stroke-miterlimit="10" stroke-width="3"/>
        <path id="路径_38604" data-name="路径 38604" d="M856.246-197.36a25.408,25.408,0,0,1-10.913,12.629l-56.885,32.842a25.435,25.435,0,0,1-4.244,1.954" transform="translate(-387.297 890.008)" fill="none" stroke="#000" stroke-miterlimit="10" stroke-width="3"/>
        <path id="路径_38605" data-name="路径 38605" d="M821.241-273.667l10.946,6.321a25.412,25.412,0,0,1,12.707,22.007v56.569" transform="translate(-374.151 862.924)" fill="none" stroke="#000" stroke-miterlimit="10" stroke-width="3"/>
        <path id="路径_38606" data-name="路径 38606" d="M719.27-249.4a25.416,25.416,0,0,1,6.6-8.165,25.443,25.443,0,0,1,3.331-2.294l56.884-32.842a25.554,25.554,0,0,1,4.493-2.042" transform="translate(-410.345 855.441)" fill="none" stroke="#000" stroke-miterlimit="10" stroke-width="3"/>
        <path id="路径_38607" data-name="路径 38607" d="M740.3-161.8l-10.378-5.992A25.413,25.413,0,0,1,717.222-189.8v-55.3" transform="translate(-411.072 873.066)" fill="none" stroke="#000" stroke-miterlimit="10" stroke-width="3"/>
        <path id="路径_38608" data-name="路径 38608" d="M801.881-428.266l-69.77-40.283a25.409,25.409,0,0,1-12.705-22.007v-80.563a25.413,25.413,0,0,1,12.705-22.008l69.77-40.281a25.407,25.407,0,0,1,25.412,0l69.771,40.281a25.413,25.413,0,0,1,12.705,22.008v80.563a25.409,25.409,0,0,1-12.705,22.007l-69.771,40.283A25.414,25.414,0,0,1,801.881-428.266Z" transform="translate(-410.296 734.028)" fill="none" stroke="#000" stroke-miterlimit="10" stroke-width="3"/>
        <line id="直线_490" data-name="直线 490" y1="16.767" transform="translate(297.366 214.546)" fill="none" stroke="#000" stroke-miterlimit="10" stroke-width="3"/>
        <path id="路径_38609" data-name="路径 38609" d="M769.423-475.312l-45.979-26.546a25.411,25.411,0,0,1-12.705-22.007" transform="translate(-413.373 774.118)" fill="none" stroke="#000" stroke-miterlimit="10" stroke-width="3"/>
        <line id="直线_491" data-name="直线 491" x1="13.364" y2="7.715" transform="translate(416.997 311.606)" fill="none" stroke="#000" stroke-miterlimit="10" stroke-width="3"/>
        <line id="直线_492" data-name="直线 492" y2="16.429" transform="translate(511.217 174.914)" fill="none" stroke="#000" stroke-miterlimit="10" stroke-width="3"/>
        <path id="路径_38611" data-name="路径 38611" d="M825.669-628.929,871.091-602.7A25.412,25.412,0,0,1,883.8-580.7v2.356" transform="translate(-372.579 736.826)" fill="none" stroke="#000" stroke-miterlimit="10" stroke-width="3"/>
        <line id="直线_493" data-name="直线 493" y1="7.232" x2="12.526" transform="translate(379.059 87.059)" fill="none" stroke="#000" stroke-miterlimit="10" stroke-width="3"/>
        <path id="路径_38612" data-name="路径 38612" d="M711.649-587.054a25.4,25.4,0,0,1,11.472-14.186l55.105-31.815" transform="translate(-413.05 735.361)" fill="none" stroke="#000" stroke-miterlimit="10" stroke-width="3"/>
        <path id="路径_38613" data-name="路径 38613" d="M1372.351-532.955l-51.737-29.87a25.411,25.411,0,0,1-12.705-22.007v-59.741a25.412,25.412,0,0,1,12.705-22.008l51.737-29.87a25.413,25.413,0,0,1,25.412,0l51.737,29.87a25.412,25.412,0,0,1,12.705,22.008v59.741a25.41,25.41,0,0,1-12.705,22.007l-51.737,29.87A25.407,25.407,0,0,1,1372.351-532.955Z" transform="translate(-201.412 711.652)" fill="none" stroke="#000" stroke-miterlimit="10" stroke-width="3"/>
        <path id="路径_38614" data-name="路径 38614" d="M1329.118-684.711l35.413-20.446a25.418,25.418,0,0,1,22.385-1.489" transform="translate(-193.884 708.561)" fill="none" stroke="#000" stroke-miterlimit="10" stroke-width="3"/>
        <path id="路径_38615" data-name="路径 38615" d="M1300.6-602.032v-61.074q0-1.079.091-2.145" transform="translate(-204.005 723.934)" fill="none" stroke="#000" stroke-miterlimit="10" stroke-width="3"/>
        <path id="路径_38616" data-name="路径 38616" d="M1349.115-569.714l-35.888-20.721a25.411,25.411,0,0,1-12.388-18" transform="translate(-203.922 744.102)" fill="none" stroke="#000" stroke-miterlimit="10" stroke-width="3"/>
        <path id="路径_38617" data-name="路径 38617" d="M1427.84-591.61,1374.8-560.988a25.447,25.447,0,0,1-3.027,1.489" transform="translate(-178.743 750.072)" fill="none" stroke="#000" stroke-miterlimit="10" stroke-width="3"/>
        <path id="路径_38618" data-name="路径 38618" d="M1431.988-641.676v41.035a25.409,25.409,0,0,1-12.705,22.007" transform="translate(-161.881 732.302)" fill="none" stroke="#000" stroke-miterlimit="10" stroke-width="3"/>
        <path id="路径_38619" data-name="路径 38619" d="M1380.022-702.577l53.2,30.713a25.521,25.521,0,0,1,2.8,1.876" transform="translate(-175.816 710.685)" fill="none" stroke="#000" stroke-miterlimit="10" stroke-width="3"/>
        <path id="路径_38620" data-name="路径 38620" d="M1367.019-184.949,1305.1-220.7a25.41,25.41,0,0,1-12.707-22.007v-71.5a25.412,25.412,0,0,1,12.707-22.007l61.921-35.75a25.414,25.414,0,0,1,25.412,0l61.921,35.75a25.412,25.412,0,0,1,12.707,22.007v71.5a25.41,25.41,0,0,1-12.707,22.007l-61.921,35.75A25.407,25.407,0,0,1,1367.019-184.949Z" transform="translate(-206.92 826.826)" fill="none" stroke="#000" stroke-miterlimit="10" stroke-width="3"/>
        <path id="路径_38623" data-name="路径 38623" d="M1437.682-300.676v36.05a25.415,25.415,0,0,1-12.705,22.007l-21.469,12.395" transform="translate(-167.48 853.337)" fill="none" stroke="#000" stroke-miterlimit="10" stroke-width="3"/>
        <path id="路径_38624" data-name="路径 38624" d="M1393.159-366.481l35.49,20.489a25.558,25.558,0,0,1,2.438,1.6" transform="translate(-171.153 829.98)" fill="none" stroke="#000" stroke-miterlimit="10" stroke-width="3"/>
        <path id="路径_38625" data-name="路径 38625" d="M1324.258-362.629l31.8-18.361a25.413,25.413,0,0,1,25.412,0l21.491,12.407" transform="translate(-195.609 823.622)" fill="none" stroke="#000" stroke-miterlimit="10" stroke-width="3"/>
        <path id="路径_38626" data-name="路径 38626" d="M611.92-521.478h56.542a13.1,13.1,0,0,0,13.1-13.1v-24.163A16.936,16.936,0,0,1,698.5-575.676h59.061" transform="translate(-448.448 755.728)" fill="none" stroke="#000" stroke-miterlimit="10" stroke-width="3"/>
        <line id="直线_495" data-name="直线 495" x2="69.102" transform="translate(838.319 443.362)" fill="none" stroke="#000" stroke-miterlimit="10" stroke-width="3"/>
        <line id="直线_496" data-name="直线 496" x2="76.046" transform="translate(924.302 443.193)" fill="none" stroke="#000" stroke-miterlimit="10" stroke-width="3"/>
        <path id="路径_38628" data-name="路径 38628" d="M43.311,63.448" transform="translate(508.511 308.169)" fill="none" stroke="#000" stroke-width="3"/>
        <line id="直线_499" data-name="直线 499" y2="15.356" transform="translate(806.397 193.262)" fill="none" stroke="#000" stroke-miterlimit="10" stroke-width="3"/>
        <line id="直线_501" data-name="直线 501" x2="38.656" y2="59.054" transform="translate(729.206 623.681)" fill="none" stroke="#000" stroke-miterlimit="10" stroke-width="3"/>
        <line id="直线_502" data-name="直线 502" x1="42.491" y2="63.049" transform="translate(540.853 603.371)" fill="none" stroke="#000" stroke-miterlimit="10" stroke-width="3"/>
        <path id="路径_38627" data-name="路径 38627" d="M831.02-202.357h57.422s8.581.595,13.1-4.486" transform="translate(-370.68 886.642)" fill="none" stroke="#000" stroke-miterlimit="10" stroke-width="3"/>
      </g>
    </g>
  </g>
</svg>
