<svg xmlns="http://www.w3.org/2000/svg" xmlns:xlink="http://www.w3.org/1999/xlink" width="1820" height="880" viewBox="0 0 1820 880">
  <defs>
    <clipPath id="clip-path">
      <rect id="矩形_2278" data-name="矩形 2278" width="1820" height="880" transform="translate(50 82)" fill="#fff"/>
    </clipPath>
  </defs>
  <g id="banner9_CN" transform="translate(-50 -88)">
    <g id="组_21710" data-name="组 21710" transform="translate(0 34)">
      <path id="路径_38749" data-name="路径 38749" d="M17.42,68.02a20.1,20.1,0,0,1-3.848,4.056A43.1,43.1,0,0,0,9.62,67.708L5.3,70.932c1.82,1.2,2.184,1.508,4.108,4.056a29.889,29.889,0,0,1-7.176,3.588A18.447,18.447,0,0,1,5.148,83.1a54.079,54.079,0,0,0,6.708-3.8,22.913,22.913,0,0,1,1.352,3.744A36.233,36.233,0,0,1,10.3,85.96a31.428,31.428,0,0,1-8.372,5.408,17.776,17.776,0,0,1,2.6,4.992A37.2,37.2,0,0,0,14.3,88.4a23.148,23.148,0,0,1,.208,3.172c0,3.9-.26,5.98-.884,6.76-.364.468-.936.624-1.976.624a36.755,36.755,0,0,1-5.46-.676,14.863,14.863,0,0,1,.988,5.252c2.808.1,3.8.156,4.68.156,4.42,0,5.928-.676,6.968-3.224a16.268,16.268,0,0,1,2.34,3.64c4.836-3.328,6.344-4.68,8.476-7.852a29.7,29.7,0,0,0,3.952-8.164,27.559,27.559,0,0,0,4.056,7.644c2.6,3.64,4.784,5.616,9.2,8.528a17.7,17.7,0,0,1,3.328-5.3,25.731,25.731,0,0,1-8.424-6.6A27,27,0,0,1,36.4,81.488h7.592a34.889,34.889,0,0,1,4.836.312V76.08a30.21,30.21,0,0,1-4.784.26L47.06,72.6a30.618,30.618,0,0,0-6.344-4.94l-2.86,3.38a24.332,24.332,0,0,1,6.136,5.3H35.62c.208-5.772.208-6.188.364-7.332H30.316c.1,1.768.156,2.756.156,4.68a20.085,20.085,0,0,1-.1,2.652H24.856a26.4,26.4,0,0,1-4.836-.26v5.668a46.022,46.022,0,0,1,4.836-.26h5.1c-.728,4.264-1.508,6.6-3.328,9.516a19.81,19.81,0,0,1-7.28,7.228,26.981,26.981,0,0,0,.364-5.1c0-7.02-.832-11.128-3.536-16.9a39.737,39.737,0,0,0,3.224-2.7c1.976-1.924,1.976-1.924,2.6-2.444L17.524,68.02h2.912a8.466,8.466,0,0,1-.156-2.08v-.988H31.044v.832a9.373,9.373,0,0,1-.156,1.976h5.876a1.6,1.6,0,0,1-.052-.468,7.878,7.878,0,0,1-.1-1.612v-.728h7.124a39.916,39.916,0,0,1,5.668.26V59.7a45.3,45.3,0,0,1-5.668.312H36.608V58.764a22.679,22.679,0,0,1,.156-2.652H30.836a14.073,14.073,0,0,1,.208,2.652v1.248H20.28V58.764a22.678,22.678,0,0,1,.156-2.652H14.508a13.512,13.512,0,0,1,.208,2.6v1.3h-6.5A46.787,46.787,0,0,1,2.5,59.7v5.512a41.2,41.2,0,0,1,5.72-.26h6.5V66.1a14.217,14.217,0,0,1-.156,1.924Zm93.5-10.3a30.39,30.39,0,0,1-4.68.26H90.376a42.249,42.249,0,0,1-4.68-.26V63.34c1.092-.1,2.08-.156,3.484-.208v28.6a.885.885,0,0,0-.364.052c-1.3.156-2.288.208-3.588.26l1.248,5.98c.676-.156.832-.208,2.028-.416l.936-.156c2.444-.468,3.8-.78,4.16-.832,3.64-.572,3.64-.572,4.368-.728q2.964-.546,3.12-.624c.312-.052.364-.052.78-.1v3.588a45.611,45.611,0,0,1-.312,5.616h6.032a37.354,37.354,0,0,1-.26-5.616V94.124c.936-.156,1.352-.26,2.548-.52V88.4c-1.2.26-1.56.364-2.548.52V63.132c.52,0,1.508,0,1.976.052v3.328c.78-.1,1.352-.156,2.132-.208,1.04,9.932,2.756,16.068,6.344,22.62a31.442,31.442,0,0,1-10.036,9.048,23.077,23.077,0,0,1,3.12,5.824c4.888-3.536,7.176-5.72,10.14-9.724,3.328,4.368,4.836,5.824,10.192,9.672a23.906,23.906,0,0,1,3.12-5.824,31.253,31.253,0,0,1-9.932-9,63.33,63.33,0,0,0,7.332-24.6c.156-1.976.26-2.86.364-3.536a37.384,37.384,0,0,1-4.212.26H114.244c-1.3,0-2.392-.052-3.328-.1Zm-9.048,5.408v5.72H94.64v-5.72Zm0,10.348v5.564H94.64V73.48Zm0,10.3v6.188c-1.352.208-3.276.52-7.228,1.092v-7.28Zm24.076-17.524c-1.3,8.164-2.34,12.012-4.836,17.16-2.34-4.888-3.432-9.2-4.42-17.16Zm63.8-10.3a33.428,33.428,0,0,1-4.628,6.916,45.726,45.726,0,0,1-9.152,7.7,47.351,47.351,0,0,1-8.372,4.42A15.989,15.989,0,0,1,171.34,80.5a98.191,98.191,0,0,0,11.908-7.9,43.654,43.654,0,0,0,8.892-9.152,50.748,50.748,0,0,0,7.28,7.748,60.544,60.544,0,0,0,14.2,9.36c2.028-4.16,2.184-4.472,3.38-5.616a49.91,49.91,0,0,1-6.292-2.964,70.133,70.133,0,0,1-7.8-5.408,66.973,66.973,0,0,1-7.644-7.956c.312-.52.416-.78.832-1.508ZM195.52,104a45.565,45.565,0,0,1-.364-6.188V77.172a42.038,42.038,0,0,1,.312-5.772h-6.656a38.252,38.252,0,0,1,.364,5.72V97.868a44.777,44.777,0,0,1-.364,6.136Zm74.516-17.472a43.1,43.1,0,0,1,5.772-.312h4.68V97.244H272.22a47.029,47.029,0,0,1-6.136-.312v5.876a42.3,42.3,0,0,1,6.136-.364h20.9a42.019,42.019,0,0,1,6.084.364V96.932a46.691,46.691,0,0,1-6.084.312h-7.072V86.22H291.2a38.866,38.866,0,0,1,5.668.312V80.916a39.1,39.1,0,0,1-5.616.26h-5.2v-9.1h6.136a47.741,47.741,0,0,1,5.668.312V66.616a36.813,36.813,0,0,1-5.72.312h-6.084v-5.2a34.53,34.53,0,0,1,.364-5.512h-6.292a34.964,34.964,0,0,1,.364,5.512v5.2h-4.42c.156-.78.624-3.536.78-4.472a13.146,13.146,0,0,1,.364-1.872l-5.564-1.04a43.879,43.879,0,0,1-2.236,12.012,42.616,42.616,0,0,0-2.392-6.6l-3.484,1.664a29.721,29.721,0,0,1,2.392,7.748l3.016-1.456a23.241,23.241,0,0,1-2.756,5.2,30.178,30.178,0,0,1,4.68,2.912c-.26-.052-.416-.052-.832-.1Zm10.452-14.456v9.1h-5.46c-1.664,0-2.808-.052-3.952-.156a40.1,40.1,0,0,0,3.744-8.944Zm-25.428,9.36a65.08,65.08,0,0,0,1.924-14.56l-4.212-.52a46.67,46.67,0,0,1-1.872,13.52Zm8.684,22.88a50.469,50.469,0,0,1-.312-6.136V61.572a42.133,42.133,0,0,1,.312-5.512H257.5a34.53,34.53,0,0,1,.364,5.512V97.764a49.655,49.655,0,0,1-.364,6.552ZM348.3,69.684c2.132-4.836,2.548-5.824,3.744-9.048.468-1.3.676-1.82,1.144-2.912L347.1,56.008a39.584,39.584,0,0,1-5.252,12.9,45.252,45.252,0,0,1-7.28,9.2,26.072,26.072,0,0,1,2.756,6.136,53.944,53.944,0,0,0,5.356-6.76c-.1,3.848-.1,4.056-.1,5.824V97.5a55.556,55.556,0,0,1-.364,6.708h6.4c-.208-2.184-.312-4.524-.312-6.656V86.584a17.628,17.628,0,0,1,3.432,5.044c2.7-1.248,3.536-1.664,5.564-2.756v8.372c0,4.732,1.56,5.616,9.932,5.616,8.528,0,11.336-.572,12.948-2.5,1.248-1.612,1.976-5.044,2.392-11.492a21.074,21.074,0,0,1-5.616-2.028c-.26,6.292-.572,8.32-1.456,9.516-.676.832-2.5,1.144-7.176,1.144-4.264,0-5.148-.312-5.148-1.716V85.232c6.864-4.888,11.128-9.1,17.888-17.732.572-.728.676-.832,1.092-1.352L376.584,62.3a35.161,35.161,0,0,1-4.472,6.916,43.859,43.859,0,0,1-8.944,8.892V63.028a48.274,48.274,0,0,1,.312-6.24h-6.5a48.826,48.826,0,0,1,.312,6.24v18.98a42.517,42.517,0,0,1-9,4Zm74.62,27.092a37.535,37.535,0,0,1-.312,5.356h6.448a34.3,34.3,0,0,1-.26-5.356v-5.72h10.036v8.216a37.245,37.245,0,0,1-.312,5.3h6.344a29.431,29.431,0,0,1-.312-5.356V91.056h11.076v4.212c0,1.248-.26,1.456-1.82,1.456a33.3,33.3,0,0,1-5.1-.52,15.645,15.645,0,0,1,1.664,5.46c2.08.1,3.068.156,4.212.156,5.356,0,6.76-1.04,6.76-5.1V89.912a29.9,29.9,0,0,1,.208-4.056c-1.2.1-2.444.156-4.732.156H444.548a21.134,21.134,0,0,1,.208-3.068H438.62a17,17,0,0,1,.208,3.068H427.752c-2.08,0-3.8-.052-4.94-.156,5.668-2.5,8.476-5.044,10.14-9.048h6.292a23.9,23.9,0,0,1,3.952.208V72.18a20.417,20.417,0,0,1-4,.26h-5.1a12.749,12.749,0,0,0,.26-1.82l.052-.676h3.276a24.174,24.174,0,0,1,3.8.208v-4.42a25.241,25.241,0,0,1-3.9.208h-2.912c0-1.4.052-2.184.052-2.288h4.108a29.047,29.047,0,0,1,4.212.208V59.336a29.862,29.862,0,0,1-4.264.208h-4a21.321,21.321,0,0,1,.1-3.12h-5.824c.1.624.156,1.924.208,3.12h-5.668a27.273,27.273,0,0,1-4.68-.26v4.628a28.335,28.335,0,0,1,4.732-.26h5.564V65.94h-4.992a22.22,22.22,0,0,1-4.16-.26V70.2a22.5,22.5,0,0,1,4.212-.26H429c-.1,1.144-.208,1.56-.364,2.5h-5.98a23.348,23.348,0,0,1-4.368-.26v4.888a23.691,23.691,0,0,1,4.368-.26h4.368c-1.4,1.976-3.744,3.432-8.112,4.94a15.9,15.9,0,0,1,3.8,4.16,35.64,35.64,0,0,1,.208,4Zm39.728-39.832a25.925,25.925,0,0,1-4.264.208h-8.892c-2.132,0-3.38-.052-4.472-.156.1,1.4.156,2.184.156,4.576V79.3a30.608,30.608,0,0,1-.312,4.68h5.824a27.826,27.826,0,0,1-.312-4.576V61.832h8.06a32.182,32.182,0,0,1-5.616,7.072,28.166,28.166,0,0,1,4.212,2.652,5.278,5.278,0,0,1,2.08,3.38c0,1.144-.728,1.508-3.224,1.508a25.282,25.282,0,0,1-4-.364,13.869,13.869,0,0,1,1.456,5.252c1.508.1,2.236.1,3.068.1a15.251,15.251,0,0,0,5.1-.624,4.528,4.528,0,0,0,3.38-4.42,7.967,7.967,0,0,0-1.976-5.1,11.672,11.672,0,0,0-3.64-3.016,55.153,55.153,0,0,0,5.824-7.332,4.3,4.3,0,0,1,.572-.78Zm79.82,15.548c-.156,9.776-.416,15.08-1.144,19.916-.676,4.68-1.092,5.356-3.276,5.356a37.527,37.527,0,0,1-5.928-.572,25.393,25.393,0,0,1,1.04,5.668c3.8.208,3.8.208,5.2.208,5.252,0,6.76-1.144,7.8-5.876,1.04-4.576,1.612-11.648,1.82-21.84.156-7.02.156-7.02.312-8.58a41.1,41.1,0,0,1-5.512.26h-6.084c.208-9.1.208-9.1.416-10.5H530.92a33.676,33.676,0,0,1,.312,6.24c0,1.768,0,2.652-.1,4.264h-1.352a40.537,40.537,0,0,1-5.564-.26v5.98a39.935,39.935,0,0,1,5.2-.26h1.456c-.52,6.188-.728,7.956-1.508,11.076A32.048,32.048,0,0,1,525.148,93.6V89.08l-2.5.832V64.224c0-2.288.052-4.732.156-5.668a27.952,27.952,0,0,1-3.9.208H508.092a27.48,27.48,0,0,1-3.9-.208c.1,1.144.156,3.432.156,5.668V94.488c-2.132.312-2.652.416-3.588.468l1.04,6.136c1.352-.416,1.664-.468,3.432-.936a203.624,203.624,0,0,0,19.6-6.084,25.016,25.016,0,0,1-6.344,6.292,18.348,18.348,0,0,1,4.576,4.108,27.449,27.449,0,0,0,5.564-5.876,36.8,36.8,0,0,0,5.3-10.348,64.857,64.857,0,0,0,2.5-15.756Zm-25.22,19.032c-4.732,1.248-4.732,1.248-7.436,1.872V85.8h7.436Zm0-10.712h-7.436V74.936h7.436Zm0-10.868h-7.436V64.068h7.436Z" transform="translate(180 452)"/>
      <text id="OUR_MISSION" data-name="OUR MISSION" transform="translate(180 366)" font-size="12" font-family="HiraginoSansGB-W6, Hiragino Sans GB" letter-spacing="1.6em"><tspan x="0" y="0">OUR MISSION</tspan></text>
      <path id="路径_38750" data-name="路径 38750" d="M39.468-22.672V-1.716a36.991,36.991,0,0,1-.312,6.136H45.24a35.878,35.878,0,0,1-.312-6.136V-22.672h1.3a29.976,29.976,0,0,1,4.212.208v-5.772a26.377,26.377,0,0,1-4.784.312h-11.7v-6.864c6.812-1.2,10.14-1.976,14.248-3.536.936-.312,1.144-.416,1.768-.572L45.656-43.94C43-41.964,34.008-39.676,28.132-39.52a62.712,62.712,0,0,1,.312,8.268c0,13.728-.624,20.956-2.288,25.74A44.256,44.256,0,0,0,23.5-11.544l-4.056,1.4a49.019,49.019,0,0,1,3.016,7.852L25.48-3.744a21.831,21.831,0,0,1-2.756,4.888,25.785,25.785,0,0,1,5.148,3.38c3.952-6.032,5.98-15.132,6.032-27.2ZM19.344-34.216h1.872a40.133,40.133,0,0,1,4.836.208v-5.564a28.271,28.271,0,0,1-4.784.26H17.836a33.729,33.729,0,0,0-2.132-4.94l-5.356,1.3a38.694,38.694,0,0,1,1.664,3.64H7.956a29.938,29.938,0,0,1-4.992-.26v5.564a40.539,40.539,0,0,1,4.888-.208h2.7L6.032-33.072a23.1,23.1,0,0,1,2.236,6.136H7.02a28.589,28.589,0,0,1-4.836-.26v5.564a39.731,39.731,0,0,1,4.784-.208H12.48v3.692H7.124a28.908,28.908,0,0,1-4.888-.26V-12.9a29.812,29.812,0,0,1,4.784-.26h5.46V-1.924c0,.988-.312,1.248-1.508,1.248A29.01,29.01,0,0,1,7.228-.988a21.443,21.443,0,0,1,1.04,5.2c1.612.1,3.172.156,3.952.156,2.288,0,3.536-.312,4.42-1.04.884-.78,1.092-1.56,1.092-3.952V-13.156h4a38.247,38.247,0,0,1,4.732.208v-5.46a28.335,28.335,0,0,1-4.732.26h-4V-21.84H22a39.334,39.334,0,0,1,4.732.208V-27.2a27.957,27.957,0,0,1-4.732.26H20.9a10.661,10.661,0,0,0,1.04-1.924c.468-1.144.832-1.976,1.04-2.392l.78-1.716Zm-.676,0a32,32,0,0,1-2.964,7.28H8.528l4.68-1.248a25.032,25.032,0,0,0-2.236-6.032ZM5.408.832C7.9-2.86,8.736-4.524,10.556-9.776L5.928-11.492A24.028,24.028,0,0,1,.936-2.028ZM112.632-35.776a121.265,121.265,0,0,0,15.756-2.912l-4.264-5.2c-2.756,1.2-4.68,1.664-9.62,2.5a161.37,161.37,0,0,1-23.3,1.768H88.66a28.708,28.708,0,0,1,1.924,5.356c4.784-.1,10.3-.364,12.844-.624,1.82-.156,2.028-.156,3.38-.312v6.188H95.16a50.8,50.8,0,0,1-6.448-.312V-23.5a60.5,60.5,0,0,1,6.5-.312h11.6v6.292H92.3a49.882,49.882,0,0,1-6.4-.312v5.876a52.175,52.175,0,0,1,6.4-.312h14.508v8.58c0,1.248-.468,1.612-2.08,1.612a74.3,74.3,0,0,1-8.58-.728,15.926,15.926,0,0,1,1.56,5.668c3.068.26,5.408.364,7.072.364a16.459,16.459,0,0,0,5.824-.832c1.3-.572,2.028-2.132,2.028-4.472V-12.272h13.312a51.825,51.825,0,0,1,6.344.312v-5.876a49.526,49.526,0,0,1-6.344.312H112.632v-6.292H123.5a53.974,53.974,0,0,1,6.4.312v-5.824a51.731,51.731,0,0,1-6.5.312H112.632ZM177.32-19.032c.468-2.236.78-4,1.092-6.24h11.6c1.664,0,3.328.052,4.628.156-.1-1.248-.156-2.34-.156-4.056V-37.7c0-1.716.052-2.912.156-4.212a47.044,47.044,0,0,1-5.044.208H176.54a42.7,42.7,0,0,1-5.512-.312v5.772a45.422,45.422,0,0,1,5.46-.312h12.22v6.344h-11.6a28.472,28.472,0,0,1-4.056-.208,77.7,77.7,0,0,1-2.5,16.536c1.2-.1,2.392-.156,3.848-.156H188.76c-.416,5.252-1.04,8.528-2.08,10.608-.468.988-1.3,1.3-3.38,1.3a55.723,55.723,0,0,1-9.62-.988,23.346,23.346,0,0,1,1.352,5.928c3.38.312,5.72.468,8.216.468,4.992,0,7.228-.884,8.528-3.484,1.664-3.224,2.756-9.152,3.068-16.276.052-1.352.1-1.716.208-2.756a32.278,32.278,0,0,1-4.264.208Zm27.664-23.92a31.343,31.343,0,0,1,.364,5.772V-2.6a48.2,48.2,0,0,1-.364,6.656h6.6a47.407,47.407,0,0,1-.312-6.656V-37.18a36.222,36.222,0,0,1,.312-5.772Zm51.532,19.188c0,2.184.728,2.964,3.328,3.484,2.548.572,6.864.728,18.148.728,11.752,0,15.5-.312,17.42-1.456,1.872-1.144,2.808-3.016,3.328-6.812a36.056,36.056,0,0,1-6.084-1.04c-.156,2.652-.312,3.068-1.82,3.588-1.664.624-4.628.78-13.208.78-5.46,0-9.724-.052-12.324-.208-2.34-.1-3.016-.468-3.016-1.56v-3.12h31.824a27.11,27.11,0,0,1-.208-4.056v-5.876a18.972,18.972,0,0,1,.208-3.068,41.367,41.367,0,0,1-5.2.156h-27.4c-2.132,0-3.588-.052-5.2-.156a19.831,19.831,0,0,1,.208,3.068Zm5.772-10.244v-3.328h25.844v3.328ZM274.872-3.224A64.457,64.457,0,0,0,266.4-10.5h16.38v7.9c0,.988-.468,1.248-2.34,1.248a45.869,45.869,0,0,1-5.928-.468,15.012,15.012,0,0,1,1.56,5.616C279.084,4,279.6,4,280.956,4c5.772,0,7.592-1.248,7.592-5.1V-10.5h4.368a45.438,45.438,0,0,1,6.24.312V-15.86a40.426,40.426,0,0,1-5.98.26h-4.628a13.452,13.452,0,0,1,.364-2.964H282.62c.052.468.1.676.1.728a6.69,6.69,0,0,1,.1,1.3,7.056,7.056,0,0,1-.052.936H258.388a42.094,42.094,0,0,1-6.084-.26v5.668a44.554,44.554,0,0,1,6.24-.312h5.2l-3.12,2.548a64.2,64.2,0,0,1,9.828,8.84Zm71.5-5.928H338.78V-1.56H343.1c-.052,3.224-.78,4.16-3.9,5.044l1.82,2.756c4.212-1.664,5.356-3.328,5.356-7.8Z" transform="translate(180 452)" fill="#0080f4"/>
    </g>
    <g id="组_21800" data-name="组 21800" transform="translate(-371.448 -25.618)">
      <g id="新手引导_2" data-name="新手引导 2" transform="translate(1759.7 344.354)">
        <path id="路径_1948" data-name="路径 1948" d="M1753.639,372.147h-34.588l-9.53,8.289a1.254,1.254,0,0,1-2.051-.741l-1.233-7.549h-6.172a1,1,0,0,1-1-1h0V334.9a1,1,0,0,1,.994-1h53.576a1,1,0,0,1,1,1h0v36.247A1,1,0,0,1,1753.639,372.147Z" transform="translate(-1699.069 -333.908)" fill="none" stroke="#0080f4" stroke-linecap="round" stroke-miterlimit="10" stroke-width="2"/>
        <g id="组_799" data-name="组 799" transform="translate(14.797 13.486)">
          <path id="路径_1951" data-name="路径 1951" d="M1711.494,353.77a4.8,4.8,0,0,1-1.5-3.482,4.945,4.945,0,0,1,1.379-3.531,4.8,4.8,0,0,1,3.482-1.5l6.406-.108a4.937,4.937,0,0,1,3.531,1.378,4.8,4.8,0,0,1,1.5,3.483.987.987,0,0,1-.288.7,1.126,1.126,0,0,1-.7.313.969.969,0,0,1-1-.939v-.028a3.017,3.017,0,0,0-3.028-2.927l-6.407.11a2.941,2.941,0,0,0-2.074.923,3.1,3.1,0,0,0-.852,2.1,2.934,2.934,0,0,0,.924,2.073,3.087,3.087,0,0,0,2.1.853l5.406-.092a.985.985,0,0,1,.034,1.969l-5.407.091A4.974,4.974,0,0,1,1711.494,353.77Z" transform="translate(-1709.995 -344.967)" fill="#0080f4"/>
          <path id="路径_1952" data-name="路径 1952" d="M1722.363,353.592a4.8,4.8,0,0,1-1.5-3.485.984.984,0,1,1,1.969-.033,3.015,3.015,0,0,0,3.027,2.926l6.408-.11a2.943,2.943,0,0,0,2.074-.924,3.1,3.1,0,0,0,.851-2.1,2.944,2.944,0,0,0-.924-2.073,3.1,3.1,0,0,0-2.1-.852l-5.406.089a.988.988,0,0,1-.018-1.974l5.4-.093a4.944,4.944,0,0,1,3.53,1.379,4.8,4.8,0,0,1,1.5,3.483,4.956,4.956,0,0,1-4.86,5.027l-6.407.11a4.949,4.949,0,0,1-3.534-1.381Z" transform="translate(-1710.323 -344.961)" fill="#0080f4"/>
        </g>
      </g>
      <g id="组_21419" data-name="组 21419" transform="translate(1551.516 432.67)">
        <path id="路径_37402" data-name="路径 37402" d="M1604.561,614.441l-72.049-41.6a15.305,15.305,0,0,1-7.653-13.255v-83.2a15.308,15.308,0,0,1,7.653-13.256l72.049-41.6a15.309,15.309,0,0,1,15.306,0l72.054,41.6a15.306,15.306,0,0,1,7.653,13.256v83.2a15.305,15.305,0,0,1-7.653,13.255l-72.054,41.6A15.306,15.306,0,0,1,1604.561,614.441Z" transform="translate(-1514.962 -410.598)" fill="none" stroke="#0c111a" stroke-miterlimit="10" stroke-width="2"/>
        <line id="直线_167" data-name="直线 167" y1="10.677" transform="translate(0 62.202)" fill="none" stroke="#0c111a" stroke-miterlimit="10" stroke-width="2"/>
        <line id="直线_168" data-name="直线 168" y1="49.375" transform="translate(0 82.808)" fill="none" stroke="#0c111a" stroke-miterlimit="10" stroke-width="2"/>
        <line id="直线_169" data-name="直线 169" x1="8.869" y1="5.121" transform="translate(10.154 169.246)" fill="none" stroke="#0c111a" stroke-miterlimit="10" stroke-width="2"/>
        <line id="直线_170" data-name="直线 170" x1="43.635" y1="25.192" transform="translate(27.3 179.145)" fill="none" stroke="#0c111a" stroke-miterlimit="10" stroke-width="2"/>
        <line id="直线_171" data-name="直线 171" x1="8.568" y2="4.947" transform="translate(107.986 208.878)" fill="none" stroke="#0c111a" stroke-miterlimit="10" stroke-width="2"/>
        <line id="直线_172" data-name="直线 172" x1="43.342" y2="25.024" transform="translate(125.368 178.766)" fill="none" stroke="#0c111a" stroke-miterlimit="10" stroke-width="2"/>
        <line id="直线_173" data-name="直线 173" y2="10.134" transform="translate(195.355 141.772)" fill="none" stroke="#0c111a" stroke-miterlimit="10" stroke-width="2"/>
        <line id="直线_174" data-name="直线 174" y2="49.919" transform="translate(195.355 81.039)" fill="none" stroke="#0c111a" stroke-miterlimit="10" stroke-width="2"/>
        <line id="直线_175" data-name="直线 175" x2="8.891" y2="5.133" transform="translate(176.385 39.642)" fill="none" stroke="#0c111a" stroke-miterlimit="10" stroke-width="2"/>
        <line id="直线_176" data-name="直线 176" x2="43.38" y2="25.045" transform="translate(124.247 9.54)" fill="none" stroke="#0c111a" stroke-miterlimit="10" stroke-width="2"/>
        <line id="直线_177" data-name="直线 177" y1="4.994" x2="8.649" transform="translate(78.983)" fill="none" stroke="#0c111a" stroke-miterlimit="10" stroke-width="2" opacity="0.5"/>
        <line id="直线_178" data-name="直线 178" y1="24.83" x2="43.007" transform="translate(26.712 10.342)" fill="none" stroke="#0c111a" stroke-miterlimit="10" stroke-width="2"/>
      </g>
      <path id="路径_37403" data-name="路径 37403" d="M1722.188,418.189l-37.309-21.535a15.306,15.306,0,0,1-7.652-13.255V340.319a15.306,15.306,0,0,1,7.652-13.255l37.309-21.535a15.305,15.305,0,0,1,15.307,0l37.309,21.535a15.306,15.306,0,0,1,7.654,13.255V383.4a15.306,15.306,0,0,1-7.654,13.255L1737.5,418.189A15.306,15.306,0,0,1,1722.188,418.189Z" transform="translate(57.567 6.342)" fill="none" stroke="#0080f4" stroke-miterlimit="10" stroke-width="2"/>
      <path id="路径_37404" data-name="路径 37404" d="M1737.067,406.509l-6.936,4a15.7,15.7,0,0,1-1.5.761" transform="translate(64.753 20.459)" fill="none" stroke="#000" stroke-miterlimit="10" stroke-width="2"/>
      <path id="路径_37405" data-name="路径 37405" d="M1779.161,379.423a15.312,15.312,0,0,1-7.206,9.579l-29.141,16.825" transform="translate(66.675 16.719)" fill="none" stroke="#000" stroke-miterlimit="10" stroke-width="2"/>
      <line id="直线_179" data-name="直线 179" y2="9.488" transform="translate(1846.271 351.877)" fill="none" stroke="#000" stroke-miterlimit="10" stroke-width="2"/>
      <path id="路径_37406" data-name="路径 37406" d="M1746.736,308.386l24.674,14.243a15.306,15.306,0,0,1,7.652,13.255" transform="translate(67.219 7.026)" fill="none" stroke="#000" stroke-miterlimit="10" stroke-width="2"/>
      <path id="路径_37407" data-name="路径 37407" d="M1711.339,302.179l5.9-3.409q.595-.342,1.21-.629" transform="translate(62.372 5.598)" fill="none" stroke="#000" stroke-miterlimit="10" stroke-width="2"/>
      <path id="路径_37408" data-name="路径 37408" d="M1671.959,331.691a15.308,15.308,0,0,1,6.965-8.714l29.561-17.067" transform="translate(56.919 6.681)" fill="none" stroke="#000" stroke-miterlimit="10" stroke-width="2"/>
      <path id="路径_37409" data-name="路径 37409" d="M1704.059,404.631l-25.046-14.464a15.309,15.309,0,0,1-7.653-13.255" transform="translate(56.841 16.372)" fill="none" stroke="#000" stroke-miterlimit="10" stroke-width="2"/>
      <path id="路径_37410" data-name="路径 37410" d="M1614.816,428.146l31.051-55.636a15.3,15.3,0,0,1,13.143-7.845l19.8-.288" transform="translate(49.027 14.631)" fill="none" stroke="#0c111a" stroke-miterlimit="10" stroke-width="2"/>
      <path id="路径_37411" data-name="路径 37411" d="M1840.949,342.909l-12.056,18.085a15.3,15.3,0,0,1-13.721,6.784l-4.33-.279" transform="translate(75.912 11.692)" fill="none" stroke="#0c111a" stroke-miterlimit="10" stroke-width="2"/>
      <path id="路径_37412" data-name="路径 37412" d="M1839.822,514.584l-9.783-15.764a15.306,15.306,0,0,0-13.492-7.226l-9.238.138" transform="translate(75.419 32.163)" fill="none" stroke="#0c111a" stroke-miterlimit="10" stroke-width="2"/>
      <path id="路径_37413" data-name="路径 37413" d="M1716.306,702.406l-28.564-16.492a15.306,15.306,0,0,1-7.653-13.255V639.675a15.306,15.306,0,0,1,7.653-13.255l28.564-16.492a15.308,15.308,0,0,1,15.306,0l28.565,16.492a15.306,15.306,0,0,1,7.652,13.255v32.984a15.306,15.306,0,0,1-7.652,13.255l-28.565,16.492A15.309,15.309,0,0,1,1716.306,702.406Z" transform="translate(57.982 48.055)" fill="none" stroke="#0080f4" stroke-miterlimit="10" stroke-width="2"/>
      <path id="路径_37414" data-name="路径 37414" d="M1675.148,640.525v-7.292a15.325,15.325,0,0,1,.228-2.633" transform="translate(57.393 51.223)" fill="none" stroke="#000" stroke-miterlimit="10" stroke-width="2"/>
      <path id="路径_37415" data-name="路径 37415" d="M1693.023,689.329l-10.222-5.9a15.308,15.308,0,0,1-7.652-13.256V648.5" transform="translate(57.377 53.719)" fill="none" stroke="#000" stroke-miterlimit="10" stroke-width="2"/>
      <path id="路径_37416" data-name="路径 37416" d="M1732.013,693.194l-6.447,3.723a15.282,15.282,0,0,1-2.393,1.12" transform="translate(64 59.949)" fill="none" stroke="#000" stroke-miterlimit="10" stroke-width="2"/>
      <path id="路径_37417" data-name="路径 37417" d="M1765.053,656.978v12.013a15.309,15.309,0,0,1-7.653,13.256L1739.817,692.4" transform="translate(66.275 54.9)" fill="none" stroke="#000" stroke-miterlimit="10" stroke-width="2"/>
      <path id="路径_37418" data-name="路径 37418" d="M1749.746,618.1l6.267,3.62a15.318,15.318,0,0,1,2.507,1.8" transform="translate(67.661 49.48)" fill="none" stroke="#000" stroke-miterlimit="10" stroke-width="2"/>
      <path id="路径_37419" data-name="路径 37419" d="M1702.45,610.4l10.7-6.177a15.311,15.311,0,0,1,15.307,0l19.075,11.012" transform="translate(61.108 47.401)" fill="none" stroke="#000" stroke-miterlimit="10" stroke-width="2"/>
      <path id="路径_37420" data-name="路径 37420" d="M1295.774,435.859l-26.651-15.39a13.159,13.159,0,0,1-6.58-11.394V378.3a13.161,13.161,0,0,1,6.58-11.394l26.651-15.4a13.162,13.162,0,0,1,13.16,0l26.655,15.39a13.161,13.161,0,0,1,6.58,11.394v30.78a13.161,13.161,0,0,1-6.58,11.394l-26.655,15.39A13.162,13.162,0,0,1,1295.774,435.859Z" transform="translate(0.558 12.608)" fill="none" stroke="#0c111a" stroke-miterlimit="10" stroke-width="2"/>
      <g id="组_21420" data-name="组 21420" transform="translate(1258.54 356.565)">
        <path id="路径_37421" data-name="路径 37421" d="M1258.54,379.483v-6.95a13.087,13.087,0,0,1,.191-2.233" transform="translate(-1258.54 -341.084)" fill="none" stroke="#000" stroke-miterlimit="10" stroke-width="2"/>
        <path id="路径_37422" data-name="路径 37422" d="M1274.74,423.831l-9.62-5.554a13.161,13.161,0,0,1-6.58-11.394V386.367" transform="translate(-1258.54 -338.844)" fill="none" stroke="#000" stroke-miterlimit="10" stroke-width="2"/>
        <line id="直线_180" data-name="直线 180" x1="6.494" y2="3.75" transform="translate(51.423 93.975)" fill="none" stroke="#000" stroke-miterlimit="10" stroke-width="2"/>
        <path id="路径_37423" data-name="路径 37423" d="M1340.2,404.37a13.163,13.163,0,0,1-6.581,11.4l-17.492,10.1" transform="translate(-1250.512 -336.334)" fill="none" stroke="#000" stroke-miterlimit="10" stroke-width="2"/>
        <path id="路径_37424" data-name="路径 37424" d="M1326.153,359.185l6.067,3.5a13.175,13.175,0,0,1,1.555,1.053" transform="translate(-1249.114 -342.634)" fill="none" stroke="#000" stroke-miterlimit="10" stroke-width="2"/>
        <path id="路径_37425" data-name="路径 37425" d="M1283.722,351.947l9.571-5.525a13.161,13.161,0,0,1,13.16,0l17.443,10.071" transform="translate(-1255.03 -344.659)" fill="none" stroke="#000" stroke-miterlimit="10" stroke-width="2"/>
      </g>
      <path id="路径_37426" data-name="路径 37426" d="M1448.525,653.932l-28.665-16.55a15.3,15.3,0,0,1-7.652-13.255v-33.1a15.306,15.306,0,0,1,7.652-13.255l28.665-16.55a15.309,15.309,0,0,1,15.306,0l28.667,16.549a15.306,15.306,0,0,1,7.652,13.255v33.1a15.3,15.3,0,0,1-7.652,13.255l-28.665,16.55A15.308,15.308,0,0,1,1448.525,653.932Z" transform="translate(21.136 41.265)" fill="none" stroke="#0080f4" stroke-miterlimit="10" stroke-width="2"/>
      <path id="路径_37427" data-name="路径 37427" d="M1498.885,624.137a15.3,15.3,0,0,1-6.573,7.607l-34.263,19.781a15.348,15.348,0,0,1-2.556,1.177" transform="translate(27.113 50.322)" fill="none" stroke="#000" stroke-miterlimit="10" stroke-width="2"/>
      <path id="路径_37428" data-name="路径 37428" d="M1482.021,569.482l6.594,3.807a15.309,15.309,0,0,1,7.654,13.256v34.068" transform="translate(30.78 42.855)" fill="none" stroke="#000" stroke-miterlimit="10" stroke-width="2"/>
      <path id="路径_37429" data-name="路径 37429" d="M1408.983,581.694a15.3,15.3,0,0,1,5.982-6.3l34.263-19.781a15.4,15.4,0,0,1,2.706-1.229" transform="translate(20.71 40.805)" fill="none" stroke="#000" stroke-miterlimit="10" stroke-width="2"/>
      <path id="路径_37430" data-name="路径 37430" d="M1421.419,640.12l-6.251-3.608a15.308,15.308,0,0,1-7.652-13.256V589.949" transform="translate(20.519 45.556)" fill="none" stroke="#000" stroke-miterlimit="10" stroke-width="2"/>
      <path id="路径_37431" data-name="路径 37431" d="M1459.014,434.811l-42.024-24.263a15.3,15.3,0,0,1-7.652-13.255V348.769a15.307,15.307,0,0,1,7.652-13.256l42.024-24.264a15.3,15.3,0,0,1,15.306,0l42.025,24.263A15.308,15.308,0,0,1,1524,348.767v48.522a15.3,15.3,0,0,1-7.652,13.255l-42.025,24.263A15.309,15.309,0,0,1,1459.014,434.811Z" transform="translate(20.73 7.14)" fill="none" stroke="#0080f4" stroke-miterlimit="10" stroke-width="2"/>
      <line id="直线_181" data-name="直线 181" y1="10.1" transform="translate(1422.756 387.021)" fill="none" stroke="#000" stroke-miterlimit="10" stroke-width="2"/>
      <path id="路径_37432" data-name="路径 37432" d="M1438.22,419.518l-27.693-15.989a15.3,15.3,0,0,1-7.652-13.255" transform="translate(19.872 18.211)" fill="none" stroke="#000" stroke-miterlimit="10" stroke-width="2"/>
      <line id="直线_182" data-name="直线 182" x1="8.049" y2="4.648" transform="translate(1494.705 445.398)" fill="none" stroke="#000" stroke-miterlimit="10" stroke-width="2"/>
      <path id="路径_37433" data-name="路径 37433" d="M1520.762,390.275a15.306,15.306,0,0,1-7.652,13.255l-31.922,18.43" transform="translate(30.652 18.21)" fill="none" stroke="#000" stroke-miterlimit="10" stroke-width="2"/>
      <line id="直线_183" data-name="直线 183" y2="9.896" transform="translate(1551.378 363.184)" fill="none" stroke="#000" stroke-miterlimit="10" stroke-width="2"/>
      <path id="路径_37434" data-name="路径 37434" d="M1485.192,315.022l27.358,15.8a15.306,15.306,0,0,1,7.652,13.255v1.42" transform="translate(31.206 7.951)" fill="none" stroke="#000" stroke-miterlimit="10" stroke-width="2"/>
      <line id="直线_184" data-name="直线 184" y1="4.356" x2="7.545" transform="translate(1471.888 310.423)" fill="none" stroke="#000" stroke-miterlimit="10" stroke-width="2"/>
      <path id="路径_37435" data-name="路径 37435" d="M1403.524,339.775a15.3,15.3,0,0,1,6.911-8.546l33.191-19.163" transform="translate(19.96 7.54)" fill="none" stroke="#000" stroke-miterlimit="10" stroke-width="2"/>
      <path id="路径_37436" data-name="路径 37436" d="M1869.415,364.749l-31.163-17.991A15.306,15.306,0,0,1,1830.6,333.5V297.519a15.308,15.308,0,0,1,7.652-13.256l31.163-17.991a15.309,15.309,0,0,1,15.306,0l31.163,17.991a15.307,15.307,0,0,1,7.652,13.256V333.5a15.305,15.305,0,0,1-7.652,13.255l-31.163,17.991A15.3,15.3,0,0,1,1869.415,364.749Z" transform="translate(78.667 0.869)" fill="none" stroke="#0c111a" stroke-miterlimit="10" stroke-width="2"/>
      <path id="路径_37437" data-name="路径 37437" d="M1845.792,272.351l21.33-12.315a15.308,15.308,0,0,1,13.483-.9" transform="translate(80.784 0)" fill="none" stroke="#000" stroke-miterlimit="10" stroke-width="2"/>
      <path id="路径_37438" data-name="路径 37438" d="M1825.365,327.084V290.3q0-.649.055-1.292" transform="translate(77.937 4.325)" fill="none" stroke="#000" stroke-miterlimit="10" stroke-width="2"/>
      <path id="路径_37439" data-name="路径 37439" d="M1854.614,353.024,1833,340.543a15.306,15.306,0,0,1-7.462-10.839" transform="translate(77.961 9.874)" fill="none" stroke="#000" stroke-miterlimit="10" stroke-width="2"/>
      <path id="路径_37440" data-name="路径 37440" d="M1910.114,341.752,1878.168,360.2a15.433,15.433,0,0,1-1.823.9" transform="translate(85.044 11.534)" fill="none" stroke="#000" stroke-miterlimit="10" stroke-width="2"/>
      <path id="路径_37441" data-name="路径 37441" d="M1918.026,305.892v24.716a15.306,15.306,0,0,1-7.652,13.255" transform="translate(89.788 6.679)" fill="none" stroke="#000" stroke-miterlimit="10" stroke-width="2"/>
      <path id="路径_37442" data-name="路径 37442" d="M1882.252,262.271l32.04,18.5a15.4,15.4,0,0,1,1.689,1.13" transform="translate(85.868 0.597)" fill="none" stroke="#000" stroke-miterlimit="10" stroke-width="2"/>
      <path id="路径_37443" data-name="路径 37443" d="M1864.436,611.332l-37.3-21.535a15.305,15.305,0,0,1-7.654-13.255v-43.07a15.305,15.305,0,0,1,7.654-13.255l37.3-21.535a15.309,15.309,0,0,1,15.306,0l37.3,21.535a15.305,15.305,0,0,1,7.653,13.255v43.07a15.3,15.3,0,0,1-7.653,13.255l-37.3,21.535A15.3,15.3,0,0,1,1864.436,611.332Z" transform="translate(77.117 32.757)" fill="none" stroke="#0080f4" stroke-miterlimit="10" stroke-width="2"/>
      <g id="组_21801" data-name="组 21801" transform="translate(1890.965 522.027)">
        <line id="直线_185" data-name="直线 185" y1="24.299" transform="translate(0.001 40.216)" fill="none" stroke="#0c111a" stroke-miterlimit="10" stroke-width="2"/>
        <path id="路径_37444" data-name="路径 37444" d="M1840.949,595.085l-18.757-10.824a15.307,15.307,0,0,1-7.653-13.255V556.229" transform="translate(-1814.538 -480.964)" fill="none" stroke="#0c111a" stroke-miterlimit="10" stroke-width="2"/>
        <path id="路径_37445" data-name="路径 37445" d="M1893.468,592.251l-20.6,11.893a15.261,15.261,0,0,1-2.543,1.172" transform="translate(-1806.761 -475.942)" fill="none" stroke="#0c111a" stroke-miterlimit="10" stroke-width="2"/>
        <path id="路径_37446" data-name="路径 37446" d="M1919.659,550.136V571.85a15.306,15.306,0,0,1-7.652,13.255l-12.931,7.465" transform="translate(-1802.753 -481.813)" fill="none" stroke="#0c111a" stroke-miterlimit="10" stroke-width="2"/>
        <path id="路径_37447" data-name="路径 37447" d="M1891.662,503l21.377,12.341a15.457,15.457,0,0,1,1.468.964" transform="translate(-1803.786 -488.384)" fill="none" stroke="#0c111a" stroke-miterlimit="10" stroke-width="2"/>
        <path id="路径_37448" data-name="路径 37448" d="M1842.311,503.282l19.155-11.059a15.31,15.31,0,0,1,15.306,0l12.943,7.473" transform="translate(-1810.666 -490.173)" fill="none" stroke="#0c111a" stroke-miterlimit="10" stroke-width="2"/>
      </g>
      <path id="路径_37449" data-name="路径 37449" d="M1332.093,385.809h34.056a7.889,7.889,0,0,0,7.889-7.889h0V363.366a10.2,10.2,0,0,1,10.2-10.2h35.574" transform="translate(10.254 13.101)" fill="none" stroke="#0c111a" stroke-miterlimit="10" stroke-width="2"/>
      <line id="直线_186" data-name="直线 186" x2="41.622" transform="translate(1748.073 524.646)" fill="none" stroke="#0c111a" stroke-miterlimit="10" stroke-width="2"/>
      <line id="直线_187" data-name="直线 187" x2="45.804" transform="translate(1799.777 524.544)" fill="none" stroke="#0c111a" stroke-miterlimit="10" stroke-width="2"/>
      <line id="直线_188" data-name="直线 188" x2="9.113" y2="12.774" transform="translate(1536.905 425.082)" fill="none" stroke="#000" stroke-miterlimit="10" stroke-width="2"/>
      <line id="直线_189" data-name="直线 189" x2="24.169" y2="35.405" transform="translate(1551.651 446.12)" fill="none" stroke="#0c111a" stroke-miterlimit="10" stroke-width="2"/>
      <line id="直线_190" data-name="直线 190" y2="9.25" transform="translate(1728.915 374.22)" fill="none" stroke="#000" stroke-miterlimit="10" stroke-width="2"/>
      <line id="直线_191" data-name="直线 191" x2="37.269" transform="translate(1840.565 379.451)" fill="none" stroke="#000" stroke-miterlimit="10" stroke-width="2"/>
      <line id="直线_192" data-name="直线 192" x2="23.284" y2="35.569" transform="translate(1682.468 633.059)" fill="none" stroke="#000" stroke-miterlimit="10" stroke-width="2"/>
      <line id="直线_193" data-name="直线 193" x1="25.593" y2="37.975" transform="translate(1569.186 620.841)" fill="none" stroke="#0c111a" stroke-miterlimit="10" stroke-width="2"/>
      <path id="路径_37450" data-name="路径 37450" d="M1489.025,620.048h34.587s5.168.358,7.889-2.7" transform="translate(31.73 49.375)" fill="none" stroke="#000" stroke-miterlimit="10" stroke-width="2"/>
      <g id="组_21796" data-name="组 21796" transform="translate(1591.345 519.633)">
        <path id="路径_38716" data-name="路径 38716" d="M1578.949,488.33a6.111,6.111,0,0,0-1.094-.255,9.385,9.385,0,0,0-1.421-.092,9.534,9.534,0,0,0-1.471.093,6.2,6.2,0,0,0-1.068.253,2.672,2.672,0,0,0-1.868,2.577v12.18h-12.084v-12.18a2.674,2.674,0,0,0-1.866-2.576,6.112,6.112,0,0,0-1.094-.255,11.225,11.225,0,0,0-2.872,0,6.172,6.172,0,0,0-1.119.258,2.672,2.672,0,0,0-1.863,2.576v34.108a2.708,2.708,0,0,0,.443,1.505,2.737,2.737,0,0,0,1.414,1.069,6,6,0,0,0,1.123.26,11.234,11.234,0,0,0,2.874,0,5.959,5.959,0,0,0,1.092-.254,2.671,2.671,0,0,0,1.869-2.577V511.3h12.084v13.718a2.671,2.671,0,0,0,1.855,2.573,6.068,6.068,0,0,0,1.08.257,9.529,9.529,0,0,0,1.471.093,9.394,9.394,0,0,0,1.421-.092,5.955,5.955,0,0,0,1.092-.254,2.671,2.671,0,0,0,1.869-2.577V490.906a2.674,2.674,0,0,0-1.866-2.576Z" transform="translate(-1551.129 -487.981)" fill="none" stroke="#ef54a1" stroke-miterlimit="10" stroke-width="2"/>
        <path id="路径_38717" data-name="路径 38717" d="M1607.009,521.189a3,3,0,0,0-1-1.039,2.8,2.8,0,0,0-1.471-.414h-12.044v-8.625h9.873a2.884,2.884,0,0,0,1.374-.343,2.828,2.828,0,0,0,1.111-1.113,3.738,3.738,0,0,0,.415-1.264,7.482,7.482,0,0,0,.08-1.167,8.423,8.423,0,0,0-.075-1.188,3.737,3.737,0,0,0-.417-1.317,3.067,3.067,0,0,0-.934-1.036,2.74,2.74,0,0,0-1.553-.481h-9.873v-7.059h11.85a2.76,2.76,0,0,0,2.54-1.632,4.436,4.436,0,0,0,.337-1.1,6.893,6.893,0,0,0,.1-1.239,7.121,7.121,0,0,0-.1-1.286,4.789,4.789,0,0,0-.326-1.093,2.753,2.753,0,0,0-2.552-1.67h-16.861a4,4,0,0,0-2.429.841,3.691,3.691,0,0,0-1.373,3.127v31.693a3.681,3.681,0,0,0,1.374,3.127,4,4,0,0,0,2.428.841h17.055a2.814,2.814,0,0,0,1.468-.413,2.924,2.924,0,0,0,1.03-1.1,3.819,3.819,0,0,0,.431-1.316,7.9,7.9,0,0,0,.079-1.167,8.352,8.352,0,0,0-.078-1.216A3.737,3.737,0,0,0,1607.009,521.189Z" transform="translate(-1546.591 -487.961)" fill="none" stroke="#ef54a1" stroke-miterlimit="10" stroke-width="2"/>
        <path id="路径_38718" data-name="路径 38718" d="M1631.626,521.165a3.015,3.015,0,0,0-.959-1.094,2.779,2.779,0,0,0-1.578-.481h-10.7V490.906a2.67,2.67,0,0,0-1.865-2.576,6.127,6.127,0,0,0-1.1-.255,11.225,11.225,0,0,0-2.873,0,6.137,6.137,0,0,0-1.118.258,2.676,2.676,0,0,0-1.864,2.576v32.9a3.684,3.684,0,0,0,1.374,3.127,4,4,0,0,0,2.429.841h15.709a2.768,2.768,0,0,0,1.585-.485,2.944,2.944,0,0,0,.992-1.2,4.355,4.355,0,0,0,.351-1.2,8.27,8.27,0,0,0,.078-1.221,8.617,8.617,0,0,0-.076-1.228A3.914,3.914,0,0,0,1631.626,521.165Z" transform="translate(-1542.981 -487.981)" fill="none" stroke="#ef54a1" stroke-miterlimit="10" stroke-width="2"/>
        <path id="路径_38719" data-name="路径 38719" d="M1659.171,496.257a11.07,11.07,0,0,0-5.063-6.168,12.362,12.362,0,0,0-3.523-1.407,22.922,22.922,0,0,0-2.752-.451c-.763-.069-1.569-.1-2.4-.1h-7.606a4.073,4.073,0,0,0-2.581.924,3.848,3.848,0,0,0-1.332,3.154v32.79a2.67,2.67,0,0,0,1.856,2.573,5.871,5.871,0,0,0,1.1.259,9.609,9.609,0,0,0,1.447.092,9.747,9.747,0,0,0,1.446-.091,5.588,5.588,0,0,0,1.113-.268,2.811,2.811,0,0,0,1.312-.948,2.662,2.662,0,0,0,.537-1.617V514.241h1.992a19.447,19.447,0,0,0,6.341-.937,13.342,13.342,0,0,0,4.728-2.764,12.279,12.279,0,0,0,3.017-4.379,14.671,14.671,0,0,0,1.031-5.582A13.463,13.463,0,0,0,1659.171,496.257Zm-16.438-.14h2.321a14.774,14.774,0,0,1,2.179.169,4.671,4.671,0,0,1,1.727.64,3.618,3.618,0,0,1,1.268,1.407,5.439,5.439,0,0,1,.552,2.631,6.56,6.56,0,0,1-.371,2.254,4.327,4.327,0,0,1-.989,1.6,4.62,4.62,0,0,1-1.659,1.053,7.986,7.986,0,0,1-2.817.411h-2.211Z" transform="translate(-1539.587 -487.961)" fill="none" stroke="#ef54a1" stroke-miterlimit="10" stroke-width="2"/>
      </g>
      <g id="组_21426" data-name="组 21426" transform="translate(1452.506 624.653)">
        <path id="路径_37377-2" data-name="路径 37377-2" d="M1436.791,605.476a8.45,8.45,0,0,0-4.307.971,5.544,5.544,0,0,1-1.783.512c-.8-.5-.619-1.518-.264-2.189a6.142,6.142,0,0,1,1.429-1.676,9.739,9.739,0,0,1,4.216-1.823l-.124-1.129a8.709,8.709,0,0,0-4.818,2.083,7.1,7.1,0,0,0-1.694,1.994c-.69,1.537-.636,3.383,1.2,3.866a5.539,5.539,0,0,0,2.279-.6c1.3-.482,2.928-1.349,4.183-.724Z" transform="translate(-1429.036 -577.542)" fill="#0080f4" stroke="#0080f4" stroke-miterlimit="10" stroke-width="0.8"/>
        <path id="路径_37378-2" data-name="路径 37378-2" d="M1436.281,609.53a47.927,47.927,0,0,0,3.353,9.284,28.578,28.578,0,0,0,5.454,7.925,10.051,10.051,0,0,0,6.848,3.266c3.859,0,7.326-1.92,10.112-3.777,1.394-.928,2.621-1.848,3.618-2.523a6.016,6.016,0,0,1,2.083-1.041,8.414,8.414,0,0,1,2.808.8c1.083.456,2.216,1.026,3.19,1.412a.594.594,0,0,0,.749-.379.521.521,0,0,0,.027-.132,7.291,7.291,0,0,0-4.672-6.883,8.658,8.658,0,0,0-7.064.406c1.283-2.746,2.734-5.705,3.988-8.7,1.494-3.554,2.665-6.963,2.665-9.671,0-11.579-8.687-19.2-16.943-19.2-9.309,0-17.491,7.05-17.509,18.037v.035a33.323,33.323,0,0,0,.141,4.536l.124,1.129c.17,1.383.393,2.792.706,4.2Z" transform="translate(-1428.209 -580.307)" fill="#fff" stroke="#0080f4" stroke-miterlimit="10" stroke-width="1.8"/>
        <path id="路径_37379-2" data-name="路径 37379-2" d="M1448.53,590.809a3.909,3.909,0,0,1,3.3-3.076c1.51.03,2.52,1.636,3.071,3.054a16.636,16.636,0,0,1,.883,5.419.6.6,0,0,1-.883.456,5.922,5.922,0,0,0-3.071-.742,5.986,5.986,0,0,0-3.089.742.595.595,0,0,1-.865-.456A18.68,18.68,0,0,1,1448.53,590.809Z" transform="translate(-1426.41 -579.272)" fill="#0080f4"/>
        <path id="路径_37380-2" data-name="路径 37380-2" d="M1439.325,596.668a.6.6,0,0,1-.8-.253.609.609,0,0,1-.063-.2,18.7,18.7,0,0,1,.653-5.4,3.909,3.909,0,0,1,3.3-3.076c1.509.03,2.52,1.636,3.076,3.054a16.667,16.667,0,0,1,.882,5.419.6.6,0,0,1-.882.456,6.765,6.765,0,0,0-6.169,0Z" transform="translate(-1427.723 -579.271)" fill="#0080f4"/>
        <path id="路径_37381-2" data-name="路径 37381-2" d="M1456.258,602.845a8.5,8.5,0,0,0-9.214-.723,10.261,10.261,0,0,0-3.125,2.312c-.733.855-1.4,2.086-.141,2.735a5.96,5.96,0,0,0,1.995-.106c1.872-.313,3.783-.637,5.542.547l-.707.883c-1.2-.932-3.1-.553-4.642-.317a6.369,6.369,0,0,1-2.452.1c-2.462-.64-1.527-3.268-.441-4.588a11.238,11.238,0,0,1,3.476-2.576,9.95,9.95,0,0,1,10.395.829Z" transform="translate(-1427.235 -577.558)" fill="#0080f4" stroke="#0080f4" stroke-miterlimit="10" stroke-width="0.8"/>
      </g>
      <g id="组_21424" data-name="组 21424" transform="translate(1455.001 346.79)">
        <circle id="椭圆_1642" data-name="椭圆 1642" cx="32.078" cy="32.078" r="32.078" fill="none" stroke="#0080f4" stroke-miterlimit="10" stroke-width="2"/>
        <path id="直线_194" data-name="直线 194" d="M0,0H64.157" transform="translate(0 32.078)" fill="none" stroke="#0080f4" stroke-width="2"/>
        <line id="直线_195" data-name="直线 195" x2="56.81" transform="translate(3.675 17.164)" fill="none" stroke="#0080f4" stroke-miterlimit="10" stroke-width="2"/>
        <line id="直线_196" data-name="直线 196" x2="56.138" transform="translate(3.675 46.99)" fill="none" stroke="#0080f4" stroke-miterlimit="10" stroke-width="2"/>
        <line id="直线_197" data-name="直线 197" y1="65.681" transform="translate(32.575 0.063)" fill="none" stroke="#0080f4" stroke-miterlimit="10" stroke-width="2"/>
        <ellipse id="椭圆_1643" data-name="椭圆 1643" cx="16.956" cy="32.046" rx="16.956" ry="32.046" transform="translate(15.365 0.063)" fill="none" stroke="#0080f4" stroke-miterlimit="10" stroke-width="2"/>
      </g>
      <g id="组_21425" data-name="组 21425" transform="translate(1767.075 679.192)">
        <rect id="矩形_2213" data-name="矩形 2213" width="31.807" height="24.631" transform="translate(0 21.121)" fill="none" stroke="#0080f4" stroke-miterlimit="10" stroke-width="2"/>
        <path id="矩形_2214" data-name="矩形 2214" d="M1720.622,628.291h0a12.242,12.242,0,0,1,12.242,12.242v8.748H1708.38v-8.748A12.242,12.242,0,0,1,1720.622,628.291Z" transform="translate(-1705.132 -628.291)" fill="none" stroke="#0080f4" stroke-miterlimit="10" stroke-width="2"/>
        <line id="直线_198" data-name="直线 198" y2="7.389" transform="translate(15.903 29.742)" fill="none" stroke="#0080f4" stroke-linecap="round" stroke-miterlimit="10" stroke-width="2"/>
      </g>
      <g id="组_21797" data-name="组 21797" transform="translate(1284.781 384.657)">
        <path id="路径_38720" data-name="路径 38720" d="M1317.135,372.477l-16.829-3.117a1.579,1.579,0,0,0-.557,0l-16.925,3.117a1.534,1.534,0,0,0-1.253,1.509v19.951a14.487,14.487,0,0,0,2.943,8.737,22.61,22.61,0,0,0,6.235,5.583,35.778,35.778,0,0,0,8.887,3.979,1.527,1.527,0,0,0,.8,0,35.933,35.933,0,0,0,8.834-4.016,22.7,22.7,0,0,0,6.2-5.6,14.456,14.456,0,0,0,2.926-8.695v-19.94A1.533,1.533,0,0,0,1317.135,372.477Zm-.892,21.643c0,4.762-2.726,8.923-8.1,12.371a36.564,36.564,0,0,1-7.984,3.732.4.4,0,0,1-.262,0q-16.178-5.526-16.178-16.1V374.673a.408.408,0,0,1,.333-.4l15.907-2.927a.4.4,0,0,1,.147,0l15.808,2.927a.407.407,0,0,1,.333.4Z" transform="translate(-1281.57 -369.334)" fill="#0c111a"/>
      </g>
      <g id="组_21426-2" data-name="组 21426" transform="translate(1932.578 291.531)">
        <path id="路径_37377-2-2" data-name="路径 37377-2" d="M1858.814,312.6a8.449,8.449,0,0,0-4.307.971,5.515,5.515,0,0,1-1.783.512c-.8-.5-.619-1.518-.265-2.189a6.131,6.131,0,0,1,1.429-1.676,9.754,9.754,0,0,1,4.216-1.823l-.124-1.129a8.708,8.708,0,0,0-4.819,2.083,7.1,7.1,0,0,0-1.694,1.994c-.69,1.537-.636,3.383,1.2,3.866a5.538,5.538,0,0,0,2.279-.6c1.3-.482,2.928-1.349,4.182-.724Z" transform="translate(-1851.059 -284.662)" stroke="#000" stroke-miterlimit="10" stroke-width="0.8"/>
        <path id="路径_37378-2-2" data-name="路径 37378-2" d="M1858.3,316.649a47.892,47.892,0,0,0,3.353,9.284,28.535,28.535,0,0,0,5.454,7.925,10.051,10.051,0,0,0,6.848,3.266c3.859,0,7.326-1.92,10.112-3.777,1.393-.929,2.621-1.848,3.618-2.523a6.018,6.018,0,0,1,2.083-1.041,8.413,8.413,0,0,1,2.808.8c1.083.456,2.216,1.025,3.19,1.412a.593.593,0,0,0,.749-.379.647.647,0,0,0,.027-.132,7.294,7.294,0,0,0-4.672-6.883,8.663,8.663,0,0,0-7.064.406c1.283-2.746,2.734-5.705,3.988-8.7,1.494-3.554,2.665-6.963,2.665-9.671,0-11.579-8.687-19.2-16.943-19.2-9.309,0-17.491,7.05-17.509,18.037v.035a33.078,33.078,0,0,0,.141,4.536l.124,1.129c.17,1.383.393,2.792.707,4.2Z" transform="translate(-1850.233 -287.427)" fill="#fff" stroke="#000" stroke-miterlimit="10" stroke-width="1.8"/>
        <path id="路径_37379-2-2" data-name="路径 37379-2" d="M1870.553,297.929a3.912,3.912,0,0,1,3.3-3.076c1.51.03,2.52,1.636,3.071,3.054a16.642,16.642,0,0,1,.883,5.419.6.6,0,0,1-.658.529.612.612,0,0,1-.225-.073,5.923,5.923,0,0,0-3.071-.742,5.989,5.989,0,0,0-3.089.742.595.595,0,0,1-.865-.456A18.68,18.68,0,0,1,1870.553,297.929Z" transform="translate(-1848.433 -286.392)"/>
        <path id="路径_37380-2-2" data-name="路径 37380-2" d="M1861.348,303.788a.594.594,0,0,1-.865-.456,18.622,18.622,0,0,1,.653-5.4,3.907,3.907,0,0,1,3.3-3.076c1.509.03,2.521,1.636,3.077,3.054a16.666,16.666,0,0,1,.882,5.419.6.6,0,0,1-.882.456,5.921,5.921,0,0,0-3.077-.742A5.983,5.983,0,0,0,1861.348,303.788Z" transform="translate(-1849.746 -286.391)"/>
        <path id="路径_37381-2-2" data-name="路径 37381-2" d="M1878.281,309.965a8.5,8.5,0,0,0-9.213-.724,10.234,10.234,0,0,0-3.125,2.312c-.733.855-1.4,2.086-.141,2.735a5.964,5.964,0,0,0,2-.106c1.872-.313,3.783-.637,5.542.547l-.707.883c-1.2-.932-3.1-.553-4.642-.317a6.348,6.348,0,0,1-2.452.1c-2.462-.64-1.527-3.268-.441-4.588a11.246,11.246,0,0,1,3.476-2.576,9.951,9.951,0,0,1,10.4.83Z" transform="translate(-1849.258 -284.678)" stroke="#000" stroke-miterlimit="10" stroke-width="0.8"/>
      </g>
      <g id="组_21798" data-name="组 21798" transform="translate(1293.132 400.103)">
        <path id="路径_38721" data-name="路径 38721" d="M1296.422,394.935a1.782,1.782,0,0,1-1.131-.4l-5.931-4.852a1.254,1.254,0,1,1,1.586-1.941l5.478,4.482,11.171-9.044a1.253,1.253,0,0,1,1.577,1.948l-11.625,9.411A1.781,1.781,0,0,1,1296.422,394.935Z" transform="translate(-1288.9 -382.9)" fill="#0c111a"/>
      </g>
      <path id="路径_38722" data-name="路径 38722" d="M1893.734,555.855l-.036-.036a.737.737,0,0,0-1.039.011l-9.175,9.44c-.012.011-.03.011-.036,0l-4.3-4.429a.761.761,0,0,0-1.093,1.059l4.885,5.023a.743.743,0,0,0,.474.216h.108a.743.743,0,0,0,.475-.216l9.752-10.034A.732.732,0,0,0,1893.734,555.855Z" transform="translate(84.328 38.223)" fill="#0080f4" stroke="#0080f4" stroke-width="0.6"/>
      <g id="组_21799" data-name="组 21799" transform="translate(1932.008 565.31)">
        <path id="路径_38723" data-name="路径 38723" d="M1860.272,556.187a1.081,1.081,0,1,0,0,2.163h14.042a1.081,1.081,0,0,0,0-2.163Z" transform="translate(-1849.356 -524.228)" fill="#0080f4" stroke="#0080f4" stroke-miterlimit="10" stroke-width="0.5"/>
        <path id="路径_38724" data-name="路径 38724" d="M1880.264,547.9a1.084,1.084,0,0,0-1.082-1.081h-18.91a1.082,1.082,0,0,0,0,2.164h18.91A1.086,1.086,0,0,0,1880.264,547.9Z" transform="translate(-1849.356 -525.534)" fill="#0080f4" stroke="#0080f4" stroke-miterlimit="10" stroke-width="0.5"/>
        <path id="路径_38725" data-name="路径 38725" d="M1879.182,537.445h-18.91a1.082,1.082,0,0,0,0,2.164h18.91a1.082,1.082,0,0,0,0-2.164Z" transform="translate(-1849.356 -526.841)" fill="#0080f4" stroke="#0080f4" stroke-miterlimit="10" stroke-width="0.5"/>
        <path id="路径_38727" data-name="路径 38727" d="M1888.706,573.141H1852.9a.656.656,0,0,1-.656-.654V530.475a.656.656,0,0,1,.656-.654h36.063a.655.655,0,0,1,.654.654v22.508a.841.841,0,1,0,1.683,0V530.475a2.34,2.34,0,0,0-2.337-2.337H1852.9a2.339,2.339,0,0,0-2.337,2.337v42.012a2.34,2.34,0,0,0,2.337,2.337h35.81a.841.841,0,0,0,0-1.683Z" transform="translate(-1850.559 -528.138)" fill="#0080f4" stroke="#0080f4" stroke-miterlimit="10" stroke-width="0.5"/>
      </g>
    </g>
    <g id="蒙版组_29" data-name="蒙版组 29" transform="translate(0 6)" clip-path="url(#clip-path)">
      <g id="组_21645" data-name="组 21645" transform="translate(607.025 42)" opacity="0.05">
        <g id="组_21643" data-name="组 21643" transform="translate(511.697 290.751)">
          <path id="路径_38579" data-name="路径 38579" d="M1013.384-159.409,893.756-228.476a25.412,25.412,0,0,1-12.707-22.007V-388.618a25.414,25.414,0,0,1,12.707-22.008l119.628-69.067a25.414,25.414,0,0,1,25.412,0l119.628,69.067a25.414,25.414,0,0,1,12.706,22.008v138.135a25.412,25.412,0,0,1-12.706,22.007L1038.8-159.409A25.414,25.414,0,0,1,1013.384-159.409Z" transform="translate(-864.619 497.837)" fill="none" stroke="#000" stroke-miterlimit="10" stroke-width="3"/>
          <line id="直线_476" data-name="直线 476" y1="17.727" transform="translate(0 103.269)" fill="none" stroke="#000" stroke-miterlimit="10" stroke-width="3"/>
          <line id="直线_477" data-name="直线 477" y1="81.974" transform="translate(0 137.481)" fill="none" stroke="#000" stroke-miterlimit="10" stroke-width="3"/>
          <line id="直线_478" data-name="直线 478" x1="14.725" y1="8.501" transform="translate(16.86 280.988)" fill="none" stroke="#000" stroke-miterlimit="10" stroke-width="3"/>
          <line id="直线_479" data-name="直线 479" x1="72.444" y1="41.826" transform="translate(45.325 297.423)" fill="none" stroke="#000" stroke-miterlimit="10" stroke-width="3"/>
          <line id="直线_480" data-name="直线 480" x1="14.226" y2="8.214" transform="translate(179.284 346.787)" fill="none" stroke="#000" stroke-miterlimit="10" stroke-width="3"/>
          <line id="直线_481" data-name="直线 481" x1="71.959" y2="41.545" transform="translate(208.141 296.794)" fill="none" stroke="#000" stroke-miterlimit="10" stroke-width="3"/>
          <line id="直线_482" data-name="直线 482" y2="16.824" transform="translate(324.336 235.376)" fill="none" stroke="#000" stroke-miterlimit="10" stroke-width="3"/>
          <line id="直线_483" data-name="直线 483" y2="82.877" transform="translate(324.336 134.545)" fill="none" stroke="#000" stroke-miterlimit="10" stroke-width="3"/>
          <line id="直线_484" data-name="直线 484" x2="14.76" y2="8.522" transform="translate(292.842 65.816)" fill="none" stroke="#000" stroke-miterlimit="10" stroke-width="3"/>
          <line id="直线_485" data-name="直线 485" x2="72.021" y2="41.581" transform="translate(206.279 15.839)" fill="none" stroke="#000" stroke-miterlimit="10" stroke-width="3"/>
          <line id="直线_486" data-name="直线 486" y1="8.291" x2="14.36" transform="translate(131.131)" fill="none" stroke="#000" stroke-miterlimit="10" stroke-width="3" opacity="0.5"/>
          <line id="直线_487" data-name="直线 487" y1="41.224" x2="71.402" transform="translate(44.349 17.17)" fill="none" stroke="#000" stroke-miterlimit="10" stroke-width="3"/>
        </g>
        <path id="路径_38580" data-name="路径 38580" d="M1168.183-454.584l-61.941-35.762a25.41,25.41,0,0,1-12.705-22.007v-71.525a25.41,25.41,0,0,1,12.705-22.007l61.941-35.761a25.407,25.407,0,0,1,25.412,0l61.941,35.761a25.412,25.412,0,0,1,12.706,22.007v71.525a25.412,25.412,0,0,1-12.706,22.007l-61.941,35.762A25.413,25.413,0,0,1,1168.183-454.584Z" transform="translate(-277.502 731.103)" fill="none" stroke="#000" stroke-miterlimit="10" stroke-width="3"/>
        <path id="路径_38581" data-name="路径 38581" d="M1179.55-501.2l-11.514,6.647a25.756,25.756,0,0,1-2.492,1.263" transform="translate(-251.943 782.163)" fill="none" stroke="#000" stroke-miterlimit="10" stroke-width="3"/>
        <path id="路径_38582" data-name="路径 38582" d="M1245.692-539.016a25.417,25.417,0,0,1-11.963,15.9l-48.381,27.932" transform="translate(-244.914 768.74)" fill="none" stroke="#000" stroke-miterlimit="10" stroke-width="3"/>
        <line id="直线_488" data-name="直线 488" y2="15.751" transform="translate(1001.521 156.114)" fill="none" stroke="#000" stroke-miterlimit="10" stroke-width="3"/>
        <path id="路径_38583" data-name="路径 38583" d="M1190.822-638.194l40.964,23.652a25.408,25.408,0,0,1,12.705,22.007" transform="translate(-242.971 733.537)" fill="none" stroke="#000" stroke-miterlimit="10" stroke-width="3"/>
        <path id="路径_38584" data-name="路径 38584" d="M1141.4-645.793l9.8-5.66q.987-.569,2.009-1.043" transform="translate(-260.515 728.461)" fill="none" stroke="#000" stroke-miterlimit="10" stroke-width="3"/>
        <path id="路径_38585" data-name="路径 38585" d="M1086.423-598.847a25.41,25.41,0,0,1,11.563-14.468l49.078-28.336" transform="translate(-280.027 732.31)" fill="none" stroke="#000" stroke-miterlimit="10" stroke-width="3"/>
        <path id="路径_38587" data-name="路径 38587" d="M1006.642-454.15l51.553-92.369a25.409,25.409,0,0,1,21.82-13.025l32.868-.478" transform="translate(-308.344 761.284)" fill="none" stroke="#000" stroke-miterlimit="10" stroke-width="3"/>
        <path id="路径_38588" data-name="路径 38588" d="M1310-590l-11.883,26.319c-2.99,6.623-8.145,10.387-13.524,9.874l-4.273-.406" transform="translate(-190.893 750.645)" fill="none" stroke="#000" stroke-miterlimit="10" stroke-width="3"/>
        <path id="路径_38589" data-name="路径 38589" d="M1329.37-344.239l-16.242-26.171a25.411,25.411,0,0,0-22.4-12l-15.338.229" transform="translate(-212.954 824.322)" fill="none" stroke="#000" stroke-miterlimit="10" stroke-width="3"/>
        <path id="路径_38590" data-name="路径 38590" d="M1157.853-63.183,1110.43-90.564a25.412,25.412,0,0,1-12.707-22.007v-54.76a25.41,25.41,0,0,1,12.707-22.007l47.423-27.381a25.413,25.413,0,0,1,25.412,0l47.425,27.381a25.409,25.409,0,0,1,12.705,22.007v54.76a25.411,25.411,0,0,1-12.705,22.007l-47.425,27.381A25.413,25.413,0,0,1,1157.853-63.183Z" transform="translate(-276.016 881.929)" fill="none" stroke="#000" stroke-miterlimit="10" stroke-width="3"/>
        <path id="路径_38592" data-name="路径 38592" d="M1120.55-95.561l-16.971-9.8a25.416,25.416,0,0,1-12.705-22.008v-35.976" transform="translate(-278.447 902.082)" fill="none" stroke="#000" stroke-miterlimit="10" stroke-width="3"/>
        <path id="路径_38593" data-name="路径 38593" d="M1172.6-100.947l-10.7,6.18a25.448,25.448,0,0,1-3.979,1.859" transform="translate(-254.65 924.229)" fill="none" stroke="#000" stroke-miterlimit="10" stroke-width="3"/>
        <path id="路径_38594" data-name="路径 38594" d="M1223.06-151.51v19.943a25.414,25.414,0,0,1-12.707,22.008l-29.191,16.853" transform="translate(-246.4 906.282)" fill="none" stroke="#000" stroke-miterlimit="10" stroke-width="3"/>
        <path id="路径_38595" data-name="路径 38595" d="M1195.024-205.792l10.409,6.009a25.435,25.435,0,0,1,4.158,3" transform="translate(-241.48 887.015)" fill="none" stroke="#000" stroke-miterlimit="10" stroke-width="3"/>
        <path id="路径_38597" data-name="路径 38597" d="M562.612-422.758,511.14-452.474a25.411,25.411,0,0,1-12.705-22.007v-59.435a25.41,25.41,0,0,1,12.705-22.007l51.471-29.717a25.413,25.413,0,0,1,25.412,0l51.47,29.717A25.412,25.412,0,0,1,652.2-533.916v59.435a25.412,25.412,0,0,1-12.707,22.007l-51.47,29.717A25.414,25.414,0,0,1,562.612-422.758Z" transform="translate(-488.728 750.983)" fill="none" stroke="#000" stroke-miterlimit="10" stroke-width="3"/>
        <g id="组_21644" data-name="组 21644" transform="translate(0 150.731)">
          <path id="路径_38598" data-name="路径 38598" d="M491.271-537.949v-13.414a25.314,25.314,0,0,1,.369-4.313" transform="translate(-491.271 612.095)" fill="none" stroke="#000" stroke-miterlimit="10" stroke-width="3"/>
          <path id="路径_38599" data-name="路径 38599" d="M522.553-457.247l-18.576-10.724a25.413,25.413,0,0,1-12.705-22.007v-39.614" transform="translate(-491.271 621.353)" fill="none" stroke="#000" stroke-miterlimit="10" stroke-width="3"/>
          <line id="直线_489" data-name="直线 489" x1="12.539" y2="7.24" transform="translate(99.295 181.463)" fill="none" stroke="#000" stroke-miterlimit="10" stroke-width="3"/>
          <path id="路径_38600" data-name="路径 38600" d="M631.261-500.356a25.452,25.452,0,0,1-.365,4.288,25.419,25.419,0,0,1-12.342,17.719l-33.776,19.5" transform="translate(-458.081 631.731)" fill="none" stroke="#000" stroke-miterlimit="10" stroke-width="3"/>
          <path id="路径_38601" data-name="路径 38601" d="M601.06-573.727l11.715,6.764a25.517,25.517,0,0,1,3,2.033" transform="translate(-452.302 605.688)" fill="none" stroke="#000" stroke-miterlimit="10" stroke-width="3"/>
          <path id="路径_38602" data-name="路径 38602" d="M532.161-583.242l18.48-10.669a25.413,25.413,0,0,1,25.412,0l33.682,19.446" transform="translate(-476.757 597.316)" fill="none" stroke="#000" stroke-miterlimit="10" stroke-width="3"/>
        </g>
        <path id="路径_38603" data-name="路径 38603" d="M784.13-130.363,736.539-157.84a25.409,25.409,0,0,1-12.705-22.007V-234.8a25.411,25.411,0,0,1,12.705-22.007l47.591-27.477a25.414,25.414,0,0,1,25.412,0l47.591,27.477A25.411,25.411,0,0,1,869.839-234.8v54.954a25.409,25.409,0,0,1-12.705,22.007l-47.591,27.477A25.413,25.413,0,0,1,784.13-130.363Z" transform="translate(-408.725 857.947)" fill="none" stroke="#000" stroke-miterlimit="10" stroke-width="3"/>
        <path id="路径_38604" data-name="路径 38604" d="M856.246-197.36a25.408,25.408,0,0,1-10.913,12.629l-56.885,32.842a25.435,25.435,0,0,1-4.244,1.954" transform="translate(-387.297 890.008)" fill="none" stroke="#000" stroke-miterlimit="10" stroke-width="3"/>
        <path id="路径_38605" data-name="路径 38605" d="M821.241-273.667l10.946,6.321a25.412,25.412,0,0,1,12.707,22.007v56.569" transform="translate(-374.151 862.924)" fill="none" stroke="#000" stroke-miterlimit="10" stroke-width="3"/>
        <path id="路径_38606" data-name="路径 38606" d="M719.27-249.4a25.416,25.416,0,0,1,6.6-8.165,25.443,25.443,0,0,1,3.331-2.294l56.884-32.842a25.554,25.554,0,0,1,4.493-2.042" transform="translate(-410.345 855.441)" fill="none" stroke="#000" stroke-miterlimit="10" stroke-width="3"/>
        <path id="路径_38607" data-name="路径 38607" d="M740.3-161.8l-10.378-5.992A25.413,25.413,0,0,1,717.222-189.8v-55.3" transform="translate(-411.072 873.066)" fill="none" stroke="#000" stroke-miterlimit="10" stroke-width="3"/>
        <path id="路径_38608" data-name="路径 38608" d="M801.881-428.266l-69.77-40.283a25.409,25.409,0,0,1-12.705-22.007v-80.563a25.413,25.413,0,0,1,12.705-22.008l69.77-40.281a25.407,25.407,0,0,1,25.412,0l69.771,40.281a25.413,25.413,0,0,1,12.705,22.008v80.563a25.409,25.409,0,0,1-12.705,22.007l-69.771,40.283A25.414,25.414,0,0,1,801.881-428.266Z" transform="translate(-410.296 734.028)" fill="none" stroke="#000" stroke-miterlimit="10" stroke-width="3"/>
        <line id="直线_490" data-name="直线 490" y1="16.767" transform="translate(297.366 214.546)" fill="none" stroke="#000" stroke-miterlimit="10" stroke-width="3"/>
        <path id="路径_38609" data-name="路径 38609" d="M769.423-475.312l-45.979-26.546a25.411,25.411,0,0,1-12.705-22.007" transform="translate(-413.373 774.118)" fill="none" stroke="#000" stroke-miterlimit="10" stroke-width="3"/>
        <line id="直线_491" data-name="直线 491" x1="13.364" y2="7.715" transform="translate(416.997 311.606)" fill="none" stroke="#000" stroke-miterlimit="10" stroke-width="3"/>
        <line id="直线_492" data-name="直线 492" y2="16.429" transform="translate(511.217 174.914)" fill="none" stroke="#000" stroke-miterlimit="10" stroke-width="3"/>
        <path id="路径_38611" data-name="路径 38611" d="M825.669-628.929,871.091-602.7A25.412,25.412,0,0,1,883.8-580.7v2.356" transform="translate(-372.579 736.826)" fill="none" stroke="#000" stroke-miterlimit="10" stroke-width="3"/>
        <line id="直线_493" data-name="直线 493" y1="7.232" x2="12.526" transform="translate(379.059 87.059)" fill="none" stroke="#000" stroke-miterlimit="10" stroke-width="3"/>
        <path id="路径_38612" data-name="路径 38612" d="M711.649-587.054a25.4,25.4,0,0,1,11.472-14.186l55.105-31.815" transform="translate(-413.05 735.361)" fill="none" stroke="#000" stroke-miterlimit="10" stroke-width="3"/>
        <path id="路径_38613" data-name="路径 38613" d="M1372.351-532.955l-51.737-29.87a25.411,25.411,0,0,1-12.705-22.007v-59.741a25.412,25.412,0,0,1,12.705-22.008l51.737-29.87a25.413,25.413,0,0,1,25.412,0l51.737,29.87a25.412,25.412,0,0,1,12.705,22.008v59.741a25.41,25.41,0,0,1-12.705,22.007l-51.737,29.87A25.407,25.407,0,0,1,1372.351-532.955Z" transform="translate(-201.412 711.652)" fill="none" stroke="#000" stroke-miterlimit="10" stroke-width="3"/>
        <path id="路径_38614" data-name="路径 38614" d="M1329.118-684.711l35.413-20.446a25.418,25.418,0,0,1,22.385-1.489" transform="translate(-193.884 708.561)" fill="none" stroke="#000" stroke-miterlimit="10" stroke-width="3"/>
        <path id="路径_38615" data-name="路径 38615" d="M1300.6-602.032v-61.074q0-1.079.091-2.145" transform="translate(-204.005 723.934)" fill="none" stroke="#000" stroke-miterlimit="10" stroke-width="3"/>
        <path id="路径_38616" data-name="路径 38616" d="M1349.115-569.714l-35.888-20.721a25.411,25.411,0,0,1-12.388-18" transform="translate(-203.922 744.102)" fill="none" stroke="#000" stroke-miterlimit="10" stroke-width="3"/>
        <path id="路径_38617" data-name="路径 38617" d="M1427.84-591.61,1374.8-560.988a25.447,25.447,0,0,1-3.027,1.489" transform="translate(-178.743 750.072)" fill="none" stroke="#000" stroke-miterlimit="10" stroke-width="3"/>
        <path id="路径_38618" data-name="路径 38618" d="M1431.988-641.676v41.035a25.409,25.409,0,0,1-12.705,22.007" transform="translate(-161.881 732.302)" fill="none" stroke="#000" stroke-miterlimit="10" stroke-width="3"/>
        <path id="路径_38619" data-name="路径 38619" d="M1380.022-702.577l53.2,30.713a25.521,25.521,0,0,1,2.8,1.876" transform="translate(-175.816 710.685)" fill="none" stroke="#000" stroke-miterlimit="10" stroke-width="3"/>
        <path id="路径_38620" data-name="路径 38620" d="M1367.019-184.949,1305.1-220.7a25.41,25.41,0,0,1-12.707-22.007v-71.5a25.412,25.412,0,0,1,12.707-22.007l61.921-35.75a25.414,25.414,0,0,1,25.412,0l61.921,35.75a25.412,25.412,0,0,1,12.707,22.007v71.5a25.41,25.41,0,0,1-12.707,22.007l-61.921,35.75A25.407,25.407,0,0,1,1367.019-184.949Z" transform="translate(-206.92 826.826)" fill="none" stroke="#000" stroke-miterlimit="10" stroke-width="3"/>
        <path id="路径_38623" data-name="路径 38623" d="M1437.682-300.676v36.05a25.415,25.415,0,0,1-12.705,22.007l-21.469,12.395" transform="translate(-167.48 853.337)" fill="none" stroke="#000" stroke-miterlimit="10" stroke-width="3"/>
        <path id="路径_38624" data-name="路径 38624" d="M1393.159-366.481l35.49,20.489a25.558,25.558,0,0,1,2.438,1.6" transform="translate(-171.153 829.98)" fill="none" stroke="#000" stroke-miterlimit="10" stroke-width="3"/>
        <path id="路径_38625" data-name="路径 38625" d="M1324.258-362.629l31.8-18.361a25.413,25.413,0,0,1,25.412,0l21.491,12.407" transform="translate(-195.609 823.622)" fill="none" stroke="#000" stroke-miterlimit="10" stroke-width="3"/>
        <path id="路径_38626" data-name="路径 38626" d="M611.92-521.478h56.542a13.1,13.1,0,0,0,13.1-13.1v-24.163A16.936,16.936,0,0,1,698.5-575.676h59.061" transform="translate(-448.448 755.728)" fill="none" stroke="#000" stroke-miterlimit="10" stroke-width="3"/>
        <line id="直线_495" data-name="直线 495" x2="69.102" transform="translate(838.319 443.362)" fill="none" stroke="#000" stroke-miterlimit="10" stroke-width="3"/>
        <line id="直线_496" data-name="直线 496" x2="76.046" transform="translate(924.302 443.193)" fill="none" stroke="#000" stroke-miterlimit="10" stroke-width="3"/>
        <path id="路径_38628" data-name="路径 38628" d="M43.311,63.448" transform="translate(508.511 308.169)" fill="none" stroke="#000" stroke-width="3"/>
        <line id="直线_499" data-name="直线 499" y2="15.356" transform="translate(806.397 193.262)" fill="none" stroke="#000" stroke-miterlimit="10" stroke-width="3"/>
        <line id="直线_501" data-name="直线 501" x2="38.656" y2="59.054" transform="translate(729.206 623.681)" fill="none" stroke="#000" stroke-miterlimit="10" stroke-width="3"/>
        <line id="直线_502" data-name="直线 502" x1="42.491" y2="63.049" transform="translate(540.853 603.371)" fill="none" stroke="#000" stroke-miterlimit="10" stroke-width="3"/>
        <path id="路径_38627" data-name="路径 38627" d="M831.02-202.357h57.422s8.581.595,13.1-4.486" transform="translate(-370.68 886.642)" fill="none" stroke="#000" stroke-miterlimit="10" stroke-width="3"/>
      </g>
    </g>
  </g>
</svg>
