<svg xmlns="http://www.w3.org/2000/svg" xmlns:xlink="http://www.w3.org/1999/xlink" width="1820" height="880" viewBox="0 0 1820 880">
  <defs>
    <clipPath id="clip-path">
      <rect id="矩形_2278" data-name="矩形 2278" width="1820" height="880" transform="translate(50 82)" fill="#fff"/>
    </clipPath>
  </defs>
  <g id="banner9_CN" transform="translate(-50 -88)">
    <g id="组_21710" data-name="组 21710" transform="translate(0 34)">
      <path id="路径_38749" data-name="路径 38749" d="M17.42,68.02a20.1,20.1,0,0,1-3.848,4.056A43.1,43.1,0,0,0,9.62,67.708L5.3,70.932c1.82,1.2,2.184,1.508,4.108,4.056a29.889,29.889,0,0,1-7.176,3.588A18.447,18.447,0,0,1,5.148,83.1a54.079,54.079,0,0,0,6.708-3.8,22.913,22.913,0,0,1,1.352,3.744A36.233,36.233,0,0,1,10.3,85.96a31.428,31.428,0,0,1-8.372,5.408,17.776,17.776,0,0,1,2.6,4.992A37.2,37.2,0,0,0,14.3,88.4a23.148,23.148,0,0,1,.208,3.172c0,3.9-.26,5.98-.884,6.76-.364.468-.936.624-1.976.624a36.755,36.755,0,0,1-5.46-.676,14.863,14.863,0,0,1,.988,5.252c2.808.1,3.8.156,4.68.156,4.42,0,5.928-.676,6.968-3.224a16.268,16.268,0,0,1,2.34,3.64c4.836-3.328,6.344-4.68,8.476-7.852a29.7,29.7,0,0,0,3.952-8.164,27.559,27.559,0,0,0,4.056,7.644c2.6,3.64,4.784,5.616,9.2,8.528a17.7,17.7,0,0,1,3.328-5.3,25.731,25.731,0,0,1-8.424-6.6A27,27,0,0,1,36.4,81.488h7.592a34.889,34.889,0,0,1,4.836.312V76.08a30.21,30.21,0,0,1-4.784.26L47.06,72.6a30.618,30.618,0,0,0-6.344-4.94l-2.86,3.38a24.332,24.332,0,0,1,6.136,5.3H35.62c.208-5.772.208-6.188.364-7.332H30.316c.1,1.768.156,2.756.156,4.68a20.085,20.085,0,0,1-.1,2.652H24.856a26.4,26.4,0,0,1-4.836-.26v5.668a46.022,46.022,0,0,1,4.836-.26h5.1c-.728,4.264-1.508,6.6-3.328,9.516a19.81,19.81,0,0,1-7.28,7.228,26.981,26.981,0,0,0,.364-5.1c0-7.02-.832-11.128-3.536-16.9a39.737,39.737,0,0,0,3.224-2.7c1.976-1.924,1.976-1.924,2.6-2.444L17.524,68.02h2.912a8.466,8.466,0,0,1-.156-2.08v-.988H31.044v.832a9.373,9.373,0,0,1-.156,1.976h5.876a1.6,1.6,0,0,1-.052-.468,7.878,7.878,0,0,1-.1-1.612v-.728h7.124a39.916,39.916,0,0,1,5.668.26V59.7a45.3,45.3,0,0,1-5.668.312H36.608V58.764a22.679,22.679,0,0,1,.156-2.652H30.836a14.073,14.073,0,0,1,.208,2.652v1.248H20.28V58.764a22.678,22.678,0,0,1,.156-2.652H14.508a13.512,13.512,0,0,1,.208,2.6v1.3h-6.5A46.787,46.787,0,0,1,2.5,59.7v5.512a41.2,41.2,0,0,1,5.72-.26h6.5V66.1a14.217,14.217,0,0,1-.156,1.924Zm93.5-10.3a30.39,30.39,0,0,1-4.68.26H90.376a42.249,42.249,0,0,1-4.68-.26V63.34c1.092-.1,2.08-.156,3.484-.208v28.6a.885.885,0,0,0-.364.052c-1.3.156-2.288.208-3.588.26l1.248,5.98c.676-.156.832-.208,2.028-.416l.936-.156c2.444-.468,3.8-.78,4.16-.832,3.64-.572,3.64-.572,4.368-.728q2.964-.546,3.12-.624c.312-.052.364-.052.78-.1v3.588a45.611,45.611,0,0,1-.312,5.616h6.032a37.354,37.354,0,0,1-.26-5.616V94.124c.936-.156,1.352-.26,2.548-.52V88.4c-1.2.26-1.56.364-2.548.52V63.132c.52,0,1.508,0,1.976.052v3.328c.78-.1,1.352-.156,2.132-.208,1.04,9.932,2.756,16.068,6.344,22.62a31.442,31.442,0,0,1-10.036,9.048,23.077,23.077,0,0,1,3.12,5.824c4.888-3.536,7.176-5.72,10.14-9.724,3.328,4.368,4.836,5.824,10.192,9.672a23.906,23.906,0,0,1,3.12-5.824,31.253,31.253,0,0,1-9.932-9,63.33,63.33,0,0,0,7.332-24.6c.156-1.976.26-2.86.364-3.536a37.384,37.384,0,0,1-4.212.26H114.244c-1.3,0-2.392-.052-3.328-.1Zm-9.048,5.408v5.72H94.64v-5.72Zm0,10.348v5.564H94.64V73.48Zm0,10.3v6.188c-1.352.208-3.276.52-7.228,1.092v-7.28Zm24.076-17.524c-1.3,8.164-2.34,12.012-4.836,17.16-2.34-4.888-3.432-9.2-4.42-17.16Zm63.8-10.3a33.428,33.428,0,0,1-4.628,6.916,45.726,45.726,0,0,1-9.152,7.7,47.351,47.351,0,0,1-8.372,4.42A15.989,15.989,0,0,1,171.34,80.5a98.191,98.191,0,0,0,11.908-7.9,43.654,43.654,0,0,0,8.892-9.152,50.748,50.748,0,0,0,7.28,7.748,60.544,60.544,0,0,0,14.2,9.36c2.028-4.16,2.184-4.472,3.38-5.616a49.91,49.91,0,0,1-6.292-2.964,70.133,70.133,0,0,1-7.8-5.408,66.973,66.973,0,0,1-7.644-7.956c.312-.52.416-.78.832-1.508ZM195.52,104a45.565,45.565,0,0,1-.364-6.188V77.172a42.038,42.038,0,0,1,.312-5.772h-6.656a38.252,38.252,0,0,1,.364,5.72V97.868a44.777,44.777,0,0,1-.364,6.136Zm74.516-17.472a43.1,43.1,0,0,1,5.772-.312h4.68V97.244H272.22a47.029,47.029,0,0,1-6.136-.312v5.876a42.3,42.3,0,0,1,6.136-.364h20.9a42.019,42.019,0,0,1,6.084.364V96.932a46.691,46.691,0,0,1-6.084.312h-7.072V86.22H291.2a38.866,38.866,0,0,1,5.668.312V80.916a39.1,39.1,0,0,1-5.616.26h-5.2v-9.1h6.136a47.741,47.741,0,0,1,5.668.312V66.616a36.813,36.813,0,0,1-5.72.312h-6.084v-5.2a34.53,34.53,0,0,1,.364-5.512h-6.292a34.964,34.964,0,0,1,.364,5.512v5.2h-4.42c.156-.78.624-3.536.78-4.472a13.146,13.146,0,0,1,.364-1.872l-5.564-1.04a43.879,43.879,0,0,1-2.236,12.012,42.616,42.616,0,0,0-2.392-6.6l-3.484,1.664a29.721,29.721,0,0,1,2.392,7.748l3.016-1.456a23.241,23.241,0,0,1-2.756,5.2,30.178,30.178,0,0,1,4.68,2.912c-.26-.052-.416-.052-.832-.1Zm10.452-14.456v9.1h-5.46c-1.664,0-2.808-.052-3.952-.156a40.1,40.1,0,0,0,3.744-8.944Zm-25.428,9.36a65.08,65.08,0,0,0,1.924-14.56l-4.212-.52a46.67,46.67,0,0,1-1.872,13.52Zm8.684,22.88a50.469,50.469,0,0,1-.312-6.136V61.572a42.133,42.133,0,0,1,.312-5.512H257.5a34.53,34.53,0,0,1,.364,5.512V97.764a49.655,49.655,0,0,1-.364,6.552ZM348.3,69.684c2.132-4.836,2.548-5.824,3.744-9.048.468-1.3.676-1.82,1.144-2.912L347.1,56.008a39.584,39.584,0,0,1-5.252,12.9,45.252,45.252,0,0,1-7.28,9.2,26.072,26.072,0,0,1,2.756,6.136,53.944,53.944,0,0,0,5.356-6.76c-.1,3.848-.1,4.056-.1,5.824V97.5a55.556,55.556,0,0,1-.364,6.708h6.4c-.208-2.184-.312-4.524-.312-6.656V86.584a17.628,17.628,0,0,1,3.432,5.044c2.7-1.248,3.536-1.664,5.564-2.756v8.372c0,4.732,1.56,5.616,9.932,5.616,8.528,0,11.336-.572,12.948-2.5,1.248-1.612,1.976-5.044,2.392-11.492a21.074,21.074,0,0,1-5.616-2.028c-.26,6.292-.572,8.32-1.456,9.516-.676.832-2.5,1.144-7.176,1.144-4.264,0-5.148-.312-5.148-1.716V85.232c6.864-4.888,11.128-9.1,17.888-17.732.572-.728.676-.832,1.092-1.352L376.584,62.3a35.161,35.161,0,0,1-4.472,6.916,43.859,43.859,0,0,1-8.944,8.892V63.028a48.274,48.274,0,0,1,.312-6.24h-6.5a48.826,48.826,0,0,1,.312,6.24v18.98a42.517,42.517,0,0,1-9,4Zm74.62,27.092a37.535,37.535,0,0,1-.312,5.356h6.448a34.3,34.3,0,0,1-.26-5.356v-5.72h10.036v8.216a37.245,37.245,0,0,1-.312,5.3h6.344a29.431,29.431,0,0,1-.312-5.356V91.056h11.076v4.212c0,1.248-.26,1.456-1.82,1.456a33.3,33.3,0,0,1-5.1-.52,15.645,15.645,0,0,1,1.664,5.46c2.08.1,3.068.156,4.212.156,5.356,0,6.76-1.04,6.76-5.1V89.912a29.9,29.9,0,0,1,.208-4.056c-1.2.1-2.444.156-4.732.156H444.548a21.134,21.134,0,0,1,.208-3.068H438.62a17,17,0,0,1,.208,3.068H427.752c-2.08,0-3.8-.052-4.94-.156,5.668-2.5,8.476-5.044,10.14-9.048h6.292a23.9,23.9,0,0,1,3.952.208V72.18a20.417,20.417,0,0,1-4,.26h-5.1a12.749,12.749,0,0,0,.26-1.82l.052-.676h3.276a24.174,24.174,0,0,1,3.8.208v-4.42a25.241,25.241,0,0,1-3.9.208h-2.912c0-1.4.052-2.184.052-2.288h4.108a29.047,29.047,0,0,1,4.212.208V59.336a29.862,29.862,0,0,1-4.264.208h-4a21.321,21.321,0,0,1,.1-3.12h-5.824c.1.624.156,1.924.208,3.12h-5.668a27.273,27.273,0,0,1-4.68-.26v4.628a28.335,28.335,0,0,1,4.732-.26h5.564V65.94h-4.992a22.22,22.22,0,0,1-4.16-.26V70.2a22.5,22.5,0,0,1,4.212-.26H429c-.1,1.144-.208,1.56-.364,2.5h-5.98a23.348,23.348,0,0,1-4.368-.26v4.888a23.691,23.691,0,0,1,4.368-.26h4.368c-1.4,1.976-3.744,3.432-8.112,4.94a15.9,15.9,0,0,1,3.8,4.16,35.64,35.64,0,0,1,.208,4Zm39.728-39.832a25.925,25.925,0,0,1-4.264.208h-8.892c-2.132,0-3.38-.052-4.472-.156.1,1.4.156,2.184.156,4.576V79.3a30.608,30.608,0,0,1-.312,4.68h5.824a27.826,27.826,0,0,1-.312-4.576V61.832h8.06a32.182,32.182,0,0,1-5.616,7.072,28.166,28.166,0,0,1,4.212,2.652,5.278,5.278,0,0,1,2.08,3.38c0,1.144-.728,1.508-3.224,1.508a25.282,25.282,0,0,1-4-.364,13.869,13.869,0,0,1,1.456,5.252c1.508.1,2.236.1,3.068.1a15.251,15.251,0,0,0,5.1-.624,4.528,4.528,0,0,0,3.38-4.42,7.967,7.967,0,0,0-1.976-5.1,11.672,11.672,0,0,0-3.64-3.016,55.153,55.153,0,0,0,5.824-7.332,4.3,4.3,0,0,1,.572-.78Zm79.82,15.548c-.156,9.776-.416,15.08-1.144,19.916-.676,4.68-1.092,5.356-3.276,5.356a37.527,37.527,0,0,1-5.928-.572,25.393,25.393,0,0,1,1.04,5.668c3.8.208,3.8.208,5.2.208,5.252,0,6.76-1.144,7.8-5.876,1.04-4.576,1.612-11.648,1.82-21.84.156-7.02.156-7.02.312-8.58a41.1,41.1,0,0,1-5.512.26h-6.084c.208-9.1.208-9.1.416-10.5H530.92a33.676,33.676,0,0,1,.312,6.24c0,1.768,0,2.652-.1,4.264h-1.352a40.537,40.537,0,0,1-5.564-.26v5.98a39.935,39.935,0,0,1,5.2-.26h1.456c-.52,6.188-.728,7.956-1.508,11.076A32.048,32.048,0,0,1,525.148,93.6V89.08l-2.5.832V64.224c0-2.288.052-4.732.156-5.668a27.952,27.952,0,0,1-3.9.208H508.092a27.48,27.48,0,0,1-3.9-.208c.1,1.144.156,3.432.156,5.668V94.488c-2.132.312-2.652.416-3.588.468l1.04,6.136c1.352-.416,1.664-.468,3.432-.936a203.624,203.624,0,0,0,19.6-6.084,25.016,25.016,0,0,1-6.344,6.292,18.348,18.348,0,0,1,4.576,4.108,27.449,27.449,0,0,0,5.564-5.876,36.8,36.8,0,0,0,5.3-10.348,64.857,64.857,0,0,0,2.5-15.756Zm-25.22,19.032c-4.732,1.248-4.732,1.248-7.436,1.872V85.8h7.436Zm0-10.712h-7.436V74.936h7.436Zm0-10.868h-7.436V64.068h7.436Z" transform="translate(180 452)"/>
      <path id="路径_39972" data-name="路径 39972" d="M5-9.6a4.159,4.159,0,0,0-3.1,1.2A5.137,5.137,0,0,0,.54-4.656c0,3.048,1.752,5,4.476,5S9.5-1.62,9.5-4.656A5.175,5.175,0,0,0,8.16-8.4,4.205,4.205,0,0,0,5-9.6ZM5.04-1.08a2.591,2.591,0,0,1-1.86-.732,3.965,3.965,0,0,1-.972-2.832c0-2.172,1.092-3.54,2.82-3.54a2.583,2.583,0,0,1,1.848.732,3.876,3.876,0,0,1,.948,2.8C7.824-2.448,6.756-1.08,5.04-1.08ZM36.576-9.408a9.767,9.767,0,0,1,.1,1.644V-3.54a2.191,2.191,0,0,1-2.436,2.484,2.2,2.2,0,0,1-2.46-2.472V-7.764a9.41,9.41,0,0,1,.1-1.644H30.084a9.858,9.858,0,0,1,.1,1.644v4.236a3.865,3.865,0,0,0,.9,2.76A4.134,4.134,0,0,0,34.176.36c2.616,0,4.092-1.392,4.092-3.876v-4.26a9.7,9.7,0,0,1,.1-1.632ZM67.332.144c-.168-.324-.468-.972-.564-1.188C65.58-3.852,65.352-4.188,64.6-4.428a2.537,2.537,0,0,0,1.332-.7,2.467,2.467,0,0,0,.612-1.788c0-1.584-1.044-2.5-2.868-2.5h-2.88c-.66,0-1.032-.012-1.536-.036a10.677,10.677,0,0,1,.1,1.56v6.468a9.391,9.391,0,0,1-.1,1.56h1.788a9.364,9.364,0,0,1-.1-1.572V-3.876h1.788c.924,0,1.344.444,1.992,2.1a9.714,9.714,0,0,1,.624,1.92ZM60.948-5.244v-2.8h2.46c.984,0,1.476.444,1.476,1.308A1.424,1.424,0,0,1,64.5-5.676a1.617,1.617,0,0,1-1.14.432ZM116.7.144a9.771,9.771,0,0,1,.528-1.6l1.8-4.224a14.644,14.644,0,0,0,.552-1.752c-.012.18-.048.792-.1,1.836v3.984a11.156,11.156,0,0,1-.1,1.752h1.68a10.4,10.4,0,0,1-.1-1.752V-7.632a12.427,12.427,0,0,1,.1-1.776H118.86a6.65,6.65,0,0,1-.432,1.428L116-2.028,113.568-7.98a8.305,8.305,0,0,1-.444-1.428h-2.2a11.9,11.9,0,0,1,.1,1.776v6.024a11.254,11.254,0,0,1-.1,1.752h1.68a10.964,10.964,0,0,1-.1-1.752V-5.544c0-.264-.048-1.248-.1-1.884a13.354,13.354,0,0,0,.612,1.836l1.728,4.116a8.169,8.169,0,0,1,.528,1.62Zm25.272-9.552a8.966,8.966,0,0,1,.1,1.548V-1.4a9.055,9.055,0,0,1-.1,1.548H143.8a9.055,9.055,0,0,1-.1-1.548V-7.86a8.966,8.966,0,0,1,.1-1.548Zm22.4,6.756a4.1,4.1,0,0,0,.228,1A2.825,2.825,0,0,0,165.66-.288a4.825,4.825,0,0,0,2.52.624,3.977,3.977,0,0,0,2.868-.912,2.792,2.792,0,0,0,.756-2.04,2.368,2.368,0,0,0-1-2.064,5.283,5.283,0,0,0-1.956-.732,10.216,10.216,0,0,1-1.692-.432,1.141,1.141,0,0,1-.816-1.092c0-.78.708-1.308,1.752-1.308a1.9,1.9,0,0,1,1.5.576,1.55,1.55,0,0,1,.36.852l1.716-.2a3.235,3.235,0,0,0-.588-1.392A3.537,3.537,0,0,0,168.1-9.624c-2.064,0-3.408,1.08-3.408,2.748a2.362,2.362,0,0,0,.924,1.944,4.242,4.242,0,0,0,1.812.732,7.566,7.566,0,0,1,2.088.588,1.218,1.218,0,0,1,.6,1.1c0,.9-.72,1.44-1.92,1.44a2.13,2.13,0,0,1-1.752-.708,1.72,1.72,0,0,1-.336-1.056Zm27.78,0a4.1,4.1,0,0,0,.228,1A2.825,2.825,0,0,0,193.44-.288a4.825,4.825,0,0,0,2.52.624,3.977,3.977,0,0,0,2.868-.912,2.792,2.792,0,0,0,.756-2.04,2.368,2.368,0,0,0-1-2.064,5.283,5.283,0,0,0-1.956-.732,10.216,10.216,0,0,1-1.692-.432,1.141,1.141,0,0,1-.816-1.092c0-.78.708-1.308,1.752-1.308a1.9,1.9,0,0,1,1.5.576,1.55,1.55,0,0,1,.36.852l1.716-.2a3.235,3.235,0,0,0-.588-1.392,3.537,3.537,0,0,0-2.988-1.212c-2.064,0-3.408,1.08-3.408,2.748a2.362,2.362,0,0,0,.924,1.944A4.242,4.242,0,0,0,195.2-4.2a7.566,7.566,0,0,1,2.088.588,1.218,1.218,0,0,1,.6,1.1c0,.9-.72,1.44-1.92,1.44a2.13,2.13,0,0,1-1.752-.708,1.72,1.72,0,0,1-.336-1.056Zm28.092-6.756a8.966,8.966,0,0,1,.1,1.548V-1.4a9.055,9.055,0,0,1-.1,1.548h1.824a9.055,9.055,0,0,1-.1-1.548V-7.86a8.966,8.966,0,0,1,.1-1.548ZM247.116-9.6a4.159,4.159,0,0,0-3.1,1.2,5.137,5.137,0,0,0-1.368,3.744c0,3.048,1.752,5,4.476,5s4.488-1.968,4.488-5A5.175,5.175,0,0,0,250.272-8.4,4.205,4.205,0,0,0,247.116-9.6Zm.036,8.52a2.591,2.591,0,0,1-1.86-.732,3.965,3.965,0,0,1-.972-2.832c0-2.172,1.092-3.54,2.82-3.54a2.583,2.583,0,0,1,1.848.732,3.876,3.876,0,0,1,.948,2.8C249.936-2.448,248.868-1.08,247.152-1.08ZM280.368.144a9.055,9.055,0,0,1-.1-1.548V-7.752a10.493,10.493,0,0,1,.1-1.656h-1.752a10.489,10.489,0,0,1,.1,1.656V-3.72c0,.5.036,1.224.084,1.692-.264-.48-.648-1.1-.936-1.536l-3.036-4.572a6.582,6.582,0,0,1-.732-1.272H272.22a9.993,9.993,0,0,1,.1,1.548v6.192a12.983,12.983,0,0,1-.1,1.812h1.752a13.282,13.282,0,0,1-.1-1.8V-5.592c0-.276-.024-.816-.036-1.044-.036-.444-.036-.444-.048-.612.288.564.588,1.08.816,1.44l3.1,4.668a11.958,11.958,0,0,1,.768,1.284Z" transform="translate(180 366)"/>
      <path id="路径_38750" data-name="路径 38750" d="M39.468-22.672V-1.716a36.991,36.991,0,0,1-.312,6.136H45.24a35.878,35.878,0,0,1-.312-6.136V-22.672h1.3a29.976,29.976,0,0,1,4.212.208v-5.772a26.377,26.377,0,0,1-4.784.312h-11.7v-6.864c6.812-1.2,10.14-1.976,14.248-3.536.936-.312,1.144-.416,1.768-.572L45.656-43.94C43-41.964,34.008-39.676,28.132-39.52a62.712,62.712,0,0,1,.312,8.268c0,13.728-.624,20.956-2.288,25.74A44.256,44.256,0,0,0,23.5-11.544l-4.056,1.4a49.019,49.019,0,0,1,3.016,7.852L25.48-3.744a21.831,21.831,0,0,1-2.756,4.888,25.785,25.785,0,0,1,5.148,3.38c3.952-6.032,5.98-15.132,6.032-27.2ZM19.344-34.216h1.872a40.133,40.133,0,0,1,4.836.208v-5.564a28.271,28.271,0,0,1-4.784.26H17.836a33.729,33.729,0,0,0-2.132-4.94l-5.356,1.3a38.694,38.694,0,0,1,1.664,3.64H7.956a29.938,29.938,0,0,1-4.992-.26v5.564a40.539,40.539,0,0,1,4.888-.208h2.7L6.032-33.072a23.1,23.1,0,0,1,2.236,6.136H7.02a28.589,28.589,0,0,1-4.836-.26v5.564a39.731,39.731,0,0,1,4.784-.208H12.48v3.692H7.124a28.908,28.908,0,0,1-4.888-.26V-12.9a29.812,29.812,0,0,1,4.784-.26h5.46V-1.924c0,.988-.312,1.248-1.508,1.248A29.01,29.01,0,0,1,7.228-.988a21.443,21.443,0,0,1,1.04,5.2c1.612.1,3.172.156,3.952.156,2.288,0,3.536-.312,4.42-1.04.884-.78,1.092-1.56,1.092-3.952V-13.156h4a38.247,38.247,0,0,1,4.732.208v-5.46a28.335,28.335,0,0,1-4.732.26h-4V-21.84H22a39.334,39.334,0,0,1,4.732.208V-27.2a27.957,27.957,0,0,1-4.732.26H20.9a10.661,10.661,0,0,0,1.04-1.924c.468-1.144.832-1.976,1.04-2.392l.78-1.716Zm-.676,0a32,32,0,0,1-2.964,7.28H8.528l4.68-1.248a25.032,25.032,0,0,0-2.236-6.032ZM5.408.832C7.9-2.86,8.736-4.524,10.556-9.776L5.928-11.492A24.028,24.028,0,0,1,.936-2.028ZM112.632-35.776a121.265,121.265,0,0,0,15.756-2.912l-4.264-5.2c-2.756,1.2-4.68,1.664-9.62,2.5a161.37,161.37,0,0,1-23.3,1.768H88.66a28.708,28.708,0,0,1,1.924,5.356c4.784-.1,10.3-.364,12.844-.624,1.82-.156,2.028-.156,3.38-.312v6.188H95.16a50.8,50.8,0,0,1-6.448-.312V-23.5a60.5,60.5,0,0,1,6.5-.312h11.6v6.292H92.3a49.882,49.882,0,0,1-6.4-.312v5.876a52.175,52.175,0,0,1,6.4-.312h14.508v8.58c0,1.248-.468,1.612-2.08,1.612a74.3,74.3,0,0,1-8.58-.728,15.926,15.926,0,0,1,1.56,5.668c3.068.26,5.408.364,7.072.364a16.459,16.459,0,0,0,5.824-.832c1.3-.572,2.028-2.132,2.028-4.472V-12.272h13.312a51.825,51.825,0,0,1,6.344.312v-5.876a49.526,49.526,0,0,1-6.344.312H112.632v-6.292H123.5a53.974,53.974,0,0,1,6.4.312v-5.824a51.731,51.731,0,0,1-6.5.312H112.632ZM177.32-19.032c.468-2.236.78-4,1.092-6.24h11.6c1.664,0,3.328.052,4.628.156-.1-1.248-.156-2.34-.156-4.056V-37.7c0-1.716.052-2.912.156-4.212a47.044,47.044,0,0,1-5.044.208H176.54a42.7,42.7,0,0,1-5.512-.312v5.772a45.422,45.422,0,0,1,5.46-.312h12.22v6.344h-11.6a28.472,28.472,0,0,1-4.056-.208,77.7,77.7,0,0,1-2.5,16.536c1.2-.1,2.392-.156,3.848-.156H188.76c-.416,5.252-1.04,8.528-2.08,10.608-.468.988-1.3,1.3-3.38,1.3a55.723,55.723,0,0,1-9.62-.988,23.346,23.346,0,0,1,1.352,5.928c3.38.312,5.72.468,8.216.468,4.992,0,7.228-.884,8.528-3.484,1.664-3.224,2.756-9.152,3.068-16.276.052-1.352.1-1.716.208-2.756a32.278,32.278,0,0,1-4.264.208Zm27.664-23.92a31.343,31.343,0,0,1,.364,5.772V-2.6a48.2,48.2,0,0,1-.364,6.656h6.6a47.407,47.407,0,0,1-.312-6.656V-37.18a36.222,36.222,0,0,1,.312-5.772Zm51.532,19.188c0,2.184.728,2.964,3.328,3.484,2.548.572,6.864.728,18.148.728,11.752,0,15.5-.312,17.42-1.456,1.872-1.144,2.808-3.016,3.328-6.812a36.056,36.056,0,0,1-6.084-1.04c-.156,2.652-.312,3.068-1.82,3.588-1.664.624-4.628.78-13.208.78-5.46,0-9.724-.052-12.324-.208-2.34-.1-3.016-.468-3.016-1.56v-3.12h31.824a27.11,27.11,0,0,1-.208-4.056v-5.876a18.972,18.972,0,0,1,.208-3.068,41.367,41.367,0,0,1-5.2.156h-27.4c-2.132,0-3.588-.052-5.2-.156a19.831,19.831,0,0,1,.208,3.068Zm5.772-10.244v-3.328h25.844v3.328ZM274.872-3.224A64.457,64.457,0,0,0,266.4-10.5h16.38v7.9c0,.988-.468,1.248-2.34,1.248a45.869,45.869,0,0,1-5.928-.468,15.012,15.012,0,0,1,1.56,5.616C279.084,4,279.6,4,280.956,4c5.772,0,7.592-1.248,7.592-5.1V-10.5h4.368a45.438,45.438,0,0,1,6.24.312V-15.86a40.426,40.426,0,0,1-5.98.26h-4.628a13.452,13.452,0,0,1,.364-2.964H282.62c.052.468.1.676.1.728a6.69,6.69,0,0,1,.1,1.3,7.056,7.056,0,0,1-.052.936H258.388a42.094,42.094,0,0,1-6.084-.26v5.668a44.554,44.554,0,0,1,6.24-.312h5.2l-3.12,2.548a64.2,64.2,0,0,1,9.828,8.84Zm71.5-5.928H338.78V-1.56H343.1c-.052,3.224-.78,4.16-3.9,5.044l1.82,2.756c4.212-1.664,5.356-3.328,5.356-7.8Z" transform="translate(180 452)" fill="#0080f4"/>
    </g>
    <g id="蒙版组_29" data-name="蒙版组 29" transform="translate(0 6)" clip-path="url(#clip-path)">
      <g id="组_21645" data-name="组 21645" transform="translate(607.025 42)" opacity="0.05">
        <g id="组_21643" data-name="组 21643" transform="translate(511.697 290.751)">
          <path id="路径_38579" data-name="路径 38579" d="M1013.384-159.409,893.756-228.476a25.412,25.412,0,0,1-12.707-22.007V-388.618a25.414,25.414,0,0,1,12.707-22.008l119.628-69.067a25.414,25.414,0,0,1,25.412,0l119.628,69.067a25.414,25.414,0,0,1,12.706,22.008v138.135a25.412,25.412,0,0,1-12.706,22.007L1038.8-159.409A25.414,25.414,0,0,1,1013.384-159.409Z" transform="translate(-864.619 497.837)" fill="none" stroke="#000" stroke-miterlimit="10" stroke-width="3"/>
          <line id="直线_476" data-name="直线 476" y1="17.727" transform="translate(0 103.269)" fill="none" stroke="#000" stroke-miterlimit="10" stroke-width="3"/>
          <line id="直线_477" data-name="直线 477" y1="81.974" transform="translate(0 137.481)" fill="none" stroke="#000" stroke-miterlimit="10" stroke-width="3"/>
          <line id="直线_478" data-name="直线 478" x1="14.725" y1="8.501" transform="translate(16.86 280.988)" fill="none" stroke="#000" stroke-miterlimit="10" stroke-width="3"/>
          <line id="直线_479" data-name="直线 479" x1="72.444" y1="41.826" transform="translate(45.325 297.423)" fill="none" stroke="#000" stroke-miterlimit="10" stroke-width="3"/>
          <line id="直线_480" data-name="直线 480" x1="14.226" y2="8.214" transform="translate(179.284 346.787)" fill="none" stroke="#000" stroke-miterlimit="10" stroke-width="3"/>
          <line id="直线_481" data-name="直线 481" x1="71.959" y2="41.545" transform="translate(208.141 296.794)" fill="none" stroke="#000" stroke-miterlimit="10" stroke-width="3"/>
          <line id="直线_482" data-name="直线 482" y2="16.824" transform="translate(324.336 235.376)" fill="none" stroke="#000" stroke-miterlimit="10" stroke-width="3"/>
          <line id="直线_483" data-name="直线 483" y2="82.877" transform="translate(324.336 134.545)" fill="none" stroke="#000" stroke-miterlimit="10" stroke-width="3"/>
          <line id="直线_484" data-name="直线 484" x2="14.76" y2="8.522" transform="translate(292.842 65.816)" fill="none" stroke="#000" stroke-miterlimit="10" stroke-width="3"/>
          <line id="直线_485" data-name="直线 485" x2="72.021" y2="41.581" transform="translate(206.279 15.839)" fill="none" stroke="#000" stroke-miterlimit="10" stroke-width="3"/>
          <line id="直线_486" data-name="直线 486" y1="8.291" x2="14.36" transform="translate(131.131)" fill="none" stroke="#000" stroke-miterlimit="10" stroke-width="3" opacity="0.5"/>
          <line id="直线_487" data-name="直线 487" y1="41.224" x2="71.402" transform="translate(44.349 17.17)" fill="none" stroke="#000" stroke-miterlimit="10" stroke-width="3"/>
        </g>
        <path id="路径_38580" data-name="路径 38580" d="M1168.183-454.584l-61.941-35.762a25.41,25.41,0,0,1-12.705-22.007v-71.525a25.41,25.41,0,0,1,12.705-22.007l61.941-35.761a25.407,25.407,0,0,1,25.412,0l61.941,35.761a25.412,25.412,0,0,1,12.706,22.007v71.525a25.412,25.412,0,0,1-12.706,22.007l-61.941,35.762A25.413,25.413,0,0,1,1168.183-454.584Z" transform="translate(-277.502 731.103)" fill="none" stroke="#000" stroke-miterlimit="10" stroke-width="3"/>
        <path id="路径_38581" data-name="路径 38581" d="M1179.55-501.2l-11.514,6.647a25.756,25.756,0,0,1-2.492,1.263" transform="translate(-251.943 782.163)" fill="none" stroke="#000" stroke-miterlimit="10" stroke-width="3"/>
        <path id="路径_38582" data-name="路径 38582" d="M1245.692-539.016a25.417,25.417,0,0,1-11.963,15.9l-48.381,27.932" transform="translate(-244.914 768.74)" fill="none" stroke="#000" stroke-miterlimit="10" stroke-width="3"/>
        <line id="直线_488" data-name="直线 488" y2="15.751" transform="translate(1001.521 156.114)" fill="none" stroke="#000" stroke-miterlimit="10" stroke-width="3"/>
        <path id="路径_38583" data-name="路径 38583" d="M1190.822-638.194l40.964,23.652a25.408,25.408,0,0,1,12.705,22.007" transform="translate(-242.971 733.537)" fill="none" stroke="#000" stroke-miterlimit="10" stroke-width="3"/>
        <path id="路径_38584" data-name="路径 38584" d="M1141.4-645.793l9.8-5.66q.987-.569,2.009-1.043" transform="translate(-260.515 728.461)" fill="none" stroke="#000" stroke-miterlimit="10" stroke-width="3"/>
        <path id="路径_38585" data-name="路径 38585" d="M1086.423-598.847a25.41,25.41,0,0,1,11.563-14.468l49.078-28.336" transform="translate(-280.027 732.31)" fill="none" stroke="#000" stroke-miterlimit="10" stroke-width="3"/>
        <path id="路径_38587" data-name="路径 38587" d="M1006.642-454.15l51.553-92.369a25.409,25.409,0,0,1,21.82-13.025l32.868-.478" transform="translate(-308.344 761.284)" fill="none" stroke="#000" stroke-miterlimit="10" stroke-width="3"/>
        <path id="路径_38588" data-name="路径 38588" d="M1310-590l-11.883,26.319c-2.99,6.623-8.145,10.387-13.524,9.874l-4.273-.406" transform="translate(-190.893 750.645)" fill="none" stroke="#000" stroke-miterlimit="10" stroke-width="3"/>
        <path id="路径_38589" data-name="路径 38589" d="M1329.37-344.239l-16.242-26.171a25.411,25.411,0,0,0-22.4-12l-15.338.229" transform="translate(-212.954 824.322)" fill="none" stroke="#000" stroke-miterlimit="10" stroke-width="3"/>
        <path id="路径_38590" data-name="路径 38590" d="M1157.853-63.183,1110.43-90.564a25.412,25.412,0,0,1-12.707-22.007v-54.76a25.41,25.41,0,0,1,12.707-22.007l47.423-27.381a25.413,25.413,0,0,1,25.412,0l47.425,27.381a25.409,25.409,0,0,1,12.705,22.007v54.76a25.411,25.411,0,0,1-12.705,22.007l-47.425,27.381A25.413,25.413,0,0,1,1157.853-63.183Z" transform="translate(-276.016 881.929)" fill="none" stroke="#000" stroke-miterlimit="10" stroke-width="3"/>
        <path id="路径_38592" data-name="路径 38592" d="M1120.55-95.561l-16.971-9.8a25.416,25.416,0,0,1-12.705-22.008v-35.976" transform="translate(-278.447 902.082)" fill="none" stroke="#000" stroke-miterlimit="10" stroke-width="3"/>
        <path id="路径_38593" data-name="路径 38593" d="M1172.6-100.947l-10.7,6.18a25.448,25.448,0,0,1-3.979,1.859" transform="translate(-254.65 924.229)" fill="none" stroke="#000" stroke-miterlimit="10" stroke-width="3"/>
        <path id="路径_38594" data-name="路径 38594" d="M1223.06-151.51v19.943a25.414,25.414,0,0,1-12.707,22.008l-29.191,16.853" transform="translate(-246.4 906.282)" fill="none" stroke="#000" stroke-miterlimit="10" stroke-width="3"/>
        <path id="路径_38595" data-name="路径 38595" d="M1195.024-205.792l10.409,6.009a25.435,25.435,0,0,1,4.158,3" transform="translate(-241.48 887.015)" fill="none" stroke="#000" stroke-miterlimit="10" stroke-width="3"/>
        <path id="路径_38597" data-name="路径 38597" d="M562.612-422.758,511.14-452.474a25.411,25.411,0,0,1-12.705-22.007v-59.435a25.41,25.41,0,0,1,12.705-22.007l51.471-29.717a25.413,25.413,0,0,1,25.412,0l51.47,29.717A25.412,25.412,0,0,1,652.2-533.916v59.435a25.412,25.412,0,0,1-12.707,22.007l-51.47,29.717A25.414,25.414,0,0,1,562.612-422.758Z" transform="translate(-488.728 750.983)" fill="none" stroke="#000" stroke-miterlimit="10" stroke-width="3"/>
        <g id="组_21644" data-name="组 21644" transform="translate(0 150.731)">
          <path id="路径_38598" data-name="路径 38598" d="M491.271-537.949v-13.414a25.314,25.314,0,0,1,.369-4.313" transform="translate(-491.271 612.095)" fill="none" stroke="#000" stroke-miterlimit="10" stroke-width="3"/>
          <path id="路径_38599" data-name="路径 38599" d="M522.553-457.247l-18.576-10.724a25.413,25.413,0,0,1-12.705-22.007v-39.614" transform="translate(-491.271 621.353)" fill="none" stroke="#000" stroke-miterlimit="10" stroke-width="3"/>
          <line id="直线_489" data-name="直线 489" x1="12.539" y2="7.24" transform="translate(99.295 181.463)" fill="none" stroke="#000" stroke-miterlimit="10" stroke-width="3"/>
          <path id="路径_38600" data-name="路径 38600" d="M631.261-500.356a25.452,25.452,0,0,1-.365,4.288,25.419,25.419,0,0,1-12.342,17.719l-33.776,19.5" transform="translate(-458.081 631.731)" fill="none" stroke="#000" stroke-miterlimit="10" stroke-width="3"/>
          <path id="路径_38601" data-name="路径 38601" d="M601.06-573.727l11.715,6.764a25.517,25.517,0,0,1,3,2.033" transform="translate(-452.302 605.688)" fill="none" stroke="#000" stroke-miterlimit="10" stroke-width="3"/>
          <path id="路径_38602" data-name="路径 38602" d="M532.161-583.242l18.48-10.669a25.413,25.413,0,0,1,25.412,0l33.682,19.446" transform="translate(-476.757 597.316)" fill="none" stroke="#000" stroke-miterlimit="10" stroke-width="3"/>
        </g>
        <path id="路径_38603" data-name="路径 38603" d="M784.13-130.363,736.539-157.84a25.409,25.409,0,0,1-12.705-22.007V-234.8a25.411,25.411,0,0,1,12.705-22.007l47.591-27.477a25.414,25.414,0,0,1,25.412,0l47.591,27.477A25.411,25.411,0,0,1,869.839-234.8v54.954a25.409,25.409,0,0,1-12.705,22.007l-47.591,27.477A25.413,25.413,0,0,1,784.13-130.363Z" transform="translate(-408.725 857.947)" fill="none" stroke="#000" stroke-miterlimit="10" stroke-width="3"/>
        <path id="路径_38604" data-name="路径 38604" d="M856.246-197.36a25.408,25.408,0,0,1-10.913,12.629l-56.885,32.842a25.435,25.435,0,0,1-4.244,1.954" transform="translate(-387.297 890.008)" fill="none" stroke="#000" stroke-miterlimit="10" stroke-width="3"/>
        <path id="路径_38605" data-name="路径 38605" d="M821.241-273.667l10.946,6.321a25.412,25.412,0,0,1,12.707,22.007v56.569" transform="translate(-374.151 862.924)" fill="none" stroke="#000" stroke-miterlimit="10" stroke-width="3"/>
        <path id="路径_38606" data-name="路径 38606" d="M719.27-249.4a25.416,25.416,0,0,1,6.6-8.165,25.443,25.443,0,0,1,3.331-2.294l56.884-32.842a25.554,25.554,0,0,1,4.493-2.042" transform="translate(-410.345 855.441)" fill="none" stroke="#000" stroke-miterlimit="10" stroke-width="3"/>
        <path id="路径_38607" data-name="路径 38607" d="M740.3-161.8l-10.378-5.992A25.413,25.413,0,0,1,717.222-189.8v-55.3" transform="translate(-411.072 873.066)" fill="none" stroke="#000" stroke-miterlimit="10" stroke-width="3"/>
        <path id="路径_38608" data-name="路径 38608" d="M801.881-428.266l-69.77-40.283a25.409,25.409,0,0,1-12.705-22.007v-80.563a25.413,25.413,0,0,1,12.705-22.008l69.77-40.281a25.407,25.407,0,0,1,25.412,0l69.771,40.281a25.413,25.413,0,0,1,12.705,22.008v80.563a25.409,25.409,0,0,1-12.705,22.007l-69.771,40.283A25.414,25.414,0,0,1,801.881-428.266Z" transform="translate(-410.296 734.028)" fill="none" stroke="#000" stroke-miterlimit="10" stroke-width="3"/>
        <line id="直线_490" data-name="直线 490" y1="16.767" transform="translate(297.366 214.546)" fill="none" stroke="#000" stroke-miterlimit="10" stroke-width="3"/>
        <path id="路径_38609" data-name="路径 38609" d="M769.423-475.312l-45.979-26.546a25.411,25.411,0,0,1-12.705-22.007" transform="translate(-413.373 774.118)" fill="none" stroke="#000" stroke-miterlimit="10" stroke-width="3"/>
        <line id="直线_491" data-name="直线 491" x1="13.364" y2="7.715" transform="translate(416.997 311.606)" fill="none" stroke="#000" stroke-miterlimit="10" stroke-width="3"/>
        <line id="直线_492" data-name="直线 492" y2="16.429" transform="translate(511.217 174.914)" fill="none" stroke="#000" stroke-miterlimit="10" stroke-width="3"/>
        <path id="路径_38611" data-name="路径 38611" d="M825.669-628.929,871.091-602.7A25.412,25.412,0,0,1,883.8-580.7v2.356" transform="translate(-372.579 736.826)" fill="none" stroke="#000" stroke-miterlimit="10" stroke-width="3"/>
        <line id="直线_493" data-name="直线 493" y1="7.232" x2="12.526" transform="translate(379.059 87.059)" fill="none" stroke="#000" stroke-miterlimit="10" stroke-width="3"/>
        <path id="路径_38612" data-name="路径 38612" d="M711.649-587.054a25.4,25.4,0,0,1,11.472-14.186l55.105-31.815" transform="translate(-413.05 735.361)" fill="none" stroke="#000" stroke-miterlimit="10" stroke-width="3"/>
        <path id="路径_38613" data-name="路径 38613" d="M1372.351-532.955l-51.737-29.87a25.411,25.411,0,0,1-12.705-22.007v-59.741a25.412,25.412,0,0,1,12.705-22.008l51.737-29.87a25.413,25.413,0,0,1,25.412,0l51.737,29.87a25.412,25.412,0,0,1,12.705,22.008v59.741a25.41,25.41,0,0,1-12.705,22.007l-51.737,29.87A25.407,25.407,0,0,1,1372.351-532.955Z" transform="translate(-201.412 711.652)" fill="none" stroke="#000" stroke-miterlimit="10" stroke-width="3"/>
        <path id="路径_38614" data-name="路径 38614" d="M1329.118-684.711l35.413-20.446a25.418,25.418,0,0,1,22.385-1.489" transform="translate(-193.884 708.561)" fill="none" stroke="#000" stroke-miterlimit="10" stroke-width="3"/>
        <path id="路径_38615" data-name="路径 38615" d="M1300.6-602.032v-61.074q0-1.079.091-2.145" transform="translate(-204.005 723.934)" fill="none" stroke="#000" stroke-miterlimit="10" stroke-width="3"/>
        <path id="路径_38616" data-name="路径 38616" d="M1349.115-569.714l-35.888-20.721a25.411,25.411,0,0,1-12.388-18" transform="translate(-203.922 744.102)" fill="none" stroke="#000" stroke-miterlimit="10" stroke-width="3"/>
        <path id="路径_38617" data-name="路径 38617" d="M1427.84-591.61,1374.8-560.988a25.447,25.447,0,0,1-3.027,1.489" transform="translate(-178.743 750.072)" fill="none" stroke="#000" stroke-miterlimit="10" stroke-width="3"/>
        <path id="路径_38618" data-name="路径 38618" d="M1431.988-641.676v41.035a25.409,25.409,0,0,1-12.705,22.007" transform="translate(-161.881 732.302)" fill="none" stroke="#000" stroke-miterlimit="10" stroke-width="3"/>
        <path id="路径_38619" data-name="路径 38619" d="M1380.022-702.577l53.2,30.713a25.521,25.521,0,0,1,2.8,1.876" transform="translate(-175.816 710.685)" fill="none" stroke="#000" stroke-miterlimit="10" stroke-width="3"/>
        <path id="路径_38620" data-name="路径 38620" d="M1367.019-184.949,1305.1-220.7a25.41,25.41,0,0,1-12.707-22.007v-71.5a25.412,25.412,0,0,1,12.707-22.007l61.921-35.75a25.414,25.414,0,0,1,25.412,0l61.921,35.75a25.412,25.412,0,0,1,12.707,22.007v71.5a25.41,25.41,0,0,1-12.707,22.007l-61.921,35.75A25.407,25.407,0,0,1,1367.019-184.949Z" transform="translate(-206.92 826.826)" fill="none" stroke="#000" stroke-miterlimit="10" stroke-width="3"/>
        <path id="路径_38623" data-name="路径 38623" d="M1437.682-300.676v36.05a25.415,25.415,0,0,1-12.705,22.007l-21.469,12.395" transform="translate(-167.48 853.337)" fill="none" stroke="#000" stroke-miterlimit="10" stroke-width="3"/>
        <path id="路径_38624" data-name="路径 38624" d="M1393.159-366.481l35.49,20.489a25.558,25.558,0,0,1,2.438,1.6" transform="translate(-171.153 829.98)" fill="none" stroke="#000" stroke-miterlimit="10" stroke-width="3"/>
        <path id="路径_38625" data-name="路径 38625" d="M1324.258-362.629l31.8-18.361a25.413,25.413,0,0,1,25.412,0l21.491,12.407" transform="translate(-195.609 823.622)" fill="none" stroke="#000" stroke-miterlimit="10" stroke-width="3"/>
        <path id="路径_38626" data-name="路径 38626" d="M611.92-521.478h56.542a13.1,13.1,0,0,0,13.1-13.1v-24.163A16.936,16.936,0,0,1,698.5-575.676h59.061" transform="translate(-448.448 755.728)" fill="none" stroke="#000" stroke-miterlimit="10" stroke-width="3"/>
        <line id="直线_495" data-name="直线 495" x2="69.102" transform="translate(838.319 443.362)" fill="none" stroke="#000" stroke-miterlimit="10" stroke-width="3"/>
        <line id="直线_496" data-name="直线 496" x2="76.046" transform="translate(924.302 443.193)" fill="none" stroke="#000" stroke-miterlimit="10" stroke-width="3"/>
        <path id="路径_38628" data-name="路径 38628" d="M43.311,63.448" transform="translate(508.511 308.169)" fill="none" stroke="#000" stroke-width="3"/>
        <line id="直线_499" data-name="直线 499" y2="15.356" transform="translate(806.397 193.262)" fill="none" stroke="#000" stroke-miterlimit="10" stroke-width="3"/>
        <line id="直线_501" data-name="直线 501" x2="38.656" y2="59.054" transform="translate(729.206 623.681)" fill="none" stroke="#000" stroke-miterlimit="10" stroke-width="3"/>
        <line id="直线_502" data-name="直线 502" x1="42.491" y2="63.049" transform="translate(540.853 603.371)" fill="none" stroke="#000" stroke-miterlimit="10" stroke-width="3"/>
        <path id="路径_38627" data-name="路径 38627" d="M831.02-202.357h57.422s8.581.595,13.1-4.486" transform="translate(-370.68 886.642)" fill="none" stroke="#000" stroke-miterlimit="10" stroke-width="3"/>
      </g>
    </g>
  </g>
</svg>
