<svg xmlns="http://www.w3.org/2000/svg" xmlns:xlink="http://www.w3.org/1999/xlink" width="1820" height="880" viewBox="0 0 1820 880">
  <defs>
    <clipPath id="clip-path">
      <rect id="矩形_2278" data-name="矩形 2278" width="1820" height="880" transform="translate(50 82)" fill="#fff"/>
    </clipPath>
  </defs>
  <g id="banner" transform="translate(-50 -88)">
    <g id="组_21710" data-name="组 21710" transform="translate(0 42)">
      <path id="路径_40982" data-name="路径 40982" d="M38.256.576a50.372,50.372,0,0,1-2.448-5.664l-10.656-27.7a31.784,31.784,0,0,1-1.632-4.848H15.168a28.43,28.43,0,0,1-1.536,4.848L3.072-5.088A52.468,52.468,0,0,1,.528.576H8.4a23.939,23.939,0,0,1,1.44-5.04L11.76-9.7H27.12l1.92,5.232A32.275,32.275,0,0,1,30.384.576ZM25.392-15.216h-11.9L18.48-29.424c.144-.432.144-.432.912-2.688.528,1.584.672,2.16.864,2.688ZM48.672.576a42.708,42.708,0,0,1-.384-6.24v-9.7c2.112-4.752,4.944-7.152,8.4-7.152a4.515,4.515,0,0,1,4.032,1.968,7.885,7.885,0,0,1,.816,4.224V-5.664A51.011,51.011,0,0,1,61.2.576h6.96a37.932,37.932,0,0,1-.384-6.24v-11.52c0-3.216-.48-5.136-1.632-6.72-1.728-2.352-4.464-3.552-8.16-3.552-4.32,0-6.864,1.344-9.792,5.088a18.755,18.755,0,0,0,.1-2.064v-2.544H41.76a39.452,39.452,0,0,1,.384,6.24V-5.664A39.842,39.842,0,0,1,41.76.576ZM78.048-21.936V-5.664a51.55,51.55,0,0,1-.336,6.24h6.864a47.442,47.442,0,0,1-.336-6.24V-21.936h2.352a41.31,41.31,0,0,1,5.328.288v-5.616a52.715,52.715,0,0,1-5.424.288H84.24v-1.968c0-3.312.96-4.464,3.744-4.464a7.946,7.946,0,0,1,4.272,1.152l1.3-5.04a17.355,17.355,0,0,0-5.952-.96c-6.528,0-9.552,2.784-9.552,8.736v2.544H76.08a31.456,31.456,0,0,1-4.512-.288v5.616a32.65,32.65,0,0,1,4.56-.288ZM115.945,0h-5.273V-3.75h-.094A7.94,7.94,0,0,1,103.289.563a7.678,7.678,0,0,1-5.543-1.922,6.722,6.722,0,0,1-2-5.086q0-6.8,7.828-7.922l7.125-1.008q0-5.133-4.875-5.133a11.58,11.58,0,0,0-7.734,2.953v-4.758a16.867,16.867,0,0,1,8.766-2.25q9.094,0,9.094,8.953Zm-5.25-11.789-5.039.7a7.987,7.987,0,0,0-3.527,1.137,3.321,3.321,0,0,0-1.184,2.918,3.194,3.194,0,0,0,1.09,2.5,4.22,4.22,0,0,0,2.918.973,5.384,5.384,0,0,0,4.113-1.746A6.191,6.191,0,0,0,110.695-9.7Zm.68-16.406a2.922,2.922,0,0,1-2.027-.773,2.537,2.537,0,0,1-.855-1.969,2.534,2.534,0,0,1,.82-1.922,2.8,2.8,0,0,1,1.992-.773,2.988,2.988,0,0,1,2.1.785,2.5,2.5,0,0,1,.855,1.91,2.609,2.609,0,0,1-.82,1.945A2.841,2.841,0,0,1,111.375-28.2Zm-9.75,0A2.95,2.95,0,0,1,99.539-29a2.553,2.553,0,0,1-.867-1.934,2.517,2.517,0,0,1,.832-1.922,2.869,2.869,0,0,1,2.027-.773,3.012,3.012,0,0,1,2.074.785,2.468,2.468,0,0,1,.879,1.91,2.574,2.574,0,0,1-.844,1.945A2.834,2.834,0,0,1,101.625-28.2ZM128.927.576a42.709,42.709,0,0,1-.384-6.24v-9.7c2.112-4.752,4.944-7.152,8.4-7.152a4.515,4.515,0,0,1,4.032,1.968,7.885,7.885,0,0,1,.816,4.224V-5.664a51.01,51.01,0,0,1-.336,6.24h6.96a37.931,37.931,0,0,1-.384-6.24v-11.52c0-3.216-.48-5.136-1.632-6.72-1.728-2.352-4.464-3.552-8.16-3.552-4.32,0-6.864,1.344-9.792,5.088a18.756,18.756,0,0,0,.1-2.064v-2.544h-6.528a39.451,39.451,0,0,1,.384,6.24V-5.664a39.842,39.842,0,0,1-.384,6.24Zm24.816,4.416c3.264,3.7,6.432,4.992,12.048,4.992,4.944,0,8.928-1.1,11.328-3.072C179.9,4.56,181.151.864,181.151-4.9v-16.08a44.594,44.594,0,0,1,.336-6h-6.432v2.208a11.546,11.546,0,0,0,.1,1.584c-2.064-2.928-4.9-4.224-9.168-4.224-7.776,0-12.816,5.376-12.816,13.68,0,8.208,4.9,13.44,12.528,13.44,4.176,0,7.008-1.344,9.408-4.368-.1,3.264-.432,4.944-1.248,6.384-1.344,2.3-4.176,3.6-7.872,3.6-3.456,0-5.568-1.056-7.44-3.648Zm5.712-18.576c0-5.712,2.976-9.312,7.776-9.312a7.254,7.254,0,0,1,4.656,1.728,8.849,8.849,0,0,1,2.88,7.1,10.167,10.167,0,0,1-1.344,5.472A8.033,8.033,0,0,1,166.751-4.8a7.357,7.357,0,0,1-5.088-2.16C160.223-8.4,159.455-10.752,159.455-13.584Zm53.9,1.968c-.1-1.1-.1-1.248-.1-1.344a19.732,19.732,0,0,0-1.392-7.3c-1.92-4.8-6.336-7.584-11.952-7.584-8.208,0-13.536,5.808-13.536,14.688,0,8.976,5.376,14.64,13.872,14.64a13.631,13.631,0,0,0,9.888-3.7,13.49,13.49,0,0,0,2.928-4.416l-5.664-1.824a6.976,6.976,0,0,1-1.392,2.5,7.59,7.59,0,0,1-5.76,2.4,7.544,7.544,0,0,1-6-2.688c-1.1-1.392-1.536-2.736-1.776-5.376Zm-20.736-4.752c.72-4.032,3.456-6.528,7.2-6.528a6.845,6.845,0,0,1,5.184,1.92,7.534,7.534,0,0,1,2.112,4.608Zm45.6-10.608a24.887,24.887,0,0,0-4.464-.528c-4.32,0-7.3,1.632-9.024,5.04v-4.512h-6.528a37.949,37.949,0,0,1,.336,6.24V-5.664a52.651,52.651,0,0,1-.336,6.24h6.864a50.48,50.48,0,0,1-.336-6.24v-8.88a7.726,7.726,0,0,1,1.968-4.8,6.851,6.851,0,0,1,5.568-2.352,14.334,14.334,0,0,1,4.272.768Zm7.488,5.04V-5.664a51.551,51.551,0,0,1-.336,6.24h6.864a47.44,47.44,0,0,1-.336-6.24V-21.936h2.352a41.311,41.311,0,0,1,5.328.288v-5.616a52.716,52.716,0,0,1-5.424.288H251.9v-1.968c0-3.312.96-4.464,3.744-4.464a7.946,7.946,0,0,1,4.272,1.152l1.3-5.04a17.355,17.355,0,0,0-5.952-.96c-6.528,0-9.552,2.784-9.552,8.736v2.544h-1.968a31.456,31.456,0,0,1-4.512-.288v5.616a32.65,32.65,0,0,1,4.56-.288Zm38.3-5.04a50.643,50.643,0,0,1,.384,6.24v9.7c-2.16,4.752-4.9,7.1-8.352,7.1a5.972,5.972,0,0,1-2.64-.672C271.919-5.52,271.2-7.3,271.2-10.08V-20.736a42.962,42.962,0,0,1,.336-6.24h-6.96a44.121,44.121,0,0,1,.384,6.24V-8.592c0,3.936,1.248,6.624,3.888,8.3a10.456,10.456,0,0,0,5.76,1.392c4.56,0,7.2-1.392,9.84-5.136-.048,1.2-.048,1.344-.048,2.064V.576h6.528a39.452,39.452,0,0,1-.384-6.24V-20.736a34.753,34.753,0,0,1,.384-6.24Zm-14.5-10.752v6.144h6.1v-6.144Zm10.416,0v6.144h6.1v-6.144Zm17.04.1a44.915,44.915,0,0,1,.336,6.288v25.68a39.452,39.452,0,0,1-.384,6.24h6.912a42.709,42.709,0,0,1-.384-6.24v-9.7c2.16-4.8,4.944-7.1,8.544-7.1a4.456,4.456,0,0,1,3.312,1.392c.912.96,1.392,2.544,1.392,4.752V-5.664a51.013,51.013,0,0,1-.336,6.24h6.96a37.932,37.932,0,0,1-.384-6.24v-12.1c0-6.192-3.5-9.7-9.648-9.7-4.368,0-6.96,1.344-9.936,5.088a19.685,19.685,0,0,0,.1-2.064V-31.3a46.133,46.133,0,0,1,.336-6.336Zm52.368,10.656a24.888,24.888,0,0,0-4.464-.528c-4.32,0-7.3,1.632-9.024,5.04v-4.512h-6.528a37.949,37.949,0,0,1,.336,6.24V-5.664a52.645,52.645,0,0,1-.336,6.24h6.864a50.483,50.483,0,0,1-.336-6.24v-8.88a7.726,7.726,0,0,1,1.968-4.8,6.851,6.851,0,0,1,5.568-2.352,14.334,14.334,0,0,1,4.272.768Zm29.328,15.36c-.1-1.1-.1-1.248-.1-1.344a19.733,19.733,0,0,0-1.392-7.3c-1.92-4.8-6.336-7.584-11.952-7.584-8.208,0-13.536,5.808-13.536,14.688,0,8.976,5.376,14.64,13.872,14.64a13.631,13.631,0,0,0,9.888-3.7,13.49,13.49,0,0,0,2.928-4.416l-5.664-1.824a6.976,6.976,0,0,1-1.392,2.5,7.59,7.59,0,0,1-5.76,2.4,7.544,7.544,0,0,1-6-2.688c-1.1-1.392-1.536-2.736-1.776-5.376Zm-20.736-4.752c.72-4.032,3.456-6.528,7.2-6.528a6.845,6.845,0,0,1,5.184,1.92,7.534,7.534,0,0,1,2.112,4.608Zm45.6-10.608a24.888,24.888,0,0,0-4.464-.528c-4.32,0-7.3,1.632-9.024,5.04v-4.512h-6.528a37.949,37.949,0,0,1,.336,6.24V-5.664a52.645,52.645,0,0,1-.336,6.24h6.864a50.483,50.483,0,0,1-.336-6.24v-8.88a7.726,7.726,0,0,1,1.968-4.8,6.851,6.851,0,0,1,5.568-2.352,14.334,14.334,0,0,1,4.272.768ZM414.047-6.432h-7.056V.576h4.032c-.048,2.976-.72,3.84-3.648,4.656L409.1,7.776c3.888-1.536,4.944-3.072,4.944-7.2Z" transform="translate(180 450)" fill="#0080f4"/>
      <path id="路径_41027" data-name="路径 41027" d="M5-9.6a4.159,4.159,0,0,0-3.1,1.2A5.137,5.137,0,0,0,.54-4.656c0,3.048,1.752,5,4.476,5S9.5-1.62,9.5-4.656A5.175,5.175,0,0,0,8.16-8.4,4.205,4.205,0,0,0,5-9.6ZM5.04-1.08a2.591,2.591,0,0,1-1.86-.732,3.965,3.965,0,0,1-.972-2.832c0-2.172,1.092-3.54,2.82-3.54a2.583,2.583,0,0,1,1.848.732,3.876,3.876,0,0,1,.948,2.8C7.824-2.448,6.756-1.08,5.04-1.08ZM36.576-9.408a9.767,9.767,0,0,1,.1,1.644V-3.54a2.191,2.191,0,0,1-2.436,2.484,2.2,2.2,0,0,1-2.46-2.472V-7.764a9.41,9.41,0,0,1,.1-1.644H30.084a9.858,9.858,0,0,1,.1,1.644v4.236a3.865,3.865,0,0,0,.9,2.76A4.134,4.134,0,0,0,34.176.36c2.616,0,4.092-1.392,4.092-3.876v-4.26a9.7,9.7,0,0,1,.1-1.632ZM67.332.144c-.168-.324-.468-.972-.564-1.188C65.58-3.852,65.352-4.188,64.6-4.428a2.537,2.537,0,0,0,1.332-.7,2.467,2.467,0,0,0,.612-1.788c0-1.584-1.044-2.5-2.868-2.5h-2.88c-.66,0-1.032-.012-1.536-.036a10.677,10.677,0,0,1,.1,1.56v6.468a9.391,9.391,0,0,1-.1,1.56h1.788a9.364,9.364,0,0,1-.1-1.572V-3.876h1.788c.924,0,1.344.444,1.992,2.1a9.714,9.714,0,0,1,.624,1.92ZM60.948-5.244v-2.8h2.46c.984,0,1.476.444,1.476,1.308A1.424,1.424,0,0,1,64.5-5.676a1.617,1.617,0,0,1-1.14.432ZM116.7.144a9.771,9.771,0,0,1,.528-1.6l1.8-4.224a14.644,14.644,0,0,0,.552-1.752c-.012.18-.048.792-.1,1.836v3.984a11.156,11.156,0,0,1-.1,1.752h1.68a10.4,10.4,0,0,1-.1-1.752V-7.632a12.427,12.427,0,0,1,.1-1.776H118.86a6.65,6.65,0,0,1-.432,1.428L116-2.028,113.568-7.98a8.305,8.305,0,0,1-.444-1.428h-2.2a11.9,11.9,0,0,1,.1,1.776v6.024a11.254,11.254,0,0,1-.1,1.752h1.68a10.964,10.964,0,0,1-.1-1.752V-5.544c0-.264-.048-1.248-.1-1.884a13.354,13.354,0,0,0,.612,1.836l1.728,4.116a8.169,8.169,0,0,1,.528,1.62Zm25.272-9.552a8.966,8.966,0,0,1,.1,1.548V-1.4a9.055,9.055,0,0,1-.1,1.548H143.8a9.055,9.055,0,0,1-.1-1.548V-7.86a8.966,8.966,0,0,1,.1-1.548Zm22.4,6.756a4.1,4.1,0,0,0,.228,1A2.825,2.825,0,0,0,165.66-.288a4.825,4.825,0,0,0,2.52.624,3.977,3.977,0,0,0,2.868-.912,2.792,2.792,0,0,0,.756-2.04,2.368,2.368,0,0,0-1-2.064,5.283,5.283,0,0,0-1.956-.732,10.216,10.216,0,0,1-1.692-.432,1.141,1.141,0,0,1-.816-1.092c0-.78.708-1.308,1.752-1.308a1.9,1.9,0,0,1,1.5.576,1.55,1.55,0,0,1,.36.852l1.716-.2a3.235,3.235,0,0,0-.588-1.392A3.537,3.537,0,0,0,168.1-9.624c-2.064,0-3.408,1.08-3.408,2.748a2.362,2.362,0,0,0,.924,1.944,4.242,4.242,0,0,0,1.812.732,7.566,7.566,0,0,1,2.088.588,1.218,1.218,0,0,1,.6,1.1c0,.9-.72,1.44-1.92,1.44a2.13,2.13,0,0,1-1.752-.708,1.72,1.72,0,0,1-.336-1.056Zm27.78,0a4.1,4.1,0,0,0,.228,1A2.825,2.825,0,0,0,193.44-.288a4.825,4.825,0,0,0,2.52.624,3.977,3.977,0,0,0,2.868-.912,2.792,2.792,0,0,0,.756-2.04,2.368,2.368,0,0,0-1-2.064,5.283,5.283,0,0,0-1.956-.732,10.216,10.216,0,0,1-1.692-.432,1.141,1.141,0,0,1-.816-1.092c0-.78.708-1.308,1.752-1.308a1.9,1.9,0,0,1,1.5.576,1.55,1.55,0,0,1,.36.852l1.716-.2a3.235,3.235,0,0,0-.588-1.392,3.537,3.537,0,0,0-2.988-1.212c-2.064,0-3.408,1.08-3.408,2.748a2.362,2.362,0,0,0,.924,1.944A4.242,4.242,0,0,0,195.2-4.2a7.566,7.566,0,0,1,2.088.588,1.218,1.218,0,0,1,.6,1.1c0,.9-.72,1.44-1.92,1.44a2.13,2.13,0,0,1-1.752-.708,1.72,1.72,0,0,1-.336-1.056Zm28.092-6.756a8.966,8.966,0,0,1,.1,1.548V-1.4a9.055,9.055,0,0,1-.1,1.548h1.824a9.055,9.055,0,0,1-.1-1.548V-7.86a8.966,8.966,0,0,1,.1-1.548ZM247.116-9.6a4.159,4.159,0,0,0-3.1,1.2,5.137,5.137,0,0,0-1.368,3.744c0,3.048,1.752,5,4.476,5s4.488-1.968,4.488-5A5.175,5.175,0,0,0,250.272-8.4,4.205,4.205,0,0,0,247.116-9.6Zm.036,8.52a2.591,2.591,0,0,1-1.86-.732,3.965,3.965,0,0,1-.972-2.832c0-2.172,1.092-3.54,2.82-3.54a2.583,2.583,0,0,1,1.848.732,3.876,3.876,0,0,1,.948,2.8C249.936-2.448,248.868-1.08,247.152-1.08ZM280.368.144a9.055,9.055,0,0,1-.1-1.548V-7.752a10.493,10.493,0,0,1,.1-1.656h-1.752a10.489,10.489,0,0,1,.1,1.656V-3.72c0,.5.036,1.224.084,1.692-.264-.48-.648-1.1-.936-1.536l-3.036-4.572a6.582,6.582,0,0,1-.732-1.272H272.22a9.993,9.993,0,0,1,.1,1.548v6.192a12.983,12.983,0,0,1-.1,1.812h1.752a13.282,13.282,0,0,1-.1-1.8V-5.592c0-.276-.024-.816-.036-1.044-.036-.444-.036-.444-.048-.612.288.564.588,1.08.816,1.44l3.1,4.668a11.958,11.958,0,0,1,.768,1.284Z" transform="translate(180 350)"/>
      <path id="路径_40983" data-name="路径 40983" d="M28.8,88.384c-.1-1.1-.1-1.248-.1-1.344a19.732,19.732,0,0,0-1.392-7.3c-1.92-4.8-6.336-7.584-11.952-7.584-8.208,0-13.536,5.808-13.536,14.688,0,8.976,5.376,14.64,13.872,14.64a13.631,13.631,0,0,0,9.888-3.7,13.49,13.49,0,0,0,2.928-4.416l-5.664-1.824a6.976,6.976,0,0,1-1.392,2.5,7.59,7.59,0,0,1-5.76,2.4,7.544,7.544,0,0,1-6-2.688c-1.1-1.392-1.536-2.736-1.776-5.376ZM8.064,83.632c.72-4.032,3.456-6.528,7.2-6.528a6.845,6.845,0,0,1,5.184,1.92,7.534,7.534,0,0,1,2.112,4.608Zm45.6-10.608A24.887,24.887,0,0,0,49.2,72.5c-4.32,0-7.3,1.632-9.024,5.04V73.024H33.648a37.948,37.948,0,0,1,.336,6.24V94.336a52.648,52.648,0,0,1-.336,6.24h6.864a50.48,50.48,0,0,1-.336-6.24v-8.88a7.726,7.726,0,0,1,1.968-4.8A6.851,6.851,0,0,1,47.712,78.3a14.334,14.334,0,0,1,4.272.768Zm3.552-10.656a44.918,44.918,0,0,1,.336,6.288v25.68a39.451,39.451,0,0,1-.384,6.24H64.08a42.708,42.708,0,0,1-.384-6.24v-9.7c2.16-4.8,4.944-7.1,8.544-7.1a4.456,4.456,0,0,1,3.312,1.392c.912.96,1.392,2.544,1.392,4.752V94.336a51.01,51.01,0,0,1-.336,6.24h6.96a37.931,37.931,0,0,1-.384-6.24V82.24c0-6.192-3.5-9.7-9.648-9.7-4.368,0-6.96,1.344-9.936,5.088a19.687,19.687,0,0,0,.1-2.064V68.7a46.132,46.132,0,0,1,.336-6.336Zm50.5,38.208h6.48a38.606,38.606,0,0,1-.384-6V81.664c0-3.264-.624-5.088-2.256-6.624-2.064-2.016-4.848-2.832-9.456-2.832-4.128,0-6.816.72-9.168,2.448-1.824,1.3-2.688,2.544-3.792,5.328l6.144,1.1a5.23,5.23,0,0,1,1.92-3.072,8.66,8.66,0,0,1,4.992-1.392c3.648,0,5.52,1.44,5.52,4.224V83.3c-6.864.144-10.416.624-13.536,1.92a8.515,8.515,0,0,0-5.424,7.776c0,5.04,3.552,8.064,9.408,8.064a16.984,16.984,0,0,0,4.464-.576,10.409,10.409,0,0,0,5.088-3.024Zm0-10.7a5.72,5.72,0,0,1-1.728,4.224,9.746,9.746,0,0,1-6.672,2.544c-2.688,0-4.368-1.392-4.368-3.648,0-3.744,3.6-5.328,12.768-5.52Zm12.192-27.5a43.282,43.282,0,0,1,.336,6.24V94.336a46.478,46.478,0,0,1-.336,6.24h6.96a49.441,49.441,0,0,1-.336-6.24V68.656a44.468,44.468,0,0,1,.336-6.288Zm16.224,3.264a55.248,55.248,0,0,1,.336,5.9v1.488h-1.776a22.047,22.047,0,0,1-4.32-.288V78.4a24.239,24.239,0,0,1,4.272-.288h1.824V94.24c0,5.04,2.208,7.008,7.728,7.008a15.02,15.02,0,0,0,6-1.008l-.864-5.088a6.349,6.349,0,0,1-3.5,1.056c-2.3,0-3.168-.864-3.168-3.216V78.112h2.16a26.465,26.465,0,0,1,4.7.288V72.736a27.577,27.577,0,0,1-4.848.288h-2.016V71.536a53.089,53.089,0,0,1,.336-5.9Zm43.44,22.752c-.1-1.1-.1-1.248-.1-1.344a19.732,19.732,0,0,0-1.392-7.3c-1.92-4.8-6.336-7.584-11.952-7.584-8.208,0-13.536,5.808-13.536,14.688,0,8.976,5.376,14.64,13.872,14.64a13.631,13.631,0,0,0,9.888-3.7,13.49,13.49,0,0,0,2.928-4.416l-5.664-1.824a6.976,6.976,0,0,1-1.392,2.5,8.075,8.075,0,0,1-11.76-.288c-1.1-1.392-1.536-2.736-1.776-5.376Zm-20.736-4.752c.72-4.032,3.456-6.528,7.2-6.528a6.845,6.845,0,0,1,5.184,1.92,7.534,7.534,0,0,1,2.112,4.608Zm32.4,16.944a42.709,42.709,0,0,1-.384-6.24v-9.7c2.112-4.752,4.944-7.152,8.4-7.152a4.515,4.515,0,0,1,4.032,1.968,7.885,7.885,0,0,1,.816,4.224V94.336a51.01,51.01,0,0,1-.336,6.24h6.96a37.931,37.931,0,0,1-.384-6.24V82.816c0-3.216-.48-5.136-1.632-6.72-1.728-2.352-4.464-3.552-8.16-3.552-4.32,0-6.864,1.344-9.792,5.088a18.757,18.757,0,0,0,.1-2.064V73.024H184.32a39.45,39.45,0,0,1,.384,6.24V94.336a39.84,39.84,0,0,1-.384,6.24Zm40.56-11.184a16.408,16.408,0,0,0,.912,3.984,11.3,11.3,0,0,0,4.224,5.472c2.3,1.536,6.144,2.5,10.08,2.5,5.136,0,8.928-1.2,11.472-3.648a11.169,11.169,0,0,0,3.024-8.16,9.474,9.474,0,0,0-3.984-8.256c-1.728-1.2-4.032-2.112-7.824-2.928-5.328-1.2-5.712-1.3-6.768-1.728-2.208-.96-3.264-2.352-3.264-4.368,0-3.12,2.832-5.232,7.008-5.232,2.64,0,4.752.816,6,2.3a6.2,6.2,0,0,1,1.44,3.408l6.864-.816a12.94,12.94,0,0,0-2.352-5.568c-2.352-3.168-6.48-4.848-11.952-4.848-8.256,0-13.632,4.32-13.632,10.992a9.447,9.447,0,0,0,3.7,7.776c1.728,1.344,3.648,2.112,7.248,2.928,6.624,1.536,6.912,1.584,8.352,2.352a4.874,4.874,0,0,1,2.4,4.416c0,3.6-2.88,5.76-7.68,5.76-3.12,0-5.616-1.008-7.008-2.832-.864-1.1-1.152-2.064-1.344-4.224Zm35.136-27.024v6.1h7.056v-6.1Zm0,10.656a39.452,39.452,0,0,1,.384,6.24V94.336a43.139,43.139,0,0,1-.384,6.24h7.008a48.215,48.215,0,0,1-.336-6.288V79.312a43.143,43.143,0,0,1,.336-6.288Zm38.832,15.36c-.1-1.1-.1-1.248-.1-1.344a19.733,19.733,0,0,0-1.392-7.3c-1.92-4.8-6.336-7.584-11.952-7.584-8.208,0-13.536,5.808-13.536,14.688,0,8.976,5.376,14.64,13.872,14.64a13.631,13.631,0,0,0,9.888-3.7,13.49,13.49,0,0,0,2.928-4.416l-5.664-1.824a6.976,6.976,0,0,1-1.392,2.5,8.075,8.075,0,0,1-11.76-.288c-1.1-1.392-1.536-2.736-1.776-5.376Zm-20.736-4.752c.72-4.032,3.456-6.528,7.2-6.528a6.845,6.845,0,0,1,5.184,1.92,7.534,7.534,0,0,1,2.112,4.608ZM332.88,73.024H326.5a49.6,49.6,0,0,1,.336,6.432V103.6a53.738,53.738,0,0,1-.336,6.336h6.768a47.841,47.841,0,0,1-.336-6.384V99.9c0-.864,0-1.728-.048-2.064-.048-.96-.048-.96-.048-1.536,2.3,3.12,5.472,4.608,9.7,4.608,8.16,0,13.008-5.328,13.008-14.16,0-4.848-1.248-8.448-3.792-11.04a12.4,12.4,0,0,0-9.12-3.36,11.177,11.177,0,0,0-9.792,4.7c.048-.624.048-1.152.048-1.68ZM349.3,86.656c0,5.664-2.928,9.216-7.632,9.216-4.992,0-8.544-3.84-8.544-9.312,0-5.136,3.6-9.072,8.352-9.072C346.32,77.488,349.3,80.992,349.3,86.656ZM386.3,88.384c-.1-1.1-.1-1.248-.1-1.344a19.733,19.733,0,0,0-1.392-7.3c-1.92-4.8-6.336-7.584-11.952-7.584-8.208,0-13.536,5.808-13.536,14.688,0,8.976,5.376,14.64,13.872,14.64a13.631,13.631,0,0,0,9.888-3.7,13.49,13.49,0,0,0,2.928-4.416l-5.664-1.824a6.976,6.976,0,0,1-1.392,2.5,8.075,8.075,0,0,1-11.76-.288c-1.1-1.392-1.536-2.736-1.776-5.376Zm-20.736-4.752c.72-4.032,3.456-6.528,7.2-6.528a6.845,6.845,0,0,1,5.184,1.92,7.534,7.534,0,0,1,2.112,4.608Zm45.6-10.608A24.887,24.887,0,0,0,406.7,72.5c-4.32,0-7.3,1.632-9.024,5.04V73.024h-6.528a37.949,37.949,0,0,1,.336,6.24V94.336a52.644,52.644,0,0,1-.336,6.24h6.864a50.482,50.482,0,0,1-.336-6.24v-8.88a7.726,7.726,0,0,1,1.968-4.8,6.851,6.851,0,0,1,5.568-2.352,14.334,14.334,0,0,1,4.272.768Zm2.3,19.728a10.8,10.8,0,0,0,1.872,4.272c2.064,2.784,5.76,4.272,10.7,4.272,4.368,0,7.728-1.056,9.936-3.12a7.718,7.718,0,0,0,2.352-5.424,6.822,6.822,0,0,0-2.784-5.952c-1.584-1.2-3.552-1.872-8.448-2.928a20.218,20.218,0,0,1-4.8-1.44,2.587,2.587,0,0,1-1.488-2.256c0-2.016,2.016-3.36,4.992-3.36,3.12,0,4.752,1.152,5.28,3.792l6.336-.816a9.344,9.344,0,0,0-2.592-4.752c-1.968-1.824-5.088-2.784-9.024-2.784-4.368,0-7.632,1.248-9.6,3.744a7.142,7.142,0,0,0-1.488,4.464,6.873,6.873,0,0,0,4.224,6.384,29.018,29.018,0,0,0,6.912,2.064c3.84.864,4.128.912,5.04,1.536a2.935,2.935,0,0,1,1.248,2.4c0,2.256-2.208,3.648-5.76,3.648-3.744,0-5.52-1.3-6.336-4.56Zm40.868,7.811a11.9,11.9,0,0,1-8.871-3.363,12.149,12.149,0,0,1-3.316-8.918q0-6.047,3.457-9.445t9.316-3.4q5.625,0,8.766,3.3t3.141,9.164a12.578,12.578,0,0,1-3.387,9.2A12.165,12.165,0,0,1,454.34,100.563Zm.258-20.789A6.207,6.207,0,0,0,449.558,82a9.323,9.323,0,0,0-1.852,6.141,8.781,8.781,0,0,0,1.875,5.941A6.3,6.3,0,0,0,454.6,96.25a5.975,5.975,0,0,0,4.934-2.133,9.441,9.441,0,0,0,1.723-6.07,9.584,9.584,0,0,0-1.723-6.117A5.947,5.947,0,0,0,454.6,79.773Zm4.828-7.969a2.922,2.922,0,0,1-2.027-.773,2.677,2.677,0,0,1-.035-3.891,2.8,2.8,0,0,1,1.992-.773,2.988,2.988,0,0,1,2.1.785,2.5,2.5,0,0,1,.855,1.91,2.609,2.609,0,0,1-.82,1.945A2.841,2.841,0,0,1,459.426,71.8Zm-9.75,0A2.95,2.95,0,0,1,447.59,71a2.553,2.553,0,0,1-.867-1.934,2.517,2.517,0,0,1,.832-1.922,2.869,2.869,0,0,1,2.027-.773,3.012,3.012,0,0,1,2.074.785,2.468,2.468,0,0,1,.879,1.91,2.574,2.574,0,0,1-.844,1.945A2.834,2.834,0,0,1,449.676,71.8Zm29.036,28.771a42.709,42.709,0,0,1-.384-6.24v-9.7c2.112-4.752,4.944-7.152,8.4-7.152a4.515,4.515,0,0,1,4.032,1.968,7.885,7.885,0,0,1,.816,4.224V94.336a51.013,51.013,0,0,1-.336,6.24h6.96a37.932,37.932,0,0,1-.384-6.24V82.816c0-3.216-.48-5.136-1.632-6.72-1.728-2.352-4.464-3.552-8.16-3.552-4.32,0-6.864,1.344-9.792,5.088a18.754,18.754,0,0,0,.1-2.064V73.024H471.8a39.452,39.452,0,0,1,.384,6.24V94.336a39.843,39.843,0,0,1-.384,6.24ZM504.1,62.368a43.284,43.284,0,0,1,.336,6.24V94.336a46.48,46.48,0,0,1-.336,6.24h6.96a49.443,49.443,0,0,1-.336-6.24V68.656a44.469,44.469,0,0,1,.336-6.288Zm13.008,0v6.1h7.056v-6.1Zm0,10.656a39.456,39.456,0,0,1,.384,6.24V94.336a43.143,43.143,0,0,1-.384,6.24h7.008a48.221,48.221,0,0,1-.336-6.288V79.312a43.147,43.147,0,0,1,.336-6.288Zm38.016,7.824a15.979,15.979,0,0,0-1.68-3.5c-2.3-3.36-6.048-5.184-10.752-5.184a13.144,13.144,0,0,0-9.648,3.648,15.52,15.52,0,0,0-4.08,11.088c0,8.88,5.472,14.592,13.92,14.592,4.56,0,8.256-1.68,10.56-4.848a13.439,13.439,0,0,0,2.016-4.08l-5.952-1.2a6.708,6.708,0,0,1-.96,2.4,6.426,6.426,0,0,1-5.52,2.688c-4.848,0-7.824-3.7-7.824-9.7,0-5.952,2.928-9.648,7.632-9.648a6.039,6.039,0,0,1,4.944,2.208,8.65,8.65,0,0,1,1.488,2.928Zm5.04-18.48a44.919,44.919,0,0,1,.336,6.288v25.68a39.456,39.456,0,0,1-.384,6.24h6.912a42.7,42.7,0,0,1-.384-6.24v-9.7c2.16-4.8,4.944-7.1,8.544-7.1a4.456,4.456,0,0,1,3.312,1.392c.912.96,1.392,2.544,1.392,4.752V94.336a51.013,51.013,0,0,1-.336,6.24h6.96a37.936,37.936,0,0,1-.384-6.24V82.24c0-6.192-3.5-9.7-9.648-9.7-4.368,0-6.96,1.344-9.936,5.088a19.685,19.685,0,0,0,.1-2.064V68.7a46.123,46.123,0,0,1,.336-6.336Zm58.08,26.016c-.1-1.1-.1-1.248-.1-1.344a19.732,19.732,0,0,0-1.392-7.3c-1.92-4.8-6.336-7.584-11.952-7.584-8.208,0-13.536,5.808-13.536,14.688,0,8.976,5.376,14.64,13.872,14.64a13.631,13.631,0,0,0,9.888-3.7,13.49,13.49,0,0,0,2.928-4.416L612.3,91.552a6.977,6.977,0,0,1-1.392,2.5,8.075,8.075,0,0,1-11.76-.288c-1.1-1.392-1.536-2.736-1.776-5.376Zm-20.736-4.752c.72-4.032,3.456-6.528,7.2-6.528a6.845,6.845,0,0,1,5.184,1.92,7.534,7.534,0,0,1,2.112,4.608ZM665.1,62.368a36.221,36.221,0,0,1,.384,6.192v9.216h-19.3V68.512a39.335,39.335,0,0,1,.384-6.144h-7.152a36.579,36.579,0,0,1,.384,6.192V94.384a36.22,36.22,0,0,1-.384,6.192h7.152a37.672,37.672,0,0,1-.384-6.192V83.536h19.3V94.384a36.579,36.579,0,0,1-.384,6.192h7.152a38.053,38.053,0,0,1-.384-6.192V68.512a37.424,37.424,0,0,1,.384-6.144Zm13.536,0v6.1h7.056v-6.1Zm0,10.656a39.456,39.456,0,0,1,.384,6.24V94.336a43.143,43.143,0,0,1-.384,6.24h7.008a48.221,48.221,0,0,1-.336-6.288V79.312a43.147,43.147,0,0,1,.336-6.288ZM691.64,62.368a43.284,43.284,0,0,1,.336,6.24V94.336a46.48,46.48,0,0,1-.336,6.24h6.96a49.443,49.443,0,0,1-.336-6.24V68.656a44.469,44.469,0,0,1,.336-6.288Zm16.992,15.7V94.336a51.551,51.551,0,0,1-.336,6.24h6.864a47.443,47.443,0,0,1-.336-6.24V78.064h2.352a41.31,41.31,0,0,1,5.328.288V72.736a52.714,52.714,0,0,1-5.424.288h-2.256V71.056c0-3.312.96-4.464,3.744-4.464a7.946,7.946,0,0,1,4.272,1.152l1.3-5.04a17.355,17.355,0,0,0-5.952-.96c-6.528,0-9.552,2.784-9.552,8.736v2.544h-1.968a31.456,31.456,0,0,1-4.512-.288v5.616a32.651,32.651,0,0,1,4.56-.288Zm44.736,10.32c-.1-1.1-.1-1.248-.1-1.344a19.732,19.732,0,0,0-1.392-7.3c-1.92-4.8-6.336-7.584-11.952-7.584-8.208,0-13.536,5.808-13.536,14.688,0,8.976,5.376,14.64,13.872,14.64a13.631,13.631,0,0,0,9.888-3.7,13.49,13.49,0,0,0,2.928-4.416l-5.664-1.824a6.977,6.977,0,0,1-1.392,2.5,8.075,8.075,0,0,1-11.76-.288c-1.1-1.392-1.536-2.736-1.776-5.376Zm-20.736-4.752c.72-4.032,3.456-6.528,7.2-6.528a6.845,6.845,0,0,1,5.184,1.92,7.534,7.534,0,0,1,2.112,4.608Z" transform="translate(180 450)"/>
    </g>
    <g id="蒙版组_29" data-name="蒙版组 29" transform="translate(0 6)" clip-path="url(#clip-path)">
      <g id="组_21645" data-name="组 21645" transform="translate(607.025 42)" opacity="0.05">
        <g id="组_21643" data-name="组 21643" transform="translate(511.697 290.751)">
          <path id="路径_38579" data-name="路径 38579" d="M1013.384-159.409,893.756-228.476a25.412,25.412,0,0,1-12.707-22.007V-388.618a25.414,25.414,0,0,1,12.707-22.008l119.628-69.067a25.414,25.414,0,0,1,25.412,0l119.628,69.067a25.414,25.414,0,0,1,12.706,22.008v138.135a25.412,25.412,0,0,1-12.706,22.007L1038.8-159.409A25.414,25.414,0,0,1,1013.384-159.409Z" transform="translate(-864.619 497.837)" fill="none" stroke="#000" stroke-miterlimit="10" stroke-width="3"/>
          <line id="直线_476" data-name="直线 476" y1="17.727" transform="translate(0 103.269)" fill="none" stroke="#000" stroke-miterlimit="10" stroke-width="3"/>
          <line id="直线_477" data-name="直线 477" y1="81.974" transform="translate(0 137.481)" fill="none" stroke="#000" stroke-miterlimit="10" stroke-width="3"/>
          <line id="直线_478" data-name="直线 478" x1="14.725" y1="8.501" transform="translate(16.86 280.988)" fill="none" stroke="#000" stroke-miterlimit="10" stroke-width="3"/>
          <line id="直线_479" data-name="直线 479" x1="72.444" y1="41.826" transform="translate(45.325 297.423)" fill="none" stroke="#000" stroke-miterlimit="10" stroke-width="3"/>
          <line id="直线_480" data-name="直线 480" x1="14.226" y2="8.214" transform="translate(179.284 346.787)" fill="none" stroke="#000" stroke-miterlimit="10" stroke-width="3"/>
          <line id="直线_481" data-name="直线 481" x1="71.959" y2="41.545" transform="translate(208.141 296.794)" fill="none" stroke="#000" stroke-miterlimit="10" stroke-width="3"/>
          <line id="直线_482" data-name="直线 482" y2="16.824" transform="translate(324.336 235.376)" fill="none" stroke="#000" stroke-miterlimit="10" stroke-width="3"/>
          <line id="直线_483" data-name="直线 483" y2="82.877" transform="translate(324.336 134.545)" fill="none" stroke="#000" stroke-miterlimit="10" stroke-width="3"/>
          <line id="直线_484" data-name="直线 484" x2="14.76" y2="8.522" transform="translate(292.842 65.816)" fill="none" stroke="#000" stroke-miterlimit="10" stroke-width="3"/>
          <line id="直线_485" data-name="直线 485" x2="72.021" y2="41.581" transform="translate(206.279 15.839)" fill="none" stroke="#000" stroke-miterlimit="10" stroke-width="3"/>
          <line id="直线_486" data-name="直线 486" y1="8.291" x2="14.36" transform="translate(131.131)" fill="none" stroke="#000" stroke-miterlimit="10" stroke-width="3" opacity="0.5"/>
          <line id="直线_487" data-name="直线 487" y1="41.224" x2="71.402" transform="translate(44.349 17.17)" fill="none" stroke="#000" stroke-miterlimit="10" stroke-width="3"/>
        </g>
        <path id="路径_38580" data-name="路径 38580" d="M1168.183-454.584l-61.941-35.762a25.41,25.41,0,0,1-12.705-22.007v-71.525a25.41,25.41,0,0,1,12.705-22.007l61.941-35.761a25.407,25.407,0,0,1,25.412,0l61.941,35.761a25.412,25.412,0,0,1,12.706,22.007v71.525a25.412,25.412,0,0,1-12.706,22.007l-61.941,35.762A25.413,25.413,0,0,1,1168.183-454.584Z" transform="translate(-277.502 731.103)" fill="none" stroke="#000" stroke-miterlimit="10" stroke-width="3"/>
        <path id="路径_38581" data-name="路径 38581" d="M1179.55-501.2l-11.514,6.647a25.756,25.756,0,0,1-2.492,1.263" transform="translate(-251.943 782.163)" fill="none" stroke="#000" stroke-miterlimit="10" stroke-width="3"/>
        <path id="路径_38582" data-name="路径 38582" d="M1245.692-539.016a25.417,25.417,0,0,1-11.963,15.9l-48.381,27.932" transform="translate(-244.914 768.74)" fill="none" stroke="#000" stroke-miterlimit="10" stroke-width="3"/>
        <line id="直线_488" data-name="直线 488" y2="15.751" transform="translate(1001.521 156.114)" fill="none" stroke="#000" stroke-miterlimit="10" stroke-width="3"/>
        <path id="路径_38583" data-name="路径 38583" d="M1190.822-638.194l40.964,23.652a25.408,25.408,0,0,1,12.705,22.007" transform="translate(-242.971 733.537)" fill="none" stroke="#000" stroke-miterlimit="10" stroke-width="3"/>
        <path id="路径_38584" data-name="路径 38584" d="M1141.4-645.793l9.8-5.66q.987-.569,2.009-1.043" transform="translate(-260.515 728.461)" fill="none" stroke="#000" stroke-miterlimit="10" stroke-width="3"/>
        <path id="路径_38585" data-name="路径 38585" d="M1086.423-598.847a25.41,25.41,0,0,1,11.563-14.468l49.078-28.336" transform="translate(-280.027 732.31)" fill="none" stroke="#000" stroke-miterlimit="10" stroke-width="3"/>
        <path id="路径_38587" data-name="路径 38587" d="M1006.642-454.15l51.553-92.369a25.409,25.409,0,0,1,21.82-13.025l32.868-.478" transform="translate(-308.344 761.284)" fill="none" stroke="#000" stroke-miterlimit="10" stroke-width="3"/>
        <path id="路径_38588" data-name="路径 38588" d="M1310-590l-11.883,26.319c-2.99,6.623-8.145,10.387-13.524,9.874l-4.273-.406" transform="translate(-190.893 750.645)" fill="none" stroke="#000" stroke-miterlimit="10" stroke-width="3"/>
        <path id="路径_38589" data-name="路径 38589" d="M1329.37-344.239l-16.242-26.171a25.411,25.411,0,0,0-22.4-12l-15.338.229" transform="translate(-212.954 824.322)" fill="none" stroke="#000" stroke-miterlimit="10" stroke-width="3"/>
        <path id="路径_38590" data-name="路径 38590" d="M1157.853-63.183,1110.43-90.564a25.412,25.412,0,0,1-12.707-22.007v-54.76a25.41,25.41,0,0,1,12.707-22.007l47.423-27.381a25.413,25.413,0,0,1,25.412,0l47.425,27.381a25.409,25.409,0,0,1,12.705,22.007v54.76a25.411,25.411,0,0,1-12.705,22.007l-47.425,27.381A25.413,25.413,0,0,1,1157.853-63.183Z" transform="translate(-276.016 881.929)" fill="none" stroke="#000" stroke-miterlimit="10" stroke-width="3"/>
        <path id="路径_38592" data-name="路径 38592" d="M1120.55-95.561l-16.971-9.8a25.416,25.416,0,0,1-12.705-22.008v-35.976" transform="translate(-278.447 902.082)" fill="none" stroke="#000" stroke-miterlimit="10" stroke-width="3"/>
        <path id="路径_38593" data-name="路径 38593" d="M1172.6-100.947l-10.7,6.18a25.448,25.448,0,0,1-3.979,1.859" transform="translate(-254.65 924.229)" fill="none" stroke="#000" stroke-miterlimit="10" stroke-width="3"/>
        <path id="路径_38594" data-name="路径 38594" d="M1223.06-151.51v19.943a25.414,25.414,0,0,1-12.707,22.008l-29.191,16.853" transform="translate(-246.4 906.282)" fill="none" stroke="#000" stroke-miterlimit="10" stroke-width="3"/>
        <path id="路径_38595" data-name="路径 38595" d="M1195.024-205.792l10.409,6.009a25.435,25.435,0,0,1,4.158,3" transform="translate(-241.48 887.015)" fill="none" stroke="#000" stroke-miterlimit="10" stroke-width="3"/>
        <path id="路径_38597" data-name="路径 38597" d="M562.612-422.758,511.14-452.474a25.411,25.411,0,0,1-12.705-22.007v-59.435a25.41,25.41,0,0,1,12.705-22.007l51.471-29.717a25.413,25.413,0,0,1,25.412,0l51.47,29.717A25.412,25.412,0,0,1,652.2-533.916v59.435a25.412,25.412,0,0,1-12.707,22.007l-51.47,29.717A25.414,25.414,0,0,1,562.612-422.758Z" transform="translate(-488.728 750.983)" fill="none" stroke="#000" stroke-miterlimit="10" stroke-width="3"/>
        <g id="组_21644" data-name="组 21644" transform="translate(0 150.731)">
          <path id="路径_38598" data-name="路径 38598" d="M491.271-537.949v-13.414a25.314,25.314,0,0,1,.369-4.313" transform="translate(-491.271 612.095)" fill="none" stroke="#000" stroke-miterlimit="10" stroke-width="3"/>
          <path id="路径_38599" data-name="路径 38599" d="M522.553-457.247l-18.576-10.724a25.413,25.413,0,0,1-12.705-22.007v-39.614" transform="translate(-491.271 621.353)" fill="none" stroke="#000" stroke-miterlimit="10" stroke-width="3"/>
          <line id="直线_489" data-name="直线 489" x1="12.539" y2="7.24" transform="translate(99.295 181.463)" fill="none" stroke="#000" stroke-miterlimit="10" stroke-width="3"/>
          <path id="路径_38600" data-name="路径 38600" d="M631.261-500.356a25.452,25.452,0,0,1-.365,4.288,25.419,25.419,0,0,1-12.342,17.719l-33.776,19.5" transform="translate(-458.081 631.731)" fill="none" stroke="#000" stroke-miterlimit="10" stroke-width="3"/>
          <path id="路径_38601" data-name="路径 38601" d="M601.06-573.727l11.715,6.764a25.517,25.517,0,0,1,3,2.033" transform="translate(-452.302 605.688)" fill="none" stroke="#000" stroke-miterlimit="10" stroke-width="3"/>
          <path id="路径_38602" data-name="路径 38602" d="M532.161-583.242l18.48-10.669a25.413,25.413,0,0,1,25.412,0l33.682,19.446" transform="translate(-476.757 597.316)" fill="none" stroke="#000" stroke-miterlimit="10" stroke-width="3"/>
        </g>
        <path id="路径_38603" data-name="路径 38603" d="M784.13-130.363,736.539-157.84a25.409,25.409,0,0,1-12.705-22.007V-234.8a25.411,25.411,0,0,1,12.705-22.007l47.591-27.477a25.414,25.414,0,0,1,25.412,0l47.591,27.477A25.411,25.411,0,0,1,869.839-234.8v54.954a25.409,25.409,0,0,1-12.705,22.007l-47.591,27.477A25.413,25.413,0,0,1,784.13-130.363Z" transform="translate(-408.725 857.947)" fill="none" stroke="#000" stroke-miterlimit="10" stroke-width="3"/>
        <path id="路径_38604" data-name="路径 38604" d="M856.246-197.36a25.408,25.408,0,0,1-10.913,12.629l-56.885,32.842a25.435,25.435,0,0,1-4.244,1.954" transform="translate(-387.297 890.008)" fill="none" stroke="#000" stroke-miterlimit="10" stroke-width="3"/>
        <path id="路径_38605" data-name="路径 38605" d="M821.241-273.667l10.946,6.321a25.412,25.412,0,0,1,12.707,22.007v56.569" transform="translate(-374.151 862.924)" fill="none" stroke="#000" stroke-miterlimit="10" stroke-width="3"/>
        <path id="路径_38606" data-name="路径 38606" d="M719.27-249.4a25.416,25.416,0,0,1,6.6-8.165,25.443,25.443,0,0,1,3.331-2.294l56.884-32.842a25.554,25.554,0,0,1,4.493-2.042" transform="translate(-410.345 855.441)" fill="none" stroke="#000" stroke-miterlimit="10" stroke-width="3"/>
        <path id="路径_38607" data-name="路径 38607" d="M740.3-161.8l-10.378-5.992A25.413,25.413,0,0,1,717.222-189.8v-55.3" transform="translate(-411.072 873.066)" fill="none" stroke="#000" stroke-miterlimit="10" stroke-width="3"/>
        <path id="路径_38608" data-name="路径 38608" d="M801.881-428.266l-69.77-40.283a25.409,25.409,0,0,1-12.705-22.007v-80.563a25.413,25.413,0,0,1,12.705-22.008l69.77-40.281a25.407,25.407,0,0,1,25.412,0l69.771,40.281a25.413,25.413,0,0,1,12.705,22.008v80.563a25.409,25.409,0,0,1-12.705,22.007l-69.771,40.283A25.414,25.414,0,0,1,801.881-428.266Z" transform="translate(-410.296 734.028)" fill="none" stroke="#000" stroke-miterlimit="10" stroke-width="3"/>
        <line id="直线_490" data-name="直线 490" y1="16.767" transform="translate(297.366 214.546)" fill="none" stroke="#000" stroke-miterlimit="10" stroke-width="3"/>
        <path id="路径_38609" data-name="路径 38609" d="M769.423-475.312l-45.979-26.546a25.411,25.411,0,0,1-12.705-22.007" transform="translate(-413.373 774.118)" fill="none" stroke="#000" stroke-miterlimit="10" stroke-width="3"/>
        <line id="直线_491" data-name="直线 491" x1="13.364" y2="7.715" transform="translate(416.997 311.606)" fill="none" stroke="#000" stroke-miterlimit="10" stroke-width="3"/>
        <line id="直线_492" data-name="直线 492" y2="16.429" transform="translate(511.217 174.914)" fill="none" stroke="#000" stroke-miterlimit="10" stroke-width="3"/>
        <path id="路径_38611" data-name="路径 38611" d="M825.669-628.929,871.091-602.7A25.412,25.412,0,0,1,883.8-580.7v2.356" transform="translate(-372.579 736.826)" fill="none" stroke="#000" stroke-miterlimit="10" stroke-width="3"/>
        <line id="直线_493" data-name="直线 493" y1="7.232" x2="12.526" transform="translate(379.059 87.059)" fill="none" stroke="#000" stroke-miterlimit="10" stroke-width="3"/>
        <path id="路径_38612" data-name="路径 38612" d="M711.649-587.054a25.4,25.4,0,0,1,11.472-14.186l55.105-31.815" transform="translate(-413.05 735.361)" fill="none" stroke="#000" stroke-miterlimit="10" stroke-width="3"/>
        <path id="路径_38613" data-name="路径 38613" d="M1372.351-532.955l-51.737-29.87a25.411,25.411,0,0,1-12.705-22.007v-59.741a25.412,25.412,0,0,1,12.705-22.008l51.737-29.87a25.413,25.413,0,0,1,25.412,0l51.737,29.87a25.412,25.412,0,0,1,12.705,22.008v59.741a25.41,25.41,0,0,1-12.705,22.007l-51.737,29.87A25.407,25.407,0,0,1,1372.351-532.955Z" transform="translate(-201.412 711.652)" fill="none" stroke="#000" stroke-miterlimit="10" stroke-width="3"/>
        <path id="路径_38614" data-name="路径 38614" d="M1329.118-684.711l35.413-20.446a25.418,25.418,0,0,1,22.385-1.489" transform="translate(-193.884 708.561)" fill="none" stroke="#000" stroke-miterlimit="10" stroke-width="3"/>
        <path id="路径_38615" data-name="路径 38615" d="M1300.6-602.032v-61.074q0-1.079.091-2.145" transform="translate(-204.005 723.934)" fill="none" stroke="#000" stroke-miterlimit="10" stroke-width="3"/>
        <path id="路径_38616" data-name="路径 38616" d="M1349.115-569.714l-35.888-20.721a25.411,25.411,0,0,1-12.388-18" transform="translate(-203.922 744.102)" fill="none" stroke="#000" stroke-miterlimit="10" stroke-width="3"/>
        <path id="路径_38617" data-name="路径 38617" d="M1427.84-591.61,1374.8-560.988a25.447,25.447,0,0,1-3.027,1.489" transform="translate(-178.743 750.072)" fill="none" stroke="#000" stroke-miterlimit="10" stroke-width="3"/>
        <path id="路径_38618" data-name="路径 38618" d="M1431.988-641.676v41.035a25.409,25.409,0,0,1-12.705,22.007" transform="translate(-161.881 732.302)" fill="none" stroke="#000" stroke-miterlimit="10" stroke-width="3"/>
        <path id="路径_38619" data-name="路径 38619" d="M1380.022-702.577l53.2,30.713a25.521,25.521,0,0,1,2.8,1.876" transform="translate(-175.816 710.685)" fill="none" stroke="#000" stroke-miterlimit="10" stroke-width="3"/>
        <path id="路径_38620" data-name="路径 38620" d="M1367.019-184.949,1305.1-220.7a25.41,25.41,0,0,1-12.707-22.007v-71.5a25.412,25.412,0,0,1,12.707-22.007l61.921-35.75a25.414,25.414,0,0,1,25.412,0l61.921,35.75a25.412,25.412,0,0,1,12.707,22.007v71.5a25.41,25.41,0,0,1-12.707,22.007l-61.921,35.75A25.407,25.407,0,0,1,1367.019-184.949Z" transform="translate(-206.92 826.826)" fill="none" stroke="#000" stroke-miterlimit="10" stroke-width="3"/>
        <path id="路径_38623" data-name="路径 38623" d="M1437.682-300.676v36.05a25.415,25.415,0,0,1-12.705,22.007l-21.469,12.395" transform="translate(-167.48 853.337)" fill="none" stroke="#000" stroke-miterlimit="10" stroke-width="3"/>
        <path id="路径_38624" data-name="路径 38624" d="M1393.159-366.481l35.49,20.489a25.558,25.558,0,0,1,2.438,1.6" transform="translate(-171.153 829.98)" fill="none" stroke="#000" stroke-miterlimit="10" stroke-width="3"/>
        <path id="路径_38625" data-name="路径 38625" d="M1324.258-362.629l31.8-18.361a25.413,25.413,0,0,1,25.412,0l21.491,12.407" transform="translate(-195.609 823.622)" fill="none" stroke="#000" stroke-miterlimit="10" stroke-width="3"/>
        <path id="路径_38626" data-name="路径 38626" d="M611.92-521.478h56.542a13.1,13.1,0,0,0,13.1-13.1v-24.163A16.936,16.936,0,0,1,698.5-575.676h59.061" transform="translate(-448.448 755.728)" fill="none" stroke="#000" stroke-miterlimit="10" stroke-width="3"/>
        <line id="直线_495" data-name="直线 495" x2="69.102" transform="translate(838.319 443.362)" fill="none" stroke="#000" stroke-miterlimit="10" stroke-width="3"/>
        <line id="直线_496" data-name="直线 496" x2="76.046" transform="translate(924.302 443.193)" fill="none" stroke="#000" stroke-miterlimit="10" stroke-width="3"/>
        <path id="路径_38628" data-name="路径 38628" d="M43.311,63.448" transform="translate(508.511 308.169)" fill="none" stroke="#000" stroke-width="3"/>
        <line id="直线_499" data-name="直线 499" y2="15.356" transform="translate(806.397 193.262)" fill="none" stroke="#000" stroke-miterlimit="10" stroke-width="3"/>
        <line id="直线_501" data-name="直线 501" x2="38.656" y2="59.054" transform="translate(729.206 623.681)" fill="none" stroke="#000" stroke-miterlimit="10" stroke-width="3"/>
        <line id="直线_502" data-name="直线 502" x1="42.491" y2="63.049" transform="translate(540.853 603.371)" fill="none" stroke="#000" stroke-miterlimit="10" stroke-width="3"/>
        <path id="路径_38627" data-name="路径 38627" d="M831.02-202.357h57.422s8.581.595,13.1-4.486" transform="translate(-370.68 886.642)" fill="none" stroke="#000" stroke-miterlimit="10" stroke-width="3"/>
      </g>
    </g>
  </g>
</svg>
