<svg xmlns="http://www.w3.org/2000/svg" xmlns:xlink="http://www.w3.org/1999/xlink" width="1820" height="880" viewBox="0 0 1820 880">
  <defs>
    <clipPath id="clip-path">
      <rect id="矩形_2278" data-name="矩形 2278" width="1820" height="880" transform="translate(50 82)" fill="#fff"/>
    </clipPath>
  </defs>
  <g id="banner" transform="translate(-50 -88)">
    <g id="组_21710" data-name="组 21710" transform="translate(0 32)">
      <path id="路径_41050" data-name="路径 41050" d="M17.524,101.612c9.256,0,15.34-6.344,15.34-15.964s-5.98-15.756-15.392-15.756c-9.464,0-15.5,6.188-15.5,15.86C1.976,95.476,8.008,101.612,17.524,101.612ZM17.472,75.3c5.512,0,8.684,3.848,8.684,10.556,0,6.344-3.328,10.244-8.736,10.244S8.684,92.148,8.684,85.752C8.684,79.252,12.012,75.3,17.472,75.3ZM44.98,100.624V98.076c0-.624,0-1.2-.052-1.872,2.6,3.64,5.564,5.148,10.348,5.148q6.318,0,9.984-3.744c2.808-2.912,4.264-7.072,4.264-12.168,0-9.672-5.148-15.34-13.884-15.34-4.784,0-8.008,1.612-10.712,5.252.052-1.768.1-3.068.1-3.9v-5.2a53,53,0,0,1,.364-7.02H38.064a60.638,60.638,0,0,1,.364,6.968V93.6a54.586,54.586,0,0,1-.364,7.02ZM62.764,85.44c0,6.292-3.38,10.348-8.632,10.348a9.059,9.059,0,0,1-5.46-1.924c-2.08-1.664-3.432-4.94-3.432-8.216a11.2,11.2,0,0,1,2.548-7.228,9.279,9.279,0,0,1,7.072-2.86C59.644,75.56,62.764,79.46,62.764,85.44Zm15.5-22.672a59.852,59.852,0,0,1,.364,6.4v1.612H76.7a23.884,23.884,0,0,1-4.68-.312V76.6a26.258,26.258,0,0,1,4.628-.312h1.976V93.76c0,5.46,2.392,7.592,8.372,7.592a16.272,16.272,0,0,0,6.5-1.092l-.936-5.512a6.878,6.878,0,0,1-3.8,1.144c-2.5,0-3.432-.936-3.432-3.484V76.288h2.34a28.67,28.67,0,0,1,5.1.312V70.464a29.875,29.875,0,0,1-5.252.312H85.332V69.164a57.516,57.516,0,0,1,.364-6.4Zm47.06,24.648c-.1-1.2-.1-1.352-.1-1.456a21.377,21.377,0,0,0-1.508-7.9c-2.08-5.2-6.864-8.216-12.948-8.216-8.892,0-14.664,6.292-14.664,15.912,0,9.724,5.824,15.86,15.028,15.86a14.767,14.767,0,0,0,10.712-4,14.614,14.614,0,0,0,3.172-4.784l-6.136-1.976a7.558,7.558,0,0,1-1.508,2.7,8.748,8.748,0,0,1-12.74-.312c-1.2-1.508-1.664-2.964-1.924-5.824Zm-22.464-5.148c.78-4.368,3.744-7.072,7.8-7.072a7.416,7.416,0,0,1,5.616,2.08,8.162,8.162,0,0,1,2.288,4.992Zm35.1,18.356a46.265,46.265,0,0,1-.416-6.76V83.36c2.288-5.148,5.356-7.748,9.1-7.748a4.891,4.891,0,0,1,4.368,2.132,8.542,8.542,0,0,1,.884,4.576V93.864a55.26,55.26,0,0,1-.364,6.76h7.54a41.093,41.093,0,0,1-.416-6.76V81.384c0-3.484-.52-5.564-1.768-7.28-1.872-2.548-4.836-3.848-8.84-3.848-4.68,0-7.436,1.456-10.608,5.512a20.317,20.317,0,0,0,.1-2.236V70.776h-7.072a42.739,42.739,0,0,1,.416,6.76V93.864a43.162,43.162,0,0,1-.416,6.76Zm27.56-41.392a48.662,48.662,0,0,1,.364,6.812v27.82a42.739,42.739,0,0,1-.416,6.76h7.488a46.265,46.265,0,0,1-.416-6.76V83.36c2.34-5.2,5.356-7.7,9.256-7.7a4.828,4.828,0,0,1,3.588,1.508c.988,1.04,1.508,2.756,1.508,5.148V93.864a55.26,55.26,0,0,1-.364,6.76h7.54a41.093,41.093,0,0,1-.416-6.76V80.76c0-6.708-3.8-10.5-10.452-10.5-4.732,0-7.54,1.456-10.764,5.512a21.327,21.327,0,0,0,.1-2.236V66.1a49.974,49.974,0,0,1,.364-6.864Zm54.7,41.392h7.02a41.823,41.823,0,0,1-.416-6.5V80.136c0-3.536-.676-5.512-2.444-7.176-2.236-2.184-5.252-3.068-10.244-3.068-4.472,0-7.384.78-9.932,2.652-1.976,1.4-2.912,2.756-4.108,5.772l6.656,1.2c.624-1.872,1.092-2.6,2.08-3.328a9.381,9.381,0,0,1,5.408-1.508c3.952,0,5.98,1.56,5.98,4.576V81.9c-7.436.156-11.284.676-14.664,2.08a9.225,9.225,0,0,0-5.876,8.424c0,5.46,3.848,8.736,10.192,8.736a18.4,18.4,0,0,0,4.836-.624,11.276,11.276,0,0,0,5.512-3.276Zm0-11.6a6.2,6.2,0,0,1-1.872,4.576,10.559,10.559,0,0,1-7.228,2.756c-2.912,0-4.732-1.508-4.732-3.952,0-4.056,3.9-5.772,13.832-5.98Zm50.284,11.6h7.02a41.821,41.821,0,0,1-.416-6.5V80.136c0-3.536-.676-5.512-2.444-7.176-2.236-2.184-5.252-3.068-10.244-3.068-4.472,0-7.384.78-9.932,2.652-1.976,1.4-2.912,2.756-4.108,5.772l6.656,1.2c.624-1.872,1.092-2.6,2.08-3.328a9.381,9.381,0,0,1,5.408-1.508c3.952,0,5.98,1.56,5.98,4.576V81.9c-7.436.156-11.284.676-14.664,2.08a9.225,9.225,0,0,0-5.876,8.424c0,5.46,3.848,8.736,10.192,8.736a18.4,18.4,0,0,0,4.836-.624,11.276,11.276,0,0,0,5.512-3.276Zm0-11.6a6.2,6.2,0,0,1-1.872,4.576A10.559,10.559,0,0,1,261.4,96.36c-2.912,0-4.732-1.508-4.732-3.952,0-4.056,3.9-5.772,13.832-5.98ZM285.48,70.776a40.3,40.3,0,0,1,.416,6.76v24.492c0,2.444-1.04,3.588-3.224,3.588-1.716,0-2.86-.832-3.8-2.6l-5.928,3.432a9.557,9.557,0,0,0,3.068,2.808,12.734,12.734,0,0,0,6.448,1.56,12.524,12.524,0,0,0,7.228-1.976c2.028-1.508,2.964-3.64,2.964-6.708v-24.6a42.975,42.975,0,0,1,.364-6.76Zm0-11.544v6.6h7.644v-6.6Zm35.308,11.544a54.859,54.859,0,0,1,.416,6.76v10.5c-2.34,5.148-5.3,7.7-9.048,7.7a6.47,6.47,0,0,1-2.86-.728c-1.612-.988-2.392-2.912-2.392-5.928V77.536a46.54,46.54,0,0,1,.364-6.76h-7.54a47.794,47.794,0,0,1,.416,6.76V90.692c0,4.264,1.352,7.176,4.212,9a11.328,11.328,0,0,0,6.24,1.508c4.94,0,7.8-1.508,10.66-5.564-.052,1.3-.052,1.456-.052,2.236v2.756h7.072a42.738,42.738,0,0,1-.416-6.76V77.536a37.647,37.647,0,0,1,.416-6.76Zm37.336,29.848h6.916a54.585,54.585,0,0,1-.364-7.02V66.2a60.637,60.637,0,0,1,.364-6.968h-7.332a53,53,0,0,1,.364,7.02v5.2c0,.884,0,1.872.052,2.236.052,1.04.052,1.04.052,1.664a13.242,13.242,0,0,0-2.652-2.86,12.343,12.343,0,0,0-7.9-2.392c-8.58,0-14.04,6.032-14.04,15.548,0,5.616,1.924,10.348,5.408,13.052a13.221,13.221,0,0,0,8.684,2.652c5.044,0,7.8-1.352,10.5-5.148-.052.676-.052,1.248-.052,1.872ZM340.34,85.7c0-6.188,3.224-10.14,8.268-10.14a9.52,9.52,0,0,1,6.76,2.912,10.8,10.8,0,0,1,2.5,6.916,11.763,11.763,0,0,1-2.028,6.968,8.7,8.7,0,0,1-6.968,3.432C343.668,95.788,340.34,91.888,340.34,85.7Zm50.96,14.924h7.02a41.821,41.821,0,0,1-.416-6.5V80.136c0-3.536-.676-5.512-2.444-7.176-2.236-2.184-5.252-3.068-10.244-3.068-4.472,0-7.384.78-9.932,2.652-1.976,1.4-2.912,2.756-4.108,5.772l6.656,1.2c.624-1.872,1.092-2.6,2.08-3.328a9.381,9.381,0,0,1,5.408-1.508c3.952,0,5.98,1.56,5.98,4.576V81.9c-7.436.156-11.284.676-14.664,2.08a9.225,9.225,0,0,0-5.876,8.424c0,5.46,3.848,8.736,10.192,8.736a18.4,18.4,0,0,0,4.836-.624,11.276,11.276,0,0,0,5.512-3.276Zm0-11.6a6.2,6.2,0,0,1-1.872,4.576A10.559,10.559,0,0,1,382.2,96.36c-2.912,0-4.732-1.508-4.732-3.952,0-4.056,3.9-5.772,13.832-5.98Zm37.44-18.252h-6.916a53.724,53.724,0,0,1,.364,6.968V103.9a58.212,58.212,0,0,1-.364,6.864h7.332a51.824,51.824,0,0,1-.364-6.916V99.9c0-.936,0-1.872-.052-2.236-.052-1.04-.052-1.04-.052-1.664,2.5,3.38,5.928,4.992,10.5,4.992,8.84,0,14.092-5.772,14.092-15.34,0-5.252-1.352-9.152-4.108-11.96-2.392-2.392-5.72-3.64-9.88-3.64-4.68,0-7.748,1.456-10.608,5.1.052-.676.052-1.248.052-1.82Zm17.784,14.768c0,6.136-3.172,9.984-8.268,9.984-5.408,0-9.256-4.16-9.256-10.088,0-5.564,3.9-9.828,9.048-9.828C443.3,75.612,446.524,79.408,446.524,85.544Zm40.092,1.872c-.1-1.2-.1-1.352-.1-1.456a21.377,21.377,0,0,0-1.508-7.9c-2.08-5.2-6.864-8.216-12.948-8.216-8.892,0-14.664,6.292-14.664,15.912,0,9.724,5.824,15.86,15.028,15.86a14.767,14.767,0,0,0,10.712-4,14.614,14.614,0,0,0,3.172-4.784l-6.136-1.976a7.558,7.558,0,0,1-1.508,2.7,8.748,8.748,0,0,1-12.74-.312c-1.2-1.508-1.664-2.964-1.924-5.824Zm-22.464-5.148c.78-4.368,3.744-7.072,7.8-7.072a7.416,7.416,0,0,1,5.616,2.08,8.162,8.162,0,0,1,2.288,4.992Zm49.4-11.492a26.961,26.961,0,0,0-4.836-.572c-4.68,0-7.9,1.768-9.776,5.46V70.776h-7.072a41.11,41.11,0,0,1,.364,6.76V93.864a57.034,57.034,0,0,1-.364,6.76H499.3a54.685,54.685,0,0,1-.364-6.76v-9.62a8.37,8.37,0,0,1,2.132-5.2A7.422,7.422,0,0,1,507.1,76.5a15.528,15.528,0,0,1,4.628.832Zm2.5,21.372a11.7,11.7,0,0,0,2.028,4.628c2.236,3.016,6.24,4.628,11.6,4.628,4.732,0,8.372-1.144,10.764-3.38a8.361,8.361,0,0,0,2.548-5.876,7.39,7.39,0,0,0-3.016-6.448c-1.716-1.3-3.848-2.028-9.152-3.172a21.9,21.9,0,0,1-5.2-1.56A2.8,2.8,0,0,1,524,78.524c0-2.184,2.184-3.64,5.408-3.64,3.38,0,5.148,1.248,5.72,4.108L542,78.108a10.123,10.123,0,0,0-2.808-5.148c-2.132-1.976-5.512-3.016-9.776-3.016-4.732,0-8.268,1.352-10.4,4.056a7.737,7.737,0,0,0-1.612,4.836,7.446,7.446,0,0,0,4.576,6.916,31.435,31.435,0,0,0,7.488,2.236c4.16.936,4.472.988,5.46,1.664a3.179,3.179,0,0,1,1.352,2.6c0,2.444-2.392,3.952-6.24,3.952-4.056,0-5.98-1.4-6.864-4.94Zm46.436,9.464c9.256,0,15.34-6.344,15.34-15.964s-5.98-15.756-15.392-15.756c-9.464,0-15.5,6.188-15.5,15.86C546.936,95.476,552.968,101.612,562.484,101.612ZM562.432,75.3c5.512,0,8.684,3.848,8.684,10.556,0,6.344-3.328,10.244-8.736,10.244s-8.736-3.952-8.736-10.348C553.644,79.252,556.972,75.3,562.432,75.3Zm28.08,25.324a46.274,46.274,0,0,1-.416-6.76V83.36c2.288-5.148,5.356-7.748,9.1-7.748a4.891,4.891,0,0,1,4.368,2.132,8.542,8.542,0,0,1,.884,4.576V93.864a55.26,55.26,0,0,1-.364,6.76h7.54a41.1,41.1,0,0,1-.416-6.76V81.384c0-3.484-.52-5.564-1.768-7.28-1.872-2.548-4.836-3.848-8.84-3.848-4.68,0-7.436,1.456-10.608,5.512a20.317,20.317,0,0,0,.1-2.236V70.776h-7.072a42.737,42.737,0,0,1,.416,6.76V93.864a43.16,43.16,0,0,1-.416,6.76Zm47.268,0h7.02a41.821,41.821,0,0,1-.416-6.5V80.136c0-3.536-.676-5.512-2.444-7.176-2.236-2.184-5.252-3.068-10.244-3.068-4.472,0-7.384.78-9.932,2.652-1.976,1.4-2.912,2.756-4.108,5.772l6.656,1.2c.624-1.872,1.092-2.6,2.08-3.328a9.381,9.381,0,0,1,5.408-1.508c3.952,0,5.98,1.56,5.98,4.576V81.9c-7.436.156-11.284.676-14.664,2.08a9.225,9.225,0,0,0-5.876,8.424c0,5.46,3.848,8.736,10.192,8.736a18.4,18.4,0,0,0,4.836-.624,11.276,11.276,0,0,0,5.512-3.276Zm0-11.6a6.2,6.2,0,0,1-1.872,4.576,10.559,10.559,0,0,1-7.228,2.756c-2.912,0-4.732-1.508-4.732-3.952,0-4.056,3.9-5.772,13.832-5.98Zm13.208-29.8a46.888,46.888,0,0,1,.364,6.76V93.864a50.35,50.35,0,0,1-.364,6.76h7.54a53.571,53.571,0,0,1-.364-6.76V66.044a48.182,48.182,0,0,1,.364-6.812Zm14.092,0v6.6h7.644v-6.6Zm0,11.544a42.737,42.737,0,0,1,.416,6.76V93.864a46.731,46.731,0,0,1-.416,6.76h7.592a52.247,52.247,0,0,1-.364-6.812V77.588a46.749,46.749,0,0,1,.364-6.812Zm37.544,23.608a48.662,48.662,0,0,1-6.812.364h-6.656c-.832,0-1.976,0-3.12.052.832-.988.832-.988,1.144-1.4.416-.468.52-.52.624-.728l9.828-12.428c1.04-1.3,2.392-2.808,3.952-4.472V70.62a58.1,58.1,0,0,1-6.292.156H685.2a54.689,54.689,0,0,1-6.76-.364v6.5a51.4,51.4,0,0,1,6.76-.364h5.3a17.909,17.909,0,0,0,1.872-.052h.468a20.809,20.809,0,0,0-1.456,1.664L681.356,90.848a37.8,37.8,0,0,1-3.952,4.42v5.512c1.56-.1,2.7-.156,6.4-.156h11.96a49.478,49.478,0,0,1,6.864.364Zm24.44,6.24h7.02a41.821,41.821,0,0,1-.416-6.5V80.136c0-3.536-.676-5.512-2.444-7.176-2.236-2.184-5.252-3.068-10.244-3.068-4.472,0-7.384.78-9.932,2.652-1.976,1.4-2.912,2.756-4.108,5.772l6.656,1.2c.624-1.872,1.092-2.6,2.08-3.328a9.381,9.381,0,0,1,5.408-1.508c3.952,0,5.98,1.56,5.98,4.576V81.9c-7.436.156-11.284.676-14.664,2.08a9.225,9.225,0,0,0-5.876,8.424c0,5.46,3.848,8.736,10.192,8.736a18.4,18.4,0,0,0,4.836-.624,11.276,11.276,0,0,0,5.512-3.276Zm0-11.6a6.2,6.2,0,0,1-1.872,4.576,10.559,10.559,0,0,1-7.228,2.756c-2.912,0-4.732-1.508-4.732-3.952,0-4.056,3.9-5.772,13.832-5.98Zm36.556,11.6h6.916a54.6,54.6,0,0,1-.364-7.02V66.2a60.651,60.651,0,0,1,.364-6.968H763.2a53,53,0,0,1,.364,7.02v5.2c0,.884,0,1.872.052,2.236.052,1.04.052,1.04.052,1.664a13.242,13.242,0,0,0-2.652-2.86,12.343,12.343,0,0,0-7.9-2.392c-8.58,0-14.04,6.032-14.04,15.548,0,5.616,1.924,10.348,5.408,13.052a13.221,13.221,0,0,0,8.684,2.652c5.044,0,7.8-1.352,10.5-5.148-.052.676-.052,1.248-.052,1.872ZM745.836,85.7c0-6.188,3.224-10.14,8.268-10.14a9.52,9.52,0,0,1,6.76,2.912,10.8,10.8,0,0,1,2.5,6.916,11.763,11.763,0,0,1-2.028,6.968,8.7,8.7,0,0,1-6.968,3.432C749.164,95.788,745.836,91.888,745.836,85.7Zm50.96,14.924h7.02a41.821,41.821,0,0,1-.416-6.5V80.136c0-3.536-.676-5.512-2.444-7.176-2.236-2.184-5.252-3.068-10.244-3.068-4.472,0-7.384.78-9.932,2.652-1.976,1.4-2.912,2.756-4.108,5.772l6.656,1.2c.624-1.872,1.092-2.6,2.08-3.328a9.381,9.381,0,0,1,5.408-1.508c3.952,0,5.98,1.56,5.98,4.576V81.9c-7.436.156-11.284.676-14.664,2.08a9.225,9.225,0,0,0-5.876,8.424c0,5.46,3.848,8.736,10.192,8.736a18.4,18.4,0,0,0,4.836-.624,11.276,11.276,0,0,0,5.512-3.276Zm0-11.6a6.2,6.2,0,0,1-1.872,4.576A10.559,10.559,0,0,1,787.7,96.36c-2.912,0-4.732-1.508-4.732-3.952,0-4.056,3.9-5.772,13.832-5.98Z" transform="translate(180 452)"/>
      <path id="路径_41049" data-name="路径 41049" d="M5-9.6a4.159,4.159,0,0,0-3.1,1.2A5.137,5.137,0,0,0,.54-4.656c0,3.048,1.752,5,4.476,5S9.5-1.62,9.5-4.656A5.175,5.175,0,0,0,8.16-8.4,4.205,4.205,0,0,0,5-9.6ZM5.04-1.08a2.591,2.591,0,0,1-1.86-.732,3.965,3.965,0,0,1-.972-2.832c0-2.172,1.092-3.54,2.82-3.54a2.583,2.583,0,0,1,1.848.732,3.876,3.876,0,0,1,.948,2.8C7.824-2.448,6.756-1.08,5.04-1.08ZM36.576-9.408a9.767,9.767,0,0,1,.1,1.644V-3.54a2.191,2.191,0,0,1-2.436,2.484,2.2,2.2,0,0,1-2.46-2.472V-7.764a9.41,9.41,0,0,1,.1-1.644H30.084a9.858,9.858,0,0,1,.1,1.644v4.236a3.865,3.865,0,0,0,.9,2.76A4.134,4.134,0,0,0,34.176.36c2.616,0,4.092-1.392,4.092-3.876v-4.26a9.7,9.7,0,0,1,.1-1.632ZM67.332.144c-.168-.324-.468-.972-.564-1.188C65.58-3.852,65.352-4.188,64.6-4.428a2.537,2.537,0,0,0,1.332-.7,2.467,2.467,0,0,0,.612-1.788c0-1.584-1.044-2.5-2.868-2.5h-2.88c-.66,0-1.032-.012-1.536-.036a10.677,10.677,0,0,1,.1,1.56v6.468a9.391,9.391,0,0,1-.1,1.56h1.788a9.364,9.364,0,0,1-.1-1.572V-3.876h1.788c.924,0,1.344.444,1.992,2.1a9.714,9.714,0,0,1,.624,1.92ZM60.948-5.244v-2.8h2.46c.984,0,1.476.444,1.476,1.308A1.424,1.424,0,0,1,64.5-5.676a1.617,1.617,0,0,1-1.14.432ZM116.7.144a9.771,9.771,0,0,1,.528-1.6l1.8-4.224a14.644,14.644,0,0,0,.552-1.752c-.012.18-.048.792-.1,1.836v3.984a11.156,11.156,0,0,1-.1,1.752h1.68a10.4,10.4,0,0,1-.1-1.752V-7.632a12.427,12.427,0,0,1,.1-1.776H118.86a6.65,6.65,0,0,1-.432,1.428L116-2.028,113.568-7.98a8.305,8.305,0,0,1-.444-1.428h-2.2a11.9,11.9,0,0,1,.1,1.776v6.024a11.254,11.254,0,0,1-.1,1.752h1.68a10.964,10.964,0,0,1-.1-1.752V-5.544c0-.264-.048-1.248-.1-1.884a13.354,13.354,0,0,0,.612,1.836l1.728,4.116a8.169,8.169,0,0,1,.528,1.62Zm25.272-9.552a8.966,8.966,0,0,1,.1,1.548V-1.4a9.055,9.055,0,0,1-.1,1.548H143.8a9.055,9.055,0,0,1-.1-1.548V-7.86a8.966,8.966,0,0,1,.1-1.548Zm22.4,6.756a4.1,4.1,0,0,0,.228,1A2.825,2.825,0,0,0,165.66-.288a4.825,4.825,0,0,0,2.52.624,3.977,3.977,0,0,0,2.868-.912,2.792,2.792,0,0,0,.756-2.04,2.368,2.368,0,0,0-1-2.064,5.283,5.283,0,0,0-1.956-.732,10.216,10.216,0,0,1-1.692-.432,1.141,1.141,0,0,1-.816-1.092c0-.78.708-1.308,1.752-1.308a1.9,1.9,0,0,1,1.5.576,1.55,1.55,0,0,1,.36.852l1.716-.2a3.235,3.235,0,0,0-.588-1.392A3.537,3.537,0,0,0,168.1-9.624c-2.064,0-3.408,1.08-3.408,2.748a2.362,2.362,0,0,0,.924,1.944,4.242,4.242,0,0,0,1.812.732,7.566,7.566,0,0,1,2.088.588,1.218,1.218,0,0,1,.6,1.1c0,.9-.72,1.44-1.92,1.44a2.13,2.13,0,0,1-1.752-.708,1.72,1.72,0,0,1-.336-1.056Zm27.78,0a4.1,4.1,0,0,0,.228,1A2.825,2.825,0,0,0,193.44-.288a4.825,4.825,0,0,0,2.52.624,3.977,3.977,0,0,0,2.868-.912,2.792,2.792,0,0,0,.756-2.04,2.368,2.368,0,0,0-1-2.064,5.283,5.283,0,0,0-1.956-.732,10.216,10.216,0,0,1-1.692-.432,1.141,1.141,0,0,1-.816-1.092c0-.78.708-1.308,1.752-1.308a1.9,1.9,0,0,1,1.5.576,1.55,1.55,0,0,1,.36.852l1.716-.2a3.235,3.235,0,0,0-.588-1.392,3.537,3.537,0,0,0-2.988-1.212c-2.064,0-3.408,1.08-3.408,2.748a2.362,2.362,0,0,0,.924,1.944A4.242,4.242,0,0,0,195.2-4.2a7.566,7.566,0,0,1,2.088.588,1.218,1.218,0,0,1,.6,1.1c0,.9-.72,1.44-1.92,1.44a2.13,2.13,0,0,1-1.752-.708,1.72,1.72,0,0,1-.336-1.056Zm28.092-6.756a8.966,8.966,0,0,1,.1,1.548V-1.4a9.055,9.055,0,0,1-.1,1.548h1.824a9.055,9.055,0,0,1-.1-1.548V-7.86a8.966,8.966,0,0,1,.1-1.548ZM247.116-9.6a4.159,4.159,0,0,0-3.1,1.2,5.137,5.137,0,0,0-1.368,3.744c0,3.048,1.752,5,4.476,5s4.488-1.968,4.488-5A5.175,5.175,0,0,0,250.272-8.4,4.205,4.205,0,0,0,247.116-9.6Zm.036,8.52a2.591,2.591,0,0,1-1.86-.732,3.965,3.965,0,0,1-.972-2.832c0-2.172,1.092-3.54,2.82-3.54a2.583,2.583,0,0,1,1.848.732,3.876,3.876,0,0,1,.948,2.8C249.936-2.448,248.868-1.08,247.152-1.08ZM280.368.144a9.055,9.055,0,0,1-.1-1.548V-7.752a10.493,10.493,0,0,1,.1-1.656h-1.752a10.489,10.489,0,0,1,.1,1.656V-3.72c0,.5.036,1.224.084,1.692-.264-.48-.648-1.1-.936-1.536l-3.036-4.572a6.582,6.582,0,0,1-.732-1.272H272.22a9.993,9.993,0,0,1,.1,1.548v6.192a12.983,12.983,0,0,1-.1,1.812h1.752a13.282,13.282,0,0,1-.1-1.8V-5.592c0-.276-.024-.816-.036-1.044-.036-.444-.036-.444-.048-.612.288.564.588,1.08.816,1.44l3.1,4.668a11.958,11.958,0,0,1,.768,1.284Z" transform="translate(180 350)"/>
      <path id="路径_41051" data-name="路径 41051" d="M37.6-15.5a43.6,43.6,0,0,1,.364-6.448c-2.236.156-3.744.208-6.136.208h-2.7a38.808,38.808,0,0,1-6.24-.312v6.708a28.466,28.466,0,0,1,5.3-.312h2.808v8.476a15.518,15.518,0,0,1-8.84,2.34c-4.108,0-6.916-1.092-9.048-3.588-2.34-2.756-3.536-6.812-3.536-12.168,0-5.3,1.248-9.152,3.848-11.856a10.988,10.988,0,0,1,7.9-3.172c5.356,0,7.852,1.664,9.568,6.4l7.124-1.924a14.658,14.658,0,0,0-3.848-6.188A16.984,16.984,0,0,0,22.2-41.808c-4.784,0-8.32.936-11.544,3.068C5.252-35.1,2.34-28.756,2.34-20.488,2.34-14.04,4.056-8.424,7.228-4.68,10.5-.728,15.5,1.3,22,1.3A30.793,30.793,0,0,0,29.64.312a32.976,32.976,0,0,0,8.32-3.588,42.977,42.977,0,0,1-.364-6.76ZM65.312-29.224a54.861,54.861,0,0,1,.416,6.76v10.5c-2.34,5.148-5.3,7.7-9.048,7.7a6.47,6.47,0,0,1-2.86-.728C52.208-5.98,51.428-7.9,51.428-10.92V-22.464a46.541,46.541,0,0,1,.364-6.76h-7.54a47.8,47.8,0,0,1,.416,6.76V-9.308c0,4.264,1.352,7.176,4.212,9A11.328,11.328,0,0,0,55.12,1.2c4.94,0,7.8-1.508,10.66-5.564-.052,1.3-.052,1.456-.052,2.236V.624H72.8a42.739,42.739,0,0,1-.416-6.76V-22.464a37.649,37.649,0,0,1,.416-6.76ZM79.3-40.768v6.6h7.644v-6.6Zm0,11.544a42.738,42.738,0,0,1,.416,6.76V-6.136A46.733,46.733,0,0,1,79.3.624h7.592a52.237,52.237,0,0,1-.364-6.812V-22.412a46.741,46.741,0,0,1,.364-6.812ZM113.152.624h7.02a41.822,41.822,0,0,1-.416-6.5V-19.864c0-3.536-.676-5.512-2.444-7.176-2.236-2.184-5.252-3.068-10.244-3.068-4.472,0-7.384.78-9.932,2.652-1.976,1.4-2.912,2.756-4.108,5.772l6.656,1.2c.624-1.872,1.092-2.6,2.08-3.328a9.381,9.381,0,0,1,5.408-1.508c3.952,0,5.98,1.56,5.98,4.576V-18.1c-7.436.156-11.284.676-14.664,2.08a9.225,9.225,0,0,0-5.876,8.424c0,5.46,3.848,8.736,10.192,8.736A18.4,18.4,0,0,0,107.64.52a11.276,11.276,0,0,0,5.512-3.276Zm0-11.6A6.2,6.2,0,0,1,111.28-6.4a10.559,10.559,0,0,1-7.228,2.756c-2.912,0-4.732-1.508-4.732-3.952,0-4.056,3.9-5.772,13.832-5.98Zm37.44-18.252h-6.916a53.727,53.727,0,0,1,.364,6.968V3.9a58.215,58.215,0,0,1-.364,6.864h7.332a51.827,51.827,0,0,1-.364-6.916V-.1c0-.936,0-1.872-.052-2.236-.052-1.04-.052-1.04-.052-1.664,2.5,3.38,5.928,4.992,10.5,4.992,8.84,0,14.092-5.772,14.092-15.34,0-5.252-1.352-9.152-4.108-11.96-2.392-2.392-5.72-3.64-9.88-3.64-4.68,0-7.748,1.456-10.608,5.1.052-.676.052-1.248.052-1.82Zm17.784,14.768c0,6.136-3.172,9.984-8.268,9.984-5.408,0-9.256-4.16-9.256-10.088,0-5.564,3.9-9.828,9.048-9.828C165.152-24.388,168.376-20.592,168.376-14.456ZM200.252.624h7.02a41.823,41.823,0,0,1-.416-6.5V-19.864c0-3.536-.676-5.512-2.444-7.176-2.236-2.184-5.252-3.068-10.244-3.068-4.472,0-7.384.78-9.932,2.652-1.976,1.4-2.912,2.756-4.108,5.772l6.656,1.2c.624-1.872,1.092-2.6,2.08-3.328a9.381,9.381,0,0,1,5.408-1.508c3.952,0,5.98,1.56,5.98,4.576V-18.1c-7.436.156-11.284.676-14.664,2.08a9.225,9.225,0,0,0-5.876,8.424c0,5.46,3.848,8.736,10.192,8.736A18.4,18.4,0,0,0,194.74.52a11.276,11.276,0,0,0,5.512-3.276Zm0-11.6A6.2,6.2,0,0,1,198.38-6.4a10.559,10.559,0,0,1-7.228,2.756c-2.912,0-4.732-1.508-4.732-3.952,0-4.056,3.9-5.772,13.832-5.98Zm35-18.252a26.962,26.962,0,0,0-4.836-.572c-4.68,0-7.9,1.768-9.776,5.46v-4.888h-7.072a41.111,41.111,0,0,1,.364,6.76V-6.136a57.037,57.037,0,0,1-.364,6.76H221a54.685,54.685,0,0,1-.364-6.76v-9.62a8.37,8.37,0,0,1,2.132-5.2A7.422,7.422,0,0,1,228.8-23.5a15.529,15.529,0,0,1,4.628.832ZM258.8.624h7.02a41.825,41.825,0,0,1-.416-6.5V-19.864c0-3.536-.676-5.512-2.444-7.176-2.236-2.184-5.252-3.068-10.244-3.068-4.472,0-7.384.78-9.932,2.652-1.976,1.4-2.912,2.756-4.108,5.772l6.656,1.2c.624-1.872,1.092-2.6,2.08-3.328a9.381,9.381,0,0,1,5.408-1.508c3.952,0,5.98,1.56,5.98,4.576V-18.1c-7.436.156-11.284.676-14.664,2.08a9.225,9.225,0,0,0-5.876,8.424c0,5.46,3.848,8.736,10.192,8.736A18.4,18.4,0,0,0,253.292.52,11.276,11.276,0,0,0,258.8-2.756Zm0-11.6A6.2,6.2,0,0,1,256.932-6.4,10.559,10.559,0,0,1,249.7-3.64c-2.912,0-4.732-1.508-4.732-3.952,0-4.056,3.9-5.772,13.832-5.98Zm30.524-29.8v6.6h7.644v-6.6Zm0,11.544a42.737,42.737,0,0,1,.416,6.76V-6.136a46.731,46.731,0,0,1-.416,6.76h7.592a52.235,52.235,0,0,1-.364-6.812V-22.412a46.739,46.739,0,0,1,.364-6.812ZM310.908.624a46.265,46.265,0,0,1-.416-6.76v-10.5c2.288-5.148,5.356-7.748,9.1-7.748a4.891,4.891,0,0,1,4.368,2.132,8.542,8.542,0,0,1,.884,4.576V-6.136a55.26,55.26,0,0,1-.364,6.76h7.54a41.091,41.091,0,0,1-.416-6.76v-12.48c0-3.484-.52-5.564-1.768-7.28-1.872-2.548-4.836-3.848-8.84-3.848-4.68,0-7.436,1.456-10.608,5.512a20.317,20.317,0,0,0,.1-2.236v-2.756H303.42a42.737,42.737,0,0,1,.416,6.76V-6.136a43.16,43.16,0,0,1-.416,6.76Zm27.508-41.392v6.6h7.644v-6.6Zm0,11.544a42.737,42.737,0,0,1,.416,6.76V-6.136a46.731,46.731,0,0,1-.416,6.76h7.592a52.235,52.235,0,0,1-.364-6.812V-22.412a46.739,46.739,0,0,1,.364-6.812ZM379.6-20.748a17.309,17.309,0,0,0-1.82-3.8c-2.5-3.64-6.552-5.616-11.648-5.616a14.239,14.239,0,0,0-10.452,3.952c-2.86,2.912-4.42,7.124-4.42,12.012,0,9.62,5.928,15.808,15.08,15.808,4.94,0,8.944-1.82,11.44-5.252a14.559,14.559,0,0,0,2.184-4.42l-6.448-1.3a7.268,7.268,0,0,1-1.04,2.6,6.961,6.961,0,0,1-5.98,2.912c-5.252,0-8.476-4-8.476-10.5,0-6.448,3.172-10.452,8.268-10.452a6.542,6.542,0,0,1,5.356,2.392,9.37,9.37,0,0,1,1.612,3.172Zm5.408-20.02v6.6h7.644v-6.6Zm0,11.544a42.737,42.737,0,0,1,.416,6.76V-6.136a46.731,46.731,0,0,1-.416,6.76H392.6a52.235,52.235,0,0,1-.364-6.812V-22.412a46.739,46.739,0,0,1,.364-6.812ZM418.86.624h7.02a41.821,41.821,0,0,1-.416-6.5V-19.864c0-3.536-.676-5.512-2.444-7.176-2.236-2.184-5.252-3.068-10.244-3.068-4.472,0-7.384.78-9.932,2.652-1.976,1.4-2.912,2.756-4.108,5.772l6.656,1.2c.624-1.872,1.092-2.6,2.08-3.328a9.381,9.381,0,0,1,5.408-1.508c3.952,0,5.98,1.56,5.98,4.576V-18.1c-7.436.156-11.284.676-14.664,2.08a9.225,9.225,0,0,0-5.876,8.424c0,5.46,3.848,8.736,10.192,8.736A18.4,18.4,0,0,0,413.348.52a11.276,11.276,0,0,0,5.512-3.276Zm0-11.6A6.2,6.2,0,0,1,416.988-6.4,10.559,10.559,0,0,1,409.76-3.64c-2.912,0-4.732-1.508-4.732-3.952,0-4.056,3.9-5.772,13.832-5.98Zm20.7,11.6a46.265,46.265,0,0,1-.416-6.76v-10.5c2.288-5.148,5.356-7.748,9.1-7.748a4.891,4.891,0,0,1,4.368,2.132,8.542,8.542,0,0,1,.884,4.576V-6.136a55.26,55.26,0,0,1-.364,6.76h7.54a41.091,41.091,0,0,1-.416-6.76v-12.48c0-3.484-.52-5.564-1.768-7.28-1.872-2.548-4.836-3.848-8.84-3.848-4.68,0-7.436,1.456-10.608,5.512a20.317,20.317,0,0,0,.1-2.236v-2.756h-7.072a42.737,42.737,0,0,1,.416,6.76V-6.136a43.16,43.16,0,0,1-.416,6.76Zm30.992-37.856a59.859,59.859,0,0,1,.364,6.4v1.612h-1.924a23.884,23.884,0,0,1-4.68-.312V-23.4a26.259,26.259,0,0,1,4.628-.312h1.976V-6.24c0,5.46,2.392,7.592,8.372,7.592a16.272,16.272,0,0,0,6.5-1.092l-.936-5.512a6.878,6.878,0,0,1-3.8,1.144c-2.5,0-3.432-.936-3.432-3.484v-16.12h2.34a28.671,28.671,0,0,1,5.1.312v-6.136a29.875,29.875,0,0,1-5.252.312H477.62v-1.612a57.512,57.512,0,0,1,.364-6.4Zm47.06,24.648c-.1-1.2-.1-1.352-.1-1.456a21.376,21.376,0,0,0-1.508-7.9c-2.08-5.2-6.864-8.216-12.948-8.216-8.892,0-14.664,6.292-14.664,15.912,0,9.724,5.824,15.86,15.028,15.86a14.767,14.767,0,0,0,10.712-4A14.614,14.614,0,0,0,517.3-7.176L511.16-9.152a7.557,7.557,0,0,1-1.508,2.7,8.222,8.222,0,0,1-6.24,2.6,8.173,8.173,0,0,1-6.5-2.912c-1.2-1.508-1.664-2.964-1.924-5.824Zm-22.464-5.148c.78-4.368,3.744-7.072,7.8-7.072a7.416,7.416,0,0,1,5.616,2.08,8.162,8.162,0,0,1,2.288,4.992Zm35.2,10.764H522.7V.624h4.368c-.052,3.224-.78,4.16-3.952,5.044l1.872,2.756c4.212-1.664,5.356-3.328,5.356-7.8Z" transform="translate(180 452)" fill="#0080f4"/>
    </g>
    <g id="蒙版组_29" data-name="蒙版组 29" transform="translate(0 6)" clip-path="url(#clip-path)">
      <g id="组_21645" data-name="组 21645" transform="translate(607.025 42)" opacity="0.05">
        <g id="组_21643" data-name="组 21643" transform="translate(511.697 290.751)">
          <path id="路径_38579" data-name="路径 38579" d="M1013.384-159.409,893.756-228.476a25.412,25.412,0,0,1-12.707-22.007V-388.618a25.414,25.414,0,0,1,12.707-22.008l119.628-69.067a25.414,25.414,0,0,1,25.412,0l119.628,69.067a25.414,25.414,0,0,1,12.706,22.008v138.135a25.412,25.412,0,0,1-12.706,22.007L1038.8-159.409A25.414,25.414,0,0,1,1013.384-159.409Z" transform="translate(-864.619 497.837)" fill="none" stroke="#000" stroke-miterlimit="10" stroke-width="3"/>
          <line id="直线_476" data-name="直线 476" y1="17.727" transform="translate(0 103.269)" fill="none" stroke="#000" stroke-miterlimit="10" stroke-width="3"/>
          <line id="直线_477" data-name="直线 477" y1="81.974" transform="translate(0 137.481)" fill="none" stroke="#000" stroke-miterlimit="10" stroke-width="3"/>
          <line id="直线_478" data-name="直线 478" x1="14.725" y1="8.501" transform="translate(16.86 280.988)" fill="none" stroke="#000" stroke-miterlimit="10" stroke-width="3"/>
          <line id="直线_479" data-name="直线 479" x1="72.444" y1="41.826" transform="translate(45.325 297.423)" fill="none" stroke="#000" stroke-miterlimit="10" stroke-width="3"/>
          <line id="直线_480" data-name="直线 480" x1="14.226" y2="8.214" transform="translate(179.284 346.787)" fill="none" stroke="#000" stroke-miterlimit="10" stroke-width="3"/>
          <line id="直线_481" data-name="直线 481" x1="71.959" y2="41.545" transform="translate(208.141 296.794)" fill="none" stroke="#000" stroke-miterlimit="10" stroke-width="3"/>
          <line id="直线_482" data-name="直线 482" y2="16.824" transform="translate(324.336 235.376)" fill="none" stroke="#000" stroke-miterlimit="10" stroke-width="3"/>
          <line id="直线_483" data-name="直线 483" y2="82.877" transform="translate(324.336 134.545)" fill="none" stroke="#000" stroke-miterlimit="10" stroke-width="3"/>
          <line id="直线_484" data-name="直线 484" x2="14.76" y2="8.522" transform="translate(292.842 65.816)" fill="none" stroke="#000" stroke-miterlimit="10" stroke-width="3"/>
          <line id="直线_485" data-name="直线 485" x2="72.021" y2="41.581" transform="translate(206.279 15.839)" fill="none" stroke="#000" stroke-miterlimit="10" stroke-width="3"/>
          <line id="直线_486" data-name="直线 486" y1="8.291" x2="14.36" transform="translate(131.131)" fill="none" stroke="#000" stroke-miterlimit="10" stroke-width="3" opacity="0.5"/>
          <line id="直线_487" data-name="直线 487" y1="41.224" x2="71.402" transform="translate(44.349 17.17)" fill="none" stroke="#000" stroke-miterlimit="10" stroke-width="3"/>
        </g>
        <path id="路径_38580" data-name="路径 38580" d="M1168.183-454.584l-61.941-35.762a25.41,25.41,0,0,1-12.705-22.007v-71.525a25.41,25.41,0,0,1,12.705-22.007l61.941-35.761a25.407,25.407,0,0,1,25.412,0l61.941,35.761a25.412,25.412,0,0,1,12.706,22.007v71.525a25.412,25.412,0,0,1-12.706,22.007l-61.941,35.762A25.413,25.413,0,0,1,1168.183-454.584Z" transform="translate(-277.502 731.103)" fill="none" stroke="#000" stroke-miterlimit="10" stroke-width="3"/>
        <path id="路径_38581" data-name="路径 38581" d="M1179.55-501.2l-11.514,6.647a25.756,25.756,0,0,1-2.492,1.263" transform="translate(-251.943 782.163)" fill="none" stroke="#000" stroke-miterlimit="10" stroke-width="3"/>
        <path id="路径_38582" data-name="路径 38582" d="M1245.692-539.016a25.417,25.417,0,0,1-11.963,15.9l-48.381,27.932" transform="translate(-244.914 768.74)" fill="none" stroke="#000" stroke-miterlimit="10" stroke-width="3"/>
        <line id="直线_488" data-name="直线 488" y2="15.751" transform="translate(1001.521 156.114)" fill="none" stroke="#000" stroke-miterlimit="10" stroke-width="3"/>
        <path id="路径_38583" data-name="路径 38583" d="M1190.822-638.194l40.964,23.652a25.408,25.408,0,0,1,12.705,22.007" transform="translate(-242.971 733.537)" fill="none" stroke="#000" stroke-miterlimit="10" stroke-width="3"/>
        <path id="路径_38584" data-name="路径 38584" d="M1141.4-645.793l9.8-5.66q.987-.569,2.009-1.043" transform="translate(-260.515 728.461)" fill="none" stroke="#000" stroke-miterlimit="10" stroke-width="3"/>
        <path id="路径_38585" data-name="路径 38585" d="M1086.423-598.847a25.41,25.41,0,0,1,11.563-14.468l49.078-28.336" transform="translate(-280.027 732.31)" fill="none" stroke="#000" stroke-miterlimit="10" stroke-width="3"/>
        <path id="路径_38587" data-name="路径 38587" d="M1006.642-454.15l51.553-92.369a25.409,25.409,0,0,1,21.82-13.025l32.868-.478" transform="translate(-308.344 761.284)" fill="none" stroke="#000" stroke-miterlimit="10" stroke-width="3"/>
        <path id="路径_38588" data-name="路径 38588" d="M1310-590l-11.883,26.319c-2.99,6.623-8.145,10.387-13.524,9.874l-4.273-.406" transform="translate(-190.893 750.645)" fill="none" stroke="#000" stroke-miterlimit="10" stroke-width="3"/>
        <path id="路径_38589" data-name="路径 38589" d="M1329.37-344.239l-16.242-26.171a25.411,25.411,0,0,0-22.4-12l-15.338.229" transform="translate(-212.954 824.322)" fill="none" stroke="#000" stroke-miterlimit="10" stroke-width="3"/>
        <path id="路径_38590" data-name="路径 38590" d="M1157.853-63.183,1110.43-90.564a25.412,25.412,0,0,1-12.707-22.007v-54.76a25.41,25.41,0,0,1,12.707-22.007l47.423-27.381a25.413,25.413,0,0,1,25.412,0l47.425,27.381a25.409,25.409,0,0,1,12.705,22.007v54.76a25.411,25.411,0,0,1-12.705,22.007l-47.425,27.381A25.413,25.413,0,0,1,1157.853-63.183Z" transform="translate(-276.016 881.929)" fill="none" stroke="#000" stroke-miterlimit="10" stroke-width="3"/>
        <path id="路径_38592" data-name="路径 38592" d="M1120.55-95.561l-16.971-9.8a25.416,25.416,0,0,1-12.705-22.008v-35.976" transform="translate(-278.447 902.082)" fill="none" stroke="#000" stroke-miterlimit="10" stroke-width="3"/>
        <path id="路径_38593" data-name="路径 38593" d="M1172.6-100.947l-10.7,6.18a25.448,25.448,0,0,1-3.979,1.859" transform="translate(-254.65 924.229)" fill="none" stroke="#000" stroke-miterlimit="10" stroke-width="3"/>
        <path id="路径_38594" data-name="路径 38594" d="M1223.06-151.51v19.943a25.414,25.414,0,0,1-12.707,22.008l-29.191,16.853" transform="translate(-246.4 906.282)" fill="none" stroke="#000" stroke-miterlimit="10" stroke-width="3"/>
        <path id="路径_38595" data-name="路径 38595" d="M1195.024-205.792l10.409,6.009a25.435,25.435,0,0,1,4.158,3" transform="translate(-241.48 887.015)" fill="none" stroke="#000" stroke-miterlimit="10" stroke-width="3"/>
        <path id="路径_38597" data-name="路径 38597" d="M562.612-422.758,511.14-452.474a25.411,25.411,0,0,1-12.705-22.007v-59.435a25.41,25.41,0,0,1,12.705-22.007l51.471-29.717a25.413,25.413,0,0,1,25.412,0l51.47,29.717A25.412,25.412,0,0,1,652.2-533.916v59.435a25.412,25.412,0,0,1-12.707,22.007l-51.47,29.717A25.414,25.414,0,0,1,562.612-422.758Z" transform="translate(-488.728 750.983)" fill="none" stroke="#000" stroke-miterlimit="10" stroke-width="3"/>
        <g id="组_21644" data-name="组 21644" transform="translate(0 150.731)">
          <path id="路径_38598" data-name="路径 38598" d="M491.271-537.949v-13.414a25.314,25.314,0,0,1,.369-4.313" transform="translate(-491.271 612.095)" fill="none" stroke="#000" stroke-miterlimit="10" stroke-width="3"/>
          <path id="路径_38599" data-name="路径 38599" d="M522.553-457.247l-18.576-10.724a25.413,25.413,0,0,1-12.705-22.007v-39.614" transform="translate(-491.271 621.353)" fill="none" stroke="#000" stroke-miterlimit="10" stroke-width="3"/>
          <line id="直线_489" data-name="直线 489" x1="12.539" y2="7.24" transform="translate(99.295 181.463)" fill="none" stroke="#000" stroke-miterlimit="10" stroke-width="3"/>
          <path id="路径_38600" data-name="路径 38600" d="M631.261-500.356a25.452,25.452,0,0,1-.365,4.288,25.419,25.419,0,0,1-12.342,17.719l-33.776,19.5" transform="translate(-458.081 631.731)" fill="none" stroke="#000" stroke-miterlimit="10" stroke-width="3"/>
          <path id="路径_38601" data-name="路径 38601" d="M601.06-573.727l11.715,6.764a25.517,25.517,0,0,1,3,2.033" transform="translate(-452.302 605.688)" fill="none" stroke="#000" stroke-miterlimit="10" stroke-width="3"/>
          <path id="路径_38602" data-name="路径 38602" d="M532.161-583.242l18.48-10.669a25.413,25.413,0,0,1,25.412,0l33.682,19.446" transform="translate(-476.757 597.316)" fill="none" stroke="#000" stroke-miterlimit="10" stroke-width="3"/>
        </g>
        <path id="路径_38603" data-name="路径 38603" d="M784.13-130.363,736.539-157.84a25.409,25.409,0,0,1-12.705-22.007V-234.8a25.411,25.411,0,0,1,12.705-22.007l47.591-27.477a25.414,25.414,0,0,1,25.412,0l47.591,27.477A25.411,25.411,0,0,1,869.839-234.8v54.954a25.409,25.409,0,0,1-12.705,22.007l-47.591,27.477A25.413,25.413,0,0,1,784.13-130.363Z" transform="translate(-408.725 857.947)" fill="none" stroke="#000" stroke-miterlimit="10" stroke-width="3"/>
        <path id="路径_38604" data-name="路径 38604" d="M856.246-197.36a25.408,25.408,0,0,1-10.913,12.629l-56.885,32.842a25.435,25.435,0,0,1-4.244,1.954" transform="translate(-387.297 890.008)" fill="none" stroke="#000" stroke-miterlimit="10" stroke-width="3"/>
        <path id="路径_38605" data-name="路径 38605" d="M821.241-273.667l10.946,6.321a25.412,25.412,0,0,1,12.707,22.007v56.569" transform="translate(-374.151 862.924)" fill="none" stroke="#000" stroke-miterlimit="10" stroke-width="3"/>
        <path id="路径_38606" data-name="路径 38606" d="M719.27-249.4a25.416,25.416,0,0,1,6.6-8.165,25.443,25.443,0,0,1,3.331-2.294l56.884-32.842a25.554,25.554,0,0,1,4.493-2.042" transform="translate(-410.345 855.441)" fill="none" stroke="#000" stroke-miterlimit="10" stroke-width="3"/>
        <path id="路径_38607" data-name="路径 38607" d="M740.3-161.8l-10.378-5.992A25.413,25.413,0,0,1,717.222-189.8v-55.3" transform="translate(-411.072 873.066)" fill="none" stroke="#000" stroke-miterlimit="10" stroke-width="3"/>
        <path id="路径_38608" data-name="路径 38608" d="M801.881-428.266l-69.77-40.283a25.409,25.409,0,0,1-12.705-22.007v-80.563a25.413,25.413,0,0,1,12.705-22.008l69.77-40.281a25.407,25.407,0,0,1,25.412,0l69.771,40.281a25.413,25.413,0,0,1,12.705,22.008v80.563a25.409,25.409,0,0,1-12.705,22.007l-69.771,40.283A25.414,25.414,0,0,1,801.881-428.266Z" transform="translate(-410.296 734.028)" fill="none" stroke="#000" stroke-miterlimit="10" stroke-width="3"/>
        <line id="直线_490" data-name="直线 490" y1="16.767" transform="translate(297.366 214.546)" fill="none" stroke="#000" stroke-miterlimit="10" stroke-width="3"/>
        <path id="路径_38609" data-name="路径 38609" d="M769.423-475.312l-45.979-26.546a25.411,25.411,0,0,1-12.705-22.007" transform="translate(-413.373 774.118)" fill="none" stroke="#000" stroke-miterlimit="10" stroke-width="3"/>
        <line id="直线_491" data-name="直线 491" x1="13.364" y2="7.715" transform="translate(416.997 311.606)" fill="none" stroke="#000" stroke-miterlimit="10" stroke-width="3"/>
        <line id="直线_492" data-name="直线 492" y2="16.429" transform="translate(511.217 174.914)" fill="none" stroke="#000" stroke-miterlimit="10" stroke-width="3"/>
        <path id="路径_38611" data-name="路径 38611" d="M825.669-628.929,871.091-602.7A25.412,25.412,0,0,1,883.8-580.7v2.356" transform="translate(-372.579 736.826)" fill="none" stroke="#000" stroke-miterlimit="10" stroke-width="3"/>
        <line id="直线_493" data-name="直线 493" y1="7.232" x2="12.526" transform="translate(379.059 87.059)" fill="none" stroke="#000" stroke-miterlimit="10" stroke-width="3"/>
        <path id="路径_38612" data-name="路径 38612" d="M711.649-587.054a25.4,25.4,0,0,1,11.472-14.186l55.105-31.815" transform="translate(-413.05 735.361)" fill="none" stroke="#000" stroke-miterlimit="10" stroke-width="3"/>
        <path id="路径_38613" data-name="路径 38613" d="M1372.351-532.955l-51.737-29.87a25.411,25.411,0,0,1-12.705-22.007v-59.741a25.412,25.412,0,0,1,12.705-22.008l51.737-29.87a25.413,25.413,0,0,1,25.412,0l51.737,29.87a25.412,25.412,0,0,1,12.705,22.008v59.741a25.41,25.41,0,0,1-12.705,22.007l-51.737,29.87A25.407,25.407,0,0,1,1372.351-532.955Z" transform="translate(-201.412 711.652)" fill="none" stroke="#000" stroke-miterlimit="10" stroke-width="3"/>
        <path id="路径_38614" data-name="路径 38614" d="M1329.118-684.711l35.413-20.446a25.418,25.418,0,0,1,22.385-1.489" transform="translate(-193.884 708.561)" fill="none" stroke="#000" stroke-miterlimit="10" stroke-width="3"/>
        <path id="路径_38615" data-name="路径 38615" d="M1300.6-602.032v-61.074q0-1.079.091-2.145" transform="translate(-204.005 723.934)" fill="none" stroke="#000" stroke-miterlimit="10" stroke-width="3"/>
        <path id="路径_38616" data-name="路径 38616" d="M1349.115-569.714l-35.888-20.721a25.411,25.411,0,0,1-12.388-18" transform="translate(-203.922 744.102)" fill="none" stroke="#000" stroke-miterlimit="10" stroke-width="3"/>
        <path id="路径_38617" data-name="路径 38617" d="M1427.84-591.61,1374.8-560.988a25.447,25.447,0,0,1-3.027,1.489" transform="translate(-178.743 750.072)" fill="none" stroke="#000" stroke-miterlimit="10" stroke-width="3"/>
        <path id="路径_38618" data-name="路径 38618" d="M1431.988-641.676v41.035a25.409,25.409,0,0,1-12.705,22.007" transform="translate(-161.881 732.302)" fill="none" stroke="#000" stroke-miterlimit="10" stroke-width="3"/>
        <path id="路径_38619" data-name="路径 38619" d="M1380.022-702.577l53.2,30.713a25.521,25.521,0,0,1,2.8,1.876" transform="translate(-175.816 710.685)" fill="none" stroke="#000" stroke-miterlimit="10" stroke-width="3"/>
        <path id="路径_38620" data-name="路径 38620" d="M1367.019-184.949,1305.1-220.7a25.41,25.41,0,0,1-12.707-22.007v-71.5a25.412,25.412,0,0,1,12.707-22.007l61.921-35.75a25.414,25.414,0,0,1,25.412,0l61.921,35.75a25.412,25.412,0,0,1,12.707,22.007v71.5a25.41,25.41,0,0,1-12.707,22.007l-61.921,35.75A25.407,25.407,0,0,1,1367.019-184.949Z" transform="translate(-206.92 826.826)" fill="none" stroke="#000" stroke-miterlimit="10" stroke-width="3"/>
        <path id="路径_38623" data-name="路径 38623" d="M1437.682-300.676v36.05a25.415,25.415,0,0,1-12.705,22.007l-21.469,12.395" transform="translate(-167.48 853.337)" fill="none" stroke="#000" stroke-miterlimit="10" stroke-width="3"/>
        <path id="路径_38624" data-name="路径 38624" d="M1393.159-366.481l35.49,20.489a25.558,25.558,0,0,1,2.438,1.6" transform="translate(-171.153 829.98)" fill="none" stroke="#000" stroke-miterlimit="10" stroke-width="3"/>
        <path id="路径_38625" data-name="路径 38625" d="M1324.258-362.629l31.8-18.361a25.413,25.413,0,0,1,25.412,0l21.491,12.407" transform="translate(-195.609 823.622)" fill="none" stroke="#000" stroke-miterlimit="10" stroke-width="3"/>
        <path id="路径_38626" data-name="路径 38626" d="M611.92-521.478h56.542a13.1,13.1,0,0,0,13.1-13.1v-24.163A16.936,16.936,0,0,1,698.5-575.676h59.061" transform="translate(-448.448 755.728)" fill="none" stroke="#000" stroke-miterlimit="10" stroke-width="3"/>
        <line id="直线_495" data-name="直线 495" x2="69.102" transform="translate(838.319 443.362)" fill="none" stroke="#000" stroke-miterlimit="10" stroke-width="3"/>
        <line id="直线_496" data-name="直线 496" x2="76.046" transform="translate(924.302 443.193)" fill="none" stroke="#000" stroke-miterlimit="10" stroke-width="3"/>
        <path id="路径_38628" data-name="路径 38628" d="M43.311,63.448" transform="translate(508.511 308.169)" fill="none" stroke="#000" stroke-width="3"/>
        <line id="直线_499" data-name="直线 499" y2="15.356" transform="translate(806.397 193.262)" fill="none" stroke="#000" stroke-miterlimit="10" stroke-width="3"/>
        <line id="直线_501" data-name="直线 501" x2="38.656" y2="59.054" transform="translate(729.206 623.681)" fill="none" stroke="#000" stroke-miterlimit="10" stroke-width="3"/>
        <line id="直线_502" data-name="直线 502" x1="42.491" y2="63.049" transform="translate(540.853 603.371)" fill="none" stroke="#000" stroke-miterlimit="10" stroke-width="3"/>
        <path id="路径_38627" data-name="路径 38627" d="M831.02-202.357h57.422s8.581.595,13.1-4.486" transform="translate(-370.68 886.642)" fill="none" stroke="#000" stroke-miterlimit="10" stroke-width="3"/>
      </g>
    </g>
  </g>
</svg>
