<svg xmlns="http://www.w3.org/2000/svg" xmlns:xlink="http://www.w3.org/1999/xlink" width="1820" height="880" viewBox="0 0 1820 880">
  <defs>
    <clipPath id="clip-path">
      <rect id="矩形_2278" data-name="矩形 2278" width="1820" height="880" transform="translate(50 82)" fill="#fff"/>
    </clipPath>
  </defs>
  <g id="banner" transform="translate(-50 -88)">
    <g id="组_21710" data-name="组 21710" transform="translate(0 32)">
      <path id="路径_41068" data-name="路径 41068" d="M12.35,94.4a47.525,47.525,0,0,1-.35,6.35h6.95a46.052,46.052,0,0,1-.35-6.35V77.8H31.35V94.4a39.9,39.9,0,0,1-.4,6.35h7a46.052,46.052,0,0,1-.35-6.35V78.55a48.319,48.319,0,0,1,.35-6.4c-2,.1-3.25.15-6.25.15H18.25c-3,0-4.25-.05-6.25-.15a50.446,50.446,0,0,1,.35,6.5Zm53.75,7.3c8.9,0,14.75-6.1,14.75-15.35S75.1,71.2,66.05,71.2c-9.1,0-14.9,5.95-14.9,15.25C51.15,95.8,56.95,101.7,66.1,101.7Zm-.05-25.3c5.3,0,8.35,3.7,8.35,10.15,0,6.1-3.2,9.85-8.4,9.85s-8.4-3.8-8.4-9.95C57.6,80.2,60.8,76.4,66.05,76.4Zm36.4-4.1c-2.65,0-3.65-.05-6-.15.05,1.25.1,1.75.1,2.85a22.2,22.2,0,0,1-.1,2.7l-.7,13.9c-.15,2.65-.9,3.8-2.55,3.8a4.221,4.221,0,0,1-2-.6l-1.25,5.8a12.786,12.786,0,0,0,4.55.75A7.092,7.092,0,0,0,99.95,99c1.1-1.3,1.75-3.35,1.9-6.1l.85-15.15h9.65V95.3a39.9,39.9,0,0,1-.35,5.45h7a36.992,36.992,0,0,1-.35-5.45V77.7a38.876,38.876,0,0,1,.35-5.55c-1.85.1-3,.15-5.7.15Zm34.1,32.9a25.682,25.682,0,0,0,6.05.75c4.2,0,7.1-1.7,8.65-5.05l10.6-23c1.45-3,2.3-4.85,2.7-5.6l-7.4.05a25.454,25.454,0,0,1-1.85,5.3l-5.45,13.2-6.1-13.2a24.421,24.421,0,0,1-1.85-5.35h-7.55a61.525,61.525,0,0,1,2.85,5.6l9.25,18.8-.6,1.4c-.7,1.55-2,2.3-4.05,2.3a8.911,8.911,0,0,1-3.95-.95ZM176.3,72.3a54.654,54.654,0,0,1,.35,6.35V84.2c0,4.7,2.25,6.45,8.25,6.45a64.771,64.771,0,0,0,8.5-.6v4.4a57.585,57.585,0,0,1-.35,6.3h7a43.283,43.283,0,0,1-.35-6.2V78.6a48.774,48.774,0,0,1,.35-6.3h-7a52.052,52.052,0,0,1,.35,6.3v6.6a52.33,52.33,0,0,1-5.7.3c-2.45,0-3-.05-3.7-.3-.7-.3-1.05-1-1.05-2.25v-4.3a47.028,47.028,0,0,1,.35-6.35Zm40.15,0a55.508,55.508,0,0,1,.35,6.4V94.3a43.351,43.351,0,0,1-.4,6.45h7.1a27.6,27.6,0,0,1,2.8-4.6l9.6-12.7a8.74,8.74,0,0,0,.9-1.45c.05-.1.15-.25.3-.5-.05,1.05-.05,1.05-.1,2.65l-.05,10.2a45.873,45.873,0,0,1-.35,6.4h6.95a50.679,50.679,0,0,1-.35-6.45V78.7a50.929,50.929,0,0,1,.35-6.4h-7a19.767,19.767,0,0,1-2.8,4.65l-9.45,12.6c-.3.4-.75,1.1-1.1,1.65a3.207,3.207,0,0,1-.3.5c.05-1.4.1-2.35.1-2.85V78.75a50.153,50.153,0,0,1,.35-6.45Zm58.1,28.45a51.5,51.5,0,0,1-.35-6.5V77.75h3.9a55.387,55.387,0,0,1,6.4.3v-6.1a45.872,45.872,0,0,1-6.4.35H263.9a47.323,47.323,0,0,1-6.4-.35v6.1a59.182,59.182,0,0,1,6.5-.3h3.8v16.5a46.011,46.011,0,0,1-.35,6.5Zm32.8-18.25V78.65a47.525,47.525,0,0,1,.35-6.35h-6.9a55.262,55.262,0,0,1,.35,6.35v15.8a45.238,45.238,0,0,1-.35,6.45c2.2-.1,3.5-.15,6.25-.15h8.45c6.5,0,10.2-3.3,10.2-9.15,0-5.8-3.7-9.1-10.25-9.1Zm0,13.1V87.65h6.9c3.55,0,5.05,1.2,5.05,4s-1.45,3.95-4.95,3.95ZM348,94.4a47.525,47.525,0,0,1-.35,6.35h6.95a46.052,46.052,0,0,1-.35-6.35V77.8H367V94.4a39.905,39.905,0,0,1-.4,6.35h7a46.052,46.052,0,0,1-.35-6.35V78.55a48.32,48.32,0,0,1,.35-6.4c-2,.1-3.25.15-6.25.15H353.9c-3,0-4.25-.05-6.25-.15a50.446,50.446,0,0,1,.35,6.5Zm67.8-6.35c-.1-1.15-.1-1.3-.1-1.4a20.554,20.554,0,0,0-1.45-7.6c-2-5-6.6-7.9-12.45-7.9-8.55,0-14.1,6.05-14.1,15.3,0,9.35,5.6,15.25,14.45,15.25a14.2,14.2,0,0,0,10.3-3.85,14.051,14.051,0,0,0,3.05-4.6l-5.9-1.9a7.267,7.267,0,0,1-1.45,2.6,8.411,8.411,0,0,1-12.25-.3c-1.15-1.45-1.6-2.85-1.85-5.6ZM394.2,83.1c.75-4.2,3.6-6.8,7.5-6.8a7.131,7.131,0,0,1,5.4,2,7.848,7.848,0,0,1,2.2,4.8Zm41.7,22.85a45.785,45.785,0,0,1-.35-5.35V97.1a25.305,25.305,0,0,0-.1-2.65,6.684,6.684,0,0,0,1.9,2,13.251,13.251,0,0,0,7.8,2.3c8.65,0,13.8-5.15,13.8-13.8,0-8.35-4.95-13.3-13.3-13.3-4.6,0-8.05,1.5-10.2,4.35.05-.75.05-1,.05-1.5V72.3h-6.6a44.9,44.9,0,0,1,.35,6.15v21.4a43.177,43.177,0,0,1-.35,6.1Zm-.15-20.75a8.6,8.6,0,0,1,2.65-6.35,9.432,9.432,0,0,1,5.85-2.25c5.1,0,8.05,3.1,8.05,8.5,0,5.35-2.95,8.65-7.8,8.65A8.411,8.411,0,0,1,435.75,85.2Zm61.35-5a16.644,16.644,0,0,0-1.75-3.65c-2.4-3.5-6.3-5.4-11.2-5.4a13.692,13.692,0,0,0-10.05,3.8,16.167,16.167,0,0,0-4.25,11.55c0,9.25,5.7,15.2,14.5,15.2,4.75,0,8.6-1.75,11-5a14.972,14.972,0,0,0,2.1-4.3l-6.2-1.25a6.988,6.988,0,0,1-1,2.5,6.693,6.693,0,0,1-5.75,2.8c-5.05,0-8.15-3.85-8.15-10.1,0-6.2,3.05-10.05,7.95-10.05a6.291,6.291,0,0,1,5.15,2.3A9.528,9.528,0,0,1,491,81.65Zm27.65,21.5c8.9,0,14.75-6.1,14.75-15.35S533.75,71.2,524.7,71.2c-9.1,0-14.9,5.95-14.9,15.25C509.8,95.8,515.6,101.7,524.75,101.7Zm-.05-25.3c5.3,0,8.35,3.7,8.35,10.15,0,6.1-3.2,9.85-8.4,9.85s-8.4-3.8-8.4-9.95C516.25,80.2,519.45,76.4,524.7,76.4Zm34.2,24.35a46.834,46.834,0,0,1-.35-6.4V88.7h14.2v5.65a52.583,52.583,0,0,1-.35,6.4h6.9a47.817,47.817,0,0,1-.35-6.4V78.75a44.777,44.777,0,0,1,.35-6.45h-6.9a51.213,51.213,0,0,1,.35,6.45V83.2h-14.2V78.7a49.343,49.343,0,0,1,.35-6.4H552a52.023,52.023,0,0,1,.35,6.4V94.35a39.622,39.622,0,0,1-.35,6.4Zm54,.15h6.75a40.215,40.215,0,0,1-.4-6.25V81.15c0-3.4-.65-5.3-2.35-6.9-2.15-2.1-5.05-2.95-9.85-2.95-4.3,0-7.1.75-9.55,2.55-1.9,1.35-2.8,2.65-3.95,5.55l6.4,1.15a5.8,5.8,0,0,1,2-3.2,9.413,9.413,0,0,1,5.2-1.4c3.8,0,5.75,1.5,5.75,4.4v2.5c-7.15.15-10.85.7-14.1,2.05a8.818,8.818,0,0,0-5.65,8.1c0,5.2,3.7,8.4,9.8,8.4a17.692,17.692,0,0,0,4.65-.6,10.842,10.842,0,0,0,5.3-3.15Zm0-11.15a5.959,5.959,0,0,1-1.8,4.4,10.153,10.153,0,0,1-6.95,2.65c-2.8,0-4.55-1.45-4.55-3.85,0-3.9,3.75-5.5,13.3-5.75ZM643.1,72.3c-2.65,0-3.65-.05-6-.15.05,1.25.1,1.75.1,2.85a22.208,22.208,0,0,1-.1,2.7l-.7,13.9c-.15,2.65-.9,3.8-2.55,3.8a4.221,4.221,0,0,1-2-.6l-1.25,5.8a12.786,12.786,0,0,0,4.55.75A7.092,7.092,0,0,0,640.6,99c1.1-1.3,1.75-3.35,1.9-6.1l.85-15.15H653V95.3a39.9,39.9,0,0,1-.35,5.45h7a36.992,36.992,0,0,1-.35-5.45V77.7a38.876,38.876,0,0,1,.35-5.55c-1.85.1-3,.15-5.7.15ZM684,82.5V78.65a47.524,47.524,0,0,1,.35-6.35h-6.9a55.262,55.262,0,0,1,.35,6.35v15.8a45.238,45.238,0,0,1-.35,6.45c2.2-.1,3.5-.15,6.25-.15h8.45c6.5,0,10.2-3.3,10.2-9.15,0-5.8-3.7-9.1-10.25-9.1Zm0,13.1V87.65h6.9c3.55,0,5.05,1.2,5.05,4S694.5,95.6,691,95.6Zm38.9,5.15a46.834,46.834,0,0,1-.35-6.4V88.7h14.2v5.65a52.583,52.583,0,0,1-.35,6.4h6.9a47.817,47.817,0,0,1-.35-6.4V78.75a44.777,44.777,0,0,1,.35-6.45h-6.9a51.213,51.213,0,0,1,.35,6.45V83.2h-14.2V78.7a49.343,49.343,0,0,1,.35-6.4H716a52.023,52.023,0,0,1,.35,6.4V94.35a39.622,39.622,0,0,1-.35,6.4Zm36.3,4.45a25.682,25.682,0,0,0,6.05.75c4.2,0,7.1-1.7,8.65-5.05l10.6-23c1.45-3,2.3-4.85,2.7-5.6l-7.4.05a25.456,25.456,0,0,1-1.85,5.3l-5.45,13.2-6.1-13.2a24.419,24.419,0,0,1-1.85-5.35H757a61.532,61.532,0,0,1,2.85,5.6l9.25,18.8-.6,1.4c-.7,1.55-2,2.3-4.05,2.3a8.912,8.912,0,0,1-3.95-.95ZM801,88.45h3.6c.55,4.15,1.05,5.85,2.3,7.8,2.2,3.45,5.7,5.2,10.35,5.2,8.25,0,13.2-5.65,13.2-15.1,0-9.3-4.85-14.8-13-14.8a11.907,11.907,0,0,0-8.95,3.4c-1.95,2-2.85,4-3.8,8.45H801V78.75a49.633,49.633,0,0,1,.35-6.45H794.5a46.778,46.778,0,0,1,.35,6.5V94.25a55.428,55.428,0,0,1-.35,6.5h6.85a52.038,52.038,0,0,1-.35-6.5Zm16.3,7.9a6,6,0,0,1-4.35-1.65c-1.55-1.65-2.45-4.6-2.45-8.1,0-6.25,2.6-9.95,6.9-9.95,4.25,0,6.75,3.6,6.75,9.7,0,3.5-.9,6.45-2.45,8.2A5.831,5.831,0,0,1,817.3,96.35ZM12.35,194.4a47.525,47.525,0,0,1-.35,6.35h6.95a46.052,46.052,0,0,1-.35-6.35V177.8H31.35v16.6a39.9,39.9,0,0,1-.4,6.35h7a46.052,46.052,0,0,1-.35-6.35V178.55a48.319,48.319,0,0,1,.35-6.4c-2,.1-3.25.15-6.25.15H18.25c-3,0-4.25-.05-6.25-.15a50.446,50.446,0,0,1,.35,6.5Zm53.75,7.3c8.9,0,14.75-6.1,14.75-15.35S75.1,171.2,66.05,171.2c-9.1,0-14.9,5.95-14.9,15.25C51.15,195.8,56.95,201.7,66.1,201.7Zm-.05-25.3c5.3,0,8.35,3.7,8.35,10.15,0,6.1-3.2,9.85-8.4,9.85s-8.4-3.8-8.4-9.95C57.6,180.2,60.8,176.4,66.05,176.4Zm57.9,24.35a46.651,46.651,0,0,1-.35-6.45V178.7a53.726,53.726,0,0,1,.35-6.4h-8.2a2.845,2.845,0,0,1-.15.8c-.15.65-1.35,4.05-1.45,4.3L107,192.45,99.8,177.4c-.15-.4-1.25-3.55-1.45-4.15-.05-.3-.1-.5-.15-.95H90a55.762,55.762,0,0,1,.35,6.45V194.3a44.778,44.778,0,0,1-.35,6.45h6.5a47.621,47.621,0,0,1-.35-6.45v-9.75c0-1.25-.05-2.35-.2-4.2A25.884,25.884,0,0,0,97.3,184l5.4,11a36.172,36.172,0,0,1,2.1,5.75h4.35a31.436,31.436,0,0,1,2.05-5.7L116.65,184a27.433,27.433,0,0,0,1.35-3.65,41.969,41.969,0,0,0-.2,4.2v9.75a52.3,52.3,0,0,1-.35,6.45Zm24.15.95c8.9,0,14.75-6.1,14.75-15.35s-5.75-15.15-14.8-15.15c-9.1,0-14.9,5.95-14.9,15.25C133.15,195.8,138.95,201.7,148.1,201.7Zm-.05-25.3c5.3,0,8.35,3.7,8.35,10.15,0,6.1-3.2,9.85-8.4,9.85s-8.4-3.8-8.4-9.95C139.6,180.2,142.8,176.4,148.05,176.4Zm58.25,2.25a40.309,40.309,0,0,1,.4-6.35H200a53.466,53.466,0,0,1,.35,6.35V195.3H191.6V178.65a48.029,48.029,0,0,1,.35-6.35h-6.5a49.056,49.056,0,0,1,.35,6.35V195.3H177V178.65a42.374,42.374,0,0,1,.35-6.35H170.7a51.752,51.752,0,0,1,.35,6.35v15.8a50.153,50.153,0,0,1-.35,6.45c2.15-.1,3.45-.15,6.25-.15h25.6v1.55a16.319,16.319,0,0,1-.35,3.7h7.05a18.694,18.694,0,0,1-.35-3.75v-3a32.409,32.409,0,0,1,.35-4.1c-1.55.1-1.55.1-2.95.15Zm19.05,3.85v-3.85a47.525,47.525,0,0,1,.35-6.35h-6.9a55.262,55.262,0,0,1,.35,6.35v15.8a45.239,45.239,0,0,1-.35,6.45c2.2-.1,3.5-.15,6.25-.15h8.45c6.5,0,10.2-3.3,10.2-9.15,0-5.8-3.7-9.1-10.25-9.1Zm0,13.1v-7.95h6.9c3.55,0,5.05,1.2,5.05,4s-1.45,3.95-4.95,3.95Z" transform="translate(169 452)"/>
      <path id="路径_41069" data-name="路径 41069" d="M5-9.6a4.159,4.159,0,0,0-3.1,1.2A5.137,5.137,0,0,0,.54-4.656c0,3.048,1.752,5,4.476,5S9.5-1.62,9.5-4.656A5.175,5.175,0,0,0,8.16-8.4,4.205,4.205,0,0,0,5-9.6ZM5.04-1.08a2.591,2.591,0,0,1-1.86-.732,3.965,3.965,0,0,1-.972-2.832c0-2.172,1.092-3.54,2.82-3.54a2.583,2.583,0,0,1,1.848.732,3.876,3.876,0,0,1,.948,2.8C7.824-2.448,6.756-1.08,5.04-1.08ZM36.576-9.408a9.767,9.767,0,0,1,.1,1.644V-3.54a2.191,2.191,0,0,1-2.436,2.484,2.2,2.2,0,0,1-2.46-2.472V-7.764a9.41,9.41,0,0,1,.1-1.644H30.084a9.858,9.858,0,0,1,.1,1.644v4.236a3.865,3.865,0,0,0,.9,2.76A4.134,4.134,0,0,0,34.176.36c2.616,0,4.092-1.392,4.092-3.876v-4.26a9.7,9.7,0,0,1,.1-1.632ZM67.332.144c-.168-.324-.468-.972-.564-1.188C65.58-3.852,65.352-4.188,64.6-4.428a2.537,2.537,0,0,0,1.332-.7,2.467,2.467,0,0,0,.612-1.788c0-1.584-1.044-2.5-2.868-2.5h-2.88c-.66,0-1.032-.012-1.536-.036a10.677,10.677,0,0,1,.1,1.56v6.468a9.391,9.391,0,0,1-.1,1.56h1.788a9.364,9.364,0,0,1-.1-1.572V-3.876h1.788c.924,0,1.344.444,1.992,2.1a9.714,9.714,0,0,1,.624,1.92ZM60.948-5.244v-2.8h2.46c.984,0,1.476.444,1.476,1.308A1.424,1.424,0,0,1,64.5-5.676a1.617,1.617,0,0,1-1.14.432ZM116.7.144a9.771,9.771,0,0,1,.528-1.6l1.8-4.224a14.644,14.644,0,0,0,.552-1.752c-.012.18-.048.792-.1,1.836v3.984a11.156,11.156,0,0,1-.1,1.752h1.68a10.4,10.4,0,0,1-.1-1.752V-7.632a12.427,12.427,0,0,1,.1-1.776H118.86a6.65,6.65,0,0,1-.432,1.428L116-2.028,113.568-7.98a8.305,8.305,0,0,1-.444-1.428h-2.2a11.9,11.9,0,0,1,.1,1.776v6.024a11.254,11.254,0,0,1-.1,1.752h1.68a10.964,10.964,0,0,1-.1-1.752V-5.544c0-.264-.048-1.248-.1-1.884a13.354,13.354,0,0,0,.612,1.836l1.728,4.116a8.169,8.169,0,0,1,.528,1.62Zm25.272-9.552a8.966,8.966,0,0,1,.1,1.548V-1.4a9.055,9.055,0,0,1-.1,1.548H143.8a9.055,9.055,0,0,1-.1-1.548V-7.86a8.966,8.966,0,0,1,.1-1.548Zm22.4,6.756a4.1,4.1,0,0,0,.228,1A2.825,2.825,0,0,0,165.66-.288a4.825,4.825,0,0,0,2.52.624,3.977,3.977,0,0,0,2.868-.912,2.792,2.792,0,0,0,.756-2.04,2.368,2.368,0,0,0-1-2.064,5.283,5.283,0,0,0-1.956-.732,10.216,10.216,0,0,1-1.692-.432,1.141,1.141,0,0,1-.816-1.092c0-.78.708-1.308,1.752-1.308a1.9,1.9,0,0,1,1.5.576,1.55,1.55,0,0,1,.36.852l1.716-.2a3.235,3.235,0,0,0-.588-1.392A3.537,3.537,0,0,0,168.1-9.624c-2.064,0-3.408,1.08-3.408,2.748a2.362,2.362,0,0,0,.924,1.944,4.242,4.242,0,0,0,1.812.732,7.566,7.566,0,0,1,2.088.588,1.218,1.218,0,0,1,.6,1.1c0,.9-.72,1.44-1.92,1.44a2.13,2.13,0,0,1-1.752-.708,1.72,1.72,0,0,1-.336-1.056Zm27.78,0a4.1,4.1,0,0,0,.228,1A2.825,2.825,0,0,0,193.44-.288a4.825,4.825,0,0,0,2.52.624,3.977,3.977,0,0,0,2.868-.912,2.792,2.792,0,0,0,.756-2.04,2.368,2.368,0,0,0-1-2.064,5.283,5.283,0,0,0-1.956-.732,10.216,10.216,0,0,1-1.692-.432,1.141,1.141,0,0,1-.816-1.092c0-.78.708-1.308,1.752-1.308a1.9,1.9,0,0,1,1.5.576,1.55,1.55,0,0,1,.36.852l1.716-.2a3.235,3.235,0,0,0-.588-1.392,3.537,3.537,0,0,0-2.988-1.212c-2.064,0-3.408,1.08-3.408,2.748a2.362,2.362,0,0,0,.924,1.944A4.242,4.242,0,0,0,195.2-4.2a7.566,7.566,0,0,1,2.088.588,1.218,1.218,0,0,1,.6,1.1c0,.9-.72,1.44-1.92,1.44a2.13,2.13,0,0,1-1.752-.708,1.72,1.72,0,0,1-.336-1.056Zm28.092-6.756a8.966,8.966,0,0,1,.1,1.548V-1.4a9.055,9.055,0,0,1-.1,1.548h1.824a9.055,9.055,0,0,1-.1-1.548V-7.86a8.966,8.966,0,0,1,.1-1.548ZM247.116-9.6a4.159,4.159,0,0,0-3.1,1.2,5.137,5.137,0,0,0-1.368,3.744c0,3.048,1.752,5,4.476,5s4.488-1.968,4.488-5A5.175,5.175,0,0,0,250.272-8.4,4.205,4.205,0,0,0,247.116-9.6Zm.036,8.52a2.591,2.591,0,0,1-1.86-.732,3.965,3.965,0,0,1-.972-2.832c0-2.172,1.092-3.54,2.82-3.54a2.583,2.583,0,0,1,1.848.732,3.876,3.876,0,0,1,.948,2.8C249.936-2.448,248.868-1.08,247.152-1.08ZM280.368.144a9.055,9.055,0,0,1-.1-1.548V-7.752a10.493,10.493,0,0,1,.1-1.656h-1.752a10.489,10.489,0,0,1,.1,1.656V-3.72c0,.5.036,1.224.084,1.692-.264-.48-.648-1.1-.936-1.536l-3.036-4.572a6.582,6.582,0,0,1-.732-1.272H272.22a9.993,9.993,0,0,1,.1,1.548v6.192a12.983,12.983,0,0,1-.1,1.812h1.752a13.282,13.282,0,0,1-.1-1.8V-5.592c0-.276-.024-.816-.036-1.044-.036-.444-.036-.444-.048-.612.288.564.588,1.08.816,1.44l3.1,4.668a11.958,11.958,0,0,1,.768,1.284Z" transform="translate(180.461 350)"/>
      <path id="路径_41070" data-name="路径 41070" d="M20.35-32.9h13.5a44.779,44.779,0,0,1,6.45.35v-6.6a47.621,47.621,0,0,1-6.45.35H19.6c-3.1,0-4.25,0-6.3-.15a45.834,45.834,0,0,1,.4,6.4v26.9a36.721,36.721,0,0,1-.4,6.4h7.5a36.024,36.024,0,0,1-.45-6.4Zm32.1,5.2a55.508,55.508,0,0,1,.35,6.4V-5.7A43.352,43.352,0,0,1,52.4.75h7.1a27.6,27.6,0,0,1,2.8-4.6l9.6-12.7A8.741,8.741,0,0,0,72.8-18c.05-.1.15-.25.3-.5-.05,1.05-.05,1.05-.1,2.65l-.05,10.2A45.874,45.874,0,0,1,72.6.75h6.95A50.679,50.679,0,0,1,79.2-5.7V-21.3a50.929,50.929,0,0,1,.35-6.4h-7a19.767,19.767,0,0,1-2.8,4.65L60.3-10.45c-.3.4-.75,1.1-1.1,1.65a3.208,3.208,0,0,1-.3.5c.05-1.4.1-2.35.1-2.85v-10.1a50.153,50.153,0,0,1,.35-6.45ZM90.7,2.15A16.843,16.843,0,0,1,90.35,6H97.4a22.525,22.525,0,0,1-.3-3.8V.7h18.95V2.3A14.165,14.165,0,0,1,115.7,6h7.1a17.977,17.977,0,0,1-.35-4V-.85a26.434,26.434,0,0,1,.35-4c-1.65.1-1.9.1-2.95.1v-16.6a48.415,48.415,0,0,1,.35-6.5c-2,.15-2.75.15-6.3.15H103.05c-3.5,0-4.3,0-6.25-.15a53.717,53.717,0,0,1,.3,5.95,44.111,44.111,0,0,1-.8,9.05,24.99,24.99,0,0,1-3,8.1c-1.25-.05-1.25-.05-2.95-.1A25.083,25.083,0,0,1,90.7-.8ZM99.8-4.7a28.44,28.44,0,0,0,2.7-7.6,48.974,48.974,0,0,0,.8-10h10.4V-4.7Zm39.55,6.85A16.843,16.843,0,0,1,139,6h7.05a22.526,22.526,0,0,1-.3-3.8V.7H164.7V2.3a14.165,14.165,0,0,1-.35,3.7h7.1a17.977,17.977,0,0,1-.35-4V-.85a26.434,26.434,0,0,1,.35-4c-1.65.1-1.9.1-2.95.1v-16.6a48.415,48.415,0,0,1,.35-6.5c-2,.15-2.75.15-6.3.15H151.7c-3.5,0-4.3,0-6.25-.15a53.717,53.717,0,0,1,.3,5.95,44.11,44.11,0,0,1-.8,9.05,24.99,24.99,0,0,1-3,8.1c-1.25-.05-1.25-.05-2.95-.1a25.083,25.083,0,0,1,.35,4.05Zm9.1-6.85a28.441,28.441,0,0,0,2.7-7.6,48.974,48.974,0,0,0,.8-10h10.4V-4.7Zm43.65-23c-2.65,0-3.65-.05-6-.15.05,1.25.1,1.75.1,2.85a22.2,22.2,0,0,1-.1,2.7l-.7,13.9c-.15,2.65-.9,3.8-2.55,3.8a4.221,4.221,0,0,1-2-.6L179.6.6a12.787,12.787,0,0,0,4.55.75A7.092,7.092,0,0,0,189.6-1c1.1-1.3,1.75-3.35,1.9-6.1l.85-15.15H202V-4.7a39.9,39.9,0,0,1-.35,5.45h7a36.992,36.992,0,0,1-.35-5.45V-22.3a38.876,38.876,0,0,1,.35-5.55c-1.85.1-3,.15-5.7.15Zm50.35,17v4.95a51.5,51.5,0,0,1-.35,6.5H249a49.633,49.633,0,0,1-.35-6.45V-21.45a49.864,49.864,0,0,1,.35-6.4c-2.05.1-3.6.15-6.3.15h-8.35c-6,0-9.5,2.85-9.5,7.75a6.681,6.681,0,0,0,2.65,5.8A6.966,6.966,0,0,0,231-12.8a4.423,4.423,0,0,0-2.1,1.25,21.667,21.667,0,0,0-3.15,5.25c-2.8,5.85-2.8,5.85-3.6,7.05h7.75a35.179,35.179,0,0,1,2.55-6.7c1.8-3.8,2.75-4.75,5-4.75Zm0-5.15h-7c-2.85,0-4.25-1.1-4.25-3.35s1.35-3.35,4.1-3.35h7.15ZM279.55.75a46.833,46.833,0,0,1-.35-6.4V-11.3h14.2v5.65a52.583,52.583,0,0,1-.35,6.4h6.9a47.818,47.818,0,0,1-.35-6.4v-15.6a44.778,44.778,0,0,1,.35-6.45h-6.9a51.212,51.212,0,0,1,.35,6.45v4.45H279.2v-4.5a49.342,49.342,0,0,1,.35-6.4h-6.9a52.024,52.024,0,0,1,.35,6.4V-5.65a39.629,39.629,0,0,1-.35,6.4Zm54,.15h6.75a40.216,40.216,0,0,1-.4-6.25v-13.5c0-3.4-.65-5.3-2.35-6.9-2.15-2.1-5.05-2.95-9.85-2.95-4.3,0-7.1.75-9.55,2.55-1.9,1.35-2.8,2.65-3.95,5.55l6.4,1.15a5.8,5.8,0,0,1,2-3.2,9.413,9.413,0,0,1,5.2-1.4c3.8,0,5.75,1.5,5.75,4.4v2.5c-7.15.15-10.85.7-14.1,2.05A8.819,8.819,0,0,0,313.8-7c0,5.2,3.7,8.4,9.8,8.4a17.692,17.692,0,0,0,4.65-.6,10.842,10.842,0,0,0,5.3-3.15Zm0-11.15a5.959,5.959,0,0,1-1.8,4.4A10.153,10.153,0,0,1,324.8-3.2c-2.8,0-4.55-1.45-4.55-3.85,0-3.9,3.75-5.5,13.3-5.75ZM355.6-27.7a54.654,54.654,0,0,1,.35,6.35v5.55c0,4.7,2.25,6.45,8.25,6.45a64.77,64.77,0,0,0,8.5-.6v4.4a57.585,57.585,0,0,1-.35,6.3h7a43.284,43.284,0,0,1-.35-6.2V-21.4a48.774,48.774,0,0,1,.35-6.3h-7a52.052,52.052,0,0,1,.35,6.3v6.6a52.332,52.332,0,0,1-5.7.3c-2.45,0-3-.05-3.7-.3-.7-.3-1.05-1-1.05-2.25v-4.3a47.028,47.028,0,0,1,.35-6.35Zm40.15,0a55.508,55.508,0,0,1,.35,6.4V-5.7a43.349,43.349,0,0,1-.4,6.45h7.1a27.606,27.606,0,0,1,2.8-4.6l9.6-12.7a8.738,8.738,0,0,0,.9-1.45c.05-.1.15-.25.3-.5-.05,1.05-.05,1.05-.1,2.65l-.05,10.2a45.872,45.872,0,0,1-.35,6.4h6.95a50.679,50.679,0,0,1-.35-6.45V-21.3a50.929,50.929,0,0,1,.35-6.4h-7a19.766,19.766,0,0,1-2.8,4.65l-9.45,12.6c-.3.4-.75,1.1-1.1,1.65a3.211,3.211,0,0,1-.3.5c.05-1.4.1-2.35.1-2.85v-10.1a50.153,50.153,0,0,1,.35-6.45ZM443.55.75a46.833,46.833,0,0,1-.35-6.4V-11.3h14.2v5.65a52.583,52.583,0,0,1-.35,6.4h6.9a47.818,47.818,0,0,1-.35-6.4v-15.6a44.778,44.778,0,0,1,.35-6.45h-6.9a51.212,51.212,0,0,1,.35,6.45v4.45H443.2v-4.5a49.342,49.342,0,0,1,.35-6.4h-6.9a52.024,52.024,0,0,1,.35,6.4V-5.65a39.629,39.629,0,0,1-.35,6.4Zm54,.15h6.75a40.216,40.216,0,0,1-.4-6.25v-13.5c0-3.4-.65-5.3-2.35-6.9-2.15-2.1-5.05-2.95-9.85-2.95-4.3,0-7.1.75-9.55,2.55-1.9,1.35-2.8,2.65-3.95,5.55l6.4,1.15a5.8,5.8,0,0,1,2-3.2,9.413,9.413,0,0,1,5.2-1.4c3.8,0,5.75,1.5,5.75,4.4v2.5c-7.15.15-10.85.7-14.1,2.05A8.819,8.819,0,0,0,477.8-7c0,5.2,3.7,8.4,9.8,8.4a17.692,17.692,0,0,0,4.65-.6,10.842,10.842,0,0,0,5.3-3.15Zm0-11.15a5.959,5.959,0,0,1-1.8,4.4A10.153,10.153,0,0,1,488.8-3.2c-2.8,0-4.55-1.45-4.55-3.85,0-3.9,3.75-5.5,13.3-5.75Zm24.1-1.3h3.6c.55,4.15,1.05,5.85,2.3,7.8,2.2,3.45,5.7,5.2,10.35,5.2,8.25,0,13.2-5.65,13.2-15.1,0-9.3-4.85-14.8-13-14.8a11.907,11.907,0,0,0-8.95,3.4c-1.95,2-2.85,4-3.8,8.45h-3.7v-4.65A49.633,49.633,0,0,1,522-27.7h-6.85a46.778,46.778,0,0,1,.35,6.5V-5.75a55.428,55.428,0,0,1-.35,6.5H522a52.038,52.038,0,0,1-.35-6.5Zm16.3,7.9A6,6,0,0,1,533.6-5.3c-1.55-1.65-2.45-4.6-2.45-8.1,0-6.25,2.6-9.95,6.9-9.95,4.25,0,6.75,3.6,6.75,9.7,0,3.5-.9,6.45-2.45,8.2A5.831,5.831,0,0,1,537.95-3.65Zm52.65-17.7a40.31,40.31,0,0,1,.4-6.35h-6.7a53.466,53.466,0,0,1,.35,6.35V-4.7H575.9V-21.35a48.028,48.028,0,0,1,.35-6.35h-6.5a49.056,49.056,0,0,1,.35,6.35V-4.7h-8.8V-21.35a42.375,42.375,0,0,1,.35-6.35H555a51.752,51.752,0,0,1,.35,6.35v15.8A50.153,50.153,0,0,1,555,.9c2.15-.1,3.45-.15,6.25-.15h25.6V2.3A16.319,16.319,0,0,1,586.5,6h7.05a18.694,18.694,0,0,1-.35-3.75v-3a32.405,32.405,0,0,1,.35-4.1c-1.55.1-1.55.1-2.95.15Zm10.15-6.35a55.508,55.508,0,0,1,.35,6.4V-5.7a43.353,43.353,0,0,1-.4,6.45h7.1a27.606,27.606,0,0,1,2.8-4.6l9.6-12.7a8.742,8.742,0,0,0,.9-1.45c.05-.1.15-.25.3-.5-.05,1.05-.05,1.05-.1,2.65l-.05,10.2a45.872,45.872,0,0,1-.35,6.4h6.95a50.679,50.679,0,0,1-.35-6.45V-21.3a50.929,50.929,0,0,1,.35-6.4h-7a19.766,19.766,0,0,1-2.8,4.65l-9.45,12.6c-.3.4-.75,1.1-1.1,1.65a3.21,3.21,0,0,1-.3.5c.05-1.4.1-2.35.1-2.85v-10.1a50.153,50.153,0,0,1,.35-6.45ZM670.05.9c-1.35-1.65-3-3.85-3.7-4.8l-7.3-10.2,6.75-9.45c.8-1.15,1.6-2.25,3.2-4.3h-7.75a24.746,24.746,0,0,1-2.1,3.8l-3.8,5.6-3.85-5.6a23.567,23.567,0,0,1-2.1-3.8h-7.8c2.25,2.9,2.65,3.45,3.2,4.2l6.8,9.55L644.1-3.65c-.85,1.2-2.4,3.2-3.5,4.55h8.05a27.009,27.009,0,0,1,2.15-3.8l4.5-6.7,4.35,6.4A26.683,26.683,0,0,1,662,.9ZM681.7-6.7h-7.35V.6h4.2c-.05,3.1-.75,4-3.8,4.85l1.8,2.65c4.05-1.6,5.15-3.2,5.15-7.5Z" transform="translate(169 452)" fill="#0080f4"/>
    </g>
    <g id="蒙版组_29" data-name="蒙版组 29" transform="translate(0 6)" clip-path="url(#clip-path)">
      <g id="组_21645" data-name="组 21645" transform="translate(607.025 42)" opacity="0.05">
        <g id="组_21643" data-name="组 21643" transform="translate(511.697 290.751)">
          <path id="路径_38579" data-name="路径 38579" d="M1013.384-159.409,893.756-228.476a25.412,25.412,0,0,1-12.707-22.007V-388.618a25.414,25.414,0,0,1,12.707-22.008l119.628-69.067a25.414,25.414,0,0,1,25.412,0l119.628,69.067a25.414,25.414,0,0,1,12.706,22.008v138.135a25.412,25.412,0,0,1-12.706,22.007L1038.8-159.409A25.414,25.414,0,0,1,1013.384-159.409Z" transform="translate(-864.619 497.837)" fill="none" stroke="#000" stroke-miterlimit="10" stroke-width="3"/>
          <line id="直线_476" data-name="直线 476" y1="17.727" transform="translate(0 103.269)" fill="none" stroke="#000" stroke-miterlimit="10" stroke-width="3"/>
          <line id="直线_477" data-name="直线 477" y1="81.974" transform="translate(0 137.481)" fill="none" stroke="#000" stroke-miterlimit="10" stroke-width="3"/>
          <line id="直线_478" data-name="直线 478" x1="14.725" y1="8.501" transform="translate(16.86 280.988)" fill="none" stroke="#000" stroke-miterlimit="10" stroke-width="3"/>
          <line id="直线_479" data-name="直线 479" x1="72.444" y1="41.826" transform="translate(45.325 297.423)" fill="none" stroke="#000" stroke-miterlimit="10" stroke-width="3"/>
          <line id="直线_480" data-name="直线 480" x1="14.226" y2="8.214" transform="translate(179.284 346.787)" fill="none" stroke="#000" stroke-miterlimit="10" stroke-width="3"/>
          <line id="直线_481" data-name="直线 481" x1="71.959" y2="41.545" transform="translate(208.141 296.794)" fill="none" stroke="#000" stroke-miterlimit="10" stroke-width="3"/>
          <line id="直线_482" data-name="直线 482" y2="16.824" transform="translate(324.336 235.376)" fill="none" stroke="#000" stroke-miterlimit="10" stroke-width="3"/>
          <line id="直线_483" data-name="直线 483" y2="82.877" transform="translate(324.336 134.545)" fill="none" stroke="#000" stroke-miterlimit="10" stroke-width="3"/>
          <line id="直线_484" data-name="直线 484" x2="14.76" y2="8.522" transform="translate(292.842 65.816)" fill="none" stroke="#000" stroke-miterlimit="10" stroke-width="3"/>
          <line id="直线_485" data-name="直线 485" x2="72.021" y2="41.581" transform="translate(206.279 15.839)" fill="none" stroke="#000" stroke-miterlimit="10" stroke-width="3"/>
          <line id="直线_486" data-name="直线 486" y1="8.291" x2="14.36" transform="translate(131.131)" fill="none" stroke="#000" stroke-miterlimit="10" stroke-width="3" opacity="0.5"/>
          <line id="直线_487" data-name="直线 487" y1="41.224" x2="71.402" transform="translate(44.349 17.17)" fill="none" stroke="#000" stroke-miterlimit="10" stroke-width="3"/>
        </g>
        <path id="路径_38580" data-name="路径 38580" d="M1168.183-454.584l-61.941-35.762a25.41,25.41,0,0,1-12.705-22.007v-71.525a25.41,25.41,0,0,1,12.705-22.007l61.941-35.761a25.407,25.407,0,0,1,25.412,0l61.941,35.761a25.412,25.412,0,0,1,12.706,22.007v71.525a25.412,25.412,0,0,1-12.706,22.007l-61.941,35.762A25.413,25.413,0,0,1,1168.183-454.584Z" transform="translate(-277.502 731.103)" fill="none" stroke="#000" stroke-miterlimit="10" stroke-width="3"/>
        <path id="路径_38581" data-name="路径 38581" d="M1179.55-501.2l-11.514,6.647a25.756,25.756,0,0,1-2.492,1.263" transform="translate(-251.943 782.163)" fill="none" stroke="#000" stroke-miterlimit="10" stroke-width="3"/>
        <path id="路径_38582" data-name="路径 38582" d="M1245.692-539.016a25.417,25.417,0,0,1-11.963,15.9l-48.381,27.932" transform="translate(-244.914 768.74)" fill="none" stroke="#000" stroke-miterlimit="10" stroke-width="3"/>
        <line id="直线_488" data-name="直线 488" y2="15.751" transform="translate(1001.521 156.114)" fill="none" stroke="#000" stroke-miterlimit="10" stroke-width="3"/>
        <path id="路径_38583" data-name="路径 38583" d="M1190.822-638.194l40.964,23.652a25.408,25.408,0,0,1,12.705,22.007" transform="translate(-242.971 733.537)" fill="none" stroke="#000" stroke-miterlimit="10" stroke-width="3"/>
        <path id="路径_38584" data-name="路径 38584" d="M1141.4-645.793l9.8-5.66q.987-.569,2.009-1.043" transform="translate(-260.515 728.461)" fill="none" stroke="#000" stroke-miterlimit="10" stroke-width="3"/>
        <path id="路径_38585" data-name="路径 38585" d="M1086.423-598.847a25.41,25.41,0,0,1,11.563-14.468l49.078-28.336" transform="translate(-280.027 732.31)" fill="none" stroke="#000" stroke-miterlimit="10" stroke-width="3"/>
        <path id="路径_38587" data-name="路径 38587" d="M1006.642-454.15l51.553-92.369a25.409,25.409,0,0,1,21.82-13.025l32.868-.478" transform="translate(-308.344 761.284)" fill="none" stroke="#000" stroke-miterlimit="10" stroke-width="3"/>
        <path id="路径_38588" data-name="路径 38588" d="M1310-590l-11.883,26.319c-2.99,6.623-8.145,10.387-13.524,9.874l-4.273-.406" transform="translate(-190.893 750.645)" fill="none" stroke="#000" stroke-miterlimit="10" stroke-width="3"/>
        <path id="路径_38589" data-name="路径 38589" d="M1329.37-344.239l-16.242-26.171a25.411,25.411,0,0,0-22.4-12l-15.338.229" transform="translate(-212.954 824.322)" fill="none" stroke="#000" stroke-miterlimit="10" stroke-width="3"/>
        <path id="路径_38590" data-name="路径 38590" d="M1157.853-63.183,1110.43-90.564a25.412,25.412,0,0,1-12.707-22.007v-54.76a25.41,25.41,0,0,1,12.707-22.007l47.423-27.381a25.413,25.413,0,0,1,25.412,0l47.425,27.381a25.409,25.409,0,0,1,12.705,22.007v54.76a25.411,25.411,0,0,1-12.705,22.007l-47.425,27.381A25.413,25.413,0,0,1,1157.853-63.183Z" transform="translate(-276.016 881.929)" fill="none" stroke="#000" stroke-miterlimit="10" stroke-width="3"/>
        <path id="路径_38592" data-name="路径 38592" d="M1120.55-95.561l-16.971-9.8a25.416,25.416,0,0,1-12.705-22.008v-35.976" transform="translate(-278.447 902.082)" fill="none" stroke="#000" stroke-miterlimit="10" stroke-width="3"/>
        <path id="路径_38593" data-name="路径 38593" d="M1172.6-100.947l-10.7,6.18a25.448,25.448,0,0,1-3.979,1.859" transform="translate(-254.65 924.229)" fill="none" stroke="#000" stroke-miterlimit="10" stroke-width="3"/>
        <path id="路径_38594" data-name="路径 38594" d="M1223.06-151.51v19.943a25.414,25.414,0,0,1-12.707,22.008l-29.191,16.853" transform="translate(-246.4 906.282)" fill="none" stroke="#000" stroke-miterlimit="10" stroke-width="3"/>
        <path id="路径_38595" data-name="路径 38595" d="M1195.024-205.792l10.409,6.009a25.435,25.435,0,0,1,4.158,3" transform="translate(-241.48 887.015)" fill="none" stroke="#000" stroke-miterlimit="10" stroke-width="3"/>
        <path id="路径_38597" data-name="路径 38597" d="M562.612-422.758,511.14-452.474a25.411,25.411,0,0,1-12.705-22.007v-59.435a25.41,25.41,0,0,1,12.705-22.007l51.471-29.717a25.413,25.413,0,0,1,25.412,0l51.47,29.717A25.412,25.412,0,0,1,652.2-533.916v59.435a25.412,25.412,0,0,1-12.707,22.007l-51.47,29.717A25.414,25.414,0,0,1,562.612-422.758Z" transform="translate(-488.728 750.983)" fill="none" stroke="#000" stroke-miterlimit="10" stroke-width="3"/>
        <g id="组_21644" data-name="组 21644" transform="translate(0 150.731)">
          <path id="路径_38598" data-name="路径 38598" d="M491.271-537.949v-13.414a25.314,25.314,0,0,1,.369-4.313" transform="translate(-491.271 612.095)" fill="none" stroke="#000" stroke-miterlimit="10" stroke-width="3"/>
          <path id="路径_38599" data-name="路径 38599" d="M522.553-457.247l-18.576-10.724a25.413,25.413,0,0,1-12.705-22.007v-39.614" transform="translate(-491.271 621.353)" fill="none" stroke="#000" stroke-miterlimit="10" stroke-width="3"/>
          <line id="直线_489" data-name="直线 489" x1="12.539" y2="7.24" transform="translate(99.295 181.463)" fill="none" stroke="#000" stroke-miterlimit="10" stroke-width="3"/>
          <path id="路径_38600" data-name="路径 38600" d="M631.261-500.356a25.452,25.452,0,0,1-.365,4.288,25.419,25.419,0,0,1-12.342,17.719l-33.776,19.5" transform="translate(-458.081 631.731)" fill="none" stroke="#000" stroke-miterlimit="10" stroke-width="3"/>
          <path id="路径_38601" data-name="路径 38601" d="M601.06-573.727l11.715,6.764a25.517,25.517,0,0,1,3,2.033" transform="translate(-452.302 605.688)" fill="none" stroke="#000" stroke-miterlimit="10" stroke-width="3"/>
          <path id="路径_38602" data-name="路径 38602" d="M532.161-583.242l18.48-10.669a25.413,25.413,0,0,1,25.412,0l33.682,19.446" transform="translate(-476.757 597.316)" fill="none" stroke="#000" stroke-miterlimit="10" stroke-width="3"/>
        </g>
        <path id="路径_38603" data-name="路径 38603" d="M784.13-130.363,736.539-157.84a25.409,25.409,0,0,1-12.705-22.007V-234.8a25.411,25.411,0,0,1,12.705-22.007l47.591-27.477a25.414,25.414,0,0,1,25.412,0l47.591,27.477A25.411,25.411,0,0,1,869.839-234.8v54.954a25.409,25.409,0,0,1-12.705,22.007l-47.591,27.477A25.413,25.413,0,0,1,784.13-130.363Z" transform="translate(-408.725 857.947)" fill="none" stroke="#000" stroke-miterlimit="10" stroke-width="3"/>
        <path id="路径_38604" data-name="路径 38604" d="M856.246-197.36a25.408,25.408,0,0,1-10.913,12.629l-56.885,32.842a25.435,25.435,0,0,1-4.244,1.954" transform="translate(-387.297 890.008)" fill="none" stroke="#000" stroke-miterlimit="10" stroke-width="3"/>
        <path id="路径_38605" data-name="路径 38605" d="M821.241-273.667l10.946,6.321a25.412,25.412,0,0,1,12.707,22.007v56.569" transform="translate(-374.151 862.924)" fill="none" stroke="#000" stroke-miterlimit="10" stroke-width="3"/>
        <path id="路径_38606" data-name="路径 38606" d="M719.27-249.4a25.416,25.416,0,0,1,6.6-8.165,25.443,25.443,0,0,1,3.331-2.294l56.884-32.842a25.554,25.554,0,0,1,4.493-2.042" transform="translate(-410.345 855.441)" fill="none" stroke="#000" stroke-miterlimit="10" stroke-width="3"/>
        <path id="路径_38607" data-name="路径 38607" d="M740.3-161.8l-10.378-5.992A25.413,25.413,0,0,1,717.222-189.8v-55.3" transform="translate(-411.072 873.066)" fill="none" stroke="#000" stroke-miterlimit="10" stroke-width="3"/>
        <path id="路径_38608" data-name="路径 38608" d="M801.881-428.266l-69.77-40.283a25.409,25.409,0,0,1-12.705-22.007v-80.563a25.413,25.413,0,0,1,12.705-22.008l69.77-40.281a25.407,25.407,0,0,1,25.412,0l69.771,40.281a25.413,25.413,0,0,1,12.705,22.008v80.563a25.409,25.409,0,0,1-12.705,22.007l-69.771,40.283A25.414,25.414,0,0,1,801.881-428.266Z" transform="translate(-410.296 734.028)" fill="none" stroke="#000" stroke-miterlimit="10" stroke-width="3"/>
        <line id="直线_490" data-name="直线 490" y1="16.767" transform="translate(297.366 214.546)" fill="none" stroke="#000" stroke-miterlimit="10" stroke-width="3"/>
        <path id="路径_38609" data-name="路径 38609" d="M769.423-475.312l-45.979-26.546a25.411,25.411,0,0,1-12.705-22.007" transform="translate(-413.373 774.118)" fill="none" stroke="#000" stroke-miterlimit="10" stroke-width="3"/>
        <line id="直线_491" data-name="直线 491" x1="13.364" y2="7.715" transform="translate(416.997 311.606)" fill="none" stroke="#000" stroke-miterlimit="10" stroke-width="3"/>
        <line id="直线_492" data-name="直线 492" y2="16.429" transform="translate(511.217 174.914)" fill="none" stroke="#000" stroke-miterlimit="10" stroke-width="3"/>
        <path id="路径_38611" data-name="路径 38611" d="M825.669-628.929,871.091-602.7A25.412,25.412,0,0,1,883.8-580.7v2.356" transform="translate(-372.579 736.826)" fill="none" stroke="#000" stroke-miterlimit="10" stroke-width="3"/>
        <line id="直线_493" data-name="直线 493" y1="7.232" x2="12.526" transform="translate(379.059 87.059)" fill="none" stroke="#000" stroke-miterlimit="10" stroke-width="3"/>
        <path id="路径_38612" data-name="路径 38612" d="M711.649-587.054a25.4,25.4,0,0,1,11.472-14.186l55.105-31.815" transform="translate(-413.05 735.361)" fill="none" stroke="#000" stroke-miterlimit="10" stroke-width="3"/>
        <path id="路径_38613" data-name="路径 38613" d="M1372.351-532.955l-51.737-29.87a25.411,25.411,0,0,1-12.705-22.007v-59.741a25.412,25.412,0,0,1,12.705-22.008l51.737-29.87a25.413,25.413,0,0,1,25.412,0l51.737,29.87a25.412,25.412,0,0,1,12.705,22.008v59.741a25.41,25.41,0,0,1-12.705,22.007l-51.737,29.87A25.407,25.407,0,0,1,1372.351-532.955Z" transform="translate(-201.412 711.652)" fill="none" stroke="#000" stroke-miterlimit="10" stroke-width="3"/>
        <path id="路径_38614" data-name="路径 38614" d="M1329.118-684.711l35.413-20.446a25.418,25.418,0,0,1,22.385-1.489" transform="translate(-193.884 708.561)" fill="none" stroke="#000" stroke-miterlimit="10" stroke-width="3"/>
        <path id="路径_38615" data-name="路径 38615" d="M1300.6-602.032v-61.074q0-1.079.091-2.145" transform="translate(-204.005 723.934)" fill="none" stroke="#000" stroke-miterlimit="10" stroke-width="3"/>
        <path id="路径_38616" data-name="路径 38616" d="M1349.115-569.714l-35.888-20.721a25.411,25.411,0,0,1-12.388-18" transform="translate(-203.922 744.102)" fill="none" stroke="#000" stroke-miterlimit="10" stroke-width="3"/>
        <path id="路径_38617" data-name="路径 38617" d="M1427.84-591.61,1374.8-560.988a25.447,25.447,0,0,1-3.027,1.489" transform="translate(-178.743 750.072)" fill="none" stroke="#000" stroke-miterlimit="10" stroke-width="3"/>
        <path id="路径_38618" data-name="路径 38618" d="M1431.988-641.676v41.035a25.409,25.409,0,0,1-12.705,22.007" transform="translate(-161.881 732.302)" fill="none" stroke="#000" stroke-miterlimit="10" stroke-width="3"/>
        <path id="路径_38619" data-name="路径 38619" d="M1380.022-702.577l53.2,30.713a25.521,25.521,0,0,1,2.8,1.876" transform="translate(-175.816 710.685)" fill="none" stroke="#000" stroke-miterlimit="10" stroke-width="3"/>
        <path id="路径_38620" data-name="路径 38620" d="M1367.019-184.949,1305.1-220.7a25.41,25.41,0,0,1-12.707-22.007v-71.5a25.412,25.412,0,0,1,12.707-22.007l61.921-35.75a25.414,25.414,0,0,1,25.412,0l61.921,35.75a25.412,25.412,0,0,1,12.707,22.007v71.5a25.41,25.41,0,0,1-12.707,22.007l-61.921,35.75A25.407,25.407,0,0,1,1367.019-184.949Z" transform="translate(-206.92 826.826)" fill="none" stroke="#000" stroke-miterlimit="10" stroke-width="3"/>
        <path id="路径_38623" data-name="路径 38623" d="M1437.682-300.676v36.05a25.415,25.415,0,0,1-12.705,22.007l-21.469,12.395" transform="translate(-167.48 853.337)" fill="none" stroke="#000" stroke-miterlimit="10" stroke-width="3"/>
        <path id="路径_38624" data-name="路径 38624" d="M1393.159-366.481l35.49,20.489a25.558,25.558,0,0,1,2.438,1.6" transform="translate(-171.153 829.98)" fill="none" stroke="#000" stroke-miterlimit="10" stroke-width="3"/>
        <path id="路径_38625" data-name="路径 38625" d="M1324.258-362.629l31.8-18.361a25.413,25.413,0,0,1,25.412,0l21.491,12.407" transform="translate(-195.609 823.622)" fill="none" stroke="#000" stroke-miterlimit="10" stroke-width="3"/>
        <path id="路径_38626" data-name="路径 38626" d="M611.92-521.478h56.542a13.1,13.1,0,0,0,13.1-13.1v-24.163A16.936,16.936,0,0,1,698.5-575.676h59.061" transform="translate(-448.448 755.728)" fill="none" stroke="#000" stroke-miterlimit="10" stroke-width="3"/>
        <line id="直线_495" data-name="直线 495" x2="69.102" transform="translate(838.319 443.362)" fill="none" stroke="#000" stroke-miterlimit="10" stroke-width="3"/>
        <line id="直线_496" data-name="直线 496" x2="76.046" transform="translate(924.302 443.193)" fill="none" stroke="#000" stroke-miterlimit="10" stroke-width="3"/>
        <path id="路径_38628" data-name="路径 38628" d="M43.311,63.448" transform="translate(508.511 308.169)" fill="none" stroke="#000" stroke-width="3"/>
        <line id="直线_499" data-name="直线 499" y2="15.356" transform="translate(806.397 193.262)" fill="none" stroke="#000" stroke-miterlimit="10" stroke-width="3"/>
        <line id="直线_501" data-name="直线 501" x2="38.656" y2="59.054" transform="translate(729.206 623.681)" fill="none" stroke="#000" stroke-miterlimit="10" stroke-width="3"/>
        <line id="直线_502" data-name="直线 502" x1="42.491" y2="63.049" transform="translate(540.853 603.371)" fill="none" stroke="#000" stroke-miterlimit="10" stroke-width="3"/>
        <path id="路径_38627" data-name="路径 38627" d="M831.02-202.357h57.422s8.581.595,13.1-4.486" transform="translate(-370.68 886.642)" fill="none" stroke="#000" stroke-miterlimit="10" stroke-width="3"/>
      </g>
    </g>
  </g>
</svg>
