<svg xmlns="http://www.w3.org/2000/svg" xmlns:xlink="http://www.w3.org/1999/xlink" width="1820" height="880" viewBox="0 0 1820 880">
  <defs>
    <clipPath id="clip-path">
      <rect id="矩形_2278" data-name="矩形 2278" width="1820" height="880" transform="translate(50 82)" fill="#fff"/>
    </clipPath>
  </defs>
  <g id="banner" transform="translate(-50 -88)">
    <g id="组_21710" data-name="组 21710" transform="translate(0 42)">
      <path id="路径_40969" data-name="路径 40969" d="M11.121-9.318a3.022,3.022,0,0,0-.406.813,8.414,8.414,0,0,0-.3,1.155,13.062,13.062,0,0,0-.19,1.371q-.063.724-.063,1.46V0H3.809V-6.5a10.824,10.824,0,0,0-.317-2.412q-.292-1.168-.622-2.4t-.609-2.6a15.024,15.024,0,0,1-.279-3,8.495,8.495,0,0,1,1-4.177,8.755,8.755,0,0,1,2.831-3.047A13.674,13.674,0,0,1,10.22-26a23.956,23.956,0,0,1,5.726-.635,23.64,23.64,0,0,1,5.9.673,12.656,12.656,0,0,1,4.405,2.006A8.691,8.691,0,0,1,29-20.63a10.7,10.7,0,0,1,.939,4.608V0H23.613V-15.437a7.155,7.155,0,0,0-.381-2.349,4.786,4.786,0,0,0-1.206-1.9,6.372,6.372,0,0,0-2.311-1.333,11.311,11.311,0,0,0-3.771-.533,11.834,11.834,0,0,0-3.771.508A6.292,6.292,0,0,0,9.89-19.792,4.622,4.622,0,0,0,8.709-18.04a5.851,5.851,0,0,0-.381,2.095,8.1,8.1,0,0,0,.267,2.158q.267.965.571,2.031a6.746,6.746,0,0,1,.99-1.917,7.021,7.021,0,0,1,1.46-1.46,6.464,6.464,0,0,1,1.752-.927,5.726,5.726,0,0,1,1.866-.317,5.664,5.664,0,0,1,2.044.355,4.574,4.574,0,0,1,1.587,1A4.455,4.455,0,0,1,19.881-13.5a5.121,5.121,0,0,1,.355,1.942,5.121,5.121,0,0,1-.355,1.942A4.605,4.605,0,0,1,18.9-8.1a4.342,4.342,0,0,1-1.511.99,5.219,5.219,0,0,1-1.955.355A5.021,5.021,0,0,1,12.8-7.427,4.191,4.191,0,0,1,11.121-9.318Zm4.316-4.189a1.885,1.885,0,0,0-1.384.571,1.885,1.885,0,0,0-.571,1.384,1.885,1.885,0,0,0,.571,1.384,1.885,1.885,0,0,0,1.384.571,1.885,1.885,0,0,0,1.384-.571,1.885,1.885,0,0,0,.571-1.384,1.885,1.885,0,0,0-.571-1.384A1.885,1.885,0,0,0,15.438-13.508ZM22.3,9.217A5.6,5.6,0,0,0,24.3,8.925a2.23,2.23,0,0,0,1.155-1,4.832,4.832,0,0,0,.533-1.866q.127-1.155.152-2.882h3.936q0,1.066-.076,2.146a12.147,12.147,0,0,1-.33,2.095,7.943,7.943,0,0,1-.724,1.879,5.092,5.092,0,0,1-1.282,1.523,5.915,5.915,0,0,1-1.993,1.028,9.677,9.677,0,0,1-2.856.368H18.342V8.48H18.19a2.779,2.779,0,0,1-1.13-.229,3.085,3.085,0,0,1-.914-.609,2.625,2.625,0,0,1-.609-.914,3.016,3.016,0,0,1-.216-1.143,2.845,2.845,0,0,1,.2-1.066,2.661,2.661,0,0,1,.6-.9,2.991,2.991,0,0,1,.965-.635,3.336,3.336,0,0,1,1.308-.241,3.044,3.044,0,0,1,2.311.851,2.949,2.949,0,0,1,.813,2.12v3.5ZM17.149,5.586a1.04,1.04,0,1,0,.3-.736A1,1,0,0,0,17.149,5.586Zm9.186-42.148h3.555v8.379H26.335ZM65.469,0a12.921,12.921,0,0,0-1.752-2.247,22.026,22.026,0,0,0-2.272-2.044,13.188,13.188,0,0,0-3.3-1.777,11.637,11.637,0,0,0-3.339-.889v.863a6.694,6.694,0,0,1-1.612,4.812A5.737,5.737,0,0,1,48.839.406,7.686,7.686,0,0,1,43.811-.965a5.016,5.016,0,0,1-1.625-4.062,5.7,5.7,0,0,1,.5-2.45A5.013,5.013,0,0,1,44.04-9.242a6.6,6.6,0,0,1,2.006-1.117,9.45,9.45,0,0,1,2.438-.508v-6.246l-.229-.025a4.88,4.88,0,0,1-1.625-.482,4.508,4.508,0,0,1-1.32-.99,4.509,4.509,0,0,1-.876-1.422,4.916,4.916,0,0,1-.317-1.8,5.254,5.254,0,0,1,.381-2.082,4.038,4.038,0,0,1,1.092-1.5,4.715,4.715,0,0,1,1.688-.914,7.182,7.182,0,0,1,2.146-.3A5.454,5.454,0,0,1,53.231-25.2a5.71,5.71,0,0,1,1.574,4.431v9.953a17.35,17.35,0,0,1,3.491.66,20.8,20.8,0,0,1,3.364,1.181,23.324,23.324,0,0,1,2.3,1.257A8.749,8.749,0,0,1,65.723-6.3V-26.254h6.322V0ZM50.87-21.836A1.885,1.885,0,0,0,50.3-23.22a1.885,1.885,0,0,0-1.384-.571,1.885,1.885,0,0,0-1.384.571,1.885,1.885,0,0,0-.571,1.384,1.885,1.885,0,0,0,.571,1.384,1.885,1.885,0,0,0,1.384.571,1.885,1.885,0,0,0,1.384-.571A1.885,1.885,0,0,0,50.87-21.836ZM48.483-7.059q-2.615.279-2.615,2.438a2,2,0,0,0,.355,1.295,1.131,1.131,0,0,0,.914.432,1.2,1.2,0,0,0,1-.432A2.414,2.414,0,0,0,48.483-4.8ZM70.406-27.854q-3.123-.508-5.992-.851t-5.662-.546q-2.793-.2-5.6-.279t-5.8-.076a8.512,8.512,0,0,1,3.618-5.116,12.833,12.833,0,0,1,7.147-1.79,14.428,14.428,0,0,1,2.209.165,16.453,16.453,0,0,1,2.107.47v-2.742H65.48v4.139a10.965,10.965,0,0,1,1.879,1.422v-5.561h3.047ZM58.142-33.947q-4.621,0-5.789,2.311,3.631,0,6.855.2t6.2.584a6.286,6.286,0,0,0-1.117-1.181,7.109,7.109,0,0,0-1.6-.99,10.286,10.286,0,0,0-2.057-.673A11.469,11.469,0,0,0,58.142-33.947ZM86.581-10.512a5.684,5.684,0,0,1,1.587-4.431,5.466,5.466,0,0,1,3.8-1.435,7.149,7.149,0,0,1,2.158.3,4.729,4.729,0,0,1,1.676.914,4.038,4.038,0,0,1,1.092,1.5,5.254,5.254,0,0,1,.381,2.082,5.018,5.018,0,0,1-.317,1.815,4.361,4.361,0,0,1-.889,1.435,4.741,4.741,0,0,1-1.32.99,4.779,4.779,0,0,1-1.638.482l-.178.025q.025.939,1.333,1.523a11.419,11.419,0,0,0,4.3.584,10.394,10.394,0,0,0,2.933-.33,5.466,5.466,0,0,0,1.828-.927,4.278,4.278,0,0,0,1.219-1.663,6.06,6.06,0,0,0,.47-2.463v-5.053a6.939,6.939,0,0,0-.6-3.1,5.2,5.2,0,0,0-1.511-1.879,6.625,6.625,0,0,0-2.361-1.054,14.153,14.153,0,0,0-3.453-.368,21.538,21.538,0,0,0-3.136.241,27.029,27.029,0,0,0-3.212.673,25.175,25.175,0,0,0-2.983,1.016,16.077,16.077,0,0,0-2.45,1.244v-5.84a12.169,12.169,0,0,1,2.361-1.092,20.6,20.6,0,0,1,2.831-.749,29.923,29.923,0,0,1,3.174-.432q1.663-.14,3.415-.14,7.084,0,10.664,2.7t3.58,7.909v5.764a13.893,13.893,0,0,1-.7,4.621A7.689,7.689,0,0,1,108.4-2.323a10.045,10.045,0,0,1-3.961,2.006,22.24,22.24,0,0,1-5.878.673,22.7,22.7,0,0,1-5.789-.622,10.2,10.2,0,0,1-3.682-1.7,5.968,5.968,0,0,1-1.942-2.564,8.8,8.8,0,0,1-.571-3.187Zm3.936-1.066a1.885,1.885,0,0,0,.571,1.384,1.885,1.885,0,0,0,1.384.571,1.885,1.885,0,0,0,1.384-.571,1.885,1.885,0,0,0,.571-1.384,1.885,1.885,0,0,0-.571-1.384,1.885,1.885,0,0,0-1.384-.571,1.885,1.885,0,0,0-1.384.571A1.885,1.885,0,0,0,90.517-11.578Zm49.194-3.783,8.3,9.293V-26.254h6.322V0h-5.941l-8.684-9.471L131.586,0h-5.967V-20.77a5.71,5.71,0,0,1,1.574-4.431A5.454,5.454,0,0,1,131-26.635a7.149,7.149,0,0,1,2.158.3,4.729,4.729,0,0,1,1.676.914,4.038,4.038,0,0,1,1.092,1.5,5.254,5.254,0,0,1,.381,2.082,4.916,4.916,0,0,1-.317,1.8,4.509,4.509,0,0,1-.876,1.422,4.564,4.564,0,0,1-1.308.99,4.779,4.779,0,0,1-1.638.482l-.2.025V-6.068Zm-10.156-6.475a1.885,1.885,0,0,0,.571,1.384,1.885,1.885,0,0,0,1.384.571,1.885,1.885,0,0,0,1.384-.571,1.885,1.885,0,0,0,.571-1.384,1.885,1.885,0,0,0-.571-1.384,1.885,1.885,0,0,0-1.384-.571,1.885,1.885,0,0,0-1.384.571A1.885,1.885,0,0,0,129.555-21.836ZM146.034,9.217a5.6,5.6,0,0,0,1.993-.292,2.23,2.23,0,0,0,1.155-1,4.832,4.832,0,0,0,.533-1.866q.127-1.155.152-2.882H153.8q0,1.066-.076,2.146a12.147,12.147,0,0,1-.33,2.095,7.943,7.943,0,0,1-.724,1.879,5.092,5.092,0,0,1-1.282,1.523,5.915,5.915,0,0,1-1.993,1.028,9.677,9.677,0,0,1-2.856.368h-4.469V8.48h-.152a2.779,2.779,0,0,1-1.13-.229,3.085,3.085,0,0,1-.914-.609,2.625,2.625,0,0,1-.609-.914,3.016,3.016,0,0,1-.216-1.143,2.845,2.845,0,0,1,.2-1.066,2.661,2.661,0,0,1,.6-.9,2.991,2.991,0,0,1,.965-.635,3.336,3.336,0,0,1,1.308-.241,3.044,3.044,0,0,1,2.311.851,2.949,2.949,0,0,1,.813,2.12v3.5ZM140.88,5.586a1.04,1.04,0,1,0,.3-.736A1,1,0,0,0,140.88,5.586Zm11.082-39.533a3.77,3.77,0,0,1-.343.546,2.409,2.409,0,0,1-.559.533,3.313,3.313,0,0,1-.812.406,3.248,3.248,0,0,1-1.079.165,3.2,3.2,0,0,1-1.257-.241,2.978,2.978,0,0,1-.99-.673,3.19,3.19,0,0,1-.66-1.016,3.293,3.293,0,0,1-.241-1.27,2.811,2.811,0,0,1,1.066-2.209,4.678,4.678,0,0,1,3.123-.914,6.635,6.635,0,0,1,2.057.3,4.956,4.956,0,0,1,1.612.851,3.729,3.729,0,0,1,1.041,1.333,4.085,4.085,0,0,1,.368,1.752,4.487,4.487,0,0,1-2.26,4.012,6.729,6.729,0,0,0,3.428-.749,5.119,5.119,0,0,0,1.93-1.942,7.59,7.59,0,0,0,.863-2.653,24.152,24.152,0,0,0,.229-2.907h4.139q-.127,1.727-.343,3.174a11.8,11.8,0,0,1-.673,2.6,6.977,6.977,0,0,1-1.219,2.031,6.1,6.1,0,0,1-1.955,1.46,10.731,10.731,0,0,1-2.907.876,24.626,24.626,0,0,1-4.075.292h-3.2v-2.234a4.028,4.028,0,0,0,1.942-1.27A3.376,3.376,0,0,0,151.962-33.947ZM148-35.471a1.368,1.368,0,0,0,.419,1,1.368,1.368,0,0,0,1,.419,1.368,1.368,0,0,0,1-.419,1.368,1.368,0,0,0,.419-1,1.368,1.368,0,0,0-.419-1,1.368,1.368,0,0,0-1-.419,1.368,1.368,0,0,0-1,.419A1.368,1.368,0,0,0,148-35.471ZM183.471-4.545a1.885,1.885,0,0,0,.571,1.384,1.885,1.885,0,0,0,1.384.571,1.885,1.885,0,0,0,1.384-.571,1.885,1.885,0,0,0,.571-1.384,1.885,1.885,0,0,0-.571-1.384,1.885,1.885,0,0,0-1.384-.571,1.885,1.885,0,0,0-1.384.571A1.885,1.885,0,0,0,183.471-4.545Zm2.412-4.723.2.025a4.88,4.88,0,0,1,1.625.482,4.508,4.508,0,0,1,1.32.99,4.509,4.509,0,0,1,.876,1.422,4.916,4.916,0,0,1,.317,1.8,5.254,5.254,0,0,1-.381,2.082,4.038,4.038,0,0,1-1.092,1.5,4.715,4.715,0,0,1-1.688.914,7.182,7.182,0,0,1-2.146.3A5.441,5.441,0,0,1,181.1-1.181a5.737,5.737,0,0,1-1.562-4.431v-24.73a24.575,24.575,0,0,1,.254-3.542,7.767,7.767,0,0,1,.736-2.374,5.626,5.626,0,0,1,1.32-1.663A14.251,14.251,0,0,1,183.8-39.3a6,6,0,0,0-.216-1.663,4.334,4.334,0,0,0-.851-1.523,4.116,4.116,0,0,0-1.777-1.206,7.854,7.854,0,0,0-2.768-.432,9.436,9.436,0,0,0-3.618.635,5.06,5.06,0,0,0-2.3,1.727,1.051,1.051,0,0,1,.317-.063q.19-.013.317-.013a5.121,5.121,0,0,1,1.942.355,4.605,4.605,0,0,1,1.511.978,4.342,4.342,0,0,1,.99,1.511,5.218,5.218,0,0,1,.355,1.955,5.218,5.218,0,0,1-.355,1.955,4.342,4.342,0,0,1-.99,1.511,4.605,4.605,0,0,1-1.511.978,5.121,5.121,0,0,1-1.942.355,5.473,5.473,0,0,1-2.4-.5,4.949,4.949,0,0,1-1.739-1.384,6.015,6.015,0,0,1-1.066-2.133A9.96,9.96,0,0,1,167.348-39a9.453,9.453,0,0,1,.736-3.771,7.937,7.937,0,0,1,2.184-2.945,10.314,10.314,0,0,1,3.593-1.917,20.147,20.147,0,0,1,5.9-.686,13.93,13.93,0,0,1,3.923.635,10.731,10.731,0,0,1,3.631,1.8,7.762,7.762,0,0,1,2.272,2.856,8.817,8.817,0,0,1,.787,3.771,12.312,12.312,0,0,0-2.133,1.473,6.12,6.12,0,0,0-1.384,1.752,7.8,7.8,0,0,0-.749,2.272,17.355,17.355,0,0,0-.229,3.009Zm-14.93-27.777a1.885,1.885,0,0,0,.571,1.384,1.885,1.885,0,0,0,1.384.571,1.885,1.885,0,0,0,1.384-.571,1.885,1.885,0,0,0,.571-1.384,1.885,1.885,0,0,0-.571-1.384A1.885,1.885,0,0,0,172.909-39a1.885,1.885,0,0,0-1.384.571A1.885,1.885,0,0,0,170.954-37.045Zm33.1,21.684a1.885,1.885,0,0,0,.571,1.384,1.885,1.885,0,0,0,1.384.571,1.885,1.885,0,0,0,1.384-.571,1.885,1.885,0,0,0,.571-1.384,1.885,1.885,0,0,0-.571-1.384,1.885,1.885,0,0,0-1.384-.571,1.885,1.885,0,0,0-1.384.571A1.885,1.885,0,0,0,204.05-15.361Zm29.479,8.074a8.67,8.67,0,0,1-.482,2.945,6.238,6.238,0,0,1-1.435,2.311,6.488,6.488,0,0,1-2.361,1.5A9.11,9.11,0,0,1,226.013,0H212.2V-8.658a22.743,22.743,0,0,1,.229-3.542,7.767,7.767,0,0,1,.736-2.374,5.626,5.626,0,0,1,1.32-1.663,14.251,14.251,0,0,1,1.955-1.384,5.881,5.881,0,0,0-.254-1.739,3.758,3.758,0,0,0-.876-1.485,5.238,5.238,0,0,0-1.638-1.13,6.046,6.046,0,0,0-2.539-.47,8.416,8.416,0,0,0-3.555.724,5.326,5.326,0,0,0-2.209,1.638,1.051,1.051,0,0,1,.317-.063q.19-.013.317-.013a5.121,5.121,0,0,1,1.942.355,4.605,4.605,0,0,1,1.511.978,4.342,4.342,0,0,1,.99,1.511,5.218,5.218,0,0,1,.355,1.955,5.218,5.218,0,0,1-.355,1.955,4.342,4.342,0,0,1-.99,1.511,4.605,4.605,0,0,1-1.511.978,5.121,5.121,0,0,1-1.942.355,5.473,5.473,0,0,1-2.4-.5,4.949,4.949,0,0,1-1.739-1.384,6.015,6.015,0,0,1-1.066-2.133,9.96,9.96,0,0,1-.355-2.742,9.453,9.453,0,0,1,.736-3.771,7.937,7.937,0,0,1,2.184-2.945,10.314,10.314,0,0,1,3.593-1.917,16.419,16.419,0,0,1,4.989-.686,15.359,15.359,0,0,1,4.38.635,10.731,10.731,0,0,1,3.631,1.8,7.762,7.762,0,0,1,2.272,2.856,8.817,8.817,0,0,1,.787,3.771,12.312,12.312,0,0,0-2.133,1.473,6.12,6.12,0,0,0-1.384,1.752,7.8,7.8,0,0,0-.749,2.272,17.355,17.355,0,0,0-.229,3.009v4.012h5.18a3.789,3.789,0,0,0,2.564-.812,3.114,3.114,0,0,0,.939-2.488v-5.129a11.745,11.745,0,0,0-.1-1.663,4.346,4.346,0,0,0-.33-1.193,2.358,2.358,0,0,0-.6-.812,3,3,0,0,0-.9-.521v-3.072a7.587,7.587,0,0,0,2.2-1.282,4.389,4.389,0,0,0,1.143-1.587,7.1,7.1,0,0,0,.482-1.993q.114-1.1.241-2.526h6.475a19.223,19.223,0,0,1-.5,3.136,8.224,8.224,0,0,1-1,2.374,7.52,7.52,0,0,1-1.7,1.866A13.782,13.782,0,0,1,230.05-19.2a4,4,0,0,1,1.295.635,4.528,4.528,0,0,1,1.117,1.181,6.3,6.3,0,0,1,.774,1.7,7.666,7.666,0,0,1,.292,2.2Zm-10.851-26.66a3.77,3.77,0,0,1-.343.546,2.409,2.409,0,0,1-.559.533,3.313,3.313,0,0,1-.812.406,3.248,3.248,0,0,1-1.079.165,3.2,3.2,0,0,1-1.257-.241,2.978,2.978,0,0,1-.99-.673,3.19,3.19,0,0,1-.66-1.016,3.293,3.293,0,0,1-.241-1.27,2.811,2.811,0,0,1,1.066-2.209,4.678,4.678,0,0,1,3.123-.914,6.635,6.635,0,0,1,2.057.3,4.956,4.956,0,0,1,1.612.851,3.729,3.729,0,0,1,1.041,1.333A4.085,4.085,0,0,1,226-34.379a4.487,4.487,0,0,1-2.26,4.012,6.729,6.729,0,0,0,3.428-.749,5.119,5.119,0,0,0,1.93-1.942,7.59,7.59,0,0,0,.863-2.653,24.152,24.152,0,0,0,.229-2.907h4.139q-.127,1.727-.343,3.174a11.8,11.8,0,0,1-.673,2.6,6.977,6.977,0,0,1-1.219,2.031,6.1,6.1,0,0,1-1.955,1.46,10.731,10.731,0,0,1-2.907.876,24.626,24.626,0,0,1-4.075.292h-3.2v-2.234a4.028,4.028,0,0,0,1.942-1.27A3.376,3.376,0,0,0,222.678-33.947Zm-3.961-1.523a1.368,1.368,0,0,0,.419,1,1.368,1.368,0,0,0,1,.419,1.368,1.368,0,0,0,1-.419,1.368,1.368,0,0,0,.419-1,1.368,1.368,0,0,0-.419-1,1.368,1.368,0,0,0-1-.419,1.368,1.368,0,0,0-1,.419A1.368,1.368,0,0,0,218.717-35.471Zm44.252,13.635a1.885,1.885,0,0,0-.571-1.384,1.885,1.885,0,0,0-1.384-.571,1.885,1.885,0,0,0-1.384.571,1.885,1.885,0,0,0-.571,1.384,1.885,1.885,0,0,0,.571,1.384,1.885,1.885,0,0,0,1.384.571,1.885,1.885,0,0,0,1.384-.571A1.885,1.885,0,0,0,262.969-21.836Zm-2.412,4.723a5.137,5.137,0,0,1-1.7-.432,4.526,4.526,0,0,1-1.384-.965,4.289,4.289,0,0,1-.927-1.447,5.089,5.089,0,0,1-.33-1.879,5.277,5.277,0,0,1,.381-2.069,4.015,4.015,0,0,1,1.092-1.511,4.73,4.73,0,0,1,1.676-.914,7.149,7.149,0,0,1,2.158-.3q5.383,0,5.383,6.373V0h-6.424L247.049-12.365V-18L260.557-5.713ZM296.649,0V-15.437A5.986,5.986,0,0,0,295-19.982q-1.65-1.574-5.205-1.574a16.482,16.482,0,0,0-2.729.241,21.332,21.332,0,0,0-2.818.673,19.981,19.981,0,0,0-2.615,1.016,13.66,13.66,0,0,0-2.146,1.244v-5.84a8.788,8.788,0,0,1,2.044-1.092,16.815,16.815,0,0,1,2.539-.749A24.449,24.449,0,0,1,286.9-26.5q1.473-.14,2.895-.14,6.7,0,9.94,2.717t3.237,7.9V0Zm29.262-6.3a13.637,13.637,0,0,1,1.739-1.5,12.089,12.089,0,0,1,2.222-1.282,25.33,25.33,0,0,1,2.755-1.028,20.425,20.425,0,0,1,4.2-.711V-26.254h6.322v15.387a9.45,9.45,0,0,1,2.438.508A6.6,6.6,0,0,1,347.6-9.242a5.013,5.013,0,0,1,1.358,1.765,5.7,5.7,0,0,1,.5,2.45,5.016,5.016,0,0,1-1.625,4.063A7.686,7.686,0,0,1,342.8.406a5.737,5.737,0,0,1-4.354-1.688,6.694,6.694,0,0,1-1.612-4.812v-.863a12.377,12.377,0,0,0-3.9.927,14.176,14.176,0,0,0-2.844,1.638,14.585,14.585,0,0,0-2.209,2.069A17.2,17.2,0,0,0,326.166,0h-6.6V-17.113l-.2-.025a4.88,4.88,0,0,1-1.625-.482,4.508,4.508,0,0,1-1.32-.99,4.509,4.509,0,0,1-.876-1.422,4.917,4.917,0,0,1-.317-1.8,5.254,5.254,0,0,1,.381-2.082,4.037,4.037,0,0,1,1.092-1.5,4.715,4.715,0,0,1,1.688-.914,7.182,7.182,0,0,1,2.146-.3,5.454,5.454,0,0,1,3.809,1.435,5.71,5.71,0,0,1,1.574,4.431Zm17.24,1.5a2.414,2.414,0,0,0,.343,1.473,1.2,1.2,0,0,0,1,.432,1.131,1.131,0,0,0,.914-.432,2,2,0,0,0,.355-1.295q0-2.158-2.615-2.437ZM321.976-21.836a1.885,1.885,0,0,0-.571-1.384,1.885,1.885,0,0,0-1.384-.571,1.885,1.885,0,0,0-1.384.571,1.885,1.885,0,0,0-.571,1.384,1.885,1.885,0,0,0,.571,1.384,1.885,1.885,0,0,0,1.384.571,1.885,1.885,0,0,0,1.384-.571A1.885,1.885,0,0,0,321.976-21.836ZM366.4-4.545a1.885,1.885,0,0,0,.571,1.384,1.885,1.885,0,0,0,1.384.571,1.885,1.885,0,0,0,1.384-.571,1.885,1.885,0,0,0,.571-1.384,1.885,1.885,0,0,0-.571-1.384,1.885,1.885,0,0,0-1.384-.571,1.885,1.885,0,0,0-1.384.571A1.885,1.885,0,0,0,366.4-4.545Zm2.412-4.723.2.025a4.88,4.88,0,0,1,1.625.482,4.508,4.508,0,0,1,1.32.99,4.509,4.509,0,0,1,.876,1.422,4.917,4.917,0,0,1,.317,1.8,5.254,5.254,0,0,1-.381,2.082,4.037,4.037,0,0,1-1.092,1.5,4.715,4.715,0,0,1-1.688.914,7.182,7.182,0,0,1-2.146.3,5.441,5.441,0,0,1-3.821-1.435,5.737,5.737,0,0,1-1.562-4.431v-24.73a24.578,24.578,0,0,1,.254-3.542,7.768,7.768,0,0,1,.736-2.374,5.626,5.626,0,0,1,1.32-1.663,14.25,14.25,0,0,1,1.955-1.384,6,6,0,0,0-.216-1.663,4.334,4.334,0,0,0-.851-1.523,4.116,4.116,0,0,0-1.777-1.206,7.854,7.854,0,0,0-2.768-.432,9.435,9.435,0,0,0-3.618.635,5.06,5.06,0,0,0-2.3,1.727,1.051,1.051,0,0,1,.317-.063q.19-.013.317-.013a5.121,5.121,0,0,1,1.942.355,4.606,4.606,0,0,1,1.511.978,4.342,4.342,0,0,1,.99,1.511,5.219,5.219,0,0,1,.355,1.955,5.219,5.219,0,0,1-.355,1.955,4.342,4.342,0,0,1-.99,1.511,4.605,4.605,0,0,1-1.511.978,5.121,5.121,0,0,1-1.942.355,5.473,5.473,0,0,1-2.4-.5,4.949,4.949,0,0,1-1.739-1.384,6.014,6.014,0,0,1-1.066-2.133A9.961,9.961,0,0,1,350.274-39a9.453,9.453,0,0,1,.736-3.771,7.937,7.937,0,0,1,2.184-2.945,10.314,10.314,0,0,1,3.593-1.917,20.147,20.147,0,0,1,5.9-.686,13.93,13.93,0,0,1,3.923.635,10.731,10.731,0,0,1,3.631,1.8,7.762,7.762,0,0,1,2.272,2.856,8.817,8.817,0,0,1,.787,3.771,12.313,12.313,0,0,0-2.133,1.473,6.12,6.12,0,0,0-1.384,1.752,7.8,7.8,0,0,0-.749,2.272,17.355,17.355,0,0,0-.229,3.009Zm-14.93-27.777a1.885,1.885,0,0,0,.571,1.384,1.885,1.885,0,0,0,1.384.571,1.885,1.885,0,0,0,1.384-.571,1.885,1.885,0,0,0,.571-1.384,1.885,1.885,0,0,0-.571-1.384A1.885,1.885,0,0,0,355.834-39a1.885,1.885,0,0,0-1.384.571A1.885,1.885,0,0,0,353.879-37.045Zm55.11,14.955a1.715,1.715,0,0,0-.152-.749,1.627,1.627,0,0,0-.381-.521,1.4,1.4,0,0,0-.508-.292,1.833,1.833,0,0,0-.559-.089,1.88,1.88,0,0,0-1.1.368,1.317,1.317,0,0,0-.521,1.155,2,2,0,0,0,.533,1.346,3.357,3.357,0,0,0,1.168.889,5.71,5.71,0,0,0,.521-.355,3.231,3.231,0,0,0,.5-.47,2.343,2.343,0,0,0,.368-.584A1.715,1.715,0,0,0,408.989-22.09ZM387.788,0V-17.113l-.2-.025a4.88,4.88,0,0,1-1.625-.482,4.508,4.508,0,0,1-1.32-.99,4.509,4.509,0,0,1-.876-1.422,4.917,4.917,0,0,1-.317-1.8,5.254,5.254,0,0,1,.381-2.082,4.037,4.037,0,0,1,1.092-1.5,4.715,4.715,0,0,1,1.688-.914,7.182,7.182,0,0,1,2.146-.3,5.454,5.454,0,0,1,3.809,1.435,5.71,5.71,0,0,1,1.574,4.431V-8.734q1.27-1.422,2.691-2.793t2.577-2.349q1.155-.978,2.4-1.93t2.666-1.968q-.381-.355-.825-.838a8.1,8.1,0,0,1-.825-1.066,5.994,5.994,0,0,1-.622-1.257,4.219,4.219,0,0,1-.241-1.435,3.713,3.713,0,0,1,1.511-3.11,6.281,6.281,0,0,1,3.923-1.155,10.566,10.566,0,0,1,2.564.292,6.736,6.736,0,0,1,2.019.838,4.006,4.006,0,0,1,1.32,1.346,3.567,3.567,0,0,1,.47,1.841,3.953,3.953,0,0,1-.2,1.282,5.216,5.216,0,0,1-.533,1.117,5.9,5.9,0,0,1-.749.952,11.313,11.313,0,0,1-.876.813A5.042,5.042,0,0,1,412.861-17a5.452,5.452,0,0,1,.9,1.485,7.6,7.6,0,0,1,.47,1.765,13.729,13.729,0,0,1,.14,1.993V0H408.05V-11.6a16.18,16.18,0,0,0-.114-2.082,3.061,3.061,0,0,0-.825-1.65q-.939.66-2.285,1.79T402.2-11.261q-1.282,1.155-2.552,2.438a40.371,40.371,0,0,0-2.755,3.136,19.4,19.4,0,0,0-2.12,3.1,5.049,5.049,0,0,0-.635,2.26V0ZM390.2-21.836a1.885,1.885,0,0,0-.571-1.384,1.885,1.885,0,0,0-1.384-.571,1.885,1.885,0,0,0-1.384.571,1.885,1.885,0,0,0-.571,1.384,1.885,1.885,0,0,0,.571,1.384,1.885,1.885,0,0,0,1.384.571,1.885,1.885,0,0,0,1.384-.571A1.885,1.885,0,0,0,390.2-21.836ZM450.033,0a12.922,12.922,0,0,0-1.752-2.247,22.026,22.026,0,0,0-2.272-2.044,13.188,13.188,0,0,0-3.3-1.777,11.637,11.637,0,0,0-3.339-.889v.863a6.694,6.694,0,0,1-1.612,4.812A5.737,5.737,0,0,1,433.4.406a7.686,7.686,0,0,1-5.027-1.371,5.016,5.016,0,0,1-1.625-4.062,5.7,5.7,0,0,1,.5-2.45A5.013,5.013,0,0,1,428.6-9.242a6.6,6.6,0,0,1,2.006-1.117,9.45,9.45,0,0,1,2.438-.508v-6.246l-.229-.025a4.88,4.88,0,0,1-1.625-.482,4.508,4.508,0,0,1-1.32-.99A4.509,4.509,0,0,1,429-20.033a4.917,4.917,0,0,1-.317-1.8,5.254,5.254,0,0,1,.381-2.082,4.037,4.037,0,0,1,1.092-1.5,4.715,4.715,0,0,1,1.688-.914,7.182,7.182,0,0,1,2.146-.3,5.454,5.454,0,0,1,3.809,1.435,5.71,5.71,0,0,1,1.574,4.431v9.953a17.35,17.35,0,0,1,3.491.66,20.8,20.8,0,0,1,3.364,1.181,23.324,23.324,0,0,1,2.3,1.257A8.749,8.749,0,0,1,450.287-6.3V-26.254h6.322V0Zm-14.6-21.836a1.885,1.885,0,0,0-.571-1.384,1.885,1.885,0,0,0-1.384-.571,1.885,1.885,0,0,0-1.384.571,1.885,1.885,0,0,0-.571,1.384,1.885,1.885,0,0,0,.571,1.384,1.885,1.885,0,0,0,1.384.571,1.885,1.885,0,0,0,1.384-.571A1.885,1.885,0,0,0,435.433-21.836ZM433.046-7.059q-2.615.279-2.615,2.438a2,2,0,0,0,.355,1.295,1.131,1.131,0,0,0,.914.432,1.2,1.2,0,0,0,1-.432,2.414,2.414,0,0,0,.343-1.473Zm19.292-29.5h3.555v8.379h-3.555Z" transform="translate(180 454)" fill="#0080f4"/>
      <path id="路径_41021" data-name="路径 41021" d="M5-9.6a4.159,4.159,0,0,0-3.1,1.2A5.137,5.137,0,0,0,.54-4.656c0,3.048,1.752,5,4.476,5S9.5-1.62,9.5-4.656A5.175,5.175,0,0,0,8.16-8.4,4.205,4.205,0,0,0,5-9.6ZM5.04-1.08a2.591,2.591,0,0,1-1.86-.732,3.965,3.965,0,0,1-.972-2.832c0-2.172,1.092-3.54,2.82-3.54a2.583,2.583,0,0,1,1.848.732,3.876,3.876,0,0,1,.948,2.8C7.824-2.448,6.756-1.08,5.04-1.08ZM36.576-9.408a9.767,9.767,0,0,1,.1,1.644V-3.54a2.191,2.191,0,0,1-2.436,2.484,2.2,2.2,0,0,1-2.46-2.472V-7.764a9.41,9.41,0,0,1,.1-1.644H30.084a9.858,9.858,0,0,1,.1,1.644v4.236a3.865,3.865,0,0,0,.9,2.76A4.134,4.134,0,0,0,34.176.36c2.616,0,4.092-1.392,4.092-3.876v-4.26a9.7,9.7,0,0,1,.1-1.632ZM67.332.144c-.168-.324-.468-.972-.564-1.188C65.58-3.852,65.352-4.188,64.6-4.428a2.537,2.537,0,0,0,1.332-.7,2.467,2.467,0,0,0,.612-1.788c0-1.584-1.044-2.5-2.868-2.5h-2.88c-.66,0-1.032-.012-1.536-.036a10.677,10.677,0,0,1,.1,1.56v6.468a9.391,9.391,0,0,1-.1,1.56h1.788a9.364,9.364,0,0,1-.1-1.572V-3.876h1.788c.924,0,1.344.444,1.992,2.1a9.714,9.714,0,0,1,.624,1.92ZM60.948-5.244v-2.8h2.46c.984,0,1.476.444,1.476,1.308A1.424,1.424,0,0,1,64.5-5.676a1.617,1.617,0,0,1-1.14.432ZM116.7.144a9.771,9.771,0,0,1,.528-1.6l1.8-4.224a14.644,14.644,0,0,0,.552-1.752c-.012.18-.048.792-.1,1.836v3.984a11.156,11.156,0,0,1-.1,1.752h1.68a10.4,10.4,0,0,1-.1-1.752V-7.632a12.427,12.427,0,0,1,.1-1.776H118.86a6.65,6.65,0,0,1-.432,1.428L116-2.028,113.568-7.98a8.305,8.305,0,0,1-.444-1.428h-2.2a11.9,11.9,0,0,1,.1,1.776v6.024a11.254,11.254,0,0,1-.1,1.752h1.68a10.964,10.964,0,0,1-.1-1.752V-5.544c0-.264-.048-1.248-.1-1.884a13.354,13.354,0,0,0,.612,1.836l1.728,4.116a8.169,8.169,0,0,1,.528,1.62Zm25.272-9.552a8.966,8.966,0,0,1,.1,1.548V-1.4a9.055,9.055,0,0,1-.1,1.548H143.8a9.055,9.055,0,0,1-.1-1.548V-7.86a8.966,8.966,0,0,1,.1-1.548Zm22.4,6.756a4.1,4.1,0,0,0,.228,1A2.825,2.825,0,0,0,165.66-.288a4.825,4.825,0,0,0,2.52.624,3.977,3.977,0,0,0,2.868-.912,2.792,2.792,0,0,0,.756-2.04,2.368,2.368,0,0,0-1-2.064,5.283,5.283,0,0,0-1.956-.732,10.216,10.216,0,0,1-1.692-.432,1.141,1.141,0,0,1-.816-1.092c0-.78.708-1.308,1.752-1.308a1.9,1.9,0,0,1,1.5.576,1.55,1.55,0,0,1,.36.852l1.716-.2a3.235,3.235,0,0,0-.588-1.392A3.537,3.537,0,0,0,168.1-9.624c-2.064,0-3.408,1.08-3.408,2.748a2.362,2.362,0,0,0,.924,1.944,4.242,4.242,0,0,0,1.812.732,7.566,7.566,0,0,1,2.088.588,1.218,1.218,0,0,1,.6,1.1c0,.9-.72,1.44-1.92,1.44a2.13,2.13,0,0,1-1.752-.708,1.72,1.72,0,0,1-.336-1.056Zm27.78,0a4.1,4.1,0,0,0,.228,1A2.825,2.825,0,0,0,193.44-.288a4.825,4.825,0,0,0,2.52.624,3.977,3.977,0,0,0,2.868-.912,2.792,2.792,0,0,0,.756-2.04,2.368,2.368,0,0,0-1-2.064,5.283,5.283,0,0,0-1.956-.732,10.216,10.216,0,0,1-1.692-.432,1.141,1.141,0,0,1-.816-1.092c0-.78.708-1.308,1.752-1.308a1.9,1.9,0,0,1,1.5.576,1.55,1.55,0,0,1,.36.852l1.716-.2a3.235,3.235,0,0,0-.588-1.392,3.537,3.537,0,0,0-2.988-1.212c-2.064,0-3.408,1.08-3.408,2.748a2.362,2.362,0,0,0,.924,1.944A4.242,4.242,0,0,0,195.2-4.2a7.566,7.566,0,0,1,2.088.588,1.218,1.218,0,0,1,.6,1.1c0,.9-.72,1.44-1.92,1.44a2.13,2.13,0,0,1-1.752-.708,1.72,1.72,0,0,1-.336-1.056Zm28.092-6.756a8.966,8.966,0,0,1,.1,1.548V-1.4a9.055,9.055,0,0,1-.1,1.548h1.824a9.055,9.055,0,0,1-.1-1.548V-7.86a8.966,8.966,0,0,1,.1-1.548ZM247.116-9.6a4.159,4.159,0,0,0-3.1,1.2,5.137,5.137,0,0,0-1.368,3.744c0,3.048,1.752,5,4.476,5s4.488-1.968,4.488-5A5.175,5.175,0,0,0,250.272-8.4,4.205,4.205,0,0,0,247.116-9.6Zm.036,8.52a2.591,2.591,0,0,1-1.86-.732,3.965,3.965,0,0,1-.972-2.832c0-2.172,1.092-3.54,2.82-3.54a2.583,2.583,0,0,1,1.848.732,3.876,3.876,0,0,1,.948,2.8C249.936-2.448,248.868-1.08,247.152-1.08ZM280.368.144a9.055,9.055,0,0,1-.1-1.548V-7.752a10.493,10.493,0,0,1,.1-1.656h-1.752a10.489,10.489,0,0,1,.1,1.656V-3.72c0,.5.036,1.224.084,1.692-.264-.48-.648-1.1-.936-1.536l-3.036-4.572a6.582,6.582,0,0,1-.732-1.272H272.22a9.993,9.993,0,0,1,.1,1.548v6.192a12.983,12.983,0,0,1-.1,1.812h1.752a13.282,13.282,0,0,1-.1-1.8V-5.592c0-.276-.024-.816-.036-1.044-.036-.444-.036-.444-.048-.612.288.564.588,1.08.816,1.44l3.1,4.668a11.958,11.958,0,0,1,.768,1.284Z" transform="translate(180 350)"/>
      <path id="路径_40970" data-name="路径 40970" d="M16.5,89.488a3.972,3.972,0,0,0-.254-1.46,2.754,2.754,0,0,0-.9-1.155,4.54,4.54,0,0,0-1.739-.774A17.709,17.709,0,0,0,9.9,85.832q-2.209,0-4.139.14t-4.062.5V82.811a13.309,13.309,0,0,1,.521-4.075,7.115,7.115,0,0,1,1.727-2.958A7.452,7.452,0,0,1,7,73.975a14.524,14.524,0,0,1,4.481-.609q.838,0,1.993.076t2.4.152l2.463.152q1.219.076,2.158.076,1.676,0,3.085-.063a21.406,21.406,0,0,0,2.222-.19v4.443a19.605,19.605,0,0,1-2.133.165q-1.244.038-3,.038-.914,0-2.234-.076l-2.653-.152q-1.333-.076-2.488-.152t-1.79-.076A7.263,7.263,0,0,0,9.166,78a2.46,2.46,0,0,0-.952.673,2.655,2.655,0,0,0-.533,1.016,8.819,8.819,0,0,0-.165,2.082q.736-.1,1.739-.178t2.882-.076a25.864,25.864,0,0,1,4.85.394,8.4,8.4,0,0,1,3.326,1.32,5.385,5.385,0,0,1,1.9,2.5,10.984,10.984,0,0,1,.609,3.936v4.875a5.925,5.925,0,0,1-1.5,4.354,5.232,5.232,0,0,1-3.885,1.511,7.182,7.182,0,0,1-2.146-.3,4.715,4.715,0,0,1-1.688-.914,4.015,4.015,0,0,1-1.092-1.511,5.277,5.277,0,0,1-.381-2.069,4.922,4.922,0,0,1,.343-1.879,4.453,4.453,0,0,1,.939-1.447,4.525,4.525,0,0,1,1.384-.965,5.137,5.137,0,0,1,1.7-.432Zm2.387,6.119a1.951,1.951,0,1,0-.571,1.384A1.885,1.885,0,0,0,18.891,95.607ZM23.88,67.068a1.951,1.951,0,1,0-.571,1.384A1.885,1.885,0,0,0,23.88,67.068Zm2.564,1.447a12.337,12.337,0,0,0,2.234-1.181,15.406,15.406,0,0,0,2.095-1.676,19.41,19.41,0,0,0,1.892-2.082,26.6,26.6,0,0,0,1.65-2.349v5.23a12.571,12.571,0,0,1-1.866,2.019,15.884,15.884,0,0,1-2.628,1.879,16.363,16.363,0,0,1-3.161,1.4,11.2,11.2,0,0,1-3.466.546,8.188,8.188,0,0,1-2.666-.394,5.467,5.467,0,0,1-1.9-1.079,4.393,4.393,0,0,1-1.143-1.612,5.192,5.192,0,0,1-.381-1.993,4.874,4.874,0,0,1,.381-1.917,5.12,5.12,0,0,1,1.028-1.574,4.85,4.85,0,0,1,1.523-1.066A4.5,4.5,0,0,1,21.9,62.27a4.72,4.72,0,0,1,1.879.381A4.791,4.791,0,0,1,26.342,65.2a4.629,4.629,0,0,1,.381,1.866,3.986,3.986,0,0,1-.1.863A2.423,2.423,0,0,1,26.444,68.516ZM40.358,100V82.887l-.2-.025a4.88,4.88,0,0,1-1.625-.482,4.452,4.452,0,0,1-2.2-2.412,4.916,4.916,0,0,1-.317-1.8,5.254,5.254,0,0,1,.381-2.082,4.038,4.038,0,0,1,1.092-1.5,4.715,4.715,0,0,1,1.688-.914,7.182,7.182,0,0,1,2.146-.3A5.454,5.454,0,0,1,45.132,74.8a5.71,5.71,0,0,1,1.574,4.431V94.947h6.8a3.751,3.751,0,0,0,2.564-.825,3.121,3.121,0,0,0,.939-2.476v-17.9h6.322V92.713a8.67,8.67,0,0,1-.482,2.945,6.238,6.238,0,0,1-1.435,2.311,6.488,6.488,0,0,1-2.361,1.5,9.11,9.11,0,0,1-3.237.533ZM42.77,78.164a1.951,1.951,0,1,0-.571,1.384A1.885,1.885,0,0,0,42.77,78.164ZM85.947,90.682a3.022,3.022,0,0,0-.406.813,8.413,8.413,0,0,0-.3,1.155,13.064,13.064,0,0,0-.19,1.371q-.063.724-.063,1.46V100H78.634V93.5a10.824,10.824,0,0,0-.317-2.412q-.292-1.168-.622-2.4t-.609-2.6a15.025,15.025,0,0,1-.279-3,8.495,8.495,0,0,1,1-4.177,8.755,8.755,0,0,1,2.831-3.047A13.674,13.674,0,0,1,85.045,74a23.956,23.956,0,0,1,5.726-.635,23.64,23.64,0,0,1,5.9.673,12.656,12.656,0,0,1,4.405,2.006,8.691,8.691,0,0,1,2.742,3.326,10.7,10.7,0,0,1,.939,4.608V100H98.439V84.563a7.155,7.155,0,0,0-.381-2.349,4.786,4.786,0,0,0-1.206-1.9,6.372,6.372,0,0,0-2.311-1.333,11.311,11.311,0,0,0-3.771-.533A11.834,11.834,0,0,0,87,78.951a6.292,6.292,0,0,0-2.285,1.257,4.622,4.622,0,0,0-1.181,1.752,5.851,5.851,0,0,0-.381,2.095,8.1,8.1,0,0,0,.267,2.158q.267.965.571,2.031a6.746,6.746,0,0,1,.99-1.917,7.021,7.021,0,0,1,1.46-1.46,6.464,6.464,0,0,1,1.752-.927,5.726,5.726,0,0,1,1.866-.317,5.664,5.664,0,0,1,2.044.355,4.574,4.574,0,0,1,1.587,1A4.455,4.455,0,0,1,94.706,86.5a5.485,5.485,0,0,1,0,3.885,4.605,4.605,0,0,1-.978,1.511,4.342,4.342,0,0,1-1.511.99,5.219,5.219,0,0,1-1.955.355,5.021,5.021,0,0,1-2.641-.673A4.191,4.191,0,0,1,85.947,90.682Zm4.316-4.189a1.951,1.951,0,1,0,1.384.571A1.885,1.885,0,0,0,90.263,86.492ZM134.1,84.309a5.5,5.5,0,0,0-1.688-4.418,7.8,7.8,0,0,0-5.167-1.447,16.482,16.482,0,0,0-2.729.241,21.332,21.332,0,0,0-2.818.673,19.981,19.981,0,0,0-2.615,1.016,13.66,13.66,0,0,0-2.146,1.244v-5.84a8.788,8.788,0,0,1,2.044-1.092,16.816,16.816,0,0,1,2.539-.749,24.449,24.449,0,0,1,2.831-.432q1.473-.14,2.895-.14,6.7,0,9.94,2.717t3.237,7.9V94.541a5.925,5.925,0,0,1-1.5,4.354,5.232,5.232,0,0,1-3.885,1.511,7.182,7.182,0,0,1-2.146-.3,4.715,4.715,0,0,1-1.688-.914,4.015,4.015,0,0,1-1.092-1.511,5.277,5.277,0,0,1-.381-2.069,4.922,4.922,0,0,1,.343-1.879,4.453,4.453,0,0,1,.939-1.447,4.525,4.525,0,0,1,1.384-.965,5.137,5.137,0,0,1,1.7-.432Zm2.387,11.3a1.951,1.951,0,1,0-.571,1.384A1.885,1.885,0,0,0,136.486,95.607ZM169.837,100V84.563a5.986,5.986,0,0,0-1.65-4.545q-1.65-1.574-5.205-1.574a16.482,16.482,0,0,0-2.729.241,21.333,21.333,0,0,0-2.818.673,19.981,19.981,0,0,0-2.615,1.016,13.66,13.66,0,0,0-2.146,1.244v-5.84a8.788,8.788,0,0,1,2.044-1.092,16.816,16.816,0,0,1,2.539-.749,24.449,24.449,0,0,1,2.831-.432q1.473-.14,2.895-.14,6.7,0,9.94,2.717t3.237,7.9V100Zm41.856,0a12.92,12.92,0,0,0-1.752-2.247,22.026,22.026,0,0,0-2.272-2.044,13.187,13.187,0,0,0-3.3-1.777,11.637,11.637,0,0,0-3.339-.889v.863a6.694,6.694,0,0,1-1.612,4.812,5.737,5.737,0,0,1-4.354,1.688,7.686,7.686,0,0,1-5.027-1.371,5.016,5.016,0,0,1-1.625-4.062,5.7,5.7,0,0,1,.5-2.45,5.013,5.013,0,0,1,1.358-1.765,6.6,6.6,0,0,1,2.006-1.117,9.45,9.45,0,0,1,2.438-.508V82.887l-.229-.025a4.88,4.88,0,0,1-1.625-.482,4.452,4.452,0,0,1-2.2-2.412,4.916,4.916,0,0,1-.317-1.8,5.254,5.254,0,0,1,.381-2.082,4.038,4.038,0,0,1,1.092-1.5,4.715,4.715,0,0,1,1.688-.914,7.182,7.182,0,0,1,2.146-.3,5.454,5.454,0,0,1,3.809,1.435,5.71,5.71,0,0,1,1.574,4.431v9.953a17.35,17.35,0,0,1,3.491.66,20.8,20.8,0,0,1,3.364,1.181,23.325,23.325,0,0,1,2.3,1.257,8.749,8.749,0,0,1,1.765,1.422V73.746h6.322V100Zm-14.6-21.836a1.951,1.951,0,1,0-.571,1.384A1.885,1.885,0,0,0,197.093,78.164Zm-2.387,14.777q-2.615.279-2.615,2.438a2,2,0,0,0,.355,1.295,1.131,1.131,0,0,0,.914.432,1.2,1.2,0,0,0,1-.432,2.414,2.414,0,0,0,.343-1.473Zm39.673-8.3a1.951,1.951,0,1,0,.571-1.384A1.885,1.885,0,0,0,234.379,84.639Zm29.479,8.074a8.67,8.67,0,0,1-.482,2.945,6.238,6.238,0,0,1-1.435,2.311,6.488,6.488,0,0,1-2.361,1.5,9.11,9.11,0,0,1-3.237.533H242.529V91.342a22.743,22.743,0,0,1,.229-3.542,7.767,7.767,0,0,1,.736-2.374,5.626,5.626,0,0,1,1.32-1.663,14.251,14.251,0,0,1,1.955-1.384,5.881,5.881,0,0,0-.254-1.739,3.757,3.757,0,0,0-.876-1.485A5.238,5.238,0,0,0,244,78.024a6.046,6.046,0,0,0-2.539-.47,8.416,8.416,0,0,0-3.555.724,5.326,5.326,0,0,0-2.209,1.638,1.051,1.051,0,0,1,.317-.063q.19-.013.317-.013a5.121,5.121,0,0,1,1.942.355,4.605,4.605,0,0,1,1.511.978,4.342,4.342,0,0,1,.99,1.511,5.554,5.554,0,0,1,0,3.91,4.342,4.342,0,0,1-.99,1.511,4.605,4.605,0,0,1-1.511.978,5.121,5.121,0,0,1-1.942.355,5.473,5.473,0,0,1-2.4-.5,4.949,4.949,0,0,1-1.739-1.384,6.015,6.015,0,0,1-1.066-2.133,9.96,9.96,0,0,1-.355-2.742,9.453,9.453,0,0,1,.736-3.771,7.937,7.937,0,0,1,2.184-2.945,10.314,10.314,0,0,1,3.593-1.917,16.419,16.419,0,0,1,4.989-.686,15.359,15.359,0,0,1,4.38.635,10.731,10.731,0,0,1,3.631,1.8,7.762,7.762,0,0,1,2.272,2.856,8.817,8.817,0,0,1,.787,3.771,12.312,12.312,0,0,0-2.133,1.473,6.12,6.12,0,0,0-1.384,1.752,7.8,7.8,0,0,0-.749,2.272,17.355,17.355,0,0,0-.229,3.009v4.012h5.18a3.789,3.789,0,0,0,2.564-.812,3.114,3.114,0,0,0,.939-2.488V86.518a11.743,11.743,0,0,0-.1-1.663,4.347,4.347,0,0,0-.33-1.193,2.358,2.358,0,0,0-.6-.812,3,3,0,0,0-.9-.521V79.256a7.587,7.587,0,0,0,2.2-1.282,4.389,4.389,0,0,0,1.143-1.587,7.094,7.094,0,0,0,.482-1.993q.114-1.1.241-2.526h6.475a19.223,19.223,0,0,1-.5,3.136,8.224,8.224,0,0,1-1,2.374,7.52,7.52,0,0,1-1.7,1.866,13.782,13.782,0,0,1-2.564,1.562,4,4,0,0,1,1.295.635,4.528,4.528,0,0,1,1.117,1.181,6.3,6.3,0,0,1,.774,1.7,7.665,7.665,0,0,1,.292,2.2ZM254.11,63.438h3.555v8.379H254.11ZM295.05,84.309a5.5,5.5,0,0,0-1.688-4.418,7.8,7.8,0,0,0-5.167-1.447,16.482,16.482,0,0,0-2.729.241,21.331,21.331,0,0,0-2.818.673,19.981,19.981,0,0,0-2.615,1.016,13.66,13.66,0,0,0-2.146,1.244v-5.84a8.788,8.788,0,0,1,2.044-1.092,16.816,16.816,0,0,1,2.539-.749A24.449,24.449,0,0,1,285.3,73.5q1.473-.14,2.895-.14,6.7,0,9.94,2.717t3.237,7.9V94.541a5.925,5.925,0,0,1-1.5,4.354,5.232,5.232,0,0,1-3.885,1.511,7.182,7.182,0,0,1-2.146-.3,4.715,4.715,0,0,1-1.688-.914,4.015,4.015,0,0,1-1.092-1.511,5.277,5.277,0,0,1-.381-2.069,4.922,4.922,0,0,1,.343-1.879,4.453,4.453,0,0,1,.939-1.447,4.525,4.525,0,0,1,1.384-.965,5.137,5.137,0,0,1,1.7-.432Zm2.387,11.3a1.951,1.951,0,1,0-.571,1.384A1.885,1.885,0,0,0,297.436,95.607Zm22.407-17.443a1.951,1.951,0,1,0,.571-1.384A1.885,1.885,0,0,0,319.843,78.164ZM315.908,100V92.561a5.654,5.654,0,0,1,.33-2.044,4.533,4.533,0,0,1,.863-1.435,4.286,4.286,0,0,1,1.193-.927,6.79,6.79,0,0,1,1.295-.521,6.352,6.352,0,0,1-1.295-.533,4.433,4.433,0,0,1-2.057-2.374,5.654,5.654,0,0,1-.33-2.044V79.23a5.71,5.71,0,0,1,1.574-4.431,5.454,5.454,0,0,1,3.809-1.435,7.149,7.149,0,0,1,2.158.3,4.73,4.73,0,0,1,1.676.914,4.037,4.037,0,0,1,1.092,1.5,5.254,5.254,0,0,1,.381,2.082,4.917,4.917,0,0,1-.317,1.8,4.509,4.509,0,0,1-.876,1.422,4.564,4.564,0,0,1-1.308.99,4.779,4.779,0,0,1-1.638.482l-.2.025a2.305,2.305,0,0,0,.457,1.485,3.492,3.492,0,0,0,1.1.914,6.006,6.006,0,0,0,1.358.521q.711.178,1.244.279v3.072q-.533.1-1.244.267a5.509,5.509,0,0,0-1.371.521,3.284,3.284,0,0,0-1.117.99,2.806,2.806,0,0,0-.457,1.676v2.311h8.3a3.659,3.659,0,0,0,2.564-.8,3.121,3.121,0,0,0,.939-2.476v-17.9h6.322V92.713a8.67,8.67,0,0,1-.482,2.945,6.238,6.238,0,0,1-1.435,2.311,6.488,6.488,0,0,1-2.361,1.5,9.11,9.11,0,0,1-3.237.533Zm46.046-26.279V90.732l.2.025a4.779,4.779,0,0,1,1.638.482,4.564,4.564,0,0,1,1.308.99,4.509,4.509,0,0,1,.876,1.422,4.917,4.917,0,0,1,.317,1.8,5.277,5.277,0,0,1-.381,2.069,4.015,4.015,0,0,1-1.092,1.511,4.73,4.73,0,0,1-1.676.914,7.149,7.149,0,0,1-2.158.3,5.454,5.454,0,0,1-3.809-1.435,5.71,5.71,0,0,1-1.574-4.431V73.721Zm-2.412,21.734a1.951,1.951,0,1,0,.571-1.384A1.885,1.885,0,0,0,359.541,95.455ZM402.667,77.91a1.715,1.715,0,0,0-.152-.749,1.627,1.627,0,0,0-.381-.521,1.4,1.4,0,0,0-.508-.292,1.833,1.833,0,0,0-.559-.089,1.88,1.88,0,0,0-1.1.368,1.317,1.317,0,0,0-.521,1.155,2,2,0,0,0,.533,1.346,3.357,3.357,0,0,0,1.168.889,5.71,5.71,0,0,0,.521-.355,3.231,3.231,0,0,0,.5-.47,2.343,2.343,0,0,0,.368-.584A1.715,1.715,0,0,0,402.667,77.91ZM381.466,100V82.887l-.2-.025a4.88,4.88,0,0,1-1.625-.482,4.452,4.452,0,0,1-2.2-2.412,4.917,4.917,0,0,1-.317-1.8,5.254,5.254,0,0,1,.381-2.082,4.037,4.037,0,0,1,1.092-1.5,4.715,4.715,0,0,1,1.688-.914,7.182,7.182,0,0,1,2.146-.3,5.454,5.454,0,0,1,3.809,1.435,5.71,5.71,0,0,1,1.574,4.431V91.266q1.27-1.422,2.691-2.793t2.577-2.349q1.155-.978,2.4-1.93t2.666-1.968q-.381-.355-.825-.838a8.1,8.1,0,0,1-.825-1.066,5.994,5.994,0,0,1-.622-1.257,4.219,4.219,0,0,1-.241-1.435,3.713,3.713,0,0,1,1.511-3.11,6.281,6.281,0,0,1,3.923-1.155,10.566,10.566,0,0,1,2.564.292,6.736,6.736,0,0,1,2.019.838,4.006,4.006,0,0,1,1.32,1.346,3.567,3.567,0,0,1,.47,1.841,3.953,3.953,0,0,1-.2,1.282,5.216,5.216,0,0,1-.533,1.117,5.9,5.9,0,0,1-.749.952,11.314,11.314,0,0,1-.876.813A5.042,5.042,0,0,1,406.539,83a5.452,5.452,0,0,1,.9,1.485,7.6,7.6,0,0,1,.47,1.765,13.729,13.729,0,0,1,.14,1.993V100h-6.322V88.4a16.18,16.18,0,0,0-.114-2.082,3.061,3.061,0,0,0-.825-1.65q-.939.66-2.285,1.79t-2.628,2.285q-1.282,1.155-2.552,2.438a40.371,40.371,0,0,0-2.755,3.136,19.4,19.4,0,0,0-2.12,3.1,5.049,5.049,0,0,0-.635,2.26V100Zm2.412-21.836a1.951,1.951,0,1,0-.571,1.384A1.885,1.885,0,0,0,383.878,78.164ZM428.73,90.885l.2.025a4.779,4.779,0,0,1,1.638.482,4.564,4.564,0,0,1,1.308.99,4.509,4.509,0,0,1,.876,1.422,4.917,4.917,0,0,1,.317,1.8,5.277,5.277,0,0,1-.381,2.069,4.015,4.015,0,0,1-1.092,1.511,4.73,4.73,0,0,1-1.676.914,7.149,7.149,0,0,1-2.158.3,5.454,5.454,0,0,1-3.809-1.435,5.71,5.71,0,0,1-1.574-4.431v-3.4a7.112,7.112,0,0,1,2.45-5.764q2.45-2.057,7.351-2.057a16.719,16.719,0,0,1,3.91.406,10.847,10.847,0,0,1,2.793,1.041,7.328,7.328,0,0,1,1.892,1.511,7.866,7.866,0,0,1,1.231,1.841h.076V84.055a5.857,5.857,0,0,0-.508-2.539,4.652,4.652,0,0,0-1.422-1.752,6.028,6.028,0,0,0-2.2-1,16.944,16.944,0,0,0-3.8-.317,21.538,21.538,0,0,0-3.136.241,27.028,27.028,0,0,0-3.212.673,25.175,25.175,0,0,0-2.983,1.016,16.077,16.077,0,0,0-2.45,1.244v-5.84a12.169,12.169,0,0,1,2.361-1.092,20.6,20.6,0,0,1,2.831-.749,29.923,29.923,0,0,1,3.174-.432q1.663-.14,3.415-.14,7.084,0,10.664,2.7t3.58,7.909V100H442.06V94.744a7.41,7.41,0,0,0-.482-2.679,6.931,6.931,0,0,0-1.435-2.272,7.917,7.917,0,0,0-2.552-1.739,9.6,9.6,0,0,0-3.961-.724,5.758,5.758,0,0,0-3.771.978,2.887,2.887,0,0,0-1.13,2.222Zm-2.412,4.723a1.951,1.951,0,1,0,.571-1.384A1.885,1.885,0,0,0,426.318,95.607Zm20.45-23.461q-3.123-.508-5.992-.851t-5.662-.546q-2.793-.2-5.6-.279t-5.8-.076a8.512,8.512,0,0,1,3.618-5.116,12.833,12.833,0,0,1,7.147-1.79,14.428,14.428,0,0,1,2.209.165,16.453,16.453,0,0,1,2.107.47V61.381h3.047V65.52a10.965,10.965,0,0,1,1.879,1.422V61.381h3.047ZM434.5,66.053q-4.621,0-5.789,2.311,3.631,0,6.855.2t6.2.584a6.286,6.286,0,0,0-1.117-1.181,7.109,7.109,0,0,0-1.6-.99,10.286,10.286,0,0,0-2.057-.673A11.469,11.469,0,0,0,434.5,66.053Zm28.439,23.436a5.684,5.684,0,0,1,1.587-4.431,5.466,5.466,0,0,1,3.8-1.435,7.149,7.149,0,0,1,2.158.3,4.73,4.73,0,0,1,1.676.914,4.037,4.037,0,0,1,1.092,1.5,5.254,5.254,0,0,1,.381,2.082,5.018,5.018,0,0,1-.317,1.815,4.361,4.361,0,0,1-.889,1.435,4.727,4.727,0,0,1-2.958,1.473l-.178.025q.025.939,1.333,1.523a11.419,11.419,0,0,0,4.3.584,10.394,10.394,0,0,0,2.933-.33,5.466,5.466,0,0,0,1.828-.927,4.278,4.278,0,0,0,1.219-1.663,6.06,6.06,0,0,0,.47-2.463V84.842a6.939,6.939,0,0,0-.6-3.1,5.2,5.2,0,0,0-1.511-1.879,6.625,6.625,0,0,0-2.361-1.054,14.153,14.153,0,0,0-3.453-.368,21.538,21.538,0,0,0-3.136.241,27.028,27.028,0,0,0-3.212.673,25.175,25.175,0,0,0-2.983,1.016,16.077,16.077,0,0,0-2.45,1.244v-5.84a12.169,12.169,0,0,1,2.361-1.092,20.6,20.6,0,0,1,2.831-.749,29.923,29.923,0,0,1,3.174-.432q1.663-.14,3.415-.14,7.084,0,10.664,2.7t3.58,7.909v5.764a13.893,13.893,0,0,1-.7,4.621,7.689,7.689,0,0,1-2.234,3.313,10.045,10.045,0,0,1-3.961,2.006,22.24,22.24,0,0,1-5.878.673,22.7,22.7,0,0,1-5.789-.622,10.2,10.2,0,0,1-3.682-1.7,5.968,5.968,0,0,1-1.942-2.564,8.8,8.8,0,0,1-.571-3.187Zm3.936-1.066a1.951,1.951,0,1,0,.571-1.384A1.885,1.885,0,0,0,466.879,88.422ZM508,90.885l.2.025a4.779,4.779,0,0,1,1.638.482,4.564,4.564,0,0,1,1.308.99,4.509,4.509,0,0,1,.876,1.422,4.916,4.916,0,0,1,.317,1.8,5.277,5.277,0,0,1-.381,2.069,4.015,4.015,0,0,1-1.092,1.511,4.73,4.73,0,0,1-1.676.914,7.149,7.149,0,0,1-2.158.3,5.454,5.454,0,0,1-3.809-1.435,5.71,5.71,0,0,1-1.574-4.431v-3.4a7.112,7.112,0,0,1,2.45-5.764q2.45-2.057,7.351-2.057a15.825,15.825,0,0,1,4.075.419,11.573,11.573,0,0,1,2.628,1.054,6.95,6.95,0,0,1,1.892,1.549,8.632,8.632,0,0,1,1.231,1.879h.076V84.207a4.819,4.819,0,0,0-.7-2.691,3.849,3.849,0,0,0-1.308-1.371q-.432.279-.749.457l-.686.381q-.368.2-.724.394t-.66.317H511.1q.432-.229,1.041-.609t1.257-.8q.647-.419,1.27-.838t1.054-.749a3.318,3.318,0,0,0-.432-.1q-.279-.051-.6-.089t-.66-.051q-.343-.013-.6-.013a21.537,21.537,0,0,0-3.136.241,27.028,27.028,0,0,0-3.212.673,25.175,25.175,0,0,0-2.983,1.016,16.077,16.077,0,0,0-2.45,1.244v-5.84a12.169,12.169,0,0,1,2.361-1.092,20.6,20.6,0,0,1,2.831-.749,29.923,29.923,0,0,1,3.174-.432q1.663-.14,3.415-.14.889,0,1.828.063t1.866.178q.927.114,1.765.279a10.19,10.19,0,0,1,1.473.394,5.235,5.235,0,0,0,.622-.7q.317-.419.622-.851t.546-.851a6.536,6.536,0,0,0,.368-.724h6.2a14.5,14.5,0,0,1-1.7,3.148,14.059,14.059,0,0,1-2.209,2.387,7.919,7.919,0,0,1,2.12,3.009,11.173,11.173,0,0,1,.749,4.278V100h-6.322V95.328A9.14,9.14,0,0,0,520.9,92.4a6.85,6.85,0,0,0-1.435-2.437A7.8,7.8,0,0,0,516.8,88.13a8.641,8.641,0,0,0-3.542-.749,6.563,6.563,0,0,0-4.062.965A2.783,2.783,0,0,0,508,90.529Zm-2.412,4.723a1.951,1.951,0,1,0,.571-1.384A1.885,1.885,0,0,0,505.587,95.607Zm10.819-32.17h3.555v8.379h-3.555Zm40.939,20.871a5.5,5.5,0,0,0-1.688-4.418,7.8,7.8,0,0,0-5.167-1.447,16.481,16.481,0,0,0-2.729.241,21.334,21.334,0,0,0-2.818.673,19.981,19.981,0,0,0-2.615,1.016,13.659,13.659,0,0,0-2.146,1.244v-5.84a8.787,8.787,0,0,1,2.044-1.092,16.817,16.817,0,0,1,2.539-.749A24.449,24.449,0,0,1,547.6,73.5q1.473-.14,2.895-.14,6.7,0,9.94,2.717t3.237,7.9V94.541a5.925,5.925,0,0,1-1.5,4.354,5.232,5.232,0,0,1-3.885,1.511,7.182,7.182,0,0,1-2.146-.3,4.715,4.715,0,0,1-1.688-.914,4.016,4.016,0,0,1-1.092-1.511,5.277,5.277,0,0,1-.381-2.069,4.922,4.922,0,0,1,.343-1.879,4.453,4.453,0,0,1,.939-1.447,4.525,4.525,0,0,1,1.384-.965,5.137,5.137,0,0,1,1.7-.432Zm2.387,11.3a1.951,1.951,0,1,0-.571,1.384A1.885,1.885,0,0,0,559.732,95.607Zm26.876-1.9a13.637,13.637,0,0,1,1.739-1.5,12.09,12.09,0,0,1,2.222-1.282,25.329,25.329,0,0,1,2.755-1.028,20.425,20.425,0,0,1,4.2-.711V73.746h6.322V89.133a9.45,9.45,0,0,1,2.438.508,6.6,6.6,0,0,1,2.006,1.117,5.013,5.013,0,0,1,1.358,1.765,5.7,5.7,0,0,1,.5,2.45,5.016,5.016,0,0,1-1.625,4.063,7.686,7.686,0,0,1-5.027,1.371,5.737,5.737,0,0,1-4.354-1.688,6.694,6.694,0,0,1-1.612-4.812v-.863a12.376,12.376,0,0,0-3.9.927,14.175,14.175,0,0,0-2.844,1.638,14.588,14.588,0,0,0-2.209,2.069A17.2,17.2,0,0,0,586.862,100h-6.6V82.887l-.2-.025a4.88,4.88,0,0,1-1.625-.482,4.452,4.452,0,0,1-2.2-2.412,4.916,4.916,0,0,1-.317-1.8,5.254,5.254,0,0,1,.381-2.082,4.038,4.038,0,0,1,1.092-1.5,4.715,4.715,0,0,1,1.688-.914,7.182,7.182,0,0,1,2.146-.3,5.454,5.454,0,0,1,3.809,1.435,5.71,5.71,0,0,1,1.574,4.431Zm17.24,1.5a2.414,2.414,0,0,0,.343,1.473,1.2,1.2,0,0,0,1,.432,1.131,1.131,0,0,0,.914-.432,2,2,0,0,0,.355-1.295q0-2.158-2.615-2.437ZM582.672,78.164a1.951,1.951,0,1,0-.571,1.384A1.885,1.885,0,0,0,582.672,78.164ZM624.782,100V82.887l-.2-.025a4.88,4.88,0,0,1-1.625-.482,4.452,4.452,0,0,1-2.2-2.412,4.916,4.916,0,0,1-.317-1.8,5.254,5.254,0,0,1,.381-2.082,4.038,4.038,0,0,1,1.092-1.5,4.715,4.715,0,0,1,1.688-.914,7.182,7.182,0,0,1,2.146-.3,5.454,5.454,0,0,1,3.809,1.435,5.71,5.71,0,0,1,1.574,4.431V94.947h6.8a3.751,3.751,0,0,0,2.564-.825,3.121,3.121,0,0,0,.939-2.476v-17.9h6.322V92.713a8.671,8.671,0,0,1-.482,2.945,6.238,6.238,0,0,1-1.435,2.311,6.488,6.488,0,0,1-2.361,1.5,9.11,9.11,0,0,1-3.237.533Zm2.412-21.836a1.951,1.951,0,1,0-.571,1.384A1.885,1.885,0,0,0,627.194,78.164Zm17.9,34.049V108.48h-.152a2.779,2.779,0,0,1-1.13-.229,3.085,3.085,0,0,1-.914-.609,2.625,2.625,0,0,1-.609-.914,3.017,3.017,0,0,1-.216-1.143,2.844,2.844,0,0,1,.2-1.066,2.661,2.661,0,0,1,.6-.9,2.991,2.991,0,0,1,.965-.635,3.336,3.336,0,0,1,1.308-.241,3.044,3.044,0,0,1,2.311.851,2.949,2.949,0,0,1,.813,2.12v6.5Zm-1.193-6.627a1.04,1.04,0,1,0,.3-.736A1,1,0,0,0,643.9,105.586Zm26.475-14.9a3.022,3.022,0,0,0-.406.813,8.42,8.42,0,0,0-.3,1.155,13.052,13.052,0,0,0-.19,1.371q-.063.724-.063,1.46V100h-6.348V93.5a10.824,10.824,0,0,0-.317-2.412q-.292-1.168-.622-2.4t-.609-2.6a15.023,15.023,0,0,1-.279-3,8.495,8.495,0,0,1,1-4.177,8.755,8.755,0,0,1,2.831-3.047A13.674,13.674,0,0,1,669.469,74a23.956,23.956,0,0,1,5.726-.635,23.641,23.641,0,0,1,5.9.673,12.656,12.656,0,0,1,4.405,2.006,8.691,8.691,0,0,1,2.742,3.326,10.7,10.7,0,0,1,.939,4.608V100h-6.322V84.563a7.155,7.155,0,0,0-.381-2.349,4.786,4.786,0,0,0-1.206-1.9,6.372,6.372,0,0,0-2.311-1.333,11.311,11.311,0,0,0-3.771-.533,11.834,11.834,0,0,0-3.771.508,6.292,6.292,0,0,0-2.285,1.257,4.622,4.622,0,0,0-1.181,1.752,5.851,5.851,0,0,0-.381,2.095,8.1,8.1,0,0,0,.267,2.158q.267.965.571,2.031a6.747,6.747,0,0,1,.99-1.917,7.021,7.021,0,0,1,1.46-1.46,6.464,6.464,0,0,1,1.752-.927,5.727,5.727,0,0,1,1.866-.317,5.664,5.664,0,0,1,2.044.355,4.574,4.574,0,0,1,1.587,1,4.455,4.455,0,0,1,1.016,1.523,5.485,5.485,0,0,1,0,3.885,4.605,4.605,0,0,1-.978,1.511,4.342,4.342,0,0,1-1.511.99,5.219,5.219,0,0,1-1.955.355,5.021,5.021,0,0,1-2.641-.673A4.19,4.19,0,0,1,670.371,90.682Zm4.316-4.189a1.951,1.951,0,1,0,1.384.571A1.885,1.885,0,0,0,674.687,86.492Zm36.778,4.189a3.022,3.022,0,0,0-.406.813,8.42,8.42,0,0,0-.3,1.155,13.052,13.052,0,0,0-.19,1.371q-.063.724-.063,1.46V100h-6.348V93.5a10.824,10.824,0,0,0-.317-2.412q-.292-1.168-.622-2.4t-.609-2.6a15.023,15.023,0,0,1-.279-3,8.495,8.495,0,0,1,1-4.177,8.755,8.755,0,0,1,2.831-3.047A13.674,13.674,0,0,1,710.564,74a23.956,23.956,0,0,1,5.726-.635,23.641,23.641,0,0,1,5.9.673,12.656,12.656,0,0,1,4.405,2.006,8.691,8.691,0,0,1,2.742,3.326,10.7,10.7,0,0,1,.939,4.608V100h-6.322V84.563a7.155,7.155,0,0,0-.381-2.349,4.786,4.786,0,0,0-1.206-1.9,6.372,6.372,0,0,0-2.311-1.333,11.311,11.311,0,0,0-3.771-.533,11.834,11.834,0,0,0-3.771.508,6.292,6.292,0,0,0-2.285,1.257,4.622,4.622,0,0,0-1.181,1.752,5.851,5.851,0,0,0-.381,2.095,8.1,8.1,0,0,0,.267,2.158q.267.965.571,2.031a6.747,6.747,0,0,1,.99-1.917,7.021,7.021,0,0,1,1.46-1.46,6.464,6.464,0,0,1,1.752-.927,5.727,5.727,0,0,1,1.866-.317,5.664,5.664,0,0,1,2.044.355,4.574,4.574,0,0,1,1.587,1,4.455,4.455,0,0,1,1.016,1.523,5.485,5.485,0,0,1,0,3.885,4.605,4.605,0,0,1-.978,1.511,4.342,4.342,0,0,1-1.511.99,5.219,5.219,0,0,1-1.955.355,5.021,5.021,0,0,1-2.641-.673A4.19,4.19,0,0,1,711.465,90.682Zm4.316-4.189a1.951,1.951,0,1,0,1.384.571A1.885,1.885,0,0,0,715.782,86.492Zm35.051,4.393.2.025a4.778,4.778,0,0,1,1.638.482,4.564,4.564,0,0,1,1.308.99,4.51,4.51,0,0,1,.876,1.422,4.916,4.916,0,0,1,.317,1.8,5.277,5.277,0,0,1-.381,2.069,4.016,4.016,0,0,1-1.092,1.511,4.729,4.729,0,0,1-1.676.914,7.149,7.149,0,0,1-2.158.3,5.454,5.454,0,0,1-3.809-1.435,5.71,5.71,0,0,1-1.574-4.431v-3.4a7.112,7.112,0,0,1,2.45-5.764q2.45-2.057,7.351-2.057a16.72,16.72,0,0,1,3.91.406,10.847,10.847,0,0,1,2.793,1.041,7.328,7.328,0,0,1,1.892,1.511,7.865,7.865,0,0,1,1.231,1.841h.076V84.055a5.857,5.857,0,0,0-.508-2.539,4.652,4.652,0,0,0-1.422-1.752,6.028,6.028,0,0,0-2.2-1,16.944,16.944,0,0,0-3.8-.317,21.537,21.537,0,0,0-3.136.241,27.029,27.029,0,0,0-3.212.673,25.173,25.173,0,0,0-2.983,1.016,16.078,16.078,0,0,0-2.45,1.244v-5.84a12.17,12.17,0,0,1,2.361-1.092,20.6,20.6,0,0,1,2.831-.749,29.923,29.923,0,0,1,3.174-.432q1.663-.14,3.415-.14,7.084,0,10.664,2.7t3.58,7.909V100h-6.348V94.744a7.411,7.411,0,0,0-.482-2.679,6.93,6.93,0,0,0-1.435-2.272,7.917,7.917,0,0,0-2.552-1.739,9.6,9.6,0,0,0-3.961-.724,5.758,5.758,0,0,0-3.771.978,2.887,2.887,0,0,0-1.13,2.222Zm-2.412,4.723a1.951,1.951,0,1,0,.571-1.384A1.885,1.885,0,0,0,748.421,95.607Z" transform="translate(180 454)"/>
    </g>
    <g id="蒙版组_29" data-name="蒙版组 29" transform="translate(0 6)" clip-path="url(#clip-path)">
      <g id="组_21645" data-name="组 21645" transform="translate(607.025 42)" opacity="0.05">
        <g id="组_21643" data-name="组 21643" transform="translate(511.697 290.751)">
          <path id="路径_38579" data-name="路径 38579" d="M1013.384-159.409,893.756-228.476a25.412,25.412,0,0,1-12.707-22.007V-388.618a25.414,25.414,0,0,1,12.707-22.008l119.628-69.067a25.414,25.414,0,0,1,25.412,0l119.628,69.067a25.414,25.414,0,0,1,12.706,22.008v138.135a25.412,25.412,0,0,1-12.706,22.007L1038.8-159.409A25.414,25.414,0,0,1,1013.384-159.409Z" transform="translate(-864.619 497.837)" fill="none" stroke="#000" stroke-miterlimit="10" stroke-width="3"/>
          <line id="直线_476" data-name="直线 476" y1="17.727" transform="translate(0 103.269)" fill="none" stroke="#000" stroke-miterlimit="10" stroke-width="3"/>
          <line id="直线_477" data-name="直线 477" y1="81.974" transform="translate(0 137.481)" fill="none" stroke="#000" stroke-miterlimit="10" stroke-width="3"/>
          <line id="直线_478" data-name="直线 478" x1="14.725" y1="8.501" transform="translate(16.86 280.988)" fill="none" stroke="#000" stroke-miterlimit="10" stroke-width="3"/>
          <line id="直线_479" data-name="直线 479" x1="72.444" y1="41.826" transform="translate(45.325 297.423)" fill="none" stroke="#000" stroke-miterlimit="10" stroke-width="3"/>
          <line id="直线_480" data-name="直线 480" x1="14.226" y2="8.214" transform="translate(179.284 346.787)" fill="none" stroke="#000" stroke-miterlimit="10" stroke-width="3"/>
          <line id="直线_481" data-name="直线 481" x1="71.959" y2="41.545" transform="translate(208.141 296.794)" fill="none" stroke="#000" stroke-miterlimit="10" stroke-width="3"/>
          <line id="直线_482" data-name="直线 482" y2="16.824" transform="translate(324.336 235.376)" fill="none" stroke="#000" stroke-miterlimit="10" stroke-width="3"/>
          <line id="直线_483" data-name="直线 483" y2="82.877" transform="translate(324.336 134.545)" fill="none" stroke="#000" stroke-miterlimit="10" stroke-width="3"/>
          <line id="直线_484" data-name="直线 484" x2="14.76" y2="8.522" transform="translate(292.842 65.816)" fill="none" stroke="#000" stroke-miterlimit="10" stroke-width="3"/>
          <line id="直线_485" data-name="直线 485" x2="72.021" y2="41.581" transform="translate(206.279 15.839)" fill="none" stroke="#000" stroke-miterlimit="10" stroke-width="3"/>
          <line id="直线_486" data-name="直线 486" y1="8.291" x2="14.36" transform="translate(131.131)" fill="none" stroke="#000" stroke-miterlimit="10" stroke-width="3" opacity="0.5"/>
          <line id="直线_487" data-name="直线 487" y1="41.224" x2="71.402" transform="translate(44.349 17.17)" fill="none" stroke="#000" stroke-miterlimit="10" stroke-width="3"/>
        </g>
        <path id="路径_38580" data-name="路径 38580" d="M1168.183-454.584l-61.941-35.762a25.41,25.41,0,0,1-12.705-22.007v-71.525a25.41,25.41,0,0,1,12.705-22.007l61.941-35.761a25.407,25.407,0,0,1,25.412,0l61.941,35.761a25.412,25.412,0,0,1,12.706,22.007v71.525a25.412,25.412,0,0,1-12.706,22.007l-61.941,35.762A25.413,25.413,0,0,1,1168.183-454.584Z" transform="translate(-277.502 731.103)" fill="none" stroke="#000" stroke-miterlimit="10" stroke-width="3"/>
        <path id="路径_38581" data-name="路径 38581" d="M1179.55-501.2l-11.514,6.647a25.756,25.756,0,0,1-2.492,1.263" transform="translate(-251.943 782.163)" fill="none" stroke="#000" stroke-miterlimit="10" stroke-width="3"/>
        <path id="路径_38582" data-name="路径 38582" d="M1245.692-539.016a25.417,25.417,0,0,1-11.963,15.9l-48.381,27.932" transform="translate(-244.914 768.74)" fill="none" stroke="#000" stroke-miterlimit="10" stroke-width="3"/>
        <line id="直线_488" data-name="直线 488" y2="15.751" transform="translate(1001.521 156.114)" fill="none" stroke="#000" stroke-miterlimit="10" stroke-width="3"/>
        <path id="路径_38583" data-name="路径 38583" d="M1190.822-638.194l40.964,23.652a25.408,25.408,0,0,1,12.705,22.007" transform="translate(-242.971 733.537)" fill="none" stroke="#000" stroke-miterlimit="10" stroke-width="3"/>
        <path id="路径_38584" data-name="路径 38584" d="M1141.4-645.793l9.8-5.66q.987-.569,2.009-1.043" transform="translate(-260.515 728.461)" fill="none" stroke="#000" stroke-miterlimit="10" stroke-width="3"/>
        <path id="路径_38585" data-name="路径 38585" d="M1086.423-598.847a25.41,25.41,0,0,1,11.563-14.468l49.078-28.336" transform="translate(-280.027 732.31)" fill="none" stroke="#000" stroke-miterlimit="10" stroke-width="3"/>
        <path id="路径_38587" data-name="路径 38587" d="M1006.642-454.15l51.553-92.369a25.409,25.409,0,0,1,21.82-13.025l32.868-.478" transform="translate(-308.344 761.284)" fill="none" stroke="#000" stroke-miterlimit="10" stroke-width="3"/>
        <path id="路径_38588" data-name="路径 38588" d="M1310-590l-11.883,26.319c-2.99,6.623-8.145,10.387-13.524,9.874l-4.273-.406" transform="translate(-190.893 750.645)" fill="none" stroke="#000" stroke-miterlimit="10" stroke-width="3"/>
        <path id="路径_38589" data-name="路径 38589" d="M1329.37-344.239l-16.242-26.171a25.411,25.411,0,0,0-22.4-12l-15.338.229" transform="translate(-212.954 824.322)" fill="none" stroke="#000" stroke-miterlimit="10" stroke-width="3"/>
        <path id="路径_38590" data-name="路径 38590" d="M1157.853-63.183,1110.43-90.564a25.412,25.412,0,0,1-12.707-22.007v-54.76a25.41,25.41,0,0,1,12.707-22.007l47.423-27.381a25.413,25.413,0,0,1,25.412,0l47.425,27.381a25.409,25.409,0,0,1,12.705,22.007v54.76a25.411,25.411,0,0,1-12.705,22.007l-47.425,27.381A25.413,25.413,0,0,1,1157.853-63.183Z" transform="translate(-276.016 881.929)" fill="none" stroke="#000" stroke-miterlimit="10" stroke-width="3"/>
        <path id="路径_38592" data-name="路径 38592" d="M1120.55-95.561l-16.971-9.8a25.416,25.416,0,0,1-12.705-22.008v-35.976" transform="translate(-278.447 902.082)" fill="none" stroke="#000" stroke-miterlimit="10" stroke-width="3"/>
        <path id="路径_38593" data-name="路径 38593" d="M1172.6-100.947l-10.7,6.18a25.448,25.448,0,0,1-3.979,1.859" transform="translate(-254.65 924.229)" fill="none" stroke="#000" stroke-miterlimit="10" stroke-width="3"/>
        <path id="路径_38594" data-name="路径 38594" d="M1223.06-151.51v19.943a25.414,25.414,0,0,1-12.707,22.008l-29.191,16.853" transform="translate(-246.4 906.282)" fill="none" stroke="#000" stroke-miterlimit="10" stroke-width="3"/>
        <path id="路径_38595" data-name="路径 38595" d="M1195.024-205.792l10.409,6.009a25.435,25.435,0,0,1,4.158,3" transform="translate(-241.48 887.015)" fill="none" stroke="#000" stroke-miterlimit="10" stroke-width="3"/>
        <path id="路径_38597" data-name="路径 38597" d="M562.612-422.758,511.14-452.474a25.411,25.411,0,0,1-12.705-22.007v-59.435a25.41,25.41,0,0,1,12.705-22.007l51.471-29.717a25.413,25.413,0,0,1,25.412,0l51.47,29.717A25.412,25.412,0,0,1,652.2-533.916v59.435a25.412,25.412,0,0,1-12.707,22.007l-51.47,29.717A25.414,25.414,0,0,1,562.612-422.758Z" transform="translate(-488.728 750.983)" fill="none" stroke="#000" stroke-miterlimit="10" stroke-width="3"/>
        <g id="组_21644" data-name="组 21644" transform="translate(0 150.731)">
          <path id="路径_38598" data-name="路径 38598" d="M491.271-537.949v-13.414a25.314,25.314,0,0,1,.369-4.313" transform="translate(-491.271 612.095)" fill="none" stroke="#000" stroke-miterlimit="10" stroke-width="3"/>
          <path id="路径_38599" data-name="路径 38599" d="M522.553-457.247l-18.576-10.724a25.413,25.413,0,0,1-12.705-22.007v-39.614" transform="translate(-491.271 621.353)" fill="none" stroke="#000" stroke-miterlimit="10" stroke-width="3"/>
          <line id="直线_489" data-name="直线 489" x1="12.539" y2="7.24" transform="translate(99.295 181.463)" fill="none" stroke="#000" stroke-miterlimit="10" stroke-width="3"/>
          <path id="路径_38600" data-name="路径 38600" d="M631.261-500.356a25.452,25.452,0,0,1-.365,4.288,25.419,25.419,0,0,1-12.342,17.719l-33.776,19.5" transform="translate(-458.081 631.731)" fill="none" stroke="#000" stroke-miterlimit="10" stroke-width="3"/>
          <path id="路径_38601" data-name="路径 38601" d="M601.06-573.727l11.715,6.764a25.517,25.517,0,0,1,3,2.033" transform="translate(-452.302 605.688)" fill="none" stroke="#000" stroke-miterlimit="10" stroke-width="3"/>
          <path id="路径_38602" data-name="路径 38602" d="M532.161-583.242l18.48-10.669a25.413,25.413,0,0,1,25.412,0l33.682,19.446" transform="translate(-476.757 597.316)" fill="none" stroke="#000" stroke-miterlimit="10" stroke-width="3"/>
        </g>
        <path id="路径_38603" data-name="路径 38603" d="M784.13-130.363,736.539-157.84a25.409,25.409,0,0,1-12.705-22.007V-234.8a25.411,25.411,0,0,1,12.705-22.007l47.591-27.477a25.414,25.414,0,0,1,25.412,0l47.591,27.477A25.411,25.411,0,0,1,869.839-234.8v54.954a25.409,25.409,0,0,1-12.705,22.007l-47.591,27.477A25.413,25.413,0,0,1,784.13-130.363Z" transform="translate(-408.725 857.947)" fill="none" stroke="#000" stroke-miterlimit="10" stroke-width="3"/>
        <path id="路径_38604" data-name="路径 38604" d="M856.246-197.36a25.408,25.408,0,0,1-10.913,12.629l-56.885,32.842a25.435,25.435,0,0,1-4.244,1.954" transform="translate(-387.297 890.008)" fill="none" stroke="#000" stroke-miterlimit="10" stroke-width="3"/>
        <path id="路径_38605" data-name="路径 38605" d="M821.241-273.667l10.946,6.321a25.412,25.412,0,0,1,12.707,22.007v56.569" transform="translate(-374.151 862.924)" fill="none" stroke="#000" stroke-miterlimit="10" stroke-width="3"/>
        <path id="路径_38606" data-name="路径 38606" d="M719.27-249.4a25.416,25.416,0,0,1,6.6-8.165,25.443,25.443,0,0,1,3.331-2.294l56.884-32.842a25.554,25.554,0,0,1,4.493-2.042" transform="translate(-410.345 855.441)" fill="none" stroke="#000" stroke-miterlimit="10" stroke-width="3"/>
        <path id="路径_38607" data-name="路径 38607" d="M740.3-161.8l-10.378-5.992A25.413,25.413,0,0,1,717.222-189.8v-55.3" transform="translate(-411.072 873.066)" fill="none" stroke="#000" stroke-miterlimit="10" stroke-width="3"/>
        <path id="路径_38608" data-name="路径 38608" d="M801.881-428.266l-69.77-40.283a25.409,25.409,0,0,1-12.705-22.007v-80.563a25.413,25.413,0,0,1,12.705-22.008l69.77-40.281a25.407,25.407,0,0,1,25.412,0l69.771,40.281a25.413,25.413,0,0,1,12.705,22.008v80.563a25.409,25.409,0,0,1-12.705,22.007l-69.771,40.283A25.414,25.414,0,0,1,801.881-428.266Z" transform="translate(-410.296 734.028)" fill="none" stroke="#000" stroke-miterlimit="10" stroke-width="3"/>
        <line id="直线_490" data-name="直线 490" y1="16.767" transform="translate(297.366 214.546)" fill="none" stroke="#000" stroke-miterlimit="10" stroke-width="3"/>
        <path id="路径_38609" data-name="路径 38609" d="M769.423-475.312l-45.979-26.546a25.411,25.411,0,0,1-12.705-22.007" transform="translate(-413.373 774.118)" fill="none" stroke="#000" stroke-miterlimit="10" stroke-width="3"/>
        <line id="直线_491" data-name="直线 491" x1="13.364" y2="7.715" transform="translate(416.997 311.606)" fill="none" stroke="#000" stroke-miterlimit="10" stroke-width="3"/>
        <line id="直线_492" data-name="直线 492" y2="16.429" transform="translate(511.217 174.914)" fill="none" stroke="#000" stroke-miterlimit="10" stroke-width="3"/>
        <path id="路径_38611" data-name="路径 38611" d="M825.669-628.929,871.091-602.7A25.412,25.412,0,0,1,883.8-580.7v2.356" transform="translate(-372.579 736.826)" fill="none" stroke="#000" stroke-miterlimit="10" stroke-width="3"/>
        <line id="直线_493" data-name="直线 493" y1="7.232" x2="12.526" transform="translate(379.059 87.059)" fill="none" stroke="#000" stroke-miterlimit="10" stroke-width="3"/>
        <path id="路径_38612" data-name="路径 38612" d="M711.649-587.054a25.4,25.4,0,0,1,11.472-14.186l55.105-31.815" transform="translate(-413.05 735.361)" fill="none" stroke="#000" stroke-miterlimit="10" stroke-width="3"/>
        <path id="路径_38613" data-name="路径 38613" d="M1372.351-532.955l-51.737-29.87a25.411,25.411,0,0,1-12.705-22.007v-59.741a25.412,25.412,0,0,1,12.705-22.008l51.737-29.87a25.413,25.413,0,0,1,25.412,0l51.737,29.87a25.412,25.412,0,0,1,12.705,22.008v59.741a25.41,25.41,0,0,1-12.705,22.007l-51.737,29.87A25.407,25.407,0,0,1,1372.351-532.955Z" transform="translate(-201.412 711.652)" fill="none" stroke="#000" stroke-miterlimit="10" stroke-width="3"/>
        <path id="路径_38614" data-name="路径 38614" d="M1329.118-684.711l35.413-20.446a25.418,25.418,0,0,1,22.385-1.489" transform="translate(-193.884 708.561)" fill="none" stroke="#000" stroke-miterlimit="10" stroke-width="3"/>
        <path id="路径_38615" data-name="路径 38615" d="M1300.6-602.032v-61.074q0-1.079.091-2.145" transform="translate(-204.005 723.934)" fill="none" stroke="#000" stroke-miterlimit="10" stroke-width="3"/>
        <path id="路径_38616" data-name="路径 38616" d="M1349.115-569.714l-35.888-20.721a25.411,25.411,0,0,1-12.388-18" transform="translate(-203.922 744.102)" fill="none" stroke="#000" stroke-miterlimit="10" stroke-width="3"/>
        <path id="路径_38617" data-name="路径 38617" d="M1427.84-591.61,1374.8-560.988a25.447,25.447,0,0,1-3.027,1.489" transform="translate(-178.743 750.072)" fill="none" stroke="#000" stroke-miterlimit="10" stroke-width="3"/>
        <path id="路径_38618" data-name="路径 38618" d="M1431.988-641.676v41.035a25.409,25.409,0,0,1-12.705,22.007" transform="translate(-161.881 732.302)" fill="none" stroke="#000" stroke-miterlimit="10" stroke-width="3"/>
        <path id="路径_38619" data-name="路径 38619" d="M1380.022-702.577l53.2,30.713a25.521,25.521,0,0,1,2.8,1.876" transform="translate(-175.816 710.685)" fill="none" stroke="#000" stroke-miterlimit="10" stroke-width="3"/>
        <path id="路径_38620" data-name="路径 38620" d="M1367.019-184.949,1305.1-220.7a25.41,25.41,0,0,1-12.707-22.007v-71.5a25.412,25.412,0,0,1,12.707-22.007l61.921-35.75a25.414,25.414,0,0,1,25.412,0l61.921,35.75a25.412,25.412,0,0,1,12.707,22.007v71.5a25.41,25.41,0,0,1-12.707,22.007l-61.921,35.75A25.407,25.407,0,0,1,1367.019-184.949Z" transform="translate(-206.92 826.826)" fill="none" stroke="#000" stroke-miterlimit="10" stroke-width="3"/>
        <path id="路径_38623" data-name="路径 38623" d="M1437.682-300.676v36.05a25.415,25.415,0,0,1-12.705,22.007l-21.469,12.395" transform="translate(-167.48 853.337)" fill="none" stroke="#000" stroke-miterlimit="10" stroke-width="3"/>
        <path id="路径_38624" data-name="路径 38624" d="M1393.159-366.481l35.49,20.489a25.558,25.558,0,0,1,2.438,1.6" transform="translate(-171.153 829.98)" fill="none" stroke="#000" stroke-miterlimit="10" stroke-width="3"/>
        <path id="路径_38625" data-name="路径 38625" d="M1324.258-362.629l31.8-18.361a25.413,25.413,0,0,1,25.412,0l21.491,12.407" transform="translate(-195.609 823.622)" fill="none" stroke="#000" stroke-miterlimit="10" stroke-width="3"/>
        <path id="路径_38626" data-name="路径 38626" d="M611.92-521.478h56.542a13.1,13.1,0,0,0,13.1-13.1v-24.163A16.936,16.936,0,0,1,698.5-575.676h59.061" transform="translate(-448.448 755.728)" fill="none" stroke="#000" stroke-miterlimit="10" stroke-width="3"/>
        <line id="直线_495" data-name="直线 495" x2="69.102" transform="translate(838.319 443.362)" fill="none" stroke="#000" stroke-miterlimit="10" stroke-width="3"/>
        <line id="直线_496" data-name="直线 496" x2="76.046" transform="translate(924.302 443.193)" fill="none" stroke="#000" stroke-miterlimit="10" stroke-width="3"/>
        <path id="路径_38628" data-name="路径 38628" d="M43.311,63.448" transform="translate(508.511 308.169)" fill="none" stroke="#000" stroke-width="3"/>
        <line id="直线_499" data-name="直线 499" y2="15.356" transform="translate(806.397 193.262)" fill="none" stroke="#000" stroke-miterlimit="10" stroke-width="3"/>
        <line id="直线_501" data-name="直线 501" x2="38.656" y2="59.054" transform="translate(729.206 623.681)" fill="none" stroke="#000" stroke-miterlimit="10" stroke-width="3"/>
        <line id="直线_502" data-name="直线 502" x1="42.491" y2="63.049" transform="translate(540.853 603.371)" fill="none" stroke="#000" stroke-miterlimit="10" stroke-width="3"/>
        <path id="路径_38627" data-name="路径 38627" d="M831.02-202.357h57.422s8.581.595,13.1-4.486" transform="translate(-370.68 886.642)" fill="none" stroke="#000" stroke-miterlimit="10" stroke-width="3"/>
      </g>
    </g>
  </g>
</svg>
