<svg xmlns="http://www.w3.org/2000/svg" width="50" height="50" viewBox="0 0 50 50">
  <g id="新手引导_1" transform="translate(0 -0.111)">
    <rect id="矩形_2179" data-name="矩形 2179" width="50" height="50" transform="translate(0 0.111)" fill="#fff" opacity="0"/>
    <path id="路径_1928" data-name="路径 1928" d="M70.488,228.857a.372.372,0,0,0,.046.043,5.534,5.534,0,0,0,.5.41,5.469,5.469,0,0,0,6.8-.338.433.433,0,0,0,.065-.057,5.471,5.471,0,1,0-7.418-.057Zm1.057-.253c-.088-.063-.172-.129-.254-.2a2.693,2.693,0,0,1,2.3-1.651,2.34,2.34,0,0,0,.6.083H74.2a2.284,2.284,0,0,0,.607-.085A2.642,2.642,0,0,1,77.1,228.46a4.6,4.6,0,0,1-5.555.144Zm1.94-4.483a1.822,1.822,0,0,0,1.1.262h1.08v.288a1.281,1.281,0,0,1-.619,1.031,1.539,1.539,0,0,1-.854.267,1.467,1.467,0,0,1-.431-.068l-.024-.008a1.413,1.413,0,0,1-1.023-1.221v-.239A1.181,1.181,0,0,0,73.484,224.12Zm-.767-.558a1.4,1.4,0,0,1,1.49-1.3,1.425,1.425,0,0,1,1.03.406,1.526,1.526,0,0,1,.4.846H74.587c-.606,0-.649-.1-.764-.357a.434.434,0,0,0-.823.09C72.959,223.452,72.881,223.542,72.717,223.562Zm-2.229-1.378a4.6,4.6,0,0,1,6.423-1.056,4.6,4.6,0,0,1,1.057,6.419q-.095.132-.2.255a3.372,3.372,0,0,0-1.888-1.663,2.065,2.065,0,0,0,.653-1.468v-.724a2.568,2.568,0,0,0-.678-1.889,2.288,2.288,0,0,0-1.649-.665,2.265,2.265,0,0,0-2.361,2.254v1.024a2.07,2.07,0,0,0,.655,1.465,3.28,3.28,0,0,0-1.874,1.6,4.6,4.6,0,0,1-.139-5.549Z" transform="translate(-49.23 -208.289)" fill="#ef54a1"/>
    <path id="路径_1929" data-name="路径 1929" d="M76.984,254.88H64.929a1.542,1.542,0,0,0-1.538,1.538h0a1.536,1.536,0,0,0,1.536,1.536H76.982a1.542,1.542,0,0,0,1.538-1.538h0A1.536,1.536,0,0,0,76.984,254.88Z" transform="translate(-45.958 -230.668)" fill="none" stroke="#ef54a1" stroke-width="1.2"/>
    <path id="路径_858" data-name="路径 858" d="M66.327,204.65H53a.318.318,0,1,0,0,.635H66.327a1.948,1.948,0,0,1,1.958,1.932v23.4H28.511V224.66a.322.322,0,0,0-.644,0v5.964H24.934v-23.4a1.948,1.948,0,0,1,1.958-1.932h14.2a.318.318,0,1,0,0-.635h-14.2a2.588,2.588,0,0,0-2.6,2.568v27.264a2.588,2.588,0,0,0,2.6,2.568h16V243.3h-3.6a.318.318,0,1,0-.022.635H53.933a.318.318,0,1,0,.022-.635H50.33v-6.246h16a2.588,2.588,0,0,0,2.6-2.568V207.218A2.588,2.588,0,0,0,66.327,204.65ZM49.686,243.3H43.534v-6.247h6.152Zm18.6-8.815a1.948,1.948,0,0,1-1.958,1.932H26.892a1.947,1.947,0,0,1-1.958-1.932v-3.226H68.286Z" transform="translate(-21.612 -199.293)" fill="#ef54a1" stroke="#ef54a1" stroke-width="0.5"/>
    <path id="路径_859" data-name="路径 859" d="M87.656,205.214a.329.329,0,1,0-.468,0A.343.343,0,0,0,87.656,205.214Z" transform="translate(-61.606 -199.295)" fill="#ef54a1"/>
    <path id="路径_860" data-name="路径 860" d="M82.265,281.655a.325.325,0,0,0,.333-.317v-.011a.331.331,0,1,0-.333.329Z" transform="translate(-57.271 -246.912)" fill="#ef54a1"/>
  </g>
</svg>
