<svg xmlns="http://www.w3.org/2000/svg" width="50" height="50" viewBox="0 0 50 50">
  <g id="新手引导_3" transform="translate(0 0.446)">
    <rect id="矩形_2181" data-name="矩形 2181" width="50" height="50" transform="translate(0 -0.446)" fill="#fff" opacity="0"/>
    <g id="组_791" data-name="组 791" transform="translate(2.679 29.462)">
      <rect id="矩形_86" data-name="矩形 86" width="6.33" height="14.505" transform="translate(38.309 1.281)" fill="none" stroke="#19d9b4" stroke-linecap="round" stroke-miterlimit="10" stroke-width="1.2"/>
      <path id="路径_1936" data-name="路径 1936" d="M108.412,187.706s-18.259,4.939-21.25,3.669c-2.713-1.152-14.383-9.758-16.528-11.347a.375.375,0,0,1-.041-.574,5.329,5.329,0,0,1,5.892-1.208c3.756,1.53,9.112,3.721,9.112,3.721" transform="translate(-70.478 -173.728)" fill="none" stroke="#19d9b4" stroke-linecap="round" stroke-miterlimit="10" stroke-width="1.2"/>
      <path id="路径_1937" data-name="路径 1937" d="M128.021,170.13s-7.721-2.921-9.738-2.574-11.2,7.026-11.2,7.026-2.318,1.159-.918,2.914a3.062,3.062,0,0,0,3.153.991,12.959,12.959,0,0,0,1.938-.706c2.365-1.043,4.938-2.226,4.938-2.226" transform="translate(-89.712 -167.527)" fill="none" stroke="#19d9b4" stroke-linecap="round" stroke-miterlimit="10" stroke-width="1.2"/>
      <path id="路径_1938" data-name="路径 1938" d="M86.668,174.859l-2.48-1.735a.279.279,0,0,1-.009-.455,4.04,4.04,0,0,1,4.052-.452c2.574,1.078,6.42,3.092,6.42,3.092" transform="translate(-77.879 -169.892)" fill="none" stroke="#19d9b4" stroke-linecap="round" stroke-miterlimit="10" stroke-width="1.2"/>
      <path id="路径_1939" data-name="路径 1939" d="M100.425,170.8l-1.773-1.351a.455.455,0,0,1-.092-.637.439.439,0,0,1,.087-.088c.6-.469,1.867-1.056,3.851-.081,2.9,1.426,4.084,2.156,4.084,2.156" transform="translate(-85.738 -167.845)" fill="none" stroke="#19d9b4" stroke-linecap="round" stroke-miterlimit="10" stroke-width="1.2"/>
    </g>
    <ellipse id="椭圆_54" data-name="椭圆 54" cx="11.551" cy="11.571" rx="11.551" ry="11.571" transform="translate(13.448 2.675)" fill="none" stroke="#19d9b4" stroke-miterlimit="10" stroke-width="1.2"/>
  </g>
</svg>
