<svg xmlns="http://www.w3.org/2000/svg" xmlns:xlink="http://www.w3.org/1999/xlink" width="690" height="333.626" viewBox="0 0 690 333.626">
  <defs>
    <clipPath id="clip-path">
      <rect id="矩形_2278" data-name="矩形 2278" width="690" height="333.626" fill="#fff"/>
    </clipPath>
  </defs>
  <g id="小屏-banner" transform="translate(-19064 342)">
    <g id="组_21831" data-name="组 21831" transform="translate(19053.314 -450)">
      <g id="组_21800" data-name="组 21800" transform="translate(316.316 154.907)">
        <g id="新手引导_2" data-name="新手引导 2" transform="translate(205.986 35.5)">
          <path id="路径_1948" data-name="路径 1948" d="M1721.463,349.6h-14.194l-3.911,3.4a.515.515,0,0,1-.842-.3l-.506-3.1h-2.533a.409.409,0,0,1-.409-.409h0V334.317a.408.408,0,0,1,.408-.409h21.987a.409.409,0,0,1,.409.409h0v14.875A.409.409,0,0,1,1721.463,349.6Z" transform="translate(-1699.069 -333.908)" fill="none" stroke="#0080f4" stroke-linecap="round" stroke-miterlimit="10" stroke-width="1"/>
          <g id="组_799" data-name="组 799" transform="translate(6.072 5.534)">
            <path id="路径_1951" data-name="路径 1951" d="M1710.61,348.687a1.97,1.97,0,0,1-.615-1.429,2.029,2.029,0,0,1,.566-1.449,1.97,1.97,0,0,1,1.429-.615l2.629-.044a2.026,2.026,0,0,1,1.449.566,1.969,1.969,0,0,1,.614,1.429.405.405,0,0,1-.118.289.462.462,0,0,1-.285.129.4.4,0,0,1-.41-.385v-.012a1.238,1.238,0,0,0-1.243-1.2l-2.629.045a1.207,1.207,0,0,0-.851.379,1.271,1.271,0,0,0-.35.864,1.2,1.2,0,0,0,.379.851,1.267,1.267,0,0,0,.863.35l2.218-.038a.4.4,0,0,1,.014.808l-2.219.037A2.042,2.042,0,0,1,1710.61,348.687Z" transform="translate(-1709.995 -345.075)" fill="#0080f4"/>
            <path id="路径_1952" data-name="路径 1952" d="M1721.479,348.5a1.969,1.969,0,0,1-.616-1.43.4.4,0,1,1,.808-.014,1.237,1.237,0,0,0,1.242,1.2l2.63-.045a1.208,1.208,0,0,0,.851-.379,1.271,1.271,0,0,0,.349-.863,1.208,1.208,0,0,0-.379-.851,1.271,1.271,0,0,0-.863-.349l-2.218.037a.406.406,0,0,1-.008-.81l2.218-.038a2.028,2.028,0,0,1,1.448.566,1.97,1.97,0,0,1,.615,1.429,2.034,2.034,0,0,1-1.994,2.063l-2.629.045a2.031,2.031,0,0,1-1.45-.567Z" transform="translate(-1716.538 -344.961)" fill="#0080f4"/>
          </g>
        </g>
        <g id="组_21419" data-name="组 21419" transform="translate(120.466 71.868)">
          <path id="路径_37402" data-name="路径 37402" d="M1557.566,499.484,1528,482.411a6.281,6.281,0,0,1-3.141-5.439V442.827a6.282,6.282,0,0,1,3.141-5.44l29.567-17.072a6.283,6.283,0,0,1,6.281,0l29.569,17.072a6.282,6.282,0,0,1,3.141,5.44v34.144a6.281,6.281,0,0,1-3.141,5.439l-29.569,17.072A6.281,6.281,0,0,1,1557.566,499.484Z" transform="translate(-1520.797 -415.831)" fill="none" stroke="#0c111a" stroke-miterlimit="10" stroke-width="1"/>
          <line id="直线_167" data-name="直线 167" y1="4.382" transform="translate(0 25.526)" fill="none" stroke="#0c111a" stroke-miterlimit="10" stroke-width="1"/>
          <line id="直线_168" data-name="直线 168" y1="20.262" transform="translate(0 33.982)" fill="none" stroke="#0c111a" stroke-miterlimit="10" stroke-width="1"/>
          <line id="直线_169" data-name="直线 169" x1="3.64" y1="2.101" transform="translate(4.167 69.455)" fill="none" stroke="#0c111a" stroke-miterlimit="10" stroke-width="1"/>
          <line id="直线_170" data-name="直线 170" x1="17.907" y1="10.338" transform="translate(11.203 73.517)" fill="none" stroke="#0c111a" stroke-miterlimit="10" stroke-width="1"/>
          <line id="直线_171" data-name="直线 171" x1="3.516" y2="2.03" transform="translate(44.315 85.719)" fill="none" stroke="#0c111a" stroke-miterlimit="10" stroke-width="1"/>
          <line id="直线_172" data-name="直线 172" x1="17.787" y2="10.269" transform="translate(51.448 73.361)" fill="none" stroke="#0c111a" stroke-miterlimit="10" stroke-width="1"/>
          <line id="直线_173" data-name="直线 173" y2="4.159" transform="translate(80.169 58.18)" fill="none" stroke="#0c111a" stroke-miterlimit="10" stroke-width="1"/>
          <line id="直线_174" data-name="直线 174" y2="20.486" transform="translate(80.169 33.257)" fill="none" stroke="#0c111a" stroke-miterlimit="10" stroke-width="1"/>
          <line id="直线_175" data-name="直线 175" x2="3.649" y2="2.106" transform="translate(72.384 16.268)" fill="none" stroke="#0c111a" stroke-miterlimit="10" stroke-width="1"/>
          <line id="直线_176" data-name="直线 176" x2="17.802" y2="10.278" transform="translate(50.988 3.915)" fill="none" stroke="#0c111a" stroke-miterlimit="10" stroke-width="1"/>
          <line id="直线_177" data-name="直线 177" y1="2.049" x2="3.549" transform="translate(32.413)" fill="none" stroke="#0c111a" stroke-miterlimit="10" stroke-width="1"/>
          <line id="直线_178" data-name="直线 178" y1="10.19" x2="17.649" transform="translate(10.962 4.244)" fill="none" stroke="#0c111a" stroke-miterlimit="10" stroke-width="1"/>
        </g>
        <path id="路径_37403" data-name="路径 37403" d="M1695.678,350.553l-15.311-8.837a6.281,6.281,0,0,1-3.14-5.439V318.6a6.281,6.281,0,0,1,3.14-5.439l15.311-8.837a6.281,6.281,0,0,1,6.281,0l15.311,8.837a6.281,6.281,0,0,1,3.141,5.439v17.68a6.281,6.281,0,0,1-3.141,5.439l-15.311,8.837A6.281,6.281,0,0,1,1695.678,350.553Z" transform="translate(-1481.454 -282.206)" fill="none" stroke="#0080f4" stroke-miterlimit="10" stroke-width="1"/>
        <path id="路径_37404" data-name="路径 37404" d="M1732.093,406.509l-2.846,1.643a6.453,6.453,0,0,1-.616.312" transform="translate(-1508.822 -337.061)" fill="none" stroke="#000" stroke-miterlimit="10" stroke-width="1"/>
        <path id="路径_37405" data-name="路径 37405" d="M1757.731,379.423a6.283,6.283,0,0,1-2.957,3.931l-11.958,6.9" transform="translate(-1516.374 -322.64)" fill="none" stroke="#000" stroke-miterlimit="10" stroke-width="1"/>
        <line id="直线_179" data-name="直线 179" y2="3.894" transform="translate(241.541 38.588)" fill="none" stroke="#000" stroke-miterlimit="10" stroke-width="1"/>
        <path id="路径_37406" data-name="路径 37406" d="M1746.736,308.386l10.125,5.845a6.281,6.281,0,0,1,3.14,5.439" transform="translate(-1518.462 -284.819)" fill="none" stroke="#000" stroke-miterlimit="10" stroke-width="1"/>
        <path id="路径_37407" data-name="路径 37407" d="M1711.339,299.8l2.423-1.4q.244-.14.5-.258" transform="translate(-1499.616 -279.365)" fill="none" stroke="#000" stroke-miterlimit="10" stroke-width="1"/>
        <path id="路径_37408" data-name="路径 37408" d="M1671.959,316.49a6.282,6.282,0,0,1,2.858-3.576l12.131-7" transform="translate(-1478.649 -283.501)" fill="none" stroke="#000" stroke-miterlimit="10" stroke-width="1"/>
        <path id="路径_37409" data-name="路径 37409" d="M1684.778,388.288l-10.278-5.936a6.283,6.283,0,0,1-3.141-5.439" transform="translate(-1478.33 -321.304)" fill="none" stroke="#000" stroke-miterlimit="10" stroke-width="1"/>
        <path id="路径_37410" data-name="路径 37410" d="M1614.816,390.547l12.743-22.832a6.28,6.28,0,0,1,5.394-3.219l8.124-.118" transform="translate(-1448.226 -314.63)" fill="none" stroke="#0c111a" stroke-miterlimit="10" stroke-width="1"/>
        <path id="路径_37411" data-name="路径 37411" d="M1823.2,342.909l-4.948,7.422a6.281,6.281,0,0,1-5.631,2.784l-1.777-.115" transform="translate(-1552.592 -303.2)" fill="none" stroke="#0c111a" stroke-miterlimit="10" stroke-width="1"/>
        <path id="路径_37412" data-name="路径 37412" d="M1820.652,501.024l-4.015-6.469a6.281,6.281,0,0,0-5.537-2.965l-3.791.057" transform="translate(-1550.712 -382.357)" fill="none" stroke="#0c111a" stroke-miterlimit="10" stroke-width="1"/>
        <path id="路径_37413" data-name="路径 37413" d="M1694.951,646.671l-11.722-6.768a6.281,6.281,0,0,1-3.141-5.44V620.927a6.281,6.281,0,0,1,3.141-5.439l11.722-6.768a6.282,6.282,0,0,1,6.281,0l11.722,6.768a6.281,6.281,0,0,1,3.14,5.439v13.536a6.281,6.281,0,0,1-3.14,5.44l-11.722,6.768A6.283,6.283,0,0,1,1694.951,646.671Z" transform="translate(-1482.977 -444.273)" fill="none" stroke="#0080f4" stroke-miterlimit="10" stroke-width="1"/>
        <path id="路径_37414" data-name="路径 37414" d="M1675.148,634.673v-2.993a6.285,6.285,0,0,1,.094-1.081" transform="translate(-1480.347 -456.37)" fill="none" stroke="#000" stroke-miterlimit="10" stroke-width="1"/>
        <path id="路径_37415" data-name="路径 37415" d="M1682.484,665.257l-4.195-2.422a6.282,6.282,0,0,1-3.14-5.44V648.5" transform="translate(-1480.348 -465.902)" fill="none" stroke="#000" stroke-miterlimit="10" stroke-width="1"/>
        <path id="路径_37416" data-name="路径 37416" d="M1726.8,693.194l-2.646,1.528a6.268,6.268,0,0,1-.982.46" transform="translate(-1505.916 -489.696)" fill="none" stroke="#000" stroke-miterlimit="10" stroke-width="1"/>
        <path id="路径_37417" data-name="路径 37417" d="M1750.173,656.978v4.93a6.282,6.282,0,0,1-3.141,5.44l-7.215,4.166" transform="translate(-1514.778 -470.414)" fill="none" stroke="#000" stroke-miterlimit="10" stroke-width="1"/>
        <path id="路径_37418" data-name="路径 37418" d="M1749.746,618.1l2.572,1.486a6.289,6.289,0,0,1,1.029.741" transform="translate(-1520.064 -449.714)" fill="none" stroke="#000" stroke-miterlimit="10" stroke-width="1"/>
        <path id="路径_37419" data-name="路径 37419" d="M1702.45,605.545l4.39-2.535a6.283,6.283,0,0,1,6.282,0l7.828,4.519" transform="translate(-1494.883 -441.233)" fill="none" stroke="#000" stroke-miterlimit="10" stroke-width="1"/>
        <path id="路径_37420" data-name="路径 37420" d="M1276.18,385.08l-10.937-6.316a5.4,5.4,0,0,1-2.7-4.676V361.457a5.4,5.4,0,0,1,2.7-4.676l10.937-6.32a5.4,5.4,0,0,1,5.4,0l10.939,6.316a5.4,5.4,0,0,1,2.7,4.676v12.631a5.4,5.4,0,0,1-2.7,4.676l-10.939,6.316A5.4,5.4,0,0,1,1276.18,385.08Z" transform="translate(-1260.671 -306.836)" fill="none" stroke="#0c111a" stroke-miterlimit="10" stroke-width="1"/>
        <g id="组_21420" data-name="组 21420" transform="translate(0 40.527)">
          <path id="路径_37421" data-name="路径 37421" d="M1258.54,374.068v-2.852a5.361,5.361,0,0,1,.079-.916" transform="translate(-1258.54 -358.31)" fill="none" stroke="#000" stroke-miterlimit="10" stroke-width="1"/>
          <path id="路径_37422" data-name="路径 37422" d="M1265.188,401.741l-3.948-2.279a5.4,5.4,0,0,1-2.7-4.676v-8.419" transform="translate(-1258.54 -366.865)" fill="none" stroke="#000" stroke-miterlimit="10" stroke-width="1"/>
          <line id="直线_180" data-name="直线 180" x1="2.665" y2="1.539" transform="translate(21.103 38.565)" fill="none" stroke="#000" stroke-miterlimit="10" stroke-width="1"/>
          <path id="路径_37423" data-name="路径 37423" d="M1326,404.37a5.4,5.4,0,0,1-2.7,4.677l-7.178,4.144" transform="translate(-1289.199 -376.45)" fill="none" stroke="#000" stroke-miterlimit="10" stroke-width="1"/>
          <path id="路径_37424" data-name="路径 37424" d="M1326.153,359.185l2.49,1.437a5.4,5.4,0,0,1,.638.432" transform="translate(-1294.538 -352.393)" fill="none" stroke="#000" stroke-miterlimit="10" stroke-width="1"/>
          <path id="路径_37425" data-name="路径 37425" d="M1283.722,347.65l3.928-2.267a5.4,5.4,0,0,1,5.4,0l7.158,4.133" transform="translate(-1271.948 -344.659)" fill="none" stroke="#000" stroke-miterlimit="10" stroke-width="1"/>
        </g>
        <path id="路径_37426" data-name="路径 37426" d="M1427.111,598.06l-11.764-6.792a6.28,6.28,0,0,1-3.14-5.439V572.245a6.281,6.281,0,0,1,3.14-5.439l11.764-6.792a6.282,6.282,0,0,1,6.281,0l11.764,6.791a6.281,6.281,0,0,1,3.14,5.44v13.583a6.28,6.28,0,0,1-3.14,5.439l-11.764,6.792A6.282,6.282,0,0,1,1427.111,598.06Z" transform="translate(-1340.354 -418.341)" fill="none" stroke="#0080f4" stroke-miterlimit="10" stroke-width="1"/>
        <path id="路径_37427" data-name="路径 37427" d="M1473.3,624.137a6.278,6.278,0,0,1-2.7,3.122l-14.061,8.118a6.3,6.3,0,0,1-1.049.483" transform="translate(-1363.4 -452.929)" fill="none" stroke="#000" stroke-miterlimit="10" stroke-width="1"/>
        <path id="路径_37428" data-name="路径 37428" d="M1482.021,569.482l2.706,1.562a6.282,6.282,0,0,1,3.141,5.44v13.981" transform="translate(-1377.524 -423.83)" fill="none" stroke="#000" stroke-miterlimit="10" stroke-width="1"/>
        <path id="路径_37429" data-name="路径 37429" d="M1408.983,565.591a6.281,6.281,0,0,1,2.455-2.585l14.061-8.118a6.325,6.325,0,0,1,1.111-.5" transform="translate(-1338.638 -415.791)" fill="none" stroke="#000" stroke-miterlimit="10" stroke-width="1"/>
        <path id="路径_37430" data-name="路径 37430" d="M1413.222,610.538l-2.565-1.481a6.282,6.282,0,0,1-3.14-5.44V589.949" transform="translate(-1337.857 -434.727)" fill="none" stroke="#000" stroke-miterlimit="10" stroke-width="1"/>
        <path id="路径_37431" data-name="路径 37431" d="M1429.724,360.747l-17.246-9.957a6.281,6.281,0,0,1-3.14-5.439V325.437a6.282,6.282,0,0,1,3.14-5.44l17.246-9.957a6.28,6.28,0,0,1,6.281,0L1453.251,320a6.282,6.282,0,0,1,3.14,5.44v19.912a6.281,6.281,0,0,1-3.14,5.439l-17.246,9.957A6.282,6.282,0,0,1,1429.724,360.747Z" transform="translate(-1338.827 -285.252)" fill="none" stroke="#0080f4" stroke-miterlimit="10" stroke-width="1"/>
        <line id="直线_181" data-name="直线 181" y1="4.145" transform="translate(67.488 53.031)" fill="none" stroke="#000" stroke-miterlimit="10" stroke-width="1"/>
        <path id="路径_37432" data-name="路径 37432" d="M1417.379,402.275l-11.365-6.562a6.281,6.281,0,0,1-3.14-5.439" transform="translate(-1335.385 -328.418)" fill="none" stroke="#000" stroke-miterlimit="10" stroke-width="1"/>
        <line id="直线_182" data-name="直线 182" x1="3.303" y2="1.907" transform="translate(97.059 77.022)" fill="none" stroke="#000" stroke-miterlimit="10" stroke-width="1"/>
        <path id="路径_37433" data-name="路径 37433" d="M1497.428,390.275a6.281,6.281,0,0,1-3.14,5.439l-13.1,7.563" transform="translate(-1377.08 -328.418)" fill="none" stroke="#000" stroke-miterlimit="10" stroke-width="1"/>
        <line id="直线_183" data-name="直线 183" y2="4.061" transform="translate(120.348 43.235)" fill="none" stroke="#000" stroke-miterlimit="10" stroke-width="1"/>
        <path id="路径_37434" data-name="路径 37434" d="M1485.192,315.022l11.227,6.482a6.281,6.281,0,0,1,3.14,5.439v.583" transform="translate(-1379.213 -288.353)" fill="none" stroke="#000" stroke-miterlimit="10" stroke-width="1"/>
        <line id="直线_184" data-name="直线 184" y1="1.788" x2="3.096" transform="translate(87.681 21.519)" fill="none" stroke="#000" stroke-miterlimit="10" stroke-width="1"/>
        <path id="路径_37435" data-name="路径 37435" d="M1403.524,323.438a6.278,6.278,0,0,1,2.836-3.507l13.621-7.864" transform="translate(-1335.731 -286.779)" fill="none" stroke="#000" stroke-miterlimit="10" stroke-width="1"/>
        <path id="路径_37436" data-name="路径 37436" d="M1846.529,305.476l-12.789-7.383a6.281,6.281,0,0,1-3.14-5.439V277.886a6.282,6.282,0,0,1,3.14-5.44l12.789-7.383a6.282,6.282,0,0,1,6.281,0l12.789,7.383a6.282,6.282,0,0,1,3.14,5.44v14.767a6.281,6.281,0,0,1-3.14,5.439l-12.789,7.383A6.28,6.28,0,0,1,1846.529,305.476Z" transform="translate(-1563.112 -261.306)" fill="none" stroke="#0c111a" stroke-miterlimit="10" stroke-width="1"/>
        <path id="路径_37437" data-name="路径 37437" d="M1845.792,263.881l8.753-5.054a6.282,6.282,0,0,1,5.533-.368" transform="translate(-1571.2 -257.986)" fill="none" stroke="#000" stroke-miterlimit="10" stroke-width="1"/>
        <path id="路径_37438" data-name="路径 37438" d="M1825.365,304.632v-15.1q0-.267.022-.53" transform="translate(-1560.325 -274.501)" fill="none" stroke="#000" stroke-miterlimit="10" stroke-width="1"/>
        <path id="路径_37439" data-name="路径 37439" d="M1837.468,339.274l-8.871-5.122a6.281,6.281,0,0,1-3.062-4.448" transform="translate(-1560.415 -296.169)" fill="none" stroke="#000" stroke-miterlimit="10" stroke-width="1"/>
        <path id="路径_37440" data-name="路径 37440" d="M1890.2,341.752l-13.11,7.569a6.341,6.341,0,0,1-.748.368" transform="translate(-1587.467 -302.584)" fill="none" stroke="#000" stroke-miterlimit="10" stroke-width="1"/>
        <path id="路径_37441" data-name="路径 37441" d="M1913.515,305.892v10.143a6.282,6.282,0,0,1-3.14,5.439" transform="translate(-1605.584 -283.492)" fill="none" stroke="#000" stroke-miterlimit="10" stroke-width="1"/>
        <path id="路径_37442" data-name="路径 37442" d="M1882.252,262.271l13.149,7.591a6.317,6.317,0,0,1,.693.464" transform="translate(-1590.612 -260.267)" fill="none" stroke="#000" stroke-miterlimit="10" stroke-width="1"/>
        <path id="路径_37443" data-name="路径 37443" d="M1837.932,543.7l-15.305-8.837a6.281,6.281,0,0,1-3.141-5.439V511.751a6.281,6.281,0,0,1,3.141-5.439l15.305-8.837a6.282,6.282,0,0,1,6.281,0l15.306,8.837a6.281,6.281,0,0,1,3.141,5.439v17.675a6.281,6.281,0,0,1-3.141,5.439l-15.306,8.837A6.28,6.28,0,0,1,1837.932,543.7Z" transform="translate(-1557.194 -385.044)" fill="none" stroke="#0080f4" stroke-miterlimit="10" stroke-width="1"/>
        <g id="组_21801" data-name="组 21801" transform="translate(259.978 108.568)">
          <line id="直线_185" data-name="直线 185" y1="9.972" transform="translate(0.001 16.504)" fill="none" stroke="#0c111a" stroke-miterlimit="10" stroke-width="1"/>
          <path id="路径_37444" data-name="路径 37444" d="M1825.376,572.175l-7.7-4.442a6.282,6.282,0,0,1-3.141-5.439v-6.064" transform="translate(-1814.538 -525.342)" fill="none" stroke="#0c111a" stroke-miterlimit="10" stroke-width="1"/>
          <path id="路径_37445" data-name="路径 37445" d="M1879.822,592.251l-8.454,4.881a6.257,6.257,0,0,1-1.044.481" transform="translate(-1844.239 -544.52)" fill="none" stroke="#0c111a" stroke-miterlimit="10" stroke-width="1"/>
          <path id="路径_37446" data-name="路径 37446" d="M1907.522,550.136v8.911a6.281,6.281,0,0,1-3.14,5.439l-5.307,3.064" transform="translate(-1859.547 -522.098)" fill="none" stroke="#0c111a" stroke-miterlimit="10" stroke-width="1"/>
          <path id="路径_37447" data-name="路径 37447" d="M1891.662,503l8.772,5.064a6.35,6.35,0,0,1,.6.4" transform="translate(-1855.6 -497.004)" fill="none" stroke="#0c111a" stroke-miterlimit="10" stroke-width="1"/>
          <path id="路径_37448" data-name="路径 37448" d="M1842.311,495.552l7.861-4.538a6.283,6.283,0,0,1,6.281,0l5.312,3.067" transform="translate(-1829.325 -490.173)" fill="none" stroke="#0c111a" stroke-miterlimit="10" stroke-width="1"/>
        </g>
        <path id="路径_37449" data-name="路径 37449" d="M1332.093,366.561h13.976a3.238,3.238,0,0,0,3.238-3.238h0v-5.972a4.186,4.186,0,0,1,4.186-4.186h14.6" transform="translate(-1297.701 -308.66)" fill="none" stroke="#0c111a" stroke-miterlimit="10" stroke-width="1"/>
        <line id="直线_186" data-name="直线 186" x2="17.081" transform="translate(201.201 109.59)" fill="none" stroke="#0c111a" stroke-miterlimit="10" stroke-width="1"/>
        <line id="直线_187" data-name="直线 187" x2="18.797" transform="translate(222.454 109.548)" fill="none" stroke="#0c111a" stroke-miterlimit="10" stroke-width="1"/>
        <line id="直线_188" data-name="直线 188" x2="3.74" y2="5.242" transform="translate(114.402 68.674)" fill="none" stroke="#000" stroke-miterlimit="10" stroke-width="1"/>
        <line id="直线_189" data-name="直线 189" x2="9.918" y2="14.529" transform="translate(120.466 77.326)" fill="none" stroke="#0c111a" stroke-miterlimit="10" stroke-width="1"/>
        <line id="直线_190" data-name="直线 190" y2="3.796" transform="translate(193.31 47.77)" fill="none" stroke="#000" stroke-miterlimit="10" stroke-width="1"/>
        <line id="直线_191" data-name="直线 191" x2="15.294" transform="translate(239.213 49.919)" fill="none" stroke="#000" stroke-miterlimit="10" stroke-width="1"/>
        <line id="直线_192" data-name="直线 192" x2="9.555" y2="14.597" transform="translate(174.23 154.161)" fill="none" stroke="#000" stroke-miterlimit="10" stroke-width="1"/>
        <line id="直线_193" data-name="直线 193" x1="10.503" y2="15.584" transform="translate(127.673 149.141)" fill="none" stroke="#0c111a" stroke-miterlimit="10" stroke-width="1"/>
        <path id="路径_37450" data-name="路径 37450" d="M1489.025,618.454h14.194a4.428,4.428,0,0,0,3.238-1.109" transform="translate(-1381.253 -449.313)" fill="none" stroke="#000" stroke-miterlimit="10" stroke-width="1"/>
        <g id="组_21796" data-name="组 21796" transform="translate(136.811 107.543)">
          <path id="路径_38716" data-name="路径 38716" d="M1562.546,488.124a2.507,2.507,0,0,0-.449-.1,3.85,3.85,0,0,0-.583-.038,3.913,3.913,0,0,0-.6.038,2.546,2.546,0,0,0-.438.1,1.1,1.1,0,0,0-.766,1.058v5h-4.959v-5a1.1,1.1,0,0,0-.766-1.057,2.505,2.505,0,0,0-.449-.1,4.6,4.6,0,0,0-1.179,0,2.528,2.528,0,0,0-.459.106,1.1,1.1,0,0,0-.765,1.057v14a1.112,1.112,0,0,0,.182.618,1.124,1.124,0,0,0,.58.439,2.462,2.462,0,0,0,.461.107,4.608,4.608,0,0,0,1.179,0,2.444,2.444,0,0,0,.448-.1,1.1,1.1,0,0,0,.767-1.058v-5.63h4.959v5.63a1.1,1.1,0,0,0,.761,1.056,2.492,2.492,0,0,0,.443.106,3.909,3.909,0,0,0,.6.038,3.85,3.85,0,0,0,.583-.038,2.446,2.446,0,0,0,.448-.1,1.1,1.1,0,0,0,.767-1.058v-14a1.1,1.1,0,0,0-.766-1.057Z" transform="translate(-1551.129 -487.981)" fill="none" stroke="#ef54a1" stroke-miterlimit="10" stroke-width="1"/>
          <path id="路径_38717" data-name="路径 38717" d="M1593.253,501.695a1.228,1.228,0,0,0-.411-.426,1.147,1.147,0,0,0-.6-.17H1587.3v-3.54h4.052a1.183,1.183,0,0,0,.564-.141,1.161,1.161,0,0,0,.456-.457,1.537,1.537,0,0,0,.17-.519,3.075,3.075,0,0,0,.033-.479,3.463,3.463,0,0,0-.031-.488,1.533,1.533,0,0,0-.171-.541,1.259,1.259,0,0,0-.383-.425,1.124,1.124,0,0,0-.637-.2H1587.3v-2.9h4.863a1.133,1.133,0,0,0,1.042-.67,1.818,1.818,0,0,0,.138-.451,2.819,2.819,0,0,0,.043-.508,2.924,2.924,0,0,0-.042-.528,1.959,1.959,0,0,0-.134-.448,1.13,1.13,0,0,0-1.047-.685h-6.919a1.643,1.643,0,0,0-1,.345,1.515,1.515,0,0,0-.563,1.283V502.76a1.511,1.511,0,0,0,.564,1.283,1.64,1.64,0,0,0,1,.345h7a1.155,1.155,0,0,0,.6-.169,1.2,1.2,0,0,0,.423-.451,1.566,1.566,0,0,0,.177-.54,3.231,3.231,0,0,0,.032-.479,3.416,3.416,0,0,0-.032-.5A1.531,1.531,0,0,0,1593.253,501.695Z" transform="translate(-1568.459 -488.058)" fill="none" stroke="#ef54a1" stroke-miterlimit="10" stroke-width="1"/>
          <path id="路径_38718" data-name="路径 38718" d="M1618.625,501.6a1.238,1.238,0,0,0-.394-.449,1.14,1.14,0,0,0-.648-.2h-4.39V489.181a1.1,1.1,0,0,0-.765-1.057,2.515,2.515,0,0,0-.449-.1,4.6,4.6,0,0,0-1.179,0,2.518,2.518,0,0,0-.459.106,1.1,1.1,0,0,0-.765,1.057v13.5a1.512,1.512,0,0,0,.564,1.283,1.642,1.642,0,0,0,1,.345h6.447a1.136,1.136,0,0,0,.65-.2,1.207,1.207,0,0,0,.407-.491,1.788,1.788,0,0,0,.144-.493,3.411,3.411,0,0,0,.032-.5,3.541,3.541,0,0,0-.031-.5A1.608,1.608,0,0,0,1618.625,501.6Z" transform="translate(-1582.247 -487.981)" fill="none" stroke="#ef54a1" stroke-miterlimit="10" stroke-width="1"/>
          <path id="路径_38719" data-name="路径 38719" d="M1644.281,491.463a4.544,4.544,0,0,0-2.078-2.531,5.072,5.072,0,0,0-1.446-.577,9.418,9.418,0,0,0-1.129-.185c-.313-.029-.644-.043-.983-.043h-3.122a1.672,1.672,0,0,0-1.059.379,1.579,1.579,0,0,0-.547,1.294v13.456a1.1,1.1,0,0,0,.762,1.056,2.41,2.41,0,0,0,.453.106,3.944,3.944,0,0,0,.594.038,4,4,0,0,0,.594-.037,2.292,2.292,0,0,0,.457-.11,1.154,1.154,0,0,0,.538-.389,1.094,1.094,0,0,0,.22-.664v-4.413h.817a7.979,7.979,0,0,0,2.6-.384,5.476,5.476,0,0,0,1.94-1.134,5.039,5.039,0,0,0,1.238-1.8,6.02,6.02,0,0,0,.423-2.291A5.524,5.524,0,0,0,1644.281,491.463Zm-6.746-.057h.952a6.065,6.065,0,0,1,.895.069,1.916,1.916,0,0,1,.709.263,1.485,1.485,0,0,1,.521.577,2.232,2.232,0,0,1,.226,1.08,2.692,2.692,0,0,1-.152.925,1.774,1.774,0,0,1-.406.656,1.9,1.9,0,0,1-.681.432,3.277,3.277,0,0,1-1.156.169h-.907Z" transform="translate(-1595.207 -488.058)" fill="none" stroke="#ef54a1" stroke-miterlimit="10" stroke-width="1"/>
        </g>
        <g id="组_21426" data-name="组 21426" transform="translate(79.722 150.714)">
          <path id="路径_37377-2" data-name="路径 37377-2" d="M1432.219,602.33a3.468,3.468,0,0,0-1.767.4,2.275,2.275,0,0,1-.732.21c-.327-.2-.254-.623-.108-.9a2.519,2.519,0,0,1,.586-.688,4,4,0,0,1,1.73-.748l-.051-.463a3.575,3.575,0,0,0-1.977.855,2.915,2.915,0,0,0-.7.818c-.283.631-.261,1.388.493,1.586a2.272,2.272,0,0,0,.935-.246c.534-.2,1.2-.554,1.717-.3Z" transform="translate(-1429.036 -590.867)" fill="#0080f4"/>
          <path id="路径_37378-2" data-name="路径 37378-2" d="M1435.505,592.3a19.662,19.662,0,0,0,1.376,3.81,11.728,11.728,0,0,0,2.238,3.252,4.125,4.125,0,0,0,2.81,1.34,7.693,7.693,0,0,0,4.15-1.55c.572-.381,1.076-.758,1.485-1.035a2.47,2.47,0,0,1,.855-.427,3.452,3.452,0,0,1,1.152.327c.445.187.909.421,1.309.579a.244.244,0,0,0,.307-.156.211.211,0,0,0,.011-.054,2.992,2.992,0,0,0-1.917-2.825,3.553,3.553,0,0,0-2.9.166c.526-1.127,1.122-2.341,1.637-3.571a11.329,11.329,0,0,0,1.094-3.969c0-4.752-3.565-7.88-6.953-7.88a7.131,7.131,0,0,0-7.185,7.4v.014a13.658,13.658,0,0,0,.058,1.861l.051.463c.07.568.161,1.146.29,1.724Z" transform="translate(-1432.193 -580.307)" fill="#fff" stroke="#0080f4" stroke-miterlimit="10" stroke-width="0.5"/>
          <path id="路径_37379-2" data-name="路径 37379-2" d="M1448.144,589a1.6,1.6,0,0,1,1.356-1.262c.62.012,1.034.672,1.26,1.253a6.826,6.826,0,0,1,.362,2.224.244.244,0,0,1-.269.216.241.241,0,0,1-.093-.029,2.43,2.43,0,0,0-1.26-.3,2.457,2.457,0,0,0-1.268.3.244.244,0,0,1-.329-.1.248.248,0,0,1-.026-.083A7.669,7.669,0,0,1,1448.144,589Z" transform="translate(-1439.066 -584.261)" fill="#0080f4"/>
          <path id="路径_37380-2" data-name="路径 37380-2" d="M1438.811,591.4a.244.244,0,0,1-.329-.1.248.248,0,0,1-.026-.083,7.672,7.672,0,0,1,.268-2.216,1.6,1.6,0,0,1,1.356-1.263c.619.012,1.034.671,1.263,1.253a6.842,6.842,0,0,1,.362,2.224.244.244,0,0,1-.362.187,2.776,2.776,0,0,0-2.532,0Z" transform="translate(-1434.05 -584.262)" fill="#0080f4"/>
          <path id="路径_37381-2" data-name="路径 37381-2" d="M1447.826,601.184a3.489,3.489,0,0,0-3.781-.3,4.209,4.209,0,0,0-1.283.949c-.3.351-.574.856-.058,1.122a2.446,2.446,0,0,0,.819-.043,2.942,2.942,0,0,1,2.274.224l-.29.362a2.579,2.579,0,0,0-1.9-.13,2.613,2.613,0,0,1-1.006.043c-1.01-.263-.627-1.341-.181-1.883a4.613,4.613,0,0,1,1.427-1.057,4.084,4.084,0,0,1,4.266.34Z" transform="translate(-1435.916 -590.807)" fill="#0080f4"/>
        </g>
        <g id="组_21424" data-name="组 21424" transform="translate(80.751 36.504)">
          <circle id="椭圆_1642" data-name="椭圆 1642" cx="13.164" cy="13.164" r="13.164" fill="none" stroke="#0080f4" stroke-miterlimit="10" stroke-width="1"/>
          <path id="直线_194" data-name="直线 194" d="M0,0H26.328" transform="translate(0 13.164)" fill="none" stroke="#0080f4" stroke-width="1"/>
          <line id="直线_195" data-name="直线 195" x2="23.313" transform="translate(1.508 7.044)" fill="none" stroke="#0080f4" stroke-miterlimit="10" stroke-width="1"/>
          <line id="直线_196" data-name="直线 196" x2="23.038" transform="translate(1.508 19.284)" fill="none" stroke="#0080f4" stroke-miterlimit="10" stroke-width="1"/>
          <line id="直线_197" data-name="直线 197" y1="26.954" transform="translate(13.368 0.026)" fill="none" stroke="#0080f4" stroke-miterlimit="10" stroke-width="1"/>
          <ellipse id="椭圆_1643" data-name="椭圆 1643" cx="6.958" cy="13.151" rx="6.958" ry="13.151" transform="translate(6.305 0.026)" fill="none" stroke="#0080f4" stroke-miterlimit="10" stroke-width="1"/>
        </g>
        <g id="组_21425" data-name="组 21425" transform="translate(209.007 173.15)">
          <rect id="矩形_2213" data-name="矩形 2213" width="13.053" height="10.108" transform="translate(0 8.668)" fill="none" stroke="#0080f4" stroke-miterlimit="10" stroke-width="1"/>
          <path id="矩形_2214" data-name="矩形 2214" d="M1713.4,628.291h0a5.024,5.024,0,0,1,5.024,5.024v3.59H1708.38v-3.59A5.024,5.024,0,0,1,1713.4,628.291Z" transform="translate(-1707.047 -628.291)" fill="none" stroke="#0080f4" stroke-miterlimit="10" stroke-width="1"/>
          <line id="直线_198" data-name="直线 198" y2="3.032" transform="translate(6.526 12.205)" fill="none" stroke="#0080f4" stroke-linecap="round" stroke-miterlimit="10" stroke-width="1"/>
        </g>
        <g id="组_21797" data-name="组 21797" transform="translate(10.769 52.065)">
          <path id="路径_38720" data-name="路径 38720" d="M1296.165,370.624l-6.906-1.279a.647.647,0,0,0-.229,0l-6.946,1.279a.629.629,0,0,0-.514.619v8.187a5.945,5.945,0,0,0,1.208,3.586,9.279,9.279,0,0,0,2.559,2.291,14.686,14.686,0,0,0,3.647,1.633.627.627,0,0,0,.327,0,14.748,14.748,0,0,0,3.625-1.648,9.315,9.315,0,0,0,2.544-2.3,5.932,5.932,0,0,0,1.2-3.568v-8.183A.629.629,0,0,0,1296.165,370.624Zm-.366,8.882c0,1.954-1.119,3.662-3.325,5.077a15,15,0,0,1-3.276,1.531.162.162,0,0,1-.108,0q-6.639-2.268-6.639-6.607v-7.981a.167.167,0,0,1,.136-.165l6.528-1.2a.162.162,0,0,1,.06,0l6.487,1.2a.167.167,0,0,1,.136.165Z" transform="translate(-1281.57 -369.334)" fill="#0c111a"/>
        </g>
        <g id="组_21426-2" data-name="组 21426" transform="translate(277.055 13.766)">
          <path id="路径_37377-2-2" data-name="路径 37377-2" d="M1854.241,309.45a3.467,3.467,0,0,0-1.767.4,2.265,2.265,0,0,1-.732.21c-.327-.2-.254-.623-.108-.9a2.513,2.513,0,0,1,.586-.688,4,4,0,0,1,1.73-.748l-.051-.463a3.573,3.573,0,0,0-1.977.855,2.913,2.913,0,0,0-.7.818c-.283.631-.261,1.388.493,1.587a2.273,2.273,0,0,0,.935-.246c.534-.2,1.2-.554,1.716-.3Z" transform="translate(-1851.059 -297.987)"/>
          <path id="路径_37378-2-2" data-name="路径 37378-2" d="M1857.528,299.419a19.652,19.652,0,0,0,1.376,3.81,11.708,11.708,0,0,0,2.238,3.252,4.125,4.125,0,0,0,2.81,1.34,7.7,7.7,0,0,0,4.15-1.55c.572-.381,1.075-.758,1.484-1.035a2.47,2.47,0,0,1,.855-.427,3.452,3.452,0,0,1,1.152.327c.445.187.91.421,1.309.579a.243.243,0,0,0,.307-.156.257.257,0,0,0,.011-.054,2.994,2.994,0,0,0-1.917-2.825,3.555,3.555,0,0,0-2.9.166c.527-1.127,1.122-2.341,1.637-3.571a11.328,11.328,0,0,0,1.094-3.969c0-4.752-3.565-7.88-6.953-7.88a7.131,7.131,0,0,0-7.185,7.4v.014a13.556,13.556,0,0,0,.058,1.861l.051.463c.07.568.161,1.146.29,1.724Z" transform="translate(-1854.216 -287.427)" fill="#fff" stroke="#000" stroke-miterlimit="10" stroke-width="0.5"/>
          <path id="路径_37379-2-2" data-name="路径 37379-2" d="M1870.167,296.116a1.605,1.605,0,0,1,1.356-1.262c.619.012,1.034.671,1.26,1.253a6.829,6.829,0,0,1,.363,2.224.245.245,0,0,1-.27.217.251.251,0,0,1-.093-.03,2.43,2.43,0,0,0-1.26-.3,2.458,2.458,0,0,0-1.268.3.244.244,0,0,1-.329-.1.24.24,0,0,1-.026-.083A7.666,7.666,0,0,1,1870.167,296.116Z" transform="translate(-1861.089 -291.381)"/>
          <path id="路径_37380-2-2" data-name="路径 37380-2" d="M1860.834,298.521a.244.244,0,0,1-.355-.187,7.647,7.647,0,0,1,.268-2.216,1.6,1.6,0,0,1,1.356-1.262c.619.012,1.034.671,1.263,1.253a6.848,6.848,0,0,1,.362,2.224.244.244,0,0,1-.362.187,2.777,2.777,0,0,0-2.532,0Z" transform="translate(-1856.073 -291.382)"/>
          <path id="路径_37381-2-2" data-name="路径 37381-2" d="M1869.849,308.3a3.489,3.489,0,0,0-3.781-.3,4.2,4.2,0,0,0-1.283.949c-.3.351-.574.856-.058,1.122a2.448,2.448,0,0,0,.819-.043,2.942,2.942,0,0,1,2.274.224l-.29.362a2.58,2.58,0,0,0-1.905-.13,2.6,2.6,0,0,1-1.006.043c-1.01-.263-.627-1.341-.181-1.883a4.615,4.615,0,0,1,1.427-1.057,4.084,4.084,0,0,1,4.266.34Z" transform="translate(-1857.939 -297.926)"/>
        </g>
        <g id="组_21798" data-name="组 21798" transform="translate(14.196 58.408)">
          <path id="路径_38721" data-name="路径 38721" d="M1291.987,387.839a.731.731,0,0,1-.464-.165l-2.434-1.991a.514.514,0,0,1,.651-.8l2.248,1.839,4.584-3.711a.514.514,0,0,1,.647.8l-4.771,3.862A.73.73,0,0,1,1291.987,387.839Z" transform="translate(-1288.9 -382.9)" fill="#0c111a"/>
        </g>
        <path id="路径_38722" data-name="路径 38722" d="M1884.362,555.711l-.015-.015a.3.3,0,0,0-.427,0l-3.765,3.874c-.005,0-.013,0-.015,0l-1.766-1.818a.312.312,0,1,0-.448.434l2,2.061a.3.3,0,0,0,.194.089h.044a.305.305,0,0,0,.2-.089l4-4.118A.3.3,0,0,0,1884.362,555.711Z" transform="translate(-1588.642 -417.582)" fill="#0080f4" stroke="#0080f4" stroke-width="1"/>
        <g id="组_21799" data-name="组 21799" transform="translate(276.821 126.32)">
          <path id="路径_38723" data-name="路径 38723" d="M1859.635,556.187a.444.444,0,1,0,0,.887h5.763a.444.444,0,0,0,0-.887Z" transform="translate(-1855.155 -543.072)" fill="#0080f4" stroke="#0080f4" stroke-miterlimit="10" stroke-width="0.25"/>
          <path id="路径_38724" data-name="路径 38724" d="M1867.839,547.26a.445.445,0,0,0-.444-.444h-7.76a.444.444,0,0,0,0,.888h7.76A.445.445,0,0,0,1867.839,547.26Z" transform="translate(-1855.155 -538.082)" fill="#0080f4" stroke="#0080f4" stroke-miterlimit="10" stroke-width="0.25"/>
          <path id="路径_38725" data-name="路径 38725" d="M1867.4,537.445h-7.76a.444.444,0,0,0,0,.888h7.76a.444.444,0,0,0,0-.888Z" transform="translate(-1855.155 -533.093)" fill="#0080f4" stroke="#0080f4" stroke-miterlimit="10" stroke-width="0.25"/>
          <path id="路径_38727" data-name="路径 38727" d="M1866.214,546.606h-14.7a.269.269,0,0,1-.269-.268V529.1a.269.269,0,0,1,.269-.268h14.8a.269.269,0,0,1,.268.268v9.237a.345.345,0,1,0,.691,0V529.1a.96.96,0,0,0-.959-.959h-14.8a.96.96,0,0,0-.959.959v17.241a.96.96,0,0,0,.959.959h14.7a.345.345,0,0,0,0-.691Z" transform="translate(-1850.559 -528.138)" fill="#0080f4" stroke="#0080f4" stroke-miterlimit="10" stroke-width="0.25"/>
        </g>
      </g>
      <g id="蒙版组_29" data-name="蒙版组 29" transform="translate(10.685 108)" clip-path="url(#clip-path)">
        <g id="组_21645" data-name="组 21645" transform="translate(211.18 -15.165)" opacity="0.05">
          <g id="组_21643" data-name="组 21643" transform="translate(193.995 110.23)">
            <path id="路径_38579" data-name="路径 38579" d="M931.22-360.38l-45.353-26.185a9.634,9.634,0,0,1-4.817-8.343v-52.37a9.635,9.635,0,0,1,4.817-8.344l45.353-26.185a9.635,9.635,0,0,1,9.634,0l45.354,26.185a9.635,9.635,0,0,1,4.817,8.344v52.37a9.634,9.634,0,0,1-4.817,8.343L940.854-360.38A9.635,9.635,0,0,1,931.22-360.38Z" transform="translate(-874.82 488.686)" fill="none" stroke="#000" stroke-miterlimit="10" stroke-width="1"/>
            <line id="直线_476" data-name="直线 476" y1="6.721" transform="translate(0 39.151)" fill="none" stroke="#000" stroke-miterlimit="10" stroke-width="1"/>
            <line id="直线_477" data-name="直线 477" y1="31.078" transform="translate(0 52.122)" fill="none" stroke="#000" stroke-miterlimit="10" stroke-width="1"/>
            <line id="直线_478" data-name="直线 478" x1="5.582" y1="3.223" transform="translate(6.392 106.529)" fill="none" stroke="#000" stroke-miterlimit="10" stroke-width="1"/>
            <line id="直线_479" data-name="直线 479" x1="27.465" y1="15.857" transform="translate(17.184 112.759)" fill="none" stroke="#000" stroke-miterlimit="10" stroke-width="1"/>
            <line id="直线_480" data-name="直线 480" x1="5.393" y2="3.114" transform="translate(67.97 131.474)" fill="none" stroke="#000" stroke-miterlimit="10" stroke-width="1"/>
            <line id="直线_481" data-name="直线 481" x1="27.281" y2="15.751" transform="translate(78.911 112.521)" fill="none" stroke="#000" stroke-miterlimit="10" stroke-width="1"/>
            <line id="直线_482" data-name="直线 482" y2="6.378" transform="translate(122.963 89.236)" fill="none" stroke="#000" stroke-miterlimit="10" stroke-width="1"/>
            <line id="直线_483" data-name="直线 483" y2="31.421" transform="translate(122.963 51.009)" fill="none" stroke="#000" stroke-miterlimit="10" stroke-width="1"/>
            <line id="直线_484" data-name="直线 484" x2="5.596" y2="3.231" transform="translate(111.023 24.952)" fill="none" stroke="#000" stroke-miterlimit="10" stroke-width="1"/>
            <line id="直线_485" data-name="直线 485" x2="27.305" y2="15.764" transform="translate(78.205 6.005)" fill="none" stroke="#000" stroke-miterlimit="10" stroke-width="1"/>
            <line id="直线_486" data-name="直线 486" y1="3.143" x2="5.444" transform="translate(49.714)" fill="none" stroke="#000" stroke-miterlimit="10" stroke-width="1" opacity="0.5"/>
            <line id="直线_487" data-name="直线 487" y1="15.629" x2="27.07" transform="translate(16.814 6.51)" fill="none" stroke="#000" stroke-miterlimit="10" stroke-width="1"/>
          </g>
          <path id="路径_38580" data-name="路径 38580" d="M1121.836-572.841,1098.353-586.4a9.633,9.633,0,0,1-4.817-8.343v-27.116a9.633,9.633,0,0,1,4.817-8.343l23.483-13.558a9.632,9.632,0,0,1,9.634,0l23.483,13.558a9.634,9.634,0,0,1,4.817,8.343v27.116a9.634,9.634,0,0,1-4.817,8.343l-23.483,13.558A9.635,9.635,0,0,1,1121.836-572.841Z" transform="translate(-784.161 677.675)" fill="none" stroke="#000" stroke-miterlimit="10" stroke-width="1"/>
          <path id="路径_38581" data-name="路径 38581" d="M1170.854-501.2l-4.365,2.52a9.77,9.77,0,0,1-.945.479" transform="translate(-819.179 607.718)" fill="none" stroke="#000" stroke-miterlimit="10" stroke-width="1"/>
          <path id="路径_38582" data-name="路径 38582" d="M1208.226-539.016a9.636,9.636,0,0,1-4.535,6.029l-18.342,10.59" transform="translate(-828.81 626.109)" fill="none" stroke="#000" stroke-miterlimit="10" stroke-width="1"/>
          <line id="直线_488" data-name="直线 488" y2="5.972" transform="translate(379.697 59.186)" fill="none" stroke="#000" stroke-miterlimit="10" stroke-width="1"/>
          <path id="路径_38583" data-name="路径 38583" d="M1190.822-638.194l15.53,8.967a9.633,9.633,0,0,1,4.817,8.343" transform="translate(-831.472 674.341)" fill="none" stroke="#000" stroke-miterlimit="10" stroke-width="1"/>
          <path id="路径_38584" data-name="路径 38584" d="M1141.4-649.955l3.716-2.146q.374-.216.762-.4" transform="translate(-807.435 681.296)" fill="none" stroke="#000" stroke-miterlimit="10" stroke-width="1"/>
          <path id="路径_38585" data-name="路径 38585" d="M1086.423-625.423a9.634,9.634,0,0,1,4.384-5.485l18.606-10.743" transform="translate(-780.701 676.022)" fill="none" stroke="#000" stroke-miterlimit="10" stroke-width="1"/>
          <path id="路径_38587" data-name="路径 38587" d="M1006.642-519.884l19.545-35.019a9.633,9.633,0,0,1,8.272-4.938l12.461-.181" transform="translate(-741.903 636.325)" fill="none" stroke="#000" stroke-miterlimit="10" stroke-width="1"/>
          <path id="路径_38588" data-name="路径 38588" d="M1291.57-590l-4.505,9.978c-1.134,2.511-3.088,3.938-5.127,3.743l-1.62-.154" transform="translate(-867.294 650.901)" fill="none" stroke="#000" stroke-miterlimit="10" stroke-width="1"/>
          <path id="路径_38589" data-name="路径 38589" d="M1295.855-367.945l-6.158-9.922a9.634,9.634,0,0,0-8.492-4.549l-5.815.087" transform="translate(-872.599 549.955)" fill="none" stroke="#000" stroke-miterlimit="10" stroke-width="1"/>
          <path id="路径_38590" data-name="路径 38590" d="M1120.52-160.623,1102.541-171a9.634,9.634,0,0,1-4.817-8.343v-20.761a9.633,9.633,0,0,1,4.817-8.343l17.979-10.381a9.635,9.635,0,0,1,9.634,0l17.98,10.381a9.633,9.633,0,0,1,4.817,8.343v20.761a9.634,9.634,0,0,1-4.817,8.343l-17.98,10.381A9.635,9.635,0,0,1,1120.52-160.623Z" transform="translate(-786.197 471.027)" fill="none" stroke="#000" stroke-miterlimit="10" stroke-width="1"/>
          <path id="路径_38592" data-name="路径 38592" d="M1102.125-137.645l-6.434-3.714a9.636,9.636,0,0,1-4.817-8.344v-13.639" transform="translate(-782.866 443.415)" fill="none" stroke="#000" stroke-miterlimit="10" stroke-width="1"/>
          <path id="路径_38593" data-name="路径 38593" d="M1163.486-100.947l-4.058,2.343a9.643,9.643,0,0,1-1.509.7" transform="translate(-815.471 413.07)" fill="none" stroke="#000" stroke-miterlimit="10" stroke-width="1"/>
          <path id="路径_38594" data-name="路径 38594" d="M1197.046-151.51v7.561a9.635,9.635,0,0,1-4.817,8.344l-11.067,6.389" transform="translate(-826.774 437.66)" fill="none" stroke="#000" stroke-miterlimit="10" stroke-width="1"/>
          <path id="路径_38595" data-name="路径 38595" d="M1195.024-205.792l3.946,2.278a9.644,9.644,0,0,1,1.576,1.136" transform="translate(-833.516 464.058)" fill="none" stroke="#000" stroke-miterlimit="10" stroke-width="1"/>
          <path id="路径_38597" data-name="路径 38597" d="M522.766-526l-19.514-11.266a9.634,9.634,0,0,1-4.817-8.343v-22.533a9.634,9.634,0,0,1,4.817-8.343l19.514-11.266a9.634,9.634,0,0,1,9.634,0l19.513,11.266a9.634,9.634,0,0,1,4.817,8.343v22.533a9.634,9.634,0,0,1-4.817,8.343L532.4-526A9.635,9.635,0,0,1,522.766-526Z" transform="translate(-494.755 650.438)" fill="none" stroke="#000" stroke-miterlimit="10" stroke-width="1"/>
          <g id="组_21644" data-name="组 21644" transform="translate(0 57.145)">
            <path id="路径_38598" data-name="路径 38598" d="M491.271-548.956v-5.085a9.6,9.6,0,0,1,.14-1.635" transform="translate(-491.271 577.066)" fill="none" stroke="#000" stroke-miterlimit="10" stroke-width="1"/>
            <path id="路径_38599" data-name="路径 38599" d="M503.131-502.165l-7.043-4.066a9.635,9.635,0,0,1-4.817-8.343v-15.019" transform="translate(-491.271 564.381)" fill="none" stroke="#000" stroke-miterlimit="10" stroke-width="1"/>
            <line id="直线_489" data-name="直线 489" x1="4.754" y2="2.745" transform="translate(37.645 68.796)" fill="none" stroke="#000" stroke-miterlimit="10" stroke-width="1"/>
            <path id="路径_38600" data-name="路径 38600" d="M602.4-500.356a9.649,9.649,0,0,1-.138,1.626,9.637,9.637,0,0,1-4.679,6.717l-12.805,7.393" transform="translate(-536.745 550.163)" fill="none" stroke="#000" stroke-miterlimit="10" stroke-width="1"/>
            <path id="路径_38601" data-name="路径 38601" d="M601.06-573.727l4.441,2.564a9.69,9.69,0,0,1,1.139.771" transform="translate(-544.663 585.844)" fill="none" stroke="#000" stroke-miterlimit="10" stroke-width="1"/>
            <path id="路径_38602" data-name="路径 38602" d="M532.161-591.98l7.006-4.045a9.634,9.634,0,0,1,9.634,0l12.77,7.372" transform="translate(-511.156 597.316)" fill="none" stroke="#000" stroke-miterlimit="10" stroke-width="1"/>
          </g>
          <path id="路径_38603" data-name="路径 38603" d="M746.694-228.043,728.651-238.46a9.633,9.633,0,0,1-4.817-8.343v-20.834a9.634,9.634,0,0,1,4.817-8.343L746.694-286.4a9.635,9.635,0,0,1,9.634,0l18.043,10.417a9.634,9.634,0,0,1,4.817,8.343V-246.8a9.633,9.633,0,0,1-4.817,8.343l-18.043,10.417A9.635,9.635,0,0,1,746.694-228.043Z" transform="translate(-604.37 503.885)" fill="none" stroke="#000" stroke-miterlimit="10" stroke-width="1"/>
          <path id="路径_38604" data-name="路径 38604" d="M811.517-197.36a9.633,9.633,0,0,1-4.137,4.788l-21.566,12.451a9.643,9.643,0,0,1-1.609.741" transform="translate(-633.729 459.957)" fill="none" stroke="#000" stroke-miterlimit="10" stroke-width="1"/>
          <path id="路径_38605" data-name="路径 38605" d="M821.241-273.667l4.15,2.4a9.634,9.634,0,0,1,4.817,8.343v21.446" transform="translate(-651.74 497.066)" fill="none" stroke="#000" stroke-miterlimit="10" stroke-width="1"/>
          <path id="路径_38606" data-name="路径 38606" d="M719.27-277.557a9.637,9.637,0,0,1,2.5-3.1,9.645,9.645,0,0,1,1.263-.87L744.6-293.974a9.689,9.689,0,0,1,1.7-.774" transform="translate(-602.15 507.318)" fill="none" stroke="#000" stroke-miterlimit="10" stroke-width="1"/>
          <path id="路径_38607" data-name="路径 38607" d="M725.973-213.514l-3.934-2.272a9.635,9.635,0,0,1-4.817-8.344v-20.964" transform="translate(-601.154 483.171)" fill="none" stroke="#000" stroke-miterlimit="10" stroke-width="1"/>
          <path id="路径_38608" data-name="路径 38608" d="M750.674-557.748,724.223-573.02a9.633,9.633,0,0,1-4.817-8.343v-30.543a9.635,9.635,0,0,1,4.817-8.344l26.451-15.271a9.632,9.632,0,0,1,9.634,0l26.452,15.271a9.635,9.635,0,0,1,4.817,8.344v30.543a9.633,9.633,0,0,1-4.817,8.343l-26.452,15.272A9.635,9.635,0,0,1,750.674-557.748Z" transform="translate(-602.216 673.669)" fill="none" stroke="#000" stroke-miterlimit="10" stroke-width="1"/>
          <line id="直线_490" data-name="直线 490" y1="6.357" transform="translate(112.738 81.339)" fill="none" stroke="#000" stroke-miterlimit="10" stroke-width="1"/>
          <path id="路径_38609" data-name="路径 38609" d="M732.987-505.458l-17.432-10.064a9.634,9.634,0,0,1-4.817-8.343" transform="translate(-598.001 618.741)" fill="none" stroke="#000" stroke-miterlimit="10" stroke-width="1"/>
          <line id="直线_491" data-name="直线 491" x1="5.066" y2="2.925" transform="translate(158.092 118.136)" fill="none" stroke="#000" stroke-miterlimit="10" stroke-width="1"/>
          <line id="直线_492" data-name="直线 492" y2="6.228" transform="translate(193.813 66.313)" fill="none" stroke="#000" stroke-miterlimit="10" stroke-width="1"/>
          <path id="路径_38611" data-name="路径 38611" d="M825.669-628.929l17.22,9.942a9.634,9.634,0,0,1,4.817,8.343v.893" transform="translate(-653.893 669.835)" fill="none" stroke="#000" stroke-miterlimit="10" stroke-width="1"/>
          <line id="直线_493" data-name="直线 493" y1="2.742" x2="4.749" transform="translate(143.709 33.006)" fill="none" stroke="#000" stroke-miterlimit="10" stroke-width="1"/>
          <path id="路径_38612" data-name="路径 38612" d="M711.649-615.615A9.631,9.631,0,0,1,716-620.993l20.892-12.062" transform="translate(-598.444 671.841)" fill="none" stroke="#000" stroke-miterlimit="10" stroke-width="1"/>
          <path id="路径_38613" data-name="路径 38613" d="M1332.34-636.579,1312.725-647.9a9.634,9.634,0,0,1-4.817-8.343V-678.9a9.635,9.635,0,0,1,4.817-8.344l19.615-11.324a9.635,9.635,0,0,1,9.634,0l19.615,11.324a9.634,9.634,0,0,1,4.817,8.344v22.649a9.634,9.634,0,0,1-4.817,8.343l-19.615,11.324A9.632,9.632,0,0,1,1332.34-636.579Z" transform="translate(-888.413 704.327)" fill="none" stroke="#000" stroke-miterlimit="10" stroke-width="1"/>
          <path id="路径_38614" data-name="路径 38614" d="M1329.118-699.519l13.426-7.751a9.637,9.637,0,0,1,8.487-.565" transform="translate(-898.727 708.561)" fill="none" stroke="#000" stroke-miterlimit="10" stroke-width="1"/>
          <path id="路径_38615" data-name="路径 38615" d="M1300.6-641.283v-23.154q0-.409.034-.813" transform="translate(-884.86 687.499)" fill="none" stroke="#000" stroke-miterlimit="10" stroke-width="1"/>
          <path id="路径_38616" data-name="路径 38616" d="M1319.141-593.752l-13.606-7.856a9.633,9.633,0,0,1-4.7-6.822" transform="translate(-884.974 659.866)" fill="none" stroke="#000" stroke-miterlimit="10" stroke-width="1"/>
          <path id="路径_38617" data-name="路径 38617" d="M1393.031-591.61,1372.923-580a9.651,9.651,0,0,1-1.148.565" transform="translate(-919.472 651.686)" fill="none" stroke="#000" stroke-miterlimit="10" stroke-width="1"/>
          <path id="路径_38618" data-name="路径 38618" d="M1424.1-641.676v15.557a9.633,9.633,0,0,1-4.817,8.343" transform="translate(-942.575 676.034)" fill="none" stroke="#000" stroke-miterlimit="10" stroke-width="1"/>
          <path id="路径_38619" data-name="路径 38619" d="M1380.022-702.577l20.167,11.644a9.683,9.683,0,0,1,1.063.711" transform="translate(-923.482 705.651)" fill="none" stroke="#000" stroke-miterlimit="10" stroke-width="1"/>
          <path id="路径_38620" data-name="路径 38620" d="M1320.684-303.176l-23.475-13.554a9.633,9.633,0,0,1-4.817-8.343V-352.18a9.634,9.634,0,0,1,4.817-8.343l23.475-13.554a9.635,9.635,0,0,1,9.634,0l23.475,13.554a9.634,9.634,0,0,1,4.817,8.343v27.107a9.633,9.633,0,0,1-4.817,8.343l-23.475,13.554A9.632,9.632,0,0,1,1320.684-303.176Z" transform="translate(-880.866 546.525)" fill="none" stroke="#000" stroke-miterlimit="10" stroke-width="1"/>
          <path id="路径_38623" data-name="路径 38623" d="M1416.463-300.676v13.667a9.636,9.636,0,0,1-4.817,8.343l-8.139,4.7" transform="translate(-934.903 510.201)" fill="none" stroke="#000" stroke-miterlimit="10" stroke-width="1"/>
          <path id="路径_38624" data-name="路径 38624" d="M1393.159-366.481l13.455,7.768a9.675,9.675,0,0,1,.924.607" transform="translate(-929.871 542.203)" fill="none" stroke="#000" stroke-miterlimit="10" stroke-width="1"/>
          <path id="路径_38625" data-name="路径 38625" d="M1324.258-376.143l12.057-6.961a9.635,9.635,0,0,1,9.634,0l8.147,4.7" transform="translate(-896.364 550.915)" fill="none" stroke="#000" stroke-miterlimit="10" stroke-width="1"/>
          <path id="路径_38626" data-name="路径 38626" d="M611.92-555.129h21.436a4.966,4.966,0,0,0,4.966-4.966v-9.161a6.421,6.421,0,0,1,6.421-6.421h22.391" transform="translate(-549.944 643.937)" fill="none" stroke="#000" stroke-miterlimit="10" stroke-width="1"/>
          <line id="直线_495" data-name="直线 495" x2="26.198" transform="translate(317.824 168.088)" fill="none" stroke="#000" stroke-miterlimit="10" stroke-width="1"/>
          <line id="直线_496" data-name="直线 496" x2="28.831" transform="translate(350.422 168.024)" fill="none" stroke="#000" stroke-miterlimit="10" stroke-width="1"/>
          <path id="路径_38628" data-name="路径 38628" d="M43.311,63.448" transform="translate(165.896 77.44)" fill="none" stroke="#000" stroke-width="1"/>
          <line id="直线_499" data-name="直线 499" y2="5.822" transform="translate(305.722 73.27)" fill="none" stroke="#000" stroke-miterlimit="10" stroke-width="1"/>
          <line id="直线_501" data-name="直线 501" x2="14.655" y2="22.389" transform="translate(276.457 236.451)" fill="none" stroke="#000" stroke-miterlimit="10" stroke-width="1"/>
          <line id="直线_502" data-name="直线 502" x1="16.109" y2="23.903" transform="translate(205.049 228.75)" fill="none" stroke="#000" stroke-miterlimit="10" stroke-width="1"/>
          <path id="路径_38627" data-name="路径 38627" d="M831.02-205.142h21.77s3.253.226,4.966-1.7" transform="translate(-656.495 464.569)" fill="none" stroke="#000" stroke-miterlimit="10" stroke-width="1"/>
        </g>
      </g>
    </g>
    <g id="组_22002" data-name="组 22002" transform="translate(0 -7)">
      <path id="路径_39973" data-name="路径 39973" d="M2.085-4A1.733,1.733,0,0,0,.8-3.5a2.141,2.141,0,0,0-.57,1.56A1.856,1.856,0,0,0,2.09.145,1.862,1.862,0,0,0,3.96-1.94,2.156,2.156,0,0,0,3.4-3.5,1.752,1.752,0,0,0,2.085-4ZM2.1-.45a1.08,1.08,0,0,1-.775-.305,1.652,1.652,0,0,1-.4-1.18c0-.9.455-1.475,1.175-1.475a1.076,1.076,0,0,1,.77.305A1.615,1.615,0,0,1,3.26-1.94C3.26-1.02,2.815-.45,2.1-.45ZM15.24-3.92a4.07,4.07,0,0,1,.04.685v1.76A.913.913,0,0,1,14.265-.44.916.916,0,0,1,13.24-1.47V-3.235a3.921,3.921,0,0,1,.04-.685h-.745a4.108,4.108,0,0,1,.04.685V-1.47A1.611,1.611,0,0,0,12.95-.32a1.723,1.723,0,0,0,1.29.47,1.506,1.506,0,0,0,1.7-1.615V-3.24a4.041,4.041,0,0,1,.04-.68ZM28.055.06c-.07-.135-.195-.405-.235-.5-.5-1.17-.59-1.31-.905-1.41a1.057,1.057,0,0,0,.555-.29,1.028,1.028,0,0,0,.255-.745c0-.66-.435-1.04-1.195-1.04h-1.2c-.275,0-.43-.005-.64-.015a4.449,4.449,0,0,1,.04.65v2.7a3.913,3.913,0,0,1-.04.65h.745A3.9,3.9,0,0,1,25.4-.6v-1.02h.745c.385,0,.56.185.83.875a4.048,4.048,0,0,1,.26.8ZM25.4-2.185V-3.35H26.42c.41,0,.615.185.615.545a.593.593,0,0,1-.16.44.674.674,0,0,1-.475.18ZM48.625.06a4.072,4.072,0,0,1,.22-.665l.75-1.76a6.1,6.1,0,0,0,.23-.73c-.005.075-.02.33-.04.765V-.67a4.649,4.649,0,0,1-.04.73h.7a4.334,4.334,0,0,1-.04-.73V-3.18a5.178,5.178,0,0,1,.04-.74h-.92a2.771,2.771,0,0,1-.18.6l-1.01,2.48L47.32-3.325a3.46,3.46,0,0,1-.185-.6H46.22a4.96,4.96,0,0,1,.04.74V-.67a4.69,4.69,0,0,1-.04.73h.7a4.569,4.569,0,0,1-.04-.73V-2.31c0-.11-.02-.52-.04-.785a5.564,5.564,0,0,0,.255.765l.72,1.715a3.4,3.4,0,0,1,.22.675Zm10.53-3.98a3.736,3.736,0,0,1,.04.645v2.69a3.773,3.773,0,0,1-.04.645h.76a3.772,3.772,0,0,1-.04-.645v-2.69a3.735,3.735,0,0,1,.04-.645ZM68.49-1.105a1.709,1.709,0,0,0,.1.415,1.177,1.177,0,0,0,.44.57,2.01,2.01,0,0,0,1.05.26A1.657,1.657,0,0,0,71.27-.24a1.163,1.163,0,0,0,.315-.85.987.987,0,0,0-.415-.86,2.2,2.2,0,0,0-.815-.305,4.257,4.257,0,0,1-.7-.18.475.475,0,0,1-.34-.455c0-.325.295-.545.73-.545a.791.791,0,0,1,.625.24.646.646,0,0,1,.15.355l.715-.085a1.348,1.348,0,0,0-.245-.58A1.474,1.474,0,0,0,70.04-4.01c-.86,0-1.42.45-1.42,1.145a.984.984,0,0,0,.385.81,1.767,1.767,0,0,0,.755.3,3.153,3.153,0,0,1,.87.245.508.508,0,0,1,.25.46c0,.375-.3.6-.8.6a.888.888,0,0,1-.73-.3.717.717,0,0,1-.14-.44Zm11.575,0a1.709,1.709,0,0,0,.1.415,1.177,1.177,0,0,0,.44.57,2.01,2.01,0,0,0,1.05.26,1.657,1.657,0,0,0,1.195-.38,1.163,1.163,0,0,0,.315-.85.987.987,0,0,0-.415-.86,2.2,2.2,0,0,0-.815-.305,4.257,4.257,0,0,1-.7-.18.475.475,0,0,1-.34-.455c0-.325.295-.545.73-.545a.791.791,0,0,1,.625.24.646.646,0,0,1,.15.355l.715-.085a1.348,1.348,0,0,0-.245-.58,1.474,1.474,0,0,0-1.245-.505c-.86,0-1.42.45-1.42,1.145a.984.984,0,0,0,.385.81,1.767,1.767,0,0,0,.755.3,3.153,3.153,0,0,1,.87.245.508.508,0,0,1,.25.46c0,.375-.3.6-.8.6a.888.888,0,0,1-.73-.3.717.717,0,0,1-.14-.44ZM91.77-3.92a3.736,3.736,0,0,1,.04.645v2.69a3.773,3.773,0,0,1-.04.645h.76a3.773,3.773,0,0,1-.04-.645v-2.69a3.736,3.736,0,0,1,.04-.645ZM102.965-4a1.733,1.733,0,0,0-1.29.5,2.141,2.141,0,0,0-.57,1.56A1.856,1.856,0,0,0,102.97.145a1.862,1.862,0,0,0,1.87-2.085,2.156,2.156,0,0,0-.56-1.56A1.752,1.752,0,0,0,102.965-4Zm.015,3.55a1.08,1.08,0,0,1-.775-.305,1.652,1.652,0,0,1-.4-1.18c0-.9.455-1.475,1.175-1.475a1.076,1.076,0,0,1,.77.305,1.615,1.615,0,0,1,.4,1.165C104.14-1.02,103.695-.45,102.98-.45Zm13.84.51a3.773,3.773,0,0,1-.04-.645V-3.23a4.372,4.372,0,0,1,.04-.69h-.73a4.371,4.371,0,0,1,.04.69v1.68c0,.21.015.51.035.7-.11-.2-.27-.46-.39-.64l-1.265-1.9a2.742,2.742,0,0,1-.305-.53h-.78a4.165,4.165,0,0,1,.04.645V-.7a5.411,5.411,0,0,1-.04.755h.73a5.534,5.534,0,0,1-.04-.75V-2.33c0-.115-.01-.34-.015-.435-.015-.185-.015-.185-.02-.255.12.235.245.45.34.6l1.29,1.945a4.981,4.981,0,0,1,.32.535Z" transform="translate(19095.775 -226)"/>
      <path id="路径_40081" data-name="路径 40081" d="M6.422,41.088a24.713,24.713,0,0,1-.182,3.3H9.854a23.947,23.947,0,0,1-.182-3.3V32.456H16.3v8.632a20.75,20.75,0,0,1-.208,3.3h3.64a23.947,23.947,0,0,1-.182-3.3V32.846a25.126,25.126,0,0,1,.182-3.328c-1.04.052-1.69.078-3.25.078H9.49c-1.56,0-2.21-.026-3.25-.078a26.232,26.232,0,0,1,.182,3.38Zm25.87,3.8c4.628,0,7.67-3.172,7.67-7.982s-2.99-7.878-7.7-7.878c-4.732,0-7.748,3.094-7.748,7.93C24.518,41.816,27.534,44.884,32.292,44.884Zm-.026-13.156c2.756,0,4.342,1.924,4.342,5.278,0,3.172-1.664,5.122-4.368,5.122s-4.368-1.976-4.368-5.174C27.872,33.7,29.536,31.728,32.266,31.728ZM49.114,29.6c-1.378,0-1.9-.026-3.12-.078.026.65.052.91.052,1.482a11.546,11.546,0,0,1-.052,1.4l-.364,7.228c-.078,1.378-.468,1.976-1.326,1.976a2.2,2.2,0,0,1-1.04-.312l-.65,3.016a6.649,6.649,0,0,0,2.366.39,3.688,3.688,0,0,0,2.834-1.222,5.334,5.334,0,0,0,.988-3.172l.442-7.878h5.018v9.126a20.746,20.746,0,0,1-.182,2.834h3.64a19.236,19.236,0,0,1-.182-2.834V32.4a20.215,20.215,0,0,1,.182-2.886c-.962.052-1.56.078-2.964.078ZM64.766,46.7a13.354,13.354,0,0,0,3.146.39,4.517,4.517,0,0,0,4.5-2.626l5.512-11.96c.754-1.56,1.2-2.522,1.4-2.912l-3.848.026a13.237,13.237,0,0,1-.962,2.756l-2.834,6.864L68.51,32.378a12.7,12.7,0,0,1-.962-2.782H63.622A32,32,0,0,1,65.1,32.508l4.81,9.776-.312.728a2.056,2.056,0,0,1-2.106,1.2,4.634,4.634,0,0,1-2.054-.494ZM83.356,29.6a28.421,28.421,0,0,1,.182,3.3v2.886c0,2.444,1.17,3.354,4.29,3.354a33.681,33.681,0,0,0,4.42-.312v2.288a29.945,29.945,0,0,1-.182,3.276h3.64a22.508,22.508,0,0,1-.182-3.224V32.872a25.363,25.363,0,0,1,.182-3.276h-3.64a27.067,27.067,0,0,1,.182,3.276V36.3a27.213,27.213,0,0,1-2.964.156A5.422,5.422,0,0,1,87.36,36.3c-.364-.156-.546-.52-.546-1.17V32.9A24.454,24.454,0,0,1,87,29.6Zm18.8,0a28.865,28.865,0,0,1,.182,3.328v8.112a22.543,22.543,0,0,1-.208,3.354h3.692A14.354,14.354,0,0,1,107.276,42l4.992-6.6a4.545,4.545,0,0,0,.468-.754c.026-.052.078-.13.156-.26-.026.546-.026.546-.052,1.378l-.026,5.3a23.854,23.854,0,0,1-.182,3.328h3.614a26.352,26.352,0,0,1-.182-3.354V32.924a26.482,26.482,0,0,1,.182-3.328h-3.64a10.279,10.279,0,0,1-1.456,2.418l-4.914,6.552c-.156.208-.39.572-.572.858a1.668,1.668,0,0,1-.156.26c.026-.728.052-1.222.052-1.482V32.95a26.08,26.08,0,0,1,.182-3.354ZM130.286,44.39a26.779,26.779,0,0,1-.182-3.38V32.43h2.028a28.8,28.8,0,0,1,3.328.156V29.414a23.853,23.853,0,0,1-3.328.182h-7.384a24.607,24.607,0,0,1-3.328-.182v3.172a30.775,30.775,0,0,1,3.38-.156h1.976v8.58a23.925,23.925,0,0,1-.182,3.38Zm14.976-9.49v-2a24.712,24.712,0,0,1,.182-3.3h-3.588a28.735,28.735,0,0,1,.182,3.3v8.216a23.523,23.523,0,0,1-.182,3.354c1.144-.052,1.82-.078,3.25-.078H149.5c3.38,0,5.3-1.716,5.3-4.758,0-3.016-1.924-4.732-5.33-4.732Zm0,6.812V37.578h3.588c1.846,0,2.626.624,2.626,2.08s-.754,2.054-2.574,2.054ZM6.422,85.088a24.713,24.713,0,0,1-.182,3.3H9.854a23.947,23.947,0,0,1-.182-3.3V76.456H16.3v8.632a20.75,20.75,0,0,1-.208,3.3h3.64a23.947,23.947,0,0,1-.182-3.3V76.846a25.126,25.126,0,0,1,.182-3.328c-1.04.052-1.69.078-3.25.078H9.49c-1.56,0-2.21-.026-3.25-.078a26.232,26.232,0,0,1,.182,3.38Zm33.176-3.3c-.052-.6-.052-.676-.052-.728a10.688,10.688,0,0,0-.754-3.952A6.605,6.605,0,0,0,32.318,73c-4.446,0-7.332,3.146-7.332,7.956,0,4.862,2.912,7.93,7.514,7.93a7.384,7.384,0,0,0,5.356-2,7.307,7.307,0,0,0,1.586-2.392L36.374,83.5a3.779,3.779,0,0,1-.754,1.352,4.374,4.374,0,0,1-6.37-.156,4.833,4.833,0,0,1-.962-2.912ZM28.366,79.212a3.9,3.9,0,0,1,3.9-3.536,3.708,3.708,0,0,1,2.808,1.04,4.081,4.081,0,0,1,1.144,2.5Zm19.6,11.882a23.81,23.81,0,0,1-.182-2.782v-1.82a13.159,13.159,0,0,0-.052-1.378,3.476,3.476,0,0,0,.988,1.04,6.891,6.891,0,0,0,4.056,1.2c4.5,0,7.176-2.678,7.176-7.176,0-4.342-2.574-6.916-6.916-6.916a6.267,6.267,0,0,0-5.3,2.262c.026-.39.026-.52.026-.78V73.6H44.33a23.348,23.348,0,0,1,.182,3.2V87.922a22.453,22.453,0,0,1-.182,3.172ZM47.892,80.3A4.47,4.47,0,0,1,49.27,77a4.9,4.9,0,0,1,3.042-1.17c2.652,0,4.186,1.612,4.186,4.42,0,2.782-1.534,4.5-4.056,4.5A4.374,4.374,0,0,1,47.892,80.3Zm29.822-2.6a8.654,8.654,0,0,0-.91-1.9A6.725,6.725,0,0,0,70.98,73a7.12,7.12,0,0,0-5.226,1.976,8.407,8.407,0,0,0-2.21,6.006c0,4.81,2.964,7.9,7.54,7.9a6.807,6.807,0,0,0,5.72-2.6A7.785,7.785,0,0,0,77.9,84.048l-3.224-.65a3.634,3.634,0,0,1-.52,1.3,3.481,3.481,0,0,1-2.99,1.456c-2.626,0-4.238-2-4.238-5.252,0-3.224,1.586-5.226,4.134-5.226a3.271,3.271,0,0,1,2.678,1.2,4.954,4.954,0,0,1,.806,1.586Zm12.3,11.18c4.628,0,7.67-3.172,7.67-7.982s-2.99-7.878-7.7-7.878c-4.732,0-7.748,3.094-7.748,7.93C82.238,85.816,85.254,88.884,90.012,88.884Zm-.026-13.156c2.756,0,4.342,1.924,4.342,5.278,0,3.172-1.664,5.122-4.368,5.122s-4.368-1.976-4.368-5.174C85.592,77.7,87.256,75.728,89.986,75.728Zm15.7,12.662a24.354,24.354,0,0,1-.182-3.328V82.124h7.384v2.938a27.344,27.344,0,0,1-.182,3.328H116.3a24.866,24.866,0,0,1-.182-3.328V76.95A23.285,23.285,0,0,1,116.3,73.6H112.71a26.631,26.631,0,0,1,.182,3.354v2.314h-7.384v-2.34a25.659,25.659,0,0,1,.182-3.328H102.1a27.053,27.053,0,0,1,.182,3.328v8.138a20.607,20.607,0,0,1-.182,3.328Zm26,.078h3.51a20.911,20.911,0,0,1-.208-3.25V78.2c0-1.768-.338-2.756-1.222-3.588-1.118-1.092-2.626-1.534-5.122-1.534a7.785,7.785,0,0,0-4.966,1.326,5.433,5.433,0,0,0-2.054,2.886l3.328.6A3.017,3.017,0,0,1,126,76.222a4.895,4.895,0,0,1,2.7-.728c1.976,0,2.99.78,2.99,2.288v1.3c-3.718.078-5.642.364-7.332,1.066a4.586,4.586,0,0,0-2.938,4.212c0,2.7,1.924,4.368,5.1,4.368a9.2,9.2,0,0,0,2.418-.312,5.638,5.638,0,0,0,2.756-1.638Zm0-5.8a3.1,3.1,0,0,1-.936,2.288,5.279,5.279,0,0,1-3.614,1.378c-1.456,0-2.366-.754-2.366-2,0-2.028,1.95-2.86,6.916-2.99ZM145.314,73.6c-1.378,0-1.9-.026-3.12-.078.026.65.052.91.052,1.482a11.548,11.548,0,0,1-.052,1.4l-.364,7.228c-.078,1.378-.468,1.976-1.326,1.976a2.195,2.195,0,0,1-1.04-.312l-.65,3.016a6.649,6.649,0,0,0,2.366.39,3.688,3.688,0,0,0,2.834-1.222A5.334,5.334,0,0,0,145,84.308l.442-7.878h5.018v9.126a20.747,20.747,0,0,1-.182,2.834h3.64a19.235,19.235,0,0,1-.182-2.834V76.4a20.215,20.215,0,0,1,.182-2.886c-.962.052-1.56.078-2.964.078ZM164.5,78.9v-2a24.712,24.712,0,0,1,.182-3.3H161.1a28.735,28.735,0,0,1,.182,3.3v8.216a23.523,23.523,0,0,1-.182,3.354c1.144-.052,1.82-.078,3.25-.078h4.394c3.38,0,5.3-1.716,5.3-4.758,0-3.016-1.924-4.732-5.33-4.732Zm0,6.812V81.578h3.588c1.846,0,2.626.624,2.626,2.08s-.754,2.054-2.574,2.054ZM182.65,88.39a24.352,24.352,0,0,1-.182-3.328V82.124h7.384v2.938a27.345,27.345,0,0,1-.182,3.328h3.588a24.864,24.864,0,0,1-.182-3.328V76.95a23.284,23.284,0,0,1,.182-3.354H189.67a26.632,26.632,0,0,1,.182,3.354v2.314h-7.384v-2.34a25.657,25.657,0,0,1,.182-3.328h-3.588a27.054,27.054,0,0,1,.182,3.328v8.138a20.608,20.608,0,0,1-.182,3.328Zm16.8,2.314a13.355,13.355,0,0,0,3.146.39,4.517,4.517,0,0,0,4.5-2.626l5.512-11.96c.754-1.56,1.2-2.522,1.4-2.912l-3.848.026a13.236,13.236,0,0,1-.962,2.756l-2.834,6.864-3.172-6.864a12.7,12.7,0,0,1-.962-2.782H198.3a31.988,31.988,0,0,1,1.482,2.912l4.81,9.776-.312.728a2.056,2.056,0,0,1-2.106,1.2,4.634,4.634,0,0,1-2.054-.494Zm19.656-8.71h1.872a8.719,8.719,0,0,0,1.2,4.056,5.959,5.959,0,0,0,5.382,2.7c4.29,0,6.864-2.938,6.864-7.852,0-4.836-2.522-7.7-6.76-7.7A6.191,6.191,0,0,0,223,74.974c-1.014,1.04-1.482,2.08-1.976,4.394H219.1V76.95a25.811,25.811,0,0,1,.182-3.354h-3.562a24.327,24.327,0,0,1,.182,3.38V85.01a28.821,28.821,0,0,1-.182,3.38h3.562a27.062,27.062,0,0,1-.182-3.38Zm8.476,4.108a3.121,3.121,0,0,1-2.262-.858,6.265,6.265,0,0,1-1.274-4.212c0-3.25,1.352-5.174,3.588-5.174,2.21,0,3.51,1.872,3.51,5.044a6.516,6.516,0,0,1-1.274,4.264A3.032,3.032,0,0,1,227.578,86.1ZM239.2,85.088a24.715,24.715,0,0,1-.182,3.3h3.614a23.946,23.946,0,0,1-.182-3.3V76.456h6.63v8.632a20.749,20.749,0,0,1-.208,3.3h3.64a23.946,23.946,0,0,1-.182-3.3V76.846a25.125,25.125,0,0,1,.182-3.328c-1.04.052-1.69.078-3.25.078h-6.994c-1.56,0-2.21-.026-3.25-.078a26.234,26.234,0,0,1,.182,3.38Zm25.87,3.8c4.628,0,7.67-3.172,7.67-7.982s-2.99-7.878-7.7-7.878c-4.732,0-7.748,3.094-7.748,7.93C257.3,85.816,260.312,88.884,265.07,88.884Zm-.026-13.156c2.756,0,4.342,1.924,4.342,5.278,0,3.172-1.664,5.122-4.368,5.122s-4.368-1.976-4.368-5.174C260.65,77.7,262.314,75.728,265.044,75.728ZM293.072,88.39a24.258,24.258,0,0,1-.182-3.354V76.924a27.937,27.937,0,0,1,.182-3.328h-4.264a1.48,1.48,0,0,1-.078.416c-.078.338-.7,2.106-.754,2.236l-3.718,7.826-3.744-7.826c-.078-.208-.65-1.846-.754-2.158-.026-.156-.052-.26-.078-.494h-4.264a29,29,0,0,1,.182,3.354v8.086a23.284,23.284,0,0,1-.182,3.354h3.38a24.762,24.762,0,0,1-.182-3.354v-5.07c0-.65-.026-1.222-.1-2.184a13.46,13.46,0,0,0,.7,1.9l2.808,5.72a18.808,18.808,0,0,1,1.092,2.99h2.262a16.346,16.346,0,0,1,1.066-2.964l2.834-5.746a14.266,14.266,0,0,0,.7-1.9,21.823,21.823,0,0,0-.1,2.184v5.07a27.2,27.2,0,0,1-.182,3.354Zm10.478.494c4.628,0,7.67-3.172,7.67-7.982s-2.99-7.878-7.7-7.878c-4.732,0-7.748,3.094-7.748,7.93C295.776,85.816,298.792,88.884,303.55,88.884Zm-.026-13.156c2.756,0,4.342,1.924,4.342,5.278,0,3.172-1.664,5.122-4.368,5.122s-4.368-1.976-4.368-5.174C299.13,77.7,300.794,75.728,303.524,75.728Zm28.21,1.17a20.96,20.96,0,0,1,.208-3.3h-3.484a27.8,27.8,0,0,1,.182,3.3v8.658h-4.55V76.9a24.974,24.974,0,0,1,.182-3.3h-3.38a25.508,25.508,0,0,1,.182,3.3v8.658H316.5V76.9a22.039,22.039,0,0,1,.182-3.3h-3.458a26.91,26.91,0,0,1,.182,3.3v8.216a26.079,26.079,0,0,1-.182,3.354c1.118-.052,1.794-.078,3.25-.078h13.312V89.2a8.487,8.487,0,0,1-.182,1.924h3.666a9.721,9.721,0,0,1-.182-1.95V87.61a16.852,16.852,0,0,1,.182-2.132c-.806.052-.806.052-1.534.078Zm7.826,2v-2a24.712,24.712,0,0,1,.182-3.3h-3.588a28.735,28.735,0,0,1,.182,3.3v8.216a23.523,23.523,0,0,1-.182,3.354c1.144-.052,1.82-.078,3.25-.078H343.8c3.38,0,5.3-1.716,5.3-4.758,0-3.016-1.924-4.732-5.33-4.732Zm0,6.812V81.578h3.588c1.846,0,2.626.624,2.626,2.08s-.754,2.054-2.574,2.054Z" transform="translate(19089.76 -179)"/>
      <path id="路径_40082" data-name="路径 40082" d="M10.582-17.108H17.6a23.285,23.285,0,0,1,3.354.182v-3.432a24.763,24.763,0,0,1-3.354.182h-7.41c-1.612,0-2.21,0-3.276-.078a23.834,23.834,0,0,1,.208,3.328V-2.938A19.1,19.1,0,0,1,6.916.39h3.9a18.732,18.732,0,0,1-.234-3.328Zm14.612,2.7a28.865,28.865,0,0,1,.182,3.328v8.112A22.543,22.543,0,0,1,25.168.39H28.86A14.354,14.354,0,0,1,30.316-2l4.992-6.6a4.545,4.545,0,0,0,.468-.754c.026-.052.078-.13.156-.26-.026.546-.026.546-.052,1.378l-.026,5.3A23.853,23.853,0,0,1,35.672.39h3.614A26.352,26.352,0,0,1,39.1-2.964v-8.112a26.482,26.482,0,0,1,.182-3.328h-3.64a10.279,10.279,0,0,1-1.456,2.418L29.276-5.434c-.156.208-.39.572-.572.858a1.668,1.668,0,0,1-.156.26c.026-.728.052-1.222.052-1.482V-11.05a26.079,26.079,0,0,1,.182-3.354ZM43,1.118a8.758,8.758,0,0,1-.182,2h3.666a11.713,11.713,0,0,1-.156-1.976V.364h9.854V1.2A7.366,7.366,0,0,1,56,3.12H59.7a9.348,9.348,0,0,1-.182-2.08V-.442a13.746,13.746,0,0,1,.182-2.08c-.858.052-.988.052-1.534.052V-11.1a25.176,25.176,0,0,1,.182-3.38c-1.04.078-1.43.078-3.276.078H49.426c-1.82,0-2.236,0-3.25-.078a27.932,27.932,0,0,1,.156,3.094,22.937,22.937,0,0,1-.416,4.706,13,13,0,0,1-1.56,4.212c-.65-.026-.65-.026-1.534-.052A13.043,13.043,0,0,1,43-.416Zm4.732-3.562A14.789,14.789,0,0,0,49.14-6.4a25.466,25.466,0,0,0,.416-5.2h5.408v9.152ZM64.142,1.118a8.758,8.758,0,0,1-.182,2h3.666a11.714,11.714,0,0,1-.156-1.976V.364h9.854V1.2a7.366,7.366,0,0,1-.182,1.924h3.692a9.348,9.348,0,0,1-.182-2.08V-.442a13.746,13.746,0,0,1,.182-2.08c-.858.052-.988.052-1.534.052V-11.1a25.176,25.176,0,0,1,.182-3.38c-1.04.078-1.43.078-3.276.078H70.564c-1.82,0-2.236,0-3.25-.078a27.933,27.933,0,0,1,.156,3.094,22.937,22.937,0,0,1-.416,4.706,13,13,0,0,1-1.56,4.212c-.65-.026-.65-.026-1.534-.052a13.044,13.044,0,0,1,.182,2.106Zm4.732-3.562a14.789,14.789,0,0,0,1.4-3.952,25.466,25.466,0,0,0,.416-5.2H76.1v9.152ZM89.492-14.4c-1.378,0-1.9-.026-3.12-.078.026.65.052.91.052,1.482a11.545,11.545,0,0,1-.052,1.4l-.364,7.228c-.078,1.378-.468,1.976-1.326,1.976a2.2,2.2,0,0,1-1.04-.312L82.992.312A6.649,6.649,0,0,0,85.358.7,3.688,3.688,0,0,0,88.192-.52a5.334,5.334,0,0,0,.988-3.172l.442-7.878H94.64v9.126A20.745,20.745,0,0,1,94.458.39H98.1a19.236,19.236,0,0,1-.182-2.834V-11.6a20.216,20.216,0,0,1,.182-2.886c-.962.052-1.56.078-2.964.078Zm24.1,8.84V-2.99a26.781,26.781,0,0,1-.182,3.38H117a25.81,25.81,0,0,1-.182-3.354v-8.19A25.93,25.93,0,0,1,117-14.482c-1.066.052-1.872.078-3.276.078h-4.342c-3.12,0-4.94,1.482-4.94,4.03a3.474,3.474,0,0,0,1.378,3.016,3.622,3.622,0,0,0,1.82.7,2.3,2.3,0,0,0-1.092.65,11.266,11.266,0,0,0-1.638,2.73A25.161,25.161,0,0,1,103.038.39h4.03a18.293,18.293,0,0,1,1.326-3.484c.936-1.976,1.43-2.47,2.6-2.47Zm0-2.678h-3.64c-1.482,0-2.21-.572-2.21-1.742s.7-1.742,2.132-1.742h3.718ZM128.726.39a24.355,24.355,0,0,1-.182-3.328V-5.876h7.384v2.938A27.342,27.342,0,0,1,135.746.39h3.588a24.865,24.865,0,0,1-.182-3.328V-11.05a23.284,23.284,0,0,1,.182-3.354h-3.588a26.63,26.63,0,0,1,.182,3.354v2.314h-7.384v-2.34a25.66,25.66,0,0,1,.182-3.328h-3.588a27.053,27.053,0,0,1,.182,3.328v8.138A20.607,20.607,0,0,1,125.138.39Zm26,.078h3.51a20.913,20.913,0,0,1-.208-3.25V-9.8c0-1.768-.338-2.756-1.222-3.588-1.118-1.092-2.626-1.534-5.122-1.534a7.785,7.785,0,0,0-4.966,1.326,5.433,5.433,0,0,0-2.054,2.886l3.328.6a3.017,3.017,0,0,1,1.04-1.664,4.895,4.895,0,0,1,2.7-.728c1.976,0,2.99.78,2.99,2.288v1.3c-3.718.078-5.642.364-7.332,1.066a4.586,4.586,0,0,0-2.938,4.212c0,2.7,1.924,4.368,5.1,4.368A9.2,9.2,0,0,0,151.97.416a5.638,5.638,0,0,0,2.756-1.638Zm0-5.8a3.1,3.1,0,0,1-.936,2.288,5.279,5.279,0,0,1-3.614,1.378c-1.456,0-2.366-.754-2.366-2,0-2.028,1.95-2.86,6.916-2.99Zm9.386-9.074a28.419,28.419,0,0,1,.182,3.3v2.886c0,2.444,1.17,3.354,4.29,3.354A33.681,33.681,0,0,0,173-5.174v2.288A29.943,29.943,0,0,1,172.822.39h3.64a22.507,22.507,0,0,1-.182-3.224v-8.294a25.361,25.361,0,0,1,.182-3.276h-3.64A27.066,27.066,0,0,1,173-11.128V-7.7a27.212,27.212,0,0,1-2.964.156,5.422,5.422,0,0,1-1.924-.156c-.364-.156-.546-.52-.546-1.17V-11.1a24.456,24.456,0,0,1,.182-3.3Zm18.8,0a28.863,28.863,0,0,1,.182,3.328v8.112A22.542,22.542,0,0,1,182.884.39h3.692A14.354,14.354,0,0,1,188.032-2l4.992-6.6a4.545,4.545,0,0,0,.468-.754c.026-.052.078-.13.156-.26-.026.546-.026.546-.052,1.378l-.026,5.3A23.855,23.855,0,0,1,193.388.39H197a26.352,26.352,0,0,1-.182-3.354v-8.112A26.482,26.482,0,0,1,197-14.4h-3.64a10.279,10.279,0,0,1-1.456,2.418l-4.914,6.552c-.156.208-.39.572-.572.858a1.668,1.668,0,0,1-.156.26c.026-.728.052-1.222.052-1.482V-11.05A26.079,26.079,0,0,1,186.5-14.4ZM205.686.39a24.352,24.352,0,0,1-.182-3.328V-5.876h7.384v2.938A27.345,27.345,0,0,1,212.706.39h3.588a24.864,24.864,0,0,1-.182-3.328V-11.05a23.284,23.284,0,0,1,.182-3.354h-3.588a26.633,26.633,0,0,1,.182,3.354v2.314H205.5v-2.34a25.657,25.657,0,0,1,.182-3.328H202.1a27.054,27.054,0,0,1,.182,3.328v8.138A20.608,20.608,0,0,1,202.1.39Zm26,.078h3.51a20.913,20.913,0,0,1-.208-3.25V-9.8c0-1.768-.338-2.756-1.222-3.588-1.118-1.092-2.626-1.534-5.122-1.534a7.785,7.785,0,0,0-4.966,1.326,5.433,5.433,0,0,0-2.054,2.886l3.328.6a3.017,3.017,0,0,1,1.04-1.664,4.895,4.895,0,0,1,2.7-.728c1.976,0,2.99.78,2.99,2.288v1.3c-3.718.078-5.642.364-7.332,1.066a4.586,4.586,0,0,0-2.938,4.212c0,2.7,1.924,4.368,5.1,4.368A9.2,9.2,0,0,0,228.93.416a5.638,5.638,0,0,0,2.756-1.638Zm0-5.8a3.1,3.1,0,0,1-.936,2.288,5.279,5.279,0,0,1-3.614,1.378c-1.456,0-2.366-.754-2.366-2,0-2.028,1.95-2.86,6.916-2.99Zm10.452-.676h1.872a8.719,8.719,0,0,0,1.2,4.056,5.959,5.959,0,0,0,5.382,2.7c4.29,0,6.864-2.938,6.864-7.852,0-4.836-2.522-7.7-6.76-7.7a6.191,6.191,0,0,0-4.654,1.768c-1.014,1.04-1.482,2.08-1.976,4.394h-1.924V-11.05a25.811,25.811,0,0,1,.182-3.354h-3.562a24.327,24.327,0,0,1,.182,3.38V-2.99a28.821,28.821,0,0,1-.182,3.38h3.562a27.062,27.062,0,0,1-.182-3.38ZM250.614-1.9a3.121,3.121,0,0,1-2.262-.858,6.265,6.265,0,0,1-1.274-4.212c0-3.25,1.352-5.174,3.588-5.174,2.21,0,3.51,1.872,3.51,5.044A6.516,6.516,0,0,1,252.9-2.834,3.032,3.032,0,0,1,250.614-1.9Zm25.3-9.2a20.96,20.96,0,0,1,.208-3.3h-3.484a27.808,27.808,0,0,1,.182,3.3v8.658h-4.55V-11.1a24.974,24.974,0,0,1,.182-3.3h-3.38a25.508,25.508,0,0,1,.182,3.3v8.658h-4.576V-11.1a22.034,22.034,0,0,1,.182-3.3H257.4a26.91,26.91,0,0,1,.182,3.3v8.216A26.079,26.079,0,0,1,257.4.468c1.118-.052,1.794-.078,3.25-.078h13.312V1.2a8.485,8.485,0,0,1-.182,1.924h3.666a9.721,9.721,0,0,1-.182-1.95V-.39a16.852,16.852,0,0,1,.182-2.132c-.806.052-.806.052-1.534.078Zm3.2-3.3a28.863,28.863,0,0,1,.182,3.328v8.112A22.542,22.542,0,0,1,279.084.39h3.692A14.356,14.356,0,0,1,284.232-2l4.992-6.6a4.545,4.545,0,0,0,.468-.754c.026-.052.078-.13.156-.26-.026.546-.026.546-.052,1.378l-.026,5.3A23.853,23.853,0,0,1,289.588.39H293.2a26.353,26.353,0,0,1-.182-3.354v-8.112A26.482,26.482,0,0,1,293.2-14.4h-3.64a10.279,10.279,0,0,1-1.456,2.418l-4.914,6.552c-.156.208-.39.572-.572.858a1.67,1.67,0,0,1-.156.26c.026-.728.052-1.222.052-1.482V-11.05A26.079,26.079,0,0,1,282.7-14.4ZM313.066.468c-.7-.858-1.56-2-1.924-2.5l-3.8-5.3,3.51-4.914c.416-.6.832-1.17,1.664-2.236h-4.03a12.868,12.868,0,0,1-1.092,1.976l-1.976,2.912-2-2.912a12.254,12.254,0,0,1-1.092-1.976h-4.056c1.17,1.508,1.378,1.794,1.664,2.184l3.536,4.966-3.9,5.434c-.442.624-1.248,1.664-1.82,2.366h4.186a14.043,14.043,0,0,1,1.118-1.976l2.34-3.484,2.262,3.328A13.873,13.873,0,0,1,308.88.468Zm3.978-3.952h-3.822v3.8h2.184c-.026,1.612-.39,2.08-1.976,2.522l.936,1.378c2.106-.832,2.678-1.664,2.678-3.9Z" transform="translate(19089.76 -179)" fill="#0080f4"/>
    </g>
  </g>
</svg>
