<svg xmlns="http://www.w3.org/2000/svg" xmlns:xlink="http://www.w3.org/1999/xlink" width="690" height="334" viewBox="0 0 690 334"><defs><style>.a,.h,.k{fill:#fff;}.b,.d,.e,.f,.g,.i,.p,.q{fill:none;}.b,.e,.h,.i,.l,.m{stroke:#0080f4;}.b{stroke-linecap:round;}.b,.d,.e,.f,.g,.h,.k,.m,.p{stroke-miterlimit:10;}.c,.l,.m{fill:#0080f4;}.d{stroke:#0c111a;}.f,.k,.p,.q{stroke:#000;}.g{stroke:#ef54a1;}.h,.k{stroke-width:0.5px;}.j{fill:#0c111a;}.m{stroke-width:0.25px;}.n{clip-path:url(#a);}.o{opacity:0.05;}.p{opacity:0.5;}.r{fill:#2d3436;}.s{fill:#636e72;font-size:16px;font-family:SegoeUI, Segoe UI;letter-spacing:0.5em;}</style><clipPath id="a"><rect class="a" width="690" height="333.626"/></clipPath></defs><g transform="translate(9.315 -160)"><g transform="translate(-20 52)"><rect class="a" width="690" height="334" transform="translate(10.685 108)"/><g transform="translate(316.316 154.907)"><g transform="translate(205.986 35.5)"><path class="b" d="M1721.463,349.6h-14.194l-3.911,3.4a.515.515,0,0,1-.842-.3l-.506-3.1h-2.533a.409.409,0,0,1-.409-.409h0V334.317a.408.408,0,0,1,.408-.409h21.987a.409.409,0,0,1,.409.409h0v14.875A.409.409,0,0,1,1721.463,349.6Z" transform="translate(-1699.069 -333.908)"/><g transform="translate(6.072 5.534)"><path class="c" d="M1710.61,348.687a1.97,1.97,0,0,1-.615-1.429,2.029,2.029,0,0,1,.566-1.449,1.97,1.97,0,0,1,1.429-.615l2.629-.044a2.026,2.026,0,0,1,1.449.566,1.969,1.969,0,0,1,.614,1.429.405.405,0,0,1-.118.289.462.462,0,0,1-.285.129.4.4,0,0,1-.41-.385v-.012a1.238,1.238,0,0,0-1.243-1.2l-2.629.045a1.207,1.207,0,0,0-.851.379,1.271,1.271,0,0,0-.35.864,1.2,1.2,0,0,0,.379.851,1.267,1.267,0,0,0,.863.35l2.218-.038a.4.4,0,0,1,.014.808l-2.219.037A2.042,2.042,0,0,1,1710.61,348.687Z" transform="translate(-1709.995 -345.075)"/><path class="c" d="M1721.479,348.5a1.969,1.969,0,0,1-.616-1.43.4.4,0,1,1,.808-.014,1.237,1.237,0,0,0,1.242,1.2l2.63-.045a1.208,1.208,0,0,0,.851-.379,1.271,1.271,0,0,0,.349-.863,1.208,1.208,0,0,0-.379-.851,1.271,1.271,0,0,0-.863-.349l-2.218.037a.406.406,0,0,1-.008-.81l2.218-.038a2.028,2.028,0,0,1,1.448.566,1.97,1.97,0,0,1,.615,1.429,2.034,2.034,0,0,1-1.994,2.063l-2.629.045a2.031,2.031,0,0,1-1.45-.567Z" transform="translate(-1716.538 -344.961)"/></g></g><g transform="translate(120.466 71.868)"><path class="d" d="M1557.566,499.484,1528,482.411a6.281,6.281,0,0,1-3.141-5.439V442.827a6.282,6.282,0,0,1,3.141-5.44l29.567-17.072a6.283,6.283,0,0,1,6.281,0l29.569,17.072a6.282,6.282,0,0,1,3.141,5.44v34.144a6.281,6.281,0,0,1-3.141,5.439l-29.569,17.072A6.281,6.281,0,0,1,1557.566,499.484Z" transform="translate(-1520.797 -415.831)"/><line class="d" y1="4.382" transform="translate(0 25.526)"/><line class="d" y1="20.262" transform="translate(0 33.982)"/><line class="d" x1="3.64" y1="2.101" transform="translate(4.167 69.455)"/><line class="d" x1="17.907" y1="10.338" transform="translate(11.203 73.517)"/><line class="d" x1="3.516" y2="2.03" transform="translate(44.315 85.719)"/><line class="d" x1="17.787" y2="10.269" transform="translate(51.448 73.361)"/><line class="d" y2="4.159" transform="translate(80.169 58.18)"/><line class="d" y2="20.486" transform="translate(80.169 33.257)"/><line class="d" x2="3.649" y2="2.106" transform="translate(72.384 16.268)"/><line class="d" x2="17.802" y2="10.278" transform="translate(50.988 3.915)"/><line class="d" y1="2.049" x2="3.549" transform="translate(32.413)"/><line class="d" y1="10.19" x2="17.649" transform="translate(10.962 4.244)"/></g><path class="e" d="M1695.678,350.553l-15.311-8.837a6.281,6.281,0,0,1-3.14-5.439V318.6a6.281,6.281,0,0,1,3.14-5.439l15.311-8.837a6.281,6.281,0,0,1,6.281,0l15.311,8.837a6.281,6.281,0,0,1,3.141,5.439v17.68a6.281,6.281,0,0,1-3.141,5.439l-15.311,8.837A6.281,6.281,0,0,1,1695.678,350.553Z" transform="translate(-1481.454 -282.206)"/><path class="f" d="M1732.093,406.509l-2.846,1.643a6.453,6.453,0,0,1-.616.312" transform="translate(-1508.822 -337.061)"/><path class="f" d="M1757.731,379.423a6.283,6.283,0,0,1-2.957,3.931l-11.958,6.9" transform="translate(-1516.374 -322.64)"/><line class="f" y2="3.894" transform="translate(241.541 38.588)"/><path class="f" d="M1746.736,308.386l10.125,5.845a6.281,6.281,0,0,1,3.14,5.439" transform="translate(-1518.462 -284.819)"/><path class="f" d="M1711.339,299.8l2.423-1.4q.244-.14.5-.258" transform="translate(-1499.616 -279.365)"/><path class="f" d="M1671.959,316.49a6.282,6.282,0,0,1,2.858-3.576l12.131-7" transform="translate(-1478.649 -283.501)"/><path class="f" d="M1684.778,388.288l-10.278-5.936a6.283,6.283,0,0,1-3.141-5.439" transform="translate(-1478.33 -321.304)"/><path class="d" d="M1614.816,390.547l12.743-22.832a6.28,6.28,0,0,1,5.394-3.219l8.124-.118" transform="translate(-1448.226 -314.63)"/><path class="d" d="M1823.2,342.909l-4.948,7.422a6.281,6.281,0,0,1-5.631,2.784l-1.777-.115" transform="translate(-1552.592 -303.2)"/><path class="d" d="M1820.652,501.024l-4.015-6.469a6.281,6.281,0,0,0-5.537-2.965l-3.791.057" transform="translate(-1550.712 -382.357)"/><path class="e" d="M1694.951,646.671l-11.722-6.768a6.281,6.281,0,0,1-3.141-5.44V620.927a6.281,6.281,0,0,1,3.141-5.439l11.722-6.768a6.282,6.282,0,0,1,6.281,0l11.722,6.768a6.281,6.281,0,0,1,3.14,5.439v13.536a6.281,6.281,0,0,1-3.14,5.44l-11.722,6.768A6.283,6.283,0,0,1,1694.951,646.671Z" transform="translate(-1482.977 -444.273)"/><path class="f" d="M1675.148,634.673v-2.993a6.285,6.285,0,0,1,.094-1.081" transform="translate(-1480.347 -456.37)"/><path class="f" d="M1682.484,665.257l-4.195-2.422a6.282,6.282,0,0,1-3.14-5.44V648.5" transform="translate(-1480.348 -465.902)"/><path class="f" d="M1726.8,693.194l-2.646,1.528a6.268,6.268,0,0,1-.982.46" transform="translate(-1505.916 -489.696)"/><path class="f" d="M1750.173,656.978v4.93a6.282,6.282,0,0,1-3.141,5.44l-7.215,4.166" transform="translate(-1514.778 -470.414)"/><path class="f" d="M1749.746,618.1l2.572,1.486a6.289,6.289,0,0,1,1.029.741" transform="translate(-1520.064 -449.714)"/><path class="f" d="M1702.45,605.545l4.39-2.535a6.283,6.283,0,0,1,6.282,0l7.828,4.519" transform="translate(-1494.883 -441.233)"/><path class="d" d="M1276.18,385.08l-10.937-6.316a5.4,5.4,0,0,1-2.7-4.676V361.457a5.4,5.4,0,0,1,2.7-4.676l10.937-6.32a5.4,5.4,0,0,1,5.4,0l10.939,6.316a5.4,5.4,0,0,1,2.7,4.676v12.631a5.4,5.4,0,0,1-2.7,4.676l-10.939,6.316A5.4,5.4,0,0,1,1276.18,385.08Z" transform="translate(-1260.671 -306.836)"/><g transform="translate(0 40.527)"><path class="f" d="M1258.54,374.068v-2.852a5.361,5.361,0,0,1,.079-.916" transform="translate(-1258.54 -358.31)"/><path class="f" d="M1265.188,401.741l-3.948-2.279a5.4,5.4,0,0,1-2.7-4.676v-8.419" transform="translate(-1258.54 -366.865)"/><line class="f" x1="2.665" y2="1.539" transform="translate(21.103 38.565)"/><path class="f" d="M1326,404.37a5.4,5.4,0,0,1-2.7,4.677l-7.178,4.144" transform="translate(-1289.199 -376.45)"/><path class="f" d="M1326.153,359.185l2.49,1.437a5.4,5.4,0,0,1,.638.432" transform="translate(-1294.538 -352.393)"/><path class="f" d="M1283.722,347.65l3.928-2.267a5.4,5.4,0,0,1,5.4,0l7.158,4.133" transform="translate(-1271.948 -344.659)"/></g><path class="e" d="M1427.111,598.06l-11.764-6.792a6.28,6.28,0,0,1-3.14-5.439V572.245a6.281,6.281,0,0,1,3.14-5.439l11.764-6.792a6.282,6.282,0,0,1,6.281,0l11.764,6.791a6.281,6.281,0,0,1,3.14,5.44v13.583a6.28,6.28,0,0,1-3.14,5.439l-11.764,6.792A6.282,6.282,0,0,1,1427.111,598.06Z" transform="translate(-1340.354 -418.341)"/><path class="f" d="M1473.3,624.137a6.278,6.278,0,0,1-2.7,3.122l-14.061,8.118a6.3,6.3,0,0,1-1.049.483" transform="translate(-1363.4 -452.929)"/><path class="f" d="M1482.021,569.482l2.706,1.562a6.282,6.282,0,0,1,3.141,5.44v13.981" transform="translate(-1377.524 -423.83)"/><path class="f" d="M1408.983,565.591a6.281,6.281,0,0,1,2.455-2.585l14.061-8.118a6.325,6.325,0,0,1,1.111-.5" transform="translate(-1338.638 -415.791)"/><path class="f" d="M1413.222,610.538l-2.565-1.481a6.282,6.282,0,0,1-3.14-5.44V589.949" transform="translate(-1337.857 -434.727)"/><path class="e" d="M1429.724,360.747l-17.246-9.957a6.281,6.281,0,0,1-3.14-5.439V325.437a6.282,6.282,0,0,1,3.14-5.44l17.246-9.957a6.28,6.28,0,0,1,6.281,0L1453.251,320a6.282,6.282,0,0,1,3.14,5.44v19.912a6.281,6.281,0,0,1-3.14,5.439l-17.246,9.957A6.282,6.282,0,0,1,1429.724,360.747Z" transform="translate(-1338.827 -285.252)"/><line class="f" y1="4.145" transform="translate(67.488 53.031)"/><path class="f" d="M1417.379,402.275l-11.365-6.562a6.281,6.281,0,0,1-3.14-5.439" transform="translate(-1335.385 -328.418)"/><line class="f" x1="3.303" y2="1.907" transform="translate(97.059 77.022)"/><path class="f" d="M1497.428,390.275a6.281,6.281,0,0,1-3.14,5.439l-13.1,7.563" transform="translate(-1377.08 -328.418)"/><line class="f" y2="4.061" transform="translate(120.348 43.235)"/><path class="f" d="M1485.192,315.022l11.227,6.482a6.281,6.281,0,0,1,3.14,5.439v.583" transform="translate(-1379.213 -288.353)"/><line class="f" y1="1.788" x2="3.096" transform="translate(87.681 21.519)"/><path class="f" d="M1403.524,323.438a6.278,6.278,0,0,1,2.836-3.507l13.621-7.864" transform="translate(-1335.731 -286.779)"/><path class="d" d="M1846.529,305.476l-12.789-7.383a6.281,6.281,0,0,1-3.14-5.439V277.886a6.282,6.282,0,0,1,3.14-5.44l12.789-7.383a6.282,6.282,0,0,1,6.281,0l12.789,7.383a6.282,6.282,0,0,1,3.14,5.44v14.767a6.281,6.281,0,0,1-3.14,5.439l-12.789,7.383A6.28,6.28,0,0,1,1846.529,305.476Z" transform="translate(-1563.112 -261.306)"/><path class="f" d="M1845.792,263.881l8.753-5.054a6.282,6.282,0,0,1,5.533-.368" transform="translate(-1571.2 -257.986)"/><path class="f" d="M1825.365,304.632v-15.1q0-.267.022-.53" transform="translate(-1560.325 -274.501)"/><path class="f" d="M1837.468,339.274l-8.871-5.122a6.281,6.281,0,0,1-3.062-4.448" transform="translate(-1560.415 -296.169)"/><path class="f" d="M1890.2,341.752l-13.11,7.569a6.341,6.341,0,0,1-.748.368" transform="translate(-1587.467 -302.584)"/><path class="f" d="M1913.515,305.892v10.143a6.282,6.282,0,0,1-3.14,5.439" transform="translate(-1605.584 -283.492)"/><path class="f" d="M1882.252,262.271l13.149,7.591a6.317,6.317,0,0,1,.693.464" transform="translate(-1590.612 -260.267)"/><path class="e" d="M1837.932,543.7l-15.305-8.837a6.281,6.281,0,0,1-3.141-5.439V511.751a6.281,6.281,0,0,1,3.141-5.439l15.305-8.837a6.282,6.282,0,0,1,6.281,0l15.306,8.837a6.281,6.281,0,0,1,3.141,5.439v17.675a6.281,6.281,0,0,1-3.141,5.439l-15.306,8.837A6.28,6.28,0,0,1,1837.932,543.7Z" transform="translate(-1557.194 -385.044)"/><g transform="translate(259.978 108.568)"><line class="d" y1="9.972" transform="translate(0.001 16.504)"/><path class="d" d="M1825.376,572.175l-7.7-4.442a6.282,6.282,0,0,1-3.141-5.439v-6.064" transform="translate(-1814.538 -525.342)"/><path class="d" d="M1879.822,592.251l-8.454,4.881a6.257,6.257,0,0,1-1.044.481" transform="translate(-1844.239 -544.52)"/><path class="d" d="M1907.522,550.136v8.911a6.281,6.281,0,0,1-3.14,5.439l-5.307,3.064" transform="translate(-1859.547 -522.098)"/><path class="d" d="M1891.662,503l8.772,5.064a6.35,6.35,0,0,1,.6.4" transform="translate(-1855.6 -497.004)"/><path class="d" d="M1842.311,495.552l7.861-4.538a6.283,6.283,0,0,1,6.281,0l5.312,3.067" transform="translate(-1829.325 -490.173)"/></g><path class="d" d="M1332.093,366.561h13.976a3.238,3.238,0,0,0,3.238-3.238h0v-5.972a4.186,4.186,0,0,1,4.186-4.186h14.6" transform="translate(-1297.701 -308.66)"/><line class="d" x2="17.081" transform="translate(201.201 109.59)"/><line class="d" x2="18.797" transform="translate(222.454 109.548)"/><line class="f" x2="3.74" y2="5.242" transform="translate(114.402 68.674)"/><line class="d" x2="9.918" y2="14.529" transform="translate(120.466 77.326)"/><line class="f" y2="3.796" transform="translate(193.31 47.77)"/><line class="f" x2="15.294" transform="translate(239.213 49.919)"/><line class="f" x2="9.555" y2="14.597" transform="translate(174.23 154.161)"/><line class="d" x1="10.503" y2="15.584" transform="translate(127.673 149.141)"/><path class="f" d="M1489.025,618.454h14.194a4.428,4.428,0,0,0,3.238-1.109" transform="translate(-1381.253 -449.313)"/><g transform="translate(136.811 107.543)"><path class="g" d="M1562.546,488.124a2.507,2.507,0,0,0-.449-.1,3.85,3.85,0,0,0-.583-.038,3.913,3.913,0,0,0-.6.038,2.546,2.546,0,0,0-.438.1,1.1,1.1,0,0,0-.766,1.058v5h-4.959v-5a1.1,1.1,0,0,0-.766-1.057,2.505,2.505,0,0,0-.449-.1,4.6,4.6,0,0,0-1.179,0,2.528,2.528,0,0,0-.459.106,1.1,1.1,0,0,0-.765,1.057v14a1.112,1.112,0,0,0,.182.618,1.124,1.124,0,0,0,.58.439,2.462,2.462,0,0,0,.461.107,4.608,4.608,0,0,0,1.179,0,2.444,2.444,0,0,0,.448-.1,1.1,1.1,0,0,0,.767-1.058v-5.63h4.959v5.63a1.1,1.1,0,0,0,.761,1.056,2.492,2.492,0,0,0,.443.106,3.909,3.909,0,0,0,.6.038,3.85,3.85,0,0,0,.583-.038,2.446,2.446,0,0,0,.448-.1,1.1,1.1,0,0,0,.767-1.058v-14a1.1,1.1,0,0,0-.766-1.057Z" transform="translate(-1551.129 -487.981)"/><path class="g" d="M1593.253,501.695a1.228,1.228,0,0,0-.411-.426,1.147,1.147,0,0,0-.6-.17H1587.3v-3.54h4.052a1.183,1.183,0,0,0,.564-.141,1.161,1.161,0,0,0,.456-.457,1.537,1.537,0,0,0,.17-.519,3.075,3.075,0,0,0,.033-.479,3.463,3.463,0,0,0-.031-.488,1.533,1.533,0,0,0-.171-.541,1.259,1.259,0,0,0-.383-.425,1.124,1.124,0,0,0-.637-.2H1587.3v-2.9h4.863a1.133,1.133,0,0,0,1.042-.67,1.818,1.818,0,0,0,.138-.451,2.819,2.819,0,0,0,.043-.508,2.924,2.924,0,0,0-.042-.528,1.959,1.959,0,0,0-.134-.448,1.13,1.13,0,0,0-1.047-.685h-6.919a1.643,1.643,0,0,0-1,.345,1.515,1.515,0,0,0-.563,1.283V502.76a1.511,1.511,0,0,0,.564,1.283,1.64,1.64,0,0,0,1,.345h7a1.155,1.155,0,0,0,.6-.169,1.2,1.2,0,0,0,.423-.451,1.566,1.566,0,0,0,.177-.54,3.231,3.231,0,0,0,.032-.479,3.416,3.416,0,0,0-.032-.5A1.531,1.531,0,0,0,1593.253,501.695Z" transform="translate(-1568.459 -488.058)"/><path class="g" d="M1618.625,501.6a1.238,1.238,0,0,0-.394-.449,1.14,1.14,0,0,0-.648-.2h-4.39V489.181a1.1,1.1,0,0,0-.765-1.057,2.515,2.515,0,0,0-.449-.1,4.6,4.6,0,0,0-1.179,0,2.518,2.518,0,0,0-.459.106,1.1,1.1,0,0,0-.765,1.057v13.5a1.512,1.512,0,0,0,.564,1.283,1.642,1.642,0,0,0,1,.345h6.447a1.136,1.136,0,0,0,.65-.2,1.207,1.207,0,0,0,.407-.491,1.788,1.788,0,0,0,.144-.493,3.411,3.411,0,0,0,.032-.5,3.541,3.541,0,0,0-.031-.5A1.608,1.608,0,0,0,1618.625,501.6Z" transform="translate(-1582.247 -487.981)"/><path class="g" d="M1644.281,491.463a4.544,4.544,0,0,0-2.078-2.531,5.072,5.072,0,0,0-1.446-.577,9.418,9.418,0,0,0-1.129-.185c-.313-.029-.644-.043-.983-.043h-3.122a1.672,1.672,0,0,0-1.059.379,1.579,1.579,0,0,0-.547,1.294v13.456a1.1,1.1,0,0,0,.762,1.056,2.41,2.41,0,0,0,.453.106,3.944,3.944,0,0,0,.594.038,4,4,0,0,0,.594-.037,2.292,2.292,0,0,0,.457-.11,1.154,1.154,0,0,0,.538-.389,1.094,1.094,0,0,0,.22-.664v-4.413h.817a7.979,7.979,0,0,0,2.6-.384,5.476,5.476,0,0,0,1.94-1.134,5.039,5.039,0,0,0,1.238-1.8,6.02,6.02,0,0,0,.423-2.291A5.524,5.524,0,0,0,1644.281,491.463Zm-6.746-.057h.952a6.065,6.065,0,0,1,.895.069,1.916,1.916,0,0,1,.709.263,1.485,1.485,0,0,1,.521.577,2.232,2.232,0,0,1,.226,1.08,2.692,2.692,0,0,1-.152.925,1.774,1.774,0,0,1-.406.656,1.9,1.9,0,0,1-.681.432,3.277,3.277,0,0,1-1.156.169h-.907Z" transform="translate(-1595.207 -488.058)"/></g><g transform="translate(79.722 150.714)"><path class="c" d="M1432.219,602.33a3.468,3.468,0,0,0-1.767.4,2.275,2.275,0,0,1-.732.21c-.327-.2-.254-.623-.108-.9a2.519,2.519,0,0,1,.586-.688,4,4,0,0,1,1.73-.748l-.051-.463a3.575,3.575,0,0,0-1.977.855,2.915,2.915,0,0,0-.7.818c-.283.631-.261,1.388.493,1.586a2.272,2.272,0,0,0,.935-.246c.534-.2,1.2-.554,1.717-.3Z" transform="translate(-1429.036 -590.867)"/><path class="h" d="M1435.505,592.3a19.662,19.662,0,0,0,1.376,3.81,11.728,11.728,0,0,0,2.238,3.252,4.125,4.125,0,0,0,2.81,1.34,7.693,7.693,0,0,0,4.15-1.55c.572-.381,1.076-.758,1.485-1.035a2.47,2.47,0,0,1,.855-.427,3.452,3.452,0,0,1,1.152.327c.445.187.909.421,1.309.579a.244.244,0,0,0,.307-.156.211.211,0,0,0,.011-.054,2.992,2.992,0,0,0-1.917-2.825,3.553,3.553,0,0,0-2.9.166c.526-1.127,1.122-2.341,1.637-3.571a11.329,11.329,0,0,0,1.094-3.969c0-4.752-3.565-7.88-6.953-7.88a7.131,7.131,0,0,0-7.185,7.4v.014a13.658,13.658,0,0,0,.058,1.861l.051.463c.07.568.161,1.146.29,1.724Z" transform="translate(-1432.193 -580.307)"/><path class="c" d="M1448.144,589a1.6,1.6,0,0,1,1.356-1.262c.62.012,1.034.672,1.26,1.253a6.826,6.826,0,0,1,.362,2.224.244.244,0,0,1-.269.216.241.241,0,0,1-.093-.029,2.43,2.43,0,0,0-1.26-.3,2.457,2.457,0,0,0-1.268.3.244.244,0,0,1-.329-.1.248.248,0,0,1-.026-.083A7.669,7.669,0,0,1,1448.144,589Z" transform="translate(-1439.066 -584.261)"/><path class="c" d="M1438.811,591.4a.244.244,0,0,1-.329-.1.248.248,0,0,1-.026-.083,7.672,7.672,0,0,1,.268-2.216,1.6,1.6,0,0,1,1.356-1.263c.619.012,1.034.671,1.263,1.253a6.842,6.842,0,0,1,.362,2.224.244.244,0,0,1-.362.187,2.776,2.776,0,0,0-2.532,0Z" transform="translate(-1434.05 -584.262)"/><path class="c" d="M1447.826,601.184a3.489,3.489,0,0,0-3.781-.3,4.209,4.209,0,0,0-1.283.949c-.3.351-.574.856-.058,1.122a2.446,2.446,0,0,0,.819-.043,2.942,2.942,0,0,1,2.274.224l-.29.362a2.579,2.579,0,0,0-1.9-.13,2.613,2.613,0,0,1-1.006.043c-1.01-.263-.627-1.341-.181-1.883a4.613,4.613,0,0,1,1.427-1.057,4.084,4.084,0,0,1,4.266.34Z" transform="translate(-1435.916 -590.807)"/></g><g transform="translate(80.751 36.504)"><circle class="e" cx="13.164" cy="13.164" r="13.164"/><path class="i" d="M0,0H26.328" transform="translate(0 13.164)"/><line class="e" x2="23.313" transform="translate(1.508 7.044)"/><line class="e" x2="23.038" transform="translate(1.508 19.284)"/><line class="e" y1="26.954" transform="translate(13.368 0.026)"/><ellipse class="e" cx="6.958" cy="13.151" rx="6.958" ry="13.151" transform="translate(6.305 0.026)"/></g><g transform="translate(209.007 173.15)"><rect class="e" width="13.053" height="10.108" transform="translate(0 8.668)"/><path class="e" d="M1713.4,628.291h0a5.024,5.024,0,0,1,5.024,5.024v3.59H1708.38v-3.59A5.024,5.024,0,0,1,1713.4,628.291Z" transform="translate(-1707.047 -628.291)"/><line class="b" y2="3.032" transform="translate(6.526 12.205)"/></g><g transform="translate(10.769 52.065)"><path class="j" d="M1296.165,370.624l-6.906-1.279a.647.647,0,0,0-.229,0l-6.946,1.279a.629.629,0,0,0-.514.619v8.187a5.945,5.945,0,0,0,1.208,3.586,9.279,9.279,0,0,0,2.559,2.291,14.686,14.686,0,0,0,3.647,1.633.627.627,0,0,0,.327,0,14.748,14.748,0,0,0,3.625-1.648,9.315,9.315,0,0,0,2.544-2.3,5.932,5.932,0,0,0,1.2-3.568v-8.183A.629.629,0,0,0,1296.165,370.624Zm-.366,8.882c0,1.954-1.119,3.662-3.325,5.077a15,15,0,0,1-3.276,1.531.162.162,0,0,1-.108,0q-6.639-2.268-6.639-6.607v-7.981a.167.167,0,0,1,.136-.165l6.528-1.2a.162.162,0,0,1,.06,0l6.487,1.2a.167.167,0,0,1,.136.165Z" transform="translate(-1281.57 -369.334)"/></g><g transform="translate(277.055 13.766)"><path d="M1854.241,309.45a3.467,3.467,0,0,0-1.767.4,2.265,2.265,0,0,1-.732.21c-.327-.2-.254-.623-.108-.9a2.513,2.513,0,0,1,.586-.688,4,4,0,0,1,1.73-.748l-.051-.463a3.573,3.573,0,0,0-1.977.855,2.913,2.913,0,0,0-.7.818c-.283.631-.261,1.388.493,1.587a2.273,2.273,0,0,0,.935-.246c.534-.2,1.2-.554,1.716-.3Z" transform="translate(-1851.059 -297.987)"/><path class="k" d="M1857.528,299.419a19.652,19.652,0,0,0,1.376,3.81,11.708,11.708,0,0,0,2.238,3.252,4.125,4.125,0,0,0,2.81,1.34,7.7,7.7,0,0,0,4.15-1.55c.572-.381,1.075-.758,1.484-1.035a2.47,2.47,0,0,1,.855-.427,3.452,3.452,0,0,1,1.152.327c.445.187.91.421,1.309.579a.243.243,0,0,0,.307-.156.257.257,0,0,0,.011-.054,2.994,2.994,0,0,0-1.917-2.825,3.555,3.555,0,0,0-2.9.166c.527-1.127,1.122-2.341,1.637-3.571a11.328,11.328,0,0,0,1.094-3.969c0-4.752-3.565-7.88-6.953-7.88a7.131,7.131,0,0,0-7.185,7.4v.014a13.556,13.556,0,0,0,.058,1.861l.051.463c.07.568.161,1.146.29,1.724Z" transform="translate(-1854.216 -287.427)"/><path d="M1870.167,296.116a1.605,1.605,0,0,1,1.356-1.262c.619.012,1.034.671,1.26,1.253a6.829,6.829,0,0,1,.363,2.224.245.245,0,0,1-.27.217.251.251,0,0,1-.093-.03,2.43,2.43,0,0,0-1.26-.3,2.458,2.458,0,0,0-1.268.3.244.244,0,0,1-.329-.1.24.24,0,0,1-.026-.083A7.666,7.666,0,0,1,1870.167,296.116Z" transform="translate(-1861.089 -291.381)"/><path d="M1860.834,298.521a.244.244,0,0,1-.355-.187,7.647,7.647,0,0,1,.268-2.216,1.6,1.6,0,0,1,1.356-1.262c.619.012,1.034.671,1.263,1.253a6.848,6.848,0,0,1,.362,2.224.244.244,0,0,1-.362.187,2.777,2.777,0,0,0-2.532,0Z" transform="translate(-1856.073 -291.382)"/><path d="M1869.849,308.3a3.489,3.489,0,0,0-3.781-.3,4.2,4.2,0,0,0-1.283.949c-.3.351-.574.856-.058,1.122a2.448,2.448,0,0,0,.819-.043,2.942,2.942,0,0,1,2.274.224l-.29.362a2.58,2.58,0,0,0-1.905-.13,2.6,2.6,0,0,1-1.006.043c-1.01-.263-.627-1.341-.181-1.883a4.615,4.615,0,0,1,1.427-1.057,4.084,4.084,0,0,1,4.266.34Z" transform="translate(-1857.939 -297.926)"/></g><g transform="translate(14.196 58.408)"><path class="j" d="M1291.987,387.839a.731.731,0,0,1-.464-.165l-2.434-1.991a.514.514,0,0,1,.651-.8l2.248,1.839,4.584-3.711a.514.514,0,0,1,.647.8l-4.771,3.862A.73.73,0,0,1,1291.987,387.839Z" transform="translate(-1288.9 -382.9)"/></g><path class="l" d="M1884.362,555.711l-.015-.015a.3.3,0,0,0-.427,0l-3.765,3.874c-.005,0-.013,0-.015,0l-1.766-1.818a.312.312,0,1,0-.448.434l2,2.061a.3.3,0,0,0,.194.089h.044a.305.305,0,0,0,.2-.089l4-4.118A.3.3,0,0,0,1884.362,555.711Z" transform="translate(-1588.642 -417.582)"/><g transform="translate(276.821 126.32)"><path class="m" d="M1859.635,556.187a.444.444,0,1,0,0,.887h5.763a.444.444,0,0,0,0-.887Z" transform="translate(-1855.155 -543.072)"/><path class="m" d="M1867.839,547.26a.445.445,0,0,0-.444-.444h-7.76a.444.444,0,0,0,0,.888h7.76A.445.445,0,0,0,1867.839,547.26Z" transform="translate(-1855.155 -538.082)"/><path class="m" d="M1867.4,537.445h-7.76a.444.444,0,0,0,0,.888h7.76a.444.444,0,0,0,0-.888Z" transform="translate(-1855.155 -533.093)"/><path class="m" d="M1866.214,546.606h-14.7a.269.269,0,0,1-.269-.268V529.1a.269.269,0,0,1,.269-.268h14.8a.269.269,0,0,1,.268.268v9.237a.345.345,0,1,0,.691,0V529.1a.96.96,0,0,0-.959-.959h-14.8a.96.96,0,0,0-.959.959v17.241a.96.96,0,0,0,.959.959h14.7a.345.345,0,0,0,0-.691Z" transform="translate(-1850.559 -528.138)"/></g></g><g class="n" transform="translate(10.685 108)"><g class="o" transform="translate(211.18 -15.165)"><g transform="translate(193.995 110.23)"><path class="f" d="M931.22-360.38l-45.353-26.185a9.634,9.634,0,0,1-4.817-8.343v-52.37a9.635,9.635,0,0,1,4.817-8.344l45.353-26.185a9.635,9.635,0,0,1,9.634,0l45.354,26.185a9.635,9.635,0,0,1,4.817,8.344v52.37a9.634,9.634,0,0,1-4.817,8.343L940.854-360.38A9.635,9.635,0,0,1,931.22-360.38Z" transform="translate(-874.82 488.686)"/><line class="f" y1="6.721" transform="translate(0 39.151)"/><line class="f" y1="31.078" transform="translate(0 52.122)"/><line class="f" x1="5.582" y1="3.223" transform="translate(6.392 106.529)"/><line class="f" x1="27.465" y1="15.857" transform="translate(17.184 112.759)"/><line class="f" x1="5.393" y2="3.114" transform="translate(67.97 131.474)"/><line class="f" x1="27.281" y2="15.751" transform="translate(78.911 112.521)"/><line class="f" y2="6.378" transform="translate(122.963 89.236)"/><line class="f" y2="31.421" transform="translate(122.963 51.009)"/><line class="f" x2="5.596" y2="3.231" transform="translate(111.023 24.952)"/><line class="f" x2="27.305" y2="15.764" transform="translate(78.205 6.005)"/><line class="p" y1="3.143" x2="5.444" transform="translate(49.714)"/><line class="f" y1="15.629" x2="27.07" transform="translate(16.814 6.51)"/></g><path class="f" d="M1121.836-572.841,1098.353-586.4a9.633,9.633,0,0,1-4.817-8.343v-27.116a9.633,9.633,0,0,1,4.817-8.343l23.483-13.558a9.632,9.632,0,0,1,9.634,0l23.483,13.558a9.634,9.634,0,0,1,4.817,8.343v27.116a9.634,9.634,0,0,1-4.817,8.343l-23.483,13.558A9.635,9.635,0,0,1,1121.836-572.841Z" transform="translate(-784.161 677.675)"/><path class="f" d="M1170.854-501.2l-4.365,2.52a9.77,9.77,0,0,1-.945.479" transform="translate(-819.179 607.718)"/><path class="f" d="M1208.226-539.016a9.636,9.636,0,0,1-4.535,6.029l-18.342,10.59" transform="translate(-828.81 626.109)"/><line class="f" y2="5.972" transform="translate(379.697 59.186)"/><path class="f" d="M1190.822-638.194l15.53,8.967a9.633,9.633,0,0,1,4.817,8.343" transform="translate(-831.472 674.341)"/><path class="f" d="M1141.4-649.955l3.716-2.146q.374-.216.762-.4" transform="translate(-807.435 681.296)"/><path class="f" d="M1086.423-625.423a9.634,9.634,0,0,1,4.384-5.485l18.606-10.743" transform="translate(-780.701 676.022)"/><path class="f" d="M1006.642-519.884l19.545-35.019a9.633,9.633,0,0,1,8.272-4.938l12.461-.181" transform="translate(-741.903 636.325)"/><path class="f" d="M1291.57-590l-4.505,9.978c-1.134,2.511-3.088,3.938-5.127,3.743l-1.62-.154" transform="translate(-867.294 650.901)"/><path class="f" d="M1295.855-367.945l-6.158-9.922a9.634,9.634,0,0,0-8.492-4.549l-5.815.087" transform="translate(-872.599 549.955)"/><path class="f" d="M1120.52-160.623,1102.541-171a9.634,9.634,0,0,1-4.817-8.343v-20.761a9.633,9.633,0,0,1,4.817-8.343l17.979-10.381a9.635,9.635,0,0,1,9.634,0l17.98,10.381a9.633,9.633,0,0,1,4.817,8.343v20.761a9.634,9.634,0,0,1-4.817,8.343l-17.98,10.381A9.635,9.635,0,0,1,1120.52-160.623Z" transform="translate(-786.197 471.027)"/><path class="f" d="M1102.125-137.645l-6.434-3.714a9.636,9.636,0,0,1-4.817-8.344v-13.639" transform="translate(-782.866 443.415)"/><path class="f" d="M1163.486-100.947l-4.058,2.343a9.643,9.643,0,0,1-1.509.7" transform="translate(-815.471 413.07)"/><path class="f" d="M1197.046-151.51v7.561a9.635,9.635,0,0,1-4.817,8.344l-11.067,6.389" transform="translate(-826.774 437.66)"/><path class="f" d="M1195.024-205.792l3.946,2.278a9.644,9.644,0,0,1,1.576,1.136" transform="translate(-833.516 464.058)"/><path class="f" d="M522.766-526l-19.514-11.266a9.634,9.634,0,0,1-4.817-8.343v-22.533a9.634,9.634,0,0,1,4.817-8.343l19.514-11.266a9.634,9.634,0,0,1,9.634,0l19.513,11.266a9.634,9.634,0,0,1,4.817,8.343v22.533a9.634,9.634,0,0,1-4.817,8.343L532.4-526A9.635,9.635,0,0,1,522.766-526Z" transform="translate(-494.755 650.438)"/><g transform="translate(0 57.145)"><path class="f" d="M491.271-548.956v-5.085a9.6,9.6,0,0,1,.14-1.635" transform="translate(-491.271 577.066)"/><path class="f" d="M503.131-502.165l-7.043-4.066a9.635,9.635,0,0,1-4.817-8.343v-15.019" transform="translate(-491.271 564.381)"/><line class="f" x1="4.754" y2="2.745" transform="translate(37.645 68.796)"/><path class="f" d="M602.4-500.356a9.649,9.649,0,0,1-.138,1.626,9.637,9.637,0,0,1-4.679,6.717l-12.805,7.393" transform="translate(-536.745 550.163)"/><path class="f" d="M601.06-573.727l4.441,2.564a9.69,9.69,0,0,1,1.139.771" transform="translate(-544.663 585.844)"/><path class="f" d="M532.161-591.98l7.006-4.045a9.634,9.634,0,0,1,9.634,0l12.77,7.372" transform="translate(-511.156 597.316)"/></g><path class="f" d="M746.694-228.043,728.651-238.46a9.633,9.633,0,0,1-4.817-8.343v-20.834a9.634,9.634,0,0,1,4.817-8.343L746.694-286.4a9.635,9.635,0,0,1,9.634,0l18.043,10.417a9.634,9.634,0,0,1,4.817,8.343V-246.8a9.633,9.633,0,0,1-4.817,8.343l-18.043,10.417A9.635,9.635,0,0,1,746.694-228.043Z" transform="translate(-604.37 503.885)"/><path class="f" d="M811.517-197.36a9.633,9.633,0,0,1-4.137,4.788l-21.566,12.451a9.643,9.643,0,0,1-1.609.741" transform="translate(-633.729 459.957)"/><path class="f" d="M821.241-273.667l4.15,2.4a9.634,9.634,0,0,1,4.817,8.343v21.446" transform="translate(-651.74 497.066)"/><path class="f" d="M719.27-277.557a9.637,9.637,0,0,1,2.5-3.1,9.645,9.645,0,0,1,1.263-.87L744.6-293.974a9.689,9.689,0,0,1,1.7-.774" transform="translate(-602.15 507.318)"/><path class="f" d="M725.973-213.514l-3.934-2.272a9.635,9.635,0,0,1-4.817-8.344v-20.964" transform="translate(-601.154 483.171)"/><path class="f" d="M750.674-557.748,724.223-573.02a9.633,9.633,0,0,1-4.817-8.343v-30.543a9.635,9.635,0,0,1,4.817-8.344l26.451-15.271a9.632,9.632,0,0,1,9.634,0l26.452,15.271a9.635,9.635,0,0,1,4.817,8.344v30.543a9.633,9.633,0,0,1-4.817,8.343l-26.452,15.272A9.635,9.635,0,0,1,750.674-557.748Z" transform="translate(-602.216 673.669)"/><line class="f" y1="6.357" transform="translate(112.738 81.339)"/><path class="f" d="M732.987-505.458l-17.432-10.064a9.634,9.634,0,0,1-4.817-8.343" transform="translate(-598.001 618.741)"/><line class="f" x1="5.066" y2="2.925" transform="translate(158.092 118.136)"/><line class="f" y2="6.228" transform="translate(193.813 66.313)"/><path class="f" d="M825.669-628.929l17.22,9.942a9.634,9.634,0,0,1,4.817,8.343v.893" transform="translate(-653.893 669.835)"/><line class="f" y1="2.742" x2="4.749" transform="translate(143.709 33.006)"/><path class="f" d="M711.649-615.615A9.631,9.631,0,0,1,716-620.993l20.892-12.062" transform="translate(-598.444 671.841)"/><path class="f" d="M1332.34-636.579,1312.725-647.9a9.634,9.634,0,0,1-4.817-8.343V-678.9a9.635,9.635,0,0,1,4.817-8.344l19.615-11.324a9.635,9.635,0,0,1,9.634,0l19.615,11.324a9.634,9.634,0,0,1,4.817,8.344v22.649a9.634,9.634,0,0,1-4.817,8.343l-19.615,11.324A9.632,9.632,0,0,1,1332.34-636.579Z" transform="translate(-888.413 704.327)"/><path class="f" d="M1329.118-699.519l13.426-7.751a9.637,9.637,0,0,1,8.487-.565" transform="translate(-898.727 708.561)"/><path class="f" d="M1300.6-641.283v-23.154q0-.409.034-.813" transform="translate(-884.86 687.499)"/><path class="f" d="M1319.141-593.752l-13.606-7.856a9.633,9.633,0,0,1-4.7-6.822" transform="translate(-884.974 659.866)"/><path class="f" d="M1393.031-591.61,1372.923-580a9.651,9.651,0,0,1-1.148.565" transform="translate(-919.472 651.686)"/><path class="f" d="M1424.1-641.676v15.557a9.633,9.633,0,0,1-4.817,8.343" transform="translate(-942.575 676.034)"/><path class="f" d="M1380.022-702.577l20.167,11.644a9.683,9.683,0,0,1,1.063.711" transform="translate(-923.482 705.651)"/><path class="f" d="M1320.684-303.176l-23.475-13.554a9.633,9.633,0,0,1-4.817-8.343V-352.18a9.634,9.634,0,0,1,4.817-8.343l23.475-13.554a9.635,9.635,0,0,1,9.634,0l23.475,13.554a9.634,9.634,0,0,1,4.817,8.343v27.107a9.633,9.633,0,0,1-4.817,8.343l-23.475,13.554A9.632,9.632,0,0,1,1320.684-303.176Z" transform="translate(-880.866 546.525)"/><path class="f" d="M1416.463-300.676v13.667a9.636,9.636,0,0,1-4.817,8.343l-8.139,4.7" transform="translate(-934.903 510.201)"/><path class="f" d="M1393.159-366.481l13.455,7.768a9.675,9.675,0,0,1,.924.607" transform="translate(-929.871 542.203)"/><path class="f" d="M1324.258-376.143l12.057-6.961a9.635,9.635,0,0,1,9.634,0l8.147,4.7" transform="translate(-896.364 550.915)"/><path class="f" d="M611.92-555.129h21.436a4.966,4.966,0,0,0,4.966-4.966v-9.161a6.421,6.421,0,0,1,6.421-6.421h22.391" transform="translate(-549.944 643.937)"/><line class="f" x2="26.198" transform="translate(317.824 168.088)"/><line class="f" x2="28.831" transform="translate(350.422 168.024)"/><path class="q" d="M43.311,63.448" transform="translate(165.896 77.44)"/><line class="f" y2="5.822" transform="translate(305.722 73.27)"/><line class="f" x2="14.655" y2="22.389" transform="translate(276.457 236.451)"/><line class="f" x1="16.109" y2="23.903" transform="translate(205.049 228.75)"/><path class="f" d="M831.02-205.142h21.77s3.253.226,4.966-1.7" transform="translate(-656.495 464.569)"/></g></g></g><path class="r" d="M26.291,31.01H19.715V33.2h-1.49V31.01H14.861V29.643h3.363V26.922h1.49v2.721h6.576Zm-12.742,0H10.076v2.133H8.627V31.01h-6.7V29.643h6.7V26.922h1.449v2.721h3.473Zm-1.367,3.2a19.893,19.893,0,0,1-3.787,3.582,13.239,13.239,0,0,1,1.928,7.383q0,3.6-1.06,5t-5.312,1.2l-.506-1.477a15.86,15.86,0,0,0,1.682.082,5.485,5.485,0,0,0,2.6-.437A2.319,2.319,0,0,0,8.7,47.854a15.257,15.257,0,0,0,.232-2.789,12.854,12.854,0,0,0-.219-2.434,22.2,22.2,0,0,1-5.934,4.238l-.848-1.176A21.057,21.057,0,0,0,8.34,41.045a8.972,8.972,0,0,0-1.094-2.406,37.84,37.84,0,0,1-4.389,2.379l-.779-1.244A40.136,40.136,0,0,0,6.385,37.49a11.527,11.527,0,0,0-3.2-2.447l.82-1.094a10.626,10.626,0,0,1,3.5,2.721,18.365,18.365,0,0,0,3.5-3.336ZM26.428,50.273l-.971,1.244a14.087,14.087,0,0,1-7.205-9.447,13.917,13.917,0,0,1-7.164,9.5l-.93-1.23a12.516,12.516,0,0,0,6.863-10.2H11.307V38.693h5.824q.15-2.57.15-4.826l1.477.027q0,2.83-.137,4.8h7.246v1.449H19.209Q20.535,47.43,26.428,50.273ZM24.582,36.7l-.889,1.066a19.959,19.959,0,0,0-3.623-2.324l.82-1.121A17.01,17.01,0,0,1,24.582,36.7Zm32.307-7.15a.193.193,0,0,1-.219.219q-.041,0-.287-.014-.875-.027-1.9-.041v19l.055,2.994a.193.193,0,0,1-.219.219h-1.3a.193.193,0,0,1-.219-.219l.055-2.994V45.857A74.164,74.164,0,0,1,45.5,48.086a2.774,2.774,0,0,0-1.094.424.51.51,0,0,1-.369.164q-.15,0-.273-.3a16.95,16.95,0,0,1-.479-1.627q1.2-.15,2.3-.4l.561-.109V29.711q-.971.014-1.723.041l-.52.014a.193.193,0,0,1-.219-.219V28.412q0-.246.219-.246l3.555.055H53.1l3.568-.055q.219,0,.219.246ZM52.855,44.313v-3.5H47.77V45.83Q50.641,45.092,52.855,44.313Zm0-10.5v-4.1H47.77v4.1Zm0,5.551v-4.1H47.77v4.1Zm16.5,10.678a3.746,3.746,0,0,0-.984,1q-.205.342-.342.342a.851.851,0,0,1-.41-.246A26.379,26.379,0,0,1,62.576,45.8a26.67,26.67,0,0,1-6.016,5.5,1,1,0,0,1-.451.219q-.137,0-.369-.4a3.044,3.044,0,0,0-.807-.889,21.433,21.433,0,0,0,6.631-5.961A28.567,28.567,0,0,1,57.873,32.76q-.807.014-1.436.041L56,32.814q-.232,0-.232-.219V31.379q0-.191.232-.191l3.35.055h6.508a1.379,1.379,0,0,0,.615-.082.546.546,0,0,1,.328-.109q.232,0,.82.588.506.506.506.793,0,.109-.287.438a2.5,2.5,0,0,0-.328,1.066,26.764,26.764,0,0,1-3.924,10.473A24.294,24.294,0,0,0,69.357,50.041ZM65.912,32.76H59.5a26.641,26.641,0,0,0,3.076,10.049A24.591,24.591,0,0,0,65.912,32.76Zm45.1,5.113a7.271,7.271,0,0,0-.807,1.2q-.246.451-.4.451a1.018,1.018,0,0,1-.41-.164A27.081,27.081,0,0,1,97.945,29.082,29.645,29.645,0,0,1,86.885,39.76a1.1,1.1,0,0,1-.424.164q-.178,0-.424-.4a4.1,4.1,0,0,0-.861-.984,26.963,26.963,0,0,0,7.014-4.908A22.8,22.8,0,0,0,96.4,28.221a7.6,7.6,0,0,0,.725-1.764,10.654,10.654,0,0,1,1.736.355q.424.123.424.342,0,.15-.219.3a.63.63,0,0,0-.26.205,26.64,26.64,0,0,0,5.633,6.4A26.854,26.854,0,0,0,111.016,37.873ZM99.053,35.467a1.5,1.5,0,0,1-.109.479,16.261,16.261,0,0,0-.164,3.172v8.654l.027,3.883q0,.205-.191.205h-1.49q-.219,0-.219-.205l.055-3.883V39.117a29.487,29.487,0,0,0-.191-4.061,16.44,16.44,0,0,1,1.982.164Q99.053,35.275,99.053,35.467Zm53.635,15.094q0,.246-.219.246l-3.924-.055h-9.324l-3.924.055q-.219,0-.219-.246V49.371a.193.193,0,0,1,.219-.219l3.924.055h4.061V42.412h-2.133l-3.609.055a.193.193,0,0,1-.219-.219V41.1q0-.232.219-.232l3.609.055h2.133V34.975h-4.43a24.688,24.688,0,0,1-1.982,3.992q-.246.369-.342.369a.8.8,0,0,1-.355-.164,3.407,3.407,0,0,0-1.121-.451,19.982,19.982,0,0,0,2.3-4.293,21.2,21.2,0,0,0,1.23-4.02,9.29,9.29,0,0,0,.109-1.49,9.743,9.743,0,0,1,1.654.451q.342.137.342.3a.667.667,0,0,1-.164.369,2.077,2.077,0,0,0-.342.807,26.08,26.08,0,0,1-.793,2.639h3.9V30.572a27.033,27.033,0,0,0-.219-3.842,14.588,14.588,0,0,1,1.846.178q.342.041.342.219a2.4,2.4,0,0,1-.109.506,13.33,13.33,0,0,0-.205,2.885v2.967H147.9l3.582-.055q.232,0,.232.219v1.162q0,.219-.232.219l-3.582-.055h-2.967v5.947h2.105l3.582-.055q.219,0,.219.232v1.148a.193.193,0,0,1-.219.219l-3.582-.055h-2.105v6.795h3.609l3.924-.055a.193.193,0,0,1,.219.219ZM133.014,27.127a4.884,4.884,0,0,1-.109.506,11.377,11.377,0,0,0-.205,2.885V46.773l.055,4.936a.193.193,0,0,1-.219.219h-1.326a.193.193,0,0,1-.219-.219l.055-4.895V30.572a23.484,23.484,0,0,0-.219-3.814,12.127,12.127,0,0,1,1.846.137Q133.014,26.949,133.014,27.127Zm-3.09,6.125a20.278,20.278,0,0,1-1.23,5.742q-.055.123-.15.123a.722.722,0,0,1-.246-.068l-.7-.246q-.369-.123-.369-.232a.63.63,0,0,1,.055-.219,18.414,18.414,0,0,0,1.176-5.51q.027-.178.137-.178a1.551,1.551,0,0,1,.287.055l.725.232q.314.082.314.219Zm5.961,2.857a.615.615,0,0,1,.027.123q0,.137-.3.246l-.615.246a1.321,1.321,0,0,1-.342.1q-.123,0-.137-.178a24.652,24.652,0,0,0-1.012-3.869.315.315,0,0,1-.041-.123q0-.1.355-.232l.561-.232a.63.63,0,0,1,.219-.055q.123,0,.164.15A28.837,28.837,0,0,1,135.885,36.109ZM194.059,46.1a10.965,10.965,0,0,1-.6,2.857,2.81,2.81,0,0,1-1,1.313q-1.258.93-4.594.93a17.367,17.367,0,0,1-4.607-.369q-1.654-.6-1.654-2.939V30.545a20.319,20.319,0,0,0-.178-3.145,16.51,16.51,0,0,1,1.859.178q.369.041.369.246a1.345,1.345,0,0,1-.15.506,7.359,7.359,0,0,0-.164,2.119V38.6a34.307,34.307,0,0,0,6.631-5.318,6.77,6.77,0,0,0,1.094-1.477,9.61,9.61,0,0,1,1.449,1.121.586.586,0,0,1,.26.41q0,.246-.424.4a6.166,6.166,0,0,0-1.449,1.176,47.349,47.349,0,0,1-7.561,5.633v6.713a3.378,3.378,0,0,0,.246,1.531,1.363,1.363,0,0,0,.848.574,18.329,18.329,0,0,0,3.5.191,5.513,5.513,0,0,0,3.4-.752q.875-.752,1.066-4.143a4.748,4.748,0,0,0,1.244.725q.451.178.451.4A2.517,2.517,0,0,1,194.059,46.1ZM178.951,28.166q0,.191-.26.355a2.955,2.955,0,0,0-.643,1.066,39.41,39.41,0,0,1-2.037,3.979V47.361l.055,4.348q0,.219-.232.219h-1.34q-.246,0-.246-.219l.055-4.348V40.279q0-.684.027-2.16.055-1.846.055-2.092a32.9,32.9,0,0,1-3.732,4.4q-.273.273-.383.273-.178,0-.342-.369a3.451,3.451,0,0,0-.725-1.053,28.034,28.034,0,0,0,7.232-10.254,7.081,7.081,0,0,0,.492-1.846,9.757,9.757,0,0,1,1.709.643Q178.951,27.975,178.951,28.166ZM233.393,45.68v.793l.027,1.928a2.013,2.013,0,0,1-.615,1.682,5.311,5.311,0,0,1-2.816.479h-.547a.854.854,0,0,1-.492-.082,1.414,1.414,0,0,1-.123-.451,2.585,2.585,0,0,0-.424-1.121q1.545.137,2.379.137a.908.908,0,0,0,.766-.26,1.254,1.254,0,0,0,.164-.752V44.422h-7.082v4.4l.055,3.158a.218.218,0,0,1-.246.246h-1.3a.218.218,0,0,1-.246-.246l.055-3.158v-4.4h-6.412v3.719l.055,2.188q0,.26-.246.26h-1.3q-.246,0-.246-.26l.055-2.242v-2.6l-.055-2.3a.218.218,0,0,1,.246-.246l4.033.055h3.869v-.533a11.758,11.758,0,0,0-.191-2.3q.67.027,1.818.137.3.055.3.26a1.816,1.816,0,0,1-.137.506,5.466,5.466,0,0,0-.109,1.34V43h4.539l4.033-.055a.218.218,0,0,1,.246.246Zm-5.154-4.033h-1.189q-.246,0-.246-.26l.055-3.24V31.01L226.8,27.7a.218.218,0,0,1,.246-.246l2.475.055h4.252a2.437,2.437,0,0,0,.779-.082.633.633,0,0,1,.26-.055q.246,0,.7.451.561.479.561.7t-.369.41a7.21,7.21,0,0,0-.834.9,29.374,29.374,0,0,1-2.639,2.912,10.228,10.228,0,0,1,3.309,2.365,2.86,2.86,0,0,1,.67,1.832,2.6,2.6,0,0,1-1.586,2.6,8.713,8.713,0,0,1-3.391.506.661.661,0,0,1-.465-.123.97.97,0,0,1-.178-.41,2.355,2.355,0,0,0-.506-1h1.162a7.426,7.426,0,0,0,2.6-.3,1.283,1.283,0,0,0,.766-1.271q0-1.8-4.607-3.924a22.469,22.469,0,0,0,3.855-4.17H228.43v9.133l.055,3.4Q228.484,41.646,228.238,41.646ZM217.82,29.26a16.585,16.585,0,0,0-.205-2.693,17.888,17.888,0,0,1,1.791.164q.369.055.369.26a.943.943,0,0,1-.137.451,4.875,4.875,0,0,0-.164,1.736v.082h1.613l3.473-.055q.26,0,.26.246v.916a.23.23,0,0,1-.26.26l-3.473-.055h-1.613v.643q0,.916-.027,1.395h1.176l3.213-.055q.26,0,.26.246v.957q0,.246-.26.246l-3.213-.055h-1.271a12.7,12.7,0,0,1-.41,2.16h2.434l3.582-.055a.218.218,0,0,1,.246.246v.957a.218.218,0,0,1-.246.246l-3.582-.055H218.49l-.314.643a10.057,10.057,0,0,1-2.187,3.008,16.8,16.8,0,0,1-2.68,1.955.79.79,0,0,1-.369.164q-.109,0-.383-.369a3.025,3.025,0,0,0-1.012-.834,11.16,11.16,0,0,0,5.018-4.293,1.912,1.912,0,0,0,.137-.273h-1.176l-3.582.055q-.26,0-.26-.246V36.3q0-.246.26-.246l3.582.055h1.736a13.533,13.533,0,0,0,.424-2.16h-1.326L213.145,34q-.26,0-.26-.246V32.8q0-.246.26-.246l3.213.055h1.436q.027-.451.027-1.395v-.643h-1.941l-3.473.055q-.246,0-.246-.26v-.916a.218.218,0,0,1,.246-.246l3.473.055ZM265.4,44.572a5.2,5.2,0,0,0-.068.943q.014.191.014.273a.393.393,0,0,1-.109.328,1.748,1.748,0,0,1-.41.191q-4.7,1.682-9.6,2.967a2.839,2.839,0,0,0-1.121.424.576.576,0,0,1-.314.191.336.336,0,0,1-.328-.246q-.205-.52-.533-1.723,1.34-.15,2.57-.41V33.484l-.055-4.32a.193.193,0,0,1,.219-.219L258.33,29h2.721l2.666-.055a.193.193,0,0,1,.219.219l-.055,3.924V45.105Q264.893,44.764,265.4,44.572Zm-3.117,1.066V41.852h-5.154v5.264Q259.629,46.5,262.281,45.639Zm0-5.209V36.164h-5.154V40.43Zm0-5.715V30.49h-5.154v4.225Zm15.148-1.08q-.055.848-.055,2.475a94.9,94.9,0,0,1-.807,12.346,3.475,3.475,0,0,1-1.107,2.27,3.07,3.07,0,0,1-1.928.533q-.807,0-2.037-.055a.933.933,0,0,1-.52-.137,1.224,1.224,0,0,1-.123-.479,3.541,3.541,0,0,0-.4-1.23,20.8,20.8,0,0,0,2.885.246,1.316,1.316,0,0,0,1.107-.41,3.39,3.39,0,0,0,.52-1.49,90.439,90.439,0,0,0,.725-12.715h-4.279a34.414,34.414,0,0,1-1.258,7.793,16.7,16.7,0,0,1-6.412,8.9,1.049,1.049,0,0,1-.424.219,1.1,1.1,0,0,1-.424-.273,4.518,4.518,0,0,0-1.176-.766,15.031,15.031,0,0,0,6.918-8.668,33.393,33.393,0,0,0,1.094-7.205h-.7l-3.363.055q-.232,0-.232-.191v-1.23a.205.205,0,0,1,.232-.232l3.363.055h.779q.055-2.174.055-3.213a22.85,22.85,0,0,0-.191-3.418,10.915,10.915,0,0,1,1.9.164q.3.1.3.287a2.391,2.391,0,0,1-.137.561,10.282,10.282,0,0,0-.191,2.6q0,1.025-.055,3.021h2.3l3.391-.055A.218.218,0,0,1,277.43,33.635Z" transform="translate(20.685 283)"/><path class="c" d="M26.879-12.428a.193.193,0,0,1-.219.219l-3.391-.055h-.137v9.885l.055,4.17a.193.193,0,0,1-.219.219H21.588a.193.193,0,0,1-.219-.219l.055-4.17v-9.885h-4.17a35.531,35.531,0,0,1-.7,8.2A14.288,14.288,0,0,1,13.7,1.477q-.232.314-.4.314a.646.646,0,0,1-.369-.219A2.933,2.933,0,0,0,11.881.93a12.8,12.8,0,0,0,3.186-5.879,38.285,38.285,0,0,0,.561-7.875V-16.27a35.462,35.462,0,0,0-.191-3.951,9.552,9.552,0,0,1,1.818.561,25.828,25.828,0,0,0,5.564-2.187,6.83,6.83,0,0,0,1.408-1.012,8.62,8.62,0,0,1,1.23,1.271.63.63,0,0,1,.164.383q0,.205-.369.26a3.146,3.146,0,0,0-1.025.328,36.33,36.33,0,0,1-6.973,2.529v4.307H23.27l3.391-.055a.193.193,0,0,1,.219.219ZM13.863-7.752q0,.219-.232.219l-3.377-.055H9.379a9.951,9.951,0,0,0,1.928,2.105,17.771,17.771,0,0,0,2.215,1.477,3.1,3.1,0,0,0-.67.984q-.164.328-.246.328-.109,0-.4-.246A12.678,12.678,0,0,1,8.791-6.686Q8.818-4.047,8.914-1q.068,2.215.068,2.652,0,.219-.246.219H7.479q-.232,0-.232-.219,0-.615.055-3.076.082-2.9.123-4.936A17.814,17.814,0,0,1,2.652-.588a.975.975,0,0,1-.41.219q-.109,0-.287-.328A3.053,3.053,0,0,0,1.2-1.736,17.417,17.417,0,0,0,6.809-7.588H5.373l-3.418.055a.193.193,0,0,1-.219-.219V-8.873q0-.232.219-.232l3.418.055H7.342v-.055a13.232,13.232,0,0,0-.178-2.625q.875.041,1.709.137.287.055.287.232a.881.881,0,0,1-.109.383A6.448,6.448,0,0,0,8.9-9.105v.055h1.354l3.377-.055a.205.205,0,0,1,.232.232Zm.479-4.7q0,.219-.232.219l-3.473-.055h-5.4l-3.473.055a.193.193,0,0,1-.219-.219v-1.162a.193.193,0,0,1,.219-.219l3.473.055H8.928a22.741,22.741,0,0,0,1.285-3.186,5.037,5.037,0,0,0,.26-1.217q.943.219,1.5.4.342.109.342.342a.523.523,0,0,1-.191.328,2.023,2.023,0,0,0-.424.643,29.191,29.191,0,0,1-1.23,2.693h.164l3.473-.055q.232,0,.232.219Zm-.451-6.6q0,.219-.232.219l-3.322-.055H5.688l-3.336.055a.193.193,0,0,1-.219-.219v-1.094q0-.232.219-.232l3.336.068H7.3v-.875a8.143,8.143,0,0,0-.191-2.01,16.443,16.443,0,0,1,1.818.137q.369.041.369.219a1.261,1.261,0,0,1-.164.506,2.742,2.742,0,0,0-.15,1.148v.875h1.354l3.322-.068a.205.205,0,0,1,.232.232ZM6.713-15.176a.45.45,0,0,1,.027.137q0,.15-.273.26l-.7.287a1.4,1.4,0,0,1-.314.068q-.15,0-.191-.219A13.76,13.76,0,0,0,4.2-17.432a.42.42,0,0,1-.055-.164q0-.109.342-.232l.643-.232A.535.535,0,0,1,5.3-18.1q.109,0,.205.164A11.829,11.829,0,0,1,6.713-15.176ZM67.977-6.959q0,.219-.232.219l-3.691-.055H56.971v1.873l.055,3.555A2.453,2.453,0,0,1,56.3.643q-.725.615-3.883.615h-.6a.834.834,0,0,1-.533-.109A1.063,1.063,0,0,1,51.092.67,4.437,4.437,0,0,0,50.586-.7a28.147,28.147,0,0,0,3.131.164,1.716,1.716,0,0,0,1.258-.342,1.419,1.419,0,0,0,.232-.916v-5h-7.4l-3.691.055a.193.193,0,0,1-.219-.219v-1.3a.193.193,0,0,1,.219-.219l3.691.055h7.4v-4.457H50.34l-3.951.055q-.232,0-.232-.219v-1.3q0-.219.232-.219l3.951.055h4.867V-19q-4.443.656-8.039.971a2.228,2.228,0,0,1-.287.027.319.319,0,0,1-.287-.123,2.592,2.592,0,0,1-.178-.424,3.409,3.409,0,0,0-.588-1.066,87.972,87.972,0,0,0,9.3-1.012,55.262,55.262,0,0,0,5.988-1.34,9.727,9.727,0,0,0,2.16-.9,13.75,13.75,0,0,1,1.367,1.2.542.542,0,0,1,.191.369q0,.246-.369.246a3.482,3.482,0,0,0-1.08.205,56.191,56.191,0,0,1-6.412,1.531v4.813h4.963l3.91-.055q.232,0,.232.219v1.3q0,.219-.232.219l-3.91-.055H56.971v4.457h7.082l3.691-.055q.232,0,.232.219ZM98.561-9.721,98.4-8.066Q97.822-1.8,96.715,0a3.267,3.267,0,0,1-3.076,1.49q-1.258,0-2.27-.082-.424-.041-.506-.15a1.143,1.143,0,0,1-.137-.492,4.97,4.97,0,0,0-.4-1.3A24.083,24.083,0,0,0,93.3-.246a2.051,2.051,0,0,0,1.791-.588q1.135-1.818,1.572-7.629H88.785L88.252-6.59a.3.3,0,0,1-.3.26,4.743,4.743,0,0,1-.643-.082q-.807-.137-.807-.3a.651.651,0,0,1,.041-.178,37.894,37.894,0,0,0,1.572-6.576,14.592,14.592,0,0,0,.178-2,.242.242,0,0,1,.273-.273l2.6.055h4.963v-4.58H90.549l-3.076.055a.193.193,0,0,1-.219-.219v-1.189a.193.193,0,0,1,.219-.219l3.076.055h4.115l3.035-.055q.191,0,.191.219l-.055,2.42v2.42l.055,2.379q0,.219-.191.219l-3.035-.055h-4.73q-.342,2.352-.807,4.32h6.125l3.063-.055A.218.218,0,0,1,98.561-9.721Zm8.914-13.1a1.816,1.816,0,0,1-.137.506,15.055,15.055,0,0,0-.26,3.664V-2.967l.055,4.7a.193.193,0,0,1-.219.219h-1.436a.193.193,0,0,1-.219-.219l.055-4.676v-15.6a24.466,24.466,0,0,0-.273-4.676q1.354.055,2.092.164Q107.475-23,107.475-22.818Zm44.174,7.67q-.506,3.377-1.873,3.6t-10.391.219q-5.031,0-6.091-.027a5.544,5.544,0,0,1-1.654-.239,1.894,1.894,0,0,1-.95-.731,2.776,2.776,0,0,1-.355-1.559v-8.559h18.881v6.125H131.824v2.83q0,.588,1.025.684t8.012.1q7.506,0,8.347-.178t1.1-2.871Zm-3.9-2.625V-21H131.824v3.227ZM152.264-7h-4.457V-.957A2.591,2.591,0,0,1,147.26.779a2.969,2.969,0,0,1-2.27.643h-3.705L140.7-.027l4.785.055a.867.867,0,0,0,.6-.3.914.914,0,0,0,.3-.656V-7h-18.43V-8.367h18.43v-1.887h1.422v1.887h4.457ZM140.9-2.16l-.82,1.2a40.737,40.737,0,0,0-7.355-3.527l.807-1.258A48.006,48.006,0,0,1,140.9-2.16Zm30.283-2.119a1.924,1.924,0,0,1,1.627.807,2.925,2.925,0,0,1,.533,1.8,5.421,5.421,0,0,1-2.912,4.813.4.4,0,0,1-.205.082.22.22,0,0,1-.164-.109l-.424-.451a.42.42,0,0,1-.055-.164q0-.082.191-.178a4.722,4.722,0,0,0,1.333-1.162,2.091,2.091,0,0,0,.5-1.244q0-.779-.615-.779a1.522,1.522,0,0,1-1.162-.52,1.625,1.625,0,0,1-.437-1.135,1.664,1.664,0,0,1,.6-1.34A1.761,1.761,0,0,1,171.186-4.279Z" transform="translate(20.685 283)"/><text class="s" transform="translate(20.685 237)"><tspan x="0" y="0">OUR MISSION</tspan></text></g></svg>