<svg xmlns="http://www.w3.org/2000/svg" xmlns:xlink="http://www.w3.org/1999/xlink" width="690" height="333.626" viewBox="0 0 690 333.626">
  <defs>
    <clipPath id="clip-path">
      <rect id="矩形_2278" data-name="矩形 2278" width="690" height="333.626" fill="#fff"/>
    </clipPath>
  </defs>
  <g id="banner_jp" transform="translate(-19064 342)">
    <g id="组_21831" data-name="组 21831" transform="translate(19053.314 -450)">
      <g id="组_21800" data-name="组 21800" transform="translate(316.316 154.907)">
        <g id="新手引导_2" data-name="新手引导 2" transform="translate(205.986 35.5)">
          <path id="路径_1948" data-name="路径 1948" d="M1721.463,349.6h-14.194l-3.911,3.4a.515.515,0,0,1-.842-.3l-.506-3.1h-2.533a.409.409,0,0,1-.409-.409h0V334.317a.408.408,0,0,1,.408-.409h21.987a.409.409,0,0,1,.409.409h0v14.875A.409.409,0,0,1,1721.463,349.6Z" transform="translate(-1699.069 -333.908)" fill="none" stroke="#0080f4" stroke-linecap="round" stroke-miterlimit="10" stroke-width="1"/>
          <g id="组_799" data-name="组 799" transform="translate(6.072 5.534)">
            <path id="路径_1951" data-name="路径 1951" d="M1710.61,348.687a1.97,1.97,0,0,1-.615-1.429,2.029,2.029,0,0,1,.566-1.449,1.97,1.97,0,0,1,1.429-.615l2.629-.044a2.026,2.026,0,0,1,1.449.566,1.969,1.969,0,0,1,.614,1.429.405.405,0,0,1-.118.289.462.462,0,0,1-.285.129.4.4,0,0,1-.41-.385v-.012a1.238,1.238,0,0,0-1.243-1.2l-2.629.045a1.207,1.207,0,0,0-.851.379,1.271,1.271,0,0,0-.35.864,1.2,1.2,0,0,0,.379.851,1.267,1.267,0,0,0,.863.35l2.218-.038a.4.4,0,0,1,.014.808l-2.219.037A2.042,2.042,0,0,1,1710.61,348.687Z" transform="translate(-1709.995 -345.075)" fill="#0080f4"/>
            <path id="路径_1952" data-name="路径 1952" d="M1721.479,348.5a1.969,1.969,0,0,1-.616-1.43.4.4,0,1,1,.808-.014,1.237,1.237,0,0,0,1.242,1.2l2.63-.045a1.208,1.208,0,0,0,.851-.379,1.271,1.271,0,0,0,.349-.863,1.208,1.208,0,0,0-.379-.851,1.271,1.271,0,0,0-.863-.349l-2.218.037a.406.406,0,0,1-.008-.81l2.218-.038a2.028,2.028,0,0,1,1.448.566,1.97,1.97,0,0,1,.615,1.429,2.034,2.034,0,0,1-1.994,2.063l-2.629.045a2.031,2.031,0,0,1-1.45-.567Z" transform="translate(-1716.538 -344.961)" fill="#0080f4"/>
          </g>
        </g>
        <g id="组_21419" data-name="组 21419" transform="translate(120.466 71.868)">
          <path id="路径_37402" data-name="路径 37402" d="M1557.566,499.484,1528,482.411a6.281,6.281,0,0,1-3.141-5.439V442.827a6.282,6.282,0,0,1,3.141-5.44l29.567-17.072a6.283,6.283,0,0,1,6.281,0l29.569,17.072a6.282,6.282,0,0,1,3.141,5.44v34.144a6.281,6.281,0,0,1-3.141,5.439l-29.569,17.072A6.281,6.281,0,0,1,1557.566,499.484Z" transform="translate(-1520.797 -415.831)" fill="none" stroke="#0c111a" stroke-miterlimit="10" stroke-width="1"/>
          <line id="直线_167" data-name="直线 167" y1="4.382" transform="translate(0 25.526)" fill="none" stroke="#0c111a" stroke-miterlimit="10" stroke-width="1"/>
          <line id="直线_168" data-name="直线 168" y1="20.262" transform="translate(0 33.982)" fill="none" stroke="#0c111a" stroke-miterlimit="10" stroke-width="1"/>
          <line id="直线_169" data-name="直线 169" x1="3.64" y1="2.101" transform="translate(4.167 69.455)" fill="none" stroke="#0c111a" stroke-miterlimit="10" stroke-width="1"/>
          <line id="直线_170" data-name="直线 170" x1="17.907" y1="10.338" transform="translate(11.203 73.517)" fill="none" stroke="#0c111a" stroke-miterlimit="10" stroke-width="1"/>
          <line id="直线_171" data-name="直线 171" x1="3.516" y2="2.03" transform="translate(44.315 85.719)" fill="none" stroke="#0c111a" stroke-miterlimit="10" stroke-width="1"/>
          <line id="直线_172" data-name="直线 172" x1="17.787" y2="10.269" transform="translate(51.448 73.361)" fill="none" stroke="#0c111a" stroke-miterlimit="10" stroke-width="1"/>
          <line id="直线_173" data-name="直线 173" y2="4.159" transform="translate(80.169 58.18)" fill="none" stroke="#0c111a" stroke-miterlimit="10" stroke-width="1"/>
          <line id="直线_174" data-name="直线 174" y2="20.486" transform="translate(80.169 33.257)" fill="none" stroke="#0c111a" stroke-miterlimit="10" stroke-width="1"/>
          <line id="直线_175" data-name="直线 175" x2="3.649" y2="2.106" transform="translate(72.384 16.268)" fill="none" stroke="#0c111a" stroke-miterlimit="10" stroke-width="1"/>
          <line id="直线_176" data-name="直线 176" x2="17.802" y2="10.278" transform="translate(50.988 3.915)" fill="none" stroke="#0c111a" stroke-miterlimit="10" stroke-width="1"/>
          <line id="直线_177" data-name="直线 177" y1="2.049" x2="3.549" transform="translate(32.413)" fill="none" stroke="#0c111a" stroke-miterlimit="10" stroke-width="1"/>
          <line id="直线_178" data-name="直线 178" y1="10.19" x2="17.649" transform="translate(10.962 4.244)" fill="none" stroke="#0c111a" stroke-miterlimit="10" stroke-width="1"/>
        </g>
        <path id="路径_37403" data-name="路径 37403" d="M1695.678,350.553l-15.311-8.837a6.281,6.281,0,0,1-3.14-5.439V318.6a6.281,6.281,0,0,1,3.14-5.439l15.311-8.837a6.281,6.281,0,0,1,6.281,0l15.311,8.837a6.281,6.281,0,0,1,3.141,5.439v17.68a6.281,6.281,0,0,1-3.141,5.439l-15.311,8.837A6.281,6.281,0,0,1,1695.678,350.553Z" transform="translate(-1481.454 -282.206)" fill="none" stroke="#0080f4" stroke-miterlimit="10" stroke-width="1"/>
        <path id="路径_37404" data-name="路径 37404" d="M1732.093,406.509l-2.846,1.643a6.453,6.453,0,0,1-.616.312" transform="translate(-1508.822 -337.061)" fill="none" stroke="#000" stroke-miterlimit="10" stroke-width="1"/>
        <path id="路径_37405" data-name="路径 37405" d="M1757.731,379.423a6.283,6.283,0,0,1-2.957,3.931l-11.958,6.9" transform="translate(-1516.374 -322.64)" fill="none" stroke="#000" stroke-miterlimit="10" stroke-width="1"/>
        <line id="直线_179" data-name="直线 179" y2="3.894" transform="translate(241.541 38.588)" fill="none" stroke="#000" stroke-miterlimit="10" stroke-width="1"/>
        <path id="路径_37406" data-name="路径 37406" d="M1746.736,308.386l10.125,5.845a6.281,6.281,0,0,1,3.14,5.439" transform="translate(-1518.462 -284.819)" fill="none" stroke="#000" stroke-miterlimit="10" stroke-width="1"/>
        <path id="路径_37407" data-name="路径 37407" d="M1711.339,299.8l2.423-1.4q.244-.14.5-.258" transform="translate(-1499.616 -279.365)" fill="none" stroke="#000" stroke-miterlimit="10" stroke-width="1"/>
        <path id="路径_37408" data-name="路径 37408" d="M1671.959,316.49a6.282,6.282,0,0,1,2.858-3.576l12.131-7" transform="translate(-1478.649 -283.501)" fill="none" stroke="#000" stroke-miterlimit="10" stroke-width="1"/>
        <path id="路径_37409" data-name="路径 37409" d="M1684.778,388.288l-10.278-5.936a6.283,6.283,0,0,1-3.141-5.439" transform="translate(-1478.33 -321.304)" fill="none" stroke="#000" stroke-miterlimit="10" stroke-width="1"/>
        <path id="路径_37410" data-name="路径 37410" d="M1614.816,390.547l12.743-22.832a6.28,6.28,0,0,1,5.394-3.219l8.124-.118" transform="translate(-1448.226 -314.63)" fill="none" stroke="#0c111a" stroke-miterlimit="10" stroke-width="1"/>
        <path id="路径_37411" data-name="路径 37411" d="M1823.2,342.909l-4.948,7.422a6.281,6.281,0,0,1-5.631,2.784l-1.777-.115" transform="translate(-1552.592 -303.2)" fill="none" stroke="#0c111a" stroke-miterlimit="10" stroke-width="1"/>
        <path id="路径_37412" data-name="路径 37412" d="M1820.652,501.024l-4.015-6.469a6.281,6.281,0,0,0-5.537-2.965l-3.791.057" transform="translate(-1550.712 -382.357)" fill="none" stroke="#0c111a" stroke-miterlimit="10" stroke-width="1"/>
        <path id="路径_37413" data-name="路径 37413" d="M1694.951,646.671l-11.722-6.768a6.281,6.281,0,0,1-3.141-5.44V620.927a6.281,6.281,0,0,1,3.141-5.439l11.722-6.768a6.282,6.282,0,0,1,6.281,0l11.722,6.768a6.281,6.281,0,0,1,3.14,5.439v13.536a6.281,6.281,0,0,1-3.14,5.44l-11.722,6.768A6.283,6.283,0,0,1,1694.951,646.671Z" transform="translate(-1482.977 -444.273)" fill="none" stroke="#0080f4" stroke-miterlimit="10" stroke-width="1"/>
        <path id="路径_37414" data-name="路径 37414" d="M1675.148,634.673v-2.993a6.285,6.285,0,0,1,.094-1.081" transform="translate(-1480.347 -456.37)" fill="none" stroke="#000" stroke-miterlimit="10" stroke-width="1"/>
        <path id="路径_37415" data-name="路径 37415" d="M1682.484,665.257l-4.195-2.422a6.282,6.282,0,0,1-3.14-5.44V648.5" transform="translate(-1480.348 -465.902)" fill="none" stroke="#000" stroke-miterlimit="10" stroke-width="1"/>
        <path id="路径_37416" data-name="路径 37416" d="M1726.8,693.194l-2.646,1.528a6.268,6.268,0,0,1-.982.46" transform="translate(-1505.916 -489.696)" fill="none" stroke="#000" stroke-miterlimit="10" stroke-width="1"/>
        <path id="路径_37417" data-name="路径 37417" d="M1750.173,656.978v4.93a6.282,6.282,0,0,1-3.141,5.44l-7.215,4.166" transform="translate(-1514.778 -470.414)" fill="none" stroke="#000" stroke-miterlimit="10" stroke-width="1"/>
        <path id="路径_37418" data-name="路径 37418" d="M1749.746,618.1l2.572,1.486a6.289,6.289,0,0,1,1.029.741" transform="translate(-1520.064 -449.714)" fill="none" stroke="#000" stroke-miterlimit="10" stroke-width="1"/>
        <path id="路径_37419" data-name="路径 37419" d="M1702.45,605.545l4.39-2.535a6.283,6.283,0,0,1,6.282,0l7.828,4.519" transform="translate(-1494.883 -441.233)" fill="none" stroke="#000" stroke-miterlimit="10" stroke-width="1"/>
        <path id="路径_37420" data-name="路径 37420" d="M1276.18,385.08l-10.937-6.316a5.4,5.4,0,0,1-2.7-4.676V361.457a5.4,5.4,0,0,1,2.7-4.676l10.937-6.32a5.4,5.4,0,0,1,5.4,0l10.939,6.316a5.4,5.4,0,0,1,2.7,4.676v12.631a5.4,5.4,0,0,1-2.7,4.676l-10.939,6.316A5.4,5.4,0,0,1,1276.18,385.08Z" transform="translate(-1260.671 -306.836)" fill="none" stroke="#0c111a" stroke-miterlimit="10" stroke-width="1"/>
        <g id="组_21420" data-name="组 21420" transform="translate(0 40.527)">
          <path id="路径_37421" data-name="路径 37421" d="M1258.54,374.068v-2.852a5.361,5.361,0,0,1,.079-.916" transform="translate(-1258.54 -358.31)" fill="none" stroke="#000" stroke-miterlimit="10" stroke-width="1"/>
          <path id="路径_37422" data-name="路径 37422" d="M1265.188,401.741l-3.948-2.279a5.4,5.4,0,0,1-2.7-4.676v-8.419" transform="translate(-1258.54 -366.865)" fill="none" stroke="#000" stroke-miterlimit="10" stroke-width="1"/>
          <line id="直线_180" data-name="直线 180" x1="2.665" y2="1.539" transform="translate(21.103 38.565)" fill="none" stroke="#000" stroke-miterlimit="10" stroke-width="1"/>
          <path id="路径_37423" data-name="路径 37423" d="M1326,404.37a5.4,5.4,0,0,1-2.7,4.677l-7.178,4.144" transform="translate(-1289.199 -376.45)" fill="none" stroke="#000" stroke-miterlimit="10" stroke-width="1"/>
          <path id="路径_37424" data-name="路径 37424" d="M1326.153,359.185l2.49,1.437a5.4,5.4,0,0,1,.638.432" transform="translate(-1294.538 -352.393)" fill="none" stroke="#000" stroke-miterlimit="10" stroke-width="1"/>
          <path id="路径_37425" data-name="路径 37425" d="M1283.722,347.65l3.928-2.267a5.4,5.4,0,0,1,5.4,0l7.158,4.133" transform="translate(-1271.948 -344.659)" fill="none" stroke="#000" stroke-miterlimit="10" stroke-width="1"/>
        </g>
        <path id="路径_37426" data-name="路径 37426" d="M1427.111,598.06l-11.764-6.792a6.28,6.28,0,0,1-3.14-5.439V572.245a6.281,6.281,0,0,1,3.14-5.439l11.764-6.792a6.282,6.282,0,0,1,6.281,0l11.764,6.791a6.281,6.281,0,0,1,3.14,5.44v13.583a6.28,6.28,0,0,1-3.14,5.439l-11.764,6.792A6.282,6.282,0,0,1,1427.111,598.06Z" transform="translate(-1340.354 -418.341)" fill="none" stroke="#0080f4" stroke-miterlimit="10" stroke-width="1"/>
        <path id="路径_37427" data-name="路径 37427" d="M1473.3,624.137a6.278,6.278,0,0,1-2.7,3.122l-14.061,8.118a6.3,6.3,0,0,1-1.049.483" transform="translate(-1363.4 -452.929)" fill="none" stroke="#000" stroke-miterlimit="10" stroke-width="1"/>
        <path id="路径_37428" data-name="路径 37428" d="M1482.021,569.482l2.706,1.562a6.282,6.282,0,0,1,3.141,5.44v13.981" transform="translate(-1377.524 -423.83)" fill="none" stroke="#000" stroke-miterlimit="10" stroke-width="1"/>
        <path id="路径_37429" data-name="路径 37429" d="M1408.983,565.591a6.281,6.281,0,0,1,2.455-2.585l14.061-8.118a6.325,6.325,0,0,1,1.111-.5" transform="translate(-1338.638 -415.791)" fill="none" stroke="#000" stroke-miterlimit="10" stroke-width="1"/>
        <path id="路径_37430" data-name="路径 37430" d="M1413.222,610.538l-2.565-1.481a6.282,6.282,0,0,1-3.14-5.44V589.949" transform="translate(-1337.857 -434.727)" fill="none" stroke="#000" stroke-miterlimit="10" stroke-width="1"/>
        <path id="路径_37431" data-name="路径 37431" d="M1429.724,360.747l-17.246-9.957a6.281,6.281,0,0,1-3.14-5.439V325.437a6.282,6.282,0,0,1,3.14-5.44l17.246-9.957a6.28,6.28,0,0,1,6.281,0L1453.251,320a6.282,6.282,0,0,1,3.14,5.44v19.912a6.281,6.281,0,0,1-3.14,5.439l-17.246,9.957A6.282,6.282,0,0,1,1429.724,360.747Z" transform="translate(-1338.827 -285.252)" fill="none" stroke="#0080f4" stroke-miterlimit="10" stroke-width="1"/>
        <line id="直线_181" data-name="直线 181" y1="4.145" transform="translate(67.488 53.031)" fill="none" stroke="#000" stroke-miterlimit="10" stroke-width="1"/>
        <path id="路径_37432" data-name="路径 37432" d="M1417.379,402.275l-11.365-6.562a6.281,6.281,0,0,1-3.14-5.439" transform="translate(-1335.385 -328.418)" fill="none" stroke="#000" stroke-miterlimit="10" stroke-width="1"/>
        <line id="直线_182" data-name="直线 182" x1="3.303" y2="1.907" transform="translate(97.059 77.022)" fill="none" stroke="#000" stroke-miterlimit="10" stroke-width="1"/>
        <path id="路径_37433" data-name="路径 37433" d="M1497.428,390.275a6.281,6.281,0,0,1-3.14,5.439l-13.1,7.563" transform="translate(-1377.08 -328.418)" fill="none" stroke="#000" stroke-miterlimit="10" stroke-width="1"/>
        <line id="直线_183" data-name="直线 183" y2="4.061" transform="translate(120.348 43.235)" fill="none" stroke="#000" stroke-miterlimit="10" stroke-width="1"/>
        <path id="路径_37434" data-name="路径 37434" d="M1485.192,315.022l11.227,6.482a6.281,6.281,0,0,1,3.14,5.439v.583" transform="translate(-1379.213 -288.353)" fill="none" stroke="#000" stroke-miterlimit="10" stroke-width="1"/>
        <line id="直线_184" data-name="直线 184" y1="1.788" x2="3.096" transform="translate(87.681 21.519)" fill="none" stroke="#000" stroke-miterlimit="10" stroke-width="1"/>
        <path id="路径_37435" data-name="路径 37435" d="M1403.524,323.438a6.278,6.278,0,0,1,2.836-3.507l13.621-7.864" transform="translate(-1335.731 -286.779)" fill="none" stroke="#000" stroke-miterlimit="10" stroke-width="1"/>
        <path id="路径_37436" data-name="路径 37436" d="M1846.529,305.476l-12.789-7.383a6.281,6.281,0,0,1-3.14-5.439V277.886a6.282,6.282,0,0,1,3.14-5.44l12.789-7.383a6.282,6.282,0,0,1,6.281,0l12.789,7.383a6.282,6.282,0,0,1,3.14,5.44v14.767a6.281,6.281,0,0,1-3.14,5.439l-12.789,7.383A6.28,6.28,0,0,1,1846.529,305.476Z" transform="translate(-1563.112 -261.306)" fill="none" stroke="#0c111a" stroke-miterlimit="10" stroke-width="1"/>
        <path id="路径_37437" data-name="路径 37437" d="M1845.792,263.881l8.753-5.054a6.282,6.282,0,0,1,5.533-.368" transform="translate(-1571.2 -257.986)" fill="none" stroke="#000" stroke-miterlimit="10" stroke-width="1"/>
        <path id="路径_37438" data-name="路径 37438" d="M1825.365,304.632v-15.1q0-.267.022-.53" transform="translate(-1560.325 -274.501)" fill="none" stroke="#000" stroke-miterlimit="10" stroke-width="1"/>
        <path id="路径_37439" data-name="路径 37439" d="M1837.468,339.274l-8.871-5.122a6.281,6.281,0,0,1-3.062-4.448" transform="translate(-1560.415 -296.169)" fill="none" stroke="#000" stroke-miterlimit="10" stroke-width="1"/>
        <path id="路径_37440" data-name="路径 37440" d="M1890.2,341.752l-13.11,7.569a6.341,6.341,0,0,1-.748.368" transform="translate(-1587.467 -302.584)" fill="none" stroke="#000" stroke-miterlimit="10" stroke-width="1"/>
        <path id="路径_37441" data-name="路径 37441" d="M1913.515,305.892v10.143a6.282,6.282,0,0,1-3.14,5.439" transform="translate(-1605.584 -283.492)" fill="none" stroke="#000" stroke-miterlimit="10" stroke-width="1"/>
        <path id="路径_37442" data-name="路径 37442" d="M1882.252,262.271l13.149,7.591a6.317,6.317,0,0,1,.693.464" transform="translate(-1590.612 -260.267)" fill="none" stroke="#000" stroke-miterlimit="10" stroke-width="1"/>
        <path id="路径_37443" data-name="路径 37443" d="M1837.932,543.7l-15.305-8.837a6.281,6.281,0,0,1-3.141-5.439V511.751a6.281,6.281,0,0,1,3.141-5.439l15.305-8.837a6.282,6.282,0,0,1,6.281,0l15.306,8.837a6.281,6.281,0,0,1,3.141,5.439v17.675a6.281,6.281,0,0,1-3.141,5.439l-15.306,8.837A6.28,6.28,0,0,1,1837.932,543.7Z" transform="translate(-1557.194 -385.044)" fill="none" stroke="#0080f4" stroke-miterlimit="10" stroke-width="1"/>
        <g id="组_21801" data-name="组 21801" transform="translate(259.978 108.568)">
          <line id="直线_185" data-name="直线 185" y1="9.972" transform="translate(0.001 16.504)" fill="none" stroke="#0c111a" stroke-miterlimit="10" stroke-width="1"/>
          <path id="路径_37444" data-name="路径 37444" d="M1825.376,572.175l-7.7-4.442a6.282,6.282,0,0,1-3.141-5.439v-6.064" transform="translate(-1814.538 -525.342)" fill="none" stroke="#0c111a" stroke-miterlimit="10" stroke-width="1"/>
          <path id="路径_37445" data-name="路径 37445" d="M1879.822,592.251l-8.454,4.881a6.257,6.257,0,0,1-1.044.481" transform="translate(-1844.239 -544.52)" fill="none" stroke="#0c111a" stroke-miterlimit="10" stroke-width="1"/>
          <path id="路径_37446" data-name="路径 37446" d="M1907.522,550.136v8.911a6.281,6.281,0,0,1-3.14,5.439l-5.307,3.064" transform="translate(-1859.547 -522.098)" fill="none" stroke="#0c111a" stroke-miterlimit="10" stroke-width="1"/>
          <path id="路径_37447" data-name="路径 37447" d="M1891.662,503l8.772,5.064a6.35,6.35,0,0,1,.6.4" transform="translate(-1855.6 -497.004)" fill="none" stroke="#0c111a" stroke-miterlimit="10" stroke-width="1"/>
          <path id="路径_37448" data-name="路径 37448" d="M1842.311,495.552l7.861-4.538a6.283,6.283,0,0,1,6.281,0l5.312,3.067" transform="translate(-1829.325 -490.173)" fill="none" stroke="#0c111a" stroke-miterlimit="10" stroke-width="1"/>
        </g>
        <path id="路径_37449" data-name="路径 37449" d="M1332.093,366.561h13.976a3.238,3.238,0,0,0,3.238-3.238h0v-5.972a4.186,4.186,0,0,1,4.186-4.186h14.6" transform="translate(-1297.701 -308.66)" fill="none" stroke="#0c111a" stroke-miterlimit="10" stroke-width="1"/>
        <line id="直线_186" data-name="直线 186" x2="17.081" transform="translate(201.201 109.59)" fill="none" stroke="#0c111a" stroke-miterlimit="10" stroke-width="1"/>
        <line id="直线_187" data-name="直线 187" x2="18.797" transform="translate(222.454 109.548)" fill="none" stroke="#0c111a" stroke-miterlimit="10" stroke-width="1"/>
        <line id="直线_188" data-name="直线 188" x2="3.74" y2="5.242" transform="translate(114.402 68.674)" fill="none" stroke="#000" stroke-miterlimit="10" stroke-width="1"/>
        <line id="直线_189" data-name="直线 189" x2="9.918" y2="14.529" transform="translate(120.466 77.326)" fill="none" stroke="#0c111a" stroke-miterlimit="10" stroke-width="1"/>
        <line id="直线_190" data-name="直线 190" y2="3.796" transform="translate(193.31 47.77)" fill="none" stroke="#000" stroke-miterlimit="10" stroke-width="1"/>
        <line id="直线_191" data-name="直线 191" x2="15.294" transform="translate(239.213 49.919)" fill="none" stroke="#000" stroke-miterlimit="10" stroke-width="1"/>
        <line id="直线_192" data-name="直线 192" x2="9.555" y2="14.597" transform="translate(174.23 154.161)" fill="none" stroke="#000" stroke-miterlimit="10" stroke-width="1"/>
        <line id="直线_193" data-name="直线 193" x1="10.503" y2="15.584" transform="translate(127.673 149.141)" fill="none" stroke="#0c111a" stroke-miterlimit="10" stroke-width="1"/>
        <path id="路径_37450" data-name="路径 37450" d="M1489.025,618.454h14.194a4.428,4.428,0,0,0,3.238-1.109" transform="translate(-1381.253 -449.313)" fill="none" stroke="#000" stroke-miterlimit="10" stroke-width="1"/>
        <g id="组_21796" data-name="组 21796" transform="translate(136.811 107.543)">
          <path id="路径_38716" data-name="路径 38716" d="M1562.546,488.124a2.507,2.507,0,0,0-.449-.1,3.85,3.85,0,0,0-.583-.038,3.913,3.913,0,0,0-.6.038,2.546,2.546,0,0,0-.438.1,1.1,1.1,0,0,0-.766,1.058v5h-4.959v-5a1.1,1.1,0,0,0-.766-1.057,2.505,2.505,0,0,0-.449-.1,4.6,4.6,0,0,0-1.179,0,2.528,2.528,0,0,0-.459.106,1.1,1.1,0,0,0-.765,1.057v14a1.112,1.112,0,0,0,.182.618,1.124,1.124,0,0,0,.58.439,2.462,2.462,0,0,0,.461.107,4.608,4.608,0,0,0,1.179,0,2.444,2.444,0,0,0,.448-.1,1.1,1.1,0,0,0,.767-1.058v-5.63h4.959v5.63a1.1,1.1,0,0,0,.761,1.056,2.492,2.492,0,0,0,.443.106,3.909,3.909,0,0,0,.6.038,3.85,3.85,0,0,0,.583-.038,2.446,2.446,0,0,0,.448-.1,1.1,1.1,0,0,0,.767-1.058v-14a1.1,1.1,0,0,0-.766-1.057Z" transform="translate(-1551.129 -487.981)" fill="none" stroke="#ef54a1" stroke-miterlimit="10" stroke-width="1"/>
          <path id="路径_38717" data-name="路径 38717" d="M1593.253,501.695a1.228,1.228,0,0,0-.411-.426,1.147,1.147,0,0,0-.6-.17H1587.3v-3.54h4.052a1.183,1.183,0,0,0,.564-.141,1.161,1.161,0,0,0,.456-.457,1.537,1.537,0,0,0,.17-.519,3.075,3.075,0,0,0,.033-.479,3.463,3.463,0,0,0-.031-.488,1.533,1.533,0,0,0-.171-.541,1.259,1.259,0,0,0-.383-.425,1.124,1.124,0,0,0-.637-.2H1587.3v-2.9h4.863a1.133,1.133,0,0,0,1.042-.67,1.818,1.818,0,0,0,.138-.451,2.819,2.819,0,0,0,.043-.508,2.924,2.924,0,0,0-.042-.528,1.959,1.959,0,0,0-.134-.448,1.13,1.13,0,0,0-1.047-.685h-6.919a1.643,1.643,0,0,0-1,.345,1.515,1.515,0,0,0-.563,1.283V502.76a1.511,1.511,0,0,0,.564,1.283,1.64,1.64,0,0,0,1,.345h7a1.155,1.155,0,0,0,.6-.169,1.2,1.2,0,0,0,.423-.451,1.566,1.566,0,0,0,.177-.54,3.231,3.231,0,0,0,.032-.479,3.416,3.416,0,0,0-.032-.5A1.531,1.531,0,0,0,1593.253,501.695Z" transform="translate(-1568.459 -488.058)" fill="none" stroke="#ef54a1" stroke-miterlimit="10" stroke-width="1"/>
          <path id="路径_38718" data-name="路径 38718" d="M1618.625,501.6a1.238,1.238,0,0,0-.394-.449,1.14,1.14,0,0,0-.648-.2h-4.39V489.181a1.1,1.1,0,0,0-.765-1.057,2.515,2.515,0,0,0-.449-.1,4.6,4.6,0,0,0-1.179,0,2.518,2.518,0,0,0-.459.106,1.1,1.1,0,0,0-.765,1.057v13.5a1.512,1.512,0,0,0,.564,1.283,1.642,1.642,0,0,0,1,.345h6.447a1.136,1.136,0,0,0,.65-.2,1.207,1.207,0,0,0,.407-.491,1.788,1.788,0,0,0,.144-.493,3.411,3.411,0,0,0,.032-.5,3.541,3.541,0,0,0-.031-.5A1.608,1.608,0,0,0,1618.625,501.6Z" transform="translate(-1582.247 -487.981)" fill="none" stroke="#ef54a1" stroke-miterlimit="10" stroke-width="1"/>
          <path id="路径_38719" data-name="路径 38719" d="M1644.281,491.463a4.544,4.544,0,0,0-2.078-2.531,5.072,5.072,0,0,0-1.446-.577,9.418,9.418,0,0,0-1.129-.185c-.313-.029-.644-.043-.983-.043h-3.122a1.672,1.672,0,0,0-1.059.379,1.579,1.579,0,0,0-.547,1.294v13.456a1.1,1.1,0,0,0,.762,1.056,2.41,2.41,0,0,0,.453.106,3.944,3.944,0,0,0,.594.038,4,4,0,0,0,.594-.037,2.292,2.292,0,0,0,.457-.11,1.154,1.154,0,0,0,.538-.389,1.094,1.094,0,0,0,.22-.664v-4.413h.817a7.979,7.979,0,0,0,2.6-.384,5.476,5.476,0,0,0,1.94-1.134,5.039,5.039,0,0,0,1.238-1.8,6.02,6.02,0,0,0,.423-2.291A5.524,5.524,0,0,0,1644.281,491.463Zm-6.746-.057h.952a6.065,6.065,0,0,1,.895.069,1.916,1.916,0,0,1,.709.263,1.485,1.485,0,0,1,.521.577,2.232,2.232,0,0,1,.226,1.08,2.692,2.692,0,0,1-.152.925,1.774,1.774,0,0,1-.406.656,1.9,1.9,0,0,1-.681.432,3.277,3.277,0,0,1-1.156.169h-.907Z" transform="translate(-1595.207 -488.058)" fill="none" stroke="#ef54a1" stroke-miterlimit="10" stroke-width="1"/>
        </g>
        <g id="组_21426" data-name="组 21426" transform="translate(79.722 150.714)">
          <path id="路径_37377-2" data-name="路径 37377-2" d="M1432.219,602.33a3.468,3.468,0,0,0-1.767.4,2.275,2.275,0,0,1-.732.21c-.327-.2-.254-.623-.108-.9a2.519,2.519,0,0,1,.586-.688,4,4,0,0,1,1.73-.748l-.051-.463a3.575,3.575,0,0,0-1.977.855,2.915,2.915,0,0,0-.7.818c-.283.631-.261,1.388.493,1.586a2.272,2.272,0,0,0,.935-.246c.534-.2,1.2-.554,1.717-.3Z" transform="translate(-1429.036 -590.867)" fill="#0080f4"/>
          <path id="路径_37378-2" data-name="路径 37378-2" d="M1435.505,592.3a19.662,19.662,0,0,0,1.376,3.81,11.728,11.728,0,0,0,2.238,3.252,4.125,4.125,0,0,0,2.81,1.34,7.693,7.693,0,0,0,4.15-1.55c.572-.381,1.076-.758,1.485-1.035a2.47,2.47,0,0,1,.855-.427,3.452,3.452,0,0,1,1.152.327c.445.187.909.421,1.309.579a.244.244,0,0,0,.307-.156.211.211,0,0,0,.011-.054,2.992,2.992,0,0,0-1.917-2.825,3.553,3.553,0,0,0-2.9.166c.526-1.127,1.122-2.341,1.637-3.571a11.329,11.329,0,0,0,1.094-3.969c0-4.752-3.565-7.88-6.953-7.88a7.131,7.131,0,0,0-7.185,7.4v.014a13.658,13.658,0,0,0,.058,1.861l.051.463c.07.568.161,1.146.29,1.724Z" transform="translate(-1432.193 -580.307)" fill="#fff" stroke="#0080f4" stroke-miterlimit="10" stroke-width="0.5"/>
          <path id="路径_37379-2" data-name="路径 37379-2" d="M1448.144,589a1.6,1.6,0,0,1,1.356-1.262c.62.012,1.034.672,1.26,1.253a6.826,6.826,0,0,1,.362,2.224.244.244,0,0,1-.269.216.241.241,0,0,1-.093-.029,2.43,2.43,0,0,0-1.26-.3,2.457,2.457,0,0,0-1.268.3.244.244,0,0,1-.329-.1.248.248,0,0,1-.026-.083A7.669,7.669,0,0,1,1448.144,589Z" transform="translate(-1439.066 -584.261)" fill="#0080f4"/>
          <path id="路径_37380-2" data-name="路径 37380-2" d="M1438.811,591.4a.244.244,0,0,1-.329-.1.248.248,0,0,1-.026-.083,7.672,7.672,0,0,1,.268-2.216,1.6,1.6,0,0,1,1.356-1.263c.619.012,1.034.671,1.263,1.253a6.842,6.842,0,0,1,.362,2.224.244.244,0,0,1-.362.187,2.776,2.776,0,0,0-2.532,0Z" transform="translate(-1434.05 -584.262)" fill="#0080f4"/>
          <path id="路径_37381-2" data-name="路径 37381-2" d="M1447.826,601.184a3.489,3.489,0,0,0-3.781-.3,4.209,4.209,0,0,0-1.283.949c-.3.351-.574.856-.058,1.122a2.446,2.446,0,0,0,.819-.043,2.942,2.942,0,0,1,2.274.224l-.29.362a2.579,2.579,0,0,0-1.9-.13,2.613,2.613,0,0,1-1.006.043c-1.01-.263-.627-1.341-.181-1.883a4.613,4.613,0,0,1,1.427-1.057,4.084,4.084,0,0,1,4.266.34Z" transform="translate(-1435.916 -590.807)" fill="#0080f4"/>
        </g>
        <g id="组_21424" data-name="组 21424" transform="translate(80.751 36.504)">
          <circle id="椭圆_1642" data-name="椭圆 1642" cx="13.164" cy="13.164" r="13.164" fill="none" stroke="#0080f4" stroke-miterlimit="10" stroke-width="1"/>
          <path id="直线_194" data-name="直线 194" d="M0,0H26.328" transform="translate(0 13.164)" fill="none" stroke="#0080f4" stroke-width="1"/>
          <line id="直线_195" data-name="直线 195" x2="23.313" transform="translate(1.508 7.044)" fill="none" stroke="#0080f4" stroke-miterlimit="10" stroke-width="1"/>
          <line id="直线_196" data-name="直线 196" x2="23.038" transform="translate(1.508 19.284)" fill="none" stroke="#0080f4" stroke-miterlimit="10" stroke-width="1"/>
          <line id="直线_197" data-name="直线 197" y1="26.954" transform="translate(13.368 0.026)" fill="none" stroke="#0080f4" stroke-miterlimit="10" stroke-width="1"/>
          <ellipse id="椭圆_1643" data-name="椭圆 1643" cx="6.958" cy="13.151" rx="6.958" ry="13.151" transform="translate(6.305 0.026)" fill="none" stroke="#0080f4" stroke-miterlimit="10" stroke-width="1"/>
        </g>
        <g id="组_21425" data-name="组 21425" transform="translate(209.007 173.15)">
          <rect id="矩形_2213" data-name="矩形 2213" width="13.053" height="10.108" transform="translate(0 8.668)" fill="none" stroke="#0080f4" stroke-miterlimit="10" stroke-width="1"/>
          <path id="矩形_2214" data-name="矩形 2214" d="M1713.4,628.291h0a5.024,5.024,0,0,1,5.024,5.024v3.59H1708.38v-3.59A5.024,5.024,0,0,1,1713.4,628.291Z" transform="translate(-1707.047 -628.291)" fill="none" stroke="#0080f4" stroke-miterlimit="10" stroke-width="1"/>
          <line id="直线_198" data-name="直线 198" y2="3.032" transform="translate(6.526 12.205)" fill="none" stroke="#0080f4" stroke-linecap="round" stroke-miterlimit="10" stroke-width="1"/>
        </g>
        <g id="组_21797" data-name="组 21797" transform="translate(10.769 52.065)">
          <path id="路径_38720" data-name="路径 38720" d="M1296.165,370.624l-6.906-1.279a.647.647,0,0,0-.229,0l-6.946,1.279a.629.629,0,0,0-.514.619v8.187a5.945,5.945,0,0,0,1.208,3.586,9.279,9.279,0,0,0,2.559,2.291,14.686,14.686,0,0,0,3.647,1.633.627.627,0,0,0,.327,0,14.748,14.748,0,0,0,3.625-1.648,9.315,9.315,0,0,0,2.544-2.3,5.932,5.932,0,0,0,1.2-3.568v-8.183A.629.629,0,0,0,1296.165,370.624Zm-.366,8.882c0,1.954-1.119,3.662-3.325,5.077a15,15,0,0,1-3.276,1.531.162.162,0,0,1-.108,0q-6.639-2.268-6.639-6.607v-7.981a.167.167,0,0,1,.136-.165l6.528-1.2a.162.162,0,0,1,.06,0l6.487,1.2a.167.167,0,0,1,.136.165Z" transform="translate(-1281.57 -369.334)" fill="#0c111a"/>
        </g>
        <g id="组_21426-2" data-name="组 21426" transform="translate(277.055 13.766)">
          <path id="路径_37377-2-2" data-name="路径 37377-2" d="M1854.241,309.45a3.467,3.467,0,0,0-1.767.4,2.265,2.265,0,0,1-.732.21c-.327-.2-.254-.623-.108-.9a2.513,2.513,0,0,1,.586-.688,4,4,0,0,1,1.73-.748l-.051-.463a3.573,3.573,0,0,0-1.977.855,2.913,2.913,0,0,0-.7.818c-.283.631-.261,1.388.493,1.587a2.273,2.273,0,0,0,.935-.246c.534-.2,1.2-.554,1.716-.3Z" transform="translate(-1851.059 -297.987)"/>
          <path id="路径_37378-2-2" data-name="路径 37378-2" d="M1857.528,299.419a19.652,19.652,0,0,0,1.376,3.81,11.708,11.708,0,0,0,2.238,3.252,4.125,4.125,0,0,0,2.81,1.34,7.7,7.7,0,0,0,4.15-1.55c.572-.381,1.075-.758,1.484-1.035a2.47,2.47,0,0,1,.855-.427,3.452,3.452,0,0,1,1.152.327c.445.187.91.421,1.309.579a.243.243,0,0,0,.307-.156.257.257,0,0,0,.011-.054,2.994,2.994,0,0,0-1.917-2.825,3.555,3.555,0,0,0-2.9.166c.527-1.127,1.122-2.341,1.637-3.571a11.328,11.328,0,0,0,1.094-3.969c0-4.752-3.565-7.88-6.953-7.88a7.131,7.131,0,0,0-7.185,7.4v.014a13.556,13.556,0,0,0,.058,1.861l.051.463c.07.568.161,1.146.29,1.724Z" transform="translate(-1854.216 -287.427)" fill="#fff" stroke="#000" stroke-miterlimit="10" stroke-width="0.5"/>
          <path id="路径_37379-2-2" data-name="路径 37379-2" d="M1870.167,296.116a1.605,1.605,0,0,1,1.356-1.262c.619.012,1.034.671,1.26,1.253a6.829,6.829,0,0,1,.363,2.224.245.245,0,0,1-.27.217.251.251,0,0,1-.093-.03,2.43,2.43,0,0,0-1.26-.3,2.458,2.458,0,0,0-1.268.3.244.244,0,0,1-.329-.1.24.24,0,0,1-.026-.083A7.666,7.666,0,0,1,1870.167,296.116Z" transform="translate(-1861.089 -291.381)"/>
          <path id="路径_37380-2-2" data-name="路径 37380-2" d="M1860.834,298.521a.244.244,0,0,1-.355-.187,7.647,7.647,0,0,1,.268-2.216,1.6,1.6,0,0,1,1.356-1.262c.619.012,1.034.671,1.263,1.253a6.848,6.848,0,0,1,.362,2.224.244.244,0,0,1-.362.187,2.777,2.777,0,0,0-2.532,0Z" transform="translate(-1856.073 -291.382)"/>
          <path id="路径_37381-2-2" data-name="路径 37381-2" d="M1869.849,308.3a3.489,3.489,0,0,0-3.781-.3,4.2,4.2,0,0,0-1.283.949c-.3.351-.574.856-.058,1.122a2.448,2.448,0,0,0,.819-.043,2.942,2.942,0,0,1,2.274.224l-.29.362a2.58,2.58,0,0,0-1.905-.13,2.6,2.6,0,0,1-1.006.043c-1.01-.263-.627-1.341-.181-1.883a4.615,4.615,0,0,1,1.427-1.057,4.084,4.084,0,0,1,4.266.34Z" transform="translate(-1857.939 -297.926)"/>
        </g>
        <g id="组_21798" data-name="组 21798" transform="translate(14.196 58.408)">
          <path id="路径_38721" data-name="路径 38721" d="M1291.987,387.839a.731.731,0,0,1-.464-.165l-2.434-1.991a.514.514,0,0,1,.651-.8l2.248,1.839,4.584-3.711a.514.514,0,0,1,.647.8l-4.771,3.862A.73.73,0,0,1,1291.987,387.839Z" transform="translate(-1288.9 -382.9)" fill="#0c111a"/>
        </g>
        <path id="路径_38722" data-name="路径 38722" d="M1884.362,555.711l-.015-.015a.3.3,0,0,0-.427,0l-3.765,3.874c-.005,0-.013,0-.015,0l-1.766-1.818a.312.312,0,1,0-.448.434l2,2.061a.3.3,0,0,0,.194.089h.044a.305.305,0,0,0,.2-.089l4-4.118A.3.3,0,0,0,1884.362,555.711Z" transform="translate(-1588.642 -417.582)" fill="#0080f4" stroke="#0080f4" stroke-width="1"/>
        <g id="组_21799" data-name="组 21799" transform="translate(276.821 126.32)">
          <path id="路径_38723" data-name="路径 38723" d="M1859.635,556.187a.444.444,0,1,0,0,.887h5.763a.444.444,0,0,0,0-.887Z" transform="translate(-1855.155 -543.072)" fill="#0080f4" stroke="#0080f4" stroke-miterlimit="10" stroke-width="0.25"/>
          <path id="路径_38724" data-name="路径 38724" d="M1867.839,547.26a.445.445,0,0,0-.444-.444h-7.76a.444.444,0,0,0,0,.888h7.76A.445.445,0,0,0,1867.839,547.26Z" transform="translate(-1855.155 -538.082)" fill="#0080f4" stroke="#0080f4" stroke-miterlimit="10" stroke-width="0.25"/>
          <path id="路径_38725" data-name="路径 38725" d="M1867.4,537.445h-7.76a.444.444,0,0,0,0,.888h7.76a.444.444,0,0,0,0-.888Z" transform="translate(-1855.155 -533.093)" fill="#0080f4" stroke="#0080f4" stroke-miterlimit="10" stroke-width="0.25"/>
          <path id="路径_38727" data-name="路径 38727" d="M1866.214,546.606h-14.7a.269.269,0,0,1-.269-.268V529.1a.269.269,0,0,1,.269-.268h14.8a.269.269,0,0,1,.268.268v9.237a.345.345,0,1,0,.691,0V529.1a.96.96,0,0,0-.959-.959h-14.8a.96.96,0,0,0-.959.959v17.241a.96.96,0,0,0,.959.959h14.7a.345.345,0,0,0,0-.691Z" transform="translate(-1850.559 -528.138)" fill="#0080f4" stroke="#0080f4" stroke-miterlimit="10" stroke-width="0.25"/>
        </g>
      </g>
      <g id="蒙版组_29" data-name="蒙版组 29" transform="translate(10.685 108)" clip-path="url(#clip-path)">
        <g id="组_21645" data-name="组 21645" transform="translate(211.18 -15.165)" opacity="0.05">
          <g id="组_21643" data-name="组 21643" transform="translate(193.995 110.23)">
            <path id="路径_38579" data-name="路径 38579" d="M931.22-360.38l-45.353-26.185a9.634,9.634,0,0,1-4.817-8.343v-52.37a9.635,9.635,0,0,1,4.817-8.344l45.353-26.185a9.635,9.635,0,0,1,9.634,0l45.354,26.185a9.635,9.635,0,0,1,4.817,8.344v52.37a9.634,9.634,0,0,1-4.817,8.343L940.854-360.38A9.635,9.635,0,0,1,931.22-360.38Z" transform="translate(-874.82 488.686)" fill="none" stroke="#000" stroke-miterlimit="10" stroke-width="1"/>
            <line id="直线_476" data-name="直线 476" y1="6.721" transform="translate(0 39.151)" fill="none" stroke="#000" stroke-miterlimit="10" stroke-width="1"/>
            <line id="直线_477" data-name="直线 477" y1="31.078" transform="translate(0 52.122)" fill="none" stroke="#000" stroke-miterlimit="10" stroke-width="1"/>
            <line id="直线_478" data-name="直线 478" x1="5.582" y1="3.223" transform="translate(6.392 106.529)" fill="none" stroke="#000" stroke-miterlimit="10" stroke-width="1"/>
            <line id="直线_479" data-name="直线 479" x1="27.465" y1="15.857" transform="translate(17.184 112.759)" fill="none" stroke="#000" stroke-miterlimit="10" stroke-width="1"/>
            <line id="直线_480" data-name="直线 480" x1="5.393" y2="3.114" transform="translate(67.97 131.474)" fill="none" stroke="#000" stroke-miterlimit="10" stroke-width="1"/>
            <line id="直线_481" data-name="直线 481" x1="27.281" y2="15.751" transform="translate(78.911 112.521)" fill="none" stroke="#000" stroke-miterlimit="10" stroke-width="1"/>
            <line id="直线_482" data-name="直线 482" y2="6.378" transform="translate(122.963 89.236)" fill="none" stroke="#000" stroke-miterlimit="10" stroke-width="1"/>
            <line id="直线_483" data-name="直线 483" y2="31.421" transform="translate(122.963 51.009)" fill="none" stroke="#000" stroke-miterlimit="10" stroke-width="1"/>
            <line id="直线_484" data-name="直线 484" x2="5.596" y2="3.231" transform="translate(111.023 24.952)" fill="none" stroke="#000" stroke-miterlimit="10" stroke-width="1"/>
            <line id="直线_485" data-name="直线 485" x2="27.305" y2="15.764" transform="translate(78.205 6.005)" fill="none" stroke="#000" stroke-miterlimit="10" stroke-width="1"/>
            <line id="直线_486" data-name="直线 486" y1="3.143" x2="5.444" transform="translate(49.714)" fill="none" stroke="#000" stroke-miterlimit="10" stroke-width="1" opacity="0.5"/>
            <line id="直线_487" data-name="直线 487" y1="15.629" x2="27.07" transform="translate(16.814 6.51)" fill="none" stroke="#000" stroke-miterlimit="10" stroke-width="1"/>
          </g>
          <path id="路径_38580" data-name="路径 38580" d="M1121.836-572.841,1098.353-586.4a9.633,9.633,0,0,1-4.817-8.343v-27.116a9.633,9.633,0,0,1,4.817-8.343l23.483-13.558a9.632,9.632,0,0,1,9.634,0l23.483,13.558a9.634,9.634,0,0,1,4.817,8.343v27.116a9.634,9.634,0,0,1-4.817,8.343l-23.483,13.558A9.635,9.635,0,0,1,1121.836-572.841Z" transform="translate(-784.161 677.675)" fill="none" stroke="#000" stroke-miterlimit="10" stroke-width="1"/>
          <path id="路径_38581" data-name="路径 38581" d="M1170.854-501.2l-4.365,2.52a9.77,9.77,0,0,1-.945.479" transform="translate(-819.179 607.718)" fill="none" stroke="#000" stroke-miterlimit="10" stroke-width="1"/>
          <path id="路径_38582" data-name="路径 38582" d="M1208.226-539.016a9.636,9.636,0,0,1-4.535,6.029l-18.342,10.59" transform="translate(-828.81 626.109)" fill="none" stroke="#000" stroke-miterlimit="10" stroke-width="1"/>
          <line id="直线_488" data-name="直线 488" y2="5.972" transform="translate(379.697 59.186)" fill="none" stroke="#000" stroke-miterlimit="10" stroke-width="1"/>
          <path id="路径_38583" data-name="路径 38583" d="M1190.822-638.194l15.53,8.967a9.633,9.633,0,0,1,4.817,8.343" transform="translate(-831.472 674.341)" fill="none" stroke="#000" stroke-miterlimit="10" stroke-width="1"/>
          <path id="路径_38584" data-name="路径 38584" d="M1141.4-649.955l3.716-2.146q.374-.216.762-.4" transform="translate(-807.435 681.296)" fill="none" stroke="#000" stroke-miterlimit="10" stroke-width="1"/>
          <path id="路径_38585" data-name="路径 38585" d="M1086.423-625.423a9.634,9.634,0,0,1,4.384-5.485l18.606-10.743" transform="translate(-780.701 676.022)" fill="none" stroke="#000" stroke-miterlimit="10" stroke-width="1"/>
          <path id="路径_38587" data-name="路径 38587" d="M1006.642-519.884l19.545-35.019a9.633,9.633,0,0,1,8.272-4.938l12.461-.181" transform="translate(-741.903 636.325)" fill="none" stroke="#000" stroke-miterlimit="10" stroke-width="1"/>
          <path id="路径_38588" data-name="路径 38588" d="M1291.57-590l-4.505,9.978c-1.134,2.511-3.088,3.938-5.127,3.743l-1.62-.154" transform="translate(-867.294 650.901)" fill="none" stroke="#000" stroke-miterlimit="10" stroke-width="1"/>
          <path id="路径_38589" data-name="路径 38589" d="M1295.855-367.945l-6.158-9.922a9.634,9.634,0,0,0-8.492-4.549l-5.815.087" transform="translate(-872.599 549.955)" fill="none" stroke="#000" stroke-miterlimit="10" stroke-width="1"/>
          <path id="路径_38590" data-name="路径 38590" d="M1120.52-160.623,1102.541-171a9.634,9.634,0,0,1-4.817-8.343v-20.761a9.633,9.633,0,0,1,4.817-8.343l17.979-10.381a9.635,9.635,0,0,1,9.634,0l17.98,10.381a9.633,9.633,0,0,1,4.817,8.343v20.761a9.634,9.634,0,0,1-4.817,8.343l-17.98,10.381A9.635,9.635,0,0,1,1120.52-160.623Z" transform="translate(-786.197 471.027)" fill="none" stroke="#000" stroke-miterlimit="10" stroke-width="1"/>
          <path id="路径_38592" data-name="路径 38592" d="M1102.125-137.645l-6.434-3.714a9.636,9.636,0,0,1-4.817-8.344v-13.639" transform="translate(-782.866 443.415)" fill="none" stroke="#000" stroke-miterlimit="10" stroke-width="1"/>
          <path id="路径_38593" data-name="路径 38593" d="M1163.486-100.947l-4.058,2.343a9.643,9.643,0,0,1-1.509.7" transform="translate(-815.471 413.07)" fill="none" stroke="#000" stroke-miterlimit="10" stroke-width="1"/>
          <path id="路径_38594" data-name="路径 38594" d="M1197.046-151.51v7.561a9.635,9.635,0,0,1-4.817,8.344l-11.067,6.389" transform="translate(-826.774 437.66)" fill="none" stroke="#000" stroke-miterlimit="10" stroke-width="1"/>
          <path id="路径_38595" data-name="路径 38595" d="M1195.024-205.792l3.946,2.278a9.644,9.644,0,0,1,1.576,1.136" transform="translate(-833.516 464.058)" fill="none" stroke="#000" stroke-miterlimit="10" stroke-width="1"/>
          <path id="路径_38597" data-name="路径 38597" d="M522.766-526l-19.514-11.266a9.634,9.634,0,0,1-4.817-8.343v-22.533a9.634,9.634,0,0,1,4.817-8.343l19.514-11.266a9.634,9.634,0,0,1,9.634,0l19.513,11.266a9.634,9.634,0,0,1,4.817,8.343v22.533a9.634,9.634,0,0,1-4.817,8.343L532.4-526A9.635,9.635,0,0,1,522.766-526Z" transform="translate(-494.755 650.438)" fill="none" stroke="#000" stroke-miterlimit="10" stroke-width="1"/>
          <g id="组_21644" data-name="组 21644" transform="translate(0 57.145)">
            <path id="路径_38598" data-name="路径 38598" d="M491.271-548.956v-5.085a9.6,9.6,0,0,1,.14-1.635" transform="translate(-491.271 577.066)" fill="none" stroke="#000" stroke-miterlimit="10" stroke-width="1"/>
            <path id="路径_38599" data-name="路径 38599" d="M503.131-502.165l-7.043-4.066a9.635,9.635,0,0,1-4.817-8.343v-15.019" transform="translate(-491.271 564.381)" fill="none" stroke="#000" stroke-miterlimit="10" stroke-width="1"/>
            <line id="直线_489" data-name="直线 489" x1="4.754" y2="2.745" transform="translate(37.645 68.796)" fill="none" stroke="#000" stroke-miterlimit="10" stroke-width="1"/>
            <path id="路径_38600" data-name="路径 38600" d="M602.4-500.356a9.649,9.649,0,0,1-.138,1.626,9.637,9.637,0,0,1-4.679,6.717l-12.805,7.393" transform="translate(-536.745 550.163)" fill="none" stroke="#000" stroke-miterlimit="10" stroke-width="1"/>
            <path id="路径_38601" data-name="路径 38601" d="M601.06-573.727l4.441,2.564a9.69,9.69,0,0,1,1.139.771" transform="translate(-544.663 585.844)" fill="none" stroke="#000" stroke-miterlimit="10" stroke-width="1"/>
            <path id="路径_38602" data-name="路径 38602" d="M532.161-591.98l7.006-4.045a9.634,9.634,0,0,1,9.634,0l12.77,7.372" transform="translate(-511.156 597.316)" fill="none" stroke="#000" stroke-miterlimit="10" stroke-width="1"/>
          </g>
          <path id="路径_38603" data-name="路径 38603" d="M746.694-228.043,728.651-238.46a9.633,9.633,0,0,1-4.817-8.343v-20.834a9.634,9.634,0,0,1,4.817-8.343L746.694-286.4a9.635,9.635,0,0,1,9.634,0l18.043,10.417a9.634,9.634,0,0,1,4.817,8.343V-246.8a9.633,9.633,0,0,1-4.817,8.343l-18.043,10.417A9.635,9.635,0,0,1,746.694-228.043Z" transform="translate(-604.37 503.885)" fill="none" stroke="#000" stroke-miterlimit="10" stroke-width="1"/>
          <path id="路径_38604" data-name="路径 38604" d="M811.517-197.36a9.633,9.633,0,0,1-4.137,4.788l-21.566,12.451a9.643,9.643,0,0,1-1.609.741" transform="translate(-633.729 459.957)" fill="none" stroke="#000" stroke-miterlimit="10" stroke-width="1"/>
          <path id="路径_38605" data-name="路径 38605" d="M821.241-273.667l4.15,2.4a9.634,9.634,0,0,1,4.817,8.343v21.446" transform="translate(-651.74 497.066)" fill="none" stroke="#000" stroke-miterlimit="10" stroke-width="1"/>
          <path id="路径_38606" data-name="路径 38606" d="M719.27-277.557a9.637,9.637,0,0,1,2.5-3.1,9.645,9.645,0,0,1,1.263-.87L744.6-293.974a9.689,9.689,0,0,1,1.7-.774" transform="translate(-602.15 507.318)" fill="none" stroke="#000" stroke-miterlimit="10" stroke-width="1"/>
          <path id="路径_38607" data-name="路径 38607" d="M725.973-213.514l-3.934-2.272a9.635,9.635,0,0,1-4.817-8.344v-20.964" transform="translate(-601.154 483.171)" fill="none" stroke="#000" stroke-miterlimit="10" stroke-width="1"/>
          <path id="路径_38608" data-name="路径 38608" d="M750.674-557.748,724.223-573.02a9.633,9.633,0,0,1-4.817-8.343v-30.543a9.635,9.635,0,0,1,4.817-8.344l26.451-15.271a9.632,9.632,0,0,1,9.634,0l26.452,15.271a9.635,9.635,0,0,1,4.817,8.344v30.543a9.633,9.633,0,0,1-4.817,8.343l-26.452,15.272A9.635,9.635,0,0,1,750.674-557.748Z" transform="translate(-602.216 673.669)" fill="none" stroke="#000" stroke-miterlimit="10" stroke-width="1"/>
          <line id="直线_490" data-name="直线 490" y1="6.357" transform="translate(112.738 81.339)" fill="none" stroke="#000" stroke-miterlimit="10" stroke-width="1"/>
          <path id="路径_38609" data-name="路径 38609" d="M732.987-505.458l-17.432-10.064a9.634,9.634,0,0,1-4.817-8.343" transform="translate(-598.001 618.741)" fill="none" stroke="#000" stroke-miterlimit="10" stroke-width="1"/>
          <line id="直线_491" data-name="直线 491" x1="5.066" y2="2.925" transform="translate(158.092 118.136)" fill="none" stroke="#000" stroke-miterlimit="10" stroke-width="1"/>
          <line id="直线_492" data-name="直线 492" y2="6.228" transform="translate(193.813 66.313)" fill="none" stroke="#000" stroke-miterlimit="10" stroke-width="1"/>
          <path id="路径_38611" data-name="路径 38611" d="M825.669-628.929l17.22,9.942a9.634,9.634,0,0,1,4.817,8.343v.893" transform="translate(-653.893 669.835)" fill="none" stroke="#000" stroke-miterlimit="10" stroke-width="1"/>
          <line id="直线_493" data-name="直线 493" y1="2.742" x2="4.749" transform="translate(143.709 33.006)" fill="none" stroke="#000" stroke-miterlimit="10" stroke-width="1"/>
          <path id="路径_38612" data-name="路径 38612" d="M711.649-615.615A9.631,9.631,0,0,1,716-620.993l20.892-12.062" transform="translate(-598.444 671.841)" fill="none" stroke="#000" stroke-miterlimit="10" stroke-width="1"/>
          <path id="路径_38613" data-name="路径 38613" d="M1332.34-636.579,1312.725-647.9a9.634,9.634,0,0,1-4.817-8.343V-678.9a9.635,9.635,0,0,1,4.817-8.344l19.615-11.324a9.635,9.635,0,0,1,9.634,0l19.615,11.324a9.634,9.634,0,0,1,4.817,8.344v22.649a9.634,9.634,0,0,1-4.817,8.343l-19.615,11.324A9.632,9.632,0,0,1,1332.34-636.579Z" transform="translate(-888.413 704.327)" fill="none" stroke="#000" stroke-miterlimit="10" stroke-width="1"/>
          <path id="路径_38614" data-name="路径 38614" d="M1329.118-699.519l13.426-7.751a9.637,9.637,0,0,1,8.487-.565" transform="translate(-898.727 708.561)" fill="none" stroke="#000" stroke-miterlimit="10" stroke-width="1"/>
          <path id="路径_38615" data-name="路径 38615" d="M1300.6-641.283v-23.154q0-.409.034-.813" transform="translate(-884.86 687.499)" fill="none" stroke="#000" stroke-miterlimit="10" stroke-width="1"/>
          <path id="路径_38616" data-name="路径 38616" d="M1319.141-593.752l-13.606-7.856a9.633,9.633,0,0,1-4.7-6.822" transform="translate(-884.974 659.866)" fill="none" stroke="#000" stroke-miterlimit="10" stroke-width="1"/>
          <path id="路径_38617" data-name="路径 38617" d="M1393.031-591.61,1372.923-580a9.651,9.651,0,0,1-1.148.565" transform="translate(-919.472 651.686)" fill="none" stroke="#000" stroke-miterlimit="10" stroke-width="1"/>
          <path id="路径_38618" data-name="路径 38618" d="M1424.1-641.676v15.557a9.633,9.633,0,0,1-4.817,8.343" transform="translate(-942.575 676.034)" fill="none" stroke="#000" stroke-miterlimit="10" stroke-width="1"/>
          <path id="路径_38619" data-name="路径 38619" d="M1380.022-702.577l20.167,11.644a9.683,9.683,0,0,1,1.063.711" transform="translate(-923.482 705.651)" fill="none" stroke="#000" stroke-miterlimit="10" stroke-width="1"/>
          <path id="路径_38620" data-name="路径 38620" d="M1320.684-303.176l-23.475-13.554a9.633,9.633,0,0,1-4.817-8.343V-352.18a9.634,9.634,0,0,1,4.817-8.343l23.475-13.554a9.635,9.635,0,0,1,9.634,0l23.475,13.554a9.634,9.634,0,0,1,4.817,8.343v27.107a9.633,9.633,0,0,1-4.817,8.343l-23.475,13.554A9.632,9.632,0,0,1,1320.684-303.176Z" transform="translate(-880.866 546.525)" fill="none" stroke="#000" stroke-miterlimit="10" stroke-width="1"/>
          <path id="路径_38623" data-name="路径 38623" d="M1416.463-300.676v13.667a9.636,9.636,0,0,1-4.817,8.343l-8.139,4.7" transform="translate(-934.903 510.201)" fill="none" stroke="#000" stroke-miterlimit="10" stroke-width="1"/>
          <path id="路径_38624" data-name="路径 38624" d="M1393.159-366.481l13.455,7.768a9.675,9.675,0,0,1,.924.607" transform="translate(-929.871 542.203)" fill="none" stroke="#000" stroke-miterlimit="10" stroke-width="1"/>
          <path id="路径_38625" data-name="路径 38625" d="M1324.258-376.143l12.057-6.961a9.635,9.635,0,0,1,9.634,0l8.147,4.7" transform="translate(-896.364 550.915)" fill="none" stroke="#000" stroke-miterlimit="10" stroke-width="1"/>
          <path id="路径_38626" data-name="路径 38626" d="M611.92-555.129h21.436a4.966,4.966,0,0,0,4.966-4.966v-9.161a6.421,6.421,0,0,1,6.421-6.421h22.391" transform="translate(-549.944 643.937)" fill="none" stroke="#000" stroke-miterlimit="10" stroke-width="1"/>
          <line id="直线_495" data-name="直线 495" x2="26.198" transform="translate(317.824 168.088)" fill="none" stroke="#000" stroke-miterlimit="10" stroke-width="1"/>
          <line id="直线_496" data-name="直线 496" x2="28.831" transform="translate(350.422 168.024)" fill="none" stroke="#000" stroke-miterlimit="10" stroke-width="1"/>
          <path id="路径_38628" data-name="路径 38628" d="M43.311,63.448" transform="translate(165.896 77.44)" fill="none" stroke="#000" stroke-width="1"/>
          <line id="直线_499" data-name="直线 499" y2="5.822" transform="translate(305.722 73.27)" fill="none" stroke="#000" stroke-miterlimit="10" stroke-width="1"/>
          <line id="直线_501" data-name="直线 501" x2="14.655" y2="22.389" transform="translate(276.457 236.451)" fill="none" stroke="#000" stroke-miterlimit="10" stroke-width="1"/>
          <line id="直线_502" data-name="直线 502" x1="16.109" y2="23.903" transform="translate(205.049 228.75)" fill="none" stroke="#000" stroke-miterlimit="10" stroke-width="1"/>
          <path id="路径_38627" data-name="路径 38627" d="M831.02-205.142h21.77s3.253.226,4.966-1.7" transform="translate(-656.495 464.569)" fill="none" stroke="#000" stroke-miterlimit="10" stroke-width="1"/>
        </g>
      </g>
    </g>
    <path id="路径_39973" data-name="路径 39973" d="M2.085-4A1.733,1.733,0,0,0,.8-3.5a2.141,2.141,0,0,0-.57,1.56A1.856,1.856,0,0,0,2.09.145,1.862,1.862,0,0,0,3.96-1.94,2.156,2.156,0,0,0,3.4-3.5,1.752,1.752,0,0,0,2.085-4ZM2.1-.45a1.08,1.08,0,0,1-.775-.305,1.652,1.652,0,0,1-.4-1.18c0-.9.455-1.475,1.175-1.475a1.076,1.076,0,0,1,.77.305A1.615,1.615,0,0,1,3.26-1.94C3.26-1.02,2.815-.45,2.1-.45ZM15.24-3.92a4.07,4.07,0,0,1,.04.685v1.76A.913.913,0,0,1,14.265-.44.916.916,0,0,1,13.24-1.47V-3.235a3.921,3.921,0,0,1,.04-.685h-.745a4.108,4.108,0,0,1,.04.685V-1.47A1.611,1.611,0,0,0,12.95-.32a1.723,1.723,0,0,0,1.29.47,1.506,1.506,0,0,0,1.7-1.615V-3.24a4.041,4.041,0,0,1,.04-.68ZM28.055.06c-.07-.135-.195-.405-.235-.5-.5-1.17-.59-1.31-.905-1.41a1.057,1.057,0,0,0,.555-.29,1.028,1.028,0,0,0,.255-.745c0-.66-.435-1.04-1.195-1.04h-1.2c-.275,0-.43-.005-.64-.015a4.449,4.449,0,0,1,.04.65v2.7a3.913,3.913,0,0,1-.04.65h.745A3.9,3.9,0,0,1,25.4-.6v-1.02h.745c.385,0,.56.185.83.875a4.048,4.048,0,0,1,.26.8ZM25.4-2.185V-3.35H26.42c.41,0,.615.185.615.545a.593.593,0,0,1-.16.44.674.674,0,0,1-.475.18ZM48.625.06a4.072,4.072,0,0,1,.22-.665l.75-1.76a6.1,6.1,0,0,0,.23-.73c-.005.075-.02.33-.04.765V-.67a4.649,4.649,0,0,1-.04.73h.7a4.334,4.334,0,0,1-.04-.73V-3.18a5.178,5.178,0,0,1,.04-.74h-.92a2.771,2.771,0,0,1-.18.6l-1.01,2.48L47.32-3.325a3.46,3.46,0,0,1-.185-.6H46.22a4.96,4.96,0,0,1,.04.74V-.67a4.69,4.69,0,0,1-.04.73h.7a4.569,4.569,0,0,1-.04-.73V-2.31c0-.11-.02-.52-.04-.785a5.564,5.564,0,0,0,.255.765l.72,1.715a3.4,3.4,0,0,1,.22.675Zm10.53-3.98a3.736,3.736,0,0,1,.04.645v2.69a3.773,3.773,0,0,1-.04.645h.76a3.772,3.772,0,0,1-.04-.645v-2.69a3.735,3.735,0,0,1,.04-.645ZM68.49-1.105a1.709,1.709,0,0,0,.1.415,1.177,1.177,0,0,0,.44.57,2.01,2.01,0,0,0,1.05.26A1.657,1.657,0,0,0,71.27-.24a1.163,1.163,0,0,0,.315-.85.987.987,0,0,0-.415-.86,2.2,2.2,0,0,0-.815-.305,4.257,4.257,0,0,1-.7-.18.475.475,0,0,1-.34-.455c0-.325.295-.545.73-.545a.791.791,0,0,1,.625.24.646.646,0,0,1,.15.355l.715-.085a1.348,1.348,0,0,0-.245-.58A1.474,1.474,0,0,0,70.04-4.01c-.86,0-1.42.45-1.42,1.145a.984.984,0,0,0,.385.81,1.767,1.767,0,0,0,.755.3,3.153,3.153,0,0,1,.87.245.508.508,0,0,1,.25.46c0,.375-.3.6-.8.6a.888.888,0,0,1-.73-.3.717.717,0,0,1-.14-.44Zm11.575,0a1.709,1.709,0,0,0,.1.415,1.177,1.177,0,0,0,.44.57,2.01,2.01,0,0,0,1.05.26,1.657,1.657,0,0,0,1.195-.38,1.163,1.163,0,0,0,.315-.85.987.987,0,0,0-.415-.86,2.2,2.2,0,0,0-.815-.305,4.257,4.257,0,0,1-.7-.18.475.475,0,0,1-.34-.455c0-.325.295-.545.73-.545a.791.791,0,0,1,.625.24.646.646,0,0,1,.15.355l.715-.085a1.348,1.348,0,0,0-.245-.58,1.474,1.474,0,0,0-1.245-.505c-.86,0-1.42.45-1.42,1.145a.984.984,0,0,0,.385.81,1.767,1.767,0,0,0,.755.3,3.153,3.153,0,0,1,.87.245.508.508,0,0,1,.25.46c0,.375-.3.6-.8.6a.888.888,0,0,1-.73-.3.717.717,0,0,1-.14-.44ZM91.77-3.92a3.736,3.736,0,0,1,.04.645v2.69a3.773,3.773,0,0,1-.04.645h.76a3.773,3.773,0,0,1-.04-.645v-2.69a3.736,3.736,0,0,1,.04-.645ZM102.965-4a1.733,1.733,0,0,0-1.29.5,2.141,2.141,0,0,0-.57,1.56A1.856,1.856,0,0,0,102.97.145a1.862,1.862,0,0,0,1.87-2.085,2.156,2.156,0,0,0-.56-1.56A1.752,1.752,0,0,0,102.965-4Zm.015,3.55a1.08,1.08,0,0,1-.775-.305,1.652,1.652,0,0,1-.4-1.18c0-.9.455-1.475,1.175-1.475a1.076,1.076,0,0,1,.77.305,1.615,1.615,0,0,1,.4,1.165C104.14-1.02,103.695-.45,102.98-.45Zm13.84.51a3.773,3.773,0,0,1-.04-.645V-3.23a4.372,4.372,0,0,1,.04-.69h-.73a4.371,4.371,0,0,1,.04.69v1.68c0,.21.015.51.035.7-.11-.2-.27-.46-.39-.64l-1.265-1.9a2.742,2.742,0,0,1-.305-.53h-.78a4.165,4.165,0,0,1,.04.645V-.7a5.411,5.411,0,0,1-.04.755h.73a5.534,5.534,0,0,1-.04-.75V-2.33c0-.115-.01-.34-.015-.435-.015-.185-.015-.185-.02-.255.12.235.245.45.34.6l1.29,1.945a4.981,4.981,0,0,1,.32.535Z" transform="translate(19095.775 -226)"/>
    <path id="路径_40006" data-name="路径 40006" d="M11.76-14.028a15.27,15.27,0,0,1-2.436,3.444c-.336-.224-.672-.476-1.092-.728a26.91,26.91,0,0,0,3.108-5.124,12.472,12.472,0,0,1,.616-1.176l-1.288-1.624a11.8,11.8,0,0,1-1.988.112H7.168l1.848-1.12A18.51,18.51,0,0,0,6.44-23.66L4.088-22.176a15.419,15.419,0,0,1,2.156,3.052H4.228a15.8,15.8,0,0,1-2.6-.14V-16.3a20.352,20.352,0,0,1,2.548-.14H8.2a18.18,18.18,0,0,1-3.556,5.068A21.49,21.49,0,0,1,.532-8.12a8.383,8.383,0,0,1,1.456,2.8,27.737,27.737,0,0,0,3.192-2.6c-.028.868-.028,1.344-.028,1.4v5.292c0,1.288-.084,2.52-.168,3.444H8.232a27.162,27.162,0,0,1-.168-3.444V-8.344a19.3,19.3,0,0,1,3.08,3.052L12.8-7.7a15.658,15.658,0,0,0-1.624-1.484,19.508,19.508,0,0,0,2.66-3.276Zm11.116-4.844c-.028,4.2-.056,5.964-.168,8.708C22.6-7.9,22.344-4.816,22.12-3.612c-.308,1.9-.56,2.24-1.792,2.24a26.539,26.539,0,0,1-3.5-.308A9.168,9.168,0,0,1,17.5,1.456c1.568.084,2.128.112,2.94.112a5.748,5.748,0,0,0,2.828-.448A2.968,2.968,0,0,0,24.78-.9c.56-1.9.98-7.252,1.092-14.168.112-5.88.112-5.88.224-6.664a19.644,19.644,0,0,1-2.688.14H15.316a27.355,27.355,0,0,1-3.332-.168V-18.7a26.412,26.412,0,0,1,3.332-.168H15.9c0,2.072-.028,2.408-.084,3.556a23.323,23.323,0,0,1-2.408,9.66A14.1,14.1,0,0,1,9.24-.644a9.23,9.23,0,0,1,2.212,2.632,22.9,22.9,0,0,0,3-3.248,20.043,20.043,0,0,0,3.388-7.2,40.91,40.91,0,0,0,1.148-10.416Zm8.932,17.08C33.6-5.684,34.076-7.476,35-14.252L31.892-14.9C31.22-9.324,30.6-7.112,28.728-3.528ZM47.824-19.4a49.093,49.093,0,0,0-9.6-4.228l-1.792,2.66a38.373,38.373,0,0,1,9.464,4.508ZM55.468-4.032a52.56,52.56,0,0,0-4.732-11.34l-3,1.344a45.919,45.919,0,0,1,4.508,11.62ZM39.76-14.644a17.46,17.46,0,0,1,.2-2.772H36.344a20.13,20.13,0,0,1,.2,2.856V-1.344a2.623,2.623,0,0,0,.7,2.212c.756.616,1.82.784,5.1.784,4.508,0,5.712-.336,6.5-1.764.616-1.176.9-2.772,1.148-6.552a13.212,13.212,0,0,1-3.136-1.12c-.056,2.912-.252,4.76-.616,5.544-.308.644-1.092.84-3.36.84-2.576,0-3.108-.14-3.108-.84Zm35.784-6.188a22.253,22.253,0,0,1-3.136.168H70.392v-.476A11.93,11.93,0,0,1,70.56-23.6H67.144a14.982,14.982,0,0,1,.168,2.464v.476H63.224a23.611,23.611,0,0,1-3.3-.168v2.94A30.871,30.871,0,0,1,63.112-18h4.2v2.436H60.928a24.643,24.643,0,0,1-3.416-.168v3.08a28.184,28.184,0,0,1,3.36-.168h7.5A46.745,46.745,0,0,1,56.84-7.672a10.235,10.235,0,0,1,1.652,2.8c2.212-.9,2.688-1.092,4.452-1.96-.028.476-.028,1.12-.028,1.568v4.34a26,26,0,0,1-.168,3.164h3.276v-1.2H76.188v1.2h3.248a21.89,21.89,0,0,1-.168-3.164V-7.84a26.914,26.914,0,0,1,.112-3.052c-.812.056-1.6.084-2.94.084H72.324c-.728,0-1.652,0-2.268.028,1.624-1.036,1.624-1.036,3.024-2.044H79.1a29.25,29.25,0,0,1,3.472.168v-3.08a23.727,23.727,0,0,1-3.192.168H76.5a46.418,46.418,0,0,0,3.7-3.724c1.092-1.26,1.092-1.26,1.372-1.568l-2.772-1.82a21.2,21.2,0,0,1-3.248,4.256Zm-5.152,5.264V-18h2.3a19.283,19.283,0,0,1,2.352.084,29.325,29.325,0,0,1-2.688,2.352ZM66.024-8.26H76.16v2.072H66.024Zm0,4.508H76.16V-1.6H66.024Zm40.8-14.056a5.65,5.65,0,0,1-2.212.252l-6.216.028c.084-.9.084-1.12.112-1.764.056-1.456.056-1.456.112-2.044,0-.168.028-.364.028-.5a7.818,7.818,0,0,1,.112-.9L95-22.82a5.721,5.721,0,0,1,.084,1.092v.7c0,.812-.056,2.464-.14,3.5l-4.9.028a19.069,19.069,0,0,1-3.108-.2l.028,3.416a19.885,19.885,0,0,1,3.024-.14H94.64c-.028.168-.084.476-.14.868a14.4,14.4,0,0,1-1.428,4.844,15.817,15.817,0,0,1-7.28,7.084,10.9,10.9,0,0,1,2.52,2.94,20.339,20.339,0,0,0,7.56-7.756,20.22,20.22,0,0,0,2.24-8.008h6.524a63.173,63.173,0,0,1-.616,8.96c-.448,2.436-.868,3.052-2.072,3.052a13.624,13.624,0,0,1-3.7-.672A8.636,8.636,0,0,1,98.9.476a18.925,18.925,0,0,0,3.472.336c3.36,0,4.34-1.148,5.068-5.992.28-1.848.588-6.188.672-9.352a4.317,4.317,0,0,1,.308-1.848ZM102.9-21.84a17.288,17.288,0,0,1,2.52,3.808l2.212-1.008a15.2,15.2,0,0,0-2.548-3.752Zm7.952,1.4A15.4,15.4,0,0,0,108.332-24l-2.1.924a18.45,18.45,0,0,1,2.464,3.7Zm22.54-2.3a22.4,22.4,0,0,1-5.208,5.236,40.892,40.892,0,0,1-14.7,7.28,10.532,10.532,0,0,1,1.876,3.192,45.366,45.366,0,0,0,10-4.536v9.856a15.749,15.749,0,0,1-.168,3.024h3.92a21.182,21.182,0,0,1-.14-3.108V-13.748a49.514,49.514,0,0,0,6.608-5.768,11.534,11.534,0,0,1,1.036-.98Zm23.24,2.968a18.57,18.57,0,0,1,2.688,3.836l2.1-1.176a15.167,15.167,0,0,0-2.688-3.78Zm7.784.9a15.966,15.966,0,0,0-2.688-3.612l-2.016,1.092a18.454,18.454,0,0,1,2.632,3.724ZM150.78,1.26a30.782,30.782,0,0,1-.112-3.108V-9.24a14.476,14.476,0,0,0-.112-1.9,9.046,9.046,0,0,0,.952.476A66.245,66.245,0,0,1,161.42-5.32l1.96-3.3a82.263,82.263,0,0,0-12.712-5.908V-19.74a18.77,18.77,0,0,1,.112-2.94h-3.836a18,18,0,0,1,.168,2.856V-1.876a18.863,18.863,0,0,1-.168,3.136ZM170.1-4.2a30.136,30.136,0,0,1,6.076,6.384l2.6-2.436a32.728,32.728,0,0,0-6.3-6.16Z" transform="translate(19097 -181.004)" fill="#0080f4"/>
    <path id="路径_40007" data-name="路径 40007" d="M6.489,30.864a43.631,43.631,0,0,0,1.593-4.2c.275-.784.33-.952.522-1.512L5.61,24.06a17.608,17.608,0,0,1-1.044,3.92,20.36,20.36,0,0,1-4.175,7.2,17.018,17.018,0,0,1,1.263,3.332A14.869,14.869,0,0,0,3.633,35.6c-.055,2.128-.055,2.128-.055,3.108v8.344a29.96,29.96,0,0,1-.165,3.276H6.627a31.1,31.1,0,0,1-.137-3.248Zm9.118,5.628h-.714c-.851,0-1.4-.028-2-.084a13.722,13.722,0,0,1,.082,1.9v4.34a14.005,14.005,0,0,1-.082,1.9c.6-.056,1.208-.084,2-.084h4.092c.632,0,1.263.028,2.032.084a10.341,10.341,0,0,1-.082-1.96V38.34a15.7,15.7,0,0,1,.055-1.932c-.659.056-1.236.084-2.032.084h-.687V34H20.3a10.364,10.364,0,0,1,1.73.112V31.284a7.956,7.956,0,0,1-1.785.14H18.272v-.616a11.157,11.157,0,0,1,.11-1.876H15.47a10.647,10.647,0,0,1,.137,1.876v.616h-1.95a7.214,7.214,0,0,1-1.675-.14v2.828A9.96,9.96,0,0,1,13.63,34h1.978Zm-.22,2.492h3.1v3.024h-3.1ZM8.6,46.684a27.377,27.377,0,0,1-.165,3.444h2.884V48.9H22.694v1.232h2.884a30.043,30.043,0,0,1-.137-3.668V28.988a26.822,26.822,0,0,1,.11-3.444,30.286,30.286,0,0,1-3.3.112H11.488c-1.291,0-2-.028-2.994-.112.082.924.11,1.764.11,3.164ZM11.323,28.4H22.694V46.18H11.323Zm27.026,6.272c1.566,0,2.554.028,3.461.112a21.422,21.422,0,0,1-.11-2.912v-3.64c0-1.372.027-1.988.11-2.968a23.777,23.777,0,0,1-3.378.14H32.883a27,27,0,0,1-3.433-.14c.082,1.064.11,1.652.11,3.08v3.388c0,1.428-.027,2.072-.11,3.052a28.946,28.946,0,0,1,3.049-.112,32.889,32.889,0,0,1-.467,5.4c-.6,3.5-1.566,5.4-3.79,7.364a8.61,8.61,0,0,1,2.06,2.744,13.768,13.768,0,0,0,3.186-4.4,19.424,19.424,0,0,0,1.566-5.712h3.708a34.757,34.757,0,0,1-.412,6.048c-.11.588-.385.756-1.181.756a18.109,18.109,0,0,1-2.884-.28,8.872,8.872,0,0,1,.687,3.08c1.263.112,1.785.14,2.389.14,2.417,0,3.159-.392,3.625-1.932a39.516,39.516,0,0,0,.687-8.68c.027-1.12.027-1.4.082-1.96a17.007,17.007,0,0,1-2.609.14h-3.79c.055-1.036.055-1.036.11-2.716Zm-5.878-6.636h6.372v4H32.472Zm11.426-1.9a26.277,26.277,0,0,1,.165,3.416v10.64a21.893,21.893,0,0,1-.137,3.276h3.159a23.787,23.787,0,0,1-.137-3.332V29.548a22.1,22.1,0,0,1,.165-3.416ZM49.83,24.7a33.948,33.948,0,0,1,.192,3.808v17.5c0,.672-.275.84-1.346.84a33.142,33.142,0,0,1-3.708-.28,12.577,12.577,0,0,1,.934,3.136c1.154.056,1.675.084,2.335.084,3.955,0,4.724-.56,4.724-3.388V28.512a29.846,29.846,0,0,1,.192-3.808Zm20.984,5.348a5.92,5.92,0,0,1,2.774.84,6.967,6.967,0,0,1,3.378,6.216,7.872,7.872,0,0,1-3.818,7,14.386,14.386,0,0,1-5.466,1.54,8.993,8.993,0,0,1,1.675,3.276,17.687,17.687,0,0,0,4.312-1.176A10.794,10.794,0,0,0,80.344,37.3c0-6.3-4.285-10.388-10.876-10.388A11.84,11.84,0,0,0,57,38.984c0,4.508,2.252,7.756,5.383,7.756,2.252,0,4.01-1.652,5.575-5.264A41.142,41.142,0,0,0,70.813,30.052Zm-3.351.028a37.492,37.492,0,0,1-2.28,9.464c-.989,2.408-1.923,3.584-2.829,3.584-1.208,0-2.17-1.82-2.17-4.116a9.435,9.435,0,0,1,3.735-7.56A6.913,6.913,0,0,1,67.462,30.08Zm25.076.672V27.868a14.269,14.269,0,0,1,.11-2.408h-3.6a15.21,15.21,0,0,1,.137,2.492v2.8h-1.62a19.129,19.129,0,0,1-3.57-.2v3.416a27.411,27.411,0,0,1,3.516-.14h1.675v4.144a18.791,18.791,0,0,1-.11,2.408h3.57a17.567,17.567,0,0,1-.11-2.352v-4.2h7.114c-.055,1.932-.055,2.6-.11,3.248-.247,3.22-1.044,5.068-2.911,6.72a12.669,12.669,0,0,1-5.246,2.66,8.321,8.321,0,0,1,2.06,2.968,15.181,15.181,0,0,0,5.356-2.94,11.288,11.288,0,0,0,3.955-8.036,34.6,34.6,0,0,0,.192-4.62h1.84a27.411,27.411,0,0,1,3.516.14V30.556a19.129,19.129,0,0,1-3.57.2h-1.758c.027-1.68.027-1.68.027-3.388a10.538,10.538,0,0,1,.11-1.876H99.569a18.189,18.189,0,0,1,.137,3.108v.9l-.027,1.26Zm29.251-.588h-6.042a18.808,18.808,0,0,1-3.516-.2v3.444a26.7,26.7,0,0,1,3.461-.14h6.1V46.824a19.812,19.812,0,0,1-.165,3.164h3.735a24.324,24.324,0,0,1-.137-3.136V33.272h6.344a26.922,26.922,0,0,1,3.488.14V29.968a18.968,18.968,0,0,1-3.543.2h-6.29V28.68a23.6,23.6,0,0,1,.11-2.968h-3.708a15.781,15.781,0,0,1,.165,2.884Zm-6.152,5.152a13.985,13.985,0,0,1-.8,3.416,20.2,20.2,0,0,1-3.845,7.364,11.916,11.916,0,0,1,3.186,1.82A29.122,29.122,0,0,0,118.8,37.024c.11-.5.137-.532.22-.868Zm12.332.84a7.256,7.256,0,0,1,.439,1.288,37.744,37.744,0,0,0,4.5,10.472,18.093,18.093,0,0,1,3.159-1.932,26.472,26.472,0,0,1-3.9-7.532,19.835,19.835,0,0,1-.961-3.136Zm5.356-12.684a3.042,3.042,0,0,0-3.021,3.08,3.078,3.078,0,0,0,3.021,3.08,3.081,3.081,0,0,0,0-6.16Zm0,1.484a1.563,1.563,0,0,1,1.566,1.6,1.566,1.566,0,1,1-1.566-1.6Zm5.96,14.252a29.58,29.58,0,0,1,4.477-.14h14.584a29.58,29.58,0,0,1,4.477.14V35.316a26.463,26.463,0,0,1-4.449.2H143.734a26.463,26.463,0,0,1-4.449-.2ZM175.841,49.26c-.082-.924-.11-1.652-.11-3.108V38.76a14.754,14.754,0,0,0-.11-1.9,8.808,8.808,0,0,0,.934.476,64.606,64.606,0,0,1,9.723,5.348l1.923-3.3a79.979,79.979,0,0,0-12.469-5.908V28.26a19.132,19.132,0,0,1,.11-2.94h-3.763a18.345,18.345,0,0,1,.165,2.856V46.124a19.227,19.227,0,0,1-.165,3.136Zm19.445-18.2a2.977,2.977,0,0,1,.439-.028c.247,0,.247,0,.769.028.6,0,3.021.056,3.461.056,0,0,.357-.028.467-.028a1.374,1.374,0,0,0-.22.364,37.1,37.1,0,0,1-3.3,4.788,16.983,16.983,0,0,1-2.472,2.492l2.5,2.52a12.492,12.492,0,0,1,2.389-2.548c2.115-1.9,4.037-2.884,5.63-2.884a1.518,1.518,0,0,1,1.675,1.512c-3.1,1.316-4.669,2.38-5.905,3.948a4.51,4.51,0,0,0-1.208,3.108,4.076,4.076,0,0,0,2,3.612c1.4.84,3.213,1.176,6.125,1.176a48.882,48.882,0,0,0,7.031-.5,7.942,7.942,0,0,1,1.263-.112l-.275-3.612a23.444,23.444,0,0,1-8.075,1.176c-3.323,0-4.642-.588-4.642-2.044a2.956,2.956,0,0,1,1.428-2.3,16.6,16.6,0,0,1,2.637-1.456V41a22.593,22.593,0,0,1-.165,3.248l3.186-.084a11.717,11.717,0,0,1-.082-1.484c0-.2,0-.448.027-.924v-1.12c0-.392,0-.392-.027-1.12v-.308q3.543-1.26,4.12-1.428a23.858,23.858,0,0,1,3.049-.756L215.83,33.8a8.494,8.494,0,0,1-2.032.84q-1.03.336-4.2,1.512a3.625,3.625,0,0,0-3.928-2.968,6.554,6.554,0,0,0-3.873,1.26c-.357.28-.357.28-.549.42l-.027-.056a14.5,14.5,0,0,0,2.527-3.724c2.774-.084,6.262-.308,8.267-.56,1.4-.168,1.4-.168,2.17-.224l-.192-3.192a36.437,36.437,0,0,1-7.2.952c-1.511.084-1.511.084-1.73.112.055-.112.11-.2.247-.5a21.6,21.6,0,0,1,1.1-2.52l-3.6-.392a11.246,11.246,0,0,1-1.1,3.472,32.567,32.567,0,0,1-6.372-.364ZM239.725,27.9c1.071-.168,2.28-.392,3.323-.644.659-.168.742-.2,1.181-.28l-1.9-2.716a25.9,25.9,0,0,1-5.548,1.26,108.751,108.751,0,0,1-12.5.756h-2.115a15.454,15.454,0,0,1,.989,2.8h.659c.577,0,.714,0,1.181-.028a18.782,18.782,0,0,1,1.181,2.94h-1.73a20.879,20.879,0,0,1-3.021-.14c.082,1.008.11,1.6.11,2.38v2.1a13.2,13.2,0,0,1-.165,2.156h3.049V34.84H242.5v3.5h3.049a15.364,15.364,0,0,1-.137-2.072V34.224c0-1.008.027-1.624.082-2.352a24.755,24.755,0,0,1-2.966.112h-1.813c.412-.728.412-.728,1.675-3.248Zm-4.477,4.088a19.768,19.768,0,0,0-1.1-3.472c.906-.084,1.566-.168,2.032-.2,1.016-.112,1.7-.168,2-.224.3-.028.357-.028,1.181-.14a24.943,24.943,0,0,1-1.813,4.032Zm-6.042,0a27,27,0,0,0-1.181-3.052q3.172-.168,3.213-.168a26.826,26.826,0,0,1,1.126,3.22Zm11.069,4.788a12.914,12.914,0,0,1-2.389.14h-9.97a25.574,25.574,0,0,1-2.8-.14v2.884c.522-.056.522-.056,1.346-.112a21.739,21.739,0,0,0,4.422,5.124,31.148,31.148,0,0,1-9.805,2.688,13.242,13.242,0,0,1,1.511,3,34.281,34.281,0,0,0,10.849-3.808,20.9,20.9,0,0,0,3.79,1.9,30.777,30.777,0,0,0,7.443,1.848,11.876,11.876,0,0,1,1.428-3.108c-4.669-.56-7.251-1.232-9.888-2.464a25.335,25.335,0,0,0,3.241-2.884c2.2-2.492,2.2-2.492,2.609-2.912Zm-2.664,2.744a16.994,16.994,0,0,1-4.12,3.668,12.707,12.707,0,0,1-3.763-3.668ZM257.3,34.5h.412c.33,0,.439,0,1.236.056.714.028,1.73.056,2.5.056,1.373,0,2.8-.028,3.735-.112.027.924.027,1.176.027,1.764,0,4.144-.494,6.1-1.923,7.868a11.326,11.326,0,0,1-4.2,3.052,10.917,10.917,0,0,1,2.664,2.632,17.867,17.867,0,0,0,2.994-2.128,10.536,10.536,0,0,0,3.131-5.432,28.3,28.3,0,0,0,.577-6.692c0-.5,0-.756-.027-1.344a19.066,19.066,0,0,0,2.664-.476,13.146,13.146,0,0,1,1.538-.28l-.192-3.332a14.881,14.881,0,0,1-4.092,1.064c-.055-1.792-.11-2.856-.11-3.164-.055-1.26-.055-1.512-.055-1.792a6.222,6.222,0,0,1,.055-.952l-3.488.056a44.058,44.058,0,0,1,.357,6.188c-1.428.084-1.868.112-2.911.112a24.013,24.013,0,0,1-4.889-.364Zm-1.758,3.612a29.22,29.22,0,0,0-1.813,4.62c0-.448-.027-.616-.055-1.064v-.5c-.027-1.372-.027-1.848-.027-2.156-.027-.448-.027-.784-.027-.868,0-.532.055-1.344.192-3.192a38.419,38.419,0,0,1,.714-5.516,27.49,27.49,0,0,1,.8-3.416l-3.625-.364a12.556,12.556,0,0,1-.192,2.072,61.319,61.319,0,0,0-1.016,10.612,41.041,41.041,0,0,0,.989,9.1,4.644,4.644,0,0,1,.192,1.064l3.186-.168c.055-2.016,1.318-5.6,3.131-8.988Zm43.807,6.916c-.385-.224-.522-.336-.989-.644a24.393,24.393,0,0,0-7.525-3.948c-.027-.672-.027-.672-.11-3.388,1.071-.056,1.483-.084,1.868-.112,2.06-.2,3.3-.336,3.708-.392.632-.084,1.318-.168,1.785-.2l-.082-3.08a19.975,19.975,0,0,1-3.406.616c-2.527.28-2.527.28-3.9.364-.027-1.736-.027-2.072-.055-2.772,2.417-.14,3.488-.224,5.905-.56a16.862,16.862,0,0,1,2.17-.252l-.137-3.108a36.493,36.493,0,0,1-7.91,1.064,17.692,17.692,0,0,1,.192-3.416h-3.488a20.362,20.362,0,0,1,.137,3.528c-.687.028-1.62.056-2.06.056a35.444,35.444,0,0,1-7.388-.588l-.027,3.108h.439c.082,0,.3,0,.6.028,1.84.14,5.383.28,6.729.28.412,0,.851,0,1.73-.028.027,1.6.027,2.548.027,2.8-.769.028-1.7.056-2.252.056a34.755,34.755,0,0,1-6.4-.476L278.863,37c.412,0,.687,0,1.044.028,2.28.168,3.3.2,4.971.2.577,0,1.428-.028,2.747-.056.027,1.12.027,1.12.055,1.512v.616a5.5,5.5,0,0,1,.027.672,14.078,14.078,0,0,0-1.84-.112c-4.614,0-7.333,1.792-7.333,4.844,0,2.772,2.307,4.368,6.317,4.368a7.208,7.208,0,0,0,4.532-1.2,4.407,4.407,0,0,0,1.538-3.78v-.308a12.114,12.114,0,0,1,1.483.7,18.564,18.564,0,0,1,5.081,3.836Zm-11.59-2.156v.672a3.608,3.608,0,0,1-.33,1.792,2.824,2.824,0,0,1-2.389.9c-1.95,0-3.131-.644-3.131-1.68,0-1.2,1.346-1.932,3.57-1.932A9.463,9.463,0,0,1,287.762,42.876Zm32.08-9.772v-1.82c2.17-.056,2.664-.056,3.323-.056,2.28,0,3.6.056,4.614.14l-.027-3.22c-1.016.112-3.159.168-7.937.2a22.437,22.437,0,0,1,.137-3.332l-3.461.028a15.482,15.482,0,0,1,.165,3.388c-1.428.056-1.428.056-2.335.084-2.252.056-2.527.056-4.312.112-3.543.14-3.982.14-4.669.14a11.733,11.733,0,0,1-1.346-.056l.11,3.332c.742-.112.742-.112,4.889-.42,1.208-.084,3.79-.168,7.718-.28,0,.756,0,2.324.027,2.38a1.174,1.174,0,0,0,.027.336,4.528,4.528,0,0,0-2.856-.84c-3.186,0-5.466,2.128-5.466,5.1a4.4,4.4,0,0,0,1.9,3.78,5,5,0,0,0,3.186,1.008,4.5,4.5,0,0,0,4.037-1.988,5.879,5.879,0,0,1-3.186,4.088,12.8,12.8,0,0,1-4.669,1.624,9.213,9.213,0,0,1,1.95,3.164,19.033,19.033,0,0,0,4.971-2.3,9.028,9.028,0,0,0,4.092-7.56,8.659,8.659,0,0,0-.879-3.948c0-.336-.027-.56-.027-.672Zm-3.159,4.62a2.523,2.523,0,0,1-2.692,2.52,2.186,2.186,0,0,1-2.335-2.212,2.422,2.422,0,0,1,2.554-2.24C315.722,35.792,316.683,36.548,316.683,37.724Z" transform="translate(19097 -181.004)"/>
  </g>
</svg>
