<svg xmlns="http://www.w3.org/2000/svg" xmlns:xlink="http://www.w3.org/1999/xlink" width="690" height="333.626" viewBox="0 0 690 333.626">
  <defs>
    <clipPath id="clip-path">
      <rect id="矩形_2278" data-name="矩形 2278" width="690" height="333.626" fill="#fff"/>
    </clipPath>
  </defs>
  <g id="小屏-banner" transform="translate(-19064 342)">
    <g id="组_21831" data-name="组 21831" transform="translate(19053.314 -450)">
      <g id="组_21800" data-name="组 21800" transform="translate(316.316 155)">
        <g id="新手引导_2" data-name="新手引导 2" transform="translate(205.986 35.5)">
          <path id="路径_1948" data-name="路径 1948" d="M1721.463,349.6h-14.194l-3.911,3.4a.515.515,0,0,1-.842-.3l-.506-3.1h-2.533a.409.409,0,0,1-.409-.409h0V334.317a.408.408,0,0,1,.408-.409h21.987a.409.409,0,0,1,.409.409h0v14.875A.409.409,0,0,1,1721.463,349.6Z" transform="translate(-1699.069 -333.908)" fill="none" stroke="#0080f4" stroke-linecap="round" stroke-miterlimit="10" stroke-width="1"/>
          <g id="组_799" data-name="组 799" transform="translate(6.072 5.534)">
            <path id="路径_1951" data-name="路径 1951" d="M1710.61,348.687a1.97,1.97,0,0,1-.615-1.429,2.029,2.029,0,0,1,.566-1.449,1.97,1.97,0,0,1,1.429-.615l2.629-.044a2.026,2.026,0,0,1,1.449.566,1.969,1.969,0,0,1,.614,1.429.405.405,0,0,1-.118.289.462.462,0,0,1-.285.129.4.4,0,0,1-.41-.385v-.012a1.238,1.238,0,0,0-1.243-1.2l-2.629.045a1.207,1.207,0,0,0-.851.379,1.271,1.271,0,0,0-.35.864,1.2,1.2,0,0,0,.379.851,1.267,1.267,0,0,0,.863.35l2.218-.038a.4.4,0,0,1,.014.808l-2.219.037A2.042,2.042,0,0,1,1710.61,348.687Z" transform="translate(-1709.995 -345.075)" fill="#0080f4"/>
            <path id="路径_1952" data-name="路径 1952" d="M1721.479,348.5a1.969,1.969,0,0,1-.616-1.43.4.4,0,1,1,.808-.014,1.237,1.237,0,0,0,1.242,1.2l2.63-.045a1.208,1.208,0,0,0,.851-.379,1.271,1.271,0,0,0,.349-.863,1.208,1.208,0,0,0-.379-.851,1.271,1.271,0,0,0-.863-.349l-2.218.037a.406.406,0,0,1-.008-.81l2.218-.038a2.028,2.028,0,0,1,1.448.566,1.97,1.97,0,0,1,.615,1.429,2.034,2.034,0,0,1-1.994,2.063l-2.629.045a2.031,2.031,0,0,1-1.45-.567Z" transform="translate(-1716.538 -344.961)" fill="#0080f4"/>
          </g>
        </g>
        <g id="组_21419" data-name="组 21419" transform="translate(120.466 71.868)">
          <path id="路径_37402" data-name="路径 37402" d="M1557.566,499.484,1528,482.411a6.281,6.281,0,0,1-3.141-5.439V442.827a6.282,6.282,0,0,1,3.141-5.44l29.567-17.072a6.283,6.283,0,0,1,6.281,0l29.569,17.072a6.282,6.282,0,0,1,3.141,5.44v34.144a6.281,6.281,0,0,1-3.141,5.439l-29.569,17.072A6.281,6.281,0,0,1,1557.566,499.484Z" transform="translate(-1520.797 -415.831)" fill="none" stroke="#0c111a" stroke-miterlimit="10" stroke-width="1"/>
          <line id="直线_167" data-name="直线 167" y1="4.382" transform="translate(0 25.526)" fill="none" stroke="#0c111a" stroke-miterlimit="10" stroke-width="1"/>
          <line id="直线_168" data-name="直线 168" y1="20.262" transform="translate(0 33.982)" fill="none" stroke="#0c111a" stroke-miterlimit="10" stroke-width="1"/>
          <line id="直线_169" data-name="直线 169" x1="3.64" y1="2.101" transform="translate(4.167 69.455)" fill="none" stroke="#0c111a" stroke-miterlimit="10" stroke-width="1"/>
          <line id="直线_170" data-name="直线 170" x1="17.907" y1="10.338" transform="translate(11.203 73.517)" fill="none" stroke="#0c111a" stroke-miterlimit="10" stroke-width="1"/>
          <line id="直线_171" data-name="直线 171" x1="3.516" y2="2.03" transform="translate(44.315 85.719)" fill="none" stroke="#0c111a" stroke-miterlimit="10" stroke-width="1"/>
          <line id="直线_172" data-name="直线 172" x1="17.787" y2="10.269" transform="translate(51.448 73.361)" fill="none" stroke="#0c111a" stroke-miterlimit="10" stroke-width="1"/>
          <line id="直线_173" data-name="直线 173" y2="4.159" transform="translate(80.169 58.18)" fill="none" stroke="#0c111a" stroke-miterlimit="10" stroke-width="1"/>
          <line id="直线_174" data-name="直线 174" y2="20.486" transform="translate(80.169 33.257)" fill="none" stroke="#0c111a" stroke-miterlimit="10" stroke-width="1"/>
          <line id="直线_175" data-name="直线 175" x2="3.649" y2="2.106" transform="translate(72.384 16.268)" fill="none" stroke="#0c111a" stroke-miterlimit="10" stroke-width="1"/>
          <line id="直线_176" data-name="直线 176" x2="17.802" y2="10.278" transform="translate(50.988 3.915)" fill="none" stroke="#0c111a" stroke-miterlimit="10" stroke-width="1"/>
          <line id="直线_177" data-name="直线 177" y1="2.049" x2="3.549" transform="translate(32.413)" fill="none" stroke="#0c111a" stroke-miterlimit="10" stroke-width="1"/>
          <line id="直线_178" data-name="直线 178" y1="10.19" x2="17.649" transform="translate(10.962 4.244)" fill="none" stroke="#0c111a" stroke-miterlimit="10" stroke-width="1"/>
        </g>
        <path id="路径_37403" data-name="路径 37403" d="M1695.678,350.553l-15.311-8.837a6.281,6.281,0,0,1-3.14-5.439V318.6a6.281,6.281,0,0,1,3.14-5.439l15.311-8.837a6.281,6.281,0,0,1,6.281,0l15.311,8.837a6.281,6.281,0,0,1,3.141,5.439v17.68a6.281,6.281,0,0,1-3.141,5.439l-15.311,8.837A6.281,6.281,0,0,1,1695.678,350.553Z" transform="translate(-1481.454 -282.206)" fill="none" stroke="#0080f4" stroke-miterlimit="10" stroke-width="1"/>
        <path id="路径_37404" data-name="路径 37404" d="M1732.093,406.509l-2.846,1.643a6.453,6.453,0,0,1-.616.312" transform="translate(-1508.822 -337.061)" fill="none" stroke="#000" stroke-miterlimit="10" stroke-width="1"/>
        <path id="路径_37405" data-name="路径 37405" d="M1757.731,379.423a6.283,6.283,0,0,1-2.957,3.931l-11.958,6.9" transform="translate(-1516.374 -322.64)" fill="none" stroke="#000" stroke-miterlimit="10" stroke-width="1"/>
        <line id="直线_179" data-name="直线 179" y2="3.894" transform="translate(241.541 38.588)" fill="none" stroke="#000" stroke-miterlimit="10" stroke-width="1"/>
        <path id="路径_37406" data-name="路径 37406" d="M1746.736,308.386l10.125,5.845a6.281,6.281,0,0,1,3.14,5.439" transform="translate(-1518.462 -284.819)" fill="none" stroke="#000" stroke-miterlimit="10" stroke-width="1"/>
        <path id="路径_37407" data-name="路径 37407" d="M1711.339,299.8l2.423-1.4q.244-.14.5-.258" transform="translate(-1499.616 -279.365)" fill="none" stroke="#000" stroke-miterlimit="10" stroke-width="1"/>
        <path id="路径_37408" data-name="路径 37408" d="M1671.959,316.49a6.282,6.282,0,0,1,2.858-3.576l12.131-7" transform="translate(-1478.649 -283.501)" fill="none" stroke="#000" stroke-miterlimit="10" stroke-width="1"/>
        <path id="路径_37409" data-name="路径 37409" d="M1684.778,388.288l-10.278-5.936a6.283,6.283,0,0,1-3.141-5.439" transform="translate(-1478.33 -321.304)" fill="none" stroke="#000" stroke-miterlimit="10" stroke-width="1"/>
        <path id="路径_37410" data-name="路径 37410" d="M1614.816,390.547l12.743-22.832a6.28,6.28,0,0,1,5.394-3.219l8.124-.118" transform="translate(-1448.226 -314.63)" fill="none" stroke="#0c111a" stroke-miterlimit="10" stroke-width="1"/>
        <path id="路径_37411" data-name="路径 37411" d="M1823.2,342.909l-4.948,7.422a6.281,6.281,0,0,1-5.631,2.784l-1.777-.115" transform="translate(-1552.592 -303.2)" fill="none" stroke="#0c111a" stroke-miterlimit="10" stroke-width="1"/>
        <path id="路径_37412" data-name="路径 37412" d="M1820.652,501.024l-4.015-6.469a6.281,6.281,0,0,0-5.537-2.965l-3.791.057" transform="translate(-1550.712 -382.357)" fill="none" stroke="#0c111a" stroke-miterlimit="10" stroke-width="1"/>
        <path id="路径_37413" data-name="路径 37413" d="M1694.951,646.671l-11.722-6.768a6.281,6.281,0,0,1-3.141-5.44V620.927a6.281,6.281,0,0,1,3.141-5.439l11.722-6.768a6.282,6.282,0,0,1,6.281,0l11.722,6.768a6.281,6.281,0,0,1,3.14,5.439v13.536a6.281,6.281,0,0,1-3.14,5.44l-11.722,6.768A6.283,6.283,0,0,1,1694.951,646.671Z" transform="translate(-1482.977 -444.273)" fill="none" stroke="#0080f4" stroke-miterlimit="10" stroke-width="1"/>
        <path id="路径_37414" data-name="路径 37414" d="M1675.148,634.673v-2.993a6.285,6.285,0,0,1,.094-1.081" transform="translate(-1480.347 -456.37)" fill="none" stroke="#000" stroke-miterlimit="10" stroke-width="1"/>
        <path id="路径_37415" data-name="路径 37415" d="M1682.484,665.257l-4.195-2.422a6.282,6.282,0,0,1-3.14-5.44V648.5" transform="translate(-1480.348 -465.902)" fill="none" stroke="#000" stroke-miterlimit="10" stroke-width="1"/>
        <path id="路径_37416" data-name="路径 37416" d="M1726.8,693.194l-2.646,1.528a6.268,6.268,0,0,1-.982.46" transform="translate(-1505.916 -489.696)" fill="none" stroke="#000" stroke-miterlimit="10" stroke-width="1"/>
        <path id="路径_37417" data-name="路径 37417" d="M1750.173,656.978v4.93a6.282,6.282,0,0,1-3.141,5.44l-7.215,4.166" transform="translate(-1514.778 -470.414)" fill="none" stroke="#000" stroke-miterlimit="10" stroke-width="1"/>
        <path id="路径_37418" data-name="路径 37418" d="M1749.746,618.1l2.572,1.486a6.289,6.289,0,0,1,1.029.741" transform="translate(-1520.064 -449.714)" fill="none" stroke="#000" stroke-miterlimit="10" stroke-width="1"/>
        <path id="路径_37419" data-name="路径 37419" d="M1702.45,605.545l4.39-2.535a6.283,6.283,0,0,1,6.282,0l7.828,4.519" transform="translate(-1494.883 -441.233)" fill="none" stroke="#000" stroke-miterlimit="10" stroke-width="1"/>
        <path id="路径_37420" data-name="路径 37420" d="M1276.18,385.08l-10.937-6.316a5.4,5.4,0,0,1-2.7-4.676V361.457a5.4,5.4,0,0,1,2.7-4.676l10.937-6.32a5.4,5.4,0,0,1,5.4,0l10.939,6.316a5.4,5.4,0,0,1,2.7,4.676v12.631a5.4,5.4,0,0,1-2.7,4.676l-10.939,6.316A5.4,5.4,0,0,1,1276.18,385.08Z" transform="translate(-1260.671 -306.836)" fill="none" stroke="#0c111a" stroke-miterlimit="10" stroke-width="1"/>
        <g id="组_21420" data-name="组 21420" transform="translate(0 40.527)">
          <path id="路径_37421" data-name="路径 37421" d="M1258.54,374.068v-2.852a5.361,5.361,0,0,1,.079-.916" transform="translate(-1258.54 -358.31)" fill="none" stroke="#000" stroke-miterlimit="10" stroke-width="1"/>
          <path id="路径_37422" data-name="路径 37422" d="M1265.188,401.741l-3.948-2.279a5.4,5.4,0,0,1-2.7-4.676v-8.419" transform="translate(-1258.54 -366.865)" fill="none" stroke="#000" stroke-miterlimit="10" stroke-width="1"/>
          <line id="直线_180" data-name="直线 180" x1="2.665" y2="1.539" transform="translate(21.103 38.565)" fill="none" stroke="#000" stroke-miterlimit="10" stroke-width="1"/>
          <path id="路径_37423" data-name="路径 37423" d="M1326,404.37a5.4,5.4,0,0,1-2.7,4.677l-7.178,4.144" transform="translate(-1289.199 -376.45)" fill="none" stroke="#000" stroke-miterlimit="10" stroke-width="1"/>
          <path id="路径_37424" data-name="路径 37424" d="M1326.153,359.185l2.49,1.437a5.4,5.4,0,0,1,.638.432" transform="translate(-1294.538 -352.393)" fill="none" stroke="#000" stroke-miterlimit="10" stroke-width="1"/>
          <path id="路径_37425" data-name="路径 37425" d="M1283.722,347.65l3.928-2.267a5.4,5.4,0,0,1,5.4,0l7.158,4.133" transform="translate(-1271.948 -344.659)" fill="none" stroke="#000" stroke-miterlimit="10" stroke-width="1"/>
        </g>
        <path id="路径_37426" data-name="路径 37426" d="M1427.111,598.06l-11.764-6.792a6.28,6.28,0,0,1-3.14-5.439V572.245a6.281,6.281,0,0,1,3.14-5.439l11.764-6.792a6.282,6.282,0,0,1,6.281,0l11.764,6.791a6.281,6.281,0,0,1,3.14,5.44v13.583a6.28,6.28,0,0,1-3.14,5.439l-11.764,6.792A6.282,6.282,0,0,1,1427.111,598.06Z" transform="translate(-1340.354 -418.341)" fill="none" stroke="#0080f4" stroke-miterlimit="10" stroke-width="1"/>
        <path id="路径_37427" data-name="路径 37427" d="M1473.3,624.137a6.278,6.278,0,0,1-2.7,3.122l-14.061,8.118a6.3,6.3,0,0,1-1.049.483" transform="translate(-1363.4 -452.929)" fill="none" stroke="#000" stroke-miterlimit="10" stroke-width="1"/>
        <path id="路径_37428" data-name="路径 37428" d="M1482.021,569.482l2.706,1.562a6.282,6.282,0,0,1,3.141,5.44v13.981" transform="translate(-1377.524 -423.83)" fill="none" stroke="#000" stroke-miterlimit="10" stroke-width="1"/>
        <path id="路径_37429" data-name="路径 37429" d="M1408.983,565.591a6.281,6.281,0,0,1,2.455-2.585l14.061-8.118a6.325,6.325,0,0,1,1.111-.5" transform="translate(-1338.638 -415.791)" fill="none" stroke="#000" stroke-miterlimit="10" stroke-width="1"/>
        <path id="路径_37430" data-name="路径 37430" d="M1413.222,610.538l-2.565-1.481a6.282,6.282,0,0,1-3.14-5.44V589.949" transform="translate(-1337.857 -434.727)" fill="none" stroke="#000" stroke-miterlimit="10" stroke-width="1"/>
        <path id="路径_37431" data-name="路径 37431" d="M1429.724,360.747l-17.246-9.957a6.281,6.281,0,0,1-3.14-5.439V325.437a6.282,6.282,0,0,1,3.14-5.44l17.246-9.957a6.28,6.28,0,0,1,6.281,0L1453.251,320a6.282,6.282,0,0,1,3.14,5.44v19.912a6.281,6.281,0,0,1-3.14,5.439l-17.246,9.957A6.282,6.282,0,0,1,1429.724,360.747Z" transform="translate(-1338.827 -285.252)" fill="none" stroke="#0080f4" stroke-miterlimit="10" stroke-width="1"/>
        <line id="直线_181" data-name="直线 181" y1="4.145" transform="translate(67.488 53.031)" fill="none" stroke="#000" stroke-miterlimit="10" stroke-width="1"/>
        <path id="路径_37432" data-name="路径 37432" d="M1417.379,402.275l-11.365-6.562a6.281,6.281,0,0,1-3.14-5.439" transform="translate(-1335.385 -328.418)" fill="none" stroke="#000" stroke-miterlimit="10" stroke-width="1"/>
        <line id="直线_182" data-name="直线 182" x1="3.303" y2="1.907" transform="translate(97.059 77.022)" fill="none" stroke="#000" stroke-miterlimit="10" stroke-width="1"/>
        <path id="路径_37433" data-name="路径 37433" d="M1497.428,390.275a6.281,6.281,0,0,1-3.14,5.439l-13.1,7.563" transform="translate(-1377.08 -328.418)" fill="none" stroke="#000" stroke-miterlimit="10" stroke-width="1"/>
        <line id="直线_183" data-name="直线 183" y2="4.061" transform="translate(120.348 43.235)" fill="none" stroke="#000" stroke-miterlimit="10" stroke-width="1"/>
        <path id="路径_37434" data-name="路径 37434" d="M1485.192,315.022l11.227,6.482a6.281,6.281,0,0,1,3.14,5.439v.583" transform="translate(-1379.213 -288.353)" fill="none" stroke="#000" stroke-miterlimit="10" stroke-width="1"/>
        <line id="直线_184" data-name="直线 184" y1="1.788" x2="3.096" transform="translate(87.681 21.519)" fill="none" stroke="#000" stroke-miterlimit="10" stroke-width="1"/>
        <path id="路径_37435" data-name="路径 37435" d="M1403.524,323.438a6.278,6.278,0,0,1,2.836-3.507l13.621-7.864" transform="translate(-1335.731 -286.779)" fill="none" stroke="#000" stroke-miterlimit="10" stroke-width="1"/>
        <path id="路径_37436" data-name="路径 37436" d="M1846.529,305.476l-12.789-7.383a6.281,6.281,0,0,1-3.14-5.439V277.886a6.282,6.282,0,0,1,3.14-5.44l12.789-7.383a6.282,6.282,0,0,1,6.281,0l12.789,7.383a6.282,6.282,0,0,1,3.14,5.44v14.767a6.281,6.281,0,0,1-3.14,5.439l-12.789,7.383A6.28,6.28,0,0,1,1846.529,305.476Z" transform="translate(-1563.112 -261.306)" fill="none" stroke="#0c111a" stroke-miterlimit="10" stroke-width="1"/>
        <path id="路径_37437" data-name="路径 37437" d="M1845.792,263.881l8.753-5.054a6.282,6.282,0,0,1,5.533-.368" transform="translate(-1571.2 -257.986)" fill="none" stroke="#000" stroke-miterlimit="10" stroke-width="1"/>
        <path id="路径_37438" data-name="路径 37438" d="M1825.365,304.632v-15.1q0-.267.022-.53" transform="translate(-1560.325 -274.501)" fill="none" stroke="#000" stroke-miterlimit="10" stroke-width="1"/>
        <path id="路径_37439" data-name="路径 37439" d="M1837.468,339.274l-8.871-5.122a6.281,6.281,0,0,1-3.062-4.448" transform="translate(-1560.415 -296.169)" fill="none" stroke="#000" stroke-miterlimit="10" stroke-width="1"/>
        <path id="路径_37440" data-name="路径 37440" d="M1890.2,341.752l-13.11,7.569a6.341,6.341,0,0,1-.748.368" transform="translate(-1587.467 -302.584)" fill="none" stroke="#000" stroke-miterlimit="10" stroke-width="1"/>
        <path id="路径_37441" data-name="路径 37441" d="M1913.515,305.892v10.143a6.282,6.282,0,0,1-3.14,5.439" transform="translate(-1605.584 -283.492)" fill="none" stroke="#000" stroke-miterlimit="10" stroke-width="1"/>
        <path id="路径_37442" data-name="路径 37442" d="M1882.252,262.271l13.149,7.591a6.317,6.317,0,0,1,.693.464" transform="translate(-1590.612 -260.267)" fill="none" stroke="#000" stroke-miterlimit="10" stroke-width="1"/>
        <path id="路径_37443" data-name="路径 37443" d="M1837.932,543.7l-15.305-8.837a6.281,6.281,0,0,1-3.141-5.439V511.751a6.281,6.281,0,0,1,3.141-5.439l15.305-8.837a6.282,6.282,0,0,1,6.281,0l15.306,8.837a6.281,6.281,0,0,1,3.141,5.439v17.675a6.281,6.281,0,0,1-3.141,5.439l-15.306,8.837A6.28,6.28,0,0,1,1837.932,543.7Z" transform="translate(-1557.194 -385.044)" fill="none" stroke="#0080f4" stroke-miterlimit="10" stroke-width="1"/>
        <g id="组_21801" data-name="组 21801" transform="translate(259.978 108.568)">
          <line id="直线_185" data-name="直线 185" y1="9.972" transform="translate(0.001 16.504)" fill="none" stroke="#0c111a" stroke-miterlimit="10" stroke-width="1"/>
          <path id="路径_37444" data-name="路径 37444" d="M1825.376,572.175l-7.7-4.442a6.282,6.282,0,0,1-3.141-5.439v-6.064" transform="translate(-1814.538 -525.342)" fill="none" stroke="#0c111a" stroke-miterlimit="10" stroke-width="1"/>
          <path id="路径_37445" data-name="路径 37445" d="M1879.822,592.251l-8.454,4.881a6.257,6.257,0,0,1-1.044.481" transform="translate(-1844.239 -544.52)" fill="none" stroke="#0c111a" stroke-miterlimit="10" stroke-width="1"/>
          <path id="路径_37446" data-name="路径 37446" d="M1907.522,550.136v8.911a6.281,6.281,0,0,1-3.14,5.439l-5.307,3.064" transform="translate(-1859.547 -522.098)" fill="none" stroke="#0c111a" stroke-miterlimit="10" stroke-width="1"/>
          <path id="路径_37447" data-name="路径 37447" d="M1891.662,503l8.772,5.064a6.35,6.35,0,0,1,.6.4" transform="translate(-1855.6 -497.004)" fill="none" stroke="#0c111a" stroke-miterlimit="10" stroke-width="1"/>
          <path id="路径_37448" data-name="路径 37448" d="M1842.311,495.552l7.861-4.538a6.283,6.283,0,0,1,6.281,0l5.312,3.067" transform="translate(-1829.325 -490.173)" fill="none" stroke="#0c111a" stroke-miterlimit="10" stroke-width="1"/>
        </g>
        <path id="路径_37449" data-name="路径 37449" d="M1332.093,366.561h13.976a3.238,3.238,0,0,0,3.238-3.238h0v-5.972a4.186,4.186,0,0,1,4.186-4.186h14.6" transform="translate(-1297.701 -308.66)" fill="none" stroke="#0c111a" stroke-miterlimit="10" stroke-width="1"/>
        <line id="直线_186" data-name="直线 186" x2="17.081" transform="translate(201.201 109.59)" fill="none" stroke="#0c111a" stroke-miterlimit="10" stroke-width="1"/>
        <line id="直线_187" data-name="直线 187" x2="18.797" transform="translate(222.454 109.548)" fill="none" stroke="#0c111a" stroke-miterlimit="10" stroke-width="1"/>
        <line id="直线_188" data-name="直线 188" x2="3.74" y2="5.242" transform="translate(114.402 68.674)" fill="none" stroke="#000" stroke-miterlimit="10" stroke-width="1"/>
        <line id="直线_189" data-name="直线 189" x2="9.918" y2="14.529" transform="translate(120.466 77.326)" fill="none" stroke="#0c111a" stroke-miterlimit="10" stroke-width="1"/>
        <line id="直线_190" data-name="直线 190" y2="3.796" transform="translate(193.31 47.77)" fill="none" stroke="#000" stroke-miterlimit="10" stroke-width="1"/>
        <line id="直线_191" data-name="直线 191" x2="15.294" transform="translate(239.213 49.919)" fill="none" stroke="#000" stroke-miterlimit="10" stroke-width="1"/>
        <line id="直线_192" data-name="直线 192" x2="9.555" y2="14.597" transform="translate(174.23 154.161)" fill="none" stroke="#000" stroke-miterlimit="10" stroke-width="1"/>
        <line id="直线_193" data-name="直线 193" x1="10.503" y2="15.584" transform="translate(127.673 149.141)" fill="none" stroke="#0c111a" stroke-miterlimit="10" stroke-width="1"/>
        <path id="路径_37450" data-name="路径 37450" d="M1489.025,618.454h14.194a4.428,4.428,0,0,0,3.238-1.109" transform="translate(-1381.253 -449.313)" fill="none" stroke="#000" stroke-miterlimit="10" stroke-width="1"/>
        <g id="组_21796" data-name="组 21796" transform="translate(136.811 107.543)">
          <path id="路径_38716" data-name="路径 38716" d="M1562.546,488.124a2.507,2.507,0,0,0-.449-.1,3.85,3.85,0,0,0-.583-.038,3.913,3.913,0,0,0-.6.038,2.546,2.546,0,0,0-.438.1,1.1,1.1,0,0,0-.766,1.058v5h-4.959v-5a1.1,1.1,0,0,0-.766-1.057,2.505,2.505,0,0,0-.449-.1,4.6,4.6,0,0,0-1.179,0,2.528,2.528,0,0,0-.459.106,1.1,1.1,0,0,0-.765,1.057v14a1.112,1.112,0,0,0,.182.618,1.124,1.124,0,0,0,.58.439,2.462,2.462,0,0,0,.461.107,4.608,4.608,0,0,0,1.179,0,2.444,2.444,0,0,0,.448-.1,1.1,1.1,0,0,0,.767-1.058v-5.63h4.959v5.63a1.1,1.1,0,0,0,.761,1.056,2.492,2.492,0,0,0,.443.106,3.909,3.909,0,0,0,.6.038,3.85,3.85,0,0,0,.583-.038,2.446,2.446,0,0,0,.448-.1,1.1,1.1,0,0,0,.767-1.058v-14a1.1,1.1,0,0,0-.766-1.057Z" transform="translate(-1551.129 -487.981)" fill="none" stroke="#ef54a1" stroke-miterlimit="10" stroke-width="1"/>
          <path id="路径_38717" data-name="路径 38717" d="M1593.253,501.695a1.228,1.228,0,0,0-.411-.426,1.147,1.147,0,0,0-.6-.17H1587.3v-3.54h4.052a1.183,1.183,0,0,0,.564-.141,1.161,1.161,0,0,0,.456-.457,1.537,1.537,0,0,0,.17-.519,3.075,3.075,0,0,0,.033-.479,3.463,3.463,0,0,0-.031-.488,1.533,1.533,0,0,0-.171-.541,1.259,1.259,0,0,0-.383-.425,1.124,1.124,0,0,0-.637-.2H1587.3v-2.9h4.863a1.133,1.133,0,0,0,1.042-.67,1.818,1.818,0,0,0,.138-.451,2.819,2.819,0,0,0,.043-.508,2.924,2.924,0,0,0-.042-.528,1.959,1.959,0,0,0-.134-.448,1.13,1.13,0,0,0-1.047-.685h-6.919a1.643,1.643,0,0,0-1,.345,1.515,1.515,0,0,0-.563,1.283V502.76a1.511,1.511,0,0,0,.564,1.283,1.64,1.64,0,0,0,1,.345h7a1.155,1.155,0,0,0,.6-.169,1.2,1.2,0,0,0,.423-.451,1.566,1.566,0,0,0,.177-.54,3.231,3.231,0,0,0,.032-.479,3.416,3.416,0,0,0-.032-.5A1.531,1.531,0,0,0,1593.253,501.695Z" transform="translate(-1568.459 -488.058)" fill="none" stroke="#ef54a1" stroke-miterlimit="10" stroke-width="1"/>
          <path id="路径_38718" data-name="路径 38718" d="M1618.625,501.6a1.238,1.238,0,0,0-.394-.449,1.14,1.14,0,0,0-.648-.2h-4.39V489.181a1.1,1.1,0,0,0-.765-1.057,2.515,2.515,0,0,0-.449-.1,4.6,4.6,0,0,0-1.179,0,2.518,2.518,0,0,0-.459.106,1.1,1.1,0,0,0-.765,1.057v13.5a1.512,1.512,0,0,0,.564,1.283,1.642,1.642,0,0,0,1,.345h6.447a1.136,1.136,0,0,0,.65-.2,1.207,1.207,0,0,0,.407-.491,1.788,1.788,0,0,0,.144-.493,3.411,3.411,0,0,0,.032-.5,3.541,3.541,0,0,0-.031-.5A1.608,1.608,0,0,0,1618.625,501.6Z" transform="translate(-1582.247 -487.981)" fill="none" stroke="#ef54a1" stroke-miterlimit="10" stroke-width="1"/>
          <path id="路径_38719" data-name="路径 38719" d="M1644.281,491.463a4.544,4.544,0,0,0-2.078-2.531,5.072,5.072,0,0,0-1.446-.577,9.418,9.418,0,0,0-1.129-.185c-.313-.029-.644-.043-.983-.043h-3.122a1.672,1.672,0,0,0-1.059.379,1.579,1.579,0,0,0-.547,1.294v13.456a1.1,1.1,0,0,0,.762,1.056,2.41,2.41,0,0,0,.453.106,3.944,3.944,0,0,0,.594.038,4,4,0,0,0,.594-.037,2.292,2.292,0,0,0,.457-.11,1.154,1.154,0,0,0,.538-.389,1.094,1.094,0,0,0,.22-.664v-4.413h.817a7.979,7.979,0,0,0,2.6-.384,5.476,5.476,0,0,0,1.94-1.134,5.039,5.039,0,0,0,1.238-1.8,6.02,6.02,0,0,0,.423-2.291A5.524,5.524,0,0,0,1644.281,491.463Zm-6.746-.057h.952a6.065,6.065,0,0,1,.895.069,1.916,1.916,0,0,1,.709.263,1.485,1.485,0,0,1,.521.577,2.232,2.232,0,0,1,.226,1.08,2.692,2.692,0,0,1-.152.925,1.774,1.774,0,0,1-.406.656,1.9,1.9,0,0,1-.681.432,3.277,3.277,0,0,1-1.156.169h-.907Z" transform="translate(-1595.207 -488.058)" fill="none" stroke="#ef54a1" stroke-miterlimit="10" stroke-width="1"/>
        </g>
        <g id="组_21426" data-name="组 21426" transform="translate(79.722 150.714)">
          <path id="路径_37377-2" data-name="路径 37377-2" d="M1432.219,602.33a3.468,3.468,0,0,0-1.767.4,2.275,2.275,0,0,1-.732.21c-.327-.2-.254-.623-.108-.9a2.519,2.519,0,0,1,.586-.688,4,4,0,0,1,1.73-.748l-.051-.463a3.575,3.575,0,0,0-1.977.855,2.915,2.915,0,0,0-.7.818c-.283.631-.261,1.388.493,1.586a2.272,2.272,0,0,0,.935-.246c.534-.2,1.2-.554,1.717-.3Z" transform="translate(-1429.036 -590.867)" fill="#0080f4"/>
          <path id="路径_37378-2" data-name="路径 37378-2" d="M1435.505,592.3a19.662,19.662,0,0,0,1.376,3.81,11.728,11.728,0,0,0,2.238,3.252,4.125,4.125,0,0,0,2.81,1.34,7.693,7.693,0,0,0,4.15-1.55c.572-.381,1.076-.758,1.485-1.035a2.47,2.47,0,0,1,.855-.427,3.452,3.452,0,0,1,1.152.327c.445.187.909.421,1.309.579a.244.244,0,0,0,.307-.156.211.211,0,0,0,.011-.054,2.992,2.992,0,0,0-1.917-2.825,3.553,3.553,0,0,0-2.9.166c.526-1.127,1.122-2.341,1.637-3.571a11.329,11.329,0,0,0,1.094-3.969c0-4.752-3.565-7.88-6.953-7.88a7.131,7.131,0,0,0-7.185,7.4v.014a13.658,13.658,0,0,0,.058,1.861l.051.463c.07.568.161,1.146.29,1.724Z" transform="translate(-1432.193 -580.307)" fill="#fff" stroke="#0080f4" stroke-miterlimit="10" stroke-width="0.5"/>
          <path id="路径_37379-2" data-name="路径 37379-2" d="M1448.144,589a1.6,1.6,0,0,1,1.356-1.262c.62.012,1.034.672,1.26,1.253a6.826,6.826,0,0,1,.362,2.224.244.244,0,0,1-.269.216.241.241,0,0,1-.093-.029,2.43,2.43,0,0,0-1.26-.3,2.457,2.457,0,0,0-1.268.3.244.244,0,0,1-.329-.1.248.248,0,0,1-.026-.083A7.669,7.669,0,0,1,1448.144,589Z" transform="translate(-1439.066 -584.261)" fill="#0080f4"/>
          <path id="路径_37380-2" data-name="路径 37380-2" d="M1438.811,591.4a.244.244,0,0,1-.329-.1.248.248,0,0,1-.026-.083,7.672,7.672,0,0,1,.268-2.216,1.6,1.6,0,0,1,1.356-1.263c.619.012,1.034.671,1.263,1.253a6.842,6.842,0,0,1,.362,2.224.244.244,0,0,1-.362.187,2.776,2.776,0,0,0-2.532,0Z" transform="translate(-1434.05 -584.262)" fill="#0080f4"/>
          <path id="路径_37381-2" data-name="路径 37381-2" d="M1447.826,601.184a3.489,3.489,0,0,0-3.781-.3,4.209,4.209,0,0,0-1.283.949c-.3.351-.574.856-.058,1.122a2.446,2.446,0,0,0,.819-.043,2.942,2.942,0,0,1,2.274.224l-.29.362a2.579,2.579,0,0,0-1.9-.13,2.613,2.613,0,0,1-1.006.043c-1.01-.263-.627-1.341-.181-1.883a4.613,4.613,0,0,1,1.427-1.057,4.084,4.084,0,0,1,4.266.34Z" transform="translate(-1435.916 -590.807)" fill="#0080f4"/>
        </g>
        <g id="组_21424" data-name="组 21424" transform="translate(80.751 36.504)">
          <circle id="椭圆_1642" data-name="椭圆 1642" cx="13.164" cy="13.164" r="13.164" fill="none" stroke="#0080f4" stroke-miterlimit="10" stroke-width="1"/>
          <path id="直线_194" data-name="直线 194" d="M0,0H26.328" transform="translate(0 13.164)" fill="none" stroke="#0080f4" stroke-width="1"/>
          <line id="直线_195" data-name="直线 195" x2="23.313" transform="translate(1.508 7.044)" fill="none" stroke="#0080f4" stroke-miterlimit="10" stroke-width="1"/>
          <line id="直线_196" data-name="直线 196" x2="23.038" transform="translate(1.508 19.284)" fill="none" stroke="#0080f4" stroke-miterlimit="10" stroke-width="1"/>
          <line id="直线_197" data-name="直线 197" y1="26.954" transform="translate(13.368 0.026)" fill="none" stroke="#0080f4" stroke-miterlimit="10" stroke-width="1"/>
          <ellipse id="椭圆_1643" data-name="椭圆 1643" cx="6.958" cy="13.151" rx="6.958" ry="13.151" transform="translate(6.305 0.026)" fill="none" stroke="#0080f4" stroke-miterlimit="10" stroke-width="1"/>
        </g>
        <g id="组_21425" data-name="组 21425" transform="translate(209.007 173.15)">
          <rect id="矩形_2213" data-name="矩形 2213" width="13.053" height="10.108" transform="translate(0 8.668)" fill="none" stroke="#0080f4" stroke-miterlimit="10" stroke-width="1"/>
          <path id="矩形_2214" data-name="矩形 2214" d="M1713.4,628.291h0a5.024,5.024,0,0,1,5.024,5.024v3.59H1708.38v-3.59A5.024,5.024,0,0,1,1713.4,628.291Z" transform="translate(-1707.047 -628.291)" fill="none" stroke="#0080f4" stroke-miterlimit="10" stroke-width="1"/>
          <line id="直线_198" data-name="直线 198" y2="3.032" transform="translate(6.526 12.205)" fill="none" stroke="#0080f4" stroke-linecap="round" stroke-miterlimit="10" stroke-width="1"/>
        </g>
        <g id="组_21797" data-name="组 21797" transform="translate(10.769 52.065)">
          <path id="路径_38720" data-name="路径 38720" d="M1296.165,370.624l-6.906-1.279a.647.647,0,0,0-.229,0l-6.946,1.279a.629.629,0,0,0-.514.619v8.187a5.945,5.945,0,0,0,1.208,3.586,9.279,9.279,0,0,0,2.559,2.291,14.686,14.686,0,0,0,3.647,1.633.627.627,0,0,0,.327,0,14.748,14.748,0,0,0,3.625-1.648,9.315,9.315,0,0,0,2.544-2.3,5.932,5.932,0,0,0,1.2-3.568v-8.183A.629.629,0,0,0,1296.165,370.624Zm-.366,8.882c0,1.954-1.119,3.662-3.325,5.077a15,15,0,0,1-3.276,1.531.162.162,0,0,1-.108,0q-6.639-2.268-6.639-6.607v-7.981a.167.167,0,0,1,.136-.165l6.528-1.2a.162.162,0,0,1,.06,0l6.487,1.2a.167.167,0,0,1,.136.165Z" transform="translate(-1281.57 -369.334)" fill="#0c111a"/>
        </g>
        <g id="组_21426-2" data-name="组 21426" transform="translate(277.055 13.766)">
          <path id="路径_37377-2-2" data-name="路径 37377-2" d="M1854.241,309.45a3.467,3.467,0,0,0-1.767.4,2.265,2.265,0,0,1-.732.21c-.327-.2-.254-.623-.108-.9a2.513,2.513,0,0,1,.586-.688,4,4,0,0,1,1.73-.748l-.051-.463a3.573,3.573,0,0,0-1.977.855,2.913,2.913,0,0,0-.7.818c-.283.631-.261,1.388.493,1.587a2.273,2.273,0,0,0,.935-.246c.534-.2,1.2-.554,1.716-.3Z" transform="translate(-1851.059 -297.987)"/>
          <path id="路径_37378-2-2" data-name="路径 37378-2" d="M1857.528,299.419a19.652,19.652,0,0,0,1.376,3.81,11.708,11.708,0,0,0,2.238,3.252,4.125,4.125,0,0,0,2.81,1.34,7.7,7.7,0,0,0,4.15-1.55c.572-.381,1.075-.758,1.484-1.035a2.47,2.47,0,0,1,.855-.427,3.452,3.452,0,0,1,1.152.327c.445.187.91.421,1.309.579a.243.243,0,0,0,.307-.156.257.257,0,0,0,.011-.054,2.994,2.994,0,0,0-1.917-2.825,3.555,3.555,0,0,0-2.9.166c.527-1.127,1.122-2.341,1.637-3.571a11.328,11.328,0,0,0,1.094-3.969c0-4.752-3.565-7.88-6.953-7.88a7.131,7.131,0,0,0-7.185,7.4v.014a13.556,13.556,0,0,0,.058,1.861l.051.463c.07.568.161,1.146.29,1.724Z" transform="translate(-1854.216 -287.427)" fill="#fff" stroke="#000" stroke-miterlimit="10" stroke-width="0.5"/>
          <path id="路径_37379-2-2" data-name="路径 37379-2" d="M1870.167,296.116a1.605,1.605,0,0,1,1.356-1.262c.619.012,1.034.671,1.26,1.253a6.829,6.829,0,0,1,.363,2.224.245.245,0,0,1-.27.217.251.251,0,0,1-.093-.03,2.43,2.43,0,0,0-1.26-.3,2.458,2.458,0,0,0-1.268.3.244.244,0,0,1-.329-.1.24.24,0,0,1-.026-.083A7.666,7.666,0,0,1,1870.167,296.116Z" transform="translate(-1861.089 -291.381)"/>
          <path id="路径_37380-2-2" data-name="路径 37380-2" d="M1860.834,298.521a.244.244,0,0,1-.355-.187,7.647,7.647,0,0,1,.268-2.216,1.6,1.6,0,0,1,1.356-1.262c.619.012,1.034.671,1.263,1.253a6.848,6.848,0,0,1,.362,2.224.244.244,0,0,1-.362.187,2.777,2.777,0,0,0-2.532,0Z" transform="translate(-1856.073 -291.382)"/>
          <path id="路径_37381-2-2" data-name="路径 37381-2" d="M1869.849,308.3a3.489,3.489,0,0,0-3.781-.3,4.2,4.2,0,0,0-1.283.949c-.3.351-.574.856-.058,1.122a2.448,2.448,0,0,0,.819-.043,2.942,2.942,0,0,1,2.274.224l-.29.362a2.58,2.58,0,0,0-1.905-.13,2.6,2.6,0,0,1-1.006.043c-1.01-.263-.627-1.341-.181-1.883a4.615,4.615,0,0,1,1.427-1.057,4.084,4.084,0,0,1,4.266.34Z" transform="translate(-1857.939 -297.926)"/>
        </g>
        <g id="组_21798" data-name="组 21798" transform="translate(14.196 58.408)">
          <path id="路径_38721" data-name="路径 38721" d="M1291.987,387.839a.731.731,0,0,1-.464-.165l-2.434-1.991a.514.514,0,0,1,.651-.8l2.248,1.839,4.584-3.711a.514.514,0,0,1,.647.8l-4.771,3.862A.73.73,0,0,1,1291.987,387.839Z" transform="translate(-1288.9 -382.9)" fill="#0c111a"/>
        </g>
        <path id="路径_38722" data-name="路径 38722" d="M1884.362,555.711l-.015-.015a.3.3,0,0,0-.427,0l-3.765,3.874c-.005,0-.013,0-.015,0l-1.766-1.818a.312.312,0,1,0-.448.434l2,2.061a.3.3,0,0,0,.194.089h.044a.305.305,0,0,0,.2-.089l4-4.118A.3.3,0,0,0,1884.362,555.711Z" transform="translate(-1588.642 -417.582)" fill="#0080f4" stroke="#0080f4" stroke-width="1"/>
        <g id="组_21799" data-name="组 21799" transform="translate(276.821 126.32)">
          <path id="路径_38723" data-name="路径 38723" d="M1859.635,556.187a.444.444,0,1,0,0,.887h5.763a.444.444,0,0,0,0-.887Z" transform="translate(-1855.155 -543.072)" fill="#0080f4" stroke="#0080f4" stroke-miterlimit="10" stroke-width="0.25"/>
          <path id="路径_38724" data-name="路径 38724" d="M1867.839,547.26a.445.445,0,0,0-.444-.444h-7.76a.444.444,0,0,0,0,.888h7.76A.445.445,0,0,0,1867.839,547.26Z" transform="translate(-1855.155 -538.082)" fill="#0080f4" stroke="#0080f4" stroke-miterlimit="10" stroke-width="0.25"/>
          <path id="路径_38725" data-name="路径 38725" d="M1867.4,537.445h-7.76a.444.444,0,0,0,0,.888h7.76a.444.444,0,0,0,0-.888Z" transform="translate(-1855.155 -533.093)" fill="#0080f4" stroke="#0080f4" stroke-miterlimit="10" stroke-width="0.25"/>
          <path id="路径_38727" data-name="路径 38727" d="M1866.214,546.606h-14.7a.269.269,0,0,1-.269-.268V529.1a.269.269,0,0,1,.269-.268h14.8a.269.269,0,0,1,.268.268v9.237a.345.345,0,1,0,.691,0V529.1a.96.96,0,0,0-.959-.959h-14.8a.96.96,0,0,0-.959.959v17.241a.96.96,0,0,0,.959.959h14.7a.345.345,0,0,0,0-.691Z" transform="translate(-1850.559 -528.138)" fill="#0080f4" stroke="#0080f4" stroke-miterlimit="10" stroke-width="0.25"/>
        </g>
      </g>
      <g id="蒙版组_29" data-name="蒙版组 29" transform="translate(10.685 108)" clip-path="url(#clip-path)">
        <g id="组_21645" data-name="组 21645" transform="translate(211.18 -15.165)" opacity="0.05">
          <g id="组_21643" data-name="组 21643" transform="translate(193.995 110.23)">
            <path id="路径_38579" data-name="路径 38579" d="M931.22-360.38l-45.353-26.185a9.634,9.634,0,0,1-4.817-8.343v-52.37a9.635,9.635,0,0,1,4.817-8.344l45.353-26.185a9.635,9.635,0,0,1,9.634,0l45.354,26.185a9.635,9.635,0,0,1,4.817,8.344v52.37a9.634,9.634,0,0,1-4.817,8.343L940.854-360.38A9.635,9.635,0,0,1,931.22-360.38Z" transform="translate(-874.82 488.686)" fill="none" stroke="#000" stroke-miterlimit="10" stroke-width="1"/>
            <line id="直线_476" data-name="直线 476" y1="6.721" transform="translate(0 39.151)" fill="none" stroke="#000" stroke-miterlimit="10" stroke-width="1"/>
            <line id="直线_477" data-name="直线 477" y1="31.078" transform="translate(0 52.122)" fill="none" stroke="#000" stroke-miterlimit="10" stroke-width="1"/>
            <line id="直线_478" data-name="直线 478" x1="5.582" y1="3.223" transform="translate(6.392 106.529)" fill="none" stroke="#000" stroke-miterlimit="10" stroke-width="1"/>
            <line id="直线_479" data-name="直线 479" x1="27.465" y1="15.857" transform="translate(17.184 112.759)" fill="none" stroke="#000" stroke-miterlimit="10" stroke-width="1"/>
            <line id="直线_480" data-name="直线 480" x1="5.393" y2="3.114" transform="translate(67.97 131.474)" fill="none" stroke="#000" stroke-miterlimit="10" stroke-width="1"/>
            <line id="直线_481" data-name="直线 481" x1="27.281" y2="15.751" transform="translate(78.911 112.521)" fill="none" stroke="#000" stroke-miterlimit="10" stroke-width="1"/>
            <line id="直线_482" data-name="直线 482" y2="6.378" transform="translate(122.963 89.236)" fill="none" stroke="#000" stroke-miterlimit="10" stroke-width="1"/>
            <line id="直线_483" data-name="直线 483" y2="31.421" transform="translate(122.963 51.009)" fill="none" stroke="#000" stroke-miterlimit="10" stroke-width="1"/>
            <line id="直线_484" data-name="直线 484" x2="5.596" y2="3.231" transform="translate(111.023 24.952)" fill="none" stroke="#000" stroke-miterlimit="10" stroke-width="1"/>
            <line id="直线_485" data-name="直线 485" x2="27.305" y2="15.764" transform="translate(78.205 6.005)" fill="none" stroke="#000" stroke-miterlimit="10" stroke-width="1"/>
            <line id="直线_486" data-name="直线 486" y1="3.143" x2="5.444" transform="translate(49.714)" fill="none" stroke="#000" stroke-miterlimit="10" stroke-width="1" opacity="0.5"/>
            <line id="直线_487" data-name="直线 487" y1="15.629" x2="27.07" transform="translate(16.814 6.51)" fill="none" stroke="#000" stroke-miterlimit="10" stroke-width="1"/>
          </g>
          <path id="路径_38580" data-name="路径 38580" d="M1121.836-572.841,1098.353-586.4a9.633,9.633,0,0,1-4.817-8.343v-27.116a9.633,9.633,0,0,1,4.817-8.343l23.483-13.558a9.632,9.632,0,0,1,9.634,0l23.483,13.558a9.634,9.634,0,0,1,4.817,8.343v27.116a9.634,9.634,0,0,1-4.817,8.343l-23.483,13.558A9.635,9.635,0,0,1,1121.836-572.841Z" transform="translate(-784.161 677.675)" fill="none" stroke="#000" stroke-miterlimit="10" stroke-width="1"/>
          <path id="路径_38581" data-name="路径 38581" d="M1170.854-501.2l-4.365,2.52a9.77,9.77,0,0,1-.945.479" transform="translate(-819.179 607.718)" fill="none" stroke="#000" stroke-miterlimit="10" stroke-width="1"/>
          <path id="路径_38582" data-name="路径 38582" d="M1208.226-539.016a9.636,9.636,0,0,1-4.535,6.029l-18.342,10.59" transform="translate(-828.81 626.109)" fill="none" stroke="#000" stroke-miterlimit="10" stroke-width="1"/>
          <line id="直线_488" data-name="直线 488" y2="5.972" transform="translate(379.697 59.186)" fill="none" stroke="#000" stroke-miterlimit="10" stroke-width="1"/>
          <path id="路径_38583" data-name="路径 38583" d="M1190.822-638.194l15.53,8.967a9.633,9.633,0,0,1,4.817,8.343" transform="translate(-831.472 674.341)" fill="none" stroke="#000" stroke-miterlimit="10" stroke-width="1"/>
          <path id="路径_38584" data-name="路径 38584" d="M1141.4-649.955l3.716-2.146q.374-.216.762-.4" transform="translate(-807.435 681.296)" fill="none" stroke="#000" stroke-miterlimit="10" stroke-width="1"/>
          <path id="路径_38585" data-name="路径 38585" d="M1086.423-625.423a9.634,9.634,0,0,1,4.384-5.485l18.606-10.743" transform="translate(-780.701 676.022)" fill="none" stroke="#000" stroke-miterlimit="10" stroke-width="1"/>
          <path id="路径_38587" data-name="路径 38587" d="M1006.642-519.884l19.545-35.019a9.633,9.633,0,0,1,8.272-4.938l12.461-.181" transform="translate(-741.903 636.325)" fill="none" stroke="#000" stroke-miterlimit="10" stroke-width="1"/>
          <path id="路径_38588" data-name="路径 38588" d="M1291.57-590l-4.505,9.978c-1.134,2.511-3.088,3.938-5.127,3.743l-1.62-.154" transform="translate(-867.294 650.901)" fill="none" stroke="#000" stroke-miterlimit="10" stroke-width="1"/>
          <path id="路径_38589" data-name="路径 38589" d="M1295.855-367.945l-6.158-9.922a9.634,9.634,0,0,0-8.492-4.549l-5.815.087" transform="translate(-872.599 549.955)" fill="none" stroke="#000" stroke-miterlimit="10" stroke-width="1"/>
          <path id="路径_38590" data-name="路径 38590" d="M1120.52-160.623,1102.541-171a9.634,9.634,0,0,1-4.817-8.343v-20.761a9.633,9.633,0,0,1,4.817-8.343l17.979-10.381a9.635,9.635,0,0,1,9.634,0l17.98,10.381a9.633,9.633,0,0,1,4.817,8.343v20.761a9.634,9.634,0,0,1-4.817,8.343l-17.98,10.381A9.635,9.635,0,0,1,1120.52-160.623Z" transform="translate(-786.197 471.027)" fill="none" stroke="#000" stroke-miterlimit="10" stroke-width="1"/>
          <path id="路径_38592" data-name="路径 38592" d="M1102.125-137.645l-6.434-3.714a9.636,9.636,0,0,1-4.817-8.344v-13.639" transform="translate(-782.866 443.415)" fill="none" stroke="#000" stroke-miterlimit="10" stroke-width="1"/>
          <path id="路径_38593" data-name="路径 38593" d="M1163.486-100.947l-4.058,2.343a9.643,9.643,0,0,1-1.509.7" transform="translate(-815.471 413.07)" fill="none" stroke="#000" stroke-miterlimit="10" stroke-width="1"/>
          <path id="路径_38594" data-name="路径 38594" d="M1197.046-151.51v7.561a9.635,9.635,0,0,1-4.817,8.344l-11.067,6.389" transform="translate(-826.774 437.66)" fill="none" stroke="#000" stroke-miterlimit="10" stroke-width="1"/>
          <path id="路径_38595" data-name="路径 38595" d="M1195.024-205.792l3.946,2.278a9.644,9.644,0,0,1,1.576,1.136" transform="translate(-833.516 464.058)" fill="none" stroke="#000" stroke-miterlimit="10" stroke-width="1"/>
          <path id="路径_38597" data-name="路径 38597" d="M522.766-526l-19.514-11.266a9.634,9.634,0,0,1-4.817-8.343v-22.533a9.634,9.634,0,0,1,4.817-8.343l19.514-11.266a9.634,9.634,0,0,1,9.634,0l19.513,11.266a9.634,9.634,0,0,1,4.817,8.343v22.533a9.634,9.634,0,0,1-4.817,8.343L532.4-526A9.635,9.635,0,0,1,522.766-526Z" transform="translate(-494.755 650.438)" fill="none" stroke="#000" stroke-miterlimit="10" stroke-width="1"/>
          <g id="组_21644" data-name="组 21644" transform="translate(0 57.145)">
            <path id="路径_38598" data-name="路径 38598" d="M491.271-548.956v-5.085a9.6,9.6,0,0,1,.14-1.635" transform="translate(-491.271 577.066)" fill="none" stroke="#000" stroke-miterlimit="10" stroke-width="1"/>
            <path id="路径_38599" data-name="路径 38599" d="M503.131-502.165l-7.043-4.066a9.635,9.635,0,0,1-4.817-8.343v-15.019" transform="translate(-491.271 564.381)" fill="none" stroke="#000" stroke-miterlimit="10" stroke-width="1"/>
            <line id="直线_489" data-name="直线 489" x1="4.754" y2="2.745" transform="translate(37.645 68.796)" fill="none" stroke="#000" stroke-miterlimit="10" stroke-width="1"/>
            <path id="路径_38600" data-name="路径 38600" d="M602.4-500.356a9.649,9.649,0,0,1-.138,1.626,9.637,9.637,0,0,1-4.679,6.717l-12.805,7.393" transform="translate(-536.745 550.163)" fill="none" stroke="#000" stroke-miterlimit="10" stroke-width="1"/>
            <path id="路径_38601" data-name="路径 38601" d="M601.06-573.727l4.441,2.564a9.69,9.69,0,0,1,1.139.771" transform="translate(-544.663 585.844)" fill="none" stroke="#000" stroke-miterlimit="10" stroke-width="1"/>
            <path id="路径_38602" data-name="路径 38602" d="M532.161-591.98l7.006-4.045a9.634,9.634,0,0,1,9.634,0l12.77,7.372" transform="translate(-511.156 597.316)" fill="none" stroke="#000" stroke-miterlimit="10" stroke-width="1"/>
          </g>
          <path id="路径_38603" data-name="路径 38603" d="M746.694-228.043,728.651-238.46a9.633,9.633,0,0,1-4.817-8.343v-20.834a9.634,9.634,0,0,1,4.817-8.343L746.694-286.4a9.635,9.635,0,0,1,9.634,0l18.043,10.417a9.634,9.634,0,0,1,4.817,8.343V-246.8a9.633,9.633,0,0,1-4.817,8.343l-18.043,10.417A9.635,9.635,0,0,1,746.694-228.043Z" transform="translate(-604.37 503.885)" fill="none" stroke="#000" stroke-miterlimit="10" stroke-width="1"/>
          <path id="路径_38604" data-name="路径 38604" d="M811.517-197.36a9.633,9.633,0,0,1-4.137,4.788l-21.566,12.451a9.643,9.643,0,0,1-1.609.741" transform="translate(-633.729 459.957)" fill="none" stroke="#000" stroke-miterlimit="10" stroke-width="1"/>
          <path id="路径_38605" data-name="路径 38605" d="M821.241-273.667l4.15,2.4a9.634,9.634,0,0,1,4.817,8.343v21.446" transform="translate(-651.74 497.066)" fill="none" stroke="#000" stroke-miterlimit="10" stroke-width="1"/>
          <path id="路径_38606" data-name="路径 38606" d="M719.27-277.557a9.637,9.637,0,0,1,2.5-3.1,9.645,9.645,0,0,1,1.263-.87L744.6-293.974a9.689,9.689,0,0,1,1.7-.774" transform="translate(-602.15 507.318)" fill="none" stroke="#000" stroke-miterlimit="10" stroke-width="1"/>
          <path id="路径_38607" data-name="路径 38607" d="M725.973-213.514l-3.934-2.272a9.635,9.635,0,0,1-4.817-8.344v-20.964" transform="translate(-601.154 483.171)" fill="none" stroke="#000" stroke-miterlimit="10" stroke-width="1"/>
          <path id="路径_38608" data-name="路径 38608" d="M750.674-557.748,724.223-573.02a9.633,9.633,0,0,1-4.817-8.343v-30.543a9.635,9.635,0,0,1,4.817-8.344l26.451-15.271a9.632,9.632,0,0,1,9.634,0l26.452,15.271a9.635,9.635,0,0,1,4.817,8.344v30.543a9.633,9.633,0,0,1-4.817,8.343l-26.452,15.272A9.635,9.635,0,0,1,750.674-557.748Z" transform="translate(-602.216 673.669)" fill="none" stroke="#000" stroke-miterlimit="10" stroke-width="1"/>
          <line id="直线_490" data-name="直线 490" y1="6.357" transform="translate(112.738 81.339)" fill="none" stroke="#000" stroke-miterlimit="10" stroke-width="1"/>
          <path id="路径_38609" data-name="路径 38609" d="M732.987-505.458l-17.432-10.064a9.634,9.634,0,0,1-4.817-8.343" transform="translate(-598.001 618.741)" fill="none" stroke="#000" stroke-miterlimit="10" stroke-width="1"/>
          <line id="直线_491" data-name="直线 491" x1="5.066" y2="2.925" transform="translate(158.092 118.136)" fill="none" stroke="#000" stroke-miterlimit="10" stroke-width="1"/>
          <line id="直线_492" data-name="直线 492" y2="6.228" transform="translate(193.813 66.313)" fill="none" stroke="#000" stroke-miterlimit="10" stroke-width="1"/>
          <path id="路径_38611" data-name="路径 38611" d="M825.669-628.929l17.22,9.942a9.634,9.634,0,0,1,4.817,8.343v.893" transform="translate(-653.893 669.835)" fill="none" stroke="#000" stroke-miterlimit="10" stroke-width="1"/>
          <line id="直线_493" data-name="直线 493" y1="2.742" x2="4.749" transform="translate(143.709 33.006)" fill="none" stroke="#000" stroke-miterlimit="10" stroke-width="1"/>
          <path id="路径_38612" data-name="路径 38612" d="M711.649-615.615A9.631,9.631,0,0,1,716-620.993l20.892-12.062" transform="translate(-598.444 671.841)" fill="none" stroke="#000" stroke-miterlimit="10" stroke-width="1"/>
          <path id="路径_38613" data-name="路径 38613" d="M1332.34-636.579,1312.725-647.9a9.634,9.634,0,0,1-4.817-8.343V-678.9a9.635,9.635,0,0,1,4.817-8.344l19.615-11.324a9.635,9.635,0,0,1,9.634,0l19.615,11.324a9.634,9.634,0,0,1,4.817,8.344v22.649a9.634,9.634,0,0,1-4.817,8.343l-19.615,11.324A9.632,9.632,0,0,1,1332.34-636.579Z" transform="translate(-888.413 704.327)" fill="none" stroke="#000" stroke-miterlimit="10" stroke-width="1"/>
          <path id="路径_38614" data-name="路径 38614" d="M1329.118-699.519l13.426-7.751a9.637,9.637,0,0,1,8.487-.565" transform="translate(-898.727 708.561)" fill="none" stroke="#000" stroke-miterlimit="10" stroke-width="1"/>
          <path id="路径_38615" data-name="路径 38615" d="M1300.6-641.283v-23.154q0-.409.034-.813" transform="translate(-884.86 687.499)" fill="none" stroke="#000" stroke-miterlimit="10" stroke-width="1"/>
          <path id="路径_38616" data-name="路径 38616" d="M1319.141-593.752l-13.606-7.856a9.633,9.633,0,0,1-4.7-6.822" transform="translate(-884.974 659.866)" fill="none" stroke="#000" stroke-miterlimit="10" stroke-width="1"/>
          <path id="路径_38617" data-name="路径 38617" d="M1393.031-591.61,1372.923-580a9.651,9.651,0,0,1-1.148.565" transform="translate(-919.472 651.686)" fill="none" stroke="#000" stroke-miterlimit="10" stroke-width="1"/>
          <path id="路径_38618" data-name="路径 38618" d="M1424.1-641.676v15.557a9.633,9.633,0,0,1-4.817,8.343" transform="translate(-942.575 676.034)" fill="none" stroke="#000" stroke-miterlimit="10" stroke-width="1"/>
          <path id="路径_38619" data-name="路径 38619" d="M1380.022-702.577l20.167,11.644a9.683,9.683,0,0,1,1.063.711" transform="translate(-923.482 705.651)" fill="none" stroke="#000" stroke-miterlimit="10" stroke-width="1"/>
          <path id="路径_38620" data-name="路径 38620" d="M1320.684-303.176l-23.475-13.554a9.633,9.633,0,0,1-4.817-8.343V-352.18a9.634,9.634,0,0,1,4.817-8.343l23.475-13.554a9.635,9.635,0,0,1,9.634,0l23.475,13.554a9.634,9.634,0,0,1,4.817,8.343v27.107a9.633,9.633,0,0,1-4.817,8.343l-23.475,13.554A9.632,9.632,0,0,1,1320.684-303.176Z" transform="translate(-880.866 546.525)" fill="none" stroke="#000" stroke-miterlimit="10" stroke-width="1"/>
          <path id="路径_38623" data-name="路径 38623" d="M1416.463-300.676v13.667a9.636,9.636,0,0,1-4.817,8.343l-8.139,4.7" transform="translate(-934.903 510.201)" fill="none" stroke="#000" stroke-miterlimit="10" stroke-width="1"/>
          <path id="路径_38624" data-name="路径 38624" d="M1393.159-366.481l13.455,7.768a9.675,9.675,0,0,1,.924.607" transform="translate(-929.871 542.203)" fill="none" stroke="#000" stroke-miterlimit="10" stroke-width="1"/>
          <path id="路径_38625" data-name="路径 38625" d="M1324.258-376.143l12.057-6.961a9.635,9.635,0,0,1,9.634,0l8.147,4.7" transform="translate(-896.364 550.915)" fill="none" stroke="#000" stroke-miterlimit="10" stroke-width="1"/>
          <path id="路径_38626" data-name="路径 38626" d="M611.92-555.129h21.436a4.966,4.966,0,0,0,4.966-4.966v-9.161a6.421,6.421,0,0,1,6.421-6.421h22.391" transform="translate(-549.944 643.937)" fill="none" stroke="#000" stroke-miterlimit="10" stroke-width="1"/>
          <line id="直线_495" data-name="直线 495" x2="26.198" transform="translate(317.824 168.088)" fill="none" stroke="#000" stroke-miterlimit="10" stroke-width="1"/>
          <line id="直线_496" data-name="直线 496" x2="28.831" transform="translate(350.422 168.024)" fill="none" stroke="#000" stroke-miterlimit="10" stroke-width="1"/>
          <path id="路径_38628" data-name="路径 38628" d="M43.311,63.448" transform="translate(165.896 77.44)" fill="none" stroke="#000" stroke-width="1"/>
          <line id="直线_499" data-name="直线 499" y2="5.822" transform="translate(305.722 73.27)" fill="none" stroke="#000" stroke-miterlimit="10" stroke-width="1"/>
          <line id="直线_501" data-name="直线 501" x2="14.655" y2="22.389" transform="translate(276.457 236.451)" fill="none" stroke="#000" stroke-miterlimit="10" stroke-width="1"/>
          <line id="直线_502" data-name="直线 502" x1="16.109" y2="23.903" transform="translate(205.049 228.75)" fill="none" stroke="#000" stroke-miterlimit="10" stroke-width="1"/>
          <path id="路径_38627" data-name="路径 38627" d="M831.02-205.142h21.77s3.253.226,4.966-1.7" transform="translate(-656.495 464.569)" fill="none" stroke="#000" stroke-miterlimit="10" stroke-width="1"/>
        </g>
      </g>
    </g>
    <g id="组_22002" data-name="组 22002" transform="translate(0 -23.99)">
      <path id="路径_39973" data-name="路径 39973" d="M2.085-4A1.733,1.733,0,0,0,.8-3.5a2.141,2.141,0,0,0-.57,1.56A1.856,1.856,0,0,0,2.09.145,1.862,1.862,0,0,0,3.96-1.94,2.156,2.156,0,0,0,3.4-3.5,1.752,1.752,0,0,0,2.085-4ZM2.1-.45a1.08,1.08,0,0,1-.775-.305,1.652,1.652,0,0,1-.4-1.18c0-.9.455-1.475,1.175-1.475a1.076,1.076,0,0,1,.77.305A1.615,1.615,0,0,1,3.26-1.94C3.26-1.02,2.815-.45,2.1-.45ZM15.24-3.92a4.07,4.07,0,0,1,.04.685v1.76A.913.913,0,0,1,14.265-.44.916.916,0,0,1,13.24-1.47V-3.235a3.921,3.921,0,0,1,.04-.685h-.745a4.108,4.108,0,0,1,.04.685V-1.47A1.611,1.611,0,0,0,12.95-.32a1.723,1.723,0,0,0,1.29.47,1.506,1.506,0,0,0,1.7-1.615V-3.24a4.041,4.041,0,0,1,.04-.68ZM28.055.06c-.07-.135-.195-.405-.235-.5-.5-1.17-.59-1.31-.905-1.41a1.057,1.057,0,0,0,.555-.29,1.028,1.028,0,0,0,.255-.745c0-.66-.435-1.04-1.195-1.04h-1.2c-.275,0-.43-.005-.64-.015a4.449,4.449,0,0,1,.04.65v2.7a3.913,3.913,0,0,1-.04.65h.745A3.9,3.9,0,0,1,25.4-.6v-1.02h.745c.385,0,.56.185.83.875a4.048,4.048,0,0,1,.26.8ZM25.4-2.185V-3.35H26.42c.41,0,.615.185.615.545a.593.593,0,0,1-.16.44.674.674,0,0,1-.475.18ZM48.625.06a4.072,4.072,0,0,1,.22-.665l.75-1.76a6.1,6.1,0,0,0,.23-.73c-.005.075-.02.33-.04.765V-.67a4.649,4.649,0,0,1-.04.73h.7a4.334,4.334,0,0,1-.04-.73V-3.18a5.178,5.178,0,0,1,.04-.74h-.92a2.771,2.771,0,0,1-.18.6l-1.01,2.48L47.32-3.325a3.46,3.46,0,0,1-.185-.6H46.22a4.96,4.96,0,0,1,.04.74V-.67a4.69,4.69,0,0,1-.04.73h.7a4.569,4.569,0,0,1-.04-.73V-2.31c0-.11-.02-.52-.04-.785a5.564,5.564,0,0,0,.255.765l.72,1.715a3.4,3.4,0,0,1,.22.675Zm10.53-3.98a3.736,3.736,0,0,1,.04.645v2.69a3.773,3.773,0,0,1-.04.645h.76a3.772,3.772,0,0,1-.04-.645v-2.69a3.735,3.735,0,0,1,.04-.645ZM68.49-1.105a1.709,1.709,0,0,0,.1.415,1.177,1.177,0,0,0,.44.57,2.01,2.01,0,0,0,1.05.26A1.657,1.657,0,0,0,71.27-.24a1.163,1.163,0,0,0,.315-.85.987.987,0,0,0-.415-.86,2.2,2.2,0,0,0-.815-.305,4.257,4.257,0,0,1-.7-.18.475.475,0,0,1-.34-.455c0-.325.295-.545.73-.545a.791.791,0,0,1,.625.24.646.646,0,0,1,.15.355l.715-.085a1.348,1.348,0,0,0-.245-.58A1.474,1.474,0,0,0,70.04-4.01c-.86,0-1.42.45-1.42,1.145a.984.984,0,0,0,.385.81,1.767,1.767,0,0,0,.755.3,3.153,3.153,0,0,1,.87.245.508.508,0,0,1,.25.46c0,.375-.3.6-.8.6a.888.888,0,0,1-.73-.3.717.717,0,0,1-.14-.44Zm11.575,0a1.709,1.709,0,0,0,.1.415,1.177,1.177,0,0,0,.44.57,2.01,2.01,0,0,0,1.05.26,1.657,1.657,0,0,0,1.195-.38,1.163,1.163,0,0,0,.315-.85.987.987,0,0,0-.415-.86,2.2,2.2,0,0,0-.815-.305,4.257,4.257,0,0,1-.7-.18.475.475,0,0,1-.34-.455c0-.325.295-.545.73-.545a.791.791,0,0,1,.625.24.646.646,0,0,1,.15.355l.715-.085a1.348,1.348,0,0,0-.245-.58,1.474,1.474,0,0,0-1.245-.505c-.86,0-1.42.45-1.42,1.145a.984.984,0,0,0,.385.81,1.767,1.767,0,0,0,.755.3,3.153,3.153,0,0,1,.87.245.508.508,0,0,1,.25.46c0,.375-.3.6-.8.6a.888.888,0,0,1-.73-.3.717.717,0,0,1-.14-.44ZM91.77-3.92a3.736,3.736,0,0,1,.04.645v2.69a3.773,3.773,0,0,1-.04.645h.76a3.773,3.773,0,0,1-.04-.645v-2.69a3.736,3.736,0,0,1,.04-.645ZM102.965-4a1.733,1.733,0,0,0-1.29.5,2.141,2.141,0,0,0-.57,1.56A1.856,1.856,0,0,0,102.97.145a1.862,1.862,0,0,0,1.87-2.085,2.156,2.156,0,0,0-.56-1.56A1.752,1.752,0,0,0,102.965-4Zm.015,3.55a1.08,1.08,0,0,1-.775-.305,1.652,1.652,0,0,1-.4-1.18c0-.9.455-1.475,1.175-1.475a1.076,1.076,0,0,1,.77.305,1.615,1.615,0,0,1,.4,1.165C104.14-1.02,103.695-.45,102.98-.45Zm13.84.51a3.773,3.773,0,0,1-.04-.645V-3.23a4.372,4.372,0,0,1,.04-.69h-.73a4.371,4.371,0,0,1,.04.69v1.68c0,.21.015.51.035.7-.11-.2-.27-.46-.39-.64l-1.265-1.9a2.742,2.742,0,0,1-.305-.53h-.78a4.165,4.165,0,0,1,.04.645V-.7a5.411,5.411,0,0,1-.04.755h.73a5.534,5.534,0,0,1-.04-.75V-2.33c0-.115-.01-.34-.015-.435-.015-.185-.015-.185-.02-.255.12.235.245.45.34.6l1.29,1.945a4.981,4.981,0,0,1,.32.535Z" transform="translate(19095.775 -226)"/>
      <path id="路径_40090" data-name="路径 40090" d="M7.935,42.946a1.91,1.91,0,0,0-.122-.7,1.324,1.324,0,0,0-.433-.555,2.183,2.183,0,0,0-.836-.372,8.514,8.514,0,0,0-1.782-.128q-1.062,0-1.99.067t-1.953.238V39.736a6.4,6.4,0,0,1,.25-1.959,3.42,3.42,0,0,1,.83-1.422,3.583,3.583,0,0,1,1.465-.867,6.983,6.983,0,0,1,2.155-.293q.4,0,.958.037l1.154.073,1.184.073q.586.037,1.038.037.806,0,1.483-.031a10.29,10.29,0,0,0,1.068-.092v2.136a9.425,9.425,0,0,1-1.025.079q-.6.018-1.44.018-.439,0-1.074-.037l-1.276-.073q-.641-.037-1.2-.073t-.861-.037a3.492,3.492,0,0,0-1.123.116,1.183,1.183,0,0,0-.458.323,1.277,1.277,0,0,0-.256.488,4.24,4.24,0,0,0-.079,1q.354-.049.836-.085t1.385-.037a12.435,12.435,0,0,1,2.332.189,4.04,4.04,0,0,1,1.6.635,2.589,2.589,0,0,1,.916,1.2,5.281,5.281,0,0,1,.293,1.892v2.344a2.848,2.848,0,0,1-.72,2.094,2.515,2.515,0,0,1-1.868.726,3.453,3.453,0,0,1-1.031-.146,2.267,2.267,0,0,1-.812-.439,1.93,1.93,0,0,1-.525-.726,2.537,2.537,0,0,1-.183-.995,2.366,2.366,0,0,1,.165-.9,2.141,2.141,0,0,1,.452-.7,2.176,2.176,0,0,1,.665-.464,2.47,2.47,0,0,1,.818-.208Zm1.147,2.942a.938.938,0,1,0-.275.665A.906.906,0,0,0,9.082,45.888Zm1-13.721a.938.938,0,1,0-.275.665A.906.906,0,0,0,10.081,32.167Zm1.233.7a5.931,5.931,0,0,0,1.074-.568,7.407,7.407,0,0,0,1.007-.806,9.332,9.332,0,0,0,.909-1A12.791,12.791,0,0,0,15.1,29.36v2.515a6.044,6.044,0,0,1-.9.97,7.637,7.637,0,0,1-1.263.9,7.867,7.867,0,0,1-1.52.671,5.383,5.383,0,0,1-1.666.262,3.937,3.937,0,0,1-1.282-.189,2.629,2.629,0,0,1-.916-.519A2.112,2.112,0,0,1,7,33.2a2.5,2.5,0,0,1-.183-.958A2.343,2.343,0,0,1,7,31.319a2.462,2.462,0,0,1,.494-.757,2.332,2.332,0,0,1,.732-.513,2.164,2.164,0,0,1,.9-.189,2.269,2.269,0,0,1,.9.183,2.3,2.3,0,0,1,1.233,1.227,2.226,2.226,0,0,1,.183.9,1.916,1.916,0,0,1-.049.415A1.165,1.165,0,0,1,11.313,32.863ZM18,48V39.772l-.1-.012a2.346,2.346,0,0,1-.781-.232,2.14,2.14,0,0,1-1.056-1.16,2.364,2.364,0,0,1-.153-.867,2.526,2.526,0,0,1,.183-1,1.941,1.941,0,0,1,.525-.72,2.267,2.267,0,0,1,.812-.439,3.453,3.453,0,0,1,1.031-.146,2.622,2.622,0,0,1,1.831.69,2.745,2.745,0,0,1,.757,2.13v7.556h3.271a1.8,1.8,0,0,0,1.233-.4,1.5,1.5,0,0,0,.452-1.19V35.378h3.04V44.5a4.168,4.168,0,0,1-.232,1.416,3,3,0,0,1-.69,1.111,3.119,3.119,0,0,1-1.135.72A4.38,4.38,0,0,1,25.437,48Zm1.16-10.5a.938.938,0,1,0-.275.665A.906.906,0,0,0,19.163,37.5ZM38.521,43.52a1.453,1.453,0,0,0-.2.391,4.046,4.046,0,0,0-.146.555,6.28,6.28,0,0,0-.092.659q-.031.348-.031.7V48H35V44.875a5.2,5.2,0,0,0-.153-1.16q-.14-.562-.3-1.154t-.293-1.251a7.223,7.223,0,0,1-.134-1.44,4.084,4.084,0,0,1,.482-2.008A4.209,4.209,0,0,1,35.969,36.4a6.574,6.574,0,0,1,2.118-.9,11.517,11.517,0,0,1,2.753-.305,11.366,11.366,0,0,1,2.838.323,6.084,6.084,0,0,1,2.118.964,4.178,4.178,0,0,1,1.318,1.6,5.142,5.142,0,0,1,.452,2.216V48h-3.04V40.578a3.44,3.44,0,0,0-.183-1.129,2.3,2.3,0,0,0-.58-.916,3.063,3.063,0,0,0-1.111-.641,5.438,5.438,0,0,0-1.813-.256,5.689,5.689,0,0,0-1.813.244,3.025,3.025,0,0,0-1.1.6,2.222,2.222,0,0,0-.568.842,2.813,2.813,0,0,0-.183,1.007,3.9,3.9,0,0,0,.128,1.038q.128.464.275.977a3.243,3.243,0,0,1,.476-.922,3.376,3.376,0,0,1,.7-.7,3.108,3.108,0,0,1,.842-.446,2.753,2.753,0,0,1,.9-.153,2.723,2.723,0,0,1,.983.171,2.2,2.2,0,0,1,.763.482,2.142,2.142,0,0,1,.488.732,2.637,2.637,0,0,1,0,1.868,2.214,2.214,0,0,1-.47.726,2.088,2.088,0,0,1-.726.476,2.509,2.509,0,0,1-.94.171,2.414,2.414,0,0,1-1.27-.323A2.015,2.015,0,0,1,38.521,43.52ZM40.6,41.506a.938.938,0,1,0,.665.275A.906.906,0,0,0,40.6,41.506Zm19.675-1.05a2.645,2.645,0,0,0-.812-2.124,3.748,3.748,0,0,0-2.484-.7,7.924,7.924,0,0,0-1.312.116,10.256,10.256,0,0,0-1.355.323,9.606,9.606,0,0,0-1.257.488,6.567,6.567,0,0,0-1.031.6V36.354A4.225,4.225,0,0,1,53,35.83a8.084,8.084,0,0,1,1.221-.36,11.754,11.754,0,0,1,1.361-.208q.708-.067,1.392-.067A7.324,7.324,0,0,1,61.754,36.5a4.676,4.676,0,0,1,1.556,3.8v5.078a2.848,2.848,0,0,1-.72,2.094,2.515,2.515,0,0,1-1.868.726,3.453,3.453,0,0,1-1.031-.146,2.267,2.267,0,0,1-.812-.439,1.931,1.931,0,0,1-.525-.726,2.537,2.537,0,0,1-.183-.995,2.366,2.366,0,0,1,.165-.9,2.141,2.141,0,0,1,.452-.7,2.176,2.176,0,0,1,.665-.464,2.47,2.47,0,0,1,.818-.208Zm1.147,5.432a.938.938,0,1,0-.275.665A.906.906,0,0,0,61.418,45.888ZM76.052,48V40.578a2.878,2.878,0,0,0-.793-2.185,3.527,3.527,0,0,0-2.5-.757,7.924,7.924,0,0,0-1.312.116,10.256,10.256,0,0,0-1.355.323,9.606,9.606,0,0,0-1.257.488,6.567,6.567,0,0,0-1.031.6V36.354a4.225,4.225,0,0,1,.983-.525A8.084,8.084,0,0,1,70,35.469a11.754,11.754,0,0,1,1.361-.208q.708-.067,1.392-.067A7.324,7.324,0,0,1,77.535,36.5a4.676,4.676,0,0,1,1.556,3.8V48Zm18.723,0a6.212,6.212,0,0,0-.842-1.08,10.589,10.589,0,0,0-1.093-.983,6.34,6.34,0,0,0-1.587-.854,5.6,5.6,0,0,0-1.605-.427v.415a3.218,3.218,0,0,1-.775,2.313,2.758,2.758,0,0,1-2.094.812,3.7,3.7,0,0,1-2.417-.659,2.412,2.412,0,0,1-.781-1.953,2.742,2.742,0,0,1,.238-1.178,2.41,2.41,0,0,1,.653-.848,3.174,3.174,0,0,1,.964-.537,4.543,4.543,0,0,1,1.172-.244v-3l-.11-.012a2.346,2.346,0,0,1-.781-.232,2.14,2.14,0,0,1-1.056-1.16,2.364,2.364,0,0,1-.153-.867,2.526,2.526,0,0,1,.183-1,1.941,1.941,0,0,1,.525-.72,2.267,2.267,0,0,1,.812-.439,3.453,3.453,0,0,1,1.031-.146,2.622,2.622,0,0,1,1.831.69,2.745,2.745,0,0,1,.757,2.13V42.8a8.341,8.341,0,0,1,1.678.317,10,10,0,0,1,1.617.568,11.213,11.213,0,0,1,1.1.6,4.206,4.206,0,0,1,.848.684V35.378h3.04V48ZM87.756,37.5a.938.938,0,1,0-.275.665A.906.906,0,0,0,87.756,37.5Zm-1.147,7.1q-1.257.134-1.257,1.172a.963.963,0,0,0,.171.623.544.544,0,0,0,.439.208.579.579,0,0,0,.482-.208,1.161,1.161,0,0,0,.165-.708Zm17.673-3.992a.938.938,0,1,0,.275-.665A.906.906,0,0,0,104.282,40.615ZM118.455,44.5a4.168,4.168,0,0,1-.232,1.416,3,3,0,0,1-.69,1.111,3.119,3.119,0,0,1-1.135.72,4.38,4.38,0,0,1-1.556.256H108.2V43.837a10.934,10.934,0,0,1,.11-1.7,3.734,3.734,0,0,1,.354-1.141,2.7,2.7,0,0,1,.635-.8,6.851,6.851,0,0,1,.94-.665,2.827,2.827,0,0,0-.122-.836,1.807,1.807,0,0,0-.421-.714,2.518,2.518,0,0,0-.787-.543,2.907,2.907,0,0,0-1.221-.226,4.046,4.046,0,0,0-1.709.348,2.561,2.561,0,0,0-1.062.787.505.505,0,0,1,.153-.031q.092-.006.153-.006a2.462,2.462,0,0,1,.934.171,2.214,2.214,0,0,1,.726.47,2.087,2.087,0,0,1,.476.726,2.67,2.67,0,0,1,0,1.88,2.087,2.087,0,0,1-.476.726,2.214,2.214,0,0,1-.726.47,2.462,2.462,0,0,1-.934.171,2.631,2.631,0,0,1-1.154-.238,2.379,2.379,0,0,1-.836-.665,2.892,2.892,0,0,1-.513-1.025,4.789,4.789,0,0,1-.171-1.318,4.545,4.545,0,0,1,.354-1.813,3.816,3.816,0,0,1,1.05-1.416,4.959,4.959,0,0,1,1.727-.922,7.894,7.894,0,0,1,2.4-.33,7.384,7.384,0,0,1,2.106.305,5.159,5.159,0,0,1,1.746.867,3.732,3.732,0,0,1,1.093,1.373,4.239,4.239,0,0,1,.378,1.813,5.919,5.919,0,0,0-1.025.708,2.942,2.942,0,0,0-.665.842,3.749,3.749,0,0,0-.36,1.093,8.344,8.344,0,0,0-.11,1.447v1.929h2.49a1.822,1.822,0,0,0,1.233-.391,1.5,1.5,0,0,0,.452-1.2V41.518a5.646,5.646,0,0,0-.049-.8,2.09,2.09,0,0,0-.159-.574,1.134,1.134,0,0,0-.287-.391,1.444,1.444,0,0,0-.433-.25V38.027a3.648,3.648,0,0,0,1.056-.616,2.11,2.11,0,0,0,.549-.763,3.411,3.411,0,0,0,.232-.958q.055-.531.116-1.215h3.113a9.242,9.242,0,0,1-.238,1.508,3.954,3.954,0,0,1-.482,1.141,3.615,3.615,0,0,1-.818.9,6.626,6.626,0,0,1-1.233.751,1.922,1.922,0,0,1,.623.305,2.177,2.177,0,0,1,.537.568,3.027,3.027,0,0,1,.372.818,3.685,3.685,0,0,1,.14,1.056Zm.645-14.075h1.709V34.45H119.1Zm12.952,10.034a2.645,2.645,0,0,0-.812-2.124,3.748,3.748,0,0,0-2.484-.7,7.924,7.924,0,0,0-1.312.116,10.256,10.256,0,0,0-1.355.323,9.606,9.606,0,0,0-1.257.488,6.567,6.567,0,0,0-1.031.6V36.354a4.225,4.225,0,0,1,.983-.525,8.084,8.084,0,0,1,1.221-.36,11.754,11.754,0,0,1,1.361-.208q.708-.067,1.392-.067a7.324,7.324,0,0,1,4.779,1.306,4.676,4.676,0,0,1,1.556,3.8v5.078a2.848,2.848,0,0,1-.72,2.094,2.515,2.515,0,0,1-1.868.726,3.453,3.453,0,0,1-1.031-.146,2.267,2.267,0,0,1-.812-.439,1.931,1.931,0,0,1-.525-.726,2.537,2.537,0,0,1-.183-.995,2.366,2.366,0,0,1,.165-.9,2.141,2.141,0,0,1,.452-.7,2.176,2.176,0,0,1,.665-.464,2.47,2.47,0,0,1,.818-.208Zm1.147,5.432a.938.938,0,1,0-.275.665A.906.906,0,0,0,133.2,45.888Zm9.373-8.386a.938.938,0,1,0,.275-.665A.906.906,0,0,0,142.571,37.5ZM140.679,48V44.423a2.718,2.718,0,0,1,.159-.983,2.179,2.179,0,0,1,.415-.69,2.06,2.06,0,0,1,.574-.446,3.265,3.265,0,0,1,.623-.25,3.054,3.054,0,0,1-.623-.256,2.131,2.131,0,0,1-.989-1.141,2.718,2.718,0,0,1-.159-.983v-1.66a2.745,2.745,0,0,1,.757-2.13,2.622,2.622,0,0,1,1.831-.69,3.437,3.437,0,0,1,1.038.146,2.274,2.274,0,0,1,.806.439,1.941,1.941,0,0,1,.525.72,2.526,2.526,0,0,1,.183,1,2.364,2.364,0,0,1-.153.867,2.168,2.168,0,0,1-.421.684,2.194,2.194,0,0,1-.629.476,2.3,2.3,0,0,1-.787.232l-.1.012a1.108,1.108,0,0,0,.22.714,1.679,1.679,0,0,0,.531.439,2.887,2.887,0,0,0,.653.25q.342.085.6.134v1.477q-.256.049-.6.128a2.649,2.649,0,0,0-.659.25,1.579,1.579,0,0,0-.537.476,1.349,1.349,0,0,0-.22.806v1.111h3.992a1.759,1.759,0,0,0,1.233-.385,1.5,1.5,0,0,0,.452-1.19V35.378h3.04V44.5a4.169,4.169,0,0,1-.232,1.416,3,3,0,0,1-.69,1.111,3.119,3.119,0,0,1-1.135.72,4.38,4.38,0,0,1-1.556.256Zm20.737-12.634v8.179l.1.012a2.3,2.3,0,0,1,.787.232,2.194,2.194,0,0,1,.629.476,2.168,2.168,0,0,1,.421.684,2.364,2.364,0,0,1,.153.867,2.537,2.537,0,0,1-.183.995,1.931,1.931,0,0,1-.525.726,2.274,2.274,0,0,1-.806.439,3.437,3.437,0,0,1-1.038.146,2.622,2.622,0,0,1-1.831-.69,2.745,2.745,0,0,1-.757-2.13V35.366Zm-1.16,10.449a.938.938,0,1,0,.275-.665A.906.906,0,0,0,160.256,45.815ZM179.59,37.38a.824.824,0,0,0-.073-.36.782.782,0,0,0-.183-.25.671.671,0,0,0-.244-.14.881.881,0,0,0-.269-.043.9.9,0,0,0-.531.177.633.633,0,0,0-.25.555.96.96,0,0,0,.256.647,1.614,1.614,0,0,0,.562.427,2.746,2.746,0,0,0,.25-.171,1.554,1.554,0,0,0,.238-.226,1.126,1.126,0,0,0,.177-.281A.825.825,0,0,0,179.59,37.38ZM169.4,48V39.772l-.1-.012a2.346,2.346,0,0,1-.781-.232,2.14,2.14,0,0,1-1.056-1.16,2.364,2.364,0,0,1-.153-.867,2.526,2.526,0,0,1,.183-1,1.941,1.941,0,0,1,.525-.72,2.267,2.267,0,0,1,.812-.439,3.453,3.453,0,0,1,1.031-.146,2.622,2.622,0,0,1,1.831.69,2.745,2.745,0,0,1,.757,2.13V43.8q.61-.684,1.294-1.343t1.239-1.129q.555-.47,1.154-.928t1.282-.946q-.183-.171-.4-.4a3.9,3.9,0,0,1-.4-.513,2.883,2.883,0,0,1-.3-.6,2.028,2.028,0,0,1-.116-.69,1.785,1.785,0,0,1,.726-1.5,3.02,3.02,0,0,1,1.886-.555,5.08,5.08,0,0,1,1.233.14,3.239,3.239,0,0,1,.97.4,1.926,1.926,0,0,1,.635.647,1.715,1.715,0,0,1,.226.885,1.9,1.9,0,0,1-.1.616,2.509,2.509,0,0,1-.256.537,2.834,2.834,0,0,1-.36.458,5.439,5.439,0,0,1-.421.391,2.424,2.424,0,0,1,.7.555,2.621,2.621,0,0,1,.433.714,3.656,3.656,0,0,1,.226.848,6.6,6.6,0,0,1,.067.958V48h-3.04V42.421a7.779,7.779,0,0,0-.055-1,1.472,1.472,0,0,0-.4-.793q-.452.317-1.1.861t-1.263,1.1q-.616.555-1.227,1.172a19.407,19.407,0,0,0-1.324,1.508,9.327,9.327,0,0,0-1.019,1.489,2.428,2.428,0,0,0-.305,1.086V48Zm1.16-10.5a.938.938,0,1,0-.275.665A.906.906,0,0,0,170.557,37.5Zm20.164,6.116.1.012a2.3,2.3,0,0,1,.787.232,2.194,2.194,0,0,1,.629.476,2.168,2.168,0,0,1,.421.684,2.364,2.364,0,0,1,.153.867,2.537,2.537,0,0,1-.183.995,1.931,1.931,0,0,1-.525.726,2.274,2.274,0,0,1-.806.439,3.437,3.437,0,0,1-1.038.146,2.622,2.622,0,0,1-1.831-.69,2.745,2.745,0,0,1-.757-2.13V43.74a3.419,3.419,0,0,1,1.178-2.771,5.392,5.392,0,0,1,3.534-.989,8.038,8.038,0,0,1,1.88.2,5.215,5.215,0,0,1,1.343.5,3.523,3.523,0,0,1,.909.726,3.781,3.781,0,0,1,.592.885h.037V40.334a2.816,2.816,0,0,0-.244-1.221,2.237,2.237,0,0,0-.684-.842,2.9,2.9,0,0,0-1.056-.482,8.146,8.146,0,0,0-1.825-.153,10.354,10.354,0,0,0-1.508.116,13,13,0,0,0-1.544.323,12.1,12.1,0,0,0-1.434.488,7.73,7.73,0,0,0-1.178.6V36.354a5.851,5.851,0,0,1,1.135-.525,9.9,9.9,0,0,1,1.361-.36,14.386,14.386,0,0,1,1.526-.208q.8-.067,1.642-.067a8.442,8.442,0,0,1,5.127,1.3,4.471,4.471,0,0,1,1.721,3.8V48h-3.052V45.473a3.563,3.563,0,0,0-.232-1.288,3.332,3.332,0,0,0-.69-1.093,3.806,3.806,0,0,0-1.227-.836,4.616,4.616,0,0,0-1.9-.348,2.768,2.768,0,0,0-1.813.47,1.388,1.388,0,0,0-.543,1.068Zm-1.16,2.271a.938.938,0,1,0,.275-.665A.906.906,0,0,0,189.561,45.888Zm12.278-11.279q-1.5-.244-2.881-.409t-2.722-.262q-1.343-.1-2.692-.134t-2.789-.037a4.092,4.092,0,0,1,1.74-2.46,6.17,6.17,0,0,1,3.436-.861,6.937,6.937,0,0,1,1.062.079,7.91,7.91,0,0,1,1.013.226V29.433h1.465v1.99a5.272,5.272,0,0,1,.9.684V29.433h1.465Zm-5.9-2.93q-2.222,0-2.783,1.111,1.746,0,3.3.1t2.979.281a3.022,3.022,0,0,0-.537-.568,3.418,3.418,0,0,0-.769-.476,4.945,4.945,0,0,0-.989-.323A5.514,5.514,0,0,0,195.942,31.679Zm9.827,11.267a2.733,2.733,0,0,1,.763-2.13,2.628,2.628,0,0,1,1.825-.69,3.437,3.437,0,0,1,1.038.146,2.274,2.274,0,0,1,.806.439,1.941,1.941,0,0,1,.525.72,2.526,2.526,0,0,1,.183,1,2.412,2.412,0,0,1-.153.873,2.1,2.1,0,0,1-.427.69,2.273,2.273,0,0,1-1.422.708l-.085.012q.012.452.641.732a5.49,5.49,0,0,0,2.069.281,5,5,0,0,0,1.41-.159,2.628,2.628,0,0,0,.879-.446,2.057,2.057,0,0,0,.586-.8,2.913,2.913,0,0,0,.226-1.184V40.712a3.336,3.336,0,0,0-.287-1.489,2.5,2.5,0,0,0-.726-.9,3.185,3.185,0,0,0-1.135-.507,6.8,6.8,0,0,0-1.66-.177,10.354,10.354,0,0,0-1.508.116,13,13,0,0,0-1.544.323,12.1,12.1,0,0,0-1.434.488,7.73,7.73,0,0,0-1.178.6V36.354a5.851,5.851,0,0,1,1.135-.525,9.9,9.9,0,0,1,1.361-.36,14.386,14.386,0,0,1,1.526-.208q.8-.067,1.642-.067a8.442,8.442,0,0,1,5.127,1.3,4.471,4.471,0,0,1,1.721,3.8v2.771a6.679,6.679,0,0,1-.336,2.222,3.7,3.7,0,0,1-1.074,1.593,4.829,4.829,0,0,1-1.9.964,10.692,10.692,0,0,1-2.826.323,10.912,10.912,0,0,1-2.783-.3,4.9,4.9,0,0,1-1.77-.818,2.869,2.869,0,0,1-.934-1.233,4.231,4.231,0,0,1-.275-1.532Zm1.892-.513a.938.938,0,1,0,.275-.665A.906.906,0,0,0,207.661,42.434Zm18.369,1.184.1.012a2.3,2.3,0,0,1,.787.232,2.194,2.194,0,0,1,.629.476,2.168,2.168,0,0,1,.421.684,2.364,2.364,0,0,1,.153.867,2.537,2.537,0,0,1-.183.995,1.931,1.931,0,0,1-.525.726,2.274,2.274,0,0,1-.806.439,3.437,3.437,0,0,1-1.038.146,2.622,2.622,0,0,1-1.831-.69,2.745,2.745,0,0,1-.757-2.13V43.74a3.419,3.419,0,0,1,1.178-2.771,5.392,5.392,0,0,1,3.534-.989,7.608,7.608,0,0,1,1.959.2,5.564,5.564,0,0,1,1.263.507,3.341,3.341,0,0,1,.909.745,4.15,4.15,0,0,1,.592.9h.037V40.407a2.317,2.317,0,0,0-.336-1.294,1.851,1.851,0,0,0-.629-.659q-.208.134-.36.22l-.33.183-.348.189q-.171.092-.317.153H227.52q.208-.11.5-.293t.6-.385q.311-.2.61-.4t.507-.36a1.6,1.6,0,0,0-.208-.049q-.134-.024-.287-.043t-.317-.024q-.165-.006-.287-.006a10.354,10.354,0,0,0-1.508.116,13,13,0,0,0-1.544.323,12.1,12.1,0,0,0-1.434.488,7.73,7.73,0,0,0-1.178.6V36.354a5.851,5.851,0,0,1,1.135-.525,9.9,9.9,0,0,1,1.361-.36A14.386,14.386,0,0,1,227,35.262q.8-.067,1.642-.067.427,0,.879.031t.9.085q.446.055.848.134a4.9,4.9,0,0,1,.708.189,2.516,2.516,0,0,0,.3-.336q.153-.2.3-.409t.262-.409a3.142,3.142,0,0,0,.177-.348h2.979a6.969,6.969,0,0,1-.818,1.514,6.759,6.759,0,0,1-1.062,1.147,3.808,3.808,0,0,1,1.019,1.447,5.372,5.372,0,0,1,.36,2.057V48h-3.04V45.754a4.394,4.394,0,0,0-.22-1.41,3.293,3.293,0,0,0-.69-1.172,3.752,3.752,0,0,0-1.282-.879,4.154,4.154,0,0,0-1.7-.36,3.155,3.155,0,0,0-1.953.464,1.338,1.338,0,0,0-.574,1.05Zm-1.16,2.271a.938.938,0,1,0,.275-.665A.906.906,0,0,0,224.871,45.888ZM235.4,30.422h1.709V34.45H235.4Zm12.952,10.034a2.645,2.645,0,0,0-.812-2.124,3.748,3.748,0,0,0-2.484-.7,7.924,7.924,0,0,0-1.312.116,10.256,10.256,0,0,0-1.355.323,9.606,9.606,0,0,0-1.257.488,6.567,6.567,0,0,0-1.031.6V36.354a4.225,4.225,0,0,1,.983-.525,8.084,8.084,0,0,1,1.221-.36,11.754,11.754,0,0,1,1.361-.208q.708-.067,1.392-.067a7.324,7.324,0,0,1,4.779,1.306,4.676,4.676,0,0,1,1.556,3.8v5.078a2.848,2.848,0,0,1-.72,2.094,2.515,2.515,0,0,1-1.868.726,3.453,3.453,0,0,1-1.031-.146,2.267,2.267,0,0,1-.812-.439,1.931,1.931,0,0,1-.525-.726,2.537,2.537,0,0,1-.183-.995,2.366,2.366,0,0,1,.165-.9,2.141,2.141,0,0,1,.452-.7,2.176,2.176,0,0,1,.665-.464,2.47,2.47,0,0,1,.818-.208Zm1.147,5.432a.938.938,0,1,0-.275.665A.906.906,0,0,0,249.5,45.888Zm11.521-.916a6.556,6.556,0,0,1,.836-.72,5.812,5.812,0,0,1,1.068-.616,12.178,12.178,0,0,1,1.324-.494,9.82,9.82,0,0,1,2.02-.342V35.378h3.04v7.4a4.543,4.543,0,0,1,1.172.244,3.175,3.175,0,0,1,.964.537,2.41,2.41,0,0,1,.653.848,2.742,2.742,0,0,1,.238,1.178,2.412,2.412,0,0,1-.781,1.953,3.7,3.7,0,0,1-2.417.659,2.758,2.758,0,0,1-2.094-.812,3.218,3.218,0,0,1-.775-2.313v-.415a5.95,5.95,0,0,0-1.874.446,6.816,6.816,0,0,0-1.367.787,7.012,7.012,0,0,0-1.062.995A8.272,8.272,0,0,0,261.145,48h-3.174V39.772l-.1-.012a2.346,2.346,0,0,1-.781-.232,2.14,2.14,0,0,1-1.056-1.16,2.364,2.364,0,0,1-.153-.867,2.526,2.526,0,0,1,.183-1,1.941,1.941,0,0,1,.525-.72,2.267,2.267,0,0,1,.812-.439,3.453,3.453,0,0,1,1.031-.146,2.622,2.622,0,0,1,1.831.69,2.745,2.745,0,0,1,.757,2.13Zm8.289.72a1.161,1.161,0,0,0,.165.708.579.579,0,0,0,.482.208.544.544,0,0,0,.439-.208.963.963,0,0,0,.171-.623q0-1.038-1.257-1.172ZM259.131,37.5a.938.938,0,1,0-.275.665A.906.906,0,0,0,259.131,37.5ZM277.976,48V39.772l-.1-.012a2.346,2.346,0,0,1-.781-.232,2.14,2.14,0,0,1-1.056-1.16,2.364,2.364,0,0,1-.153-.867,2.526,2.526,0,0,1,.183-1,1.941,1.941,0,0,1,.525-.72,2.267,2.267,0,0,1,.812-.439,3.453,3.453,0,0,1,1.031-.146,2.622,2.622,0,0,1,1.831.69,2.745,2.745,0,0,1,.757,2.13v7.556H284.3a1.8,1.8,0,0,0,1.233-.4,1.5,1.5,0,0,0,.452-1.19V35.378h3.04V44.5a4.168,4.168,0,0,1-.232,1.416,3,3,0,0,1-.69,1.111,3.119,3.119,0,0,1-1.135.72A4.38,4.38,0,0,1,285.41,48Zm1.16-10.5a.938.938,0,1,0-.275.665A.906.906,0,0,0,279.136,37.5ZM289.7,53.872V52.077h-.073a1.336,1.336,0,0,1-.543-.11,1.483,1.483,0,0,1-.439-.293,1.262,1.262,0,0,1-.293-.439,1.45,1.45,0,0,1-.1-.549,1.368,1.368,0,0,1,.1-.513,1.279,1.279,0,0,1,.287-.433,1.438,1.438,0,0,1,.464-.305,1.6,1.6,0,0,1,.629-.116,1.464,1.464,0,0,1,1.111.409,1.418,1.418,0,0,1,.391,1.019v3.125Zm-.574-3.186a.5.5,0,1,0,.146-.354A.482.482,0,0,0,289.131,50.686Zm9.363-7.166a1.453,1.453,0,0,0-.2.391,4.042,4.042,0,0,0-.146.555,6.286,6.286,0,0,0-.092.659q-.031.348-.031.7V48h-3.052V44.875a5.2,5.2,0,0,0-.153-1.16q-.14-.562-.3-1.154t-.293-1.251a7.224,7.224,0,0,1-.134-1.44,4.084,4.084,0,0,1,.482-2.008,4.209,4.209,0,0,1,1.361-1.465,6.574,6.574,0,0,1,2.118-.9,11.517,11.517,0,0,1,2.753-.305,11.366,11.366,0,0,1,2.838.323,6.084,6.084,0,0,1,2.118.964,4.179,4.179,0,0,1,1.318,1.6,5.142,5.142,0,0,1,.452,2.216V48H304.5V40.578a3.44,3.44,0,0,0-.183-1.129,2.3,2.3,0,0,0-.58-.916,3.064,3.064,0,0,0-1.111-.641,5.438,5.438,0,0,0-1.813-.256A5.689,5.689,0,0,0,299,37.88a3.025,3.025,0,0,0-1.1.6,2.222,2.222,0,0,0-.568.842,2.813,2.813,0,0,0-.183,1.007,3.9,3.9,0,0,0,.128,1.038q.128.464.275.977a3.243,3.243,0,0,1,.476-.922,3.376,3.376,0,0,1,.7-.7,3.108,3.108,0,0,1,.842-.446,2.753,2.753,0,0,1,.9-.153,2.723,2.723,0,0,1,.983.171,2.2,2.2,0,0,1,.763.482,2.142,2.142,0,0,1,.488.732,2.637,2.637,0,0,1,0,1.868,2.214,2.214,0,0,1-.47.726,2.088,2.088,0,0,1-.726.476,2.509,2.509,0,0,1-.94.171,2.414,2.414,0,0,1-1.27-.323A2.015,2.015,0,0,1,298.494,43.52Zm2.075-2.014a.938.938,0,1,0,.665.275A.906.906,0,0,0,300.569,41.506Zm16.282,2.014a1.453,1.453,0,0,0-.2.391,4.042,4.042,0,0,0-.146.555,6.286,6.286,0,0,0-.092.659q-.031.348-.031.7V48h-3.052V44.875a5.2,5.2,0,0,0-.153-1.16q-.14-.562-.3-1.154t-.293-1.251a7.224,7.224,0,0,1-.134-1.44,4.084,4.084,0,0,1,.482-2.008A4.209,4.209,0,0,1,314.3,36.4a6.574,6.574,0,0,1,2.118-.9,11.517,11.517,0,0,1,2.753-.305,11.366,11.366,0,0,1,2.838.323,6.084,6.084,0,0,1,2.118.964,4.179,4.179,0,0,1,1.318,1.6A5.142,5.142,0,0,1,325.9,40.3V48h-3.04V40.578a3.44,3.44,0,0,0-.183-1.129,2.3,2.3,0,0,0-.58-.916,3.064,3.064,0,0,0-1.111-.641,5.438,5.438,0,0,0-1.813-.256,5.689,5.689,0,0,0-1.813.244,3.025,3.025,0,0,0-1.1.6,2.222,2.222,0,0,0-.568.842,2.813,2.813,0,0,0-.183,1.007,3.9,3.9,0,0,0,.128,1.038q.128.464.275.977a3.243,3.243,0,0,1,.476-.922,3.376,3.376,0,0,1,.7-.7,3.108,3.108,0,0,1,.842-.446,2.753,2.753,0,0,1,.9-.153,2.723,2.723,0,0,1,.983.171,2.2,2.2,0,0,1,.763.482,2.142,2.142,0,0,1,.488.732,2.637,2.637,0,0,1,0,1.868,2.214,2.214,0,0,1-.47.726,2.088,2.088,0,0,1-.726.476,2.509,2.509,0,0,1-.94.171,2.414,2.414,0,0,1-1.27-.323A2.015,2.015,0,0,1,316.851,43.52Zm2.075-2.014a.938.938,0,1,0,.665.275A.906.906,0,0,0,318.926,41.506Zm15.452,2.112.1.012a2.3,2.3,0,0,1,.787.232,2.194,2.194,0,0,1,.629.476,2.167,2.167,0,0,1,.421.684,2.364,2.364,0,0,1,.153.867,2.537,2.537,0,0,1-.183.995,1.93,1.93,0,0,1-.525.726,2.274,2.274,0,0,1-.806.439,3.437,3.437,0,0,1-1.038.146,2.622,2.622,0,0,1-1.831-.69,2.745,2.745,0,0,1-.757-2.13V43.74a3.419,3.419,0,0,1,1.178-2.771,5.392,5.392,0,0,1,3.534-.989,8.038,8.038,0,0,1,1.88.2,5.215,5.215,0,0,1,1.343.5,3.523,3.523,0,0,1,.909.726,3.782,3.782,0,0,1,.592.885h.037V40.334a2.816,2.816,0,0,0-.244-1.221,2.236,2.236,0,0,0-.684-.842,2.9,2.9,0,0,0-1.056-.482,8.146,8.146,0,0,0-1.825-.153,10.354,10.354,0,0,0-1.508.116,12.994,12.994,0,0,0-1.544.323,12.1,12.1,0,0,0-1.434.488,7.729,7.729,0,0,0-1.178.6V36.354a5.85,5.85,0,0,1,1.135-.525,9.9,9.9,0,0,1,1.361-.36,14.386,14.386,0,0,1,1.526-.208q.8-.067,1.642-.067a8.442,8.442,0,0,1,5.127,1.3,4.471,4.471,0,0,1,1.721,3.8V48h-3.052V45.473a3.563,3.563,0,0,0-.232-1.288,3.332,3.332,0,0,0-.69-1.093,3.806,3.806,0,0,0-1.227-.836,4.616,4.616,0,0,0-1.9-.348,2.768,2.768,0,0,0-1.813.47,1.388,1.388,0,0,0-.543,1.068Zm-1.16,2.271a.938.938,0,1,0,.275-.665A.906.906,0,0,0,333.218,45.888Z" transform="translate(19095.184 -180)"/>
      <path id="路径_40091" data-name="路径 40091" d="M5.347-4.48a1.453,1.453,0,0,0-.2.391A4.045,4.045,0,0,0,5-3.534a6.28,6.28,0,0,0-.092.659q-.031.348-.031.7V0H1.831V-3.125a5.2,5.2,0,0,0-.153-1.16q-.14-.562-.3-1.154T1.086-6.689A7.223,7.223,0,0,1,.952-8.13a4.084,4.084,0,0,1,.482-2.008A4.209,4.209,0,0,1,2.8-11.6a6.574,6.574,0,0,1,2.118-.9,11.517,11.517,0,0,1,2.753-.305,11.366,11.366,0,0,1,2.838.323,6.085,6.085,0,0,1,2.118.964,4.178,4.178,0,0,1,1.318,1.6A5.142,5.142,0,0,1,14.392-7.7V0h-3.04V-7.422a3.44,3.44,0,0,0-.183-1.129,2.3,2.3,0,0,0-.58-.916,3.063,3.063,0,0,0-1.111-.641,5.438,5.438,0,0,0-1.813-.256,5.689,5.689,0,0,0-1.813.244,3.025,3.025,0,0,0-1.1.6,2.222,2.222,0,0,0-.568.842A2.813,2.813,0,0,0,4-7.666a3.9,3.9,0,0,0,.128,1.038q.128.464.275.977a3.243,3.243,0,0,1,.476-.922,3.376,3.376,0,0,1,.7-.7,3.108,3.108,0,0,1,.842-.446,2.753,2.753,0,0,1,.9-.153,2.723,2.723,0,0,1,.983.171,2.2,2.2,0,0,1,.763.482,2.142,2.142,0,0,1,.488.732,2.462,2.462,0,0,1,.171.934,2.462,2.462,0,0,1-.171.934,2.214,2.214,0,0,1-.47.726,2.088,2.088,0,0,1-.726.476,2.509,2.509,0,0,1-.94.171,2.414,2.414,0,0,1-1.27-.323A2.015,2.015,0,0,1,5.347-4.48ZM7.422-6.494a.906.906,0,0,0-.665.275.906.906,0,0,0-.275.665.906.906,0,0,0,.275.665.906.906,0,0,0,.665.275.906.906,0,0,0,.665-.275.906.906,0,0,0,.275-.665.906.906,0,0,0-.275-.665A.906.906,0,0,0,7.422-6.494ZM13.169,4.431a2.693,2.693,0,0,0,.958-.14,1.072,1.072,0,0,0,.555-.482,2.323,2.323,0,0,0,.256-.9q.061-.555.073-1.385H16.9q0,.513-.037,1.031a5.84,5.84,0,0,1-.159,1.007,3.819,3.819,0,0,1-.348.9,2.448,2.448,0,0,1-.616.732,2.844,2.844,0,0,1-.958.494,4.652,4.652,0,0,1-1.373.177H11.265V4.077h-.073a1.336,1.336,0,0,1-.543-.11,1.483,1.483,0,0,1-.439-.293,1.262,1.262,0,0,1-.293-.439,1.45,1.45,0,0,1-.1-.549,1.368,1.368,0,0,1,.1-.513A1.279,1.279,0,0,1,10.2,1.74a1.438,1.438,0,0,1,.464-.305,1.6,1.6,0,0,1,.629-.116,1.464,1.464,0,0,1,1.111.409,1.418,1.418,0,0,1,.391,1.019V4.431ZM10.691,2.686a.5.5,0,1,0,.146-.354A.482.482,0,0,0,10.691,2.686Zm3.455-20.264h1.709v4.028H14.146ZM30.076,0a6.212,6.212,0,0,0-.842-1.08,10.589,10.589,0,0,0-1.093-.983,6.34,6.34,0,0,0-1.587-.854,5.6,5.6,0,0,0-1.605-.427v.415a3.218,3.218,0,0,1-.775,2.313A2.758,2.758,0,0,1,22.08.2a3.7,3.7,0,0,1-2.417-.659,2.412,2.412,0,0,1-.781-1.953,2.742,2.742,0,0,1,.238-1.178,2.41,2.41,0,0,1,.653-.848,3.174,3.174,0,0,1,.964-.537,4.543,4.543,0,0,1,1.172-.244v-3L21.8-8.24a2.346,2.346,0,0,1-.781-.232,2.167,2.167,0,0,1-.635-.476,2.168,2.168,0,0,1-.421-.684,2.364,2.364,0,0,1-.153-.867,2.526,2.526,0,0,1,.183-1,1.941,1.941,0,0,1,.525-.72,2.267,2.267,0,0,1,.812-.439,3.453,3.453,0,0,1,1.031-.146,2.622,2.622,0,0,1,1.831.69,2.745,2.745,0,0,1,.757,2.13V-5.2a8.341,8.341,0,0,1,1.678.317,10,10,0,0,1,1.617.568,11.213,11.213,0,0,1,1.1.6,4.206,4.206,0,0,1,.848.684v-9.595h3.04V0ZM23.057-10.5a.906.906,0,0,0-.275-.665.906.906,0,0,0-.665-.275.906.906,0,0,0-.665.275.906.906,0,0,0-.275.665.906.906,0,0,0,.275.665.906.906,0,0,0,.665.275.906.906,0,0,0,.665-.275A.906.906,0,0,0,23.057-10.5Zm-1.147,7.1q-1.257.134-1.257,1.172a.963.963,0,0,0,.171.623.544.544,0,0,0,.439.208.579.579,0,0,0,.482-.208,1.161,1.161,0,0,0,.165-.708Zm12.986-10q-1.5-.244-2.881-.409t-2.722-.262q-1.343-.1-2.692-.134t-2.789-.037a4.092,4.092,0,0,1,1.74-2.46,6.17,6.17,0,0,1,3.436-.861,6.937,6.937,0,0,1,1.062.079,7.91,7.91,0,0,1,1.013.226v-1.318h1.465v1.99a5.272,5.272,0,0,1,.9.684v-2.673H34.9ZM29-16.321q-2.222,0-2.783,1.111,1.746,0,3.3.1t2.979.281a3.022,3.022,0,0,0-.537-.568,3.418,3.418,0,0,0-.769-.476A4.945,4.945,0,0,0,30.2-16.2,5.514,5.514,0,0,0,29-16.321ZM38.826-5.054a2.733,2.733,0,0,1,.763-2.13,2.628,2.628,0,0,1,1.825-.69,3.437,3.437,0,0,1,1.038.146,2.274,2.274,0,0,1,.806.439,1.941,1.941,0,0,1,.525.72,2.526,2.526,0,0,1,.183,1,2.412,2.412,0,0,1-.153.873,2.1,2.1,0,0,1-.427.69,2.279,2.279,0,0,1-.635.476,2.3,2.3,0,0,1-.787.232l-.085.012q.012.452.641.732a5.49,5.49,0,0,0,2.069.281A5,5,0,0,0,46-2.429a2.628,2.628,0,0,0,.879-.446,2.057,2.057,0,0,0,.586-.8,2.913,2.913,0,0,0,.226-1.184V-7.288A3.336,3.336,0,0,0,47.4-8.777a2.5,2.5,0,0,0-.726-.9,3.185,3.185,0,0,0-1.135-.507,6.8,6.8,0,0,0-1.66-.177,10.355,10.355,0,0,0-1.508.116,13,13,0,0,0-1.544.323,12.1,12.1,0,0,0-1.434.488,7.73,7.73,0,0,0-1.178.6v-2.808a5.851,5.851,0,0,1,1.135-.525,9.906,9.906,0,0,1,1.361-.36,14.386,14.386,0,0,1,1.526-.208q.8-.067,1.642-.067a8.442,8.442,0,0,1,5.127,1.3,4.471,4.471,0,0,1,1.721,3.8v2.771a6.679,6.679,0,0,1-.336,2.222,3.7,3.7,0,0,1-1.074,1.593,4.829,4.829,0,0,1-1.9.964,10.692,10.692,0,0,1-2.826.323,10.912,10.912,0,0,1-2.783-.3,4.9,4.9,0,0,1-1.77-.818A2.869,2.869,0,0,1,39.1-2.179a4.231,4.231,0,0,1-.275-1.532Zm1.892-.513a.906.906,0,0,0,.275.665.906.906,0,0,0,.665.275.906.906,0,0,0,.665-.275.906.906,0,0,0,.275-.665.906.906,0,0,0-.275-.665.906.906,0,0,0-.665-.275.906.906,0,0,0-.665.275A.906.906,0,0,0,40.718-5.566ZM62.969-7.385,66.96-2.917v-9.7H70V0H67.144L62.969-4.553,59.063,0H56.194V-9.985a2.745,2.745,0,0,1,.757-2.13,2.622,2.622,0,0,1,1.831-.69,3.437,3.437,0,0,1,1.038.146,2.274,2.274,0,0,1,.806.439,1.941,1.941,0,0,1,.525.72,2.526,2.526,0,0,1,.183,1,2.364,2.364,0,0,1-.153.867,2.168,2.168,0,0,1-.421.684,2.194,2.194,0,0,1-.629.476,2.3,2.3,0,0,1-.787.232l-.1.012v5.31ZM58.086-10.5a.906.906,0,0,0,.275.665.906.906,0,0,0,.665.275.906.906,0,0,0,.665-.275.906.906,0,0,0,.275-.665.906.906,0,0,0-.275-.665.906.906,0,0,0-.665-.275.906.906,0,0,0-.665.275A.906.906,0,0,0,58.086-10.5ZM68.936,4.431a2.693,2.693,0,0,0,.958-.14,1.072,1.072,0,0,0,.555-.482,2.323,2.323,0,0,0,.256-.9q.061-.555.073-1.385h1.892q0,.513-.037,1.031a5.839,5.839,0,0,1-.159,1.007,3.819,3.819,0,0,1-.348.9,2.448,2.448,0,0,1-.616.732,2.844,2.844,0,0,1-.958.494,4.652,4.652,0,0,1-1.373.177H67.031V4.077h-.073a1.336,1.336,0,0,1-.543-.11,1.483,1.483,0,0,1-.439-.293,1.262,1.262,0,0,1-.293-.439,1.45,1.45,0,0,1-.1-.549,1.368,1.368,0,0,1,.1-.513,1.279,1.279,0,0,1,.287-.433,1.438,1.438,0,0,1,.464-.305,1.6,1.6,0,0,1,.629-.116,1.464,1.464,0,0,1,1.111.409,1.418,1.418,0,0,1,.391,1.019V4.431ZM66.458,2.686a.5.5,0,1,0,.146-.354A.482.482,0,0,0,66.458,2.686Zm1-19.006a1.812,1.812,0,0,1-.165.262,1.158,1.158,0,0,1-.269.256,1.593,1.593,0,0,1-.391.2,1.562,1.562,0,0,1-.519.079,1.538,1.538,0,0,1-.6-.116,1.432,1.432,0,0,1-.476-.323,1.534,1.534,0,0,1-.317-.488,1.583,1.583,0,0,1-.116-.61,1.352,1.352,0,0,1,.513-1.062,2.249,2.249,0,0,1,1.5-.439,3.19,3.19,0,0,1,.989.146,2.383,2.383,0,0,1,.775.409,1.793,1.793,0,0,1,.5.641,1.964,1.964,0,0,1,.177.842A2.157,2.157,0,0,1,67.971-14.6a3.235,3.235,0,0,0,1.648-.36,2.461,2.461,0,0,0,.928-.934,3.649,3.649,0,0,0,.415-1.276,11.614,11.614,0,0,0,.11-1.4h1.99q-.061.83-.165,1.526a5.674,5.674,0,0,1-.323,1.251,3.354,3.354,0,0,1-.586.977,2.934,2.934,0,0,1-.94.7,5.159,5.159,0,0,1-1.4.421,11.839,11.839,0,0,1-1.959.14H66.152v-1.074a1.936,1.936,0,0,0,.934-.61A1.623,1.623,0,0,0,67.458-16.321Zm-1.9-.732a.658.658,0,0,0,.2.482.658.658,0,0,0,.482.2.658.658,0,0,0,.482-.2.658.658,0,0,0,.2-.482.658.658,0,0,0-.2-.482.658.658,0,0,0-.482-.2.658.658,0,0,0-.482.2A.658.658,0,0,0,65.554-17.053ZM82.607-2.185a.906.906,0,0,0,.275.665.906.906,0,0,0,.665.275.906.906,0,0,0,.665-.275.906.906,0,0,0,.275-.665.906.906,0,0,0-.275-.665.906.906,0,0,0-.665-.275.906.906,0,0,0-.665.275A.906.906,0,0,0,82.607-2.185Zm1.16-2.271.1.012a2.346,2.346,0,0,1,.781.232,2.167,2.167,0,0,1,.635.476,2.168,2.168,0,0,1,.421.684,2.364,2.364,0,0,1,.153.867,2.526,2.526,0,0,1-.183,1,1.941,1.941,0,0,1-.525.72,2.267,2.267,0,0,1-.812.439A3.453,3.453,0,0,1,83.3.122a2.616,2.616,0,0,1-1.837-.69,2.758,2.758,0,0,1-.751-2.13v-11.89a11.816,11.816,0,0,1,.122-1.7,3.734,3.734,0,0,1,.354-1.141,2.7,2.7,0,0,1,.635-.8,6.851,6.851,0,0,1,.94-.665,2.883,2.883,0,0,0-.1-.8,2.083,2.083,0,0,0-.409-.732,1.979,1.979,0,0,0-.854-.58,3.776,3.776,0,0,0-1.331-.208,4.536,4.536,0,0,0-1.74.305,2.433,2.433,0,0,0-1.1.83.505.505,0,0,1,.153-.031q.092-.006.153-.006a2.462,2.462,0,0,1,.934.171,2.214,2.214,0,0,1,.726.47,2.087,2.087,0,0,1,.476.726,2.509,2.509,0,0,1,.171.94,2.509,2.509,0,0,1-.171.94,2.087,2.087,0,0,1-.476.726,2.214,2.214,0,0,1-.726.47,2.462,2.462,0,0,1-.934.171,2.631,2.631,0,0,1-1.154-.238,2.379,2.379,0,0,1-.836-.665,2.891,2.891,0,0,1-.513-1.025,4.789,4.789,0,0,1-.171-1.318,4.545,4.545,0,0,1,.354-1.813,3.816,3.816,0,0,1,1.05-1.416,4.959,4.959,0,0,1,1.727-.922,9.686,9.686,0,0,1,2.838-.33,6.7,6.7,0,0,1,1.886.305,5.159,5.159,0,0,1,1.746.867,3.732,3.732,0,0,1,1.093,1.373,4.239,4.239,0,0,1,.378,1.813,5.92,5.92,0,0,0-1.025.708,2.942,2.942,0,0,0-.665.842,3.749,3.749,0,0,0-.36,1.093,8.344,8.344,0,0,0-.11,1.447ZM76.589-17.81a.906.906,0,0,0,.275.665.906.906,0,0,0,.665.275.906.906,0,0,0,.665-.275.906.906,0,0,0,.275-.665.906.906,0,0,0-.275-.665.906.906,0,0,0-.665-.275.906.906,0,0,0-.665.275A.906.906,0,0,0,76.589-17.81ZM91.1-7.385a.906.906,0,0,0,.275.665.906.906,0,0,0,.665.275.906.906,0,0,0,.665-.275.906.906,0,0,0,.275-.665.906.906,0,0,0-.275-.665.906.906,0,0,0-.665-.275.906.906,0,0,0-.665.275A.906.906,0,0,0,91.1-7.385ZM105.273-3.5a4.168,4.168,0,0,1-.232,1.416,3,3,0,0,1-.69,1.111,3.119,3.119,0,0,1-1.135.72A4.38,4.38,0,0,1,101.66,0H95.02V-4.163a10.934,10.934,0,0,1,.11-1.7,3.734,3.734,0,0,1,.354-1.141,2.7,2.7,0,0,1,.635-.8,6.851,6.851,0,0,1,.94-.665,2.827,2.827,0,0,0-.122-.836,1.807,1.807,0,0,0-.421-.714,2.518,2.518,0,0,0-.787-.543,2.907,2.907,0,0,0-1.221-.226,4.046,4.046,0,0,0-1.709.348,2.561,2.561,0,0,0-1.062.787.505.505,0,0,1,.153-.031q.092-.006.153-.006a2.462,2.462,0,0,1,.934.171,2.214,2.214,0,0,1,.726.47,2.088,2.088,0,0,1,.476.726,2.509,2.509,0,0,1,.171.94,2.509,2.509,0,0,1-.171.94,2.087,2.087,0,0,1-.476.726,2.214,2.214,0,0,1-.726.47,2.462,2.462,0,0,1-.934.171,2.631,2.631,0,0,1-1.154-.238,2.379,2.379,0,0,1-.836-.665,2.892,2.892,0,0,1-.513-1.025,4.789,4.789,0,0,1-.171-1.318,4.545,4.545,0,0,1,.354-1.813,3.816,3.816,0,0,1,1.05-1.416,4.959,4.959,0,0,1,1.727-.922,7.894,7.894,0,0,1,2.4-.33A7.384,7.384,0,0,1,97-12.5a5.159,5.159,0,0,1,1.746.867,3.732,3.732,0,0,1,1.093,1.373,4.239,4.239,0,0,1,.378,1.813,5.92,5.92,0,0,0-1.025.708,2.942,2.942,0,0,0-.665.842,3.749,3.749,0,0,0-.36,1.093,8.344,8.344,0,0,0-.11,1.447v1.929h2.49a1.822,1.822,0,0,0,1.233-.391,1.5,1.5,0,0,0,.452-1.2V-6.482a5.646,5.646,0,0,0-.049-.8,2.09,2.09,0,0,0-.159-.574,1.134,1.134,0,0,0-.287-.391,1.444,1.444,0,0,0-.433-.25V-9.973a3.648,3.648,0,0,0,1.056-.616,2.11,2.11,0,0,0,.549-.763,3.411,3.411,0,0,0,.232-.958q.055-.531.116-1.215h3.113a9.242,9.242,0,0,1-.238,1.508,3.954,3.954,0,0,1-.482,1.141,3.615,3.615,0,0,1-.818.9,6.626,6.626,0,0,1-1.233.751,1.922,1.922,0,0,1,.623.305,2.177,2.177,0,0,1,.537.568,3.027,3.027,0,0,1,.372.818,3.685,3.685,0,0,1,.14,1.056Zm-1.809-12.817a1.812,1.812,0,0,1-.165.262,1.158,1.158,0,0,1-.269.256,1.593,1.593,0,0,1-.391.2,1.562,1.562,0,0,1-.519.079,1.538,1.538,0,0,1-.6-.116,1.432,1.432,0,0,1-.476-.323,1.534,1.534,0,0,1-.317-.488,1.583,1.583,0,0,1-.116-.61,1.352,1.352,0,0,1,.513-1.062,2.249,2.249,0,0,1,1.5-.439,3.19,3.19,0,0,1,.989.146,2.383,2.383,0,0,1,.775.409,1.793,1.793,0,0,1,.5.641,1.964,1.964,0,0,1,.177.842,2.157,2.157,0,0,1-1.086,1.929,3.235,3.235,0,0,0,1.648-.36,2.461,2.461,0,0,0,.928-.934,3.649,3.649,0,0,0,.415-1.276,11.614,11.614,0,0,0,.11-1.4h1.99q-.061.83-.165,1.526a5.674,5.674,0,0,1-.323,1.251,3.354,3.354,0,0,1-.586.977,2.934,2.934,0,0,1-.94.7,5.159,5.159,0,0,1-1.4.421,11.839,11.839,0,0,1-1.959.14h-1.538v-1.074a1.936,1.936,0,0,0,.934-.61A1.623,1.623,0,0,0,103.464-16.321Zm-1.9-.732a.658.658,0,0,0,.2.482.658.658,0,0,0,.482.2.658.658,0,0,0,.482-.2.658.658,0,0,0,.2-.482.658.658,0,0,0-.2-.482.658.658,0,0,0-.482-.2.658.658,0,0,0-.482.2A.658.658,0,0,0,101.56-17.053ZM118.027-10.5a.906.906,0,0,0-.275-.665.906.906,0,0,0-.665-.275.906.906,0,0,0-.665.275.906.906,0,0,0-.275.665.906.906,0,0,0,.275.665.906.906,0,0,0,.665.275.906.906,0,0,0,.665-.275A.906.906,0,0,0,118.027-10.5Zm-1.16,2.271a2.47,2.47,0,0,1-.818-.208,2.176,2.176,0,0,1-.665-.464,2.062,2.062,0,0,1-.446-.7,2.447,2.447,0,0,1-.159-.9,2.537,2.537,0,0,1,.183-.995,1.93,1.93,0,0,1,.525-.726,2.274,2.274,0,0,1,.806-.439,3.437,3.437,0,0,1,1.038-.146q2.588,0,2.588,3.064V0h-3.088l-6.458-5.945v-2.71l6.494,5.908ZM132.82,0V-7.422a2.878,2.878,0,0,0-.793-2.185,3.527,3.527,0,0,0-2.5-.757,7.924,7.924,0,0,0-1.312.116,10.256,10.256,0,0,0-1.355.323,9.606,9.606,0,0,0-1.257.488,6.567,6.567,0,0,0-1.031.6v-2.808a4.225,4.225,0,0,1,.983-.525,8.084,8.084,0,0,1,1.221-.36,11.754,11.754,0,0,1,1.361-.208q.708-.067,1.392-.067A7.324,7.324,0,0,1,134.3-11.5a4.676,4.676,0,0,1,1.556,3.8V0Zm12.668-3.027a6.556,6.556,0,0,1,.836-.72,5.813,5.813,0,0,1,1.068-.616,12.177,12.177,0,0,1,1.324-.494,9.82,9.82,0,0,1,2.02-.342v-7.422h3.04v7.4a4.543,4.543,0,0,1,1.172.244,3.174,3.174,0,0,1,.964.537,2.41,2.41,0,0,1,.653.848,2.742,2.742,0,0,1,.238,1.178,2.412,2.412,0,0,1-.781,1.953A3.7,3.7,0,0,1,153.606.2a2.758,2.758,0,0,1-2.094-.812,3.218,3.218,0,0,1-.775-2.313v-.415a5.95,5.95,0,0,0-1.874.446,6.815,6.815,0,0,0-1.367.787,7.013,7.013,0,0,0-1.062.995A8.269,8.269,0,0,0,145.61,0h-3.174V-8.228l-.1-.012a2.346,2.346,0,0,1-.781-.232,2.167,2.167,0,0,1-.635-.476,2.168,2.168,0,0,1-.421-.684,2.364,2.364,0,0,1-.153-.867,2.526,2.526,0,0,1,.183-1,1.941,1.941,0,0,1,.525-.72,2.267,2.267,0,0,1,.812-.439,3.453,3.453,0,0,1,1.031-.146,2.622,2.622,0,0,1,1.831.69,2.745,2.745,0,0,1,.757,2.13Zm8.289.72a1.161,1.161,0,0,0,.165.708.579.579,0,0,0,.482.208.544.544,0,0,0,.439-.208.963.963,0,0,0,.171-.623q0-1.038-1.257-1.172ZM143.6-10.5a.906.906,0,0,0-.275-.665.906.906,0,0,0-.665-.275.906.906,0,0,0-.665.275.906.906,0,0,0-.275.665.906.906,0,0,0,.275.665.906.906,0,0,0,.665.275.906.906,0,0,0,.665-.275A.906.906,0,0,0,143.6-10.5Zm19.956,8.313a.906.906,0,0,0,.275.665.906.906,0,0,0,.665.275.906.906,0,0,0,.665-.275.906.906,0,0,0,.275-.665.906.906,0,0,0-.275-.665.906.906,0,0,0-.665-.275.906.906,0,0,0-.665.275A.906.906,0,0,0,163.552-2.185Zm1.16-2.271.1.012a2.346,2.346,0,0,1,.781.232,2.167,2.167,0,0,1,.635.476,2.168,2.168,0,0,1,.421.684,2.364,2.364,0,0,1,.153.867,2.526,2.526,0,0,1-.183,1,1.941,1.941,0,0,1-.525.72,2.267,2.267,0,0,1-.812.439,3.453,3.453,0,0,1-1.031.146,2.616,2.616,0,0,1-1.837-.69,2.758,2.758,0,0,1-.751-2.13v-11.89a11.815,11.815,0,0,1,.122-1.7,3.734,3.734,0,0,1,.354-1.141,2.7,2.7,0,0,1,.635-.8,6.852,6.852,0,0,1,.94-.665,2.883,2.883,0,0,0-.1-.8,2.083,2.083,0,0,0-.409-.732,1.979,1.979,0,0,0-.854-.58,3.776,3.776,0,0,0-1.331-.208,4.536,4.536,0,0,0-1.74.305,2.433,2.433,0,0,0-1.1.83.505.505,0,0,1,.153-.031q.092-.006.153-.006a2.462,2.462,0,0,1,.934.171,2.214,2.214,0,0,1,.726.47,2.088,2.088,0,0,1,.476.726,2.509,2.509,0,0,1,.171.94,2.509,2.509,0,0,1-.171.94,2.088,2.088,0,0,1-.476.726,2.214,2.214,0,0,1-.726.47,2.462,2.462,0,0,1-.934.171,2.631,2.631,0,0,1-1.154-.238,2.379,2.379,0,0,1-.836-.665,2.892,2.892,0,0,1-.513-1.025,4.788,4.788,0,0,1-.171-1.318,4.545,4.545,0,0,1,.354-1.813,3.816,3.816,0,0,1,1.05-1.416,4.959,4.959,0,0,1,1.727-.922,9.686,9.686,0,0,1,2.838-.33,6.7,6.7,0,0,1,1.886.305,5.159,5.159,0,0,1,1.746.867,3.732,3.732,0,0,1,1.093,1.373,4.239,4.239,0,0,1,.378,1.813,5.919,5.919,0,0,0-1.025.708,2.942,2.942,0,0,0-.665.842,3.749,3.749,0,0,0-.36,1.093,8.344,8.344,0,0,0-.11,1.447ZM157.534-17.81a.906.906,0,0,0,.275.665.906.906,0,0,0,.665.275.906.906,0,0,0,.665-.275.906.906,0,0,0,.275-.665.906.906,0,0,0-.275-.665.906.906,0,0,0-.665-.275.906.906,0,0,0-.665.275A.906.906,0,0,0,157.534-17.81Zm25.1,7.19a.824.824,0,0,0-.073-.36.782.782,0,0,0-.183-.25.671.671,0,0,0-.244-.14.881.881,0,0,0-.269-.043.9.9,0,0,0-.531.177.633.633,0,0,0-.25.555.96.96,0,0,0,.256.647,1.614,1.614,0,0,0,.562.427,2.746,2.746,0,0,0,.25-.171,1.554,1.554,0,0,0,.238-.226,1.126,1.126,0,0,0,.177-.281A.824.824,0,0,0,182.629-10.62ZM172.437,0V-8.228l-.1-.012a2.346,2.346,0,0,1-.781-.232,2.167,2.167,0,0,1-.635-.476,2.168,2.168,0,0,1-.421-.684,2.364,2.364,0,0,1-.153-.867,2.526,2.526,0,0,1,.183-1,1.941,1.941,0,0,1,.525-.72,2.267,2.267,0,0,1,.812-.439,3.453,3.453,0,0,1,1.031-.146,2.622,2.622,0,0,1,1.831.69,2.745,2.745,0,0,1,.757,2.13V-4.2q.61-.684,1.294-1.343t1.239-1.129q.555-.47,1.154-.928t1.282-.946q-.183-.171-.4-.4a3.9,3.9,0,0,1-.4-.513,2.882,2.882,0,0,1-.3-.6,2.028,2.028,0,0,1-.116-.69,1.785,1.785,0,0,1,.726-1.5,3.02,3.02,0,0,1,1.886-.555,5.08,5.08,0,0,1,1.233.14,3.239,3.239,0,0,1,.97.4,1.926,1.926,0,0,1,.635.647,1.715,1.715,0,0,1,.226.885,1.9,1.9,0,0,1-.1.616,2.509,2.509,0,0,1-.256.537,2.834,2.834,0,0,1-.36.458,5.439,5.439,0,0,1-.421.391,2.424,2.424,0,0,1,.7.555,2.621,2.621,0,0,1,.433.714,3.656,3.656,0,0,1,.226.848,6.6,6.6,0,0,1,.067.958V0h-3.04V-5.579a7.779,7.779,0,0,0-.055-1,1.472,1.472,0,0,0-.4-.793q-.452.317-1.1.861t-1.263,1.1q-.616.555-1.227,1.172a19.407,19.407,0,0,0-1.324,1.508,9.327,9.327,0,0,0-1.019,1.489,2.428,2.428,0,0,0-.305,1.086V0Zm1.16-10.5a.906.906,0,0,0-.275-.665.906.906,0,0,0-.665-.275.906.906,0,0,0-.665.275.906.906,0,0,0-.275.665.906.906,0,0,0,.275.665.906.906,0,0,0,.665.275.906.906,0,0,0,.665-.275A.906.906,0,0,0,173.6-10.5ZM200.962,0a6.212,6.212,0,0,0-.842-1.08,10.589,10.589,0,0,0-1.093-.983,6.34,6.34,0,0,0-1.587-.854,5.6,5.6,0,0,0-1.605-.427v.415a3.218,3.218,0,0,1-.775,2.313A2.758,2.758,0,0,1,192.966.2a3.7,3.7,0,0,1-2.417-.659,2.412,2.412,0,0,1-.781-1.953,2.742,2.742,0,0,1,.238-1.178,2.41,2.41,0,0,1,.653-.848,3.174,3.174,0,0,1,.964-.537,4.543,4.543,0,0,1,1.172-.244v-3l-.11-.012a2.346,2.346,0,0,1-.781-.232,2.167,2.167,0,0,1-.635-.476,2.168,2.168,0,0,1-.421-.684,2.364,2.364,0,0,1-.153-.867,2.526,2.526,0,0,1,.183-1,1.941,1.941,0,0,1,.525-.72,2.267,2.267,0,0,1,.812-.439,3.453,3.453,0,0,1,1.031-.146,2.622,2.622,0,0,1,1.831.69,2.745,2.745,0,0,1,.757,2.13V-5.2a8.341,8.341,0,0,1,1.678.317,10,10,0,0,1,1.617.568,11.213,11.213,0,0,1,1.1.6,4.206,4.206,0,0,1,.848.684v-9.595h3.04V0Zm-7.019-10.5a.906.906,0,0,0-.275-.665.906.906,0,0,0-.665-.275.906.906,0,0,0-.665.275.906.906,0,0,0-.275.665.906.906,0,0,0,.275.665.906.906,0,0,0,.665.275.906.906,0,0,0,.665-.275A.906.906,0,0,0,193.943-10.5Zm-1.147,7.1q-1.257.134-1.257,1.172a.963.963,0,0,0,.171.623.544.544,0,0,0,.439.208.579.579,0,0,0,.482-.208,1.161,1.161,0,0,0,.165-.708Zm11.24-14.185h1.709v4.028h-1.709Z" transform="translate(19095.184 -180)" fill="#0080f4"/>
    </g>
  </g>
</svg>
