<svg xmlns="http://www.w3.org/2000/svg" width="814.283" height="544.043" viewBox="0 0 814.283 544.043"><g transform="translate(-1257.54 -256.887)"><g transform="translate(1801.866 351.624)"><path d="M1758.138,375.3H1720.7l-10.316,8.973a1.357,1.357,0,0,1-2.22-.8l-1.335-8.171h-6.681a1.077,1.077,0,0,1-1.078-1.078h0V334.986a1.077,1.077,0,0,1,1.076-1.078h57.993a1.078,1.078,0,0,1,1.078,1.078h0v39.235A1.078,1.078,0,0,1,1758.138,375.3Z" transform="translate(-1699.069 -333.908)" fill="none" stroke="#0080f4" stroke-linecap="round" stroke-miterlimit="10" stroke-width="2"/><g transform="translate(13.475 13.632)"><path d="M1711.618,354.48a5.2,5.2,0,0,1-1.622-3.769,5.353,5.353,0,0,1,1.493-3.822,5.2,5.2,0,0,1,3.769-1.622l6.935-.116a5.344,5.344,0,0,1,3.822,1.492,5.193,5.193,0,0,1,1.621,3.77,1.069,1.069,0,0,1-.312.762,1.219,1.219,0,0,1-.753.339,1.049,1.049,0,0,1-1.082-1.016v-.03a3.266,3.266,0,0,0-3.278-3.168l-6.935.119a3.184,3.184,0,0,0-2.245,1,3.352,3.352,0,0,0-.922,2.278,3.176,3.176,0,0,0,1,2.244,3.342,3.342,0,0,0,2.277.923l5.851-.1a1.066,1.066,0,0,1,.037,2.131l-5.852.1A5.384,5.384,0,0,1,1711.618,354.48Z" transform="translate(-1707.453 -343.986)" fill="#0080f4"/><path d="M1722.487,354.3a5.194,5.194,0,0,1-1.624-3.772,1.066,1.066,0,1,1,2.131-.036,3.263,3.263,0,0,0,3.276,3.167l6.937-.119a3.186,3.186,0,0,0,2.245-1,3.354,3.354,0,0,0,.921-2.276,3.186,3.186,0,0,0-1-2.244,3.352,3.352,0,0,0-2.275-.922l-5.851.1a1.07,1.07,0,0,1-.02-2.136l5.85-.1a5.351,5.351,0,0,1,3.821,1.493,5.2,5.2,0,0,1,1.623,3.77,5.364,5.364,0,0,1-5.26,5.442l-6.936.119a5.357,5.357,0,0,1-3.826-1.495Z" transform="translate(-1706.912 -343.996)" fill="#0080f4"/></g></g><g transform="translate(1576.291 447.549)"><path d="M1611.132,630.515l-77.99-45.033a16.567,16.567,0,0,1-8.284-14.348V481.072a16.571,16.571,0,0,1,8.284-14.349l77.99-45.031a16.571,16.571,0,0,1,16.568,0l77.995,45.031a16.568,16.568,0,0,1,8.284,14.349v90.062a16.567,16.567,0,0,1-8.284,14.348L1627.7,630.512A16.568,16.568,0,0,1,1611.132,630.515Z" transform="translate(-1514.146 -409.866)" fill="none" stroke="#0c111a" stroke-miterlimit="10" stroke-width="2"/><line y1="11.558" transform="translate(0 67.33)" fill="none" stroke="#0c111a" stroke-miterlimit="10" stroke-width="2"/><line y1="53.446" transform="translate(0 89.635)" fill="none" stroke="#0c111a" stroke-miterlimit="10" stroke-width="2"/><line x1="9.6" y1="5.543" transform="translate(10.992 183.199)" fill="none" stroke="#0c111a" stroke-miterlimit="10" stroke-width="2"/><line x1="47.232" y1="27.269" transform="translate(29.551 193.914)" fill="none" stroke="#0c111a" stroke-miterlimit="10" stroke-width="2"/><line x1="9.275" y2="5.355" transform="translate(116.889 226.099)" fill="none" stroke="#0c111a" stroke-miterlimit="10" stroke-width="2"/><line x1="46.915" y2="27.087" transform="translate(135.704 193.504)" fill="none" stroke="#0c111a" stroke-miterlimit="10" stroke-width="2"/><line y2="10.969" transform="translate(211.461 153.461)" fill="none" stroke="#0c111a" stroke-miterlimit="10" stroke-width="2"/><line y2="54.034" transform="translate(211.461 87.721)" fill="none" stroke="#0c111a" stroke-miterlimit="10" stroke-width="2"/><line x2="9.624" y2="5.556" transform="translate(190.927 42.911)" fill="none" stroke="#0c111a" stroke-miterlimit="10" stroke-width="2"/><line x2="46.956" y2="27.11" transform="translate(134.49 10.327)" fill="none" stroke="#0c111a" stroke-miterlimit="10" stroke-width="2"/><line y1="5.406" x2="9.362" transform="translate(85.494)" fill="none" stroke="#0c111a" stroke-miterlimit="10" stroke-width="2" opacity="0.5"/><line y1="26.877" x2="46.553" transform="translate(28.915 11.195)" fill="none" stroke="#0c111a" stroke-miterlimit="10" stroke-width="2"/></g><path d="M1725.9,427.647l-40.385-23.31a16.568,16.568,0,0,1-8.283-14.348V343.356a16.567,16.567,0,0,1,8.283-14.348L1725.9,305.7a16.567,16.567,0,0,1,16.569,0l40.385,23.31a16.567,16.567,0,0,1,8.285,14.348v46.633a16.567,16.567,0,0,1-8.285,14.348l-40.385,23.31A16.567,16.567,0,0,1,1725.9,427.647Z" transform="translate(97.7 10.616)" fill="none" stroke="#0080f4" stroke-miterlimit="10" stroke-width="2"/><path d="M1737.763,406.509l-7.507,4.334a17,17,0,0,1-1.624.824" transform="translate(109.695 34.658)" fill="none" stroke="#000" stroke-miterlimit="10" stroke-width="2"/><path d="M1782.158,379.423a16.573,16.573,0,0,1-7.8,10.369L1742.815,408" transform="translate(113.005 28.337)" fill="none" stroke="#000" stroke-miterlimit="10" stroke-width="2"/><line y2="10.27" transform="translate(1895.647 359.768)" fill="none" stroke="#000" stroke-miterlimit="10" stroke-width="2"/><path d="M1746.736,308.386l26.708,15.417a16.568,16.568,0,0,1,8.283,14.348" transform="translate(113.919 11.761)" fill="none" stroke="#000" stroke-miterlimit="10" stroke-width="2"/><path d="M1711.339,302.512l6.39-3.69q.644-.37,1.31-.681" transform="translate(105.66 9.37)" fill="none" stroke="#000" stroke-miterlimit="10" stroke-width="2"/><path d="M1671.959,333.817a16.57,16.57,0,0,1,7.54-9.433l32-18.474" transform="translate(96.47 11.183)" fill="none" stroke="#000" stroke-miterlimit="10" stroke-width="2"/><path d="M1706.755,406.917l-27.111-15.656a16.571,16.571,0,0,1-8.284-14.348" transform="translate(96.33 27.751)" fill="none" stroke="#000" stroke-miterlimit="10" stroke-width="2"/><path d="M1614.816,433.4l33.611-60.223a16.565,16.565,0,0,1,14.227-8.492l21.429-.312" transform="translate(83.136 24.826)" fill="none" stroke="#0c111a" stroke-miterlimit="10" stroke-width="2"/><path d="M1843.431,342.909l-13.05,19.576a16.566,16.566,0,0,1-14.852,7.343l-4.687-.3" transform="translate(128.879 19.817)" fill="none" stroke="#0c111a" stroke-miterlimit="10" stroke-width="2"/><path d="M1842.5,516.48l-10.589-17.063a16.568,16.568,0,0,0-14.6-7.822l-10,.149" transform="translate(128.054 54.51)" fill="none" stroke="#0c111a" stroke-miterlimit="10" stroke-width="2"/><path d="M1719.292,710.2l-30.919-17.852A16.567,16.567,0,0,1,1680.088,678V642.3a16.567,16.567,0,0,1,8.284-14.348l30.919-17.851a16.571,16.571,0,0,1,16.568,0l30.92,17.851a16.568,16.568,0,0,1,8.283,14.348V678a16.568,16.568,0,0,1-8.283,14.348l-30.92,17.852A16.571,16.571,0,0,1,1719.292,710.2Z" transform="translate(98.367 81.647)" fill="none" stroke="#0080f4" stroke-miterlimit="10" stroke-width="2"/><path d="M1675.148,641.344V633.45a16.581,16.581,0,0,1,.247-2.85" transform="translate(97.214 86.949)" fill="none" stroke="#000" stroke-miterlimit="10" stroke-width="2"/><path d="M1694.5,692.7l-11.064-6.387a16.57,16.57,0,0,1-8.283-14.349V648.5" transform="translate(97.215 91.126)" fill="none" stroke="#000" stroke-miterlimit="10" stroke-width="2"/><path d="M1732.741,693.194l-6.978,4.029a16.541,16.541,0,0,1-2.59,1.212" transform="translate(108.421 101.555)" fill="none" stroke="#000" stroke-miterlimit="10" stroke-width="2"/><path d="M1767.133,656.978v13a16.571,16.571,0,0,1-8.284,14.349l-19.032,10.988" transform="translate(112.305 93.104)" fill="none" stroke="#000" stroke-miterlimit="10" stroke-width="2"/><path d="M1749.746,618.1l6.783,3.918a16.582,16.582,0,0,1,2.714,1.954" transform="translate(114.622 84.031)" fill="none" stroke="#000" stroke-miterlimit="10" stroke-width="2"/><path d="M1702.45,611.074l11.58-6.686a16.573,16.573,0,0,1,16.569,0l20.648,11.92" transform="translate(103.585 80.314)" fill="none" stroke="#000" stroke-miterlimit="10" stroke-width="2"/><path d="M1298.514,442.96,1269.666,426.3a14.244,14.244,0,0,1-7.123-12.333V380.649a14.246,14.246,0,0,1,7.123-12.333l28.848-16.67a14.247,14.247,0,0,1,14.245,0l28.853,16.659a14.246,14.246,0,0,1,7.123,12.333v33.318a14.246,14.246,0,0,1-7.123,12.333l-28.853,16.659A14.247,14.247,0,0,1,1298.514,442.96Z" transform="translate(0.934 21.41)" fill="none" stroke="#0c111a" stroke-miterlimit="10" stroke-width="2"/><g transform="translate(1258.54 364.884)"><path d="M1258.54,380.24v-7.523a14.157,14.157,0,0,1,.207-2.417" transform="translate(-1258.54 -338.676)" fill="none" stroke="#000" stroke-miterlimit="10" stroke-width="2"/><path d="M1276.076,426.92l-10.413-6.011a14.246,14.246,0,0,1-7.123-12.333V386.367" transform="translate(-1258.54 -334.926)" fill="none" stroke="#000" stroke-miterlimit="10" stroke-width="2"/><line x1="7.029" y2="4.059" transform="translate(55.662 101.723)" fill="none" stroke="#000" stroke-miterlimit="10" stroke-width="2"/><path d="M1342.183,404.37a14.249,14.249,0,0,1-7.124,12.336l-18.934,10.931" transform="translate(-1245.103 -330.725)" fill="none" stroke="#000" stroke-miterlimit="10" stroke-width="2"/><path d="M1326.153,359.185l6.568,3.791a14.255,14.255,0,0,1,1.684,1.14" transform="translate(-1242.763 -341.269)" fill="none" stroke="#000" stroke-miterlimit="10" stroke-width="2"/><path d="M1283.722,352.548l10.36-5.98a14.246,14.246,0,0,1,14.245,0l18.881,10.9" transform="translate(-1252.664 -344.659)" fill="none" stroke="#000" stroke-miterlimit="10" stroke-width="2"/></g><path d="M1451.519,661.745,1420.49,643.83a16.566,16.566,0,0,1-8.283-14.348V593.654a16.567,16.567,0,0,1,8.283-14.348l31.029-17.914a16.571,16.571,0,0,1,16.568,0l31.03,17.913a16.568,16.568,0,0,1,8.283,14.348v35.829a16.566,16.566,0,0,1-8.283,14.348l-31.029,17.914A16.57,16.57,0,0,1,1451.519,661.745Z" transform="translate(35.858 70.281)" fill="none" stroke="#0080f4" stroke-miterlimit="10" stroke-width="2"/><path d="M1502.463,624.137a16.561,16.561,0,0,1-7.115,8.234l-37.088,21.412a16.614,16.614,0,0,1-2.766,1.274" transform="translate(45.959 85.441)" fill="none" stroke="#000" stroke-miterlimit="10" stroke-width="2"/><path d="M1482.021,569.482l7.137,4.121a16.571,16.571,0,0,1,8.284,14.349v36.877" transform="translate(52.149 72.687)" fill="none" stroke="#000" stroke-miterlimit="10" stroke-width="2"/><path d="M1408.983,583.945a16.566,16.566,0,0,1,6.475-6.819l37.088-21.412a16.675,16.675,0,0,1,2.929-1.331" transform="translate(35.105 69.164)" fill="none" stroke="#000" stroke-miterlimit="10" stroke-width="2"/><path d="M1422.565,644.256l-6.766-3.906A16.57,16.57,0,0,1,1407.516,626V589.949" transform="translate(34.763 77.463)" fill="none" stroke="#000" stroke-miterlimit="10" stroke-width="2"/><path d="M1463.11,445.167,1417.621,418.9a16.566,16.566,0,0,1-8.283-14.348V352.031a16.569,16.569,0,0,1,8.283-14.349l45.488-26.264a16.565,16.565,0,0,1,16.568,0l45.49,26.263a16.57,16.57,0,0,1,8.283,14.349v52.522a16.566,16.566,0,0,1-8.283,14.348l-45.49,26.263A16.571,16.571,0,0,1,1463.11,445.167Z" transform="translate(35.188 11.95)" fill="none" stroke="#0080f4" stroke-miterlimit="10" stroke-width="2"/><line y1="10.932" transform="translate(1436.552 397.865)" fill="none" stroke="#000" stroke-miterlimit="10" stroke-width="2"/><path d="M1441.134,421.929l-29.977-17.308a16.566,16.566,0,0,1-8.283-14.348" transform="translate(33.68 30.869)" fill="none" stroke="#000" stroke-miterlimit="10" stroke-width="2"/><line x1="8.712" y2="5.031" transform="translate(1514.55 461.146)" fill="none" stroke="#000" stroke-miterlimit="10" stroke-width="2"/><path d="M1524.025,390.275a16.568,16.568,0,0,1-8.283,14.348l-34.553,19.949" transform="translate(51.955 30.869)" fill="none" stroke="#000" stroke-miterlimit="10" stroke-width="2"/><line y2="10.712" transform="translate(1575.979 372.025)" fill="none" stroke="#000" stroke-miterlimit="10" stroke-width="2"/><path d="M1485.192,315.022l29.614,17.1a16.568,16.568,0,0,1,8.283,14.348V348" transform="translate(52.889 13.309)" fill="none" stroke="#000" stroke-miterlimit="10" stroke-width="2"/><line y1="4.715" x2="8.167" transform="translate(1489.815 314.746)" fill="none" stroke="#000" stroke-miterlimit="10" stroke-width="2"/><path d="M1403.524,342.06a16.561,16.561,0,0,1,7.48-9.25l35.927-20.742" transform="translate(33.832 12.62)" fill="none" stroke="#000" stroke-miterlimit="10" stroke-width="2"/><path d="M1872.615,373.037l-33.732-19.475a16.568,16.568,0,0,1-8.283-14.348v-38.95a16.57,16.57,0,0,1,8.283-14.349l33.732-19.475a16.571,16.571,0,0,1,16.568,0l33.732,19.475a16.569,16.569,0,0,1,8.283,14.349v38.95a16.567,16.567,0,0,1-8.283,14.348l-33.732,19.475A16.565,16.565,0,0,1,1872.615,373.037Z" transform="translate(133.489 1.455)" fill="none" stroke="#0c111a" stroke-miterlimit="10" stroke-width="2"/><path d="M1845.792,273.535l23.088-13.33a16.571,16.571,0,0,1,14.594-.971" transform="translate(137.034 0)" fill="none" stroke="#000" stroke-miterlimit="10" stroke-width="2"/><path d="M1825.365,330.223V290.4q0-.7.059-1.4" transform="translate(132.267 7.239)" fill="none" stroke="#000" stroke-miterlimit="10" stroke-width="2"/><path d="M1857.011,354.947l-23.4-13.51a16.568,16.568,0,0,1-8.077-11.733" transform="translate(132.307 16.735)" fill="none" stroke="#000" stroke-miterlimit="10" stroke-width="2"/><path d="M1912.9,341.752l-34.579,19.964a16.7,16.7,0,0,1-1.973.971" transform="translate(144.164 19.547)" fill="none" stroke="#000" stroke-miterlimit="10" stroke-width="2"/><path d="M1918.657,305.892v26.754a16.568,16.568,0,0,1-8.283,14.348" transform="translate(152.104 11.179)" fill="none" stroke="#000" stroke-miterlimit="10" stroke-width="2"/><path d="M1882.252,262.271l34.682,20.023a16.66,16.66,0,0,1,1.828,1.223" transform="translate(145.542 1)" fill="none" stroke="#000" stroke-miterlimit="10" stroke-width="2"/><path d="M1868.142,620.788l-40.371-23.31a16.567,16.567,0,0,1-8.285-14.347V536.51a16.567,16.567,0,0,1,8.285-14.348l40.371-23.31a16.571,16.571,0,0,1,16.567,0l40.371,23.31a16.567,16.567,0,0,1,8.284,14.348V583.13a16.567,16.567,0,0,1-8.284,14.347l-40.371,23.31A16.564,16.564,0,0,1,1868.142,620.788Z" transform="translate(130.896 55.688)" fill="none" stroke="#0080f4" stroke-miterlimit="10" stroke-width="2"/><line y1="26.302" transform="translate(1944.281 587.885)" fill="none" stroke="#0c111a" stroke-miterlimit="10" stroke-width="2"/><path d="M1843.126,598.289l-20.3-11.717a16.569,16.569,0,0,1-8.284-14.347v-16" transform="translate(129.741 69.595)" fill="none" stroke="#0c111a" stroke-miterlimit="10" stroke-width="2"/><path d="M1895.376,592.251l-22.3,12.874a16.519,16.519,0,0,1-2.753,1.269" transform="translate(142.759 78)" fill="none" stroke="#0c111a" stroke-miterlimit="10" stroke-width="2"/><path d="M1921.356,550.136v23.5a16.568,16.568,0,0,1-8.283,14.347l-14,8.081" transform="translate(149.467 68.173)" fill="none" stroke="#0c111a" stroke-miterlimit="10" stroke-width="2"/><path d="M1891.662,503l23.139,13.358a16.731,16.731,0,0,1,1.589,1.043" transform="translate(147.738 57.174)" fill="none" stroke="#0c111a" stroke-miterlimit="10" stroke-width="2"/><path d="M1842.311,504.363l20.734-11.971a16.572,16.572,0,0,1,16.568,0l14.01,8.09" transform="translate(136.222 54.18)" fill="none" stroke="#0c111a" stroke-miterlimit="10" stroke-width="2"/><path d="M1332.093,388.5h36.864a8.54,8.54,0,0,0,8.54-8.54h0V364.207a11.041,11.041,0,0,1,11.042-11.042h38.506" transform="translate(17.163 22.21)" fill="none" stroke="#0c111a" stroke-miterlimit="10" stroke-width="2"/><line x2="45.053" transform="translate(1789.244 547.048)" fill="none" stroke="#0c111a" stroke-miterlimit="10" stroke-width="2"/><line x2="49.581" transform="translate(1845.302 546.937)" fill="none" stroke="#0c111a" stroke-miterlimit="10" stroke-width="2"/><line x2="9.864" y2="13.827" transform="translate(1560.296 439.127)" fill="none" stroke="#000" stroke-miterlimit="10" stroke-width="2"/><line x2="26.162" y2="38.324" transform="translate(1576.291 461.947)" fill="none" stroke="#0c111a" stroke-miterlimit="10" stroke-width="2"/><line y2="10.012" transform="translate(1768.431 383.989)" fill="none" stroke="#000" stroke-miterlimit="10" stroke-width="2"/><line x2="40.342" transform="translate(1889.509 389.656)" fill="none" stroke="#000" stroke-miterlimit="10" stroke-width="2"/><line x2="25.203" y2="38.501" transform="translate(1718.104 664.614)" fill="none" stroke="#000" stroke-miterlimit="10" stroke-width="2"/><line x1="27.703" y2="41.106" transform="translate(1595.301 651.371)" fill="none" stroke="#0c111a" stroke-miterlimit="10" stroke-width="2"/><path d="M1489.025,620.271h37.438s5.594.387,8.54-2.926" transform="translate(53.783 83.856)" fill="none" stroke="#000" stroke-miterlimit="10" stroke-width="2"/><g transform="translate(1619.404 541.65)"><path d="M1581.243,488.358a6.611,6.611,0,0,0-1.184-.276,10.158,10.158,0,0,0-1.538-.1,10.316,10.316,0,0,0-1.592.1,6.711,6.711,0,0,0-1.156.274,2.892,2.892,0,0,0-2.022,2.79v13.184H1560.67V491.147a2.894,2.894,0,0,0-2.02-2.789,6.613,6.613,0,0,0-1.184-.276,12.148,12.148,0,0,0-3.109,0,6.677,6.677,0,0,0-1.211.279,2.892,2.892,0,0,0-2.016,2.789v36.92a2.931,2.931,0,0,0,.48,1.629,2.963,2.963,0,0,0,1.531,1.157,6.494,6.494,0,0,0,1.216.281,12.154,12.154,0,0,0,3.11,0,6.444,6.444,0,0,0,1.182-.275,2.891,2.891,0,0,0,2.023-2.79V513.218h13.081v14.849a2.891,2.891,0,0,0,2.008,2.785,6.57,6.57,0,0,0,1.169.279,10.315,10.315,0,0,0,1.592.1,10.166,10.166,0,0,0,1.538-.1,6.443,6.443,0,0,0,1.182-.275,2.891,2.891,0,0,0,2.023-2.79v-36.92a2.894,2.894,0,0,0-2.02-2.789Z" transform="translate(-1551.129 -487.981)" fill="none" stroke="#ef54a1" stroke-miterlimit="10" stroke-width="2"/><path d="M1608.932,523.915a3.243,3.243,0,0,0-1.084-1.125,3.025,3.025,0,0,0-1.592-.448h-13.037v-9.336h10.687a3.121,3.121,0,0,0,1.487-.371,3.061,3.061,0,0,0,1.2-1.2,4.048,4.048,0,0,0,.449-1.368,8.115,8.115,0,0,0,.086-1.263,9.133,9.133,0,0,0-.081-1.286,4.045,4.045,0,0,0-.452-1.426,3.319,3.319,0,0,0-1.011-1.121,2.965,2.965,0,0,0-1.681-.52h-10.687v-7.641h12.827a2.988,2.988,0,0,0,2.749-1.766,4.8,4.8,0,0,0,.365-1.189,7.464,7.464,0,0,0,.112-1.341,7.71,7.71,0,0,0-.111-1.392,5.184,5.184,0,0,0-.353-1.183,2.98,2.98,0,0,0-2.763-1.808h-18.251a4.333,4.333,0,0,0-2.629.91,4,4,0,0,0-1.486,3.384v34.306a3.984,3.984,0,0,0,1.488,3.384,4.326,4.326,0,0,0,2.628.91h18.461a3.046,3.046,0,0,0,1.589-.447,3.165,3.165,0,0,0,1.115-1.19,4.134,4.134,0,0,0,.466-1.425,8.555,8.555,0,0,0,.085-1.263,9.052,9.052,0,0,0-.084-1.316A4.044,4.044,0,0,0,1608.932,523.915Z" transform="translate(-1543.534 -487.947)" fill="none" stroke="#ef54a1" stroke-miterlimit="10" stroke-width="2"/><path d="M1633.444,523.9a3.263,3.263,0,0,0-1.038-1.184,3.008,3.008,0,0,0-1.708-.52h-11.58v-31.05a2.89,2.89,0,0,0-2.019-2.789,6.631,6.631,0,0,0-1.185-.276,12.149,12.149,0,0,0-3.109,0,6.642,6.642,0,0,0-1.21.279,2.9,2.9,0,0,0-2.018,2.789V526.76a3.988,3.988,0,0,0,1.488,3.384,4.332,4.332,0,0,0,2.629.91h17a3,3,0,0,0,1.716-.525,3.188,3.188,0,0,0,1.074-1.295,4.719,4.719,0,0,0,.38-1.3,8.958,8.958,0,0,0,.084-1.322,9.339,9.339,0,0,0-.083-1.33A4.237,4.237,0,0,0,1633.444,523.9Z" transform="translate(-1537.49 -487.981)" fill="none" stroke="#ef54a1" stroke-miterlimit="10" stroke-width="2"/><path d="M1661.253,496.927a12.153,12.153,0,0,0-2.13-3.864,12.275,12.275,0,0,0-3.35-2.812,13.381,13.381,0,0,0-3.813-1.523,24.8,24.8,0,0,0-2.979-.488c-.826-.075-1.7-.113-2.594-.113h-8.234a4.409,4.409,0,0,0-2.794,1,4.166,4.166,0,0,0-1.442,3.414v35.493a2.89,2.89,0,0,0,2.009,2.785,6.36,6.36,0,0,0,1.2.28,10.4,10.4,0,0,0,1.566.1,10.552,10.552,0,0,0,1.565-.1,6.051,6.051,0,0,0,1.2-.29,3.042,3.042,0,0,0,1.42-1.026,2.882,2.882,0,0,0,.581-1.75V516.394h2.156a21.05,21.05,0,0,0,6.864-1.014,14.441,14.441,0,0,0,5.118-2.992,13.292,13.292,0,0,0,3.266-4.74,15.882,15.882,0,0,0,1.116-6.042A14.572,14.572,0,0,0,1661.253,496.927Zm-17.793-.152h2.512a15.992,15.992,0,0,1,2.359.182,5.055,5.055,0,0,1,1.87.693,3.916,3.916,0,0,1,1.373,1.523,5.887,5.887,0,0,1,.6,2.848,7.1,7.1,0,0,1-.4,2.44,4.682,4.682,0,0,1-1.071,1.729,5,5,0,0,1-1.8,1.14,8.644,8.644,0,0,1-3.049.445h-2.394Z" transform="translate(-1531.81 -487.947)" fill="none" stroke="#ef54a1" stroke-miterlimit="10" stroke-width="2"/></g><g transform="translate(1468.821 655.52)"><path d="M1437.43,605.916a9.147,9.147,0,0,0-4.662,1.051,6,6,0,0,1-1.93.554c-.863-.538-.67-1.643-.286-2.369a6.646,6.646,0,0,1,1.547-1.814,10.542,10.542,0,0,1,4.563-1.973l-.134-1.222a9.427,9.427,0,0,0-5.216,2.255,7.689,7.689,0,0,0-1.834,2.158c-.747,1.664-.688,3.662,1.3,4.185a6,6,0,0,0,2.467-.65c1.409-.522,3.17-1.46,4.528-.783Z" transform="translate(-1429.036 -575.679)" fill="#0080f4" stroke="#0080f4" stroke-miterlimit="10" stroke-width="0.8"/><path d="M1436.39,611.939a51.875,51.875,0,0,0,3.63,10.049,30.933,30.933,0,0,0,5.9,8.578,10.881,10.881,0,0,0,7.412,3.535c4.177,0,7.93-2.078,10.946-4.089,1.508-1.005,2.837-2,3.916-2.731a6.513,6.513,0,0,1,2.255-1.127,9.109,9.109,0,0,1,3.039.863c1.173.493,2.4,1.11,3.453,1.528a.642.642,0,0,0,.81-.411.568.568,0,0,0,.03-.143,7.892,7.892,0,0,0-5.057-7.451,9.372,9.372,0,0,0-7.647.439c1.389-2.972,2.96-6.175,4.317-9.419,1.617-3.847,2.885-7.537,2.885-10.469,0-12.533-9.4-20.786-18.34-20.786-10.076,0-18.933,7.631-18.953,19.524v.038a36.075,36.075,0,0,0,.153,4.91l.134,1.222c.184,1.5.425,3.022.765,4.547Z" transform="translate(-1427.652 -580.307)" fill="#fff" stroke="#0080f4" stroke-miterlimit="10" stroke-width="1.8"/><path d="M1448.584,591.063a4.231,4.231,0,0,1,3.577-3.33c1.634.032,2.728,1.771,3.324,3.305a18.008,18.008,0,0,1,.956,5.866.644.644,0,0,1-.71.571.636.636,0,0,1-.245-.078,6.41,6.41,0,0,0-3.324-.8,6.48,6.48,0,0,0-3.344.8.645.645,0,0,1-.868-.274.651.651,0,0,1-.068-.219A20.217,20.217,0,0,1,1448.584,591.063Z" transform="translate(-1424.64 -578.574)" fill="#0080f4"/><path d="M1439.4,597.4a.644.644,0,0,1-.868-.274.659.659,0,0,1-.068-.22,20.24,20.24,0,0,1,.707-5.846,4.231,4.231,0,0,1,3.577-3.33c1.633.032,2.728,1.771,3.33,3.305a18.041,18.041,0,0,1,.955,5.866.644.644,0,0,1-.955.493,7.323,7.323,0,0,0-6.677.005Z" transform="translate(-1426.839 -578.574)" fill="#0080f4"/><path d="M1457.437,603.077a9.2,9.2,0,0,0-9.973-.783,11.106,11.106,0,0,0-3.383,2.5c-.793.925-1.513,2.258-.153,2.96a6.452,6.452,0,0,0,2.16-.115c2.026-.339,4.095-.689,6,.592l-.765.956c-1.3-1.009-3.353-.6-5.025-.343a6.892,6.892,0,0,1-2.654.113c-2.665-.693-1.653-3.537-.477-4.967a12.165,12.165,0,0,1,3.763-2.789,10.771,10.771,0,0,1,11.252.9Z" transform="translate(-1426.021 -575.705)" fill="#0080f4" stroke="#0080f4" stroke-miterlimit="10" stroke-width="0.8"/></g><g transform="translate(1471.534 354.271)"><circle cx="34.722" cy="34.722" r="34.722" fill="none" stroke="#0080f4" stroke-miterlimit="10" stroke-width="2"/><path d="M0,0H69.446" transform="translate(0 34.722)" fill="none" stroke="#0080f4" stroke-width="2"/><line x2="61.494" transform="translate(3.978 18.579)" fill="none" stroke="#0080f4" stroke-miterlimit="10" stroke-width="2"/><line x2="60.766" transform="translate(3.978 50.865)" fill="none" stroke="#0080f4" stroke-miterlimit="10" stroke-width="2"/><line y1="71.096" transform="translate(35.26 0.068)" fill="none" stroke="#0080f4" stroke-miterlimit="10" stroke-width="2"/><ellipse cx="18.353" cy="34.688" rx="18.353" ry="34.688" transform="translate(16.632 0.068)" fill="none" stroke="#0080f4" stroke-miterlimit="10" stroke-width="2"/></g><g transform="translate(1809.833 714.701)"><rect width="34.429" height="26.661" transform="translate(0 22.863)" fill="none" stroke="#0080f4" stroke-miterlimit="10" stroke-width="2"/><path d="M1721.631,628.291h0a13.251,13.251,0,0,1,13.251,13.251v9.47h-26.5v-9.47A13.251,13.251,0,0,1,1721.631,628.291Z" transform="translate(-1704.864 -628.291)" fill="none" stroke="#0080f4" stroke-miterlimit="10" stroke-width="2"/><line y2="7.998" transform="translate(17.214 32.194)" fill="none" stroke="#0080f4" stroke-linecap="round" stroke-miterlimit="10" stroke-width="2"/></g><g transform="translate(1286.944 395.317)"><path d="M1320.067,372.736l-18.217-3.375a1.708,1.708,0,0,0-.6,0l-18.32,3.375a1.66,1.66,0,0,0-1.357,1.633v21.6a15.681,15.681,0,0,0,3.186,9.457,24.475,24.475,0,0,0,6.749,6.043,38.729,38.729,0,0,0,9.62,4.307,1.653,1.653,0,0,0,.863,0,38.9,38.9,0,0,0,9.562-4.348,24.569,24.569,0,0,0,6.709-6.061,15.648,15.648,0,0,0,3.167-9.412V374.368A1.66,1.66,0,0,0,1320.067,372.736Zm-.966,23.427c0,5.154-2.951,9.658-8.772,13.39a39.579,39.579,0,0,1-8.642,4.039.43.43,0,0,1-.284,0q-17.512-5.981-17.512-17.428V375.113a.441.441,0,0,1,.36-.434l17.219-3.168a.431.431,0,0,1,.159,0l17.112,3.168a.44.44,0,0,1,.36.434Z" transform="translate(-1281.57 -369.334)" fill="#0c111a"/></g><g transform="translate(1989.322 294.297)"><path d="M1859.453,313.036a9.145,9.145,0,0,0-4.662,1.051,5.969,5.969,0,0,1-1.93.554c-.864-.538-.67-1.643-.286-2.369a6.637,6.637,0,0,1,1.547-1.814,10.557,10.557,0,0,1,4.563-1.973l-.134-1.222a9.425,9.425,0,0,0-5.216,2.255,7.688,7.688,0,0,0-1.834,2.158c-.747,1.664-.688,3.662,1.3,4.185a5.994,5.994,0,0,0,2.467-.65c1.41-.522,3.169-1.46,4.527-.783Z" transform="translate(-1851.059 -282.799)" stroke="#000" stroke-miterlimit="10" stroke-width="0.8"/><path d="M1858.413,319.059a51.84,51.84,0,0,0,3.63,10.049,30.885,30.885,0,0,0,5.9,8.578,10.88,10.88,0,0,0,7.413,3.535c4.177,0,7.93-2.078,10.946-4.089,1.508-1.005,2.837-2,3.916-2.731a6.514,6.514,0,0,1,2.254-1.127,9.106,9.106,0,0,1,3.039.863c1.173.493,2.4,1.11,3.453,1.528a.642.642,0,0,0,.81-.411.692.692,0,0,0,.03-.143,7.9,7.9,0,0,0-5.057-7.451,9.377,9.377,0,0,0-7.647.439c1.389-2.972,2.96-6.175,4.317-9.419,1.617-3.847,2.885-7.537,2.885-10.469,0-12.533-9.4-20.786-18.34-20.786-10.077,0-18.933,7.631-18.953,19.524v.038a35.791,35.791,0,0,0,.153,4.91l.134,1.222c.184,1.5.426,3.022.765,4.547Z" transform="translate(-1849.676 -287.427)" fill="#fff" stroke="#000" stroke-miterlimit="10" stroke-width="1.8"/><path d="M1870.607,298.183a4.234,4.234,0,0,1,3.577-3.33c1.634.032,2.728,1.771,3.324,3.305a18.015,18.015,0,0,1,.956,5.866.646.646,0,0,1-.712.572.663.663,0,0,1-.244-.079,6.411,6.411,0,0,0-3.324-.8,6.482,6.482,0,0,0-3.344.8.643.643,0,0,1-.936-.493A20.222,20.222,0,0,1,1870.607,298.183Z" transform="translate(-1846.663 -285.694)"/><path d="M1861.419,304.524a.643.643,0,0,1-.936-.493,20.158,20.158,0,0,1,.707-5.846,4.229,4.229,0,0,1,3.576-3.33c1.633.032,2.728,1.771,3.33,3.305a18.039,18.039,0,0,1,.954,5.866.644.644,0,0,1-.954.493,6.409,6.409,0,0,0-3.33-.8A6.476,6.476,0,0,0,1861.419,304.524Z" transform="translate(-1848.862 -285.694)"/><path d="M1879.46,310.2a9.2,9.2,0,0,0-9.973-.783,11.077,11.077,0,0,0-3.383,2.5c-.793.925-1.513,2.258-.153,2.96a6.456,6.456,0,0,0,2.16-.115c2.026-.339,4.095-.69,6,.592l-.765.956c-1.3-1.009-3.354-.6-5.025-.343a6.872,6.872,0,0,1-2.654.113c-2.665-.693-1.653-3.537-.478-4.967a12.172,12.172,0,0,1,3.763-2.789,10.772,10.772,0,0,1,11.252.9Z" transform="translate(-1848.044 -282.825)" stroke="#000" stroke-miterlimit="10" stroke-width="0.8"/></g><g transform="translate(1295.984 412.048)"><path d="M1297.043,395.927a1.929,1.929,0,0,1-1.224-.434l-6.42-5.252a1.357,1.357,0,1,1,1.717-2.1l5.93,4.852,12.092-9.789a1.357,1.357,0,0,1,1.707,2.109L1298.26,395.5A1.927,1.927,0,0,1,1297.043,395.927Z" transform="translate(-1288.9 -382.9)" fill="#0c111a"/></g><path d="M1895.044,555.875l-.04-.039a.8.8,0,0,0-1.125.012l-9.931,10.218c-.013.012-.033.012-.039,0l-4.657-4.794a.823.823,0,0,0-1.183,1.146l5.287,5.437a.8.8,0,0,0,.513.234h.117a.8.8,0,0,0,.514-.234l10.556-10.861A.792.792,0,0,0,1895.044,555.875Z" transform="translate(143.512 66.45)" fill="#0080f4" stroke="#0080f4" stroke-width="0.6"/><g transform="translate(1988.706 591.178)"><path d="M1860.362,556.187a1.17,1.17,0,1,0,0,2.341h15.2a1.17,1.17,0,0,0,0-2.341Z" transform="translate(-1848.545 -521.593)" fill="#0080f4" stroke="#0080f4" stroke-miterlimit="10" stroke-width="0.5"/><path d="M1882,547.987a1.174,1.174,0,0,0-1.171-1.17h-20.469a1.171,1.171,0,0,0,0,2.342h20.469A1.175,1.175,0,0,0,1882,547.987Z" transform="translate(-1848.545 -523.78)" fill="#0080f4" stroke="#0080f4" stroke-miterlimit="10" stroke-width="0.5"/><path d="M1880.83,537.445h-20.469a1.171,1.171,0,0,0,0,2.342h20.469a1.171,1.171,0,0,0,0-2.342Z" transform="translate(-1848.545 -525.966)" fill="#0080f4" stroke="#0080f4" stroke-miterlimit="10" stroke-width="0.5"/><path d="M1891.851,576.852h-38.762a.71.71,0,0,1-.709-.708V530.668a.71.71,0,0,1,.709-.708h39.036a.709.709,0,0,1,.708.708v24.364a.911.911,0,1,0,1.822,0V530.668a2.533,2.533,0,0,0-2.53-2.53h-39.036a2.532,2.532,0,0,0-2.53,2.53v45.476a2.532,2.532,0,0,0,2.53,2.53h38.762a.911.911,0,0,0,0-1.822Z" transform="translate(-1850.559 -528.138)" fill="#0080f4" stroke="#0080f4" stroke-miterlimit="10" stroke-width="0.5"/></g></g></svg>