<svg xmlns="http://www.w3.org/2000/svg" xmlns:xlink="http://www.w3.org/1999/xlink" width="1820" height="880" viewBox="0 0 1820 880">
  <defs>
    <clipPath id="clip-path">
      <rect id="矩形_2279" data-name="矩形 2279" width="1820" height="880" transform="translate(4162 -1087)" fill="#fff"/>
    </clipPath>
    <filter id="椭圆_1843" x="1128.102" y="317.797" width="147.399" height="147.399" filterUnits="userSpaceOnUse">
      <feOffset input="SourceAlpha"/>
      <feGaussianBlur stdDeviation="1.316" result="blur"/>
      <feFlood flood-opacity="0.2"/>
      <feComposite operator="in" in2="blur"/>
      <feComposite in="SourceGraphic"/>
    </filter>
  </defs>
  <g id="banner_jp" transform="translate(-50 -160)">
    <g id="banner3-EN">
      <g id="banner-bg" transform="translate(-92 53)">
        <g id="蒙版组_24" data-name="蒙版组 24" transform="translate(-4020 1194)" clip-path="url(#clip-path)">
          <g id="组_21798" data-name="组 21798" transform="translate(5736.99 -1760.165)" opacity="0.05">
            <g id="组_21749" data-name="组 21749" transform="translate(-652.101 785.75)">
              <g id="组_21738" data-name="组 21738" transform="translate(170.968 171.045)">
                <path id="路径_38882" data-name="路径 38882" d="M-576.636,933.689a58.836,58.836,0,0,1,25.611-9.717l-.894-8.044-3.652-31.83a98,98,0,0,0-42.324,15.508l16.984,27.2Z" transform="translate(650.865 -875.238)" fill="none" stroke="#000" stroke-miterlimit="10" stroke-width="2"/>
                <path id="路径_38883" data-name="路径 38883" d="M-590.328,941.749a67.37,67.37,0,0,1,13.059-14.728l-19.821-25.262-4.974-6.334a107.859,107.859,0,0,0-20.948,22.929l6.567,4.7Z" transform="translate(641.161 -870.862)" fill="none" stroke="#000" stroke-miterlimit="10" stroke-width="2"/>
                <path id="路径_38884" data-name="路径 38884" d="M-583.106,928.981a58.737,58.737,0,0,1,6.062-4.586l-16.984-27.2-4.274-6.84a94.993,94.993,0,0,0-9.6,7.034l4.974,6.334Z" transform="translate(646.999 -872.822)" fill="none" stroke="#000" stroke-miterlimit="10" stroke-width="2"/>
                <path id="路径_38885" data-name="路径 38885" d="M-590.085,974.973a58.052,58.052,0,0,1-.349-6.412,59.414,59.414,0,0,1,6.257-26.622l-7.073-3.925-28.06-15.623a99.615,99.615,0,0,0-11.27,46.169c0,2.954.116,5.907.388,8.784l32.023-1.9Z" transform="translate(638.237 -860.443)" fill="none" stroke="#000" stroke-miterlimit="10" stroke-width="2"/>
                <path id="路径_38886" data-name="路径 38886" d="M-588.584,935.359-614.7,916.665l-6.567-4.7a99,99,0,0,0-6.258,10.532l7.034,3.926,28.06,15.623A57.247,57.247,0,0,1-588.584,935.359Z" transform="translate(639.417 -864.472)" fill="none" stroke="#000" stroke-miterlimit="10" stroke-width="2"/>
                <path id="路径_38887" data-name="路径 38887" d="M-585.668,976.753a59.558,59.558,0,0,1-3.847-11.386l-7.927,1.438-31.6,5.752a96.019,96.019,0,0,0,6.179,19.353l29.73-12.125Z" transform="translate(638.833 -843.84)" fill="none" stroke="#000" stroke-miterlimit="10" stroke-width="2"/>
                <path id="路径_38888" data-name="路径 38888" d="M-596.035,960.657l-32.023,1.9-8.045.5a98.5,98.5,0,0,0,1.866,12.786l7.929-1.476,31.6-5.752A59.616,59.616,0,0,1-596.035,960.657Z" transform="translate(636.103 -845.659)" fill="none" stroke="#000" stroke-miterlimit="10" stroke-width="2"/>
                <path id="路径_38889" data-name="路径 38889" d="M-566.891,1005.143a68.416,68.416,0,0,1-25.223-27.554l-29.185,13.33-7.346,3.381a108,108,0,0,0,40.262,44.771l4.353-6.84Z" transform="translate(638.984 -839.118)" fill="none" stroke="#000" stroke-miterlimit="10" stroke-width="2"/>
                <path id="路径_38890" data-name="路径 38890" d="M-591.605,978.293c-.427-.817-.815-1.672-1.166-2.526l-29.73,12.125-7.463,3.071c.545,1.36,1.166,2.72,1.827,4.041l7.346-3.381Z" transform="translate(638.475 -839.822)" fill="none" stroke="#000" stroke-miterlimit="10" stroke-width="2"/>
                <path id="路径_38891" data-name="路径 38891" d="M-540.7,1000.3a51.537,51.537,0,0,1-5.519.272,59.888,59.888,0,0,1-25.961-5.907c-1.2,2.409-2.371,4.858-3.537,7.267h-.039c-5.053,10.221-9.989,20.327-14.146,28.76a99.629,99.629,0,0,0,43.682,10.026c3.343,0,6.685-.155,9.95-.466l-3.538-31.907Z" transform="translate(653.952 -832.522)" fill="none" stroke="#000" stroke-miterlimit="10" stroke-width="2"/>
                <path id="路径_38892" data-name="路径 38892" d="M-578.111,997.464l-17.139,27.088-4.353,6.84a105.824,105.824,0,0,0,9.872,5.441c1.127-2.254,2.293-4.664,3.575-7.229,4.158-8.433,9.093-18.538,14.146-28.76A58.188,58.188,0,0,1-578.111,997.464Z" transform="translate(650.204 -831.439)" fill="none" stroke="#000" stroke-miterlimit="10" stroke-width="2"/>
                <path id="路径_38893" data-name="路径 38893" d="M-547.041,1006.136l8.082,31.053,2.021,7.811a105.888,105.888,0,0,0,35.833-16.166l-4.78-6.53-18.81-25.961A66.746,66.746,0,0,1-547.041,1006.136Z" transform="translate(670.512 -831.872)" fill="none" stroke="#000" stroke-miterlimit="10" stroke-width="2"/>
                <path id="路径_38894" data-name="路径 38894" d="M-544.441,1003.407a61.379,61.379,0,0,1-9.329,1.556l3.538,31.907.854,8.006a101.407,101.407,0,0,0,15.041-2.6l-2.021-7.811Z" transform="translate(667.912 -829.143)" fill="none" stroke="#000" stroke-miterlimit="10" stroke-width="2"/>
                <path id="路径_38895" data-name="路径 38895" d="M-528.764,1006.34l20.288,24.872,5.052,6.258a107.662,107.662,0,0,0,40.146-66.884l-8.006-1.166-31.751-4.586A67.611,67.611,0,0,1-528.764,1006.34Z" transform="translate(677.573 -844.046)" fill="none" stroke="#000" stroke-miterlimit="10" stroke-width="2"/>
                <path id="路径_38896" data-name="路径 38896" d="M-531.728,990.26c-.855.661-1.75,1.282-2.642,1.866l4.78,6.567,18.81,25.961c1.515-1.01,3.031-2.136,4.47-3.265L-526.6,996.517Z" transform="translate(675.407 -834.222)" fill="none" stroke="#000" stroke-miterlimit="10" stroke-width="2"/>
                <path id="路径_38897" data-name="路径 38897" d="M-558.927,923.656h.737a59.786,59.786,0,0,1,19.821,3.381l2.642-7.657,10.455-30.314a99.233,99.233,0,0,0-32.918-5.556h-.737v40.146Z" transform="translate(665.92 -875.465)" fill="none" stroke="#000" stroke-miterlimit="10" stroke-width="2"/>
                <path id="路径_38898" data-name="路径 38898" d="M-555.407,917.814V877.707a96.535,96.535,0,0,0-12.631.817l.933,8.044,3.652,31.831A68.514,68.514,0,0,1-555.407,917.814Z" transform="translate(662.4 -877.707)" fill="none" stroke="#000" stroke-miterlimit="10" stroke-width="2"/>
                <path id="路径_38899" data-name="路径 38899" d="M-508.276,965.995c0,.972-.039,1.944-.078,2.877h40.146c.078-.933.078-1.9.078-2.877a107.875,107.875,0,0,0-6.491-36.959l-7.539,2.914-29.924,11.659A66.7,66.7,0,0,1-508.276,965.995Z" transform="translate(684.018 -857.876)" fill="none" stroke="#000" stroke-miterlimit="10" stroke-width="2"/>
                <path id="路径_38900" data-name="路径 38900" d="M-506.848,957.77h-8.084a52.273,52.273,0,0,1-1.049,8.627l8.006,1.166,31.752,4.586a91.925,91.925,0,0,0,1.438-14.379Z" transform="translate(682.512 -846.775)" fill="none" stroke="#000" stroke-miterlimit="10" stroke-width="2"/>
                <path id="路径_38901" data-name="路径 38901" d="M-536.781,921.738a68.343,68.343,0,0,1,29.847,28.642l27.71-16.166,6.957-4.043a108.178,108.178,0,0,0-47.1-44.615l-3.5,7.267Z" transform="translate(674.476 -874.674)" fill="none" stroke="#000" stroke-miterlimit="10" stroke-width="2"/>
                <path id="路径_38902" data-name="路径 38902" d="M-534.69,923.1l13.913-28.915,3.5-7.267a98.181,98.181,0,0,0-11.815-4.9l-2.642,7.617-10.454,30.314A63.727,63.727,0,0,1-534.69,923.1Z" transform="translate(672.385 -876.039)" fill="none" stroke="#000" stroke-miterlimit="10" stroke-width="2"/>
                <path id="路径_38903" data-name="路径 38903" d="M-520.3,940.9a59.718,59.718,0,0,1,3.847,8.862l7.54-2.915,29.924-11.659a100.323,100.323,0,0,0-6.606-14.535L-513.3,936.82Z" transform="translate(680.844 -861.114)" fill="none" stroke="#000" stroke-miterlimit="10" stroke-width="2"/>
              </g>
              <g id="组_21739" data-name="组 21739" transform="translate(133.534 133.496)">
                <path id="路径_38904" data-name="路径 38904" d="M-590.946,875.3l-5.83-10.1a146.059,146.059,0,0,0-53.214,54.662l10.1,5.828A134.369,134.369,0,0,1-590.946,875.3Z" transform="translate(668.172 -844.989)" fill="none" stroke="#000" stroke-miterlimit="10" stroke-width="2"/>
                <path id="路径_38905" data-name="路径 38905" d="M-490.152,880.932l5.83-10.1a144.7,144.7,0,0,0-73.945-20.214v11.659A133.1,133.1,0,0,1-490.152,880.932Z" transform="translate(703.609 -850.622)" fill="none" stroke="#000" stroke-miterlimit="10" stroke-width="2"/>
                <path id="路径_38906" data-name="路径 38906" d="M-457.134,975.171c0,.965-.053,1.916-.073,2.875h11.659c.019-.959.073-1.91.073-2.875a144.714,144.714,0,0,0-18.257-70.539l-10.1,5.828A133.119,133.119,0,0,1-457.134,975.171Z" transform="translate(736.232 -829.755)" fill="none" stroke="#000" stroke-miterlimit="10" stroke-width="2"/>
                <path id="路径_38907" data-name="路径 38907" d="M-603.977,1039.574l-5.83,10.1a144.7,144.7,0,0,0,71.452,18.779v-11.658A133.091,133.091,0,0,1-603.977,1039.574Z" transform="translate(683.697 -777.621)" fill="none" stroke="#000" stroke-miterlimit="10" stroke-width="2"/>
                <path id="路径_38908" data-name="路径 38908" d="M-451.879,1011.133l-10.1-5.828a134.374,134.374,0,0,1-48.957,47.509l5.83,10.1A146.1,146.1,0,0,0-451.879,1011.133Z" transform="translate(721.897 -790.861)" fill="none" stroke="#000" stroke-miterlimit="10" stroke-width="2"/>
                <path id="路径_38909" data-name="路径 38909" d="M-651.446,957.587h-11.659a144.643,144.643,0,0,0,20.666,71.982l10.1-5.828A133.054,133.054,0,0,1-651.446,957.587Z" transform="translate(663.105 -809.296)" fill="none" stroke="#000" stroke-miterlimit="10" stroke-width="2"/>
                <path id="路径_38910" data-name="路径 38910" d="M-593.759,872.485a134.37,134.37,0,0,0-48.948,50.4" transform="translate(670.986 -842.175)" fill="none" stroke="#000" stroke-miterlimit="10" stroke-width="2"/>
                <path id="路径_38911" data-name="路径 38911" d="M-490.152,877.683a133.094,133.094,0,0,0-68.115-18.651" transform="translate(703.609 -847.373)" fill="none" stroke="#000" stroke-miterlimit="10" stroke-width="2"/>
                <path id="路径_38912" data-name="路径 38912" d="M-457.207,976.422c.021-.959.073-1.91.073-2.875a133.119,133.119,0,0,0-16.693-64.711" transform="translate(736.232 -828.131)" fill="none" stroke="#000" stroke-miterlimit="10" stroke-width="2"/>
                <path id="路径_38913" data-name="路径 38913" d="M-605.6,1039.574a133.091,133.091,0,0,0,65.623,17.219" transform="translate(685.321 -777.621)" fill="none" stroke="#000" stroke-miterlimit="10" stroke-width="2"/>
                <path id="路径_38914" data-name="路径 38914" d="M-654.695,957.587a133.053,133.053,0,0,0,19.1,66.154" transform="translate(666.354 -809.296)" fill="none" stroke="#000" stroke-miterlimit="10" stroke-width="2"/>
                <path id="路径_38915" data-name="路径 38915" d="M-510.932,1052.814a134.374,134.374,0,0,0,48.957-47.509" transform="translate(721.897 -790.861)" fill="none" stroke="#000" stroke-miterlimit="10" stroke-width="2"/>
              </g>
              <circle id="椭圆_1841" data-name="椭圆 1841" cx="85.743" cy="85.743" r="85.743" transform="matrix(0.526, -0.851, 0.851, 0.526, 160.897, 306.771)" fill="none" stroke="#000" stroke-miterlimit="10" stroke-width="2" stroke-dasharray="1.825"/>
              <g id="组_21746" data-name="组 21746" transform="translate(78.464 78.452)">
                <g id="组_21740" data-name="组 21740" transform="translate(35.667)">
                  <path id="路径_38916" data-name="路径 38916" d="M-663.265,879.512A196.645,196.645,0,0,0-677.1,897.235l31.946,22.114A165.669,165.669,0,0,1-634,905.046Zm61.716-47.685,17.293,34.822a160.653,160.653,0,0,1,71.936-16.868V810.918A199.18,199.18,0,0,0-601.549,831.827Zm-50.406,35.754,27.049,27.866A160.352,160.352,0,0,1-595.8,873.022l-20.092-33.306A199.372,199.372,0,0,0-651.955,867.581Z" transform="translate(677.101 -810.918)" fill="none" stroke="#000" stroke-miterlimit="10" stroke-width="2"/>
                </g>
                <g id="组_21741" data-name="组 21741" transform="translate(0 100.229)">
                  <path id="路径_38917" data-name="路径 38917" d="M-692.051,1048.236a197.059,197.059,0,0,0,8.429,20.842l35.125-16.609a165.981,165.981,0,0,1-6.81-16.811Zm-10.439-77.29,38.8,2.434a160.667,160.667,0,0,1,21.361-70.733l-33.656-19.432A199.182,199.182,0,0,0-702.49,970.946Zm5.762,61.53,37.656-9.492a160.435,160.435,0,0,1-4.866-36.421l-38.89.747A199.361,199.361,0,0,0-696.728,1032.476Z" transform="translate(702.828 -883.215)" fill="none" stroke="#000" stroke-miterlimit="10" stroke-width="2"/>
                </g>
                <g id="组_21742" data-name="组 21742" transform="translate(26.847 281.257)">
                  <path id="路径_38918" data-name="路径 38918" d="M-548.585,1129.652a197.332,197.332,0,0,0,22.265,3.12l3.177-38.723a165.8,165.8,0,0,1-17.961-2.508Zm-72.155-29.605,21.509-32.388a160.68,160.68,0,0,1-50.575-53.865l-33.656,19.431A199.174,199.174,0,0,0-620.74,1100.047Zm56.167,25.776,10.608-37.358a160.456,160.456,0,0,1-33.975-14l-18.8,34.053A199.42,199.42,0,0,0-564.574,1125.823Z" transform="translate(683.463 -1013.794)" fill="none" stroke="#000" stroke-miterlimit="10" stroke-width="2"/>
                </g>
                <g id="组_21743" data-name="组 21743" transform="translate(200.448 292.488)">
                  <path id="路径_38919" data-name="路径 38919" d="M-407.294,1061.73a197.144,197.144,0,0,0,13.836-17.722l-31.947-22.114a165.375,165.375,0,0,1-11.153,14.3Zm-61.716,47.686-17.293-34.822a160.658,160.658,0,0,1-71.938,16.868v38.864A199.2,199.2,0,0,0-469.01,1109.416Zm50.406-35.754-27.049-27.866a160.407,160.407,0,0,1-29.108,22.424l20.092,33.306A199.354,199.354,0,0,0-418.6,1073.663Z" transform="translate(558.241 -1021.895)" fill="none" stroke="#000" stroke-miterlimit="10" stroke-width="2"/>
                </g>
                <g id="组_21744" data-name="组 21744" transform="translate(340.394 114.824)">
                  <path id="路径_38920" data-name="路径 38920" d="M-407.569,914.585A196.887,196.887,0,0,0-416,893.743l-35.123,16.61a165.75,165.75,0,0,1,6.808,16.81Zm10.439,77.292-38.8-2.434a160.672,160.672,0,0,1-21.361,70.733l33.656,19.431A199.192,199.192,0,0,0-397.13,991.877Zm-5.762-61.53-37.656,9.492a160.422,160.422,0,0,1,4.866,36.421l38.89-.747A199.445,199.445,0,0,0-402.892,930.347Z" transform="translate(457.295 -893.743)" fill="none" stroke="#000" stroke-miterlimit="10" stroke-width="2"/>
                </g>
                <g id="组_21745" data-name="组 21745" transform="translate(213.731 0.682)">
                  <path id="路径_38921" data-name="路径 38921" d="M-523.218,814.531a197.369,197.369,0,0,0-22.265-3.121l-3.177,38.724a165.849,165.849,0,0,1,17.962,2.508Zm72.155,29.605-21.509,32.388A160.668,160.668,0,0,1-422,930.389l33.656-19.432A199.2,199.2,0,0,0-451.062,844.136ZM-507.23,818.36l-10.607,37.358a160.438,160.438,0,0,1,33.974,14l18.8-34.054A199.494,199.494,0,0,0-507.23,818.36Z" transform="translate(548.66 -811.41)" fill="none" stroke="#000" stroke-miterlimit="10" stroke-width="2"/>
                </g>
              </g>
              <g id="组_21748" data-name="组 21748" transform="translate(38.088 39.434)">
                <g id="组_21747" data-name="组 21747">
                  <path id="路径_38922" data-name="路径 38922" d="M-700.37,889.218a229.6,229.6,0,0,0-18.538,118.845l-11.62,1.282a242.272,242.272,0,0,1,19.51-124.868Z" transform="translate(731.952 -743.48)" fill="none" stroke="#000" stroke-miterlimit="10" stroke-width="2"/>
                  <path id="路径_38923" data-name="路径 38923" d="M-559.613,796.974a227.563,227.563,0,0,0-110.256,57.906l-8.045-8.472a239.72,239.72,0,0,1,115.892-60.861Z" transform="translate(752.829 -781.701)" fill="none" stroke="#000" stroke-miterlimit="10" stroke-width="2"/>
                  <path id="路径_38924" data-name="路径 38924" d="M-440.533,815.962l-6.025,9.989a227.992,227.992,0,0,0-94.05-31.557l1.244-11.62A239.87,239.87,0,0,1-440.533,815.962Z" transform="translate(805.877 -782.773)" fill="none" stroke="#000" stroke-miterlimit="10" stroke-width="2"/>
                </g>
                <path id="路径_38925" data-name="路径 38925" d="M-345.649,835.587c91.822,91.822,91.822,240.7,0,332.517s-240.7,91.823-332.517,0" transform="translate(752.732 -762.368)" fill="none" stroke="#000" stroke-miterlimit="10" stroke-width="2" stroke-dasharray="0.912 3.649"/>
              </g>
              <path id="路径_38926" data-name="路径 38926" d="M-677.734,1230.461c-108.921-108.922-108.921-285.52,0-394.441s285.52-108.921,394.441,0" transform="translate(759.425 -754.329)" fill="none" stroke="#000" stroke-miterlimit="10" stroke-width="2" stroke-dasharray="0.912 3.649"/>
              <circle id="椭圆_1842" data-name="椭圆 1842" cx="278.215" cy="278.215" r="278.215" transform="translate(0.697 0.696)" fill="none" stroke="#000" stroke-miterlimit="10" stroke-width="2"/>
              <g transform="matrix(1, 0, 0, 1, -922.89, -112.59)" filter="url(#椭圆_1843)">
                <circle id="椭圆_1843-2" data-name="椭圆 1843" cx="68.752" cy="68.752" r="68.752" transform="translate(1133.05 322.74)" fill="#c8c8c8" stroke="#000" stroke-miterlimit="10" stroke-width="2"/>
              </g>
            </g>
            <path id="路径_38927" data-name="路径 38927" d="M-401.543,854.787h93.492L-267.263,814h92.879l47.314-47.314h97.92" transform="translate(245.592 36.195)" fill="none" stroke="#000" stroke-miterlimit="10" stroke-width="2"/>
            <path id="路径_38928" data-name="路径 38928" d="M-259.444,800.814l28.893,28.893h73.242l23.228,23.228,17.434-17.434h12.034" transform="translate(300.492 49.381)" fill="none" stroke="#000" stroke-miterlimit="10" stroke-width="2"/>
            <path id="路径_38929" data-name="路径 38929" d="M-126.091,768.239a5.3,5.3,0,0,1-5.3,5.3,5.3,5.3,0,0,1-5.3-5.3,5.3,5.3,0,0,1,5.3-5.3A5.3,5.3,0,0,1-126.091,768.239Z" transform="translate(347.916 34.747)" stroke="#707070" stroke-width="2"/>
            <path id="路径_38930" data-name="路径 38930" d="M-83.5,1098.838a5.3,5.3,0,0,1-5.3,5.3,5.3,5.3,0,0,1-5.3-5.3,5.3,5.3,0,0,1,5.3-5.3A5.3,5.3,0,0,1-83.5,1098.838Z" transform="translate(364.37 162.473)" stroke="#707070" stroke-width="2"/>
            <g id="组_21750" data-name="组 21750" transform="translate(195.879 881.066)">
              <circle id="椭圆_1844" data-name="椭圆 1844" cx="3.735" cy="3.735" r="3.735" transform="translate(0)" fill="none" stroke="#000" stroke-miterlimit="10" stroke-width="2"/>
              <circle id="椭圆_1845" data-name="椭圆 1845" cx="3.735" cy="3.735" r="3.735" transform="translate(9.077)" fill="none" stroke="#000" stroke-miterlimit="10" stroke-width="2"/>
              <circle id="椭圆_1846" data-name="椭圆 1846" cx="3.735" cy="3.735" r="3.735" transform="translate(18.154)" fill="none" stroke="#000" stroke-miterlimit="10" stroke-width="2"/>
            </g>
            <line id="直线_503" data-name="直线 503" x2="28.637" transform="translate(221.503 884.802)" fill="none" stroke="#000" stroke-miterlimit="10" stroke-width="2"/>
            <g id="组_21751" data-name="组 21751" transform="translate(250.141 881.066)">
              <path id="路径_38931" data-name="路径 38931" d="M-108.621,823.082v7.47l5.3-3.735Z" transform="translate(108.621 -823.082)" stroke="#707070" stroke-width="2"/>
              <path id="路径_38932" data-name="路径 38932" d="M-104.217,823.082v7.47l5.3-3.735Z" transform="translate(110.322 -823.082)" stroke="#707070" stroke-width="2"/>
              <path id="路径_38933" data-name="路径 38933" d="M-99.814,823.082v7.47l5.3-3.735Z" transform="translate(112.024 -823.082)" stroke="#707070" stroke-width="2"/>
            </g>
            <g id="组_21752" data-name="组 21752" transform="translate(224.752 1432.803)">
              <path id="路径_38934" data-name="路径 38934" d="M-126.935,1221.061v7.471l5.3-3.735Z" transform="translate(126.935 -1221.061)" stroke="#707070" stroke-width="2"/>
              <path id="路径_38935" data-name="路径 38935" d="M-122.531,1221.061v7.471l5.3-3.735Z" transform="translate(128.636 -1221.061)" stroke="#707070" stroke-width="2"/>
              <path id="路径_38936" data-name="路径 38936" d="M-118.127,1221.061v7.471l5.3-3.735Z" transform="translate(130.337 -1221.061)" stroke="#707070" stroke-width="2"/>
            </g>
            <g id="组_21753" data-name="组 21753" transform="translate(-837.061 1140.68)">
              <path id="路径_38937" data-name="路径 38937" d="M-892.841,1010.346v7.471l5.3-3.735Z" transform="translate(892.841 -1010.346)" stroke="#707070" stroke-width="2"/>
              <path id="路径_38938" data-name="路径 38938" d="M-888.437,1010.346v7.471l5.3-3.735Z" transform="translate(894.542 -1010.346)" stroke="#707070" stroke-width="2"/>
              <path id="路径_38939" data-name="路径 38939" d="M-884.034,1010.346v7.471l5.3-3.735Z" transform="translate(896.244 -1010.346)" stroke="#707070" stroke-width="2"/>
            </g>
            <g id="组_21754" data-name="组 21754" transform="translate(-32.496 812.447)">
              <path id="路径_38940" data-name="路径 38940" d="M-312.492,773.586v7.471l5.3-3.735Z" transform="translate(312.492 -773.586)" stroke="#707070" stroke-width="2"/>
              <path id="路径_38941" data-name="路径 38941" d="M-308.089,773.586v7.471l5.3-3.735Z" transform="translate(314.194 -773.586)" stroke="#707070" stroke-width="2"/>
              <path id="路径_38942" data-name="路径 38942" d="M-303.685,773.586v7.471l5.3-3.735Z" transform="translate(315.895 -773.586)" stroke="#707070" stroke-width="2"/>
            </g>
            <g id="组_21755" data-name="组 21755" transform="translate(-123.83 880.343)">
              <line id="直线_504" data-name="直线 504" y2="5.784" fill="none" stroke="#000" stroke-miterlimit="10" stroke-width="2"/>
              <line id="直线_505" data-name="直线 505" y2="5.784" transform="translate(4.659)" fill="none" stroke="#000" stroke-miterlimit="10" stroke-width="2"/>
              <line id="直线_506" data-name="直线 506" y2="5.784" transform="translate(9.318)" fill="none" stroke="#000" stroke-miterlimit="10" stroke-width="2"/>
              <line id="直线_507" data-name="直线 507" y2="5.784" transform="translate(13.977)" fill="none" stroke="#000" stroke-miterlimit="10" stroke-width="2"/>
              <line id="直线_508" data-name="直线 508" y2="5.784" transform="translate(18.636)" fill="none" stroke="#000" stroke-miterlimit="10" stroke-width="2"/>
            </g>
            <g id="组_21756" data-name="组 21756" transform="translate(122.378 871.253)">
              <line id="直线_509" data-name="直线 509" y2="5.784" fill="none" stroke="#000" stroke-miterlimit="10" stroke-width="2"/>
              <line id="直线_510" data-name="直线 510" y2="5.784" transform="translate(4.659)" fill="none" stroke="#000" stroke-miterlimit="10" stroke-width="2"/>
              <line id="直线_511" data-name="直线 511" y2="5.784" transform="translate(9.318)" fill="none" stroke="#000" stroke-miterlimit="10" stroke-width="2"/>
              <line id="直线_512" data-name="直线 512" y2="5.784" transform="translate(13.977)" fill="none" stroke="#000" stroke-miterlimit="10" stroke-width="2"/>
              <line id="直线_513" data-name="直线 513" y2="5.784" transform="translate(18.636)" fill="none" stroke="#000" stroke-miterlimit="10" stroke-width="2"/>
            </g>
            <g id="组_21757" data-name="组 21757" transform="translate(30.003 746.904)">
              <line id="直线_514" data-name="直线 514" y2="5.784" fill="none" stroke="#000" stroke-miterlimit="10" stroke-width="2"/>
              <line id="直线_515" data-name="直线 515" y2="5.784" transform="translate(4.659)" fill="none" stroke="#000" stroke-miterlimit="10" stroke-width="2"/>
              <line id="直线_516" data-name="直线 516" y2="5.784" transform="translate(9.318)" fill="none" stroke="#000" stroke-miterlimit="10" stroke-width="2"/>
              <line id="直线_517" data-name="直线 517" y2="5.784" transform="translate(13.977)" fill="none" stroke="#000" stroke-miterlimit="10" stroke-width="2"/>
              <line id="直线_518" data-name="直线 518" y2="5.784" transform="translate(18.636)" fill="none" stroke="#000" stroke-miterlimit="10" stroke-width="2"/>
            </g>
            <circle id="椭圆_1847" data-name="椭圆 1847" cx="2.117" cy="2.117" r="2.117" transform="translate(-128.43 934.341)" stroke="#707070" stroke-width="2"/>
            <path id="路径_38943" data-name="路径 38943" d="M-397.294,831.161a3.322,3.322,0,0,1-3.323,3.322,3.322,3.322,0,0,1-3.322-3.322,3.321,3.321,0,0,1,3.322-3.322A3.322,3.322,0,0,1-397.294,831.161Z" transform="translate(244.666 59.822)" stroke="#707070" stroke-width="2"/>
            <path id="路径_38944" data-name="路径 38944" d="M-367.4,882.6a3.321,3.321,0,0,1-3.322,3.322,3.322,3.322,0,0,1-3.322-3.322,3.322,3.322,0,0,1,3.322-3.322A3.321,3.321,0,0,1-367.4,882.6Z" transform="translate(256.214 79.694)" stroke="#707070" stroke-width="2"/>
            <path id="路径_38945" data-name="路径 38945" d="M-378.063,1052.92a3.321,3.321,0,0,1-3.322,3.322,3.322,3.322,0,0,1-3.322-3.322,3.322,3.322,0,0,1,3.322-3.323A3.322,3.322,0,0,1-378.063,1052.92Z" transform="translate(252.097 145.498)" stroke="#707070" stroke-width="2"/>
            <path id="路径_38946" data-name="路径 38946" d="M-455.338,1130.679a3.321,3.321,0,0,1-3.322,3.322,3.322,3.322,0,0,1-3.322-3.322,3.321,3.321,0,0,1,3.322-3.322A3.32,3.32,0,0,1-455.338,1130.679Z" transform="translate(222.242 175.54)" stroke="#707070" stroke-width="2"/>
            <path id="路径_38947" data-name="路径 38947" d="M-516.349,1153.575a3.322,3.322,0,0,1-3.322,3.322,3.322,3.322,0,0,1-3.323-3.322,3.323,3.323,0,0,1,3.323-3.322A3.322,3.322,0,0,1-516.349,1153.575Z" transform="translate(198.669 184.386)" stroke="#707070" stroke-width="2"/>
            <path id="路径_38948" data-name="路径 38948" d="M-274.724,1061.89a3.322,3.322,0,0,1-3.323,3.322,3.322,3.322,0,0,1-3.322-3.322,3.321,3.321,0,0,1,3.322-3.322A3.322,3.322,0,0,1-274.724,1061.89Z" transform="translate(292.021 148.964)" stroke="#707070" stroke-width="2"/>
            <path id="路径_38949" data-name="路径 38949" d="M-286.477,754.355a3.322,3.322,0,0,1-3.322,3.322,3.322,3.322,0,0,1-3.323-3.322,3.321,3.321,0,0,1,3.323-3.322A3.321,3.321,0,0,1-286.477,754.355Z" transform="translate(287.48 30.148)" stroke="#707070" stroke-width="2"/>
            <circle id="椭圆_1848" data-name="椭圆 1848" cx="3.322" cy="3.322" r="3.322" transform="translate(-189.854 825.709)" stroke="#707070" stroke-width="2"/>
            <path id="路径_38950" data-name="路径 38950" d="M-704.924,802.985a3.322,3.322,0,0,1-3.322,3.323,3.322,3.322,0,0,1-3.322-3.323,3.321,3.321,0,0,1,3.322-3.322A3.322,3.322,0,0,1-704.924,802.985Z" transform="translate(125.815 48.936)" stroke="#707070" stroke-width="2"/>
            <path id="路径_38951" data-name="路径 38951" d="M-464.174,755.254a3.322,3.322,0,0,1-3.322,3.323,3.323,3.323,0,0,1-3.323-3.323,3.322,3.322,0,0,1,3.323-3.322A3.322,3.322,0,0,1-464.174,755.254Z" transform="translate(218.827 30.495)" stroke="#707070" stroke-width="2"/>
            <path id="路径_38952" data-name="路径 38952" d="M-650.448,765.215a3.322,3.322,0,0,1-3.322,3.322,3.321,3.321,0,0,1-3.322-3.322,3.32,3.32,0,0,1,3.322-3.322A3.321,3.321,0,0,1-650.448,765.215Z" transform="translate(146.861 34.344)" stroke="#707070" stroke-width="2"/>
            <path id="路径_38953" data-name="路径 38953" d="M-731.548,833.557a3.322,3.322,0,0,1-3.322,3.322,3.322,3.322,0,0,1-3.323-3.322,3.322,3.322,0,0,1,3.323-3.322A3.322,3.322,0,0,1-731.548,833.557Z" transform="translate(115.528 60.747)" stroke="#707070" stroke-width="2"/>
            <path id="路径_38954" data-name="路径 38954" d="M-859.022,882.95a3.322,3.322,0,0,1-3.322,3.322,3.323,3.323,0,0,1-3.323-3.322,3.322,3.322,0,0,1,3.323-3.322A3.321,3.321,0,0,1-859.022,882.95Z" transform="translate(66.278 79.83)" stroke="#707070" stroke-width="2"/>
            <path id="路径_38955" data-name="路径 38955" d="M-841.427,972.544a3.322,3.322,0,0,1-3.322,3.322,3.322,3.322,0,0,1-3.323-3.322,3.323,3.323,0,0,1,3.323-3.322A3.322,3.322,0,0,1-841.427,972.544Z" transform="translate(73.076 114.445)" stroke="#707070" stroke-width="2"/>
            <path id="路径_38956" data-name="路径 38956" d="M-911.991,1011.815a3.321,3.321,0,0,1-3.322,3.322,3.321,3.321,0,0,1-3.322-3.322,3.322,3.322,0,0,1,3.322-3.322A3.322,3.322,0,0,1-911.991,1011.815Z" transform="translate(45.815 129.617)" stroke="#707070" stroke-width="2"/>
            <path id="路径_38957" data-name="路径 38957" d="M-961.464,1148.7a3.323,3.323,0,0,1-3.323,3.322,3.322,3.322,0,0,1-3.322-3.322,3.322,3.322,0,0,1,3.322-3.322A3.322,3.322,0,0,1-961.464,1148.7Z" transform="translate(26.7 182.504)" stroke="#707070" stroke-width="2"/>
            <path id="路径_38958" data-name="路径 38958" d="M-631.67,1141.309a3.322,3.322,0,0,1-3.323,3.322,3.321,3.321,0,0,1-3.322-3.322,3.322,3.322,0,0,1,3.322-3.322A3.323,3.323,0,0,1-631.67,1141.309Z" transform="translate(154.115 179.647)" stroke="#707070" stroke-width="2"/>
            <path id="路径_38959" data-name="路径 38959" d="M-575.871,1156.732a3.322,3.322,0,0,1-3.322,3.322,3.321,3.321,0,0,1-3.322-3.322,3.321,3.321,0,0,1,3.322-3.322A3.322,3.322,0,0,1-575.871,1156.732Z" transform="translate(175.674 185.606)" stroke="#707070" stroke-width="2"/>
            <path id="路径_38960" data-name="路径 38960" d="M-369.8,688.6a3.322,3.322,0,0,1-3.322,3.323,3.322,3.322,0,0,1-3.322-3.323,3.322,3.322,0,0,1,3.322-3.322A3.322,3.322,0,0,1-369.8,688.6Z" transform="translate(255.289 4.743)" stroke="#707070" stroke-width="2"/>
            <path id="路径_38961" data-name="路径 38961" d="M-266.779,988.172a3.322,3.322,0,0,1-3.322,3.323,3.323,3.323,0,0,1-3.323-3.323,3.322,3.322,0,0,1,3.323-3.322A3.322,3.322,0,0,1-266.779,988.172Z" transform="translate(295.09 120.483)" stroke="#707070" stroke-width="2"/>
            <path id="路径_38962" data-name="路径 38962" d="M-257.235,801.3a1.727,1.727,0,0,1-1.727,1.726,1.727,1.727,0,0,1-1.727-1.726,1.728,1.728,0,0,1,1.727-1.727A1.728,1.728,0,0,1-257.235,801.3Z" transform="translate(300.01 48.899)" stroke="#707070" stroke-width="2"/>
            <path id="路径_38963" data-name="路径 38963" d="M-338.038,863.518a1.727,1.727,0,0,1-1.727,1.728,1.727,1.727,0,0,1-1.727-1.728,1.726,1.726,0,0,1,1.727-1.726A1.726,1.726,0,0,1-338.038,863.518Z" transform="translate(268.792 72.939)" stroke="#707070" stroke-width="2"/>
            <path id="路径_38964" data-name="路径 38964" d="M-280.937,889.959a1.727,1.727,0,0,1-1.726,1.727,1.728,1.728,0,0,1-1.727-1.727,1.728,1.728,0,0,1,1.727-1.727A1.727,1.727,0,0,1-280.937,889.959Z" transform="translate(290.854 83.155)" stroke="#707070" stroke-width="2"/>
            <g id="组_21759" data-name="组 21759" transform="translate(38.854 945.011)">
              <g id="组_21758" data-name="组 21758">
                <path id="路径_38965" data-name="路径 38965" d="M-232.867,925.412h-.331l.019-1.928h.311q.842,0,1.672-.053l.121,1.924C-231.666,925.393-232.265,925.411-232.867,925.412Zm-8.69-1.366c-.677-.219-1.345-.463-2-.732l.735-1.783c.607.251,1.227.477,1.858.682Zm18.757-.486-.689-1.8c.617-.236,1.224-.495,1.816-.775l.825,1.743Q-221.8,923.182-222.8,923.56Zm-28.017-4.6q-.819-.678-1.585-1.414l1.336-1.389q.713.686,1.475,1.317Zm37-.957-1.306-1.418q.728-.67,1.41-1.393l1.4,1.32C-212.792,917.029-213.3,917.525-213.817,918.005Zm-43.745-7.172q-.514-.927-.957-1.9l1.755-.8c.273.6.573,1.189.889,1.765Zm50.064-1.293-1.736-.843c.287-.592.555-1.2.8-1.812l1.793.708Q-207.037,908.586-207.5,909.54Zm-53.34-8.748q-.129-1.044-.189-2.11l1.924-.105c.037.664.094,1.323.177,1.974Zm56.086-1.453-1.924-.144c.049-.653.075-1.313.075-1.978h1.928C-204.672,897.932-204.7,898.638-204.751,899.339Zm-2.265-6.8c-.116-.652-.258-1.3-.423-1.93l1.867-.487q.266,1.025.453,2.08Zm-51.311-1.809-1.867-.474q.264-1.036.6-2.038l1.826.614Q-258.082,889.762-258.328,890.726Zm47.778-7.371c-.348-.561-.72-1.108-1.106-1.639l1.554-1.138q.628.855,1.191,1.761Zm-43.6-1.536-1.56-1.134q.626-.859,1.312-1.672l1.472,1.245C-253.354,880.764-253.76,881.282-254.15,881.819Zm36.927-5.7q-.79-.591-1.628-1.119l1.027-1.63c.6.379,1.188.782,1.752,1.2Zm-29.769-1.051-1.036-1.628q.892-.57,1.829-1.073l.915,1.7Q-246.157,874.532-246.992,875.066Zm20.912-3.23c-.634-.169-1.275-.316-1.926-.437l.354-1.9q1.05.2,2.073.471Zm-11.771-.413-.36-1.894c.69-.132,1.391-.24,2.1-.322l.223,1.915C-236.554,871.2-237.206,871.3-237.852,871.422Z" transform="translate(261.026 -869.207)" fill="none" stroke="#000" stroke-miterlimit="10" stroke-width="2"/>
              </g>
              <circle id="椭圆_1849" data-name="椭圆 1849" cx="20.966" cy="20.966" r="20.966" transform="matrix(0.924, -0.383, 0.383, 0.924, 0.765, 16.663)" fill="none" stroke="#000" stroke-miterlimit="10" stroke-width="2"/>
              <path id="路径_38966" data-name="路径 38966" d="M-225.206,892.791a12.129,12.129,0,0,1-12.129,12.129,12.129,12.129,0,0,1-12.129-12.129,12.129,12.129,0,0,1,12.129-12.129A12.129,12.129,0,0,1-225.206,892.791Z" transform="translate(265.493 -864.781)" fill="none" stroke="#000" stroke-miterlimit="10" stroke-width="2"/>
            </g>
            <g id="组_21761" data-name="组 21761" transform="translate(-963.607 805.011)">
              <g id="组_21760" data-name="组 21760">
                <path id="路径_38967" data-name="路径 38967" d="M-943.534,849.232l-.478,0,.028-2.778h.448q1.212,0,2.409-.075l.173,2.773C-941.806,849.2-942.669,849.231-943.534,849.232Zm-12.526-1.967c-.975-.316-1.938-.668-2.879-1.056l1.058-2.569q1.314.541,2.678.982Zm27.035-.7-.994-2.594q1.335-.512,2.619-1.119l1.188,2.512Q-927.591,846.016-929.025,846.563Zm-40.381-6.63q-1.179-.975-2.285-2.038l1.927-2q1.03.99,2.128,1.9Zm53.327-1.378-1.883-2.043q1.048-.967,2.032-2.01l2.024,1.9C-914.6,837.148-915.33,837.864-916.079,838.556Zm-63.05-10.337q-.74-1.337-1.378-2.734l2.529-1.153c.394.866.825,1.715,1.281,2.544Zm72.157-1.865-2.5-1.213q.624-1.281,1.151-2.612l2.583,1.02Q-906.307,824.979-906.972,826.354Zm-76.877-12.608c-.125-1-.218-2.02-.272-3.043l2.773-.151c.054.958.136,1.908.255,2.846Zm80.835-2.093-2.773-.209q.106-1.41.108-2.85h2.78Q-902.9,810.137-903.014,811.654Zm-3.263-9.808q-.254-1.408-.611-2.781l2.692-.7c.255.984.475,1.983.654,2.995Zm-73.955-2.606-2.692-.683q.378-1.493.865-2.938l2.633.884Q-979.878,797.85-980.232,799.239Zm68.861-10.625c-.5-.808-1.037-1.6-1.6-2.361l2.242-1.642q.9,1.233,1.715,2.537Zm-62.84-2.214-2.247-1.635q.9-1.239,1.89-2.41l2.121,1.794Q-973.371,785.243-974.211,786.4Zm53.223-8.218q-1.14-.851-2.347-1.614l1.482-2.35c.868.548,1.712,1.127,2.526,1.736Zm-42.906-1.515-1.493-2.344q1.287-.822,2.636-1.547l1.318,2.446Q-962.692,775.9-963.894,776.666Zm30.139-4.655q-1.368-.366-2.775-.629l.51-2.732q1.514.283,2.987.678Zm-16.965-.6-.521-2.73q1.493-.285,3.022-.463l.32,2.76C-948.851,771.092-949.789,771.236-950.72,771.415Z" transform="translate(984.121 -768.222)" fill="none" stroke="#000" stroke-miterlimit="10" stroke-width="2"/>
              </g>
              <circle id="椭圆_1850" data-name="椭圆 1850" cx="30.218" cy="30.218" r="30.218" transform="translate(4.231 62.838) rotate(-76.717)" fill="none" stroke="#000" stroke-miterlimit="10" stroke-width="2"/>
              <circle id="椭圆_1851" data-name="椭圆 1851" cx="17.482" cy="17.482" r="17.482" transform="translate(19.552 53.369) rotate(-76.717)" fill="none" stroke="#000" stroke-miterlimit="10" stroke-width="2"/>
            </g>
            <g id="组_21763" data-name="组 21763" transform="translate(86.431 1294.196)">
              <g id="组_21762" data-name="组 21762">
                <path id="路径_38968" data-name="路径 38968" d="M-174.25,1225.785l-.617,0,.035-3.592.579,0q1.568,0,3.114-.1l.225,3.584C-172.015,1225.749-173.131,1225.784-174.25,1225.785Zm-16.19-2.542c-1.259-.409-2.5-.862-3.721-1.364l1.368-3.322q1.7.7,3.462,1.27Zm34.943-.907-1.284-3.354q1.726-.659,3.385-1.445l1.536,3.248Q-153.643,1221.628-155.5,1222.336Zm-52.192-8.568q-1.524-1.26-2.953-2.634l2.49-2.588q1.331,1.277,2.751,2.454Zm68.926-1.783-2.434-2.641q1.358-1.247,2.627-2.6l2.616,2.458C-136.855,1210.168-137.795,1211.093-138.762,1211.985Zm-81.492-13.359q-.959-1.728-1.781-3.534l3.268-1.49c.509,1.119,1.067,2.217,1.655,3.289Zm93.262-2.411-3.234-1.568c.537-1.1,1.036-2.229,1.488-3.376l3.338,1.318C-125.887,1193.821-126.421,1195.032-126.992,1196.215Zm-99.365-16.3q-.243-1.946-.351-3.932l3.584-.2c.071,1.238.176,2.466.33,3.679Zm104.482-2.706-3.585-.271q.137-1.822.14-3.683h3.592Q-121.728,1175.257-121.875,1177.214Zm-4.22-12.677q-.324-1.82-.789-3.595l3.48-.905q.495,1.909.846,3.872Zm-95.587-3.369-3.48-.884q.491-1.928,1.12-3.8l3.4,1.144Q-221.224,1159.372-221.682,1161.169Zm89-13.733c-.649-1.045-1.341-2.061-2.063-3.051l2.9-2.121q1.167,1.593,2.217,3.279Zm-81.222-2.861-2.9-2.111q1.162-1.6,2.441-3.115l2.742,2.32Q-212.814,1143.079-213.9,1144.574Zm68.792-10.622c-.982-.733-2-1.428-3.033-2.085l1.915-3.037q1.682,1.061,3.265,2.243Zm-55.457-1.959-1.93-3.031q1.664-1.059,3.406-2l1.7,3.161Q-199.01,1131-200.564,1131.993Zm38.955-6.017q-1.768-.474-3.588-.814l.659-3.531q1.959.364,3.862.876Zm-21.928-.769-.674-3.528q1.932-.368,3.908-.6l.413,3.565C-181.121,1124.79-182.334,1124.975-183.537,1125.207Z" transform="translate(226.708 -1121.081)" fill="none" stroke="#000" stroke-miterlimit="10" stroke-width="2"/>
              </g>
              <circle id="椭圆_1852" data-name="椭圆 1852" cx="39.057" cy="39.057" r="39.057" transform="translate(13.397 13.121)" fill="none" stroke="#000" stroke-miterlimit="10" stroke-width="2"/>
              <circle id="椭圆_1853" data-name="椭圆 1853" cx="22.596" cy="22.596" r="22.596" transform="translate(29.858 29.582)" fill="none" stroke="#000" stroke-miterlimit="10" stroke-width="2"/>
            </g>
            <g id="组_21765" data-name="组 21765" transform="translate(-877.611 1223.996)">
              <g id="组_21764" data-name="组 21764">
                <path id="路径_38969" data-name="路径 38969" d="M-864.322,1185.744l-.681,0,.039-3.954.638,0q1.726,0,3.43-.108l.247,3.948C-861.863,1185.7-863.091,1185.742-864.322,1185.744Zm-17.828-2.8c-1.386-.449-2.757-.95-4.1-1.5l1.507-3.659q1.872.771,3.811,1.4Zm38.479-1-1.414-3.692q1.9-.728,3.728-1.591l1.691,3.577Q-841.631,1181.166-843.671,1181.945Zm-57.474-9.435q-1.68-1.387-3.251-2.9l2.742-2.85q1.464,1.408,3.028,2.7Zm75.9-1.962-2.68-2.909q1.5-1.374,2.893-2.86l2.881,2.707C-823.144,1168.546-824.179,1169.565-825.245,1170.548Zm-89.738-14.711q-1.054-1.9-1.962-3.891l3.6-1.641c.56,1.233,1.174,2.442,1.823,3.621Zm102.7-2.656-3.562-1.726c.591-1.215,1.14-2.454,1.637-3.717l3.678,1.452Q-811.336,1151.224-812.283,1153.181Zm-109.42-17.943c-.177-1.429-.309-2.874-.387-4.33l3.947-.216c.078,1.364.194,2.716.363,4.052Zm115.054-2.979-3.947-.3q.152-2.007.154-4.057h3.955Q-806.487,1130.1-806.649,1132.259Zm-4.646-13.961q-.36-2-.869-3.958l3.832-1q.545,2.1.93,4.265Zm-105.26-3.708-3.832-.975q.539-2.123,1.232-4.18l3.746,1.259Q-916.05,1112.611-916.554,1114.589Zm98.011-15.124q-1.073-1.726-2.271-3.359l3.19-2.337q1.285,1.755,2.441,3.612Zm-89.442-3.151-3.2-2.325q1.279-1.764,2.688-3.43l3.02,2.554Q-906.789,1094.669-907.985,1096.315Zm75.754-11.7q-1.622-1.21-3.341-2.3l2.109-3.345q1.853,1.168,3.6,2.47Zm-61.07-2.157-2.124-3.337q1.83-1.166,3.75-2.2l1.877,3.48Q-891.588,1081.371-893.3,1082.461Zm42.9-6.625q-1.947-.522-3.951-.9l.727-3.89q2.154.4,4.252.966Zm-24.146-.847-.742-3.886c1.417-.27,2.855-.491,4.3-.659l.456,3.927Q-872.567,1074.607-874.549,1074.988Z" transform="translate(922.09 -1070.444)" fill="none" stroke="#000" stroke-miterlimit="10" stroke-width="2"/>
              </g>
              <circle id="椭圆_1854" data-name="椭圆 1854" cx="43.009" cy="43.009" r="43.009" transform="translate(14.754 14.45)" fill="none" stroke="#000" stroke-miterlimit="10" stroke-width="2"/>
              <circle id="椭圆_1855" data-name="椭圆 1855" cx="24.883" cy="24.883" r="24.883" transform="translate(22.574 57.459) rotate(-45)" fill="none" stroke="#000" stroke-miterlimit="10" stroke-width="2"/>
            </g>
            <path id="路径_38970" data-name="路径 38970" d="M-371.652,885.55h60.407l13.918-13.918h23.355l24.741,24.741h59.122" transform="translate(257.14 76.741)" fill="none" stroke="#000" stroke-miterlimit="10" stroke-width="2"/>
            <path id="路径_38971" data-name="路径 38971" d="M-234.8,890.764a4.614,4.614,0,0,1-4.614,4.614,4.614,4.614,0,0,1-4.615-4.614,4.614,4.614,0,0,1,4.615-4.614A4.614,4.614,0,0,1-234.8,890.764Z" transform="translate(306.447 82.35)" stroke="#707070" stroke-width="2"/>
            <path id="路径_38972" data-name="路径 38972" d="M-380.165,863.037h55.34l93.244,93.244H-25.52" transform="translate(253.851 73.421)" fill="none" stroke="#000" stroke-miterlimit="10" stroke-width="2"/>
            <path id="路径_38973" data-name="路径 38973" d="M-191.072,926.825a2.8,2.8,0,0,1-2.8,2.8,2.8,2.8,0,0,1-2.8-2.8,2.8,2.8,0,0,1,2.8-2.795A2.8,2.8,0,0,1-191.072,926.825Z" transform="translate(324.746 96.985)" fill="none" stroke="#000" stroke-miterlimit="10" stroke-width="2"/>
            <path id="路径_38974" data-name="路径 38974" d="M-292.52,954.406a2.8,2.8,0,0,1-2.8,2.8,2.8,2.8,0,0,1-2.795-2.8,2.8,2.8,0,0,1,2.795-2.8A2.8,2.8,0,0,1-292.52,954.406Z" transform="translate(285.553 107.64)" fill="none" stroke="#000" stroke-miterlimit="10" stroke-width="2"/>
            <path id="路径_38975" data-name="路径 38975" d="M-198.025,942.093a2.8,2.8,0,0,1-2.8,2.8,2.8,2.8,0,0,1-2.8-2.8,2.8,2.8,0,0,1,2.8-2.8A2.8,2.8,0,0,1-198.025,942.093Z" transform="translate(322.06 102.883)" fill="none" stroke="#000" stroke-miterlimit="10" stroke-width="2"/>
            <path id="路径_38976" data-name="路径 38976" d="M-94.954,1043.264a2.8,2.8,0,0,1-2.8,2.795,2.8,2.8,0,0,1-2.8-2.795,2.8,2.8,0,0,1,2.8-2.8A2.8,2.8,0,0,1-94.954,1043.264Z" transform="translate(361.881 141.971)" fill="none" stroke="#000" stroke-miterlimit="10" stroke-width="2"/>
            <path id="路径_38977" data-name="路径 38977" d="M-184.589,926.825a2.8,2.8,0,0,1-2.8,2.8,2.8,2.8,0,0,1-2.8-2.8,2.8,2.8,0,0,1,2.8-2.795A2.8,2.8,0,0,1-184.589,926.825Z" transform="translate(327.251 96.985)" fill="none" stroke="#000" stroke-miterlimit="10" stroke-width="2"/>
            <path id="路径_38978" data-name="路径 38978" d="M-178.108,926.825a2.8,2.8,0,0,1-2.795,2.8,2.8,2.8,0,0,1-2.8-2.8,2.8,2.8,0,0,1,2.8-2.795A2.794,2.794,0,0,1-178.108,926.825Z" transform="translate(329.755 96.985)" fill="none" stroke="#000" stroke-miterlimit="10" stroke-width="2"/>
            <path id="路径_38979" data-name="路径 38979" d="M-124.323,927.6v7.471l5.3-3.735Z" transform="translate(352.695 98.365)" stroke="#707070" stroke-width="2"/>
            <path id="路径_38980" data-name="路径 38980" d="M-172.871,930.3a78.954,78.954,0,0,1,78.954,78.953,78.953,78.953,0,0,1-78.954,78.954" transform="translate(333.939 99.406)" fill="none" stroke="#000" stroke-miterlimit="10" stroke-width="2"/>
            <circle id="椭圆_1856" data-name="椭圆 1856" cx="4.338" cy="4.338" r="4.338" transform="translate(156.879 1183.384)" fill="none" stroke="#000" stroke-miterlimit="10" stroke-width="2"/>
            <circle id="椭圆_1857" data-name="椭圆 1857" cx="7.312" cy="7.312" r="7.312" transform="translate(105.104 1130.986)" fill="none" stroke="#000" stroke-miterlimit="10" stroke-width="2"/>
            <circle id="椭圆_1858" data-name="椭圆 1858" cx="7.312" cy="7.312" r="7.312" transform="translate(-54.293 1306.331)" fill="none" stroke="#000" stroke-miterlimit="10" stroke-width="2"/>
            <path id="路径_38981" data-name="路径 38981" d="M-382.31,1051.993h105.547l38.1,38.1H-139.4l15-15h46.693l39.8,39.8H22.542" transform="translate(253.023 146.424)" fill="none" stroke="#000" stroke-miterlimit="10" stroke-width="2"/>
            <g id="组_21766" data-name="组 21766" transform="translate(138.424 1186.064)">
              <rect id="矩形_2307" data-name="矩形 2307" width="3.314" height="3.314" transform="translate(11.567)" stroke="#707070" stroke-width="2"/>
              <rect id="矩形_2308" data-name="矩形 2308" width="3.314" height="3.314" transform="translate(5.784)" stroke="#707070" stroke-width="2"/>
              <rect id="矩形_2309" data-name="矩形 2309" width="3.314" height="3.314" transform="translate(0)" stroke="#707070" stroke-width="2"/>
            </g>
            <path id="路径_38982" data-name="路径 38982" d="M-294.67,956.409l15.095-15.095H-168.44" transform="translate(286.882 103.663)" fill="none" stroke="#000" stroke-miterlimit="10" stroke-width="2"/>
            <path id="路径_38983" data-name="路径 38983" d="M-146.411,1037.682l24.662,24.662h23.913l15.973-15.973" transform="translate(344.162 140.894)" fill="none" stroke="#000" stroke-miterlimit="10" stroke-width="2"/>
            <path id="路径_38984" data-name="路径 38984" d="M-360.06,994.656h123.978l29.642,29.643h57.113L-93.1,968.067h-89.381" transform="translate(261.619 113.999)" fill="none" stroke="#000" stroke-miterlimit="10" stroke-width="2"/>
            <path id="路径_38985" data-name="路径 38985" d="M-230.388,972.844v-7.471l-5.3,3.735Z" transform="translate(309.669 112.958)" stroke="#707070" stroke-width="2"/>
            <path id="路径_38986" data-name="路径 38986" d="M-224.13,972.844v-7.471l-5.3,3.735Z" transform="translate(312.087 112.958)" stroke="#707070" stroke-width="2"/>
            <path id="路径_38987" data-name="路径 38987" d="M-217.872,972.844v-7.471l-5.3,3.735Z" transform="translate(314.504 112.958)" stroke="#707070" stroke-width="2"/>
            <path id="路径_38988" data-name="路径 38988" d="M-211.614,972.844v-7.471l-5.3,3.735Z" transform="translate(316.922 112.958)" stroke="#707070" stroke-width="2"/>
            <path id="路径_38989" data-name="路径 38989" d="M-332.364,761.7h57.626l29.694-29.694h72.73" transform="translate(272.319 22.798)" fill="none" stroke="#000" stroke-miterlimit="10" stroke-width="2"/>
            <path id="路径_38990" data-name="路径 38990" d="M-423.6,797.957c1.446-1.367,44.528-44.528,44.528-44.528h59.458" transform="translate(237.07 31.074)" fill="none" stroke="#000" stroke-miterlimit="10" stroke-width="2"/>
            <path id="路径_38991" data-name="路径 38991" d="M-368.291,753.429l31.68,31.68h46.354" transform="translate(258.439 31.073)" fill="none" stroke="#000" stroke-miterlimit="10" stroke-width="2"/>
            <g id="组_21767" data-name="组 21767" transform="translate(-82.426 782.7)">
              <rect id="矩形_2310" data-name="矩形 2310" width="3.605" height="3.605" fill="none" stroke="#000" stroke-miterlimit="10" stroke-width="2"/>
              <rect id="矩形_2311" data-name="矩形 2311" width="3.605" height="3.605" transform="translate(6.195)" fill="none" stroke="#000" stroke-miterlimit="10" stroke-width="2"/>
              <rect id="矩形_2312" data-name="矩形 2312" width="3.605" height="3.605" transform="translate(12.39)" fill="none" stroke="#000" stroke-miterlimit="10" stroke-width="2"/>
              <rect id="矩形_2313" data-name="矩形 2313" width="3.605" height="3.605" transform="translate(18.584)" fill="none" stroke="#000" stroke-miterlimit="10" stroke-width="2"/>
            </g>
            <g id="组_21768" data-name="组 21768" transform="translate(-88.428 1136.064)">
              <path id="路径_38992" data-name="路径 38992" d="M-328.443,1025.326a12.2,12.2,0,0,1-12.2,12.2,12.2,12.2,0,0,1-12.2-12.2,12.2,12.2,0,0,1,12.2-12.2A12.2,12.2,0,0,1-328.443,1025.326Z" transform="translate(352.837 -1004.656)" fill="none" stroke="#000" stroke-miterlimit="10" stroke-width="2"/>
              <line id="直线_519" data-name="直线 519" y2="41.253" transform="translate(12.197)" fill="none" stroke="#000" stroke-miterlimit="10" stroke-width="2"/>
            </g>
            <g id="组_21769" data-name="组 21769" transform="translate(-978.67 1156.69)">
              <path id="路径_38993" data-name="路径 38993" d="M-970.593,1040.205a12.2,12.2,0,0,1-12.2,12.2,12.2,12.2,0,0,1-12.2-12.2,12.2,12.2,0,0,1,12.2-12.2A12.2,12.2,0,0,1-970.593,1040.205Z" transform="translate(994.986 -1019.534)" fill="none" stroke="#000" stroke-miterlimit="10" stroke-width="2"/>
              <line id="直线_520" data-name="直线 520" y2="41.253" transform="translate(12.196)" fill="none" stroke="#000" stroke-miterlimit="10" stroke-width="2"/>
            </g>
            <g id="组_21770" data-name="组 21770" transform="translate(128.821 673)">
              <path id="路径_38994" data-name="路径 38994" d="M-171.737,691.309a12.2,12.2,0,0,1-12.2,12.2,12.2,12.2,0,0,1-12.2-12.2,12.2,12.2,0,0,1,12.2-12.2A12.2,12.2,0,0,1-171.737,691.309Z" transform="translate(196.131 -670.639)" fill="none" stroke="#000" stroke-miterlimit="10" stroke-width="2"/>
              <line id="直线_521" data-name="直线 521" y2="41.253" transform="translate(12.197)" fill="none" stroke="#000" stroke-miterlimit="10" stroke-width="2"/>
            </g>
            <g id="组_21771" data-name="组 21771" transform="translate(-771.673 844.767)">
              <path id="路径_38995" data-name="路径 38995" d="M-821.282,815.208a12.2,12.2,0,0,1-12.2,12.2,12.2,12.2,0,0,1-12.2-12.2,12.2,12.2,0,0,1,12.2-12.2A12.2,12.2,0,0,1-821.282,815.208Z" transform="translate(845.675 -794.537)" fill="none" stroke="#000" stroke-miterlimit="10" stroke-width="2"/>
              <line id="直线_522" data-name="直线 522" y2="41.253" transform="translate(12.196)" fill="none" stroke="#000" stroke-miterlimit="10" stroke-width="2"/>
            </g>
            <path id="路径_38996" data-name="路径 38996" d="M-279.668,1060.4l50.848,50.848h71.005" transform="translate(292.678 149.673)" fill="none" stroke="#000" stroke-miterlimit="10" stroke-width="2"/>
            <g id="组_21776" data-name="组 21776" transform="translate(138.956 1258.061)">
              <g id="组_21772" data-name="组 21772">
                <line id="直线_523" data-name="直线 523" x2="5.517" transform="translate(0 2.851)" fill="none" stroke="#000" stroke-miterlimit="10" stroke-width="2"/>
                <rect id="矩形_2314" data-name="矩形 2314" width="5.057" height="5.058" transform="translate(5.426)" fill="none" stroke="#000" stroke-miterlimit="10" stroke-width="2"/>
              </g>
              <g id="组_21773" data-name="组 21773" transform="translate(10.483)">
                <line id="直线_524" data-name="直线 524" x2="5.517" transform="translate(0 2.851)" fill="none" stroke="#000" stroke-miterlimit="10" stroke-width="2"/>
                <rect id="矩形_2315" data-name="矩形 2315" width="5.058" height="5.058" transform="translate(5.426)" fill="none" stroke="#000" stroke-miterlimit="10" stroke-width="2"/>
              </g>
              <g id="组_21774" data-name="组 21774" transform="translate(20.966)">
                <line id="直线_525" data-name="直线 525" x2="5.517" transform="translate(0 2.851)" fill="none" stroke="#000" stroke-miterlimit="10" stroke-width="2"/>
                <rect id="矩形_2316" data-name="矩形 2316" width="5.058" height="5.058" transform="translate(5.425)" fill="none" stroke="#000" stroke-miterlimit="10" stroke-width="2"/>
              </g>
              <g id="组_21775" data-name="组 21775" transform="translate(31.449)">
                <line id="直线_526" data-name="直线 526" x2="5.517" transform="translate(0 2.851)" fill="none" stroke="#000" stroke-miterlimit="10" stroke-width="2"/>
                <line id="直线_527" data-name="直线 527" x2="5.517" transform="translate(10.483 2.851)" fill="none" stroke="#000" stroke-miterlimit="10" stroke-width="2"/>
                <rect id="矩形_2317" data-name="矩形 2317" width="5.058" height="5.058" transform="translate(5.425)" fill="none" stroke="#000" stroke-miterlimit="10" stroke-width="2"/>
              </g>
            </g>
            <g id="组_21781" data-name="组 21781" transform="translate(-321.002 1339.015)">
              <g id="组_21777" data-name="组 21777">
                <path id="路径_38997" data-name="路径 38997" d="M-520.6,1153.41l85.44,85.44,18.856-.012h5.517" transform="translate(520.597 -1153.41)" fill="none" stroke="#000" stroke-miterlimit="10" stroke-width="2"/>
                <rect id="矩形_2318" data-name="矩形 2318" width="5.058" height="5.058" transform="translate(109.721 82.577)" fill="none" stroke="#000" stroke-miterlimit="10" stroke-width="2"/>
              </g>
              <g id="组_21778" data-name="组 21778" transform="translate(114.779 82.577)">
                <line id="直线_528" data-name="直线 528" x2="5.517" transform="translate(0 2.851)" fill="none" stroke="#000" stroke-miterlimit="10" stroke-width="2"/>
                <rect id="矩形_2319" data-name="矩形 2319" width="5.058" height="5.058" transform="translate(5.425)" fill="none" stroke="#000" stroke-miterlimit="10" stroke-width="2"/>
              </g>
              <g id="组_21779" data-name="组 21779" transform="translate(125.262 82.577)">
                <line id="直线_529" data-name="直线 529" x2="5.517" transform="translate(0 2.851)" fill="none" stroke="#000" stroke-miterlimit="10" stroke-width="2"/>
                <rect id="矩形_2320" data-name="矩形 2320" width="5.057" height="5.058" transform="translate(5.426)" fill="none" stroke="#000" stroke-miterlimit="10" stroke-width="2"/>
              </g>
              <g id="组_21780" data-name="组 21780" transform="translate(135.745 59.824)">
                <line id="直线_530" data-name="直线 530" x2="5.518" transform="translate(0 25.604)" fill="none" stroke="#000" stroke-miterlimit="10" stroke-width="2"/>
                <path id="路径_38998" data-name="路径 38998" d="M-415.12,1222.165h5.517l20,.012,25.616-25.616h134.3l37.7,37.7h176.4" transform="translate(425.603 -1196.562)" fill="none" stroke="#000" stroke-miterlimit="10" stroke-width="2"/>
                <rect id="矩形_2321" data-name="矩形 2321" width="5.058" height="5.058" transform="translate(5.426 22.753)" fill="none" stroke="#000" stroke-miterlimit="10" stroke-width="2"/>
              </g>
            </g>
            <path id="路径_38999" data-name="路径 38999" d="M-408.625,1089.248l34.237,34.237h55.3l67.157,67.157h95.5" transform="translate(242.856 160.817)" fill="none" stroke="#000" stroke-miterlimit="10" stroke-width="2"/>
            <path id="路径_39000" data-name="路径 39000" d="M-459.585,1131.442l32.033,32.033h131.684l36.119-36.119h75.437" transform="translate(223.168 175.54)" fill="none" stroke="#000" stroke-miterlimit="10" stroke-width="2"/>
            <path id="路径_39001" data-name="路径 39001" d="M-404.48,1153.41l20.736,20.736H-337" transform="translate(244.457 185.606)" fill="none" stroke="#000" stroke-miterlimit="10" stroke-width="2"/>
            <path id="路径_39002" data-name="路径 39002" d="M-135.047,1215.039" transform="translate(348.552 209.416)" fill="none" stroke="#000" stroke-miterlimit="10" stroke-width="2"/>
            <path id="路径_39003" data-name="路径 39003" d="M-468.423,768.91l50.519-50.519h117.528" transform="translate(219.753 17.537)" fill="none" stroke="#000" stroke-miterlimit="10" stroke-width="2"/>
            <path id="路径_39004" data-name="路径 39004" d="M-404.48,730.179l42.3-42.3h246.4" transform="translate(244.457 5.748)" fill="none" stroke="#000" stroke-miterlimit="10" stroke-width="2"/>
            <path id="路径_39005" data-name="路径 39005" d="M-527.225,1156.195l-39.832,40h-69.915l-32.02,32.151h-48.031" transform="translate(123.707 186.681)" fill="none" stroke="#000" stroke-miterlimit="10" stroke-width="2"/>
            <path id="路径_39006" data-name="路径 39006" d="M-569.672,1185.044l-14.1,14.1H-764.3" transform="translate(105.439 197.827)" fill="none" stroke="#000" stroke-miterlimit="10" stroke-width="2"/>
            <path id="路径_39007" data-name="路径 39007" d="M-484.4,1140.383l-36.006,36.006h-161.81l-51.606,51.606h-292.844" transform="translate(4.076 180.573)" fill="none" stroke="#000" stroke-miterlimit="10" stroke-width="2"/>
            <g id="组_21783" data-name="组 21783" transform="translate(35.529 1276.911)">
              <circle id="椭圆_1859" data-name="椭圆 1859" cx="22.58" cy="22.58" r="22.58" transform="translate(0 44.578) rotate(-80.783)" fill="none" stroke="#000" stroke-miterlimit="10" stroke-width="2"/>
              <path id="路径_39008" data-name="路径 39008" d="M-224.083,1131.8a16.154,16.154,0,0,1-16.154,16.154A16.154,16.154,0,0,1-256.39,1131.8a16.154,16.154,0,0,1,16.154-16.154A16.154,16.154,0,0,1-224.083,1131.8Z" transform="translate(266.142 -1105.895)" fill="none" stroke="#000" stroke-miterlimit="10" stroke-width="2"/>
              <path id="路径_39009" data-name="路径 39009" d="M-237.64,1128.846a5.551,5.551,0,0,1-5.551,5.551,5.551,5.551,0,0,1-5.551-5.551,5.551,5.551,0,0,1,5.551-5.551A5.551,5.551,0,0,1-237.64,1128.846Z" transform="translate(269.097 -1102.94)" stroke="#707070" stroke-width="2"/>
              <g id="组_21782" data-name="组 21782" transform="translate(19.365 15.86)">
                <path id="路径_39010" data-name="路径 39010" d="M-247.518,1121.022a.969.969,0,0,1-.969.969.969.969,0,0,1-.969-.969.969.969,0,0,1,.969-.969A.969.969,0,0,1-247.518,1121.022Z" transform="translate(249.456 -1120.053)" fill="none" stroke="#000" stroke-miterlimit="10" stroke-width="2"/>
                <path id="路径_39011" data-name="路径 39011" d="M-244.839,1121.022a.969.969,0,0,1-.969.969.969.969,0,0,1-.969-.969.969.969,0,0,1,.969-.969A.969.969,0,0,1-244.839,1121.022Z" transform="translate(250.491 -1120.053)" fill="none" stroke="#000" stroke-miterlimit="10" stroke-width="2"/>
                <path id="路径_39012" data-name="路径 39012" d="M-242.159,1121.022a.969.969,0,0,1-.969.969.969.969,0,0,1-.969-.969.969.969,0,0,1,.969-.969A.969.969,0,0,1-242.159,1121.022Z" transform="translate(251.526 -1120.053)" fill="none" stroke="#000" stroke-miterlimit="10" stroke-width="2"/>
                <path id="路径_39013" data-name="路径 39013" d="M-239.48,1121.022a.969.969,0,0,1-.969.969.969.969,0,0,1-.969-.969.969.969,0,0,1,.969-.969A.969.969,0,0,1-239.48,1121.022Z" transform="translate(252.561 -1120.053)" fill="none" stroke="#000" stroke-miterlimit="10" stroke-width="2"/>
              </g>
            </g>
            <g id="组_21785" data-name="组 21785" transform="translate(-795.852 1000.12)">
              <circle id="椭圆_1860" data-name="椭圆 1860" cx="22.58" cy="22.58" r="22.58" fill="none" stroke="#000" stroke-miterlimit="10" stroke-width="2"/>
              <circle id="椭圆_1861" data-name="椭圆 1861" cx="16.154" cy="16.154" r="16.154" transform="translate(6.426 6.426)" fill="none" stroke="#000" stroke-miterlimit="10" stroke-width="2"/>
              <path id="路径_39014" data-name="路径 39014" d="M-839.732,926.793a5.55,5.55,0,0,1-5.549,5.551,5.551,5.551,0,0,1-5.551-5.551,5.551,5.551,0,0,1,5.551-5.551A5.55,5.55,0,0,1-839.732,926.793Z" transform="translate(867.862 -904.212)" stroke="#707070" stroke-width="2"/>
              <g id="组_21784" data-name="组 21784" transform="translate(16.039 31.34)">
                <path id="路径_39015" data-name="路径 39015" d="M-849.608,932.533a.969.969,0,0,1-.969.969.969.969,0,0,1-.97-.969.969.969,0,0,1,.97-.969A.969.969,0,0,1-849.608,932.533Z" transform="translate(851.547 -931.564)" fill="none" stroke="#000" stroke-miterlimit="10" stroke-width="2"/>
                <path id="路径_39016" data-name="路径 39016" d="M-846.929,932.533a.969.969,0,0,1-.969.969.969.969,0,0,1-.969-.969.969.969,0,0,1,.969-.969A.969.969,0,0,1-846.929,932.533Z" transform="translate(852.582 -931.564)" fill="none" stroke="#000" stroke-miterlimit="10" stroke-width="2"/>
                <path id="路径_39017" data-name="路径 39017" d="M-844.25,932.533a.969.969,0,0,1-.969.969.969.969,0,0,1-.969-.969.969.969,0,0,1,.969-.969A.969.969,0,0,1-844.25,932.533Z" transform="translate(853.617 -931.564)" fill="none" stroke="#000" stroke-miterlimit="10" stroke-width="2"/>
                <path id="路径_39018" data-name="路径 39018" d="M-841.571,932.533a.968.968,0,0,1-.968.969.969.969,0,0,1-.97-.969.969.969,0,0,1,.97-.969A.968.968,0,0,1-841.571,932.533Z" transform="translate(854.652 -931.564)" fill="none" stroke="#000" stroke-miterlimit="10" stroke-width="2"/>
              </g>
            </g>
            <g id="组_21786" data-name="组 21786" transform="translate(-76.052 733.324)">
              <path id="路径_39019" data-name="路径 39019" d="M-338.7,719.117a2.6,2.6,0,0,1-2.6,2.6,2.6,2.6,0,0,1-2.6-2.6,2.6,2.6,0,0,1,2.6-2.6A2.6,2.6,0,0,1-338.7,719.117Z" transform="translate(343.91 -716.513)" fill="none" stroke="#000" stroke-miterlimit="10" stroke-width="2"/>
              <path id="路径_39020" data-name="路径 39020" d="M-331.507,719.117a2.6,2.6,0,0,1-2.6,2.6,2.6,2.6,0,0,1-2.6-2.6,2.6,2.6,0,0,1,2.6-2.6A2.6,2.6,0,0,1-331.507,719.117Z" transform="translate(346.69 -716.513)" fill="none" stroke="#000" stroke-miterlimit="10" stroke-width="2"/>
              <path id="路径_39021" data-name="路径 39021" d="M-324.311,719.117a2.6,2.6,0,0,1-2.6,2.6,2.6,2.6,0,0,1-2.6-2.6,2.6,2.6,0,0,1,2.6-2.6A2.6,2.6,0,0,1-324.311,719.117Z" transform="translate(349.471 -716.513)" fill="none" stroke="#000" stroke-miterlimit="10" stroke-width="2"/>
              <path id="路径_39022" data-name="路径 39022" d="M-317.115,719.117a2.6,2.6,0,0,1-2.6,2.6,2.6,2.6,0,0,1-2.6-2.6,2.6,2.6,0,0,1,2.6-2.6A2.6,2.6,0,0,1-317.115,719.117Z" transform="translate(352.251 -716.513)" fill="none" stroke="#000" stroke-miterlimit="10" stroke-width="2"/>
            </g>
            <g id="组_21787" data-name="组 21787" transform="translate(-976.744 958.969)">
              <circle id="椭圆_1862" data-name="椭圆 1862" cx="2.603" cy="2.603" r="2.603" fill="none" stroke="#000" stroke-miterlimit="10" stroke-width="2"/>
              <circle id="椭圆_1863" data-name="椭圆 1863" cx="2.603" cy="2.603" r="2.603" transform="translate(9.977)" fill="none" stroke="#000" stroke-miterlimit="10" stroke-width="2"/>
              <circle id="椭圆_1864" data-name="椭圆 1864" cx="2.603" cy="2.603" r="2.603" transform="translate(19.953)" fill="none" stroke="#000" stroke-miterlimit="10" stroke-width="2"/>
              <circle id="椭圆_1865" data-name="椭圆 1865" cx="2.603" cy="2.603" r="2.603" transform="translate(29.93)" fill="none" stroke="#000" stroke-miterlimit="10" stroke-width="2"/>
            </g>
            <path id="路径_39023" data-name="路径 39023" d="M-401.037,1154.042a2.268,2.268,0,0,1-2.268,2.267,2.268,2.268,0,0,1-2.268-2.267,2.268,2.268,0,0,1,2.268-2.268A2.268,2.268,0,0,1-401.037,1154.042Z" transform="translate(244.035 184.974)" stroke="#707070" stroke-width="2"/>
            <path id="路径_39024" data-name="路径 39024" d="M-381.046,1114.3a2.267,2.267,0,0,1-2.267,2.267,2.267,2.267,0,0,1-2.268-2.267,2.267,2.267,0,0,1,2.268-2.268A2.267,2.267,0,0,1-381.046,1114.3Z" transform="translate(251.759 169.618)" stroke="#707070" stroke-width="2"/>
            <path id="路径_39025" data-name="路径 39025" d="M-303.294,1052.345a2.267,2.267,0,0,1-2.267,2.268,2.267,2.267,0,0,1-2.268-2.268,2.267,2.267,0,0,1,2.268-2.267A2.267,2.267,0,0,1-303.294,1052.345Z" transform="translate(281.798 145.684)" stroke="#707070" stroke-width="2"/>
            <path id="路径_39026" data-name="路径 39026" d="M-193.335,1069.158a2.267,2.267,0,0,1-2.267,2.268,2.267,2.267,0,0,1-2.268-2.268,2.267,2.267,0,0,1,2.268-2.267A2.267,2.267,0,0,1-193.335,1069.158Z" transform="translate(324.281 152.179)" stroke="#707070" stroke-width="2"/>
            <path id="路径_39027" data-name="路径 39027" d="M-292.259,1163.018a2.268,2.268,0,0,1-2.268,2.267,2.268,2.268,0,0,1-2.268-2.267,2.268,2.268,0,0,1,2.268-2.268A2.268,2.268,0,0,1-292.259,1163.018Z" transform="translate(286.061 188.441)" stroke="#707070" stroke-width="2"/>
            <circle id="椭圆_1866" data-name="椭圆 1866" cx="1.476" cy="1.476" r="1.476" transform="translate(-92.547 1358.275)" fill="none" stroke="#000" stroke-miterlimit="10" stroke-width="2"/>
            <path id="路径_39028" data-name="路径 39028" d="M-878.537,1148.742a117.3,117.3,0,0,1-69.33-107.062A117.28,117.28,0,0,1-830.586,924.4" transform="translate(34.521 97.128)" fill="none" stroke="#000" stroke-miterlimit="10" stroke-width="2"/>
            <path id="路径_39029" data-name="路径 39029" d="M-840.691,923.195l46.772-46.772h89.027" transform="translate(75.928 78.592)" fill="none" stroke="#000" stroke-miterlimit="10" stroke-width="2"/>
            <path id="路径_39030" data-name="路径 39030" d="M-683.623,1023.106H-738.7l-20.265,20.265H-883.613l-32.625-32.624" transform="translate(46.74 130.488)" fill="none" stroke="#000" stroke-miterlimit="10" stroke-width="2"/>
            <path id="路径_39031" data-name="路径 39031" d="M-809.581,1042.485l-29.444-29.444H-880.4" transform="translate(60.588 131.374)" fill="none" stroke="#000" stroke-miterlimit="10" stroke-width="2"/>
            <path id="路径_39032" data-name="路径 39032" d="M-634.154,1176.5l-36.388-36.388h-79.286l-48.949,48.949H-927.193l-39.255-39.255" transform="translate(27.342 180.466)" fill="none" stroke="#000" stroke-miterlimit="10" stroke-width="2"/>
            <path id="路径_39033" data-name="路径 39033" d="M-699.355,998.594h-96.168l-96.8-96.8h-85" transform="translate(23.139 88.395)" fill="none" stroke="#000" stroke-miterlimit="10" stroke-width="2"/>
            <path id="路径_39034" data-name="路径 39034" d="M-964.38,894.13c37.887-.323,140.174.57,140.174.57l46.752-46.752" transform="translate(28.141 67.591)" fill="none" stroke="#000" stroke-miterlimit="10" stroke-width="2"/>
            <path id="路径_39035" data-name="路径 39035" d="M-634.522,842.8H-745.375l-29.189-29.189h-60.423L-875,853.618H-997.929l47.3-47.3" transform="translate(15.179 51.507)" fill="none" stroke="#000" stroke-miterlimit="10" stroke-width="2"/>
            <path id="路径_39036" data-name="路径 39036" d="M-929.415,987.99H-961.5l-24.691,24.691V1041.9" transform="translate(19.715 121.696)" fill="none" stroke="#000" stroke-miterlimit="10" stroke-width="2"/>
            <path id="路径_39037" data-name="路径 39037" d="M-589.82,820.589-656.311,754.1h-361.782" transform="translate(7.389 31.332)" fill="none" stroke="#000" stroke-miterlimit="10" stroke-width="2"/>
            <path id="路径_39038" data-name="路径 39038" d="M-768.95,722.035h-47.672l-23.1,23.1H-913.1" transform="translate(47.952 18.945)" fill="none" stroke="#000" stroke-miterlimit="10" stroke-width="2"/>
            <path id="路径_39039" data-name="路径 39039" d="M-602.174,781.4l-59.362-59.362h-129.1" transform="translate(95.265 18.945)" fill="none" stroke="#000" stroke-miterlimit="10" stroke-width="2"/>
            <path id="路径_39040" data-name="路径 39040" d="M-722.086,732.363-759.145,695.3h-57.54" transform="translate(85.203 8.617)" fill="none" stroke="#000" stroke-miterlimit="10" stroke-width="2"/>
            <path id="路径_39041" data-name="路径 39041" d="M-774.872,1166.84a2.267,2.267,0,0,1-2.267,2.267,2.267,2.267,0,0,1-2.268-2.267,2.267,2.267,0,0,1,2.268-2.268A2.267,2.267,0,0,1-774.872,1166.84Z" transform="translate(99.605 189.918)" stroke="#707070" stroke-width="2"/>
            <path id="路径_39042" data-name="路径 39042" d="M-656.381,1185.676a2.267,2.267,0,0,1-2.268,2.267,2.267,2.267,0,0,1-2.267-2.267,2.268,2.268,0,0,1,2.267-2.268A2.268,2.268,0,0,1-656.381,1185.676Z" transform="translate(145.384 197.195)" stroke="#707070" stroke-width="2"/>
            <path id="路径_39043" data-name="路径 39043" d="M-913.456,902.427a2.269,2.269,0,0,1-2.268,2.268,2.269,2.269,0,0,1-2.268-2.268,2.268,2.268,0,0,1,2.268-2.267A2.268,2.268,0,0,1-913.456,902.427Z" transform="translate(46.063 87.763)" stroke="#707070" stroke-width="2"/>
            <path id="路径_39044" data-name="路径 39044" d="M-772.993,972.25a2.269,2.269,0,0,1-2.268,2.268,2.269,2.269,0,0,1-2.268-2.268,2.269,2.269,0,0,1,2.268-2.268A2.269,2.269,0,0,1-772.993,972.25Z" transform="translate(100.33 114.739)" stroke="#707070" stroke-width="2"/>
            <path id="路径_39045" data-name="路径 39045" d="M-906.275,841.068a2.267,2.267,0,0,1-2.267,2.268,2.267,2.267,0,0,1-2.268-2.268,2.267,2.267,0,0,1,2.268-2.267A2.267,2.267,0,0,1-906.275,841.068Z" transform="translate(48.837 64.057)" stroke="#707070" stroke-width="2"/>
            <path id="路径_39046" data-name="路径 39046" d="M-877.87,754.73A2.267,2.267,0,0,1-880.137,757a2.268,2.268,0,0,1-2.268-2.267,2.268,2.268,0,0,1,2.268-2.268A2.267,2.267,0,0,1-877.87,754.73Z" transform="translate(59.812 30.7)" stroke="#707070" stroke-width="2"/>
            <path id="路径_39047" data-name="路径 39047" d="M-921.682,1204.211a2.266,2.266,0,0,1-2.267,2.267,2.268,2.268,0,0,1-2.268-2.267,2.269,2.269,0,0,1,2.268-2.268A2.268,2.268,0,0,1-921.682,1204.211Z" transform="translate(42.885 204.356)" stroke="#707070" stroke-width="2"/>
            <path id="路径_39048" data-name="路径 39048" d="M-910.817,1204.211a2.268,2.268,0,0,1-2.268,2.267,2.266,2.266,0,0,1-2.267-2.267,2.268,2.268,0,0,1,2.267-2.268A2.269,2.269,0,0,1-910.817,1204.211Z" transform="translate(47.083 204.356)" stroke="#707070" stroke-width="2"/>
            <path id="路径_39049" data-name="路径 39049" d="M-899.953,1204.211a2.267,2.267,0,0,1-2.268,2.267,2.266,2.266,0,0,1-2.267-2.267,2.268,2.268,0,0,1,2.267-2.268A2.268,2.268,0,0,1-899.953,1204.211Z" transform="translate(51.28 204.356)" stroke="#707070" stroke-width="2"/>
            <path id="路径_39050" data-name="路径 39050" d="M-889.089,1204.211a2.266,2.266,0,0,1-2.267,2.267,2.267,2.267,0,0,1-2.268-2.267,2.268,2.268,0,0,1,2.268-2.268A2.268,2.268,0,0,1-889.089,1204.211Z" transform="translate(55.477 204.356)" stroke="#707070" stroke-width="2"/>
            <path id="路径_39051" data-name="路径 39051" d="M-878.225,1204.211a2.266,2.266,0,0,1-2.267,2.267,2.268,2.268,0,0,1-2.268-2.267,2.269,2.269,0,0,1,2.268-2.268A2.268,2.268,0,0,1-878.225,1204.211Z" transform="translate(59.675 204.356)" stroke="#707070" stroke-width="2"/>
            <path id="路径_39052" data-name="路径 39052" d="M-867.36,1204.211a2.267,2.267,0,0,1-2.268,2.267,2.266,2.266,0,0,1-2.267-2.267,2.268,2.268,0,0,1,2.267-2.268A2.268,2.268,0,0,1-867.36,1204.211Z" transform="translate(63.872 204.356)" stroke="#707070" stroke-width="2"/>
            <path id="路径_39053" data-name="路径 39053" d="M-862.328,754.73A2.267,2.267,0,0,1-864.595,757a2.267,2.267,0,0,1-2.268-2.267,2.267,2.267,0,0,1,2.268-2.268A2.267,2.267,0,0,1-862.328,754.73Z" transform="translate(65.816 30.7)" stroke="#707070" stroke-width="2"/>
            <circle id="椭圆_1867" data-name="椭圆 1867" cx="2.268" cy="2.268" r="2.268" transform="translate(-779.5 783.162)" stroke="#707070" stroke-width="2"/>
            <path id="路径_39054" data-name="路径 39054" d="M-831.244,754.73A2.267,2.267,0,0,1-833.512,757a2.267,2.267,0,0,1-2.267-2.267,2.267,2.267,0,0,1,2.267-2.268A2.267,2.267,0,0,1-831.244,754.73Z" transform="translate(77.825 30.7)" stroke="#707070" stroke-width="2"/>
            <path id="路径_39055" data-name="路径 39055" d="M-815.7,754.73A2.267,2.267,0,0,1-817.97,757a2.267,2.267,0,0,1-2.267-2.267,2.267,2.267,0,0,1,2.267-2.268A2.267,2.267,0,0,1-815.7,754.73Z" transform="translate(83.83 30.7)" stroke="#707070" stroke-width="2"/>
            <path id="路径_39056" data-name="路径 39056" d="M-754.387,754.73A2.268,2.268,0,0,1-756.655,757a2.268,2.268,0,0,1-2.268-2.267,2.268,2.268,0,0,1,2.268-2.268A2.268,2.268,0,0,1-754.387,754.73Z" transform="translate(107.519 30.7)" stroke="#707070" stroke-width="2"/>
            <path id="路径_39057" data-name="路径 39057" d="M-605.1,1185.676a2.268,2.268,0,0,1-2.268,2.267,2.267,2.267,0,0,1-2.267-2.267,2.268,2.268,0,0,1,2.267-2.268A2.269,2.269,0,0,1-605.1,1185.676Z" transform="translate(165.196 197.195)" stroke="#707070" stroke-width="2"/>
            <path id="路径_39058" data-name="路径 39058" d="M-935.683,1176.047a2.268,2.268,0,0,1-2.268,2.268,2.268,2.268,0,0,1-2.267-2.268,2.267,2.267,0,0,1,2.267-2.267A2.267,2.267,0,0,1-935.683,1176.047Z" transform="translate(37.476 193.475)" stroke="#707070" stroke-width="2"/>
            <path id="路径_39059" data-name="路径 39059" d="M-812.766,1204.211a2.268,2.268,0,0,1-2.268,2.267,2.266,2.266,0,0,1-2.267-2.267,2.268,2.268,0,0,1,2.267-2.268A2.269,2.269,0,0,1-812.766,1204.211Z" transform="translate(84.964 204.356)" stroke="#707070" stroke-width="2"/>
            <g id="组_21788" data-name="组 21788" transform="translate(-561.548 1409.178)">
              <rect id="矩形_2322" data-name="矩形 2322" width="3.314" height="3.314" transform="translate(11.567)" stroke="#707070" stroke-width="2"/>
              <rect id="矩形_2323" data-name="矩形 2323" width="3.314" height="3.314" transform="translate(5.784)" stroke="#707070" stroke-width="2"/>
              <rect id="矩形_2324" data-name="矩形 2324" width="3.314" height="3.314" stroke="#707070" stroke-width="2"/>
            </g>
            <g id="组_21789" data-name="组 21789" transform="translate(-614.041 1411.287)">
              <path id="路径_39060" data-name="路径 39060" d="M-717.863,1205.541v7.471l-5.3-3.735Z" transform="translate(735.375 -1205.541)" stroke="#707070" stroke-width="2"/>
              <path id="路径_39061" data-name="路径 39061" d="M-722.267,1205.541v7.471l-5.3-3.735Z" transform="translate(733.674 -1205.541)" stroke="#707070" stroke-width="2"/>
              <path id="路径_39062" data-name="路径 39062" d="M-726.671,1205.541v7.471l-5.3-3.735Z" transform="translate(731.972 -1205.541)" stroke="#707070" stroke-width="2"/>
            </g>
            <g id="组_21790" data-name="组 21790" transform="translate(-720.997 737.245)">
              <circle id="椭圆_1868" data-name="椭圆 1868" cx="3.735" cy="3.735" r="3.735" fill="none" stroke="#000" stroke-miterlimit="10" stroke-width="2"/>
              <circle id="椭圆_1869" data-name="椭圆 1869" cx="3.735" cy="3.735" r="3.735" transform="translate(9.077)" fill="none" stroke="#000" stroke-miterlimit="10" stroke-width="2"/>
              <circle id="椭圆_1870" data-name="椭圆 1870" cx="3.735" cy="3.735" r="3.735" transform="translate(18.154)" fill="none" stroke="#000" stroke-miterlimit="10" stroke-width="2"/>
            </g>
            <g id="组_21791" data-name="组 21791" transform="translate(-753.894 701.03)">
              <line id="直线_531" data-name="直线 531" y2="5.784" fill="none" stroke="#000" stroke-miterlimit="10" stroke-width="2"/>
              <line id="直线_532" data-name="直线 532" y2="5.784" transform="translate(4.659)" fill="none" stroke="#000" stroke-miterlimit="10" stroke-width="2"/>
              <line id="直线_533" data-name="直线 533" y2="5.784" transform="translate(9.318)" fill="none" stroke="#000" stroke-miterlimit="10" stroke-width="2"/>
              <line id="直线_534" data-name="直线 534" y2="5.784" transform="translate(13.977)" fill="none" stroke="#000" stroke-miterlimit="10" stroke-width="2"/>
              <line id="直线_535" data-name="直线 535" y2="5.784" transform="translate(18.636)" fill="none" stroke="#000" stroke-miterlimit="10" stroke-width="2"/>
            </g>
            <g id="组_21792" data-name="组 21792" transform="translate(-674.931 789.165)">
              <line id="直线_536" data-name="直线 536" y2="5.784" fill="none" stroke="#000" stroke-miterlimit="10" stroke-width="2"/>
              <line id="直线_537" data-name="直线 537" y2="5.784" transform="translate(4.659)" fill="none" stroke="#000" stroke-miterlimit="10" stroke-width="2"/>
              <line id="直线_538" data-name="直线 538" y2="5.784" transform="translate(9.318)" fill="none" stroke="#000" stroke-miterlimit="10" stroke-width="2"/>
              <line id="直线_539" data-name="直线 539" y2="5.784" transform="translate(13.977)" fill="none" stroke="#000" stroke-miterlimit="10" stroke-width="2"/>
              <line id="直线_540" data-name="直线 540" y2="5.784" transform="translate(18.636)" fill="none" stroke="#000" stroke-miterlimit="10" stroke-width="2"/>
            </g>
            <g id="组_21793" data-name="组 21793" transform="translate(-889.89 762.28)">
              <rect id="矩形_2325" data-name="矩形 2325" width="3.605" height="3.605" fill="none" stroke="#000" stroke-miterlimit="10" stroke-width="2"/>
              <rect id="矩形_2326" data-name="矩形 2326" width="3.605" height="3.605" transform="translate(6.195)" fill="none" stroke="#000" stroke-miterlimit="10" stroke-width="2"/>
              <rect id="矩形_2327" data-name="矩形 2327" width="3.605" height="3.605" transform="translate(12.39)" fill="none" stroke="#000" stroke-miterlimit="10" stroke-width="2"/>
              <rect id="矩形_2328" data-name="矩形 2328" width="3.605" height="3.605" transform="translate(18.584)" fill="none" stroke="#000" stroke-miterlimit="10" stroke-width="2"/>
            </g>
            <g id="组_21794" data-name="组 21794" transform="translate(-1016.748 781.695)">
              <path id="路径_39063" data-name="路径 39063" d="M-1008.344,751.4v7.471l-5.3-3.735Z" transform="translate(1025.855 -751.403)" stroke="#707070" stroke-width="2"/>
              <path id="路径_39064" data-name="路径 39064" d="M-1012.747,751.4v7.471l-5.3-3.735Z" transform="translate(1024.154 -751.403)" stroke="#707070" stroke-width="2"/>
              <path id="路径_39065" data-name="路径 39065" d="M-1017.151,751.4v7.471l-5.3-3.735Z" transform="translate(1022.453 -751.403)" stroke="#707070" stroke-width="2"/>
            </g>
            <path id="路径_39066" data-name="路径 39066" d="M-973.25,903.833a7.314,7.314,0,0,1-7.313,7.313,7.312,7.312,0,0,1-7.312-7.313,7.311,7.311,0,0,1,7.312-7.312A7.312,7.312,0,0,1-973.25,903.833Z" transform="translate(19.063 86.357)" fill="none" stroke="#000" stroke-miterlimit="10" stroke-width="2"/>
            <circle id="椭圆_1871" data-name="椭圆 1871" cx="7.312" cy="7.312" r="7.312" transform="translate(-1037.218 1401.255)" fill="none" stroke="#000" stroke-miterlimit="10" stroke-width="2"/>
            <circle id="椭圆_1872" data-name="椭圆 1872" cx="7.312" cy="7.312" r="7.312" transform="translate(-719.228 1166.547)" fill="none" stroke="#000" stroke-miterlimit="10" stroke-width="2"/>
            <path id="路径_39067" data-name="路径 39067" d="M-743.718,1142.145a7.314,7.314,0,0,1-7.313,7.313,7.312,7.312,0,0,1-7.312-7.313,7.311,7.311,0,0,1,7.312-7.312A7.312,7.312,0,0,1-743.718,1142.145Z" transform="translate(107.743 178.428)" fill="none" stroke="#000" stroke-miterlimit="10" stroke-width="2"/>
            <g id="组_21795" data-name="组 21795" transform="translate(-886.366 1356.016)">
              <path id="路径_39068" data-name="路径 39068" d="M-928.405,1165.672v7.471l5.3-3.735Z" transform="translate(928.405 -1165.672)" stroke="#707070" stroke-width="2"/>
              <path id="路径_39069" data-name="路径 39069" d="M-924,1165.672v7.471l5.3-3.735Z" transform="translate(930.107 -1165.672)" stroke="#707070" stroke-width="2"/>
              <path id="路径_39070" data-name="路径 39070" d="M-919.6,1165.672v7.471l5.3-3.735Z" transform="translate(931.808 -1165.672)" stroke="#707070" stroke-width="2"/>
            </g>
            <g id="组_21796" data-name="组 21796" transform="translate(-704.604 1310.37)">
              <line id="直线_541" data-name="直线 541" y2="5.784" fill="none" stroke="#000" stroke-miterlimit="10" stroke-width="2"/>
              <line id="直线_542" data-name="直线 542" y2="5.784" transform="translate(4.659)" fill="none" stroke="#000" stroke-miterlimit="10" stroke-width="2"/>
              <line id="直线_543" data-name="直线 543" y2="5.784" transform="translate(9.318)" fill="none" stroke="#000" stroke-miterlimit="10" stroke-width="2"/>
              <line id="直线_544" data-name="直线 544" y2="5.784" transform="translate(13.977)" fill="none" stroke="#000" stroke-miterlimit="10" stroke-width="2"/>
              <line id="直线_545" data-name="直线 545" y2="5.784" transform="translate(18.636)" fill="none" stroke="#000" stroke-miterlimit="10" stroke-width="2"/>
            </g>
            <g id="组_21797" data-name="组 21797" transform="translate(-795.496 1181.125)">
              <rect id="矩形_2329" data-name="矩形 2329" width="3.605" height="3.605" fill="none" stroke="#000" stroke-miterlimit="10" stroke-width="2"/>
              <rect id="矩形_2330" data-name="矩形 2330" width="3.605" height="3.605" transform="translate(6.195)" fill="none" stroke="#000" stroke-miterlimit="10" stroke-width="2"/>
              <rect id="矩形_2331" data-name="矩形 2331" width="3.605" height="3.605" transform="translate(12.39)" fill="none" stroke="#000" stroke-miterlimit="10" stroke-width="2"/>
              <rect id="矩形_2332" data-name="矩形 2332" width="3.605" height="3.605" transform="translate(18.585)" fill="none" stroke="#000" stroke-miterlimit="10" stroke-width="2"/>
            </g>
          </g>
        </g>
      </g>
      <path id="路径_40415" data-name="路径 40415" d="M130.52-31.46a5.745,5.745,0,0,1,.832-.052c.468,0,.468,0,1.456.052,1.144,0,5.72.1,6.552.1,0,0,.676-.052.884-.052a2.544,2.544,0,0,0-.416.676,68.872,68.872,0,0,1-6.24,8.892,31.855,31.855,0,0,1-4.68,4.628l4.732,4.68a23.381,23.381,0,0,1,4.524-4.732c4-3.536,7.644-5.356,10.66-5.356A2.854,2.854,0,0,1,152-19.812c-5.876,2.444-8.84,4.42-11.18,7.332a8.287,8.287,0,0,0-2.288,5.772A7.54,7.54,0,0,0,142.324,0c2.652,1.56,6.084,2.184,11.6,2.184a94.315,94.315,0,0,0,13.312-.936,15.322,15.322,0,0,1,2.392-.208l-.52-6.708c-3.692,1.4-9.048,2.184-15.288,2.184-6.292,0-8.788-1.092-8.788-3.8,0-1.508.884-2.912,2.7-4.264a31.6,31.6,0,0,1,4.992-2.7V-13a41.166,41.166,0,0,1-.312,6.032l6.032-.156a21.349,21.349,0,0,1-.156-2.756c0-.364,0-.832.052-1.716v-2.08c0-.728,0-.728-.052-2.08v-.572q6.708-2.34,7.8-2.652a45.9,45.9,0,0,1,5.772-1.4l-2.444-5.98c-.832.52-1.04.572-3.848,1.56q-1.95.624-7.956,2.808c-.832-3.588-3.38-5.512-7.436-5.512a12.57,12.57,0,0,0-7.332,2.34c-.676.52-.676.52-1.04.78l-.052-.1a26.909,26.909,0,0,0,4.784-6.916c5.252-.156,11.856-.572,15.652-1.04,2.652-.312,2.652-.312,4.108-.416l-.364-5.928c-2.86.832-7.592,1.4-13.624,1.768-2.86.156-2.86.156-3.276.208.1-.208.208-.364.468-.936a39.731,39.731,0,0,1,2.08-4.68l-6.812-.728a20.594,20.594,0,0,1-2.08,6.448c-6.6,0-9.932-.208-12.064-.676Zm102.024-.416a10.288,10.288,0,0,1-3.172.26H215.956a8.946,8.946,0,0,0,2.808-1.508c1.82-1.508,2.5-2.86,2.912-6.032h3.848v3.432c0,1.248.1,1.716.572,2.132a6.063,6.063,0,0,0,3.432.884h6.136l1.092-3.952c-1.4.052-1.56.052-3.276.1-1.04.052-1.716.1-1.976.1h-.156c-.624,0-.988-.156-1.144-.416-.1-.208-.1-.208-.1-1.56v-1.716a19.974,19.974,0,0,1,.156-3.172,24.488,24.488,0,0,1-3.8.156h-5.512a20.134,20.134,0,0,1-3.64-.156,3.726,3.726,0,0,1,.1,1.144c0,4.108-1.092,5.772-4.524,6.864a9.676,9.676,0,0,1,2.964,3.64,8.972,8.972,0,0,1-1.872-.156v4.108a15.849,15.849,0,0,1,1.664-.1c2.548,3.432,2.548,3.432,4.628,5.252a33.5,33.5,0,0,1-6.24,1.4,10.46,10.46,0,0,1,2.184,4.056,52.057,52.057,0,0,0,8.112-2.548,44.683,44.683,0,0,0,11.336,4.264,14.113,14.113,0,0,1,2.184-4.68,36.51,36.51,0,0,1-9-2.236,30.447,30.447,0,0,0,5.3-5.356c.468-.572.572-.676.988-1.144Zm-3.8,4a12.912,12.912,0,0,1-4.056,3.328,21.632,21.632,0,0,1-3.588-3.328ZM195.052-41.5a24.265,24.265,0,0,1-4.94-.26V-37.7a47.306,47.306,0,0,1,4.94-.26h4.784V-36.5H195.78a22.715,22.715,0,0,1-3.952-.208,29.416,29.416,0,0,1,.156,3.536v4.524a29.634,29.634,0,0,1-.156,3.64c.78-.1,2.912-.156,4-.156h4v1.456h-5.1a23.154,23.154,0,0,1-4.888-.26v4.108a47.635,47.635,0,0,1,4.836-.26h5.148a15.832,15.832,0,0,1-.208,2.6h5.044a15.972,15.972,0,0,1-.156-2.6h4.42c1.716,0,3.8.1,4.94.208v-4.056a24.937,24.937,0,0,1-4.94.26h-4.42v-1.456h4.056c1.3,0,3.276.052,4.056.1a27.984,27.984,0,0,1-.1-3.38v-4.888a18.073,18.073,0,0,1,.156-3.328,33.532,33.532,0,0,1-4.108.156h-4.056V-37.96h4.472a39.489,39.489,0,0,1,4.992.208v-4a26.985,26.985,0,0,1-4.992.26h-4.472a9.387,9.387,0,0,1,.26-2.34h-5.2a14.594,14.594,0,0,1,.26,2.34Zm4.94,9.256H196.4V-33.7h3.588Zm4.42,0V-33.7h3.744v1.456Zm-4.42,4.264H196.4v-1.612h3.588Zm4.42,0v-1.612h3.744v1.612Zm-11.544,23.5c3.64-.26,3.744-.26,6.292-.312,8.164-.156,8.164-.156,11.8-.26v3.588c0,.572-.988.988-2.288.988a24.552,24.552,0,0,1-3.692-.364,13.536,13.536,0,0,1,1.456,4.94c1.924.1,2.912.156,3.016.156a16.693,16.693,0,0,0,4.888-.728,4.034,4.034,0,0,0,2.392-4V-5.3c3.484-.1,10.712-.416,13.832-.624A24.376,24.376,0,0,1,232.8-3.484l4.056-2.808a35.467,35.467,0,0,0-7.332-6.6,16.112,16.112,0,0,1-1.352-.988l-3.692,2.392c1.2.832,1.508,1.092,2.652,1.976-2.028.208-8.06.52-17.784.884,8.84-2.86,10.5-3.432,15.184-5.46l-4-2.964a38.988,38.988,0,0,1-5.148,2.7c-3.952.1-7.956.208-9.256.208a40.992,40.992,0,0,0,7.54-2.6l-3.744-2.86a43.006,43.006,0,0,1-14.248,4.992l.78,3.536c3.38-.156,3.38-.156,5.824-.26,2.184-.052,4.212-.1,6.032-.208a72.012,72.012,0,0,1-7.332,2.028,68.7,68.7,0,0,1-9,1.144Zm9-.1c-.416.208-.988.572-1.872,1.092a19.369,19.369,0,0,1-3.172,1.508,49.549,49.549,0,0,1-6.864,1.924A13.612,13.612,0,0,1,192.5,2.6c.624.884.624.884.936,1.352,6.24-2.028,7.176-2.444,12.688-5.772ZM219.8-1.352A113.532,113.532,0,0,1,233.012,3.9L236.08-.312A93.587,93.587,0,0,0,223.392-4.68ZM269.36-41.34c.052.1.78,1.664,2.08,4.732a12.508,12.508,0,0,1,.572,1.3,92.415,92.415,0,0,1-10.712.572,43.623,43.623,0,0,1-4.992-.208l.26,5.564a29.054,29.054,0,0,1,3.536-.1,112.551,112.551,0,0,0,13.936-.78c.416.936.572,1.3,1.092,2.392.416.936.624,1.3.936,1.924a102.3,102.3,0,0,1-14.716.988A30.819,30.819,0,0,1,256-25.168L256.2-19.5a14.705,14.705,0,0,1,2.132-.156c11.284-.364,14.612-.624,20.124-1.456,2.184,3.64,3.172,5.044,4,5.876a35.835,35.835,0,0,0-9-1.092c-5.252,0-9.412.884-12.116,2.6A8.684,8.684,0,0,0,256.984-6.5a8.375,8.375,0,0,0,4,7.124c2.912,1.768,6.708,2.548,12.688,2.548A50.065,50.065,0,0,0,286.988,1.4a21.439,21.439,0,0,1,3.38-.832l-.936-6.4c-3.276,1.872-10.608,3.432-16.016,3.432a20.269,20.269,0,0,1-7.436-1.144,3.428,3.428,0,0,1-2.236-3.016,3.752,3.752,0,0,1,2.236-3.172c1.768-.936,4.784-1.456,8.736-1.456a27.963,27.963,0,0,1,11.96,2.132l4.576-3.328a50.286,50.286,0,0,1-6.968-9.516c.624-.1.624-.1,1.924-.416,1.248-.208,2.964-.624,5.1-1.092,1.2-.312,2.288-.52,3.276-.676l-.52-5.72a20.134,20.134,0,0,1-4.94,1.508q-.468.156-7.176,1.56a46.824,46.824,0,0,1-2.028-4.264c1.56-.208,6.708-1.248,9.88-1.976,1.248-.312,1.248-.312,1.768-.416l-.208-2.236,2.34-.936a26.941,26.941,0,0,0-4.16-7.02l-4,1.612a24.091,24.091,0,0,1,2.6,4c-2.184.572-7.7,1.664-10.14,2.028a32.7,32.7,0,0,1-2.132-6.292ZM299.624-38.9a27.108,27.108,0,0,0-4.108-6.656l-3.848,1.508a32.66,32.66,0,0,1,4.056,6.864ZM315.9-7.8A55.967,55.967,0,0,1,327.184,4.056L332.02-.468a60.78,60.78,0,0,0-11.7-11.44ZM37.232,90.276a38.95,38.95,0,0,1,.26-4.212H34.32a23.277,23.277,0,0,0,1.04-3.848h7.592c1.872,0,3.38.052,4.68.156-.1-1.092-.156-2.288-.156-5.46V65.576c0-2.756.052-4.108.156-5.46-1.3.1-2.6.156-4.94.156H35.048a39.177,39.177,0,0,0,2.028-4.056l-5.928-.676a21.5,21.5,0,0,1-1.768,4.732H25.688c-2.08,0-3.536-.052-4.888-.156a39.9,39.9,0,0,1,.156,5.1V77.38a37.112,37.112,0,0,1-.156,4.992c1.248-.1,2.808-.156,4.264-.156H29.8A21.337,21.337,0,0,1,23.348,93.4c-2.236,2.132-4.888,3.848-10.4,6.6a15.927,15.927,0,0,1,3.9,4.576,44.573,44.573,0,0,0,8.788-5.98,27.449,27.449,0,0,0,6.552-7.8v8.268q0,2.574,1.4,3.588c1.04.728,2.756.988,6.812.988,6.24,0,7.956-.364,9.1-1.976.728-1.04.936-1.872,1.508-5.3a24.237,24.237,0,0,1-4.108-1.2l2.964-1.3a54.871,54.871,0,0,0-3.12-7.852l-3.172,1.456a21.67,21.67,0,0,1,1.352,3.224A17.65,17.65,0,0,0,43.056,91l-1.4.156c.52-1.2,1.768-4.524,2.132-5.616a12.926,12.926,0,0,1,.52-1.56l-3.952-1.04a35.825,35.825,0,0,1-1.872,7.02c-.416.832-.728,1.144-1.248,1.3Zm0,1.82,1.144,3.484a15.357,15.357,0,0,1,2.652-.624l4.888-.936c.052.208.052.208.156.676-.26,4-.416,4.16-4.524,4.16-3.64,0-4.264-.156-4.264-1.2Zm4.992-23.14H36.608l.052-4h5.564Zm0,4.42v4.368H36.088c.156-1.56.26-2.912.364-4.368Zm-16.38,0h5.044c-.1,2.08-.26,3.536-.364,4.368h-4.68Zm0-4.42v-4H31.1v4Zm-10.3,7.28a26.218,26.218,0,0,1,4.368.26V70.984a35.155,35.155,0,0,1-4.732.208H7.228a36.049,36.049,0,0,1-4.784-.208V76.5a26.6,26.6,0,0,1,4.368-.26H8.164A91.142,91.142,0,0,1,4.316,88.508a4.275,4.275,0,0,1-2.288,2.184l1.82,5.252c2.756-.676,6.656-1.56,13.572-3.016l.52,2.08,4.472-2.132a138.46,138.46,0,0,0-4.784-13l-4.16,1.3c1.144,2.912,1.56,4.16,2.5,6.916.052.208.052.26.1.468-1.144.208-5.876.936-6.812,1.092C10.92,85.6,10.92,85.6,13.416,76.236ZM3.692,65a23.066,23.066,0,0,1,4.056-.26H15.6a20.035,20.035,0,0,1,3.8.26V59.492a22.091,22.091,0,0,1-4,.26H7.852a23.256,23.256,0,0,1-4.16-.26Zm72.436,36.244c-.052-.676-.052-1.092-.052-1.4,0-3.692,1.768-9.724,4.628-15.756l-4.16-1.872a53.032,53.032,0,0,0-2.7,6.864c.052-1.3.1-1.716.1-2.86a86.823,86.823,0,0,1,.78-11.492c.832-6.656,2.028-12.48,3.276-15.548l-6.864-.728a34.027,34.027,0,0,1-.78,4.836A99.829,99.829,0,0,0,68.224,83.62a90.7,90.7,0,0,0,1.352,15.548c.156,1.2.208,1.508.26,2.444ZM83.3,70.1a61.729,61.729,0,0,0,9.36.572,93.143,93.143,0,0,0,11.128-.624c2.5-.312,3.276-.416,3.692-.468l-.312-6.292a57.342,57.342,0,0,1-14.144,1.4c-4.524,0-7.28-.208-9.62-.832Zm3.588,8.58c-3.224,3.848-4.784,7.332-4.784,10.712a8.711,8.711,0,0,0,1.56,5.1c2.288,3.068,6.448,4.524,12.9,4.524a64.125,64.125,0,0,0,10.764-.988,17.38,17.38,0,0,1,2.132-.312l-.52-6.6a36.543,36.543,0,0,1-12.376,1.976c-5.408,0-8.268-1.56-8.268-4.524,0-2.236,1.092-4.472,3.692-7.488Zm78.1-6.5a151.883,151.883,0,0,1-1.2,20.28c-.572,3.484-1.352,4.42-3.8,4.42a45.916,45.916,0,0,1-8.944-1.04,24.311,24.311,0,0,1,1.456,6.292,60.846,60.846,0,0,0,7.8.572c3.12,0,4.94-.416,6.344-1.4,1.612-1.144,2.34-2.964,3.016-7.748.52-3.432,1.04-12.22,1.2-19.344a70.332,70.332,0,0,1,.312-7.852,56.483,56.483,0,0,1-6.708.26H151.32c.364-9.048.364-9.048.572-10.348h-6.916a27.2,27.2,0,0,1,.312,4.94c0,2.34-.052,3.848-.1,5.408h-9.256a44.994,44.994,0,0,1-6.6-.364v6.24a54.936,54.936,0,0,1,6.448-.312h9.048c-.78,6.084-1.664,9.62-3.276,12.844-2.808,5.668-7.54,9.828-14.664,12.948a17.562,17.562,0,0,1,4.316,5.408,42.127,42.127,0,0,0,9.1-6.5c5.2-4.836,7.9-9.984,9.62-18.148a55.139,55.139,0,0,0,.988-6.552Zm27.924-3.64a5.745,5.745,0,0,1,.832-.052c.468,0,.468,0,1.456.052,1.144,0,5.72.1,6.552.1,0,0,.676-.052.884-.052a2.544,2.544,0,0,0-.416.676,68.873,68.873,0,0,1-6.24,8.892,31.855,31.855,0,0,1-4.68,4.628l4.732,4.68a23.38,23.38,0,0,1,4.524-4.732c4-3.536,7.644-5.356,10.66-5.356a2.854,2.854,0,0,1,3.172,2.808c-5.876,2.444-8.84,4.42-11.18,7.332a8.287,8.287,0,0,0-2.288,5.772,7.54,7.54,0,0,0,3.8,6.708c2.652,1.56,6.084,2.184,11.6,2.184a94.316,94.316,0,0,0,13.312-.936,15.322,15.322,0,0,1,2.392-.208l-.52-6.708c-3.692,1.4-9.048,2.184-15.288,2.184-6.292,0-8.788-1.092-8.788-3.8,0-1.508.884-2.912,2.7-4.264a31.6,31.6,0,0,1,4.992-2.7V87a41.166,41.166,0,0,1-.312,6.032l6.032-.156a21.352,21.352,0,0,1-.156-2.756c0-.364,0-.832.052-1.716v-2.08c0-.728,0-.728-.052-2.08v-.572q6.708-2.34,7.8-2.652a45.9,45.9,0,0,1,5.772-1.4l-2.444-5.98c-.832.52-1.04.572-3.848,1.56q-1.95.624-7.956,2.808c-.832-3.588-3.38-5.512-7.436-5.512a12.57,12.57,0,0,0-7.332,2.34c-.676.52-.676.52-1.04.78l-.052-.1a26.908,26.908,0,0,0,4.784-6.916c5.252-.156,11.856-.572,15.652-1.04,2.652-.312,2.652-.312,4.108-.416l-.364-5.928c-2.86.832-7.592,1.4-13.624,1.768-2.86.156-2.86.156-3.276.208.1-.208.208-.364.468-.936a39.731,39.731,0,0,1,2.08-4.68l-6.812-.728a20.593,20.593,0,0,1-2.08,6.448c-6.6,0-9.932-.208-12.064-.676ZM266.6,62.56c.052-.416.052-.52.1-.884.1-1.352.208-2.288.208-2.652.1-.988.208-1.716.312-2.444l-6.448-.052c0,.416,0,.416.052,1.3a8.833,8.833,0,0,1,.052,1.248c0,2.028-.208,5.2-.52,9a113.06,113.06,0,0,1-1.716,11.648c3.172-.26,6.032-.364,8.06-.364h21.008a89.537,89.537,0,0,1-1.56,14.2c-.832,3.9-1.352,4.42-4.368,4.42a71.526,71.526,0,0,1-10.5-.936,28.52,28.52,0,0,1,1.976,6.24c4.524.312,5.98.416,8.32.416,5.876,0,7.8-.988,9.36-4.784,1.352-3.38,2.236-9.516,2.808-19.76.208-3.848.208-3.848.364-5.3a32.738,32.738,0,0,1-5.3.26h-23.3c.468-3.9.52-4.108.676-6.136h22.048c2.7,0,4.472.1,6.136.26v-5.98a42.636,42.636,0,0,1-6.4.312Zm18.72,22.516a59.659,59.659,0,0,1-6.24.312H258.8a60.176,60.176,0,0,1-6.656-.312V91c2.08-.208,4.264-.312,6.6-.312h20.28a60.677,60.677,0,0,1,6.292.312Zm39.884-21.944c7.176,1.82,11.232,2.444,21.58,3.068l.988-5.824a74.6,74.6,0,0,1-20.7-2.912ZM321,77.172c1.716-.208,2.08-.26,4-.416,1.716-.156,1.716-.156,2.7-.26,4.524-.364,4.524-.364,5.252-.416,2.444-.208,3.8-.416,6.76-.884q-3.978,3.744-6.084,5.772c-3.9,3.744-4.836,4.628-6.032,5.72-9.776,8.84-9.776,8.84-12.064,10.4l4.784,5.408c1.872-2.184,4.68-5.2,7.332-7.748,4.212-4.056,6.552-5.512,9-5.512a2.4,2.4,0,0,1,2.184,1.092,8.452,8.452,0,0,1,.52,3.328c.26,4.108.676,5.356,2.132,6.708,1.508,1.4,3.588,1.976,7.28,1.976a45.677,45.677,0,0,0,7.28-.624c3.38-.52,3.692-.572,4.576-.624l-.78-6.448A27.65,27.65,0,0,1,349.6,96.62c-3.432,0-4.108-.728-4.472-4.836-.208-2.912-.416-3.64-1.144-4.784a4.685,4.685,0,0,0-4.316-2.184,8,8,0,0,0-3.172.624c1.612-1.248,6.084-5.252,8.892-7.956a34.343,34.343,0,0,1,4.42-3.9l-3.484-4.472a12.939,12.939,0,0,1-4.16.832,178.593,178.593,0,0,1-18.46,1.144,21.993,21.993,0,0,1-3.068-.156ZM421.148,94.488c-.728-.416-.988-.624-1.872-1.2-5.616-3.952-9.672-5.98-14.248-7.332-.052-1.248-.052-1.248-.208-6.292,2.028-.1,2.808-.156,3.536-.208,3.9-.364,6.24-.624,7.02-.728,1.2-.156,2.5-.312,3.38-.364l-.156-5.72a38.484,38.484,0,0,1-6.448,1.144c-4.784.52-4.784.52-7.384.676-.052-3.224-.052-3.848-.1-5.148,4.576-.26,6.6-.416,11.18-1.04a32.525,32.525,0,0,1,4.108-.468l-.26-5.772c-3.38.988-7.9,1.56-14.976,1.976a32.241,32.241,0,0,1,.364-6.344h-6.6c.208,1.3.208,1.352.26,6.552-1.3.052-3.068.1-3.9.1-5.98,0-11.336-.416-13.988-1.092l-.052,5.772h.832c.156,0,.572,0,1.144.052,3.484.26,10.192.52,12.74.52.78,0,1.612,0,3.276-.052.052,2.964.052,4.732.052,5.2-1.456.052-3.224.1-4.264.1a67.052,67.052,0,0,1-12.116-.884l-.1,5.616c.78,0,1.3,0,1.976.052,4.316.312,6.24.364,9.412.364,1.092,0,2.7-.052,5.2-.1.052,2.08.052,2.08.1,2.808v1.144a10.019,10.019,0,0,1,.052,1.248,27.168,27.168,0,0,0-3.484-.208c-8.736,0-13.884,3.328-13.884,9,0,5.148,4.368,8.112,11.96,8.112,3.8,0,6.6-.728,8.58-2.236s2.912-3.744,2.912-7.02v-.572a23.138,23.138,0,0,1,2.808,1.3,35.087,35.087,0,0,1,9.62,7.124Zm-21.944-4v1.248a6.592,6.592,0,0,1-.624,3.328c-.728,1.04-2.34,1.664-4.524,1.664-3.692,0-5.928-1.2-5.928-3.12,0-2.236,2.548-3.588,6.76-3.588A18.25,18.25,0,0,1,399.2,90.484ZM470.34,72.336v-3.38c4.108-.1,5.044-.1,6.292-.1,4.316,0,6.812.1,8.736.26l-.052-5.98c-1.924.208-5.98.312-15.028.364a40.888,40.888,0,0,1,.26-6.188L464,57.36c.26,1.352.26,1.352.312,6.292-2.7.1-2.7.1-4.42.156-4.264.1-4.784.1-8.164.208-6.708.26-7.54.26-8.84.26a22.644,22.644,0,0,1-2.548-.1l.208,6.188c1.4-.208,1.4-.208,9.256-.78,2.288-.156,7.176-.312,14.612-.52,0,1.4,0,4.316.052,4.42a2.143,2.143,0,0,0,.052.624,8.69,8.69,0,0,0-5.408-1.56c-6.032,0-10.348,3.952-10.348,9.464a8.125,8.125,0,0,0,3.588,7.02A9.583,9.583,0,0,0,458.38,90.9c3.432,0,6.136-1.3,7.644-3.692-.416,2.912-2.5,5.564-6.032,7.592-2.444,1.456-4.576,2.184-8.84,3.016a17.066,17.066,0,0,1,3.692,5.876c4.836-1.664,7.228-2.756,9.412-4.264C469.3,95.944,472,91.056,472,85.388a15.825,15.825,0,0,0-1.664-7.332c0-.624-.052-1.04-.052-1.248Zm-5.98,8.58c0,2.7-2.132,4.68-5.1,4.68a4.1,4.1,0,0,1-4.42-4.108c0-2.288,2.184-4.16,4.836-4.16C462.54,77.328,464.36,78.732,464.36,80.916Z" transform="translate(270 548)"/>
      <path id="路径_40414" data-name="路径 40414" d="M5-9.6a4.159,4.159,0,0,0-3.1,1.2A5.137,5.137,0,0,0,.54-4.656c0,3.048,1.752,5,4.476,5S9.5-1.62,9.5-4.656A5.175,5.175,0,0,0,8.16-8.4,4.205,4.205,0,0,0,5-9.6ZM5.04-1.08a2.591,2.591,0,0,1-1.86-.732,3.965,3.965,0,0,1-.972-2.832c0-2.172,1.092-3.54,2.82-3.54a2.583,2.583,0,0,1,1.848.732,3.876,3.876,0,0,1,.948,2.8C7.824-2.448,6.756-1.08,5.04-1.08ZM36.576-9.408a9.767,9.767,0,0,1,.1,1.644V-3.54a2.191,2.191,0,0,1-2.436,2.484,2.2,2.2,0,0,1-2.46-2.472V-7.764a9.41,9.41,0,0,1,.1-1.644H30.084a9.858,9.858,0,0,1,.1,1.644v4.236a3.865,3.865,0,0,0,.9,2.76A4.134,4.134,0,0,0,34.176.36c2.616,0,4.092-1.392,4.092-3.876v-4.26a9.7,9.7,0,0,1,.1-1.632ZM67.332.144c-.168-.324-.468-.972-.564-1.188C65.58-3.852,65.352-4.188,64.6-4.428a2.537,2.537,0,0,0,1.332-.7,2.467,2.467,0,0,0,.612-1.788c0-1.584-1.044-2.5-2.868-2.5h-2.88c-.66,0-1.032-.012-1.536-.036a10.677,10.677,0,0,1,.1,1.56v6.468a9.391,9.391,0,0,1-.1,1.56h1.788a9.364,9.364,0,0,1-.1-1.572V-3.876h1.788c.924,0,1.344.444,1.992,2.1a9.714,9.714,0,0,1,.624,1.92ZM60.948-5.244v-2.8h2.46c.984,0,1.476.444,1.476,1.308A1.424,1.424,0,0,1,64.5-5.676a1.617,1.617,0,0,1-1.14.432ZM116.7.144a9.771,9.771,0,0,1,.528-1.6l1.8-4.224a14.644,14.644,0,0,0,.552-1.752c-.012.18-.048.792-.1,1.836v3.984a11.156,11.156,0,0,1-.1,1.752h1.68a10.4,10.4,0,0,1-.1-1.752V-7.632a12.427,12.427,0,0,1,.1-1.776H118.86a6.65,6.65,0,0,1-.432,1.428L116-2.028,113.568-7.98a8.305,8.305,0,0,1-.444-1.428h-2.2a11.9,11.9,0,0,1,.1,1.776v6.024a11.254,11.254,0,0,1-.1,1.752h1.68a10.964,10.964,0,0,1-.1-1.752V-5.544c0-.264-.048-1.248-.1-1.884a13.354,13.354,0,0,0,.612,1.836l1.728,4.116a8.169,8.169,0,0,1,.528,1.62Zm25.272-9.552a8.966,8.966,0,0,1,.1,1.548V-1.4a9.055,9.055,0,0,1-.1,1.548H143.8a9.055,9.055,0,0,1-.1-1.548V-7.86a8.966,8.966,0,0,1,.1-1.548Zm22.4,6.756a4.1,4.1,0,0,0,.228,1A2.825,2.825,0,0,0,165.66-.288a4.825,4.825,0,0,0,2.52.624,3.977,3.977,0,0,0,2.868-.912,2.792,2.792,0,0,0,.756-2.04,2.368,2.368,0,0,0-1-2.064,5.283,5.283,0,0,0-1.956-.732,10.216,10.216,0,0,1-1.692-.432,1.141,1.141,0,0,1-.816-1.092c0-.78.708-1.308,1.752-1.308a1.9,1.9,0,0,1,1.5.576,1.55,1.55,0,0,1,.36.852l1.716-.2a3.235,3.235,0,0,0-.588-1.392A3.537,3.537,0,0,0,168.1-9.624c-2.064,0-3.408,1.08-3.408,2.748a2.362,2.362,0,0,0,.924,1.944,4.242,4.242,0,0,0,1.812.732,7.566,7.566,0,0,1,2.088.588,1.218,1.218,0,0,1,.6,1.1c0,.9-.72,1.44-1.92,1.44a2.13,2.13,0,0,1-1.752-.708,1.72,1.72,0,0,1-.336-1.056Zm27.78,0a4.1,4.1,0,0,0,.228,1A2.825,2.825,0,0,0,193.44-.288a4.825,4.825,0,0,0,2.52.624,3.977,3.977,0,0,0,2.868-.912,2.792,2.792,0,0,0,.756-2.04,2.368,2.368,0,0,0-1-2.064,5.283,5.283,0,0,0-1.956-.732,10.216,10.216,0,0,1-1.692-.432,1.141,1.141,0,0,1-.816-1.092c0-.78.708-1.308,1.752-1.308a1.9,1.9,0,0,1,1.5.576,1.55,1.55,0,0,1,.36.852l1.716-.2a3.235,3.235,0,0,0-.588-1.392,3.537,3.537,0,0,0-2.988-1.212c-2.064,0-3.408,1.08-3.408,2.748a2.362,2.362,0,0,0,.924,1.944A4.242,4.242,0,0,0,195.2-4.2a7.566,7.566,0,0,1,2.088.588,1.218,1.218,0,0,1,.6,1.1c0,.9-.72,1.44-1.92,1.44a2.13,2.13,0,0,1-1.752-.708,1.72,1.72,0,0,1-.336-1.056Zm28.092-6.756a8.966,8.966,0,0,1,.1,1.548V-1.4a9.055,9.055,0,0,1-.1,1.548h1.824a9.055,9.055,0,0,1-.1-1.548V-7.86a8.966,8.966,0,0,1,.1-1.548ZM247.116-9.6a4.159,4.159,0,0,0-3.1,1.2,5.137,5.137,0,0,0-1.368,3.744c0,3.048,1.752,5,4.476,5s4.488-1.968,4.488-5A5.175,5.175,0,0,0,250.272-8.4,4.205,4.205,0,0,0,247.116-9.6Zm.036,8.52a2.591,2.591,0,0,1-1.86-.732,3.965,3.965,0,0,1-.972-2.832c0-2.172,1.092-3.54,2.82-3.54a2.583,2.583,0,0,1,1.848.732,3.876,3.876,0,0,1,.948,2.8C249.936-2.448,248.868-1.08,247.152-1.08ZM280.368.144a9.055,9.055,0,0,1-.1-1.548V-7.752a10.493,10.493,0,0,1,.1-1.656h-1.752a10.489,10.489,0,0,1,.1,1.656V-3.72c0,.5.036,1.224.084,1.692-.264-.48-.648-1.1-.936-1.536l-3.036-4.572a6.582,6.582,0,0,1-.732-1.272H272.22a9.993,9.993,0,0,1,.1,1.548v6.192a12.983,12.983,0,0,1-.1,1.812h1.752a13.282,13.282,0,0,1-.1-1.8V-5.592c0-.276-.024-.816-.036-1.044-.036-.444-.036-.444-.048-.612.288.564.588,1.08.816,1.44l3.1,4.668a11.958,11.958,0,0,1,.768,1.284Z" transform="translate(270 448)"/>
      <path id="路径_40416" data-name="路径 40416" d="M28.34-31.668H39.728a38.808,38.808,0,0,1,6.24.312v-6.032a35.871,35.871,0,0,1-6.292.364H28.34v-3.12a18.189,18.189,0,0,1,.26-3.744H22.256a19.539,19.539,0,0,1,.26,3.692v3.172H12.272a38.833,38.833,0,0,1-6.24-.364v6.032a41.937,41.937,0,0,1,6.292-.312H22.516v7.228H9.36a51.4,51.4,0,0,1-6.188-.312v6.032a54.858,54.858,0,0,1,6.24-.312h10.5a40.556,40.556,0,0,1-6.4,7.436A47.468,47.468,0,0,1,1.508-3.484,26.861,26.861,0,0,1,5.1,1.768a52.419,52.419,0,0,0,10.3-7.644,38.71,38.71,0,0,0,7.28-8.684c-.1,2.132-.156,3.224-.156,4.888V-1.3a33.929,33.929,0,0,1-.364,5.564H28.7a37.748,37.748,0,0,1-.364-5.616v-8.58c0-1.092-.052-1.924-.156-4.836a36.829,36.829,0,0,0,7.9,9.308A51.9,51.9,0,0,0,46.852,2.08a29.593,29.593,0,0,1,3.536-5.616,46.341,46.341,0,0,1-12.22-7.436,37.625,37.625,0,0,1-7.228-8.06H42.588a52.075,52.075,0,0,1,6.292.312v-6.032a47.523,47.523,0,0,1-6.292.312H28.34ZM85.072-21.84H76.7l4.108-1.82a51.439,51.439,0,0,0-4.316-9.048L71.6-30.524a39.92,39.92,0,0,1,4,8.684H71.136a37.849,37.849,0,0,1-6.032-.312v5.876a52.623,52.623,0,0,1,6.084-.312H81.744a36.665,36.665,0,0,1-4.732,5.512A46.189,46.189,0,0,1,64.272-2.7a26.876,26.876,0,0,1,3.536,5.2A48.6,48.6,0,0,0,76.6-3.328,38.3,38.3,0,0,0,85.228-13.1c-.156,2.236-.156,3.224-.156,4.836v7.28a31.835,31.835,0,0,1-.364,5.3h6.448a33.554,33.554,0,0,1-.364-5.3V-8.32c0-1.092-.052-1.976-.208-4.94A40.192,40.192,0,0,0,97.5-5.252,51.159,51.159,0,0,0,109.3,2.6a22.729,22.729,0,0,1,3.484-5.46C104.208-6.344,98.9-10.244,94.12-16.588h11.44a51.139,51.139,0,0,1,6.24.312v-5.876a32.762,32.762,0,0,1-5.98.312h-5.46a53.266,53.266,0,0,0,4.524-8.736l-5.46-1.768a47.718,47.718,0,0,1-5.1,10.5H90.792V-33.176h12.74a35.03,35.03,0,0,1,5.824.312v-5.824a35.275,35.275,0,0,1-6.188.364H90.792v-1.4a22.359,22.359,0,0,1,.26-4.056h-6.24a31.715,31.715,0,0,1,.26,4v1.456H73.632a39.7,39.7,0,0,1-6.084-.364v5.824a45.9,45.9,0,0,1,5.772-.312H85.072Z" transform="translate(270 548)" fill="#0080f4"/>
    </g>
  </g>
</svg>
