<svg xmlns="http://www.w3.org/2000/svg" xmlns:xlink="http://www.w3.org/1999/xlink" width="20.4" height="21" viewBox="0 0 20.4 21">
  <defs>
    <linearGradient id="linear-gradient" x1="1.277" y1="1.963" x2="0.102" y2="0.208" gradientUnits="objectBoundingBox">
      <stop offset="0" stop-color="#2f30ea"/>
      <stop offset="1" stop-color="#f81a20"/>
    </linearGradient>
  </defs>
  <g id="_01" data-name="01" transform="translate(-327.6 -1004)">
    <path id="路径_36892" data-name="路径 36892" d="M5.325.42A4.258,4.258,0,0,0,8.97-1.35a7.878,7.878,0,0,0,1.11-4.44,10.088,10.088,0,0,0-.585-3.48,4.2,4.2,0,0,0-.99-1.515A4.357,4.357,0,0,0,5.34-12,4.265,4.265,0,0,0,1.515-9.915,8.832,8.832,0,0,0,.6-5.76a10.039,10.039,0,0,0,.585,3.45A4.2,4.2,0,0,0,2.175-.8,4.321,4.321,0,0,0,5.325.42ZM5.34-1.32A2.2,2.2,0,0,1,3.42-2.3a6.747,6.747,0,0,1-.765-3.57,5.6,5.6,0,0,1,.99-3.645,2.017,2.017,0,0,1,1.68-.765,2.168,2.168,0,0,1,1.635.63,5.817,5.817,0,0,1,1.05,3.84A5.78,5.78,0,0,1,6.96-1.95,2.18,2.18,0,0,1,5.34-1.32ZM18.9.18a12.574,12.574,0,0,1-.12-1.95V-9.36a22.6,22.6,0,0,1,.12-2.475,10.909,10.909,0,0,1-1.53.075H15.99a8.336,8.336,0,0,1-1.5-.09v1.9a13.34,13.34,0,0,1,1.545-.09h.72V-1.77a12.451,12.451,0,0,1-.12,1.95Z" transform="translate(327 1016)" fill="url(#linear-gradient)"/>
    <rect id="矩形_167" data-name="矩形 167" width="20" height="2" transform="translate(328 1023)" fill="#2d3436"/>
  </g>
</svg>
