<svg xmlns="http://www.w3.org/2000/svg" xmlns:xlink="http://www.w3.org/1999/xlink" width="21.435" height="21.03" viewBox="0 0 21.435 21.03">
  <defs>
    <linearGradient id="linear-gradient" x1="1.277" y1="1.963" x2="0.102" y2="0.208" gradientUnits="objectBoundingBox">
      <stop offset="0" stop-color="#2f30ea"/>
      <stop offset="1" stop-color="#f81a20"/>
    </linearGradient>
  </defs>
  <g id="_03" data-name="03" transform="translate(-381 -2250.97)">
    <rect id="矩形_1996" data-name="矩形 1996" width="20" height="2" transform="translate(382 2270)" fill="#2d3436"/>
    <path id="路径_36893" data-name="路径 36893" d="M5.325.42A4.258,4.258,0,0,0,8.97-1.35a7.878,7.878,0,0,0,1.11-4.44,10.088,10.088,0,0,0-.585-3.48,4.2,4.2,0,0,0-.99-1.515A4.357,4.357,0,0,0,5.34-12,4.265,4.265,0,0,0,1.515-9.915,8.832,8.832,0,0,0,.6-5.76a10.039,10.039,0,0,0,.585,3.45A4.2,4.2,0,0,0,2.175-.8,4.321,4.321,0,0,0,5.325.42ZM5.34-1.32A2.2,2.2,0,0,1,3.42-2.3a6.747,6.747,0,0,1-.765-3.57,5.6,5.6,0,0,1,.99-3.645,2.017,2.017,0,0,1,1.68-.765,2.168,2.168,0,0,1,1.635.63,5.817,5.817,0,0,1,1.05,3.84A5.78,5.78,0,0,1,6.96-1.95,2.18,2.18,0,0,1,5.34-1.32Zm7.455-1.335a3.962,3.962,0,0,0,.84,1.68A4.685,4.685,0,0,0,17.445.45a5.181,5.181,0,0,0,3.69-1.215,3.176,3.176,0,0,0,.9-2.19,2.881,2.881,0,0,0-.72-2.07A3.156,3.156,0,0,0,19.17-6.03a3.7,3.7,0,0,0,1.455-.585,2.735,2.735,0,0,0,1.035-2.2c0-1.95-1.62-3.21-4.125-3.21a4.87,4.87,0,0,0-2.94.825A3.727,3.727,0,0,0,13.17-9.06l2.145.36a2.2,2.2,0,0,1,.63-1.155,2.5,2.5,0,0,1,1.635-.465c1.275,0,1.98.585,1.98,1.62,0,1.155-.885,1.845-2.385,1.845A10.283,10.283,0,0,1,15.72-6.93v1.86a12.808,12.808,0,0,1,1.605-.075,3.886,3.886,0,0,1,1.725.36,1.748,1.748,0,0,1,.84,1.575c0,1.185-.945,1.95-2.43,1.95a2.832,2.832,0,0,1-1.815-.585,1.948,1.948,0,0,1-.7-1.23Z" transform="translate(380.4 2263)" fill="url(#linear-gradient)"/>
  </g>
</svg>
