<svg xmlns="http://www.w3.org/2000/svg" width="603.409" height="541.952" viewBox="0 0 603.409 541.952">
  <g id="产品_社群应用_02" transform="translate(0.5)">
    <g id="组_2023" data-name="组 2023" transform="translate(0 0)">
      <g id="组_2005" data-name="组 2005" transform="translate(64.108 42.91)">
        <path id="路径_6804" data-name="路径 6804" d="M634.342,361.21,364.192,197.582,96.45,365.313,355.5,525.873Z" transform="translate(-96.45 -91.805)" fill="none" stroke="#2d3436" stroke-linecap="round" stroke-linejoin="round" stroke-width="1.818"/>
        <g id="组_1975" data-name="组 1975" transform="translate(299.477 313.95)">
          <path id="路径_6805" data-name="路径 6805" d="M367.3,346.118l-60.381-32.674L263.129,339.6l58.346,33.928Z" transform="translate(-263.129 -313.444)" fill="none" stroke="#2d3436" stroke-linecap="round" stroke-linejoin="round" stroke-width="0.549"/>
        </g>
        <g id="组_1978" data-name="组 1978" transform="translate(104.739 116.535)">
          <path id="路径_6806" data-name="路径 6806" d="M292.391,412.6,166.457,336.8V258.579l125.931,75.26Z" transform="translate(-145.412 -159.742)" fill="none" stroke="#2d3436" stroke-linecap="round" stroke-linejoin="round" stroke-width="0.549"/>
          <path id="路径_6807" data-name="路径 6807" d="M169.823,270.972v10.552L280.968,348.4V337.617Z" transform="translate(-142.731 -149.868)" fill="none" stroke="#2d3436" stroke-linecap="round" stroke-linejoin="round" stroke-width="0.549"/>
          <path id="路径_6808" data-name="路径 6808" d="M362.753,258.991v76.867l-126.2,76.41,0-78.757Z" transform="translate(-89.57 -159.414)" fill="none" stroke="#2d3436" stroke-linecap="round" stroke-linejoin="round" stroke-width="0.549"/>
          <g id="组_1977" data-name="组 1977">
            <g id="组_1976" data-name="组 1976">
              <path id="路径_6809" data-name="路径 6809" d="M434.35,287.322,297.494,209.069,160.065,291.761l130.1,80.769Z" transform="translate(-150.505 -199.188)" fill="none" stroke="#2d3436" stroke-linecap="round" stroke-linejoin="round" stroke-width="0.549"/>
              <path id="路径_6810" data-name="路径 6810" d="M446.118,290.727,298.895,206.62l-144.15,86.472,140.11,86.754Z" transform="translate(-154.744 -201.14)" fill="none" stroke="#2d3436" stroke-linecap="round" stroke-linejoin="round" stroke-width="0.549"/>
              <path id="路径_6811" data-name="路径 6811" d="M446.118,287.677,298.895,203.57l-144.15,86.472L294.855,376.8Z" transform="translate(-154.744 -203.57)" fill="none" stroke="#2d3436" stroke-linecap="round" stroke-linejoin="round" stroke-width="0.549"/>
              <path id="路径_6812" data-name="路径 6812" d="M429.879,284.855l-135.786-77.65-133.22,79.941,129.138,80.2Z" transform="translate(-149.862 -200.673)" fill="none" stroke="#2d3436" stroke-linecap="round" stroke-linejoin="round" stroke-width="0.549"/>
              <path id="路径_6813" data-name="路径 6813" d="M421.415,285.538l-129.457-74.7L163.654,287.5l124.14,76.941Z" transform="translate(-147.646 -197.776)" fill="none" stroke="#2d3436" stroke-linecap="round" stroke-linejoin="round" stroke-width="0.549"/>
              <path id="路径_6814" data-name="路径 6814" d="M383.989,255.861,232.725,344.98V339.5l151.264-89.119Z" transform="translate(-92.615 -166.274)" fill="none" stroke="#2d3436" stroke-linecap="round" stroke-linejoin="round" stroke-width="0.549"/>
            </g>
            <path id="路径_6815" data-name="路径 6815" d="M154.744,257.177V251.7l140.11,86.755v5.48Z" transform="translate(-154.744 -165.225)" fill="none" stroke="#2d3436" stroke-linecap="round" stroke-linejoin="round" stroke-width="0.549"/>
          </g>
        </g>
        <path id="路径_6816" data-name="路径 6816" d="M519.469,288.652,240.631,453.315v8.522L519.469,297.173Z" transform="translate(18.423 -19.247)" fill="none" stroke="#2d3436" stroke-linecap="round" stroke-linejoin="round" stroke-width="1.818"/>
        <path id="路径_6817" data-name="路径 6817" d="M355.5,451.5,96.45,290.936v8.522L355.5,460.017Z" transform="translate(-96.45 -17.428)" fill="none" stroke="#2d3436" stroke-linecap="round" stroke-linejoin="round" stroke-width="1.818"/>
        <path id="路径_6818" data-name="路径 6818" d="M296.951,282.593v58.831l-28.6,16.966V298.554Z" transform="translate(40.505 -24.075)" fill="none" stroke="#2d3436" stroke-linecap="round" stroke-linejoin="round" stroke-width="0.549"/>
        <path id="路径_6819" data-name="路径 6819" d="M296.951,282.593v58.449l-28.6,17.348V298.554Z" transform="translate(40.505 -24.075)" fill="none" stroke="#2d3436" stroke-linecap="round" stroke-linejoin="round" stroke-width="0.549"/>
        <path id="路径_6820" data-name="路径 6820" d="M310.24,272.609v39.675l-19.652,11.3V283.681Z" transform="translate(58.225 -32.029)" fill="none" stroke="#2d3436" stroke-linecap="round" stroke-linejoin="round" stroke-width="0.549"/>
        <path id="路径_6821" data-name="路径 6821" d="M267.494,296.067v39.675l-19.652,11.3V307.139Z" transform="translate(24.169 -13.339)" fill="none" stroke="#2d3436" stroke-linecap="round" stroke-linejoin="round" stroke-width="0.549"/>
        <g id="组_1979" data-name="组 1979" transform="translate(308.852 266.83)">
          <line id="直线_6" data-name="直线 6" x1="28.723" y2="16.391" stroke-width="0.549" stroke="#2d3436" stroke-linecap="round" stroke-linejoin="round" fill="none"/>
          <line id="直线_7" data-name="直线 7" x1="28.723" y2="16.391" transform="translate(0 14.518)" fill="none" stroke="#2d3436" stroke-linecap="round" stroke-linejoin="round" stroke-width="0.549"/>
          <line id="直线_8" data-name="直线 8" x1="28.723" y2="16.391" transform="translate(0 29.035)" fill="none" stroke="#2d3436" stroke-linecap="round" stroke-linejoin="round" stroke-width="0.549"/>
          <line id="直线_9" data-name="直线 9" x1="28.723" y2="16.391" transform="translate(0 43.553)" fill="none" stroke="#2d3436" stroke-linecap="round" stroke-linejoin="round" stroke-width="0.549"/>
        </g>
        <g id="组_1991" data-name="组 1991" transform="translate(175.505)">
          <g id="组_1990" data-name="组 1990">
            <g id="组_1983" data-name="组 1983" transform="translate(10.671 42.192)">
              <g id="组_1982" data-name="组 1982">
                <g id="组_1980" data-name="组 1980">
                  <path id="路径_6822" data-name="路径 6822" d="M318.431,355.129l-118.362-68.3.007-124.638,118.355,70.733Z" transform="translate(-200.069 -162.192)" fill="none" stroke="#2d3436" stroke-linecap="round" stroke-linejoin="round" stroke-width="0.549"/>
                </g>
                <g id="组_1981" data-name="组 1981" transform="translate(118.362 35.847)">
                  <path id="路径_6823" data-name="路径 6823" d="M325.253,182.144V304l-59.307,35.237v-122.2Z" transform="translate(-265.946 -182.144)" fill="none" stroke="#2d3436" stroke-linecap="round" stroke-linejoin="round" stroke-width="0.549"/>
                </g>
              </g>
            </g>
            <g id="组_1989" data-name="组 1989">
              <g id="组_1988" data-name="组 1988">
                <g id="组_1984" data-name="组 1984" transform="translate(6.206 6.414)">
                  <path id="路径_6824" data-name="路径 6824" d="M384.254,214.844,255.737,142.28l-58.152,34.9,124.128,74.2Z" transform="translate(-197.584 -142.28)" fill="none" stroke="#2d3436" stroke-linecap="round" stroke-linejoin="round" stroke-width="0.549"/>
                </g>
                <g id="组_1985" data-name="组 1985" transform="translate(0 3.558)">
                  <path id="路径_6825" data-name="路径 6825" d="M391.894,217.055,256.647,140.69,194.13,178.044l130.629,78.083Z" transform="translate(-194.13 -140.69)" fill="none" stroke="#2d3436" stroke-linecap="round" stroke-linejoin="round" stroke-width="0.549"/>
                </g>
                <path id="路径_6826" data-name="路径 6826" d="M391.894,215.075,256.647,138.71,194.13,176.064l130.629,78.083Z" transform="translate(-194.13 -138.71)" fill="none" stroke="#2d3436" stroke-linecap="round" stroke-linejoin="round" stroke-width="0.549"/>
                <g id="组_1986" data-name="组 1986" transform="translate(7.149 4.241)">
                  <path id="路径_6827" data-name="路径 6827" d="M381.351,213.242,253.529,141.07l-55.42,33.114,123.505,73.825Z" transform="translate(-198.109 -141.07)" fill="none" stroke="#2d3436" stroke-linecap="round" stroke-linejoin="round" stroke-width="0.549"/>
                </g>
                <g id="组_1987" data-name="组 1987" transform="translate(10.298 8.481)">
                  <path id="路径_6828" data-name="路径 6828" d="M375.9,213.686,252.185,143.43l-52.323,30.761,120.356,71.937Z" transform="translate(-199.862 -143.43)" fill="none" stroke="#2d3436" stroke-linecap="round" stroke-linejoin="round" stroke-width="0.549"/>
                </g>
                <path id="路径_6829" data-name="路径 6829" d="M333.968,184.77l-67.134,39.073v-3.558l67.134-39.073Z" transform="translate(-136.205 -104.847)" fill="none" stroke="#2d3436" stroke-linecap="round" stroke-linejoin="round" stroke-width="0.549"/>
              </g>
              <path id="路径_6830" data-name="路径 6830" d="M194.13,163.057V159.5l130.629,78.083v3.557Z" transform="translate(-194.13 -122.146)" fill="none" stroke="#2d3436" stroke-linecap="round" stroke-linejoin="round" stroke-width="0.549"/>
            </g>
          </g>
        </g>
        <g id="组_1998" data-name="组 1998" transform="translate(180.062 154.228)">
          <g id="组_1997" data-name="组 1997">
            <g id="组_1996" data-name="组 1996">
              <g id="组_1992" data-name="组 1992" transform="translate(2.911 17.487)">
                <path id="路径_6831" data-name="路径 6831" d="M252.116,234.281l-41.672,1.628-12.157,25.719,24.5-10.212Z" transform="translate(-198.287 -234.281)" fill="none" stroke="#2d3436" stroke-linecap="round" stroke-linejoin="round" stroke-width="0.549"/>
              </g>
              <g id="组_1993" data-name="组 1993" transform="translate(0 17.775)">
                <path id="路径_6832" data-name="路径 6832" d="M255.7,260.052l-44.829-25.611-14.2,26.869,27.545,17.067Z" transform="translate(-196.667 -234.442)" fill="none" stroke="#2d3436" stroke-linecap="round" stroke-linejoin="round" stroke-width="0.549"/>
              </g>
              <path id="路径_6833" data-name="路径 6833" d="M255.7,240.809l-29.711-16.261-29.322,17.52,27.545,17.067Z" transform="translate(-196.667 -224.548)" fill="none" stroke="#2d3436" stroke-linecap="round" stroke-linejoin="round" stroke-width="0.549"/>
              <g id="组_1994" data-name="组 1994" transform="translate(3.353 1.989)">
                <path id="路径_6834" data-name="路径 6834" d="M250.755,239.95l-26.229-14.295-25.994,15.532,24.2,15.07Z" transform="translate(-198.533 -225.655)" fill="none" stroke="#2d3436" stroke-linecap="round" stroke-linejoin="round" stroke-width="0.549"/>
              </g>
              <g id="组_1995" data-name="组 1995" transform="translate(4.83 3.978)">
                <path id="路径_6835" data-name="路径 6835" d="M248.2,240.158l-24.3-13.4L199.355,241.19l22.727,14.184Z" transform="translate(-199.355 -226.762)" fill="none" stroke="#2d3436" stroke-linecap="round" stroke-linejoin="round" stroke-width="0.549"/>
              </g>
              <path id="路径_6836" data-name="路径 6836" d="M243.486,260.724,212,279.049V251.925L243.486,233.6Z" transform="translate(-184.452 -217.338)" fill="none" stroke="#2d3436" stroke-linecap="round" stroke-linejoin="round" stroke-width="0.549"/>
            </g>
            <path id="路径_6837" data-name="路径 6837" d="M196.667,261.424V234.3l27.545,17.067v27.124Z" transform="translate(-196.667 -216.779)" fill="none" stroke="#2d3436" stroke-linecap="round" stroke-linejoin="round" stroke-width="0.549"/>
          </g>
        </g>
        <path id="路径_6838" data-name="路径 6838" d="M303.744,197.785v80.046L280.5,290.684V210.3Z" transform="translate(50.189 -91.643)" fill="none" stroke="#2d3436" stroke-linecap="round" stroke-linejoin="round" stroke-width="0.549"/>
        <g id="组_2001" data-name="组 2001" transform="translate(217.332 201.559)">
          <path id="路径_6839" data-name="路径 6839" d="M218.886,279.423l1.054.585V265.845h-1.171Z" transform="translate(-216.327 -238.977)" fill="none" stroke="#2d3436" stroke-linecap="round" stroke-linejoin="round" stroke-width="1.581"/>
          <path id="路径_6840" data-name="路径 6840" d="M220.473,279.423l-1.054.585V265.845h1.171Z" transform="translate(-215.809 -238.977)" fill="none" stroke="#2d3436" stroke-linecap="round" stroke-linejoin="round" stroke-width="1.581"/>
          <path id="路径_6841" data-name="路径 6841" d="M274.614,272.606,263.3,250.891,217.41,276.53l11.361,22.788Z" transform="translate(-217.41 -250.891)" fill="none" stroke="#2d3436" stroke-linecap="round" stroke-linejoin="round" stroke-width="0.549"/>
          <path id="路径_6842" data-name="路径 6842" d="M270.316,269.534l-8.882-17.045-41.291,23.07,8.967,17.985Z" transform="translate(-215.232 -249.618)" fill="#fff"/>
          <g id="组_1999" data-name="组 1999" transform="translate(5.674 4.396)">
            <line id="直线_10" data-name="直线 10" x1="41.27" y2="22.929" fill="#8be8c1" stroke="#2d3436" stroke-width="1"/>
            <line id="直线_11" data-name="直线 11" x1="41.243" y2="23.054" transform="translate(1.237 2.335)" fill="#8be8c1" stroke="#2d3436" stroke-width="1"/>
            <line id="直线_12" data-name="直线 12" x1="41.216" y2="23.179" transform="translate(2.474 4.669)" fill="#8be8c1" stroke="#2d3436" stroke-width="1"/>
            <line id="直线_13" data-name="直线 13" x1="41.189" y2="23.305" transform="translate(3.71 7.004)" fill="#8be8c1" stroke="#2d3436" stroke-width="1"/>
            <line id="直线_14" data-name="直线 14" x1="41.161" y2="23.43" transform="translate(4.947 9.338)" fill="#8be8c1" stroke="#2d3436" stroke-width="1"/>
            <line id="直线_15" data-name="直线 15" x1="41.134" y2="23.555" transform="translate(6.184 11.673)" fill="#8be8c1" stroke="#2d3436" stroke-width="1"/>
            <line id="直线_16" data-name="直线 16" x1="41.107" y2="23.68" transform="translate(7.421 14.007)" fill="#8be8c1" stroke="#2d3436" stroke-width="1"/>
          </g>
          <g id="组_2000" data-name="组 2000" transform="translate(6.425 3.728)">
            <line id="直线_17" data-name="直线 17" x1="8.755" y1="16.926" transform="translate(38.438)" fill="none" stroke="#2d3436" stroke-width="1"/>
            <line id="直线_18" data-name="直线 18" x1="8.785" y1="17.017" transform="translate(34.944 1.941)" fill="none" stroke="#2d3436" stroke-width="1"/>
            <line id="直线_19" data-name="直线 19" x1="8.816" y1="17.108" transform="translate(31.45 3.881)" fill="none" stroke="#2d3436" stroke-width="1"/>
            <line id="直线_20" data-name="直线 20" x1="8.846" y1="17.199" transform="translate(27.955 5.822)" fill="none" stroke="#2d3436" stroke-width="1"/>
            <line id="直线_21" data-name="直线 21" x1="8.876" y1="17.29" transform="translate(24.461 7.762)" fill="none" stroke="#2d3436" stroke-width="1"/>
            <line id="直线_22" data-name="直线 22" x1="8.907" y1="17.381" transform="translate(20.966 9.703)" fill="none" stroke="#2d3436" stroke-width="1"/>
            <line id="直线_23" data-name="直线 23" x1="8.937" y1="17.472" transform="translate(17.472 11.643)" fill="none" stroke="#2d3436" stroke-width="1"/>
            <line id="直线_24" data-name="直线 24" x1="8.967" y1="17.563" transform="translate(13.978 13.584)" fill="none" stroke="#2d3436" stroke-width="1"/>
            <line id="直线_25" data-name="直线 25" x1="8.998" y1="17.654" transform="translate(10.483 15.524)" fill="none" stroke="#2d3436" stroke-width="1"/>
            <line id="直线_26" data-name="直线 26" x1="9.028" y1="17.745" transform="translate(6.989 17.465)" fill="none" stroke="#2d3436" stroke-width="1"/>
            <line id="直线_27" data-name="直线 27" x1="9.058" y1="17.836" transform="translate(3.494 19.405)" fill="none" stroke="#2d3436" stroke-width="1"/>
            <line id="直线_28" data-name="直线 28" x1="9.088" y1="17.927" transform="translate(0 21.346)" fill="none" stroke="#2d3436" stroke-width="1"/>
          </g>
        </g>
        <g id="组_2004" data-name="组 2004" transform="translate(218.648 9.409)">
          <path id="路径_6843" data-name="路径 6843" d="M219.618,172.479l1.054.585V158.9H219.5Z" transform="translate(-217.06 -132.033)" fill="none" stroke="#2d3436" stroke-linecap="round" stroke-linejoin="round" stroke-width="1.581"/>
          <path id="路径_6844" data-name="路径 6844" d="M221.205,172.479l-1.054.585V158.9h1.171Z" transform="translate(-216.542 -132.033)" fill="none" stroke="#2d3436" stroke-linecap="round" stroke-linejoin="round" stroke-width="1.581"/>
          <path id="路径_6845" data-name="路径 6845" d="M275.346,165.662l-11.315-21.715-45.889,25.638L229.5,192.373Z" transform="translate(-218.142 -143.947)" fill="none" stroke="#2d3436" stroke-linecap="round" stroke-linejoin="round" stroke-width="0.549"/>
          <path id="路径_6846" data-name="路径 6846" d="M271.049,162.59l-8.882-17.045-41.291,23.07,8.967,17.985Z" transform="translate(-215.965 -142.674)" fill="#fff"/>
          <g id="组_2002" data-name="组 2002" transform="translate(5.674 4.396)">
            <line id="直线_29" data-name="直线 29" x1="41.27" y2="22.929" fill="#8be8c1" stroke="#2d3436" stroke-width="1"/>
            <line id="直线_30" data-name="直线 30" x1="41.243" y2="23.054" transform="translate(1.237 2.335)" fill="#8be8c1" stroke="#2d3436" stroke-width="1"/>
            <line id="直线_31" data-name="直线 31" x1="41.216" y2="23.179" transform="translate(2.474 4.669)" fill="#8be8c1" stroke="#2d3436" stroke-width="1"/>
            <line id="直线_32" data-name="直线 32" x1="41.189" y2="23.305" transform="translate(3.71 7.004)" fill="#8be8c1" stroke="#2d3436" stroke-width="1"/>
            <line id="直线_33" data-name="直线 33" x1="41.161" y2="23.43" transform="translate(4.947 9.338)" fill="#8be8c1" stroke="#2d3436" stroke-width="1"/>
            <line id="直线_34" data-name="直线 34" x1="41.134" y2="23.555" transform="translate(6.184 11.673)" fill="#8be8c1" stroke="#2d3436" stroke-width="1"/>
            <line id="直线_35" data-name="直线 35" x1="41.107" y2="23.68" transform="translate(7.421 14.007)" fill="#8be8c1" stroke="#2d3436" stroke-width="1"/>
          </g>
          <g id="组_2003" data-name="组 2003" transform="translate(6.425 3.728)">
            <line id="直线_36" data-name="直线 36" x1="8.755" y1="16.926" transform="translate(38.438)" fill="none" stroke="#2d3436" stroke-width="1"/>
            <line id="直线_37" data-name="直线 37" x1="8.785" y1="17.017" transform="translate(34.944 1.941)" fill="none" stroke="#2d3436" stroke-width="1"/>
            <line id="直线_38" data-name="直线 38" x1="8.816" y1="17.108" transform="translate(31.45 3.881)" fill="none" stroke="#2d3436" stroke-width="1"/>
            <line id="直线_39" data-name="直线 39" x1="8.846" y1="17.199" transform="translate(27.955 5.822)" fill="none" stroke="#2d3436" stroke-width="1"/>
            <line id="直线_40" data-name="直线 40" x1="8.876" y1="17.29" transform="translate(24.461 7.762)" fill="none" stroke="#2d3436" stroke-width="1"/>
            <line id="直线_41" data-name="直线 41" x1="8.907" y1="17.381" transform="translate(20.966 9.703)" fill="none" stroke="#2d3436" stroke-width="1"/>
            <line id="直线_42" data-name="直线 42" x1="8.937" y1="17.472" transform="translate(17.472 11.643)" fill="none" stroke="#2d3436" stroke-width="1"/>
            <line id="直线_43" data-name="直线 43" x1="8.967" y1="17.563" transform="translate(13.978 13.584)" fill="none" stroke="#2d3436" stroke-width="1"/>
            <line id="直线_44" data-name="直线 44" x1="8.997" y1="17.654" transform="translate(10.483 15.524)" fill="none" stroke="#2d3436" stroke-width="1"/>
            <line id="直线_45" data-name="直线 45" x1="9.028" y1="17.745" transform="translate(6.989 17.465)" fill="none" stroke="#2d3436" stroke-width="1"/>
            <line id="直线_46" data-name="直线 46" x1="9.058" y1="17.836" transform="translate(3.494 19.405)" fill="none" stroke="#2d3436" stroke-width="1"/>
            <line id="直线_47" data-name="直线 47" x1="9.088" y1="17.927" transform="translate(0 21.346)" fill="none" stroke="#2d3436" stroke-width="1"/>
          </g>
        </g>
      </g>
      <g id="组_2022" data-name="组 2022" transform="translate(0 9.458)">
        <g id="组_2007" data-name="组 2007" transform="translate(321.106)">
          <path id="路径_6847" data-name="路径 6847" d="M300.62,149.642H287.17l14.824-27.4h16.358L305.92,141.453h14.521l-25.959,32.46Z" transform="translate(-200.723 -122.241)" fill="#2d3436" stroke="#2d3436" stroke-width="1"/>
          <path id="路径_6848" data-name="路径 6848" d="M239.056,150.52V132.559h75.928" transform="translate(-239.056 -114.021)" fill="none" stroke="#2d3436" stroke-miterlimit="10" stroke-width="0.454" stroke-dasharray="1.818 1.818 1.818 1.818 1.818 1.818"/>
        </g>
        <g id="组_2009" data-name="组 2009" transform="translate(156.947 137.788)">
          <path id="路径_6849" data-name="路径 6849" d="M163.355,245.6a15.723,15.723,0,0,1-7.462-1.89A15.657,15.657,0,0,1,149.6,222.46l12.189-22.384a2.191,2.191,0,0,1,3.852,0l12.027,22.094a15.655,15.655,0,0,1-6.625,21.426l-.57.291A15.736,15.736,0,0,1,163.355,245.6Zm-9.9-21.043a11.267,11.267,0,0,0,4.528,15.3,11.459,11.459,0,0,0,10.5.126l.57-.291a11.266,11.266,0,0,0,4.768-15.421l-10.1-18.56Z" transform="translate(-147.691 -198.93)" fill="#2d3436" stroke="#2d3436" stroke-width="1"/>
          <path id="路径_6850" data-name="路径 6850" d="M244.013,253.986V210.715H171.351" transform="translate(-128.84 -189.54)" fill="none" stroke="#2d3436" stroke-miterlimit="10" stroke-width="0.454" stroke-dasharray="1.818 1.818 1.818 1.818 1.818 1.818"/>
        </g>
        <g id="组_2012" data-name="组 2012" transform="translate(410.096 185.587)">
          <g id="组_2010" data-name="组 2010" transform="translate(88.014)">
            <path id="路径_6851" data-name="路径 6851" d="M355.246,253.093a3.7,3.7,0,0,1-3.69-3.692,3.668,3.668,0,0,1,3.69-3.691,3.674,3.674,0,0,1,2.616,1.074,3.784,3.784,0,0,1,1.074,2.616A3.7,3.7,0,0,1,355.246,253.093Z" transform="translate(-326.429 -209.457)" fill="#2d3436" stroke="#2d3436" stroke-width="1"/>
            <path id="路径_6852" data-name="路径 6852" d="M339.589,240.681a2.018,2.018,0,0,1-1.427-3.444,39.892,39.892,0,0,1,56.455,0,2.017,2.017,0,1,1-2.851,2.853,35.857,35.857,0,0,0-50.752,0A2,2,0,0,1,339.589,240.681Z" transform="translate(-337.571 -225.533)" fill="#2d3436" stroke="#2d3436" stroke-width="1"/>
            <path id="路径_6853" data-name="路径 6853" d="M381.689,243.661a2,2,0,0,1-1.427-.591,24.567,24.567,0,0,0-34.812,0,2.018,2.018,0,0,1-2.857-2.85,28.6,28.6,0,0,1,40.522,0,2.015,2.015,0,0,1-1.427,3.441Z" transform="translate(-334.038 -220.535)" fill="#2d3436" stroke="#2d3436" stroke-width="1"/>
            <path id="路径_6854" data-name="路径 6854" d="M370.2,246.621a2,2,0,0,1-1.427-.591,13.356,13.356,0,0,0-18.9,0,2.018,2.018,0,0,1-2.851-2.855,17.392,17.392,0,0,1,24.6,0,2.017,2.017,0,0,1-1.427,3.443Z" transform="translate(-330.509 -215.537)" fill="#2d3436" stroke="#2d3436" stroke-width="1"/>
          </g>
          <line id="直线_48" data-name="直线 48" x2="76.744" transform="translate(0 15.831)" fill="none" stroke="#2d3436" stroke-miterlimit="10" stroke-width="0.454" stroke-dasharray="1.818 1.818 1.818 1.818 1.818 1.818"/>
        </g>
        <g id="组_2015" data-name="组 2015" transform="translate(388.052 357.355)">
          <g id="组_2013" data-name="组 2013" transform="translate(2.534 86.819)">
            <path id="路径_6855" data-name="路径 6855" d="M279.845,425.956a2.121,2.121,0,0,1-2.118-2.118V393.451a2.121,2.121,0,0,1,2.118-2.118H283.2v-9.126a12.753,12.753,0,1,1,25.506,0v9.126h3.354a2.12,2.12,0,0,1,2.117,2.118v30.386a2.121,2.121,0,0,1-2.117,2.118Zm2.117-4.235h27.977V395.568H281.962Zm13.987-48.032a8.528,8.528,0,0,0-8.518,8.518v9.126h17.037v-9.126A8.528,8.528,0,0,0,295.949,373.689Z" transform="translate(-277.727 -369.454)" fill="#2d3436" stroke="#2d3436" stroke-width="1"/>
            <path id="路径_6856" data-name="路径 6856" d="M288.852,399.339h0a2.09,2.09,0,0,1-2.084-2.084v-7.947a2.09,2.09,0,0,1,2.084-2.084h0a2.09,2.09,0,0,1,2.084,2.084v7.947A2.09,2.09,0,0,1,288.852,399.339Z" transform="translate(-270.524 -355.296)" fill="#2d3436" stroke="#2d3436" stroke-width="1"/>
          </g>
          <path id="路径_6857" data-name="路径 6857" d="M298.36,399.51V321.133H276.317" transform="translate(-276.317 -321.133)" fill="none" stroke="#2d3436" stroke-miterlimit="10" stroke-width="0.454" stroke-dasharray="1.818 1.818 1.818 1.818 1.818 1.818"/>
        </g>
        <g id="组_2017" data-name="组 2017" transform="translate(194.45 300.289)">
          <path id="路径_6858" data-name="路径 6858" d="M190.179,442.34a2.2,2.2,0,0,1-1.218-.365,73.5,73.5,0,0,1-11.055-9.106c-6.111-6.2-9.341-12.255-9.341-17.514V390.416a2.221,2.221,0,0,1,2.219-2.217h38.79a2.221,2.221,0,0,1,2.219,2.217v24.939c0,5.259-3.231,11.316-9.341,17.514a73.43,73.43,0,0,1-11.053,9.1A2.194,2.194,0,0,1,190.179,442.34ZM173,415.355c0,9.192,13.855,19.681,16.632,21.692l.543.392.541-.392c2.778-2.014,16.638-12.527,16.638-21.692v-22.72H173Z" transform="translate(-168.564 -210.635)" fill="#2d3436" stroke="#2d3436" stroke-width="1"/>
          <path id="路径_6859" data-name="路径 6859" d="M178.663,451.017V289.373h29.39" transform="translate(-160.518 -289.373)" fill="none" stroke="#2d3436" stroke-miterlimit="10" stroke-width="0.454" stroke-dasharray="1.818 1.818 1.818 1.818 1.818 1.818"/>
        </g>
        <g id="组_2021" data-name="组 2021" transform="translate(0 377.526) rotate(-90)">
          <g id="组_2019" data-name="组 2019" transform="translate(0)">
            <g id="组_2018" data-name="组 2018">
              <path id="路径_6860" data-name="路径 6860" d="M0,0" transform="translate(14.388 23.783)" fill="#2d3436" stroke="#2d3436" stroke-width="1"/>
              <path id="路径_6861" data-name="路径 6861" d="M6.466,12.929a6.465,6.465,0,1,1,6.465-6.465A6.472,6.472,0,0,1,6.466,12.929Z" transform="translate(17.317 17.319)" fill="#2d3436" stroke="#2d3436" stroke-width="1"/>
              <path id="路径_6862" data-name="路径 6862" d="M2.49,9.727a2.492,2.492,0,0,0,2.49-2.492V2.49A2.49,2.49,0,0,0,0,2.49V7.235A2.491,2.491,0,0,0,2.49,9.727Z" transform="translate(21.293)" fill="#2d3436" stroke="#2d3436" stroke-width="1"/>
              <path id="路径_6863" data-name="路径 6863" d="M7.237,0H2.49a2.49,2.49,0,0,0,0,4.981H7.237A2.49,2.49,0,0,0,7.237,0Z" transform="translate(37.839 21.293)" fill="#2d3436" stroke="#2d3436" stroke-width="1"/>
              <path id="路径_6864" data-name="路径 6864" d="M2.49,0A2.489,2.489,0,0,0,0,2.49V7.235a2.49,2.49,0,1,0,4.981,0V2.49A2.49,2.49,0,0,0,2.49,0Z" transform="translate(21.293 37.841)" fill="#2d3436" stroke="#2d3436" stroke-width="1"/>
              <path id="路径_6865" data-name="路径 6865" d="M9.726,2.49A2.489,2.489,0,0,0,7.235,0H2.49a2.49,2.49,0,0,0,0,4.981H7.235A2.49,2.49,0,0,0,9.726,2.49Z" transform="translate(0 21.293)" fill="#2d3436" stroke="#2d3436" stroke-width="1"/>
              <path id="路径_6866" data-name="路径 6866" d="M4.087,7.608A2.49,2.49,0,0,0,7.608,4.087L4.252.73A2.49,2.49,0,0,0,.73,4.252Z" transform="translate(6.236 6.236)" fill="#2d3436" stroke="#2d3436" stroke-width="1"/>
              <path id="路径_6867" data-name="路径 6867" d="M2.491,8.338a2.49,2.49,0,0,0,1.761-.729L7.608,4.252A2.49,2.49,0,0,0,4.087.73L.73,4.087A2.49,2.49,0,0,0,2.491,8.338Z" transform="translate(32.992 6.236)" fill="#2d3436" stroke="#2d3436" stroke-width="1"/>
              <path id="路径_6868" data-name="路径 6868" d="M4.252.729A2.49,2.49,0,1,0,.73,4.251L4.087,7.607A2.49,2.49,0,0,0,7.608,4.085Z" transform="translate(32.992 32.994)" fill="#2d3436" stroke="#2d3436" stroke-width="1"/>
              <path id="路径_6869" data-name="路径 6869" d="M4.087.729.73,4.085A2.49,2.49,0,1,0,4.252,7.607L7.608,4.251A2.49,2.49,0,0,0,4.087.729Z" transform="translate(6.236 32.994)" fill="#2d3436" stroke="#2d3436" stroke-width="1"/>
              <path id="路径_6870" data-name="路径 6870" d="M9.726,2.49A2.489,2.489,0,0,0,7.235,0H2.49a2.49,2.49,0,0,0,0,4.981H7.235A2.49,2.49,0,0,0,9.726,2.49Z" transform="translate(0 21.293)" fill="#2d3436" stroke="#2d3436" stroke-width="1"/>
              <path id="路径_6871" data-name="路径 6871" d="M4.087,7.608A2.49,2.49,0,0,0,7.608,4.087L4.252.73A2.49,2.49,0,0,0,.73,4.252Z" transform="translate(6.236 6.236)" fill="#2d3436" stroke="#2d3436" stroke-width="1"/>
              <path id="路径_6872" data-name="路径 6872" d="M4.087.729.73,4.085A2.49,2.49,0,1,0,4.252,7.607L7.608,4.251A2.49,2.49,0,0,0,4.087.729Z" transform="translate(6.236 32.994)" fill="#2d3436" stroke="#2d3436" stroke-width="1"/>
            </g>
          </g>
          <path id="路径_6873" data-name="路径 6873" d="M15.92,96.742V0H0" transform="translate(61.673 25.715)" fill="none" stroke="#2d3436" stroke-miterlimit="10" stroke-width="0.454" stroke-dasharray="1.818 1.818 1.818 1.818 1.818 1.818"/>
        </g>
        <g id="组_2025" data-name="组 2025" transform="translate(259.18 48.767) rotate(90)">
          <path id="路径_6873-2" data-name="路径 6873" d="M15.92,0V96.742H0" transform="translate(0 0)" fill="none" stroke="#2d3436" stroke-miterlimit="10" stroke-width="0.454" stroke-dasharray="1.818 1.818 1.818 1.818 1.818 1.818"/>
        </g>
      </g>
      <g id="组_2" data-name="组 2" transform="translate(137.616)">
        <path id="路径_2" data-name="路径 2" d="M133.9,526.992a6.425,6.425,0,0,0-1.5,1.758c-.371.7-.564,1.772.278,2.3a5.814,5.814,0,0,0,1.871-.538,8.861,8.861,0,0,1,4.516-1.018c-.327-1.477-.562-2.954-.74-4.406a10.215,10.215,0,0,0-4.425,1.908Z" transform="translate(-130.935 -500.376)" fill="#2d3436"/>
        <path id="路径_3" data-name="路径 3" d="M171.993,488.592a9.015,9.015,0,0,0-7.354.422c1.336-2.855,2.844-5.944,4.155-9.065,1.556-3.7,2.776-7.254,2.776-10.076,0-12.062-9.049-20-17.651-20-9.7,0-18.22,7.345-18.24,18.791a.174.174,0,0,1,0,.019v.018a34.564,34.564,0,0,0,.148,4.726,9.08,9.08,0,0,0-5.021,2.166,7.409,7.409,0,0,0-1.765,2.077c-.721,1.6-.664,3.524,1.25,4.028a5.774,5.774,0,0,0,2.372-.625c1.358-.5,3.052-1.4,4.358-.753a49.915,49.915,0,0,0,3.493,9.671,29.745,29.745,0,0,0,5.684,8.254c2.156,2.089,4.578,3.4,7.134,3.4,4.021,0,7.632-2,10.535-3.938,1.452-.967,2.732-1.926,3.769-2.629a6.26,6.26,0,0,1,2.166-1.083,8.775,8.775,0,0,1,2.923.827c1.128.48,2.31,1.063,3.328,1.471a.618.618,0,0,0,.808-.534A7.6,7.6,0,0,0,171.993,488.592Zm-39.787-8.6a5.772,5.772,0,0,1-1.857.534c-.836-.518-.645-1.582-.277-2.28a6.379,6.379,0,0,1,1.49-1.747,10.146,10.146,0,0,1,4.394-1.894c.177,1.44.411,2.908.735,4.375a8.8,8.8,0,0,0-4.487,1.011ZM151.658,461.9c.511-1.575,1.515-3.027,3.438-3.2,1.575.03,2.626,1.7,3.2,3.181a17.345,17.345,0,0,1,.92,5.645.62.62,0,0,1-.92.478,6.157,6.157,0,0,0-3.2-.772,6.232,6.232,0,0,0-3.217.772.62.62,0,0,1-.9-.477,19.454,19.454,0,0,1,.679-5.629ZM140.7,468a.62.62,0,0,1-.9-.477,19.466,19.466,0,0,1,.68-5.627c.511-1.575,1.515-3.027,3.438-3.2,1.575.029,2.626,1.7,3.2,3.181a17.362,17.362,0,0,1,.919,5.645.62.62,0,0,1-.919.478,6.16,6.16,0,0,0-3.2-.772,6.228,6.228,0,0,0-3.218.77Zm18.147,8.219a8.861,8.861,0,0,0-9.6-.753A10.678,10.678,0,0,0,146,477.873c-.763.886-1.456,2.174-.147,2.85a6.209,6.209,0,0,0,2.078-.111c1.95-.326,3.938-.663,5.773.57l-.735.92c-1.254-.97-3.227-.576-4.836-.331a6.611,6.611,0,0,1-2.56.11c-2.56-.668-1.59-3.4-.46-4.781a11.717,11.717,0,0,1,3.622-2.684,10.368,10.368,0,0,1,10.83.864Z" transform="translate(-128.614 -449.869)" fill="#2d3436"/>
      </g>
    </g>
  </g>
</svg>
