<svg xmlns="http://www.w3.org/2000/svg" width="446.139" height="401" viewBox="0 0 446.139 401">
  <g id="社群应用02" transform="translate(0.5 1)">
    <g id="组_2005" data-name="组 2005" transform="translate(47.558 31.832)">
      <path id="路径_6804" data-name="路径 6804" d="M493.622,318.967,294.147,197.582,96.45,322.011,287.732,441.12Z" transform="translate(-96.45 -120.782)" fill="none" stroke="#2d3436" stroke-linecap="round" stroke-linejoin="round" stroke-width="1.818"/>
      <g id="组_1975" data-name="组 1975" transform="translate(220.882 231.53)">
        <path id="路径_6805" data-name="路径 6805" d="M340.41,337.683l-44.22-23.96-32.369,19.6,42.592,24.7Z" transform="translate(-263.129 -313.444)" fill="none" stroke="#2d3436" stroke-linecap="round" stroke-linejoin="round" stroke-width="0.549"/>
      </g>
      <g id="组_1978" data-name="组 1978" transform="translate(76.911 85.425)">
        <path id="路径_6806" data-name="路径 6806" d="M259.88,372.834l-93.422-56.228V258.579l93.42,55.831Z" transform="translate(-150.845 -185.258)" fill="none" stroke="#2d3436" stroke-linecap="round" stroke-linejoin="round" stroke-width="0.549"/>
        <path id="路径_6807" data-name="路径 6807" d="M169.823,270.972V278.8l82.452,49.611v-8Z" transform="translate(-149.725 -181.133)" fill="none" stroke="#2d3436" stroke-linecap="round" stroke-linejoin="round" stroke-width="0.549"/>
        <path id="路径_6808" data-name="路径 6808" d="M330.171,258.991v57.022L236.548,372.7l0-58.425Z" transform="translate(-127.514 -185.121)" fill="none" stroke="#2d3436" stroke-linecap="round" stroke-linejoin="round" stroke-width="0.549"/>
        <g id="组_1977" data-name="组 1977">
          <g id="组_1976" data-name="组 1976">
            <path id="路径_6809" data-name="路径 6809" d="M363.54,267.12,262.015,209.069l-101.95,61.344,96.511,59.917Z" transform="translate(-152.973 -201.739)" fill="none" stroke="#2d3436" stroke-linecap="round" stroke-linejoin="round" stroke-width="0.549"/>
            <path id="路径_6810" data-name="路径 6810" d="M370.9,269.013,261.68,206.62,154.744,270.767l103.939,64.358Z" transform="translate(-154.744 -202.554)" fill="none" stroke="#2d3436" stroke-linecap="round" stroke-linejoin="round" stroke-width="0.549"/>
            <path id="路径_6811" data-name="路径 6811" d="M370.9,265.963,261.68,203.57,154.744,267.718l103.939,64.358Z" transform="translate(-154.744 -203.57)" fill="#fff" stroke="#2d3436" stroke-linecap="round" stroke-linejoin="round" stroke-width="0.549"/>
            <path id="路径_6812" data-name="路径 6812" d="M360.432,264.808,259.7,207.205l-98.828,59.3L256.672,326Z" transform="translate(-152.704 -202.359)" fill="none" stroke="#2d3436" stroke-linecap="round" stroke-linejoin="round" stroke-width="0.549"/>
            <path id="路径_6813" data-name="路径 6813" d="M354.87,266.254l-96.036-55.413-95.18,56.872,92.092,57.078Z" transform="translate(-151.778 -201.149)" fill="none" stroke="#2d3436" stroke-linecap="round" stroke-linejoin="round" stroke-width="0.549"/>
            <path id="路径_6814" data-name="路径 6814" d="M344.938,254.446,232.725,320.558v-4.065l112.213-66.112Z" transform="translate(-128.786 -187.987)" fill="#fff" stroke="#2d3436" stroke-linecap="round" stroke-linejoin="round" stroke-width="0.549"/>
          </g>
          <path id="路径_6815" data-name="路径 6815" d="M154.744,255.762V251.7l103.939,64.358v4.065Z" transform="translate(-154.744 -187.549)" fill="#fff" stroke="#2d3436" stroke-linecap="round" stroke-linejoin="round" stroke-width="0.549"/>
        </g>
      </g>
      <path id="路径_6816" data-name="路径 6816" d="M447.483,288.652,240.631,410.8v6.322L447.483,294.973Z" transform="translate(-50.311 -90.466)" fill="none" stroke="#2d3436" stroke-linecap="round" stroke-linejoin="round" stroke-width="1.818"/>
      <path id="路径_6817" data-name="路径 6817" d="M288.626,410.045,96.45,290.936v6.322L288.626,416.366Z" transform="translate(-96.45 -89.706)" fill="none" stroke="#2d3436" stroke-linecap="round" stroke-linejoin="round" stroke-width="1.818"/>
      <path id="路径_6818" data-name="路径 6818" d="M289.566,282.593v43.643l-21.219,12.586V294.434Z" transform="translate(-40.355 -91.991)" fill="none" stroke="#2d3436" stroke-linecap="round" stroke-linejoin="round" stroke-width="0.549"/>
      <path id="路径_6819" data-name="路径 6819" d="M289.566,282.593v43.36l-21.219,12.87V294.434Z" transform="translate(-40.355 -91.991)" fill="none" stroke="#2d3436" stroke-linecap="round" stroke-linejoin="round" stroke-width="0.549"/>
      <path id="路径_6820" data-name="路径 6820" d="M305.167,272.609v29.432l-14.579,8.385v-29.6Z" transform="translate(-33.074 -95.163)" fill="none" stroke="#2d3436" stroke-linecap="round" stroke-linejoin="round" stroke-width="0.549"/>
      <path id="路径_6821" data-name="路径 6821" d="M262.421,296.067V325.5l-14.578,8.385v-29.6Z" transform="translate(-47.029 -87.534)" fill="none" stroke="#2d3436" stroke-linecap="round" stroke-linejoin="round" stroke-width="0.549"/>
      <g id="组_1979" data-name="组 1979" transform="translate(227.992 196.781)">
        <line id="直线_6" data-name="直线 6" x1="21.308" y2="12.159" stroke-width="0.549" stroke="#2d3436" stroke-linecap="round" stroke-linejoin="round" fill="none"/>
        <line id="直线_7" data-name="直线 7" x1="21.308" y2="12.159" transform="translate(0 10.77)" fill="none" stroke="#2d3436" stroke-linecap="round" stroke-linejoin="round" stroke-width="0.549"/>
        <line id="直线_8" data-name="直线 8" x1="21.308" y2="12.159" transform="translate(0 21.539)" fill="none" stroke="#2d3436" stroke-linecap="round" stroke-linejoin="round" stroke-width="0.549"/>
        <line id="直线_9" data-name="直线 9" x1="21.308" y2="12.159" transform="translate(0 32.309)" fill="none" stroke="#2d3436" stroke-linecap="round" stroke-linejoin="round" stroke-width="0.549"/>
      </g>
      <g id="组_1991" data-name="组 1991" transform="translate(129.238)">
        <g id="组_1990" data-name="组 1990">
          <g id="组_1983" data-name="组 1983" transform="translate(7.916 31.299)">
            <g id="组_1982" data-name="组 1982">
              <g id="组_1980" data-name="组 1980">
                <path id="路径_6822" data-name="路径 6822" d="M287.875,305.32l-87.805-50.666.005-92.461,87.8,52.472Z" transform="translate(-200.069 -162.192)" fill="#fff" stroke="#2d3436" stroke-linecap="round" stroke-linejoin="round" stroke-width="0.549"/>
              </g>
              <g id="组_1981" data-name="组 1981" transform="translate(87.806 26.593)">
                <path id="路径_6823" data-name="路径 6823" d="M309.942,182.144v90.394l-44,26.14V208.023Z" transform="translate(-265.946 -182.144)" fill="#fff" stroke="#2d3436" stroke-linecap="round" stroke-linejoin="round" stroke-width="0.549"/>
              </g>
            </g>
          </g>
          <g id="组_1989" data-name="组 1989">
            <g id="组_1988" data-name="组 1988">
              <path id="路径_6826" data-name="路径 6826" d="M340.838,195.36,240.507,138.71,194.13,166.421l95.742,57.818Z" transform="translate(-194.13 -138.71)" fill="#fff" stroke="#2d3436" stroke-linecap="round" stroke-linejoin="round" stroke-width="0.549"/>
              <g id="组_1986" data-name="组 1986" transform="translate(5.303 3.146)">
                <path id="路径_6827" data-name="路径 6827" d="M334.045,194.61l-94.823-53.54-41.113,24.565L289.73,220.4Z" transform="translate(-198.109 -141.07)" fill="none" stroke="#2d3436" stroke-linecap="round" stroke-linejoin="round" stroke-width="0.549"/>
              </g>
              <path id="路径_6829" data-name="路径 6829" d="M316.637,183.851l-50.989,28.971v-2.639l50.989-28.971Z" transform="translate(-169.929 -124.562)" fill="#fff" stroke="#2d3436" stroke-linecap="round" stroke-linejoin="round" stroke-width="0.549"/>
            </g>
            <path id="路径_6830" data-name="路径 6830" d="M194.13,162.139V159.5l95.719,57.833v2.639Z" transform="translate(-194.13 -131.789)" fill="#fff" stroke="#2d3436" stroke-linecap="round" stroke-linejoin="round" stroke-width="0.549"/>
          </g>
        </g>
      </g>
      <g id="组_1998" data-name="组 1998" transform="translate(132.879 113.736)">
        <g id="组_1997" data-name="组 1997">
          <g id="组_1996" data-name="组 1996">
            <path id="路径_6833" data-name="路径 6833" d="M240.46,236.611l-22.041-12.063-21.752,13L217.1,250.207Z" transform="translate(-196.667 -224.548)" fill="#fff" stroke="#2d3436" stroke-linecap="round" stroke-linejoin="round" stroke-width="0.549"/>
            <g id="组_1994" data-name="组 1994" transform="translate(2.487 1.475)">
              <path id="路径_6834" data-name="路径 6834" d="M237.273,236.26l-19.457-10.6-19.283,11.522,17.955,11.179Z" transform="translate(-198.533 -225.655)" fill="#fff" stroke="#2d3436" stroke-linecap="round" stroke-linejoin="round" stroke-width="0.549"/>
            </g>
            <g id="组_1995" data-name="组 1995" transform="translate(3.583 2.951)">
              <path id="路径_6835" data-name="路径 6835" d="M235.588,236.7l-18.028-9.937-18.206,10.7,16.86,10.522Z" transform="translate(-199.355 -226.762)" fill="#fff" stroke="#2d3436" stroke-linecap="round" stroke-linejoin="round" stroke-width="0.549"/>
            </g>
            <path id="路径_6836" data-name="路径 6836" d="M235.357,253.721,212,267.316V247.194l23.359-13.6Z" transform="translate(-191.564 -221.536)" fill="#fff" stroke="#2d3436" stroke-linecap="round" stroke-linejoin="round" stroke-width="0.549"/>
          </g>
          <path id="路径_6837" data-name="路径 6837" d="M196.667,254.422V234.3L217.1,246.961v20.122Z" transform="translate(-196.667 -221.302)" fill="none" stroke="#2d3436" stroke-linecap="round" stroke-linejoin="round" stroke-width="0.549"/>
        </g>
      </g>
      <path id="路径_6838" data-name="路径 6838" d="M297.744,197.785v59.381L280.5,266.7V207.068Z" transform="translate(-36.375 -119.552)" fill="#fff" stroke="#2d3436" stroke-linecap="round" stroke-linejoin="round" stroke-width="0.549"/>
      <g id="组_2001" data-name="组 2001" transform="translate(160.386 148.671)">
        <path id="路径_6839" data-name="路径 6839" d="M218.856,275.918l.782.434V265.845h-.868Z" transform="translate(-216.958 -245.913)" fill="none" stroke="#2d3436" stroke-linecap="round" stroke-linejoin="round" stroke-width="1.581"/>
        <path id="路径_6840" data-name="路径 6840" d="M220.2,275.918l-.782.434V265.845h.868Z" transform="translate(-216.741 -245.913)" fill="none" stroke="#2d3436" stroke-linecap="round" stroke-linejoin="round" stroke-width="1.581"/>
        <path id="路径_6841" data-name="路径 6841" d="M259.846,267l-8.394-16.109-34.042,19.02,8.428,16.9Z" transform="translate(-217.41 -250.891)" fill="none" stroke="#2d3436" stroke-linecap="round" stroke-linejoin="round" stroke-width="0.549"/>
        <path id="路径_6842" data-name="路径 6842" d="M257.363,265.134l-6.589-12.645L220.143,269.6l6.652,13.342Z" transform="translate(-216.5 -250.359)" fill="#fff"/>
        <g id="组_1999" data-name="组 1999" transform="translate(4.209 3.261)">
          <line id="直线_10" data-name="直线 10" x1="30.616" y2="17.01" fill="#8be8c1" stroke="#2d3436" stroke-width="1"/>
          <line id="直线_11" data-name="直线 11" x1="30.596" y2="17.102" transform="translate(0.918 1.732)" fill="#8be8c1" stroke="#2d3436" stroke-width="1"/>
          <line id="直线_12" data-name="直线 12" x1="30.575" y2="17.195" transform="translate(1.835 3.464)" fill="#8be8c1" stroke="#2d3436" stroke-width="1"/>
          <line id="直线_13" data-name="直线 13" x1="30.555" y2="17.288" transform="translate(2.753 5.196)" fill="#8be8c1" stroke="#2d3436" stroke-width="1"/>
          <line id="直线_14" data-name="直线 14" x1="30.535" y2="17.381" transform="translate(3.67 6.927)" fill="#8be8c1" stroke="#2d3436" stroke-width="1"/>
          <line id="直线_15" data-name="直线 15" x1="30.515" y2="17.474" transform="translate(4.588 8.659)" fill="#8be8c1" stroke="#2d3436" stroke-width="1"/>
          <line id="直线_16" data-name="直线 16" x1="30.495" y2="17.567" transform="translate(5.505 10.391)" fill="#8be8c1" stroke="#2d3436" stroke-width="1"/>
        </g>
        <g id="组_2000" data-name="组 2000" transform="translate(4.766 2.766)">
          <line id="直线_17" data-name="直线 17" x1="6.495" y1="12.557" transform="translate(28.515)" fill="none" stroke="#2d3436" stroke-width="1"/>
          <line id="直线_18" data-name="直线 18" x1="6.517" y1="12.624" transform="translate(25.923 1.44)" fill="none" stroke="#2d3436" stroke-width="1"/>
          <line id="直线_19" data-name="直线 19" x1="6.54" y1="12.692" transform="translate(23.331 2.879)" fill="none" stroke="#2d3436" stroke-width="1"/>
          <line id="直线_20" data-name="直线 20" x1="6.562" y1="12.759" transform="translate(20.738 4.319)" fill="none" stroke="#2d3436" stroke-width="1"/>
          <line id="直线_21" data-name="直线 21" x1="6.585" y1="12.827" transform="translate(18.146 5.758)" fill="none" stroke="#2d3436" stroke-width="1"/>
          <line id="直线_22" data-name="直线 22" x1="6.607" y1="12.894" transform="translate(15.554 7.198)" fill="none" stroke="#2d3436" stroke-width="1"/>
          <line id="直线_23" data-name="直线 23" x1="6.63" y1="12.961" transform="translate(12.961 8.637)" fill="none" stroke="#2d3436" stroke-width="1"/>
          <line id="直线_24" data-name="直线 24" x1="6.652" y1="13.029" transform="translate(10.369 10.077)" fill="none" stroke="#2d3436" stroke-width="1"/>
          <line id="直线_25" data-name="直线 25" x1="6.675" y1="13.096" transform="translate(7.777 11.516)" fill="none" stroke="#2d3436" stroke-width="1"/>
          <line id="直线_26" data-name="直线 26" x1="6.697" y1="13.164" transform="translate(5.185 12.956)" fill="none" stroke="#2d3436" stroke-width="1"/>
          <line id="直线_27" data-name="直线 27" x1="6.72" y1="13.231" transform="translate(2.592 14.395)" fill="none" stroke="#2d3436" stroke-width="1"/>
          <line id="直线_28" data-name="直线 28" x1="6.742" y1="13.299" transform="translate(0 15.835)" fill="none" stroke="#2d3436" stroke-width="1"/>
        </g>
      </g>
      <g id="组_2004" data-name="组 2004" transform="translate(161.357 6.98)">
        <path id="路径_6843" data-name="路径 6843" d="M219.588,168.973l.782.434V158.9H219.5Z" transform="translate(-217.69 -138.969)" fill="none" stroke="#2d3436" stroke-linecap="round" stroke-linejoin="round" stroke-width="1.581"/>
        <path id="路径_6844" data-name="路径 6844" d="M220.933,168.973l-.782.434V158.9h.868Z" transform="translate(-217.474 -138.969)" fill="none" stroke="#2d3436" stroke-linecap="round" stroke-linejoin="round" stroke-width="1.581"/>
        <path id="路径_6845" data-name="路径 6845" d="M260.578,160.056l-8.394-16.109-34.042,19.02,8.428,16.9Z" transform="translate(-218.142 -143.947)" fill="none" stroke="#2d3436" stroke-linecap="round" stroke-linejoin="round" stroke-width="0.549"/>
        <path id="路径_6846" data-name="路径 6846" d="M258.1,158.189l-6.589-12.645-30.631,17.114L227.528,176Z" transform="translate(-217.233 -143.415)" fill="#fff"/>
        <g id="组_2002" data-name="组 2002" transform="translate(4.209 3.261)">
          <line id="直线_29" data-name="直线 29" x1="30.616" y2="17.01" fill="#8be8c1" stroke="#2d3436" stroke-width="1"/>
          <line id="直线_30" data-name="直线 30" x1="30.596" y2="17.102" transform="translate(0.918 1.732)" fill="#8be8c1" stroke="#2d3436" stroke-width="1"/>
          <line id="直线_31" data-name="直线 31" x1="30.575" y2="17.195" transform="translate(1.835 3.464)" fill="#8be8c1" stroke="#2d3436" stroke-width="1"/>
          <line id="直线_32" data-name="直线 32" x1="30.555" y2="17.288" transform="translate(2.753 5.196)" fill="#8be8c1" stroke="#2d3436" stroke-width="1"/>
          <line id="直线_33" data-name="直线 33" x1="30.535" y2="17.381" transform="translate(3.67 6.927)" fill="#8be8c1" stroke="#2d3436" stroke-width="1"/>
          <line id="直线_34" data-name="直线 34" x1="30.515" y2="17.474" transform="translate(4.588 8.659)" fill="#8be8c1" stroke="#2d3436" stroke-width="1"/>
          <line id="直线_35" data-name="直线 35" x1="30.495" y2="17.567" transform="translate(5.505 10.391)" fill="#8be8c1" stroke="#2d3436" stroke-width="1"/>
        </g>
        <g id="组_2003" data-name="组 2003" transform="translate(4.766 2.766)">
          <line id="直线_36" data-name="直线 36" x1="6.495" y1="12.557" transform="translate(28.515)" fill="none" stroke="#2d3436" stroke-width="1"/>
          <line id="直线_37" data-name="直线 37" x1="6.517" y1="12.624" transform="translate(25.923 1.44)" fill="none" stroke="#2d3436" stroke-width="1"/>
          <line id="直线_38" data-name="直线 38" x1="6.54" y1="12.692" transform="translate(23.331 2.879)" fill="none" stroke="#2d3436" stroke-width="1"/>
          <line id="直线_39" data-name="直线 39" x1="6.562" y1="12.759" transform="translate(20.738 4.319)" fill="none" stroke="#2d3436" stroke-width="1"/>
          <line id="直线_40" data-name="直线 40" x1="6.585" y1="12.827" transform="translate(18.146 5.758)" fill="none" stroke="#2d3436" stroke-width="1"/>
          <line id="直线_41" data-name="直线 41" x1="6.607" y1="12.894" transform="translate(15.554 7.198)" fill="none" stroke="#2d3436" stroke-width="1"/>
          <line id="直线_42" data-name="直线 42" x1="6.63" y1="12.961" transform="translate(12.961 8.637)" fill="none" stroke="#2d3436" stroke-width="1"/>
          <line id="直线_43" data-name="直线 43" x1="6.652" y1="13.029" transform="translate(10.369 10.077)" fill="none" stroke="#2d3436" stroke-width="1"/>
          <line id="直线_44" data-name="直线 44" x1="6.675" y1="13.096" transform="translate(7.777 11.516)" fill="none" stroke="#2d3436" stroke-width="1"/>
          <line id="直线_45" data-name="直线 45" x1="6.697" y1="13.164" transform="translate(5.185 12.956)" fill="none" stroke="#2d3436" stroke-width="1"/>
          <line id="直线_46" data-name="直线 46" x1="6.72" y1="13.231" transform="translate(2.592 14.395)" fill="none" stroke="#2d3436" stroke-width="1"/>
          <line id="直线_47" data-name="直线 47" x1="6.742" y1="13.299" transform="translate(0 15.835)" fill="none" stroke="#2d3436" stroke-width="1"/>
        </g>
      </g>
    </g>
    <g id="组_2022" data-name="组 2022" transform="translate(0 7.016)">
      <g id="组_2007" data-name="组 2007" transform="translate(236.841)">
        <g id="路径_6847" data-name="路径 6847" transform="translate(-223.04 -122.241)" fill="none">
          <path d="M297.148,142.569H287.17l11-20.327H310.3l-9.222,14.252h10.772l-19.258,24.08Z" stroke="none"/>
          <path d="M 296.7957153320313 152.1169891357422 L 307.6912841796875 138.4931488037109 L 301.0797119140625 138.4931488037109 L 297.4032897949219 138.4931488037109 L 299.4006042480469 135.4066009521484 L 306.6255798339844 124.2414855957031 L 299.3592834472656 124.2414855957031 L 290.526123046875 140.5685577392578 L 297.1476440429688 140.5685577392578 L 299.7164306640625 140.5685577392578 L 299.0866088867188 143.0589294433594 L 296.7957153320313 152.1169891357422 M 292.5941772460938 160.5727844238281 L 297.1476440429688 142.5685577392578 L 287.170166015625 142.5685577392578 L 298.1673583984375 122.2414855957031 L 310.302001953125 122.2414855957031 L 301.0797119140625 136.4931488037109 L 311.8517150878906 136.4931488037109 L 292.5941772460938 160.5727844238281 Z" stroke="none" fill="#0080f4"/>
        </g>
        <path id="路径_6848" data-name="路径 6848" d="M239.056,145.883V132.559h56.326" transform="translate(-239.056 -118.807)" fill="none" stroke="#2d3436" stroke-miterlimit="10" stroke-width="0.454" stroke-dasharray="1.818 1.818 1.818 1.818 1.818 1.818"/>
      </g>
      <g id="组_2009" data-name="组 2009" transform="translate(115.768 101.725)">
        <path id="路径_6849" data-name="路径 6849" d="M159.311,233.553a11.664,11.664,0,0,1-5.535-1.4,11.615,11.615,0,0,1-4.665-15.765l9.042-16.605a1.626,1.626,0,0,1,2.858,0l8.922,16.39a11.614,11.614,0,0,1-4.914,15.895l-.423.216A11.674,11.674,0,0,1,159.311,233.553Zm-7.343-15.611a8.358,8.358,0,0,0,3.359,11.348,8.5,8.5,0,0,0,7.788.093l.423-.216a8.358,8.358,0,0,0,3.537-11.44l-7.493-13.769Z" transform="translate(-147.691 -198.93)" fill="#0080f4"/>
        <path id="路径_6850" data-name="路径 6850" d="M225.255,222.815v-12.1h-53.9" transform="translate(-139.815 -195.007)" fill="none" stroke="#2d3436" stroke-miterlimit="10" stroke-width="0.454" stroke-dasharray="1.818 1.818 1.818 1.818 1.818 1.818"/>
      </g>
      <g id="组_2012" data-name="组 2012" transform="translate(302.369 137.041)">
        <g id="组_2010" data-name="组 2010" transform="translate(65.292)">
          <path id="路径_6851" data-name="路径 6851" d="M354.294,251.187a2.741,2.741,0,0,1-2.738-2.739,2.721,2.721,0,0,1,2.738-2.738,2.725,2.725,0,0,1,1.941.8,2.807,2.807,0,0,1,.8,1.941A2.741,2.741,0,0,1,354.294,251.187Z" transform="translate(-332.916 -218.816)" fill="#ef54a1" stroke="#ef54a1" stroke-width="0.3"/>
          <path id="路径_6852" data-name="路径 6852" d="M339.068,236.77a1.5,1.5,0,0,1-1.058-2.555,29.593,29.593,0,0,1,41.88,0,1.5,1.5,0,1,1-2.115,2.117,26.6,26.6,0,0,0-37.65,0A1.487,1.487,0,0,1,339.068,236.77Z" transform="translate(-337.571 -225.533)" fill="#ef54a1" stroke="#ef54a1" stroke-width="0.3"/>
          <path id="路径_6853" data-name="路径 6853" d="M371.444,240.6a1.487,1.487,0,0,1-1.058-.439,18.224,18.224,0,0,0-25.825,0,1.5,1.5,0,0,1-2.119-2.114,21.217,21.217,0,0,1,30.06,0,1.495,1.495,0,0,1-1.058,2.552Z" transform="translate(-336.095 -223.445)" fill="#ef54a1" stroke="#ef54a1" stroke-width="0.3"/>
          <path id="路径_6854" data-name="路径 6854" d="M364.066,244.415a1.487,1.487,0,0,1-1.058-.439,9.908,9.908,0,0,0-14.021,0,1.5,1.5,0,0,1-2.115-2.118,12.9,12.9,0,0,1,18.252,0,1.5,1.5,0,0,1-1.058,2.554Z" transform="translate(-334.621 -221.357)" fill="#ef54a1" stroke="#ef54a1" stroke-width="0.3"/>
        </g>
        <line id="直线_48" data-name="直线 48" x2="56.932" transform="translate(0 11.744)" fill="none" stroke="#2d3436" stroke-miterlimit="10" stroke-width="0.454" stroke-dasharray="1.818 1.818 1.818 1.818 1.818 1.818"/>
      </g>
      <g id="组_2015" data-name="组 2015" transform="translate(286.478 263.43)">
        <g id="组_2013" data-name="组 2013" transform="translate(1.88 64.405)">
          <path id="路径_6855" data-name="路径 6855" d="M279.3,411.369a1.573,1.573,0,0,1-1.571-1.571V387.256a1.573,1.573,0,0,1,1.571-1.571h2.486v-6.77a9.461,9.461,0,0,1,18.922,0v6.77h2.488a1.573,1.573,0,0,1,1.57,1.571V409.8a1.573,1.573,0,0,1-1.57,1.571Zm1.57-3.142h20.754v-19.4H280.869ZM291.245,372.6a6.327,6.327,0,0,0-6.319,6.319v6.77h12.638v-6.77A6.327,6.327,0,0,0,291.245,372.6Z" transform="translate(-277.727 -369.454)" fill="#0080f4"/>
          <path id="路径_6856" data-name="路径 6856" d="M288.314,396.212h0a1.551,1.551,0,0,1-1.546-1.546v-5.9a1.551,1.551,0,0,1,1.546-1.546h0a1.551,1.551,0,0,1,1.546,1.546v5.9A1.551,1.551,0,0,1,288.314,396.212Z" transform="translate(-274.717 -363.539)" fill="#0080f4"/>
        </g>
        <path id="路径_6857" data-name="路径 6857" d="M292.669,379.276V321.133H276.317" transform="translate(-276.317 -321.133)" fill="none" stroke="#2d3436" stroke-miterlimit="10" stroke-width="0.454" stroke-dasharray="1.818 1.818 1.818 1.818 1.818 1.818"/>
      </g>
      <g id="组_2017" data-name="组 2017" transform="translate(143.54 221.097)">
        <path id="路径_6858" data-name="路径 6858" d="M184.6,428.363a1.631,1.631,0,0,1-.9-.271,54.524,54.524,0,0,1-8.2-6.755c-4.533-4.6-6.93-9.092-6.93-12.993v-18.5a1.648,1.648,0,0,1,1.646-1.645h28.776a1.648,1.648,0,0,1,1.646,1.645v18.5c0,3.9-2.4,8.394-6.93,12.993a54.469,54.469,0,0,1-8.2,6.754A1.627,1.627,0,0,1,184.6,428.363Zm-12.742-20.018c0,6.819,10.278,14.6,12.338,16.092l.4.291.4-.291c2.061-1.494,12.342-9.293,12.342-16.092V391.49H171.856Z" transform="translate(-168.564 -256.476)" fill="#0080f4"/>
        <path id="路径_6859" data-name="路径 6859" d="M178.663,409.286V289.373h21.8" transform="translate(-165.202 -289.373)" fill="none" stroke="#2d3436" stroke-miterlimit="10" stroke-width="0.454" stroke-dasharray="1.818 1.818 1.818 1.818 1.818 1.818"/>
      </g>
      <g id="组_2021" data-name="组 2021" transform="translate(0 278.961) rotate(-90)">
        <g id="组_2018" data-name="组 2018">
          <path id="路径_6860" data-name="路径 6860" d="M0,0" transform="translate(10.674 17.643)" fill="#ef54a1" stroke="#ef54a1" stroke-width="1"/>
          <path id="路径_6861" data-name="路径 6861" d="M4.8,9.591a4.8,4.8,0,1,1,4.8-4.8A4.8,4.8,0,0,1,4.8,9.591Z" transform="translate(12.846 12.848)" fill="#ef54a1" stroke="#ef54a1" stroke-width="1"/>
          <path id="路径_6862" data-name="路径 6862" d="M1.847,7.216A1.848,1.848,0,0,0,3.695,5.367V1.847A1.847,1.847,0,0,0,0,1.847v3.52A1.848,1.848,0,0,0,1.847,7.216Z" transform="translate(15.796)" fill="#ef54a1" stroke="#ef54a1" stroke-width="1"/>
          <path id="路径_6863" data-name="路径 6863" d="M5.369,0H1.847a1.847,1.847,0,0,0,0,3.695H5.369A1.847,1.847,0,0,0,5.369,0Z" transform="translate(28.07 15.796)" fill="#ef54a1" stroke="#ef54a1" stroke-width="1"/>
          <path id="路径_6864" data-name="路径 6864" d="M1.847,0A1.846,1.846,0,0,0,0,1.847v3.52a1.847,1.847,0,1,0,3.695,0V1.847A1.847,1.847,0,0,0,1.847,0Z" transform="translate(15.796 28.072)" fill="#ef54a1" stroke="#ef54a1" stroke-width="1"/>
          <path id="路径_6865" data-name="路径 6865" d="M7.215,1.847A1.846,1.846,0,0,0,5.367,0H1.847a1.847,1.847,0,0,0,0,3.695h3.52A1.847,1.847,0,0,0,7.215,1.847Z" transform="translate(0 15.796)" fill="#ef54a1" stroke="#ef54a1" stroke-width="1"/>
          <path id="路径_6866" data-name="路径 6866" d="M3.032,5.644A1.847,1.847,0,0,0,5.644,3.032L3.154.542A1.847,1.847,0,0,0,.542,3.154Z" transform="translate(4.626 4.626)" fill="#ef54a1" stroke="#ef54a1" stroke-width="1"/>
          <path id="路径_6867" data-name="路径 6867" d="M1.848,6.185a1.848,1.848,0,0,0,1.306-.541l2.49-2.49A1.847,1.847,0,0,0,3.032.542L.542,3.032A1.847,1.847,0,0,0,1.848,6.185Z" transform="translate(24.475 4.626)" fill="#ef54a1" stroke="#ef54a1" stroke-width="1"/>
          <path id="路径_6868" data-name="路径 6868" d="M3.154.541A1.847,1.847,0,1,0,.542,3.153l2.49,2.49A1.847,1.847,0,1,0,5.644,3.031Z" transform="translate(24.475 24.476)" fill="#ef54a1" stroke="#ef54a1" stroke-width="1"/>
          <path id="路径_6869" data-name="路径 6869" d="M3.032.541.542,3.031A1.847,1.847,0,1,0,3.154,5.643l2.49-2.49A1.847,1.847,0,0,0,3.032.541Z" transform="translate(4.626 24.476)" fill="#ef54a1" stroke="#ef54a1" stroke-width="1"/>
          <path id="路径_6870" data-name="路径 6870" d="M7.215,1.847A1.846,1.846,0,0,0,5.367,0H1.847a1.847,1.847,0,0,0,0,3.695h3.52A1.847,1.847,0,0,0,7.215,1.847Z" transform="translate(0 15.796)" fill="#ef54a1" stroke="#ef54a1" stroke-width="1"/>
          <path id="路径_6871" data-name="路径 6871" d="M3.032,5.644A1.847,1.847,0,0,0,5.644,3.032L3.154.542A1.847,1.847,0,0,0,.542,3.154Z" transform="translate(4.626 4.626)" fill="#ef54a1" stroke="#ef54a1" stroke-width="1"/>
          <path id="路径_6872" data-name="路径 6872" d="M3.032.541.542,3.031A1.847,1.847,0,1,0,3.154,5.643l2.49-2.49A1.847,1.847,0,0,0,3.032.541Z" transform="translate(4.626 24.476)" fill="#ef54a1" stroke="#ef54a1" stroke-width="1"/>
        </g>
        <path id="路径_6873" data-name="路径 6873" d="M11.81,71.766V0H0" transform="translate(45.751 19.077)" fill="none" stroke="#2d3436" stroke-miterlimit="10" stroke-width="0.454" stroke-dasharray="1.818 1.818 1.818 1.818 1.818 1.818"/>
      </g>
      <g id="组_2025" data-name="组 2025" transform="translate(191.612 36.177) rotate(90)">
        <path id="路径_6873-2" data-name="路径 6873" d="M11.81,10V71.766H0" transform="translate(0 0)" fill="none" stroke="#2d3436" stroke-miterlimit="10" stroke-width="0.454" stroke-dasharray="1.818 1.818 1.818 1.818 1.818 1.818"/>
      </g>
    </g>
    <g id="LOGO" transform="translate(102)">
      <path id="路径_37350" data-name="路径 37350" d="M29.733,11.613a2.9,2.9,0,0,1,2.581-2.36c1.18,0,1.991,1.254,2.36,2.36a13.544,13.544,0,0,1,.664,4.2.493.493,0,0,1-.516.443c-.074,0-.148,0-.148-.074a4.5,4.5,0,0,0-2.36-.59,4.756,4.756,0,0,0-2.434.59.408.408,0,0,1-.59-.221c0-.074-.074-.074-.074-.148a16.406,16.406,0,0,1,.516-4.2Z" transform="translate(-12.871 -2.599)" fill="#ef54a1"/>
      <path id="路径_37351" data-name="路径 37351" d="M18.581,16.186a.408.408,0,0,1-.59-.221c0-.074-.074-.074-.074-.148a16.017,16.017,0,0,1,.516-4.2,2.9,2.9,0,0,1,2.581-2.36c1.18,0,1.991,1.254,2.434,2.36a13.544,13.544,0,0,1,.664,4.2.493.493,0,0,1-.516.443c-.074,0-.148,0-.148-.074a4.584,4.584,0,0,0-2.434-.59,5.39,5.39,0,0,0-2.434.59Z" transform="translate(-9.7 -2.599)" fill="#ef54a1"/>
      <path id="路径_37352" data-name="路径 37352" d="M13.764,23.218a35.783,35.783,0,0,0,1,5.982" transform="translate(-8.401 -6.509)" fill="none" stroke="#ef54a1" stroke-miterlimit="10" stroke-width="2"/>
      <path id="路径_3" data-name="路径 3" d="M38.37,28.392a6.746,6.746,0,0,0-5.418.289c1.011-2.1,2.1-4.335,3.034-6.646a21.05,21.05,0,0,0,2.023-7.369C38.009,5.852,31.362,0,25.077,0,17.925,0,11.712,5.418,11.712,13.8h0a27.786,27.786,0,0,0,.072,3.468l-.163.02A6.81,6.81,0,0,0,8.1,18.856a6.57,6.57,0,0,0-1.3,1.517c-.506,1.156-.506,2.6.939,2.962A4.717,4.717,0,0,0,9.472,22.9a6.52,6.52,0,0,1,2.741-.7,1.552,1.552,0,0,1,.438.126A34.41,34.41,0,0,0,15.18,29.4a21.718,21.718,0,0,0,4.19,6.068A7.74,7.74,0,0,0,24.571,38a14,14,0,0,0,7.73-2.89c1.084-.722,2.023-1.445,2.745-1.951a4.7,4.7,0,0,1,1.589-.795,8.045,8.045,0,0,1,2.167.578c.795.361,1.662.795,2.456,1.084a.491.491,0,0,0,.578-.289v-.072A5.482,5.482,0,0,0,38.37,28.392ZM24.5,23.624c-.939-.722-2.384-.433-3.54-.217a5.479,5.479,0,0,1-1.878.072c-1.878-.506-1.156-2.529-.361-3.54a7.984,7.984,0,0,1,2.673-1.951,7.537,7.537,0,0,1,7.947.65" transform="translate(-6.493)" fill="none" stroke="#ef54a1" stroke-miterlimit="10" stroke-width="2"/>
    </g>
  </g>
</svg>
