<svg xmlns="http://www.w3.org/2000/svg" xmlns:xlink="http://www.w3.org/1999/xlink" width="690" height="334" viewBox="0 0 690 334"><defs><style>.a,.t,.u{fill:#fff;}.b{clip-path:url(#a);}.c{opacity:0.05;}.d,.e,.f,.i,.j,.k,.l,.o,.p,.q,.r,.s,.v,.x{fill:none;}.d,.e,.f,.g,.l,.o,.r,.s,.t{stroke:#000;}.d,.e,.f,.g,.i,.j,.k,.l,.o,.p,.q,.r,.s,.t,.u,.v,.x{stroke-miterlimit:10;}.e{stroke-dasharray:1.825;}.f{stroke-dasharray:0.912 3.649;}.g{fill:#c8c8c8;}.h{stroke:#707070;}.i,.p,.u,.v,.x{stroke:#0080f4;}.j,.k{stroke:#ef54a1;}.k{stroke-dasharray:2 4.26;}.l{stroke-dasharray:1.065 4.26;}.m{fill:#0080f4;}.n{fill:#ef54a1;}.o,.p{stroke-linecap:round;}.q{stroke:#07ead3;}.r{stroke-width:0.5px;}.s,.v{stroke-width:0.25px;}.w{fill:#357eec;}.x{stroke-width:0.3px;}.y{filter:url(#b);}</style><clipPath id="a"><rect class="a" width="690" height="333.626"/></clipPath><filter id="b" x="425.115" y="117.911" width="61.026" height="61.026" filterUnits="userSpaceOnUse"><feOffset input="SourceAlpha"/><feGaussianBlur stdDeviation="1.316" result="c"/><feFlood flood-opacity="0.2"/><feComposite operator="in" in2="c"/><feComposite in="SourceGraphic"/></filter></defs><g transform="translate(9.315 -160)"><rect class="a" width="690" height="334" transform="translate(-9.315 160)"/><g transform="translate(-20 52)"><g transform="translate(10.685 108)"><rect class="a" width="690" height="333.626" transform="translate(0 0)"/><g class="b" transform="translate(0 0)"><g class="c" transform="translate(203.881 -0.062)"><g transform="translate(146.006 42.746)"><g transform="translate(64.817 64.847)"><path class="d" d="M-589.834,902.9a22.306,22.306,0,0,1,9.71-3.684l-.339-3.049-1.384-12.068a37.152,37.152,0,0,0-16.046,5.879l6.439,10.314Z" transform="translate(617.976 -880.739)"/><path class="d" d="M-610.62,912.987a25.544,25.544,0,0,1,4.951-5.584l-7.514-9.577-1.886-2.4a40.891,40.891,0,0,0-7.942,8.693l2.49,1.783Z" transform="translate(629.892 -886.112)"/><path class="d" d="M-598.5,905a22.262,22.262,0,0,1,2.3-1.739l-6.439-10.314-1.62-2.593a36.007,36.007,0,0,0-3.639,2.667l1.886,2.4Z" transform="translate(622.724 -883.705)"/><path class="d" d="M-615.227,942.327a22.01,22.01,0,0,1-.132-2.431,22.525,22.525,0,0,1,2.372-10.093l-2.682-1.488-10.638-5.923a37.765,37.765,0,0,0-4.273,17.5c0,1.12.044,2.24.147,3.33l12.141-.722Z" transform="translate(633.483 -898.906)"/><path class="d" d="M-612.762,920.833l-9.9-7.087-2.49-1.783a37.525,37.525,0,0,0-2.373,3.993l2.667,1.488,10.638,5.923A21.7,21.7,0,0,1-612.762,920.833Z" transform="translate(632.034 -893.958)"/><path class="d" d="M-612.6,969.684a22.579,22.579,0,0,1-1.458-4.317l-3.005.545-11.979,2.181a36.4,36.4,0,0,0,2.343,7.337l11.271-4.6Z" transform="translate(632.751 -919.293)"/><path class="d" d="M-620.912,960.657l-12.141.722-3.05.191a37.342,37.342,0,0,0,.707,4.848l3.006-.56,11.979-2.181A22.6,22.6,0,0,1-620.912,960.657Z" transform="translate(636.103 -917.059)"/><path class="d" d="M-605.233,988.035a25.938,25.938,0,0,1-9.563-10.446l-11.065,5.054-2.785,1.282a40.944,40.944,0,0,0,15.264,16.974l1.65-2.593Z" transform="translate(632.565 -925.092)"/><path class="d" d="M-615.421,976.725c-.162-.31-.309-.634-.442-.958l-11.271,4.6-2.829,1.164c.207.516.442,1.031.693,1.532l2.785-1.282Z" transform="translate(633.191 -924.227)"/><path class="d" d="M-571.251,996.8a19.543,19.543,0,0,1-2.092.1,22.705,22.705,0,0,1-9.842-2.24c-.457.913-.9,1.842-1.341,2.755h-.015c-1.916,3.875-3.787,7.706-5.363,10.9a37.772,37.772,0,0,0,16.561,3.8c1.267,0,2.534-.059,3.772-.177l-1.341-12.1Z" transform="translate(614.186 -933.191)"/><path class="d" d="M-591.456,997.464l-6.5,10.27-1.65,2.593a40.108,40.108,0,0,0,3.743,2.063c.427-.855.869-1.768,1.355-2.74,1.576-3.2,3.447-7.028,5.363-10.9A22.062,22.062,0,0,1-591.456,997.464Z" transform="translate(618.788 -934.52)"/><path class="d" d="M-547.041,1000.056l3.064,11.773.766,2.961a40.145,40.145,0,0,0,13.585-6.129l-1.812-2.476-7.131-9.842A25.3,25.3,0,0,1-547.041,1000.056Z" transform="translate(593.851 -933.989)"/><path class="d" d="M-550.233,1003.407a23.267,23.267,0,0,1-3.537.59l1.341,12.1.324,3.035a38.45,38.45,0,0,0,5.7-.988l-.766-2.961Z" transform="translate(597.044 -937.34)"/><path class="d" d="M-528.764,980.57l7.692,9.43,1.915,2.372a40.817,40.817,0,0,0,15.22-25.357l-3.035-.442-12.038-1.739A25.633,25.633,0,0,1-528.764,980.57Z" transform="translate(585.181 -919.041)"/><path class="d" d="M-533.368,990.26c-.324.251-.663.486-1,.707l1.812,2.49,7.131,9.842c.575-.383,1.149-.81,1.695-1.238l-7.692-9.43Z" transform="translate(587.84 -931.103)"/><path class="d" d="M-558.927,898.73h.28a22.666,22.666,0,0,1,7.514,1.282l1-2.9,3.964-11.493a37.621,37.621,0,0,0-12.48-2.107h-.28v15.22Z" transform="translate(599.49 -880.46)"/><path class="d" d="M-563.249,892.912V877.707a36.6,36.6,0,0,0-4.789.31l.354,3.049,1.384,12.068A25.988,25.988,0,0,1-563.249,892.912Z" transform="translate(603.813 -877.707)"/><path class="d" d="M-510.64,943.048c0,.368-.015.737-.029,1.091h15.22c.029-.354.029-.722.029-1.091a40.9,40.9,0,0,0-2.461-14.012l-2.858,1.1-11.345,4.42A25.288,25.288,0,0,1-510.64,943.048Z" transform="translate(577.268 -902.058)"/><path class="d" d="M-512.518,957.77h-3.065a19.821,19.821,0,0,1-.4,3.271l3.035.442,12.038,1.739a34.847,34.847,0,0,0,.545-5.451Z" transform="translate(579.116 -915.689)"/><path class="d" d="M-536.781,899.273a25.911,25.911,0,0,1,11.315,10.859L-514.96,904l2.637-1.533a41.013,41.013,0,0,0-17.858-16.915l-1.326,2.755Z" transform="translate(588.984 -881.431)"/><path class="d" d="M-539.348,897.6l5.275-10.962,1.326-2.755a37.225,37.225,0,0,0-4.479-1.856l-1,2.888-3.964,11.493A24.155,24.155,0,0,1-539.348,897.6Z" transform="translate(591.551 -879.755)"/><path class="d" d="M-520.3,928.33a22.641,22.641,0,0,1,1.458,3.36l2.859-1.105,11.345-4.42a38.032,38.032,0,0,0-2.5-5.51l-10.506,6.129Z" transform="translate(581.164 -898.081)"/></g><g transform="translate(50.625 50.611)"><path class="d" d="M-627.6,869.03l-2.21-3.827a55.373,55.373,0,0,0-20.174,20.724l3.827,2.21A50.942,50.942,0,0,1-627.6,869.03Z" transform="translate(656.883 -857.539)"/><path class="d" d="M-532.443,862.113l2.21-3.827a54.858,54.858,0,0,0-28.034-7.664v4.42A50.459,50.459,0,0,1-532.443,862.113Z" transform="translate(613.369 -850.622)"/><path class="d" d="M-467.5,931.375c0,.366-.02.726-.028,1.09h4.42c.007-.364.028-.724.028-1.09A54.864,54.864,0,0,0-470,904.632l-3.827,2.21A50.468,50.468,0,0,1-467.5,931.375Z" transform="translate(573.31 -876.245)"/><path class="d" d="M-607.6,1039.574l-2.21,3.828a54.859,54.859,0,0,0,27.089,7.12v-4.42A50.458,50.458,0,0,1-607.6,1039.574Z" transform="translate(637.82 -940.262)"/><path class="d" d="M-488.544,1007.515l-3.827-2.21a50.944,50.944,0,0,1-18.561,18.012l2.21,3.828A55.389,55.389,0,0,0-488.544,1007.515Z" transform="translate(590.913 -924.005)"/><path class="d" d="M-658.685,957.587h-4.42a54.837,54.837,0,0,0,7.835,27.29l3.827-2.21A50.443,50.443,0,0,1-658.685,957.587Z" transform="translate(663.105 -901.367)"/><path class="d" d="M-624.15,872.485a50.943,50.943,0,0,0-18.557,19.106" transform="translate(653.428 -860.994)"/><path class="d" d="M-532.443,866.1a50.459,50.459,0,0,0-25.824-7.071" transform="translate(613.369 -854.612)"/><path class="d" d="M-467.526,934.459c.008-.364.028-.724.028-1.09a50.468,50.468,0,0,0-6.329-24.533" transform="translate(573.31 -878.239)"/><path class="d" d="M-605.6,1039.574a50.458,50.458,0,0,0,24.879,6.528" transform="translate(635.825 -940.262)"/><path class="d" d="M-654.695,957.587a50.443,50.443,0,0,0,7.242,25.08" transform="translate(659.115 -901.367)"/><path class="d" d="M-510.932,1023.317a50.944,50.944,0,0,0,18.561-18.012" transform="translate(590.913 -924.005)"/></g><circle class="e" cx="32.507" cy="32.507" r="32.507" transform="matrix(0.526, -0.851, 0.851, 0.526, 60.999, 116.303)"/><g transform="translate(29.747 29.743)"><g transform="translate(13.522)"><path class="d" d="M-671.856,836.923a74.539,74.539,0,0,0-5.245,6.719l12.111,8.384a62.807,62.807,0,0,1,4.229-5.422Zm23.4-18.078,6.556,13.2a60.908,60.908,0,0,1,27.273-6.395V810.918A75.514,75.514,0,0,0-648.458,818.845Zm-19.11,13.555,10.255,10.565a60.789,60.789,0,0,1,11.035-8.5l-7.617-12.627A75.59,75.59,0,0,0-667.568,832.4Z" transform="translate(677.101 -810.918)"/></g><g transform="translate(0 37.999)"><path class="d" d="M-698.742,945.778a74.711,74.711,0,0,0,3.2,7.9l13.316-6.3a62.92,62.92,0,0,1-2.582-6.373Zm-3.958-29.3,14.711.923a60.911,60.911,0,0,1,8.1-26.816l-12.76-7.367A75.514,75.514,0,0,0-702.7,916.476Zm2.184,23.327,14.276-3.6a60.826,60.826,0,0,1-1.845-13.808l-14.744.283A75.581,75.581,0,0,0-700.515,939.8Z" transform="translate(702.828 -883.215)"/></g><g transform="translate(10.178 106.63)"><path class="d" d="M-632.328,1057.718a74.792,74.792,0,0,0,8.441,1.183l1.2-14.681a62.838,62.838,0,0,1-6.81-.951Zm-27.356-11.224,8.155-12.279a60.916,60.916,0,0,1-19.174-20.421l-12.76,7.367A75.511,75.511,0,0,0-659.684,1046.494Zm21.294,9.772,4.022-14.163a60.829,60.829,0,0,1-12.881-5.306l-7.127,12.91A75.606,75.606,0,0,0-638.39,1056.267Z" transform="translate(683.463 -1013.794)"/></g><g transform="translate(75.994 110.888)"><path class="d" d="M-501.014,1037a74.726,74.726,0,0,0,5.245-6.719l-12.112-8.384a62.705,62.705,0,0,1-4.228,5.423Zm-23.4,18.079-6.556-13.2a60.908,60.908,0,0,1-27.273,6.4V1063A75.52,75.52,0,0,0-524.412,1055.076Zm19.11-13.555-10.255-10.565a60.816,60.816,0,0,1-11.035,8.5l7.617,12.627A75.577,75.577,0,0,0-505.3,1041.521Z" transform="translate(558.241 -1021.895)"/></g><g transform="translate(129.051 43.532)"><path class="d" d="M-438.443,901.645a74.654,74.654,0,0,0-3.2-7.9l-13.316,6.3a62.851,62.851,0,0,1,2.581,6.373Zm3.958,29.3-14.711-.923a60.914,60.914,0,0,1-8.1,26.816l12.76,7.367A75.517,75.517,0,0,0-434.485,930.948Zm-2.184-23.327-14.276,3.6a60.818,60.818,0,0,1,1.845,13.808l14.744-.283A75.616,75.616,0,0,0-436.67,907.62Z" transform="translate(457.295 -893.743)"/></g><g transform="translate(81.03 0.259)"><path class="d" d="M-539.014,812.593a74.822,74.822,0,0,0-8.441-1.183l-1.2,14.681a62.865,62.865,0,0,1,6.81.951Zm27.356,11.224-8.155,12.279a60.913,60.913,0,0,1,19.174,20.421l12.76-7.367A75.521,75.521,0,0,0-511.659,823.817Zm-21.294-9.772-4.021,14.163a60.824,60.824,0,0,1,12.88,5.306l7.127-12.911A75.628,75.628,0,0,0-532.953,814.045Z" transform="translate(548.66 -811.41)"/></g></g><g transform="translate(14.44 14.95)"><path class="d" d="M-719.978,886.274a87.044,87.044,0,0,0-7.028,45.057l-4.405.486a91.851,91.851,0,0,1,7.4-47.34Z" transform="translate(731.952 -831.022)"/><path class="d" d="M-633.064,789.88a86.274,86.274,0,0,0-41.8,21.953l-3.05-3.212a90.883,90.883,0,0,1,43.937-23.074Z" transform="translate(706.316 -784.089)"/><path class="d" d="M-502.668,795.356l-2.284,3.787a86.436,86.436,0,0,0-35.656-11.964l.471-4.406A90.939,90.939,0,0,1-502.668,795.356Z" transform="translate(641.177 -782.773)"/><path class="f" d="M-552.1,835.587a89.141,89.141,0,0,1,0,126.064,89.14,89.14,0,0,1-126.064,0" transform="translate(706.435 -807.828)"/></g><path class="f" d="M-728.455,934.84a105.742,105.742,0,0,1,0-149.541,105.742,105.742,0,0,1,149.541,0" transform="translate(759.425 -754.329)"/><circle class="d" cx="105.477" cy="105.477" r="105.477" transform="translate(0.264 0.264)"/><g class="y" transform="matrix(1, 0, 0, 1, -349.89, -42.68)"><circle class="g" cx="26.065" cy="26.065" r="26.065" transform="translate(429.56 122.36)"/></g></g><path class="d" d="M-401.543,800.086H-366.1l15.464-15.463h35.212l17.938-17.938h37.124" transform="translate(735.649 -717.445)"/><path class="d" d="M-259.444,800.814l10.954,10.954h27.768l8.806,8.806,6.61-6.61h4.562" transform="translate(668.237 -733.636)"/><path class="h" d="M-132.674,764.948a2.01,2.01,0,0,1-2.01,2.01,2.01,2.01,0,0,1-2.01-2.01,2.01,2.01,0,0,1,2.01-2.01A2.01,2.01,0,0,1-132.674,764.948Z" transform="translate(610.003 -715.667)"/><path class="h" d="M-90.086,1095.545a2.01,2.01,0,0,1-2.01,2.01,2.01,2.01,0,0,1-2.01-2.01,2.01,2.01,0,0,1,2.01-2.01A2.01,2.01,0,0,1-90.086,1095.545Z" transform="translate(589.799 -872.505)"/><g transform="translate(467.493 78.882)"><circle class="d" cx="1.416" cy="1.416" r="1.416" transform="translate(0)"/><circle class="d" cx="1.416" cy="1.416" r="1.416" transform="translate(3.441)"/><circle class="d" cx="1.416" cy="1.416" r="1.416" transform="translate(6.883)"/></g><line class="d" x2="10.857" transform="translate(477.207 80.298)"/><g transform="translate(488.064 78.882)"><path class="h" d="M-108.621,823.082v2.832l2.01-1.416Z" transform="translate(108.621 -823.082)"/><path class="h" d="M-104.217,823.082v2.832l2.01-1.416Z" transform="translate(106.532 -823.082)"/><path class="h" d="M-99.814,823.082v2.832l2.01-1.416Z" transform="translate(104.443 -823.082)"/></g><g transform="translate(478.439 288.057)"><path class="h" d="M-126.935,1221.061v2.832l2.01-1.416Z" transform="translate(126.935 -1221.061)"/><path class="h" d="M-122.531,1221.061v2.832l2.01-1.416Z" transform="translate(124.846 -1221.061)"/><path class="h" d="M-118.127,1221.061v2.832l2.01-1.416Z" transform="translate(122.756 -1221.061)"/></g><g transform="translate(75.883 177.307)"><path class="h" d="M-892.841,1010.346v2.832l2.01-1.416Z" transform="translate(892.841 -1010.346)"/><path class="h" d="M-888.437,1010.346v2.832l2.01-1.416Z" transform="translate(890.752 -1010.346)"/><path class="h" d="M-884.034,1010.346v2.832l2.01-1.416Z" transform="translate(888.663 -1010.346)"/></g><g transform="translate(380.911 52.867)"><path class="h" d="M-312.492,773.586v2.832l2.01-1.416Z" transform="translate(312.492 -773.586)"/><path class="h" d="M-308.089,773.586v2.832l2.01-1.416Z" transform="translate(310.403 -773.586)"/><path class="h" d="M-303.685,773.586v2.832l2.01-1.416Z" transform="translate(308.314 -773.586)"/></g><g transform="translate(346.284 78.608)"><line class="d" y2="2.193"/><line class="d" y2="2.193" transform="translate(1.766)"/><line class="d" y2="2.193" transform="translate(3.533)"/><line class="d" y2="2.193" transform="translate(5.299)"/><line class="d" y2="2.193" transform="translate(7.065)"/></g><g transform="translate(439.627 75.162)"><line class="d" y2="2.193"/><line class="d" y2="2.193" transform="translate(1.766)"/><line class="d" y2="2.193" transform="translate(3.533)"/><line class="d" y2="2.193" transform="translate(5.299)"/><line class="d" y2="2.193" transform="translate(7.065)"/></g><g transform="translate(404.605 28.018)"><line class="d" y2="2.193"/><line class="d" y2="2.193" transform="translate(1.766)"/><line class="d" y2="2.193" transform="translate(3.533)"/><line class="d" y2="2.193" transform="translate(5.299)"/><line class="d" y2="2.193" transform="translate(7.065)"/></g><circle class="h" cx="0.803" cy="0.803" r="0.803" transform="translate(344.54 99.08)"/><path class="h" d="M-401.42,829.1a1.26,1.26,0,0,1-1.26,1.259,1.26,1.26,0,0,1-1.259-1.259,1.259,1.259,0,0,1,1.259-1.259A1.259,1.259,0,0,1-401.42,829.1Z" transform="translate(736.786 -746.456)"/><path class="h" d="M-371.529,880.534a1.259,1.259,0,0,1-1.259,1.259,1.259,1.259,0,0,1-1.259-1.259,1.26,1.26,0,0,1,1.259-1.259A1.259,1.259,0,0,1-371.529,880.534Z" transform="translate(722.606 -770.858)"/><path class="h" d="M-382.187,1050.857a1.259,1.259,0,0,1-1.259,1.259,1.259,1.259,0,0,1-1.259-1.259,1.26,1.26,0,0,1,1.259-1.26A1.259,1.259,0,0,1-382.187,1050.857Z" transform="translate(727.662 -851.66)"/><path class="h" d="M-459.462,1128.616a1.259,1.259,0,0,1-1.259,1.259,1.26,1.26,0,0,1-1.259-1.259,1.259,1.259,0,0,1,1.259-1.259A1.259,1.259,0,0,1-459.462,1128.616Z" transform="translate(764.322 -888.55)"/><path class="h" d="M-520.475,1151.512a1.259,1.259,0,0,1-1.259,1.259,1.259,1.259,0,0,1-1.26-1.259,1.26,1.26,0,0,1,1.26-1.259A1.26,1.26,0,0,1-520.475,1151.512Z" transform="translate(793.267 -899.412)"/><path class="h" d="M-278.85,1059.827a1.26,1.26,0,0,1-1.26,1.259,1.26,1.26,0,0,1-1.259-1.259,1.259,1.259,0,0,1,1.259-1.259A1.259,1.259,0,0,1-278.85,1059.827Z" transform="translate(678.638 -855.916)"/><path class="h" d="M-290.6,752.292a1.26,1.26,0,0,1-1.259,1.259,1.26,1.26,0,0,1-1.26-1.259,1.259,1.259,0,0,1,1.26-1.259A1.259,1.259,0,0,1-290.6,752.292Z" transform="translate(684.214 -710.019)"/><circle class="h" cx="1.259" cy="1.259" r="1.259" transform="translate(321.253 57.895)"/><path class="h" d="M-709.048,800.922a1.26,1.26,0,0,1-1.259,1.26,1.259,1.259,0,0,1-1.259-1.26,1.259,1.259,0,0,1,1.259-1.259A1.26,1.26,0,0,1-709.048,800.922Z" transform="translate(882.727 -733.09)"/><path class="h" d="M-468.3,753.191a1.26,1.26,0,0,1-1.259,1.26,1.26,1.26,0,0,1-1.26-1.26,1.26,1.26,0,0,1,1.26-1.259A1.259,1.259,0,0,1-468.3,753.191Z" transform="translate(768.514 -710.446)"/><path class="h" d="M-654.572,763.152a1.26,1.26,0,0,1-1.259,1.259,1.259,1.259,0,0,1-1.259-1.259,1.259,1.259,0,0,1,1.259-1.259A1.259,1.259,0,0,1-654.572,763.152Z" transform="translate(856.883 -715.171)"/><path class="h" d="M-735.674,831.494a1.26,1.26,0,0,1-1.259,1.259,1.26,1.26,0,0,1-1.26-1.259,1.26,1.26,0,0,1,1.26-1.259A1.26,1.26,0,0,1-735.674,831.494Z" transform="translate(895.358 -747.593)"/><path class="h" d="M-863.148,880.887a1.26,1.26,0,0,1-1.259,1.259,1.26,1.26,0,0,1-1.26-1.259,1.259,1.259,0,0,1,1.26-1.259A1.259,1.259,0,0,1-863.148,880.887Z" transform="translate(955.833 -771.026)"/><path class="h" d="M-845.553,970.481a1.26,1.26,0,0,1-1.259,1.259,1.26,1.26,0,0,1-1.26-1.259,1.26,1.26,0,0,1,1.26-1.259A1.26,1.26,0,0,1-845.553,970.481Z" transform="translate(947.486 -813.53)"/><path class="h" d="M-916.115,1009.752a1.259,1.259,0,0,1-1.259,1.259,1.259,1.259,0,0,1-1.259-1.259,1.26,1.26,0,0,1,1.259-1.259A1.26,1.26,0,0,1-916.115,1009.752Z" transform="translate(980.961 -832.16)"/><path class="h" d="M-965.59,1146.641a1.26,1.26,0,0,1-1.26,1.259,1.26,1.26,0,0,1-1.259-1.259,1.259,1.259,0,0,1,1.259-1.259A1.26,1.26,0,0,1-965.59,1146.641Z" transform="translate(1004.432 -897.101)"/><path class="h" d="M-635.8,1139.246a1.259,1.259,0,0,1-1.26,1.259,1.259,1.259,0,0,1-1.259-1.259,1.26,1.26,0,0,1,1.259-1.259A1.26,1.26,0,0,1-635.8,1139.246Z" transform="translate(847.976 -893.593)"/><path class="h" d="M-580,1154.669a1.259,1.259,0,0,1-1.259,1.259,1.259,1.259,0,0,1-1.259-1.259,1.259,1.259,0,0,1,1.259-1.259A1.259,1.259,0,0,1-580,1154.669Z" transform="translate(821.503 -900.909)"/><path class="h" d="M-373.925,686.536a1.26,1.26,0,0,1-1.259,1.26,1.26,1.26,0,0,1-1.259-1.26,1.26,1.26,0,0,1,1.259-1.259A1.26,1.26,0,0,1-373.925,686.536Z" transform="translate(723.742 -678.824)"/><path class="h" d="M-270.9,986.109a1.26,1.26,0,0,1-1.259,1.26,1.26,1.26,0,0,1-1.26-1.26,1.26,1.26,0,0,1,1.26-1.259A1.26,1.26,0,0,1-270.9,986.109Z" transform="translate(674.869 -820.944)"/><path class="h" d="M-259.38,800.223a.655.655,0,0,1-.655.654.655.655,0,0,1-.655-.654.655.655,0,0,1,.655-.655A.655.655,0,0,1-259.38,800.223Z" transform="translate(668.828 -733.045)"/><path class="h" d="M-340.183,862.446a.655.655,0,0,1-.655.655.655.655,0,0,1-.655-.655.654.654,0,0,1,.655-.654A.654.654,0,0,1-340.183,862.446Z" transform="translate(707.161 -762.564)"/><path class="h" d="M-283.081,888.887a.655.655,0,0,1-.654.655.655.655,0,0,1-.655-.655.655.655,0,0,1,.655-.655A.655.655,0,0,1-283.081,888.887Z" transform="translate(680.071 -775.107)"/><g transform="translate(407.961 103.125)"><path class="d" d="M-250.35,890.516h-.126l.007-.731h.118q.319,0,.634-.02l.046.729C-249.895,890.508-250.122,890.515-250.35,890.516Zm-3.294-.518c-.257-.083-.51-.176-.757-.277l.279-.676q.345.143.7.259Zm7.111-.184-.261-.682c.234-.089.464-.188.689-.294l.313.661Q-246.156,889.67-246.533,889.813Zm-10.622-1.743q-.311-.257-.6-.536l.507-.527q.27.26.559.5Zm14.027-.363-.5-.538q.276-.254.535-.528l.532.5C-242.74,887.337-242.931,887.525-243.128,887.707Zm-16.585-2.719q-.195-.352-.363-.719l.665-.3c.1.228.217.451.337.669Zm18.98-.49-.658-.32c.109-.224.21-.454.3-.687l.68.269Q-240.558,884.136-240.732,884.5Zm-20.222-3.317q-.049-.4-.071-.8l.73-.04c.014.252.036.5.067.748Zm21.263-.551-.73-.055c.018-.248.028-.5.028-.75h.731C-239.661,880.1-239.671,880.365-239.691,880.631Zm-.859-2.58c-.044-.247-.1-.491-.16-.732l.708-.184q.1.389.172.788ZM-260,877.365l-.708-.18q.1-.393.228-.773l.692.233Q-259.91,877-260,877.365Zm18.113-2.795c-.132-.213-.273-.42-.419-.621l.589-.432q.238.324.452.668Zm-16.529-.582-.591-.43q.237-.326.5-.634l.558.472C-258.117,873.588-258.271,873.785-258.419,873.988Zm14-2.162q-.3-.224-.617-.424l.389-.618c.229.143.45.3.664.456Zm-11.286-.4-.393-.617q.338-.216.693-.407l.347.643Q-255.389,871.226-255.705,871.428Zm7.928-1.225c-.24-.064-.484-.12-.73-.166l.134-.719q.4.075.786.179Zm-4.463-.157-.137-.718q.393-.075.795-.122l.085.726C-251.748,869.962-252,870-252.24,870.047Z" transform="translate(261.026 -869.207)"/><circle class="d" cx="7.949" cy="7.949" r="7.949" transform="matrix(0.924, -0.383, 0.383, 0.924, 0.29, 6.317)"/><path class="d" d="M-240.267,885.26a4.6,4.6,0,0,1-4.6,4.6,4.6,4.6,0,0,1-4.6-4.6,4.6,4.6,0,0,1,4.6-4.6A4.6,4.6,0,0,1-240.267,885.26Z" transform="translate(255.541 -874.641)"/></g><g transform="translate(27.907 50.048)"><path class="d" d="M-968.734,798.935h-.181l.01-1.053h.17q.46,0,.913-.028l.066,1.051C-968.078,798.924-968.406,798.934-968.734,798.935Zm-4.749-.746c-.37-.12-.735-.253-1.092-.4l.4-.974q.5.2,1.015.372Zm10.25-.266-.377-.983q.506-.194.993-.424l.45.952Q-962.689,797.715-963.233,797.923Zm-15.31-2.513q-.447-.37-.866-.773l.731-.76q.39.375.807.721Zm20.218-.522-.714-.775q.4-.367.771-.762l.767.721C-957.765,794.354-958.041,794.625-958.325,794.887Zm-23.9-3.919q-.281-.507-.522-1.036l.959-.437c.149.328.313.65.486.964Zm27.356-.707-.949-.46q.237-.486.436-.99l.979.387Q-954.62,789.74-954.872,790.261Zm-29.146-4.78c-.047-.38-.083-.766-.1-1.154l1.051-.057c.02.363.051.723.1,1.079Zm30.646-.794-1.051-.079q.04-.535.041-1.081h1.054Q-953.328,784.113-953.372,784.688Zm-1.237-3.719q-.1-.534-.232-1.054l1.021-.265c.1.373.18.752.248,1.135Zm-28.038-.988-1.021-.259q.143-.566.328-1.114l1,.335Q-982.512,779.454-982.647,779.981Zm26.107-4.028c-.19-.306-.393-.6-.6-.9l.85-.622q.342.468.65.962Zm-23.824-.839-.852-.62q.341-.47.716-.914l.8.68Q-980.046,774.675-980.364,775.114ZM-960.186,772c-.288-.215-.586-.419-.89-.612l.562-.891c.329.208.649.427.958.658Zm-16.267-.574-.566-.889q.488-.311,1-.587l.5.927Q-976,771.132-976.453,771.423Zm11.426-1.765q-.519-.139-1.052-.239l.193-1.036q.574.107,1.133.257Zm-6.432-.226-.2-1.035q.566-.108,1.146-.176l.121,1.047C-970.749,769.31-971.105,769.365-971.458,769.432Z" transform="translate(984.121 -768.222)"/><circle class="d" cx="11.456" cy="11.456" r="11.456" transform="translate(1.604 23.823) rotate(-76.717)"/><circle class="d" cx="6.628" cy="6.628" r="6.628" transform="translate(7.413 20.233) rotate(-76.717)"/></g><g transform="translate(425.999 235.509)"><path class="d" d="M-206.82,1160.777h-.234l.013-1.362.22,0q.594,0,1.18-.037l.085,1.359C-205.973,1160.763-206.4,1160.776-206.82,1160.777Zm-6.138-.964c-.477-.155-.949-.327-1.411-.517l.519-1.259q.644.266,1.312.481Zm13.248-.344-.487-1.271q.654-.25,1.283-.548l.582,1.232Q-199.008,1159.2-199.71,1159.469Zm-19.787-3.248q-.578-.478-1.12-1l.944-.981q.5.484,1.043.93Zm26.131-.676-.923-1q.515-.473,1-.984l.992.932C-192.643,1154.856-193,1155.206-193.366,1155.545Zm-30.9-5.065q-.363-.655-.675-1.34l1.239-.565c.193.424.4.84.628,1.247Zm35.358-.914-1.226-.594c.2-.418.393-.845.564-1.28l1.266.5C-188.485,1148.659-188.687,1149.117-188.9,1149.566Zm-37.671-6.178q-.092-.738-.133-1.49l1.359-.075c.027.469.067.935.125,1.395Zm39.611-1.026-1.359-.1c.035-.46.053-.927.053-1.4h1.362Q-186.908,1141.62-186.964,1142.362Zm-1.6-4.806c-.082-.46-.182-.915-.3-1.363l1.319-.343q.188.724.321,1.468Zm-36.239-1.277-1.319-.335q.186-.731.425-1.439l1.289.434Q-224.629,1135.6-224.8,1136.279Zm33.744-5.207c-.246-.4-.508-.781-.782-1.157l1.1-.8q.442.6.84,1.243Zm-30.793-1.085-1.1-.8q.441-.607.926-1.181l1.04.879Q-221.44,1129.421-221.852,1129.988Zm26.08-4.027c-.372-.278-.757-.541-1.15-.791l.726-1.151q.638.4,1.238.85Zm-21.025-.743-.732-1.149q.631-.4,1.291-.758l.646,1.2Q-216.207,1124.842-216.8,1125.218Zm14.769-2.281q-.67-.18-1.36-.308l.25-1.339q.743.138,1.464.332Zm-8.313-.292-.255-1.338q.732-.14,1.482-.226l.157,1.352C-209.425,1122.487-209.885,1122.558-210.341,1122.645Z" transform="translate(226.708 -1121.081)"/><circle class="d" cx="14.807" cy="14.807" r="14.807" transform="translate(5.079 4.975)"/><circle class="d" cx="8.567" cy="8.567" r="8.567" transform="translate(11.32 11.215)"/></g><g transform="translate(60.51 208.894)"><path class="d" d="M-900.189,1114.157l-.258,0,.015-1.5h.242q.654,0,1.3-.041l.094,1.5C-899.257,1114.141-899.722,1114.156-900.189,1114.157Zm-6.759-1.062c-.526-.17-1.045-.36-1.554-.569l.571-1.387q.71.292,1.445.53Zm14.588-.378-.536-1.4q.721-.276,1.413-.6l.641,1.356Q-891.586,1112.421-892.36,1112.716Zm-21.79-3.577q-.637-.526-1.232-1.1l1.04-1.081q.555.534,1.148,1.025Zm28.775-.744-1.016-1.1q.567-.521,1.1-1.084l1.092,1.026C-884.577,1107.637-884.97,1108.023-885.374,1108.4Zm-34.022-5.577q-.4-.722-.744-1.475l1.365-.622c.212.467.445.926.691,1.373Zm38.936-1.007-1.35-.654c.224-.46.432-.93.621-1.409l1.394.55Q-880.1,1101.069-880.46,1101.811Zm-41.484-6.8c-.067-.542-.117-1.089-.147-1.641l1.5-.082c.029.517.073,1.03.138,1.536Zm43.62-1.13-1.5-.113q.057-.761.058-1.538h1.5Q-878.262,1093.062-878.324,1093.879Zm-1.761-5.293q-.136-.76-.33-1.5l1.453-.378q.207.8.353,1.617Zm-39.906-1.406-1.453-.369q.2-.8.467-1.585l1.42.477Q-919.8,1086.431-919.991,1087.18Zm37.158-5.734q-.407-.654-.861-1.274l1.209-.886q.487.665.926,1.369Zm-33.909-1.195-1.212-.881q.485-.669,1.019-1.3l1.145.968Q-916.289,1079.628-916.743,1080.252Zm28.72-4.434q-.615-.459-1.267-.87l.8-1.268q.7.443,1.363.937Zm-23.153-.818-.805-1.265q.694-.442,1.422-.835l.712,1.319Q-910.526,1074.587-911.176,1075Zm16.263-2.512q-.738-.2-1.5-.34l.275-1.475q.817.153,1.612.366Zm-9.154-.321-.281-1.473c.537-.1,1.082-.186,1.631-.25l.173,1.489Q-903.315,1072.022-904.066,1072.167Z" transform="translate(922.09 -1070.444)"/><circle class="d" cx="16.306" cy="16.306" r="16.306" transform="translate(5.594 5.478)"/><circle class="d" cx="9.434" cy="9.434" r="9.434" transform="translate(8.558 21.784) rotate(-45)"/></g><path class="d" d="M-371.652,876.908h22.9l5.277-5.277h8.854l9.38,9.38h22.414" transform="translate(721.469 -767.232)"/><path class="h" d="M-240.531,887.9a1.749,1.749,0,0,1-1.749,1.749,1.749,1.749,0,0,1-1.75-1.749,1.749,1.749,0,0,1,1.75-1.749A1.749,1.749,0,0,1-240.531,887.9Z" transform="translate(660.924 -774.12)"/><path class="d" d="M-380.165,863.037h20.98l35.351,35.351h78.122" transform="translate(725.508 -763.155)"/><path class="d" d="M-194.545,925.09a1.06,1.06,0,0,1-1.06,1.06,1.06,1.06,0,0,1-1.06-1.06,1.06,1.06,0,0,1,1.06-1.06A1.06,1.06,0,0,1-194.545,925.09Z" transform="translate(638.454 -792.09)"/><path class="d" d="M-295.991,952.67a1.06,1.06,0,0,1-1.06,1.06,1.06,1.06,0,0,1-1.06-1.06,1.06,1.06,0,0,1,1.06-1.06A1.06,1.06,0,0,1-295.991,952.67Z" transform="translate(686.581 -805.174)"/><path class="d" d="M-201.5,940.357a1.06,1.06,0,0,1-1.06,1.06,1.06,1.06,0,0,1-1.06-1.06,1.06,1.06,0,0,1,1.06-1.06A1.06,1.06,0,0,1-201.5,940.357Z" transform="translate(641.753 -799.333)"/><path class="d" d="M-98.427,1041.528a1.06,1.06,0,0,1-1.06,1.06,1.06,1.06,0,0,1-1.06-1.06,1.06,1.06,0,0,1,1.06-1.06A1.06,1.06,0,0,1-98.427,1041.528Z" transform="translate(592.855 -847.329)"/><path class="d" d="M-188.062,925.09a1.06,1.06,0,0,1-1.06,1.06,1.06,1.06,0,0,1-1.06-1.06,1.06,1.06,0,0,1,1.06-1.06A1.06,1.06,0,0,1-188.062,925.09Z" transform="translate(635.378 -792.09)"/><path class="d" d="M-181.579,925.09a1.06,1.06,0,0,1-1.06,1.06,1.06,1.06,0,0,1-1.06-1.06,1.06,1.06,0,0,1,1.06-1.06A1.059,1.059,0,0,1-181.579,925.09Z" transform="translate(632.303 -792.09)"/><path class="h" d="M-124.324,927.6v2.832l2.01-1.416Z" transform="translate(604.135 -793.785)"/><path class="d" d="M-172.871,930.3a29.933,29.933,0,0,1,29.933,29.933,29.933,29.933,0,0,1-29.933,29.933" transform="translate(627.166 -795.063)"/><circle class="d" cx="1.645" cy="1.645" r="1.645" transform="translate(452.707 193.497)"/><circle class="d" cx="2.772" cy="2.772" r="2.772" transform="translate(433.078 173.632)"/><circle class="d" cx="2.772" cy="2.772" r="2.772" transform="translate(372.647 240.109)"/><path class="d" d="M-382.31,1051.993h40.015l14.443,14.443h37.634l5.687-5.687h17.7l15.088,15.088h22.919" transform="translate(726.525 -852.797)"/><g transform="translate(445.71 194.513)"><rect class="h" width="1.256" height="1.256" transform="translate(4.385)"/><rect class="h" width="1.256" height="1.256" transform="translate(2.193)"/><rect class="h" width="1.256" height="1.256" transform="translate(0)"/></g><path class="d" d="M-294.67,947.037l5.723-5.723h42.134" transform="translate(684.948 -800.29)"/><path class="d" d="M-146.411,1037.682l9.35,9.35H-128l6.056-6.056" transform="translate(614.613 -846.008)"/><path class="d" d="M-360.06,978.148h47l11.238,11.238h21.653l21.319-21.319h-33.886" transform="translate(715.97 -812.982)"/><path class="h" d="M-233.679,968.205v-2.832l-2.01,1.416Z" transform="translate(656.967 -811.704)"/><path class="h" d="M-227.422,968.205v-2.832l-2.01,1.416Z" transform="translate(653.999 -811.704)"/><path class="h" d="M-221.164,968.205v-2.832l-2.01,1.416Z" transform="translate(651.03 -811.704)"/><path class="h" d="M-214.906,968.205v-2.832l-2.01,1.416Z" transform="translate(648.061 -811.704)"/><path class="d" d="M-332.364,743.267h21.847l11.258-11.258h27.574" transform="translate(702.83 -700.995)"/><path class="d" d="M-423.6,770.31c.548-.518,16.882-16.881,16.882-16.881h22.542" transform="translate(746.114 -711.156)"/><path class="d" d="M-368.291,753.429l12.01,12.01h17.574" transform="translate(719.875 -711.156)"/><g transform="translate(361.982 41.589)"><rect class="d" width="1.367" height="1.367"/><rect class="d" width="1.367" height="1.367" transform="translate(2.349)"/><rect class="d" width="1.367" height="1.367" transform="translate(4.697)"/><rect class="d" width="1.367" height="1.367" transform="translate(7.046)"/></g><g transform="translate(359.706 175.557)"><path class="d" d="M-343.589,1017.753a4.624,4.624,0,0,1-4.624,4.624,4.624,4.624,0,0,1-4.624-4.624,4.624,4.624,0,0,1,4.624-4.624A4.624,4.624,0,0,1-343.589,1017.753Z" transform="translate(352.837 -1009.917)"/><line class="d" y2="15.64" transform="translate(4.624)"/></g><g transform="translate(22.197 183.377)"><path class="d" d="M-985.738,1032.632a4.624,4.624,0,0,1-4.624,4.624,4.624,4.624,0,0,1-4.624-4.624,4.624,4.624,0,0,1,4.624-4.624A4.624,4.624,0,0,1-985.738,1032.632Z" transform="translate(994.986 -1024.795)"/><line class="d" y2="15.64" transform="translate(4.624)"/></g><g transform="translate(442.07 0)"><path class="d" d="M-186.883,683.736a4.624,4.624,0,0,1-4.624,4.624,4.624,4.624,0,0,1-4.624-4.624,4.624,4.624,0,0,1,4.624-4.624A4.624,4.624,0,0,1-186.883,683.736Z" transform="translate(196.131 -675.9)"/><line class="d" y2="15.64" transform="translate(4.624)"/></g><g transform="translate(100.674 65.121)"><path class="d" d="M-836.427,807.636a4.625,4.625,0,0,1-4.624,4.625,4.624,4.624,0,0,1-4.624-4.625,4.624,4.624,0,0,1,4.624-4.624A4.624,4.624,0,0,1-836.427,807.636Z" transform="translate(845.675 -799.799)"/><line class="d" y2="15.64" transform="translate(4.624)"/></g><path class="d" d="M-279.668,1060.4l19.278,19.277h26.92" transform="translate(677.831 -856.787)"/><g transform="translate(445.912 221.809)"><line class="d" x2="2.092" transform="translate(0 1.081)"/><rect class="d" width="1.917" height="1.917" transform="translate(2.057)"/><g transform="translate(3.974)"><line class="d" x2="2.092" transform="translate(0 1.081)"/><rect class="d" width="1.917" height="1.917" transform="translate(2.057)"/></g><g transform="translate(7.949)"><line class="d" x2="2.092" transform="translate(0 1.081)"/><rect class="d" width="1.917" height="1.917" transform="translate(2.057)"/></g><g transform="translate(11.923)"><line class="d" x2="2.092" transform="translate(0 1.081)"/><line class="d" x2="2.092" transform="translate(3.974 1.081)"/><rect class="d" width="1.917" height="1.917" transform="translate(2.057)"/></g></g><g transform="translate(271.532 252.5)"><path class="d" d="M-520.6,1153.41l32.392,32.392,7.149,0h2.092" transform="translate(520.597 -1153.41)"/><rect class="d" width="1.917" height="1.917" transform="translate(41.598 31.307)"/><g transform="translate(43.515 31.307)"><line class="d" x2="2.092" transform="translate(0 1.081)"/><rect class="d" width="1.917" height="1.917" transform="translate(2.057)"/></g><g transform="translate(47.489 31.307)"><line class="d" x2="2.092" transform="translate(0 1.081)"/><rect class="d" width="1.917" height="1.917" transform="translate(2.057)"/></g><g transform="translate(51.464 22.68)"><line class="d" x2="2.092" transform="translate(0 9.707)"/><path class="d" d="M-415.12,1206.269h2.092l7.581,0,9.712-9.712h50.914l14.293,14.293h66.877" transform="translate(419.094 -1196.562)"/><rect class="d" width="1.917" height="1.917" transform="translate(2.057 8.626)"/></g></g><path class="d" d="M-408.625,1089.248l12.98,12.98h20.966l25.461,25.461h36.208" transform="translate(739.009 -870.471)"/><path class="d" d="M-459.585,1128.906l12.144,12.144h49.924l13.693-13.693h28.6" transform="translate(763.185 -888.55)"/><path class="d" d="M-404.48,1153.41l7.861,7.861h17.72" transform="translate(737.043 -900.909)"/><path class="d" d="M-135.047,1215.039" transform="translate(609.222 -930.147)"/><path class="d" d="M-468.423,737.543l19.153-19.153h44.557" transform="translate(767.378 -694.534)"/><path class="d" d="M-404.48,703.915l16.037-16.037h93.416" transform="translate(737.043 -680.058)"/><path class="d" d="M-645.067,1156.195l-15.1,15.163h-26.506l-12.14,12.189h-18.209" transform="translate(885.315 -902.231)"/><path class="d" d="M-690.515,1185.044l-5.345,5.345H-764.3" transform="translate(907.746 -915.917)"/><path class="d" d="M-821.085,1140.383l-13.65,13.651h-61.345l-19.565,19.565h-111.023" transform="translate(1032.213 -894.73)"/><g transform="translate(406.701 228.955)"><circle class="d" cx="8.561" cy="8.561" r="8.561" transform="translate(0 16.9) rotate(-80.783)"/><path class="d" d="M-244.142,1121.771a6.124,6.124,0,0,1-6.124,6.124,6.124,6.124,0,0,1-6.124-6.124,6.124,6.124,0,0,1,6.124-6.124A6.124,6.124,0,0,1-244.142,1121.771Z" transform="translate(260.087 -1111.95)"/><path class="h" d="M-244.533,1125.4a2.1,2.1,0,0,1-2.1,2.1,2.1,2.1,0,0,1-2.1-2.1,2.1,2.1,0,0,1,2.1-2.1A2.1,2.1,0,0,1-244.533,1125.4Z" transform="translate(256.459 -1115.578)"/><g transform="translate(7.342 6.013)"><path class="d" d="M-248.721,1120.42a.367.367,0,0,1-.367.367.367.367,0,0,1-.367-.367.367.367,0,0,1,.367-.367A.367.367,0,0,1-248.721,1120.42Z" transform="translate(249.456 -1120.053)"/><path class="d" d="M-246.042,1120.42a.367.367,0,0,1-.367.367.367.367,0,0,1-.367-.367.367.367,0,0,1,.367-.367A.367.367,0,0,1-246.042,1120.42Z" transform="translate(248.185 -1120.053)"/><path class="d" d="M-243.362,1120.42a.367.367,0,0,1-.367.367.367.367,0,0,1-.367-.367.367.367,0,0,1,.367-.367A.367.367,0,0,1-243.362,1120.42Z" transform="translate(246.914 -1120.053)"/><path class="d" d="M-240.683,1120.42a.367.367,0,0,1-.367.367.367.367,0,0,1-.367-.367.367.367,0,0,1,.367-.367A.367.367,0,0,1-240.683,1120.42Z" transform="translate(245.643 -1120.053)"/></g></g><g transform="translate(91.507 124.018)"><circle class="d" cx="8.561" cy="8.561" r="8.561"/><circle class="d" cx="6.124" cy="6.124" r="6.124" transform="translate(2.436 2.436)"/><path class="h" d="M-846.624,923.347a2.1,2.1,0,0,1-2.1,2.1,2.1,2.1,0,0,1-2.1-2.1,2.1,2.1,0,0,1,2.1-2.1A2.1,2.1,0,0,1-846.624,923.347Z" transform="translate(857.288 -914.786)"/><g transform="translate(6.081 11.881)"><path class="d" d="M-850.812,931.931a.367.367,0,0,1-.367.367.368.368,0,0,1-.368-.367.367.367,0,0,1,.368-.367A.367.367,0,0,1-850.812,931.931Z" transform="translate(851.547 -931.564)"/><path class="d" d="M-848.132,931.931a.367.367,0,0,1-.367.367.367.367,0,0,1-.367-.367.367.367,0,0,1,.367-.367A.367.367,0,0,1-848.132,931.931Z" transform="translate(850.276 -931.564)"/><path class="d" d="M-845.453,931.931a.367.367,0,0,1-.367.367.367.367,0,0,1-.367-.367.367.367,0,0,1,.367-.367A.367.367,0,0,1-845.453,931.931Z" transform="translate(849.005 -931.564)"/><path class="d" d="M-842.774,931.931a.367.367,0,0,1-.367.367.368.368,0,0,1-.368-.367.367.367,0,0,1,.368-.367A.367.367,0,0,1-842.774,931.931Z" transform="translate(847.734 -931.564)"/></g></g><g transform="translate(364.398 22.87)"><path class="d" d="M-341.936,717.5a.987.987,0,0,1-.987.987.987.987,0,0,1-.987-.987.987.987,0,0,1,.987-.987A.987.987,0,0,1-341.936,717.5Z" transform="translate(343.91 -716.513)"/><path class="d" d="M-334.74,717.5a.987.987,0,0,1-.987.987.987.987,0,0,1-.987-.987.987.987,0,0,1,.987-.987A.987.987,0,0,1-334.74,717.5Z" transform="translate(340.496 -716.513)"/><path class="d" d="M-327.543,717.5a.987.987,0,0,1-.987.987.986.986,0,0,1-.987-.987.987.987,0,0,1,.987-.987A.987.987,0,0,1-327.543,717.5Z" transform="translate(337.082 -716.513)"/><path class="d" d="M-320.347,717.5a.986.986,0,0,1-.987.987.987.987,0,0,1-.987-.987.987.987,0,0,1,.987-.987A.987.987,0,0,1-320.347,717.5Z" transform="translate(333.668 -716.513)"/></g><g transform="translate(22.927 108.417)"><circle class="d" cx="0.987" cy="0.987" r="0.987"/><circle class="d" cx="0.987" cy="0.987" r="0.987" transform="translate(3.782)"/><circle class="d" cx="0.987" cy="0.987" r="0.987" transform="translate(7.565)"/><circle class="d" cx="0.987" cy="0.987" r="0.987" transform="translate(11.347)"/></g><path class="h" d="M-403.853,1152.634a.86.86,0,0,1-.86.859.86.86,0,0,1-.86-.859.86.86,0,0,1,.86-.86A.86.86,0,0,1-403.853,1152.634Z" transform="translate(737.561 -900.133)"/><path class="h" d="M-383.862,1112.888a.859.859,0,0,1-.859.859.859.859,0,0,1-.86-.859.86.86,0,0,1,.86-.86A.859.859,0,0,1-383.862,1112.888Z" transform="translate(728.077 -881.278)"/><path class="h" d="M-306.11,1050.937a.86.86,0,0,1-.859.86.86.86,0,0,1-.86-.86.86.86,0,0,1,.86-.859A.859.859,0,0,1-306.11,1050.937Z" transform="translate(691.191 -851.888)"/><path class="h" d="M-196.151,1067.75a.859.859,0,0,1-.859.86.86.86,0,0,1-.86-.86.859.859,0,0,1,.86-.859A.859.859,0,0,1-196.151,1067.75Z" transform="translate(639.026 -859.864)"/><path class="h" d="M-295.075,1161.61a.86.86,0,0,1-.86.859.86.86,0,0,1-.86-.859.86.86,0,0,1,.86-.86A.86.86,0,0,1-295.075,1161.61Z" transform="translate(685.956 -904.392)"/><circle class="d" cx="0.56" cy="0.56" r="0.56" transform="translate(358.144 259.802)"/><path class="d" d="M-921.583,1009.453a44.472,44.472,0,0,1-26.284-40.59A44.463,44.463,0,0,1-903.4,924.4" transform="translate(994.829 -792.266)"/><path class="d" d="M-840.691,894.155l17.732-17.732h33.752" transform="translate(943.984 -769.505)"/><path class="d" d="M-828.049,1015.432H-848.93l-7.683,7.683H-903.87l-12.369-12.369" transform="translate(979.824 -833.229)"/><path class="d" d="M-853.549,1024.2l-11.163-11.163H-880.4" transform="translate(962.82 -834.317)"/><path class="d" d="M-840.468,1153.9l-13.8-13.8h-30.059l-18.557,18.557h-48.686l-14.882-14.882" transform="translate(1003.644 -894.599)"/><path class="d" d="M-871.941,938.494H-908.4l-36.7-36.7h-32.227" transform="translate(1008.805 -781.542)"/><path class="d" d="M-964.38,865.457c14.364-.122,53.143.216,53.143.216l17.725-17.725" transform="translate(1002.663 -755.996)"/><path class="d" d="M-860.154,820.148h-42.027l-11.066-11.066h-22.908l-15.168,15.168h-46.606L-980,806.318" transform="translate(1018.579 -736.247)"/><path class="d" d="M-964.665,987.99h-12.163l-9.361,9.361v11.079" transform="translate(1013.009 -822.433)"/><path class="d" d="M-855.726,779.306-880.934,754.1h-137.159" transform="translate(1028.145 -711.473)"/><path class="d" d="M-858.45,722.036h-18.073l-8.759,8.759H-913.1" transform="translate(978.336 -696.263)"/><path class="d" d="M-719.187,744.541l-22.505-22.505h-48.945" transform="translate(920.239 -696.263)"/><path class="d" d="M-780.82,709.354l-14.05-14.05h-21.815" transform="translate(932.595 -683.581)"/><path class="h" d="M-777.688,1165.432a.859.859,0,0,1-.859.859.859.859,0,0,1-.86-.859.86.86,0,0,1,.86-.86A.86.86,0,0,1-777.688,1165.432Z" transform="translate(914.911 -906.205)"/><path class="h" d="M-659.2,1184.268a.859.859,0,0,1-.86.859.859.859,0,0,1-.859-.859.86.86,0,0,1,.859-.86A.86.86,0,0,1-659.2,1184.268Z" transform="translate(858.698 -915.141)"/><path class="h" d="M-916.272,901.019a.86.86,0,0,1-.86.86.86.86,0,0,1-.86-.86.86.86,0,0,1,.86-.859A.86.86,0,0,1-916.272,901.019Z" transform="translate(980.656 -780.766)"/><path class="h" d="M-775.809,970.842a.86.86,0,0,1-.86.86.86.86,0,0,1-.86-.86.86.86,0,0,1,.86-.86A.86.86,0,0,1-775.809,970.842Z" transform="translate(914.02 -813.89)"/><path class="h" d="M-909.091,839.66a.859.859,0,0,1-.859.86.86.86,0,0,1-.86-.86.859.859,0,0,1,.86-.859A.859.859,0,0,1-909.091,839.66Z" transform="translate(977.249 -751.657)"/><path class="h" d="M-880.686,753.322a.859.859,0,0,1-.859.859.86.86,0,0,1-.86-.859.86.86,0,0,1,.86-.86A.859.859,0,0,1-880.686,753.322Z" transform="translate(963.774 -710.697)"/><path class="h" d="M-924.5,1202.8a.859.859,0,0,1-.859.859.86.86,0,0,1-.86-.859.86.86,0,0,1,.86-.86A.86.86,0,0,1-924.5,1202.8Z" transform="translate(984.558 -923.934)"/><path class="h" d="M-913.633,1202.8a.86.86,0,0,1-.86.859.859.859,0,0,1-.859-.859.86.86,0,0,1,.859-.86A.86.86,0,0,1-913.633,1202.8Z" transform="translate(979.404 -923.934)"/><path class="h" d="M-902.769,1202.8a.859.859,0,0,1-.86.859.859.859,0,0,1-.859-.859.86.86,0,0,1,.859-.86A.86.86,0,0,1-902.769,1202.8Z" transform="translate(974.25 -923.934)"/><path class="h" d="M-891.9,1202.8a.859.859,0,0,1-.859.859.859.859,0,0,1-.86-.859.86.86,0,0,1,.86-.86A.86.86,0,0,1-891.9,1202.8Z" transform="translate(969.096 -923.934)"/><path class="h" d="M-881.041,1202.8a.859.859,0,0,1-.859.859.86.86,0,0,1-.86-.859.86.86,0,0,1,.86-.86A.86.86,0,0,1-881.041,1202.8Z" transform="translate(963.942 -923.934)"/><path class="h" d="M-870.176,1202.8a.859.859,0,0,1-.86.859.859.859,0,0,1-.859-.859.86.86,0,0,1,.859-.86A.86.86,0,0,1-870.176,1202.8Z" transform="translate(958.787 -923.934)"/><path class="h" d="M-865.144,753.322a.859.859,0,0,1-.859.859.859.859,0,0,1-.86-.859.86.86,0,0,1,.86-.86A.859.859,0,0,1-865.144,753.322Z" transform="translate(956.4 -710.697)"/><circle class="h" cx="0.86" cy="0.86" r="0.86" transform="translate(97.706 41.765)"/><path class="h" d="M-834.06,753.322a.859.859,0,0,1-.86.859.859.859,0,0,1-.859-.859.859.859,0,0,1,.859-.86A.86.86,0,0,1-834.06,753.322Z" transform="translate(941.654 -710.697)"/><path class="h" d="M-818.518,753.322a.859.859,0,0,1-.86.859.859.859,0,0,1-.859-.859.859.859,0,0,1,.859-.86A.86.86,0,0,1-818.518,753.322Z" transform="translate(934.281 -710.697)"/><path class="h" d="M-757.2,753.322a.86.86,0,0,1-.86.859.86.86,0,0,1-.86-.859.86.86,0,0,1,.86-.86A.86.86,0,0,1-757.2,753.322Z" transform="translate(905.193 -710.697)"/><path class="h" d="M-607.916,1184.268a.86.86,0,0,1-.86.859.859.859,0,0,1-.859-.859.86.86,0,0,1,.859-.86A.86.86,0,0,1-607.916,1184.268Z" transform="translate(834.37 -915.141)"/><path class="h" d="M-938.5,1174.639a.86.86,0,0,1-.86.86.86.86,0,0,1-.859-.86.859.859,0,0,1,.859-.859A.859.859,0,0,1-938.5,1174.639Z" transform="translate(991.2 -910.573)"/><path class="h" d="M-815.582,1202.8a.86.86,0,0,1-.86.859.859.859,0,0,1-.859-.859.86.86,0,0,1,.859-.86A.86.86,0,0,1-815.582,1202.8Z" transform="translate(932.888 -923.934)"/><g transform="translate(180.336 279.1)"><rect class="h" width="1.256" height="1.256" transform="translate(4.385)"/><rect class="h" width="1.256" height="1.256" transform="translate(2.193)"/><rect class="h" width="1.256" height="1.256"/></g><g transform="translate(160.435 279.9)"><path class="h" d="M-721.155,1205.541v2.832l-2.01-1.416Z" transform="translate(727.794 -1205.541)"/><path class="h" d="M-725.559,1205.541v2.832l-2.01-1.416Z" transform="translate(729.883 -1205.541)"/><path class="h" d="M-729.962,1205.541v2.832l-2.01-1.416Z" transform="translate(731.972 -1205.541)"/></g><g transform="translate(119.886 24.357)"><circle class="d" cx="1.416" cy="1.416" r="1.416"/><circle class="d" cx="1.416" cy="1.416" r="1.416" transform="translate(3.441)"/><circle class="d" cx="1.416" cy="1.416" r="1.416" transform="translate(6.883)"/></g><g transform="translate(107.414 10.627)"><line class="d" y2="2.193"/><line class="d" y2="2.193" transform="translate(1.766)"/><line class="d" y2="2.193" transform="translate(3.533)"/><line class="d" y2="2.193" transform="translate(5.299)"/><line class="d" y2="2.193" transform="translate(7.065)"/></g><g transform="translate(137.351 44.041)"><line class="d" y2="2.193"/><line class="d" y2="2.193" transform="translate(1.766)"/><line class="d" y2="2.193" transform="translate(3.533)"/><line class="d" y2="2.193" transform="translate(5.299)"/><line class="d" y2="2.193" transform="translate(7.065)"/></g><g transform="translate(55.855 33.848)"><rect class="d" width="1.367" height="1.367"/><rect class="d" width="1.367" height="1.367" transform="translate(2.349)"/><rect class="d" width="1.367" height="1.367" transform="translate(4.697)"/><rect class="d" width="1.367" height="1.367" transform="translate(7.046)"/></g><g transform="translate(7.76 41.208)"><path class="h" d="M-1011.635,751.4v2.832l-2.01-1.416Z" transform="translate(1018.274 -751.403)"/><path class="h" d="M-1016.039,751.4v2.832l-2.01-1.416Z" transform="translate(1020.364 -751.403)"/><path class="h" d="M-1020.443,751.4v2.832l-2.01-1.416Z" transform="translate(1022.453 -751.403)"/></g><path class="d" d="M-982.33,899.293a2.773,2.773,0,0,1-2.773,2.773,2.772,2.772,0,0,1-2.772-2.773,2.772,2.772,0,0,1,2.772-2.772A2.772,2.772,0,0,1-982.33,899.293Z" transform="translate(1013.809 -779.04)"/><circle class="d" cx="2.772" cy="2.772" r="2.772" transform="translate(0 276.097)"/><circle class="d" cx="2.772" cy="2.772" r="2.772" transform="translate(120.556 187.114)"/><path class="d" d="M-752.8,1137.6a2.773,2.773,0,0,1-2.773,2.772,2.772,2.772,0,0,1-2.772-2.772,2.772,2.772,0,0,1,2.772-2.772A2.772,2.772,0,0,1-752.8,1137.6Z" transform="translate(904.918 -892.096)"/><g transform="translate(57.191 258.945)"><path class="h" d="M-928.405,1165.672v2.832l2.01-1.416Z" transform="translate(928.405 -1165.672)"/><path class="h" d="M-924,1165.672v2.832l2.01-1.416Z" transform="translate(926.316 -1165.672)"/><path class="h" d="M-919.6,1165.672v2.832l2.01-1.416Z" transform="translate(924.227 -1165.672)"/></g><g transform="translate(126.101 241.64)"><line class="d" y2="2.193"/><line class="d" y2="2.193" transform="translate(1.766)"/><line class="d" y2="2.193" transform="translate(3.533)"/><line class="d" y2="2.193" transform="translate(5.299)"/><line class="d" y2="2.193" transform="translate(7.065)"/></g><g transform="translate(91.642 192.641)"><rect class="d" width="1.367" height="1.367"/><rect class="d" width="1.367" height="1.367" transform="translate(2.349)"/><rect class="d" width="1.367" height="1.367" transform="translate(4.697)"/><rect class="d" width="1.367" height="1.367" transform="translate(7.046)"/></g></g></g></g><g transform="translate(297.664 184.187)"><g transform="translate(125.166 29.138)"><path class="i" d="M302.644,217.315a42.078,42.078,0,0,0-3.4,21.781l-2.13.235a44.4,44.4,0,0,1,3.575-22.885Z" transform="translate(-296.856 -190.605)"/><path class="j" d="M348.89,162.973a41.706,41.706,0,0,0-20.207,10.613l-1.475-1.553a43.934,43.934,0,0,1,21.24-11.154Z" transform="translate(-313.478 -160.174)"/><path class="i" d="M422.673,165.4l-1.1,1.831a41.778,41.778,0,0,0-17.237-5.784l.228-2.13A43.96,43.96,0,0,1,422.673,165.4Z" transform="translate(-355.715 -159.32)"/></g><path class="k" d="M388.009,188.985a43.092,43.092,0,1,1-60.942,60.942" transform="translate(-188.243 -146.441)"/><path class="l" d="M296.4,230.606a51.117,51.117,0,0,1,72.291-72.291" transform="translate(-163.241 -121.417)"/><circle class="d" cx="50.99" cy="50.99" r="50.99" transform="translate(118.307 22.054)"/><circle cx="1.244" cy="1.244" r="1.244" transform="translate(317.512 112.49)"/><path d="M522.447,190.342a.78.78,0,1,1-.779-.779A.779.779,0,0,1,522.447,190.342Z" transform="translate(-294.405 -146.744)"/><path d="M589.093,319.272a.78.78,0,1,1-.78-.779A.78.78,0,0,1,589.093,319.272Z" transform="translate(-330.936 -217.373)"/><path d="M577.805,241.062a.78.78,0,1,1-.78-.78A.78.78,0,0,1,577.805,241.062Z" transform="translate(-324.731 -174.529)"/><path d="M644.086,233.232a.779.779,0,1,1-.779-.779A.779.779,0,0,1,644.086,233.232Z" transform="translate(-361.053 -170.24)"/><path d="M534.711,396.506a.779.779,0,1,1-.779-.779A.779.779,0,0,1,534.711,396.506Z" transform="translate(-301.124 -259.688)"/><circle cx="1.145" cy="1.145" r="1.145" transform="translate(51.404 88.096)"/><circle cx="1.145" cy="1.145" r="1.145" transform="translate(97.588 75.771)"/><circle cx="1.145" cy="1.145" r="1.145" transform="translate(29.025 94.432)"/><circle class="m" cx="1.145" cy="1.145" r="1.145" transform="translate(115.498 35.054)"/><circle cx="1.145" cy="1.145" r="1.145" transform="translate(222.495 36.394)"/><circle cx="1.145" cy="1.145" r="1.145" transform="translate(222.495 97.837)"/><circle cx="1.145" cy="1.145" r="1.145" transform="translate(229.745 76.828)"/><circle cx="1.145" cy="1.145" r="1.145" transform="translate(197.256 122.835)"/><circle class="m" cx="1.145" cy="1.145" r="1.145" transform="translate(208.125 27.277)"/><circle cx="1.473" cy="1.473" r="1.473" transform="translate(21.164 114.844)"/><circle cx="0.779" cy="0.779" r="0.779" transform="translate(129.713 113.831)"/><path d="M545.11,177.4a.405.405,0,1,1-.405-.405A.405.405,0,0,1,545.11,177.4Z" transform="translate(-307.23 -139.857)"/><path d="M586.172,196.41a.405.405,0,1,1-.405-.4A.405.405,0,0,1,586.172,196.41Z" transform="translate(-329.724 -150.273)"/><g transform="translate(262.052 38.384)"><path class="d" d="M607.362,195.267h-.091l0-.532h.086c.155,0,.308,0,.461-.014l.033.531C607.692,195.262,607.527,195.267,607.362,195.267Zm-2.4-.377c-.186-.061-.371-.128-.551-.2l.2-.492q.252.1.513.188Zm5.175-.134-.19-.5c.171-.066.337-.137.5-.214l.228.481Q610.414,194.651,610.139,194.756Zm-7.73-1.269q-.226-.187-.437-.39l.369-.384q.2.189.407.364Zm10.209-.264-.36-.391q.2-.185.389-.385l.388.365C612.9,192.954,612.761,193.091,612.617,193.223Zm-12.07-1.979q-.142-.256-.264-.523l.484-.221c.075.166.158.328.245.487Zm13.813-.357-.479-.232q.119-.245.22-.5l.495.2C614.525,190.533,614.445,190.712,614.361,190.887Zm-14.717-2.413q-.036-.288-.052-.583l.531-.029c.01.183.026.365.049.545Zm15.475-.4-.531-.04c.014-.18.021-.362.021-.546h.532Q615.141,187.783,615.119,188.073Zm-.625-1.878q-.048-.27-.117-.532l.515-.134q.073.282.125.573Zm-14.158-.5-.515-.131q.073-.285.166-.562l.5.17Q600.4,185.431,600.336,185.7Zm13.183-2.034q-.144-.232-.306-.452l.429-.314q.173.236.328.485Zm-12.03-.424-.43-.313q.172-.237.361-.461l.406.343Q601.649,183.018,601.489,183.239Zm10.189-1.573c-.146-.109-.3-.211-.449-.309l.284-.45q.249.157.484.332Zm-8.214-.29-.286-.449q.246-.157.5-.3l.252.468Q603.695,181.229,603.464,181.375Zm5.77-.891q-.262-.07-.532-.12l.1-.523q.29.054.572.13Zm-3.248-.114-.1-.522q.286-.055.579-.089l.061.528C606.344,180.308,606.164,180.336,605.986,180.37Z" transform="translate(-599.592 -179.759)"/></g><circle class="d" cx="5.785" cy="5.785" r="5.785" transform="translate(264.037 40.327)"/><g transform="translate(33.108 0.854)"><path class="d" d="M110.429,131.1h-.2l.011-1.178h.19q.514,0,1.021-.032l.073,1.176C111.162,131.086,110.8,131.1,110.429,131.1Zm-5.31-.834c-.413-.134-.821-.283-1.22-.448l.448-1.089q.558.23,1.135.417Zm11.46-.3-.421-1.1q.566-.216,1.11-.474l.5,1.065Q117.188,129.734,116.58,129.967Zm-17.117-2.81q-.5-.413-.968-.864l.816-.849q.437.419.9.805Zm22.6-.584-.8-.866q.445-.41.861-.852l.858.806C122.693,125.976,122.385,126.279,122.067,126.572Zm-26.726-4.381q-.314-.567-.584-1.159l1.072-.489c.167.367.35.727.543,1.078Zm30.586-.791-1.06-.514q.264-.543.488-1.107l1.1.432Q126.21,120.817,125.928,121.4ZM93.34,116.056c-.052-.426-.092-.856-.115-1.29L94.4,114.7c.023.406.057.808.108,1.206Zm34.266-.888-1.176-.089q.045-.6.046-1.208h1.178Q127.654,114.527,127.606,115.169Zm-1.384-4.158q-.107-.6-.259-1.179l1.141-.3c.108.418.2.841.277,1.27Zm-31.349-1.1-1.141-.29q.16-.632.367-1.245l1.116.375Q95.024,109.318,94.873,109.907Zm29.19-4.5c-.213-.343-.439-.676-.676-1l.95-.7q.383.523.726,1.076Zm-26.637-.939-.953-.693q.381-.525.8-1.021l.9.76Q97.782,103.974,97.426,104.464Zm22.561-3.484q-.483-.36-.995-.684l.628-1q.552.348,1.071.736Zm-18.188-.642-.632-.994q.545-.347,1.117-.655l.559,1.036Q102.309,100.013,101.8,100.338Zm12.776-1.973q-.58-.155-1.177-.267l.216-1.158q.642.12,1.267.288Zm-7.191-.252-.221-1.157c.422-.081.85-.146,1.281-.2l.136,1.17Q107.974,98,107.384,98.112Z" transform="translate(-93.225 -96.759)"/></g><circle class="d" cx="12.809" cy="12.809" r="12.809" transform="translate(34.902 27.49) rotate(-76.717)"/><g transform="translate(274.379 121.437)"><path class="d" d="M639.149,388.014H639l.008-.843h.136q.368,0,.731-.023l.052.841C639.674,388.005,639.412,388.013,639.149,388.014Zm-3.8-.6c-.3-.1-.588-.2-.873-.32l.321-.779q.4.164.812.3Zm8.2-.213-.3-.787q.4-.155.794-.339l.361.762Q643.984,387.038,643.55,387.2Zm-12.247-2.01q-.358-.3-.693-.618l.584-.607c.209.2.423.392.646.576Zm16.172-.418-.571-.62q.318-.293.616-.609l.614.577C647.924,384.349,647.7,384.566,647.476,384.776Zm-19.121-3.135q-.225-.405-.418-.829l.767-.35c.119.263.25.52.388.772Zm21.883-.565-.759-.368q.189-.388.349-.792l.783.309C650.5,380.514,650.372,380.8,650.238,381.076Zm-23.315-3.824c-.038-.3-.066-.612-.082-.922l.841-.046c.016.29.041.579.077.864Zm24.515-.635-.841-.063q.032-.428.033-.864h.843Q651.473,376.158,651.439,376.617Zm-.99-2.975q-.077-.427-.185-.843l.816-.213q.116.448.2.909Zm-22.428-.79-.817-.208c.076-.3.165-.6.262-.891l.8.268Q628.127,372.431,628.02,372.852ZM648.9,369.63q-.229-.368-.484-.716l.68-.5q.274.374.52.769Zm-19.058-.672-.682-.5q.273-.376.573-.731l.644.544Q630.1,368.607,629.846,368.958Zm16.141-2.492c-.23-.172-.468-.335-.711-.489l.449-.712q.395.248.766.526Zm-13.012-.46-.452-.711q.39-.249.8-.469l.4.741Q633.34,365.774,632.975,366.007Zm9.141-1.412q-.415-.111-.842-.191l.155-.829q.459.086.906.205Zm-5.145-.181-.158-.828q.453-.086.917-.14l.1.837C637.537,364.316,637.253,364.36,636.971,364.414Z" transform="translate(-626.841 -363.446)"/></g><circle class="d" cx="9.164" cy="9.164" r="9.164" transform="translate(273.726 133.68) rotate(-45)"/><path class="d" d="M522.612,187.333h14.174l3.266-3.266h5.48l5.805,5.805h13.872" transform="translate(-295.361 -143.734)"/><circle class="n" cx="1.083" cy="1.083" r="1.083" transform="translate(268.744 45.054)"/><path class="d" d="M516.49,177.887h12.985l21.878,21.878H599.7" transform="translate(-292.029 -140.35)"/><path d="M699.807,223.386v2.593l1.84-1.3Z" transform="translate(-392.422 -165.273)"/><path class="d" d="M577.97,237.718l3.542-3.542h26.076" transform="translate(-325.698 -171.184)"/><path d="M604.029,253.267V251.28l-1.41.994Z" transform="translate(-339.197 -180.553)"/><path d="M609.13,253.267V251.28l-1.41.994Z" transform="translate(-341.991 -180.553)"/><path d="M614.232,253.267V251.28l-1.41.994Z" transform="translate(-344.785 -180.553)"/><path d="M619.334,253.267V251.28l-1.41.994Z" transform="translate(-347.579 -180.553)"/><path class="d" d="M588.758,319.813l11.931,11.931h16.66" transform="translate(-331.606 -218.099)"/><g transform="translate(198.627 71.664)"><path class="d" d="M514.948,313.766h24.765l8.938,8.939h23.292l3.519-3.519h10.956l9.338,9.338H609.94" transform="translate(-489.811 -286.465)"/><path class="d" d="M530.947,259.653h29.09l6.955,6.955h13.4l13.194-13.194H572.615" transform="translate(-498.573 -253.414)"/><path class="o" d="M496.024,340.555l8.033,8.033h12.976l5.694,5.694" transform="translate(-479.448 -301.137)"/><path class="p" d="M584.306,389.612l7.563,7.563h18.77" transform="translate(-538.526 -333.966)"/><path class="d" d="M589.986,371.656c2.119-2.119,3.684-3.7,3.684-3.7h17.7" transform="translate(-546.781 -316.145)"/><path class="i" d="M459.379,370.857l7.516,7.516h30.9l4.783-4.783" transform="translate(-459.379 -318.084)"/></g><path class="d" d="M499,386.694l4.865,4.865h10.967" transform="translate(-282.421 -254.741)"/><path class="q" d="M692.755,431.012" transform="translate(-388.56 -279.011)"/><path class="i" d="M482.823,142.954,494.677,131.1h24.268" transform="translate(-273.562 -114.712)"/><g transform="translate(263.215 118.17)"><circle class="r" cx="5.298" cy="5.298" r="5.298"/><circle class="s" cx="3.79" cy="3.79" r="3.79" transform="translate(0.769 8.166) rotate(-77.341)"/><path class="n" d="M613.6,366.341a1.3,1.3,0,1,1-1.3-1.3A1.3,1.3,0,0,1,613.6,366.341Z" transform="translate(-607 -361.043)"/></g><g transform="translate(70.178 56.539)"><circle class="r" cx="5.298" cy="5.298" r="5.298"/><circle class="s" cx="3.79" cy="3.79" r="3.79" transform="translate(1.508 1.508)"/><path class="n" d="M186.669,230.044a1.3,1.3,0,1,1-1.3-1.3A1.3,1.3,0,0,1,186.669,230.044Z" transform="translate(-180.068 -224.746)"/></g><path d="M648.642,325.01a.532.532,0,1,1-.532-.532A.532.532,0,0,1,648.642,325.01Z" transform="translate(-363.819 -220.652)"/><path class="d" d="M115.075,265.1A27.542,27.542,0,0,1,141.8,231.013" transform="translate(-71.652 -169.457)"/><path class="d" d="M191.357,207.487l10.974-10.974H223.22" transform="translate(-113.889 -150.552)"/><path class="d" d="M191.611,296H178.688l-4.755,4.755H144.686l-7.655-7.655" transform="translate(-84.129 -203.467)"/><path class="d" d="M179.421,301.663l-6.909-6.909h-9.707" transform="translate(-98.246 -204.37)"/><path class="d" d="M148.893,356.666l-8.538-8.538h-18.6l-11.485,11.485H80.136L70.925,350.4" transform="translate(-47.905 -233.611)"/><path class="d" d="M158.324,237.47H135.76l-22.712-22.712H93.1" transform="translate(-60.05 -160.549)"/><path class="p" d="M173.555,166.73h-26.01l-6.849-6.849H126.519l-9.388,9.388H88.287l5.853-5.853" transform="translate(-57.413 -130.485)"/><path class="d" d="M100.051,276.74H92.523l-5.793,5.793v6.857" transform="translate(-56.56 -194.503)"/><path d="M136.834,214.114a.532.532,0,1,1-.532-.532A.532.532,0,0,1,136.834,214.114Z" transform="translate(-83.417 -159.902)"/><path d="M90.955,372.292a.78.78,0,1,1-.78-.78A.78.78,0,0,1,90.955,372.292Z" transform="translate(-58.019 -246.426)"/><path class="t" d="M88.948,212.681a1.716,1.716,0,1,1-1.716-1.716A1.716,1.716,0,0,1,88.948,212.681Z" transform="translate(-55.896 -158.469)"/><path class="u" d="M23.466,391.694a1.716,1.716,0,1,1-1.716-1.716A1.716,1.716,0,0,1,23.466,391.694Z" transform="translate(-20.034 -256.539)"/><path class="t" d="M218.408,307.95a1.716,1.716,0,1,1-1.716-1.716A1.716,1.716,0,0,1,218.408,307.95Z" transform="translate(-126.825 -210.658)"/><path class="t" d="M186.582,262.89a1.716,1.716,0,1,1-1.715-1.715A1.716,1.716,0,0,1,186.582,262.89Z" transform="translate(-109.391 -185.974)"/><path class="i" d="M154.855,348.327l-8.448,8.448H108.44L96.332,368.883H27.62" transform="translate(-24.189 -233.729)"/><path class="t" d="M224,346.051a1.716,1.716,0,1,1-1.716-1.715A1.716,1.716,0,0,1,224,346.051Z" transform="translate(-129.891 -231.531)"/><g transform="translate(34.357 121.293)"><path d="M95.986,363.106v3.025l2.147-1.512Z" transform="translate(-95.986 -363.106)"/><path d="M101.45,363.106v3.025l2.147-1.512Z" transform="translate(-98.979 -363.106)"/><path d="M106.915,363.106v3.025l2.147-1.512Z" transform="translate(-101.971 -363.106)"/></g><g transform="translate(58.469 89.432)"><path d="M149.29,292.647v2.066l1.466-1.033Z" transform="translate(-149.29 -292.647)"/><path d="M153.023,292.647v2.066l1.466-1.033Z" transform="translate(-151.334 -292.647)"/><path d="M156.755,292.647v2.066l1.466-1.033Z" transform="translate(-153.378 -292.647)"/></g><g transform="translate(280.774 127.276)"><path class="v" d="M644.977,383.176a11.455,11.455,0,0,0,.7,2.261,6.845,6.845,0,0,0,1.217,1.959,2.411,2.411,0,0,0,1.6.859,4.493,4.493,0,0,0,2.464-.792c.344-.206.649-.413.894-.564a1.443,1.443,0,0,1,.511-.226,2,2,0,0,1,.663.222c.254.123.52.27.749.374a.143.143,0,0,0,.184-.082.129.129,0,0,0,.008-.032,1.748,1.748,0,0,0-1.043-1.7,2.075,2.075,0,0,0-1.7.018c.338-.643.718-1.336,1.053-2.039a6.621,6.621,0,0,0,.747-2.287,4.382,4.382,0,0,0-3.842-4.789,4.166,4.166,0,0,0-4.4,4.123v.009a7.962,7.962,0,0,0-.017,1.088l.017.272c.025.333.063.673.123,1.014Z" transform="translate(-643.053 -376.353)"/><path class="m" d="M642.842,389.188a2.027,2.027,0,0,0-1.042.185,1.333,1.333,0,0,1-.433.1c-.186-.128-.131-.37-.039-.527a1.481,1.481,0,0,1,.361-.385,2.338,2.338,0,0,1,1.031-.388l-.017-.272a2.092,2.092,0,0,0-1.177.445,1.7,1.7,0,0,0-.428.459c-.183.361-.19.8.244.94a1.329,1.329,0,0,0,.552-.119c.318-.1.717-.29,1.01-.126Z" transform="translate(-640.979 -382.678)"/><path class="m" d="M654.524,382.95a.143.143,0,0,1-.162.12.151.151,0,0,1-.054-.02,1.419,1.419,0,0,0-.727-.212,1.439,1.439,0,0,0-.748.143.143.143,0,0,1-.189-.07.141.141,0,0,1-.013-.049,4.478,4.478,0,0,1,.217-1.286.937.937,0,0,1,.825-.7c.361.024.585.42.7.766a3.974,3.974,0,0,1,.151,1.307" transform="translate(-647.36 -378.83)"/><path class="m" d="M647.151,382.714a.143.143,0,0,1-.189-.071.145.145,0,0,1-.013-.049,4.474,4.474,0,0,1,.217-1.286.937.937,0,0,1,.825-.7c.361.024.586.42.7.766a4,4,0,0,1,.151,1.308.144.144,0,0,1-.217.1,1.416,1.416,0,0,0-.727-.212A1.432,1.432,0,0,0,647.151,382.714Z" transform="translate(-644.249 -378.684)"/><path class="m" d="M652.226,388.98a2.038,2.038,0,0,0-2.2-.277,2.46,2.46,0,0,0-.774.519c-.185.2-.358.484-.065.654a1.431,1.431,0,0,0,.479,0,1.72,1.72,0,0,1,1.321.193l-.179.2a1.509,1.509,0,0,0-1.108-.128,1.527,1.527,0,0,1-.589,0c-.582-.181-.329-.8-.054-1.1a2.7,2.7,0,0,1,.861-.578,2.388,2.388,0,0,1,2.48.315Z" transform="translate(-645.241 -382.866)"/></g><g transform="translate(248.597 0.844)"><path class="d" d="M584.34,125.666h-.171l.01-.992h.16q.434,0,.861-.027l.062.99C584.957,125.656,584.649,125.665,584.34,125.666Zm-4.473-.7c-.348-.113-.692-.238-1.028-.377l.378-.917q.469.193.956.351Zm9.654-.251-.355-.926q.477-.183.935-.4l.424.9Q590.034,124.517,589.521,124.713ZM575.1,122.346q-.422-.348-.816-.728l.688-.715q.368.354.759.679Zm19.042-.492-.672-.73q.374-.345.726-.718l.723.679Q594.547,121.484,594.144,121.853Zm-22.514-3.691q-.264-.477-.492-.976l.9-.412c.14.309.294.612.457.908ZM597.4,117.5l-.893-.433q.222-.457.411-.933l.922.365Q597.634,117.005,597.4,117.5Zm-27.452-4.5c-.044-.358-.077-.721-.1-1.086l.99-.054c.019.342.048.681.091,1.016Zm28.866-.747-.99-.075c.025-.336.038-.675.038-1.018h.993Q598.851,111.706,598.81,112.247Zm-1.166-3.5q-.09-.5-.218-.993l.961-.25c.091.351.17.708.233,1.07Zm-26.409-.931-.961-.244q.135-.533.309-1.049l.94.316Q571.362,107.317,571.236,107.813Zm24.59-3.794c-.179-.289-.37-.57-.569-.843l.8-.586q.322.441.612.906Zm-22.44-.791-.8-.583q.322-.443.674-.861l.758.641Q573.686,102.816,573.386,103.229Zm19.006-2.934c-.271-.2-.551-.394-.838-.576l.529-.839q.465.293.9.62Zm-15.322-.541-.533-.837q.459-.293.941-.552l.471.873Q577.5,99.479,577.07,99.753Zm10.763-1.662q-.489-.131-.992-.225l.182-.976q.541.1,1.067.242Zm-6.058-.213-.186-.975c.356-.068.716-.123,1.079-.165l.114.986C582.442,97.763,582.107,97.814,581.774,97.878Z" transform="translate(-569.847 -96.738)"/></g><circle class="d" cx="10.791" cy="10.791" r="10.791" transform="translate(247.829 15.26) rotate(-45)"/><g transform="translate(34.99 92.852)"><path class="d" d="M108.819,323.041h-.134l.008-.783h.126q.342,0,.679-.022l.049.781C109.306,323.033,109.062,323.04,108.819,323.041Zm-3.528-.554c-.275-.089-.546-.188-.811-.3l.3-.724q.37.153.755.277Zm7.616-.2-.28-.731q.376-.144.737-.315l.335.708Q113.31,322.134,112.906,322.289Zm-11.375-1.867q-.332-.275-.644-.574l.543-.564q.29.279.6.535Zm15.023-.389-.531-.575q.3-.273.573-.566l.57.536C116.969,319.637,116.764,319.839,116.553,320.033Zm-17.762-2.912q-.209-.377-.389-.77l.712-.325c.111.244.233.483.361.717Zm20.327-.526-.7-.341c.117-.24.225-.486.324-.736l.728.287Q119.306,316.208,119.119,316.6Zm-21.657-3.551c-.035-.283-.061-.569-.076-.857l.781-.043c.015.27.038.537.072.8Zm22.772-.59-.781-.059c.02-.265.031-.533.031-.8h.783Q120.266,312.028,120.234,312.454Zm-.92-2.763q-.071-.4-.172-.783l.759-.2q.108.417.184.844Zm-20.834-.734-.758-.193c.071-.28.153-.556.244-.827l.741.249Q98.58,308.566,98.481,308.957Zm19.4-2.993c-.142-.228-.292-.449-.45-.665l.631-.462q.254.347.483.715Zm-17.7-.624-.633-.46q.253-.349.532-.679l.6.506Q100.414,305.014,100.177,305.34Zm14.994-2.315q-.322-.24-.661-.454l.418-.662c.244.154.482.318.712.489Zm-12.087-.427-.421-.66q.362-.231.742-.436l.372.689Q103.422,302.382,103.083,302.6Zm8.491-1.311q-.385-.1-.782-.177l.143-.77q.427.079.842.191Zm-4.78-.168-.147-.769c.28-.054.565-.1.851-.13l.09.777Q107.187,301.044,106.794,301.119Z" transform="translate(-97.385 -300.22)"/></g><circle class="d" cx="9.164" cy="9.164" r="9.164" transform="translate(33.462 104.221) rotate(-45)"/><g transform="translate(40.51 98.27)"><path class="v" d="M113.586,319.019a11.486,11.486,0,0,0,.7,2.261,6.833,6.833,0,0,0,1.217,1.959,2.411,2.411,0,0,0,1.6.859,4.493,4.493,0,0,0,2.464-.792c.344-.206.649-.413.894-.564a1.443,1.443,0,0,1,.511-.226,2.008,2.008,0,0,1,.663.222c.254.123.52.269.749.374a.143.143,0,0,0,.184-.082.13.13,0,0,0,.008-.032,1.748,1.748,0,0,0-1.043-1.7,2.075,2.075,0,0,0-1.695.018c.338-.643.718-1.336,1.053-2.039a6.622,6.622,0,0,0,.747-2.287A4.382,4.382,0,0,0,117.8,312.2a4.166,4.166,0,0,0-4.4,4.123v.009a7.942,7.942,0,0,0-.017,1.088l.017.272c.025.333.063.673.123,1.014Z" transform="translate(-111.662 -312.196)"/><path class="m" d="M111.451,325.031a2.027,2.027,0,0,0-1.042.185,1.335,1.335,0,0,1-.433.1c-.186-.128-.131-.37-.039-.527a1.473,1.473,0,0,1,.361-.385,2.334,2.334,0,0,1,1.03-.388l-.017-.272a2.087,2.087,0,0,0-1.177.445,1.7,1.7,0,0,0-.428.459c-.183.361-.19.8.244.94a1.33,1.33,0,0,0,.552-.119c.317-.1.717-.29,1.01-.126Z" transform="translate(-109.588 -318.521)"/><path class="w" d="M123.133,318.793a.143.143,0,0,1-.163.12.151.151,0,0,1-.054-.02,1.421,1.421,0,0,0-.727-.212,1.439,1.439,0,0,0-.748.143.143.143,0,0,1-.2-.119,4.475,4.475,0,0,1,.217-1.286.937.937,0,0,1,.825-.7c.361.024.585.42.7.766a3.989,3.989,0,0,1,.151,1.307" transform="translate(-115.969 -314.673)"/><path class="m" d="M115.76,318.557a.143.143,0,0,1-.2-.119,4.475,4.475,0,0,1,.217-1.286.937.937,0,0,1,.825-.7c.361.023.585.42.7.766a3.991,3.991,0,0,1,.15,1.308.143.143,0,0,1-.216.1,1.417,1.417,0,0,0-.727-.212A1.436,1.436,0,0,0,115.76,318.557Z" transform="translate(-112.858 -314.528)"/><path class="m" d="M120.835,324.823a2.038,2.038,0,0,0-2.2-.277,2.462,2.462,0,0,0-.774.519c-.185.2-.358.484-.065.654a1.433,1.433,0,0,0,.479,0,1.72,1.72,0,0,1,1.321.193l-.179.2a1.509,1.509,0,0,0-1.108-.128,1.526,1.526,0,0,1-.589,0c-.582-.181-.329-.8-.054-1.1a2.7,2.7,0,0,1,.861-.578,2.388,2.388,0,0,1,2.48.315Z" transform="translate(-113.85 -318.709)"/></g><g transform="translate(256.702 9.963)"><path class="v" d="M596.784,121.172l1.158,3.968,0,0h0l-2.769-.129,0,0h0l1.611-3.839h0Z" transform="translate(-591.819 -119.237)"/><path class="v" d="M4.166,0,5.524.063,8.633,10.073l-1.2-.057L6.571,7.034a.141.141,0,0,0-.127-.1l-4-.187a.141.141,0,0,0-.137.085L1.109,9.72,0,9.668Z" transform="matrix(0.999, -0.052, 0.052, 0.999, 0, 0.452)"/><rect class="v" width="10.129" height="1.396" rx="0.099" transform="translate(10.904 10.186) rotate(-90.305)"/></g><g transform="translate(41.896 9.479)"><circle class="x" cx="8.415" cy="8.415" r="8.415" transform="translate(0 0.072)"/><line class="x" y1="0.338" x2="16.827" transform="translate(0.002 8.318)"/><line class="x" y1="0.299" x2="14.9" transform="translate(0.887 4.426)"/><line class="x" y1="0.296" x2="14.724" transform="translate(1.044 12.253)"/><line class="x" x1="0.208" y1="16.813" transform="translate(8.377 0.088)"/><ellipse class="x" cx="4.448" cy="8.407" rx="4.448" ry="8.407" transform="translate(3.863 0.179) rotate(-1.151)"/></g><g transform="translate(139.04 39.909)"><g transform="translate(30.7)"><path class="d" d="M437.954,220.818c4.781-5.585-.965-10.107-.965-10.107s4-5.737-4.445-8.7c-8.5-2.082-10.292,7.982-10.292,7.982" transform="translate(-410.676 -192.209)"/><path class="d" d="M401.805,229.354s12.312,2.811,9.54,10.789c-1.494,3.668-4.506,4.512-7.581,3.331,0,0-3.772,4.5-7.269.917l-1.043-61.377s8.738-7.845,12.729.577c0,0,9.252-2.583,9.14,5.9" transform="translate(-395.451 -179.693)"/><path class="d" d="M419.481,241.916s5.022-8.179,12.993-.649c3.636,3.948,4.414,8.209-.312,12.74,0,0,3.5,7.888-5.816,9.316a4.43,4.43,0,0,1-.725.048c-1.806-.025-8.681-.666-12.232-8.724" transform="translate(-405.641 -212.861)"/><path class="d" d="M439.1,295.638s2.856,7.359-6.341,9.624" transform="translate(-416.642 -245.557)"/><path class="d" d="M406.357,226.284s-1.023,7.773-9.91,8.6" transform="translate(-396.017 -206.16)"/></g><g transform="translate(0 0.283)"><path class="d" d="M327.069,222.675c-4.968-5.419.621-10.134.621-10.134s-4.193-5.6,4.147-8.848c8.427-2.369,10.557,7.628,10.557,7.628" transform="translate(-324.737 -193.403)"/><path class="d" d="M357.657,229.948s-12.209,3.227-9.167,11.108c1.618,3.615,4.657,4.356,7.69,3.071,0,0,3.922,4.369,7.3.669l-1.043-61.377s-9-7.543-12.7,1.009c0,0-9.334-2.267-8.934,6.21" transform="translate(-333.697 -180.347)"/><path class="d" d="M340.153,243.332s-5.3-8-13.008-.206c-3.5,4.069-4.132,8.354.745,12.721,0,0-3.233,8,6.13,9.113a4.384,4.384,0,0,0,.727.024c1.8-.087,8.653-.961,11.928-9.135" transform="translate(-324.376 -214.071)"/><path class="d" d="M342.184,297.42s-2.6,7.452,6.665,9.4" transform="translate(-334.301 -246.852)"/><path class="d" d="M368.3,227.152s1.288,7.734,10.2,8.258" transform="translate(-349.326 -206.935)"/></g></g><path class="t" d="M557.279,371.457a1.716,1.716,0,1,1-1.716-1.716A1.716,1.716,0,0,1,557.279,371.457Z" transform="translate(-312.461 -245.456)"/><path class="t" d="M639.958,280.5a1.716,1.716,0,1,1-1.715-1.716A1.716,1.716,0,0,1,639.958,280.5Z" transform="translate(-357.767 -195.623)"/></g></g><g transform="translate(-1658.315 984)"><path d="M13.376-5.632a4.494,4.494,0,0,1-.726,2.024A4.2,4.2,0,0,1,9.086-1.98c-3.08,0-5.016-2.508-5.016-6.534C4.07-12.562,5.962-15,9.086-15A3.984,3.984,0,0,1,12.3-13.64a4.584,4.584,0,0,1,.946,1.892l3.058-.7a7.824,7.824,0,0,0-.682-1.694,6.754,6.754,0,0,0-2.332-2.4A7.774,7.774,0,0,0,9.064-17.6a7.644,7.644,0,0,0-5.5,2.09A9.961,9.961,0,0,0,.99-8.4,9.935,9.935,0,0,0,3.388-1.5,7.567,7.567,0,0,0,9.042.616a7.491,7.491,0,0,0,6.006-2.4,8.406,8.406,0,0,0,1.474-3.3ZM26.18.682C30.1.682,32.67-2,32.67-6.072s-2.53-6.666-6.512-6.666c-4,0-6.556,2.618-6.556,6.71C19.6-1.914,22.154.682,26.18.682ZM26.158-10.45c2.332,0,3.674,1.628,3.674,4.466,0,2.684-1.408,4.334-3.7,4.334s-3.7-1.672-3.7-4.378C22.44-8.778,23.848-10.45,26.158-10.45ZM39.358.264a19.575,19.575,0,0,1-.176-2.86V-7.04c.968-2.178,2.266-3.278,3.85-3.278a2.069,2.069,0,0,1,1.848.9,3.614,3.614,0,0,1,.374,1.936V-2.6A23.38,23.38,0,0,1,45.1.264h3.19a17.385,17.385,0,0,1-.176-2.86v-5.28a4.892,4.892,0,0,0-.748-3.08,4.346,4.346,0,0,0-3.74-1.628,5.029,5.029,0,0,0-4.488,2.332,8.6,8.6,0,0,0,.044-.946v-1.166H36.19a18.082,18.082,0,0,1,.176,2.86V-2.6A18.261,18.261,0,0,1,36.19.264Zm16.126,0a19.575,19.575,0,0,1-.176-2.86V-7.04c.968-2.178,2.266-3.278,3.85-3.278a2.069,2.069,0,0,1,1.848.9A3.614,3.614,0,0,1,61.38-7.48V-2.6a23.38,23.38,0,0,1-.154,2.86h3.19A17.385,17.385,0,0,1,64.24-2.6v-5.28a4.892,4.892,0,0,0-.748-3.08,4.346,4.346,0,0,0-3.74-1.628,5.029,5.029,0,0,0-4.488,2.332,8.6,8.6,0,0,0,.044-.946v-1.166H52.316a18.082,18.082,0,0,1,.176,2.86V-2.6a18.261,18.261,0,0,1-.176,2.86ZM80.278-5.324c-.044-.506-.044-.572-.044-.616A9.044,9.044,0,0,0,79.6-9.284a5.589,5.589,0,0,0-5.478-3.476c-3.762,0-6.2,2.662-6.2,6.732,0,4.114,2.464,6.71,6.358,6.71A6.248,6.248,0,0,0,78.8-1.012a6.183,6.183,0,0,0,1.342-2.024l-2.6-.836a3.2,3.2,0,0,1-.638,1.144,3.479,3.479,0,0,1-2.64,1.1,3.458,3.458,0,0,1-2.75-1.232,4.089,4.089,0,0,1-.814-2.464ZM70.774-7.5a3.3,3.3,0,0,1,3.3-2.992,3.137,3.137,0,0,1,2.376.88A3.453,3.453,0,0,1,77.418-7.5ZM95.238-8.778a7.323,7.323,0,0,0-.77-1.606A5.69,5.69,0,0,0,89.54-12.76a6.024,6.024,0,0,0-4.422,1.672,7.114,7.114,0,0,0-1.87,5.082c0,4.07,2.508,6.688,6.38,6.688a5.717,5.717,0,0,0,4.84-2.222,6.159,6.159,0,0,0,.924-1.87l-2.728-.55a3.075,3.075,0,0,1-.44,1.1,2.945,2.945,0,0,1-2.53,1.232c-2.222,0-3.586-1.694-3.586-4.444,0-2.728,1.342-4.422,3.5-4.422a2.768,2.768,0,0,1,2.266,1.012,3.964,3.964,0,0,1,.682,1.342Zm5.082-6.974a25.321,25.321,0,0,1,.154,2.706v.682H99.66a10.1,10.1,0,0,1-1.98-.132v2.6a11.11,11.11,0,0,1,1.958-.132h.836V-2.64c0,2.31,1.012,3.212,3.542,3.212a6.884,6.884,0,0,0,2.75-.462l-.4-2.332a2.91,2.91,0,0,1-1.606.484c-1.056,0-1.452-.4-1.452-1.474v-6.82h.99a12.13,12.13,0,0,1,2.156.132v-2.6a12.639,12.639,0,0,1-2.222.132h-.924v-.682a24.331,24.331,0,0,1,.154-2.706Zm19.514,0a25.321,25.321,0,0,1,.154,2.706v.682h-.814a10.1,10.1,0,0,1-1.98-.132v2.6a11.11,11.11,0,0,1,1.958-.132h.836V-2.64c0,2.31,1.012,3.212,3.542,3.212A6.884,6.884,0,0,0,126.28.11l-.4-2.332a2.91,2.91,0,0,1-1.606.484c-1.056,0-1.452-.4-1.452-1.474v-6.82h.99a12.13,12.13,0,0,1,2.156.132v-2.6a12.639,12.639,0,0,1-2.222.132h-.924v-.682a24.331,24.331,0,0,1,.154-2.706Zm9.416-1.5a20.587,20.587,0,0,1,.154,2.882V-2.6a18.081,18.081,0,0,1-.176,2.86H132.4a19.574,19.574,0,0,1-.176-2.86V-7.04c.99-2.2,2.266-3.256,3.916-3.256a2.042,2.042,0,0,1,1.518.638,3.1,3.1,0,0,1,.638,2.178V-2.6a23.38,23.38,0,0,1-.154,2.86h3.19a17.385,17.385,0,0,1-.176-2.86V-8.14c0-2.838-1.606-4.444-4.422-4.444a5.136,5.136,0,0,0-4.554,2.332,9.022,9.022,0,0,0,.044-.946v-3.146a21.144,21.144,0,0,1,.154-2.9ZM157.19-5.324c-.044-.506-.044-.572-.044-.616a9.044,9.044,0,0,0-.638-3.344,5.589,5.589,0,0,0-5.478-3.476c-3.762,0-6.2,2.662-6.2,6.732,0,4.114,2.464,6.71,6.358,6.71a6.248,6.248,0,0,0,4.532-1.694,6.183,6.183,0,0,0,1.342-2.024l-2.6-.836a3.2,3.2,0,0,1-.638,1.144,3.479,3.479,0,0,1-2.64,1.1,3.458,3.458,0,0,1-2.75-1.232,4.089,4.089,0,0,1-.814-2.464Zm-9.5-2.178a3.3,3.3,0,0,1,3.3-2.992,3.137,3.137,0,0,1,2.376.88A3.453,3.453,0,0,1,154.33-7.5ZM13.2,36.676c-.044-.506-.044-.572-.044-.616a9.044,9.044,0,0,0-.638-3.344A5.589,5.589,0,0,0,7.04,29.24c-3.762,0-6.2,2.662-6.2,6.732,0,4.114,2.464,6.71,6.358,6.71a6.248,6.248,0,0,0,4.532-1.694,6.183,6.183,0,0,0,1.342-2.024l-2.6-.836a3.2,3.2,0,0,1-.638,1.144,3.479,3.479,0,0,1-2.64,1.1,3.458,3.458,0,0,1-2.75-1.232,4.089,4.089,0,0,1-.814-2.464ZM3.7,34.5A3.3,3.3,0,0,1,7,31.506a3.137,3.137,0,0,1,2.376.88A3.453,3.453,0,0,1,10.34,34.5Zm16.17,7.766a19.574,19.574,0,0,1-.176-2.86V34.96c.968-2.178,2.266-3.278,3.85-3.278a2.069,2.069,0,0,1,1.848.9,3.614,3.614,0,0,1,.374,1.936V39.4a23.38,23.38,0,0,1-.154,2.86H28.8a17.385,17.385,0,0,1-.176-2.86v-5.28a4.892,4.892,0,0,0-.748-3.08,4.346,4.346,0,0,0-3.74-1.628,5.029,5.029,0,0,0-4.488,2.332,8.6,8.6,0,0,0,.044-.946V29.636H16.7a18.082,18.082,0,0,1,.176,2.86V39.4a18.261,18.261,0,0,1-.176,2.86Zm21.318,0h2.97a17.694,17.694,0,0,1-.176-2.75V33.6a3.694,3.694,0,0,0-1.034-3.036c-.946-.924-2.222-1.3-4.334-1.3a6.587,6.587,0,0,0-4.2,1.122,4.6,4.6,0,0,0-1.738,2.442l2.816.506a2.4,2.4,0,0,1,.88-1.408,3.969,3.969,0,0,1,2.288-.638c1.672,0,2.53.66,2.53,1.936v1.122c-3.146.066-4.774.286-6.2.88a3.9,3.9,0,0,0-2.486,3.564c0,2.31,1.628,3.7,4.312,3.7a7.784,7.784,0,0,0,2.046-.264,4.771,4.771,0,0,0,2.332-1.386Zm0-4.906a2.622,2.622,0,0,1-.792,1.936,4.467,4.467,0,0,1-3.058,1.166c-1.232,0-2-.638-2-1.672,0-1.716,1.65-2.442,5.852-2.53Zm9.834,4.906V41.186c0-.264,0-.506-.022-.792a4.786,4.786,0,0,0,4.378,2.178A5.641,5.641,0,0,0,59.6,40.988a7.192,7.192,0,0,0,1.8-5.148c0-4.092-2.178-6.49-5.874-6.49A5.128,5.128,0,0,0,51,31.572c.022-.748.044-1.3.044-1.65v-2.2a22.422,22.422,0,0,1,.154-2.97h-3.1a25.655,25.655,0,0,1,.154,2.948V39.294a23.094,23.094,0,0,1-.154,2.97Zm7.524-6.424c0,2.662-1.43,4.378-3.652,4.378a3.833,3.833,0,0,1-2.31-.814,4.589,4.589,0,0,1-1.452-3.476,4.738,4.738,0,0,1,1.078-3.058A3.926,3.926,0,0,1,55.2,31.66C57.222,31.66,58.542,33.31,58.542,35.84Zm6.4-11.088a19.838,19.838,0,0,1,.154,2.86V39.4a21.3,21.3,0,0,1-.154,2.86h3.19a22.66,22.66,0,0,1-.154-2.86V27.634a20.381,20.381,0,0,1,.154-2.882ZM84.062,36.676c-.044-.506-.044-.572-.044-.616a9.044,9.044,0,0,0-.638-3.344A5.589,5.589,0,0,0,77.9,29.24c-3.762,0-6.2,2.662-6.2,6.732,0,4.114,2.464,6.71,6.358,6.71a6.248,6.248,0,0,0,4.532-1.694,6.183,6.183,0,0,0,1.342-2.024l-2.6-.836a3.2,3.2,0,0,1-.638,1.144,3.7,3.7,0,0,1-5.39-.132,4.089,4.089,0,0,1-.814-2.464Zm-9.5-2.178a3.3,3.3,0,0,1,3.3-2.992,3.137,3.137,0,0,1,2.376.88A3.453,3.453,0,0,1,81.2,34.5Zm23.122-8.25a25.321,25.321,0,0,1,.154,2.706v.682H97.02a10.1,10.1,0,0,1-1.98-.132v2.6A11.11,11.11,0,0,1,97,31.968h.836V39.36c0,2.31,1.012,3.212,3.542,3.212a6.884,6.884,0,0,0,2.75-.462l-.4-2.332a2.91,2.91,0,0,1-1.606.484c-1.056,0-1.452-.4-1.452-1.474v-6.82h.99a12.13,12.13,0,0,1,2.156.132V29.5a12.639,12.639,0,0,1-2.222.132h-.924v-.682a24.331,24.331,0,0,1,.154-2.706Zm9.416-1.5a20.587,20.587,0,0,1,.154,2.882V39.4a18.081,18.081,0,0,1-.176,2.86h3.168a19.575,19.575,0,0,1-.176-2.86V34.96c.99-2.2,2.266-3.256,3.916-3.256a2.042,2.042,0,0,1,1.518.638,3.1,3.1,0,0,1,.638,2.178V39.4a23.38,23.38,0,0,1-.154,2.86h3.19A17.385,17.385,0,0,1,119,39.4V33.86c0-2.838-1.606-4.444-4.422-4.444a5.136,5.136,0,0,0-4.554,2.332,9.022,9.022,0,0,0,.044-.946V27.656a21.143,21.143,0,0,1,.154-2.9Zm27.94,11.924c-.044-.506-.044-.572-.044-.616a9.044,9.044,0,0,0-.638-3.344,5.589,5.589,0,0,0-5.478-3.476c-3.762,0-6.2,2.662-6.2,6.732,0,4.114,2.464,6.71,6.358,6.71a6.248,6.248,0,0,0,4.532-1.694,6.183,6.183,0,0,0,1.342-2.024l-2.6-.836a3.2,3.2,0,0,1-.638,1.144,3.7,3.7,0,0,1-5.39-.132,4.089,4.089,0,0,1-.814-2.464Zm-9.5-2.178a3.3,3.3,0,0,1,3.3-2.992,3.137,3.137,0,0,1,2.376.88,3.453,3.453,0,0,1,.968,2.112Zm21.1,4.18a4.948,4.948,0,0,0,.858,1.958c.946,1.276,2.64,1.958,4.906,1.958a6.5,6.5,0,0,0,4.554-1.43,3.537,3.537,0,0,0,1.078-2.486,3.127,3.127,0,0,0-1.276-2.728c-.726-.55-1.628-.858-3.872-1.342a9.267,9.267,0,0,1-2.2-.66A1.186,1.186,0,0,1,150,32.914c0-.924.924-1.54,2.288-1.54,1.43,0,2.178.528,2.42,1.738l2.9-.374a4.283,4.283,0,0,0-1.188-2.178,6,6,0,0,0-4.136-1.276,5.306,5.306,0,0,0-4.4,1.716,3.273,3.273,0,0,0-.682,2.046,3.15,3.15,0,0,0,1.936,2.926,13.3,13.3,0,0,0,3.168.946c1.76.4,1.892.418,2.31.7a1.345,1.345,0,0,1,.572,1.1c0,1.034-1.012,1.672-2.64,1.672-1.716,0-2.53-.594-2.9-2.09Zm20.966,4c3.916,0,6.49-2.684,6.49-6.754s-2.53-6.666-6.512-6.666c-4,0-6.556,2.618-6.556,6.71C161.018,40.086,163.57,42.682,167.6,42.682Zm-.022-11.132c2.332,0,3.674,1.628,3.674,4.466,0,2.684-1.408,4.334-3.7,4.334s-3.7-1.672-3.7-4.378C163.856,33.222,165.264,31.55,167.574,31.55Zm18.92-1.914a23.211,23.211,0,0,1,.176,2.86V36.94c-.99,2.178-2.244,3.256-3.828,3.256a2.737,2.737,0,0,1-1.21-.308,2.686,2.686,0,0,1-1.012-2.508V32.5a19.69,19.69,0,0,1,.154-2.86h-3.19a20.221,20.221,0,0,1,.176,2.86v5.566a4.106,4.106,0,0,0,1.782,3.806,5.587,5.587,0,0,0,7.15-1.716c-.022.55-.022.616-.022.946v1.166h2.992a18.081,18.081,0,0,1-.176-2.86V32.5a15.929,15.929,0,0,1,.176-2.86Zm7.238-4.884a19.838,19.838,0,0,1,.154,2.86V39.4a21.3,21.3,0,0,1-.154,2.86h3.19a22.66,22.66,0,0,1-.154-2.86V27.634a20.381,20.381,0,0,1,.154-2.882Z" transform="translate(1680 -673)"/><path class="m" d="M171.16-10.054V-2.6a23.627,23.627,0,0,1-.154,2.86h3.146A21.744,21.744,0,0,1,174-2.6v-7.458h1.078a18.934,18.934,0,0,1,2.442.132V-12.5a24.161,24.161,0,0,1-2.486.132H174v-.9c0-1.518.44-2.046,1.716-2.046a3.642,3.642,0,0,1,1.958.528l.594-2.31a7.955,7.955,0,0,0-2.728-.44c-2.992,0-4.378,1.276-4.378,4v1.166h-.9a14.417,14.417,0,0,1-2.068-.132v2.574a14.964,14.964,0,0,1,2.09-.132Zm18.876-2.31a23.211,23.211,0,0,1,.176,2.86V-5.06c-.99,2.178-2.244,3.256-3.828,3.256a2.737,2.737,0,0,1-1.21-.308,2.686,2.686,0,0,1-1.012-2.508V-9.5a19.69,19.69,0,0,1,.154-2.86h-3.19A20.221,20.221,0,0,1,181.3-9.5v5.566a4.106,4.106,0,0,0,1.782,3.806,4.792,4.792,0,0,0,2.64.638,4.835,4.835,0,0,0,4.51-2.354c-.022.55-.022.616-.022.946V.264H193.2a18.081,18.081,0,0,1-.176-2.86V-9.5a15.929,15.929,0,0,1,.176-2.86Zm8.712-3.388a25.323,25.323,0,0,1,.154,2.706v.682h-.814a10.1,10.1,0,0,1-1.98-.132v2.6a11.109,11.109,0,0,1,1.958-.132h.836V-2.64c0,2.31,1.012,3.212,3.542,3.212a6.884,6.884,0,0,0,2.75-.462l-.4-2.332a2.91,2.91,0,0,1-1.606.484c-1.056,0-1.452-.4-1.452-1.474v-6.82h.99a12.13,12.13,0,0,1,2.156.132v-2.6a12.639,12.639,0,0,1-2.222.132h-.924v-.682a24.333,24.333,0,0,1,.154-2.706Zm18.282,3.388a23.211,23.211,0,0,1,.176,2.86V-5.06c-.99,2.178-2.244,3.256-3.828,3.256a2.737,2.737,0,0,1-1.21-.308,2.686,2.686,0,0,1-1.012-2.508V-9.5a19.69,19.69,0,0,1,.154-2.86h-3.19A20.221,20.221,0,0,1,208.3-9.5v5.566a4.106,4.106,0,0,0,1.782,3.806,4.792,4.792,0,0,0,2.64.638,4.835,4.835,0,0,0,4.51-2.354c-.022.55-.022.616-.022.946V.264H220.2a18.081,18.081,0,0,1-.176-2.86V-9.5a15.929,15.929,0,0,1,.176-2.86Zm16.456,0a11.407,11.407,0,0,0-2.046-.242A4.208,4.208,0,0,0,227.3-10.3v-2.068h-2.992a17.394,17.394,0,0,1,.154,2.86V-2.6a24.131,24.131,0,0,1-.154,2.86h3.146A23.137,23.137,0,0,1,227.3-2.6v-4.07a3.541,3.541,0,0,1,.9-2.2,3.14,3.14,0,0,1,2.552-1.078,6.57,6.57,0,0,1,1.958.352Zm14.762,7.04c-.044-.506-.044-.572-.044-.616a9.044,9.044,0,0,0-.638-3.344,5.589,5.589,0,0,0-5.478-3.476c-3.762,0-6.2,2.662-6.2,6.732,0,4.114,2.464,6.71,6.358,6.71a6.248,6.248,0,0,0,4.532-1.694,6.183,6.183,0,0,0,1.342-2.024l-2.6-.836a3.2,3.2,0,0,1-.638,1.144,3.479,3.479,0,0,1-2.64,1.1,3.458,3.458,0,0,1-2.75-1.232,4.089,4.089,0,0,1-.814-2.464Zm-9.5-2.178a3.3,3.3,0,0,1,3.3-2.992,3.137,3.137,0,0,1,2.376.88,3.453,3.453,0,0,1,.968,2.112Zm16.214,4.554h-3.234V.264h1.848c-.022,1.364-.33,1.76-1.672,2.134l.792,1.166c1.782-.7,2.266-1.408,2.266-3.3Z" transform="translate(1680 -673)"/><path d="M2.085-4A1.733,1.733,0,0,0,.8-3.5a2.141,2.141,0,0,0-.57,1.56A1.856,1.856,0,0,0,2.09.145,1.862,1.862,0,0,0,3.96-1.94,2.156,2.156,0,0,0,3.4-3.5,1.752,1.752,0,0,0,2.085-4ZM2.1-.45a1.08,1.08,0,0,1-.775-.305,1.652,1.652,0,0,1-.4-1.18c0-.9.455-1.475,1.175-1.475a1.076,1.076,0,0,1,.77.305A1.615,1.615,0,0,1,3.26-1.94C3.26-1.02,2.815-.45,2.1-.45ZM15.24-3.92a4.07,4.07,0,0,1,.04.685v1.76A.913.913,0,0,1,14.265-.44.916.916,0,0,1,13.24-1.47V-3.235a3.921,3.921,0,0,1,.04-.685h-.745a4.108,4.108,0,0,1,.04.685V-1.47A1.611,1.611,0,0,0,12.95-.32a1.723,1.723,0,0,0,1.29.47,1.506,1.506,0,0,0,1.7-1.615V-3.24a4.041,4.041,0,0,1,.04-.68ZM28.055.06c-.07-.135-.195-.405-.235-.5-.5-1.17-.59-1.31-.905-1.41a1.057,1.057,0,0,0,.555-.29,1.028,1.028,0,0,0,.255-.745c0-.66-.435-1.04-1.195-1.04h-1.2c-.275,0-.43-.005-.64-.015a4.449,4.449,0,0,1,.04.65v2.7a3.913,3.913,0,0,1-.04.65h.745A3.9,3.9,0,0,1,25.4-.6v-1.02h.745c.385,0,.56.185.83.875a4.048,4.048,0,0,1,.26.8ZM25.4-2.185V-3.35H26.42c.41,0,.615.185.615.545a.593.593,0,0,1-.16.44.674.674,0,0,1-.475.18ZM48.625.06a4.072,4.072,0,0,1,.22-.665l.75-1.76a6.1,6.1,0,0,0,.23-.73c-.005.075-.02.33-.04.765V-.67a4.649,4.649,0,0,1-.04.73h.7a4.334,4.334,0,0,1-.04-.73V-3.18a5.178,5.178,0,0,1,.04-.74h-.92a2.771,2.771,0,0,1-.18.6l-1.01,2.48L47.32-3.325a3.46,3.46,0,0,1-.185-.6H46.22a4.96,4.96,0,0,1,.04.74V-.67a4.69,4.69,0,0,1-.04.73h.7a4.569,4.569,0,0,1-.04-.73V-2.31c0-.11-.02-.52-.04-.785a5.564,5.564,0,0,0,.255.765l.72,1.715a3.4,3.4,0,0,1,.22.675Zm10.53-3.98a3.736,3.736,0,0,1,.04.645v2.69a3.773,3.773,0,0,1-.04.645h.76a3.772,3.772,0,0,1-.04-.645v-2.69a3.735,3.735,0,0,1,.04-.645ZM68.49-1.105a1.709,1.709,0,0,0,.1.415,1.177,1.177,0,0,0,.44.57,2.01,2.01,0,0,0,1.05.26A1.657,1.657,0,0,0,71.27-.24a1.163,1.163,0,0,0,.315-.85.987.987,0,0,0-.415-.86,2.2,2.2,0,0,0-.815-.305,4.257,4.257,0,0,1-.7-.18.475.475,0,0,1-.34-.455c0-.325.295-.545.73-.545a.791.791,0,0,1,.625.24.646.646,0,0,1,.15.355l.715-.085a1.348,1.348,0,0,0-.245-.58A1.474,1.474,0,0,0,70.04-4.01c-.86,0-1.42.45-1.42,1.145a.984.984,0,0,0,.385.81,1.767,1.767,0,0,0,.755.3,3.153,3.153,0,0,1,.87.245.508.508,0,0,1,.25.46c0,.375-.3.6-.8.6a.888.888,0,0,1-.73-.3.717.717,0,0,1-.14-.44Zm11.575,0a1.709,1.709,0,0,0,.1.415,1.177,1.177,0,0,0,.44.57,2.01,2.01,0,0,0,1.05.26,1.657,1.657,0,0,0,1.195-.38,1.163,1.163,0,0,0,.315-.85.987.987,0,0,0-.415-.86,2.2,2.2,0,0,0-.815-.305,4.257,4.257,0,0,1-.7-.18.475.475,0,0,1-.34-.455c0-.325.295-.545.73-.545a.791.791,0,0,1,.625.24.646.646,0,0,1,.15.355l.715-.085a1.348,1.348,0,0,0-.245-.58,1.474,1.474,0,0,0-1.245-.505c-.86,0-1.42.45-1.42,1.145a.984.984,0,0,0,.385.81,1.767,1.767,0,0,0,.755.3,3.153,3.153,0,0,1,.87.245.508.508,0,0,1,.25.46c0,.375-.3.6-.8.6a.888.888,0,0,1-.73-.3.717.717,0,0,1-.14-.44ZM91.77-3.92a3.736,3.736,0,0,1,.04.645v2.69a3.773,3.773,0,0,1-.04.645h.76a3.773,3.773,0,0,1-.04-.645v-2.69a3.736,3.736,0,0,1,.04-.645ZM102.965-4a1.733,1.733,0,0,0-1.29.5,2.141,2.141,0,0,0-.57,1.56A1.856,1.856,0,0,0,102.97.145a1.862,1.862,0,0,0,1.87-2.085,2.156,2.156,0,0,0-.56-1.56A1.752,1.752,0,0,0,102.965-4Zm.015,3.55a1.08,1.08,0,0,1-.775-.305,1.652,1.652,0,0,1-.4-1.18c0-.9.455-1.475,1.175-1.475a1.076,1.076,0,0,1,.77.305,1.615,1.615,0,0,1,.4,1.165C104.14-1.02,103.695-.45,102.98-.45Zm13.84.51a3.773,3.773,0,0,1-.04-.645V-3.23a4.372,4.372,0,0,1,.04-.69h-.73a4.371,4.371,0,0,1,.04.69v1.68c0,.21.015.51.035.7-.11-.2-.27-.46-.39-.64l-1.265-1.9a2.742,2.742,0,0,1-.305-.53h-.78a4.165,4.165,0,0,1,.04.645V-.7a5.411,5.411,0,0,1-.04.755h.73a5.534,5.534,0,0,1-.04-.75V-2.33c0-.115-.01-.34-.015-.435-.015-.185-.015-.185-.02-.255.12.235.245.45.34.6l1.29,1.945a4.981,4.981,0,0,1,.32.535Z" transform="translate(1680 -715)"/></g></g></svg>