<svg xmlns="http://www.w3.org/2000/svg" xmlns:xlink="http://www.w3.org/1999/xlink" width="690" height="334" viewBox="0 0 690 334"><defs><style>.a,.l{fill:#fff;}.b{clip-path:url(#a);}.c{opacity:0.05;}.d,.e,.f,.g,.h,.k{fill:none;}.d{stroke:#231815;}.d,.e,.f,.g,.h,.k,.l{stroke-miterlimit:10;}.e,.k{stroke:#0080f4;}.f{stroke:#ef54a1;}.g,.l{stroke:#000;}.h{stroke:#0c111a;}.i{fill:#0080f4;}.j{fill:#ef54a1;}.k{stroke-dasharray:10 5;}.m{fill:#2d3436;}.n{fill:#636e72;}</style><clipPath id="a"><rect class="a" width="690" height="333.626"/></clipPath></defs><g transform="translate(9.315 -160)"><g transform="translate(-20 52)"><rect class="a" width="690" height="334" transform="translate(10.685 108)"/><g class="b" transform="translate(10.685 108)"><g class="c" transform="translate(0 14.027)"><g transform="translate(0 2.932)"><g transform="translate(188.046 85.121)"><g transform="translate(0 0)"><rect width="179.014" height="0.717" transform="translate(0 32.115) rotate(-10.335)"/></g><g transform="translate(0 0)"><rect width="179.014" height="0.717" transform="translate(0 32.115) rotate(-10.335)"/></g></g><g transform="translate(188.097 12.249)"><g transform="translate(175.949 0.139)"><rect width="73.135" height="0.478" transform="matrix(0.063, -0.998, 0.998, 0.063, 0, 72.989)"/></g><g transform="translate(0)"><path d="M62.839,164.94l-.239-.478L243.049,59.3l.478.478Z" transform="translate(-62.6 -59.3)"/></g><g transform="translate(0)"><path d="M62.839,164.94l-.239-.478L243.049,59.3l.478.478Z" transform="translate(-62.6 -59.3)"/></g></g><g transform="translate(187.982 12.195)"><g transform="translate(123.883 0)"><rect width="69.072" height="0.478" transform="translate(0 39.433) rotate(-34.814)"/></g><g transform="translate(124.037 39.594)"><rect width="0.478" height="61.902" transform="matrix(0.54, -0.841, 0.841, 0.54, 0, 0.402)"/></g><g transform="translate(0 39.393)"><rect width="140.296" height="0.478" transform="translate(0 65.799) rotate(-27.969)"/></g><g transform="translate(0 39.393)"><rect width="140.296" height="0.478" transform="translate(0 65.799) rotate(-27.969)"/></g></g><g transform="translate(0 117.411)"><path d="M-16.1,282.553,172.236,103.778,172,103.3-16.1,281.836Z" transform="translate(16.1 -103.3)"/><path d="M-16.1,282.553,172.236,103.778,172,103.3-16.1,281.836Z" transform="translate(16.1 -103.3)"/></g><g transform="translate(0 51.684)"><g transform="translate(0 48.279)"><path d="M-16.1,246.573,11.147,96H10.43L-16.1,243.227Z" transform="translate(16.1 -96)"/></g><g transform="translate(0 43.738)"><path d="M-16.1,94.1v.478l26.769,4.3.239-.478Z" transform="translate(16.1 -94.1)"/></g><g transform="translate(26.769)"><path d="M-4.661,124.318l-.239-.478L280.472,75.8v.478Z" transform="translate(4.9 -75.8)"/></g><g transform="translate(0 48.04)"><path d="M-16.1,113.825,10.908,96.378l-.239-.478L-16.1,113.108Z" transform="translate(16.1 -95.9)"/></g><g transform="translate(26.942 48.071)"><rect width="0.478" height="162.284" transform="translate(0 0.475) rotate(-83.754)"/></g><g transform="translate(26.942 48.071)"><rect width="0.478" height="162.284" transform="translate(0 0.475) rotate(-83.754)"/></g></g><g transform="translate(188.021 12.562)"><g transform="translate(123.641 39.361)"><path d="M152.78,328.289,114.3,75.9h.717l38.241,252.389Z" transform="translate(-114.3 -75.9)"/></g><g transform="translate(162.065 0)"><rect width="292.303" height="0.478" transform="translate(0 291.718) rotate(-86.406)"/></g><g transform="translate(162.13 73.051)"><rect width="219.167" height="0.478" transform="translate(0 218.729) rotate(-86.392)"/></g><g transform="translate(0 104.885)"><rect width="0.478" height="247.37" transform="matrix(0.755, -0.656, 0.656, 0.755, 0, 0.314)"/></g><g transform="translate(0 104.885)"><rect width="0.478" height="247.37" transform="matrix(0.755, -0.656, 0.656, 0.755, 0, 0.314)"/></g></g><g transform="translate(0 51.836)"><g transform="translate(200.885 252.46)"><rect width="153.202" height="0.717" transform="matrix(0.976, -0.219, 0.219, 0.976, 0, 33.49)"/></g><g transform="translate(26.53 47.888)"><path d="M169.234,334.666-5,96.378l.478-.478L169.712,334.427Z" transform="translate(5 -95.9)"/></g><g transform="translate(0 255.583)"><path d="M-16.1,182.8v.478l201,30.832v-.717Z" transform="translate(16.1 -182.8)"/></g><g transform="translate(200.768 0)"><rect width="307.121" height="0.717" transform="translate(0 286.39) rotate(-68.826)"/></g><g transform="translate(200.764 33.548)"><path d="M68.378,343.006l-.478-.239L231.14,89.9l.478.239Z" transform="translate(-67.9 -89.9)"/></g><g transform="translate(187.902 65.73)"><rect width="0.717" height="221.079" transform="matrix(0.998, -0.058, 0.058, 0.998, 0, 0.042)"/></g><g transform="translate(187.902 65.73)"><rect width="0.717" height="221.079" transform="matrix(0.998, -0.058, 0.058, 0.998, 0, 0.042)"/></g></g><g transform="translate(311.901 0)"><g transform="translate(209.368 0.059)"><path d="M426.425,174.419,202.239,54.2l-.239.478L426.425,174.9Z" transform="translate(-202 -54.2)"/></g><g transform="translate(0 0.059)"><path d="M114.639,106.3l-.239-.478L323.768,54.2l.239.478Z" transform="translate(-114.4 -54.2)"/></g><g transform="translate(56.883 0.059)"><path d="M138.2,66.867v-.478L290.685,54.2l.239.478Z" transform="translate(-138.2 -54.2)"/></g><g transform="translate(52.28)"><rect width="178.775" height="0.478" transform="matrix(0.879, -0.477, 0.477, 0.879, 0, 85.222)"/></g></g><g transform="translate(350.381 85.375)"><g transform="translate(0 218.698)"><path d="M298.042,220.6,130.5,181.878V181.4l167.542,38.48Z" transform="translate(-130.5 -181.4)"/></g><g transform="translate(13.589 0)"><rect width="0.717" height="299.951" transform="translate(0 0.368) rotate(-30.843)"/></g></g><g transform="translate(311.901 0.009)"><g transform="translate(205.735 202.679)"><rect width="151.051" height="0.717" transform="matrix(0.374, -0.927, 0.927, 0.374, 0, 140.07)"/></g><g transform="translate(209.142 0)"><rect width="0.717" height="209.368" transform="matrix(0.967, -0.253, 0.253, 0.967, 0, 0.182)"/></g><g transform="translate(262.427 149.189)"><path d="M395.566,116.6,224.2,169.9v.478l171.366-53.059Z" transform="translate(-224.2 -116.6)"/></g><g transform="translate(38.391 202.265)"><rect width="245.936" height="0.478" transform="translate(0 101.842) rotate(-24.463)"/></g><g transform="translate(0 51.675)"><path d="M376.588,227.09,114.4,76.278l.239-.478L377.066,226.612Z" transform="translate(-114.4 -75.8)"/></g><g transform="translate(56.711 12.149)"><rect width="0.717" height="280.113" transform="translate(0 0.526) rotate(-47.229)"/></g><g transform="translate(52.092 85.133)"><rect width="0.717" height="240.678" transform="translate(0 0.626) rotate(-60.849)"/></g></g><g transform="translate(574.328 202.496)"><path d="M395.566,183.594,224.2,138.9v.478l171.366,44.933Z" transform="translate(-224.2 -138.9)"/></g><g transform="translate(350.342 188.634)"><g transform="translate(281.586 129.301)"><path d="M362.066,187.2,248.3,223.768l.239.717,113.527-36.568Z" transform="translate(-248.3 -187.2)"/></g><g transform="translate(223.747 13.862)"><path d="M281.939,291.385,224.1,139.139l.478-.239,57.839,152.246Z" transform="translate(-224.1 -138.9)"/></g><g transform="translate(167.475 153.752)"><rect width="0.717" height="114.722" transform="translate(0 0.713) rotate(-83.996)"/></g><g transform="translate(281.586)"><path d="M362.066,133.1,248.3,299.208l.478.239L362.066,134.056Z" transform="translate(-248.3 -133.1)"/></g><g transform="translate(0 115.508)"><rect width="0.478" height="286.089" transform="translate(0 0.47) rotate(-79.81)"/></g></g></g><g transform="translate(23.777)"><path d="M65.3,108.247a3.1,3.1,0,1,1,2.151-3.824A3.175,3.175,0,0,1,65.3,108.247Z" transform="translate(99.98 15.442)"/><path d="M139,94.747a3.1,3.1,0,1,1,2.151-3.824A3.519,3.519,0,0,1,139,94.747Z" transform="translate(202.426 -3.324)"/><path d="M65.3,108.247a3.1,3.1,0,1,1,2.151-3.824A3.175,3.175,0,0,1,65.3,108.247Z" transform="translate(99.98 15.442)"/><path d="M139,94.747a3.1,3.1,0,1,1,2.151-3.824A3.519,3.519,0,0,1,139,94.747Z" transform="translate(202.426 -3.324)"/><path d="M139,94.747a3.1,3.1,0,1,1,2.151-3.824A3.519,3.519,0,0,1,139,94.747Z" transform="translate(202.426 -3.324)"/><path d="M140.9,64.247a3.1,3.1,0,1,1,2.151-3.824A3.175,3.175,0,0,1,140.9,64.247Z" transform="translate(205.067 -45.72)"/><path d="M65.3,108.247a3.1,3.1,0,1,1,2.151-3.824A3.175,3.175,0,0,1,65.3,108.247Z" transform="translate(99.98 15.442)"/><path d="M140.9,64.247a3.1,3.1,0,1,1,2.151-3.824A3.175,3.175,0,0,1,140.9,64.247Z" transform="translate(205.067 -45.72)"/><path d="M65.3,108.247a3.1,3.1,0,1,1,2.151-3.824A3.175,3.175,0,0,1,65.3,108.247Z" transform="translate(99.98 15.442)"/><path d="M140.9,64.247a3.1,3.1,0,1,1,2.151-3.824A3.175,3.175,0,0,1,140.9,64.247Z" transform="translate(205.067 -45.72)"/><path d="M140.9,64.247a3.1,3.1,0,1,1,2.151-3.824A3.175,3.175,0,0,1,140.9,64.247Z" transform="translate(205.067 -45.72)"/><path d="M117.1,80.747a3.1,3.1,0,1,1,2.151-3.824A3.175,3.175,0,0,1,117.1,80.747Z" transform="translate(171.984 -22.785)"/><path d="M139,94.747a3.1,3.1,0,1,1,2.151-3.824A3.519,3.519,0,0,1,139,94.747Z" transform="translate(202.426 -3.324)"/><path d="M117.1,80.747a3.1,3.1,0,1,1,2.151-3.824A3.175,3.175,0,0,1,117.1,80.747Z" transform="translate(171.984 -22.785)"/><path d="M65.3,108.247a3.1,3.1,0,1,1,2.151-3.824A3.175,3.175,0,0,1,65.3,108.247Z" transform="translate(99.98 15.442)"/><path d="M117.1,80.747a3.1,3.1,0,1,1,2.151-3.824A3.175,3.175,0,0,1,117.1,80.747Z" transform="translate(171.984 -22.785)"/><path d="M65.3,108.247a3.1,3.1,0,1,1,2.151-3.824A3.175,3.175,0,0,1,65.3,108.247Z" transform="translate(99.98 15.442)"/><path d="M117.1,80.747a3.1,3.1,0,1,1,2.151-3.824A3.175,3.175,0,0,1,117.1,80.747Z" transform="translate(171.984 -22.785)"/><path d="M65.3,108.247a3.1,3.1,0,1,1,2.151-3.824A3.175,3.175,0,0,1,65.3,108.247Z" transform="translate(99.98 15.442)"/><path d="M65.3,108.247a3.1,3.1,0,1,1,2.151-3.824A3.175,3.175,0,0,1,65.3,108.247Z" transform="translate(99.98 15.442)"/><path d="M-2.2,100.847A3.069,3.069,0,0,1-6.028,98.7a3.069,3.069,0,0,1,2.151-3.824A3.069,3.069,0,0,1-.053,97.023,3.175,3.175,0,0,1-2.2,100.847Z" transform="translate(6.151 5.155)"/><path d="M-2.2,100.847A3.069,3.069,0,0,1-6.028,98.7a3.069,3.069,0,0,1,2.151-3.824A3.069,3.069,0,0,1-.053,97.023,3.175,3.175,0,0,1-2.2,100.847Z" transform="translate(6.151 5.155)"/><path d="M117.1,80.747a3.1,3.1,0,1,1,2.151-3.824A3.175,3.175,0,0,1,117.1,80.747Z" transform="translate(171.984 -22.785)"/><path d="M-2.2,100.847A3.069,3.069,0,0,1-6.028,98.7a3.069,3.069,0,0,1,2.151-3.824A3.069,3.069,0,0,1-.053,97.023,3.175,3.175,0,0,1-2.2,100.847Z" transform="translate(6.151 5.155)"/><path d="M-2.2,100.847A3.069,3.069,0,0,1-6.028,98.7a3.069,3.069,0,0,1,2.151-3.824A3.069,3.069,0,0,1-.053,97.023,3.175,3.175,0,0,1-2.2,100.847Z" transform="translate(6.151 5.155)"/><path d="M65.3,108.247a3.1,3.1,0,1,1,2.151-3.824A3.175,3.175,0,0,1,65.3,108.247Z" transform="translate(99.98 15.442)"/><path d="M-2.2,100.847A3.069,3.069,0,0,1-6.028,98.7a3.069,3.069,0,0,1,2.151-3.824A3.069,3.069,0,0,1-.053,97.023,3.175,3.175,0,0,1-2.2,100.847Z" transform="translate(6.151 5.155)"/><path d="M65.3,108.247a3.1,3.1,0,1,1,2.151-3.824A3.175,3.175,0,0,1,65.3,108.247Z" transform="translate(99.98 15.442)"/><path d="M-2.2,100.847A3.069,3.069,0,0,1-6.028,98.7a3.069,3.069,0,0,1,2.151-3.824A3.069,3.069,0,0,1-.053,97.023,3.175,3.175,0,0,1-2.2,100.847Z" transform="translate(6.151 5.155)"/><path d="M117.1,80.747a3.1,3.1,0,1,1,2.151-3.824A3.175,3.175,0,0,1,117.1,80.747Z" transform="translate(171.984 -22.785)"/><path d="M133.2,186.247a3.1,3.1,0,1,1,2.151-3.824A3.069,3.069,0,0,1,133.2,186.247Z" transform="translate(194.364 123.865)"/><path d="M140.9,64.247a3.1,3.1,0,1,1,2.151-3.824A3.175,3.175,0,0,1,140.9,64.247Z" transform="translate(205.067 -45.72)"/><path d="M133.2,186.247a3.1,3.1,0,1,1,2.151-3.824A3.069,3.069,0,0,1,133.2,186.247Z" transform="translate(194.364 123.865)"/><path d="M139,94.747a3.1,3.1,0,1,1,2.151-3.824A3.519,3.519,0,0,1,139,94.747Z" transform="translate(202.426 -3.324)"/><path d="M133.2,186.247a3.1,3.1,0,1,1,2.151-3.824A3.069,3.069,0,0,1,133.2,186.247Z" transform="translate(194.364 123.865)"/><path d="M65.3,108.247a3.1,3.1,0,1,1,2.151-3.824A3.175,3.175,0,0,1,65.3,108.247Z" transform="translate(99.98 15.442)"/><path d="M133.2,186.247a3.1,3.1,0,1,1,2.151-3.824A3.069,3.069,0,0,1,133.2,186.247Z" transform="translate(194.364 123.865)"/><path d="M65.3,108.247a3.1,3.1,0,1,1,2.151-3.824A3.175,3.175,0,0,1,65.3,108.247Z" transform="translate(99.98 15.442)"/><path d="M133.2,186.247a3.1,3.1,0,1,1,2.151-3.824A3.069,3.069,0,0,1,133.2,186.247Z" transform="translate(194.364 123.865)"/><path d="M133.2,186.247a3.1,3.1,0,1,1,2.151-3.824A3.069,3.069,0,0,1,133.2,186.247Z" transform="translate(194.364 123.865)"/><path d="M70.7,200.547a3.1,3.1,0,1,1,2.151-3.824A3.069,3.069,0,0,1,70.7,200.547Z" transform="translate(107.486 143.743)"/><path d="M-2.2,100.847A3.069,3.069,0,0,1-6.028,98.7a3.069,3.069,0,0,1,2.151-3.824A3.069,3.069,0,0,1-.053,97.023,3.175,3.175,0,0,1-2.2,100.847Z" transform="translate(6.151 5.155)"/><path d="M70.7,200.547a3.1,3.1,0,1,1,2.151-3.824A3.069,3.069,0,0,1,70.7,200.547Z" transform="translate(107.486 143.743)"/><path d="M70.7,200.547a3.1,3.1,0,1,1,2.151-3.824A3.069,3.069,0,0,1,70.7,200.547Z" transform="translate(107.486 143.743)"/><path d="M117.1,80.747a3.1,3.1,0,1,1,2.151-3.824A3.175,3.175,0,0,1,117.1,80.747Z" transform="translate(171.984 -22.785)"/><path d="M70.7,200.547a3.1,3.1,0,1,1,2.151-3.824A3.069,3.069,0,0,1,70.7,200.547Z" transform="translate(107.486 143.743)"/><path d="M139,94.747a3.1,3.1,0,1,1,2.151-3.824A3.519,3.519,0,0,1,139,94.747Z" transform="translate(202.426 -3.324)"/><path d="M70.7,200.547a3.1,3.1,0,1,1,2.151-3.824A3.069,3.069,0,0,1,70.7,200.547Z" transform="translate(107.486 143.743)"/><path d="M65.3,108.247a3.1,3.1,0,1,1,2.151-3.824A3.175,3.175,0,0,1,65.3,108.247Z" transform="translate(99.98 15.442)"/><path d="M70.7,200.547a3.1,3.1,0,1,1,2.151-3.824A3.069,3.069,0,0,1,70.7,200.547Z" transform="translate(107.486 143.743)"/><path d="M65.3,108.247a3.1,3.1,0,1,1,2.151-3.824A3.175,3.175,0,0,1,65.3,108.247Z" transform="translate(99.98 15.442)"/><path d="M70.7,200.547a3.1,3.1,0,1,1,2.151-3.824A3.069,3.069,0,0,1,70.7,200.547Z" transform="translate(107.486 143.743)"/><path d="M204.7,59.047a3.1,3.1,0,1,1,2.151-3.824A3.069,3.069,0,0,1,204.7,59.047Z" transform="translate(293.752 -52.949)"/><path d="M117.1,80.747a3.1,3.1,0,1,1,2.151-3.824A3.175,3.175,0,0,1,117.1,80.747Z" transform="translate(171.984 -22.785)"/><path d="M204.7,59.047a3.1,3.1,0,1,1,2.151-3.824A3.069,3.069,0,0,1,204.7,59.047Z" transform="translate(293.752 -52.949)"/><path d="M140.9,64.247a3.1,3.1,0,1,1,2.151-3.824A3.175,3.175,0,0,1,140.9,64.247Z" transform="translate(205.067 -45.72)"/><path d="M204.7,59.047a3.1,3.1,0,1,1,2.151-3.824A3.069,3.069,0,0,1,204.7,59.047Z" transform="translate(293.752 -52.949)"/><path d="M139,94.747a3.1,3.1,0,1,1,2.151-3.824A3.519,3.519,0,0,1,139,94.747Z" transform="translate(202.426 -3.324)"/><path d="M204.7,59.047a3.1,3.1,0,1,1,2.151-3.824A3.069,3.069,0,0,1,204.7,59.047Z" transform="translate(293.752 -52.949)"/><path d="M133.2,186.247a3.1,3.1,0,1,1,2.151-3.824A3.069,3.069,0,0,1,133.2,186.247Z" transform="translate(194.364 123.865)"/><path d="M203.3,202.447a3.1,3.1,0,1,1,2.151-3.824A3.069,3.069,0,0,1,203.3,202.447Z" transform="translate(291.806 146.384)"/><path d="M139,94.747a3.1,3.1,0,1,1,2.151-3.824A3.519,3.519,0,0,1,139,94.747Z" transform="translate(202.426 -3.324)"/><path d="M203.3,202.447a3.1,3.1,0,1,1,2.151-3.824A3.069,3.069,0,0,1,203.3,202.447Z" transform="translate(291.806 146.384)"/><path d="M203.3,202.447a3.1,3.1,0,1,1,2.151-3.824A3.069,3.069,0,0,1,203.3,202.447Z" transform="translate(291.806 146.384)"/><path d="M226.9,143.747a3.1,3.1,0,1,1,2.151-3.824A3.069,3.069,0,0,1,226.9,143.747Z" transform="translate(324.611 64.788)"/><path d="M204.7,59.047a3.1,3.1,0,1,1,2.151-3.824A3.069,3.069,0,0,1,204.7,59.047Z" transform="translate(293.752 -52.949)"/><path d="M226.9,143.747a3.1,3.1,0,1,1,2.151-3.824A3.069,3.069,0,0,1,226.9,143.747Z" transform="translate(324.611 64.788)"/><path d="M226.9,143.747a3.1,3.1,0,1,1,2.151-3.824A3.069,3.069,0,0,1,226.9,143.747Z" transform="translate(324.611 64.788)"/><path d="M133.2,186.247a3.1,3.1,0,1,1,2.151-3.824A3.069,3.069,0,0,1,133.2,186.247Z" transform="translate(194.364 123.865)"/><path d="M226.9,143.747a3.1,3.1,0,1,1,2.151-3.824A3.069,3.069,0,0,1,226.9,143.747Z" transform="translate(324.611 64.788)"/><path d="M117.1,80.747a3.1,3.1,0,1,1,2.151-3.824A3.175,3.175,0,0,1,117.1,80.747Z" transform="translate(171.984 -22.785)"/><path d="M226.9,143.747a3.1,3.1,0,1,1,2.151-3.824A3.069,3.069,0,0,1,226.9,143.747Z" transform="translate(324.611 64.788)"/><path d="M140.9,64.247a3.1,3.1,0,1,1,2.151-3.824A3.175,3.175,0,0,1,140.9,64.247Z" transform="translate(205.067 -45.72)"/><path d="M226.9,143.747a3.1,3.1,0,1,1,2.151-3.824A3.069,3.069,0,0,1,226.9,143.747Z" transform="translate(324.611 64.788)"/><path d="M139,94.747a3.1,3.1,0,1,1,2.151-3.824A3.519,3.519,0,0,1,139,94.747Z" transform="translate(202.426 -3.324)"/><path d="M226.9,143.747a3.1,3.1,0,1,1,2.151-3.824A3.069,3.069,0,0,1,226.9,143.747Z" transform="translate(324.611 64.788)"/><path d="M226.9,143.747a3.1,3.1,0,1,1,2.151-3.824A3.069,3.069,0,0,1,226.9,143.747Z" transform="translate(324.611 64.788)"/><path d="M251,207.447a3.1,3.1,0,1,1,2.151-3.824A3.069,3.069,0,0,1,251,207.447Z" transform="translate(358.111 153.334)"/><path d="M226.9,143.747a3.1,3.1,0,1,1,2.151-3.824A3.069,3.069,0,0,1,226.9,143.747Z" transform="translate(324.611 64.788)"/><path d="M251,207.447a3.1,3.1,0,1,1,2.151-3.824A3.069,3.069,0,0,1,251,207.447Z" transform="translate(358.111 153.334)"/><path d="M203.3,202.447a3.1,3.1,0,1,1,2.151-3.824A3.069,3.069,0,0,1,203.3,202.447Z" transform="translate(291.806 146.384)"/><path d="M251,207.447a3.1,3.1,0,1,1,2.151-3.824A3.069,3.069,0,0,1,251,207.447Z" transform="translate(358.111 153.334)"/><path d="M251,207.447a3.1,3.1,0,1,1,2.151-3.824A3.069,3.069,0,0,1,251,207.447Z" transform="translate(358.111 153.334)"/><path d="M133.2,186.247a3.1,3.1,0,1,1,2.151-3.824A3.069,3.069,0,0,1,133.2,186.247Z" transform="translate(194.364 123.865)"/><path d="M251,207.447a3.1,3.1,0,1,1,2.151-3.824A3.069,3.069,0,0,1,251,207.447Z" transform="translate(358.111 153.334)"/></g></g></g><g transform="translate(361.564 187.085)"><path class="d" d="M1219.81,497.625l-7.345,17.971,22.221,11.8,29.8-4.808,7.431-16.684-21.565-12.823Z" transform="translate(-1026.071 -413.465)"/><path class="d" d="M1231.227,506.062l-6.3,14.95,19.794,10.243,26.3-4.637,6.091-13.565L1258.5,501.979Z" transform="translate(-1034.903 -419.767)"/><path class="e" d="M736.011,264.663A87.045,87.045,0,1,0,616.016,382.087" transform="translate(-572.865 -219.874)"/><path class="e" d="M849.9,631.792q3.121.223,6.3.224a87.05,87.05,0,0,0,86.361-76.155" transform="translate(-769.168 -457.947)"/><path class="f" d="M952.375,549.574a83.009,83.009,0,0,0,56.916-99.419" transform="translate(-841.777 -383.046)"/><path class="f" d="M645.7,246.488a83.013,83.013,0,0,0-56.591,97.565" transform="translate(-582.942 -238.732)"/><path class="e" d="M641.863,328.983a74,74,0,1,0,106.2,8.3" transform="translate(-604.108 -297.186)"/><path class="g" d="M970.083,519.461a71.188,71.188,0,0,0,37.056-91.1" transform="translate(-854.325 -367.603)"/><path class="g" d="M970.083,740.967" transform="translate(-854.325 -589.109)"/><path class="h" d="M736.192,285.715a71.108,71.108,0,1,0-40.384,130.717" transform="translate(-610.759 -258.399)"/><path class="g" d="M677.167,304.111a68.069,68.069,0,1,0,74.479,111.651" transform="translate(-618.212 -279.563)"/><path class="g" d="M921.819,302.816a67.82,67.82,0,0,0-45.265-18.865" transform="translate(-788.052 -265.278)"/><path class="g" d="M1087.353,547.234c3.121-7.808,4.829-14.451,4.829-23.372" transform="translate(-937.42 -435.273)"/><path class="g" d="M998.837,700.413" transform="translate(-874.699 -560.373)"/><path class="g" d="M648.629,545.667a65.16,65.16,0,0,0,102.058,45.1" transform="translate(-626.55 -450.724)"/><path class="g" d="M836.636,298.39a65.4,65.4,0,0,0-47.6-.068" transform="translate(-726.038 -272.307)"/><path class="g" d="M661.284,565.223a62.584,62.584,0,0,0,84.087,44.566" transform="translate(-635.517 -464.581)"/><path class="g" d="M812.748,305.346a62.42,62.42,0,0,0-41.2,5.83" transform="translate(-713.645 -279.563)"/><path class="f" d="M794.583,688.878a59.743,59.743,0,0,0,58.376-8.069" transform="translate(-729.969 -546.482)"/><path class="h" d="M839.586,318.018a59.873,59.873,0,0,0-44.492-.24" transform="translate(-730.332 -286.294)"/><path class="e" d="M617.735,645.42a82.915,82.915,0,0,0,79.944,45.607q.715-.05,1.426-.112" transform="translate(-604.659 -521.407)"/><g transform="translate(4.774 5.702)"><circle class="i" cx="1.468" cy="1.468" r="1.468" transform="translate(157.293 38.42)"/><circle cx="1.224" cy="1.224" r="1.224" transform="translate(120.131 20.946)"/><circle cx="1.098" cy="1.098" r="1.098" transform="translate(128.174 31.239)"/><circle cx="1.098" cy="1.098" r="1.098" transform="translate(81.958 11.938)"/><circle cx="1.224" cy="1.224" r="1.224" transform="translate(105.136 19.488)"/><circle cx="1.224" cy="1.224" r="1.224" transform="translate(93.869 19.157)"/><circle cx="0.865" cy="0.865" r="0.865" transform="translate(103.615 25.229)"/><circle cx="0.865" cy="0.865" r="0.865" transform="translate(58.759 25.157)"/><circle class="j" cx="0.865" cy="0.865" r="0.865" transform="translate(58.576 135.715)"/><circle cx="0.865" cy="0.865" r="0.865" transform="translate(60.843 126.455)"/><circle class="j" cx="0.865" cy="0.865" r="0.865" transform="translate(117.35 127.759)"/><circle cx="1.224" cy="1.224" r="1.224" transform="translate(51.344 24.871)"/><circle cx="1.224" cy="1.224" r="1.224" transform="translate(56.18 19.488)"/><circle cx="1.05" cy="1.05" r="1.05" transform="translate(53.331 17.797)"/><circle class="i" cx="1.224" cy="1.224" r="1.224" transform="translate(32.046 24.367)"/><circle class="i" cx="1.148" cy="1.148" r="1.148" transform="translate(137.885 33.261)"/><circle cx="1.148" cy="1.148" r="1.148" transform="translate(146.719 53.478)"/><circle cx="1.004" cy="1.004" r="1.004" transform="translate(148.984 81.411)"/><circle cx="1.004" cy="1.004" r="1.004" transform="translate(143.932 105.728)"/><circle cx="1.004" cy="1.004" r="1.004" transform="translate(128.088 129.285)"/><circle cx="1.079" cy="1.079" r="1.079" transform="translate(79.778 151.252)"/><circle class="j" cx="1.87" cy="1.87" r="1.87" transform="translate(56.353)"/><circle class="j" cx="1.705" cy="1.705" r="1.705" transform="translate(160.595 58.991)"/><circle class="i" cx="1.705" cy="1.705" r="1.705" transform="translate(166.916 89.05)"/><circle class="i" cx="1.705" cy="1.705" r="1.705" transform="translate(74.256 166.381)"/><circle class="i" cx="1.705" cy="1.705" r="1.705" transform="translate(37.862 155.472)"/><circle class="j" cx="1.705" cy="1.705" r="1.705" transform="translate(0 99.159)"/><circle cx="1.133" cy="1.133" r="1.133" transform="translate(15.981 87.398)"/><circle cx="1.133" cy="1.133" r="1.133" transform="translate(19.683 92.787)"/><circle class="i" cx="1.612" cy="1.612" r="1.612" transform="translate(6.236 115.935)"/><circle cx="1.079" cy="1.079" r="1.079" transform="translate(54.877 71.928)"/><circle cx="1.079" cy="1.079" r="1.079" transform="translate(63.943 70.212)"/><circle cx="0.867" cy="0.867" r="0.867" transform="translate(114.418 97.405)"/><circle cx="1.079" cy="1.079" r="1.079" transform="translate(93.796 40.132)"/><circle cx="1.079" cy="1.079" r="1.079" transform="translate(105.874 60.833)"/><circle cx="0.898" cy="0.898" r="0.898" transform="translate(86.206 80.457)"/><circle cx="0.898" cy="0.898" r="0.898" transform="translate(90.092 102.299)"/><circle cx="0.898" cy="0.898" r="0.898" transform="translate(53.52 90.894)"/><circle cx="0.898" cy="0.898" r="0.898" transform="translate(39.241 94.391)"/><circle cx="1.079" cy="1.079" r="1.079" transform="translate(113.126 60.833)"/><circle cx="1.004" cy="1.004" r="1.004" transform="translate(118.36 133.333)"/><circle cx="1.004" cy="1.004" r="1.004" transform="translate(104.077 138.351)"/><circle cx="1.079" cy="1.079" r="1.079" transform="translate(109.492 145.271)"/><circle class="i" cx="1.705" cy="1.705" r="1.705" transform="translate(89.288 161.931)"/><circle class="j" cx="1.705" cy="1.705" r="1.705" transform="translate(105.104 158.9)"/></g><g transform="translate(26.959 39.47)"><path class="g" d="M727.02,360.592l.928-.324,1.194-.035-.341.682h-.6V362.3h4.23s2.418-3.108,2.763-3.454a19.512,19.512,0,0,1,2.374-1.327c.68-.389,2.461-.939,2.979-2.2H735.2l-2.364,1.813-1.036-.259-2.331,2.2-.518.486-.324.324" transform="translate(-709.055 -355.314)"/><path class="e" d="M742.641,370.683l1.338-1.856h2.115l3.324-2.936h5.526l2.115-1.554h7.167l.3,4.058,2.331.043-.216,1.209-.734,2.115-.518.777h-1.252l-4.447,5.958h-4.015l-4.144,6.3h-3.929l-1.468-3.152-.216-1.338.95-.863,1.382-.175.734-1.077-.086-1.166-4.188.043-.173-3.626.345-2.2-4.145.043" transform="translate(-718.778 -361.707)"/><path class="g" d="M729,396.78l-3.67,7.814h1.835v1.727l-.712.432.043,1.77,2.5.216.648,2.677h1.166l1.554-5.224.259-1.554-.518-.086-.3-1.3-1.641-.173v-3.411h-1.856" transform="translate(-707.861 -384.696)"/><path class="g" d="M866.674,380.855c-.388.237-8.872,0-8.872,0s-2.051.755-2.482,2.029-.41,3.389,1.878,3.389h3.6s3.13-1.381,3.54-2.828v-1.4" transform="translate(-799.811 -373.412)"/><path class="h" d="M839.406,412.853l2.029,3.5h2.676s0-3.022,2.677-3.5h3.54v4.706l-3.756,2.935h-3.065l-.691-2.547H834.8l-7.179,7.771L827.4,429l2.375,2.418h4.188v-2.374l3.151-2.461h4.792" transform="translate(-780.185 -396.085)"/><path class="g" d="M873.328,405.3l2.72-2.374h9.368l3.195,1.856v1.684h-.95v1.122l1.166,1.554h3.324l.907-1.425v-1.9h2.072l.993,2.763.734,4.36.475,2.159" transform="translate(-812.726 -389.052)"/><path class="h" d="M823.39,442.778v7.944l1.874,1.727h2.547l1.209-1.338V450.2l-1.9-1.77v-1.943l1.122-.475h5.569l3.065,2.763v2.979l-11.656,9.5h-2.547l-3.152-4.231h-8.634l-7.037,7.037v9.023" transform="translate(-763.495 -417.289)"/><path class="h" d="M947.7,407.935h6.174l1.641-4.188h9.023l.389-1.856h10.663l3.138,4.447h1.007l1.641,4.533,1.9,5.612v5.569h-.345l-1.684-5.44-.173-1.9-1.3-5.108-1.252-1.584h-.691l.893,4.274v7.253h-6.031" transform="translate(-865.421 -388.317)"/><path class="h" d="M813.767,505.442l7.1,11.722h5.008l.388,3.431-5.7,5.958-.55,8.1-3.594,3.1-.13,2.979-3.367,4.209h-3.756l-4.145-8.419v-1.87l2.72-3.375v-1.619l-5.375-10.232h-1.943l-2.461,2.4H793.3l-2.914-2.267h-9.131" transform="translate(-747.487 -461.691)"/><path class="g" d="M893.476,504.327l3.022-2.5h2.245l5.44,8.289,1.6-.345,4.118-3.522v-6.581" transform="translate(-827.002 -457.598)"/><path class="g" d="M932.4,497.98h-2.418l-3.022-4.834v-.994l.777-1.079h.95l3.108,4.922,5.008.173,6.044,13.787h3.195" transform="translate(-850.725 -451.509)"/><path class="g" d="M992.545,529.2h-1.3v-2.159L994.755,521h4.179l-.432,8.7-.863,4.185.173,2.33.691,1.187h1.641l.863-1.187-.691-1.576-.518-1.121v-2.85" transform="translate(-896.282 -472.713)"/><path class="h" d="M949.177,483.712l.189-2.159,1.71-1.3,20.938.173,1.338,3.281v2.5" transform="translate(-866.471 -443.847)"/><path class="h" d="M685.781,452.783h8.03l2.5-2.676.691-5.1,3.367-2.849v-4.145l-2.159-3.281h-1.9l-1.122,1.641-.691,3.713h-2.677l-.086-2.418,2.936-5.267.345-2.072h-1.381l-1.986,1.122L690.1,433.27l-1.122,5.44" transform="translate(-679.834 -408.472)"/><path class="g" d="M787.216,425.085l4.058-.216,2.331-1.727V421.89h-4.533l-2.741,2.072-.777,4.792" transform="translate(-750.531 -402.488)"/><path class="g" d="M904.876,594.223l2.849-2.785h1.36v5.245l-3.389,3.691h-8.744" transform="translate(-829.465 -522.627)"/><path class="g" d="M965.264,565.114h-4.727l-.842-1.187v-2.7l.842-1.124h1.036l.129,3.173" transform="translate(-873.924 -500.425)"/><path class="h" d="M1032.137,513.814l.971-7.836h3.821l3.626-5.886v-6.634l-1.36-2.979h-1.166l-.389.8.389,4.533-2.959,5.468-1.833.3-.583,1.166-.194,2.785-.324,2.051" transform="translate(-925.254 -451.089)"/><path class="g" d="M1023.248,473.461l1.036-.691.712-1.587v-4.306l3.918-5.763v-6.249h2.072l.356-.81v-3.5l-1.781-5.407-.79-2.817" transform="translate(-918.956 -416.974)"/><line class="g" x2="2.633" transform="translate(85.772 6.119)"/><path class="g" d="M782.51,448.852l-.324,2.159-.928,8.159" transform="translate(-747.487 -421.593)"/><path class="g" d="M725.483,468.851H732l.691,1.813-.475,1.511-3.13,3.281h-2.914" transform="translate(-707.966 -435.764)"/><path class="g" d="M679.855,518.2h1.209l.518,1.463.546,7.339" transform="translate(-675.635 -470.732)"/><line class="g" x2="6.562" y2="0.216" transform="translate(0.378 38.052)"/><path class="g" d="M704.011,386.78l-3.713,5.612.216.043.82.043-.043.928-.777.971v1.209l1.684-.043v1.015l-.691.885v1.122h1.6l2.806-2.374v-1.036h-.993l.345-2.418-2.806.259,2.029-4.576-2.418-.173" transform="translate(-690.121 -377.61)"/><path class="g" d="M931.694,388.114l-.227-.712,1.263-1.1,1.91-1.457h2.008V384.1l-1.781-.68-1.068-.971h-2.331l-2.882,2.558.292,2.1.648,2.072.648.453h4.663" transform="translate(-851.88 -374.54)"/><path class="g" d="M1006.508,376.312s6.265,7.5,7.061,10.649" transform="translate(-907.094 -370.193)"/><path class="g" d="M988.138,401.891l3.679,9.5v3.67l-1.278,1.278H987.1" transform="translate(-893.343 -388.317)"/><path class="g" d="M1042.708,426.886h-2.72v2.127" transform="translate(-930.817 -406.028)"/><path class="e" d="M1023.272,596.693l1.468-2.792,1.325.216-.72,5.742-2.072,4.4-4.034,4.835h-1.751l.691-2.677-3.67.259.863-4.231.863-3.929,6.344-5.526h1.988l.043.561" transform="translate(-912.763 -523.729)"/><path class="g" d="M1029.755,643.316v.661l-5.915,5.785" transform="translate(-919.376 -559.386)"/><line class="g" x2="4.015" transform="translate(31.505 15.063)"/><line class="g" x2="1.91" transform="translate(55.8 16.768)"/><line class="g" x2="3.033" transform="translate(68.06 7.573)"/><path class="g" d="M971.547,376.312h5.4l2.849,2.4.777.777v1.036h-4.49l-1.9-2.893" transform="translate(-882.321 -370.193)"/><path class="h" d="M733.334,566.423h9.455l1.943,2.563v3.152l-2.5,4.792H738" transform="translate(-713.529 -504.901)"/><path class="g" d="M744,630.622l1.6,3.022,4.447,7.685,3.324,2.892,5.372-.173" transform="translate(-721.087 -550.391)"/><path class="g" d="M672.659,428.112l-2.677,5.051v2.418l-1.122,5.569-1.122,6-.475,6.821,4.274,6.3h5.137l1.166,1.385.259,5.565,2.59,10.016,4.922,5.137,2.59,6.389,5.742,9.541,5.915,4.878.626.23.237-.878-4.576-6.562v-2.461l2.936-9.714-2.159-8.03-10.016-12.3h-6.174l-.777-1.1-.432-4.685-.345-1.252H676.89l-.82-.863.259-6.605" transform="translate(-666.712 -406.897)"/><path class="g" d="M667.026,471.448a9.832,9.832,0,0,0-1.651-.227" transform="translate(-665.374 -437.443)"/><path class="g" d="M690.285,419.217h-2.914l.421-2.2,1.036-2.2.389-2.364H685.04l.971-1.878.421-1.88,1.23-2.134" transform="translate(-679.309 -391.624)"/><path class="g" d="M851.477,566.423H857.5l4.015,7.29,2.59.618" transform="translate(-797.243 -504.901)"/><line class="g" y2="2.229" transform="translate(40.852 59.292)"/><line class="g" x2="2.357" transform="translate(96.116 58.444)"/><line class="g" x1="0.648" y2="3.628" transform="translate(112.387 57.544)"/><line class="g" x1="1.166" y2="2.806" transform="translate(109.214 74.511)"/><line class="g" x2="1.878" transform="translate(44.65 37.577)"/><line class="g" x1="2.115" y2="5.069" transform="translate(117.848 60.407)"/><path class="g" d="M831.875,491.467V485.92l-.583-1.079-1.813-.583" transform="translate(-781.655 -446.681)"/><path class="g" d="M898.918,478.7l-1.966-3.3v-1.748l.606-.648h2.4l2.893,3.281h3.324" transform="translate(-829.465 -438.703)"/></g><g transform="translate(147.887 24.071)"><rect class="e" width="37.119" height="2.221" rx="1.111" transform="matrix(0.864, 0.503, -0.503, 0.864, 6.991, 5.525)"/><rect width="28.596" height="2.62" rx="1.31" transform="matrix(0.864, 0.503, -0.503, 0.864, 14.457, 9.641)"/><path class="i" d="M1084.4,313.068l-1.608-1.19-1.892.649.635-1.9-1.2-1.6,2,.018,1.149-1.637.6,1.908,1.912.587-1.629,1.161Z" transform="translate(-1080.331 -305.973)"/><path class="i" d="M1120.565,312.044l-.765-1.07-1.315.024.781-1.058-.429-1.243,1.248.416,1.05-.792-.01,1.315,1.078.754-1.254.4Z" transform="translate(-1107.366 -306.616)"/><path class="i" d="M1105.089,305.087l-.537-.751-.924.017.549-.743-.3-.873.876.292.737-.556-.007.924.757.529-.881.279Z" transform="translate(-1096.839 -302.471)"/><path class="i" d="M1086.139,334.861l-.374-.522-.642.012.381-.517-.209-.607.609.2.513-.387,0,.642.526.368-.612.194Z" transform="translate(-1083.727 -324.133)"/><path class="i" d="M1091.787,346.328l-.287-1.246-1.189-.47,1.1-.658.08-1.276.964.839,1.238-.319-.5,1.176.685,1.079-1.273-.112Z" transform="translate(-1087.403 -330.962)"/></g><path d="M1197.1,367.129c-2.057-.286-4.009.577-5.78,1.3a7.425,7.425,0,0,1-2.392.688c-1.077-.667-.831-2.038-.356-2.937a8.22,8.22,0,0,1,1.918-2.25,13.07,13.07,0,0,1,5.662-2.44l-.166-1.516a11.7,11.7,0,0,0-6.467,2.8,9.543,9.543,0,0,0-2.274,2.676c-.928,2.063-.855,4.54,1.611,5.189a7.442,7.442,0,0,0,3.056-.806c1.749-.648,3.931-1.81,5.614-.971Z" transform="translate(-1007.814 -319.147)"/><path class="d" d="M1199.093,515.664l25.176,12.942,33.566-5.785,8.816-19.853-22.065-12.578" transform="translate(-1016.597 -411.555)"/><g transform="translate(182.579 59.042)"><line class="d" y2="4.092" transform="translate(0)"/><line class="d" y2="4.092" transform="translate(0 5.61)"/><line class="d" y2="4.092" transform="translate(0 11.426)"/><line class="d" y2="4.602" transform="translate(0 17.109)"/><line class="d" y2="4.408" transform="translate(0 23.374)"/><line class="d" y2="4.189" transform="translate(0 29.349)"/><line class="d" y2="4.189" transform="translate(0 35.262)"/><line class="d" y2="4.189" transform="translate(0 41.048)"/></g><g transform="translate(250.053 46.075)"><line class="d" y2="4.092"/><line class="d" y2="4.092" transform="translate(0 5.61)"/><line class="d" y2="4.092" transform="translate(0 11.426)"/><line class="d" y2="4.602" transform="translate(0 17.109)"/><line class="d" y2="4.408" transform="translate(0 23.374)"/><line class="d" y2="4.189" transform="translate(0 29.349)"/><line class="d" y2="4.189" transform="translate(0 35.262)"/><line class="d" y2="4.189" transform="translate(0 41.048)"/></g><g transform="translate(228.086 62.924)"><line class="d" y2="4.209" transform="translate(0)"/><line class="d" y2="4.209" transform="translate(0 5.942)"/><line class="d" y2="4.209" transform="translate(0 11.756)"/></g><g transform="translate(245.813 76.615)"><line class="d" y2="4.209"/><line class="d" y2="4.209" transform="translate(0 5.942)"/><line class="d" y2="4.209" transform="translate(0 11.756)"/></g><g transform="translate(193.736 68.678)"><line class="d" y2="4.112" transform="translate(0)"/><line class="d" y2="4.112" transform="translate(0 5.637)"/><line class="d" y2="4.112" transform="translate(0 11.482)"/></g><ellipse class="e" cx="15.151" cy="9.257" rx="15.151" ry="9.257" transform="translate(200.705 87.108)"/><line class="e" x1="20.569" y2="13.594" transform="translate(205.482 89.518)"/><path class="e" d="M1328.531,550.6c-1.791-.835-5.785-.083-9.555,2.324-3.313,2.115-5.452,4.76-5.789,6.685" transform="translate(-1097.441 -453.988)"/><path class="e" d="M1261.576,528.11a20.5,20.5,0,0,0,8.99-1.886c4.7-2.248,7.506-5.525,7.745-8.074" transform="translate(-1060.871 -431.226)"/><line class="e" x2="23.111" y2="11.97" transform="translate(204.47 90.259)"/><g transform="translate(202.669 89.263)"><path class="k" d="M1275.454,527.073c2.5-1.546,7.909-1.1,13.472,1.348,6.8,2.986,10.4,7.482,9.8,10.375" transform="translate(-1273.373 -526.175)"/><path class="k" d="M1291.56,546.22c-2.768,1.385-7.909,1.1-13.472-1.347-6.8-2.986-10.3-7.321-9.709-10.214" transform="translate(-1268.314 -532.186)"/></g><path class="l" d="M1219.568,295.078a64.283,64.283,0,0,0,4.5,12.459,38.328,38.328,0,0,0,7.319,10.637c2.778,2.692,5.9,4.382,9.191,4.382,5.18,0,9.833-2.577,13.573-5.07,1.871-1.246,3.52-2.481,4.856-3.387a8.074,8.074,0,0,1,2.8-1.4,11.3,11.3,0,0,1,3.767,1.066c1.454.619,2.975,1.371,4.287,1.9a.8.8,0,0,0,1.042-.687,9.791,9.791,0,0,0-6.277-9.239,11.616,11.616,0,0,0-9.475.545c1.721-3.685,3.664-7.658,5.353-11.678,2-4.771,3.577-9.346,3.577-12.981,0-15.539-11.659-25.772-22.74-25.772-12.494,0-23.474,9.462-23.5,24.209a.217.217,0,0,1,0,.024v.023a44.54,44.54,0,0,0,.19,6.088l.166,1.516c.228,1.855.529,3.747.948,5.637Z" transform="translate(-1029.855 -245.367)"/><path d="M1286.428,298.989c.658-2.028,1.953-3.9,4.43-4.122,2.026.039,3.383,2.2,4.122,4.1a22.339,22.339,0,0,1,1.185,7.272.8.8,0,0,1-1.185.616,7.935,7.935,0,0,0-4.122-.995,8.03,8.03,0,0,0-4.145.995.8.8,0,0,1-1.161-.616A25.059,25.059,0,0,1,1286.428,298.989Z" transform="translate(-1077.859 -273.012)"/><path d="M1237.292,306.853a.8.8,0,0,1-1.161-.616,25.072,25.072,0,0,1,.876-7.249c.658-2.028,1.953-3.9,4.43-4.122,2.025.039,3.382,2.2,4.122,4.1a22.358,22.358,0,0,1,1.184,7.272.8.8,0,0,1-1.184.616,7.938,7.938,0,0,0-4.122-.995A8.025,8.025,0,0,0,1237.292,306.853Z" transform="translate(-1042.841 -273.012)"/><path d="M1273.676,363.137a11.41,11.41,0,0,0-12.365-.971,13.751,13.751,0,0,0-4.193,3.1c-.983,1.146-1.876,2.8-.189,3.672a7.989,7.989,0,0,0,2.677-.143c2.513-.42,5.076-.854,7.438.735l-.948,1.184c-1.616-1.25-4.158-.742-6.23-.426a8.511,8.511,0,0,1-3.292.142c-3.3-.859-2.049-4.385-.592-6.159a15.1,15.1,0,0,1,4.666-3.458,13.357,13.357,0,0,1,13.952,1.114Z" transform="translate(-1055.845 -318.708)"/></g></g><path class="m" d="M109.977-10.131a.193.193,0,0,1-.219.219l-3.705-.055H89.906L86.2-9.912a.193.193,0,0,1-.219-.219v-1.463a.193.193,0,0,1,.219-.219l3.705.055h16.146l3.705-.055a.193.193,0,0,1,.219.219Zm43.039-2a7.271,7.271,0,0,0-.807,1.2q-.246.451-.4.451a1.018,1.018,0,0,1-.41-.164,27.081,27.081,0,0,1-11.457-10.281A29.645,29.645,0,0,1,128.885-10.24a1.1,1.1,0,0,1-.424.164q-.178,0-.424-.4a4.1,4.1,0,0,0-.861-.984,26.963,26.963,0,0,0,7.014-4.908,22.8,22.8,0,0,0,4.211-5.414,7.6,7.6,0,0,0,.725-1.764,10.654,10.654,0,0,1,1.736.355q.424.123.424.342,0,.15-.219.3a.63.63,0,0,0-.26.205,26.64,26.64,0,0,0,5.633,6.4A26.854,26.854,0,0,0,153.016-12.127Zm-11.963-2.406a1.5,1.5,0,0,1-.109.479,16.261,16.261,0,0,0-.164,3.172v8.654l.027,3.883q0,.205-.191.205h-1.49q-.219,0-.219-.205l.055-3.883v-8.654a29.486,29.486,0,0,0-.191-4.061,16.44,16.44,0,0,1,1.982.164Q141.053-14.725,141.053-14.533ZM190.955.533H177.516V1.627q0,.246-.26.246h-1.23a.218.218,0,0,1-.246-.246l.055-4.238V-4.238l-.055-2.693a.218.218,0,0,1,.246-.246l3.951.055h8.545l3.938-.055q.26,0,.26.246l-.055,2.188v2.023l.055,4.184q0,.246-.26.246H191.2a.218.218,0,0,1-.246-.246Zm0-1.572V-5.551H177.516v4.512Zm-16.734-9.119a34.3,34.3,0,0,1-.684,4.279,19.464,19.464,0,0,1-3.1,7.041q-.164.246-.287.246-.082,0-.328-.246A3.845,3.845,0,0,0,168.7.287a15.353,15.353,0,0,0,3.281-6.973,33.231,33.231,0,0,0,.7-7.4v-3.295q0-2.639-.164-4.238a17.018,17.018,0,0,1,1.873.588,100.376,100.376,0,0,0,14.547-1.422,8.6,8.6,0,0,0,1.764-.533,12.6,12.6,0,0,1,1.313,1.094.571.571,0,0,1,.205.424q0,.219-.643.273-.4.027-1.545.219a123.9,123.9,0,0,1-15.668,1.463v2.352H186.7l5.168-.055q.26,0,.26.246l-.055,2.27v2.078l.055,2.27q0,.246-.26.246l-5.168-.055Zm.109-1.545h16.064v-3.883H174.357v2.844Q174.357-12.072,174.33-11.7Zm61.988-4.348H221.84q-.629,2.352-1.094,3.623h12.715v1.5a26.4,26.4,0,0,1-5.455,7.109,38.58,38.58,0,0,0,8.285,4.4l-.834,1.2a42.127,42.127,0,0,1-8.572-4.7,32.276,32.276,0,0,1-10.2,4.566l-.752-1.2a32.22,32.22,0,0,0,9.775-4.225,21.037,21.037,0,0,1-5.4-7.342A35.987,35.987,0,0,1,212.775.137L211.818-.93a31.57,31.57,0,0,0,8.545-15.121h-7.027l2.092-6.576,1.354.342-1.463,4.867h5.4q.711-3.049,1.121-5.687l1.436.205q-.67,3.609-1.121,5.482h14.164Zm-4.389,4.99H221.922A17.262,17.262,0,0,0,226.885-4.7,24.064,24.064,0,0,0,231.93-11.061Zm1.121-8.34-.984,1.066a33.944,33.944,0,0,0-4.43-3.09l.984-1.066A35.843,35.843,0,0,1,233.051-19.4ZM26.318,49.809a3.636,3.636,0,0,0-.971,1.135q-.246.4-.369.4a.853.853,0,0,1-.424-.191A22.414,22.414,0,0,1,14.137,35.727,20.733,20.733,0,0,1,3.473,51.121a1.428,1.428,0,0,1-.424.191q-.1,0-.383-.424a4.322,4.322,0,0,0-1.039-1,19.013,19.013,0,0,0,8.846-8.5A21.547,21.547,0,0,0,12.879,30.9a30.533,30.533,0,0,0-.191-3.322,14.591,14.591,0,0,1,2.092.219q.4.1.4.342a1.654,1.654,0,0,1-.164.547,4.021,4.021,0,0,0-.246,1.572q0,.984-.041,1.463a27.238,27.238,0,0,0,3.855,10.91A21.843,21.843,0,0,0,26.318,49.809ZM48.207,28.043l.9-.465a.346.346,0,0,1,.164-.055.384.384,0,0,1,.26.137,15.044,15.044,0,0,1,2.146,2.789.364.364,0,0,1,.068.164q0,.082-.15.178l-1.039.615a.34.34,0,0,1-.15.041q-.1,0-.178-.15a15.107,15.107,0,0,0-2.051-2.939.314.314,0,0,1-.1-.164Q48.084,28.111,48.207,28.043ZM59.719,30.9a13.409,13.409,0,0,0,1.873-2.652,2.988,2.988,0,0,0,.342-.9,10.092,10.092,0,0,1,1.518.533q.246.1.246.26a.515.515,0,0,1-.219.355,2.284,2.284,0,0,0-.424.424,21.689,21.689,0,0,1-1.627,2.215q-.273.3-.4.3a1.439,1.439,0,0,1-.41-.164A4.362,4.362,0,0,0,59.719,30.9Zm-.752,8.846.7-.643a.315.315,0,0,1,.219-.109.53.53,0,0,1,.205.055,18.294,18.294,0,0,1,3.076,2.105q.109.1.109.164t-.109.164l-.807.848a.3.3,0,0,1-.178.109q-.055,0-.164-.109a14.632,14.632,0,0,0-3.035-2.27q-.137-.1-.137-.15T58.967,39.746Zm-4.033-7.889V30.039a21.6,21.6,0,0,0-.205-3.254q.861.041,1.736.15.369.041.369.246a.849.849,0,0,1-.068.287q-.082.232-.1.273a12.036,12.036,0,0,0-.137,2.3v1.818h7.561l3.719-.055a.218.218,0,0,1,.246.246v.984a.218.218,0,0,1-.246.246l-3.719-.055H57.846a20.393,20.393,0,0,0,5.086,3.09,26.467,26.467,0,0,0,5.578,1.75,2.631,2.631,0,0,0-.752,1.012q-.178.424-.342.424a1.57,1.57,0,0,1-.328-.068,23.786,23.786,0,0,1-10.65-5.838q.027,1.75.109,3.418.014.15.055.943.014.26.014.342,0,.246-.26.246H55.07a.218.218,0,0,1-.246-.246q0-.1.027-.711.1-1.941.137-3.8a24.749,24.749,0,0,1-9.967,5.934,1.618,1.618,0,0,1-.369.082q-.137,0-.328-.4a3.871,3.871,0,0,0-.766-.943,23.913,23.913,0,0,0,10.117-5.236h-5.77l-3.732.055a.218.218,0,0,1-.246-.246v-.984a.218.218,0,0,1,.246-.246l3.732.055ZM57.025,44.23q3.445,5.059,11.512,5.961a3.838,3.838,0,0,0-.725,1.148q-.205.465-.383.465a1.953,1.953,0,0,1-.314-.041q-7.984-1.326-11.4-6.863a10.77,10.77,0,0,1-4.771,4.826,19.628,19.628,0,0,1-6.084,2.092,2.613,2.613,0,0,1-.314.041q-.191,0-.4-.465a2.63,2.63,0,0,0-.779-1A20.268,20.268,0,0,0,50.3,48.168a8.9,8.9,0,0,0,3.842-3.937H48.494l-3.814.055a.218.218,0,0,1-.246-.246V42.973a.218.218,0,0,1,.246-.246l3.814.055h6.125a6.013,6.013,0,0,0,.137-.7,12.642,12.642,0,0,0,.15-1.846q0-.424-.027-.93,1.34.164,1.668.219.451.109.451.287a.735.735,0,0,1-.1.287,3.258,3.258,0,0,0-.15.328,7.821,7.821,0,0,0-.26,1.545,4.9,4.9,0,0,1-.109.807h7.205l3.8-.055q.26,0,.26.246v1.066q0,.246-.26.246l-3.8-.055Zm52.145,7.342a.193.193,0,0,1-.219.219h-1.244a.193.193,0,0,1-.219-.219V49.918H98.752v1.764q0,.191-.219.191H97.289q-.219,0-.219-.191l.055-10.227V35.863l-.055-7.342a.193.193,0,0,1,.219-.219l3.418.055h4.854l3.391-.055a.193.193,0,0,1,.219.219l-.055,6.549V41.4Zm-1.682-3.2v-5.4H98.752v5.4Zm0-13.439v-5H98.752v5Zm0,6.521v-5H98.752v5ZM95.867,40.361a4.7,4.7,0,0,0-.7,1.285q-.137.369-.232.369t-.273-.3A31.6,31.6,0,0,1,91.7,35.863q.014,5.605.15,11.58.027,1.463.068,3.322.027.916.027,1,0,.219-.246.219H90.344q-.246,0-.246-.219,0-.041.055-2.393.15-6.986.191-13.18a31.284,31.284,0,0,1-4.225,9.133q-.191.273-.314.273t-.246-.3a3.557,3.557,0,0,0-.725-1.121,30.691,30.691,0,0,0,2.939-4.689,41.457,41.457,0,0,0,2.119-5.141H89l-3.131.055q-.232,0-.232-.219V33.033q0-.219.232-.219L89,32.869h1.2V30.2a21.707,21.707,0,0,0-.191-3.418q.93.041,1.791.164.369.055.369.232a1.765,1.765,0,0,1-.164.561,8.612,8.612,0,0,0-.178,2.406v2.721h.342l3.1-.055a.193.193,0,0,1,.219.219v1.148a.193.193,0,0,1-.219.219l-3.1-.055h-.123A22.916,22.916,0,0,0,95.867,40.361Zm56.4,10.117q0,.219-.191.219l-3.637-.055H131.523L127.9,50.7a.193.193,0,0,1-.219-.219V49.152a.193.193,0,0,1,.219-.219l3.623.055h11.361q.9-3.8,1.148-5H133.82q-.219.67-.561,1.559a.307.307,0,0,1-.287.205h-.164l-1.012-.109q-.451-.027-.451-.15a.45.45,0,0,1,.027-.137,100.009,100.009,0,0,0,4.512-15.23h-3.445l-3.773.055q-.232,0-.232-.219V28.631q0-.219.232-.219l3.773.055h15.012l3.773-.055q.232,0,.232.219v1.326q0,.219-.232.219l-3.773-.055h-9.775q-.41,1.941-1.066,4.512h7.479l3.281-.055q.26,0,.26.205a.152.152,0,0,1-.014.068l-.479,2.611q-1.244,6.672-2.434,11.525h3.732l3.637-.055q.191,0,.191.219Zm-6.74-14.219H136.2q-1.025,3.664-1.832,6.1h10.008Q145.059,39.186,145.523,36.26ZM194.209,43.7h-8.094v5.018h-1.449V43.7h-8.094V42.33h8.094V38.57h-6.412V37.23a53.72,53.72,0,0,0,2.762-5.66h-3.91V30.2h4.525q.67-1.5,1.354-3.555l1.34.479q-.807,2.188-1.176,3.076H193.4V31.57H182.561q-1.189,2.8-2.693,5.66h4.8v-4.17h1.449v4.17h6.412v1.34h-6.412v3.76h8.094ZM175.615,31.324l-1.148.861a24.964,24.964,0,0,0-3.9-4.279l1.176-.861A28.714,28.714,0,0,1,175.615,31.324ZM194.4,49.658l-.383,1.436q-10.186,0-12.592-.239a10.638,10.638,0,0,1-4.2-1.244,7.954,7.954,0,0,1-2.844-2.632,33.384,33.384,0,0,1-3.719,4.566l-1.066-.957a26.85,26.85,0,0,0,4.088-5.154V35.945h-3.814V34.578h5.291V45.857a7.679,7.679,0,0,0,2.639,2.516,8.978,8.978,0,0,0,3.63,1.183q1.976.212,5.968.212Q190.723,49.768,194.4,49.658Zm42-6.973a.193.193,0,0,1-.219.219l-3.814-.055a12.742,12.742,0,0,1-2.83,4.594,49.142,49.142,0,0,1,5.934,3.049q.15.082.15.137a1.087,1.087,0,0,1-.164.314l-.506.725q-.232.328-.342.328a.332.332,0,0,1-.164-.082,36.5,36.5,0,0,0-6.139-3.377q-2.967,2.256-8.682,3.213a1.536,1.536,0,0,1-.3.027q-.287,0-.506-.506a2.1,2.1,0,0,0-.7-.916A20.5,20.5,0,0,0,226.6,47.8q-2.064-.779-3.719-1.312l-.588.752a.561.561,0,0,1-.424.26,1.071,1.071,0,0,1-.355-.082l-.533-.232q-.424-.164-.424-.273,0-.055.137-.191a23.062,23.062,0,0,0,1.791-2.215q.834-1.217,1.094-1.654h-.246l-3.9.055a.193.193,0,0,1-.219-.219V41.619a.193.193,0,0,1,.219-.219l3.9.055H224.4q.219-.369.561-1.094a9.5,9.5,0,0,0,.615-1.928,13.609,13.609,0,0,1,1.654.479.322.322,0,0,1,.246.328q0,.191-.287.424a3.417,3.417,0,0,0-.67,1.039l-.383.752h6.125l3.924-.055a.193.193,0,0,1,.219.219Zm-5.77.164h-5.318q-.643,1.094-1.531,2.461,1.941.615,4.2,1.49A9.89,9.89,0,0,0,230.631,42.85Zm-11.115-8.8a.193.193,0,0,1-.219.219l-2.5-.055H216.6v5.633q1.354-.615,2.543-1.2a7.015,7.015,0,0,0-.082,1.2.8.8,0,0,1-.068.41.868.868,0,0,1-.328.205l-2.064.971v3.391l.027,4.225a4.451,4.451,0,0,1-.191,1.531,1.667,1.667,0,0,1-.561.711,4.394,4.394,0,0,1-2.365.479h-.41q-.191.014-.273.014-.246,0-.314-.109a1.739,1.739,0,0,1-.137-.437,3.927,3.927,0,0,0-.506-1.23,16.96,16.96,0,0,0,2.092.109.948.948,0,0,0,.848-.314,2.035,2.035,0,0,0,.164-.971V42.139l-1.572.615a3.585,3.585,0,0,0-1.053.533.723.723,0,0,1-.369.164.293.293,0,0,1-.287-.219,12.088,12.088,0,0,1-.465-1.6,14.558,14.558,0,0,0,2.488-.684l1.258-.465V34.209H214.2l-2.529.055q-.191,0-.191-.219V32.869q0-.232.191-.232l2.529.055h.779v-2.3a21.426,21.426,0,0,0-.191-3.4,10.875,10.875,0,0,1,1.791.191q.342.041.342.219a1.574,1.574,0,0,1-.178.533,10.842,10.842,0,0,0-.137,2.434v2.324h.191l2.5-.055q.219,0,.219.232ZM236.4,38.01q0,.191-.219.191l-3.9-.027H223.6l-3.855.027q-.232,0-.232-.191V36.916q0-.219.232-.219l3.855.055h5.373a26.567,26.567,0,0,0,1.49-3.309,4.077,4.077,0,0,0,.219-1.176q.971.178,1.572.342.342.1.342.273a.447.447,0,0,1-.219.342,1.19,1.19,0,0,0-.369.588q-.561,1.285-1.436,2.939h1.709l3.9-.055a.193.193,0,0,1,.219.219Zm-.725-6.412a.193.193,0,0,1-.219.219l-3.787-.055H224.3l-3.8.055a.193.193,0,0,1-.219-.219V30.531a.193.193,0,0,1,.219-.219l3.8.055h2.379V29.3a12.642,12.642,0,0,0-.164-2.352q.807.041,1.764.137.342.055.342.232a1.059,1.059,0,0,1-.137.438,4.461,4.461,0,0,0-.178,1.627v.984h3.363l3.787-.055a.193.193,0,0,1,.219.219Zm-9.939,3.869a.753.753,0,0,1,.027.15q0,.137-.287.246l-.725.246a.879.879,0,0,1-.26.055q-.164,0-.219-.246a12.374,12.374,0,0,0-1.258-2.939.609.609,0,0,1-.055-.15q0-.1.26-.191l.725-.219a1.159,1.159,0,0,1,.273-.055.2.2,0,0,1,.178.137A13.448,13.448,0,0,1,225.736,35.467ZM11.43,100.15a.193.193,0,0,1-.219.219H9.994a.193.193,0,0,1-.219-.219v-1.6H4.4v2.215a.193.193,0,0,1-.219.219H2.967a.193.193,0,0,1-.219-.219L2.8,92.727v-4.8l-.055-6.111a.193.193,0,0,1,.219-.219l2.475.068A32,32,0,0,0,6.48,78.412a6.8,6.8,0,0,0,.191-1.627,10.011,10.011,0,0,1,1.818.424q.3.082.3.3a.542.542,0,0,1-.191.369,1.95,1.95,0,0,0-.451.807q-.643,1.873-1.094,2.98H8.49l2.721-.068a.193.193,0,0,1,.219.219l-.055,5.414v5.154Zm-1.654-3.09V90.648H4.4v6.412Zm0-7.9V83.115H4.4v6.043ZM25.73,82.021q-.055.711-.055,2.105a85.712,85.712,0,0,1-.9,13.658,6.735,6.735,0,0,1-1.189,3.254,2.842,2.842,0,0,1-2.27.971q-1.176,0-2.666-.137-.4-.041-.465-.137a1.5,1.5,0,0,1-.15-.506,4.042,4.042,0,0,0-.479-1.285,22.33,22.33,0,0,0,3.336.355h.314q1.422,0,1.955-3.131a90.8,90.8,0,0,0,.807-13.795h-8.2a27.881,27.881,0,0,1-2.242,3.746q-.246.342-.355.342-.137,0-.424-.273a3.484,3.484,0,0,0-.916-.684,24.79,24.79,0,0,0,3.938-7.246,10.308,10.308,0,0,0,.533-2.5,13.488,13.488,0,0,1,1.736.506q.424.164.424.369a.735.735,0,0,1-.314.506,4.692,4.692,0,0,0-.643,1.313q-.41,1.066-1,2.379h5.934l3.049-.055A.218.218,0,0,1,25.73,82.021ZM20.166,92.836a.516.516,0,0,1,.055.178q0,.109-.287.3l-.807.588a.955.955,0,0,1-.287.137q-.068,0-.137-.137a22.5,22.5,0,0,0-3.527-5.387.284.284,0,0,1-.082-.137q0-.082.287-.273l.7-.451a.479.479,0,0,1,.246-.137q.055,0,.15.109A20.708,20.708,0,0,1,20.166,92.836Zm48.453-6.973a.169.169,0,0,1-.191.191L64.873,86H63.861v3.9l.055,4.676a.193.193,0,0,1-.219.219H62.426a.193.193,0,0,1-.219-.219V93.26h-5.7v1.313a.193.193,0,0,1-.219.219h-1.3q-.191,0-.191-.219l.055-4.621V86H49.465V98.455H62.932l3.951-.055q.232,0,.232.219v1.3q0,.219-.232.219l-3.951-.055H49.465v1.463q0,.219-.246.219H47.865a.193.193,0,0,1-.219-.219l.055-3.924V86h-.533l-3.555.055a.169.169,0,0,1-.191-.191v-1.3q0-.219.191-.219l3.555.055H47.7V81.8a31.958,31.958,0,0,0-.191-3.787,16.179,16.179,0,0,1,1.887.164q.314.055.314.26a.868.868,0,0,1-.055.246,2.258,2.258,0,0,0-.082.287,21.779,21.779,0,0,0-.109,2.762V84.4h5.387V81.27a23.735,23.735,0,0,0-.191-3.363,17.962,17.962,0,0,1,1.818.164q.328.041.328.232a2.434,2.434,0,0,1-.164.615,11.028,11.028,0,0,0-.137,2.379v3.1h5.7V81.352a24.485,24.485,0,0,0-.191-3.445,17.962,17.962,0,0,1,1.818.164q.342.041.342.232a2.119,2.119,0,0,1-.178.615,11.672,11.672,0,0,0-.137,2.461V84.4h1.012l3.555-.055q.191,0,.191.219Zm-6.412,5.852V86h-5.7v5.715Zm48.508,2.2a3.835,3.835,0,0,0-.82,1.135q-.205.451-.355.451a1.677,1.677,0,0,1-.424-.123,19.259,19.259,0,0,1-9.625-6.918H96.018a17.906,17.906,0,0,1-9.393,7,1.5,1.5,0,0,1-.424.123q-.164,0-.383-.451a3.056,3.056,0,0,0-.725-1.012,16.266,16.266,0,0,0,8.955-5.66H92.914l-4.02.055a.193.193,0,0,1-.219-.219l.055-2.748V81.133l-.055-2.748a.193.193,0,0,1,.219-.219l4.02.055h10.24l4.006-.055a.193.193,0,0,1,.219.219l-.055,2.748v4.416l.055,2.748a.193.193,0,0,1-.219.219l-4.006-.055h-1.818a15.07,15.07,0,0,0,4.129,3.363A24.287,24.287,0,0,0,110.715,93.916Zm-5.072-6.85v-3.09h-6.9v3.09Zm0-4.43V79.643h-6.9v2.994Zm-8.531,4.43v-3.09h-6.7v3.09Zm0-4.43V79.643h-6.7v2.994Zm-1.326,9.912a.743.743,0,0,1-.055.232q-.068.191-.082.246-.041.123-.205,1.258a8.4,8.4,0,0,1-1.736,4.758,10.242,10.242,0,0,1-4.389,2.857,1.539,1.539,0,0,1-.41.123q-.137,0-.424-.424a2.826,2.826,0,0,0-.957-.9A9.63,9.63,0,0,0,92.381,98a6.424,6.424,0,0,0,1.34-3.609q.041-.424.041-.861a8.28,8.28,0,0,0-.123-1.49,15.359,15.359,0,0,1,1.7.205Q95.785,92.33,95.785,92.549Zm6.809-.055a2.824,2.824,0,0,1-.137.506,16.775,16.775,0,0,0-.109,2.693v2.57l.055,3.5q0,.246-.26.246H100.83q-.219,0-.219-.246l.055-3.5V95.748a22.98,22.98,0,0,0-.205-3.678,16.761,16.761,0,0,1,1.818.15Q102.594,92.262,102.594,92.494Z" transform="translate(20.685 305)"/><path class="i" d="M17.979-14.533l-1.039.984a65.383,65.383,0,0,0-6.863-6.945A29.508,29.508,0,0,1,2.8-13.248l-.957-1.121a25.683,25.683,0,0,0,8.2-8.928l1.354.479a6.022,6.022,0,0,1-.629,1.176A70.813,70.813,0,0,1,17.979-14.533Zm7.7,13.467a2.565,2.565,0,0,1-.431,1.62,1.941,1.941,0,0,1-1.114.7,13.871,13.871,0,0,1-2.6.157q-1.012,0-1.873-.041l-.615-1.5q1.791.109,3.158.109A4.181,4.181,0,0,0,23.96-.239a.825.825,0,0,0,.321-.745V-23.078h1.395ZM20.139-3.773H18.73V-21.191h1.408Zm-3.062.41a10.323,10.323,0,0,1-.465,2.933A1.928,1.928,0,0,1,15.347,1a20.665,20.665,0,0,1-3.821.212A26.241,26.241,0,0,1,5.564.848Q4.539.479,4.539-.984V-13.836H15.422q-.014,2.365-.246,5.216a11.63,11.63,0,0,1-.492,3.233,2.966,2.966,0,0,1-.7.711,4.416,4.416,0,0,1-2.181.328q-.766,0-1.326-.055l-.7-1.5q1.285.123,2.078.123a2.924,2.924,0,0,0,1.23-.157.862.862,0,0,0,.369-.451A13.431,13.431,0,0,0,13.706-8.5q.144-1.818.239-3.869H5.961V-1.094a.551.551,0,0,0,.219.5,7.845,7.845,0,0,0,2.044.253q1.825.109,3.548.109a15.164,15.164,0,0,0,2.96-.15q.444-.15.649-1.053a14.8,14.8,0,0,0,.273-2.516Zm48.645.314a.193.193,0,0,1-.219.219l-3.473-.055H56.957l-3.5.055a.193.193,0,0,1-.219-.219l.055-2.16V-7.533l-.055-2.187q0-.191.219-.191l3.5.055h5.072L65.5-9.912q.219,0,.219.191l-.055,2.188v2.324ZM64.012-4.334v-4.1H54.92v4.1Zm3.979-8.121a.193.193,0,0,1-.219.219l-3.924-.055h-8.9l-3.9.055q-.246,0-.246-.219v-1.162q0-.219.246-.219l3.9.055h3.637v-3.842H54.223a22.989,22.989,0,0,1-1.572,2.311q-.26.342-.4.342a.612.612,0,0,1-.3-.164,3.99,3.99,0,0,0-1.094-.6,15.578,15.578,0,0,0,3.021-4.676,7.006,7.006,0,0,0,.506-1.791,9.194,9.194,0,0,1,1.559.52q.314.164.314.314t-.246.342a4.461,4.461,0,0,0-.561.971q-.287.67-.451,1.012h3.582v-1.23a15.5,15.5,0,0,0-.191-2.748q1.23.055,1.777.137.314.055.314.26a1.485,1.485,0,0,1-.109.424,5.84,5.84,0,0,0-.164,1.791v1.367h2.57l3.473-.055q.232,0,.232.246v1.094q0,.191-.232.191l-3.473-.055h-2.57v3.842h3.637l3.924-.055a.193.193,0,0,1,.219.219ZM69.193-.93A2.932,2.932,0,0,0,68.66.355Q68.592.82,68.5.889a1.012,1.012,0,0,1-.479.082q-5.455.342-9.939.342-4.936,0-6.891-.889a5.684,5.684,0,0,1-2.639-2.775A28.393,28.393,0,0,1,45.555.4a2.152,2.152,0,0,0-.588.561.39.39,0,0,1-.328.246A.421.421,0,0,1,44.3.984a10.908,10.908,0,0,1-.807-1.49A11.674,11.674,0,0,0,45.2-1.545a17.889,17.889,0,0,0,2.57-2.3v-6.9H45.719l-1.928.055q-.246,0-.246-.232v-1.23q0-.219.246-.219l1.928.055h1.49l2.023-.055a.193.193,0,0,1,.219.219L49.4-9.543v5.729A4.744,4.744,0,0,0,51.8-1.039a15.461,15.461,0,0,0,5.605.7A116.741,116.741,0,0,0,69.193-.93ZM49.26-18.115a.238.238,0,0,1,.068.137q0,.1-.232.287l-.766.561a.72.72,0,0,1-.3.15q-.082,0-.205-.164a22.45,22.45,0,0,0-3.062-3.965.314.314,0,0,1-.1-.164q0-.1.246-.26l.684-.479a.583.583,0,0,1,.273-.15.314.314,0,0,1,.191.1A35.485,35.485,0,0,1,49.26-18.115Z" transform="translate(20.685 305)"/><path class="n" d="M5.984.188a4.918,4.918,0,0,1-3.816-1.57A5.824,5.824,0,0,1,.734-5.469,6.171,6.171,0,0,1,2.2-9.781a5.1,5.1,0,0,1,3.977-1.609A4.807,4.807,0,0,1,9.91-9.828a5.845,5.845,0,0,1,1.418,4.086A6.191,6.191,0,0,1,9.875-1.406,5.008,5.008,0,0,1,5.984.188ZM6.078-10.2A3.612,3.612,0,0,0,3.211-8.93a4.93,4.93,0,0,0-1.1,3.344A4.964,4.964,0,0,0,3.184-2.254a3.5,3.5,0,0,0,2.8,1.262A3.678,3.678,0,0,0,8.891-2.2,4.917,4.917,0,0,0,9.953-5.562a5.138,5.138,0,0,0-1.031-3.43A3.536,3.536,0,0,0,6.078-10.2ZM29.727-4.531q0,4.719-4.258,4.719-4.078,0-4.078-4.539V-11.2H22.7v6.766q0,3.445,2.906,3.445,2.8,0,2.8-3.328V-11.2h1.313ZM48.555,0H46.992L45.117-3.141a6.84,6.84,0,0,0-.5-.746,2.85,2.85,0,0,0-.5-.5,1.718,1.718,0,0,0-.547-.285,2.249,2.249,0,0,0-.66-.09H41.836V0H40.523V-11.2h3.344a4.765,4.765,0,0,1,1.355.184,3.033,3.033,0,0,1,1.078.559,2.6,2.6,0,0,1,.715.934,3.1,3.1,0,0,1,.258,1.309A3.151,3.151,0,0,1,47.1-7.145a2.805,2.805,0,0,1-.5.871,3.031,3.031,0,0,1-.781.652,3.988,3.988,0,0,1-1.027.418v.031a2.363,2.363,0,0,1,.488.285,2.687,2.687,0,0,1,.395.379,5.019,5.019,0,0,1,.371.5q.184.277.41.645ZM41.836-10.016v4.063h1.781a2.7,2.7,0,0,0,.91-.148,2.107,2.107,0,0,0,.723-.426,1.931,1.931,0,0,0,.477-.68,2.275,2.275,0,0,0,.172-.9,1.756,1.756,0,0,0-.582-1.4,2.5,2.5,0,0,0-1.684-.5ZM81.9,0h-1.3V-7.516q0-.891.109-2.18h-.031a6.968,6.968,0,0,1-.336,1.086L76.508,0h-.641l-3.82-8.547A6.7,6.7,0,0,1,71.711-9.7H71.68q.062.672.063,2.2V0H70.477V-11.2h1.734l3.438,7.813a10,10,0,0,1,.516,1.344h.047q.336-.922.539-1.375L80.258-11.2H81.9ZM94.156,0H92.844V-11.2h1.313Zm10.422-.453V-2a3,3,0,0,0,.637.422,5.159,5.159,0,0,0,.781.316,6.219,6.219,0,0,0,.824.2,4.6,4.6,0,0,0,.766.07,3,3,0,0,0,1.809-.449,1.52,1.52,0,0,0,.6-1.293,1.518,1.518,0,0,0-.2-.789,2.244,2.244,0,0,0-.551-.613,5.465,5.465,0,0,0-.832-.531q-.48-.254-1.035-.535-.586-.3-1.094-.6a4.74,4.74,0,0,1-.883-.672,2.8,2.8,0,0,1-.59-.832,2.575,2.575,0,0,1-.215-1.09,2.563,2.563,0,0,1,.336-1.332,2.881,2.881,0,0,1,.883-.934,4,4,0,0,1,1.246-.547,5.706,5.706,0,0,1,1.426-.18,5.464,5.464,0,0,1,2.414.4v1.477a4.376,4.376,0,0,0-2.547-.687,4.189,4.189,0,0,0-.859.09,2.428,2.428,0,0,0-.766.293,1.7,1.7,0,0,0-.547.523,1.389,1.389,0,0,0-.211.781,1.608,1.608,0,0,0,.16.742,1.819,1.819,0,0,0,.473.57,4.708,4.708,0,0,0,.762.5q.449.242,1.035.531.6.3,1.141.625a5.214,5.214,0,0,1,.945.727,3.229,3.229,0,0,1,.645.883,2.482,2.482,0,0,1,.238,1.109,2.813,2.813,0,0,1-.324,1.4,2.661,2.661,0,0,1-.875.934,3.822,3.822,0,0,1-1.27.52,6.953,6.953,0,0,1-1.516.16,6.176,6.176,0,0,1-.656-.043q-.391-.043-.8-.125a6.5,6.5,0,0,1-.77-.2A2.4,2.4,0,0,1,104.578-.453Zm16.5,0V-2a3,3,0,0,0,.637.422,5.159,5.159,0,0,0,.781.316,6.219,6.219,0,0,0,.824.2,4.6,4.6,0,0,0,.766.07,3,3,0,0,0,1.809-.449,1.52,1.52,0,0,0,.6-1.293,1.518,1.518,0,0,0-.2-.789,2.244,2.244,0,0,0-.551-.613,5.465,5.465,0,0,0-.832-.531q-.48-.254-1.035-.535-.586-.3-1.094-.6a4.74,4.74,0,0,1-.883-.672,2.8,2.8,0,0,1-.59-.832,2.575,2.575,0,0,1-.215-1.09,2.563,2.563,0,0,1,.336-1.332,2.881,2.881,0,0,1,.883-.934,4,4,0,0,1,1.246-.547,5.706,5.706,0,0,1,1.426-.18,5.464,5.464,0,0,1,2.414.4v1.477a4.376,4.376,0,0,0-2.547-.687,4.189,4.189,0,0,0-.859.09,2.428,2.428,0,0,0-.766.293,1.7,1.7,0,0,0-.547.523,1.389,1.389,0,0,0-.211.781,1.608,1.608,0,0,0,.16.742,1.819,1.819,0,0,0,.473.57,4.708,4.708,0,0,0,.762.5q.449.242,1.035.531.6.3,1.141.625a5.214,5.214,0,0,1,.945.727,3.229,3.229,0,0,1,.645.883,2.482,2.482,0,0,1,.238,1.109,2.813,2.813,0,0,1-.324,1.4,2.661,2.661,0,0,1-.875.934,3.822,3.822,0,0,1-1.27.52,6.953,6.953,0,0,1-1.516.16,6.176,6.176,0,0,1-.656-.043q-.391-.043-.8-.125a6.5,6.5,0,0,1-.77-.2A2.4,2.4,0,0,1,121.078-.453ZM139.414,0H138.1V-11.2h1.313Zm15.461.188a4.918,4.918,0,0,1-3.816-1.57,5.824,5.824,0,0,1-1.434-4.086,6.171,6.171,0,0,1,1.461-4.312,5.1,5.1,0,0,1,3.977-1.609A4.807,4.807,0,0,1,158.8-9.828a5.845,5.845,0,0,1,1.418,4.086,6.191,6.191,0,0,1-1.453,4.336A5.008,5.008,0,0,1,154.875.188Zm.094-10.391A3.612,3.612,0,0,0,152.1-8.93,4.93,4.93,0,0,0,151-5.586a4.964,4.964,0,0,0,1.074,3.332,3.5,3.5,0,0,0,2.8,1.262,3.678,3.678,0,0,0,2.906-1.2,4.917,4.917,0,0,0,1.063-3.367,5.138,5.138,0,0,0-1.031-3.43A3.536,3.536,0,0,0,154.969-10.2ZM179.453,0h-1.609l-5.766-8.93a3.732,3.732,0,0,1-.359-.7h-.047a11.533,11.533,0,0,1,.063,1.539V0h-1.312V-11.2h1.7l5.609,8.789q.352.547.453.75h.031a11.854,11.854,0,0,1-.078-1.648V-11.2h1.313Z" transform="translate(20.685 257)"/></g></svg>