<svg xmlns="http://www.w3.org/2000/svg" xmlns:xlink="http://www.w3.org/1999/xlink" width="1820" height="880" viewBox="0 0 1820 880">
  <defs>
    <clipPath id="clip-path">
      <rect id="矩形_2278" data-name="矩形 2278" width="1820" height="880" transform="translate(50 82)" fill="#fff"/>
    </clipPath>
  </defs>
  <g id="banner_jp" transform="translate(-50 -88)">
    <g id="组_21710" data-name="组 21710" transform="translate(0 34)">
      <path id="路径_40403" data-name="路径 40403" d="M21.84-26.052a28.358,28.358,0,0,1-4.524,6.4c-.624-.416-1.248-.884-2.028-1.352a49.975,49.975,0,0,0,5.772-9.516A23.161,23.161,0,0,1,22.2-32.708l-2.392-3.016a21.918,21.918,0,0,1-3.692.208H13.312l3.432-2.08A34.376,34.376,0,0,0,11.96-43.94L7.592-41.184a28.636,28.636,0,0,1,4,5.668H7.852a29.351,29.351,0,0,1-4.836-.26v5.512a37.8,37.8,0,0,1,4.732-.26h7.488a33.763,33.763,0,0,1-6.6,9.412A39.909,39.909,0,0,1,.988-15.08a15.568,15.568,0,0,1,2.7,5.2A51.511,51.511,0,0,0,9.62-14.716c-.052,1.612-.052,2.5-.052,2.6v9.828c0,2.392-.156,4.68-.312,6.4h6.032a50.445,50.445,0,0,1-.312-6.4V-15.5A35.849,35.849,0,0,1,20.7-9.828L23.764-14.3a29.078,29.078,0,0,0-3.016-2.756,36.229,36.229,0,0,0,4.94-6.084Zm20.644-9c-.052,7.8-.1,11.076-.312,16.172-.208,4.212-.676,9.932-1.092,12.168-.572,3.536-1.04,4.16-3.328,4.16a49.286,49.286,0,0,1-6.5-.572A17.026,17.026,0,0,1,32.5,2.7c2.912.156,3.952.208,5.46.208,2.756,0,4.056-.208,5.252-.832A5.512,5.512,0,0,0,46.02-1.664c1.04-3.536,1.82-13.468,2.028-26.312.208-10.92.208-10.92.416-12.376a36.482,36.482,0,0,1-4.992.26H28.444a50.8,50.8,0,0,1-6.188-.312v5.668a49.052,49.052,0,0,1,6.188-.312h1.092c0,3.848-.052,4.472-.156,6.6-.52,7.54-1.82,12.792-4.472,17.94A26.184,26.184,0,0,1,17.16-1.2a17.141,17.141,0,0,1,4.108,4.888A42.525,42.525,0,0,0,26.832-2.34,37.222,37.222,0,0,0,33.124-15.7c1.4-5.408,2.028-10.712,2.132-19.344ZM74.672-3.328C78-10.556,78.884-13.884,80.6-26.468l-5.772-1.2C73.58-17.316,72.436-13.208,68.952-6.552Zm29.744-32.708A91.172,91.172,0,0,0,86.58-43.888l-3.328,4.94c8.528,3.068,12.376,4.94,17.576,8.372Zm14.2,28.548c-2.964-9.36-4.94-14.2-8.788-21.06l-5.564,2.5c3.8,6.864,5.98,12.532,8.372,21.58ZM89.44-27.2a32.426,32.426,0,0,1,.364-5.148H83.1a37.384,37.384,0,0,1,.364,5.3V-2.5c0,2.132.364,3.328,1.3,4.108,1.4,1.144,3.38,1.456,9.464,1.456,8.372,0,10.608-.624,12.064-3.276,1.144-2.184,1.664-5.148,2.132-12.168a24.537,24.537,0,0,1-5.824-2.08c-.1,5.408-.468,8.84-1.144,10.3-.572,1.2-2.028,1.56-6.24,1.56-4.784,0-5.772-.26-5.772-1.56ZM171.5-38.688a41.328,41.328,0,0,1-5.824.312h-3.744v-.884a22.155,22.155,0,0,1,.312-4.576H155.9a27.823,27.823,0,0,1,.312,4.576v.884h-7.592a43.848,43.848,0,0,1-6.136-.312v5.46a57.331,57.331,0,0,1,5.928-.208h7.8v4.524H144.352a45.766,45.766,0,0,1-6.344-.312v5.72a52.343,52.343,0,0,1,6.24-.312h13.936a86.812,86.812,0,0,1-21.424,9.568,19.009,19.009,0,0,1,3.068,5.2c4.108-1.664,4.992-2.028,8.268-3.64-.052.884-.052,2.08-.052,2.912v8.06a48.283,48.283,0,0,1-.312,5.876h6.084V1.924h18.876V4.16h6.032a40.652,40.652,0,0,1-.312-5.876V-14.56a49.982,49.982,0,0,1,.208-5.668c-1.508.1-2.964.156-5.46.156h-7.644c-1.352,0-3.068,0-4.212.052,3.016-1.924,3.016-1.924,5.616-3.8H178.1a54.322,54.322,0,0,1,6.448.312v-5.72a44.065,44.065,0,0,1-5.928.312h-5.356a86.206,86.206,0,0,0,6.864-6.916c2.028-2.34,2.028-2.34,2.548-2.912l-5.148-3.38a39.364,39.364,0,0,1-6.032,7.9Zm-9.568,9.776v-4.524h4.264a35.81,35.81,0,0,1,4.368.156,54.459,54.459,0,0,1-4.992,4.368ZM153.816-15.34H172.64v3.848H153.816Zm0,8.372H172.64v4H153.816Zm91.364-26.1a10.493,10.493,0,0,1-4.108.468l-11.544.052c.156-1.664.156-2.08.208-3.276.1-2.7.1-2.7.208-3.8,0-.312.052-.676.052-.936a14.518,14.518,0,0,1,.208-1.664l-6.968-.156a10.625,10.625,0,0,1,.156,2.028v1.3c0,1.508-.1,4.576-.26,6.5l-9.1.052a35.414,35.414,0,0,1-5.772-.364l.052,6.344a36.929,36.929,0,0,1,5.616-.26h8.632c-.052.312-.156.884-.26,1.612a26.742,26.742,0,0,1-2.652,9c-2.756,5.564-7.02,9.724-13.52,13.156a20.24,20.24,0,0,1,4.68,5.46c6.552-4.108,11.18-8.892,14.04-14.4,2.34-4.42,3.432-8.32,4.16-14.872h12.116a117.32,117.32,0,0,1-1.144,16.64c-.832,4.524-1.612,5.668-3.848,5.668a25.3,25.3,0,0,1-6.864-1.248,16.038,16.038,0,0,1,1.2,6.656,35.146,35.146,0,0,0,6.448.624c6.24,0,8.06-2.132,9.412-11.128.52-3.432,1.092-11.492,1.248-17.368a8.018,8.018,0,0,1,.572-3.432ZM237.9-40.56a32.107,32.107,0,0,1,4.68,7.072l4.108-1.872a28.23,28.23,0,0,0-4.732-6.968Zm14.768,2.6a28.6,28.6,0,0,0-4.68-6.6l-3.9,1.716a34.265,34.265,0,0,1,4.576,6.864Zm57.46-4.264c-1.508,2.548-5.044,6.136-9.672,9.724a75.942,75.942,0,0,1-27.3,13.52,19.559,19.559,0,0,1,3.484,5.928c9.568-3.432,12.48-4.784,18.564-8.424v18.3a29.247,29.247,0,0,1-.312,5.616h7.28a39.336,39.336,0,0,1-.26-5.772v-22.2a91.952,91.952,0,0,0,12.272-10.712,21.42,21.42,0,0,1,1.924-1.82Zm58.76,5.512a34.486,34.486,0,0,1,4.992,7.124l3.9-2.184a28.167,28.167,0,0,0-4.992-7.02Zm14.456,1.664a29.651,29.651,0,0,0-4.992-6.708l-3.744,2.028a34.272,34.272,0,0,1,4.888,6.916ZM358.02,2.34a57.175,57.175,0,0,1-.208-5.772V-17.16A26.883,26.883,0,0,0,357.6-20.7a16.8,16.8,0,0,0,1.768.884c8.684,4,14.092,6.968,18.408,9.932l3.64-6.136a152.773,152.773,0,0,0-23.608-10.972V-36.66a34.862,34.862,0,0,1,.208-5.46H350.9a33.423,33.423,0,0,1,.312,5.3V-3.484A35.029,35.029,0,0,1,350.9,2.34ZM409.5-7.8A55.967,55.967,0,0,1,420.784,4.056L425.62-.468a60.78,60.78,0,0,0-11.7-11.44Z" transform="translate(180 452)" fill="#0080f4"/>
      <path id="路径_40405" data-name="路径 40405" d="M5-9.6a4.159,4.159,0,0,0-3.1,1.2A5.137,5.137,0,0,0,.54-4.656c0,3.048,1.752,5,4.476,5S9.5-1.62,9.5-4.656A5.175,5.175,0,0,0,8.16-8.4,4.205,4.205,0,0,0,5-9.6ZM5.04-1.08a2.591,2.591,0,0,1-1.86-.732,3.965,3.965,0,0,1-.972-2.832c0-2.172,1.092-3.54,2.82-3.54a2.583,2.583,0,0,1,1.848.732,3.876,3.876,0,0,1,.948,2.8C7.824-2.448,6.756-1.08,5.04-1.08ZM36.576-9.408a9.767,9.767,0,0,1,.1,1.644V-3.54a2.191,2.191,0,0,1-2.436,2.484,2.2,2.2,0,0,1-2.46-2.472V-7.764a9.41,9.41,0,0,1,.1-1.644H30.084a9.858,9.858,0,0,1,.1,1.644v4.236a3.865,3.865,0,0,0,.9,2.76A4.134,4.134,0,0,0,34.176.36c2.616,0,4.092-1.392,4.092-3.876v-4.26a9.7,9.7,0,0,1,.1-1.632ZM67.332.144c-.168-.324-.468-.972-.564-1.188C65.58-3.852,65.352-4.188,64.6-4.428a2.537,2.537,0,0,0,1.332-.7,2.467,2.467,0,0,0,.612-1.788c0-1.584-1.044-2.5-2.868-2.5h-2.88c-.66,0-1.032-.012-1.536-.036a10.677,10.677,0,0,1,.1,1.56v6.468a9.391,9.391,0,0,1-.1,1.56h1.788a9.364,9.364,0,0,1-.1-1.572V-3.876h1.788c.924,0,1.344.444,1.992,2.1a9.714,9.714,0,0,1,.624,1.92ZM60.948-5.244v-2.8h2.46c.984,0,1.476.444,1.476,1.308A1.424,1.424,0,0,1,64.5-5.676a1.617,1.617,0,0,1-1.14.432ZM116.7.144a9.771,9.771,0,0,1,.528-1.6l1.8-4.224a14.644,14.644,0,0,0,.552-1.752c-.012.18-.048.792-.1,1.836v3.984a11.156,11.156,0,0,1-.1,1.752h1.68a10.4,10.4,0,0,1-.1-1.752V-7.632a12.427,12.427,0,0,1,.1-1.776H118.86a6.65,6.65,0,0,1-.432,1.428L116-2.028,113.568-7.98a8.305,8.305,0,0,1-.444-1.428h-2.2a11.9,11.9,0,0,1,.1,1.776v6.024a11.254,11.254,0,0,1-.1,1.752h1.68a10.964,10.964,0,0,1-.1-1.752V-5.544c0-.264-.048-1.248-.1-1.884a13.354,13.354,0,0,0,.612,1.836l1.728,4.116a8.169,8.169,0,0,1,.528,1.62Zm25.272-9.552a8.966,8.966,0,0,1,.1,1.548V-1.4a9.055,9.055,0,0,1-.1,1.548H143.8a9.055,9.055,0,0,1-.1-1.548V-7.86a8.966,8.966,0,0,1,.1-1.548Zm22.4,6.756a4.1,4.1,0,0,0,.228,1A2.825,2.825,0,0,0,165.66-.288a4.825,4.825,0,0,0,2.52.624,3.977,3.977,0,0,0,2.868-.912,2.792,2.792,0,0,0,.756-2.04,2.368,2.368,0,0,0-1-2.064,5.283,5.283,0,0,0-1.956-.732,10.216,10.216,0,0,1-1.692-.432,1.141,1.141,0,0,1-.816-1.092c0-.78.708-1.308,1.752-1.308a1.9,1.9,0,0,1,1.5.576,1.55,1.55,0,0,1,.36.852l1.716-.2a3.235,3.235,0,0,0-.588-1.392A3.537,3.537,0,0,0,168.1-9.624c-2.064,0-3.408,1.08-3.408,2.748a2.362,2.362,0,0,0,.924,1.944,4.242,4.242,0,0,0,1.812.732,7.566,7.566,0,0,1,2.088.588,1.218,1.218,0,0,1,.6,1.1c0,.9-.72,1.44-1.92,1.44a2.13,2.13,0,0,1-1.752-.708,1.72,1.72,0,0,1-.336-1.056Zm27.78,0a4.1,4.1,0,0,0,.228,1A2.825,2.825,0,0,0,193.44-.288a4.825,4.825,0,0,0,2.52.624,3.977,3.977,0,0,0,2.868-.912,2.792,2.792,0,0,0,.756-2.04,2.368,2.368,0,0,0-1-2.064,5.283,5.283,0,0,0-1.956-.732,10.216,10.216,0,0,1-1.692-.432,1.141,1.141,0,0,1-.816-1.092c0-.78.708-1.308,1.752-1.308a1.9,1.9,0,0,1,1.5.576,1.55,1.55,0,0,1,.36.852l1.716-.2a3.235,3.235,0,0,0-.588-1.392,3.537,3.537,0,0,0-2.988-1.212c-2.064,0-3.408,1.08-3.408,2.748a2.362,2.362,0,0,0,.924,1.944A4.242,4.242,0,0,0,195.2-4.2a7.566,7.566,0,0,1,2.088.588,1.218,1.218,0,0,1,.6,1.1c0,.9-.72,1.44-1.92,1.44a2.13,2.13,0,0,1-1.752-.708,1.72,1.72,0,0,1-.336-1.056Zm28.092-6.756a8.966,8.966,0,0,1,.1,1.548V-1.4a9.055,9.055,0,0,1-.1,1.548h1.824a9.055,9.055,0,0,1-.1-1.548V-7.86a8.966,8.966,0,0,1,.1-1.548ZM247.116-9.6a4.159,4.159,0,0,0-3.1,1.2,5.137,5.137,0,0,0-1.368,3.744c0,3.048,1.752,5,4.476,5s4.488-1.968,4.488-5A5.175,5.175,0,0,0,250.272-8.4,4.205,4.205,0,0,0,247.116-9.6Zm.036,8.52a2.591,2.591,0,0,1-1.86-.732,3.965,3.965,0,0,1-.972-2.832c0-2.172,1.092-3.54,2.82-3.54a2.583,2.583,0,0,1,1.848.732,3.876,3.876,0,0,1,.948,2.8C249.936-2.448,248.868-1.08,247.152-1.08ZM280.368.144a9.055,9.055,0,0,1-.1-1.548V-7.752a10.493,10.493,0,0,1,.1-1.656h-1.752a10.489,10.489,0,0,1,.1,1.656V-3.72c0,.5.036,1.224.084,1.692-.264-.48-.648-1.1-.936-1.536l-3.036-4.572a6.582,6.582,0,0,1-.732-1.272H272.22a9.993,9.993,0,0,1,.1,1.548v6.192a12.983,12.983,0,0,1-.1,1.812h1.752a13.282,13.282,0,0,1-.1-1.8V-5.592c0-.276-.024-.816-.036-1.044-.036-.444-.036-.444-.048-.612.288.564.588,1.08.816,1.44l3.1,4.668a11.958,11.958,0,0,1,.768,1.284Z" transform="translate(180 346)"/>
      <path id="路径_40404" data-name="路径 40404" d="M12.272,68.176a80.069,80.069,0,0,0,3.016-7.8c.52-1.456.624-1.768.988-2.808L10.608,55.54a32.2,32.2,0,0,1-1.976,7.28,37.655,37.655,0,0,1-7.9,13.364A31.236,31.236,0,0,1,3.12,82.372a27.6,27.6,0,0,0,3.744-5.408c-.1,3.952-.1,3.952-.1,5.772v15.5a54.588,54.588,0,0,1-.312,6.084h6.084a56.663,56.663,0,0,1-.26-6.032ZM29.536,78.628H28.184c-1.612,0-2.652-.052-3.8-.156a25,25,0,0,1,.156,3.536v8.06a25.518,25.518,0,0,1-.156,3.536c1.144-.1,2.288-.156,3.8-.156h7.748c1.2,0,2.392.052,3.848.156a18.843,18.843,0,0,1-.156-3.64v-7.9a28.609,28.609,0,0,1,.1-3.588c-1.248.1-2.34.156-3.848.156h-1.3V74h3.848a20,20,0,0,1,3.276.208V68.956a15.348,15.348,0,0,1-3.38.26H34.58V68.072a20.33,20.33,0,0,1,.208-3.484H29.276a19.4,19.4,0,0,1,.26,3.484v1.144H25.844a13.916,13.916,0,0,1-3.172-.26v5.252A19.219,19.219,0,0,1,25.792,74h3.744Zm-.416,4.628H35v5.616H29.12Zm-12.844,14.3a49.882,49.882,0,0,1-.312,6.4h5.46v-2.288H42.952v2.288h5.46a54.736,54.736,0,0,1-.26-6.812V64.692a48.866,48.866,0,0,1,.208-6.4,58.45,58.45,0,0,1-6.24.208H21.736c-2.444,0-3.8-.052-5.668-.208.156,1.716.208,3.276.208,5.876ZM21.424,63.6H42.952V96.62H21.424ZM88.192,75.248c2.964,0,4.836.052,6.552.208a39.029,39.029,0,0,1-.208-5.408v-6.76a54.817,54.817,0,0,1,.208-5.512,45.886,45.886,0,0,1-6.4.26h-10.5a52.112,52.112,0,0,1-6.5-.26c.156,1.976.208,3.068.208,5.72v6.292c0,2.652-.052,3.848-.208,5.668a55.868,55.868,0,0,1,5.772-.208,59.942,59.942,0,0,1-.884,10.036c-1.144,6.5-2.964,10.036-7.176,13.676a16.022,16.022,0,0,1,3.9,5.1,25.592,25.592,0,0,0,6.032-8.164,35.543,35.543,0,0,0,2.964-10.608h7.02a63.341,63.341,0,0,1-.78,11.232c-.208,1.092-.728,1.4-2.236,1.4a34.935,34.935,0,0,1-5.46-.52,16.212,16.212,0,0,1,1.3,5.72c2.392.208,3.38.26,4.524.26,4.576,0,5.98-.728,6.864-3.588.78-2.5,1.3-8.892,1.3-16.12.052-2.08.052-2.6.156-3.64a32.818,32.818,0,0,1-4.94.26H82.524c.1-1.924.1-1.924.208-5.044ZM77.064,62.924H89.128V70.36H77.064ZM98.7,59.388a47.877,47.877,0,0,1,.312,6.344v19.76a39.889,39.889,0,0,1-.26,6.084h5.98a43.341,43.341,0,0,1-.26-6.188V65.732a40.275,40.275,0,0,1,.312-6.344Zm11.232-2.652a61.851,61.851,0,0,1,.364,7.072v32.5c0,1.248-.52,1.56-2.548,1.56a63.95,63.95,0,0,1-7.02-.52,23.024,23.024,0,0,1,1.768,5.824c2.184.1,3.172.156,4.42.156,7.488,0,8.944-1.04,8.944-6.292V63.808a54.381,54.381,0,0,1,.364-7.072Zm55.328,9.932a11.365,11.365,0,0,1,5.252,1.56,12.883,12.883,0,0,1,6.4,11.544,14.559,14.559,0,0,1-7.228,13c-2.444,1.4-5.564,2.236-10.348,2.86a16.588,16.588,0,0,1,3.172,6.084,34,34,0,0,0,8.164-2.184c7.956-3.224,12.636-10.4,12.636-19.4,0-11.7-8.112-19.292-20.592-19.292-7.384,0-13.52,2.5-17.888,7.28a22.337,22.337,0,0,0-5.72,15.132c0,8.372,4.264,14.4,10.192,14.4,4.264,0,7.592-3.068,10.556-9.776A75.227,75.227,0,0,0,165.256,66.668Zm-6.344.052A68.533,68.533,0,0,1,154.6,84.3c-1.872,4.472-3.64,6.656-5.356,6.656-2.288,0-4.108-3.38-4.108-7.644a17.41,17.41,0,0,1,7.072-14.04A13.237,13.237,0,0,1,158.912,66.72Zm63.076,1.248V62.612a26,26,0,0,1,.208-4.472h-6.812a27.713,27.713,0,0,1,.26,4.628v5.2h-3.068a36.91,36.91,0,0,1-6.76-.364v6.344a52.9,52.9,0,0,1,6.656-.26h3.172v7.7a34.237,34.237,0,0,1-.208,4.472h6.76a32.011,32.011,0,0,1-.208-4.368v-7.8h13.468c-.1,3.588-.1,4.836-.208,6.032-.468,5.98-1.976,9.412-5.512,12.48-2.5,2.184-4.992,3.432-9.932,4.94a15.448,15.448,0,0,1,3.9,5.512c4.784-1.716,7.332-3.068,10.14-5.46,4.524-3.848,6.76-8.268,7.488-14.924.26-1.976.26-2.34.364-8.58h3.484a52.9,52.9,0,0,1,6.656.26V67.6a36.91,36.91,0,0,1-6.76.364h-3.328c.052-3.12.052-3.12.052-6.292a19.2,19.2,0,0,1,.208-3.484H235.3a33.141,33.141,0,0,1,.26,5.772v1.664l-.052,2.34Zm70.98-1.092h-11.44a36.292,36.292,0,0,1-6.656-.364v6.4a51.524,51.524,0,0,1,6.552-.26h11.544V97.816a36.1,36.1,0,0,1-.312,5.876h7.072a44.317,44.317,0,0,1-.26-5.824V72.648H311.48a51.956,51.956,0,0,1,6.6.26v-6.4a36.6,36.6,0,0,1-6.708.364H299.468V64.12a43,43,0,0,1,.208-5.512h-7.02a28.76,28.76,0,0,1,.312,5.356ZM281.32,76.444a25.554,25.554,0,0,1-1.508,6.344c-1.976,5.98-3.848,9.568-7.28,13.676a22.68,22.68,0,0,1,6.032,3.38A53.551,53.551,0,0,0,287.3,79.616c.208-.936.26-.988.416-1.612ZM304.668,78A13.307,13.307,0,0,1,305.5,80.4c2.444,8.268,4.576,13.156,8.528,19.448a34.385,34.385,0,0,1,5.98-3.588c-3.12-4.056-5.044-7.748-7.384-13.988a36.311,36.311,0,0,1-1.82-5.824Zm10.14-23.556a5.7,5.7,0,0,0-5.72,5.72,5.771,5.771,0,0,0,5.72,5.72,5.72,5.72,0,0,0,0-11.44Zm0,2.756a2.93,2.93,0,0,1,2.964,2.964,2.964,2.964,0,1,1-2.964-2.964Zm26.884,26.468c2.08-.26,2.652-.26,8.476-.26H377.78c5.824,0,6.4,0,8.476.26V76.444a51.067,51.067,0,0,1-8.424.364H350.116a51.067,51.067,0,0,1-8.424-.364ZM426.5,102.34a57.174,57.174,0,0,1-.208-5.772V82.84a26.883,26.883,0,0,0-.208-3.536,16.8,16.8,0,0,0,1.768.884c8.684,4,14.092,6.968,18.408,9.932l3.64-6.136A152.773,152.773,0,0,0,426.3,73.012V63.34a34.862,34.862,0,0,1,.208-5.46H419.38a33.423,33.423,0,0,1,.312,5.3V96.516a35.029,35.029,0,0,1-.312,5.824Zm52.416-33.8a5.745,5.745,0,0,1,.832-.052c.468,0,.468,0,1.456.052,1.144,0,5.72.1,6.552.1,0,0,.676-.052.884-.052a2.544,2.544,0,0,0-.416.676,68.87,68.87,0,0,1-6.24,8.892,31.856,31.856,0,0,1-4.68,4.628l4.732,4.68a23.381,23.381,0,0,1,4.524-4.732c4-3.536,7.644-5.356,10.66-5.356a2.854,2.854,0,0,1,3.172,2.808c-5.876,2.444-8.84,4.42-11.18,7.332a8.287,8.287,0,0,0-2.288,5.772,7.54,7.54,0,0,0,3.8,6.708c2.652,1.56,6.084,2.184,11.6,2.184a94.315,94.315,0,0,0,13.312-.936,15.323,15.323,0,0,1,2.392-.208l-.52-6.708c-3.692,1.4-9.048,2.184-15.288,2.184-6.292,0-8.788-1.092-8.788-3.8,0-1.508.884-2.912,2.7-4.264a31.6,31.6,0,0,1,4.992-2.7V87a41.165,41.165,0,0,1-.312,6.032l6.032-.156a21.349,21.349,0,0,1-.156-2.756c0-.364,0-.832.052-1.716v-2.08c0-.728,0-.728-.052-2.08v-.572q6.708-2.34,7.8-2.652a45.9,45.9,0,0,1,5.772-1.4l-2.444-5.98c-.832.52-1.04.572-3.848,1.56q-1.95.624-7.956,2.808c-.832-3.588-3.38-5.512-7.436-5.512a12.57,12.57,0,0,0-7.332,2.34c-.676.52-.676.52-1.04.78l-.052-.1a26.908,26.908,0,0,0,4.784-6.916c5.252-.156,11.856-.572,15.652-1.04,2.652-.312,2.652-.312,4.108-.416l-.364-5.928c-2.86.832-7.592,1.4-13.624,1.768-2.86.156-2.86.156-3.276.208.1-.208.208-.364.468-.936a39.723,39.723,0,0,1,2.08-4.68l-6.812-.728a20.593,20.593,0,0,1-2.08,6.448c-6.6,0-9.932-.208-12.064-.676Zm99.736-5.876c2.028-.312,4.316-.728,6.292-1.2,1.248-.312,1.4-.364,2.236-.52L583.6,55.9a49.847,49.847,0,0,1-10.5,2.34,209.856,209.856,0,0,1-23.66,1.4h-4a28.338,28.338,0,0,1,1.872,5.2h1.248c1.092,0,1.352,0,2.236-.052a34.506,34.506,0,0,1,2.236,5.46h-3.276a40.294,40.294,0,0,1-5.72-.26c.156,1.872.208,2.964.208,4.42v3.9a24.063,24.063,0,0,1-.312,4h5.772V75.56h34.216v6.5h5.772a28,28,0,0,1-.26-3.848v-3.8c0-1.872.052-3.016.156-4.368a47.775,47.775,0,0,1-5.616.208h-3.432c.78-1.352.78-1.352,3.172-6.032Zm-8.476,7.592a36.2,36.2,0,0,0-2.08-6.448c1.716-.156,2.964-.312,3.848-.364,1.924-.208,3.224-.312,3.8-.416.572-.052.676-.052,2.236-.26a45.9,45.9,0,0,1-3.432,7.488Zm-11.44,0a49.574,49.574,0,0,0-2.236-5.668q6.006-.312,6.084-.312a49.2,49.2,0,0,1,2.132,5.98ZM579.7,79.148a24.917,24.917,0,0,1-4.524.26H556.3a49.351,49.351,0,0,1-5.3-.26V84.5c.988-.1.988-.1,2.548-.208a40.611,40.611,0,0,0,8.372,9.516A59.864,59.864,0,0,1,543.348,98.8a24.415,24.415,0,0,1,2.86,5.564c8.32-1.612,14.612-3.744,20.54-7.072a39.878,39.878,0,0,0,7.176,3.536c4.16,1.612,7.332,2.392,14.092,3.432a21.864,21.864,0,0,1,2.7-5.772c-8.84-1.04-13.728-2.288-18.72-4.576a47.68,47.68,0,0,0,6.136-5.356c4.16-4.628,4.16-4.628,4.94-5.408Zm-5.044,5.1a31.979,31.979,0,0,1-7.8,6.812,23.855,23.855,0,0,1-7.124-6.812Zm52.884-9.308h.78c.624,0,.832,0,2.34.1,1.352.052,3.276.1,4.732.1,2.6,0,5.3-.052,7.072-.208.052,1.716.052,2.184.052,3.276,0,7.7-.936,11.336-3.64,14.612a21.425,21.425,0,0,1-7.956,5.668,20.483,20.483,0,0,1,5.044,4.888,33.823,33.823,0,0,0,5.668-3.952,19.489,19.489,0,0,0,5.928-10.088c.728-2.6,1.092-6.916,1.092-12.428,0-.936,0-1.4-.052-2.5a36.731,36.731,0,0,0,5.044-.884,25.337,25.337,0,0,1,2.912-.52l-.364-6.188A28.608,28.608,0,0,1,648.44,68.8c-.1-3.328-.208-5.3-.208-5.876-.1-2.34-.1-2.808-.1-3.328a11.344,11.344,0,0,1,.1-1.768l-6.6.1c.312,1.872.364,2.34.676,11.492-2.7.156-3.536.208-5.512.208a46.329,46.329,0,0,1-9.256-.676Zm-3.328,6.708a53.659,53.659,0,0,0-3.432,8.58c0-.832-.052-1.144-.1-1.976v-.936c-.052-2.548-.052-3.432-.052-4-.052-.832-.052-1.456-.052-1.612,0-.988.1-2.5.364-5.928a70.053,70.053,0,0,1,1.352-10.244,50.234,50.234,0,0,1,1.508-6.344l-6.864-.676a22.884,22.884,0,0,1-.364,3.848c-1.612,10.764-1.924,13.832-1.924,19.708a74.825,74.825,0,0,0,1.872,16.9,8.474,8.474,0,0,1,.364,1.976l6.032-.312c.1-3.744,2.5-10.4,5.928-16.692Zm98.54,12.844c-.728-.416-.988-.624-1.872-1.2-5.616-3.952-9.672-5.98-14.248-7.332-.052-1.248-.052-1.248-.208-6.292,2.028-.1,2.808-.156,3.536-.208,3.9-.364,6.24-.624,7.02-.728,1.2-.156,2.5-.312,3.38-.364l-.156-5.72a38.484,38.484,0,0,1-6.448,1.144c-4.784.52-4.784.52-7.384.676-.052-3.224-.052-3.848-.1-5.148,4.576-.26,6.6-.416,11.18-1.04a32.525,32.525,0,0,1,4.108-.468l-.26-5.772c-3.38.988-7.9,1.56-14.976,1.976a32.237,32.237,0,0,1,.364-6.344h-6.6c.208,1.3.208,1.352.26,6.552-1.3.052-3.068.1-3.9.1-5.98,0-11.336-.416-13.988-1.092l-.052,5.772h.832c.156,0,.572,0,1.144.052,3.484.26,10.192.52,12.74.52.78,0,1.612,0,3.276-.052.052,2.964.052,4.732.052,5.2-1.456.052-3.224.1-4.264.1a67.053,67.053,0,0,1-12.116-.884l-.1,5.616c.78,0,1.3,0,1.976.052,4.316.312,6.24.364,9.412.364,1.092,0,2.7-.052,5.2-.1.052,2.08.052,2.08.1,2.808v1.144a10.019,10.019,0,0,1,.052,1.248,27.167,27.167,0,0,0-3.484-.208c-8.736,0-13.884,3.328-13.884,9,0,5.148,4.368,8.112,11.96,8.112,3.8,0,6.6-.728,8.58-2.236s2.912-3.744,2.912-7.02v-.572a23.137,23.137,0,0,1,2.808,1.3,35.087,35.087,0,0,1,9.62,7.124Zm-21.944-4v1.248a6.592,6.592,0,0,1-.624,3.328c-.728,1.04-2.34,1.664-4.524,1.664-3.692,0-5.928-1.2-5.928-3.12,0-2.236,2.548-3.588,6.76-3.588A18.251,18.251,0,0,1,700.8,90.484ZM777.14,72.336v-3.38c4.108-.1,5.044-.1,6.292-.1,4.316,0,6.812.1,8.736.26l-.052-5.98c-1.924.208-5.98.312-15.028.364a40.881,40.881,0,0,1,.26-6.188l-6.552.052c.26,1.352.26,1.352.312,6.292-2.7.1-2.7.1-4.42.156-4.264.1-4.784.1-8.164.208-6.708.26-7.54.26-8.84.26a22.643,22.643,0,0,1-2.548-.1l.208,6.188c1.4-.208,1.4-.208,9.256-.78,2.288-.156,7.176-.312,14.612-.52,0,1.4,0,4.316.052,4.42a2.143,2.143,0,0,0,.052.624,8.69,8.69,0,0,0-5.408-1.56c-6.032,0-10.348,3.952-10.348,9.464a8.125,8.125,0,0,0,3.588,7.02A9.583,9.583,0,0,0,765.18,90.9c3.432,0,6.136-1.3,7.644-3.692-.416,2.912-2.5,5.564-6.032,7.592-2.444,1.456-4.576,2.184-8.84,3.016a17.066,17.066,0,0,1,3.692,5.876c4.836-1.664,7.228-2.756,9.412-4.264,5.044-3.484,7.748-8.372,7.748-14.04a15.824,15.824,0,0,0-1.664-7.332c0-.624-.052-1.04-.052-1.248Zm-5.98,8.58c0,2.7-2.132,4.68-5.1,4.68a4.1,4.1,0,0,1-4.42-4.108c0-2.288,2.184-4.16,4.836-4.16C769.34,77.328,771.16,78.732,771.16,80.916Z" transform="translate(180 452)"/>
    </g>
    <g id="蒙版组_29" data-name="蒙版组 29" transform="translate(0 6)" clip-path="url(#clip-path)">
      <g id="组_21645" data-name="组 21645" transform="translate(607.025 42)" opacity="0.05">
        <g id="组_21643" data-name="组 21643" transform="translate(511.697 290.751)">
          <path id="路径_38579" data-name="路径 38579" d="M1013.384-159.409,893.756-228.476a25.412,25.412,0,0,1-12.707-22.007V-388.618a25.414,25.414,0,0,1,12.707-22.008l119.628-69.067a25.414,25.414,0,0,1,25.412,0l119.628,69.067a25.414,25.414,0,0,1,12.706,22.008v138.135a25.412,25.412,0,0,1-12.706,22.007L1038.8-159.409A25.414,25.414,0,0,1,1013.384-159.409Z" transform="translate(-864.619 497.837)" fill="none" stroke="#000" stroke-miterlimit="10" stroke-width="3"/>
          <line id="直线_476" data-name="直线 476" y1="17.727" transform="translate(0 103.269)" fill="none" stroke="#000" stroke-miterlimit="10" stroke-width="3"/>
          <line id="直线_477" data-name="直线 477" y1="81.974" transform="translate(0 137.481)" fill="none" stroke="#000" stroke-miterlimit="10" stroke-width="3"/>
          <line id="直线_478" data-name="直线 478" x1="14.725" y1="8.501" transform="translate(16.86 280.988)" fill="none" stroke="#000" stroke-miterlimit="10" stroke-width="3"/>
          <line id="直线_479" data-name="直线 479" x1="72.444" y1="41.826" transform="translate(45.325 297.423)" fill="none" stroke="#000" stroke-miterlimit="10" stroke-width="3"/>
          <line id="直线_480" data-name="直线 480" x1="14.226" y2="8.214" transform="translate(179.284 346.787)" fill="none" stroke="#000" stroke-miterlimit="10" stroke-width="3"/>
          <line id="直线_481" data-name="直线 481" x1="71.959" y2="41.545" transform="translate(208.141 296.794)" fill="none" stroke="#000" stroke-miterlimit="10" stroke-width="3"/>
          <line id="直线_482" data-name="直线 482" y2="16.824" transform="translate(324.336 235.376)" fill="none" stroke="#000" stroke-miterlimit="10" stroke-width="3"/>
          <line id="直线_483" data-name="直线 483" y2="82.877" transform="translate(324.336 134.545)" fill="none" stroke="#000" stroke-miterlimit="10" stroke-width="3"/>
          <line id="直线_484" data-name="直线 484" x2="14.76" y2="8.522" transform="translate(292.842 65.816)" fill="none" stroke="#000" stroke-miterlimit="10" stroke-width="3"/>
          <line id="直线_485" data-name="直线 485" x2="72.021" y2="41.581" transform="translate(206.279 15.839)" fill="none" stroke="#000" stroke-miterlimit="10" stroke-width="3"/>
          <line id="直线_486" data-name="直线 486" y1="8.291" x2="14.36" transform="translate(131.131)" fill="none" stroke="#000" stroke-miterlimit="10" stroke-width="3" opacity="0.5"/>
          <line id="直线_487" data-name="直线 487" y1="41.224" x2="71.402" transform="translate(44.349 17.17)" fill="none" stroke="#000" stroke-miterlimit="10" stroke-width="3"/>
        </g>
        <path id="路径_38580" data-name="路径 38580" d="M1168.183-454.584l-61.941-35.762a25.41,25.41,0,0,1-12.705-22.007v-71.525a25.41,25.41,0,0,1,12.705-22.007l61.941-35.761a25.407,25.407,0,0,1,25.412,0l61.941,35.761a25.412,25.412,0,0,1,12.706,22.007v71.525a25.412,25.412,0,0,1-12.706,22.007l-61.941,35.762A25.413,25.413,0,0,1,1168.183-454.584Z" transform="translate(-277.502 731.103)" fill="none" stroke="#000" stroke-miterlimit="10" stroke-width="3"/>
        <path id="路径_38581" data-name="路径 38581" d="M1179.55-501.2l-11.514,6.647a25.756,25.756,0,0,1-2.492,1.263" transform="translate(-251.943 782.163)" fill="none" stroke="#000" stroke-miterlimit="10" stroke-width="3"/>
        <path id="路径_38582" data-name="路径 38582" d="M1245.692-539.016a25.417,25.417,0,0,1-11.963,15.9l-48.381,27.932" transform="translate(-244.914 768.74)" fill="none" stroke="#000" stroke-miterlimit="10" stroke-width="3"/>
        <line id="直线_488" data-name="直线 488" y2="15.751" transform="translate(1001.521 156.114)" fill="none" stroke="#000" stroke-miterlimit="10" stroke-width="3"/>
        <path id="路径_38583" data-name="路径 38583" d="M1190.822-638.194l40.964,23.652a25.408,25.408,0,0,1,12.705,22.007" transform="translate(-242.971 733.537)" fill="none" stroke="#000" stroke-miterlimit="10" stroke-width="3"/>
        <path id="路径_38584" data-name="路径 38584" d="M1141.4-645.793l9.8-5.66q.987-.569,2.009-1.043" transform="translate(-260.515 728.461)" fill="none" stroke="#000" stroke-miterlimit="10" stroke-width="3"/>
        <path id="路径_38585" data-name="路径 38585" d="M1086.423-598.847a25.41,25.41,0,0,1,11.563-14.468l49.078-28.336" transform="translate(-280.027 732.31)" fill="none" stroke="#000" stroke-miterlimit="10" stroke-width="3"/>
        <path id="路径_38587" data-name="路径 38587" d="M1006.642-454.15l51.553-92.369a25.409,25.409,0,0,1,21.82-13.025l32.868-.478" transform="translate(-308.344 761.284)" fill="none" stroke="#000" stroke-miterlimit="10" stroke-width="3"/>
        <path id="路径_38588" data-name="路径 38588" d="M1310-590l-11.883,26.319c-2.99,6.623-8.145,10.387-13.524,9.874l-4.273-.406" transform="translate(-190.893 750.645)" fill="none" stroke="#000" stroke-miterlimit="10" stroke-width="3"/>
        <path id="路径_38589" data-name="路径 38589" d="M1329.37-344.239l-16.242-26.171a25.411,25.411,0,0,0-22.4-12l-15.338.229" transform="translate(-212.954 824.322)" fill="none" stroke="#000" stroke-miterlimit="10" stroke-width="3"/>
        <path id="路径_38590" data-name="路径 38590" d="M1157.853-63.183,1110.43-90.564a25.412,25.412,0,0,1-12.707-22.007v-54.76a25.41,25.41,0,0,1,12.707-22.007l47.423-27.381a25.413,25.413,0,0,1,25.412,0l47.425,27.381a25.409,25.409,0,0,1,12.705,22.007v54.76a25.411,25.411,0,0,1-12.705,22.007l-47.425,27.381A25.413,25.413,0,0,1,1157.853-63.183Z" transform="translate(-276.016 881.929)" fill="none" stroke="#000" stroke-miterlimit="10" stroke-width="3"/>
        <path id="路径_38592" data-name="路径 38592" d="M1120.55-95.561l-16.971-9.8a25.416,25.416,0,0,1-12.705-22.008v-35.976" transform="translate(-278.447 902.082)" fill="none" stroke="#000" stroke-miterlimit="10" stroke-width="3"/>
        <path id="路径_38593" data-name="路径 38593" d="M1172.6-100.947l-10.7,6.18a25.448,25.448,0,0,1-3.979,1.859" transform="translate(-254.65 924.229)" fill="none" stroke="#000" stroke-miterlimit="10" stroke-width="3"/>
        <path id="路径_38594" data-name="路径 38594" d="M1223.06-151.51v19.943a25.414,25.414,0,0,1-12.707,22.008l-29.191,16.853" transform="translate(-246.4 906.282)" fill="none" stroke="#000" stroke-miterlimit="10" stroke-width="3"/>
        <path id="路径_38595" data-name="路径 38595" d="M1195.024-205.792l10.409,6.009a25.435,25.435,0,0,1,4.158,3" transform="translate(-241.48 887.015)" fill="none" stroke="#000" stroke-miterlimit="10" stroke-width="3"/>
        <path id="路径_38597" data-name="路径 38597" d="M562.612-422.758,511.14-452.474a25.411,25.411,0,0,1-12.705-22.007v-59.435a25.41,25.41,0,0,1,12.705-22.007l51.471-29.717a25.413,25.413,0,0,1,25.412,0l51.47,29.717A25.412,25.412,0,0,1,652.2-533.916v59.435a25.412,25.412,0,0,1-12.707,22.007l-51.47,29.717A25.414,25.414,0,0,1,562.612-422.758Z" transform="translate(-488.728 750.983)" fill="none" stroke="#000" stroke-miterlimit="10" stroke-width="3"/>
        <g id="组_21644" data-name="组 21644" transform="translate(0 150.731)">
          <path id="路径_38598" data-name="路径 38598" d="M491.271-537.949v-13.414a25.314,25.314,0,0,1,.369-4.313" transform="translate(-491.271 612.095)" fill="none" stroke="#000" stroke-miterlimit="10" stroke-width="3"/>
          <path id="路径_38599" data-name="路径 38599" d="M522.553-457.247l-18.576-10.724a25.413,25.413,0,0,1-12.705-22.007v-39.614" transform="translate(-491.271 621.353)" fill="none" stroke="#000" stroke-miterlimit="10" stroke-width="3"/>
          <line id="直线_489" data-name="直线 489" x1="12.539" y2="7.24" transform="translate(99.295 181.463)" fill="none" stroke="#000" stroke-miterlimit="10" stroke-width="3"/>
          <path id="路径_38600" data-name="路径 38600" d="M631.261-500.356a25.452,25.452,0,0,1-.365,4.288,25.419,25.419,0,0,1-12.342,17.719l-33.776,19.5" transform="translate(-458.081 631.731)" fill="none" stroke="#000" stroke-miterlimit="10" stroke-width="3"/>
          <path id="路径_38601" data-name="路径 38601" d="M601.06-573.727l11.715,6.764a25.517,25.517,0,0,1,3,2.033" transform="translate(-452.302 605.688)" fill="none" stroke="#000" stroke-miterlimit="10" stroke-width="3"/>
          <path id="路径_38602" data-name="路径 38602" d="M532.161-583.242l18.48-10.669a25.413,25.413,0,0,1,25.412,0l33.682,19.446" transform="translate(-476.757 597.316)" fill="none" stroke="#000" stroke-miterlimit="10" stroke-width="3"/>
        </g>
        <path id="路径_38603" data-name="路径 38603" d="M784.13-130.363,736.539-157.84a25.409,25.409,0,0,1-12.705-22.007V-234.8a25.411,25.411,0,0,1,12.705-22.007l47.591-27.477a25.414,25.414,0,0,1,25.412,0l47.591,27.477A25.411,25.411,0,0,1,869.839-234.8v54.954a25.409,25.409,0,0,1-12.705,22.007l-47.591,27.477A25.413,25.413,0,0,1,784.13-130.363Z" transform="translate(-408.725 857.947)" fill="none" stroke="#000" stroke-miterlimit="10" stroke-width="3"/>
        <path id="路径_38604" data-name="路径 38604" d="M856.246-197.36a25.408,25.408,0,0,1-10.913,12.629l-56.885,32.842a25.435,25.435,0,0,1-4.244,1.954" transform="translate(-387.297 890.008)" fill="none" stroke="#000" stroke-miterlimit="10" stroke-width="3"/>
        <path id="路径_38605" data-name="路径 38605" d="M821.241-273.667l10.946,6.321a25.412,25.412,0,0,1,12.707,22.007v56.569" transform="translate(-374.151 862.924)" fill="none" stroke="#000" stroke-miterlimit="10" stroke-width="3"/>
        <path id="路径_38606" data-name="路径 38606" d="M719.27-249.4a25.416,25.416,0,0,1,6.6-8.165,25.443,25.443,0,0,1,3.331-2.294l56.884-32.842a25.554,25.554,0,0,1,4.493-2.042" transform="translate(-410.345 855.441)" fill="none" stroke="#000" stroke-miterlimit="10" stroke-width="3"/>
        <path id="路径_38607" data-name="路径 38607" d="M740.3-161.8l-10.378-5.992A25.413,25.413,0,0,1,717.222-189.8v-55.3" transform="translate(-411.072 873.066)" fill="none" stroke="#000" stroke-miterlimit="10" stroke-width="3"/>
        <path id="路径_38608" data-name="路径 38608" d="M801.881-428.266l-69.77-40.283a25.409,25.409,0,0,1-12.705-22.007v-80.563a25.413,25.413,0,0,1,12.705-22.008l69.77-40.281a25.407,25.407,0,0,1,25.412,0l69.771,40.281a25.413,25.413,0,0,1,12.705,22.008v80.563a25.409,25.409,0,0,1-12.705,22.007l-69.771,40.283A25.414,25.414,0,0,1,801.881-428.266Z" transform="translate(-410.296 734.028)" fill="none" stroke="#000" stroke-miterlimit="10" stroke-width="3"/>
        <line id="直线_490" data-name="直线 490" y1="16.767" transform="translate(297.366 214.546)" fill="none" stroke="#000" stroke-miterlimit="10" stroke-width="3"/>
        <path id="路径_38609" data-name="路径 38609" d="M769.423-475.312l-45.979-26.546a25.411,25.411,0,0,1-12.705-22.007" transform="translate(-413.373 774.118)" fill="none" stroke="#000" stroke-miterlimit="10" stroke-width="3"/>
        <line id="直线_491" data-name="直线 491" x1="13.364" y2="7.715" transform="translate(416.997 311.606)" fill="none" stroke="#000" stroke-miterlimit="10" stroke-width="3"/>
        <line id="直线_492" data-name="直线 492" y2="16.429" transform="translate(511.217 174.914)" fill="none" stroke="#000" stroke-miterlimit="10" stroke-width="3"/>
        <path id="路径_38611" data-name="路径 38611" d="M825.669-628.929,871.091-602.7A25.412,25.412,0,0,1,883.8-580.7v2.356" transform="translate(-372.579 736.826)" fill="none" stroke="#000" stroke-miterlimit="10" stroke-width="3"/>
        <line id="直线_493" data-name="直线 493" y1="7.232" x2="12.526" transform="translate(379.059 87.059)" fill="none" stroke="#000" stroke-miterlimit="10" stroke-width="3"/>
        <path id="路径_38612" data-name="路径 38612" d="M711.649-587.054a25.4,25.4,0,0,1,11.472-14.186l55.105-31.815" transform="translate(-413.05 735.361)" fill="none" stroke="#000" stroke-miterlimit="10" stroke-width="3"/>
        <path id="路径_38613" data-name="路径 38613" d="M1372.351-532.955l-51.737-29.87a25.411,25.411,0,0,1-12.705-22.007v-59.741a25.412,25.412,0,0,1,12.705-22.008l51.737-29.87a25.413,25.413,0,0,1,25.412,0l51.737,29.87a25.412,25.412,0,0,1,12.705,22.008v59.741a25.41,25.41,0,0,1-12.705,22.007l-51.737,29.87A25.407,25.407,0,0,1,1372.351-532.955Z" transform="translate(-201.412 711.652)" fill="none" stroke="#000" stroke-miterlimit="10" stroke-width="3"/>
        <path id="路径_38614" data-name="路径 38614" d="M1329.118-684.711l35.413-20.446a25.418,25.418,0,0,1,22.385-1.489" transform="translate(-193.884 708.561)" fill="none" stroke="#000" stroke-miterlimit="10" stroke-width="3"/>
        <path id="路径_38615" data-name="路径 38615" d="M1300.6-602.032v-61.074q0-1.079.091-2.145" transform="translate(-204.005 723.934)" fill="none" stroke="#000" stroke-miterlimit="10" stroke-width="3"/>
        <path id="路径_38616" data-name="路径 38616" d="M1349.115-569.714l-35.888-20.721a25.411,25.411,0,0,1-12.388-18" transform="translate(-203.922 744.102)" fill="none" stroke="#000" stroke-miterlimit="10" stroke-width="3"/>
        <path id="路径_38617" data-name="路径 38617" d="M1427.84-591.61,1374.8-560.988a25.447,25.447,0,0,1-3.027,1.489" transform="translate(-178.743 750.072)" fill="none" stroke="#000" stroke-miterlimit="10" stroke-width="3"/>
        <path id="路径_38618" data-name="路径 38618" d="M1431.988-641.676v41.035a25.409,25.409,0,0,1-12.705,22.007" transform="translate(-161.881 732.302)" fill="none" stroke="#000" stroke-miterlimit="10" stroke-width="3"/>
        <path id="路径_38619" data-name="路径 38619" d="M1380.022-702.577l53.2,30.713a25.521,25.521,0,0,1,2.8,1.876" transform="translate(-175.816 710.685)" fill="none" stroke="#000" stroke-miterlimit="10" stroke-width="3"/>
        <path id="路径_38620" data-name="路径 38620" d="M1367.019-184.949,1305.1-220.7a25.41,25.41,0,0,1-12.707-22.007v-71.5a25.412,25.412,0,0,1,12.707-22.007l61.921-35.75a25.414,25.414,0,0,1,25.412,0l61.921,35.75a25.412,25.412,0,0,1,12.707,22.007v71.5a25.41,25.41,0,0,1-12.707,22.007l-61.921,35.75A25.407,25.407,0,0,1,1367.019-184.949Z" transform="translate(-206.92 826.826)" fill="none" stroke="#000" stroke-miterlimit="10" stroke-width="3"/>
        <path id="路径_38623" data-name="路径 38623" d="M1437.682-300.676v36.05a25.415,25.415,0,0,1-12.705,22.007l-21.469,12.395" transform="translate(-167.48 853.337)" fill="none" stroke="#000" stroke-miterlimit="10" stroke-width="3"/>
        <path id="路径_38624" data-name="路径 38624" d="M1393.159-366.481l35.49,20.489a25.558,25.558,0,0,1,2.438,1.6" transform="translate(-171.153 829.98)" fill="none" stroke="#000" stroke-miterlimit="10" stroke-width="3"/>
        <path id="路径_38625" data-name="路径 38625" d="M1324.258-362.629l31.8-18.361a25.413,25.413,0,0,1,25.412,0l21.491,12.407" transform="translate(-195.609 823.622)" fill="none" stroke="#000" stroke-miterlimit="10" stroke-width="3"/>
        <path id="路径_38626" data-name="路径 38626" d="M611.92-521.478h56.542a13.1,13.1,0,0,0,13.1-13.1v-24.163A16.936,16.936,0,0,1,698.5-575.676h59.061" transform="translate(-448.448 755.728)" fill="none" stroke="#000" stroke-miterlimit="10" stroke-width="3"/>
        <line id="直线_495" data-name="直线 495" x2="69.102" transform="translate(838.319 443.362)" fill="none" stroke="#000" stroke-miterlimit="10" stroke-width="3"/>
        <line id="直线_496" data-name="直线 496" x2="76.046" transform="translate(924.302 443.193)" fill="none" stroke="#000" stroke-miterlimit="10" stroke-width="3"/>
        <path id="路径_38628" data-name="路径 38628" d="M43.311,63.448" transform="translate(508.511 308.169)" fill="none" stroke="#000" stroke-width="3"/>
        <line id="直线_499" data-name="直线 499" y2="15.356" transform="translate(806.397 193.262)" fill="none" stroke="#000" stroke-miterlimit="10" stroke-width="3"/>
        <line id="直线_501" data-name="直线 501" x2="38.656" y2="59.054" transform="translate(729.206 623.681)" fill="none" stroke="#000" stroke-miterlimit="10" stroke-width="3"/>
        <line id="直线_502" data-name="直线 502" x1="42.491" y2="63.049" transform="translate(540.853 603.371)" fill="none" stroke="#000" stroke-miterlimit="10" stroke-width="3"/>
        <path id="路径_38627" data-name="路径 38627" d="M831.02-202.357h57.422s8.581.595,13.1-4.486" transform="translate(-370.68 886.642)" fill="none" stroke="#000" stroke-miterlimit="10" stroke-width="3"/>
      </g>
    </g>
  </g>
</svg>
