<svg xmlns="http://www.w3.org/2000/svg" xmlns:xlink="http://www.w3.org/1999/xlink" width="1820" height="880" viewBox="0 0 1820 880">
  <defs>
    <clipPath id="clip-path">
      <rect id="矩形_2278" data-name="矩形 2278" width="1820" height="880" transform="translate(50 82)" fill="#fff"/>
    </clipPath>
  </defs>
  <g id="帮助中心_韩文" transform="translate(-50 -88)">
    <g id="组_21710" data-name="组 21710" transform="translate(0 34)">
      <text id="OUR_MISSION" data-name="OUR MISSION" transform="translate(180 366)" font-size="12" font-family="HiraginoSansGB-W6, Hiragino Sans GB" letter-spacing="1.6em"><tspan x="0" y="0">OUR MISSION</tspan></text>
      <path id="路径_40307" data-name="路径 40307" d="M3.275,85.07V79.662H22.826V76.488h-12.7v-19.7h31.84v5.1H16.58v2.387H41.031v4.773H16.58V71.41h25.9v5.078h-13.3v3.174H48.725V85.07ZM26,104.418q-8.125,0-12.378-2.26T9.369,95.684q0-4.139,4.266-6.386T26,87.051q8.1,0,12.365,2.247t4.266,6.386q0,4.215-4.253,6.475T26,104.418Zm0-12.111a28.3,28.3,0,0,0-7.566.762q-2.564.762-2.564,2.615,0,3.529,10.131,3.529t10.131-3.529q0-1.854-2.564-2.615A28.3,28.3,0,0,0,26,92.307Zm96.835,12.264V81.541h-3.605v21.531h-6.018V56.531h6.018V76.184h3.605V55.592h6.221V104.57ZM86.272,68.084V62.777h9.191V56.734h6.348v6.043h8.938v5.307ZM98.688,93.4a10.633,10.633,0,0,1-8-3.174,11.537,11.537,0,0,1-3.072-8.379A11.486,11.486,0,0,1,90.652,73.5a10.671,10.671,0,0,1,8.036-3.136,10.511,10.511,0,0,1,7.947,3.148,11.524,11.524,0,0,1,3.021,8.328,11.677,11.677,0,0,1-3.009,8.379A10.458,10.458,0,0,1,98.688,93.4Zm0-17.52A4.33,4.33,0,0,0,95.1,77.491a6.8,6.8,0,0,0-1.282,4.354,6.982,6.982,0,0,0,1.308,4.418,4.608,4.608,0,0,0,7.109,0,6.982,6.982,0,0,0,1.308-4.418,6.815,6.815,0,0,0-1.282-4.342A4.289,4.289,0,0,0,98.688,75.879ZM209.132,73.01v9.623H202.81V55.592h6.322V67.652h7.439V73.01Zm-37.273,6.246V57.725h22.928V79.256ZM188.49,63.031H178.207V73.949H188.49Zm20.973,41.031a28.086,28.086,0,0,1-9.2-3.364,26.474,26.474,0,0,1-7.4-5.853,24.969,24.969,0,0,1-7.338,5.688,31.994,31.994,0,0,1-9.395,3.529l-3.91-5.307a27.552,27.552,0,0,0,10.22-2.971,14.332,14.332,0,0,0,6.335-5.764h-13V84.715h34v5.307h-12.9a15.06,15.06,0,0,0,6.386,5.84,26.7,26.7,0,0,0,10.093,2.895ZM293.7,75.447a35.525,35.525,0,0,1-10.232-2.4q-5.408-2.069-7.82-4.558-2.336,2.438-7.808,4.558a36.852,36.852,0,0,1-10.55,2.5l-3.326-5.027a32.768,32.768,0,0,0,10.6-1.625q4.938-1.65,6.919-4.316H257.877V59.375h14.549V55.008h6.4v4.367h14.5V64.58H279.764q2.031,2.615,6.906,4.253a31.678,31.678,0,0,0,10.156,1.638Zm-34.125,28.082V86.848h12.8V83.09h-19.5V77.682h45.449V83.09H278.774v3.758h12.848v16.682Zm25.7-11.324H265.926v6.018h19.348Zm51.157-27.193v-5.1h11.807v-5h6.4v5h11.807v5.1Zm27.98,16.529V76.387h7.033V72.654h-7.033V67.5h7.033V55.592h6.348V85.756h-6.348V81.541Zm-13.406,2.92q-5.814,0-9.014-2.412a8.042,8.042,0,0,1,.025-12.86q3.225-2.425,9.039-2.425t9.039,2.425a8,8,0,0,1-.051,12.873Q356.769,84.461,351.005,84.461Zm.051-12.594q-6.145,0-6.145,3.732,0,3.809,6.145,3.809,6.2,0,6.2-3.809Q357.251,71.867,351.056,71.867Zm10.816,32.652q-7.871,0-12.264-2.59T345.216,95q0-4.316,4.443-6.932t12.213-2.615q7.719,0,12.149,2.641T378.452,95q0,4.291-4.367,6.906T361.872,104.52Zm0-13.838a18.7,18.7,0,0,0-7.6,1.193q-2.552,1.193-2.552,3.123,0,2.006,2.6,3.161a25.239,25.239,0,0,0,15.057.013q2.577-1.143,2.577-3.174,0-1.955-2.539-3.136A18.618,18.618,0,0,0,361.872,90.682Zm57.4,7.186V92.561h19.5V82.836H426.512V59.908h30.977v5.307H432.91V77.529h25.314v5.307H445.174v9.725h19.551v5.307ZM525.2,75.041q-7.922,0-12.226-2.5t-4.3-6.868q0-4.393,4.291-6.843t12.238-2.45q7.947,0,12.238,2.45t4.291,6.843q0,4.367-4.3,6.868T525.2,75.041Zm0-13.787a18.469,18.469,0,0,0-7.478,1.181q-2.552,1.181-2.552,3.237,0,2.082,2.615,3.25A18.725,18.725,0,0,0,525.2,70.09q10.029,0,10.029-4.418,0-2.057-2.526-3.237A18.441,18.441,0,0,0,525.2,61.254Zm-16.021,42.275V86.365h12.8V82.938h-19.5V77.58h45.449v5.357H528.374v3.428h12.848v17.164Zm25.7-11.807H515.526v6.5h19.348ZM608.4,72.908q-7.795,0-12.162-2.349t-4.367-6.284q0-3.986,4.393-6.31T608.4,55.643q7.795,0,12.162,2.3t4.367,6.335q0,3.961-4.342,6.3T608.4,72.908Zm0-12.416a19.975,19.975,0,0,0-7.528,1.079q-2.5,1.079-2.5,2.7,0,1.7,2.539,2.755a27.149,27.149,0,0,0,14.98,0q2.539-1.054,2.539-2.755,0-1.625-2.5-2.7A19.975,19.975,0,0,0,608.4,60.492ZM585.675,80.6v-5h45.449v5Zm6.652,23.182V91.57h25.746V88.6H592.328V83.623h32.094V95.988H598.675v2.818h26.939v4.977Zm116-30.469V83.369H702.01V55.592h6.322V67.957h7.49v5.357Zm-37.324,6.5v-22.5h6.348v6.322h10.715V57.318h6.3v22.5ZM688.071,69H677.356v5.51h10.715ZM677.61,103.529V85.375h30.723v5.408H683.957v7.389H709.17v5.357Zm109.2,1.041V55.592h6.246V104.57Zm-7.49-44.662a36.061,36.061,0,0,1-5.929,19.36A43.98,43.98,0,0,1,757.23,93.855l-4.9-4.621a32.8,32.8,0,0,0,13.229-9.5,29.227,29.227,0,0,0,7.008-14.473H755.3V59.908Z" transform="translate(180 478)"/>
      <path id="路径_40313" data-name="路径 40313" d="M10.131-20.846V-42.859H41.869V-37.5H16.529v3.123H40.676v5.154H16.529v3.072H42.58v5.307ZM14.295,4.57V-11.705H3.275v-5.357H48.725v5.357H37.705V4.57H31.357V-11.705H20.643V4.57ZM86.475-1.98V-7.287h19.5v-8h-12.8V-40.092h32.246v5.256H99.577v4.418h24.451v5.256H99.577v4.621h26.635v5.256H112.374v8h19.551V-1.98ZM204.359,4.57V-44.408h6.3V4.57ZM200.4-7.338a64.577,64.577,0,0,1-8.366.863q-3.9.127-19.487.127V-27.041h17.418v-8.227H172.646v-5.357h23.613v18.891H178.816v10.08q16.783.152,20.77-.838Zm79.417-21.937A10.5,10.5,0,0,1,275.46-22.7a14.073,14.073,0,0,1-8.29,2.412,13.215,13.215,0,0,1-9.255-3.225,10.776,10.776,0,0,1-3.542-8.354,10.856,10.856,0,0,1,3.555-8.417,13.194,13.194,0,0,1,9.242-3.237,14.025,14.025,0,0,1,8.2,2.361,10.644,10.644,0,0,1,4.393,6.475h8.785v-9.725H294.8V-19.6h-6.246v-9.674ZM267.17-38.213a6.62,6.62,0,0,0-4.85,1.676,6.261,6.261,0,0,0-1.7,4.672,6.233,6.233,0,0,0,1.765,4.608,6.467,6.467,0,0,0,4.786,1.765,6.53,6.53,0,0,0,4.773-1.739,6.189,6.189,0,0,0,1.777-4.634,6.186,6.186,0,0,0-1.777-4.57A6.451,6.451,0,0,0,267.17-38.213Zm-4.062,42V-9.471h25.441v-2.844H263.108v-5.357H294.8v13.1H269.4v3.021h26.635V3.783ZM358.8-27.092q-7.795,0-12.162-2.349t-4.367-6.284q0-3.986,4.393-6.31T358.8-44.357q7.795,0,12.162,2.3t4.367,6.335q0,3.961-4.342,6.3T358.8-27.092Zm0-12.416a19.975,19.975,0,0,0-7.528,1.079q-2.5,1.079-2.5,2.7,0,1.7,2.539,2.755a20.462,20.462,0,0,0,7.49,1.054,20.463,20.463,0,0,0,7.49-1.054q2.539-1.054,2.539-2.755,0-1.625-2.5-2.7A19.976,19.976,0,0,0,358.8-39.508ZM336.075-19.4v-5h45.449v5Zm6.652,23.182V-8.43h25.746V-11.4H342.728v-4.977h32.094V-4.012H349.075v2.818h26.939V3.783Zm95.36-12.935H430.5V-1.56h4.316c-.052,3.224-.78,4.16-3.9,5.044l1.82,2.756c4.212-1.664,5.356-3.328,5.356-7.8Z" transform="translate(180 478)" fill="#0080f4"/>
    </g>
    <g id="蒙版组_29" data-name="蒙版组 29" transform="translate(0 6)" clip-path="url(#clip-path)">
      <g id="组_21645" data-name="组 21645" transform="translate(607.025 42)" opacity="0.05">
        <g id="组_21643" data-name="组 21643" transform="translate(511.697 290.751)">
          <path id="路径_38579" data-name="路径 38579" d="M1013.38-159.409,893.756-228.476a25.412,25.412,0,0,1-12.707-22.007V-388.618a25.414,25.414,0,0,1,12.706-22.007l119.629-69.068a25.414,25.414,0,0,1,25.412,0l119.628,69.067a25.414,25.414,0,0,1,12.706,22.008v138.135a25.412,25.412,0,0,1-12.706,22.007L1038.8-159.409A25.414,25.414,0,0,1,1013.38-159.409Z" transform="translate(-864.619 497.837)" fill="none" stroke="#000" stroke-miterlimit="10" stroke-width="3"/>
          <line id="直线_476" data-name="直线 476" y1="17.727" transform="translate(0 103.269)" fill="none" stroke="#000" stroke-miterlimit="10" stroke-width="3"/>
          <line id="直线_477" data-name="直线 477" y1="81.974" transform="translate(0 137.481)" fill="none" stroke="#000" stroke-miterlimit="10" stroke-width="3"/>
          <line id="直线_478" data-name="直线 478" x1="14.725" y1="8.501" transform="translate(16.86 280.988)" fill="none" stroke="#000" stroke-miterlimit="10" stroke-width="3"/>
          <line id="直线_479" data-name="直线 479" x1="72.444" y1="41.826" transform="translate(45.325 297.423)" fill="none" stroke="#000" stroke-miterlimit="10" stroke-width="3"/>
          <line id="直线_480" data-name="直线 480" x1="14.226" y2="8.214" transform="translate(179.284 346.787)" fill="none" stroke="#000" stroke-miterlimit="10" stroke-width="3"/>
          <line id="直线_481" data-name="直线 481" x1="71.959" y2="41.545" transform="translate(208.141 296.794)" fill="none" stroke="#000" stroke-miterlimit="10" stroke-width="3"/>
          <line id="直线_482" data-name="直线 482" y2="16.824" transform="translate(324.336 235.376)" fill="none" stroke="#000" stroke-miterlimit="10" stroke-width="3"/>
          <line id="直线_483" data-name="直线 483" y2="82.877" transform="translate(324.336 134.545)" fill="none" stroke="#000" stroke-miterlimit="10" stroke-width="3"/>
          <line id="直线_484" data-name="直线 484" x2="14.76" y2="8.522" transform="translate(292.842 65.816)" fill="none" stroke="#000" stroke-miterlimit="10" stroke-width="3"/>
          <line id="直线_485" data-name="直线 485" x2="72.021" y2="41.581" transform="translate(206.279 15.839)" fill="none" stroke="#000" stroke-miterlimit="10" stroke-width="3"/>
          <line id="直线_486" data-name="直线 486" y1="8.291" x2="14.36" transform="translate(131.131)" fill="none" stroke="#000" stroke-miterlimit="10" stroke-width="3" opacity="0.5"/>
          <line id="直线_487" data-name="直线 487" y1="41.224" x2="71.402" transform="translate(44.349 17.17)" fill="none" stroke="#000" stroke-miterlimit="10" stroke-width="3"/>
        </g>
        <path id="路径_38580" data-name="路径 38580" d="M1168.18-454.584l-61.941-35.762a25.41,25.41,0,0,1-12.705-22.007v-71.525a25.41,25.41,0,0,1,12.706-22.008l61.94-35.76a25.407,25.407,0,0,1,25.412,0l61.941,35.761a25.412,25.412,0,0,1,12.706,22.007v71.525a25.412,25.412,0,0,1-12.706,22.007l-61.941,35.762a25.413,25.413,0,0,1-25.412,0Z" transform="translate(-277.502 731.103)" fill="none" stroke="#000" stroke-miterlimit="10" stroke-width="3"/>
        <path id="路径_38581" data-name="路径 38581" d="M1179.55-501.2l-11.514,6.647a25.793,25.793,0,0,1-2.492,1.263" transform="translate(-251.943 782.163)" fill="none" stroke="#000" stroke-miterlimit="10" stroke-width="3"/>
        <path id="路径_38582" data-name="路径 38582" d="M1245.69-539.016a25.417,25.417,0,0,1-11.963,15.9l-48.381,27.932" transform="translate(-244.914 768.74)" fill="none" stroke="#000" stroke-miterlimit="10" stroke-width="3"/>
        <line id="直线_488" data-name="直线 488" y2="15.751" transform="translate(1001.521 156.114)" fill="none" stroke="#000" stroke-miterlimit="10" stroke-width="3"/>
        <path id="路径_38583" data-name="路径 38583" d="M1190.82-638.194l40.964,23.652a25.408,25.408,0,0,1,12.7,22.007" transform="translate(-242.971 733.537)" fill="none" stroke="#000" stroke-miterlimit="10" stroke-width="3"/>
        <path id="路径_38584" data-name="路径 38584" d="M1141.4-645.793l9.8-5.66q.987-.569,2.009-1.043" transform="translate(-260.515 728.461)" fill="none" stroke="#000" stroke-miterlimit="10" stroke-width="3"/>
        <path id="路径_38585" data-name="路径 38585" d="M1086.42-598.847a25.41,25.41,0,0,1,11.563-14.468l49.078-28.336" transform="translate(-280.027 732.31)" fill="none" stroke="#000" stroke-miterlimit="10" stroke-width="3"/>
        <path id="路径_38587" data-name="路径 38587" d="M1006.64-454.15l51.553-92.369a25.409,25.409,0,0,1,21.82-13.025l32.868-.478" transform="translate(-308.344 761.284)" fill="none" stroke="#000" stroke-miterlimit="10" stroke-width="3"/>
        <path id="路径_38588" data-name="路径 38588" d="M1310-590l-11.883,26.319c-2.99,6.623-8.145,10.387-13.524,9.874l-4.273-.406" transform="translate(-190.893 750.645)" fill="none" stroke="#000" stroke-miterlimit="10" stroke-width="3"/>
        <path id="路径_38589" data-name="路径 38589" d="M1329.37-344.239l-16.242-26.171a25.411,25.411,0,0,0-22.4-12l-15.338.229" transform="translate(-212.954 824.322)" fill="none" stroke="#000" stroke-miterlimit="10" stroke-width="3"/>
        <path id="路径_38590" data-name="路径 38590" d="M1157.85-63.183l-47.42-27.381a25.412,25.412,0,0,1-12.707-22.007v-54.76a25.41,25.41,0,0,1,12.707-22.007l47.423-27.381a25.413,25.413,0,0,1,25.412,0l47.425,27.381a25.409,25.409,0,0,1,12.7,22.007v54.76a25.411,25.411,0,0,1-12.706,22.007l-47.424,27.381a25.413,25.413,0,0,1-25.415,0Z" transform="translate(-276.016 881.929)" fill="none" stroke="#000" stroke-miterlimit="10" stroke-width="3"/>
        <path id="路径_38592" data-name="路径 38592" d="M1120.55-95.561l-16.971-9.8a25.416,25.416,0,0,1-12.7-22.008v-35.976" transform="translate(-278.447 902.082)" fill="none" stroke="#000" stroke-miterlimit="10" stroke-width="3"/>
        <path id="路径_38593" data-name="路径 38593" d="M1172.6-100.947l-10.7,6.18a25.444,25.444,0,0,1-3.979,1.859" transform="translate(-254.65 924.229)" fill="none" stroke="#000" stroke-miterlimit="10" stroke-width="3"/>
        <path id="路径_38594" data-name="路径 38594" d="M1223.06-151.51v19.943a25.414,25.414,0,0,1-12.706,22.007l-29.192,16.854" transform="translate(-246.4 906.282)" fill="none" stroke="#000" stroke-miterlimit="10" stroke-width="3"/>
        <path id="路径_38595" data-name="路径 38595" d="M1195.02-205.792l10.409,6.009a25.428,25.428,0,0,1,4.158,3" transform="translate(-241.48 887.015)" fill="none" stroke="#000" stroke-miterlimit="10" stroke-width="3"/>
        <path id="路径_38597" data-name="路径 38597" d="M562.612-422.758,511.14-452.474a25.411,25.411,0,0,1-12.705-22.007v-59.435a25.41,25.41,0,0,1,12.706-22.008l51.47-29.716a25.413,25.413,0,0,1,25.412,0l51.47,29.717A25.412,25.412,0,0,1,652.2-533.916v59.435a25.412,25.412,0,0,1-12.706,22.007l-51.471,29.717a25.414,25.414,0,0,1-25.411,0Z" transform="translate(-488.728 750.983)" fill="none" stroke="#000" stroke-miterlimit="10" stroke-width="3"/>
        <g id="组_21644" data-name="组 21644" transform="translate(0 150.731)">
          <path id="路径_38598" data-name="路径 38598" d="M491.271-537.949v-13.414a25.313,25.313,0,0,1,.369-4.313" transform="translate(-491.271 612.095)" fill="none" stroke="#000" stroke-miterlimit="10" stroke-width="3"/>
          <path id="路径_38599" data-name="路径 38599" d="M522.553-457.247l-18.576-10.724a25.413,25.413,0,0,1-12.7-22.007v-39.614" transform="translate(-491.271 621.353)" fill="none" stroke="#000" stroke-miterlimit="10" stroke-width="3"/>
          <line id="直线_489" data-name="直线 489" x1="12.539" y2="7.24" transform="translate(99.295 181.463)" fill="none" stroke="#000" stroke-miterlimit="10" stroke-width="3"/>
          <path id="路径_38600" data-name="路径 38600" d="M631.261-500.356a25.45,25.45,0,0,1-.365,4.288,25.419,25.419,0,0,1-12.342,17.719l-33.776,19.5" transform="translate(-458.081 631.731)" fill="none" stroke="#000" stroke-miterlimit="10" stroke-width="3"/>
          <path id="路径_38601" data-name="路径 38601" d="M601.06-573.727l11.715,6.764a25.509,25.509,0,0,1,3,2.033" transform="translate(-452.302 605.688)" fill="none" stroke="#000" stroke-miterlimit="10" stroke-width="3"/>
          <path id="路径_38602" data-name="路径 38602" d="M532.161-583.242l18.48-10.669a25.413,25.413,0,0,1,25.412,0l33.682,19.446" transform="translate(-476.757 597.316)" fill="none" stroke="#000" stroke-miterlimit="10" stroke-width="3"/>
        </g>
        <path id="路径_38603" data-name="路径 38603" d="M784.13-130.363,736.539-157.84a25.409,25.409,0,0,1-12.7-22.007V-234.8a25.411,25.411,0,0,1,12.706-22.007l47.59-27.477a25.414,25.414,0,0,1,25.412,0l47.591,27.477A25.411,25.411,0,0,1,869.839-234.8v54.954a25.41,25.41,0,0,1-12.707,22.008l-47.589,27.476a25.413,25.413,0,0,1-25.413,0Z" transform="translate(-408.725 857.947)" fill="none" stroke="#000" stroke-miterlimit="10" stroke-width="3"/>
        <path id="路径_38604" data-name="路径 38604" d="M856.246-197.36a25.408,25.408,0,0,1-10.913,12.629l-56.885,32.842a25.435,25.435,0,0,1-4.244,1.954" transform="translate(-387.297 890.008)" fill="none" stroke="#000" stroke-miterlimit="10" stroke-width="3"/>
        <path id="路径_38605" data-name="路径 38605" d="M821.241-273.667l10.946,6.321a25.412,25.412,0,0,1,12.707,22.007v56.569" transform="translate(-374.151 862.924)" fill="none" stroke="#000" stroke-miterlimit="10" stroke-width="3"/>
        <path id="路径_38606" data-name="路径 38606" d="M719.27-249.4a25.417,25.417,0,0,1,6.6-8.165,25.452,25.452,0,0,1,3.331-2.294L786.085-292.7a25.55,25.55,0,0,1,4.493-2.042" transform="translate(-410.345 855.441)" fill="none" stroke="#000" stroke-miterlimit="10" stroke-width="3"/>
        <path id="路径_38607" data-name="路径 38607" d="M740.3-161.8l-10.378-5.992a25.413,25.413,0,0,1-12.7-22.008v-55.3" transform="translate(-411.072 873.066)" fill="none" stroke="#000" stroke-miterlimit="10" stroke-width="3"/>
        <path id="路径_38608" data-name="路径 38608" d="M801.881-428.266l-69.77-40.283a25.409,25.409,0,0,1-12.7-22.007v-80.563a25.413,25.413,0,0,1,12.706-22.008l69.77-40.281a25.407,25.407,0,0,1,25.412,0l69.771,40.281a25.413,25.413,0,0,1,12.705,22.008v80.563a25.41,25.41,0,0,1-12.707,22.008l-69.769,40.282a25.414,25.414,0,0,1-25.412,0Z" transform="translate(-410.296 734.028)" fill="none" stroke="#000" stroke-miterlimit="10" stroke-width="3"/>
        <line id="直线_490" data-name="直线 490" y1="16.767" transform="translate(297.366 214.546)" fill="none" stroke="#000" stroke-miterlimit="10" stroke-width="3"/>
        <path id="路径_38609" data-name="路径 38609" d="M769.423-475.312l-45.979-26.546a25.411,25.411,0,0,1-12.705-22.007" transform="translate(-413.373 774.118)" fill="none" stroke="#000" stroke-miterlimit="10" stroke-width="3"/>
        <line id="直线_491" data-name="直线 491" x1="13.364" y2="7.715" transform="translate(416.997 311.606)" fill="none" stroke="#000" stroke-miterlimit="10" stroke-width="3"/>
        <line id="直线_492" data-name="直线 492" y2="16.429" transform="translate(511.217 174.914)" fill="none" stroke="#000" stroke-miterlimit="10" stroke-width="3"/>
        <path id="路径_38611" data-name="路径 38611" d="M825.669-628.929,871.091-602.7a25.412,25.412,0,0,1,12.709,22v2.356" transform="translate(-372.579 736.826)" fill="none" stroke="#000" stroke-miterlimit="10" stroke-width="3"/>
        <line id="直线_493" data-name="直线 493" y1="7.232" x2="12.526" transform="translate(379.059 87.059)" fill="none" stroke="#000" stroke-miterlimit="10" stroke-width="3"/>
        <path id="路径_38612" data-name="路径 38612" d="M711.649-587.054a25.4,25.4,0,0,1,11.472-14.186l55.1-31.815" transform="translate(-413.05 735.361)" fill="none" stroke="#000" stroke-miterlimit="10" stroke-width="3"/>
        <path id="路径_38613" data-name="路径 38613" d="M1372.35-532.955l-51.737-29.87a25.411,25.411,0,0,1-12.7-22.007v-59.741a25.413,25.413,0,0,1,12.706-22.009l51.736-29.869a25.413,25.413,0,0,1,25.412,0l51.737,29.87a25.412,25.412,0,0,1,12.7,22.008v59.741a25.41,25.41,0,0,1-12.706,22.008l-51.736,29.869A25.407,25.407,0,0,1,1372.35-532.955Z" transform="translate(-201.412 711.652)" fill="none" stroke="#000" stroke-miterlimit="10" stroke-width="3"/>
        <path id="路径_38614" data-name="路径 38614" d="M1329.12-684.711l35.413-20.446a25.418,25.418,0,0,1,22.385-1.489" transform="translate(-193.884 708.561)" fill="none" stroke="#000" stroke-miterlimit="10" stroke-width="3"/>
        <path id="路径_38615" data-name="路径 38615" d="M1300.6-602.032v-61.074q0-1.079.091-2.145" transform="translate(-204.005 723.934)" fill="none" stroke="#000" stroke-miterlimit="10" stroke-width="3"/>
        <path id="路径_38616" data-name="路径 38616" d="M1349.11-569.714l-35.888-20.721a25.411,25.411,0,0,1-12.388-18" transform="translate(-203.922 744.102)" fill="none" stroke="#000" stroke-miterlimit="10" stroke-width="3"/>
        <path id="路径_38617" data-name="路径 38617" d="M1427.84-591.61l-53.04,30.622a25.471,25.471,0,0,1-3.027,1.489" transform="translate(-178.743 750.072)" fill="none" stroke="#000" stroke-miterlimit="10" stroke-width="3"/>
        <path id="路径_38618" data-name="路径 38618" d="M1431.99-641.676v41.035a25.409,25.409,0,0,1-12.707,22.008" transform="translate(-161.881 732.302)" fill="none" stroke="#000" stroke-miterlimit="10" stroke-width="3"/>
        <path id="路径_38619" data-name="路径 38619" d="M1380.02-702.577l53.2,30.713a25.5,25.5,0,0,1,2.8,1.876" transform="translate(-175.816 710.685)" fill="none" stroke="#000" stroke-miterlimit="10" stroke-width="3"/>
        <path id="路径_38620" data-name="路径 38620" d="M1367.02-184.949,1305.1-220.7a25.41,25.41,0,0,1-12.707-22.007v-71.5a25.412,25.412,0,0,1,12.706-22.006l61.922-35.751a25.414,25.414,0,0,1,25.412,0l61.921,35.75a25.412,25.412,0,0,1,12.707,22.007v71.5a25.41,25.41,0,0,1-12.707,22.007l-61.921,35.75a25.407,25.407,0,0,1-25.413,0Z" transform="translate(-206.92 826.826)" fill="none" stroke="#000" stroke-miterlimit="10" stroke-width="3"/>
        <path id="路径_38623" data-name="路径 38623" d="M1437.68-300.676v36.05a25.414,25.414,0,0,1-12.7,22.006l-21.47,12.4" transform="translate(-167.48 853.337)" fill="none" stroke="#000" stroke-miterlimit="10" stroke-width="3"/>
        <path id="路径_38624" data-name="路径 38624" d="M1393.16-366.481l35.49,20.489a25.554,25.554,0,0,1,2.438,1.6" transform="translate(-171.153 829.98)" fill="none" stroke="#000" stroke-miterlimit="10" stroke-width="3"/>
        <path id="路径_38625" data-name="路径 38625" d="M1324.26-362.629l31.8-18.361a25.413,25.413,0,0,1,25.412,0l21.491,12.407" transform="translate(-195.609 823.622)" fill="none" stroke="#000" stroke-miterlimit="10" stroke-width="3"/>
        <path id="路径_38626" data-name="路径 38626" d="M611.92-521.478h56.542a13.1,13.1,0,0,0,13.1-13.1v-24.163A16.936,16.936,0,0,1,698.5-575.676h59.062" transform="translate(-448.448 755.728)" fill="none" stroke="#000" stroke-miterlimit="10" stroke-width="3"/>
        <line id="直线_495" data-name="直线 495" x2="69.102" transform="translate(838.319 443.362)" fill="none" stroke="#000" stroke-miterlimit="10" stroke-width="3"/>
        <line id="直线_496" data-name="直线 496" x2="76.046" transform="translate(924.302 443.193)" fill="none" stroke="#000" stroke-miterlimit="10" stroke-width="3"/>
        <path id="路径_38628" data-name="路径 38628" d="M43.311,63.448" transform="translate(508.511 308.169)" fill="none" stroke="#000" stroke-width="3"/>
        <line id="直线_499" data-name="直线 499" y2="15.356" transform="translate(806.397 193.262)" fill="none" stroke="#000" stroke-miterlimit="10" stroke-width="3"/>
        <line id="直线_501" data-name="直线 501" x2="38.656" y2="59.054" transform="translate(729.206 623.681)" fill="none" stroke="#000" stroke-miterlimit="10" stroke-width="3"/>
        <line id="直线_502" data-name="直线 502" x1="42.491" y2="63.049" transform="translate(540.853 603.371)" fill="none" stroke="#000" stroke-miterlimit="10" stroke-width="3"/>
        <path id="路径_38627" data-name="路径 38627" d="M831.02-202.357h57.422s8.581.6,13.1-4.486" transform="translate(-370.68 886.642)" fill="none" stroke="#000" stroke-miterlimit="10" stroke-width="3"/>
      </g>
    </g>
  </g>
</svg>
