<svg xmlns="http://www.w3.org/2000/svg" xmlns:xlink="http://www.w3.org/1999/xlink" width="1820" height="880" viewBox="0 0 1820 880">
  <defs>
    <clipPath id="clip-path">
      <rect id="矩形_2278" data-name="矩形 2278" width="1820" height="880" transform="translate(50 82)" fill="#fff"/>
    </clipPath>
  </defs>
  <g id="帮助中心_EN" transform="translate(-16571 1522)">
    <g id="蒙版组_29" data-name="蒙版组 29" transform="translate(16521 -1604)" clip-path="url(#clip-path)">
      <g id="组_21645" data-name="组 21645" transform="translate(607.025 42)" opacity="0.05">
        <g id="组_21643" data-name="组 21643" transform="translate(511.697 290.751)">
          <path id="路径_38579" data-name="路径 38579" d="M1013.38-159.409,893.756-228.476a25.412,25.412,0,0,1-12.707-22.007V-388.618a25.414,25.414,0,0,1,12.706-22.007l119.629-69.068a25.414,25.414,0,0,1,25.412,0l119.628,69.067a25.414,25.414,0,0,1,12.706,22.008v138.135a25.412,25.412,0,0,1-12.706,22.007L1038.8-159.409A25.414,25.414,0,0,1,1013.38-159.409Z" transform="translate(-864.619 497.837)" fill="none" stroke="#000" stroke-miterlimit="10" stroke-width="3"/>
          <line id="直线_476" data-name="直线 476" y1="17.727" transform="translate(0 103.269)" fill="none" stroke="#000" stroke-miterlimit="10" stroke-width="3"/>
          <line id="直线_477" data-name="直线 477" y1="81.974" transform="translate(0 137.481)" fill="none" stroke="#000" stroke-miterlimit="10" stroke-width="3"/>
          <line id="直线_478" data-name="直线 478" x1="14.725" y1="8.501" transform="translate(16.86 280.988)" fill="none" stroke="#000" stroke-miterlimit="10" stroke-width="3"/>
          <line id="直线_479" data-name="直线 479" x1="72.444" y1="41.826" transform="translate(45.325 297.423)" fill="none" stroke="#000" stroke-miterlimit="10" stroke-width="3"/>
          <line id="直线_480" data-name="直线 480" x1="14.226" y2="8.214" transform="translate(179.284 346.787)" fill="none" stroke="#000" stroke-miterlimit="10" stroke-width="3"/>
          <line id="直线_481" data-name="直线 481" x1="71.959" y2="41.545" transform="translate(208.141 296.794)" fill="none" stroke="#000" stroke-miterlimit="10" stroke-width="3"/>
          <line id="直线_482" data-name="直线 482" y2="16.824" transform="translate(324.336 235.376)" fill="none" stroke="#000" stroke-miterlimit="10" stroke-width="3"/>
          <line id="直线_483" data-name="直线 483" y2="82.877" transform="translate(324.336 134.545)" fill="none" stroke="#000" stroke-miterlimit="10" stroke-width="3"/>
          <line id="直线_484" data-name="直线 484" x2="14.76" y2="8.522" transform="translate(292.842 65.816)" fill="none" stroke="#000" stroke-miterlimit="10" stroke-width="3"/>
          <line id="直线_485" data-name="直线 485" x2="72.021" y2="41.581" transform="translate(206.279 15.839)" fill="none" stroke="#000" stroke-miterlimit="10" stroke-width="3"/>
          <line id="直线_486" data-name="直线 486" y1="8.291" x2="14.36" transform="translate(131.131)" fill="none" stroke="#000" stroke-miterlimit="10" stroke-width="3" opacity="0.5"/>
          <line id="直线_487" data-name="直线 487" y1="41.224" x2="71.402" transform="translate(44.349 17.17)" fill="none" stroke="#000" stroke-miterlimit="10" stroke-width="3"/>
        </g>
        <path id="路径_38580" data-name="路径 38580" d="M1168.18-454.584l-61.941-35.762a25.41,25.41,0,0,1-12.705-22.007v-71.525a25.41,25.41,0,0,1,12.706-22.008l61.94-35.76a25.407,25.407,0,0,1,25.412,0l61.941,35.761a25.412,25.412,0,0,1,12.706,22.007v71.525a25.412,25.412,0,0,1-12.706,22.007l-61.941,35.762a25.413,25.413,0,0,1-25.412,0Z" transform="translate(-277.502 731.103)" fill="none" stroke="#000" stroke-miterlimit="10" stroke-width="3"/>
        <path id="路径_38581" data-name="路径 38581" d="M1179.55-501.2l-11.514,6.647a25.793,25.793,0,0,1-2.492,1.263" transform="translate(-251.943 782.163)" fill="none" stroke="#000" stroke-miterlimit="10" stroke-width="3"/>
        <path id="路径_38582" data-name="路径 38582" d="M1245.69-539.016a25.417,25.417,0,0,1-11.963,15.9l-48.381,27.932" transform="translate(-244.914 768.74)" fill="none" stroke="#000" stroke-miterlimit="10" stroke-width="3"/>
        <line id="直线_488" data-name="直线 488" y2="15.751" transform="translate(1001.521 156.114)" fill="none" stroke="#000" stroke-miterlimit="10" stroke-width="3"/>
        <path id="路径_38583" data-name="路径 38583" d="M1190.82-638.194l40.964,23.652a25.408,25.408,0,0,1,12.7,22.007" transform="translate(-242.971 733.537)" fill="none" stroke="#000" stroke-miterlimit="10" stroke-width="3"/>
        <path id="路径_38584" data-name="路径 38584" d="M1141.4-645.793l9.8-5.66q.987-.569,2.009-1.043" transform="translate(-260.515 728.461)" fill="none" stroke="#000" stroke-miterlimit="10" stroke-width="3"/>
        <path id="路径_38585" data-name="路径 38585" d="M1086.42-598.847a25.41,25.41,0,0,1,11.563-14.468l49.078-28.336" transform="translate(-280.027 732.31)" fill="none" stroke="#000" stroke-miterlimit="10" stroke-width="3"/>
        <path id="路径_38587" data-name="路径 38587" d="M1006.64-454.15l51.553-92.369a25.409,25.409,0,0,1,21.82-13.025l32.868-.478" transform="translate(-308.344 761.284)" fill="none" stroke="#000" stroke-miterlimit="10" stroke-width="3"/>
        <path id="路径_38588" data-name="路径 38588" d="M1310-590l-11.883,26.319c-2.99,6.623-8.145,10.387-13.524,9.874l-4.273-.406" transform="translate(-190.893 750.645)" fill="none" stroke="#000" stroke-miterlimit="10" stroke-width="3"/>
        <path id="路径_38589" data-name="路径 38589" d="M1329.37-344.239l-16.242-26.171a25.411,25.411,0,0,0-22.4-12l-15.338.229" transform="translate(-212.954 824.322)" fill="none" stroke="#000" stroke-miterlimit="10" stroke-width="3"/>
        <path id="路径_38590" data-name="路径 38590" d="M1157.85-63.183l-47.42-27.381a25.412,25.412,0,0,1-12.707-22.007v-54.76a25.41,25.41,0,0,1,12.707-22.007l47.423-27.381a25.413,25.413,0,0,1,25.412,0l47.425,27.381a25.409,25.409,0,0,1,12.7,22.007v54.76a25.411,25.411,0,0,1-12.706,22.007l-47.424,27.381a25.413,25.413,0,0,1-25.415,0Z" transform="translate(-276.016 881.929)" fill="none" stroke="#000" stroke-miterlimit="10" stroke-width="3"/>
        <path id="路径_38592" data-name="路径 38592" d="M1120.55-95.561l-16.971-9.8a25.416,25.416,0,0,1-12.7-22.008v-35.976" transform="translate(-278.447 902.082)" fill="none" stroke="#000" stroke-miterlimit="10" stroke-width="3"/>
        <path id="路径_38593" data-name="路径 38593" d="M1172.6-100.947l-10.7,6.18a25.444,25.444,0,0,1-3.979,1.859" transform="translate(-254.65 924.229)" fill="none" stroke="#000" stroke-miterlimit="10" stroke-width="3"/>
        <path id="路径_38594" data-name="路径 38594" d="M1223.06-151.51v19.943a25.414,25.414,0,0,1-12.706,22.007l-29.192,16.854" transform="translate(-246.4 906.282)" fill="none" stroke="#000" stroke-miterlimit="10" stroke-width="3"/>
        <path id="路径_38595" data-name="路径 38595" d="M1195.02-205.792l10.409,6.009a25.428,25.428,0,0,1,4.158,3" transform="translate(-241.48 887.015)" fill="none" stroke="#000" stroke-miterlimit="10" stroke-width="3"/>
        <path id="路径_38597" data-name="路径 38597" d="M562.612-422.758,511.14-452.474a25.411,25.411,0,0,1-12.705-22.007v-59.435a25.41,25.41,0,0,1,12.706-22.008l51.47-29.716a25.413,25.413,0,0,1,25.412,0l51.47,29.717A25.412,25.412,0,0,1,652.2-533.916v59.435a25.412,25.412,0,0,1-12.706,22.007l-51.471,29.717a25.414,25.414,0,0,1-25.411,0Z" transform="translate(-488.728 750.983)" fill="none" stroke="#000" stroke-miterlimit="10" stroke-width="3"/>
        <g id="组_21644" data-name="组 21644" transform="translate(0 150.731)">
          <path id="路径_38598" data-name="路径 38598" d="M491.271-537.949v-13.414a25.313,25.313,0,0,1,.369-4.313" transform="translate(-491.271 612.095)" fill="none" stroke="#000" stroke-miterlimit="10" stroke-width="3"/>
          <path id="路径_38599" data-name="路径 38599" d="M522.553-457.247l-18.576-10.724a25.413,25.413,0,0,1-12.7-22.007v-39.614" transform="translate(-491.271 621.353)" fill="none" stroke="#000" stroke-miterlimit="10" stroke-width="3"/>
          <line id="直线_489" data-name="直线 489" x1="12.539" y2="7.24" transform="translate(99.295 181.463)" fill="none" stroke="#000" stroke-miterlimit="10" stroke-width="3"/>
          <path id="路径_38600" data-name="路径 38600" d="M631.261-500.356a25.45,25.45,0,0,1-.365,4.288,25.419,25.419,0,0,1-12.342,17.719l-33.776,19.5" transform="translate(-458.081 631.731)" fill="none" stroke="#000" stroke-miterlimit="10" stroke-width="3"/>
          <path id="路径_38601" data-name="路径 38601" d="M601.06-573.727l11.715,6.764a25.509,25.509,0,0,1,3,2.033" transform="translate(-452.302 605.688)" fill="none" stroke="#000" stroke-miterlimit="10" stroke-width="3"/>
          <path id="路径_38602" data-name="路径 38602" d="M532.161-583.242l18.48-10.669a25.413,25.413,0,0,1,25.412,0l33.682,19.446" transform="translate(-476.757 597.316)" fill="none" stroke="#000" stroke-miterlimit="10" stroke-width="3"/>
        </g>
        <path id="路径_38603" data-name="路径 38603" d="M784.13-130.363,736.539-157.84a25.409,25.409,0,0,1-12.7-22.007V-234.8a25.411,25.411,0,0,1,12.706-22.007l47.59-27.477a25.414,25.414,0,0,1,25.412,0l47.591,27.477A25.411,25.411,0,0,1,869.839-234.8v54.954a25.41,25.41,0,0,1-12.707,22.008l-47.589,27.476a25.413,25.413,0,0,1-25.413,0Z" transform="translate(-408.725 857.947)" fill="none" stroke="#000" stroke-miterlimit="10" stroke-width="3"/>
        <path id="路径_38604" data-name="路径 38604" d="M856.246-197.36a25.408,25.408,0,0,1-10.913,12.629l-56.885,32.842a25.435,25.435,0,0,1-4.244,1.954" transform="translate(-387.297 890.008)" fill="none" stroke="#000" stroke-miterlimit="10" stroke-width="3"/>
        <path id="路径_38605" data-name="路径 38605" d="M821.241-273.667l10.946,6.321a25.412,25.412,0,0,1,12.707,22.007v56.569" transform="translate(-374.151 862.924)" fill="none" stroke="#000" stroke-miterlimit="10" stroke-width="3"/>
        <path id="路径_38606" data-name="路径 38606" d="M719.27-249.4a25.417,25.417,0,0,1,6.6-8.165,25.452,25.452,0,0,1,3.331-2.294L786.085-292.7a25.55,25.55,0,0,1,4.493-2.042" transform="translate(-410.345 855.441)" fill="none" stroke="#000" stroke-miterlimit="10" stroke-width="3"/>
        <path id="路径_38607" data-name="路径 38607" d="M740.3-161.8l-10.378-5.992a25.413,25.413,0,0,1-12.7-22.008v-55.3" transform="translate(-411.072 873.066)" fill="none" stroke="#000" stroke-miterlimit="10" stroke-width="3"/>
        <path id="路径_38608" data-name="路径 38608" d="M801.881-428.266l-69.77-40.283a25.409,25.409,0,0,1-12.7-22.007v-80.563a25.413,25.413,0,0,1,12.706-22.008l69.77-40.281a25.407,25.407,0,0,1,25.412,0l69.771,40.281a25.413,25.413,0,0,1,12.705,22.008v80.563a25.41,25.41,0,0,1-12.707,22.008l-69.769,40.282a25.414,25.414,0,0,1-25.412,0Z" transform="translate(-410.296 734.028)" fill="none" stroke="#000" stroke-miterlimit="10" stroke-width="3"/>
        <line id="直线_490" data-name="直线 490" y1="16.767" transform="translate(297.366 214.546)" fill="none" stroke="#000" stroke-miterlimit="10" stroke-width="3"/>
        <path id="路径_38609" data-name="路径 38609" d="M769.423-475.312l-45.979-26.546a25.411,25.411,0,0,1-12.705-22.007" transform="translate(-413.373 774.118)" fill="none" stroke="#000" stroke-miterlimit="10" stroke-width="3"/>
        <line id="直线_491" data-name="直线 491" x1="13.364" y2="7.715" transform="translate(416.997 311.606)" fill="none" stroke="#000" stroke-miterlimit="10" stroke-width="3"/>
        <line id="直线_492" data-name="直线 492" y2="16.429" transform="translate(511.217 174.914)" fill="none" stroke="#000" stroke-miterlimit="10" stroke-width="3"/>
        <path id="路径_38611" data-name="路径 38611" d="M825.669-628.929,871.091-602.7a25.412,25.412,0,0,1,12.709,22v2.356" transform="translate(-372.579 736.826)" fill="none" stroke="#000" stroke-miterlimit="10" stroke-width="3"/>
        <line id="直线_493" data-name="直线 493" y1="7.232" x2="12.526" transform="translate(379.059 87.059)" fill="none" stroke="#000" stroke-miterlimit="10" stroke-width="3"/>
        <path id="路径_38612" data-name="路径 38612" d="M711.649-587.054a25.4,25.4,0,0,1,11.472-14.186l55.1-31.815" transform="translate(-413.05 735.361)" fill="none" stroke="#000" stroke-miterlimit="10" stroke-width="3"/>
        <path id="路径_38613" data-name="路径 38613" d="M1372.35-532.955l-51.737-29.87a25.411,25.411,0,0,1-12.7-22.007v-59.741a25.413,25.413,0,0,1,12.706-22.009l51.736-29.869a25.413,25.413,0,0,1,25.412,0l51.737,29.87a25.412,25.412,0,0,1,12.7,22.008v59.741a25.41,25.41,0,0,1-12.706,22.008l-51.736,29.869A25.407,25.407,0,0,1,1372.35-532.955Z" transform="translate(-201.412 711.652)" fill="none" stroke="#000" stroke-miterlimit="10" stroke-width="3"/>
        <path id="路径_38614" data-name="路径 38614" d="M1329.12-684.711l35.413-20.446a25.418,25.418,0,0,1,22.385-1.489" transform="translate(-193.884 708.561)" fill="none" stroke="#000" stroke-miterlimit="10" stroke-width="3"/>
        <path id="路径_38615" data-name="路径 38615" d="M1300.6-602.032v-61.074q0-1.079.091-2.145" transform="translate(-204.005 723.934)" fill="none" stroke="#000" stroke-miterlimit="10" stroke-width="3"/>
        <path id="路径_38616" data-name="路径 38616" d="M1349.11-569.714l-35.888-20.721a25.411,25.411,0,0,1-12.388-18" transform="translate(-203.922 744.102)" fill="none" stroke="#000" stroke-miterlimit="10" stroke-width="3"/>
        <path id="路径_38617" data-name="路径 38617" d="M1427.84-591.61l-53.04,30.622a25.471,25.471,0,0,1-3.027,1.489" transform="translate(-178.743 750.072)" fill="none" stroke="#000" stroke-miterlimit="10" stroke-width="3"/>
        <path id="路径_38618" data-name="路径 38618" d="M1431.99-641.676v41.035a25.409,25.409,0,0,1-12.707,22.008" transform="translate(-161.881 732.302)" fill="none" stroke="#000" stroke-miterlimit="10" stroke-width="3"/>
        <path id="路径_38619" data-name="路径 38619" d="M1380.02-702.577l53.2,30.713a25.5,25.5,0,0,1,2.8,1.876" transform="translate(-175.816 710.685)" fill="none" stroke="#000" stroke-miterlimit="10" stroke-width="3"/>
        <path id="路径_38620" data-name="路径 38620" d="M1367.02-184.949,1305.1-220.7a25.41,25.41,0,0,1-12.707-22.007v-71.5a25.412,25.412,0,0,1,12.706-22.006l61.922-35.751a25.414,25.414,0,0,1,25.412,0l61.921,35.75a25.412,25.412,0,0,1,12.707,22.007v71.5a25.41,25.41,0,0,1-12.707,22.007l-61.921,35.75a25.407,25.407,0,0,1-25.413,0Z" transform="translate(-206.92 826.826)" fill="none" stroke="#000" stroke-miterlimit="10" stroke-width="3"/>
        <path id="路径_38623" data-name="路径 38623" d="M1437.68-300.676v36.05a25.414,25.414,0,0,1-12.7,22.006l-21.47,12.4" transform="translate(-167.48 853.337)" fill="none" stroke="#000" stroke-miterlimit="10" stroke-width="3"/>
        <path id="路径_38624" data-name="路径 38624" d="M1393.16-366.481l35.49,20.489a25.554,25.554,0,0,1,2.438,1.6" transform="translate(-171.153 829.98)" fill="none" stroke="#000" stroke-miterlimit="10" stroke-width="3"/>
        <path id="路径_38625" data-name="路径 38625" d="M1324.26-362.629l31.8-18.361a25.413,25.413,0,0,1,25.412,0l21.491,12.407" transform="translate(-195.609 823.622)" fill="none" stroke="#000" stroke-miterlimit="10" stroke-width="3"/>
        <path id="路径_38626" data-name="路径 38626" d="M611.92-521.478h56.542a13.1,13.1,0,0,0,13.1-13.1v-24.163A16.936,16.936,0,0,1,698.5-575.676h59.062" transform="translate(-448.448 755.728)" fill="none" stroke="#000" stroke-miterlimit="10" stroke-width="3"/>
        <line id="直线_495" data-name="直线 495" x2="69.102" transform="translate(838.319 443.362)" fill="none" stroke="#000" stroke-miterlimit="10" stroke-width="3"/>
        <line id="直线_496" data-name="直线 496" x2="76.046" transform="translate(924.302 443.193)" fill="none" stroke="#000" stroke-miterlimit="10" stroke-width="3"/>
        <path id="路径_38628" data-name="路径 38628" d="M43.311,63.448" transform="translate(508.511 308.169)" fill="none" stroke="#000" stroke-width="3"/>
        <line id="直线_499" data-name="直线 499" y2="15.356" transform="translate(806.397 193.262)" fill="none" stroke="#000" stroke-miterlimit="10" stroke-width="3"/>
        <line id="直线_501" data-name="直线 501" x2="38.656" y2="59.054" transform="translate(729.206 623.681)" fill="none" stroke="#000" stroke-miterlimit="10" stroke-width="3"/>
        <line id="直线_502" data-name="直线 502" x1="42.491" y2="63.049" transform="translate(540.853 603.371)" fill="none" stroke="#000" stroke-miterlimit="10" stroke-width="3"/>
        <path id="路径_38627" data-name="路径 38627" d="M831.02-202.357h57.422s8.581.6,13.1-4.486" transform="translate(-370.68 886.642)" fill="none" stroke="#000" stroke-miterlimit="10" stroke-width="3"/>
      </g>
    </g>
    <g id="组_21710" data-name="组 21710" transform="translate(16521 -1576)">
      <path id="路径_38751" data-name="路径 38751" d="M9.713,70.063H3.224A50.4,50.4,0,0,1,3.566,76.6v24.54a54.617,54.617,0,0,1-.342,6.44H10.1a48.623,48.623,0,0,1-.342-6.489V97.383c0-.878,0-1.756-.049-2.1-.049-.976-.049-.976-.049-1.561,2.342,3.171,5.562,4.683,9.855,4.683,8.294,0,13.221-5.415,13.221-14.392,0-4.927-1.268-8.586-3.854-11.221-2.244-2.244-5.366-3.415-9.269-3.415a11.36,11.36,0,0,0-9.952,4.781c.049-.634.049-1.171.049-1.708ZM26.4,83.918c0,5.757-2.976,9.367-7.757,9.367-5.074,0-8.684-3.9-8.684-9.465,0-5.22,3.659-9.221,8.489-9.221C23.373,74.6,26.4,78.161,26.4,83.918ZM58.206,70.063a25.3,25.3,0,0,0-4.537-.537c-4.391,0-7.416,1.659-9.172,5.123V70.063H37.862A38.569,38.569,0,0,1,38.2,76.4V91.724a53.512,53.512,0,0,1-.342,6.342h6.976a51.308,51.308,0,0,1-.342-6.342V82.7a7.853,7.853,0,0,1,2-4.879,6.964,6.964,0,0,1,5.659-2.391,14.569,14.569,0,0,1,4.342.781Zm16.978,28.93c8.684,0,14.392-5.952,14.392-14.977s-5.61-14.782-14.441-14.782c-8.879,0-14.538,5.806-14.538,14.88,0,9.122,5.659,14.879,14.587,14.879Zm-.049-24.686c5.171,0,8.147,3.61,8.147,9.9,0,5.952-3.122,9.611-8.2,9.611s-8.2-3.708-8.2-9.708c.008-6.1,3.13-9.8,8.253-9.8Zm34.931,23.759a26.079,26.079,0,0,1,1.464-4.342l7.513-18.539a55,55,0,0,1,2.2-5.123h-7.416A22.09,22.09,0,0,1,112.6,74.6l-4.976,14.148c-.341.976-.732,2.2-1.073,3.269-.293-1.025-.732-2.488-1.025-3.269L100.553,74.6a25.76,25.76,0,0,1-1.22-4.537H91.869c.976,2.049,1.756,3.854,2.293,5.123l7.464,18.539a23.223,23.223,0,0,1,1.464,4.342Zm14.685-38.834v6.2h7.172v-6.2Zm0,10.831a40.1,40.1,0,0,1,.39,6.342V91.724a43.845,43.845,0,0,1-.39,6.342h7.123a49.005,49.005,0,0,1-.342-6.391V76.454a43.856,43.856,0,0,1,.342-6.391Zm35.126,28h6.489a51.216,51.216,0,0,1-.342-6.586V65.769a56.89,56.89,0,0,1,.342-6.537h-6.879a49.724,49.724,0,0,1,.342,6.586V70.7c0,.829,0,1.756.049,2.1.049.976.049.976.049,1.561a12.424,12.424,0,0,0-2.488-2.683,11.58,11.58,0,0,0-7.416-2.244c-8.05,0-13.172,5.659-13.172,14.587,0,5.269,1.8,9.708,5.074,12.245a12.4,12.4,0,0,0,8.147,2.488c4.732,0,7.318-1.268,9.855-4.83-.049.634-.049,1.171-.049,1.756Zm-16.685-14c0-5.806,3.025-9.513,7.757-9.513a8.931,8.931,0,0,1,6.342,2.732,10.13,10.13,0,0,1,2.342,6.489,11.036,11.036,0,0,1-1.9,6.537,8.158,8.158,0,0,1-6.537,3.22c-4.882,0-8-3.658-8-9.464Zm55.519,1.61c-.1-1.122-.1-1.268-.1-1.366a20.055,20.055,0,0,0-1.415-7.416c-1.951-4.879-6.44-7.708-12.148-7.708-8.342,0-13.758,5.9-13.758,14.929,0,9.123,5.464,14.88,14.1,14.88a13.855,13.855,0,0,0,10.05-3.757,13.711,13.711,0,0,0,2.976-4.488l-5.757-1.854a7.091,7.091,0,0,1-1.415,2.537,8.207,8.207,0,0,1-11.953-.293c-1.122-1.415-1.561-2.781-1.8-5.464Zm-21.076-4.83c.732-4.1,3.513-6.635,7.318-6.635a6.958,6.958,0,0,1,5.269,1.951,7.658,7.658,0,0,1,2.147,4.683Zm24.686,9.269a10.974,10.974,0,0,0,1.9,4.342c2.1,2.83,5.854,4.342,10.879,4.342,4.44,0,7.855-1.073,10.1-3.171a7.844,7.844,0,0,0,2.391-5.513,6.934,6.934,0,0,0-2.83-6.05c-1.61-1.22-3.61-1.9-8.586-2.976a20.55,20.55,0,0,1-4.879-1.464,2.629,2.629,0,0,1-1.512-2.293c0-2.049,2.049-3.415,5.074-3.415,3.171,0,4.83,1.171,5.366,3.854l6.44-.829a9.5,9.5,0,0,0-2.634-4.83c-2-1.854-5.171-2.83-9.172-2.83-4.44,0-7.757,1.268-9.757,3.805a7.259,7.259,0,0,0-1.512,4.537,6.986,6.986,0,0,0,4.293,6.489,29.492,29.492,0,0,0,7.025,2.1c3.9.878,4.2.927,5.123,1.561A2.983,2.983,0,0,1,221.3,90.21c0,2.293-2.244,3.708-5.854,3.708-3.8,0-5.61-1.317-6.44-4.635Zm52.884-20.051h-6.489a50.4,50.4,0,0,1,.342,6.537v24.54a54.615,54.615,0,0,1-.342,6.44H255.6a48.621,48.621,0,0,1-.342-6.489V97.383c0-.878,0-1.756-.049-2.1-.049-.976-.049-.976-.049-1.561,2.342,3.171,5.562,4.683,9.855,4.683,8.294,0,13.221-5.415,13.221-14.392,0-4.927-1.268-8.586-3.854-11.221-2.244-2.244-5.366-3.415-9.269-3.415a11.36,11.36,0,0,0-9.952,4.781c.049-.634.049-1.171.049-1.708ZM271.89,83.918c0,5.757-2.976,9.367-7.757,9.367-5.074,0-8.684-3.9-8.684-9.465,0-5.22,3.659-9.221,8.489-9.221C268.865,74.6,271.89,78.161,271.89,83.918Zm37.61,1.756c-.1-1.122-.1-1.268-.1-1.366a20.056,20.056,0,0,0-1.415-7.416c-1.951-4.879-6.44-7.708-12.148-7.708-8.342,0-13.758,5.9-13.758,14.929,0,9.123,5.464,14.88,14.1,14.88a13.855,13.855,0,0,0,10.05-3.757,13.711,13.711,0,0,0,2.976-4.488l-5.757-1.854a7.09,7.09,0,0,1-1.415,2.537,8.207,8.207,0,0,1-11.953-.293c-1.122-1.415-1.561-2.781-1.8-5.464Zm-21.076-4.83c.732-4.1,3.513-6.635,7.318-6.635a6.958,6.958,0,0,1,5.269,1.951,7.658,7.658,0,0,1,2.147,4.683Zm46.347-10.782a25.3,25.3,0,0,0-4.537-.537c-4.391,0-7.415,1.659-9.172,5.123V70.063h-6.635a38.567,38.567,0,0,1,.341,6.342V91.724a53.5,53.5,0,0,1-.341,6.342H321.4a51.3,51.3,0,0,1-.342-6.342V82.7a7.853,7.853,0,0,1,2-4.879,6.964,6.964,0,0,1,5.659-2.391,14.569,14.569,0,0,1,4.342.781Zm2.342,20.051a10.973,10.973,0,0,0,1.9,4.342c2.1,2.83,5.854,4.342,10.879,4.342,4.44,0,7.855-1.073,10.1-3.171a7.844,7.844,0,0,0,2.391-5.513,6.933,6.933,0,0,0-2.83-6.05c-1.61-1.22-3.61-1.9-8.586-2.976a20.549,20.549,0,0,1-4.879-1.464,2.629,2.629,0,0,1-1.512-2.293c0-2.049,2.049-3.415,5.074-3.415,3.171,0,4.83,1.171,5.367,3.854l6.44-.829a9.5,9.5,0,0,0-2.634-4.83c-2-1.854-5.171-2.83-9.172-2.83-4.44,0-7.757,1.268-9.757,3.805a7.258,7.258,0,0,0-1.512,4.537,6.986,6.986,0,0,0,4.293,6.489,29.493,29.493,0,0,0,7.025,2.1c3.9.878,4.2.927,5.123,1.561a2.983,2.983,0,0,1,1.268,2.439c0,2.293-2.244,3.708-5.854,3.708-3.8,0-5.61-1.317-6.44-4.635Zm43.566,8.879c8.684,0,14.392-5.952,14.392-14.977s-5.61-14.782-14.441-14.782c-8.879,0-14.538,5.806-14.538,14.88.008,9.123,5.664,14.88,14.592,14.88Zm-.049-24.686c5.171,0,8.147,3.61,8.147,9.9,0,5.952-3.122,9.611-8.2,9.611s-8.2-3.708-8.2-9.708c.013-6.094,3.135-9.8,8.258-9.8Zm26.345,23.759a43.406,43.406,0,0,1-.39-6.342V81.869c2.147-4.83,5.025-7.269,8.538-7.269a4.589,4.589,0,0,1,4.1,2,8.014,8.014,0,0,1,.829,4.293V91.724a51.833,51.833,0,0,1-.342,6.342h7.074a38.55,38.55,0,0,1-.39-6.342V80.015c0-3.269-.488-5.22-1.659-6.83-1.756-2.391-4.537-3.61-8.294-3.61-4.391,0-6.976,1.366-9.952,5.171a19.052,19.052,0,0,0,.1-2.1V70.063h-6.635a40.1,40.1,0,0,1,.39,6.342V91.724a40.488,40.488,0,0,1-.39,6.342Zm44.347,0h6.586a39.238,39.238,0,0,1-.39-6.1V78.844c0-3.317-.634-5.171-2.293-6.733-2.1-2.049-4.927-2.878-9.611-2.878-4.2,0-6.928.732-9.318,2.488-1.854,1.317-2.732,2.586-3.854,5.415l6.245,1.122a5.316,5.316,0,0,1,1.951-3.122,8.8,8.8,0,0,1,5.074-1.415c3.708,0,5.61,1.464,5.61,4.293V80.5c-6.976.146-10.587.634-13.758,1.951a8.655,8.655,0,0,0-5.513,7.9c0,5.123,3.61,8.2,9.562,8.2a17.262,17.262,0,0,0,4.537-.585,10.579,10.579,0,0,0,5.171-3.074Zm0-10.879a5.814,5.814,0,0,1-1.756,4.293,9.906,9.906,0,0,1-6.781,2.586c-2.732,0-4.44-1.415-4.44-3.708,0-3.805,3.659-5.415,12.977-5.61Zm12.392-27.955a44,44,0,0,1,.342,6.342V91.724a47.239,47.239,0,0,1-.342,6.342h7.074a50.256,50.256,0,0,1-.341-6.342v-26.1a45.2,45.2,0,0,1,.341-6.391Zm13.221,0v6.2h7.172v-6.2Zm0,10.831a40.1,40.1,0,0,1,.39,6.342v15.32a43.854,43.854,0,0,1-.39,6.342h7.123a49,49,0,0,1-.342-6.391V76.454a43.847,43.847,0,0,1,.342-6.391Zm35.224,22.149a45.657,45.657,0,0,1-6.391.341h-6.245c-.781,0-1.854,0-2.927.049.781-.927.781-.927,1.073-1.317.39-.439.488-.488.585-.683l9.221-11.66c.976-1.22,2.244-2.634,3.708-4.2v-4.83a54.51,54.51,0,0,1-5.9.146h-9.465a51.311,51.311,0,0,1-6.342-.342v6.1a48.219,48.219,0,0,1,6.342-.342H500.8a16.8,16.8,0,0,0,1.756-.049h.439a19.516,19.516,0,0,0-1.366,1.561l-9.416,11.9a35.47,35.47,0,0,1-3.708,4.147V98.2c1.464-.1,2.537-.146,6-.146h11.221a46.419,46.419,0,0,1,6.44.342ZM542.8,85.674c-.1-1.122-.1-1.268-.1-1.366a20.055,20.055,0,0,0-1.415-7.416c-1.951-4.879-6.44-7.708-12.148-7.708-8.342,0-13.758,5.9-13.758,14.929,0,9.123,5.464,14.88,14.1,14.88a13.855,13.855,0,0,0,10.05-3.757,13.709,13.709,0,0,0,2.976-4.488l-5.757-1.854a7.092,7.092,0,0,1-1.415,2.537,8.207,8.207,0,0,1-11.953-.293c-1.122-1.415-1.561-2.781-1.8-5.464Zm-21.076-4.83c.732-4.1,3.513-6.635,7.318-6.635a6.958,6.958,0,0,1,5.269,1.951,7.657,7.657,0,0,1,2.147,4.683Zm47.811,17.222h6.489a51.208,51.208,0,0,1-.341-6.586V65.769a56.92,56.92,0,0,1,.341-6.537h-6.879a49.7,49.7,0,0,1,.342,6.586V70.7c0,.829,0,1.756.049,2.1.049.976.049.976.049,1.561a12.424,12.424,0,0,0-2.488-2.683,11.58,11.58,0,0,0-7.416-2.244c-8.05,0-13.172,5.659-13.172,14.587,0,5.269,1.8,9.708,5.074,12.245a12.4,12.4,0,0,0,8.147,2.488c4.732,0,7.318-1.268,9.855-4.83-.049.634-.049,1.171-.049,1.756Zm-16.685-14c0-5.806,3.025-9.513,7.757-9.513a8.931,8.931,0,0,1,6.342,2.732,10.13,10.13,0,0,1,2.342,6.489,11.036,11.036,0,0,1-1.9,6.537,8.158,8.158,0,0,1-6.537,3.22c-4.881,0-8-3.661-8-9.467Zm45.566-24.832a45.645,45.645,0,0,1,.342,6.391v26.1a40.1,40.1,0,0,1-.39,6.342h7.025a43.423,43.423,0,0,1-.39-6.342V81.869c2.2-4.879,5.025-7.22,8.684-7.22a4.529,4.529,0,0,1,3.366,1.415c.927.976,1.415,2.586,1.415,4.83v10.83a51.857,51.857,0,0,1-.341,6.342H625.2a38.547,38.547,0,0,1-.39-6.342V79.43c0-6.293-3.561-9.855-9.806-9.855-4.44,0-7.074,1.366-10.1,5.171a19.991,19.991,0,0,0,.1-2.1V65.672a46.9,46.9,0,0,1,.341-6.44Zm59.031,26.442c-.1-1.122-.1-1.268-.1-1.366a20.055,20.055,0,0,0-1.415-7.416c-1.951-4.879-6.44-7.708-12.148-7.708-8.342,0-13.758,5.9-13.758,14.929,0,9.123,5.464,14.88,14.1,14.88a13.855,13.855,0,0,0,10.05-3.757,13.709,13.709,0,0,0,2.976-4.488L651.4,88.894a7.092,7.092,0,0,1-1.415,2.537,8.207,8.207,0,0,1-11.953-.293c-1.122-1.415-1.561-2.781-1.805-5.464Zm-21.076-4.83c.732-4.1,3.513-6.635,7.318-6.635a6.958,6.958,0,0,1,5.269,1.951,7.657,7.657,0,0,1,2.147,4.683Zm25.906-21.612a43.983,43.983,0,0,1,.342,6.342V91.724a47.239,47.239,0,0,1-.342,6.342h7.074a50.239,50.239,0,0,1-.341-6.342v-26.1a45.194,45.194,0,0,1,.341-6.391Zm19.71,10.831H675.5a50.408,50.408,0,0,1,.342,6.537v24.54a54.624,54.624,0,0,1-.342,6.44h6.879a48.616,48.616,0,0,1-.341-6.489v-3.71c0-.878,0-1.756-.049-2.1-.049-.976-.049-.976-.049-1.561,2.342,3.171,5.562,4.683,9.855,4.683,8.294,0,13.221-5.415,13.221-14.392,0-4.927-1.268-8.586-3.854-11.221-2.244-2.244-5.366-3.415-9.269-3.415a11.36,11.36,0,0,0-9.952,4.781c.049-.634.049-1.171.049-1.708ZM698.672,83.92c0,5.757-2.976,9.367-7.757,9.367-5.074,0-8.684-3.9-8.684-9.465,0-5.22,3.659-9.221,8.489-9.221,4.928,0,7.953,3.56,7.953,9.317Z" transform="translate(180 445.813)"/>
      <text id="OUR_MISSION" data-name="OUR MISSION" transform="translate(180 366)" font-size="12" font-family="HiraginoSansGB-W6, Hiragino Sans GB" letter-spacing="1.6em"><tspan x="0" y="0">OUR MISSION</tspan></text>
      <path id="路径_38752" data-name="路径 38752" d="M21.938-1.941c8.1,0,12.636-3.854,12.636-10.684a9.631,9.631,0,0,0-3.025-7.464c-1.317-1.22-2.439-1.708-4.927-2.244a8.255,8.255,0,0,0,3.854-2.049,8.726,8.726,0,0,0,2.732-6.879c0-6.1-4.244-9.513-11.806-9.513H9.888c-3.317,0-4.1,0-6.147-.1a46.506,46.506,0,0,1,.39,6V-8.38a34.818,34.818,0,0,1-.439,6.586c2-.1,3.415-.146,6.245-.146ZM10.571-24.87V-35.31h10.1a6.92,6.92,0,0,1,4.682,1.51,4.969,4.969,0,0,1,1.268,3.61c0,3.317-2.2,5.318-5.9,5.318Zm0,5.415H20.962A7.971,7.971,0,0,1,26.28-17.8a5.286,5.286,0,0,1,1.561,4.244c0,3.952-2.439,6.1-6.781,6.1H10.571Zm55.714,5.123c-.1-1.122-.1-1.268-.1-1.366a20.055,20.055,0,0,0-1.415-7.416c-1.951-4.879-6.44-7.708-12.148-7.708-8.342,0-13.758,5.9-13.758,14.929,0,9.123,5.464,14.88,14.1,14.88A13.855,13.855,0,0,0,63.016-4.77a13.711,13.711,0,0,0,2.976-4.488l-5.757-1.854A7.09,7.09,0,0,1,58.82-8.575a7.714,7.714,0,0,1-5.854,2.439,7.668,7.668,0,0,1-6.1-2.732c-1.122-1.415-1.561-2.781-1.805-5.464Zm-21.076-4.83c.732-4.1,3.513-6.635,7.318-6.635A6.958,6.958,0,0,1,57.8-23.846a7.658,7.658,0,0,1,2.147,4.683Zm25.32,21.71C73.847,6.3,77.067,7.622,82.775,7.622,87.8,7.622,91.849,6.5,94.288,4.5c2.83-2.391,4.1-6.147,4.1-12V-23.846a45.322,45.322,0,0,1,.341-6.1H92.19V-27.7a11.737,11.737,0,0,0,.1,1.61c-2.1-2.976-4.976-4.293-9.318-4.293-7.9,0-13.026,5.464-13.026,13.9,0,8.342,4.976,13.66,12.733,13.66,4.244,0,7.123-1.366,9.562-4.44-.1,3.317-.439,5.025-1.268,6.489-1.366,2.342-4.244,3.659-8,3.659-3.513,0-5.659-1.073-7.562-3.708Zm5.806-18.88c0-5.806,3.025-9.465,7.9-9.465a7.373,7.373,0,0,1,4.732,1.756c1.951,1.659,2.927,4.1,2.927,7.22a10.334,10.334,0,0,1-1.366,5.562A8.165,8.165,0,0,1,83.75-7.4a7.478,7.478,0,0,1-5.171-2.2c-1.464-1.464-2.244-3.854-2.244-6.732Zm28.54-24.442v6.2h7.172v-6.2Zm0,10.831a40.1,40.1,0,0,1,.39,6.342V-8.283a43.845,43.845,0,0,1-.39,6.342H112a49.012,49.012,0,0,1-.341-6.391V-23.553A43.851,43.851,0,0,1,112-29.944Zm20.246,28a43.408,43.408,0,0,1-.39-6.342V-18.14c2.147-4.83,5.025-7.269,8.538-7.269a4.589,4.589,0,0,1,4.1,2,8.014,8.014,0,0,1,.829,4.293V-8.283a51.842,51.842,0,0,1-.342,6.342h7.074a38.554,38.554,0,0,1-.39-6.342V-19.991c0-3.269-.488-5.22-1.659-6.83-1.756-2.391-4.537-3.61-8.294-3.61-4.391,0-6.976,1.366-9.952,5.171a19.064,19.064,0,0,0,.1-2.1v-2.586H118.1a40.1,40.1,0,0,1,.39,6.342V-8.283a40.494,40.494,0,0,1-.39,6.342Zm32.833,0a43.408,43.408,0,0,1-.39-6.342V-18.14c2.147-4.83,5.025-7.269,8.538-7.269a4.589,4.589,0,0,1,4.1,2,8.014,8.014,0,0,1,.829,4.293V-8.283a51.845,51.845,0,0,1-.342,6.342h7.074a38.555,38.555,0,0,1-.39-6.342V-19.991c0-3.269-.488-5.22-1.659-6.83-1.756-2.391-4.537-3.61-8.294-3.61-4.391,0-6.976,1.366-9.952,5.171a19.056,19.056,0,0,0,.1-2.1v-2.586h-6.635a40.1,40.1,0,0,1,.39,6.342V-8.283a40.5,40.5,0,0,1-.39,6.342Zm52.055-12.392c-.1-1.122-.1-1.268-.1-1.366a20.055,20.055,0,0,0-1.415-7.416c-1.951-4.879-6.44-7.708-12.148-7.708-8.342,0-13.758,5.9-13.758,14.929,0,9.123,5.464,14.88,14.1,14.88a13.855,13.855,0,0,0,10.05-3.757,13.711,13.711,0,0,0,2.976-4.488l-5.757-1.854a7.091,7.091,0,0,1-1.415,2.537,7.714,7.714,0,0,1-5.854,2.439,7.668,7.668,0,0,1-6.1-2.732c-1.122-1.415-1.561-2.781-1.8-5.464Zm-21.076-4.83c.732-4.1,3.513-6.635,7.318-6.635a6.958,6.958,0,0,1,5.269,1.951,7.658,7.658,0,0,1,2.147,4.683ZM235.28-29.947a25.3,25.3,0,0,0-4.537-.537c-4.391,0-7.415,1.659-9.172,5.123v-4.586h-6.635a38.572,38.572,0,0,1,.342,6.342V-8.283a53.515,53.515,0,0,1-.342,6.342h6.976a51.305,51.305,0,0,1-.342-6.342v-9.025a7.853,7.853,0,0,1,2-4.879,6.964,6.964,0,0,1,5.659-2.391,14.569,14.569,0,0,1,4.342.781Zm19.22,32.5c3.317,3.757,6.537,5.074,12.245,5.074,5.025,0,9.074-1.122,11.514-3.122,2.83-2.391,4.1-6.147,4.1-12V-23.846a45.317,45.317,0,0,1,.342-6.1h-6.537V-27.7a11.741,11.741,0,0,0,.1,1.61c-2.1-2.976-4.976-4.293-9.318-4.293-7.9,0-13.026,5.464-13.026,13.9,0,8.342,4.976,13.66,12.733,13.66,4.244,0,7.123-1.366,9.562-4.44-.1,3.317-.439,5.025-1.268,6.489-1.366,2.342-4.244,3.659-8,3.659-3.513,0-5.659-1.073-7.562-3.708Zm5.806-18.88c0-5.806,3.025-9.465,7.9-9.465a7.373,7.373,0,0,1,4.732,1.756c1.951,1.659,2.927,4.1,2.927,7.22a10.334,10.334,0,0,1-1.366,5.562A8.165,8.165,0,0,1,267.724-7.4a7.478,7.478,0,0,1-5.171-2.2c-1.464-1.464-2.245-3.854-2.245-6.732Zm48.25-13.611a51.474,51.474,0,0,1,.39,6.342v9.855c-2.2,4.83-4.976,7.22-8.489,7.22a6.07,6.07,0,0,1-2.683-.683c-1.512-.927-2.244-2.732-2.244-5.562V-23.6a43.661,43.661,0,0,1,.342-6.342H288.8a44.846,44.846,0,0,1,.39,6.342v12.343c0,4,1.268,6.733,3.952,8.44A10.628,10.628,0,0,0,299-1.4c4.635,0,7.318-1.415,10-5.22-.049,1.22-.049,1.366-.049,2.1v2.586h6.635a40.1,40.1,0,0,1-.39-6.342V-23.6a35.326,35.326,0,0,1,.39-6.342ZM321.68-40.774v6.2h7.172v-6.2Zm0,10.831a40.1,40.1,0,0,1,.39,6.342V-8.283a43.849,43.849,0,0,1-.39,6.342h7.12a49.008,49.008,0,0,1-.341-6.391V-23.553a43.851,43.851,0,0,1,.341-6.391Zm35.126,28H363.3a51.208,51.208,0,0,1-.342-6.586v-25.71a56.886,56.886,0,0,1,.342-6.537h-6.879a49.721,49.721,0,0,1,.341,6.586v4.879c0,.829,0,1.756.049,2.1.049.976.049.976.049,1.561a12.424,12.424,0,0,0-2.488-2.683,11.58,11.58,0,0,0-7.416-2.244c-8.05,0-13.172,5.659-13.172,14.587,0,5.269,1.8,9.708,5.074,12.245A12.4,12.4,0,0,0,347-1.257c4.732,0,7.318-1.268,9.855-4.83-.049.634-.049,1.171-.049,1.756Zm-16.685-14c0-5.806,3.025-9.513,7.757-9.513a8.932,8.932,0,0,1,6.342,2.732,10.13,10.13,0,0,1,2.342,6.489,11.036,11.036,0,0,1-1.9,6.537,8.158,8.158,0,0,1-6.537,3.22c-4.88,0-8-3.659-8-9.464Zm47.811,14h6.586a39.234,39.234,0,0,1-.39-6.1V-21.162c0-3.317-.634-5.171-2.293-6.733-2.1-2.049-4.927-2.878-9.611-2.878-4.2,0-6.928.732-9.318,2.488-1.854,1.317-2.732,2.586-3.854,5.415l6.245,1.122a5.316,5.316,0,0,1,1.951-3.122,8.8,8.8,0,0,1,5.074-1.415c3.708,0,5.61,1.464,5.61,4.293V-19.5c-6.976.146-10.587.634-13.758,1.951a8.655,8.655,0,0,0-5.513,7.9c0,5.123,3.61,8.2,9.562,8.2a17.263,17.263,0,0,0,4.537-.585,10.579,10.579,0,0,0,5.171-3.074Zm0-10.879a5.814,5.814,0,0,1-1.756,4.293A9.906,9.906,0,0,1,379.4-5.941c-2.732,0-4.44-1.415-4.44-3.708,0-3.805,3.659-5.415,12.977-5.61ZM407.35-1.941a43.406,43.406,0,0,1-.39-6.342v-9.855c2.147-4.83,5.025-7.269,8.538-7.269a4.589,4.589,0,0,1,4.1,2,8.014,8.014,0,0,1,.829,4.293V-8.283a51.833,51.833,0,0,1-.342,6.342h7.074a38.55,38.55,0,0,1-.39-6.342V-19.991c0-3.269-.488-5.22-1.659-6.83-1.756-2.391-4.537-3.61-8.294-3.61-4.391,0-6.976,1.366-9.952,5.171a19.053,19.053,0,0,0,.1-2.1v-2.586h-6.635a40.1,40.1,0,0,1,.39,6.342V-8.283a40.491,40.491,0,0,1-.39,6.342Zm51.226-20.051a16.237,16.237,0,0,0-1.708-3.561c-2.342-3.415-6.147-5.269-10.928-5.269a13.359,13.359,0,0,0-9.806,3.708,15.775,15.775,0,0,0-4.147,11.27c0,9.025,5.562,14.831,14.148,14.831,4.635,0,8.391-1.708,10.733-4.927a13.66,13.66,0,0,0,2.049-4.147l-6.049-1.22a6.817,6.817,0,0,1-.976,2.439,6.531,6.531,0,0,1-5.61,2.732c-4.927,0-7.952-3.757-7.952-9.855,0-6.05,2.976-9.806,7.757-9.806a6.138,6.138,0,0,1,5.025,2.244,8.792,8.792,0,0,1,1.512,2.976Zm31.324,7.66c-.1-1.122-.1-1.268-.1-1.366a20.054,20.054,0,0,0-1.415-7.416c-1.951-4.879-6.44-7.708-12.148-7.708-8.342,0-13.758,5.9-13.758,14.929,0,9.123,5.464,14.88,14.1,14.88a13.855,13.855,0,0,0,10.05-3.757A13.712,13.712,0,0,0,489.6-9.258l-5.757-1.854a7.09,7.09,0,0,1-1.415,2.537,7.714,7.714,0,0,1-5.854,2.439,7.668,7.668,0,0,1-6.1-2.732c-1.122-1.415-1.561-2.781-1.8-5.464Zm-21.076-4.83c.732-4.1,3.513-6.635,7.318-6.635a6.957,6.957,0,0,1,5.269,1.951,7.658,7.658,0,0,1,2.147,4.683Z" transform="translate(179.971 452)" fill="#0080f4"/>
    </g>
  </g>
</svg>
