<svg xmlns="http://www.w3.org/2000/svg" width="58.741" height="58.699" viewBox="0 0 58.741 58.699">
  <g id="自然语言处理" transform="translate(-136.128 -141.279)">
    <path id="路径_37277" data-name="路径 37277" d="M182.264,199.978a.689.689,0,0,0,.688-.689v-5.284l.239-.05a4.664,4.664,0,0,0,3.712-4.546v-1.291l.3,0h.064a7.6,7.6,0,0,0,.834-15.154l-.237-.026-.028-.236a7.508,7.508,0,0,0-.9-2.769l-.038-.068v-4.873l4.738-4.738a.7.7,0,0,0,.2-.487v-4.323l.224-.058a3.652,3.652,0,1,0-1.825,0l.225.058v4.039L186.9,163.05v-5.255a.671.671,0,0,0-.2-.487l-2.762-2.763v-6.014l.225-.058a3.653,3.653,0,1,0-1.825,0l.224.058v6.015l-2.761,2.766a.675.675,0,0,0-.2.487v8.241l-.262.033c-.106.014-.208.029-.314.046a7.639,7.639,0,0,0-.915.205l-.084.012h-.168l-.107-.143a8.6,8.6,0,0,0-1.285-1.606l-.074-.073-.013-.1a6.637,6.637,0,0,0-4.516-5.494l-.465-.152,2.459-2.458a.676.676,0,0,0,.2-.487v-5.314l.224-.058a3.653,3.653,0,1,0-1.825,0l.225.058v5.029l-3.75,3.75a.692.692,0,0,0-.2.487v2.449l-.233.052a8.57,8.57,0,0,0-1.3.422l-.318.128-.085-.333a4.6,4.6,0,0,0-4.3-3.487l-.287-.012v-2.555l.225-.059a3.653,3.653,0,1,0-1.826,0l.224.059v5.2l-.27.027a9,9,0,0,0-3.824,1.29l-.457.281v-7.418a.694.694,0,0,0-.2-.488l-3.75-3.75v-3.057l.225-.058a3.652,3.652,0,1,0-1.826,0l.224.058v7.01l-5.239,5.24-5.24-5.239v-3.057l.224-.059a3.653,3.653,0,1,0-1.825,0l.225.059v3.332a.674.674,0,0,0,.2.487l1.489,1.49-3.465,3.473a.7.7,0,0,0-.2.487l-.037,15.108a7.589,7.589,0,0,0,6.638,11.266h26v1.288a4.65,4.65,0,0,0,4.639,4.64h2.277v.3A5.644,5.644,0,0,0,182.264,199.978Zm6.615-48.109h0a2.276,2.276,0,1,1,2.275,2.277A2.279,2.279,0,0,1,188.879,151.868Zm-17.783-4.94h0a2.277,2.277,0,0,1,2.27-2.28h.006a2.276,2.276,0,1,1-2.276,2.281Zm-33.59,1.971a2.276,2.276,0,1,1,2.275,2.276A2.278,2.278,0,0,1,137.506,148.9Zm44.068,49.663-.375-.1a4.258,4.258,0,0,1-3.188-4.116v-.3h3.564Zm-.6-53.609h0a2.275,2.275,0,1,1,2.276,2.278A2.279,2.279,0,0,1,180.975,144.953Zm0,13.122,2.272-2.269,2.278,2.269v10l-.492-.413c-.075-.055-.106-.078-.137-.1l-.182-.133c-.134-.1-.256-.181-.381-.26-.059-.037-.119-.072-.18-.106l-.064-.038c-.12-.069-.239-.138-.363-.2-.108-.055-.2-.094-.295-.137l-.155-.07a1.8,1.8,0,0,0-.169-.074c-.184-.072-.365-.133-.547-.191l-.034-.328-.084.288a7.5,7.5,0,0,0-1.2-.246l-.264-.032Zm-10.873,1.908.336.041a5.225,5.225,0,0,1,3.741,2.3l.553.838-.922-.4a8.534,8.534,0,0,0-1.183-.415,8.971,8.971,0,0,0-1.048-.209l-.083-.012a8.2,8.2,0,0,0-1.064-.072h-.3l-.031-.3Zm-7.582.4a3.249,3.249,0,0,1,2.989,2.672l.117.656-.568-.347a8.611,8.611,0,0,0-2.624-1.067l-.234-.052v-1.884Zm-3.284-7.524h0a2.275,2.275,0,1,1,2.276,2.276A2.279,2.279,0,0,1,159.24,152.855Zm-9.88-7.9h0a2.276,2.276,0,1,1,2.277,2.276A2.279,2.279,0,0,1,149.36,144.952Zm2.763,11.353a.684.684,0,0,0,.2-.488v-2.291L154.9,156.1v8.078l-.1.089a8.579,8.579,0,0,0-1.613,1.921l-.088.143-.273-.012a7.361,7.361,0,0,0-.912-.2c-.11-.02-.215-.034-.319-.046a7.794,7.794,0,0,0-.82-.06l-.089-.006h-.014a7.332,7.332,0,0,0-.973.063l-.339.045v-1.4a.67.67,0,0,0-.2-.487l-2.477-2.478ZM138.5,162.031l3.262-3.263L147.985,165v1.482l-.187.076c-.051.02-.1.044-.149.068l-.2.09c-.08.036-.159.071-.237.112-.12.06-.233.127-.347.193l-.268.158c-.117.074-.239.158-.361.245-.07.051-.14.1-.211.156-.116.09-.23.183-.344.285-.065.056-.12.108-.178.16l-.115.1-.011.009-.1.1a7.6,7.6,0,0,0-2.181,4.471l-.029.232-.232.03c-.131.015-.26.04-.386.062l-.2.035c-.188.037-.362.082-.536.13l-.189.049c-.129.038-.258.087-.389.135l-.171.062c-.042.014-.083.029-.124.045-.073.03-.14.063-.206.094l-.129.062a7.519,7.519,0,0,0-1.319.791l-.069.05c-.027.019-.055.038-.08.059l-.491.408-.053-.6Zm26.639,24.714-.033-.263a7.545,7.545,0,0,0-1.811-4.035l-.081-.093.007-.122a4.256,4.256,0,0,1,3.927-3.98v-1.377a5.605,5.605,0,0,0-5.081,3.971l-.116.377-.332-.212a7.525,7.525,0,0,0-3.752-1.175v1.378A6.216,6.216,0,0,1,163.7,186.4l.06.35H143.729a6.23,6.23,0,0,1-3.456-11.4l.081-.049a6.257,6.257,0,0,1,1.009-.532h0l.087-.032a6.319,6.319,0,0,1,1.083-.324l.086-.006a6.167,6.167,0,0,1,5.305,1.508l.976-.976A7.591,7.591,0,0,0,144.76,173l-.3-.04.047-.3a6.262,6.262,0,0,1,2.687-4.224l.079-.048a6.405,6.405,0,0,1,1.01-.533l.089-.033a6.249,6.249,0,0,1,1.085-.32l.086-.006a6.076,6.076,0,0,1,2.273,0,6.213,6.213,0,0,1,1.085.315l.156.058a6.16,6.16,0,0,1,1.786,1.13l.976-.976a7.555,7.555,0,0,0-1.21-.9l-.267-.161.171-.26a7.212,7.212,0,0,1,6.02-3.273,7.457,7.457,0,0,1,3.2.762l.287.143-.162.276a4.568,4.568,0,0,0-.46,1.062l-.018.054a4.608,4.608,0,0,0,1.5,4.78l.812-1.117a3.25,3.25,0,0,1-1.055-2.973l.057-.134a7.222,7.222,0,0,1,1.182-1.245l.081-.049a6.594,6.594,0,0,1,.955-.646,7.227,7.227,0,0,1,1.025-.467c.067-.025.138-.049.21-.072a6.96,6.96,0,0,1,1-.257l.107-.016a7.8,7.8,0,0,1,1.162-.1,7.215,7.215,0,0,1,1.018.073,7.308,7.308,0,0,1,5.018,3.2l.171.261-.268.161a7.6,7.6,0,0,0-1.21.9l.976.976a6.14,6.14,0,0,1,1.791-1.131c.026-.012.06-.024.093-.036a6.6,6.6,0,0,1,1.1-.329,6.335,6.335,0,0,1,2.373-.007,5.914,5.914,0,0,1,1.115.321l-.026.311.115-.277a6.194,6.194,0,0,1,.974.512l.113.068a6.457,6.457,0,0,1,.9.736,6.243,6.243,0,0,1,1.87,4.441.689.689,0,0,0,.688.688,6.227,6.227,0,0,1,0,12.454h-6.264l-.034-.263a7.529,7.529,0,0,0-1.81-4.035l-.084-.094.011-.127a3.279,3.279,0,0,1,2.938-2.982v-1.381a4.656,4.656,0,0,0-4.039,3.032l-.129.353-.315-.2a7.541,7.541,0,0,0-3.81-1.21v1.378A6.218,6.218,0,0,1,179.5,186.4l.06.349Zm9.23,5.928a3.272,3.272,0,0,1-3.263-3.264v-1.288h14.427v1.288a3.272,3.272,0,0,1-3.263,3.264Z" fill="#ef54a1"/>
    <path id="路径_37278" data-name="路径 37278" d="M140.441,175.593h0Z" fill="#ef54a1"/>
    <path id="路径_37279" data-name="路径 37279" d="M182.463,168.092h0Z" fill="#ef54a1"/>
  </g>
</svg>
