<svg xmlns="http://www.w3.org/2000/svg" width="59.087" height="58.725" viewBox="0 0 59.087 58.725">
  <g id="人机交互技术" transform="translate(-3.719 -30.447)">
    <g id="组_2084" data-name="组 2084" transform="translate(3.719 29.447)">
      <g id="人机" transform="translate(-818.913 -920.471)">
        <path id="路径_36992" data-name="路径 36992" d="M878,979.443V936.582a.752.752,0,0,0-.51-.711,18.729,18.729,0,0,0-6.1-.994,17.907,17.907,0,0,0-12.191,4.767l-.315.312-.357-.057-6.315-.008a4.255,4.255,0,0,1,0-8.511h12.518a4.508,4.508,0,0,0,0-9.016l-33.734-.023a19.161,19.161,0,0,0-5.566-.87,18.562,18.562,0,0,0-6,.994.75.75,0,0,0-.51.712v46.366a.752.752,0,0,0,.25.519.74.74,0,0,0,.544.189.752.752,0,0,0,.708-.793V923.723l.364-.1a17.043,17.043,0,0,1,4.632-.641h.011c8.835,0,16.023,6.8,16.023,15.16a.762.762,0,0,0,.022.178l2.27,9.08h-5.3a.752.752,0,0,0-.752.752v10.514l-11.766.006a.753.753,0,0,0,.028,1.5h4.227l.037,9.4a.761.761,0,0,0,.1.25.73.73,0,0,0,.18.2l.11.1,5.835,3.493v5.833a.752.752,0,1,0,1.5,0v-6.258a.758.758,0,0,0-.366-.645L831.681,969v-8.838h6.759a.753.753,0,0,0,.752-.752V948.9H844.7a.75.75,0,0,0,.729-.933l-2.475-9.984a16.151,16.151,0,0,0-5.231-11.743,18.077,18.077,0,0,0-1.844-1.467l-1.286-.908h30.138a3,3,0,0,1,0,6.007H852.21a5.76,5.76,0,0,0,0,11.519h5.31l-.563.79a16.018,16.018,0,0,0-2.993,9.209l-.015.117-2.467,9.868a.746.746,0,0,0,.2.714.746.746,0,0,0,.531.221h5.507v10.517a.753.753,0,0,0,.752.748h6.759v5.87a.752.752,0,0,0,.752.752h11.266a.751.751,0,0,0,.753-.753Zm-1.505-.747h-9.763v-5.122h3a.753.753,0,0,0,.49-1.251.754.754,0,0,0-.518-.25h-3.773l-.021-.006h-6.693V961.554a.752.752,0,0,0-.752-.752h-5.3l2.271-9.08a.736.736,0,0,0,.022-.179c0-8.359,7.188-15.16,16.023-15.16a15.432,15.432,0,0,1,4.643.641l.364.1Z" fill="#91f0d2"/>
        <path id="路径_36993" data-name="路径 36993" d="M832.812,947.392a.755.755,0,0,0-.061-1.063.735.735,0,0,0-.543-.189H827.8a2.378,2.378,0,0,1-.011-4.755h4.505a.753.753,0,0,0,.458-1.313.744.744,0,0,0-.5-.19H827.8a3.881,3.881,0,1,0,0,7.762h3.78l-.009-.046.64.04A.8.8,0,0,0,832.812,947.392Z" fill="#91f0d2"/>
        <path id="路径_36994" data-name="路径 36994" d="M867.858,952.411h-4.5a.751.751,0,0,0-.7.793.755.755,0,0,0,.794.708h4.409a2.378,2.378,0,0,1,.011,4.755h-4.392a.753.753,0,0,0,.028,1.5h4.616a3.882,3.882,0,0,0-.263-7.755Z" fill="#91f0d2"/>
        <path id="路径_36995" data-name="路径 36995" d="M863.317,926.119a.752.752,0,0,0,.093,1.5h.09a.752.752,0,0,0-.012-1.5Z" fill="#91f0d2"/>
        <path id="路径_36996" data-name="路径 36996" d="M860.621,926.827a.745.745,0,0,0-.25-.518.755.755,0,0,0-.544-.191h-.219a.753.753,0,0,0-.459,1.313.738.738,0,0,0,.543.189h.217a.752.752,0,0,0,.712-.793Z" fill="#91f0d2"/>
        <path id="路径_36997" data-name="路径 36997" d="M851.389,935.675a.746.746,0,0,0,.25.518.732.732,0,0,0,.544.191h.227a.752.752,0,0,0-.093-1.5H852.1a.752.752,0,0,0-.711.793Z" fill="#91f0d2"/>
      </g>
    </g>
  </g>
</svg>
