<svg xmlns="http://www.w3.org/2000/svg" width="60.354" height="60.354" viewBox="0 0 60.354 60.354">
  <g id="文字识别" transform="translate(-12.32 -138.68)">
    <path id="路径_37281" data-name="路径 37281" d="M72.674,147.932V138.68H63.422v1.34h7.912v7.912Z" fill="#ef54a1"/>
    <path id="路径_37282" data-name="路径 37282" d="M21.571,138.68H12.32v9.256h1.34V140.02h7.911Z" fill="#ef54a1"/>
    <path id="路径_37283" data-name="路径 37283" d="M12.32,189.782v9.252h9.255v-1.34H13.66v-7.912Z" fill="#ef54a1"/>
    <path id="路径_37284" data-name="路径 37284" d="M71.334,189.782v7.912H63.422v1.34h9.252v-9.252Z" fill="#ef54a1"/>
    <path id="路径_37285" data-name="路径 37285" d="M45.793,163.489a3.055,3.055,0,0,0-1.837.635l-.108.084-.133-.035a4.858,4.858,0,1,0-1.368,9.556H42.5a4.9,4.9,0,0,0,4.852-4.5l.01-.135.113-.076a3.021,3.021,0,0,0-1.68-5.524Zm.078,6.4a3.526,3.526,0,1,1-3.373-4.553l.124,0,.353.013-.092.34a3.051,3.051,0,0,0,2.153,3.739,3.092,3.092,0,0,0,.586.1l.352.024Zm1.6-3.379a1.666,1.666,0,0,1-1.043,1.55,1.684,1.684,0,0,1-1.3-.027,1.708,1.708,0,0,1-1.014-1.517,1.743,1.743,0,0,1,.414-1.112,1.709,1.709,0,0,1,1.265-.573,1.685,1.685,0,0,1,1.682,1.677Z" fill="#ef54a1"/>
    <path id="路径_37288" data-name="路径 37288" d="M65.291,168.859l-.345-.424c-.264-.326-6.583-8.022-15.418-11.1l-.188-.065V145.962h2.59l.068.182a2.414,2.414,0,1,0,0-1.7l-.068.182H48v12.233l-.351-.092a20.877,20.877,0,0,0-4.213-.653l-.266-.014V144.639l.186-.067a2.531,2.531,0,1,0-1.711,0l.185.067V156.1l-.265.014a20.881,20.881,0,0,0-4.214.653l-.352.092V144.618H33.06l-.069-.181a2.414,2.414,0,0,0-3.11-1.408,2.414,2.414,0,1,0,3.11,3.111l.069-.182h2.59v11.311l-.188.065c-8.889,3.094-15.148,10.775-15.41,11.1l-.344.424.344.424c.264.326,6.57,8.02,15.407,11.1l.188.065v11.539H33.059l-.069-.181a2.413,2.413,0,1,0,0,1.7l.069-.182h3.93V180.861l.352.093a20.907,20.907,0,0,0,4.215.653l.265.014v11.691l-.185.066A2.535,2.535,0,0,0,40.1,196.62a2.536,2.536,0,1,0,3.243-3.242l-.186-.066V181.621l.266-.014a20.877,20.877,0,0,0,4.213-.653l.351-.093v12.472h3.933l.068.181A2.41,2.41,0,1,0,56.5,191.8a2.4,2.4,0,0,0-4.5.007l-.068.181H49.34V180.451l.188-.065c8.838-3.075,15.154-10.777,15.418-11.1ZM54.247,144.22a1.07,1.07,0,1,1-1.07,1.07A1.071,1.071,0,0,1,54.247,144.22Zm-23.505,2.14h0a1.07,1.07,0,1,1,1.071-1.07A1.071,1.071,0,0,1,30.741,146.36Zm0,47.37h0a1.069,1.069,0,1,1,1.073-1.069A1.074,1.074,0,0,1,30.742,193.73ZM53.488,191.9a1.06,1.06,0,0,1,.757-.314h0a1.072,1.072,0,0,1,1.069,1.068v0a1.07,1.07,0,1,1-1.828-.757Zm-11.816-48.85a1.179,1.179,0,0,1-.363-.839A1.206,1.206,0,0,1,42.485,141H42.5a1.194,1.194,0,0,1,.017,2.388H42.5A1.182,1.182,0,0,1,41.672,143.054Zm-8.485,34.9a40.176,40.176,0,0,1-11.563-8.907l-.168-.187.168-.187a40.045,40.045,0,0,1,11.57-8.917l1.512-.775L33.523,160.2a12.38,12.38,0,0,0-.007,17.311l1.18,1.219Zm10.5,17.8a1.19,1.19,0,0,1-1.186,1.194h-.009a1.194,1.194,0,1,1,1.195-1.194ZM42.5,180a11.144,11.144,0,1,1,11.145-11.144A11.157,11.157,0,0,1,42.5,180Zm20.874-10.957a40.139,40.139,0,0,1-11.562,8.909l-1.512.776,1.182-1.22a12.377,12.377,0,0,0,.007-17.3l-1.18-1.22,1.509.776a40.267,40.267,0,0,1,11.556,8.9l.169.188Z" fill="#ef54a1"/>
  </g>
</svg>
