<svg xmlns="http://www.w3.org/2000/svg" xmlns:xlink="http://www.w3.org/1999/xlink" width="697" height="337" viewBox="0 0 697 337"><defs><style>.a{fill:#fff;}.b{clip-path:url(#a);}.c,.d,.e,.f,.g,.h,.i,.m,.n{fill:none;}.c,.e{stroke:#0080f4;}.c,.d,.e,.f,.g,.h,.i{stroke-miterlimit:10;}.d,.f{stroke:#ef54a1;}.e,.f,.g,.h{stroke-linecap:round;}.g,.i,.m{stroke:#000;}.h{stroke:#0c111a;}.j{fill:#ef54a1;}.k{fill:#0080f4;}.l{opacity:0.1;}.n{stroke:#707070;}.o{fill:#2d3436;}.p{fill:#636e72;}</style><clipPath id="a"><rect class="a" width="690" height="333.626" transform="translate(50 88)"/></clipPath></defs><g transform="translate(16.315 -160)"><rect class="a" width="690" height="334" transform="translate(-16.315 163)"/><g class="b" transform="translate(-59.315 72)"><g transform="translate(128.72 110.573)"><g transform="translate(281.423 65.383)"><rect class="c" width="21.226" height="21.506" rx="6.75" transform="translate(0 48.328)"/><rect class="c" width="15.297" height="15.594" rx="6.75" transform="translate(5.09 93.213)"/><rect class="c" width="12.512" height="12.755" rx="5.568" transform="translate(41.073 120.896)"/><rect class="d" width="12.512" height="12.755" rx="5.568" transform="translate(181.521 120.896)"/><g transform="translate(10.633 2.118)"><path class="e" d="M83.38,43.043s-9.927,9.337-12.765,19.93" transform="translate(-55.025 -29.355)"/><path class="e" d="M73.425,32.981S61.633,43.734,58.6,56.725" transform="translate(-47.562 -23.108)"/><path class="e" d="M63.025,19.274S47.475,33.3,43.518,48.535" transform="translate(-38.201 -14.597)"/><path class="e" d="M52.359,6.938S36.529,18.171,29.494,41.2" transform="translate(-29.494 -6.938)"/></g><g transform="translate(196.288 0.916)"><path class="f" d="M519.192,36.531s8.241,11.024,9.2,21.948" transform="translate(-519.192 -24.11)"/><path class="f" d="M527.61,28.052s9.756,12.63,10.5,25.951" transform="translate(-524.419 -18.845)"/><path class="f" d="M532.68,15.025s12.89,16.508,14.154,32.193" transform="translate(-527.566 -10.757)"/><path class="f" d="M539.9,3.768s13.649,13.8,16.6,37.695" transform="translate(-532.05 -3.768)"/></g><path class="g" d="M171.672,16.741s-2.958-9.314-19.387-12.831H136.136l-17.948.72S86.528,10.945,78.154,41.964v72.7s-.06,3.171,3.618,3.211,25.144,0,25.144,0a2.046,2.046,0,0,1,2.228,2.228v33.681s-.17,2.305,2.009,2.305H224.344V123.217a6.209,6.209,0,0,1,6.209-6.209h15.283a4.544,4.544,0,0,0,4.543-4.544v-9.021a10.253,10.253,0,0,1,1.4-3.078c.959-1.319,2.638-2.278,0-4.877.519-.56,2.079-1.159,2.358-3.158V87.414l7.435-4.118s1.959-2.039,0-5.556L248.782,60.352s-1.719-1.4-.16-4.4l4.357-7.275-6.836-21.746s-4.1-15.243-28.408-23.025-53.3,3.837-62.466,12.9a49.157,49.157,0,0,0-10.591,15.338" transform="translate(-49.073 -1.352)"/><path class="g" d="M157.074,12.615H183.9L187.774,8.1" transform="translate(-98.073 -5.54)"/><path class="g" d="M215.191,15.057H195.977l-3.944,4.983H176.044l-3.837,4.9H167.2v4.164" transform="translate(-104.358 -9.861)"/><path class="g" d="M134.159,32.348V42.5l2.612,2.239v5.037" transform="translate(-83.845 -20.597)"/><path class="g" d="M128.465,36.566v9.993l2.478,2.265v4.983" transform="translate(-80.31 -23.215)"/><path class="g" d="M122.631,41.205v9.807l2.665,2.345v4.823" transform="translate(-76.688 -26.096)"/><path class="g" d="M117.008,45.985v9.62l2.532,2.185v5.063" transform="translate(-73.197 -29.064)"/><circle cx="1.979" cy="1.979" r="1.979" transform="translate(52.002 12.907)"/><circle cx="2.906" cy="2.906" r="2.906" transform="translate(178.015 15.549)"/><circle cx="3.558" cy="3.558" r="3.558" transform="translate(163.812 21.105)"/><circle cx="3.323" cy="3.323" r="3.323" transform="translate(155.733 12.706)"/><circle cx="2.58" cy="2.58" r="2.58" transform="translate(155.829 30.371)"/><circle cx="2.373" cy="2.373" r="2.373" transform="translate(164.259 37.122)"/><circle cx="2.091" cy="2.091" r="2.091" transform="translate(147.73 23.716)"/><circle cx="2.373" cy="2.373" r="2.373" transform="translate(147.008 39.253)"/><circle cx="2.419" cy="2.419" r="2.419" transform="translate(38.504 26.701)"/><circle cx="1.611" cy="1.611" r="1.611" transform="translate(37.756 55.141)"/><circle cx="1.641" cy="1.641" r="1.641" transform="translate(36.141 62.773)"/><circle cx="1.641" cy="1.641" r="1.641" transform="translate(71.877 58.292)"/><circle cx="1.595" cy="1.595" r="1.595" transform="translate(48.681 95.961)"/><circle cx="1.595" cy="1.595" r="1.595" transform="translate(30.704 84.981)"/><path class="g" d="M84.184,60.979h23.237l8.528-14.993h32.619v-3.3h60.6" transform="translate(-52.817 -27.012)"/><path class="g" d="M148.428,44.052l2.945,2.172v8.088" transform="translate(-92.705 -27.863)"/><path class="g" d="M247.893,33.122H225.161L221.11,39.89" transform="translate(-137.832 -21.077)"/><path class="g" d="M249.435,36.531H229.321l-3.238,5.39" transform="translate(-140.919 -23.194)"/><path d="M191.961,32.489l-2.8,3.744h5.383Z" transform="translate(-117.996 -20.684)"/><path class="g" d="M79,249.062h33.8l8.579,6.918a1.074,1.074,0,0,0,.673.237h79.9a.853.853,0,0,0,.853-.853V243.533l-7.088-3.3v-15.35" transform="translate(-49.596 -140.134)"/><path class="g" d="M79.364,105.03h9.927v3.784s-4.963,3.877-4.963,8.395v23.944L79,147.789" transform="translate(-49.596 -65.723)"/><line class="g" x1="9.973" transform="translate(29.401 41.652)"/><path class="g" d="M97.919,174.268v13.351l-2,2.119v4.837l1.559,1.119v13.191" transform="translate(-60.104 -108.712)"/><path class="g" d="M86.642,210.31v17.148H96.2l3-3.957V196.2h2.079s2.718,3.4,11.193,2.878v17.888a3.1,3.1,0,0,1-3.1,3.1H105.71" transform="translate(-54.343 -122.328)"/><path class="g" d="M91.843,206.733v12.179h5.943l2.265-3.091V186.639h3.624" transform="translate(-57.572 -116.393)"/><path class="g" d="M120.575,201.647l5.323,5.27h3.578l1.939,2.2" transform="translate(-75.412 -125.711)"/><path class="g" d="M120.7,208.852l5.217,5.3h3.877l1.7,2.179" transform="translate(-75.488 -130.184)"/><path class="g" d="M120.7,216.812l5.177,5.177h3.877l1.739,2.219" transform="translate(-75.488 -135.127)"/><path class="g" d="M120.7,223.982l5.177,5.217h3.9l1.719,2.259" transform="translate(-75.488 -139.578)"/><path class="g" d="M141.944,270.058h13.911l9.134,7.355h29.354" transform="translate(-88.679 -168.186)"/><path class="g" d="M138.265,275.91h13.766l8.688,7.249h30.7" transform="translate(-86.395 -171.819)"/><path class="g" d="M134.932,281.674h13.8l8.848,7.249H189.03" transform="translate(-84.326 -175.398)"/><path class="g" d="M210.107,232.153v9.574l-2.159,2.2.159,9.594" transform="translate(-129.66 -144.652)"/><path class="g" d="M235.112,231.732v7.022l-2.052,2.412v12.092" transform="translate(-145.251 -144.39)"/><path class="g" d="M241.347,231.732v7.895l-2.052,2.039v11.592" transform="translate(-149.122 -144.39)"/><path class="g" d="M167.832,324.827v19.107l-2.918,3.278h-3.8" transform="translate(-100.582 -202.191)"/><path class="g" d="M170.537,345.921l.107,12.9-4.557,3.491h-4.97" transform="translate(-100.582 -215.287)"/><line class="g" x2="48.843" transform="translate(60.534 150.9)"/><path class="g" d="M217.877,308.526v8.155l1.439,1.759v24.3" transform="translate(-135.824 -192.07)"/><path class="g" d="M224.063,308.526v7.035l2.132,2.292v24.89" transform="translate(-139.665 -192.07)"/><line class="g" y1="23.664" transform="translate(74.111 125.517)"/><line class="g" y1="16.416" transform="translate(76.776 132.925)"/><line class="g" y2="34.218" transform="translate(100.414 116.456)"/><path class="g" d="M322.963,217.881h10.82l5.516-8.927h27.3V172.5l-13.631-7.355V147.154l14.311-39.734" transform="translate(-201.07 -67.207)"/><path class="g" d="M160.343,69.782l5.317-10.633h54.2l3.837-4.237h27.822l4.357,4.2h8.514" transform="translate(-100.102 -34.606)"/><path class="g" d="M169.9,76.879l1.239,1.892,2.652-6.356h13.871" transform="translate(-106.038 -45.473)"/><path class="g" d="M192.2,81.282h-6.729l-.728,1.362a.348.348,0,0,1-.307.184h-2.382a.143.143,0,0,1-.134-.193l1.451-3.836a.2.2,0,0,1,.185-.128h8.231a.56.56,0,0,1,.56.56v1.905A.147.147,0,0,1,192.2,81.282Z" transform="translate(-113.496 -49.358)"/><path class="g" d="M263.039,81.941h22.9L297.817,68.83h14.95" transform="translate(-163.865 -43.247)"/><path class="g" d="M263.039,111.638h22.505l3.278,5.916h8.794" transform="translate(-163.865 -69.826)"/><path class="g" d="M155.739,205.759h2.318l8.528,9.54h30.007" transform="translate(-97.244 -128.264)"/><path class="g" d="M164.771,196.515l9.214,10.413h26.822" transform="translate(-102.852 -122.525)"/><path class="g" d="M119.592,134.833a13.392,13.392,0,1,0-1.335-4.054" transform="translate(-73.869 -72.052)"/><path class="g" d="M142.582,127.509a20.318,20.318,0,0,0-11.324-26.744.2.2,0,0,0-.249.1l-.575,1.337a.191.191,0,0,1-.243.1,18.123,18.123,0,1,0,9.771,25.318h12.994l2.418,3.964h2.818" transform="translate(-66.203 -63.067)"/><path class="g" d="M178.757,128.817a16.278,16.278,0,0,0,.465-3.873,14.8,14.8,0,0,0-6.38-12.605l.813-1.506a6.778,6.778,0,0,0-3.144-1.585c-.373.533-1.732,3.278-1.732,3.278" transform="translate(-105.34 -68.342)"/><circle class="e" cx="10.662" cy="10.662" r="10.662" transform="translate(46.99 45.94)"/><path class="h" d="M143.262,133.238v12.89a.04.04,0,0,0,.059.035l11.187-6.25a.109.109,0,0,0,0-.189l-11.2-6.513A.031.031,0,0,0,143.262,133.238Z" transform="translate(-89.497 -83.218)"/><path class="e" d="M146.77,139.756v7.966a.024.024,0,0,0,.036.021l6.914-3.862a.067.067,0,0,0,0-.117L146.8,139.74A.019.019,0,0,0,146.77,139.756Z" transform="translate(-91.675 -87.272)"/><line class="e" y1="0.433" x2="12.823" transform="translate(35.037 60.826)"/><path class="g" d="M194.188,175.533H206.86l2.688,4.037h3.868" transform="translate(-121.116 -109.497)"/><line class="g" x2="39.054" transform="translate(95.697 69.18)"/><path class="g" d="M277.2,212.667h10.953l5.17-6.909h9.434" transform="translate(-172.659 -128.264)"/><path class="g" d="M281.772,220.013h10.313l5.25-6.662h6.422" transform="translate(-175.495 -132.977)"/><path class="g" d="M256.186,157.056v3.358h34.527v1.157a.08.08,0,0,0,.117.072l4.57-2.337a.081.081,0,0,0,.01-.139l-4.537-3.215a.031.031,0,0,0-.05.026v1.078Z" transform="translate(-159.609 -97.336)"/><path class="g" d="M458.1,57.021V67.574H445.553V63.417" transform="translate(-277.183 -35.915)"/><path class="g" d="M373.011,134.385h1.479l7.035-19.267" transform="translate(-232.144 -71.986)"/><path class="g" d="M366.474,127.681h6.356L386.341,93.4" transform="translate(-228.085 -58.501)"/><path class="g" d="M353.4,126.82h13.271l19.507-53.245" transform="translate(-219.967 -46.193)"/><path class="g" d="M359.738,178.171h9.289l5.3-14.47,3.747-3.427" transform="translate(-223.903 -100.023)"/><path class="f" d="M361.291,94.122h-4.917V89.865h5.157v10.773h-5.336" transform="translate(-221.702 -56.308)"/><path class="e" d="M239.949,89.847h5.476v4.211h-4.85v2.478h4.85v4.037h-5.317" transform="translate(-149.528 -56.297)"/><path class="g" d="M236.469,127.451" transform="translate(-147.368 -79.644)"/><path class="i" d="M302.75,311.97a56.9,56.9,0,0,1,.2,6.2v26.942h-6.276v-30.3s.112-2.446.16-2.838" transform="translate(-184.748 -194.208)"/><line class="i" y2="5.743" transform="translate(80.587 73.897)"/><line class="i" y2="5.743" transform="translate(83.119 73.897)"/><line class="i" y2="4.823" transform="translate(85.93 73.897)"/><line class="i" x2="19.774" transform="translate(66.863 36.375)"/><line class="i" x2="16.229" transform="translate(70.407 38.507)"/><line class="i" x2="13.351" transform="translate(73.285 40.586)"/><line class="i" x1="10.979" transform="translate(75.657 42.585)"/><line class="i" x1="9.487" transform="translate(77.149 44.61)"/><line class="i" x1="8.554" transform="translate(78.082 46.822)"/><line class="i" x1="7.888" transform="translate(78.748 48.98)"/><line class="i" x1="7.462" transform="translate(79.175 51.352)"/><line class="i" x1="7.009" transform="translate(79.628 53.484)"/><line class="i" x1="7.009" transform="translate(79.628 55.696)"/><line class="i" x1="6.769" transform="translate(79.868 57.801)"/><line class="i" x1="7.009" transform="translate(79.628 59.932)"/><line class="i" x1="7.302" transform="translate(79.335 61.932)"/><line class="d" y1="38.975" x2="0.407" transform="translate(109.728 115.442)"/><path class="d" d="M291.929,195.387s.92-7.53,4.937-12.709c.5-.342,1.939-4.14,3.578-6.178s11.992-16.536,14.47-22.958,4.957-8.823,5.277-26.09h2.478s.12,17.909-6.376,30.061-11.473,17.7-13.9,21.282-7.385,11.5-7.7,14.935" transform="translate(-181.802 -79.644)"/><path class="g" d="M481.823,138.676l15.15-5.117v-4" transform="translate(-299.703 -80.955)"/><path class="g" d="M509.949,144.183v3.891l-.853,1.785" transform="translate(-316.636 -90.033)"/><line class="g" x2="10.26" y2="2.825" transform="translate(183.24 57.615)"/><path class="e" d="M33.823,257.575l-2.9,1.579v4.457l2.9,1.65a.2.2,0,0,0,.3-.172v-7.341A.2.2,0,0,0,33.823,257.575Z" transform="translate(-19.745 -160.42)"/><line class="e" x2="3.318" transform="translate(7.595 100.999)"/><line class="e" x1="2.765" transform="translate(14.637 99.441)"/><line class="e" x1="2.765" transform="translate(14.637 102.638)"/><rect class="d" width="15.297" height="15.594" rx="6.75" transform="translate(214.759 93.155)"/><path class="f" d="M583.881,265.111l2.9-1.58v-4.457l-2.9-1.65a.2.2,0,0,0-.3.172v7.341A.2.2,0,0,0,583.881,265.111Z" transform="translate(-362.887 -160.325)"/><line class="f" x1="3.318" transform="translate(224.159 100.941)"/><line class="e" y2="5.297" transform="translate(44.151 124.517)"/><path class="e" d="M125.548,324.823v8.72a.073.073,0,0,0,.119.057l2.976-2.418a.091.091,0,0,0-.012-.15l-2.8-1.615,2.518-2.148a.091.091,0,0,0,0-.138l-2.678-2.362A.073.073,0,0,0,125.548,324.823Z" transform="translate(-78.499 -202.143)"/><line class="e" x2="2.478" transform="translate(44.391 127.166)"/><path class="j" d="M595.027,169.452v1.907a.182.182,0,0,1-.282.151l-1.43-.953a.182.182,0,0,1,0-.3l1.43-.953A.182.182,0,0,1,595.027,169.452Z" transform="translate(-368.876 -105.609)"/><path class="j" d="M590.282,143.681v-1.906a.181.181,0,0,1,.282-.151l1.43.953a.182.182,0,0,1,0,.3l-1.43.953A.181.181,0,0,1,590.282,143.681Z" transform="translate(-367.043 -88.424)"/><g transform="translate(213.943 48.334)"><rect class="d" width="21.226" height="21.506" rx="6.75"/><path class="f" d="M581.937,149.088v-3.977a.26.26,0,0,1,.26-.26h3.438" transform="translate(-575.805 -138.782)"/><circle class="d" cx="3.145" cy="3.145" r="3.145" transform="translate(12.188 3.444)"/><line class="f" x2="1.266" transform="translate(16.039 6.163)"/><line class="f" x2="1.319" transform="translate(13.307 6.163)"/><g transform="translate(4.275 14.77)"><line class="f" x2="1.266" transform="translate(2.732)"/><line class="f" x2="1.319"/></g><path class="f" d="M597.1,164.539h3.4v-4.61" transform="translate(-585.221 -148.143)"/><circle class="f" cx="3.144" cy="3.144" r="3.144" transform="translate(3.13 12.105)"/><line class="f" y1="1.792" transform="translate(4.393 10.753)"/><line class="f" y1="1.792" transform="translate(7.981 10.753)"/></g><g transform="translate(183.161 122.548)"><path class="j" d="M495.461,329.556a.707.707,0,0,1,.629-.575c.288,0,.487.305.575.575a3.3,3.3,0,0,1,.162,1.024.12.12,0,0,1-.126.108c-.018,0-.038,0-.038-.018a1.1,1.1,0,0,0-.575-.144,1.165,1.165,0,0,0-.593.144.1.1,0,0,1-.136-.036.094.094,0,0,1-.008-.018c0-.018-.018-.018-.018-.038a3.989,3.989,0,0,1,.125-1.024Z" transform="translate(-491.252 -327.318)"/><path class="j" d="M490.142,330.667a.1.1,0,0,1-.136-.036.1.1,0,0,1-.008-.018c0-.018-.018-.018-.018-.038a3.889,3.889,0,0,1,.126-1.024.707.707,0,0,1,.629-.575c.287,0,.487.305.593.575a3.3,3.3,0,0,1,.162,1.024.12.12,0,0,1-.126.108c-.018,0-.038,0-.038-.018a1.118,1.118,0,0,0-.593-.144,1.315,1.315,0,0,0-.593.144Z" transform="translate(-487.928 -327.315)"/><path class="d" d="M488.012,335.6a8.7,8.7,0,0,0,.244,1.458" transform="translate(-486.706 -331.428)"/><path class="d" d="M492.5,331.657a1.678,1.678,0,0,0-1.348.072c.251-.521.521-1.078.754-1.653a5.239,5.239,0,0,0,.5-1.835,3.479,3.479,0,0,0-3.217-3.648,3.3,3.3,0,0,0-3.328,3.269c0,.055,0,.109,0,.164h0a6.858,6.858,0,0,0,.018.861l-.04,0a1.694,1.694,0,0,0-.876.39,1.64,1.64,0,0,0-.323.379c-.125.288-.125.647.234.737a1.17,1.17,0,0,0,.431-.108,1.626,1.626,0,0,1,.682-.176.4.4,0,0,1,.109.031,8.556,8.556,0,0,0,.629,1.76,5.407,5.407,0,0,0,1.043,1.51,1.925,1.925,0,0,0,1.294.629,3.483,3.483,0,0,0,1.923-.719c.27-.18.5-.359.683-.487a1.157,1.157,0,0,1,.4-.2,1.994,1.994,0,0,1,.539.144c.2.09.412.2.611.27a.122.122,0,0,0,.144-.072v-.014A1.364,1.364,0,0,0,492.5,331.657Zm-3.451-1.185a1.14,1.14,0,0,0-.88-.054,1.365,1.365,0,0,1-.467.018c-.467-.126-.287-.629-.09-.881a1.989,1.989,0,0,1,.665-.487,1.875,1.875,0,0,1,1.977.162" transform="translate(-484.568 -324.594)"/></g><g transform="translate(4.088 51.645)"><path class="k" d="M28.181,145.6a6.467,6.467,0,0,1,.2,1.658c0,.031-.029.031-.029.06a.136.136,0,0,1-.013.029.161.161,0,0,1-.22.058,1.877,1.877,0,0,0-.96-.233,1.77,1.77,0,0,0-.931.233c0,.029-.031.029-.061.029a.2.2,0,0,1-.2-.174,5.351,5.351,0,0,1,.262-1.658c.143-.436.465-.931.931-.931a1.146,1.146,0,0,1,1.018.931Z" transform="translate(-20.76 -141.983)"/><path class="k" d="M36.746,147.4a2.128,2.128,0,0,0-.96-.233,1.81,1.81,0,0,0-.96.233c0,.029-.031.029-.061.029a.2.2,0,0,1-.2-.174,5.34,5.34,0,0,1,.262-1.658c.172-.436.494-.931.96-.931a1.145,1.145,0,0,1,1.018.931,6.318,6.318,0,0,1,.2,1.658c0,.031-.029.031-.029.06a.157.157,0,0,1-.013.029.161.161,0,0,1-.22.058Z" transform="translate(-26.096 -141.98)"/><path class="c" d="M43.151,157.749a14.123,14.123,0,0,0,.394-2.359" transform="translate(-31.428 -148.636)"/><path class="c" d="M12.231,151.13v.024a.2.2,0,0,0,.233.116c.322-.116.669-.291.989-.436a3.241,3.241,0,0,1,.873-.233,1.886,1.886,0,0,1,.64.32c.291.206.669.5,1.105.787a5.636,5.636,0,0,0,3.112,1.164,3.116,3.116,0,0,0,2.094-1.018,8.743,8.743,0,0,0,1.687-2.443,13.852,13.852,0,0,0,1.018-2.848.631.631,0,0,1,.176-.051,2.624,2.624,0,0,1,1.1.284,1.89,1.89,0,0,0,.7.174c.582-.145.582-.727.378-1.192a2.658,2.658,0,0,0-.522-.613,2.741,2.741,0,0,0-1.418-.632l-.066-.008a11.174,11.174,0,0,0,.029-1.394h0q.005-.132,0-.265a5.338,5.338,0,0,0-5.385-5.291,5.631,5.631,0,0,0-5.206,5.9,8.475,8.475,0,0,0,.814,2.969c.378.931.814,1.832,1.222,2.676a2.717,2.717,0,0,0-2.181-.116A2.208,2.208,0,0,0,12.231,151.13Zm5.033-6.051a3.036,3.036,0,0,1,3.2-.262,3.215,3.215,0,0,1,1.076.788c.32.407.611,1.222-.146,1.425a2.212,2.212,0,0,1-.756-.029,1.845,1.845,0,0,0-1.425.087" transform="translate(-12.23 -137.575)"/></g><path class="e" d="M267.848,234.382s-.107-25.756.107-35.243-10.33-24.844-15.35-31.446c-5.277-6.5-13.751-24.517-13.645-38.055q.009-1.1.063-2.186h-2.555s.81,16.967,4.222,24.49c.122.269.233.54.33.819,2.737,7.915,10.243,19.262,15.741,25.965a35.877,35.877,0,0,1,7.875,14.444" transform="translate(-147.368 -79.644)"/></g><g class="l" transform="translate(94.25 -22)"><path class="i" d="M395.381,229.828l411.45.978,44.711,45.141v174.79l-423.094-.978-33.067-39.367Z" transform="translate(-353.033 -169.131)"/><path class="i" d="M484,214.777H837.464l28.869-30.444" transform="translate(-371.165 -160.451)"/><path class="i" d="M866.333,184.333H512.869L484,214.777" transform="translate(-470.089 102.659)"/><circle class="i" cx="13.532" cy="13.532" r="13.532" transform="translate(490.214)"/><circle class="i" cx="8.456" cy="8.456" r="8.456" transform="translate(0 315.035)"/><path class="m" d="M594.911,274.9l26.974-11.682H965.406" transform="translate(-516.818 -220.57)"/><path class="m" d="M965.406,263.214,938.432,274.9H594.911" transform="translate(-534.42 23.778)"/><path class="m" d="M413.437,293.133H387.292V466.608" transform="translate(-353.655 -238.806)"/><path class="n" d="M1645.295,462.333V611.086H1608.8" transform="translate(-1134.818 -341.939)"/><path class="m" d="M428.642,768.6l31.09,32.585" transform="translate(-392.057 -523.11)"/><path class="m" d="M1636.882,316.811l23.069,21.681" transform="translate(-1155.649 -244.99)"/></g></g></g><path class="o" d="M26.318-.191A3.636,3.636,0,0,0,25.348.943q-.246.4-.369.4a.853.853,0,0,1-.424-.191A22.414,22.414,0,0,1,14.137-14.273,20.733,20.733,0,0,1,3.473,1.121a1.428,1.428,0,0,1-.424.191q-.1,0-.383-.424a4.322,4.322,0,0,0-1.039-1,19.013,19.013,0,0,0,8.846-8.5A21.547,21.547,0,0,0,12.879-19.1a30.533,30.533,0,0,0-.191-3.322,14.591,14.591,0,0,1,2.092.219q.4.1.4.342a1.654,1.654,0,0,1-.164.547,4.021,4.021,0,0,0-.246,1.572q0,.984-.041,1.463A27.238,27.238,0,0,0,18.58-7.369,21.843,21.843,0,0,0,26.318-.191ZM68.742-3.609a16.746,16.746,0,0,1-.328,3.2A2.192,2.192,0,0,1,67.854.643a3.68,3.68,0,0,1-2.475.7,6.608,6.608,0,0,1-2.352-.273Q62.275.725,62.275-.7V-20.139h-4.7v2.967q-.041,8.6-1.025,12.51a16.353,16.353,0,0,1-3.035,6.139q-.287.342-.4.342-.082,0-.355-.273A3.957,3.957,0,0,0,51.693.752a14.3,14.3,0,0,0,3.445-6.918,62.466,62.466,0,0,0,.752-11.375l-.055-4.006q0-.246.219-.246l2.529.055h2.57l2.639-.055a.218.218,0,0,1,.246.246l-.055,4.99V-1.312q0,.793.191.916a3.085,3.085,0,0,0,1.258.164,1.621,1.621,0,0,0,1.354-.506q.355-.41.383-4.279a3.155,3.155,0,0,0,1.135.7q.451.191.451.465Q68.756-3.76,68.742-3.609ZM54.236-9.748a4.7,4.7,0,0,0-.7,1.285q-.137.369-.232.369t-.273-.314A30.007,30.007,0,0,1,49.984-14Q50-8.436,50.121-2.516q.041,1.449.082,3.295.027.9.027.984,0,.219-.246.219H48.631q-.246,0-.246-.219,0-.027.068-2.365.191-6.932.232-13.125a34.456,34.456,0,0,1-4.252,9.283q-.191.273-.3.273t-.26-.314a3.557,3.557,0,0,0-.725-1.121,37.652,37.652,0,0,0,5.127-10.076H47.264l-3.021.055q-.232,0-.232-.219v-1.121q0-.219.232-.219l3.021.055h1.23V-19.8a21.707,21.707,0,0,0-.191-3.418q.93.041,1.791.164.369.055.369.232a1.765,1.765,0,0,1-.164.561,8.612,8.612,0,0,0-.178,2.406v2.721h.752l3.049-.055q.232,0,.232.219v1.121q0,.219-.232.219l-3.049-.055h-.615A23.266,23.266,0,0,0,54.236-9.748Zm56,2.365a.193.193,0,0,1-.219.219l-3.65-.055H89.633l-3.65.055a.193.193,0,0,1-.219-.219V-8.627a.193.193,0,0,1,.219-.219l3.65.055h3.021V-15.23H91.342l-3.9.055q-.232,0-.232-.219v-1.244q0-.219.232-.219l3.9.055h1.313v-2.215a22.88,22.88,0,0,0-.205-3.719q.984.041,1.887.164.342.055.342.232a3.034,3.034,0,0,1-.205.615,16.418,16.418,0,0,0-.109,2.707V-16.8h7.027v-2.215a22.88,22.88,0,0,0-.205-3.719q.916.041,1.887.164.342.055.342.232a3.034,3.034,0,0,1-.205.615,16.418,16.418,0,0,0-.109,2.707V-16.8h1.709l3.855-.055q.232,0,.232.219v1.244q0,.219-.232.219l-3.855-.055H103.1v6.439h3.268l3.65-.055a.193.193,0,0,1,.219.219Zm-8.846-1.408V-15.23H94.363v6.439ZM109.867.137a4.2,4.2,0,0,0-.889,1.039q-.287.451-.424.451a.872.872,0,0,1-.369-.164,25.031,25.031,0,0,1-7.615-6.275.4.4,0,0,1-.082-.178q0-.068.26-.219l.834-.506a.466.466,0,0,1,.205-.082.3.3,0,0,1,.191.109A23.155,23.155,0,0,0,105.6-2.256,20.344,20.344,0,0,0,109.867.137Zm-14.561-5q0,.164-.342.383a3.963,3.963,0,0,0-.7.711,22.1,22.1,0,0,1-6.686,5.209,1.549,1.549,0,0,1-.424.137q-.137,0-.424-.369a3.5,3.5,0,0,0-.916-.889,19.638,19.638,0,0,0,6.549-4.457,5.267,5.267,0,0,0,1.148-1.791,11.786,11.786,0,0,1,1.531.752Q95.307-5.059,95.307-4.867ZM152.086.109a.193.193,0,0,1-.219.219L148.176.273H131.852l-3.705.055a.193.193,0,0,1-.219-.219v-1.3a.193.193,0,0,1,.219-.219l3.705.055H139.1V-7.643h-3.445l-3.924.055a.193.193,0,0,1-.219-.219V-9.078a.193.193,0,0,1,.219-.219l3.924.055H139.1v-5.783h-6.6a21.724,21.724,0,0,1-2.885,4.5q-.219.246-.314.246a1.1,1.1,0,0,1-.424-.273,3.109,3.109,0,0,0-1-.588,23.413,23.413,0,0,0,4.676-8.531,5.049,5.049,0,0,0,.3-1.6,10.658,10.658,0,0,1,1.709.479q.342.109.342.3a.6.6,0,0,1-.219.4,2.233,2.233,0,0,0-.451.889q-1,2.57-1.012,2.611H139.1v-2.324a24.508,24.508,0,0,0-.219-3.842q.971.041,1.955.15.342.041.342.246a.743.743,0,0,1-.055.232,1.86,1.86,0,0,0-.082.273,13.8,13.8,0,0,0-.178,2.885V-16.6h5.182l3.924-.055a.193.193,0,0,1,.219.219v1.244a.193.193,0,0,1-.219.219l-3.924-.055h-5.182v5.783h3.9l3.91-.055q.232,0,.232.219v1.271q0,.219-.232.219l-3.91-.055h-3.9v6.289h7.314l3.691-.055a.193.193,0,0,1,.219.219Zm42.123-16.064h-3.076V-.643A1.976,1.976,0,0,1,190.682.69a1.937,1.937,0,0,1-1.046.663,12.1,12.1,0,0,1-2.263.137q-.875,0-2.27-.041l-.7-1.477q3.883.027,4.56,0t.677-.67V-15.955h-9.885v-1.463h9.885v-5.51h1.49v5.51h3.076ZM178.664-.588h-1.449V-2.352h-4.676V.055h-1.463V-21.109h7.588Zm-1.449-11.963v-7.164h-4.676v7.164Zm0,8.8v-7.4h-4.676v7.4Zm9.543-2.242-1.23.779A41.341,41.341,0,0,0,181.6-12.4l1.2-.82A41.52,41.52,0,0,1,186.758-5.988Zm50.121,2.57q-.588,5.045-2.693,5.045a4.838,4.838,0,0,1-3.4-1.955,16.191,16.191,0,0,1-2.666-4.238,30.5,30.5,0,0,1-2.379-8.285l-2.748.342q-2.365.273-3.828.52a.588.588,0,0,1-.109.014q-.15,0-.178-.232l-.164-1.312v-.109q0-.15.232-.15.916,0,3.883-.355l2.68-.342q-.287-2.27-.41-4.648a27.512,27.512,0,0,0-.314-3.445,12.717,12.717,0,0,1,1.914.123q.369.041.369.273,0,.027-.15.533a3.108,3.108,0,0,0-.1.957q0,.479.027,1.477.15,2.652.4,4.539l4.621-.588q1.791-.219,3.021-.424.328-.041.656-.109.191-.027.219-.027a.449.449,0,0,1,.109-.014q.109,0,.137.205l.123,1.313a.589.589,0,0,1,.014.109q0,.123-.219.15l-3.937.451-4.539.561a27.593,27.593,0,0,0,2.215,7.67,13.669,13.669,0,0,0,2.5,3.883,2.963,2.963,0,0,0,1.859,1.135q.984,0,1.34-4.594a4.221,4.221,0,0,0,1.121.752q.438.219.438.438A2.471,2.471,0,0,1,236.879-3.418ZM220.09-22.039a.529.529,0,0,1-.232.4,3.392,3.392,0,0,0-.561,1.066,34.321,34.321,0,0,1-2.119,4.621V-2.516l.055,4.334q0,.232-.26.232h-1.34q-.219,0-.219-.232l.055-4.334V-9.488q0-1.2.055-3.787a34.921,34.921,0,0,1-3.117,3.814q-.246.246-.355.246-.164,0-.287-.273a3.747,3.747,0,0,0-.752-1.148,29.159,29.159,0,0,0,6.672-10.445,9.766,9.766,0,0,0,.438-1.9,11.334,11.334,0,0,1,1.682.643Q220.09-22.23,220.09-22.039Zm13.822,3.678a.314.314,0,0,1,.1.164q0,.1-.232.287l-.711.52q-.246.219-.328.219t-.164-.123a16.108,16.108,0,0,0-3.021-3.227q-.123-.109-.123-.178t.26-.3l.643-.479a.6.6,0,0,1,.273-.137.276.276,0,0,1,.164.082A20.706,20.706,0,0,1,233.912-18.361ZM255.186-4.279a1.924,1.924,0,0,1,1.627.807,2.925,2.925,0,0,1,.533,1.8,5.421,5.421,0,0,1-2.912,4.813.4.4,0,0,1-.205.082.22.22,0,0,1-.164-.109l-.424-.451a.42.42,0,0,1-.055-.164q0-.082.191-.178a4.722,4.722,0,0,0,1.333-1.162,2.091,2.091,0,0,0,.5-1.244q0-.779-.615-.779a1.522,1.522,0,0,1-1.162-.52,1.625,1.625,0,0,1-.437-1.135,1.664,1.664,0,0,1,.6-1.34A1.761,1.761,0,0,1,255.186-4.279ZM26.209,43.7H18.115v5.018H16.666V43.7H8.572V42.33h8.094V38.57H10.254V37.23a53.722,53.722,0,0,0,2.762-5.66H9.105V30.2h4.525q.67-1.5,1.354-3.555l1.34.479q-.807,2.188-1.176,3.076H25.4V31.57H14.561q-1.189,2.8-2.693,5.66h4.8v-4.17h1.449v4.17h6.412v1.34H18.115v3.76h8.094ZM7.615,31.324l-1.148.861a24.964,24.964,0,0,0-3.9-4.279l1.176-.861A28.714,28.714,0,0,1,7.615,31.324ZM26.4,49.658l-.383,1.436q-10.186,0-12.592-.239a10.638,10.638,0,0,1-4.2-1.244,7.954,7.954,0,0,1-2.844-2.632,33.384,33.384,0,0,1-3.719,4.566L1.6,50.588a26.85,26.85,0,0,0,4.088-5.154V35.945H1.873V34.578H7.164V45.857A7.679,7.679,0,0,0,9.8,48.373a8.978,8.978,0,0,0,3.63,1.183q1.976.212,5.968.212Q22.723,49.768,26.4,49.658Zm42-6.973a.193.193,0,0,1-.219.219l-3.814-.055a12.742,12.742,0,0,1-2.83,4.594,49.143,49.143,0,0,1,5.934,3.049q.15.082.15.137a1.087,1.087,0,0,1-.164.314l-.506.725q-.232.328-.342.328a.332.332,0,0,1-.164-.082,36.5,36.5,0,0,0-6.139-3.377q-2.967,2.256-8.682,3.213a1.536,1.536,0,0,1-.3.027q-.287,0-.506-.506a2.1,2.1,0,0,0-.7-.916A20.5,20.5,0,0,0,58.6,47.8q-2.064-.779-3.719-1.312l-.588.752a.561.561,0,0,1-.424.26,1.071,1.071,0,0,1-.355-.082l-.533-.232q-.424-.164-.424-.273,0-.055.137-.191A23.062,23.062,0,0,0,54.482,44.5q.834-1.217,1.094-1.654H55.33l-3.9.055a.193.193,0,0,1-.219-.219V41.619a.193.193,0,0,1,.219-.219l3.9.055H56.4q.219-.369.561-1.094a9.5,9.5,0,0,0,.615-1.928,13.609,13.609,0,0,1,1.654.479.322.322,0,0,1,.246.328q0,.191-.287.424a3.418,3.418,0,0,0-.67,1.039l-.383.752h6.125l3.924-.055a.193.193,0,0,1,.219.219Zm-5.77.164H57.313q-.643,1.094-1.531,2.461,1.941.615,4.2,1.49A9.89,9.89,0,0,0,62.631,42.85Zm-11.115-8.8a.193.193,0,0,1-.219.219l-2.5-.055H48.6v5.633q1.354-.615,2.543-1.2a7.015,7.015,0,0,0-.082,1.2.8.8,0,0,1-.068.41.868.868,0,0,1-.328.205l-2.064.971v3.391l.027,4.225a4.451,4.451,0,0,1-.191,1.531,1.667,1.667,0,0,1-.561.711,4.394,4.394,0,0,1-2.365.479H45.1q-.191.014-.273.014-.246,0-.314-.109a1.739,1.739,0,0,1-.137-.437A3.927,3.927,0,0,0,43.873,50a16.96,16.96,0,0,0,2.092.109.948.948,0,0,0,.848-.314,2.035,2.035,0,0,0,.164-.971V42.139l-1.572.615a3.585,3.585,0,0,0-1.053.533.723.723,0,0,1-.369.164.293.293,0,0,1-.287-.219,12.089,12.089,0,0,1-.465-1.6,14.558,14.558,0,0,0,2.488-.684l1.258-.465V34.209H46.2l-2.529.055q-.191,0-.191-.219V32.869q0-.232.191-.232l2.529.055h.779v-2.3a21.427,21.427,0,0,0-.191-3.4,10.875,10.875,0,0,1,1.791.191q.342.041.342.219a1.573,1.573,0,0,1-.178.533,10.842,10.842,0,0,0-.137,2.434v2.324h.191l2.5-.055q.219,0,.219.232ZM68.4,38.01q0,.191-.219.191l-3.9-.027H55.6l-3.855.027q-.232,0-.232-.191V36.916q0-.219.232-.219l3.855.055h5.373a26.567,26.567,0,0,0,1.49-3.309,4.077,4.077,0,0,0,.219-1.176q.971.178,1.572.342.342.1.342.273a.447.447,0,0,1-.219.342,1.191,1.191,0,0,0-.369.588q-.561,1.285-1.436,2.939h1.709l3.9-.055a.193.193,0,0,1,.219.219ZM67.676,31.6a.193.193,0,0,1-.219.219l-3.787-.055H56.3l-3.8.055a.193.193,0,0,1-.219-.219V30.531a.193.193,0,0,1,.219-.219l3.8.055H58.68V29.3a12.642,12.642,0,0,0-.164-2.352q.807.041,1.764.137.342.055.342.232a1.059,1.059,0,0,1-.137.438,4.461,4.461,0,0,0-.178,1.627v.984H63.67l3.787-.055a.193.193,0,0,1,.219.219Zm-9.939,3.869a.754.754,0,0,1,.027.15q0,.137-.287.246l-.725.246a.879.879,0,0,1-.26.055q-.164,0-.219-.246a12.374,12.374,0,0,0-1.258-2.939.609.609,0,0,1-.055-.15q0-.1.26-.191l.725-.219a1.159,1.159,0,0,1,.273-.055.2.2,0,0,1,.178.137A13.448,13.448,0,0,1,57.736,35.467Zm52.158,2.693q0,.191-.219.191l-3.719-.055H97.918a21.641,21.641,0,0,1-1.709,4.594,19.968,19.968,0,0,1-3.637,5.045,21.784,21.784,0,0,1-4.854,3.5,1.018,1.018,0,0,1-.41.164q-.164,0-.451-.369a3.585,3.585,0,0,0-1.148-.957A19.85,19.85,0,0,0,91.355,46.6a17.32,17.32,0,0,0,3.254-4.375A18,18,0,0,0,96.127,38.3H90.193l-3.76.055q-.219,0-.219-.191V36.834a.193.193,0,0,1,.219-.219l3.76.055h6.289a36.925,36.925,0,0,0,.561-6.234h-5.2l-3.9.055q-.232,0-.232-.219V29q0-.219.232-.219l3.9.055h12.537l3.9-.055A.193.193,0,0,1,108.5,29v1.271a.193.193,0,0,1-.219.219l-3.9-.055H98.848a41.46,41.46,0,0,1-.588,6.234h7.7l3.719-.055a.193.193,0,0,1,.219.219Zm.4,8.559a5.482,5.482,0,0,1-1.34,3.637q-1.053,1.012-5.1,1.012a24.264,24.264,0,0,1-3.391-.164,2.76,2.76,0,0,1-1.312-.506,1.826,1.826,0,0,1-.588-.943,8.62,8.62,0,0,1-.137-1.832V42.754a19.159,19.159,0,0,0-.164-3.09q.861.041,1.9.15.369.041.369.246a1.261,1.261,0,0,1-.164.506,7.2,7.2,0,0,0-.178,2.16v4.7q0,1.531.342,1.859.451.424,3.5.424,3.076,0,3.773-.7.738-.82.779-3.609a5.648,5.648,0,0,0,1.244.588,1.229,1.229,0,0,1,.4.219.456.456,0,0,1,.082.3A1.916,1.916,0,0,1,110.291,46.719Zm42.615,3.719a4.621,4.621,0,0,0-.875,1.094q-.232.4-.328.4a.853.853,0,0,1-.424-.191,17.852,17.852,0,0,1-8.2-12.359h-2.83v9.352a36.055,36.055,0,0,0,5.072-1.709,5.628,5.628,0,0,0-.15,1.094,1.191,1.191,0,0,1-.1.574,1.024,1.024,0,0,1-.437.178q-3.309,1.176-7.533,2.242a3.327,3.327,0,0,0-1.053.369.723.723,0,0,1-.369.164q-.164,0-.246-.246a9.115,9.115,0,0,1-.479-1.6,22.082,22.082,0,0,0,2.406-.4l1.23-.246V33.334l-.055-4.977a.193.193,0,0,1,.219-.219l3.527.055h4.484l3.254-.055a.193.193,0,0,1,.219.219l-.055,3.021v4.813l.055,3.021a.193.193,0,0,1-.219.219l-3.254-.055h-2.16a18.8,18.8,0,0,0,1.654,4.676A28.947,28.947,0,0,0,149.57,41.3a4.445,4.445,0,0,0,.807-1.066,6.652,6.652,0,0,1,1.189,1.066.767.767,0,0,1,.191.342q0,.178-.342.3a7.272,7.272,0,0,0-1.34.984,35.35,35.35,0,0,1-3.062,2.406A15.629,15.629,0,0,0,152.906,50.438Zm-4.375-12.455V34.428h-8.285v3.555Zm0-4.977V29.643h-8.285v3.363Zm-11.143-3.773a.6.6,0,0,1-.219.4,2.35,2.35,0,0,0-.506.848,61.418,61.418,0,0,1-3.021,5.729,17.2,17.2,0,0,1,2.639,3.869,6.351,6.351,0,0,1,.52,2.57q0,3.746-4.088,3.9-.178.014-.273.014-.232,0-.3-.109a1.475,1.475,0,0,1-.123-.41,2.316,2.316,0,0,0-.533-1.148q.355.027.711.027,2.98,0,2.98-2.27a5.506,5.506,0,0,0-.725-2.6,24.376,24.376,0,0,0-2.543-3.664,50.743,50.743,0,0,0,3.227-6.727h-4.4V46.008l.055,5.742a.193.193,0,0,1-.219.219h-1.3a.193.193,0,0,1-.219-.219l.055-5.742V34.031l-.055-5.729a.193.193,0,0,1,.219-.219l2.215.055h3.732a1.825,1.825,0,0,0,.67-.082.543.543,0,0,1,.246-.055q.26,0,.752.506T137.389,29.232Zm46.334,16.174a.205.205,0,0,1-.232.232h-1.258q-.246,0-.246-.232V44.039h-6.754V46.2q0,.219-.232.219h-1.285a.193.193,0,0,1-.219-.219l.055-5.209V38.242l-.055-3.527a.193.193,0,0,1,.219-.219l3.021.055h3.732l3.021-.055q.232,0,.232.219l-.055,2.912v2.83Zm-1.736-2.939V36.123h-6.754v6.344Zm12.168-12.373a.193.193,0,0,1-.219.219l-.4-.014q-1.176-.027-2.762-.041V43.533l.055,5.209a2.431,2.431,0,0,1-.793,2.133q-.725.547-3.514.547-.52,0-1.217-.014a.93.93,0,0,1-.52-.082,1.677,1.677,0,0,1-.178-.479,4.211,4.211,0,0,0-.561-1.3,33.263,33.263,0,0,0,3.363.15,2.235,2.235,0,0,0,1.244-.232,1.035,1.035,0,0,0,.3-.861V30.258H173.811l-3.678.055a.193.193,0,0,1-.219-.219V28.781q0-.232.219-.232l3.678.055h16.461l3.664-.055q.219,0,.219.232Zm28.561,19.072a2.251,2.251,0,0,1-.561,1.818,5.421,5.421,0,0,1-2.885.506.9.9,0,0,1-.52-.1,1.214,1.214,0,0,1-.178-.465,4.513,4.513,0,0,0-.451-1.066,14.439,14.439,0,0,0,1.736.109,1.383,1.383,0,0,0,1.012-.287,1.154,1.154,0,0,0,.246-.834V45.693h-5.934v2.352l.055,3.473a.193.193,0,0,1-.219.219H213.8a.193.193,0,0,1-.219-.219l.055-3.445v-8.08l-.055-3.486a.193.193,0,0,1,.219-.219l2.83.055h3.063l2.83-.055q.191,0,.191.219l-.027,3.664v5.3Zm-1.6-4.812V41.646h-5.934v2.707Zm0-4.047v-2.57h-5.934v2.57Zm15.176,7.479a4.068,4.068,0,0,1-1.176,2.693q-1.121.861-4.375.861a12.073,12.073,0,0,1-4.2-.451,2.015,2.015,0,0,1-1.039-2.064V42.33a17.155,17.155,0,0,0-.164-2.83,16.937,16.937,0,0,1,1.791.164q.342.041.342.26a1.806,1.806,0,0,1-.178.506,7.368,7.368,0,0,0-.137,1.873v1.791a29.949,29.949,0,0,0,5.346-2.406,5.961,5.961,0,0,0,1.49-1.121,9.018,9.018,0,0,1,1.148,1.012.612.612,0,0,1,.219.41q0,.232-.369.287a4.663,4.663,0,0,0-1.258.533,43.41,43.41,0,0,1-6.576,2.83v2.652a1.271,1.271,0,0,0,.725,1.285,10.391,10.391,0,0,0,2.912.246q2.516,0,3.227-.615a1.866,1.866,0,0,0,.561-1.039,14.085,14.085,0,0,0,.164-1.7,6.7,6.7,0,0,0,1.148.615q.438.178.438.369A2.946,2.946,0,0,1,236.291,47.785Zm-.205-12.934a5.733,5.733,0,0,1-.4,1.777,2.436,2.436,0,0,1-.67.861q-.943.752-4.58.752a14.132,14.132,0,0,1-3.979-.342,1.366,1.366,0,0,1-.793-.615,2.5,2.5,0,0,1-.219-1.176V29.93a17.7,17.7,0,0,0-.164-2.857q.9.041,1.75.164.369.041.369.246a1.262,1.262,0,0,1-.164.479,7.44,7.44,0,0,0-.137,1.9v2.023a29.97,29.97,0,0,0,5.072-2.242,5.432,5.432,0,0,0,1.477-1.121,11.136,11.136,0,0,1,1.176,1.094.527.527,0,0,1,.191.342q0,.219-.369.273a7.689,7.689,0,0,0-1.23.533A52.091,52.091,0,0,1,227.1,33.43v1.982a1.607,1.607,0,0,0,.15.82.969.969,0,0,0,.547.328,13.362,13.362,0,0,0,2.721.164q2.844,0,3.445-.561a4.57,4.57,0,0,0,.615-2.625,5.5,5.5,0,0,0,1.094.615q.438.205.438.451A1.644,1.644,0,0,1,236.086,34.852Zm-11.867-.725a.43.43,0,0,1,.041.164q0,.123-.232.287l-.711.4a.814.814,0,0,1-.328.137q-.1,0-.205-.191a15.411,15.411,0,0,0-.7-1.436q-3.76.656-8.5,1.2a2.963,2.963,0,0,0-1.176.314.566.566,0,0,1-.342.109q-.164,0-.273-.342a12.476,12.476,0,0,1-.342-1.613q1.736,0,2.434-.068a32.7,32.7,0,0,0,2.105-4.361,11.357,11.357,0,0,0,.533-1.9,7.547,7.547,0,0,1,1.559.41q.4.164.4.369a.63.63,0,0,1-.273.451,1.924,1.924,0,0,0-.479.725q-1.107,2.365-2.133,4.143,3.336-.328,5.742-.7a20.015,20.015,0,0,0-1.436-1.955.266.266,0,0,1-.055-.137q0-.109.26-.26l.588-.342a.477.477,0,0,1,.232-.082.264.264,0,0,1,.191.109A22.03,22.03,0,0,1,224.219,34.127Z" transform="translate(20.685 331)"/><path class="p" d="M5.984.188a4.918,4.918,0,0,1-3.816-1.57A5.824,5.824,0,0,1,.734-5.469,6.171,6.171,0,0,1,2.2-9.781a5.1,5.1,0,0,1,3.977-1.609A4.807,4.807,0,0,1,9.91-9.828a5.845,5.845,0,0,1,1.418,4.086A6.191,6.191,0,0,1,9.875-1.406,5.008,5.008,0,0,1,5.984.188ZM6.078-10.2A3.612,3.612,0,0,0,3.211-8.93a4.93,4.93,0,0,0-1.1,3.344A4.964,4.964,0,0,0,3.184-2.254a3.5,3.5,0,0,0,2.8,1.262A3.678,3.678,0,0,0,8.891-2.2,4.917,4.917,0,0,0,9.953-5.562a5.138,5.138,0,0,0-1.031-3.43A3.536,3.536,0,0,0,6.078-10.2ZM29.727-4.531q0,4.719-4.258,4.719-4.078,0-4.078-4.539V-11.2H22.7v6.766q0,3.445,2.906,3.445,2.8,0,2.8-3.328V-11.2h1.313ZM48.555,0H46.992L45.117-3.141a6.84,6.84,0,0,0-.5-.746,2.85,2.85,0,0,0-.5-.5,1.718,1.718,0,0,0-.547-.285,2.249,2.249,0,0,0-.66-.09H41.836V0H40.523V-11.2h3.344a4.765,4.765,0,0,1,1.355.184,3.033,3.033,0,0,1,1.078.559,2.6,2.6,0,0,1,.715.934,3.1,3.1,0,0,1,.258,1.309A3.151,3.151,0,0,1,47.1-7.145a2.805,2.805,0,0,1-.5.871,3.031,3.031,0,0,1-.781.652,3.988,3.988,0,0,1-1.027.418v.031a2.363,2.363,0,0,1,.488.285,2.687,2.687,0,0,1,.395.379,5.019,5.019,0,0,1,.371.5q.184.277.41.645ZM41.836-10.016v4.063h1.781a2.7,2.7,0,0,0,.91-.148,2.107,2.107,0,0,0,.723-.426,1.931,1.931,0,0,0,.477-.68,2.275,2.275,0,0,0,.172-.9,1.756,1.756,0,0,0-.582-1.4,2.5,2.5,0,0,0-1.684-.5ZM81.9,0h-1.3V-7.516q0-.891.109-2.18h-.031a6.968,6.968,0,0,1-.336,1.086L76.508,0h-.641l-3.82-8.547A6.7,6.7,0,0,1,71.711-9.7H71.68q.062.672.063,2.2V0H70.477V-11.2h1.734l3.438,7.813a10,10,0,0,1,.516,1.344h.047q.336-.922.539-1.375L80.258-11.2H81.9ZM94.156,0H92.844V-11.2h1.313Zm10.422-.453V-2a3,3,0,0,0,.637.422,5.159,5.159,0,0,0,.781.316,6.219,6.219,0,0,0,.824.2,4.6,4.6,0,0,0,.766.07,3,3,0,0,0,1.809-.449,1.52,1.52,0,0,0,.6-1.293,1.518,1.518,0,0,0-.2-.789,2.244,2.244,0,0,0-.551-.613,5.465,5.465,0,0,0-.832-.531q-.48-.254-1.035-.535-.586-.3-1.094-.6a4.74,4.74,0,0,1-.883-.672,2.8,2.8,0,0,1-.59-.832,2.575,2.575,0,0,1-.215-1.09,2.563,2.563,0,0,1,.336-1.332,2.881,2.881,0,0,1,.883-.934,4,4,0,0,1,1.246-.547,5.706,5.706,0,0,1,1.426-.18,5.464,5.464,0,0,1,2.414.4v1.477a4.376,4.376,0,0,0-2.547-.687,4.189,4.189,0,0,0-.859.09,2.428,2.428,0,0,0-.766.293,1.7,1.7,0,0,0-.547.523,1.389,1.389,0,0,0-.211.781,1.608,1.608,0,0,0,.16.742,1.819,1.819,0,0,0,.473.57,4.708,4.708,0,0,0,.762.5q.449.242,1.035.531.6.3,1.141.625a5.214,5.214,0,0,1,.945.727,3.229,3.229,0,0,1,.645.883,2.482,2.482,0,0,1,.238,1.109,2.813,2.813,0,0,1-.324,1.4,2.661,2.661,0,0,1-.875.934,3.822,3.822,0,0,1-1.27.52,6.953,6.953,0,0,1-1.516.16,6.176,6.176,0,0,1-.656-.043q-.391-.043-.8-.125a6.5,6.5,0,0,1-.77-.2A2.4,2.4,0,0,1,104.578-.453Zm16.5,0V-2a3,3,0,0,0,.637.422,5.159,5.159,0,0,0,.781.316,6.219,6.219,0,0,0,.824.2,4.6,4.6,0,0,0,.766.07,3,3,0,0,0,1.809-.449,1.52,1.52,0,0,0,.6-1.293,1.518,1.518,0,0,0-.2-.789,2.244,2.244,0,0,0-.551-.613,5.465,5.465,0,0,0-.832-.531q-.48-.254-1.035-.535-.586-.3-1.094-.6a4.74,4.74,0,0,1-.883-.672,2.8,2.8,0,0,1-.59-.832,2.575,2.575,0,0,1-.215-1.09,2.563,2.563,0,0,1,.336-1.332,2.881,2.881,0,0,1,.883-.934,4,4,0,0,1,1.246-.547,5.706,5.706,0,0,1,1.426-.18,5.464,5.464,0,0,1,2.414.4v1.477a4.376,4.376,0,0,0-2.547-.687,4.189,4.189,0,0,0-.859.09,2.428,2.428,0,0,0-.766.293,1.7,1.7,0,0,0-.547.523,1.389,1.389,0,0,0-.211.781,1.608,1.608,0,0,0,.16.742,1.819,1.819,0,0,0,.473.57,4.708,4.708,0,0,0,.762.5q.449.242,1.035.531.6.3,1.141.625a5.214,5.214,0,0,1,.945.727,3.229,3.229,0,0,1,.645.883,2.482,2.482,0,0,1,.238,1.109,2.813,2.813,0,0,1-.324,1.4,2.661,2.661,0,0,1-.875.934,3.822,3.822,0,0,1-1.27.52,6.953,6.953,0,0,1-1.516.16,6.176,6.176,0,0,1-.656-.043q-.391-.043-.8-.125a6.5,6.5,0,0,1-.77-.2A2.4,2.4,0,0,1,121.078-.453ZM139.414,0H138.1V-11.2h1.313Zm15.461.188a4.918,4.918,0,0,1-3.816-1.57,5.824,5.824,0,0,1-1.434-4.086,6.171,6.171,0,0,1,1.461-4.312,5.1,5.1,0,0,1,3.977-1.609A4.807,4.807,0,0,1,158.8-9.828a5.845,5.845,0,0,1,1.418,4.086,6.191,6.191,0,0,1-1.453,4.336A5.008,5.008,0,0,1,154.875.188Zm.094-10.391A3.612,3.612,0,0,0,152.1-8.93,4.93,4.93,0,0,0,151-5.586a4.964,4.964,0,0,0,1.074,3.332,3.5,3.5,0,0,0,2.8,1.262,3.678,3.678,0,0,0,2.906-1.2,4.917,4.917,0,0,0,1.063-3.367,5.138,5.138,0,0,0-1.031-3.43A3.536,3.536,0,0,0,154.969-10.2ZM179.453,0h-1.609l-5.766-8.93a3.732,3.732,0,0,1-.359-.7h-.047a11.533,11.533,0,0,1,.063,1.539V0h-1.312V-11.2h1.7l5.609,8.789q.352.547.453.75h.031a11.854,11.854,0,0,1-.078-1.648V-11.2h1.313Z" transform="translate(20.685 285)"/></g></svg>