<svg xmlns="http://www.w3.org/2000/svg" xmlns:xlink="http://www.w3.org/1999/xlink" width="697" height="337" viewBox="0 0 697 337"><defs><style>.a{fill:#fff;}.b{clip-path:url(#a);}.c,.d,.e,.f,.g,.h,.i,.m,.n{fill:none;}.c,.e{stroke:#0080f4;}.c,.d,.e,.f,.g,.h,.i{stroke-miterlimit:10;}.d,.f{stroke:#ef54a1;}.e,.f,.g,.h{stroke-linecap:round;}.g,.i,.m{stroke:#000;}.h{stroke:#0c111a;}.j{fill:#ef54a1;}.k{fill:#0080f4;}.l{opacity:0.1;}.n{stroke:#707070;}</style><clipPath id="a"><rect class="a" width="690" height="333.626" transform="translate(50 88)"/></clipPath></defs><g transform="translate(16.315 -160)"><rect class="a" width="690" height="334" transform="translate(-16.315 163)"/><g class="b" transform="translate(-59.315 72)"><g transform="translate(128.72 110.573)"><g transform="translate(281.423 65.383)"><rect class="c" width="21.226" height="21.506" rx="6.75" transform="translate(0 48.328)"/><rect class="c" width="15.297" height="15.594" rx="6.75" transform="translate(5.09 93.213)"/><rect class="c" width="12.512" height="12.755" rx="5.568" transform="translate(41.073 120.896)"/><rect class="d" width="12.512" height="12.755" rx="5.568" transform="translate(181.521 120.896)"/><g transform="translate(10.633 2.118)"><path class="e" d="M83.38,43.043s-9.927,9.337-12.765,19.93" transform="translate(-55.025 -29.355)"/><path class="e" d="M73.425,32.981S61.633,43.734,58.6,56.725" transform="translate(-47.562 -23.108)"/><path class="e" d="M63.025,19.274S47.475,33.3,43.518,48.535" transform="translate(-38.201 -14.597)"/><path class="e" d="M52.359,6.938S36.529,18.171,29.494,41.2" transform="translate(-29.494 -6.938)"/></g><g transform="translate(196.288 0.916)"><path class="f" d="M519.192,36.531s8.241,11.024,9.2,21.948" transform="translate(-519.192 -24.11)"/><path class="f" d="M527.61,28.052s9.756,12.63,10.5,25.951" transform="translate(-524.419 -18.845)"/><path class="f" d="M532.68,15.025s12.89,16.508,14.154,32.193" transform="translate(-527.566 -10.757)"/><path class="f" d="M539.9,3.768s13.649,13.8,16.6,37.695" transform="translate(-532.05 -3.768)"/></g><path class="g" d="M171.672,16.741s-2.958-9.314-19.387-12.831H136.136l-17.948.72S86.528,10.945,78.154,41.964v72.7s-.06,3.171,3.618,3.211,25.144,0,25.144,0a2.046,2.046,0,0,1,2.228,2.228v33.681s-.17,2.305,2.009,2.305H224.344V123.217a6.209,6.209,0,0,1,6.209-6.209h15.283a4.544,4.544,0,0,0,4.543-4.544v-9.021a10.253,10.253,0,0,1,1.4-3.078c.959-1.319,2.638-2.278,0-4.877.519-.56,2.079-1.159,2.358-3.158V87.414l7.435-4.118s1.959-2.039,0-5.556L248.782,60.352s-1.719-1.4-.16-4.4l4.357-7.275-6.836-21.746s-4.1-15.243-28.408-23.025-53.3,3.837-62.466,12.9a49.157,49.157,0,0,0-10.591,15.338" transform="translate(-49.073 -1.352)"/><path class="g" d="M157.074,12.615H183.9L187.774,8.1" transform="translate(-98.073 -5.54)"/><path class="g" d="M215.191,15.057H195.977l-3.944,4.983H176.044l-3.837,4.9H167.2v4.164" transform="translate(-104.358 -9.861)"/><path class="g" d="M134.159,32.348V42.5l2.612,2.239v5.037" transform="translate(-83.845 -20.597)"/><path class="g" d="M128.465,36.566v9.993l2.478,2.265v4.983" transform="translate(-80.31 -23.215)"/><path class="g" d="M122.631,41.205v9.807l2.665,2.345v4.823" transform="translate(-76.688 -26.096)"/><path class="g" d="M117.008,45.985v9.62l2.532,2.185v5.063" transform="translate(-73.197 -29.064)"/><circle cx="1.979" cy="1.979" r="1.979" transform="translate(52.002 12.907)"/><circle cx="2.906" cy="2.906" r="2.906" transform="translate(178.015 15.549)"/><circle cx="3.558" cy="3.558" r="3.558" transform="translate(163.812 21.105)"/><circle cx="3.323" cy="3.323" r="3.323" transform="translate(155.733 12.706)"/><circle cx="2.58" cy="2.58" r="2.58" transform="translate(155.829 30.371)"/><circle cx="2.373" cy="2.373" r="2.373" transform="translate(164.259 37.122)"/><circle cx="2.091" cy="2.091" r="2.091" transform="translate(147.73 23.716)"/><circle cx="2.373" cy="2.373" r="2.373" transform="translate(147.008 39.253)"/><circle cx="2.419" cy="2.419" r="2.419" transform="translate(38.504 26.701)"/><circle cx="1.611" cy="1.611" r="1.611" transform="translate(37.756 55.141)"/><circle cx="1.641" cy="1.641" r="1.641" transform="translate(36.141 62.773)"/><circle cx="1.641" cy="1.641" r="1.641" transform="translate(71.877 58.292)"/><circle cx="1.595" cy="1.595" r="1.595" transform="translate(48.681 95.961)"/><circle cx="1.595" cy="1.595" r="1.595" transform="translate(30.704 84.981)"/><path class="g" d="M84.184,60.979h23.237l8.528-14.993h32.619v-3.3h60.6" transform="translate(-52.817 -27.012)"/><path class="g" d="M148.428,44.052l2.945,2.172v8.088" transform="translate(-92.705 -27.863)"/><path class="g" d="M247.893,33.122H225.161L221.11,39.89" transform="translate(-137.832 -21.077)"/><path class="g" d="M249.435,36.531H229.321l-3.238,5.39" transform="translate(-140.919 -23.194)"/><path d="M191.961,32.489l-2.8,3.744h5.383Z" transform="translate(-117.996 -20.684)"/><path class="g" d="M79,249.062h33.8l8.579,6.918a1.074,1.074,0,0,0,.673.237h79.9a.853.853,0,0,0,.853-.853V243.533l-7.088-3.3v-15.35" transform="translate(-49.596 -140.134)"/><path class="g" d="M79.364,105.03h9.927v3.784s-4.963,3.877-4.963,8.395v23.944L79,147.789" transform="translate(-49.596 -65.723)"/><line class="g" x1="9.973" transform="translate(29.401 41.652)"/><path class="g" d="M97.919,174.268v13.351l-2,2.119v4.837l1.559,1.119v13.191" transform="translate(-60.104 -108.712)"/><path class="g" d="M86.642,210.31v17.148H96.2l3-3.957V196.2h2.079s2.718,3.4,11.193,2.878v17.888a3.1,3.1,0,0,1-3.1,3.1H105.71" transform="translate(-54.343 -122.328)"/><path class="g" d="M91.843,206.733v12.179h5.943l2.265-3.091V186.639h3.624" transform="translate(-57.572 -116.393)"/><path class="g" d="M120.575,201.647l5.323,5.27h3.578l1.939,2.2" transform="translate(-75.412 -125.711)"/><path class="g" d="M120.7,208.852l5.217,5.3h3.877l1.7,2.179" transform="translate(-75.488 -130.184)"/><path class="g" d="M120.7,216.812l5.177,5.177h3.877l1.739,2.219" transform="translate(-75.488 -135.127)"/><path class="g" d="M120.7,223.982l5.177,5.217h3.9l1.719,2.259" transform="translate(-75.488 -139.578)"/><path class="g" d="M141.944,270.058h13.911l9.134,7.355h29.354" transform="translate(-88.679 -168.186)"/><path class="g" d="M138.265,275.91h13.766l8.688,7.249h30.7" transform="translate(-86.395 -171.819)"/><path class="g" d="M134.932,281.674h13.8l8.848,7.249H189.03" transform="translate(-84.326 -175.398)"/><path class="g" d="M210.107,232.153v9.574l-2.159,2.2.159,9.594" transform="translate(-129.66 -144.652)"/><path class="g" d="M235.112,231.732v7.022l-2.052,2.412v12.092" transform="translate(-145.251 -144.39)"/><path class="g" d="M241.347,231.732v7.895l-2.052,2.039v11.592" transform="translate(-149.122 -144.39)"/><path class="g" d="M167.832,324.827v19.107l-2.918,3.278h-3.8" transform="translate(-100.582 -202.191)"/><path class="g" d="M170.537,345.921l.107,12.9-4.557,3.491h-4.97" transform="translate(-100.582 -215.287)"/><line class="g" x2="48.843" transform="translate(60.534 150.9)"/><path class="g" d="M217.877,308.526v8.155l1.439,1.759v24.3" transform="translate(-135.824 -192.07)"/><path class="g" d="M224.063,308.526v7.035l2.132,2.292v24.89" transform="translate(-139.665 -192.07)"/><line class="g" y1="23.664" transform="translate(74.111 125.517)"/><line class="g" y1="16.416" transform="translate(76.776 132.925)"/><line class="g" y2="34.218" transform="translate(100.414 116.456)"/><path class="g" d="M322.963,217.881h10.82l5.516-8.927h27.3V172.5l-13.631-7.355V147.154l14.311-39.734" transform="translate(-201.07 -67.207)"/><path class="g" d="M160.343,69.782l5.317-10.633h54.2l3.837-4.237h27.822l4.357,4.2h8.514" transform="translate(-100.102 -34.606)"/><path class="g" d="M169.9,76.879l1.239,1.892,2.652-6.356h13.871" transform="translate(-106.038 -45.473)"/><path class="g" d="M192.2,81.282h-6.729l-.728,1.362a.348.348,0,0,1-.307.184h-2.382a.143.143,0,0,1-.134-.193l1.451-3.836a.2.2,0,0,1,.185-.128h8.231a.56.56,0,0,1,.56.56v1.905A.147.147,0,0,1,192.2,81.282Z" transform="translate(-113.496 -49.358)"/><path class="g" d="M263.039,81.941h22.9L297.817,68.83h14.95" transform="translate(-163.865 -43.247)"/><path class="g" d="M263.039,111.638h22.505l3.278,5.916h8.794" transform="translate(-163.865 -69.826)"/><path class="g" d="M155.739,205.759h2.318l8.528,9.54h30.007" transform="translate(-97.244 -128.264)"/><path class="g" d="M164.771,196.515l9.214,10.413h26.822" transform="translate(-102.852 -122.525)"/><path class="g" d="M119.592,134.833a13.392,13.392,0,1,0-1.335-4.054" transform="translate(-73.869 -72.052)"/><path class="g" d="M142.582,127.509a20.318,20.318,0,0,0-11.324-26.744.2.2,0,0,0-.249.1l-.575,1.337a.191.191,0,0,1-.243.1,18.123,18.123,0,1,0,9.771,25.318h12.994l2.418,3.964h2.818" transform="translate(-66.203 -63.067)"/><path class="g" d="M178.757,128.817a16.278,16.278,0,0,0,.465-3.873,14.8,14.8,0,0,0-6.38-12.605l.813-1.506a6.778,6.778,0,0,0-3.144-1.585c-.373.533-1.732,3.278-1.732,3.278" transform="translate(-105.34 -68.342)"/><circle class="e" cx="10.662" cy="10.662" r="10.662" transform="translate(46.99 45.94)"/><path class="h" d="M143.262,133.238v12.89a.04.04,0,0,0,.059.035l11.187-6.25a.109.109,0,0,0,0-.189l-11.2-6.513A.031.031,0,0,0,143.262,133.238Z" transform="translate(-89.497 -83.218)"/><path class="e" d="M146.77,139.756v7.966a.024.024,0,0,0,.036.021l6.914-3.862a.067.067,0,0,0,0-.117L146.8,139.74A.019.019,0,0,0,146.77,139.756Z" transform="translate(-91.675 -87.272)"/><line class="e" y1="0.433" x2="12.823" transform="translate(35.037 60.826)"/><path class="g" d="M194.188,175.533H206.86l2.688,4.037h3.868" transform="translate(-121.116 -109.497)"/><line class="g" x2="39.054" transform="translate(95.697 69.18)"/><path class="g" d="M277.2,212.667h10.953l5.17-6.909h9.434" transform="translate(-172.659 -128.264)"/><path class="g" d="M281.772,220.013h10.313l5.25-6.662h6.422" transform="translate(-175.495 -132.977)"/><path class="g" d="M256.186,157.056v3.358h34.527v1.157a.08.08,0,0,0,.117.072l4.57-2.337a.081.081,0,0,0,.01-.139l-4.537-3.215a.031.031,0,0,0-.05.026v1.078Z" transform="translate(-159.609 -97.336)"/><path class="g" d="M458.1,57.021V67.574H445.553V63.417" transform="translate(-277.183 -35.915)"/><path class="g" d="M373.011,134.385h1.479l7.035-19.267" transform="translate(-232.144 -71.986)"/><path class="g" d="M366.474,127.681h6.356L386.341,93.4" transform="translate(-228.085 -58.501)"/><path class="g" d="M353.4,126.82h13.271l19.507-53.245" transform="translate(-219.967 -46.193)"/><path class="g" d="M359.738,178.171h9.289l5.3-14.47,3.747-3.427" transform="translate(-223.903 -100.023)"/><path class="f" d="M361.291,94.122h-4.917V89.865h5.157v10.773h-5.336" transform="translate(-221.702 -56.308)"/><path class="e" d="M239.949,89.847h5.476v4.211h-4.85v2.478h4.85v4.037h-5.317" transform="translate(-149.528 -56.297)"/><path class="g" d="M236.469,127.451" transform="translate(-147.368 -79.644)"/><path class="i" d="M302.75,311.97a56.9,56.9,0,0,1,.2,6.2v26.942h-6.276v-30.3s.112-2.446.16-2.838" transform="translate(-184.748 -194.208)"/><line class="i" y2="5.743" transform="translate(80.587 73.897)"/><line class="i" y2="5.743" transform="translate(83.119 73.897)"/><line class="i" y2="4.823" transform="translate(85.93 73.897)"/><line class="i" x2="19.774" transform="translate(66.863 36.375)"/><line class="i" x2="16.229" transform="translate(70.407 38.507)"/><line class="i" x2="13.351" transform="translate(73.285 40.586)"/><line class="i" x1="10.979" transform="translate(75.657 42.585)"/><line class="i" x1="9.487" transform="translate(77.149 44.61)"/><line class="i" x1="8.554" transform="translate(78.082 46.822)"/><line class="i" x1="7.888" transform="translate(78.748 48.98)"/><line class="i" x1="7.462" transform="translate(79.175 51.352)"/><line class="i" x1="7.009" transform="translate(79.628 53.484)"/><line class="i" x1="7.009" transform="translate(79.628 55.696)"/><line class="i" x1="6.769" transform="translate(79.868 57.801)"/><line class="i" x1="7.009" transform="translate(79.628 59.932)"/><line class="i" x1="7.302" transform="translate(79.335 61.932)"/><line class="d" y1="38.975" x2="0.407" transform="translate(109.728 115.442)"/><path class="d" d="M291.929,195.387s.92-7.53,4.937-12.709c.5-.342,1.939-4.14,3.578-6.178s11.992-16.536,14.47-22.958,4.957-8.823,5.277-26.09h2.478s.12,17.909-6.376,30.061-11.473,17.7-13.9,21.282-7.385,11.5-7.7,14.935" transform="translate(-181.802 -79.644)"/><path class="g" d="M481.823,138.676l15.15-5.117v-4" transform="translate(-299.703 -80.955)"/><path class="g" d="M509.949,144.183v3.891l-.853,1.785" transform="translate(-316.636 -90.033)"/><line class="g" x2="10.26" y2="2.825" transform="translate(183.24 57.615)"/><path class="e" d="M33.823,257.575l-2.9,1.579v4.457l2.9,1.65a.2.2,0,0,0,.3-.172v-7.341A.2.2,0,0,0,33.823,257.575Z" transform="translate(-19.745 -160.42)"/><line class="e" x2="3.318" transform="translate(7.595 100.999)"/><line class="e" x1="2.765" transform="translate(14.637 99.441)"/><line class="e" x1="2.765" transform="translate(14.637 102.638)"/><rect class="d" width="15.297" height="15.594" rx="6.75" transform="translate(214.759 93.155)"/><path class="f" d="M583.881,265.111l2.9-1.58v-4.457l-2.9-1.65a.2.2,0,0,0-.3.172v7.341A.2.2,0,0,0,583.881,265.111Z" transform="translate(-362.887 -160.325)"/><line class="f" x1="3.318" transform="translate(224.159 100.941)"/><line class="e" y2="5.297" transform="translate(44.151 124.517)"/><path class="e" d="M125.548,324.823v8.72a.073.073,0,0,0,.119.057l2.976-2.418a.091.091,0,0,0-.012-.15l-2.8-1.615,2.518-2.148a.091.091,0,0,0,0-.138l-2.678-2.362A.073.073,0,0,0,125.548,324.823Z" transform="translate(-78.499 -202.143)"/><line class="e" x2="2.478" transform="translate(44.391 127.166)"/><path class="j" d="M595.027,169.452v1.907a.182.182,0,0,1-.282.151l-1.43-.953a.182.182,0,0,1,0-.3l1.43-.953A.182.182,0,0,1,595.027,169.452Z" transform="translate(-368.876 -105.609)"/><path class="j" d="M590.282,143.681v-1.906a.181.181,0,0,1,.282-.151l1.43.953a.182.182,0,0,1,0,.3l-1.43.953A.181.181,0,0,1,590.282,143.681Z" transform="translate(-367.043 -88.424)"/><g transform="translate(213.943 48.334)"><rect class="d" width="21.226" height="21.506" rx="6.75"/><path class="f" d="M581.937,149.088v-3.977a.26.26,0,0,1,.26-.26h3.438" transform="translate(-575.805 -138.782)"/><circle class="d" cx="3.145" cy="3.145" r="3.145" transform="translate(12.188 3.444)"/><line class="f" x2="1.266" transform="translate(16.039 6.163)"/><line class="f" x2="1.319" transform="translate(13.307 6.163)"/><g transform="translate(4.275 14.77)"><line class="f" x2="1.266" transform="translate(2.732)"/><line class="f" x2="1.319"/></g><path class="f" d="M597.1,164.539h3.4v-4.61" transform="translate(-585.221 -148.143)"/><circle class="f" cx="3.144" cy="3.144" r="3.144" transform="translate(3.13 12.105)"/><line class="f" y1="1.792" transform="translate(4.393 10.753)"/><line class="f" y1="1.792" transform="translate(7.981 10.753)"/></g><g transform="translate(183.161 122.548)"><path class="j" d="M495.461,329.556a.707.707,0,0,1,.629-.575c.288,0,.487.305.575.575a3.3,3.3,0,0,1,.162,1.024.12.12,0,0,1-.126.108c-.018,0-.038,0-.038-.018a1.1,1.1,0,0,0-.575-.144,1.165,1.165,0,0,0-.593.144.1.1,0,0,1-.136-.036.094.094,0,0,1-.008-.018c0-.018-.018-.018-.018-.038a3.989,3.989,0,0,1,.125-1.024Z" transform="translate(-491.252 -327.318)"/><path class="j" d="M490.142,330.667a.1.1,0,0,1-.136-.036.1.1,0,0,1-.008-.018c0-.018-.018-.018-.018-.038a3.889,3.889,0,0,1,.126-1.024.707.707,0,0,1,.629-.575c.287,0,.487.305.593.575a3.3,3.3,0,0,1,.162,1.024.12.12,0,0,1-.126.108c-.018,0-.038,0-.038-.018a1.118,1.118,0,0,0-.593-.144,1.315,1.315,0,0,0-.593.144Z" transform="translate(-487.928 -327.315)"/><path class="d" d="M488.012,335.6a8.7,8.7,0,0,0,.244,1.458" transform="translate(-486.706 -331.428)"/><path class="d" d="M492.5,331.657a1.678,1.678,0,0,0-1.348.072c.251-.521.521-1.078.754-1.653a5.239,5.239,0,0,0,.5-1.835,3.479,3.479,0,0,0-3.217-3.648,3.3,3.3,0,0,0-3.328,3.269c0,.055,0,.109,0,.164h0a6.858,6.858,0,0,0,.018.861l-.04,0a1.694,1.694,0,0,0-.876.39,1.64,1.64,0,0,0-.323.379c-.125.288-.125.647.234.737a1.17,1.17,0,0,0,.431-.108,1.626,1.626,0,0,1,.682-.176.4.4,0,0,1,.109.031,8.556,8.556,0,0,0,.629,1.76,5.407,5.407,0,0,0,1.043,1.51,1.925,1.925,0,0,0,1.294.629,3.483,3.483,0,0,0,1.923-.719c.27-.18.5-.359.683-.487a1.157,1.157,0,0,1,.4-.2,1.994,1.994,0,0,1,.539.144c.2.09.412.2.611.27a.122.122,0,0,0,.144-.072v-.014A1.364,1.364,0,0,0,492.5,331.657Zm-3.451-1.185a1.14,1.14,0,0,0-.88-.054,1.365,1.365,0,0,1-.467.018c-.467-.126-.287-.629-.09-.881a1.989,1.989,0,0,1,.665-.487,1.875,1.875,0,0,1,1.977.162" transform="translate(-484.568 -324.594)"/></g><g transform="translate(4.088 51.645)"><path class="k" d="M28.181,145.6a6.467,6.467,0,0,1,.2,1.658c0,.031-.029.031-.029.06a.136.136,0,0,1-.013.029.161.161,0,0,1-.22.058,1.877,1.877,0,0,0-.96-.233,1.77,1.77,0,0,0-.931.233c0,.029-.031.029-.061.029a.2.2,0,0,1-.2-.174,5.351,5.351,0,0,1,.262-1.658c.143-.436.465-.931.931-.931a1.146,1.146,0,0,1,1.018.931Z" transform="translate(-20.76 -141.983)"/><path class="k" d="M36.746,147.4a2.128,2.128,0,0,0-.96-.233,1.81,1.81,0,0,0-.96.233c0,.029-.031.029-.061.029a.2.2,0,0,1-.2-.174,5.34,5.34,0,0,1,.262-1.658c.172-.436.494-.931.96-.931a1.145,1.145,0,0,1,1.018.931,6.318,6.318,0,0,1,.2,1.658c0,.031-.029.031-.029.06a.157.157,0,0,1-.013.029.161.161,0,0,1-.22.058Z" transform="translate(-26.096 -141.98)"/><path class="c" d="M43.151,157.749a14.123,14.123,0,0,0,.394-2.359" transform="translate(-31.428 -148.636)"/><path class="c" d="M12.231,151.13v.024a.2.2,0,0,0,.233.116c.322-.116.669-.291.989-.436a3.241,3.241,0,0,1,.873-.233,1.886,1.886,0,0,1,.64.32c.291.206.669.5,1.105.787a5.636,5.636,0,0,0,3.112,1.164,3.116,3.116,0,0,0,2.094-1.018,8.743,8.743,0,0,0,1.687-2.443,13.852,13.852,0,0,0,1.018-2.848.631.631,0,0,1,.176-.051,2.624,2.624,0,0,1,1.1.284,1.89,1.89,0,0,0,.7.174c.582-.145.582-.727.378-1.192a2.658,2.658,0,0,0-.522-.613,2.741,2.741,0,0,0-1.418-.632l-.066-.008a11.174,11.174,0,0,0,.029-1.394h0q.005-.132,0-.265a5.338,5.338,0,0,0-5.385-5.291,5.631,5.631,0,0,0-5.206,5.9,8.475,8.475,0,0,0,.814,2.969c.378.931.814,1.832,1.222,2.676a2.717,2.717,0,0,0-2.181-.116A2.208,2.208,0,0,0,12.231,151.13Zm5.033-6.051a3.036,3.036,0,0,1,3.2-.262,3.215,3.215,0,0,1,1.076.788c.32.407.611,1.222-.146,1.425a2.212,2.212,0,0,1-.756-.029,1.845,1.845,0,0,0-1.425.087" transform="translate(-12.23 -137.575)"/></g><path class="e" d="M267.848,234.382s-.107-25.756.107-35.243-10.33-24.844-15.35-31.446c-5.277-6.5-13.751-24.517-13.645-38.055q.009-1.1.063-2.186h-2.555s.81,16.967,4.222,24.49c.122.269.233.54.33.819,2.737,7.915,10.243,19.262,15.741,25.965a35.877,35.877,0,0,1,7.875,14.444" transform="translate(-147.368 -79.644)"/></g><g class="l" transform="translate(94.25 -22)"><path class="i" d="M395.381,229.828l411.45.978,44.711,45.141v174.79l-423.094-.978-33.067-39.367Z" transform="translate(-353.033 -169.131)"/><path class="i" d="M484,214.777H837.464l28.869-30.444" transform="translate(-371.165 -160.451)"/><path class="i" d="M866.333,184.333H512.869L484,214.777" transform="translate(-470.089 102.659)"/><circle class="i" cx="13.532" cy="13.532" r="13.532" transform="translate(490.214)"/><circle class="i" cx="8.456" cy="8.456" r="8.456" transform="translate(0 315.035)"/><path class="m" d="M594.911,274.9l26.974-11.682H965.406" transform="translate(-516.818 -220.57)"/><path class="m" d="M965.406,263.214,938.432,274.9H594.911" transform="translate(-534.42 23.778)"/><path class="m" d="M413.437,293.133H387.292V466.608" transform="translate(-353.655 -238.806)"/><path class="n" d="M1645.295,462.333V611.086H1608.8" transform="translate(-1134.818 -341.939)"/><path class="m" d="M428.642,768.6l31.09,32.585" transform="translate(-392.057 -523.11)"/><path class="m" d="M1636.882,316.811l23.069,21.681" transform="translate(-1155.649 -244.99)"/></g></g></g><g transform="translate(-158.315 -149.587)"><path d="M14.138-37.632a16.4,16.4,0,0,1,.174,2.8v4.174H5.573v-4.2a17.815,17.815,0,0,1,.174-2.782H2.508a16.564,16.564,0,0,1,.174,2.8v11.7a16.4,16.4,0,0,1-.174,2.8H5.747a17.062,17.062,0,0,1-.174-2.8v-4.913h8.739v4.913a16.564,16.564,0,0,1-.174,2.8h3.239a17.231,17.231,0,0,1-.174-2.8V-34.85a16.946,16.946,0,0,1,.174-2.782Zm14.478,4.826a22.935,22.935,0,0,1,.174,2.826v4.391c-.978,2.152-2.217,3.217-3.782,3.217a2.7,2.7,0,0,1-1.2-.3,2.654,2.654,0,0,1-1-2.478V-29.98a19.456,19.456,0,0,1,.152-2.826H19.811a19.981,19.981,0,0,1,.174,2.826v5.5a4.057,4.057,0,0,0,1.761,3.761,4.735,4.735,0,0,0,2.609.63,4.778,4.778,0,0,0,4.456-2.326c-.022.543-.022.609-.022.935v1.152h2.956a17.867,17.867,0,0,1-.174-2.826V-29.98a15.739,15.739,0,0,1,.174-2.826Zm8.478,12.478a22.624,22.624,0,0,1-.152-2.826v-4.3a4.908,4.908,0,0,1,.935-2.174,2.693,2.693,0,0,1,2.239-1.13c1.413,0,2.109.913,2.109,2.739v4.869a17.692,17.692,0,0,1-.174,2.826h3.13a21.266,21.266,0,0,1-.152-2.826v-4.3a4.112,4.112,0,0,1,1.37-2.7,2.514,2.514,0,0,1,1.783-.652c1.456,0,2.13.87,2.13,2.782v4.869a17.179,17.179,0,0,1-.174,2.826H53.31a17.691,17.691,0,0,1-.174-2.826v-5.369a4.5,4.5,0,0,0-1.022-3.3,4.29,4.29,0,0,0-3.261-1.239,4.8,4.8,0,0,0-2.435.565,5.03,5.03,0,0,0-1.826,1.717,2.818,2.818,0,0,0-.826-1.3,3.9,3.9,0,0,0-2.8-.978,4.383,4.383,0,0,0-4.043,2.174c.022-.348.022-.674.022-.8v-1.109H34.028a19.015,19.015,0,0,1,.152,2.826v6.826a21.932,21.932,0,0,1-.152,2.826Zm26.716,0h2.935a17.484,17.484,0,0,1-.174-2.717v-5.848a3.65,3.65,0,0,0-1.022-3c-.935-.913-2.2-1.283-4.282-1.283a6.509,6.509,0,0,0-4.152,1.109A4.542,4.542,0,0,0,55.4-29.654l2.782.5a2.369,2.369,0,0,1,.87-1.391,3.922,3.922,0,0,1,2.261-.63c1.652,0,2.5.652,2.5,1.913v1.109c-3.109.065-4.717.283-6.13.87a3.856,3.856,0,0,0-2.456,3.522c0,2.283,1.609,3.652,4.261,3.652a7.692,7.692,0,0,0,2.022-.261,4.714,4.714,0,0,0,2.3-1.37Zm0-4.848a2.591,2.591,0,0,1-.783,1.913,4.414,4.414,0,0,1-3.022,1.152c-1.217,0-1.978-.63-1.978-1.652,0-1.7,1.63-2.413,5.782-2.5Zm8.217,4.848a19.341,19.341,0,0,1-.174-2.826v-4.391c.956-2.152,2.239-3.239,3.8-3.239a2.045,2.045,0,0,1,1.826.891,3.571,3.571,0,0,1,.37,1.913v4.826a23.1,23.1,0,0,1-.152,2.826h3.152a17.178,17.178,0,0,1-.174-2.826v-5.217a4.833,4.833,0,0,0-.739-3.043,4.3,4.3,0,0,0-3.7-1.609,4.969,4.969,0,0,0-4.435,2.3,8.495,8.495,0,0,0,.043-.935v-1.152H68.9a17.866,17.866,0,0,1,.174,2.826v6.826a18.043,18.043,0,0,1-.174,2.826ZM82.483-25.48a11.965,11.965,0,0,1,2.043-.13H87.9a11.929,11.929,0,0,1,2.065.13v-2.891a13.729,13.729,0,0,1-2.065.13H84.526a13.619,13.619,0,0,1-2.043-.13Zm12.2,5.152a22.624,22.624,0,0,1-.152-2.826v-4.3a4.909,4.909,0,0,1,.935-2.174,2.693,2.693,0,0,1,2.239-1.13c1.413,0,2.109.913,2.109,2.739v4.869a17.692,17.692,0,0,1-.174,2.826h3.13a21.265,21.265,0,0,1-.152-2.826v-4.3a4.112,4.112,0,0,1,1.369-2.7,2.514,2.514,0,0,1,1.783-.652c1.456,0,2.13.87,2.13,2.782v4.869a17.179,17.179,0,0,1-.174,2.826h3.174a17.693,17.693,0,0,1-.174-2.826v-5.369a4.5,4.5,0,0,0-1.022-3.3,4.29,4.29,0,0,0-3.261-1.239A4.8,4.8,0,0,0,104-32.5a5.029,5.029,0,0,0-1.826,1.717,2.818,2.818,0,0,0-.826-1.3,3.9,3.9,0,0,0-2.8-.978A4.383,4.383,0,0,0,94.5-30.893c.022-.348.022-.674.022-.8v-1.109H91.613a19.014,19.014,0,0,1,.152,2.826v6.826a21.931,21.931,0,0,1-.152,2.826Zm26.716,0h2.935a17.484,17.484,0,0,1-.174-2.717v-5.848a3.65,3.65,0,0,0-1.022-3c-.935-.913-2.2-1.283-4.282-1.283a6.509,6.509,0,0,0-4.152,1.109,4.542,4.542,0,0,0-1.717,2.413l2.782.5a2.369,2.369,0,0,1,.87-1.391,3.922,3.922,0,0,1,2.261-.63c1.652,0,2.5.652,2.5,1.913v1.109c-3.109.065-4.717.283-6.13.87a3.856,3.856,0,0,0-2.456,3.522c0,2.283,1.609,3.652,4.261,3.652a7.692,7.692,0,0,0,2.022-.261,4.714,4.714,0,0,0,2.3-1.37Zm0-4.848a2.591,2.591,0,0,1-.783,1.913,4.414,4.414,0,0,1-3.022,1.152c-1.217,0-1.978-.63-1.978-1.652,0-1.7,1.63-2.413,5.782-2.5Zm16.412-4.087a7.237,7.237,0,0,0-.761-1.587,5.623,5.623,0,0,0-4.869-2.348,5.953,5.953,0,0,0-4.369,1.652,7.029,7.029,0,0,0-1.848,5.022c0,4.022,2.478,6.608,6.3,6.608a5.649,5.649,0,0,0,4.782-2.2,6.086,6.086,0,0,0,.913-1.848l-2.7-.543a3.039,3.039,0,0,1-.435,1.087,2.91,2.91,0,0,1-2.5,1.217c-2.2,0-3.543-1.674-3.543-4.391,0-2.7,1.326-4.369,3.456-4.369a2.735,2.735,0,0,1,2.239,1,3.917,3.917,0,0,1,.674,1.326Zm1.848-8.369a20.34,20.34,0,0,1,.152,2.848v11.63a17.868,17.868,0,0,1-.174,2.826h3.13a19.341,19.341,0,0,1-.174-2.826v-4.391c.978-2.174,2.239-3.217,3.869-3.217a2.018,2.018,0,0,1,1.5.63,3.066,3.066,0,0,1,.63,2.152v4.826a23.1,23.1,0,0,1-.152,2.826h3.152a17.178,17.178,0,0,1-.174-2.826v-5.478c0-2.8-1.587-4.391-4.369-4.391a5.075,5.075,0,0,0-4.5,2.3,8.917,8.917,0,0,0,.043-.935v-3.109a20.892,20.892,0,0,1,.152-2.869Zm14.173,0v2.761h3.2v-2.761Zm0,4.826A17.866,17.866,0,0,1,154-29.98v6.826a19.536,19.536,0,0,1-.174,2.826H157a21.835,21.835,0,0,1-.152-2.848v-6.782A19.538,19.538,0,0,1,157-32.806Zm8.587,12.478a19.341,19.341,0,0,1-.174-2.826v-4.391c.956-2.152,2.239-3.239,3.8-3.239a2.045,2.045,0,0,1,1.826.891,3.571,3.571,0,0,1,.37,1.913v4.826a23.1,23.1,0,0,1-.152,2.826h3.152a17.178,17.178,0,0,1-.174-2.826v-5.217a4.834,4.834,0,0,0-.739-3.043,4.3,4.3,0,0,0-3.7-1.609,4.969,4.969,0,0,0-4.435,2.3,8.495,8.495,0,0,0,.043-.935v-1.152h-2.956a17.867,17.867,0,0,1,.174,2.826v6.826a18.043,18.043,0,0,1-.174,2.826Zm22.76-5.522c-.043-.5-.043-.565-.043-.609a8.936,8.936,0,0,0-.63-3.3,5.522,5.522,0,0,0-5.413-3.435c-3.717,0-6.13,2.63-6.13,6.652,0,4.065,2.435,6.63,6.282,6.63a6.173,6.173,0,0,0,4.478-1.674,6.109,6.109,0,0,0,1.326-2l-2.565-.826a3.159,3.159,0,0,1-.63,1.13,3.437,3.437,0,0,1-2.609,1.087,3.416,3.416,0,0,1-2.717-1.217,4.04,4.04,0,0,1-.8-2.435ZM175.783-28a3.265,3.265,0,0,1,3.261-2.956,3.1,3.1,0,0,1,2.348.87A3.412,3.412,0,0,1,182.348-28Zm17.369,4.13A4.889,4.889,0,0,0,194-21.937c.935,1.261,2.609,1.935,4.848,1.935a6.417,6.417,0,0,0,4.5-1.413,3.5,3.5,0,0,0,1.065-2.456,3.089,3.089,0,0,0-1.261-2.7c-.717-.543-1.609-.848-3.826-1.326a9.157,9.157,0,0,1-2.174-.652,1.172,1.172,0,0,1-.674-1.022c0-.913.913-1.522,2.261-1.522,1.413,0,2.152.522,2.391,1.717l2.869-.37a4.232,4.232,0,0,0-1.174-2.152,5.931,5.931,0,0,0-4.087-1.261,5.242,5.242,0,0,0-4.348,1.7,3.234,3.234,0,0,0-.674,2.022,3.113,3.113,0,0,0,1.913,2.891,13.142,13.142,0,0,0,3.13.935c1.739.391,1.869.413,2.283.7a1.329,1.329,0,0,1,.565,1.087c0,1.022-1,1.652-2.609,1.652-1.7,0-2.5-.587-2.869-2.065ZM210.3-21.2l-.739,1.674a1.814,1.814,0,0,1-1.7,1.087,3.608,3.608,0,0,1-1.522-.37l-.5,2.478a11.225,11.225,0,0,0,2.283.261,3.852,3.852,0,0,0,4-2.413l4.956-11.63c.652-1.522,1.043-2.413,1.174-2.7H215.02a13,13,0,0,1-.826,2.565l-2.413,6.152-2.652-6.174a12.59,12.59,0,0,1-.826-2.543H205c.261.478.283.543,1.239,2.7Zm12.13.87a22.628,22.628,0,0,1-.152-2.826v-4.3a4.908,4.908,0,0,1,.935-2.174,2.693,2.693,0,0,1,2.239-1.13c1.413,0,2.109.913,2.109,2.739v4.869a17.69,17.69,0,0,1-.174,2.826h3.13a21.266,21.266,0,0,1-.152-2.826v-4.3a4.112,4.112,0,0,1,1.369-2.7,2.514,2.514,0,0,1,1.783-.652c1.456,0,2.13.87,2.13,2.782v4.869a17.178,17.178,0,0,1-.174,2.826h3.174a17.691,17.691,0,0,1-.174-2.826v-5.369a4.5,4.5,0,0,0-1.022-3.3,4.29,4.29,0,0,0-3.261-1.239,4.8,4.8,0,0,0-2.435.565,5.03,5.03,0,0,0-1.826,1.717,2.818,2.818,0,0,0-.826-1.3,3.9,3.9,0,0,0-2.8-.978,4.383,4.383,0,0,0-4.043,2.174c.022-.348.022-.674.022-.8v-1.109h-2.913a19.016,19.016,0,0,1,.152,2.826v6.826a21.933,21.933,0,0,1-.152,2.826Zm21.347,0v-1.065c0-.261,0-.5-.022-.783a4.729,4.729,0,0,0,4.326,2.152,5.573,5.573,0,0,0,4.174-1.565,7.106,7.106,0,0,0,1.783-5.087c0-4.043-2.152-6.413-5.8-6.413a5.067,5.067,0,0,0-4.478,2.2c.022-.739.043-1.283.043-1.63V-34.7a22.159,22.159,0,0,1,.152-2.935h-3.065a25.35,25.35,0,0,1,.152,2.913v11.456a22.82,22.82,0,0,1-.152,2.935Zm7.434-6.348c0,2.63-1.413,4.326-3.609,4.326a3.787,3.787,0,0,1-2.283-.8,4.534,4.534,0,0,1-1.435-3.435,4.682,4.682,0,0,1,1.065-3.022,3.879,3.879,0,0,1,2.956-1.2C249.91-30.806,251.214-29.176,251.214-26.676ZM255.8-37.632v2.761H259v-2.761Zm0,4.826a17.867,17.867,0,0,1,.174,2.826v6.826a19.536,19.536,0,0,1-.174,2.826h3.174a21.841,21.841,0,0,1-.152-2.848v-6.782a19.542,19.542,0,0,1,.152-2.848Zm11.434,12.891c3.869,0,6.413-2.652,6.413-6.674s-2.5-6.587-6.435-6.587c-3.956,0-6.478,2.587-6.478,6.63C260.736-22.48,263.257-19.915,267.235-19.915Zm-.022-11c2.3,0,3.63,1.609,3.63,4.413,0,2.652-1.391,4.282-3.652,4.282s-3.652-1.652-3.652-4.326C263.54-29.263,264.931-30.915,267.214-30.915Zm7.63,7.043a4.889,4.889,0,0,0,.848,1.935C276.626-20.676,278.3-20,280.539-20a6.417,6.417,0,0,0,4.5-1.413,3.5,3.5,0,0,0,1.065-2.456,3.089,3.089,0,0,0-1.261-2.7c-.717-.543-1.609-.848-3.826-1.326a9.157,9.157,0,0,1-2.174-.652,1.172,1.172,0,0,1-.674-1.022c0-.913.913-1.522,2.261-1.522,1.413,0,2.152.522,2.391,1.717l2.869-.37a4.232,4.232,0,0,0-1.174-2.152,5.931,5.931,0,0,0-4.087-1.261,5.242,5.242,0,0,0-4.348,1.7,3.234,3.234,0,0,0-.674,2.022,3.113,3.113,0,0,0,1.913,2.891,13.141,13.141,0,0,0,3.13.935c1.739.391,1.87.413,2.283.7a1.329,1.329,0,0,1,.565,1.087c0,1.022-1,1.652-2.609,1.652-1.7,0-2.5-.587-2.869-2.065Zm13-13.76v2.761h3.2v-2.761Zm0,4.826a17.87,17.87,0,0,1,.174,2.826v6.826a19.54,19.54,0,0,1-.174,2.826h3.174a21.835,21.835,0,0,1-.152-2.848v-6.782a19.537,19.537,0,0,1,.152-2.848Zm4.913,8.934a4.889,4.889,0,0,0,.848,1.935c.935,1.261,2.609,1.935,4.848,1.935a6.417,6.417,0,0,0,4.5-1.413,3.5,3.5,0,0,0,1.065-2.456,3.089,3.089,0,0,0-1.261-2.7c-.717-.543-1.609-.848-3.826-1.326a9.157,9.157,0,0,1-2.174-.652,1.172,1.172,0,0,1-.674-1.022c0-.913.913-1.522,2.261-1.522,1.413,0,2.152.522,2.391,1.717l2.869-.37a4.232,4.232,0,0,0-1.174-2.152,5.931,5.931,0,0,0-4.087-1.261,5.242,5.242,0,0,0-4.348,1.7,3.234,3.234,0,0,0-.674,2.022,3.113,3.113,0,0,0,1.913,2.891,13.141,13.141,0,0,0,3.13.935c1.739.391,1.87.413,2.283.7a1.329,1.329,0,0,1,.565,1.087c0,1.022-1,1.652-2.609,1.652-1.7,0-2.5-.587-2.869-2.065ZM13.638,16.025a7.236,7.236,0,0,0-.761-1.587A5.623,5.623,0,0,0,8.007,12.09a5.953,5.953,0,0,0-4.369,1.652A7.029,7.029,0,0,0,1.79,18.764c0,4.022,2.478,6.608,6.3,6.608a5.649,5.649,0,0,0,4.782-2.2,6.086,6.086,0,0,0,.913-1.848l-2.7-.543a3.038,3.038,0,0,1-.435,1.087,2.91,2.91,0,0,1-2.5,1.217c-2.2,0-3.543-1.674-3.543-4.391,0-2.7,1.326-4.369,3.456-4.369a2.735,2.735,0,0,1,2.239,1,3.917,3.917,0,0,1,.674,1.326Zm7.8,9.347c3.869,0,6.413-2.652,6.413-6.674s-2.5-6.587-6.435-6.587c-3.956,0-6.478,2.587-6.478,6.63C14.942,22.807,17.464,25.373,21.442,25.373Zm-.022-11c2.3,0,3.63,1.609,3.63,4.413,0,2.652-1.391,4.282-3.652,4.282s-3.652-1.652-3.652-4.326C17.746,16.025,19.137,14.373,21.42,14.373Zm11.3,10.586a19.341,19.341,0,0,1-.174-2.826V17.742c.956-2.152,2.239-3.239,3.8-3.239a2.045,2.045,0,0,1,1.826.891,3.571,3.571,0,0,1,.37,1.913v4.826a23.1,23.1,0,0,1-.152,2.826H41.55a17.178,17.178,0,0,1-.174-2.826V16.916a4.834,4.834,0,0,0-.739-3.043,4.3,4.3,0,0,0-3.7-1.609,4.969,4.969,0,0,0-4.435,2.3,8.493,8.493,0,0,0,.043-.935V12.482H29.594a17.866,17.866,0,0,1,.174,2.826v6.826a18.043,18.043,0,0,1-.174,2.826Zm14.2,0a19.341,19.341,0,0,1-.174-2.826V17.742c.956-2.152,2.239-3.239,3.8-3.239a2.045,2.045,0,0,1,1.826.891,3.571,3.571,0,0,1,.37,1.913v4.826a23.1,23.1,0,0,1-.152,2.826h3.152a17.178,17.178,0,0,1-.174-2.826V16.916a4.834,4.834,0,0,0-.739-3.043,4.3,4.3,0,0,0-3.7-1.609,4.969,4.969,0,0,0-4.435,2.3,8.495,8.495,0,0,0,.043-.935V12.482H43.789a17.866,17.866,0,0,1,.174,2.826v6.826a18.043,18.043,0,0,1-.174,2.826Zm22.76-5.521c-.043-.5-.043-.565-.043-.609a8.936,8.936,0,0,0-.63-3.3,5.522,5.522,0,0,0-5.413-3.435c-3.717,0-6.13,2.63-6.13,6.652,0,4.065,2.435,6.63,6.282,6.63A6.173,6.173,0,0,0,68.222,23.7a6.109,6.109,0,0,0,1.326-2l-2.565-.826a3.159,3.159,0,0,1-.63,1.13,3.657,3.657,0,0,1-5.326-.13,4.04,4.04,0,0,1-.8-2.435Zm-9.391-2.152a3.265,3.265,0,0,1,3.261-2.956,3.1,3.1,0,0,1,2.348.87,3.412,3.412,0,0,1,.956,2.087Zm22.434-1.261a7.236,7.236,0,0,0-.761-1.587,5.623,5.623,0,0,0-4.869-2.348,5.953,5.953,0,0,0-4.369,1.652,7.029,7.029,0,0,0-1.848,5.022c0,4.022,2.478,6.608,6.3,6.608a5.649,5.649,0,0,0,4.782-2.2,6.086,6.086,0,0,0,.913-1.848l-2.7-.543a3.039,3.039,0,0,1-.435,1.087,2.91,2.91,0,0,1-2.5,1.217c-2.2,0-3.543-1.674-3.543-4.391,0-2.7,1.326-4.369,3.456-4.369a2.735,2.735,0,0,1,2.239,1,3.917,3.917,0,0,1,.674,1.326ZM86,9.134a25.021,25.021,0,0,1,.152,2.674v.674h-.8a9.984,9.984,0,0,1-1.956-.13v2.565a10.977,10.977,0,0,1,1.935-.13h.826v7.3c0,2.283,1,3.174,3.5,3.174a6.8,6.8,0,0,0,2.717-.457l-.391-2.3a2.875,2.875,0,0,1-1.587.478c-1.043,0-1.435-.391-1.435-1.456V14.786h.978a11.985,11.985,0,0,1,2.13.13V12.351a12.489,12.489,0,0,1-2.2.13H88.96v-.674a24.043,24.043,0,0,1,.152-2.674Zm7,12.282a4.889,4.889,0,0,0,.848,1.935c.935,1.261,2.609,1.935,4.848,1.935a6.417,6.417,0,0,0,4.5-1.413,3.5,3.5,0,0,0,1.065-2.456,3.089,3.089,0,0,0-1.261-2.7c-.717-.543-1.609-.848-3.826-1.326A9.156,9.156,0,0,1,97,16.742a1.172,1.172,0,0,1-.674-1.022c0-.913.913-1.522,2.261-1.522,1.413,0,2.152.522,2.391,1.717l2.869-.37a4.232,4.232,0,0,0-1.174-2.152,5.931,5.931,0,0,0-4.087-1.261,5.242,5.242,0,0,0-4.348,1.7,3.234,3.234,0,0,0-.674,2.022,3.113,3.113,0,0,0,1.913,2.891,13.141,13.141,0,0,0,3.13.935c1.739.391,1.869.413,2.283.7a1.329,1.329,0,0,1,.565,1.087c0,1.022-1,1.652-2.609,1.652-1.7,0-2.5-.587-2.869-2.065Zm21.26-12.282a25.021,25.021,0,0,1,.152,2.674v.674h-.8a9.985,9.985,0,0,1-1.956-.13v2.565a10.977,10.977,0,0,1,1.935-.13h.826v7.3c0,2.283,1,3.174,3.5,3.174a6.8,6.8,0,0,0,2.717-.457l-.391-2.3a2.875,2.875,0,0,1-1.587.478c-1.043,0-1.435-.391-1.435-1.456V14.786h.978a11.985,11.985,0,0,1,2.13.13V12.351a12.489,12.489,0,0,1-2.2.13h-.913v-.674a24.041,24.041,0,0,1,.152-2.674Zm7.565-1.478a20.34,20.34,0,0,1,.152,2.848v11.63a17.868,17.868,0,0,1-.174,2.826h3.13a19.341,19.341,0,0,1-.174-2.826V17.742c.978-2.174,2.239-3.217,3.869-3.217a2.018,2.018,0,0,1,1.5.63,3.066,3.066,0,0,1,.63,2.152v4.826a23.1,23.1,0,0,1-.152,2.826h3.152a17.178,17.178,0,0,1-.174-2.826V16.655c0-2.8-1.587-4.391-4.369-4.391a5.075,5.075,0,0,0-4.5,2.3,8.917,8.917,0,0,0,.043-.935V10.525a20.892,20.892,0,0,1,.152-2.869ZM147.7,19.438c-.043-.5-.043-.565-.043-.609a8.936,8.936,0,0,0-.63-3.3,5.522,5.522,0,0,0-5.413-3.435c-3.717,0-6.13,2.63-6.13,6.652,0,4.065,2.435,6.63,6.282,6.63a6.173,6.173,0,0,0,4.478-1.674,6.109,6.109,0,0,0,1.326-2L145,20.873a3.159,3.159,0,0,1-.63,1.13,3.657,3.657,0,0,1-5.326-.13,4.04,4.04,0,0,1-.8-2.435Zm-9.391-2.152a3.265,3.265,0,0,1,3.261-2.956,3.1,3.1,0,0,1,2.348.87,3.412,3.412,0,0,1,.956,2.087Zm17.912-9.63v2.761h3.2V7.656Zm0,4.826a17.866,17.866,0,0,1,.174,2.826v6.826a19.536,19.536,0,0,1-.174,2.826h3.174a21.835,21.835,0,0,1-.152-2.848V15.329a19.538,19.538,0,0,1,.152-2.848Zm8.587,12.478a19.341,19.341,0,0,1-.174-2.826V17.742c.956-2.152,2.239-3.239,3.8-3.239a2.045,2.045,0,0,1,1.826.891,3.571,3.571,0,0,1,.37,1.913v4.826a23.1,23.1,0,0,1-.152,2.826h3.152a17.178,17.178,0,0,1-.174-2.826V16.916a4.834,4.834,0,0,0-.739-3.043,4.3,4.3,0,0,0-3.7-1.609,4.969,4.969,0,0,0-4.435,2.3,8.495,8.495,0,0,0,.043-.935V12.482h-2.956a17.868,17.868,0,0,1,.174,2.826v6.826a18.045,18.045,0,0,1-.174,2.826Zm12.869-10.2v7.369a23.346,23.346,0,0,1-.152,2.826h3.109a21.486,21.486,0,0,1-.152-2.826V14.764h1.065a18.709,18.709,0,0,1,2.413.13V12.351a23.874,23.874,0,0,1-2.456.13h-1.022V11.59c0-1.5.435-2.022,1.7-2.022a3.6,3.6,0,0,1,1.935.522l.587-2.283a7.86,7.86,0,0,0-2.7-.435c-2.956,0-4.326,1.261-4.326,3.956v1.152h-.891a14.246,14.246,0,0,1-2.043-.13v2.543a14.787,14.787,0,0,1,2.065-.13Zm8.13-7.108v2.761H189V7.656Zm0,4.826a17.866,17.866,0,0,1,.174,2.826v6.826a19.536,19.536,0,0,1-.174,2.826h3.174a21.835,21.835,0,0,1-.152-2.848V15.329a19.538,19.538,0,0,1,.152-2.848Zm8.587,12.478a19.341,19.341,0,0,1-.174-2.826V17.742c.956-2.152,2.239-3.239,3.8-3.239a2.045,2.045,0,0,1,1.826.891,3.571,3.571,0,0,1,.37,1.913v4.826a23.1,23.1,0,0,1-.152,2.826h3.152a17.178,17.178,0,0,1-.174-2.826V16.916a4.834,4.834,0,0,0-.739-3.043,4.3,4.3,0,0,0-3.7-1.609,4.969,4.969,0,0,0-4.435,2.3,8.495,8.495,0,0,0,.043-.935V12.482H191.26a17.866,17.866,0,0,1,.174,2.826v6.826a18.043,18.043,0,0,1-.174,2.826Zm11.065-17.3v2.761h3.2V7.656Zm0,4.826a17.866,17.866,0,0,1,.174,2.826v6.826a19.536,19.536,0,0,1-.174,2.826h3.174a21.835,21.835,0,0,1-.152-2.848V15.329a19.538,19.538,0,0,1,.152-2.848Zm6.913-3.348a25.015,25.015,0,0,1,.152,2.674v.674h-.8a9.984,9.984,0,0,1-1.956-.13v2.565a10.977,10.977,0,0,1,1.935-.13h.826v7.3c0,2.283,1,3.174,3.5,3.174a6.8,6.8,0,0,0,2.717-.457l-.391-2.3a2.875,2.875,0,0,1-1.587.478c-1.043,0-1.435-.391-1.435-1.456V14.786h.978a11.985,11.985,0,0,1,2.13.13V12.351a12.489,12.489,0,0,1-2.2.13h-.913v-.674a24.041,24.041,0,0,1,.152-2.674Zm19.238,10.3c-.043-.5-.043-.565-.043-.609a8.937,8.937,0,0,0-.63-3.3,5.522,5.522,0,0,0-5.413-3.435c-3.717,0-6.13,2.63-6.13,6.652,0,4.065,2.435,6.63,6.282,6.63A6.173,6.173,0,0,0,230.15,23.7a6.109,6.109,0,0,0,1.326-2l-2.565-.826a3.159,3.159,0,0,1-.63,1.13,3.657,3.657,0,0,1-5.326-.13,4.04,4.04,0,0,1-.8-2.435Zm-9.391-2.152a3.265,3.265,0,0,1,3.261-2.956,3.1,3.1,0,0,1,2.348.87,3.412,3.412,0,0,1,.956,2.087ZM4.3,58.388H1.413A22.46,22.46,0,0,1,1.565,61.3V72.236a24.337,24.337,0,0,1-.152,2.869H4.478a21.666,21.666,0,0,1-.152-2.891V70.562c0-.391,0-.783-.022-.935-.022-.435-.022-.435-.022-.7a5.083,5.083,0,0,0,4.391,2.087c3.7,0,5.891-2.413,5.891-6.413a6.777,6.777,0,0,0-1.717-5,5.616,5.616,0,0,0-4.13-1.522,5.062,5.062,0,0,0-4.435,2.13c.022-.283.022-.522.022-.761Zm7.434,6.174c0,2.565-1.326,4.174-3.456,4.174A4.178,4.178,0,0,1,8.2,60.41C10.391,60.41,11.739,62,11.739,64.562Zm10.608,6.717c3.869,0,6.413-2.652,6.413-6.674s-2.5-6.587-6.434-6.587c-3.956,0-6.478,2.587-6.478,6.63C15.847,68.714,18.369,71.279,22.347,71.279Zm-.022-11c2.3,0,3.63,1.609,3.63,4.413,0,2.652-1.391,4.282-3.652,4.282s-3.652-1.652-3.652-4.326C18.651,61.932,20.043,60.28,22.325,60.28Zm7.63,7.043a4.889,4.889,0,0,0,.848,1.935c.935,1.261,2.609,1.935,4.848,1.935a6.417,6.417,0,0,0,4.5-1.413,3.5,3.5,0,0,0,1.065-2.456,3.089,3.089,0,0,0-1.261-2.7c-.717-.543-1.609-.848-3.826-1.326a9.157,9.157,0,0,1-2.174-.652,1.172,1.172,0,0,1-.674-1.022c0-.913.913-1.522,2.261-1.522,1.413,0,2.152.522,2.391,1.717l2.869-.37A4.232,4.232,0,0,0,39.629,59.3a5.931,5.931,0,0,0-4.087-1.261,5.242,5.242,0,0,0-4.348,1.7,3.234,3.234,0,0,0-.674,2.022,3.113,3.113,0,0,0,1.913,2.891,13.142,13.142,0,0,0,3.13.935c1.739.391,1.869.413,2.283.7a1.329,1.329,0,0,1,.565,1.087c0,1.022-1,1.652-2.609,1.652-1.7,0-2.5-.587-2.869-2.065Zm12.456,0a4.889,4.889,0,0,0,.848,1.935c.935,1.261,2.609,1.935,4.848,1.935a6.417,6.417,0,0,0,4.5-1.413,3.5,3.5,0,0,0,1.065-2.456,3.089,3.089,0,0,0-1.261-2.7c-.717-.543-1.609-.848-3.826-1.326a9.157,9.157,0,0,1-2.174-.652,1.172,1.172,0,0,1-.674-1.022c0-.913.913-1.522,2.261-1.522,1.413,0,2.152.522,2.391,1.717l2.869-.37A4.232,4.232,0,0,0,52.085,59.3,5.931,5.931,0,0,0,48,58.041a5.242,5.242,0,0,0-4.348,1.7,3.234,3.234,0,0,0-.674,2.022,3.113,3.113,0,0,0,1.913,2.891,13.142,13.142,0,0,0,3.13.935c1.739.391,1.869.413,2.283.7a1.329,1.329,0,0,1,.565,1.087c0,1.022-1,1.652-2.609,1.652-1.7,0-2.5-.587-2.869-2.065Zm13-13.76v2.761h3.2V53.563Zm0,4.826a17.866,17.866,0,0,1,.174,2.826V68.04a19.536,19.536,0,0,1-.174,2.826h3.174a21.838,21.838,0,0,1-.152-2.848V61.236a19.54,19.54,0,0,1,.152-2.848Zm8.347,12.478V69.8c0-.261,0-.5-.022-.783a4.729,4.729,0,0,0,4.326,2.152,5.574,5.574,0,0,0,4.174-1.565,7.106,7.106,0,0,0,1.782-5.087c0-4.043-2.152-6.413-5.8-6.413a5.067,5.067,0,0,0-4.478,2.2c.022-.739.043-1.283.043-1.63V56.5a22.156,22.156,0,0,1,.152-2.935H60.867a25.351,25.351,0,0,1,.152,2.913V67.932a22.821,22.821,0,0,1-.152,2.935Zm7.434-6.348c0,2.63-1.413,4.326-3.609,4.326a3.787,3.787,0,0,1-2.283-.8,4.534,4.534,0,0,1-1.435-3.435,4.682,4.682,0,0,1,1.065-3.022,3.879,3.879,0,0,1,2.956-1.2C69.888,60.388,71.193,62.019,71.193,64.519Zm4.587-10.956v2.761h3.2V53.563Zm0,4.826a17.87,17.87,0,0,1,.174,2.826V68.04a19.54,19.54,0,0,1-.174,2.826h3.174a21.838,21.838,0,0,1-.152-2.848V61.236a19.54,19.54,0,0,1,.152-2.848Zm5.456-4.826a19.6,19.6,0,0,1,.152,2.826V68.04a21.049,21.049,0,0,1-.152,2.826h3.152a22.391,22.391,0,0,1-.152-2.826V56.41a20.139,20.139,0,0,1,.152-2.848Zm5.456,0v2.761h3.2V53.563Zm0,4.826a17.867,17.867,0,0,1,.174,2.826V68.04a19.537,19.537,0,0,1-.174,2.826h3.174a21.839,21.839,0,0,1-.152-2.848V61.236a19.542,19.542,0,0,1,.152-2.848ZM93.6,55.041a25.023,25.023,0,0,1,.152,2.674v.674h-.8A9.984,9.984,0,0,1,91,58.258v2.565a10.977,10.977,0,0,1,1.935-.13h.826V68c0,2.283,1,3.174,3.5,3.174a6.8,6.8,0,0,0,2.717-.456l-.391-2.3A2.875,2.875,0,0,1,98,68.888c-1.043,0-1.435-.391-1.435-1.456V60.693h.978a11.985,11.985,0,0,1,2.13.13V58.258a12.489,12.489,0,0,1-2.2.13h-.913v-.674a24.045,24.045,0,0,1,.152-2.674Zm7.543-1.478v2.761h3.2V53.563Zm0,4.826a17.87,17.87,0,0,1,.174,2.826V68.04a19.54,19.54,0,0,1-.174,2.826h3.174a21.837,21.837,0,0,1-.152-2.848V61.236a19.54,19.54,0,0,1,.152-2.848ZM118.3,65.345c-.043-.5-.043-.565-.043-.609a8.937,8.937,0,0,0-.63-3.3A5.522,5.522,0,0,0,112.213,58c-3.717,0-6.13,2.63-6.13,6.652,0,4.065,2.435,6.63,6.282,6.63a6.173,6.173,0,0,0,4.478-1.674,6.109,6.109,0,0,0,1.326-2l-2.565-.826a3.16,3.16,0,0,1-.63,1.13,3.657,3.657,0,0,1-5.326-.13,4.04,4.04,0,0,1-.8-2.435Zm-9.391-2.152a3.265,3.265,0,0,1,3.261-2.956,3.1,3.1,0,0,1,2.348.87,3.412,3.412,0,0,1,.956,2.087Zm10.565,4.13a4.889,4.889,0,0,0,.848,1.935c.935,1.261,2.609,1.935,4.848,1.935a6.417,6.417,0,0,0,4.5-1.413,3.5,3.5,0,0,0,1.065-2.456,3.089,3.089,0,0,0-1.261-2.7c-.717-.543-1.609-.848-3.826-1.326a9.157,9.157,0,0,1-2.174-.652,1.172,1.172,0,0,1-.674-1.022c0-.913.913-1.522,2.261-1.522,1.413,0,2.152.522,2.391,1.717l2.869-.37a4.232,4.232,0,0,0-1.174-2.152,5.931,5.931,0,0,0-4.087-1.261,5.242,5.242,0,0,0-4.348,1.7,3.234,3.234,0,0,0-.674,2.022,3.113,3.113,0,0,0,1.913,2.891,13.142,13.142,0,0,0,3.13.935c1.739.391,1.869.413,2.283.7a1.329,1.329,0,0,1,.565,1.087c0,1.022-1,1.652-2.609,1.652-1.7,0-2.5-.587-2.869-2.065Z" transform="translate(179.054 468.542)"/><path d="M2.23.852A1.874,1.874,0,0,1,.776.253,2.219,2.219,0,0,1,.229-1.3,2.351,2.351,0,0,1,.786-2.946,1.944,1.944,0,0,1,2.3-3.56a1.831,1.831,0,0,1,1.424.6,2.227,2.227,0,0,1,.54,1.557A2.359,2.359,0,0,1,3.712.244,1.908,1.908,0,0,1,2.23.852Zm.036-3.959a1.376,1.376,0,0,0-1.092.485,1.878,1.878,0,0,0-.42,1.274,1.891,1.891,0,0,0,.409,1.27A1.335,1.335,0,0,0,2.23.4,1.4,1.4,0,0,0,3.337-.056a1.873,1.873,0,0,0,.4-1.283,1.957,1.957,0,0,0-.393-1.307A1.347,1.347,0,0,0,2.265-3.107ZM17.981-.946q0,1.8-1.622,1.8-1.554,0-1.554-1.729v-2.61h.5V-.91Q15.305.4,16.413.4q1.069,0,1.069-1.268V-3.488h.5ZM31.86.78h-.6l-.714-1.2A2.606,2.606,0,0,0,30.36-.7a1.086,1.086,0,0,0-.189-.192A.655.655,0,0,0,29.963-1a.857.857,0,0,0-.252-.034H29.3V.78h-.5V-3.488h1.274a1.816,1.816,0,0,1,.516.07A1.156,1.156,0,0,1,31-3.205a.989.989,0,0,1,.272.356,1.18,1.18,0,0,1,.1.5,1.2,1.2,0,0,1-.067.409,1.069,1.069,0,0,1-.191.332,1.155,1.155,0,0,1-.3.249,1.52,1.52,0,0,1-.391.159v.012a.9.9,0,0,1,.186.109,1.024,1.024,0,0,1,.15.144,1.913,1.913,0,0,1,.141.189q.07.106.156.246ZM29.3-3.036v1.548h.679a1.029,1.029,0,0,0,.347-.057.8.8,0,0,0,.275-.162.736.736,0,0,0,.182-.259.867.867,0,0,0,.065-.344.669.669,0,0,0-.222-.534.953.953,0,0,0-.641-.192ZM57.976.78h-.5V-2.083q0-.339.042-.83h-.012a2.655,2.655,0,0,1-.128.414L55.922.78h-.244L54.222-2.476a2.552,2.552,0,0,1-.128-.438h-.012q.024.256.024.836V.78h-.482V-3.488h.661l1.31,2.977a3.812,3.812,0,0,1,.2.512h.018q.128-.351.205-.524l1.336-2.965h.625Zm11.376,0h-.5V-3.488h.5ZM80.028.608V.018a1.145,1.145,0,0,0,.243.161,1.965,1.965,0,0,0,.3.121,2.37,2.37,0,0,0,.314.076A1.751,1.751,0,0,0,81.174.4a1.143,1.143,0,0,0,.689-.171.579.579,0,0,0,.228-.493.578.578,0,0,0-.076-.3A.855.855,0,0,0,81.8-.8a2.082,2.082,0,0,0-.317-.2q-.183-.1-.394-.2t-.417-.229a1.805,1.805,0,0,1-.336-.256A1.068,1.068,0,0,1,80.116-2a.981.981,0,0,1-.082-.415.976.976,0,0,1,.128-.508,1.1,1.1,0,0,1,.336-.356,1.525,1.525,0,0,1,.475-.208,2.174,2.174,0,0,1,.543-.068,2.082,2.082,0,0,1,.92.152v.563a1.667,1.667,0,0,0-.97-.262,1.6,1.6,0,0,0-.327.034.925.925,0,0,0-.292.112.646.646,0,0,0-.208.2.529.529,0,0,0-.08.3.613.613,0,0,0,.061.283.693.693,0,0,0,.18.217,1.793,1.793,0,0,0,.29.191q.171.092.394.2t.435.238a1.986,1.986,0,0,1,.36.277,1.23,1.23,0,0,1,.246.336.946.946,0,0,1,.091.423,1.072,1.072,0,0,1-.124.534,1.014,1.014,0,0,1-.333.356,1.456,1.456,0,0,1-.484.2A2.649,2.649,0,0,1,81.1.852a2.353,2.353,0,0,1-.25-.016q-.149-.016-.3-.048A2.478,2.478,0,0,1,80.25.71.912.912,0,0,1,80.028.608Zm12.992,0V.018a1.144,1.144,0,0,0,.243.161,1.965,1.965,0,0,0,.3.121,2.369,2.369,0,0,0,.314.076A1.751,1.751,0,0,0,94.166.4a1.143,1.143,0,0,0,.689-.171.579.579,0,0,0,.228-.493.578.578,0,0,0-.076-.3A.855.855,0,0,0,94.8-.8,2.082,2.082,0,0,0,94.48-1q-.183-.1-.394-.2t-.417-.229a1.806,1.806,0,0,1-.336-.256A1.068,1.068,0,0,1,93.108-2a.981.981,0,0,1-.082-.415.976.976,0,0,1,.128-.508,1.1,1.1,0,0,1,.336-.356,1.525,1.525,0,0,1,.475-.208,2.174,2.174,0,0,1,.543-.068,2.082,2.082,0,0,1,.92.152v.563a1.667,1.667,0,0,0-.97-.262,1.6,1.6,0,0,0-.327.034.925.925,0,0,0-.292.112.646.646,0,0,0-.208.2.529.529,0,0,0-.08.3.613.613,0,0,0,.061.283.693.693,0,0,0,.18.217,1.793,1.793,0,0,0,.29.191q.171.092.394.2t.435.238a1.987,1.987,0,0,1,.36.277,1.23,1.23,0,0,1,.246.336.945.945,0,0,1,.091.423,1.072,1.072,0,0,1-.124.534,1.014,1.014,0,0,1-.333.356,1.456,1.456,0,0,1-.484.2,2.649,2.649,0,0,1-.577.061,2.353,2.353,0,0,1-.25-.016q-.149-.016-.3-.048A2.478,2.478,0,0,1,93.242.71.912.912,0,0,1,93.02.608ZM106.712.78h-.5V-3.488h.5Zm12.6.071a1.874,1.874,0,0,1-1.454-.6,2.219,2.219,0,0,1-.546-1.557,2.351,2.351,0,0,1,.557-1.643,1.944,1.944,0,0,1,1.515-.613,1.831,1.831,0,0,1,1.424.6,2.227,2.227,0,0,1,.54,1.557A2.359,2.359,0,0,1,120.79.244,1.908,1.908,0,0,1,119.308.852Zm.036-3.959a1.376,1.376,0,0,0-1.092.485,1.878,1.878,0,0,0-.42,1.274,1.891,1.891,0,0,0,.409,1.27A1.335,1.335,0,0,0,119.308.4a1.4,1.4,0,0,0,1.107-.458,1.873,1.873,0,0,0,.4-1.283,1.957,1.957,0,0,0-.393-1.307A1.347,1.347,0,0,0,119.344-3.107ZM135.378.78h-.613l-2.2-3.4a1.423,1.423,0,0,1-.137-.268h-.018a4.392,4.392,0,0,1,.024.586V.78h-.5V-3.488h.649l2.137,3.349q.134.208.173.286h.012a4.518,4.518,0,0,1-.03-.628V-3.488h.5Z" transform="translate(180 408)"/></g></g></svg>