<svg xmlns="http://www.w3.org/2000/svg" xmlns:xlink="http://www.w3.org/1999/xlink" width="690" height="333.626" viewBox="0 0 690 333.626">
  <defs>
    <clipPath id="clip-path">
      <rect id="矩形_2284" data-name="矩形 2284" width="690" height="333.626" transform="translate(2483 -924)" fill="#fff"/>
    </clipPath>
  </defs>
  <g id="小屏-banner" transform="translate(-2483 530)">
    <g id="组_21814" data-name="组 21814" transform="translate(2568.72 -510.427)">
      <g id="组_21806" data-name="组 21806" transform="translate(281.423 65.383)">
        <rect id="矩形_2362" data-name="矩形 2362" width="21.226" height="21.506" rx="6.75" transform="translate(0 48.328)" fill="none" stroke="#0080f4" stroke-miterlimit="10" stroke-width="1"/>
        <rect id="矩形_2364" data-name="矩形 2364" width="15.297" height="15.594" rx="6.75" transform="translate(5.09 93.213)" fill="none" stroke="#0080f4" stroke-miterlimit="10" stroke-width="1"/>
        <rect id="矩形_2365" data-name="矩形 2365" width="12.512" height="12.755" rx="5.568" transform="translate(41.073 120.896)" fill="none" stroke="#0080f4" stroke-miterlimit="10" stroke-width="1"/>
        <rect id="矩形_2366" data-name="矩形 2366" width="12.512" height="12.755" rx="5.568" transform="translate(181.521 120.896)" fill="none" stroke="#ef54a1" stroke-miterlimit="10" stroke-width="1"/>
        <g id="left" transform="translate(10.633 2.118)">
          <path id="line_1" d="M83.38,43.043s-9.927,9.337-12.765,19.93" transform="translate(-55.025 -29.355)" fill="none" stroke="#0080f4" stroke-linecap="round" stroke-miterlimit="10" stroke-width="1"/>
          <path id="line_2" d="M73.425,32.981S61.633,43.734,58.6,56.725" transform="translate(-47.562 -23.108)" fill="none" stroke="#0080f4" stroke-linecap="round" stroke-miterlimit="10" stroke-width="1"/>
          <path id="line_3" d="M63.025,19.274S47.475,33.3,43.518,48.535" transform="translate(-38.201 -14.597)" fill="none" stroke="#0080f4" stroke-linecap="round" stroke-miterlimit="10" stroke-width="1"/>
          <path id="line4" d="M52.359,6.938S36.529,18.171,29.494,41.2" transform="translate(-29.494 -6.938)" fill="none" stroke="#0080f4" stroke-linecap="round" stroke-miterlimit="10" stroke-width="1"/>
        </g>
        <g id="right" transform="translate(196.288 0.916)">
          <path id="line_01" d="M519.192,36.531s8.241,11.024,9.2,21.948" transform="translate(-519.192 -24.11)" fill="none" stroke="#ef54a1" stroke-linecap="round" stroke-miterlimit="10" stroke-width="1"/>
          <path id="line_02" d="M527.61,28.052s9.756,12.63,10.5,25.951" transform="translate(-524.419 -18.845)" fill="none" stroke="#ef54a1" stroke-linecap="round" stroke-miterlimit="10" stroke-width="1"/>
          <path id="line_03" d="M532.68,15.025s12.89,16.508,14.154,32.193" transform="translate(-527.566 -10.757)" fill="none" stroke="#ef54a1" stroke-linecap="round" stroke-miterlimit="10" stroke-width="1"/>
          <path id="line_04" d="M539.9,3.768s13.649,13.8,16.6,37.695" transform="translate(-532.05 -3.768)" fill="none" stroke="#ef54a1" stroke-linecap="round" stroke-miterlimit="10" stroke-width="1"/>
        </g>
        <path id="路径_38534" data-name="路径 38534" d="M171.672,16.741s-2.958-9.314-19.387-12.831H136.136l-17.948.72S86.528,10.945,78.154,41.964v72.7s-.06,3.171,3.618,3.211,25.144,0,25.144,0a2.046,2.046,0,0,1,2.228,2.228v33.681s-.17,2.305,2.009,2.305H224.344V123.217a6.209,6.209,0,0,1,6.209-6.209h15.283a4.544,4.544,0,0,0,4.543-4.544v-9.021a10.253,10.253,0,0,1,1.4-3.078c.959-1.319,2.638-2.278,0-4.877.519-.56,2.079-1.159,2.358-3.158V87.414l7.435-4.118s1.959-2.039,0-5.556L248.782,60.352s-1.719-1.4-.16-4.4l4.357-7.275-6.836-21.746s-4.1-15.243-28.408-23.025-53.3,3.837-62.466,12.9a49.157,49.157,0,0,0-10.591,15.338" transform="translate(-49.073 -1.352)" fill="none" stroke="#000" stroke-linecap="round" stroke-miterlimit="10" stroke-width="1"/>
        <path id="路径_38535" data-name="路径 38535" d="M157.074,12.615H183.9L187.774,8.1" transform="translate(-98.073 -5.54)" fill="none" stroke="#000" stroke-linecap="round" stroke-miterlimit="10" stroke-width="1"/>
        <path id="路径_38536" data-name="路径 38536" d="M215.191,15.057H195.977l-3.944,4.983H176.044l-3.837,4.9H167.2v4.164" transform="translate(-104.358 -9.861)" fill="none" stroke="#000" stroke-linecap="round" stroke-miterlimit="10" stroke-width="1"/>
        <path id="路径_38537" data-name="路径 38537" d="M134.159,32.348V42.5l2.612,2.239v5.037" transform="translate(-83.845 -20.597)" fill="none" stroke="#000" stroke-linecap="round" stroke-miterlimit="10" stroke-width="1"/>
        <path id="路径_38538" data-name="路径 38538" d="M128.465,36.566v9.993l2.478,2.265v4.983" transform="translate(-80.31 -23.215)" fill="none" stroke="#000" stroke-linecap="round" stroke-miterlimit="10" stroke-width="1"/>
        <path id="路径_38539" data-name="路径 38539" d="M122.631,41.205v9.807l2.665,2.345v4.823" transform="translate(-76.688 -26.096)" fill="none" stroke="#000" stroke-linecap="round" stroke-miterlimit="10" stroke-width="1"/>
        <path id="路径_38540" data-name="路径 38540" d="M117.008,45.985v9.62l2.532,2.185v5.063" transform="translate(-73.197 -29.064)" fill="none" stroke="#000" stroke-linecap="round" stroke-miterlimit="10" stroke-width="1"/>
        <circle id="椭圆_1854" data-name="椭圆 1854" cx="1.979" cy="1.979" r="1.979" transform="translate(52.002 12.907)"/>
        <circle id="椭圆_1855" data-name="椭圆 1855" cx="2.906" cy="2.906" r="2.906" transform="translate(178.015 15.549)"/>
        <circle id="椭圆_1856" data-name="椭圆 1856" cx="3.558" cy="3.558" r="3.558" transform="translate(163.812 21.105)"/>
        <circle id="椭圆_1857" data-name="椭圆 1857" cx="3.323" cy="3.323" r="3.323" transform="translate(155.733 12.706)"/>
        <circle id="椭圆_1858" data-name="椭圆 1858" cx="2.58" cy="2.58" r="2.58" transform="translate(155.829 30.371)"/>
        <circle id="椭圆_1859" data-name="椭圆 1859" cx="2.373" cy="2.373" r="2.373" transform="translate(164.259 37.122)"/>
        <circle id="椭圆_1860" data-name="椭圆 1860" cx="2.091" cy="2.091" r="2.091" transform="translate(147.73 23.716)"/>
        <circle id="椭圆_1861" data-name="椭圆 1861" cx="2.373" cy="2.373" r="2.373" transform="translate(147.008 39.253)"/>
        <circle id="椭圆_1862" data-name="椭圆 1862" cx="2.419" cy="2.419" r="2.419" transform="translate(38.504 26.701)"/>
        <circle id="椭圆_1863" data-name="椭圆 1863" cx="1.611" cy="1.611" r="1.611" transform="translate(37.756 55.141)"/>
        <circle id="椭圆_1864" data-name="椭圆 1864" cx="1.641" cy="1.641" r="1.641" transform="translate(36.141 62.773)"/>
        <circle id="椭圆_1865" data-name="椭圆 1865" cx="1.641" cy="1.641" r="1.641" transform="translate(71.877 58.292)"/>
        <circle id="椭圆_1866" data-name="椭圆 1866" cx="1.595" cy="1.595" r="1.595" transform="translate(48.681 95.961)"/>
        <circle id="椭圆_1867" data-name="椭圆 1867" cx="1.595" cy="1.595" r="1.595" transform="translate(30.704 84.981)"/>
        <path id="路径_38541" data-name="路径 38541" d="M84.184,60.979h23.237l8.528-14.993h32.619v-3.3h60.6" transform="translate(-52.817 -27.012)" fill="none" stroke="#000" stroke-linecap="round" stroke-miterlimit="10" stroke-width="1"/>
        <path id="路径_38542" data-name="路径 38542" d="M148.428,44.052l2.945,2.172v8.088" transform="translate(-92.705 -27.863)" fill="none" stroke="#000" stroke-linecap="round" stroke-miterlimit="10" stroke-width="1"/>
        <path id="路径_38543" data-name="路径 38543" d="M247.893,33.122H225.161L221.11,39.89" transform="translate(-137.832 -21.077)" fill="none" stroke="#000" stroke-linecap="round" stroke-miterlimit="10" stroke-width="1"/>
        <path id="路径_38544" data-name="路径 38544" d="M249.435,36.531H229.321l-3.238,5.39" transform="translate(-140.919 -23.194)" fill="none" stroke="#000" stroke-linecap="round" stroke-miterlimit="10" stroke-width="1"/>
        <path id="路径_38545" data-name="路径 38545" d="M191.961,32.489l-2.8,3.744h5.383Z" transform="translate(-117.996 -20.684)"/>
        <path id="路径_38546" data-name="路径 38546" d="M79,249.062h33.8l8.579,6.918a1.074,1.074,0,0,0,.673.237h79.9a.853.853,0,0,0,.853-.853V243.533l-7.088-3.3v-15.35" transform="translate(-49.596 -140.134)" fill="none" stroke="#000" stroke-linecap="round" stroke-miterlimit="10" stroke-width="1"/>
        <path id="路径_38547" data-name="路径 38547" d="M79.364,105.03h9.927v3.784s-4.963,3.877-4.963,8.395v23.944L79,147.789" transform="translate(-49.596 -65.723)" fill="none" stroke="#000" stroke-linecap="round" stroke-miterlimit="10" stroke-width="1"/>
        <line id="直线_54" data-name="直线 54" x1="9.973" transform="translate(29.401 41.652)" fill="none" stroke="#000" stroke-linecap="round" stroke-miterlimit="10" stroke-width="1"/>
        <path id="路径_38548" data-name="路径 38548" d="M97.919,174.268v13.351l-2,2.119v4.837l1.559,1.119v13.191" transform="translate(-60.104 -108.712)" fill="none" stroke="#000" stroke-linecap="round" stroke-miterlimit="10" stroke-width="1"/>
        <path id="路径_38549" data-name="路径 38549" d="M86.642,210.31v17.148H96.2l3-3.957V196.2h2.079s2.718,3.4,11.193,2.878v17.888a3.1,3.1,0,0,1-3.1,3.1H105.71" transform="translate(-54.343 -122.328)" fill="none" stroke="#000" stroke-linecap="round" stroke-miterlimit="10" stroke-width="1"/>
        <path id="路径_38550" data-name="路径 38550" d="M91.843,206.733v12.179h5.943l2.265-3.091V186.639h3.624" transform="translate(-57.572 -116.393)" fill="none" stroke="#000" stroke-linecap="round" stroke-miterlimit="10" stroke-width="1"/>
        <path id="路径_38551" data-name="路径 38551" d="M120.575,201.647l5.323,5.27h3.578l1.939,2.2" transform="translate(-75.412 -125.711)" fill="none" stroke="#000" stroke-linecap="round" stroke-miterlimit="10" stroke-width="1"/>
        <path id="路径_38552" data-name="路径 38552" d="M120.7,208.852l5.217,5.3h3.877l1.7,2.179" transform="translate(-75.488 -130.184)" fill="none" stroke="#000" stroke-linecap="round" stroke-miterlimit="10" stroke-width="1"/>
        <path id="路径_38553" data-name="路径 38553" d="M120.7,216.812l5.177,5.177h3.877l1.739,2.219" transform="translate(-75.488 -135.127)" fill="none" stroke="#000" stroke-linecap="round" stroke-miterlimit="10" stroke-width="1"/>
        <path id="路径_38554" data-name="路径 38554" d="M120.7,223.982l5.177,5.217h3.9l1.719,2.259" transform="translate(-75.488 -139.578)" fill="none" stroke="#000" stroke-linecap="round" stroke-miterlimit="10" stroke-width="1"/>
        <path id="路径_38555" data-name="路径 38555" d="M141.944,270.058h13.911l9.134,7.355h29.354" transform="translate(-88.679 -168.186)" fill="none" stroke="#000" stroke-linecap="round" stroke-miterlimit="10" stroke-width="1"/>
        <path id="路径_38556" data-name="路径 38556" d="M138.265,275.91h13.766l8.688,7.249h30.7" transform="translate(-86.395 -171.819)" fill="none" stroke="#000" stroke-linecap="round" stroke-miterlimit="10" stroke-width="1"/>
        <path id="路径_38557" data-name="路径 38557" d="M134.932,281.674h13.8l8.848,7.249H189.03" transform="translate(-84.326 -175.398)" fill="none" stroke="#000" stroke-linecap="round" stroke-miterlimit="10" stroke-width="1"/>
        <path id="路径_38558" data-name="路径 38558" d="M210.107,232.153v9.574l-2.159,2.2.159,9.594" transform="translate(-129.66 -144.652)" fill="none" stroke="#000" stroke-linecap="round" stroke-miterlimit="10" stroke-width="1"/>
        <path id="路径_38559" data-name="路径 38559" d="M235.112,231.732v7.022l-2.052,2.412v12.092" transform="translate(-145.251 -144.39)" fill="none" stroke="#000" stroke-linecap="round" stroke-miterlimit="10" stroke-width="1"/>
        <path id="路径_38560" data-name="路径 38560" d="M241.347,231.732v7.895l-2.052,2.039v11.592" transform="translate(-149.122 -144.39)" fill="none" stroke="#000" stroke-linecap="round" stroke-miterlimit="10" stroke-width="1"/>
        <path id="路径_38561" data-name="路径 38561" d="M167.832,324.827v19.107l-2.918,3.278h-3.8" transform="translate(-100.582 -202.191)" fill="none" stroke="#000" stroke-linecap="round" stroke-miterlimit="10" stroke-width="1"/>
        <path id="路径_38562" data-name="路径 38562" d="M170.537,345.921l.107,12.9-4.557,3.491h-4.97" transform="translate(-100.582 -215.287)" fill="none" stroke="#000" stroke-linecap="round" stroke-miterlimit="10" stroke-width="1"/>
        <line id="直线_55" data-name="直线 55" x2="48.843" transform="translate(60.534 150.9)" fill="none" stroke="#000" stroke-linecap="round" stroke-miterlimit="10" stroke-width="1"/>
        <path id="路径_38563" data-name="路径 38563" d="M217.877,308.526v8.155l1.439,1.759v24.3" transform="translate(-135.824 -192.07)" fill="none" stroke="#000" stroke-linecap="round" stroke-miterlimit="10" stroke-width="1"/>
        <path id="路径_38564" data-name="路径 38564" d="M224.063,308.526v7.035l2.132,2.292v24.89" transform="translate(-139.665 -192.07)" fill="none" stroke="#000" stroke-linecap="round" stroke-miterlimit="10" stroke-width="1"/>
        <line id="直线_56" data-name="直线 56" y1="23.664" transform="translate(74.111 125.517)" fill="none" stroke="#000" stroke-linecap="round" stroke-miterlimit="10" stroke-width="1"/>
        <line id="直线_57" data-name="直线 57" y1="16.416" transform="translate(76.776 132.925)" fill="none" stroke="#000" stroke-linecap="round" stroke-miterlimit="10" stroke-width="1"/>
        <line id="直线_58" data-name="直线 58" y2="34.218" transform="translate(100.414 116.456)" fill="none" stroke="#000" stroke-linecap="round" stroke-miterlimit="10" stroke-width="1"/>
        <path id="路径_38565" data-name="路径 38565" d="M322.963,217.881h10.82l5.516-8.927h27.3V172.5l-13.631-7.355V147.154l14.311-39.734" transform="translate(-201.07 -67.207)" fill="none" stroke="#000" stroke-linecap="round" stroke-miterlimit="10" stroke-width="1"/>
        <path id="路径_38566" data-name="路径 38566" d="M160.343,69.782l5.317-10.633h54.2l3.837-4.237h27.822l4.357,4.2h8.514" transform="translate(-100.102 -34.606)" fill="none" stroke="#000" stroke-linecap="round" stroke-miterlimit="10" stroke-width="1"/>
        <path id="路径_38567" data-name="路径 38567" d="M169.9,76.879l1.239,1.892,2.652-6.356h13.871" transform="translate(-106.038 -45.473)" fill="none" stroke="#000" stroke-linecap="round" stroke-miterlimit="10" stroke-width="1"/>
        <path id="路径_38568" data-name="路径 38568" d="M192.2,81.282h-6.729l-.728,1.362a.348.348,0,0,1-.307.184h-2.382a.143.143,0,0,1-.134-.193l1.451-3.836a.2.2,0,0,1,.185-.128h8.231a.56.56,0,0,1,.56.56v1.905A.147.147,0,0,1,192.2,81.282Z" transform="translate(-113.496 -49.358)" fill="none" stroke="#000" stroke-linecap="round" stroke-miterlimit="10" stroke-width="1"/>
        <path id="路径_38569" data-name="路径 38569" d="M263.039,81.941h22.9L297.817,68.83h14.95" transform="translate(-163.865 -43.247)" fill="none" stroke="#000" stroke-linecap="round" stroke-miterlimit="10" stroke-width="1"/>
        <path id="路径_38570" data-name="路径 38570" d="M263.039,111.638h22.505l3.278,5.916h8.794" transform="translate(-163.865 -69.826)" fill="none" stroke="#000" stroke-linecap="round" stroke-miterlimit="10" stroke-width="1"/>
        <path id="路径_38571" data-name="路径 38571" d="M155.739,205.759h2.318l8.528,9.54h30.007" transform="translate(-97.244 -128.264)" fill="none" stroke="#000" stroke-linecap="round" stroke-miterlimit="10" stroke-width="1"/>
        <path id="路径_38572" data-name="路径 38572" d="M164.771,196.515l9.214,10.413h26.822" transform="translate(-102.852 -122.525)" fill="none" stroke="#000" stroke-linecap="round" stroke-miterlimit="10" stroke-width="1"/>
        <path id="路径_38573" data-name="路径 38573" d="M119.592,134.833a13.392,13.392,0,1,0-1.335-4.054" transform="translate(-73.869 -72.052)" fill="none" stroke="#000" stroke-linecap="round" stroke-miterlimit="10" stroke-width="1"/>
        <path id="路径_38574" data-name="路径 38574" d="M142.582,127.509a20.318,20.318,0,0,0-11.324-26.744.2.2,0,0,0-.249.1l-.575,1.337a.191.191,0,0,1-.243.1,18.123,18.123,0,1,0,9.771,25.318h12.994l2.418,3.964h2.818" transform="translate(-66.203 -63.067)" fill="none" stroke="#000" stroke-linecap="round" stroke-miterlimit="10" stroke-width="1"/>
        <path id="路径_38575" data-name="路径 38575" d="M178.757,128.817a16.278,16.278,0,0,0,.465-3.873,14.8,14.8,0,0,0-6.38-12.605l.813-1.506a6.778,6.778,0,0,0-3.144-1.585c-.373.533-1.732,3.278-1.732,3.278" transform="translate(-105.34 -68.342)" fill="none" stroke="#000" stroke-linecap="round" stroke-miterlimit="10" stroke-width="1"/>
        <circle id="椭圆_1868" data-name="椭圆 1868" cx="10.662" cy="10.662" r="10.662" transform="translate(46.99 45.94)" fill="none" stroke="#0080f4" stroke-linecap="round" stroke-miterlimit="10" stroke-width="1"/>
        <path id="路径_38576" data-name="路径 38576" d="M143.262,133.238v12.89a.04.04,0,0,0,.059.035l11.187-6.25a.109.109,0,0,0,0-.189l-11.2-6.513A.031.031,0,0,0,143.262,133.238Z" transform="translate(-89.497 -83.218)" fill="none" stroke="#0c111a" stroke-linecap="round" stroke-miterlimit="10" stroke-width="1"/>
        <path id="路径_38577" data-name="路径 38577" d="M146.77,139.756v7.966a.024.024,0,0,0,.036.021l6.914-3.862a.067.067,0,0,0,0-.117L146.8,139.74A.019.019,0,0,0,146.77,139.756Z" transform="translate(-91.675 -87.272)" fill="none" stroke="#0080f4" stroke-linecap="round" stroke-miterlimit="10" stroke-width="1"/>
        <line id="直线_59" data-name="直线 59" y1="0.433" x2="12.823" transform="translate(35.037 60.826)" fill="none" stroke="#0080f4" stroke-linecap="round" stroke-miterlimit="10" stroke-width="1"/>
        <path id="路径_38578" data-name="路径 38578" d="M194.188,175.533H206.86l2.688,4.037h3.868" transform="translate(-121.116 -109.497)" fill="none" stroke="#000" stroke-linecap="round" stroke-miterlimit="10" stroke-width="1"/>
        <line id="直线_60" data-name="直线 60" x2="39.054" transform="translate(95.697 69.18)" fill="none" stroke="#000" stroke-linecap="round" stroke-miterlimit="10" stroke-width="1"/>
        <path id="路径_38579" data-name="路径 38579" d="M277.2,212.667h10.953l5.17-6.909h9.434" transform="translate(-172.659 -128.264)" fill="none" stroke="#000" stroke-linecap="round" stroke-miterlimit="10" stroke-width="1"/>
        <path id="路径_38580" data-name="路径 38580" d="M281.772,220.013h10.313l5.25-6.662h6.422" transform="translate(-175.495 -132.977)" fill="none" stroke="#000" stroke-linecap="round" stroke-miterlimit="10" stroke-width="1"/>
        <path id="路径_38581" data-name="路径 38581" d="M256.186,157.056v3.358h34.527v1.157a.08.08,0,0,0,.117.072l4.57-2.337a.081.081,0,0,0,.01-.139l-4.537-3.215a.031.031,0,0,0-.05.026v1.078Z" transform="translate(-159.609 -97.336)" fill="none" stroke="#000" stroke-linecap="round" stroke-miterlimit="10" stroke-width="1"/>
        <path id="路径_38582" data-name="路径 38582" d="M458.1,57.021V67.574H445.553V63.417" transform="translate(-277.183 -35.915)" fill="none" stroke="#000" stroke-linecap="round" stroke-miterlimit="10" stroke-width="1"/>
        <path id="路径_38583" data-name="路径 38583" d="M373.011,134.385h1.479l7.035-19.267" transform="translate(-232.144 -71.986)" fill="none" stroke="#000" stroke-linecap="round" stroke-miterlimit="10" stroke-width="1"/>
        <path id="路径_38584" data-name="路径 38584" d="M366.474,127.681h6.356L386.341,93.4" transform="translate(-228.085 -58.501)" fill="none" stroke="#000" stroke-linecap="round" stroke-miterlimit="10" stroke-width="1"/>
        <path id="路径_38585" data-name="路径 38585" d="M353.4,126.82h13.271l19.507-53.245" transform="translate(-219.967 -46.193)" fill="none" stroke="#000" stroke-linecap="round" stroke-miterlimit="10" stroke-width="1"/>
        <path id="路径_38586" data-name="路径 38586" d="M359.738,178.171h9.289l5.3-14.47,3.747-3.427" transform="translate(-223.903 -100.023)" fill="none" stroke="#000" stroke-linecap="round" stroke-miterlimit="10" stroke-width="1"/>
        <path id="路径_38587" data-name="路径 38587" d="M361.291,94.122h-4.917V89.865h5.157v10.773h-5.336" transform="translate(-221.702 -56.308)" fill="none" stroke="#ef54a1" stroke-linecap="round" stroke-miterlimit="10" stroke-width="1"/>
        <path id="路径_38588" data-name="路径 38588" d="M239.949,89.847h5.476v4.211h-4.85v2.478h4.85v4.037h-5.317" transform="translate(-149.528 -56.297)" fill="none" stroke="#0080f4" stroke-linecap="round" stroke-miterlimit="10" stroke-width="1"/>
        <path id="路径_38590" data-name="路径 38590" d="M236.469,127.451" transform="translate(-147.368 -79.644)" fill="none" stroke="#000" stroke-linecap="round" stroke-miterlimit="10" stroke-width="1"/>
        <path id="路径_38591" data-name="路径 38591" d="M302.75,311.97a56.9,56.9,0,0,1,.2,6.2v26.942h-6.276v-30.3s.112-2.446.16-2.838" transform="translate(-184.748 -194.208)" fill="none" stroke="#000" stroke-miterlimit="10" stroke-width="1"/>
        <line id="直线_61" data-name="直线 61" y2="5.743" transform="translate(80.587 73.897)" fill="none" stroke="#000" stroke-miterlimit="10" stroke-width="1"/>
        <line id="直线_62" data-name="直线 62" y2="5.743" transform="translate(83.119 73.897)" fill="none" stroke="#000" stroke-miterlimit="10" stroke-width="1"/>
        <line id="直线_63" data-name="直线 63" y2="4.823" transform="translate(85.93 73.897)" fill="none" stroke="#000" stroke-miterlimit="10" stroke-width="1"/>
        <line id="直线_64" data-name="直线 64" x2="19.774" transform="translate(66.863 36.375)" fill="none" stroke="#000" stroke-miterlimit="10" stroke-width="1"/>
        <line id="直线_65" data-name="直线 65" x2="16.229" transform="translate(70.407 38.507)" fill="none" stroke="#000" stroke-miterlimit="10" stroke-width="1"/>
        <line id="直线_66" data-name="直线 66" x2="13.351" transform="translate(73.285 40.586)" fill="none" stroke="#000" stroke-miterlimit="10" stroke-width="1"/>
        <line id="直线_67" data-name="直线 67" x1="10.979" transform="translate(75.657 42.585)" fill="none" stroke="#000" stroke-miterlimit="10" stroke-width="1"/>
        <line id="直线_68" data-name="直线 68" x1="9.487" transform="translate(77.149 44.61)" fill="none" stroke="#000" stroke-miterlimit="10" stroke-width="1"/>
        <line id="直线_69" data-name="直线 69" x1="8.554" transform="translate(78.082 46.822)" fill="none" stroke="#000" stroke-miterlimit="10" stroke-width="1"/>
        <line id="直线_70" data-name="直线 70" x1="7.888" transform="translate(78.748 48.98)" fill="none" stroke="#000" stroke-miterlimit="10" stroke-width="1"/>
        <line id="直线_71" data-name="直线 71" x1="7.462" transform="translate(79.175 51.352)" fill="none" stroke="#000" stroke-miterlimit="10" stroke-width="1"/>
        <line id="直线_72" data-name="直线 72" x1="7.009" transform="translate(79.628 53.484)" fill="none" stroke="#000" stroke-miterlimit="10" stroke-width="1"/>
        <line id="直线_73" data-name="直线 73" x1="7.009" transform="translate(79.628 55.696)" fill="none" stroke="#000" stroke-miterlimit="10" stroke-width="1"/>
        <line id="直线_74" data-name="直线 74" x1="6.769" transform="translate(79.868 57.801)" fill="none" stroke="#000" stroke-miterlimit="10" stroke-width="1"/>
        <line id="直线_75" data-name="直线 75" x1="7.009" transform="translate(79.628 59.932)" fill="none" stroke="#000" stroke-miterlimit="10" stroke-width="1"/>
        <line id="直线_76" data-name="直线 76" x1="7.302" transform="translate(79.335 61.932)" fill="none" stroke="#000" stroke-miterlimit="10" stroke-width="1"/>
        <line id="直线_77" data-name="直线 77" y1="38.975" x2="0.407" transform="translate(109.728 115.442)" fill="none" stroke="#ef54a1" stroke-miterlimit="10" stroke-width="1"/>
        <path id="路径_38592" data-name="路径 38592" d="M291.929,195.387s.92-7.53,4.937-12.709c.5-.342,1.939-4.14,3.578-6.178s11.992-16.536,14.47-22.958,4.957-8.823,5.277-26.09h2.478s.12,17.909-6.376,30.061-11.473,17.7-13.9,21.282-7.385,11.5-7.7,14.935" transform="translate(-181.802 -79.644)" fill="none" stroke="#ef54a1" stroke-miterlimit="10" stroke-width="1"/>
        <path id="路径_38593" data-name="路径 38593" d="M481.823,138.676l15.15-5.117v-4" transform="translate(-299.703 -80.955)" fill="none" stroke="#000" stroke-linecap="round" stroke-miterlimit="10" stroke-width="1"/>
        <path id="路径_38594" data-name="路径 38594" d="M509.949,144.183v3.891l-.853,1.785" transform="translate(-316.636 -90.033)" fill="none" stroke="#000" stroke-linecap="round" stroke-miterlimit="10" stroke-width="1"/>
        <line id="直线_78" data-name="直线 78" x2="10.26" y2="2.825" transform="translate(183.24 57.615)" fill="none" stroke="#000" stroke-linecap="round" stroke-miterlimit="10" stroke-width="1"/>
        <path id="路径_38595" data-name="路径 38595" d="M33.823,257.575l-2.9,1.579v4.457l2.9,1.65a.2.2,0,0,0,.3-.172v-7.341A.2.2,0,0,0,33.823,257.575Z" transform="translate(-19.745 -160.42)" fill="none" stroke="#0080f4" stroke-linecap="round" stroke-miterlimit="10" stroke-width="1"/>
        <line id="直线_79" data-name="直线 79" x2="3.318" transform="translate(7.595 100.999)" fill="none" stroke="#0080f4" stroke-linecap="round" stroke-miterlimit="10" stroke-width="1"/>
        <line id="直线_80" data-name="直线 80" x1="2.765" transform="translate(14.637 99.441)" fill="none" stroke="#0080f4" stroke-linecap="round" stroke-miterlimit="10" stroke-width="1"/>
        <line id="直线_81" data-name="直线 81" x1="2.765" transform="translate(14.637 102.638)" fill="none" stroke="#0080f4" stroke-linecap="round" stroke-miterlimit="10" stroke-width="1"/>
        <rect id="矩形_2367" data-name="矩形 2367" width="15.297" height="15.594" rx="6.75" transform="translate(214.759 93.155)" fill="none" stroke="#ef54a1" stroke-miterlimit="10" stroke-width="1"/>
        <path id="路径_38596" data-name="路径 38596" d="M583.881,265.111l2.9-1.58v-4.457l-2.9-1.65a.2.2,0,0,0-.3.172v7.341A.2.2,0,0,0,583.881,265.111Z" transform="translate(-362.887 -160.325)" fill="none" stroke="#ef54a1" stroke-linecap="round" stroke-miterlimit="10" stroke-width="1"/>
        <line id="直线_82" data-name="直线 82" x1="3.318" transform="translate(224.159 100.941)" fill="none" stroke="#ef54a1" stroke-linecap="round" stroke-miterlimit="10" stroke-width="1"/>
        <line id="直线_83" data-name="直线 83" y2="5.297" transform="translate(44.151 124.517)" fill="none" stroke="#0080f4" stroke-linecap="round" stroke-miterlimit="10" stroke-width="1"/>
        <path id="路径_38597" data-name="路径 38597" d="M125.548,324.823v8.72a.073.073,0,0,0,.119.057l2.976-2.418a.091.091,0,0,0-.012-.15l-2.8-1.615,2.518-2.148a.091.091,0,0,0,0-.138l-2.678-2.362A.073.073,0,0,0,125.548,324.823Z" transform="translate(-78.499 -202.143)" fill="none" stroke="#0080f4" stroke-linecap="round" stroke-miterlimit="10" stroke-width="1"/>
        <line id="直线_84" data-name="直线 84" x2="2.478" transform="translate(44.391 127.166)" fill="none" stroke="#0080f4" stroke-linecap="round" stroke-miterlimit="10" stroke-width="1"/>
        <path id="路径_38599" data-name="路径 38599" d="M595.027,169.452v1.907a.182.182,0,0,1-.282.151l-1.43-.953a.182.182,0,0,1,0-.3l1.43-.953A.182.182,0,0,1,595.027,169.452Z" transform="translate(-368.876 -105.609)" fill="#ef54a1"/>
        <path id="路径_38600" data-name="路径 38600" d="M590.282,143.681v-1.906a.181.181,0,0,1,.282-.151l1.43.953a.182.182,0,0,1,0,.3l-1.43.953A.181.181,0,0,1,590.282,143.681Z" transform="translate(-367.043 -88.424)" fill="#ef54a1"/>
        <g id="组_21713" data-name="组 21713" transform="translate(213.943 48.334)">
          <rect id="矩形_2363" data-name="矩形 2363" width="21.226" height="21.506" rx="6.75" fill="none" stroke="#ef54a1" stroke-miterlimit="10" stroke-width="1"/>
          <path id="路径_38598" data-name="路径 38598" d="M581.937,149.088v-3.977a.26.26,0,0,1,.26-.26h3.438" transform="translate(-575.805 -138.782)" fill="none" stroke="#ef54a1" stroke-linecap="round" stroke-miterlimit="10" stroke-width="1"/>
          <circle id="椭圆_1869" data-name="椭圆 1869" cx="3.145" cy="3.145" r="3.145" transform="translate(12.188 3.444)" fill="none" stroke="#ef54a1" stroke-miterlimit="10" stroke-width="1"/>
          <line id="直线_85" data-name="直线 85" x2="1.266" transform="translate(16.039 6.163)" fill="none" stroke="#ef54a1" stroke-linecap="round" stroke-miterlimit="10" stroke-width="1"/>
          <line id="直线_86" data-name="直线 86" x2="1.319" transform="translate(13.307 6.163)" fill="none" stroke="#ef54a1" stroke-linecap="round" stroke-miterlimit="10" stroke-width="1"/>
          <g id="组_21708" data-name="组 21708" transform="translate(4.275 14.77)">
            <line id="直线_87" data-name="直线 87" x2="1.266" transform="translate(2.732)" fill="none" stroke="#ef54a1" stroke-linecap="round" stroke-miterlimit="10" stroke-width="1"/>
            <line id="直线_88" data-name="直线 88" x2="1.319" fill="none" stroke="#ef54a1" stroke-linecap="round" stroke-miterlimit="10" stroke-width="1"/>
          </g>
          <path id="路径_38601" data-name="路径 38601" d="M597.1,164.539h3.4v-4.61" transform="translate(-585.221 -148.143)" fill="none" stroke="#ef54a1" stroke-linecap="round" stroke-miterlimit="10" stroke-width="1"/>
          <circle id="椭圆_1870" data-name="椭圆 1870" cx="3.144" cy="3.144" r="3.144" transform="translate(3.13 12.105)" fill="none" stroke="#ef54a1" stroke-linecap="round" stroke-miterlimit="10" stroke-width="1"/>
          <line id="直线_89" data-name="直线 89" y1="1.792" transform="translate(4.393 10.753)" fill="none" stroke="#ef54a1" stroke-linecap="round" stroke-miterlimit="10" stroke-width="1"/>
          <line id="直线_90" data-name="直线 90" y1="1.792" transform="translate(7.981 10.753)" fill="none" stroke="#ef54a1" stroke-linecap="round" stroke-miterlimit="10" stroke-width="1"/>
        </g>
        <g id="组_21526" data-name="组 21526" transform="translate(183.161 122.548)">
          <path id="路径_37350" data-name="路径 37350" d="M495.461,329.556a.707.707,0,0,1,.629-.575c.288,0,.487.305.575.575a3.3,3.3,0,0,1,.162,1.024.12.12,0,0,1-.126.108c-.018,0-.038,0-.038-.018a1.1,1.1,0,0,0-.575-.144,1.165,1.165,0,0,0-.593.144.1.1,0,0,1-.136-.036.094.094,0,0,1-.008-.018c0-.018-.018-.018-.018-.038a3.989,3.989,0,0,1,.125-1.024Z" transform="translate(-491.252 -327.318)" fill="#ef54a1"/>
          <path id="路径_37351" data-name="路径 37351" d="M490.142,330.667a.1.1,0,0,1-.136-.036.1.1,0,0,1-.008-.018c0-.018-.018-.018-.018-.038a3.889,3.889,0,0,1,.126-1.024.707.707,0,0,1,.629-.575c.287,0,.487.305.593.575a3.3,3.3,0,0,1,.162,1.024.12.12,0,0,1-.126.108c-.018,0-.038,0-.038-.018a1.118,1.118,0,0,0-.593-.144,1.315,1.315,0,0,0-.593.144Z" transform="translate(-487.928 -327.315)" fill="#ef54a1"/>
          <path id="路径_37352" data-name="路径 37352" d="M488.012,335.6a8.7,8.7,0,0,0,.244,1.458" transform="translate(-486.706 -331.428)" fill="none" stroke="#ef54a1" stroke-miterlimit="10" stroke-width="1"/>
          <path id="路径_3" data-name="路径 3" d="M492.5,331.657a1.678,1.678,0,0,0-1.348.072c.251-.521.521-1.078.754-1.653a5.239,5.239,0,0,0,.5-1.835,3.479,3.479,0,0,0-3.217-3.648,3.3,3.3,0,0,0-3.328,3.269c0,.055,0,.109,0,.164h0a6.858,6.858,0,0,0,.018.861l-.04,0a1.694,1.694,0,0,0-.876.39,1.64,1.64,0,0,0-.323.379c-.125.288-.125.647.234.737a1.17,1.17,0,0,0,.431-.108,1.626,1.626,0,0,1,.682-.176.4.4,0,0,1,.109.031,8.556,8.556,0,0,0,.629,1.76,5.407,5.407,0,0,0,1.043,1.51,1.925,1.925,0,0,0,1.294.629,3.483,3.483,0,0,0,1.923-.719c.27-.18.5-.359.683-.487a1.157,1.157,0,0,1,.4-.2,1.994,1.994,0,0,1,.539.144c.2.09.412.2.611.27a.122.122,0,0,0,.144-.072v-.014A1.364,1.364,0,0,0,492.5,331.657Zm-3.451-1.185a1.14,1.14,0,0,0-.88-.054,1.365,1.365,0,0,1-.467.018c-.467-.126-.287-.629-.09-.881a1.989,1.989,0,0,1,.665-.487,1.875,1.875,0,0,1,1.977.162" transform="translate(-484.568 -324.594)" fill="none" stroke="#ef54a1" stroke-miterlimit="10" stroke-width="1"/>
        </g>
        <g id="组_21526-2" data-name="组 21526" transform="translate(4.088 51.645)">
          <path id="路径_37350-2" data-name="路径 37350" d="M28.181,145.6a6.467,6.467,0,0,1,.2,1.658c0,.031-.029.031-.029.06a.136.136,0,0,1-.013.029.161.161,0,0,1-.22.058,1.877,1.877,0,0,0-.96-.233,1.77,1.77,0,0,0-.931.233c0,.029-.031.029-.061.029a.2.2,0,0,1-.2-.174,5.351,5.351,0,0,1,.262-1.658c.143-.436.465-.931.931-.931a1.146,1.146,0,0,1,1.018.931Z" transform="translate(-20.76 -141.983)" fill="#0080f4"/>
          <path id="路径_37351-2" data-name="路径 37351" d="M36.746,147.4a2.128,2.128,0,0,0-.96-.233,1.81,1.81,0,0,0-.96.233c0,.029-.031.029-.061.029a.2.2,0,0,1-.2-.174,5.34,5.34,0,0,1,.262-1.658c.172-.436.494-.931.96-.931a1.145,1.145,0,0,1,1.018.931,6.318,6.318,0,0,1,.2,1.658c0,.031-.029.031-.029.06a.157.157,0,0,1-.013.029.161.161,0,0,1-.22.058Z" transform="translate(-26.096 -141.98)" fill="#0080f4"/>
          <path id="路径_37352-2" data-name="路径 37352" d="M43.151,157.749a14.123,14.123,0,0,0,.394-2.359" transform="translate(-31.428 -148.636)" fill="none" stroke="#0080f4" stroke-miterlimit="10" stroke-width="1"/>
          <path id="路径_3-2" data-name="路径 3" d="M12.231,151.13v.024a.2.2,0,0,0,.233.116c.322-.116.669-.291.989-.436a3.241,3.241,0,0,1,.873-.233,1.886,1.886,0,0,1,.64.32c.291.206.669.5,1.105.787a5.636,5.636,0,0,0,3.112,1.164,3.116,3.116,0,0,0,2.094-1.018,8.743,8.743,0,0,0,1.687-2.443,13.852,13.852,0,0,0,1.018-2.848.631.631,0,0,1,.176-.051,2.624,2.624,0,0,1,1.1.284,1.89,1.89,0,0,0,.7.174c.582-.145.582-.727.378-1.192a2.658,2.658,0,0,0-.522-.613,2.741,2.741,0,0,0-1.418-.632l-.066-.008a11.174,11.174,0,0,0,.029-1.394h0q.005-.132,0-.265a5.338,5.338,0,0,0-5.385-5.291,5.631,5.631,0,0,0-5.206,5.9,8.475,8.475,0,0,0,.814,2.969c.378.931.814,1.832,1.222,2.676a2.717,2.717,0,0,0-2.181-.116A2.208,2.208,0,0,0,12.231,151.13Zm5.033-6.051a3.036,3.036,0,0,1,3.2-.262,3.215,3.215,0,0,1,1.076.788c.32.407.611,1.222-.146,1.425a2.212,2.212,0,0,1-.756-.029,1.845,1.845,0,0,0-1.425.087" transform="translate(-12.23 -137.575)" fill="none" stroke="#0080f4" stroke-miterlimit="10" stroke-width="1"/>
        </g>
        <path id="路径_38533" data-name="路径 38533" d="M267.848,234.382s-.107-25.756.107-35.243-10.33-24.844-15.35-31.446c-5.277-6.5-13.751-24.517-13.645-38.055q.009-1.1.063-2.186h-2.555s.81,16.967,4.222,24.49c.122.269.233.54.33.819,2.737,7.915,10.243,19.262,15.741,25.965a35.877,35.877,0,0,1,7.875,14.444" transform="translate(-147.368 -79.644)" fill="none" stroke="#0080f4" stroke-linecap="round" stroke-miterlimit="10" stroke-width="1"/>
      </g>
    </g>
    <g id="蒙版组_57" data-name="蒙版组 57" transform="translate(0 394)" clip-path="url(#clip-path)">
      <g id="背景" transform="translate(2662.969 -926.427)" opacity="0.1">
        <path id="路径_38729" data-name="路径 38729" d="M395.381,229.828l411.45.978,44.711,45.141v174.79l-423.094-.978-33.067-39.367Z" transform="translate(-353.033 -169.131)" fill="none" stroke="#000" stroke-miterlimit="10" stroke-width="1"/>
        <path id="路径_38730" data-name="路径 38730" d="M484,214.777H837.464l28.869-30.444" transform="translate(-371.165 -160.451)" fill="none" stroke="#000" stroke-miterlimit="10" stroke-width="1"/>
        <path id="路径_38731" data-name="路径 38731" d="M866.333,184.333H512.869L484,214.777" transform="translate(-470.089 102.659)" fill="none" stroke="#000" stroke-miterlimit="10" stroke-width="1"/>
        <circle id="椭圆_1871" data-name="椭圆 1871" cx="13.532" cy="13.532" r="13.532" transform="translate(490.214)" fill="none" stroke="#000" stroke-miterlimit="10" stroke-width="1"/>
        <circle id="椭圆_1872" data-name="椭圆 1872" cx="8.456" cy="8.456" r="8.456" transform="translate(0 315.035)" fill="none" stroke="#000" stroke-miterlimit="10" stroke-width="1"/>
        <path id="路径_38732" data-name="路径 38732" d="M594.911,274.9l26.974-11.682H965.406" transform="translate(-516.818 -220.57)" fill="none" stroke="#000" stroke-width="1"/>
        <path id="路径_38733" data-name="路径 38733" d="M965.406,263.214,938.432,274.9H594.911" transform="translate(-534.42 23.778)" fill="none" stroke="#000" stroke-width="1"/>
        <path id="路径_38734" data-name="路径 38734" d="M413.437,293.133H387.292V466.608" transform="translate(-353.655 -238.806)" fill="none" stroke="#000" stroke-width="1"/>
        <path id="路径_38735" data-name="路径 38735" d="M1645.295,462.333V611.086H1608.8" transform="translate(-1134.818 -341.939)" fill="none" stroke="#707070" stroke-width="1"/>
        <path id="路径_38736" data-name="路径 38736" d="M428.642,768.6l31.09,32.585" transform="translate(-392.057 -523.11)" fill="none" stroke="#000" stroke-width="1"/>
        <path id="路径_38737" data-name="路径 38737" d="M1636.882,316.811l23.069,21.681" transform="translate(-1155.649 -244.99)" fill="none" stroke="#000" stroke-width="1"/>
      </g>
    </g>
    <g id="组_22000" data-name="组 22000" transform="translate(0 -4)">
      <path id="路径_39948" data-name="路径 39948" d="M2.23.852A1.874,1.874,0,0,1,.776.253,2.219,2.219,0,0,1,.229-1.3,2.351,2.351,0,0,1,.786-2.946,1.944,1.944,0,0,1,2.3-3.56a1.831,1.831,0,0,1,1.424.6,2.227,2.227,0,0,1,.54,1.557A2.359,2.359,0,0,1,3.712.244,1.908,1.908,0,0,1,2.23.852Zm.036-3.959a1.376,1.376,0,0,0-1.092.485,1.878,1.878,0,0,0-.42,1.274,1.891,1.891,0,0,0,.409,1.27A1.335,1.335,0,0,0,2.23.4,1.4,1.4,0,0,0,3.337-.056a1.873,1.873,0,0,0,.4-1.283,1.957,1.957,0,0,0-.393-1.307A1.347,1.347,0,0,0,2.265-3.107ZM17.981-.946q0,1.8-1.622,1.8-1.554,0-1.554-1.729v-2.61h.5V-.91Q15.305.4,16.413.4q1.069,0,1.069-1.268V-3.488h.5ZM31.86.78h-.6l-.714-1.2A2.606,2.606,0,0,0,30.36-.7a1.086,1.086,0,0,0-.189-.192A.655.655,0,0,0,29.963-1a.857.857,0,0,0-.252-.034H29.3V.78h-.5V-3.488h1.274a1.816,1.816,0,0,1,.516.07A1.156,1.156,0,0,1,31-3.205a.989.989,0,0,1,.272.356,1.18,1.18,0,0,1,.1.5,1.2,1.2,0,0,1-.067.409,1.069,1.069,0,0,1-.191.332,1.155,1.155,0,0,1-.3.249,1.52,1.52,0,0,1-.391.159v.012a.9.9,0,0,1,.186.109,1.024,1.024,0,0,1,.15.144,1.913,1.913,0,0,1,.141.189q.07.106.156.246ZM29.3-3.036v1.548h.679a1.029,1.029,0,0,0,.347-.057.8.8,0,0,0,.275-.162.736.736,0,0,0,.182-.259.867.867,0,0,0,.065-.344.669.669,0,0,0-.222-.534.953.953,0,0,0-.641-.192ZM57.976.78h-.5V-2.083q0-.339.042-.83h-.012a2.655,2.655,0,0,1-.128.414L55.922.78h-.244L54.222-2.476a2.552,2.552,0,0,1-.128-.438h-.012q.024.256.024.836V.78h-.482V-3.488h.661l1.31,2.977a3.812,3.812,0,0,1,.2.512h.018q.128-.351.205-.524l1.336-2.965h.625Zm11.376,0h-.5V-3.488h.5ZM80.028.608V.018a1.145,1.145,0,0,0,.243.161,1.965,1.965,0,0,0,.3.121,2.37,2.37,0,0,0,.314.076A1.751,1.751,0,0,0,81.174.4a1.143,1.143,0,0,0,.689-.171.579.579,0,0,0,.228-.493.578.578,0,0,0-.076-.3A.855.855,0,0,0,81.8-.8a2.082,2.082,0,0,0-.317-.2q-.183-.1-.394-.2t-.417-.229a1.805,1.805,0,0,1-.336-.256A1.068,1.068,0,0,1,80.116-2a.981.981,0,0,1-.082-.415.976.976,0,0,1,.128-.508,1.1,1.1,0,0,1,.336-.356,1.525,1.525,0,0,1,.475-.208,2.174,2.174,0,0,1,.543-.068,2.082,2.082,0,0,1,.92.152v.563a1.667,1.667,0,0,0-.97-.262,1.6,1.6,0,0,0-.327.034.925.925,0,0,0-.292.112.646.646,0,0,0-.208.2.529.529,0,0,0-.08.3.613.613,0,0,0,.061.283.693.693,0,0,0,.18.217,1.793,1.793,0,0,0,.29.191q.171.092.394.2t.435.238a1.986,1.986,0,0,1,.36.277,1.23,1.23,0,0,1,.246.336.946.946,0,0,1,.091.423,1.072,1.072,0,0,1-.124.534,1.014,1.014,0,0,1-.333.356,1.456,1.456,0,0,1-.484.2A2.649,2.649,0,0,1,81.1.852a2.353,2.353,0,0,1-.25-.016q-.149-.016-.3-.048A2.478,2.478,0,0,1,80.25.71.912.912,0,0,1,80.028.608Zm12.992,0V.018a1.144,1.144,0,0,0,.243.161,1.965,1.965,0,0,0,.3.121,2.369,2.369,0,0,0,.314.076A1.751,1.751,0,0,0,94.166.4a1.143,1.143,0,0,0,.689-.171.579.579,0,0,0,.228-.493.578.578,0,0,0-.076-.3A.855.855,0,0,0,94.8-.8,2.082,2.082,0,0,0,94.48-1q-.183-.1-.394-.2t-.417-.229a1.806,1.806,0,0,1-.336-.256A1.068,1.068,0,0,1,93.108-2a.981.981,0,0,1-.082-.415.976.976,0,0,1,.128-.508,1.1,1.1,0,0,1,.336-.356,1.525,1.525,0,0,1,.475-.208,2.174,2.174,0,0,1,.543-.068,2.082,2.082,0,0,1,.92.152v.563a1.667,1.667,0,0,0-.97-.262,1.6,1.6,0,0,0-.327.034.925.925,0,0,0-.292.112.646.646,0,0,0-.208.2.529.529,0,0,0-.08.3.613.613,0,0,0,.061.283.693.693,0,0,0,.18.217,1.793,1.793,0,0,0,.29.191q.171.092.394.2t.435.238a1.987,1.987,0,0,1,.36.277,1.23,1.23,0,0,1,.246.336.945.945,0,0,1,.091.423,1.072,1.072,0,0,1-.124.534,1.014,1.014,0,0,1-.333.356,1.456,1.456,0,0,1-.484.2,2.649,2.649,0,0,1-.577.061,2.353,2.353,0,0,1-.25-.016q-.149-.016-.3-.048A2.478,2.478,0,0,1,93.242.71.912.912,0,0,1,93.02.608ZM106.712.78h-.5V-3.488h.5Zm12.6.071a1.874,1.874,0,0,1-1.454-.6,2.219,2.219,0,0,1-.546-1.557,2.351,2.351,0,0,1,.557-1.643,1.944,1.944,0,0,1,1.515-.613,1.831,1.831,0,0,1,1.424.6,2.227,2.227,0,0,1,.54,1.557A2.359,2.359,0,0,1,120.79.244,1.908,1.908,0,0,1,119.308.852Zm.036-3.959a1.376,1.376,0,0,0-1.092.485,1.878,1.878,0,0,0-.42,1.274,1.891,1.891,0,0,0,.409,1.27A1.335,1.335,0,0,0,119.308.4a1.4,1.4,0,0,0,1.107-.458,1.873,1.873,0,0,0,.4-1.283,1.957,1.957,0,0,0-.393-1.307A1.347,1.347,0,0,0,119.344-3.107ZM135.378.78h-.613l-2.2-3.4a1.423,1.423,0,0,1-.137-.268h-.018a4.392,4.392,0,0,1,.024.586V.78h-.5V-3.488h.649l2.137,3.349q.134.208.173.286h.012a4.518,4.518,0,0,1-.03-.628V-3.488h.5Z" transform="translate(2520.771 -444.587)"/>
      <path id="路径_40074" data-name="路径 40074" d="M16.824-8.04a7.166,7.166,0,0,1-1.08,3.672,5.273,5.273,0,0,1-4.488,2.352A4.766,4.766,0,0,1,7.464-3.672a4.427,4.427,0,0,1-1.056-2.4L3.12-5.5a8.72,8.72,0,0,0,1.32,3.12A7.973,7.973,0,0,0,11.256.768c5.568,0,8.928-3.744,8.928-9.912s-3.312-9.864-8.808-9.864a8.191,8.191,0,0,0-6.384,2.592A7.937,7.937,0,0,0,3.36-13.368l3.24.72a4.3,4.3,0,0,1,.648-1.512,4.98,4.98,0,0,1,4.176-2.112,5,5,0,0,1,4.008,1.8,6.8,6.8,0,0,1,1.344,3.72H11.592a24.861,24.861,0,0,1-3.144-.168v3.048a21.941,21.941,0,0,1,3.168-.168Zm5.928,5.352A22.812,22.812,0,0,1,22.584.36H25.92a22.1,22.1,0,0,1-.168-3.048v-7.968h6.12v7.968A19.154,19.154,0,0,1,31.68.36h3.36a22.1,22.1,0,0,1-.168-3.048V-10.3a23.193,23.193,0,0,1,.168-3.072c-.96.048-1.56.072-3,.072H25.584c-1.44,0-2.04-.024-3-.072a24.214,24.214,0,0,1,.168,3.12ZM45.7.816c4.272,0,7.08-2.928,7.08-7.368s-2.76-7.272-7.1-7.272c-4.368,0-7.152,2.856-7.152,7.32C38.52-2.016,41.3.816,45.7.816Zm-.024-12.144c2.544,0,4.008,1.776,4.008,4.872,0,2.928-1.536,4.728-4.032,4.728S41.616-3.552,41.616-6.5C41.616-9.5,43.152-11.328,45.672-11.328ZM69.552.432c-.648-.792-1.44-1.848-1.776-2.3l-3.5-4.9,3.24-4.536c.384-.552.768-1.08,1.536-2.064h-3.72a11.879,11.879,0,0,1-1.008,1.824L62.5-8.856l-1.848-2.688a11.312,11.312,0,0,1-1.008-1.824H55.9c1.08,1.392,1.272,1.656,1.536,2.016L60.7-6.768,57.1-1.752c-.408.576-1.152,1.536-1.68,2.184H59.28a12.963,12.963,0,0,1,1.032-1.824l2.16-3.216L64.56-1.536A12.807,12.807,0,0,1,65.688.432ZM82.3.432h3.24a19.3,19.3,0,0,1-.192-3v-6.48a4.03,4.03,0,0,0-1.128-3.312c-1.032-1.008-2.424-1.416-4.728-1.416A7.186,7.186,0,0,0,74.9-12.552a5.015,5.015,0,0,0-1.9,2.664l3.072.552a2.785,2.785,0,0,1,.96-1.536,4.518,4.518,0,0,1,2.5-.672c1.824,0,2.76.72,2.76,2.112v1.2c-3.432.072-5.208.336-6.768.984A4.233,4.233,0,0,0,72.816-3.36c0,2.5,1.776,4.032,4.7,4.032A8.492,8.492,0,0,0,79.752.384,5.2,5.2,0,0,0,82.3-1.128Zm0-5.352a2.86,2.86,0,0,1-.864,2.112A4.873,4.873,0,0,1,78.1-1.536c-1.344,0-2.184-.7-2.184-1.848,0-1.872,1.8-2.64,6.384-2.76Zm21.1-4.584a7.989,7.989,0,0,0-.84-1.752,6.208,6.208,0,0,0-5.376-2.592,6.572,6.572,0,0,0-4.824,1.824,7.76,7.76,0,0,0-2.04,5.544c0,4.44,2.736,7.3,6.96,7.3a6.283,6.283,0,0,0,5.28-2.4,7.187,7.187,0,0,0,1.008-2.064l-2.976-.6a3.354,3.354,0,0,1-.48,1.2A3.213,3.213,0,0,1,97.344-1.7c-2.424,0-3.912-1.848-3.912-4.848,0-2.976,1.464-4.824,3.816-4.824a3.02,3.02,0,0,1,2.472,1.1,4.573,4.573,0,0,1,.744,1.464Zm3.864-3.792a26.645,26.645,0,0,1,.168,3.072v7.488a20.809,20.809,0,0,1-.192,3.1h3.408a13.25,13.25,0,0,1,1.344-2.208l4.608-6.1a4.2,4.2,0,0,0,.432-.7c.024-.048.072-.12.144-.24-.024.5-.024.5-.048,1.272l-.024,4.9A22.018,22.018,0,0,1,116.928.36h3.336a24.327,24.327,0,0,1-.168-3.1v-7.488a24.447,24.447,0,0,1,.168-3.072H116.9a9.488,9.488,0,0,1-1.344,2.232l-4.536,6.048c-.144.192-.36.528-.528.792a1.54,1.54,0,0,1-.144.24c.024-.672.048-1.128.048-1.368V-10.2a24.074,24.074,0,0,1,.168-3.1ZM138.72.36a22.391,22.391,0,0,1-.168-3.1v-7.488a25.787,25.787,0,0,1,.168-3.072h-3.936a1.365,1.365,0,0,1-.072.384c-.072.312-.648,1.944-.7,2.064l-3.432,7.224-3.456-7.224c-.072-.192-.6-1.7-.7-1.992-.024-.144-.048-.24-.072-.456h-3.936a26.767,26.767,0,0,1,.168,3.1v7.464a21.494,21.494,0,0,1-.168,3.1h3.12a22.859,22.859,0,0,1-.168-3.1v-4.68c0-.6-.024-1.128-.1-2.016a12.424,12.424,0,0,0,.648,1.752L128.52-2.4A17.361,17.361,0,0,1,129.528.36h2.088a15.089,15.089,0,0,1,.984-2.736l2.616-5.3a13.169,13.169,0,0,0,.648-1.752,20.144,20.144,0,0,0-.1,2.016v4.68A25.1,25.1,0,0,1,135.6.36Zm11.424-15.936a4.175,4.175,0,0,0,3.744-1.848l-2.136-1.68a2.506,2.506,0,0,1-2.328,1.152H147.1a5.724,5.724,0,0,0-5.184,2.544c-.984,1.488-1.56,4.176-1.56,7.2a12.581,12.581,0,0,0,1.128,5.592,6.336,6.336,0,0,0,6,3.288c4.272,0,7.056-2.88,7.056-7.32,0-4.152-2.448-6.84-6.264-6.84-2.3,0-3.552.552-4.7,2.04a5.987,5.987,0,0,1,.912-2.736,3.384,3.384,0,0,1,3.1-1.392Zm-2.424,4.488a3.54,3.54,0,0,1,2.28.768A4.649,4.649,0,0,1,151.44-6.5a5.315,5.315,0,0,1-.864,3.192,3.747,3.747,0,0,1-3.1,1.416c-2.5,0-3.984-1.7-3.984-4.536S145.152-11.088,147.72-11.088ZM157.728-13.3a26.645,26.645,0,0,1,.168,3.072v7.488A20.809,20.809,0,0,1,157.7.36h3.408a13.25,13.25,0,0,1,1.344-2.208l4.608-6.1a4.2,4.2,0,0,0,.432-.7c.024-.048.072-.12.144-.24-.024.5-.024.5-.048,1.272l-.024,4.9A22.02,22.02,0,0,1,167.4.36h3.336a24.327,24.327,0,0,1-.168-3.1v-7.488a24.447,24.447,0,0,1,.168-3.072h-3.36a9.488,9.488,0,0,1-1.344,2.232L161.5-5.016c-.144.192-.36.528-.528.792a1.538,1.538,0,0,1-.144.24c.024-.672.048-1.128.048-1.368V-10.2a24.074,24.074,0,0,1,.168-3.1ZM181.1.816c4.272,0,7.08-2.928,7.08-7.368s-2.76-7.272-7.1-7.272c-4.368,0-7.152,2.856-7.152,7.32C173.928-2.016,176.712.816,181.1.816Zm-.024-12.144c2.544,0,4.008,1.776,4.008,4.872,0,2.928-1.536,4.728-4.032,4.728s-4.032-1.824-4.032-4.776C177.024-9.5,178.56-11.328,181.08-11.328Zm10.32,8.4a4.581,4.581,0,0,0,1.9,2.64A8.844,8.844,0,0,0,197.808.72a7.193,7.193,0,0,0,5.04-1.56,3.291,3.291,0,0,0,1.008-2.5A3,3,0,0,0,202.7-5.88a4.763,4.763,0,0,0-2.76-.816,4.717,4.717,0,0,0,2.208-.816,2.945,2.945,0,0,0,1.2-2.544,2.846,2.846,0,0,0-.432-1.656c-.768-1.248-2.592-1.968-4.968-1.968a7.871,7.871,0,0,0-4.152.96,4.546,4.546,0,0,0-1.944,2.52l3.048.552c.456-1.248,1.2-1.68,2.856-1.68,1.728,0,2.568.528,2.568,1.608,0,1.344-.912,1.9-3.1,1.9a8.465,8.465,0,0,1-1.584-.12v2.52a8.465,8.465,0,0,1,1.8-.12c2.544,0,3.36.432,3.36,1.8q0,2.088-3.1,2.088a4.706,4.706,0,0,1-2.3-.48,1.874,1.874,0,0,1-.96-1.32ZM217.7.432h3.24a19.3,19.3,0,0,1-.192-3v-6.48a4.03,4.03,0,0,0-1.128-3.312c-1.032-1.008-2.424-1.416-4.728-1.416a7.186,7.186,0,0,0-4.584,1.224,5.015,5.015,0,0,0-1.9,2.664l3.072.552a2.785,2.785,0,0,1,.96-1.536,4.518,4.518,0,0,1,2.5-.672c1.824,0,2.76.72,2.76,2.112v1.2c-3.432.072-5.208.336-6.768.984a4.233,4.233,0,0,0-2.712,3.888c0,2.5,1.776,4.032,4.7,4.032A8.492,8.492,0,0,0,215.16.384,5.2,5.2,0,0,0,217.7-1.128Zm0-5.352a2.86,2.86,0,0,1-.864,2.112A4.873,4.873,0,0,1,213.5-1.536c-1.344,0-2.184-.7-2.184-1.848,0-1.872,1.8-2.64,6.384-2.76ZM5.9,26.7a26.234,26.234,0,0,1,.168,3.048v2.664c0,2.256,1.08,3.1,3.96,3.1a31.09,31.09,0,0,0,4.08-.288v2.112a27.641,27.641,0,0,1-.168,3.024H17.3a20.776,20.776,0,0,1-.168-2.976V29.728A23.411,23.411,0,0,1,17.3,26.7h-3.36a24.985,24.985,0,0,1,.168,3.024V32.9a25.119,25.119,0,0,1-2.736.144A5,5,0,0,1,9.6,32.9c-.336-.144-.5-.48-.5-1.08V29.752A22.573,22.573,0,0,1,9.264,26.7Zm29.712,7.56c-.048-.552-.048-.624-.048-.672a9.866,9.866,0,0,0-.7-3.648A6.1,6.1,0,0,0,28.9,26.152c-4.1,0-6.768,2.9-6.768,7.344,0,4.488,2.688,7.32,6.936,7.32a6.816,6.816,0,0,0,4.944-1.848,6.745,6.745,0,0,0,1.464-2.208l-2.832-.912a3.488,3.488,0,0,1-.7,1.248,4.037,4.037,0,0,1-5.88-.144,4.461,4.461,0,0,1-.888-2.688ZM25.248,31.888a3.6,3.6,0,0,1,3.6-3.264,3.423,3.423,0,0,1,2.592.96,3.767,3.767,0,0,1,1.056,2.3ZM43.464,26.7c-1.272,0-1.752-.024-2.88-.072.024.6.048.84.048,1.368a10.657,10.657,0,0,1-.048,1.3l-.336,6.672c-.072,1.272-.432,1.824-1.224,1.824a2.026,2.026,0,0,1-.96-.288l-.6,2.784a6.137,6.137,0,0,0,2.184.36,3.4,3.4,0,0,0,2.616-1.128,4.923,4.923,0,0,0,.912-2.928l.408-7.272h4.632v8.424a19.15,19.15,0,0,1-.168,2.616h3.36a17.756,17.756,0,0,1-.168-2.616V29.3a18.66,18.66,0,0,1,.168-2.664c-.888.048-1.44.072-2.736.072ZM62.52,40.816c4.272,0,7.08-2.928,7.08-7.368s-2.76-7.272-7.1-7.272c-4.368,0-7.152,2.856-7.152,7.32C55.344,37.984,58.128,40.816,62.52,40.816ZM62.5,28.672c2.544,0,4.008,1.776,4.008,4.872,0,2.928-1.536,4.728-4.032,4.728S58.44,36.448,58.44,33.5C58.44,30.5,59.976,28.672,62.5,28.672ZM80.544,40.36c3.192,0,4.9-1.32,4.9-3.792a3.241,3.241,0,0,0-1.1-2.616,3.154,3.154,0,0,0-1.968-.792,2.944,2.944,0,0,0,2.544-3.12c0-2.232-1.536-3.336-4.584-3.336h-3.96c-1.44,0-2.04-.024-3-.072a23.437,23.437,0,0,1,.168,3.072V37.36a23.437,23.437,0,0,1-.168,3.072c1.056-.048,1.68-.072,3.024-.072Zm-4.056-8.208V29.008h3.5c1.368,0,2.016.48,2.016,1.488,0,1.08-.7,1.656-1.992,1.656Zm0,2.136h3.648c1.584,0,2.328.6,2.328,1.9,0,1.248-.744,1.848-2.3,1.848H76.488Zm26.424-.024c-.048-.552-.048-.624-.048-.672a9.866,9.866,0,0,0-.7-3.648,6.1,6.1,0,0,0-5.976-3.792c-4.1,0-6.768,2.9-6.768,7.344,0,4.488,2.688,7.32,6.936,7.32a6.816,6.816,0,0,0,4.944-1.848,6.745,6.745,0,0,0,1.464-2.208l-2.832-.912a3.488,3.488,0,0,1-.7,1.248,4.037,4.037,0,0,1-5.88-.144,4.461,4.461,0,0,1-.888-2.688ZM92.544,31.888a3.6,3.6,0,0,1,3.6-3.264,3.423,3.423,0,0,1,2.592.96,3.767,3.767,0,0,1,1.056,2.3ZM107.16,26.7a24.054,24.054,0,0,1,.168,3.048v7.536a24.19,24.19,0,0,1-.168,3.072h3.36a24.19,24.19,0,0,1-.168-3.072V34.5h.6a3.376,3.376,0,0,1,.96.144,5.254,5.254,0,0,1,1.944,2.256c1.656,2.832,1.656,2.832,1.848,3.456h4.224a12.284,12.284,0,0,1-1.3-1.728c-1.128-1.656-1.128-1.656-1.728-2.5a10.873,10.873,0,0,0-1.584-2.112,3.209,3.209,0,0,0-2.16-.888,3.012,3.012,0,0,0,1.9-1.272l1.632-2.376a1.087,1.087,0,0,1,.912-.528,1.431,1.431,0,0,1,.768.24l.816-2.376a4.423,4.423,0,0,0-2.04-.408,3.065,3.065,0,0,0-2.712,1.512L112.56,30.76a2.339,2.339,0,0,1-1.872,1.1h-.336V29.752a22.106,22.106,0,0,1,.168-3.048Zm11.424,7.9a13.21,13.21,0,0,1,2.256-.144h3.72a13.17,13.17,0,0,1,2.28.144V31.408a15.157,15.157,0,0,1-2.28.144h-3.72a15.036,15.036,0,0,1-2.256-.144Zm8.112-7.9a24.054,24.054,0,0,1,.168,3.048v7.536a24.19,24.19,0,0,1-.168,3.072h3.36a24.19,24.19,0,0,1-.168-3.072V34.5h.6a3.376,3.376,0,0,1,.96.144,5.254,5.254,0,0,1,1.944,2.256c1.656,2.832,1.656,2.832,1.848,3.456h4.224a12.284,12.284,0,0,1-1.3-1.728c-1.128-1.656-1.128-1.656-1.728-2.5a10.873,10.873,0,0,0-1.584-2.112,3.209,3.209,0,0,0-2.16-.888,3.012,3.012,0,0,0,1.9-1.272l1.632-2.376a1.087,1.087,0,0,1,.912-.528,1.431,1.431,0,0,1,.768.24l.816-2.376a4.423,4.423,0,0,0-2.04-.408,3.065,3.065,0,0,0-2.712,1.512L132.1,30.76a2.339,2.339,0,0,1-1.872,1.1h-.336V29.752a22.106,22.106,0,0,1,.168-3.048Zm22.656,14.112c4.272,0,7.08-2.928,7.08-7.368s-2.76-7.272-7.1-7.272c-4.368,0-7.152,2.856-7.152,7.32C142.176,37.984,144.96,40.816,149.352,40.816Zm-.024-12.144c2.544,0,4.008,1.776,4.008,4.872,0,2.928-1.536,4.728-4.032,4.728s-4.032-1.824-4.032-4.776C145.272,30.5,146.808,28.672,149.328,28.672ZM174.264,40.36a22.393,22.393,0,0,1-.168-3.1V29.776a25.79,25.79,0,0,1,.168-3.072h-3.936a1.366,1.366,0,0,1-.072.384c-.072.312-.648,1.944-.7,2.064l-3.432,7.224-3.456-7.224c-.072-.192-.6-1.7-.7-1.992-.024-.144-.048-.24-.072-.456h-3.936a26.763,26.763,0,0,1,.168,3.1v7.464a21.492,21.492,0,0,1-.168,3.1h3.12a22.856,22.856,0,0,1-.168-3.1v-4.68c0-.6-.024-1.128-.1-2.016a12.426,12.426,0,0,0,.648,1.752l2.592,5.28a17.363,17.363,0,0,1,1.008,2.76h2.088a15.089,15.089,0,0,1,.984-2.736l2.616-5.3a13.167,13.167,0,0,0,.648-1.752,20.148,20.148,0,0,0-.1,2.016v4.68a25.106,25.106,0,0,1-.168,3.1Zm2.616-3.048a22.81,22.81,0,0,1-.168,3.048h3.336a22.1,22.1,0,0,1-.168-3.048V29.344H186v7.968a19.154,19.154,0,0,1-.192,3.048h3.36A22.106,22.106,0,0,1,189,37.312V29.7a23.194,23.194,0,0,1,.168-3.072c-.96.048-1.56.072-3,.072h-6.456c-1.44,0-2.04-.024-3-.072a24.212,24.212,0,0,1,.168,3.12ZM197.544,31.6V29.752a22.81,22.81,0,0,1,.168-3.048H194.4a26.523,26.523,0,0,1,.168,3.048v7.584a21.713,21.713,0,0,1-.168,3.1c1.056-.048,1.68-.072,3-.072h4.056c3.12,0,4.9-1.584,4.9-4.392,0-2.784-1.776-4.368-4.92-4.368Zm0,6.288V34.072h3.312c1.7,0,2.424.576,2.424,1.92s-.7,1.9-2.376,1.9Zm13.944-3.432h1.728a8.048,8.048,0,0,0,1.1,3.744,5.5,5.5,0,0,0,4.968,2.5c3.96,0,6.336-2.712,6.336-7.248,0-4.464-2.328-7.1-6.24-7.1a5.715,5.715,0,0,0-4.3,1.632c-.936.96-1.368,1.92-1.824,4.056h-1.776V29.8a23.825,23.825,0,0,1,.168-3.1h-3.288a22.457,22.457,0,0,1,.168,3.12V37.24a26.606,26.606,0,0,1-.168,3.12h3.288a24.98,24.98,0,0,1-.168-3.12Zm7.824,3.792a2.881,2.881,0,0,1-2.088-.792,5.783,5.783,0,0,1-1.176-3.888c0-3,1.248-4.776,3.312-4.776,2.04,0,3.24,1.728,3.24,4.656a6.014,6.014,0,0,1-1.176,3.936A2.8,2.8,0,0,1,219.312,38.248Zm15.816,2.112a24.721,24.721,0,0,1-.168-3.12V29.32h1.872a26.586,26.586,0,0,1,3.072.144V26.536a22.019,22.019,0,0,1-3.072.168h-6.816a22.715,22.715,0,0,1-3.072-.168v2.928a28.408,28.408,0,0,1,3.12-.144h1.824v7.92a22.086,22.086,0,0,1-.168,3.12Zm21.912-6.1c-.048-.552-.048-.624-.048-.672a9.866,9.866,0,0,0-.7-3.648,6.1,6.1,0,0,0-5.976-3.792c-4.1,0-6.768,2.9-6.768,7.344,0,4.488,2.688,7.32,6.936,7.32a6.816,6.816,0,0,0,4.944-1.848A6.745,6.745,0,0,0,256.9,36.76l-2.832-.912a3.488,3.488,0,0,1-.7,1.248,4.037,4.037,0,0,1-5.88-.144,4.461,4.461,0,0,1-.888-2.688Zm-10.368-2.376a3.6,3.6,0,0,1,3.6-3.264,3.423,3.423,0,0,1,2.592.96,3.767,3.767,0,0,1,1.056,2.3Zm17.16,10.968a21.976,21.976,0,0,1-.168-2.568v-1.68a12.146,12.146,0,0,0-.048-1.272,3.208,3.208,0,0,0,.912.96,6.361,6.361,0,0,0,3.744,1.1c4.152,0,6.624-2.472,6.624-6.624,0-4.008-2.376-6.384-6.384-6.384a5.785,5.785,0,0,0-4.9,2.088c.024-.36.024-.48.024-.72V26.7h-3.168a21.552,21.552,0,0,1,.168,2.952V39.928a20.726,20.726,0,0,1-.168,2.928Zm-.072-9.96a4.126,4.126,0,0,1,1.272-3.048,4.528,4.528,0,0,1,2.808-1.08c2.448,0,3.864,1.488,3.864,4.08,0,2.568-1.416,4.152-3.744,4.152A4.037,4.037,0,0,1,263.76,32.9ZM18.456,70.5a7.988,7.988,0,0,0-.84-1.752,6.208,6.208,0,0,0-5.376-2.592,6.572,6.572,0,0,0-4.824,1.824,7.76,7.76,0,0,0-2.04,5.544c0,4.44,2.736,7.3,6.96,7.3a6.283,6.283,0,0,0,5.28-2.4,7.187,7.187,0,0,0,1.008-2.064l-2.976-.6a3.354,3.354,0,0,1-.48,1.2,3.213,3.213,0,0,1-2.76,1.344C9.984,78.3,8.5,76.448,8.5,73.448c0-2.976,1.464-4.824,3.816-4.824a3.02,3.02,0,0,1,2.472,1.1,4.573,4.573,0,0,1,.744,1.464Zm10.416,10.32c4.272,0,7.08-2.928,7.08-7.368s-2.76-7.272-7.1-7.272c-4.368,0-7.152,2.856-7.152,7.32C21.7,77.984,24.48,80.816,28.872,80.816Zm-.024-12.144c2.544,0,4.008,1.776,4.008,4.872,0,2.928-1.536,4.728-4.032,4.728s-4.032-1.824-4.032-4.776C24.792,70.5,26.328,68.672,28.848,68.672ZM52.44,74.264c-.048-.552-.048-.624-.048-.672a9.866,9.866,0,0,0-.7-3.648,6.1,6.1,0,0,0-5.976-3.792c-4.1,0-6.768,2.9-6.768,7.344,0,4.488,2.688,7.32,6.936,7.32a6.816,6.816,0,0,0,4.944-1.848A6.745,6.745,0,0,0,52.3,76.76l-2.832-.912a3.488,3.488,0,0,1-.7,1.248,4.037,4.037,0,0,1-5.88-.144A4.461,4.461,0,0,1,42,74.264ZM42.072,71.888a3.6,3.6,0,0,1,3.6-3.264,3.423,3.423,0,0,1,2.592.96,3.767,3.767,0,0,1,1.056,2.3Zm12.576,9.144a8.085,8.085,0,0,1-.168,1.848h3.384a10.812,10.812,0,0,1-.144-1.824v-.72h9.1V81.1a6.8,6.8,0,0,1-.168,1.776h3.408a8.629,8.629,0,0,1-.168-1.92V79.592a12.688,12.688,0,0,1,.168-1.92c-.792.048-.912.048-1.416.048V69.752a23.24,23.24,0,0,1,.168-3.12c-.96.072-1.32.072-3.024.072H60.576c-1.68,0-2.064,0-3-.072a25.783,25.783,0,0,1,.144,2.856,21.173,21.173,0,0,1-.384,4.344A12,12,0,0,1,55.9,77.72c-.6-.024-.6-.024-1.416-.048a12.04,12.04,0,0,1,.168,1.944Zm4.368-3.288a13.651,13.651,0,0,0,1.3-3.648,23.507,23.507,0,0,0,.384-4.8h4.992v8.448ZM72.792,66.7a26.645,26.645,0,0,1,.168,3.072v7.488a20.809,20.809,0,0,1-.192,3.1h3.408a13.25,13.25,0,0,1,1.344-2.208l4.608-6.1a4.2,4.2,0,0,0,.432-.7c.024-.048.072-.12.144-.24-.024.5-.024.5-.048,1.272l-.024,4.9a22.018,22.018,0,0,1-.168,3.072H85.8a24.325,24.325,0,0,1-.168-3.1V69.776A24.445,24.445,0,0,1,85.8,66.7H82.44A9.488,9.488,0,0,1,81.1,68.936L76.56,74.984c-.144.192-.36.528-.528.792a1.54,1.54,0,0,1-.144.24c.024-.672.048-1.128.048-1.368V69.8a24.074,24.074,0,0,1,.168-3.1ZM92.88,80.36a22.48,22.48,0,0,1-.168-3.072V74.576h6.816v2.712a25.241,25.241,0,0,1-.168,3.072h3.312a22.952,22.952,0,0,1-.168-3.072V69.8a21.493,21.493,0,0,1,.168-3.1H99.36a24.583,24.583,0,0,1,.168,3.1v2.136H92.712v-2.16A23.684,23.684,0,0,1,92.88,66.7H89.568a24.971,24.971,0,0,1,.168,3.072v7.512a19.021,19.021,0,0,1-.168,3.072Zm22.368-5.5V77.24a24.72,24.72,0,0,1-.168,3.12h3.312a23.824,23.824,0,0,1-.168-3.1V69.7a23.934,23.934,0,0,1,.168-3.072c-.984.048-1.728.072-3.024.072H111.36c-2.88,0-4.56,1.368-4.56,3.72a3.207,3.207,0,0,0,1.272,2.784,3.344,3.344,0,0,0,1.68.648,2.123,2.123,0,0,0-1.008.6,10.4,10.4,0,0,0-1.512,2.52A23.226,23.226,0,0,1,105.5,80.36h3.72a16.887,16.887,0,0,1,1.224-3.216c.864-1.824,1.32-2.28,2.4-2.28Zm0-2.472h-3.36c-1.368,0-2.04-.528-2.04-1.608s.648-1.608,1.968-1.608h3.432Zm21.312,1.872c-.048-.552-.048-.624-.048-.672a9.866,9.866,0,0,0-.7-3.648,6.1,6.1,0,0,0-5.976-3.792c-4.1,0-6.768,2.9-6.768,7.344,0,4.488,2.688,7.32,6.936,7.32a6.816,6.816,0,0,0,4.944-1.848,6.745,6.745,0,0,0,1.464-2.208l-2.832-.912a3.488,3.488,0,0,1-.7,1.248,4.037,4.037,0,0,1-5.88-.144,4.461,4.461,0,0,1-.888-2.688Zm-10.368-2.376a3.6,3.6,0,0,1,3.6-3.264,3.423,3.423,0,0,1,2.592.96,3.767,3.767,0,0,1,1.056,2.3Zm22.1,8.472a24.721,24.721,0,0,1-.168-3.12V69.32H150a26.586,26.586,0,0,1,3.072.144V66.536A22.018,22.018,0,0,1,150,66.7h-6.816a22.714,22.714,0,0,1-3.072-.168v2.928a28.408,28.408,0,0,1,3.12-.144h1.824v7.92a22.086,22.086,0,0,1-.168,3.12Zm18.672-15.936a4.175,4.175,0,0,0,3.744-1.848l-2.136-1.68a2.506,2.506,0,0,1-2.328,1.152H163.92a5.724,5.724,0,0,0-5.184,2.544c-.984,1.488-1.56,4.176-1.56,7.2a12.581,12.581,0,0,0,1.128,5.592,6.336,6.336,0,0,0,6,3.288c4.272,0,7.056-2.88,7.056-7.32,0-4.152-2.448-6.84-6.264-6.84-2.3,0-3.552.552-4.7,2.04a5.987,5.987,0,0,1,.912-2.736,3.384,3.384,0,0,1,3.1-1.392Zm-2.424,4.488a3.54,3.54,0,0,1,2.28.768,4.649,4.649,0,0,1,1.44,3.816,5.315,5.315,0,0,1-.864,3.192,3.747,3.747,0,0,1-3.1,1.416c-2.5,0-3.984-1.7-3.984-4.536S161.976,68.912,164.544,68.912Zm23.3,5.352c-.048-.552-.048-.624-.048-.672a9.866,9.866,0,0,0-.7-3.648,6.1,6.1,0,0,0-5.976-3.792c-4.1,0-6.768,2.9-6.768,7.344,0,4.488,2.688,7.32,6.936,7.32a6.816,6.816,0,0,0,4.944-1.848A6.745,6.745,0,0,0,187.7,76.76l-2.832-.912a3.488,3.488,0,0,1-.7,1.248,4.037,4.037,0,0,1-5.88-.144,4.461,4.461,0,0,1-.888-2.688ZM177.48,71.888a3.6,3.6,0,0,1,3.6-3.264,3.423,3.423,0,0,1,2.592.96,3.767,3.767,0,0,1,1.056,2.3ZM204.336,70.5a7.988,7.988,0,0,0-.84-1.752,6.208,6.208,0,0,0-5.376-2.592,6.572,6.572,0,0,0-4.824,1.824,7.76,7.76,0,0,0-2.04,5.544c0,4.44,2.736,7.3,6.96,7.3a6.283,6.283,0,0,0,5.28-2.4,7.186,7.186,0,0,0,1.008-2.064l-2.976-.6a3.354,3.354,0,0,1-.48,1.2,3.213,3.213,0,0,1-2.76,1.344c-2.424,0-3.912-1.848-3.912-4.848,0-2.976,1.464-4.824,3.816-4.824a3.02,3.02,0,0,1,2.472,1.1,4.573,4.573,0,0,1,.744,1.464ZM208.92,66.7a24.054,24.054,0,0,1,.168,3.048v7.536a24.19,24.19,0,0,1-.168,3.072h3.36a24.187,24.187,0,0,1-.168-3.072V74.5h.6a3.376,3.376,0,0,1,.96.144,5.254,5.254,0,0,1,1.944,2.256c1.656,2.832,1.656,2.832,1.848,3.456h4.224a12.282,12.282,0,0,1-1.3-1.728c-1.128-1.656-1.128-1.656-1.728-2.5a10.873,10.873,0,0,0-1.584-2.112,3.209,3.209,0,0,0-2.16-.888,3.012,3.012,0,0,0,1.9-1.272l1.632-2.376a1.087,1.087,0,0,1,.912-.528,1.431,1.431,0,0,1,.768.24l.816-2.376a4.423,4.423,0,0,0-2.04-.408,3.065,3.065,0,0,0-2.712,1.512L214.32,70.76a2.339,2.339,0,0,1-1.872,1.1h-.336V69.752a22.1,22.1,0,0,1,.168-3.048Zm22.656,14.112c4.272,0,7.08-2.928,7.08-7.368s-2.76-7.272-7.1-7.272c-4.368,0-7.152,2.856-7.152,7.32C224.4,77.984,227.184,80.816,231.576,80.816Zm-.024-12.144c2.544,0,4.008,1.776,4.008,4.872,0,2.928-1.536,4.728-4.032,4.728S227.5,76.448,227.5,73.5C227.5,70.5,229.032,68.672,231.552,68.672Zm13.56,11.688a22.481,22.481,0,0,1-.168-3.072V74.576h6.816v2.712a25.241,25.241,0,0,1-.168,3.072H254.9a22.953,22.953,0,0,1-.168-3.072V69.8a21.494,21.494,0,0,1,.168-3.1h-3.312a24.583,24.583,0,0,1,.168,3.1v2.136h-6.816v-2.16a23.685,23.685,0,0,1,.168-3.072H241.8a24.972,24.972,0,0,1,.168,3.072v7.512a19.022,19.022,0,0,1-.168,3.072Zm26.856-6.1c-.048-.552-.048-.624-.048-.672a9.866,9.866,0,0,0-.7-3.648,6.1,6.1,0,0,0-5.976-3.792c-4.1,0-6.768,2.9-6.768,7.344,0,4.488,2.688,7.32,6.936,7.32a6.816,6.816,0,0,0,4.944-1.848,6.745,6.745,0,0,0,1.464-2.208l-2.832-.912a3.488,3.488,0,0,1-.7,1.248,4.037,4.037,0,0,1-5.88-.144,4.461,4.461,0,0,1-.888-2.688ZM261.6,71.888a3.6,3.6,0,0,1,3.6-3.264,3.423,3.423,0,0,1,2.592.96,3.767,3.767,0,0,1,1.056,2.3ZM275.9,66.7a26.235,26.235,0,0,1,.168,3.048v2.664c0,2.256,1.08,3.1,3.96,3.1a31.09,31.09,0,0,0,4.08-.288v2.112a27.642,27.642,0,0,1-.168,3.024h3.36a20.777,20.777,0,0,1-.168-2.976V69.728A23.412,23.412,0,0,1,287.3,66.7h-3.36a24.986,24.986,0,0,1,.168,3.024V72.9a25.119,25.119,0,0,1-2.736.144A5,5,0,0,1,279.6,72.9c-.336-.144-.5-.48-.5-1.08V69.752a22.574,22.574,0,0,1,.168-3.048Zm19.68,13.656a22.481,22.481,0,0,1-.168-3.072V74.576h6.816v2.712a25.241,25.241,0,0,1-.168,3.072h3.312a22.953,22.953,0,0,1-.168-3.072V69.8a21.494,21.494,0,0,1,.168-3.1h-3.312a24.583,24.583,0,0,1,.168,3.1v2.136h-6.816v-2.16a23.685,23.685,0,0,1,.168-3.072h-3.312a24.972,24.972,0,0,1,.168,3.072v7.512a19.02,19.02,0,0,1-.168,3.072ZM310.152,82.5a12.328,12.328,0,0,0,2.9.36,4.17,4.17,0,0,0,4.152-2.424l5.088-11.04c.7-1.44,1.1-2.328,1.3-2.688l-3.552.024a12.218,12.218,0,0,1-.888,2.544l-2.616,6.336-2.928-6.336a11.722,11.722,0,0,1-.888-2.568H309.1a29.526,29.526,0,0,1,1.368,2.688l4.44,9.024-.288.672a1.9,1.9,0,0,1-1.944,1.1,4.278,4.278,0,0,1-1.9-.456Zm17.208-8.04h1.728a8.048,8.048,0,0,0,1.1,3.744,5.5,5.5,0,0,0,4.968,2.5c3.96,0,6.336-2.712,6.336-7.248,0-4.464-2.328-7.1-6.24-7.1a5.715,5.715,0,0,0-4.3,1.632c-.936.96-1.368,1.92-1.824,4.056H327.36V69.8a23.825,23.825,0,0,1,.168-3.1H324.24a22.46,22.46,0,0,1,.168,3.12V77.24a26.606,26.606,0,0,1-.168,3.12h3.288a24.98,24.98,0,0,1-.168-3.12Zm7.824,3.792a2.881,2.881,0,0,1-2.088-.792,5.783,5.783,0,0,1-1.176-3.888c0-3,1.248-4.776,3.312-4.776,2.04,0,3.24,1.728,3.24,4.656a6.014,6.014,0,0,1-1.176,3.936A2.8,2.8,0,0,1,335.184,78.248ZM13.248,120.36c3.192,0,4.9-1.32,4.9-3.792a3.241,3.241,0,0,0-1.1-2.616,3.154,3.154,0,0,0-1.968-.792,2.944,2.944,0,0,0,2.544-3.12c0-2.232-1.536-3.336-4.584-3.336H9.072c-1.44,0-2.04-.024-3-.072A23.437,23.437,0,0,1,6.24,109.7v7.656a23.437,23.437,0,0,1-.168,3.072c1.056-.048,1.68-.072,3.024-.072Zm-4.056-8.208v-3.144h3.5c1.368,0,2.016.48,2.016,1.488,0,1.08-.7,1.656-1.992,1.656Zm0,2.136H12.84c1.584,0,2.328.6,2.328,1.9,0,1.248-.744,1.848-2.3,1.848H9.192Zm19.68,6.528c4.272,0,7.08-2.928,7.08-7.368s-2.76-7.272-7.1-7.272c-4.368,0-7.152,2.856-7.152,7.32C21.7,117.984,24.48,120.816,28.872,120.816Zm-.024-12.144c2.544,0,4.008,1.776,4.008,4.872,0,2.928-1.536,4.728-4.032,4.728s-4.032-1.824-4.032-4.776C24.792,110.5,26.328,108.672,28.848,108.672Zm10.32,8.4a4.581,4.581,0,0,0,1.9,2.64,8.844,8.844,0,0,0,4.512,1.008,7.193,7.193,0,0,0,5.04-1.56,3.291,3.291,0,0,0,1.008-2.5,3,3,0,0,0-1.152-2.544,4.763,4.763,0,0,0-2.76-.816,4.717,4.717,0,0,0,2.208-.816,2.945,2.945,0,0,0,1.2-2.544,2.846,2.846,0,0,0-.432-1.656c-.768-1.248-2.592-1.968-4.968-1.968a7.871,7.871,0,0,0-4.152.96,4.546,4.546,0,0,0-1.944,2.52l3.048.552c.456-1.248,1.2-1.68,2.856-1.68,1.728,0,2.568.528,2.568,1.608,0,1.344-.912,1.9-3.1,1.9a8.466,8.466,0,0,1-1.584-.12v2.52a8.465,8.465,0,0,1,1.8-.12c2.544,0,3.36.432,3.36,1.8q0,2.088-3.1,2.088a4.705,4.705,0,0,1-2.3-.48,1.874,1.874,0,0,1-.96-1.32Zm31.44,3.288a22.392,22.392,0,0,1-.168-3.1v-7.488a25.788,25.788,0,0,1,.168-3.072H66.672a1.365,1.365,0,0,1-.072.384c-.072.312-.648,1.944-.7,2.064l-3.432,7.224-3.456-7.224c-.072-.192-.6-1.7-.7-1.992-.024-.144-.048-.24-.072-.456H54.312a26.766,26.766,0,0,1,.168,3.1v7.464a21.494,21.494,0,0,1-.168,3.1h3.12a22.858,22.858,0,0,1-.168-3.1v-4.68c0-.6-.024-1.128-.1-2.016a12.425,12.425,0,0,0,.648,1.752l2.592,5.28a17.363,17.363,0,0,1,1.008,2.76H63.5a15.09,15.09,0,0,1,.984-2.736l2.616-5.3a13.168,13.168,0,0,0,.648-1.752,20.146,20.146,0,0,0-.1,2.016v4.68a25.1,25.1,0,0,1-.168,3.1Zm8.736.456c4.272,0,7.08-2.928,7.08-7.368s-2.76-7.272-7.1-7.272c-4.368,0-7.152,2.856-7.152,7.32C72.168,117.984,74.952,120.816,79.344,120.816Zm-.024-12.144c2.544,0,4.008,1.776,4.008,4.872,0,2.928-1.536,4.728-4.032,4.728s-4.032-1.824-4.032-4.776C75.264,110.5,76.8,108.672,79.32,108.672Zm15.36,3.456h-.456a1.5,1.5,0,0,1-1.344-.888l-1.68-3.072a2.639,2.639,0,0,0-2.616-1.7,4.22,4.22,0,0,0-1.608.312l.5,2.208a.988.988,0,0,1,.6-.192c.336,0,.5.12.744.552l1.416,2.4a2.557,2.557,0,0,0,1.9,1.44,3.081,3.081,0,0,0-2.52,1.848L87.552,118.8a14.918,14.918,0,0,1-.888,1.56h3.408a7.361,7.361,0,0,1,.624-1.68l1.536-3.048a1.971,1.971,0,0,1,2.04-1.176h.408v3.264a19.014,19.014,0,0,1-.168,2.64H97.68a20.778,20.778,0,0,1-.144-2.64v-3.264h.408a1.922,1.922,0,0,1,2.016,1.152l1.56,3.072a9.324,9.324,0,0,1,.624,1.68h3.384c-.384-.6-.384-.6-1.272-2.208l-1.7-3.144a4.026,4.026,0,0,0-1.224-1.416,2.511,2.511,0,0,0-1.248-.408,2.551,2.551,0,0,0,1.872-1.44l1.416-2.4c.264-.456.408-.552.72-.552a1.334,1.334,0,0,1,.624.192l.5-2.208a3.833,3.833,0,0,0-1.584-.288,2.61,2.61,0,0,0-2.64,1.68l-1.656,3.072a1.6,1.6,0,0,1-1.368.888h-.432v-2.784a23.365,23.365,0,0,1,.144-2.64H94.512a20,20,0,0,1,.168,2.64ZM109.7,120.36a22.48,22.48,0,0,1-.168-3.072v-2.712h6.816v2.712a25.239,25.239,0,0,1-.168,3.072H119.5a22.952,22.952,0,0,1-.168-3.072V109.8a21.493,21.493,0,0,1,.168-3.1h-3.312a24.581,24.581,0,0,1,.168,3.1v2.136h-6.816v-2.16a23.684,23.684,0,0,1,.168-3.072h-3.312a24.971,24.971,0,0,1,.168,3.072v7.512a19.021,19.021,0,0,1-.168,3.072Zm20.112.456c4.272,0,7.08-2.928,7.08-7.368s-2.76-7.272-7.1-7.272c-4.368,0-7.152,2.856-7.152,7.32C122.64,117.984,125.424,120.816,129.816,120.816Zm-.024-12.144c2.544,0,4.008,1.776,4.008,4.872,0,2.928-1.536,4.728-4.032,4.728s-4.032-1.824-4.032-4.776C125.736,110.5,127.272,108.672,129.792,108.672Zm23.256,1.824a7.989,7.989,0,0,0-.84-1.752,6.208,6.208,0,0,0-5.376-2.592,6.572,6.572,0,0,0-4.824,1.824,7.76,7.76,0,0,0-2.04,5.544c0,4.44,2.736,7.3,6.96,7.3a6.283,6.283,0,0,0,5.28-2.4,7.187,7.187,0,0,0,1.008-2.064l-2.976-.6a3.354,3.354,0,0,1-.48,1.2A3.213,3.213,0,0,1,147,118.3c-2.424,0-3.912-1.848-3.912-4.848,0-2.976,1.464-4.824,3.816-4.824a3.02,3.02,0,0,1,2.472,1.1,4.573,4.573,0,0,1,.744,1.464Zm12.072,9.864a24.721,24.721,0,0,1-.168-3.12v-7.92h1.872a26.586,26.586,0,0,1,3.072.144v-2.928a22.018,22.018,0,0,1-3.072.168h-6.816a22.714,22.714,0,0,1-3.072-.168v2.928a28.408,28.408,0,0,1,3.12-.144h1.824v7.92a22.086,22.086,0,0,1-.168,3.12Zm12.888-8.76v-1.848a22.81,22.81,0,0,1,.168-3.048h-3.312a26.527,26.527,0,0,1,.168,3.048v7.584a21.715,21.715,0,0,1-.168,3.1c1.056-.048,1.68-.072,3-.072h4.056c3.12,0,4.9-1.584,4.9-4.392,0-2.784-1.776-4.368-4.92-4.368Zm0,6.288v-3.816h3.312c1.7,0,2.424.576,2.424,1.92s-.7,1.9-2.376,1.9Z" transform="translate(2517.88 -391)"/>
    </g>
  </g>
</svg>
