<svg xmlns="http://www.w3.org/2000/svg" xmlns:xlink="http://www.w3.org/1999/xlink" width="690" height="333.626" viewBox="0 0 690 333.626">
  <defs>
    <clipPath id="clip-path">
      <rect id="矩形_2284" data-name="矩形 2284" width="690" height="333.626" transform="translate(2483 -924)" fill="#fff"/>
    </clipPath>
  </defs>
  <g id="banner_jp" transform="translate(-2483 530)">
    <g id="组_21814" data-name="组 21814" transform="translate(2568.72 -510.427)">
      <g id="组_21806" data-name="组 21806" transform="translate(281.423 65.383)">
        <rect id="矩形_2362" data-name="矩形 2362" width="21.226" height="21.506" rx="6.75" transform="translate(0 48.328)" fill="none" stroke="#0080f4" stroke-miterlimit="10" stroke-width="1"/>
        <rect id="矩形_2364" data-name="矩形 2364" width="15.297" height="15.594" rx="6.75" transform="translate(5.09 93.213)" fill="none" stroke="#0080f4" stroke-miterlimit="10" stroke-width="1"/>
        <rect id="矩形_2365" data-name="矩形 2365" width="12.512" height="12.755" rx="5.568" transform="translate(41.073 120.896)" fill="none" stroke="#0080f4" stroke-miterlimit="10" stroke-width="1"/>
        <rect id="矩形_2366" data-name="矩形 2366" width="12.512" height="12.755" rx="5.568" transform="translate(181.521 120.896)" fill="none" stroke="#ef54a1" stroke-miterlimit="10" stroke-width="1"/>
        <g id="left" transform="translate(10.633 2.118)">
          <path id="line_1" d="M83.38,43.043s-9.927,9.337-12.765,19.93" transform="translate(-55.025 -29.355)" fill="none" stroke="#0080f4" stroke-linecap="round" stroke-miterlimit="10" stroke-width="1"/>
          <path id="line_2" d="M73.425,32.981S61.633,43.734,58.6,56.725" transform="translate(-47.562 -23.108)" fill="none" stroke="#0080f4" stroke-linecap="round" stroke-miterlimit="10" stroke-width="1"/>
          <path id="line_3" d="M63.025,19.274S47.475,33.3,43.518,48.535" transform="translate(-38.201 -14.597)" fill="none" stroke="#0080f4" stroke-linecap="round" stroke-miterlimit="10" stroke-width="1"/>
          <path id="line4" d="M52.359,6.938S36.529,18.171,29.494,41.2" transform="translate(-29.494 -6.938)" fill="none" stroke="#0080f4" stroke-linecap="round" stroke-miterlimit="10" stroke-width="1"/>
        </g>
        <g id="right" transform="translate(196.288 0.916)">
          <path id="line_01" d="M519.192,36.531s8.241,11.024,9.2,21.948" transform="translate(-519.192 -24.11)" fill="none" stroke="#ef54a1" stroke-linecap="round" stroke-miterlimit="10" stroke-width="1"/>
          <path id="line_02" d="M527.61,28.052s9.756,12.63,10.5,25.951" transform="translate(-524.419 -18.845)" fill="none" stroke="#ef54a1" stroke-linecap="round" stroke-miterlimit="10" stroke-width="1"/>
          <path id="line_03" d="M532.68,15.025s12.89,16.508,14.154,32.193" transform="translate(-527.566 -10.757)" fill="none" stroke="#ef54a1" stroke-linecap="round" stroke-miterlimit="10" stroke-width="1"/>
          <path id="line_04" d="M539.9,3.768s13.649,13.8,16.6,37.695" transform="translate(-532.05 -3.768)" fill="none" stroke="#ef54a1" stroke-linecap="round" stroke-miterlimit="10" stroke-width="1"/>
        </g>
        <path id="路径_38534" data-name="路径 38534" d="M171.672,16.741s-2.958-9.314-19.387-12.831H136.136l-17.948.72S86.528,10.945,78.154,41.964v72.7s-.06,3.171,3.618,3.211,25.144,0,25.144,0a2.046,2.046,0,0,1,2.228,2.228v33.681s-.17,2.305,2.009,2.305H224.344V123.217a6.209,6.209,0,0,1,6.209-6.209h15.283a4.544,4.544,0,0,0,4.543-4.544v-9.021a10.253,10.253,0,0,1,1.4-3.078c.959-1.319,2.638-2.278,0-4.877.519-.56,2.079-1.159,2.358-3.158V87.414l7.435-4.118s1.959-2.039,0-5.556L248.782,60.352s-1.719-1.4-.16-4.4l4.357-7.275-6.836-21.746s-4.1-15.243-28.408-23.025-53.3,3.837-62.466,12.9a49.157,49.157,0,0,0-10.591,15.338" transform="translate(-49.073 -1.352)" fill="none" stroke="#000" stroke-linecap="round" stroke-miterlimit="10" stroke-width="1"/>
        <path id="路径_38535" data-name="路径 38535" d="M157.074,12.615H183.9L187.774,8.1" transform="translate(-98.073 -5.54)" fill="none" stroke="#000" stroke-linecap="round" stroke-miterlimit="10" stroke-width="1"/>
        <path id="路径_38536" data-name="路径 38536" d="M215.191,15.057H195.977l-3.944,4.983H176.044l-3.837,4.9H167.2v4.164" transform="translate(-104.358 -9.861)" fill="none" stroke="#000" stroke-linecap="round" stroke-miterlimit="10" stroke-width="1"/>
        <path id="路径_38537" data-name="路径 38537" d="M134.159,32.348V42.5l2.612,2.239v5.037" transform="translate(-83.845 -20.597)" fill="none" stroke="#000" stroke-linecap="round" stroke-miterlimit="10" stroke-width="1"/>
        <path id="路径_38538" data-name="路径 38538" d="M128.465,36.566v9.993l2.478,2.265v4.983" transform="translate(-80.31 -23.215)" fill="none" stroke="#000" stroke-linecap="round" stroke-miterlimit="10" stroke-width="1"/>
        <path id="路径_38539" data-name="路径 38539" d="M122.631,41.205v9.807l2.665,2.345v4.823" transform="translate(-76.688 -26.096)" fill="none" stroke="#000" stroke-linecap="round" stroke-miterlimit="10" stroke-width="1"/>
        <path id="路径_38540" data-name="路径 38540" d="M117.008,45.985v9.62l2.532,2.185v5.063" transform="translate(-73.197 -29.064)" fill="none" stroke="#000" stroke-linecap="round" stroke-miterlimit="10" stroke-width="1"/>
        <circle id="椭圆_1854" data-name="椭圆 1854" cx="1.979" cy="1.979" r="1.979" transform="translate(52.002 12.907)"/>
        <circle id="椭圆_1855" data-name="椭圆 1855" cx="2.906" cy="2.906" r="2.906" transform="translate(178.015 15.549)"/>
        <circle id="椭圆_1856" data-name="椭圆 1856" cx="3.558" cy="3.558" r="3.558" transform="translate(163.812 21.105)"/>
        <circle id="椭圆_1857" data-name="椭圆 1857" cx="3.323" cy="3.323" r="3.323" transform="translate(155.733 12.706)"/>
        <circle id="椭圆_1858" data-name="椭圆 1858" cx="2.58" cy="2.58" r="2.58" transform="translate(155.829 30.371)"/>
        <circle id="椭圆_1859" data-name="椭圆 1859" cx="2.373" cy="2.373" r="2.373" transform="translate(164.259 37.122)"/>
        <circle id="椭圆_1860" data-name="椭圆 1860" cx="2.091" cy="2.091" r="2.091" transform="translate(147.73 23.716)"/>
        <circle id="椭圆_1861" data-name="椭圆 1861" cx="2.373" cy="2.373" r="2.373" transform="translate(147.008 39.253)"/>
        <circle id="椭圆_1862" data-name="椭圆 1862" cx="2.419" cy="2.419" r="2.419" transform="translate(38.504 26.701)"/>
        <circle id="椭圆_1863" data-name="椭圆 1863" cx="1.611" cy="1.611" r="1.611" transform="translate(37.756 55.141)"/>
        <circle id="椭圆_1864" data-name="椭圆 1864" cx="1.641" cy="1.641" r="1.641" transform="translate(36.141 62.773)"/>
        <circle id="椭圆_1865" data-name="椭圆 1865" cx="1.641" cy="1.641" r="1.641" transform="translate(71.877 58.292)"/>
        <circle id="椭圆_1866" data-name="椭圆 1866" cx="1.595" cy="1.595" r="1.595" transform="translate(48.681 95.961)"/>
        <circle id="椭圆_1867" data-name="椭圆 1867" cx="1.595" cy="1.595" r="1.595" transform="translate(30.704 84.981)"/>
        <path id="路径_38541" data-name="路径 38541" d="M84.184,60.979h23.237l8.528-14.993h32.619v-3.3h60.6" transform="translate(-52.817 -27.012)" fill="none" stroke="#000" stroke-linecap="round" stroke-miterlimit="10" stroke-width="1"/>
        <path id="路径_38542" data-name="路径 38542" d="M148.428,44.052l2.945,2.172v8.088" transform="translate(-92.705 -27.863)" fill="none" stroke="#000" stroke-linecap="round" stroke-miterlimit="10" stroke-width="1"/>
        <path id="路径_38543" data-name="路径 38543" d="M247.893,33.122H225.161L221.11,39.89" transform="translate(-137.832 -21.077)" fill="none" stroke="#000" stroke-linecap="round" stroke-miterlimit="10" stroke-width="1"/>
        <path id="路径_38544" data-name="路径 38544" d="M249.435,36.531H229.321l-3.238,5.39" transform="translate(-140.919 -23.194)" fill="none" stroke="#000" stroke-linecap="round" stroke-miterlimit="10" stroke-width="1"/>
        <path id="路径_38545" data-name="路径 38545" d="M191.961,32.489l-2.8,3.744h5.383Z" transform="translate(-117.996 -20.684)"/>
        <path id="路径_38546" data-name="路径 38546" d="M79,249.062h33.8l8.579,6.918a1.074,1.074,0,0,0,.673.237h79.9a.853.853,0,0,0,.853-.853V243.533l-7.088-3.3v-15.35" transform="translate(-49.596 -140.134)" fill="none" stroke="#000" stroke-linecap="round" stroke-miterlimit="10" stroke-width="1"/>
        <path id="路径_38547" data-name="路径 38547" d="M79.364,105.03h9.927v3.784s-4.963,3.877-4.963,8.395v23.944L79,147.789" transform="translate(-49.596 -65.723)" fill="none" stroke="#000" stroke-linecap="round" stroke-miterlimit="10" stroke-width="1"/>
        <line id="直线_54" data-name="直线 54" x1="9.973" transform="translate(29.401 41.652)" fill="none" stroke="#000" stroke-linecap="round" stroke-miterlimit="10" stroke-width="1"/>
        <path id="路径_38548" data-name="路径 38548" d="M97.919,174.268v13.351l-2,2.119v4.837l1.559,1.119v13.191" transform="translate(-60.104 -108.712)" fill="none" stroke="#000" stroke-linecap="round" stroke-miterlimit="10" stroke-width="1"/>
        <path id="路径_38549" data-name="路径 38549" d="M86.642,210.31v17.148H96.2l3-3.957V196.2h2.079s2.718,3.4,11.193,2.878v17.888a3.1,3.1,0,0,1-3.1,3.1H105.71" transform="translate(-54.343 -122.328)" fill="none" stroke="#000" stroke-linecap="round" stroke-miterlimit="10" stroke-width="1"/>
        <path id="路径_38550" data-name="路径 38550" d="M91.843,206.733v12.179h5.943l2.265-3.091V186.639h3.624" transform="translate(-57.572 -116.393)" fill="none" stroke="#000" stroke-linecap="round" stroke-miterlimit="10" stroke-width="1"/>
        <path id="路径_38551" data-name="路径 38551" d="M120.575,201.647l5.323,5.27h3.578l1.939,2.2" transform="translate(-75.412 -125.711)" fill="none" stroke="#000" stroke-linecap="round" stroke-miterlimit="10" stroke-width="1"/>
        <path id="路径_38552" data-name="路径 38552" d="M120.7,208.852l5.217,5.3h3.877l1.7,2.179" transform="translate(-75.488 -130.184)" fill="none" stroke="#000" stroke-linecap="round" stroke-miterlimit="10" stroke-width="1"/>
        <path id="路径_38553" data-name="路径 38553" d="M120.7,216.812l5.177,5.177h3.877l1.739,2.219" transform="translate(-75.488 -135.127)" fill="none" stroke="#000" stroke-linecap="round" stroke-miterlimit="10" stroke-width="1"/>
        <path id="路径_38554" data-name="路径 38554" d="M120.7,223.982l5.177,5.217h3.9l1.719,2.259" transform="translate(-75.488 -139.578)" fill="none" stroke="#000" stroke-linecap="round" stroke-miterlimit="10" stroke-width="1"/>
        <path id="路径_38555" data-name="路径 38555" d="M141.944,270.058h13.911l9.134,7.355h29.354" transform="translate(-88.679 -168.186)" fill="none" stroke="#000" stroke-linecap="round" stroke-miterlimit="10" stroke-width="1"/>
        <path id="路径_38556" data-name="路径 38556" d="M138.265,275.91h13.766l8.688,7.249h30.7" transform="translate(-86.395 -171.819)" fill="none" stroke="#000" stroke-linecap="round" stroke-miterlimit="10" stroke-width="1"/>
        <path id="路径_38557" data-name="路径 38557" d="M134.932,281.674h13.8l8.848,7.249H189.03" transform="translate(-84.326 -175.398)" fill="none" stroke="#000" stroke-linecap="round" stroke-miterlimit="10" stroke-width="1"/>
        <path id="路径_38558" data-name="路径 38558" d="M210.107,232.153v9.574l-2.159,2.2.159,9.594" transform="translate(-129.66 -144.652)" fill="none" stroke="#000" stroke-linecap="round" stroke-miterlimit="10" stroke-width="1"/>
        <path id="路径_38559" data-name="路径 38559" d="M235.112,231.732v7.022l-2.052,2.412v12.092" transform="translate(-145.251 -144.39)" fill="none" stroke="#000" stroke-linecap="round" stroke-miterlimit="10" stroke-width="1"/>
        <path id="路径_38560" data-name="路径 38560" d="M241.347,231.732v7.895l-2.052,2.039v11.592" transform="translate(-149.122 -144.39)" fill="none" stroke="#000" stroke-linecap="round" stroke-miterlimit="10" stroke-width="1"/>
        <path id="路径_38561" data-name="路径 38561" d="M167.832,324.827v19.107l-2.918,3.278h-3.8" transform="translate(-100.582 -202.191)" fill="none" stroke="#000" stroke-linecap="round" stroke-miterlimit="10" stroke-width="1"/>
        <path id="路径_38562" data-name="路径 38562" d="M170.537,345.921l.107,12.9-4.557,3.491h-4.97" transform="translate(-100.582 -215.287)" fill="none" stroke="#000" stroke-linecap="round" stroke-miterlimit="10" stroke-width="1"/>
        <line id="直线_55" data-name="直线 55" x2="48.843" transform="translate(60.534 150.9)" fill="none" stroke="#000" stroke-linecap="round" stroke-miterlimit="10" stroke-width="1"/>
        <path id="路径_38563" data-name="路径 38563" d="M217.877,308.526v8.155l1.439,1.759v24.3" transform="translate(-135.824 -192.07)" fill="none" stroke="#000" stroke-linecap="round" stroke-miterlimit="10" stroke-width="1"/>
        <path id="路径_38564" data-name="路径 38564" d="M224.063,308.526v7.035l2.132,2.292v24.89" transform="translate(-139.665 -192.07)" fill="none" stroke="#000" stroke-linecap="round" stroke-miterlimit="10" stroke-width="1"/>
        <line id="直线_56" data-name="直线 56" y1="23.664" transform="translate(74.111 125.517)" fill="none" stroke="#000" stroke-linecap="round" stroke-miterlimit="10" stroke-width="1"/>
        <line id="直线_57" data-name="直线 57" y1="16.416" transform="translate(76.776 132.925)" fill="none" stroke="#000" stroke-linecap="round" stroke-miterlimit="10" stroke-width="1"/>
        <line id="直线_58" data-name="直线 58" y2="34.218" transform="translate(100.414 116.456)" fill="none" stroke="#000" stroke-linecap="round" stroke-miterlimit="10" stroke-width="1"/>
        <path id="路径_38565" data-name="路径 38565" d="M322.963,217.881h10.82l5.516-8.927h27.3V172.5l-13.631-7.355V147.154l14.311-39.734" transform="translate(-201.07 -67.207)" fill="none" stroke="#000" stroke-linecap="round" stroke-miterlimit="10" stroke-width="1"/>
        <path id="路径_38566" data-name="路径 38566" d="M160.343,69.782l5.317-10.633h54.2l3.837-4.237h27.822l4.357,4.2h8.514" transform="translate(-100.102 -34.606)" fill="none" stroke="#000" stroke-linecap="round" stroke-miterlimit="10" stroke-width="1"/>
        <path id="路径_38567" data-name="路径 38567" d="M169.9,76.879l1.239,1.892,2.652-6.356h13.871" transform="translate(-106.038 -45.473)" fill="none" stroke="#000" stroke-linecap="round" stroke-miterlimit="10" stroke-width="1"/>
        <path id="路径_38568" data-name="路径 38568" d="M192.2,81.282h-6.729l-.728,1.362a.348.348,0,0,1-.307.184h-2.382a.143.143,0,0,1-.134-.193l1.451-3.836a.2.2,0,0,1,.185-.128h8.231a.56.56,0,0,1,.56.56v1.905A.147.147,0,0,1,192.2,81.282Z" transform="translate(-113.496 -49.358)" fill="none" stroke="#000" stroke-linecap="round" stroke-miterlimit="10" stroke-width="1"/>
        <path id="路径_38569" data-name="路径 38569" d="M263.039,81.941h22.9L297.817,68.83h14.95" transform="translate(-163.865 -43.247)" fill="none" stroke="#000" stroke-linecap="round" stroke-miterlimit="10" stroke-width="1"/>
        <path id="路径_38570" data-name="路径 38570" d="M263.039,111.638h22.505l3.278,5.916h8.794" transform="translate(-163.865 -69.826)" fill="none" stroke="#000" stroke-linecap="round" stroke-miterlimit="10" stroke-width="1"/>
        <path id="路径_38571" data-name="路径 38571" d="M155.739,205.759h2.318l8.528,9.54h30.007" transform="translate(-97.244 -128.264)" fill="none" stroke="#000" stroke-linecap="round" stroke-miterlimit="10" stroke-width="1"/>
        <path id="路径_38572" data-name="路径 38572" d="M164.771,196.515l9.214,10.413h26.822" transform="translate(-102.852 -122.525)" fill="none" stroke="#000" stroke-linecap="round" stroke-miterlimit="10" stroke-width="1"/>
        <path id="路径_38573" data-name="路径 38573" d="M119.592,134.833a13.392,13.392,0,1,0-1.335-4.054" transform="translate(-73.869 -72.052)" fill="none" stroke="#000" stroke-linecap="round" stroke-miterlimit="10" stroke-width="1"/>
        <path id="路径_38574" data-name="路径 38574" d="M142.582,127.509a20.318,20.318,0,0,0-11.324-26.744.2.2,0,0,0-.249.1l-.575,1.337a.191.191,0,0,1-.243.1,18.123,18.123,0,1,0,9.771,25.318h12.994l2.418,3.964h2.818" transform="translate(-66.203 -63.067)" fill="none" stroke="#000" stroke-linecap="round" stroke-miterlimit="10" stroke-width="1"/>
        <path id="路径_38575" data-name="路径 38575" d="M178.757,128.817a16.278,16.278,0,0,0,.465-3.873,14.8,14.8,0,0,0-6.38-12.605l.813-1.506a6.778,6.778,0,0,0-3.144-1.585c-.373.533-1.732,3.278-1.732,3.278" transform="translate(-105.34 -68.342)" fill="none" stroke="#000" stroke-linecap="round" stroke-miterlimit="10" stroke-width="1"/>
        <circle id="椭圆_1868" data-name="椭圆 1868" cx="10.662" cy="10.662" r="10.662" transform="translate(46.99 45.94)" fill="none" stroke="#0080f4" stroke-linecap="round" stroke-miterlimit="10" stroke-width="1"/>
        <path id="路径_38576" data-name="路径 38576" d="M143.262,133.238v12.89a.04.04,0,0,0,.059.035l11.187-6.25a.109.109,0,0,0,0-.189l-11.2-6.513A.031.031,0,0,0,143.262,133.238Z" transform="translate(-89.497 -83.218)" fill="none" stroke="#0c111a" stroke-linecap="round" stroke-miterlimit="10" stroke-width="1"/>
        <path id="路径_38577" data-name="路径 38577" d="M146.77,139.756v7.966a.024.024,0,0,0,.036.021l6.914-3.862a.067.067,0,0,0,0-.117L146.8,139.74A.019.019,0,0,0,146.77,139.756Z" transform="translate(-91.675 -87.272)" fill="none" stroke="#0080f4" stroke-linecap="round" stroke-miterlimit="10" stroke-width="1"/>
        <line id="直线_59" data-name="直线 59" y1="0.433" x2="12.823" transform="translate(35.037 60.826)" fill="none" stroke="#0080f4" stroke-linecap="round" stroke-miterlimit="10" stroke-width="1"/>
        <path id="路径_38578" data-name="路径 38578" d="M194.188,175.533H206.86l2.688,4.037h3.868" transform="translate(-121.116 -109.497)" fill="none" stroke="#000" stroke-linecap="round" stroke-miterlimit="10" stroke-width="1"/>
        <line id="直线_60" data-name="直线 60" x2="39.054" transform="translate(95.697 69.18)" fill="none" stroke="#000" stroke-linecap="round" stroke-miterlimit="10" stroke-width="1"/>
        <path id="路径_38579" data-name="路径 38579" d="M277.2,212.667h10.953l5.17-6.909h9.434" transform="translate(-172.659 -128.264)" fill="none" stroke="#000" stroke-linecap="round" stroke-miterlimit="10" stroke-width="1"/>
        <path id="路径_38580" data-name="路径 38580" d="M281.772,220.013h10.313l5.25-6.662h6.422" transform="translate(-175.495 -132.977)" fill="none" stroke="#000" stroke-linecap="round" stroke-miterlimit="10" stroke-width="1"/>
        <path id="路径_38581" data-name="路径 38581" d="M256.186,157.056v3.358h34.527v1.157a.08.08,0,0,0,.117.072l4.57-2.337a.081.081,0,0,0,.01-.139l-4.537-3.215a.031.031,0,0,0-.05.026v1.078Z" transform="translate(-159.609 -97.336)" fill="none" stroke="#000" stroke-linecap="round" stroke-miterlimit="10" stroke-width="1"/>
        <path id="路径_38582" data-name="路径 38582" d="M458.1,57.021V67.574H445.553V63.417" transform="translate(-277.183 -35.915)" fill="none" stroke="#000" stroke-linecap="round" stroke-miterlimit="10" stroke-width="1"/>
        <path id="路径_38583" data-name="路径 38583" d="M373.011,134.385h1.479l7.035-19.267" transform="translate(-232.144 -71.986)" fill="none" stroke="#000" stroke-linecap="round" stroke-miterlimit="10" stroke-width="1"/>
        <path id="路径_38584" data-name="路径 38584" d="M366.474,127.681h6.356L386.341,93.4" transform="translate(-228.085 -58.501)" fill="none" stroke="#000" stroke-linecap="round" stroke-miterlimit="10" stroke-width="1"/>
        <path id="路径_38585" data-name="路径 38585" d="M353.4,126.82h13.271l19.507-53.245" transform="translate(-219.967 -46.193)" fill="none" stroke="#000" stroke-linecap="round" stroke-miterlimit="10" stroke-width="1"/>
        <path id="路径_38586" data-name="路径 38586" d="M359.738,178.171h9.289l5.3-14.47,3.747-3.427" transform="translate(-223.903 -100.023)" fill="none" stroke="#000" stroke-linecap="round" stroke-miterlimit="10" stroke-width="1"/>
        <path id="路径_38587" data-name="路径 38587" d="M361.291,94.122h-4.917V89.865h5.157v10.773h-5.336" transform="translate(-221.702 -56.308)" fill="none" stroke="#ef54a1" stroke-linecap="round" stroke-miterlimit="10" stroke-width="1"/>
        <path id="路径_38588" data-name="路径 38588" d="M239.949,89.847h5.476v4.211h-4.85v2.478h4.85v4.037h-5.317" transform="translate(-149.528 -56.297)" fill="none" stroke="#0080f4" stroke-linecap="round" stroke-miterlimit="10" stroke-width="1"/>
        <path id="路径_38590" data-name="路径 38590" d="M236.469,127.451" transform="translate(-147.368 -79.644)" fill="none" stroke="#000" stroke-linecap="round" stroke-miterlimit="10" stroke-width="1"/>
        <path id="路径_38591" data-name="路径 38591" d="M302.75,311.97a56.9,56.9,0,0,1,.2,6.2v26.942h-6.276v-30.3s.112-2.446.16-2.838" transform="translate(-184.748 -194.208)" fill="none" stroke="#000" stroke-miterlimit="10" stroke-width="1"/>
        <line id="直线_61" data-name="直线 61" y2="5.743" transform="translate(80.587 73.897)" fill="none" stroke="#000" stroke-miterlimit="10" stroke-width="1"/>
        <line id="直线_62" data-name="直线 62" y2="5.743" transform="translate(83.119 73.897)" fill="none" stroke="#000" stroke-miterlimit="10" stroke-width="1"/>
        <line id="直线_63" data-name="直线 63" y2="4.823" transform="translate(85.93 73.897)" fill="none" stroke="#000" stroke-miterlimit="10" stroke-width="1"/>
        <line id="直线_64" data-name="直线 64" x2="19.774" transform="translate(66.863 36.375)" fill="none" stroke="#000" stroke-miterlimit="10" stroke-width="1"/>
        <line id="直线_65" data-name="直线 65" x2="16.229" transform="translate(70.407 38.507)" fill="none" stroke="#000" stroke-miterlimit="10" stroke-width="1"/>
        <line id="直线_66" data-name="直线 66" x2="13.351" transform="translate(73.285 40.586)" fill="none" stroke="#000" stroke-miterlimit="10" stroke-width="1"/>
        <line id="直线_67" data-name="直线 67" x1="10.979" transform="translate(75.657 42.585)" fill="none" stroke="#000" stroke-miterlimit="10" stroke-width="1"/>
        <line id="直线_68" data-name="直线 68" x1="9.487" transform="translate(77.149 44.61)" fill="none" stroke="#000" stroke-miterlimit="10" stroke-width="1"/>
        <line id="直线_69" data-name="直线 69" x1="8.554" transform="translate(78.082 46.822)" fill="none" stroke="#000" stroke-miterlimit="10" stroke-width="1"/>
        <line id="直线_70" data-name="直线 70" x1="7.888" transform="translate(78.748 48.98)" fill="none" stroke="#000" stroke-miterlimit="10" stroke-width="1"/>
        <line id="直线_71" data-name="直线 71" x1="7.462" transform="translate(79.175 51.352)" fill="none" stroke="#000" stroke-miterlimit="10" stroke-width="1"/>
        <line id="直线_72" data-name="直线 72" x1="7.009" transform="translate(79.628 53.484)" fill="none" stroke="#000" stroke-miterlimit="10" stroke-width="1"/>
        <line id="直线_73" data-name="直线 73" x1="7.009" transform="translate(79.628 55.696)" fill="none" stroke="#000" stroke-miterlimit="10" stroke-width="1"/>
        <line id="直线_74" data-name="直线 74" x1="6.769" transform="translate(79.868 57.801)" fill="none" stroke="#000" stroke-miterlimit="10" stroke-width="1"/>
        <line id="直线_75" data-name="直线 75" x1="7.009" transform="translate(79.628 59.932)" fill="none" stroke="#000" stroke-miterlimit="10" stroke-width="1"/>
        <line id="直线_76" data-name="直线 76" x1="7.302" transform="translate(79.335 61.932)" fill="none" stroke="#000" stroke-miterlimit="10" stroke-width="1"/>
        <line id="直线_77" data-name="直线 77" y1="38.975" x2="0.407" transform="translate(109.728 115.442)" fill="none" stroke="#ef54a1" stroke-miterlimit="10" stroke-width="1"/>
        <path id="路径_38592" data-name="路径 38592" d="M291.929,195.387s.92-7.53,4.937-12.709c.5-.342,1.939-4.14,3.578-6.178s11.992-16.536,14.47-22.958,4.957-8.823,5.277-26.09h2.478s.12,17.909-6.376,30.061-11.473,17.7-13.9,21.282-7.385,11.5-7.7,14.935" transform="translate(-181.802 -79.644)" fill="none" stroke="#ef54a1" stroke-miterlimit="10" stroke-width="1"/>
        <path id="路径_38593" data-name="路径 38593" d="M481.823,138.676l15.15-5.117v-4" transform="translate(-299.703 -80.955)" fill="none" stroke="#000" stroke-linecap="round" stroke-miterlimit="10" stroke-width="1"/>
        <path id="路径_38594" data-name="路径 38594" d="M509.949,144.183v3.891l-.853,1.785" transform="translate(-316.636 -90.033)" fill="none" stroke="#000" stroke-linecap="round" stroke-miterlimit="10" stroke-width="1"/>
        <line id="直线_78" data-name="直线 78" x2="10.26" y2="2.825" transform="translate(183.24 57.615)" fill="none" stroke="#000" stroke-linecap="round" stroke-miterlimit="10" stroke-width="1"/>
        <path id="路径_38595" data-name="路径 38595" d="M33.823,257.575l-2.9,1.579v4.457l2.9,1.65a.2.2,0,0,0,.3-.172v-7.341A.2.2,0,0,0,33.823,257.575Z" transform="translate(-19.745 -160.42)" fill="none" stroke="#0080f4" stroke-linecap="round" stroke-miterlimit="10" stroke-width="1"/>
        <line id="直线_79" data-name="直线 79" x2="3.318" transform="translate(7.595 100.999)" fill="none" stroke="#0080f4" stroke-linecap="round" stroke-miterlimit="10" stroke-width="1"/>
        <line id="直线_80" data-name="直线 80" x1="2.765" transform="translate(14.637 99.441)" fill="none" stroke="#0080f4" stroke-linecap="round" stroke-miterlimit="10" stroke-width="1"/>
        <line id="直线_81" data-name="直线 81" x1="2.765" transform="translate(14.637 102.638)" fill="none" stroke="#0080f4" stroke-linecap="round" stroke-miterlimit="10" stroke-width="1"/>
        <rect id="矩形_2367" data-name="矩形 2367" width="15.297" height="15.594" rx="6.75" transform="translate(214.759 93.155)" fill="none" stroke="#ef54a1" stroke-miterlimit="10" stroke-width="1"/>
        <path id="路径_38596" data-name="路径 38596" d="M583.881,265.111l2.9-1.58v-4.457l-2.9-1.65a.2.2,0,0,0-.3.172v7.341A.2.2,0,0,0,583.881,265.111Z" transform="translate(-362.887 -160.325)" fill="none" stroke="#ef54a1" stroke-linecap="round" stroke-miterlimit="10" stroke-width="1"/>
        <line id="直线_82" data-name="直线 82" x1="3.318" transform="translate(224.159 100.941)" fill="none" stroke="#ef54a1" stroke-linecap="round" stroke-miterlimit="10" stroke-width="1"/>
        <line id="直线_83" data-name="直线 83" y2="5.297" transform="translate(44.151 124.517)" fill="none" stroke="#0080f4" stroke-linecap="round" stroke-miterlimit="10" stroke-width="1"/>
        <path id="路径_38597" data-name="路径 38597" d="M125.548,324.823v8.72a.073.073,0,0,0,.119.057l2.976-2.418a.091.091,0,0,0-.012-.15l-2.8-1.615,2.518-2.148a.091.091,0,0,0,0-.138l-2.678-2.362A.073.073,0,0,0,125.548,324.823Z" transform="translate(-78.499 -202.143)" fill="none" stroke="#0080f4" stroke-linecap="round" stroke-miterlimit="10" stroke-width="1"/>
        <line id="直线_84" data-name="直线 84" x2="2.478" transform="translate(44.391 127.166)" fill="none" stroke="#0080f4" stroke-linecap="round" stroke-miterlimit="10" stroke-width="1"/>
        <path id="路径_38599" data-name="路径 38599" d="M595.027,169.452v1.907a.182.182,0,0,1-.282.151l-1.43-.953a.182.182,0,0,1,0-.3l1.43-.953A.182.182,0,0,1,595.027,169.452Z" transform="translate(-368.876 -105.609)" fill="#ef54a1"/>
        <path id="路径_38600" data-name="路径 38600" d="M590.282,143.681v-1.906a.181.181,0,0,1,.282-.151l1.43.953a.182.182,0,0,1,0,.3l-1.43.953A.181.181,0,0,1,590.282,143.681Z" transform="translate(-367.043 -88.424)" fill="#ef54a1"/>
        <g id="组_21713" data-name="组 21713" transform="translate(213.943 48.334)">
          <rect id="矩形_2363" data-name="矩形 2363" width="21.226" height="21.506" rx="6.75" fill="none" stroke="#ef54a1" stroke-miterlimit="10" stroke-width="1"/>
          <path id="路径_38598" data-name="路径 38598" d="M581.937,149.088v-3.977a.26.26,0,0,1,.26-.26h3.438" transform="translate(-575.805 -138.782)" fill="none" stroke="#ef54a1" stroke-linecap="round" stroke-miterlimit="10" stroke-width="1"/>
          <circle id="椭圆_1869" data-name="椭圆 1869" cx="3.145" cy="3.145" r="3.145" transform="translate(12.188 3.444)" fill="none" stroke="#ef54a1" stroke-miterlimit="10" stroke-width="1"/>
          <line id="直线_85" data-name="直线 85" x2="1.266" transform="translate(16.039 6.163)" fill="none" stroke="#ef54a1" stroke-linecap="round" stroke-miterlimit="10" stroke-width="1"/>
          <line id="直线_86" data-name="直线 86" x2="1.319" transform="translate(13.307 6.163)" fill="none" stroke="#ef54a1" stroke-linecap="round" stroke-miterlimit="10" stroke-width="1"/>
          <g id="组_21708" data-name="组 21708" transform="translate(4.275 14.77)">
            <line id="直线_87" data-name="直线 87" x2="1.266" transform="translate(2.732)" fill="none" stroke="#ef54a1" stroke-linecap="round" stroke-miterlimit="10" stroke-width="1"/>
            <line id="直线_88" data-name="直线 88" x2="1.319" fill="none" stroke="#ef54a1" stroke-linecap="round" stroke-miterlimit="10" stroke-width="1"/>
          </g>
          <path id="路径_38601" data-name="路径 38601" d="M597.1,164.539h3.4v-4.61" transform="translate(-585.221 -148.143)" fill="none" stroke="#ef54a1" stroke-linecap="round" stroke-miterlimit="10" stroke-width="1"/>
          <circle id="椭圆_1870" data-name="椭圆 1870" cx="3.144" cy="3.144" r="3.144" transform="translate(3.13 12.105)" fill="none" stroke="#ef54a1" stroke-linecap="round" stroke-miterlimit="10" stroke-width="1"/>
          <line id="直线_89" data-name="直线 89" y1="1.792" transform="translate(4.393 10.753)" fill="none" stroke="#ef54a1" stroke-linecap="round" stroke-miterlimit="10" stroke-width="1"/>
          <line id="直线_90" data-name="直线 90" y1="1.792" transform="translate(7.981 10.753)" fill="none" stroke="#ef54a1" stroke-linecap="round" stroke-miterlimit="10" stroke-width="1"/>
        </g>
        <g id="组_21526" data-name="组 21526" transform="translate(183.161 122.548)">
          <path id="路径_37350" data-name="路径 37350" d="M495.461,329.556a.707.707,0,0,1,.629-.575c.288,0,.487.305.575.575a3.3,3.3,0,0,1,.162,1.024.12.12,0,0,1-.126.108c-.018,0-.038,0-.038-.018a1.1,1.1,0,0,0-.575-.144,1.165,1.165,0,0,0-.593.144.1.1,0,0,1-.136-.036.094.094,0,0,1-.008-.018c0-.018-.018-.018-.018-.038a3.989,3.989,0,0,1,.125-1.024Z" transform="translate(-491.252 -327.318)" fill="#ef54a1"/>
          <path id="路径_37351" data-name="路径 37351" d="M490.142,330.667a.1.1,0,0,1-.136-.036.1.1,0,0,1-.008-.018c0-.018-.018-.018-.018-.038a3.889,3.889,0,0,1,.126-1.024.707.707,0,0,1,.629-.575c.287,0,.487.305.593.575a3.3,3.3,0,0,1,.162,1.024.12.12,0,0,1-.126.108c-.018,0-.038,0-.038-.018a1.118,1.118,0,0,0-.593-.144,1.315,1.315,0,0,0-.593.144Z" transform="translate(-487.928 -327.315)" fill="#ef54a1"/>
          <path id="路径_37352" data-name="路径 37352" d="M488.012,335.6a8.7,8.7,0,0,0,.244,1.458" transform="translate(-486.706 -331.428)" fill="none" stroke="#ef54a1" stroke-miterlimit="10" stroke-width="1"/>
          <path id="路径_3" data-name="路径 3" d="M492.5,331.657a1.678,1.678,0,0,0-1.348.072c.251-.521.521-1.078.754-1.653a5.239,5.239,0,0,0,.5-1.835,3.479,3.479,0,0,0-3.217-3.648,3.3,3.3,0,0,0-3.328,3.269c0,.055,0,.109,0,.164h0a6.858,6.858,0,0,0,.018.861l-.04,0a1.694,1.694,0,0,0-.876.39,1.64,1.64,0,0,0-.323.379c-.125.288-.125.647.234.737a1.17,1.17,0,0,0,.431-.108,1.626,1.626,0,0,1,.682-.176.4.4,0,0,1,.109.031,8.556,8.556,0,0,0,.629,1.76,5.407,5.407,0,0,0,1.043,1.51,1.925,1.925,0,0,0,1.294.629,3.483,3.483,0,0,0,1.923-.719c.27-.18.5-.359.683-.487a1.157,1.157,0,0,1,.4-.2,1.994,1.994,0,0,1,.539.144c.2.09.412.2.611.27a.122.122,0,0,0,.144-.072v-.014A1.364,1.364,0,0,0,492.5,331.657Zm-3.451-1.185a1.14,1.14,0,0,0-.88-.054,1.365,1.365,0,0,1-.467.018c-.467-.126-.287-.629-.09-.881a1.989,1.989,0,0,1,.665-.487,1.875,1.875,0,0,1,1.977.162" transform="translate(-484.568 -324.594)" fill="none" stroke="#ef54a1" stroke-miterlimit="10" stroke-width="1"/>
        </g>
        <g id="组_21526-2" data-name="组 21526" transform="translate(4.088 51.645)">
          <path id="路径_37350-2" data-name="路径 37350" d="M28.181,145.6a6.467,6.467,0,0,1,.2,1.658c0,.031-.029.031-.029.06a.136.136,0,0,1-.013.029.161.161,0,0,1-.22.058,1.877,1.877,0,0,0-.96-.233,1.77,1.77,0,0,0-.931.233c0,.029-.031.029-.061.029a.2.2,0,0,1-.2-.174,5.351,5.351,0,0,1,.262-1.658c.143-.436.465-.931.931-.931a1.146,1.146,0,0,1,1.018.931Z" transform="translate(-20.76 -141.983)" fill="#0080f4"/>
          <path id="路径_37351-2" data-name="路径 37351" d="M36.746,147.4a2.128,2.128,0,0,0-.96-.233,1.81,1.81,0,0,0-.96.233c0,.029-.031.029-.061.029a.2.2,0,0,1-.2-.174,5.34,5.34,0,0,1,.262-1.658c.172-.436.494-.931.96-.931a1.145,1.145,0,0,1,1.018.931,6.318,6.318,0,0,1,.2,1.658c0,.031-.029.031-.029.06a.157.157,0,0,1-.013.029.161.161,0,0,1-.22.058Z" transform="translate(-26.096 -141.98)" fill="#0080f4"/>
          <path id="路径_37352-2" data-name="路径 37352" d="M43.151,157.749a14.123,14.123,0,0,0,.394-2.359" transform="translate(-31.428 -148.636)" fill="none" stroke="#0080f4" stroke-miterlimit="10" stroke-width="1"/>
          <path id="路径_3-2" data-name="路径 3" d="M12.231,151.13v.024a.2.2,0,0,0,.233.116c.322-.116.669-.291.989-.436a3.241,3.241,0,0,1,.873-.233,1.886,1.886,0,0,1,.64.32c.291.206.669.5,1.105.787a5.636,5.636,0,0,0,3.112,1.164,3.116,3.116,0,0,0,2.094-1.018,8.743,8.743,0,0,0,1.687-2.443,13.852,13.852,0,0,0,1.018-2.848.631.631,0,0,1,.176-.051,2.624,2.624,0,0,1,1.1.284,1.89,1.89,0,0,0,.7.174c.582-.145.582-.727.378-1.192a2.658,2.658,0,0,0-.522-.613,2.741,2.741,0,0,0-1.418-.632l-.066-.008a11.174,11.174,0,0,0,.029-1.394h0q.005-.132,0-.265a5.338,5.338,0,0,0-5.385-5.291,5.631,5.631,0,0,0-5.206,5.9,8.475,8.475,0,0,0,.814,2.969c.378.931.814,1.832,1.222,2.676a2.717,2.717,0,0,0-2.181-.116A2.208,2.208,0,0,0,12.231,151.13Zm5.033-6.051a3.036,3.036,0,0,1,3.2-.262,3.215,3.215,0,0,1,1.076.788c.32.407.611,1.222-.146,1.425a2.212,2.212,0,0,1-.756-.029,1.845,1.845,0,0,0-1.425.087" transform="translate(-12.23 -137.575)" fill="none" stroke="#0080f4" stroke-miterlimit="10" stroke-width="1"/>
        </g>
        <path id="路径_38533" data-name="路径 38533" d="M267.848,234.382s-.107-25.756.107-35.243-10.33-24.844-15.35-31.446c-5.277-6.5-13.751-24.517-13.645-38.055q.009-1.1.063-2.186h-2.555s.81,16.967,4.222,24.49c.122.269.233.54.33.819,2.737,7.915,10.243,19.262,15.741,25.965a35.877,35.877,0,0,1,7.875,14.444" transform="translate(-147.368 -79.644)" fill="none" stroke="#0080f4" stroke-linecap="round" stroke-miterlimit="10" stroke-width="1"/>
      </g>
    </g>
    <g id="蒙版组_57" data-name="蒙版组 57" transform="translate(0 394)" clip-path="url(#clip-path)">
      <g id="背景" transform="translate(2662.969 -926.427)" opacity="0.1">
        <path id="路径_38729" data-name="路径 38729" d="M395.381,229.828l411.45.978,44.711,45.141v174.79l-423.094-.978-33.067-39.367Z" transform="translate(-353.033 -169.131)" fill="none" stroke="#000" stroke-miterlimit="10" stroke-width="1"/>
        <path id="路径_38730" data-name="路径 38730" d="M484,214.777H837.464l28.869-30.444" transform="translate(-371.165 -160.451)" fill="none" stroke="#000" stroke-miterlimit="10" stroke-width="1"/>
        <path id="路径_38731" data-name="路径 38731" d="M866.333,184.333H512.869L484,214.777" transform="translate(-470.089 102.659)" fill="none" stroke="#000" stroke-miterlimit="10" stroke-width="1"/>
        <circle id="椭圆_1871" data-name="椭圆 1871" cx="13.532" cy="13.532" r="13.532" transform="translate(490.214)" fill="none" stroke="#000" stroke-miterlimit="10" stroke-width="1"/>
        <circle id="椭圆_1872" data-name="椭圆 1872" cx="8.456" cy="8.456" r="8.456" transform="translate(0 315.035)" fill="none" stroke="#000" stroke-miterlimit="10" stroke-width="1"/>
        <path id="路径_38732" data-name="路径 38732" d="M594.911,274.9l26.974-11.682H965.406" transform="translate(-516.818 -220.57)" fill="none" stroke="#000" stroke-width="1"/>
        <path id="路径_38733" data-name="路径 38733" d="M965.406,263.214,938.432,274.9H594.911" transform="translate(-534.42 23.778)" fill="none" stroke="#000" stroke-width="1"/>
        <path id="路径_38734" data-name="路径 38734" d="M413.437,293.133H387.292V466.608" transform="translate(-353.655 -238.806)" fill="none" stroke="#000" stroke-width="1"/>
        <path id="路径_38735" data-name="路径 38735" d="M1645.295,462.333V611.086H1608.8" transform="translate(-1134.818 -341.939)" fill="none" stroke="#707070" stroke-width="1"/>
        <path id="路径_38736" data-name="路径 38736" d="M428.642,768.6l31.09,32.585" transform="translate(-392.057 -523.11)" fill="none" stroke="#000" stroke-width="1"/>
        <path id="路径_38737" data-name="路径 38737" d="M1636.882,316.811l23.069,21.681" transform="translate(-1155.649 -244.99)" fill="none" stroke="#000" stroke-width="1"/>
      </g>
    </g>
    <path id="路径_39948" data-name="路径 39948" d="M2.23.852A1.874,1.874,0,0,1,.776.253,2.219,2.219,0,0,1,.229-1.3,2.351,2.351,0,0,1,.786-2.946,1.944,1.944,0,0,1,2.3-3.56a1.831,1.831,0,0,1,1.424.6,2.227,2.227,0,0,1,.54,1.557A2.359,2.359,0,0,1,3.712.244,1.908,1.908,0,0,1,2.23.852Zm.036-3.959a1.376,1.376,0,0,0-1.092.485,1.878,1.878,0,0,0-.42,1.274,1.891,1.891,0,0,0,.409,1.27A1.335,1.335,0,0,0,2.23.4,1.4,1.4,0,0,0,3.337-.056a1.873,1.873,0,0,0,.4-1.283,1.957,1.957,0,0,0-.393-1.307A1.347,1.347,0,0,0,2.265-3.107ZM17.981-.946q0,1.8-1.622,1.8-1.554,0-1.554-1.729v-2.61h.5V-.91Q15.305.4,16.413.4q1.069,0,1.069-1.268V-3.488h.5ZM31.86.78h-.6l-.714-1.2A2.606,2.606,0,0,0,30.36-.7a1.086,1.086,0,0,0-.189-.192A.655.655,0,0,0,29.963-1a.857.857,0,0,0-.252-.034H29.3V.78h-.5V-3.488h1.274a1.816,1.816,0,0,1,.516.07A1.156,1.156,0,0,1,31-3.205a.989.989,0,0,1,.272.356,1.18,1.18,0,0,1,.1.5,1.2,1.2,0,0,1-.067.409,1.069,1.069,0,0,1-.191.332,1.155,1.155,0,0,1-.3.249,1.52,1.52,0,0,1-.391.159v.012a.9.9,0,0,1,.186.109,1.024,1.024,0,0,1,.15.144,1.913,1.913,0,0,1,.141.189q.07.106.156.246ZM29.3-3.036v1.548h.679a1.029,1.029,0,0,0,.347-.057.8.8,0,0,0,.275-.162.736.736,0,0,0,.182-.259.867.867,0,0,0,.065-.344.669.669,0,0,0-.222-.534.953.953,0,0,0-.641-.192ZM57.976.78h-.5V-2.083q0-.339.042-.83h-.012a2.655,2.655,0,0,1-.128.414L55.922.78h-.244L54.222-2.476a2.552,2.552,0,0,1-.128-.438h-.012q.024.256.024.836V.78h-.482V-3.488h.661l1.31,2.977a3.812,3.812,0,0,1,.2.512h.018q.128-.351.205-.524l1.336-2.965h.625Zm11.376,0h-.5V-3.488h.5ZM80.028.608V.018a1.145,1.145,0,0,0,.243.161,1.965,1.965,0,0,0,.3.121,2.37,2.37,0,0,0,.314.076A1.751,1.751,0,0,0,81.174.4a1.143,1.143,0,0,0,.689-.171.579.579,0,0,0,.228-.493.578.578,0,0,0-.076-.3A.855.855,0,0,0,81.8-.8a2.082,2.082,0,0,0-.317-.2q-.183-.1-.394-.2t-.417-.229a1.805,1.805,0,0,1-.336-.256A1.068,1.068,0,0,1,80.116-2a.981.981,0,0,1-.082-.415.976.976,0,0,1,.128-.508,1.1,1.1,0,0,1,.336-.356,1.525,1.525,0,0,1,.475-.208,2.174,2.174,0,0,1,.543-.068,2.082,2.082,0,0,1,.92.152v.563a1.667,1.667,0,0,0-.97-.262,1.6,1.6,0,0,0-.327.034.925.925,0,0,0-.292.112.646.646,0,0,0-.208.2.529.529,0,0,0-.08.3.613.613,0,0,0,.061.283.693.693,0,0,0,.18.217,1.793,1.793,0,0,0,.29.191q.171.092.394.2t.435.238a1.986,1.986,0,0,1,.36.277,1.23,1.23,0,0,1,.246.336.946.946,0,0,1,.091.423,1.072,1.072,0,0,1-.124.534,1.014,1.014,0,0,1-.333.356,1.456,1.456,0,0,1-.484.2A2.649,2.649,0,0,1,81.1.852a2.353,2.353,0,0,1-.25-.016q-.149-.016-.3-.048A2.478,2.478,0,0,1,80.25.71.912.912,0,0,1,80.028.608Zm12.992,0V.018a1.144,1.144,0,0,0,.243.161,1.965,1.965,0,0,0,.3.121,2.369,2.369,0,0,0,.314.076A1.751,1.751,0,0,0,94.166.4a1.143,1.143,0,0,0,.689-.171.579.579,0,0,0,.228-.493.578.578,0,0,0-.076-.3A.855.855,0,0,0,94.8-.8,2.082,2.082,0,0,0,94.48-1q-.183-.1-.394-.2t-.417-.229a1.806,1.806,0,0,1-.336-.256A1.068,1.068,0,0,1,93.108-2a.981.981,0,0,1-.082-.415.976.976,0,0,1,.128-.508,1.1,1.1,0,0,1,.336-.356,1.525,1.525,0,0,1,.475-.208,2.174,2.174,0,0,1,.543-.068,2.082,2.082,0,0,1,.92.152v.563a1.667,1.667,0,0,0-.97-.262,1.6,1.6,0,0,0-.327.034.925.925,0,0,0-.292.112.646.646,0,0,0-.208.2.529.529,0,0,0-.08.3.613.613,0,0,0,.061.283.693.693,0,0,0,.18.217,1.793,1.793,0,0,0,.29.191q.171.092.394.2t.435.238a1.987,1.987,0,0,1,.36.277,1.23,1.23,0,0,1,.246.336.945.945,0,0,1,.091.423,1.072,1.072,0,0,1-.124.534,1.014,1.014,0,0,1-.333.356,1.456,1.456,0,0,1-.484.2,2.649,2.649,0,0,1-.577.061,2.353,2.353,0,0,1-.25-.016q-.149-.016-.3-.048A2.478,2.478,0,0,1,93.242.71.912.912,0,0,1,93.02.608ZM106.712.78h-.5V-3.488h.5Zm12.6.071a1.874,1.874,0,0,1-1.454-.6,2.219,2.219,0,0,1-.546-1.557,2.351,2.351,0,0,1,.557-1.643,1.944,1.944,0,0,1,1.515-.613,1.831,1.831,0,0,1,1.424.6,2.227,2.227,0,0,1,.54,1.557A2.359,2.359,0,0,1,120.79.244,1.908,1.908,0,0,1,119.308.852Zm.036-3.959a1.376,1.376,0,0,0-1.092.485,1.878,1.878,0,0,0-.42,1.274,1.891,1.891,0,0,0,.409,1.27A1.335,1.335,0,0,0,119.308.4a1.4,1.4,0,0,0,1.107-.458,1.873,1.873,0,0,0,.4-1.283,1.957,1.957,0,0,0-.393-1.307A1.347,1.347,0,0,0,119.344-3.107ZM135.378.78h-.613l-2.2-3.4a1.423,1.423,0,0,1-.137-.268h-.018a4.392,4.392,0,0,1,.024.586V.78h-.5V-3.488h.649l2.137,3.349q.134.208.173.286h.012a4.518,4.518,0,0,1-.03-.628V-3.488h.5Z" transform="translate(2521 -444.587)"/>
    <path id="路径_40011" data-name="路径 40011" d="M12.124-23.156a19.077,19.077,0,0,1,.112,2.38c0,6.664-1.54,11.284-5.124,15.428a18.665,18.665,0,0,1-6.1,4.676A8.376,8.376,0,0,1,3.192,2.212a23.616,23.616,0,0,0,4.34-3.22,19.494,19.494,0,0,0,4.312-5.376,20.036,20.036,0,0,0,2.184-5.656A22.136,22.136,0,0,0,17.752-4.4a27.256,27.256,0,0,0,7.112,6.608A10.417,10.417,0,0,1,27.048-.9a18.647,18.647,0,0,1-4.34-3.024,19.245,19.245,0,0,1-4.424-5.32A20.578,20.578,0,0,1,15.54-20.552a21.129,21.129,0,0,1,.2-2.6Zm41.608,3.584c0-1.4.028-2.1.112-3.108a25.117,25.117,0,0,1-2.884.112H45.584a24.567,24.567,0,0,1-2.856-.112c.056.924.084,1.68.084,2.6v4.284c0,1.148-.028,1.82-.084,2.548.7-.056,1.6-.084,2.576-.084H50.82v11.7c0,.588-.252.756-1.036.756a15.39,15.39,0,0,1-2.128-.168,21.258,21.258,0,0,1-.084-2.408V-9.128c0-1.064.028-1.848.084-2.52a22.518,22.518,0,0,1-2.6.112H38.808a22.83,22.83,0,0,1-2.6-.112q.084,1.092.084,2.52v5.712c0,.784-.028,1.708-.084,2.436.784-.056,1.68-.084,2.576-.084H45c.392,0,1.036,0,1.568.028a9.922,9.922,0,0,1,.728,2.884c1.064.056,1.54.084,1.9.084A8.516,8.516,0,0,0,52.388,1.6c1.008-.42,1.344-1.148,1.344-2.828ZM45.584-20.3H50.82v1.4H45.584Zm0,3.388H50.82v1.428H45.584ZM39.06-9.184h5.712V-7.5H39.06Zm0,3.948h5.712v1.82H39.06Zm-5.852-8.092h5.068c.98,0,1.848.028,2.576.084-.056-.616-.084-1.26-.084-2.548v-4.284c0-1.092.028-1.708.084-2.6A23.658,23.658,0,0,1,38-22.568H33.04a25.431,25.431,0,0,1-2.884-.112,31.043,31.043,0,0,1,.112,3.136V-1.26A25.031,25.031,0,0,1,30.1,2.212h3.276a24.287,24.287,0,0,1-.168-3.444Zm0-6.972h4.816v1.4H33.208Zm0,3.388h4.816v1.428H33.208Zm31.136-5.516a11.9,11.9,0,0,1,.448,1.82,71.346,71.346,0,0,0,1.876,7.588,17.283,17.283,0,0,0-3.808,2.408A6.576,6.576,0,0,0,60.368-5.6,5.3,5.3,0,0,0,62.8-.924C64.6.14,67.032.616,70.924.616A59.172,59.172,0,0,0,77.476.2,17.454,17.454,0,0,1,79.744,0l-.308-3.836a30.655,30.655,0,0,1-9.044,1.148c-4.508,0-6.412-.868-6.412-2.912,0-2.016,2.044-3.808,6.132-5.32a68.414,68.414,0,0,1,9.24-2.688l-1.2-3.528a7.663,7.663,0,0,1-1.064.42c-5.432,1.792-5.432,1.792-7.252,2.464a47.026,47.026,0,0,1-1.848-8.764ZM104.132-1.372V.336h3.752a18.47,18.47,0,0,1-.14-2.884V-17.92a16.987,16.987,0,0,1,.084-2.324c-.98.056-.98.056-2.436.056H91.924a18.821,18.821,0,0,1-3.612-.2v3.64a27.4,27.4,0,0,1,3.584-.14H104.16V-4.676H91.42a18,18,0,0,1-3.5-.2V-1.26a31.3,31.3,0,0,1,3.444-.112Zm11.284-16.6a29.4,29.4,0,0,1,7.14,5.684l2.408-3.052a39.656,39.656,0,0,0-7.224-5.4ZM116.4.5a9.912,9.912,0,0,1,1.848-.476,30.244,30.244,0,0,0,10.668-4.2c3.836-2.548,6.5-5.852,8.876-10.976a12.074,12.074,0,0,1-2.968-2.744,23.381,23.381,0,0,1-2.856,5.6,18.707,18.707,0,0,1-8.316,6.86A26.68,26.68,0,0,1,115.36-3.36Zm31.836-19.516a15.6,15.6,0,0,1,.14-2.6H144.62a15.146,15.146,0,0,1,.112,2.576l.028,12.992a21.1,21.1,0,0,0,.084,2.576,3.871,3.871,0,0,0,1.372,2.856c1.092.84,3.024,1.2,6.524,1.2,2.1,0,5.6-.2,7.84-.42,2.016-.2,2.212-.224,2.772-.224l-.168-3.724a16.543,16.543,0,0,1-3.192.672,52.8,52.8,0,0,1-6.5.448c-2.716,0-4.312-.224-4.788-.728-.392-.392-.5-1.008-.5-2.66v-.364a.217.217,0,0,0,.028-.084v-3.612a45.668,45.668,0,0,0,12.516-4.144c1.624-.784,1.624-.784,1.96-.924l-2.24-3.164c-2.128,1.848-7.56,4.032-12.236,4.984Zm15.512-4.844a3.071,3.071,0,0,0-3.08,3.08,3.107,3.107,0,0,0,3.08,3.08,3.071,3.071,0,0,0,3.08-3.08A3.071,3.071,0,0,0,163.744-23.856Zm0,1.484a1.578,1.578,0,0,1,1.6,1.6,1.614,1.614,0,0,1-1.6,1.6,1.614,1.614,0,0,1-1.6-1.6A1.614,1.614,0,0,1,163.744-22.372ZM186.312-2.464c.476-2.52.784-4.508,1.2-7.588a10.078,10.078,0,0,1,.644-3.192l-1.54-1.344a6.246,6.246,0,0,1-2.072.252h-7.084a16.007,16.007,0,0,1-2.576-.168v3.164a17.984,17.984,0,0,1,2.492-.112h6.944c-.28,2.548-.868,6.5-1.344,8.988h-8.26a12.646,12.646,0,0,1-2.576-.168V.56A20.808,20.808,0,0,1,174.72.448h14.532a21.394,21.394,0,0,1,2.576.112V-2.632a12.484,12.484,0,0,1-2.576.168Zm11.676-6.328a30.738,30.738,0,0,1,4.564-.14H217.42a30.738,30.738,0,0,1,4.564.14v-3.892a27.5,27.5,0,0,1-4.536.2H202.524a27.5,27.5,0,0,1-4.536-.2ZM246.708-20.1a7.35,7.35,0,0,1-2.464.336c-6.832.056-6.832.056-7.28.112A13.952,13.952,0,0,0,237.636-21a14.753,14.753,0,0,1,.84-1.568l-3.64-.812a17.07,17.07,0,0,1-1.624,3.892,24.071,24.071,0,0,1-7.028,7.98,8.888,8.888,0,0,1,2.8,2.24,28.968,28.968,0,0,0,6.552-7.532l8.708-.084a26.752,26.752,0,0,1-3.136,6.608,36.446,36.446,0,0,0-5.628-3.752l-2.128,2.492a31.7,31.7,0,0,1,5.74,4A20.325,20.325,0,0,1,234.5-3.64a28.219,28.219,0,0,1-5.46,2.8,8.886,8.886,0,0,1,2.324,2.884C237.328-.7,241.276-4,244.132-8.652a46.963,46.963,0,0,0,3.584-7.7,5.016,5.016,0,0,1,.868-1.876Zm7.28,11.312a30.738,30.738,0,0,1,4.564-.14H273.42a30.738,30.738,0,0,1,4.564.14v-3.892a27.5,27.5,0,0,1-4.536.2H258.524a27.5,27.5,0,0,1-4.536-.2Zm42.2-9.156a6.12,6.12,0,0,1,2.828.84,6.937,6.937,0,0,1,3.444,6.216,7.839,7.839,0,0,1-3.892,7,14.881,14.881,0,0,1-5.572,1.54A8.932,8.932,0,0,1,294.7.924a18.306,18.306,0,0,0,4.4-1.176A10.787,10.787,0,0,0,305.9-10.7c0-6.3-4.368-10.388-11.088-10.388a12.569,12.569,0,0,0-9.632,3.92,12.028,12.028,0,0,0-3.08,8.148c0,4.508,2.3,7.756,5.488,7.756,2.3,0,4.088-1.652,5.684-5.264A40.507,40.507,0,0,0,296.184-17.948Zm-3.416.028a36.9,36.9,0,0,1-2.324,9.464c-1.008,2.408-1.96,3.584-2.884,3.584-1.232,0-2.212-1.82-2.212-4.116a9.375,9.375,0,0,1,3.808-7.56A7.128,7.128,0,0,1,292.768-17.92ZM10.808,29.632V27.756a17.918,17.918,0,0,1,.168-2.884H7.532A18.812,18.812,0,0,1,7.7,27.784v1.848H5.628a24.24,24.24,0,0,1-3.08-.168V32.8a28.858,28.858,0,0,1,3.08-.14H7.7v5.88H4.956a24.65,24.65,0,0,1-3.584-.2v3.416a25.163,25.163,0,0,1,3.584-.2H23.1a25.594,25.594,0,0,1,3.612.2V38.34a24.742,24.742,0,0,1-3.64.2H20.216v-5.88h2.3a30.656,30.656,0,0,1,3.164.14V29.464a24.436,24.436,0,0,1-3.164.168h-2.3V27.84a20.262,20.262,0,0,1,.168-2.94H16.94a15.112,15.112,0,0,1,.168,2.912v1.82Zm0,3.024h6.3v5.88h-6.3ZM9.24,42.12a11.95,11.95,0,0,1-3.248,3.136A19.61,19.61,0,0,1,1.4,47.636a13.068,13.068,0,0,1,2.128,2.6,21.812,21.812,0,0,0,4.088-2.38A20.386,20.386,0,0,0,11.9,43.772Zm17.024,5.768a66.756,66.756,0,0,0-7.784-5.88l-2.24,1.96a42.391,42.391,0,0,1,7.7,6.272Zm9.912-17.864c.252-.616.616-1.708.756-2.1a6.706,6.706,0,0,1,.28-.924,4.425,4.425,0,0,0,.252-.728l-3.192-.784a15.2,15.2,0,0,1-.616,2.6,20.307,20.307,0,0,1-4.732,8.176,8.495,8.495,0,0,1,2.3,2.38,24.739,24.739,0,0,0,3.808-5.88H40.74V37.92H36.4a25.694,25.694,0,0,1-3.36-.168v3.08a29.369,29.369,0,0,1,3.388-.168H40.74V46.6h-7.2a32.829,32.829,0,0,1-3.892-.2V49.6a36.007,36.007,0,0,1,3.976-.2H50.764a32.642,32.642,0,0,1,3.808.2V46.4a30.691,30.691,0,0,1-3.892.2H43.96V40.664H48.8a31.126,31.126,0,0,1,3.444.168v-3.08a29.063,29.063,0,0,1-3.444.168H43.96V32.768h5.908c1.344,0,2.492.056,3.7.168v-3.08c-1.148.112-2.352.168-3.78.168H43.96V27.868a26.107,26.107,0,0,1,.168-3.332H40.544a22.832,22.832,0,0,1,.2,3.36v2.128Zm36.008.028a6.12,6.12,0,0,1,2.828.84,6.937,6.937,0,0,1,3.444,6.216,7.839,7.839,0,0,1-3.892,7,14.88,14.88,0,0,1-5.572,1.54A8.932,8.932,0,0,1,70.7,48.924a18.306,18.306,0,0,0,4.4-1.176A10.787,10.787,0,0,0,81.9,37.3c0-6.3-4.368-10.388-11.088-10.388a12.569,12.569,0,0,0-9.632,3.92,12.028,12.028,0,0,0-3.08,8.148c0,4.508,2.3,7.756,5.488,7.756,2.3,0,4.088-1.652,5.684-5.264A40.507,40.507,0,0,0,72.184,30.052Zm-3.416.028a36.9,36.9,0,0,1-2.324,9.464c-1.008,2.408-1.96,3.584-2.884,3.584-1.232,0-2.212-1.82-2.212-4.116a9.375,9.375,0,0,1,3.808-7.56A7.128,7.128,0,0,1,68.768,30.08Zm32.284-2.548H98.588a20.37,20.37,0,0,1-2.912-.168v2.968a23.712,23.712,0,0,1,3-.14h2.38v2.66H98.168a21.538,21.538,0,0,1-3.108-.168v2.968c.868-.084,1.9-.14,3.08-.14h6.636v2.38H98.448a20.779,20.779,0,0,1-3.052-.14V40.8a25.077,25.077,0,0,1,3-.168h6.384V46.6c0,.56-.2.728-.84.728a25.627,25.627,0,0,1-3.332-.2,7.218,7.218,0,0,1,.672,2.94c1.848.028,1.848.028,2.156.028a7.913,7.913,0,0,0,3.108-.448c.84-.392,1.12-1.064,1.12-2.688V40.636a15.1,15.1,0,0,1,2.716.168V37.752a16.3,16.3,0,0,1-2.716.14v-2.38h.476a18.211,18.211,0,0,1,2.744.14V32.684a20.666,20.666,0,0,1-3.052.168h-3.864v-2.66h3.08a20.313,20.313,0,0,1,2.884.14V27.364a20.643,20.643,0,0,1-2.912.168h-3.052v-.756a14.886,14.886,0,0,1,.14-2.1h-3.22a12.515,12.515,0,0,1,.168,2.1ZM86.24,45.172a25.508,25.508,0,0,1-.168,3.332h2.94V46.152H91.56v1.4h2.856c-.056-.7-.084-1.316-.084-2.8V28.736a21.008,21.008,0,0,1,.084-2.772c-.672.056-1.176.084-2.436.084H88.592a24.258,24.258,0,0,1-2.464-.084,26.249,26.249,0,0,1,.112,2.828Zm2.8-16.464h2.52V34.56H89.04Zm0,8.428h2.52v6.3H89.04Zm13.188,8.12a28.827,28.827,0,0,0-3.668-4.284l-2.24,1.512a18.1,18.1,0,0,1,3.612,4.592Zm24.528-10.108a30.363,30.363,0,0,0,2.352,8.428c1.876,3.92,4.564,6.608,6.636,6.608,1.988,0,2.968-1.764,3.612-6.58a11.573,11.573,0,0,1-2.66-1.82c-.28,3.276-.644,4.7-1.176,4.7-.672,0-2.352-1.988-3.416-4.088a23.487,23.487,0,0,1-2.212-7.5l5.936-.476c.952-.084,1.568-.112,2.072-.112.224,0,.42,0,.812.028l-.084-3.164a21.845,21.845,0,0,1-3.052.392l-5.992.476c-.168-1.708-.28-3.584-.28-5.068a10.54,10.54,0,0,1,.14-2.1l-3.388.056c.056.476.14,1.512.14,2.072.056,2.744.084,3.164.252,5.32l-2.548.2c-.728.056-1.54.084-2.128.084H120.9l.084,3.136a20.753,20.753,0,0,1,2.8-.336Zm-10,11.732a22.334,22.334,0,0,1-.2,3.444h3.444a24.022,24.022,0,0,1-.2-3.388V31.424a46.387,46.387,0,0,0,2.6-5.964l-3.192-1.092a16.693,16.693,0,0,1-1.092,3.668,24.319,24.319,0,0,1-5.628,8.316,11.235,11.235,0,0,1,1.484,3.22,19.466,19.466,0,0,0,2.856-3.5c-.056,1.064-.084,1.792-.084,3.22Zm13.888-20.188a26.823,26.823,0,0,1,2.1,2.156,16.162,16.162,0,0,1,2.044,2.464l2.324-2.128a36.821,36.821,0,0,0-4.284-4.34ZM142.1,43.8a30.136,30.136,0,0,1,6.076,6.384l2.6-2.436a32.728,32.728,0,0,0-6.3-6.16ZM5.32,87.964H4.144a17.8,17.8,0,0,1-2.716-.14V90.9a12.418,12.418,0,0,1,2.464-.168H24.024a13.6,13.6,0,0,1,2.632.168v-3.08a16.539,16.539,0,0,1-2.688.14H22.9V84.212h.168a14.713,14.713,0,0,1,2.744.168V81.244a14.537,14.537,0,0,1-2.744.168H22.9V77.688c1.008.028,1.568.056,2.408.14v-3.08a27.346,27.346,0,0,1-3.556.168H8.54c.392-.616.644-.98.9-1.428a8.89,8.89,0,0,1,.588-1.008l-3.276-.616a6.751,6.751,0,0,1-.56,1.372A16.1,16.1,0,0,1,.98,78.64a12.514,12.514,0,0,1,2.044,2.128,24.864,24.864,0,0,0,2.3-1.96v2.6H4.9a14.362,14.362,0,0,1-2.744-.168V84.38A14.891,14.891,0,0,1,4.9,84.212h.42Zm2.772,0V84.212H10.36v3.752Zm0-6.552V77.688H10.36v3.724Zm4.816-3.724h2.324v3.724H12.908Zm0,6.524h2.324v3.752H12.908Zm4.844-6.524h2.38v3.724h-2.38Zm0,6.524h2.38v3.752h-2.38Zm8.792,12.152a29.63,29.63,0,0,0-3.612-5.376l-2.408,1.2a29.233,29.233,0,0,1,3.36,5.852Zm-7.616.98a33.164,33.164,0,0,0-1.652-5.824l-2.688.616a32.4,32.4,0,0,1,1.316,5.88Zm-6.468.476a41.138,41.138,0,0,0-.756-6.132L8.988,92a43.837,43.837,0,0,1,.42,5.236c0,.28,0,.476-.028.868Zm-8.68.392a18.086,18.086,0,0,0,3.584-5.88L4.816,91.044a13.086,13.086,0,0,1-3.5,5.236Zm48.888-12.18a5.784,5.784,0,0,1,.784.056,27.881,27.881,0,0,1-.112-3.052V76.512c0-1.792.028-2.436.084-3.108a15.192,15.192,0,0,1-2.6.14H42.812a14.34,14.34,0,0,1-2.688-.14c.084,1.064.112,1.736.112,3V93.648c-.14,1.176-.336,1.512-1.176,1.96l.924,2.688c2.94-.7,4.676-1.2,7.672-2.184l.112-2.884a33.256,33.256,0,0,1-4.648,1.428V86h2.016a18.52,18.52,0,0,0,2.548,6.5,17.6,17.6,0,0,0,6.076,5.8,10.612,10.612,0,0,1,1.764-2.856,13.015,13.015,0,0,1-5.1-4c1.176-.812,2.968-2.212,3.724-2.884a4.39,4.39,0,0,1,.784-.588ZM51.184,86c.392,0,.812,0,1.372.028a20.266,20.266,0,0,1-3.5,3.052A14.057,14.057,0,0,1,48.048,86ZM43.12,76.232h7.364V78.5H43.12Zm0,4.732h7.364v2.492H43.12ZM30.3,95.048a25.085,25.085,0,0,1-.168,3.22h3.248c-.084-1.008-.14-2.044-.14-3.22V76.008h3.248a33.18,33.18,0,0,1-2.6,6.3,10.6,10.6,0,0,1,1.96,2.856,7.631,7.631,0,0,1,.616,2.884c0,.924-.364,1.232-1.428,1.232a6.582,6.582,0,0,1-1.26-.112,6.947,6.947,0,0,1,.588,2.94,9.5,9.5,0,0,0,3.08-.308c1.372-.448,1.988-1.484,1.988-3.332a9.78,9.78,0,0,0-.448-2.828,11.172,11.172,0,0,0-1.988-3.584,45.211,45.211,0,0,0,2.156-4.788c.644-1.624.672-1.736.868-2.128l-1.6-1.96a7.682,7.682,0,0,1-2.044.14H32.256a17.6,17.6,0,0,1-2.044-.084c.056,1.288.084,1.68.084,2.576Zm41.888-17a6.12,6.12,0,0,1,2.828.84,6.937,6.937,0,0,1,3.444,6.216,7.839,7.839,0,0,1-3.892,7,14.881,14.881,0,0,1-5.572,1.54A8.932,8.932,0,0,1,70.7,96.924a18.306,18.306,0,0,0,4.4-1.176A10.787,10.787,0,0,0,81.9,85.3c0-6.3-4.368-10.388-11.088-10.388a12.569,12.569,0,0,0-9.632,3.92,12.028,12.028,0,0,0-3.08,8.148c0,4.508,2.3,7.756,5.488,7.756,2.3,0,4.088-1.652,5.684-5.264A40.507,40.507,0,0,0,72.184,78.052Zm-3.416.028a36.9,36.9,0,0,1-2.324,9.464c-1.008,2.408-1.96,3.584-2.884,3.584-1.232,0-2.212-1.82-2.212-4.116a9.375,9.375,0,0,1,3.808-7.56A7.128,7.128,0,0,1,68.768,78.08Zm38.892-1.624a29.261,29.261,0,0,1,3.136.168V73.46a31.855,31.855,0,0,1-3.444.168H89.012a29.714,29.714,0,0,1-3.388-.168v3.164a33.783,33.783,0,0,1,3.444-.168h15.456V94.348c0,.728-.224.868-1.288.868a36.551,36.551,0,0,1-4.172-.308,10.789,10.789,0,0,1,.784,3.108c1.372.056,2.156.084,3.08.084,4,0,4.732-.476,4.732-3.108Zm-6.972,5.292a13.676,13.676,0,0,1,.14-2.38,24.448,24.448,0,0,1-2.688.112H91.084a22.211,22.211,0,0,1-2.6-.112,17.15,17.15,0,0,1,.14,2.576v8.82a19.7,19.7,0,0,1-.168,2.52h3.22V90.96h6.58c.112,0,.364,0,.728.028h.728c.5.028.616.028,1.092.084a18.908,18.908,0,0,1-.112-2.268Zm-9.044.448h6.048v6.048H91.644Zm26.012-9.94a16.284,16.284,0,0,1-2.324,4.452,2.791,2.791,0,0,1-1.708,1.008l.644,2.828c3-.252,6.412-.588,9.352-.952q.42.8.756,1.512l2.52-1.484a38.441,38.441,0,0,0-3.808-5.74l-2.3,1.092c.56.784.672.924,1.148,1.68a3.333,3.333,0,0,0,.28.476c-1.4.14-1.428.14-3.136.28-.364.028-.364.028-.924.056a16.731,16.731,0,0,0,1.008-1.6c.7-1.26.7-1.26.9-1.568.308-.56.308-.56.392-.7a3.822,3.822,0,0,1,.42-.756ZM130.06,79a37.371,37.371,0,0,0,6.468-2.464c1.372-.672,1.372-.672,1.96-.924l-2.072-2.576A14.061,14.061,0,0,1,133.168,75a17.839,17.839,0,0,1-3.108,1.176V74.888a11.933,11.933,0,0,1,.14-2.268h-3.22a14.032,14.032,0,0,1,.14,2.408V82c0,1.008.308,1.568,1.092,1.848.728.308,1.54.392,3.836.392,3.724,0,4.732-.168,5.46-.868.644-.644.9-1.6,1.12-4.228a10.438,10.438,0,0,1-2.8-.868c-.084,2.1-.168,2.66-.476,2.94-.364.308-.98.364-3.3.364-1.736,0-1.988-.112-1.988-.812Zm0,12.488c1.708-.476,3.024-.868,3.948-1.232.84-.28,3.836-1.624,4.648-2.072l-2.128-2.464a18.717,18.717,0,0,1-6.468,3.024v-.924a11.531,11.531,0,0,1,.14-2.324h-3.22a13.741,13.741,0,0,1,.14,2.492v7.364a1.817,1.817,0,0,0,.868,1.82c.728.448,1.6.56,4.368.56,3.528,0,4.508-.2,5.264-1.036.728-.812,1.036-1.876,1.232-4.508A11.417,11.417,0,0,1,136,91.24a8.292,8.292,0,0,1-.448,3.22c-.252.42-.924.56-2.8.56a8.273,8.273,0,0,1-1.988-.14c-.532-.112-.7-.28-.7-.756Zm-15.372,3.752a23.506,23.506,0,0,1-.14,3.052h3.192a24.448,24.448,0,0,1-.14-3.108V92.416h4.7V94.74c-.056.42-.168.5-.728.5a9.946,9.946,0,0,1-1.9-.2,11.4,11.4,0,0,1,.616,2.856c.5.028.924.028,1.176.028a5.611,5.611,0,0,0,2.94-.532c.56-.336.784-.98.784-2.184V84.072c0-1.372.028-1.848.084-2.632a20.383,20.383,0,0,1-2.52.112h-6.16a19.873,19.873,0,0,1-2.016-.084,24.6,24.6,0,0,1,.112,2.576ZM117.572,84.1H122.3v1.736h-4.732Zm0,4.144H122.3V89.98h-4.732Zm33.432.5a23.207,23.207,0,0,1,3.108-.168h2.52v5.936H152.18a25.323,25.323,0,0,1-3.3-.168v3.164a22.777,22.777,0,0,1,3.3-.2h11.256a22.626,22.626,0,0,1,3.276.2V94.348a25.141,25.141,0,0,1-3.276.168h-3.808V88.58H162.4a20.928,20.928,0,0,1,3.052.168V85.724a21.052,21.052,0,0,1-3.024.14h-2.8v-4.9h3.3a25.705,25.705,0,0,1,3.052.168V78.024a19.823,19.823,0,0,1-3.08.168h-3.276v-2.8a18.592,18.592,0,0,1,.2-2.968h-3.388a18.828,18.828,0,0,1,.2,2.968v2.8h-2.38c.084-.42.336-1.9.42-2.408a7.079,7.079,0,0,1,.2-1.008l-3-.56a23.628,23.628,0,0,1-1.2,6.468,22.948,22.948,0,0,0-1.288-3.556l-1.876.9a16,16,0,0,1,1.288,4.172l1.624-.784a12.514,12.514,0,0,1-1.484,2.8,16.251,16.251,0,0,1,2.52,1.568c-.14-.028-.224-.028-.448-.056Zm5.628-7.784v4.9h-2.94c-.9,0-1.512-.028-2.128-.084a21.594,21.594,0,0,0,2.016-4.816ZM142.94,86a35.043,35.043,0,0,0,1.036-7.84l-2.268-.28a25.131,25.131,0,0,1-1.008,7.28Zm4.676,12.32a27.177,27.177,0,0,1-.168-3.3V75.308a22.688,22.688,0,0,1,.168-2.968h-3.36a18.592,18.592,0,0,1,.2,2.968V94.8a26.735,26.735,0,0,1-.2,3.528Zm27.776-1.652c-.028-.364-.028-.588-.028-.756,0-1.988.952-5.236,2.492-8.484l-2.24-1.008a28.557,28.557,0,0,0-1.456,3.7c.028-.7.056-.924.056-1.54a46.75,46.75,0,0,1,.42-6.188A38.6,38.6,0,0,1,176.4,74.02l-3.7-.392a18.321,18.321,0,0,1-.42,2.6,53.754,53.754,0,0,0-1.148,10.948,48.839,48.839,0,0,0,.728,8.372c.084.644.112.812.14,1.316ZM179.256,79.9a33.238,33.238,0,0,0,5.04.308,50.154,50.154,0,0,0,5.992-.336c1.344-.168,1.764-.224,1.988-.252l-.168-3.388a30.876,30.876,0,0,1-7.616.756,20.189,20.189,0,0,1-5.18-.448Zm1.932,4.62c-1.736,2.072-2.576,3.948-2.576,5.768a4.69,4.69,0,0,0,.84,2.744c1.232,1.652,3.472,2.436,6.944,2.436a34.528,34.528,0,0,0,5.8-.532,9.358,9.358,0,0,1,1.148-.168l-.28-3.556a19.677,19.677,0,0,1-6.664,1.064c-2.912,0-4.452-.84-4.452-2.436,0-1.2.588-2.408,1.988-4.032Zm39.228-5.684a5.539,5.539,0,0,1-1.708.14h-7.224A4.817,4.817,0,0,0,213,78.164a4.216,4.216,0,0,0,1.568-3.248h2.072v1.848c0,.672.056.924.308,1.148a3.265,3.265,0,0,0,1.848.476h3.3l.588-2.128c-.756.028-.84.028-1.764.056-.56.028-.924.056-1.064.056h-.084c-.336,0-.532-.084-.616-.224-.056-.112-.056-.112-.056-.84v-.924a10.756,10.756,0,0,1,.084-1.708,13.186,13.186,0,0,1-2.044.084h-2.968a10.841,10.841,0,0,1-1.96-.084,2.006,2.006,0,0,1,.056.616c0,2.212-.588,3.108-2.436,3.7a5.21,5.21,0,0,1,1.6,1.96,4.831,4.831,0,0,1-1.008-.084v2.212a8.534,8.534,0,0,1,.9-.056,12.058,12.058,0,0,0,2.492,2.828,18.04,18.04,0,0,1-3.36.756,5.632,5.632,0,0,1,1.176,2.184,28.031,28.031,0,0,0,4.368-1.372,24.06,24.06,0,0,0,6.1,2.3,7.6,7.6,0,0,1,1.176-2.52,19.659,19.659,0,0,1-4.844-1.2,16.4,16.4,0,0,0,2.856-2.884c.252-.308.308-.364.532-.616Zm-2.044,2.156a6.953,6.953,0,0,1-2.184,1.792,11.648,11.648,0,0,1-1.932-1.792Zm-18.144-7.336a13.066,13.066,0,0,1-2.66-.14V75.7a25.473,25.473,0,0,1,2.66-.14H202.8v.784H200.62a12.23,12.23,0,0,1-2.128-.112,15.838,15.838,0,0,1,.084,1.9v2.436a15.955,15.955,0,0,1-.084,1.96c.42-.056,1.568-.084,2.156-.084H202.8v.784H200.06a12.467,12.467,0,0,1-2.632-.14V85.3a25.65,25.65,0,0,1,2.6-.14H202.8a8.525,8.525,0,0,1-.112,1.4h2.716a8.6,8.6,0,0,1-.084-1.4h2.38c.924,0,2.044.056,2.66.112V83.092a13.427,13.427,0,0,1-2.66.14h-2.38v-.784h2.184c.7,0,1.764.028,2.184.056a15.069,15.069,0,0,1-.056-1.82V78.052a9.731,9.731,0,0,1,.084-1.792,18.055,18.055,0,0,1-2.212.084h-2.184V75.56h2.408a21.264,21.264,0,0,1,2.688.112V73.516a14.53,14.53,0,0,1-2.688.14h-2.408a5.055,5.055,0,0,1,.14-1.26h-2.8a7.858,7.858,0,0,1,.14,1.26Zm2.66,4.984h-1.932v-.784h1.932Zm2.38,0v-.784h2.016v.784Zm-2.38,2.3h-1.932v-.868h1.932Zm2.38,0v-.868h2.016v.868Zm-6.216,12.656c1.96-.14,2.016-.14,3.388-.168,4.4-.084,4.4-.084,6.356-.14v1.932c0,.308-.532.532-1.232.532a13.22,13.22,0,0,1-1.988-.2,7.289,7.289,0,0,1,.784,2.66c1.036.056,1.568.084,1.624.084a8.989,8.989,0,0,0,2.632-.392,2.172,2.172,0,0,0,1.288-2.156v-2.6c1.876-.056,5.768-.224,7.448-.336a13.125,13.125,0,0,1,1.2,1.316l2.184-1.512a19.1,19.1,0,0,0-3.948-3.556,8.678,8.678,0,0,1-.728-.532l-1.988,1.288c.644.448.812.588,1.428,1.064-1.092.112-4.34.28-9.576.476a72.028,72.028,0,0,0,8.176-2.94l-2.156-1.6a20.994,20.994,0,0,1-2.772,1.456c-2.128.056-4.284.112-4.984.112a22.073,22.073,0,0,0,4.06-1.4l-2.016-1.54a23.157,23.157,0,0,1-7.672,2.688l.42,1.9c1.82-.084,1.82-.084,3.136-.14,1.176-.028,2.268-.056,3.248-.112a38.774,38.774,0,0,1-3.948,1.092,36.991,36.991,0,0,1-4.844.616Zm4.844-.056c-.224.112-.532.308-1.008.588a10.429,10.429,0,0,1-1.708.812,26.679,26.679,0,0,1-3.7,1.036,7.329,7.329,0,0,1,1.372,1.428c.336.476.336.476.5.728a23.637,23.637,0,0,0,6.832-3.108Zm9.66,1.736a61.132,61.132,0,0,1,7.112,2.828l1.652-2.268a50.393,50.393,0,0,0-6.832-2.352Zm26.964-22.6A12.836,12.836,0,0,1,238.476,75a66.228,66.228,0,0,1-6.468,5.488,18.689,18.689,0,0,0-2.464,1.988,3.337,3.337,0,0,0-.924,2.3c0,1.288.5,2.016,2.352,3.472A90.278,90.278,0,0,1,238.2,94.18a25.459,25.459,0,0,1,3.64,3.864l2.884-2.94a6.982,6.982,0,0,1-.812-.7,89.866,89.866,0,0,0-8.82-7.28c-2.464-1.876-2.52-1.9-2.52-2.324,0-.308.2-.56,1.064-1.2,3.276-2.464,5.236-4.06,6.664-5.376,2.436-2.24,2.968-2.716,3.444-3.08Zm-.252,6.832a17.081,17.081,0,0,1,2.6,3.724l2.1-1.2a14.337,14.337,0,0,0-2.632-3.668Zm7.672.756a14.7,14.7,0,0,0-2.576-3.5l-2.016,1.092a19.339,19.339,0,0,1,2.548,3.612Z" transform="translate(2521 -391)"/>
  </g>
</svg>
