<svg xmlns="http://www.w3.org/2000/svg" xmlns:xlink="http://www.w3.org/1999/xlink" width="690" height="333.626" viewBox="0 0 690 333.626">
  <defs>
    <clipPath id="clip-path">
      <rect id="矩形_2284" data-name="矩形 2284" width="690" height="333.626" transform="translate(2483 -924)" fill="#fff"/>
    </clipPath>
  </defs>
  <g id="小屏-banner" transform="translate(-2483 530)">
    <g id="组_21814" data-name="组 21814" transform="translate(2568.72 -510.383)">
      <g id="组_21806" data-name="组 21806" transform="translate(281.423 65.383)">
        <rect id="矩形_2362" data-name="矩形 2362" width="21.226" height="21.506" rx="6.75" transform="translate(0 48.328)" fill="none" stroke="#0080f4" stroke-miterlimit="10" stroke-width="1"/>
        <rect id="矩形_2364" data-name="矩形 2364" width="15.297" height="15.594" rx="6.75" transform="translate(5.09 93.213)" fill="none" stroke="#0080f4" stroke-miterlimit="10" stroke-width="1"/>
        <rect id="矩形_2365" data-name="矩形 2365" width="12.512" height="12.755" rx="5.568" transform="translate(41.073 120.896)" fill="none" stroke="#0080f4" stroke-miterlimit="10" stroke-width="1"/>
        <rect id="矩形_2366" data-name="矩形 2366" width="12.512" height="12.755" rx="5.568" transform="translate(181.521 120.896)" fill="none" stroke="#ef54a1" stroke-miterlimit="10" stroke-width="1"/>
        <g id="left" transform="translate(10.633 2.118)">
          <path id="line_1" d="M83.38,43.043s-9.927,9.337-12.765,19.93" transform="translate(-55.025 -29.355)" fill="none" stroke="#0080f4" stroke-linecap="round" stroke-miterlimit="10" stroke-width="1"/>
          <path id="line_2" d="M73.425,32.981S61.633,43.734,58.6,56.725" transform="translate(-47.562 -23.108)" fill="none" stroke="#0080f4" stroke-linecap="round" stroke-miterlimit="10" stroke-width="1"/>
          <path id="line_3" d="M63.025,19.274S47.475,33.3,43.518,48.535" transform="translate(-38.201 -14.597)" fill="none" stroke="#0080f4" stroke-linecap="round" stroke-miterlimit="10" stroke-width="1"/>
          <path id="line4" d="M52.359,6.938S36.529,18.171,29.494,41.2" transform="translate(-29.494 -6.938)" fill="none" stroke="#0080f4" stroke-linecap="round" stroke-miterlimit="10" stroke-width="1"/>
        </g>
        <g id="right" transform="translate(196.288 0.916)">
          <path id="line_01" d="M519.192,36.531s8.241,11.024,9.2,21.948" transform="translate(-519.192 -24.11)" fill="none" stroke="#ef54a1" stroke-linecap="round" stroke-miterlimit="10" stroke-width="1"/>
          <path id="line_02" d="M527.61,28.052s9.756,12.63,10.5,25.951" transform="translate(-524.419 -18.845)" fill="none" stroke="#ef54a1" stroke-linecap="round" stroke-miterlimit="10" stroke-width="1"/>
          <path id="line_03" d="M532.68,15.025s12.89,16.508,14.154,32.193" transform="translate(-527.566 -10.757)" fill="none" stroke="#ef54a1" stroke-linecap="round" stroke-miterlimit="10" stroke-width="1"/>
          <path id="line_04" d="M539.9,3.768s13.649,13.8,16.6,37.695" transform="translate(-532.05 -3.768)" fill="none" stroke="#ef54a1" stroke-linecap="round" stroke-miterlimit="10" stroke-width="1"/>
        </g>
        <path id="路径_38534" data-name="路径 38534" d="M171.672,16.741s-2.958-9.314-19.387-12.831H136.136l-17.948.72S86.528,10.945,78.154,41.964v72.7s-.06,3.171,3.618,3.211,25.144,0,25.144,0a2.046,2.046,0,0,1,2.228,2.228v33.681s-.17,2.305,2.009,2.305H224.344V123.217a6.209,6.209,0,0,1,6.209-6.209h15.283a4.544,4.544,0,0,0,4.543-4.544v-9.021a10.253,10.253,0,0,1,1.4-3.078c.959-1.319,2.638-2.278,0-4.877.519-.56,2.079-1.159,2.358-3.158V87.414l7.435-4.118s1.959-2.039,0-5.556L248.782,60.352s-1.719-1.4-.16-4.4l4.357-7.275-6.836-21.746s-4.1-15.243-28.408-23.025-53.3,3.837-62.466,12.9a49.157,49.157,0,0,0-10.591,15.338" transform="translate(-49.073 -1.352)" fill="none" stroke="#000" stroke-linecap="round" stroke-miterlimit="10" stroke-width="1"/>
        <path id="路径_38535" data-name="路径 38535" d="M157.074,12.615H183.9L187.774,8.1" transform="translate(-98.073 -5.54)" fill="none" stroke="#000" stroke-linecap="round" stroke-miterlimit="10" stroke-width="1"/>
        <path id="路径_38536" data-name="路径 38536" d="M215.191,15.057H195.977l-3.944,4.983H176.044l-3.837,4.9H167.2v4.164" transform="translate(-104.358 -9.861)" fill="none" stroke="#000" stroke-linecap="round" stroke-miterlimit="10" stroke-width="1"/>
        <path id="路径_38537" data-name="路径 38537" d="M134.159,32.348V42.5l2.612,2.239v5.037" transform="translate(-83.845 -20.597)" fill="none" stroke="#000" stroke-linecap="round" stroke-miterlimit="10" stroke-width="1"/>
        <path id="路径_38538" data-name="路径 38538" d="M128.465,36.566v9.993l2.478,2.265v4.983" transform="translate(-80.31 -23.215)" fill="none" stroke="#000" stroke-linecap="round" stroke-miterlimit="10" stroke-width="1"/>
        <path id="路径_38539" data-name="路径 38539" d="M122.631,41.205v9.807l2.665,2.345v4.823" transform="translate(-76.688 -26.096)" fill="none" stroke="#000" stroke-linecap="round" stroke-miterlimit="10" stroke-width="1"/>
        <path id="路径_38540" data-name="路径 38540" d="M117.008,45.985v9.62l2.532,2.185v5.063" transform="translate(-73.197 -29.064)" fill="none" stroke="#000" stroke-linecap="round" stroke-miterlimit="10" stroke-width="1"/>
        <circle id="椭圆_1854" data-name="椭圆 1854" cx="1.979" cy="1.979" r="1.979" transform="translate(52.002 12.907)"/>
        <circle id="椭圆_1855" data-name="椭圆 1855" cx="2.906" cy="2.906" r="2.906" transform="translate(178.015 15.549)"/>
        <circle id="椭圆_1856" data-name="椭圆 1856" cx="3.558" cy="3.558" r="3.558" transform="translate(163.812 21.105)"/>
        <circle id="椭圆_1857" data-name="椭圆 1857" cx="3.323" cy="3.323" r="3.323" transform="translate(155.733 12.706)"/>
        <circle id="椭圆_1858" data-name="椭圆 1858" cx="2.58" cy="2.58" r="2.58" transform="translate(155.829 30.371)"/>
        <circle id="椭圆_1859" data-name="椭圆 1859" cx="2.373" cy="2.373" r="2.373" transform="translate(164.259 37.122)"/>
        <circle id="椭圆_1860" data-name="椭圆 1860" cx="2.091" cy="2.091" r="2.091" transform="translate(147.73 23.716)"/>
        <circle id="椭圆_1861" data-name="椭圆 1861" cx="2.373" cy="2.373" r="2.373" transform="translate(147.008 39.253)"/>
        <circle id="椭圆_1862" data-name="椭圆 1862" cx="2.419" cy="2.419" r="2.419" transform="translate(38.504 26.701)"/>
        <circle id="椭圆_1863" data-name="椭圆 1863" cx="1.611" cy="1.611" r="1.611" transform="translate(37.756 55.141)"/>
        <circle id="椭圆_1864" data-name="椭圆 1864" cx="1.641" cy="1.641" r="1.641" transform="translate(36.141 62.773)"/>
        <circle id="椭圆_1865" data-name="椭圆 1865" cx="1.641" cy="1.641" r="1.641" transform="translate(71.877 58.292)"/>
        <circle id="椭圆_1866" data-name="椭圆 1866" cx="1.595" cy="1.595" r="1.595" transform="translate(48.681 95.961)"/>
        <circle id="椭圆_1867" data-name="椭圆 1867" cx="1.595" cy="1.595" r="1.595" transform="translate(30.704 84.981)"/>
        <path id="路径_38541" data-name="路径 38541" d="M84.184,60.979h23.237l8.528-14.993h32.619v-3.3h60.6" transform="translate(-52.817 -27.012)" fill="none" stroke="#000" stroke-linecap="round" stroke-miterlimit="10" stroke-width="1"/>
        <path id="路径_38542" data-name="路径 38542" d="M148.428,44.052l2.945,2.172v8.088" transform="translate(-92.705 -27.863)" fill="none" stroke="#000" stroke-linecap="round" stroke-miterlimit="10" stroke-width="1"/>
        <path id="路径_38543" data-name="路径 38543" d="M247.893,33.122H225.161L221.11,39.89" transform="translate(-137.832 -21.077)" fill="none" stroke="#000" stroke-linecap="round" stroke-miterlimit="10" stroke-width="1"/>
        <path id="路径_38544" data-name="路径 38544" d="M249.435,36.531H229.321l-3.238,5.39" transform="translate(-140.919 -23.194)" fill="none" stroke="#000" stroke-linecap="round" stroke-miterlimit="10" stroke-width="1"/>
        <path id="路径_38545" data-name="路径 38545" d="M191.961,32.489l-2.8,3.744h5.383Z" transform="translate(-117.996 -20.684)"/>
        <path id="路径_38546" data-name="路径 38546" d="M79,249.062h33.8l8.579,6.918a1.074,1.074,0,0,0,.673.237h79.9a.853.853,0,0,0,.853-.853V243.533l-7.088-3.3v-15.35" transform="translate(-49.596 -140.134)" fill="none" stroke="#000" stroke-linecap="round" stroke-miterlimit="10" stroke-width="1"/>
        <path id="路径_38547" data-name="路径 38547" d="M79.364,105.03h9.927v3.784s-4.963,3.877-4.963,8.395v23.944L79,147.789" transform="translate(-49.596 -65.723)" fill="none" stroke="#000" stroke-linecap="round" stroke-miterlimit="10" stroke-width="1"/>
        <line id="直线_54" data-name="直线 54" x1="9.973" transform="translate(29.401 41.652)" fill="none" stroke="#000" stroke-linecap="round" stroke-miterlimit="10" stroke-width="1"/>
        <path id="路径_38548" data-name="路径 38548" d="M97.919,174.268v13.351l-2,2.119v4.837l1.559,1.119v13.191" transform="translate(-60.104 -108.712)" fill="none" stroke="#000" stroke-linecap="round" stroke-miterlimit="10" stroke-width="1"/>
        <path id="路径_38549" data-name="路径 38549" d="M86.642,210.31v17.148H96.2l3-3.957V196.2h2.079s2.718,3.4,11.193,2.878v17.888a3.1,3.1,0,0,1-3.1,3.1H105.71" transform="translate(-54.343 -122.328)" fill="none" stroke="#000" stroke-linecap="round" stroke-miterlimit="10" stroke-width="1"/>
        <path id="路径_38550" data-name="路径 38550" d="M91.843,206.733v12.179h5.943l2.265-3.091V186.639h3.624" transform="translate(-57.572 -116.393)" fill="none" stroke="#000" stroke-linecap="round" stroke-miterlimit="10" stroke-width="1"/>
        <path id="路径_38551" data-name="路径 38551" d="M120.575,201.647l5.323,5.27h3.578l1.939,2.2" transform="translate(-75.412 -125.711)" fill="none" stroke="#000" stroke-linecap="round" stroke-miterlimit="10" stroke-width="1"/>
        <path id="路径_38552" data-name="路径 38552" d="M120.7,208.852l5.217,5.3h3.877l1.7,2.179" transform="translate(-75.488 -130.184)" fill="none" stroke="#000" stroke-linecap="round" stroke-miterlimit="10" stroke-width="1"/>
        <path id="路径_38553" data-name="路径 38553" d="M120.7,216.812l5.177,5.177h3.877l1.739,2.219" transform="translate(-75.488 -135.127)" fill="none" stroke="#000" stroke-linecap="round" stroke-miterlimit="10" stroke-width="1"/>
        <path id="路径_38554" data-name="路径 38554" d="M120.7,223.982l5.177,5.217h3.9l1.719,2.259" transform="translate(-75.488 -139.578)" fill="none" stroke="#000" stroke-linecap="round" stroke-miterlimit="10" stroke-width="1"/>
        <path id="路径_38555" data-name="路径 38555" d="M141.944,270.058h13.911l9.134,7.355h29.354" transform="translate(-88.679 -168.186)" fill="none" stroke="#000" stroke-linecap="round" stroke-miterlimit="10" stroke-width="1"/>
        <path id="路径_38556" data-name="路径 38556" d="M138.265,275.91h13.766l8.688,7.249h30.7" transform="translate(-86.395 -171.819)" fill="none" stroke="#000" stroke-linecap="round" stroke-miterlimit="10" stroke-width="1"/>
        <path id="路径_38557" data-name="路径 38557" d="M134.932,281.674h13.8l8.848,7.249H189.03" transform="translate(-84.326 -175.398)" fill="none" stroke="#000" stroke-linecap="round" stroke-miterlimit="10" stroke-width="1"/>
        <path id="路径_38558" data-name="路径 38558" d="M210.107,232.153v9.574l-2.159,2.2.159,9.594" transform="translate(-129.66 -144.652)" fill="none" stroke="#000" stroke-linecap="round" stroke-miterlimit="10" stroke-width="1"/>
        <path id="路径_38559" data-name="路径 38559" d="M235.112,231.732v7.022l-2.052,2.412v12.092" transform="translate(-145.251 -144.39)" fill="none" stroke="#000" stroke-linecap="round" stroke-miterlimit="10" stroke-width="1"/>
        <path id="路径_38560" data-name="路径 38560" d="M241.347,231.732v7.895l-2.052,2.039v11.592" transform="translate(-149.122 -144.39)" fill="none" stroke="#000" stroke-linecap="round" stroke-miterlimit="10" stroke-width="1"/>
        <path id="路径_38561" data-name="路径 38561" d="M167.832,324.827v19.107l-2.918,3.278h-3.8" transform="translate(-100.582 -202.191)" fill="none" stroke="#000" stroke-linecap="round" stroke-miterlimit="10" stroke-width="1"/>
        <path id="路径_38562" data-name="路径 38562" d="M170.537,345.921l.107,12.9-4.557,3.491h-4.97" transform="translate(-100.582 -215.287)" fill="none" stroke="#000" stroke-linecap="round" stroke-miterlimit="10" stroke-width="1"/>
        <line id="直线_55" data-name="直线 55" x2="48.843" transform="translate(60.534 150.9)" fill="none" stroke="#000" stroke-linecap="round" stroke-miterlimit="10" stroke-width="1"/>
        <path id="路径_38563" data-name="路径 38563" d="M217.877,308.526v8.155l1.439,1.759v24.3" transform="translate(-135.824 -192.07)" fill="none" stroke="#000" stroke-linecap="round" stroke-miterlimit="10" stroke-width="1"/>
        <path id="路径_38564" data-name="路径 38564" d="M224.063,308.526v7.035l2.132,2.292v24.89" transform="translate(-139.665 -192.07)" fill="none" stroke="#000" stroke-linecap="round" stroke-miterlimit="10" stroke-width="1"/>
        <line id="直线_56" data-name="直线 56" y1="23.664" transform="translate(74.111 125.517)" fill="none" stroke="#000" stroke-linecap="round" stroke-miterlimit="10" stroke-width="1"/>
        <line id="直线_57" data-name="直线 57" y1="16.416" transform="translate(76.776 132.925)" fill="none" stroke="#000" stroke-linecap="round" stroke-miterlimit="10" stroke-width="1"/>
        <line id="直线_58" data-name="直线 58" y2="34.218" transform="translate(100.414 116.456)" fill="none" stroke="#000" stroke-linecap="round" stroke-miterlimit="10" stroke-width="1"/>
        <path id="路径_38565" data-name="路径 38565" d="M322.963,217.881h10.82l5.516-8.927h27.3V172.5l-13.631-7.355V147.154l14.311-39.734" transform="translate(-201.07 -67.207)" fill="none" stroke="#000" stroke-linecap="round" stroke-miterlimit="10" stroke-width="1"/>
        <path id="路径_38566" data-name="路径 38566" d="M160.343,69.782l5.317-10.633h54.2l3.837-4.237h27.822l4.357,4.2h8.514" transform="translate(-100.102 -34.606)" fill="none" stroke="#000" stroke-linecap="round" stroke-miterlimit="10" stroke-width="1"/>
        <path id="路径_38567" data-name="路径 38567" d="M169.9,76.879l1.239,1.892,2.652-6.356h13.871" transform="translate(-106.038 -45.473)" fill="none" stroke="#000" stroke-linecap="round" stroke-miterlimit="10" stroke-width="1"/>
        <path id="路径_38568" data-name="路径 38568" d="M192.2,81.282h-6.729l-.728,1.362a.348.348,0,0,1-.307.184h-2.382a.143.143,0,0,1-.134-.193l1.451-3.836a.2.2,0,0,1,.185-.128h8.231a.56.56,0,0,1,.56.56v1.905A.147.147,0,0,1,192.2,81.282Z" transform="translate(-113.496 -49.358)" fill="none" stroke="#000" stroke-linecap="round" stroke-miterlimit="10" stroke-width="1"/>
        <path id="路径_38569" data-name="路径 38569" d="M263.039,81.941h22.9L297.817,68.83h14.95" transform="translate(-163.865 -43.247)" fill="none" stroke="#000" stroke-linecap="round" stroke-miterlimit="10" stroke-width="1"/>
        <path id="路径_38570" data-name="路径 38570" d="M263.039,111.638h22.505l3.278,5.916h8.794" transform="translate(-163.865 -69.826)" fill="none" stroke="#000" stroke-linecap="round" stroke-miterlimit="10" stroke-width="1"/>
        <path id="路径_38571" data-name="路径 38571" d="M155.739,205.759h2.318l8.528,9.54h30.007" transform="translate(-97.244 -128.264)" fill="none" stroke="#000" stroke-linecap="round" stroke-miterlimit="10" stroke-width="1"/>
        <path id="路径_38572" data-name="路径 38572" d="M164.771,196.515l9.214,10.413h26.822" transform="translate(-102.852 -122.525)" fill="none" stroke="#000" stroke-linecap="round" stroke-miterlimit="10" stroke-width="1"/>
        <path id="路径_38573" data-name="路径 38573" d="M119.592,134.833a13.392,13.392,0,1,0-1.335-4.054" transform="translate(-73.869 -72.052)" fill="none" stroke="#000" stroke-linecap="round" stroke-miterlimit="10" stroke-width="1"/>
        <path id="路径_38574" data-name="路径 38574" d="M142.582,127.509a20.318,20.318,0,0,0-11.324-26.744.2.2,0,0,0-.249.1l-.575,1.337a.191.191,0,0,1-.243.1,18.123,18.123,0,1,0,9.771,25.318h12.994l2.418,3.964h2.818" transform="translate(-66.203 -63.067)" fill="none" stroke="#000" stroke-linecap="round" stroke-miterlimit="10" stroke-width="1"/>
        <path id="路径_38575" data-name="路径 38575" d="M178.757,128.817a16.278,16.278,0,0,0,.465-3.873,14.8,14.8,0,0,0-6.38-12.605l.813-1.506a6.778,6.778,0,0,0-3.144-1.585c-.373.533-1.732,3.278-1.732,3.278" transform="translate(-105.34 -68.342)" fill="none" stroke="#000" stroke-linecap="round" stroke-miterlimit="10" stroke-width="1"/>
        <circle id="椭圆_1868" data-name="椭圆 1868" cx="10.662" cy="10.662" r="10.662" transform="translate(46.99 45.94)" fill="none" stroke="#0080f4" stroke-linecap="round" stroke-miterlimit="10" stroke-width="1"/>
        <path id="路径_38576" data-name="路径 38576" d="M143.262,133.238v12.89a.04.04,0,0,0,.059.035l11.187-6.25a.109.109,0,0,0,0-.189l-11.2-6.513A.031.031,0,0,0,143.262,133.238Z" transform="translate(-89.497 -83.218)" fill="none" stroke="#0c111a" stroke-linecap="round" stroke-miterlimit="10" stroke-width="1"/>
        <path id="路径_38577" data-name="路径 38577" d="M146.77,139.756v7.966a.024.024,0,0,0,.036.021l6.914-3.862a.067.067,0,0,0,0-.117L146.8,139.74A.019.019,0,0,0,146.77,139.756Z" transform="translate(-91.675 -87.272)" fill="none" stroke="#0080f4" stroke-linecap="round" stroke-miterlimit="10" stroke-width="1"/>
        <line id="直线_59" data-name="直线 59" y1="0.433" x2="12.823" transform="translate(35.037 60.826)" fill="none" stroke="#0080f4" stroke-linecap="round" stroke-miterlimit="10" stroke-width="1"/>
        <path id="路径_38578" data-name="路径 38578" d="M194.188,175.533H206.86l2.688,4.037h3.868" transform="translate(-121.116 -109.497)" fill="none" stroke="#000" stroke-linecap="round" stroke-miterlimit="10" stroke-width="1"/>
        <line id="直线_60" data-name="直线 60" x2="39.054" transform="translate(95.697 69.18)" fill="none" stroke="#000" stroke-linecap="round" stroke-miterlimit="10" stroke-width="1"/>
        <path id="路径_38579" data-name="路径 38579" d="M277.2,212.667h10.953l5.17-6.909h9.434" transform="translate(-172.659 -128.264)" fill="none" stroke="#000" stroke-linecap="round" stroke-miterlimit="10" stroke-width="1"/>
        <path id="路径_38580" data-name="路径 38580" d="M281.772,220.013h10.313l5.25-6.662h6.422" transform="translate(-175.495 -132.977)" fill="none" stroke="#000" stroke-linecap="round" stroke-miterlimit="10" stroke-width="1"/>
        <path id="路径_38581" data-name="路径 38581" d="M256.186,157.056v3.358h34.527v1.157a.08.08,0,0,0,.117.072l4.57-2.337a.081.081,0,0,0,.01-.139l-4.537-3.215a.031.031,0,0,0-.05.026v1.078Z" transform="translate(-159.609 -97.336)" fill="none" stroke="#000" stroke-linecap="round" stroke-miterlimit="10" stroke-width="1"/>
        <path id="路径_38582" data-name="路径 38582" d="M458.1,57.021V67.574H445.553V63.417" transform="translate(-277.183 -35.915)" fill="none" stroke="#000" stroke-linecap="round" stroke-miterlimit="10" stroke-width="1"/>
        <path id="路径_38583" data-name="路径 38583" d="M373.011,134.385h1.479l7.035-19.267" transform="translate(-232.144 -71.986)" fill="none" stroke="#000" stroke-linecap="round" stroke-miterlimit="10" stroke-width="1"/>
        <path id="路径_38584" data-name="路径 38584" d="M366.474,127.681h6.356L386.341,93.4" transform="translate(-228.085 -58.501)" fill="none" stroke="#000" stroke-linecap="round" stroke-miterlimit="10" stroke-width="1"/>
        <path id="路径_38585" data-name="路径 38585" d="M353.4,126.82h13.271l19.507-53.245" transform="translate(-219.967 -46.193)" fill="none" stroke="#000" stroke-linecap="round" stroke-miterlimit="10" stroke-width="1"/>
        <path id="路径_38586" data-name="路径 38586" d="M359.738,178.171h9.289l5.3-14.47,3.747-3.427" transform="translate(-223.903 -100.023)" fill="none" stroke="#000" stroke-linecap="round" stroke-miterlimit="10" stroke-width="1"/>
        <path id="路径_38587" data-name="路径 38587" d="M361.291,94.122h-4.917V89.865h5.157v10.773h-5.336" transform="translate(-221.702 -56.308)" fill="none" stroke="#ef54a1" stroke-linecap="round" stroke-miterlimit="10" stroke-width="1"/>
        <path id="路径_38588" data-name="路径 38588" d="M239.949,89.847h5.476v4.211h-4.85v2.478h4.85v4.037h-5.317" transform="translate(-149.528 -56.297)" fill="none" stroke="#0080f4" stroke-linecap="round" stroke-miterlimit="10" stroke-width="1"/>
        <path id="路径_38590" data-name="路径 38590" d="M236.469,127.451" transform="translate(-147.368 -79.644)" fill="none" stroke="#000" stroke-linecap="round" stroke-miterlimit="10" stroke-width="1"/>
        <path id="路径_38591" data-name="路径 38591" d="M302.75,311.97a56.9,56.9,0,0,1,.2,6.2v26.942h-6.276v-30.3s.112-2.446.16-2.838" transform="translate(-184.748 -194.208)" fill="none" stroke="#000" stroke-miterlimit="10" stroke-width="1"/>
        <line id="直线_61" data-name="直线 61" y2="5.743" transform="translate(80.587 73.897)" fill="none" stroke="#000" stroke-miterlimit="10" stroke-width="1"/>
        <line id="直线_62" data-name="直线 62" y2="5.743" transform="translate(83.119 73.897)" fill="none" stroke="#000" stroke-miterlimit="10" stroke-width="1"/>
        <line id="直线_63" data-name="直线 63" y2="4.823" transform="translate(85.93 73.897)" fill="none" stroke="#000" stroke-miterlimit="10" stroke-width="1"/>
        <line id="直线_64" data-name="直线 64" x2="19.774" transform="translate(66.863 36.375)" fill="none" stroke="#000" stroke-miterlimit="10" stroke-width="1"/>
        <line id="直线_65" data-name="直线 65" x2="16.229" transform="translate(70.407 38.507)" fill="none" stroke="#000" stroke-miterlimit="10" stroke-width="1"/>
        <line id="直线_66" data-name="直线 66" x2="13.351" transform="translate(73.285 40.586)" fill="none" stroke="#000" stroke-miterlimit="10" stroke-width="1"/>
        <line id="直线_67" data-name="直线 67" x1="10.979" transform="translate(75.657 42.585)" fill="none" stroke="#000" stroke-miterlimit="10" stroke-width="1"/>
        <line id="直线_68" data-name="直线 68" x1="9.487" transform="translate(77.149 44.61)" fill="none" stroke="#000" stroke-miterlimit="10" stroke-width="1"/>
        <line id="直线_69" data-name="直线 69" x1="8.554" transform="translate(78.082 46.822)" fill="none" stroke="#000" stroke-miterlimit="10" stroke-width="1"/>
        <line id="直线_70" data-name="直线 70" x1="7.888" transform="translate(78.748 48.98)" fill="none" stroke="#000" stroke-miterlimit="10" stroke-width="1"/>
        <line id="直线_71" data-name="直线 71" x1="7.462" transform="translate(79.175 51.352)" fill="none" stroke="#000" stroke-miterlimit="10" stroke-width="1"/>
        <line id="直线_72" data-name="直线 72" x1="7.009" transform="translate(79.628 53.484)" fill="none" stroke="#000" stroke-miterlimit="10" stroke-width="1"/>
        <line id="直线_73" data-name="直线 73" x1="7.009" transform="translate(79.628 55.696)" fill="none" stroke="#000" stroke-miterlimit="10" stroke-width="1"/>
        <line id="直线_74" data-name="直线 74" x1="6.769" transform="translate(79.868 57.801)" fill="none" stroke="#000" stroke-miterlimit="10" stroke-width="1"/>
        <line id="直线_75" data-name="直线 75" x1="7.009" transform="translate(79.628 59.932)" fill="none" stroke="#000" stroke-miterlimit="10" stroke-width="1"/>
        <line id="直线_76" data-name="直线 76" x1="7.302" transform="translate(79.335 61.932)" fill="none" stroke="#000" stroke-miterlimit="10" stroke-width="1"/>
        <line id="直线_77" data-name="直线 77" y1="38.975" x2="0.407" transform="translate(109.728 115.442)" fill="none" stroke="#ef54a1" stroke-miterlimit="10" stroke-width="1"/>
        <path id="路径_38592" data-name="路径 38592" d="M291.929,195.387s.92-7.53,4.937-12.709c.5-.342,1.939-4.14,3.578-6.178s11.992-16.536,14.47-22.958,4.957-8.823,5.277-26.09h2.478s.12,17.909-6.376,30.061-11.473,17.7-13.9,21.282-7.385,11.5-7.7,14.935" transform="translate(-181.802 -79.644)" fill="none" stroke="#ef54a1" stroke-miterlimit="10" stroke-width="1"/>
        <path id="路径_38593" data-name="路径 38593" d="M481.823,138.676l15.15-5.117v-4" transform="translate(-299.703 -80.955)" fill="none" stroke="#000" stroke-linecap="round" stroke-miterlimit="10" stroke-width="1"/>
        <path id="路径_38594" data-name="路径 38594" d="M509.949,144.183v3.891l-.853,1.785" transform="translate(-316.636 -90.033)" fill="none" stroke="#000" stroke-linecap="round" stroke-miterlimit="10" stroke-width="1"/>
        <line id="直线_78" data-name="直线 78" x2="10.26" y2="2.825" transform="translate(183.24 57.615)" fill="none" stroke="#000" stroke-linecap="round" stroke-miterlimit="10" stroke-width="1"/>
        <path id="路径_38595" data-name="路径 38595" d="M33.823,257.575l-2.9,1.579v4.457l2.9,1.65a.2.2,0,0,0,.3-.172v-7.341A.2.2,0,0,0,33.823,257.575Z" transform="translate(-19.745 -160.42)" fill="none" stroke="#0080f4" stroke-linecap="round" stroke-miterlimit="10" stroke-width="1"/>
        <line id="直线_79" data-name="直线 79" x2="3.318" transform="translate(7.595 100.999)" fill="none" stroke="#0080f4" stroke-linecap="round" stroke-miterlimit="10" stroke-width="1"/>
        <line id="直线_80" data-name="直线 80" x1="2.765" transform="translate(14.637 99.441)" fill="none" stroke="#0080f4" stroke-linecap="round" stroke-miterlimit="10" stroke-width="1"/>
        <line id="直线_81" data-name="直线 81" x1="2.765" transform="translate(14.637 102.638)" fill="none" stroke="#0080f4" stroke-linecap="round" stroke-miterlimit="10" stroke-width="1"/>
        <rect id="矩形_2367" data-name="矩形 2367" width="15.297" height="15.594" rx="6.75" transform="translate(214.759 93.155)" fill="none" stroke="#ef54a1" stroke-miterlimit="10" stroke-width="1"/>
        <path id="路径_38596" data-name="路径 38596" d="M583.881,265.111l2.9-1.58v-4.457l-2.9-1.65a.2.2,0,0,0-.3.172v7.341A.2.2,0,0,0,583.881,265.111Z" transform="translate(-362.887 -160.325)" fill="none" stroke="#ef54a1" stroke-linecap="round" stroke-miterlimit="10" stroke-width="1"/>
        <line id="直线_82" data-name="直线 82" x1="3.318" transform="translate(224.159 100.941)" fill="none" stroke="#ef54a1" stroke-linecap="round" stroke-miterlimit="10" stroke-width="1"/>
        <line id="直线_83" data-name="直线 83" y2="5.297" transform="translate(44.151 124.517)" fill="none" stroke="#0080f4" stroke-linecap="round" stroke-miterlimit="10" stroke-width="1"/>
        <path id="路径_38597" data-name="路径 38597" d="M125.548,324.823v8.72a.073.073,0,0,0,.119.057l2.976-2.418a.091.091,0,0,0-.012-.15l-2.8-1.615,2.518-2.148a.091.091,0,0,0,0-.138l-2.678-2.362A.073.073,0,0,0,125.548,324.823Z" transform="translate(-78.499 -202.143)" fill="none" stroke="#0080f4" stroke-linecap="round" stroke-miterlimit="10" stroke-width="1"/>
        <line id="直线_84" data-name="直线 84" x2="2.478" transform="translate(44.391 127.166)" fill="none" stroke="#0080f4" stroke-linecap="round" stroke-miterlimit="10" stroke-width="1"/>
        <path id="路径_38599" data-name="路径 38599" d="M595.027,169.452v1.907a.182.182,0,0,1-.282.151l-1.43-.953a.182.182,0,0,1,0-.3l1.43-.953A.182.182,0,0,1,595.027,169.452Z" transform="translate(-368.876 -105.609)" fill="#ef54a1"/>
        <path id="路径_38600" data-name="路径 38600" d="M590.282,143.681v-1.906a.181.181,0,0,1,.282-.151l1.43.953a.182.182,0,0,1,0,.3l-1.43.953A.181.181,0,0,1,590.282,143.681Z" transform="translate(-367.043 -88.424)" fill="#ef54a1"/>
        <g id="组_21713" data-name="组 21713" transform="translate(213.943 48.334)">
          <rect id="矩形_2363" data-name="矩形 2363" width="21.226" height="21.506" rx="6.75" fill="none" stroke="#ef54a1" stroke-miterlimit="10" stroke-width="1"/>
          <path id="路径_38598" data-name="路径 38598" d="M581.937,149.088v-3.977a.26.26,0,0,1,.26-.26h3.438" transform="translate(-575.805 -138.782)" fill="none" stroke="#ef54a1" stroke-linecap="round" stroke-miterlimit="10" stroke-width="1"/>
          <circle id="椭圆_1869" data-name="椭圆 1869" cx="3.145" cy="3.145" r="3.145" transform="translate(12.188 3.444)" fill="none" stroke="#ef54a1" stroke-miterlimit="10" stroke-width="1"/>
          <line id="直线_85" data-name="直线 85" x2="1.266" transform="translate(16.039 6.163)" fill="none" stroke="#ef54a1" stroke-linecap="round" stroke-miterlimit="10" stroke-width="1"/>
          <line id="直线_86" data-name="直线 86" x2="1.319" transform="translate(13.307 6.163)" fill="none" stroke="#ef54a1" stroke-linecap="round" stroke-miterlimit="10" stroke-width="1"/>
          <g id="组_21708" data-name="组 21708" transform="translate(4.275 14.77)">
            <line id="直线_87" data-name="直线 87" x2="1.266" transform="translate(2.732)" fill="none" stroke="#ef54a1" stroke-linecap="round" stroke-miterlimit="10" stroke-width="1"/>
            <line id="直线_88" data-name="直线 88" x2="1.319" fill="none" stroke="#ef54a1" stroke-linecap="round" stroke-miterlimit="10" stroke-width="1"/>
          </g>
          <path id="路径_38601" data-name="路径 38601" d="M597.1,164.539h3.4v-4.61" transform="translate(-585.221 -148.143)" fill="none" stroke="#ef54a1" stroke-linecap="round" stroke-miterlimit="10" stroke-width="1"/>
          <circle id="椭圆_1870" data-name="椭圆 1870" cx="3.144" cy="3.144" r="3.144" transform="translate(3.13 12.105)" fill="none" stroke="#ef54a1" stroke-linecap="round" stroke-miterlimit="10" stroke-width="1"/>
          <line id="直线_89" data-name="直线 89" y1="1.792" transform="translate(4.393 10.753)" fill="none" stroke="#ef54a1" stroke-linecap="round" stroke-miterlimit="10" stroke-width="1"/>
          <line id="直线_90" data-name="直线 90" y1="1.792" transform="translate(7.981 10.753)" fill="none" stroke="#ef54a1" stroke-linecap="round" stroke-miterlimit="10" stroke-width="1"/>
        </g>
        <g id="组_21526" data-name="组 21526" transform="translate(183.161 122.548)">
          <path id="路径_37350" data-name="路径 37350" d="M495.461,329.556a.707.707,0,0,1,.629-.575c.288,0,.487.305.575.575a3.3,3.3,0,0,1,.162,1.024.12.12,0,0,1-.126.108c-.018,0-.038,0-.038-.018a1.1,1.1,0,0,0-.575-.144,1.165,1.165,0,0,0-.593.144.1.1,0,0,1-.136-.036.094.094,0,0,1-.008-.018c0-.018-.018-.018-.018-.038a3.989,3.989,0,0,1,.125-1.024Z" transform="translate(-491.252 -327.318)" fill="#ef54a1"/>
          <path id="路径_37351" data-name="路径 37351" d="M490.142,330.667a.1.1,0,0,1-.136-.036.1.1,0,0,1-.008-.018c0-.018-.018-.018-.018-.038a3.889,3.889,0,0,1,.126-1.024.707.707,0,0,1,.629-.575c.287,0,.487.305.593.575a3.3,3.3,0,0,1,.162,1.024.12.12,0,0,1-.126.108c-.018,0-.038,0-.038-.018a1.118,1.118,0,0,0-.593-.144,1.315,1.315,0,0,0-.593.144Z" transform="translate(-487.928 -327.315)" fill="#ef54a1"/>
          <path id="路径_37352" data-name="路径 37352" d="M488.012,335.6a8.7,8.7,0,0,0,.244,1.458" transform="translate(-486.706 -331.428)" fill="none" stroke="#ef54a1" stroke-miterlimit="10" stroke-width="1"/>
          <path id="路径_3" data-name="路径 3" d="M492.5,331.657a1.678,1.678,0,0,0-1.348.072c.251-.521.521-1.078.754-1.653a5.239,5.239,0,0,0,.5-1.835,3.479,3.479,0,0,0-3.217-3.648,3.3,3.3,0,0,0-3.328,3.269c0,.055,0,.109,0,.164h0a6.858,6.858,0,0,0,.018.861l-.04,0a1.694,1.694,0,0,0-.876.39,1.64,1.64,0,0,0-.323.379c-.125.288-.125.647.234.737a1.17,1.17,0,0,0,.431-.108,1.626,1.626,0,0,1,.682-.176.4.4,0,0,1,.109.031,8.556,8.556,0,0,0,.629,1.76,5.407,5.407,0,0,0,1.043,1.51,1.925,1.925,0,0,0,1.294.629,3.483,3.483,0,0,0,1.923-.719c.27-.18.5-.359.683-.487a1.157,1.157,0,0,1,.4-.2,1.994,1.994,0,0,1,.539.144c.2.09.412.2.611.27a.122.122,0,0,0,.144-.072v-.014A1.364,1.364,0,0,0,492.5,331.657Zm-3.451-1.185a1.14,1.14,0,0,0-.88-.054,1.365,1.365,0,0,1-.467.018c-.467-.126-.287-.629-.09-.881a1.989,1.989,0,0,1,.665-.487,1.875,1.875,0,0,1,1.977.162" transform="translate(-484.568 -324.594)" fill="none" stroke="#ef54a1" stroke-miterlimit="10" stroke-width="1"/>
        </g>
        <g id="组_21526-2" data-name="组 21526" transform="translate(4.088 51.645)">
          <path id="路径_37350-2" data-name="路径 37350" d="M28.181,145.6a6.467,6.467,0,0,1,.2,1.658c0,.031-.029.031-.029.06a.136.136,0,0,1-.013.029.161.161,0,0,1-.22.058,1.877,1.877,0,0,0-.96-.233,1.77,1.77,0,0,0-.931.233c0,.029-.031.029-.061.029a.2.2,0,0,1-.2-.174,5.351,5.351,0,0,1,.262-1.658c.143-.436.465-.931.931-.931a1.146,1.146,0,0,1,1.018.931Z" transform="translate(-20.76 -141.983)" fill="#0080f4"/>
          <path id="路径_37351-2" data-name="路径 37351" d="M36.746,147.4a2.128,2.128,0,0,0-.96-.233,1.81,1.81,0,0,0-.96.233c0,.029-.031.029-.061.029a.2.2,0,0,1-.2-.174,5.34,5.34,0,0,1,.262-1.658c.172-.436.494-.931.96-.931a1.145,1.145,0,0,1,1.018.931,6.318,6.318,0,0,1,.2,1.658c0,.031-.029.031-.029.06a.157.157,0,0,1-.013.029.161.161,0,0,1-.22.058Z" transform="translate(-26.096 -141.98)" fill="#0080f4"/>
          <path id="路径_37352-2" data-name="路径 37352" d="M43.151,157.749a14.123,14.123,0,0,0,.394-2.359" transform="translate(-31.428 -148.636)" fill="none" stroke="#0080f4" stroke-miterlimit="10" stroke-width="1"/>
          <path id="路径_3-2" data-name="路径 3" d="M12.231,151.13v.024a.2.2,0,0,0,.233.116c.322-.116.669-.291.989-.436a3.241,3.241,0,0,1,.873-.233,1.886,1.886,0,0,1,.64.32c.291.206.669.5,1.105.787a5.636,5.636,0,0,0,3.112,1.164,3.116,3.116,0,0,0,2.094-1.018,8.743,8.743,0,0,0,1.687-2.443,13.852,13.852,0,0,0,1.018-2.848.631.631,0,0,1,.176-.051,2.624,2.624,0,0,1,1.1.284,1.89,1.89,0,0,0,.7.174c.582-.145.582-.727.378-1.192a2.658,2.658,0,0,0-.522-.613,2.741,2.741,0,0,0-1.418-.632l-.066-.008a11.174,11.174,0,0,0,.029-1.394h0q.005-.132,0-.265a5.338,5.338,0,0,0-5.385-5.291,5.631,5.631,0,0,0-5.206,5.9,8.475,8.475,0,0,0,.814,2.969c.378.931.814,1.832,1.222,2.676a2.717,2.717,0,0,0-2.181-.116A2.208,2.208,0,0,0,12.231,151.13Zm5.033-6.051a3.036,3.036,0,0,1,3.2-.262,3.215,3.215,0,0,1,1.076.788c.32.407.611,1.222-.146,1.425a2.212,2.212,0,0,1-.756-.029,1.845,1.845,0,0,0-1.425.087" transform="translate(-12.23 -137.575)" fill="none" stroke="#0080f4" stroke-miterlimit="10" stroke-width="1"/>
        </g>
        <path id="路径_38533" data-name="路径 38533" d="M267.848,234.382s-.107-25.756.107-35.243-10.33-24.844-15.35-31.446c-5.277-6.5-13.751-24.517-13.645-38.055q.009-1.1.063-2.186h-2.555s.81,16.967,4.222,24.49c.122.269.233.54.33.819,2.737,7.915,10.243,19.262,15.741,25.965a35.877,35.877,0,0,1,7.875,14.444" transform="translate(-147.368 -79.644)" fill="none" stroke="#0080f4" stroke-linecap="round" stroke-miterlimit="10" stroke-width="1"/>
      </g>
    </g>
    <g id="蒙版组_57" data-name="蒙版组 57" transform="translate(0 394)" clip-path="url(#clip-path)">
      <g id="背景" transform="translate(2662.969 -926.427)" opacity="0.1">
        <path id="路径_38729" data-name="路径 38729" d="M395.381,229.828l411.45.978,44.711,45.141v174.79l-423.094-.978-33.067-39.367Z" transform="translate(-353.033 -169.131)" fill="none" stroke="#000" stroke-miterlimit="10" stroke-width="1"/>
        <path id="路径_38730" data-name="路径 38730" d="M484,214.777H837.464l28.869-30.444" transform="translate(-371.165 -160.451)" fill="none" stroke="#000" stroke-miterlimit="10" stroke-width="1"/>
        <path id="路径_38731" data-name="路径 38731" d="M866.333,184.333H512.869L484,214.777" transform="translate(-470.089 102.659)" fill="none" stroke="#000" stroke-miterlimit="10" stroke-width="1"/>
        <circle id="椭圆_1871" data-name="椭圆 1871" cx="13.532" cy="13.532" r="13.532" transform="translate(490.214)" fill="none" stroke="#000" stroke-miterlimit="10" stroke-width="1"/>
        <circle id="椭圆_1872" data-name="椭圆 1872" cx="8.456" cy="8.456" r="8.456" transform="translate(0 315.035)" fill="none" stroke="#000" stroke-miterlimit="10" stroke-width="1"/>
        <path id="路径_38732" data-name="路径 38732" d="M594.911,274.9l26.974-11.682H965.406" transform="translate(-516.818 -220.57)" fill="none" stroke="#000" stroke-width="1"/>
        <path id="路径_38733" data-name="路径 38733" d="M965.406,263.214,938.432,274.9H594.911" transform="translate(-534.42 23.778)" fill="none" stroke="#000" stroke-width="1"/>
        <path id="路径_38734" data-name="路径 38734" d="M413.437,293.133H387.292V466.608" transform="translate(-353.655 -238.806)" fill="none" stroke="#000" stroke-width="1"/>
        <path id="路径_38735" data-name="路径 38735" d="M1645.295,462.333V611.086H1608.8" transform="translate(-1134.818 -341.939)" fill="none" stroke="#707070" stroke-width="1"/>
        <path id="路径_38736" data-name="路径 38736" d="M428.642,768.6l31.09,32.585" transform="translate(-392.057 -523.11)" fill="none" stroke="#000" stroke-width="1"/>
        <path id="路径_38737" data-name="路径 38737" d="M1636.882,316.811l23.069,21.681" transform="translate(-1155.649 -244.99)" fill="none" stroke="#000" stroke-width="1"/>
      </g>
    </g>
    <g id="组_22000" data-name="组 22000" transform="translate(0 -3.853)">
      <path id="路径_39948" data-name="路径 39948" d="M2.23.852A1.874,1.874,0,0,1,.776.253,2.219,2.219,0,0,1,.229-1.3,2.351,2.351,0,0,1,.786-2.946,1.944,1.944,0,0,1,2.3-3.56a1.831,1.831,0,0,1,1.424.6,2.227,2.227,0,0,1,.54,1.557A2.359,2.359,0,0,1,3.712.244,1.908,1.908,0,0,1,2.23.852Zm.036-3.959a1.376,1.376,0,0,0-1.092.485,1.878,1.878,0,0,0-.42,1.274,1.891,1.891,0,0,0,.409,1.27A1.335,1.335,0,0,0,2.23.4,1.4,1.4,0,0,0,3.337-.056a1.873,1.873,0,0,0,.4-1.283,1.957,1.957,0,0,0-.393-1.307A1.347,1.347,0,0,0,2.265-3.107ZM17.981-.946q0,1.8-1.622,1.8-1.554,0-1.554-1.729v-2.61h.5V-.91Q15.305.4,16.413.4q1.069,0,1.069-1.268V-3.488h.5ZM31.86.78h-.6l-.714-1.2A2.606,2.606,0,0,0,30.36-.7a1.086,1.086,0,0,0-.189-.192A.655.655,0,0,0,29.963-1a.857.857,0,0,0-.252-.034H29.3V.78h-.5V-3.488h1.274a1.816,1.816,0,0,1,.516.07A1.156,1.156,0,0,1,31-3.205a.989.989,0,0,1,.272.356,1.18,1.18,0,0,1,.1.5,1.2,1.2,0,0,1-.067.409,1.069,1.069,0,0,1-.191.332,1.155,1.155,0,0,1-.3.249,1.52,1.52,0,0,1-.391.159v.012a.9.9,0,0,1,.186.109,1.024,1.024,0,0,1,.15.144,1.913,1.913,0,0,1,.141.189q.07.106.156.246ZM29.3-3.036v1.548h.679a1.029,1.029,0,0,0,.347-.057.8.8,0,0,0,.275-.162.736.736,0,0,0,.182-.259.867.867,0,0,0,.065-.344.669.669,0,0,0-.222-.534.953.953,0,0,0-.641-.192ZM57.976.78h-.5V-2.083q0-.339.042-.83h-.012a2.655,2.655,0,0,1-.128.414L55.922.78h-.244L54.222-2.476a2.552,2.552,0,0,1-.128-.438h-.012q.024.256.024.836V.78h-.482V-3.488h.661l1.31,2.977a3.812,3.812,0,0,1,.2.512h.018q.128-.351.205-.524l1.336-2.965h.625Zm11.376,0h-.5V-3.488h.5ZM80.028.608V.018a1.145,1.145,0,0,0,.243.161,1.965,1.965,0,0,0,.3.121,2.37,2.37,0,0,0,.314.076A1.751,1.751,0,0,0,81.174.4a1.143,1.143,0,0,0,.689-.171.579.579,0,0,0,.228-.493.578.578,0,0,0-.076-.3A.855.855,0,0,0,81.8-.8a2.082,2.082,0,0,0-.317-.2q-.183-.1-.394-.2t-.417-.229a1.805,1.805,0,0,1-.336-.256A1.068,1.068,0,0,1,80.116-2a.981.981,0,0,1-.082-.415.976.976,0,0,1,.128-.508,1.1,1.1,0,0,1,.336-.356,1.525,1.525,0,0,1,.475-.208,2.174,2.174,0,0,1,.543-.068,2.082,2.082,0,0,1,.92.152v.563a1.667,1.667,0,0,0-.97-.262,1.6,1.6,0,0,0-.327.034.925.925,0,0,0-.292.112.646.646,0,0,0-.208.2.529.529,0,0,0-.08.3.613.613,0,0,0,.061.283.693.693,0,0,0,.18.217,1.793,1.793,0,0,0,.29.191q.171.092.394.2t.435.238a1.986,1.986,0,0,1,.36.277,1.23,1.23,0,0,1,.246.336.946.946,0,0,1,.091.423,1.072,1.072,0,0,1-.124.534,1.014,1.014,0,0,1-.333.356,1.456,1.456,0,0,1-.484.2A2.649,2.649,0,0,1,81.1.852a2.353,2.353,0,0,1-.25-.016q-.149-.016-.3-.048A2.478,2.478,0,0,1,80.25.71.912.912,0,0,1,80.028.608Zm12.992,0V.018a1.144,1.144,0,0,0,.243.161,1.965,1.965,0,0,0,.3.121,2.369,2.369,0,0,0,.314.076A1.751,1.751,0,0,0,94.166.4a1.143,1.143,0,0,0,.689-.171.579.579,0,0,0,.228-.493.578.578,0,0,0-.076-.3A.855.855,0,0,0,94.8-.8,2.082,2.082,0,0,0,94.48-1q-.183-.1-.394-.2t-.417-.229a1.806,1.806,0,0,1-.336-.256A1.068,1.068,0,0,1,93.108-2a.981.981,0,0,1-.082-.415.976.976,0,0,1,.128-.508,1.1,1.1,0,0,1,.336-.356,1.525,1.525,0,0,1,.475-.208,2.174,2.174,0,0,1,.543-.068,2.082,2.082,0,0,1,.92.152v.563a1.667,1.667,0,0,0-.97-.262,1.6,1.6,0,0,0-.327.034.925.925,0,0,0-.292.112.646.646,0,0,0-.208.2.529.529,0,0,0-.08.3.613.613,0,0,0,.061.283.693.693,0,0,0,.18.217,1.793,1.793,0,0,0,.29.191q.171.092.394.2t.435.238a1.987,1.987,0,0,1,.36.277,1.23,1.23,0,0,1,.246.336.945.945,0,0,1,.091.423,1.072,1.072,0,0,1-.124.534,1.014,1.014,0,0,1-.333.356,1.456,1.456,0,0,1-.484.2,2.649,2.649,0,0,1-.577.061,2.353,2.353,0,0,1-.25-.016q-.149-.016-.3-.048A2.478,2.478,0,0,1,93.242.71.912.912,0,0,1,93.02.608ZM106.712.78h-.5V-3.488h.5Zm12.6.071a1.874,1.874,0,0,1-1.454-.6,2.219,2.219,0,0,1-.546-1.557,2.351,2.351,0,0,1,.557-1.643,1.944,1.944,0,0,1,1.515-.613,1.831,1.831,0,0,1,1.424.6,2.227,2.227,0,0,1,.54,1.557A2.359,2.359,0,0,1,120.79.244,1.908,1.908,0,0,1,119.308.852Zm.036-3.959a1.376,1.376,0,0,0-1.092.485,1.878,1.878,0,0,0-.42,1.274,1.891,1.891,0,0,0,.409,1.27A1.335,1.335,0,0,0,119.308.4a1.4,1.4,0,0,0,1.107-.458,1.873,1.873,0,0,0,.4-1.283,1.957,1.957,0,0,0-.393-1.307A1.347,1.347,0,0,0,119.344-3.107ZM135.378.78h-.613l-2.2-3.4a1.423,1.423,0,0,1-.137-.268h-.018a4.392,4.392,0,0,1,.024.586V.78h-.5V-3.488h.649l2.137,3.349q.134.208.173.286h.012a4.518,4.518,0,0,1-.03-.628V-3.488h.5Z" transform="translate(2520.771 -444.587)"/>
      <path id="路径_40061" data-name="路径 40061" d="M16.614-2.964a24.865,24.865,0,0,1-3.328.182h-7.8V-8.918H11.83a20.373,20.373,0,0,1,3.38.182v-3.406a27.06,27.06,0,0,1-3.38.182H5.512v-5.356H13a23.285,23.285,0,0,1,3.354.182v-3.432A27.779,27.779,0,0,1,13-20.384H5.148c-1.586,0-2.262-.026-3.3-.078a23,23,0,0,1,.208,3.354V-3.042A21.031,21.031,0,0,1,1.846.39C2.886.338,3.588.312,5.148.312H13.26a22.353,22.353,0,0,1,3.354.182Zm13.7-11.648A13.481,13.481,0,0,0,27.9-14.9a4.974,4.974,0,0,0-4.888,2.73v-2.444H19.474a20.555,20.555,0,0,1,.182,3.38v8.164a28.518,28.518,0,0,1-.182,3.38h3.718a27.344,27.344,0,0,1-.182-3.38v-4.81a4.185,4.185,0,0,1,1.066-2.6,3.711,3.711,0,0,1,3.016-1.274,7.764,7.764,0,0,1,2.314.416ZM42.094.312H45.6a20.911,20.911,0,0,1-.208-3.25V-9.932c0-1.768-.338-2.756-1.222-3.588-1.118-1.092-2.626-1.534-5.122-1.534a7.785,7.785,0,0,0-4.966,1.326,5.433,5.433,0,0,0-2.054,2.886l3.328.6a2.833,2.833,0,0,1,1.04-1.664,4.691,4.691,0,0,1,2.7-.754c1.976,0,2.99.78,2.99,2.288v1.326c-3.718.078-5.642.338-7.332,1.04A4.612,4.612,0,0,0,31.824-3.8c0,2.73,1.924,4.368,5.1,4.368A9.2,9.2,0,0,0,39.338.26a5.638,5.638,0,0,0,2.756-1.638Zm0-5.8A3.1,3.1,0,0,1,41.158-3.2,5.279,5.279,0,0,1,37.544-1.82c-1.456,0-2.366-.754-2.366-1.976,0-2.028,1.95-2.886,6.916-2.99ZM69.03.312h3.458a27.294,27.294,0,0,1-.182-3.51V-16.9a30.32,30.32,0,0,1,.182-3.484H68.822A26.5,26.5,0,0,1,69-16.874v2.6c0,.442,0,.936.026,1.118.026.52.026.52.026.832a6.621,6.621,0,0,0-1.326-1.43,6.171,6.171,0,0,0-3.952-1.2c-4.29,0-7.02,3.016-7.02,7.774a8.047,8.047,0,0,0,2.7,6.526A6.611,6.611,0,0,0,63.8.676,5.551,5.551,0,0,0,69.056-1.9c-.026.338-.026.624-.026.936ZM60.138-7.15c0-3.094,1.612-5.07,4.134-5.07a4.76,4.76,0,0,1,3.38,1.456A5.4,5.4,0,0,1,68.9-7.306a5.881,5.881,0,0,1-1.014,3.484A4.348,4.348,0,0,1,64.4-2.106C61.8-2.106,60.138-4.056,60.138-7.15ZM85.618.312h3.51a20.912,20.912,0,0,1-.208-3.25V-9.932c0-1.768-.338-2.756-1.222-3.588-1.118-1.092-2.626-1.534-5.122-1.534a7.785,7.785,0,0,0-4.966,1.326,5.433,5.433,0,0,0-2.054,2.886l3.328.6a2.833,2.833,0,0,1,1.04-1.664,4.691,4.691,0,0,1,2.7-.754c1.976,0,2.99.78,2.99,2.288v1.326c-3.718.078-5.642.338-7.332,1.04A4.612,4.612,0,0,0,75.348-3.8c0,2.73,1.924,4.368,5.1,4.368A9.2,9.2,0,0,0,82.862.26a5.638,5.638,0,0,0,2.756-1.638Zm0-5.8A3.1,3.1,0,0,1,84.682-3.2,5.279,5.279,0,0,1,81.068-1.82C79.612-1.82,78.7-2.574,78.7-3.8c0-2.028,1.95-2.886,6.916-2.99Zm14.612,1.56a5.848,5.848,0,0,0,1.014,2.314C102.362-.1,104.364.7,107.042.7a7.675,7.675,0,0,0,5.382-1.69A4.181,4.181,0,0,0,113.7-3.926,3.7,3.7,0,0,0,112.19-7.15c-.858-.65-1.924-1.014-4.576-1.586a10.951,10.951,0,0,1-2.6-.78,1.4,1.4,0,0,1-.806-1.222c0-1.092,1.092-1.82,2.7-1.82,1.69,0,2.574.624,2.86,2.054l3.432-.442a5.061,5.061,0,0,0-1.4-2.574,7.094,7.094,0,0,0-4.888-1.508c-2.366,0-4.134.676-5.2,2.028a3.868,3.868,0,0,0-.806,2.418,3.723,3.723,0,0,0,2.288,3.458,15.717,15.717,0,0,0,3.744,1.118c2.08.468,2.236.494,2.73.832a1.59,1.59,0,0,1,.676,1.3c0,1.222-1.2,1.976-3.12,1.976-2.028,0-2.99-.7-3.432-2.47ZM116.3-20.384v3.3h3.822v-3.3Zm0,5.772a21.37,21.37,0,0,1,.208,3.38v8.164A23.367,23.367,0,0,1,116.3.312h3.8a26.119,26.119,0,0,1-.182-3.406v-8.112a23.371,23.371,0,0,1,.182-3.406ZM127.01.312a27.061,27.061,0,0,1-.182-3.38V-8.216a5.871,5.871,0,0,1,1.118-2.6,3.221,3.221,0,0,1,2.678-1.352c1.69,0,2.522,1.092,2.522,3.276v5.824a21.16,21.16,0,0,1-.208,3.38h3.744a25.437,25.437,0,0,1-.182-3.38V-8.216a4.918,4.918,0,0,1,1.638-3.224,3.007,3.007,0,0,1,2.132-.78c1.742,0,2.548,1.04,2.548,3.328v5.824a20.548,20.548,0,0,1-.208,3.38h3.8a21.161,21.161,0,0,1-.208-3.38V-9.49a5.384,5.384,0,0,0-1.222-3.952,5.131,5.131,0,0,0-3.9-1.482,5.744,5.744,0,0,0-2.912.676,6.016,6.016,0,0,0-2.184,2.054,3.37,3.37,0,0,0-.988-1.56,4.663,4.663,0,0,0-3.354-1.17,5.242,5.242,0,0,0-4.836,2.6c.026-.416.026-.806.026-.962v-1.326h-3.484a22.743,22.743,0,0,1,.182,3.38v8.164a26.232,26.232,0,0,1-.182,3.38Zm26.052,0V-.962c0-.312,0-.6-.026-.936A5.656,5.656,0,0,0,158.21.676,6.666,6.666,0,0,0,163.2-1.2a8.5,8.5,0,0,0,2.132-6.084c0-4.836-2.574-7.67-6.942-7.67a6.061,6.061,0,0,0-5.356,2.626c.026-.884.052-1.534.052-1.95v-2.6a26.5,26.5,0,0,1,.182-3.51H149.6a30.318,30.318,0,0,1,.182,3.484V-3.2A27.292,27.292,0,0,1,149.6.312Zm8.892-7.592c0,3.146-1.69,5.174-4.316,5.174a4.53,4.53,0,0,1-2.73-.962,5.423,5.423,0,0,1-1.716-4.108,5.6,5.6,0,0,1,1.274-3.614A4.639,4.639,0,0,1,158-12.22C160.394-12.22,161.954-10.27,161.954-7.28Zm6.006-13.1v3.3h3.822v-3.3Zm0,5.772a21.369,21.369,0,0,1,.208,3.38v8.164a23.366,23.366,0,0,1-.208,3.38h3.8a26.118,26.118,0,0,1-.182-3.406v-8.112a23.37,23.37,0,0,1,.182-3.406ZM182.156.806c4.628,0,7.67-3.172,7.67-7.982s-2.99-7.878-7.7-7.878c-4.732,0-7.748,3.094-7.748,7.93C174.382-2.262,177.4.806,182.156.806ZM182.13-12.35c2.756,0,4.342,1.924,4.342,5.278,0,3.172-1.664,5.122-4.368,5.122s-4.368-1.976-4.368-5.174C177.736-10.374,179.4-12.35,182.13-12.35Zm9.646,8.424a5.848,5.848,0,0,0,1.014,2.314C193.908-.1,195.91.7,198.588.7a7.675,7.675,0,0,0,5.382-1.69,4.181,4.181,0,0,0,1.274-2.938,3.7,3.7,0,0,0-1.508-3.224c-.858-.65-1.924-1.014-4.576-1.586a10.951,10.951,0,0,1-2.6-.78,1.4,1.4,0,0,1-.806-1.222c0-1.092,1.092-1.82,2.7-1.82,1.69,0,2.574.624,2.86,2.054l3.432-.442a5.061,5.061,0,0,0-1.4-2.574,7.094,7.094,0,0,0-4.888-1.508c-2.366,0-4.134.676-5.2,2.028a3.868,3.868,0,0,0-.806,2.418,3.723,3.723,0,0,0,2.288,3.458,15.717,15.717,0,0,0,3.744,1.118c2.08.468,2.236.494,2.73.832a1.59,1.59,0,0,1,.676,1.3c0,1.222-1.2,1.976-3.12,1.976-2.028,0-2.99-.7-3.432-2.47Zm30.056-2.366c-.052-.6-.052-.676-.052-.728a10.689,10.689,0,0,0-.754-3.952,6.605,6.605,0,0,0-6.474-4.108c-4.446,0-7.332,3.146-7.332,7.956,0,4.862,2.912,7.93,7.514,7.93a7.384,7.384,0,0,0,5.356-2,7.307,7.307,0,0,0,1.586-2.392l-3.068-.988a3.779,3.779,0,0,1-.754,1.352,4.111,4.111,0,0,1-3.12,1.3,4.086,4.086,0,0,1-3.25-1.456,4.833,4.833,0,0,1-.962-2.912ZM210.6-8.866a3.9,3.9,0,0,1,3.9-3.536,3.708,3.708,0,0,1,2.808,1.04,4.081,4.081,0,0,1,1.144,2.5ZM1.638,27.616a24.33,24.33,0,0,1,.182,3.406v13.91a21.369,21.369,0,0,1-.208,3.38H5.356a23.134,23.134,0,0,1-.208-3.38V39.68c1.17-2.6,2.678-3.848,4.628-3.848a2.414,2.414,0,0,1,1.794.754,3.667,3.667,0,0,1,.754,2.574v5.772a27.631,27.631,0,0,1-.182,3.38h3.77a20.546,20.546,0,0,1-.208-3.38V38.38c0-3.354-1.9-5.252-5.226-5.252A6.07,6.07,0,0,0,5.1,35.884a10.664,10.664,0,0,0,.052-1.118V31.048a24.988,24.988,0,0,1,.182-3.432ZM26.26,48.806c4.628,0,7.67-3.172,7.67-7.982s-2.99-7.878-7.7-7.878c-4.732,0-7.748,3.094-7.748,7.93C18.486,45.738,21.5,48.806,26.26,48.806ZM26.234,35.65c2.756,0,4.342,1.924,4.342,5.278,0,3.172-1.664,5.122-4.368,5.122s-4.368-1.976-4.368-5.174C21.84,37.626,23.5,35.65,26.234,35.65ZM40.2,48.312a27.06,27.06,0,0,1-.182-3.38V39.784a5.871,5.871,0,0,1,1.118-2.6,3.221,3.221,0,0,1,2.678-1.352c1.69,0,2.522,1.092,2.522,3.276v5.824a21.16,21.16,0,0,1-.208,3.38h3.744a25.435,25.435,0,0,1-.182-3.38V39.784a4.918,4.918,0,0,1,1.638-3.224,3.007,3.007,0,0,1,2.132-.78C55.2,35.78,56,36.82,56,39.108v5.824a20.546,20.546,0,0,1-.208,3.38h3.8a21.16,21.16,0,0,1-.208-3.38V38.51a5.384,5.384,0,0,0-1.222-3.952,5.131,5.131,0,0,0-3.9-1.482,5.744,5.744,0,0,0-2.912.676,6.016,6.016,0,0,0-2.184,2.054,3.37,3.37,0,0,0-.988-1.56,4.663,4.663,0,0,0-3.354-1.17,5.242,5.242,0,0,0-4.836,2.6c.026-.416.026-.806.026-.962V33.388H36.53a22.743,22.743,0,0,1,.182,3.38v8.164a26.232,26.232,0,0,1-.182,3.38Zm36.582-6.6c-.052-.6-.052-.676-.052-.728a10.688,10.688,0,0,0-.754-3.952A6.605,6.605,0,0,0,69.5,32.92c-4.446,0-7.332,3.146-7.332,7.956,0,4.862,2.912,7.93,7.514,7.93a7.384,7.384,0,0,0,5.356-2,7.307,7.307,0,0,0,1.586-2.392l-3.068-.988a3.779,3.779,0,0,1-.754,1.352,4.374,4.374,0,0,1-6.37-.156,4.833,4.833,0,0,1-.962-2.912ZM65.546,39.134a3.9,3.9,0,0,1,3.9-3.536,3.708,3.708,0,0,1,2.808,1.04,4.081,4.081,0,0,1,1.144,2.5Zm17.472,9.178a27.061,27.061,0,0,1-.182-3.38V39.784a5.871,5.871,0,0,1,1.118-2.6,3.221,3.221,0,0,1,2.678-1.352c1.69,0,2.522,1.092,2.522,3.276v5.824a21.16,21.16,0,0,1-.208,3.38H92.69a25.436,25.436,0,0,1-.182-3.38V39.784a4.918,4.918,0,0,1,1.638-3.224,3.007,3.007,0,0,1,2.132-.78c1.742,0,2.548,1.04,2.548,3.328v5.824a20.547,20.547,0,0,1-.208,3.38h3.8a21.16,21.16,0,0,1-.208-3.38V38.51a5.384,5.384,0,0,0-1.222-3.952,5.131,5.131,0,0,0-3.9-1.482,5.744,5.744,0,0,0-2.912.676,6.016,6.016,0,0,0-2.184,2.054A3.37,3.37,0,0,0,91,34.246a4.663,4.663,0,0,0-3.354-1.17,5.242,5.242,0,0,0-4.836,2.6c.026-.416.026-.806.026-.962V33.388H79.352a22.743,22.743,0,0,1,.182,3.38v8.164a26.232,26.232,0,0,1-.182,3.38Zm21.866-6.162a14.31,14.31,0,0,1,2.444-.156h4.03a14.267,14.267,0,0,1,2.47.156V38.692a16.421,16.421,0,0,1-2.47.156h-4.03a16.29,16.29,0,0,1-2.444-.156Zm24.986-4.524a8.654,8.654,0,0,0-.91-1.9,6.725,6.725,0,0,0-5.824-2.808A7.12,7.12,0,0,0,117.91,34.9,8.407,8.407,0,0,0,115.7,40.9c0,4.81,2.964,7.9,7.54,7.9a6.757,6.757,0,0,0,5.72-2.626,7.279,7.279,0,0,0,1.092-2.21l-3.224-.65a3.634,3.634,0,0,1-.52,1.3,3.481,3.481,0,0,1-2.99,1.456c-2.626,0-4.238-2-4.238-5.252,0-3.224,1.586-5.226,4.134-5.226a3.271,3.271,0,0,1,2.678,1.2,4.685,4.685,0,0,1,.806,1.586Zm9.854,11.18c4.628,0,7.67-3.172,7.67-7.982s-2.99-7.878-7.7-7.878c-4.732,0-7.748,3.094-7.748,7.93C131.95,45.738,134.966,48.806,139.724,48.806ZM139.7,35.65c2.756,0,4.342,1.924,4.342,5.278,0,3.172-1.664,5.122-4.368,5.122s-4.368-1.976-4.368-5.174C135.3,37.626,136.968,35.65,139.7,35.65ZM153.66,48.312a27.059,27.059,0,0,1-.182-3.38V39.784a5.871,5.871,0,0,1,1.118-2.6,3.221,3.221,0,0,1,2.678-1.352c1.69,0,2.522,1.092,2.522,3.276v5.824a21.16,21.16,0,0,1-.208,3.38h3.744a25.437,25.437,0,0,1-.182-3.38V39.784a4.918,4.918,0,0,1,1.638-3.224,3.007,3.007,0,0,1,2.132-.78c1.742,0,2.548,1.04,2.548,3.328v5.824a20.548,20.548,0,0,1-.208,3.38h3.8a21.162,21.162,0,0,1-.208-3.38V38.51a5.384,5.384,0,0,0-1.222-3.952,5.131,5.131,0,0,0-3.9-1.482,5.744,5.744,0,0,0-2.912.676,6.016,6.016,0,0,0-2.184,2.054,3.37,3.37,0,0,0-.988-1.56,4.663,4.663,0,0,0-3.354-1.17,5.242,5.242,0,0,0-4.836,2.6c.026-.416.026-.806.026-.962V33.388h-3.484a22.742,22.742,0,0,1,.182,3.38v8.164a26.231,26.231,0,0,1-.182,3.38Zm26.052-14.924h-3.458a26.862,26.862,0,0,1,.182,3.484V49.95a29.106,29.106,0,0,1-.182,3.432h3.666a25.912,25.912,0,0,1-.182-3.458V47.948c0-.468,0-.936-.026-1.118-.026-.52-.026-.52-.026-.832a6.079,6.079,0,0,0,5.252,2.5c4.42,0,7.046-2.886,7.046-7.67a8.106,8.106,0,0,0-2.054-5.98,6.717,6.717,0,0,0-4.94-1.82,6.054,6.054,0,0,0-5.3,2.548c.026-.338.026-.624.026-.91Zm8.892,7.384c0,3.068-1.586,4.992-4.134,4.992-2.7,0-4.628-2.08-4.628-5.044a4.642,4.642,0,0,1,4.524-4.914C186.992,35.806,188.6,37.7,188.6,40.772Zm16.562-7.384a27.43,27.43,0,0,1,.208,3.38V42.02c-1.17,2.574-2.652,3.848-4.524,3.848a3.235,3.235,0,0,1-1.43-.364c-.806-.494-1.2-1.456-1.2-2.964V36.768a23.27,23.27,0,0,1,.182-3.38h-3.77a23.9,23.9,0,0,1,.208,3.38v6.578c0,2.132.676,3.588,2.106,4.5a6.6,6.6,0,0,0,8.45-2.028c-.026.65-.026.728-.026,1.118v1.378h3.536a21.369,21.369,0,0,1-.208-3.38V36.768a18.824,18.824,0,0,1,.208-3.38Zm8.736-4a29.929,29.929,0,0,1,.182,3.2v.806h-.962a11.942,11.942,0,0,1-2.34-.156V36.3a13.129,13.129,0,0,1,2.314-.156h.988V44.88c0,2.73,1.2,3.8,4.186,3.8a8.136,8.136,0,0,0,3.25-.546l-.468-2.756a3.439,3.439,0,0,1-1.9.572c-1.248,0-1.716-.468-1.716-1.742v-8.06h1.17a14.335,14.335,0,0,1,2.548.156V33.232a14.937,14.937,0,0,1-2.626.156h-1.092v-.806a28.756,28.756,0,0,1,.182-3.2Zm19.422,18.928h3.51a20.913,20.913,0,0,1-.208-3.25V38.068c0-1.768-.338-2.756-1.222-3.588-1.118-1.092-2.626-1.534-5.122-1.534a7.785,7.785,0,0,0-4.966,1.326,5.433,5.433,0,0,0-2.054,2.886l3.328.6a2.833,2.833,0,0,1,1.04-1.664,4.691,4.691,0,0,1,2.7-.754c1.976,0,2.99.78,2.99,2.288v1.326c-3.718.078-5.642.338-7.332,1.04a4.612,4.612,0,0,0-2.938,4.212c0,2.73,1.924,4.368,5.1,4.368a9.2,9.2,0,0,0,2.418-.312,5.638,5.638,0,0,0,2.756-1.638Zm0-5.8a3.1,3.1,0,0,1-.936,2.288,5.279,5.279,0,0,1-3.614,1.378c-1.456,0-2.366-.754-2.366-1.976,0-2.028,1.95-2.886,6.916-2.99Zm18.278,5.8h3.458a27.292,27.292,0,0,1-.182-3.51V31.1a30.318,30.318,0,0,1,.182-3.484h-3.666a26.5,26.5,0,0,1,.182,3.51v2.6c0,.442,0,.936.026,1.118.026.52.026.52.026.832a6.621,6.621,0,0,0-1.326-1.43,6.171,6.171,0,0,0-3.952-1.2c-4.29,0-7.02,3.016-7.02,7.774a8.047,8.047,0,0,0,2.7,6.526,6.611,6.611,0,0,0,4.342,1.326,5.551,5.551,0,0,0,5.252-2.574c-.026.338-.026.624-.026.936ZM242.71,40.85c0-3.094,1.612-5.07,4.134-5.07a4.76,4.76,0,0,1,3.38,1.456,5.4,5.4,0,0,1,1.248,3.458,5.881,5.881,0,0,1-1.014,3.484,4.348,4.348,0,0,1-3.484,1.716C244.374,45.894,242.71,43.944,242.71,40.85Zm22.75,7.956c4.628,0,7.67-3.172,7.67-7.982s-2.99-7.878-7.7-7.878c-4.732,0-7.748,3.094-7.748,7.93C257.686,45.738,260.7,48.806,265.46,48.806Zm-.026-13.156c2.756,0,4.342,1.924,4.342,5.278,0,3.172-1.664,5.122-4.368,5.122s-4.368-1.976-4.368-5.174C261.04,37.626,262.7,35.65,265.434,35.65Zm21.19-2.262a13.481,13.481,0,0,0-2.418-.286,4.974,4.974,0,0,0-4.888,2.73V33.388h-3.536a20.555,20.555,0,0,1,.182,3.38v8.164a28.517,28.517,0,0,1-.182,3.38H279.5a27.349,27.349,0,0,1-.182-3.38v-4.81a4.185,4.185,0,0,1,1.066-2.6,3.711,3.711,0,0,1,3.016-1.274,7.764,7.764,0,0,1,2.314.416Zm5.694,11.128H288.5v3.8h2.184c-.026,1.612-.39,2.08-1.976,2.522l.936,1.378c2.106-.832,2.678-1.664,2.678-3.9ZM15.158,85.626a8.654,8.654,0,0,0-.91-1.9A6.725,6.725,0,0,0,8.424,80.92,7.12,7.12,0,0,0,3.2,82.9,8.407,8.407,0,0,0,.988,88.9c0,4.81,2.964,7.9,7.54,7.9a6.757,6.757,0,0,0,5.72-2.626,7.279,7.279,0,0,0,1.092-2.21l-3.224-.65a3.634,3.634,0,0,1-.52,1.3,3.481,3.481,0,0,1-2.99,1.456c-2.626,0-4.238-2-4.238-5.252C4.368,85.6,5.954,83.6,8.5,83.6a3.271,3.271,0,0,1,2.678,1.2,4.685,4.685,0,0,1,.806,1.586Zm9.854,11.18c4.628,0,7.67-3.172,7.67-7.982s-2.99-7.878-7.7-7.878c-4.732,0-7.748,3.094-7.748,7.93C17.238,93.738,20.254,96.806,25.012,96.806ZM24.986,83.65c2.756,0,4.342,1.924,4.342,5.278,0,3.172-1.664,5.122-4.368,5.122s-4.368-1.976-4.368-5.174C20.592,85.626,22.256,83.65,24.986,83.65ZM38.948,96.312a27.06,27.06,0,0,1-.182-3.38V87.784a5.871,5.871,0,0,1,1.118-2.6,3.221,3.221,0,0,1,2.678-1.352c1.69,0,2.522,1.092,2.522,3.276v5.824a21.16,21.16,0,0,1-.208,3.38H48.62a25.435,25.435,0,0,1-.182-3.38V87.784a4.918,4.918,0,0,1,1.638-3.224,3.007,3.007,0,0,1,2.132-.78c1.742,0,2.548,1.04,2.548,3.328v5.824a20.546,20.546,0,0,1-.208,3.38h3.8a21.16,21.16,0,0,1-.208-3.38V86.51a5.384,5.384,0,0,0-1.222-3.952,5.131,5.131,0,0,0-3.9-1.482,5.744,5.744,0,0,0-2.912.676,6.016,6.016,0,0,0-2.184,2.054,3.37,3.37,0,0,0-.988-1.56,4.663,4.663,0,0,0-3.354-1.17,5.242,5.242,0,0,0-4.836,2.6c.026-.416.026-.806.026-.962V81.388H35.282a22.743,22.743,0,0,1,.182,3.38v8.164a26.232,26.232,0,0,1-.182,3.38Zm44.8-10.686a8.655,8.655,0,0,0-.91-1.9,6.725,6.725,0,0,0-5.824-2.808A7.12,7.12,0,0,0,71.786,82.9a8.407,8.407,0,0,0-2.21,6.006c0,4.81,2.964,7.9,7.54,7.9a6.757,6.757,0,0,0,5.72-2.626,7.28,7.28,0,0,0,1.092-2.21L80.7,91.32a3.634,3.634,0,0,1-.52,1.3,3.481,3.481,0,0,1-2.99,1.456c-2.626,0-4.238-2-4.238-5.252,0-3.224,1.586-5.226,4.134-5.226a3.271,3.271,0,0,1,2.678,1.2,4.685,4.685,0,0,1,.806,1.586ZM93.6,96.806c4.628,0,7.67-3.172,7.67-7.982s-2.99-7.878-7.7-7.878c-4.732,0-7.748,3.094-7.748,7.93C85.826,93.738,88.842,96.806,93.6,96.806ZM93.574,83.65c2.756,0,4.342,1.924,4.342,5.278,0,3.172-1.664,5.122-4.368,5.122s-4.368-1.976-4.368-5.174C89.18,85.626,90.844,83.65,93.574,83.65Zm14.04,12.662a23.133,23.133,0,0,1-.208-3.38V87.68c1.144-2.574,2.678-3.874,4.55-3.874a2.445,2.445,0,0,1,2.184,1.066,4.271,4.271,0,0,1,.442,2.288v5.772a27.63,27.63,0,0,1-.182,3.38h3.77a20.546,20.546,0,0,1-.208-3.38v-6.24a5.781,5.781,0,0,0-.884-3.64,5.137,5.137,0,0,0-4.42-1.924c-2.34,0-3.718.728-5.3,2.756a10.159,10.159,0,0,0,.052-1.118V81.388H103.87a21.37,21.37,0,0,1,.208,3.38v8.164a21.581,21.581,0,0,1-.208,3.38Zm27.742-6.6c-.052-.6-.052-.676-.052-.728a10.689,10.689,0,0,0-.754-3.952,6.605,6.605,0,0,0-6.474-4.108c-4.446,0-7.332,3.146-7.332,7.956,0,4.862,2.912,7.93,7.514,7.93a7.384,7.384,0,0,0,5.356-2,7.307,7.307,0,0,0,1.586-2.392l-3.068-.988a3.779,3.779,0,0,1-.754,1.352,4.374,4.374,0,0,1-6.37-.156,4.833,4.833,0,0,1-.962-2.912Zm-11.232-2.574a3.9,3.9,0,0,1,3.9-3.536,3.708,3.708,0,0,1,2.808,1.04,4.081,4.081,0,0,1,1.144,2.5ZM152,96.312c-.7-.858-1.56-1.976-1.924-2.5l-3.8-5.3,3.51-4.888c.416-.6.832-1.17,1.664-2.236h-4.03a12.869,12.869,0,0,1-1.092,1.976l-1.976,2.912-2-2.912a12.254,12.254,0,0,1-1.092-1.976H137.2c1.17,1.508,1.378,1.794,1.664,2.184l3.536,4.94-3.9,5.46c-.442.6-1.248,1.638-1.82,2.34h4.186a14.043,14.043,0,0,1,1.118-1.976l2.34-3.484,2.262,3.328a13.873,13.873,0,0,1,1.222,2.132ZM164.255,96H161.4V93.969h-.051A4.3,4.3,0,0,1,157.4,96.3a4.159,4.159,0,0,1-3-1.041,3.641,3.641,0,0,1-1.085-2.755q0-3.682,4.24-4.291l3.859-.546q0-2.78-2.641-2.78a6.273,6.273,0,0,0-4.189,1.6V83.914A9.136,9.136,0,0,1,159.33,82.7q4.926,0,4.926,4.85Zm-2.844-6.386L158.682,90a4.326,4.326,0,0,0-1.911.616,1.8,1.8,0,0,0-.641,1.581,1.73,1.73,0,0,0,.59,1.352,2.286,2.286,0,0,0,1.581.527,2.916,2.916,0,0,0,2.228-.946,3.353,3.353,0,0,0,.882-2.38Zm2.019-12.34a4.1,4.1,0,0,1-.654,2.406,2.054,2.054,0,0,1-1.771.933A4.681,4.681,0,0,1,158.911,80a3.455,3.455,0,0,0-1.536-.571q-1.066,0-1.066,1.409h-1.46a4.082,4.082,0,0,1,.647-2.418,2.1,2.1,0,0,1,1.815-.908,4.137,4.137,0,0,1,1.993.647,3.177,3.177,0,0,0,1.587.559q1.028,0,1.028-1.447Zm11.263,19.532c4.628,0,7.67-3.172,7.67-7.982s-2.99-7.878-7.7-7.878c-4.732,0-7.748,3.094-7.748,7.93C166.919,93.738,169.935,96.806,174.693,96.806Zm-.026-13.156c2.756,0,4.342,1.924,4.342,5.278,0,3.172-1.664,5.122-4.368,5.122s-4.368-1.976-4.368-5.174C170.273,85.626,171.937,83.65,174.667,83.65Zm18.954-8.034v3.3h3.822v-3.3Zm0,5.772a21.369,21.369,0,0,1,.208,3.38v8.164a23.366,23.366,0,0,1-.208,3.38h3.8a26.118,26.118,0,0,1-.182-3.406V84.794a23.37,23.37,0,0,1,.182-3.406Zm10.79,14.924a23.133,23.133,0,0,1-.208-3.38V87.68c1.144-2.574,2.678-3.874,4.55-3.874a2.445,2.445,0,0,1,2.184,1.066,4.271,4.271,0,0,1,.442,2.288v5.772a27.63,27.63,0,0,1-.182,3.38h3.77a20.546,20.546,0,0,1-.208-3.38v-6.24a5.781,5.781,0,0,0-.884-3.64,5.137,5.137,0,0,0-4.42-1.924c-2.34,0-3.718.728-5.3,2.756a10.159,10.159,0,0,0,.052-1.118V81.388h-3.536a21.369,21.369,0,0,1,.208,3.38v8.164a21.58,21.58,0,0,1-.208,3.38Zm15.912-12.194v8.814a27.922,27.922,0,0,1-.182,3.38h3.718a25.7,25.7,0,0,1-.182-3.38V84.118h1.274a22.375,22.375,0,0,1,2.886.156V81.232a28.555,28.555,0,0,1-2.938.156h-1.222V80.322c0-1.794.52-2.418,2.028-2.418a4.3,4.3,0,0,1,2.314.624l.7-2.73a9.4,9.4,0,0,0-3.224-.52c-3.536,0-5.174,1.508-5.174,4.732v1.378h-1.066a17.039,17.039,0,0,1-2.444-.156v3.042a17.685,17.685,0,0,1,2.47-.156Zm10.244-8.5v3.3h3.822v-3.3Zm0,5.772a21.369,21.369,0,0,1,.208,3.38v8.164a23.366,23.366,0,0,1-.208,3.38h3.8a26.118,26.118,0,0,1-.182-3.406V84.794a23.37,23.37,0,0,1,.182-3.406Zm10.79,14.924a23.133,23.133,0,0,1-.208-3.38V87.68c1.144-2.574,2.678-3.874,4.55-3.874a2.445,2.445,0,0,1,2.184,1.066,4.271,4.271,0,0,1,.442,2.288v5.772a27.63,27.63,0,0,1-.182,3.38h3.77a20.546,20.546,0,0,1-.208-3.38v-6.24a5.781,5.781,0,0,0-.884-3.64,5.137,5.137,0,0,0-4.42-1.924c-2.34,0-3.718.728-5.3,2.756a10.159,10.159,0,0,0,.052-1.118V81.388h-3.536a21.369,21.369,0,0,1,.208,3.38v8.164a21.58,21.58,0,0,1-.208,3.38Zm13.754-20.7v3.3h3.822v-3.3Zm0,5.772a21.369,21.369,0,0,1,.208,3.38v8.164a23.366,23.366,0,0,1-.208,3.38h3.8a26.123,26.123,0,0,1-.182-3.406V84.794a23.375,23.375,0,0,1,.182-3.406Zm8.788-4a29.925,29.925,0,0,1,.182,3.2v.806h-.962a11.942,11.942,0,0,1-2.34-.156V84.3a13.129,13.129,0,0,1,2.314-.156h.988V92.88c0,2.73,1.2,3.8,4.186,3.8a8.136,8.136,0,0,0,3.25-.546l-.468-2.756a3.439,3.439,0,0,1-1.9.572c-1.248,0-1.716-.468-1.716-1.742v-8.06h1.17a14.335,14.335,0,0,1,2.548.156V81.232a14.938,14.938,0,0,1-2.626.156h-1.092v-.806a28.756,28.756,0,0,1,.182-3.2Zm19.422,18.928h3.51a20.91,20.91,0,0,1-.208-3.25V86.068c0-1.768-.338-2.756-1.222-3.588-1.118-1.092-2.626-1.534-5.122-1.534a7.785,7.785,0,0,0-4.966,1.326,5.433,5.433,0,0,0-2.054,2.886l3.328.6a2.833,2.833,0,0,1,1.04-1.664,4.691,4.691,0,0,1,2.7-.754c1.976,0,2.99.78,2.99,2.288v1.326c-3.718.078-5.642.338-7.332,1.04a4.612,4.612,0,0,0-2.938,4.212c0,2.73,1.924,4.368,5.1,4.368a9.2,9.2,0,0,0,2.418-.312,5.638,5.638,0,0,0,2.756-1.638Zm0-5.8a3.1,3.1,0,0,1-.936,2.288,5.279,5.279,0,0,1-3.614,1.378c-1.456,0-2.366-.754-2.366-1.976,0-2.028,1.95-2.886,6.916-2.99Z" transform="translate(2520.012 -389)"/>
    </g>
  </g>
</svg>
