<svg xmlns="http://www.w3.org/2000/svg" xmlns:xlink="http://www.w3.org/1999/xlink" width="1820" height="880" viewBox="0 0 1820 880">
  <defs>
    <clipPath id="clip-path">
      <rect id="矩形_2683" data-name="矩形 2683" width="1820" height="880" transform="translate(50 88)" fill="#fff"/>
    </clipPath>
  </defs>
  <g id="组_21876" data-name="组 21876" transform="translate(-6399 2186)">
    <g id="蒙版组_32" data-name="蒙版组 32" transform="translate(6349 -2274)" clip-path="url(#clip-path)">
      <g id="组_21875" data-name="组 21875">
        <g id="组_21874" data-name="组 21874" transform="translate(-6309 1354)">
          <g id="组_21870" data-name="组 21870" transform="translate(6279 -1368)">
            <path id="路径_39856" data-name="路径 39856" d="M29.088-37.632a36.216,36.216,0,0,1,.384,6.192v9.216h-19.3v-9.264a39.338,39.338,0,0,1,.384-6.144H3.408a36.575,36.575,0,0,1,.384,6.192V-5.616A36.216,36.216,0,0,1,3.408.576H10.56a37.675,37.675,0,0,1-.384-6.192V-16.464h19.3V-5.616A36.575,36.575,0,0,1,29.088.576H36.24a38.049,38.049,0,0,1-.384-6.192V-31.488a37.419,37.419,0,0,1,.384-6.144ZM61.056-26.976a50.641,50.641,0,0,1,.384,6.24v9.7c-2.16,4.752-4.9,7.1-8.352,7.1a5.972,5.972,0,0,1-2.64-.672C48.96-5.52,48.24-7.3,48.24-10.08V-20.736a42.962,42.962,0,0,1,.336-6.24h-6.96A44.12,44.12,0,0,1,42-20.736V-8.592c0,3.936,1.248,6.624,3.888,8.3A10.456,10.456,0,0,0,51.648,1.1c4.56,0,7.2-1.392,9.84-5.136-.048,1.2-.048,1.344-.048,2.064V.576h6.528a39.451,39.451,0,0,1-.384-6.24V-20.736a34.753,34.753,0,0,1,.384-6.24ZM79.776.576a49.956,49.956,0,0,1-.336-6.24v-9.5a10.838,10.838,0,0,1,2.064-4.8,5.946,5.946,0,0,1,4.944-2.5c3.12,0,4.656,2.016,4.656,6.048V-5.664A39.066,39.066,0,0,1,90.72.576h6.912a46.956,46.956,0,0,1-.336-6.24v-9.5c.576-2.976,1.344-4.512,3.024-5.952a5.552,5.552,0,0,1,3.936-1.44c3.216,0,4.7,1.92,4.7,6.144V-5.664a37.933,37.933,0,0,1-.384,6.24h7.008a39.065,39.065,0,0,1-.384-6.24V-17.52c0-3.408-.672-5.568-2.256-7.3a9.473,9.473,0,0,0-7.2-2.736,10.6,10.6,0,0,0-5.376,1.248c-1.488.768-2.4,1.632-4.032,3.792a6.222,6.222,0,0,0-1.824-2.88,8.609,8.609,0,0,0-6.192-2.16c-3.984,0-7.536,1.872-8.928,4.8.048-.768.048-1.488.048-1.776v-2.448H73.008a41.986,41.986,0,0,1,.336,6.24V-5.664a48.427,48.427,0,0,1-.336,6.24Zm58.992,0h6.48a38.606,38.606,0,0,1-.384-6V-18.336c0-3.264-.624-5.088-2.256-6.624-2.064-2.016-4.848-2.832-9.456-2.832-4.128,0-6.816.72-9.168,2.448-1.824,1.3-2.688,2.544-3.792,5.328l6.144,1.1a5.23,5.23,0,0,1,1.92-3.072,8.66,8.66,0,0,1,4.992-1.392c3.648,0,5.52,1.44,5.52,4.224V-16.7c-6.864.144-10.416.624-13.536,1.92a8.515,8.515,0,0,0-5.424,7.776c0,5.04,3.552,8.064,9.408,8.064A16.984,16.984,0,0,0,133.68.48a10.408,10.408,0,0,0,5.088-3.024Zm0-10.7A5.72,5.72,0,0,1,137.04-5.9a9.747,9.747,0,0,1-6.672,2.544C127.68-3.36,126-4.752,126-7.008c0-3.744,3.6-5.328,12.768-5.52ZM156.912.576a42.709,42.709,0,0,1-.384-6.24v-9.7c2.112-4.752,4.944-7.152,8.4-7.152a4.515,4.515,0,0,1,4.032,1.968,7.885,7.885,0,0,1,.816,4.224V-5.664a51.01,51.01,0,0,1-.336,6.24h6.96a37.931,37.931,0,0,1-.384-6.24v-11.52c0-3.216-.48-5.136-1.632-6.72-1.728-2.352-4.464-3.552-8.16-3.552-4.32,0-6.864,1.344-9.792,5.088a18.756,18.756,0,0,0,.1-2.064v-2.544H150a39.45,39.45,0,0,1,.384,6.24V-5.664A39.841,39.841,0,0,1,150,.576ZM180-10.8a26.419,26.419,0,0,1,4.512-.288h7.44a26.34,26.34,0,0,1,4.56.288v-6.384a30.314,30.314,0,0,1-4.56.288h-7.44A30.073,30.073,0,0,1,180-17.184ZM206.928.576a49.956,49.956,0,0,1-.336-6.24v-9.5a10.838,10.838,0,0,1,2.064-4.8,5.946,5.946,0,0,1,4.944-2.5c3.12,0,4.656,2.016,4.656,6.048V-5.664a39.066,39.066,0,0,1-.384,6.24h6.912a46.956,46.956,0,0,1-.336-6.24v-9.5c.576-2.976,1.344-4.512,3.024-5.952a5.552,5.552,0,0,1,3.936-1.44c3.216,0,4.7,1.92,4.7,6.144V-5.664a37.933,37.933,0,0,1-.384,6.24h7.008a39.066,39.066,0,0,1-.384-6.24V-17.52c0-3.408-.672-5.568-2.256-7.3a9.473,9.473,0,0,0-7.2-2.736A10.6,10.6,0,0,0,227.52-26.3c-1.488.768-2.4,1.632-4.032,3.792a6.222,6.222,0,0,0-1.824-2.88,8.609,8.609,0,0,0-6.192-2.16c-3.984,0-7.536,1.872-8.928,4.8.048-.768.048-1.488.048-1.776v-2.448H200.16a41.986,41.986,0,0,1,.336,6.24V-5.664a48.427,48.427,0,0,1-.336,6.24Zm58.992,0h6.48a38.606,38.606,0,0,1-.384-6V-18.336c0-3.264-.624-5.088-2.256-6.624-2.064-2.016-4.848-2.832-9.456-2.832-4.128,0-6.816.72-9.168,2.448-1.824,1.3-2.688,2.544-3.792,5.328l6.144,1.1a5.23,5.23,0,0,1,1.92-3.072,8.66,8.66,0,0,1,4.992-1.392c3.648,0,5.52,1.44,5.52,4.224V-16.7c-6.864.144-10.416.624-13.536,1.92a8.515,8.515,0,0,0-5.424,7.776c0,5.04,3.552,8.064,9.408,8.064A16.984,16.984,0,0,0,260.832.48a10.408,10.408,0,0,0,5.088-3.024Zm0-10.7A5.72,5.72,0,0,1,264.192-5.9,9.746,9.746,0,0,1,257.52-3.36c-2.688,0-4.368-1.392-4.368-3.648,0-3.744,3.6-5.328,12.768-5.52Zm36.24-9.024a15.977,15.977,0,0,0-1.68-3.5c-2.3-3.36-6.048-5.184-10.752-5.184a13.144,13.144,0,0,0-9.648,3.648A15.521,15.521,0,0,0,276-13.1c0,8.88,5.472,14.592,13.92,14.592,4.56,0,8.256-1.68,10.56-4.848A13.439,13.439,0,0,0,302.5-7.44l-5.952-1.2a6.709,6.709,0,0,1-.96,2.4,6.426,6.426,0,0,1-5.52,2.688c-4.848,0-7.824-3.7-7.824-9.7,0-5.952,2.928-9.648,7.632-9.648a6.039,6.039,0,0,1,4.944,2.208A8.649,8.649,0,0,1,296.3-17.76Zm4.08-18.48a44.915,44.915,0,0,1,.336,6.288v25.68a39.452,39.452,0,0,1-.384,6.24H313.1a42.709,42.709,0,0,1-.384-6.24v-9.7c2.16-4.8,4.944-7.1,8.544-7.1a4.456,4.456,0,0,1,3.312,1.392c.912.96,1.392,2.544,1.392,4.752V-5.664a51.007,51.007,0,0,1-.336,6.24h6.96a37.932,37.932,0,0,1-.384-6.24v-12.1c0-6.192-3.5-9.7-9.648-9.7-4.368,0-6.96,1.344-9.936,5.088a19.685,19.685,0,0,0,.1-2.064V-31.3a46.133,46.133,0,0,1,.336-6.336Zm31.3,0v6.1h7.056v-6.1Zm0,10.656a39.452,39.452,0,0,1,.384,6.24V-5.664a43.139,43.139,0,0,1-.384,6.24h7.008a48.215,48.215,0,0,1-.336-6.288V-20.688a43.143,43.143,0,0,1,.336-6.288ZM356.5.576a42.709,42.709,0,0,1-.384-6.24v-9.7c2.112-4.752,4.944-7.152,8.4-7.152a4.515,4.515,0,0,1,4.032,1.968,7.885,7.885,0,0,1,.816,4.224V-5.664a51.013,51.013,0,0,1-.336,6.24h6.96a37.932,37.932,0,0,1-.384-6.24v-11.52c0-3.216-.48-5.136-1.632-6.72-1.728-2.352-4.464-3.552-8.16-3.552-4.32,0-6.864,1.344-9.792,5.088a18.753,18.753,0,0,0,.1-2.064v-2.544h-6.528a39.452,39.452,0,0,1,.384,6.24V-5.664a39.843,39.843,0,0,1-.384,6.24Zm50.256-12.192c-.1-1.1-.1-1.248-.1-1.344a19.733,19.733,0,0,0-1.392-7.3c-1.92-4.8-6.336-7.584-11.952-7.584-8.208,0-13.536,5.808-13.536,14.688,0,8.976,5.376,14.64,13.872,14.64a13.631,13.631,0,0,0,9.888-3.7,13.49,13.49,0,0,0,2.928-4.416L400.8-8.448a6.976,6.976,0,0,1-1.392,2.5,7.59,7.59,0,0,1-5.76,2.4,7.544,7.544,0,0,1-6-2.688c-1.1-1.392-1.536-2.736-1.776-5.376Zm-20.736-4.752c.72-4.032,3.456-6.528,7.2-6.528a6.845,6.845,0,0,1,5.184,1.92,7.534,7.534,0,0,1,2.112,4.608Zm38.352,9.12a10.8,10.8,0,0,0,1.872,4.272C428.3-.192,432,1.3,436.944,1.3c4.368,0,7.728-1.056,9.936-3.12a7.718,7.718,0,0,0,2.352-5.424,6.822,6.822,0,0,0-2.784-5.952c-1.584-1.2-3.552-1.872-8.448-2.928a20.218,20.218,0,0,1-4.8-1.44,2.587,2.587,0,0,1-1.488-2.256c0-2.016,2.016-3.36,4.992-3.36,3.12,0,4.752,1.152,5.28,3.792l6.336-.816a9.344,9.344,0,0,0-2.592-4.752c-1.968-1.824-5.088-2.784-9.024-2.784-4.368,0-7.632,1.248-9.6,3.744a7.142,7.142,0,0,0-1.488,4.464,6.873,6.873,0,0,0,4.224,6.384,29.017,29.017,0,0,0,6.912,2.064c3.84.864,4.128.912,5.04,1.536a2.935,2.935,0,0,1,1.248,2.4c0,2.256-2.208,3.648-5.76,3.648-3.744,0-5.52-1.3-6.336-4.56Zm37.872,5.9-1.632,3.7a4.006,4.006,0,0,1-3.744,2.4,7.966,7.966,0,0,1-3.36-.816l-1.1,5.472a24.786,24.786,0,0,0,5.04.576c4.464,0,7.3-1.68,8.832-5.328l10.944-25.68c1.44-3.36,2.3-5.328,2.592-5.952h-7.152a28.708,28.708,0,0,1-1.824,5.664L465.5-7.728,459.648-21.36a27.8,27.8,0,0,1-1.824-5.616h-7.3c.576,1.056.624,1.2,2.736,5.952ZM489.024.576a49.959,49.959,0,0,1-.336-6.24v-9.5a10.838,10.838,0,0,1,2.064-4.8,5.946,5.946,0,0,1,4.944-2.5c3.12,0,4.656,2.016,4.656,6.048V-5.664a39.062,39.062,0,0,1-.384,6.24h6.912a46.959,46.959,0,0,1-.336-6.24v-9.5c.576-2.976,1.344-4.512,3.024-5.952a5.552,5.552,0,0,1,3.936-1.44c3.216,0,4.7,1.92,4.7,6.144V-5.664a37.929,37.929,0,0,1-.384,6.24h7.008a39.062,39.062,0,0,1-.384-6.24V-17.52c0-3.408-.672-5.568-2.256-7.3a9.473,9.473,0,0,0-7.2-2.736,10.6,10.6,0,0,0-5.376,1.248c-1.488.768-2.4,1.632-4.032,3.792a6.222,6.222,0,0,0-1.824-2.88,8.609,8.609,0,0,0-6.192-2.16c-3.984,0-7.536,1.872-8.928,4.8.048-.768.048-1.488.048-1.776v-2.448h-6.432a41.989,41.989,0,0,1,.336,6.24V-5.664a48.43,48.43,0,0,1-.336,6.24Zm47.136,0V-1.776c0-.576,0-1.1-.048-1.728,2.4,3.36,5.136,4.752,9.552,4.752q5.832,0,9.216-3.456c2.592-2.688,3.936-6.528,3.936-11.232,0-8.928-4.752-14.16-12.816-14.16a11.189,11.189,0,0,0-9.888,4.848c.048-1.632.1-2.832.1-3.6v-4.8a48.924,48.924,0,0,1,.336-6.48h-6.768a55.977,55.977,0,0,1,.336,6.432V-5.9a50.389,50.389,0,0,1-.336,6.48ZM552.576-13.44c0,5.808-3.12,9.552-7.968,9.552a8.362,8.362,0,0,1-5.04-1.776,10.012,10.012,0,0,1-3.168-7.584,10.338,10.338,0,0,1,2.352-6.672,8.565,8.565,0,0,1,6.528-2.64C549.7-22.56,552.576-18.96,552.576-13.44ZM562.7-37.632v6.1h7.056v-6.1Zm0,10.656a39.456,39.456,0,0,1,.384,6.24V-5.664A43.143,43.143,0,0,1,562.7.576h7.008a48.221,48.221,0,0,1-.336-6.288V-20.688a43.147,43.147,0,0,1,.336-6.288ZM587.952,1.488c8.544,0,14.16-5.856,14.16-14.736s-5.52-14.544-14.208-14.544c-8.736,0-14.3,5.712-14.3,14.64C573.6-4.176,579.168,1.488,587.952,1.488ZM587.9-22.8c5.088,0,8.016,3.552,8.016,9.744,0,5.856-3.072,9.456-8.064,9.456s-8.064-3.648-8.064-9.552C579.792-19.152,582.864-22.8,587.9-22.8ZM604.752-7.248a10.8,10.8,0,0,0,1.872,4.272c2.064,2.784,5.76,4.272,10.7,4.272,4.368,0,7.728-1.056,9.936-3.12a7.718,7.718,0,0,0,2.352-5.424,6.822,6.822,0,0,0-2.784-5.952c-1.584-1.2-3.552-1.872-8.448-2.928a20.219,20.219,0,0,1-4.8-1.44,2.587,2.587,0,0,1-1.488-2.256c0-2.016,2.016-3.36,4.992-3.36,3.12,0,4.752,1.152,5.28,3.792l6.336-.816a9.344,9.344,0,0,0-2.592-4.752c-1.968-1.824-5.088-2.784-9.024-2.784-4.368,0-7.632,1.248-9.6,3.744A7.141,7.141,0,0,0,606-19.536a6.873,6.873,0,0,0,4.224,6.384,29.017,29.017,0,0,0,6.912,2.064c3.84.864,4.128.912,5.04,1.536a2.935,2.935,0,0,1,1.248,2.4c0,2.256-2.208,3.648-5.76,3.648-3.744,0-5.52-1.3-6.336-4.56Zm28.7-30.384v6.1h7.056v-6.1Zm0,10.656a39.456,39.456,0,0,1,.384,6.24V-5.664a43.143,43.143,0,0,1-.384,6.24h7.008a48.221,48.221,0,0,1-.336-6.288V-20.688a43.147,43.147,0,0,1,.336-6.288ZM644.3-7.248a10.8,10.8,0,0,0,1.872,4.272c2.064,2.784,5.76,4.272,10.7,4.272,4.368,0,7.728-1.056,9.936-3.12a7.718,7.718,0,0,0,2.352-5.424,6.822,6.822,0,0,0-2.784-5.952c-1.584-1.2-3.552-1.872-8.448-2.928a20.219,20.219,0,0,1-4.8-1.44,2.587,2.587,0,0,1-1.488-2.256c0-2.016,2.016-3.36,4.992-3.36,3.12,0,4.752,1.152,5.28,3.792l6.336-.816a9.344,9.344,0,0,0-2.592-4.752c-1.968-1.824-5.088-2.784-9.024-2.784-4.368,0-7.632,1.248-9.6,3.744a7.141,7.141,0,0,0-1.488,4.464,6.873,6.873,0,0,0,4.224,6.384,29.017,29.017,0,0,0,6.912,2.064c3.84.864,4.128.912,5.04,1.536a2.935,2.935,0,0,1,1.248,2.4c0,2.256-2.208,3.648-5.76,3.648-3.744,0-5.52-1.3-6.336-4.56Zm-616.32,88.1a15.977,15.977,0,0,0-1.68-3.5c-2.3-3.36-6.048-5.184-10.752-5.184A13.144,13.144,0,0,0,5.9,75.808,15.521,15.521,0,0,0,1.824,86.9c0,8.88,5.472,14.592,13.92,14.592,4.56,0,8.256-1.68,10.56-4.848a13.439,13.439,0,0,0,2.016-4.08l-5.952-1.2a6.709,6.709,0,0,1-.96,2.4,6.426,6.426,0,0,1-5.52,2.688c-4.848,0-7.824-3.7-7.824-9.7,0-5.952,2.928-9.648,7.632-9.648a6.039,6.039,0,0,1,4.944,2.208,8.649,8.649,0,0,1,1.488,2.928Zm17.232,20.64c8.544,0,14.16-5.856,14.16-14.736s-5.52-14.544-14.208-14.544c-8.736,0-14.3,5.712-14.3,14.64C30.864,95.824,36.432,101.488,45.216,101.488ZM45.168,77.2c5.088,0,8.016,3.552,8.016,9.744,0,5.856-3.072,9.456-8.064,9.456s-8.064-3.648-8.064-9.552C37.056,80.848,40.128,77.2,45.168,77.2Zm24.96,23.376a42.708,42.708,0,0,1-.384-6.24v-9.7c2.112-4.752,4.944-7.152,8.4-7.152a4.515,4.515,0,0,1,4.032,1.968,7.885,7.885,0,0,1,.816,4.224V94.336a51.012,51.012,0,0,1-.336,6.24h6.96a37.932,37.932,0,0,1-.384-6.24V82.816c0-3.216-.48-5.136-1.632-6.72-1.728-2.352-4.464-3.552-8.16-3.552-4.32,0-6.864,1.344-9.792,5.088a18.755,18.755,0,0,0,.1-2.064V73.024H63.216a39.451,39.451,0,0,1,.384,6.24V94.336a39.842,39.842,0,0,1-.384,6.24Zm31.344,0a42.708,42.708,0,0,1-.384-6.24v-9.7c2.112-4.752,4.944-7.152,8.4-7.152a4.515,4.515,0,0,1,4.032,1.968,7.885,7.885,0,0,1,.816,4.224V94.336a51.01,51.01,0,0,1-.336,6.24h6.96a37.931,37.931,0,0,1-.384-6.24V82.816c0-3.216-.48-5.136-1.632-6.72-1.728-2.352-4.464-3.552-8.16-3.552-4.32,0-6.864,1.344-9.792,5.088a18.757,18.757,0,0,0,.1-2.064V73.024H94.56a39.451,39.451,0,0,1,.384,6.24V94.336a39.841,39.841,0,0,1-.384,6.24Zm50.256-12.192c-.1-1.1-.1-1.248-.1-1.344a19.732,19.732,0,0,0-1.392-7.3c-1.92-4.8-6.336-7.584-11.952-7.584-8.208,0-13.536,5.808-13.536,14.688,0,8.976,5.376,14.64,13.872,14.64a13.631,13.631,0,0,0,9.888-3.7,13.49,13.49,0,0,0,2.928-4.416l-5.664-1.824a6.976,6.976,0,0,1-1.392,2.5,8.075,8.075,0,0,1-11.76-.288c-1.1-1.392-1.536-2.736-1.776-5.376Zm-20.736-4.752c.72-4.032,3.456-6.528,7.2-6.528a6.845,6.845,0,0,1,5.184,1.92,7.534,7.534,0,0,1,2.112,4.608Zm49.536-2.784a15.977,15.977,0,0,0-1.68-3.5c-2.3-3.36-6.048-5.184-10.752-5.184a13.144,13.144,0,0,0-9.648,3.648,15.521,15.521,0,0,0-4.08,11.088c0,8.88,5.472,14.592,13.92,14.592,4.56,0,8.256-1.68,10.56-4.848a13.439,13.439,0,0,0,2.016-4.08l-5.952-1.2a6.709,6.709,0,0,1-.96,2.4,6.426,6.426,0,0,1-5.52,2.688c-4.848,0-7.824-3.7-7.824-9.7,0-5.952,2.928-9.648,7.632-9.648a6.039,6.039,0,0,1,4.944,2.208,8.649,8.649,0,0,1,1.488,2.928Zm7.248-15.216a55.248,55.248,0,0,1,.336,5.9v1.488h-1.776a22.047,22.047,0,0,1-4.32-.288V78.4a24.239,24.239,0,0,1,4.272-.288h1.824V94.24c0,5.04,2.208,7.008,7.728,7.008a15.02,15.02,0,0,0,6-1.008l-.864-5.088a6.349,6.349,0,0,1-3.5,1.056c-2.3,0-3.168-.864-3.168-3.216V78.112h2.16a26.465,26.465,0,0,1,4.7.288V72.736a27.577,27.577,0,0,1-4.848.288H194.3V71.536a53.089,53.089,0,0,1,.336-5.9Zm15.456,27.12a10.8,10.8,0,0,0,1.872,4.272c2.064,2.784,5.76,4.272,10.7,4.272,4.368,0,7.728-1.056,9.936-3.12a7.718,7.718,0,0,0,2.352-5.424,6.822,6.822,0,0,0-2.784-5.952c-1.584-1.2-3.552-1.872-8.448-2.928a20.218,20.218,0,0,1-4.8-1.44,2.587,2.587,0,0,1-1.488-2.256c0-2.016,2.016-3.36,4.992-3.36,3.12,0,4.752,1.152,5.28,3.792l6.336-.816a9.344,9.344,0,0,0-2.592-4.752c-1.968-1.824-5.088-2.784-9.024-2.784-4.368,0-7.632,1.248-9.6,3.744a7.142,7.142,0,0,0-1.488,4.464,6.873,6.873,0,0,0,4.224,6.384,29.017,29.017,0,0,0,6.912,2.064c3.84.864,4.128.912,5.04,1.536a2.935,2.935,0,0,1,1.248,2.4c0,2.256-2.208,3.648-5.76,3.648-3.744,0-5.52-1.3-6.336-4.56Zm46.944-27.12a55.248,55.248,0,0,1,.336,5.9v1.488h-1.776a22.047,22.047,0,0,1-4.32-.288V78.4a24.239,24.239,0,0,1,4.272-.288h1.824V94.24c0,5.04,2.208,7.008,7.728,7.008a15.02,15.02,0,0,0,6-1.008l-.864-5.088a6.349,6.349,0,0,1-3.5,1.056c-2.3,0-3.168-.864-3.168-3.216V78.112h2.16a26.465,26.465,0,0,1,4.7.288V72.736a27.577,27.577,0,0,1-4.848.288H256.7V71.536a53.085,53.085,0,0,1,.336-5.9Zm16.7-3.264a44.915,44.915,0,0,1,.336,6.288v25.68a39.452,39.452,0,0,1-.384,6.24h6.912a42.709,42.709,0,0,1-.384-6.24v-9.7c2.16-4.8,4.944-7.1,8.544-7.1a4.456,4.456,0,0,1,3.312,1.392c.912.96,1.392,2.544,1.392,4.752V94.336a51.013,51.013,0,0,1-.336,6.24h6.96a37.932,37.932,0,0,1-.384-6.24V82.24c0-6.192-3.5-9.7-9.648-9.7-4.368,0-6.96,1.344-9.936,5.088a19.685,19.685,0,0,0,.1-2.064V68.7a46.133,46.133,0,0,1,.336-6.336ZM324,88.384c-.1-1.1-.1-1.248-.1-1.344a19.733,19.733,0,0,0-1.392-7.3c-1.92-4.8-6.336-7.584-11.952-7.584-8.208,0-13.536,5.808-13.536,14.688,0,8.976,5.376,14.64,13.872,14.64a13.631,13.631,0,0,0,9.888-3.7,13.49,13.49,0,0,0,2.928-4.416l-5.664-1.824a6.976,6.976,0,0,1-1.392,2.5,8.075,8.075,0,0,1-11.76-.288c-1.1-1.392-1.536-2.736-1.776-5.376Zm-20.736-4.752c.72-4.032,3.456-6.528,7.2-6.528a6.845,6.845,0,0,1,5.184,1.92,7.534,7.534,0,0,1,2.112,4.608Zm39.552-21.264v6.1h7.056v-6.1Zm0,10.656a39.452,39.452,0,0,1,.384,6.24V94.336a43.139,43.139,0,0,1-.384,6.24h7.008a48.215,48.215,0,0,1-.336-6.288V79.312a43.143,43.143,0,0,1,.336-6.288Zm18.96,27.552a42.709,42.709,0,0,1-.384-6.24v-9.7c2.112-4.752,4.944-7.152,8.4-7.152a4.515,4.515,0,0,1,4.032,1.968,7.885,7.885,0,0,1,.816,4.224V94.336a51.013,51.013,0,0,1-.336,6.24h6.96a37.932,37.932,0,0,1-.384-6.24V82.816c0-3.216-.48-5.136-1.632-6.72-1.728-2.352-4.464-3.552-8.16-3.552-4.32,0-6.864,1.344-9.792,5.088a18.754,18.754,0,0,0,.1-2.064V73.024h-6.528a39.452,39.452,0,0,1,.384,6.24V94.336a39.843,39.843,0,0,1-.384,6.24Zm28.416-22.512V94.336a51.545,51.545,0,0,1-.336,6.24h6.864a47.438,47.438,0,0,1-.336-6.24V78.064h2.352a41.311,41.311,0,0,1,5.328.288V72.736a52.714,52.714,0,0,1-5.424.288h-2.256V71.056c0-3.312.96-4.464,3.744-4.464a7.946,7.946,0,0,1,4.272,1.152l1.3-5.04a17.355,17.355,0,0,0-5.952-.96c-6.528,0-9.552,2.784-9.552,8.736v2.544h-1.968a31.456,31.456,0,0,1-4.512-.288v5.616a32.65,32.65,0,0,1,4.56-.288Zm17.952-15.7v6.1H415.2v-6.1Zm0,10.656a39.452,39.452,0,0,1,.384,6.24V94.336a43.139,43.139,0,0,1-.384,6.24h7.008a48.215,48.215,0,0,1-.336-6.288V79.312a43.143,43.143,0,0,1,.336-6.288Zm18.96,27.552a42.709,42.709,0,0,1-.384-6.24v-9.7c2.112-4.752,4.944-7.152,8.4-7.152a4.515,4.515,0,0,1,4.032,1.968,7.885,7.885,0,0,1,.816,4.224V94.336a51.013,51.013,0,0,1-.336,6.24h6.96a37.932,37.932,0,0,1-.384-6.24V82.816c0-3.216-.48-5.136-1.632-6.72-1.728-2.352-4.464-3.552-8.16-3.552-4.32,0-6.864,1.344-9.792,5.088a18.754,18.754,0,0,0,.1-2.064V73.024h-6.528a39.452,39.452,0,0,1,.384,6.24V94.336a39.843,39.843,0,0,1-.384,6.24Zm24.432-38.208v6.1h7.056v-6.1Zm0,10.656a39.452,39.452,0,0,1,.384,6.24V94.336a43.139,43.139,0,0,1-.384,6.24h7.008a48.215,48.215,0,0,1-.336-6.288V79.312a43.143,43.143,0,0,1,.336-6.288ZM466.8,65.632a55.244,55.244,0,0,1,.336,5.9v1.488H465.36a22.047,22.047,0,0,1-4.32-.288V78.4a24.239,24.239,0,0,1,4.272-.288h1.824V94.24c0,5.04,2.208,7.008,7.728,7.008a15.02,15.02,0,0,0,6-1.008L480,95.152a6.349,6.349,0,0,1-3.5,1.056c-2.3,0-3.168-.864-3.168-3.216V78.112h2.16a26.465,26.465,0,0,1,4.7.288V72.736a27.577,27.577,0,0,1-4.848.288h-2.016V71.536a53.093,53.093,0,0,1,.336-5.9Zm42.48,22.752c-.1-1.1-.1-1.248-.1-1.344a19.733,19.733,0,0,0-1.392-7.3c-1.92-4.8-6.336-7.584-11.952-7.584-8.208,0-13.536,5.808-13.536,14.688,0,8.976,5.376,14.64,13.872,14.64a13.631,13.631,0,0,0,9.888-3.7,13.49,13.49,0,0,0,2.928-4.416l-5.664-1.824a6.976,6.976,0,0,1-1.392,2.5,8.075,8.075,0,0,1-11.76-.288c-1.1-1.392-1.536-2.736-1.776-5.376Zm-20.736-4.752c.72-4.032,3.456-6.528,7.2-6.528a6.845,6.845,0,0,1,5.184,1.92,7.534,7.534,0,0,1,2.112,4.608ZM534.48,73.024H528.1a49.6,49.6,0,0,1,.336,6.432V103.6a53.738,53.738,0,0,1-.336,6.336h6.768a47.841,47.841,0,0,1-.336-6.384V99.9c0-.864,0-1.728-.048-2.064-.048-.96-.048-.96-.048-1.536,2.3,3.12,5.472,4.608,9.7,4.608,8.16,0,13.008-5.328,13.008-14.16,0-4.848-1.248-8.448-3.792-11.04a12.4,12.4,0,0,0-9.12-3.36,11.177,11.177,0,0,0-9.792,4.7c.048-.624.048-1.152.048-1.68ZM550.9,86.656c0,5.664-2.928,9.216-7.632,9.216-4.992,0-8.544-3.84-8.544-9.312,0-5.136,3.6-9.072,8.352-9.072C547.92,77.488,550.9,80.992,550.9,86.656Zm23.424,14.832c8.544,0,14.16-5.856,14.16-14.736s-5.52-14.544-14.208-14.544c-8.736,0-14.3,5.712-14.3,14.64C559.968,95.824,565.536,101.488,574.32,101.488ZM574.272,77.2c5.088,0,8.016,3.552,8.016,9.744,0,5.856-3.072,9.456-8.064,9.456s-8.064-3.648-8.064-9.552C566.16,80.848,569.232,77.2,574.272,77.2ZM591.12,92.752a10.8,10.8,0,0,0,1.872,4.272c2.064,2.784,5.76,4.272,10.7,4.272,4.368,0,7.728-1.056,9.936-3.12a7.718,7.718,0,0,0,2.352-5.424A6.822,6.822,0,0,0,613.2,86.8c-1.584-1.2-3.552-1.872-8.448-2.928a20.219,20.219,0,0,1-4.8-1.44,2.587,2.587,0,0,1-1.488-2.256c0-2.016,2.016-3.36,4.992-3.36,3.12,0,4.752,1.152,5.28,3.792l6.336-.816a9.344,9.344,0,0,0-2.592-4.752c-1.968-1.824-5.088-2.784-9.024-2.784-4.368,0-7.632,1.248-9.6,3.744a7.141,7.141,0,0,0-1.488,4.464,6.873,6.873,0,0,0,4.224,6.384,29.017,29.017,0,0,0,6.912,2.064c3.84.864,4.128.912,5.04,1.536a2.935,2.935,0,0,1,1.248,2.4c0,2.256-2.208,3.648-5.76,3.648-3.744,0-5.52-1.3-6.336-4.56Zm27.5,0a10.8,10.8,0,0,0,1.872,4.272c2.064,2.784,5.76,4.272,10.7,4.272,4.368,0,7.728-1.056,9.936-3.12a7.718,7.718,0,0,0,2.352-5.424A6.822,6.822,0,0,0,640.7,86.8c-1.584-1.2-3.552-1.872-8.448-2.928a20.219,20.219,0,0,1-4.8-1.44,2.587,2.587,0,0,1-1.488-2.256c0-2.016,2.016-3.36,4.992-3.36,3.12,0,4.752,1.152,5.28,3.792l6.336-.816a9.344,9.344,0,0,0-2.592-4.752c-1.968-1.824-5.088-2.784-9.024-2.784-4.368,0-7.632,1.248-9.6,3.744a7.141,7.141,0,0,0-1.488,4.464,6.873,6.873,0,0,0,4.224,6.384,29.017,29.017,0,0,0,6.912,2.064c3.84.864,4.128.912,5.04,1.536a2.935,2.935,0,0,1,1.248,2.4c0,2.256-2.208,3.648-5.76,3.648-3.744,0-5.52-1.3-6.336-4.56Zm28.7-30.384v6.1h7.056v-6.1Zm0,10.656a39.456,39.456,0,0,1,.384,6.24V94.336a43.143,43.143,0,0,1-.384,6.24h7.008A48.221,48.221,0,0,1,654,94.288V79.312a43.147,43.147,0,0,1,.336-6.288Zm18.432,27.552V98.224c0-.576,0-1.1-.048-1.728,2.4,3.36,5.136,4.752,9.552,4.752q5.832,0,9.216-3.456c2.592-2.688,3.936-6.528,3.936-11.232,0-8.928-4.752-14.16-12.816-14.16a11.189,11.189,0,0,0-9.888,4.848c.048-1.632.1-2.832.1-3.6v-4.8a48.924,48.924,0,0,1,.336-6.48h-6.768a55.977,55.977,0,0,1,.336,6.432V94.1a50.389,50.389,0,0,1-.336,6.48ZM682.176,86.56c0,5.808-3.12,9.552-7.968,9.552a8.362,8.362,0,0,1-5.04-1.776A10.012,10.012,0,0,1,666,86.752a10.338,10.338,0,0,1,2.352-6.672,8.565,8.565,0,0,1,6.528-2.64C679.3,77.44,682.176,81.04,682.176,86.56ZM692.3,62.368v6.1h7.056v-6.1Zm0,10.656a39.456,39.456,0,0,1,.384,6.24V94.336a43.143,43.143,0,0,1-.384,6.24h7.008a48.221,48.221,0,0,1-.336-6.288V79.312a43.147,43.147,0,0,1,.336-6.288Zm12.048-10.656a43.284,43.284,0,0,1,.336,6.24V94.336a46.48,46.48,0,0,1-.336,6.24h6.96a49.443,49.443,0,0,1-.336-6.24V68.656a44.469,44.469,0,0,1,.336-6.288Zm12.048,0v6.1h7.056v-6.1Zm0,10.656a39.456,39.456,0,0,1,.384,6.24V94.336a43.143,43.143,0,0,1-.384,6.24h7.008a48.221,48.221,0,0,1-.336-6.288V79.312a43.147,43.147,0,0,1,.336-6.288Zm15.264-7.392a55.26,55.26,0,0,1,.336,5.9v1.488h-1.776a22.047,22.047,0,0,1-4.32-.288V78.4a24.239,24.239,0,0,1,4.272-.288H732V94.24c0,5.04,2.208,7.008,7.728,7.008a15.02,15.02,0,0,0,6-1.008l-.864-5.088a6.349,6.349,0,0,1-3.5,1.056c-2.3,0-3.168-.864-3.168-3.216V78.112h2.16a26.465,26.465,0,0,1,4.7.288V72.736a27.577,27.577,0,0,1-4.848.288h-2.016V71.536a53.084,53.084,0,0,1,.336-5.9Zm16.656-3.264v6.1h7.056v-6.1Zm0,10.656a39.456,39.456,0,0,1,.384,6.24V94.336a43.143,43.143,0,0,1-.384,6.24h7.008a48.221,48.221,0,0,1-.336-6.288V79.312a43.147,43.147,0,0,1,.336-6.288Zm37.872,15.36c-.1-1.1-.1-1.248-.1-1.344a19.732,19.732,0,0,0-1.392-7.3c-1.92-4.8-6.336-7.584-11.952-7.584-8.208,0-13.536,5.808-13.536,14.688,0,8.976,5.376,14.64,13.872,14.64a13.631,13.631,0,0,0,9.888-3.7,13.49,13.49,0,0,0,2.928-4.416l-5.664-1.824a6.977,6.977,0,0,1-1.392,2.5,8.075,8.075,0,0,1-11.76-.288c-1.1-1.392-1.536-2.736-1.776-5.376Zm-20.736-4.752c.72-4.032,3.456-6.528,7.2-6.528a6.845,6.845,0,0,1,5.184,1.92,7.534,7.534,0,0,1,2.112,4.608Zm23.328,9.12a10.8,10.8,0,0,0,1.872,4.272c2.064,2.784,5.76,4.272,10.7,4.272,4.368,0,7.728-1.056,9.936-3.12a7.718,7.718,0,0,0,2.352-5.424,6.822,6.822,0,0,0-2.784-5.952c-1.584-1.2-3.552-1.872-8.448-2.928a20.219,20.219,0,0,1-4.8-1.44,2.587,2.587,0,0,1-1.488-2.256c0-2.016,2.016-3.36,4.992-3.36,3.12,0,4.752,1.152,5.28,3.792l6.336-.816a9.344,9.344,0,0,0-2.592-4.752c-1.968-1.824-5.088-2.784-9.024-2.784-4.368,0-7.632,1.248-9.6,3.744a7.141,7.141,0,0,0-1.488,4.464,6.873,6.873,0,0,0,4.224,6.384,29.017,29.017,0,0,0,6.912,2.064c3.84.864,4.128.912,5.04,1.536a2.935,2.935,0,0,1,1.248,2.4c0,2.256-2.208,3.648-5.76,3.648-3.744,0-5.52-1.3-6.336-4.56Zm35.712,7.824V93.568h-7.008v7.008Z" transform="translate(180 502)"/>
            <text id="OUR_MISSION" data-name="OUR MISSION" transform="translate(180 416)" font-size="12" font-family="HiraginoSansGB-W6, Hiragino Sans GB" letter-spacing="1.6em"><tspan x="0" y="0">OUR MISSION</tspan></text>
          </g>
          <g id="组_21873" data-name="组 21873" transform="translate(7306.552 -1035.352)">
            <rect id="矩形_2677" data-name="矩形 2677" width="55.988" height="56.726" rx="6.75" transform="translate(1.448 128.824)" fill="none" stroke="#0080f4" stroke-miterlimit="10" stroke-width="2"/>
            <rect id="矩形_2678" data-name="矩形 2678" width="40.348" height="41.133" rx="6.75" transform="translate(14.874 247.219)" fill="none" stroke="#0080f4" stroke-miterlimit="10" stroke-width="2"/>
            <rect id="矩形_2679" data-name="矩形 2679" width="33.002" height="33.645" rx="5.568" transform="translate(109.785 320.237)" fill="none" stroke="#0080f4" stroke-miterlimit="10" stroke-width="2"/>
            <rect id="矩形_2680" data-name="矩形 2680" width="33.002" height="33.645" rx="5.568" transform="translate(480.242 320.237)" fill="none" stroke="#ef54a1" stroke-miterlimit="10" stroke-width="2"/>
            <g id="left">
              <path id="line_1" d="M104.284,43.043S78.1,67.67,70.615,95.611" fill="none" stroke="#0080f4" stroke-linecap="round" stroke-miterlimit="10" stroke-width="2"/>
              <path id="line_2" d="M97.713,32.981S66.608,61.344,58.6,95.611" fill="none" stroke="#0080f4" stroke-linecap="round" stroke-miterlimit="10" stroke-width="2"/>
              <path id="line_3" d="M94.971,19.274S53.956,56.283,43.518,96.455" fill="none" stroke="#0080f4" stroke-linecap="round" stroke-miterlimit="10" stroke-width="2"/>
              <path id="line4" d="M89.805,6.938S48.051,36.566,29.494,97.3" fill="none" stroke="#0080f4" stroke-linecap="round" stroke-miterlimit="10" stroke-width="2"/>
            </g>
            <g id="right">
              <path id="line_01" d="M519.192,36.531s21.736,29.078,24.278,57.893" fill="none" stroke="#ef54a1" stroke-linecap="round" stroke-miterlimit="10" stroke-width="2"/>
              <path id="line_02" d="M527.61,28.052s25.732,33.313,27.7,68.45" fill="none" stroke="#ef54a1" stroke-linecap="round" stroke-miterlimit="10" stroke-width="2"/>
              <path id="line_03" d="M532.68,15.025s34,43.543,37.334,84.915" fill="none" stroke="#ef54a1" stroke-linecap="round" stroke-miterlimit="10" stroke-width="2"/>
              <path id="line_04" d="M539.9,3.768s36,36.4,43.778,99.427" fill="none" stroke="#ef54a1" stroke-linecap="round" stroke-miterlimit="10" stroke-width="2"/>
            </g>
            <path id="路径_39779" data-name="路径 39779" d="M324.826,41.943s-7.8-24.567-51.137-33.845h-42.6L183.75,10s-83.507,16.659-105.6,98.479V300.231S78,308.6,87.7,308.7s66.321,0,66.321,0,5.878-.474,5.878,5.878V403.42s-.448,6.08,5.3,6.08H463.758V322.8a16.378,16.378,0,0,1,16.378-16.378h40.313a11.984,11.984,0,0,0,11.984-11.985V270.638a27.044,27.044,0,0,1,3.691-8.119c2.53-3.479,6.959-6.009,0-12.863,1.37-1.476,5.483-3.058,6.221-8.33V228.358L561.956,217.5s5.167-5.377,0-14.655l-33.74-45.866s-4.534-3.69-.422-11.6l11.493-19.19L521.257,68.83S510.432,28.623,446.326,8.1,305.742,18.22,281.561,42.119a129.66,129.66,0,0,0-27.935,40.458" fill="none" stroke="#000" stroke-linecap="round" stroke-miterlimit="10" stroke-width="2"/>
            <path id="路径_39780" data-name="路径 39780" d="M157.074,20.012h70.749L238.051,8.1" fill="none" stroke="#000" stroke-linecap="round" stroke-miterlimit="10" stroke-width="2"/>
            <path id="路径_39781" data-name="路径 39781" d="M293.792,15.057H243.112L232.708,28.2H190.533L180.411,41.135H167.2V52.118" fill="none" stroke="#000" stroke-linecap="round" stroke-miterlimit="10" stroke-width="2"/>
            <path id="路径_39782" data-name="路径 39782" d="M134.159,32.348V59.13l6.889,5.9V78.319" fill="none" stroke="#000" stroke-linecap="round" stroke-miterlimit="10" stroke-width="2"/>
            <path id="路径_39783" data-name="路径 39783" d="M128.465,36.566V62.925L135,68.9V82.045" fill="none" stroke="#000" stroke-linecap="round" stroke-miterlimit="10" stroke-width="2"/>
            <path id="路径_39784" data-name="路径 39784" d="M122.631,41.205V67.073l7.029,6.186V85.981" fill="none" stroke="#000" stroke-linecap="round" stroke-miterlimit="10" stroke-width="2"/>
            <path id="路径_39785" data-name="路径 39785" d="M117.008,45.985V71.36l6.678,5.764V90.48" fill="none" stroke="#000" stroke-linecap="round" stroke-miterlimit="10" stroke-width="2"/>
            <circle id="椭圆_1999" data-name="椭圆 1999" cx="5.221" cy="5.221" r="5.221" transform="translate(138.612 35.396)"/>
            <circle id="椭圆_2000" data-name="椭圆 2000" cx="7.665" cy="7.665" r="7.665" transform="translate(470.995 42.365)"/>
            <circle id="椭圆_2001" data-name="椭圆 2001" cx="9.384" cy="9.384" r="9.384" transform="translate(433.533 57.021)"/>
            <circle id="椭圆_2002" data-name="椭圆 2002" cx="8.764" cy="8.764" r="8.764" transform="translate(412.221 34.866)"/>
            <circle id="椭圆_2003" data-name="椭圆 2003" cx="6.805" cy="6.805" r="6.805" transform="translate(412.476 81.461)"/>
            <circle id="椭圆_2004" data-name="椭圆 2004" cx="6.26" cy="6.26" r="6.26" transform="translate(434.71 99.266)"/>
            <circle id="椭圆_2005" data-name="椭圆 2005" cx="5.516" cy="5.516" r="5.516" transform="translate(391.114 63.907)"/>
            <circle id="椭圆_2006" data-name="椭圆 2006" cx="6.26" cy="6.26" r="6.26" transform="translate(389.209 104.89)"/>
            <circle id="椭圆_2007" data-name="椭圆 2007" cx="6.381" cy="6.381" r="6.381" transform="translate(103.009 71.781)"/>
            <circle id="椭圆_2008" data-name="椭圆 2008" cx="4.248" cy="4.248" r="4.248" transform="translate(101.036 146.795)"/>
            <circle id="椭圆_2009" data-name="椭圆 2009" cx="4.327" cy="4.327" r="4.327" transform="translate(96.777 166.927)"/>
            <circle id="椭圆_2010" data-name="椭圆 2010" cx="4.327" cy="4.327" r="4.327" transform="translate(191.036 155.106)"/>
            <circle id="椭圆_2011" data-name="椭圆 2011" cx="4.206" cy="4.206" r="4.206" transform="translate(129.854 254.465)"/>
            <circle id="椭圆_2012" data-name="椭圆 2012" cx="4.206" cy="4.206" r="4.206" transform="translate(82.436 225.505)"/>
            <path id="路径_39786" data-name="路径 39786" d="M84.184,90.945h61.292L167.97,51.4h86.037V42.681H413.851" fill="none" stroke="#000" stroke-linecap="round" stroke-miterlimit="10" stroke-width="2"/>
            <path id="路径_39787" data-name="路径 39787" d="M148.428,44.052l7.767,5.729V71.114" fill="none" stroke="#000" stroke-linecap="round" stroke-miterlimit="10" stroke-width="2"/>
            <path id="路径_39788" data-name="路径 39788" d="M291.754,33.122H231.795L221.11,50.976" fill="none" stroke="#000" stroke-linecap="round" stroke-miterlimit="10" stroke-width="2"/>
            <path id="路径_39789" data-name="路径 39789" d="M287.677,36.531H234.624l-8.54,14.217" fill="none" stroke="#000" stroke-linecap="round" stroke-miterlimit="10" stroke-width="2"/>
            <path id="路径_39790" data-name="路径 39790" d="M196.543,32.489l-7.381,9.876h14.2Z"/>
            <path id="路径_39791" data-name="路径 39791" d="M79,288.668h89.148l22.63,18.247a2.833,2.833,0,0,0,1.776.626H403.307a2.249,2.249,0,0,0,2.249-2.249V274.083l-18.7-8.717V224.878" fill="none" stroke="#000" stroke-linecap="round" stroke-miterlimit="10" stroke-width="2"/>
            <path id="路径_39792" data-name="路径 39792" d="M79.964,105.03h26.184v9.982s-13.092,10.227-13.092,22.142v63.157L79,217.814" fill="none" stroke="#000" stroke-linecap="round" stroke-miterlimit="10" stroke-width="2"/>
            <line id="直线_637" data-name="直线 637" x1="26.307" transform="translate(78.997 111.216)" fill="none" stroke="#000" stroke-linecap="round" stroke-miterlimit="10" stroke-width="2"/>
            <path id="路径_39793" data-name="路径 39793" d="M101.192,174.268v35.216l-5.272,5.588V227.83l4.112,2.952v34.795" fill="none" stroke="#000" stroke-linecap="round" stroke-miterlimit="10" stroke-width="2"/>
            <path id="路径_39794" data-name="路径 39794" d="M86.642,233.419v45.232h25.2l7.908-10.438V196.2h5.483s7.17,8.962,29.523,7.592v47.183a8.171,8.171,0,0,1-8.172,8.171h-9.647" fill="none" stroke="#000" stroke-linecap="round" stroke-miterlimit="10" stroke-width="2"/>
            <path id="路径_39795" data-name="路径 39795" d="M91.843,239.639v32.123h15.675l5.975-8.154v-76.97h9.56" fill="none" stroke="#000" stroke-linecap="round" stroke-miterlimit="10" stroke-width="2"/>
            <path id="路径_39796" data-name="路径 39796" d="M120.575,201.647l14.041,13.9h9.437l5.114,5.8" fill="none" stroke="#000" stroke-linecap="round" stroke-miterlimit="10" stroke-width="2"/>
            <path id="路径_39797" data-name="路径 39797" d="M120.7,208.852l13.76,13.971h10.227l4.481,5.746" fill="none" stroke="#000" stroke-linecap="round" stroke-miterlimit="10" stroke-width="2"/>
            <path id="路径_39798" data-name="路径 39798" d="M120.7,216.812l13.654,13.654H144.58l4.587,5.852" fill="none" stroke="#000" stroke-linecap="round" stroke-miterlimit="10" stroke-width="2"/>
            <path id="路径_39799" data-name="路径 39799" d="M120.7,223.982l13.654,13.76h10.28l4.534,5.957" fill="none" stroke="#000" stroke-linecap="round" stroke-miterlimit="10" stroke-width="2"/>
            <path id="路径_39800" data-name="路径 39800" d="M141.944,270.058h36.692l24.093,19.4h77.427" fill="none" stroke="#000" stroke-linecap="round" stroke-miterlimit="10" stroke-width="2"/>
            <path id="路径_39801" data-name="路径 39801" d="M138.265,275.91h36.312l22.915,19.119h80.976" fill="none" stroke="#000" stroke-linecap="round" stroke-miterlimit="10" stroke-width="2"/>
            <path id="路径_39802" data-name="路径 39802" d="M134.932,281.674h36.411l23.337,19.119h82.945" fill="none" stroke="#000" stroke-linecap="round" stroke-miterlimit="10" stroke-width="2"/>
            <path id="路径_39803" data-name="路径 39803" d="M213.642,232.153v25.252l-5.694,5.8.419,25.305" fill="none" stroke="#000" stroke-linecap="round" stroke-miterlimit="10" stroke-width="2"/>
            <path id="路径_39804" data-name="路径 39804" d="M238.472,231.732v18.522l-5.412,6.361V288.51" fill="none" stroke="#000" stroke-linecap="round" stroke-miterlimit="10" stroke-width="2"/>
            <path id="路径_39805" data-name="路径 39805" d="M244.707,231.732v20.824l-5.412,5.377V288.51" fill="none" stroke="#000" stroke-linecap="round" stroke-miterlimit="10" stroke-width="2"/>
            <path id="路径_39806" data-name="路径 39806" d="M178.83,324.827v50.4l-7.7,8.646H161.116" fill="none" stroke="#000" stroke-linecap="round" stroke-miterlimit="10" stroke-width="2"/>
            <path id="路径_39807" data-name="路径 39807" d="M185.964,345.921l.281,34.021-12.02,9.208H161.116" fill="none" stroke="#000" stroke-linecap="round" stroke-miterlimit="10" stroke-width="2"/>
            <line id="直线_638" data-name="直线 638" x2="128.832" transform="translate(161.116 399.378)" fill="none" stroke="#000" stroke-linecap="round" stroke-miterlimit="10" stroke-width="2"/>
            <path id="路径_39808" data-name="路径 39808" d="M217.877,308.526v21.509l3.8,4.639V398.78" fill="none" stroke="#000" stroke-linecap="round" stroke-miterlimit="10" stroke-width="2"/>
            <path id="路径_39809" data-name="路径 39809" d="M224.063,308.526v18.557l5.623,6.045V398.78" fill="none" stroke="#000" stroke-linecap="round" stroke-miterlimit="10" stroke-width="2"/>
            <line id="直线_639" data-name="直线 639" y1="62.419" transform="translate(196.93 332.425)" fill="none" stroke="#000" stroke-linecap="round" stroke-miterlimit="10" stroke-width="2"/>
            <line id="直线_640" data-name="直线 640" y1="43.3" transform="translate(203.959 351.966)" fill="none" stroke="#000" stroke-linecap="round" stroke-miterlimit="10" stroke-width="2"/>
            <line id="直线_641" data-name="直线 641" y2="90.255" transform="translate(266.308 308.526)" fill="none" stroke="#000" stroke-linecap="round" stroke-miterlimit="10" stroke-width="2"/>
            <path id="路径_39810" data-name="路径 39810" d="M322.963,398.78H351.5l14.55-23.548h72.014V279.073l-35.954-19.4V212.226L439.859,107.42" fill="none" stroke="#000" stroke-linecap="round" stroke-miterlimit="10" stroke-width="2"/>
            <path id="路径_39811" data-name="路径 39811" d="M160.343,94.135l14.023-28.047H317.34l10.122-11.176h73.385L412.34,65.983H434.8" fill="none" stroke="#000" stroke-linecap="round" stroke-miterlimit="10" stroke-width="2"/>
            <path id="路径_39812" data-name="路径 39812" d="M169.9,84.189l3.269,4.991,6.994-16.765h36.587" fill="none" stroke="#000" stroke-linecap="round" stroke-miterlimit="10" stroke-width="2"/>
            <path id="路径_39813" data-name="路径 39813" d="M209.055,85.559H191.306l-1.919,3.592a.918.918,0,0,1-.81.485h-6.284a.377.377,0,0,1-.353-.51l3.826-10.118a.523.523,0,0,1,.489-.337h21.711a1.476,1.476,0,0,1,1.476,1.476v5.026A.386.386,0,0,1,209.055,85.559Z" fill="none" stroke="#000" stroke-linecap="round" stroke-miterlimit="10" stroke-width="2"/>
            <path id="路径_39814" data-name="路径 39814" d="M263.039,103.414h60.416L354.77,68.83H394.2" fill="none" stroke="#000" stroke-linecap="round" stroke-miterlimit="10" stroke-width="2"/>
            <path id="路径_39815" data-name="路径 39815" d="M263.039,111.638H322.4l8.646,15.6h23.2" fill="none" stroke="#000" stroke-linecap="round" stroke-miterlimit="10" stroke-width="2"/>
            <path id="路径_39816" data-name="路径 39816" d="M155.739,205.759h6.115l22.493,25.165H263.5" fill="none" stroke="#000" stroke-linecap="round" stroke-miterlimit="10" stroke-width="2"/>
            <path id="路径_39817" data-name="路径 39817" d="M164.771,196.515l24.3,27.467h70.749" fill="none" stroke="#000" stroke-linecap="round" stroke-miterlimit="10" stroke-width="2"/>
            <path id="路径_39818" data-name="路径 39818" d="M122.053,166.948a35.324,35.324,0,1,0-3.522-10.692" fill="none" stroke="#000" stroke-linecap="round" stroke-miterlimit="10" stroke-width="2"/>
            <path id="路径_39819" data-name="路径 39819" d="M202.911,171.33a53.591,53.591,0,0,0-29.87-70.543.514.514,0,0,0-.657.275l-1.517,3.526a.5.5,0,0,1-.64.272A47.8,47.8,0,1,0,196,171.64h34.274l6.379,10.457h7.433" fill="none" stroke="#000" stroke-linecap="round" stroke-miterlimit="10" stroke-width="2"/>
            <path id="路径_39820" data-name="路径 39820" d="M195.1,160.865a42.938,42.938,0,0,0,1.226-10.215c0-13.615-5.229-24.673-16.828-33.248l2.144-3.972s-4.639-4.042-8.294-4.182c-.984,1.406-4.569,8.646-4.569,8.646" transform="translate(50)" fill="none" stroke="#000" stroke-linecap="round" stroke-miterlimit="10" stroke-width="2"/>
            <circle id="椭圆_2013" data-name="椭圆 2013" cx="28.124" cy="28.124" r="28.124" transform="translate(125.393 122.526)" fill="none" stroke="#0080f4" stroke-linecap="round" stroke-miterlimit="10" stroke-width="2"/>
            <path id="路径_39821" data-name="路径 39821" d="M143.262,133.289v34a.1.1,0,0,0,.155.091L172.926,150.9a.287.287,0,0,0,0-.5l-29.546-17.179A.082.082,0,0,0,143.262,133.289Z" fill="none" stroke="#0c111a" stroke-linecap="round" stroke-miterlimit="10" stroke-width="2"/>
            <path id="路径_39822" data-name="路径 39822" d="M146.77,139.787V160.8a.064.064,0,0,0,.1.056L165.1,150.668a.177.177,0,0,0,0-.308l-18.259-10.616A.05.05,0,0,0,146.77,139.787Z" fill="none" stroke="#0080f4" stroke-linecap="round" stroke-miterlimit="10" stroke-width="2"/>
            <line id="直线_642" data-name="直线 642" y1="1.143" x2="33.823" transform="translate(93.864 161.79)" fill="none" stroke="#0080f4" stroke-linecap="round" stroke-miterlimit="10" stroke-width="2"/>
            <path id="路径_39823" data-name="路径 39823" d="M194.188,175.533h33.424l7.091,10.649h10.2" fill="none" stroke="#000" stroke-linecap="round" stroke-miterlimit="10" stroke-width="2"/>
            <line id="直线_643" data-name="直线 643" x2="103.013" transform="translate(253.866 183.828)" fill="none" stroke="#000" stroke-linecap="round" stroke-miterlimit="10" stroke-width="2"/>
            <path id="路径_39824" data-name="路径 39824" d="M277.2,223.982h28.89l13.637-18.223h24.883" fill="none" stroke="#000" stroke-linecap="round" stroke-miterlimit="10" stroke-width="2"/>
            <path id="路径_39825" data-name="路径 39825" d="M281.772,230.923h27.2l13.848-17.573h16.94" fill="none" stroke="#000" stroke-linecap="round" stroke-miterlimit="10" stroke-width="2"/>
            <path id="路径_39826" data-name="路径 39826" d="M256.186,158.874v8.857h91.072v3.053a.212.212,0,0,0,.309.189l12.054-6.165a.215.215,0,0,0,.026-.367l-11.968-8.479a.083.083,0,0,0-.131.068v2.844Z" fill="none" stroke="#000" stroke-linecap="round" stroke-miterlimit="10" stroke-width="2"/>
            <path id="路径_39827" data-name="路径 39827" d="M478.66,57.021V84.856H445.553V73.891" fill="none" stroke="#000" stroke-linecap="round" stroke-miterlimit="10" stroke-width="2"/>
            <path id="路径_39828" data-name="路径 39828" d="M373.011,165.938h3.9l18.557-50.821" fill="none" stroke="#000" stroke-linecap="round" stroke-miterlimit="10" stroke-width="2"/>
            <path id="路径_39829" data-name="路径 39829" d="M366.474,183.828h16.765L418.877,93.4" fill="none" stroke="#000" stroke-linecap="round" stroke-miterlimit="10" stroke-width="2"/>
            <path id="路径_39830" data-name="路径 39830" d="M353.4,214.018h35.005L439.859,73.575" fill="none" stroke="#000" stroke-linecap="round" stroke-miterlimit="10" stroke-width="2"/>
            <path id="路径_39831" data-name="路径 39831" d="M359.738,207.481h24.5l13.971-38.169,9.884-9.039" fill="none" stroke="#000" stroke-linecap="round" stroke-miterlimit="10" stroke-width="2"/>
            <path id="路径_39832" data-name="路径 39832" d="M369.637,101.094H356.668V89.865h13.6V118.28H356.194" fill="none" stroke="#ef54a1" stroke-linecap="round" stroke-miterlimit="10" stroke-width="2"/>
            <path id="路径_39833" data-name="路径 39833" d="M239.949,89.847h14.445v11.106H241.6v6.537h12.793V118.14H240.37" fill="none" stroke="#0080f4" stroke-linecap="round" stroke-miterlimit="10" stroke-width="2"/>
            <path id="路径_39834" data-name="路径 39834" d="M236.469,127.451" fill="none" stroke="#000" stroke-linecap="round" stroke-miterlimit="10" stroke-width="2"/>
            <path id="路径_39835" data-name="路径 39835" d="M312.7,311.97s.527,3.9.527,16.343v71.065H296.674V319.456s.295-6.452.422-7.486" fill="none" stroke="#000" stroke-miterlimit="10" stroke-width="2"/>
            <line id="直线_644" data-name="直线 644" y2="15.148" transform="translate(214.011 196.269)" fill="none" stroke="#000" stroke-miterlimit="10" stroke-width="2"/>
            <line id="直线_645" data-name="直线 645" y2="15.148" transform="translate(220.689 196.269)" fill="none" stroke="#000" stroke-miterlimit="10" stroke-width="2"/>
            <line id="直线_646" data-name="直线 646" y2="12.723" transform="translate(228.104 196.269)" fill="none" stroke="#000" stroke-miterlimit="10" stroke-width="2"/>
            <line id="直线_647" data-name="直线 647" x2="52.157" transform="translate(177.81 97.298)" fill="none" stroke="#000" stroke-miterlimit="10" stroke-width="2"/>
            <line id="直线_648" data-name="直线 648" x2="42.808" transform="translate(187.159 102.922)" fill="none" stroke="#000" stroke-miterlimit="10" stroke-width="2"/>
            <line id="直线_649" data-name="直线 649" x2="35.216" transform="translate(194.751 108.404)" fill="none" stroke="#000" stroke-miterlimit="10" stroke-width="2"/>
            <line id="直线_650" data-name="直线 650" x1="28.96" transform="translate(201.007 113.676)" fill="none" stroke="#000" stroke-miterlimit="10" stroke-width="2"/>
            <line id="直线_651" data-name="直线 651" x1="25.024" transform="translate(204.943 119.018)" fill="none" stroke="#000" stroke-miterlimit="10" stroke-width="2"/>
            <line id="直线_652" data-name="直线 652" x1="22.564" transform="translate(207.403 124.853)" fill="none" stroke="#000" stroke-miterlimit="10" stroke-width="2"/>
            <line id="直线_653" data-name="直线 653" x1="20.806" transform="translate(209.161 130.546)" fill="none" stroke="#000" stroke-miterlimit="10" stroke-width="2"/>
            <line id="直线_654" data-name="直线 654" x1="19.682" transform="translate(210.285 136.802)" fill="none" stroke="#000" stroke-miterlimit="10" stroke-width="2"/>
            <line id="直线_655" data-name="直线 655" x1="18.487" transform="translate(211.48 142.426)" fill="none" stroke="#000" stroke-miterlimit="10" stroke-width="2"/>
            <line id="直线_656" data-name="直线 656" x1="18.487" transform="translate(211.48 148.26)" fill="none" stroke="#000" stroke-miterlimit="10" stroke-width="2"/>
            <line id="直线_657" data-name="直线 657" x1="17.854" transform="translate(212.113 153.813)" fill="none" stroke="#000" stroke-miterlimit="10" stroke-width="2"/>
            <line id="直线_658" data-name="直线 658" x1="18.487" transform="translate(211.48 159.434)" fill="none" stroke="#000" stroke-miterlimit="10" stroke-width="2"/>
            <line id="直线_659" data-name="直线 659" x1="19.26" transform="translate(210.707 164.708)" fill="none" stroke="#000" stroke-miterlimit="10" stroke-width="2"/>
            <line id="直线_660" data-name="直线 660" y1="102.805" x2="1.073" transform="translate(290.875 305.852)" fill="none" stroke="#ef54a1" stroke-miterlimit="10" stroke-width="2"/>
            <path id="路径_39836" data-name="路径 39836" d="M291.929,306.645s2.426-19.863,13.022-33.523c1.318-.9,5.114-10.919,9.437-16.3s31.631-43.616,38.168-60.557S365.631,173,366.474,127.451h6.537s.317,47.239-16.817,79.292-30.262,46.685-36.667,56.134S300.048,293.2,299.2,302.27" fill="none" stroke="#ef54a1" stroke-miterlimit="10" stroke-width="2"/>
            <path id="路径_39837" data-name="路径 39837" d="M481.823,153.6l39.961-13.5V129.562" fill="none" stroke="#000" stroke-linecap="round" stroke-miterlimit="10" stroke-width="2"/>
            <path id="路径_39838" data-name="路径 39838" d="M511.346,144.183v10.263l-2.249,4.71" fill="none" stroke="#000" stroke-linecap="round" stroke-miterlimit="10" stroke-width="2"/>
            <line id="直线_661" data-name="直线 661" x2="27.062" y2="7.451" transform="translate(484.775 153.321)" fill="none" stroke="#000" stroke-linecap="round" stroke-miterlimit="10" stroke-width="2"/>
            <path id="路径_39839" data-name="路径 39839" d="M38.58,257.615l-7.662,4.166v11.757l7.654,4.353a.523.523,0,0,0,.781-.455V258.074A.523.523,0,0,0,38.58,257.615Z" fill="none" stroke="#0080f4" stroke-linecap="round" stroke-miterlimit="10" stroke-width="2"/>
            <line id="直线_662" data-name="直线 662" x2="8.751" transform="translate(21.481 267.755)" fill="none" stroke="#0080f4" stroke-linecap="round" stroke-miterlimit="10" stroke-width="2"/>
            <line id="直线_663" data-name="直线 663" x1="7.293" transform="translate(40.056 263.644)" fill="none" stroke="#0080f4" stroke-linecap="round" stroke-miterlimit="10" stroke-width="2"/>
            <line id="直线_664" data-name="直线 664" x1="7.293" transform="translate(40.056 272.079)" fill="none" stroke="#0080f4" stroke-linecap="round" stroke-miterlimit="10" stroke-width="2"/>
            <rect id="矩形_2681" data-name="矩形 2681" width="40.348" height="41.133" rx="6.75" transform="translate(567.913 247.066)" fill="none" stroke="#ef54a1" stroke-miterlimit="10" stroke-width="2"/>
            <path id="路径_39840" data-name="路径 39840" d="M584.361,277.743l7.662-4.167V261.82l-7.653-4.353a.523.523,0,0,0-.782.454v19.362A.524.524,0,0,0,584.361,277.743Z" fill="none" stroke="#ef54a1" stroke-linecap="round" stroke-miterlimit="10" stroke-width="2"/>
            <line id="直线_665" data-name="直线 665" x1="8.751" transform="translate(592.709 267.602)" fill="none" stroke="#ef54a1" stroke-linecap="round" stroke-miterlimit="10" stroke-width="2"/>
            <line id="直线_666" data-name="直线 666" y2="13.971" transform="translate(117.904 329.789)" fill="none" stroke="#0080f4" stroke-linecap="round" stroke-miterlimit="10" stroke-width="2"/>
            <path id="路径_39841" data-name="路径 39841" d="M125.548,324.942v23a.192.192,0,0,0,.313.149l7.851-6.379a.241.241,0,0,0-.032-.4l-7.394-4.259,6.643-5.667a.24.24,0,0,0,0-.363l-7.065-6.231A.192.192,0,0,0,125.548,324.942Z" fill="none" stroke="#0080f4" stroke-linecap="round" stroke-miterlimit="10" stroke-width="2"/>
            <line id="直线_667" data-name="直线 667" x2="6.537" transform="translate(118.537 336.774)" fill="none" stroke="#0080f4" stroke-linecap="round" stroke-miterlimit="10" stroke-width="2"/>
            <path id="路径_39842" data-name="路径 39842" d="M597.963,169.75v5.029a.479.479,0,0,1-.745.4l-3.771-2.514a.479.479,0,0,1,0-.8l3.771-2.514A.479.479,0,0,1,597.963,169.75Z" fill="#ef54a1"/>
            <path id="路径_39843" data-name="路径 39843" d="M590.282,147.1v-5.028a.479.479,0,0,1,.744-.4l3.772,2.515a.479.479,0,0,1,0,.8l-3.772,2.514A.479.479,0,0,1,590.282,147.1Z" fill="#ef54a1"/>
            <g id="组_21872" data-name="组 21872">
              <rect id="矩形_2682" data-name="矩形 2682" width="55.988" height="56.726" rx="6.75" transform="translate(565.762 128.842)" fill="none" stroke="#ef54a1" stroke-miterlimit="10" stroke-width="2"/>
              <path id="路径_39844" data-name="路径 39844" d="M581.937,156.027V145.536a.685.685,0,0,1,.685-.685h9.068" fill="none" stroke="#ef54a1" stroke-linecap="round" stroke-miterlimit="10" stroke-width="2"/>
              <circle id="椭圆_2014" data-name="椭圆 2014" cx="8.294" cy="8.294" r="8.294" transform="translate(597.91 137.927)" fill="none" stroke="#ef54a1" stroke-miterlimit="10" stroke-width="2"/>
              <line id="直线_668" data-name="直线 668" x2="3.339" transform="translate(608.068 145.097)" fill="none" stroke="#ef54a1" stroke-linecap="round" stroke-miterlimit="10" stroke-width="2"/>
              <line id="直线_669" data-name="直线 669" x2="3.479" transform="translate(600.863 145.097)" fill="none" stroke="#ef54a1" stroke-linecap="round" stroke-miterlimit="10" stroke-width="2"/>
              <g id="组_21871" data-name="组 21871">
                <line id="直线_670" data-name="直线 670" x2="3.339" transform="translate(584.244 167.801)" fill="none" stroke="#ef54a1" stroke-linecap="round" stroke-miterlimit="10" stroke-width="2"/>
                <line id="直线_671" data-name="直线 671" x2="3.479" transform="translate(577.039 167.801)" fill="none" stroke="#ef54a1" stroke-linecap="round" stroke-miterlimit="10" stroke-width="2"/>
              </g>
              <path id="路径_39845" data-name="路径 39845" d="M597.1,172.089h8.962V159.928" fill="none" stroke="#ef54a1" stroke-linecap="round" stroke-miterlimit="10" stroke-width="2"/>
              <circle id="椭圆_2015" data-name="椭圆 2015" cx="8.293" cy="8.293" r="8.293" transform="translate(574.018 160.772)" fill="none" stroke="#ef54a1" stroke-linecap="round" stroke-miterlimit="10" stroke-width="2"/>
              <line id="直线_672" data-name="直线 672" y1="4.727" transform="translate(577.35 157.205)" fill="none" stroke="#ef54a1" stroke-linecap="round" stroke-miterlimit="10" stroke-width="2"/>
              <line id="直线_673" data-name="直线 673" y1="4.727" transform="translate(586.813 157.205)" fill="none" stroke="#ef54a1" stroke-linecap="round" stroke-miterlimit="10" stroke-width="2"/>
            </g>
            <g id="组_21526" data-name="组 21526">
              <path id="路径_37350" data-name="路径 37350" d="M495.669,330.5a1.866,1.866,0,0,1,1.659-1.516c.759,0,1.284.805,1.517,1.516a8.7,8.7,0,0,1,.427,2.7.317.317,0,0,1-.332.285c-.047,0-.1,0-.1-.048a2.9,2.9,0,0,0-1.517-.379,3.072,3.072,0,0,0-1.564.379.261.261,0,0,1-.358-.094.257.257,0,0,1-.021-.048c0-.047-.047-.047-.047-.1a10.524,10.524,0,0,1,.331-2.7Z" fill="#ef54a1"/>
              <path id="路径_37351" data-name="路径 37351" d="M490.407,333.436a.262.262,0,0,1-.38-.142c0-.047-.047-.047-.047-.1a10.263,10.263,0,0,1,.332-2.7,1.864,1.864,0,0,1,1.659-1.516c.758,0,1.284.805,1.564,1.516a8.7,8.7,0,0,1,.427,2.7.317.317,0,0,1-.332.285c-.047,0-.1,0-.1-.048a2.949,2.949,0,0,0-1.564-.379,3.469,3.469,0,0,0-1.564.379Z" fill="#ef54a1"/>
              <path id="路径_37352" data-name="路径 37352" d="M488.012,335.6a22.954,22.954,0,0,0,.643,3.845" fill="none" stroke="#ef54a1" stroke-miterlimit="10" stroke-width="2"/>
              <path id="路径_3" data-name="路径 3" d="M505.483,343.225a4.426,4.426,0,0,0-3.555.19c.663-1.375,1.374-2.844,1.99-4.361a13.817,13.817,0,0,0,1.328-4.839c0-5.782-4.362-9.621-8.486-9.621a8.7,8.7,0,0,0-8.778,8.623c0,.144,0,.288.007.432h0a18.112,18.112,0,0,0,.047,2.271l-.106.013a4.469,4.469,0,0,0-2.311,1.03,4.328,4.328,0,0,0-.851,1c-.331.759-.331,1.707.617,1.944a3.088,3.088,0,0,0,1.137-.284,4.289,4.289,0,0,1,1.8-.463,1.062,1.062,0,0,1,.287.083,22.57,22.57,0,0,0,1.659,4.642,14.26,14.26,0,0,0,2.75,3.982,5.076,5.076,0,0,0,3.413,1.659,9.188,9.188,0,0,0,5.072-1.9c.711-.474,1.327-.948,1.8-1.284a3.052,3.052,0,0,1,1.043-.521,5.264,5.264,0,0,1,1.422.379c.522.237,1.087.521,1.612.711a.321.321,0,0,0,.379-.19v-.038A3.6,3.6,0,0,0,505.483,343.225Zm-9.1-3.126a3.007,3.007,0,0,0-2.322-.143,3.6,3.6,0,0,1-1.233.048c-1.232-.332-.758-1.659-.237-2.323a5.248,5.248,0,0,1,1.754-1.284,4.945,4.945,0,0,1,5.214.427" fill="none" stroke="#ef54a1" stroke-miterlimit="10" stroke-width="2"/>
            </g>
            <g id="组_21526-2" data-name="组 21526">
              <path id="路径_37350-2" data-name="路径 37350" d="M31.805,147.124a17.058,17.058,0,0,1,.537,4.373c0,.083-.077.083-.077.159a.357.357,0,0,1-.035.077.424.424,0,0,1-.579.154,4.95,4.95,0,0,0-2.531-.614,4.669,4.669,0,0,0-2.455.614c0,.076-.083.076-.16.076a.513.513,0,0,1-.537-.46,14.115,14.115,0,0,1,.691-4.373c.377-1.151,1.227-2.455,2.455-2.455A3.022,3.022,0,0,1,31.8,147.13Z" fill="#0080f4"/>
              <path id="路径_37351-2" data-name="路径 37351" d="M40.322,151.88a5.613,5.613,0,0,0-2.532-.614,4.775,4.775,0,0,0-2.531.614c0,.077-.083.077-.16.077a.513.513,0,0,1-.537-.46,14.085,14.085,0,0,1,.69-4.373c.454-1.151,1.3-2.455,2.532-2.455a3.02,3.02,0,0,1,2.685,2.455,16.666,16.666,0,0,1,.537,4.373c0,.083-.077.083-.077.159a.413.413,0,0,1-.035.077.424.424,0,0,1-.579.154Z" fill="#0080f4"/>
              <path id="路径_37352-2" data-name="路径 37352" d="M43.151,161.612a37.25,37.25,0,0,0,1.04-6.222" fill="none" stroke="#0080f4" stroke-miterlimit="10" stroke-width="2"/>
              <path id="路径_3-2" data-name="路径 3" d="M12.233,173.328v.063a.521.521,0,0,0,.614.306c.85-.306,1.764-.767,2.608-1.15a8.548,8.548,0,0,1,2.3-.614,4.975,4.975,0,0,1,1.687.844c.767.543,1.765,1.31,2.915,2.077a14.867,14.867,0,0,0,8.209,3.069,8.22,8.22,0,0,0,5.523-2.685,23.062,23.062,0,0,0,4.45-6.444,36.537,36.537,0,0,0,2.685-7.512,1.666,1.666,0,0,1,.465-.134,6.922,6.922,0,0,1,2.91.748,4.984,4.984,0,0,0,1.841.46c1.535-.383,1.535-1.917,1-3.145a7.009,7.009,0,0,0-1.376-1.617,7.229,7.229,0,0,0-3.74-1.667l-.173-.021a29.473,29.473,0,0,0,.077-3.676h0q.013-.35.011-.7a14.081,14.081,0,0,0-14.2-13.955c-6.674,0-13.733,6.214-13.733,15.57a22.354,22.354,0,0,0,2.148,7.831c1,2.455,2.148,4.833,3.222,7.058a7.167,7.167,0,0,0-5.754-.307A5.824,5.824,0,0,0,12.233,173.328Zm13.275-15.96a8.007,8.007,0,0,1,8.439-.69,8.481,8.481,0,0,1,2.838,2.078c.844,1.074,1.611,3.222-.384,3.759a5.835,5.835,0,0,1-1.994-.077,4.866,4.866,0,0,0-3.759.23" fill="none" stroke="#0080f4" stroke-miterlimit="10" stroke-width="2"/>
            </g>
            <path id="路径_39846" data-name="路径 39846" d="M319.238,409.5s-.281-67.937.281-92.961-27.247-65.53-40.488-82.945c-13.918-17.151-36.271-64.668-35.99-100.377q.024-2.9.167-5.766h-6.739s2.136,44.753,11.136,64.6c.321.709.615,1.424.87,2.159C255.7,215.084,275.492,245.014,290,262.7c16.87,19.541,20.772,38.1,20.772,38.1" fill="none" stroke="#0080f4" stroke-linecap="round" stroke-miterlimit="10" stroke-width="2"/>
          </g>
        </g>
        <g id="背景" transform="translate(343.495 -6.459)" opacity="0.1">
          <path id="路径_39847" data-name="路径 39847" d="M395.381,229.828l896.223,2.131,97.389,98.326V711.014l-921.585-2.13-72.028-85.75Z" transform="translate(90.634 56.382)" fill="none" stroke="#000" stroke-miterlimit="10" stroke-width="2"/>
          <path id="路径_39848" data-name="路径 39848" d="M484,250.647h769.917l62.883-66.313" transform="translate(155.55 21.688)" fill="none" stroke="#000" stroke-miterlimit="10" stroke-width="2"/>
          <path id="路径_39849" data-name="路径 39849" d="M1316.8,184.333H546.883L484,250.647" transform="translate(-59.926 594.795)" fill="none" stroke="#000" stroke-miterlimit="10" stroke-width="2"/>
          <circle id="椭圆_2016" data-name="椭圆 2016" cx="29.476" cy="29.476" r="29.476" transform="translate(1461.56 154)" fill="none" stroke="#000" stroke-miterlimit="10" stroke-width="2"/>
          <circle id="椭圆_2017" data-name="椭圆 2017" cx="18.42" cy="18.42" r="18.42" transform="translate(393.772 840.211)" fill="none" stroke="#000" stroke-miterlimit="10" stroke-width="2"/>
          <path id="路径_39850" data-name="路径 39850" d="M594.911,288.661l58.755-25.446h748.26" transform="translate(-31.036 -16.326)" fill="none" stroke="#000" stroke-width="2"/>
          <path id="路径_39851" data-name="路径 39851" d="M1401.926,263.214l-58.755,25.446H594.911" transform="translate(-69.377 515.914)" fill="none" stroke="#000" stroke-width="2"/>
          <path id="路径_39852" data-name="路径 39852" d="M444.242,293.133H387.292V671" transform="translate(79.749 -20.798)" fill="none" stroke="#000" stroke-width="2"/>
          <path id="路径_39853" data-name="路径 39853" d="M1688.293,462.333V786.349H1608.8" transform="translate(-182.597 -46.091)" fill="none" stroke="#707070" stroke-width="2"/>
          <path id="路径_39854" data-name="路径 39854" d="M428.642,768.6l67.719,70.977" transform="translate(44.819 -79.873)" fill="none" stroke="#000" stroke-width="2"/>
          <path id="路径_39855" data-name="路径 39855" d="M1636.882,316.811l50.249,47.226" transform="translate(-194.885 -6.37)" fill="none" stroke="#000" stroke-width="2"/>
        </g>
      </g>
    </g>
  </g>
</svg>
