<svg xmlns="http://www.w3.org/2000/svg" xmlns:xlink="http://www.w3.org/1999/xlink" width="1820" height="880" viewBox="0 0 1820 880">
  <defs>
    <clipPath id="clip-path">
      <rect id="矩形_2676" data-name="矩形 2676" width="1820" height="880" transform="translate(50 88)" fill="#fff"/>
    </clipPath>
  </defs>
  <g id="蒙版组_31" data-name="蒙版组 31" transform="translate(-50 -88)" clip-path="url(#clip-path)">
    <g id="组_21869" data-name="组 21869">
      <g id="组_21868" data-name="组 21868" transform="translate(-6274 1354)">
        <g id="组_21864" data-name="组 21864" transform="translate(6349 -1368)">
          <path id="路径_39778" data-name="路径 39778" d="M22.516-43a35.428,35.428,0,0,1,.208,4.42c0,12.376-2.86,20.956-9.516,28.652C9.932-6.188,7.176-4.056,1.872-1.248A15.556,15.556,0,0,1,5.928,4.108a43.859,43.859,0,0,0,8.06-5.98A36.2,36.2,0,0,0,22-11.856a37.209,37.209,0,0,0,4.056-10.5,41.111,41.111,0,0,0,6.916,14.2C36.66-3.276,39.832-.312,46.176,4.108a19.346,19.346,0,0,1,4.056-5.772,34.63,34.63,0,0,1-8.06-5.616,35.74,35.74,0,0,1-8.216-9.88c-3.744-6.656-5.1-12.168-5.1-21.008A39.239,39.239,0,0,1,29.224-43ZM93.028-29.016c-2.08,6.916-4.576,11.7-8.424,16.172a15.526,15.526,0,0,1,3.068,5.408A40.963,40.963,0,0,0,93.86-19.292a63.585,63.585,0,0,0-.26,7.852v10.3a41.1,41.1,0,0,1-.312,5.616h6.084A41.408,41.408,0,0,1,99.06-1.2V-20.54c2.808,5.2,2.808,5.2,3.692,7.176l3.692-4.212a86.371,86.371,0,0,0-7.384-10.3v-1.144h3.276a16.2,16.2,0,0,1,3.224.26v-5.72a15.489,15.489,0,0,1-3.276.26H99.06V-39a24.721,24.721,0,0,1,.312-4.784H93.236A24.721,24.721,0,0,1,93.548-39v4.784h-3.64a18.25,18.25,0,0,1-3.692-.26v5.72a16.684,16.684,0,0,1,3.484-.26Zm19.5-12.48a30.387,30.387,0,0,1-4.94-.26,53.409,53.409,0,0,1,.26,7.072c0,15.028-.572,21.892-2.288,26.988A17.527,17.527,0,0,1,100.776.052a21.884,21.884,0,0,1,4.576,4.264c4.16-4.784,5.928-9.048,7.02-16.744.78-5.408.988-10.452.988-23.868h6.968V-1.872c0,2.5.26,3.484,1.2,4.212.832.676,2.288.936,4.836.936A20.2,20.2,0,0,0,130,2.964a3.318,3.318,0,0,0,2.652-1.872c.832-1.664,1.092-3.588,1.508-11.648a17.68,17.68,0,0,1-4.992-2.236,88.833,88.833,0,0,1-.364,9.724c-.156.832-.572,1.092-1.664,1.092-.832,0-1.2-.312-1.2-.936V-36.556a47.1,47.1,0,0,1,.208-5.2,30.78,30.78,0,0,1-4.94.26Zm73.944,7.384V-37.6a33.276,33.276,0,0,1,.312-5.356h-6.4a34.937,34.937,0,0,1,.312,5.408v3.432h-3.848a45.017,45.017,0,0,1-5.72-.312v6.188a53.6,53.6,0,0,1,5.72-.26H180.7v10.92h-5.1a45.777,45.777,0,0,1-6.656-.364V-11.6a46.731,46.731,0,0,1,6.656-.364h33.7a47.532,47.532,0,0,1,6.708.364V-17.94a45.949,45.949,0,0,1-6.76.364h-5.3V-28.5h4.264a56.933,56.933,0,0,1,5.876.26v-6.188a45.38,45.38,0,0,1-5.876.312h-4.264V-37.44a37.629,37.629,0,0,1,.312-5.46h-6.4a28.065,28.065,0,0,1,.312,5.408v3.38Zm0,5.616h11.7v10.92h-11.7ZM183.56-10.92A22.193,22.193,0,0,1,177.528-5.1,36.419,36.419,0,0,1,169-.676a24.27,24.27,0,0,1,3.952,4.836,40.507,40.507,0,0,0,7.592-4.42A37.86,37.86,0,0,0,188.5-7.852ZM215.176-.208a123.976,123.976,0,0,0-14.456-10.92l-4.16,3.64C204-2.34,206.388-.416,210.86,4.16Zm49.608-33.176c.468-1.144,1.144-3.172,1.4-3.9a12.456,12.456,0,0,1,.52-1.716,8.22,8.22,0,0,0,.468-1.352l-5.928-1.456a28.221,28.221,0,0,1-1.144,4.836,37.714,37.714,0,0,1-8.788,15.184,15.776,15.776,0,0,1,4.264,4.42,45.944,45.944,0,0,0,7.072-10.92H273.26v9.568H265.2a47.717,47.717,0,0,1-6.24-.312v5.72a54.542,54.542,0,0,1,6.292-.312h8.008V-2.6H259.9a60.968,60.968,0,0,1-7.228-.364V2.964a66.87,66.87,0,0,1,7.384-.364h31.824a60.621,60.621,0,0,1,7.072.364V-2.964a57,57,0,0,1-7.228.364H279.24V-13.624h9a57.8,57.8,0,0,1,6.4.312v-5.72a53.974,53.974,0,0,1-6.4.312h-9v-9.568h10.972c2.5,0,4.628.1,6.864.312V-33.7c-2.132.208-4.368.312-7.02.312H279.24v-4a48.483,48.483,0,0,1,.312-6.188H272.9a42.4,42.4,0,0,1,.364,6.24v3.952Zm111.852.676v-4.316A43.268,43.268,0,0,1,377-43.16h-6.4a44.27,44.27,0,0,1,.364,6.136v4.316H358.852a30.987,30.987,0,0,1-5.1-.26V-27.2a26.984,26.984,0,0,1,4.992-.26h12.22V-3.172c0,1.04-.52,1.3-2.444,1.3a69.353,69.353,0,0,1-7.02-.52A21.928,21.928,0,0,1,362.6,3.484c3.8.208,4.16.208,4.992.208H369.1c5.98,0,7.54-1.144,7.54-5.668v-25.48h1.508a24.859,24.859,0,0,1,4.992.312V-33.02a30.079,30.079,0,0,1-5.1.312Zm-9.2,21.164c-3.38-7.332-4.212-8.84-7.436-13.364l-4.68,2.444c3.068,4.472,4.368,6.968,7.02,13.78ZM341.484,1.4V-3.38h5.72V-.572h5.46a38.27,38.27,0,0,1-.156-4.732V-35.36a49.644,49.644,0,0,1,.156-5.1,46.4,46.4,0,0,1-4.732.156H340.7a44.867,44.867,0,0,1-4.68-.156c.1,2.548.156,4.316.156,5.252v30.42c0,2.08-.1,4-.26,6.188Zm0-36.608h5.72v10.3h-5.72Zm0,15.392h5.72V-8.476h-5.72ZM443.4-23.868a56.388,56.388,0,0,0,4.368,15.652c3.484,7.28,8.476,12.272,12.324,12.272,3.692,0,5.512-3.276,6.708-12.22a21.492,21.492,0,0,1-4.94-3.38c-.52,6.084-1.2,8.736-2.184,8.736-1.248,0-4.368-3.692-6.344-7.592a43.618,43.618,0,0,1-4.108-13.936l11.024-.884c1.768-.156,2.912-.208,3.848-.208.416,0,.78,0,1.508.052l-.156-5.876a40.569,40.569,0,0,1-5.668.728l-11.128.884c-.312-3.172-.52-6.656-.52-9.412a19.573,19.573,0,0,1,.26-3.9l-6.292.1c.1.884.26,2.808.26,3.848.1,5.1.156,5.876.468,9.88l-4.732.364c-1.352.1-2.86.156-3.952.156h-1.612l.156,5.824a38.541,38.541,0,0,1,5.2-.624ZM424.84-2.08a41.48,41.48,0,0,1-.364,6.4h6.4a44.611,44.611,0,0,1-.364-6.292V-30.784a86.146,86.146,0,0,0,4.836-11.076l-5.928-2.028a31,31,0,0,1-2.028,6.812,45.164,45.164,0,0,1-10.452,15.444,20.866,20.866,0,0,1,2.756,5.98,36.152,36.152,0,0,0,5.3-6.5c-.1,1.976-.156,3.328-.156,5.98Zm25.792-37.492a49.815,49.815,0,0,1,3.9,4,30.015,30.015,0,0,1,3.8,4.576l4.316-3.952c-4.264-4.732-5.044-5.564-7.956-8.06Zm62.14,30.42H505.18V-1.56H509.5c-.052,3.224-.78,4.16-3.9,5.044l1.82,2.756c4.212-1.664,5.356-3.328,5.356-7.8ZM25.584,73.636l3.484-8.06H43.68a34.017,34.017,0,0,1,4.732.312V60.376a25.694,25.694,0,0,1-4.836.26H30.42l.26-.572a27.816,27.816,0,0,1,1.248-2.912l-5.512-1.144a23.259,23.259,0,0,1-1.4,4.628h-2.6a43.68,43.68,0,0,1-6.032-.312v5.512c1.3-.156,3.9-.26,5.928-.26h1.2l-2.392,5.616c-.832,1.716-1.2,2.132-2.548,2.808l1.248,4.628a2.747,2.747,0,0,1,.676-.052,7.363,7.363,0,0,1,.988-.052,14.661,14.661,0,0,1,2.236-.1h8.06v4.94H20.124a22.452,22.452,0,0,1-4.212-.312V88.56a28.946,28.946,0,0,1,4.264-.208h11.6V90.8a48.55,48.55,0,0,1-.26,5.46H37.18a35.137,35.137,0,0,1-.312-5.46V88.352h8.424a32.137,32.137,0,0,1,4.316.208V83.048a19.029,19.029,0,0,1-4.212.312H36.868V78.42h5.72a17.246,17.246,0,0,1,3.8.26v-5.3c-.312.052-1.56.156-3.8.26h-5.72V72.024a42.946,42.946,0,0,1,.208-4.368h-5.46c.1,1.872.156,2.86.156,4.368v1.612Zm-16.9,19.4c-.832.52-3.8,2.808-4.836,3.692C1.924,98.492,1.924,98.492,1.3,99.012l4.056,4.68c2.08-2.548,2.08-2.548,2.6-3.172,1.56-1.716,2.652-2.548,3.38-2.548a2.2,2.2,0,0,1,1.352.572c3.224,2.548,3.588,2.808,5.408,3.432,2.6.936,5.564,1.248,12.74,1.248,9.62,0,13.416-.052,18.408-.364a21.2,21.2,0,0,1,1.612-6.032,77.791,77.791,0,0,1-8.632.676c-4.212.156-8.58.26-11.44.26-8.58,0-11.128-.52-14.4-2.964-2.08-1.56-2.08-1.56-2.236-1.664V81.748a62.466,62.466,0,0,1,.208-6.448,21.828,21.828,0,0,1-3.952.26H6.5a23.257,23.257,0,0,1-4.16-.26v5.616a18.943,18.943,0,0,1,3.484-.26h2.86ZM2.652,60.48a51.675,51.675,0,0,1,4.264,4.16,53.971,53.971,0,0,1,3.8,4.732l4.16-4.16a53.734,53.734,0,0,0-7.124-7.488A14.369,14.369,0,0,0,6.6,56.736ZM128.18,87.728a31.84,31.84,0,0,1,5.044.26V82.476a29.834,29.834,0,0,1-5.1.26H116.272a10.118,10.118,0,0,1,.728-1.2c.572-1.04.572-1.04.832-1.508l-4.316-1.3h14.4a32.739,32.739,0,0,1,5.3.26V73.48a31.95,31.95,0,0,1-5.3.26h-4.108a27.017,27.017,0,0,0,3.224-6.136l-4.888-1.248h4.628a30.078,30.078,0,0,1,5.252.26V61.1a38.414,38.414,0,0,1-5.824.26h-6.448a34.705,34.705,0,0,0-2.288-5.824L112.06,57.1a20.513,20.513,0,0,1,1.976,4.264h-5.772a40.54,40.54,0,0,1-5.876-.26v5.512a29.7,29.7,0,0,1,5.252-.26h3.016L106.34,68.02a21.461,21.461,0,0,1,2.392,5.72H105.2a20.271,20.271,0,0,1-4.16-.26v5.512a26.431,26.431,0,0,1,4.472-.26h6.812a26.74,26.74,0,0,1-1.56,3.432c-.208.468-.208.468-.312.572H105.82a31.839,31.839,0,0,1-5.044-.26v5.512a31.91,31.91,0,0,1,4.992-.26h1.508a41.457,41.457,0,0,1-4.576,5.564,89.914,89.914,0,0,1,9.152,3.172c-3.952,1.872-7.7,2.652-13.676,3.016a15.87,15.87,0,0,1,2.184,4.992c7.124-.832,12.428-2.548,17.16-5.564a82.018,82.018,0,0,1,11.024,5.98l3.64-4.68a76.392,76.392,0,0,0-10.3-4.94,20.1,20.1,0,0,0,4.68-7.54Zm-7.28,0a13.863,13.863,0,0,1-4.056,5.616c-2.86-.988-4.94-1.716-6.292-2.132,1.456-1.82,1.924-2.444,2.652-3.484Zm.884-21.372c-1.2,3.9-1.716,5.1-3.276,7.384h-9.152l4.264-1.612a26.068,26.068,0,0,0-2.392-5.772Zm-24.908-.364V61.676a29.875,29.875,0,0,1,.312-5.252H91.1a30.166,30.166,0,0,1,.312,5.3v4.264h-2.08a22.389,22.389,0,0,1-3.848-.26v5.512a31.529,31.529,0,0,1,3.8-.208h2.132v9.412a32.864,32.864,0,0,1-6.552,1.612l1.092,5.824a16.551,16.551,0,0,1,2.184-.832c.832-.26,1.976-.624,3.276-1.092V97.348c0,1.248-.312,1.56-1.664,1.56a23.663,23.663,0,0,1-3.952-.364,16.2,16.2,0,0,1,1.3,5.356,20.96,20.96,0,0,0,2.392.1c2.86,0,4.732-.364,5.876-1.04.936-.624,1.508-2.132,1.508-4V83.724a37.358,37.358,0,0,0,3.536-1.768l-.416-5.2-3.12,1.56v-7.28h1.456a25.65,25.65,0,0,1,2.86.156V65.784a15.207,15.207,0,0,1-2.912.208Zm96.356,12.636v20.02c0,3.744,1.872,4.576,10.712,4.576,4.524,0,7.02-.312,8.632-1.092,1.768-.832,2.444-2.028,3.068-5.3a62.326,62.326,0,0,0,.728-6.968,19.3,19.3,0,0,1-5.616-1.924c-.052,4.42-.364,7.228-.78,8.268-.468,1.144-1.872,1.456-6.344,1.456-4.056,0-4.68-.208-4.68-1.56V78.628h10.4a44.6,44.6,0,0,1,5.928.312V72.8a47.155,47.155,0,0,1-5.98.312H193.544a86.2,86.2,0,0,0,.676-9.256h12.948a43.867,43.867,0,0,1,5.98.312V58.036a45.475,45.475,0,0,1-5.98.312H177.736a43.866,43.866,0,0,1-5.98-.312v6.136a48.313,48.313,0,0,1,5.98-.312h10.712a70.2,70.2,0,0,1-.676,9.256h-12.22a45.477,45.477,0,0,1-5.98-.312V78.94a49.508,49.508,0,0,1,5.98-.312h11.076a27.336,27.336,0,0,1-6.708,11.8c-3.068,3.172-6.448,5.46-12.012,8.164a22.027,22.027,0,0,1,4.212,5.46c5.98-3.484,9.464-6.136,12.584-9.62a34.138,34.138,0,0,0,7.852-15.808Zm102.18,2.86a10.741,10.741,0,0,1,1.456.1,51.78,51.78,0,0,1-.208-5.668V63.808c0-3.328.052-4.524.156-5.772a28.213,28.213,0,0,1-4.836.26H277.108a26.631,26.631,0,0,1-4.992-.26c.156,1.976.208,3.224.208,5.564V95.632c-.26,2.184-.624,2.808-2.184,3.64l1.716,4.992c5.46-1.3,8.684-2.236,14.248-4.056l.208-5.356A61.761,61.761,0,0,1,277.68,97.5V81.436h3.744c1.352,5.668,2.34,8.216,4.732,12.064,2.7,4.316,5.928,7.384,11.284,10.764a19.706,19.706,0,0,1,3.276-5.3,24.171,24.171,0,0,1-9.464-7.436c2.184-1.508,5.512-4.108,6.916-5.356a8.153,8.153,0,0,1,1.456-1.092Zm-2.756-.052c.728,0,1.508,0,2.548.052a37.636,37.636,0,0,1-6.5,5.668,26.106,26.106,0,0,1-1.872-5.72ZM277.68,63.288h13.676V67.5H277.68Zm0,8.788h13.676V76.7H277.68ZM253.864,98.232a46.584,46.584,0,0,1-.312,5.98h6.032c-.156-1.872-.26-3.8-.26-5.98V62.872h6.032a61.619,61.619,0,0,1-4.836,11.7,19.691,19.691,0,0,1,3.64,5.3,14.172,14.172,0,0,1,1.144,5.356c0,1.716-.676,2.288-2.652,2.288a12.223,12.223,0,0,1-2.34-.208,12.9,12.9,0,0,1,1.092,5.46,17.649,17.649,0,0,0,5.72-.572c2.548-.832,3.692-2.756,3.692-6.188a18.162,18.162,0,0,0-.832-5.252,20.748,20.748,0,0,0-3.692-6.656,83.964,83.964,0,0,0,4-8.892c1.2-3.016,1.248-3.224,1.612-3.952l-2.964-3.64a14.267,14.267,0,0,1-3.8.26H257.5a32.687,32.687,0,0,1-3.8-.156c.1,2.392.156,3.12.156,4.784ZM376.74,63.7a54.341,54.341,0,0,1,5.824.312V58.14a59.16,59.16,0,0,1-6.4.312h-34.06a55.183,55.183,0,0,1-6.292-.312v5.876a62.74,62.74,0,0,1,6.4-.312h28.7V96.932c0,1.352-.416,1.612-2.392,1.612a67.879,67.879,0,0,1-7.748-.572,20.038,20.038,0,0,1,1.456,5.772c2.548.1,4,.156,5.72.156,7.436,0,8.788-.884,8.788-5.772Zm-12.948,9.828a25.4,25.4,0,0,1,.26-4.42,45.4,45.4,0,0,1-4.992.208h-13.1a41.25,41.25,0,0,1-4.836-.208,31.848,31.848,0,0,1,.26,4.784v16.38a36.576,36.576,0,0,1-.312,4.68h5.98V90.64h12.22c.208,0,.676,0,1.352.052h1.352c.936.052,1.144.052,2.028.156a35.113,35.113,0,0,1-.208-4.212Zm-16.8.832h11.232V85.6H347ZM426.5,55.9a30.241,30.241,0,0,1-4.316,8.268,5.183,5.183,0,0,1-3.172,1.872l1.2,5.252c5.564-.468,11.908-1.092,17.368-1.768q.78,1.482,1.4,2.808l4.68-2.756a71.393,71.393,0,0,0-7.072-10.66l-4.264,2.028c1.04,1.456,1.248,1.716,2.132,3.12a6.189,6.189,0,0,0,.52.884c-2.6.26-2.652.26-5.824.52-.676.052-.676.052-1.716.1a31.072,31.072,0,0,0,1.872-2.964c1.3-2.34,1.3-2.34,1.664-2.912.572-1.04.572-1.04.728-1.3a7.1,7.1,0,0,1,.78-1.4ZM449.54,68.436a69.4,69.4,0,0,0,12.012-4.576c2.548-1.248,2.548-1.248,3.64-1.716l-3.848-4.784A26.114,26.114,0,0,1,455.312,61a33.13,33.13,0,0,1-5.772,2.184V60.792a22.164,22.164,0,0,1,.26-4.212h-5.98a26.058,26.058,0,0,1,.26,4.472V74c0,1.872.572,2.912,2.028,3.432,1.352.572,2.86.728,7.124.728,6.916,0,8.788-.312,10.14-1.612,1.2-1.2,1.664-2.964,2.08-7.852a19.385,19.385,0,0,1-5.2-1.612c-.156,3.9-.312,4.94-.884,5.46-.676.572-1.82.676-6.136.676-3.224,0-3.692-.208-3.692-1.508Zm0,23.192c3.172-.884,5.616-1.612,7.332-2.288,1.56-.52,7.124-3.016,8.632-3.848l-3.952-4.576a34.761,34.761,0,0,1-12.012,5.616V84.816a21.416,21.416,0,0,1,.26-4.316h-5.98a25.518,25.518,0,0,1,.26,4.628V98.8c0,1.716.416,2.652,1.612,3.38,1.352.832,2.964,1.04,8.112,1.04,6.552,0,8.372-.364,9.776-1.924,1.352-1.508,1.924-3.484,2.288-8.372a21.2,21.2,0,0,1-5.3-1.768c-.052,3.016-.364,5.3-.832,5.98-.468.78-1.716,1.04-5.2,1.04a15.363,15.363,0,0,1-3.692-.26c-.988-.208-1.3-.52-1.3-1.4ZM420.992,98.6a43.656,43.656,0,0,1-.26,5.668h5.928a45.4,45.4,0,0,1-.26-5.772V93.344h8.736V97.66c-.1.78-.312.936-1.352.936a18.472,18.472,0,0,1-3.536-.364,21.177,21.177,0,0,1,1.144,5.3c.936.052,1.716.052,2.184.052,2.756,0,4.368-.312,5.46-.988,1.04-.624,1.456-1.82,1.456-4.056v-20.7c0-2.548.052-3.432.156-4.888a37.855,37.855,0,0,1-4.68.208h-11.44a36.905,36.905,0,0,1-3.744-.156,45.686,45.686,0,0,1,.208,4.784Zm5.356-20.7h8.788v3.224h-8.788Zm0,7.7h8.788V88.82h-8.788Z" transform="translate(180 502)"/>
          <text id="OUR_MISSION" data-name="OUR MISSION" transform="translate(180 416)" font-size="12" font-family="HiraginoSansGB-W6, Hiragino Sans GB" letter-spacing="1.6em"><tspan x="0" y="0">OUR MISSION</tspan></text>
        </g>
        <g id="组_21867" data-name="组 21867" transform="translate(7206.552 -1035.352)">
          <rect id="矩形_2670" data-name="矩形 2670" width="55.988" height="56.726" rx="6.75" transform="translate(1.448 128.824)" fill="none" stroke="#0080f4" stroke-miterlimit="10" stroke-width="2"/>
          <rect id="矩形_2671" data-name="矩形 2671" width="40.348" height="41.133" rx="6.75" transform="translate(14.874 247.219)" fill="none" stroke="#0080f4" stroke-miterlimit="10" stroke-width="2"/>
          <rect id="矩形_2672" data-name="矩形 2672" width="33.002" height="33.645" rx="5.568" transform="translate(109.785 320.237)" fill="none" stroke="#0080f4" stroke-miterlimit="10" stroke-width="2"/>
          <rect id="矩形_2673" data-name="矩形 2673" width="33.002" height="33.645" rx="5.568" transform="translate(480.242 320.237)" fill="none" stroke="#ef54a1" stroke-miterlimit="10" stroke-width="2"/>
          <g id="left">
            <path id="line_1" d="M104.284,43.043S78.1,67.67,70.615,95.611" fill="none" stroke="#0080f4" stroke-linecap="round" stroke-miterlimit="10" stroke-width="2"/>
            <path id="line_2" d="M97.713,32.981S66.608,61.344,58.6,95.611" fill="none" stroke="#0080f4" stroke-linecap="round" stroke-miterlimit="10" stroke-width="2"/>
            <path id="line_3" d="M94.971,19.274S53.956,56.283,43.518,96.455" fill="none" stroke="#0080f4" stroke-linecap="round" stroke-miterlimit="10" stroke-width="2"/>
            <path id="line4" d="M89.805,6.938S48.051,36.566,29.494,97.3" fill="none" stroke="#0080f4" stroke-linecap="round" stroke-miterlimit="10" stroke-width="2"/>
          </g>
          <g id="right">
            <path id="line_01" d="M519.192,36.531s21.736,29.078,24.278,57.893" fill="none" stroke="#ef54a1" stroke-linecap="round" stroke-miterlimit="10" stroke-width="2"/>
            <path id="line_02" d="M527.61,28.052s25.732,33.313,27.7,68.45" fill="none" stroke="#ef54a1" stroke-linecap="round" stroke-miterlimit="10" stroke-width="2"/>
            <path id="line_03" d="M532.68,15.025s34,43.543,37.334,84.915" fill="none" stroke="#ef54a1" stroke-linecap="round" stroke-miterlimit="10" stroke-width="2"/>
            <path id="line_04" d="M539.9,3.768s36,36.4,43.778,99.427" fill="none" stroke="#ef54a1" stroke-linecap="round" stroke-miterlimit="10" stroke-width="2"/>
          </g>
          <path id="路径_39701" data-name="路径 39701" d="M324.826,41.943s-7.8-24.567-51.137-33.845h-42.6L183.75,10s-83.507,16.659-105.6,98.479V300.231S78,308.6,87.7,308.7s66.321,0,66.321,0,5.878-.474,5.878,5.878V403.42s-.448,6.08,5.3,6.08H463.758V322.8a16.378,16.378,0,0,1,16.378-16.378h40.313a11.984,11.984,0,0,0,11.984-11.985V270.638a27.044,27.044,0,0,1,3.691-8.119c2.53-3.479,6.959-6.009,0-12.863,1.37-1.476,5.483-3.058,6.221-8.33V228.358L561.956,217.5s5.167-5.377,0-14.655l-33.74-45.866s-4.534-3.69-.422-11.6l11.493-19.19L521.257,68.83S510.432,28.623,446.326,8.1,305.742,18.22,281.561,42.119a129.66,129.66,0,0,0-27.935,40.458" fill="none" stroke="#000" stroke-linecap="round" stroke-miterlimit="10" stroke-width="2"/>
          <path id="路径_39702" data-name="路径 39702" d="M157.074,20.012h70.749L238.051,8.1" fill="none" stroke="#000" stroke-linecap="round" stroke-miterlimit="10" stroke-width="2"/>
          <path id="路径_39703" data-name="路径 39703" d="M293.792,15.057H243.112L232.708,28.2H190.533L180.411,41.135H167.2V52.118" fill="none" stroke="#000" stroke-linecap="round" stroke-miterlimit="10" stroke-width="2"/>
          <path id="路径_39704" data-name="路径 39704" d="M134.159,32.348V59.13l6.889,5.9V78.319" fill="none" stroke="#000" stroke-linecap="round" stroke-miterlimit="10" stroke-width="2"/>
          <path id="路径_39705" data-name="路径 39705" d="M128.465,36.566V62.925L135,68.9V82.045" fill="none" stroke="#000" stroke-linecap="round" stroke-miterlimit="10" stroke-width="2"/>
          <path id="路径_39706" data-name="路径 39706" d="M122.631,41.205V67.073l7.029,6.186V85.981" fill="none" stroke="#000" stroke-linecap="round" stroke-miterlimit="10" stroke-width="2"/>
          <path id="路径_39707" data-name="路径 39707" d="M117.008,45.985V71.36l6.678,5.764V90.48" fill="none" stroke="#000" stroke-linecap="round" stroke-miterlimit="10" stroke-width="2"/>
          <circle id="椭圆_1980" data-name="椭圆 1980" cx="5.221" cy="5.221" r="5.221" transform="translate(138.612 35.396)"/>
          <circle id="椭圆_1981" data-name="椭圆 1981" cx="7.665" cy="7.665" r="7.665" transform="translate(470.995 42.365)"/>
          <circle id="椭圆_1982" data-name="椭圆 1982" cx="9.384" cy="9.384" r="9.384" transform="translate(433.533 57.021)"/>
          <circle id="椭圆_1983" data-name="椭圆 1983" cx="8.764" cy="8.764" r="8.764" transform="translate(412.221 34.866)"/>
          <circle id="椭圆_1984" data-name="椭圆 1984" cx="6.805" cy="6.805" r="6.805" transform="translate(412.476 81.461)"/>
          <circle id="椭圆_1985" data-name="椭圆 1985" cx="6.26" cy="6.26" r="6.26" transform="translate(434.71 99.266)"/>
          <circle id="椭圆_1986" data-name="椭圆 1986" cx="5.516" cy="5.516" r="5.516" transform="translate(391.114 63.907)"/>
          <circle id="椭圆_1987" data-name="椭圆 1987" cx="6.26" cy="6.26" r="6.26" transform="translate(389.209 104.89)"/>
          <circle id="椭圆_1988" data-name="椭圆 1988" cx="6.381" cy="6.381" r="6.381" transform="translate(103.009 71.781)"/>
          <circle id="椭圆_1989" data-name="椭圆 1989" cx="4.248" cy="4.248" r="4.248" transform="translate(101.036 146.795)"/>
          <circle id="椭圆_1990" data-name="椭圆 1990" cx="4.327" cy="4.327" r="4.327" transform="translate(96.777 166.927)"/>
          <circle id="椭圆_1991" data-name="椭圆 1991" cx="4.327" cy="4.327" r="4.327" transform="translate(191.036 155.106)"/>
          <circle id="椭圆_1992" data-name="椭圆 1992" cx="4.206" cy="4.206" r="4.206" transform="translate(129.854 254.465)"/>
          <circle id="椭圆_1993" data-name="椭圆 1993" cx="4.206" cy="4.206" r="4.206" transform="translate(82.436 225.505)"/>
          <path id="路径_39708" data-name="路径 39708" d="M84.184,90.945h61.292L167.97,51.4h86.037V42.681H413.851" fill="none" stroke="#000" stroke-linecap="round" stroke-miterlimit="10" stroke-width="2"/>
          <path id="路径_39709" data-name="路径 39709" d="M148.428,44.052l7.767,5.729V71.114" fill="none" stroke="#000" stroke-linecap="round" stroke-miterlimit="10" stroke-width="2"/>
          <path id="路径_39710" data-name="路径 39710" d="M291.754,33.122H231.795L221.11,50.976" fill="none" stroke="#000" stroke-linecap="round" stroke-miterlimit="10" stroke-width="2"/>
          <path id="路径_39711" data-name="路径 39711" d="M287.677,36.531H234.624l-8.54,14.217" fill="none" stroke="#000" stroke-linecap="round" stroke-miterlimit="10" stroke-width="2"/>
          <path id="路径_39712" data-name="路径 39712" d="M196.543,32.489l-7.381,9.876h14.2Z"/>
          <path id="路径_39713" data-name="路径 39713" d="M79,288.668h89.148l22.63,18.247a2.833,2.833,0,0,0,1.776.626H403.307a2.249,2.249,0,0,0,2.249-2.249V274.083l-18.7-8.717V224.878" fill="none" stroke="#000" stroke-linecap="round" stroke-miterlimit="10" stroke-width="2"/>
          <path id="路径_39714" data-name="路径 39714" d="M79.964,105.03h26.184v9.982s-13.092,10.227-13.092,22.142v63.157L79,217.814" fill="none" stroke="#000" stroke-linecap="round" stroke-miterlimit="10" stroke-width="2"/>
          <line id="直线_600" data-name="直线 600" x1="26.307" transform="translate(78.997 111.216)" fill="none" stroke="#000" stroke-linecap="round" stroke-miterlimit="10" stroke-width="2"/>
          <path id="路径_39715" data-name="路径 39715" d="M101.192,174.268v35.216l-5.272,5.588V227.83l4.112,2.952v34.795" fill="none" stroke="#000" stroke-linecap="round" stroke-miterlimit="10" stroke-width="2"/>
          <path id="路径_39716" data-name="路径 39716" d="M86.642,233.419v45.232h25.2l7.908-10.438V196.2h5.483s7.17,8.962,29.523,7.592v47.183a8.171,8.171,0,0,1-8.172,8.171h-9.647" fill="none" stroke="#000" stroke-linecap="round" stroke-miterlimit="10" stroke-width="2"/>
          <path id="路径_39717" data-name="路径 39717" d="M91.843,239.639v32.123h15.675l5.975-8.154v-76.97h9.56" fill="none" stroke="#000" stroke-linecap="round" stroke-miterlimit="10" stroke-width="2"/>
          <path id="路径_39718" data-name="路径 39718" d="M120.575,201.647l14.041,13.9h9.437l5.114,5.8" fill="none" stroke="#000" stroke-linecap="round" stroke-miterlimit="10" stroke-width="2"/>
          <path id="路径_39719" data-name="路径 39719" d="M120.7,208.852l13.76,13.971h10.227l4.481,5.746" fill="none" stroke="#000" stroke-linecap="round" stroke-miterlimit="10" stroke-width="2"/>
          <path id="路径_39720" data-name="路径 39720" d="M120.7,216.812l13.654,13.654H144.58l4.587,5.852" fill="none" stroke="#000" stroke-linecap="round" stroke-miterlimit="10" stroke-width="2"/>
          <path id="路径_39721" data-name="路径 39721" d="M120.7,223.982l13.654,13.76h10.28l4.534,5.957" fill="none" stroke="#000" stroke-linecap="round" stroke-miterlimit="10" stroke-width="2"/>
          <path id="路径_39722" data-name="路径 39722" d="M141.944,270.058h36.692l24.093,19.4h77.427" fill="none" stroke="#000" stroke-linecap="round" stroke-miterlimit="10" stroke-width="2"/>
          <path id="路径_39723" data-name="路径 39723" d="M138.265,275.91h36.312l22.915,19.119h80.976" fill="none" stroke="#000" stroke-linecap="round" stroke-miterlimit="10" stroke-width="2"/>
          <path id="路径_39724" data-name="路径 39724" d="M134.932,281.674h36.411l23.337,19.119h82.945" fill="none" stroke="#000" stroke-linecap="round" stroke-miterlimit="10" stroke-width="2"/>
          <path id="路径_39725" data-name="路径 39725" d="M213.642,232.153v25.252l-5.694,5.8.419,25.305" fill="none" stroke="#000" stroke-linecap="round" stroke-miterlimit="10" stroke-width="2"/>
          <path id="路径_39726" data-name="路径 39726" d="M238.472,231.732v18.522l-5.412,6.361V288.51" fill="none" stroke="#000" stroke-linecap="round" stroke-miterlimit="10" stroke-width="2"/>
          <path id="路径_39727" data-name="路径 39727" d="M244.707,231.732v20.824l-5.412,5.377V288.51" fill="none" stroke="#000" stroke-linecap="round" stroke-miterlimit="10" stroke-width="2"/>
          <path id="路径_39728" data-name="路径 39728" d="M178.83,324.827v50.4l-7.7,8.646H161.116" fill="none" stroke="#000" stroke-linecap="round" stroke-miterlimit="10" stroke-width="2"/>
          <path id="路径_39729" data-name="路径 39729" d="M185.964,345.921l.281,34.021-12.02,9.208H161.116" fill="none" stroke="#000" stroke-linecap="round" stroke-miterlimit="10" stroke-width="2"/>
          <line id="直线_601" data-name="直线 601" x2="128.832" transform="translate(161.116 399.378)" fill="none" stroke="#000" stroke-linecap="round" stroke-miterlimit="10" stroke-width="2"/>
          <path id="路径_39730" data-name="路径 39730" d="M217.877,308.526v21.509l3.8,4.639V398.78" fill="none" stroke="#000" stroke-linecap="round" stroke-miterlimit="10" stroke-width="2"/>
          <path id="路径_39731" data-name="路径 39731" d="M224.063,308.526v18.557l5.623,6.045V398.78" fill="none" stroke="#000" stroke-linecap="round" stroke-miterlimit="10" stroke-width="2"/>
          <line id="直线_602" data-name="直线 602" y1="62.419" transform="translate(196.93 332.425)" fill="none" stroke="#000" stroke-linecap="round" stroke-miterlimit="10" stroke-width="2"/>
          <line id="直线_603" data-name="直线 603" y1="43.3" transform="translate(203.959 351.966)" fill="none" stroke="#000" stroke-linecap="round" stroke-miterlimit="10" stroke-width="2"/>
          <line id="直线_604" data-name="直线 604" y2="90.255" transform="translate(266.308 308.526)" fill="none" stroke="#000" stroke-linecap="round" stroke-miterlimit="10" stroke-width="2"/>
          <path id="路径_39732" data-name="路径 39732" d="M322.963,398.78H351.5l14.55-23.548h72.014V279.073l-35.954-19.4V212.226L439.859,107.42" fill="none" stroke="#000" stroke-linecap="round" stroke-miterlimit="10" stroke-width="2"/>
          <path id="路径_39733" data-name="路径 39733" d="M160.343,94.135l14.023-28.047H317.34l10.122-11.176h73.385L412.34,65.983H434.8" fill="none" stroke="#000" stroke-linecap="round" stroke-miterlimit="10" stroke-width="2"/>
          <path id="路径_39734" data-name="路径 39734" d="M169.9,84.189l3.269,4.991,6.994-16.765h36.587" fill="none" stroke="#000" stroke-linecap="round" stroke-miterlimit="10" stroke-width="2"/>
          <path id="路径_39735" data-name="路径 39735" d="M209.055,85.559H191.306l-1.919,3.592a.918.918,0,0,1-.81.485h-6.284a.377.377,0,0,1-.353-.51l3.826-10.118a.523.523,0,0,1,.489-.337h21.711a1.476,1.476,0,0,1,1.476,1.476v5.026A.386.386,0,0,1,209.055,85.559Z" fill="none" stroke="#000" stroke-linecap="round" stroke-miterlimit="10" stroke-width="2"/>
          <path id="路径_39736" data-name="路径 39736" d="M263.039,103.414h60.416L354.77,68.83H394.2" fill="none" stroke="#000" stroke-linecap="round" stroke-miterlimit="10" stroke-width="2"/>
          <path id="路径_39737" data-name="路径 39737" d="M263.039,111.638H322.4l8.646,15.6h23.2" fill="none" stroke="#000" stroke-linecap="round" stroke-miterlimit="10" stroke-width="2"/>
          <path id="路径_39738" data-name="路径 39738" d="M155.739,205.759h6.115l22.493,25.165H263.5" fill="none" stroke="#000" stroke-linecap="round" stroke-miterlimit="10" stroke-width="2"/>
          <path id="路径_39739" data-name="路径 39739" d="M164.771,196.515l24.3,27.467h70.749" fill="none" stroke="#000" stroke-linecap="round" stroke-miterlimit="10" stroke-width="2"/>
          <path id="路径_39740" data-name="路径 39740" d="M122.053,166.948a35.324,35.324,0,1,0-3.522-10.692" fill="none" stroke="#000" stroke-linecap="round" stroke-miterlimit="10" stroke-width="2"/>
          <path id="路径_39741" data-name="路径 39741" d="M202.911,171.33a53.591,53.591,0,0,0-29.87-70.543.514.514,0,0,0-.657.275l-1.517,3.526a.5.5,0,0,1-.64.272A47.8,47.8,0,1,0,196,171.64h34.274l6.379,10.457h7.433" fill="none" stroke="#000" stroke-linecap="round" stroke-miterlimit="10" stroke-width="2"/>
          <path id="路径_39742" data-name="路径 39742" d="M195.1,160.865a42.938,42.938,0,0,0,1.226-10.215c0-13.615-5.229-24.673-16.828-33.248l2.144-3.972s-4.639-4.042-8.294-4.182c-.984,1.406-4.569,8.646-4.569,8.646" fill="none" stroke="#000" stroke-linecap="round" stroke-miterlimit="10" stroke-width="2"/>
          <circle id="椭圆_1994" data-name="椭圆 1994" cx="28.124" cy="28.124" r="28.124" transform="translate(125.393 122.526)" fill="none" stroke="#0080f4" stroke-linecap="round" stroke-miterlimit="10" stroke-width="2"/>
          <path id="路径_39743" data-name="路径 39743" d="M143.262,133.289v34a.1.1,0,0,0,.155.091L172.926,150.9a.287.287,0,0,0,0-.5l-29.546-17.179A.082.082,0,0,0,143.262,133.289Z" fill="none" stroke="#0c111a" stroke-linecap="round" stroke-miterlimit="10" stroke-width="2"/>
          <path id="路径_39744" data-name="路径 39744" d="M146.77,139.787V160.8a.064.064,0,0,0,.1.056L165.1,150.668a.177.177,0,0,0,0-.308l-18.259-10.616A.05.05,0,0,0,146.77,139.787Z" fill="none" stroke="#0080f4" stroke-linecap="round" stroke-miterlimit="10" stroke-width="2"/>
          <line id="直线_605" data-name="直线 605" y1="1.143" x2="33.823" transform="translate(93.864 161.79)" fill="none" stroke="#0080f4" stroke-linecap="round" stroke-miterlimit="10" stroke-width="2"/>
          <path id="路径_39745" data-name="路径 39745" d="M194.188,175.533h33.424l7.091,10.649h10.2" fill="none" stroke="#000" stroke-linecap="round" stroke-miterlimit="10" stroke-width="2"/>
          <line id="直线_606" data-name="直线 606" x2="103.013" transform="translate(253.866 183.828)" fill="none" stroke="#000" stroke-linecap="round" stroke-miterlimit="10" stroke-width="2"/>
          <path id="路径_39746" data-name="路径 39746" d="M277.2,223.982h28.89l13.637-18.223h24.883" fill="none" stroke="#000" stroke-linecap="round" stroke-miterlimit="10" stroke-width="2"/>
          <path id="路径_39747" data-name="路径 39747" d="M281.772,230.923h27.2l13.848-17.573h16.94" fill="none" stroke="#000" stroke-linecap="round" stroke-miterlimit="10" stroke-width="2"/>
          <path id="路径_39748" data-name="路径 39748" d="M256.186,158.874v8.857h91.072v3.053a.212.212,0,0,0,.309.189l12.054-6.165a.215.215,0,0,0,.026-.367l-11.968-8.479a.083.083,0,0,0-.131.068v2.844Z" fill="none" stroke="#000" stroke-linecap="round" stroke-miterlimit="10" stroke-width="2"/>
          <path id="路径_39749" data-name="路径 39749" d="M478.66,57.021V84.856H445.553V73.891" fill="none" stroke="#000" stroke-linecap="round" stroke-miterlimit="10" stroke-width="2"/>
          <path id="路径_39750" data-name="路径 39750" d="M373.011,165.938h3.9l18.557-50.821" fill="none" stroke="#000" stroke-linecap="round" stroke-miterlimit="10" stroke-width="2"/>
          <path id="路径_39751" data-name="路径 39751" d="M366.474,183.828h16.765L418.877,93.4" fill="none" stroke="#000" stroke-linecap="round" stroke-miterlimit="10" stroke-width="2"/>
          <path id="路径_39752" data-name="路径 39752" d="M353.4,214.018h35.005L439.859,73.575" fill="none" stroke="#000" stroke-linecap="round" stroke-miterlimit="10" stroke-width="2"/>
          <path id="路径_39753" data-name="路径 39753" d="M359.738,207.481h24.5l13.971-38.169,9.884-9.039" fill="none" stroke="#000" stroke-linecap="round" stroke-miterlimit="10" stroke-width="2"/>
          <path id="路径_39754" data-name="路径 39754" d="M369.637,101.094H356.668V89.865h13.6V118.28H356.194" fill="none" stroke="#ef54a1" stroke-linecap="round" stroke-miterlimit="10" stroke-width="2"/>
          <path id="路径_39755" data-name="路径 39755" d="M239.949,89.847h14.445v11.106H241.6v6.537h12.793V118.14H240.37" fill="none" stroke="#0080f4" stroke-linecap="round" stroke-miterlimit="10" stroke-width="2"/>
          <path id="路径_39756" data-name="路径 39756" d="M236.469,127.451" fill="none" stroke="#000" stroke-linecap="round" stroke-miterlimit="10" stroke-width="2"/>
          <path id="路径_39757" data-name="路径 39757" d="M312.7,311.97s.527,3.9.527,16.343v71.065H296.674V319.456s.295-6.452.422-7.486" fill="none" stroke="#000" stroke-miterlimit="10" stroke-width="2"/>
          <line id="直线_607" data-name="直线 607" y2="15.148" transform="translate(214.011 196.269)" fill="none" stroke="#000" stroke-miterlimit="10" stroke-width="2"/>
          <line id="直线_608" data-name="直线 608" y2="15.148" transform="translate(220.689 196.269)" fill="none" stroke="#000" stroke-miterlimit="10" stroke-width="2"/>
          <line id="直线_609" data-name="直线 609" y2="12.723" transform="translate(228.104 196.269)" fill="none" stroke="#000" stroke-miterlimit="10" stroke-width="2"/>
          <line id="直线_610" data-name="直线 610" x2="52.157" transform="translate(177.81 97.298)" fill="none" stroke="#000" stroke-miterlimit="10" stroke-width="2"/>
          <line id="直线_611" data-name="直线 611" x2="42.808" transform="translate(187.159 102.922)" fill="none" stroke="#000" stroke-miterlimit="10" stroke-width="2"/>
          <line id="直线_612" data-name="直线 612" x2="35.216" transform="translate(194.751 108.404)" fill="none" stroke="#000" stroke-miterlimit="10" stroke-width="2"/>
          <line id="直线_613" data-name="直线 613" x1="28.96" transform="translate(201.007 113.676)" fill="none" stroke="#000" stroke-miterlimit="10" stroke-width="2"/>
          <line id="直线_614" data-name="直线 614" x1="25.024" transform="translate(204.943 119.018)" fill="none" stroke="#000" stroke-miterlimit="10" stroke-width="2"/>
          <line id="直线_615" data-name="直线 615" x1="22.564" transform="translate(207.403 124.853)" fill="none" stroke="#000" stroke-miterlimit="10" stroke-width="2"/>
          <line id="直线_616" data-name="直线 616" x1="20.806" transform="translate(209.161 130.546)" fill="none" stroke="#000" stroke-miterlimit="10" stroke-width="2"/>
          <line id="直线_617" data-name="直线 617" x1="19.682" transform="translate(210.285 136.802)" fill="none" stroke="#000" stroke-miterlimit="10" stroke-width="2"/>
          <line id="直线_618" data-name="直线 618" x1="18.487" transform="translate(211.48 142.426)" fill="none" stroke="#000" stroke-miterlimit="10" stroke-width="2"/>
          <line id="直线_619" data-name="直线 619" x1="18.487" transform="translate(211.48 148.26)" fill="none" stroke="#000" stroke-miterlimit="10" stroke-width="2"/>
          <line id="直线_620" data-name="直线 620" x1="17.854" transform="translate(212.113 153.813)" fill="none" stroke="#000" stroke-miterlimit="10" stroke-width="2"/>
          <line id="直线_621" data-name="直线 621" x1="18.487" transform="translate(211.48 159.434)" fill="none" stroke="#000" stroke-miterlimit="10" stroke-width="2"/>
          <line id="直线_622" data-name="直线 622" x1="19.26" transform="translate(210.707 164.708)" fill="none" stroke="#000" stroke-miterlimit="10" stroke-width="2"/>
          <line id="直线_623" data-name="直线 623" y1="102.805" x2="1.073" transform="translate(290.875 305.852)" fill="none" stroke="#ef54a1" stroke-miterlimit="10" stroke-width="2"/>
          <path id="路径_39758" data-name="路径 39758" d="M291.929,306.645s2.426-19.863,13.022-33.523c1.318-.9,5.114-10.919,9.437-16.3s31.631-43.616,38.168-60.557S365.631,173,366.474,127.451h6.537s.317,47.239-16.817,79.292-30.262,46.685-36.667,56.134S300.048,293.2,299.2,302.27" fill="none" stroke="#ef54a1" stroke-miterlimit="10" stroke-width="2"/>
          <path id="路径_39759" data-name="路径 39759" d="M481.823,153.6l39.961-13.5V129.562" fill="none" stroke="#000" stroke-linecap="round" stroke-miterlimit="10" stroke-width="2"/>
          <path id="路径_39760" data-name="路径 39760" d="M511.346,144.183v10.263l-2.249,4.71" fill="none" stroke="#000" stroke-linecap="round" stroke-miterlimit="10" stroke-width="2"/>
          <line id="直线_624" data-name="直线 624" x2="27.062" y2="7.451" transform="translate(484.775 153.321)" fill="none" stroke="#000" stroke-linecap="round" stroke-miterlimit="10" stroke-width="2"/>
          <path id="路径_39761" data-name="路径 39761" d="M38.58,257.615l-7.662,4.166v11.757l7.654,4.353a.523.523,0,0,0,.781-.455V258.074A.523.523,0,0,0,38.58,257.615Z" fill="none" stroke="#0080f4" stroke-linecap="round" stroke-miterlimit="10" stroke-width="2"/>
          <line id="直线_625" data-name="直线 625" x2="8.751" transform="translate(21.481 267.755)" fill="none" stroke="#0080f4" stroke-linecap="round" stroke-miterlimit="10" stroke-width="2"/>
          <line id="直线_626" data-name="直线 626" x1="7.293" transform="translate(40.056 263.644)" fill="none" stroke="#0080f4" stroke-linecap="round" stroke-miterlimit="10" stroke-width="2"/>
          <line id="直线_627" data-name="直线 627" x1="7.293" transform="translate(40.056 272.079)" fill="none" stroke="#0080f4" stroke-linecap="round" stroke-miterlimit="10" stroke-width="2"/>
          <rect id="矩形_2674" data-name="矩形 2674" width="40.348" height="41.133" rx="6.75" transform="translate(567.913 247.066)" fill="none" stroke="#ef54a1" stroke-miterlimit="10" stroke-width="2"/>
          <path id="路径_39762" data-name="路径 39762" d="M584.361,277.743l7.662-4.167V261.82l-7.653-4.353a.523.523,0,0,0-.782.454v19.362A.524.524,0,0,0,584.361,277.743Z" fill="none" stroke="#ef54a1" stroke-linecap="round" stroke-miterlimit="10" stroke-width="2"/>
          <line id="直线_628" data-name="直线 628" x1="8.751" transform="translate(592.709 267.602)" fill="none" stroke="#ef54a1" stroke-linecap="round" stroke-miterlimit="10" stroke-width="2"/>
          <line id="直线_629" data-name="直线 629" y2="13.971" transform="translate(117.904 329.789)" fill="none" stroke="#0080f4" stroke-linecap="round" stroke-miterlimit="10" stroke-width="2"/>
          <path id="路径_39763" data-name="路径 39763" d="M125.548,324.942v23a.192.192,0,0,0,.313.149l7.851-6.379a.241.241,0,0,0-.032-.4l-7.394-4.259,6.643-5.667a.24.24,0,0,0,0-.363l-7.065-6.231A.192.192,0,0,0,125.548,324.942Z" fill="none" stroke="#0080f4" stroke-linecap="round" stroke-miterlimit="10" stroke-width="2"/>
          <line id="直线_630" data-name="直线 630" x2="6.537" transform="translate(118.537 336.774)" fill="none" stroke="#0080f4" stroke-linecap="round" stroke-miterlimit="10" stroke-width="2"/>
          <path id="路径_39764" data-name="路径 39764" d="M597.963,169.75v5.029a.479.479,0,0,1-.745.4l-3.771-2.514a.479.479,0,0,1,0-.8l3.771-2.514A.479.479,0,0,1,597.963,169.75Z" fill="#ef54a1"/>
          <path id="路径_39765" data-name="路径 39765" d="M590.282,147.1v-5.028a.479.479,0,0,1,.744-.4l3.772,2.515a.479.479,0,0,1,0,.8l-3.772,2.514A.479.479,0,0,1,590.282,147.1Z" fill="#ef54a1"/>
          <g id="组_21866" data-name="组 21866">
            <rect id="矩形_2675" data-name="矩形 2675" width="55.988" height="56.726" rx="6.75" transform="translate(565.762 128.842)" fill="none" stroke="#ef54a1" stroke-miterlimit="10" stroke-width="2"/>
            <path id="路径_39766" data-name="路径 39766" d="M581.937,156.027V145.536a.685.685,0,0,1,.685-.685h9.068" fill="none" stroke="#ef54a1" stroke-linecap="round" stroke-miterlimit="10" stroke-width="2"/>
            <circle id="椭圆_1995" data-name="椭圆 1995" cx="8.294" cy="8.294" r="8.294" transform="translate(597.91 137.927)" fill="none" stroke="#ef54a1" stroke-miterlimit="10" stroke-width="2"/>
            <line id="直线_631" data-name="直线 631" x2="3.339" transform="translate(608.068 145.097)" fill="none" stroke="#ef54a1" stroke-linecap="round" stroke-miterlimit="10" stroke-width="2"/>
            <line id="直线_632" data-name="直线 632" x2="3.479" transform="translate(600.863 145.097)" fill="none" stroke="#ef54a1" stroke-linecap="round" stroke-miterlimit="10" stroke-width="2"/>
            <g id="组_21865" data-name="组 21865">
              <line id="直线_633" data-name="直线 633" x2="3.339" transform="translate(584.244 167.801)" fill="none" stroke="#ef54a1" stroke-linecap="round" stroke-miterlimit="10" stroke-width="2"/>
              <line id="直线_634" data-name="直线 634" x2="3.479" transform="translate(577.039 167.801)" fill="none" stroke="#ef54a1" stroke-linecap="round" stroke-miterlimit="10" stroke-width="2"/>
            </g>
            <path id="路径_39767" data-name="路径 39767" d="M597.1,172.089h8.962V159.928" fill="none" stroke="#ef54a1" stroke-linecap="round" stroke-miterlimit="10" stroke-width="2"/>
            <circle id="椭圆_1996" data-name="椭圆 1996" cx="8.293" cy="8.293" r="8.293" transform="translate(574.018 160.772)" fill="none" stroke="#ef54a1" stroke-linecap="round" stroke-miterlimit="10" stroke-width="2"/>
            <line id="直线_635" data-name="直线 635" y1="4.727" transform="translate(577.35 157.205)" fill="none" stroke="#ef54a1" stroke-linecap="round" stroke-miterlimit="10" stroke-width="2"/>
            <line id="直线_636" data-name="直线 636" y1="4.727" transform="translate(586.813 157.205)" fill="none" stroke="#ef54a1" stroke-linecap="round" stroke-miterlimit="10" stroke-width="2"/>
          </g>
          <g id="组_21526" data-name="组 21526">
            <path id="路径_37350" data-name="路径 37350" d="M495.669,330.5a1.866,1.866,0,0,1,1.659-1.516c.759,0,1.284.805,1.517,1.516a8.7,8.7,0,0,1,.427,2.7.317.317,0,0,1-.332.285c-.047,0-.1,0-.1-.048a2.9,2.9,0,0,0-1.517-.379,3.072,3.072,0,0,0-1.564.379.261.261,0,0,1-.358-.094.257.257,0,0,1-.021-.048c0-.047-.047-.047-.047-.1a10.524,10.524,0,0,1,.331-2.7Z" fill="#ef54a1"/>
            <path id="路径_37351" data-name="路径 37351" d="M490.407,333.436a.262.262,0,0,1-.38-.142c0-.047-.047-.047-.047-.1a10.263,10.263,0,0,1,.332-2.7,1.864,1.864,0,0,1,1.659-1.516c.758,0,1.284.805,1.564,1.516a8.7,8.7,0,0,1,.427,2.7.317.317,0,0,1-.332.285c-.047,0-.1,0-.1-.048a2.949,2.949,0,0,0-1.564-.379,3.469,3.469,0,0,0-1.564.379Z" fill="#ef54a1"/>
            <path id="路径_37352" data-name="路径 37352" d="M488.012,335.6a22.954,22.954,0,0,0,.643,3.845" fill="none" stroke="#ef54a1" stroke-miterlimit="10" stroke-width="2"/>
            <path id="路径_3" data-name="路径 3" d="M505.483,343.225a4.426,4.426,0,0,0-3.555.19c.663-1.375,1.374-2.844,1.99-4.361a13.817,13.817,0,0,0,1.328-4.839c0-5.782-4.362-9.621-8.486-9.621a8.7,8.7,0,0,0-8.778,8.623c0,.144,0,.288.007.432h0a18.112,18.112,0,0,0,.047,2.271l-.106.013a4.469,4.469,0,0,0-2.311,1.03,4.328,4.328,0,0,0-.851,1c-.331.759-.331,1.707.617,1.944a3.088,3.088,0,0,0,1.137-.284,4.289,4.289,0,0,1,1.8-.463,1.062,1.062,0,0,1,.287.083,22.57,22.57,0,0,0,1.659,4.642,14.26,14.26,0,0,0,2.75,3.982,5.076,5.076,0,0,0,3.413,1.659,9.188,9.188,0,0,0,5.072-1.9c.711-.474,1.327-.948,1.8-1.284a3.052,3.052,0,0,1,1.043-.521,5.264,5.264,0,0,1,1.422.379c.522.237,1.087.521,1.612.711a.321.321,0,0,0,.379-.19v-.038A3.6,3.6,0,0,0,505.483,343.225Zm-9.1-3.126a3.007,3.007,0,0,0-2.322-.143,3.6,3.6,0,0,1-1.233.048c-1.232-.332-.758-1.659-.237-2.323a5.248,5.248,0,0,1,1.754-1.284,4.945,4.945,0,0,1,5.214.427" fill="none" stroke="#ef54a1" stroke-miterlimit="10" stroke-width="2"/>
          </g>
          <g id="组_21526-2" data-name="组 21526">
            <path id="路径_37350-2" data-name="路径 37350" d="M31.805,147.124a17.058,17.058,0,0,1,.537,4.373c0,.083-.077.083-.077.159a.357.357,0,0,1-.035.077.424.424,0,0,1-.579.154,4.95,4.95,0,0,0-2.531-.614,4.669,4.669,0,0,0-2.455.614c0,.076-.083.076-.16.076a.513.513,0,0,1-.537-.46,14.115,14.115,0,0,1,.691-4.373c.377-1.151,1.227-2.455,2.455-2.455A3.022,3.022,0,0,1,31.8,147.13Z" fill="#0080f4"/>
            <path id="路径_37351-2" data-name="路径 37351" d="M40.322,151.88a5.613,5.613,0,0,0-2.532-.614,4.775,4.775,0,0,0-2.531.614c0,.077-.083.077-.16.077a.513.513,0,0,1-.537-.46,14.085,14.085,0,0,1,.69-4.373c.454-1.151,1.3-2.455,2.532-2.455a3.02,3.02,0,0,1,2.685,2.455,16.666,16.666,0,0,1,.537,4.373c0,.083-.077.083-.077.159a.413.413,0,0,1-.035.077.424.424,0,0,1-.579.154Z" fill="#0080f4"/>
            <path id="路径_37352-2" data-name="路径 37352" d="M43.151,161.612a37.25,37.25,0,0,0,1.04-6.222" fill="none" stroke="#0080f4" stroke-miterlimit="10" stroke-width="2"/>
            <path id="路径_3-2" data-name="路径 3" d="M12.233,173.328v.063a.521.521,0,0,0,.614.306c.85-.306,1.764-.767,2.608-1.15a8.548,8.548,0,0,1,2.3-.614,4.975,4.975,0,0,1,1.687.844c.767.543,1.765,1.31,2.915,2.077a14.867,14.867,0,0,0,8.209,3.069,8.22,8.22,0,0,0,5.523-2.685,23.062,23.062,0,0,0,4.45-6.444,36.537,36.537,0,0,0,2.685-7.512,1.666,1.666,0,0,1,.465-.134,6.922,6.922,0,0,1,2.91.748,4.984,4.984,0,0,0,1.841.46c1.535-.383,1.535-1.917,1-3.145a7.009,7.009,0,0,0-1.376-1.617,7.229,7.229,0,0,0-3.74-1.667l-.173-.021a29.473,29.473,0,0,0,.077-3.676h0q.013-.35.011-.7a14.081,14.081,0,0,0-14.2-13.955c-6.674,0-13.733,6.214-13.733,15.57a22.354,22.354,0,0,0,2.148,7.831c1,2.455,2.148,4.833,3.222,7.058a7.167,7.167,0,0,0-5.754-.307A5.824,5.824,0,0,0,12.233,173.328Zm13.275-15.96a8.007,8.007,0,0,1,8.439-.69,8.481,8.481,0,0,1,2.838,2.078c.844,1.074,1.611,3.222-.384,3.759a5.835,5.835,0,0,1-1.994-.077,4.866,4.866,0,0,0-3.759.23" fill="none" stroke="#0080f4" stroke-miterlimit="10" stroke-width="2"/>
          </g>
          <path id="路径_39768" data-name="路径 39768" d="M319.238,409.5s-.281-67.937.281-92.961-27.247-65.53-40.488-82.945c-13.918-17.151-36.271-64.668-35.99-100.377q.024-2.9.167-5.766h-6.739s2.136,44.753,11.136,64.6c.321.709.615,1.424.87,2.159C255.7,215.084,275.492,245.014,290,262.7c16.87,19.541,20.772,38.1,20.772,38.1" fill="none" stroke="#0080f4" stroke-linecap="round" stroke-miterlimit="10" stroke-width="2"/>
        </g>
      </g>
      <g id="背景" transform="translate(283.495 -6.459)" opacity="0.1">
        <path id="路径_39769" data-name="路径 39769" d="M395.381,229.828l896.223,2.131,97.389,98.326V711.014l-921.585-2.13-72.028-85.75Z" transform="translate(90.634 56.382)" fill="none" stroke="#000" stroke-miterlimit="10" stroke-width="2"/>
        <path id="路径_39770" data-name="路径 39770" d="M484,250.647h769.917l62.883-66.313" transform="translate(155.55 21.688)" fill="none" stroke="#000" stroke-miterlimit="10" stroke-width="2"/>
        <path id="路径_39771" data-name="路径 39771" d="M1316.8,184.333H546.883L484,250.647" transform="translate(-59.926 594.795)" fill="none" stroke="#000" stroke-miterlimit="10" stroke-width="2"/>
        <circle id="椭圆_1997" data-name="椭圆 1997" cx="29.476" cy="29.476" r="29.476" transform="translate(1461.56 154)" fill="none" stroke="#000" stroke-miterlimit="10" stroke-width="2"/>
        <circle id="椭圆_1998" data-name="椭圆 1998" cx="18.42" cy="18.42" r="18.42" transform="translate(393.772 840.211)" fill="none" stroke="#000" stroke-miterlimit="10" stroke-width="2"/>
        <path id="路径_39772" data-name="路径 39772" d="M594.911,288.661l58.755-25.446h748.26" transform="translate(-31.036 -16.326)" fill="none" stroke="#000" stroke-width="2"/>
        <path id="路径_39773" data-name="路径 39773" d="M1401.926,263.214l-58.755,25.446H594.911" transform="translate(-69.377 515.914)" fill="none" stroke="#000" stroke-width="2"/>
        <path id="路径_39774" data-name="路径 39774" d="M444.242,293.133H387.292V671" transform="translate(79.749 -20.798)" fill="none" stroke="#000" stroke-width="2"/>
        <path id="路径_39775" data-name="路径 39775" d="M1688.293,462.333V786.349H1608.8" transform="translate(-182.597 -46.091)" fill="none" stroke="#707070" stroke-width="2"/>
        <path id="路径_39776" data-name="路径 39776" d="M428.642,768.6l67.719,70.977" transform="translate(44.819 -79.873)" fill="none" stroke="#000" stroke-width="2"/>
        <path id="路径_39777" data-name="路径 39777" d="M1636.882,316.811l50.249,47.226" transform="translate(-194.885 -6.37)" fill="none" stroke="#000" stroke-width="2"/>
      </g>
    </g>
  </g>
</svg>
