<svg xmlns="http://www.w3.org/2000/svg" width="22.5" height="22.5" viewBox="0 0 22.5 22.5">
  <g id="组_21783" data-name="组 21783" transform="translate(-12.079 -12.04)">
    <path id="路径_38713" data-name="路径 38713" d="M23.329,12.29a11,11,0,1,0,11,11A11.013,11.013,0,0,0,23.329,12.29Zm0,21.354A10.354,10.354,0,1,1,33.683,23.29,10.366,10.366,0,0,1,23.329,33.644Z" fill="#0080f4" stroke="#0080f4" stroke-width="0.5"/>
    <path id="路径_38715" data-name="路径 38715" d="M16.853,12.29a4.524,4.524,0,1,0,4.524,4.524A4.53,4.53,0,0,0,16.853,12.29Zm0,8.783a4.259,4.259,0,1,1,4.259-4.259,4.263,4.263,0,0,1-4.259,4.259Z" transform="translate(6.476 6.476)" fill="#0080f4" stroke="#0080f4" stroke-width="1"/>
  </g>
</svg>
