<svg xmlns="http://www.w3.org/2000/svg" width="67.967" height="54.661" viewBox="0 0 67.967 54.661">
  <g id="深度学习算法" transform="translate(-19.192 -268.045)">
    <g id="组_21404" data-name="组 21404">
      <path id="路径_37344" data-name="路径 37344" d="M60.167,282.417H46.211v4.652H60.167Zm-1.03,3.5H47.349v-2.35H59.137Z" fill="#6287de"/>
      <path id="路径_37345" data-name="路径 37345" d="M84.187,304.65l-.838-2.444a4.684,4.684,0,1,0-5.515-5.236H74.971a36.861,36.861,0,0,0-.7-6.423l-.14-.559H68.548a26.125,26.125,0,0,0-.279-3.421,2.854,2.854,0,0,0,.768-.419,3.9,3.9,0,0,0,.977-2.932,2.366,2.366,0,0,0-.838-2.094,3.179,3.179,0,0,0-2.3-.489,19.48,19.48,0,0,0-2.094-4.4l3-2.723a2.927,2.927,0,0,0,1.047.279,2.3,2.3,0,1,0,0-4.608,2.148,2.148,0,0,0-2.233,2.06c0,.035,0,.069,0,.1a2.616,2.616,0,0,0,.279,1.117l-2.793,2.513a15.381,15.381,0,0,0-1.4-1.606,12.838,12.838,0,0,0-9.495-3.77,12.946,12.946,0,0,0-9.495,3.77,9.495,9.495,0,0,0-1.326,1.606l-2.723-2.513a2.063,2.063,0,0,0,.279-1.117,2.3,2.3,0,1,0-2.3,2.3,1.818,1.818,0,0,0,1.047-.279l2.932,2.653a18.569,18.569,0,0,0-2.095,4.475,2.877,2.877,0,0,0-2.3.489,2.2,2.2,0,0,0-.838,2.094,4.065,4.065,0,0,0,.977,2.932,1.211,1.211,0,0,0,.768.419,26.834,26.834,0,0,0-.279,3.421H32.244l-.14.559a46.777,46.777,0,0,0-.7,6.423h-2.86a4.735,4.735,0,0,0-4.678-4.047,4.681,4.681,0,0,0-.838,9.285l-.838,2.444a2.832,2.832,0,1,0,1.325.207l.838-2.583a4.677,4.677,0,0,0,4.191-4.053h2.793V299.9c.14,4.957,1.187,11.869,5.306,16.965,3.7,4.538,9.216,6.842,16.476,6.842,7.191,0,12.776-2.3,16.476-6.842,4.119-5.027,5.166-12.008,5.306-16.965v-1.815h2.862a4.745,4.745,0,0,0,4.189,4.049l.838,2.583a2.869,2.869,0,1,0,3.979,2.653A2.8,2.8,0,0,0,84.187,304.65ZM68.85,270.371H68.9a.977.977,0,1,1-.977.977A.953.953,0,0,1,68.85,270.371Zm-31.231,1.954a.916.916,0,0,1-.977-.851.884.884,0,0,1,0-.126.977.977,0,1,1,.977.977ZM24.006,307.509a1.422,1.422,0,0,1-.838,1.4v-1.4H21.842v1.4a1.652,1.652,0,0,1-.908-1.4,1.536,1.536,0,1,1,3.072,0Zm0-6.559a3.421,3.421,0,1,1,3.421-3.421A3.421,3.421,0,0,1,24.006,300.95Zm44.4-18.92h0a1.449,1.449,0,0,1,.349,1.047,3.18,3.18,0,0,1-.628,2.094c-.07-.279-.07-.559-.14-.838a18.065,18.065,0,0,0-.628-2.444A1.4,1.4,0,0,1,68.408,282.03Zm-23.737-7.68h0a11.631,11.631,0,0,1,8.517-3.421,11.365,11.365,0,0,1,8.517,3.421c4.747,4.747,5.446,13.2,5.515,15.569H39.156C39.226,287.545,39.924,279.1,44.671,274.35Zm-6.981,8.727a1.2,1.2,0,0,1,.349-1.047,1.485,1.485,0,0,1,1.117-.209,17.918,17.918,0,0,0-.628,2.444,3.457,3.457,0,0,0-.14.838C38.109,284.962,37.759,284.474,37.69,283.077ZM68.615,316.1c-3.421,4.259-8.587,6.353-15.429,6.353-6.772,0-12.008-2.094-15.429-6.353-6.7-8.238-4.887-21.992-4.4-24.854H73.086C73.575,294.108,75.39,307.931,68.615,316.1Zm13.9-15.08A3.471,3.471,0,0,1,79.09,297.6h0a3.421,3.421,0,1,1,3.428,3.42Zm2.09,7.89h0v-1.4H83.279v1.4a1.652,1.652,0,0,1-.908-1.4,1.536,1.536,0,1,1,2.234,1.4Z" transform="translate(0 -1)" fill="#6287de"/>
    </g>
    <g id="组_21405" data-name="组 21405">
      <path id="路径_37346" data-name="路径 37346" d="M60.431,311.159a3.208,3.208,0,0,0-2.618.15c.476-1.016,1.013-2.119,1.483-3.227a10.23,10.23,0,0,0,.988-3.586c0-4.294-3.22-7.121-6.283-7.121a6.444,6.444,0,0,0-6.5,6.39c0,.1,0,.2,0,.3v.013a12.564,12.564,0,0,0,.053,1.682,3.228,3.228,0,0,0-1.787.771,2.642,2.642,0,0,0-.628.742c-.256.57-.236,1.254.445,1.433a2.069,2.069,0,0,0,.847-.223c.483-.179,1.086-.5,1.551-.268a17.82,17.82,0,0,0,1.244,3.443,10.641,10.641,0,0,0,2.023,2.938,3.732,3.732,0,0,0,2.542,1.211,6.94,6.94,0,0,0,3.75-1.4c.517-.344.972-.685,1.341-.935a2.21,2.21,0,0,1,.771-.386,3.123,3.123,0,0,1,1.04.294c.4.171.822.378,1.184.523a.221.221,0,0,0,.279-.141.2.2,0,0,0,.01-.049A2.7,2.7,0,0,0,60.431,311.159Z" transform="translate(-0.481 -0.516)" fill="none" stroke="#6287de" stroke-width="1.2"/>
      <path id="路径_37347" data-name="路径 37347" d="M52.733,301.417a1.368,1.368,0,0,1,1.155-1.075c.529.01.882.573,1.075,1.069a5.815,5.815,0,0,1,.309,1.9.207.207,0,0,1-.228.185.213.213,0,0,1-.081-.025,2.057,2.057,0,0,0-1.075-.259,2.083,2.083,0,0,0-1.081.259.208.208,0,0,1-.279-.093.2.2,0,0,1-.021-.067,6.591,6.591,0,0,1,.228-1.891Z" fill="none" stroke="#6287de" stroke-width="1"/>
      <path id="路径_37348" data-name="路径 37348" d="M49.051,303.468a.208.208,0,0,1-.279-.093.2.2,0,0,1-.021-.067,6.553,6.553,0,0,1,.229-1.891,1.368,1.368,0,0,1,1.155-1.075c.529.01.882.573,1.075,1.069a5.815,5.815,0,0,1,.309,1.9.207.207,0,0,1-.228.185.213.213,0,0,1-.081-.025,2.057,2.057,0,0,0-1.075-.259,2.083,2.083,0,0,0-1.081.259Z" fill="none" stroke="#6287de" stroke-width="1"/>
      <path id="路径_37349" data-name="路径 37349" d="M55.151,306.23a2.977,2.977,0,0,0-3.225-.253,3.6,3.6,0,0,0-1.094.809c-.256.3-.489.73-.049.958a2.11,2.11,0,0,0,.7-.037,2.508,2.508,0,0,1,1.94.192l-.247.309a2.194,2.194,0,0,0-1.625-.111,2.242,2.242,0,0,1-.86.037c-.86-.224-.534-1.144-.154-1.606a3.933,3.933,0,0,1,1.217-.9,3.481,3.481,0,0,1,3.639.29Z" fill="none" stroke="#6287de" stroke-width="0.7"/>
    </g>
  </g>
</svg>
