<svg xmlns="http://www.w3.org/2000/svg" width="54.313" height="60.403" viewBox="0 0 54.313 60.403">
  <g id="大数据技术" transform="translate(-71.681 -210.291)">
    <path id="路径_37332" data-name="路径 37332" d="M95.05,215.37l.033.1a3.96,3.96,0,1,0-.148-1.817l-.015.092-.091.014a27.031,27.031,0,0,0-15.212,45.772l1.16-1.158a25.544,25.544,0,0,1-7.164-14.823,25.417,25.417,0,0,1,21.331-28.165Zm3.79-3.445.125.009a2.23,2.23,0,1,1-.125-.009Z" fill="#35d598"/>
    <path id="路径_37333" data-name="路径 37333" d="M102.63,265.614l-.033-.1a3.961,3.961,0,1,0,.148,1.811l.015-.091.091-.013a27.042,27.042,0,0,0,15.206-45.772l-1.161,1.158a25.533,25.533,0,0,1,7.169,14.833,25.413,25.413,0,0,1-21.33,28.159Zm-3.79,3.431a2.325,2.325,0,1,1,2.325-2.325A2.328,2.328,0,0,1,98.84,269.045Z" fill="#35d598"/>
    <rect id="矩形_2204" data-name="矩形 2204" width="1.849" height="1.64" transform="translate(71.681 213.438)" fill="#35d598"/>
    <rect id="矩形_2205" data-name="矩形 2205" width="1.85" height="1.64" transform="translate(124.145 213.438)" fill="#35d598"/>
    <rect id="矩形_2206" data-name="矩形 2206" width="1.849" height="1.64" transform="translate(71.681 265.902)" fill="#35d598"/>
    <rect id="矩形_2207" data-name="矩形 2207" width="1.85" height="1.64" transform="translate(124.145 265.902)" fill="#35d598"/>
    <path id="路径_37334" data-name="路径 37334" d="M105.192,257.856l.552,1.542c.539-.2,1.074-.418,1.592-.66l-.7-1.481C106.156,257.479,105.672,257.681,105.192,257.856Z" fill="#35d598"/>
    <path id="路径_37335" data-name="路径 37335" d="M112.447,255.315c.428-.391.837-.8,1.22-1.221l-1.214-1.1c-.364.4-.735.769-1.106,1.108Z" fill="#35d598"/>
    <path id="路径_37336" data-name="路径 37336" d="M116.205,246.839c-.18.49-.381.974-.6,1.444l1.481.7c.24-.514.463-1.049.662-1.593Z" fill="#35d598"/>
    <path id="路径_37337" data-name="路径 37337" d="M117.106,243.329c-.079.515-.18,1.03-.3,1.535l1.59.4c.136-.567.249-1.135.334-1.694Z" fill="#35d598"/>
    <path id="路径_37338" data-name="路径 37338" d="M101.684,258.758l.24,1.621c.6-.091,1.163-.2,1.691-.334l-.4-1.59C102.724,258.575,102.208,258.677,101.684,258.758Z" fill="#35d598"/>
    <path id="路径_37339" data-name="路径 37339" d="M115.078,252.377c.347-.473.668-.955.957-1.437l-1.405-.842c-.266.44-.558.878-.868,1.3Z" fill="#35d598"/>
    <path id="路径_37340" data-name="路径 37340" d="M108.453,256.282l.845,1.4c.481-.294.964-.616,1.435-.958l-.977-1.315C109.318,255.729,108.881,256.021,108.453,256.282Z" fill="#35d598"/>
    <path id="路径_37341" data-name="路径 37341" d="M98.838,222a18.488,18.488,0,0,1,18.486,18.486c0,.265,0,.528-.015.781l1.635.077c.013-.279.019-.567.019-.858a20.126,20.126,0,1,0-20.126,20.126c.3,0,.583-.007.858-.021l-.077-1.638c-.218.009-.436.014-.656.016l-.125.005a18.487,18.487,0,0,1,0-36.974Z" fill="#35d598"/>
    <path id="路径_37342" data-name="路径 37342" d="M98.833,224.917a15.575,15.575,0,1,0,0,31.149h.039a15.574,15.574,0,0,0,10.975-4.563l.579-.579L99.652,240.15V224.917Zm9.26,25.99-.1.088a14.029,14.029,0,0,1-8.2,3.4q-.488.033-.974.033a13.939,13.939,0,0,1-.933-27.845l.134-.009v14.254Z" fill="#35d598"/>
    <rect id="矩形_2208" data-name="矩形 2208" width="1.64" height="1.639" transform="translate(86.896 239.671)" fill="#35d598"/>
    <rect id="矩形_2209" data-name="矩形 2209" width="1.639" height="1.639" transform="translate(90.673 239.671)" fill="#35d598"/>
    <rect id="矩形_2210" data-name="矩形 2210" width="1.639" height="1.639" transform="translate(94.451 239.671)" fill="#35d598"/>
    <path id="路径_37343" data-name="路径 37343" d="M114.412,240.488a15.6,15.6,0,0,0-11.475-15.029l-.416,1.585a13.935,13.935,0,0,1,10.22,12.492l.009.134H102.741v1.639h11.674Z" fill="#35d598"/>
  </g>
</svg>
