<svg xmlns="http://www.w3.org/2000/svg" width="58.019" height="59.952" viewBox="0 0 58.019 59.952">
  <path id="深度强化学习" d="M121.994,133.02a2.625,2.625,0,1,0-3.348-3.349l-.072.2H116.51l-11.5-11.5a.67.67,0,0,0-.478-.2h-2.25v-3.524h4.9l7.6,7.6a.68.68,0,0,0,.477.2h3.312l.072.2a2.626,2.626,0,1,0,0-1.749l-.072.2H115.53l-7.6-7.6a.68.68,0,0,0-.478-.2h-5.172v-3.524h8.793l3.7,3.7a.68.68,0,0,0,.477.2h3.312l.072.2a2.626,2.626,0,1,0,0-1.749l-.072.2H115.53l-3.7-3.7a.678.678,0,0,0-.477-.2h-9.072V104.9H118.57l.072.2a2.626,2.626,0,1,0,0-1.749l-.072.2H102.283v-3.524h9.073a.677.677,0,0,0,.476-.2l3.7-3.7h3.036l.072.2a2.626,2.626,0,1,0,0-1.749l-.072.2h-3.311a.676.676,0,0,0-.477.2l-3.7,3.7h-8.8V95.155h5.174a.676.676,0,0,0,.477-.2l7.6-7.6h3.036l.072.2a2.626,2.626,0,1,0,0-1.749l-.072.2h-3.311a.666.666,0,0,0-.477.2l-7.6,7.6h-4.9V90.281h2.249a.676.676,0,0,0,.477-.2l11.5-11.5h2.06l.072.2a2.624,2.624,0,1,0,0-1.749l-.072.2h-2.34a.668.668,0,0,0-.474.2l-11.5,11.5h-1.97V87.657a2.622,2.622,0,0,0-2.623-2.625h0a2.627,2.627,0,0,0-2.624,2.623v3.226H91.519l-.049-.239a4.6,4.6,0,0,0-4.482-3.661,4.529,4.529,0,0,0-2.981,1.136l-.185.163-9.415-7.188.111-.221a4.56,4.56,0,0,0,.468-1.987A4.636,4.636,0,0,0,70.409,74.2h-.055a4.631,4.631,0,0,0-.051,9.262A4.646,4.646,0,0,0,73.4,82.321l.184-.16,9.414,7.189-.112.222a4.542,4.542,0,0,0-.381,1.073l-.052.235H74.943l-.048-.24a4.574,4.574,0,1,0-4.482,5.489A4.532,4.532,0,0,0,73.4,94.993l.184-.163,4.008,3.061-4.008,3.061-.184-.162a4.574,4.574,0,1,0,0,6.875l.184-.163,4.008,3.061-4.006,3.06-.185-.161a4.564,4.564,0,1,0-2.992,8.011h.007a4.6,4.6,0,0,0,4.483-3.66l.048-.24h7.506l.052.236a4.55,4.55,0,0,0,.381,1.072l.112.223L73.587,126.3l-.185-.158a4.587,4.587,0,1,0,1.12,1.451l-.11-.221,9.415-7.189.185.163a4.544,4.544,0,0,0,6.414-.4,4.565,4.565,0,0,0,1.049-2.118l.047-.241H97.04v2.249a2.624,2.624,0,0,0,2.623,2.625h0a2.62,2.62,0,0,0,2.623-2.623v-.3l1.971,0,.088.088,11.409,11.4a.676.676,0,0,0,.477.2h2.341l.072.2a2.624,2.624,0,0,0,3.348,1.6ZM121.1,120.5h0a1.274,1.274,0,1,1-1.277,1.274A1.28,1.28,0,0,1,121.1,120.5Zm0-8.773h0A1.275,1.275,0,1,1,119.828,113,1.28,1.28,0,0,1,121.1,111.725Zm-.3-8.736v-.038h.3a1.287,1.287,0,1,1-.3.038Zm0-8.773v-.038h.3a1.287,1.287,0,1,1-.3.038Zm0-8.769V85.4h.3a1.306,1.306,0,1,1-.3.042Zm.3-8.812a1.275,1.275,0,1,1-1.276,1.275A1.276,1.276,0,0,1,121.1,76.635ZM70.418,82.111a3.224,3.224,0,0,1,0-6.448h0a3.224,3.224,0,1,1,0,6.448Zm.1,38.011-.007,0h-.1a3.224,3.224,0,0,1,.008-6.448h.007a3.223,3.223,0,0,1,.093,6.444Zm0,12.67-.007,0h-.1a3.224,3.224,0,0,1,.008-6.448h.007a3.222,3.222,0,0,1,.093,6.443Zm16.467-44.46h0a3.223,3.223,0,1,1-3.226,3.223A3.2,3.2,0,0,1,86.99,88.332Zm-16.27,6.434v.016h-.3a3.224,3.224,0,0,1,0-6.448h0a3.223,3.223,0,0,1,.3,6.432Zm3.688-1,.114-.223a4.534,4.534,0,0,0,.38-1.071l.052-.236h7.5l.052.236a4.567,4.567,0,0,0,.381,1.072l.112.222-4.3,3.281Zm-3.988,13.689h0a3.223,3.223,0,0,1-3.221-3.224A3.229,3.229,0,0,1,70.42,101h0a3.224,3.224,0,1,1,0,6.447ZM78.7,98.744l4.3,3.279-.112.223a4.551,4.551,0,0,0-.381,1.072l-.052.236h-7.5l-.052-.236a4.519,4.519,0,0,0-.38-1.071l-.114-.223Zm-4.3,7.69.114-.223a4.519,4.519,0,0,0,.38-1.071l.052-.236h7.5l.051.237a4.5,4.5,0,0,0,.38,1.071l.112.223-4.3,3.28Zm8.481,8.484a4.546,4.546,0,0,0-.344.913l-.046.395H74.953l-.052-.236a4.535,4.535,0,0,0-.38-1.071l-.114-.223,4.3-3.28L83,114.7Zm4.2,5.2-.007,0h-.1a3.294,3.294,0,1,1,.107,0Zm9.94-3.9-5.515,0-.05-.24a4.6,4.6,0,0,0-4.482-3.66A4.537,4.537,0,0,0,84,113.461l-.185.164-4.007-3.061,4.007-3.061.185.164a4.537,4.537,0,0,0,2.982,1.135,4.6,4.6,0,0,0,4.481-3.66l.05-.24h5.515ZM86.987,101.007a3.224,3.224,0,1,1-2.942,4.535h0a2.923,2.923,0,0,1,.08-2.793l.239-.391A3.224,3.224,0,0,1,86.987,101.007Zm10.048,2.546H91.519l-.049-.24a4.6,4.6,0,0,0-4.482-3.66,4.532,4.532,0,0,0-2.981,1.136l-.185.163-4.008-3.061,4.008-3.061.186.163a4.523,4.523,0,0,0,2.981,1.136,4.6,4.6,0,0,0,4.481-3.658l.05-.24h5.515Zm3.895,16.273a1.274,1.274,0,0,1-1.233,1.305h-.043a1.273,1.273,0,0,1-1.272-1.234V87.657a1.272,1.272,0,0,1,1.233-1.305,1.274,1.274,0,0,1,1.315,1.233Zm18.9,10.719a1.275,1.275,0,1,1,1.276,1.275A1.279,1.279,0,0,1,119.828,130.545Z" transform="translate(-65.725 -74.197)" fill="#6287de"/>
</svg>
