<svg xmlns="http://www.w3.org/2000/svg" width="40" height="40" viewBox="0 0 40 40">
  <g id="facebook" transform="translate(-36.954 -133.31)">
    <g id="组_1876" data-name="组 1876" transform="translate(0 26)">
      <path id="路径_2100" data-name="路径 2100" d="M56.954,147.31h0a20,20,0,0,1-20-20h0a20,20,0,0,1,20-20h0a20,20,0,0,1,20,20h0A20,20,0,0,1,56.954,147.31Z" fill="#fff"/>
    </g>
    <path id="路径_2101" data-name="路径 2101" d="M78.845,142.739H74.678v13.408H68.5V142.739H65.564V137.49H68.5v-3.4c0-2.429,1.154-6.233,6.232-6.233l4.575.02v5.095h-3.32a1.257,1.257,0,0,0-1.31,1.431V137.5h4.706Zm.719.158" transform="translate(-16 13)" fill="#59687c"/>
  </g>
</svg>
