<svg xmlns="http://www.w3.org/2000/svg" width="40" height="40" viewBox="0 0 40 40">
  <g id="LinkedIn" transform="translate(-36.954 -133.31)">
    <g id="组_1876" data-name="组 1876" transform="translate(0 26)">
      <path id="路径_2100" data-name="路径 2100" d="M56.954,147.31h0a20,20,0,0,1-20-20h0a20,20,0,0,1,20-20h0a20,20,0,0,1,20,20h0A20,20,0,0,1,56.954,147.31Z" fill="#fff"/>
    </g>
    <g id="组_1881" data-name="组 1881" transform="translate(-240.415 12.71)">
      <g id="组_1880" data-name="组 1880" transform="translate(288.618 128.724)">
        <g id="组_1879" data-name="组 1879">
          <path id="路径_2106" data-name="路径 2106" d="M309.678,141.612V149.5h-4.573V142.14c0-1.848-.661-3.11-2.316-3.11a2.5,2.5,0,0,0-2.346,1.672,3.132,3.132,0,0,0-.151,1.115V149.5h-4.574s.061-12.464,0-13.754h4.574v1.949c-.01.015-.022.03-.03.045h.03v-.045a4.54,4.54,0,0,1,4.121-2.272c3.009,0,5.265,1.966,5.265,6.19Zm-21.06,7.888h4.572V135.745h-4.572Zm0,0,4.708-18.421a2.354,2.354,0,1,1-2.354-2.354A2.354,2.354,0,0,1,293.326,131.078Z" transform="translate(-288.618 -128.724)" fill="#59687c"/>
        </g>
      </g>
    </g>
  </g>
</svg>
