<svg xmlns="http://www.w3.org/2000/svg" width="40" height="40" viewBox="0 0 40 40">
  <g id="instagram" transform="translate(-36.954 -133.31)">
    <g id="组_1876" data-name="组 1876" transform="translate(0 26)">
      <path id="路径_2100" data-name="路径 2100" d="M56.954,147.31h0a20,20,0,0,1-20-20h0a20,20,0,0,1,20-20h0a20,20,0,0,1,20,20h0A20,20,0,0,1,56.954,147.31Z" fill="#fff"/>
    </g>
    <g id="组_1878" data-name="组 1878" transform="translate(-237.555 -209.661)">
      <g id="组_1877" data-name="组 1877" transform="translate(284.4 352.863)">
        <path id="路径_2103" data-name="路径 2103" d="M299.19,352.863h-9.161a5.629,5.629,0,0,0-5.629,5.629v9.161a5.629,5.629,0,0,0,5.629,5.629h9.161a5.628,5.628,0,0,0,5.628-5.629v-9.161A5.628,5.628,0,0,0,299.19,352.863Zm3.978,14.766a4,4,0,0,1-4,4h-9.114a4,4,0,0,1-4-4v-9.114a4,4,0,0,1,4-4h9.114a4,4,0,0,1,4,4Z" transform="translate(-284.4 -352.863)" fill="#59687c"/>
        <path id="路径_2104" data-name="路径 2104" d="M300.706,363.789a5.381,5.381,0,1,0,5.381,5.381A5.38,5.38,0,0,0,300.706,363.789Zm0,8.89a3.51,3.51,0,1,1,3.51-3.509A3.51,3.51,0,0,1,300.706,372.679Z" transform="translate(-290.497 -358.96)" fill="#59687c"/>
        <path id="路径_2105" data-name="路径 2105" d="M319.772,361.859a1.207,1.207,0,1,1-1.207-1.207A1.207,1.207,0,0,1,319.772,361.859Z" transform="translate(-302.792 -357.21)" fill="#59687c"/>
      </g>
    </g>
  </g>
</svg>
