<svg xmlns="http://www.w3.org/2000/svg" width="40" height="40" viewBox="0 0 40 40">
  <g id="LinkedIn" transform="translate(-36.954 -133.31)">
    <g id="组_1876" data-name="组 1876" transform="translate(0 26)">
      <path id="路径_2100" data-name="路径 2100" d="M56.954,147.31h0a20,20,0,0,1-20-20h0a20,20,0,0,1,20-20h0a20,20,0,0,1,20,20h0A20,20,0,0,1,56.954,147.31Z" fill="#fff"/>
    </g>
    <path id="路径_2107" data-name="路径 2107" d="M410.143,152.658a4.589,4.589,0,0,1-2.556-.758,12.353,12.353,0,0,0-2.389-1.351,5.835,5.835,0,0,0-2.829.006c-.284.048-.681.194-.862-.133a9.861,9.861,0,0,1-.352-1.278c-.1-.271-.594-.268-.844-.319-.231-.047-.454-.1-.683-.164-.511-.134-2.272-.585-1.74-1.449a1.228,1.228,0,0,1,.716-.426,9.879,9.879,0,0,0,1.3-.507,7.191,7.191,0,0,0,2.075-1.687,5.8,5.8,0,0,0,1.336-2.3c.215-.948-.685-1.185-1.391-1.447-.527-.2-1.509-.559-1.621-1.212s.829-1.134,1.361-1.018c.362.072.7.222,1.068.27a2.975,2.975,0,0,0,.6.022c.162-.011.142.007.19-.114.074-.962-.078-1.935-.1-2.9a6.494,6.494,0,0,1,.368-2.533,6.693,6.693,0,0,1,1.342-2.061,6.788,6.788,0,0,1,4.5-2.07,7.591,7.591,0,0,1,4.864,1.087,6.135,6.135,0,0,1,2.694,3.964,16.315,16.315,0,0,1,.068,2.731c0,.457-.037.914-.039,1.372,0,.155,0,.309.009.464,0,.069.311.065.36.065.667,0,1.321-.48,1.98-.308.539.141,1.153.728.784,1.307a2.818,2.818,0,0,1-1.427.913,2.626,2.626,0,0,0-1.407.8c-.208.276-.065.685.05.966a7.022,7.022,0,0,0,.6,1.125,7.926,7.926,0,0,0,1.571,1.787,6.314,6.314,0,0,0,1.859,1.089,5.9,5.9,0,0,1,1.108.4.563.563,0,0,1,.246.626.816.816,0,0,1-.4.5,6.821,6.821,0,0,1-2.479.767c-.376.037-.476.376-.571.693-.107.356-.157.951-.635.971-.378,0-.77-.086-1.15-.106a11.215,11.215,0,0,0-1.192-.011c-.244.014-.49.019-.731.056a3.277,3.277,0,0,0-1.1.493c-.717.42-1.391.927-2.135,1.3A5.321,5.321,0,0,1,410.143,152.658Z" transform="translate(-353.072 12.214)" fill="#59687c"/>
  </g>
</svg>
