<svg xmlns="http://www.w3.org/2000/svg" width="40" height="40" viewBox="0 0 40 40">
  <g id="Twitter" transform="translate(-36.954 -133.31)">
    <g id="组_1876" data-name="组 1876" transform="translate(0 26)">
      <path id="路径_2100" data-name="路径 2100" d="M56.954,147.31h0a20,20,0,0,1-20-20h0a20,20,0,0,1,20-20h0a20,20,0,0,1,20,20h0A20,20,0,0,1,56.954,147.31Z" fill="#fff"/>
    </g>
    <path id="路径_2102" data-name="路径 2102" d="M84.231,248.6a10.132,10.132,0,0,1-2.916.8,5.1,5.1,0,0,0,2.233-2.809,10.158,10.158,0,0,1-3.224,1.232,5.081,5.081,0,0,0-8.652,4.631,14.41,14.41,0,0,1-10.465-5.3,5.082,5.082,0,0,0,1.57,6.779,5.055,5.055,0,0,1-2.3-.636c0,.021,0,.043,0,.064a5.08,5.08,0,0,0,4.073,4.978,5.085,5.085,0,0,1-2.293.088A5.081,5.081,0,0,0,67,261.946a10.261,10.261,0,0,1-7.517,2.1,14.439,14.439,0,0,0,22.228-12.165q0-.329-.015-.657a10.309,10.309,0,0,0,2.534-2.628Zm0,0" transform="translate(-14.819 -103.017)" fill="#59687c"/>
  </g>
</svg>
