<svg xmlns="http://www.w3.org/2000/svg" width="69.021" height="51.678" viewBox="0 0 69.021 51.678">
  <g id="记录社交路径" transform="translate(-191.19 -239.551)">
    <path id="路径_37308" data-name="路径 37308" d="M195.352,244.706a4.162,4.162,0,1,0,4.162,4.162A4.166,4.166,0,0,0,195.352,244.706Zm0,6.5a2.342,2.342,0,1,1,2.341-2.341A2.345,2.345,0,0,1,195.352,251.209Z" transform="translate(0 0.805)" fill="#6287de"/>
    <path id="路径_37309" data-name="路径 37309" d="M218.789,277.051a4.162,4.162,0,1,0,4.161,4.161A4.165,4.165,0,0,0,218.789,277.051Zm0,6.5a2.342,2.342,0,1,1,2.341-2.342A2.345,2.345,0,0,1,218.789,283.554Z" transform="translate(3.659 5.855)" fill="#6287de"/>
    <path id="路径_37310" data-name="路径 37310" d="M215.977,257.362a4.162,4.162,0,1,0,4.162,4.162A4.167,4.167,0,0,0,215.977,257.362Zm0,6.5a2.341,2.341,0,1,1,2.341-2.341A2.345,2.345,0,0,1,215.977,263.865Z" transform="translate(3.22 2.781)" fill="#6287de"/>
    <path id="路径_37311" data-name="路径 37311" d="M230.977,266.738a4.162,4.162,0,1,0,4.162,4.162A4.167,4.167,0,0,0,230.977,266.738Zm0,6.5a2.341,2.341,0,1,1,2.341-2.341A2.345,2.345,0,0,1,230.977,273.241Z" transform="translate(5.562 4.245)" fill="#6287de"/>
    <path id="路径_37312" data-name="路径 37312" d="M243.633,274.237A4.162,4.162,0,1,0,247.8,278.4,4.166,4.166,0,0,0,243.633,274.237Zm0,6.5a2.341,2.341,0,1,1,2.342-2.341A2.345,2.345,0,0,1,243.633,280.74Z" transform="translate(7.539 5.416)" fill="#6287de"/>
    <path id="路径_37313" data-name="路径 37313" d="M199.1,270.956a4.162,4.162,0,1,0,4.162,4.162A4.166,4.166,0,0,0,199.1,270.956Zm0,6.5a2.342,2.342,0,1,1,2.341-2.341A2.345,2.345,0,0,1,199.1,277.459Z" transform="translate(0.586 4.904)" fill="#6287de"/>
    <path id="路径_37314" data-name="路径 37314" d="M247.852,251.737a4.162,4.162,0,1,0,4.162,4.162A4.167,4.167,0,0,0,247.852,251.737Zm0,6.5a2.341,2.341,0,1,1,2.341-2.341A2.345,2.345,0,0,1,247.852,258.24Z" transform="translate(8.197 1.903)" fill="#6287de"/>
    <path id="路径_37315" data-name="路径 37315" d="M236.6,239.551a4.162,4.162,0,1,0,4.162,4.161A4.166,4.166,0,0,0,236.6,239.551Zm0,6.5a2.342,2.342,0,1,1,2.341-2.342A2.345,2.345,0,0,1,236.6,246.054Z" transform="translate(6.441 0)" fill="#6287de"/>
    <path id="路径_37316" data-name="路径 37316" d="M235.871,272.539a6.64,6.64,0,0,1-.916,1.574l3.231,1.97a6.687,6.687,0,0,1,.927-1.567Z" transform="translate(6.833 5.151)" fill="#6287de"/>
    <path id="路径_37317" data-name="路径 37317" d="M235.274,269.838l4.8-4.168,2.082,10.479a6.6,6.6,0,0,1,1.776-.393l-2.275-11.464.076-.067,3.241-2.818a6.746,6.746,0,0,1-1.191-1.378l-2.534,2.2L238.537,248.6a6.61,6.61,0,0,1-1.785.354l2.91,14.656-.075.067-5.573,4.845A6.736,6.736,0,0,1,235.274,269.838Z" transform="translate(6.687 1.413)" fill="#6287de"/>
    <path id="路径_37318" data-name="路径 37318" d="M223.193,278.115l3.931-3.414a6.718,6.718,0,0,1-1.139-1.426l-3.994,3.472A6.717,6.717,0,0,1,223.193,278.115Z" transform="translate(4.809 5.266)" fill="#6287de"/>
    <path id="路径_37319" data-name="路径 37319" d="M220.337,259.485l13.9-11.841a6.7,6.7,0,0,1-1.178-1.387L219.11,258.14A6.717,6.717,0,0,1,220.337,259.485Z" transform="translate(4.359 1.047)" fill="#6287de"/>
    <path id="路径_37320" data-name="路径 37320" d="M220.805,263.35a6.706,6.706,0,0,1-.979,1.536L226,268.65a6.625,6.625,0,0,1,.984-1.533Z" transform="translate(4.471 3.716)" fill="#6287de"/>
    <path id="路径_37321" data-name="路径 37321" d="M211.793,259.995a6.638,6.638,0,0,1,.924-1.575l-12.571-7.657a6.721,6.721,0,0,1-1,1.525Z" transform="translate(1.243 1.751)" fill="#6287de"/>
    <path id="路径_37322" data-name="路径 37322" d="M209.682,270.459l.11.153,7.019,9.662a6.673,6.673,0,0,1,1.463-1.086l-7.2-9.909,2.555-2.174a6.771,6.771,0,0,1-1.14-1.422L210,267.8l-.11-.151L198.9,252.545a6.673,6.673,0,0,1-1.495,1.039l11.195,15.4-5.112,4.354a6.714,6.714,0,0,1,1.086,1.469Z" transform="translate(0.971 2.029)" fill="#6287de"/>
  </g>
</svg>
