<svg xmlns="http://www.w3.org/2000/svg" width="45.759" height="62.94" viewBox="0 0 45.759 62.94">
  <g id="端到端的加密" transform="translate(-259.654 -233.897)">
    <path id="路径_37289" data-name="路径 37289" d="M296.513,279.476a3.709,3.709,0,0,0,3.548-3.549,3.773,3.773,0,0,0-2.839-3.586l-.134-.034v-1.658a4.846,4.846,0,0,0-4.833-4.846h-3.2v1.374l-.065,0v.119h3.257a3.352,3.352,0,0,1,3.348,3.348v1.661l-.138.032a3.63,3.63,0,0,0-2.833,3.592A3.736,3.736,0,0,0,296.513,279.476Zm-.177-5.767a2.226,2.226,0,1,1-2.22,2.226A2.23,2.23,0,0,1,296.336,273.709Z" transform="translate(5.347 5.816)" fill="#91f0d2"/>
    <path id="路径_37290" data-name="路径 37290" d="M292.749,261.487l-.034.134h-3.727v1.493h3.731l.031.138a3.631,3.631,0,0,0,3.565,2.843h.021a3.729,3.729,0,0,0,3.729-3.723,3.682,3.682,0,0,0-3.646-3.724h-.069A3.776,3.776,0,0,0,292.749,261.487Zm3.587-1.27a2.225,2.225,0,1,1-2.221,2.223A2.229,2.229,0,0,1,296.336,260.217Z" transform="translate(5.347 4.512)" fill="#91f0d2"/>
    <path id="路径_37293" data-name="路径 37293" d="M292.242,260.036a4.845,4.845,0,0,0,4.84-4.837v-1.661l.138-.032a3.633,3.633,0,0,0,2.834-3.589,3.721,3.721,0,1,0-4.605,3.6l.134.034V255.2a3.351,3.351,0,0,1-3.348,3.348h-3.212a2.175,2.175,0,0,1,.025.5v.99h3.193Zm1.867-10.188a2.226,2.226,0,0,1,4.452,0v0a2.28,2.28,0,0,1-2.224,2.221l0-.111v.111l0-.119v.119A2.232,2.232,0,0,1,294.109,249.848Z" transform="translate(5.354 2.242)" fill="#91f0d2"/>
    <path id="路径_37294" data-name="路径 37294" d="M259.654,262.379a3.711,3.711,0,0,0,7.318.877l.034-.134h3.724v-1.5H267l-.032-.138a3.633,3.633,0,0,0-3.561-2.834h-.026A3.729,3.729,0,0,0,259.654,262.379Zm3.717-2.162h.011a2.277,2.277,0,0,1,2.221,2.149,2.178,2.178,0,0,1-2.178,2.169H263.4a2.284,2.284,0,0,1-2.246-2.149A2.315,2.315,0,0,1,263.371,260.217Z" transform="translate(0 4.513)" fill="#91f0d2"/>
    <path id="路径_37297" data-name="路径 37297" d="M270.723,267.244v-1.493H267.53a4.845,4.845,0,0,0-4.84,4.838v1.663l-.136.032a3.709,3.709,0,0,0,.818,7.313,3.727,3.727,0,0,0,3.719-3.723,3.775,3.775,0,0,0-2.839-3.594l-.135-.034v-1.652a3.357,3.357,0,0,1,3.349-3.349Zm-5.13,8.7a2.226,2.226,0,1,1-4.451,0v0a2.278,2.278,0,0,1,2.047-2.207v-.012h.178A2.229,2.229,0,0,1,265.593,275.942Z" transform="translate(0.012 5.807)" fill="#91f0d2"/>
    <path id="路径_37298" data-name="路径 37298" d="M267.526,260.037h3.192v-1a2.465,2.465,0,0,1,.026-.484h-3.218a3.355,3.355,0,0,1-3.349-3.348v-1.662l.138-.032a3.632,3.632,0,0,0,2.835-3.591,3.728,3.728,0,0,0-3.723-3.725h-.032a3.687,3.687,0,0,0-3.684,3.588l0,.134a3.774,3.774,0,0,0,2.838,3.6l.135.034V255.2A4.843,4.843,0,0,0,267.526,260.037Zm-6.316-10.113a2.213,2.213,0,0,1,2.152-2.233h.006a2.226,2.226,0,0,1,0,4.451A2.32,2.32,0,0,1,261.21,249.924Z" transform="translate(0.01 2.241)" fill="#91f0d2"/>
    <path id="路径_37299" data-name="路径 37299" d="M275.854,282.24a3.724,3.724,0,1,0,7.447,0,3.772,3.772,0,0,0-2.838-3.594l-.134-.034V270h-1.5v8.617l-.138.033A3.675,3.675,0,0,0,275.854,282.24Zm3.715-2.226a2.185,2.185,0,0,1,2.169,2.2l0,.027a2.27,2.27,0,0,1-2.148,2.218,2.176,2.176,0,0,1-2.168-2.2A2.28,2.28,0,0,1,279.569,280.013Z" transform="translate(2.953 6.581)" fill="#91f0d2"/>
    <path id="路径_37300" data-name="路径 37300" d="M288.573,287.224h1.665l.033.138a3.677,3.677,0,0,0,3.561,2.835h.033a3.724,3.724,0,0,0,0-7.439,3.776,3.776,0,0,0-3.591,2.839l-.035.134h-1.719a3.3,3.3,0,0,1-3.288-3.234V269.941h-1.5v12.44A4.846,4.846,0,0,0,288.573,287.224Zm5.288-2.9a2.225,2.225,0,1,1-2.22,2.224A2.277,2.277,0,0,1,293.861,284.32Z" transform="translate(4.39 6.57)" fill="#91f0d2"/>
    <path id="路径_37301" data-name="路径 37301" d="M263.375,289.041a3.7,3.7,0,0,0,2.58,1.212c.115,0,.229,0,.343,0a3.778,3.778,0,0,0,3.6-2.839l.034-.135h1.66a4.845,4.845,0,0,0,4.84-4.838V270h-1.491v12.44a3.355,3.355,0,0,1-3.349,3.348h-1.661l-.032-.14a3.631,3.631,0,0,0-3.561-2.834h-.032c-.058,0-.117,0-.174,0a3.723,3.723,0,0,0-2.758,6.233Zm2.931-4.8a2.226,2.226,0,0,1,0,4.451h0a2.226,2.226,0,1,1,0-4.451Z" transform="translate(0.501 6.581)" fill="#91f0d2"/>
    <path id="路径_37302" data-name="路径 37302" d="M279.019,246.136a3.906,3.906,0,0,1,.493-.038h.134a4.263,4.263,0,0,1,.68.035v-1.254l.138-.032a3.675,3.675,0,0,0,2.838-3.591,3.724,3.724,0,1,0-7.447,0,3.775,3.775,0,0,0,2.839,3.593l.134.034v1.272C278.89,246.15,278.954,246.142,279.019,246.136Zm-1.6-4.883a2.277,2.277,0,0,1,2.149-2.218,2.18,2.18,0,0,1,2.169,2.2,2.282,2.282,0,0,1-2.151,2.242,2.178,2.178,0,0,1-2.168-2.2m0-.02" transform="translate(2.953 0.662)" fill="#91f0d2"/>
    <path id="路径_37303" data-name="路径 37303" d="M276.433,248.634V241.72a4.84,4.84,0,0,0-4.837-4.844h-1.665l-.032-.138a3.676,3.676,0,0,0-3.561-2.835h-.032a3.642,3.642,0,0,0-2.69.968,3.724,3.724,0,0,0,2.337,6.472,3.312,3.312,0,0,0,.343,0,3.775,3.775,0,0,0,3.6-2.839l.034-.134h1.658a3.355,3.355,0,0,1,3.349,3.348v8.309A12,12,0,0,1,276.433,248.634Zm-10.123-8.784a2.226,2.226,0,1,1,0-4.451h0a2.229,2.229,0,0,1,2.224,2.229A2.282,2.282,0,0,1,266.311,239.85Z" transform="translate(0.501 0)" fill="#91f0d2"/>
    <path id="路径_37304" data-name="路径 37304" d="M293.875,233.959h-.009a3.771,3.771,0,0,0-3.6,2.837l-.035.135h-1.659a4.845,4.845,0,0,0-4.84,4.837v6.919a11.765,11.765,0,0,1,1.494,1.345v-8.323a3.352,3.352,0,0,1,3.348-3.348h1.66l.033.138a3.631,3.631,0,0,0,3.56,2.834h.033a3.687,3.687,0,1,0,.011-7.373Zm-.008,5.88h0a2.226,2.226,0,0,1,0-4.451h0a2.226,2.226,0,0,1,2.226,2.224A2.248,2.248,0,0,1,293.867,239.839Z" transform="translate(4.39 0.011)" fill="#91f0d2"/>
    <path id="路径_37305" data-name="路径 37305" d="M281.929,261.086a2.511,2.511,0,0,0-2.045-2.378h0a2.529,2.529,0,0,0-.486-.048,2.456,2.456,0,0,0-2.244,1.445,2.362,2.362,0,0,0,.708,2.921l.022.017v2.288a1.564,1.564,0,0,0,.214.771,1.6,1.6,0,0,0,1.375.79,1.531,1.531,0,0,0,.774-.209,1.446,1.446,0,0,0,.765-1.357v-2.276l.021-.018A2.383,2.383,0,0,0,281.929,261.086Zm-1.747.958-.065.051a1.17,1.17,0,0,0-.406.851l0,2.432a.185.185,0,0,1-.106.173.239.239,0,0,1-.126.038.213.213,0,0,1-.071-.012.38.38,0,0,1-.221-.233l0-.024v-2.367a1.094,1.094,0,0,0-.473-.917,1.1,1.1,0,0,1-.375-1.39,1.155,1.155,0,0,1,1.3-.66,1.214,1.214,0,0,1,1,1.141A1.083,1.083,0,0,1,280.181,262.044Z" transform="translate(3.147 4.514)" fill="#91f0d2"/>
    <path id="路径_37306" data-name="路径 37306" d="M279.8,249.2A4.8,4.8,0,0,0,275,254v3.211h9.591V254A4.8,4.8,0,0,0,279.8,249.2Zm3.5,6.71H276.3V254a3.5,3.5,0,0,1,6.991,0Z" transform="translate(2.798 2.79)" fill="#91f0d2"/>
    <path id="路径_37307" data-name="路径 37307" d="M290.591,258.968a2.581,2.581,0,0,0-1.964-2.518l-.044-.011v-1.984a8,8,0,0,0-7.936-8.055.554.554,0,0,0-.061,0,7.994,7.994,0,0,0-7.992,7.927l.006,2.129-.048.009a2.555,2.555,0,0,0-1.308.681,2.6,2.6,0,0,0-.784,1.876V269.68a2.561,2.561,0,0,0,.731,1.833,2.6,2.6,0,0,0,1.87.778h14.956a2.587,2.587,0,0,0,2.574-2.556Zm-1.3,10.816a1.273,1.273,0,0,1-.383.843,1.186,1.186,0,0,1-.862.364H273.02a1.274,1.274,0,0,1-1.259-1.3V258.976a1.278,1.278,0,0,1,1.3-1.254h.838l0-3.539a6.653,6.653,0,0,1,1.992-4.555,6.694,6.694,0,0,1,11.394,4.821v2.56l.1.641.65.009a1.27,1.27,0,0,1,.9.384,1.29,1.29,0,0,1,.362.916v10.669h0v.155Z" transform="translate(1.97 2.279)" fill="#91f0d2"/>
  </g>
</svg>
