<svg xmlns="http://www.w3.org/2000/svg" xmlns:xlink="http://www.w3.org/1999/xlink" width="690" height="333.626" viewBox="0 0 690 333.626">
  <defs>
    <clipPath id="clip-path">
      <rect id="矩形_2273" data-name="矩形 2273" width="690" height="333.626" transform="translate(0 0)" fill="#fff"/>
    </clipPath>
  </defs>
  <g id="小屏-技术-区块链_韩文" transform="translate(-3310 547)">
    <g id="组_21817" data-name="组 21817" transform="translate(3299.315 -655)">
      <g id="蒙版组_22" data-name="蒙版组 22" transform="translate(10.685 108)" clip-path="url(#clip-path)">
        <g id="组_21561" data-name="组 21561" transform="translate(241.923 2.557)" opacity="0.05">
          <g id="组_21553" data-name="组 21553" transform="translate(213.782)">
            <path id="路径_37975" data-name="路径 37975" d="M867.765-111.164l-35.4,20.484a.033.033,0,0,0,0,.057L867.45-70.3a.033.033,0,0,0,.033,0L902.094-90.7a.033.033,0,0,0,0-.056l-34.3-20.405A.033.033,0,0,0,867.765-111.164Z" transform="translate(-832.32 111.168)" fill="none" stroke="#1a1311" stroke-miterlimit="10" stroke-width="1"/>
            <path id="路径_37976" data-name="路径 37976" d="M832.226,9.266V-31.466a.033.033,0,0,1,.049-.028l35.081,20.327a.033.033,0,0,1,.017.028V30.142a.033.033,0,0,1-.05.028L832.242,9.295A.033.033,0,0,1,832.226,9.266Z" transform="translate(-832.226 52.04)" fill="none" stroke="#1a1311" stroke-miterlimit="10" stroke-width="1"/>
            <path id="路径_37977" data-name="路径 37977" d="M1003.22-31.77V8.884a.033.033,0,0,1-.016.028l-34.61,21.033a.033.033,0,0,1-.05-.028V-11.365a.033.033,0,0,1,.016-.028l34.61-20.4A.033.033,0,0,1,1003.22-31.77Z" transform="translate(-933.398 52.265)" fill="none" stroke="#1a1311" stroke-miterlimit="10" stroke-width="1"/>
          </g>
          <g id="组_21554" data-name="组 21554" transform="translate(319.751 60.807)">
            <path id="路径_37978" data-name="路径 37978" d="M1278.8,124.7l-35.4,20.484a.033.033,0,0,0,0,.057l35.082,20.327a.033.033,0,0,0,.033,0l34.611-20.406a.033.033,0,0,0,0-.056l-34.3-20.405A.033.033,0,0,0,1278.8,124.7Z" transform="translate(-1243.355 -124.693)" fill="none" stroke="#1a1311" stroke-miterlimit="10" stroke-width="1"/>
            <path id="路径_37979" data-name="路径 37979" d="M1243.261,245.128V204.395a.033.033,0,0,1,.049-.029l35.081,20.327a.032.032,0,0,1,.016.028V266a.033.033,0,0,1-.05.028l-35.082-20.876A.033.033,0,0,1,1243.261,245.128Z" transform="translate(-1243.261 -183.821)" fill="none" stroke="#1a1311" stroke-miterlimit="10" stroke-width="1"/>
            <path id="路径_37980" data-name="路径 37980" d="M1414.255,204.092v40.654a.033.033,0,0,1-.016.028l-34.61,21.033a.033.033,0,0,1-.05-.028V224.5a.032.032,0,0,1,.016-.028l34.609-20.4A.033.033,0,0,1,1414.255,204.092Z" transform="translate(-1344.433 -183.596)" fill="none" stroke="#1a1311" stroke-miterlimit="10" stroke-width="1"/>
          </g>
          <g id="组_21555" data-name="组 21555" transform="translate(426.072 122.09)">
            <path id="路径_37981" data-name="路径 37981" d="M1691.2,362.409l-35.4,20.484a.033.033,0,0,0,0,.057l35.081,20.327a.033.033,0,0,0,.033,0l34.611-20.406a.033.033,0,0,0,0-.056l-34.3-20.405A.034.034,0,0,0,1691.2,362.409Z" transform="translate(-1655.759 -362.405)" fill="none" stroke="#1a1311" stroke-miterlimit="10" stroke-width="1"/>
            <path id="路径_37982" data-name="路径 37982" d="M1655.665,482.839V442.106a.033.033,0,0,1,.049-.028L1690.8,462.4a.033.033,0,0,1,.016.028v41.282a.033.033,0,0,1-.05.028l-35.081-20.876A.032.032,0,0,1,1655.665,482.839Z" transform="translate(-1655.665 -421.532)" fill="none" stroke="#1a1311" stroke-miterlimit="10" stroke-width="1"/>
            <path id="路径_37983" data-name="路径 37983" d="M1826.659,441.8v40.654a.033.033,0,0,1-.016.028l-34.61,21.032a.033.033,0,0,1-.05-.028V462.208a.033.033,0,0,1,.016-.028l34.609-20.4A.033.033,0,0,1,1826.659,441.8Z" transform="translate(-1756.837 -421.307)" fill="none" stroke="#1a1311" stroke-miterlimit="10" stroke-width="1"/>
          </g>
          <g id="组_21556" data-name="组 21556" transform="translate(0 122.321)">
            <path id="路径_37984" data-name="路径 37984" d="M38.539,363.306,3.143,383.79a.033.033,0,0,0,0,.057l35.082,20.327a.033.033,0,0,0,.033,0l34.611-20.406a.033.033,0,0,0,0-.056l-34.3-20.405A.033.033,0,0,0,38.539,363.306Z" transform="translate(-3.094 -363.302)" fill="none" stroke="#1a1311" stroke-miterlimit="10" stroke-width="1"/>
            <path id="路径_37985" data-name="路径 37985" d="M3,483.736V443a.033.033,0,0,1,.049-.028L38.131,463.3a.033.033,0,0,1,.016.028v41.282a.033.033,0,0,1-.05.028L3.016,483.764A.033.033,0,0,1,3,483.736Z" transform="translate(-3 -422.429)" fill="none" stroke="#1a1311" stroke-miterlimit="10" stroke-width="1"/>
            <path id="路径_37986" data-name="路径 37986" d="M173.994,442.7v40.654a.033.033,0,0,1-.016.028l-34.61,21.032a.033.033,0,0,1-.05-.028V463.1a.033.033,0,0,1,.016-.028l34.61-20.4A.033.033,0,0,1,173.994,442.7Z" transform="translate(-104.172 -422.204)" fill="none" stroke="#1a1311" stroke-miterlimit="10" stroke-width="1"/>
          </g>
          <g id="组_21557" data-name="组 21557" transform="translate(319.751 184.294)">
            <path id="路径_37987" data-name="路径 37987" d="M1278.8,603.691l-35.4,20.484a.033.033,0,0,0,0,.057l35.082,20.327a.032.032,0,0,0,.033,0l34.611-20.405a.033.033,0,0,0,0-.057l-34.3-20.405A.033.033,0,0,0,1278.8,603.691Z" transform="translate(-1243.355 -603.687)" fill="none" stroke="#1a1311" stroke-miterlimit="10" stroke-width="1"/>
            <path id="路径_37988" data-name="路径 37988" d="M1243.261,724.121V683.389a.033.033,0,0,1,.049-.028l35.081,20.327a.033.033,0,0,1,.016.028V745a.033.033,0,0,1-.05.028l-35.082-20.876A.034.034,0,0,1,1243.261,724.121Z" transform="translate(-1243.261 -662.815)" fill="none" stroke="#1a1311" stroke-miterlimit="10" stroke-width="1"/>
            <path id="路径_37989" data-name="路径 37989" d="M1414.255,683.085v40.654a.033.033,0,0,1-.016.028L1379.63,744.8a.033.033,0,0,1-.05-.028V703.49a.033.033,0,0,1,.016-.028l34.609-20.4A.033.033,0,0,1,1414.255,683.085Z" transform="translate(-1344.433 -662.59)" fill="none" stroke="#1a1311" stroke-miterlimit="10" stroke-width="1"/>
          </g>
          <g id="组_21558" data-name="组 21558" transform="translate(106.59 61.36)">
            <path id="路径_37990" data-name="路径 37990" d="M451.984,126.845l-35.4,20.484a.033.033,0,0,0,0,.057l35.081,20.327a.033.033,0,0,0,.033,0l34.611-20.405a.033.033,0,0,0,0-.056l-34.3-20.405A.033.033,0,0,0,451.984,126.845Z" transform="translate(-416.539 -126.841)" fill="none" stroke="#1a1311" stroke-miterlimit="10" stroke-width="1"/>
            <path id="路径_37991" data-name="路径 37991" d="M416.445,247.275V206.543a.033.033,0,0,1,.049-.028l35.081,20.327a.033.033,0,0,1,.016.029v41.282a.033.033,0,0,1-.05.028L416.461,247.3A.033.033,0,0,1,416.445,247.275Z" transform="translate(-416.445 -185.969)" fill="none" stroke="#1a1311" stroke-miterlimit="10" stroke-width="1"/>
            <path id="路径_37992" data-name="路径 37992" d="M587.439,206.24v40.654a.033.033,0,0,1-.016.028l-34.61,21.033a.033.033,0,0,1-.05-.028V226.645a.033.033,0,0,1,.016-.028l34.61-20.4A.033.033,0,0,1,587.439,206.24Z" transform="translate(-517.617 -185.744)" fill="none" stroke="#1a1311" stroke-miterlimit="10" stroke-width="1"/>
          </g>
          <g id="组_21559" data-name="组 21559" transform="translate(106.59 184.525)">
            <path id="路径_37993" data-name="路径 37993" d="M451.984,604.588l-35.4,20.484a.033.033,0,0,0,0,.057l35.081,20.327a.033.033,0,0,0,.033,0l34.611-20.405a.033.033,0,0,0,0-.057l-34.3-20.405A.033.033,0,0,0,451.984,604.588Z" transform="translate(-416.539 -604.584)" fill="none" stroke="#1a1311" stroke-miterlimit="10" stroke-width="1"/>
            <path id="路径_37994" data-name="路径 37994" d="M416.445,725.018V684.286a.033.033,0,0,1,.049-.028l35.081,20.327a.033.033,0,0,1,.016.028v41.282a.033.033,0,0,1-.05.028l-35.081-20.876A.033.033,0,0,1,416.445,725.018Z" transform="translate(-416.445 -663.712)" fill="none" stroke="#1a1311" stroke-miterlimit="10" stroke-width="1"/>
            <path id="路径_37995" data-name="路径 37995" d="M587.439,683.982v40.654a.033.033,0,0,1-.016.028L552.814,745.7a.033.033,0,0,1-.05-.028V704.387a.033.033,0,0,1,.016-.028l34.61-20.4A.033.033,0,0,1,587.439,683.982Z" transform="translate(-517.617 -663.487)" fill="none" stroke="#1a1311" stroke-miterlimit="10" stroke-width="1"/>
          </g>
          <g id="组_21560" data-name="组 21560" transform="translate(213.782 246.297)">
            <path id="路径_37996" data-name="路径 37996" d="M867.765,844.194l-35.4,20.484a.033.033,0,0,0,0,.057l35.081,20.327a.033.033,0,0,0,.033,0l34.611-20.406a.033.033,0,0,0,0-.056l-34.3-20.405A.033.033,0,0,0,867.765,844.194Z" transform="translate(-832.32 -844.189)" fill="none" stroke="#1a1311" stroke-miterlimit="10" stroke-width="1"/>
            <path id="路径_37997" data-name="路径 37997" d="M832.226,964.624V923.891a.033.033,0,0,1,.049-.029l35.081,20.327a.033.033,0,0,1,.017.028V985.5a.033.033,0,0,1-.05.028l-35.081-20.876A.032.032,0,0,1,832.226,964.624Z" transform="translate(-832.226 -903.317)" fill="none" stroke="#1a1311" stroke-miterlimit="10" stroke-width="1"/>
            <path id="路径_37998" data-name="路径 37998" d="M1003.22,923.588v40.654a.033.033,0,0,1-.016.028L968.595,985.3a.033.033,0,0,1-.05-.028V943.993a.032.032,0,0,1,.016-.028l34.61-20.4A.033.033,0,0,1,1003.22,923.588Z" transform="translate(-933.398 -903.092)" fill="none" stroke="#1a1311" stroke-miterlimit="10" stroke-width="1"/>
          </g>
          <line id="直线_377" data-name="直线 377" y1="26.429" x2="48.174" transform="translate(176.358 55.4)" fill="none" stroke="#1a1311" stroke-miterlimit="10" stroke-width="1"/>
          <line id="直线_378" data-name="直线 378" y1="26.429" x2="48.174" transform="translate(69.314 116.667)" fill="none" stroke="#1a1311" stroke-miterlimit="10" stroke-width="1"/>
          <line id="直线_379" data-name="直线 379" y1="28.262" x2="48.479" transform="translate(389.512 176.599)" fill="none" stroke="#1a1311" stroke-miterlimit="10" stroke-width="1"/>
          <line id="直线_380" data-name="直线 380" y1="28.155" x2="47.517" transform="translate(283.568 238.934)" fill="none" stroke="#1a1311" stroke-miterlimit="10" stroke-width="1"/>
          <line id="直线_381" data-name="直线 381" x1="45.624" y1="25.634" transform="translate(274.609 56.195)" fill="none" stroke="#1a1311" stroke-miterlimit="10" stroke-width="1"/>
          <line id="直线_382" data-name="直线 382" x1="46.347" y1="26.328" transform="translate(168.198 240.931)" fill="none" stroke="#1a1311" stroke-miterlimit="10" stroke-width="1"/>
          <line id="直线_383" data-name="直线 383" x1="46.13" y1="26.533" transform="translate(60.978 178.71)" fill="none" stroke="#1a1311" stroke-miterlimit="10" stroke-width="1"/>
          <path id="路径_38192" data-name="路径 38192" d="M46.9,26.27,10.442,5.849,0,0" transform="translate(379.673 116.598)" fill="none" stroke="#1a1311" stroke-width="1"/>
        </g>
      </g>
      <g id="_4-区块链" data-name="4-区块链" transform="translate(373.696 188.374)">
        <g id="组_21552" data-name="组 21552" transform="translate(56.705 5.387)" opacity="0.8">
          <g id="组_21544" data-name="组 21544" transform="translate(53.499)">
            <path id="路径_37951" data-name="路径 37951" d="M916.033,204.312l-17.665,10.223a.016.016,0,0,0,0,.028l17.508,10.144a.016.016,0,0,0,.017,0l17.273-10.183a.017.017,0,0,0,0-.028L916.05,204.312A.017.017,0,0,0,916.033,204.312Z" transform="translate(-898.344 -204.309)" fill="none" stroke="#1a1311" stroke-miterlimit="10" stroke-width="1"/>
            <path id="路径_37952" data-name="路径 37952" d="M898.3,264.712V244.384a.016.016,0,0,1,.025-.014l17.508,10.144a.016.016,0,0,1,.008.014v20.6a.016.016,0,0,1-.025.014L898.3,264.727A.016.016,0,0,1,898.3,264.712Z" transform="translate(-898.297 -234.117)" fill="none" stroke="#1a1311" stroke-miterlimit="10" stroke-width="1"/>
            <path id="路径_37953" data-name="路径 37953" d="M984.145,244.232v20.289a.017.017,0,0,1-.008.014l-17.272,10.5a.016.016,0,0,1-.025-.014v-20.6a.016.016,0,0,1,.008-.014l17.272-10.183A.016.016,0,0,1,984.145,244.232Z" transform="translate(-949.3 -234.003)" fill="none" stroke="#1a1311" stroke-miterlimit="10" stroke-width="1"/>
          </g>
          <g id="组_21545" data-name="组 21545" transform="translate(106.388 30.326)">
            <path id="路径_37954" data-name="路径 37954" d="M1122.707,322.906l-17.665,10.223a.017.017,0,0,0,0,.028L1122.55,343.3a.017.017,0,0,0,.017,0l17.273-10.183a.016.016,0,0,0,0-.028l-17.116-10.183A.017.017,0,0,0,1122.707,322.906Z" transform="translate(-1105.018 -322.904)" fill="none" stroke="#1a1311" stroke-miterlimit="10" stroke-width="1"/>
            <path id="路径_37955" data-name="路径 37955" d="M1104.971,383.306V362.979a.016.016,0,0,1,.025-.014l17.508,10.144a.016.016,0,0,1,.008.014v20.6a.017.017,0,0,1-.025.014l-17.508-10.419A.016.016,0,0,1,1104.971,383.306Z" transform="translate(-1104.971 -352.711)" fill="none" stroke="#1a1311" stroke-miterlimit="10" stroke-width="1"/>
            <path id="路径_37956" data-name="路径 37956" d="M1190.819,362.826v20.289a.017.017,0,0,1-.008.014l-17.272,10.5a.016.016,0,0,1-.025-.014v-20.6a.016.016,0,0,1,.008-.014l17.272-10.183A.016.016,0,0,1,1190.819,362.826Z" transform="translate(-1155.974 -352.598)" fill="none" stroke="#1a1311" stroke-miterlimit="10" stroke-width="1"/>
          </g>
          <g id="组_21546" data-name="组 21546" transform="translate(159.453 60.89)">
            <path id="路径_37957" data-name="路径 37957" d="M1330.07,442.43,1312.4,452.653a.016.016,0,0,0,0,.028l17.508,10.144a.016.016,0,0,0,.016,0l17.273-10.184a.016.016,0,0,0,0-.028l-17.116-10.183A.016.016,0,0,0,1330.07,442.43Z" transform="translate(-1312.38 -442.428)" fill="none" stroke="#1a1311" stroke-miterlimit="10" stroke-width="1"/>
            <path id="路径_37958" data-name="路径 37958" d="M1312.333,502.831V482.5a.016.016,0,0,1,.025-.014l17.508,10.144a.016.016,0,0,1,.008.014v20.6a.016.016,0,0,1-.025.014l-17.508-10.418A.017.017,0,0,1,1312.333,502.831Z" transform="translate(-1312.333 -472.235)" fill="none" stroke="#1a1311" stroke-miterlimit="10" stroke-width="1"/>
            <path id="路径_37959" data-name="路径 37959" d="M1398.181,482.35v20.289a.016.016,0,0,1-.008.014l-17.272,10.5a.016.016,0,0,1-.025-.014v-20.6a.017.017,0,0,1,.008-.014l17.272-10.183A.016.016,0,0,1,1398.181,482.35Z" transform="translate(-1363.336 -472.122)" fill="none" stroke="#1a1311" stroke-miterlimit="10" stroke-width="1"/>
          </g>
          <g id="组_21548" data-name="组 21548" transform="translate(106.388 91.913)">
            <path id="路径_37963" data-name="路径 37963" d="M1122.707,563.75l-17.665,10.223a.017.017,0,0,0,0,.028l17.508,10.144a.016.016,0,0,0,.017,0l17.273-10.184a.016.016,0,0,0,0-.028l-17.116-10.183A.016.016,0,0,0,1122.707,563.75Z" transform="translate(-1105.018 -563.748)" fill="none" stroke="#1a1311" stroke-miterlimit="10" stroke-width="1"/>
            <path id="路径_37964" data-name="路径 37964" d="M1104.971,624.151V603.823a.016.016,0,0,1,.025-.014l17.508,10.144a.017.017,0,0,1,.008.014v20.6a.016.016,0,0,1-.025.014l-17.508-10.418A.017.017,0,0,1,1104.971,624.151Z" transform="translate(-1104.971 -593.555)" fill="none" stroke="#1a1311" stroke-miterlimit="10" stroke-width="1"/>
            <path id="路径_37965" data-name="路径 37965" d="M1190.819,603.67v20.289a.016.016,0,0,1-.008.014l-17.272,10.5a.016.016,0,0,1-.025-.014v-20.6a.017.017,0,0,1,.008-.014l17.272-10.183A.016.016,0,0,1,1190.819,603.67Z" transform="translate(-1155.974 -593.442)" fill="none" stroke="#1a1311" stroke-miterlimit="10" stroke-width="1"/>
          </g>
          <g id="组_21549" data-name="组 21549" transform="translate(0 30.602)">
            <path id="路径_37966" data-name="路径 37966" d="M706.973,323.986l-17.665,10.223a.017.017,0,0,0,0,.028l17.508,10.144a.017.017,0,0,0,.017,0L724.106,334.2a.016.016,0,0,0,0-.028L706.99,323.986A.017.017,0,0,0,706.973,323.986Z" transform="translate(-689.284 -323.984)" fill="none" stroke="#1a1311" stroke-miterlimit="10" stroke-width="1"/>
            <path id="路径_37967" data-name="路径 37967" d="M689.237,384.386V364.058a.016.016,0,0,1,.025-.014l17.508,10.144a.016.016,0,0,1,.008.014v20.6a.017.017,0,0,1-.025.014L689.245,384.4A.016.016,0,0,1,689.237,384.386Z" transform="translate(-689.237 -353.791)" fill="none" stroke="#1a1311" stroke-miterlimit="10" stroke-width="1"/>
            <path id="路径_37968" data-name="路径 37968" d="M775.085,363.906v20.289a.017.017,0,0,1-.008.014l-17.272,10.5a.016.016,0,0,1-.025-.014v-20.6a.016.016,0,0,1,.008-.014l17.272-10.183A.016.016,0,0,1,775.085,363.906Z" transform="translate(-740.24 -353.678)" fill="none" stroke="#1a1311" stroke-miterlimit="10" stroke-width="1"/>
          </g>
          <g id="组_21550" data-name="组 21550" transform="translate(0 92.028)">
            <path id="路径_37969" data-name="路径 37969" d="M706.973,564.2l-17.665,10.223a.017.017,0,0,0,0,.028L706.816,584.6a.017.017,0,0,0,.017,0l17.273-10.184a.016.016,0,0,0,0-.028L706.99,564.2A.016.016,0,0,0,706.973,564.2Z" transform="translate(-689.284 -564.199)" fill="none" stroke="#1a1311" stroke-miterlimit="10" stroke-width="1"/>
            <path id="路径_37970" data-name="路径 37970" d="M689.237,624.6V604.274a.016.016,0,0,1,.025-.014L706.769,614.4a.017.017,0,0,1,.008.014v20.6a.017.017,0,0,1-.025.014l-17.508-10.418A.016.016,0,0,1,689.237,624.6Z" transform="translate(-689.237 -594.006)" fill="none" stroke="#1a1311" stroke-miterlimit="10" stroke-width="1"/>
            <path id="路径_37971" data-name="路径 37971" d="M775.085,604.122V624.41a.016.016,0,0,1-.008.014l-17.272,10.5a.016.016,0,0,1-.025-.014V614.3a.017.017,0,0,1,.008-.014l17.272-10.183A.017.017,0,0,1,775.085,604.122Z" transform="translate(-740.24 -593.893)" fill="none" stroke="#1a1311" stroke-miterlimit="10" stroke-width="1"/>
          </g>
          <g id="组_21551" data-name="组 21551" transform="translate(53.499 122.836)">
            <path id="路径_37972" data-name="路径 37972" d="M916.033,684.678,898.369,694.9a.016.016,0,0,0,0,.028l17.508,10.144a.017.017,0,0,0,.017,0l17.273-10.184a.016.016,0,0,0,0-.028L916.05,684.678A.016.016,0,0,0,916.033,684.678Z" transform="translate(-898.344 -684.676)" fill="none" stroke="#1a1311" stroke-miterlimit="10" stroke-width="1"/>
            <path id="路径_37973" data-name="路径 37973" d="M898.3,745.079V724.751a.016.016,0,0,1,.025-.014l17.508,10.144a.016.016,0,0,1,.008.014v20.6a.017.017,0,0,1-.025.014L898.3,745.093A.017.017,0,0,1,898.3,745.079Z" transform="translate(-898.297 -714.483)" fill="none" stroke="#1a1311" stroke-miterlimit="10" stroke-width="1"/>
            <path id="路径_37974" data-name="路径 37974" d="M984.145,724.6v20.289a.016.016,0,0,1-.008.014l-17.272,10.5a.016.016,0,0,1-.025-.014v-20.6a.017.017,0,0,1,.008-.014l17.272-10.183A.017.017,0,0,1,984.145,724.6Z" transform="translate(-949.3 -714.37)" fill="none" stroke="#1a1311" stroke-miterlimit="10" stroke-width="1"/>
          </g>
          <path id="路径_39447" data-name="路径 39447" d="M0,13.19,24.041,0" transform="translate(34.821 27.633)" fill="none" stroke="#0080f4" stroke-width="1"/>
          <line id="直线_371" data-name="直线 371" y1="14.104" x2="24.194" transform="translate(141.207 88.086)" fill="none" stroke="#ef54a1" stroke-miterlimit="10" stroke-width="1"/>
          <line id="直线_372" data-name="直线 372" y1="14.051" x2="23.714" transform="translate(88.329 119.177)" fill="none" stroke="#0080f4" stroke-miterlimit="10" stroke-width="1"/>
          <line id="直线_373" data-name="直线 373" x1="22.769" y1="12.793" transform="translate(83.857 28.03)" fill="none" stroke="#ef54a1" stroke-miterlimit="10" stroke-width="1"/>
          <line id="直线_374" data-name="直线 374" x1="23.13" y1="13.139" transform="translate(30.748 120.174)" fill="none" stroke="#ef54a1" stroke-miterlimit="10" stroke-width="1"/>
          <line id="直线_376" data-name="直线 376" x1="23.403" y1="13.11" transform="translate(136.297 58.158)" fill="none" stroke="#0080f4" stroke-miterlimit="10" stroke-width="1"/>
        </g>
        <path id="路径_37942" data-name="路径 37942" d="M516.172,210.817h0a.016.016,0,0,0,0-.028l-17.116-10.183a.016.016,0,0,0-.017,0l-17.665,10.223a.067.067,0,0,0-.025.043V231.2a.017.017,0,0,0,.008.014l17.508,10.418a.016.016,0,0,0,.025-.014h0a.016.016,0,0,0,.025.014l17.272-10.5a.016.016,0,0,0,.008-.014V210.832A.016.016,0,0,0,516.172,210.817Z" transform="translate(-477.532 -196.16)" fill="none" stroke="#1a1311" stroke-miterlimit="10" stroke-width="1" stroke-dasharray="2 2"/>
        <path id="路径_37943" data-name="路径 37943" d="M508.968,195.667h0a.02.02,0,0,0,0-.034l-20.823-12.389a.02.02,0,0,0-.02,0L466.636,195.68a.081.081,0,0,0-.03.052v24.731a.02.02,0,0,0,.01.017c21.313,12.683,21.33,12.673,21.33,12.658,0,0,1.552-.908,21.043-12.753a.019.019,0,0,0,.01-.017V195.684A.02.02,0,0,0,508.968,195.667Z" transform="translate(-466.56 -183.241)" fill="none" stroke="#1a1311" stroke-miterlimit="10" stroke-width="1"/>
        <path id="路径_37944" data-name="路径 37944" d="M1339.95,197.79h0a.02.02,0,0,0,0-.034l-20.823-12.389a.02.02,0,0,0-.02,0L1297.618,197.8a.081.081,0,0,0-.03.052v24.731a.02.02,0,0,0,.01.017l21.3,12.675a.02.02,0,0,0,.03-.017h0a.02.02,0,0,0,.03.017l21.013-12.77a.02.02,0,0,0,.01-.017V197.807A.02.02,0,0,0,1339.95,197.79Z" transform="translate(-1085.211 -184.82)" fill="none" stroke="#1a1311" stroke-miterlimit="10" stroke-width="1"/>
        <path id="路径_37945" data-name="路径 37945" d="M1339.951,682.459l-20.823-12.389a.02.02,0,0,0-.02,0l-21.491,12.437a.081.081,0,0,0-.03.052v24.731a.02.02,0,0,0,.01.017l21.3,12.675a.02.02,0,0,0,.03-.017h0a.02.02,0,0,0,.03.017l21.013-12.77a.02.02,0,0,0,.01-.017V682.511A.082.082,0,0,0,1339.951,682.459Z" transform="translate(-1085.211 -545.589)" fill="none" stroke="#1a1311" stroke-miterlimit="10" stroke-width="1"/>
        <path id="路径_37946" data-name="路径 37946" d="M508.792,679.864l-20.823-12.389a.02.02,0,0,0-.02,0l-21.491,12.437a.081.081,0,0,0-.03.052v24.731a.02.02,0,0,0,.01.017l21.3,12.675a.02.02,0,0,0,.03-.017h0a.02.02,0,0,0,.03.017l21.013-12.77a.019.019,0,0,0,.01-.017V679.916A.081.081,0,0,0,508.792,679.864Z" transform="translate(-466.428 -543.658)" fill="none" stroke="#1a1311" stroke-miterlimit="10" stroke-width="1"/>
        <path id="路径_37947" data-name="路径 37947" d="M1347.156,212.912l-17.116-10.183a.016.016,0,0,0-.017,0l-17.665,10.223a.067.067,0,0,0-.025.043v20.328a.017.017,0,0,0,.008.014l17.508,10.418a.016.016,0,0,0,.025-.014h0a.016.016,0,0,0,.025.014l17.272-10.5a.016.016,0,0,0,.008-.014V212.954A.067.067,0,0,0,1347.156,212.912Z" transform="translate(-1096.184 -197.74)" fill="none" stroke="#1a1311" stroke-miterlimit="10" stroke-width="1" stroke-dasharray="2 2"/>
        <path id="路径_37948" data-name="路径 37948" d="M1347.156,693.96l-17.116-10.183a.017.017,0,0,0-.017,0L1312.359,694a.066.066,0,0,0-.025.043v20.328a.017.017,0,0,0,.008.014L1329.85,724.8a.016.016,0,0,0,.025-.014h0a.016.016,0,0,0,.025.014l17.272-10.5a.016.016,0,0,0,.008-.014V694A.067.067,0,0,0,1347.156,693.96Z" transform="translate(-1096.184 -555.787)" fill="none" stroke="#1a1311" stroke-miterlimit="10" stroke-width="1" stroke-dasharray="2 2"/>
        <path id="路径_37949" data-name="路径 37949" d="M516,695.021,498.88,684.837a.016.016,0,0,0-.017,0L481.2,695.06a.067.067,0,0,0-.025.043v20.328a.016.016,0,0,0,.008.014l17.508,10.418a.016.016,0,0,0,.025-.014h0a.016.016,0,0,0,.025.014l17.272-10.5a.016.016,0,0,0,.008-.014V695.064A.067.067,0,0,0,516,695.021Z" transform="translate(-477.401 -556.577)" fill="none" stroke="#1a1311" stroke-miterlimit="10" stroke-width="1" stroke-dasharray="2 2"/>
        <path id="路径_37950" data-name="路径 37950" d="M933.119,454.023h0c.011-.006-.522-.492-.533-.5L916,443.811a.016.016,0,0,0-.017,0l-17.665,10.223a.066.066,0,0,0-.025.043V474.4a.017.017,0,0,0,.008.014l17.508,10.418a.016.016,0,0,0,.025-.014h0a.016.016,0,0,0,.025.014l17.272-10.5a.016.016,0,0,0,.008-.014l-.024-19.911C933.12,454.4,933.13,454.017,933.119,454.023Z" transform="translate(-787.942 -377.18)" fill="none" stroke="#0080f4" stroke-miterlimit="10" stroke-width="1" stroke-dasharray="2 2"/>
        <line id="直线_385" data-name="直线 385" y1="19.95" transform="translate(127.89 46.874)" fill="none" stroke="#1a1311" stroke-linecap="round" stroke-miterlimit="10" stroke-width="1" stroke-dasharray="11 8"/>
        <line id="直线_386" data-name="直线 386" y1="19.111" transform="translate(127.89 107.749)" fill="none" stroke="#1a1311" stroke-linecap="round" stroke-miterlimit="10" stroke-width="1" stroke-dasharray="11 8"/>
        <line id="直线_387" data-name="直线 387" y1="7.701" x2="13.522" transform="translate(198.911 37.743)" fill="none" stroke="#1a1311" stroke-linecap="round" stroke-miterlimit="10" stroke-width="1" stroke-dasharray="11 8"/>
        <line id="直线_388" data-name="直线 388" y1="7.736" x2="13.546" transform="translate(42.337 128.546)" fill="none" stroke="#1a1311" stroke-linecap="round" stroke-miterlimit="10" stroke-width="1" stroke-dasharray="11 8"/>
        <line id="直线_389" data-name="直线 389" x1="13.176" y1="7.763" transform="translate(42.372 37.121)" fill="none" stroke="#1a1311" stroke-linecap="round" stroke-miterlimit="10" stroke-width="1" stroke-dasharray="11 8"/>
        <line id="直线_390" data-name="直线 390" x1="13.537" y1="8.719" transform="translate(198.895 128.274)" fill="none" stroke="#1a1311" stroke-linecap="round" stroke-miterlimit="10" stroke-width="1" stroke-dasharray="11 8"/>
        <g id="组_21562" data-name="组 21562" transform="translate(11.37 13.972)">
          <path id="路径_38015" data-name="路径 38015" d="M530.068,258.107a4.619,4.619,0,0,0-.316-.77c-.062-.129-.126-.262-.182-.394a3.152,3.152,0,0,1,.213-.63c.027-.065.054-.13.08-.195.1-.245.172-.487.067-.6-.075-.082-.223-.088-.465-.018l-.328.094c-.2.057-.4.113-.594.172a3.324,3.324,0,0,0-3.018-.692c.036-.064.07-.13.1-.194a1.831,1.831,0,0,1,.313-.482l.017-.01a5.452,5.452,0,0,0,1.487-1.081,3.413,3.413,0,0,0,.189-3.1c-.015-.046-.034-.092-.052-.138a.636.636,0,0,1-.065-.464,11.184,11.184,0,0,0,.379-2.966,7,7,0,0,0-.554-3.348,5.3,5.3,0,0,0,.358-1.8c-.013-.446-.068-.642-.188-.678s-.246.077-.444.357a3.935,3.935,0,0,1-.627.7l-.04-.04a9.447,9.447,0,0,0-1.064-.969c0-.091.007-.185.015-.285a1,1,0,0,0-.158-.809,6.819,6.819,0,0,0-5.21-1.9,6.027,6.027,0,0,0-3.163,1.463l0,0a1.438,1.438,0,0,0-.258,1.135,4.085,4.085,0,0,1,.005.413,5.673,5.673,0,0,0-1.242,1.1,1.569,1.569,0,0,1-.509-.684c-.174-.39-.254-.525-.344-.517s-.153.2-.261.715a3.466,3.466,0,0,0,.212,2.055,15.349,15.349,0,0,0-.69,4.282,4.334,4.334,0,0,0-2.235,4.192,1.227,1.227,0,0,0-.564,1.442,1.356,1.356,0,0,0,1.22,1.033,1.573,1.573,0,0,0,1.263-1.106,1.076,1.076,0,0,0-.035-.584.856.856,0,0,1,0-.622,1.985,1.985,0,0,1,.684-1c.1.337.182.682.264,1.018a12.113,12.113,0,0,0,.736,2.31,14.61,14.61,0,0,0,1.671,3.118l.145.19a7.655,7.655,0,0,0,2.139,2.145,3.809,3.809,0,0,0,.734.221c.107.025.219.05.334.08.112.009.224.02.336.032a6.6,6.6,0,0,0,.681.047,2.66,2.66,0,0,0,.326-.019,7.63,7.63,0,0,0,3.51-1.431l.266-.173a4.089,4.089,0,0,1,2.149-.888h.01a2.572,2.572,0,0,1,1.141.367,2.636,2.636,0,0,0,1.17.376.421.421,0,0,0,.346-.168A.328.328,0,0,0,530.068,258.107Zm-18.111-6.28h-.042a3.778,3.778,0,0,1,1.838-3.33q.014.192.026.383a12.883,12.883,0,0,0,.161,1.524c.063.141-.039.222-.19.32l-.037.025a1.99,1.99,0,0,0-.825,1.251A2.51,2.51,0,0,0,511.957,251.827Zm1.06,1.367,0,.007c-.088.157-.176.315-.262.474-.252.182-.6.426-.92.208-.3-.111-.4-.419-.5-.716l-.015-.047a.954.954,0,0,1,.826-.792C512.679,252.244,512.948,252.849,513.017,253.194Zm8.956-12.561,0-.128c.007-.2.015-.4.024-.6a5.271,5.271,0,0,1,.561.411c.1.077.2.156.3.231l-.143.027A2.087,2.087,0,0,1,521.973,240.634Zm.152-2.01a5.245,5.245,0,0,1,2.462,1.463l-.3.167c-.49-.375-1.017-.714-1.527-1.042-.209-.134-.417-.268-.624-.405Zm-.083.9c.008-.1.019-.26.027-.374.127.088.257.175.387.262a8.461,8.461,0,0,1,1.294.993l-.138,0-.215.006a8.755,8.755,0,0,1-.755-.49C522.448,239.791,522.248,239.651,522.041,239.526Zm-7.055,3c-.106.168-.216.341-.333.505a6.519,6.519,0,0,1-.077-.961q0-.089-.006-.177a4.879,4.879,0,0,0,.505.493Zm9.89-1.7c-.038.159-.076.319-.116.478a2.969,2.969,0,0,1-1.124.336,10.083,10.083,0,0,1-6.221-.439,1.15,1.15,0,0,1-.478-1.179,5.094,5.094,0,0,0,1.728.782,10,10,0,0,0,6.312-.393C524.942,240.551,524.91,240.69,524.877,240.829Zm-6.066,1.332.227.056a9.783,9.783,0,0,0,4.627-.035c.122-.033.253-.058.379-.084a1.726,1.726,0,0,0,1.2-.588c.23.241.451.488.657.722l-.233.113-.005.014a1.183,1.183,0,0,0,.26,1.317,1.15,1.15,0,0,0,1.031.122,3.4,3.4,0,0,1,.3,1.3,8.958,8.958,0,0,1-.24,3.869c-.021.084-.047.167-.072.251a2.416,2.416,0,0,0-.13.633v.008l0,.007c.045.109.092.218.14.327a3.117,3.117,0,0,1,.386,1.584,2.3,2.3,0,0,1-.7,1.585,6.34,6.34,0,0,1-3.392,1.107,1.81,1.81,0,0,0-.1-1.089c.091-.044.186-.088.283-.134.75-.348,1.6-.743,1.669-1.642l.005-.067-.06.029a1.872,1.872,0,0,0-.5.411,1.894,1.894,0,0,1-.467.388,4.146,4.146,0,0,1-1.37.469,1.282,1.282,0,0,1-.473-.067.972.972,0,0,0-.67-.021,1.3,1.3,0,0,0-.916,1.216,1.227,1.227,0,0,0,.707,1.278,1.368,1.368,0,0,0,1.688-.362,7.185,7.185,0,0,0,1.931-.218,2.806,2.806,0,0,0-.259,1.06v.037l.037,0a2.75,2.75,0,0,0,.812-.124,2.349,2.349,0,0,1,.9-.112,3.253,3.253,0,0,1,1.728.752l.016.014.02-.006c.219-.063.439-.132.653-.2.18-.056.36-.112.541-.165a3.184,3.184,0,0,1-.172.417c-.178.381-.361.775-.1,1.16.059.121.124.242.187.36l.066.124a3.059,3.059,0,0,1-.742-.329,2.322,2.322,0,0,0-1.036-.373,3.916,3.916,0,0,0-2.5.761c-.151.093-.3.187-.453.283a7.718,7.718,0,0,1-3.236,1.4,2.975,2.975,0,0,1-2.23-.436,11.024,11.024,0,0,1-3.349-4.608,20.8,20.8,0,0,1-1.471-5.724,12.805,12.805,0,0,1,.66-5.245h0a5.3,5.3,0,0,1,1.87-2.32A4.689,4.689,0,0,0,518.81,242.161Zm8.409-.266a2.536,2.536,0,0,1-.665,1.616.932.932,0,0,1-.6-.809,3.418,3.418,0,0,0,1.308-1.042C527.245,241.737,527.232,241.816,527.22,241.895Zm-4.829,12.88-.009,0c-.325.209-.723.141-1.185-.2a1.324,1.324,0,0,1,.407-1.357,1.231,1.231,0,0,1,1.237.564A.834.834,0,0,1,522.391,254.775Zm-2.48-14.209c.017-.17.031-.343.044-.511a6.413,6.413,0,0,1,.309-1.779,6.587,6.587,0,0,1,1.341.162l.108.02a11.513,11.513,0,0,0-.226,2.221A14.756,14.756,0,0,1,519.911,240.566Zm-1.116-1.9a5.778,5.778,0,0,1,.938-.3c-.065.184-.129.368-.193.552l-.017.048C519.265,238.852,519.007,238.749,518.795,238.666Zm-1,.538.073-.042a3.257,3.257,0,0,1,.5-.248,3.1,3.1,0,0,1,1.1.448c-.035.181-.068.375-.1.617A12.493,12.493,0,0,0,517.795,239.2Zm-.593.521.028-.031c.087-.094.175-.189.264-.281.2.11.411.211.615.309a5.4,5.4,0,0,1,1.278.763A4.562,4.562,0,0,1,517.2,239.726Z" transform="translate(-510.861 -237.842)" fill="#ef54a1"/>
          <path id="路径_38016" data-name="路径 38016" d="M547.59,268.918a1.245,1.245,0,0,0,.393.061,3.032,3.032,0,0,0,.789-.143c.122-.034.249-.069.375-.095l.173-.047a1.419,1.419,0,0,0,.881-.473,7.208,7.208,0,0,0,.4-1.2,6.219,6.219,0,0,1,.48-1.344l.041-.076-.083.02a5.582,5.582,0,0,0-1.54.716c-.194.115-.394.234-.595.341h0a7.018,7.018,0,0,1-.781.343c-.155.06-.314.123-.469.191l-.022.01v.024c-.006.208-.02.418-.034.622-.022.331-.045.674-.036,1.014v.027Zm.394-.349c.018-.323.035-.664.035-1.01a8.918,8.918,0,0,0,2.227-1.076c-.168.493-.3,1-.426,1.5l-.016.062C549.2,268.233,548.583,268.4,547.983,268.569Z" transform="translate(-538.17 -258.499)" fill="#ef54a1"/>
          <path id="路径_38017" data-name="路径 38017" d="M527.709,266.974l-.064-.006.026.059a2.317,2.317,0,0,0,.257.444l.028.235a11.942,11.942,0,0,0,.212,1.372.447.447,0,0,0,.363.382,13.664,13.664,0,0,0,2.036.564.413.413,0,0,0,.108.013.475.475,0,0,0,.32-.112.2.2,0,0,0,.058-.206,6.878,6.878,0,0,0-.212-.747c-.055-.169-.112-.344-.158-.518l0-.015-.014-.008c-.342-.2-.7-.38-1.051-.554-.4-.2-.819-.407-1.207-.648A1.536,1.536,0,0,0,527.709,266.974Zm2.746,2.513-.344-.093c-.489-.132-.995-.269-1.488-.417-.036-.166-.069-.332-.1-.5-.049-.243-.1-.494-.158-.74a11.513,11.513,0,0,0,1.81.951,3,3,0,0,1,.2.532C530.4,269.31,530.425,269.4,530.456,269.488Z" transform="translate(-523.35 -259.514)" fill="#ef54a1"/>
        </g>
        <g id="组_21563" data-name="组 21563" transform="translate(9.569 138.443)">
          <path id="路径_38047" data-name="路径 38047" d="M526.9,733.844a.481.481,0,0,0,.148-.549.979.979,0,0,0-.637-.4c-.054-.017-.107-.033-.158-.052-.013-.575-.042-1.135-.089-1.663-.037-.479-.04-.97-.042-1.445a15.726,15.726,0,0,0-.085-1.871c-.024-.193-.047-.321-.136-.36s-.2.025-.432.192a3.192,3.192,0,0,0-.979,1.354,9.2,9.2,0,0,0-.082,2.549c.027.442.055.9.047,1.347a1.271,1.271,0,0,0-.826.42.454.454,0,0,0-.031.4c.1.332.456.309.683.265a4.717,4.717,0,0,1-1.25,1.358,2.8,2.8,0,0,0-1.155-.821c-.007-.148-.013-.3-.019-.446a16.867,16.867,0,0,0-.2-2.329,1.34,1.34,0,0,0,.232-.34,1.068,1.068,0,0,1,.254-.351,4.03,4.03,0,0,0,1.28-4.141c-.093-.374-.3-.623-.516-.621-.164,0-.289.151-.344.4a3.536,3.536,0,0,1-1.311,2.027.724.724,0,0,0-.842-.133,15.713,15.713,0,0,0-2.156-2.637l-.058-.061a4.506,4.506,0,0,0-2.426-1.3h-.013a5.9,5.9,0,0,0-2.55,1.333c-.167.125-.332.25-.5.369l0,0a14.247,14.247,0,0,0-2.295,2.4.809.809,0,0,0-.717-.131,2.915,2.915,0,0,1-1.133-2.039c-.026-.43-.115-.66-.274-.7s-.367.125-.622.514a3.263,3.263,0,0,0,.531,4.029,2.985,2.985,0,0,0,.669.524,3.665,3.665,0,0,1,.54.394,16.639,16.639,0,0,0-.265,2.773,7.878,7.878,0,0,0,.177,1.523c.056.3.113.616.146.926q-.032.081-.065.162a4.535,4.535,0,0,0-.2.573c-.13-.13-.257-.272-.38-.41a3.158,3.158,0,0,0-1.423-1.086,2.58,2.58,0,0,0-2.289.452,4.379,4.379,0,0,0-.987,1.716,6.855,6.855,0,0,0,.007,4.027,4.83,4.83,0,0,0,2.421,3.172,2.433,2.433,0,0,0,.8.142,1.681,1.681,0,0,0,.909-.246,3.1,3.1,0,0,0,1.406-1.482,5.924,5.924,0,0,0,.554-2.422l0-.034.225-.052c.151-.033.305-.068.457-.112a5.445,5.445,0,0,0,1.059,1.761,4.354,4.354,0,0,0,2.992,1.662A5.864,5.864,0,0,0,518.7,743.3a3.131,3.131,0,0,1,2.6-.523,3.249,3.249,0,0,1,1.1.417,3.666,3.666,0,0,0,1.01.409,2.942,2.942,0,0,0,.991.017l.1-.009a2.99,2.99,0,0,1,.233.241,2.84,2.84,0,0,0,.266.271c.176.149.273.213.351.178s.086-.136.088-.339c0-.185-.013-.366-.032-.564l.211-.06a5.47,5.47,0,0,0,1.044-.373c.24-.125.343-.189.332-.275s-.1-.118-.383-.178a3.729,3.729,0,0,0-.627-.06,4.545,4.545,0,0,1-.5-.037,3.17,3.17,0,0,1-.049-.344c-.008-.071-.015-.143-.025-.214-.027-.181-.07-.371-.195-.4-.1-.027-.206.043-.349.219a2.257,2.257,0,0,0-.172.254c-.143.233-.279.454-.558.455a2.045,2.045,0,0,1-1.572-.749,3.643,3.643,0,0,0-2.2-1.389,15.6,15.6,0,0,0,1.178-3.286,4.329,4.329,0,0,0,.811.153,2.678,2.678,0,0,0,1.963-.8c.1-.074.193-.147.289-.216a.8.8,0,0,0,.909.429c.594-.1.622-.388.618-.851,0-.1,0-.2-.008-.305-.006-.17-.012-.346-.005-.518a.909.909,0,0,0,.254-.968l.109.007A.9.9,0,0,0,526.9,733.844Zm-2.073-4.525v0a2.155,2.155,0,0,1,.778-1.2l.1-.1q.008.545.011,1.091c.01,1.209.02,2.459.125,3.686-.234.007-.471.02-.7.032l-.26.014c-.008-.379-.037-.764-.064-1.137A10.3,10.3,0,0,1,524.829,729.319Zm1.851,4.182a2.8,2.8,0,0,1-.694-.069,1.8,1.8,0,0,0-1.09.022,2.16,2.16,0,0,0-.333.1.807.807,0,0,1-.7.055,2.194,2.194,0,0,1,1.653-.415c.082,0,.163,0,.232,0,.073.015.153.025.235.036A1.018,1.018,0,0,1,526.68,733.5Zm-1.92.547a1.033,1.033,0,0,1,.948-.275l.059.071c.17.2.29.368.172.536a11.456,11.456,0,0,0-.932.825,5.946,5.946,0,0,1-1.87,1.365,2.73,2.73,0,0,1-1.414.058l-.1-.013a16.108,16.108,0,0,0,.241-1.668,4.891,4.891,0,0,1,.784.639c.123.116.251.235.383.346l.058.049.023-.072a.985.985,0,0,1,.411-.462,1.975,1.975,0,0,0,.279-.234,4.269,4.269,0,0,0,.622-.729c.107-.146.217-.3.336-.436Zm-15.348-5.117a3.257,3.257,0,0,0-.5,1.493,2.906,2.906,0,0,1-1.3-2.427,3.136,3.136,0,0,1,.589-1.672A3.233,3.233,0,0,0,509.413,728.931Zm5.167-3c-.16-.015-.32-.031-.478-.044l.223-.137a3.777,3.777,0,0,1,1.444-.641,3.341,3.341,0,0,1,1.457.64l.091.058A6.455,6.455,0,0,1,514.579,725.931Zm5.061,14.51-.037.061.07.015c.109.024.221.045.333.065a2.984,2.984,0,0,1,1.213.413,4.259,4.259,0,0,1,.761.686,3.964,3.964,0,0,0,.865.754,2.135,2.135,0,0,0,1.73.247l.015,0,.01-.013c.15-.188.293-.381.42-.554.029.193.058.367.086.527l.006.033.033.008a7.408,7.408,0,0,0,.823.137,2.881,2.881,0,0,1-.4.125,2.273,2.273,0,0,0-.531.188l-.023.013,0,.026c-.017.13-.028.263-.036.4l-.017-.018a1.175,1.175,0,0,0-.373-.316l-.019,0c-.139-.005-.28,0-.416.008a2.984,2.984,0,0,1-.622-.014,5.917,5.917,0,0,1-1.433-.6l-.221-.116a3.3,3.3,0,0,0-2.611-.052,11.135,11.135,0,0,0-1.022.535,5.649,5.649,0,0,1-2.024.826,3.677,3.677,0,0,1-2.82-.435,6,6,0,0,1-2.2-2.7,1.313,1.313,0,0,0,.316-1.344,1.133,1.133,0,0,0-.908-.829,14.34,14.34,0,0,1-.886-3.237,9.09,9.09,0,0,1,.195-4.023,11.839,11.839,0,0,0,3.135.529,24.434,24.434,0,0,0,7.345-.087,2.563,2.563,0,0,0,.814.224,12.241,12.241,0,0,1-.107,4.625A13.782,13.782,0,0,1,519.641,740.44Zm-9.519-1.9-.273.019a1.8,1.8,0,0,1-.157-1.2l.057.17C509.861,737.856,509.976,738.2,510.122,738.536Zm9.009-9.383c-.242-.382-.473-.779-.7-1.164s-.456-.782-.7-1.166c.155-.062.31-.127.463-.192a12.242,12.242,0,0,1,1.879,2.4A8.511,8.511,0,0,1,519.13,729.152Zm-6.695-.531c.429-.528.872-1.073,1.357-1.567l.062.01.582.092c-.2.344-.367.708-.53,1.061-.15.324-.3.66-.482.977l-.132-.008c-.4-.025-.819-.051-1.225-.114Q512.253,728.847,512.436,728.621Zm4.974.642c-.081-.359-.154-.725-.225-1.08-.074-.371-.15-.754-.236-1.13.157-.041.313-.085.47-.131.185.377.394.748.6,1.108s.428.76.619,1.153A9.539,9.539,0,0,1,517.41,729.263Zm-1.924-1.32a11.378,11.378,0,0,0-.239,1.344c-.328-.018-.659-.023-.981-.028l-.388-.007c.183-.431.374-.865.56-1.287q.167-.378.332-.758c.257,0,.536,0,.869,0C515.593,727.451,515.538,727.7,515.485,727.943Zm.182,1.361c.025-.361.086-.723.146-1.074s.117-.689.144-1.04c.072-.006.145-.017.216-.028a1.359,1.359,0,0,1,.429-.021q.041.249.082.5c.089.54.18,1.1.286,1.645A8.1,8.1,0,0,1,515.667,729.3Zm-2.2-2.34a11.638,11.638,0,0,0-1.225,1.323c-.2.239-.406.487-.618.72a1.286,1.286,0,0,1-.716-.071l-.15-.042a18.631,18.631,0,0,1,2.142-2.118C513.075,726.841,513.265,726.9,513.463,726.964Zm4.444,2.752a13.993,13.993,0,0,0,1.967-.185,2.3,2.3,0,0,0,.17,1.754,24.412,24.412,0,0,1-4.38.213,12.289,12.289,0,0,1-1.99-.116c-.418-.047-.85-.1-1.274-.116l-.208-.023a8.6,8.6,0,0,1-2.208-.439l0-.037a3.79,3.79,0,0,1,.375-1.566,7.691,7.691,0,0,0,1.974.355c.235.022.478.044.715.073a13.8,13.8,0,0,0,1.774.087A16.008,16.008,0,0,0,517.907,729.716Zm-6.956,9.536a.846.846,0,0,1,.02.883.9.9,0,0,1-.738.487,10.448,10.448,0,0,0-.225-1.674C510.353,738.928,510.77,738.912,510.952,739.252Zm9.306-8.687,0-.007a1.9,1.9,0,0,1,.359-1.61l.29.013a3.5,3.5,0,0,1-.082.588,2.04,2.04,0,0,0-.023,1.043,1.152,1.152,0,0,0,.617.65l.065.04a1.936,1.936,0,0,1-.4.228A1.524,1.524,0,0,1,520.257,730.566Zm-2.322-4.231a7.192,7.192,0,0,1-4.63.136l.278-.2a7.331,7.331,0,0,0,4.117-.135Zm-8.512,3.538.006-.017c.113-.347.265-.812.647-.895a4.947,4.947,0,0,0-.522,1.892C509.28,730.647,509.328,730.213,509.423,729.873Zm11.843-.485c.016-.076.032-.152.046-.229a3.5,3.5,0,0,0,1.649-2.334,3.75,3.75,0,0,1-1.245,4.074c-.048-.032-.1-.062-.151-.091-.161-.092-.312-.179-.359-.345A2.4,2.4,0,0,1,521.266,729.389ZM508.9,741.568a4.064,4.064,0,0,1-1.119,3.1.774.774,0,0,1-.689.157l-.1-.007c.281-.528.6-1.045.91-1.546C508.25,742.723,508.6,742.155,508.9,741.568Zm-2.909-4.889a8.456,8.456,0,0,0-.6,1.061c-.116.257-.236.512-.357.767-.274.581-.556,1.178-.779,1.8a5.942,5.942,0,0,1,.708-3.307,1.444,1.444,0,0,1,1.2-.576Q506.077,736.551,505.994,736.68Zm1.97,3.186c-.173.337-.351.683-.55,1.014a2.859,2.859,0,0,0-.556-1.611c.3-.525.575-1.083.853-1.7a5.228,5.228,0,0,1,.768,1.345C508.3,739.222,508.127,739.549,507.964,739.866Zm-2.483.1h0a1.713,1.713,0,0,1,.416-.857,1.9,1.9,0,0,1,1.1,1.919c.018.673-.153,1.048-.523,1.146-.285-.068-.447-.351-.589-.6-.019-.033-.038-.066-.054-.093A3.049,3.049,0,0,1,505.482,739.966ZM505.21,739v0l.176-.375a13.237,13.237,0,0,1,1.137-2.1,2.047,2.047,0,0,1,.949.736c-.141.268-.273.546-.4.814-.145.307-.295.623-.459.926-.242-.156-.718-.431-1.046-.086a2.259,2.259,0,0,0-.312,2.159c.031.108.063.219.088.328-.164.4-.365.8-.561,1.172a10.736,10.736,0,0,1-.446-1.532A17.917,17.917,0,0,1,505.21,739Zm.323,2.836c.218.355.49.758.944.771a7.89,7.89,0,0,0-.456.834c-.1.208-.209.423-.328.627a6.739,6.739,0,0,1-.617-.949l-.118-.2A8.307,8.307,0,0,0,505.532,741.834Zm.736,1.845c.115-.221.233-.448.363-.664.078-.132.168-.26.255-.385a4.1,4.1,0,0,0,.348-.556v0c.278-.625.614-1.234.939-1.823.156-.283.318-.575.471-.867a6.164,6.164,0,0,1,.246,1.385,4.776,4.776,0,0,1-.532,1.035c-.081.13-.161.26-.237.392-.216.384-.443.771-.663,1.145-.263.447-.534.909-.789,1.372-.216-.128-.444-.275-.711-.459C506.068,744.064,506.169,743.868,506.268,743.678Zm-.007-7.56h-.016a.023.023,0,0,1,.01,0Zm3.064,4.668a6.276,6.276,0,0,0-1.345-3.581,2.309,2.309,0,0,0-1.711-1.087h.007a1.954,1.954,0,0,1,1.314.226,4.167,4.167,0,0,1,.92.856c.1.116.209.237.313.346a5.375,5.375,0,0,1,.94,3.47,5.507,5.507,0,0,1-.618,2.547l-.077.131a2.143,2.143,0,0,1-.438.588A5.959,5.959,0,0,0,509.326,740.786Zm16.42-4.8-.036.016a.813.813,0,0,1-.539.106l-.01,0-.01,0a.148.148,0,0,1-.156-.095.245.245,0,0,1,.029-.27l0,0a6.266,6.266,0,0,1,.464-.451c.08-.072.162-.146.242-.222v.057C525.741,735.408,525.749,735.7,525.746,735.988Z" transform="translate(-503.821 -724.633)" fill="#0080f4"/>
          <path id="路径_38048" data-name="路径 38048" d="M531.544,760.288c-.446-.267-.887-.559-1.313-.842-.348-.23-.708-.468-1.069-.692l-.017-.011-.02,0c-.034.007-.139.028-.164.112-.03.1.081.208.179.3.022.021.042.041.058.058a1.937,1.937,0,0,0,.873,1.731,1.3,1.3,0,0,0,.779.248,1.449,1.449,0,0,0,.215-.016,1.327,1.327,0,0,0,.877-.51l.019-.042-.031-.031A1.637,1.637,0,0,0,531.544,760.288Zm-.237.363a1.036,1.036,0,0,1-.724.04,1.316,1.316,0,0,1-.762-.625,3.851,3.851,0,0,1-.205-.506c.32.228.656.437.983.64C530.832,760.345,531.074,760.495,531.307,760.651Z" transform="translate(-522.524 -750.014)" fill="#0080f4"/>
          <path id="路径_38049" data-name="路径 38049" d="M553.537,759.84c-.052.032-.1.063-.155.089l0,0c-.36.22-.745.409-1.117.592a12.938,12.938,0,0,0-1.21.649l-.038.024.018.041a1.131,1.131,0,0,0,.677.59,1.462,1.462,0,0,0,.478.08,1.333,1.333,0,0,0,.611-.143,1.933,1.933,0,0,0,1.081-1.679l.393-.33-.067-.036A.645.645,0,0,0,553.537,759.84Zm-.08.516a1.729,1.729,0,0,1-.955,1.05.878.878,0,0,1-.822-.119A15.461,15.461,0,0,0,553.457,760.356Z" transform="translate(-538.937 -750.7)" fill="#0080f4"/>
        </g>
        <g id="组_21564" data-name="组 21564" transform="translate(118.284 75.678)">
          <path id="路径_38050" data-name="路径 38050" d="M987.232,487.869a3.465,3.465,0,0,1-.768,2.216.922.922,0,0,1-.8-.945A3.309,3.309,0,0,0,987.232,487.869Z" transform="translate(-971.236 -485.643)" fill="#fff" fill-rule="evenodd"/>
          <path id="路径_38051" data-name="路径 38051" d="M936.643,489.189a9.109,9.109,0,0,0,.677.623c-.183.279-.35.567-.537.842A4.143,4.143,0,0,1,936.643,489.189Z" transform="translate(-934.754 -486.625)" fill="#fff" fill-rule="evenodd"/>
          <path id="路径_38052" data-name="路径 38052" d="M939.752,508.59a2.011,2.011,0,0,0,1.354,1.3c-.007.053-.021.16-.028.214-.246.07-.521.2-.76.035A1.519,1.519,0,0,1,939.752,508.59Z" transform="translate(-937.042 -501.061)" fill="#fff" fill-rule="evenodd"/>
          <path id="路径_38053" data-name="路径 38053" d="M959.478,510.421a1.979,1.979,0,0,0,1.368-1.3,1.452,1.452,0,0,1-.5,1.487.742.742,0,0,1-.811,0C959.524,510.56,959.493,510.467,959.478,510.421Z" transform="translate(-951.75 -501.459)" fill="#fff" fill-rule="evenodd"/>
          <path id="路径_38054" data-name="路径 38054" d="M931.418,527.893a6.414,6.414,0,0,1,.648-3.3c.144.79.285,1.582.5,2.355a8.9,8.9,0,0,0,.317,1.394c1.21-.167,1.549,1.771.537,2.253a1.2,1.2,0,0,1-1.4-1.362A2.609,2.609,0,0,1,931.418,527.893Z" transform="translate(-930.858 -512.968)" fill="#fff" fill-rule="evenodd"/>
          <path id="路径_38055" data-name="路径 38055" d="M965.4,538.215a1.075,1.075,0,0,1,1.561.943c-.007.563-.611.849-1.095.9a1.47,1.47,0,0,1-.772-.359A1.249,1.249,0,0,1,965.4,538.215Z" transform="translate(-955.832 -523.014)" fill="#fff" fill-rule="evenodd"/>
          <path id="路径_38056" data-name="路径 38056" d="M937.448,479.191a12.118,12.118,0,0,1,2.116.087c.639.168,1.284.326,1.908.551a8.034,8.034,0,0,1,2.8,2.026,3.194,3.194,0,0,0,.652-.642c.564-.747.784-.862.718.409a4.4,4.4,0,0,1-.438,1.712,8.2,8.2,0,0,1,.687,2.645c.007.732-.052,1.461-.08,2.191a17.08,17.08,0,0,1-.406,2.3,6.982,6.982,0,0,0,.314.942,3.906,3.906,0,0,1-.281,2.871,5,5,0,0,1-1.778,1.273c-.124.325-.409.589-.423.951l.162-.139a2.725,2.725,0,0,1,1.12-.117,4.146,4.146,0,0,1,1.691.631,5.479,5.479,0,0,1,1.923,2.457c.231.55.232.885-.517.8-.765-.089-1.438-.784-2.244-.789-1.181-.034-2.1.81-3.056,1.379a10.786,10.786,0,0,1-2.662,1.229,6.487,6.487,0,0,1-3.27-.16,6.277,6.277,0,0,1-2.312-2.1,14.249,14.249,0,0,1-1.611-2.661c-.166-.064-.326.1-.487.135a1.428,1.428,0,0,1-1.825-.784c-.136-.274-.16-.586-.293-.86a5.435,5.435,0,0,1-.235-4.346,14.188,14.188,0,0,1,.755-1.552c.018-.454-.023-.906-.047-1.359a18.847,18.847,0,0,1,.518-3.715,4.672,4.672,0,0,0,.256-.9,3.861,3.861,0,0,1-.17-2.522c.134-.637.235-.615.449-.061a1.336,1.336,0,0,0,.772.881,6.9,6.9,0,0,1,2.264-1.824,8.472,8.472,0,0,1,3.033-.947Zm-5.471,3.954h0a13.577,13.577,0,0,0-1.057,6.109,23.421,23.421,0,0,0,.956,4.781,1.617,1.617,0,0,1,.859.569,1.891,1.891,0,0,1,.117,1.923c.334.6.637,1.226.985,1.822a7.908,7.908,0,0,0,3.116,3.044,4.975,4.975,0,0,0,2.578.009,17.032,17.032,0,0,0,3.768-1.978,3.69,3.69,0,0,1,2.293-.579c.768-.01,1.3.643,2.029.768a4.128,4.128,0,0,0-3.216-2.805c-.656-.128-1.251.236-1.893.27a1.6,1.6,0,0,1,.282-1.233,8.734,8.734,0,0,1-2.284.225,1.444,1.444,0,0,1-1.791.43,1.487,1.487,0,0,1-.056-2.556c.409-.308.927-.1,1.367.007a3.6,3.6,0,0,0,2.488-1.28c.119-.251.363.108.21.242a3.893,3.893,0,0,1-2.139,1.531,1.572,1.572,0,0,1,.126,1.273,8.294,8.294,0,0,0,2.323-.422,3.879,3.879,0,0,0,1.759-1.027,3.012,3.012,0,0,0,.125-3.263c-.3-.413-.086-.93.064-1.357a10.126,10.126,0,0,0,.351-3.65,6.983,6.983,0,0,0-.446-2.16,1.69,1.69,0,0,0-.329.125c-.927.253-1.667-1.3-.785-1.747a6.584,6.584,0,0,0-5.318-2.468,7.518,7.518,0,0,0-6.48,3.4Zm13.3-1.75h0a3.308,3.308,0,0,1-1.566,1.272.922.922,0,0,0,.8.945,3.464,3.464,0,0,0,.768-2.216Zm-14.107.338h0a4.144,4.144,0,0,0,.141,1.465c.187-.275.354-.563.537-.842a9.121,9.121,0,0,1-.677-.623Zm-1.329,12.36h0a2.609,2.609,0,0,0,.6,1.338,1.2,1.2,0,0,0,1.4,1.362c1.013-.482.673-2.42-.537-2.253a8.9,8.9,0,0,1-.317-1.394c-.219-.773-.36-1.565-.5-2.355a6.415,6.415,0,0,0-.648,3.3Zm9.009.276h0a1.249,1.249,0,0,0-.305,1.485,1.469,1.469,0,0,0,.771.359c.484-.051,1.088-.337,1.1-.9A1.075,1.075,0,0,0,938.847,494.37Z" transform="translate(-929.278 -479.17)" fill="#0080f4" fill-rule="evenodd"/>
          <path id="路径_38057" data-name="路径 38057" d="M938.455,506.346c.046-.188.078-.529.355-.453.3.545.547,1.208,1.153,1.487.18.127.517.156.527.428a.71.71,0,0,1-.157.53,1.031,1.031,0,0,1-1.21.127,2.087,2.087,0,0,1-.667-2.12Zm.322.229h0a1.52,1.52,0,0,0,.567,1.545c.239.166.514.035.76-.035.007-.055.021-.161.028-.214A2.011,2.011,0,0,1,938.778,506.575Z" transform="translate(-936.067 -499.046)" fill="#0080f4" fill-rule="evenodd"/>
          <path id="路径_38058" data-name="路径 38058" d="M959.771,506.313c.284-.04.315.26.359.464a2.133,2.133,0,0,1-.6,2.1c-.546.464-1.6-.006-1.438-.774a3.618,3.618,0,0,0,.96-.583,3.762,3.762,0,0,0,.717-1.205Zm-1.336,2.013h0c.015.046.046.139.061.187a.742.742,0,0,0,.811,0,1.452,1.452,0,0,0,.5-1.487A1.979,1.979,0,0,1,958.435,508.325Z" transform="translate(-950.707 -499.364)" fill="#0080f4" fill-rule="evenodd"/>
        </g>
        <g id="组_21565" data-name="组 21565" transform="translate(222.769 13.632)">
          <path id="路径_38059" data-name="路径 38059" d="M1369.633,238.658c.366-.142.742-.262,1.12-.371-.084.237-.166.474-.241.713C1370.22,238.885,1369.928,238.766,1369.633,238.658Z" transform="translate(-1361.589 -237.833)" fill="#fff" fill-rule="evenodd"/>
          <path id="路径_38060" data-name="路径 38060" d="M1374.785,238.109a5.389,5.389,0,0,1,1.635.2,6.625,6.625,0,0,0-.3,2.306,9.948,9.948,0,0,1-1.69-.1A9.365,9.365,0,0,1,1374.785,238.109Z" transform="translate(-1365.162 -237.694)" fill="#fff" fill-rule="evenodd"/>
          <path id="路径_38061" data-name="路径 38061" d="M1383.473,239.332a3.476,3.476,0,0,1,1.106.443,3.964,3.964,0,0,1,1.5,1.208l-.406.072c-.724-.489-1.447-.984-2.189-1.447C1383.479,239.54,1383.475,239.4,1383.473,239.332Z" transform="translate(-1371.887 -238.61)" fill="#fff" fill-rule="evenodd"/>
          <path id="路径_38062" data-name="路径 38062" d="M1365.746,240.86c.226-.128.453-.256.682-.378.374.16.76.29,1.136.449-.028.254-.056.507-.092.76A12.508,12.508,0,0,0,1365.746,240.86Z" transform="translate(-1358.697 -239.466)" fill="#fff" fill-rule="evenodd"/>
          <path id="路径_38063" data-name="路径 38063" d="M1383.058,241.372a20.836,20.836,0,0,1,1.892,1.369l-.45.067c-.5-.277-.943-.655-1.444-.937C1383.056,241.745,1383.056,241.5,1383.058,241.372Z" transform="translate(-1371.577 -240.128)" fill="#fff" fill-rule="evenodd"/>
          <path id="路径_38064" data-name="路径 38064" d="M1363.457,242.917q.16-.17.322-.338a8.228,8.228,0,0,1,2.08,1.212A4.638,4.638,0,0,1,1363.457,242.917Z" transform="translate(-1356.993 -241.026)" fill="#fff" fill-rule="evenodd"/>
          <path id="路径_38065" data-name="路径 38065" d="M1382.85,244.416q.507.383,1.008.774a6.308,6.308,0,0,1-1.023.141C1382.831,245.026,1382.839,244.721,1382.85,244.416Z" transform="translate(-1371.411 -242.393)" fill="#fff" fill-rule="evenodd"/>
          <path id="路径_38066" data-name="路径 38066" d="M1362.508,244.946c1.41,1.095,3.3,1.1,5,1.184a8.431,8.431,0,0,0,3.341-.782,5.142,5.142,0,0,0-.152.863c-.381.5-1.061.439-1.61.582a10.406,10.406,0,0,1-6.034-.5C1362.511,246.085,1362.472,245.441,1362.508,244.946Z" transform="translate(-1356.28 -242.787)" fill="#fff" fill-rule="evenodd"/>
          <path id="路径_38067" data-name="路径 38067" d="M1353.366,251.849a11.07,11.07,0,0,1,1.262-1.226,7.052,7.052,0,0,0,2.634.92,9.511,9.511,0,0,0,4.249-.086c.6-.188,1.394-.116,1.742-.754.249.273.5.539.754.812l-.3.184a1.4,1.4,0,0,0,.129,1.1.981.981,0,0,0,1.213.27,3.225,3.225,0,0,1,.33,1.377,9.7,9.7,0,0,1-.261,4.117,27.536,27.536,0,0,1-1.551,4.805c-.257.7-.88,1.3-.8,2.092.594.047,1.122-.34,1.718-.254a3.4,3.4,0,0,1,1.835.775c.437-.109.864-.249,1.3-.372a11.9,11.9,0,0,0-.462,1.362c.161.266.311.539.459.814a2.136,2.136,0,0,1-.868-.389,11.826,11.826,0,0,0-.955.976,3.564,3.564,0,0,0-.4-1.267c-1.269-.034-2.271.853-3.315,1.443A5.688,5.688,0,0,1,1358,269.6a4.384,4.384,0,0,1-2.042-1.318,17.254,17.254,0,0,1-3.718-8.308,13.381,13.381,0,0,1,.031-5.427,6.464,6.464,0,0,1,1.092-2.7Zm-.2,4.269h0a2.318,2.318,0,0,0,.33,1.579,1.687,1.687,0,0,0,2,.521,1.626,1.626,0,0,0,.719-.985,22.457,22.457,0,0,1-3.045-1.114Zm8.1.65h0q-.825.246-1.631.542a1.44,1.44,0,0,0,2.507.652,2.076,2.076,0,0,0,.531-1.8C1362.18,256.322,1361.746,256.608,1361.259,256.768Z" transform="translate(-1348.453 -247.012)" fill="#fff" fill-rule="evenodd"/>
          <path id="路径_38068" data-name="路径 38068" d="M1398.93,252.572a3.8,3.8,0,0,0,1.411-1.137c-.16.656-.133,1.429-.654,1.932C1399.249,253.549,1398.848,252.964,1398.93,252.572Z" transform="translate(-1383.38 -247.616)" fill="#fff" fill-rule="evenodd"/>
          <path id="路径_38069" data-name="路径 38069" d="M1352.827,252.408c.2.2.394.4.6.587a8.745,8.745,0,0,0-.459.77A5.266,5.266,0,0,1,1352.827,252.408Z" transform="translate(-1349.083 -248.34)" fill="#fff" fill-rule="evenodd"/>
          <path id="路径_38070" data-name="路径 38070" d="M1411.979,261.37c-.177-.378.11-.72.234-1.064a3.526,3.526,0,0,1,.643.726c.205.8.336,1.615.537,2.415a7.312,7.312,0,0,0-.878.2C1412.267,262.9,1412.2,262.12,1411.979,261.37Z" transform="translate(-1393.056 -254.217)" fill="#fff" fill-rule="evenodd"/>
          <path id="路径_38071" data-name="路径 38071" d="M1357.452,273.662a7.468,7.468,0,0,0,2.4.917,6.374,6.374,0,0,1-.55.471,1.793,1.793,0,0,1-1.127-.157A2,2,0,0,1,1357.452,273.662Z" transform="translate(-1352.525 -264.155)" fill="#fff" fill-rule="evenodd"/>
          <path id="路径_38072" data-name="路径 38072" d="M1411.72,274.784c.144-.732.963-.9,1.586-.992a.977.977,0,0,1,.808.182,4.692,4.692,0,0,0-1.546.281C1412.262,274.394,1412.025,274.644,1411.72,274.784Z" transform="translate(-1392.906 -264.229)" fill="#fff" fill-rule="evenodd"/>
          <path id="路径_38073" data-name="路径 38073" d="M1383.421,274.857a7.938,7.938,0,0,0,2.389-.924c-.126.554-.377,1.222-1.012,1.341A1.232,1.232,0,0,1,1383.421,274.857Z" transform="translate(-1371.848 -264.357)" fill="#fff" fill-rule="evenodd"/>
          <path id="路径_38074" data-name="路径 38074" d="M1406.95,276.518c.23-.177.442.065.65.161a.94.94,0,0,1-.508,1.02,6.777,6.777,0,0,1-1.576,2.423,2.183,2.183,0,0,1-2.053-.132,12.718,12.718,0,0,0,.486-1.712,1.233,1.233,0,0,0,1.235.571,1.853,1.853,0,0,0,1.268-1.306A.838.838,0,0,1,1406.95,276.518Z" transform="translate(-1386.761 -266.233)" fill="#fff" fill-rule="evenodd"/>
          <path id="路径_38075" data-name="路径 38075" d="M1342.238,282.734a3.827,3.827,0,0,1,1.937-3.552,13.529,13.529,0,0,0,.242,2.217,2.193,2.193,0,0,0-1.142,1.519A2.115,2.115,0,0,0,1342.238,282.734Z" transform="translate(-1341.201 -268.262)" fill="#fff" fill-rule="evenodd"/>
          <path id="路径_38076" data-name="路径 38076" d="M1417.865,281.8a1.808,1.808,0,0,1,.521-.309,2.878,2.878,0,0,1,.043.931l-.422.077A1.93,1.93,0,0,1,1417.865,281.8Z" transform="translate(-1397.478 -269.982)" fill="#fff" fill-rule="evenodd"/>
          <path id="路径_38077" data-name="路径 38077" d="M1339.977,295.224a1.038,1.038,0,0,1,1.176-.437c.2.265.522.513.47.881a1.007,1.007,0,0,1-1.308.772C1340,296.138,1339.684,295.644,1339.977,295.224Z" transform="translate(-1339.436 -279.85)" fill="#fff" fill-rule="evenodd"/>
          <path id="路径_38078" data-name="路径 38078" d="M1344.206,238.192a5.94,5.94,0,0,1,3.609-1.674,7.009,7.009,0,0,1,5.155,2.019c.236.29.125.7.085,1.033a10.178,10.178,0,0,1,1.165,1.118,3.982,3.982,0,0,0,.688-.732c.432-.569.618-.478.609.258a4.275,4.275,0,0,1-.4,1.882,7.523,7.523,0,0,1,.638,2.515,18.709,18.709,0,0,1-.225,3.065c-.143.534.377.931.811,1.112.59-.1,1.3-.55,1.2-1.237a3.232,3.232,0,0,1,.044-.466c-.236.136-.551.38-.808.157-.2-.5.24-.9.586-1.184a14.131,14.131,0,0,1-.594-2.792,4.032,4.032,0,0,1,.231-.666c.274-.541.361-.409.68-.121a2.488,2.488,0,0,1,.557.633c.23.852.427,1.715.638,2.574.3.082.71.116.857.443.186.26.025.585-.373.593a2.387,2.387,0,0,1,.057.523c-.1.634.59,2.225-.519,2.126a1.114,1.114,0,0,1-.545-.218,4.958,4.958,0,0,1-1.33,1.715,2.543,2.543,0,0,1-2.231-.254,20.634,20.634,0,0,1-.859,2.218,7.032,7.032,0,0,1-.719,1.513,3.391,3.391,0,0,1,3.229.69c.273-.067.557-.205.84-.278.65-.167.715,0,.487.558a6.111,6.111,0,0,0-.33.824c.165.463.435.887.56,1.366a.379.379,0,0,1-.331.367,2.719,2.719,0,0,1-1.257-.358c-.2.213-.4.427-.607.627-.234.222-.492.4-.619-.053-.084-.3-.153-.612-.254-.911a2.436,2.436,0,0,0-1.466.538c-1.4.892-2.852,1.905-4.565,1.991a6.822,6.822,0,0,1-2.233-.362,9.369,9.369,0,0,1-2.761-2.939,20.149,20.149,0,0,1-1.7-3.506c-.321-.88-.45-1.814-.724-2.708a2.5,2.5,0,0,0-.845,1.454,1.417,1.417,0,0,1-1.189,2,1.39,1.39,0,0,1-1.192-1.726c.048-.35.374-.551.614-.771a4.338,4.338,0,0,1,2.286-4.307,15.944,15.944,0,0,1,.711-4.429,3.5,3.5,0,0,1-.214-2.124c.188-.925.213-.949.566-.194a1.221,1.221,0,0,0,.623.695,4.042,4.042,0,0,1,1.269-1.163,3.885,3.885,0,0,1,.1-1.435Zm2.036-.855h0c.3.108.587.226.879.342.074-.24.157-.477.241-.713-.378.109-.753.229-1.12.371Zm1.579-.411h0a9.359,9.359,0,0,0-.35,2.409,9.949,9.949,0,0,0,1.69.1,6.626,6.626,0,0,1,.3-2.306,5.39,5.39,0,0,0-1.635-.2Zm1.963.307h0c0,.069.007.208.008.276.742.463,1.464.959,2.189,1.447l.406-.072a3.964,3.964,0,0,0-1.5-1.208,3.476,3.476,0,0,0-1.106-.443Zm-4.536.673h0a12.521,12.521,0,0,1,1.725.831c.036-.253.064-.506.092-.76-.375-.158-.762-.289-1.136-.449-.229.123-.455.25-.682.378Zm4.431-.15h0c0,.124,0,.373,0,.5.5.282.94.66,1.444.937l.45-.067a20.853,20.853,0,0,0-1.892-1.369Zm-5.017.647h0a4.638,4.638,0,0,0,2.4.873,8.231,8.231,0,0,0-2.08-1.212q-.162.168-.322.338Zm4.974.132h0c-.01.3-.019.61-.015.915a6.311,6.311,0,0,0,1.023-.141q-.5-.392-1.008-.774Zm-5.21.136h0c-.036.5,0,1.139.546,1.348a10.406,10.406,0,0,0,6.034.5c.549-.143,1.229-.082,1.61-.582a5.13,5.13,0,0,1,.152-.863,8.432,8.432,0,0,1-3.341.782c-1.7-.084-3.591-.089-5-1.184Zm-1.316,2.679h0a6.466,6.466,0,0,0-1.092,2.7,13.379,13.379,0,0,0-.031,5.427,17.252,17.252,0,0,0,3.718,8.308,4.383,4.383,0,0,0,2.042,1.318,5.688,5.688,0,0,0,4.069-1.05c1.044-.59,2.046-1.477,3.315-1.443a3.564,3.564,0,0,1,.4,1.267,11.827,11.827,0,0,1,.955-.976,2.137,2.137,0,0,0,.868.389c-.148-.274-.3-.547-.459-.814a11.945,11.945,0,0,1,.462-1.362c-.433.123-.86.262-1.3.372a3.4,3.4,0,0,0-1.835-.775c-.6-.085-1.124.3-1.718.254-.082-.792.541-1.391.8-2.092a27.525,27.525,0,0,0,1.551-4.805,9.7,9.7,0,0,0,.261-4.117,3.223,3.223,0,0,0-.33-1.377.981.981,0,0,1-1.213-.27,1.4,1.4,0,0,1-.129-1.1l.3-.184c-.249-.273-.5-.539-.754-.812-.348.638-1.14.566-1.742.754a9.511,9.511,0,0,1-4.249.086,7.051,7.051,0,0,1-2.634-.92,11.08,11.08,0,0,0-1.262,1.226Zm10.637.118h0c-.082.392.318.977.758.795.521-.5.494-1.275.654-1.932a3.8,3.8,0,0,1-1.411,1.137Zm-11.806-.888h0a5.272,5.272,0,0,0,.144,1.357,8.776,8.776,0,0,1,.459-.77c-.209-.188-.407-.387-.6-.587Zm15.179,3.085h0c.217.75.289,1.534.536,2.275a7.313,7.313,0,0,1,.877-.2c-.2-.8-.331-1.617-.536-2.415a3.53,3.53,0,0,0-.643-.726c-.124.343-.411.686-.234,1.064Zm-.108,3.4h0c.3-.14.542-.39.848-.529a4.693,4.693,0,0,1,1.546-.281.978.978,0,0,0-.808-.182c-.623.093-1.442.259-1.586.992Zm1.374-.27h0a.838.838,0,0,0-.5,1.025,1.853,1.853,0,0,1-1.268,1.306,1.233,1.233,0,0,1-1.235-.571,12.736,12.736,0,0,1-.486,1.712,2.183,2.183,0,0,0,2.053.132,6.782,6.782,0,0,0,1.576-2.423.94.94,0,0,0,.507-1.02c-.208-.1-.419-.338-.65-.161Zm-19.152,4.187h0a2.115,2.115,0,0,1,1.037.184,2.192,2.192,0,0,1,1.142-1.519,13.556,13.556,0,0,1-.242-2.217,3.827,3.827,0,0,0-1.937,3.552Zm19.35-2.652h0a1.931,1.931,0,0,0,.141.7l.422-.077a2.881,2.881,0,0,0-.043-.931,1.806,1.806,0,0,0-.521.309Zm-19.846,3.554h0c-.293.421.027.915.338,1.217a1.007,1.007,0,0,0,1.308-.772c.052-.369-.272-.616-.47-.881A1.039,1.039,0,0,0,1338.739,251.885Z" transform="translate(-1338.198 -236.511)" fill="#0080f4" fill-rule="evenodd"/>
          <path id="路径_38079" data-name="路径 38079" d="M1356.535,272.1a22.448,22.448,0,0,0,3.045,1.114,1.626,1.626,0,0,1-.719.985,1.686,1.686,0,0,1-2-.521,2.318,2.318,0,0,1-.33-1.579Zm.217.4h0a2,2,0,0,0,.726,1.232,1.793,1.793,0,0,0,1.126.157,6.385,6.385,0,0,0,.55-.471A7.469,7.469,0,0,1,1356.752,272.5Z" transform="translate(-1351.825 -262.99)" fill="#0080f4" fill-rule="evenodd"/>
          <path id="路径_38080" data-name="路径 38080" d="M1383.5,272.869c.487-.16.921-.446,1.407-.607a2.077,2.077,0,0,1-.531,1.8,1.441,1.441,0,0,1-2.507-.652q.8-.3,1.631-.542Zm-1.233.744h0a1.232,1.232,0,0,0,1.377.417c.635-.118.885-.787,1.012-1.341A7.936,7.936,0,0,1,1382.263,273.614Z" transform="translate(-1370.691 -263.113)" fill="#0080f4" fill-rule="evenodd"/>
        </g>
        <g id="组_21566" data-name="组 21566" transform="translate(221.781 137.402)">
          <path id="路径_38115" data-name="路径 38115" d="M1354.826,720.6c.408-.155.754.193,1.006.467a5.34,5.34,0,0,1,1.094,3.653c.067,1.732.163,3.463.1,5.2.29.1.851-.051.893.378-.007.466-.542.592-.878.771a1.777,1.777,0,0,1,.07.837,10.91,10.91,0,0,0-.151,1.75.937.937,0,0,1-.2.485,2.359,2.359,0,0,1-1.078-.055,2.193,2.193,0,0,1-.063-.875,9.312,9.312,0,0,1-1.836,1.2,3.3,3.3,0,0,1-1.593-.116,14.629,14.629,0,0,1-1.249,3.423,3.643,3.643,0,0,1,2.284,1.422,2.014,2.014,0,0,0,1.932.71c.252-.326.477-.672.737-.993a2.011,2.011,0,0,1,.265,1.072,13.145,13.145,0,0,1,1.529.17c-.328.535-1.078.535-1.621.737.021.321.168.682-.062.965-.267-.231-.486-.511-.75-.745a3.627,3.627,0,0,1-1.146-.02c-.608-.122-1.084-.555-1.673-.723a4.225,4.225,0,0,0-1.328-.22,3.917,3.917,0,0,0-1.722.594,6.9,6.9,0,0,1-1.255,1.372c-.609.269-1.077-.333-1.593-.545a2.457,2.457,0,0,0-1.468-.131c-.356.119-.576.454-.908.612a.672.672,0,0,1-.71-.07,13.29,13.29,0,0,1-2.107-3.516c-.208.033-.416.068-.624.1a6.137,6.137,0,0,1-.592,2.56,3.449,3.449,0,0,1-1.089,1.289,2.092,2.092,0,0,1-1.381.389,3.19,3.19,0,0,1-1.843-1.067,6.773,6.773,0,0,1-1.479-4,5.275,5.275,0,0,1,1.505-4.187,2.729,2.729,0,0,1,1.6-.357c1.023.07,1.674.961,2.29,1.672.1-.312.219-.62.349-.922a10.232,10.232,0,0,1-.338-3.108,19.661,19.661,0,0,1,.252-2.161,13.851,13.851,0,0,1-1.182-.861,3.091,3.091,0,0,1-1.014-2.681,2.545,2.545,0,0,1,.759-1.76c.31-.225.481-.054.465.278a3.031,3.031,0,0,0,1.163,2.346.915.915,0,0,1,.767.174,14.659,14.659,0,0,1,4.229-3.753,2.861,2.861,0,0,1,1.286-.429,4.764,4.764,0,0,1,2.463,1.416,16.65,16.65,0,0,1,2.151,2.649.714.714,0,0,1,.872.141,4.077,4.077,0,0,0,1.394-2.169.333.333,0,0,1,.633-.1,4.613,4.613,0,0,1,.025,2.769,4.931,4.931,0,0,1-1.379,1.931c-.086.2-.208.382-.311.573a19.56,19.56,0,0,1,.2,2.829,2.95,2.95,0,0,1,1.237.857,5.151,5.151,0,0,0,1.467-1.692,1.576,1.576,0,0,1-.818-.345c.059-.186.054-.415.216-.55.188-.189.476-.188.718-.255-.077-1.24-.028-2.484-.059-3.724-.026-1.189-.036-2.379-.037-3.568a5,5,0,0,0-.411-2.087Zm.416.29h0a3.845,3.845,0,0,1,.248,1.078c.042,2.677.136,5.352.127,8.03a8.369,8.369,0,0,0,1.1-.11c-.021-2-.03-4.008-.11-6.009a4.472,4.472,0,0,0-1.366-2.988Zm-10.7,2.294h0a9.266,9.266,0,0,0,3.565-.071,3.378,3.378,0,0,0-1.732-.817,4.881,4.881,0,0,0-1.832.888Zm-.232.319h0c-.21-.07-.363.14-.53.225a6.987,6.987,0,0,0,3.278.315,14.612,14.612,0,0,0,1.628-.416c-.095-.1-.19-.194-.286-.29a7.58,7.58,0,0,1-4.089.166Zm-6.236,1.92h0a2.977,2.977,0,0,0,1.428,2.416,2.891,2.891,0,0,1,.528-1.625,3.192,3.192,0,0,1-1.246-2.774,2.98,2.98,0,0,0-.71,1.983Zm10.234-1.378h0c.49.82.943,1.665,1.488,2.449a8.583,8.583,0,0,0,1.03-.137,12.2,12.2,0,0,0-1.957-2.526l-.56.214Zm-4.849-.067h0a22.135,22.135,0,0,0-2.276,2.256c.38.016.92.369,1.183-.052a16.692,16.692,0,0,1,1.78-1.951c-.226-.093-.458-.17-.687-.252Zm9.865.924h0a2.814,2.814,0,0,1-1.357,1.5,3.763,3.763,0,0,0-.15,1.29c.043.325.381.451.634.585a3.947,3.947,0,0,0,1.265-1.8,5.139,5.139,0,0,0-.009-2.592,10.118,10.118,0,0,0-.383,1.019Zm-5.8-.627h0c.19.779.31,1.573.492,2.356.462-.038.926-.053,1.388-.1-.431-.8-.888-1.587-1.307-2.4l-.573.14Zm-4.975,2.134h0c.491.064.985.1,1.477.153.419-.692.662-1.473,1.1-2.157-.249-.051-.5-.1-.748-.141a27.737,27.737,0,0,0-1.825,2.145Zm3.991-2.008h0c-.1.756-.226,1.508-.321,2.264.482,0,.963.007,1.445-.023-.119-.776-.264-1.547-.385-2.322q-.369.048-.739.081Zm-2.142,2.169h0c.5.056,1,.057,1.5.077.119-.748.256-1.492.42-2.232-.31.014-.622.006-.932.006-.4.677-.631,1.446-.987,2.149Zm6.9-.377h0a1.7,1.7,0,0,0,.435,2.676,2.811,2.811,0,0,0,.569-.231,3.066,3.066,0,0,1-.676-.548c-.282-.507-.037-1.078.012-1.61.066-.194-.156-.41-.34-.288Zm-11.281.637h0c-.156.466-.32,1.077.089,1.468a5.932,5.932,0,0,1,.62-2.1c-.375-.052-.569.35-.708.628Zm.567.435h0a17.27,17.27,0,0,1,1.761.395,15.205,15.205,0,0,0,2.114.18,7.246,7.246,0,0,1,.188-.884,20.048,20.048,0,0,1-3.768-.517,4.776,4.776,0,0,0-.295.826Zm5.411-.253h0c.029.265.061.53.084.8a27.8,27.8,0,0,0,4.425-.125,3.279,3.279,0,0,1,.149-.9,29.783,29.783,0,0,1-4.658.23Zm-1.023.014h0a2.044,2.044,0,0,0-.015,1.711c.111.214.368.054.539.021a7.084,7.084,0,0,1,.165-1.647c-.139-.227-.49-.2-.689-.086Zm-4.447.561h0q-.018.289-.032.582a19.933,19.933,0,0,0,4.017.623c-.033-.217-.063-.434-.093-.651a6.355,6.355,0,0,1-1.756-.072c-.73-.074-1.41-.375-2.135-.481Zm5.523.579h0q-.066.348-.133.7a24.561,24.561,0,0,0,4.893-.219,7.3,7.3,0,0,1-.281-.693,22.22,22.22,0,0,1-4.479.215Zm-5.611.322h0a10.112,10.112,0,0,0-.373,2.644,15.946,15.946,0,0,0,.582,3.456,7.785,7.785,0,0,0,.477,1.363,1.283,1.283,0,0,1,.815.561,1.364,1.364,0,0,1-.136,1.507,8.686,8.686,0,0,0,1.78,3.51c.113.1.254.258.422.178.4-.113.616-.53,1.024-.625a2.757,2.757,0,0,1,2.471.61c.187,0,.4.065.559-.069a5.99,5.99,0,0,0,1.151-1.359,22.326,22.326,0,0,0,2.66-6.408,14.281,14.281,0,0,0,.118-4.675c-.385.036-.719-.263-1.1-.175a26.043,26.043,0,0,1-7.221.041,12.09,12.09,0,0,1-3.23-.559Zm14.848,1.8h0c-.259.013-.614.095-.594.421a3.654,3.654,0,0,0,1.435-.086,1.814,1.814,0,0,0,1.442-.185c-.091-.08-.185-.155-.283-.226a12.505,12.505,0,0,0-2,.076Zm-.459,1.912h0c-.3.428-.82.621-1.089,1.065-.4-.352-.718-.837-1.252-1a7.183,7.183,0,0,1-.235,1.75,2.548,2.548,0,0,0,2.253-.339c.876-.52,1.475-1.366,2.292-1.961-.02-.316-.194-.682-.568-.653-.706-.07-1.007.691-1.4,1.132Zm1.046.753h0a2.6,2.6,0,0,0,.087.635,1.663,1.663,0,0,0,.559.356c.309-.442.129-1.016.155-1.518a6.589,6.589,0,0,0-.8.527Zm-19.323.531h0a2.485,2.485,0,0,1,1.759.958,6.423,6.423,0,0,1,1.5,4.54,4.916,4.916,0,0,1-.874,3.028,2.741,2.741,0,0,0,.9-1.144,6.692,6.692,0,0,0,.525-3.068,4.923,4.923,0,0,0-1.5-3.458,2.191,2.191,0,0,0-2.318-.857Zm-1.1.79h0a6.264,6.264,0,0,0-.763,3.674,23.782,23.782,0,0,1,2.067-4.188,1.677,1.677,0,0,0-1.3.514Zm.592,1.272h0a20.987,20.987,0,0,0-1.262,2.956,7.953,7.953,0,0,0,.47,1.666,8.51,8.51,0,0,0,.62-1.325c-.048-.274-.159-.531-.2-.806a2,2,0,0,1,.61-1.837,1.806,1.806,0,0,1,.854.29c.333-.6.584-1.231.911-1.828a2.037,2.037,0,0,0-1.053-.818,16.624,16.624,0,0,0-.949,1.7Zm4.037-.251h0c.158.3.17.9.656.722a7.613,7.613,0,0,1-.46-1.508c-.06.263-.121.527-.2.786Zm-2.78,1.383h0a3.356,3.356,0,0,1,.6,1.816c.421-.71.762-1.462,1.183-2.172a6.38,6.38,0,0,0-.854-1.444c-.294.609-.574,1.223-.926,1.8Zm3.172-.342h0a7.945,7.945,0,0,1,.265,1.786.975.975,0,0,0,.865-1.375c-.163-.478-.724-.439-1.13-.411Zm-4.518,1.686h0a2.6,2.6,0,0,0,.983,1.695c.625-.178.666-.918.625-1.454a1.913,1.913,0,0,0-1.181-1.782,1.576,1.576,0,0,0-.428,1.542Zm2.227.514h0c-.287.445-.422.97-.737,1.4a15.5,15.5,0,0,0-1.049,1.83q.363.274.75.519c.743-1.148,1.392-2.36,2.1-3.531.449-.618.09-1.379-.044-2.043-.407.568-.661,1.228-1.021,1.826Zm12.543-.322h0c-.309.588-.6,1.183-.919,1.766a3.44,3.44,0,0,1,2.775.057,6.19,6.19,0,0,0,1.745.725c.348.058.7-.027,1.051.024a4.222,4.222,0,0,1,.417.409c0-.2.012-.4.024-.6a8.644,8.644,0,0,0,1.129-.327,6.883,6.883,0,0,1-.992-.171,2.176,2.176,0,0,1-.163-.682,2.781,2.781,0,0,1-.56.7,2.285,2.285,0,0,1-2.184-.678c-.526-.525-1.025-1.195-1.811-1.318-.166-.014-.433-.134-.511.091Zm-13.309,4.12h0a1,1,0,0,0,1.1-.284,4.864,4.864,0,0,0,1.011-3.278c-.648,1.219-1.412,2.371-2.107,3.562Zm-1.417-3.163h0a9.233,9.233,0,0,1-.616,1.228,6.556,6.556,0,0,0,.829,1.238c.3-.524.528-1.089.85-1.6C1336.507,740.073,1336.262,739.542,1335.991,739.171Z" transform="translate(-1334.334 -720.566)" fill="#ef54a1" fill-rule="evenodd"/>
          <path id="路径_38116" data-name="路径 38116" d="M1359.562,762.236a7.107,7.107,0,0,1,1.614.509,4.943,4.943,0,0,1,1.509.711,1.8,1.8,0,0,1-.68,1.033,1.518,1.518,0,0,1-1.283.152,1.778,1.778,0,0,1-1.167-1.534c-.013-.292,0-.581.007-.872Zm.279.32h0a1.741,1.741,0,0,0,1.008,1.719,1.283,1.283,0,0,0,1.534-.74A14.119,14.119,0,0,1,1359.842,762.556Z" transform="translate(-1353.097 -751.572)" fill="#ef54a1" fill-rule="evenodd"/>
          <path id="路径_38117" data-name="路径 38117" d="M1387.568,763.8c.826-.246,1.592-.673,2.44-.848a2.419,2.419,0,0,1-.168,1.584,1.577,1.577,0,0,1-2.04.793,1.672,1.672,0,0,1-.884-1.138,2.365,2.365,0,0,1,.652-.391Zm-.36.49h0a1.6,1.6,0,0,0,.892.75,1.251,1.251,0,0,0,1.382-.63,2.357,2.357,0,0,0,.277-1.117A16.7,16.7,0,0,1,1387.208,764.294Z" transform="translate(-1373.46 -752.108)" fill="#ef54a1" fill-rule="evenodd"/>
        </g>
      </g>
    </g>
    <path id="路径_39953" data-name="路径 39953" d="M2.085-4A1.733,1.733,0,0,0,.8-3.5a2.141,2.141,0,0,0-.57,1.56A1.856,1.856,0,0,0,2.09.145,1.862,1.862,0,0,0,3.96-1.94,2.156,2.156,0,0,0,3.4-3.5,1.752,1.752,0,0,0,2.085-4ZM2.1-.45a1.08,1.08,0,0,1-.775-.305,1.652,1.652,0,0,1-.4-1.18c0-.9.455-1.475,1.175-1.475a1.076,1.076,0,0,1,.77.305A1.615,1.615,0,0,1,3.26-1.94C3.26-1.02,2.815-.45,2.1-.45ZM15.24-3.92a4.07,4.07,0,0,1,.04.685v1.76A.913.913,0,0,1,14.265-.44.916.916,0,0,1,13.24-1.47V-3.235a3.921,3.921,0,0,1,.04-.685h-.745a4.108,4.108,0,0,1,.04.685V-1.47A1.611,1.611,0,0,0,12.95-.32a1.723,1.723,0,0,0,1.29.47,1.506,1.506,0,0,0,1.7-1.615V-3.24a4.041,4.041,0,0,1,.04-.68ZM28.055.06c-.07-.135-.195-.405-.235-.5-.5-1.17-.59-1.31-.905-1.41a1.057,1.057,0,0,0,.555-.29,1.028,1.028,0,0,0,.255-.745c0-.66-.435-1.04-1.195-1.04h-1.2c-.275,0-.43-.005-.64-.015a4.449,4.449,0,0,1,.04.65v2.7a3.913,3.913,0,0,1-.04.65h.745A3.9,3.9,0,0,1,25.4-.6v-1.02h.745c.385,0,.56.185.83.875a4.048,4.048,0,0,1,.26.8ZM25.4-2.185V-3.35H26.42c.41,0,.615.185.615.545a.593.593,0,0,1-.16.44.674.674,0,0,1-.475.18ZM48.625.06a4.072,4.072,0,0,1,.22-.665l.75-1.76a6.1,6.1,0,0,0,.23-.73c-.005.075-.02.33-.04.765V-.67a4.649,4.649,0,0,1-.04.73h.7a4.334,4.334,0,0,1-.04-.73V-3.18a5.178,5.178,0,0,1,.04-.74h-.92a2.771,2.771,0,0,1-.18.6l-1.01,2.48L47.32-3.325a3.46,3.46,0,0,1-.185-.6H46.22a4.96,4.96,0,0,1,.04.74V-.67a4.69,4.69,0,0,1-.04.73h.7a4.569,4.569,0,0,1-.04-.73V-2.31c0-.11-.02-.52-.04-.785a5.564,5.564,0,0,0,.255.765l.72,1.715a3.4,3.4,0,0,1,.22.675Zm10.53-3.98a3.736,3.736,0,0,1,.04.645v2.69a3.773,3.773,0,0,1-.04.645h.76a3.772,3.772,0,0,1-.04-.645v-2.69a3.735,3.735,0,0,1,.04-.645ZM68.49-1.105a1.709,1.709,0,0,0,.1.415,1.177,1.177,0,0,0,.44.57,2.01,2.01,0,0,0,1.05.26A1.657,1.657,0,0,0,71.27-.24a1.163,1.163,0,0,0,.315-.85.987.987,0,0,0-.415-.86,2.2,2.2,0,0,0-.815-.305,4.257,4.257,0,0,1-.7-.18.475.475,0,0,1-.34-.455c0-.325.295-.545.73-.545a.791.791,0,0,1,.625.24.646.646,0,0,1,.15.355l.715-.085a1.348,1.348,0,0,0-.245-.58A1.474,1.474,0,0,0,70.04-4.01c-.86,0-1.42.45-1.42,1.145a.984.984,0,0,0,.385.81,1.767,1.767,0,0,0,.755.3,3.153,3.153,0,0,1,.87.245.508.508,0,0,1,.25.46c0,.375-.3.6-.8.6a.888.888,0,0,1-.73-.3.717.717,0,0,1-.14-.44Zm11.575,0a1.709,1.709,0,0,0,.1.415,1.177,1.177,0,0,0,.44.57,2.01,2.01,0,0,0,1.05.26,1.657,1.657,0,0,0,1.195-.38,1.163,1.163,0,0,0,.315-.85.987.987,0,0,0-.415-.86,2.2,2.2,0,0,0-.815-.305,4.257,4.257,0,0,1-.7-.18.475.475,0,0,1-.34-.455c0-.325.295-.545.73-.545a.791.791,0,0,1,.625.24.646.646,0,0,1,.15.355l.715-.085a1.348,1.348,0,0,0-.245-.58,1.474,1.474,0,0,0-1.245-.505c-.86,0-1.42.45-1.42,1.145a.984.984,0,0,0,.385.81,1.767,1.767,0,0,0,.755.3,3.153,3.153,0,0,1,.87.245.508.508,0,0,1,.25.46c0,.375-.3.6-.8.6a.888.888,0,0,1-.73-.3.717.717,0,0,1-.14-.44ZM91.77-3.92a3.736,3.736,0,0,1,.04.645v2.69a3.773,3.773,0,0,1-.04.645h.76a3.773,3.773,0,0,1-.04-.645v-2.69a3.736,3.736,0,0,1,.04-.645ZM102.965-4a1.733,1.733,0,0,0-1.29.5,2.141,2.141,0,0,0-.57,1.56A1.856,1.856,0,0,0,102.97.145a1.862,1.862,0,0,0,1.87-2.085,2.156,2.156,0,0,0-.56-1.56A1.752,1.752,0,0,0,102.965-4Zm.015,3.55a1.08,1.08,0,0,1-.775-.305,1.652,1.652,0,0,1-.4-1.18c0-.9.455-1.475,1.175-1.475a1.076,1.076,0,0,1,.77.305,1.615,1.615,0,0,1,.4,1.165C104.14-1.02,103.695-.45,102.98-.45Zm13.84.51a3.773,3.773,0,0,1-.04-.645V-3.23a4.372,4.372,0,0,1,.04-.69h-.73a4.371,4.371,0,0,1,.04.69v1.68c0,.21.015.51.035.7-.11-.2-.27-.46-.39-.64l-1.265-1.9a2.742,2.742,0,0,1-.305-.53h-.78a4.165,4.165,0,0,1,.04.645V-.7a5.411,5.411,0,0,1-.04.755h.73a5.534,5.534,0,0,1-.04-.75V-2.33c0-.115-.01-.34-.015-.435-.015-.185-.015-.185-.02-.255.12.235.245.45.34.6l1.29,1.945a4.981,4.981,0,0,1,.32.535Z" transform="translate(3331 -425)"/>
    <path id="路径_39992" data-name="路径 39992" d="M21.9,2.637V-25.62h3.6V2.637ZM16.978-4.351a22.267,22.267,0,0,1-6.357-6.841A21.116,21.116,0,0,1,4.292-3.809L1.6-6.152a13.212,13.212,0,0,0,4.929-4.563A11.317,11.317,0,0,0,8.76-17.153v-3H2.637v-3.091H18.413v3.091H12.422v2.9a9.973,9.973,0,0,0,2.124,5.918,13.653,13.653,0,0,0,4.863,4.292Zm21.9-11.514V-25.02h3.691v6.035H57.507v3.12ZM34.89-10.356v-3.091H61.11v3.091ZM48,2.637a14.44,14.44,0,0,1-7.112-1.428,4.446,4.446,0,0,1-2.483-4.036A4.413,4.413,0,0,1,40.9-6.819,14.448,14.448,0,0,1,48-8.247,14.3,14.3,0,0,1,55.126-6.8a4.427,4.427,0,0,1,2.468,3.977,4.446,4.446,0,0,1-2.483,4.036A14.44,14.44,0,0,1,48,2.637Zm0-7.852q-5.845,0-5.845,2.388,0,1.128,1.479,1.794A11.067,11.067,0,0,0,48-.366a11.067,11.067,0,0,0,4.365-.667q1.479-.667,1.479-1.794Q53.845-5.215,48-5.215Zm40.046-.19V-25.62h3.6V-5.405ZM83.2-8.936a16.108,16.108,0,0,1-6.313-5.317,12.883,12.883,0,0,1-2.71,3.523A14.257,14.257,0,0,1,70.5-7.983L67.89-10.562a11.679,11.679,0,0,0,5-3.662,8.143,8.143,0,0,0,2.043-5.127v-1.626H69.12v-3.047H84.3v3.047H78.627v1.509a6.694,6.694,0,0,0,1.948,4.651,11.456,11.456,0,0,0,4.951,3.083ZM73.163,1.685V-7.764h3.691v6.357h15.1V1.685Zm27.756-21.094V-22.5h6.929v-3.325h3.691V-22.5h6.9v3.091ZM124.2-10.474V2.637H120.5V-25.62H124.2v12.056h4.233v3.091ZM119.552-1.89q-7.793.454-19.409.454L99.776-4.5l8.071-.059V-7.412a7.233,7.233,0,0,1-4.043-1.9,4.829,4.829,0,0,1-1.45-3.538,4.861,4.861,0,0,1,2-4.006,8.473,8.473,0,0,1,5.354-1.56,8.619,8.619,0,0,1,5.347,1.487A4.735,4.735,0,0,1,117-12.964a5.007,5.007,0,0,1-1.428,3.56,7.031,7.031,0,0,1-4.036,1.963v2.8q6.006-.146,7.764-.308ZM109.708-15.4a4.346,4.346,0,0,0-2.659.747,2.219,2.219,0,0,0-1,1.831A2.174,2.174,0,0,0,107.02-11a4.449,4.449,0,0,0,2.688.718,4.421,4.421,0,0,0,2.666-.71,2.172,2.172,0,0,0,.967-1.824,2.222,2.222,0,0,0-.959-1.86A4.382,4.382,0,0,0,109.708-15.4Zm28.166.4v-9.214h3.691v6.094h14.941V-15ZM133.89-8.936v-3.091H160.11v3.091Zm3.838,10.371V-6.929h3.691v5.273h15.205V1.436Zm51.926-13.11V2.637h-3.647V-25.62h3.647v10.854h4.424v3.091Zm-21.445,6.4V-23.584h3.633v6.548h6.445v-6.548h3.633V-5.273Zm10.078-8.672h-6.445v5.581h6.445Zm21.6,12.773V-4.233h11.279V-8.188H203.61v-9.1h14.971v-2.842H203.669v-3.032h18.6v8.818H207.3v3.12H223.02v3.032h-8.188v3.955H226.11v3.062Zm53.1,3.809V-25.62h3.633V2.637Zm-11.66-6.87a6.478,6.478,0,0,1-5.405-2.651,11.448,11.448,0,0,1-2.036-7.148,11.415,11.415,0,0,1,2.029-7.178,6.511,6.511,0,0,1,5.413-2.607,6.438,6.438,0,0,1,5.383,2.629,11.493,11.493,0,0,1,2.014,7.156,11.549,11.549,0,0,1-2.007,7.17A6.433,6.433,0,0,1,241.327-4.233Zm0-16.465a3.185,3.185,0,0,0-2.769,1.8A9.463,9.463,0,0,0,237.475-14a9.242,9.242,0,0,0,1.113,4.863,3.21,3.21,0,0,0,2.739,1.816,3.2,3.2,0,0,0,2.725-1.794A9.22,9.22,0,0,0,245.165-14a9.515,9.515,0,0,0-1.077-4.893A3.169,3.169,0,0,0,241.327-20.7Zm46.828-4.292a94.236,94.236,0,0,1-.425,10.078l-3.516-.176q.19-1.846.278-6.812H269.815V-24.99ZM265.89-10.078v-3.091h9.595v-5.64h3.721v5.64H292.11v3.091ZM288.624,2.549q-6.812-1.685-9.653-5.273a12.269,12.269,0,0,1-4.08,3.274,17.353,17.353,0,0,1-5.427,2L267.149-.425a16.048,16.048,0,0,0,7.229-2.468Q277.14-4.8,277.14-6.987v-1.45H280.8v1.421q0,2.065,2.981,4.109a13.856,13.856,0,0,0,6.951,2.336Zm31.447.088V-25.62h3.545V2.637Zm-8.218-18.354H314.7v-9.331h3.457V1.8H314.7V-12.6h-2.812a11.191,11.191,0,0,1-1.89,6.262,5.363,5.363,0,0,1-4.468,2.1,5.369,5.369,0,0,1-4.783-2.512Q299.095-9.258,299.095-14t1.655-7.258a5.365,5.365,0,0,1,4.775-2.527,5.356,5.356,0,0,1,4.4,2.029A10.793,10.793,0,0,1,311.854-15.718Zm-6.328-4.951q-2.886,0-2.886,6.665t2.886,6.65q1.377,0,2.124-1.714A12.8,12.8,0,0,0,308.4-14a12.985,12.985,0,0,0-.74-4.937Q306.917-20.669,305.525-20.669Z" transform="translate(3331 -363)"/>
  </g>
</svg>
