<svg xmlns="http://www.w3.org/2000/svg" width="60" height="60" viewBox="0 0 60 60">
  <g id="关于我们_3" transform="translate(-1819.69 -725.833)">
    <rect id="矩形_2187" data-name="矩形 2187" width="60" height="60" transform="translate(1819.69 725.833)" fill="#fff" opacity="0"/>
    <rect id="矩形_2191" data-name="矩形 2191" width="1.612" height="1.632" transform="translate(1873.608 742.327)" fill="#91f0d2"/>
    <rect id="矩形_2192" data-name="矩形 2192" width="1.612" height="1.632" transform="translate(1873.608 738.843)" fill="#91f0d2"/>
    <rect id="矩形_2193" data-name="矩形 2193" width="1.612" height="1.632" transform="translate(1848.885 733.735)" fill="#91f0d2"/>
    <rect id="矩形_2194" data-name="矩形 2194" width="1.612" height="1.632" transform="translate(1823.829 731.979)" fill="#91f0d2"/>
    <rect id="矩形_2195" data-name="矩形 2195" width="1.612" height="1.632" transform="translate(1823.829 735.492)" fill="#91f0d2"/>
    <rect id="矩形_2196" data-name="矩形 2196" width="1.612" height="1.632" transform="translate(1823.829 738.482)" fill="#91f0d2"/>
    <rect id="矩形_2197" data-name="矩形 2197" width="1.612" height="1.632" transform="translate(1844.603 738.834)" fill="#91f0d2"/>
    <rect id="矩形_2198" data-name="矩形 2198" width="1.612" height="1.632" transform="translate(1844.603 742.148)" fill="#91f0d2"/>
    <path id="路径_36929" data-name="路径 36929" d="M1861.965,771.4a7.507,7.507,0,0,1,5.149-.34c2.8.85,3.8,2.946,4.085,5.779s-1.287,5.325-4.617,6.685h-34.168a8.932,8.932,0,0,1-4.617-4.164,5.922,5.922,0,0,1,5.736-8.158,5.856,5.856,0,0,1,.532-3.286c.812-1.5,3.05-4.9,7.668-3.456a8.231,8.231,0,0,1,4.617-3.2c2.91-.623,7.639-.906,11.165,2.946,0,0,3.246-.283,4.785.878s3.414,2.975,2.967,5.722" fill="none" stroke="#19d9b4" stroke-linecap="round" stroke-miterlimit="10" stroke-width="1.2"/>
    <path id="路径_36930" data-name="路径 36930" d="M1840.669,772.2s-2.826,1.2-2.77,5.793a5.313,5.313,0,0,0,5.242,5.425,8.851,8.851,0,0,0,6.906-1.7c2.547-1.781,2.594-5.7,2.594-5.7" fill="none" stroke="#19d9b4" stroke-linecap="round" stroke-miterlimit="10" stroke-width="1.2"/>
    <path id="路径_36931" data-name="路径 36931" d="M1859.7,773.522s.224,3.937-3.666,3.965" fill="none" stroke="#19d9b4" stroke-linecap="round" stroke-miterlimit="10" stroke-width="1.2"/>
    <path id="路径_36932" data-name="路径 36932" d="M1867.561,777.657a5.279,5.279,0,0,0-5.316,5.552" fill="none" stroke="#19d9b4" stroke-linecap="round" stroke-miterlimit="10" stroke-width="1.2"/>
    <path id="路径_36933" data-name="路径 36933" d="M1833.45,776.553s.893,2.634,4.448,2.549" fill="none" stroke="#19d9b4" stroke-linecap="round" stroke-miterlimit="10" stroke-width="1.2"/>
    <path id="路径_36934" data-name="路径 36934" d="M1844.727,772.2s4.9-1.175,5.708,4.235" fill="none" stroke="#19d9b4" stroke-linecap="round" stroke-miterlimit="10" stroke-width="1.2"/>
    <path id="路径_36935" data-name="路径 36935" d="M1862.468,776.439a7.573,7.573,0,0,0-2.182-7.2,6.84,6.84,0,0,0-8.2-1.076,7.958,7.958,0,0,0-3.782,4.576" fill="none" stroke="#19d9b4" stroke-linecap="round" stroke-miterlimit="10" stroke-width="1.2"/>
    <path id="路径_36936" data-name="路径 36936" d="M1844.027,766.553s4.785-2.662,6.408,2.38" fill="none" stroke="#19d9b4" stroke-linecap="round" stroke-miterlimit="10" stroke-width="1.2"/>
    <path id="路径_36937" data-name="路径 36937" d="M1839.55,766.5a3.419,3.419,0,0,0-1.007,4.475" fill="none" stroke="#19d9b4" stroke-linecap="round" stroke-miterlimit="10" stroke-width="1.2"/>
    <path id="路径_36938" data-name="路径 36938" d="M1824.635,749.926v9.518l11.935,5.574" fill="none" stroke="#19d9b4" stroke-linecap="round" stroke-miterlimit="10" stroke-width="1.2"/>
    <path id="路径_36939" data-name="路径 36939" d="M1836.052,734.063v18.526l10.848,8.559" fill="none" stroke="#19d9b4" stroke-linecap="round" stroke-miterlimit="10" stroke-width="1.2"/>
    <path id="路径_36940" data-name="路径 36940" d="M1865.1,738.482v14.277l-11.3,8.871" fill="none" stroke="#19d9b4" stroke-linecap="round" stroke-miterlimit="10" stroke-width="1.2"/>
    <path id="路径_36941" data-name="路径 36941" d="M1874.613,752.418v7.252l-11.837,5.784" fill="none" stroke="#19d9b4" stroke-linecap="round" stroke-miterlimit="10" stroke-width="1.2"/>
    <ellipse id="椭圆_1625" data-name="椭圆 1625" cx="3.077" cy="3.115" rx="3.077" ry="3.115" transform="translate(1821.69 744.107)" fill="none" stroke="#19d9b4" stroke-linecap="round" stroke-miterlimit="10" stroke-width="1.2"/>
    <ellipse id="椭圆_1626" data-name="椭圆 1626" cx="3.077" cy="3.115" rx="3.077" ry="3.115" transform="translate(1832.975 727.833)" fill="none" stroke="#19d9b4" stroke-linecap="round" stroke-miterlimit="10" stroke-width="1.2"/>
    <ellipse id="椭圆_1627" data-name="椭圆 1627" cx="3.077" cy="3.115" rx="3.077" ry="3.115" transform="translate(1862.022 732.252)" fill="none" stroke="#19d9b4" stroke-linecap="round" stroke-miterlimit="10" stroke-width="1.2"/>
    <ellipse id="椭圆_1628" data-name="椭圆 1628" cx="3.077" cy="3.115" rx="3.077" ry="3.115" transform="translate(1871.536 746.533)" fill="none" stroke="#19d9b4" stroke-linecap="round" stroke-miterlimit="10" stroke-width="1.2"/>
    <line id="直线_114" data-name="直线 114" y2="8.328" transform="translate(1845.408 745.733)" fill="none" stroke="#19d9b4" stroke-linecap="round" stroke-miterlimit="10" stroke-width="1.2"/>
    <line id="直线_115" data-name="直线 115" y2="4.588" transform="translate(1854.017 743.78)" fill="none" stroke="#19d9b4" stroke-linecap="round" stroke-miterlimit="10" stroke-width="1.2"/>
    <line id="直线_116" data-name="直线 116" y2="7.138" transform="translate(1849.691 737.349)" fill="none" stroke="#19d9b4" stroke-linecap="round" stroke-miterlimit="10" stroke-width="1.2"/>
  </g>
</svg>
