<svg xmlns="http://www.w3.org/2000/svg" width="60" height="60" viewBox="0 0 60 60">
  <g id="关于我们_2" transform="translate(-1725.826 -725.833)">
    <rect id="矩形_2185" data-name="矩形 2185" width="60" height="60" transform="translate(1725.826 725.833)" fill="#fff" opacity="0"/>
    <path id="路径_36919" data-name="路径 36919" d="M1751.976,783.833v-15.6h15.013v15.6" fill="none" stroke="#6287de" stroke-linecap="round" stroke-miterlimit="10" stroke-width="1.2"/>
    <line id="直线_112" data-name="直线 112" x2="15.013" transform="translate(1751.976 773.774)" fill="none" stroke="#6287de" stroke-miterlimit="10" stroke-width="1.2"/>
    <path id="路径_36920" data-name="路径 36920" d="M1765.446,768.436v-2.515a50.127,50.127,0,0,0,2.879-6.467,37.2,37.2,0,0,0,1.8-13.241,2.955,2.955,0,0,0-.72-1.8,1.956,1.956,0,0,0-3.033,1.078h-.514a2.749,2.749,0,0,0-1.029-2.515,2.117,2.117,0,0,0-3.239,1.745" fill="none" stroke="#6287de" stroke-miterlimit="10" stroke-width="1.2"/>
    <path id="路径_36921" data-name="路径 36921" d="M1761.076,744.724s.514-2.207-.565-2.925-3.6-1.027-4.062,1.848h-.668V740a1.663,1.663,0,0,0-.72-1.642,1.808,1.808,0,0,0-2.879,1.181v13.087" fill="none" stroke="#6287de" stroke-miterlimit="10" stroke-width="1.2"/>
    <path id="路径_36922" data-name="路径 36922" d="M1753.416,768.436v-1.95s-.669-1.232-2.622-4.26-3.651-4.414-4.319-11.6" fill="none" stroke="#6287de" stroke-miterlimit="10" stroke-width="1.2"/>
    <path id="路径_36923" data-name="路径 36923" d="M1746.218,747.291s.617-3.491,1.954-5.236,2.725-1.437,4.01-.461" fill="none" stroke="#6287de" stroke-miterlimit="10" stroke-width="1.2"/>
    <path id="路径_36924" data-name="路径 36924" d="M1769.829,750.421h3.123v6.39h8.753v-6.39h2.121v-3.131h-14" fill="none" stroke="#6287de" stroke-miterlimit="10" stroke-width="1.2"/>
    <line id="直线_113" data-name="直线 113" y2="4.003" transform="translate(1777.464 752.808)" fill="none" stroke="#6287de" stroke-miterlimit="10" stroke-width="1.2"/>
    <path id="路径_36925" data-name="路径 36925" d="M1751.976,747.291h-7.943a2.761,2.761,0,0,1-1.581-1.412v-3.218a4,4,0,0,0-3.162-3.287c-2.892-.693-5.668.924-6.247,4.426v.3s-3.123-.812-5,3.192a6.824,6.824,0,0,0,0,3.336,5.363,5.363,0,0,0,5.064,3.541h.263a5.215,5.215,0,0,0,1.87,4.08,4.8,4.8,0,0,0,5.759-.564,7.4,7.4,0,0,0,1.491-2.284v-3a2.449,2.449,0,0,1,1.722-1.616h7.763" fill="none" stroke="#6287de" stroke-miterlimit="10" stroke-width="1.2"/>
    <circle id="椭圆_1624" data-name="椭圆 1624" cx="1.995" cy="1.995" r="1.995" transform="translate(1731.151 747.009)" fill="none" stroke="#6287de" stroke-miterlimit="10" stroke-width="1.2"/>
    <path id="路径_36926" data-name="路径 36926" d="M1751.593,767.841a20.932,20.932,0,0,1-10.168-9.181" fill="none" stroke="#6287de" stroke-linecap="round" stroke-miterlimit="10" stroke-width="1.2" stroke-dasharray="1 2"/>
    <path id="路径_36927" data-name="路径 36927" d="M1778.185,758.369a20.926,20.926,0,0,1-10.178,9.409" fill="none" stroke="#6287de" stroke-linecap="round" stroke-miterlimit="10" stroke-width="1.2" stroke-dasharray="1 2"/>
    <path id="路径_36928" data-name="路径 36928" d="M1740.882,739.715a20.876,20.876,0,0,1,39.439,5.606" fill="none" stroke="#6287de" stroke-linecap="round" stroke-miterlimit="10" stroke-width="1.2" stroke-dasharray="1 2"/>
    <rect id="矩形_2190" data-name="矩形 2190" width="1.481" height="1.478" transform="translate(1754.117 770.338)" fill="#6287de"/>
  </g>
</svg>
