<svg xmlns="http://www.w3.org/2000/svg" width="60" height="60" viewBox="0 0 60 60">
  <g id="关于我们_1" transform="translate(-1635.68 -720.861)">
    <g id="矩形_2186" data-name="矩形 2186" transform="translate(1635.68 720.861)" fill="#fff" stroke="#ff7675" stroke-width="1" opacity="0">
      <rect width="60" height="60" stroke="none"/>
      <rect x="0.5" y="0.5" width="59" height="59" fill="none"/>
    </g>
    <path id="路径_36914" data-name="路径 36914" d="M1639.637,764.991h11.915V781.3h-11.915" transform="translate(-1.957 -4.972)" fill="rgba(0,0,0,0)" stroke="#ff7675" stroke-linecap="round" stroke-miterlimit="10" stroke-width="1.2"/>
    <line id="直线_104" data-name="直线 104" y1="16.309" transform="translate(1643.637 760.018)" fill="none" stroke="#ff7675" stroke-linecap="round" stroke-miterlimit="10" stroke-width="1.2"/>
    <path id="路径_36915" data-name="路径 36915" d="M1669.11,764.991s.392-4.751-1.8-8.234-5.565-10.055-.7-15.6,13.273-3.932,16.147.5,2.718,7.97.68,11.981-3.24,4.908-3.658,11.348" transform="translate(-1.957 -4.972)" fill="rgba(0,0,0,0)" stroke="#ff7675" stroke-linecap="round" stroke-miterlimit="10" stroke-width="1.2"/>
    <path id="路径_36916" data-name="路径 36916" d="M1651.552,778.925h2.194a12.043,12.043,0,0,1,4.155,1.583c1.254,1.029,5.095,2.375,7.76,2.771s9.72.554,9.72.554a1.887,1.887,0,0,0,1.764-1.227,2,2,0,0,0-1.568-2.533v-.555a3.6,3.6,0,0,0,2.9-1.266c1.019-1.386-.392-3.128-2.077-3.128v-.672a6.935,6.935,0,0,0,2.665-.476c.745-.475,2.077-4.156-1.568-4.354v-.673h4.547a2.918,2.918,0,0,0,2.077-.752,2.16,2.16,0,0,0-1.529-3.206h-13.468a17.8,17.8,0,0,0-.633-5.556,10.4,10.4,0,0,0-4.829.964c-3.135,1.227-7.133,5.067-9.132,5.779h-2.978" transform="translate(-1.957 -4.972)" fill="rgba(0,0,0,0)" stroke="#ff7675" stroke-linecap="round" stroke-miterlimit="10" stroke-width="1.2"/>
    <path id="路径_36917" data-name="路径 36917" d="M1673.6,761.243a32.635,32.635,0,0,0-4.651-10.661s5.435,5.542,11.236,0c0,0-4.338,6.175-4.756,10.661" transform="translate(-1.957 -4.972)" fill="rgba(0,0,0,0)" stroke="#ff7675" stroke-linecap="round" stroke-miterlimit="10" stroke-width="1.2"/>
    <path id="路径_36918" data-name="路径 36918" d="M1671.854,764.78v-3.536h5.173v3.536" transform="translate(-1.957 -4.972)" fill="rgba(0,0,0,0)" stroke="#ff7675" stroke-linecap="round" stroke-miterlimit="10" stroke-width="1.2"/>
    <line id="直线_105" data-name="直线 105" y2="6.228" transform="translate(1672.614 722.861)" fill="none" stroke="#ff7675" stroke-linecap="round" stroke-miterlimit="10" stroke-width="1.2"/>
    <line id="直线_106" data-name="直线 106" x2="4.36" y2="4.404" transform="translate(1657.793 728.884)" fill="none" stroke="#ff7675" stroke-linecap="round" stroke-miterlimit="10" stroke-width="1.2"/>
    <line id="直线_107" data-name="直线 107" x1="4.36" y2="4.404" transform="translate(1682.979 728.668)" fill="none" stroke="#ff7675" stroke-linecap="round" stroke-miterlimit="10" stroke-width="1.2"/>
    <line id="直线_108" data-name="直线 108" x2="6.166" transform="translate(1651.478 742.522)" fill="none" stroke="#ff7675" stroke-linecap="round" stroke-miterlimit="10" stroke-width="1.2"/>
    <line id="直线_109" data-name="直线 109" x2="6.166" transform="translate(1687.514 742.522)" fill="none" stroke="#ff7675" stroke-linecap="round" stroke-miterlimit="10" stroke-width="1.2"/>
    <line id="直线_110" data-name="直线 110" x2="6.166" transform="translate(1687.514 773.923)" fill="none" stroke="#ff7675" stroke-linecap="round" stroke-miterlimit="10" stroke-width="1.2"/>
    <line id="直线_111" data-name="直线 111" y2="6.228" transform="translate(1690.597 770.809)" fill="none" stroke="#ff7675" stroke-linecap="round" stroke-miterlimit="10" stroke-width="1.2"/>
    <rect id="矩形_2189" data-name="矩形 2189" width="1.505" height="1.52" transform="translate(1645.754 761.996)" fill="#ff7675"/>
  </g>
</svg>
