<?xml version="1.0" encoding="utf-8"?>
<!-- Generator: Adobe Illustrator 22.1.0, SVG Export Plug-In . SVG Version: 6.00 Build 0)  -->
<svg version="1.1" id="图层_1" xmlns="http://www.w3.org/2000/svg" xmlns:xlink="http://www.w3.org/1999/xlink" x="0px" y="0px"
	 viewBox="0 0 1820 880" style="enable-background:new 0 0 1820 880;" xml:space="preserve">
<style type="text/css">
	.st0{clip-path:url(#SVGID_2_);}
	.st1{opacity:5.000000e-02;}
	.st2{fill:none;stroke:#231815;stroke-width:2;stroke-miterlimit:10;}
	.st3{fill:none;stroke:#231815;stroke-width:1.2;stroke-miterlimit:10;}
	.st4{fill:none;stroke:#0080F4;stroke-width:2;stroke-miterlimit:10;}
	.st5{fill:none;stroke:#EF54A1;stroke-width:2;stroke-miterlimit:10;}
	.st6{fill:none;stroke:#000000;stroke-width:2;stroke-miterlimit:10;}
	.st7{fill:none;stroke:#0C111A;stroke-width:2;stroke-miterlimit:10;}
	.st8{fill:#0080F4;}
	.st9{fill:#EF54A1;}
	.st10{fill:none;stroke:#231815;stroke-miterlimit:10;}
	.st11{fill:none;stroke:#0080F4;stroke-width:2;stroke-miterlimit:10;stroke-dasharray:10,5;}
	.st12{fill:#FFFFFF;stroke:#000000;stroke-width:3;stroke-miterlimit:10;}
	.st13{fill:#0C111A;}
	.st14{enable-background:new    ;}
</style>
<g id="组_21878" transform="translate(10411 -2455)">
	<g>
		<defs>
			<rect id="SVGID_1_" x="-10411" y="2455" width="1820" height="880"/>
		</defs>
		<clipPath id="SVGID_2_">
			<use xlink:href="#SVGID_1_"  style="overflow:visible;"/>
		</clipPath>
		<g id="NAV_bg" transform="translate(50 160)" class="st0">
			<g id="组_21480" transform="translate(0 37)" class="st1">
				<g id="组_21478" transform="translate(0 7.733)">
					<g id="组_21420" transform="translate(496.006 224.522)">
						<g id="组_21418" transform="translate(0 0)">
							
								<rect id="矩形_2227" x="-10464.7" y="2337.3" transform="matrix(0.9838 -0.1794 0.1794 0.9838 -585.4478 -1797.101)" width="472.2" height="1.9"/>
						</g>
						<g id="组_21419" transform="translate(0 0)">
							
								<rect id="矩形_2228" x="-10464.7" y="2337.3" transform="matrix(0.9838 -0.1794 0.1794 0.9838 -585.4478 -1797.101)" width="472.2" height="1.9"/>
						</g>
					</g>
					<g id="组_21424" transform="translate(496.139 32.308)">
						<g id="组_21421" transform="translate(464.098 0.366)">
							
								<rect id="矩形_2229" x="-10550.7" y="2390.7" transform="matrix(6.300085e-02 -0.998 0.998 6.300085e-02 -12182.2148 -8192.8799)" width="192.9" height="1.3"/>
						</g>
						<g id="组_21422" transform="translate(0)">
							<path id="路径_37381" d="M-10460.4,2573.6l-0.6-1.3l476-277.4l1.3,1.3L-10460.4,2573.6z"/>
						</g>
						<g id="组_21423" transform="translate(0)">
							<path id="路径_37382" d="M-10460.4,2573.6l-0.6-1.3l476-277.4l1.3,1.3L-10460.4,2573.6z"/>
						</g>
					</g>
					<g id="组_21429" transform="translate(495.837 32.165)">
						<g id="组_21425" transform="translate(326.765 0)">
							
								<rect id="矩形_2230" x="-10476.9" y="2346.9" transform="matrix(0.821 -0.5709 0.5709 0.821 -3199.2002 -5509.2451)" width="182.2" height="1.3"/>
						</g>
						<g id="组_21426" transform="translate(327.17 104.435)">
							
								<rect id="矩形_2231" x="-10392.6" y="2258" transform="matrix(0.5403 -0.8415 0.8415 0.5403 -6745.897 -7669.0513)" width="1.3" height="163.2"/>
						</g>
						<g id="组_21427" transform="translate(0 103.907)">
							
								<rect id="矩形_2232" x="-10482.3" y="2381.7" transform="matrix(0.8832 -0.469 0.469 0.8832 -2320.0088 -4551.1104)" width="370.1" height="1.3"/>
						</g>
						<g id="组_21428" transform="translate(0 103.907)">
							
								<rect id="矩形_2233" x="-10482.3" y="2381.7" transform="matrix(0.8832 -0.469 0.469 0.8832 -2320.0088 -4551.1104)" width="370.1" height="1.3"/>
						</g>
					</g>
					<g id="组_21432" transform="translate(0 309.692)">
						<g id="组_21430">
							<path id="路径_37383" d="M-10461,2767.8l496.8-471.6l-0.6-1.3l-496.1,470.9V2767.8z"/>
						</g>
						<g id="组_21431">
							<path id="路径_37384" d="M-10461,2767.8l496.8-471.6l-0.6-1.3l-496.1,470.9V2767.8z"/>
						</g>
					</g>
					<g id="组_21439" transform="translate(0 136.327)">
						<g id="组_21433" transform="translate(0 127.344)">
							<path id="路径_37385" d="M-10461,2692.2l71.9-397.2h-1.9l-70,388.3V2692.2z"/>
						</g>
						<g id="组_21434" transform="translate(0 115.366)">
							<path id="路径_37386" d="M-10461,2295v1.3l70.6,11.3l0.6-1.3L-10461,2295z"/>
						</g>
						<g id="组_21435" transform="translate(70.607)">
							<path id="路径_37387" d="M-10460.4,2423l-0.6-1.3l752.7-126.7v1.3L-10460.4,2423z"/>
						</g>
						<g id="组_21436" transform="translate(0 126.714)">
							<path id="路径_37388" d="M-10461,2342.3l71.2-46l-0.6-1.3l-70.6,45.4V2342.3z"/>
						</g>
						<g id="组_21437" transform="translate(71.065 126.796)">
							
								<rect id="矩形_2234" x="-10248.8" y="2104.9" transform="matrix(0.1088 -0.9941 0.9941 0.1088 -11438.3457 -8120.7212)" width="1.3" height="428.1"/>
						</g>
						<g id="组_21438" transform="translate(71.065 126.796)">
							
								<rect id="矩形_2235" x="-10248.8" y="2104.9" transform="matrix(0.1088 -0.9941 0.9941 0.1088 -11438.3457 -8120.7212)" width="1.3" height="428.1"/>
						</g>
					</g>
					<g id="组_21445" transform="translate(495.939 33.135)">
						<g id="组_21440" transform="translate(326.126 103.822)">
							<path id="路径_37389" d="M-10359.5,2960.7L-10461,2295h1.9l100.9,665.7H-10359.5z"/>
						</g>
						<g id="组_21441" transform="translate(427.475 0)">
							
								<rect id="矩形_2236" x="-10821.7" y="2679.1" transform="matrix(6.268603e-02 -0.998 0.998 6.268603e-02 -12456.4873 -7903.9072)" width="771" height="1.3"/>
						</g>
						<g id="组_21442" transform="translate(427.648 192.686)">
							
								<rect id="矩形_2237" x="-10731.2" y="2582.9" transform="matrix(6.292990e-02 -0.998 0.998 6.292990e-02 -12363.4385 -8000.5605)" width="578.1" height="1.3"/>
						</g>
						<g id="组_21443" transform="translate(0 276.653)">
							
								<rect id="矩形_2238" x="-10247.1" y="2215.4" transform="matrix(0.7549 -0.6559 0.6559 0.7549 -4178.8623 -6097.4282)" width="1.3" height="652.6"/>
						</g>
						<g id="组_21444" transform="translate(0 276.653)">
							
								<rect id="矩形_2239" x="-10247.1" y="2215.4" transform="matrix(0.7549 -0.6559 0.6559 0.7549 -4178.8623 -6097.4282)" width="1.3" height="652.6"/>
						</g>
					</g>
					<g id="组_21453" transform="translate(0 136.728)">
						<g id="组_21446" transform="translate(529.871 665.909)">
							
								<rect id="矩形_2240" x="-10465.7" y="2339.1" transform="matrix(0.9757 -0.2189 0.2189 0.9757 -761.3394 -2190.3503)" width="404.2" height="1.9"/>
						</g>
						<g id="组_21447" transform="translate(69.976 126.313)">
							<path id="路径_37390" d="M-10001.4,2924.8l-459.6-628.5l1.3-1.3l459.6,629.2L-10001.4,2924.8z"/>
						</g>
						<g id="组_21448" transform="translate(0 674.146)">
							<path id="路径_37391" d="M-10461,2295v1.3l530.2,81.3v-1.9L-10461,2295z"/>
						</g>
						<g id="组_21449" transform="translate(529.561)">
							
								<rect id="矩形_2241" x="-10718.9" y="2672.1" transform="matrix(0.3612 -0.9325 0.9325 0.3612 -9081.0361 -7909.9673)" width="810.1" height="1.9"/>
						</g>
						<g id="组_21450" transform="translate(529.551 88.488)">
							<path id="路径_37392" d="M-10459.7,2962.6l-1.3-0.6l430.6-667l1.3,0.6L-10459.7,2962.6z"/>
						</g>
						<g id="组_21451" transform="translate(495.627 173.374)">
							
								<rect id="矩形_2242" x="-10444.1" y="2294.6" transform="matrix(0.9983 -5.801833e-02 5.801833e-02 0.9983 -167.6291 -601.5378)" width="1.9" height="583"/>
						</g>
						<g id="组_21452" transform="translate(495.627 173.374)">
							
								<rect id="矩形_2243" x="-10444.1" y="2294.6" transform="matrix(0.9983 -5.801833e-02 5.801833e-02 0.9983 -167.6291 -601.5378)" width="1.9" height="583"/>
						</g>
					</g>
					<g id="组_21458" transform="translate(822.695 0)">
						<g id="组_21454" transform="translate(552.246 0.157)">
							<path id="路径_37393" d="M-9869,2612.1l-591.3-317.1l-0.6,1.3l592,317.1V2612.1z"/>
						</g>
						<g id="组_21455" transform="translate(0 0.157)">
							<path id="路径_37394" d="M-10460.4,2432.4l-0.6-1.3l552.2-136.2l0.6,1.3L-10460.4,2432.4z"/>
						</g>
						<g id="组_21456" transform="translate(150.039 0.157)">
							<path id="路径_37395" d="M-10461,2328.4v-1.3l402.2-32.2l0.6,1.3L-10461,2328.4z"/>
						</g>
						<g id="组_21457" transform="translate(137.898)">
							
								<rect id="矩形_2244" x="-10489.2" y="2407.2" transform="matrix(0.8789 -0.477 0.477 0.8789 -2389.8938 -4598.9478)" width="471.6" height="1.3"/>
						</g>
					</g>
					<g id="组_21461" transform="translate(924.193 225.193)">
						<g id="组_21459" transform="translate(0 576.855)">
							<path id="路径_37396" d="M-10019.1,2398.4l-441.9-102.1v-1.3l441.9,101.5V2398.4z"/>
						</g>
						<g id="组_21460" transform="translate(35.844 0)">
							
								<rect id="矩形_2245" x="-10258.3" y="2239.5" transform="matrix(0.8586 -0.5127 0.5127 0.8586 -2801.6421 -4886.1553)" width="1.9" height="791.2"/>
						</g>
					</g>
					<g id="组_21469" transform="translate(822.695 0.025)">
						<g id="组_21462" transform="translate(542.664 534.601)">
							
								<rect id="矩形_2246" x="-10584.8" y="2479.2" transform="matrix(0.3741 -0.9274 0.9274 0.3741 -8799.8594 -8079.0967)" width="398.3" height="1.9"/>
						</g>
						<g id="组_21463" transform="translate(551.651 0)">
							
								<rect id="矩形_2247" x="-10391.2" y="2286.3" transform="matrix(0.9674 -0.2531 0.2531 0.9674 -986.885 -2546.4775)" width="1.9" height="552"/>
						</g>
						<g id="组_21464" transform="translate(692.199 393.513)">
							<path id="路径_37397" d="M-10009,2295l-452,140.6v1.3l452-140V2295z"/>
						</g>
						<g id="组_21465" transform="translate(101.262 533.511)">
							
								<rect id="矩形_2248" x="-10489.9" y="2429.3" transform="matrix(0.9102 -0.4141 0.4141 0.9102 -1918.7979 -3991.4585)" width="648.7" height="1.3"/>
						</g>
						<g id="组_21466" transform="translate(0 136.302)">
							<path id="路径_37398" d="M-9769.4,2694.1l-691.6-397.8l0.6-1.3l692.2,397.8L-9769.4,2694.1z"/>
						</g>
						<g id="组_21467" transform="translate(149.585 32.046)">
							
								<rect id="矩形_2249" x="-10190.1" y="2177.1" transform="matrix(0.6791 -0.7341 0.7341 0.6791 -5139.375 -6662.3359)" width="1.9" height="738.8"/>
						</g>
						<g id="组_21468" transform="translate(137.402 224.553)">
							
								<rect id="矩形_2250" x="-10184.3" y="2133" transform="matrix(0.4871 -0.8733 0.8733 0.4871 -7362.9648 -7636.6968)" width="1.9" height="634.8"/>
						</g>
					</g>
					<g id="组_21471" transform="translate(1514.894 534.12)">
						<g id="组_21470">
							<path id="路径_37399" d="M-10009,2412.9l-452-117.9v1.3l452,118.5V2412.9z"/>
						</g>
					</g>
					<g id="组_21477" transform="translate(924.091 497.556)">
						<g id="组_21472" transform="translate(742.734 341.056)">
							<path id="路径_37400" d="M-10160.9,2295l-300.1,96.5l0.6,1.9l299.4-96.5L-10160.9,2295z"/>
						</g>
						<g id="组_21473" transform="translate(590.173 36.564)">
							<path id="路径_37401" d="M-10308.4,2697.2l-152.6-401.6l1.3-0.6l152.6,401.6L-10308.4,2697.2z"/>
						</g>
						<g id="组_21474" transform="translate(441.745 405.549)">
							
								<rect id="矩形_2251" x="-10311.4" y="2160.5" transform="matrix(0.1046 -0.9945 0.9945 0.1046 -11531.0674 -8183.9131)" width="1.9" height="302.6"/>
						</g>
						<g id="组_21475" transform="translate(742.734)">
							<path id="路径_37402" d="M-10160.9,2295l-300.1,438.1l1.3,0.6l298.8-436.2V2295z"/>
						</g>
						<g id="组_21476" transform="translate(0 304.675)">
							
								<rect id="矩形_2252" x="-10090.2" y="1985.1" transform="matrix(0.1769 -0.9842 0.9842 0.1769 -10629.6729 -7985.9512)" width="1.3" height="754.6"/>
						</g>
					</g>
				</g>
				<g id="组_21479" transform="translate(62.717)">
					<path id="路径_37403" d="M-10025.1,2621.3c-4.4,1.2-8.9-1.3-10.1-5.7c-1.2-4.4,1.3-8.9,5.7-10.1c4.4-1.2,8.9,1.3,10.1,5.7
						C-10018.1,2614.9-10020.6,2620-10025.1,2621.3z"/>
					<path id="路径_37404" d="M-9560.4,2536.1c-4.4,1.2-8.9-1.3-10.1-5.7c-1.2-4.4,1.3-8.9,5.7-10.1c4.4-1.2,8.9,1.3,10.1,5.7
						C-9554.1,2530.5-9556.7,2534.9-9560.4,2536.1z"/>
					<path id="路径_37405" d="M-10025.1,2621.3c-4.4,1.2-8.9-1.3-10.1-5.7c-1.2-4.4,1.3-8.9,5.7-10.1c4.4-1.2,8.9,1.3,10.1,5.7
						C-10018.1,2614.9-10020.6,2620-10025.1,2621.3z"/>
					<path id="路径_37406" d="M-9560.4,2536.1c-4.4,1.2-8.9-1.3-10.1-5.7c-1.2-4.4,1.3-8.9,5.7-10.1c4.4-1.2,8.9,1.3,10.1,5.7
						C-9554.1,2530.5-9556.7,2534.9-9560.4,2536.1z"/>
					<path id="路径_37407" d="M-9560.4,2536.1c-4.4,1.2-8.9-1.3-10.1-5.7c-1.2-4.4,1.3-8.9,5.7-10.1c4.4-1.2,8.9,1.3,10.1,5.7
						C-9554.1,2530.5-9556.7,2534.9-9560.4,2536.1z"/>
					<path id="路径_37408" d="M-9548.5,2343.9c-4.4,1.2-8.9-1.3-10.1-5.7s1.3-8.9,5.7-10.1c4.4-1.2,8.9,1.3,10.1,5.7
						C-9541.5,2337.6-9544,2342.6-9548.5,2343.9z"/>
					<path id="路径_37409" d="M-10025.1,2621.3c-4.4,1.2-8.9-1.3-10.1-5.7c-1.2-4.4,1.3-8.9,5.7-10.1c4.4-1.2,8.9,1.3,10.1,5.7
						C-10018.1,2614.9-10020.6,2620-10025.1,2621.3z"/>
					<path id="路径_37410" d="M-9548.5,2343.9c-4.4,1.2-8.9-1.3-10.1-5.7s1.3-8.9,5.7-10.1c4.4-1.2,8.9,1.3,10.1,5.7
						C-9541.5,2337.6-9544,2342.6-9548.5,2343.9z"/>
					<path id="路径_37411" d="M-10025.1,2621.3c-4.4,1.2-8.9-1.3-10.1-5.7c-1.2-4.4,1.3-8.9,5.7-10.1c4.4-1.2,8.9,1.3,10.1,5.7
						C-10018.1,2614.9-10020.6,2620-10025.1,2621.3z"/>
					<path id="路径_37412" d="M-9548.5,2343.9c-4.4,1.2-8.9-1.3-10.1-5.7s1.3-8.9,5.7-10.1c4.4-1.2,8.9,1.3,10.1,5.7
						C-9541.5,2337.6-9544,2342.6-9548.5,2343.9z"/>
					<path id="路径_37413" d="M-9548.5,2343.9c-4.4,1.2-8.9-1.3-10.1-5.7s1.3-8.9,5.7-10.1c4.4-1.2,8.9,1.3,10.1,5.7
						C-9541.5,2337.6-9544,2342.6-9548.5,2343.9z"/>
					<path id="路径_37414" d="M-9698.5,2447.9c-4.4,1.2-8.9-1.3-10.1-5.7c-1.2-4.4,1.3-8.9,5.7-10.1c4.4-1.2,8.9,1.3,10.1,5.7
						C-9691.6,2441.6-9694.1,2446.6-9698.5,2447.9z"/>
					<path id="路径_37415" d="M-9560.4,2536.1c-4.4,1.2-8.9-1.3-10.1-5.7c-1.2-4.4,1.3-8.9,5.7-10.1c4.4-1.2,8.9,1.3,10.1,5.7
						C-9554.1,2530.5-9556.7,2534.9-9560.4,2536.1z"/>
					<path id="路径_37416" d="M-9698.5,2447.9c-4.4,1.2-8.9-1.3-10.1-5.7c-1.2-4.4,1.3-8.9,5.7-10.1c4.4-1.2,8.9,1.3,10.1,5.7
						C-9691.6,2441.6-9694.1,2446.6-9698.5,2447.9z"/>
					<path id="路径_37417" d="M-10025.1,2621.3c-4.4,1.2-8.9-1.3-10.1-5.7c-1.2-4.4,1.3-8.9,5.7-10.1c4.4-1.2,8.9,1.3,10.1,5.7
						C-10018.1,2614.9-10020.6,2620-10025.1,2621.3z"/>
					<path id="路径_37418" d="M-9698.5,2447.9c-4.4,1.2-8.9-1.3-10.1-5.7c-1.2-4.4,1.3-8.9,5.7-10.1c4.4-1.2,8.9,1.3,10.1,5.7
						C-9691.6,2441.6-9694.1,2446.6-9698.5,2447.9z"/>
					<path id="路径_37419" d="M-10025.1,2621.3c-4.4,1.2-8.9-1.3-10.1-5.7c-1.2-4.4,1.3-8.9,5.7-10.1c4.4-1.2,8.9,1.3,10.1,5.7
						C-10018.1,2614.9-10020.6,2620-10025.1,2621.3z"/>
					<path id="路径_37420" d="M-9698.5,2447.9c-4.4,1.2-8.9-1.3-10.1-5.7c-1.2-4.4,1.3-8.9,5.7-10.1c4.4-1.2,8.9,1.3,10.1,5.7
						C-9691.6,2441.6-9694.1,2446.6-9698.5,2447.9z"/>
					<path id="路径_37421" d="M-10025.1,2621.3c-4.4,1.2-8.9-1.3-10.1-5.7c-1.2-4.4,1.3-8.9,5.7-10.1c4.4-1.2,8.9,1.3,10.1,5.7
						C-10018.1,2614.9-10020.6,2620-10025.1,2621.3z"/>
					<path id="路径_37422" d="M-10025.1,2621.3c-4.4,1.2-8.9-1.3-10.1-5.7c-1.2-4.4,1.3-8.9,5.7-10.1c4.4-1.2,8.9,1.3,10.1,5.7
						C-10018.1,2614.9-10020.6,2620-10025.1,2621.3z"/>
					<path id="路径_37423" d="M-10450.6,2574.6c-4.3,1.3-8.8-1.2-10-5.5c0-0.1,0-0.1,0-0.2c-1.3-4.3,1.2-8.8,5.5-10
						c0.1,0,0.1,0,0.2,0c4.3-1.3,8.8,1.2,10,5.5c0,0.1,0,0.1,0,0.2C-10443.7,2568.3-10446.2,2573.3-10450.6,2574.6z"/>
					<path id="路径_37424" d="M-10450.6,2574.6c-4.3,1.3-8.8-1.2-10-5.5c0-0.1,0-0.1,0-0.2c-1.3-4.3,1.2-8.8,5.5-10
						c0.1,0,0.1,0,0.2,0c4.3-1.3,8.8,1.2,10,5.5c0,0.1,0,0.1,0,0.2C-10443.7,2568.3-10446.2,2573.3-10450.6,2574.6z"/>
					<path id="路径_37425" d="M-9698.5,2447.9c-4.4,1.2-8.9-1.3-10.1-5.7c-1.2-4.4,1.3-8.9,5.7-10.1c4.4-1.2,8.9,1.3,10.1,5.7
						C-9691.6,2441.6-9694.1,2446.6-9698.5,2447.9z"/>
					<path id="路径_37426" d="M-10450.6,2574.6c-4.3,1.3-8.8-1.2-10-5.5c0-0.1,0-0.1,0-0.2c-1.3-4.3,1.2-8.8,5.5-10
						c0.1,0,0.1,0,0.2,0c4.3-1.3,8.8,1.2,10,5.5c0,0.1,0,0.1,0,0.2C-10443.7,2568.3-10446.2,2573.3-10450.6,2574.6z"/>
					<path id="路径_37427" d="M-10450.6,2574.6c-4.3,1.3-8.8-1.2-10-5.5c0-0.1,0-0.1,0-0.2c-1.3-4.3,1.2-8.8,5.5-10
						c0.1,0,0.1,0,0.2,0c4.3-1.3,8.8,1.2,10,5.5c0,0.1,0,0.1,0,0.2C-10443.7,2568.3-10446.2,2573.3-10450.6,2574.6z"/>
					<path id="路径_37428" d="M-10025.1,2621.3c-4.4,1.2-8.9-1.3-10.1-5.7c-1.2-4.4,1.3-8.9,5.7-10.1c4.4-1.2,8.9,1.3,10.1,5.7
						C-10018.1,2614.9-10020.6,2620-10025.1,2621.3z"/>
					<path id="路径_37429" d="M-10450.6,2574.6c-4.3,1.3-8.8-1.2-10-5.5c0-0.1,0-0.1,0-0.2c-1.3-4.3,1.2-8.8,5.5-10
						c0.1,0,0.1,0,0.2,0c4.3-1.3,8.8,1.2,10,5.5c0,0.1,0,0.1,0,0.2C-10443.7,2568.3-10446.2,2573.3-10450.6,2574.6z"/>
					<path id="路径_37430" d="M-10025.1,2621.3c-4.4,1.2-8.9-1.3-10.1-5.7c-1.2-4.4,1.3-8.9,5.7-10.1c4.4-1.2,8.9,1.3,10.1,5.7
						C-10018.1,2614.9-10020.6,2620-10025.1,2621.3z"/>
					<path id="路径_37431" d="M-10450.6,2574.6c-4.3,1.3-8.8-1.2-10-5.5c0-0.1,0-0.1,0-0.2c-1.3-4.3,1.2-8.8,5.5-10
						c0.1,0,0.1,0,0.2,0c4.3-1.3,8.8,1.2,10,5.5c0,0.1,0,0.1,0,0.2C-10443.7,2568.3-10446.2,2573.3-10450.6,2574.6z"/>
					<path id="路径_37432" d="M-9698.5,2447.9c-4.4,1.2-8.9-1.3-10.1-5.7c-1.2-4.4,1.3-8.9,5.7-10.1c4.4-1.2,8.9,1.3,10.1,5.7
						C-9691.6,2441.6-9694.1,2446.6-9698.5,2447.9z"/>
					<path id="路径_37433" d="M-9597,3113c-4.4,1.2-8.9-1.3-10.1-5.7c-1.2-4.4,1.3-8.9,5.7-10.1c4.4-1.2,8.9,1.3,10.1,5.7
						c1.3,4.3-1.2,8.8-5.5,10C-9596.9,3112.9-9596.9,3113-9597,3113z"/>
					<path id="路径_37434" d="M-9548.5,2343.9c-4.4,1.2-8.9-1.3-10.1-5.7s1.3-8.9,5.7-10.1c4.4-1.2,8.9,1.3,10.1,5.7
						C-9541.5,2337.6-9544,2342.6-9548.5,2343.9z"/>
					<path id="路径_37435" d="M-9597,3113c-4.4,1.2-8.9-1.3-10.1-5.7c-1.2-4.4,1.3-8.9,5.7-10.1c4.4-1.2,8.9,1.3,10.1,5.7
						c1.3,4.3-1.2,8.8-5.5,10C-9596.9,3112.9-9596.9,3113-9597,3113z"/>
					<path id="路径_37436" d="M-9560.4,2536.1c-4.4,1.2-8.9-1.3-10.1-5.7c-1.2-4.4,1.3-8.9,5.7-10.1c4.4-1.2,8.9,1.3,10.1,5.7
						C-9554.1,2530.5-9556.7,2534.9-9560.4,2536.1z"/>
					<path id="路径_37437" d="M-9597,3113c-4.4,1.2-8.9-1.3-10.1-5.7c-1.2-4.4,1.3-8.9,5.7-10.1c4.4-1.2,8.9,1.3,10.1,5.7
						c1.3,4.3-1.2,8.8-5.5,10C-9596.9,3112.9-9596.9,3113-9597,3113z"/>
					<path id="路径_37438" d="M-10025.1,2621.3c-4.4,1.2-8.9-1.3-10.1-5.7c-1.2-4.4,1.3-8.9,5.7-10.1c4.4-1.2,8.9,1.3,10.1,5.7
						C-10018.1,2614.9-10020.6,2620-10025.1,2621.3z"/>
					<path id="路径_37439" d="M-9597,3113c-4.4,1.2-8.9-1.3-10.1-5.7c-1.2-4.4,1.3-8.9,5.7-10.1c4.4-1.2,8.9,1.3,10.1,5.7
						c1.3,4.3-1.2,8.8-5.5,10C-9596.9,3112.9-9596.9,3113-9597,3113z"/>
					<path id="路径_37440" d="M-10025.1,2621.3c-4.4,1.2-8.9-1.3-10.1-5.7c-1.2-4.4,1.3-8.9,5.7-10.1c4.4-1.2,8.9,1.3,10.1,5.7
						C-10018.1,2614.9-10020.6,2620-10025.1,2621.3z"/>
					<path id="路径_37441" d="M-9597,3113c-4.4,1.2-8.9-1.3-10.1-5.7c-1.2-4.4,1.3-8.9,5.7-10.1c4.4-1.2,8.9,1.3,10.1,5.7
						c1.3,4.3-1.2,8.8-5.5,10C-9596.9,3112.9-9596.9,3113-9597,3113z"/>
					<path id="路径_37442" d="M-9597,3113c-4.4,1.2-8.9-1.3-10.1-5.7c-1.2-4.4,1.3-8.9,5.7-10.1c4.4-1.2,8.9,1.3,10.1,5.7
						c1.3,4.3-1.2,8.8-5.5,10C-9596.9,3112.9-9596.9,3113-9597,3113z"/>
					<path id="路径_37443" d="M-9991,3203.1c-4.4,1.2-8.9-1.3-10.1-5.7c-1.2-4.4,1.3-8.9,5.7-10.1c4.4-1.2,8.9,1.3,10.1,5.7
						c1.3,4.3-1.2,8.8-5.5,10C-9990.9,3203.1-9991,3203.1-9991,3203.1z"/>
					<path id="路径_37444" d="M-10450.6,2574.6c-4.3,1.3-8.8-1.2-10-5.5c0-0.1,0-0.1,0-0.2c-1.3-4.3,1.2-8.8,5.5-10
						c0.1,0,0.1,0,0.2,0c4.3-1.3,8.8,1.2,10,5.5c0,0.1,0,0.1,0,0.2C-10443.7,2568.3-10446.2,2573.3-10450.6,2574.6z"/>
					<path id="路径_37445" d="M-9991,3203.1c-4.4,1.2-8.9-1.3-10.1-5.7c-1.2-4.4,1.3-8.9,5.7-10.1c4.4-1.2,8.9,1.3,10.1,5.7
						c1.3,4.3-1.2,8.8-5.5,10C-9990.9,3203.1-9991,3203.1-9991,3203.1z"/>
					<path id="路径_37446" d="M-9991,3203.1c-4.4,1.2-8.9-1.3-10.1-5.7c-1.2-4.4,1.3-8.9,5.7-10.1c4.4-1.2,8.9,1.3,10.1,5.7
						c1.3,4.3-1.2,8.8-5.5,10C-9990.9,3203.1-9991,3203.1-9991,3203.1z"/>
					<path id="路径_37447" d="M-9698.5,2447.9c-4.4,1.2-8.9-1.3-10.1-5.7c-1.2-4.4,1.3-8.9,5.7-10.1c4.4-1.2,8.9,1.3,10.1,5.7
						C-9691.6,2441.6-9694.1,2446.6-9698.5,2447.9z"/>
					<path id="路径_37448" d="M-9991,3203.1c-4.4,1.2-8.9-1.3-10.1-5.7c-1.2-4.4,1.3-8.9,5.7-10.1c4.4-1.2,8.9,1.3,10.1,5.7
						c1.3,4.3-1.2,8.8-5.5,10C-9990.9,3203.1-9991,3203.1-9991,3203.1z"/>
					<path id="路径_37449" d="M-9560.4,2536.1c-4.4,1.2-8.9-1.3-10.1-5.7c-1.2-4.4,1.3-8.9,5.7-10.1c4.4-1.2,8.9,1.3,10.1,5.7
						C-9554.1,2530.5-9556.7,2534.9-9560.4,2536.1z"/>
					<path id="路径_37450" d="M-9991,3203.1c-4.4,1.2-8.9-1.3-10.1-5.7c-1.2-4.4,1.3-8.9,5.7-10.1c4.4-1.2,8.9,1.3,10.1,5.7
						c1.3,4.3-1.2,8.8-5.5,10C-9990.9,3203.1-9991,3203.1-9991,3203.1z"/>
					<path id="路径_37451" d="M-10025.1,2621.3c-4.4,1.2-8.9-1.3-10.1-5.7c-1.2-4.4,1.3-8.9,5.7-10.1c4.4-1.2,8.9,1.3,10.1,5.7
						C-10018.1,2614.9-10020.6,2620-10025.1,2621.3z"/>
					<path id="路径_37452" d="M-9991,3203.1c-4.4,1.2-8.9-1.3-10.1-5.7c-1.2-4.4,1.3-8.9,5.7-10.1c4.4-1.2,8.9,1.3,10.1,5.7
						c1.3,4.3-1.2,8.8-5.5,10C-9990.9,3203.1-9991,3203.1-9991,3203.1z"/>
					<path id="路径_37453" d="M-10025.1,2621.3c-4.4,1.2-8.9-1.3-10.1-5.7c-1.2-4.4,1.3-8.9,5.7-10.1c4.4-1.2,8.9,1.3,10.1,5.7
						C-10018.1,2614.9-10020.6,2620-10025.1,2621.3z"/>
					<path id="路径_37454" d="M-9991,3203.1c-4.4,1.2-8.9-1.3-10.1-5.7c-1.2-4.4,1.3-8.9,5.7-10.1c4.4-1.2,8.9,1.3,10.1,5.7
						c1.3,4.3-1.2,8.8-5.5,10C-9990.9,3203.1-9991,3203.1-9991,3203.1z"/>
					<path id="路径_37455" d="M-9146.3,2311.1c-4.4,1.2-8.9-1.3-10.1-5.7s1.3-8.9,5.7-10.1c4.4-1.2,8.9,1.3,10.1,5.7
						c1.3,4.3-1.2,8.8-5.5,10C-9146.1,2311.1-9146.2,2311.1-9146.3,2311.1z"/>
					<path id="路径_37456" d="M-9698.5,2447.9c-4.4,1.2-8.9-1.3-10.1-5.7c-1.2-4.4,1.3-8.9,5.7-10.1c4.4-1.2,8.9,1.3,10.1,5.7
						C-9691.6,2441.6-9694.1,2446.6-9698.5,2447.9z"/>
					<path id="路径_37457" d="M-9146.3,2311.1c-4.4,1.2-8.9-1.3-10.1-5.7s1.3-8.9,5.7-10.1c4.4-1.2,8.9,1.3,10.1,5.7
						c1.3,4.3-1.2,8.8-5.5,10C-9146.1,2311.1-9146.2,2311.1-9146.3,2311.1z"/>
					<path id="路径_37458" d="M-9548.5,2343.9c-4.4,1.2-8.9-1.3-10.1-5.7s1.3-8.9,5.7-10.1c4.4-1.2,8.9,1.3,10.1,5.7
						C-9541.5,2337.6-9544,2342.6-9548.5,2343.9z"/>
					<path id="路径_37459" d="M-9146.3,2311.1c-4.4,1.2-8.9-1.3-10.1-5.7s1.3-8.9,5.7-10.1c4.4-1.2,8.9,1.3,10.1,5.7
						c1.3,4.3-1.2,8.8-5.5,10C-9146.1,2311.1-9146.2,2311.1-9146.3,2311.1z"/>
					<path id="路径_37460" d="M-9560.4,2536.1c-4.4,1.2-8.9-1.3-10.1-5.7c-1.2-4.4,1.3-8.9,5.7-10.1c4.4-1.2,8.9,1.3,10.1,5.7
						C-9554.1,2530.5-9556.7,2534.9-9560.4,2536.1z"/>
					<path id="路径_37461" d="M-9146.3,2311.1c-4.4,1.2-8.9-1.3-10.1-5.7s1.3-8.9,5.7-10.1c4.4-1.2,8.9,1.3,10.1,5.7
						c1.3,4.3-1.2,8.8-5.5,10C-9146.1,2311.1-9146.2,2311.1-9146.3,2311.1z"/>
					<path id="路径_37462" d="M-9597,3113c-4.4,1.2-8.9-1.3-10.1-5.7c-1.2-4.4,1.3-8.9,5.7-10.1c4.4-1.2,8.9,1.3,10.1,5.7
						c1.3,4.3-1.2,8.8-5.5,10C-9596.9,3112.9-9596.9,3113-9597,3113z"/>
					<path id="路径_37463" d="M-9155.1,3215.1c-4.4,1.2-8.9-1.3-10.1-5.7c-1.2-4.4,1.3-8.9,5.7-10.1c4.4-1.2,8.9,1.3,10.1,5.7
						c1.3,4.3-1.2,8.8-5.5,10C-9155,3215.1-9155,3215.1-9155.1,3215.1z"/>
					<path id="路径_37464" d="M-9560.4,2536.1c-4.4,1.2-8.9-1.3-10.1-5.7c-1.2-4.4,1.3-8.9,5.7-10.1c4.4-1.2,8.9,1.3,10.1,5.7
						C-9554.1,2530.5-9556.7,2534.9-9560.4,2536.1z"/>
					<path id="路径_37465" d="M-9155.1,3215.1c-4.4,1.2-8.9-1.3-10.1-5.7c-1.2-4.4,1.3-8.9,5.7-10.1c4.4-1.2,8.9,1.3,10.1,5.7
						c1.3,4.3-1.2,8.8-5.5,10C-9155,3215.1-9155,3215.1-9155.1,3215.1z"/>
					<path id="路径_37466" d="M-9155.1,3215.1c-4.4,1.2-8.9-1.3-10.1-5.7c-1.2-4.4,1.3-8.9,5.7-10.1c4.4-1.2,8.9,1.3,10.1,5.7
						c1.3,4.3-1.2,8.8-5.5,10C-9155,3215.1-9155,3215.1-9155.1,3215.1z"/>
					<path id="路径_37467" d="M-9006.3,2845c-4.4,1.2-8.9-1.3-10.1-5.7c-1.2-4.4,1.3-8.9,5.7-10.1c4.4-1.2,8.9,1.3,10.1,5.7
						c1.3,4.3-1.2,8.8-5.5,10C-9006.2,2845-9006.2,2845-9006.3,2845z"/>
					<path id="路径_37468" d="M-9146.3,2311.1c-4.4,1.2-8.9-1.3-10.1-5.7s1.3-8.9,5.7-10.1c4.4-1.2,8.9,1.3,10.1,5.7
						c1.3,4.3-1.2,8.8-5.5,10C-9146.1,2311.1-9146.2,2311.1-9146.3,2311.1z"/>
					<path id="路径_37469" d="M-9006.3,2845c-4.4,1.2-8.9-1.3-10.1-5.7c-1.2-4.4,1.3-8.9,5.7-10.1c4.4-1.2,8.9,1.3,10.1,5.7
						c1.3,4.3-1.2,8.8-5.5,10C-9006.2,2845-9006.2,2845-9006.3,2845z"/>
					<path id="路径_37470" d="M-9006.3,2845c-4.4,1.2-8.9-1.3-10.1-5.7c-1.2-4.4,1.3-8.9,5.7-10.1c4.4-1.2,8.9,1.3,10.1,5.7
						c1.3,4.3-1.2,8.8-5.5,10C-9006.2,2845-9006.2,2845-9006.3,2845z"/>
					<path id="路径_37471" d="M-9597,3113c-4.4,1.2-8.9-1.3-10.1-5.7c-1.2-4.4,1.3-8.9,5.7-10.1c4.4-1.2,8.9,1.3,10.1,5.7
						c1.3,4.3-1.2,8.8-5.5,10C-9596.9,3112.9-9596.9,3113-9597,3113z"/>
					<path id="路径_37472" d="M-9006.3,2845c-4.4,1.2-8.9-1.3-10.1-5.7c-1.2-4.4,1.3-8.9,5.7-10.1c4.4-1.2,8.9,1.3,10.1,5.7
						c1.3,4.3-1.2,8.8-5.5,10C-9006.2,2845-9006.2,2845-9006.3,2845z"/>
					<path id="路径_37473" d="M-9698.5,2447.9c-4.4,1.2-8.9-1.3-10.1-5.7c-1.2-4.4,1.3-8.9,5.7-10.1c4.4-1.2,8.9,1.3,10.1,5.7
						C-9691.6,2441.6-9694.1,2446.6-9698.5,2447.9z"/>
					<path id="路径_37474" d="M-9006.3,2845c-4.4,1.2-8.9-1.3-10.1-5.7c-1.2-4.4,1.3-8.9,5.7-10.1c4.4-1.2,8.9,1.3,10.1,5.7
						c1.3,4.3-1.2,8.8-5.5,10C-9006.2,2845-9006.2,2845-9006.3,2845z"/>
					<path id="路径_37475" d="M-9548.5,2343.9c-4.4,1.2-8.9-1.3-10.1-5.7s1.3-8.9,5.7-10.1c4.4-1.2,8.9,1.3,10.1,5.7
						C-9541.5,2337.6-9544,2342.6-9548.5,2343.9z"/>
					<path id="路径_37476" d="M-9006.3,2845c-4.4,1.2-8.9-1.3-10.1-5.7c-1.2-4.4,1.3-8.9,5.7-10.1c4.4-1.2,8.9,1.3,10.1,5.7
						c1.3,4.3-1.2,8.8-5.5,10C-9006.2,2845-9006.2,2845-9006.3,2845z"/>
					<path id="路径_37477" d="M-9560.4,2536.1c-4.4,1.2-8.9-1.3-10.1-5.7c-1.2-4.4,1.3-8.9,5.7-10.1c4.4-1.2,8.9,1.3,10.1,5.7
						C-9554.1,2530.5-9556.7,2534.9-9560.4,2536.1z"/>
					<path id="路径_37478" d="M-9006.3,2845c-4.4,1.2-8.9-1.3-10.1-5.7c-1.2-4.4,1.3-8.9,5.7-10.1c4.4-1.2,8.9,1.3,10.1,5.7
						c1.3,4.3-1.2,8.8-5.5,10C-9006.2,2845-9006.2,2845-9006.3,2845z"/>
					<path id="路径_37479" d="M-9006.3,2845c-4.4,1.2-8.9-1.3-10.1-5.7c-1.2-4.4,1.3-8.9,5.7-10.1c4.4-1.2,8.9,1.3,10.1,5.7
						c1.3,4.3-1.2,8.8-5.5,10C-9006.2,2845-9006.2,2845-9006.3,2845z"/>
					<path id="路径_37480" d="M-8854.4,3246.6c-4.4,1.2-8.9-1.3-10.1-5.7c-1.2-4.4,1.3-8.9,5.7-10.1c4.4-1.2,8.9,1.3,10.1,5.7
						c1.3,4.3-1.2,8.8-5.5,10C-8854.3,3246.6-8854.3,3246.6-8854.4,3246.6z"/>
					<path id="路径_37481" d="M-9006.3,2845c-4.4,1.2-8.9-1.3-10.1-5.7c-1.2-4.4,1.3-8.9,5.7-10.1c4.4-1.2,8.9,1.3,10.1,5.7
						c1.3,4.3-1.2,8.8-5.5,10C-9006.2,2845-9006.2,2845-9006.3,2845z"/>
					<path id="路径_37482" d="M-8854.4,3246.6c-4.4,1.2-8.9-1.3-10.1-5.7c-1.2-4.4,1.3-8.9,5.7-10.1c4.4-1.2,8.9,1.3,10.1,5.7
						c1.3,4.3-1.2,8.8-5.5,10C-8854.3,3246.6-8854.3,3246.6-8854.4,3246.6z"/>
					<path id="路径_37483" d="M-9155.1,3215.1c-4.4,1.2-8.9-1.3-10.1-5.7c-1.2-4.4,1.3-8.9,5.7-10.1c4.4-1.2,8.9,1.3,10.1,5.7
						c1.3,4.3-1.2,8.8-5.5,10C-9155,3215.1-9155,3215.1-9155.1,3215.1z"/>
					<path id="路径_37484" d="M-8854.4,3246.6c-4.4,1.2-8.9-1.3-10.1-5.7c-1.2-4.4,1.3-8.9,5.7-10.1c4.4-1.2,8.9,1.3,10.1,5.7
						c1.3,4.3-1.2,8.8-5.5,10C-8854.3,3246.6-8854.3,3246.6-8854.4,3246.6z"/>
					<path id="路径_37485" d="M-8854.4,3246.6c-4.4,1.2-8.9-1.3-10.1-5.7c-1.2-4.4,1.3-8.9,5.7-10.1c4.4-1.2,8.9,1.3,10.1,5.7
						c1.3,4.3-1.2,8.8-5.5,10C-8854.3,3246.6-8854.3,3246.6-8854.4,3246.6z"/>
					<path id="路径_37486" d="M-9597,3113c-4.4,1.2-8.9-1.3-10.1-5.7c-1.2-4.4,1.3-8.9,5.7-10.1c4.4-1.2,8.9,1.3,10.1,5.7
						c1.3,4.3-1.2,8.8-5.5,10C-9596.9,3112.9-9596.9,3113-9597,3113z"/>
					<path id="路径_37487" d="M-8854.4,3246.6c-4.4,1.2-8.9-1.3-10.1-5.7c-1.2-4.4,1.3-8.9,5.7-10.1c4.4-1.2,8.9,1.3,10.1,5.7
						c1.3,4.3-1.2,8.8-5.5,10C-8854.3,3246.6-8854.3,3246.6-8854.4,3246.6z"/>
				</g>
			</g>
		</g>
	</g>
	<g id="_8-关于我们" transform="translate(472.643 148.728)">
		<path id="路径_38118" class="st2" d="M-9337.1,2736.9l-19.4,47.4l58.6,31.1l78.6-12.7l19.6-44l-56.9-33.8L-9337.1,2736.9z"/>
		<path id="路径_38119" class="st3" d="M-9330.3,2742.5l-16.6,39.4l52.2,27l69.4-12.2l16.1-35.8l-49.1-29.2L-9330.3,2742.5z"/>
		<g id="组_21568" transform="translate(572.865 219.874)">
			<path id="路径_38120" class="st4" d="M-9990.7,2413.1c-40.5-72.9-117.3-118.2-200.8-118.1c-126.8,0-229.6,102.8-229.6,229.6
				c0,81.6,43.3,157.2,113.8,198.3"/>
			<path id="路径_38121" class="st4" d="M-10208,2753.5c5.5,0.4,11,0.6,16.6,0.6c117.1,0,213.7-87.6,227.8-200.9"/>
			<path id="路径_38122" class="st5" d="M-10129.3,2734.2c90.5-26.8,156.5-110.5,156.5-209.7c0-17.7-2.1-35.4-6.4-52.6"/>
			<path id="路径_38123" class="st5" d="M-10255.5,2315.5c-89.5,27.4-154.6,110.6-154.6,209.1c0,16.2,1.8,32.4,5.3,48.2"/>
			<path id="路径_38124" class="st4" d="M-10321.4,2378.9c-41.8,37-65.8,90.2-65.7,146.1c0,107.8,87.4,195.2,195.2,195.2
				s195.2-87.4,195.2-195.2c0.1-45.3-15.7-89.2-44.6-124.2"/>
			<path id="路径_38125" class="st6" d="M-10115.7,2695.6c91.6-41.1,134.6-146.9,97.7-240.3"/>
			<path id="路径_38126" class="st6" d="M-10115.7,2695.6"/>
			<path id="路径_38127" class="st7" d="M-10090.1,2367c-30.4-19.8-65.9-30.3-102.2-30.3c-103.6,0-187.5,84-187.5,187.5
				c0,102.1,81.6,185.2,183.2,187.5"/>
			<path id="路径_38128" class="st6" d="M-10265.5,2359.8c-90.5,40.4-131.2,146.6-90.7,237.1c40.4,90.5,146.6,131.2,237.1,90.7
				c18.4-8.2,35.4-19.5,50-33.4"/>
			<path id="路径_38129" class="st6" d="M-10068.2,2394c-32.2-30.9-74.8-48.6-119.4-49.8"/>
			<path id="路径_38130" class="st6" d="M-10025.5,2590.3c8.2-20.6,12.7-38.1,12.7-61.6"/>
			<path id="路径_38131" class="st6" d="M-10093.6,2664.4"/>
			<path id="路径_38132" class="st6" d="M-10362.8,2545.4c12,94.2,98.1,160.8,192.2,148.7c27.7-3.5,54.1-13.8,77-29.8"/>
			<path id="路径_38133" class="st6" d="M-10129.3,2363.8c-40.3-15.8-85.2-15.9-125.6-0.2"/>
			<path id="路径_38134" class="st6" d="M-10353,2560.5c19.9,89,108.1,145,197.1,125.1c8.4-1.9,16.7-4.4,24.7-7.6"/>
			<path id="路径_38135" class="st6" d="M-10159.6,2363c-36.9-7.5-75.3-2-108.7,15.4"/>
			<path id="路径_38136" class="st5" d="M-10250.6,2670.6c51.5,20.5,110,12.4,154-21.3"/>
			<path id="路径_38137" class="st7" d="M-10132.8,2378.7c-37.6-15.3-79.6-15.5-117.4-0.6"/>
			<path id="路径_38138" class="st4" d="M-10386.5,2622.1c39.5,79,122.7,126.5,210.9,120.3c1.3-0.1,2.5-0.2,3.8-0.3"/>
		</g>
		<g id="组_21569" transform="translate(585.458 234.915)">
			<circle id="椭圆_1730" class="st8" cx="-10002.2" cy="2400.2" r="3.9"/>
			<circle id="椭圆_1731" cx="-10100.9" cy="2353.5" r="3.2"/>
			<circle id="椭圆_1732" cx="-10080" cy="2380.3" r="2.9"/>
			<circle id="椭圆_1733" cx="-10201.9" cy="2329.4" r="2.9"/>
			<circle id="椭圆_1734" cx="-10140.5" cy="2349.6" r="3.2"/>
			<circle id="椭圆_1735" cx="-10170.2" cy="2348.8" r="3.2"/>
			<circle id="椭圆_1736" cx="-10145.4" cy="2363.8" r="2.3"/>
			<circle id="椭圆_1737" cx="-10263.7" cy="2363.6" r="2.3"/>
			<circle id="椭圆_1738" class="st9" cx="-10264.2" cy="2655.3" r="2.3"/>
			<circle id="椭圆_1739" cx="-10258.2" cy="2630.8" r="2.3"/>
			<circle id="椭圆_1740" class="st9" cx="-10109.2" cy="2634.3" r="2.3"/>
			<circle id="椭圆_1741" cx="-10282.3" cy="2363.8" r="3.2"/>
			<circle id="椭圆_1742" cx="-10269.6" cy="2349.6" r="3.2"/>
			<circle id="椭圆_1743" cx="-10277.6" cy="2344.7" r="2.8"/>
			<circle id="椭圆_1744" class="st8" cx="-10333.2" cy="2362.5" r="3.2"/>
			<circle id="椭圆_1745" class="st8" cx="-10054.3" cy="2385.8" r="3"/>
			<circle id="椭圆_1746" cx="-10031" cy="2439.1" r="3"/>
			<circle id="椭圆_1747" cx="-10025.4" cy="2512.4" r="2.6"/>
			<circle id="椭圆_1748" cx="-10038.7" cy="2576.5" r="2.6"/>
			<circle id="椭圆_1749" cx="-10080.5" cy="2638.7" r="2.6"/>
			<circle id="椭圆_1750" cx="-10207.7" cy="2696.8" r="2.8"/>
			<circle id="椭圆_1751" class="st9" cx="-10267.4" cy="2299.9" r="4.9"/>
			<circle id="椭圆_1752" class="st9" cx="-9992.9" cy="2455.1" r="4.5"/>
			<circle id="椭圆_1753" class="st8" cx="-9976.2" cy="2534.4" r="4.5"/>
			<circle id="椭圆_1754" class="st8" cx="-10220.6" cy="2738.4" r="4.5"/>
			<circle id="椭圆_1755" class="st8" cx="-10316.6" cy="2709.6" r="4.5"/>
			<circle id="椭圆_1756" class="st9" cx="-10416.5" cy="2561" r="4.5"/>
			<circle id="椭圆_1757" cx="-10375.9" cy="2528.5" r="3"/>
			<circle id="椭圆_1758" cx="-10366.1" cy="2542.7" r="3"/>
			<circle id="椭圆_1759" class="st8" cx="-10400.3" cy="2605.1" r="4.3"/>
			<circle id="椭圆_1760" cx="-10273.4" cy="2487.6" r="2.8"/>
			<circle id="椭圆_1761" cx="-10249.5" cy="2483" r="2.8"/>
			<circle id="椭圆_1762" cx="-10116.9" cy="2554.2" r="2.3"/>
			<circle id="椭圆_1763" cx="-10170.7" cy="2403.7" r="2.8"/>
			<circle id="椭圆_1764" cx="-10138.9" cy="2458.3" r="2.8"/>
			<circle id="椭圆_1765" cx="-10191.2" cy="2509.6" r="2.4"/>
			<circle id="椭圆_1766" cx="-10181" cy="2567.2" r="2.4"/>
			<circle id="椭圆_1767" cx="-10277.5" cy="2537.1" r="2.4"/>
			<circle id="椭圆_1768" cx="-10315.1" cy="2546.3" r="2.4"/>
			<circle id="椭圆_1769" cx="-10119.8" cy="2458.3" r="2.8"/>
			<circle id="椭圆_1770" cx="-10106.2" cy="2649.3" r="2.6"/>
			<circle id="椭圆_1771" cx="-10143.8" cy="2662.6" r="2.6"/>
			<circle id="椭圆_1772" cx="-10129.3" cy="2681" r="2.8"/>
			<circle id="椭圆_1773" class="st8" cx="-10181" cy="2726.6" r="4.5"/>
			<circle id="椭圆_1774" class="st9" cx="-10139.3" cy="2718.6" r="4.5"/>
		</g>
		<g id="组_21570" transform="translate(643.975 323.984)">
			<path id="路径_38139" class="st6" d="M-10373.6,2308.9l2.4-0.9l3.1-0.1l-0.9,1.8h-1.6v3.6h11.2c0,0,6.4-8.2,7.3-9.1
				c0.9-0.9,4.5-2.5,6.3-3.5s6.5-2.5,7.9-5.8h-14.1l-6.2,4.8l-2.7-0.7l-6.1,5.8l-1.4,1.3l-0.9,0.9"/>
			<path id="路径_38140" class="st4" d="M-10358.1,2318.7l3.5-4.9h5.6l8.8-7.7h14.6l5.6-4.1h18.9l0.8,10.7l6.1,0.1l-0.6,3.2
				l-1.9,5.6l-1.4,2.1h-3.3l-11.7,15.7h-10.6l-10.9,16.6h-10.4l-3.9-8.3l-0.6-3.5l2.5-2.3l3.6-0.5l1.9-2.8l-0.2-3.1l-11,0.1
				l-0.5-9.6l0.9-5.8l-10.9,0.1"/>
			<path id="路径_38141" class="st6" d="M-10365.2,2326.9l-9.7,20.6h4.8v4.6l-1.9,1.1l0.1,4.7l6.6,0.6l1.7,7.1h3.1l4.1-13.8
				l0.7-4.1l-1.4-0.2l-0.8-3.4l-4.3-0.5v-9h-4.9"/>
			<path id="路径_38142" class="st6" d="M-10244.6,2314.6c-1,0.6-23.4,0-23.4,0s-5.4,2-6.5,5.4c-1.1,3.4-1.1,8.9,5,8.9h9.5
				c0,0,8.3-3.6,9.3-7.5v-3.7"/>
			<path id="路径_38143" class="st7" d="M-10264.8,2339.2l5.4,9.2h7.1c0,0,0-8,7.1-9.2h9.3v12.4l-9.9,7.7h-8.1l-1.8-6.7h-21.1
				l-18.9,20.5l-0.6,8.7l6.3,6.4h11v-6.3l8.3-6.5h12.6"/>
			<path id="路径_38144" class="st6" d="M-10261.2,2337.9l7.2-6.3h24.7l8.4,4.9v4.4h-2.5v3l3.1,4.1h8.8l2.4-3.8v-5h5.5l2.6,7.3
				l1.9,11.5l1.3,5.7"/>
			<path id="路径_38145" class="st7" d="M-10263,2362.2v21l4.9,4.6h6.7l3.2-3.5v-2.4l-5-4.7v-5.1l3-1.3h14.7l8.1,7.3v7.9
				l-30.7,25.1h-6.7l-8.3-11.2h-22.8l-18.6,18.6v23.8"/>
			<path id="路径_38146" class="st7" d="M-10204,2346.7h16.3l4.3-11h23.8l1-4.9h28.1l8.3,11.7h2.7l4.3,12l5,14.8v14.7h-0.9
				l-4.4-14.3l-0.5-5l-3.4-13.5l-3.3-4.2h-1.8l2.4,11.3v19.1h-15.9"/>
			<path id="路径_38147" class="st7" d="M-10246.2,2410.4l18.7,30.9h13.2l1,9l-15,15.7l-1.5,21.4l-9.5,8.2l-0.3,7.9l-8.9,11.1
				h-9.9l-10.9-22.2v-4.9l7.2-8.9v-4.3l-14.2-27h-5.1l-6.5,6.3h-12.3l-7.7-6h-24.1"/>
			<path id="路径_38148" class="st6" d="M-10245.7,2418.3l8-6.6h5.9l14.3,21.9l4.2-0.9l10.9-9.3V2406"/>
			<path id="路径_38149" class="st6" d="M-10205.6,2417.6h-6.4l-8-12.8v-2.6l2-2.8h2.5l8.2,13l13.2,0.5l15.9,36.4h8.4"/>
			<path id="路径_38150" class="st6" d="M-10167.1,2444h-3.4v-5.7l9.3-15.9h11l-1.1,23l-2.3,11l0.5,6.1l1.8,3.1h4.3l2.3-3.1
				l-1.8-4.2l-1.4-3v-7.5"/>
			<path id="路径_38151" class="st7" d="M-10202.8,2400.2l0.5-5.7l4.5-3.4l55.2,0.5l3.5,8.7v6.6"/>
			<path id="路径_38152" class="st7" d="M-10405.3,2411.9h21.2l6.6-7.1l1.8-13.4l8.9-7.5v-10.9l-5.7-8.7h-5l-3,4.3l-1.8,9.8h-7.1
				l-0.2-6.4l7.7-13.9l0.9-5.5h-3.6l-5.2,3l-4.1,4.8l-3,14.3"/>
			<path id="路径_38153" class="st6" d="M-10324.2,2354.6l10.7-0.6l6.1-4.6v-3.3h-12l-7.2,5.5l-2,12.6"/>
			<path id="路径_38154" class="st6" d="M-10222.1,2483.8l7.5-7.3h3.6v13.8l-8.9,9.7h-23.1"/>
			<path id="路径_38155" class="st6" d="M-10180.1,2465.6h-12.5l-2.2-3.1v-7.1l2.2-3h2.7l0.3,8.4"/>
			<path id="路径_38156" class="st7" d="M-10139.1,2460.4l2.6-20.7h10.1l9.6-15.5v-17.5l-3.6-7.9h-3.1l-1,2.1l1,12l-7.8,14.4
				l-4.8,0.8l-1.5,3.1l-0.5,7.3l-0.9,5.4"/>
			<path id="路径_38157" class="st6" d="M-10145.9,2444l2.7-1.8l1.9-4.2v-11.4l10.3-15.2v-16.5h5.5l0.9-2.1v-9.2l-4.7-14.3
				l-2.1-7.4"/>
			<line id="直线_391" class="st6" x1="-10194.8" y1="2311.1" x2="-10187.8" y2="2311.1"/>
			<path id="路径_38158" class="st6" d="M-10328.6,2366.9l-0.9,5.7l-2.4,21.5"/>
			<path id="路径_38159" class="st6" d="M-10374.8,2382.3h17.2l1.8,4.8l-1.3,4l-8.3,8.7h-7.7"/>
			<path id="路径_38160" class="st6" d="M-10409.9,2420.2h3.2l1.4,3.9l1.4,19.4"/>
			<line id="直线_392" class="st6" x1="-10420" y1="2395.4" x2="-10402.7" y2="2395.9"/>
			<path id="路径_38161" class="st6" d="M-10384.4,2319.2l-9.8,14.8l0.6,0.1l2.2,0.1l-0.1,2.4l-2,2.6v3.2l4.4-0.1v2.7l-1.8,2.3v3
				h4.2l7.4-6.3v-2.7h-2.6l0.9-6.4l-7.4,0.7l5.4-12.1l-6.4-0.5"/>
			<path id="路径_38162" class="st6" d="M-10210.5,2330.8l-0.6-1.9l3.3-2.9l5-3.8h5.3v-2l-4.7-1.8l-2.8-2.6h-6.1l-7.6,6.7l0.8,5.6
				l1.7,5.5l1.7,1.2h12.3"/>
			<path id="路径_38163" class="st6" d="M-10158.8,2311.1c0,0,16.5,19.8,18.6,28.1"/>
			<path id="路径_38164" class="st6" d="M-10171,2330.8l9.7,25.1v9.7l-3.4,3.4h-9.1"/>
			<path id="路径_38165" class="st6" d="M-10125.9,2350h-7.2v5.6"/>
			<path id="路径_38166" class="st4" d="M-10129.5,2487.5l3.9-7.4l3.5,0.6l-1.9,15.1l-5.5,11.6l-10.6,12.8h-4.6l1.8-7.1l-9.7,0.7
				l2.3-11.2l2.3-10.4l16.7-14.6h5.2l0.1,1.5"/>
			<path id="路径_38167" class="st6" d="M-10129.9,2516.4v1.7l-15.6,15.3"/>
			<line id="直线_393" class="st6" x1="-10337.9" y1="2334.7" x2="-10327.3" y2="2334.7"/>
			<line id="直线_394" class="st6" x1="-10273.8" y1="2339.2" x2="-10268.8" y2="2339.2"/>
			<line id="直线_395" class="st6" x1="-10241.5" y1="2315" x2="-10233.5" y2="2315"/>
			<path id="路径_38168" class="st6" d="M-10185.7,2311.1h14.2l7.5,6.3l2.1,2.1v2.7h-11.8l-5-7.6"/>
			<path id="路径_38169" class="st7" d="M-10368.8,2457.3h24.9l5.1,6.8v8.3l-6.6,12.6h-11.2"/>
			<path id="路径_38170" class="st6" d="M-10360.6,2506.6l4.2,8l11.7,20.3l8.8,7.6l14.2-0.5"/>
			<path id="路径_38171" class="st6" d="M-10405.3,2351l-7.1,13.3v6.4l-3,14.7l-3,15.8l-1.3,18l11.3,16.6h13.6l3.1,3.7l0.7,14.7
				l6.8,26.4l13,13.6l6.8,16.9l15.1,25.2l15.6,12.9l1.7,0.6l0.6-2.3l-12.1-17.3v-6.5l7.7-25.6l-5.7-21.2l-26.4-32.5h-16.3l-2.1-2.9
				l-1.1-12.4l-0.9-3.3h-6l-2.2-2.3l0.7-17.4"/>
			<path id="路径_38172" class="st6" d="M-10416.6,2384.7c-1.4-0.3-2.9-0.5-4.4-0.6"/>
			<path id="路径_38173" class="st6" d="M-10392,2367.8h-7.7l1.1-5.8l2.7-5.8l1-6.2h-11l2.6-5l1.1-5l3.2-5.6"/>
			<path id="路径_38174" class="st6" d="M-10277.9,2457.3h15.9l10.6,19.2l6.8,1.6"/>
			<line id="直线_396" class="st6" x1="-10313.2" y1="2451.4" x2="-10313.2" y2="2457.3"/>
			<line id="直线_397" class="st6" x1="-10167.5" y1="2449.2" x2="-10161.3" y2="2449.2"/>
			<line id="直线_398" class="st6" x1="-10122.9" y1="2446.8" x2="-10124.6" y2="2456.4"/>
			<line id="直线_399" class="st6" x1="-10129.9" y1="2491.5" x2="-10132.9" y2="2498.9"/>
			<line id="直线_400" class="st6" x1="-10303.2" y1="2394.1" x2="-10298.3" y2="2394.1"/>
			<line id="直线_401" class="st6" x1="-10104.6" y1="2454.3" x2="-10110.2" y2="2467.7"/>
			<path id="路径_38175" class="st6" d="M-10288.5,2413.1v-14.6l-1.5-2.8l-4.8-1.5"/>
			<path id="路径_38176" class="st6" d="M-10237.8,2400.5l-5.2-8.7v-4.6l1.6-1.7h6.3l7.6,8.7h8.8"/>
		</g>
		<g id="组_21571" transform="translate(962.943 283.365)">
			<path id="矩形_2274" class="st4" d="M-10400,2311l79.5,46.3c1.4,0.8,1.9,2.6,1.1,4l0,0c-0.8,1.4-2.6,1.9-4,1.1l-79.5-46.3
				c-1.4-0.8-1.9-2.6-1.1-4l0,0C-10403.2,2310.7-10401.4,2310.2-10400,2311z"/>
			<path id="矩形_2275" d="M-10379.9,2322.2l59.2,34.5c1.6,1,2.2,3.1,1.2,4.7l0,0c-1,1.6-3.1,2.2-4.7,1.2l-59.2-34.5
				c-1.6-1-2.2-3.1-1.2-4.7l0,0C-10383.6,2321.8-10381.5,2321.2-10379.9,2322.2z"/>
			<path id="路径_38177" class="st8" d="M-10410.3,2313.7l-4.2-3.1l-5,1.7l1.7-5l-3.2-4.2l5.3,0l3-4.3l1.6,5l5,1.5l-4.3,3.1
				L-10410.3,2313.7z"/>
			<path id="路径_38178" class="st8" d="M-10386.2,2309.3l-2-2.8l-3.5,0.1l2.1-2.8l-1.1-3.3l3.3,1.1l2.8-2.1l0,3.5l2.8,2l-3.3,1
				L-10386.2,2309.3z"/>
			<path id="路径_38179" class="st8" d="M-10399.2,2301.9l-1.4-2l-2.4,0l1.4-2l-0.8-2.3l2.3,0.8l1.9-1.5l0,2.4l2,1.4l-2.3,0.7
				L-10399.2,2301.9z"/>
			<path id="路径_38180" class="st8" d="M-10414.6,2323.3l-1-1.4l-1.7,0l1-1.4l-0.6-1.6l1.6,0.5l1.4-1l0,1.7l1.4,1l-1.6,0.5
				L-10414.6,2323.3z"/>
			<path id="路径_38181" class="st8" d="M-10409.4,2335.5l-0.8-3.3l-3.1-1.2l2.9-1.7l0.2-3.4l2.5,2.2l3.3-0.8l-1.3,3.1l1.8,2.9
				l-3.4-0.3L-10409.4,2335.5z"/>
		</g>
		<path id="路径_38182" d="M-9348.9,2641.4c-5.4-0.8-10.6,1.5-15.2,3.4c-2.7,1.1-5.1,1.9-6.3,1.8c-2.8-1.8-2.2-5.4-0.9-7.7
			c1.3-2.3,3-4.3,5.1-5.9c4.7-3.1,10-6,14.9-6.4l-0.4-4c-6.2,0.4-12.4,3.4-17.1,7.4c-2.4,2-4.5,4.4-6,7.1c-2.4,5.4-2.3,12,4.2,13.7
			c2.7,0.1,5.3-1,8.1-2.1c4.6-1.7,10.4-4.8,14.8-2.6L-9348.9,2641.4z"/>
		<path id="路径_38183" class="st3" d="M-9366.8,2789.5l66.4,34.1l88.5-15.3l23.3-52.4l-58.2-33.2"/>
		<g id="组_21572" transform="translate(1054.45 375.608)">
			<line id="直线_402" class="st10" x1="-10421" y1="2295" x2="-10421" y2="2305.8"/>
			<line id="直线_403" class="st10" x1="-10421" y1="2309.8" x2="-10421" y2="2320.6"/>
			<line id="直线_404" class="st10" x1="-10421" y1="2325.1" x2="-10421" y2="2335.9"/>
			<line id="直线_405" class="st10" x1="-10421" y1="2340.1" x2="-10421" y2="2352.3"/>
			<line id="直线_406" class="st10" x1="-10421" y1="2356.7" x2="-10421" y2="2368.3"/>
			<line id="直线_407" class="st10" x1="-10421" y1="2372.4" x2="-10421" y2="2383.5"/>
			<line id="直线_408" class="st10" x1="-10421" y1="2388" x2="-10421" y2="2399.1"/>
			<line id="直线_409" class="st10" x1="-10421" y1="2403.3" x2="-10421" y2="2414.3"/>
		</g>
		<g id="组_21573" transform="translate(1232.426 341.405)">
			<line id="直线_410" class="st10" x1="-10421" y1="2295" x2="-10421" y2="2305.8"/>
			<line id="直线_411" class="st10" x1="-10421" y1="2309.8" x2="-10421" y2="2320.6"/>
			<line id="直线_412" class="st10" x1="-10421" y1="2325.1" x2="-10421" y2="2335.9"/>
			<line id="直线_413" class="st10" x1="-10421" y1="2340.1" x2="-10421" y2="2352.3"/>
			<line id="直线_414" class="st10" x1="-10421" y1="2356.7" x2="-10421" y2="2368.3"/>
			<line id="直线_415" class="st10" x1="-10421" y1="2372.4" x2="-10421" y2="2383.5"/>
			<line id="直线_416" class="st10" x1="-10421" y1="2388" x2="-10421" y2="2399.1"/>
			<line id="直线_417" class="st10" x1="-10421" y1="2403.3" x2="-10421" y2="2414.3"/>
		</g>
		<g id="组_21574" transform="translate(1174.484 385.847)">
			<line id="直线_418" class="st2" x1="-10421" y1="2295" x2="-10421" y2="2306.1"/>
			<line id="直线_419" class="st2" x1="-10421" y1="2310.7" x2="-10421" y2="2321.8"/>
			<line id="直线_420" class="st2" x1="-10421" y1="2326" x2="-10421" y2="2337.1"/>
		</g>
		<g id="组_21575" transform="translate(1221.241 421.96)">
			<line id="直线_421" class="st2" x1="-10421" y1="2295" x2="-10421" y2="2306.1"/>
			<line id="直线_422" class="st2" x1="-10421" y1="2310.7" x2="-10421" y2="2321.8"/>
			<line id="直线_423" class="st2" x1="-10421" y1="2326" x2="-10421" y2="2337.1"/>
		</g>
		<g id="组_21576" transform="translate(1083.88 401.024)">
			<line id="直线_424" class="st2" x1="-10421" y1="2295" x2="-10421" y2="2305.8"/>
			<line id="直线_425" class="st2" x1="-10421" y1="2309.9" x2="-10421" y2="2320.7"/>
			<line id="直线_426" class="st2" x1="-10421" y1="2325.3" x2="-10421" y2="2336.1"/>
		</g>
		<ellipse id="椭圆_1775" class="st4" cx="-9278.8" cy="2769.1" rx="40" ry="24.4"/>
		<line id="直线_427" class="st4" x1="-9251.9" y1="2751" x2="-9306.1" y2="2786.8"/>
		<path id="路径_38184" class="st4" d="M-9238.6,2769.7c-4.7-2.2-15.3-0.2-25.2,6.1c-8.7,5.6-14.4,12.6-15.3,17.6"/>
		<path id="路径_38185" class="st4" d="M-9318.7,2770.4c8.2,0.2,16.3-1.5,23.7-5c12.4-5.9,19.8-14.6,20.4-21.3"/>
		<line id="直线_428" class="st4" x1="-9308.8" y1="2752.9" x2="-9247.8" y2="2784.5"/>
		<g id="组_21577" transform="translate(1107.441 455.321)">
			<path id="路径_38186" class="st11" d="M-10415.5,2297.4c6.6-4.1,20.9-2.9,35.5,3.6c17.9,7.9,27.4,19.7,25.8,27.4"/>
			<path id="路径_38187" class="st11" d="M-10359.7,2332c-7.3,3.7-20.9,2.9-35.5-3.6c-17.9-7.9-27.2-19.3-25.6-26.9"/>
		</g>
		<path id="路径_38188" class="st12" d="M-9347.7,2646c2.8,11.3,6.8,22.3,11.9,32.9c5.4,11.1,12,21,19.3,28.1s15.6,11.6,24.2,11.6
			c13.7,0,25.9-6.8,35.8-13.4c4.9-3.3,9.3-6.5,12.8-8.9c3.5-2.4,6.5-3.7,7.4-3.7c2.4,0,6.1,1.2,9.9,2.8c3.8,1.6,7.8,3.6,11.3,5
			c1.1,0.4,2.3-0.2,2.7-1.3c0.1-0.2,0.1-0.3,0.1-0.5c0.1-10.8-6.5-20.5-16.6-24.4c-8.2-3.1-17.2-2.6-25,1.4
			c4.5-9.7,9.7-20.2,14.1-30.8c5.3-12.6,9.4-24.7,9.4-34.2c0-41-30.8-68-60-68c-33,0-61.9,25-62,63.9c0,0,0,0,0,0.1v0.1
			c-0.2,5.4,0,10.7,0.5,16.1l0.4,4c0.6,4.9,1.4,9.9,2.5,14.9L-9347.7,2646z"/>
		<path id="路径_38189" d="M-9298,2583.4c1.7-5.3,5.2-10.3,11.7-10.9c5.3,0.1,8.9,5.8,10.9,10.8c2.1,6.2,3.2,12.7,3.1,19.2
			c-0.1,1.2-1.2,2-2.3,1.9c-0.3,0-0.6-0.1-0.8-0.3c-2.5-1.7-6.7-2.6-10.9-2.6c-4.2,0-8.4,1-10.9,2.6c-1,0.5-2.3,0.1-2.8-0.9
			c-0.1-0.2-0.2-0.5-0.2-0.7C-9300.3,2596.4-9299.9,2589.3-9298,2583.4z"/>
		<path id="路径_38190" d="M-9335.2,2604.1c-1,0.5-2.3,0.1-2.8-0.9c-0.1-0.2-0.2-0.5-0.2-0.7c0-6.1,0.4-13.3,2.3-19.1
			c1.7-5.3,5.2-10.3,11.7-10.9c5.3,0.1,8.9,5.8,10.9,10.8c2.1,6.2,3.1,12.7,3.1,19.2c-0.1,1.2-1.2,2-2.3,1.9c-0.3,0-0.6-0.1-0.8-0.3
			c-2.5-1.7-6.7-2.6-10.9-2.6S-9332.7,2602.5-9335.2,2604.1z"/>
		<path id="路径_38191" d="M-9273.6,2632.1c-11.4-8.5-23.3-7.1-32.6-2.6c-4.2,2-7.9,4.8-11.1,8.2c-2.6,3-4.9,7.4-0.5,9.7
			c1.5,0.4,4.1,0.1,7.1-0.4c6.6-1.1,13.4-2.3,19.6,1.9l-2.5,3.1c-4.3-3.3-11-2-16.4-1.1c-3,0.5-6,1-8.7,0.4
			c-8.7-2.3-5.4-11.6-1.6-16.2c3.5-3.8,7.7-6.9,12.3-9.1c12.4-5.9,25-5.1,36.8,2.9L-9273.6,2632.1z"/>
	</g>
	<path id="路径_39857" class="st13" d="M-10089.1,2851.8h6.7c-0.3-2.1-0.4-4.1-0.4-6.2v-13.4c0-3.4-0.6-5.3-2.3-6.9
		c-2.1-2.1-5-2.9-9.8-2.9c-4.3,0-7.1,0.7-9.5,2.5c-1.9,1.3-2.8,2.6-3.9,5.5l6.4,1.1c0.6-1.8,1-2.5,2-3.2c1.5-1,3.3-1.5,5.2-1.4
		c3.8,0,5.7,1.5,5.7,4.4v2.5c-7.1,0.1-10.8,0.6-14,2c-3.3,1.3-5.5,4.5-5.6,8.1c0,5.2,3.7,8.3,9.7,8.3c1.6,0,3.1-0.2,4.6-0.6
		c2-0.5,3.9-1.6,5.3-3.1L-10089.1,2851.8z M-10089.1,2840.7c0,1.6-0.6,3.2-1.8,4.4c-1.9,1.7-4.4,2.7-6.9,2.6c-2.8,0-4.5-1.4-4.5-3.8
		c0-3.9,3.7-5.5,13.2-5.7V2840.7z M-10032,2851.8c0.3-1.6,0.7-3.2,1.2-4.7l5.5-17.6c1.3-4.1,1.4-4.5,2-6.2h-7.3
		c-0.2,2-0.5,4-1.1,5.9l-2.8,9.9c-0.1,0.3-0.4,1.9-0.6,2.6c-0.2,0.7-0.1,0.7-0.2,1.1c-0.1-0.4-0.1-0.5-0.3-1.1c-0.3-1-0.5-2-0.7-2.4
		l-3.7-11.3c-0.5-1.6-0.9-3.1-1.2-4.7h-5.3c-0.3,1.6-0.7,3.2-1.2,4.7l-3.6,10.8c-0.2,0.6-1,3.5-1.1,4c-0.4-1.9-0.7-3.3-0.9-4
		l-2.7-9.7c-0.5-1.9-0.9-3.9-1.1-5.9h-7.4c0.7,1.8,1.4,3.9,2.1,6.2l5.5,17.6c0.5,1.5,1,3.1,1.3,4.7h5.8c0.3-1.6,0.8-3.2,1.3-4.7
		l3.8-11.6c0.1-0.5,0.7-2.5,1-3.4c0.5,2,0.8,3.1,0.9,3.3l3.8,11.7c0.5,1.5,0.9,3.1,1.2,4.7H-10032z M-10007,2852.7
		c8.8,0,14.7-6.1,14.7-15.3c0-9.2-5.7-15.1-14.7-15.1c-9,0-14.8,5.9-14.8,15.2C-10021.8,2846.9-10016,2852.7-10007,2852.7
		L-10007,2852.7z M-10007,2827.6c5.3,0,8.3,3.7,8.3,10.1c0,6.1-3.2,9.8-8.3,9.8s-8.4-3.8-8.4-9.9
		C-10015.4,2831.4-10012.2,2827.6-10007,2827.6z M-9967.5,2823.3c-1.5-0.3-3.1-0.5-4.6-0.5c-4.5,0-7.6,1.7-9.3,5.2v-4.7h-6.8
		c0.3,2.1,0.4,4.3,0.3,6.5v15.6c0,2.2-0.1,4.3-0.3,6.5h7.1c-0.2-2.1-0.4-4.3-0.3-6.5v-9.2c0.1-1.8,0.8-3.6,2-5
		c1.4-1.7,3.6-2.6,5.8-2.4c1.5,0,3,0.3,4.4,0.8L-9967.5,2823.3z M-9964.9,2812.2c0.3,2.1,0.4,4.3,0.3,6.5v26.6
		c0,2.2-0.1,4.3-0.3,6.5h7.2c-0.2-2.1-0.4-4.3-0.3-6.5v-26.6c0-2.2,0.1-4.4,0.3-6.5H-9964.9z M-9930.1,2851.8h6.6
		c-0.3-2.2-0.4-4.5-0.3-6.7v-26.2c0-2.2,0.1-4.4,0.3-6.7h-7c0.3,2.2,0.4,4.5,0.3,6.7v5c0,0.8,0,1.8,0,2.1c0,1,0,1,0,1.6
		c-0.7-1-1.6-2-2.5-2.7c-2.2-1.6-4.8-2.4-7.6-2.3c-8.2,0-13.4,5.8-13.4,14.9c0,5.4,1.8,9.9,5.2,12.5c2.4,1.8,5.3,2.7,8.3,2.5
		c4.8,0,7.5-1.3,10-4.9c0,0.6,0,1.2,0,1.8L-9930.1,2851.8z M-9947.1,2837.5c0-5.9,3.1-9.7,7.9-9.7c2.4,0,4.8,1,6.5,2.8
		c1.5,1.9,2.4,4.2,2.4,6.6c0.1,2.4-0.6,4.7-1.9,6.7c-1.6,2.1-4,3.3-6.7,3.3C-9943.9,2847.2-9947.1,2843.4-9947.1,2837.5
		L-9947.1,2837.5z M-9899.4,2815.6c0.2,2,0.3,4.1,0.3,6.1v1.5h-1.8c-1.5,0-3-0.1-4.5-0.3v5.9c1.5-0.2,2.9-0.3,4.4-0.3h1.9v16.7
		c0,5.2,2.3,7.3,8,7.3c2.1,0.1,4.2-0.3,6.2-1l-0.9-5.3c-1.1,0.7-2.3,1.1-3.6,1.1c-2.4,0-3.3-0.9-3.3-3.3v-15.4h2.2
		c1.6,0,3.3,0.1,4.9,0.3v-5.9c-1.7,0.2-3.3,0.3-5,0.3h-2.1v-1.5c0-2,0.1-4.1,0.3-6.1L-9899.4,2815.6z M-9882.1,2812.2
		c0.3,2.2,0.4,4.3,0.3,6.5v26.6c0,2.2-0.1,4.3-0.4,6.5h7.2c-0.3-2.1-0.4-4.3-0.4-6.5v-10c2.2-5,5.1-7.4,8.8-7.4
		c1.3,0,2.5,0.5,3.4,1.4c0.9,1,1.4,2.6,1.4,4.9v11c0,2.2-0.1,4.3-0.3,6.5h7.2c-0.3-2.1-0.4-4.3-0.4-6.5v-12.5c0-6.4-3.6-10-10-10
		c-4.5,0-7.2,1.4-10.3,5.3c0.1-0.7,0.1-1.4,0.1-2.1v-7.1c0-2.2,0.1-4.4,0.3-6.6L-9882.1,2812.2z M-9830.8,2851.8h6.7
		c-0.3-2.1-0.4-4.1-0.4-6.2v-13.4c0-3.4-0.6-5.3-2.3-6.9c-2.1-2.1-5-2.9-9.8-2.9c-4.3,0-7.1,0.7-9.5,2.5c-1.9,1.3-2.8,2.6-3.9,5.5
		l6.4,1.1c0.6-1.8,1-2.5,2-3.2c1.5-1,3.3-1.5,5.2-1.4c3.8,0,5.7,1.5,5.7,4.4v2.5c-7.1,0.1-10.8,0.6-14,2c-3.3,1.3-5.5,4.5-5.6,8.1
		c0,5.2,3.7,8.3,9.7,8.3c1.6,0,3.1-0.2,4.6-0.6c2-0.5,3.9-1.6,5.3-3.1L-9830.8,2851.8z M-9830.8,2840.7c0,1.6-0.6,3.2-1.8,4.4
		c-1.9,1.7-4.4,2.7-6.9,2.6c-2.8,0-4.5-1.4-4.5-3.8c0-3.9,3.7-5.5,13.2-5.7V2840.7z M-9815.8,2815.6c0.2,2,0.3,4.1,0.3,6.1v1.5h-1.8
		c-1.5,0-3-0.1-4.5-0.3v5.9c1.5-0.2,2.9-0.3,4.4-0.3h1.9v16.7c0,5.2,2.3,7.3,8,7.3c2.1,0.1,4.2-0.3,6.2-1l-0.9-5.3
		c-1.1,0.7-2.3,1.1-3.6,1.1c-2.4,0-3.3-0.9-3.3-3.3v-15.4h2.2c1.6,0,3.3,0.1,4.9,0.3v-5.9c-1.7,0.2-3.3,0.3-5,0.3h-2.1v-1.5
		c0-2,0.1-4.1,0.3-6.1L-9815.8,2815.6z M-9783,2812.2v6.3h7.3v-6.3H-9783z M-9783,2823.3c0.3,2.1,0.4,4.3,0.4,6.5v15.6
		c0,2.2-0.1,4.3-0.4,6.5h7.3c-0.3-2.2-0.4-4.3-0.3-6.5v-15.5c0-2.2,0.1-4.4,0.3-6.5L-9783,2823.3z M-9763.4,2851.8
		c-0.3-2.1-0.4-4.3-0.4-6.5v-10c2.2-4.9,5.1-7.4,8.7-7.4c1.7-0.1,3.2,0.7,4.2,2c0.7,1.4,1,2.9,0.8,4.4v11c0,2.2-0.1,4.3-0.3,6.5h7.2
		c-0.3-2.1-0.4-4.3-0.4-6.5v-11.9c0-3.3-0.5-5.3-1.7-7c-1.8-2.4-4.6-3.7-8.4-3.7c-4.5,0-7.1,1.4-10.1,5.3c0.1-0.7,0.1-1.4,0.1-2.1
		v-2.6h-6.8c0.3,2.1,0.4,4.3,0.4,6.5v15.6c0,2.2-0.1,4.3-0.4,6.5L-9763.4,2851.8z M-9739.3,2843.7c0.3,1.6,1,3.1,1.9,4.4
		c2.1,2.9,6,4.4,11.1,4.4c4.5,0,8-1.1,10.3-3.2c1.5-1.5,2.4-3.5,2.4-5.6c0.2-2.4-0.9-4.7-2.9-6.2c-1.6-1.2-3.7-1.9-8.7-3
		c-1.7-0.3-3.4-0.8-5-1.5c-0.9-0.4-1.5-1.3-1.5-2.3c0-2.1,2.1-3.5,5.2-3.5c3.2,0,4.9,1.2,5.5,3.9l6.6-0.8c-0.4-1.9-1.3-3.6-2.7-4.9
		c-2-1.9-5.3-2.9-9.3-2.9c-4.5,0-7.9,1.3-9.9,3.9c-1,1.3-1.6,3-1.5,4.6c0,2.9,1.7,5.5,4.4,6.6c2.3,1,4.7,1.7,7.2,2.1
		c4,0.9,4.3,0.9,5.2,1.6c0.8,0.6,1.3,1.5,1.3,2.5c0,2.3-2.3,3.8-6,3.8c-3.9,0-5.7-1.3-6.6-4.7L-9739.3,2843.7z M-9703,2823.3h-6.6
		c0.3,2.2,0.4,4.4,0.3,6.7v25c0,2.2-0.1,4.4-0.3,6.6h7c-0.3-2.2-0.4-4.4-0.3-6.6v-3.8c0-0.9,0-1.8-0.1-2.1c0-1,0-1,0-1.6
		c2.4,3.2,5.7,4.8,10,4.8c8.4,0,13.5-5.5,13.5-14.7c0-5-1.3-8.7-3.9-11.4c-2.3-2.3-5.5-3.5-9.4-3.5c-4-0.2-7.8,1.6-10.1,4.9
		c0.1-0.6,0.1-1.2,0.1-1.7L-9703,2823.3z M-9686,2837.4c0,5.9-3,9.5-7.9,9.5c-5.2,0-8.8-4-8.8-9.6c0-5.3,3.7-9.4,8.6-9.4
		C-9689.1,2827.9-9686,2831.5-9686,2837.4L-9686,2837.4z M-9675.4,2812.2v6.3h7.3v-6.3H-9675.4z M-9675.4,2823.3
		c0.3,2.1,0.4,4.3,0.4,6.5v15.6c0,2.2-0.1,4.3-0.4,6.5h7.3c-0.3-2.2-0.4-4.3-0.3-6.5v-15.5c0-2.2,0.1-4.4,0.3-6.5L-9675.4,2823.3z
		 M-9642.1,2823.3c-1.5-0.3-3.1-0.5-4.6-0.5c-4.5,0-7.6,1.7-9.3,5.2v-4.7h-6.8c0.3,2.1,0.4,4.3,0.3,6.5v15.6c0,2.2-0.1,4.3-0.3,6.5
		h7.1c-0.2-2.1-0.4-4.3-0.3-6.5v-9.2c0.1-1.8,0.8-3.6,2-5c1.4-1.7,3.6-2.6,5.8-2.4c1.5,0,3,0.3,4.4,0.8L-9642.1,2823.3z
		 M-9612.8,2839.2c-0.1-1.1-0.1-1.3-0.1-1.4c0-2.6-0.5-5.1-1.4-7.6c-2-5-6.6-7.9-12.4-7.9c-8.5,0-14,6-14,15.2
		c0,9.3,5.6,15.2,14.4,15.2c3.8,0.1,7.5-1.2,10.2-3.8c1.3-1.3,2.3-2.9,3-4.6l-5.9-1.9c-0.3,1-0.8,1.8-1.4,2.6
		c-1.5,1.6-3.7,2.6-6,2.5c-2.4,0.1-4.7-1-6.2-2.8c-1.1-1.4-1.6-2.8-1.8-5.6L-9612.8,2839.2z M-9634.2,2834.2
		c0.7-4.2,3.6-6.8,7.5-6.8c2-0.1,3.9,0.6,5.4,2c1.3,1.3,2,3,2.2,4.8H-9634.2z M-9610.1,2843.7c0.3,1.6,1,3.1,1.9,4.4
		c2.1,2.9,6,4.4,11.1,4.4c4.5,0,8-1.1,10.3-3.2c1.5-1.5,2.4-3.5,2.4-5.6c0.2-2.4-0.9-4.7-2.9-6.2c-1.6-1.2-3.7-1.9-8.7-3
		c-1.7-0.3-3.4-0.8-5-1.5c-0.9-0.4-1.5-1.3-1.5-2.3c0-2.1,2.1-3.5,5.2-3.5c3.2,0,4.9,1.2,5.5,3.9l6.6-0.8c-0.4-1.9-1.3-3.6-2.7-4.9
		c-2-1.9-5.3-2.9-9.3-2.9c-4.5,0-7.9,1.3-9.9,3.9c-1,1.3-1.6,3-1.5,4.6c0,2.9,1.7,5.5,4.4,6.6c2.3,1,4.7,1.7,7.2,2.1
		c4,0.9,4.3,0.9,5.2,1.6c0.8,0.6,1.3,1.5,1.3,2.5c0,2.3-2.3,3.8-6,3.8c-3.9,0-5.7-1.3-6.6-4.7L-9610.1,2843.7z M-10297.7,2907.8
		c0.3,2.2,0.4,4.3,0.3,6.5v26.6c0,2.2-0.1,4.3-0.4,6.5h7.2c-0.3-2.1-0.4-4.3-0.4-6.5v-10c2.2-5,5.1-7.4,8.8-7.4
		c1.3,0,2.5,0.5,3.4,1.4c0.9,1,1.4,2.6,1.4,4.9v11c0,2.2-0.1,4.3-0.3,6.5h7.2c-0.3-2.1-0.4-4.3-0.4-6.5v-12.5c0-6.4-3.6-10-10-10
		c-4.5,0-7.2,1.4-10.3,5.3c0.1-0.7,0.1-1.4,0.1-2.1v-7.1c0-2.2,0.1-4.4,0.3-6.6L-10297.7,2907.8z M-10245.2,2918.8
		c0.3,2.1,0.4,4.3,0.4,6.5v10c-2.2,4.9-5.1,7.4-8.6,7.4c-1,0-1.9-0.3-2.7-0.7c-1.5-0.9-2.3-2.8-2.3-5.7v-11c0-2.2,0.1-4.3,0.3-6.5
		h-7.2c0.3,2.1,0.4,4.3,0.4,6.5v12.6c0,4.1,1.3,6.9,4,8.6c1.8,1,3.9,1.5,6,1.4c4.7,0,7.5-1.4,10.2-5.3c0,1.2,0,1.4,0,2.1v2.6h6.8
		c-0.3-2.1-0.4-4.3-0.4-6.5v-15.6c-0.1-2.2,0.1-4.3,0.4-6.5L-10245.2,2918.8z M-10225.9,2947.4c-0.3-2.1-0.4-4.3-0.3-6.5v-9.8
		c0.3-1.8,1-3.5,2.1-5c1.2-1.7,3.1-2.6,5.1-2.6c3.2,0,4.8,2.1,4.8,6.3v11.1c0,2.2-0.1,4.3-0.4,6.5h7.2c-0.3-2.1-0.4-4.3-0.3-6.5
		v-9.8c0.6-3.1,1.4-4.7,3.1-6.2c1.1-1,2.6-1.5,4.1-1.5c3.3,0,4.9,2,4.9,6.4v11.1c0,2.2-0.1,4.3-0.4,6.5h7.3
		c-0.3-2.1-0.4-4.3-0.4-6.5v-12.3c0-3.5-0.7-5.8-2.3-7.6c-2-2-4.7-3-7.5-2.8c-1.9-0.1-3.9,0.4-5.6,1.3c-1.5,0.8-2.5,1.7-4.2,3.9
		c-0.3-1.2-1-2.2-1.9-3c-1.8-1.6-4.1-2.4-6.4-2.2c-4.1,0-7.8,1.9-9.2,5c0-0.8,0-1.5,0-1.8v-2.5h-6.7c0.3,2.1,0.4,4.3,0.3,6.5v15.6
		c0,2.2-0.1,4.3-0.3,6.5L-10225.9,2947.4z M-10164.8,2947.4h6.7c-0.3-2.1-0.4-4.1-0.4-6.2v-13.4c0-3.4-0.6-5.3-2.3-6.9
		c-2.1-2.1-5-2.9-9.8-2.9c-4.3,0-7.1,0.7-9.5,2.5c-1.9,1.3-2.8,2.6-3.9,5.5l6.4,1.1c0.6-1.8,1-2.5,2-3.2c1.5-1,3.3-1.5,5.2-1.4
		c3.8,0,5.7,1.5,5.7,4.4v2.5c-7.1,0.1-10.8,0.6-14,2c-3.3,1.3-5.5,4.5-5.6,8.1c0,5.2,3.7,8.3,9.7,8.3c1.6,0,3.1-0.2,4.6-0.6
		c2-0.5,3.9-1.6,5.3-3.1L-10164.8,2947.4z M-10164.8,2936.3c0,1.6-0.6,3.2-1.8,4.4c-1.9,1.7-4.4,2.7-6.9,2.6c-2.8,0-4.5-1.4-4.5-3.8
		c0-3.9,3.7-5.5,13.2-5.7V2936.3z M-10146,2947.4c-0.3-2.1-0.4-4.3-0.4-6.5v-10c2.2-4.9,5.1-7.4,8.7-7.4c1.7-0.1,3.2,0.7,4.2,2
		c0.7,1.4,1,2.9,0.8,4.4v11c0,2.2-0.1,4.3-0.3,6.5h7.2c-0.3-2.1-0.4-4.3-0.4-6.5V2929c0-3.3-0.5-5.3-1.7-7c-1.8-2.4-4.6-3.7-8.4-3.7
		c-4.5,0-7.1,1.4-10.1,5.3c0.1-0.7,0.1-1.4,0.1-2.1v-2.6h-6.8c0.3,2.1,0.4,4.3,0.4,6.5v15.6c0,2.2-0.1,4.3-0.4,6.5L-10146,2947.4z
		 M-10121.9,2939.3c0.3,1.6,1,3.1,1.9,4.4c2.1,2.9,6,4.4,11.1,4.4c4.5,0,8-1.1,10.3-3.2c1.5-1.5,2.4-3.5,2.4-5.6
		c0.2-2.4-0.9-4.7-2.9-6.2c-1.6-1.2-3.7-1.9-8.7-3c-1.7-0.3-3.4-0.8-5-1.5c-0.9-0.4-1.5-1.3-1.5-2.3c0-2.1,2.1-3.5,5.2-3.5
		c3.2,0,4.9,1.2,5.5,3.9l6.6-0.8c-0.4-1.9-1.3-3.6-2.7-4.9c-2-1.9-5.3-2.9-9.3-2.9c-4.5,0-7.9,1.3-9.9,3.9c-1,1.3-1.6,3-1.5,4.6
		c0,2.9,1.7,5.5,4.4,6.6c2.3,1,4.7,1.7,7.2,2.1c4,0.9,4.3,0.9,5.2,1.6c0.8,0.6,1.3,1.5,1.3,2.5c0,2.3-2.3,3.8-6,3.8
		c-3.9,0-5.7-1.3-6.6-4.7L-10121.9,2939.3z M-10073.3,2911.2c0.2,2,0.3,4.1,0.3,6.1v1.5h-1.8c-1.5,0-3-0.1-4.5-0.3v5.9
		c1.5-0.2,2.9-0.3,4.4-0.3h1.9v16.7c0,5.2,2.3,7.3,8,7.3c2.1,0.1,4.2-0.3,6.2-1l-0.9-5.3c-1.1,0.7-2.3,1.1-3.6,1.1
		c-2.4,0-3.3-0.9-3.3-3.3v-15.4h2.2c1.6,0,3.3,0.1,4.9,0.3v-5.9c-1.7,0.2-3.3,0.3-5,0.3h-2.1v-1.5c0-2,0.1-4.1,0.3-6.1
		L-10073.3,2911.2z M-10042.4,2948.3c8.8,0,14.7-6.1,14.7-15.3c0-9.2-5.7-15.1-14.7-15.1c-9,0-14.8,5.9-14.8,15.2
		C-10057.3,2942.4-10051.5,2948.3-10042.4,2948.3z M-10042.5,2923.2c5.3,0,8.3,3.7,8.3,10.1c0,6.1-3.2,9.8-8.3,9.8s-8.3-3.8-8.3-9.9
		C-10050.9,2926.9-10047.7,2923.2-10042.5,2923.2L-10042.5,2923.2z M-9997.9,2926.9c-0.4-1.3-1-2.5-1.7-3.6
		c-2.4-3.5-6.3-5.4-11.1-5.4c-3.7-0.2-7.3,1.2-10,3.8c-2.9,3.1-4.4,7.2-4.2,11.5c0,9.2,5.7,15.1,14.4,15.1c4.7,0,8.5-1.7,10.9-5
		c0.9-1.3,1.6-2.7,2.1-4.2l-6.2-1.2c-0.2,0.9-0.5,1.7-1,2.5c-1.3,1.8-3.5,2.9-5.7,2.8c-5,0-8.1-3.8-8.1-10c0-6.2,3-10,7.9-10
		c2-0.1,3.9,0.8,5.1,2.3c0.7,0.9,1.2,1.9,1.5,3L-9997.9,2926.9z M-9980.1,2948.3c8.8,0,14.7-6.1,14.7-15.3c0-9.2-5.7-15.1-14.7-15.1
		c-9,0-14.8,5.9-14.8,15.2C-9994.9,2942.4-9989.2,2948.3-9980.1,2948.3z M-9980.1,2923.2c5.3,0,8.3,3.7,8.3,10.1
		c0,6.1-3.2,9.8-8.3,9.8s-8.3-3.8-8.3-9.9C-9988.5,2926.9-9985.3,2923.2-9980.1,2923.2L-9980.1,2923.2z M-9954.3,2947.4
		c-0.3-2.1-0.4-4.3-0.4-6.5v-10c2.2-4.9,5.1-7.4,8.7-7.4c1.7-0.1,3.2,0.7,4.2,2c0.7,1.4,1,2.9,0.8,4.4v11c0,2.2-0.1,4.3-0.3,6.5h7.2
		c-0.3-2.1-0.4-4.3-0.4-6.5V2929c0-3.3-0.5-5.3-1.7-7c-1.8-2.4-4.6-3.7-8.4-3.7c-4.5,0-7.1,1.4-10.1,5.3c0.1-0.7,0.1-1.4,0.1-2.1
		v-2.6h-6.8c0.3,2.1,0.4,4.3,0.4,6.5v15.6c0,2.2-0.1,4.3-0.4,6.5L-9954.3,2947.4z M-9921.8,2947.4c-0.3-2.1-0.4-4.3-0.4-6.5v-10
		c2.2-4.9,5.1-7.4,8.7-7.4c1.7-0.1,3.2,0.7,4.2,2c0.7,1.4,1,2.9,0.8,4.4v11c0,2.2-0.1,4.3-0.3,6.5h7.2c-0.3-2.1-0.4-4.3-0.4-6.5
		V2929c0-3.3-0.5-5.3-1.7-7c-1.8-2.4-4.6-3.7-8.4-3.7c-4.5,0-7.1,1.4-10.1,5.3c0.1-0.7,0.1-1.4,0.1-2.1v-2.6h-6.8
		c0.3,2.1,0.4,4.3,0.4,6.5v15.6c0,2.2-0.1,4.3-0.4,6.5L-9921.8,2947.4z M-9869.8,2934.7c-0.1-1.1-0.1-1.3-0.1-1.4
		c0-2.6-0.5-5.1-1.4-7.6c-2-5-6.6-7.9-12.4-7.9c-8.5,0-14,6-14,15.2c0,9.3,5.6,15.2,14.4,15.2c3.8,0.2,7.5-1.2,10.2-3.8
		c1.3-1.3,2.3-2.9,3-4.6l-5.9-1.9c-0.3,1-0.8,1.8-1.4,2.6c-3.2,3.3-8.5,3.3-11.8,0.1c-0.1-0.1-0.2-0.2-0.4-0.4
		c-1.1-1.4-1.6-2.8-1.8-5.6L-9869.8,2934.7z M-9891.3,2929.8c0.7-4.2,3.6-6.8,7.5-6.8c2-0.1,3.9,0.6,5.4,2c1.3,1.3,2,3,2.2,4.8
		H-9891.3z M-9840,2926.9c-0.4-1.3-1-2.5-1.7-3.6c-2.4-3.5-6.3-5.4-11.1-5.4c-3.7-0.2-7.3,1.2-10,3.8c-2.9,3.1-4.4,7.2-4.2,11.5
		c0,9.2,5.7,15.1,14.4,15.1c4.7,0,8.5-1.7,10.9-5c0.9-1.3,1.6-2.7,2.1-4.2l-6.2-1.2c-0.2,0.9-0.5,1.7-1,2.5
		c-1.3,1.8-3.5,2.9-5.7,2.8c-5,0-8.1-3.8-8.1-10c0-6.2,3-10,7.9-10c2-0.1,3.9,0.8,5.1,2.3c0.7,0.9,1.2,1.9,1.5,3L-9840,2926.9z
		 M-9832.5,2911.2c0.2,2,0.3,4.1,0.3,6.1v1.5h-1.8c-1.5,0-3-0.1-4.5-0.3v5.9c1.5-0.2,2.9-0.3,4.4-0.3h1.9v16.7c0,5.2,2.3,7.3,8,7.3
		c2.1,0.1,4.2-0.3,6.2-1l-0.9-5.3c-1.1,0.7-2.3,1.1-3.6,1.1c-2.4,0-3.3-0.9-3.3-3.3v-15.4h2.2c1.6,0,3.3,0.1,4.9,0.3v-5.9
		c-1.7,0.2-3.3,0.3-5,0.3h-2.1v-1.5c0-2,0.1-4.1,0.3-6.1L-9832.5,2911.2z M-9769.8,2947.4c0.3-1.6,0.7-3.2,1.2-4.7l5.5-17.6
		c1.3-4.1,1.4-4.5,2-6.2h-7.3c-0.2,2-0.5,4-1.1,5.9l-2.8,9.9c-0.1,0.3-0.4,1.9-0.6,2.6s-0.1,0.7-0.2,1.1c-0.1-0.4-0.1-0.5-0.3-1.1
		c-0.3-1-0.5-2-0.7-2.4l-3.7-11.3c-0.5-1.6-0.9-3.1-1.2-4.7h-5.3c-0.3,1.6-0.7,3.2-1.2,4.7l-3.6,10.8c-0.2,0.6-1,3.5-1.1,4
		c-0.4-1.9-0.7-3.3-0.9-4l-2.7-9.7c-0.5-1.9-0.9-3.9-1.1-5.9h-7.4c0.7,1.8,1.4,3.9,2.1,6.2l5.5,17.6c0.5,1.5,1,3.1,1.3,4.7h5.8
		c0.3-1.6,0.8-3.2,1.3-4.7l3.8-11.6c0.1-0.5,0.7-2.5,1-3.4c0.5,2,0.8,3.1,0.9,3.3l3.8,11.7c0.5,1.5,0.9,3.1,1.2,4.7L-9769.8,2947.4z
		 M-9758.4,2907.8v6.3h7.3v-6.3H-9758.4z M-9758.4,2918.8c0.3,2.1,0.4,4.3,0.4,6.5v15.6c0,2.2-0.1,4.3-0.4,6.5h7.3
		c-0.3-2.2-0.4-4.3-0.3-6.5v-15.5c0-2.2,0.1-4.4,0.3-6.5L-9758.4,2918.8z M-9742.6,2911.2c0.2,2,0.3,4.1,0.3,6.1v1.5h-1.8
		c-1.5,0-3-0.1-4.5-0.3v5.9c1.5-0.2,2.9-0.3,4.4-0.3h1.9v16.7c0,5.2,2.3,7.3,8,7.3c2.1,0.1,4.2-0.3,6.2-1l-0.9-5.3
		c-1.1,0.7-2.3,1.1-3.6,1.1c-2.4,0-3.3-0.9-3.3-3.3v-15.4h2.2c1.6,0,3.3,0.1,4.9,0.3v-5.9c-1.7,0.2-3.3,0.3-5,0.3h-2.1v-1.5
		c0-2,0.1-4.1,0.3-6.1H-9742.6z M-9725.3,2907.8c0.3,2.2,0.4,4.3,0.3,6.5v26.6c0,2.2-0.1,4.3-0.4,6.5h7.2c-0.3-2.1-0.4-4.3-0.4-6.5
		v-10c2.2-5,5.1-7.4,8.8-7.4c1.3,0,2.5,0.5,3.4,1.4c0.9,1,1.4,2.6,1.4,4.9v11c0,2.2-0.1,4.3-0.3,6.5h7.2c-0.3-2.1-0.4-4.3-0.4-6.5
		v-12.5c0-6.4-3.6-10-10-10c-4.5,0-7.2,1.4-10.3,5.3c0.1-0.7,0.1-1.4,0.1-2.1v-7.1c0-2.2,0.1-4.4,0.3-6.6L-9725.3,2907.8z
		 M-9650.6,2934.7c-0.1-1.1-0.1-1.3-0.1-1.4c0-2.6-0.5-5.1-1.4-7.6c-2-5-6.6-7.9-12.4-7.9c-8.5,0-14,6-14,15.2
		c0,9.3,5.6,15.2,14.4,15.2c3.8,0.2,7.5-1.2,10.2-3.8c1.3-1.3,2.3-2.9,3-4.6l-5.9-1.9c-0.3,1-0.8,1.8-1.4,2.6
		c-3.2,3.3-8.5,3.3-11.8,0.1c-0.1-0.1-0.2-0.2-0.4-0.4c-1.1-1.4-1.6-2.8-1.8-5.6L-9650.6,2934.7z M-9672.1,2929.8
		c0.7-4.2,3.6-6.8,7.5-6.8c2-0.1,3.9,0.6,5.4,2c1.3,1.3,2,3,2.2,4.8H-9672.1z M-9627.8,2947.4h6.7c-0.3-2.1-0.4-4.1-0.4-6.2v-13.4
		c0-3.4-0.6-5.3-2.3-6.9c-2.1-2.1-5-2.9-9.8-2.9c-4.3,0-7.1,0.7-9.5,2.5c-1.9,1.3-2.8,2.6-3.9,5.5l6.4,1.1c0.6-1.8,1-2.5,2-3.2
		c1.5-1,3.3-1.5,5.2-1.4c3.8,0,5.7,1.5,5.7,4.4v2.5c-7.1,0.1-10.8,0.6-14,2c-3.3,1.3-5.5,4.5-5.6,8.1c0,5.2,3.7,8.3,9.7,8.3
		c1.6,0,3.1-0.2,4.6-0.6c2-0.5,3.9-1.6,5.3-3.1L-9627.8,2947.4z M-9627.8,2936.3c0,1.6-0.6,3.2-1.8,4.4c-1.9,1.7-4.4,2.7-6.9,2.6
		c-2.8,0-4.5-1.4-4.5-3.8c0-3.9,3.7-5.5,13.2-5.7V2936.3z M-9590.3,2926.9c-0.4-1.3-1-2.5-1.7-3.6c-2.4-3.5-6.3-5.4-11.1-5.4
		c-3.7-0.2-7.3,1.2-10,3.8c-2.9,3.1-4.4,7.2-4.2,11.5c0,9.2,5.7,15.1,14.4,15.1c4.7,0,8.5-1.7,10.9-5c0.9-1.3,1.6-2.7,2.1-4.2
		l-6.2-1.2c-0.2,0.9-0.5,1.7-1,2.5c-1.3,1.8-3.5,2.9-5.7,2.8c-5,0-8.1-3.8-8.1-10c0-6.2,3-10,7.9-10c2-0.1,3.9,0.8,5.1,2.3
		c0.7,0.9,1.2,1.9,1.5,3L-9590.3,2926.9z M-9586.1,2907.8c0.3,2.2,0.4,4.3,0.3,6.5v26.6c0,2.2-0.1,4.3-0.4,6.5h7.2
		c-0.3-2.1-0.4-4.3-0.4-6.5v-10c2.2-5,5.1-7.4,8.8-7.4c1.3,0,2.5,0.5,3.4,1.4c0.9,1,1.4,2.6,1.4,4.9v11c0,2.2-0.1,4.3-0.3,6.5h7.2
		c-0.3-2.1-0.4-4.3-0.4-6.5v-12.5c0-6.4-3.6-10-10-10c-4.5,0-7.2,1.4-10.3,5.3c0.1-0.7,0.1-1.4,0.1-2.1v-7.1c0-2.2,0.1-4.4,0.3-6.6
		L-9586.1,2907.8z M-9524.5,2948.3c8.8,0,14.7-6.1,14.7-15.3c0-9.2-5.7-15.1-14.7-15.1c-9,0-14.8,5.9-14.8,15.2
		C-9539.3,2942.4-9533.6,2948.3-9524.5,2948.3L-9524.5,2948.3z M-9524.5,2923.2c5.3,0,8.3,3.7,8.3,10.1c0,6.1-3.2,9.8-8.3,9.8
		s-8.3-3.8-8.3-9.9C-9532.9,2926.9-9529.7,2923.2-9524.5,2923.2L-9524.5,2923.2z M-9502.5,2911.2c0.2,2,0.3,4.1,0.3,6.1v1.5h-1.8
		c-1.5,0-3-0.1-4.5-0.3v5.9c1.5-0.2,2.9-0.3,4.4-0.3h1.9v16.7c0,5.2,2.3,7.3,8,7.3c2.1,0.1,4.2-0.3,6.2-1l-0.9-5.3
		c-1.1,0.7-2.3,1.1-3.6,1.1c-2.4,0-3.3-0.9-3.3-3.3v-15.4h2.2c1.6,0,3.3,0.1,4.9,0.3v-5.9c-1.7,0.2-3.3,0.3-5,0.3h-2.1v-1.5
		c0-2,0.1-4.1,0.3-6.1H-9502.5z M-9485.2,2907.8c0.3,2.2,0.4,4.3,0.3,6.5v26.6c0,2.2-0.1,4.3-0.4,6.5h7.2c-0.3-2.1-0.4-4.3-0.4-6.5
		v-10c2.2-5,5.1-7.4,8.8-7.4c1.3,0,2.5,0.5,3.4,1.4c0.9,1,1.4,2.6,1.4,4.9v11c0,2.2-0.1,4.3-0.3,6.5h7.2c-0.3-2.1-0.4-4.3-0.4-6.5
		v-12.5c0-6.4-3.6-10-10-10c-4.5,0-7.2,1.4-10.3,5.3c0.1-0.7,0.1-1.4,0.1-2.1v-7.1c0-2.2,0.1-4.4,0.3-6.6L-9485.2,2907.8z
		 M-9426.1,2934.7c-0.1-1.1-0.1-1.3-0.1-1.4c0-2.6-0.5-5.1-1.4-7.6c-2-5-6.6-7.9-12.4-7.9c-8.5,0-14,6-14,15.2
		c0,9.3,5.6,15.2,14.4,15.2c3.8,0.2,7.5-1.2,10.2-3.8c1.3-1.3,2.3-2.9,3-4.6l-5.9-1.9c-0.3,1-0.8,1.8-1.4,2.6
		c-3.2,3.3-8.5,3.3-11.8,0.1c-0.1-0.1-0.2-0.2-0.4-0.4c-1.1-1.4-1.6-2.8-1.8-5.6L-9426.1,2934.7z M-9447.5,2929.8
		c0.7-4.2,3.6-6.8,7.5-6.8c2-0.1,3.9,0.6,5.4,2c1.3,1.3,2,3,2.2,4.8H-9447.5z M-9401.3,2918.8c-1.5-0.3-3.1-0.5-4.6-0.5
		c-4.5,0-7.6,1.7-9.3,5.2v-4.7h-6.8c0.3,2.1,0.4,4.3,0.3,6.5v15.6c0,2.2-0.1,4.3-0.3,6.5h7.1c-0.3-2.1-0.4-4.3-0.3-6.5v-9.2
		c0.1-1.8,0.8-3.6,2-5c1.4-1.7,3.6-2.6,5.8-2.4c1.5,0,3,0.3,4.4,0.8L-9401.3,2918.8z"/>
	<g class="st14">
		<path d="M-10292.8,2758.6c0.9,0.9,1.3,2.2,1.3,3.7c0,3-1.8,5-4.5,5s-4.5-2-4.5-5c0-1.5,0.5-2.9,1.4-3.7c0.8-0.8,1.8-1.2,3.1-1.2
			C-10294.7,2757.4-10293.7,2757.8-10292.8,2758.6z M-10293.2,2762.3c0-1.2-0.3-2.2-0.9-2.8c-0.5-0.5-1.1-0.7-1.8-0.7
			c-1.7,0-2.8,1.4-2.8,3.5c0,1.2,0.3,2.2,1,2.8c0.5,0.5,1.1,0.7,1.9,0.7C-10294.2,2765.9-10293.2,2764.6-10293.2,2762.3z"/>
		<path d="M-10262.6,2757.6c-0.1,0.4-0.1,0.9-0.1,1.6v4.3c0,2.5-1.5,3.9-4.1,3.9c-1.3,0-2.4-0.4-3.1-1.1c-0.6-0.7-0.9-1.6-0.9-2.8
			v-4.2c0-0.7,0-1.2-0.1-1.6h1.8c-0.1,0.4-0.1,0.9-0.1,1.6v4.2c0,1.6,0.8,2.5,2.5,2.5c1.6,0,2.4-0.9,2.4-2.5v-4.2
			c0-0.8,0-1.2-0.1-1.6H-10262.6z"/>
		<path d="M-10235.7,2767.1c0-0.3-0.2-0.9-0.6-1.9c-0.6-1.7-1.1-2.1-2-2.1h-1.8v2.4c0,0.7,0,1.1,0.1,1.6h-1.8
			c0.1-0.5,0.1-0.8,0.1-1.6v-6.5c0-0.6,0-1-0.1-1.6c0.5,0,0.9,0,1.5,0h2.9c1.8,0,2.9,0.9,2.9,2.5c0,0.8-0.2,1.4-0.6,1.8
			c-0.3,0.3-0.6,0.5-1.3,0.7c0.8,0.2,1,0.6,2.2,3.4c0.1,0.2,0.4,0.9,0.6,1.2H-10235.7z M-10237.6,2761.8c0.4,0,0.9-0.2,1.1-0.4
			c0.3-0.3,0.4-0.6,0.4-1.1c0-0.9-0.5-1.3-1.5-1.3h-2.5v2.8H-10237.6z"/>
		<path d="M-10185.7,2767.1c-0.1-0.4-0.3-0.9-0.5-1.6l-1.7-4.1c-0.2-0.5-0.3-0.9-0.6-1.8c0,0.6,0.1,1.6,0.1,1.9v3.9
			c0,0.8,0,1.3,0.1,1.8h-1.7c0.1-0.5,0.1-0.9,0.1-1.8v-6c0-0.8,0-1.3-0.1-1.8h2.2c0.1,0.4,0.2,0.9,0.4,1.4l2.4,5.9l2.4-5.9
			c0.2-0.6,0.3-1,0.4-1.4h2.2c-0.1,0.6-0.1,1-0.1,1.8v6c0,0.9,0,1.3,0.1,1.8h-1.7c0.1-0.5,0.1-0.9,0.1-1.8v-4c0-1,0.1-1.7,0.1-1.8
			c-0.2,0.6-0.4,1.3-0.6,1.8l-1.8,4.2c-0.2,0.6-0.5,1.2-0.5,1.6H-10185.7z"/>
		<path d="M-10157.2,2757.6c-0.1,0.5-0.1,0.8-0.1,1.5v6.5c0,0.7,0,1.1,0.1,1.5h-1.8c0.1-0.5,0.1-0.8,0.1-1.5v-6.5
			c0-0.7,0-1.1-0.1-1.5H-10157.2z"/>
		<path d="M-10134.9,2764.2c0,0.5,0.1,0.8,0.3,1.1c0.3,0.5,1,0.7,1.8,0.7c1.2,0,1.9-0.5,1.9-1.4c0-0.5-0.2-0.9-0.6-1.1
			c-0.4-0.2-0.4-0.2-2.1-0.6c-0.9-0.2-1.4-0.4-1.8-0.7c-0.6-0.5-0.9-1.1-0.9-1.9c0-1.7,1.3-2.7,3.4-2.7c1.4,0,2.4,0.4,3,1.2
			c0.3,0.4,0.4,0.8,0.6,1.4l-1.7,0.2c-0.1-0.4-0.2-0.6-0.4-0.9c-0.3-0.4-0.8-0.6-1.5-0.6c-1,0-1.8,0.5-1.8,1.3
			c0,0.5,0.3,0.9,0.8,1.1c0.3,0.1,0.4,0.1,1.7,0.4c0.9,0.2,1.5,0.4,2,0.7c0.7,0.5,1,1.2,1,2.1c0,0.9-0.3,1.5-0.8,2
			c-0.6,0.6-1.6,0.9-2.9,0.9c-1,0-1.9-0.2-2.5-0.6c-0.5-0.3-0.8-0.8-1.1-1.4c-0.1-0.3-0.2-0.5-0.2-1L-10134.9,2764.2z"/>
		<path d="M-10107.1,2764.2c0,0.5,0.1,0.8,0.3,1.1c0.3,0.5,1,0.7,1.8,0.7c1.2,0,1.9-0.5,1.9-1.4c0-0.5-0.2-0.9-0.6-1.1
			c-0.4-0.2-0.4-0.2-2.1-0.6c-0.9-0.2-1.4-0.4-1.8-0.7c-0.6-0.5-0.9-1.1-0.9-1.9c0-1.7,1.3-2.7,3.4-2.7c1.4,0,2.4,0.4,3,1.2
			c0.3,0.4,0.4,0.8,0.6,1.4l-1.7,0.2c-0.1-0.4-0.2-0.6-0.4-0.9c-0.3-0.4-0.8-0.6-1.5-0.6c-1,0-1.8,0.5-1.8,1.3
			c0,0.5,0.3,0.9,0.8,1.1c0.3,0.1,0.4,0.1,1.7,0.4c0.9,0.2,1.5,0.4,2,0.7c0.7,0.5,1,1.2,1,2.1c0,0.9-0.3,1.5-0.8,2
			c-0.6,0.6-1.6,0.9-2.9,0.9c-1,0-1.9-0.2-2.5-0.6c-0.5-0.3-0.8-0.8-1.1-1.4c-0.1-0.3-0.2-0.5-0.2-1L-10107.1,2764.2z"/>
		<path d="M-10078.9,2757.6c-0.1,0.5-0.1,0.8-0.1,1.5v6.5c0,0.7,0,1.1,0.1,1.5h-1.8c0.1-0.5,0.1-0.8,0.1-1.5v-6.5
			c0-0.7,0-1.1-0.1-1.5H-10078.9z"/>
		<path d="M-10050.7,2758.6c0.9,0.9,1.3,2.2,1.3,3.7c0,3-1.8,5-4.5,5s-4.5-2-4.5-5c0-1.5,0.5-2.9,1.4-3.7c0.8-0.8,1.8-1.2,3.1-1.2
			C-10052.6,2757.4-10051.5,2757.8-10050.7,2758.6z M-10051.1,2762.3c0-1.2-0.3-2.2-0.9-2.8c-0.5-0.5-1.1-0.7-1.8-0.7
			c-1.7,0-2.8,1.4-2.8,3.5c0,1.2,0.3,2.2,1,2.8c0.5,0.5,1.1,0.7,1.9,0.7C-10052.1,2765.9-10051.1,2764.6-10051.1,2762.3z"/>
		<path d="M-10022.5,2767.1c-0.2-0.4-0.4-0.8-0.8-1.3l-3.1-4.7c-0.2-0.4-0.5-0.9-0.8-1.4c0,0.2,0,0.2,0,0.6c0,0.2,0,0.8,0,1v3.9
			c0,0.8,0,1.4,0.1,1.8h-1.8c0.1-0.4,0.1-1,0.1-1.8v-6.2c0-0.6,0-1.1-0.1-1.5h1.9c0.1,0.3,0.3,0.7,0.7,1.3l3,4.6
			c0.3,0.4,0.7,1.1,0.9,1.5c0-0.5-0.1-1.2-0.1-1.7v-4c0-0.7,0-1.2-0.1-1.7h1.8c-0.1,0.5-0.1,0.9-0.1,1.7v6.3c0,0.7,0,1.1,0.1,1.5
			H-10022.5z"/>
	</g>
	<path id="路径_39858" class="st8" d="M-10269.4,2839.7c-0.2,1.7-0.8,3.4-1.7,4.8c-1.7,2.4-4.8,3.8-8.4,3.8
		c-7.3,0-11.9-5.9-11.9-15.4c0-9.6,4.5-15.3,11.9-15.3c2.9-0.1,5.7,1,7.6,3.2c1.1,1.3,1.8,2.8,2.2,4.5l7.2-1.7
		c-0.4-1.4-0.9-2.7-1.6-4c-1.3-2.3-3.2-4.3-5.5-5.7c-3-1.8-6.5-2.6-10-2.5c-4.8-0.2-9.5,1.6-13,4.9c-3.9,3.9-6.1,9.9-6.1,16.8
		c0,6.7,2,12.5,5.7,16.3c3.2,3.3,7.7,5,13.4,5c6.2,0,11.2-2,14.2-5.7c1.7-2.3,2.9-5,3.5-7.8L-10269.4,2839.7z M-10235.8,2823.8
		c-1.6-0.3-3.2-0.5-4.8-0.6c-4.7,0-7.9,1.8-9.8,5.5v-4.9h-7.1c0.3,2.2,0.4,4.5,0.4,6.8v16.3c0,2.3-0.1,4.5-0.4,6.8h7.4
		c-0.3-2.2-0.4-4.5-0.4-6.8v-9.6c0.1-1.9,0.8-3.8,2.1-5.2c1.5-1.7,3.7-2.7,6-2.5c1.6,0,3.1,0.3,4.6,0.8L-10235.8,2823.8z
		 M-10205.1,2840.4c-0.1-1.2-0.1-1.4-0.1-1.5c0-2.7-0.5-5.4-1.5-7.9c-2.1-5.2-6.9-8.2-12.9-8.2c-8.9,0-14.7,6.3-14.7,15.9
		c0,9.7,5.8,15.9,15,15.9c4,0.2,7.8-1.3,10.7-4c1.4-1.4,2.4-3,3.2-4.8l-6.1-2c-0.3,1-0.8,1.9-1.5,2.7c-1.6,1.7-3.9,2.7-6.2,2.6
		c-2.5,0.1-4.9-1-6.5-2.9c-1.2-1.5-1.7-3-1.9-5.8L-10205.1,2840.4z M-10227.5,2835.3c0.8-4.4,3.7-7.1,7.8-7.1
		c2.1-0.1,4.1,0.6,5.6,2.1c1.3,1.3,2.1,3.1,2.3,5H-10227.5z M-10181.2,2853.6h7c-0.3-2.2-0.4-4.3-0.4-6.5v-14c0-3.5-0.7-5.5-2.4-7.2
		c-2.2-2.2-5.3-3.1-10.2-3.1c-4.5,0-7.4,0.8-9.9,2.7c-2,1.4-2.9,2.8-4.1,5.8l6.7,1.2c0.6-1.9,1.1-2.6,2.1-3.3c1.6-1,3.5-1.6,5.4-1.5
		c4,0,6,1.6,6,4.6v2.6c-7.4,0.2-11.3,0.7-14.7,2.1c-3.5,1.4-5.8,4.7-5.9,8.4c0,5.5,3.8,8.7,10.2,8.7c1.6,0,3.3-0.2,4.8-0.6
		c2.1-0.5,4-1.7,5.5-3.3L-10181.2,2853.6z M-10181.2,2842c0,1.7-0.6,3.4-1.9,4.6c-2,1.8-4.6,2.8-7.2,2.8c-2.9,0-4.7-1.5-4.7-4
		c0-4.1,3.9-5.8,13.8-6V2842z M-10165.5,2815.8c0.2,2.1,0.4,4.3,0.4,6.4v1.6h-1.9c-1.6,0-3.1-0.1-4.7-0.3v6.1
		c1.5-0.2,3.1-0.3,4.6-0.3h2v17.5c0,5.5,2.4,7.6,8.4,7.6c2.2,0.1,4.4-0.3,6.5-1.1l-0.9-5.5c-1.1,0.7-2.4,1.1-3.8,1.1
		c-2.5,0-3.4-0.9-3.4-3.5v-16.1h2.3c1.7,0,3.4,0.1,5.1,0.3v-6.1c-1.7,0.3-3.5,0.4-5.3,0.3h-2.2v-1.6c0-2.1,0.1-4.3,0.4-6.4H-10165.5
		z M-10119.5,2840.4c-0.1-1.2-0.1-1.4-0.1-1.5c0-2.7-0.5-5.4-1.5-7.9c-2.1-5.2-6.9-8.2-12.9-8.2c-8.9,0-14.7,6.3-14.7,15.9
		c0,9.7,5.8,15.9,15,15.9c4,0.2,7.8-1.3,10.7-4c1.4-1.4,2.4-3,3.2-4.8l-6.1-2c-0.3,1-0.8,1.9-1.5,2.7c-1.6,1.7-3.9,2.7-6.2,2.6
		c-2.5,0.1-4.9-1-6.5-2.9c-1.2-1.5-1.7-3-1.9-5.8L-10119.5,2840.4z M-10142,2835.3c0.8-4.4,3.7-7.1,7.8-7.1c2.1-0.1,4.1,0.6,5.6,2.1
		c1.3,1.3,2.1,3.1,2.3,5H-10142z"/>
</g>
</svg>
