<svg xmlns="http://www.w3.org/2000/svg" xmlns:xlink="http://www.w3.org/1999/xlink" width="1820" height="880" viewBox="0 0 1820 880">
  <defs>
    <clipPath id="clip-path">
      <rect id="矩形_2253" data-name="矩形 2253" width="1820" height="880" fill="#fff"/>
    </clipPath>
  </defs>
  <g id="组_21877" data-name="组 21877" transform="translate(-10461 1340)">
    <g id="组_21863" data-name="组 21863" transform="translate(10411 -1428)">
      <g id="组_21795" data-name="组 21795" transform="translate(0 -72)">
        <g id="NAV_bg" transform="translate(50 160)" clip-path="url(#clip-path)">
          <g id="组_21480" data-name="组 21480" transform="translate(0 37)" opacity="0.05">
            <g id="组_21478" data-name="组 21478" transform="translate(0 7.733)">
              <g id="组_21420" data-name="组 21420" transform="translate(496.006 224.522)">
                <g id="组_21418" data-name="组 21418" transform="translate(0 0)">
                  <rect id="矩形_2227" data-name="矩形 2227" width="472.183" height="1.891" transform="translate(0 84.71) rotate(-10.335)"/>
                </g>
                <g id="组_21419" data-name="组 21419" transform="translate(0 0)">
                  <rect id="矩形_2228" data-name="矩形 2228" width="472.183" height="1.891" transform="translate(0 84.71) rotate(-10.335)"/>
                </g>
              </g>
              <g id="组_21424" data-name="组 21424" transform="translate(496.139 32.308)">
                <g id="组_21421" data-name="组 21421" transform="translate(464.098 0.366)">
                  <rect id="矩形_2229" data-name="矩形 2229" width="192.908" height="1.261" transform="matrix(0.063, -0.998, 0.998, 0.063, 0, 192.522)"/>
                </g>
                <g id="组_21422" data-name="组 21422" transform="translate(0)">
                  <path id="路径_37381" data-name="路径 37381" d="M63.23,337.945l-.63-1.261L538.566,59.3l1.261,1.261Z" transform="translate(-62.6 -59.3)"/>
                </g>
                <g id="组_21423" data-name="组 21423" transform="translate(0)">
                  <path id="路径_37382" data-name="路径 37382" d="M63.23,337.945l-.63-1.261L538.566,59.3l1.261,1.261Z" transform="translate(-62.6 -59.3)"/>
                </g>
              </g>
              <g id="组_21429" data-name="组 21429" transform="translate(495.837 32.165)">
                <g id="组_21425" data-name="组 21425" transform="translate(326.765 0)">
                  <rect id="矩形_2230" data-name="矩形 2230" width="182.191" height="1.261" transform="translate(0 104.013) rotate(-34.814)"/>
                </g>
                <g id="组_21426" data-name="组 21426" transform="translate(327.17 104.435)">
                  <rect id="矩形_2231" data-name="矩形 2231" width="1.261" height="163.278" transform="matrix(0.54, -0.841, 0.841, 0.54, 0, 1.061)"/>
                </g>
                <g id="组_21427" data-name="组 21427" transform="translate(0 103.907)">
                  <rect id="矩形_2232" data-name="矩形 2232" width="370.055" height="1.261" transform="translate(0 173.556) rotate(-27.969)"/>
                </g>
                <g id="组_21428" data-name="组 21428" transform="translate(0 103.907)">
                  <rect id="矩形_2233" data-name="矩形 2233" width="370.055" height="1.261" transform="translate(0 173.556) rotate(-27.969)"/>
                </g>
              </g>
              <g id="组_21432" data-name="组 21432" transform="translate(0 309.692)">
                <g id="组_21430" data-name="组 21430">
                  <path id="路径_37383" data-name="路径 37383" d="M-16.1,576.113,480.669,104.561l-.63-1.261L-16.1,574.222Z" transform="translate(16.1 -103.3)"/>
                </g>
                <g id="组_21431" data-name="组 21431">
                  <path id="路径_37384" data-name="路径 37384" d="M-16.1,576.113,480.669,104.561l-.63-1.261L-16.1,574.222Z" transform="translate(16.1 -103.3)"/>
                </g>
              </g>
              <g id="组_21439" data-name="组 21439" transform="translate(0 136.327)">
                <g id="组_21433" data-name="组 21433" transform="translate(0 127.344)">
                  <path id="路径_37385" data-name="路径 37385" d="M-16.1,493.163,55.768,96H53.876L-16.1,484.337Z" transform="translate(16.1 -96)"/>
                </g>
                <g id="组_21434" data-name="组 21434" transform="translate(0 115.366)">
                  <path id="路径_37386" data-name="路径 37386" d="M-16.1,94.1v1.261l70.607,11.347.63-1.261Z" transform="translate(16.1 -94.1)"/>
                </g>
                <g id="组_21435" data-name="组 21435" transform="translate(70.607)">
                  <path id="路径_37387" data-name="路径 37387" d="M-4.27,203.775l-.63-1.261L747.819,75.8v1.261Z" transform="translate(4.9 -75.8)"/>
                </g>
                <g id="组_21436" data-name="组 21436" transform="translate(0 126.714)">
                  <path id="路径_37388" data-name="路径 37388" d="M-16.1,143.181,55.137,97.161l-.63-1.261L-16.1,141.29Z" transform="translate(16.1 -95.9)"/>
                </g>
                <g id="组_21437" data-name="组 21437" transform="translate(71.065 126.796)">
                  <rect id="矩形_2234" data-name="矩形 2234" width="1.261" height="428.054" transform="translate(0 1.253) rotate(-83.754)"/>
                </g>
                <g id="组_21438" data-name="组 21438" transform="translate(71.065 126.796)">
                  <rect id="矩形_2235" data-name="矩形 2235" width="1.261" height="428.054" transform="translate(0 1.253) rotate(-83.754)"/>
                </g>
              </g>
              <g id="组_21445" data-name="组 21445" transform="translate(495.939 33.135)">
                <g id="组_21440" data-name="组 21440" transform="translate(326.126 103.822)">
                  <path id="路径_37389" data-name="路径 37389" d="M215.8,741.621,114.3,75.9h1.891L217.058,741.621Z" transform="translate(-114.3 -75.9)"/>
                </g>
                <g id="组_21441" data-name="组 21441" transform="translate(427.475 0)">
                  <rect id="矩形_2236" data-name="矩形 2236" width="771.001" height="1.261" transform="translate(0 769.459) rotate(-86.406)"/>
                </g>
                <g id="组_21442" data-name="组 21442" transform="translate(427.648 192.686)">
                  <rect id="矩形_2237" data-name="矩形 2237" width="578.093" height="1.261" transform="translate(0 576.937) rotate(-86.392)"/>
                </g>
                <g id="组_21443" data-name="组 21443" transform="translate(0 276.653)">
                  <rect id="矩形_2238" data-name="矩形 2238" width="1.261" height="652.483" transform="matrix(0.755, -0.656, 0.656, 0.755, 0, 0.827)"/>
                </g>
                <g id="组_21444" data-name="组 21444" transform="translate(0 276.653)">
                  <rect id="矩形_2239" data-name="矩形 2239" width="1.261" height="652.483" transform="matrix(0.755, -0.656, 0.656, 0.755, 0, 0.827)"/>
                </g>
              </g>
              <g id="组_21453" data-name="组 21453" transform="translate(0 136.728)">
                <g id="组_21446" data-name="组 21446" transform="translate(529.871 665.909)">
                  <rect id="矩形_2240" data-name="矩形 2240" width="404.098" height="1.891" transform="matrix(0.976, -0.219, 0.219, 0.976, 0, 88.336)"/>
                </g>
                <g id="组_21447" data-name="组 21447" transform="translate(69.976 126.313)">
                  <path id="路径_37390" data-name="路径 37390" d="M454.575,725.688-5,97.161-3.739,95.9,455.836,725.057Z" transform="translate(5 -95.9)"/>
                </g>
                <g id="组_21448" data-name="组 21448" transform="translate(0 674.146)">
                  <path id="路径_37391" data-name="路径 37391" d="M-16.1,182.8v1.261l530.182,81.324v-1.891Z" transform="translate(16.1 -182.8)"/>
                </g>
                <g id="组_21449" data-name="组 21449" transform="translate(529.561)">
                  <rect id="矩形_2241" data-name="矩形 2241" width="810.087" height="1.891" transform="translate(0 755.406) rotate(-68.826)"/>
                </g>
                <g id="组_21450" data-name="组 21450" transform="translate(529.551 88.488)">
                  <path id="路径_37392" data-name="路径 37392" d="M69.161,757.513l-1.261-.63L498.476,89.9l1.261.63Z" transform="translate(-67.9 -89.9)"/>
                </g>
                <g id="组_21451" data-name="组 21451" transform="translate(495.627 173.374)">
                  <rect id="矩形_2242" data-name="矩形 2242" width="1.891" height="583.137" transform="matrix(0.998, -0.058, 0.058, 0.998, 0, 0.11)"/>
                </g>
                <g id="组_21452" data-name="组 21452" transform="translate(495.627 173.374)">
                  <rect id="矩形_2243" data-name="矩形 2243" width="1.891" height="583.137" transform="matrix(0.998, -0.058, 0.058, 0.998, 0, 0.11)"/>
                </g>
              </g>
              <g id="组_21458" data-name="组 21458" transform="translate(822.695 0)">
                <g id="组_21454" data-name="组 21454" transform="translate(552.246 0.157)">
                  <path id="路径_37393" data-name="路径 37393" d="M793.962,371.3,202.63,54.2,202,55.461l591.962,317.1Z" transform="translate(-202 -54.2)"/>
                </g>
                <g id="组_21455" data-name="组 21455" transform="translate(0 0.157)">
                  <path id="路径_37394" data-name="路径 37394" d="M115.03,191.631l-.63-1.261L666.646,54.2l.63,1.261Z" transform="translate(-114.4 -54.2)"/>
                </g>
                <g id="组_21456" data-name="组 21456" transform="translate(150.039 0.157)">
                  <path id="路径_37395" data-name="路径 37395" d="M138.2,87.612V86.351L540.407,54.2l.63,1.261Z" transform="translate(-138.2 -54.2)"/>
                </g>
                <g id="组_21457" data-name="组 21457" transform="translate(137.898)">
                  <rect id="矩形_2244" data-name="矩形 2244" width="471.553" height="1.261" transform="matrix(0.879, -0.477, 0.477, 0.879, 0, 224.789)"/>
                </g>
              </g>
              <g id="组_21461" data-name="组 21461" transform="translate(924.193 225.193)">
                <g id="组_21459" data-name="组 21459" transform="translate(0 576.855)">
                  <path id="路径_37396" data-name="路径 37396" d="M572.423,284.789,130.5,182.661V181.4L572.423,282.9Z" transform="translate(-130.5 -181.4)"/>
                </g>
                <g id="组_21460" data-name="组 21460" transform="translate(35.844 0)">
                  <rect id="矩形_2245" data-name="矩形 2245" width="1.891" height="791.175" transform="translate(0 0.97) rotate(-30.843)"/>
                </g>
              </g>
              <g id="组_21469" data-name="组 21469" transform="translate(822.695 0.025)">
                <g id="组_21462" data-name="组 21462" transform="translate(542.664 534.601)">
                  <rect id="矩形_2246" data-name="矩形 2246" width="398.424" height="1.891" transform="matrix(0.374, -0.927, 0.927, 0.374, 0, 369.459)"/>
                </g>
                <g id="组_21463" data-name="组 21463" transform="translate(551.651 0)">
                  <rect id="矩形_2247" data-name="矩形 2247" width="1.891" height="552.246" transform="matrix(0.967, -0.253, 0.253, 0.967, 0, 0.479)"/>
                </g>
                <g id="组_21464" data-name="组 21464" transform="translate(692.199 393.513)">
                  <path id="路径_37397" data-name="路径 37397" d="M676.21,116.6,224.2,257.183v1.261L676.21,118.491Z" transform="translate(-224.2 -116.6)"/>
                </g>
                <g id="组_21465" data-name="组 21465" transform="translate(101.262 533.511)">
                  <rect id="矩形_2248" data-name="矩形 2248" width="648.7" height="1.261" transform="translate(0 268.627) rotate(-24.463)"/>
                </g>
                <g id="组_21466" data-name="组 21466" transform="translate(0 136.302)">
                  <path id="路径_37398" data-name="路径 37398" d="M805.968,474.855,114.4,77.061l.63-1.261,692.2,397.794Z" transform="translate(-114.4 -75.8)"/>
                </g>
                <g id="组_21467" data-name="组 21467" transform="translate(149.585 32.046)">
                  <rect id="矩形_2249" data-name="矩形 2249" width="1.891" height="738.85" transform="translate(0 1.388) rotate(-47.229)"/>
                </g>
                <g id="组_21468" data-name="组 21468" transform="translate(137.402 224.553)">
                  <rect id="矩形_2250" data-name="矩形 2250" width="1.891" height="634.831" transform="translate(0 1.652) rotate(-60.849)"/>
                </g>
              </g>
              <g id="组_21471" data-name="组 21471" transform="translate(1514.894 534.12)">
                <g id="组_21470" data-name="组 21470">
                  <path id="路径_37399" data-name="路径 37399" d="M676.21,256.788,224.2,138.9v1.261L676.21,258.679Z" transform="translate(-224.2 -138.9)"/>
                </g>
              </g>
              <g id="组_21477" data-name="组 21477" transform="translate(924.091 497.556)">
                <g id="组_21472" data-name="组 21472" transform="translate(742.734 341.056)">
                  <path id="路径_37400" data-name="路径 37400" d="M548.379,187.2,248.3,283.654l.63,1.891,299.448-96.454Z" transform="translate(-248.3 -187.2)"/>
                </g>
                <g id="组_21473" data-name="组 21473" transform="translate(590.173 36.564)">
                  <path id="路径_37401" data-name="路径 37401" d="M376.661,541.107,224.1,139.531l1.261-.631L377.922,540.476Z" transform="translate(-224.1 -138.9)"/>
                </g>
                <g id="组_21474" data-name="组 21474" transform="translate(441.745 405.549)">
                  <rect id="矩形_2251" data-name="矩形 2251" width="1.891" height="302.601" transform="translate(0 1.881) rotate(-83.996)"/>
                </g>
                <g id="组_21475" data-name="组 21475" transform="translate(742.734)">
                  <path id="路径_37402" data-name="路径 37402" d="M548.379,133.1,248.3,571.241l1.261.63L548.379,135.622Z" transform="translate(-248.3 -133.1)"/>
                </g>
                <g id="组_21476" data-name="组 21476" transform="translate(0 304.675)">
                  <rect id="矩形_2252" data-name="矩形 2252" width="1.261" height="754.61" transform="translate(0 1.241) rotate(-79.81)"/>
                </g>
              </g>
            </g>
            <g id="组_21479" data-name="组 21479" transform="translate(62.717)">
              <path id="路径_37403" data-name="路径 37403" d="M71.76,118.234a8.183,8.183,0,1,1,5.674-10.087C78.694,111.929,76.173,116.973,71.76,118.234Z" transform="translate(364.184 208.017)"/>
              <path id="路径_37404" data-name="路径 37404" d="M145.46,104.734a8.183,8.183,0,1,1,5.674-10.087C151.764,99.06,149.242,103.473,145.46,104.734Z" transform="translate(755.102 136.411)"/>
              <path id="路径_37405" data-name="路径 37405" d="M71.76,118.234a8.183,8.183,0,1,1,5.674-10.087C78.694,111.929,76.173,116.973,71.76,118.234Z" transform="translate(364.184 208.017)"/>
              <path id="路径_37406" data-name="路径 37406" d="M145.46,104.734a8.183,8.183,0,1,1,5.674-10.087C151.764,99.06,149.242,103.473,145.46,104.734Z" transform="translate(755.102 136.411)"/>
              <path id="路径_37407" data-name="路径 37407" d="M145.46,104.734a8.183,8.183,0,1,1,5.674-10.087C151.764,99.06,149.242,103.473,145.46,104.734Z" transform="translate(755.102 136.411)"/>
              <path id="路径_37408" data-name="路径 37408" d="M147.36,74.234a8.183,8.183,0,1,1,5.674-10.087C154.294,67.929,151.773,72.973,147.36,74.234Z" transform="translate(765.18 -25.367)"/>
              <path id="路径_37409" data-name="路径 37409" d="M71.76,118.234a8.183,8.183,0,1,1,5.674-10.087C78.694,111.929,76.173,116.973,71.76,118.234Z" transform="translate(364.184 208.017)"/>
              <path id="路径_37410" data-name="路径 37410" d="M147.36,74.234a8.183,8.183,0,1,1,5.674-10.087C154.294,67.929,151.773,72.973,147.36,74.234Z" transform="translate(765.18 -25.367)"/>
              <path id="路径_37411" data-name="路径 37411" d="M71.76,118.234a8.183,8.183,0,1,1,5.674-10.087C78.694,111.929,76.173,116.973,71.76,118.234Z" transform="translate(364.184 208.017)"/>
              <path id="路径_37412" data-name="路径 37412" d="M147.36,74.234a8.183,8.183,0,1,1,5.674-10.087C154.294,67.929,151.773,72.973,147.36,74.234Z" transform="translate(765.18 -25.367)"/>
              <path id="路径_37413" data-name="路径 37413" d="M147.36,74.234a8.183,8.183,0,1,1,5.674-10.087C154.294,67.929,151.773,72.973,147.36,74.234Z" transform="translate(765.18 -25.367)"/>
              <path id="路径_37414" data-name="路径 37414" d="M123.56,90.734a8.183,8.183,0,1,1,5.674-10.087C130.494,84.429,127.973,89.473,123.56,90.734Z" transform="translate(638.94 62.152)"/>
              <path id="路径_37415" data-name="路径 37415" d="M145.46,104.734a8.183,8.183,0,1,1,5.674-10.087C151.764,99.06,149.242,103.473,145.46,104.734Z" transform="translate(755.102 136.411)"/>
              <path id="路径_37416" data-name="路径 37416" d="M123.56,90.734a8.183,8.183,0,1,1,5.674-10.087C130.494,84.429,127.973,89.473,123.56,90.734Z" transform="translate(638.94 62.152)"/>
              <path id="路径_37417" data-name="路径 37417" d="M71.76,118.234a8.183,8.183,0,1,1,5.674-10.087C78.694,111.929,76.173,116.973,71.76,118.234Z" transform="translate(364.184 208.017)"/>
              <path id="路径_37418" data-name="路径 37418" d="M123.56,90.734a8.183,8.183,0,1,1,5.674-10.087C130.494,84.429,127.973,89.473,123.56,90.734Z" transform="translate(638.94 62.152)"/>
              <path id="路径_37419" data-name="路径 37419" d="M71.76,118.234a8.183,8.183,0,1,1,5.674-10.087C78.694,111.929,76.173,116.973,71.76,118.234Z" transform="translate(364.184 208.017)"/>
              <path id="路径_37420" data-name="路径 37420" d="M123.56,90.734a8.183,8.183,0,1,1,5.674-10.087C130.494,84.429,127.973,89.473,123.56,90.734Z" transform="translate(638.94 62.152)"/>
              <path id="路径_37421" data-name="路径 37421" d="M71.76,118.234a8.183,8.183,0,1,1,5.674-10.087C78.694,111.929,76.173,116.973,71.76,118.234Z" transform="translate(364.184 208.017)"/>
              <path id="路径_37422" data-name="路径 37422" d="M71.76,118.234a8.183,8.183,0,1,1,5.674-10.087C78.694,111.929,76.173,116.973,71.76,118.234Z" transform="translate(364.184 208.017)"/>
              <path id="路径_37423" data-name="路径 37423" d="M4.26,110.834A8.1,8.1,0,0,1-5.827,105.16,8.1,8.1,0,0,1-.153,95.073a8.1,8.1,0,0,1,10.087,5.674C11.194,104.529,8.673,109.573,4.26,110.834Z" transform="translate(6.151 168.766)"/>
              <path id="路径_37424" data-name="路径 37424" d="M4.26,110.834A8.1,8.1,0,0,1-5.827,105.16,8.1,8.1,0,0,1-.153,95.073a8.1,8.1,0,0,1,10.087,5.674C11.194,104.529,8.673,109.573,4.26,110.834Z" transform="translate(6.151 168.766)"/>
              <path id="路径_37425" data-name="路径 37425" d="M123.56,90.734a8.183,8.183,0,1,1,5.674-10.087C130.494,84.429,127.973,89.473,123.56,90.734Z" transform="translate(638.94 62.152)"/>
              <path id="路径_37426" data-name="路径 37426" d="M4.26,110.834A8.1,8.1,0,0,1-5.827,105.16,8.1,8.1,0,0,1-.153,95.073a8.1,8.1,0,0,1,10.087,5.674C11.194,104.529,8.673,109.573,4.26,110.834Z" transform="translate(6.151 168.766)"/>
              <path id="路径_37427" data-name="路径 37427" d="M4.26,110.834A8.1,8.1,0,0,1-5.827,105.16,8.1,8.1,0,0,1-.153,95.073a8.1,8.1,0,0,1,10.087,5.674C11.194,104.529,8.673,109.573,4.26,110.834Z" transform="translate(6.151 168.766)"/>
              <path id="路径_37428" data-name="路径 37428" d="M71.76,118.234a8.183,8.183,0,1,1,5.674-10.087C78.694,111.929,76.173,116.973,71.76,118.234Z" transform="translate(364.184 208.017)"/>
              <path id="路径_37429" data-name="路径 37429" d="M4.26,110.834A8.1,8.1,0,0,1-5.827,105.16,8.1,8.1,0,0,1-.153,95.073a8.1,8.1,0,0,1,10.087,5.674C11.194,104.529,8.673,109.573,4.26,110.834Z" transform="translate(6.151 168.766)"/>
              <path id="路径_37430" data-name="路径 37430" d="M71.76,118.234a8.183,8.183,0,1,1,5.674-10.087C78.694,111.929,76.173,116.973,71.76,118.234Z" transform="translate(364.184 208.017)"/>
              <path id="路径_37431" data-name="路径 37431" d="M4.26,110.834A8.1,8.1,0,0,1-5.827,105.16,8.1,8.1,0,0,1-.153,95.073a8.1,8.1,0,0,1,10.087,5.674C11.194,104.529,8.673,109.573,4.26,110.834Z" transform="translate(6.151 168.766)"/>
              <path id="路径_37432" data-name="路径 37432" d="M123.56,90.734a8.183,8.183,0,1,1,5.674-10.087C130.494,84.429,127.973,89.473,123.56,90.734Z" transform="translate(638.94 62.152)"/>
              <path id="路径_37433" data-name="路径 37433" d="M139.66,196.234a8.183,8.183,0,1,1,5.674-10.087A8.1,8.1,0,0,1,139.66,196.234Z" transform="translate(724.337 621.743)"/>
              <path id="路径_37434" data-name="路径 37434" d="M147.36,74.234a8.183,8.183,0,1,1,5.674-10.087C154.294,67.929,151.773,72.973,147.36,74.234Z" transform="translate(765.18 -25.367)"/>
              <path id="路径_37435" data-name="路径 37435" d="M139.66,196.234a8.183,8.183,0,1,1,5.674-10.087A8.1,8.1,0,0,1,139.66,196.234Z" transform="translate(724.337 621.743)"/>
              <path id="路径_37436" data-name="路径 37436" d="M145.46,104.734a8.183,8.183,0,1,1,5.674-10.087C151.764,99.06,149.242,103.473,145.46,104.734Z" transform="translate(755.102 136.411)"/>
              <path id="路径_37437" data-name="路径 37437" d="M139.66,196.234a8.183,8.183,0,1,1,5.674-10.087A8.1,8.1,0,0,1,139.66,196.234Z" transform="translate(724.337 621.743)"/>
              <path id="路径_37438" data-name="路径 37438" d="M71.76,118.234a8.183,8.183,0,1,1,5.674-10.087C78.694,111.929,76.173,116.973,71.76,118.234Z" transform="translate(364.184 208.017)"/>
              <path id="路径_37439" data-name="路径 37439" d="M139.66,196.234a8.183,8.183,0,1,1,5.674-10.087A8.1,8.1,0,0,1,139.66,196.234Z" transform="translate(724.337 621.743)"/>
              <path id="路径_37440" data-name="路径 37440" d="M71.76,118.234a8.183,8.183,0,1,1,5.674-10.087C78.694,111.929,76.173,116.973,71.76,118.234Z" transform="translate(364.184 208.017)"/>
              <path id="路径_37441" data-name="路径 37441" d="M139.66,196.234a8.183,8.183,0,1,1,5.674-10.087A8.1,8.1,0,0,1,139.66,196.234Z" transform="translate(724.337 621.743)"/>
              <path id="路径_37442" data-name="路径 37442" d="M139.66,196.234a8.183,8.183,0,1,1,5.674-10.087A8.1,8.1,0,0,1,139.66,196.234Z" transform="translate(724.337 621.743)"/>
              <path id="路径_37443" data-name="路径 37443" d="M77.16,210.534a8.183,8.183,0,1,1,5.674-10.087A8.1,8.1,0,0,1,77.16,210.534Z" transform="translate(392.826 697.593)"/>
              <path id="路径_37444" data-name="路径 37444" d="M4.26,110.834A8.1,8.1,0,0,1-5.827,105.16,8.1,8.1,0,0,1-.153,95.073a8.1,8.1,0,0,1,10.087,5.674C11.194,104.529,8.673,109.573,4.26,110.834Z" transform="translate(6.151 168.766)"/>
              <path id="路径_37445" data-name="路径 37445" d="M77.16,210.534a8.183,8.183,0,1,1,5.674-10.087A8.1,8.1,0,0,1,77.16,210.534Z" transform="translate(392.826 697.593)"/>
              <path id="路径_37446" data-name="路径 37446" d="M77.16,210.534a8.183,8.183,0,1,1,5.674-10.087A8.1,8.1,0,0,1,77.16,210.534Z" transform="translate(392.826 697.593)"/>
              <path id="路径_37447" data-name="路径 37447" d="M123.56,90.734a8.183,8.183,0,1,1,5.674-10.087C130.494,84.429,127.973,89.473,123.56,90.734Z" transform="translate(638.94 62.152)"/>
              <path id="路径_37448" data-name="路径 37448" d="M77.16,210.534a8.183,8.183,0,1,1,5.674-10.087A8.1,8.1,0,0,1,77.16,210.534Z" transform="translate(392.826 697.593)"/>
              <path id="路径_37449" data-name="路径 37449" d="M145.46,104.734a8.183,8.183,0,1,1,5.674-10.087C151.764,99.06,149.242,103.473,145.46,104.734Z" transform="translate(755.102 136.411)"/>
              <path id="路径_37450" data-name="路径 37450" d="M77.16,210.534a8.183,8.183,0,1,1,5.674-10.087A8.1,8.1,0,0,1,77.16,210.534Z" transform="translate(392.826 697.593)"/>
              <path id="路径_37451" data-name="路径 37451" d="M71.76,118.234a8.183,8.183,0,1,1,5.674-10.087C78.694,111.929,76.173,116.973,71.76,118.234Z" transform="translate(364.184 208.017)"/>
              <path id="路径_37452" data-name="路径 37452" d="M77.16,210.534a8.183,8.183,0,1,1,5.674-10.087A8.1,8.1,0,0,1,77.16,210.534Z" transform="translate(392.826 697.593)"/>
              <path id="路径_37453" data-name="路径 37453" d="M71.76,118.234a8.183,8.183,0,1,1,5.674-10.087C78.694,111.929,76.173,116.973,71.76,118.234Z" transform="translate(364.184 208.017)"/>
              <path id="路径_37454" data-name="路径 37454" d="M77.16,210.534a8.183,8.183,0,1,1,5.674-10.087A8.1,8.1,0,0,1,77.16,210.534Z" transform="translate(392.826 697.593)"/>
              <path id="路径_37455" data-name="路径 37455" d="M211.16,69.034a8.183,8.183,0,1,1,5.674-10.087A8.1,8.1,0,0,1,211.16,69.034Z" transform="translate(1103.586 -52.949)"/>
              <path id="路径_37456" data-name="路径 37456" d="M123.56,90.734a8.183,8.183,0,1,1,5.674-10.087C130.494,84.429,127.973,89.473,123.56,90.734Z" transform="translate(638.94 62.152)"/>
              <path id="路径_37457" data-name="路径 37457" d="M211.16,69.034a8.183,8.183,0,1,1,5.674-10.087A8.1,8.1,0,0,1,211.16,69.034Z" transform="translate(1103.586 -52.949)"/>
              <path id="路径_37458" data-name="路径 37458" d="M147.36,74.234a8.183,8.183,0,1,1,5.674-10.087C154.294,67.929,151.773,72.973,147.36,74.234Z" transform="translate(765.18 -25.367)"/>
              <path id="路径_37459" data-name="路径 37459" d="M211.16,69.034a8.183,8.183,0,1,1,5.674-10.087A8.1,8.1,0,0,1,211.16,69.034Z" transform="translate(1103.586 -52.949)"/>
              <path id="路径_37460" data-name="路径 37460" d="M145.46,104.734a8.183,8.183,0,1,1,5.674-10.087C151.764,99.06,149.242,103.473,145.46,104.734Z" transform="translate(755.102 136.411)"/>
              <path id="路径_37461" data-name="路径 37461" d="M211.16,69.034a8.183,8.183,0,1,1,5.674-10.087A8.1,8.1,0,0,1,211.16,69.034Z" transform="translate(1103.586 -52.949)"/>
              <path id="路径_37462" data-name="路径 37462" d="M139.66,196.234a8.183,8.183,0,1,1,5.674-10.087A8.1,8.1,0,0,1,139.66,196.234Z" transform="translate(724.337 621.743)"/>
              <path id="路径_37463" data-name="路径 37463" d="M209.76,212.434a8.183,8.183,0,1,1,5.674-10.087A8.1,8.1,0,0,1,209.76,212.434Z" transform="translate(1096.16 707.671)"/>
              <path id="路径_37464" data-name="路径 37464" d="M145.46,104.734a8.183,8.183,0,1,1,5.674-10.087C151.764,99.06,149.242,103.473,145.46,104.734Z" transform="translate(755.102 136.411)"/>
              <path id="路径_37465" data-name="路径 37465" d="M209.76,212.434a8.183,8.183,0,1,1,5.674-10.087A8.1,8.1,0,0,1,209.76,212.434Z" transform="translate(1096.16 707.671)"/>
              <path id="路径_37466" data-name="路径 37466" d="M209.76,212.434a8.183,8.183,0,1,1,5.674-10.087A8.1,8.1,0,0,1,209.76,212.434Z" transform="translate(1096.16 707.671)"/>
              <path id="路径_37467" data-name="路径 37467" d="M233.36,153.733a8.183,8.183,0,1,1,5.674-10.087A8.1,8.1,0,0,1,233.36,153.733Z" transform="translate(1221.339 396.315)"/>
              <path id="路径_37468" data-name="路径 37468" d="M211.16,69.034a8.183,8.183,0,1,1,5.674-10.087A8.1,8.1,0,0,1,211.16,69.034Z" transform="translate(1103.586 -52.949)"/>
              <path id="路径_37469" data-name="路径 37469" d="M233.36,153.733a8.183,8.183,0,1,1,5.674-10.087A8.1,8.1,0,0,1,233.36,153.733Z" transform="translate(1221.339 396.315)"/>
              <path id="路径_37470" data-name="路径 37470" d="M233.36,153.733a8.183,8.183,0,1,1,5.674-10.087A8.1,8.1,0,0,1,233.36,153.733Z" transform="translate(1221.339 396.315)"/>
              <path id="路径_37471" data-name="路径 37471" d="M139.66,196.234a8.183,8.183,0,1,1,5.674-10.087A8.1,8.1,0,0,1,139.66,196.234Z" transform="translate(724.337 621.743)"/>
              <path id="路径_37472" data-name="路径 37472" d="M233.36,153.733a8.183,8.183,0,1,1,5.674-10.087A8.1,8.1,0,0,1,233.36,153.733Z" transform="translate(1221.339 396.315)"/>
              <path id="路径_37473" data-name="路径 37473" d="M123.56,90.734a8.183,8.183,0,1,1,5.674-10.087C130.494,84.429,127.973,89.473,123.56,90.734Z" transform="translate(638.94 62.152)"/>
              <path id="路径_37474" data-name="路径 37474" d="M233.36,153.733a8.183,8.183,0,1,1,5.674-10.087A8.1,8.1,0,0,1,233.36,153.733Z" transform="translate(1221.339 396.315)"/>
              <path id="路径_37475" data-name="路径 37475" d="M147.36,74.234a8.183,8.183,0,1,1,5.674-10.087C154.294,67.929,151.773,72.973,147.36,74.234Z" transform="translate(765.18 -25.367)"/>
              <path id="路径_37476" data-name="路径 37476" d="M233.36,153.733a8.183,8.183,0,1,1,5.674-10.087A8.1,8.1,0,0,1,233.36,153.733Z" transform="translate(1221.339 396.315)"/>
              <path id="路径_37477" data-name="路径 37477" d="M145.46,104.734a8.183,8.183,0,1,1,5.674-10.087C151.764,99.06,149.242,103.473,145.46,104.734Z" transform="translate(755.102 136.411)"/>
              <path id="路径_37478" data-name="路径 37478" d="M233.36,153.733a8.183,8.183,0,1,1,5.674-10.087A8.1,8.1,0,0,1,233.36,153.733Z" transform="translate(1221.339 396.315)"/>
              <path id="路径_37479" data-name="路径 37479" d="M233.36,153.733a8.183,8.183,0,1,1,5.674-10.087A8.1,8.1,0,0,1,233.36,153.733Z" transform="translate(1221.339 396.315)"/>
              <path id="路径_37480" data-name="路径 37480" d="M257.46,217.434a8.183,8.183,0,1,1,5.674-10.087A8.1,8.1,0,0,1,257.46,217.434Z" transform="translate(1349.17 734.192)"/>
              <path id="路径_37481" data-name="路径 37481" d="M233.36,153.733a8.183,8.183,0,1,1,5.674-10.087A8.1,8.1,0,0,1,233.36,153.733Z" transform="translate(1221.339 396.315)"/>
              <path id="路径_37482" data-name="路径 37482" d="M257.46,217.434a8.183,8.183,0,1,1,5.674-10.087A8.1,8.1,0,0,1,257.46,217.434Z" transform="translate(1349.17 734.192)"/>
              <path id="路径_37483" data-name="路径 37483" d="M209.76,212.434a8.183,8.183,0,1,1,5.674-10.087A8.1,8.1,0,0,1,209.76,212.434Z" transform="translate(1096.16 707.671)"/>
              <path id="路径_37484" data-name="路径 37484" d="M257.46,217.434a8.183,8.183,0,1,1,5.674-10.087A8.1,8.1,0,0,1,257.46,217.434Z" transform="translate(1349.17 734.192)"/>
              <path id="路径_37485" data-name="路径 37485" d="M257.46,217.434a8.183,8.183,0,1,1,5.674-10.087A8.1,8.1,0,0,1,257.46,217.434Z" transform="translate(1349.17 734.192)"/>
              <path id="路径_37486" data-name="路径 37486" d="M139.66,196.234a8.183,8.183,0,1,1,5.674-10.087A8.1,8.1,0,0,1,139.66,196.234Z" transform="translate(724.337 621.743)"/>
              <path id="路径_37487" data-name="路径 37487" d="M257.46,217.434a8.183,8.183,0,1,1,5.674-10.087A8.1,8.1,0,0,1,257.46,217.434Z" transform="translate(1349.17 734.192)"/>
            </g>
          </g>
        </g>
        <g id="_8-关于我们" data-name="8-关于我们" transform="translate(402.643 148.728)">
          <path id="路径_38118" data-name="路径 38118" d="M1231.839,505.063l-19.374,47.4,58.612,31.132,78.6-12.683,19.6-44.007-56.882-33.822Z" transform="translate(-147.953 -63.199)" fill="none" stroke="#231815" stroke-miterlimit="10" stroke-width="2"/>
          <path id="路径_38119" data-name="路径 38119" d="M1241.542,512.75l-16.613,39.432L1277.14,579.2l69.372-12.231,16.065-35.781-49.108-29.209Z" transform="translate(-150.837 -65.257)" fill="none" stroke="#231815" stroke-miterlimit="10" stroke-width="1.2"/>
          <g id="组_21568" data-name="组 21568" transform="translate(572.865 219.874)">
            <path id="路径_38120" data-name="路径 38120" d="M1003.193,338.012A229.506,229.506,0,0,0,802.434,219.874c-126.787,0-229.569,102.781-229.569,229.57a229.471,229.471,0,0,0,113.82,198.3" transform="translate(-572.865 -219.874)" fill="none" stroke="#0080f4" stroke-miterlimit="10" stroke-width="2"/>
            <path id="路径_38121" data-name="路径 38121" d="M849.9,756.142q8.232.588,16.616.592c117.069,0,213.671-87.629,227.793-200.872" transform="translate(-636.95 -297.595)" fill="none" stroke="#0080f4" stroke-miterlimit="10" stroke-width="2"/>
            <path id="路径_38122" data-name="路径 38122" d="M952.375,712.39c90.474-26.778,156.485-110.518,156.485-209.677a219.169,219.169,0,0,0-6.359-52.558" transform="translate(-660.654 -273.143)" fill="none" stroke="#ef54a1" stroke-miterlimit="10" stroke-width="2"/>
            <path id="路径_38123" data-name="路径 38123" d="M741.694,246.488C652.185,273.861,587.086,357.128,587.086,455.6a219.384,219.384,0,0,0,5.338,48.232" transform="translate(-576.155 -226.03)" fill="none" stroke="#ef54a1" stroke-miterlimit="10" stroke-width="2"/>
            <path id="路径_38124" data-name="路径 38124" d="M682.652,328.983a194.722,194.722,0,0,0-65.7,146.056c0,107.806,87.394,195.2,195.2,195.2s195.2-87.394,195.2-195.2a194.406,194.406,0,0,0-44.574-124.165" transform="translate(-583.064 -245.113)" fill="none" stroke="#0080f4" stroke-miterlimit="10" stroke-width="2"/>
            <path id="路径_38125" data-name="路径 38125" d="M970.083,668.654a187.772,187.772,0,0,0,97.742-240.293" transform="translate(-664.75 -268.102)" fill="none" stroke="#000" stroke-miterlimit="10" stroke-width="2"/>
            <path id="路径_38126" data-name="路径 38126" d="M970.083,740.967" transform="translate(-664.75 -340.414)" fill="none" stroke="#000" stroke-miterlimit="10" stroke-width="2"/>
            <path id="路径_38127" data-name="路径 38127" d="M916.087,304.5a186.673,186.673,0,0,0-102.193-30.261c-103.581,0-187.55,83.969-187.55,187.549,0,102.135,81.641,185.2,183.224,187.5" transform="translate(-585.236 -232.451)" fill="none" stroke="#0c111a" stroke-miterlimit="10" stroke-width="2"/>
            <path id="路径_38128" data-name="路径 38128" d="M743.173,304.111a179.543,179.543,0,1,0,196.453,294.5" transform="translate(-587.669 -239.36)" fill="none" stroke="#000" stroke-miterlimit="10" stroke-width="2"/>
            <path id="路径_38129" data-name="路径 38129" d="M995.949,333.711a178.889,178.889,0,0,0-119.395-49.76" transform="translate(-643.115 -234.696)" fill="none" stroke="#000" stroke-miterlimit="10" stroke-width="2"/>
            <path id="路径_38130" data-name="路径 38130" d="M1087.353,585.51c8.233-20.594,12.736-38.116,12.736-61.648" transform="translate(-691.877 -290.193)" fill="none" stroke="#000" stroke-miterlimit="10" stroke-width="2"/>
            <path id="路径_38131" data-name="路径 38131" d="M998.837,700.413" transform="translate(-671.402 -331.033)" fill="none" stroke="#000" stroke-miterlimit="10" stroke-width="2"/>
            <path id="路径_38132" data-name="路径 38132" d="M648.629,545.667a171.872,171.872,0,0,0,269.2,118.95" transform="translate(-590.391 -295.237)" fill="none" stroke="#000" stroke-miterlimit="10" stroke-width="2"/>
            <path id="路径_38133" data-name="路径 38133" d="M914.591,305.79a172.5,172.5,0,0,0-125.556-.18" transform="translate(-622.87 -236.991)" fill="none" stroke="#000" stroke-miterlimit="10" stroke-width="2"/>
            <path id="路径_38134" data-name="路径 38134" d="M661.284,565.223a165.078,165.078,0,0,0,221.8,117.551" transform="translate(-593.318 -299.761)" fill="none" stroke="#000" stroke-miterlimit="10" stroke-width="2"/>
            <path id="路径_38135" data-name="路径 38135" d="M880.227,307.369a164.645,164.645,0,0,0-108.683,15.378" transform="translate(-618.824 -239.36)" fill="none" stroke="#000" stroke-miterlimit="10" stroke-width="2"/>
            <path id="路径_38136" data-name="路径 38136" d="M794.583,702.094A157.584,157.584,0,0,0,948.56,680.809" transform="translate(-624.153 -326.498)" fill="none" stroke="#ef54a1" stroke-miterlimit="10" stroke-width="2"/>
            <path id="路径_38137" data-name="路径 38137" d="M912.45,325.235a157.927,157.927,0,0,0-117.356-.632" transform="translate(-624.271 -241.557)" fill="none" stroke="#0c111a" stroke-miterlimit="10" stroke-width="2"/>
            <path id="路径_38138" data-name="路径 38138" d="M617.735,645.42A218.7,218.7,0,0,0,828.6,765.718q1.885-.133,3.76-.3" transform="translate(-583.244 -318.312)" fill="none" stroke="#0080f4" stroke-miterlimit="10" stroke-width="2"/>
          </g>
          <g id="组_21569" data-name="组 21569" transform="translate(585.458 234.915)">
            <circle id="椭圆_1730" data-name="椭圆 1730" cx="3.872" cy="3.872" r="3.872" transform="translate(414.888 101.339)" fill="#0080f4"/>
            <circle id="椭圆_1731" data-name="椭圆 1731" cx="3.227" cy="3.227" r="3.227" transform="translate(316.867 55.248)"/>
            <circle id="椭圆_1732" data-name="椭圆 1732" cx="2.895" cy="2.895" r="2.895" transform="translate(338.082 82.397)"/>
            <circle id="椭圆_1733" data-name="椭圆 1733" cx="2.895" cy="2.895" r="2.895" transform="translate(216.18 31.49)"/>
            <circle id="椭圆_1734" data-name="椭圆 1734" cx="3.227" cy="3.227" r="3.227" transform="translate(277.316 51.404)"/>
            <circle id="椭圆_1735" data-name="椭圆 1735" cx="3.227" cy="3.227" r="3.227" transform="translate(247.595 50.531)"/>
            <circle id="椭圆_1736" data-name="椭圆 1736" cx="2.282" cy="2.282" r="2.282" transform="translate(273.303 66.547)"/>
            <circle id="椭圆_1737" data-name="椭圆 1737" cx="2.282" cy="2.282" r="2.282" transform="translate(154.989 66.355)"/>
            <circle id="椭圆_1738" data-name="椭圆 1738" cx="2.282" cy="2.282" r="2.282" transform="translate(154.506 357.974)" fill="#ef54a1"/>
            <circle id="椭圆_1739" data-name="椭圆 1739" cx="2.282" cy="2.282" r="2.282" transform="translate(160.484 333.548)"/>
            <circle id="椭圆_1740" data-name="椭圆 1740" cx="2.282" cy="2.282" r="2.282" transform="translate(309.532 336.988)" fill="#ef54a1"/>
            <circle id="椭圆_1741" data-name="椭圆 1741" cx="3.227" cy="3.227" r="3.227" transform="translate(135.43 65.602)"/>
            <circle id="椭圆_1742" data-name="椭圆 1742" cx="3.227" cy="3.227" r="3.227" transform="translate(148.184 51.404)"/>
            <circle id="椭圆_1743" data-name="椭圆 1743" cx="2.769" cy="2.769" r="2.769" transform="translate(140.671 46.942)"/>
            <circle id="椭圆_1744" data-name="椭圆 1744" cx="3.227" cy="3.227" r="3.227" transform="translate(84.528 64.272)" fill="#0080f4"/>
            <circle id="椭圆_1745" data-name="椭圆 1745" cx="3.027" cy="3.027" r="3.027" transform="translate(363.696 87.731)" fill="#0080f4"/>
            <circle id="椭圆_1746" data-name="椭圆 1746" cx="3.027" cy="3.027" r="3.027" transform="translate(386.997 141.058)"/>
            <circle id="椭圆_1747" data-name="椭圆 1747" cx="2.648" cy="2.648" r="2.648" transform="translate(392.971 214.738)"/>
            <circle id="椭圆_1748" data-name="椭圆 1748" cx="2.648" cy="2.648" r="2.648" transform="translate(379.648 278.877)"/>
            <circle id="椭圆_1749" data-name="椭圆 1749" cx="2.648" cy="2.648" r="2.648" transform="translate(337.856 341.013)"/>
            <circle id="椭圆_1750" data-name="椭圆 1750" cx="2.847" cy="2.847" r="2.847" transform="translate(210.428 398.955)"/>
            <circle id="椭圆_1751" data-name="椭圆 1751" cx="4.933" cy="4.933" r="4.933" transform="translate(148.64)" fill="#ef54a1"/>
            <circle id="椭圆_1752" data-name="椭圆 1752" cx="4.498" cy="4.498" r="4.498" transform="translate(423.599 155.599)" fill="#ef54a1"/>
            <circle id="椭圆_1753" data-name="椭圆 1753" cx="4.498" cy="4.498" r="4.498" transform="translate(440.271 234.885)" fill="#0080f4"/>
            <circle id="椭圆_1754" data-name="椭圆 1754" cx="4.498" cy="4.498" r="4.498" transform="translate(195.862 438.86)" fill="#0080f4"/>
            <circle id="椭圆_1755" data-name="椭圆 1755" cx="4.498" cy="4.498" r="4.498" transform="translate(99.867 410.085)" fill="#0080f4"/>
            <circle id="椭圆_1756" data-name="椭圆 1756" cx="4.498" cy="4.498" r="4.498" transform="translate(0 261.551)" fill="#ef54a1"/>
            <circle id="椭圆_1757" data-name="椭圆 1757" cx="2.989" cy="2.989" r="2.989" transform="translate(42.152 230.528)"/>
            <circle id="椭圆_1758" data-name="椭圆 1758" cx="2.989" cy="2.989" r="2.989" transform="translate(51.916 244.742)"/>
            <circle id="椭圆_1759" data-name="椭圆 1759" cx="4.253" cy="4.253" r="4.253" transform="translate(16.449 305.799)" fill="#0080f4"/>
            <circle id="椭圆_1760" data-name="椭圆 1760" cx="2.847" cy="2.847" r="2.847" transform="translate(144.748 189.723)"/>
            <circle id="椭圆_1761" data-name="椭圆 1761" cx="2.847" cy="2.847" r="2.847" transform="translate(168.661 185.196)"/>
            <circle id="椭圆_1762" data-name="椭圆 1762" cx="2.287" cy="2.287" r="2.287" transform="translate(301.798 256.924)"/>
            <circle id="椭圆_1763" data-name="椭圆 1763" cx="2.847" cy="2.847" r="2.847" transform="translate(247.405 105.855)"/>
            <circle id="椭圆_1764" data-name="椭圆 1764" cx="2.847" cy="2.847" r="2.847" transform="translate(279.261 160.457)"/>
            <circle id="椭圆_1765" data-name="椭圆 1765" cx="2.37" cy="2.37" r="2.37" transform="translate(227.384 212.22)"/>
            <circle id="椭圆_1766" data-name="椭圆 1766" cx="2.37" cy="2.37" r="2.37" transform="translate(237.633 269.833)"/>
            <circle id="椭圆_1767" data-name="椭圆 1767" cx="2.37" cy="2.37" r="2.37" transform="translate(141.168 239.75)"/>
            <circle id="椭圆_1768" data-name="椭圆 1768" cx="2.37" cy="2.37" r="2.37" transform="translate(103.505 248.974)"/>
            <circle id="椭圆_1769" data-name="椭圆 1769" cx="2.847" cy="2.847" r="2.847" transform="translate(298.392 160.457)"/>
            <circle id="椭圆_1770" data-name="椭圆 1770" cx="2.648" cy="2.648" r="2.648" transform="translate(312.195 351.691)"/>
            <circle id="椭圆_1771" data-name="椭圆 1771" cx="2.648" cy="2.648" r="2.648" transform="translate(274.521 364.927)"/>
            <circle id="椭圆_1772" data-name="椭圆 1772" cx="2.847" cy="2.847" r="2.847" transform="translate(288.806 383.178)"/>
            <circle id="椭圆_1773" data-name="椭圆 1773" cx="4.498" cy="4.498" r="4.498" transform="translate(235.515 427.123)" fill="#0080f4"/>
            <circle id="椭圆_1774" data-name="椭圆 1774" cx="4.498" cy="4.498" r="4.498" transform="translate(277.232 419.127)" fill="#ef54a1"/>
          </g>
          <g id="组_21570" data-name="组 21570" transform="translate(643.975 323.984)">
            <path id="路径_38139" data-name="路径 38139" d="M727.02,369.236l2.448-.854,3.148-.091-.9,1.8h-1.594v3.644h11.159s6.377-8.2,7.289-9.11,4.469-2.477,6.262-3.5,6.491-2.477,7.857-5.808H748.6l-6.235,4.783-2.733-.683-6.149,5.807-1.367,1.281-.854.854" transform="translate(-679.634 -355.314)" fill="none" stroke="#000" stroke-miterlimit="10" stroke-width="2"/>
            <path id="路径_38140" data-name="路径 38140" d="M745.752,381.076l3.53-4.9h5.58l8.768-7.743h14.576l5.58-4.1h18.9l.8,10.7,6.149.114-.569,3.188-1.936,5.58-1.367,2.05h-3.3l-11.729,15.715h-10.59L769.21,418.313H758.847L754.976,410l-.569-3.53,2.505-2.277,3.644-.462,1.936-2.84-.228-3.075-11.046.114-.456-9.565.911-5.808-10.932.114" transform="translate(-682.808 -357.401)" fill="none" stroke="#0080f4" stroke-miterlimit="10" stroke-width="2"/>
            <path id="路径_38141" data-name="路径 38141" d="M735.014,396.78l-9.679,20.611h4.84v4.555l-1.879,1.139.114,4.669,6.6.569,1.708,7.06H739.8l4.1-13.779.683-4.1-1.366-.228-.8-3.416-4.327-.455v-9h-4.9" transform="translate(-679.244 -364.906)" fill="none" stroke="#000" stroke-miterlimit="10" stroke-width="2"/>
            <path id="路径_38142" data-name="路径 38142" d="M885.624,380.855c-1.025.626-23.4,0-23.4,0s-5.409,1.992-6.548,5.352-1.082,8.939,4.953,8.939h9.509s8.256-3.644,9.337-7.458v-3.7" transform="translate(-709.262 -361.222)" fill="none" stroke="#000" stroke-miterlimit="10" stroke-width="2"/>
            <path id="路径_38143" data-name="路径 38143" d="M859.061,412.853l5.352,9.224h7.059s0-7.971,7.06-9.224h9.338v12.413l-9.908,7.743h-8.085l-1.822-6.718H846.909l-18.936,20.5-.57,8.654,6.263,6.377h11.046v-6.262l8.313-6.492h12.64" transform="translate(-702.855 -368.624)" fill="none" stroke="#0c111a" stroke-miterlimit="10" stroke-width="2"/>
            <path id="路径_38144" data-name="路径 38144" d="M873.328,409.191l7.174-6.263h24.711l8.427,4.9v4.441h-2.505v2.961l3.075,4.1h8.768l2.391-3.758v-5.01h5.466l2.619,7.288,1.936,11.5,1.253,5.694" transform="translate(-713.478 -366.328)" fill="none" stroke="#000" stroke-miterlimit="10" stroke-width="2"/>
            <path id="路径_38145" data-name="路径 38145" d="M855.389,442.778v20.953l4.942,4.555h6.719l3.188-3.53v-2.391l-5.01-4.669v-5.124l2.961-1.253h14.69l8.085,7.288v7.857l-30.746,25.052H853.5l-8.313-11.16H822.411L803.85,498.918v23.8" transform="translate(-697.406 -375.546)" fill="none" stroke="#0c111a" stroke-miterlimit="10" stroke-width="2"/>
            <path id="路径_38146" data-name="路径 38146" d="M947.7,417.833H963.98l4.327-11.046h23.8l1.025-4.9h28.127l8.277,11.729h2.655l4.327,11.957,5.01,14.8v14.69h-.911l-4.441-14.348-.456-5.01-3.416-13.474-3.3-4.177h-1.822l2.355,11.273v19.131h-15.907" transform="translate(-730.681 -366.088)" fill="none" stroke="#0c111a" stroke-miterlimit="10" stroke-width="2"/>
            <path id="路径_38147" data-name="路径 38147" d="M867,505.442l18.732,30.92h13.209l1.025,9.049L884.94,561.126,883.488,582.5l-9.48,8.179-.342,7.857-8.882,11.1h-9.907l-10.932-22.205V582.5l7.174-8.9v-4.27l-14.177-26.988h-5.124l-6.491,6.32h-12.3l-7.686-5.978H781.258" transform="translate(-692.181 -390.042)" fill="none" stroke="#0c111a" stroke-miterlimit="10" stroke-width="2"/>
            <path id="路径_38148" data-name="路径 38148" d="M893.476,511.963l7.971-6.6h5.921l14.348,21.864,4.213-.911,10.861-9.289V499.665" transform="translate(-718.139 -388.705)" fill="none" stroke="#000" stroke-miterlimit="10" stroke-width="2"/>
            <path id="路径_38149" data-name="路径 38149" d="M941.3,509.292h-6.377l-7.971-12.751v-2.622l2.05-2.847h2.505l8.2,12.982,13.209.456,15.942,36.364h8.427" transform="translate(-725.884 -386.718)" fill="none" stroke="#000" stroke-miterlimit="10" stroke-width="2"/>
            <path id="路径_38150" data-name="路径 38150" d="M994.666,542.633H991.25v-5.694L1000.5,521h11.022l-1.139,22.956-2.277,11.039.456,6.145,1.822,3.132h4.327l2.278-3.132-1.822-4.156-1.366-2.958V546.5" transform="translate(-740.756 -393.64)" fill="none" stroke="#000" stroke-miterlimit="10" stroke-width="2"/>
            <path id="路径_38151" data-name="路径 38151" d="M949.177,489.368l.5-5.694,4.512-3.416,55.229.456,3.53,8.654v6.6" transform="translate(-731.024 -384.216)" fill="none" stroke="#0c111a" stroke-miterlimit="10" stroke-width="2"/>
            <path id="路径_38152" data-name="路径 38152" d="M685.781,489.548h21.181l6.6-7.058,1.822-13.44,8.882-7.516V450.6l-5.694-8.654h-5.01l-2.961,4.327-1.822,9.793h-7.06l-.228-6.377,7.743-13.893.911-5.466h-3.644l-5.238,2.961-4.1,4.783-2.961,14.348" transform="translate(-670.095 -372.668)" fill="none" stroke="#0c111a" stroke-miterlimit="10" stroke-width="2"/>
            <path id="路径_38153" data-name="路径 38153" d="M789.938,430.317l10.7-.569,6.149-4.555v-3.3H794.835l-7.231,5.466L785.554,440" transform="translate(-693.174 -370.715)" fill="none" stroke="#000" stroke-miterlimit="10" stroke-width="2"/>
            <path id="路径_38154" data-name="路径 38154" d="M917.852,598.783l7.516-7.345h3.587v13.836l-8.939,9.736H896.952" transform="translate(-718.943 -409.935)" fill="none" stroke="#000" stroke-miterlimit="10" stroke-width="2"/>
            <path id="路径_38155" data-name="路径 38155" d="M974.385,573.316H961.916l-2.22-3.132V563.07l2.22-2.964h2.733l.342,8.37" transform="translate(-733.457 -402.687)" fill="none" stroke="#000" stroke-miterlimit="10" stroke-width="2"/>
            <path id="路径_38156" data-name="路径 38156" d="M1032.137,552.028l2.562-20.668h10.078l9.565-15.524v-17.5l-3.587-7.857h-3.075l-1.025,2.107,1.025,11.957-7.806,14.422-4.834.78-1.537,3.075-.512,7.345-.854,5.409" transform="translate(-750.214 -386.581)" fill="none" stroke="#0c111a" stroke-miterlimit="10" stroke-width="2"/>
            <path id="路径_38157" data-name="路径 38157" d="M1023.248,524.436l2.733-1.822,1.879-4.185V507.071l10.334-15.2V475.385h5.466l.939-2.135v-9.224l-4.7-14.263-2.084-7.43" transform="translate(-748.158 -375.444)" fill="none" stroke="#000" stroke-miterlimit="10" stroke-width="2"/>
            <line id="直线_391" data-name="直线 391" x2="6.946" transform="translate(226.238 16.141)" fill="none" stroke="#000" stroke-miterlimit="10" stroke-width="2"/>
            <path id="路径_38158" data-name="路径 38158" d="M784.561,448.852l-.854,5.694-2.448,21.522" transform="translate(-692.181 -376.951)" fill="none" stroke="#000" stroke-miterlimit="10" stroke-width="2"/>
            <path id="路径_38159" data-name="路径 38159" d="M725.483,468.851h17.195l1.822,4.783-1.253,3.986-8.256,8.654H727.3" transform="translate(-679.279 -381.578)" fill="none" stroke="#000" stroke-miterlimit="10" stroke-width="2"/>
            <path id="路径_38160" data-name="路径 38160" d="M679.855,518.2h3.188l1.366,3.858,1.44,19.359" transform="translate(-668.724 -392.993)" fill="none" stroke="#000" stroke-miterlimit="10" stroke-width="2"/>
            <line id="直线_392" data-name="直线 392" x2="17.309" y2="0.569" transform="translate(0.996 100.369)" fill="none" stroke="#000" stroke-miterlimit="10" stroke-width="2"/>
            <path id="路径_38161" data-name="路径 38161" d="M710.092,386.78l-9.793,14.8.569.114,2.164.114-.114,2.448-2.05,2.562v3.188l4.441-.114v2.676l-1.822,2.334v2.961H707.7l7.4-6.263v-2.733h-2.619l.911-6.377-7.4.683,5.352-12.071-6.377-.455" transform="translate(-673.453 -362.593)" fill="none" stroke="#000" stroke-miterlimit="10" stroke-width="2"/>
            <path id="路径_38162" data-name="路径 38162" d="M936.784,397.393l-.6-1.879,3.331-2.9,5.039-3.843h5.3V386.8l-4.7-1.794-2.818-2.562h-6.149l-7.6,6.747.769,5.551,1.708,5.466,1.708,1.2h12.3" transform="translate(-726.26 -361.591)" fill="none" stroke="#000" stroke-miterlimit="10" stroke-width="2"/>
            <path id="路径_38163" data-name="路径 38163" d="M1006.508,376.312s16.525,19.776,18.625,28.088" transform="translate(-744.286 -360.171)" fill="none" stroke="#000" stroke-miterlimit="10" stroke-width="2"/>
            <path id="路径_38164" data-name="路径 38164" d="M989.834,401.891l9.7,25.052v9.679l-3.371,3.371H987.1" transform="translate(-739.797 -366.088)" fill="none" stroke="#000" stroke-miterlimit="10" stroke-width="2"/>
            <path id="路径_38165" data-name="路径 38165" d="M1047.162,426.886h-7.174V432.5" transform="translate(-752.031 -371.87)" fill="none" stroke="#000" stroke-miterlimit="10" stroke-width="2"/>
            <path id="路径_38166" data-name="路径 38166" d="M1037.624,602.75l3.872-7.365,3.494.569-1.9,15.145-5.466,11.615-10.641,12.754h-4.619l1.822-7.06-9.679.683,2.277-11.16,2.277-10.363,16.734-14.576h5.244l.114,1.48" transform="translate(-746.136 -410.295)" fill="none" stroke="#0080f4" stroke-miterlimit="10" stroke-width="2"/>
            <path id="路径_38167" data-name="路径 38167" d="M1039.441,643.316v1.744l-15.6,15.259" transform="translate(-748.295 -421.935)" fill="none" stroke="#000" stroke-miterlimit="10" stroke-width="2"/>
            <line id="直线_393" data-name="直线 393" x2="10.59" transform="translate(83.099 39.731)" fill="none" stroke="#000" stroke-miterlimit="10" stroke-width="2"/>
            <line id="直线_394" data-name="直线 394" x2="5.039" transform="translate(147.182 44.229)" fill="none" stroke="#000" stroke-miterlimit="10" stroke-width="2"/>
            <line id="直线_395" data-name="直线 395" x2="8" transform="translate(179.522 19.974)" fill="none" stroke="#000" stroke-miterlimit="10" stroke-width="2"/>
            <path id="路径_38168" data-name="路径 38168" d="M971.547,376.312h14.234l7.516,6.338,2.05,2.05v2.733H983.5l-5.01-7.63" transform="translate(-736.198 -360.171)" fill="none" stroke="#000" stroke-miterlimit="10" stroke-width="2"/>
            <path id="路径_38169" data-name="路径 38169" d="M733.334,566.423h24.938l5.124,6.76V581.5l-6.6,12.64h-11.16" transform="translate(-681.095 -404.148)" fill="none" stroke="#0c111a" stroke-miterlimit="10" stroke-width="2"/>
            <path id="路径_38170" data-name="路径 38170" d="M744,630.622l4.213,7.971,11.729,20.27,8.768,7.63,14.171-.456" transform="translate(-683.562 -418.999)" fill="none" stroke="#000" stroke-miterlimit="10" stroke-width="2"/>
            <path id="路径_38171" data-name="路径 38171" d="M681.5,428.112l-7.06,13.323v6.377l-2.961,14.69-2.961,15.828-1.253,17.992,11.273,16.626h13.551l3.075,3.654.683,14.68,6.832,26.419,12.982,13.551,6.832,16.853,15.145,25.166,15.6,12.868,1.651.608.626-2.316-12.071-17.309V600.63l7.743-25.622-5.694-21.18-26.419-32.454H702.791l-2.05-2.9L699.6,506.115l-.911-3.3h-6.035l-2.164-2.278.683-17.423" transform="translate(-665.811 -372.154)" fill="none" stroke="#000" stroke-miterlimit="10" stroke-width="2"/>
            <path id="路径_38172" data-name="路径 38172" d="M669.73,471.819a25.931,25.931,0,0,0-4.356-.6" transform="translate(-665.374 -382.126)" fill="none" stroke="#000" stroke-miterlimit="10" stroke-width="2"/>
            <path id="路径_38173" data-name="路径 38173" d="M698.876,439.951h-7.686l1.11-5.808,2.733-5.808,1.025-6.235H685.04l2.562-4.953,1.11-4.96,3.245-5.63" transform="translate(-669.923 -367.168)" fill="none" stroke="#000" stroke-miterlimit="10" stroke-width="2"/>
            <path id="路径_38174" data-name="路径 38174" d="M851.477,566.423h15.885l10.59,19.229,6.832,1.63" transform="translate(-708.424 -404.148)" fill="none" stroke="#000" stroke-miterlimit="10" stroke-width="2"/>
            <line id="直线_396" data-name="直线 396" y2="5.88" transform="translate(107.754 156.395)" fill="none" stroke="#000" stroke-miterlimit="10" stroke-width="2"/>
            <line id="直线_397" data-name="直线 397" x2="6.218" transform="translate(253.523 154.156)" fill="none" stroke="#000" stroke-miterlimit="10" stroke-width="2"/>
            <line id="直线_398" data-name="直线 398" x1="1.708" y2="9.57" transform="translate(296.441 151.783)" fill="none" stroke="#000" stroke-miterlimit="10" stroke-width="2"/>
            <line id="直线_399" data-name="直线 399" x1="3.075" y2="7.402" transform="translate(288.072 196.535)" fill="none" stroke="#000" stroke-miterlimit="10" stroke-width="2"/>
            <line id="直线_400" data-name="直线 400" x2="4.953" transform="translate(117.774 99.116)" fill="none" stroke="#000" stroke-miterlimit="10" stroke-width="2"/>
            <line id="直线_401" data-name="直线 401" x1="5.58" y2="13.37" transform="translate(310.846 159.335)" fill="none" stroke="#000" stroke-miterlimit="10" stroke-width="2"/>
            <path id="路径_38175" data-name="路径 38175" d="M835.8,503.275V488.642l-1.537-2.847-4.783-1.537" transform="translate(-703.335 -385.142)" fill="none" stroke="#000" stroke-miterlimit="10" stroke-width="2"/>
            <path id="路径_38176" data-name="路径 38176" d="M902.137,488.03l-5.185-8.711v-4.612l1.6-1.708h6.32l7.629,8.654h8.768" transform="translate(-718.943 -382.537)" fill="none" stroke="#000" stroke-miterlimit="10" stroke-width="2"/>
          </g>
          <g id="组_21571" data-name="组 21571" transform="translate(962.943 283.365)">
            <rect id="矩形_2274" data-name="矩形 2274" width="97.909" height="5.859" rx="2.929" transform="matrix(0.864, 0.503, -0.503, 0.864, 18.441, 14.573)" fill="none" stroke="#0080f4" stroke-miterlimit="10" stroke-width="2"/>
            <rect id="矩形_2275" data-name="矩形 2275" width="75.428" height="6.911" rx="3.455" transform="matrix(0.864, 0.503, -0.503, 0.864, 38.134, 25.429)"/>
            <path id="路径_38177" data-name="路径 38177" d="M1091.057,322.33l-4.24-3.139-4.99,1.713,1.675-5-3.171-4.216,5.276.048,3.03-4.319,1.585,5.032,5.044,1.547-4.3,3.062Z" transform="translate(-1080.331 -303.614)" fill="#0080f4"/>
            <path id="路径_38178" data-name="路径 38178" d="M1123.971,318.143l-2.018-2.822-3.469.063,2.06-2.791-1.131-3.28,3.291,1.1,2.77-2.089-.026,3.469,2.843,1.988-3.307,1.047Z" transform="translate(-1089.157 -303.824)" fill="#0080f4"/>
            <path id="路径_38179" data-name="路径 38179" d="M1107.481,309.37l-1.417-1.982-2.436.044,1.447-1.96-.795-2.3,2.311.77,1.945-1.467-.018,2.436,2,1.4-2.323.735Z" transform="translate(-1085.72 -302.471)" fill="#0080f4"/>
            <path id="路径_38180" data-name="路径 38180" d="M1087.8,337.839l-.986-1.378-1.694.031,1.006-1.363-.552-1.6,1.607.536,1.352-1.02-.013,1.694,1.388.971-1.615.511Z" transform="translate(-1081.439 -309.543)" fill="#0080f4"/>
            <path id="路径_38181" data-name="路径 38181" d="M1094.2,352.3l-.756-3.286-3.136-1.24,2.891-1.735.21-3.365,2.543,2.214,3.265-.84-1.319,3.1L1099.71,350l-3.359-.3Z" transform="translate(-1082.64 -311.772)" fill="#0080f4"/>
          </g>
          <path id="路径_38182" data-name="路径 38182" d="M1214.138,378.844c-5.427-.754-10.573,1.521-15.246,3.437-2.717,1.112-5.1,1.872-6.31,1.813-2.841-1.759-2.191-5.376-.938-7.747a21.679,21.679,0,0,1,5.06-5.936c4.691-3.119,10.015-6.039,14.934-6.436l-.437-4c-6.179.428-12.379,3.431-17.058,7.372a25.168,25.168,0,0,0-6,7.06c-2.447,5.442-2.255,11.974,4.249,13.686,2.663.126,5.278-.988,8.06-2.125,4.612-1.708,10.369-4.775,14.807-2.561Z" transform="translate(-141.993 -32.408)"/>
          <path id="路径_38183" data-name="路径 38183" d="M1199.093,557.056l66.405,34.137,88.536-15.26,23.252-52.366-58.2-33.178" transform="translate(-144.86 -62.576)" fill="none" stroke="#231815" stroke-miterlimit="10" stroke-width="1.2"/>
          <g id="组_21572" data-name="组 21572" transform="translate(1054.45 375.608)">
            <line id="直线_402" data-name="直线 402" y2="10.794" fill="none" stroke="#231815" stroke-miterlimit="10" stroke-width="1"/>
            <line id="直线_403" data-name="直线 403" y2="10.794" transform="translate(0 14.797)" fill="none" stroke="#231815" stroke-miterlimit="10" stroke-width="1"/>
            <line id="直线_404" data-name="直线 404" y2="10.794" transform="translate(0 30.139)" fill="none" stroke="#231815" stroke-miterlimit="10" stroke-width="1"/>
            <line id="直线_405" data-name="直线 405" y2="12.139" transform="translate(0 45.128)" fill="none" stroke="#231815" stroke-miterlimit="10" stroke-width="1"/>
            <line id="直线_406" data-name="直线 406" y2="11.626" transform="translate(0 61.654)" fill="none" stroke="#231815" stroke-miterlimit="10" stroke-width="1"/>
            <line id="直线_407" data-name="直线 407" y2="11.05" transform="translate(0 77.412)" fill="none" stroke="#231815" stroke-miterlimit="10" stroke-width="1"/>
            <line id="直线_408" data-name="直线 408" y2="11.05" transform="translate(0 93.01)" fill="none" stroke="#231815" stroke-miterlimit="10" stroke-width="1"/>
            <line id="直线_409" data-name="直线 409" y2="11.05" transform="translate(0 108.271)" fill="none" stroke="#231815" stroke-miterlimit="10" stroke-width="1"/>
          </g>
          <g id="组_21573" data-name="组 21573" transform="translate(1232.426 341.405)">
            <line id="直线_410" data-name="直线 410" y2="10.794" fill="none" stroke="#231815" stroke-miterlimit="10" stroke-width="1"/>
            <line id="直线_411" data-name="直线 411" y2="10.794" transform="translate(0 14.797)" fill="none" stroke="#231815" stroke-miterlimit="10" stroke-width="1"/>
            <line id="直线_412" data-name="直线 412" y2="10.794" transform="translate(0 30.139)" fill="none" stroke="#231815" stroke-miterlimit="10" stroke-width="1"/>
            <line id="直线_413" data-name="直线 413" y2="12.139" transform="translate(0 45.128)" fill="none" stroke="#231815" stroke-miterlimit="10" stroke-width="1"/>
            <line id="直线_414" data-name="直线 414" y2="11.626" transform="translate(0 61.654)" fill="none" stroke="#231815" stroke-miterlimit="10" stroke-width="1"/>
            <line id="直线_415" data-name="直线 415" y2="11.05" transform="translate(0 77.412)" fill="none" stroke="#231815" stroke-miterlimit="10" stroke-width="1"/>
            <line id="直线_416" data-name="直线 416" y2="11.05" transform="translate(0 93.01)" fill="none" stroke="#231815" stroke-miterlimit="10" stroke-width="1"/>
            <line id="直线_417" data-name="直线 417" y2="11.05" transform="translate(0 108.272)" fill="none" stroke="#231815" stroke-miterlimit="10" stroke-width="1"/>
          </g>
          <g id="组_21574" data-name="组 21574" transform="translate(1174.484 385.847)">
            <line id="直线_418" data-name="直线 418" y2="11.103" fill="none" stroke="#231815" stroke-miterlimit="10" stroke-width="2"/>
            <line id="直线_419" data-name="直线 419" y2="11.103" transform="translate(0 15.673)" fill="none" stroke="#231815" stroke-miterlimit="10" stroke-width="2"/>
            <line id="直线_420" data-name="直线 420" y2="11.103" transform="translate(0 31.009)" fill="none" stroke="#231815" stroke-miterlimit="10" stroke-width="2"/>
          </g>
          <g id="组_21575" data-name="组 21575" transform="translate(1221.241 421.96)">
            <line id="直线_421" data-name="直线 421" y2="11.103" fill="none" stroke="#231815" stroke-miterlimit="10" stroke-width="2"/>
            <line id="直线_422" data-name="直线 422" y2="11.103" transform="translate(0 15.673)" fill="none" stroke="#231815" stroke-miterlimit="10" stroke-width="2"/>
            <line id="直线_423" data-name="直线 423" y2="11.103" transform="translate(0 31.009)" fill="none" stroke="#231815" stroke-miterlimit="10" stroke-width="2"/>
          </g>
          <g id="组_21576" data-name="组 21576" transform="translate(1083.88 401.024)">
            <line id="直线_424" data-name="直线 424" y2="10.846" fill="none" stroke="#231815" stroke-miterlimit="10" stroke-width="2"/>
            <line id="直线_425" data-name="直线 425" y2="10.846" transform="translate(0 14.869)" fill="none" stroke="#231815" stroke-miterlimit="10" stroke-width="2"/>
            <line id="直线_426" data-name="直线 426" y2="10.846" transform="translate(0 30.285)" fill="none" stroke="#231815" stroke-miterlimit="10" stroke-width="2"/>
          </g>
          <ellipse id="椭圆_1775" data-name="椭圆 1775" cx="39.963" cy="24.417" rx="39.963" ry="24.417" transform="translate(1102.262 449.638)" fill="none" stroke="#0080f4" stroke-miterlimit="10" stroke-width="2"/>
          <line id="直线_427" data-name="直线 427" x1="54.254" y2="35.855" transform="translate(1114.86 455.993)" fill="none" stroke="#0080f4" stroke-miterlimit="10" stroke-width="2"/>
          <path id="路径_38184" data-name="路径 38184" d="M1353.66,551.139c-4.725-2.2-15.26-.218-25.2,6.13-8.738,5.579-14.382,12.555-15.271,17.632" transform="translate(-171.253 -76.429)" fill="none" stroke="#0080f4" stroke-miterlimit="10" stroke-width="2"/>
          <path id="路径_38185" data-name="路径 38185" d="M1261.576,544.421a54.083,54.083,0,0,0,23.713-4.974c12.4-5.929,19.8-14.573,20.429-21.3" transform="translate(-159.314 -68.998)" fill="none" stroke="#0080f4" stroke-miterlimit="10" stroke-width="2"/>
          <line id="直线_428" data-name="直线 428" x2="60.96" y2="31.572" transform="translate(1112.192 457.948)" fill="none" stroke="#0080f4" stroke-miterlimit="10" stroke-width="2"/>
          <g id="组_21577" data-name="组 21577" transform="translate(1107.441 455.321)">
            <path id="路径_38186" data-name="路径 38186" d="M1275.454,528.544c6.591-4.079,20.862-2.89,35.535,3.554,17.934,7.876,27.423,19.734,25.85,27.366" transform="translate(-1269.966 -526.175)" fill="none" stroke="#0080f4" stroke-miterlimit="10" stroke-width="2" stroke-dasharray="10 5"/>
            <path id="路径_38187" data-name="路径 38187" d="M1329.63,565.154c-7.3,3.653-20.862,2.891-35.535-3.554-17.934-7.877-27.18-19.311-25.609-26.942" transform="translate(-1268.314 -528.137)" fill="none" stroke="#0080f4" stroke-miterlimit="10" stroke-width="2" stroke-dasharray="10 5"/>
          </g>
          <path id="路径_38188" data-name="路径 38188" d="M1222.456,359.32a169.579,169.579,0,0,0,11.873,32.864c5.448,11.149,11.978,20.953,19.306,28.056s15.557,11.559,24.243,11.559c13.664,0,25.937-6.8,35.8-13.373,4.935-3.287,9.286-6.544,12.808-8.933s6.458-3.687,7.374-3.687c2.407,0,6.1,1.18,9.935,2.811s7.847,3.615,11.309,5a2.1,2.1,0,0,0,2.749-1.811,25.826,25.826,0,0,0-16.557-24.369,30.638,30.638,0,0,0-24.992,1.438c4.541-9.719,9.665-20.2,14.119-30.8,5.287-12.584,9.436-24.651,9.436-34.24,0-40.987-30.752-67.98-59.982-67.98-32.954,0-61.918,24.958-61.982,63.855a.529.529,0,0,1,0,.062v.061a117.486,117.486,0,0,0,.5,16.059l.437,4c.6,4.894,1.4,9.883,2.5,14.869Z" transform="translate(-149.189 -8.322)" fill="#fff" stroke="#000" stroke-miterlimit="10" stroke-width="3"/>
          <path id="路径_38189" data-name="路径 38189" d="M1287.863,305.738c1.735-5.348,5.15-10.283,11.684-10.871,5.343.1,8.922,5.793,10.871,10.809a58.927,58.927,0,0,1,3.125,19.182,2.109,2.109,0,0,1-3.125,1.623c-2.486-1.657-6.668-2.624-10.871-2.624s-8.447.966-10.934,2.624a2.106,2.106,0,0,1-3.061-1.623C1285.552,318.748,1286,311.6,1287.863,305.738Z" transform="translate(-164.86 -17.348)"/>
          <path id="路径_38190" data-name="路径 38190" d="M1239.194,326.482a2.107,2.107,0,0,1-3.063-1.623c0-6.11.448-13.26,2.311-19.12,1.736-5.348,5.15-10.283,11.685-10.871,5.342.1,8.921,5.793,10.872,10.809a58.968,58.968,0,0,1,3.123,19.182,2.108,2.108,0,0,1-3.123,1.623c-2.487-1.657-6.67-2.624-10.872-2.624S1241.679,324.825,1239.194,326.482Z" transform="translate(-153.428 -17.348)"/>
          <path id="路径_38191" data-name="路径 38191" d="M1305.107,369.331c-11.356-8.517-23.347-7.076-32.614-2.561a36.275,36.275,0,0,0-11.061,8.184c-2.593,3.023-4.949,7.388-.5,9.685,1.533.361,4.1.118,7.062-.376,6.628-1.108,13.388-2.253,19.618,1.938l-2.5,3.123c-4.262-3.3-10.967-1.958-16.433-1.124-3.035.506-5.968,1.014-8.684.374-8.715-2.267-5.4-11.566-1.561-16.245a39.831,39.831,0,0,1,12.308-9.121c12.385-5.93,24.969-5.059,36.8,2.937Z" transform="translate(-157.673 -32.265)"/>
        </g>
      </g>
      <g id="组_21710" data-name="组 21710" transform="translate(0 34)">
        <path id="路径_39859" data-name="路径 39859" d="M215.748-24.076a62.745,62.745,0,0,1-7.9.364H177.06a67.056,67.056,0,0,1-7.956-.364v6.864c2.34-.208,5.044-.364,7.956-.364h30.784a70.9,70.9,0,0,1,7.9.364Zm57.2-19.968a33.43,33.43,0,0,1-4.628,6.916,45.727,45.727,0,0,1-9.152,7.7,47.352,47.352,0,0,1-8.372,4.42A15.989,15.989,0,0,1,254.54-19.5a98.19,98.19,0,0,0,11.908-7.9,43.654,43.654,0,0,0,8.892-9.152,50.749,50.749,0,0,0,7.28,7.748,60.545,60.545,0,0,0,14.2,9.36c2.028-4.16,2.184-4.472,3.38-5.616a49.911,49.911,0,0,1-6.292-2.964,70.135,70.135,0,0,1-7.8-5.408,66.971,66.971,0,0,1-7.644-7.956c.312-.52.416-.78.832-1.508ZM278.72,4a45.562,45.562,0,0,1-.364-6.188V-22.828a42.035,42.035,0,0,1,.312-5.772h-6.656a38.25,38.25,0,0,1,.364,5.72V-2.132A44.775,44.775,0,0,1,272.012,4Zm68.12-5.772a40.66,40.66,0,0,1-.312,5.356h5.928V1.4h21.372V3.588h5.928a30.519,30.519,0,0,1-.312-5.3v-9.412a38.519,38.519,0,0,1,.208-4.836,39.585,39.585,0,0,1-4.836.208h-23.3a42.064,42.064,0,0,1-4.94-.208,29.738,29.738,0,0,1,.26,4.836Zm5.616-9h21.372V-3.64H352.456Zm.416-30.108a12.478,12.478,0,0,1,1.04.78,19.453,19.453,0,0,1,3.484,2.86H345.228c-2.548,0-3.952-.052-5.668-.208.156,1.82.208,4.16.208,8.008,0,8.58-.312,13.728-1.144,17.94A27.6,27.6,0,0,1,333.84-.156a25.134,25.134,0,0,1,4.524,4.264A31.935,31.935,0,0,0,343.512-6.5c1.04-3.848,1.456-7.436,1.664-14.4h28.912a37.322,37.322,0,0,1,4.68.208,33.483,33.483,0,0,1-.156-4v-8.372c0-1.82.052-3.068.156-4.368a34.763,34.763,0,0,1-4.68.208h-12.48l2.86-1.664c-1.248-1.508-2.756-2.7-6.084-4.836ZM345.384-26v-6.136H373V-26Zm111.592,1.144a24.477,24.477,0,0,1-4.628.26h-13c.26-.936.624-2.5.988-4.056h19.032a40.274,40.274,0,0,1,6.344.312v-6.032a60.25,60.25,0,0,1-6.344.312h-1.976l3.432-3.12c-3.328-3.64-4.108-4.368-7.384-6.4L448.864-40.3a31.644,31.644,0,0,1,7.228,6.24H441.168c.208-1.56.26-2.028.468-4.316.468-4.68.468-4.68.624-5.512l-6.6-.156a13.261,13.261,0,0,1,.156,1.612,4.491,4.491,0,0,1-.052.78c0,.832-.052,1.508-.052,2.028-.052,1.144-.052,1.924-.052,1.976-.26,2.6-.26,2.6-.312,3.588h-6.812c.364-.936,1.456-5.044,1.716-6.136a13.994,13.994,0,0,1,.468-1.976l-6.344-.936v.572c0,2.288-1.56,9.464-3.12,14.144,1.664-.1,2.5-.156,2.6-.156.624,0,1.56-.052,2.808-.1h7.7a47.563,47.563,0,0,1-1.716,7.02,42.971,42.971,0,0,1-4.68,9.568A36.889,36.889,0,0,1,417.352-1.04a19.23,19.23,0,0,1,4.524,4.42c7.176-6.448,10.868-11.336,14.144-18.772a52.989,52.989,0,0,0,3.276,4.68c.416.52,2.132,2.184,3.432,3.38-4.368,3.12-8.528,4.888-15.392,6.448a17.888,17.888,0,0,1,3.432,5.252c7.8-2.7,11.284-4.472,16.276-8.424,4.212,3.432,8.84,5.772,16.328,8.268a19.471,19.471,0,0,1,3.172-5.876,44.663,44.663,0,0,1-8.528-2.548A32.729,32.729,0,0,1,451.36-7.8a33.977,33.977,0,0,0,5.98-8.944c.572-1.144.936-1.976,1.144-2.288a9.49,9.49,0,0,1,.728-1.3c.364-.78.416-.884.676-1.352ZM452.608-19.5a30.571,30.571,0,0,1-5.668,8.736c-3.8-3.276-5.2-5.044-7.02-8.736ZM521.716-43a35.427,35.427,0,0,1,.208,4.42c0,12.376-2.86,20.956-9.516,28.652-3.276,3.744-6.032,5.876-11.336,8.684a15.556,15.556,0,0,1,4.056,5.356,43.858,43.858,0,0,0,8.06-5.98,36.2,36.2,0,0,0,8.008-9.984,37.208,37.208,0,0,0,4.056-10.5,41.111,41.111,0,0,0,6.916,14.2c3.692,4.888,6.864,7.852,13.208,12.272a19.346,19.346,0,0,1,4.056-5.772,34.629,34.629,0,0,1-8.06-5.616,35.741,35.741,0,0,1-8.216-9.88c-3.744-6.656-5.1-12.168-5.1-21.008A39.238,39.238,0,0,1,528.424-43Zm83.356,7.9h-4.056a43.514,43.514,0,0,0-4.992-7.9l-4.732,2.08c1.612,1.716,1.976,2.236,4.056,5.824h-4.212a47.1,47.1,0,0,1-5.876-.312V-29.9a48.893,48.893,0,0,1,5.876-.312h8.944c-3.744,3.068-8.944,5.512-15.86,7.384a15.363,15.363,0,0,1,3.276,5.044c7.852-2.808,13.624-6.4,17.732-10.972-.052.988-.1,2.132-.1,3.068v2.236a22.949,22.949,0,0,1-.312,3.64h6.136a19.618,19.618,0,0,1-.312-3.588v-1.664a11.456,11.456,0,0,1,1.092.468c8.32,3.432,10.244,4.316,16.016,7.176l2.34-5.044a129.777,129.777,0,0,0-19.448-7.488v-.26h15.132a47.687,47.687,0,0,1,5.772.312v-5.512a41.72,41.72,0,0,1-5.72.312h-5.876a44.226,44.226,0,0,0,4.524-5.824l-5.1-2.028a24.022,24.022,0,0,1-5.356,7.852h-3.38v-5.3a14.846,14.846,0,0,1,.26-3.328h-6.084a16.625,16.625,0,0,1,.26,3.328Zm20.176,24.908a66.839,66.839,0,0,1,6.708.312V-15.5a66.1,66.1,0,0,1-6.708.312H610.376c.052-.468.1-.624.156-1.144a9.978,9.978,0,0,1,.364-2.288l-6.4-.052a9.131,9.131,0,0,1,.208,1.976c0,.52-.052.936-.1,1.508h-13A54.358,54.358,0,0,1,584.9-15.5V-9.88a45.207,45.207,0,0,1,6.708-.312H603.1A13.412,13.412,0,0,1,597.48-5.2c-3.38,1.768-6.864,2.86-13,3.952a13.689,13.689,0,0,1,3.38,5.616c6.4-1.56,10.088-3.016,13.936-5.408a16.076,16.076,0,0,0,6.552-7.28c2.444,3.9,5.98,6.864,11.024,9.36a39.253,39.253,0,0,0,10.452,3.328,17.022,17.022,0,0,1,2.86-5.928c-9.464-1.3-15.34-3.9-19.552-8.632ZM9.2,70.828a42.941,42.941,0,0,1-2.912,8.008,34.762,34.762,0,0,1-5.044,8.216,19.913,19.913,0,0,1,2.86,5.668,30.693,30.693,0,0,0,3.068-5.3,43.138,43.138,0,0,0,3.12-7.9c-.208,1.872-.364,5.408-.364,7.8V98.024a52.766,52.766,0,0,1-.312,6.4h6.136a52.175,52.175,0,0,1-.312-6.4V79.148a71.255,71.255,0,0,1,3.9,7.176l3.432-4.42a61.63,61.63,0,0,0-7.332-9.672v-1.4H18.46c1.2,0,2.08.052,3.276.156V65.472a15.413,15.413,0,0,1-3.328.26H15.444V61.468a35.1,35.1,0,0,1,.312-5.356H9.62a33.579,33.579,0,0,1,.312,5.408v4.212H6.708a18.387,18.387,0,0,1-3.848-.26v5.564a25.473,25.473,0,0,1,3.8-.208Zm19.708,33.384v-3.068H41.964v2.964h5.928c-.156-1.612-.26-3.848-.26-6.6V63.236c0-2.392.052-3.8.156-5.3a30.853,30.853,0,0,1-4.472.208h-15.6c-2.236,0-3.224-.052-4.628-.156.156,2.184.208,3.8.208,5.512v34.06c0,2.548-.1,4.732-.26,6.656Zm0-40.768H41.964v7.384H28.912Zm0,12.324H41.964V83.1H28.912Zm0,12.272H41.964v7.9H28.912Zm95.836-24.752a56.887,56.887,0,0,1,6.552.312V57.724a55.033,55.033,0,0,1-6.552.312H93.5a52.305,52.305,0,0,1-6.5-.312V63.6a56.982,56.982,0,0,1,6.656-.312h5.98A116.207,116.207,0,0,1,95.16,80.344a57.447,57.447,0,0,1-3.8,9.36,3.328,3.328,0,0,1-.312.572q3.51-.156,6.24-.156h17.732c-.676,2.86-1.04,4.368-1.768,7.228H92.508a46.138,46.138,0,0,1-6.864-.364v5.98a59.737,59.737,0,0,1,7.124-.364h32.916a54.381,54.381,0,0,1,7.072.364v-5.98a47.851,47.851,0,0,1-6.76.364H119.34c1.716-6.916,2.236-9.672,4.264-21.164a65.207,65.207,0,0,1,1.3-6.708,47.949,47.949,0,0,1-5.824.208H104.312c.572-2.132.78-3.12,1.456-6.4Zm-6.76,11.6c-.572,3.9-.572,3.9-1.872,10.14H99.788c1.4-4.16,1.4-4.16,3.12-10.14Zm74-1.248,3.484-8.06H210.08a34.017,34.017,0,0,1,4.732.312V60.376a25.694,25.694,0,0,1-4.836.26H196.82l.26-.572a27.815,27.815,0,0,1,1.248-2.912l-5.512-1.144a23.258,23.258,0,0,1-1.4,4.628h-2.6a43.68,43.68,0,0,1-6.032-.312v5.512c1.3-.156,3.9-.26,5.928-.26h1.2l-2.392,5.616c-.832,1.716-1.2,2.132-2.548,2.808l1.248,4.628a2.747,2.747,0,0,1,.676-.052,7.363,7.363,0,0,1,.988-.052,14.661,14.661,0,0,1,2.236-.1h8.06v4.94H186.524a22.452,22.452,0,0,1-4.212-.312V88.56a28.946,28.946,0,0,1,4.264-.208h11.6V90.8a48.548,48.548,0,0,1-.26,5.46h5.668a35.138,35.138,0,0,1-.312-5.46V88.352h8.424a32.137,32.137,0,0,1,4.316.208V83.048a19.029,19.029,0,0,1-4.212.312h-8.528V78.42h5.72a17.246,17.246,0,0,1,3.8.26v-5.3c-.312.052-1.56.156-3.8.26h-5.72V72.024a42.944,42.944,0,0,1,.208-4.368h-5.46c.1,1.872.156,2.86.156,4.368v1.612Zm-16.9,19.4c-.832.52-3.8,2.808-4.836,3.692-1.924,1.768-1.924,1.768-2.548,2.288l4.056,4.68c2.08-2.548,2.08-2.548,2.6-3.172,1.56-1.716,2.652-2.548,3.38-2.548a2.2,2.2,0,0,1,1.352.572c3.224,2.548,3.588,2.808,5.408,3.432,2.6.936,5.564,1.248,12.74,1.248,9.62,0,13.416-.052,18.408-.364a21.2,21.2,0,0,1,1.612-6.032,77.791,77.791,0,0,1-8.632.676c-4.212.156-8.58.26-11.44.26-8.58,0-11.128-.52-14.4-2.964-2.08-1.56-2.08-1.56-2.236-1.664V81.748a62.464,62.464,0,0,1,.208-6.448,21.828,21.828,0,0,1-3.952.26h-3.9a23.257,23.257,0,0,1-4.16-.26v5.616a18.943,18.943,0,0,1,3.484-.26h2.86ZM169.052,60.48a51.671,51.671,0,0,1,4.264,4.16,53.973,53.973,0,0,1,3.8,4.732l4.16-4.16a53.734,53.734,0,0,0-7.124-7.488A14.37,14.37,0,0,0,173,56.736ZM294.58,87.728a31.84,31.84,0,0,1,5.044.26V82.476a29.834,29.834,0,0,1-5.1.26H282.672a10.118,10.118,0,0,1,.728-1.2c.572-1.04.572-1.04.832-1.508l-4.316-1.3h14.4a32.739,32.739,0,0,1,5.3.26V73.48a31.95,31.95,0,0,1-5.3.26h-4.108a27.017,27.017,0,0,0,3.224-6.136l-4.888-1.248h4.628a30.077,30.077,0,0,1,5.252.26V61.1a38.413,38.413,0,0,1-5.824.26h-6.448a34.707,34.707,0,0,0-2.288-5.824L278.46,57.1a20.514,20.514,0,0,1,1.976,4.264h-5.772a40.54,40.54,0,0,1-5.876-.26v5.512a29.7,29.7,0,0,1,5.252-.26h3.016L272.74,68.02a21.462,21.462,0,0,1,2.392,5.72H271.6a20.271,20.271,0,0,1-4.16-.26v5.512a26.43,26.43,0,0,1,4.472-.26h6.812a26.743,26.743,0,0,1-1.56,3.432c-.208.468-.208.468-.312.572H272.22a31.84,31.84,0,0,1-5.044-.26v5.512a31.911,31.911,0,0,1,4.992-.26h1.508a41.459,41.459,0,0,1-4.576,5.564,89.914,89.914,0,0,1,9.152,3.172c-3.952,1.872-7.7,2.652-13.676,3.016a15.87,15.87,0,0,1,2.184,4.992c7.124-.832,12.428-2.548,17.16-5.564a82.018,82.018,0,0,1,11.024,5.98l3.64-4.68a76.391,76.391,0,0,0-10.3-4.94,20.1,20.1,0,0,0,4.68-7.54Zm-7.28,0a13.863,13.863,0,0,1-4.056,5.616c-2.86-.988-4.94-1.716-6.292-2.132,1.456-1.82,1.924-2.444,2.652-3.484Zm.884-21.372c-1.2,3.9-1.716,5.1-3.276,7.384h-9.152l4.264-1.612a26.068,26.068,0,0,0-2.392-5.772Zm-24.908-.364V61.676a29.877,29.877,0,0,1,.312-5.252H257.5a30.169,30.169,0,0,1,.312,5.3v4.264h-2.08a22.389,22.389,0,0,1-3.848-.26v5.512a31.529,31.529,0,0,1,3.8-.208h2.132v9.412a32.863,32.863,0,0,1-6.552,1.612l1.092,5.824a16.551,16.551,0,0,1,2.184-.832c.832-.26,1.976-.624,3.276-1.092V97.348c0,1.248-.312,1.56-1.664,1.56a23.662,23.662,0,0,1-3.952-.364,16.2,16.2,0,0,1,1.3,5.356,20.96,20.96,0,0,0,2.392.1c2.86,0,4.732-.364,5.876-1.04.936-.624,1.508-2.132,1.508-4V83.724a37.357,37.357,0,0,0,3.536-1.768l-.416-5.2-3.12,1.56v-7.28h1.456a25.65,25.65,0,0,1,2.86.156V65.784a15.206,15.206,0,0,1-2.912.208Zm84.5-2.132a59.343,59.343,0,0,0,2.652-6.76l-5.98-.832a35.335,35.335,0,0,1-2.236,7.592h-3.38c-.416,0-1.56-.1-2.236-.156a42.84,42.84,0,0,1,.208,5.3v27.04a53.335,53.335,0,0,1-.26,6.708h5.668V98.18H349.6v3.12h5.564a50.442,50.442,0,0,1-.208-5.148V76.184a14.218,14.218,0,0,1,2.236,2.6,41.291,41.291,0,0,0,6.656-9.776h12.064c-.156,14.3-.832,24.128-1.924,27.352-.468,1.508-1.248,1.924-3.484,1.924a37.2,37.2,0,0,1-6.656-.728,17.722,17.722,0,0,1,1.456,5.928c2.444.156,3.744.208,4.992.208,8.216,0,9.516-1.872,10.5-15.132.208-2.652.676-14.664.78-21.112a30.2,30.2,0,0,1,.208-4.108,30.484,30.484,0,0,1-4.42.208H366.288c.468-1.352,1.3-3.588,1.508-4.368a14.548,14.548,0,0,1,.728-2.028l-5.98-.988a39.081,39.081,0,0,1-7.592,16.38V68.176A15.913,15.913,0,0,1,355,65.264a14.794,14.794,0,0,1,.1-1.56c-.624.052-2.132.1-4.472.156ZM342.16,68.9H349.6v9.2H342.16Zm0,14.248H349.6V93.188H342.16ZM371.9,87.988a67.694,67.694,0,0,0-7.228-12.9l-4.732,2.548a50.532,50.532,0,0,1,6.708,13.208ZM430.2,68.124v-5.1a40.573,40.573,0,0,1,.364-6.24h-6.448a58.936,58.936,0,0,1,.312,6.24v5.1h-1.04a44.444,44.444,0,0,1-5.72-.312v5.824a43.882,43.882,0,0,1,5.72-.312h1.04V97.556a44.891,44.891,0,0,1-.208,5.148,41.693,41.693,0,0,1,5.46-.26h27.612a62.935,62.935,0,0,1,6.552.312V96.724a59.478,59.478,0,0,1-6.552.312H430.2V73.324h8.424v11.7a34.9,34.9,0,0,1-.208,4.42c1.612-.1,2.756-.156,4.524-.156h11.492c1.768,0,2.964.052,4.368.156-.156-1.56-.208-3.12-.208-4.68V73.324h1.82a44.444,44.444,0,0,1,5.72.312V67.812a43.329,43.329,0,0,1-5.72.312h-1.82V62.352a36.82,36.82,0,0,1,.364-5.616h-6.344a42.986,42.986,0,0,1,.312,5.564v5.824h-8.736V62.352a47.469,47.469,0,0,1,.312-5.616h-6.24a38,38,0,0,1,.364,5.668v5.72Zm13.988,5.2h8.736v10.92h-8.736Zm83.044,5.564h11.96c2.288,0,3.9.052,5.564.208a36.761,36.761,0,0,1-.26-5.408v-10.4a39.172,39.172,0,0,1,.26-5.564,42.8,42.8,0,0,1-5.616.26H511.264a41,41,0,0,1-5.564-.26,51.062,51.062,0,0,1,.26,5.564v10.4a49.3,49.3,0,0,1-.26,5.408,54.366,54.366,0,0,1,5.46-.208h11.076c-5.1,3.64-12.064,5.876-21.528,6.916A19.415,19.415,0,0,1,503.1,91.42,94.127,94.127,0,0,0,514.956,88.4v.364c0,3.224-.832,5.3-2.7,6.864-2.236,1.924-4.576,2.964-9.516,4.264a23.324,23.324,0,0,1,3.484,4.836c5.616-1.716,8.788-3.588,11.336-6.708,1.976-2.392,2.756-4.524,3.12-8.528.1-.78.156-1.04.312-1.82h-4.056a41.578,41.578,0,0,0,7.488-3.8,29.679,29.679,0,0,0,7.124,3.8h-1.716a27.054,27.054,0,0,1,.26,4.108v6.708a43.64,43.64,0,0,1-.312,5.772h6.292a37.791,37.791,0,0,1-.312-5.772V91c0-.728,0-1.04.052-1.924a76.261,76.261,0,0,0,11.752,2.5,26.725,26.725,0,0,1,2.132-5.772c-9.516-.676-15.6-2.08-21.268-4.836.364-.312.572-.468,1.092-.936Zm-15.7-16.172h10.764v3.692H511.524Zm0,8.112h10.764V74.52H511.524Zm16.12-8.112h11.232v3.692H527.644Zm0,8.112h11.232V74.52H527.644Z" transform="translate(180 452)"/>
        <text id="OUR_MISSION" data-name="OUR MISSION" transform="translate(180 366)" font-size="12" font-family="HiraginoSansGB-W6, Hiragino Sans GB" letter-spacing="1.6em"><tspan x="0" y="0">OUR MISSION</tspan></text>
        <path id="路径_39860" data-name="路径 39860" d="M32.344-26.572A137.352,137.352,0,0,0,19.812-41.5c.26-.624.312-.832.572-1.508L14.82-44.356a31.445,31.445,0,0,1-5.2,10.5A26.458,26.458,0,0,1,1.456-26,22.324,22.324,0,0,1,3.64-19.864,24.981,24.981,0,0,0,6.552-22.62c.052.728.052.936.052,1.092V-2.444C6.6,2.34,8.58,3.484,17.16,3.484a43.52,43.52,0,0,0,7.228-.52A7.276,7.276,0,0,0,29.38-1.092,18.192,18.192,0,0,0,30.992-6.6a15.271,15.271,0,0,1-3.536-1.56c-.52-.26-.624-.312-1.612-.78-.624,3.952-1.2,5.668-2.08,6.4a9.835,9.835,0,0,1-4.576.832c-.156,0-4.42-.156-4.732-.156a3.145,3.145,0,0,1-1.664-.364c-.728-.416-.936-1.144-.936-3.432V-19.916h9.36a39.593,39.593,0,0,1-.676,6.136c-.26.832-.728,1.144-1.976,1.144a11.733,11.733,0,0,1-3.12-.416,20.675,20.675,0,0,1,.78,5.3,33.587,33.587,0,0,0,3.848.208c2.6,0,3.848-.676,4.628-2.444a27.754,27.754,0,0,0,1.248-7.644c.156-1.976.156-1.976.312-3.744,0-.052.156-2.236.208-3.12.676.988.728,1.144,1.456,2.288ZM11.7-25.428h-.572a5.3,5.3,0,0,1-1.4-.1,53.038,53.038,0,0,0,7.748-11.024c3.38,4.16,6.5,8.268,8.268,10.92-.572.052-.78.052-1.04.1a17.014,17.014,0,0,1-2.652.1ZM32.292-39.78a40.169,40.169,0,0,1,.26,5.512V-14.4a37.85,37.85,0,0,1-.26,5.564h5.72a43.539,43.539,0,0,1-.208-5.512v-20.02a33.036,33.036,0,0,1,.26-5.408Zm9.568-3.38a55.849,55.849,0,0,1,.312,6.4v33.7c0,1.248-.468,1.612-2.236,1.612a43.818,43.818,0,0,1-6.188-.52,16.59,16.59,0,0,1,1.56,5.512c1.976.156,3.692.208,5.148.208,5.72,0,7.176-1.248,7.176-6.032v-34.58a36.877,36.877,0,0,1,.312-6.292ZM97.4-18.044a52.393,52.393,0,0,1,.208-5.668,23.647,23.647,0,0,1-3.952.26h-3.9a23.972,23.972,0,0,1-4.16-.26V-18.1a19.517,19.517,0,0,1,3.536-.26h2.808v11.44a25.972,25.972,0,0,0-4.888,3.744c-1.612,1.508-1.664,1.508-2.6,2.392L88.5,3.692c1.56-1.82,2.5-2.86,2.808-3.224,1.872-1.872,2.7-2.548,3.224-2.548.364,0,.884.364,1.716,1.2A12.708,12.708,0,0,0,101.92,2.5a59.575,59.575,0,0,0,12.324.884c9.724,0,13.208-.052,18.356-.312a20.687,20.687,0,0,1,1.612-5.98,167.739,167.739,0,0,1-19.188.936c-11.128,0-12.688-.312-16.588-3.536A12.21,12.21,0,0,0,97.4-6.4Zm11.076-19.344c.624-1.456.676-1.508.832-1.976.208-.52.26-.52.312-.728.208-.52.208-.52.416-.988a5.065,5.065,0,0,0,.26-.572L104.988-43a18.38,18.38,0,0,1-1.924,5.252,25.632,25.632,0,0,1-4.42,6.188,8.167,8.167,0,0,1,1.976,1.144c1.924,1.4,1.924,1.4,2.5,1.872a41.849,41.849,0,0,0,2.912-4h7.384v4.784h-9.256a36.158,36.158,0,0,1-4.732-.208v5.252a41.912,41.912,0,0,1,4.42-.208H127.5a37.68,37.68,0,0,1,4.836.26v-5.3a36.955,36.955,0,0,1-4.836.208h-8.632v-4.784h6.344a49.633,49.633,0,0,1,5.356.208V-37.7a37.442,37.442,0,0,1-5.512.312h-6.188V-38.74a26.042,26.042,0,0,1,.26-4.836H113.1a25.874,25.874,0,0,1,.312,4.836v1.352Zm15.6,32.24a44.893,44.893,0,0,1,5.148.208,35.344,35.344,0,0,1-.156-4.992V-14.82a41.436,41.436,0,0,1,.156-5.3,49.632,49.632,0,0,1-5.356.208H108.316a53.011,53.011,0,0,1-5.668-.208,30.162,30.162,0,0,1,.208,4.628v5.2A35.473,35.473,0,0,1,102.7-4.94a35.378,35.378,0,0,1,4.628-.208Zm-15.964-9.776h15.548v4.784H108.108ZM85.8-39.208a62.69,62.69,0,0,1,8.84,9.828l4.42-4.16a69.606,69.606,0,0,0-9.1-9.412Z" transform="translate(180 452)" fill="#0080f4"/>
      </g>
    </g>
  </g>
</svg>
