<svg xmlns="http://www.w3.org/2000/svg" xmlns:xlink="http://www.w3.org/1999/xlink" width="690" height="334" viewBox="0 0 690 334"><defs><style>.a,.l{fill:#fff;}.b{clip-path:url(#a);}.c{opacity:0.05;}.d,.e,.f,.g,.h,.k{fill:none;}.d{stroke:#231815;}.d,.e,.f,.g,.h,.k,.l{stroke-miterlimit:10;}.e,.k{stroke:#0080f4;}.f{stroke:#ef54a1;}.g,.l{stroke:#000;}.h{stroke:#0c111a;}.i{fill:#0080f4;}.j{fill:#ef54a1;}.k{stroke-dasharray:10 5;}.m{fill:#0c111a;}</style><clipPath id="a"><rect class="a" width="690" height="333.626"/></clipPath></defs><g transform="translate(9.315 -160)"><g transform="translate(-20 52)"><rect class="a" width="690" height="334" transform="translate(10.685 108)"/><g class="b" transform="translate(10.685 108)"><g class="c" transform="translate(0 14.027)"><g transform="translate(0 2.932)"><g transform="translate(188.046 85.121)"><g transform="translate(0 0)"><rect width="179.014" height="0.717" transform="translate(0 32.115) rotate(-10.335)"/></g><g transform="translate(0 0)"><rect width="179.014" height="0.717" transform="translate(0 32.115) rotate(-10.335)"/></g></g><g transform="translate(188.097 12.249)"><g transform="translate(175.949 0.139)"><rect width="73.135" height="0.478" transform="matrix(0.063, -0.998, 0.998, 0.063, 0, 72.989)"/></g><g transform="translate(0)"><path d="M62.839,164.94l-.239-.478L243.049,59.3l.478.478Z" transform="translate(-62.6 -59.3)"/></g><g transform="translate(0)"><path d="M62.839,164.94l-.239-.478L243.049,59.3l.478.478Z" transform="translate(-62.6 -59.3)"/></g></g><g transform="translate(187.982 12.195)"><g transform="translate(123.883 0)"><rect width="69.072" height="0.478" transform="translate(0 39.433) rotate(-34.814)"/></g><g transform="translate(124.037 39.594)"><rect width="0.478" height="61.902" transform="matrix(0.54, -0.841, 0.841, 0.54, 0, 0.402)"/></g><g transform="translate(0 39.393)"><rect width="140.296" height="0.478" transform="translate(0 65.799) rotate(-27.969)"/></g><g transform="translate(0 39.393)"><rect width="140.296" height="0.478" transform="translate(0 65.799) rotate(-27.969)"/></g></g><g transform="translate(0 117.411)"><path d="M-16.1,282.553,172.236,103.778,172,103.3-16.1,281.836Z" transform="translate(16.1 -103.3)"/><path d="M-16.1,282.553,172.236,103.778,172,103.3-16.1,281.836Z" transform="translate(16.1 -103.3)"/></g><g transform="translate(0 51.684)"><g transform="translate(0 48.279)"><path d="M-16.1,246.573,11.147,96H10.43L-16.1,243.227Z" transform="translate(16.1 -96)"/></g><g transform="translate(0 43.738)"><path d="M-16.1,94.1v.478l26.769,4.3.239-.478Z" transform="translate(16.1 -94.1)"/></g><g transform="translate(26.769)"><path d="M-4.661,124.318l-.239-.478L280.472,75.8v.478Z" transform="translate(4.9 -75.8)"/></g><g transform="translate(0 48.04)"><path d="M-16.1,113.825,10.908,96.378l-.239-.478L-16.1,113.108Z" transform="translate(16.1 -95.9)"/></g><g transform="translate(26.942 48.071)"><rect width="0.478" height="162.284" transform="translate(0 0.475) rotate(-83.754)"/></g><g transform="translate(26.942 48.071)"><rect width="0.478" height="162.284" transform="translate(0 0.475) rotate(-83.754)"/></g></g><g transform="translate(188.021 12.562)"><g transform="translate(123.641 39.361)"><path d="M152.78,328.289,114.3,75.9h.717l38.241,252.389Z" transform="translate(-114.3 -75.9)"/></g><g transform="translate(162.065 0)"><rect width="292.303" height="0.478" transform="translate(0 291.718) rotate(-86.406)"/></g><g transform="translate(162.13 73.051)"><rect width="219.167" height="0.478" transform="translate(0 218.729) rotate(-86.392)"/></g><g transform="translate(0 104.885)"><rect width="0.478" height="247.37" transform="matrix(0.755, -0.656, 0.656, 0.755, 0, 0.314)"/></g><g transform="translate(0 104.885)"><rect width="0.478" height="247.37" transform="matrix(0.755, -0.656, 0.656, 0.755, 0, 0.314)"/></g></g><g transform="translate(0 51.836)"><g transform="translate(200.885 252.46)"><rect width="153.202" height="0.717" transform="matrix(0.976, -0.219, 0.219, 0.976, 0, 33.49)"/></g><g transform="translate(26.53 47.888)"><path d="M169.234,334.666-5,96.378l.478-.478L169.712,334.427Z" transform="translate(5 -95.9)"/></g><g transform="translate(0 255.583)"><path d="M-16.1,182.8v.478l201,30.832v-.717Z" transform="translate(16.1 -182.8)"/></g><g transform="translate(200.768 0)"><rect width="307.121" height="0.717" transform="translate(0 286.39) rotate(-68.826)"/></g><g transform="translate(200.764 33.548)"><path d="M68.378,343.006l-.478-.239L231.14,89.9l.478.239Z" transform="translate(-67.9 -89.9)"/></g><g transform="translate(187.902 65.73)"><rect width="0.717" height="221.079" transform="matrix(0.998, -0.058, 0.058, 0.998, 0, 0.042)"/></g><g transform="translate(187.902 65.73)"><rect width="0.717" height="221.079" transform="matrix(0.998, -0.058, 0.058, 0.998, 0, 0.042)"/></g></g><g transform="translate(311.901 0)"><g transform="translate(209.368 0.059)"><path d="M426.425,174.419,202.239,54.2l-.239.478L426.425,174.9Z" transform="translate(-202 -54.2)"/></g><g transform="translate(0 0.059)"><path d="M114.639,106.3l-.239-.478L323.768,54.2l.239.478Z" transform="translate(-114.4 -54.2)"/></g><g transform="translate(56.883 0.059)"><path d="M138.2,66.867v-.478L290.685,54.2l.239.478Z" transform="translate(-138.2 -54.2)"/></g><g transform="translate(52.28)"><rect width="178.775" height="0.478" transform="matrix(0.879, -0.477, 0.477, 0.879, 0, 85.222)"/></g></g><g transform="translate(350.381 85.375)"><g transform="translate(0 218.698)"><path d="M298.042,220.6,130.5,181.878V181.4l167.542,38.48Z" transform="translate(-130.5 -181.4)"/></g><g transform="translate(13.589 0)"><rect width="0.717" height="299.951" transform="translate(0 0.368) rotate(-30.843)"/></g></g><g transform="translate(311.901 0.009)"><g transform="translate(205.735 202.679)"><rect width="151.051" height="0.717" transform="matrix(0.374, -0.927, 0.927, 0.374, 0, 140.07)"/></g><g transform="translate(209.142 0)"><rect width="0.717" height="209.368" transform="matrix(0.967, -0.253, 0.253, 0.967, 0, 0.182)"/></g><g transform="translate(262.427 149.189)"><path d="M395.566,116.6,224.2,169.9v.478l171.366-53.059Z" transform="translate(-224.2 -116.6)"/></g><g transform="translate(38.391 202.265)"><rect width="245.936" height="0.478" transform="translate(0 101.842) rotate(-24.463)"/></g><g transform="translate(0 51.675)"><path d="M376.588,227.09,114.4,76.278l.239-.478L377.066,226.612Z" transform="translate(-114.4 -75.8)"/></g><g transform="translate(56.711 12.149)"><rect width="0.717" height="280.113" transform="translate(0 0.526) rotate(-47.229)"/></g><g transform="translate(52.092 85.133)"><rect width="0.717" height="240.678" transform="translate(0 0.626) rotate(-60.849)"/></g></g><g transform="translate(574.328 202.496)"><path d="M395.566,183.594,224.2,138.9v.478l171.366,44.933Z" transform="translate(-224.2 -138.9)"/></g><g transform="translate(350.342 188.634)"><g transform="translate(281.586 129.301)"><path d="M362.066,187.2,248.3,223.768l.239.717,113.527-36.568Z" transform="translate(-248.3 -187.2)"/></g><g transform="translate(223.747 13.862)"><path d="M281.939,291.385,224.1,139.139l.478-.239,57.839,152.246Z" transform="translate(-224.1 -138.9)"/></g><g transform="translate(167.475 153.752)"><rect width="0.717" height="114.722" transform="translate(0 0.713) rotate(-83.996)"/></g><g transform="translate(281.586)"><path d="M362.066,133.1,248.3,299.208l.478.239L362.066,134.056Z" transform="translate(-248.3 -133.1)"/></g><g transform="translate(0 115.508)"><rect width="0.478" height="286.089" transform="translate(0 0.47) rotate(-79.81)"/></g></g></g><g transform="translate(23.777)"><path d="M65.3,108.247a3.1,3.1,0,1,1,2.151-3.824A3.175,3.175,0,0,1,65.3,108.247Z" transform="translate(99.98 15.442)"/><path d="M139,94.747a3.1,3.1,0,1,1,2.151-3.824A3.519,3.519,0,0,1,139,94.747Z" transform="translate(202.426 -3.324)"/><path d="M65.3,108.247a3.1,3.1,0,1,1,2.151-3.824A3.175,3.175,0,0,1,65.3,108.247Z" transform="translate(99.98 15.442)"/><path d="M139,94.747a3.1,3.1,0,1,1,2.151-3.824A3.519,3.519,0,0,1,139,94.747Z" transform="translate(202.426 -3.324)"/><path d="M139,94.747a3.1,3.1,0,1,1,2.151-3.824A3.519,3.519,0,0,1,139,94.747Z" transform="translate(202.426 -3.324)"/><path d="M140.9,64.247a3.1,3.1,0,1,1,2.151-3.824A3.175,3.175,0,0,1,140.9,64.247Z" transform="translate(205.067 -45.72)"/><path d="M65.3,108.247a3.1,3.1,0,1,1,2.151-3.824A3.175,3.175,0,0,1,65.3,108.247Z" transform="translate(99.98 15.442)"/><path d="M140.9,64.247a3.1,3.1,0,1,1,2.151-3.824A3.175,3.175,0,0,1,140.9,64.247Z" transform="translate(205.067 -45.72)"/><path d="M65.3,108.247a3.1,3.1,0,1,1,2.151-3.824A3.175,3.175,0,0,1,65.3,108.247Z" transform="translate(99.98 15.442)"/><path d="M140.9,64.247a3.1,3.1,0,1,1,2.151-3.824A3.175,3.175,0,0,1,140.9,64.247Z" transform="translate(205.067 -45.72)"/><path d="M140.9,64.247a3.1,3.1,0,1,1,2.151-3.824A3.175,3.175,0,0,1,140.9,64.247Z" transform="translate(205.067 -45.72)"/><path d="M117.1,80.747a3.1,3.1,0,1,1,2.151-3.824A3.175,3.175,0,0,1,117.1,80.747Z" transform="translate(171.984 -22.785)"/><path d="M139,94.747a3.1,3.1,0,1,1,2.151-3.824A3.519,3.519,0,0,1,139,94.747Z" transform="translate(202.426 -3.324)"/><path d="M117.1,80.747a3.1,3.1,0,1,1,2.151-3.824A3.175,3.175,0,0,1,117.1,80.747Z" transform="translate(171.984 -22.785)"/><path d="M65.3,108.247a3.1,3.1,0,1,1,2.151-3.824A3.175,3.175,0,0,1,65.3,108.247Z" transform="translate(99.98 15.442)"/><path d="M117.1,80.747a3.1,3.1,0,1,1,2.151-3.824A3.175,3.175,0,0,1,117.1,80.747Z" transform="translate(171.984 -22.785)"/><path d="M65.3,108.247a3.1,3.1,0,1,1,2.151-3.824A3.175,3.175,0,0,1,65.3,108.247Z" transform="translate(99.98 15.442)"/><path d="M117.1,80.747a3.1,3.1,0,1,1,2.151-3.824A3.175,3.175,0,0,1,117.1,80.747Z" transform="translate(171.984 -22.785)"/><path d="M65.3,108.247a3.1,3.1,0,1,1,2.151-3.824A3.175,3.175,0,0,1,65.3,108.247Z" transform="translate(99.98 15.442)"/><path d="M65.3,108.247a3.1,3.1,0,1,1,2.151-3.824A3.175,3.175,0,0,1,65.3,108.247Z" transform="translate(99.98 15.442)"/><path d="M-2.2,100.847A3.069,3.069,0,0,1-6.028,98.7a3.069,3.069,0,0,1,2.151-3.824A3.069,3.069,0,0,1-.053,97.023,3.175,3.175,0,0,1-2.2,100.847Z" transform="translate(6.151 5.155)"/><path d="M-2.2,100.847A3.069,3.069,0,0,1-6.028,98.7a3.069,3.069,0,0,1,2.151-3.824A3.069,3.069,0,0,1-.053,97.023,3.175,3.175,0,0,1-2.2,100.847Z" transform="translate(6.151 5.155)"/><path d="M117.1,80.747a3.1,3.1,0,1,1,2.151-3.824A3.175,3.175,0,0,1,117.1,80.747Z" transform="translate(171.984 -22.785)"/><path d="M-2.2,100.847A3.069,3.069,0,0,1-6.028,98.7a3.069,3.069,0,0,1,2.151-3.824A3.069,3.069,0,0,1-.053,97.023,3.175,3.175,0,0,1-2.2,100.847Z" transform="translate(6.151 5.155)"/><path d="M-2.2,100.847A3.069,3.069,0,0,1-6.028,98.7a3.069,3.069,0,0,1,2.151-3.824A3.069,3.069,0,0,1-.053,97.023,3.175,3.175,0,0,1-2.2,100.847Z" transform="translate(6.151 5.155)"/><path d="M65.3,108.247a3.1,3.1,0,1,1,2.151-3.824A3.175,3.175,0,0,1,65.3,108.247Z" transform="translate(99.98 15.442)"/><path d="M-2.2,100.847A3.069,3.069,0,0,1-6.028,98.7a3.069,3.069,0,0,1,2.151-3.824A3.069,3.069,0,0,1-.053,97.023,3.175,3.175,0,0,1-2.2,100.847Z" transform="translate(6.151 5.155)"/><path d="M65.3,108.247a3.1,3.1,0,1,1,2.151-3.824A3.175,3.175,0,0,1,65.3,108.247Z" transform="translate(99.98 15.442)"/><path d="M-2.2,100.847A3.069,3.069,0,0,1-6.028,98.7a3.069,3.069,0,0,1,2.151-3.824A3.069,3.069,0,0,1-.053,97.023,3.175,3.175,0,0,1-2.2,100.847Z" transform="translate(6.151 5.155)"/><path d="M117.1,80.747a3.1,3.1,0,1,1,2.151-3.824A3.175,3.175,0,0,1,117.1,80.747Z" transform="translate(171.984 -22.785)"/><path d="M133.2,186.247a3.1,3.1,0,1,1,2.151-3.824A3.069,3.069,0,0,1,133.2,186.247Z" transform="translate(194.364 123.865)"/><path d="M140.9,64.247a3.1,3.1,0,1,1,2.151-3.824A3.175,3.175,0,0,1,140.9,64.247Z" transform="translate(205.067 -45.72)"/><path d="M133.2,186.247a3.1,3.1,0,1,1,2.151-3.824A3.069,3.069,0,0,1,133.2,186.247Z" transform="translate(194.364 123.865)"/><path d="M139,94.747a3.1,3.1,0,1,1,2.151-3.824A3.519,3.519,0,0,1,139,94.747Z" transform="translate(202.426 -3.324)"/><path d="M133.2,186.247a3.1,3.1,0,1,1,2.151-3.824A3.069,3.069,0,0,1,133.2,186.247Z" transform="translate(194.364 123.865)"/><path d="M65.3,108.247a3.1,3.1,0,1,1,2.151-3.824A3.175,3.175,0,0,1,65.3,108.247Z" transform="translate(99.98 15.442)"/><path d="M133.2,186.247a3.1,3.1,0,1,1,2.151-3.824A3.069,3.069,0,0,1,133.2,186.247Z" transform="translate(194.364 123.865)"/><path d="M65.3,108.247a3.1,3.1,0,1,1,2.151-3.824A3.175,3.175,0,0,1,65.3,108.247Z" transform="translate(99.98 15.442)"/><path d="M133.2,186.247a3.1,3.1,0,1,1,2.151-3.824A3.069,3.069,0,0,1,133.2,186.247Z" transform="translate(194.364 123.865)"/><path d="M133.2,186.247a3.1,3.1,0,1,1,2.151-3.824A3.069,3.069,0,0,1,133.2,186.247Z" transform="translate(194.364 123.865)"/><path d="M70.7,200.547a3.1,3.1,0,1,1,2.151-3.824A3.069,3.069,0,0,1,70.7,200.547Z" transform="translate(107.486 143.743)"/><path d="M-2.2,100.847A3.069,3.069,0,0,1-6.028,98.7a3.069,3.069,0,0,1,2.151-3.824A3.069,3.069,0,0,1-.053,97.023,3.175,3.175,0,0,1-2.2,100.847Z" transform="translate(6.151 5.155)"/><path d="M70.7,200.547a3.1,3.1,0,1,1,2.151-3.824A3.069,3.069,0,0,1,70.7,200.547Z" transform="translate(107.486 143.743)"/><path d="M70.7,200.547a3.1,3.1,0,1,1,2.151-3.824A3.069,3.069,0,0,1,70.7,200.547Z" transform="translate(107.486 143.743)"/><path d="M117.1,80.747a3.1,3.1,0,1,1,2.151-3.824A3.175,3.175,0,0,1,117.1,80.747Z" transform="translate(171.984 -22.785)"/><path d="M70.7,200.547a3.1,3.1,0,1,1,2.151-3.824A3.069,3.069,0,0,1,70.7,200.547Z" transform="translate(107.486 143.743)"/><path d="M139,94.747a3.1,3.1,0,1,1,2.151-3.824A3.519,3.519,0,0,1,139,94.747Z" transform="translate(202.426 -3.324)"/><path d="M70.7,200.547a3.1,3.1,0,1,1,2.151-3.824A3.069,3.069,0,0,1,70.7,200.547Z" transform="translate(107.486 143.743)"/><path d="M65.3,108.247a3.1,3.1,0,1,1,2.151-3.824A3.175,3.175,0,0,1,65.3,108.247Z" transform="translate(99.98 15.442)"/><path d="M70.7,200.547a3.1,3.1,0,1,1,2.151-3.824A3.069,3.069,0,0,1,70.7,200.547Z" transform="translate(107.486 143.743)"/><path d="M65.3,108.247a3.1,3.1,0,1,1,2.151-3.824A3.175,3.175,0,0,1,65.3,108.247Z" transform="translate(99.98 15.442)"/><path d="M70.7,200.547a3.1,3.1,0,1,1,2.151-3.824A3.069,3.069,0,0,1,70.7,200.547Z" transform="translate(107.486 143.743)"/><path d="M204.7,59.047a3.1,3.1,0,1,1,2.151-3.824A3.069,3.069,0,0,1,204.7,59.047Z" transform="translate(293.752 -52.949)"/><path d="M117.1,80.747a3.1,3.1,0,1,1,2.151-3.824A3.175,3.175,0,0,1,117.1,80.747Z" transform="translate(171.984 -22.785)"/><path d="M204.7,59.047a3.1,3.1,0,1,1,2.151-3.824A3.069,3.069,0,0,1,204.7,59.047Z" transform="translate(293.752 -52.949)"/><path d="M140.9,64.247a3.1,3.1,0,1,1,2.151-3.824A3.175,3.175,0,0,1,140.9,64.247Z" transform="translate(205.067 -45.72)"/><path d="M204.7,59.047a3.1,3.1,0,1,1,2.151-3.824A3.069,3.069,0,0,1,204.7,59.047Z" transform="translate(293.752 -52.949)"/><path d="M139,94.747a3.1,3.1,0,1,1,2.151-3.824A3.519,3.519,0,0,1,139,94.747Z" transform="translate(202.426 -3.324)"/><path d="M204.7,59.047a3.1,3.1,0,1,1,2.151-3.824A3.069,3.069,0,0,1,204.7,59.047Z" transform="translate(293.752 -52.949)"/><path d="M133.2,186.247a3.1,3.1,0,1,1,2.151-3.824A3.069,3.069,0,0,1,133.2,186.247Z" transform="translate(194.364 123.865)"/><path d="M203.3,202.447a3.1,3.1,0,1,1,2.151-3.824A3.069,3.069,0,0,1,203.3,202.447Z" transform="translate(291.806 146.384)"/><path d="M139,94.747a3.1,3.1,0,1,1,2.151-3.824A3.519,3.519,0,0,1,139,94.747Z" transform="translate(202.426 -3.324)"/><path d="M203.3,202.447a3.1,3.1,0,1,1,2.151-3.824A3.069,3.069,0,0,1,203.3,202.447Z" transform="translate(291.806 146.384)"/><path d="M203.3,202.447a3.1,3.1,0,1,1,2.151-3.824A3.069,3.069,0,0,1,203.3,202.447Z" transform="translate(291.806 146.384)"/><path d="M226.9,143.747a3.1,3.1,0,1,1,2.151-3.824A3.069,3.069,0,0,1,226.9,143.747Z" transform="translate(324.611 64.788)"/><path d="M204.7,59.047a3.1,3.1,0,1,1,2.151-3.824A3.069,3.069,0,0,1,204.7,59.047Z" transform="translate(293.752 -52.949)"/><path d="M226.9,143.747a3.1,3.1,0,1,1,2.151-3.824A3.069,3.069,0,0,1,226.9,143.747Z" transform="translate(324.611 64.788)"/><path d="M226.9,143.747a3.1,3.1,0,1,1,2.151-3.824A3.069,3.069,0,0,1,226.9,143.747Z" transform="translate(324.611 64.788)"/><path d="M133.2,186.247a3.1,3.1,0,1,1,2.151-3.824A3.069,3.069,0,0,1,133.2,186.247Z" transform="translate(194.364 123.865)"/><path d="M226.9,143.747a3.1,3.1,0,1,1,2.151-3.824A3.069,3.069,0,0,1,226.9,143.747Z" transform="translate(324.611 64.788)"/><path d="M117.1,80.747a3.1,3.1,0,1,1,2.151-3.824A3.175,3.175,0,0,1,117.1,80.747Z" transform="translate(171.984 -22.785)"/><path d="M226.9,143.747a3.1,3.1,0,1,1,2.151-3.824A3.069,3.069,0,0,1,226.9,143.747Z" transform="translate(324.611 64.788)"/><path d="M140.9,64.247a3.1,3.1,0,1,1,2.151-3.824A3.175,3.175,0,0,1,140.9,64.247Z" transform="translate(205.067 -45.72)"/><path d="M226.9,143.747a3.1,3.1,0,1,1,2.151-3.824A3.069,3.069,0,0,1,226.9,143.747Z" transform="translate(324.611 64.788)"/><path d="M139,94.747a3.1,3.1,0,1,1,2.151-3.824A3.519,3.519,0,0,1,139,94.747Z" transform="translate(202.426 -3.324)"/><path d="M226.9,143.747a3.1,3.1,0,1,1,2.151-3.824A3.069,3.069,0,0,1,226.9,143.747Z" transform="translate(324.611 64.788)"/><path d="M226.9,143.747a3.1,3.1,0,1,1,2.151-3.824A3.069,3.069,0,0,1,226.9,143.747Z" transform="translate(324.611 64.788)"/><path d="M251,207.447a3.1,3.1,0,1,1,2.151-3.824A3.069,3.069,0,0,1,251,207.447Z" transform="translate(358.111 153.334)"/><path d="M226.9,143.747a3.1,3.1,0,1,1,2.151-3.824A3.069,3.069,0,0,1,226.9,143.747Z" transform="translate(324.611 64.788)"/><path d="M251,207.447a3.1,3.1,0,1,1,2.151-3.824A3.069,3.069,0,0,1,251,207.447Z" transform="translate(358.111 153.334)"/><path d="M203.3,202.447a3.1,3.1,0,1,1,2.151-3.824A3.069,3.069,0,0,1,203.3,202.447Z" transform="translate(291.806 146.384)"/><path d="M251,207.447a3.1,3.1,0,1,1,2.151-3.824A3.069,3.069,0,0,1,251,207.447Z" transform="translate(358.111 153.334)"/><path d="M251,207.447a3.1,3.1,0,1,1,2.151-3.824A3.069,3.069,0,0,1,251,207.447Z" transform="translate(358.111 153.334)"/><path d="M133.2,186.247a3.1,3.1,0,1,1,2.151-3.824A3.069,3.069,0,0,1,133.2,186.247Z" transform="translate(194.364 123.865)"/><path d="M251,207.447a3.1,3.1,0,1,1,2.151-3.824A3.069,3.069,0,0,1,251,207.447Z" transform="translate(358.111 153.334)"/></g></g></g><g transform="translate(361.564 187.085)"><path class="d" d="M1219.81,497.625l-7.345,17.971,22.221,11.8,29.8-4.808,7.431-16.684-21.565-12.823Z" transform="translate(-1026.071 -413.465)"/><path class="d" d="M1231.227,506.062l-6.3,14.95,19.794,10.243,26.3-4.637,6.091-13.565L1258.5,501.979Z" transform="translate(-1034.903 -419.767)"/><path class="e" d="M736.011,264.663A87.045,87.045,0,1,0,616.016,382.087" transform="translate(-572.865 -219.874)"/><path class="e" d="M849.9,631.792q3.121.223,6.3.224a87.05,87.05,0,0,0,86.361-76.155" transform="translate(-769.168 -457.947)"/><path class="f" d="M952.375,549.574a83.009,83.009,0,0,0,56.916-99.419" transform="translate(-841.777 -383.046)"/><path class="f" d="M645.7,246.488a83.013,83.013,0,0,0-56.591,97.565" transform="translate(-582.942 -238.732)"/><path class="e" d="M641.863,328.983a74,74,0,1,0,106.2,8.3" transform="translate(-604.108 -297.186)"/><path class="g" d="M970.083,519.461a71.188,71.188,0,0,0,37.056-91.1" transform="translate(-854.325 -367.603)"/><path class="g" d="M970.083,740.967" transform="translate(-854.325 -589.109)"/><path class="h" d="M736.192,285.715a71.108,71.108,0,1,0-40.384,130.717" transform="translate(-610.759 -258.399)"/><path class="g" d="M677.167,304.111a68.069,68.069,0,1,0,74.479,111.651" transform="translate(-618.212 -279.563)"/><path class="g" d="M921.819,302.816a67.82,67.82,0,0,0-45.265-18.865" transform="translate(-788.052 -265.278)"/><path class="g" d="M1087.353,547.234c3.121-7.808,4.829-14.451,4.829-23.372" transform="translate(-937.42 -435.273)"/><path class="g" d="M998.837,700.413" transform="translate(-874.699 -560.373)"/><path class="g" d="M648.629,545.667a65.16,65.16,0,0,0,102.058,45.1" transform="translate(-626.55 -450.724)"/><path class="g" d="M836.636,298.39a65.4,65.4,0,0,0-47.6-.068" transform="translate(-726.038 -272.307)"/><path class="g" d="M661.284,565.223a62.584,62.584,0,0,0,84.087,44.566" transform="translate(-635.517 -464.581)"/><path class="g" d="M812.748,305.346a62.42,62.42,0,0,0-41.2,5.83" transform="translate(-713.645 -279.563)"/><path class="f" d="M794.583,688.878a59.743,59.743,0,0,0,58.376-8.069" transform="translate(-729.969 -546.482)"/><path class="h" d="M839.586,318.018a59.873,59.873,0,0,0-44.492-.24" transform="translate(-730.332 -286.294)"/><path class="e" d="M617.735,645.42a82.915,82.915,0,0,0,79.944,45.607q.715-.05,1.426-.112" transform="translate(-604.659 -521.407)"/><g transform="translate(4.774 5.702)"><circle class="i" cx="1.468" cy="1.468" r="1.468" transform="translate(157.293 38.42)"/><circle cx="1.224" cy="1.224" r="1.224" transform="translate(120.131 20.946)"/><circle cx="1.098" cy="1.098" r="1.098" transform="translate(128.174 31.239)"/><circle cx="1.098" cy="1.098" r="1.098" transform="translate(81.958 11.938)"/><circle cx="1.224" cy="1.224" r="1.224" transform="translate(105.136 19.488)"/><circle cx="1.224" cy="1.224" r="1.224" transform="translate(93.869 19.157)"/><circle cx="0.865" cy="0.865" r="0.865" transform="translate(103.615 25.229)"/><circle cx="0.865" cy="0.865" r="0.865" transform="translate(58.759 25.157)"/><circle class="j" cx="0.865" cy="0.865" r="0.865" transform="translate(58.576 135.715)"/><circle cx="0.865" cy="0.865" r="0.865" transform="translate(60.843 126.455)"/><circle class="j" cx="0.865" cy="0.865" r="0.865" transform="translate(117.35 127.759)"/><circle cx="1.224" cy="1.224" r="1.224" transform="translate(51.344 24.871)"/><circle cx="1.224" cy="1.224" r="1.224" transform="translate(56.18 19.488)"/><circle cx="1.05" cy="1.05" r="1.05" transform="translate(53.331 17.797)"/><circle class="i" cx="1.224" cy="1.224" r="1.224" transform="translate(32.046 24.367)"/><circle class="i" cx="1.148" cy="1.148" r="1.148" transform="translate(137.885 33.261)"/><circle cx="1.148" cy="1.148" r="1.148" transform="translate(146.719 53.478)"/><circle cx="1.004" cy="1.004" r="1.004" transform="translate(148.984 81.411)"/><circle cx="1.004" cy="1.004" r="1.004" transform="translate(143.932 105.728)"/><circle cx="1.004" cy="1.004" r="1.004" transform="translate(128.088 129.285)"/><circle cx="1.079" cy="1.079" r="1.079" transform="translate(79.778 151.252)"/><circle class="j" cx="1.87" cy="1.87" r="1.87" transform="translate(56.353)"/><circle class="j" cx="1.705" cy="1.705" r="1.705" transform="translate(160.595 58.991)"/><circle class="i" cx="1.705" cy="1.705" r="1.705" transform="translate(166.916 89.05)"/><circle class="i" cx="1.705" cy="1.705" r="1.705" transform="translate(74.256 166.381)"/><circle class="i" cx="1.705" cy="1.705" r="1.705" transform="translate(37.862 155.472)"/><circle class="j" cx="1.705" cy="1.705" r="1.705" transform="translate(0 99.159)"/><circle cx="1.133" cy="1.133" r="1.133" transform="translate(15.981 87.398)"/><circle cx="1.133" cy="1.133" r="1.133" transform="translate(19.683 92.787)"/><circle class="i" cx="1.612" cy="1.612" r="1.612" transform="translate(6.236 115.935)"/><circle cx="1.079" cy="1.079" r="1.079" transform="translate(54.877 71.928)"/><circle cx="1.079" cy="1.079" r="1.079" transform="translate(63.943 70.212)"/><circle cx="0.867" cy="0.867" r="0.867" transform="translate(114.418 97.405)"/><circle cx="1.079" cy="1.079" r="1.079" transform="translate(93.796 40.132)"/><circle cx="1.079" cy="1.079" r="1.079" transform="translate(105.874 60.833)"/><circle cx="0.898" cy="0.898" r="0.898" transform="translate(86.206 80.457)"/><circle cx="0.898" cy="0.898" r="0.898" transform="translate(90.092 102.299)"/><circle cx="0.898" cy="0.898" r="0.898" transform="translate(53.52 90.894)"/><circle cx="0.898" cy="0.898" r="0.898" transform="translate(39.241 94.391)"/><circle cx="1.079" cy="1.079" r="1.079" transform="translate(113.126 60.833)"/><circle cx="1.004" cy="1.004" r="1.004" transform="translate(118.36 133.333)"/><circle cx="1.004" cy="1.004" r="1.004" transform="translate(104.077 138.351)"/><circle cx="1.079" cy="1.079" r="1.079" transform="translate(109.492 145.271)"/><circle class="i" cx="1.705" cy="1.705" r="1.705" transform="translate(89.288 161.931)"/><circle class="j" cx="1.705" cy="1.705" r="1.705" transform="translate(105.104 158.9)"/></g><g transform="translate(26.959 39.47)"><path class="g" d="M727.02,360.592l.928-.324,1.194-.035-.341.682h-.6V362.3h4.23s2.418-3.108,2.763-3.454a19.512,19.512,0,0,1,2.374-1.327c.68-.389,2.461-.939,2.979-2.2H735.2l-2.364,1.813-1.036-.259-2.331,2.2-.518.486-.324.324" transform="translate(-709.055 -355.314)"/><path class="e" d="M742.641,370.683l1.338-1.856h2.115l3.324-2.936h5.526l2.115-1.554h7.167l.3,4.058,2.331.043-.216,1.209-.734,2.115-.518.777h-1.252l-4.447,5.958h-4.015l-4.144,6.3h-3.929l-1.468-3.152-.216-1.338.95-.863,1.382-.175.734-1.077-.086-1.166-4.188.043-.173-3.626.345-2.2-4.145.043" transform="translate(-718.778 -361.707)"/><path class="g" d="M729,396.78l-3.67,7.814h1.835v1.727l-.712.432.043,1.77,2.5.216.648,2.677h1.166l1.554-5.224.259-1.554-.518-.086-.3-1.3-1.641-.173v-3.411h-1.856" transform="translate(-707.861 -384.696)"/><path class="g" d="M866.674,380.855c-.388.237-8.872,0-8.872,0s-2.051.755-2.482,2.029-.41,3.389,1.878,3.389h3.6s3.13-1.381,3.54-2.828v-1.4" transform="translate(-799.811 -373.412)"/><path class="h" d="M839.406,412.853l2.029,3.5h2.676s0-3.022,2.677-3.5h3.54v4.706l-3.756,2.935h-3.065l-.691-2.547H834.8l-7.179,7.771L827.4,429l2.375,2.418h4.188v-2.374l3.151-2.461h4.792" transform="translate(-780.185 -396.085)"/><path class="g" d="M873.328,405.3l2.72-2.374h9.368l3.195,1.856v1.684h-.95v1.122l1.166,1.554h3.324l.907-1.425v-1.9h2.072l.993,2.763.734,4.36.475,2.159" transform="translate(-812.726 -389.052)"/><path class="h" d="M823.39,442.778v7.944l1.874,1.727h2.547l1.209-1.338V450.2l-1.9-1.77v-1.943l1.122-.475h5.569l3.065,2.763v2.979l-11.656,9.5h-2.547l-3.152-4.231h-8.634l-7.037,7.037v9.023" transform="translate(-763.495 -417.289)"/><path class="h" d="M947.7,407.935h6.174l1.641-4.188h9.023l.389-1.856h10.663l3.138,4.447h1.007l1.641,4.533,1.9,5.612v5.569h-.345l-1.684-5.44-.173-1.9-1.3-5.108-1.252-1.584h-.691l.893,4.274v7.253h-6.031" transform="translate(-865.421 -388.317)"/><path class="h" d="M813.767,505.442l7.1,11.722h5.008l.388,3.431-5.7,5.958-.55,8.1-3.594,3.1-.13,2.979-3.367,4.209h-3.756l-4.145-8.419v-1.87l2.72-3.375v-1.619l-5.375-10.232h-1.943l-2.461,2.4H793.3l-2.914-2.267h-9.131" transform="translate(-747.487 -461.691)"/><path class="g" d="M893.476,504.327l3.022-2.5h2.245l5.44,8.289,1.6-.345,4.118-3.522v-6.581" transform="translate(-827.002 -457.598)"/><path class="g" d="M932.4,497.98h-2.418l-3.022-4.834v-.994l.777-1.079h.95l3.108,4.922,5.008.173,6.044,13.787h3.195" transform="translate(-850.725 -451.509)"/><path class="g" d="M992.545,529.2h-1.3v-2.159L994.755,521h4.179l-.432,8.7-.863,4.185.173,2.33.691,1.187h1.641l.863-1.187-.691-1.576-.518-1.121v-2.85" transform="translate(-896.282 -472.713)"/><path class="h" d="M949.177,483.712l.189-2.159,1.71-1.3,20.938.173,1.338,3.281v2.5" transform="translate(-866.471 -443.847)"/><path class="h" d="M685.781,452.783h8.03l2.5-2.676.691-5.1,3.367-2.849v-4.145l-2.159-3.281h-1.9l-1.122,1.641-.691,3.713h-2.677l-.086-2.418,2.936-5.267.345-2.072h-1.381l-1.986,1.122L690.1,433.27l-1.122,5.44" transform="translate(-679.834 -408.472)"/><path class="g" d="M787.216,425.085l4.058-.216,2.331-1.727V421.89h-4.533l-2.741,2.072-.777,4.792" transform="translate(-750.531 -402.488)"/><path class="g" d="M904.876,594.223l2.849-2.785h1.36v5.245l-3.389,3.691h-8.744" transform="translate(-829.465 -522.627)"/><path class="g" d="M965.264,565.114h-4.727l-.842-1.187v-2.7l.842-1.124h1.036l.129,3.173" transform="translate(-873.924 -500.425)"/><path class="h" d="M1032.137,513.814l.971-7.836h3.821l3.626-5.886v-6.634l-1.36-2.979h-1.166l-.389.8.389,4.533-2.959,5.468-1.833.3-.583,1.166-.194,2.785-.324,2.051" transform="translate(-925.254 -451.089)"/><path class="g" d="M1023.248,473.461l1.036-.691.712-1.587v-4.306l3.918-5.763v-6.249h2.072l.356-.81v-3.5l-1.781-5.407-.79-2.817" transform="translate(-918.956 -416.974)"/><line class="g" x2="2.633" transform="translate(85.772 6.119)"/><path class="g" d="M782.51,448.852l-.324,2.159-.928,8.159" transform="translate(-747.487 -421.593)"/><path class="g" d="M725.483,468.851H732l.691,1.813-.475,1.511-3.13,3.281h-2.914" transform="translate(-707.966 -435.764)"/><path class="g" d="M679.855,518.2h1.209l.518,1.463.546,7.339" transform="translate(-675.635 -470.732)"/><line class="g" x2="6.562" y2="0.216" transform="translate(0.378 38.052)"/><path class="g" d="M704.011,386.78l-3.713,5.612.216.043.82.043-.043.928-.777.971v1.209l1.684-.043v1.015l-.691.885v1.122h1.6l2.806-2.374v-1.036h-.993l.345-2.418-2.806.259,2.029-4.576-2.418-.173" transform="translate(-690.121 -377.61)"/><path class="g" d="M931.694,388.114l-.227-.712,1.263-1.1,1.91-1.457h2.008V384.1l-1.781-.68-1.068-.971h-2.331l-2.882,2.558.292,2.1.648,2.072.648.453h4.663" transform="translate(-851.88 -374.54)"/><path class="g" d="M1006.508,376.312s6.265,7.5,7.061,10.649" transform="translate(-907.094 -370.193)"/><path class="g" d="M988.138,401.891l3.679,9.5v3.67l-1.278,1.278H987.1" transform="translate(-893.343 -388.317)"/><path class="g" d="M1042.708,426.886h-2.72v2.127" transform="translate(-930.817 -406.028)"/><path class="e" d="M1023.272,596.693l1.468-2.792,1.325.216-.72,5.742-2.072,4.4-4.034,4.835h-1.751l.691-2.677-3.67.259.863-4.231.863-3.929,6.344-5.526h1.988l.043.561" transform="translate(-912.763 -523.729)"/><path class="g" d="M1029.755,643.316v.661l-5.915,5.785" transform="translate(-919.376 -559.386)"/><line class="g" x2="4.015" transform="translate(31.505 15.063)"/><line class="g" x2="1.91" transform="translate(55.8 16.768)"/><line class="g" x2="3.033" transform="translate(68.06 7.573)"/><path class="g" d="M971.547,376.312h5.4l2.849,2.4.777.777v1.036h-4.49l-1.9-2.893" transform="translate(-882.321 -370.193)"/><path class="h" d="M733.334,566.423h9.455l1.943,2.563v3.152l-2.5,4.792H738" transform="translate(-713.529 -504.901)"/><path class="g" d="M744,630.622l1.6,3.022,4.447,7.685,3.324,2.892,5.372-.173" transform="translate(-721.087 -550.391)"/><path class="g" d="M672.659,428.112l-2.677,5.051v2.418l-1.122,5.569-1.122,6-.475,6.821,4.274,6.3h5.137l1.166,1.385.259,5.565,2.59,10.016,4.922,5.137,2.59,6.389,5.742,9.541,5.915,4.878.626.23.237-.878-4.576-6.562v-2.461l2.936-9.714-2.159-8.03-10.016-12.3h-6.174l-.777-1.1-.432-4.685-.345-1.252H676.89l-.82-.863.259-6.605" transform="translate(-666.712 -406.897)"/><path class="g" d="M667.026,471.448a9.832,9.832,0,0,0-1.651-.227" transform="translate(-665.374 -437.443)"/><path class="g" d="M690.285,419.217h-2.914l.421-2.2,1.036-2.2.389-2.364H685.04l.971-1.878.421-1.88,1.23-2.134" transform="translate(-679.309 -391.624)"/><path class="g" d="M851.477,566.423H857.5l4.015,7.29,2.59.618" transform="translate(-797.243 -504.901)"/><line class="g" y2="2.229" transform="translate(40.852 59.292)"/><line class="g" x2="2.357" transform="translate(96.116 58.444)"/><line class="g" x1="0.648" y2="3.628" transform="translate(112.387 57.544)"/><line class="g" x1="1.166" y2="2.806" transform="translate(109.214 74.511)"/><line class="g" x2="1.878" transform="translate(44.65 37.577)"/><line class="g" x1="2.115" y2="5.069" transform="translate(117.848 60.407)"/><path class="g" d="M831.875,491.467V485.92l-.583-1.079-1.813-.583" transform="translate(-781.655 -446.681)"/><path class="g" d="M898.918,478.7l-1.966-3.3v-1.748l.606-.648h2.4l2.893,3.281h3.324" transform="translate(-829.465 -438.703)"/></g><g transform="translate(147.887 24.071)"><rect class="e" width="37.119" height="2.221" rx="1.111" transform="matrix(0.864, 0.503, -0.503, 0.864, 6.991, 5.525)"/><rect width="28.596" height="2.62" rx="1.31" transform="matrix(0.864, 0.503, -0.503, 0.864, 14.457, 9.641)"/><path class="i" d="M1084.4,313.068l-1.608-1.19-1.892.649.635-1.9-1.2-1.6,2,.018,1.149-1.637.6,1.908,1.912.587-1.629,1.161Z" transform="translate(-1080.331 -305.973)"/><path class="i" d="M1120.565,312.044l-.765-1.07-1.315.024.781-1.058-.429-1.243,1.248.416,1.05-.792-.01,1.315,1.078.754-1.254.4Z" transform="translate(-1107.366 -306.616)"/><path class="i" d="M1105.089,305.087l-.537-.751-.924.017.549-.743-.3-.873.876.292.737-.556-.007.924.757.529-.881.279Z" transform="translate(-1096.839 -302.471)"/><path class="i" d="M1086.139,334.861l-.374-.522-.642.012.381-.517-.209-.607.609.2.513-.387,0,.642.526.368-.612.194Z" transform="translate(-1083.727 -324.133)"/><path class="i" d="M1091.787,346.328l-.287-1.246-1.189-.47,1.1-.658.08-1.276.964.839,1.238-.319-.5,1.176.685,1.079-1.273-.112Z" transform="translate(-1087.403 -330.962)"/></g><path d="M1197.1,367.129c-2.057-.286-4.009.577-5.78,1.3a7.425,7.425,0,0,1-2.392.688c-1.077-.667-.831-2.038-.356-2.937a8.22,8.22,0,0,1,1.918-2.25,13.07,13.07,0,0,1,5.662-2.44l-.166-1.516a11.7,11.7,0,0,0-6.467,2.8,9.543,9.543,0,0,0-2.274,2.676c-.928,2.063-.855,4.54,1.611,5.189a7.442,7.442,0,0,0,3.056-.806c1.749-.648,3.931-1.81,5.614-.971Z" transform="translate(-1007.814 -319.147)"/><path class="d" d="M1199.093,515.664l25.176,12.942,33.566-5.785,8.816-19.853-22.065-12.578" transform="translate(-1016.597 -411.555)"/><g transform="translate(182.579 59.042)"><line class="d" y2="4.092" transform="translate(0)"/><line class="d" y2="4.092" transform="translate(0 5.61)"/><line class="d" y2="4.092" transform="translate(0 11.426)"/><line class="d" y2="4.602" transform="translate(0 17.109)"/><line class="d" y2="4.408" transform="translate(0 23.374)"/><line class="d" y2="4.189" transform="translate(0 29.349)"/><line class="d" y2="4.189" transform="translate(0 35.262)"/><line class="d" y2="4.189" transform="translate(0 41.048)"/></g><g transform="translate(250.053 46.075)"><line class="d" y2="4.092"/><line class="d" y2="4.092" transform="translate(0 5.61)"/><line class="d" y2="4.092" transform="translate(0 11.426)"/><line class="d" y2="4.602" transform="translate(0 17.109)"/><line class="d" y2="4.408" transform="translate(0 23.374)"/><line class="d" y2="4.189" transform="translate(0 29.349)"/><line class="d" y2="4.189" transform="translate(0 35.262)"/><line class="d" y2="4.189" transform="translate(0 41.048)"/></g><g transform="translate(228.086 62.924)"><line class="d" y2="4.209" transform="translate(0)"/><line class="d" y2="4.209" transform="translate(0 5.942)"/><line class="d" y2="4.209" transform="translate(0 11.756)"/></g><g transform="translate(245.813 76.615)"><line class="d" y2="4.209"/><line class="d" y2="4.209" transform="translate(0 5.942)"/><line class="d" y2="4.209" transform="translate(0 11.756)"/></g><g transform="translate(193.736 68.678)"><line class="d" y2="4.112" transform="translate(0)"/><line class="d" y2="4.112" transform="translate(0 5.637)"/><line class="d" y2="4.112" transform="translate(0 11.482)"/></g><ellipse class="e" cx="15.151" cy="9.257" rx="15.151" ry="9.257" transform="translate(200.705 87.108)"/><line class="e" x1="20.569" y2="13.594" transform="translate(205.482 89.518)"/><path class="e" d="M1328.531,550.6c-1.791-.835-5.785-.083-9.555,2.324-3.313,2.115-5.452,4.76-5.789,6.685" transform="translate(-1097.441 -453.988)"/><path class="e" d="M1261.576,528.11a20.5,20.5,0,0,0,8.99-1.886c4.7-2.248,7.506-5.525,7.745-8.074" transform="translate(-1060.871 -431.226)"/><line class="e" x2="23.111" y2="11.97" transform="translate(204.47 90.259)"/><g transform="translate(202.669 89.263)"><path class="k" d="M1275.454,527.073c2.5-1.546,7.909-1.1,13.472,1.348,6.8,2.986,10.4,7.482,9.8,10.375" transform="translate(-1273.373 -526.175)"/><path class="k" d="M1291.56,546.22c-2.768,1.385-7.909,1.1-13.472-1.347-6.8-2.986-10.3-7.321-9.709-10.214" transform="translate(-1268.314 -532.186)"/></g><path class="l" d="M1219.568,295.078a64.283,64.283,0,0,0,4.5,12.459,38.328,38.328,0,0,0,7.319,10.637c2.778,2.692,5.9,4.382,9.191,4.382,5.18,0,9.833-2.577,13.573-5.07,1.871-1.246,3.52-2.481,4.856-3.387a8.074,8.074,0,0,1,2.8-1.4,11.3,11.3,0,0,1,3.767,1.066c1.454.619,2.975,1.371,4.287,1.9a.8.8,0,0,0,1.042-.687,9.791,9.791,0,0,0-6.277-9.239,11.616,11.616,0,0,0-9.475.545c1.721-3.685,3.664-7.658,5.353-11.678,2-4.771,3.577-9.346,3.577-12.981,0-15.539-11.659-25.772-22.74-25.772-12.494,0-23.474,9.462-23.5,24.209a.217.217,0,0,1,0,.024v.023a44.54,44.54,0,0,0,.19,6.088l.166,1.516c.228,1.855.529,3.747.948,5.637Z" transform="translate(-1029.855 -245.367)"/><path d="M1286.428,298.989c.658-2.028,1.953-3.9,4.43-4.122,2.026.039,3.383,2.2,4.122,4.1a22.339,22.339,0,0,1,1.185,7.272.8.8,0,0,1-1.185.616,7.935,7.935,0,0,0-4.122-.995,8.03,8.03,0,0,0-4.145.995.8.8,0,0,1-1.161-.616A25.059,25.059,0,0,1,1286.428,298.989Z" transform="translate(-1077.859 -273.012)"/><path d="M1237.292,306.853a.8.8,0,0,1-1.161-.616,25.072,25.072,0,0,1,.876-7.249c.658-2.028,1.953-3.9,4.43-4.122,2.025.039,3.382,2.2,4.122,4.1a22.358,22.358,0,0,1,1.184,7.272.8.8,0,0,1-1.184.616,7.938,7.938,0,0,0-4.122-.995A8.025,8.025,0,0,0,1237.292,306.853Z" transform="translate(-1042.841 -273.012)"/><path d="M1273.676,363.137a11.41,11.41,0,0,0-12.365-.971,13.751,13.751,0,0,0-4.193,3.1c-.983,1.146-1.876,2.8-.189,3.672a7.989,7.989,0,0,0,2.677-.143c2.513-.42,5.076-.854,7.438.735l-.948,1.184c-1.616-1.25-4.158-.742-6.23-.426a8.511,8.511,0,0,1-3.292.142c-3.3-.859-2.049-4.385-.592-6.159a15.1,15.1,0,0,1,4.666-3.458,13.357,13.357,0,0,1,13.952,1.114Z" transform="translate(-1055.845 -318.708)"/></g></g><g transform="translate(-161.315 -47)"><path class="m" d="M88.746-24.565h2.748a16.372,16.372,0,0,1-.163-2.544v-5.476a3.418,3.418,0,0,0-.957-2.809c-.875-.855-2.056-1.2-4.01-1.2a6.1,6.1,0,0,0-3.888,1.038A4.253,4.253,0,0,0,80.868-33.3l2.605.468a2.218,2.218,0,0,1,.814-1.3,3.672,3.672,0,0,1,2.117-.59c1.547,0,2.341.611,2.341,1.791v1.038c-2.911.061-4.417.265-5.74.814a3.611,3.611,0,0,0-2.3,3.3c0,2.137,1.506,3.42,3.99,3.42a7.2,7.2,0,0,0,1.893-.244,4.414,4.414,0,0,0,2.158-1.282Zm0-4.539a2.426,2.426,0,0,1-.733,1.791,4.133,4.133,0,0,1-2.829,1.079c-1.14,0-1.852-.59-1.852-1.547,0-1.588,1.527-2.259,5.415-2.341Zm23.368,4.539a13.913,13.913,0,0,1,.509-1.934l2.259-7.226c.529-1.689.57-1.852.835-2.524h-2.992a12.637,12.637,0,0,1-.448,2.422l-1.14,4.071c-.041.142-.183.794-.244,1.079s-.061.285-.1.448c-.041-.183-.061-.2-.122-.468-.122-.427-.224-.814-.285-1l-1.506-4.621a19.968,19.968,0,0,1-.509-1.934H106.19a14.543,14.543,0,0,1-.509,1.934l-1.466,4.437c-.081.244-.427,1.445-.468,1.649-.163-.794-.285-1.364-.366-1.628l-1.12-3.969a14.087,14.087,0,0,1-.448-2.422H98.8c.285.753.57,1.588.855,2.524L101.9-26.5a16.6,16.6,0,0,1,.529,1.934h2.361a19.6,19.6,0,0,1,.529-1.934l1.567-4.763c.061-.2.305-1.038.407-1.4.224.835.346,1.282.387,1.364l1.567,4.8a16.459,16.459,0,0,1,.509,1.934Zm10.259.387c3.623,0,6-2.483,6-6.249s-2.341-6.168-6.025-6.168c-3.7,0-6.066,2.422-6.066,6.208C116.286-26.58,118.647-24.178,122.373-24.178Zm-.02-10.3c2.158,0,3.4,1.506,3.4,4.132,0,2.483-1.3,4.01-3.42,4.01s-3.42-1.547-3.42-4.051C118.912-32.931,120.215-34.478,122.352-34.478Zm16.182-1.771a10.554,10.554,0,0,0-1.893-.224,3.894,3.894,0,0,0-3.827,2.137v-1.913h-2.768a16.091,16.091,0,0,1,.142,2.646v6.392a22.327,22.327,0,0,1-.142,2.646h2.911a21.4,21.4,0,0,1-.142-2.646v-3.766a3.276,3.276,0,0,1,.835-2.036,2.905,2.905,0,0,1,2.361-1,6.079,6.079,0,0,1,1.812.326Zm1.079-4.519a18.355,18.355,0,0,1,.142,2.646v10.91a19.71,19.71,0,0,1-.142,2.646h2.952a20.966,20.966,0,0,1-.143-2.646V-38.1a18.857,18.857,0,0,1,.143-2.667Zm14.249,16.2h2.707a21.368,21.368,0,0,1-.142-2.748V-38.04a23.737,23.737,0,0,1,.142-2.728H153.7a20.749,20.749,0,0,1,.142,2.748v2.036c0,.346,0,.733.02.875.02.407.02.407.02.651a5.183,5.183,0,0,0-1.038-1.12,4.832,4.832,0,0,0-3.094-.936c-3.359,0-5.5,2.361-5.5,6.086a6.3,6.3,0,0,0,2.117,5.109,5.175,5.175,0,0,0,3.4,1.038,4.346,4.346,0,0,0,4.112-2.015c-.02.265-.02.489-.02.733ZM146.9-30.407c0-2.422,1.262-3.969,3.237-3.969a3.727,3.727,0,0,1,2.646,1.14,4.227,4.227,0,0,1,.977,2.707,4.6,4.6,0,0,1-.794,2.728,3.4,3.4,0,0,1-2.728,1.343C148.2-26.458,146.9-27.985,146.9-30.407Zm19.541-8.977a23.425,23.425,0,0,1,.142,2.5v.631h-.753A9.35,9.35,0,0,1,164-36.371v2.4a10.279,10.279,0,0,1,1.812-.122h.773v6.839c0,2.137.936,2.972,3.277,2.972a6.37,6.37,0,0,0,2.544-.427l-.366-2.158a2.692,2.692,0,0,1-1.486.448c-.977,0-1.343-.366-1.343-1.364v-6.31h.916a11.223,11.223,0,0,1,1.995.122v-2.4a11.7,11.7,0,0,1-2.056.122h-.855v-.631a22.518,22.518,0,0,1,.142-2.5Zm7.084-1.384a19.046,19.046,0,0,1,.143,2.667v10.89a16.73,16.73,0,0,1-.163,2.646h2.931a18.111,18.111,0,0,1-.163-2.646v-4.112c.916-2.036,2.1-3.013,3.623-3.013a1.89,1.89,0,0,1,1.4.59,2.871,2.871,0,0,1,.59,2.015v4.519a21.639,21.639,0,0,1-.142,2.646H184.7a16.086,16.086,0,0,1-.163-2.646v-5.13c0-2.626-1.486-4.112-4.091-4.112a4.752,4.752,0,0,0-4.214,2.158,8.349,8.349,0,0,0,.041-.875v-2.911a19.569,19.569,0,0,1,.142-2.687Zm21.007,16.2h2.748a16.373,16.373,0,0,1-.163-2.544v-5.476a3.418,3.418,0,0,0-.957-2.809c-.875-.855-2.056-1.2-4.01-1.2a6.1,6.1,0,0,0-3.888,1.038,4.254,4.254,0,0,0-1.608,2.259l2.605.468a2.218,2.218,0,0,1,.814-1.3,3.672,3.672,0,0,1,2.117-.59c1.547,0,2.341.611,2.341,1.791v1.038c-2.911.061-4.417.265-5.74.814a3.611,3.611,0,0,0-2.3,3.3c0,2.137,1.506,3.42,3.99,3.42a7.2,7.2,0,0,0,1.893-.244,4.414,4.414,0,0,0,2.158-1.282Zm0-4.539a2.426,2.426,0,0,1-.733,1.791,4.133,4.133,0,0,1-2.829,1.079c-1.14,0-1.852-.59-1.852-1.547,0-1.588,1.527-2.259,5.415-2.341Zm6.127-10.279a23.433,23.433,0,0,1,.142,2.5v.631h-.753a9.35,9.35,0,0,1-1.832-.122v2.4a10.279,10.279,0,0,1,1.812-.122h.773v6.839c0,2.137.936,2.972,3.277,2.972a6.37,6.37,0,0,0,2.544-.427l-.366-2.158a2.692,2.692,0,0,1-1.486.448c-.977,0-1.343-.366-1.343-1.364v-6.31h.916a11.223,11.223,0,0,1,1.995.122v-2.4a11.7,11.7,0,0,1-2.056.122h-.855v-.631a22.51,22.51,0,0,1,.143-2.5Zm13.434-1.384v2.585h2.992v-2.585Zm0,4.519a16.73,16.73,0,0,1,.163,2.646v6.392a18.294,18.294,0,0,1-.163,2.646h2.972a20.457,20.457,0,0,1-.142-2.667v-6.351a18.3,18.3,0,0,1,.142-2.667Zm8.04,11.684a18.114,18.114,0,0,1-.163-2.646v-4.112c.9-2.015,2.1-3.033,3.562-3.033a1.915,1.915,0,0,1,1.71.835,3.344,3.344,0,0,1,.346,1.791v4.519a21.629,21.629,0,0,1-.143,2.646H230.4a16.088,16.088,0,0,1-.163-2.646V-32.1a4.526,4.526,0,0,0-.692-2.85,4.022,4.022,0,0,0-3.46-1.506A4.653,4.653,0,0,0,221.93-34.3a7.947,7.947,0,0,0,.041-.875v-1.079H219.2a16.732,16.732,0,0,1,.163,2.646v6.392a16.9,16.9,0,0,1-.163,2.646Zm9.852-3.318a4.578,4.578,0,0,0,.794,1.812c.875,1.181,2.443,1.812,4.539,1.812a6.009,6.009,0,0,0,4.214-1.323,3.273,3.273,0,0,0,1-2.3,2.893,2.893,0,0,0-1.181-2.524c-.672-.509-1.506-.794-3.583-1.242a8.574,8.574,0,0,1-2.036-.611,1.1,1.1,0,0,1-.631-.957c0-.855.855-1.425,2.117-1.425,1.323,0,2.015.489,2.239,1.608l2.687-.346a3.962,3.962,0,0,0-1.1-2.015,5.554,5.554,0,0,0-3.827-1.181,4.909,4.909,0,0,0-4.071,1.588,3.029,3.029,0,0,0-.631,1.893,2.915,2.915,0,0,0,1.791,2.707,12.3,12.3,0,0,0,2.931.875c1.628.366,1.751.387,2.137.651a1.244,1.244,0,0,1,.529,1.018c0,.957-.936,1.547-2.443,1.547-1.588,0-2.341-.55-2.687-1.934Zm14.88-8.366h-2.707a21.031,21.031,0,0,1,.142,2.728v10.239a22.788,22.788,0,0,1-.142,2.687h2.87a20.293,20.293,0,0,1-.142-2.707V-24.85c0-.366,0-.733-.02-.875-.02-.407-.02-.407-.02-.651a4.76,4.76,0,0,0,4.112,1.954c3.46,0,5.516-2.259,5.516-6a6.346,6.346,0,0,0-1.608-4.682A5.259,5.259,0,0,0,251-36.534a4.74,4.74,0,0,0-4.152,1.995c.02-.265.02-.489.02-.712Zm6.962,5.781c0,2.4-1.242,3.908-3.236,3.908a3.644,3.644,0,0,1-3.623-3.949,3.634,3.634,0,0,1,3.542-3.847C252.565-34.356,253.827-32.87,253.827-30.468Zm4.336-10.3v2.585h2.992v-2.585Zm0,4.519a16.73,16.73,0,0,1,.163,2.646v6.392a18.294,18.294,0,0,1-.163,2.646h2.972a20.459,20.459,0,0,1-.142-2.667v-6.351a18.306,18.306,0,0,1,.142-2.667Zm13.638,0a10.555,10.555,0,0,0-1.893-.224,3.894,3.894,0,0,0-3.827,2.137v-1.913h-2.768a16.089,16.089,0,0,1,.142,2.646v6.392a22.327,22.327,0,0,1-.142,2.646h2.911a21.414,21.414,0,0,1-.142-2.646v-3.766a3.276,3.276,0,0,1,.835-2.036,2.905,2.905,0,0,1,2.361-1,6.079,6.079,0,0,1,1.812.326Zm12.03,6.514c-.041-.468-.041-.529-.041-.57a8.367,8.367,0,0,0-.59-3.094,5.171,5.171,0,0,0-5.068-3.216c-3.481,0-5.74,2.463-5.74,6.229,0,3.806,2.28,6.208,5.883,6.208a5.781,5.781,0,0,0,4.193-1.567,5.721,5.721,0,0,0,1.242-1.873l-2.4-.773a2.958,2.958,0,0,1-.59,1.058,3.218,3.218,0,0,1-2.443,1.018,3.2,3.2,0,0,1-2.544-1.14,3.783,3.783,0,0,1-.753-2.28Zm-8.794-2.015a3.057,3.057,0,0,1,3.053-2.768,2.9,2.9,0,0,1,2.2.814,3.2,3.2,0,0,1,.9,1.954Zm9.893,3.868a4.578,4.578,0,0,0,.794,1.812c.875,1.181,2.443,1.812,4.539,1.812a6.009,6.009,0,0,0,4.214-1.323,3.273,3.273,0,0,0,1-2.3,2.893,2.893,0,0,0-1.181-2.524c-.672-.509-1.506-.794-3.583-1.242a8.574,8.574,0,0,1-2.036-.611,1.1,1.1,0,0,1-.631-.957c0-.855.855-1.425,2.117-1.425,1.323,0,2.015.489,2.239,1.608l2.687-.346a3.962,3.962,0,0,0-1.1-2.015,5.554,5.554,0,0,0-3.827-1.181,4.909,4.909,0,0,0-4.071,1.588,3.029,3.029,0,0,0-.631,1.893,2.915,2.915,0,0,0,1.791,2.707,12.3,12.3,0,0,0,2.931.875c1.628.366,1.751.387,2.137.651a1.245,1.245,0,0,1,.529,1.018c0,.957-.936,1.547-2.443,1.547-1.588,0-2.341-.55-2.687-1.934ZM3.274-1.623a19.048,19.048,0,0,1,.142,2.667v10.89a16.73,16.73,0,0,1-.163,2.646H6.184a18.111,18.111,0,0,1-.163-2.646V7.822c.916-2.036,2.1-3.013,3.623-3.013a1.89,1.89,0,0,1,1.4.59,2.871,2.871,0,0,1,.59,2.015v4.519A21.632,21.632,0,0,1,11.5,14.58h2.952a16.086,16.086,0,0,1-.163-2.646V6.8c0-2.626-1.486-4.112-4.091-4.112A4.752,4.752,0,0,0,5.981,4.85a8.348,8.348,0,0,0,.041-.875V1.064a19.563,19.563,0,0,1,.142-2.687ZM24.769,2.9a21.475,21.475,0,0,1,.163,2.646V9.654c-.916,2.015-2.076,3.013-3.542,3.013a2.533,2.533,0,0,1-1.12-.285,2.485,2.485,0,0,1-.936-2.321V5.542A18.219,18.219,0,0,1,19.476,2.9H16.525a18.709,18.709,0,0,1,.163,2.646v5.15a3.8,3.8,0,0,0,1.649,3.521,4.434,4.434,0,0,0,2.443.59,4.474,4.474,0,0,0,4.173-2.178c-.02.509-.02.57-.02.875V14.58H27.7a16.73,16.73,0,0,1-.163-2.646V5.542A14.738,14.738,0,0,1,27.7,2.9ZM32.707,14.58a21.185,21.185,0,0,1-.142-2.646V7.9a4.6,4.6,0,0,1,.875-2.036,2.521,2.521,0,0,1,2.1-1.058c1.323,0,1.974.855,1.974,2.565v4.56a16.566,16.566,0,0,1-.163,2.646h2.931a19.914,19.914,0,0,1-.142-2.646V7.9a3.851,3.851,0,0,1,1.282-2.524,2.354,2.354,0,0,1,1.669-.611c1.364,0,1.995.814,1.995,2.605v4.56a16.085,16.085,0,0,1-.163,2.646h2.972a16.566,16.566,0,0,1-.163-2.646V6.906a4.215,4.215,0,0,0-.957-3.094,4.017,4.017,0,0,0-3.053-1.16,4.5,4.5,0,0,0-2.28.529,4.71,4.71,0,0,0-1.71,1.608,2.638,2.638,0,0,0-.774-1.221,3.651,3.651,0,0,0-2.626-.916,4.1,4.1,0,0,0-3.786,2.036c.02-.326.02-.631.02-.753V2.9H29.837a17.805,17.805,0,0,1,.142,2.646v6.392a20.537,20.537,0,0,1-.142,2.646Zm25.017,0h2.748a16.372,16.372,0,0,1-.163-2.544V6.56a3.418,3.418,0,0,0-.957-2.809c-.875-.855-2.056-1.2-4.01-1.2a6.1,6.1,0,0,0-3.888,1.038,4.253,4.253,0,0,0-1.608,2.259l2.605.468a2.218,2.218,0,0,1,.814-1.3,3.672,3.672,0,0,1,2.117-.59c1.547,0,2.341.611,2.341,1.791V7.252c-2.911.061-4.417.265-5.74.814a3.611,3.611,0,0,0-2.3,3.3c0,2.137,1.506,3.42,3.99,3.42a7.2,7.2,0,0,0,1.893-.244,4.414,4.414,0,0,0,2.158-1.282Zm0-4.539a2.426,2.426,0,0,1-.733,1.791,4.133,4.133,0,0,1-2.829,1.079c-1.14,0-1.852-.59-1.852-1.547,0-1.588,1.527-2.259,5.415-2.341Zm7.694,4.539a18.11,18.11,0,0,1-.163-2.646V7.822c.9-2.015,2.1-3.033,3.562-3.033a1.915,1.915,0,0,1,1.71.835,3.344,3.344,0,0,1,.346,1.791v4.519a21.632,21.632,0,0,1-.142,2.646h2.952a16.085,16.085,0,0,1-.163-2.646V7.048a4.526,4.526,0,0,0-.692-2.85,4.021,4.021,0,0,0-3.46-1.506A4.653,4.653,0,0,0,65.215,4.85a7.953,7.953,0,0,0,.041-.875V2.9H62.487a16.731,16.731,0,0,1,.163,2.646v6.392a16.9,16.9,0,0,1-.163,2.646Zm9.852-3.318a4.579,4.579,0,0,0,.794,1.812c.875,1.181,2.443,1.812,4.539,1.812a6.009,6.009,0,0,0,4.214-1.323,3.273,3.273,0,0,0,1-2.3,2.893,2.893,0,0,0-1.181-2.524c-.672-.509-1.506-.794-3.583-1.242a8.574,8.574,0,0,1-2.036-.611,1.1,1.1,0,0,1-.631-.957c0-.855.855-1.425,2.117-1.425,1.323,0,2.015.489,2.239,1.608l2.687-.346a3.962,3.962,0,0,0-1.1-2.015A5.554,5.554,0,0,0,80.5,2.57a4.909,4.909,0,0,0-4.071,1.588A3.029,3.029,0,0,0,75.8,6.051a2.915,2.915,0,0,0,1.791,2.707,12.305,12.305,0,0,0,2.931.875c1.628.366,1.751.387,2.137.651a1.244,1.244,0,0,1,.529,1.018c0,.957-.936,1.547-2.443,1.547-1.588,0-2.341-.55-2.687-1.934ZM95.178-.239a23.431,23.431,0,0,1,.142,2.5V2.9h-.753a9.349,9.349,0,0,1-1.832-.122v2.4a10.279,10.279,0,0,1,1.812-.122h.774v6.839c0,2.137.936,2.972,3.277,2.972a6.37,6.37,0,0,0,2.544-.427l-.366-2.158a2.692,2.692,0,0,1-1.486.448c-.977,0-1.343-.366-1.343-1.364V5.053h.916a11.223,11.223,0,0,1,1.995.122v-2.4A11.7,11.7,0,0,1,98.8,2.9h-.855V2.265a22.514,22.514,0,0,1,.142-2.5Zm12.661,15.205c3.623,0,6-2.483,6-6.249S111.5,2.55,107.818,2.55c-3.7,0-6.066,2.422-6.066,6.208C101.753,12.564,104.114,14.966,107.839,14.966Zm-.02-10.3c2.158,0,3.4,1.506,3.4,4.132,0,2.483-1.3,4.01-3.42,4.01s-3.42-1.547-3.42-4.051C104.378,6.214,105.681,4.667,107.818,4.667Zm18.259,1.547a6.776,6.776,0,0,0-.712-1.486,5.265,5.265,0,0,0-4.56-2.2,5.574,5.574,0,0,0-4.091,1.547,6.582,6.582,0,0,0-1.73,4.7c0,3.766,2.321,6.188,5.9,6.188a5.29,5.29,0,0,0,4.478-2.056,5.7,5.7,0,0,0,.855-1.73l-2.524-.509a2.844,2.844,0,0,1-.407,1.018,2.725,2.725,0,0,1-2.341,1.14c-2.056,0-3.318-1.567-3.318-4.112,0-2.524,1.242-4.091,3.237-4.091a2.561,2.561,0,0,1,2.1.936,3.668,3.668,0,0,1,.631,1.242Zm7.308,8.753c3.623,0,6-2.483,6-6.249s-2.341-6.168-6.025-6.168c-3.7,0-6.066,2.422-6.066,6.208C127.3,12.564,129.66,14.966,133.385,14.966Zm-.02-10.3c2.158,0,3.4,1.506,3.4,4.132,0,2.483-1.3,4.01-3.42,4.01s-3.42-1.547-3.42-4.051C129.924,6.214,131.227,4.667,133.364,4.667Zm10.585,9.913a18.111,18.111,0,0,1-.163-2.646V7.822c.9-2.015,2.1-3.033,3.562-3.033a1.915,1.915,0,0,1,1.71.835,3.344,3.344,0,0,1,.346,1.791v4.519a21.629,21.629,0,0,1-.143,2.646h2.952a16.084,16.084,0,0,1-.163-2.646V7.048a4.526,4.526,0,0,0-.692-2.85,4.022,4.022,0,0,0-3.46-1.506,4.653,4.653,0,0,0-4.152,2.158,7.953,7.953,0,0,0,.041-.875V2.9h-2.768a16.728,16.728,0,0,1,.163,2.646v6.392a16.894,16.894,0,0,1-.163,2.646Zm13.292,0a18.111,18.111,0,0,1-.163-2.646V7.822c.9-2.015,2.1-3.033,3.562-3.033a1.915,1.915,0,0,1,1.71.835,3.344,3.344,0,0,1,.346,1.791v4.519a21.636,21.636,0,0,1-.142,2.646h2.951a16.086,16.086,0,0,1-.163-2.646V7.048a4.526,4.526,0,0,0-.692-2.85,4.022,4.022,0,0,0-3.46-1.506,4.653,4.653,0,0,0-4.152,2.158,7.953,7.953,0,0,0,.041-.875V2.9H154.31a16.73,16.73,0,0,1,.163,2.646v6.392a16.9,16.9,0,0,1-.163,2.646Zm21.312-5.17c-.041-.468-.041-.529-.041-.57a8.368,8.368,0,0,0-.59-3.094,5.171,5.171,0,0,0-5.068-3.216c-3.481,0-5.74,2.463-5.74,6.229,0,3.806,2.28,6.208,5.883,6.208a5.781,5.781,0,0,0,4.193-1.567,5.72,5.72,0,0,0,1.242-1.873l-2.4-.773a2.958,2.958,0,0,1-.59,1.058,3.424,3.424,0,0,1-4.987-.122,3.783,3.783,0,0,1-.753-2.28ZM169.76,7.394a3.057,3.057,0,0,1,3.053-2.768,2.9,2.9,0,0,1,2.2.814,3.2,3.2,0,0,1,.9,1.954Zm21.007-1.181a6.776,6.776,0,0,0-.712-1.486,5.265,5.265,0,0,0-4.56-2.2A5.574,5.574,0,0,0,181.4,4.076a6.582,6.582,0,0,0-1.73,4.7c0,3.766,2.32,6.188,5.9,6.188a5.29,5.29,0,0,0,4.478-2.056,5.7,5.7,0,0,0,.855-1.73l-2.524-.509a2.845,2.845,0,0,1-.407,1.018,2.725,2.725,0,0,1-2.341,1.14c-2.056,0-3.318-1.567-3.318-4.112,0-2.524,1.242-4.091,3.236-4.091a2.561,2.561,0,0,1,2.1.936,3.667,3.667,0,0,1,.631,1.242ZM193.84-.239a23.429,23.429,0,0,1,.142,2.5V2.9h-.753a9.35,9.35,0,0,1-1.832-.122v2.4a10.279,10.279,0,0,1,1.812-.122h.774v6.839c0,2.137.936,2.972,3.277,2.972a6.37,6.37,0,0,0,2.544-.427l-.366-2.158a2.692,2.692,0,0,1-1.486.448c-.977,0-1.343-.366-1.343-1.364V5.053h.916a11.223,11.223,0,0,1,1.995.122v-2.4a11.694,11.694,0,0,1-2.056.122h-.855V2.265a22.514,22.514,0,0,1,.142-2.5ZM219.508,14.58a13.913,13.913,0,0,1,.509-1.934l2.259-7.226c.529-1.689.57-1.852.835-2.524h-2.992a12.634,12.634,0,0,1-.448,2.422l-1.14,4.071c-.041.142-.183.794-.244,1.079s-.061.285-.1.448c-.041-.183-.061-.2-.122-.468-.122-.427-.224-.814-.285-1l-1.506-4.621a19.967,19.967,0,0,1-.509-1.934h-2.178a14.542,14.542,0,0,1-.509,1.934L211.61,9.267c-.081.244-.427,1.445-.468,1.649-.163-.794-.285-1.364-.366-1.628l-1.12-3.969a14.089,14.089,0,0,1-.448-2.422H206.2c.285.753.57,1.588.855,2.524l2.239,7.226a16.606,16.606,0,0,1,.529,1.934h2.361a19.594,19.594,0,0,1,.529-1.934l1.567-4.763c.061-.2.305-1.038.407-1.4.224.835.346,1.282.387,1.364l1.567,4.8a16.453,16.453,0,0,1,.509,1.934Zm4.661-16.2V.962h2.992V-1.623Zm0,4.519a16.732,16.732,0,0,1,.163,2.646v6.392a18.3,18.3,0,0,1-.163,2.646h2.972A20.454,20.454,0,0,1,227,11.913V5.562a18.3,18.3,0,0,1,.142-2.667Zm6.473-3.135a23.425,23.425,0,0,1,.142,2.5V2.9h-.753a9.349,9.349,0,0,1-1.832-.122v2.4a10.279,10.279,0,0,1,1.812-.122h.773v6.839c0,2.137.936,2.972,3.277,2.972a6.37,6.37,0,0,0,2.544-.427l-.366-2.158a2.692,2.692,0,0,1-1.486.448c-.977,0-1.343-.366-1.343-1.364V5.053h.916a11.223,11.223,0,0,1,1.995.122v-2.4a11.7,11.7,0,0,1-2.056.122h-.855V2.265a22.518,22.518,0,0,1,.142-2.5Zm7.084-1.384a19.048,19.048,0,0,1,.142,2.667v10.89a16.73,16.73,0,0,1-.163,2.646h2.931a18.109,18.109,0,0,1-.163-2.646V7.822c.916-2.036,2.1-3.013,3.623-3.013a1.89,1.89,0,0,1,1.4.59,2.871,2.871,0,0,1,.59,2.015v4.519a21.635,21.635,0,0,1-.143,2.646H248.9a16.09,16.09,0,0,1-.163-2.646V6.8c0-2.626-1.486-4.112-4.091-4.112a4.752,4.752,0,0,0-4.214,2.158,8.349,8.349,0,0,0,.041-.875V1.064a19.561,19.561,0,0,1,.142-2.687ZM14.524,45.666c-.041-.468-.041-.529-.041-.57A8.368,8.368,0,0,0,13.893,42a5.171,5.171,0,0,0-5.068-3.216c-3.481,0-5.74,2.463-5.74,6.229,0,3.806,2.28,6.208,5.883,6.208a5.781,5.781,0,0,0,4.193-1.567A5.721,5.721,0,0,0,14.4,47.783L12,47.009a2.958,2.958,0,0,1-.59,1.058,3.218,3.218,0,0,1-2.443,1.018,3.2,3.2,0,0,1-2.544-1.14,3.783,3.783,0,0,1-.753-2.28ZM5.73,43.651a3.057,3.057,0,0,1,3.053-2.768,2.9,2.9,0,0,1,2.2.814,3.2,3.2,0,0,1,.9,1.954Zm18.137,7.185h2.748a16.369,16.369,0,0,1-.163-2.544V42.816a3.418,3.418,0,0,0-.957-2.809c-.875-.855-2.056-1.2-4.01-1.2A6.094,6.094,0,0,0,17.6,39.844,4.253,4.253,0,0,0,15.989,42.1l2.606.468a2.218,2.218,0,0,1,.814-1.3,3.672,3.672,0,0,1,2.117-.59c1.547,0,2.341.611,2.341,1.791v1.038c-2.911.061-4.417.265-5.74.814a3.611,3.611,0,0,0-2.3,3.3c0,2.137,1.506,3.42,3.99,3.42a7.2,7.2,0,0,0,1.893-.244,4.414,4.414,0,0,0,2.158-1.282Zm0-4.539a2.426,2.426,0,0,1-.733,1.791A4.133,4.133,0,0,1,20.3,49.167c-1.14,0-1.852-.59-1.852-1.547,0-1.588,1.527-2.259,5.415-2.341ZM39.235,42.47a6.774,6.774,0,0,0-.712-1.486,5.265,5.265,0,0,0-4.56-2.2,5.574,5.574,0,0,0-4.091,1.547,6.582,6.582,0,0,0-1.73,4.7c0,3.766,2.32,6.188,5.9,6.188a5.29,5.29,0,0,0,4.478-2.056,5.7,5.7,0,0,0,.855-1.73l-2.524-.509a2.846,2.846,0,0,1-.407,1.018,2.725,2.725,0,0,1-2.341,1.14c-2.056,0-3.318-1.567-3.318-4.112,0-2.524,1.242-4.091,3.236-4.091a2.561,2.561,0,0,1,2.1.936,3.667,3.667,0,0,1,.631,1.242Zm1.73-7.837a19.045,19.045,0,0,1,.142,2.667V48.19a16.725,16.725,0,0,1-.163,2.646h2.931a18.113,18.113,0,0,1-.163-2.646V44.078c.916-2.036,2.1-3.013,3.623-3.013a1.89,1.89,0,0,1,1.4.59,2.871,2.871,0,0,1,.59,2.015V48.19a21.632,21.632,0,0,1-.143,2.646H52.14a16.09,16.09,0,0,1-.163-2.646V43.06c0-2.626-1.486-4.112-4.091-4.112a4.752,4.752,0,0,0-4.214,2.158,8.347,8.347,0,0,0,.041-.875V37.32a19.566,19.566,0,0,1,.142-2.687Zm25.241,16.59c3.623,0,6-2.483,6-6.249s-2.341-6.168-6.025-6.168c-3.7,0-6.066,2.422-6.066,6.208C60.12,48.821,62.481,51.223,66.206,51.223Zm-.02-10.3c2.158,0,3.4,1.506,3.4,4.132,0,2.483-1.3,4.01-3.42,4.01s-3.42-1.547-3.42-4.051C62.746,42.47,64.048,40.923,66.186,40.923ZM75.2,36.018a23.435,23.435,0,0,1,.143,2.5v.631h-.753a9.349,9.349,0,0,1-1.832-.122v2.4a10.279,10.279,0,0,1,1.812-.122h.774v6.839c0,2.137.936,2.972,3.277,2.972a6.37,6.37,0,0,0,2.544-.427L80.8,48.536a2.692,2.692,0,0,1-1.486.448c-.977,0-1.343-.366-1.343-1.364V41.31h.916a11.223,11.223,0,0,1,1.995.122v-2.4a11.7,11.7,0,0,1-2.056.122h-.855v-.631a22.51,22.51,0,0,1,.143-2.5Zm7.084-1.384a19.046,19.046,0,0,1,.142,2.667V48.19a16.728,16.728,0,0,1-.163,2.646H85.2a18.113,18.113,0,0,1-.163-2.646V44.078c.916-2.036,2.1-3.013,3.623-3.013a1.89,1.89,0,0,1,1.4.59,2.871,2.871,0,0,1,.59,2.015V48.19a21.629,21.629,0,0,1-.143,2.646h2.952A16.088,16.088,0,0,1,93.3,48.19V43.06c0-2.626-1.486-4.112-4.091-4.112a4.752,4.752,0,0,0-4.214,2.158,8.353,8.353,0,0,0,.041-.875V37.32a19.565,19.565,0,0,1,.143-2.687ZM106.51,45.666c-.041-.468-.041-.529-.041-.57a8.367,8.367,0,0,0-.59-3.094,5.171,5.171,0,0,0-5.068-3.216c-3.481,0-5.74,2.463-5.74,6.229,0,3.806,2.28,6.208,5.883,6.208a5.781,5.781,0,0,0,4.193-1.567,5.72,5.72,0,0,0,1.242-1.873l-2.4-.773a2.959,2.959,0,0,1-.59,1.058,3.424,3.424,0,0,1-4.987-.122,3.783,3.783,0,0,1-.753-2.28Zm-8.794-2.015a3.057,3.057,0,0,1,3.053-2.768,2.9,2.9,0,0,1,2.2.814,3.194,3.194,0,0,1,.9,1.954Zm18.93-4.5a10.555,10.555,0,0,0-1.893-.224,3.894,3.894,0,0,0-3.827,2.137V39.152h-2.768A16.09,16.09,0,0,1,108.3,41.8V48.19a22.332,22.332,0,0,1-.143,2.646h2.911a21.41,21.41,0,0,1-.142-2.646V44.424a3.276,3.276,0,0,1,.835-2.036,2.905,2.905,0,0,1,2.361-1,6.079,6.079,0,0,1,1.812.326Z" transform="translate(178.067 377.629)"/><path d="M1.92,1.795a1.67,1.67,0,0,1-1.3-.533A1.977,1.977,0,0,1,.138-.125a2.1,2.1,0,0,1,.5-1.464,1.732,1.732,0,0,1,1.35-.546,1.632,1.632,0,0,1,1.269.53A1.985,1.985,0,0,1,3.734-.218a2.1,2.1,0,0,1-.493,1.472A1.7,1.7,0,0,1,1.92,1.795Zm.032-3.528A1.226,1.226,0,0,0,.978-1.3,1.674,1.674,0,0,0,.6-.165,1.685,1.685,0,0,0,.969.966a1.189,1.189,0,0,0,.951.428A1.249,1.249,0,0,0,2.907.986,1.669,1.669,0,0,0,3.267-.157a1.744,1.744,0,0,0-.35-1.164A1.2,1.2,0,0,0,1.952-1.733Zm14,1.926q0,1.6-1.446,1.6-1.385,0-1.385-1.541V-2.072h.446v2.3q0,1.17.987,1.17.952,0,.952-1.13V-2.072h.446ZM28.323,1.731h-.53L27.156.665a2.322,2.322,0,0,0-.17-.253.968.968,0,0,0-.168-.171.583.583,0,0,0-.186-.1.763.763,0,0,0-.224-.031h-.366V1.731H25.6v-3.8h1.135a1.618,1.618,0,0,1,.46.062,1.03,1.03,0,0,1,.366.19A.881.881,0,0,1,27.8-1.5a1.051,1.051,0,0,1,.088.444,1.07,1.07,0,0,1-.06.365.952.952,0,0,1-.17.3,1.029,1.029,0,0,1-.265.221,1.354,1.354,0,0,1-.349.142v.011a.8.8,0,0,1,.166.1A.912.912,0,0,1,27.344.2a1.7,1.7,0,0,1,.126.168q.062.094.139.219Zm-2.281-3.4V-.29h.6a.917.917,0,0,0,.309-.05A.715.715,0,0,0,27.2-.485a.656.656,0,0,0,.162-.231.773.773,0,0,0,.058-.306.6.6,0,0,0-.2-.476.849.849,0,0,0-.572-.171Zm25.551,3.4H51.15V-.82q0-.3.037-.74h-.011a2.366,2.366,0,0,1-.114.369l-1.3,2.923h-.217l-1.3-2.9a2.273,2.273,0,0,1-.114-.39h-.011q.021.228.021.745V1.731h-.43v-3.8H48.3L49.471.58a3.4,3.4,0,0,1,.175.456h.016q.114-.313.183-.467l1.191-2.642h.557Zm10.137,0h-.446v-3.8h.446Zm9.513-.154V1.052a1.02,1.02,0,0,0,.216.143,1.751,1.751,0,0,0,.265.107,2.112,2.112,0,0,0,.28.068,1.56,1.56,0,0,0,.26.024,1.018,1.018,0,0,0,.614-.153.516.516,0,0,0,.2-.439.515.515,0,0,0-.068-.268.762.762,0,0,0-.187-.208,1.856,1.856,0,0,0-.282-.18q-.163-.086-.351-.182t-.371-.2a1.609,1.609,0,0,1-.3-.228.952.952,0,0,1-.2-.282.874.874,0,0,1-.073-.37.87.87,0,0,1,.114-.452.978.978,0,0,1,.3-.317,1.359,1.359,0,0,1,.423-.186,1.937,1.937,0,0,1,.484-.061,1.855,1.855,0,0,1,.82.135v.5a1.486,1.486,0,0,0-.865-.233,1.422,1.422,0,0,0-.292.031.824.824,0,0,0-.26.1.576.576,0,0,0-.186.178.472.472,0,0,0-.072.265.546.546,0,0,0,.054.252.618.618,0,0,0,.16.194,1.6,1.6,0,0,0,.259.17q.153.082.351.18t.387.212a1.77,1.77,0,0,1,.321.247,1.1,1.1,0,0,1,.219.3.843.843,0,0,1,.081.377.955.955,0,0,1-.11.476.9.9,0,0,1-.3.317,1.3,1.3,0,0,1-.431.176,2.36,2.36,0,0,1-.515.054,2.1,2.1,0,0,1-.223-.015q-.133-.015-.271-.042a2.208,2.208,0,0,1-.261-.069A.813.813,0,0,1,71.243,1.577Zm11.577,0V1.052a1.02,1.02,0,0,0,.216.143A1.752,1.752,0,0,0,83.3,1.3a2.111,2.111,0,0,0,.28.068,1.56,1.56,0,0,0,.26.024,1.018,1.018,0,0,0,.614-.153.516.516,0,0,0,.2-.439A.515.515,0,0,0,84.59.535.762.762,0,0,0,84.4.327a1.855,1.855,0,0,0-.282-.18q-.163-.086-.351-.182t-.371-.2a1.609,1.609,0,0,1-.3-.228.951.951,0,0,1-.2-.282.874.874,0,0,1-.073-.37.87.87,0,0,1,.114-.452.978.978,0,0,1,.3-.317,1.359,1.359,0,0,1,.423-.186,1.937,1.937,0,0,1,.484-.061,1.855,1.855,0,0,1,.82.135v.5a1.486,1.486,0,0,0-.865-.233,1.422,1.422,0,0,0-.292.031.824.824,0,0,0-.26.1.576.576,0,0,0-.186.178.472.472,0,0,0-.072.265.546.546,0,0,0,.054.252.618.618,0,0,0,.16.194,1.6,1.6,0,0,0,.259.17q.153.082.351.18t.387.212a1.77,1.77,0,0,1,.321.247,1.1,1.1,0,0,1,.219.3.843.843,0,0,1,.081.377.955.955,0,0,1-.11.476.9.9,0,0,1-.3.317,1.3,1.3,0,0,1-.431.176,2.36,2.36,0,0,1-.515.054,2.1,2.1,0,0,1-.223-.015q-.133-.015-.271-.042a2.208,2.208,0,0,1-.261-.069A.813.813,0,0,1,82.82,1.577Zm12.2.154h-.446v-3.8h.446Zm11.224.064a1.67,1.67,0,0,1-1.3-.533,1.977,1.977,0,0,1-.487-1.387,2.1,2.1,0,0,1,.5-1.464,1.732,1.732,0,0,1,1.35-.546,1.632,1.632,0,0,1,1.269.53,1.985,1.985,0,0,1,.481,1.387,2.1,2.1,0,0,1-.493,1.472A1.7,1.7,0,0,1,106.244,1.795Zm.032-3.528a1.226,1.226,0,0,0-.973.432,1.674,1.674,0,0,0-.374,1.135,1.685,1.685,0,0,0,.365,1.131,1.189,1.189,0,0,0,.951.428,1.249,1.249,0,0,0,.987-.408,1.669,1.669,0,0,0,.361-1.143,1.744,1.744,0,0,0-.35-1.164A1.2,1.2,0,0,0,106.276-1.733Zm14.287,3.464h-.546L118.059-1.3a1.267,1.267,0,0,1-.122-.239h-.016a3.915,3.915,0,0,1,.021.523V1.731H117.5v-3.8h.578l1.9,2.984q.119.186.154.255h.011a4.025,4.025,0,0,1-.027-.56V-2.072h.446Z" transform="translate(180 316)"/><path class="i" d="M14.331-30.013a4.351,4.351,0,0,1-.7,1.96,4.067,4.067,0,0,1-3.45,1.576c-2.982,0-4.856-2.428-4.856-6.326,0-3.919,1.832-6.283,4.856-6.283a3.857,3.857,0,0,1,3.11,1.321,4.438,4.438,0,0,1,.916,1.832l2.961-.682a7.575,7.575,0,0,0-.66-1.64,6.539,6.539,0,0,0-2.258-2.322A7.526,7.526,0,0,0,10.157-41.6a7.4,7.4,0,0,0-5.325,2.023A9.644,9.644,0,0,0,2.34-32.7a9.618,9.618,0,0,0,2.322,6.688,7.326,7.326,0,0,0,5.474,2.045,7.252,7.252,0,0,0,5.815-2.322,8.138,8.138,0,0,0,1.427-3.195Zm13.759-6.517a11.043,11.043,0,0,0-1.981-.234,4.074,4.074,0,0,0-4,2.236v-2h-2.9a16.839,16.839,0,0,1,.149,2.769v6.688a23.362,23.362,0,0,1-.149,2.769h3.046a22.4,22.4,0,0,1-.149-2.769v-3.94a3.428,3.428,0,0,1,.873-2.13,3.04,3.04,0,0,1,2.471-1.044,6.36,6.36,0,0,1,1.9.341Zm12.588,6.816c-.043-.49-.043-.554-.043-.6a8.756,8.756,0,0,0-.618-3.237,5.411,5.411,0,0,0-5.3-3.365c-3.642,0-6.006,2.577-6.006,6.518,0,3.983,2.385,6.5,6.155,6.5a6.049,6.049,0,0,0,4.388-1.64,5.986,5.986,0,0,0,1.3-1.96l-2.513-.809A3.1,3.1,0,0,1,37.42-27.2a3.368,3.368,0,0,1-2.556,1.065A3.348,3.348,0,0,1,32.2-27.33a3.959,3.959,0,0,1-.788-2.385Zm-9.2-2.109a3.2,3.2,0,0,1,3.195-2.9,3.037,3.037,0,0,1,2.3.852,3.343,3.343,0,0,1,.937,2.045Zm18.977,7.519H53.33a17.13,17.13,0,0,1-.17-2.662V-32.7a3.577,3.577,0,0,0-1-2.939c-.916-.895-2.151-1.257-4.2-1.257a6.377,6.377,0,0,0-4.068,1.086,4.451,4.451,0,0,0-1.683,2.364l2.726.49a2.321,2.321,0,0,1,.852-1.363,3.843,3.843,0,0,1,2.215-.618c1.619,0,2.449.639,2.449,1.874v1.086c-3.046.064-4.622.277-6.006.852a3.778,3.778,0,0,0-2.407,3.45c0,2.236,1.576,3.578,4.175,3.578a7.536,7.536,0,0,0,1.981-.256,4.619,4.619,0,0,0,2.258-1.342Zm0-4.75a2.538,2.538,0,0,1-.767,1.874,4.325,4.325,0,0,1-2.961,1.129c-1.193,0-1.938-.618-1.938-1.619,0-1.661,1.6-2.364,5.666-2.449Zm6.411-10.756a24.514,24.514,0,0,1,.149,2.62v.66h-.788a9.782,9.782,0,0,1-1.917-.128v2.513a10.755,10.755,0,0,1,1.9-.128h.809v7.156c0,2.236.98,3.11,3.429,3.11a6.665,6.665,0,0,0,2.662-.447l-.383-2.258a2.817,2.817,0,0,1-1.555.469c-1.022,0-1.406-.383-1.406-1.427v-6.6h.958a11.743,11.743,0,0,1,2.087.128v-2.513a12.236,12.236,0,0,1-2.151.128h-.895v-.66a23.559,23.559,0,0,1,.149-2.62Zm18.85,10.1c-.043-.49-.043-.554-.043-.6a8.756,8.756,0,0,0-.618-3.237,5.411,5.411,0,0,0-5.3-3.365c-3.642,0-6.006,2.577-6.006,6.518,0,3.983,2.385,6.5,6.155,6.5a6.049,6.049,0,0,0,4.388-1.64,5.986,5.986,0,0,0,1.3-1.96l-2.513-.809a3.1,3.1,0,0,1-.618,1.108A3.368,3.368,0,0,1,69.9-26.137a3.348,3.348,0,0,1-2.662-1.193,3.959,3.959,0,0,1-.788-2.385Zm-9.2-2.109a3.2,3.2,0,0,1,3.195-2.9,3.038,3.038,0,0,1,2.3.852,3.343,3.343,0,0,1,.937,2.045Z" transform="translate(178.618 378.121)"/></g></g></svg>