<svg xmlns="http://www.w3.org/2000/svg" xmlns:xlink="http://www.w3.org/1999/xlink" width="690" height="333.626" viewBox="0 0 690 333.626">
  <defs>
    <clipPath id="clip-path">
      <rect id="矩形_2253" data-name="矩形 2253" width="690" height="333.626" fill="#fff"/>
    </clipPath>
  </defs>
  <g id="小屏-banner" transform="translate(-6620 698)">
    <g id="组_21830" data-name="组 21830" transform="translate(6609.315 -806)">
      <g id="NAV_bg" transform="translate(10.685 108)" clip-path="url(#clip-path)">
        <g id="组_21480" data-name="组 21480" transform="translate(0 14.027)" opacity="0.05">
          <g id="组_21478" data-name="组 21478" transform="translate(0 2.932)">
            <g id="组_21420" data-name="组 21420" transform="translate(188.046 85.121)">
              <g id="组_21418" data-name="组 21418" transform="translate(0 0)">
                <rect id="矩形_2227" data-name="矩形 2227" width="179.014" height="0.717" transform="translate(0 32.115) rotate(-10.335)"/>
              </g>
              <g id="组_21419" data-name="组 21419" transform="translate(0 0)">
                <rect id="矩形_2228" data-name="矩形 2228" width="179.014" height="0.717" transform="translate(0 32.115) rotate(-10.335)"/>
              </g>
            </g>
            <g id="组_21424" data-name="组 21424" transform="translate(188.097 12.249)">
              <g id="组_21421" data-name="组 21421" transform="translate(175.949 0.139)">
                <rect id="矩形_2229" data-name="矩形 2229" width="73.135" height="0.478" transform="matrix(0.063, -0.998, 0.998, 0.063, 0, 72.989)"/>
              </g>
              <g id="组_21422" data-name="组 21422" transform="translate(0)">
                <path id="路径_37381" data-name="路径 37381" d="M62.839,164.94l-.239-.478L243.049,59.3l.478.478Z" transform="translate(-62.6 -59.3)"/>
              </g>
              <g id="组_21423" data-name="组 21423" transform="translate(0)">
                <path id="路径_37382" data-name="路径 37382" d="M62.839,164.94l-.239-.478L243.049,59.3l.478.478Z" transform="translate(-62.6 -59.3)"/>
              </g>
            </g>
            <g id="组_21429" data-name="组 21429" transform="translate(187.982 12.195)">
              <g id="组_21425" data-name="组 21425" transform="translate(123.883 0)">
                <rect id="矩形_2230" data-name="矩形 2230" width="69.072" height="0.478" transform="translate(0 39.433) rotate(-34.814)"/>
              </g>
              <g id="组_21426" data-name="组 21426" transform="translate(124.037 39.594)">
                <rect id="矩形_2231" data-name="矩形 2231" width="0.478" height="61.902" transform="matrix(0.54, -0.841, 0.841, 0.54, 0, 0.402)"/>
              </g>
              <g id="组_21427" data-name="组 21427" transform="translate(0 39.393)">
                <rect id="矩形_2232" data-name="矩形 2232" width="140.296" height="0.478" transform="translate(0 65.799) rotate(-27.969)"/>
              </g>
              <g id="组_21428" data-name="组 21428" transform="translate(0 39.393)">
                <rect id="矩形_2233" data-name="矩形 2233" width="140.296" height="0.478" transform="translate(0 65.799) rotate(-27.969)"/>
              </g>
            </g>
            <g id="组_21432" data-name="组 21432" transform="translate(0 117.411)">
              <g id="组_21430" data-name="组 21430">
                <path id="路径_37383" data-name="路径 37383" d="M-16.1,282.553,172.236,103.778,172,103.3-16.1,281.836Z" transform="translate(16.1 -103.3)"/>
              </g>
              <g id="组_21431" data-name="组 21431">
                <path id="路径_37384" data-name="路径 37384" d="M-16.1,282.553,172.236,103.778,172,103.3-16.1,281.836Z" transform="translate(16.1 -103.3)"/>
              </g>
            </g>
            <g id="组_21439" data-name="组 21439" transform="translate(0 51.684)">
              <g id="组_21433" data-name="组 21433" transform="translate(0 48.279)">
                <path id="路径_37385" data-name="路径 37385" d="M-16.1,246.573,11.147,96H10.43L-16.1,243.227Z" transform="translate(16.1 -96)"/>
              </g>
              <g id="组_21434" data-name="组 21434" transform="translate(0 43.738)">
                <path id="路径_37386" data-name="路径 37386" d="M-16.1,94.1v.478l26.769,4.3.239-.478Z" transform="translate(16.1 -94.1)"/>
              </g>
              <g id="组_21435" data-name="组 21435" transform="translate(26.769)">
                <path id="路径_37387" data-name="路径 37387" d="M-4.661,124.318l-.239-.478L280.472,75.8v.478Z" transform="translate(4.9 -75.8)"/>
              </g>
              <g id="组_21436" data-name="组 21436" transform="translate(0 48.04)">
                <path id="路径_37388" data-name="路径 37388" d="M-16.1,113.825,10.908,96.378l-.239-.478L-16.1,113.108Z" transform="translate(16.1 -95.9)"/>
              </g>
              <g id="组_21437" data-name="组 21437" transform="translate(26.942 48.071)">
                <rect id="矩形_2234" data-name="矩形 2234" width="0.478" height="162.284" transform="translate(0 0.475) rotate(-83.754)"/>
              </g>
              <g id="组_21438" data-name="组 21438" transform="translate(26.942 48.071)">
                <rect id="矩形_2235" data-name="矩形 2235" width="0.478" height="162.284" transform="translate(0 0.475) rotate(-83.754)"/>
              </g>
            </g>
            <g id="组_21445" data-name="组 21445" transform="translate(188.021 12.562)">
              <g id="组_21440" data-name="组 21440" transform="translate(123.641 39.361)">
                <path id="路径_37389" data-name="路径 37389" d="M152.78,328.289,114.3,75.9h.717l38.241,252.389Z" transform="translate(-114.3 -75.9)"/>
              </g>
              <g id="组_21441" data-name="组 21441" transform="translate(162.065 0)">
                <rect id="矩形_2236" data-name="矩形 2236" width="292.303" height="0.478" transform="translate(0 291.718) rotate(-86.406)"/>
              </g>
              <g id="组_21442" data-name="组 21442" transform="translate(162.13 73.051)">
                <rect id="矩形_2237" data-name="矩形 2237" width="219.167" height="0.478" transform="translate(0 218.729) rotate(-86.392)"/>
              </g>
              <g id="组_21443" data-name="组 21443" transform="translate(0 104.885)">
                <rect id="矩形_2238" data-name="矩形 2238" width="0.478" height="247.37" transform="matrix(0.755, -0.656, 0.656, 0.755, 0, 0.314)"/>
              </g>
              <g id="组_21444" data-name="组 21444" transform="translate(0 104.885)">
                <rect id="矩形_2239" data-name="矩形 2239" width="0.478" height="247.37" transform="matrix(0.755, -0.656, 0.656, 0.755, 0, 0.314)"/>
              </g>
            </g>
            <g id="组_21453" data-name="组 21453" transform="translate(0 51.836)">
              <g id="组_21446" data-name="组 21446" transform="translate(200.885 252.46)">
                <rect id="矩形_2240" data-name="矩形 2240" width="153.202" height="0.717" transform="matrix(0.976, -0.219, 0.219, 0.976, 0, 33.49)"/>
              </g>
              <g id="组_21447" data-name="组 21447" transform="translate(26.53 47.888)">
                <path id="路径_37390" data-name="路径 37390" d="M169.234,334.666-5,96.378l.478-.478L169.712,334.427Z" transform="translate(5 -95.9)"/>
              </g>
              <g id="组_21448" data-name="组 21448" transform="translate(0 255.583)">
                <path id="路径_37391" data-name="路径 37391" d="M-16.1,182.8v.478l201,30.832v-.717Z" transform="translate(16.1 -182.8)"/>
              </g>
              <g id="组_21449" data-name="组 21449" transform="translate(200.768 0)">
                <rect id="矩形_2241" data-name="矩形 2241" width="307.121" height="0.717" transform="translate(0 286.39) rotate(-68.826)"/>
              </g>
              <g id="组_21450" data-name="组 21450" transform="translate(200.764 33.548)">
                <path id="路径_37392" data-name="路径 37392" d="M68.378,343.006l-.478-.239L231.14,89.9l.478.239Z" transform="translate(-67.9 -89.9)"/>
              </g>
              <g id="组_21451" data-name="组 21451" transform="translate(187.902 65.73)">
                <rect id="矩形_2242" data-name="矩形 2242" width="0.717" height="221.079" transform="matrix(0.998, -0.058, 0.058, 0.998, 0, 0.042)"/>
              </g>
              <g id="组_21452" data-name="组 21452" transform="translate(187.902 65.73)">
                <rect id="矩形_2243" data-name="矩形 2243" width="0.717" height="221.079" transform="matrix(0.998, -0.058, 0.058, 0.998, 0, 0.042)"/>
              </g>
            </g>
            <g id="组_21458" data-name="组 21458" transform="translate(311.901 0)">
              <g id="组_21454" data-name="组 21454" transform="translate(209.368 0.059)">
                <path id="路径_37393" data-name="路径 37393" d="M426.425,174.419,202.239,54.2l-.239.478L426.425,174.9Z" transform="translate(-202 -54.2)"/>
              </g>
              <g id="组_21455" data-name="组 21455" transform="translate(0 0.059)">
                <path id="路径_37394" data-name="路径 37394" d="M114.639,106.3l-.239-.478L323.768,54.2l.239.478Z" transform="translate(-114.4 -54.2)"/>
              </g>
              <g id="组_21456" data-name="组 21456" transform="translate(56.883 0.059)">
                <path id="路径_37395" data-name="路径 37395" d="M138.2,66.867v-.478L290.685,54.2l.239.478Z" transform="translate(-138.2 -54.2)"/>
              </g>
              <g id="组_21457" data-name="组 21457" transform="translate(52.28)">
                <rect id="矩形_2244" data-name="矩形 2244" width="178.775" height="0.478" transform="matrix(0.879, -0.477, 0.477, 0.879, 0, 85.222)"/>
              </g>
            </g>
            <g id="组_21461" data-name="组 21461" transform="translate(350.381 85.375)">
              <g id="组_21459" data-name="组 21459" transform="translate(0 218.698)">
                <path id="路径_37396" data-name="路径 37396" d="M298.042,220.6,130.5,181.878V181.4l167.542,38.48Z" transform="translate(-130.5 -181.4)"/>
              </g>
              <g id="组_21460" data-name="组 21460" transform="translate(13.589 0)">
                <rect id="矩形_2245" data-name="矩形 2245" width="0.717" height="299.951" transform="translate(0 0.368) rotate(-30.843)"/>
              </g>
            </g>
            <g id="组_21469" data-name="组 21469" transform="translate(311.901 0.009)">
              <g id="组_21462" data-name="组 21462" transform="translate(205.735 202.679)">
                <rect id="矩形_2246" data-name="矩形 2246" width="151.051" height="0.717" transform="matrix(0.374, -0.927, 0.927, 0.374, 0, 140.07)"/>
              </g>
              <g id="组_21463" data-name="组 21463" transform="translate(209.142 0)">
                <rect id="矩形_2247" data-name="矩形 2247" width="0.717" height="209.368" transform="matrix(0.967, -0.253, 0.253, 0.967, 0, 0.182)"/>
              </g>
              <g id="组_21464" data-name="组 21464" transform="translate(262.427 149.189)">
                <path id="路径_37397" data-name="路径 37397" d="M395.566,116.6,224.2,169.9v.478l171.366-53.059Z" transform="translate(-224.2 -116.6)"/>
              </g>
              <g id="组_21465" data-name="组 21465" transform="translate(38.391 202.265)">
                <rect id="矩形_2248" data-name="矩形 2248" width="245.936" height="0.478" transform="translate(0 101.842) rotate(-24.463)"/>
              </g>
              <g id="组_21466" data-name="组 21466" transform="translate(0 51.675)">
                <path id="路径_37398" data-name="路径 37398" d="M376.588,227.09,114.4,76.278l.239-.478L377.066,226.612Z" transform="translate(-114.4 -75.8)"/>
              </g>
              <g id="组_21467" data-name="组 21467" transform="translate(56.711 12.149)">
                <rect id="矩形_2249" data-name="矩形 2249" width="0.717" height="280.113" transform="translate(0 0.526) rotate(-47.229)"/>
              </g>
              <g id="组_21468" data-name="组 21468" transform="translate(52.092 85.133)">
                <rect id="矩形_2250" data-name="矩形 2250" width="0.717" height="240.678" transform="translate(0 0.626) rotate(-60.849)"/>
              </g>
            </g>
            <g id="组_21471" data-name="组 21471" transform="translate(574.328 202.496)">
              <g id="组_21470" data-name="组 21470">
                <path id="路径_37399" data-name="路径 37399" d="M395.566,183.594,224.2,138.9v.478l171.366,44.933Z" transform="translate(-224.2 -138.9)"/>
              </g>
            </g>
            <g id="组_21477" data-name="组 21477" transform="translate(350.342 188.634)">
              <g id="组_21472" data-name="组 21472" transform="translate(281.586 129.301)">
                <path id="路径_37400" data-name="路径 37400" d="M362.066,187.2,248.3,223.768l.239.717,113.527-36.568Z" transform="translate(-248.3 -187.2)"/>
              </g>
              <g id="组_21473" data-name="组 21473" transform="translate(223.747 13.862)">
                <path id="路径_37401" data-name="路径 37401" d="M281.939,291.385,224.1,139.139l.478-.239,57.839,152.246Z" transform="translate(-224.1 -138.9)"/>
              </g>
              <g id="组_21474" data-name="组 21474" transform="translate(167.475 153.752)">
                <rect id="矩形_2251" data-name="矩形 2251" width="0.717" height="114.722" transform="translate(0 0.713) rotate(-83.996)"/>
              </g>
              <g id="组_21475" data-name="组 21475" transform="translate(281.586)">
                <path id="路径_37402" data-name="路径 37402" d="M362.066,133.1,248.3,299.208l.478.239L362.066,134.056Z" transform="translate(-248.3 -133.1)"/>
              </g>
              <g id="组_21476" data-name="组 21476" transform="translate(0 115.508)">
                <rect id="矩形_2252" data-name="矩形 2252" width="0.478" height="286.089" transform="translate(0 0.47) rotate(-79.81)"/>
              </g>
            </g>
          </g>
          <g id="组_21479" data-name="组 21479" transform="translate(23.777)">
            <path id="路径_37403" data-name="路径 37403" d="M65.3,108.247a3.1,3.1,0,1,1,2.151-3.824A3.175,3.175,0,0,1,65.3,108.247Z" transform="translate(99.98 15.442)"/>
            <path id="路径_37404" data-name="路径 37404" d="M139,94.747a3.1,3.1,0,1,1,2.151-3.824A3.519,3.519,0,0,1,139,94.747Z" transform="translate(202.426 -3.324)"/>
            <path id="路径_37405" data-name="路径 37405" d="M65.3,108.247a3.1,3.1,0,1,1,2.151-3.824A3.175,3.175,0,0,1,65.3,108.247Z" transform="translate(99.98 15.442)"/>
            <path id="路径_37406" data-name="路径 37406" d="M139,94.747a3.1,3.1,0,1,1,2.151-3.824A3.519,3.519,0,0,1,139,94.747Z" transform="translate(202.426 -3.324)"/>
            <path id="路径_37407" data-name="路径 37407" d="M139,94.747a3.1,3.1,0,1,1,2.151-3.824A3.519,3.519,0,0,1,139,94.747Z" transform="translate(202.426 -3.324)"/>
            <path id="路径_37408" data-name="路径 37408" d="M140.9,64.247a3.1,3.1,0,1,1,2.151-3.824A3.175,3.175,0,0,1,140.9,64.247Z" transform="translate(205.067 -45.72)"/>
            <path id="路径_37409" data-name="路径 37409" d="M65.3,108.247a3.1,3.1,0,1,1,2.151-3.824A3.175,3.175,0,0,1,65.3,108.247Z" transform="translate(99.98 15.442)"/>
            <path id="路径_37410" data-name="路径 37410" d="M140.9,64.247a3.1,3.1,0,1,1,2.151-3.824A3.175,3.175,0,0,1,140.9,64.247Z" transform="translate(205.067 -45.72)"/>
            <path id="路径_37411" data-name="路径 37411" d="M65.3,108.247a3.1,3.1,0,1,1,2.151-3.824A3.175,3.175,0,0,1,65.3,108.247Z" transform="translate(99.98 15.442)"/>
            <path id="路径_37412" data-name="路径 37412" d="M140.9,64.247a3.1,3.1,0,1,1,2.151-3.824A3.175,3.175,0,0,1,140.9,64.247Z" transform="translate(205.067 -45.72)"/>
            <path id="路径_37413" data-name="路径 37413" d="M140.9,64.247a3.1,3.1,0,1,1,2.151-3.824A3.175,3.175,0,0,1,140.9,64.247Z" transform="translate(205.067 -45.72)"/>
            <path id="路径_37414" data-name="路径 37414" d="M117.1,80.747a3.1,3.1,0,1,1,2.151-3.824A3.175,3.175,0,0,1,117.1,80.747Z" transform="translate(171.984 -22.785)"/>
            <path id="路径_37415" data-name="路径 37415" d="M139,94.747a3.1,3.1,0,1,1,2.151-3.824A3.519,3.519,0,0,1,139,94.747Z" transform="translate(202.426 -3.324)"/>
            <path id="路径_37416" data-name="路径 37416" d="M117.1,80.747a3.1,3.1,0,1,1,2.151-3.824A3.175,3.175,0,0,1,117.1,80.747Z" transform="translate(171.984 -22.785)"/>
            <path id="路径_37417" data-name="路径 37417" d="M65.3,108.247a3.1,3.1,0,1,1,2.151-3.824A3.175,3.175,0,0,1,65.3,108.247Z" transform="translate(99.98 15.442)"/>
            <path id="路径_37418" data-name="路径 37418" d="M117.1,80.747a3.1,3.1,0,1,1,2.151-3.824A3.175,3.175,0,0,1,117.1,80.747Z" transform="translate(171.984 -22.785)"/>
            <path id="路径_37419" data-name="路径 37419" d="M65.3,108.247a3.1,3.1,0,1,1,2.151-3.824A3.175,3.175,0,0,1,65.3,108.247Z" transform="translate(99.98 15.442)"/>
            <path id="路径_37420" data-name="路径 37420" d="M117.1,80.747a3.1,3.1,0,1,1,2.151-3.824A3.175,3.175,0,0,1,117.1,80.747Z" transform="translate(171.984 -22.785)"/>
            <path id="路径_37421" data-name="路径 37421" d="M65.3,108.247a3.1,3.1,0,1,1,2.151-3.824A3.175,3.175,0,0,1,65.3,108.247Z" transform="translate(99.98 15.442)"/>
            <path id="路径_37422" data-name="路径 37422" d="M65.3,108.247a3.1,3.1,0,1,1,2.151-3.824A3.175,3.175,0,0,1,65.3,108.247Z" transform="translate(99.98 15.442)"/>
            <path id="路径_37423" data-name="路径 37423" d="M-2.2,100.847A3.069,3.069,0,0,1-6.028,98.7a3.069,3.069,0,0,1,2.151-3.824A3.069,3.069,0,0,1-.053,97.023,3.175,3.175,0,0,1-2.2,100.847Z" transform="translate(6.151 5.155)"/>
            <path id="路径_37424" data-name="路径 37424" d="M-2.2,100.847A3.069,3.069,0,0,1-6.028,98.7a3.069,3.069,0,0,1,2.151-3.824A3.069,3.069,0,0,1-.053,97.023,3.175,3.175,0,0,1-2.2,100.847Z" transform="translate(6.151 5.155)"/>
            <path id="路径_37425" data-name="路径 37425" d="M117.1,80.747a3.1,3.1,0,1,1,2.151-3.824A3.175,3.175,0,0,1,117.1,80.747Z" transform="translate(171.984 -22.785)"/>
            <path id="路径_37426" data-name="路径 37426" d="M-2.2,100.847A3.069,3.069,0,0,1-6.028,98.7a3.069,3.069,0,0,1,2.151-3.824A3.069,3.069,0,0,1-.053,97.023,3.175,3.175,0,0,1-2.2,100.847Z" transform="translate(6.151 5.155)"/>
            <path id="路径_37427" data-name="路径 37427" d="M-2.2,100.847A3.069,3.069,0,0,1-6.028,98.7a3.069,3.069,0,0,1,2.151-3.824A3.069,3.069,0,0,1-.053,97.023,3.175,3.175,0,0,1-2.2,100.847Z" transform="translate(6.151 5.155)"/>
            <path id="路径_37428" data-name="路径 37428" d="M65.3,108.247a3.1,3.1,0,1,1,2.151-3.824A3.175,3.175,0,0,1,65.3,108.247Z" transform="translate(99.98 15.442)"/>
            <path id="路径_37429" data-name="路径 37429" d="M-2.2,100.847A3.069,3.069,0,0,1-6.028,98.7a3.069,3.069,0,0,1,2.151-3.824A3.069,3.069,0,0,1-.053,97.023,3.175,3.175,0,0,1-2.2,100.847Z" transform="translate(6.151 5.155)"/>
            <path id="路径_37430" data-name="路径 37430" d="M65.3,108.247a3.1,3.1,0,1,1,2.151-3.824A3.175,3.175,0,0,1,65.3,108.247Z" transform="translate(99.98 15.442)"/>
            <path id="路径_37431" data-name="路径 37431" d="M-2.2,100.847A3.069,3.069,0,0,1-6.028,98.7a3.069,3.069,0,0,1,2.151-3.824A3.069,3.069,0,0,1-.053,97.023,3.175,3.175,0,0,1-2.2,100.847Z" transform="translate(6.151 5.155)"/>
            <path id="路径_37432" data-name="路径 37432" d="M117.1,80.747a3.1,3.1,0,1,1,2.151-3.824A3.175,3.175,0,0,1,117.1,80.747Z" transform="translate(171.984 -22.785)"/>
            <path id="路径_37433" data-name="路径 37433" d="M133.2,186.247a3.1,3.1,0,1,1,2.151-3.824A3.069,3.069,0,0,1,133.2,186.247Z" transform="translate(194.364 123.865)"/>
            <path id="路径_37434" data-name="路径 37434" d="M140.9,64.247a3.1,3.1,0,1,1,2.151-3.824A3.175,3.175,0,0,1,140.9,64.247Z" transform="translate(205.067 -45.72)"/>
            <path id="路径_37435" data-name="路径 37435" d="M133.2,186.247a3.1,3.1,0,1,1,2.151-3.824A3.069,3.069,0,0,1,133.2,186.247Z" transform="translate(194.364 123.865)"/>
            <path id="路径_37436" data-name="路径 37436" d="M139,94.747a3.1,3.1,0,1,1,2.151-3.824A3.519,3.519,0,0,1,139,94.747Z" transform="translate(202.426 -3.324)"/>
            <path id="路径_37437" data-name="路径 37437" d="M133.2,186.247a3.1,3.1,0,1,1,2.151-3.824A3.069,3.069,0,0,1,133.2,186.247Z" transform="translate(194.364 123.865)"/>
            <path id="路径_37438" data-name="路径 37438" d="M65.3,108.247a3.1,3.1,0,1,1,2.151-3.824A3.175,3.175,0,0,1,65.3,108.247Z" transform="translate(99.98 15.442)"/>
            <path id="路径_37439" data-name="路径 37439" d="M133.2,186.247a3.1,3.1,0,1,1,2.151-3.824A3.069,3.069,0,0,1,133.2,186.247Z" transform="translate(194.364 123.865)"/>
            <path id="路径_37440" data-name="路径 37440" d="M65.3,108.247a3.1,3.1,0,1,1,2.151-3.824A3.175,3.175,0,0,1,65.3,108.247Z" transform="translate(99.98 15.442)"/>
            <path id="路径_37441" data-name="路径 37441" d="M133.2,186.247a3.1,3.1,0,1,1,2.151-3.824A3.069,3.069,0,0,1,133.2,186.247Z" transform="translate(194.364 123.865)"/>
            <path id="路径_37442" data-name="路径 37442" d="M133.2,186.247a3.1,3.1,0,1,1,2.151-3.824A3.069,3.069,0,0,1,133.2,186.247Z" transform="translate(194.364 123.865)"/>
            <path id="路径_37443" data-name="路径 37443" d="M70.7,200.547a3.1,3.1,0,1,1,2.151-3.824A3.069,3.069,0,0,1,70.7,200.547Z" transform="translate(107.486 143.743)"/>
            <path id="路径_37444" data-name="路径 37444" d="M-2.2,100.847A3.069,3.069,0,0,1-6.028,98.7a3.069,3.069,0,0,1,2.151-3.824A3.069,3.069,0,0,1-.053,97.023,3.175,3.175,0,0,1-2.2,100.847Z" transform="translate(6.151 5.155)"/>
            <path id="路径_37445" data-name="路径 37445" d="M70.7,200.547a3.1,3.1,0,1,1,2.151-3.824A3.069,3.069,0,0,1,70.7,200.547Z" transform="translate(107.486 143.743)"/>
            <path id="路径_37446" data-name="路径 37446" d="M70.7,200.547a3.1,3.1,0,1,1,2.151-3.824A3.069,3.069,0,0,1,70.7,200.547Z" transform="translate(107.486 143.743)"/>
            <path id="路径_37447" data-name="路径 37447" d="M117.1,80.747a3.1,3.1,0,1,1,2.151-3.824A3.175,3.175,0,0,1,117.1,80.747Z" transform="translate(171.984 -22.785)"/>
            <path id="路径_37448" data-name="路径 37448" d="M70.7,200.547a3.1,3.1,0,1,1,2.151-3.824A3.069,3.069,0,0,1,70.7,200.547Z" transform="translate(107.486 143.743)"/>
            <path id="路径_37449" data-name="路径 37449" d="M139,94.747a3.1,3.1,0,1,1,2.151-3.824A3.519,3.519,0,0,1,139,94.747Z" transform="translate(202.426 -3.324)"/>
            <path id="路径_37450" data-name="路径 37450" d="M70.7,200.547a3.1,3.1,0,1,1,2.151-3.824A3.069,3.069,0,0,1,70.7,200.547Z" transform="translate(107.486 143.743)"/>
            <path id="路径_37451" data-name="路径 37451" d="M65.3,108.247a3.1,3.1,0,1,1,2.151-3.824A3.175,3.175,0,0,1,65.3,108.247Z" transform="translate(99.98 15.442)"/>
            <path id="路径_37452" data-name="路径 37452" d="M70.7,200.547a3.1,3.1,0,1,1,2.151-3.824A3.069,3.069,0,0,1,70.7,200.547Z" transform="translate(107.486 143.743)"/>
            <path id="路径_37453" data-name="路径 37453" d="M65.3,108.247a3.1,3.1,0,1,1,2.151-3.824A3.175,3.175,0,0,1,65.3,108.247Z" transform="translate(99.98 15.442)"/>
            <path id="路径_37454" data-name="路径 37454" d="M70.7,200.547a3.1,3.1,0,1,1,2.151-3.824A3.069,3.069,0,0,1,70.7,200.547Z" transform="translate(107.486 143.743)"/>
            <path id="路径_37455" data-name="路径 37455" d="M204.7,59.047a3.1,3.1,0,1,1,2.151-3.824A3.069,3.069,0,0,1,204.7,59.047Z" transform="translate(293.752 -52.949)"/>
            <path id="路径_37456" data-name="路径 37456" d="M117.1,80.747a3.1,3.1,0,1,1,2.151-3.824A3.175,3.175,0,0,1,117.1,80.747Z" transform="translate(171.984 -22.785)"/>
            <path id="路径_37457" data-name="路径 37457" d="M204.7,59.047a3.1,3.1,0,1,1,2.151-3.824A3.069,3.069,0,0,1,204.7,59.047Z" transform="translate(293.752 -52.949)"/>
            <path id="路径_37458" data-name="路径 37458" d="M140.9,64.247a3.1,3.1,0,1,1,2.151-3.824A3.175,3.175,0,0,1,140.9,64.247Z" transform="translate(205.067 -45.72)"/>
            <path id="路径_37459" data-name="路径 37459" d="M204.7,59.047a3.1,3.1,0,1,1,2.151-3.824A3.069,3.069,0,0,1,204.7,59.047Z" transform="translate(293.752 -52.949)"/>
            <path id="路径_37460" data-name="路径 37460" d="M139,94.747a3.1,3.1,0,1,1,2.151-3.824A3.519,3.519,0,0,1,139,94.747Z" transform="translate(202.426 -3.324)"/>
            <path id="路径_37461" data-name="路径 37461" d="M204.7,59.047a3.1,3.1,0,1,1,2.151-3.824A3.069,3.069,0,0,1,204.7,59.047Z" transform="translate(293.752 -52.949)"/>
            <path id="路径_37462" data-name="路径 37462" d="M133.2,186.247a3.1,3.1,0,1,1,2.151-3.824A3.069,3.069,0,0,1,133.2,186.247Z" transform="translate(194.364 123.865)"/>
            <path id="路径_37463" data-name="路径 37463" d="M203.3,202.447a3.1,3.1,0,1,1,2.151-3.824A3.069,3.069,0,0,1,203.3,202.447Z" transform="translate(291.806 146.384)"/>
            <path id="路径_37464" data-name="路径 37464" d="M139,94.747a3.1,3.1,0,1,1,2.151-3.824A3.519,3.519,0,0,1,139,94.747Z" transform="translate(202.426 -3.324)"/>
            <path id="路径_37465" data-name="路径 37465" d="M203.3,202.447a3.1,3.1,0,1,1,2.151-3.824A3.069,3.069,0,0,1,203.3,202.447Z" transform="translate(291.806 146.384)"/>
            <path id="路径_37466" data-name="路径 37466" d="M203.3,202.447a3.1,3.1,0,1,1,2.151-3.824A3.069,3.069,0,0,1,203.3,202.447Z" transform="translate(291.806 146.384)"/>
            <path id="路径_37467" data-name="路径 37467" d="M226.9,143.747a3.1,3.1,0,1,1,2.151-3.824A3.069,3.069,0,0,1,226.9,143.747Z" transform="translate(324.611 64.788)"/>
            <path id="路径_37468" data-name="路径 37468" d="M204.7,59.047a3.1,3.1,0,1,1,2.151-3.824A3.069,3.069,0,0,1,204.7,59.047Z" transform="translate(293.752 -52.949)"/>
            <path id="路径_37469" data-name="路径 37469" d="M226.9,143.747a3.1,3.1,0,1,1,2.151-3.824A3.069,3.069,0,0,1,226.9,143.747Z" transform="translate(324.611 64.788)"/>
            <path id="路径_37470" data-name="路径 37470" d="M226.9,143.747a3.1,3.1,0,1,1,2.151-3.824A3.069,3.069,0,0,1,226.9,143.747Z" transform="translate(324.611 64.788)"/>
            <path id="路径_37471" data-name="路径 37471" d="M133.2,186.247a3.1,3.1,0,1,1,2.151-3.824A3.069,3.069,0,0,1,133.2,186.247Z" transform="translate(194.364 123.865)"/>
            <path id="路径_37472" data-name="路径 37472" d="M226.9,143.747a3.1,3.1,0,1,1,2.151-3.824A3.069,3.069,0,0,1,226.9,143.747Z" transform="translate(324.611 64.788)"/>
            <path id="路径_37473" data-name="路径 37473" d="M117.1,80.747a3.1,3.1,0,1,1,2.151-3.824A3.175,3.175,0,0,1,117.1,80.747Z" transform="translate(171.984 -22.785)"/>
            <path id="路径_37474" data-name="路径 37474" d="M226.9,143.747a3.1,3.1,0,1,1,2.151-3.824A3.069,3.069,0,0,1,226.9,143.747Z" transform="translate(324.611 64.788)"/>
            <path id="路径_37475" data-name="路径 37475" d="M140.9,64.247a3.1,3.1,0,1,1,2.151-3.824A3.175,3.175,0,0,1,140.9,64.247Z" transform="translate(205.067 -45.72)"/>
            <path id="路径_37476" data-name="路径 37476" d="M226.9,143.747a3.1,3.1,0,1,1,2.151-3.824A3.069,3.069,0,0,1,226.9,143.747Z" transform="translate(324.611 64.788)"/>
            <path id="路径_37477" data-name="路径 37477" d="M139,94.747a3.1,3.1,0,1,1,2.151-3.824A3.519,3.519,0,0,1,139,94.747Z" transform="translate(202.426 -3.324)"/>
            <path id="路径_37478" data-name="路径 37478" d="M226.9,143.747a3.1,3.1,0,1,1,2.151-3.824A3.069,3.069,0,0,1,226.9,143.747Z" transform="translate(324.611 64.788)"/>
            <path id="路径_37479" data-name="路径 37479" d="M226.9,143.747a3.1,3.1,0,1,1,2.151-3.824A3.069,3.069,0,0,1,226.9,143.747Z" transform="translate(324.611 64.788)"/>
            <path id="路径_37480" data-name="路径 37480" d="M251,207.447a3.1,3.1,0,1,1,2.151-3.824A3.069,3.069,0,0,1,251,207.447Z" transform="translate(358.111 153.334)"/>
            <path id="路径_37481" data-name="路径 37481" d="M226.9,143.747a3.1,3.1,0,1,1,2.151-3.824A3.069,3.069,0,0,1,226.9,143.747Z" transform="translate(324.611 64.788)"/>
            <path id="路径_37482" data-name="路径 37482" d="M251,207.447a3.1,3.1,0,1,1,2.151-3.824A3.069,3.069,0,0,1,251,207.447Z" transform="translate(358.111 153.334)"/>
            <path id="路径_37483" data-name="路径 37483" d="M203.3,202.447a3.1,3.1,0,1,1,2.151-3.824A3.069,3.069,0,0,1,203.3,202.447Z" transform="translate(291.806 146.384)"/>
            <path id="路径_37484" data-name="路径 37484" d="M251,207.447a3.1,3.1,0,1,1,2.151-3.824A3.069,3.069,0,0,1,251,207.447Z" transform="translate(358.111 153.334)"/>
            <path id="路径_37485" data-name="路径 37485" d="M251,207.447a3.1,3.1,0,1,1,2.151-3.824A3.069,3.069,0,0,1,251,207.447Z" transform="translate(358.111 153.334)"/>
            <path id="路径_37486" data-name="路径 37486" d="M133.2,186.247a3.1,3.1,0,1,1,2.151-3.824A3.069,3.069,0,0,1,133.2,186.247Z" transform="translate(194.364 123.865)"/>
            <path id="路径_37487" data-name="路径 37487" d="M251,207.447a3.1,3.1,0,1,1,2.151-3.824A3.069,3.069,0,0,1,251,207.447Z" transform="translate(358.111 153.334)"/>
          </g>
        </g>
      </g>
      <g id="_8-关于我们" data-name="8-关于我们" transform="translate(361.564 187)">
        <path id="路径_38118" data-name="路径 38118" d="M1219.81,497.625l-7.345,17.971,22.221,11.8,29.8-4.808,7.431-16.684-21.565-12.823Z" transform="translate(-1026.071 -413.465)" fill="none" stroke="#231815" stroke-miterlimit="10" stroke-width="1"/>
        <path id="路径_38119" data-name="路径 38119" d="M1231.227,506.062l-6.3,14.95,19.794,10.243,26.3-4.637,6.091-13.565L1258.5,501.979Z" transform="translate(-1034.903 -419.767)" fill="none" stroke="#231815" stroke-miterlimit="10" stroke-width="1"/>
        <g id="组_21568" data-name="组 21568">
          <path id="路径_38120" data-name="路径 38120" d="M736.011,264.663A87.045,87.045,0,1,0,616.016,382.087" transform="translate(-572.865 -219.874)" fill="none" stroke="#0080f4" stroke-miterlimit="10" stroke-width="1"/>
          <path id="路径_38121" data-name="路径 38121" d="M849.9,631.792q3.121.223,6.3.224a87.05,87.05,0,0,0,86.361-76.155" transform="translate(-769.168 -457.947)" fill="none" stroke="#0080f4" stroke-miterlimit="10" stroke-width="1"/>
          <path id="路径_38122" data-name="路径 38122" d="M952.375,549.574a83.009,83.009,0,0,0,56.916-99.419" transform="translate(-841.777 -383.046)" fill="none" stroke="#ef54a1" stroke-miterlimit="10" stroke-width="1"/>
          <path id="路径_38123" data-name="路径 38123" d="M645.7,246.488a83.013,83.013,0,0,0-56.591,97.565" transform="translate(-582.942 -238.732)" fill="none" stroke="#ef54a1" stroke-miterlimit="10" stroke-width="1"/>
          <path id="路径_38124" data-name="路径 38124" d="M641.863,328.983a74,74,0,1,0,106.2,8.3" transform="translate(-604.108 -297.186)" fill="none" stroke="#0080f4" stroke-miterlimit="10" stroke-width="1"/>
          <path id="路径_38125" data-name="路径 38125" d="M970.083,519.461a71.188,71.188,0,0,0,37.056-91.1" transform="translate(-854.325 -367.603)" fill="none" stroke="#000" stroke-miterlimit="10" stroke-width="1"/>
          <path id="路径_38126" data-name="路径 38126" d="M970.083,740.967" transform="translate(-854.325 -589.109)" fill="none" stroke="#000" stroke-miterlimit="10" stroke-width="1"/>
          <path id="路径_38127" data-name="路径 38127" d="M736.192,285.715a71.108,71.108,0,1,0-40.384,130.717" transform="translate(-610.759 -258.399)" fill="none" stroke="#0c111a" stroke-miterlimit="10" stroke-width="1"/>
          <path id="路径_38128" data-name="路径 38128" d="M677.167,304.111a68.069,68.069,0,1,0,74.479,111.651" transform="translate(-618.212 -279.563)" fill="none" stroke="#000" stroke-miterlimit="10" stroke-width="1"/>
          <path id="路径_38129" data-name="路径 38129" d="M921.819,302.816a67.82,67.82,0,0,0-45.265-18.865" transform="translate(-788.052 -265.278)" fill="none" stroke="#000" stroke-miterlimit="10" stroke-width="1"/>
          <path id="路径_38130" data-name="路径 38130" d="M1087.353,547.234c3.121-7.808,4.829-14.451,4.829-23.372" transform="translate(-937.42 -435.273)" fill="none" stroke="#000" stroke-miterlimit="10" stroke-width="1"/>
          <path id="路径_38131" data-name="路径 38131" d="M998.837,700.413" transform="translate(-874.699 -560.373)" fill="none" stroke="#000" stroke-miterlimit="10" stroke-width="1"/>
          <path id="路径_38132" data-name="路径 38132" d="M648.629,545.667a65.16,65.16,0,0,0,102.058,45.1" transform="translate(-626.55 -450.724)" fill="none" stroke="#000" stroke-miterlimit="10" stroke-width="1"/>
          <path id="路径_38133" data-name="路径 38133" d="M836.636,298.39a65.4,65.4,0,0,0-47.6-.068" transform="translate(-726.038 -272.307)" fill="none" stroke="#000" stroke-miterlimit="10" stroke-width="1"/>
          <path id="路径_38134" data-name="路径 38134" d="M661.284,565.223a62.584,62.584,0,0,0,84.087,44.566" transform="translate(-635.517 -464.581)" fill="none" stroke="#000" stroke-miterlimit="10" stroke-width="1"/>
          <path id="路径_38135" data-name="路径 38135" d="M812.748,305.346a62.42,62.42,0,0,0-41.2,5.83" transform="translate(-713.645 -279.563)" fill="none" stroke="#000" stroke-miterlimit="10" stroke-width="1"/>
          <path id="路径_38136" data-name="路径 38136" d="M794.583,688.878a59.743,59.743,0,0,0,58.376-8.069" transform="translate(-729.969 -546.482)" fill="none" stroke="#ef54a1" stroke-miterlimit="10" stroke-width="1"/>
          <path id="路径_38137" data-name="路径 38137" d="M839.586,318.018a59.873,59.873,0,0,0-44.492-.24" transform="translate(-730.332 -286.294)" fill="none" stroke="#0c111a" stroke-miterlimit="10" stroke-width="1"/>
          <path id="路径_38138" data-name="路径 38138" d="M617.735,645.42a82.915,82.915,0,0,0,79.944,45.607q.715-.05,1.426-.112" transform="translate(-604.659 -521.407)" fill="none" stroke="#0080f4" stroke-miterlimit="10" stroke-width="1"/>
        </g>
        <g id="组_21569" data-name="组 21569" transform="translate(4.774 5.702)">
          <circle id="椭圆_1730" data-name="椭圆 1730" cx="1.468" cy="1.468" r="1.468" transform="translate(157.293 38.42)" fill="#0080f4"/>
          <circle id="椭圆_1731" data-name="椭圆 1731" cx="1.224" cy="1.224" r="1.224" transform="translate(120.131 20.946)"/>
          <circle id="椭圆_1732" data-name="椭圆 1732" cx="1.098" cy="1.098" r="1.098" transform="translate(128.174 31.239)"/>
          <circle id="椭圆_1733" data-name="椭圆 1733" cx="1.098" cy="1.098" r="1.098" transform="translate(81.958 11.938)"/>
          <circle id="椭圆_1734" data-name="椭圆 1734" cx="1.224" cy="1.224" r="1.224" transform="translate(105.136 19.488)"/>
          <circle id="椭圆_1735" data-name="椭圆 1735" cx="1.224" cy="1.224" r="1.224" transform="translate(93.869 19.157)"/>
          <circle id="椭圆_1736" data-name="椭圆 1736" cx="0.865" cy="0.865" r="0.865" transform="translate(103.615 25.229)"/>
          <circle id="椭圆_1737" data-name="椭圆 1737" cx="0.865" cy="0.865" r="0.865" transform="translate(58.759 25.157)"/>
          <circle id="椭圆_1738" data-name="椭圆 1738" cx="0.865" cy="0.865" r="0.865" transform="translate(58.576 135.715)" fill="#ef54a1"/>
          <circle id="椭圆_1739" data-name="椭圆 1739" cx="0.865" cy="0.865" r="0.865" transform="translate(60.843 126.455)"/>
          <circle id="椭圆_1740" data-name="椭圆 1740" cx="0.865" cy="0.865" r="0.865" transform="translate(117.35 127.759)" fill="#ef54a1"/>
          <circle id="椭圆_1741" data-name="椭圆 1741" cx="1.224" cy="1.224" r="1.224" transform="translate(51.344 24.871)"/>
          <circle id="椭圆_1742" data-name="椭圆 1742" cx="1.224" cy="1.224" r="1.224" transform="translate(56.18 19.488)"/>
          <circle id="椭圆_1743" data-name="椭圆 1743" cx="1.05" cy="1.05" r="1.05" transform="translate(53.331 17.797)"/>
          <circle id="椭圆_1744" data-name="椭圆 1744" cx="1.224" cy="1.224" r="1.224" transform="translate(32.046 24.367)" fill="#0080f4"/>
          <circle id="椭圆_1745" data-name="椭圆 1745" cx="1.148" cy="1.148" r="1.148" transform="translate(137.885 33.261)" fill="#0080f4"/>
          <circle id="椭圆_1746" data-name="椭圆 1746" cx="1.148" cy="1.148" r="1.148" transform="translate(146.719 53.478)"/>
          <circle id="椭圆_1747" data-name="椭圆 1747" cx="1.004" cy="1.004" r="1.004" transform="translate(148.984 81.411)"/>
          <circle id="椭圆_1748" data-name="椭圆 1748" cx="1.004" cy="1.004" r="1.004" transform="translate(143.932 105.728)"/>
          <circle id="椭圆_1749" data-name="椭圆 1749" cx="1.004" cy="1.004" r="1.004" transform="translate(128.088 129.285)"/>
          <circle id="椭圆_1750" data-name="椭圆 1750" cx="1.079" cy="1.079" r="1.079" transform="translate(79.778 151.252)"/>
          <circle id="椭圆_1751" data-name="椭圆 1751" cx="1.87" cy="1.87" r="1.87" transform="translate(56.353)" fill="#ef54a1"/>
          <circle id="椭圆_1752" data-name="椭圆 1752" cx="1.705" cy="1.705" r="1.705" transform="translate(160.595 58.991)" fill="#ef54a1"/>
          <circle id="椭圆_1753" data-name="椭圆 1753" cx="1.705" cy="1.705" r="1.705" transform="translate(166.916 89.05)" fill="#0080f4"/>
          <circle id="椭圆_1754" data-name="椭圆 1754" cx="1.705" cy="1.705" r="1.705" transform="translate(74.256 166.381)" fill="#0080f4"/>
          <circle id="椭圆_1755" data-name="椭圆 1755" cx="1.705" cy="1.705" r="1.705" transform="translate(37.862 155.472)" fill="#0080f4"/>
          <circle id="椭圆_1756" data-name="椭圆 1756" cx="1.705" cy="1.705" r="1.705" transform="translate(0 99.159)" fill="#ef54a1"/>
          <circle id="椭圆_1757" data-name="椭圆 1757" cx="1.133" cy="1.133" r="1.133" transform="translate(15.981 87.398)"/>
          <circle id="椭圆_1758" data-name="椭圆 1758" cx="1.133" cy="1.133" r="1.133" transform="translate(19.683 92.787)"/>
          <circle id="椭圆_1759" data-name="椭圆 1759" cx="1.612" cy="1.612" r="1.612" transform="translate(6.236 115.935)" fill="#0080f4"/>
          <circle id="椭圆_1760" data-name="椭圆 1760" cx="1.079" cy="1.079" r="1.079" transform="translate(54.877 71.928)"/>
          <circle id="椭圆_1761" data-name="椭圆 1761" cx="1.079" cy="1.079" r="1.079" transform="translate(63.943 70.212)"/>
          <circle id="椭圆_1762" data-name="椭圆 1762" cx="0.867" cy="0.867" r="0.867" transform="translate(114.418 97.405)"/>
          <circle id="椭圆_1763" data-name="椭圆 1763" cx="1.079" cy="1.079" r="1.079" transform="translate(93.796 40.132)"/>
          <circle id="椭圆_1764" data-name="椭圆 1764" cx="1.079" cy="1.079" r="1.079" transform="translate(105.874 60.833)"/>
          <circle id="椭圆_1765" data-name="椭圆 1765" cx="0.898" cy="0.898" r="0.898" transform="translate(86.206 80.457)"/>
          <circle id="椭圆_1766" data-name="椭圆 1766" cx="0.898" cy="0.898" r="0.898" transform="translate(90.092 102.299)"/>
          <circle id="椭圆_1767" data-name="椭圆 1767" cx="0.898" cy="0.898" r="0.898" transform="translate(53.52 90.894)"/>
          <circle id="椭圆_1768" data-name="椭圆 1768" cx="0.898" cy="0.898" r="0.898" transform="translate(39.241 94.391)"/>
          <circle id="椭圆_1769" data-name="椭圆 1769" cx="1.079" cy="1.079" r="1.079" transform="translate(113.126 60.833)"/>
          <circle id="椭圆_1770" data-name="椭圆 1770" cx="1.004" cy="1.004" r="1.004" transform="translate(118.36 133.333)"/>
          <circle id="椭圆_1771" data-name="椭圆 1771" cx="1.004" cy="1.004" r="1.004" transform="translate(104.077 138.351)"/>
          <circle id="椭圆_1772" data-name="椭圆 1772" cx="1.079" cy="1.079" r="1.079" transform="translate(109.492 145.271)"/>
          <circle id="椭圆_1773" data-name="椭圆 1773" cx="1.705" cy="1.705" r="1.705" transform="translate(89.288 161.931)" fill="#0080f4"/>
          <circle id="椭圆_1774" data-name="椭圆 1774" cx="1.705" cy="1.705" r="1.705" transform="translate(105.104 158.9)" fill="#ef54a1"/>
        </g>
        <g id="组_21570" data-name="组 21570" transform="translate(26.959 39.47)">
          <path id="路径_38139" data-name="路径 38139" d="M727.02,360.592l.928-.324,1.194-.035-.341.682h-.6V362.3h4.23s2.418-3.108,2.763-3.454a19.512,19.512,0,0,1,2.374-1.327c.68-.389,2.461-.939,2.979-2.2H735.2l-2.364,1.813-1.036-.259-2.331,2.2-.518.486-.324.324" transform="translate(-709.055 -355.314)" fill="none" stroke="#000" stroke-miterlimit="10" stroke-width="1"/>
          <path id="路径_38140" data-name="路径 38140" d="M742.641,370.683l1.338-1.856h2.115l3.324-2.936h5.526l2.115-1.554h7.167l.3,4.058,2.331.043-.216,1.209-.734,2.115-.518.777h-1.252l-4.447,5.958h-4.015l-4.144,6.3h-3.929l-1.468-3.152-.216-1.338.95-.863,1.382-.175.734-1.077-.086-1.166-4.188.043-.173-3.626.345-2.2-4.145.043" transform="translate(-718.778 -361.707)" fill="none" stroke="#0080f4" stroke-miterlimit="10" stroke-width="1"/>
          <path id="路径_38141" data-name="路径 38141" d="M729,396.78l-3.67,7.814h1.835v1.727l-.712.432.043,1.77,2.5.216.648,2.677h1.166l1.554-5.224.259-1.554-.518-.086-.3-1.3-1.641-.173v-3.411h-1.856" transform="translate(-707.861 -384.696)" fill="none" stroke="#000" stroke-miterlimit="10" stroke-width="1"/>
          <path id="路径_38142" data-name="路径 38142" d="M866.674,380.855c-.388.237-8.872,0-8.872,0s-2.051.755-2.482,2.029-.41,3.389,1.878,3.389h3.6s3.13-1.381,3.54-2.828v-1.4" transform="translate(-799.811 -373.412)" fill="none" stroke="#000" stroke-miterlimit="10" stroke-width="1"/>
          <path id="路径_38143" data-name="路径 38143" d="M839.406,412.853l2.029,3.5h2.676s0-3.022,2.677-3.5h3.54v4.706l-3.756,2.935h-3.065l-.691-2.547H834.8l-7.179,7.771L827.4,429l2.375,2.418h4.188v-2.374l3.151-2.461h4.792" transform="translate(-780.185 -396.085)" fill="none" stroke="#0c111a" stroke-miterlimit="10" stroke-width="1"/>
          <path id="路径_38144" data-name="路径 38144" d="M873.328,405.3l2.72-2.374h9.368l3.195,1.856v1.684h-.95v1.122l1.166,1.554h3.324l.907-1.425v-1.9h2.072l.993,2.763.734,4.36.475,2.159" transform="translate(-812.726 -389.052)" fill="none" stroke="#000" stroke-miterlimit="10" stroke-width="1"/>
          <path id="路径_38145" data-name="路径 38145" d="M823.39,442.778v7.944l1.874,1.727h2.547l1.209-1.338V450.2l-1.9-1.77v-1.943l1.122-.475h5.569l3.065,2.763v2.979l-11.656,9.5h-2.547l-3.152-4.231h-8.634l-7.037,7.037v9.023" transform="translate(-763.495 -417.289)" fill="none" stroke="#0c111a" stroke-miterlimit="10" stroke-width="1"/>
          <path id="路径_38146" data-name="路径 38146" d="M947.7,407.935h6.174l1.641-4.188h9.023l.389-1.856h10.663l3.138,4.447h1.007l1.641,4.533,1.9,5.612v5.569h-.345l-1.684-5.44-.173-1.9-1.3-5.108-1.252-1.584h-.691l.893,4.274v7.253h-6.031" transform="translate(-865.421 -388.317)" fill="none" stroke="#0c111a" stroke-miterlimit="10" stroke-width="1"/>
          <path id="路径_38147" data-name="路径 38147" d="M813.767,505.442l7.1,11.722h5.008l.388,3.431-5.7,5.958-.55,8.1-3.594,3.1-.13,2.979-3.367,4.209h-3.756l-4.145-8.419v-1.87l2.72-3.375v-1.619l-5.375-10.232h-1.943l-2.461,2.4H793.3l-2.914-2.267h-9.131" transform="translate(-747.487 -461.691)" fill="none" stroke="#0c111a" stroke-miterlimit="10" stroke-width="1"/>
          <path id="路径_38148" data-name="路径 38148" d="M893.476,504.327l3.022-2.5h2.245l5.44,8.289,1.6-.345,4.118-3.522v-6.581" transform="translate(-827.002 -457.598)" fill="none" stroke="#000" stroke-miterlimit="10" stroke-width="1"/>
          <path id="路径_38149" data-name="路径 38149" d="M932.4,497.98h-2.418l-3.022-4.834v-.994l.777-1.079h.95l3.108,4.922,5.008.173,6.044,13.787h3.195" transform="translate(-850.725 -451.509)" fill="none" stroke="#000" stroke-miterlimit="10" stroke-width="1"/>
          <path id="路径_38150" data-name="路径 38150" d="M992.545,529.2h-1.3v-2.159L994.755,521h4.179l-.432,8.7-.863,4.185.173,2.33.691,1.187h1.641l.863-1.187-.691-1.576-.518-1.121v-2.85" transform="translate(-896.282 -472.713)" fill="none" stroke="#000" stroke-miterlimit="10" stroke-width="1"/>
          <path id="路径_38151" data-name="路径 38151" d="M949.177,483.712l.189-2.159,1.71-1.3,20.938.173,1.338,3.281v2.5" transform="translate(-866.471 -443.847)" fill="none" stroke="#0c111a" stroke-miterlimit="10" stroke-width="1"/>
          <path id="路径_38152" data-name="路径 38152" d="M685.781,452.783h8.03l2.5-2.676.691-5.1,3.367-2.849v-4.145l-2.159-3.281h-1.9l-1.122,1.641-.691,3.713h-2.677l-.086-2.418,2.936-5.267.345-2.072h-1.381l-1.986,1.122L690.1,433.27l-1.122,5.44" transform="translate(-679.834 -408.472)" fill="none" stroke="#0c111a" stroke-miterlimit="10" stroke-width="1"/>
          <path id="路径_38153" data-name="路径 38153" d="M787.216,425.085l4.058-.216,2.331-1.727V421.89h-4.533l-2.741,2.072-.777,4.792" transform="translate(-750.531 -402.488)" fill="none" stroke="#000" stroke-miterlimit="10" stroke-width="1"/>
          <path id="路径_38154" data-name="路径 38154" d="M904.876,594.223l2.849-2.785h1.36v5.245l-3.389,3.691h-8.744" transform="translate(-829.465 -522.627)" fill="none" stroke="#000" stroke-miterlimit="10" stroke-width="1"/>
          <path id="路径_38155" data-name="路径 38155" d="M965.264,565.114h-4.727l-.842-1.187v-2.7l.842-1.124h1.036l.129,3.173" transform="translate(-873.924 -500.425)" fill="none" stroke="#000" stroke-miterlimit="10" stroke-width="1"/>
          <path id="路径_38156" data-name="路径 38156" d="M1032.137,513.814l.971-7.836h3.821l3.626-5.886v-6.634l-1.36-2.979h-1.166l-.389.8.389,4.533-2.959,5.468-1.833.3-.583,1.166-.194,2.785-.324,2.051" transform="translate(-925.254 -451.089)" fill="none" stroke="#0c111a" stroke-miterlimit="10" stroke-width="1"/>
          <path id="路径_38157" data-name="路径 38157" d="M1023.248,473.461l1.036-.691.712-1.587v-4.306l3.918-5.763v-6.249h2.072l.356-.81v-3.5l-1.781-5.407-.79-2.817" transform="translate(-918.956 -416.974)" fill="none" stroke="#000" stroke-miterlimit="10" stroke-width="1"/>
          <line id="直线_391" data-name="直线 391" x2="2.633" transform="translate(85.772 6.119)" fill="none" stroke="#000" stroke-miterlimit="10" stroke-width="1"/>
          <path id="路径_38158" data-name="路径 38158" d="M782.51,448.852l-.324,2.159-.928,8.159" transform="translate(-747.487 -421.593)" fill="none" stroke="#000" stroke-miterlimit="10" stroke-width="1"/>
          <path id="路径_38159" data-name="路径 38159" d="M725.483,468.851H732l.691,1.813-.475,1.511-3.13,3.281h-2.914" transform="translate(-707.966 -435.764)" fill="none" stroke="#000" stroke-miterlimit="10" stroke-width="1"/>
          <path id="路径_38160" data-name="路径 38160" d="M679.855,518.2h1.209l.518,1.463.546,7.339" transform="translate(-675.635 -470.732)" fill="none" stroke="#000" stroke-miterlimit="10" stroke-width="1"/>
          <line id="直线_392" data-name="直线 392" x2="6.562" y2="0.216" transform="translate(0.378 38.052)" fill="none" stroke="#000" stroke-miterlimit="10" stroke-width="1"/>
          <path id="路径_38161" data-name="路径 38161" d="M704.011,386.78l-3.713,5.612.216.043.82.043-.043.928-.777.971v1.209l1.684-.043v1.015l-.691.885v1.122h1.6l2.806-2.374v-1.036h-.993l.345-2.418-2.806.259,2.029-4.576-2.418-.173" transform="translate(-690.121 -377.61)" fill="none" stroke="#000" stroke-miterlimit="10" stroke-width="1"/>
          <path id="路径_38162" data-name="路径 38162" d="M931.694,388.114l-.227-.712,1.263-1.1,1.91-1.457h2.008V384.1l-1.781-.68-1.068-.971h-2.331l-2.882,2.558.292,2.1.648,2.072.648.453h4.663" transform="translate(-851.88 -374.54)" fill="none" stroke="#000" stroke-miterlimit="10" stroke-width="1"/>
          <path id="路径_38163" data-name="路径 38163" d="M1006.508,376.312s6.265,7.5,7.061,10.649" transform="translate(-907.094 -370.193)" fill="none" stroke="#000" stroke-miterlimit="10" stroke-width="1"/>
          <path id="路径_38164" data-name="路径 38164" d="M988.138,401.891l3.679,9.5v3.67l-1.278,1.278H987.1" transform="translate(-893.343 -388.317)" fill="none" stroke="#000" stroke-miterlimit="10" stroke-width="1"/>
          <path id="路径_38165" data-name="路径 38165" d="M1042.708,426.886h-2.72v2.127" transform="translate(-930.817 -406.028)" fill="none" stroke="#000" stroke-miterlimit="10" stroke-width="1"/>
          <path id="路径_38166" data-name="路径 38166" d="M1023.272,596.693l1.468-2.792,1.325.216-.72,5.742-2.072,4.4-4.034,4.835h-1.751l.691-2.677-3.67.259.863-4.231.863-3.929,6.344-5.526h1.988l.043.561" transform="translate(-912.763 -523.729)" fill="none" stroke="#0080f4" stroke-miterlimit="10" stroke-width="1"/>
          <path id="路径_38167" data-name="路径 38167" d="M1029.755,643.316v.661l-5.915,5.785" transform="translate(-919.376 -559.386)" fill="none" stroke="#000" stroke-miterlimit="10" stroke-width="1"/>
          <line id="直线_393" data-name="直线 393" x2="4.015" transform="translate(31.505 15.063)" fill="none" stroke="#000" stroke-miterlimit="10" stroke-width="1"/>
          <line id="直线_394" data-name="直线 394" x2="1.91" transform="translate(55.8 16.768)" fill="none" stroke="#000" stroke-miterlimit="10" stroke-width="1"/>
          <line id="直线_395" data-name="直线 395" x2="3.033" transform="translate(68.06 7.573)" fill="none" stroke="#000" stroke-miterlimit="10" stroke-width="1"/>
          <path id="路径_38168" data-name="路径 38168" d="M971.547,376.312h5.4l2.849,2.4.777.777v1.036h-4.49l-1.9-2.893" transform="translate(-882.321 -370.193)" fill="none" stroke="#000" stroke-miterlimit="10" stroke-width="1"/>
          <path id="路径_38169" data-name="路径 38169" d="M733.334,566.423h9.455l1.943,2.563v3.152l-2.5,4.792H738" transform="translate(-713.529 -504.901)" fill="none" stroke="#0c111a" stroke-miterlimit="10" stroke-width="1"/>
          <path id="路径_38170" data-name="路径 38170" d="M744,630.622l1.6,3.022,4.447,7.685,3.324,2.892,5.372-.173" transform="translate(-721.087 -550.391)" fill="none" stroke="#000" stroke-miterlimit="10" stroke-width="1"/>
          <path id="路径_38171" data-name="路径 38171" d="M672.659,428.112l-2.677,5.051v2.418l-1.122,5.569-1.122,6-.475,6.821,4.274,6.3h5.137l1.166,1.385.259,5.565,2.59,10.016,4.922,5.137,2.59,6.389,5.742,9.541,5.915,4.878.626.23.237-.878-4.576-6.562v-2.461l2.936-9.714-2.159-8.03-10.016-12.3h-6.174l-.777-1.1-.432-4.685-.345-1.252H676.89l-.82-.863.259-6.605" transform="translate(-666.712 -406.897)" fill="none" stroke="#000" stroke-miterlimit="10" stroke-width="1"/>
          <path id="路径_38172" data-name="路径 38172" d="M667.026,471.448a9.832,9.832,0,0,0-1.651-.227" transform="translate(-665.374 -437.443)" fill="none" stroke="#000" stroke-miterlimit="10" stroke-width="1"/>
          <path id="路径_38173" data-name="路径 38173" d="M690.285,419.217h-2.914l.421-2.2,1.036-2.2.389-2.364H685.04l.971-1.878.421-1.88,1.23-2.134" transform="translate(-679.309 -391.624)" fill="none" stroke="#000" stroke-miterlimit="10" stroke-width="1"/>
          <path id="路径_38174" data-name="路径 38174" d="M851.477,566.423H857.5l4.015,7.29,2.59.618" transform="translate(-797.243 -504.901)" fill="none" stroke="#000" stroke-miterlimit="10" stroke-width="1"/>
          <line id="直线_396" data-name="直线 396" y2="2.229" transform="translate(40.852 59.292)" fill="none" stroke="#000" stroke-miterlimit="10" stroke-width="1"/>
          <line id="直线_397" data-name="直线 397" x2="2.357" transform="translate(96.116 58.444)" fill="none" stroke="#000" stroke-miterlimit="10" stroke-width="1"/>
          <line id="直线_398" data-name="直线 398" x1="0.648" y2="3.628" transform="translate(112.387 57.544)" fill="none" stroke="#000" stroke-miterlimit="10" stroke-width="1"/>
          <line id="直线_399" data-name="直线 399" x1="1.166" y2="2.806" transform="translate(109.214 74.511)" fill="none" stroke="#000" stroke-miterlimit="10" stroke-width="1"/>
          <line id="直线_400" data-name="直线 400" x2="1.878" transform="translate(44.65 37.577)" fill="none" stroke="#000" stroke-miterlimit="10" stroke-width="1"/>
          <line id="直线_401" data-name="直线 401" x1="2.115" y2="5.069" transform="translate(117.848 60.407)" fill="none" stroke="#000" stroke-miterlimit="10" stroke-width="1"/>
          <path id="路径_38175" data-name="路径 38175" d="M831.875,491.467V485.92l-.583-1.079-1.813-.583" transform="translate(-781.655 -446.681)" fill="none" stroke="#000" stroke-miterlimit="10" stroke-width="1"/>
          <path id="路径_38176" data-name="路径 38176" d="M898.918,478.7l-1.966-3.3v-1.748l.606-.648h2.4l2.893,3.281h3.324" transform="translate(-829.465 -438.703)" fill="none" stroke="#000" stroke-miterlimit="10" stroke-width="1"/>
        </g>
        <g id="组_21571" data-name="组 21571" transform="translate(147.887 24.071)">
          <rect id="矩形_2274" data-name="矩形 2274" width="37.119" height="2.221" rx="1.111" transform="matrix(0.864, 0.503, -0.503, 0.864, 6.991, 5.525)" fill="none" stroke="#0080f4" stroke-miterlimit="10" stroke-width="1"/>
          <rect id="矩形_2275" data-name="矩形 2275" width="28.596" height="2.62" rx="1.31" transform="matrix(0.864, 0.503, -0.503, 0.864, 14.457, 9.641)"/>
          <path id="路径_38177" data-name="路径 38177" d="M1084.4,313.068l-1.608-1.19-1.892.649.635-1.9-1.2-1.6,2,.018,1.149-1.637.6,1.908,1.912.587-1.629,1.161Z" transform="translate(-1080.331 -305.973)" fill="#0080f4"/>
          <path id="路径_38178" data-name="路径 38178" d="M1120.565,312.044l-.765-1.07-1.315.024.781-1.058-.429-1.243,1.248.416,1.05-.792-.01,1.315,1.078.754-1.254.4Z" transform="translate(-1107.366 -306.616)" fill="#0080f4"/>
          <path id="路径_38179" data-name="路径 38179" d="M1105.089,305.087l-.537-.751-.924.017.549-.743-.3-.873.876.292.737-.556-.007.924.757.529-.881.279Z" transform="translate(-1096.839 -302.471)" fill="#0080f4"/>
          <path id="路径_38180" data-name="路径 38180" d="M1086.139,334.861l-.374-.522-.642.012.381-.517-.209-.607.609.2.513-.387,0,.642.526.368-.612.194Z" transform="translate(-1083.727 -324.133)" fill="#0080f4"/>
          <path id="路径_38181" data-name="路径 38181" d="M1091.787,346.328l-.287-1.246-1.189-.47,1.1-.658.08-1.276.964.839,1.238-.319-.5,1.176.685,1.079-1.273-.112Z" transform="translate(-1087.403 -330.962)" fill="#0080f4"/>
        </g>
        <path id="路径_38182" data-name="路径 38182" d="M1197.1,367.129c-2.057-.286-4.009.577-5.78,1.3a7.425,7.425,0,0,1-2.392.688c-1.077-.667-.831-2.038-.356-2.937a8.22,8.22,0,0,1,1.918-2.25,13.07,13.07,0,0,1,5.662-2.44l-.166-1.516a11.7,11.7,0,0,0-6.467,2.8,9.543,9.543,0,0,0-2.274,2.676c-.928,2.063-.855,4.54,1.611,5.189a7.442,7.442,0,0,0,3.056-.806c1.749-.648,3.931-1.81,5.614-.971Z" transform="translate(-1007.814 -319.147)"/>
        <path id="路径_38183" data-name="路径 38183" d="M1199.093,515.664l25.176,12.942,33.566-5.785,8.816-19.853-22.065-12.578" transform="translate(-1016.597 -411.555)" fill="none" stroke="#231815" stroke-miterlimit="10" stroke-width="1"/>
        <g id="组_21572" data-name="组 21572" transform="translate(182.579 59.042)">
          <line id="直线_402" data-name="直线 402" y2="4.092" transform="translate(0)" fill="none" stroke="#231815" stroke-miterlimit="10" stroke-width="1"/>
          <line id="直线_403" data-name="直线 403" y2="4.092" transform="translate(0 5.61)" fill="none" stroke="#231815" stroke-miterlimit="10" stroke-width="1"/>
          <line id="直线_404" data-name="直线 404" y2="4.092" transform="translate(0 11.426)" fill="none" stroke="#231815" stroke-miterlimit="10" stroke-width="1"/>
          <line id="直线_405" data-name="直线 405" y2="4.602" transform="translate(0 17.109)" fill="none" stroke="#231815" stroke-miterlimit="10" stroke-width="1"/>
          <line id="直线_406" data-name="直线 406" y2="4.408" transform="translate(0 23.374)" fill="none" stroke="#231815" stroke-miterlimit="10" stroke-width="1"/>
          <line id="直线_407" data-name="直线 407" y2="4.189" transform="translate(0 29.349)" fill="none" stroke="#231815" stroke-miterlimit="10" stroke-width="1"/>
          <line id="直线_408" data-name="直线 408" y2="4.189" transform="translate(0 35.262)" fill="none" stroke="#231815" stroke-miterlimit="10" stroke-width="1"/>
          <line id="直线_409" data-name="直线 409" y2="4.189" transform="translate(0 41.048)" fill="none" stroke="#231815" stroke-miterlimit="10" stroke-width="1"/>
        </g>
        <g id="组_21573" data-name="组 21573" transform="translate(250.053 46.075)">
          <line id="直线_410" data-name="直线 410" y2="4.092" fill="none" stroke="#231815" stroke-miterlimit="10" stroke-width="1"/>
          <line id="直线_411" data-name="直线 411" y2="4.092" transform="translate(0 5.61)" fill="none" stroke="#231815" stroke-miterlimit="10" stroke-width="1"/>
          <line id="直线_412" data-name="直线 412" y2="4.092" transform="translate(0 11.426)" fill="none" stroke="#231815" stroke-miterlimit="10" stroke-width="1"/>
          <line id="直线_413" data-name="直线 413" y2="4.602" transform="translate(0 17.109)" fill="none" stroke="#231815" stroke-miterlimit="10" stroke-width="1"/>
          <line id="直线_414" data-name="直线 414" y2="4.408" transform="translate(0 23.374)" fill="none" stroke="#231815" stroke-miterlimit="10" stroke-width="1"/>
          <line id="直线_415" data-name="直线 415" y2="4.189" transform="translate(0 29.349)" fill="none" stroke="#231815" stroke-miterlimit="10" stroke-width="1"/>
          <line id="直线_416" data-name="直线 416" y2="4.189" transform="translate(0 35.262)" fill="none" stroke="#231815" stroke-miterlimit="10" stroke-width="1"/>
          <line id="直线_417" data-name="直线 417" y2="4.189" transform="translate(0 41.048)" fill="none" stroke="#231815" stroke-miterlimit="10" stroke-width="1"/>
        </g>
        <g id="组_21574" data-name="组 21574" transform="translate(228.086 62.924)">
          <line id="直线_418" data-name="直线 418" y2="4.209" transform="translate(0)" fill="none" stroke="#231815" stroke-miterlimit="10" stroke-width="1"/>
          <line id="直线_419" data-name="直线 419" y2="4.209" transform="translate(0 5.942)" fill="none" stroke="#231815" stroke-miterlimit="10" stroke-width="1"/>
          <line id="直线_420" data-name="直线 420" y2="4.209" transform="translate(0 11.756)" fill="none" stroke="#231815" stroke-miterlimit="10" stroke-width="1"/>
        </g>
        <g id="组_21575" data-name="组 21575" transform="translate(245.813 76.615)">
          <line id="直线_421" data-name="直线 421" y2="4.209" fill="none" stroke="#231815" stroke-miterlimit="10" stroke-width="1"/>
          <line id="直线_422" data-name="直线 422" y2="4.209" transform="translate(0 5.942)" fill="none" stroke="#231815" stroke-miterlimit="10" stroke-width="1"/>
          <line id="直线_423" data-name="直线 423" y2="4.209" transform="translate(0 11.756)" fill="none" stroke="#231815" stroke-miterlimit="10" stroke-width="1"/>
        </g>
        <g id="组_21576" data-name="组 21576" transform="translate(193.736 68.678)">
          <line id="直线_424" data-name="直线 424" y2="4.112" transform="translate(0)" fill="none" stroke="#231815" stroke-miterlimit="10" stroke-width="1"/>
          <line id="直线_425" data-name="直线 425" y2="4.112" transform="translate(0 5.637)" fill="none" stroke="#231815" stroke-miterlimit="10" stroke-width="1"/>
          <line id="直线_426" data-name="直线 426" y2="4.112" transform="translate(0 11.482)" fill="none" stroke="#231815" stroke-miterlimit="10" stroke-width="1"/>
        </g>
        <ellipse id="椭圆_1775" data-name="椭圆 1775" cx="15.151" cy="9.257" rx="15.151" ry="9.257" transform="translate(200.705 87.108)" fill="none" stroke="#0080f4" stroke-miterlimit="10" stroke-width="1"/>
        <line id="直线_427" data-name="直线 427" x1="20.569" y2="13.594" transform="translate(205.482 89.518)" fill="none" stroke="#0080f4" stroke-miterlimit="10" stroke-width="1"/>
        <path id="路径_38184" data-name="路径 38184" d="M1328.531,550.6c-1.791-.835-5.785-.083-9.555,2.324-3.313,2.115-5.452,4.76-5.789,6.685" transform="translate(-1097.441 -453.988)" fill="none" stroke="#0080f4" stroke-miterlimit="10" stroke-width="1"/>
        <path id="路径_38185" data-name="路径 38185" d="M1261.576,528.11a20.5,20.5,0,0,0,8.99-1.886c4.7-2.248,7.506-5.525,7.745-8.074" transform="translate(-1060.871 -431.226)" fill="none" stroke="#0080f4" stroke-miterlimit="10" stroke-width="1"/>
        <line id="直线_428" data-name="直线 428" x2="23.111" y2="11.97" transform="translate(204.47 90.259)" fill="none" stroke="#0080f4" stroke-miterlimit="10" stroke-width="1"/>
        <g id="组_21577" data-name="组 21577" transform="translate(202.669 89.263)">
          <path id="路径_38186" data-name="路径 38186" d="M1275.454,527.073c2.5-1.546,7.909-1.1,13.472,1.348,6.8,2.986,10.4,7.482,9.8,10.375" transform="translate(-1273.373 -526.175)" fill="none" stroke="#0080f4" stroke-miterlimit="10" stroke-width="1" stroke-dasharray="10 5"/>
          <path id="路径_38187" data-name="路径 38187" d="M1291.56,546.22c-2.768,1.385-7.909,1.1-13.472-1.347-6.8-2.986-10.3-7.321-9.709-10.214" transform="translate(-1268.314 -532.186)" fill="none" stroke="#0080f4" stroke-miterlimit="10" stroke-width="1" stroke-dasharray="10 5"/>
        </g>
        <path id="路径_38188" data-name="路径 38188" d="M1219.568,295.078a64.283,64.283,0,0,0,4.5,12.459,38.328,38.328,0,0,0,7.319,10.637c2.778,2.692,5.9,4.382,9.191,4.382,5.18,0,9.833-2.577,13.573-5.07,1.871-1.246,3.52-2.481,4.856-3.387a8.074,8.074,0,0,1,2.8-1.4,11.3,11.3,0,0,1,3.767,1.066c1.454.619,2.975,1.371,4.287,1.9a.8.8,0,0,0,1.042-.687,9.791,9.791,0,0,0-6.277-9.239,11.616,11.616,0,0,0-9.475.545c1.721-3.685,3.664-7.658,5.353-11.678,2-4.771,3.577-9.346,3.577-12.981,0-15.539-11.659-25.772-22.74-25.772-12.494,0-23.474,9.462-23.5,24.209a.217.217,0,0,1,0,.024v.023a44.54,44.54,0,0,0,.19,6.088l.166,1.516c.228,1.855.529,3.747.948,5.637Z" transform="translate(-1029.855 -245.367)" fill="#fff" stroke="#000" stroke-miterlimit="10" stroke-width="1"/>
        <path id="路径_38189" data-name="路径 38189" d="M1286.428,298.989c.658-2.028,1.953-3.9,4.43-4.122,2.026.039,3.383,2.2,4.122,4.1a22.339,22.339,0,0,1,1.185,7.272.8.8,0,0,1-1.185.616,7.935,7.935,0,0,0-4.122-.995,8.03,8.03,0,0,0-4.145.995.8.8,0,0,1-1.161-.616A25.059,25.059,0,0,1,1286.428,298.989Z" transform="translate(-1077.859 -273.012)"/>
        <path id="路径_38190" data-name="路径 38190" d="M1237.292,306.853a.8.8,0,0,1-1.161-.616,25.072,25.072,0,0,1,.876-7.249c.658-2.028,1.953-3.9,4.43-4.122,2.025.039,3.382,2.2,4.122,4.1a22.358,22.358,0,0,1,1.184,7.272.8.8,0,0,1-1.184.616,7.938,7.938,0,0,0-4.122-.995A8.025,8.025,0,0,0,1237.292,306.853Z" transform="translate(-1042.841 -273.012)"/>
        <path id="路径_38191" data-name="路径 38191" d="M1273.676,363.137a11.41,11.41,0,0,0-12.365-.971,13.751,13.751,0,0,0-4.193,3.1c-.983,1.146-1.876,2.8-.189,3.672a7.989,7.989,0,0,0,2.677-.143c2.513-.42,5.076-.854,7.438.735l-.948,1.184c-1.616-1.25-4.158-.742-6.23-.426a8.511,8.511,0,0,1-3.292.142c-3.3-.859-2.049-4.385-.592-6.159a15.1,15.1,0,0,1,4.666-3.458,13.357,13.357,0,0,1,13.952,1.114Z" transform="translate(-1055.845 -318.708)"/>
      </g>
    </g>
    <g id="组_22001" data-name="组 22001" transform="translate(0 6.136)">
      <path id="路径_39946" data-name="路径 39946" d="M1.92,1.795a1.67,1.67,0,0,1-1.3-.533A1.977,1.977,0,0,1,.138-.125a2.1,2.1,0,0,1,.5-1.464,1.732,1.732,0,0,1,1.35-.546,1.632,1.632,0,0,1,1.269.53A1.985,1.985,0,0,1,3.734-.218a2.1,2.1,0,0,1-.493,1.472A1.7,1.7,0,0,1,1.92,1.795Zm.032-3.528A1.226,1.226,0,0,0,.978-1.3,1.674,1.674,0,0,0,.6-.165,1.685,1.685,0,0,0,.969.966a1.189,1.189,0,0,0,.951.428A1.249,1.249,0,0,0,2.907.986,1.669,1.669,0,0,0,3.267-.157a1.744,1.744,0,0,0-.35-1.164A1.2,1.2,0,0,0,1.952-1.733Zm14,1.926q0,1.6-1.446,1.6-1.385,0-1.385-1.541V-2.072h.446v2.3q0,1.17.987,1.17.952,0,.952-1.13V-2.072h.446ZM28.323,1.731h-.53L27.156.665a2.322,2.322,0,0,0-.17-.253.968.968,0,0,0-.168-.171.583.583,0,0,0-.186-.1.763.763,0,0,0-.224-.031h-.366V1.731H25.6v-3.8h1.135a1.618,1.618,0,0,1,.46.062,1.03,1.03,0,0,1,.366.19A.881.881,0,0,1,27.8-1.5a1.051,1.051,0,0,1,.088.444,1.07,1.07,0,0,1-.06.365.952.952,0,0,1-.17.3,1.029,1.029,0,0,1-.265.221,1.354,1.354,0,0,1-.349.142v.011a.8.8,0,0,1,.166.1A.912.912,0,0,1,27.344.2a1.7,1.7,0,0,1,.126.168q.062.094.139.219Zm-2.281-3.4V-.29h.6a.917.917,0,0,0,.309-.05A.715.715,0,0,0,27.2-.485a.656.656,0,0,0,.162-.231.773.773,0,0,0,.058-.306.6.6,0,0,0-.2-.476.849.849,0,0,0-.572-.171Zm25.551,3.4H51.15V-.82q0-.3.037-.74h-.011a2.366,2.366,0,0,1-.114.369l-1.3,2.923h-.217l-1.3-2.9a2.273,2.273,0,0,1-.114-.39h-.011q.021.228.021.745V1.731h-.43v-3.8H48.3L49.471.58a3.4,3.4,0,0,1,.175.456h.016q.114-.313.183-.467l1.191-2.642h.557Zm10.137,0h-.446v-3.8h.446Zm9.513-.154V1.052a1.02,1.02,0,0,0,.216.143,1.751,1.751,0,0,0,.265.107,2.112,2.112,0,0,0,.28.068,1.56,1.56,0,0,0,.26.024,1.018,1.018,0,0,0,.614-.153.516.516,0,0,0,.2-.439.515.515,0,0,0-.068-.268.762.762,0,0,0-.187-.208,1.856,1.856,0,0,0-.282-.18q-.163-.086-.351-.182t-.371-.2a1.609,1.609,0,0,1-.3-.228.952.952,0,0,1-.2-.282.874.874,0,0,1-.073-.37.87.87,0,0,1,.114-.452.978.978,0,0,1,.3-.317,1.359,1.359,0,0,1,.423-.186,1.937,1.937,0,0,1,.484-.061,1.855,1.855,0,0,1,.82.135v.5a1.486,1.486,0,0,0-.865-.233,1.422,1.422,0,0,0-.292.031.824.824,0,0,0-.26.1.576.576,0,0,0-.186.178.472.472,0,0,0-.072.265.546.546,0,0,0,.054.252.618.618,0,0,0,.16.194,1.6,1.6,0,0,0,.259.17q.153.082.351.18t.387.212a1.77,1.77,0,0,1,.321.247,1.1,1.1,0,0,1,.219.3.843.843,0,0,1,.081.377.955.955,0,0,1-.11.476.9.9,0,0,1-.3.317,1.3,1.3,0,0,1-.431.176,2.36,2.36,0,0,1-.515.054,2.1,2.1,0,0,1-.223-.015q-.133-.015-.271-.042a2.208,2.208,0,0,1-.261-.069A.813.813,0,0,1,71.243,1.577Zm11.577,0V1.052a1.02,1.02,0,0,0,.216.143A1.752,1.752,0,0,0,83.3,1.3a2.111,2.111,0,0,0,.28.068,1.56,1.56,0,0,0,.26.024,1.018,1.018,0,0,0,.614-.153.516.516,0,0,0,.2-.439A.515.515,0,0,0,84.59.535.762.762,0,0,0,84.4.327a1.855,1.855,0,0,0-.282-.18q-.163-.086-.351-.182t-.371-.2a1.609,1.609,0,0,1-.3-.228.951.951,0,0,1-.2-.282.874.874,0,0,1-.073-.37.87.87,0,0,1,.114-.452.978.978,0,0,1,.3-.317,1.359,1.359,0,0,1,.423-.186,1.937,1.937,0,0,1,.484-.061,1.855,1.855,0,0,1,.82.135v.5a1.486,1.486,0,0,0-.865-.233,1.422,1.422,0,0,0-.292.031.824.824,0,0,0-.26.1.576.576,0,0,0-.186.178.472.472,0,0,0-.072.265.546.546,0,0,0,.054.252.618.618,0,0,0,.16.194,1.6,1.6,0,0,0,.259.17q.153.082.351.18t.387.212a1.77,1.77,0,0,1,.321.247,1.1,1.1,0,0,1,.219.3.843.843,0,0,1,.081.377.955.955,0,0,1-.11.476.9.9,0,0,1-.3.317,1.3,1.3,0,0,1-.431.176,2.36,2.36,0,0,1-.515.054,2.1,2.1,0,0,1-.223-.015q-.133-.015-.271-.042a2.208,2.208,0,0,1-.261-.069A.813.813,0,0,1,82.82,1.577Zm12.2.154h-.446v-3.8h.446Zm11.224.064a1.67,1.67,0,0,1-1.3-.533,1.977,1.977,0,0,1-.487-1.387,2.1,2.1,0,0,1,.5-1.464,1.732,1.732,0,0,1,1.35-.546,1.632,1.632,0,0,1,1.269.53,1.985,1.985,0,0,1,.481,1.387,2.1,2.1,0,0,1-.493,1.472A1.7,1.7,0,0,1,106.244,1.795Zm.032-3.528a1.226,1.226,0,0,0-.973.432,1.674,1.674,0,0,0-.374,1.135,1.685,1.685,0,0,0,.365,1.131,1.189,1.189,0,0,0,.951.428,1.249,1.249,0,0,0,.987-.408,1.669,1.669,0,0,0,.361-1.143,1.744,1.744,0,0,0-.35-1.164A1.2,1.2,0,0,0,106.276-1.733Zm14.287,3.464h-.546L118.059-1.3a1.267,1.267,0,0,1-.122-.239h-.016a3.915,3.915,0,0,1,.021.523V1.731H117.5v-3.8h.578l1.9,2.984q.119.186.154.255h.011a4.025,4.025,0,0,1-.027-.56V-2.072h.446Z" transform="translate(6647.862 -619)"/>
      <path id="路径_40079" data-name="路径 40079" d="M271.025.375a23.326,23.326,0,0,1-.175-3.225v-7.8a26.863,26.863,0,0,1,.175-3.2h-4.1a1.423,1.423,0,0,1-.075.4c-.075.325-.675,2.025-.725,2.15L262.55-3.775l-3.6-7.525c-.075-.2-.625-1.775-.725-2.075-.025-.15-.05-.25-.075-.475h-4.1a27.881,27.881,0,0,1,.175,3.225V-2.85A22.389,22.389,0,0,1,254.05.375h3.25a23.81,23.81,0,0,1-.175-3.225V-7.725c0-.625-.025-1.175-.1-2.1A12.944,12.944,0,0,0,257.7-8l2.7,5.5A18.087,18.087,0,0,1,261.45.375h2.175a15.72,15.72,0,0,1,1.025-2.85L267.375-8a13.717,13.717,0,0,0,.675-1.825,20.981,20.981,0,0,0-.1,2.1V-2.85a26.151,26.151,0,0,1-.175,3.225ZM273.3-13.85a27.754,27.754,0,0,1,.175,3.2v7.8a21.677,21.677,0,0,1-.2,3.225h3.55a13.8,13.8,0,0,1,1.4-2.3l4.8-6.35a4.371,4.371,0,0,0,.45-.725c.025-.05.075-.125.15-.25-.025.525-.025.525-.05,1.325l-.025,5.1a22.936,22.936,0,0,1-.175,3.2h3.475a25.34,25.34,0,0,1-.175-3.225v-7.8a25.465,25.465,0,0,1,.175-3.2h-3.5a9.883,9.883,0,0,1-1.4,2.325l-4.725,6.3c-.15.2-.375.55-.55.825a1.6,1.6,0,0,1-.15.25c.025-.7.05-1.175.05-1.425v-5.05a25.077,25.077,0,0,1,.175-3.225ZM294.225,2.975A22.893,22.893,0,0,1,294.05.3V-1.45A12.649,12.649,0,0,0,294-2.775a3.342,3.342,0,0,0,.95,1,6.626,6.626,0,0,0,3.9,1.15c4.325,0,6.9-2.575,6.9-6.9,0-4.175-2.475-6.65-6.65-6.65A6.026,6.026,0,0,0,294-12c.025-.375.025-.5.025-.75v-1.1h-3.3a22.449,22.449,0,0,1,.175,3.075v10.7a21.589,21.589,0,0,1-.175,3.05ZM294.15-7.4a4.3,4.3,0,0,1,1.325-3.175A4.716,4.716,0,0,1,298.4-11.7c2.55,0,4.025,1.55,4.025,4.25,0,2.675-1.475,4.325-3.9,4.325A4.205,4.205,0,0,1,294.15-7.4Zm17.225,4.05H307.7V.3h2.1c-.025,1.55-.375,2-1.9,2.425l.9,1.325c2.025-.8,2.575-1.6,2.575-3.75ZM6.475,30.15a25.056,25.056,0,0,1,.175,3.175v7.85a25.2,25.2,0,0,1-.175,3.2h3.5a25.2,25.2,0,0,1-.175-3.2v-2.9h.625a3.517,3.517,0,0,1,1,.15,5.473,5.473,0,0,1,2.025,2.35c1.725,2.95,1.725,2.95,1.925,3.6h4.4a12.8,12.8,0,0,1-1.35-1.8c-1.175-1.725-1.175-1.725-1.8-2.6a11.326,11.326,0,0,0-1.65-2.2,3.343,3.343,0,0,0-2.25-.925A3.138,3.138,0,0,0,14.7,35.525l1.7-2.475a1.132,1.132,0,0,1,.95-.55,1.491,1.491,0,0,1,.8.25L19,30.275a4.607,4.607,0,0,0-2.125-.425,3.193,3.193,0,0,0-2.825,1.575l-1.95,2.95a2.436,2.436,0,0,1-1.95,1.15H9.8v-2.2a23.026,23.026,0,0,1,.175-3.175Zm23.6,14.7c4.45,0,7.375-3.05,7.375-7.675S34.575,29.6,30.05,29.6c-4.55,0-7.45,2.975-7.45,7.625C22.6,41.9,25.5,44.85,30.075,44.85ZM30.05,32.2c2.65,0,4.175,1.85,4.175,5.075,0,3.05-1.6,4.925-4.2,4.925s-4.2-1.9-4.2-4.975C25.825,34.1,27.425,32.2,30.05,32.2ZM49.325,44.375a25.75,25.75,0,0,1-.175-3.25v-8.25H51.1a27.694,27.694,0,0,1,3.2.15v-3.05a22.936,22.936,0,0,1-3.2.175H44a23.661,23.661,0,0,1-3.2-.175v3.05a29.591,29.591,0,0,1,3.25-.15h1.9v8.25a23.005,23.005,0,0,1-.175,3.25Zm15.8.475c4.45,0,7.375-3.05,7.375-7.675S69.625,29.6,65.1,29.6c-4.55,0-7.45,2.975-7.45,7.625C57.65,41.9,60.55,44.85,65.125,44.85ZM65.1,32.2c2.65,0,4.175,1.85,4.175,5.075,0,3.05-1.6,4.925-4.2,4.925s-4.2-1.9-4.2-4.975C60.875,34.1,62.475,32.2,65.1,32.2ZM79.225,46.975A22.894,22.894,0,0,1,79.05,44.3V42.55A12.654,12.654,0,0,0,79,41.225a3.342,3.342,0,0,0,.95,1,6.626,6.626,0,0,0,3.9,1.15c4.325,0,6.9-2.575,6.9-6.9,0-4.175-2.475-6.65-6.65-6.65A6.026,6.026,0,0,0,79,32c.025-.375.025-.5.025-.75v-1.1h-3.3a22.449,22.449,0,0,1,.175,3.075v10.7a21.589,21.589,0,0,1-.175,3.05ZM79.15,36.6a4.3,4.3,0,0,1,1.325-3.175A4.716,4.716,0,0,1,83.4,32.3c2.55,0,4.025,1.55,4.025,4.25,0,2.675-1.475,4.325-3.9,4.325A4.205,4.205,0,0,1,79.15,36.6Zm15.675-1.35v-1.9A19.993,19.993,0,0,1,95,30.15H91.65a27.582,27.582,0,0,1,.175,3.225v7.9a24.528,24.528,0,0,1-.175,3.175c1-.05,1.675-.075,3.05-.075h4.075c3.25,0,5.1-1.65,5.1-4.575,0-2.9-1.85-4.55-5.1-4.55Zm0,6.55V37.825h3.45c1.75,0,2.5.6,2.5,2.025,0,1.375-.7,1.95-2.45,1.95Zm10.4-11.65a22.074,22.074,0,0,1,.175,3.2v7.825a22.937,22.937,0,0,1-.175,3.2H108.6a21.56,21.56,0,0,1-.175-3.2V33.35a24.16,24.16,0,0,1,.175-3.2Zm5.65,0a27.754,27.754,0,0,1,.175,3.2v7.8a21.676,21.676,0,0,1-.2,3.225h3.55a13.8,13.8,0,0,1,1.4-2.3l4.8-6.35a4.371,4.371,0,0,0,.45-.725c.025-.05.075-.125.15-.25-.025.525-.025.525-.05,1.325l-.025,5.1a22.936,22.936,0,0,1-.175,3.2h3.475a25.34,25.34,0,0,1-.175-3.225v-7.8a25.464,25.464,0,0,1,.175-3.2h-3.5a9.883,9.883,0,0,1-1.4,2.325l-4.725,6.3c-.15.2-.375.55-.55.825a1.6,1.6,0,0,1-.15.25c.025-.7.05-1.175.05-1.425v-5.05a25.076,25.076,0,0,1,.175-3.225Zm8.875-2.65c-.25.875-.875,1.275-2.05,1.275a2.592,2.592,0,0,1-1.55-.425,1.3,1.3,0,0,1-.5-.85h-2.025a2.8,2.8,0,0,0,.8,1.475A4.32,4.32,0,0,0,117.6,30.1a4.922,4.922,0,0,0,3.175-1,2.576,2.576,0,0,0,1-1.6Zm16.725,16.875c3.325,0,5.1-1.375,5.1-3.95a3.376,3.376,0,0,0-1.15-2.725,3.286,3.286,0,0,0-2.05-.825,3.067,3.067,0,0,0,2.65-3.25c0-2.325-1.6-3.475-4.775-3.475h-4.125c-1.5,0-2.125-.025-3.125-.075a24.414,24.414,0,0,1,.175,3.2V41.25a24.414,24.414,0,0,1-.175,3.2c1.1-.05,1.75-.075,3.15-.075Zm-4.225-8.55V32.55h3.65c1.425,0,2.1.5,2.1,1.55,0,1.125-.725,1.725-2.075,1.725Zm0,2.225h3.8c1.65,0,2.425.625,2.425,1.975,0,1.3-.775,1.925-2.4,1.925H132.25Zm12.3,7.025A8.421,8.421,0,0,1,144.375,47H147.9a11.264,11.264,0,0,1-.15-1.9v-.75h9.475v.8A7.083,7.083,0,0,1,157.05,47h3.55a8.989,8.989,0,0,1-.175-2V43.575a13.216,13.216,0,0,1,.175-2c-.825.05-.95.05-1.475.05v-8.3a24.208,24.208,0,0,1,.175-3.25c-1,.075-1.375.075-3.15.075h-5.425c-1.75,0-2.15,0-3.125-.075a26.856,26.856,0,0,1,.15,2.975,22.055,22.055,0,0,1-.4,4.525,12.5,12.5,0,0,1-1.5,4.05c-.625-.025-.625-.025-1.475-.05a12.542,12.542,0,0,1,.175,2.025Zm4.55-3.425a14.22,14.22,0,0,0,1.35-3.8,24.487,24.487,0,0,0,.4-5h5.2v8.8Zm21.175,3.2c4.45,0,7.375-3.05,7.375-7.675s-2.875-7.575-7.4-7.575c-4.55,0-7.45,2.975-7.45,7.625C162.8,41.9,165.7,44.85,170.275,44.85ZM170.25,32.2c2.65,0,4.175,1.85,4.175,5.075,0,3.05-1.6,4.925-4.2,4.925s-4.2-1.9-4.2-4.975C166.025,34.1,167.625,32.2,170.25,32.2Zm24.875,12.25c-.675-.825-1.5-1.925-1.85-2.4l-3.65-5.1L193,32.225c.4-.575.8-1.125,1.6-2.15h-3.875a12.374,12.374,0,0,1-1.05,1.9l-1.9,2.8-1.925-2.8a11.783,11.783,0,0,1-1.05-1.9h-3.9c1.125,1.45,1.325,1.725,1.6,2.1l3.4,4.775-3.75,5.225c-.425.6-1.2,1.6-1.75,2.275h4.025a13.5,13.5,0,0,1,1.075-1.9l2.25-3.35,2.175,3.2a13.34,13.34,0,0,1,1.175,2.05Zm6.775-.075a23.417,23.417,0,0,1-.175-3.2V38.35h7.1v2.825a26.291,26.291,0,0,1-.175,3.2h3.45a23.909,23.909,0,0,1-.175-3.2v-7.8a22.389,22.389,0,0,1,.175-3.225h-3.45a25.606,25.606,0,0,1,.175,3.225V35.6h-7.1V33.35a24.671,24.671,0,0,1,.175-3.2h-3.45a26.012,26.012,0,0,1,.175,3.2v7.825a19.815,19.815,0,0,1-.175,3.2Zm20.95.475c4.45,0,7.375-3.05,7.375-7.675s-2.875-7.575-7.4-7.575c-4.55,0-7.45,2.975-7.45,7.625C215.375,41.9,218.275,44.85,222.85,44.85Zm-.025-12.65c2.65,0,4.175,1.85,4.175,5.075,0,3.05-1.6,4.925-4.2,4.925s-4.2-1.9-4.2-4.975C218.6,34.1,220.2,32.2,222.825,32.2Zm18.8,12.175c3.325,0,5.1-1.375,5.1-3.95a3.376,3.376,0,0,0-1.15-2.725,3.286,3.286,0,0,0-2.05-.825,3.067,3.067,0,0,0,2.65-3.25c0-2.325-1.6-3.475-4.775-3.475h-4.125c-1.5,0-2.125-.025-3.125-.075a24.414,24.414,0,0,1,.175,3.2V41.25a24.414,24.414,0,0,1-.175,3.2c1.1-.05,1.75-.075,3.15-.075Zm-4.225-8.55V32.55h3.65c1.425,0,2.1.5,2.1,1.55,0,1.125-.725,1.725-2.075,1.725Zm0,2.225h3.8c1.65,0,2.425.625,2.425,1.975,0,1.3-.775,1.925-2.4,1.925H237.4Zm18.175-7.9c-1.325,0-1.825-.025-3-.075.025.625.05.875.05,1.425a11.1,11.1,0,0,1-.05,1.35l-.35,6.95c-.075,1.325-.45,1.9-1.275,1.9a2.111,2.111,0,0,1-1-.3l-.625,2.9a6.393,6.393,0,0,0,2.275.375,3.546,3.546,0,0,0,2.725-1.175,5.128,5.128,0,0,0,.95-3.05l.425-7.575h4.825V41.65a19.948,19.948,0,0,1-.175,2.725h3.5a18.5,18.5,0,0,1-.175-2.725v-8.8a19.438,19.438,0,0,1,.175-2.775c-.925.05-1.5.075-2.85.075Zm22.2,8.5v2.475a25.751,25.751,0,0,1-.175,3.25h3.45a24.817,24.817,0,0,1-.175-3.225V33.275a24.932,24.932,0,0,1,.175-3.2c-1.025.05-1.8.075-3.15.075h-4.175c-3,0-4.75,1.425-4.75,3.875a3.34,3.34,0,0,0,1.325,2.9,3.483,3.483,0,0,0,1.75.675,2.212,2.212,0,0,0-1.05.625,10.833,10.833,0,0,0-1.575,2.625,24.194,24.194,0,0,1-1.8,3.525H271.5a17.589,17.589,0,0,1,1.275-3.35c.9-1.9,1.375-2.375,2.5-2.375Zm0-2.575h-3.5c-1.425,0-2.125-.55-2.125-1.675s.675-1.675,2.05-1.675h3.575Zm22.2,1.95c-.05-.575-.05-.65-.05-.7a10.277,10.277,0,0,0-.725-3.8,6.351,6.351,0,0,0-6.225-3.95c-4.275,0-7.05,3.025-7.05,7.65,0,4.675,2.8,7.625,7.225,7.625a7.1,7.1,0,0,0,5.15-1.925,7.026,7.026,0,0,0,1.525-2.3l-2.95-.95a3.634,3.634,0,0,1-.725,1.3,4.206,4.206,0,0,1-6.125-.15,4.647,4.647,0,0,1-.925-2.8Zm-10.8-2.475a3.755,3.755,0,0,1,3.75-3.4,3.565,3.565,0,0,1,2.7,1,3.924,3.924,0,0,1,1.1,2.4ZM14.275,88.375a25.751,25.751,0,0,1-.175-3.25v-8.25h1.95a27.694,27.694,0,0,1,3.2.15v-3.05a22.936,22.936,0,0,1-3.2.175H8.95a23.661,23.661,0,0,1-3.2-.175v3.05A29.592,29.592,0,0,1,9,76.875h1.9v8.25a23.005,23.005,0,0,1-.175,3.25ZM28.6,74.15c-1.325,0-1.825-.025-3-.075.025.625.05.875.05,1.425a11.1,11.1,0,0,1-.05,1.35l-.35,6.95c-.075,1.325-.45,1.9-1.275,1.9a2.111,2.111,0,0,1-1-.3l-.625,2.9a6.393,6.393,0,0,0,2.275.375A3.546,3.546,0,0,0,27.35,87.5a5.128,5.128,0,0,0,.95-3.05l.425-7.575H33.55V85.65a19.948,19.948,0,0,1-.175,2.725h3.5A18.5,18.5,0,0,1,36.7,85.65v-8.8a19.438,19.438,0,0,1,.175-2.775c-.925.05-1.5.075-2.85.075Zm14.475,8.075h1.8a8.384,8.384,0,0,0,1.15,3.9,5.73,5.73,0,0,0,5.175,2.6c4.125,0,6.6-2.825,6.6-7.55,0-4.65-2.425-7.4-6.5-7.4a5.953,5.953,0,0,0-4.475,1.7c-.975,1-1.425,2-1.9,4.225h-1.85V77.375a24.817,24.817,0,0,1,.175-3.225H39.825A23.392,23.392,0,0,1,40,77.4v7.725a27.714,27.714,0,0,1-.175,3.25H43.25a26.019,26.019,0,0,1-.175-3.25Zm8.15,3.95a3,3,0,0,1-2.175-.825,6.024,6.024,0,0,1-1.225-4.05c0-3.125,1.3-4.975,3.45-4.975,2.125,0,3.375,1.8,3.375,4.85a6.265,6.265,0,0,1-1.225,4.1A2.916,2.916,0,0,1,51.225,86.175Zm6.55,2.9A8.421,8.421,0,0,1,57.6,91h3.525a11.263,11.263,0,0,1-.15-1.9v-.75H70.45v.8A7.083,7.083,0,0,1,70.275,91h3.55a8.989,8.989,0,0,1-.175-2V87.575a13.217,13.217,0,0,1,.175-2c-.825.05-.95.05-1.475.05v-8.3a24.208,24.208,0,0,1,.175-3.25c-1,.075-1.375.075-3.15.075H63.95c-1.75,0-2.15,0-3.125-.075a26.858,26.858,0,0,1,.15,2.975,22.055,22.055,0,0,1-.4,4.525,12.5,12.5,0,0,1-1.5,4.05c-.625-.025-.625-.025-1.475-.05a12.542,12.542,0,0,1,.175,2.025Zm4.55-3.425a14.22,14.22,0,0,0,1.35-3.8,24.487,24.487,0,0,0,.4-5h5.2v8.8Zm28.2-3.625c-.05-.575-.05-.65-.05-.7a10.277,10.277,0,0,0-.725-3.8,6.351,6.351,0,0,0-6.225-3.95c-4.275,0-7.05,3.025-7.05,7.65,0,4.675,2.8,7.625,7.225,7.625a7.1,7.1,0,0,0,5.15-1.925,7.026,7.026,0,0,0,1.525-2.3l-2.95-.95a3.633,3.633,0,0,1-.725,1.3,4.206,4.206,0,0,1-6.125-.15,4.647,4.647,0,0,1-.925-2.8Zm-10.8-2.475a3.755,3.755,0,0,1,3.75-3.4,3.565,3.565,0,0,1,2.7,1,3.924,3.924,0,0,1,1.1,2.4ZM94.2,74.15a27.754,27.754,0,0,1,.175,3.2v7.8a21.676,21.676,0,0,1-.2,3.225h3.55a13.8,13.8,0,0,1,1.4-2.3l4.8-6.35a4.37,4.37,0,0,0,.45-.725c.025-.05.075-.125.15-.25-.025.525-.025.525-.05,1.325l-.025,5.1a22.936,22.936,0,0,1-.175,3.2h3.475a25.34,25.34,0,0,1-.175-3.225v-7.8a25.464,25.464,0,0,1,.175-3.2h-3.5a9.883,9.883,0,0,1-1.4,2.325l-4.725,6.3c-.15.2-.375.55-.55.825a1.6,1.6,0,0,1-.15.25c.025-.7.05-1.175.05-1.425v-5.05a25.076,25.076,0,0,1,.175-3.225Zm8.875-2.65c-.25.875-.875,1.275-2.05,1.275a2.592,2.592,0,0,1-1.55-.425,1.3,1.3,0,0,1-.5-.85H96.95a2.8,2.8,0,0,0,.8,1.475,4.32,4.32,0,0,0,3.175,1.125,4.922,4.922,0,0,0,3.175-1,2.576,2.576,0,0,0,1-1.6Zm23,6.6a8.322,8.322,0,0,0-.875-1.825,6.466,6.466,0,0,0-5.6-2.7,6.846,6.846,0,0,0-5.025,1.9,8.084,8.084,0,0,0-2.125,5.775c0,4.625,2.85,7.6,7.25,7.6a6.545,6.545,0,0,0,5.5-2.5,7.486,7.486,0,0,0,1.05-2.15l-3.1-.625a3.494,3.494,0,0,1-.5,1.25,3.347,3.347,0,0,1-2.875,1.4c-2.525,0-4.075-1.925-4.075-5.05,0-3.1,1.525-5.025,3.975-5.025a3.145,3.145,0,0,1,2.575,1.15,4.764,4.764,0,0,1,.775,1.525Zm10.85,10.75c4.45,0,7.375-3.05,7.375-7.675s-2.875-7.575-7.4-7.575c-4.55,0-7.45,2.975-7.45,7.625C129.45,85.9,132.35,88.85,136.925,88.85ZM136.9,76.2c2.65,0,4.175,1.85,4.175,5.075,0,3.05-1.6,4.925-4.2,4.925s-4.2-1.9-4.2-4.975C132.675,78.1,134.275,76.2,136.9,76.2Zm24.575,5.825c-.05-.575-.05-.65-.05-.7a10.277,10.277,0,0,0-.725-3.8,6.351,6.351,0,0,0-6.225-3.95c-4.275,0-7.05,3.025-7.05,7.65,0,4.675,2.8,7.625,7.225,7.625a7.1,7.1,0,0,0,5.15-1.925,7.026,7.026,0,0,0,1.525-2.3l-2.95-.95a3.633,3.633,0,0,1-.725,1.3,4.206,4.206,0,0,1-6.125-.15,4.647,4.647,0,0,1-.925-2.8Zm-10.8-2.475a3.755,3.755,0,0,1,3.75-3.4,3.565,3.565,0,0,1,2.7,1,3.924,3.924,0,0,1,1.1,2.4Zm13.1,9.525A8.421,8.421,0,0,1,163.6,91h3.525a11.264,11.264,0,0,1-.15-1.9v-.75h9.475v.8a7.083,7.083,0,0,1-.175,1.85h3.55a8.989,8.989,0,0,1-.175-2V87.575a13.216,13.216,0,0,1,.175-2c-.825.05-.95.05-1.475.05v-8.3a24.208,24.208,0,0,1,.175-3.25c-1,.075-1.375.075-3.15.075H169.95c-1.75,0-2.15,0-3.125-.075a26.856,26.856,0,0,1,.15,2.975,22.054,22.054,0,0,1-.4,4.525,12.5,12.5,0,0,1-1.5,4.05c-.625-.025-.625-.025-1.475-.05a12.542,12.542,0,0,1,.175,2.025Zm4.55-3.425a14.22,14.22,0,0,0,1.35-3.8,24.487,24.487,0,0,0,.4-5h5.2v8.8Zm14.35-11.5a27.754,27.754,0,0,1,.175,3.2v7.8a21.675,21.675,0,0,1-.2,3.225h3.55a13.8,13.8,0,0,1,1.4-2.3l4.8-6.35a4.369,4.369,0,0,0,.45-.725c.025-.05.075-.125.15-.25-.025.525-.025.525-.05,1.325l-.025,5.1a22.936,22.936,0,0,1-.175,3.2h3.475a25.34,25.34,0,0,1-.175-3.225v-7.8a25.464,25.464,0,0,1,.175-3.2h-3.5a9.884,9.884,0,0,1-1.4,2.325l-4.725,6.3c-.15.2-.375.55-.55.825a1.605,1.605,0,0,1-.15.25c.025-.7.05-1.175.05-1.425v-5.05a25.076,25.076,0,0,1,.175-3.225ZM203.6,88.375a23.417,23.417,0,0,1-.175-3.2V82.35h7.1v2.825a26.291,26.291,0,0,1-.175,3.2h3.45a23.909,23.909,0,0,1-.175-3.2v-7.8a22.389,22.389,0,0,1,.175-3.225h-3.45a25.606,25.606,0,0,1,.175,3.225V79.6h-7.1V77.35a24.671,24.671,0,0,1,.175-3.2h-3.45a26.012,26.012,0,0,1,.175,3.2v7.825a19.815,19.815,0,0,1-.175,3.2Zm23.3-5.725v2.475a25.751,25.751,0,0,1-.175,3.25h3.45A24.817,24.817,0,0,1,230,85.15V77.275a24.932,24.932,0,0,1,.175-3.2c-1.025.05-1.8.075-3.15.075H222.85c-3,0-4.75,1.425-4.75,3.875a3.34,3.34,0,0,0,1.325,2.9,3.483,3.483,0,0,0,1.75.675,2.212,2.212,0,0,0-1.05.625,10.833,10.833,0,0,0-1.575,2.625,24.2,24.2,0,0,1-1.8,3.525h3.875a17.589,17.589,0,0,1,1.275-3.35c.9-1.9,1.375-2.375,2.5-2.375Zm0-2.575h-3.5c-1.425,0-2.125-.55-2.125-1.675s.675-1.675,2.05-1.675H226.9Zm16.9,8.3a25.753,25.753,0,0,1-.175-3.25v-8.25h1.95a27.694,27.694,0,0,1,3.2.15v-3.05a22.936,22.936,0,0,1-3.2.175h-7.1a23.661,23.661,0,0,1-3.2-.175v3.05a29.592,29.592,0,0,1,3.25-.15h1.9v8.25a23.006,23.006,0,0,1-.175,3.25Zm13.425-9.125V77.325a23.763,23.763,0,0,1,.175-3.175h-3.45a27.631,27.631,0,0,1,.175,3.175v7.9a22.619,22.619,0,0,1-.175,3.225c1.1-.05,1.75-.075,3.125-.075H261.3c3.25,0,5.1-1.65,5.1-4.575,0-2.9-1.85-4.55-5.125-4.55Zm0,6.55V81.825h3.45c1.775,0,2.525.6,2.525,2s-.725,1.975-2.475,1.975ZM283.8,78.1a8.323,8.323,0,0,0-.875-1.825,6.466,6.466,0,0,0-5.6-2.7,6.846,6.846,0,0,0-5.025,1.9,8.084,8.084,0,0,0-2.125,5.775c0,4.625,2.85,7.6,7.25,7.6a6.545,6.545,0,0,0,5.5-2.5,7.487,7.487,0,0,0,1.05-2.15l-3.1-.625a3.494,3.494,0,0,1-.5,1.25,3.347,3.347,0,0,1-2.875,1.4c-2.525,0-4.075-1.925-4.075-5.05,0-3.1,1.525-5.025,3.975-5.025a3.145,3.145,0,0,1,2.575,1.15,4.763,4.763,0,0,1,.775,1.525ZM297,82.65v2.475a25.751,25.751,0,0,1-.175,3.25h3.45a24.817,24.817,0,0,1-.175-3.225V77.275a24.932,24.932,0,0,1,.175-3.2c-1.025.05-1.8.075-3.15.075H292.95c-3,0-4.75,1.425-4.75,3.875a3.34,3.34,0,0,0,1.325,2.9,3.483,3.483,0,0,0,1.75.675,2.212,2.212,0,0,0-1.05.625,10.833,10.833,0,0,0-1.575,2.625,24.194,24.194,0,0,1-1.8,3.525h3.875A17.589,17.589,0,0,1,292,85.025c.9-1.9,1.375-2.375,2.5-2.375Zm0-2.575h-3.5c-1.425,0-2.125-.55-2.125-1.675s.675-1.675,2.05-1.675H297Z" transform="translate(6645.925 -567)"/>
      <path id="路径_40080" data-name="路径 40080" d="M2.25,1a13.8,13.8,0,0,1-.175,2h3.7A10.144,10.144,0,0,1,5.65,1.4V.375H18.725V1A10.05,10.05,0,0,1,18.6,3h3.65A11.236,11.236,0,0,1,22.1.825v-1.4c0-.15.05-.85.15-2.025-.65.025-1.3.05-1.9.05v-13.7a21.9,21.9,0,0,1,.2-3.225c-1.05.075-1.6.075-3.15.075H9.45c-1.425,0-1.725,0-3.15-.075a20.213,20.213,0,0,1,.2,3.225v.925a36.28,36.28,0,0,1-.725,7.35A28.66,28.66,0,0,1,4-2.55c-.475,0-.675,0-1.075-.025C2.375-2.6,2.375-2.6,2.1-2.6A12.657,12.657,0,0,1,2.25-.7ZM7.375-2.55a23.586,23.586,0,0,0,1.8-5.95,44.7,44.7,0,0,0,.6-7.95h7.25v13.9ZM33.15.45h3.375a20.107,20.107,0,0,1-.2-3.125v-6.75a4.2,4.2,0,0,0-1.175-3.45c-1.075-1.05-2.525-1.475-4.925-1.475a7.485,7.485,0,0,0-4.775,1.275A5.224,5.224,0,0,0,23.475-10.3l3.2.575a2.9,2.9,0,0,1,1-1.6,4.706,4.706,0,0,1,2.6-.7c1.9,0,2.875.75,2.875,2.2v1.25c-3.575.075-5.425.35-7.05,1.025A4.409,4.409,0,0,0,23.275-3.5c0,2.6,1.85,4.2,4.9,4.2A8.846,8.846,0,0,0,30.5.4a5.421,5.421,0,0,0,2.65-1.575Zm0-5.575a2.979,2.979,0,0,1-.9,2.2A5.076,5.076,0,0,1,28.775-1.6c-1.4,0-2.275-.725-2.275-1.925,0-1.95,1.875-2.75,6.65-2.875Zm15.7,5.5c3.325,0,5.1-1.375,5.1-3.95A3.376,3.376,0,0,0,52.8-6.3a3.286,3.286,0,0,0-2.05-.825,3.067,3.067,0,0,0,2.65-3.25c0-2.325-1.6-3.475-4.775-3.475H44.5c-1.5,0-2.125-.025-3.125-.075a24.414,24.414,0,0,1,.175,3.2V-2.75a24.414,24.414,0,0,1-.175,3.2c1.1-.05,1.75-.075,3.15-.075Zm-4.225-8.55V-11.45h3.65c1.425,0,2.1.5,2.1,1.55,0,1.125-.725,1.725-2.075,1.725Zm0,2.225h3.8c1.65,0,2.425.625,2.425,1.975,0,1.3-.775,1.925-2.4,1.925H44.625ZM68.2.45h3.375a20.107,20.107,0,0,1-.2-3.125v-6.75a4.2,4.2,0,0,0-1.175-3.45c-1.075-1.05-2.525-1.475-4.925-1.475A7.485,7.485,0,0,0,60.5-13.075,5.224,5.224,0,0,0,58.525-10.3l3.2.575a2.9,2.9,0,0,1,1-1.6,4.706,4.706,0,0,1,2.6-.7c1.9,0,2.875.75,2.875,2.2v1.25c-3.575.075-5.425.35-7.05,1.025A4.409,4.409,0,0,0,58.325-3.5c0,2.6,1.85,4.2,4.9,4.2A8.846,8.846,0,0,0,65.55.4,5.421,5.421,0,0,0,68.2-1.175Zm0-5.575a2.979,2.979,0,0,1-.9,2.2A5.076,5.076,0,0,1,63.825-1.6c-1.4,0-2.275-.725-2.275-1.925,0-1.95,1.875-2.75,6.65-2.875Zm7.625-8.725A27.754,27.754,0,0,1,76-10.65v7.8A21.676,21.676,0,0,1,75.8.375h3.55a13.8,13.8,0,0,1,1.4-2.3l4.8-6.35A4.371,4.371,0,0,0,86-9c.025-.05.075-.125.15-.25-.025.525-.025.525-.05,1.325l-.025,5.1A22.936,22.936,0,0,1,85.9.375h3.475A25.34,25.34,0,0,1,89.2-2.85v-7.8a25.464,25.464,0,0,1,.175-3.2h-3.5a9.883,9.883,0,0,1-1.4,2.325l-4.725,6.3c-.15.2-.375.55-.55.825a1.6,1.6,0,0,1-.15.25c.025-.7.05-1.175.05-1.425v-5.05a25.076,25.076,0,0,1,.175-3.225ZM84.7-16.5c-.25.875-.875,1.275-2.05,1.275a2.592,2.592,0,0,1-1.55-.425,1.3,1.3,0,0,1-.5-.85H78.575a2.8,2.8,0,0,0,.8,1.475A4.32,4.32,0,0,0,82.55-13.9a4.922,4.922,0,0,0,3.175-1,2.576,2.576,0,0,0,1-1.6ZM101.9.375a25.75,25.75,0,0,1-.175-3.25v-8.25h1.95a27.694,27.694,0,0,1,3.2.15v-3.05a22.936,22.936,0,0,1-3.2.175h-7.1a23.661,23.661,0,0,1-3.2-.175v3.05a29.592,29.592,0,0,1,3.25-.15h1.9v8.25A23.005,23.005,0,0,1,98.35.375Zm22.825-6.35c-.05-.575-.05-.65-.05-.7a10.277,10.277,0,0,0-.725-3.8,6.351,6.351,0,0,0-6.225-3.95c-4.275,0-7.05,3.025-7.05,7.65,0,4.675,2.8,7.625,7.225,7.625a7.1,7.1,0,0,0,5.15-1.925,7.026,7.026,0,0,0,1.525-2.3l-2.95-.95a3.633,3.633,0,0,1-.725,1.3,3.953,3.953,0,0,1-3,1.25,3.929,3.929,0,0,1-3.125-1.4,4.647,4.647,0,0,1-.925-2.8Zm-10.8-2.475a3.755,3.755,0,0,1,3.75-3.4,3.565,3.565,0,0,1,2.7,1,3.924,3.924,0,0,1,1.1,2.4ZM142.75-9.9a8.321,8.321,0,0,0-.875-1.825,6.466,6.466,0,0,0-5.6-2.7,6.846,6.846,0,0,0-5.025,1.9,8.084,8.084,0,0,0-2.125,5.775c0,4.625,2.85,7.6,7.25,7.6a6.545,6.545,0,0,0,5.5-2.5,7.486,7.486,0,0,0,1.05-2.15l-3.1-.625a3.494,3.494,0,0,1-.5,1.25,3.347,3.347,0,0,1-2.875,1.4c-2.525,0-4.075-1.925-4.075-5.05,0-3.1,1.525-5.025,3.975-5.025a3.145,3.145,0,0,1,2.575,1.15,4.764,4.764,0,0,1,.775,1.525ZM153.6.85c4.45,0,7.375-3.05,7.375-7.675s-2.875-7.575-7.4-7.575c-4.55,0-7.45,2.975-7.45,7.625C146.125-2.1,149.025.85,153.6.85Zm-.025-12.65c2.65,0,4.175,1.85,4.175,5.075,0,3.05-1.6,4.925-4.2,4.925s-4.2-1.9-4.2-4.975C149.35-9.9,150.95-11.8,153.575-11.8Zm10.75,8.75A4.772,4.772,0,0,0,166.3-.3,9.212,9.212,0,0,0,171,.75a7.493,7.493,0,0,0,5.25-1.625,3.428,3.428,0,0,0,1.05-2.6,3.126,3.126,0,0,0-1.2-2.65,4.962,4.962,0,0,0-2.875-.85,4.913,4.913,0,0,0,2.3-.85,3.067,3.067,0,0,0,1.25-2.65,2.965,2.965,0,0,0-.45-1.725c-.8-1.3-2.7-2.05-5.175-2.05a8.2,8.2,0,0,0-4.325,1,4.735,4.735,0,0,0-2.025,2.625l3.175.575c.475-1.3,1.25-1.75,2.975-1.75,1.8,0,2.675.55,2.675,1.675,0,1.4-.95,1.975-3.225,1.975a8.818,8.818,0,0,1-1.65-.125V-5.65a8.818,8.818,0,0,1,1.875-.125c2.65,0,3.5.45,3.5,1.875q0,2.175-3.225,2.175a4.9,4.9,0,0,1-2.4-.5,1.952,1.952,0,0,1-1-1.375ZM180.45,1.075A8.421,8.421,0,0,1,180.275,3H183.8a11.264,11.264,0,0,1-.15-1.9V.35h9.475v.8A7.083,7.083,0,0,1,192.95,3h3.55a8.989,8.989,0,0,1-.175-2V-.425a13.216,13.216,0,0,1,.175-2c-.825.05-.95.05-1.475.05v-8.3a24.208,24.208,0,0,1,.175-3.25c-1,.075-1.375.075-3.15.075h-5.425c-1.75,0-2.15,0-3.125-.075a26.856,26.856,0,0,1,.15,2.975,22.055,22.055,0,0,1-.4,4.525,12.5,12.5,0,0,1-1.5,4.05c-.625-.025-.625-.025-1.475-.05A12.542,12.542,0,0,1,180.45-.4ZM185-2.35a14.22,14.22,0,0,0,1.35-3.8,24.487,24.487,0,0,0,.4-5h5.2v8.8ZM209.25.45h3.375a20.108,20.108,0,0,1-.2-3.125v-6.75a4.2,4.2,0,0,0-1.175-3.45c-1.075-1.05-2.525-1.475-4.925-1.475a7.485,7.485,0,0,0-4.775,1.275,5.224,5.224,0,0,0-1.975,2.775l3.2.575a2.9,2.9,0,0,1,1-1.6,4.706,4.706,0,0,1,2.6-.7c1.9,0,2.875.75,2.875,2.2v1.25c-3.575.075-5.425.35-7.05,1.025a4.409,4.409,0,0,0-2.825,4.05c0,2.6,1.85,4.2,4.9,4.2A8.846,8.846,0,0,0,206.6.4a5.421,5.421,0,0,0,2.65-1.575Zm0-5.575a2.979,2.979,0,0,1-.9,2.2A5.076,5.076,0,0,1,204.875-1.6c-1.4,0-2.275-.725-2.275-1.925,0-1.95,1.875-2.75,6.65-2.875Zm16.175,5.5a25.753,25.753,0,0,1-.175-3.25v-8.25h1.95a27.694,27.694,0,0,1,3.2.15v-3.05a22.936,22.936,0,0,1-3.2.175h-7.1a23.661,23.661,0,0,1-3.2-.175v3.05a29.591,29.591,0,0,1,3.25-.15h1.9v8.25a23.006,23.006,0,0,1-.175,3.25ZM238.85-8.75v-1.925a23.762,23.762,0,0,1,.175-3.175h-3.45a27.631,27.631,0,0,1,.175,3.175v7.9A22.619,22.619,0,0,1,235.575.45c1.1-.05,1.75-.075,3.125-.075h4.225c3.25,0,5.1-1.65,5.1-4.575,0-2.9-1.85-4.55-5.125-4.55Zm0,6.55V-6.175h3.45c1.775,0,2.525.6,2.525,2S244.1-2.2,242.35-2.2Z" transform="translate(6645.925 -567)" fill="#0080f4"/>
    </g>
  </g>
</svg>
