<svg xmlns="http://www.w3.org/2000/svg" xmlns:xlink="http://www.w3.org/1999/xlink" width="690" height="333.626" viewBox="0 0 690 333.626">
  <defs>
    <clipPath id="clip-path">
      <rect id="矩形_2253" data-name="矩形 2253" width="690" height="333.626" fill="#fff"/>
    </clipPath>
  </defs>
  <g id="banner_jp" transform="translate(-6620 698)">
    <g id="组_21830" data-name="组 21830" transform="translate(6609.315 -806)">
      <g id="NAV_bg" transform="translate(10.685 108)" clip-path="url(#clip-path)">
        <g id="组_21480" data-name="组 21480" transform="translate(0 14.027)" opacity="0.05">
          <g id="组_21478" data-name="组 21478" transform="translate(0 2.932)">
            <g id="组_21420" data-name="组 21420" transform="translate(188.046 85.121)">
              <g id="组_21418" data-name="组 21418" transform="translate(0 0)">
                <rect id="矩形_2227" data-name="矩形 2227" width="179.014" height="0.717" transform="translate(0 32.115) rotate(-10.335)"/>
              </g>
              <g id="组_21419" data-name="组 21419" transform="translate(0 0)">
                <rect id="矩形_2228" data-name="矩形 2228" width="179.014" height="0.717" transform="translate(0 32.115) rotate(-10.335)"/>
              </g>
            </g>
            <g id="组_21424" data-name="组 21424" transform="translate(188.097 12.249)">
              <g id="组_21421" data-name="组 21421" transform="translate(175.949 0.139)">
                <rect id="矩形_2229" data-name="矩形 2229" width="73.135" height="0.478" transform="matrix(0.063, -0.998, 0.998, 0.063, 0, 72.989)"/>
              </g>
              <g id="组_21422" data-name="组 21422" transform="translate(0)">
                <path id="路径_37381" data-name="路径 37381" d="M62.839,164.94l-.239-.478L243.049,59.3l.478.478Z" transform="translate(-62.6 -59.3)"/>
              </g>
              <g id="组_21423" data-name="组 21423" transform="translate(0)">
                <path id="路径_37382" data-name="路径 37382" d="M62.839,164.94l-.239-.478L243.049,59.3l.478.478Z" transform="translate(-62.6 -59.3)"/>
              </g>
            </g>
            <g id="组_21429" data-name="组 21429" transform="translate(187.982 12.195)">
              <g id="组_21425" data-name="组 21425" transform="translate(123.883 0)">
                <rect id="矩形_2230" data-name="矩形 2230" width="69.072" height="0.478" transform="translate(0 39.433) rotate(-34.814)"/>
              </g>
              <g id="组_21426" data-name="组 21426" transform="translate(124.037 39.594)">
                <rect id="矩形_2231" data-name="矩形 2231" width="0.478" height="61.902" transform="matrix(0.54, -0.841, 0.841, 0.54, 0, 0.402)"/>
              </g>
              <g id="组_21427" data-name="组 21427" transform="translate(0 39.393)">
                <rect id="矩形_2232" data-name="矩形 2232" width="140.296" height="0.478" transform="translate(0 65.799) rotate(-27.969)"/>
              </g>
              <g id="组_21428" data-name="组 21428" transform="translate(0 39.393)">
                <rect id="矩形_2233" data-name="矩形 2233" width="140.296" height="0.478" transform="translate(0 65.799) rotate(-27.969)"/>
              </g>
            </g>
            <g id="组_21432" data-name="组 21432" transform="translate(0 117.411)">
              <g id="组_21430" data-name="组 21430">
                <path id="路径_37383" data-name="路径 37383" d="M-16.1,282.553,172.236,103.778,172,103.3-16.1,281.836Z" transform="translate(16.1 -103.3)"/>
              </g>
              <g id="组_21431" data-name="组 21431">
                <path id="路径_37384" data-name="路径 37384" d="M-16.1,282.553,172.236,103.778,172,103.3-16.1,281.836Z" transform="translate(16.1 -103.3)"/>
              </g>
            </g>
            <g id="组_21439" data-name="组 21439" transform="translate(0 51.684)">
              <g id="组_21433" data-name="组 21433" transform="translate(0 48.279)">
                <path id="路径_37385" data-name="路径 37385" d="M-16.1,246.573,11.147,96H10.43L-16.1,243.227Z" transform="translate(16.1 -96)"/>
              </g>
              <g id="组_21434" data-name="组 21434" transform="translate(0 43.738)">
                <path id="路径_37386" data-name="路径 37386" d="M-16.1,94.1v.478l26.769,4.3.239-.478Z" transform="translate(16.1 -94.1)"/>
              </g>
              <g id="组_21435" data-name="组 21435" transform="translate(26.769)">
                <path id="路径_37387" data-name="路径 37387" d="M-4.661,124.318l-.239-.478L280.472,75.8v.478Z" transform="translate(4.9 -75.8)"/>
              </g>
              <g id="组_21436" data-name="组 21436" transform="translate(0 48.04)">
                <path id="路径_37388" data-name="路径 37388" d="M-16.1,113.825,10.908,96.378l-.239-.478L-16.1,113.108Z" transform="translate(16.1 -95.9)"/>
              </g>
              <g id="组_21437" data-name="组 21437" transform="translate(26.942 48.071)">
                <rect id="矩形_2234" data-name="矩形 2234" width="0.478" height="162.284" transform="translate(0 0.475) rotate(-83.754)"/>
              </g>
              <g id="组_21438" data-name="组 21438" transform="translate(26.942 48.071)">
                <rect id="矩形_2235" data-name="矩形 2235" width="0.478" height="162.284" transform="translate(0 0.475) rotate(-83.754)"/>
              </g>
            </g>
            <g id="组_21445" data-name="组 21445" transform="translate(188.021 12.562)">
              <g id="组_21440" data-name="组 21440" transform="translate(123.641 39.361)">
                <path id="路径_37389" data-name="路径 37389" d="M152.78,328.289,114.3,75.9h.717l38.241,252.389Z" transform="translate(-114.3 -75.9)"/>
              </g>
              <g id="组_21441" data-name="组 21441" transform="translate(162.065 0)">
                <rect id="矩形_2236" data-name="矩形 2236" width="292.303" height="0.478" transform="translate(0 291.718) rotate(-86.406)"/>
              </g>
              <g id="组_21442" data-name="组 21442" transform="translate(162.13 73.051)">
                <rect id="矩形_2237" data-name="矩形 2237" width="219.167" height="0.478" transform="translate(0 218.729) rotate(-86.392)"/>
              </g>
              <g id="组_21443" data-name="组 21443" transform="translate(0 104.885)">
                <rect id="矩形_2238" data-name="矩形 2238" width="0.478" height="247.37" transform="matrix(0.755, -0.656, 0.656, 0.755, 0, 0.314)"/>
              </g>
              <g id="组_21444" data-name="组 21444" transform="translate(0 104.885)">
                <rect id="矩形_2239" data-name="矩形 2239" width="0.478" height="247.37" transform="matrix(0.755, -0.656, 0.656, 0.755, 0, 0.314)"/>
              </g>
            </g>
            <g id="组_21453" data-name="组 21453" transform="translate(0 51.836)">
              <g id="组_21446" data-name="组 21446" transform="translate(200.885 252.46)">
                <rect id="矩形_2240" data-name="矩形 2240" width="153.202" height="0.717" transform="matrix(0.976, -0.219, 0.219, 0.976, 0, 33.49)"/>
              </g>
              <g id="组_21447" data-name="组 21447" transform="translate(26.53 47.888)">
                <path id="路径_37390" data-name="路径 37390" d="M169.234,334.666-5,96.378l.478-.478L169.712,334.427Z" transform="translate(5 -95.9)"/>
              </g>
              <g id="组_21448" data-name="组 21448" transform="translate(0 255.583)">
                <path id="路径_37391" data-name="路径 37391" d="M-16.1,182.8v.478l201,30.832v-.717Z" transform="translate(16.1 -182.8)"/>
              </g>
              <g id="组_21449" data-name="组 21449" transform="translate(200.768 0)">
                <rect id="矩形_2241" data-name="矩形 2241" width="307.121" height="0.717" transform="translate(0 286.39) rotate(-68.826)"/>
              </g>
              <g id="组_21450" data-name="组 21450" transform="translate(200.764 33.548)">
                <path id="路径_37392" data-name="路径 37392" d="M68.378,343.006l-.478-.239L231.14,89.9l.478.239Z" transform="translate(-67.9 -89.9)"/>
              </g>
              <g id="组_21451" data-name="组 21451" transform="translate(187.902 65.73)">
                <rect id="矩形_2242" data-name="矩形 2242" width="0.717" height="221.079" transform="matrix(0.998, -0.058, 0.058, 0.998, 0, 0.042)"/>
              </g>
              <g id="组_21452" data-name="组 21452" transform="translate(187.902 65.73)">
                <rect id="矩形_2243" data-name="矩形 2243" width="0.717" height="221.079" transform="matrix(0.998, -0.058, 0.058, 0.998, 0, 0.042)"/>
              </g>
            </g>
            <g id="组_21458" data-name="组 21458" transform="translate(311.901 0)">
              <g id="组_21454" data-name="组 21454" transform="translate(209.368 0.059)">
                <path id="路径_37393" data-name="路径 37393" d="M426.425,174.419,202.239,54.2l-.239.478L426.425,174.9Z" transform="translate(-202 -54.2)"/>
              </g>
              <g id="组_21455" data-name="组 21455" transform="translate(0 0.059)">
                <path id="路径_37394" data-name="路径 37394" d="M114.639,106.3l-.239-.478L323.768,54.2l.239.478Z" transform="translate(-114.4 -54.2)"/>
              </g>
              <g id="组_21456" data-name="组 21456" transform="translate(56.883 0.059)">
                <path id="路径_37395" data-name="路径 37395" d="M138.2,66.867v-.478L290.685,54.2l.239.478Z" transform="translate(-138.2 -54.2)"/>
              </g>
              <g id="组_21457" data-name="组 21457" transform="translate(52.28)">
                <rect id="矩形_2244" data-name="矩形 2244" width="178.775" height="0.478" transform="matrix(0.879, -0.477, 0.477, 0.879, 0, 85.222)"/>
              </g>
            </g>
            <g id="组_21461" data-name="组 21461" transform="translate(350.381 85.375)">
              <g id="组_21459" data-name="组 21459" transform="translate(0 218.698)">
                <path id="路径_37396" data-name="路径 37396" d="M298.042,220.6,130.5,181.878V181.4l167.542,38.48Z" transform="translate(-130.5 -181.4)"/>
              </g>
              <g id="组_21460" data-name="组 21460" transform="translate(13.589 0)">
                <rect id="矩形_2245" data-name="矩形 2245" width="0.717" height="299.951" transform="translate(0 0.368) rotate(-30.843)"/>
              </g>
            </g>
            <g id="组_21469" data-name="组 21469" transform="translate(311.901 0.009)">
              <g id="组_21462" data-name="组 21462" transform="translate(205.735 202.679)">
                <rect id="矩形_2246" data-name="矩形 2246" width="151.051" height="0.717" transform="matrix(0.374, -0.927, 0.927, 0.374, 0, 140.07)"/>
              </g>
              <g id="组_21463" data-name="组 21463" transform="translate(209.142 0)">
                <rect id="矩形_2247" data-name="矩形 2247" width="0.717" height="209.368" transform="matrix(0.967, -0.253, 0.253, 0.967, 0, 0.182)"/>
              </g>
              <g id="组_21464" data-name="组 21464" transform="translate(262.427 149.189)">
                <path id="路径_37397" data-name="路径 37397" d="M395.566,116.6,224.2,169.9v.478l171.366-53.059Z" transform="translate(-224.2 -116.6)"/>
              </g>
              <g id="组_21465" data-name="组 21465" transform="translate(38.391 202.265)">
                <rect id="矩形_2248" data-name="矩形 2248" width="245.936" height="0.478" transform="translate(0 101.842) rotate(-24.463)"/>
              </g>
              <g id="组_21466" data-name="组 21466" transform="translate(0 51.675)">
                <path id="路径_37398" data-name="路径 37398" d="M376.588,227.09,114.4,76.278l.239-.478L377.066,226.612Z" transform="translate(-114.4 -75.8)"/>
              </g>
              <g id="组_21467" data-name="组 21467" transform="translate(56.711 12.149)">
                <rect id="矩形_2249" data-name="矩形 2249" width="0.717" height="280.113" transform="translate(0 0.526) rotate(-47.229)"/>
              </g>
              <g id="组_21468" data-name="组 21468" transform="translate(52.092 85.133)">
                <rect id="矩形_2250" data-name="矩形 2250" width="0.717" height="240.678" transform="translate(0 0.626) rotate(-60.849)"/>
              </g>
            </g>
            <g id="组_21471" data-name="组 21471" transform="translate(574.328 202.496)">
              <g id="组_21470" data-name="组 21470">
                <path id="路径_37399" data-name="路径 37399" d="M395.566,183.594,224.2,138.9v.478l171.366,44.933Z" transform="translate(-224.2 -138.9)"/>
              </g>
            </g>
            <g id="组_21477" data-name="组 21477" transform="translate(350.342 188.634)">
              <g id="组_21472" data-name="组 21472" transform="translate(281.586 129.301)">
                <path id="路径_37400" data-name="路径 37400" d="M362.066,187.2,248.3,223.768l.239.717,113.527-36.568Z" transform="translate(-248.3 -187.2)"/>
              </g>
              <g id="组_21473" data-name="组 21473" transform="translate(223.747 13.862)">
                <path id="路径_37401" data-name="路径 37401" d="M281.939,291.385,224.1,139.139l.478-.239,57.839,152.246Z" transform="translate(-224.1 -138.9)"/>
              </g>
              <g id="组_21474" data-name="组 21474" transform="translate(167.475 153.752)">
                <rect id="矩形_2251" data-name="矩形 2251" width="0.717" height="114.722" transform="translate(0 0.713) rotate(-83.996)"/>
              </g>
              <g id="组_21475" data-name="组 21475" transform="translate(281.586)">
                <path id="路径_37402" data-name="路径 37402" d="M362.066,133.1,248.3,299.208l.478.239L362.066,134.056Z" transform="translate(-248.3 -133.1)"/>
              </g>
              <g id="组_21476" data-name="组 21476" transform="translate(0 115.508)">
                <rect id="矩形_2252" data-name="矩形 2252" width="0.478" height="286.089" transform="translate(0 0.47) rotate(-79.81)"/>
              </g>
            </g>
          </g>
          <g id="组_21479" data-name="组 21479" transform="translate(23.777)">
            <path id="路径_37403" data-name="路径 37403" d="M65.3,108.247a3.1,3.1,0,1,1,2.151-3.824A3.175,3.175,0,0,1,65.3,108.247Z" transform="translate(99.98 15.442)"/>
            <path id="路径_37404" data-name="路径 37404" d="M139,94.747a3.1,3.1,0,1,1,2.151-3.824A3.519,3.519,0,0,1,139,94.747Z" transform="translate(202.426 -3.324)"/>
            <path id="路径_37405" data-name="路径 37405" d="M65.3,108.247a3.1,3.1,0,1,1,2.151-3.824A3.175,3.175,0,0,1,65.3,108.247Z" transform="translate(99.98 15.442)"/>
            <path id="路径_37406" data-name="路径 37406" d="M139,94.747a3.1,3.1,0,1,1,2.151-3.824A3.519,3.519,0,0,1,139,94.747Z" transform="translate(202.426 -3.324)"/>
            <path id="路径_37407" data-name="路径 37407" d="M139,94.747a3.1,3.1,0,1,1,2.151-3.824A3.519,3.519,0,0,1,139,94.747Z" transform="translate(202.426 -3.324)"/>
            <path id="路径_37408" data-name="路径 37408" d="M140.9,64.247a3.1,3.1,0,1,1,2.151-3.824A3.175,3.175,0,0,1,140.9,64.247Z" transform="translate(205.067 -45.72)"/>
            <path id="路径_37409" data-name="路径 37409" d="M65.3,108.247a3.1,3.1,0,1,1,2.151-3.824A3.175,3.175,0,0,1,65.3,108.247Z" transform="translate(99.98 15.442)"/>
            <path id="路径_37410" data-name="路径 37410" d="M140.9,64.247a3.1,3.1,0,1,1,2.151-3.824A3.175,3.175,0,0,1,140.9,64.247Z" transform="translate(205.067 -45.72)"/>
            <path id="路径_37411" data-name="路径 37411" d="M65.3,108.247a3.1,3.1,0,1,1,2.151-3.824A3.175,3.175,0,0,1,65.3,108.247Z" transform="translate(99.98 15.442)"/>
            <path id="路径_37412" data-name="路径 37412" d="M140.9,64.247a3.1,3.1,0,1,1,2.151-3.824A3.175,3.175,0,0,1,140.9,64.247Z" transform="translate(205.067 -45.72)"/>
            <path id="路径_37413" data-name="路径 37413" d="M140.9,64.247a3.1,3.1,0,1,1,2.151-3.824A3.175,3.175,0,0,1,140.9,64.247Z" transform="translate(205.067 -45.72)"/>
            <path id="路径_37414" data-name="路径 37414" d="M117.1,80.747a3.1,3.1,0,1,1,2.151-3.824A3.175,3.175,0,0,1,117.1,80.747Z" transform="translate(171.984 -22.785)"/>
            <path id="路径_37415" data-name="路径 37415" d="M139,94.747a3.1,3.1,0,1,1,2.151-3.824A3.519,3.519,0,0,1,139,94.747Z" transform="translate(202.426 -3.324)"/>
            <path id="路径_37416" data-name="路径 37416" d="M117.1,80.747a3.1,3.1,0,1,1,2.151-3.824A3.175,3.175,0,0,1,117.1,80.747Z" transform="translate(171.984 -22.785)"/>
            <path id="路径_37417" data-name="路径 37417" d="M65.3,108.247a3.1,3.1,0,1,1,2.151-3.824A3.175,3.175,0,0,1,65.3,108.247Z" transform="translate(99.98 15.442)"/>
            <path id="路径_37418" data-name="路径 37418" d="M117.1,80.747a3.1,3.1,0,1,1,2.151-3.824A3.175,3.175,0,0,1,117.1,80.747Z" transform="translate(171.984 -22.785)"/>
            <path id="路径_37419" data-name="路径 37419" d="M65.3,108.247a3.1,3.1,0,1,1,2.151-3.824A3.175,3.175,0,0,1,65.3,108.247Z" transform="translate(99.98 15.442)"/>
            <path id="路径_37420" data-name="路径 37420" d="M117.1,80.747a3.1,3.1,0,1,1,2.151-3.824A3.175,3.175,0,0,1,117.1,80.747Z" transform="translate(171.984 -22.785)"/>
            <path id="路径_37421" data-name="路径 37421" d="M65.3,108.247a3.1,3.1,0,1,1,2.151-3.824A3.175,3.175,0,0,1,65.3,108.247Z" transform="translate(99.98 15.442)"/>
            <path id="路径_37422" data-name="路径 37422" d="M65.3,108.247a3.1,3.1,0,1,1,2.151-3.824A3.175,3.175,0,0,1,65.3,108.247Z" transform="translate(99.98 15.442)"/>
            <path id="路径_37423" data-name="路径 37423" d="M-2.2,100.847A3.069,3.069,0,0,1-6.028,98.7a3.069,3.069,0,0,1,2.151-3.824A3.069,3.069,0,0,1-.053,97.023,3.175,3.175,0,0,1-2.2,100.847Z" transform="translate(6.151 5.155)"/>
            <path id="路径_37424" data-name="路径 37424" d="M-2.2,100.847A3.069,3.069,0,0,1-6.028,98.7a3.069,3.069,0,0,1,2.151-3.824A3.069,3.069,0,0,1-.053,97.023,3.175,3.175,0,0,1-2.2,100.847Z" transform="translate(6.151 5.155)"/>
            <path id="路径_37425" data-name="路径 37425" d="M117.1,80.747a3.1,3.1,0,1,1,2.151-3.824A3.175,3.175,0,0,1,117.1,80.747Z" transform="translate(171.984 -22.785)"/>
            <path id="路径_37426" data-name="路径 37426" d="M-2.2,100.847A3.069,3.069,0,0,1-6.028,98.7a3.069,3.069,0,0,1,2.151-3.824A3.069,3.069,0,0,1-.053,97.023,3.175,3.175,0,0,1-2.2,100.847Z" transform="translate(6.151 5.155)"/>
            <path id="路径_37427" data-name="路径 37427" d="M-2.2,100.847A3.069,3.069,0,0,1-6.028,98.7a3.069,3.069,0,0,1,2.151-3.824A3.069,3.069,0,0,1-.053,97.023,3.175,3.175,0,0,1-2.2,100.847Z" transform="translate(6.151 5.155)"/>
            <path id="路径_37428" data-name="路径 37428" d="M65.3,108.247a3.1,3.1,0,1,1,2.151-3.824A3.175,3.175,0,0,1,65.3,108.247Z" transform="translate(99.98 15.442)"/>
            <path id="路径_37429" data-name="路径 37429" d="M-2.2,100.847A3.069,3.069,0,0,1-6.028,98.7a3.069,3.069,0,0,1,2.151-3.824A3.069,3.069,0,0,1-.053,97.023,3.175,3.175,0,0,1-2.2,100.847Z" transform="translate(6.151 5.155)"/>
            <path id="路径_37430" data-name="路径 37430" d="M65.3,108.247a3.1,3.1,0,1,1,2.151-3.824A3.175,3.175,0,0,1,65.3,108.247Z" transform="translate(99.98 15.442)"/>
            <path id="路径_37431" data-name="路径 37431" d="M-2.2,100.847A3.069,3.069,0,0,1-6.028,98.7a3.069,3.069,0,0,1,2.151-3.824A3.069,3.069,0,0,1-.053,97.023,3.175,3.175,0,0,1-2.2,100.847Z" transform="translate(6.151 5.155)"/>
            <path id="路径_37432" data-name="路径 37432" d="M117.1,80.747a3.1,3.1,0,1,1,2.151-3.824A3.175,3.175,0,0,1,117.1,80.747Z" transform="translate(171.984 -22.785)"/>
            <path id="路径_37433" data-name="路径 37433" d="M133.2,186.247a3.1,3.1,0,1,1,2.151-3.824A3.069,3.069,0,0,1,133.2,186.247Z" transform="translate(194.364 123.865)"/>
            <path id="路径_37434" data-name="路径 37434" d="M140.9,64.247a3.1,3.1,0,1,1,2.151-3.824A3.175,3.175,0,0,1,140.9,64.247Z" transform="translate(205.067 -45.72)"/>
            <path id="路径_37435" data-name="路径 37435" d="M133.2,186.247a3.1,3.1,0,1,1,2.151-3.824A3.069,3.069,0,0,1,133.2,186.247Z" transform="translate(194.364 123.865)"/>
            <path id="路径_37436" data-name="路径 37436" d="M139,94.747a3.1,3.1,0,1,1,2.151-3.824A3.519,3.519,0,0,1,139,94.747Z" transform="translate(202.426 -3.324)"/>
            <path id="路径_37437" data-name="路径 37437" d="M133.2,186.247a3.1,3.1,0,1,1,2.151-3.824A3.069,3.069,0,0,1,133.2,186.247Z" transform="translate(194.364 123.865)"/>
            <path id="路径_37438" data-name="路径 37438" d="M65.3,108.247a3.1,3.1,0,1,1,2.151-3.824A3.175,3.175,0,0,1,65.3,108.247Z" transform="translate(99.98 15.442)"/>
            <path id="路径_37439" data-name="路径 37439" d="M133.2,186.247a3.1,3.1,0,1,1,2.151-3.824A3.069,3.069,0,0,1,133.2,186.247Z" transform="translate(194.364 123.865)"/>
            <path id="路径_37440" data-name="路径 37440" d="M65.3,108.247a3.1,3.1,0,1,1,2.151-3.824A3.175,3.175,0,0,1,65.3,108.247Z" transform="translate(99.98 15.442)"/>
            <path id="路径_37441" data-name="路径 37441" d="M133.2,186.247a3.1,3.1,0,1,1,2.151-3.824A3.069,3.069,0,0,1,133.2,186.247Z" transform="translate(194.364 123.865)"/>
            <path id="路径_37442" data-name="路径 37442" d="M133.2,186.247a3.1,3.1,0,1,1,2.151-3.824A3.069,3.069,0,0,1,133.2,186.247Z" transform="translate(194.364 123.865)"/>
            <path id="路径_37443" data-name="路径 37443" d="M70.7,200.547a3.1,3.1,0,1,1,2.151-3.824A3.069,3.069,0,0,1,70.7,200.547Z" transform="translate(107.486 143.743)"/>
            <path id="路径_37444" data-name="路径 37444" d="M-2.2,100.847A3.069,3.069,0,0,1-6.028,98.7a3.069,3.069,0,0,1,2.151-3.824A3.069,3.069,0,0,1-.053,97.023,3.175,3.175,0,0,1-2.2,100.847Z" transform="translate(6.151 5.155)"/>
            <path id="路径_37445" data-name="路径 37445" d="M70.7,200.547a3.1,3.1,0,1,1,2.151-3.824A3.069,3.069,0,0,1,70.7,200.547Z" transform="translate(107.486 143.743)"/>
            <path id="路径_37446" data-name="路径 37446" d="M70.7,200.547a3.1,3.1,0,1,1,2.151-3.824A3.069,3.069,0,0,1,70.7,200.547Z" transform="translate(107.486 143.743)"/>
            <path id="路径_37447" data-name="路径 37447" d="M117.1,80.747a3.1,3.1,0,1,1,2.151-3.824A3.175,3.175,0,0,1,117.1,80.747Z" transform="translate(171.984 -22.785)"/>
            <path id="路径_37448" data-name="路径 37448" d="M70.7,200.547a3.1,3.1,0,1,1,2.151-3.824A3.069,3.069,0,0,1,70.7,200.547Z" transform="translate(107.486 143.743)"/>
            <path id="路径_37449" data-name="路径 37449" d="M139,94.747a3.1,3.1,0,1,1,2.151-3.824A3.519,3.519,0,0,1,139,94.747Z" transform="translate(202.426 -3.324)"/>
            <path id="路径_37450" data-name="路径 37450" d="M70.7,200.547a3.1,3.1,0,1,1,2.151-3.824A3.069,3.069,0,0,1,70.7,200.547Z" transform="translate(107.486 143.743)"/>
            <path id="路径_37451" data-name="路径 37451" d="M65.3,108.247a3.1,3.1,0,1,1,2.151-3.824A3.175,3.175,0,0,1,65.3,108.247Z" transform="translate(99.98 15.442)"/>
            <path id="路径_37452" data-name="路径 37452" d="M70.7,200.547a3.1,3.1,0,1,1,2.151-3.824A3.069,3.069,0,0,1,70.7,200.547Z" transform="translate(107.486 143.743)"/>
            <path id="路径_37453" data-name="路径 37453" d="M65.3,108.247a3.1,3.1,0,1,1,2.151-3.824A3.175,3.175,0,0,1,65.3,108.247Z" transform="translate(99.98 15.442)"/>
            <path id="路径_37454" data-name="路径 37454" d="M70.7,200.547a3.1,3.1,0,1,1,2.151-3.824A3.069,3.069,0,0,1,70.7,200.547Z" transform="translate(107.486 143.743)"/>
            <path id="路径_37455" data-name="路径 37455" d="M204.7,59.047a3.1,3.1,0,1,1,2.151-3.824A3.069,3.069,0,0,1,204.7,59.047Z" transform="translate(293.752 -52.949)"/>
            <path id="路径_37456" data-name="路径 37456" d="M117.1,80.747a3.1,3.1,0,1,1,2.151-3.824A3.175,3.175,0,0,1,117.1,80.747Z" transform="translate(171.984 -22.785)"/>
            <path id="路径_37457" data-name="路径 37457" d="M204.7,59.047a3.1,3.1,0,1,1,2.151-3.824A3.069,3.069,0,0,1,204.7,59.047Z" transform="translate(293.752 -52.949)"/>
            <path id="路径_37458" data-name="路径 37458" d="M140.9,64.247a3.1,3.1,0,1,1,2.151-3.824A3.175,3.175,0,0,1,140.9,64.247Z" transform="translate(205.067 -45.72)"/>
            <path id="路径_37459" data-name="路径 37459" d="M204.7,59.047a3.1,3.1,0,1,1,2.151-3.824A3.069,3.069,0,0,1,204.7,59.047Z" transform="translate(293.752 -52.949)"/>
            <path id="路径_37460" data-name="路径 37460" d="M139,94.747a3.1,3.1,0,1,1,2.151-3.824A3.519,3.519,0,0,1,139,94.747Z" transform="translate(202.426 -3.324)"/>
            <path id="路径_37461" data-name="路径 37461" d="M204.7,59.047a3.1,3.1,0,1,1,2.151-3.824A3.069,3.069,0,0,1,204.7,59.047Z" transform="translate(293.752 -52.949)"/>
            <path id="路径_37462" data-name="路径 37462" d="M133.2,186.247a3.1,3.1,0,1,1,2.151-3.824A3.069,3.069,0,0,1,133.2,186.247Z" transform="translate(194.364 123.865)"/>
            <path id="路径_37463" data-name="路径 37463" d="M203.3,202.447a3.1,3.1,0,1,1,2.151-3.824A3.069,3.069,0,0,1,203.3,202.447Z" transform="translate(291.806 146.384)"/>
            <path id="路径_37464" data-name="路径 37464" d="M139,94.747a3.1,3.1,0,1,1,2.151-3.824A3.519,3.519,0,0,1,139,94.747Z" transform="translate(202.426 -3.324)"/>
            <path id="路径_37465" data-name="路径 37465" d="M203.3,202.447a3.1,3.1,0,1,1,2.151-3.824A3.069,3.069,0,0,1,203.3,202.447Z" transform="translate(291.806 146.384)"/>
            <path id="路径_37466" data-name="路径 37466" d="M203.3,202.447a3.1,3.1,0,1,1,2.151-3.824A3.069,3.069,0,0,1,203.3,202.447Z" transform="translate(291.806 146.384)"/>
            <path id="路径_37467" data-name="路径 37467" d="M226.9,143.747a3.1,3.1,0,1,1,2.151-3.824A3.069,3.069,0,0,1,226.9,143.747Z" transform="translate(324.611 64.788)"/>
            <path id="路径_37468" data-name="路径 37468" d="M204.7,59.047a3.1,3.1,0,1,1,2.151-3.824A3.069,3.069,0,0,1,204.7,59.047Z" transform="translate(293.752 -52.949)"/>
            <path id="路径_37469" data-name="路径 37469" d="M226.9,143.747a3.1,3.1,0,1,1,2.151-3.824A3.069,3.069,0,0,1,226.9,143.747Z" transform="translate(324.611 64.788)"/>
            <path id="路径_37470" data-name="路径 37470" d="M226.9,143.747a3.1,3.1,0,1,1,2.151-3.824A3.069,3.069,0,0,1,226.9,143.747Z" transform="translate(324.611 64.788)"/>
            <path id="路径_37471" data-name="路径 37471" d="M133.2,186.247a3.1,3.1,0,1,1,2.151-3.824A3.069,3.069,0,0,1,133.2,186.247Z" transform="translate(194.364 123.865)"/>
            <path id="路径_37472" data-name="路径 37472" d="M226.9,143.747a3.1,3.1,0,1,1,2.151-3.824A3.069,3.069,0,0,1,226.9,143.747Z" transform="translate(324.611 64.788)"/>
            <path id="路径_37473" data-name="路径 37473" d="M117.1,80.747a3.1,3.1,0,1,1,2.151-3.824A3.175,3.175,0,0,1,117.1,80.747Z" transform="translate(171.984 -22.785)"/>
            <path id="路径_37474" data-name="路径 37474" d="M226.9,143.747a3.1,3.1,0,1,1,2.151-3.824A3.069,3.069,0,0,1,226.9,143.747Z" transform="translate(324.611 64.788)"/>
            <path id="路径_37475" data-name="路径 37475" d="M140.9,64.247a3.1,3.1,0,1,1,2.151-3.824A3.175,3.175,0,0,1,140.9,64.247Z" transform="translate(205.067 -45.72)"/>
            <path id="路径_37476" data-name="路径 37476" d="M226.9,143.747a3.1,3.1,0,1,1,2.151-3.824A3.069,3.069,0,0,1,226.9,143.747Z" transform="translate(324.611 64.788)"/>
            <path id="路径_37477" data-name="路径 37477" d="M139,94.747a3.1,3.1,0,1,1,2.151-3.824A3.519,3.519,0,0,1,139,94.747Z" transform="translate(202.426 -3.324)"/>
            <path id="路径_37478" data-name="路径 37478" d="M226.9,143.747a3.1,3.1,0,1,1,2.151-3.824A3.069,3.069,0,0,1,226.9,143.747Z" transform="translate(324.611 64.788)"/>
            <path id="路径_37479" data-name="路径 37479" d="M226.9,143.747a3.1,3.1,0,1,1,2.151-3.824A3.069,3.069,0,0,1,226.9,143.747Z" transform="translate(324.611 64.788)"/>
            <path id="路径_37480" data-name="路径 37480" d="M251,207.447a3.1,3.1,0,1,1,2.151-3.824A3.069,3.069,0,0,1,251,207.447Z" transform="translate(358.111 153.334)"/>
            <path id="路径_37481" data-name="路径 37481" d="M226.9,143.747a3.1,3.1,0,1,1,2.151-3.824A3.069,3.069,0,0,1,226.9,143.747Z" transform="translate(324.611 64.788)"/>
            <path id="路径_37482" data-name="路径 37482" d="M251,207.447a3.1,3.1,0,1,1,2.151-3.824A3.069,3.069,0,0,1,251,207.447Z" transform="translate(358.111 153.334)"/>
            <path id="路径_37483" data-name="路径 37483" d="M203.3,202.447a3.1,3.1,0,1,1,2.151-3.824A3.069,3.069,0,0,1,203.3,202.447Z" transform="translate(291.806 146.384)"/>
            <path id="路径_37484" data-name="路径 37484" d="M251,207.447a3.1,3.1,0,1,1,2.151-3.824A3.069,3.069,0,0,1,251,207.447Z" transform="translate(358.111 153.334)"/>
            <path id="路径_37485" data-name="路径 37485" d="M251,207.447a3.1,3.1,0,1,1,2.151-3.824A3.069,3.069,0,0,1,251,207.447Z" transform="translate(358.111 153.334)"/>
            <path id="路径_37486" data-name="路径 37486" d="M133.2,186.247a3.1,3.1,0,1,1,2.151-3.824A3.069,3.069,0,0,1,133.2,186.247Z" transform="translate(194.364 123.865)"/>
            <path id="路径_37487" data-name="路径 37487" d="M251,207.447a3.1,3.1,0,1,1,2.151-3.824A3.069,3.069,0,0,1,251,207.447Z" transform="translate(358.111 153.334)"/>
          </g>
        </g>
      </g>
      <g id="_8-关于我们" data-name="8-关于我们" transform="translate(361.564 187.085)">
        <path id="路径_38118" data-name="路径 38118" d="M1219.81,497.625l-7.345,17.971,22.221,11.8,29.8-4.808,7.431-16.684-21.565-12.823Z" transform="translate(-1026.071 -413.465)" fill="none" stroke="#231815" stroke-miterlimit="10" stroke-width="1"/>
        <path id="路径_38119" data-name="路径 38119" d="M1231.227,506.062l-6.3,14.95,19.794,10.243,26.3-4.637,6.091-13.565L1258.5,501.979Z" transform="translate(-1034.903 -419.767)" fill="none" stroke="#231815" stroke-miterlimit="10" stroke-width="1"/>
        <g id="组_21568" data-name="组 21568">
          <path id="路径_38120" data-name="路径 38120" d="M736.011,264.663A87.045,87.045,0,1,0,616.016,382.087" transform="translate(-572.865 -219.874)" fill="none" stroke="#0080f4" stroke-miterlimit="10" stroke-width="1"/>
          <path id="路径_38121" data-name="路径 38121" d="M849.9,631.792q3.121.223,6.3.224a87.05,87.05,0,0,0,86.361-76.155" transform="translate(-769.168 -457.947)" fill="none" stroke="#0080f4" stroke-miterlimit="10" stroke-width="1"/>
          <path id="路径_38122" data-name="路径 38122" d="M952.375,549.574a83.009,83.009,0,0,0,56.916-99.419" transform="translate(-841.777 -383.046)" fill="none" stroke="#ef54a1" stroke-miterlimit="10" stroke-width="1"/>
          <path id="路径_38123" data-name="路径 38123" d="M645.7,246.488a83.013,83.013,0,0,0-56.591,97.565" transform="translate(-582.942 -238.732)" fill="none" stroke="#ef54a1" stroke-miterlimit="10" stroke-width="1"/>
          <path id="路径_38124" data-name="路径 38124" d="M641.863,328.983a74,74,0,1,0,106.2,8.3" transform="translate(-604.108 -297.186)" fill="none" stroke="#0080f4" stroke-miterlimit="10" stroke-width="1"/>
          <path id="路径_38125" data-name="路径 38125" d="M970.083,519.461a71.188,71.188,0,0,0,37.056-91.1" transform="translate(-854.325 -367.603)" fill="none" stroke="#000" stroke-miterlimit="10" stroke-width="1"/>
          <path id="路径_38126" data-name="路径 38126" d="M970.083,740.967" transform="translate(-854.325 -589.109)" fill="none" stroke="#000" stroke-miterlimit="10" stroke-width="1"/>
          <path id="路径_38127" data-name="路径 38127" d="M736.192,285.715a71.108,71.108,0,1,0-40.384,130.717" transform="translate(-610.759 -258.399)" fill="none" stroke="#0c111a" stroke-miterlimit="10" stroke-width="1"/>
          <path id="路径_38128" data-name="路径 38128" d="M677.167,304.111a68.069,68.069,0,1,0,74.479,111.651" transform="translate(-618.212 -279.563)" fill="none" stroke="#000" stroke-miterlimit="10" stroke-width="1"/>
          <path id="路径_38129" data-name="路径 38129" d="M921.819,302.816a67.82,67.82,0,0,0-45.265-18.865" transform="translate(-788.052 -265.278)" fill="none" stroke="#000" stroke-miterlimit="10" stroke-width="1"/>
          <path id="路径_38130" data-name="路径 38130" d="M1087.353,547.234c3.121-7.808,4.829-14.451,4.829-23.372" transform="translate(-937.42 -435.273)" fill="none" stroke="#000" stroke-miterlimit="10" stroke-width="1"/>
          <path id="路径_38131" data-name="路径 38131" d="M998.837,700.413" transform="translate(-874.699 -560.373)" fill="none" stroke="#000" stroke-miterlimit="10" stroke-width="1"/>
          <path id="路径_38132" data-name="路径 38132" d="M648.629,545.667a65.16,65.16,0,0,0,102.058,45.1" transform="translate(-626.55 -450.724)" fill="none" stroke="#000" stroke-miterlimit="10" stroke-width="1"/>
          <path id="路径_38133" data-name="路径 38133" d="M836.636,298.39a65.4,65.4,0,0,0-47.6-.068" transform="translate(-726.038 -272.307)" fill="none" stroke="#000" stroke-miterlimit="10" stroke-width="1"/>
          <path id="路径_38134" data-name="路径 38134" d="M661.284,565.223a62.584,62.584,0,0,0,84.087,44.566" transform="translate(-635.517 -464.581)" fill="none" stroke="#000" stroke-miterlimit="10" stroke-width="1"/>
          <path id="路径_38135" data-name="路径 38135" d="M812.748,305.346a62.42,62.42,0,0,0-41.2,5.83" transform="translate(-713.645 -279.563)" fill="none" stroke="#000" stroke-miterlimit="10" stroke-width="1"/>
          <path id="路径_38136" data-name="路径 38136" d="M794.583,688.878a59.743,59.743,0,0,0,58.376-8.069" transform="translate(-729.969 -546.482)" fill="none" stroke="#ef54a1" stroke-miterlimit="10" stroke-width="1"/>
          <path id="路径_38137" data-name="路径 38137" d="M839.586,318.018a59.873,59.873,0,0,0-44.492-.24" transform="translate(-730.332 -286.294)" fill="none" stroke="#0c111a" stroke-miterlimit="10" stroke-width="1"/>
          <path id="路径_38138" data-name="路径 38138" d="M617.735,645.42a82.915,82.915,0,0,0,79.944,45.607q.715-.05,1.426-.112" transform="translate(-604.659 -521.407)" fill="none" stroke="#0080f4" stroke-miterlimit="10" stroke-width="1"/>
        </g>
        <g id="组_21569" data-name="组 21569" transform="translate(4.774 5.702)">
          <circle id="椭圆_1730" data-name="椭圆 1730" cx="1.468" cy="1.468" r="1.468" transform="translate(157.293 38.42)" fill="#0080f4"/>
          <circle id="椭圆_1731" data-name="椭圆 1731" cx="1.224" cy="1.224" r="1.224" transform="translate(120.131 20.946)"/>
          <circle id="椭圆_1732" data-name="椭圆 1732" cx="1.098" cy="1.098" r="1.098" transform="translate(128.174 31.239)"/>
          <circle id="椭圆_1733" data-name="椭圆 1733" cx="1.098" cy="1.098" r="1.098" transform="translate(81.958 11.938)"/>
          <circle id="椭圆_1734" data-name="椭圆 1734" cx="1.224" cy="1.224" r="1.224" transform="translate(105.136 19.488)"/>
          <circle id="椭圆_1735" data-name="椭圆 1735" cx="1.224" cy="1.224" r="1.224" transform="translate(93.869 19.157)"/>
          <circle id="椭圆_1736" data-name="椭圆 1736" cx="0.865" cy="0.865" r="0.865" transform="translate(103.615 25.229)"/>
          <circle id="椭圆_1737" data-name="椭圆 1737" cx="0.865" cy="0.865" r="0.865" transform="translate(58.759 25.157)"/>
          <circle id="椭圆_1738" data-name="椭圆 1738" cx="0.865" cy="0.865" r="0.865" transform="translate(58.576 135.715)" fill="#ef54a1"/>
          <circle id="椭圆_1739" data-name="椭圆 1739" cx="0.865" cy="0.865" r="0.865" transform="translate(60.843 126.455)"/>
          <circle id="椭圆_1740" data-name="椭圆 1740" cx="0.865" cy="0.865" r="0.865" transform="translate(117.35 127.759)" fill="#ef54a1"/>
          <circle id="椭圆_1741" data-name="椭圆 1741" cx="1.224" cy="1.224" r="1.224" transform="translate(51.344 24.871)"/>
          <circle id="椭圆_1742" data-name="椭圆 1742" cx="1.224" cy="1.224" r="1.224" transform="translate(56.18 19.488)"/>
          <circle id="椭圆_1743" data-name="椭圆 1743" cx="1.05" cy="1.05" r="1.05" transform="translate(53.331 17.797)"/>
          <circle id="椭圆_1744" data-name="椭圆 1744" cx="1.224" cy="1.224" r="1.224" transform="translate(32.046 24.367)" fill="#0080f4"/>
          <circle id="椭圆_1745" data-name="椭圆 1745" cx="1.148" cy="1.148" r="1.148" transform="translate(137.885 33.261)" fill="#0080f4"/>
          <circle id="椭圆_1746" data-name="椭圆 1746" cx="1.148" cy="1.148" r="1.148" transform="translate(146.719 53.478)"/>
          <circle id="椭圆_1747" data-name="椭圆 1747" cx="1.004" cy="1.004" r="1.004" transform="translate(148.984 81.411)"/>
          <circle id="椭圆_1748" data-name="椭圆 1748" cx="1.004" cy="1.004" r="1.004" transform="translate(143.932 105.728)"/>
          <circle id="椭圆_1749" data-name="椭圆 1749" cx="1.004" cy="1.004" r="1.004" transform="translate(128.088 129.285)"/>
          <circle id="椭圆_1750" data-name="椭圆 1750" cx="1.079" cy="1.079" r="1.079" transform="translate(79.778 151.252)"/>
          <circle id="椭圆_1751" data-name="椭圆 1751" cx="1.87" cy="1.87" r="1.87" transform="translate(56.353)" fill="#ef54a1"/>
          <circle id="椭圆_1752" data-name="椭圆 1752" cx="1.705" cy="1.705" r="1.705" transform="translate(160.595 58.991)" fill="#ef54a1"/>
          <circle id="椭圆_1753" data-name="椭圆 1753" cx="1.705" cy="1.705" r="1.705" transform="translate(166.916 89.05)" fill="#0080f4"/>
          <circle id="椭圆_1754" data-name="椭圆 1754" cx="1.705" cy="1.705" r="1.705" transform="translate(74.256 166.381)" fill="#0080f4"/>
          <circle id="椭圆_1755" data-name="椭圆 1755" cx="1.705" cy="1.705" r="1.705" transform="translate(37.862 155.472)" fill="#0080f4"/>
          <circle id="椭圆_1756" data-name="椭圆 1756" cx="1.705" cy="1.705" r="1.705" transform="translate(0 99.159)" fill="#ef54a1"/>
          <circle id="椭圆_1757" data-name="椭圆 1757" cx="1.133" cy="1.133" r="1.133" transform="translate(15.981 87.398)"/>
          <circle id="椭圆_1758" data-name="椭圆 1758" cx="1.133" cy="1.133" r="1.133" transform="translate(19.683 92.787)"/>
          <circle id="椭圆_1759" data-name="椭圆 1759" cx="1.612" cy="1.612" r="1.612" transform="translate(6.236 115.935)" fill="#0080f4"/>
          <circle id="椭圆_1760" data-name="椭圆 1760" cx="1.079" cy="1.079" r="1.079" transform="translate(54.877 71.928)"/>
          <circle id="椭圆_1761" data-name="椭圆 1761" cx="1.079" cy="1.079" r="1.079" transform="translate(63.943 70.212)"/>
          <circle id="椭圆_1762" data-name="椭圆 1762" cx="0.867" cy="0.867" r="0.867" transform="translate(114.418 97.405)"/>
          <circle id="椭圆_1763" data-name="椭圆 1763" cx="1.079" cy="1.079" r="1.079" transform="translate(93.796 40.132)"/>
          <circle id="椭圆_1764" data-name="椭圆 1764" cx="1.079" cy="1.079" r="1.079" transform="translate(105.874 60.833)"/>
          <circle id="椭圆_1765" data-name="椭圆 1765" cx="0.898" cy="0.898" r="0.898" transform="translate(86.206 80.457)"/>
          <circle id="椭圆_1766" data-name="椭圆 1766" cx="0.898" cy="0.898" r="0.898" transform="translate(90.092 102.299)"/>
          <circle id="椭圆_1767" data-name="椭圆 1767" cx="0.898" cy="0.898" r="0.898" transform="translate(53.52 90.894)"/>
          <circle id="椭圆_1768" data-name="椭圆 1768" cx="0.898" cy="0.898" r="0.898" transform="translate(39.241 94.391)"/>
          <circle id="椭圆_1769" data-name="椭圆 1769" cx="1.079" cy="1.079" r="1.079" transform="translate(113.126 60.833)"/>
          <circle id="椭圆_1770" data-name="椭圆 1770" cx="1.004" cy="1.004" r="1.004" transform="translate(118.36 133.333)"/>
          <circle id="椭圆_1771" data-name="椭圆 1771" cx="1.004" cy="1.004" r="1.004" transform="translate(104.077 138.351)"/>
          <circle id="椭圆_1772" data-name="椭圆 1772" cx="1.079" cy="1.079" r="1.079" transform="translate(109.492 145.271)"/>
          <circle id="椭圆_1773" data-name="椭圆 1773" cx="1.705" cy="1.705" r="1.705" transform="translate(89.288 161.931)" fill="#0080f4"/>
          <circle id="椭圆_1774" data-name="椭圆 1774" cx="1.705" cy="1.705" r="1.705" transform="translate(105.104 158.9)" fill="#ef54a1"/>
        </g>
        <g id="组_21570" data-name="组 21570" transform="translate(26.959 39.47)">
          <path id="路径_38139" data-name="路径 38139" d="M727.02,360.592l.928-.324,1.194-.035-.341.682h-.6V362.3h4.23s2.418-3.108,2.763-3.454a19.512,19.512,0,0,1,2.374-1.327c.68-.389,2.461-.939,2.979-2.2H735.2l-2.364,1.813-1.036-.259-2.331,2.2-.518.486-.324.324" transform="translate(-709.055 -355.314)" fill="none" stroke="#000" stroke-miterlimit="10" stroke-width="1"/>
          <path id="路径_38140" data-name="路径 38140" d="M742.641,370.683l1.338-1.856h2.115l3.324-2.936h5.526l2.115-1.554h7.167l.3,4.058,2.331.043-.216,1.209-.734,2.115-.518.777h-1.252l-4.447,5.958h-4.015l-4.144,6.3h-3.929l-1.468-3.152-.216-1.338.95-.863,1.382-.175.734-1.077-.086-1.166-4.188.043-.173-3.626.345-2.2-4.145.043" transform="translate(-718.778 -361.707)" fill="none" stroke="#0080f4" stroke-miterlimit="10" stroke-width="1"/>
          <path id="路径_38141" data-name="路径 38141" d="M729,396.78l-3.67,7.814h1.835v1.727l-.712.432.043,1.77,2.5.216.648,2.677h1.166l1.554-5.224.259-1.554-.518-.086-.3-1.3-1.641-.173v-3.411h-1.856" transform="translate(-707.861 -384.696)" fill="none" stroke="#000" stroke-miterlimit="10" stroke-width="1"/>
          <path id="路径_38142" data-name="路径 38142" d="M866.674,380.855c-.388.237-8.872,0-8.872,0s-2.051.755-2.482,2.029-.41,3.389,1.878,3.389h3.6s3.13-1.381,3.54-2.828v-1.4" transform="translate(-799.811 -373.412)" fill="none" stroke="#000" stroke-miterlimit="10" stroke-width="1"/>
          <path id="路径_38143" data-name="路径 38143" d="M839.406,412.853l2.029,3.5h2.676s0-3.022,2.677-3.5h3.54v4.706l-3.756,2.935h-3.065l-.691-2.547H834.8l-7.179,7.771L827.4,429l2.375,2.418h4.188v-2.374l3.151-2.461h4.792" transform="translate(-780.185 -396.085)" fill="none" stroke="#0c111a" stroke-miterlimit="10" stroke-width="1"/>
          <path id="路径_38144" data-name="路径 38144" d="M873.328,405.3l2.72-2.374h9.368l3.195,1.856v1.684h-.95v1.122l1.166,1.554h3.324l.907-1.425v-1.9h2.072l.993,2.763.734,4.36.475,2.159" transform="translate(-812.726 -389.052)" fill="none" stroke="#000" stroke-miterlimit="10" stroke-width="1"/>
          <path id="路径_38145" data-name="路径 38145" d="M823.39,442.778v7.944l1.874,1.727h2.547l1.209-1.338V450.2l-1.9-1.77v-1.943l1.122-.475h5.569l3.065,2.763v2.979l-11.656,9.5h-2.547l-3.152-4.231h-8.634l-7.037,7.037v9.023" transform="translate(-763.495 -417.289)" fill="none" stroke="#0c111a" stroke-miterlimit="10" stroke-width="1"/>
          <path id="路径_38146" data-name="路径 38146" d="M947.7,407.935h6.174l1.641-4.188h9.023l.389-1.856h10.663l3.138,4.447h1.007l1.641,4.533,1.9,5.612v5.569h-.345l-1.684-5.44-.173-1.9-1.3-5.108-1.252-1.584h-.691l.893,4.274v7.253h-6.031" transform="translate(-865.421 -388.317)" fill="none" stroke="#0c111a" stroke-miterlimit="10" stroke-width="1"/>
          <path id="路径_38147" data-name="路径 38147" d="M813.767,505.442l7.1,11.722h5.008l.388,3.431-5.7,5.958-.55,8.1-3.594,3.1-.13,2.979-3.367,4.209h-3.756l-4.145-8.419v-1.87l2.72-3.375v-1.619l-5.375-10.232h-1.943l-2.461,2.4H793.3l-2.914-2.267h-9.131" transform="translate(-747.487 -461.691)" fill="none" stroke="#0c111a" stroke-miterlimit="10" stroke-width="1"/>
          <path id="路径_38148" data-name="路径 38148" d="M893.476,504.327l3.022-2.5h2.245l5.44,8.289,1.6-.345,4.118-3.522v-6.581" transform="translate(-827.002 -457.598)" fill="none" stroke="#000" stroke-miterlimit="10" stroke-width="1"/>
          <path id="路径_38149" data-name="路径 38149" d="M932.4,497.98h-2.418l-3.022-4.834v-.994l.777-1.079h.95l3.108,4.922,5.008.173,6.044,13.787h3.195" transform="translate(-850.725 -451.509)" fill="none" stroke="#000" stroke-miterlimit="10" stroke-width="1"/>
          <path id="路径_38150" data-name="路径 38150" d="M992.545,529.2h-1.3v-2.159L994.755,521h4.179l-.432,8.7-.863,4.185.173,2.33.691,1.187h1.641l.863-1.187-.691-1.576-.518-1.121v-2.85" transform="translate(-896.282 -472.713)" fill="none" stroke="#000" stroke-miterlimit="10" stroke-width="1"/>
          <path id="路径_38151" data-name="路径 38151" d="M949.177,483.712l.189-2.159,1.71-1.3,20.938.173,1.338,3.281v2.5" transform="translate(-866.471 -443.847)" fill="none" stroke="#0c111a" stroke-miterlimit="10" stroke-width="1"/>
          <path id="路径_38152" data-name="路径 38152" d="M685.781,452.783h8.03l2.5-2.676.691-5.1,3.367-2.849v-4.145l-2.159-3.281h-1.9l-1.122,1.641-.691,3.713h-2.677l-.086-2.418,2.936-5.267.345-2.072h-1.381l-1.986,1.122L690.1,433.27l-1.122,5.44" transform="translate(-679.834 -408.472)" fill="none" stroke="#0c111a" stroke-miterlimit="10" stroke-width="1"/>
          <path id="路径_38153" data-name="路径 38153" d="M787.216,425.085l4.058-.216,2.331-1.727V421.89h-4.533l-2.741,2.072-.777,4.792" transform="translate(-750.531 -402.488)" fill="none" stroke="#000" stroke-miterlimit="10" stroke-width="1"/>
          <path id="路径_38154" data-name="路径 38154" d="M904.876,594.223l2.849-2.785h1.36v5.245l-3.389,3.691h-8.744" transform="translate(-829.465 -522.627)" fill="none" stroke="#000" stroke-miterlimit="10" stroke-width="1"/>
          <path id="路径_38155" data-name="路径 38155" d="M965.264,565.114h-4.727l-.842-1.187v-2.7l.842-1.124h1.036l.129,3.173" transform="translate(-873.924 -500.425)" fill="none" stroke="#000" stroke-miterlimit="10" stroke-width="1"/>
          <path id="路径_38156" data-name="路径 38156" d="M1032.137,513.814l.971-7.836h3.821l3.626-5.886v-6.634l-1.36-2.979h-1.166l-.389.8.389,4.533-2.959,5.468-1.833.3-.583,1.166-.194,2.785-.324,2.051" transform="translate(-925.254 -451.089)" fill="none" stroke="#0c111a" stroke-miterlimit="10" stroke-width="1"/>
          <path id="路径_38157" data-name="路径 38157" d="M1023.248,473.461l1.036-.691.712-1.587v-4.306l3.918-5.763v-6.249h2.072l.356-.81v-3.5l-1.781-5.407-.79-2.817" transform="translate(-918.956 -416.974)" fill="none" stroke="#000" stroke-miterlimit="10" stroke-width="1"/>
          <line id="直线_391" data-name="直线 391" x2="2.633" transform="translate(85.772 6.119)" fill="none" stroke="#000" stroke-miterlimit="10" stroke-width="1"/>
          <path id="路径_38158" data-name="路径 38158" d="M782.51,448.852l-.324,2.159-.928,8.159" transform="translate(-747.487 -421.593)" fill="none" stroke="#000" stroke-miterlimit="10" stroke-width="1"/>
          <path id="路径_38159" data-name="路径 38159" d="M725.483,468.851H732l.691,1.813-.475,1.511-3.13,3.281h-2.914" transform="translate(-707.966 -435.764)" fill="none" stroke="#000" stroke-miterlimit="10" stroke-width="1"/>
          <path id="路径_38160" data-name="路径 38160" d="M679.855,518.2h1.209l.518,1.463.546,7.339" transform="translate(-675.635 -470.732)" fill="none" stroke="#000" stroke-miterlimit="10" stroke-width="1"/>
          <line id="直线_392" data-name="直线 392" x2="6.562" y2="0.216" transform="translate(0.378 38.052)" fill="none" stroke="#000" stroke-miterlimit="10" stroke-width="1"/>
          <path id="路径_38161" data-name="路径 38161" d="M704.011,386.78l-3.713,5.612.216.043.82.043-.043.928-.777.971v1.209l1.684-.043v1.015l-.691.885v1.122h1.6l2.806-2.374v-1.036h-.993l.345-2.418-2.806.259,2.029-4.576-2.418-.173" transform="translate(-690.121 -377.61)" fill="none" stroke="#000" stroke-miterlimit="10" stroke-width="1"/>
          <path id="路径_38162" data-name="路径 38162" d="M931.694,388.114l-.227-.712,1.263-1.1,1.91-1.457h2.008V384.1l-1.781-.68-1.068-.971h-2.331l-2.882,2.558.292,2.1.648,2.072.648.453h4.663" transform="translate(-851.88 -374.54)" fill="none" stroke="#000" stroke-miterlimit="10" stroke-width="1"/>
          <path id="路径_38163" data-name="路径 38163" d="M1006.508,376.312s6.265,7.5,7.061,10.649" transform="translate(-907.094 -370.193)" fill="none" stroke="#000" stroke-miterlimit="10" stroke-width="1"/>
          <path id="路径_38164" data-name="路径 38164" d="M988.138,401.891l3.679,9.5v3.67l-1.278,1.278H987.1" transform="translate(-893.343 -388.317)" fill="none" stroke="#000" stroke-miterlimit="10" stroke-width="1"/>
          <path id="路径_38165" data-name="路径 38165" d="M1042.708,426.886h-2.72v2.127" transform="translate(-930.817 -406.028)" fill="none" stroke="#000" stroke-miterlimit="10" stroke-width="1"/>
          <path id="路径_38166" data-name="路径 38166" d="M1023.272,596.693l1.468-2.792,1.325.216-.72,5.742-2.072,4.4-4.034,4.835h-1.751l.691-2.677-3.67.259.863-4.231.863-3.929,6.344-5.526h1.988l.043.561" transform="translate(-912.763 -523.729)" fill="none" stroke="#0080f4" stroke-miterlimit="10" stroke-width="1"/>
          <path id="路径_38167" data-name="路径 38167" d="M1029.755,643.316v.661l-5.915,5.785" transform="translate(-919.376 -559.386)" fill="none" stroke="#000" stroke-miterlimit="10" stroke-width="1"/>
          <line id="直线_393" data-name="直线 393" x2="4.015" transform="translate(31.505 15.063)" fill="none" stroke="#000" stroke-miterlimit="10" stroke-width="1"/>
          <line id="直线_394" data-name="直线 394" x2="1.91" transform="translate(55.8 16.768)" fill="none" stroke="#000" stroke-miterlimit="10" stroke-width="1"/>
          <line id="直线_395" data-name="直线 395" x2="3.033" transform="translate(68.06 7.573)" fill="none" stroke="#000" stroke-miterlimit="10" stroke-width="1"/>
          <path id="路径_38168" data-name="路径 38168" d="M971.547,376.312h5.4l2.849,2.4.777.777v1.036h-4.49l-1.9-2.893" transform="translate(-882.321 -370.193)" fill="none" stroke="#000" stroke-miterlimit="10" stroke-width="1"/>
          <path id="路径_38169" data-name="路径 38169" d="M733.334,566.423h9.455l1.943,2.563v3.152l-2.5,4.792H738" transform="translate(-713.529 -504.901)" fill="none" stroke="#0c111a" stroke-miterlimit="10" stroke-width="1"/>
          <path id="路径_38170" data-name="路径 38170" d="M744,630.622l1.6,3.022,4.447,7.685,3.324,2.892,5.372-.173" transform="translate(-721.087 -550.391)" fill="none" stroke="#000" stroke-miterlimit="10" stroke-width="1"/>
          <path id="路径_38171" data-name="路径 38171" d="M672.659,428.112l-2.677,5.051v2.418l-1.122,5.569-1.122,6-.475,6.821,4.274,6.3h5.137l1.166,1.385.259,5.565,2.59,10.016,4.922,5.137,2.59,6.389,5.742,9.541,5.915,4.878.626.23.237-.878-4.576-6.562v-2.461l2.936-9.714-2.159-8.03-10.016-12.3h-6.174l-.777-1.1-.432-4.685-.345-1.252H676.89l-.82-.863.259-6.605" transform="translate(-666.712 -406.897)" fill="none" stroke="#000" stroke-miterlimit="10" stroke-width="1"/>
          <path id="路径_38172" data-name="路径 38172" d="M667.026,471.448a9.832,9.832,0,0,0-1.651-.227" transform="translate(-665.374 -437.443)" fill="none" stroke="#000" stroke-miterlimit="10" stroke-width="1"/>
          <path id="路径_38173" data-name="路径 38173" d="M690.285,419.217h-2.914l.421-2.2,1.036-2.2.389-2.364H685.04l.971-1.878.421-1.88,1.23-2.134" transform="translate(-679.309 -391.624)" fill="none" stroke="#000" stroke-miterlimit="10" stroke-width="1"/>
          <path id="路径_38174" data-name="路径 38174" d="M851.477,566.423H857.5l4.015,7.29,2.59.618" transform="translate(-797.243 -504.901)" fill="none" stroke="#000" stroke-miterlimit="10" stroke-width="1"/>
          <line id="直线_396" data-name="直线 396" y2="2.229" transform="translate(40.852 59.292)" fill="none" stroke="#000" stroke-miterlimit="10" stroke-width="1"/>
          <line id="直线_397" data-name="直线 397" x2="2.357" transform="translate(96.116 58.444)" fill="none" stroke="#000" stroke-miterlimit="10" stroke-width="1"/>
          <line id="直线_398" data-name="直线 398" x1="0.648" y2="3.628" transform="translate(112.387 57.544)" fill="none" stroke="#000" stroke-miterlimit="10" stroke-width="1"/>
          <line id="直线_399" data-name="直线 399" x1="1.166" y2="2.806" transform="translate(109.214 74.511)" fill="none" stroke="#000" stroke-miterlimit="10" stroke-width="1"/>
          <line id="直线_400" data-name="直线 400" x2="1.878" transform="translate(44.65 37.577)" fill="none" stroke="#000" stroke-miterlimit="10" stroke-width="1"/>
          <line id="直线_401" data-name="直线 401" x1="2.115" y2="5.069" transform="translate(117.848 60.407)" fill="none" stroke="#000" stroke-miterlimit="10" stroke-width="1"/>
          <path id="路径_38175" data-name="路径 38175" d="M831.875,491.467V485.92l-.583-1.079-1.813-.583" transform="translate(-781.655 -446.681)" fill="none" stroke="#000" stroke-miterlimit="10" stroke-width="1"/>
          <path id="路径_38176" data-name="路径 38176" d="M898.918,478.7l-1.966-3.3v-1.748l.606-.648h2.4l2.893,3.281h3.324" transform="translate(-829.465 -438.703)" fill="none" stroke="#000" stroke-miterlimit="10" stroke-width="1"/>
        </g>
        <g id="组_21571" data-name="组 21571" transform="translate(147.887 24.071)">
          <rect id="矩形_2274" data-name="矩形 2274" width="37.119" height="2.221" rx="1.111" transform="matrix(0.864, 0.503, -0.503, 0.864, 6.991, 5.525)" fill="none" stroke="#0080f4" stroke-miterlimit="10" stroke-width="1"/>
          <rect id="矩形_2275" data-name="矩形 2275" width="28.596" height="2.62" rx="1.31" transform="matrix(0.864, 0.503, -0.503, 0.864, 14.457, 9.641)"/>
          <path id="路径_38177" data-name="路径 38177" d="M1084.4,313.068l-1.608-1.19-1.892.649.635-1.9-1.2-1.6,2,.018,1.149-1.637.6,1.908,1.912.587-1.629,1.161Z" transform="translate(-1080.331 -305.973)" fill="#0080f4"/>
          <path id="路径_38178" data-name="路径 38178" d="M1120.565,312.044l-.765-1.07-1.315.024.781-1.058-.429-1.243,1.248.416,1.05-.792-.01,1.315,1.078.754-1.254.4Z" transform="translate(-1107.366 -306.616)" fill="#0080f4"/>
          <path id="路径_38179" data-name="路径 38179" d="M1105.089,305.087l-.537-.751-.924.017.549-.743-.3-.873.876.292.737-.556-.007.924.757.529-.881.279Z" transform="translate(-1096.839 -302.471)" fill="#0080f4"/>
          <path id="路径_38180" data-name="路径 38180" d="M1086.139,334.861l-.374-.522-.642.012.381-.517-.209-.607.609.2.513-.387,0,.642.526.368-.612.194Z" transform="translate(-1083.727 -324.133)" fill="#0080f4"/>
          <path id="路径_38181" data-name="路径 38181" d="M1091.787,346.328l-.287-1.246-1.189-.47,1.1-.658.08-1.276.964.839,1.238-.319-.5,1.176.685,1.079-1.273-.112Z" transform="translate(-1087.403 -330.962)" fill="#0080f4"/>
        </g>
        <path id="路径_38182" data-name="路径 38182" d="M1197.1,367.129c-2.057-.286-4.009.577-5.78,1.3a7.425,7.425,0,0,1-2.392.688c-1.077-.667-.831-2.038-.356-2.937a8.22,8.22,0,0,1,1.918-2.25,13.07,13.07,0,0,1,5.662-2.44l-.166-1.516a11.7,11.7,0,0,0-6.467,2.8,9.543,9.543,0,0,0-2.274,2.676c-.928,2.063-.855,4.54,1.611,5.189a7.442,7.442,0,0,0,3.056-.806c1.749-.648,3.931-1.81,5.614-.971Z" transform="translate(-1007.814 -319.147)"/>
        <path id="路径_38183" data-name="路径 38183" d="M1199.093,515.664l25.176,12.942,33.566-5.785,8.816-19.853-22.065-12.578" transform="translate(-1016.597 -411.555)" fill="none" stroke="#231815" stroke-miterlimit="10" stroke-width="1"/>
        <g id="组_21572" data-name="组 21572" transform="translate(182.579 59.042)">
          <line id="直线_402" data-name="直线 402" y2="4.092" transform="translate(0)" fill="none" stroke="#231815" stroke-miterlimit="10" stroke-width="1"/>
          <line id="直线_403" data-name="直线 403" y2="4.092" transform="translate(0 5.61)" fill="none" stroke="#231815" stroke-miterlimit="10" stroke-width="1"/>
          <line id="直线_404" data-name="直线 404" y2="4.092" transform="translate(0 11.426)" fill="none" stroke="#231815" stroke-miterlimit="10" stroke-width="1"/>
          <line id="直线_405" data-name="直线 405" y2="4.602" transform="translate(0 17.109)" fill="none" stroke="#231815" stroke-miterlimit="10" stroke-width="1"/>
          <line id="直线_406" data-name="直线 406" y2="4.408" transform="translate(0 23.374)" fill="none" stroke="#231815" stroke-miterlimit="10" stroke-width="1"/>
          <line id="直线_407" data-name="直线 407" y2="4.189" transform="translate(0 29.349)" fill="none" stroke="#231815" stroke-miterlimit="10" stroke-width="1"/>
          <line id="直线_408" data-name="直线 408" y2="4.189" transform="translate(0 35.262)" fill="none" stroke="#231815" stroke-miterlimit="10" stroke-width="1"/>
          <line id="直线_409" data-name="直线 409" y2="4.189" transform="translate(0 41.048)" fill="none" stroke="#231815" stroke-miterlimit="10" stroke-width="1"/>
        </g>
        <g id="组_21573" data-name="组 21573" transform="translate(250.053 46.075)">
          <line id="直线_410" data-name="直线 410" y2="4.092" fill="none" stroke="#231815" stroke-miterlimit="10" stroke-width="1"/>
          <line id="直线_411" data-name="直线 411" y2="4.092" transform="translate(0 5.61)" fill="none" stroke="#231815" stroke-miterlimit="10" stroke-width="1"/>
          <line id="直线_412" data-name="直线 412" y2="4.092" transform="translate(0 11.426)" fill="none" stroke="#231815" stroke-miterlimit="10" stroke-width="1"/>
          <line id="直线_413" data-name="直线 413" y2="4.602" transform="translate(0 17.109)" fill="none" stroke="#231815" stroke-miterlimit="10" stroke-width="1"/>
          <line id="直线_414" data-name="直线 414" y2="4.408" transform="translate(0 23.374)" fill="none" stroke="#231815" stroke-miterlimit="10" stroke-width="1"/>
          <line id="直线_415" data-name="直线 415" y2="4.189" transform="translate(0 29.349)" fill="none" stroke="#231815" stroke-miterlimit="10" stroke-width="1"/>
          <line id="直线_416" data-name="直线 416" y2="4.189" transform="translate(0 35.262)" fill="none" stroke="#231815" stroke-miterlimit="10" stroke-width="1"/>
          <line id="直线_417" data-name="直线 417" y2="4.189" transform="translate(0 41.048)" fill="none" stroke="#231815" stroke-miterlimit="10" stroke-width="1"/>
        </g>
        <g id="组_21574" data-name="组 21574" transform="translate(228.086 62.924)">
          <line id="直线_418" data-name="直线 418" y2="4.209" transform="translate(0)" fill="none" stroke="#231815" stroke-miterlimit="10" stroke-width="1"/>
          <line id="直线_419" data-name="直线 419" y2="4.209" transform="translate(0 5.942)" fill="none" stroke="#231815" stroke-miterlimit="10" stroke-width="1"/>
          <line id="直线_420" data-name="直线 420" y2="4.209" transform="translate(0 11.756)" fill="none" stroke="#231815" stroke-miterlimit="10" stroke-width="1"/>
        </g>
        <g id="组_21575" data-name="组 21575" transform="translate(245.813 76.615)">
          <line id="直线_421" data-name="直线 421" y2="4.209" fill="none" stroke="#231815" stroke-miterlimit="10" stroke-width="1"/>
          <line id="直线_422" data-name="直线 422" y2="4.209" transform="translate(0 5.942)" fill="none" stroke="#231815" stroke-miterlimit="10" stroke-width="1"/>
          <line id="直线_423" data-name="直线 423" y2="4.209" transform="translate(0 11.756)" fill="none" stroke="#231815" stroke-miterlimit="10" stroke-width="1"/>
        </g>
        <g id="组_21576" data-name="组 21576" transform="translate(193.736 68.678)">
          <line id="直线_424" data-name="直线 424" y2="4.112" transform="translate(0)" fill="none" stroke="#231815" stroke-miterlimit="10" stroke-width="1"/>
          <line id="直线_425" data-name="直线 425" y2="4.112" transform="translate(0 5.637)" fill="none" stroke="#231815" stroke-miterlimit="10" stroke-width="1"/>
          <line id="直线_426" data-name="直线 426" y2="4.112" transform="translate(0 11.482)" fill="none" stroke="#231815" stroke-miterlimit="10" stroke-width="1"/>
        </g>
        <ellipse id="椭圆_1775" data-name="椭圆 1775" cx="15.151" cy="9.257" rx="15.151" ry="9.257" transform="translate(200.705 87.108)" fill="none" stroke="#0080f4" stroke-miterlimit="10" stroke-width="1"/>
        <line id="直线_427" data-name="直线 427" x1="20.569" y2="13.594" transform="translate(205.482 89.518)" fill="none" stroke="#0080f4" stroke-miterlimit="10" stroke-width="1"/>
        <path id="路径_38184" data-name="路径 38184" d="M1328.531,550.6c-1.791-.835-5.785-.083-9.555,2.324-3.313,2.115-5.452,4.76-5.789,6.685" transform="translate(-1097.441 -453.988)" fill="none" stroke="#0080f4" stroke-miterlimit="10" stroke-width="1"/>
        <path id="路径_38185" data-name="路径 38185" d="M1261.576,528.11a20.5,20.5,0,0,0,8.99-1.886c4.7-2.248,7.506-5.525,7.745-8.074" transform="translate(-1060.871 -431.226)" fill="none" stroke="#0080f4" stroke-miterlimit="10" stroke-width="1"/>
        <line id="直线_428" data-name="直线 428" x2="23.111" y2="11.97" transform="translate(204.47 90.259)" fill="none" stroke="#0080f4" stroke-miterlimit="10" stroke-width="1"/>
        <g id="组_21577" data-name="组 21577" transform="translate(202.669 89.263)">
          <path id="路径_38186" data-name="路径 38186" d="M1275.454,527.073c2.5-1.546,7.909-1.1,13.472,1.348,6.8,2.986,10.4,7.482,9.8,10.375" transform="translate(-1273.373 -526.175)" fill="none" stroke="#0080f4" stroke-miterlimit="10" stroke-width="1" stroke-dasharray="10 5"/>
          <path id="路径_38187" data-name="路径 38187" d="M1291.56,546.22c-2.768,1.385-7.909,1.1-13.472-1.347-6.8-2.986-10.3-7.321-9.709-10.214" transform="translate(-1268.314 -532.186)" fill="none" stroke="#0080f4" stroke-miterlimit="10" stroke-width="1" stroke-dasharray="10 5"/>
        </g>
        <path id="路径_38188" data-name="路径 38188" d="M1219.568,295.078a64.283,64.283,0,0,0,4.5,12.459,38.328,38.328,0,0,0,7.319,10.637c2.778,2.692,5.9,4.382,9.191,4.382,5.18,0,9.833-2.577,13.573-5.07,1.871-1.246,3.52-2.481,4.856-3.387a8.074,8.074,0,0,1,2.8-1.4,11.3,11.3,0,0,1,3.767,1.066c1.454.619,2.975,1.371,4.287,1.9a.8.8,0,0,0,1.042-.687,9.791,9.791,0,0,0-6.277-9.239,11.616,11.616,0,0,0-9.475.545c1.721-3.685,3.664-7.658,5.353-11.678,2-4.771,3.577-9.346,3.577-12.981,0-15.539-11.659-25.772-22.74-25.772-12.494,0-23.474,9.462-23.5,24.209a.217.217,0,0,1,0,.024v.023a44.54,44.54,0,0,0,.19,6.088l.166,1.516c.228,1.855.529,3.747.948,5.637Z" transform="translate(-1029.855 -245.367)" fill="#fff" stroke="#000" stroke-miterlimit="10" stroke-width="1"/>
        <path id="路径_38189" data-name="路径 38189" d="M1286.428,298.989c.658-2.028,1.953-3.9,4.43-4.122,2.026.039,3.383,2.2,4.122,4.1a22.339,22.339,0,0,1,1.185,7.272.8.8,0,0,1-1.185.616,7.935,7.935,0,0,0-4.122-.995,8.03,8.03,0,0,0-4.145.995.8.8,0,0,1-1.161-.616A25.059,25.059,0,0,1,1286.428,298.989Z" transform="translate(-1077.859 -273.012)"/>
        <path id="路径_38190" data-name="路径 38190" d="M1237.292,306.853a.8.8,0,0,1-1.161-.616,25.072,25.072,0,0,1,.876-7.249c.658-2.028,1.953-3.9,4.43-4.122,2.025.039,3.382,2.2,4.122,4.1a22.358,22.358,0,0,1,1.184,7.272.8.8,0,0,1-1.184.616,7.938,7.938,0,0,0-4.122-.995A8.025,8.025,0,0,0,1237.292,306.853Z" transform="translate(-1042.841 -273.012)"/>
        <path id="路径_38191" data-name="路径 38191" d="M1273.676,363.137a11.41,11.41,0,0,0-12.365-.971,13.751,13.751,0,0,0-4.193,3.1c-.983,1.146-1.876,2.8-.189,3.672a7.989,7.989,0,0,0,2.677-.143c2.513-.42,5.076-.854,7.438.735l-.948,1.184c-1.616-1.25-4.158-.742-6.23-.426a8.511,8.511,0,0,1-3.292.142c-3.3-.859-2.049-4.385-.592-6.159a15.1,15.1,0,0,1,4.666-3.458,13.357,13.357,0,0,1,13.952,1.114Z" transform="translate(-1055.845 -318.708)"/>
      </g>
    </g>
    <path id="路径_39946" data-name="路径 39946" d="M1.92,1.795a1.67,1.67,0,0,1-1.3-.533A1.977,1.977,0,0,1,.138-.125a2.1,2.1,0,0,1,.5-1.464,1.732,1.732,0,0,1,1.35-.546,1.632,1.632,0,0,1,1.269.53A1.985,1.985,0,0,1,3.734-.218a2.1,2.1,0,0,1-.493,1.472A1.7,1.7,0,0,1,1.92,1.795Zm.032-3.528A1.226,1.226,0,0,0,.978-1.3,1.674,1.674,0,0,0,.6-.165,1.685,1.685,0,0,0,.969.966a1.189,1.189,0,0,0,.951.428A1.249,1.249,0,0,0,2.907.986,1.669,1.669,0,0,0,3.267-.157a1.744,1.744,0,0,0-.35-1.164A1.2,1.2,0,0,0,1.952-1.733Zm14,1.926q0,1.6-1.446,1.6-1.385,0-1.385-1.541V-2.072h.446v2.3q0,1.17.987,1.17.952,0,.952-1.13V-2.072h.446ZM28.323,1.731h-.53L27.156.665a2.322,2.322,0,0,0-.17-.253.968.968,0,0,0-.168-.171.583.583,0,0,0-.186-.1.763.763,0,0,0-.224-.031h-.366V1.731H25.6v-3.8h1.135a1.618,1.618,0,0,1,.46.062,1.03,1.03,0,0,1,.366.19A.881.881,0,0,1,27.8-1.5a1.051,1.051,0,0,1,.088.444,1.07,1.07,0,0,1-.06.365.952.952,0,0,1-.17.3,1.029,1.029,0,0,1-.265.221,1.354,1.354,0,0,1-.349.142v.011a.8.8,0,0,1,.166.1A.912.912,0,0,1,27.344.2a1.7,1.7,0,0,1,.126.168q.062.094.139.219Zm-2.281-3.4V-.29h.6a.917.917,0,0,0,.309-.05A.715.715,0,0,0,27.2-.485a.656.656,0,0,0,.162-.231.773.773,0,0,0,.058-.306.6.6,0,0,0-.2-.476.849.849,0,0,0-.572-.171Zm25.551,3.4H51.15V-.82q0-.3.037-.74h-.011a2.366,2.366,0,0,1-.114.369l-1.3,2.923h-.217l-1.3-2.9a2.273,2.273,0,0,1-.114-.39h-.011q.021.228.021.745V1.731h-.43v-3.8H48.3L49.471.58a3.4,3.4,0,0,1,.175.456h.016q.114-.313.183-.467l1.191-2.642h.557Zm10.137,0h-.446v-3.8h.446Zm9.513-.154V1.052a1.02,1.02,0,0,0,.216.143,1.751,1.751,0,0,0,.265.107,2.112,2.112,0,0,0,.28.068,1.56,1.56,0,0,0,.26.024,1.018,1.018,0,0,0,.614-.153.516.516,0,0,0,.2-.439.515.515,0,0,0-.068-.268.762.762,0,0,0-.187-.208,1.856,1.856,0,0,0-.282-.18q-.163-.086-.351-.182t-.371-.2a1.609,1.609,0,0,1-.3-.228.952.952,0,0,1-.2-.282.874.874,0,0,1-.073-.37.87.87,0,0,1,.114-.452.978.978,0,0,1,.3-.317,1.359,1.359,0,0,1,.423-.186,1.937,1.937,0,0,1,.484-.061,1.855,1.855,0,0,1,.82.135v.5a1.486,1.486,0,0,0-.865-.233,1.422,1.422,0,0,0-.292.031.824.824,0,0,0-.26.1.576.576,0,0,0-.186.178.472.472,0,0,0-.072.265.546.546,0,0,0,.054.252.618.618,0,0,0,.16.194,1.6,1.6,0,0,0,.259.17q.153.082.351.18t.387.212a1.77,1.77,0,0,1,.321.247,1.1,1.1,0,0,1,.219.3.843.843,0,0,1,.081.377.955.955,0,0,1-.11.476.9.9,0,0,1-.3.317,1.3,1.3,0,0,1-.431.176,2.36,2.36,0,0,1-.515.054,2.1,2.1,0,0,1-.223-.015q-.133-.015-.271-.042a2.208,2.208,0,0,1-.261-.069A.813.813,0,0,1,71.243,1.577Zm11.577,0V1.052a1.02,1.02,0,0,0,.216.143A1.752,1.752,0,0,0,83.3,1.3a2.111,2.111,0,0,0,.28.068,1.56,1.56,0,0,0,.26.024,1.018,1.018,0,0,0,.614-.153.516.516,0,0,0,.2-.439A.515.515,0,0,0,84.59.535.762.762,0,0,0,84.4.327a1.855,1.855,0,0,0-.282-.18q-.163-.086-.351-.182t-.371-.2a1.609,1.609,0,0,1-.3-.228.951.951,0,0,1-.2-.282.874.874,0,0,1-.073-.37.87.87,0,0,1,.114-.452.978.978,0,0,1,.3-.317,1.359,1.359,0,0,1,.423-.186,1.937,1.937,0,0,1,.484-.061,1.855,1.855,0,0,1,.82.135v.5a1.486,1.486,0,0,0-.865-.233,1.422,1.422,0,0,0-.292.031.824.824,0,0,0-.26.1.576.576,0,0,0-.186.178.472.472,0,0,0-.072.265.546.546,0,0,0,.054.252.618.618,0,0,0,.16.194,1.6,1.6,0,0,0,.259.17q.153.082.351.18t.387.212a1.77,1.77,0,0,1,.321.247,1.1,1.1,0,0,1,.219.3.843.843,0,0,1,.081.377.955.955,0,0,1-.11.476.9.9,0,0,1-.3.317,1.3,1.3,0,0,1-.431.176,2.36,2.36,0,0,1-.515.054,2.1,2.1,0,0,1-.223-.015q-.133-.015-.271-.042a2.208,2.208,0,0,1-.261-.069A.813.813,0,0,1,82.82,1.577Zm12.2.154h-.446v-3.8h.446Zm11.224.064a1.67,1.67,0,0,1-1.3-.533,1.977,1.977,0,0,1-.487-1.387,2.1,2.1,0,0,1,.5-1.464,1.732,1.732,0,0,1,1.35-.546,1.632,1.632,0,0,1,1.269.53,1.985,1.985,0,0,1,.481,1.387,2.1,2.1,0,0,1-.493,1.472A1.7,1.7,0,0,1,106.244,1.795Zm.032-3.528a1.226,1.226,0,0,0-.973.432,1.674,1.674,0,0,0-.374,1.135,1.685,1.685,0,0,0,.365,1.131,1.189,1.189,0,0,0,.951.428,1.249,1.249,0,0,0,.987-.408,1.669,1.669,0,0,0,.361-1.143,1.744,1.744,0,0,0-.35-1.164A1.2,1.2,0,0,0,106.276-1.733Zm14.287,3.464h-.546L118.059-1.3a1.267,1.267,0,0,1-.122-.239h-.016a3.915,3.915,0,0,1,.021.523V1.731H117.5v-3.8h.578l1.9,2.984q.119.186.154.255h.011a4.025,4.025,0,0,1-.027-.56V-2.072h.446Z" transform="translate(6648 -619)"/>
    <path id="路径_40005" data-name="路径 40005" d="M12.99-24.81a20.439,20.439,0,0,1,.12,2.55c0,7.14-1.65,12.09-5.49,16.53A20,20,0,0,1,1.08-.72,8.975,8.975,0,0,1,3.42,2.37,25.3,25.3,0,0,0,8.07-1.08a20.887,20.887,0,0,0,4.62-5.76,21.467,21.467,0,0,0,2.34-6.06,23.718,23.718,0,0,0,3.99,8.19,29.2,29.2,0,0,0,7.62,7.08A11.161,11.161,0,0,1,28.98-.96,19.979,19.979,0,0,1,24.33-4.2a20.619,20.619,0,0,1-4.74-5.7c-2.16-3.84-2.94-7.02-2.94-12.12a22.638,22.638,0,0,1,.21-2.79Zm34.95.78a12.75,12.75,0,0,1,.48,1.95,76.44,76.44,0,0,0,2.01,8.13,18.517,18.517,0,0,0-4.08,2.58A7.045,7.045,0,0,0,43.68-6,5.678,5.678,0,0,0,46.29-.99C48.21.15,50.82.66,54.99.66A63.4,63.4,0,0,0,62.01.21,18.7,18.7,0,0,1,64.44,0l-.33-4.11a32.844,32.844,0,0,1-9.69,1.23c-4.83,0-6.87-.93-6.87-3.12,0-2.16,2.19-4.08,6.57-5.7a73.3,73.3,0,0,1,9.9-2.88l-1.29-3.78a8.211,8.211,0,0,1-1.14.45c-5.82,1.92-5.82,1.92-7.77,2.64a50.385,50.385,0,0,1-1.98-9.39Zm47.4,4.8a6.557,6.557,0,0,1,3.03.9,7.432,7.432,0,0,1,3.69,6.66,8.4,8.4,0,0,1-4.17,7.5,15.943,15.943,0,0,1-5.97,1.65A9.57,9.57,0,0,1,93.75.99,19.613,19.613,0,0,0,98.46-.27a11.557,11.557,0,0,0,7.29-11.19c0-6.75-4.68-11.13-11.88-11.13a13.467,13.467,0,0,0-10.32,4.2,12.887,12.887,0,0,0-3.3,8.73c0,4.83,2.46,8.31,5.88,8.31,2.46,0,4.38-1.77,6.09-5.64A43.4,43.4,0,0,0,95.34-19.23Zm-3.66.03A39.538,39.538,0,0,1,89.19-9.06c-1.08,2.58-2.1,3.84-3.09,3.84-1.32,0-2.37-1.95-2.37-4.41a10.044,10.044,0,0,1,4.08-8.1A7.637,7.637,0,0,1,91.68-19.2Zm28.2,5.1a10.944,10.944,0,0,1,2.4-.84,42.749,42.749,0,0,1,11.82-2.13,7.818,7.818,0,0,1,3.87.81,4.393,4.393,0,0,1,2.28,3.9,6.615,6.615,0,0,1-.33,2.13,8.311,8.311,0,0,1-4.53,4.44c-2.55,1.11-5.07,1.56-9.87,1.77a13,13,0,0,1,1.53,3.87c5.49-.6,7.83-1.14,10.56-2.49,4.26-2.07,6.66-5.52,6.66-9.6,0-5.1-3.87-8.43-9.81-8.43-3.48,0-5.1.24-11.94,1.71a21.445,21.445,0,0,1-3.51.6Zm45.27-10.77a30.648,30.648,0,0,1-.9,5.22c-.66.03-1.17.03-1.53.03a20.83,20.83,0,0,1-4.05-.27v3.42l1.59.03c.63.03.81.03,1.2.03.36,0,.54,0,1.89-.03a46.153,46.153,0,0,1-2.82,7.08,27.308,27.308,0,0,1-2.91,4.8l3.45,1.92c.18-.36.18-.36.57-1.08,1.14-2.1,1.41-2.64,2.1-4.11a57.586,57.586,0,0,0,3.3-8.7c1.86-.15,3.69-.36,4.77-.54a5.85,5.85,0,0,1,.96-.15l-.09-3.45a25.733,25.733,0,0,1-4.8.84c.33-1.32.48-1.92.63-2.64a15.016,15.016,0,0,1,.48-2.01Zm19.2,7.8a47.357,47.357,0,0,0-8.46-4.02l-1.8,2.91a36.717,36.717,0,0,1,8.64,4.2Zm-.12,13.53a5.374,5.374,0,0,1-.45-.42,11.062,11.062,0,0,0-1.05-.81,18.744,18.744,0,0,0-4.74-2.76,31.851,31.851,0,0,1-.27-4.11,10,10,0,0,1,.36-3.03l-3.48-.18a15.912,15.912,0,0,0-.24,3.03c0,.9.06,2.07.15,3.45a14.9,14.9,0,0,0-2.79-.27c-3.81,0-6.48,2.13-6.48,5.16,0,3.06,2.58,5.04,6.54,5.04a6.926,6.926,0,0,0,4.98-1.68,4.794,4.794,0,0,0,1.29-3.18c0-.12-.03-.33-.06-.6a18.144,18.144,0,0,1,4.59,3.72Zm-9.6-1.65s.06.72.06,1.02c0,1.68-.99,2.52-3.03,2.52-1.86,0-2.94-.72-2.94-1.95,0-1.26,1.26-2.07,3.21-2.07A7.562,7.562,0,0,1,174.63-5.19ZM216-17.04a18.733,18.733,0,0,1,2.13,3.54,28.2,28.2,0,0,1,2.37,6.75l3.42-1.71a28.69,28.69,0,0,0-4.89-10.08Zm-1.47-5.64a17.931,17.931,0,0,1,2.82,3.99l2.34-1.23a16.873,16.873,0,0,0-2.82-3.93Zm8.55,1.02a17.659,17.659,0,0,0-2.79-3.75l-2.25,1.17a20.637,20.637,0,0,1,2.76,3.87Zm-19.17-2.76v.54a45.569,45.569,0,0,1-.78,6.06,63.474,63.474,0,0,1-6.39.63l.36,3.54a53.086,53.086,0,0,1,5.37-.99,49.941,49.941,0,0,1-2.91,8.49,30.611,30.611,0,0,1-3.12,5.64l3.48,1.92c.15-.27.15-.33.24-.51.3-.6.3-.6.45-.87a67.985,67.985,0,0,0,3.6-8.43,65.851,65.851,0,0,0,1.83-6.51c.69-.06,1.14-.09,1.74-.09,2.37,0,3.06.81,3.06,3.57a26.656,26.656,0,0,1-.78,6.84c-.45,1.47-.93,2.04-1.8,2.04a12.558,12.558,0,0,1-4.38-1.2,11.268,11.268,0,0,1,.3,2.55c0,.3-.03.75-.06,1.32a13.908,13.908,0,0,0,4.62.9,3.8,3.8,0,0,0,3.33-1.35c1.44-1.65,2.31-5.76,2.31-10.92,0-2.73-.39-4.17-1.41-5.31a5.811,5.811,0,0,0-4.44-1.59c-.57,0-.99.03-1.86.06.09-.39.09-.42.21-1.08.42-2.25.42-2.25.51-2.91.09-.45.12-.6.18-1.02.06-.3.15-.63.24-.93ZM6.84,23.28a7.051,7.051,0,0,1-.09,1.02L6.3,28.02c-.24,2.07-.42,5.4-.42,7.83,0,.6.06,2.82.09,3.69v.57a2.333,2.333,0,0,1-.03.39l3.6-.06v-.63a14.384,14.384,0,0,1,3.78-9.69,4.465,4.465,0,0,1,3.24-1.59c2.58,0,4.02,2.4,4.02,6.72,0,4.56-1.59,7.41-5.07,9.18a17.512,17.512,0,0,1-6.57,1.71,11.475,11.475,0,0,1,1.77,3.54A25.585,25.585,0,0,0,16.59,48c5.04-2.22,7.74-6.54,7.74-12.33,0-3.54-.66-5.97-2.16-7.98a6.282,6.282,0,0,0-5.13-2.7,7.162,7.162,0,0,0-5.7,3.06,12.128,12.128,0,0,0-1.89,3.57,6.586,6.586,0,0,1-.18.66H9.18c.06-.72.18-1.74.39-3,.57-3.99.72-4.77,1.08-5.79ZM42.3,29.85a3.314,3.314,0,0,1,.48-.03c.27,0,.27,0,.84.03.66,0,3.3.06,3.78.06,0,0,.39-.03.51-.03a1.468,1.468,0,0,0-.24.39,39.734,39.734,0,0,1-3.6,5.13,18.378,18.378,0,0,1-2.7,2.67l2.73,2.7a13.489,13.489,0,0,1,2.61-2.73c2.31-2.04,4.41-3.09,6.15-3.09a1.647,1.647,0,0,1,1.83,1.62c-3.39,1.41-5.1,2.55-6.45,4.23a4.781,4.781,0,0,0-1.32,3.33A4.35,4.35,0,0,0,49.11,48c1.53.9,3.51,1.26,6.69,1.26a54.413,54.413,0,0,0,7.68-.54,8.839,8.839,0,0,1,1.38-.12l-.3-3.87a26.065,26.065,0,0,1-8.82,1.26c-3.63,0-5.07-.63-5.07-2.19a3.158,3.158,0,0,1,1.56-2.46,18.233,18.233,0,0,1,2.88-1.56v.72a23.75,23.75,0,0,1-.18,3.48l3.48-.09a12.317,12.317,0,0,1-.09-1.59c0-.21,0-.48.03-.99v-1.2c0-.42,0-.42-.03-1.2v-.33q3.87-1.35,4.5-1.53a26.482,26.482,0,0,1,3.33-.81l-1.41-3.45a9.373,9.373,0,0,1-2.22.9q-1.125.36-4.59,1.62c-.48-2.07-1.95-3.18-4.29-3.18a7.252,7.252,0,0,0-4.23,1.35c-.39.3-.39.3-.6.45l-.03-.06a15.524,15.524,0,0,0,2.76-3.99c3.03-.09,6.84-.33,9.03-.6,1.53-.18,1.53-.18,2.37-.24l-.21-3.42a40.528,40.528,0,0,1-7.86,1.02c-1.65.09-1.65.09-1.89.12.06-.12.12-.21.27-.54a22.92,22.92,0,0,1,1.2-2.7l-3.93-.42a11.881,11.881,0,0,1-1.2,3.72,36.253,36.253,0,0,1-6.96-.39Zm46.89,3.81h3.09v3.21c0,.42-.12.51-.84.51-.36,0-.57-.03-1.02-.06a7.261,7.261,0,0,1,.6,2.58h.57c1.65,0,2.37-.18,2.88-.69.48-.48.63-1.05.63-2.58V33.12a23.05,23.05,0,0,1,.09-2.37,21.707,21.707,0,0,1-2.64.12H89.22V28.71h3.3a23.023,23.023,0,0,1,3.12.15V25.62a27.335,27.335,0,0,1-3.36.18H89.22v-.63a16.685,16.685,0,0,1,.15-2.34H85.98a17.349,17.349,0,0,1,.15,2.34v.63H82.59a24.309,24.309,0,0,1-3.18-.18v3.24a21.216,21.216,0,0,1,2.97-.15h3.75v2.16H83.07a26.8,26.8,0,0,1-2.82-.12,24.462,24.462,0,0,1,.12,2.79v3.6a25.3,25.3,0,0,1-.15,2.94H83.4c-.06-.69-.09-1.32-.09-2.34V33.66h2.82v3.6a18.336,18.336,0,0,1-2.88,4.32,20.509,20.509,0,0,1-4.47,4.05,12.785,12.785,0,0,1,1.83,2.73,19.187,19.187,0,0,0,5.58-6.3c-.03.42-.06,1.11-.06,2.16v3.39a17.871,17.871,0,0,1-.18,2.85h3.42a13.96,13.96,0,0,1-.18-2.7V42.24a68.438,68.438,0,0,1,4.83,4.92L96,44.31c-2.1-1.98-2.1-1.98-6.81-5.43Zm7.53-8.55a27.662,27.662,0,0,1,.15,3.18V40.08a21.1,21.1,0,0,1-.15,3.21h3.39a25.119,25.119,0,0,1-.12-3.18V28.23a20.232,20.232,0,0,1,.15-3.12Zm5.82-2.1a28.035,28.035,0,0,1,.18,3.72V46.17c0,.78-.27.93-1.56.93-.9,0-2.28-.12-3.63-.27a10.976,10.976,0,0,1,.87,3.15c1.35.06,1.98.09,2.67.09,2.28,0,3.15-.15,3.81-.63.75-.54.99-1.23.99-2.97V26.64a21.275,21.275,0,0,1,.18-3.63Zm43.56,4.77a11.767,11.767,0,0,1-2.4.18h-3.93c.24-.72.54-1.77.69-2.46a12.016,12.016,0,0,1,.57-2.1l-3.24-.57a26.487,26.487,0,0,1-3.36,10.08v-4.8c0-1.59.03-2.25.09-2.91a21.261,21.261,0,0,1-2.82.12h-1.14c.39-.75.39-.75.99-2.1l-3.24-.39a7.642,7.642,0,0,1-.84,2.49,19.549,19.549,0,0,1-2.67-.12c.06.6.09,1.05.12,1.62a22.868,22.868,0,0,0-4.44-3.63l-2.16,2.22a21.389,21.389,0,0,1,4.5,3.9l2.1-2.34V32.1a25.569,25.569,0,0,1-.12,2.97,16.44,16.44,0,0,1,2.46-.12h2.01l-1.8.63c.45.81.69,1.29.75,1.38h-2.19a14.634,14.634,0,0,1-2.43-.15v2.73a17.638,17.638,0,0,1,2.31-.12h.54a13.243,13.243,0,0,1-1.08,4.98,9.847,9.847,0,0,1-2.91,3.6,9.381,9.381,0,0,1,2.25,2.34,12.579,12.579,0,0,0,4.05-6.69h2.88a20.721,20.721,0,0,1-.42,3.12c-.15.51-.3.6-.99.6a17.44,17.44,0,0,1-1.86-.15,7.19,7.19,0,0,1,.54,2.67c.81.03,1.44.06,1.8.06,2.13,0,2.82-.45,3.27-2.13a8.324,8.324,0,0,1,1.86,2.4,21.532,21.532,0,0,0,4.53-5.07,23.682,23.682,0,0,0,4.74,4.92,10.848,10.848,0,0,1,1.74-3.06,19.8,19.8,0,0,1-4.86-4.74,23.077,23.077,0,0,0,1.74-5.58,38.2,38.2,0,0,0,.69-6.06,10.1,10.1,0,0,1,1.68.15Zm-4.65,2.85a34.84,34.84,0,0,1-.45,5.22,17.105,17.105,0,0,1-.84,3.3,22.21,22.21,0,0,1-1.8-7.47c.09-.21.33-.78.45-1.05ZM129.21,41.25c.06-.66.09-.84.18-1.83h3.87a16.872,16.872,0,0,1,2.28.12V36.81a11.467,11.467,0,0,1-2.13.15h-2.16a14.073,14.073,0,0,0-.84-2.01h2.04c.45,0,1.29.03,1.5.03h.24a11.829,11.829,0,0,1,1.32,1.74c.48-.69.69-.96.87-1.29a22.691,22.691,0,0,0,2.28,6.93,18.446,18.446,0,0,1-2.28,3,11.329,11.329,0,0,1-2.31,2.13,39.375,39.375,0,0,0,.57-4.65,13.68,13.68,0,0,1,.12-1.71,16.972,16.972,0,0,1-2.34.12Zm-1.65-13.8h4.23v1.68h-4.23Zm0,3.75h4.23v1.68h-4.23Zm-10.02,1.65a20.62,20.62,0,0,1,4.62,3.72l1.95-2.55a23.467,23.467,0,0,0-4.62-3.45Zm3.99,5.97c-1.08,3.81-2.7,7.5-3.9,8.88l2.67,2.22c.6-1.26.93-2.01,1.05-2.25.96-2.37,1.86-4.65,2.7-6.99Zm53.82-6.78V30.09c2.37-.06,2.91-.06,3.63-.06,2.49,0,3.93.06,5.04.15l-.03-3.45c-1.11.12-3.45.18-8.67.21a23.587,23.587,0,0,1,.15-3.57l-3.78.03a16.278,16.278,0,0,1,.18,3.63c-1.56.06-1.56.06-2.55.09-2.46.06-2.76.06-4.71.12-3.87.15-4.35.15-5.1.15a13.064,13.064,0,0,1-1.47-.06l.12,3.57c.81-.12.81-.12,5.34-.45,1.32-.09,4.14-.18,8.43-.3,0,.81,0,2.49.03,2.55a1.236,1.236,0,0,0,.03.36,5.013,5.013,0,0,0-3.12-.9c-3.48,0-5.97,2.28-5.97,5.46a4.688,4.688,0,0,0,2.07,4.05,5.529,5.529,0,0,0,3.48,1.08,4.942,4.942,0,0,0,4.41-2.13c-.24,1.68-1.44,3.21-3.48,4.38a14.158,14.158,0,0,1-5.1,1.74,9.845,9.845,0,0,1,2.13,3.39,20.972,20.972,0,0,0,5.43-2.46,9.625,9.625,0,0,0,4.47-8.1,9.13,9.13,0,0,0-.96-4.23c0-.36-.03-.6-.03-.72Zm-3.45,4.95a2.734,2.734,0,0,1-2.94,2.7,2.368,2.368,0,0,1-2.55-2.37,2.628,2.628,0,0,1,2.79-2.4C170.85,34.92,171.9,35.73,171.9,36.99Zm34.92-1.44a11.775,11.775,0,0,0,1.23-.78c.6-.39,2.76-2.01,3.3-2.46,1.02-.87,3.21-2.82,4.71-4.2a6.431,6.431,0,0,1,1.56-1.23l-1.86-2.64a4.42,4.42,0,0,1-1.86.39c-2.91.21-6.57.36-9.12.36a27.132,27.132,0,0,1-3.54-.18l.15,3.6a10.12,10.12,0,0,1,1.44-.15c5.43-.24,7.35-.36,8.49-.51l.03.03-.54.54a100.17,100.17,0,0,1-8.97,7.8,26.98,26.98,0,0,1-4.23,2.82l2.04,3.24a18.485,18.485,0,0,1,12.36-5.04c3.63,0,5.94,1.53,5.94,3.87,0,2.13-1.08,3.42-3.57,4.35a8.068,8.068,0,0,0-1.38-2.7,6.457,6.457,0,0,0-5.19-2.46c-3,0-5.16,1.8-5.16,4.29a4.282,4.282,0,0,0,1.8,3.45,10.149,10.149,0,0,0,5.82,1.38,14.843,14.843,0,0,0,7.26-1.71,7.331,7.331,0,0,0,4.08-6.63c0-4.11-3.3-6.75-8.43-6.75a14.644,14.644,0,0,0-6.3,1.38Zm4.32,10.68a8.12,8.12,0,0,1-1.56.12c-2.22,0-3.57-.69-3.57-1.89,0-.84.69-1.38,1.77-1.38C209.46,43.08,210.6,44.16,211.14,46.23ZM8.19,77.61V74.67a23.408,23.408,0,0,1,.21-3.6H4.68a34,34,0,0,1,.18,3.6v2.94h-.6a25.641,25.641,0,0,1-3.3-.18v3.36a25.317,25.317,0,0,1,3.3-.18h.6V94.59a25.9,25.9,0,0,1-.12,2.97,24.055,24.055,0,0,1,3.15-.15H23.82a36.31,36.31,0,0,1,3.78.18V94.11a34.314,34.314,0,0,1-3.78.18H8.19V80.61h4.86v6.75a20.134,20.134,0,0,1-.12,2.55c.93-.06,1.59-.09,2.61-.09h6.63c1.02,0,1.71.03,2.52.09-.09-.9-.12-1.8-.12-2.7v-6.6h1.05a25.641,25.641,0,0,1,3.3.18V77.43a25,25,0,0,1-3.3.18H24.57V74.28a21.241,21.241,0,0,1,.21-3.24H21.12a24.8,24.8,0,0,1,.18,3.21v3.36H16.26V74.28a27.387,27.387,0,0,1,.18-3.24h-3.6a21.922,21.922,0,0,1,.21,3.27v3.3Zm8.07,3H21.3v6.3H16.26Zm38.91,3.21h6.9c1.32,0,2.25.03,3.21.12a21.21,21.21,0,0,1-.15-3.12v-6a22.6,22.6,0,0,1,.15-3.21,24.691,24.691,0,0,1-3.24.15H45.96a23.656,23.656,0,0,1-3.21-.15,29.46,29.46,0,0,1,.15,3.21v6a28.442,28.442,0,0,1-.15,3.12,31.363,31.363,0,0,1,3.15-.12h6.39c-2.94,2.1-6.96,3.39-12.42,3.99a11.2,11.2,0,0,1,1.38,3.24,54.3,54.3,0,0,0,6.84-1.74v.21a4.675,4.675,0,0,1-1.56,3.96c-1.29,1.11-2.64,1.71-5.49,2.46a13.456,13.456,0,0,1,2.01,2.79c3.24-.99,5.07-2.07,6.54-3.87a7.847,7.847,0,0,0,1.8-4.92c.06-.45.09-.6.18-1.05H49.23a23.986,23.986,0,0,0,4.32-2.19,17.123,17.123,0,0,0,4.11,2.19h-.99a15.609,15.609,0,0,1,.15,2.37v3.87a25.177,25.177,0,0,1-.18,3.33h3.63a21.8,21.8,0,0,1-.18-3.33V90.81c0-.42,0-.6.03-1.11a44,44,0,0,0,6.78,1.44,15.416,15.416,0,0,1,1.23-3.33c-5.49-.39-9-1.2-12.27-2.79.21-.18.33-.27.63-.54Zm-9.06-9.33h6.21v2.13H46.11Zm0,4.68h6.21V81.3H46.11Zm9.3-4.68h6.48v2.13H55.41Zm0,4.68h6.48V81.3H55.41ZM81.3,77.85a3.314,3.314,0,0,1,.48-.03c.27,0,.27,0,.84.03.66,0,3.3.06,3.78.06,0,0,.39-.03.51-.03a1.468,1.468,0,0,0-.24.39,39.734,39.734,0,0,1-3.6,5.13,18.379,18.379,0,0,1-2.7,2.67l2.73,2.7a13.489,13.489,0,0,1,2.61-2.73c2.31-2.04,4.41-3.09,6.15-3.09a1.647,1.647,0,0,1,1.83,1.62c-3.39,1.41-5.1,2.55-6.45,4.23a4.781,4.781,0,0,0-1.32,3.33A4.35,4.35,0,0,0,88.11,96c1.53.9,3.51,1.26,6.69,1.26a54.412,54.412,0,0,0,7.68-.54,8.839,8.839,0,0,1,1.38-.12l-.3-3.87a26.065,26.065,0,0,1-8.82,1.26c-3.63,0-5.07-.63-5.07-2.19a3.158,3.158,0,0,1,1.56-2.46,18.233,18.233,0,0,1,2.88-1.56v.72a23.75,23.75,0,0,1-.18,3.48l3.48-.09a12.316,12.316,0,0,1-.09-1.59c0-.21,0-.48.03-.99v-1.2c0-.42,0-.42-.03-1.2v-.33q3.87-1.35,4.5-1.53a26.481,26.481,0,0,1,3.33-.81l-1.41-3.45a9.373,9.373,0,0,1-2.22.9q-1.125.36-4.59,1.62c-.48-2.07-1.95-3.18-4.29-3.18a7.252,7.252,0,0,0-4.23,1.35c-.39.3-.39.3-.6.45l-.03-.06a15.524,15.524,0,0,0,2.76-3.99c3.03-.09,6.84-.33,9.03-.6,1.53-.18,1.53-.18,2.37-.24l-.21-3.42a40.527,40.527,0,0,1-7.86,1.02c-1.65.09-1.65.09-1.89.12.06-.12.12-.21.27-.54a22.922,22.922,0,0,1,1.2-2.7l-3.93-.42a11.881,11.881,0,0,1-1.2,3.72,36.253,36.253,0,0,1-6.96-.39Zm119.82-5.82a14.918,14.918,0,0,1,.12,2.04c0,.42,0,1.05-.03,1.95-.18,7.53-.24,10.53-.24,12.09,0,4.02.87,6.33,2.94,7.71a9.781,9.781,0,0,0,5.25,1.32,11.354,11.354,0,0,0,9-3.81c1.47-1.65,2.37-3.6,3.57-7.65a12.956,12.956,0,0,1-3.63-2.31,20.112,20.112,0,0,1-1.38,5.04c-1.41,3.3-4.02,5.13-7.26,5.13-1.89,0-3.33-.57-4.02-1.56-.6-.9-.78-1.98-.78-4.83,0-2.13.18-8.22.3-11.01a27.422,27.422,0,0,1,.36-4.05Zm59.85,20.79c-.42-.24-.57-.36-1.08-.69a26.834,26.834,0,0,0-8.22-4.23c-.03-.72-.03-.72-.12-3.63,1.17-.06,1.62-.09,2.04-.12,2.25-.21,3.6-.36,4.05-.42.69-.09,1.44-.18,1.95-.21l-.09-3.3a22.2,22.2,0,0,1-3.72.66c-2.76.3-2.76.3-4.26.39-.03-1.86-.03-2.22-.06-2.97,2.64-.15,3.81-.24,6.45-.6a18.764,18.764,0,0,1,2.37-.27l-.15-3.33a40.587,40.587,0,0,1-8.64,1.14,18.6,18.6,0,0,1,.21-3.66h-3.81a21.406,21.406,0,0,1,.15,3.78c-.75.03-1.77.06-2.25.06a39.448,39.448,0,0,1-8.07-.63l-.03,3.33h.48c.09,0,.33,0,.66.03,2.01.15,5.88.3,7.35.3.45,0,.93,0,1.89-.03.03,1.71.03,2.73.03,3-.84.03-1.86.06-2.46.06a38.685,38.685,0,0,1-6.99-.51l-.06,3.24c.45,0,.75,0,1.14.03,2.49.18,3.6.21,5.43.21.63,0,1.56-.03,3-.06.03,1.2.03,1.2.06,1.62v.66a5.781,5.781,0,0,1,.03.72,15.674,15.674,0,0,0-2.01-.12c-5.04,0-8.01,1.92-8.01,5.19,0,2.97,2.52,4.68,6.9,4.68a7.987,7.987,0,0,0,4.95-1.29,4.68,4.68,0,0,0,1.68-4.05v-.33a13.349,13.349,0,0,1,1.62.75,20.242,20.242,0,0,1,5.55,4.11Zm-12.66-2.31v.72a3.8,3.8,0,0,1-.36,1.92,3.115,3.115,0,0,1-2.61.96c-2.13,0-3.42-.69-3.42-1.8,0-1.29,1.47-2.07,3.9-2.07A10.529,10.529,0,0,1,248.31,90.51Zm44.04-10.47V78.09c2.37-.06,2.91-.06,3.63-.06,2.49,0,3.93.06,5.04.15l-.03-3.45c-1.11.12-3.45.18-8.67.21a23.587,23.587,0,0,1,.15-3.57l-3.78.03a16.278,16.278,0,0,1,.18,3.63c-1.56.06-1.56.06-2.55.09-2.46.06-2.76.06-4.71.12-3.87.15-4.35.15-5.1.15a13.065,13.065,0,0,1-1.47-.06l.12,3.57c.81-.12.81-.12,5.34-.45,1.32-.09,4.14-.18,8.43-.3,0,.81,0,2.49.03,2.55a1.236,1.236,0,0,0,.03.36,5.013,5.013,0,0,0-3.12-.9c-3.48,0-5.97,2.28-5.97,5.46a4.688,4.688,0,0,0,2.07,4.05,5.529,5.529,0,0,0,3.48,1.08,4.942,4.942,0,0,0,4.41-2.13c-.24,1.68-1.44,3.21-3.48,4.38a14.158,14.158,0,0,1-5.1,1.74,9.846,9.846,0,0,1,2.13,3.39,20.972,20.972,0,0,0,5.43-2.46,9.625,9.625,0,0,0,4.47-8.1,9.13,9.13,0,0,0-.96-4.23c0-.36-.03-.6-.03-.72Zm-3.45,4.95a2.734,2.734,0,0,1-2.94,2.7,2.367,2.367,0,0,1-2.55-2.37,2.628,2.628,0,0,1,2.79-2.4C287.85,82.92,288.9,83.73,288.9,84.99Z" transform="translate(6650 -566.59)"/>
    <path id="路径_40008" data-name="路径 40008" d="M128.94,71.7l-2.88-1.26a19.183,19.183,0,0,1-2.91,3.42,21.176,21.176,0,0,1-5.25,3.54,9.609,9.609,0,0,1,1.95,2.76c.3-.18.54-.33.69-.42.03.72.06,1.41.06,2.67a27.162,27.162,0,0,1-.27,4.62,35.725,35.725,0,0,1-.6,3.69,14.891,14.891,0,0,1-1.98,4.59,10.134,10.134,0,0,1,2.37,2.64,24.689,24.689,0,0,0,2.7-7.14c.03.39.03.9.03,1.29v3.78a19.01,19.01,0,0,1-.12,2.43h3.03V97.08h4.65v1.26h3.09a17.93,17.93,0,0,1-.12-2.4V92.01c0-.93.03-1.35.09-2.19-.66.06-1.23.09-2.01.09h-6.84a12.088,12.088,0,0,1-1.59-.06l.18-1.26h8.1c.66,0,1.29.03,2.01.09a15.511,15.511,0,0,1-.12-2.28V81.42a17.57,17.57,0,0,1,.12-2.25l1.86-2.7a74.6,74.6,0,0,0-6.57-4.29Zm.3,7.56a22.027,22.027,0,0,0-1.44-3.45l-3,1.05a10.16,10.16,0,0,1,1.11,2.4h-2.58c-.93,0-1.02,0-1.95-.03a28.944,28.944,0,0,0,5.55-4.74,33.936,33.936,0,0,1,5.88,4.32c.09.06.21.21.39.36a20.972,20.972,0,0,1-2.22.09Zm.99,5.76v1.23h-6.84c.06-.96.06-.96.09-1.23Zm-6.69-2.19V81.6h6.69v1.23Zm2.25,9.45h4.62v2.4h-4.62Zm9.66-19.23a22.129,22.129,0,0,1,.15,3.18V88.14a20.85,20.85,0,0,1-.15,3.21h3.42a19.235,19.235,0,0,1-.15-3.18v-12a20.232,20.232,0,0,1,.15-3.12Zm6.03-2.04a28.034,28.034,0,0,1,.18,3.72V94.08c0,.75-.24.93-1.38.93a25.592,25.592,0,0,1-3.51-.3,10.92,10.92,0,0,1,.81,3.18c1.56.06,2.13.09,2.76.09,3.66,0,4.47-.6,4.47-3.45V74.64a20.469,20.469,0,0,1,.21-3.63Zm22.71,14.58a30.228,30.228,0,0,1,.12-3.27,13.642,13.642,0,0,1-2.28.15h-2.25a13.83,13.83,0,0,1-2.4-.15v3.24a11.26,11.26,0,0,1,2.04-.15h1.62v6.6a14.984,14.984,0,0,0-2.82,2.16c-.93.87-.96.87-1.5,1.38l2.34,2.58c.9-1.05,1.44-1.65,1.62-1.86,1.08-1.08,1.56-1.47,1.86-1.47.21,0,.51.21.99.69a7.332,7.332,0,0,0,3.27,1.95,34.37,34.37,0,0,0,7.11.51c5.61,0,7.62-.03,10.59-.18a11.935,11.935,0,0,1,.93-3.45,96.772,96.772,0,0,1-11.07.54c-6.42,0-7.32-.18-9.57-2.04a7.042,7.042,0,0,0-.6-.51Zm6.39-11.16c.36-.84.39-.87.48-1.14.12-.3.15-.3.18-.42.12-.3.12-.3.24-.57a2.922,2.922,0,0,0,.15-.33l-3.06-.78a10.6,10.6,0,0,1-1.11,3.03,14.788,14.788,0,0,1-2.55,3.57,4.712,4.712,0,0,1,1.14.66c1.11.81,1.11.81,1.44,1.08a24.143,24.143,0,0,0,1.68-2.31h4.26v2.76h-5.34a20.862,20.862,0,0,1-2.73-.12v3.03a24.181,24.181,0,0,1,2.55-.12h13.65a21.74,21.74,0,0,1,2.79.15V79.86a21.321,21.321,0,0,1-2.79.12h-4.98V77.22h3.66a28.635,28.635,0,0,1,3.09.12V74.25a21.6,21.6,0,0,1-3.18.18h-3.57v-.78a15.025,15.025,0,0,1,.15-2.79h-3.48a14.928,14.928,0,0,1,.18,2.79v.78Zm9,18.6a25.9,25.9,0,0,1,2.97.12,20.392,20.392,0,0,1-.09-2.88V87.45a23.907,23.907,0,0,1,.09-3.06,28.635,28.635,0,0,1-3.09.12h-8.97a30.584,30.584,0,0,1-3.27-.12,17.4,17.4,0,0,1,.12,2.67v3a20.467,20.467,0,0,1-.09,3.09,20.409,20.409,0,0,1,2.67-.12Zm-9.21-5.64h8.97v2.76h-8.97ZM157.5,73.38a36.168,36.168,0,0,1,5.1,5.67l2.55-2.4a40.157,40.157,0,0,0-5.25-5.43Z" transform="translate(6650 -566.59)" fill="#0080f4"/>
  </g>
</svg>
