<svg xmlns="http://www.w3.org/2000/svg" width="523.64" height="367.081" viewBox="0 0 523.64 367.081">
  <g id="秘密团队" transform="translate(-163.404 -836.634)">
    <ellipse id="椭圆_1629" data-name="椭圆 1629" cx="23.543" cy="28.066" rx="23.543" ry="28.066" transform="translate(164.658 919.894) rotate(-17.538)" fill="none" stroke="#2d3436" stroke-miterlimit="10" stroke-width="2"/>
    <ellipse id="椭圆_1630" data-name="椭圆 1630" cx="13.692" cy="16.322" rx="13.692" ry="16.322" transform="translate(462.702 853.33) rotate(-17.538)" fill="none" stroke="#2d3436" stroke-miterlimit="10" stroke-width="1"/>
    <ellipse id="椭圆_1631" data-name="椭圆 1631" cx="6.32" cy="7.534" rx="6.32" ry="7.534" transform="matrix(0.954, -0.301, 0.301, 0.954, 429.652, 988.494)" fill="none" stroke="#6287de" stroke-miterlimit="10" stroke-width="2"/>
    <ellipse id="椭圆_1632" data-name="椭圆 1632" cx="5.857" cy="6.982" rx="5.857" ry="6.982" transform="translate(613.884 934.382) rotate(-17.538)" fill="none" stroke="#2d3436" stroke-miterlimit="10" stroke-width="2"/>
    <ellipse id="椭圆_1633" data-name="椭圆 1633" cx="12.072" cy="14.391" rx="12.072" ry="14.391" transform="translate(578.602 996.182) rotate(-17.538)" fill="none" stroke="#ef54a1" stroke-miterlimit="10" stroke-width="2"/>
    <ellipse id="椭圆_1634" data-name="椭圆 1634" cx="27.869" cy="33.222" rx="27.869" ry="33.222" transform="translate(590.669 1047.621) rotate(-17.538)" fill="none" stroke="#2d3436" stroke-miterlimit="10" stroke-width="2"/>
    <path id="路径_36947" data-name="路径 36947" d="M343.782,957.511c-1.864-21.311,11.517-38.585,29.889-38.585a29.955,29.955,0,0,1,7.961,1.086" transform="translate(250.208 113.419)" fill="none" stroke="#35d598" stroke-miterlimit="10" stroke-width="2" stroke-dasharray="1 1"/>
    <path id="路径_36948" data-name="路径 36948" d="M388.822,934.988c1.864,21.311-11.516,38.585-29.889,38.585" transform="translate(271.696 135.899)" fill="none" stroke="#35d598" stroke-miterlimit="10" stroke-width="2" stroke-dasharray="1 1"/>
    <ellipse id="椭圆_1636" data-name="椭圆 1636" cx="6.17" cy="7.355" rx="6.17" ry="7.355" transform="translate(354.057 1028.228) rotate(-17.538)" fill="none" stroke="#2d3436" stroke-miterlimit="10" stroke-width="2"/>
    <ellipse id="椭圆_1637" data-name="椭圆 1637" cx="27.112" cy="32.319" rx="27.112" ry="32.319" transform="translate(403.434 976.262) rotate(-17.538)" fill="none" stroke="#6287de" stroke-miterlimit="10" stroke-width="2" stroke-dasharray="1 1"/>
    <ellipse id="椭圆_1638" data-name="椭圆 1638" cx="18.691" cy="22.281" rx="18.691" ry="22.281" transform="translate(456.137 849.154) rotate(-17.538)" fill="none" stroke="#2d3436" stroke-miterlimit="10" stroke-width="2"/>
    <ellipse id="椭圆_1639" data-name="椭圆 1639" cx="13.555" cy="16.159" rx="13.555" ry="16.159" transform="translate(238.246 875.674) rotate(-17.538)" fill="none" stroke="#ffc200" stroke-miterlimit="10" stroke-width="2" stroke-dasharray="1 2"/>
    <path id="路径_36949" data-name="路径 36949" d="M178.865,970.156V903.438l50.047,7.752v66.719Z" transform="translate(19.922 91.72)" fill="none" stroke="#2d3436" stroke-miterlimit="10" stroke-width="2"/>
    <line id="直线_117" data-name="直线 117" x2="19.118" y2="2.853" transform="translate(204.692 1003.796)" fill="none" stroke="#2d3436" stroke-linecap="round" stroke-linejoin="round" stroke-width="2"/>
    <line id="直线_118" data-name="直线 118" x2="19.118" y2="2.853" transform="translate(204.692 1010.328)" fill="none" stroke="#2d3436" stroke-linecap="round" stroke-linejoin="round" stroke-width="2"/>
    <line id="直线_119" data-name="直线 119" x2="37.735" y2="5.891" transform="translate(204.692 1029.989)" fill="none" stroke="#2d3436" stroke-linecap="round" stroke-linejoin="round" stroke-width="2"/>
    <line id="直线_120" data-name="直线 120" x2="37.735" y2="5.891" transform="translate(204.692 1045.205)" fill="none" stroke="#2d3436" stroke-linecap="round" stroke-linejoin="round" stroke-width="2"/>
    <path id="路径_36950" data-name="路径 36950" d="M236.635,957.3s5.6-3.892,5.6-7.694V887.35s-.4-2.6-4.7-3l-25.426-3.3a11.254,11.254,0,0,0-8.675,6.272" transform="translate(54.225 60.384)" fill="none" stroke="#2d3436" stroke-linecap="round" stroke-linejoin="round" stroke-width="2"/>
    <path id="路径_36951" data-name="路径 36951" d="M203.428,891.08v56.554a4.712,4.712,0,0,0,3.4,3l28.628,4.1s2.4.5,2.4-3.3v-62.26s-.4-2.6-4.706-3l-25.423-3.3s-4.2-.3-4.3,1.9Z" transform="translate(54.226 62.923)" fill="none" stroke="#2d3436" stroke-linecap="round" stroke-linejoin="round" stroke-width="2"/>
    <line id="直线_121" data-name="直线 121" x2="9.309" y2="1.201" transform="translate(270.918 952.449)" fill="none" stroke="#2d3436" stroke-linecap="round" stroke-linejoin="round" stroke-width="2"/>
    <path id="路径_36953" data-name="路径 36953" d="M231.333,896.98v114.945l221.009,29.228-2.534-152.006L269.778,868.722" transform="translate(93.108 43.095)" fill="none" stroke="#2d3436" stroke-linecap="round" stroke-linejoin="round" stroke-width="2"/>
    <path id="路径_36954" data-name="路径 36954" d="M235.368,888.479l1.517,108.4,198.988,25.732-2.4-130.3L264.042,872.5" transform="translate(98.769 48.392)" fill="none" stroke="#2d3436" stroke-linecap="round" stroke-linejoin="round" stroke-width="2"/>
    <path id="路径_36955" data-name="路径 36955" d="M333.493,1006.963l60.057-63.26-34.433-3.2v11.411l-61.3,59.056V996.353l59.9-54.652" transform="translate(186.175 143.528)" fill="none" stroke="#2d3436" stroke-linecap="round" stroke-linejoin="round" stroke-width="2"/>
    <path id="路径_36956" data-name="路径 36956" d="M298.763,998.6l7.007,7.406s7.807,3.2,13.011-.8L335.6,989.194s5.006-4.2,2.2-14.413-18.017-7.207-18.017-7.207l-19.619,18.618S296.161,992.8,298.763,998.6Z" transform="translate(186.334 180.915)" fill="none" stroke="#2d3436" stroke-linecap="round" stroke-linejoin="round" stroke-width="2"/>
    <path id="路径_36957" data-name="路径 36957" d="M330.25,960.167V997l51.048,7.207V969.576Z" transform="translate(231.475 171.106)" fill="none" stroke="#ef54a1" stroke-linecap="round" stroke-linejoin="round" stroke-width="2"/>
    <path id="路径_36958" data-name="路径 36958" d="M297.98,991.754s-1.122,3.4,2.482,8.408a43.762,43.762,0,0,0,5.2,6.407s4.406,5.2,14.214,1.4l18.87-18.017s6.755-8.209-.853-19.619" transform="translate(186.234 185.362)" fill="none" stroke="#2d3436" stroke-linecap="round" stroke-linejoin="round" stroke-width="2"/>
    <line id="直线_122" data-name="直线 122" x1="17.617" y1="18.417" transform="translate(595.156 1155.696)" fill="none" stroke="#ef54a1" stroke-linecap="round" stroke-linejoin="round" stroke-width="2"/>
    <line id="直线_123" data-name="直线 123" y1="15.423" x2="18.828" transform="translate(561.878 1152.685)" fill="none" stroke="#ef54a1" stroke-linecap="round" stroke-linejoin="round" stroke-width="2"/>
    <path id="路径_36960" data-name="路径 36960" d="M275.154,928.333l-75.071,54.051,234.778,31.029" transform="translate(49.46 126.545)" fill="none" stroke="#2d3436" stroke-linecap="round" stroke-linejoin="round" stroke-width="2"/>
    <path id="路径_36961" data-name="路径 36961" d="M434.862,996.476,200.083,963.846V950.833" transform="translate(49.46 158.018)" fill="none" stroke="#2d3436" stroke-linecap="round" stroke-linejoin="round" stroke-width="2"/>
    <line id="直线_124" data-name="直线 124" x2="171.738" y2="24.973" transform="translate(328.092 1069.577)" opacity="0.5" stroke="#6287de" stroke-linecap="round" stroke-linejoin="round" stroke-width="2" stroke-dasharray="1 4" fill="none"/>
    <line id="直线_125" data-name="直线 125" x2="171.738" y2="24.973" transform="translate(310.676 1084.125)" opacity="0.5" stroke="#6287de" stroke-linecap="round" stroke-linejoin="round" stroke-width="2" stroke-dasharray="1 4" fill="none"/>
    <line id="直线_126" data-name="直线 126" x2="171.738" y2="24.973" transform="translate(295.03 1098.985)" opacity="0.5" stroke="#6287de" stroke-linecap="round" stroke-linejoin="round" stroke-width="2" stroke-dasharray="1 4" fill="none"/>
    <path id="路径_36962" data-name="路径 36962" d="M263.75,897.961V886.25l11.261,13.963" transform="translate(138.614 67.695)" fill="none" stroke="#6287de" stroke-linecap="round" stroke-linejoin="round" stroke-width="2"/>
    <line id="直线_127" data-name="直线 127" x1="11.261" y1="1.051" transform="translate(402.364 953.949)" fill="none" stroke="#6287de" stroke-linecap="round" stroke-linejoin="round" stroke-width="2"/>
    <path id="路径_36963" data-name="路径 36963" d="M274.813,889.432l8.558-7.808,7.207,8.858" transform="translate(154.085 61.222)" fill="none" stroke="#6287de" stroke-linecap="round" stroke-linejoin="round" stroke-width="2"/>
    <line id="直线_128" data-name="直线 128" x1="0.15" y1="16.516" transform="translate(437.455 942.845)" fill="none" stroke="#6287de" stroke-linecap="round" stroke-linejoin="round" stroke-width="2"/>
    <path id="路径_36964" data-name="路径 36964" d="M299.2,902.211V890.5l-10.51,10.059" transform="translate(173.498 73.645)" fill="none" stroke="#6287de" stroke-linecap="round" stroke-linejoin="round" stroke-width="2"/>
    <line id="直线_129" data-name="直线 129" x2="10.51" y2="1.802" transform="translate(462.185 962.348)" fill="none" stroke="#0080f4" stroke-linecap="round" stroke-linejoin="round" stroke-width="2"/>
    <path id="路径_36965" data-name="路径 36965" d="M296.75,904l7.507,9.009-7.507,8.108" transform="translate(184.779 92.539)" fill="none" stroke="#6287de" stroke-linecap="round" stroke-linejoin="round" stroke-width="2"/>
    <line id="直线_130" data-name="直线 130" x2="16.365" y2="1.051" transform="translate(472.675 1004.496)" fill="none" stroke="#6287de" stroke-linecap="round" stroke-linejoin="round" stroke-width="2"/>
    <path id="路径_36966" data-name="路径 36966" d="M299.572,918.253v11.853h-10.51" transform="translate(174.022 112.494)" fill="none" stroke="#6287de" stroke-linecap="round" stroke-linejoin="round" stroke-width="2"/>
    <line id="直线_131" data-name="直线 131" x2="11.411" y2="12.912" transform="translate(462.185 1029.689)" fill="none" stroke="#6287de" stroke-linecap="round" stroke-linejoin="round" stroke-width="2"/>
    <path id="路径_36967" data-name="路径 36967" d="M291.09,926.465l-7.958,7.857-7.507-10.26" transform="translate(155.222 120.626)" fill="none" stroke="#6287de" stroke-linecap="round" stroke-linejoin="round" stroke-width="2"/>
    <line id="直线_132" data-name="直线 132" x1="0.225" y2="17.316" transform="translate(438.354 1037.635)" fill="none" stroke="#6287de" stroke-linecap="round" stroke-linejoin="round" stroke-width="2"/>
    <path id="路径_36968" data-name="路径 36968" d="M275.748,927.8H264.187V914.438" transform="translate(139.225 107.151)" fill="none" stroke="#6287de" stroke-linecap="round" stroke-linejoin="round" stroke-width="2"/>
    <line id="直线_133" data-name="直线 133" x1="11.561" y2="12.462" transform="translate(403.413 1022.489)" fill="none" stroke="#6287de" stroke-linecap="round" stroke-linejoin="round" stroke-width="2"/>
    <path id="路径_36969" data-name="路径 36969" d="M265.157,916.191l-7.657-9.309,7.657-8.258" transform="translate(129.873 85.016)" fill="none" stroke="#6287de" stroke-linecap="round" stroke-linejoin="round" stroke-width="2"/>
    <line id="直线_134" data-name="直线 134" x1="16.065" y1="1.501" transform="translate(387.368 991.897)" fill="none" stroke="#6287de" stroke-linecap="round" stroke-linejoin="round" stroke-width="2"/>
    <path id="路径_36970" data-name="路径 36970" d="M272.667,913.079s11.61,14.413,26.523,5.206c0,0,2.3-6.854-6.4-10.21S273.868,904.873,272.667,913.079Z" transform="translate(151.075 95.366)" fill="none" stroke="#6287de" stroke-miterlimit="10" stroke-width="2"/>
    <path id="路径_36971" data-name="路径 36971" d="M294.375,861v22.121l8.608,1.1V861.7Z" transform="translate(181.455 32.349)" fill="none" stroke="#2d3436" stroke-miterlimit="10" stroke-width="2"/>
    <path id="路径_36972" data-name="路径 36972" d="M294.987,857.874V865.5l5.338.581v-7.362" transform="translate(182.314 28.024)" fill="none" stroke="#2d3436" stroke-miterlimit="10" stroke-width="1"/>
    <ellipse id="椭圆_1640" data-name="椭圆 1640" cx="7.214" cy="8.599" rx="7.214" ry="8.599" transform="translate(267.216 966.674) rotate(-17.538)" fill="none" stroke="#ef54a1" stroke-miterlimit="10" stroke-width="1"/>
    <ellipse id="椭圆_1641" data-name="椭圆 1641" cx="9.847" cy="11.738" rx="9.847" ry="11.738" transform="translate(263.762 964.476) rotate(-17.538)" fill="none" stroke="#ef54a1" stroke-miterlimit="10" stroke-width="1.5"/>
    <path id="路径_36973" data-name="路径 36973" d="M210.29,900.343V912l4.535.58V900.712Z" transform="translate(63.834 87.423)" fill="none" stroke="#ef54a1" stroke-miterlimit="10" stroke-width="1.5"/>
    <path id="路径_36974" data-name="路径 36974" d="M210.613,898.7v4.019l3.3.306v-3.878" transform="translate(64.285 85.121)" fill="none" stroke="#ef54a1" stroke-miterlimit="10" stroke-width="1"/>
    <path id="路径_36975" data-name="路径 36975" d="M355.414,883v19.417h5.366" transform="translate(266.762 63.144)" fill="none" stroke="#2d3436" stroke-linecap="round" stroke-miterlimit="10" stroke-width="2"/>
    <line id="直线_135" data-name="直线 135" x1="3.81" transform="translate(622.176 959.149)" fill="none" stroke="#2d3436" stroke-linecap="round" stroke-miterlimit="10" stroke-width="2"/>
    <path id="路径_36976" data-name="路径 36976" d="M363.563,883.687V945.1L407.854,952V906.959l-14.564-18.468Z" transform="translate(278.188 64.087)" fill="none" stroke="#2d3436" stroke-miterlimit="10" stroke-width="2"/>
    <path id="路径_36977" data-name="路径 36977" d="M368.375,899.875l10.585,13.663,10.585-9.609" transform="translate(284.937 86.767)" fill="none" stroke="#35d598" stroke-linecap="round" stroke-miterlimit="10" stroke-width="2"/>
    <line id="直线_136" data-name="直线 136" y2="25.824" transform="translate(663.896 974.488)" fill="none" stroke="#35d598" stroke-linecap="round" stroke-miterlimit="10" stroke-width="2"/>
    <path id="路径_36978" data-name="路径 36978" d="M375.937,885.687v16.666l14.564,1.8" transform="translate(295.541 66.906)" fill="none" stroke="#2d3436" stroke-miterlimit="10" stroke-width="2"/>
    <line id="直线_137" data-name="直线 137" x2="24.123" y2="3.253" transform="translate(329.246 914.551)" fill="none" stroke="#6287de" stroke-linecap="round" stroke-linejoin="round" stroke-width="2"/>
    <line id="直线_138" data-name="直线 138" x2="24.123" y2="3.253" transform="translate(329.246 922.614)" fill="none" stroke="#6287de" stroke-linecap="round" stroke-linejoin="round" stroke-width="2"/>
    <path id="路径_36979" data-name="路径 36979" d="M168.375,949.375V974.7L196,978.1l5.906,7.007V954.079Z" transform="translate(5.212 156.038)" fill="none" stroke="#2d3436" stroke-linecap="round" stroke-linejoin="round" stroke-width="2"/>
    <line id="直线_139" data-name="直线 139" x2="16.315" y2="2.502" transform="translate(180.894 1114.439)" fill="none" stroke="#2d3436" stroke-linecap="round" stroke-linejoin="round" stroke-width="2"/>
    <line id="直线_140" data-name="直线 140" x2="16.315" y2="2.502" transform="translate(180.894 1121.565)" fill="none" stroke="#2d3436" stroke-linecap="round" stroke-linejoin="round" stroke-width="2"/>
    <path id="路径_36980" data-name="路径 36980" stroke="#6287de" d="M175.354,893.625v71.017l8.433,2.1" fill="none" transform="translate(14.999 77.99)" stroke-linecap="round" stroke-linejoin="round" stroke-width="2" stroke-dasharray="1 4"/>
    <path id="路径_36981" data-name="路径 36981" stroke="#6287de" d="M241.567,874.381l-31.38-6.632v31.936" fill="none" transform="translate(63.682 40.95)" stroke-linecap="round" stroke-linejoin="round" stroke-width="2" stroke-dasharray="1 4"/>
    <path id="路径_36982" data-name="路径 36982" stroke="#6287de" d="M214.143,912.4v9.426l72.609,8.82" fill="none" transform="translate(66.665 107.682)" stroke-linecap="round" stroke-linejoin="round" stroke-width="2" stroke-dasharray="1 4"/>
    <path id="路径_36983" data-name="路径 36983" stroke="#6287de" d="M267.53,894.449c.228.067,0-44.074,0-44.074l51.726,6.306" fill="none" transform="translate(143.871 17.509)" stroke-linecap="round" stroke-linejoin="round" stroke-width="2" stroke-dasharray="1 4"/>
    <path id="路径_36984" data-name="路径 36984" stroke="#6287de" d="M324,883l54.852,6.305v40.238" fill="none" transform="translate(222.843 63.134)" stroke-linecap="round" stroke-linejoin="round" stroke-width="2" stroke-dasharray="1 4"/>
    <path id="路径_36985" data-name="路径 36985" stroke="#6287de" d="M376.288,976.547v28.714l-66.163-8.708" fill="none" transform="translate(203.425 197.454)" stroke-linecap="round" stroke-linejoin="round" stroke-width="2" stroke-dasharray="1 4"/>
    <line id="直线_141" data-name="直线 141" y2="8.408" transform="translate(624.081 916.549)" fill="none" stroke="#6287de" stroke-linecap="round" stroke-linejoin="round" stroke-width="2"/>
    <line id="直线_142" data-name="直线 142" y2="7.607" transform="translate(618.579 920.749)" fill="none" stroke="#6287de" stroke-linecap="round" stroke-linejoin="round" stroke-width="2"/>
    <line id="直线_143" data-name="直线 143" y2="7.407" transform="translate(629.589 920.949)" fill="none" stroke="#6287de" stroke-linecap="round" stroke-linejoin="round" stroke-width="2"/>
    <path id="路径_36986" data-name="路径 36986" d="M341.833,912.316l5.805,7.657,18.618-16.23" transform="translate(247.718 92.182)" fill="none" stroke="#ef54a1" stroke-linecap="round" stroke-linejoin="round" stroke-width="2"/>
    <path id="路径_36987" data-name="路径 36987" d="M358.192,922.793c.221-.137,11.942,1.112,7.536,3.515s-6.148,3.1-3.272,4.905,10.38,1.3,9.979,2.7-4.2,4-6.306,4.1-4.3,8.408-6.505,8.708a5.492,5.492,0,0,0-4.605,3.1c-.7,1.7-2.3,1.4-2.9-3.2s-5.91-7.1-5.91-7.1" transform="translate(253.851 118.824)" fill="none" stroke="#2d3436" stroke-miterlimit="10" stroke-width="1"/>
    <path id="路径_36988" data-name="路径 36988" d="M358.749,922.783s-4.519.721-2.016,3.925,2.6,5.6,5.5,4.1,3.3-1.665,3.9-3.786-.3-4.821-3-3.721A4.124,4.124,0,0,1,358.749,922.783Z" transform="translate(267.552 118.836)" fill="none" stroke="#2d3436" stroke-miterlimit="10" stroke-width="1"/>
    <path id="路径_36989" data-name="路径 36989" d="M378.369,931.811s-2.561,1.835-5.763-1.667-8.309-4.106-8.509-1.8-2,4.526-2.1,6.666,1,3.844,4.5,3.442,5.705-.3,6.707,2.8,1.4,6.109-2.3,3.654-9.153-2.554-10.032.85-2.078,7.207.824,8.108,5.806-2.8,6.306,2.4.3,10.909,2.3,11.61,2.9.4,3.9-5.6,4.425-8.408,4.163-11.512,4.946-3.2,4.946-3.2" transform="translate(272.999 124.678)" fill="none" stroke="#2d3436" stroke-miterlimit="10" stroke-width="1"/>
    <path id="路径_36990" data-name="路径 36990" d="M356.187,935.87c.4.13,1.1-3.976,5.3.829s5.429,6.005,6.318,7.908.519,2.1-2.4,6.407-4.118,6.906-4.118,8.708-3.5,5.3-4.2,0,2.9-9.21-1.7-12.713-5.405-4.276-2.3-7.706Z" transform="translate(260.891 135.027)" fill="none" stroke="#2d3436" stroke-miterlimit="10" stroke-width="1"/>
    <path id="路径_36991" data-name="路径 36991" d="M309.77,972.9l3.654-3.1s3.6-1.7,3.853,1.85l-4.8,4.055a2.587,2.587,0,0,1-3.2.6C307.169,975.406,309.77,972.9,309.77,972.9Z" transform="translate(201.145 184.044)" fill="none" stroke="#2d3436" stroke-miterlimit="10" stroke-width="1"/>
    <path id="路径_36959" data-name="路径 36959" d="M330.25,960.167l25.524,29.027L381.3,969.576" transform="translate(231.475 171.106)" fill="none" stroke="#ef54a1" stroke-linecap="round" stroke-linejoin="round" stroke-width="2"/>
    <path id="路径_36952" data-name="路径 36952" d="M229.376,864.967v40.768l8.558-7.507,34.232,3.445V870.6Z" transform="translate(90.516 37.897)" fill="none" stroke="#ef54a1" stroke-linecap="round" stroke-linejoin="round" stroke-width="2"/>
  </g>
</svg>
