<svg xmlns="http://www.w3.org/2000/svg" xmlns:xlink="http://www.w3.org/1999/xlink" width="1820" height="880" viewBox="0 0 1820 880">
  <defs>
    <clipPath id="clip-path">
      <rect id="矩形_2253" data-name="矩形 2253" width="1820" height="880" fill="#fff"/>
    </clipPath>
    <clipPath id="clip-path-2">
      <rect id="矩形_2279" data-name="矩形 2279" width="1820" height="880" transform="translate(50 160)" fill="#fff"/>
    </clipPath>
  </defs>
  <g id="秘密_EN" transform="translate(-4357 1967)">
    <g id="NAV_bg" transform="translate(4357 -1967)" clip-path="url(#clip-path)">
      <g id="组_21480" data-name="组 21480" transform="translate(-50 27)" opacity="0.05">
        <g id="组_21478" data-name="组 21478" transform="translate(0 7.733)">
          <g id="组_21420" data-name="组 21420" transform="translate(496.006 224.522)">
            <g id="组_21418" data-name="组 21418" transform="translate(0 0)">
              <rect id="矩形_2227" data-name="矩形 2227" width="472.183" height="1.891" transform="translate(0 84.71) rotate(-10.335)"/>
            </g>
            <g id="组_21419" data-name="组 21419" transform="translate(0 0)">
              <rect id="矩形_2228" data-name="矩形 2228" width="472.183" height="1.891" transform="translate(0 84.71) rotate(-10.335)"/>
            </g>
          </g>
          <g id="组_21424" data-name="组 21424" transform="translate(496.139 32.308)">
            <g id="组_21421" data-name="组 21421" transform="translate(464.098 0.366)">
              <rect id="矩形_2229" data-name="矩形 2229" width="192.908" height="1.261" transform="matrix(0.063, -0.998, 0.998, 0.063, 0, 192.522)"/>
            </g>
            <g id="组_21422" data-name="组 21422" transform="translate(0)">
              <path id="路径_37381" data-name="路径 37381" d="M63.23,337.945l-.63-1.261L538.566,59.3l1.261,1.261Z" transform="translate(-62.6 -59.3)"/>
            </g>
            <g id="组_21423" data-name="组 21423" transform="translate(0)">
              <path id="路径_37382" data-name="路径 37382" d="M63.23,337.945l-.63-1.261L538.566,59.3l1.261,1.261Z" transform="translate(-62.6 -59.3)"/>
            </g>
          </g>
          <g id="组_21429" data-name="组 21429" transform="translate(495.837 32.165)">
            <g id="组_21425" data-name="组 21425" transform="translate(326.765 0)">
              <rect id="矩形_2230" data-name="矩形 2230" width="182.191" height="1.261" transform="translate(0 104.013) rotate(-34.814)"/>
            </g>
            <g id="组_21426" data-name="组 21426" transform="translate(327.17 104.435)">
              <rect id="矩形_2231" data-name="矩形 2231" width="1.261" height="163.278" transform="matrix(0.54, -0.841, 0.841, 0.54, 0, 1.061)"/>
            </g>
            <g id="组_21427" data-name="组 21427" transform="translate(0 103.907)">
              <rect id="矩形_2232" data-name="矩形 2232" width="370.055" height="1.261" transform="translate(0 173.556) rotate(-27.969)"/>
            </g>
            <g id="组_21428" data-name="组 21428" transform="translate(0 103.907)">
              <rect id="矩形_2233" data-name="矩形 2233" width="370.055" height="1.261" transform="translate(0 173.556) rotate(-27.969)"/>
            </g>
          </g>
          <g id="组_21432" data-name="组 21432" transform="translate(0 309.692)">
            <g id="组_21430" data-name="组 21430">
              <path id="路径_37383" data-name="路径 37383" d="M-16.1,576.113,480.669,104.561l-.63-1.261L-16.1,574.222Z" transform="translate(16.1 -103.3)"/>
            </g>
            <g id="组_21431" data-name="组 21431">
              <path id="路径_37384" data-name="路径 37384" d="M-16.1,576.113,480.669,104.561l-.63-1.261L-16.1,574.222Z" transform="translate(16.1 -103.3)"/>
            </g>
          </g>
          <g id="组_21439" data-name="组 21439" transform="translate(0 136.327)">
            <g id="组_21433" data-name="组 21433" transform="translate(0 127.344)">
              <path id="路径_37385" data-name="路径 37385" d="M-16.1,493.163,55.768,96H53.876L-16.1,484.337Z" transform="translate(16.1 -96)"/>
            </g>
            <g id="组_21434" data-name="组 21434" transform="translate(0 115.366)">
              <path id="路径_37386" data-name="路径 37386" d="M-16.1,94.1v1.261l70.607,11.347.63-1.261Z" transform="translate(16.1 -94.1)"/>
            </g>
            <g id="组_21435" data-name="组 21435" transform="translate(70.607)">
              <path id="路径_37387" data-name="路径 37387" d="M-4.27,203.775l-.63-1.261L747.819,75.8v1.261Z" transform="translate(4.9 -75.8)"/>
            </g>
            <g id="组_21436" data-name="组 21436" transform="translate(0 126.714)">
              <path id="路径_37388" data-name="路径 37388" d="M-16.1,143.181,55.137,97.161l-.63-1.261L-16.1,141.29Z" transform="translate(16.1 -95.9)"/>
            </g>
            <g id="组_21437" data-name="组 21437" transform="translate(71.065 126.796)">
              <rect id="矩形_2234" data-name="矩形 2234" width="1.261" height="428.054" transform="translate(0 1.253) rotate(-83.754)"/>
            </g>
            <g id="组_21438" data-name="组 21438" transform="translate(71.065 126.796)">
              <rect id="矩形_2235" data-name="矩形 2235" width="1.261" height="428.054" transform="translate(0 1.253) rotate(-83.754)"/>
            </g>
          </g>
          <g id="组_21445" data-name="组 21445" transform="translate(495.939 33.135)">
            <g id="组_21440" data-name="组 21440" transform="translate(326.126 103.822)">
              <path id="路径_37389" data-name="路径 37389" d="M215.8,741.621,114.3,75.9h1.891L217.058,741.621Z" transform="translate(-114.3 -75.9)"/>
            </g>
            <g id="组_21441" data-name="组 21441" transform="translate(427.475 0)">
              <rect id="矩形_2236" data-name="矩形 2236" width="771.001" height="1.261" transform="translate(0 769.459) rotate(-86.406)"/>
            </g>
            <g id="组_21442" data-name="组 21442" transform="translate(427.648 192.686)">
              <rect id="矩形_2237" data-name="矩形 2237" width="578.093" height="1.261" transform="translate(0 576.937) rotate(-86.392)"/>
            </g>
            <g id="组_21443" data-name="组 21443" transform="translate(0 276.653)">
              <rect id="矩形_2238" data-name="矩形 2238" width="1.261" height="652.483" transform="matrix(0.755, -0.656, 0.656, 0.755, 0, 0.827)"/>
            </g>
            <g id="组_21444" data-name="组 21444" transform="translate(0 276.653)">
              <rect id="矩形_2239" data-name="矩形 2239" width="1.261" height="652.483" transform="matrix(0.755, -0.656, 0.656, 0.755, 0, 0.827)"/>
            </g>
          </g>
          <g id="组_21453" data-name="组 21453" transform="translate(0 136.728)">
            <g id="组_21446" data-name="组 21446" transform="translate(529.871 665.909)">
              <rect id="矩形_2240" data-name="矩形 2240" width="404.098" height="1.891" transform="matrix(0.976, -0.219, 0.219, 0.976, 0, 88.336)"/>
            </g>
            <g id="组_21447" data-name="组 21447" transform="translate(69.976 126.313)">
              <path id="路径_37390" data-name="路径 37390" d="M454.575,725.688-5,97.161-3.739,95.9,455.836,725.057Z" transform="translate(5 -95.9)"/>
            </g>
            <g id="组_21448" data-name="组 21448" transform="translate(0 674.146)">
              <path id="路径_37391" data-name="路径 37391" d="M-16.1,182.8v1.261l530.182,81.324v-1.891Z" transform="translate(16.1 -182.8)"/>
            </g>
            <g id="组_21449" data-name="组 21449" transform="translate(529.561)">
              <rect id="矩形_2241" data-name="矩形 2241" width="810.087" height="1.891" transform="translate(0 755.406) rotate(-68.826)"/>
            </g>
            <g id="组_21450" data-name="组 21450" transform="translate(529.551 88.488)">
              <path id="路径_37392" data-name="路径 37392" d="M69.161,757.513l-1.261-.63L498.476,89.9l1.261.63Z" transform="translate(-67.9 -89.9)"/>
            </g>
            <g id="组_21451" data-name="组 21451" transform="translate(495.627 173.374)">
              <rect id="矩形_2242" data-name="矩形 2242" width="1.891" height="583.137" transform="matrix(0.998, -0.058, 0.058, 0.998, 0, 0.11)"/>
            </g>
            <g id="组_21452" data-name="组 21452" transform="translate(495.627 173.374)">
              <rect id="矩形_2243" data-name="矩形 2243" width="1.891" height="583.137" transform="matrix(0.998, -0.058, 0.058, 0.998, 0, 0.11)"/>
            </g>
          </g>
          <g id="组_21458" data-name="组 21458" transform="translate(822.695 0)">
            <g id="组_21454" data-name="组 21454" transform="translate(552.246 0.157)">
              <path id="路径_37393" data-name="路径 37393" d="M793.962,371.3,202.63,54.2,202,55.461l591.962,317.1Z" transform="translate(-202 -54.2)"/>
            </g>
            <g id="组_21455" data-name="组 21455" transform="translate(0 0.157)">
              <path id="路径_37394" data-name="路径 37394" d="M115.03,191.631l-.63-1.261L666.646,54.2l.63,1.261Z" transform="translate(-114.4 -54.2)"/>
            </g>
            <g id="组_21456" data-name="组 21456" transform="translate(150.039 0.157)">
              <path id="路径_37395" data-name="路径 37395" d="M138.2,87.612V86.351L540.407,54.2l.63,1.261Z" transform="translate(-138.2 -54.2)"/>
            </g>
            <g id="组_21457" data-name="组 21457" transform="translate(137.898)">
              <rect id="矩形_2244" data-name="矩形 2244" width="471.553" height="1.261" transform="matrix(0.879, -0.477, 0.477, 0.879, 0, 224.789)"/>
            </g>
          </g>
          <g id="组_21461" data-name="组 21461" transform="translate(924.193 225.193)">
            <g id="组_21459" data-name="组 21459" transform="translate(0 576.855)">
              <path id="路径_37396" data-name="路径 37396" d="M572.423,284.789,130.5,182.661V181.4L572.423,282.9Z" transform="translate(-130.5 -181.4)"/>
            </g>
            <g id="组_21460" data-name="组 21460" transform="translate(35.844 0)">
              <rect id="矩形_2245" data-name="矩形 2245" width="1.891" height="791.175" transform="translate(0 0.97) rotate(-30.843)"/>
            </g>
          </g>
          <g id="组_21469" data-name="组 21469" transform="translate(822.695 0.025)">
            <g id="组_21462" data-name="组 21462" transform="translate(542.664 534.601)">
              <rect id="矩形_2246" data-name="矩形 2246" width="398.424" height="1.891" transform="matrix(0.374, -0.927, 0.927, 0.374, 0, 369.459)"/>
            </g>
            <g id="组_21463" data-name="组 21463" transform="translate(551.651 0)">
              <rect id="矩形_2247" data-name="矩形 2247" width="1.891" height="552.246" transform="matrix(0.967, -0.253, 0.253, 0.967, 0, 0.479)"/>
            </g>
            <g id="组_21464" data-name="组 21464" transform="translate(692.199 393.513)">
              <path id="路径_37397" data-name="路径 37397" d="M676.21,116.6,224.2,257.183v1.261L676.21,118.491Z" transform="translate(-224.2 -116.6)"/>
            </g>
            <g id="组_21465" data-name="组 21465" transform="translate(101.262 533.511)">
              <rect id="矩形_2248" data-name="矩形 2248" width="648.7" height="1.261" transform="translate(0 268.627) rotate(-24.463)"/>
            </g>
            <g id="组_21466" data-name="组 21466" transform="translate(0 136.302)">
              <path id="路径_37398" data-name="路径 37398" d="M805.968,474.855,114.4,77.061l.63-1.261,692.2,397.794Z" transform="translate(-114.4 -75.8)"/>
            </g>
            <g id="组_21467" data-name="组 21467" transform="translate(149.585 32.046)">
              <rect id="矩形_2249" data-name="矩形 2249" width="1.891" height="738.85" transform="translate(0 1.388) rotate(-47.229)"/>
            </g>
            <g id="组_21468" data-name="组 21468" transform="translate(137.402 224.553)">
              <rect id="矩形_2250" data-name="矩形 2250" width="1.891" height="634.831" transform="translate(0 1.652) rotate(-60.849)"/>
            </g>
          </g>
          <g id="组_21471" data-name="组 21471" transform="translate(1514.894 534.12)">
            <g id="组_21470" data-name="组 21470">
              <path id="路径_37399" data-name="路径 37399" d="M676.21,256.788,224.2,138.9v1.261L676.21,258.679Z" transform="translate(-224.2 -138.9)"/>
            </g>
          </g>
          <g id="组_21477" data-name="组 21477" transform="translate(924.091 497.556)">
            <g id="组_21472" data-name="组 21472" transform="translate(742.734 341.056)">
              <path id="路径_37400" data-name="路径 37400" d="M548.379,187.2,248.3,283.654l.63,1.891,299.448-96.454Z" transform="translate(-248.3 -187.2)"/>
            </g>
            <g id="组_21473" data-name="组 21473" transform="translate(590.173 36.564)">
              <path id="路径_37401" data-name="路径 37401" d="M376.661,541.107,224.1,139.531l1.261-.631L377.922,540.476Z" transform="translate(-224.1 -138.9)"/>
            </g>
            <g id="组_21474" data-name="组 21474" transform="translate(441.745 405.549)">
              <rect id="矩形_2251" data-name="矩形 2251" width="1.891" height="302.601" transform="translate(0 1.881) rotate(-83.996)"/>
            </g>
            <g id="组_21475" data-name="组 21475" transform="translate(742.734)">
              <path id="路径_37402" data-name="路径 37402" d="M548.379,133.1,248.3,571.241l1.261.63L548.379,135.622Z" transform="translate(-248.3 -133.1)"/>
            </g>
            <g id="组_21476" data-name="组 21476" transform="translate(0 304.675)">
              <rect id="矩形_2252" data-name="矩形 2252" width="1.261" height="754.61" transform="translate(0 1.241) rotate(-79.81)"/>
            </g>
          </g>
        </g>
        <g id="组_21479" data-name="组 21479" transform="translate(62.717)">
          <path id="路径_37403" data-name="路径 37403" d="M71.76,118.234a8.183,8.183,0,1,1,5.674-10.087C78.694,111.929,76.173,116.973,71.76,118.234Z" transform="translate(364.184 208.017)"/>
          <path id="路径_37404" data-name="路径 37404" d="M145.46,104.734a8.183,8.183,0,1,1,5.674-10.087C151.764,99.06,149.242,103.473,145.46,104.734Z" transform="translate(755.102 136.411)"/>
          <path id="路径_37405" data-name="路径 37405" d="M71.76,118.234a8.183,8.183,0,1,1,5.674-10.087C78.694,111.929,76.173,116.973,71.76,118.234Z" transform="translate(364.184 208.017)"/>
          <path id="路径_37406" data-name="路径 37406" d="M145.46,104.734a8.183,8.183,0,1,1,5.674-10.087C151.764,99.06,149.242,103.473,145.46,104.734Z" transform="translate(755.102 136.411)"/>
          <path id="路径_37407" data-name="路径 37407" d="M145.46,104.734a8.183,8.183,0,1,1,5.674-10.087C151.764,99.06,149.242,103.473,145.46,104.734Z" transform="translate(755.102 136.411)"/>
          <path id="路径_37408" data-name="路径 37408" d="M147.36,74.234a8.183,8.183,0,1,1,5.674-10.087C154.294,67.929,151.773,72.973,147.36,74.234Z" transform="translate(765.18 -25.367)"/>
          <path id="路径_37409" data-name="路径 37409" d="M71.76,118.234a8.183,8.183,0,1,1,5.674-10.087C78.694,111.929,76.173,116.973,71.76,118.234Z" transform="translate(364.184 208.017)"/>
          <path id="路径_37410" data-name="路径 37410" d="M147.36,74.234a8.183,8.183,0,1,1,5.674-10.087C154.294,67.929,151.773,72.973,147.36,74.234Z" transform="translate(765.18 -25.367)"/>
          <path id="路径_37411" data-name="路径 37411" d="M71.76,118.234a8.183,8.183,0,1,1,5.674-10.087C78.694,111.929,76.173,116.973,71.76,118.234Z" transform="translate(364.184 208.017)"/>
          <path id="路径_37412" data-name="路径 37412" d="M147.36,74.234a8.183,8.183,0,1,1,5.674-10.087C154.294,67.929,151.773,72.973,147.36,74.234Z" transform="translate(765.18 -25.367)"/>
          <path id="路径_37413" data-name="路径 37413" d="M147.36,74.234a8.183,8.183,0,1,1,5.674-10.087C154.294,67.929,151.773,72.973,147.36,74.234Z" transform="translate(765.18 -25.367)"/>
          <path id="路径_37414" data-name="路径 37414" d="M123.56,90.734a8.183,8.183,0,1,1,5.674-10.087C130.494,84.429,127.973,89.473,123.56,90.734Z" transform="translate(638.94 62.152)"/>
          <path id="路径_37415" data-name="路径 37415" d="M145.46,104.734a8.183,8.183,0,1,1,5.674-10.087C151.764,99.06,149.242,103.473,145.46,104.734Z" transform="translate(755.102 136.411)"/>
          <path id="路径_37416" data-name="路径 37416" d="M123.56,90.734a8.183,8.183,0,1,1,5.674-10.087C130.494,84.429,127.973,89.473,123.56,90.734Z" transform="translate(638.94 62.152)"/>
          <path id="路径_37417" data-name="路径 37417" d="M71.76,118.234a8.183,8.183,0,1,1,5.674-10.087C78.694,111.929,76.173,116.973,71.76,118.234Z" transform="translate(364.184 208.017)"/>
          <path id="路径_37418" data-name="路径 37418" d="M123.56,90.734a8.183,8.183,0,1,1,5.674-10.087C130.494,84.429,127.973,89.473,123.56,90.734Z" transform="translate(638.94 62.152)"/>
          <path id="路径_37419" data-name="路径 37419" d="M71.76,118.234a8.183,8.183,0,1,1,5.674-10.087C78.694,111.929,76.173,116.973,71.76,118.234Z" transform="translate(364.184 208.017)"/>
          <path id="路径_37420" data-name="路径 37420" d="M123.56,90.734a8.183,8.183,0,1,1,5.674-10.087C130.494,84.429,127.973,89.473,123.56,90.734Z" transform="translate(638.94 62.152)"/>
          <path id="路径_37421" data-name="路径 37421" d="M71.76,118.234a8.183,8.183,0,1,1,5.674-10.087C78.694,111.929,76.173,116.973,71.76,118.234Z" transform="translate(364.184 208.017)"/>
          <path id="路径_37422" data-name="路径 37422" d="M71.76,118.234a8.183,8.183,0,1,1,5.674-10.087C78.694,111.929,76.173,116.973,71.76,118.234Z" transform="translate(364.184 208.017)"/>
          <path id="路径_37423" data-name="路径 37423" d="M4.26,110.834A8.1,8.1,0,0,1-5.827,105.16,8.1,8.1,0,0,1-.153,95.073a8.1,8.1,0,0,1,10.087,5.674C11.194,104.529,8.673,109.573,4.26,110.834Z" transform="translate(6.151 168.766)"/>
          <path id="路径_37424" data-name="路径 37424" d="M4.26,110.834A8.1,8.1,0,0,1-5.827,105.16,8.1,8.1,0,0,1-.153,95.073a8.1,8.1,0,0,1,10.087,5.674C11.194,104.529,8.673,109.573,4.26,110.834Z" transform="translate(6.151 168.766)"/>
          <path id="路径_37425" data-name="路径 37425" d="M123.56,90.734a8.183,8.183,0,1,1,5.674-10.087C130.494,84.429,127.973,89.473,123.56,90.734Z" transform="translate(638.94 62.152)"/>
          <path id="路径_37426" data-name="路径 37426" d="M4.26,110.834A8.1,8.1,0,0,1-5.827,105.16,8.1,8.1,0,0,1-.153,95.073a8.1,8.1,0,0,1,10.087,5.674C11.194,104.529,8.673,109.573,4.26,110.834Z" transform="translate(6.151 168.766)"/>
          <path id="路径_37427" data-name="路径 37427" d="M4.26,110.834A8.1,8.1,0,0,1-5.827,105.16,8.1,8.1,0,0,1-.153,95.073a8.1,8.1,0,0,1,10.087,5.674C11.194,104.529,8.673,109.573,4.26,110.834Z" transform="translate(6.151 168.766)"/>
          <path id="路径_37428" data-name="路径 37428" d="M71.76,118.234a8.183,8.183,0,1,1,5.674-10.087C78.694,111.929,76.173,116.973,71.76,118.234Z" transform="translate(364.184 208.017)"/>
          <path id="路径_37429" data-name="路径 37429" d="M4.26,110.834A8.1,8.1,0,0,1-5.827,105.16,8.1,8.1,0,0,1-.153,95.073a8.1,8.1,0,0,1,10.087,5.674C11.194,104.529,8.673,109.573,4.26,110.834Z" transform="translate(6.151 168.766)"/>
          <path id="路径_37430" data-name="路径 37430" d="M71.76,118.234a8.183,8.183,0,1,1,5.674-10.087C78.694,111.929,76.173,116.973,71.76,118.234Z" transform="translate(364.184 208.017)"/>
          <path id="路径_37431" data-name="路径 37431" d="M4.26,110.834A8.1,8.1,0,0,1-5.827,105.16,8.1,8.1,0,0,1-.153,95.073a8.1,8.1,0,0,1,10.087,5.674C11.194,104.529,8.673,109.573,4.26,110.834Z" transform="translate(6.151 168.766)"/>
          <path id="路径_37432" data-name="路径 37432" d="M123.56,90.734a8.183,8.183,0,1,1,5.674-10.087C130.494,84.429,127.973,89.473,123.56,90.734Z" transform="translate(638.94 62.152)"/>
          <path id="路径_37433" data-name="路径 37433" d="M139.66,196.234a8.183,8.183,0,1,1,5.674-10.087A8.1,8.1,0,0,1,139.66,196.234Z" transform="translate(724.337 621.743)"/>
          <path id="路径_37434" data-name="路径 37434" d="M147.36,74.234a8.183,8.183,0,1,1,5.674-10.087C154.294,67.929,151.773,72.973,147.36,74.234Z" transform="translate(765.18 -25.367)"/>
          <path id="路径_37435" data-name="路径 37435" d="M139.66,196.234a8.183,8.183,0,1,1,5.674-10.087A8.1,8.1,0,0,1,139.66,196.234Z" transform="translate(724.337 621.743)"/>
          <path id="路径_37436" data-name="路径 37436" d="M145.46,104.734a8.183,8.183,0,1,1,5.674-10.087C151.764,99.06,149.242,103.473,145.46,104.734Z" transform="translate(755.102 136.411)"/>
          <path id="路径_37437" data-name="路径 37437" d="M139.66,196.234a8.183,8.183,0,1,1,5.674-10.087A8.1,8.1,0,0,1,139.66,196.234Z" transform="translate(724.337 621.743)"/>
          <path id="路径_37438" data-name="路径 37438" d="M71.76,118.234a8.183,8.183,0,1,1,5.674-10.087C78.694,111.929,76.173,116.973,71.76,118.234Z" transform="translate(364.184 208.017)"/>
          <path id="路径_37439" data-name="路径 37439" d="M139.66,196.234a8.183,8.183,0,1,1,5.674-10.087A8.1,8.1,0,0,1,139.66,196.234Z" transform="translate(724.337 621.743)"/>
          <path id="路径_37440" data-name="路径 37440" d="M71.76,118.234a8.183,8.183,0,1,1,5.674-10.087C78.694,111.929,76.173,116.973,71.76,118.234Z" transform="translate(364.184 208.017)"/>
          <path id="路径_37441" data-name="路径 37441" d="M139.66,196.234a8.183,8.183,0,1,1,5.674-10.087A8.1,8.1,0,0,1,139.66,196.234Z" transform="translate(724.337 621.743)"/>
          <path id="路径_37442" data-name="路径 37442" d="M139.66,196.234a8.183,8.183,0,1,1,5.674-10.087A8.1,8.1,0,0,1,139.66,196.234Z" transform="translate(724.337 621.743)"/>
          <path id="路径_37443" data-name="路径 37443" d="M77.16,210.534a8.183,8.183,0,1,1,5.674-10.087A8.1,8.1,0,0,1,77.16,210.534Z" transform="translate(392.826 697.593)"/>
          <path id="路径_37444" data-name="路径 37444" d="M4.26,110.834A8.1,8.1,0,0,1-5.827,105.16,8.1,8.1,0,0,1-.153,95.073a8.1,8.1,0,0,1,10.087,5.674C11.194,104.529,8.673,109.573,4.26,110.834Z" transform="translate(6.151 168.766)"/>
          <path id="路径_37445" data-name="路径 37445" d="M77.16,210.534a8.183,8.183,0,1,1,5.674-10.087A8.1,8.1,0,0,1,77.16,210.534Z" transform="translate(392.826 697.593)"/>
          <path id="路径_37446" data-name="路径 37446" d="M77.16,210.534a8.183,8.183,0,1,1,5.674-10.087A8.1,8.1,0,0,1,77.16,210.534Z" transform="translate(392.826 697.593)"/>
          <path id="路径_37447" data-name="路径 37447" d="M123.56,90.734a8.183,8.183,0,1,1,5.674-10.087C130.494,84.429,127.973,89.473,123.56,90.734Z" transform="translate(638.94 62.152)"/>
          <path id="路径_37448" data-name="路径 37448" d="M77.16,210.534a8.183,8.183,0,1,1,5.674-10.087A8.1,8.1,0,0,1,77.16,210.534Z" transform="translate(392.826 697.593)"/>
          <path id="路径_37449" data-name="路径 37449" d="M145.46,104.734a8.183,8.183,0,1,1,5.674-10.087C151.764,99.06,149.242,103.473,145.46,104.734Z" transform="translate(755.102 136.411)"/>
          <path id="路径_37450" data-name="路径 37450" d="M77.16,210.534a8.183,8.183,0,1,1,5.674-10.087A8.1,8.1,0,0,1,77.16,210.534Z" transform="translate(392.826 697.593)"/>
          <path id="路径_37451" data-name="路径 37451" d="M71.76,118.234a8.183,8.183,0,1,1,5.674-10.087C78.694,111.929,76.173,116.973,71.76,118.234Z" transform="translate(364.184 208.017)"/>
          <path id="路径_37452" data-name="路径 37452" d="M77.16,210.534a8.183,8.183,0,1,1,5.674-10.087A8.1,8.1,0,0,1,77.16,210.534Z" transform="translate(392.826 697.593)"/>
          <path id="路径_37453" data-name="路径 37453" d="M71.76,118.234a8.183,8.183,0,1,1,5.674-10.087C78.694,111.929,76.173,116.973,71.76,118.234Z" transform="translate(364.184 208.017)"/>
          <path id="路径_37454" data-name="路径 37454" d="M77.16,210.534a8.183,8.183,0,1,1,5.674-10.087A8.1,8.1,0,0,1,77.16,210.534Z" transform="translate(392.826 697.593)"/>
          <path id="路径_37455" data-name="路径 37455" d="M211.16,69.034a8.183,8.183,0,1,1,5.674-10.087A8.1,8.1,0,0,1,211.16,69.034Z" transform="translate(1103.586 -52.949)"/>
          <path id="路径_37456" data-name="路径 37456" d="M123.56,90.734a8.183,8.183,0,1,1,5.674-10.087C130.494,84.429,127.973,89.473,123.56,90.734Z" transform="translate(638.94 62.152)"/>
          <path id="路径_37457" data-name="路径 37457" d="M211.16,69.034a8.183,8.183,0,1,1,5.674-10.087A8.1,8.1,0,0,1,211.16,69.034Z" transform="translate(1103.586 -52.949)"/>
          <path id="路径_37458" data-name="路径 37458" d="M147.36,74.234a8.183,8.183,0,1,1,5.674-10.087C154.294,67.929,151.773,72.973,147.36,74.234Z" transform="translate(765.18 -25.367)"/>
          <path id="路径_37459" data-name="路径 37459" d="M211.16,69.034a8.183,8.183,0,1,1,5.674-10.087A8.1,8.1,0,0,1,211.16,69.034Z" transform="translate(1103.586 -52.949)"/>
          <path id="路径_37460" data-name="路径 37460" d="M145.46,104.734a8.183,8.183,0,1,1,5.674-10.087C151.764,99.06,149.242,103.473,145.46,104.734Z" transform="translate(755.102 136.411)"/>
          <path id="路径_37461" data-name="路径 37461" d="M211.16,69.034a8.183,8.183,0,1,1,5.674-10.087A8.1,8.1,0,0,1,211.16,69.034Z" transform="translate(1103.586 -52.949)"/>
          <path id="路径_37462" data-name="路径 37462" d="M139.66,196.234a8.183,8.183,0,1,1,5.674-10.087A8.1,8.1,0,0,1,139.66,196.234Z" transform="translate(724.337 621.743)"/>
          <path id="路径_37463" data-name="路径 37463" d="M209.76,212.434a8.183,8.183,0,1,1,5.674-10.087A8.1,8.1,0,0,1,209.76,212.434Z" transform="translate(1096.16 707.671)"/>
          <path id="路径_37464" data-name="路径 37464" d="M145.46,104.734a8.183,8.183,0,1,1,5.674-10.087C151.764,99.06,149.242,103.473,145.46,104.734Z" transform="translate(755.102 136.411)"/>
          <path id="路径_37465" data-name="路径 37465" d="M209.76,212.434a8.183,8.183,0,1,1,5.674-10.087A8.1,8.1,0,0,1,209.76,212.434Z" transform="translate(1096.16 707.671)"/>
          <path id="路径_37466" data-name="路径 37466" d="M209.76,212.434a8.183,8.183,0,1,1,5.674-10.087A8.1,8.1,0,0,1,209.76,212.434Z" transform="translate(1096.16 707.671)"/>
          <path id="路径_37467" data-name="路径 37467" d="M233.36,153.733a8.183,8.183,0,1,1,5.674-10.087A8.1,8.1,0,0,1,233.36,153.733Z" transform="translate(1221.339 396.315)"/>
          <path id="路径_37468" data-name="路径 37468" d="M211.16,69.034a8.183,8.183,0,1,1,5.674-10.087A8.1,8.1,0,0,1,211.16,69.034Z" transform="translate(1103.586 -52.949)"/>
          <path id="路径_37469" data-name="路径 37469" d="M233.36,153.733a8.183,8.183,0,1,1,5.674-10.087A8.1,8.1,0,0,1,233.36,153.733Z" transform="translate(1221.339 396.315)"/>
          <path id="路径_37470" data-name="路径 37470" d="M233.36,153.733a8.183,8.183,0,1,1,5.674-10.087A8.1,8.1,0,0,1,233.36,153.733Z" transform="translate(1221.339 396.315)"/>
          <path id="路径_37471" data-name="路径 37471" d="M139.66,196.234a8.183,8.183,0,1,1,5.674-10.087A8.1,8.1,0,0,1,139.66,196.234Z" transform="translate(724.337 621.743)"/>
          <path id="路径_37472" data-name="路径 37472" d="M233.36,153.733a8.183,8.183,0,1,1,5.674-10.087A8.1,8.1,0,0,1,233.36,153.733Z" transform="translate(1221.339 396.315)"/>
          <path id="路径_37473" data-name="路径 37473" d="M123.56,90.734a8.183,8.183,0,1,1,5.674-10.087C130.494,84.429,127.973,89.473,123.56,90.734Z" transform="translate(638.94 62.152)"/>
          <path id="路径_37474" data-name="路径 37474" d="M233.36,153.733a8.183,8.183,0,1,1,5.674-10.087A8.1,8.1,0,0,1,233.36,153.733Z" transform="translate(1221.339 396.315)"/>
          <path id="路径_37475" data-name="路径 37475" d="M147.36,74.234a8.183,8.183,0,1,1,5.674-10.087C154.294,67.929,151.773,72.973,147.36,74.234Z" transform="translate(765.18 -25.367)"/>
          <path id="路径_37476" data-name="路径 37476" d="M233.36,153.733a8.183,8.183,0,1,1,5.674-10.087A8.1,8.1,0,0,1,233.36,153.733Z" transform="translate(1221.339 396.315)"/>
          <path id="路径_37477" data-name="路径 37477" d="M145.46,104.734a8.183,8.183,0,1,1,5.674-10.087C151.764,99.06,149.242,103.473,145.46,104.734Z" transform="translate(755.102 136.411)"/>
          <path id="路径_37478" data-name="路径 37478" d="M233.36,153.733a8.183,8.183,0,1,1,5.674-10.087A8.1,8.1,0,0,1,233.36,153.733Z" transform="translate(1221.339 396.315)"/>
          <path id="路径_37479" data-name="路径 37479" d="M233.36,153.733a8.183,8.183,0,1,1,5.674-10.087A8.1,8.1,0,0,1,233.36,153.733Z" transform="translate(1221.339 396.315)"/>
          <path id="路径_37480" data-name="路径 37480" d="M257.46,217.434a8.183,8.183,0,1,1,5.674-10.087A8.1,8.1,0,0,1,257.46,217.434Z" transform="translate(1349.17 734.192)"/>
          <path id="路径_37481" data-name="路径 37481" d="M233.36,153.733a8.183,8.183,0,1,1,5.674-10.087A8.1,8.1,0,0,1,233.36,153.733Z" transform="translate(1221.339 396.315)"/>
          <path id="路径_37482" data-name="路径 37482" d="M257.46,217.434a8.183,8.183,0,1,1,5.674-10.087A8.1,8.1,0,0,1,257.46,217.434Z" transform="translate(1349.17 734.192)"/>
          <path id="路径_37483" data-name="路径 37483" d="M209.76,212.434a8.183,8.183,0,1,1,5.674-10.087A8.1,8.1,0,0,1,209.76,212.434Z" transform="translate(1096.16 707.671)"/>
          <path id="路径_37484" data-name="路径 37484" d="M257.46,217.434a8.183,8.183,0,1,1,5.674-10.087A8.1,8.1,0,0,1,257.46,217.434Z" transform="translate(1349.17 734.192)"/>
          <path id="路径_37485" data-name="路径 37485" d="M257.46,217.434a8.183,8.183,0,1,1,5.674-10.087A8.1,8.1,0,0,1,257.46,217.434Z" transform="translate(1349.17 734.192)"/>
          <path id="路径_37486" data-name="路径 37486" d="M139.66,196.234a8.183,8.183,0,1,1,5.674-10.087A8.1,8.1,0,0,1,139.66,196.234Z" transform="translate(724.337 621.743)"/>
        </g>
      </g>
    </g>
    <path id="路径_39934" data-name="路径 39934" d="M23.14.624c8.632,0,13.468-4.108,13.468-11.388a10.265,10.265,0,0,0-3.224-7.956c-1.4-1.3-2.6-1.82-5.252-2.392A8.8,8.8,0,0,0,32.24-23.3a9.3,9.3,0,0,0,2.912-7.332c0-6.5-4.524-10.14-12.584-10.14H10.3c-3.536,0-4.368,0-6.552-.1a49.569,49.569,0,0,1,.416,6.4V-6.24A37.112,37.112,0,0,1,3.692.78c2.132-.1,3.64-.156,6.656-.156ZM11.024-23.816V-34.944H21.788a7.376,7.376,0,0,1,4.992,1.612,5.3,5.3,0,0,1,1.352,3.848c0,3.536-2.34,5.668-6.292,5.668Zm0,5.772H22.1a8.5,8.5,0,0,1,5.668,1.768,5.635,5.635,0,0,1,1.664,4.524c0,4.212-2.6,6.5-7.228,6.5H11.024ZM64.272.624h7.02a41.822,41.822,0,0,1-.416-6.5V-19.864c0-3.536-.676-5.512-2.444-7.176-2.236-2.184-5.252-3.068-10.244-3.068-4.472,0-7.384.78-9.932,2.652-1.976,1.4-2.912,2.756-4.108,5.772l6.656,1.2c.624-1.872,1.092-2.6,2.08-3.328a9.381,9.381,0,0,1,5.408-1.508c3.952,0,5.98,1.56,5.98,4.576V-18.1c-7.436.156-11.284.676-14.664,2.08a9.225,9.225,0,0,0-5.876,8.424c0,5.46,3.848,8.736,10.192,8.736A18.4,18.4,0,0,0,58.76.52a11.276,11.276,0,0,0,5.512-3.276Zm0-11.6A6.2,6.2,0,0,1,62.4-6.4,10.559,10.559,0,0,1,55.172-3.64c-2.912,0-4.732-1.508-4.732-3.952,0-4.056,3.9-5.772,13.832-5.98Zm42.38-9.776a17.308,17.308,0,0,0-1.82-3.8c-2.5-3.64-6.552-5.616-11.648-5.616a14.239,14.239,0,0,0-10.452,3.952c-2.86,2.912-4.42,7.124-4.42,12.012,0,9.62,5.928,15.808,15.08,15.808,4.94,0,8.944-1.82,11.44-5.252a14.559,14.559,0,0,0,2.184-4.42l-6.448-1.3a7.268,7.268,0,0,1-1.04,2.6,6.961,6.961,0,0,1-5.98,2.912c-5.252,0-8.476-4-8.476-10.5,0-6.448,3.172-10.452,8.268-10.452A6.542,6.542,0,0,1,98.7-22.412a9.37,9.37,0,0,1,1.612,3.172Zm7.592-20.02a47.691,47.691,0,0,1,.364,6.812v27.82a50.871,50.871,0,0,1-.364,6.76h7.332a37.646,37.646,0,0,1-.364-6.656v-3.38l4.264-4.056,5.616,8.216C133.276-2.08,133.9-1.04,134.524.624h9.256c-1.2-1.2-1.2-1.2-4.732-6.032L130.26-17.42l7.384-7.02c2.236-2.132,2.236-2.132,5.2-4.784H133.12a23.939,23.939,0,0,1-4.108,4.628l-7.8,7.748V-33.956a48.661,48.661,0,0,1,.364-6.812ZM173-37.232a59.85,59.85,0,0,1,.364,6.4v1.612h-1.924a23.884,23.884,0,0,1-4.68-.312V-23.4a26.259,26.259,0,0,1,4.628-.312h1.976V-6.24c0,5.46,2.392,7.592,8.372,7.592A16.272,16.272,0,0,0,188.24.26L187.3-5.252a6.878,6.878,0,0,1-3.8,1.144c-2.5,0-3.432-.936-3.432-3.484v-16.12h2.34a28.671,28.671,0,0,1,5.1.312v-6.136a29.875,29.875,0,0,1-5.252.312h-2.184v-1.612a57.515,57.515,0,0,1,.364-6.4ZM208.468,1.612c9.256,0,15.34-6.344,15.34-15.964s-5.98-15.756-15.392-15.756c-9.464,0-15.5,6.188-15.5,15.86C192.92-4.524,198.952,1.612,208.468,1.612ZM208.416-24.7c5.512,0,8.684,3.848,8.684,10.556C217.1-7.8,213.772-3.9,208.364-3.9s-8.736-3.952-8.736-10.348C199.628-20.748,202.956-24.7,208.416-24.7Zm45.552-12.532a59.85,59.85,0,0,1,.364,6.4v1.612h-1.924a23.884,23.884,0,0,1-4.68-.312V-23.4a26.259,26.259,0,0,1,4.628-.312h1.976V-6.24c0,5.46,2.392,7.592,8.372,7.592A16.272,16.272,0,0,0,269.2.26l-.936-5.512a6.878,6.878,0,0,1-3.8,1.144c-2.5,0-3.432-.936-3.432-3.484v-16.12h2.34a28.67,28.67,0,0,1,5.1.312v-6.136a29.875,29.875,0,0,1-5.252.312H261.04v-1.612a57.512,57.512,0,0,1,.364-6.4Zm21.216-3.536a48.659,48.659,0,0,1,.364,6.812v27.82a42.737,42.737,0,0,1-.416,6.76h7.488a46.265,46.265,0,0,1-.416-6.76v-10.5c2.34-5.2,5.356-7.7,9.256-7.7a4.828,4.828,0,0,1,3.588,1.508c.988,1.04,1.508,2.756,1.508,5.148V-6.136a55.26,55.26,0,0,1-.364,6.76h7.54a41.091,41.091,0,0,1-.416-6.76v-13.1c0-6.708-3.8-10.5-10.452-10.5-4.732,0-7.54,1.456-10.764,5.512a21.327,21.327,0,0,0,.1-2.236V-33.9a49.974,49.974,0,0,1,.364-6.864Zm65,28.184c-.1-1.2-.1-1.352-.1-1.456a21.377,21.377,0,0,0-1.508-7.9c-2.08-5.2-6.864-8.216-12.948-8.216-8.892,0-14.664,6.292-14.664,15.912,0,9.724,5.824,15.86,15.028,15.86a14.767,14.767,0,0,0,10.712-4,14.614,14.614,0,0,0,3.172-4.784l-6.136-1.976a7.557,7.557,0,0,1-1.508,2.7,8.222,8.222,0,0,1-6.24,2.6,8.173,8.173,0,0,1-6.5-2.912c-1.2-1.508-1.664-2.964-1.924-5.824ZM317.72-17.732c.78-4.368,3.744-7.072,7.8-7.072a7.416,7.416,0,0,1,5.616,2.08,8.162,8.162,0,0,1,2.288,4.992Zm76.18-3.016a17.309,17.309,0,0,0-1.82-3.8c-2.5-3.64-6.552-5.616-11.648-5.616a14.239,14.239,0,0,0-10.452,3.952c-2.86,2.912-4.42,7.124-4.42,12.012,0,9.62,5.928,15.808,15.08,15.808,4.94,0,8.944-1.82,11.44-5.252a14.559,14.559,0,0,0,2.184-4.42l-6.448-1.3a7.267,7.267,0,0,1-1.04,2.6,6.961,6.961,0,0,1-5.98,2.912c-5.252,0-8.476-4-8.476-10.5,0-6.448,3.172-10.452,8.268-10.452a6.542,6.542,0,0,1,5.356,2.392,9.371,9.371,0,0,1,1.612,3.172Zm21.788,22.36c9.256,0,15.34-6.344,15.34-15.964s-5.98-15.756-15.392-15.756c-9.464,0-15.5,6.188-15.5,15.86C400.14-4.524,406.172,1.612,415.688,1.612ZM415.636-24.7c5.512,0,8.684,3.848,8.684,10.556,0,6.344-3.328,10.244-8.736,10.244s-8.736-3.952-8.736-10.348C406.848-20.748,410.176-24.7,415.636-24.7Zm30,25.324a54.118,54.118,0,0,1-.364-6.76v-10.3a11.742,11.742,0,0,1,2.236-5.2,6.441,6.441,0,0,1,5.356-2.7c3.38,0,5.044,2.184,5.044,6.552V-6.136A42.319,42.319,0,0,1,457.5.624h7.488a50.874,50.874,0,0,1-.364-6.76v-10.3c.624-3.224,1.456-4.888,3.276-6.448a6.014,6.014,0,0,1,4.264-1.56c3.484,0,5.1,2.08,5.1,6.656V-6.136a41.1,41.1,0,0,1-.416,6.76h7.592a42.323,42.323,0,0,1-.416-6.76V-18.98c0-3.692-.728-6.032-2.444-7.9a10.262,10.262,0,0,0-7.8-2.964,11.488,11.488,0,0,0-5.824,1.352c-1.612.832-2.6,1.768-4.368,4.108a6.74,6.74,0,0,0-1.976-3.12,9.327,9.327,0,0,0-6.708-2.34c-4.316,0-8.164,2.028-9.672,5.2.052-.832.052-1.612.052-1.924v-2.652h-6.968a45.484,45.484,0,0,1,.364,6.76V-6.136a52.462,52.462,0,0,1-.364,6.76Zm54.6,0a54.118,54.118,0,0,1-.364-6.76v-10.3a11.742,11.742,0,0,1,2.236-5.2,6.441,6.441,0,0,1,5.356-2.7c3.38,0,5.044,2.184,5.044,6.552V-6.136A42.32,42.32,0,0,1,512.1.624h7.488a50.868,50.868,0,0,1-.364-6.76v-10.3c.624-3.224,1.456-4.888,3.276-6.448a6.015,6.015,0,0,1,4.264-1.56c3.484,0,5.1,2.08,5.1,6.656V-6.136a41.091,41.091,0,0,1-.416,6.76h7.592a42.319,42.319,0,0,1-.416-6.76V-18.98c0-3.692-.728-6.032-2.444-7.9a10.262,10.262,0,0,0-7.8-2.964,11.488,11.488,0,0,0-5.824,1.352c-1.612.832-2.6,1.768-4.368,4.108a6.74,6.74,0,0,0-1.976-3.12,9.327,9.327,0,0,0-6.708-2.34c-4.316,0-8.164,2.028-9.672,5.2.052-.832.052-1.612.052-1.924v-2.652h-6.968a45.484,45.484,0,0,1,.364,6.76V-6.136a52.462,52.462,0,0,1-.364,6.76Zm68.276-29.848a54.86,54.86,0,0,1,.416,6.76v10.5c-2.34,5.148-5.3,7.7-9.048,7.7a6.47,6.47,0,0,1-2.86-.728c-1.612-.988-2.392-2.912-2.392-5.928V-22.464a46.549,46.549,0,0,1,.364-6.76h-7.54a47.794,47.794,0,0,1,.416,6.76V-9.308c0,4.264,1.352,7.176,4.212,9a11.328,11.328,0,0,0,6.24,1.508c4.94,0,7.8-1.508,10.66-5.564-.052,1.3-.052,1.456-.052,2.236V.624H576a42.737,42.737,0,0,1-.416-6.76V-22.464a37.647,37.647,0,0,1,.416-6.76ZM592.072.624a46.274,46.274,0,0,1-.416-6.76v-10.5c2.288-5.148,5.356-7.748,9.1-7.748a4.891,4.891,0,0,1,4.368,2.132,8.542,8.542,0,0,1,.884,4.576V-6.136a55.26,55.26,0,0,1-.364,6.76h7.54a41.1,41.1,0,0,1-.416-6.76v-12.48c0-3.484-.52-5.564-1.768-7.28-1.872-2.548-4.836-3.848-8.84-3.848-4.68,0-7.436,1.456-10.608,5.512a20.317,20.317,0,0,0,.1-2.236v-2.756h-7.072a42.737,42.737,0,0,1,.416,6.76V-6.136a43.16,43.16,0,0,1-.416,6.76ZM621.66-40.768v6.6H629.3v-6.6Zm0,11.544a42.737,42.737,0,0,1,.416,6.76V-6.136a46.731,46.731,0,0,1-.416,6.76h7.592a52.247,52.247,0,0,1-.364-6.812V-22.412a46.749,46.749,0,0,1,.364-6.812Zm19.656-8.008a59.85,59.85,0,0,1,.364,6.4v1.612h-1.924a23.884,23.884,0,0,1-4.68-.312V-23.4a26.259,26.259,0,0,1,4.628-.312h1.976V-6.24c0,5.46,2.392,7.592,8.372,7.592a16.272,16.272,0,0,0,6.5-1.092l-.936-5.512a6.878,6.878,0,0,1-3.8,1.144c-2.5,0-3.432-.936-3.432-3.484v-16.12h2.34a28.67,28.67,0,0,1,5.1.312v-6.136a29.875,29.875,0,0,1-5.252.312h-2.184v-1.612a57.513,57.513,0,0,1,.364-6.4Zm31.1,35.776-1.768,4a4.34,4.34,0,0,1-4.056,2.6,8.63,8.63,0,0,1-3.64-.884l-1.2,5.928a26.851,26.851,0,0,0,5.46.624c4.836,0,7.9-1.82,9.568-5.772l11.856-27.82c1.56-3.64,2.5-5.772,2.808-6.448H683.7a31.1,31.1,0,0,1-1.976,6.136L675.948-8.372,669.6-23.14a30.115,30.115,0,0,1-1.976-6.084h-7.9c.624,1.144.676,1.3,2.964,6.448Zm32.4-5.512h-7.644V.624h4.368c-.052,3.224-.78,4.16-3.952,5.044l1.872,2.756c4.212-1.664,5.356-3.328,5.356-7.8ZM10.556,100.624a54.12,54.12,0,0,1-.364-6.76v-10.3a11.742,11.742,0,0,1,2.236-5.2,6.441,6.441,0,0,1,5.356-2.7c3.38,0,5.044,2.184,5.044,6.552V93.864a42.321,42.321,0,0,1-.416,6.76H29.9a50.871,50.871,0,0,1-.364-6.76v-10.3c.624-3.224,1.456-4.888,3.276-6.448a6.014,6.014,0,0,1,4.264-1.56c3.484,0,5.1,2.08,5.1,6.656V93.864a41.093,41.093,0,0,1-.416,6.76h7.592a42.32,42.32,0,0,1-.416-6.76V81.02c0-3.692-.728-6.032-2.444-7.9a10.262,10.262,0,0,0-7.8-2.964A11.488,11.488,0,0,0,32.864,71.5c-1.612.832-2.6,1.768-4.368,4.108a6.74,6.74,0,0,0-1.976-3.12,9.327,9.327,0,0,0-6.708-2.34c-4.316,0-8.164,2.028-9.672,5.2.052-.832.052-1.612.052-1.924V70.776H3.224a45.486,45.486,0,0,1,.364,6.76V93.864a52.464,52.464,0,0,1-.364,6.76Zm67.028,0H84.6a41.822,41.822,0,0,1-.416-6.5V80.136c0-3.536-.676-5.512-2.444-7.176-2.236-2.184-5.252-3.068-10.244-3.068-4.472,0-7.384.78-9.932,2.652-1.976,1.4-2.912,2.756-4.108,5.772l6.656,1.2c.624-1.872,1.092-2.6,2.08-3.328A9.381,9.381,0,0,1,71.6,74.676c3.952,0,5.98,1.56,5.98,4.576V81.9c-7.436.156-11.284.676-14.664,2.08a9.225,9.225,0,0,0-5.876,8.424c0,5.46,3.848,8.736,10.192,8.736a18.4,18.4,0,0,0,4.836-.624,11.276,11.276,0,0,0,5.512-3.276Zm0-11.6A6.2,6.2,0,0,1,75.712,93.6a10.559,10.559,0,0,1-7.228,2.756c-2.912,0-4.732-1.508-4.732-3.952,0-4.056,3.9-5.772,13.832-5.98Zm15.392-29.8a47.691,47.691,0,0,1,.364,6.812v27.82a50.871,50.871,0,0,1-.364,6.76h7.332a37.646,37.646,0,0,1-.364-6.656v-3.38l4.264-4.056,5.616,8.216c2.184,3.172,2.808,4.212,3.432,5.876h9.256c-1.2-1.2-1.2-1.2-4.732-6.032L108.992,82.58l7.384-7.02c2.236-2.132,2.236-2.132,5.2-4.784h-9.724a23.939,23.939,0,0,1-4.108,4.628l-7.8,7.748V66.044a48.661,48.661,0,0,1,.364-6.812Zm63.856,28.184c-.1-1.2-.1-1.352-.1-1.456a21.376,21.376,0,0,0-1.508-7.9c-2.08-5.2-6.864-8.216-12.948-8.216-8.892,0-14.664,6.292-14.664,15.912,0,9.724,5.824,15.86,15.028,15.86a14.767,14.767,0,0,0,10.712-4,14.614,14.614,0,0,0,3.172-4.784l-6.136-1.976a7.558,7.558,0,0,1-1.508,2.7,8.748,8.748,0,0,1-12.74-.312c-1.2-1.508-1.664-2.964-1.924-5.824Zm-22.464-5.148c.78-4.368,3.744-7.072,7.8-7.072a7.416,7.416,0,0,1,5.616,2.08,8.162,8.162,0,0,1,2.288,4.992Zm49.088-23.036v6.6H191.1v-6.6Zm0,11.544a42.739,42.739,0,0,1,.416,6.76V93.864a46.734,46.734,0,0,1-.416,6.76h7.592a52.238,52.238,0,0,1-.364-6.812V77.588a46.742,46.742,0,0,1,.364-6.812Zm19.656-8.008a59.854,59.854,0,0,1,.364,6.4v1.612h-1.924a23.884,23.884,0,0,1-4.68-.312V76.6a26.258,26.258,0,0,1,4.628-.312h1.976V93.76c0,5.46,2.392,7.592,8.372,7.592a16.272,16.272,0,0,0,6.5-1.092l-.936-5.512a6.878,6.878,0,0,1-3.8,1.144c-2.5,0-3.432-.936-3.432-3.484V76.288h2.34a28.67,28.67,0,0,1,5.1.312V70.464a29.875,29.875,0,0,1-5.252.312h-2.184V69.164a57.516,57.516,0,0,1,.364-6.4Z" transform="translate(4550 -1584)"/>
    <text id="OUR_MISSION" data-name="OUR MISSION" transform="translate(4550 -1670)" font-size="12" font-family="HiraginoSansGB-W6, Hiragino Sans GB" letter-spacing="1.6em"><tspan x="0" y="0">OUR MISSION</tspan></text>
    <g id="首页" transform="translate(5012.464 -1878.864)">
      <g id="组_21510" data-name="组 21510" transform="translate(583.544 31.321)">
        <path id="路径_37636" data-name="路径 37636" d="M911.13,51.25v14.7h-6.88V76.073" transform="translate(-830.726 -40.496)" fill="#fff" stroke="#0080f4" stroke-miterlimit="10" stroke-width="3"/>
        <path id="路径_37637" data-name="路径 37637" d="M903.273,102l-19.606,9.623,6.739,13.389" transform="translate(-821.25 -63.86)" fill="none" stroke="#0080f4" stroke-miterlimit="10" stroke-width="3"/>
        <path id="路径_37638" data-name="路径 37638" d="M863.333,126.75l7.555,6.61v36.694" transform="translate(-811.889 -75.254)" fill="none" stroke="#0080f4" stroke-miterlimit="10" stroke-width="3"/>
        <path id="路径_37639" data-name="路径 37639" d="M832,154.333l7.375,6.228v22.912" transform="translate(-797.464 -87.953)" fill="none" stroke="#000" stroke-miterlimit="10" stroke-width="3"/>
        <path id="路径_37640" data-name="路径 37640" d="M813.333,172l7.285,6.386v13.85" transform="translate(-788.87 -96.086)" fill="none" stroke="#0080f4" stroke-miterlimit="10" stroke-width="3"/>
        <path id="路径_37641" data-name="路径 37641" d="M789,185.333l6.745,6.3v6.745" transform="translate(-777.668 -102.225)" fill="none" stroke="#000" stroke-miterlimit="10" stroke-width="3"/>
        <g id="组_21509" data-name="组 21509" transform="translate(0 30.046)">
          <path id="路径_37642" data-name="路径 37642" d="M970.979,126.75l-8.229,6.341v37.324" transform="translate(-857.658 -105.3)" fill="#fff" stroke="#0080f4" stroke-miterlimit="10" stroke-width="3"/>
          <path id="路径_37643" data-name="路径 37643" d="M921,87l20.506,13.76-5.936,14.3" transform="translate(-838.438 -87)" fill="none" stroke="#0080f4" stroke-miterlimit="10" stroke-width="3"/>
          <path id="路径_37644" data-name="路径 37644" d="M1004.018,152l-8.184,6.116v23.564" transform="translate(-872.889 -116.925)" fill="none" stroke="#0c111a" stroke-miterlimit="10" stroke-width="3"/>
          <path id="路径_37645" data-name="路径 37645" d="M1022.478,169.833l-7.645,6.206v13.85" transform="translate(-881.636 -125.135)" fill="none" stroke="#0080f4" stroke-miterlimit="10" stroke-width="3"/>
          <path id="路径_37646" data-name="路径 37646" d="M1047.631,183.667l-7.465,5.4V196.8" transform="translate(-893.299 -131.503)" fill="none" stroke="#0c111a" stroke-miterlimit="10" stroke-width="3"/>
          <line id="直线_306" data-name="直线 306" x2="159.099" transform="translate(0 65.834)" fill="none" stroke="#0080f4" stroke-miterlimit="10" stroke-width="3"/>
        </g>
        <path id="路径_37647" data-name="路径 37647" d="M891,150.167h32.917v31.748" transform="translate(-824.626 -86.035)" fill="none" stroke="#0080f4" stroke-miterlimit="10" stroke-width="3"/>
        <path id="路径_37648" data-name="路径 37648" d="M912.1,169H896v21.225" transform="translate(-826.928 -94.705)" fill="none" stroke="#0c111a" stroke-miterlimit="10" stroke-width="3"/>
        <path id="路径_37649" data-name="路径 37649" d="M912,182.333h11.962v14.03" transform="translate(-834.294 -100.844)" fill="none" stroke="#0c111a" stroke-miterlimit="10" stroke-width="3"/>
        <circle id="椭圆_1659" data-name="椭圆 1659" cx="4.924" cy="4.924" r="4.924" transform="translate(75.48)" fill="none" stroke="#0080f4" stroke-miterlimit="10" stroke-width="3"/>
      </g>
      <g id="组_21512" data-name="组 21512" transform="translate(780.472 97.454)">
        <path id="路径_37650" data-name="路径 37650" d="M1199.362,182.833l9.533,10.343L1174,223.215" transform="translate(-1151.156 -167.207)" fill="none" stroke="#1a1311" stroke-miterlimit="10" stroke-width="3"/>
        <line id="直线_307" data-name="直线 307" x1="21.765" y2="19.336" transform="translate(18.347 31.366)" fill="none" stroke="#1a1311" stroke-miterlimit="10" stroke-width="3"/>
        <g id="组_21511" data-name="组 21511" transform="translate(0)">
          <path id="路径_37651" data-name="路径 37651" d="M1131.667,250.052,1145.247,238l49.915,57.74" transform="translate(-1131.667 -192.604)" fill="none" stroke="#1a1311" stroke-miterlimit="10" stroke-width="3"/>
          <path id="路径_37652" data-name="路径 37652" d="M1230.672,268.018l-7.735-8.184L1204.5,276.382" transform="translate(-1165.198 -202.656)" fill="none" stroke="#1a1311" stroke-miterlimit="10" stroke-width="3"/>
          <path id="路径_37653" data-name="路径 37653" d="M1246.122,233l5.4,21.045-26.352,23.384" transform="translate(-1174.712 -190.302)" fill="none" stroke="#1a1311" stroke-miterlimit="10" stroke-width="3"/>
          <path id="路径_37654" data-name="路径 37654" d="M1245.167,304.105l7.465-7.105,11.062,13.041" transform="translate(-1183.92 -219.766)" fill="none" stroke="#1a1311" stroke-miterlimit="10" stroke-width="3"/>
          <path id="路径_37655" data-name="路径 37655" d="M1243,316.167l9.534,9.8,2.428,21.675-11.145,8.747,16.991,23.36" transform="translate(-1182.922 -228.59)" fill="none" stroke="#1a1311" stroke-miterlimit="10" stroke-width="3"/>
          <path id="路径_37656" data-name="路径 37656" d="M1266.989,385.167l-.36,8.544-6.3,5.126" transform="translate(-1190.902 -260.356)" fill="none" stroke="#1a1311" stroke-miterlimit="10" stroke-width="3"/>
          <path id="路径_37657" data-name="路径 37657" d="M1277.364,397l-.131,8.809L1269,411.03" transform="translate(-1194.892 -265.804)" fill="none" stroke="#1a1311" stroke-miterlimit="10" stroke-width="3"/>
          <path id="路径_37658" data-name="路径 37658" d="M1429.34,169.333l-10.433,8.364,2.968,5.756-3.664,1.678" transform="translate(-1263.585 -160.992)" fill="none" stroke="#000" stroke-miterlimit="10" stroke-width="3"/>
          <path id="路径_37659" data-name="路径 37659" d="M1386.658,183.971c-.27.285-3.777,3.326-3.777,3.326l2.878,5.863-10.613,8.9L1364.8,194.6l-9.8,7.195,2.519,8.634" transform="translate(-1234.484 -167.73)" fill="none" stroke="#000" stroke-miterlimit="10" stroke-width="3"/>
          <path id="路径_37660" data-name="路径 37660" d="M1372.108,215.333l12.591,7.914-1.8,6.116-6.745,5.756-6.655-7.555" transform="translate(-1241.16 -182.169)" fill="none" stroke="#000" stroke-miterlimit="10" stroke-width="3"/>
          <line id="直线_308" data-name="直线 308" x2="9.708" y2="5.756" transform="translate(126.991 38.201)" fill="none" stroke="#000" stroke-miterlimit="10" stroke-width="3"/>
          <path id="路径_37661" data-name="路径 37661" d="M1325.106,242.079l-7.735-6.745L1276,271.308" transform="translate(-1198.114 -191.377)" fill="none" stroke="#000" stroke-miterlimit="10" stroke-width="3"/>
          <path id="路径_37662" data-name="路径 37662" d="M1311.851,257.667l-32.917,28.78L1281.9,303l-12.422.443" transform="translate(-1195.113 -201.658)" fill="none" stroke="#000" stroke-miterlimit="10" stroke-width="3"/>
          <circle id="椭圆_1660" data-name="椭圆 1660" cx="4.924" cy="4.924" r="4.924" transform="translate(165.237)" fill="none" stroke="#000" stroke-miterlimit="10" stroke-width="3"/>
        </g>
      </g>
      <g id="组_21513" data-name="组 21513" transform="translate(834.792 289.33)">
        <path id="路径_37664" data-name="路径 37664" d="M1284.495,621.152,1246.361,610l-14.033,49.095,27.074,6.846,2.069-8.364-3.777-17.987" transform="translate(-1232.328 -555.768)" fill="none" stroke="#000" stroke-miterlimit="10" stroke-width="3"/>
        <path id="路径_37665" data-name="路径 37665" d="M1253.667,627.756l49.825,14.21L1308.978,622" transform="translate(-1242.152 -561.292)" fill="none" stroke="#ef54a1" stroke-miterlimit="10" stroke-width="3"/>
        <path id="路径_37666" data-name="路径 37666" d="M1249.667,645.833l23.294,6.565,3.643,17.807" transform="translate(-1240.311 -572.265)" fill="none" stroke="#000" stroke-miterlimit="10" stroke-width="3"/>
        <path id="路径_37667" data-name="路径 37667" d="M1241,669.584l8.994,2.338-1.28-11.422" transform="translate(-1236.321 -579.017)" fill="none" stroke="#000" stroke-miterlimit="10" stroke-width="3"/>
        <path id="路径_37672" data-name="路径 37672" d="M1282.5,509.5l13.49,4.137-2.338,7.465" transform="translate(-1255.426 -509.5)" fill="none" stroke="#000" stroke-miterlimit="10" stroke-width="3"/>
        <path id="路径_37673" data-name="路径 37673" d="M1279.333,522.333l21.855,7.825-2.069,4.947" transform="translate(-1253.968 -515.408)" fill="none" stroke="#000" stroke-miterlimit="10" stroke-width="3"/>
        <g id="组_21986" data-name="组 21986">
          <path id="路径_37663" data-name="路径 37663" d="M1403.834,588l6.206,8.724,12.5-2.428,15.289,4.587" transform="translate(-1311.286 -545.64)" fill="none" stroke="#ef54a1" stroke-miterlimit="10" stroke-width="3"/>
          <path id="路径_37668" data-name="路径 37668" d="M1296,564.167,1290.784,580l-12.951-5.126" transform="translate(-1253.278 -534.667)" fill="none" stroke="#ef54a1" stroke-miterlimit="10" stroke-width="3"/>
          <path id="路径_37669" data-name="路径 37669" d="M1332.526,566.667l-6.026,20.685,23.563,5.936,9.893,10.523" transform="translate(-1275.683 -535.818)" fill="none" stroke="#ef54a1" stroke-miterlimit="10" stroke-width="3"/>
          <path id="路径_37670" data-name="路径 37670" d="M1331.667,591.5l24.463,5.171,11.422,13.715" transform="translate(-1278.061 -547.251)" fill="none" stroke="#ef54a1" stroke-miterlimit="10" stroke-width="3"/>
          <path id="路径_37671" data-name="路径 37671" d="M1336.667,576l29.589,6.475,8.634,16.189" transform="translate(-1280.363 -540.115)" fill="none" stroke="#ef54a1" stroke-miterlimit="10" stroke-width="3"/>
          <line id="直线_309" data-name="直线 309" x2="13.491" y2="3.508" transform="translate(93.987 55.042)" fill="none" stroke="#ef54a1" stroke-miterlimit="10" stroke-width="3"/>
          <path id="路径_37674" data-name="路径 37674" d="M1290.667,546l18.977,5.756-9.489,27.791" transform="translate(-1259.186 -526.304)" fill="none" stroke="#ef54a1" stroke-miterlimit="10" stroke-width="3"/>
          <line id="直线_310" data-name="直线 310" x1="3.238" y2="9.623" transform="translate(31.031 25.452)" fill="none" stroke="#ef54a1" stroke-miterlimit="10" stroke-width="3"/>
          <path id="路径_37675" data-name="路径 37675" d="M1276.428,547l-8.094,24.1,16.009,5.306" transform="translate(-1248.904 -526.764)" fill="none" stroke="#ef54a1" stroke-miterlimit="10" stroke-width="3"/>
          <circle id="椭圆_1661" data-name="椭圆 1661" cx="4.924" cy="4.924" r="4.924" transform="translate(126.005 49.915)" fill="none" stroke="#ef54a1" stroke-miterlimit="10" stroke-width="3"/>
        </g>
      </g>
      <g id="组_21514" data-name="组 21514" transform="translate(740.449 426.88)">
        <path id="路径_37676" data-name="路径 37676" d="M1092,849l25.093,29.859,22.53-13.009" transform="translate(-1073.734 -803.367)" fill="none" stroke="#000" stroke-miterlimit="10" stroke-width="3"/>
        <path id="路径_37677" data-name="路径 37677" d="M1058.15,856.617l33.376,38.52,36.024-23,5.527,10.591" transform="translate(-1058.15 -806.874)" fill="none" stroke="#000" stroke-miterlimit="10" stroke-width="3"/>
        <line id="直线_311" data-name="直线 311" y1="9.353" x2="23.384" transform="translate(46.776 76.931)" fill="none" stroke="#000" stroke-miterlimit="10" stroke-width="3"/>
        <line id="直线_312" data-name="直线 312" x2="19.013" y2="28.185" transform="translate(68.146)" fill="none" stroke="#000" stroke-miterlimit="10" stroke-width="3"/>
        <path id="路径_37678" data-name="路径 37678" d="M1176,770l26.441,41.011,6.835-3.687" transform="translate(-1112.405 -766.997)" fill="none" stroke="#000" stroke-miterlimit="10" stroke-width="3"/>
        <path id="路径_37679" data-name="路径 37679" d="M1167,775.5l29.679,44.519,7.9-3.832" transform="translate(-1108.262 -769.529)" fill="none" stroke="#000" stroke-miterlimit="10" stroke-width="3"/>
        <path id="路径_37680" data-name="路径 37680" d="M1141.52,785.4l29.089,60.85v9.893l-38.943,12.142" transform="translate(-1091.995 -774.089)" fill="none" stroke="#000" stroke-miterlimit="10" stroke-width="3"/>
        <path id="路径_37681" data-name="路径 37681" d="M1099.617,829.807l21.432-15.64,14.929,36.335" transform="translate(-1077.24 -787.331)" fill="none" stroke="#000" stroke-miterlimit="10" stroke-width="3"/>
        <path id="路径_37682" data-name="路径 37682" d="M1122.417,833.833l-14.75,8.9s17.678,21.275,17.7,21.269,8.379-5.26,8.379-5.26" transform="translate(-1080.946 -796.385)" fill="none" stroke="#000" stroke-miterlimit="10" stroke-width="3"/>
        <path id="路径_37683" data-name="路径 37683" d="M1133.253,842,1123,847.4l9.084,11.6,7.555-3.238" transform="translate(-1088.005 -800.144)" fill="none" stroke="#000" stroke-miterlimit="10" stroke-width="3"/>
        <circle id="椭圆_1662" data-name="椭圆 1662" cx="4.924" cy="4.924" r="4.924" transform="translate(29.531 91.434)" fill="none" stroke="#000" stroke-miterlimit="10" stroke-width="3"/>
      </g>
      <g id="组_21515" data-name="组 21515" transform="translate(571.548 476.92)">
        <path id="路径_37686" data-name="路径 37686" d="M788.99,898.718,794.206,864l-32.9-5.124-10.986-1.711L746,882.259l8.994.54,15.289-5.756" transform="translate(-746 -857.167)" fill="none" stroke="#0c111a" stroke-miterlimit="10" stroke-width="3"/>
        <path id="路径_37687" data-name="路径 37687" d="M772.849,862.333l-1.349,8.454,9.983-2.7" transform="translate(-757.74 -859.545)" fill="none" stroke="#000" stroke-miterlimit="10" stroke-width="3"/>
        <path id="路径_37688" data-name="路径 37688" d="M789.035,867.167l-3.328,21.315s-14.48,5.126-14.21,5.036" transform="translate(-757.737 -861.771)" fill="none" stroke="#0080f4" stroke-miterlimit="10" stroke-width="3"/>
        <path id="路径_37689" data-name="路径 37689" d="M809.959,869s-7.734,45.238-7.465,45.328,17.717,3.328,17.717,3.328" transform="translate(-772.005 -862.615)" fill="none" stroke="#0080f4" stroke-miterlimit="10" stroke-width="3"/>
        <g id="组_21987" data-name="组 21987">
          <path id="路径_37684" data-name="路径 37684" d="M877.513,881.833,863.8,969.612l-15.962-2.248" transform="translate(-792.882 -868.523)" fill="none" stroke="#0080f4" stroke-miterlimit="10" stroke-width="3"/>
          <path id="路径_37685" data-name="路径 37685" d="M869.516,879,857.1,957.965l-7.105-.9" transform="translate(-793.879 -867.218)" fill="none" stroke="#0080f4" stroke-miterlimit="10" stroke-width="3"/>
          <line id="直线_313" data-name="直线 313" x1="8.814" y2="56.031" transform="translate(59.358 10.792)" fill="none" stroke="#0080f4" stroke-miterlimit="10" stroke-width="3"/>
          <circle id="椭圆_1663" data-name="椭圆 1663" cx="4.924" cy="4.924" r="4.924" transform="translate(44.654 93.048)" fill="none" stroke="#0080f4" stroke-miterlimit="10" stroke-width="3"/>
        </g>
      </g>
      <g id="组_21517" data-name="组 21517" transform="translate(400.005 313.505)">
        <line id="直线_314" data-name="直线 314" x1="7.914" y2="4.407" transform="translate(104.819 115.853)" fill="none" stroke="#000" stroke-miterlimit="10" stroke-width="3"/>
        <g id="组_21516" data-name="组 21516">
          <line id="直线_315" data-name="直线 315" x1="32.366" y2="51.637" transform="translate(30.801)" fill="none" stroke="#000" stroke-miterlimit="10" stroke-width="3"/>
          <line id="直线_316" data-name="直线 316" x2="49.016" y2="100.64" transform="translate(58.771 27.894)" fill="none" stroke="#000" stroke-miterlimit="10" stroke-width="3"/>
          <line id="直线_317" data-name="直线 317" x1="11.242" y2="5.306" transform="translate(62.639 29.333)" fill="none" stroke="#000" stroke-miterlimit="10" stroke-width="3"/>
          <path id="路径_37690" data-name="路径 37690" d="M505.879,624.333l-39.662,18.8L461,653.833" transform="translate(-443.779 -586.546)" fill="none" stroke="#000" stroke-miterlimit="10" stroke-width="3"/>
          <path id="路径_37691" data-name="路径 37691" d="M514.318,633.167l-35.615,16.1-5.036,8.634" transform="translate(-449.611 -590.613)" fill="none" stroke="#000" stroke-miterlimit="10" stroke-width="3"/>
          <path id="路径_37692" data-name="路径 37692" d="M506.266,648.667l-42.091,20.146-16.009-2.248" transform="translate(-437.871 -597.749)" fill="none" stroke="#000" stroke-miterlimit="10" stroke-width="3"/>
          <line id="直线_318" data-name="直线 318" x2="25.092" y2="53.423" transform="translate(37.007 66.837)" fill="none" stroke="#000" stroke-miterlimit="10" stroke-width="3"/>
          <line id="直线_319" data-name="直线 319" x1="12.681" y2="6.116" transform="translate(30.441 82.036)" fill="none" stroke="#000" stroke-miterlimit="10" stroke-width="3"/>
          <line id="直线_320" data-name="直线 320" x1="13.041" y2="5.846" transform="translate(41.503 106.139)" fill="none" stroke="#000" stroke-miterlimit="10" stroke-width="3"/>
          <path id="路径_37693" data-name="路径 37693" d="M561.433,749l-45.5,20.146L509,783.058" transform="translate(-465.878 -643.94)" fill="none" stroke="#000" stroke-miterlimit="10" stroke-width="3"/>
          <path id="路径_37694" data-name="路径 37694" d="M573.407,763.5l-37.144,17.718L527,779.869" transform="translate(-474.164 -650.615)" fill="none" stroke="#000" stroke-miterlimit="10" stroke-width="3"/>
          <path id="路径_37695" data-name="路径 37695" d="M572.6,773.083l-41.191,19.292-11.242-2.608" transform="translate(-471.019 -655.027)" fill="none" stroke="#000" stroke-miterlimit="10" stroke-width="3"/>
          <line id="直线_321" data-name="直线 321" x1="60.584" y1="5.728" transform="translate(69.294 133.39)" fill="none" stroke="#000" stroke-miterlimit="10" stroke-width="3"/>
          <path id="路径_37696" data-name="路径 37696" d="M560.833,650.047,569.557,646l4.317,24.463,17.808,25-7.555,3.238" transform="translate(-489.741 -596.521)" fill="none" stroke="#000" stroke-miterlimit="10" stroke-width="3"/>
          <circle id="椭圆_1664" data-name="椭圆 1664" cx="4.924" cy="4.924" r="4.924" transform="translate(35.23 138.531)" fill="none" stroke="#000" stroke-miterlimit="10" stroke-width="3"/>
          <circle id="椭圆_1665" data-name="椭圆 1665" cx="4.924" cy="4.924" r="4.924" transform="translate(0 62.834)" fill="none" stroke="#000" stroke-miterlimit="10" stroke-width="3"/>
        </g>
      </g>
      <g id="组_21519" data-name="组 21519" transform="translate(365.917 146.929)">
        <path id="路径_37697" data-name="路径 37697" d="M622.06,346l-16.189.989L594,372.442" transform="translate(-470.921 -291.813)" fill="none" stroke="#ef54a1" stroke-miterlimit="10" stroke-width="3"/>
        <path id="路径_37698" data-name="路径 37698" d="M647.03,280.662l-31.613-15.829,3.463,14.12" transform="translate(-480.781 -254.446)" fill="none" stroke="#000" stroke-miterlimit="10" stroke-width="3"/>
        <path id="路径_37699" data-name="路径 37699" d="M659.669,269.792,637.994,259l-3.328,7.735" transform="translate(-489.643 -251.76)" fill="none" stroke="#000" stroke-miterlimit="10" stroke-width="3"/>
        <g id="组_21518" data-name="组 21518">
          <path id="路径_37700" data-name="路径 37700" d="M546.2,481.955l-21.135-10.523L523,461" transform="translate(-438.234 -344.756)" fill="none" stroke="#0c111a" stroke-miterlimit="10" stroke-width="3"/>
          <path id="路径_37701" data-name="路径 37701" d="M557.081,474.72,536,464l.9,7.914" transform="translate(-444.219 -346.137)" fill="none" stroke="#0c111a" stroke-miterlimit="10" stroke-width="3"/>
          <path id="路径_37702" data-name="路径 37702" d="M545.935,440.774l-41.1-22.125,4.317-9.983,7.825,3.418L522.191,403" transform="translate(-429.871 -318.054)" fill="none" stroke="#0c111a" stroke-miterlimit="10" stroke-width="3"/>
          <path id="路径_37703" data-name="路径 37703" d="M531.333,423.48l7.1-14.48,20.416,10.792" transform="translate(-442.071 -320.816)" fill="none" stroke="#0c111a" stroke-miterlimit="10" stroke-width="3"/>
          <path id="路径_37704" data-name="路径 37704" d="M578.853,390.268l-17.019-32.2L580.45,322" transform="translate(-456.112 -280.764)" fill="none" stroke="#0c111a" stroke-miterlimit="10" stroke-width="3"/>
          <path id="路径_37705" data-name="路径 37705" d="M574,339.962l15.649-30.489,27.881-4.047,1.169-2.788L583.713,286l-4.766,7.645" transform="translate(-461.713 -264.19)" fill="none" stroke="#0c111a" stroke-miterlimit="10" stroke-width="3"/>
          <path id="路径_37706" data-name="路径 37706" d="M590.03,278.01l-10.163-4.677-3.867,8.9" transform="translate(-462.634 -258.359)" fill="none" stroke="#0080f4" stroke-miterlimit="10" stroke-width="3"/>
          <path id="路径_37707" data-name="路径 37707" d="M594.646,344l-14.48,26.442,12.321,18.707" transform="translate(-464.552 -290.892)" fill="none" stroke="#ef54a1" stroke-miterlimit="10" stroke-width="3"/>
          <path id="路径_37708" data-name="路径 37708" d="M525.5,338.178,534.134,321l22.484,4.317" transform="translate(-439.385 -280.303)" fill="none" stroke="#ef54a1" stroke-miterlimit="10" stroke-width="3"/>
          <line id="直线_322" data-name="直线 322" x1="18.977" y2="37.774" transform="translate(99.785 41.236)" fill="none" stroke="#ef54a1" stroke-miterlimit="10" stroke-width="3"/>
          <path id="路径_37709" data-name="路径 37709" d="M544.411,357.33,532,344.109,539.645,329" transform="translate(-442.378 -283.986)" fill="none" stroke="#ef54a1" stroke-miterlimit="10" stroke-width="3"/>
          <path id="路径_37710" data-name="路径 37710" d="M479.517,302.336l-7.285,15.02-17-13.85-14.66-8.274L418,283" transform="translate(-389.895 -262.809)" fill="none" stroke="#ef54a1" stroke-miterlimit="10" stroke-width="3"/>
          <path id="路径_37711" data-name="路径 37711" d="M422.667,276.5l25.092,12.861,12.861,5.216,21.945,5.936" transform="translate(-392.043 -259.817)" fill="none" stroke="#ef54a1" stroke-miterlimit="10" stroke-width="3"/>
          <path id="路径_37712" data-name="路径 37712" d="M395.668,267.225l2.428-2.878,6.386,2.158v1.889l-3.867,5.666-9.353-4.857.929-4.851-9.023-4.288" transform="translate(-373.858 -252.25)" fill="none" stroke="#ef54a1" stroke-miterlimit="10" stroke-width="3"/>
          <circle id="椭圆_1666" data-name="椭圆 1666" cx="4.924" cy="4.924" r="4.924" fill="none" stroke="#ef54a1" stroke-miterlimit="10" stroke-width="3"/>
        </g>
      </g>
      <g id="组_21523" data-name="组 21523" transform="translate(500.451 143.678)">
        <g id="组_21522" data-name="组 21522" transform="translate(0 2.027)">
          <path id="路径_37713" data-name="路径 37713" d="M714.742,281.167l-11.962,42.99-46.947,20.056" transform="translate(-633.259 -260.751)" fill="none" stroke="#000" stroke-miterlimit="10" stroke-width="3"/>
          <line id="直线_323" data-name="直线 323" y1="14.213" x2="2.788" transform="translate(92.815 14.208)" fill="none" stroke="#000" stroke-miterlimit="10" stroke-width="3"/>
          <path id="路径_37714" data-name="路径 37714" d="M772,314.815l2.788-18.437,15.2-13.041,79.574-12.108" transform="translate(-686.739 -256.176)" fill="none" stroke="#000" stroke-miterlimit="10" stroke-width="3"/>
          <path id="路径_37715" data-name="路径 37715" d="M879.419,292l4.317,14.12-14.12,11.557L792,326.626" transform="translate(-695.947 -265.738)" fill="none" stroke="#000" stroke-miterlimit="10" stroke-width="3"/>
          <line id="直线_324" data-name="直线 324" x1="12.522" y1="28.61" transform="translate(182.821 5.746)" fill="none" stroke="#000" stroke-miterlimit="10" stroke-width="3"/>
          <path id="路径_37716" data-name="路径 37716" d="M799.458,814.871,764.679,809.8,735,787" transform="translate(-669.705 -493.625)" fill="none" stroke="#000" stroke-miterlimit="10" stroke-width="3"/>
          <path id="路径_37717" data-name="路径 37717" d="M754.37,643,732.11,617.229,654,609" transform="translate(-632.415 -411.678)" fill="none" stroke="#000" stroke-miterlimit="10" stroke-width="3"/>
          <line id="直线_325" data-name="直线 325" x2="79.034" y2="23.558" transform="translate(15.42 234.408)" fill="none" stroke="#000" stroke-miterlimit="10" stroke-width="3"/>
          <g id="组_21521" data-name="组 21521" transform="translate(40.067)">
            <g id="组_21520" data-name="组 21520" transform="translate(150.69)">
              <path id="路径_37718" data-name="路径 37718" d="M1007.478,249.92l-26.217-6.587,26.217,34.356L967.5,314.833l23.653,20.775" transform="translate(-967.5 -243.333)" fill="none" stroke="#0c111a" stroke-miterlimit="10" stroke-width="3"/>
              <path id="路径_37719" data-name="路径 37719" d="M1088.155,284.333l-15.2,5.576L1052,268.684l6.522-1.543,10.206,3.791" transform="translate(-1006.402 -254.294)" fill="none" stroke="#0c111a" stroke-miterlimit="10" stroke-width="3"/>
              <path id="路径_37720" data-name="路径 37720" d="M1146,341.174l-5.88,5.209-15.524-8.717L1112,347.02l3.777,18.347" transform="translate(-1034.024 -286.762)" fill="none" stroke="#0c111a" stroke-miterlimit="10" stroke-width="3"/>
            </g>
            <path id="路径_37721" data-name="路径 37721" d="M1059.951,350l5.576,39.392L1047,407.2" transform="translate(-853.41 -292.44)" fill="none" stroke="#000" stroke-miterlimit="10" stroke-width="3"/>
            <path id="路径_37722" data-name="路径 37722" d="M1132.245,393l-71.77,68.667L1054,496.7" transform="translate(-856.633 -312.236)" fill="none" stroke="#000" stroke-miterlimit="10" stroke-width="3"/>
            <line id="直线_326" data-name="直线 326" y1="65.474" x2="7.285" transform="translate(281.009 135.625)" fill="none" stroke="#000" stroke-miterlimit="10" stroke-width="3"/>
            <path id="路径_37723" data-name="路径 37723" d="M1158.562,422.109,1145.611,407l-10.253,10.792,3.093,49.552L1076,529.494" transform="translate(-866.761 -318.682)" fill="none" stroke="#0c111a" stroke-miterlimit="10" stroke-width="3"/>
            <path id="路径_37724" data-name="路径 37724" d="M1148.962,584l-2.7,17.268L1095,649.294" transform="translate(-875.508 -400.169)" fill="none" stroke="#000" stroke-miterlimit="10" stroke-width="3"/>
            <line id="直线_327" data-name="直线 327" x1="42.63" y2="38.043" transform="translate(234.601 225.113)" fill="none" stroke="#000" stroke-miterlimit="10" stroke-width="3"/>
            <path id="路径_37725" data-name="路径 37725" d="M1037.734,784.413l-1.484-23.743,57.6-7.42" transform="translate(-848.461 -478.087)" fill="none" stroke="#000" stroke-miterlimit="10" stroke-width="3"/>
            <path id="路径_37726" data-name="路径 37726" d="M914.294,810.873l58.39-26.621-1-16.7" transform="translate(-792.315 -484.671)" fill="none" stroke="#000" stroke-miterlimit="10" stroke-width="3"/>
            <path id="路径_37727" data-name="路径 37727" d="M966.113,733l-87.419,1.079L842,762.679" transform="translate(-759.033 -468.765)" fill="none" stroke="#000" stroke-miterlimit="10" stroke-width="3"/>
            <path id="路径_37728" data-name="路径 37728" d="M905,800.763l20.365-7.579L916.2,762" transform="translate(-788.037 -482.116)" fill="none" stroke="#000" stroke-miterlimit="10" stroke-width="3"/>
            <path id="路径_37729" data-name="路径 37729" d="M870.508,699.25l-94.434.4-41.281,36.452L688.25,715.843" transform="translate(-688.25 -453.227)" fill="none" stroke="#0c111a" stroke-miterlimit="10" stroke-width="3"/>
          </g>
          <line id="直线_328" data-name="直线 328" x2="66.907" y2="1.606" transform="translate(14.576 161.72)" fill="none" stroke="#000" stroke-miterlimit="10" stroke-width="3"/>
          <path id="路径_37730" data-name="路径 37730" d="M619,565.947l3.238-29.14L631.951,519" transform="translate(-616.302 -370.244)" fill="none" stroke="#000" stroke-miterlimit="10" stroke-width="3"/>
          <path id="路径_37731" data-name="路径 37731" d="M614,480.166l11.332-32.377,75.007-7.015L727.321,403" transform="translate(-614 -316.84)" fill="none" stroke="#0c111a" stroke-miterlimit="10" stroke-width="3"/>
          <line id="直线_329" data-name="直线 329" y1="24.733" x2="77.166" transform="translate(15.11 79.145)" fill="none" stroke="#000" stroke-miterlimit="10" stroke-width="3"/>
        </g>
        <circle id="椭圆_1667" data-name="椭圆 1667" cx="3.972" cy="3.972" r="3.972" transform="translate(14.645 82.922)" fill="none" stroke="#000" stroke-miterlimit="10" stroke-width="3"/>
        <circle id="椭圆_1668" data-name="椭圆 1668" cx="3.972" cy="3.972" r="3.972" transform="translate(92.816 7.773)" fill="none" stroke="#000" stroke-miterlimit="10" stroke-width="3"/>
        <circle id="椭圆_1669" data-name="椭圆 1669" cx="3.972" cy="3.972" r="3.972" transform="translate(177.223)" fill="none" stroke="#000" stroke-miterlimit="10" stroke-width="3"/>
        <circle id="椭圆_1670" data-name="椭圆 1670" cx="3.972" cy="3.972" r="3.972" transform="translate(253.084 16.222)" fill="none" stroke="#000" stroke-miterlimit="10" stroke-width="3"/>
        <circle id="椭圆_1671" data-name="椭圆 1671" cx="3.972" cy="3.972" r="3.972" transform="translate(269.676 80.976)" fill="none" stroke="#000" stroke-miterlimit="10" stroke-width="3"/>
        <circle id="椭圆_1672" data-name="椭圆 1672" cx="3.972" cy="3.972" r="3.972" transform="translate(325.146 129.543)" fill="none" stroke="#000" stroke-miterlimit="10" stroke-width="3"/>
        <circle id="椭圆_1673" data-name="椭圆 1673" cx="3.972" cy="3.972" r="3.972" transform="translate(285.79 272.347)" fill="none" stroke="#000" stroke-miterlimit="10" stroke-width="3"/>
        <circle id="椭圆_1674" data-name="椭圆 1674" cx="3.972" cy="3.972" r="3.972" transform="translate(162.771 273.966)" fill="none" stroke="#000" stroke-miterlimit="10" stroke-width="3"/>
        <circle id="椭圆_1675" data-name="椭圆 1675" cx="3.972" cy="3.972" r="3.972" transform="translate(32.306 258.533)" fill="none" stroke="#0c111a" stroke-miterlimit="10" stroke-width="3"/>
      </g>
      <g id="组_21524" data-name="组 21524" transform="translate(584.883 223.352)">
        <path id="路径_37732" data-name="路径 37732" d="M815.771,482.909A156.875,156.875,0,0,0,826.75,513.3c5.038,10.31,11.077,19.377,17.854,25.945s14.387,10.689,22.419,10.689c12.636,0,23.985-6.284,33.108-12.366,4.563-3.04,8.587-6.052,11.844-8.261s5.972-3.409,6.819-3.409c2.226,0,5.639,1.091,9.188,2.6s7.257,3.343,10.458,4.622a1.943,1.943,0,0,0,2.542-1.675,23.881,23.881,0,0,0-15.311-22.535,28.333,28.333,0,0,0-23.112,1.329c4.2-8.988,8.938-18.679,13.057-28.485,4.888-11.638,8.725-22.8,8.725-31.664,0-37.9-28.439-62.865-55.469-62.865-30.475,0-57.259,23.081-57.318,59.051,0,.02,0,.038,0,.057v.057a108.634,108.634,0,0,0,.462,14.851l.4,3.7c.557,4.526,1.291,9.14,2.312,13.751Z" transform="translate(-789.358 -387.225)" fill="none" stroke="#1a1311" stroke-miterlimit="10" stroke-width="3"/>
        <path id="路径_37733" data-name="路径 37733" d="M795.868,541.837c-5.019-.7-9.777,1.407-14.1,3.178-2.513,1.028-4.717,1.731-5.835,1.677-2.627-1.627-2.026-4.972-.867-7.164a20.054,20.054,0,0,1,4.68-5.49c4.338-2.884,9.261-5.583,13.81-5.952l-.4-3.7a28.529,28.529,0,0,0-15.774,6.817,23.281,23.281,0,0,0-5.547,6.529c-2.263,5.033-2.086,11.074,3.929,12.656,2.463.117,4.882-.914,7.453-1.965,4.266-1.58,9.589-4.416,13.693-2.369Z" transform="translate(-770.493 -450.372)" fill="#070203"/>
        <path id="路径_37734" data-name="路径 37734" d="M926.6,466.356a1.95,1.95,0,0,1-2.89,1.5c-2.3-1.533-6.166-2.426-10.053-2.426s-7.812.893-10.112,2.426a1.948,1.948,0,0,1-2.831-1.5c0-5.65.414-12.262,2.138-17.682,1.6-4.946,4.763-9.509,10.805-10.053,4.941.094,8.25,5.357,10.053,10a54.493,54.493,0,0,1,2.89,17.739" transform="translate(-830.443 -410.887)" fill="#070203"/>
        <path id="路径_37735" data-name="路径 37735" d="M838.443,467.857a1.949,1.949,0,0,1-2.833-1.5c0-5.65.414-12.262,2.137-17.682,1.6-4.946,4.763-9.509,10.805-10.053,4.941.094,8.25,5.357,10.055,10a54.523,54.523,0,0,1,2.888,17.739,1.949,1.949,0,0,1-2.888,1.5c-2.3-1.533-6.168-2.426-10.055-2.426S840.741,466.324,838.443,467.857Z" transform="translate(-800.471 -410.887)" fill="#070203"/>
        <path id="路径_37736" data-name="路径 37736" d="M906.6,532.8c-10.5-7.877-21.591-6.544-30.161-2.368A33.552,33.552,0,0,0,866.212,538c-2.4,2.8-4.576,6.832-.462,8.957a19.526,19.526,0,0,0,6.531-.347c6.129-1.025,12.381-2.084,18.142,1.791l-2.311,2.888c-3.942-3.049-10.142-1.81-15.2-1.039-2.807.468-5.519.937-8.03.346-8.06-2.1-5-10.7-1.444-15.023a36.827,36.827,0,0,1,11.382-8.435c11.452-5.484,23.09-4.678,34.032,2.716Z" transform="translate(-811.602 -449.996)" fill="#070203"/>
      </g>
    </g>
    <path id="路径_39935" data-name="路径 39935" d="M250.588,100.624V98.076c0-.624,0-1.2-.052-1.872,2.6,3.64,5.564,5.148,10.348,5.148q6.318,0,9.984-3.744c2.808-2.912,4.264-7.072,4.264-12.168,0-9.672-5.148-15.34-13.884-15.34-4.784,0-8.008,1.612-10.712,5.252.052-1.768.1-3.068.1-3.9v-5.2a53,53,0,0,1,.364-7.02h-7.332a60.64,60.64,0,0,1,.364,6.968V93.6a54.588,54.588,0,0,1-.364,7.02ZM268.372,85.44c0,6.292-3.38,10.348-8.632,10.348a9.059,9.059,0,0,1-5.46-1.924c-2.08-1.664-3.432-4.94-3.432-8.216A11.2,11.2,0,0,1,253.4,78.42a9.279,9.279,0,0,1,7.072-2.86C265.252,75.56,268.372,79.46,268.372,85.44Zm42.068,1.976c-.1-1.2-.1-1.352-.1-1.456a21.377,21.377,0,0,0-1.508-7.9c-2.08-5.2-6.864-8.216-12.948-8.216-8.892,0-14.664,6.292-14.664,15.912,0,9.724,5.824,15.86,15.028,15.86a14.767,14.767,0,0,0,10.712-4,14.614,14.614,0,0,0,3.172-4.784l-6.136-1.976a7.558,7.558,0,0,1-1.508,2.7,8.748,8.748,0,0,1-12.74-.312c-1.2-1.508-1.664-2.964-1.924-5.824Zm-22.464-5.148c.78-4.368,3.744-7.072,7.8-7.072a7.416,7.416,0,0,1,5.616,2.08,8.162,8.162,0,0,1,2.288,4.992Zm33.176-19.5a59.859,59.859,0,0,1,.364,6.4v1.612h-1.924a23.884,23.884,0,0,1-4.68-.312V76.6a26.259,26.259,0,0,1,4.628-.312h1.976V93.76c0,5.46,2.392,7.592,8.372,7.592a16.272,16.272,0,0,0,6.5-1.092l-.936-5.512a6.878,6.878,0,0,1-3.8,1.144c-2.5,0-3.432-.936-3.432-3.484V76.288h2.34a28.67,28.67,0,0,1,5.1.312V70.464a29.875,29.875,0,0,1-5.252.312h-2.184V69.164a57.512,57.512,0,0,1,.364-6.4Zm24.648,0a59.859,59.859,0,0,1,.364,6.4v1.612H344.24a23.884,23.884,0,0,1-4.68-.312V76.6a26.259,26.259,0,0,1,4.628-.312h1.976V93.76c0,5.46,2.392,7.592,8.372,7.592a16.272,16.272,0,0,0,6.5-1.092l-.936-5.512a6.878,6.878,0,0,1-3.8,1.144c-2.5,0-3.432-.936-3.432-3.484V76.288h2.34a28.67,28.67,0,0,1,5.1.312V70.464a29.875,29.875,0,0,1-5.252.312h-2.184V69.164a57.512,57.512,0,0,1,.364-6.4Zm49.14,24.648c-.1-1.2-.1-1.352-.1-1.456a21.377,21.377,0,0,0-1.508-7.9c-2.08-5.2-6.864-8.216-12.948-8.216-8.892,0-14.664,6.292-14.664,15.912,0,9.724,5.824,15.86,15.028,15.86a14.767,14.767,0,0,0,10.712-4,14.614,14.614,0,0,0,3.172-4.784l-6.136-1.976a7.558,7.558,0,0,1-1.508,2.7,8.748,8.748,0,0,1-12.74-.312c-1.2-1.508-1.664-2.964-1.924-5.824Zm-22.464-5.148c.78-4.368,3.744-7.072,7.8-7.072a7.416,7.416,0,0,1,5.616,2.08,8.162,8.162,0,0,1,2.288,4.992Zm51.48-11.492a26.961,26.961,0,0,0-4.836-.572c-4.68,0-7.9,1.768-9.776,5.46V70.776h-7.072a41.11,41.11,0,0,1,.364,6.76V93.864a57.034,57.034,0,0,1-.364,6.76h7.436a54.685,54.685,0,0,1-.364-6.76v-9.62a8.37,8.37,0,0,1,2.132-5.2,7.422,7.422,0,0,1,6.032-2.548,15.529,15.529,0,0,1,4.628.832Z" transform="translate(4550 -1584)" fill="#0080f4"/>
  </g>
</svg>
