<svg xmlns="http://www.w3.org/2000/svg" xmlns:xlink="http://www.w3.org/1999/xlink" width="1820" height="880" viewBox="0 0 1820 880">
  <defs>
    <clipPath id="clip-path">
      <rect id="矩形_2723" data-name="矩形 2723" width="1820" height="880" fill="#fff"/>
    </clipPath>
    <clipPath id="clip-path-2">
      <rect id="矩形_2279" data-name="矩形 2279" width="1820" height="880" transform="translate(50 160)" fill="#fff"/>
    </clipPath>
  </defs>
  <g id="秘密_CN" transform="translate(-2315 1169)">
    <g id="NAV_bg" transform="translate(2315 -1169)" clip-path="url(#clip-path)">
      <g id="组_22050" data-name="组 22050" transform="translate(-50 27)" opacity="0.05">
        <g id="组_22048" data-name="组 22048" transform="translate(0 7.733)">
          <g id="组_21990" data-name="组 21990" transform="translate(496.006 224.522)">
            <g id="组_21988" data-name="组 21988" transform="translate(0 0)">
              <rect id="矩形_2697" data-name="矩形 2697" width="472.183" height="1.891" transform="translate(0 84.71) rotate(-10.335)"/>
            </g>
            <g id="组_21989" data-name="组 21989" transform="translate(0 0)">
              <rect id="矩形_2698" data-name="矩形 2698" width="472.183" height="1.891" transform="translate(0 84.71) rotate(-10.335)"/>
            </g>
          </g>
          <g id="组_21994" data-name="组 21994" transform="translate(496.139 32.308)">
            <g id="组_21991" data-name="组 21991" transform="translate(464.098 0.366)">
              <rect id="矩形_2699" data-name="矩形 2699" width="192.908" height="1.261" transform="matrix(0.063, -0.998, 0.998, 0.063, 0, 192.522)"/>
            </g>
            <g id="组_21992" data-name="组 21992" transform="translate(0)">
              <path id="路径_39936" data-name="路径 39936" d="M63.23,337.945l-.63-1.261L538.566,59.3l1.261,1.261Z" transform="translate(-62.6 -59.3)"/>
            </g>
            <g id="组_21993" data-name="组 21993" transform="translate(0)">
              <path id="路径_39937" data-name="路径 39937" d="M63.23,337.945l-.63-1.261L538.566,59.3l1.261,1.261Z" transform="translate(-62.6 -59.3)"/>
            </g>
          </g>
          <g id="组_21999" data-name="组 21999" transform="translate(495.837 32.165)">
            <g id="组_21995" data-name="组 21995" transform="translate(326.765 0)">
              <rect id="矩形_2700" data-name="矩形 2700" width="182.191" height="1.261" transform="translate(0 104.013) rotate(-34.814)"/>
            </g>
            <g id="组_21996" data-name="组 21996" transform="translate(327.17 104.435)">
              <rect id="矩形_2701" data-name="矩形 2701" width="1.261" height="163.278" transform="matrix(0.54, -0.841, 0.841, 0.54, 0, 1.061)"/>
            </g>
            <g id="组_21997" data-name="组 21997" transform="translate(0 103.907)">
              <rect id="矩形_2702" data-name="矩形 2702" width="370.055" height="1.261" transform="translate(0 173.556) rotate(-27.969)"/>
            </g>
            <g id="组_21998" data-name="组 21998" transform="translate(0 103.907)">
              <rect id="矩形_2703" data-name="矩形 2703" width="370.055" height="1.261" transform="translate(0 173.556) rotate(-27.969)"/>
            </g>
          </g>
          <g id="组_22002" data-name="组 22002" transform="translate(0 309.692)">
            <g id="组_22000" data-name="组 22000">
              <path id="路径_39938" data-name="路径 39938" d="M-16.1,576.113,480.669,104.561l-.63-1.261L-16.1,574.222Z" transform="translate(16.1 -103.3)"/>
            </g>
            <g id="组_22001" data-name="组 22001">
              <path id="路径_39939" data-name="路径 39939" d="M-16.1,576.113,480.669,104.561l-.63-1.261L-16.1,574.222Z" transform="translate(16.1 -103.3)"/>
            </g>
          </g>
          <g id="组_22009" data-name="组 22009" transform="translate(0 136.327)">
            <g id="组_22003" data-name="组 22003" transform="translate(0 127.344)">
              <path id="路径_39940" data-name="路径 39940" d="M-16.1,493.163,55.768,96H53.876L-16.1,484.337Z" transform="translate(16.1 -96)"/>
            </g>
            <g id="组_22004" data-name="组 22004" transform="translate(0 115.366)">
              <path id="路径_39941" data-name="路径 39941" d="M-16.1,94.1v1.261l70.607,11.347.63-1.261Z" transform="translate(16.1 -94.1)"/>
            </g>
            <g id="组_22005" data-name="组 22005" transform="translate(70.607)">
              <path id="路径_39942" data-name="路径 39942" d="M-4.27,203.775l-.63-1.261L747.819,75.8v1.261Z" transform="translate(4.9 -75.8)"/>
            </g>
            <g id="组_22006" data-name="组 22006" transform="translate(0 126.714)">
              <path id="路径_39943" data-name="路径 39943" d="M-16.1,143.181,55.137,97.161l-.63-1.261L-16.1,141.29Z" transform="translate(16.1 -95.9)"/>
            </g>
            <g id="组_22007" data-name="组 22007" transform="translate(71.065 126.796)">
              <rect id="矩形_2704" data-name="矩形 2704" width="1.261" height="428.054" transform="translate(0 1.253) rotate(-83.754)"/>
            </g>
            <g id="组_22008" data-name="组 22008" transform="translate(71.065 126.796)">
              <rect id="矩形_2705" data-name="矩形 2705" width="1.261" height="428.054" transform="translate(0 1.253) rotate(-83.754)"/>
            </g>
          </g>
          <g id="组_22015" data-name="组 22015" transform="translate(495.939 33.135)">
            <g id="组_22010" data-name="组 22010" transform="translate(326.126 103.822)">
              <path id="路径_39944" data-name="路径 39944" d="M215.8,741.621,114.3,75.9h1.891L217.058,741.621Z" transform="translate(-114.3 -75.9)"/>
            </g>
            <g id="组_22011" data-name="组 22011" transform="translate(427.475 0)">
              <rect id="矩形_2706" data-name="矩形 2706" width="771.001" height="1.261" transform="translate(0 769.459) rotate(-86.406)"/>
            </g>
            <g id="组_22012" data-name="组 22012" transform="translate(427.648 192.686)">
              <rect id="矩形_2707" data-name="矩形 2707" width="578.093" height="1.261" transform="translate(0 576.937) rotate(-86.392)"/>
            </g>
            <g id="组_22013" data-name="组 22013" transform="translate(0 276.653)">
              <rect id="矩形_2708" data-name="矩形 2708" width="1.261" height="652.483" transform="matrix(0.755, -0.656, 0.656, 0.755, 0, 0.827)"/>
            </g>
            <g id="组_22014" data-name="组 22014" transform="translate(0 276.653)">
              <rect id="矩形_2709" data-name="矩形 2709" width="1.261" height="652.483" transform="matrix(0.755, -0.656, 0.656, 0.755, 0, 0.827)"/>
            </g>
          </g>
          <g id="组_22023" data-name="组 22023" transform="translate(0 136.728)">
            <g id="组_22016" data-name="组 22016" transform="translate(529.871 665.909)">
              <rect id="矩形_2710" data-name="矩形 2710" width="404.098" height="1.891" transform="matrix(0.976, -0.219, 0.219, 0.976, 0, 88.336)"/>
            </g>
            <g id="组_22017" data-name="组 22017" transform="translate(69.976 126.313)">
              <path id="路径_39945" data-name="路径 39945" d="M454.575,725.688-5,97.161-3.739,95.9,455.836,725.057Z" transform="translate(5 -95.9)"/>
            </g>
            <g id="组_22018" data-name="组 22018" transform="translate(0 674.146)">
              <path id="路径_39946" data-name="路径 39946" d="M-16.1,182.8v1.261l530.182,81.324v-1.891Z" transform="translate(16.1 -182.8)"/>
            </g>
            <g id="组_22019" data-name="组 22019" transform="translate(529.561)">
              <rect id="矩形_2711" data-name="矩形 2711" width="810.087" height="1.891" transform="translate(0 755.406) rotate(-68.826)"/>
            </g>
            <g id="组_22020" data-name="组 22020" transform="translate(529.551 88.488)">
              <path id="路径_39947" data-name="路径 39947" d="M69.161,757.513l-1.261-.63L498.476,89.9l1.261.63Z" transform="translate(-67.9 -89.9)"/>
            </g>
            <g id="组_22021" data-name="组 22021" transform="translate(495.627 173.374)">
              <rect id="矩形_2712" data-name="矩形 2712" width="1.891" height="583.137" transform="matrix(0.998, -0.058, 0.058, 0.998, 0, 0.11)"/>
            </g>
            <g id="组_22022" data-name="组 22022" transform="translate(495.627 173.374)">
              <rect id="矩形_2713" data-name="矩形 2713" width="1.891" height="583.137" transform="matrix(0.998, -0.058, 0.058, 0.998, 0, 0.11)"/>
            </g>
          </g>
          <g id="组_22028" data-name="组 22028" transform="translate(822.695 0)">
            <g id="组_22024" data-name="组 22024" transform="translate(552.246 0.157)">
              <path id="路径_39948" data-name="路径 39948" d="M793.962,371.3,202.63,54.2,202,55.461l591.962,317.1Z" transform="translate(-202 -54.2)"/>
            </g>
            <g id="组_22025" data-name="组 22025" transform="translate(0 0.157)">
              <path id="路径_39949" data-name="路径 39949" d="M115.03,191.631l-.63-1.261L666.646,54.2l.63,1.261Z" transform="translate(-114.4 -54.2)"/>
            </g>
            <g id="组_22026" data-name="组 22026" transform="translate(150.039 0.157)">
              <path id="路径_39950" data-name="路径 39950" d="M138.2,87.612V86.351L540.407,54.2l.63,1.261Z" transform="translate(-138.2 -54.2)"/>
            </g>
            <g id="组_22027" data-name="组 22027" transform="translate(137.898)">
              <rect id="矩形_2714" data-name="矩形 2714" width="471.553" height="1.261" transform="matrix(0.879, -0.477, 0.477, 0.879, 0, 224.789)"/>
            </g>
          </g>
          <g id="组_22031" data-name="组 22031" transform="translate(924.193 225.193)">
            <g id="组_22029" data-name="组 22029" transform="translate(0 576.855)">
              <path id="路径_39951" data-name="路径 39951" d="M572.423,284.789,130.5,182.661V181.4L572.423,282.9Z" transform="translate(-130.5 -181.4)"/>
            </g>
            <g id="组_22030" data-name="组 22030" transform="translate(35.844 0)">
              <rect id="矩形_2715" data-name="矩形 2715" width="1.891" height="791.175" transform="translate(0 0.97) rotate(-30.843)"/>
            </g>
          </g>
          <g id="组_22039" data-name="组 22039" transform="translate(822.695 0.025)">
            <g id="组_22032" data-name="组 22032" transform="translate(542.664 534.601)">
              <rect id="矩形_2716" data-name="矩形 2716" width="398.424" height="1.891" transform="matrix(0.374, -0.927, 0.927, 0.374, 0, 369.459)"/>
            </g>
            <g id="组_22033" data-name="组 22033" transform="translate(551.651 0)">
              <rect id="矩形_2717" data-name="矩形 2717" width="1.891" height="552.246" transform="matrix(0.967, -0.253, 0.253, 0.967, 0, 0.479)"/>
            </g>
            <g id="组_22034" data-name="组 22034" transform="translate(692.199 393.513)">
              <path id="路径_39952" data-name="路径 39952" d="M676.21,116.6,224.2,257.183v1.261L676.21,118.491Z" transform="translate(-224.2 -116.6)"/>
            </g>
            <g id="组_22035" data-name="组 22035" transform="translate(101.262 533.511)">
              <rect id="矩形_2718" data-name="矩形 2718" width="648.7" height="1.261" transform="translate(0 268.627) rotate(-24.463)"/>
            </g>
            <g id="组_22036" data-name="组 22036" transform="translate(0 136.302)">
              <path id="路径_39953" data-name="路径 39953" d="M805.968,474.855,114.4,77.061l.63-1.261,692.2,397.794Z" transform="translate(-114.4 -75.8)"/>
            </g>
            <g id="组_22037" data-name="组 22037" transform="translate(149.585 32.046)">
              <rect id="矩形_2719" data-name="矩形 2719" width="1.891" height="738.85" transform="translate(0 1.388) rotate(-47.229)"/>
            </g>
            <g id="组_22038" data-name="组 22038" transform="translate(137.402 224.553)">
              <rect id="矩形_2720" data-name="矩形 2720" width="1.891" height="634.831" transform="translate(0 1.652) rotate(-60.849)"/>
            </g>
          </g>
          <g id="组_22041" data-name="组 22041" transform="translate(1514.894 534.12)">
            <g id="组_22040" data-name="组 22040">
              <path id="路径_39954" data-name="路径 39954" d="M676.21,256.788,224.2,138.9v1.261L676.21,258.679Z" transform="translate(-224.2 -138.9)"/>
            </g>
          </g>
          <g id="组_22047" data-name="组 22047" transform="translate(924.091 497.556)">
            <g id="组_22042" data-name="组 22042" transform="translate(742.734 341.056)">
              <path id="路径_39955" data-name="路径 39955" d="M548.379,187.2,248.3,283.654l.63,1.891,299.448-96.454Z" transform="translate(-248.3 -187.2)"/>
            </g>
            <g id="组_22043" data-name="组 22043" transform="translate(590.173 36.564)">
              <path id="路径_39956" data-name="路径 39956" d="M376.661,541.107,224.1,139.531l1.261-.631L377.922,540.476Z" transform="translate(-224.1 -138.9)"/>
            </g>
            <g id="组_22044" data-name="组 22044" transform="translate(441.745 405.549)">
              <rect id="矩形_2721" data-name="矩形 2721" width="1.891" height="302.601" transform="translate(0 1.881) rotate(-83.996)"/>
            </g>
            <g id="组_22045" data-name="组 22045" transform="translate(742.734)">
              <path id="路径_39957" data-name="路径 39957" d="M548.379,133.1,248.3,571.241l1.261.63L548.379,135.622Z" transform="translate(-248.3 -133.1)"/>
            </g>
            <g id="组_22046" data-name="组 22046" transform="translate(0 304.675)">
              <rect id="矩形_2722" data-name="矩形 2722" width="1.261" height="754.61" transform="translate(0 1.241) rotate(-79.81)"/>
            </g>
          </g>
        </g>
        <g id="组_22049" data-name="组 22049" transform="translate(62.717)">
          <path id="路径_39958" data-name="路径 39958" d="M71.76,118.234a8.183,8.183,0,1,1,5.674-10.087C78.694,111.929,76.173,116.973,71.76,118.234Z" transform="translate(364.184 208.017)"/>
          <path id="路径_39959" data-name="路径 39959" d="M145.46,104.734a8.183,8.183,0,1,1,5.674-10.087C151.764,99.06,149.242,103.473,145.46,104.734Z" transform="translate(755.102 136.411)"/>
          <path id="路径_39960" data-name="路径 39960" d="M71.76,118.234a8.183,8.183,0,1,1,5.674-10.087C78.694,111.929,76.173,116.973,71.76,118.234Z" transform="translate(364.184 208.017)"/>
          <path id="路径_39961" data-name="路径 39961" d="M145.46,104.734a8.183,8.183,0,1,1,5.674-10.087C151.764,99.06,149.242,103.473,145.46,104.734Z" transform="translate(755.102 136.411)"/>
          <path id="路径_39962" data-name="路径 39962" d="M145.46,104.734a8.183,8.183,0,1,1,5.674-10.087C151.764,99.06,149.242,103.473,145.46,104.734Z" transform="translate(755.102 136.411)"/>
          <path id="路径_39963" data-name="路径 39963" d="M147.36,74.234a8.183,8.183,0,1,1,5.674-10.087C154.294,67.929,151.773,72.973,147.36,74.234Z" transform="translate(765.18 -25.367)"/>
          <path id="路径_39964" data-name="路径 39964" d="M71.76,118.234a8.183,8.183,0,1,1,5.674-10.087C78.694,111.929,76.173,116.973,71.76,118.234Z" transform="translate(364.184 208.017)"/>
          <path id="路径_39965" data-name="路径 39965" d="M147.36,74.234a8.183,8.183,0,1,1,5.674-10.087C154.294,67.929,151.773,72.973,147.36,74.234Z" transform="translate(765.18 -25.367)"/>
          <path id="路径_39966" data-name="路径 39966" d="M71.76,118.234a8.183,8.183,0,1,1,5.674-10.087C78.694,111.929,76.173,116.973,71.76,118.234Z" transform="translate(364.184 208.017)"/>
          <path id="路径_39967" data-name="路径 39967" d="M147.36,74.234a8.183,8.183,0,1,1,5.674-10.087C154.294,67.929,151.773,72.973,147.36,74.234Z" transform="translate(765.18 -25.367)"/>
          <path id="路径_39968" data-name="路径 39968" d="M147.36,74.234a8.183,8.183,0,1,1,5.674-10.087C154.294,67.929,151.773,72.973,147.36,74.234Z" transform="translate(765.18 -25.367)"/>
          <path id="路径_39969" data-name="路径 39969" d="M123.56,90.734a8.183,8.183,0,1,1,5.674-10.087C130.494,84.429,127.973,89.473,123.56,90.734Z" transform="translate(638.94 62.152)"/>
          <path id="路径_39970" data-name="路径 39970" d="M145.46,104.734a8.183,8.183,0,1,1,5.674-10.087C151.764,99.06,149.242,103.473,145.46,104.734Z" transform="translate(755.102 136.411)"/>
          <path id="路径_39971" data-name="路径 39971" d="M123.56,90.734a8.183,8.183,0,1,1,5.674-10.087C130.494,84.429,127.973,89.473,123.56,90.734Z" transform="translate(638.94 62.152)"/>
          <path id="路径_39972" data-name="路径 39972" d="M71.76,118.234a8.183,8.183,0,1,1,5.674-10.087C78.694,111.929,76.173,116.973,71.76,118.234Z" transform="translate(364.184 208.017)"/>
          <path id="路径_39973" data-name="路径 39973" d="M123.56,90.734a8.183,8.183,0,1,1,5.674-10.087C130.494,84.429,127.973,89.473,123.56,90.734Z" transform="translate(638.94 62.152)"/>
          <path id="路径_39974" data-name="路径 39974" d="M71.76,118.234a8.183,8.183,0,1,1,5.674-10.087C78.694,111.929,76.173,116.973,71.76,118.234Z" transform="translate(364.184 208.017)"/>
          <path id="路径_39975" data-name="路径 39975" d="M123.56,90.734a8.183,8.183,0,1,1,5.674-10.087C130.494,84.429,127.973,89.473,123.56,90.734Z" transform="translate(638.94 62.152)"/>
          <path id="路径_39976" data-name="路径 39976" d="M71.76,118.234a8.183,8.183,0,1,1,5.674-10.087C78.694,111.929,76.173,116.973,71.76,118.234Z" transform="translate(364.184 208.017)"/>
          <path id="路径_39977" data-name="路径 39977" d="M71.76,118.234a8.183,8.183,0,1,1,5.674-10.087C78.694,111.929,76.173,116.973,71.76,118.234Z" transform="translate(364.184 208.017)"/>
          <path id="路径_39978" data-name="路径 39978" d="M4.26,110.834A8.1,8.1,0,0,1-5.827,105.16,8.1,8.1,0,0,1-.153,95.073a8.1,8.1,0,0,1,10.087,5.674C11.194,104.529,8.673,109.573,4.26,110.834Z" transform="translate(6.151 168.766)"/>
          <path id="路径_39979" data-name="路径 39979" d="M4.26,110.834A8.1,8.1,0,0,1-5.827,105.16,8.1,8.1,0,0,1-.153,95.073a8.1,8.1,0,0,1,10.087,5.674C11.194,104.529,8.673,109.573,4.26,110.834Z" transform="translate(6.151 168.766)"/>
          <path id="路径_39980" data-name="路径 39980" d="M123.56,90.734a8.183,8.183,0,1,1,5.674-10.087C130.494,84.429,127.973,89.473,123.56,90.734Z" transform="translate(638.94 62.152)"/>
          <path id="路径_39981" data-name="路径 39981" d="M4.26,110.834A8.1,8.1,0,0,1-5.827,105.16,8.1,8.1,0,0,1-.153,95.073a8.1,8.1,0,0,1,10.087,5.674C11.194,104.529,8.673,109.573,4.26,110.834Z" transform="translate(6.151 168.766)"/>
          <path id="路径_39982" data-name="路径 39982" d="M4.26,110.834A8.1,8.1,0,0,1-5.827,105.16,8.1,8.1,0,0,1-.153,95.073a8.1,8.1,0,0,1,10.087,5.674C11.194,104.529,8.673,109.573,4.26,110.834Z" transform="translate(6.151 168.766)"/>
          <path id="路径_39983" data-name="路径 39983" d="M71.76,118.234a8.183,8.183,0,1,1,5.674-10.087C78.694,111.929,76.173,116.973,71.76,118.234Z" transform="translate(364.184 208.017)"/>
          <path id="路径_39984" data-name="路径 39984" d="M4.26,110.834A8.1,8.1,0,0,1-5.827,105.16,8.1,8.1,0,0,1-.153,95.073a8.1,8.1,0,0,1,10.087,5.674C11.194,104.529,8.673,109.573,4.26,110.834Z" transform="translate(6.151 168.766)"/>
          <path id="路径_39985" data-name="路径 39985" d="M71.76,118.234a8.183,8.183,0,1,1,5.674-10.087C78.694,111.929,76.173,116.973,71.76,118.234Z" transform="translate(364.184 208.017)"/>
          <path id="路径_39986" data-name="路径 39986" d="M4.26,110.834A8.1,8.1,0,0,1-5.827,105.16,8.1,8.1,0,0,1-.153,95.073a8.1,8.1,0,0,1,10.087,5.674C11.194,104.529,8.673,109.573,4.26,110.834Z" transform="translate(6.151 168.766)"/>
          <path id="路径_39987" data-name="路径 39987" d="M123.56,90.734a8.183,8.183,0,1,1,5.674-10.087C130.494,84.429,127.973,89.473,123.56,90.734Z" transform="translate(638.94 62.152)"/>
          <path id="路径_39988" data-name="路径 39988" d="M139.66,196.234a8.183,8.183,0,1,1,5.674-10.087A8.1,8.1,0,0,1,139.66,196.234Z" transform="translate(724.337 621.743)"/>
          <path id="路径_39989" data-name="路径 39989" d="M147.36,74.234a8.183,8.183,0,1,1,5.674-10.087C154.294,67.929,151.773,72.973,147.36,74.234Z" transform="translate(765.18 -25.367)"/>
          <path id="路径_39990" data-name="路径 39990" d="M139.66,196.234a8.183,8.183,0,1,1,5.674-10.087A8.1,8.1,0,0,1,139.66,196.234Z" transform="translate(724.337 621.743)"/>
          <path id="路径_39991" data-name="路径 39991" d="M145.46,104.734a8.183,8.183,0,1,1,5.674-10.087C151.764,99.06,149.242,103.473,145.46,104.734Z" transform="translate(755.102 136.411)"/>
          <path id="路径_39992" data-name="路径 39992" d="M139.66,196.234a8.183,8.183,0,1,1,5.674-10.087A8.1,8.1,0,0,1,139.66,196.234Z" transform="translate(724.337 621.743)"/>
          <path id="路径_39993" data-name="路径 39993" d="M71.76,118.234a8.183,8.183,0,1,1,5.674-10.087C78.694,111.929,76.173,116.973,71.76,118.234Z" transform="translate(364.184 208.017)"/>
          <path id="路径_39994" data-name="路径 39994" d="M139.66,196.234a8.183,8.183,0,1,1,5.674-10.087A8.1,8.1,0,0,1,139.66,196.234Z" transform="translate(724.337 621.743)"/>
          <path id="路径_39995" data-name="路径 39995" d="M71.76,118.234a8.183,8.183,0,1,1,5.674-10.087C78.694,111.929,76.173,116.973,71.76,118.234Z" transform="translate(364.184 208.017)"/>
          <path id="路径_39996" data-name="路径 39996" d="M139.66,196.234a8.183,8.183,0,1,1,5.674-10.087A8.1,8.1,0,0,1,139.66,196.234Z" transform="translate(724.337 621.743)"/>
          <path id="路径_39997" data-name="路径 39997" d="M139.66,196.234a8.183,8.183,0,1,1,5.674-10.087A8.1,8.1,0,0,1,139.66,196.234Z" transform="translate(724.337 621.743)"/>
          <path id="路径_39998" data-name="路径 39998" d="M77.16,210.534a8.183,8.183,0,1,1,5.674-10.087A8.1,8.1,0,0,1,77.16,210.534Z" transform="translate(392.826 697.593)"/>
          <path id="路径_39999" data-name="路径 39999" d="M4.26,110.834A8.1,8.1,0,0,1-5.827,105.16,8.1,8.1,0,0,1-.153,95.073a8.1,8.1,0,0,1,10.087,5.674C11.194,104.529,8.673,109.573,4.26,110.834Z" transform="translate(6.151 168.766)"/>
          <path id="路径_40000" data-name="路径 40000" d="M77.16,210.534a8.183,8.183,0,1,1,5.674-10.087A8.1,8.1,0,0,1,77.16,210.534Z" transform="translate(392.826 697.593)"/>
          <path id="路径_40001" data-name="路径 40001" d="M77.16,210.534a8.183,8.183,0,1,1,5.674-10.087A8.1,8.1,0,0,1,77.16,210.534Z" transform="translate(392.826 697.593)"/>
          <path id="路径_40002" data-name="路径 40002" d="M123.56,90.734a8.183,8.183,0,1,1,5.674-10.087C130.494,84.429,127.973,89.473,123.56,90.734Z" transform="translate(638.94 62.152)"/>
          <path id="路径_40003" data-name="路径 40003" d="M77.16,210.534a8.183,8.183,0,1,1,5.674-10.087A8.1,8.1,0,0,1,77.16,210.534Z" transform="translate(392.826 697.593)"/>
          <path id="路径_40004" data-name="路径 40004" d="M145.46,104.734a8.183,8.183,0,1,1,5.674-10.087C151.764,99.06,149.242,103.473,145.46,104.734Z" transform="translate(755.102 136.411)"/>
          <path id="路径_40005" data-name="路径 40005" d="M77.16,210.534a8.183,8.183,0,1,1,5.674-10.087A8.1,8.1,0,0,1,77.16,210.534Z" transform="translate(392.826 697.593)"/>
          <path id="路径_40006" data-name="路径 40006" d="M71.76,118.234a8.183,8.183,0,1,1,5.674-10.087C78.694,111.929,76.173,116.973,71.76,118.234Z" transform="translate(364.184 208.017)"/>
          <path id="路径_40007" data-name="路径 40007" d="M77.16,210.534a8.183,8.183,0,1,1,5.674-10.087A8.1,8.1,0,0,1,77.16,210.534Z" transform="translate(392.826 697.593)"/>
          <path id="路径_40008" data-name="路径 40008" d="M71.76,118.234a8.183,8.183,0,1,1,5.674-10.087C78.694,111.929,76.173,116.973,71.76,118.234Z" transform="translate(364.184 208.017)"/>
          <path id="路径_40009" data-name="路径 40009" d="M77.16,210.534a8.183,8.183,0,1,1,5.674-10.087A8.1,8.1,0,0,1,77.16,210.534Z" transform="translate(392.826 697.593)"/>
          <path id="路径_40010" data-name="路径 40010" d="M211.16,69.034a8.183,8.183,0,1,1,5.674-10.087A8.1,8.1,0,0,1,211.16,69.034Z" transform="translate(1103.586 -52.949)"/>
          <path id="路径_40011" data-name="路径 40011" d="M123.56,90.734a8.183,8.183,0,1,1,5.674-10.087C130.494,84.429,127.973,89.473,123.56,90.734Z" transform="translate(638.94 62.152)"/>
          <path id="路径_40012" data-name="路径 40012" d="M211.16,69.034a8.183,8.183,0,1,1,5.674-10.087A8.1,8.1,0,0,1,211.16,69.034Z" transform="translate(1103.586 -52.949)"/>
          <path id="路径_40013" data-name="路径 40013" d="M147.36,74.234a8.183,8.183,0,1,1,5.674-10.087C154.294,67.929,151.773,72.973,147.36,74.234Z" transform="translate(765.18 -25.367)"/>
          <path id="路径_40014" data-name="路径 40014" d="M211.16,69.034a8.183,8.183,0,1,1,5.674-10.087A8.1,8.1,0,0,1,211.16,69.034Z" transform="translate(1103.586 -52.949)"/>
          <path id="路径_40015" data-name="路径 40015" d="M145.46,104.734a8.183,8.183,0,1,1,5.674-10.087C151.764,99.06,149.242,103.473,145.46,104.734Z" transform="translate(755.102 136.411)"/>
          <path id="路径_40016" data-name="路径 40016" d="M211.16,69.034a8.183,8.183,0,1,1,5.674-10.087A8.1,8.1,0,0,1,211.16,69.034Z" transform="translate(1103.586 -52.949)"/>
          <path id="路径_40017" data-name="路径 40017" d="M139.66,196.234a8.183,8.183,0,1,1,5.674-10.087A8.1,8.1,0,0,1,139.66,196.234Z" transform="translate(724.337 621.743)"/>
          <path id="路径_40018" data-name="路径 40018" d="M209.76,212.434a8.183,8.183,0,1,1,5.674-10.087A8.1,8.1,0,0,1,209.76,212.434Z" transform="translate(1096.16 707.671)"/>
          <path id="路径_40019" data-name="路径 40019" d="M145.46,104.734a8.183,8.183,0,1,1,5.674-10.087C151.764,99.06,149.242,103.473,145.46,104.734Z" transform="translate(755.102 136.411)"/>
          <path id="路径_40020" data-name="路径 40020" d="M209.76,212.434a8.183,8.183,0,1,1,5.674-10.087A8.1,8.1,0,0,1,209.76,212.434Z" transform="translate(1096.16 707.671)"/>
          <path id="路径_40021" data-name="路径 40021" d="M209.76,212.434a8.183,8.183,0,1,1,5.674-10.087A8.1,8.1,0,0,1,209.76,212.434Z" transform="translate(1096.16 707.671)"/>
          <path id="路径_40022" data-name="路径 40022" d="M233.36,153.733a8.183,8.183,0,1,1,5.674-10.087A8.1,8.1,0,0,1,233.36,153.733Z" transform="translate(1221.339 396.315)"/>
          <path id="路径_40023" data-name="路径 40023" d="M211.16,69.034a8.183,8.183,0,1,1,5.674-10.087A8.1,8.1,0,0,1,211.16,69.034Z" transform="translate(1103.586 -52.949)"/>
          <path id="路径_40024" data-name="路径 40024" d="M233.36,153.733a8.183,8.183,0,1,1,5.674-10.087A8.1,8.1,0,0,1,233.36,153.733Z" transform="translate(1221.339 396.315)"/>
          <path id="路径_40025" data-name="路径 40025" d="M233.36,153.733a8.183,8.183,0,1,1,5.674-10.087A8.1,8.1,0,0,1,233.36,153.733Z" transform="translate(1221.339 396.315)"/>
          <path id="路径_40026" data-name="路径 40026" d="M139.66,196.234a8.183,8.183,0,1,1,5.674-10.087A8.1,8.1,0,0,1,139.66,196.234Z" transform="translate(724.337 621.743)"/>
          <path id="路径_40027" data-name="路径 40027" d="M233.36,153.733a8.183,8.183,0,1,1,5.674-10.087A8.1,8.1,0,0,1,233.36,153.733Z" transform="translate(1221.339 396.315)"/>
          <path id="路径_40028" data-name="路径 40028" d="M123.56,90.734a8.183,8.183,0,1,1,5.674-10.087C130.494,84.429,127.973,89.473,123.56,90.734Z" transform="translate(638.94 62.152)"/>
          <path id="路径_40029" data-name="路径 40029" d="M233.36,153.733a8.183,8.183,0,1,1,5.674-10.087A8.1,8.1,0,0,1,233.36,153.733Z" transform="translate(1221.339 396.315)"/>
          <path id="路径_40030" data-name="路径 40030" d="M147.36,74.234a8.183,8.183,0,1,1,5.674-10.087C154.294,67.929,151.773,72.973,147.36,74.234Z" transform="translate(765.18 -25.367)"/>
          <path id="路径_40031" data-name="路径 40031" d="M233.36,153.733a8.183,8.183,0,1,1,5.674-10.087A8.1,8.1,0,0,1,233.36,153.733Z" transform="translate(1221.339 396.315)"/>
          <path id="路径_40032" data-name="路径 40032" d="M145.46,104.734a8.183,8.183,0,1,1,5.674-10.087C151.764,99.06,149.242,103.473,145.46,104.734Z" transform="translate(755.102 136.411)"/>
          <path id="路径_40033" data-name="路径 40033" d="M233.36,153.733a8.183,8.183,0,1,1,5.674-10.087A8.1,8.1,0,0,1,233.36,153.733Z" transform="translate(1221.339 396.315)"/>
          <path id="路径_40034" data-name="路径 40034" d="M233.36,153.733a8.183,8.183,0,1,1,5.674-10.087A8.1,8.1,0,0,1,233.36,153.733Z" transform="translate(1221.339 396.315)"/>
          <path id="路径_40035" data-name="路径 40035" d="M257.46,217.434a8.183,8.183,0,1,1,5.674-10.087A8.1,8.1,0,0,1,257.46,217.434Z" transform="translate(1349.17 734.192)"/>
          <path id="路径_40036" data-name="路径 40036" d="M233.36,153.733a8.183,8.183,0,1,1,5.674-10.087A8.1,8.1,0,0,1,233.36,153.733Z" transform="translate(1221.339 396.315)"/>
          <path id="路径_40037" data-name="路径 40037" d="M257.46,217.434a8.183,8.183,0,1,1,5.674-10.087A8.1,8.1,0,0,1,257.46,217.434Z" transform="translate(1349.17 734.192)"/>
          <path id="路径_40038" data-name="路径 40038" d="M209.76,212.434a8.183,8.183,0,1,1,5.674-10.087A8.1,8.1,0,0,1,209.76,212.434Z" transform="translate(1096.16 707.671)"/>
          <path id="路径_40039" data-name="路径 40039" d="M257.46,217.434a8.183,8.183,0,1,1,5.674-10.087A8.1,8.1,0,0,1,257.46,217.434Z" transform="translate(1349.17 734.192)"/>
          <path id="路径_40040" data-name="路径 40040" d="M257.46,217.434a8.183,8.183,0,1,1,5.674-10.087A8.1,8.1,0,0,1,257.46,217.434Z" transform="translate(1349.17 734.192)"/>
          <path id="路径_40041" data-name="路径 40041" d="M139.66,196.234a8.183,8.183,0,1,1,5.674-10.087A8.1,8.1,0,0,1,139.66,196.234Z" transform="translate(724.337 621.743)"/>
        </g>
      </g>
    </g>
    <g id="banner" transform="translate(2265 -1258)">
      <path id="路径_39932" data-name="路径 39932" d="M20.488-30.212a42.336,42.336,0,0,1-5.044-.208,35.355,35.355,0,0,1,.208,4.16v12.428a35.355,35.355,0,0,1-.208,4.16,41.782,41.782,0,0,1,5.044-.208H31.564a45.817,45.817,0,0,1,5.044.208,33.674,33.674,0,0,1-.208-4.16V-26.26a33.136,33.136,0,0,1,.208-4.16,42.9,42.9,0,0,1-5.044.208Zm.624,4.888h9.776v10.556H21.112ZM48.36,4.316a52.645,52.645,0,0,1-.312-6.708V-35.36a53.582,53.582,0,0,1,.312-6.24,54.381,54.381,0,0,1-6.188.26H9.932a52.465,52.465,0,0,1-6.084-.26,55.511,55.511,0,0,1,.312,6.24V-2.444a57.109,57.109,0,0,1-.312,6.76H9.88V1.456h32.4v2.86ZM9.88-36.14h32.4V-3.692H9.88ZM97.4-43.42a98.474,98.474,0,0,1,.416,11.076c0,10.764-.624,16.38-2.236,20.54C94.12-8.06,91.52-4.42,87.464-.468A16.551,16.551,0,0,1,91.832,4.16c5.408-5.824,8.424-10.816,9.88-16.328,1.3-5.044,1.82-11.8,1.82-25.636a46.085,46.085,0,0,1,.208-5.616Zm28.392,25.428V-5.2h-15.6a29.425,29.425,0,0,1-5.928-.312V.78a38.437,38.437,0,0,1,5.876-.312H126v2.6h5.72a45.135,45.135,0,0,1-.312-5.98V-35.464c0-2.392.052-3.8.208-5.512a44.036,44.036,0,0,1-5.72.26H112.216a37.95,37.95,0,0,1-6.084-.364V-35a34.211,34.211,0,0,1,5.928-.312h13.728v11.7H114.244a37.873,37.873,0,0,1-6.864-.364v6.344a61.853,61.853,0,0,1,7.072-.364ZM91.624-16.12a24.919,24.919,0,0,1-.208-3.848v-14.56a21.506,21.506,0,0,1,.312-3.64H85.852a19.785,19.785,0,0,1,.312,3.64v14.56a24.918,24.918,0,0,1-.208,3.848ZM182-16.744a49.356,49.356,0,0,1,6.24,6.708l3.328-4.68a55.2,55.2,0,0,0-8.32-7.072,41.266,41.266,0,0,0,5.252-9,14.664,14.664,0,0,1,1.2-2.184l-2.548-2.7a18.607,18.607,0,0,1-2.964.156h-3.9l3.224-2.34a34.5,34.5,0,0,0-4.68-6.5L174.46-41.6a32.71,32.71,0,0,1,4.42,6.084h-5.148a31.749,31.749,0,0,1-4.108-.208v5.772a35.965,35.965,0,0,1,4.42-.208h8.424a32.023,32.023,0,0,1-5.616,8.008,37.1,37.1,0,0,1-9,7.02,20.148,20.148,0,0,1,2.652,5.408,37.176,37.176,0,0,0,5.824-4.42V-1.092a37.327,37.327,0,0,1-.312,5.408h6.292A29.82,29.82,0,0,1,182-.988ZM204.048-29.12v-9.152a30.485,30.485,0,0,1,.364-5.408h-6.5a36.8,36.8,0,0,1,.364,5.408v9.152h-3.9a35.1,35.1,0,0,1-5.1-.26V-23.5c1.664-.156,3.328-.26,5.1-.26h3.9V-3.432h-5.668a47.153,47.153,0,0,1-5.98-.312V2.548a41.935,41.935,0,0,1,5.876-.364h17.784a42.7,42.7,0,0,1,5.928.364V-3.744a44.6,44.6,0,0,1-5.928.312h-6.24V-23.764h5.512c1.82,0,3.432.1,5.1.26V-29.38a33.82,33.82,0,0,1-5.1.26Zm65.936,9.2c1.456,0,2.652.052,3.952.1a16.212,16.212,0,0,1-.208-3.12v-5.512c.832.052,1.3.1,2.028.208v-5.148c-.572.052-.728.1-2.028.156v-5.46a17.537,17.537,0,0,1,.208-3.172c-1.2.1-2.132.156-4.212.156H257.608a33.1,33.1,0,0,1-4.316-.26v5.3a24.421,24.421,0,0,1,3.536-.208h2.288v3.64H256.2a37.987,37.987,0,0,1-4.836-.208v5.252a28.588,28.588,0,0,1,4.836-.26h2.6c-.156,1.664-.312,2.7-.468,3.8H256.62a29.238,29.238,0,0,1-3.432-.156v5.044a32.058,32.058,0,0,1,3.64-.156h.364a28.993,28.993,0,0,1-6.656,11.18,15.739,15.739,0,0,1,2.5,5.668,31.06,31.06,0,0,0,4.212-5.512c-.052.78-.052,1.56-.052,3.12V0c0,1.2-.1,2.392-.26,4h5.616V1.04h6.188V2.86h5.616a31.646,31.646,0,0,1-.26-4.68V-13a26.978,26.978,0,0,1,.156-3.588,23.609,23.609,0,0,1-3.276.156H261.2a30.363,30.363,0,0,0,1.2-3.484Zm-6.5-4.732a26.1,26.1,0,0,0,.468-3.8h4.94v3.8Zm.728-8.58.1-3.64h4.576v3.64Zm-1.664,21.684h6.188V-3.9h-6.188Zm30.784-22.308a63.381,63.381,0,0,0,4.212-8.476L292.032-44.1a50.007,50.007,0,0,1-4.212,10.244h-6.708a27.971,27.971,0,0,1-4.316-.208v5.668a24.25,24.25,0,0,1,4.212-.26h3.536v5.3H280.7a19.381,19.381,0,0,1-3.8-.26v5.564a19.573,19.573,0,0,1,3.9-.26h3.744v5.876h-5.512a25.674,25.674,0,0,1-3.9-.208v5.72a18.748,18.748,0,0,1,3.8-.26h5.616V-1.3a42.475,42.475,0,0,1-.312,5.668h6.24A43.023,43.023,0,0,1,290.16-1.3V-7.176h5.356a28.946,28.946,0,0,1,4.524.312v-5.824a32.389,32.389,0,0,1-4.732.26H290.16V-18.3h3.64a25.764,25.764,0,0,1,4.42.26v-5.564a20.406,20.406,0,0,1-4.42.26h-3.64v-5.3h4.94a24.171,24.171,0,0,1,4.264.26v-5.72a26.6,26.6,0,0,1-4.628.26Zm-7.384-1.924a64.474,64.474,0,0,0-3.744-8.268l-5.2,1.82a37.665,37.665,0,0,1,3.8,8.268ZM346.372-9.152H338.78V-1.56H343.1c-.052,3.224-.78,4.16-3.9,5.044l1.82,2.756c4.212-1.664,5.356-3.328,5.356-7.8Zm80.548-9.88c.468-2.236.78-4,1.092-6.24h11.6c1.664,0,3.328.052,4.628.156-.1-1.248-.156-2.34-.156-4.056V-37.7c0-1.716.052-2.912.156-4.212a47.043,47.043,0,0,1-5.044.208H426.14a42.7,42.7,0,0,1-5.512-.312v5.772a45.422,45.422,0,0,1,5.46-.312h12.22v6.344h-11.6a28.472,28.472,0,0,1-4.056-.208,77.7,77.7,0,0,1-2.5,16.536c1.2-.1,2.392-.156,3.848-.156H438.36c-.416,5.252-1.04,8.528-2.08,10.608-.468.988-1.3,1.3-3.38,1.3a55.724,55.724,0,0,1-9.62-.988,23.345,23.345,0,0,1,1.352,5.928c3.38.312,5.72.468,8.216.468,4.992,0,7.228-.884,8.528-3.484,1.664-3.224,2.756-9.152,3.068-16.276.052-1.352.1-1.716.208-2.756a32.278,32.278,0,0,1-4.264.208Zm27.664-23.92a31.344,31.344,0,0,1,.364,5.772V-2.6a48.208,48.208,0,0,1-.364,6.656h6.6a47.41,47.41,0,0,1-.312-6.656V-37.18a36.224,36.224,0,0,1,.312-5.772Zm80.184,40.04A79.648,79.648,0,0,1,545.636,3.38l2.132-4.732A70.174,70.174,0,0,0,540.384-5.3a35.184,35.184,0,0,0,2.652-2.86,36.348,36.348,0,0,0,4.94,2.444,20.254,20.254,0,0,1,2.132-4.576,21.461,21.461,0,0,1-8.84-4.472h3.172a43.49,43.49,0,0,1,4.784.26V-19.24a30.132,30.132,0,0,1-4.836.26h-4.42v-2.392h3.224a31.645,31.645,0,0,1,4.316.208v-4.42a23.4,23.4,0,0,1-4.316.26h-3.224V-27.4h1.2a43.843,43.843,0,0,1,4.732.156,29.507,29.507,0,0,1-.208-4.212V-37.8a30.687,30.687,0,0,1,.208-4.316,50.106,50.106,0,0,1-5.616.208H523.848a47.547,47.547,0,0,1-5.46-.208c.1,1.3.156,2.132.156,4.368v5.2l-3.172-2.288a15.73,15.73,0,0,1-2.548,4.524c.052-4.628.052-4.628.052-7.852a32.119,32.119,0,0,1,.26-5.148h-5.72c.364,2.184.416,3.38.416,10.244,0,13-.468,18.3-2.08,23.088a22.428,22.428,0,0,1-5.3,9.412,17.508,17.508,0,0,1,3.588,4.888A31.149,31.149,0,0,0,510.38-6.812a13.639,13.639,0,0,1,.884,1.456c1.612,3.016,1.612,3.016,2.288,4.212L517.4-4.992a64.572,64.572,0,0,0-5.668-7.436,83.662,83.662,0,0,0,1.04-11.7,67.1,67.1,0,0,0,5.2-6.136c.312-.416.312-.468.572-.78-.052,2.132-.052,2.34-.156,3.8,1.092-.1,2.34-.156,4.784-.156h.624v2.08H520.78a26.577,26.577,0,0,1-4.108-.208v4.368a28.353,28.353,0,0,1,4.108-.208H523.8v2.392h-4.212a25.93,25.93,0,0,1-4.576-.26v4.68a30.22,30.22,0,0,1,4.316-.208h3.432a19.257,19.257,0,0,1-7.852,4.576,18.41,18.41,0,0,1,2.34,4.212,31.119,31.119,0,0,0,4.16-2.288,23.538,23.538,0,0,1,2.86,3.224,57.068,57.068,0,0,1-8.32,3.8l2.288,4.472c.364-.208.936-.624,1.04-.676,1.144-.52,3.224-1.664,4.784-2.6a12.542,12.542,0,0,1,.936,4.16,44.588,44.588,0,0,0,4.628.208c4,0,5.148-.936,5.148-4.264Zm-7.54-3.64,1.04-.832a25.622,25.622,0,0,0-3.224-3.588,22.771,22.771,0,0,0,3.12-3.224c.312-.364.312-.364.468-.572h6.812a22.415,22.415,0,0,0,3.848,3.9,20.463,20.463,0,0,1-3.276,3.64l-1.248-.52V-10.4a16.066,16.066,0,0,1,.208-3.224h-5.564a16.822,16.822,0,0,1,.208,3.172V-1.56c0,1.092-.156,1.2-1.56,1.2a20.555,20.555,0,0,1-3.12-.26c1.248-.78,1.82-1.144,3.848-2.548Zm1.56-20.852h6.188v2.08h-6.188Zm0,6.032h6.188v2.392h-6.188ZM523.64-38.22h16.9v2.028h-16.9Zm0,5.252h16.9v1.976h-16.9Zm-18.668,15.08c.988-3.9,1.248-6.448,1.508-15.132l-4.368-.572c0,7.28-.312,10.764-1.3,13.936Z" transform="translate(243 502)" fill="#0c111a"/>
      <text id="OUR_MISSION" data-name="OUR MISSION" transform="translate(243 416)" font-size="12" font-family="HiraginoSansGB-W6, Hiragino Sans GB" letter-spacing="1.6em"><tspan x="0" y="0">OUR MISSION</tspan></text>
      <path id="路径_39933" data-name="路径 39933" d="M611.312-33.02a43.8,43.8,0,0,1-4.784-.208c.1.936.156,2.652.156,4.264V-17.42a27.11,27.11,0,0,1-.208,4.056,37.281,37.281,0,0,1,4.368-.208h4.368v11.18c0,1.04-.208,1.144-1.82,1.144-.728,0-2.548-.156-4.212-.364a13.9,13.9,0,0,1,1.248,5.252c1.352.052,3.016.1,4.16.1,4.628,0,5.98-.988,5.98-4.368V-13.572H625.3a32.088,32.088,0,0,1,4.16.208,32.995,32.995,0,0,1-.208-4.368V-29.12a29.9,29.9,0,0,1,.208-4.056c-1.4.1-2.392.156-4.628.156H619.32c.468-1.04.988-2.34,1.456-3.64h4.94a59.216,59.216,0,0,1,5.98.26v-5.616c-1.716.156-3.432.26-6.084.26H603.876a39.71,39.71,0,0,1-5.512-.26,65.538,65.538,0,0,1,.26,6.76v5.824c0,7.852-.832,15.652-2.132,20.384a31.57,31.57,0,0,1-3.536,8.008c1.872,1.4,2.444,2.08,4.316,4.836,2.86-4.784,4.576-10.192,5.668-17.472a146.506,146.506,0,0,0,1.04-16.9V-36.66h11.076a17.525,17.525,0,0,1-1.352,3.64Zm.52,4.524h12.22v2.964h-12.22Zm0,7.176h12.22v3.068h-12.22Zm-26.312-18.1a31.026,31.026,0,0,1,7.956,7.124l3.9-4.264a39.676,39.676,0,0,0-7.852-6.6Zm-1.664,13.208a36.716,36.716,0,0,1,8.476,6.76l3.432-4.472a41.992,41.992,0,0,0-8.268-6.344Zm6.188,9.932C588.224-8.632,586.2-3.328,584.116-.52l4.732,4.212C589.576,2.028,590.1.832,590.356.1a77.052,77.052,0,0,0,4.16-13.676ZM632.684-.988a63.077,63.077,0,0,0-5.564-11.388L622.7-10.5a63.224,63.224,0,0,1,5.616,12.22ZM607.2-12.48c-1.4,5.564-2.652,7.956-5.824,11.336a11.3,11.3,0,0,1,3.952,3.64c3.432-4,5.044-7.228,6.656-13.416Zm86.424-25.792V-39.1a27.387,27.387,0,0,1,.312-4.576h-6.552a29.259,29.259,0,0,1,.364,5.1v10.5h-8.06a44.226,44.226,0,0,1-5.876-.26,36.36,36.36,0,0,1,.208,4.316v9.776a31.84,31.84,0,0,1-.208,3.952,43.8,43.8,0,0,1,4.94-.208h25.532a47.044,47.044,0,0,1,5.044.208,29.9,29.9,0,0,1-.208-4.056v-9.672a34.707,34.707,0,0,1,.208-4.316,40.924,40.924,0,0,1-5.928.26h-9.776v-5.1h13.936a45.947,45.947,0,0,1,5.564.312v-5.72a40.269,40.269,0,0,1-5.564.312Zm9.828,15.288v7.332H679.692v-7.332Zm-30.784,27.3A36.285,36.285,0,0,0,678.756-7.7l-5.148-1.82a23.906,23.906,0,0,1-2.444,5.928A24.19,24.19,0,0,1,667.472,1.4ZM689,3.328A80.276,80.276,0,0,0,687.648-8.32l-4.992.78a66.385,66.385,0,0,1,.78,9.672c0,.468,0,1.2-.052,2.132Zm12.584-.884A82.673,82.673,0,0,0,697.476-8.84L692.64-7.488a63.9,63.9,0,0,1,3.484,11.856Zm13.208-.988a85.576,85.576,0,0,0-6.448-11.128l-4.888,1.924a61.05,61.05,0,0,1,5.98,11.96Z" transform="translate(243 502)" fill="#0080f4"/>
    </g>
    <g id="首页" transform="translate(2970.464 -1070.864)">
      <g id="组_21510" data-name="组 21510" transform="translate(583.544 31.321)">
        <path id="路径_37636" data-name="路径 37636" d="M911.13,51.25v14.7h-6.88V76.073" transform="translate(-830.726 -40.496)" fill="none" stroke="#0080f4" stroke-miterlimit="10" stroke-width="3"/>
        <path id="路径_37637" data-name="路径 37637" d="M903.273,102l-19.606,9.623,6.739,13.389" transform="translate(-821.25 -63.86)" fill="none" stroke="#0080f4" stroke-miterlimit="10" stroke-width="3"/>
        <path id="路径_37638" data-name="路径 37638" d="M863.333,126.75l7.555,6.61v36.694" transform="translate(-811.889 -75.254)" fill="none" stroke="#0080f4" stroke-miterlimit="10" stroke-width="3"/>
        <path id="路径_37639" data-name="路径 37639" d="M832,154.333l7.375,6.228v22.912" transform="translate(-797.464 -87.953)" fill="none" stroke="#000" stroke-miterlimit="10" stroke-width="3"/>
        <path id="路径_37640" data-name="路径 37640" d="M813.333,172l7.285,6.386v13.85" transform="translate(-788.87 -96.086)" fill="none" stroke="#0080f4" stroke-miterlimit="10" stroke-width="3"/>
        <path id="路径_37641" data-name="路径 37641" d="M789,185.333l6.745,6.3v6.745" transform="translate(-777.668 -102.225)" fill="none" stroke="#000" stroke-miterlimit="10" stroke-width="3"/>
        <g id="组_21509" data-name="组 21509" transform="translate(0 30.046)">
          <path id="路径_37642" data-name="路径 37642" d="M970.979,126.75l-8.229,6.341v37.324" transform="translate(-857.658 -105.3)" fill="none" stroke="#0080f4" stroke-miterlimit="10" stroke-width="3"/>
          <path id="路径_37643" data-name="路径 37643" d="M921,87l20.506,13.76-5.936,14.3" transform="translate(-838.438 -87)" fill="none" stroke="#0080f4" stroke-miterlimit="10" stroke-width="3"/>
          <path id="路径_37644" data-name="路径 37644" d="M1004.018,152l-8.184,6.116v23.564" transform="translate(-872.889 -116.925)" fill="none" stroke="#0c111a" stroke-miterlimit="10" stroke-width="3"/>
          <path id="路径_37645" data-name="路径 37645" d="M1022.478,169.833l-7.645,6.206v13.85" transform="translate(-881.636 -125.135)" fill="none" stroke="#0080f4" stroke-miterlimit="10" stroke-width="3"/>
          <path id="路径_37646" data-name="路径 37646" d="M1047.631,183.667l-7.465,5.4V196.8" transform="translate(-893.299 -131.503)" fill="none" stroke="#0c111a" stroke-miterlimit="10" stroke-width="3"/>
          <line id="直线_306" data-name="直线 306" x2="159.099" transform="translate(0 65.834)" fill="none" stroke="#0080f4" stroke-miterlimit="10" stroke-width="3"/>
        </g>
        <path id="路径_37647" data-name="路径 37647" d="M891,150.167h32.917v31.748" transform="translate(-824.626 -86.035)" fill="none" stroke="#0080f4" stroke-miterlimit="10" stroke-width="3"/>
        <path id="路径_37648" data-name="路径 37648" d="M912.1,169H896v21.225" transform="translate(-826.928 -94.705)" fill="none" stroke="#0c111a" stroke-miterlimit="10" stroke-width="3"/>
        <path id="路径_37649" data-name="路径 37649" d="M912,182.333h11.962v14.03" transform="translate(-834.294 -100.844)" fill="none" stroke="#0c111a" stroke-miterlimit="10" stroke-width="3"/>
        <circle id="椭圆_1659" data-name="椭圆 1659" cx="4.924" cy="4.924" r="4.924" transform="translate(75.48)" fill="none" stroke="#0080f4" stroke-miterlimit="10" stroke-width="3"/>
      </g>
      <g id="组_21512" data-name="组 21512" transform="translate(780.472 97.454)">
        <path id="路径_37650" data-name="路径 37650" d="M1199.362,182.833l9.533,10.343L1174,223.215" transform="translate(-1151.156 -167.207)" fill="none" stroke="#1a1311" stroke-miterlimit="10" stroke-width="3"/>
        <line id="直线_307" data-name="直线 307" x1="21.765" y2="19.336" transform="translate(18.347 31.366)" fill="none" stroke="#1a1311" stroke-miterlimit="10" stroke-width="3"/>
        <g id="组_21511" data-name="组 21511" transform="translate(0)">
          <path id="路径_37651" data-name="路径 37651" d="M1131.667,250.052,1145.247,238l49.915,57.74" transform="translate(-1131.667 -192.604)" fill="none" stroke="#1a1311" stroke-miterlimit="10" stroke-width="3"/>
          <path id="路径_37652" data-name="路径 37652" d="M1230.672,268.018l-7.735-8.184L1204.5,276.382" transform="translate(-1165.198 -202.656)" fill="none" stroke="#1a1311" stroke-miterlimit="10" stroke-width="3"/>
          <path id="路径_37653" data-name="路径 37653" d="M1246.122,233l5.4,21.045-26.352,23.384" transform="translate(-1174.712 -190.302)" fill="none" stroke="#1a1311" stroke-miterlimit="10" stroke-width="3"/>
          <path id="路径_37654" data-name="路径 37654" d="M1245.167,304.105l7.465-7.105,11.062,13.041" transform="translate(-1183.92 -219.766)" fill="none" stroke="#1a1311" stroke-miterlimit="10" stroke-width="3"/>
          <path id="路径_37655" data-name="路径 37655" d="M1243,316.167l9.534,9.8,2.428,21.675-11.145,8.747,16.991,23.36" transform="translate(-1182.922 -228.59)" fill="none" stroke="#1a1311" stroke-miterlimit="10" stroke-width="3"/>
          <path id="路径_37656" data-name="路径 37656" d="M1266.989,385.167l-.36,8.544-6.3,5.126" transform="translate(-1190.902 -260.356)" fill="none" stroke="#1a1311" stroke-miterlimit="10" stroke-width="3"/>
          <path id="路径_37657" data-name="路径 37657" d="M1277.364,397l-.131,8.809L1269,411.03" transform="translate(-1194.892 -265.804)" fill="none" stroke="#1a1311" stroke-miterlimit="10" stroke-width="3"/>
          <path id="路径_37658" data-name="路径 37658" d="M1429.34,169.333l-10.433,8.364,2.968,5.756-3.664,1.678" transform="translate(-1263.585 -160.992)" fill="none" stroke="#000" stroke-miterlimit="10" stroke-width="3"/>
          <path id="路径_37659" data-name="路径 37659" d="M1386.658,183.971c-.27.285-3.777,3.326-3.777,3.326l2.878,5.863-10.613,8.9L1364.8,194.6l-9.8,7.195,2.519,8.634" transform="translate(-1234.484 -167.73)" fill="none" stroke="#000" stroke-miterlimit="10" stroke-width="3"/>
          <path id="路径_37660" data-name="路径 37660" d="M1372.108,215.333l12.591,7.914-1.8,6.116-6.745,5.756-6.655-7.555" transform="translate(-1241.16 -182.169)" fill="none" stroke="#000" stroke-miterlimit="10" stroke-width="3"/>
          <line id="直线_308" data-name="直线 308" x2="9.708" y2="5.756" transform="translate(126.991 38.201)" fill="none" stroke="#000" stroke-miterlimit="10" stroke-width="3"/>
          <path id="路径_37661" data-name="路径 37661" d="M1325.106,242.079l-7.735-6.745L1276,271.308" transform="translate(-1198.114 -191.377)" fill="none" stroke="#000" stroke-miterlimit="10" stroke-width="3"/>
          <path id="路径_37662" data-name="路径 37662" d="M1311.851,257.667l-32.917,28.78L1281.9,303l-12.422.443" transform="translate(-1195.113 -201.658)" fill="none" stroke="#000" stroke-miterlimit="10" stroke-width="3"/>
          <circle id="椭圆_1660" data-name="椭圆 1660" cx="4.924" cy="4.924" r="4.924" transform="translate(165.237)" fill="none" stroke="#000" stroke-miterlimit="10" stroke-width="3"/>
        </g>
      </g>
      <g id="组_21513" data-name="组 21513" transform="translate(834.792 289.33)">
        <path id="路径_37664" data-name="路径 37664" d="M1284.495,621.152,1246.361,610l-14.033,49.095,27.074,6.846,2.069-8.364-3.777-17.987" transform="translate(-1232.328 -555.768)" fill="none" stroke="#000" stroke-miterlimit="10" stroke-width="3"/>
        <path id="路径_37665" data-name="路径 37665" d="M1253.667,627.756l49.825,14.21L1308.978,622" transform="translate(-1242.152 -561.292)" fill="none" stroke="#ef54a1" stroke-miterlimit="10" stroke-width="3"/>
        <path id="路径_37666" data-name="路径 37666" d="M1249.667,645.833l23.294,6.565,3.643,17.807" transform="translate(-1240.311 -572.265)" fill="none" stroke="#000" stroke-miterlimit="10" stroke-width="3"/>
        <path id="路径_37667" data-name="路径 37667" d="M1241,669.584l8.994,2.338-1.28-11.422" transform="translate(-1236.321 -579.017)" fill="none" stroke="#000" stroke-miterlimit="10" stroke-width="3"/>
        <path id="路径_37672" data-name="路径 37672" d="M1282.5,509.5l13.49,4.137-2.338,7.465" transform="translate(-1255.426 -509.5)" fill="none" stroke="#000" stroke-miterlimit="10" stroke-width="3"/>
        <path id="路径_37673" data-name="路径 37673" d="M1279.333,522.333l21.855,7.825-2.069,4.947" transform="translate(-1253.968 -515.408)" fill="none" stroke="#000" stroke-miterlimit="10" stroke-width="3"/>
        <g id="组_21986" data-name="组 21986">
          <path id="路径_37663" data-name="路径 37663" d="M1403.834,588l6.206,8.724,12.5-2.428,15.289,4.587" transform="translate(-1311.286 -545.64)" fill="none" stroke="#ef54a1" stroke-miterlimit="10" stroke-width="3"/>
          <path id="路径_37668" data-name="路径 37668" d="M1296,564.167,1290.784,580l-12.951-5.126" transform="translate(-1253.278 -534.667)" fill="none" stroke="#ef54a1" stroke-miterlimit="10" stroke-width="3"/>
          <path id="路径_37669" data-name="路径 37669" d="M1332.526,566.667l-6.026,20.685,23.563,5.936,9.893,10.523" transform="translate(-1275.683 -535.818)" fill="none" stroke="#ef54a1" stroke-miterlimit="10" stroke-width="3"/>
          <path id="路径_37670" data-name="路径 37670" d="M1331.667,591.5l24.463,5.171,11.422,13.715" transform="translate(-1278.061 -547.251)" fill="none" stroke="#ef54a1" stroke-miterlimit="10" stroke-width="3"/>
          <path id="路径_37671" data-name="路径 37671" d="M1336.667,576l29.589,6.475,8.634,16.189" transform="translate(-1280.363 -540.115)" fill="none" stroke="#ef54a1" stroke-miterlimit="10" stroke-width="3"/>
          <line id="直线_309" data-name="直线 309" x2="13.491" y2="3.508" transform="translate(93.987 55.042)" fill="none" stroke="#ef54a1" stroke-miterlimit="10" stroke-width="3"/>
          <path id="路径_37674" data-name="路径 37674" d="M1290.667,546l18.977,5.756-9.489,27.791" transform="translate(-1259.186 -526.304)" fill="none" stroke="#ef54a1" stroke-miterlimit="10" stroke-width="3"/>
          <line id="直线_310" data-name="直线 310" x1="3.238" y2="9.623" transform="translate(31.031 25.452)" fill="none" stroke="#ef54a1" stroke-miterlimit="10" stroke-width="3"/>
          <path id="路径_37675" data-name="路径 37675" d="M1276.428,547l-8.094,24.1,16.009,5.306" transform="translate(-1248.904 -526.764)" fill="none" stroke="#ef54a1" stroke-miterlimit="10" stroke-width="3"/>
          <circle id="椭圆_1661" data-name="椭圆 1661" cx="4.924" cy="4.924" r="4.924" transform="translate(126.005 49.915)" fill="none" stroke="#ef54a1" stroke-miterlimit="10" stroke-width="3"/>
        </g>
      </g>
      <g id="组_21514" data-name="组 21514" transform="translate(740.449 426.88)">
        <path id="路径_37676" data-name="路径 37676" d="M1092,849l25.093,29.859,22.53-13.009" transform="translate(-1073.734 -803.367)" fill="none" stroke="#000" stroke-miterlimit="10" stroke-width="3"/>
        <path id="路径_37677" data-name="路径 37677" d="M1058.15,856.617l33.376,38.52,36.024-23,5.527,10.591" transform="translate(-1058.15 -806.874)" fill="none" stroke="#000" stroke-miterlimit="10" stroke-width="3"/>
        <line id="直线_311" data-name="直线 311" y1="9.353" x2="23.384" transform="translate(46.776 76.931)" fill="none" stroke="#000" stroke-miterlimit="10" stroke-width="3"/>
        <line id="直线_312" data-name="直线 312" x2="19.013" y2="28.185" transform="translate(68.146)" fill="none" stroke="#000" stroke-miterlimit="10" stroke-width="3"/>
        <path id="路径_37678" data-name="路径 37678" d="M1176,770l26.441,41.011,6.835-3.687" transform="translate(-1112.405 -766.997)" fill="none" stroke="#000" stroke-miterlimit="10" stroke-width="3"/>
        <path id="路径_37679" data-name="路径 37679" d="M1167,775.5l29.679,44.519,7.9-3.832" transform="translate(-1108.262 -769.529)" fill="none" stroke="#000" stroke-miterlimit="10" stroke-width="3"/>
        <path id="路径_37680" data-name="路径 37680" d="M1141.52,785.4l29.089,60.85v9.893l-38.943,12.142" transform="translate(-1091.995 -774.089)" fill="none" stroke="#000" stroke-miterlimit="10" stroke-width="3"/>
        <path id="路径_37681" data-name="路径 37681" d="M1099.617,829.807l21.432-15.64,14.929,36.335" transform="translate(-1077.24 -787.331)" fill="none" stroke="#000" stroke-miterlimit="10" stroke-width="3"/>
        <path id="路径_37682" data-name="路径 37682" d="M1122.417,833.833l-14.75,8.9s17.678,21.275,17.7,21.269,8.379-5.26,8.379-5.26" transform="translate(-1080.946 -796.385)" fill="none" stroke="#000" stroke-miterlimit="10" stroke-width="3"/>
        <path id="路径_37683" data-name="路径 37683" d="M1133.253,842,1123,847.4l9.084,11.6,7.555-3.238" transform="translate(-1088.005 -800.144)" fill="none" stroke="#000" stroke-miterlimit="10" stroke-width="3"/>
        <circle id="椭圆_1662" data-name="椭圆 1662" cx="4.924" cy="4.924" r="4.924" transform="translate(29.531 91.434)" fill="none" stroke="#000" stroke-miterlimit="10" stroke-width="3"/>
      </g>
      <g id="组_21515" data-name="组 21515" transform="translate(571.548 476.92)">
        <path id="路径_37686" data-name="路径 37686" d="M788.99,898.718,794.206,864l-32.9-5.124-10.986-1.711L746,882.259l8.994.54,15.289-5.756" transform="translate(-746 -857.167)" fill="none" stroke="#0c111a" stroke-miterlimit="10" stroke-width="3"/>
        <path id="路径_37687" data-name="路径 37687" d="M772.849,862.333l-1.349,8.454,9.983-2.7" transform="translate(-757.74 -859.545)" fill="none" stroke="#000" stroke-miterlimit="10" stroke-width="3"/>
        <path id="路径_37688" data-name="路径 37688" d="M789.035,867.167l-3.328,21.315s-14.48,5.126-14.21,5.036" transform="translate(-757.737 -861.771)" fill="none" stroke="#0080f4" stroke-miterlimit="10" stroke-width="3"/>
        <path id="路径_37689" data-name="路径 37689" d="M809.959,869s-7.734,45.238-7.465,45.328,17.717,3.328,17.717,3.328" transform="translate(-772.005 -862.615)" fill="none" stroke="#0080f4" stroke-miterlimit="10" stroke-width="3"/>
        <g id="组_21987" data-name="组 21987">
          <path id="路径_37684" data-name="路径 37684" d="M877.513,881.833,863.8,969.612l-15.962-2.248" transform="translate(-792.882 -868.523)" fill="none" stroke="#0080f4" stroke-miterlimit="10" stroke-width="3"/>
          <path id="路径_37685" data-name="路径 37685" d="M869.516,879,857.1,957.965l-7.105-.9" transform="translate(-793.879 -867.218)" fill="none" stroke="#0080f4" stroke-miterlimit="10" stroke-width="3"/>
          <line id="直线_313" data-name="直线 313" x1="8.814" y2="56.031" transform="translate(59.358 10.792)" fill="none" stroke="#0080f4" stroke-miterlimit="10" stroke-width="3"/>
          <circle id="椭圆_1663" data-name="椭圆 1663" cx="4.924" cy="4.924" r="4.924" transform="translate(44.654 93.048)" fill="none" stroke="#0080f4" stroke-miterlimit="10" stroke-width="3"/>
        </g>
      </g>
      <g id="组_21517" data-name="组 21517" transform="translate(400.005 313.505)">
        <line id="直线_314" data-name="直线 314" x1="7.914" y2="4.407" transform="translate(104.819 115.853)" fill="none" stroke="#000" stroke-miterlimit="10" stroke-width="3"/>
        <g id="组_21516" data-name="组 21516">
          <line id="直线_315" data-name="直线 315" x1="32.366" y2="51.637" transform="translate(30.801)" fill="none" stroke="#000" stroke-miterlimit="10" stroke-width="3"/>
          <line id="直线_316" data-name="直线 316" x2="49.016" y2="100.64" transform="translate(58.771 27.894)" fill="none" stroke="#000" stroke-miterlimit="10" stroke-width="3"/>
          <line id="直线_317" data-name="直线 317" x1="11.242" y2="5.306" transform="translate(62.639 29.333)" fill="none" stroke="#000" stroke-miterlimit="10" stroke-width="3"/>
          <path id="路径_37690" data-name="路径 37690" d="M505.879,624.333l-39.662,18.8L461,653.833" transform="translate(-443.779 -586.546)" fill="none" stroke="#000" stroke-miterlimit="10" stroke-width="3"/>
          <path id="路径_37691" data-name="路径 37691" d="M514.318,633.167l-35.615,16.1-5.036,8.634" transform="translate(-449.611 -590.613)" fill="none" stroke="#000" stroke-miterlimit="10" stroke-width="3"/>
          <path id="路径_37692" data-name="路径 37692" d="M506.266,648.667l-42.091,20.146-16.009-2.248" transform="translate(-437.871 -597.749)" fill="none" stroke="#000" stroke-miterlimit="10" stroke-width="3"/>
          <line id="直线_318" data-name="直线 318" x2="25.092" y2="53.423" transform="translate(37.007 66.837)" fill="none" stroke="#000" stroke-miterlimit="10" stroke-width="3"/>
          <line id="直线_319" data-name="直线 319" x1="12.681" y2="6.116" transform="translate(30.441 82.036)" fill="none" stroke="#000" stroke-miterlimit="10" stroke-width="3"/>
          <line id="直线_320" data-name="直线 320" x1="13.041" y2="5.846" transform="translate(41.503 106.139)" fill="none" stroke="#000" stroke-miterlimit="10" stroke-width="3"/>
          <path id="路径_37693" data-name="路径 37693" d="M561.433,749l-45.5,20.146L509,783.058" transform="translate(-465.878 -643.94)" fill="none" stroke="#000" stroke-miterlimit="10" stroke-width="3"/>
          <path id="路径_37694" data-name="路径 37694" d="M573.407,763.5l-37.144,17.718L527,779.869" transform="translate(-474.164 -650.615)" fill="none" stroke="#000" stroke-miterlimit="10" stroke-width="3"/>
          <path id="路径_37695" data-name="路径 37695" d="M572.6,773.083l-41.191,19.292-11.242-2.608" transform="translate(-471.019 -655.027)" fill="none" stroke="#000" stroke-miterlimit="10" stroke-width="3"/>
          <line id="直线_321" data-name="直线 321" x1="60.584" y1="5.728" transform="translate(69.294 133.39)" fill="none" stroke="#000" stroke-miterlimit="10" stroke-width="3"/>
          <path id="路径_37696" data-name="路径 37696" d="M560.833,650.047,569.557,646l4.317,24.463,17.808,25-7.555,3.238" transform="translate(-489.741 -596.521)" fill="none" stroke="#000" stroke-miterlimit="10" stroke-width="3"/>
          <circle id="椭圆_1664" data-name="椭圆 1664" cx="4.924" cy="4.924" r="4.924" transform="translate(35.23 138.531)" fill="none" stroke="#000" stroke-miterlimit="10" stroke-width="3"/>
          <circle id="椭圆_1665" data-name="椭圆 1665" cx="4.924" cy="4.924" r="4.924" transform="translate(0 62.834)" fill="none" stroke="#000" stroke-miterlimit="10" stroke-width="3"/>
        </g>
      </g>
      <g id="组_21519" data-name="组 21519" transform="translate(365.917 146.929)">
        <path id="路径_37697" data-name="路径 37697" d="M622.06,346l-16.189.989L594,372.442" transform="translate(-470.921 -291.813)" fill="none" stroke="#ef54a1" stroke-miterlimit="10" stroke-width="3"/>
        <path id="路径_37698" data-name="路径 37698" d="M647.03,280.662l-31.613-15.829,3.463,14.12" transform="translate(-480.781 -254.446)" fill="none" stroke="#000" stroke-miterlimit="10" stroke-width="3"/>
        <path id="路径_37699" data-name="路径 37699" d="M659.669,269.792,637.994,259l-3.328,7.735" transform="translate(-489.643 -251.76)" fill="none" stroke="#000" stroke-miterlimit="10" stroke-width="3"/>
        <g id="组_21518" data-name="组 21518">
          <path id="路径_37700" data-name="路径 37700" d="M546.2,481.955l-21.135-10.523L523,461" transform="translate(-438.234 -344.756)" fill="none" stroke="#0c111a" stroke-miterlimit="10" stroke-width="3"/>
          <path id="路径_37701" data-name="路径 37701" d="M557.081,474.72,536,464l.9,7.914" transform="translate(-444.219 -346.137)" fill="none" stroke="#0c111a" stroke-miterlimit="10" stroke-width="3"/>
          <path id="路径_37702" data-name="路径 37702" d="M545.935,440.774l-41.1-22.125,4.317-9.983,7.825,3.418L522.191,403" transform="translate(-429.871 -318.054)" fill="none" stroke="#0c111a" stroke-miterlimit="10" stroke-width="3"/>
          <path id="路径_37703" data-name="路径 37703" d="M531.333,423.48l7.1-14.48,20.416,10.792" transform="translate(-442.071 -320.816)" fill="none" stroke="#0c111a" stroke-miterlimit="10" stroke-width="3"/>
          <path id="路径_37704" data-name="路径 37704" d="M578.853,390.268l-17.019-32.2L580.45,322" transform="translate(-456.112 -280.764)" fill="none" stroke="#0c111a" stroke-miterlimit="10" stroke-width="3"/>
          <path id="路径_37705" data-name="路径 37705" d="M574,339.962l15.649-30.489,27.881-4.047,1.169-2.788L583.713,286l-4.766,7.645" transform="translate(-461.713 -264.19)" fill="none" stroke="#0c111a" stroke-miterlimit="10" stroke-width="3"/>
          <path id="路径_37706" data-name="路径 37706" d="M590.03,278.01l-10.163-4.677-3.867,8.9" transform="translate(-462.634 -258.359)" fill="none" stroke="#0080f4" stroke-miterlimit="10" stroke-width="3"/>
          <path id="路径_37707" data-name="路径 37707" d="M594.646,344l-14.48,26.442,12.321,18.707" transform="translate(-464.552 -290.892)" fill="none" stroke="#ef54a1" stroke-miterlimit="10" stroke-width="3"/>
          <path id="路径_37708" data-name="路径 37708" d="M525.5,338.178,534.134,321l22.484,4.317" transform="translate(-439.385 -280.303)" fill="none" stroke="#ef54a1" stroke-miterlimit="10" stroke-width="3"/>
          <line id="直线_322" data-name="直线 322" x1="18.977" y2="37.774" transform="translate(99.785 41.236)" fill="none" stroke="#ef54a1" stroke-miterlimit="10" stroke-width="3"/>
          <path id="路径_37709" data-name="路径 37709" d="M544.411,357.33,532,344.109,539.645,329" transform="translate(-442.378 -283.986)" fill="none" stroke="#ef54a1" stroke-miterlimit="10" stroke-width="3"/>
          <path id="路径_37710" data-name="路径 37710" d="M479.517,302.336l-7.285,15.02-17-13.85-14.66-8.274L418,283" transform="translate(-389.895 -262.809)" fill="none" stroke="#ef54a1" stroke-miterlimit="10" stroke-width="3"/>
          <path id="路径_37711" data-name="路径 37711" d="M422.667,276.5l25.092,12.861,12.861,5.216,21.945,5.936" transform="translate(-392.043 -259.817)" fill="none" stroke="#ef54a1" stroke-miterlimit="10" stroke-width="3"/>
          <path id="路径_37712" data-name="路径 37712" d="M395.668,267.225l2.428-2.878,6.386,2.158v1.889l-3.867,5.666-9.353-4.857.929-4.851-9.023-4.288" transform="translate(-373.858 -252.25)" fill="none" stroke="#ef54a1" stroke-miterlimit="10" stroke-width="3"/>
          <circle id="椭圆_1666" data-name="椭圆 1666" cx="4.924" cy="4.924" r="4.924" fill="none" stroke="#ef54a1" stroke-miterlimit="10" stroke-width="3"/>
        </g>
      </g>
      <g id="组_21523" data-name="组 21523" transform="translate(500.451 143.678)">
        <g id="组_21522" data-name="组 21522" transform="translate(0 2.027)">
          <path id="路径_37713" data-name="路径 37713" d="M714.742,281.167l-11.962,42.99-46.947,20.056" transform="translate(-633.259 -260.751)" fill="none" stroke="#000" stroke-miterlimit="10" stroke-width="3"/>
          <line id="直线_323" data-name="直线 323" y1="14.213" x2="2.788" transform="translate(92.815 14.208)" fill="none" stroke="#000" stroke-miterlimit="10" stroke-width="3"/>
          <path id="路径_37714" data-name="路径 37714" d="M772,314.815l2.788-18.437,15.2-13.041,79.574-12.108" transform="translate(-686.739 -256.176)" fill="none" stroke="#000" stroke-miterlimit="10" stroke-width="3"/>
          <path id="路径_37715" data-name="路径 37715" d="M879.419,292l4.317,14.12-14.12,11.557L792,326.626" transform="translate(-695.947 -265.738)" fill="none" stroke="#000" stroke-miterlimit="10" stroke-width="3"/>
          <line id="直线_324" data-name="直线 324" x1="12.522" y1="28.61" transform="translate(182.821 5.746)" fill="none" stroke="#000" stroke-miterlimit="10" stroke-width="3"/>
          <path id="路径_37716" data-name="路径 37716" d="M799.458,814.871,764.679,809.8,735,787" transform="translate(-669.705 -493.625)" fill="none" stroke="#000" stroke-miterlimit="10" stroke-width="3"/>
          <path id="路径_37717" data-name="路径 37717" d="M754.37,643,732.11,617.229,654,609" transform="translate(-632.415 -411.678)" fill="none" stroke="#000" stroke-miterlimit="10" stroke-width="3"/>
          <line id="直线_325" data-name="直线 325" x2="79.034" y2="23.558" transform="translate(15.42 234.408)" fill="none" stroke="#000" stroke-miterlimit="10" stroke-width="3"/>
          <g id="组_21521" data-name="组 21521" transform="translate(40.067)">
            <g id="组_21520" data-name="组 21520" transform="translate(150.69)">
              <path id="路径_37718" data-name="路径 37718" d="M1007.478,249.92l-26.217-6.587,26.217,34.356L967.5,314.833l23.653,20.775" transform="translate(-967.5 -243.333)" fill="none" stroke="#0c111a" stroke-miterlimit="10" stroke-width="3"/>
              <path id="路径_37719" data-name="路径 37719" d="M1088.155,284.333l-15.2,5.576L1052,268.684l6.522-1.543,10.206,3.791" transform="translate(-1006.402 -254.294)" fill="none" stroke="#0c111a" stroke-miterlimit="10" stroke-width="3"/>
              <path id="路径_37720" data-name="路径 37720" d="M1146,341.174l-5.88,5.209-15.524-8.717L1112,347.02l3.777,18.347" transform="translate(-1034.024 -286.762)" fill="none" stroke="#0c111a" stroke-miterlimit="10" stroke-width="3"/>
            </g>
            <path id="路径_37721" data-name="路径 37721" d="M1059.951,350l5.576,39.392L1047,407.2" transform="translate(-853.41 -292.44)" fill="none" stroke="#000" stroke-miterlimit="10" stroke-width="3"/>
            <path id="路径_37722" data-name="路径 37722" d="M1132.245,393l-71.77,68.667L1054,496.7" transform="translate(-856.633 -312.236)" fill="none" stroke="#000" stroke-miterlimit="10" stroke-width="3"/>
            <line id="直线_326" data-name="直线 326" y1="65.474" x2="7.285" transform="translate(281.009 135.625)" fill="none" stroke="#000" stroke-miterlimit="10" stroke-width="3"/>
            <path id="路径_37723" data-name="路径 37723" d="M1158.562,422.109,1145.611,407l-10.253,10.792,3.093,49.552L1076,529.494" transform="translate(-866.761 -318.682)" fill="none" stroke="#0c111a" stroke-miterlimit="10" stroke-width="3"/>
            <path id="路径_37724" data-name="路径 37724" d="M1148.962,584l-2.7,17.268L1095,649.294" transform="translate(-875.508 -400.169)" fill="none" stroke="#000" stroke-miterlimit="10" stroke-width="3"/>
            <line id="直线_327" data-name="直线 327" x1="42.63" y2="38.043" transform="translate(234.601 225.113)" fill="none" stroke="#000" stroke-miterlimit="10" stroke-width="3"/>
            <path id="路径_37725" data-name="路径 37725" d="M1037.734,784.413l-1.484-23.743,57.6-7.42" transform="translate(-848.461 -478.087)" fill="none" stroke="#000" stroke-miterlimit="10" stroke-width="3"/>
            <path id="路径_37726" data-name="路径 37726" d="M914.294,810.873l58.39-26.621-1-16.7" transform="translate(-792.315 -484.671)" fill="none" stroke="#000" stroke-miterlimit="10" stroke-width="3"/>
            <path id="路径_37727" data-name="路径 37727" d="M966.113,733l-87.419,1.079L842,762.679" transform="translate(-759.033 -468.765)" fill="none" stroke="#000" stroke-miterlimit="10" stroke-width="3"/>
            <path id="路径_37728" data-name="路径 37728" d="M905,800.763l20.365-7.579L916.2,762" transform="translate(-788.037 -482.116)" fill="none" stroke="#000" stroke-miterlimit="10" stroke-width="3"/>
            <path id="路径_37729" data-name="路径 37729" d="M870.508,699.25l-94.434.4-41.281,36.452L688.25,715.843" transform="translate(-688.25 -453.227)" fill="none" stroke="#0c111a" stroke-miterlimit="10" stroke-width="3"/>
          </g>
          <line id="直线_328" data-name="直线 328" x2="66.907" y2="1.606" transform="translate(14.576 161.72)" fill="none" stroke="#000" stroke-miterlimit="10" stroke-width="3"/>
          <path id="路径_37730" data-name="路径 37730" d="M619,565.947l3.238-29.14L631.951,519" transform="translate(-616.302 -370.244)" fill="none" stroke="#000" stroke-miterlimit="10" stroke-width="3"/>
          <path id="路径_37731" data-name="路径 37731" d="M614,480.166l11.332-32.377,75.007-7.015L727.321,403" transform="translate(-614 -316.84)" fill="none" stroke="#0c111a" stroke-miterlimit="10" stroke-width="3"/>
          <line id="直线_329" data-name="直线 329" y1="24.733" x2="77.166" transform="translate(15.11 79.145)" fill="none" stroke="#000" stroke-miterlimit="10" stroke-width="3"/>
        </g>
        <circle id="椭圆_1667" data-name="椭圆 1667" cx="3.972" cy="3.972" r="3.972" transform="translate(14.645 82.922)" fill="none" stroke="#000" stroke-miterlimit="10" stroke-width="3"/>
        <circle id="椭圆_1668" data-name="椭圆 1668" cx="3.972" cy="3.972" r="3.972" transform="translate(92.816 7.773)" fill="none" stroke="#000" stroke-miterlimit="10" stroke-width="3"/>
        <circle id="椭圆_1669" data-name="椭圆 1669" cx="3.972" cy="3.972" r="3.972" transform="translate(177.223)" fill="none" stroke="#000" stroke-miterlimit="10" stroke-width="3"/>
        <circle id="椭圆_1670" data-name="椭圆 1670" cx="3.972" cy="3.972" r="3.972" transform="translate(253.084 16.222)" fill="none" stroke="#000" stroke-miterlimit="10" stroke-width="3"/>
        <circle id="椭圆_1671" data-name="椭圆 1671" cx="3.972" cy="3.972" r="3.972" transform="translate(269.676 80.976)" fill="none" stroke="#000" stroke-miterlimit="10" stroke-width="3"/>
        <circle id="椭圆_1672" data-name="椭圆 1672" cx="3.972" cy="3.972" r="3.972" transform="translate(325.146 129.543)" fill="none" stroke="#000" stroke-miterlimit="10" stroke-width="3"/>
        <circle id="椭圆_1673" data-name="椭圆 1673" cx="3.972" cy="3.972" r="3.972" transform="translate(285.79 272.347)" fill="none" stroke="#000" stroke-miterlimit="10" stroke-width="3"/>
        <circle id="椭圆_1674" data-name="椭圆 1674" cx="3.972" cy="3.972" r="3.972" transform="translate(162.771 273.966)" fill="none" stroke="#000" stroke-miterlimit="10" stroke-width="3"/>
        <circle id="椭圆_1675" data-name="椭圆 1675" cx="3.972" cy="3.972" r="3.972" transform="translate(32.306 258.533)" fill="none" stroke="#0c111a" stroke-miterlimit="10" stroke-width="3"/>
      </g>
      <g id="组_21524" data-name="组 21524" transform="translate(584.883 223.352)">
        <path id="路径_37732" data-name="路径 37732" d="M815.771,482.909A156.875,156.875,0,0,0,826.75,513.3c5.038,10.31,11.077,19.377,17.854,25.945s14.387,10.689,22.419,10.689c12.636,0,23.985-6.284,33.108-12.366,4.563-3.04,8.587-6.052,11.844-8.261s5.972-3.409,6.819-3.409c2.226,0,5.639,1.091,9.188,2.6s7.257,3.343,10.458,4.622a1.943,1.943,0,0,0,2.542-1.675,23.881,23.881,0,0,0-15.311-22.535,28.333,28.333,0,0,0-23.112,1.329c4.2-8.988,8.938-18.679,13.057-28.485,4.888-11.638,8.725-22.8,8.725-31.664,0-37.9-28.439-62.865-55.469-62.865-30.475,0-57.259,23.081-57.318,59.051,0,.02,0,.038,0,.057v.057a108.634,108.634,0,0,0,.462,14.851l.4,3.7c.557,4.526,1.291,9.14,2.312,13.751Z" transform="translate(-789.358 -387.225)" fill="none" stroke="#1a1311" stroke-miterlimit="10" stroke-width="3"/>
        <path id="路径_37733" data-name="路径 37733" d="M795.868,541.837c-5.019-.7-9.777,1.407-14.1,3.178-2.513,1.028-4.717,1.731-5.835,1.677-2.627-1.627-2.026-4.972-.867-7.164a20.054,20.054,0,0,1,4.68-5.49c4.338-2.884,9.261-5.583,13.81-5.952l-.4-3.7a28.529,28.529,0,0,0-15.774,6.817,23.281,23.281,0,0,0-5.547,6.529c-2.263,5.033-2.086,11.074,3.929,12.656,2.463.117,4.882-.914,7.453-1.965,4.266-1.58,9.589-4.416,13.693-2.369Z" transform="translate(-770.493 -450.372)" fill="#070203"/>
        <path id="路径_37734" data-name="路径 37734" d="M926.6,466.356a1.95,1.95,0,0,1-2.89,1.5c-2.3-1.533-6.166-2.426-10.053-2.426s-7.812.893-10.112,2.426a1.948,1.948,0,0,1-2.831-1.5c0-5.65.414-12.262,2.138-17.682,1.6-4.946,4.763-9.509,10.805-10.053,4.941.094,8.25,5.357,10.053,10a54.493,54.493,0,0,1,2.89,17.739" transform="translate(-830.443 -410.887)" fill="#070203"/>
        <path id="路径_37735" data-name="路径 37735" d="M838.443,467.857a1.949,1.949,0,0,1-2.833-1.5c0-5.65.414-12.262,2.137-17.682,1.6-4.946,4.763-9.509,10.805-10.053,4.941.094,8.25,5.357,10.055,10a54.523,54.523,0,0,1,2.888,17.739,1.949,1.949,0,0,1-2.888,1.5c-2.3-1.533-6.168-2.426-10.055-2.426S840.741,466.324,838.443,467.857Z" transform="translate(-800.471 -410.887)" fill="#070203"/>
        <path id="路径_37736" data-name="路径 37736" d="M906.6,532.8c-10.5-7.877-21.591-6.544-30.161-2.368A33.552,33.552,0,0,0,866.212,538c-2.4,2.8-4.576,6.832-.462,8.957a19.526,19.526,0,0,0,6.531-.347c6.129-1.025,12.381-2.084,18.142,1.791l-2.311,2.888c-3.942-3.049-10.142-1.81-15.2-1.039-2.807.468-5.519.937-8.03.346-8.06-2.1-5-10.7-1.444-15.023a36.827,36.827,0,0,1,11.382-8.435c11.452-5.484,23.09-4.678,34.032,2.716Z" transform="translate(-811.602 -449.996)" fill="#070203"/>
      </g>
    </g>
  </g>
</svg>
