<svg xmlns="http://www.w3.org/2000/svg" width="386.951" height="196.818" viewBox="0 0 386.951 196.818">
  <g id="点对点加密" transform="translate(-444.75 -3218.983)">
    <g id="组_21354" data-name="组 21354" transform="translate(445 3228.286)">
      <path id="路径_37059" data-name="路径 37059" d="M123.423,163.963,279.736,73.719l167.478,96.694L290.9,260.656Z" transform="translate(-120.221 -73.719)" fill="none" stroke="#2d3436" stroke-miterlimit="10" stroke-width="1"/>
      <path id="路径_37060" data-name="路径 37060" d="M158.028,167.611,286.056,93.694l137.173,79.2L295.2,246.808Z" transform="translate(-125.531 -76.784)" fill="none" stroke="#0080f4" stroke-miterlimit="10" stroke-width="0.8" stroke-dasharray="4"/>
      <path id="路径_37061" data-name="路径 37061" d="M177.272,169.64,289.57,104.8l120.32,69.469-112.3,64.836-51.867-29.947Z" transform="translate(-128.484 -78.489)" fill="none" stroke="#2d3436" stroke-miterlimit="10" stroke-width="0.7"/>
      <g id="组_21357" data-name="组 21357" transform="translate(250.583 2.394)">
        <g id="组_21322" data-name="组 21322" transform="translate(0 13.675)">
          <path id="路径_37062" data-name="路径 37062" d="M438.136,99.162l-11.179-6.454a.054.054,0,0,0-.053,0l-11.175,6.458a.053.053,0,0,0-.019.072.043.043,0,0,0,.019.019l11.175,6.449a.051.051,0,0,0,.053,0l11.179-6.454a.053.053,0,0,0,0-.091Z" transform="translate(-415.65 -92.701)" fill="none" stroke="#0c111a" stroke-miterlimit="10" stroke-width="0.5"/>
          <path id="路径_37063" data-name="路径 37063" d="M426.921,106.94v7.945a.054.054,0,0,1-.054.053.055.055,0,0,1-.025-.008l-11.175-6.452a.052.052,0,0,1-.026-.046V100.49a.054.054,0,0,1,.08-.046l11.175,6.449A.054.054,0,0,1,426.921,106.94Z" transform="translate(-415.641 -93.888)" fill="none" stroke="#0c111a" stroke-miterlimit="10" stroke-width="0.5"/>
          <path id="路径_37064" data-name="路径 37064" d="M428.992,106.893l11.179-6.454a.053.053,0,0,1,.072.019.058.058,0,0,1,.007.026v7.942a.052.052,0,0,1-.026.046l-11.179,6.457a.052.052,0,0,1-.072-.019.061.061,0,0,1-.007-.027v-7.945A.054.054,0,0,1,428.992,106.893Z" transform="translate(-417.686 -93.887)" fill="none" stroke="#0c111a" stroke-miterlimit="10" stroke-width="0.5"/>
        </g>
        <g id="组_21323" data-name="组 21323" transform="translate(0 28.009)">
          <path id="路径_37065" data-name="路径 37065" d="M438.136,116.093l-11.179-6.453a.054.054,0,0,0-.053,0L415.729,116.1a.053.053,0,0,0-.019.072.043.043,0,0,0,.019.019l11.175,6.449a.054.054,0,0,0,.053,0l11.179-6.454a.053.053,0,0,0,.019-.073A.065.065,0,0,0,438.136,116.093Z" transform="translate(-415.65 -109.633)" fill="none" stroke="#0c111a" stroke-miterlimit="10" stroke-width="0.5"/>
          <path id="路径_37066" data-name="路径 37066" d="M426.921,123.875v7.945a.054.054,0,0,1-.054.053.055.055,0,0,1-.025-.008l-11.175-6.452a.052.052,0,0,1-.026-.046v-7.942a.054.054,0,0,1,.08-.046l11.175,6.449A.053.053,0,0,1,426.921,123.875Z" transform="translate(-415.641 -110.82)" fill="none" stroke="#0c111a" stroke-miterlimit="10" stroke-width="0.5"/>
          <path id="路径_37067" data-name="路径 37067" d="M428.992,123.828l11.179-6.454a.053.053,0,0,1,.072.019.057.057,0,0,1,.007.026v7.942a.052.052,0,0,1-.026.046l-11.179,6.457a.052.052,0,0,1-.072-.019.061.061,0,0,1-.007-.027v-7.945A.052.052,0,0,1,428.992,123.828Z" transform="translate(-417.686 -110.819)" fill="none" stroke="#0c111a" stroke-miterlimit="10" stroke-width="0.5"/>
        </g>
        <g id="组_21324" data-name="组 21324">
          <path id="路径_37068" data-name="路径 37068" d="M438.136,83.008l-11.179-6.454a.054.054,0,0,0-.053,0l-11.175,6.458a.053.053,0,0,0-.019.072.043.043,0,0,0,.019.019l11.175,6.45a.054.054,0,0,0,.053,0L438.136,83.1a.053.053,0,0,0,0-.091Z" transform="translate(-415.65 -76.547)" fill="none" stroke="#0c111a" stroke-miterlimit="10" stroke-width="0.5"/>
          <path id="路径_37069" data-name="路径 37069" d="M426.921,90.786v7.945a.054.054,0,0,1-.054.053.055.055,0,0,1-.025-.008l-11.175-6.452a.052.052,0,0,1-.026-.046V84.336a.054.054,0,0,1,.08-.046l11.175,6.45A.052.052,0,0,1,426.921,90.786Z" transform="translate(-415.641 -77.734)" fill="none" stroke="#0c111a" stroke-miterlimit="10" stroke-width="0.5"/>
          <path id="路径_37070" data-name="路径 37070" d="M428.992,90.74l11.179-6.455a.053.053,0,0,1,.072.019.058.058,0,0,1,.007.026v7.943a.051.051,0,0,1-.026.045l-11.179,6.457a.052.052,0,0,1-.072-.019.061.061,0,0,1-.007-.027V90.785A.049.049,0,0,1,428.992,90.74Z" transform="translate(-417.686 -77.733)" fill="none" stroke="#0c111a" stroke-miterlimit="10" stroke-width="0.5"/>
        </g>
      </g>
      <g id="组_21327" data-name="组 21327" transform="translate(309.016 63.688)">
        <g id="组_21325" data-name="组 21325">
          <path id="路径_37071" data-name="路径 37071" d="M484.8,160.645l20.233-11.683a.084.084,0,0,1,.085,0l20.218,11.689a.086.086,0,0,1,.025.118.079.079,0,0,1-.025.025l-20.218,11.671a.084.084,0,0,1-.085,0L484.8,160.782a.084.084,0,0,1-.019-.118A.106.106,0,0,1,484.8,160.645Z" transform="translate(-484.681 -148.951)" fill="none" stroke="#2d3436" stroke-miterlimit="10" stroke-width="0.4"/>
          <path id="路径_37072" data-name="路径 37072" d="M508.762,174.68V178.7a.085.085,0,0,0,.088.081.086.086,0,0,0,.036-.01L529.1,167.1a.084.084,0,0,0,.042-.071v-4.02a.086.086,0,0,0-.089-.08.1.1,0,0,0-.035.009L508.8,174.609A.086.086,0,0,0,508.762,174.68Z" transform="translate(-488.362 -151.095)" fill="none" stroke="#2d3436" stroke-miterlimit="10" stroke-width="0.4"/>
          <path id="路径_37073" data-name="路径 37073" d="M505.021,174.607l-20.233-11.683a.085.085,0,0,0-.114.036.1.1,0,0,0-.009.035v4.025a.084.084,0,0,0,.041.071l20.233,11.683a.084.084,0,0,0,.114-.036.085.085,0,0,0,.009-.036v-4.024A.084.084,0,0,0,505.021,174.607Z" transform="translate(-484.665 -151.093)" fill="none" stroke="#2d3436" stroke-miterlimit="10" stroke-width="0.4"/>
        </g>
        <g id="组_21326" data-name="组 21326" transform="translate(11.148 5.879)">
          <path id="路径_37074" data-name="路径 37074" d="M507.146,155.9c5.1.059,9.212,2.75,9.175,6.011s-4.207,5.858-9.312,5.8-9.212-2.751-9.175-6.011S502.041,155.837,507.146,155.9Z" transform="translate(-497.834 -155.895)" fill="none" stroke="#2d3436" stroke-miterlimit="10" stroke-width="0.3"/>
          <path id="路径_37075" data-name="路径 37075" d="M507.676,158.181c3.433.04,6.2,1.85,6.17,4.043s-2.829,3.94-6.265,3.9-6.2-1.85-6.17-4.043S504.239,158.141,507.676,158.181Z" transform="translate(-498.383 -156.245)" fill="none" stroke="#2d3436" stroke-miterlimit="10" stroke-width="0.26"/>
          <path id="路径_37076" data-name="路径 37076" d="M508.131,160.173c1.976.023,3.565,1.064,3.551,2.326s-1.627,2.267-3.6,2.244-3.565-1.064-3.55-2.326S506.156,160.15,508.131,160.173Z" transform="translate(-498.861 -156.551)" fill="none" stroke="#2d3436" stroke-miterlimit="10" stroke-width="0.198"/>
          <path id="路径_37077" data-name="路径 37077" d="M508.4,161.345c1.117.013,2.017.6,2.009,1.316s-.921,1.283-2.039,1.27-2.017-.6-2.01-1.316S507.284,161.332,508.4,161.345Z" transform="translate(-499.142 -156.731)" fill="#fff" stroke="#2d3436" stroke-width="0.3"/>
        </g>
      </g>
      <g id="组_21330" data-name="组 21330" transform="translate(276.864 45.108)">
        <g id="组_21328" data-name="组 21328">
          <path id="路径_37078" data-name="路径 37078" d="M446.995,138.591l20.03-11.563a.183.183,0,0,1,.184,0L487.224,138.6a.185.185,0,0,1,.068.251.19.19,0,0,1-.068.067l-20.015,11.556a.183.183,0,0,1-.184,0l-20.03-11.567a.184.184,0,0,1-.063-.253A.193.193,0,0,1,446.995,138.591Z" transform="translate(-446.72 -127.003)" fill="none" stroke="#2d3436" stroke-miterlimit="10" stroke-width="0.5"/>
          <path id="路径_37079" data-name="路径 37079" d="M470.782,152.787v3.789a.183.183,0,0,0,.275.159l20.015-11.559a.183.183,0,0,0,.091-.159v-3.787a.183.183,0,0,0-.184-.183.191.191,0,0,0-.091.024l-20.015,11.556A.187.187,0,0,0,470.782,152.787Z" transform="translate(-450.383 -129.158)" fill="none" stroke="#2d3436" stroke-miterlimit="10" stroke-width="0.5"/>
          <path id="路径_37080" data-name="路径 37080" d="M466.993,152.626,446.961,141.06a.184.184,0,0,0-.251.069.18.18,0,0,0-.025.091V145a.183.183,0,0,0,.091.159l20.03,11.567a.184.184,0,0,0,.276-.159v-3.789A.186.186,0,0,0,466.993,152.626Z" transform="translate(-446.686 -129.156)" fill="none" stroke="#2d3436" stroke-miterlimit="10" stroke-width="0.5"/>
        </g>
        <g id="组_21329" data-name="组 21329" transform="translate(11.147 5.865)">
          <path id="路径_37081" data-name="路径 37081" d="M469.166,133.932c5.1.059,9.212,2.751,9.174,6.011s-4.207,5.858-9.312,5.8-9.212-2.75-9.174-6.011S464.061,133.874,469.166,133.932Z" transform="translate(-459.854 -133.931)" fill="none" stroke="#2d3436" stroke-miterlimit="10" stroke-width="0.3"/>
          <path id="路径_37082" data-name="路径 37082" d="M469.692,136.217c3.433.04,6.2,1.85,6.17,4.044s-2.828,3.939-6.265,3.9-6.2-1.85-6.17-4.043S466.259,136.177,469.692,136.217Z" transform="translate(-460.402 -134.282)" fill="none" stroke="#2d3436" stroke-miterlimit="10" stroke-width="0.26"/>
          <path id="路径_37083" data-name="路径 37083" d="M470.151,138.209c1.975.023,3.565,1.065,3.55,2.326s-1.628,2.267-3.6,2.244-3.565-1.064-3.55-2.326S468.176,138.186,470.151,138.209Z" transform="translate(-460.881 -134.587)" fill="none" stroke="#2d3436" stroke-miterlimit="10" stroke-width="0.198"/>
          <path id="路径_37084" data-name="路径 37084" d="M470.421,139.381c1.117.013,2.017.6,2.009,1.316s-.921,1.283-2.039,1.27-2.017-.6-2.009-1.317S469.3,139.367,470.421,139.381Z" transform="translate(-461.162 -134.767)" fill="#fff" stroke="#2d3436" stroke-width="0.3"/>
        </g>
      </g>
      <g id="组_21358" data-name="组 21358" transform="translate(0 24.477)">
        <g id="组_21338" data-name="组 21338" transform="translate(55.027)">
          <path id="路径_37102" data-name="路径 37102" d="M207.136,109.093l-11.179-6.453a.054.054,0,0,0-.053,0L184.729,109.1a.053.053,0,0,0-.019.072.043.043,0,0,0,.019.019l11.175,6.449a.054.054,0,0,0,.053,0l11.179-6.454a.053.053,0,0,0,.019-.073A.065.065,0,0,0,207.136,109.093Z" transform="translate(-184.65 -102.633)" fill="none" stroke="#2d3436" stroke-miterlimit="10" stroke-width="0.5"/>
          <path id="路径_37103" data-name="路径 37103" d="M195.921,116.875v7.945a.054.054,0,0,1-.054.053.055.055,0,0,1-.025-.008l-11.175-6.452a.052.052,0,0,1-.026-.046v-7.942a.054.054,0,0,1,.08-.046l11.175,6.449A.053.053,0,0,1,195.921,116.875Z" transform="translate(-184.641 -103.82)" fill="none" stroke="#2d3436" stroke-miterlimit="10" stroke-width="0.5"/>
          <path id="路径_37104" data-name="路径 37104" d="M197.992,116.828l11.179-6.454a.053.053,0,0,1,.072.019.058.058,0,0,1,.007.026v7.942a.052.052,0,0,1-.026.046l-11.179,6.457a.052.052,0,0,1-.072-.019.061.061,0,0,1-.007-.027v-7.945A.052.052,0,0,1,197.992,116.828Z" transform="translate(-186.686 -103.819)" fill="none" stroke="#2d3436" stroke-miterlimit="10" stroke-width="0.5"/>
        </g>
        <g id="组_21355" data-name="组 21355" transform="translate(27.937 16.085)">
          <path id="路径_37102-2" data-name="路径 37102-2" d="M175.136,128.093l-11.179-6.453a.054.054,0,0,0-.053,0L152.729,128.1a.053.053,0,0,0-.019.072.043.043,0,0,0,.019.019l11.175,6.449a.054.054,0,0,0,.053,0l11.179-6.454a.053.053,0,0,0,.019-.073A.065.065,0,0,0,175.136,128.093Z" transform="translate(-152.65 -121.633)" fill="none" stroke="#2d3436" stroke-miterlimit="10" stroke-width="0.5"/>
          <path id="路径_37103-2" data-name="路径 37103-2" d="M163.921,135.875v7.945a.054.054,0,0,1-.054.053.055.055,0,0,1-.025-.008l-11.175-6.452a.052.052,0,0,1-.026-.046v-7.942a.054.054,0,0,1,.08-.046l11.175,6.449A.053.053,0,0,1,163.921,135.875Z" transform="translate(-152.641 -122.82)" fill="none" stroke="#2d3436" stroke-miterlimit="10" stroke-width="0.5"/>
          <path id="路径_37104-2" data-name="路径 37104-2" d="M165.992,135.828l11.179-6.454a.053.053,0,0,1,.072.019.058.058,0,0,1,.007.026v7.942a.052.052,0,0,1-.026.046l-11.179,6.457a.052.052,0,0,1-.072-.019.061.061,0,0,1-.007-.027v-7.945A.052.052,0,0,1,165.992,135.828Z" transform="translate(-154.686 -122.819)" fill="none" stroke="#2d3436" stroke-miterlimit="10" stroke-width="0.5"/>
        </g>
        <g id="组_21356" data-name="组 21356" transform="translate(0 32.169)">
          <path id="路径_37102-3" data-name="路径 37102-3" d="M142.136,147.093l-11.179-6.453a.054.054,0,0,0-.053,0L119.729,147.1a.053.053,0,0,0-.019.072.043.043,0,0,0,.019.019l11.175,6.449a.054.054,0,0,0,.053,0l11.179-6.454a.053.053,0,0,0,.019-.073A.065.065,0,0,0,142.136,147.093Z" transform="translate(-119.65 -140.633)" fill="none" stroke="#2d3436" stroke-miterlimit="10" stroke-width="0.5"/>
          <path id="路径_37103-3" data-name="路径 37103-3" d="M130.921,154.875v7.945a.054.054,0,0,1-.054.053.056.056,0,0,1-.025-.008l-11.175-6.452a.052.052,0,0,1-.026-.046v-7.942a.054.054,0,0,1,.08-.046l11.175,6.449A.053.053,0,0,1,130.921,154.875Z" transform="translate(-119.641 -141.82)" fill="none" stroke="#2d3436" stroke-miterlimit="10" stroke-width="0.5"/>
          <path id="路径_37104-3" data-name="路径 37104-3" d="M132.992,154.828l11.179-6.454a.053.053,0,0,1,.072.019.058.058,0,0,1,.007.026v7.942a.052.052,0,0,1-.026.046l-11.179,6.457a.052.052,0,0,1-.072-.019.061.061,0,0,1-.007-.027v-7.945A.052.052,0,0,1,132.992,154.828Z" transform="translate(-121.686 -141.819)" fill="none" stroke="#2d3436" stroke-miterlimit="10" stroke-width="0.5"/>
        </g>
      </g>
      <path id="路径_37108" data-name="路径 37108" d="M378.077,179.268a2.832,2.832,0,0,0,.053-.508h0l.034-4.851a2.757,2.757,0,0,1-.054.508c-.009.053-.026.106-.04.159a2.781,2.781,0,0,1-.11.352c-.026.068-.054.135-.085.2s-.066.136-.1.2-.085.148-.134.221-.085.133-.137.2-.111.143-.169.214-.111.129-.169.192-.137.137-.209.206-.133.124-.2.184c-.055.047-.114.091-.169.136a6.688,6.688,0,0,1-.774.53l-70.627,41.044a8.865,8.865,0,0,1-1.316.617c-.156.059-.327.1-.488.149-.319.1-.637.209-.972.285-.254.058-.519.091-.781.134-.24.039-.475.089-.719.114-.267.029-.538.032-.808.045-.246.012-.491.035-.738.033a13.637,13.637,0,0,1-1.416-.079c-.112-.012-.221-.034-.332-.049-.378-.051-.753-.11-1.119-.192l-.237-.056a10.829,10.829,0,0,1-1.236-.376c-.06-.023-.117-.048-.175-.071a8.851,8.851,0,0,1-1.174-.555l-71.079-41.037a5.125,5.125,0,0,1-2.075-2.011,2.917,2.917,0,0,1-.339-1.355h0l-.035,4.851c0,1.216.8,2.434,2.413,3.365l71.079,41.037a8.847,8.847,0,0,0,1.174.554c.059.023.115.048.174.07a11.006,11.006,0,0,0,1.236.377c.08.019.157.038.238.056.1.022.194.05.294.069.27.054.549.085.825.124.111.014.219.037.332.049.444.047.892.077,1.342.085h.074c.247,0,.492-.02.738-.033.27-.013.541-.016.808-.045.245-.026.479-.075.719-.114s.476-.061.705-.112c.026-.006.05-.016.076-.022.339-.077.653-.182.972-.285.161-.052.331-.09.488-.149a8.865,8.865,0,0,0,1.316-.617l70.626-41.044a6.7,6.7,0,0,0,.775-.53c.027-.021.062-.04.085-.061s.055-.051.085-.075c.071-.06.138-.122.2-.184s.144-.135.209-.2.117-.128.169-.192.119-.142.169-.214.094-.132.137-.2.092-.146.133-.221.072-.135.1-.2c.018-.038.042-.075.058-.113s.016-.059.028-.085a3.027,3.027,0,0,0,.11-.352C378.05,179.374,378.066,179.322,378.077,179.268Z" transform="translate(-135.061 -89.084)" fill="none" stroke="#0080f4" stroke-miterlimit="10" stroke-width="0.8"/>
      <path id="路径_37109" data-name="路径 37109" d="M375.765,162.261c3.191,1.842,3.208,4.825.038,6.668l-70.627,41.044a12.673,12.673,0,0,1-11.513,0l-71.078-41.037c-3.2-1.848-3.217-4.831-.047-6.673l70.626-41.044a12.689,12.689,0,0,1,11.521.006Z" transform="translate(-135.066 -80.795)" fill="none" stroke="#0080f4" stroke-miterlimit="10" stroke-width="0.8"/>
      <g id="组_21346" data-name="组 21346" transform="translate(284.505 85.502)">
        <g id="组_21343" data-name="组 21343" transform="translate(0.905)">
          <path id="路径_37115" data-name="路径 37115" d="M531.67,243.078a1.1,1.1,0,0,0-.007-.149c-.007-.05-.007-.1-.012-.149s-.01-.1-.017-.151-.014-.1-.022-.155v-.006c-.008-.05-.016-.1-.025-.149s-.021-.107-.033-.16-.024-.108-.037-.161-.028-.109-.043-.163-.024-.085-.036-.125V241.7l-.008-.025c-.016-.053-.033-.106-.051-.159s-.036-.1-.054-.156-.037-.1-.057-.151-.039-.1-.059-.149l-.048-.112v-.01l-.011-.025c-.022-.05-.044-.1-.068-.149s-.051-.108-.078-.161-.063-.123-.095-.184-.072-.13-.109-.195l-.019-.033c-.008-.014-.015-.028-.024-.041-.072-.123-.148-.244-.227-.362-.063-.094-.128-.186-.194-.277h0c-.045-.06-.09-.119-.136-.178s-.078-.1-.118-.146l-.119-.139c-.039-.046-.079-.089-.119-.133l-.025-.025-.01-.01-.091-.1c-.03-.031-.085-.085-.13-.129s-.09-.085-.135-.125-.091-.085-.136-.119l-.07-.057-.015-.013-.052-.041c-.044-.036-.09-.07-.135-.1s-.085-.064-.134-.095-.085-.058-.13-.085-.085-.054-.13-.08l-.03-.018-21.747-12.557-.1-.054-.126-.065-.08-.038-.019-.009-.024-.011c-.041-.019-.085-.036-.123-.052s-.085-.032-.124-.047l-.021-.007-.018-.006c-.028-.01-.056-.019-.085-.028s-.085-.025-.127-.035l-.06-.014-.026-.006-.039-.008c-.045-.008-.09-.016-.134-.022l-.085-.008h-.055c-.049,0-.1-.005-.144-.005h-.159a1.563,1.563,0,0,0-.177.025h0a.2.2,0,0,0-.037.01,1.436,1.436,0,0,0-.169.048l-.013.006a1.6,1.6,0,0,0-.235.108L456.781,252.99a1.549,1.549,0,0,1,.423-.163.2.2,0,0,0,.037-.01,1.73,1.73,0,0,1,.229-.029h.047a2.149,2.149,0,0,1,.234.005h.027a2.36,2.36,0,0,1,.254.039l.026.006c.091.021.181.046.27.075l.018.006q.143.051.292.117l.019.009c.1.047.2.1.3.157l21.749,12.556a4.81,4.81,0,0,1,.61.423l.016.013a6.229,6.229,0,0,1,.562.525l.01.011a7.042,7.042,0,0,1,.515.621h0a7.283,7.283,0,0,1,.444.677l.019.034a7.293,7.293,0,0,1,.361.713v.009a6.846,6.846,0,0,1,.278.753v.011a5.836,5.836,0,0,1,.175.758h0a4.7,4.7,0,0,1,.06.747,3.385,3.385,0,0,1-.063.66l0,.019a2.338,2.338,0,0,1-.174.542v.008a1.767,1.767,0,0,1-.231.357c-.028.036-.055.073-.085.1a1.483,1.483,0,0,1-.339.277h0l47.911-27.843a1.457,1.457,0,0,0,.339-.276c.031-.033.057-.07.085-.106a1.334,1.334,0,0,0,.111-.138,1.738,1.738,0,0,0,.116-.21v-.009l0-.008c.023-.051.046-.1.066-.157s.037-.106.053-.162.029-.1.041-.157c.005-.022.009-.045.014-.067v-.019c.005-.021.009-.042.014-.064.008-.048.015-.1.021-.146s.011-.1.015-.148.008-.1.008-.145,0-.1,0-.148v-.008A.586.586,0,0,0,531.67,243.078Z" transform="translate(-456.781 -182.425)" fill="none" stroke="#0c111a" stroke-miterlimit="10" stroke-width="0.7"/>
          <path id="路径_37126" data-name="路径 37126" d="M520.6,174.718l46.783,27.109-37.658,23.686" transform="translate(-466.573 -174.718)" fill="none" stroke="#0c111a" stroke-width="0.5"/>
        </g>
        <g id="组_21344" data-name="组 21344" transform="translate(0 70.364)">
          <path id="路径_37116" data-name="路径 37116" d="M480.537,270.812a6.74,6.74,0,0,1,3.059,5.3c-.006,1.947-1.383,2.734-3.08,1.755l-21.749-12.557a6.743,6.743,0,0,1-3.055-5.3c.005-1.947,1.382-2.734,3.076-1.758Z" transform="translate(-455.712 -257.835)" fill="none" stroke="#0c111a" stroke-miterlimit="10" stroke-width="0.7"/>
        </g>
        <g id="组_21345" data-name="组 21345" transform="translate(11.927 79.109)">
          <path id="路径_37117" data-name="路径 37117" d="M473.389,270.04a.976.976,0,0,1,.442.762c0,.281-.2.395-.445.254l-3.143-1.814a.975.975,0,0,1-.441-.762c0-.281.2-.394.444-.254Z" transform="translate(-469.801 -268.166)" fill="none" stroke="#0c111a" stroke-width="0.7"/>
        </g>
        <path id="路径_37118" data-name="路径 37118" d="M513.907,229.116a1.357,1.357,0,0,1-.672-.161.395.395,0,0,1-.005-.749,1.487,1.487,0,0,1,1.344,0,.465.465,0,0,1,.273.376.458.458,0,0,1-.269.373A1.356,1.356,0,0,1,513.907,229.116Zm2.8,1.071a.457.457,0,0,0,.268-.373.464.464,0,0,0-.273-.376,1.388,1.388,0,0,0-.677-.161,1.369,1.369,0,0,0-.67.161.395.395,0,0,0,0,.749,1.481,1.481,0,0,0,1.344,0Zm2.147,1.232a.395.395,0,0,0-.005-.749,1.485,1.485,0,0,0-1.343,0,.394.394,0,0,0,0,.749,1.481,1.481,0,0,0,1.344,0Z" transform="translate(-464.496 -182.9)" fill="#09285a" opacity="0.2"/>
      </g>
      <path id="路径_37125" data-name="路径 37125" d="M390.826,221.876l55.111,32.176" transform="translate(-161.251 -96.452)" fill="none" stroke="#0c111a" stroke-width="0.5" stroke-dasharray="4"/>
    </g>
    <g id="组_21364" data-name="组 21364" transform="translate(572.722 3232.352)">
      <path id="路径_37121" data-name="路径 37121" d="M299.085,84.7a.364.364,0,0,1,.527.127l1.4,2.588c.041.124,7.033,12.57,22.992,21.784.589.34,1.217.7,1.848,1.019l2.033,1.087a.361.361,0,0,1,.192.322l-.107,37.855c-.029,9.942-2.969,22.845-28.031,19.49l-.8-.122-.8-.8c-25-25.548-27.857-41.751-27.828-51.74l.106-37.422a.364.364,0,0,1,.555-.308l1.673,1.038c.627.386,1.239.752,1.841,1.1,15.738,9.086,22.687,5.079,23.11,4.865a.344.344,0,0,0,.042-.025Z" transform="translate(-270.513 -78.522)" fill="none" stroke="#0080f4" stroke-miterlimit="10" stroke-width="2"/>
    </g>
    <path id="路径_37123" data-name="路径 37123" d="M2606.889,3242.069l-.114,26.762,9.411,12.881,11.49,15.488h26.652l30.649-1.464-.666-8.383v-32.734l-8.129-5.189-16.924-11.843-20.521-10.113-6.8,2Z" transform="translate(-2033.4 -1.147)" fill="#fff"/>
    <path id="路径_37120" data-name="路径 37120" d="M346.792,95.852c-.632-.317-1.259-.679-1.848-1.02-15.959-9.213-22.95-21.659-22.992-21.783l-1.411-2.615a.364.364,0,0,0-.5-.141l-2.368,1.376-.078.026-.171.054-.157.046-.191.053-.178.045c-.069.018-.141.035-.214.051s-.13.029-.2.043l-.2.04q-.236.046-.5.085l-.113.018c-.21.03-.433.056-.665.078l-.235.019c-.129.01-.259.019-.394.027l-.275.011c-.136.005-.275.009-.418.011-.106,0-.213,0-.323,0s-.225,0-.339-.005-.246-.007-.371-.012-.24-.012-.362-.019-.276-.018-.418-.03l-.309-.026c-.155-.015-.315-.033-.475-.052l-.312-.037c-.082-.011-.169-.025-.253-.037-.386-.054-.786-.119-1.2-.2l-.166-.03c-.422-.083-.86-.182-1.311-.292l-.333-.085q-.578-.149-1.189-.328c-.073-.022-.143-.041-.218-.063-.457-.139-.93-.295-1.414-.463l-.377-.135q-.575-.207-1.177-.444c-.132-.052-.262-.1-.4-.156-.51-.207-1.032-.427-1.57-.666q-.561-.25-1.142-.527l-.3-.145q-.484-.234-.981-.486l-.31-.157q-.615-.315-1.248-.659c-.51-.278-1.029-.566-1.559-.872-.6-.348-1.214-.713-1.841-1.1l-2.041-1.266a.362.362,0,0,0-.374-.005l-20.15,11.71a.364.364,0,0,0-.009.624l1.712,1.062q.676.417,1.331.8c.171.1.341.2.51.3.53.306,1.048.6,1.559.872l.068.038c.4.217.792.422,1.18.621l.31.157c.168.085.337.173.5.255s.319.154.478.231l.3.145c.368.175.732.345,1.089.5l.053.022c.538.24,1.059.46,1.57.666.046.019.095.041.141.059.088.036.169.063.257.1q.6.236,1.178.444c.079.028.163.063.241.091.046.016.088.028.135.044.484.168.957.324,1.414.463l.053.018c.057.017.108.028.164.045.407.121.8.229,1.189.328.062.016.13.037.19.053s.093.019.142.031c.451.111.89.21,1.311.292l.046.011.12.019c.416.079.814.145,1.2.2l.141.024.112.013c.106.014.208.025.312.037.16.019.319.037.475.052.1.01.207.019.309.027l.231.02c.064,0,.124.005.187.009.123.008.244.014.362.019s.249.01.371.013l.339.005.169,0c.053,0,.1,0,.154,0,.141,0,.279-.005.416-.01.094,0,.187-.007.278-.012.135-.007.264-.016.392-.026.057-.005.119-.007.174-.012l.062-.008c.233-.022.455-.047.665-.077l.113-.018c.174-.026.339-.055.5-.086l.08-.014.121-.026.2-.042.214-.051.178-.046c.066-.018.13-.035.192-.053l.157-.046.171-.054.137-.045.045-.015.058-.022c.1-.036.19-.069.272-.1l.064-.025c.1-.039.179-.075.251-.108l.045-.021c.058-.027.108-.051.148-.072l.034-.017.078-.04.008,0a.284.284,0,0,1,.031-.015l1.347-.782a.364.364,0,0,1,.5.141l1.34,2.483c.041.124,7.033,12.57,22.992,21.784.589.34,1.217.7,1.848,1.019l2.033,1.087a.361.361,0,0,1,.192.322l-.107,37.855c-.018,6.113-1.136,13.345-7.82,17.229l20.863-12.124c6.684-3.884,7.8-11.116,7.82-17.228l.107-37.856a.361.361,0,0,0-.192-.322Z" transform="translate(302.128 3156.069)" fill="none" stroke="#0080f4" stroke-miterlimit="10" stroke-width="2"/>
    <path id="路径_37124" data-name="路径 37124" d="M2606.652,3278.977c.059,4.859,1.592,12.274,2.9,15.21s19.574-7.747,19.574-7.747l-7.49-11.684-14.981-.819S2606.593,3274.119,2606.652,3278.977Z" transform="translate(-2033.265 -8.276)" fill="#fff"/>
    <path id="路径_37122" data-name="路径 37122" d="M316.642,127.322a5.334,5.334,0,0,0-1.859-1.967,1.882,1.882,0,0,0-1.871-.187l-15.091,8.6L290.4,120.919a5.341,5.341,0,0,0-1.859-1.967,1.882,1.882,0,0,0-1.871-.187c-1.034.585-1.039,2.5-.012,4.286l9.278,16.08a5.368,5.368,0,0,0,1.858,1.954,1.846,1.846,0,0,0,1.868.184l16.963-9.662C317.668,131.025,317.673,129.107,316.642,127.322Z" transform="translate(299.849 3147.682)" fill="#0080f4"/>
  </g>
</svg>
