<svg xmlns="http://www.w3.org/2000/svg" width="44.387" height="42.048" viewBox="0 0 44.387 42.048">
  <g id="机密交易" transform="translate(-962.776 -446.887)">
    <path id="路径_797" data-name="路径 797" d="M973.662,479.983a1.914,1.914,0,1,0-1.913-1.913A1.916,1.916,0,0,0,973.662,479.983Zm0-2.926a1.012,1.012,0,1,1-1.012,1.012A1.013,1.013,0,0,1,973.662,477.057Z" transform="translate(-5.528 -18.261)" fill="#6287de" stroke="#6287de" stroke-width="0.3"/>
    <path id="路径_798" data-name="路径 798" d="M996.332,476.533l-.029-.146,10.718-10.718-.637-.637L995.9,475.51l-.2-.223c-.021-.024-.041-.049-.06-.074a.529.529,0,0,0-.043-.052l-6.352-6.352.946-.946-.637-.637-1.974,1.973a3.786,3.786,0,0,1-4.653.521l-.3-.188,5.567-5.524,13.7-13.7-.637-.637-13.379,13.379-1.144-1.144a.452.452,0,0,0-.319-.132h-2.739L972.31,450.4l-.638.638,6.8,6.8-9.743,9.743-5.2-4.766-.61.665,8.425,7.722v2a.452.452,0,0,0,.131.318l3.335,3.335-.144.194a1.988,1.988,0,0,0,1.535,3.178l.261.009.01.261a2,2,0,0,0,1.923,1.924l.262.009.009.261a2,2,0,0,0,1.924,1.924l.261.009.009.261a2,2,0,0,0,2.775,1.772l.175-.074.189.19a2.645,2.645,0,0,0,3.74,0l7.868-7.868a2.628,2.628,0,0,0,.775-1.87A2.66,2.66,0,0,0,996.332,476.533Zm-26.94-8.342,9.715-9.716,2.288,2.288-9.616,9.616Zm7.656,10.817a1.1,1.1,0,0,1-1.558-1.557l3.481-3.48a1.1,1.1,0,0,1,1.557,1.556Zm2.194,2.194a1.1,1.1,0,0,1-1.557-1.557l3.481-3.481a1.1,1.1,0,0,1,1.558,1.556Zm2.194,2.194a1.1,1.1,0,0,1-1.557-1.557l3.481-3.481a1.1,1.1,0,0,1,1.557,1.556Zm2.194,2.194a1.1,1.1,0,0,1-1.557-1.557l3.481-3.481a1.1,1.1,0,0,1,1.558,1.556Zm11.338-7.325-7.868,7.868a1.73,1.73,0,0,1-1.226.5,1.751,1.751,0,0,1-1.156-.427l-.226-.2,3.257-3.257a2,2,0,0,0-1.346-3.41l-.261-.009-.009-.261a2,2,0,0,0-1.924-1.924l-.261-.009-.009-.261a2,2,0,0,0-1.924-1.924l-.261-.009-.01-.262a2,2,0,0,0-3.41-1.345l-2.884,2.884-3.206-3.206V471.19l9.789-9.789,1.144,1.144a.453.453,0,0,0,.319.132h2.739l1.011,1.01-5.576,5.533a.452.452,0,0,0,0,.641,4.664,4.664,0,0,0,6.555-.026l.39-.389,6.352,6.352a1.744,1.744,0,0,1,0,2.466Z" transform="translate(0 -1.685)" fill="#6287de" stroke="#6287de" stroke-linecap="round" stroke-width="0.2"/>
    <path id="路径_799" data-name="路径 799" d="M973.081,529.518c.152.27.312.538.477.8l.759-.488c-.154-.246-.3-.5-.444-.747Z" transform="translate(-6.361 -51.387)" fill="#6287de" stroke="#6287de" stroke-width="0.3"/>
    <path id="路径_800" data-name="路径 800" d="M1003.867,554.346l.253-.865c-.278-.086-.554-.177-.824-.274l-.316.844Q1003.419,554.208,1003.867,554.346Z" transform="translate(-25.074 -66.484)" fill="#6287de" stroke="#6287de" stroke-width="0.3"/>
    <path id="路径_801" data-name="路径 801" d="M989.664,547.332l.488-.759c-.244-.162-.482-.328-.714-.5l-.542.721C989.147,546.981,989.4,547.159,989.664,547.332Z" transform="translate(-16.26 -62.021)" fill="#6287de" stroke="#6287de" stroke-width="0.3"/>
    <path id="路径_802" data-name="路径 802" d="M996.508,551.335l.375-.82c-.261-.124-.522-.255-.778-.39l-.433.791C995.948,551.062,996.228,551.2,996.508,551.335Z" transform="translate(-20.5 -64.555)" fill="#6287de" stroke="#6287de" stroke-width="0.3"/>
    <path id="路径_803" data-name="路径 803" d="M983.479,542.423l.591-.681c-.213-.19-.426-.388-.636-.593l-.638.637Q983.129,542.111,983.479,542.423Z" transform="translate(-12.441 -58.937)" fill="#6287de" stroke="#6287de" stroke-width="0.3"/>
    <path id="路径_804" data-name="路径 804" d="M977.487,535.987c.191.247.387.49.585.726l.681-.592c-.185-.219-.367-.446-.545-.676Z" transform="translate(-9.119 -55.368)" fill="#6287de" stroke="#6287de" stroke-width="0.3"/>
    <path id="路径_805" data-name="路径 805" d="M966.082,507.415c.026.309.059.619.1.927l.892-.127c-.037-.289-.068-.578-.092-.865Z" transform="translate(-1.981 -37.784)" fill="#6287de" stroke="#6287de" stroke-width="0.3"/>
    <path id="路径_806" data-name="路径 806" d="M966.821,499.6l-.9-.064c-.017.306-.029.618-.032.932l.9,0C966.795,500.179,966.8,499.889,966.821,499.6Z" transform="translate(-1.86 -32.894)" fill="#6287de" stroke="#6287de" stroke-width="0.3"/>
    <path id="路径_807" data-name="路径 807" d="M967.317,515.086c.07.3.147.606.23.9l.865-.253c-.077-.277-.149-.559-.215-.843Z" transform="translate(-2.754 -42.506)" fill="#6287de" stroke="#6287de" stroke-width="0.3"/>
    <path id="路径_808" data-name="路径 808" d="M969.665,522.509c.114.291.233.579.357.86l.821-.375c-.117-.266-.229-.534-.332-.8Z" transform="translate(-4.224 -47.073)" fill="#6287de" stroke="#6287de" stroke-width="0.3"/>
    <path id="路径_809" data-name="路径 809" d="M1069.965,526.908c.146-.275.286-.554.419-.836l-.819-.375q-.187.393-.391.778Z" transform="translate(-66.501 -49.266)" fill="#6287de" stroke="#6287de" stroke-width="0.3"/>
    <path id="路径_810" data-name="路径 810" d="M1065.849,533.609c.181-.248.359-.5.534-.768l-.759-.488q-.24.361-.5.714Z" transform="translate(-63.968 -53.432)" fill="#6287de" stroke="#6287de" stroke-width="0.3"/>
    <path id="路径_811" data-name="路径 811" d="M1060.836,539.675c.216-.222.43-.451.637-.683l-.681-.591c-.193.217-.391.43-.593.636Z" transform="translate(-60.884 -57.217)" fill="#6287de" stroke="#6287de" stroke-width="0.3"/>
    <path id="路径_812" data-name="路径 812" d="M1073.1,519.717c.1-.287.2-.584.295-.887l-.866-.253c-.085.277-.177.553-.274.824Z" transform="translate(-68.432 -44.81)" fill="#6287de" stroke="#6287de" stroke-width="0.3"/>
    <path id="路径_813" data-name="路径 813" d="M1075.347,511.264l-.893-.127c-.045.286-.1.572-.154.855l.881.191C1075.244,511.878,1075.3,511.571,1075.347,511.264Z" transform="translate(-69.71 -40.154)" fill="#6287de" stroke="#6287de" stroke-width="0.3"/>
    <path id="路径_814" data-name="路径 814" d="M1054.495,544.275l.541.722c.246-.19.489-.386.726-.586l-.591-.682C1054.951,543.915,1054.725,544.1,1054.495,544.275Z" transform="translate(-57.314 -60.552)" fill="#6287de" stroke="#6287de" stroke-width="0.3"/>
    <path id="路径_815" data-name="路径 815" d="M1011.719,555.4c-.285-.045-.571-.1-.855-.153l-.191.881c.3.062.612.117.919.165Z" transform="translate(-29.888 -67.763)" fill="#6287de" stroke="#6287de" stroke-width="0.3"/>
    <path id="路径_816" data-name="路径 816" d="M1075.275,504.393l.9.064c.017-.309.028-.621.033-.932h-.9C1075.3,503.817,1075.291,504.108,1075.275,504.393Z" transform="translate(-70.32 -35.39)" fill="#6287de" stroke="#6287de" stroke-width="0.3"/>
    <path id="路径_817" data-name="路径 817" d="M1026.4,555.961l.065.9c.308-.026.618-.059.928-.1l-.128-.893C1026.975,555.906,1026.686,555.937,1026.4,555.961Z" transform="translate(-39.73 -68.15)" fill="#6287de" stroke="#6287de" stroke-width="0.3"/>
    <path id="路径_818" data-name="路径 818" d="M1018.653,556.223l-.063.9c.307.017.619.029.931.032v-.9C1019.229,556.249,1018.939,556.239,1018.653,556.223Z" transform="translate(-34.843 -68.371)" fill="#6287de" stroke="#6287de" stroke-width="0.3"/>
    <path id="路径_819" data-name="路径 819" d="M1048.136,548.666l.433.791c.272-.154.54-.313.8-.476l-.488-.758Q1048.516,548.452,1048.136,548.666Z" transform="translate(-53.335 -63.365)" fill="#6287de" stroke="#6287de" stroke-width="0.3"/>
    <path id="路径_820" data-name="路径 820" d="M1041.242,552.123l.315.844c.291-.113.578-.232.86-.357l-.375-.82C1041.775,551.909,1041.507,552.02,1041.242,552.123Z" transform="translate(-49.02 -65.598)" fill="#6287de" stroke="#6287de" stroke-width="0.3"/>
    <path id="路径_821" data-name="路径 821" d="M1033.943,554.573l.191.881c.3-.07.605-.147.9-.23l-.254-.865C1034.507,554.435,1034.225,554.507,1033.943,554.573Z" transform="translate(-44.452 -67.204)" fill="#6287de" stroke="#6287de" stroke-width="0.3"/>
    <path id="路径_943" data-name="路径 943" d="M372.287,241.707H372v-1.158a2.317,2.317,0,1,0-4.634,0v1.158h-.29a.87.87,0,0,0-.869.869v3.495a.87.87,0,0,0,.869.869h5.213a.87.87,0,0,0,.869-.869v-3.495A.87.87,0,0,0,372.287,241.707Zm-4.344-1.158a1.737,1.737,0,1,1,3.475,0v1.158h-3.475Zm4.633,5.522a.29.29,0,0,1-.29.29h-5.213a.29.29,0,0,1-.289-.29v-3.495a.29.29,0,0,1,.289-.29h5.213a.29.29,0,0,1,.29.29Z" transform="translate(616.008 208.805)" fill="#6287de" stroke="#6287de" stroke-width="0.3"/>
  </g>
</svg>
