<svg xmlns="http://www.w3.org/2000/svg" width="48.251" height="45.995" viewBox="0 0 48.251 45.995">
  <g id="秘密价值" transform="translate(-394 -2303.8)">
    <path id="路径_29996" data-name="路径 29996" d="M50.924,43.817a12.438,12.438,0,0,0-5.409,1.229v-11.9a.6.6,0,0,0-.6-.59H43.468v-3a.6.6,0,0,0-.6-.59H40.554V27.615a.6.6,0,0,0-1.2,0V28.97H36.985a.6.6,0,0,0-.6.59v3h-1.8v-3.8a.6.6,0,0,0-.6-.59H31.364V25.121a.6.6,0,0,0-.6-.59h-5.48V22.618a.6.6,0,0,0-1.2,0v1.913H18.817a.6.6,0,0,0-.6.59v3.044H15.6a.6.6,0,0,0-.6.59V61.228a.6.6,0,0,0,.6.59H40.163A12.428,12.428,0,0,0,55.029,67.33a12.078,12.078,0,0,0,8.044-13.456A12.263,12.263,0,0,0,50.924,43.817ZM19.417,25.71H30.162v2.454H19.417Zm8.448,34.928H25.283V54.632h2.582Zm-3.783,0H21.715V54.632h2.367Zm9.3,0H29.066v-6.6a.6.6,0,0,0-.6-.59H21.114a.6.6,0,0,0-.6.59v6.6H16.2V29.344h2.3a.607.607,0,0,0,.636,0h11.31a.607.607,0,0,0,.636,0h2.3Zm4.207-30.489h4.681v2.405H37.586ZM34.58,60.638v-26.9h9.734V45.709a12.373,12.373,0,0,0-2.064,1.621.6.6,0,0,0-.334-.1H37.024a.59.59,0,1,0,0,1.18h4.241a12.064,12.064,0,0,0-1.736,2.9H37.024a.59.59,0,1,0,0,1.18H39.1a11.854,11.854,0,0,0-.5,3.217H37.024a.59.59,0,1,0,0,1.18h1.612a11.836,11.836,0,0,0,.936,3.757Zm16.344,6.206A10.926,10.926,0,1,1,62.049,55.921,11.026,11.026,0,0,1,50.924,66.844Z" transform="translate(379 2281.772)" fill="#ef54a1"/>
    <path id="路径_29997" data-name="路径 29997" d="M59.232,179.136h-6.6a.363.363,0,0,0,0,.726h6.6a.363.363,0,0,0,0-.726Z" transform="translate(343.778 2139.326)" fill="#ef54a1"/>
    <path id="路径_29998" data-name="路径 29998" d="M59.232,229.323h-6.6a.363.363,0,1,0,0,.726h6.6a.363.363,0,1,0,0-.726Z" transform="translate(343.778 2093.823)" fill="#ef54a1"/>
    <path id="路径_29999" data-name="路径 29999" d="M59.232,279.511h-6.6a.363.363,0,1,0,0,.726h6.6a.363.363,0,1,0,0-.726Z" transform="translate(343.778 2048.319)" fill="#ef54a1"/>
    <path id="路径_30000" data-name="路径 30000" d="M59.232,128.949h-6.6a.363.363,0,0,0,0,.726h6.6a.363.363,0,0,0,0-.726Z" transform="translate(343.778 2184.83)" fill="#ef54a1"/>
    <path id="路径_30001" data-name="路径 30001" d="M229.377,234.414h2.839a.363.363,0,0,0,0-.726h-2.839a.363.363,0,0,0,0,.726Z" transform="translate(187.703 2089.866)" fill="#ef54a1"/>
    <path id="路径_30002" data-name="路径 30002" d="M229.377,190.772h2.839a.363.363,0,0,0,0-.726h-2.839a.363.363,0,0,0,0,.726Z" transform="translate(187.703 2129.435)" fill="#ef54a1"/>
    <path id="路径_3" data-name="路径 3" d="M138.76,458.925a2.108,2.108,0,0,0-1.72.1c.312-.668.665-1.39.972-2.12a6.729,6.729,0,0,0,.649-2.356,4.454,4.454,0,0,0-4.128-4.679,4.234,4.234,0,0,0-4.266,4.395s0,0,0,0v0a8.083,8.083,0,0,0,.035,1.105,2.124,2.124,0,0,0-1.174.507,1.732,1.732,0,0,0-.413.486c-.169.375-.155.824.292.942a1.35,1.35,0,0,0,.555-.146c.318-.117.714-.329,1.019-.176a11.673,11.673,0,0,0,.817,2.262,6.957,6.957,0,0,0,1.329,1.931,2.451,2.451,0,0,0,1.668.8,4.562,4.562,0,0,0,2.464-.921c.34-.226.639-.45.881-.615a1.462,1.462,0,0,1,.507-.253,2.052,2.052,0,0,1,.684.193c.264.112.54.249.778.344a.145.145,0,0,0,.189-.125A1.777,1.777,0,0,0,138.76,458.925Zm-9.305-2.012a1.347,1.347,0,0,1-.434.125c-.2-.121-.151-.37-.065-.533a1.492,1.492,0,0,1,.348-.408,2.373,2.373,0,0,1,1.028-.443c.041.337.1.68.172,1.023a2.058,2.058,0,0,0-1.049.237ZM134,452.682a.952.952,0,0,1,.8-.748c.368.007.614.4.748.744a4.057,4.057,0,0,1,.215,1.32.145.145,0,0,1-.215.112,1.44,1.44,0,0,0-.748-.181,1.457,1.457,0,0,0-.753.181.145.145,0,0,1-.211-.112,4.549,4.549,0,0,1,.159-1.316Zm-2.563,1.428a.145.145,0,0,1-.211-.112,4.552,4.552,0,0,1,.159-1.316.951.951,0,0,1,.8-.748c.368.007.614.4.748.744a4.061,4.061,0,0,1,.215,1.32.145.145,0,0,1-.215.112,1.441,1.441,0,0,0-.748-.181,1.457,1.457,0,0,0-.753.18Zm4.244,1.922a2.072,2.072,0,0,0-2.245-.176,2.5,2.5,0,0,0-.761.563c-.178.207-.341.508-.034.667a1.452,1.452,0,0,0,.486-.026,1.748,1.748,0,0,1,1.35.133l-.172.215a1.533,1.533,0,0,0-1.131-.077,1.546,1.546,0,0,1-.6.026c-.6-.156-.372-.8-.108-1.118a2.74,2.74,0,0,1,.847-.628,2.425,2.425,0,0,1,2.533.2Z" transform="translate(295.433 1882.085)" fill="#ef54a1"/>
  </g>
</svg>
