<svg xmlns="http://www.w3.org/2000/svg" width="66.928" height="54.954" viewBox="0 0 66.928 54.954">
  <g id="共建生态" transform="translate(-744.179 -590.671)">
    <g id="LOGO" transform="translate(768.346 595.79)">
      <g id="路径_37350" data-name="路径 37350" transform="translate(8.944 3.861)">
        <path id="路径_37422" data-name="路径 37422" d="M774.992,600.2a1.482,1.482,0,0,1,1.32-1.207c.6,0,1.018.641,1.207,1.207a6.951,6.951,0,0,1,.34,2.149.254.254,0,0,1-.265.225c-.037,0-.075,0-.075-.038a2.292,2.292,0,0,0-1.207-.3,2.428,2.428,0,0,0-1.245.3.209.209,0,0,1-.285-.075.227.227,0,0,1-.016-.037c0-.037-.037-.037-.037-.076a8.352,8.352,0,0,1,.264-2.149Z" transform="translate(-774.728 -598.991)" fill="#ef54a1"/>
      </g>
      <g id="路径_37351" data-name="路径 37351" transform="translate(4.682 3.861)">
        <path id="路径_37423" data-name="路径 37423" d="M771.141,602.536a.208.208,0,0,1-.284-.076.185.185,0,0,1-.017-.036c0-.038-.037-.038-.037-.076a8.166,8.166,0,0,1,.264-2.15,1.485,1.485,0,0,1,1.32-1.207c.6,0,1.018.641,1.244,1.207a6.922,6.922,0,0,1,.34,2.15.253.253,0,0,1-.264.225c-.037,0-.076,0-.076-.038a2.352,2.352,0,0,0-1.244-.3,2.758,2.758,0,0,0-1.245.3Z" transform="translate(-770.802 -598.991)" fill="#ef54a1"/>
      </g>
      <g id="路径_37352" data-name="路径 37352" transform="translate(2.745 9.099)">
        <path id="路径_37424" data-name="路径 37424" d="M769.539,607a18.849,18.849,0,0,1-.522-3.122l.74-.059a17.933,17.933,0,0,0,.5,3Z" transform="translate(-769.017 -603.816)" fill="#ef54a1" stroke="#ef54a1" stroke-width="0.2"/>
      </g>
      <g id="路径_3" data-name="路径 3">
        <path id="路径_37425" data-name="路径 37425" d="M776.322,616.016a4.406,4.406,0,0,1-3.017-1.437,11.659,11.659,0,0,1-2.248-3.262,18.321,18.321,0,0,1-1.291-3.552,3.107,3.107,0,0,0-1.184.329,2.82,2.82,0,0,1-1.053.264l-.055,0-.054-.013a1.167,1.167,0,0,1-.8-.617,1.738,1.738,0,0,1,.063-1.438,3.752,3.752,0,0,1,.777-.925,3.9,3.9,0,0,1,1.771-.862,14.943,14.943,0,0,1-.014-1.512,7.3,7.3,0,0,1,7.348-7.56c3.441,0,7.125,3.226,7.125,8.028a11.328,11.328,0,0,1-1.092,4.009c-.369.908-.781,1.794-1.193,2.657a3.91,3.91,0,0,1,2.234.153l.005,0a3.241,3.241,0,0,1,2.044,3.111l-.028.167a.632.632,0,0,1-.736.369c-.351-.126-.688-.283-1.015-.436l-.329-.152a3.861,3.861,0,0,0-.948-.261,2.065,2.065,0,0,0-.635.331c-.148.1-.3.213-.458.33-.294.214-.628.458-.994.7A7.624,7.624,0,0,1,776.322,616.016Zm-6.489-8.991a1.189,1.189,0,0,1,.4.1l.164.075.042.176A17.57,17.57,0,0,0,771.728,611a10.935,10.935,0,0,0,2.117,3.072,3.665,3.665,0,0,0,2.48,1.206,6.908,6.908,0,0,0,3.783-1.432c.378-.253.7-.492.99-.7.166-.12.319-.232.457-.329a2.822,2.822,0,0,1,.942-.469l.072-.02.075.009a4.644,4.644,0,0,1,1.23.328l.345.16c.238.112.482.226.718.321a2.5,2.5,0,0,0-1.566-2.169,3.152,3.152,0,0,0-2.528.136l-.976.493.509-1.055c.523-1.086,1.065-2.208,1.54-3.379a10.619,10.619,0,0,0,1.03-3.739c0-4.326-3.3-7.254-6.385-7.254a6.575,6.575,0,0,0-6.607,6.832,14.413,14.413,0,0,0,.037,1.779l.029.357-.441.052a3.183,3.183,0,0,0-1.641.734,3.061,3.061,0,0,0-.6.706,1.025,1.025,0,0,0-.051.767.4.4,0,0,0,.265.208,2.084,2.084,0,0,0,.712-.187A3.781,3.781,0,0,1,769.833,607.024Zm3.976,1.437a3.467,3.467,0,0,1-.426-.028,1.144,1.144,0,0,1-.883-.738,1.991,1.991,0,0,1,.452-1.709,4.53,4.53,0,0,1,1.535-1.129,4.328,4.328,0,0,1,4.52.381l-.442.6a3.59,3.59,0,0,0-3.756-.308,3.805,3.805,0,0,0-1.29.937,1.328,1.328,0,0,0-.315,1c.025.075.085.181.323.246a2.52,2.52,0,0,0,.807-.043,2.68,2.68,0,0,1,2.154.181l-.453.588c-.346-.267-.99-.147-1.509-.05A3.487,3.487,0,0,1,773.809,608.462Z" transform="translate(-766.488 -595.434)" fill="#ef54a1" stroke="#ef54a1" stroke-width="0.2"/>
      </g>
    </g>
    <g id="组_21699" data-name="组 21699">
      <g id="组_21705" data-name="组 21705">
        <path id="路径_37426" data-name="路径 37426" d="M757.093,620.587a.078.078,0,0,0,.11-.091c-.343-1.427-2.838-12.22.038-13.042,3.666-.844,5.609,8.578,7.039,11.107s6.928,12.978,3.959,19.686-3.08,6.38-3.849,6.489c0,0-9.317-2.466-11.884-2.82a.512.512,0,0,1-.428-.613c.214-1.051.685-3.342,1.094-5.146a8.247,8.247,0,0,0-.44-5.5c-.66-1.76-8.579-8.8-7.919-16.057s.437-14.958.771-17.487c.275-2.089,1.979-3.3,3.959-2.2s1.209,6.269,1.76,13.858C751.833,616.115,755.556,619.854,757.093,620.587Z" transform="translate(0 0.276)" fill="none" stroke="#0080f4" stroke-miterlimit="10" stroke-width="1.2"/>
        <path id="路径_37427" data-name="路径 37427" d="M794.932,620.587a.078.078,0,0,1-.11-.091c.343-1.427,2.838-12.22-.038-13.042-3.666-.844-5.609,8.578-7.039,11.107s-6.929,12.978-3.959,19.686,3.08,6.38,3.849,6.489c0,0,9.317-2.466,11.884-2.82a.511.511,0,0,0,.427-.613c-.213-1.051-.684-3.342-1.093-5.146a8.247,8.247,0,0,1,.44-5.5c.66-1.76,8.578-8.8,7.918-16.057s-.436-14.958-.77-17.487c-.275-2.089-1.979-3.3-3.959-2.2s-1.209,6.269-1.76,13.858C800.191,616.115,796.469,619.854,794.932,620.587Z" transform="translate(3.263 0.276)" fill="none" stroke="#0080f4" stroke-miterlimit="10" stroke-width="1.2"/>
      </g>
      <circle id="椭圆_1642" data-name="椭圆 1642" cx="14.81" cy="14.81" r="14.81" transform="translate(763.134 591.271)" fill="none" stroke="#0080f4" stroke-miterlimit="10" stroke-width="1.2"/>
    </g>
  </g>
</svg>
