<svg xmlns="http://www.w3.org/2000/svg" width="68.429" height="67.851" viewBox="0 0 68.429 67.851">
  <g id="安全保护" transform="translate(-822.874 -582.861)">
    <circle id="椭圆_1633" data-name="椭圆 1633" cx="29.687" cy="29.687" r="29.687" transform="translate(827.704 587.128)" fill="none" stroke="#0080f4" stroke-miterlimit="10" stroke-width="1.2"/>
    <g id="组_21697" data-name="组 21697">
      <circle id="椭圆_1634" data-name="椭圆 1634" cx="3.833" cy="3.833" r="3.833" transform="translate(853.558 583.461)" fill="#fff" stroke="#0080f4" stroke-miterlimit="10" stroke-width="1.2"/>
      <circle id="椭圆_1635" data-name="椭圆 1635" cx="3.833" cy="3.833" r="3.833" transform="translate(853.558 642.445)" fill="#fff" stroke="#0080f4" stroke-miterlimit="10" stroke-width="1.2"/>
      <circle id="椭圆_1636" data-name="椭圆 1636" cx="3.833" cy="3.833" r="3.833" transform="translate(874.418 592.342)" fill="#fff" stroke="#0080f4" stroke-miterlimit="10" stroke-width="1.2"/>
      <circle id="椭圆_1637" data-name="椭圆 1637" cx="3.833" cy="3.833" r="3.833" transform="translate(883.037 613.314)" fill="#fff" stroke="#0080f4" stroke-miterlimit="10" stroke-width="1.2"/>
      <circle id="椭圆_1638" data-name="椭圆 1638" cx="3.833" cy="3.833" r="3.833" transform="translate(832.409 592.268)" fill="#fff" stroke="#0080f4" stroke-miterlimit="10" stroke-width="1.2"/>
      <circle id="椭圆_1639" data-name="椭圆 1639" cx="3.833" cy="3.833" r="3.833" transform="translate(823.474 613.314)" fill="#fff" stroke="#0080f4" stroke-miterlimit="10" stroke-width="1.2"/>
      <circle id="椭圆_1640" data-name="椭圆 1640" cx="3.833" cy="3.833" r="3.833" transform="translate(832.588 634.021)" fill="#fff" stroke="#0080f4" stroke-miterlimit="10" stroke-width="1.2"/>
      <circle id="椭圆_1641" data-name="椭圆 1641" cx="3.833" cy="3.833" r="3.833" transform="translate(874.418 634.021)" fill="#fff" stroke="#0080f4" stroke-miterlimit="10" stroke-width="1.2"/>
    </g>
    <g id="LOGO">
      <g id="组_21698" data-name="组 21698">
        <path id="路径_37417" data-name="路径 37417" d="M856.031,611.213a1.366,1.366,0,0,1,1.216-1.112c.556,0,.938.59,1.112,1.112a6.37,6.37,0,0,1,.313,1.98.233.233,0,0,1-.243.207c-.035,0-.07,0-.07-.035a2.112,2.112,0,0,0-1.112-.277,2.241,2.241,0,0,0-1.147.277.19.19,0,0,1-.262-.07.125.125,0,0,1-.016-.033c0-.034-.034-.034-.034-.07a7.731,7.731,0,0,1,.243-1.98Z" fill="#ef54a1" stroke="#ef54a1" stroke-width="0.2"/>
        <g id="路径_37351" data-name="路径 37351">
          <path id="路径_37418" data-name="路径 37418" d="M852.174,613.367a.191.191,0,0,1-.262-.07.252.252,0,0,1-.016-.033c0-.035-.034-.035-.034-.07a7.567,7.567,0,0,1,.243-1.981,1.369,1.369,0,0,1,1.216-1.112c.556,0,.938.591,1.147,1.112a6.376,6.376,0,0,1,.312,1.981.231.231,0,0,1-.243.206c-.034,0-.069,0-.069-.034a2.159,2.159,0,0,0-1.147-.278,2.54,2.54,0,0,0-1.147.278Z" fill="#ef54a1" stroke="#ef54a1" stroke-width="0.2"/>
        </g>
        <g id="路径_37352" data-name="路径 37352">
          <path id="路径_37419" data-name="路径 37419" d="M850.558,617.856a17.374,17.374,0,0,1-.481-2.876l.682-.054a16.517,16.517,0,0,0,.462,2.76Z" fill="#ef54a1" stroke="#ef54a1" stroke-width="0.2"/>
        </g>
        <g id="路径_3" data-name="路径 3">
          <path id="路径_37420" data-name="路径 37420" d="M856.607,625.5a4.061,4.061,0,0,1-2.779-1.324,10.757,10.757,0,0,1-2.071-3.005,16.934,16.934,0,0,1-1.189-3.273,2.874,2.874,0,0,0-1.09.3,2.607,2.607,0,0,1-.971.243l-.051,0-.05-.012a1.071,1.071,0,0,1-.739-.568,1.6,1.6,0,0,1,.057-1.325,3.458,3.458,0,0,1,.716-.852,3.6,3.6,0,0,1,1.631-.794,13.789,13.789,0,0,1-.013-1.393,6.721,6.721,0,0,1,6.769-6.964c3.17,0,6.564,2.972,6.565,7.4a10.459,10.459,0,0,1-1.007,3.693c-.339.836-.719,1.652-1.1,2.448a3.6,3.6,0,0,1,2.058.141l.005,0a2.984,2.984,0,0,1,1.883,2.866l-.025.154a.583.583,0,0,1-.679.34c-.323-.116-.634-.261-.935-.4l-.3-.14a3.544,3.544,0,0,0-.873-.24,1.911,1.911,0,0,0-.585.3c-.135.095-.273.2-.422.3-.271.2-.579.422-.916.647A7.02,7.02,0,0,1,856.607,625.5Zm-5.977-8.283a1.093,1.093,0,0,1,.364.093l.152.069.038.162a16.189,16.189,0,0,0,1.191,3.336,10.074,10.074,0,0,0,1.95,2.83,3.379,3.379,0,0,0,2.285,1.111A6.367,6.367,0,0,0,860.1,623.5c.347-.233.647-.453.911-.645.153-.111.294-.214.421-.3a2.6,2.6,0,0,1,.868-.432l.066-.018.069.008a4.268,4.268,0,0,1,1.133.3l.318.147c.22.1.444.208.662.3a2.306,2.306,0,0,0-1.444-2,2.9,2.9,0,0,0-2.328.125l-.9.454.469-.972c.482-1,.981-2.034,1.42-3.113a9.8,9.8,0,0,0,.948-3.444c0-3.985-3.042-6.682-5.882-6.682a6.057,6.057,0,0,0-6.086,6.294,13.288,13.288,0,0,0,.034,1.639l.027.329-.406.048a2.935,2.935,0,0,0-1.512.676,2.79,2.79,0,0,0-.556.65.939.939,0,0,0-.048.707.368.368,0,0,0,.245.192,1.919,1.919,0,0,0,.655-.172A3.489,3.489,0,0,1,850.63,617.221Zm3.662,1.324a3.2,3.2,0,0,1-.392-.026,1.054,1.054,0,0,1-.813-.68,1.837,1.837,0,0,1,.416-1.574,4.174,4.174,0,0,1,1.414-1.04,3.987,3.987,0,0,1,4.164.351l-.407.549a3.307,3.307,0,0,0-3.46-.284,3.512,3.512,0,0,0-1.188.863,1.228,1.228,0,0,0-.29.919c.023.069.078.167.3.227a2.319,2.319,0,0,0,.743-.04,2.469,2.469,0,0,1,1.984.167l-.417.542c-.319-.246-.912-.135-1.39-.046A3.215,3.215,0,0,1,854.292,618.545Z" fill="#ef54a1" stroke="#ef54a1" stroke-width="0.2"/>
        </g>
      </g>
    </g>
    <path id="路径_37421" data-name="路径 37421" d="M857.391,599a39.6,39.6,0,0,1-15.775,5.045v3.043s-.321,21.381,15.775,29.549c0,0,14.735-6.887,15.776-29.629v-2.563S862.676,602.841,857.391,599Z" fill="none" stroke="#0080f4" stroke-miterlimit="10" stroke-width="1.2"/>
  </g>
</svg>
