<svg xmlns="http://www.w3.org/2000/svg" xmlns:xlink="http://www.w3.org/1999/xlink" width="691" height="334" viewBox="0 0 691 334">
  <defs>
    <clipPath id="clip-path">
      <rect id="矩形_2723" data-name="矩形 2723" width="691" height="334" transform="translate(-0.227)" fill="#fff"/>
    </clipPath>
  </defs>
  <g id="小屏-banner" transform="translate(-790 631)">
    <g id="首页" transform="translate(1191.153 -572)">
      <g id="组_21510" data-name="组 21510" transform="translate(82.599 0)">
        <path id="路径_37636" data-name="路径 37636" d="M906.861,51.25v5.579H904.25v3.842" transform="translate(-876.344 -47.168)" fill="none" stroke="#0080f4" stroke-miterlimit="10" stroke-width="1.2"/>
        <path id="路径_37637" data-name="路径 37637" d="M891.108,102l-7.441,3.652,2.558,5.082" transform="translate(-859.977 -87.524)" fill="none" stroke="#0080f4" stroke-miterlimit="10" stroke-width="1.2"/>
        <path id="路径_37638" data-name="路径 37638" d="M863.333,126.75l2.867,2.509v13.927" transform="translate(-843.808 -107.205)" fill="none" stroke="#0080f4" stroke-miterlimit="10" stroke-width="1.2"/>
        <path id="路径_37639" data-name="路径 37639" d="M832,154.333l2.8,2.364v8.7" transform="translate(-818.892 -129.139)" fill="none" stroke="#000" stroke-miterlimit="10" stroke-width="1.2"/>
        <path id="路径_37640" data-name="路径 37640" d="M813.333,172l2.765,2.424v5.257" transform="translate(-804.048 -143.187)" fill="none" stroke="#0080f4" stroke-miterlimit="10" stroke-width="1.2"/>
        <path id="路径_37641" data-name="路径 37641" d="M789,185.333l2.56,2.391v2.56" transform="translate(-784.699 -153.79)" fill="none" stroke="#000" stroke-miterlimit="10" stroke-width="1.2"/>
        <g id="组_21509" data-name="组 21509" transform="translate(0 11.404)">
          <path id="路径_37642" data-name="路径 37642" d="M965.873,126.75l-3.123,2.407v14.166" transform="translate(-922.863 -118.609)" fill="none" stroke="#0080f4" stroke-miterlimit="10" stroke-width="1.2"/>
          <path id="路径_37643" data-name="路径 37643" d="M921,87l7.783,5.223L926.53,97.65" transform="translate(-889.664 -87)" fill="none" stroke="#0080f4" stroke-miterlimit="10" stroke-width="1.2"/>
          <path id="路径_37644" data-name="路径 37644" d="M998.942,152l-3.106,2.321v8.944" transform="translate(-949.172 -138.687)" fill="none" stroke="#0c111a" stroke-miterlimit="10" stroke-width="1.2"/>
          <path id="路径_37645" data-name="路径 37645" d="M1017.737,169.833l-2.9,2.355v5.257" transform="translate(-964.28 -152.868)" fill="none" stroke="#0080f4" stroke-miterlimit="10" stroke-width="1.2"/>
          <path id="路径_37646" data-name="路径 37646" d="M1043,183.667l-2.833,2.05v2.935" transform="translate(-984.423 -163.868)" fill="none" stroke="#0c111a" stroke-miterlimit="10" stroke-width="1.2"/>
          <line id="直线_306" data-name="直线 306" x2="60.385" transform="translate(0 24.987)" fill="none" stroke="#0080f4" stroke-miterlimit="10" stroke-width="1.2"/>
        </g>
        <path id="路径_37647" data-name="路径 37647" d="M891,150.167h12.494v12.05" transform="translate(-865.808 -125.826)" fill="none" stroke="#0080f4" stroke-miterlimit="10" stroke-width="1.2"/>
        <path id="路径_37648" data-name="路径 37648" d="M902.111,169H896v8.056" transform="translate(-869.784 -140.802)" fill="none" stroke="#0c111a" stroke-miterlimit="10" stroke-width="1.2"/>
        <path id="路径_37649" data-name="路径 37649" d="M912,182.333h4.54v5.325" transform="translate(-882.507 -151.404)" fill="none" stroke="#0c111a" stroke-miterlimit="10" stroke-width="1.2"/>
        <circle id="椭圆_1659" data-name="椭圆 1659" cx="1.869" cy="1.869" r="1.869" transform="translate(28.648 0)" fill="none" stroke="#0080f4" stroke-miterlimit="10" stroke-width="1.2"/>
      </g>
      <g id="组_21512" data-name="组 21512" transform="translate(157.344 25.1)">
        <path id="路径_37650" data-name="路径 37650" d="M1183.625,182.833l3.618,3.926L1174,198.16" transform="translate(-1165.331 -176.902)" fill="none" stroke="#1a1311" stroke-miterlimit="10" stroke-width="1.2"/>
        <line id="直线_307" data-name="直线 307" x1="8.261" y2="7.339" transform="translate(6.962 11.905)" fill="none" stroke="#1a1311" stroke-miterlimit="10" stroke-width="1.2"/>
        <g id="组_21511" data-name="组 21511" transform="translate(0 0)">
          <path id="路径_37651" data-name="路径 37651" d="M1131.67,242.574l5.154-4.574,18.945,21.915" transform="translate(-1131.67 -220.77)" fill="none" stroke="#1a1311" stroke-miterlimit="10" stroke-width="1.2"/>
          <path id="路径_37652" data-name="路径 37652" d="M1214.433,262.94l-2.936-3.106-7,6.281" transform="translate(-1189.584 -238.132)" fill="none" stroke="#1a1311" stroke-miterlimit="10" stroke-width="1.2"/>
          <path id="路径_37653" data-name="路径 37653" d="M1233.12,233l2.05,7.988-10,8.875" transform="translate(-1206.019 -216.794)" fill="none" stroke="#1a1311" stroke-miterlimit="10" stroke-width="1.2"/>
          <path id="路径_37654" data-name="路径 37654" d="M1245.17,299.7,1248,297l4.2,4.95" transform="translate(-1221.924 -267.686)" fill="none" stroke="#1a1311" stroke-miterlimit="10" stroke-width="1.2"/>
          <path id="路径_37655" data-name="路径 37655" d="M1243,316.167l3.619,3.72.921,8.227-4.23,3.32,6.449,8.866" transform="translate(-1220.199 -282.928)" fill="none" stroke="#1a1311" stroke-miterlimit="10" stroke-width="1.2"/>
          <path id="路径_37656" data-name="路径 37656" d="M1262.858,385.167l-.137,3.243-2.391,1.946" transform="translate(-1233.98 -337.796)" fill="none" stroke="#1a1311" stroke-miterlimit="10" stroke-width="1.2"/>
          <path id="路径_37657" data-name="路径 37657" d="M1272.173,397l-.05,3.343L1269,402.325" transform="translate(-1240.874 -347.205)" fill="none" stroke="#1a1311" stroke-miterlimit="10" stroke-width="1.2"/>
          <path id="路径_37658" data-name="路径 37658" d="M1422.435,169.333l-3.96,3.175,1.127,2.185-1.391.637" transform="translate(-1359.525 -166.167)" fill="none" stroke="#000" stroke-miterlimit="10" stroke-width="1.2"/>
          <path id="路径_37659" data-name="路径 37659" d="M1367.016,183.971c-.1.108-1.434,1.262-1.434,1.262l1.093,2.225-4.028,3.378-3.928-2.831L1355,190.736l.956,3.277" transform="translate(-1309.26 -177.807)" fill="none" stroke="#000" stroke-miterlimit="10" stroke-width="1.2"/>
          <path id="路径_37660" data-name="路径 37660" d="M1370.491,215.333l4.779,3-.683,2.321-2.56,2.185-2.526-2.867" transform="translate(-1320.791 -202.746)" fill="none" stroke="#000" stroke-miterlimit="10" stroke-width="1.2"/>
          <line id="直线_308" data-name="直线 308" x2="3.685" y2="2.185" transform="translate(48.198 14.499)" fill="none" stroke="#000" stroke-miterlimit="10" stroke-width="1.2"/>
          <path id="路径_37661" data-name="路径 37661" d="M1294.639,237.894l-2.936-2.56L1276,248.988" transform="translate(-1246.44 -218.65)" fill="none" stroke="#000" stroke-miterlimit="10" stroke-width="1.2"/>
          <path id="路径_37662" data-name="路径 37662" d="M1285.56,257.667l-12.493,10.923,1.126,6.283-4.715.168" transform="translate(-1241.254 -236.409)" fill="none" stroke="#000" stroke-miterlimit="10" stroke-width="1.2"/>
          <circle id="椭圆_1660" data-name="椭圆 1660" cx="1.869" cy="1.869" r="1.869" transform="translate(62.714)" fill="none" stroke="#000" stroke-miterlimit="10" stroke-width="1.2"/>
        </g>
      </g>
      <g id="组_21513" data-name="组 21513" transform="translate(177.959 97.926)">
        <path id="路径_37664" data-name="路径 37664" d="M1252.125,614.233,1237.653,610l-5.326,18.634,10.276,2.6.785-3.174-1.433-6.827" transform="translate(-1232.327 -589.417)" fill="none" stroke="#000" stroke-miterlimit="10" stroke-width="1.2"/>
        <path id="路径_37665" data-name="路径 37665" d="M1253.67,624.185l18.911,5.393,2.082-7.578" transform="translate(-1249.298 -598.959)" fill="none" stroke="#ef54a1" stroke-miterlimit="10" stroke-width="1.2"/>
        <path id="路径_37666" data-name="路径 37666" d="M1249.67,645.833l8.841,2.492,1.383,6.759" transform="translate(-1246.118 -617.911)" fill="none" stroke="#000" stroke-miterlimit="10" stroke-width="1.2"/>
        <path id="路径_37667" data-name="路径 37667" d="M1241,663.948l3.414.887-.486-4.335" transform="translate(-1239.224 -629.573)" fill="none" stroke="#000" stroke-miterlimit="10" stroke-width="1.2"/>
        <path id="路径_37672" data-name="路径 37672" d="M1282.5,509.5l5.12,1.57-.887,2.833" transform="translate(-1272.224 -509.5)" fill="none" stroke="#000" stroke-miterlimit="10" stroke-width="1.2"/>
        <path id="路径_37673" data-name="路径 37673" d="M1279.33,522.333l8.3,2.97-.785,1.878" transform="translate(-1269.704 -519.705)" fill="none" stroke="#000" stroke-miterlimit="10" stroke-width="1.2"/>
        <g id="组_21986" data-name="组 21986" transform="translate(7.376 7.476)">
          <path id="路径_37663" data-name="路径 37663" d="M1403.83,588l2.355,3.311,4.744-.922,5.8,1.741" transform="translate(-1376.081 -579.398)" fill="none" stroke="#ef54a1" stroke-miterlimit="10" stroke-width="1.2"/>
          <path id="路径_37668" data-name="路径 37668" d="M1284.726,564.167l-1.981,6.009-4.916-1.945" transform="translate(-1275.886 -560.446)" fill="none" stroke="#ef54a1" stroke-miterlimit="10" stroke-width="1.2"/>
          <path id="路径_37669" data-name="路径 37669" d="M1328.791,566.667l-2.287,7.851,8.943,2.253,3.755,3.994" transform="translate(-1314.59 -562.434)" fill="none" stroke="#ef54a1" stroke-miterlimit="10" stroke-width="1.2"/>
          <path id="路径_37670" data-name="路径 37670" d="M1331.67,591.5l9.285,1.963,4.335,5.205" transform="translate(-1318.698 -582.181)" fill="none" stroke="#ef54a1" stroke-miterlimit="10" stroke-width="1.2"/>
          <path id="路径_37671" data-name="路径 37671" d="M1336.67,576l11.23,2.458,3.277,6.144" transform="translate(-1322.674 -569.856)" fill="none" stroke="#ef54a1" stroke-miterlimit="10" stroke-width="1.2"/>
          <line id="直线_309" data-name="直线 309" x2="5.12" y2="1.331" transform="translate(28.297 13.415)" fill="none" stroke="#ef54a1" stroke-miterlimit="10" stroke-width="1.2"/>
          <path id="路径_37674" data-name="路径 37674" d="M1290.67,546l7.2,2.185-3.6,10.548" transform="translate(-1286.096 -546)" fill="none" stroke="#ef54a1" stroke-miterlimit="10" stroke-width="1.2"/>
          <line id="直线_310" data-name="直线 310" x1="1.229" y2="3.652" transform="translate(4.402 2.185)" fill="none" stroke="#ef54a1" stroke-miterlimit="10" stroke-width="1.2"/>
          <path id="路径_37675" data-name="路径 37675" d="M1271.408,547l-3.072,9.147,6.076,2.014" transform="translate(-1268.336 -546.795)" fill="none" stroke="#ef54a1" stroke-miterlimit="10" stroke-width="1.2"/>
          <circle id="椭圆_1661" data-name="椭圆 1661" cx="1.869" cy="1.869" r="1.869" transform="translate(40.449 11.469)" fill="none" stroke="#ef54a1" stroke-miterlimit="10" stroke-width="1.2"/>
        </g>
      </g>
      <g id="组_21514" data-name="组 21514" transform="translate(142.152 150.133)">
        <path id="路径_37676" data-name="路径 37676" d="M1092,849l9.524,11.333,8.551-4.937" transform="translate(-1085.067 -831.68)" fill="none" stroke="#000" stroke-miterlimit="10" stroke-width="1.2"/>
        <path id="路径_37677" data-name="路径 37677" d="M1058.15,856.617l12.668,14.62,13.673-8.73,2.1,4.02" transform="translate(-1058.15 -837.737)" fill="none" stroke="#000" stroke-miterlimit="10" stroke-width="1.2"/>
        <line id="直线_311" data-name="直线 311" y1="3.55" x2="8.875" transform="translate(17.754 29.199)" fill="none" stroke="#000" stroke-miterlimit="10" stroke-width="1.2"/>
        <line id="直线_312" data-name="直线 312" x2="7.216" y2="10.697" transform="translate(25.865)" fill="none" stroke="#000" stroke-miterlimit="10" stroke-width="1.2"/>
        <path id="路径_37678" data-name="路径 37678" d="M1176,770l10.036,15.566,2.594-1.4" transform="translate(-1151.863 -768.86)" fill="none" stroke="#000" stroke-miterlimit="10" stroke-width="1.2"/>
        <path id="路径_37679" data-name="路径 37679" d="M1167,775.5l11.265,16.9,3-1.454" transform="translate(-1144.706 -773.234)" fill="none" stroke="#000" stroke-miterlimit="10" stroke-width="1.2"/>
        <path id="路径_37680" data-name="路径 37680" d="M1135.406,785.4l11.041,23.1v3.755l-14.781,4.608" transform="translate(-1116.609 -781.107)" fill="none" stroke="#000" stroke-miterlimit="10" stroke-width="1.2"/>
        <path id="路径_37681" data-name="路径 37681" d="M1099.62,820.1l8.134-5.936,5.666,13.791" transform="translate(-1091.126 -803.982)" fill="none" stroke="#000" stroke-miterlimit="10" stroke-width="1.2"/>
        <path id="路径_37682" data-name="路径 37682" d="M1113.268,833.833l-5.6,3.378s6.71,8.075,6.718,8.073,3.18-2,3.18-2" transform="translate(-1097.527 -819.62)" fill="none" stroke="#000" stroke-miterlimit="10" stroke-width="1.2"/>
        <path id="路径_37683" data-name="路径 37683" d="M1126.89,842l-3.89,2.05,3.448,4.4,2.867-1.229" transform="translate(-1109.718 -826.114)" fill="none" stroke="#000" stroke-miterlimit="10" stroke-width="1.2"/>
        <circle id="椭圆_1662" data-name="椭圆 1662" cx="1.869" cy="1.869" r="1.869" transform="translate(11.208 34.703)" fill="none" stroke="#000" stroke-miterlimit="10" stroke-width="1.2"/>
      </g>
      <g id="组_21515" data-name="组 21515" transform="translate(78.046 169.124)">
        <path id="路径_37686" data-name="路径 37686" d="M762.317,872.936l1.98-13.177-12.487-1.945-4.17-.649L746,866.689l3.414.2,5.8-2.185" transform="translate(-746 -857.165)" fill="none" stroke="#0c111a" stroke-miterlimit="10" stroke-width="1.2"/>
        <path id="路径_37687" data-name="路径 37687" d="M772.012,862.333l-.512,3.209,3.789-1.025" transform="translate(-766.277 -861.274)" fill="none" stroke="#000" stroke-miterlimit="10" stroke-width="1.2"/>
        <path id="路径_37688" data-name="路径 37688" d="M778.151,867.167l-1.263,8.09s-5.5,1.945-5.393,1.911" transform="translate(-766.272 -865.118)" fill="none" stroke="#0080f4" stroke-miterlimit="10" stroke-width="1.2"/>
        <path id="路径_37689" data-name="路径 37689" d="M805.323,869s-2.935,17.17-2.833,17.2,6.724,1.263,6.724,1.263" transform="translate(-790.918 -866.576)" fill="none" stroke="#0080f4" stroke-miterlimit="10" stroke-width="1.2"/>
        <g id="组_21987" data-name="组 21987" transform="translate(16.948 4.097)">
          <path id="路径_37684" data-name="路径 37684" d="M859.1,881.833l-5.2,33.316-6.058-.853" transform="translate(-843.928 -880.877)" fill="none" stroke="#0080f4" stroke-miterlimit="10" stroke-width="1.2"/>
          <path id="路径_37685" data-name="路径 37685" d="M857.4,879l-4.712,29.971-2.7-.342" transform="translate(-845.645 -878.624)" fill="none" stroke="#0080f4" stroke-miterlimit="10" stroke-width="1.2"/>
          <line id="直线_313" data-name="直线 313" x1="3.345" y2="21.266" transform="translate(5.581)" fill="none" stroke="#0080f4" stroke-miterlimit="10" stroke-width="1.2"/>
          <circle id="椭圆_1663" data-name="椭圆 1663" cx="1.869" cy="1.869" r="1.869" transform="translate(0 31.22)" fill="none" stroke="#0080f4" stroke-miterlimit="10" stroke-width="1.2"/>
        </g>
      </g>
      <g id="组_21517" data-name="组 21517" transform="translate(12.938 107.102)">
        <line id="直线_314" data-name="直线 314" x1="3.004" y2="1.673" transform="translate(39.784 43.971)" fill="none" stroke="#000" stroke-miterlimit="10" stroke-width="1.2"/>
        <g id="组_21516" data-name="组 21516" transform="translate(0)">
          <line id="直线_315" data-name="直线 315" x1="12.284" y2="19.599" transform="translate(11.69)" fill="none" stroke="#000" stroke-miterlimit="10" stroke-width="1.2"/>
          <line id="直线_316" data-name="直线 316" x2="18.604" y2="38.197" transform="translate(22.306 10.587)" fill="none" stroke="#000" stroke-miterlimit="10" stroke-width="1.2"/>
          <line id="直线_317" data-name="直线 317" x1="4.267" y2="2.014" transform="translate(23.774 11.133)" fill="none" stroke="#000" stroke-miterlimit="10" stroke-width="1.2"/>
          <path id="路径_37690" data-name="路径 37690" d="M478.034,624.333l-15.054,7.135L461,635.53" transform="translate(-454.464 -609.991)" fill="none" stroke="#000" stroke-miterlimit="10" stroke-width="1.2"/>
          <path id="路径_37691" data-name="路径 37691" d="M489.1,633.167l-13.518,6.111-1.911,3.277" transform="translate(-464.537 -617.016)" fill="none" stroke="#000" stroke-miterlimit="10" stroke-width="1.2"/>
          <path id="路径_37692" data-name="路径 37692" d="M470.218,648.667l-15.975,7.646-6.076-.853" transform="translate(-444.259 -629.341)" fill="none" stroke="#000" stroke-miterlimit="10" stroke-width="1.2"/>
          <line id="直线_318" data-name="直线 318" x2="9.524" y2="20.276" transform="translate(14.046 25.368)" fill="none" stroke="#000" stroke-miterlimit="10" stroke-width="1.2"/>
          <line id="直线_319" data-name="直线 319" x1="4.813" y2="2.321" transform="translate(11.554 31.136)" fill="none" stroke="#000" stroke-miterlimit="10" stroke-width="1.2"/>
          <line id="直线_320" data-name="直线 320" x1="4.95" y2="2.219" transform="translate(15.752 40.285)" fill="none" stroke="#000" stroke-miterlimit="10" stroke-width="1.2"/>
          <path id="路径_37693" data-name="路径 37693" d="M528.9,749l-17.269,7.646L509,761.927" transform="translate(-492.633 -709.125)" fill="none" stroke="#000" stroke-miterlimit="10" stroke-width="1.2"/>
          <path id="路径_37694" data-name="路径 37694" d="M544.614,763.5l-14.1,6.725L527,769.713" transform="translate(-506.946 -720.655)" fill="none" stroke="#000" stroke-miterlimit="10" stroke-width="1.2"/>
          <path id="路径_37695" data-name="路径 37695" d="M540.068,773.083l-15.634,7.322-4.267-.99" transform="translate(-501.513 -728.275)" fill="none" stroke="#000" stroke-miterlimit="10" stroke-width="1.2"/>
          <line id="直线_321" data-name="直线 321" x1="22.994" y1="2.174" transform="translate(26.3 50.628)" fill="none" stroke="#000" stroke-miterlimit="10" stroke-width="1.2"/>
          <path id="路径_37696" data-name="路径 37696" d="M560.833,647.536,564.144,646l1.638,9.285,6.759,9.489L569.674,666" transform="translate(-533.85 -627.22)" fill="none" stroke="#000" stroke-miterlimit="10" stroke-width="1.2"/>
          <circle id="椭圆_1664" data-name="椭圆 1664" cx="1.869" cy="1.869" r="1.869" transform="translate(13.371 52.579)" fill="none" stroke="#000" stroke-miterlimit="10" stroke-width="1.2"/>
          <circle id="椭圆_1665" data-name="椭圆 1665" cx="1.869" cy="1.869" r="1.869" transform="translate(0 23.848)" fill="none" stroke="#000" stroke-miterlimit="10" stroke-width="1.2"/>
        </g>
      </g>
      <g id="组_21519" data-name="组 21519" transform="translate(0 43.878)">
        <path id="路径_37697" data-name="路径 37697" d="M604.65,346l-6.144.375L594,356.036" transform="translate(-547.286 -325.434)" fill="none" stroke="#ef54a1" stroke-miterlimit="10" stroke-width="1.2"/>
        <path id="路径_37698" data-name="路径 37698" d="M627.416,270.841l-12-6.008,1.314,5.359" transform="translate(-564.317 -260.891)" fill="none" stroke="#000" stroke-miterlimit="10" stroke-width="1.2"/>
        <path id="路径_37699" data-name="路径 37699" d="M644.156,263.1l-8.227-4.1-1.263,2.936" transform="translate(-579.623 -256.252)" fill="none" stroke="#000" stroke-miterlimit="10" stroke-width="1.2"/>
        <g id="组_21518" data-name="组 21518" transform="translate(0 0)">
          <path id="路径_37700" data-name="路径 37700" d="M531.805,468.953l-8.022-3.994L523,461" transform="translate(-490.827 -416.88)" fill="none" stroke="#0c111a" stroke-miterlimit="10" stroke-width="1.2"/>
          <path id="路径_37701" data-name="路径 37701" d="M544,468.069,536,464l.342,3" transform="translate(-501.165 -419.266)" fill="none" stroke="#0c111a" stroke-miterlimit="10" stroke-width="1.2"/>
          <path id="路径_37702" data-name="路径 37702" d="M520.434,417.337l-15.6-8.4,1.639-3.789,2.97,1.3L511.422,403" transform="translate(-476.383 -370.759)" fill="none" stroke="#0c111a" stroke-miterlimit="10" stroke-width="1.2"/>
          <path id="路径_37703" data-name="路径 37703" d="M531.333,414.5l2.695-5.5,7.749,4.1" transform="translate(-497.454 -375.53)" fill="none" stroke="#0c111a" stroke-miterlimit="10" stroke-width="1.2"/>
          <path id="路径_37704" data-name="路径 37704" d="M568.294,347.911l-6.459-12.221L568.9,322" transform="translate(-521.708 -306.349)" fill="none" stroke="#0c111a" stroke-miterlimit="10" stroke-width="1.2"/>
          <path id="路径_37705" data-name="路径 37705" d="M574,306.481l5.939-11.572,10.582-1.536.444-1.058L577.687,286l-1.809,2.9" transform="translate(-531.382 -277.722)" fill="none" stroke="#0c111a" stroke-miterlimit="10" stroke-width="1.2"/>
          <path id="路径_37706" data-name="路径 37706" d="M581.325,275.108l-3.857-1.775L576,276.711" transform="translate(-532.972 -267.65)" fill="none" stroke="#0080f4" stroke-miterlimit="10" stroke-width="1.2"/>
          <path id="路径_37707" data-name="路径 37707" d="M585.662,344l-5.5,10.036,4.676,7.1" transform="translate(-536.285 -323.843)" fill="none" stroke="#ef54a1" stroke-miterlimit="10" stroke-width="1.2"/>
          <path id="路径_37708" data-name="路径 37708" d="M525.5,327.52l3.277-6.52,8.534,1.638" transform="translate(-492.815 -305.554)" fill="none" stroke="#ef54a1" stroke-miterlimit="10" stroke-width="1.2"/>
          <line id="直线_322" data-name="直线 322" x1="7.203" y2="14.337" transform="translate(37.873 15.651)" fill="none" stroke="#ef54a1" stroke-miterlimit="10" stroke-width="1.2"/>
          <path id="路径_37709" data-name="路径 37709" d="M536.711,339.753,532,334.735,534.9,329" transform="translate(-497.984 -311.915)" fill="none" stroke="#ef54a1" stroke-miterlimit="10" stroke-width="1.2"/>
          <path id="路径_37710" data-name="路径 37710" d="M441.349,290.339l-2.765,5.7-6.452-5.257-5.564-3.14L418,283" transform="translate(-407.333 -275.337)" fill="none" stroke="#ef54a1" stroke-miterlimit="10" stroke-width="1.2"/>
          <path id="路径_37711" data-name="路径 37711" d="M422.667,276.5l9.524,4.881,4.881,1.98,8.329,2.253" transform="translate(-411.044 -270.168)" fill="none" stroke="#ef54a1" stroke-miterlimit="10" stroke-width="1.2"/>
          <path id="路径_37712" data-name="路径 37712" d="M387.912,262.782l.922-1.092,2.424.819v.717l-1.468,2.151-3.55-1.843.353-1.841-3.425-1.628" transform="translate(-379.634 -257.098)" fill="none" stroke="#ef54a1" stroke-miterlimit="10" stroke-width="1.2"/>
          <circle id="椭圆_1666" data-name="椭圆 1666" cx="1.869" cy="1.869" r="1.869" fill="none" stroke="#ef54a1" stroke-miterlimit="10" stroke-width="1.2"/>
        </g>
      </g>
      <g id="组_21523" data-name="组 21523" transform="translate(51.062 42.645)">
        <g id="组_21522" data-name="组 21522" transform="translate(0 0.769)">
          <path id="路径_37713" data-name="路径 37713" d="M678.192,281.167l-4.54,16.317L655.833,305.1" transform="translate(-647.265 -273.418)" fill="none" stroke="#000" stroke-miterlimit="10" stroke-width="1.2"/>
          <line id="直线_323" data-name="直线 323" y1="5.394" x2="1.058" transform="translate(35.228 5.393)" fill="none" stroke="#000" stroke-miterlimit="10" stroke-width="1.2"/>
          <path id="路径_37714" data-name="路径 37714" d="M772,287.772l1.058-7,5.769-4.95,30.2-4.6" transform="translate(-739.64 -265.516)" fill="none" stroke="#000" stroke-miterlimit="10" stroke-width="1.2"/>
          <path id="路径_37715" data-name="路径 37715" d="M825.179,292l1.639,5.359-5.359,4.386L792,305.142" transform="translate(-755.544 -282.032)" fill="none" stroke="#000" stroke-miterlimit="10" stroke-width="1.2"/>
          <line id="直线_324" data-name="直线 324" x1="4.753" y1="10.859" transform="translate(69.389 2.181)" fill="none" stroke="#000" stroke-miterlimit="10" stroke-width="1.2"/>
          <path id="路径_37716" data-name="路径 37716" d="M759.465,797.578l-13.2-1.925L735,787" transform="translate(-710.218 -675.651)" fill="none" stroke="#000" stroke-miterlimit="10" stroke-width="1.2"/>
          <path id="路径_37717" data-name="路径 37717" d="M692.095,621.9l-8.449-9.781L654,609" transform="translate(-645.807 -534.107)" fill="none" stroke="#000" stroke-miterlimit="10" stroke-width="1.2"/>
          <line id="直线_325" data-name="直线 325" x2="29.997" y2="8.941" transform="translate(5.853 88.968)" fill="none" stroke="#000" stroke-miterlimit="10" stroke-width="1.2"/>
          <g id="组_21521" data-name="组 21521" transform="translate(15.207)">
            <g id="组_21520" data-name="组 21520" transform="translate(57.194)">
              <path id="路径_37718" data-name="路径 37718" d="M982.674,245.833l-9.951-2.5,9.951,13.04-15.174,14.1,8.977,7.885" transform="translate(-967.5 -243.333)" fill="none" stroke="#0c111a" stroke-miterlimit="10" stroke-width="1.2"/>
              <path id="路径_37719" data-name="路径 37719" d="M1065.724,273.666l-5.769,2.116L1052,267.727l2.475-.586,3.874,1.439" transform="translate(-1034.693 -262.265)" fill="none" stroke="#0c111a" stroke-miterlimit="10" stroke-width="1.2"/>
              <path id="路径_37720" data-name="路径 37720" d="M1124.9,339l-2.232,1.977-5.892-3.309-4.781,3.55,1.433,6.964" transform="translate(-1082.405 -318.346)" fill="none" stroke="#0c111a" stroke-miterlimit="10" stroke-width="1.2"/>
            </g>
            <path id="路径_37721" data-name="路径 37721" d="M1051.915,350l2.116,14.951L1047,371.71" transform="translate(-973.524 -328.153)" fill="none" stroke="#000" stroke-miterlimit="10" stroke-width="1.2"/>
            <path id="路径_37722" data-name="路径 37722" d="M1083.7,393l-27.24,26.062-2.456,13.3" transform="translate(-979.09 -362.346)" fill="none" stroke="#000" stroke-miterlimit="10" stroke-width="1.2"/>
            <line id="直线_326" data-name="直线 326" y1="24.85" x2="2.765" transform="translate(106.656 51.476)" fill="none" stroke="#000" stroke-miterlimit="10" stroke-width="1.2"/>
            <path id="路径_37723" data-name="路径 37723" d="M1107.335,412.735,1102.42,407l-3.892,4.1L1099.7,429.9,1076,453.492" transform="translate(-996.584 -373.479)" fill="none" stroke="#0c111a" stroke-miterlimit="10" stroke-width="1.2"/>
            <path id="路径_37724" data-name="路径 37724" d="M1115.48,584l-1.025,6.554L1095,608.782" transform="translate(-1011.693 -514.228)" fill="none" stroke="#000" stroke-miterlimit="10" stroke-width="1.2"/>
            <line id="直线_327" data-name="直线 327" x1="16.18" y2="14.439" transform="translate(89.042 85.441)" fill="none" stroke="#000" stroke-miterlimit="10" stroke-width="1.2"/>
            <path id="路径_37725" data-name="路径 37725" d="M1036.809,765.078l-.563-9.012,21.862-2.816" transform="translate(-964.973 -648.813)" fill="none" stroke="#000" stroke-miterlimit="10" stroke-width="1.2"/>
            <path id="路径_37726" data-name="路径 37726" d="M914.294,783.994l22.162-10.1-.38-6.338" transform="translate(-867.997 -660.186)" fill="none" stroke="#000" stroke-miterlimit="10" stroke-width="1.2"/>
            <path id="路径_37727" data-name="路径 37727" d="M889.107,733l-33.18.41L842,744.265" transform="translate(-810.51 -632.711)" fill="none" stroke="#000" stroke-miterlimit="10" stroke-width="1.2"/>
            <path id="路径_37728" data-name="路径 37728" d="M905,776.712l7.729-2.877L909.251,762" transform="translate(-860.607 -655.771)" fill="none" stroke="#000" stroke-miterlimit="10" stroke-width="1.2"/>
            <path id="路径_37729" data-name="路径 37729" d="M757.425,699.25l-35.842.152-15.668,13.835-17.665-7.689" transform="translate(-688.25 -605.873)" fill="none" stroke="#0c111a" stroke-miterlimit="10" stroke-width="1.2"/>
          </g>
          <line id="直线_328" data-name="直线 328" x2="25.394" y2="0.61" transform="translate(5.532 61.38)" fill="none" stroke="#000" stroke-miterlimit="10" stroke-width="1.2"/>
          <path id="路径_37730" data-name="路径 37730" d="M619,536.818l1.229-11.06L623.916,519" transform="translate(-617.976 -462.54)" fill="none" stroke="#000" stroke-miterlimit="10" stroke-width="1.2"/>
          <path id="路径_37731" data-name="路径 37731" d="M614,432.288,618.3,420l28.469-2.663L657.01,403" transform="translate(-614 -370.298)" fill="none" stroke="#0c111a" stroke-miterlimit="10" stroke-width="1.2"/>
          <line id="直线_329" data-name="直线 329" y1="9.387" x2="29.288" transform="translate(5.735 30.039)" fill="none" stroke="#000" stroke-miterlimit="10" stroke-width="1.2"/>
        </g>
        <circle id="椭圆_1667" data-name="椭圆 1667" cx="1.508" cy="1.508" r="1.508" transform="translate(5.558 31.473)" fill="none" stroke="#000" stroke-miterlimit="10" stroke-width="1.2"/>
        <circle id="椭圆_1668" data-name="椭圆 1668" cx="1.508" cy="1.508" r="1.508" transform="translate(35.228 2.95)" fill="none" stroke="#000" stroke-miterlimit="10" stroke-width="1.2"/>
        <circle id="椭圆_1669" data-name="椭圆 1669" cx="1.508" cy="1.508" r="1.508" transform="translate(67.264 0)" fill="none" stroke="#000" stroke-miterlimit="10" stroke-width="1.2"/>
        <circle id="椭圆_1670" data-name="椭圆 1670" cx="1.508" cy="1.508" r="1.508" transform="translate(96.057 6.157)" fill="none" stroke="#000" stroke-miterlimit="10" stroke-width="1.2"/>
        <circle id="椭圆_1671" data-name="椭圆 1671" cx="1.508" cy="1.508" r="1.508" transform="translate(102.354 30.734)" fill="none" stroke="#000" stroke-miterlimit="10" stroke-width="1.2"/>
        <circle id="椭圆_1672" data-name="椭圆 1672" cx="1.508" cy="1.508" r="1.508" transform="translate(123.408 49.167)" fill="none" stroke="#000" stroke-miterlimit="10" stroke-width="1.2"/>
        <circle id="椭圆_1673" data-name="椭圆 1673" cx="1.508" cy="1.508" r="1.508" transform="translate(108.47 103.368)" fill="none" stroke="#000" stroke-miterlimit="10" stroke-width="1.2"/>
        <circle id="椭圆_1674" data-name="椭圆 1674" cx="1.508" cy="1.508" r="1.508" transform="translate(61.779 103.983)" fill="none" stroke="#000" stroke-miterlimit="10" stroke-width="1.2"/>
        <circle id="椭圆_1675" data-name="椭圆 1675" cx="1.508" cy="1.508" r="1.508" transform="translate(12.262 98.125)" fill="none" stroke="#0c111a" stroke-miterlimit="10" stroke-width="1.2"/>
      </g>
      <g id="组_21524" data-name="组 21524" transform="translate(83.109 72.885)">
        <path id="路径_37732" data-name="路径 37732" d="M813.108,423.541a59.539,59.539,0,0,0,4.167,11.535,35.478,35.478,0,0,0,6.776,9.847c2.572,2.493,5.46,4.057,8.509,4.057,4.8,0,9.1-2.385,12.566-4.693,1.732-1.154,3.259-2.3,4.5-3.135a7.481,7.481,0,0,1,2.588-1.294,10.462,10.462,0,0,1,3.487.987c1.347.573,2.754,1.269,3.969,1.754a.738.738,0,0,0,.965-.636,9.064,9.064,0,0,0-5.811-8.553,10.754,10.754,0,0,0-8.772.5c1.594-3.411,3.392-7.09,4.956-10.811,1.855-4.417,3.312-8.654,3.312-12.018,0-14.385-10.794-23.86-21.053-23.86-11.567,0-21.732,8.76-21.755,22.413v.043a41.245,41.245,0,0,0,.175,5.637l.152,1.4c.211,1.718.49,3.469.878,5.219Z" transform="translate(-803.084 -387.225)" fill="none" stroke="#1a1311" stroke-miterlimit="10" stroke-width="1.2"/>
        <path id="路径_37733" data-name="路径 37733" d="M780.127,531.009c-1.9-.266-3.711.534-5.352,1.206a6.881,6.881,0,0,1-2.215.636c-1-.617-.769-1.887-.329-2.719a7.61,7.61,0,0,1,1.776-2.084,12.107,12.107,0,0,1,5.242-2.259l-.152-1.4a10.828,10.828,0,0,0-5.987,2.587,8.836,8.836,0,0,0-2.105,2.478c-.859,1.91-.792,4.2,1.491,4.8a6.888,6.888,0,0,0,2.829-.746c1.619-.6,3.639-1.676,5.2-.9Z" transform="translate(-770.497 -496.294)" fill="#070203"/>
        <path id="路径_37734" data-name="路径 37734" d="M910.539,449.148a.74.74,0,0,1-1.1.569,7.346,7.346,0,0,0-3.816-.921,7.432,7.432,0,0,0-3.838.921.739.739,0,0,1-1.075-.569,23.2,23.2,0,0,1,.811-6.711c.607-1.877,1.808-3.609,4.1-3.816,1.875.036,3.131,2.033,3.816,3.8a20.681,20.681,0,0,1,1.1,6.733" transform="translate(-874.045 -428.095)" fill="#070203"/>
        <path id="路径_37735" data-name="路径 37735" d="M836.685,449.718a.74.74,0,0,1-1.075-.569,23.214,23.214,0,0,1,.811-6.711c.607-1.877,1.808-3.609,4.1-3.816,1.875.036,3.131,2.033,3.816,3.8a20.694,20.694,0,0,1,1.1,6.733.74.74,0,0,1-1.1.569,7.349,7.349,0,0,0-3.816-.921A7.426,7.426,0,0,0,836.685,449.718Z" transform="translate(-822.275 -428.095)" fill="#070203"/>
        <path id="路径_37736" data-name="路径 37736" d="M877.552,527.077a10.563,10.563,0,0,0-11.448-.9,12.736,12.736,0,0,0-3.882,2.872c-.911,1.063-1.737,2.593-.175,3.4a7.41,7.41,0,0,0,2.479-.132c2.326-.389,4.7-.791,6.886.68l-.877,1.1c-1.5-1.157-3.849-.687-5.769-.394a7.886,7.886,0,0,1-3.048.131c-3.059-.8-1.9-4.061-.548-5.7a13.978,13.978,0,0,1,4.32-3.2,12.366,12.366,0,0,1,12.917,1.031Z" transform="translate(-841.498 -495.649)" fill="#070203"/>
      </g>
    </g>
    <g id="NAV_bg" transform="translate(790.227 -631)" clip-path="url(#clip-path)">
      <g id="组_22050" data-name="组 22050" transform="translate(-18.977 10.255)" opacity="0.05">
        <g id="组_22048" data-name="组 22048" transform="translate(0 2.874)">
          <g id="组_21990" data-name="组 21990" transform="translate(188.257 85.27)">
            <g id="组_21988" data-name="组 21988" transform="translate(0 0)">
              <rect id="矩形_2697" data-name="矩形 2697" width="179.215" height="0.718" transform="translate(0 32.151) rotate(-10.335)"/>
            </g>
            <g id="组_21989" data-name="组 21989" transform="translate(0 0)">
              <rect id="矩形_2698" data-name="矩形 2698" width="179.215" height="0.718" transform="translate(0 32.151) rotate(-10.335)"/>
            </g>
          </g>
          <g id="组_21994" data-name="组 21994" transform="translate(188.307 12.316)">
            <g id="组_21991" data-name="组 21991" transform="translate(176.146 0.139)">
              <rect id="矩形_2699" data-name="矩形 2699" width="73.217" height="0.479" transform="translate(0 73.071) rotate(-86.388)"/>
            </g>
            <g id="组_21992" data-name="组 21992">
              <path id="路径_39936" data-name="路径 39936" d="M62.839,165.058l-.239-.479L243.251,59.3l.479.479Z" transform="translate(-62.6 -59.3)"/>
            </g>
            <g id="组_21993" data-name="组 21993">
              <path id="路径_39937" data-name="路径 39937" d="M62.839,165.058l-.239-.479L243.251,59.3l.479.479Z" transform="translate(-62.6 -59.3)"/>
            </g>
          </g>
          <g id="组_21999" data-name="组 21999" transform="translate(188.193 12.261)">
            <g id="组_21995" data-name="组 21995" transform="translate(124.022 0)">
              <rect id="矩形_2700" data-name="矩形 2700" width="69.15" height="0.479" transform="translate(0 39.478) rotate(-34.814)"/>
            </g>
            <g id="组_21996" data-name="组 21996" transform="translate(124.176 39.639)">
              <rect id="矩形_2701" data-name="矩形 2701" width="0.479" height="61.971" transform="matrix(0.54, -0.841, 0.841, 0.54, 0, 0.403)"/>
            </g>
            <g id="组_21997" data-name="组 21997" transform="translate(0 39.44)">
              <rect id="矩形_2702" data-name="矩形 2702" width="140.453" height="0.479" transform="translate(0 65.871) rotate(-27.969)"/>
            </g>
            <g id="组_21998" data-name="组 21998" transform="translate(0 39.44)">
              <rect id="矩形_2703" data-name="矩形 2703" width="140.453" height="0.479" transform="translate(0 65.871) rotate(-27.969)"/>
            </g>
          </g>
          <g id="组_22002" data-name="组 22002" transform="translate(0 117.596)">
            <g id="组_22000" data-name="组 22000" transform="translate(0 0)">
              <path id="路径_39938" data-name="路径 39938" d="M-16.1,282.754,172.446,103.779l-.239-.479L-16.1,282.036Z" transform="translate(16.1 -103.3)"/>
            </g>
            <g id="组_22001" data-name="组 22001" transform="translate(0 0)">
              <path id="路径_39939" data-name="路径 39939" d="M-16.1,282.754,172.446,103.779l-.239-.479L-16.1,282.036Z" transform="translate(16.1 -103.3)"/>
            </g>
          </g>
          <g id="组_22009" data-name="组 22009" transform="translate(0 51.796)">
            <g id="组_22003" data-name="组 22003" transform="translate(0 48.333)">
              <path id="路径_39940" data-name="路径 39940" d="M-16.1,246.741,11.177,96h-.718L-16.1,243.392Z" transform="translate(16.1 -96)"/>
            </g>
            <g id="组_22004" data-name="组 22004" transform="translate(0 43.787)">
              <path id="路径_39941" data-name="路径 39941" d="M-16.1,94.1v.479l26.8,4.307.239-.479Z" transform="translate(16.1 -94.1)"/>
            </g>
            <g id="组_22005" data-name="组 22005" transform="translate(26.799)">
              <path id="路径_39942" data-name="路径 39942" d="M-4.661,124.372l-.239-.479L280.791,75.8v.479Z" transform="translate(4.9 -75.8)"/>
            </g>
            <g id="组_22006" data-name="组 22006" transform="translate(0 48.094)">
              <path id="路径_39943" data-name="路径 39943" d="M-16.1,113.845,10.938,96.379,10.7,95.9l-26.8,17.228Z" transform="translate(16.1 -95.9)"/>
            </g>
            <g id="组_22007" data-name="组 22007" transform="translate(26.972 48.125)">
              <rect id="矩形_2704" data-name="矩形 2704" width="0.479" height="162.466" transform="translate(0 0.476) rotate(-83.754)"/>
            </g>
            <g id="组_22008" data-name="组 22008" transform="translate(26.972 48.125)">
              <rect id="矩形_2705" data-name="矩形 2705" width="0.479" height="162.466" transform="translate(0 0.476) rotate(-83.754)"/>
            </g>
          </g>
          <g id="组_22015" data-name="组 22015" transform="translate(188.231 12.621)">
            <g id="组_22010" data-name="组 22010" transform="translate(123.78 39.414)">
              <path id="路径_39944" data-name="路径 39944" d="M152.824,328.571,114.3,75.9h.718L153.3,328.571Z" transform="translate(-114.3 -75.9)"/>
            </g>
            <g id="组_22011" data-name="组 22011" transform="translate(162.246 0)">
              <rect id="矩形_2706" data-name="矩形 2706" width="292.63" height="0.479" transform="translate(0 292.053) rotate(-86.406)"/>
            </g>
            <g id="组_22012" data-name="组 22012" transform="translate(162.312 73.138)">
              <rect id="矩形_2707" data-name="矩形 2707" width="219.413" height="0.479" transform="matrix(0.063, -0.998, 0.998, 0.063, 0, 218.978)"/>
            </g>
            <g id="组_22013" data-name="组 22013" transform="translate(0 105.011)">
              <rect id="矩形_2708" data-name="矩形 2708" width="0.479" height="247.647" transform="matrix(0.755, -0.656, 0.656, 0.755, 0, 0.314)"/>
            </g>
            <g id="组_22014" data-name="组 22014" transform="translate(0 105.011)">
              <rect id="矩形_2709" data-name="矩形 2709" width="0.479" height="247.647" transform="matrix(0.755, -0.656, 0.656, 0.755, 0, 0.314)"/>
            </g>
          </g>
          <g id="组_22023" data-name="组 22023" transform="translate(0 51.951)">
            <g id="组_22016" data-name="组 22016" transform="translate(201.11 252.678)">
              <rect id="矩形_2710" data-name="矩形 2710" width="153.374" height="0.718" transform="translate(0 33.589) rotate(-12.647)"/>
            </g>
            <g id="组_22017" data-name="组 22017" transform="translate(26.559 47.938)">
              <path id="路径_39945" data-name="路径 39945" d="M169.43,334.933-5,96.379l.479-.479,174.43,238.794Z" transform="translate(5 -95.9)"/>
            </g>
            <g id="组_22018" data-name="组 22018" transform="translate(0 255.866)">
              <path id="路径_39946" data-name="路径 39946" d="M-16.1,182.8v.479l201.228,30.866v-.718Z" transform="translate(16.1 -182.8)"/>
            </g>
            <g id="组_22019" data-name="组 22019" transform="translate(200.992 0)">
              <rect id="矩形_2711" data-name="矩形 2711" width="307.465" height="0.718" transform="matrix(0.361, -0.932, 0.932, 0.361, 0, 286.708)"/>
            </g>
            <g id="组_22020" data-name="组 22020" transform="translate(200.989 33.582)">
              <path id="路径_39947" data-name="路径 39947" d="M68.379,343.289l-.479-.239L231.323,89.9l.479.239Z" transform="translate(-67.9 -89.9)"/>
            </g>
            <g id="组_22021" data-name="组 22021" transform="translate(188.113 65.8)">
              <rect id="矩形_2712" data-name="矩形 2712" width="0.718" height="221.327" transform="matrix(0.998, -0.058, 0.058, 0.998, 0, 0.042)"/>
            </g>
            <g id="组_22022" data-name="组 22022" transform="translate(188.113 65.8)">
              <rect id="矩形_2713" data-name="矩形 2713" width="0.718" height="221.327" transform="matrix(0.998, -0.058, 0.058, 0.998, 0, 0.042)"/>
            </g>
          </g>
          <g id="组_22028" data-name="组 22028" transform="translate(312.25 0)">
            <g id="组_22024" data-name="组 22024" transform="translate(209.602 0.113)">
              <path id="路径_39948" data-name="路径 39948" d="M426.676,174.554,202.239,54.2l-.239.479L426.676,175.032Z" transform="translate(-202 -54.2)"/>
            </g>
            <g id="组_22025" data-name="组 22025" transform="translate(0 0.113)">
              <path id="路径_39949" data-name="路径 39949" d="M114.639,106.361l-.239-.479L324,54.2l.239.479Z" transform="translate(-114.4 -54.2)"/>
            </g>
            <g id="组_22026" data-name="组 22026" transform="translate(56.947 0.113)">
              <path id="路径_39950" data-name="路径 39950" d="M138.2,66.881V66.4L290.856,54.2l.239.479Z" transform="translate(-138.2 -54.2)"/>
            </g>
            <g id="组_22027" data-name="组 22027" transform="translate(52.339)">
              <rect id="矩形_2714" data-name="矩形 2714" width="178.976" height="0.479" transform="matrix(0.879, -0.477, 0.477, 0.879, 0, 85.371)"/>
            </g>
          </g>
          <g id="组_22031" data-name="组 22031" transform="translate(350.773 85.525)">
            <g id="组_22029" data-name="组 22029" transform="translate(0 218.942)">
              <path id="路径_39951" data-name="路径 39951" d="M298.23,220.641,130.5,181.879V181.4l167.73,38.524Z" transform="translate(-130.5 -181.4)"/>
            </g>
            <g id="组_22030" data-name="组 22030" transform="translate(13.604 0)">
              <rect id="矩形_2715" data-name="矩形 2715" width="0.718" height="300.287" transform="matrix(0.859, -0.513, 0.513, 0.859, 0, 0.368)"/>
            </g>
          </g>
          <g id="组_22039" data-name="组 22039" transform="translate(312.25 0.064)">
            <g id="组_22032" data-name="组 22032" transform="translate(205.966 202.951)">
              <rect id="矩形_2716" data-name="矩形 2716" width="151.22" height="0.718" transform="translate(0 140.181) rotate(-68.028)"/>
            </g>
            <g id="组_22033" data-name="组 22033" transform="translate(209.377 0)">
              <rect id="矩形_2717" data-name="矩形 2717" width="0.718" height="209.602" transform="translate(0 0.182) rotate(-14.662)"/>
            </g>
            <g id="组_22034" data-name="组 22034" transform="translate(262.721 149.356)">
              <path id="路径_39952" data-name="路径 39952" d="M395.758,116.6,224.2,169.958v.479l171.558-53.119Z" transform="translate(-224.2 -116.6)"/>
            </g>
            <g id="组_22035" data-name="组 22035" transform="translate(38.434 202.489)">
              <rect id="矩形_2718" data-name="矩形 2718" width="246.211" height="0.479" transform="translate(0 101.959) rotate(-24.463)"/>
            </g>
            <g id="组_22036" data-name="组 22036" transform="translate(0 51.733)">
              <path id="路径_39953" data-name="路径 39953" d="M376.882,227.26,114.4,76.279l.239-.479L377.36,226.781Z" transform="translate(-114.4 -75.8)"/>
            </g>
            <g id="组_22037" data-name="组 22037" transform="translate(56.774 12.163)">
              <rect id="矩形_2719" data-name="矩形 2719" width="0.718" height="280.427" transform="translate(0 0.527) rotate(-47.229)"/>
            </g>
            <g id="组_22038" data-name="组 22038" transform="translate(52.15 85.228)">
              <rect id="矩形_2720" data-name="矩形 2720" width="0.718" height="240.947" transform="translate(0 0.627) rotate(-60.849)"/>
            </g>
          </g>
          <g id="组_22041" data-name="组 22041" transform="translate(574.971 202.777)">
            <g id="组_22040" data-name="组 22040">
              <path id="路径_39954" data-name="路径 39954" d="M395.758,183.644,224.2,138.9v.479l171.558,44.983Z" transform="translate(-224.2 -138.9)"/>
            </g>
          </g>
          <g id="组_22047" data-name="组 22047" transform="translate(350.735 188.899)">
            <g id="组_22042" data-name="组 22042" transform="translate(281.901 129.446)">
              <path id="路径_39955" data-name="路径 39955" d="M362.194,187.2,248.3,223.809l.239.718,113.654-36.609Z" transform="translate(-248.3 -187.2)"/>
            </g>
            <g id="组_22043" data-name="组 22043" transform="translate(223.997 13.878)">
              <path id="路径_39956" data-name="路径 39956" d="M282,291.556,224.1,139.139l.479-.239,57.9,152.416Z" transform="translate(-224.1 -138.9)"/>
            </g>
            <g id="组_22044" data-name="组 22044" transform="translate(167.662 153.924)">
              <rect id="矩形_2721" data-name="矩形 2721" width="0.718" height="114.851" transform="translate(0 0.714) rotate(-83.996)"/>
            </g>
            <g id="组_22045" data-name="组 22045" transform="translate(281.901)">
              <path id="路径_39957" data-name="路径 39957" d="M362.194,133.1,248.3,299.394l.479.239L362.194,134.057Z" transform="translate(-248.3 -133.1)"/>
            </g>
            <g id="组_22046" data-name="组 22046" transform="translate(0 115.638)">
              <rect id="矩形_2722" data-name="矩形 2722" width="0.479" height="286.409" transform="translate(0 0.471) rotate(-79.81)"/>
            </g>
          </g>
        </g>
        <g id="组_22049" data-name="组 22049" transform="translate(23.804 0)">
          <path id="路径_39958" data-name="路径 39958" d="M65.313,108.266a3.106,3.106,0,1,1,2.154-3.828A3.179,3.179,0,0,1,65.313,108.266Z" transform="translate(100.147 15.553)"/>
          <path id="路径_39959" data-name="路径 39959" d="M139.013,94.766a3.106,3.106,0,1,1,2.154-3.828A3.524,3.524,0,0,1,139.013,94.766Z" transform="translate(202.791 -3.248)"/>
          <path id="路径_39960" data-name="路径 39960" d="M65.313,108.266a3.106,3.106,0,1,1,2.154-3.828A3.179,3.179,0,0,1,65.313,108.266Z" transform="translate(100.147 15.553)"/>
          <path id="路径_39961" data-name="路径 39961" d="M139.013,94.766a3.106,3.106,0,1,1,2.154-3.828A3.524,3.524,0,0,1,139.013,94.766Z" transform="translate(202.791 -3.248)"/>
          <path id="路径_39962" data-name="路径 39962" d="M139.013,94.766a3.106,3.106,0,1,1,2.154-3.828A3.524,3.524,0,0,1,139.013,94.766Z" transform="translate(202.791 -3.248)"/>
          <path id="路径_39963" data-name="路径 39963" d="M140.913,64.266a3.106,3.106,0,1,1,2.154-3.828A3.179,3.179,0,0,1,140.913,64.266Z" transform="translate(205.437 -45.727)"/>
          <path id="路径_39964" data-name="路径 39964" d="M65.313,108.266a3.106,3.106,0,1,1,2.154-3.828A3.179,3.179,0,0,1,65.313,108.266Z" transform="translate(100.147 15.553)"/>
          <path id="路径_39965" data-name="路径 39965" d="M140.913,64.266a3.106,3.106,0,1,1,2.154-3.828A3.179,3.179,0,0,1,140.913,64.266Z" transform="translate(205.437 -45.727)"/>
          <path id="路径_39966" data-name="路径 39966" d="M65.313,108.266a3.106,3.106,0,1,1,2.154-3.828A3.179,3.179,0,0,1,65.313,108.266Z" transform="translate(100.147 15.553)"/>
          <path id="路径_39967" data-name="路径 39967" d="M140.913,64.266a3.106,3.106,0,1,1,2.154-3.828A3.179,3.179,0,0,1,140.913,64.266Z" transform="translate(205.437 -45.727)"/>
          <path id="路径_39968" data-name="路径 39968" d="M140.913,64.266a3.106,3.106,0,1,1,2.154-3.828A3.179,3.179,0,0,1,140.913,64.266Z" transform="translate(205.437 -45.727)"/>
          <path id="路径_39969" data-name="路径 39969" d="M117.113,80.766a3.106,3.106,0,1,1,2.154-3.828A3.179,3.179,0,0,1,117.113,80.766Z" transform="translate(172.29 -22.747)"/>
          <path id="路径_39970" data-name="路径 39970" d="M139.013,94.766a3.106,3.106,0,1,1,2.154-3.828A3.524,3.524,0,0,1,139.013,94.766Z" transform="translate(202.791 -3.248)"/>
          <path id="路径_39971" data-name="路径 39971" d="M117.113,80.766a3.106,3.106,0,1,1,2.154-3.828A3.179,3.179,0,0,1,117.113,80.766Z" transform="translate(172.29 -22.747)"/>
          <path id="路径_39972" data-name="路径 39972" d="M65.313,108.266a3.106,3.106,0,1,1,2.154-3.828A3.179,3.179,0,0,1,65.313,108.266Z" transform="translate(100.147 15.553)"/>
          <path id="路径_39973" data-name="路径 39973" d="M117.113,80.766a3.106,3.106,0,1,1,2.154-3.828A3.179,3.179,0,0,1,117.113,80.766Z" transform="translate(172.29 -22.747)"/>
          <path id="路径_39974" data-name="路径 39974" d="M65.313,108.266a3.106,3.106,0,1,1,2.154-3.828A3.179,3.179,0,0,1,65.313,108.266Z" transform="translate(100.147 15.553)"/>
          <path id="路径_39975" data-name="路径 39975" d="M117.113,80.766a3.106,3.106,0,1,1,2.154-3.828A3.179,3.179,0,0,1,117.113,80.766Z" transform="translate(172.29 -22.747)"/>
          <path id="路径_39976" data-name="路径 39976" d="M65.313,108.266a3.106,3.106,0,1,1,2.154-3.828A3.179,3.179,0,0,1,65.313,108.266Z" transform="translate(100.147 15.553)"/>
          <path id="路径_39977" data-name="路径 39977" d="M65.313,108.266a3.106,3.106,0,1,1,2.154-3.828A3.179,3.179,0,0,1,65.313,108.266Z" transform="translate(100.147 15.553)"/>
          <path id="路径_39978" data-name="路径 39978" d="M-2.2,100.855a3.074,3.074,0,0,1-2.367-.272A3.074,3.074,0,0,1-6.027,98.7a3.074,3.074,0,0,1,.272-2.367,3.074,3.074,0,0,1,1.881-1.462,3.074,3.074,0,0,1,2.367.272A3.074,3.074,0,0,1-.045,97.026,3.179,3.179,0,0,1-2.2,100.855Z" transform="translate(6.15 5.259)"/>
          <path id="路径_39979" data-name="路径 39979" d="M-2.2,100.855a3.074,3.074,0,0,1-2.367-.272A3.074,3.074,0,0,1-6.027,98.7a3.074,3.074,0,0,1,.272-2.367,3.074,3.074,0,0,1,1.881-1.462,3.074,3.074,0,0,1,2.367.272A3.074,3.074,0,0,1-.045,97.026,3.179,3.179,0,0,1-2.2,100.855Z" transform="translate(6.15 5.259)"/>
          <path id="路径_39980" data-name="路径 39980" d="M117.113,80.766a3.106,3.106,0,1,1,2.154-3.828A3.179,3.179,0,0,1,117.113,80.766Z" transform="translate(172.29 -22.747)"/>
          <path id="路径_39981" data-name="路径 39981" d="M-2.2,100.855a3.074,3.074,0,0,1-2.367-.272A3.074,3.074,0,0,1-6.027,98.7a3.074,3.074,0,0,1,.272-2.367,3.074,3.074,0,0,1,1.881-1.462,3.074,3.074,0,0,1,2.367.272A3.074,3.074,0,0,1-.045,97.026,3.179,3.179,0,0,1-2.2,100.855Z" transform="translate(6.15 5.259)"/>
          <path id="路径_39982" data-name="路径 39982" d="M-2.2,100.855a3.074,3.074,0,0,1-2.367-.272A3.074,3.074,0,0,1-6.027,98.7a3.074,3.074,0,0,1,.272-2.367,3.074,3.074,0,0,1,1.881-1.462,3.074,3.074,0,0,1,2.367.272A3.074,3.074,0,0,1-.045,97.026,3.179,3.179,0,0,1-2.2,100.855Z" transform="translate(6.15 5.259)"/>
          <path id="路径_39983" data-name="路径 39983" d="M65.313,108.266a3.106,3.106,0,1,1,2.154-3.828A3.179,3.179,0,0,1,65.313,108.266Z" transform="translate(100.147 15.553)"/>
          <path id="路径_39984" data-name="路径 39984" d="M-2.2,100.855a3.074,3.074,0,0,1-2.367-.272A3.074,3.074,0,0,1-6.027,98.7a3.074,3.074,0,0,1,.272-2.367,3.074,3.074,0,0,1,1.881-1.462,3.074,3.074,0,0,1,2.367.272A3.074,3.074,0,0,1-.045,97.026,3.179,3.179,0,0,1-2.2,100.855Z" transform="translate(6.15 5.259)"/>
          <path id="路径_39985" data-name="路径 39985" d="M65.313,108.266a3.106,3.106,0,1,1,2.154-3.828A3.179,3.179,0,0,1,65.313,108.266Z" transform="translate(100.147 15.553)"/>
          <path id="路径_39986" data-name="路径 39986" d="M-2.2,100.855a3.074,3.074,0,0,1-2.367-.272A3.074,3.074,0,0,1-6.027,98.7a3.074,3.074,0,0,1,.272-2.367,3.074,3.074,0,0,1,1.881-1.462,3.074,3.074,0,0,1,2.367.272A3.074,3.074,0,0,1-.045,97.026,3.179,3.179,0,0,1-2.2,100.855Z" transform="translate(6.15 5.259)"/>
          <path id="路径_39987" data-name="路径 39987" d="M117.113,80.766a3.106,3.106,0,1,1,2.154-3.828A3.179,3.179,0,0,1,117.113,80.766Z" transform="translate(172.29 -22.747)"/>
          <path id="路径_39988" data-name="路径 39988" d="M133.213,186.266a3.106,3.106,0,1,1,2.154-3.828,3.074,3.074,0,0,1-2.154,3.828Z" transform="translate(194.713 124.186)"/>
          <path id="路径_39989" data-name="路径 39989" d="M140.913,64.266a3.106,3.106,0,1,1,2.154-3.828A3.179,3.179,0,0,1,140.913,64.266Z" transform="translate(205.437 -45.727)"/>
          <path id="路径_39990" data-name="路径 39990" d="M133.213,186.266a3.106,3.106,0,1,1,2.154-3.828,3.074,3.074,0,0,1-2.154,3.828Z" transform="translate(194.713 124.186)"/>
          <path id="路径_39991" data-name="路径 39991" d="M139.013,94.766a3.106,3.106,0,1,1,2.154-3.828A3.524,3.524,0,0,1,139.013,94.766Z" transform="translate(202.791 -3.248)"/>
          <path id="路径_39992" data-name="路径 39992" d="M133.213,186.266a3.106,3.106,0,1,1,2.154-3.828,3.074,3.074,0,0,1-2.154,3.828Z" transform="translate(194.713 124.186)"/>
          <path id="路径_39993" data-name="路径 39993" d="M65.313,108.266a3.106,3.106,0,1,1,2.154-3.828A3.179,3.179,0,0,1,65.313,108.266Z" transform="translate(100.147 15.553)"/>
          <path id="路径_39994" data-name="路径 39994" d="M133.213,186.266a3.106,3.106,0,1,1,2.154-3.828,3.074,3.074,0,0,1-2.154,3.828Z" transform="translate(194.713 124.186)"/>
          <path id="路径_39995" data-name="路径 39995" d="M65.313,108.266a3.106,3.106,0,1,1,2.154-3.828A3.179,3.179,0,0,1,65.313,108.266Z" transform="translate(100.147 15.553)"/>
          <path id="路径_39996" data-name="路径 39996" d="M133.213,186.266a3.106,3.106,0,1,1,2.154-3.828,3.074,3.074,0,0,1-2.154,3.828Z" transform="translate(194.713 124.186)"/>
          <path id="路径_39997" data-name="路径 39997" d="M133.213,186.266a3.106,3.106,0,1,1,2.154-3.828,3.074,3.074,0,0,1-2.154,3.828Z" transform="translate(194.713 124.186)"/>
          <path id="路径_39998" data-name="路径 39998" d="M70.713,200.566a3.106,3.106,0,1,1,2.154-3.828,3.074,3.074,0,0,1-2.154,3.828Z" transform="translate(107.668 144.102)"/>
          <path id="路径_39999" data-name="路径 39999" d="M-2.2,100.855a3.074,3.074,0,0,1-2.367-.272A3.074,3.074,0,0,1-6.027,98.7a3.074,3.074,0,0,1,.272-2.367,3.074,3.074,0,0,1,1.881-1.462,3.074,3.074,0,0,1,2.367.272A3.074,3.074,0,0,1-.045,97.026,3.179,3.179,0,0,1-2.2,100.855Z" transform="translate(6.15 5.259)"/>
          <path id="路径_40000" data-name="路径 40000" d="M70.713,200.566a3.106,3.106,0,1,1,2.154-3.828,3.074,3.074,0,0,1-2.154,3.828Z" transform="translate(107.668 144.102)"/>
          <path id="路径_40001" data-name="路径 40001" d="M70.713,200.566a3.106,3.106,0,1,1,2.154-3.828,3.074,3.074,0,0,1-2.154,3.828Z" transform="translate(107.668 144.102)"/>
          <path id="路径_40002" data-name="路径 40002" d="M117.113,80.766a3.106,3.106,0,1,1,2.154-3.828A3.179,3.179,0,0,1,117.113,80.766Z" transform="translate(172.29 -22.747)"/>
          <path id="路径_40003" data-name="路径 40003" d="M70.713,200.566a3.106,3.106,0,1,1,2.154-3.828,3.074,3.074,0,0,1-2.154,3.828Z" transform="translate(107.668 144.102)"/>
          <path id="路径_40004" data-name="路径 40004" d="M139.013,94.766a3.106,3.106,0,1,1,2.154-3.828A3.524,3.524,0,0,1,139.013,94.766Z" transform="translate(202.791 -3.248)"/>
          <path id="路径_40005" data-name="路径 40005" d="M70.713,200.566a3.106,3.106,0,1,1,2.154-3.828,3.074,3.074,0,0,1-2.154,3.828Z" transform="translate(107.668 144.102)"/>
          <path id="路径_40006" data-name="路径 40006" d="M65.313,108.266a3.106,3.106,0,1,1,2.154-3.828A3.179,3.179,0,0,1,65.313,108.266Z" transform="translate(100.147 15.553)"/>
          <path id="路径_40007" data-name="路径 40007" d="M70.713,200.566a3.106,3.106,0,1,1,2.154-3.828,3.074,3.074,0,0,1-2.154,3.828Z" transform="translate(107.668 144.102)"/>
          <path id="路径_40008" data-name="路径 40008" d="M65.313,108.266a3.106,3.106,0,1,1,2.154-3.828A3.179,3.179,0,0,1,65.313,108.266Z" transform="translate(100.147 15.553)"/>
          <path id="路径_40009" data-name="路径 40009" d="M70.713,200.566a3.106,3.106,0,1,1,2.154-3.828,3.074,3.074,0,0,1-2.154,3.828Z" transform="translate(107.668 144.102)"/>
          <path id="路径_40010" data-name="路径 40010" d="M204.713,59.066a3.106,3.106,0,1,1,2.154-3.828,3.074,3.074,0,0,1-2.154,3.828Z" transform="translate(294.293 -52.969)"/>
          <path id="路径_40011" data-name="路径 40011" d="M117.113,80.766a3.106,3.106,0,1,1,2.154-3.828A3.179,3.179,0,0,1,117.113,80.766Z" transform="translate(172.29 -22.747)"/>
          <path id="路径_40012" data-name="路径 40012" d="M204.713,59.066a3.106,3.106,0,1,1,2.154-3.828,3.074,3.074,0,0,1-2.154,3.828Z" transform="translate(294.293 -52.969)"/>
          <path id="路径_40013" data-name="路径 40013" d="M140.913,64.266a3.106,3.106,0,1,1,2.154-3.828A3.179,3.179,0,0,1,140.913,64.266Z" transform="translate(205.437 -45.727)"/>
          <path id="路径_40014" data-name="路径 40014" d="M204.713,59.066a3.106,3.106,0,1,1,2.154-3.828,3.074,3.074,0,0,1-2.154,3.828Z" transform="translate(294.293 -52.969)"/>
          <path id="路径_40015" data-name="路径 40015" d="M139.013,94.766a3.106,3.106,0,1,1,2.154-3.828A3.524,3.524,0,0,1,139.013,94.766Z" transform="translate(202.791 -3.248)"/>
          <path id="路径_40016" data-name="路径 40016" d="M204.713,59.066a3.106,3.106,0,1,1,2.154-3.828,3.074,3.074,0,0,1-2.154,3.828Z" transform="translate(294.293 -52.969)"/>
          <path id="路径_40017" data-name="路径 40017" d="M133.213,186.266a3.106,3.106,0,1,1,2.154-3.828,3.074,3.074,0,0,1-2.154,3.828Z" transform="translate(194.713 124.186)"/>
          <path id="路径_40018" data-name="路径 40018" d="M203.313,202.466a3.106,3.106,0,1,1,2.154-3.828,3.074,3.074,0,0,1-2.154,3.828Z" transform="translate(292.343 146.748)"/>
          <path id="路径_40019" data-name="路径 40019" d="M139.013,94.766a3.106,3.106,0,1,1,2.154-3.828A3.524,3.524,0,0,1,139.013,94.766Z" transform="translate(202.791 -3.248)"/>
          <path id="路径_40020" data-name="路径 40020" d="M203.313,202.466a3.106,3.106,0,1,1,2.154-3.828,3.074,3.074,0,0,1-2.154,3.828Z" transform="translate(292.343 146.748)"/>
          <path id="路径_40021" data-name="路径 40021" d="M203.313,202.466a3.106,3.106,0,1,1,2.154-3.828,3.074,3.074,0,0,1-2.154,3.828Z" transform="translate(292.343 146.748)"/>
          <path id="路径_40022" data-name="路径 40022" d="M226.913,143.765a3.106,3.106,0,1,1,2.154-3.828,3.074,3.074,0,0,1-2.154,3.828Z" transform="translate(325.211 64.995)"/>
          <path id="路径_40023" data-name="路径 40023" d="M204.713,59.066a3.106,3.106,0,1,1,2.154-3.828,3.074,3.074,0,0,1-2.154,3.828Z" transform="translate(294.293 -52.969)"/>
          <path id="路径_40024" data-name="路径 40024" d="M226.913,143.765a3.106,3.106,0,1,1,2.154-3.828,3.074,3.074,0,0,1-2.154,3.828Z" transform="translate(325.211 64.995)"/>
          <path id="路径_40025" data-name="路径 40025" d="M226.913,143.765a3.106,3.106,0,1,1,2.154-3.828,3.074,3.074,0,0,1-2.154,3.828Z" transform="translate(325.211 64.995)"/>
          <path id="路径_40026" data-name="路径 40026" d="M133.213,186.266a3.106,3.106,0,1,1,2.154-3.828,3.074,3.074,0,0,1-2.154,3.828Z" transform="translate(194.713 124.186)"/>
          <path id="路径_40027" data-name="路径 40027" d="M226.913,143.765a3.106,3.106,0,1,1,2.154-3.828,3.074,3.074,0,0,1-2.154,3.828Z" transform="translate(325.211 64.995)"/>
          <path id="路径_40028" data-name="路径 40028" d="M117.113,80.766a3.106,3.106,0,1,1,2.154-3.828A3.179,3.179,0,0,1,117.113,80.766Z" transform="translate(172.29 -22.747)"/>
          <path id="路径_40029" data-name="路径 40029" d="M226.913,143.765a3.106,3.106,0,1,1,2.154-3.828,3.074,3.074,0,0,1-2.154,3.828Z" transform="translate(325.211 64.995)"/>
          <path id="路径_40030" data-name="路径 40030" d="M140.913,64.266a3.106,3.106,0,1,1,2.154-3.828A3.179,3.179,0,0,1,140.913,64.266Z" transform="translate(205.437 -45.727)"/>
          <path id="路径_40031" data-name="路径 40031" d="M226.913,143.765a3.106,3.106,0,1,1,2.154-3.828,3.074,3.074,0,0,1-2.154,3.828Z" transform="translate(325.211 64.995)"/>
          <path id="路径_40032" data-name="路径 40032" d="M139.013,94.766a3.106,3.106,0,1,1,2.154-3.828A3.524,3.524,0,0,1,139.013,94.766Z" transform="translate(202.791 -3.248)"/>
          <path id="路径_40033" data-name="路径 40033" d="M226.913,143.765a3.106,3.106,0,1,1,2.154-3.828,3.074,3.074,0,0,1-2.154,3.828Z" transform="translate(325.211 64.995)"/>
          <path id="路径_40034" data-name="路径 40034" d="M226.913,143.765a3.106,3.106,0,1,1,2.154-3.828,3.074,3.074,0,0,1-2.154,3.828Z" transform="translate(325.211 64.995)"/>
          <path id="路径_40035" data-name="路径 40035" d="M251.013,207.466a3.106,3.106,0,1,1,2.154-3.828,3.074,3.074,0,0,1-2.154,3.828Z" transform="translate(358.776 153.712)"/>
          <path id="路径_40036" data-name="路径 40036" d="M226.913,143.765a3.106,3.106,0,1,1,2.154-3.828,3.074,3.074,0,0,1-2.154,3.828Z" transform="translate(325.211 64.995)"/>
          <path id="路径_40037" data-name="路径 40037" d="M251.013,207.466a3.106,3.106,0,1,1,2.154-3.828,3.074,3.074,0,0,1-2.154,3.828Z" transform="translate(358.776 153.712)"/>
          <path id="路径_40038" data-name="路径 40038" d="M203.313,202.466a3.106,3.106,0,1,1,2.154-3.828,3.074,3.074,0,0,1-2.154,3.828Z" transform="translate(292.343 146.748)"/>
          <path id="路径_40039" data-name="路径 40039" d="M251.013,207.466a3.106,3.106,0,1,1,2.154-3.828,3.074,3.074,0,0,1-2.154,3.828Z" transform="translate(358.776 153.712)"/>
          <path id="路径_40040" data-name="路径 40040" d="M251.013,207.466a3.106,3.106,0,1,1,2.154-3.828,3.074,3.074,0,0,1-2.154,3.828Z" transform="translate(358.776 153.712)"/>
          <path id="路径_40041" data-name="路径 40041" d="M133.213,186.266a3.106,3.106,0,1,1,2.154-3.828,3.074,3.074,0,0,1-2.154,3.828Z" transform="translate(194.713 124.186)"/>
        </g>
      </g>
    </g>
    <g id="组_21998-2" data-name="组 21998" transform="translate(0 -17.99)">
      <path id="路径_39974-2" data-name="路径 39974" d="M2.085-4A1.733,1.733,0,0,0,.8-3.5a2.141,2.141,0,0,0-.57,1.56A1.856,1.856,0,0,0,2.09.145,1.862,1.862,0,0,0,3.96-1.94,2.156,2.156,0,0,0,3.4-3.5,1.752,1.752,0,0,0,2.085-4ZM2.1-.45a1.08,1.08,0,0,1-.775-.305,1.652,1.652,0,0,1-.4-1.18c0-.9.455-1.475,1.175-1.475a1.076,1.076,0,0,1,.77.305A1.615,1.615,0,0,1,3.26-1.94C3.26-1.02,2.815-.45,2.1-.45ZM15.24-3.92a4.07,4.07,0,0,1,.04.685v1.76A.913.913,0,0,1,14.265-.44.916.916,0,0,1,13.24-1.47V-3.235a3.921,3.921,0,0,1,.04-.685h-.745a4.108,4.108,0,0,1,.04.685V-1.47A1.611,1.611,0,0,0,12.95-.32a1.723,1.723,0,0,0,1.29.47,1.506,1.506,0,0,0,1.7-1.615V-3.24a4.041,4.041,0,0,1,.04-.68ZM28.055.06c-.07-.135-.195-.405-.235-.5-.5-1.17-.59-1.31-.905-1.41a1.057,1.057,0,0,0,.555-.29,1.028,1.028,0,0,0,.255-.745c0-.66-.435-1.04-1.195-1.04h-1.2c-.275,0-.43-.005-.64-.015a4.449,4.449,0,0,1,.04.65v2.7a3.913,3.913,0,0,1-.04.65h.745A3.9,3.9,0,0,1,25.4-.6v-1.02h.745c.385,0,.56.185.83.875a4.048,4.048,0,0,1,.26.8ZM25.4-2.185V-3.35H26.42c.41,0,.615.185.615.545a.593.593,0,0,1-.16.44.674.674,0,0,1-.475.18ZM48.625.06a4.072,4.072,0,0,1,.22-.665l.75-1.76a6.1,6.1,0,0,0,.23-.73c-.005.075-.02.33-.04.765V-.67a4.649,4.649,0,0,1-.04.73h.7a4.334,4.334,0,0,1-.04-.73V-3.18a5.178,5.178,0,0,1,.04-.74h-.92a2.771,2.771,0,0,1-.18.6l-1.01,2.48L47.32-3.325a3.46,3.46,0,0,1-.185-.6H46.22a4.96,4.96,0,0,1,.04.74V-.67a4.69,4.69,0,0,1-.04.73h.7a4.569,4.569,0,0,1-.04-.73V-2.31c0-.11-.02-.52-.04-.785a5.564,5.564,0,0,0,.255.765l.72,1.715a3.4,3.4,0,0,1,.22.675Zm10.53-3.98a3.736,3.736,0,0,1,.04.645v2.69a3.773,3.773,0,0,1-.04.645h.76a3.772,3.772,0,0,1-.04-.645v-2.69a3.735,3.735,0,0,1,.04-.645ZM68.49-1.105a1.709,1.709,0,0,0,.1.415,1.177,1.177,0,0,0,.44.57,2.01,2.01,0,0,0,1.05.26A1.657,1.657,0,0,0,71.27-.24a1.163,1.163,0,0,0,.315-.85.987.987,0,0,0-.415-.86,2.2,2.2,0,0,0-.815-.305,4.257,4.257,0,0,1-.7-.18.475.475,0,0,1-.34-.455c0-.325.295-.545.73-.545a.791.791,0,0,1,.625.24.646.646,0,0,1,.15.355l.715-.085a1.348,1.348,0,0,0-.245-.58A1.474,1.474,0,0,0,70.04-4.01c-.86,0-1.42.45-1.42,1.145a.984.984,0,0,0,.385.81,1.767,1.767,0,0,0,.755.3,3.153,3.153,0,0,1,.87.245.508.508,0,0,1,.25.46c0,.375-.3.6-.8.6a.888.888,0,0,1-.73-.3.717.717,0,0,1-.14-.44Zm11.575,0a1.709,1.709,0,0,0,.1.415,1.177,1.177,0,0,0,.44.57,2.01,2.01,0,0,0,1.05.26,1.657,1.657,0,0,0,1.195-.38,1.163,1.163,0,0,0,.315-.85.987.987,0,0,0-.415-.86,2.2,2.2,0,0,0-.815-.305,4.257,4.257,0,0,1-.7-.18.475.475,0,0,1-.34-.455c0-.325.295-.545.73-.545a.791.791,0,0,1,.625.24.646.646,0,0,1,.15.355l.715-.085a1.348,1.348,0,0,0-.245-.58,1.474,1.474,0,0,0-1.245-.505c-.86,0-1.42.45-1.42,1.145a.984.984,0,0,0,.385.81,1.767,1.767,0,0,0,.755.3,3.153,3.153,0,0,1,.87.245.508.508,0,0,1,.25.46c0,.375-.3.6-.8.6a.888.888,0,0,1-.73-.3.717.717,0,0,1-.14-.44ZM91.77-3.92a3.736,3.736,0,0,1,.04.645v2.69a3.773,3.773,0,0,1-.04.645h.76a3.773,3.773,0,0,1-.04-.645v-2.69a3.736,3.736,0,0,1,.04-.645ZM102.965-4a1.733,1.733,0,0,0-1.29.5,2.141,2.141,0,0,0-.57,1.56A1.856,1.856,0,0,0,102.97.145a1.862,1.862,0,0,0,1.87-2.085,2.156,2.156,0,0,0-.56-1.56A1.752,1.752,0,0,0,102.965-4Zm.015,3.55a1.08,1.08,0,0,1-.775-.305,1.652,1.652,0,0,1-.4-1.18c0-.9.455-1.475,1.175-1.475a1.076,1.076,0,0,1,.77.305,1.615,1.615,0,0,1,.4,1.165C104.14-1.02,103.695-.45,102.98-.45Zm13.84.51a3.773,3.773,0,0,1-.04-.645V-3.23a4.372,4.372,0,0,1,.04-.69h-.73a4.371,4.371,0,0,1,.04.69v1.68c0,.21.015.51.035.7-.11-.2-.27-.46-.39-.64l-1.265-1.9a2.742,2.742,0,0,1-.305-.53h-.78a4.165,4.165,0,0,1,.04.645V-.7a5.411,5.411,0,0,1-.04.755h.73a5.534,5.534,0,0,1-.04-.75V-2.33c0-.115-.01-.34-.015-.435-.015-.185-.015-.185-.02-.255.12.235.245.45.34.6l1.29,1.945a4.981,4.981,0,0,1,.32.535Z" transform="translate(833.775 -508)"/>
      <path id="路径_40070" data-name="路径 40070" d="M15,.468c4.316,0,6.734-2.054,6.734-5.72A5.133,5.133,0,0,0,20.124-9.23a4.763,4.763,0,0,0-2.626-1.2,4.4,4.4,0,0,0,2.054-1.092,4.63,4.63,0,0,0,1.456-3.64c0-3.25-2.262-5.07-6.292-5.07H8.58c-1.768,0-2.184,0-3.276-.052a24.785,24.785,0,0,1,.208,3.2V-2.964A18.556,18.556,0,0,1,5.278.546C6.344.494,7.1.468,8.606.468ZM8.944-11.778v-5.538h5.382a3.688,3.688,0,0,1,2.5.806,2.625,2.625,0,0,1,.676,1.9c0,1.794-1.17,2.834-3.146,2.834Zm0,2.886h5.538a4.248,4.248,0,0,1,2.834.884,2.876,2.876,0,0,1,.832,2.288c0,2.08-1.3,3.25-3.614,3.25H8.944Zm29.64,2.678c-.052-.6-.052-.676-.052-.728a10.688,10.688,0,0,0-.754-3.952A6.605,6.605,0,0,0,31.3-15c-4.446,0-7.332,3.146-7.332,7.956,0,4.862,2.912,7.93,7.514,7.93a7.384,7.384,0,0,0,5.356-2A7.307,7.307,0,0,0,38.428-3.51L35.36-4.5a3.779,3.779,0,0,1-.754,1.352,4.111,4.111,0,0,1-3.12,1.3A4.086,4.086,0,0,1,28.236-3.3a4.833,4.833,0,0,1-.962-2.912ZM27.352-8.788a3.9,3.9,0,0,1,3.9-3.536,3.708,3.708,0,0,1,2.808,1.04,4.081,4.081,0,0,1,1.144,2.5ZM45.942,3.094A23.81,23.81,0,0,1,45.76.312v-1.82a13.159,13.159,0,0,0-.052-1.378,3.476,3.476,0,0,0,.988,1.04,6.891,6.891,0,0,0,4.056,1.2c4.5,0,7.176-2.678,7.176-7.176,0-4.342-2.574-6.916-6.916-6.916a6.267,6.267,0,0,0-5.3,2.262c.026-.39.026-.52.026-.78V-14.4H42.3a23.348,23.348,0,0,1,.182,3.2V-.078A22.453,22.453,0,0,1,42.3,3.094ZM45.864-7.7A4.47,4.47,0,0,1,47.242-11a4.9,4.9,0,0,1,3.042-1.17c2.652,0,4.186,1.612,4.186,4.42,0,2.782-1.534,4.5-4.056,4.5A4.374,4.374,0,0,1,45.864-7.7ZM64.168.39a24.354,24.354,0,0,1-.182-3.328V-5.876H71.37v2.938A27.344,27.344,0,0,1,71.188.39h3.588a24.866,24.866,0,0,1-.182-3.328V-11.05a23.285,23.285,0,0,1,.182-3.354H71.188a26.631,26.631,0,0,1,.182,3.354v2.314H63.986v-2.34a25.659,25.659,0,0,1,.182-3.328H60.58a27.052,27.052,0,0,1,.182,3.328v8.138A20.607,20.607,0,0,1,60.58.39ZM79.95,2.7a13.355,13.355,0,0,0,3.146.39,4.517,4.517,0,0,0,4.5-2.626l5.512-11.96c.754-1.56,1.2-2.522,1.4-2.912l-3.848.026a13.237,13.237,0,0,1-.962,2.756L86.866-4.758l-3.172-6.864a12.7,12.7,0,0,1-.962-2.782H78.806a32,32,0,0,1,1.482,2.912L85.1-1.716l-.312.728A2.056,2.056,0,0,1,82.68.208a4.634,4.634,0,0,1-2.054-.494Zm31.538-8.918c-.052-.6-.052-.676-.052-.728a10.688,10.688,0,0,0-.754-3.952A6.605,6.605,0,0,0,104.208-15c-4.446,0-7.332,3.146-7.332,7.956,0,4.862,2.912,7.93,7.514,7.93a7.384,7.384,0,0,0,5.356-2,7.307,7.307,0,0,0,1.586-2.392L108.264-4.5a3.779,3.779,0,0,1-.754,1.352,4.111,4.111,0,0,1-3.12,1.3A4.086,4.086,0,0,1,101.14-3.3a4.833,4.833,0,0,1-.962-2.912ZM100.256-8.788a3.9,3.9,0,0,1,3.9-3.536,3.708,3.708,0,0,1,2.808,1.04,4.081,4.081,0,0,1,1.144,2.5ZM131.17.39a24.258,24.258,0,0,1-.182-3.354v-8.112a27.937,27.937,0,0,1,.182-3.328h-4.264a1.479,1.479,0,0,1-.078.416c-.078.338-.7,2.106-.754,2.236l-3.718,7.826-3.744-7.826c-.078-.208-.65-1.846-.754-2.158-.026-.156-.052-.26-.078-.494h-4.264a29,29,0,0,1,.182,3.354v8.086A23.285,23.285,0,0,1,113.516.39h3.38a24.763,24.763,0,0,1-.182-3.354v-5.07c0-.65-.026-1.222-.1-2.184a13.46,13.46,0,0,0,.7,1.9L120.12-2.6A18.809,18.809,0,0,1,121.212.39h2.262a16.347,16.347,0,0,1,1.066-2.964l2.834-5.746a14.264,14.264,0,0,0,.7-1.9,21.825,21.825,0,0,0-.1,2.184v5.07A27.2,27.2,0,0,1,127.79.39ZM147.576-10.3a8.654,8.654,0,0,0-.91-1.9A6.725,6.725,0,0,0,140.842-15a7.12,7.12,0,0,0-5.226,1.976,8.407,8.407,0,0,0-2.21,6.006c0,4.81,2.964,7.9,7.54,7.9a6.807,6.807,0,0,0,5.72-2.6,7.786,7.786,0,0,0,1.092-2.236l-3.224-.65a3.634,3.634,0,0,1-.52,1.3,3.481,3.481,0,0,1-2.99,1.456c-2.626,0-4.238-2-4.238-5.252,0-3.224,1.586-5.226,4.134-5.226a3.271,3.271,0,0,1,2.678,1.2,4.954,4.954,0,0,1,.806,1.586ZM161.3-5.564V-2.99a26.779,26.779,0,0,1-.182,3.38h3.588a25.808,25.808,0,0,1-.182-3.354v-8.19a25.928,25.928,0,0,1,.182-3.328c-1.066.052-1.872.078-3.276.078h-4.342c-3.12,0-4.94,1.482-4.94,4.03a3.474,3.474,0,0,0,1.378,3.016,3.622,3.622,0,0,0,1.82.7,2.3,2.3,0,0,0-1.092.65,11.267,11.267,0,0,0-1.638,2.73A25.161,25.161,0,0,1,150.748.39h4.03A18.293,18.293,0,0,1,156.1-3.094c.936-1.976,1.43-2.47,2.6-2.47Zm0-2.678h-3.64c-1.482,0-2.21-.572-2.21-1.742s.7-1.742,2.132-1.742H161.3ZM179.27.39c3.458,0,5.3-1.43,5.3-4.108a3.511,3.511,0,0,0-1.2-2.834,3.417,3.417,0,0,0-2.132-.858A3.19,3.19,0,0,0,184-10.79c0-2.418-1.664-3.614-4.966-3.614h-4.29c-1.56,0-2.21-.026-3.25-.078a25.39,25.39,0,0,1,.182,3.328V-2.86A25.39,25.39,0,0,1,171.5.468c1.144-.052,1.82-.078,3.276-.078ZM174.876-8.5v-3.406h3.8c1.482,0,2.184.52,2.184,1.612,0,1.17-.754,1.794-2.158,1.794Zm0,2.314h3.952c1.716,0,2.522.65,2.522,2.054,0,1.352-.806,2-2.5,2h-3.978ZM204.022-10.3a8.654,8.654,0,0,0-.91-1.9A6.725,6.725,0,0,0,197.288-15a7.12,7.12,0,0,0-5.226,1.976,8.407,8.407,0,0,0-2.21,6.006c0,4.81,2.964,7.9,7.54,7.9a6.807,6.807,0,0,0,5.72-2.6A7.785,7.785,0,0,0,204.2-3.952L200.98-4.6a3.634,3.634,0,0,1-.52,1.3,3.481,3.481,0,0,1-2.99,1.456c-2.626,0-4.238-2-4.238-5.252,0-3.224,1.586-5.226,4.134-5.226a3.271,3.271,0,0,1,2.678,1.2,4.955,4.955,0,0,1,.806,1.586ZM215.306.884c4.628,0,7.67-3.172,7.67-7.982s-2.99-7.878-7.7-7.878c-4.732,0-7.748,3.094-7.748,7.93C207.532-2.184,210.548.884,215.306.884Zm-.026-13.156c2.756,0,4.342,1.924,4.342,5.278,0,3.172-1.664,5.122-4.368,5.122s-4.368-1.976-4.368-5.174C210.886-10.3,212.55-12.272,215.28-12.272ZM233.532.884c4.628,0,7.67-3.172,7.67-7.982s-2.99-7.878-7.7-7.878c-4.732,0-7.748,3.094-7.748,7.93C225.758-2.184,228.774.884,233.532.884Zm-.026-13.156c2.756,0,4.342,1.924,4.342,5.278,0,3.172-1.664,5.122-4.368,5.122s-4.368-1.976-4.368-5.174C229.112-10.3,230.776-12.272,233.506-12.272Zm21.164-4.6a4.523,4.523,0,0,0,4.056-2l-2.314-1.82a2.715,2.715,0,0,1-2.522,1.248h-2.522a6.2,6.2,0,0,0-5.616,2.756c-1.066,1.612-1.69,4.524-1.69,7.8a13.63,13.63,0,0,0,1.222,6.058c1.222,2.314,3.484,3.562,6.5,3.562,4.628,0,7.644-3.12,7.644-7.93,0-4.5-2.652-7.41-6.786-7.41-2.5,0-3.848.6-5.1,2.21a6.486,6.486,0,0,1,.988-2.964,3.666,3.666,0,0,1,3.354-1.508Zm-2.626,4.862a3.835,3.835,0,0,1,2.47.832,5.037,5.037,0,0,1,1.56,4.134,5.758,5.758,0,0,1-.936,3.458,4.059,4.059,0,0,1-3.354,1.534c-2.7,0-4.316-1.846-4.316-4.914S249.262-12.012,252.044-12.012Zm26.884.91a20.96,20.96,0,0,1,.208-3.3h-3.484a27.8,27.8,0,0,1,.182,3.3v8.658h-4.55V-11.1a24.974,24.974,0,0,1,.182-3.3h-3.38a25.508,25.508,0,0,1,.182,3.3v8.658h-4.576V-11.1a22.039,22.039,0,0,1,.182-3.3h-3.458a26.91,26.91,0,0,1,.182,3.3v8.216a26.079,26.079,0,0,1-.182,3.354c1.118-.052,1.794-.078,3.25-.078h13.312V1.2A8.487,8.487,0,0,1,276.8,3.12h3.666a9.721,9.721,0,0,1-.182-1.95V-.39a16.852,16.852,0,0,1,.182-2.132c-.806.052-.806.052-1.534.078Zm16.588,4.888c-.052-.6-.052-.676-.052-.728a10.689,10.689,0,0,0-.754-3.952A6.605,6.605,0,0,0,288.236-15c-4.446,0-7.332,3.146-7.332,7.956,0,4.862,2.912,7.93,7.514,7.93a7.384,7.384,0,0,0,5.356-2A7.307,7.307,0,0,0,295.36-3.51L292.292-4.5a3.779,3.779,0,0,1-.754,1.352,4.111,4.111,0,0,1-3.12,1.3,4.086,4.086,0,0,1-3.25-1.456,4.832,4.832,0,0,1-.962-2.912ZM284.284-8.788a3.9,3.9,0,0,1,3.9-3.536,3.708,3.708,0,0,1,2.808,1.04,4.081,4.081,0,0,1,1.144,2.5ZM313.378-10.3a8.654,8.654,0,0,0-.91-1.9A6.725,6.725,0,0,0,306.644-15a7.12,7.12,0,0,0-5.226,1.976,8.407,8.407,0,0,0-2.21,6.006c0,4.81,2.964,7.9,7.54,7.9a6.807,6.807,0,0,0,5.72-2.6,7.785,7.785,0,0,0,1.092-2.236l-3.224-.65a3.634,3.634,0,0,1-.52,1.3,3.481,3.481,0,0,1-2.99,1.456c-2.626,0-4.238-2-4.238-5.252,0-3.224,1.586-5.226,4.134-5.226a3.271,3.271,0,0,1,2.678,1.2,4.954,4.954,0,0,1,.806,1.586ZM326.456.39a26.779,26.779,0,0,1-.182-3.38v-8.58H328.3a28.8,28.8,0,0,1,3.328.156v-3.172a23.853,23.853,0,0,1-3.328.182h-7.384a24.607,24.607,0,0,1-3.328-.182v3.172a30.775,30.775,0,0,1,3.38-.156h1.976v8.58a23.925,23.925,0,0,1-.182,3.38Zm17.732,0c3.458,0,5.3-1.43,5.3-4.108a3.511,3.511,0,0,0-1.2-2.834,3.417,3.417,0,0,0-2.132-.858,3.19,3.19,0,0,0,2.756-3.38c0-2.418-1.664-3.614-4.966-3.614h-4.29c-1.56,0-2.21-.026-3.25-.078a25.389,25.389,0,0,1,.182,3.328V-2.86a25.389,25.389,0,0,1-.182,3.328c1.144-.052,1.82-.078,3.276-.078ZM339.794-8.5v-3.406h3.8c1.482,0,2.184.52,2.184,1.612,0,1.17-.754,1.794-2.158,1.794Zm0,2.314h3.952c1.716,0,2.522.65,2.522,2.054,0,1.352-.806,2-2.5,2h-3.978ZM361.114.884c4.628,0,7.67-3.172,7.67-7.982s-2.99-7.878-7.7-7.878c-4.732,0-7.748,3.094-7.748,7.93C353.34-2.184,356.356.884,361.114.884Zm-.026-13.156c2.756,0,4.342,1.924,4.342,5.278,0,3.172-1.664,5.122-4.368,5.122s-4.368-1.976-4.368-5.174C356.694-10.3,358.358-12.272,361.088-12.272ZM5.954,33.6a28.864,28.864,0,0,1,.182,3.328v8.112a22.543,22.543,0,0,1-.208,3.354H9.62A14.354,14.354,0,0,1,11.076,46l4.992-6.6a4.545,4.545,0,0,0,.468-.754c.026-.052.078-.13.156-.26-.026.546-.026.546-.052,1.378l-.026,5.3a23.854,23.854,0,0,1-.182,3.328h3.614a26.353,26.353,0,0,1-.182-3.354V36.924a26.483,26.483,0,0,1,.182-3.328h-3.64a10.279,10.279,0,0,1-1.456,2.418l-4.914,6.552c-.156.208-.39.572-.572.858a1.668,1.668,0,0,1-.156.26c.026-.728.052-1.222.052-1.482V36.95A26.08,26.08,0,0,1,9.542,33.6Zm17.68,15.522a8.758,8.758,0,0,1-.182,2h3.666a11.713,11.713,0,0,1-.156-1.976v-.78h9.854V49.2a7.366,7.366,0,0,1-.182,1.924h3.692a9.348,9.348,0,0,1-.182-2.08V47.558a13.745,13.745,0,0,1,.182-2.08c-.858.052-.988.052-1.534.052V36.9a25.176,25.176,0,0,1,.182-3.38c-1.04.078-1.43.078-3.276.078H30.056c-1.82,0-2.236,0-3.25-.078a27.932,27.932,0,0,1,.156,3.094,22.937,22.937,0,0,1-.416,4.706,13,13,0,0,1-1.56,4.212c-.65-.026-.65-.026-1.534-.052a13.043,13.043,0,0,1,.182,2.106Zm4.732-3.562a14.789,14.789,0,0,0,1.4-3.952,25.466,25.466,0,0,0,.416-5.2h5.408v9.152Zm29.328-3.77c-.052-.6-.052-.676-.052-.728a10.688,10.688,0,0,0-.754-3.952A6.605,6.605,0,0,0,50.414,33c-4.446,0-7.332,3.146-7.332,7.956,0,4.862,2.912,7.93,7.514,7.93a7.384,7.384,0,0,0,5.356-2,7.307,7.307,0,0,0,1.586-2.392L54.47,43.5a3.779,3.779,0,0,1-.754,1.352,4.374,4.374,0,0,1-6.37-.156,4.833,4.833,0,0,1-.962-2.912ZM46.462,39.212a3.9,3.9,0,0,1,3.9-3.536,3.708,3.708,0,0,1,2.808,1.04,4.081,4.081,0,0,1,1.144,2.5ZM70.408,48.39a26.781,26.781,0,0,1-.182-3.38V36.43h2.028a28.8,28.8,0,0,1,3.328.156V33.414a23.854,23.854,0,0,1-3.328.182H64.87a24.607,24.607,0,0,1-3.328-.182v3.172a30.775,30.775,0,0,1,3.38-.156H66.9v8.58a23.926,23.926,0,0,1-.182,3.38Zm16.432.494c4.628,0,7.67-3.172,7.67-7.982s-2.99-7.878-7.7-7.878c-4.732,0-7.748,3.094-7.748,7.93C79.066,45.816,82.082,48.884,86.84,48.884Zm-.026-13.156c2.756,0,4.342,1.924,4.342,5.278,0,3.172-1.664,5.122-4.368,5.122s-4.368-1.976-4.368-5.174C82.42,37.7,84.084,35.728,86.814,35.728ZM101.5,48.39a24.354,24.354,0,0,1-.182-3.328V42.124h7.384v2.938a27.344,27.344,0,0,1-.182,3.328h3.588a24.866,24.866,0,0,1-.182-3.328V36.95a23.285,23.285,0,0,1,.182-3.354h-3.588a26.631,26.631,0,0,1,.182,3.354v2.314h-7.384v-2.34A25.659,25.659,0,0,1,101.5,33.6H97.916a27.053,27.053,0,0,1,.182,3.328v8.138a20.607,20.607,0,0,1-.182,3.328ZM116.194,33.6a28.865,28.865,0,0,1,.182,3.328v8.112a22.543,22.543,0,0,1-.208,3.354h3.692A14.354,14.354,0,0,1,121.316,46l4.992-6.6a4.545,4.545,0,0,0,.468-.754c.026-.052.078-.13.156-.26-.026.546-.026.546-.052,1.378l-.026,5.3a23.854,23.854,0,0,1-.182,3.328h3.614a26.352,26.352,0,0,1-.182-3.354V36.924a26.482,26.482,0,0,1,.182-3.328h-3.64a10.279,10.279,0,0,1-1.456,2.418l-4.914,6.552c-.156.208-.39.572-.572.858a1.668,1.668,0,0,1-.156.26c.026-.728.052-1.222.052-1.482V36.95a26.08,26.08,0,0,1,.182-3.354Zm21.762,17.5a23.809,23.809,0,0,1-.182-2.782v-1.82a13.159,13.159,0,0,0-.052-1.378,3.476,3.476,0,0,0,.988,1.04,6.891,6.891,0,0,0,4.056,1.2c4.5,0,7.176-2.678,7.176-7.176,0-4.342-2.574-6.916-6.916-6.916a6.267,6.267,0,0,0-5.3,2.262c.026-.39.026-.52.026-.78V33.6h-3.432a23.349,23.349,0,0,1,.182,3.2V47.922a22.454,22.454,0,0,1-.182,3.172Zm-.078-10.79a4.47,4.47,0,0,1,1.378-3.3,4.9,4.9,0,0,1,3.042-1.17c2.652,0,4.186,1.612,4.186,4.42,0,2.782-1.534,4.5-4.056,4.5A4.374,4.374,0,0,1,137.878,40.3Zm15.86,10.4a13.354,13.354,0,0,0,3.146.39,4.517,4.517,0,0,0,4.5-2.626l5.512-11.96c.754-1.56,1.2-2.522,1.4-2.912l-3.848.026a13.236,13.236,0,0,1-.962,2.756l-2.834,6.864-3.172-6.864a12.7,12.7,0,0,1-.962-2.782h-3.926a31.993,31.993,0,0,1,1.482,2.912l4.81,9.776-.312.728a2.056,2.056,0,0,1-2.106,1.2,4.634,4.634,0,0,1-2.054-.494Zm31.538-8.918c-.052-.6-.052-.676-.052-.728a10.688,10.688,0,0,0-.754-3.952A6.605,6.605,0,0,0,178,33c-4.446,0-7.332,3.146-7.332,7.956,0,4.862,2.912,7.93,7.514,7.93a7.384,7.384,0,0,0,5.356-2,7.307,7.307,0,0,0,1.586-2.392l-3.068-.988a3.779,3.779,0,0,1-.754,1.352,4.374,4.374,0,0,1-6.37-.156,4.833,4.833,0,0,1-.962-2.912Zm-11.232-2.574a3.9,3.9,0,0,1,3.9-3.536,3.708,3.708,0,0,1,2.808,1.04,4.081,4.081,0,0,1,1.144,2.5Zm30.914,9.178a24.26,24.26,0,0,1-.182-3.354V36.924a27.94,27.94,0,0,1,.182-3.328h-4.264a1.479,1.479,0,0,1-.078.416c-.078.338-.7,2.106-.754,2.236l-3.718,7.826L192.4,36.248c-.078-.208-.65-1.846-.754-2.158-.026-.156-.052-.26-.078-.494H187.3a29,29,0,0,1,.182,3.354v8.086a23.286,23.286,0,0,1-.182,3.354h3.38a24.765,24.765,0,0,1-.182-3.354v-5.07c0-.65-.026-1.222-.1-2.184a13.463,13.463,0,0,0,.7,1.9l2.808,5.72A18.81,18.81,0,0,1,195,48.39h2.262a16.348,16.348,0,0,1,1.066-2.964l2.834-5.746a14.266,14.266,0,0,0,.7-1.9,21.823,21.823,0,0,0-.1,2.184v5.07a27.2,27.2,0,0,1-.182,3.354Z" transform="translate(828.722 -459)"/>
      <path id="路径_40071" data-name="路径 40071" d="M208.208,33.6a28.863,28.863,0,0,1,.182,3.328v8.112a22.542,22.542,0,0,1-.208,3.354h3.692A14.354,14.354,0,0,1,213.33,46l4.992-6.6a4.545,4.545,0,0,0,.468-.754c.026-.052.078-.13.156-.26-.026.546-.026.546-.052,1.378l-.026,5.3a23.855,23.855,0,0,1-.182,3.328H222.3a26.352,26.352,0,0,1-.182-3.354V36.924A26.482,26.482,0,0,1,222.3,33.6h-3.64a10.279,10.279,0,0,1-1.456,2.418l-4.914,6.552c-.156.208-.39.572-.572.858a1.668,1.668,0,0,1-.156.26c.026-.728.052-1.222.052-1.482V36.95A26.079,26.079,0,0,1,211.8,33.6ZM240.474,37.7a8.654,8.654,0,0,0-.91-1.9A6.725,6.725,0,0,0,233.74,33a7.12,7.12,0,0,0-5.226,1.976,8.407,8.407,0,0,0-2.21,6.006c0,4.81,2.964,7.9,7.54,7.9a6.807,6.807,0,0,0,5.72-2.6,7.785,7.785,0,0,0,1.092-2.236l-3.224-.65a3.634,3.634,0,0,1-.52,1.3,3.481,3.481,0,0,1-2.99,1.456c-2.626,0-4.238-2-4.238-5.252,0-3.224,1.586-5.226,4.134-5.226a3.271,3.271,0,0,1,2.678,1.2,4.955,4.955,0,0,1,.806,1.586ZM253.552,48.39a26.782,26.782,0,0,1-.182-3.38V36.43H255.4a28.8,28.8,0,0,1,3.328.156V33.414a23.854,23.854,0,0,1-3.328.182h-7.384a24.608,24.608,0,0,1-3.328-.182v3.172a30.776,30.776,0,0,1,3.38-.156h1.976v8.58a23.927,23.927,0,0,1-.182,3.38Zm16.432.494c4.628,0,7.67-3.172,7.67-7.982s-2.99-7.878-7.7-7.878c-4.732,0-7.748,3.094-7.748,7.93C262.21,45.816,265.226,48.884,269.984,48.884Zm-.026-13.156c2.756,0,4.342,1.924,4.342,5.278,0,3.172-1.664,5.122-4.368,5.122s-4.368-1.976-4.368-5.174C265.564,37.7,267.228,35.728,269.958,35.728Zm11.6-2.132a28.419,28.419,0,0,1,.182,3.3v2.886c0,2.444,1.17,3.354,4.29,3.354a33.681,33.681,0,0,0,4.42-.312v2.288a29.943,29.943,0,0,1-.182,3.276h3.64a22.507,22.507,0,0,1-.182-3.224V36.872A25.361,25.361,0,0,1,293.9,33.6h-3.64a27.066,27.066,0,0,1,.182,3.276V40.3a27.212,27.212,0,0,1-2.964.156,5.422,5.422,0,0,1-1.924-.156c-.364-.156-.546-.52-.546-1.17V36.9a24.454,24.454,0,0,1,.182-3.3Zm21.32,14.794a24.358,24.358,0,0,1-.182-3.328V42.124h7.384v2.938a27.342,27.342,0,0,1-.182,3.328h3.588a24.864,24.864,0,0,1-.182-3.328V36.95a23.284,23.284,0,0,1,.182-3.354h-3.588a26.63,26.63,0,0,1,.182,3.354v2.314h-7.384v-2.34a25.663,25.663,0,0,1,.182-3.328h-3.588a27.051,27.051,0,0,1,.182,3.328v8.138a20.606,20.606,0,0,1-.182,3.328ZM317.564,33.6a28.863,28.863,0,0,1,.182,3.328v8.112a22.542,22.542,0,0,1-.208,3.354h3.692A14.356,14.356,0,0,1,322.686,46l4.992-6.6a4.545,4.545,0,0,0,.468-.754c.026-.052.078-.13.156-.26-.026.546-.026.546-.052,1.378l-.026,5.3a23.853,23.853,0,0,1-.182,3.328h3.614a26.353,26.353,0,0,1-.182-3.354V36.924a26.482,26.482,0,0,1,.182-3.328h-3.64a10.279,10.279,0,0,1-1.456,2.418l-4.914,6.552c-.156.208-.39.572-.572.858a1.67,1.67,0,0,1-.156.26c.026-.728.052-1.222.052-1.482V36.95a26.079,26.079,0,0,1,.182-3.354Zm19.006,0a26.057,26.057,0,0,1,.182,3.3v8.164a26.2,26.2,0,0,1-.182,3.328h3.64a26.2,26.2,0,0,1-.182-3.328V42.046h.65a3.657,3.657,0,0,1,1.04.156,5.691,5.691,0,0,1,2.106,2.444c1.794,3.068,1.794,3.068,2,3.744H350.4a13.306,13.306,0,0,1-1.4-1.872c-1.222-1.794-1.222-1.794-1.872-2.7a11.78,11.78,0,0,0-1.716-2.288,3.477,3.477,0,0,0-2.34-.962,3.263,3.263,0,0,0,2.054-1.378l1.768-2.574a1.178,1.178,0,0,1,.988-.572,1.551,1.551,0,0,1,.832.26l.884-2.574a4.791,4.791,0,0,0-2.21-.442,3.321,3.321,0,0,0-2.938,1.638L342.42,37.99a2.534,2.534,0,0,1-2.028,1.2h-.364V36.9a23.946,23.946,0,0,1,.182-3.3Z" transform="translate(833.722 -459)" fill="#0080f4"/>
    </g>
  </g>
</svg>
