<svg xmlns="http://www.w3.org/2000/svg" xmlns:xlink="http://www.w3.org/1999/xlink" width="691" height="334" viewBox="0 0 691 334">
  <defs>
    <clipPath id="clip-path">
      <rect id="矩形_2723" data-name="矩形 2723" width="691" height="334" transform="translate(-0.227)" fill="#fff"/>
    </clipPath>
  </defs>
  <g id="CN" transform="translate(111 -140)">
    <rect id="矩形_2213" data-name="矩形 2213" width="690" height="334" transform="translate(-110 140)" fill="#fff"/>
    <path id="路径_39922" data-name="路径 39922" d="M18.84-5.277a.193.193,0,0,1-.219.219H17.377a.193.193,0,0,1-.219-.219v-.957H10.609v.957a.193.193,0,0,1-.219.219H9.146a.193.193,0,0,1-.219-.219l.055-4.4v-2.83l-.055-2.953a.193.193,0,0,1,.219-.219l3.008.055h3.459l3.008-.055a.193.193,0,0,1,.219.219l-.055,2.721V-9.68ZM17.158-7.725v-6.412H10.609v6.412Zm7.9,9.57a.193.193,0,0,1-.219.219H23.488a.193.193,0,0,1-.219-.219V.246H4.7v1.6a.193.193,0,0,1-.219.219H3.131a.193.193,0,0,1-.219-.219L2.967-8.572v-5.592l-.055-7.451a.193.193,0,0,1,.219-.219l3.9.055H20.945l3.9-.055a.193.193,0,0,1,.219.219l-.055,6.645v6.4ZM23.27-1.3V-20.207H4.7V-1.3ZM52.158-13.727a44.405,44.405,0,0,1-.369,6.4,13.593,13.593,0,0,1-1.552,4.573A15.878,15.878,0,0,1,46.73,1.422L45.527.4a12.147,12.147,0,0,0,4.149-5.544,29.481,29.481,0,0,0,1.032-8.935v-8.969h1.449ZM67.334,1.518h-1.5V-.451H53.539V-1.846H65.83v-8.969H54.824v-1.422H65.83v-8.6H53.758v-1.477H67.334ZM48.193-9.639l-1.326.684a67.555,67.555,0,0,0-3.295-9.187l1.148-.807A54.086,54.086,0,0,1,48.193-9.639ZM110.564.67a.193.193,0,0,1-.219.219L106.5.834H98.588L94.746.889Q94.5.889,94.5.67V-.574q0-.219.246-.219l3.842.055h2.83V-12.3H99.654l-3.6.055a.193.193,0,0,1-.219-.219V-13.7q0-.232.219-.232l3.6.055h1.764v-5.455a24.152,24.152,0,0,0-.205-3.842q1.08.055,1.887.178.342.041.342.219a2.318,2.318,0,0,1-.123.479,12.8,12.8,0,0,0-.191,2.912v5.51h2.379l3.582-.055q.219,0,.219.232v1.23a.193.193,0,0,1-.219.219l-3.582-.055h-2.379V-.738H106.5l3.842-.055a.193.193,0,0,1,.219.219ZM96.332-8.449a3.7,3.7,0,0,0-.793,1.025q-.15.314-.3.314a.674.674,0,0,1-.369-.191,19.327,19.327,0,0,1-3.158-3.117v8.736l.055,3.5a.205.205,0,0,1-.232.232H90.221Q90,2.051,90,1.818l.055-3.5V-9.488a30.112,30.112,0,0,1-3.678,3.281,1.092,1.092,0,0,1-.41.219q-.123,0-.287-.369a3.144,3.144,0,0,0-.67-1.039,21.8,21.8,0,0,0,5.209-4.7,20.646,20.646,0,0,0,2.967-4.84H89.127l-2.857.055a.193.193,0,0,1-.219-.219v-1.148q0-.232.219-.232l2.857.055h.93v-1.613a16.9,16.9,0,0,0-.205-3.172q.9.041,1.832.164.369.055.369.232a1.707,1.707,0,0,1-.178.533,7.945,7.945,0,0,0-.164,2.188v1.668h1.9a.885.885,0,0,0,.506-.109.868.868,0,0,1,.246-.055q.232,0,.711.479.479.506.479.67a.515.515,0,0,1-.232.369,1.881,1.881,0,0,0-.561.67,27.981,27.981,0,0,1-2.693,4.512A19.522,19.522,0,0,0,96.332-8.449Zm43.682-7.314a.193.193,0,0,1-.219.219l-1.176-.027v1.463l.055,2.857q0,.246-.232.246l-3.145-.055h-2.379a22.068,22.068,0,0,1-.943,2.83h4.02l2.652-.055q.232,0,.232.219l-.068,2.57V-3.76l.068,4.4q0,.219-.232.219H137.5q-.246,0-.246-.219V-.342h-4.744V1.34q0,.219-.232.219h-1.148q-.246,0-.246-.219l.055-4.621V-6.166a24.378,24.378,0,0,1-2.42,3.322q-.232.273-.328.273t-.314-.342a2.736,2.736,0,0,0-.807-.875,18.809,18.809,0,0,0,2.844-3.76,16.919,16.919,0,0,0,1.408-3.514l-2.352.055q-.219,0-.219-.246v-1.066a.193.193,0,0,1,.219-.219l2.584.055h.137a24.641,24.641,0,0,0,.451-3.117h-1.121l-3.473.055q-.232,0-.232-.219v-1.094q0-.219.232-.219l3.473.055h1.23q.068-.957.109-2.98H132l-2.926.055q-.246,0-.246-.219v-1.08q0-.232.246-.232l2.926.055H135.3l3.145-.055a.205.205,0,0,1,.232.232l-.055,2.9v1.326q.424-.014.861-.041.273-.014.314-.014a.193.193,0,0,1,.219.219Zm-2.762,14V-6.809h-4.744v5.045Zm-.191-10.719V-15.6h-3.35a31.393,31.393,0,0,1-.451,3.117Zm0-4.539V-20h-3.076q-.027,1.189-.137,2.98ZM152.646-5.1q0,.232-.246.232l-3.527-.055H147v2.461l.055,4.2q0,.191-.232.191h-1.285q-.219,0-.219-.191l.055-4.2V-4.922h-1.627l-3.555.055a.205.205,0,0,1-.232-.232V-6.275q0-.219.232-.219l3.555.055h1.627v-4.43H144.5l-3.186.055q-.232,0-.232-.246v-1.121q0-.219.232-.219l3.186.055h.875v-3.76h-1.039l-3.445.055a.193.193,0,0,1-.219-.219v-1.148a.193.193,0,0,1,.219-.219l3.445.055h2.352a41.148,41.148,0,0,0,1.928-4.17,5.3,5.3,0,0,0,.369-1.436,9.015,9.015,0,0,1,1.6.615q.314.178.314.369,0,.137-.287.424a3.043,3.043,0,0,0-.506.752q-.738,1.6-1.818,3.445h.137l3.445-.055a.193.193,0,0,1,.219.219v1.148a.193.193,0,0,1-.219.219l-3.445-.055H147v3.76h.861l3.227-.055a.193.193,0,0,1,.219.219v1.121q0,.246-.219.246l-3.227-.055H147v4.43h1.846l3.555-.055q.246,0,.246.219Zm-7.834-14.246a.322.322,0,0,1,.041.137q0,.109-.287.26l-.793.355a1.4,1.4,0,0,1-.328.123q-.082,0-.15-.205a17.428,17.428,0,0,0-1.791-3.473.43.43,0,0,1-.055-.15q0-.082.26-.219l.807-.355a.739.739,0,0,1,.219-.055.262.262,0,0,1,.205.137A17.037,17.037,0,0,1,144.813-19.346ZM171.186-4.279a1.924,1.924,0,0,1,1.627.807,2.925,2.925,0,0,1,.533,1.8,5.421,5.421,0,0,1-2.912,4.813.4.4,0,0,1-.205.082.22.22,0,0,1-.164-.109l-.424-.451a.42.42,0,0,1-.055-.164q0-.082.191-.178a4.722,4.722,0,0,0,1.333-1.162,2.091,2.091,0,0,0,.5-1.244q0-.779-.615-.779a1.522,1.522,0,0,1-1.162-.52,1.625,1.625,0,0,1-.437-1.135,1.664,1.664,0,0,1,.6-1.34A1.761,1.761,0,0,1,171.186-4.279ZM14.561,40.279,14.4,41.934Q13.822,48.2,12.715,50a3.267,3.267,0,0,1-3.076,1.49q-1.258,0-2.27-.082-.424-.041-.506-.15a1.143,1.143,0,0,1-.137-.492,4.97,4.97,0,0,0-.4-1.3,24.083,24.083,0,0,0,2.967.287,2.051,2.051,0,0,0,1.791-.588q1.135-1.818,1.572-7.629H4.785L4.252,43.41a.3.3,0,0,1-.3.26,4.743,4.743,0,0,1-.643-.082q-.807-.137-.807-.3a.651.651,0,0,1,.041-.178,37.894,37.894,0,0,0,1.572-6.576,14.592,14.592,0,0,0,.178-2,.242.242,0,0,1,.273-.273l2.6.055h4.963v-4.58H6.549l-3.076.055a.193.193,0,0,1-.219-.219V28.385a.193.193,0,0,1,.219-.219l3.076.055h4.115l3.035-.055q.191,0,.191.219l-.055,2.42v2.42l.055,2.379q0,.219-.191.219l-3.035-.055H5.934q-.342,2.352-.807,4.32h6.125l3.063-.055A.218.218,0,0,1,14.561,40.279Zm8.914-13.1a1.816,1.816,0,0,1-.137.506,15.055,15.055,0,0,0-.26,3.664V47.033l.055,4.7a.193.193,0,0,1-.219.219H21.479a.193.193,0,0,1-.219-.219l.055-4.676v-15.6a24.466,24.466,0,0,0-.273-4.676q1.354.055,2.092.164Q23.475,27,23.475,27.182Zm42.52,7.643q0,.191-.219.191l-3.541-.027H56.889l-3.527.055q-.219,0-.219-.232l.055-2.174V30.285l-.055-2.16a.193.193,0,0,1,.219-.219l3.527.055h5.346l3.541-.055a.193.193,0,0,1,.219.219l-.055,2.16v2.324Zm-1.6-1.039V32.076H54.7v1.709Zm0-2.912V29.219H54.7v1.654Zm4.457,14.164a2.633,2.633,0,0,0-.643.861q-.205.4-.342.4l-.451-.164A14.7,14.7,0,0,1,61.934,42.1H57.148a17.343,17.343,0,0,1-4.826,4.033.8.8,0,0,1-.355.164q-.164,0-.369-.369a2.865,2.865,0,0,0-.67-.752A13.344,13.344,0,0,0,55.467,42.1H54.7l-3.91.055q-.232,0-.232-.219V41q0-.219.232-.219l3.91.055h1.121V38.6h-.273l-3.842.055q-.191,0-.191-.219v-.9q0-.219.191-.219l3.842.055h.273a9.68,9.68,0,0,0-.164-1.928,12.26,12.26,0,0,1,1.627.178q.273.041.273.191a1.356,1.356,0,0,1-.137.438,4.063,4.063,0,0,0-.109,1.121h4.17a9.68,9.68,0,0,0-.164-1.928,12.628,12.628,0,0,1,1.627.178q.273.041.273.191a1.9,1.9,0,0,1-.137.41,4.2,4.2,0,0,0-.109,1.148h.52l3.842-.055a.193.193,0,0,1,.219.219v.9a.193.193,0,0,1-.219.219L63.492,38.6h-.52V40.84h1.449l3.924-.055a.193.193,0,0,1,.219.219v.93a.193.193,0,0,1-.219.219L64.422,42.1h-.957A13.33,13.33,0,0,0,68.852,45.037Zm-7.369-4.2V38.6h-4.17V40.84ZM52.1,33.225q0,.164-.246.314a1.788,1.788,0,0,0-.479.533,30.138,30.138,0,0,1-2.83,3.637,43.351,43.351,0,0,1-.369,4.512A15.486,15.486,0,0,0,51.762,47.4a5.078,5.078,0,0,0-.861.779q-.246.273-.342.273t-.328-.273A19.649,19.649,0,0,1,47.8,44.34a18,18,0,0,1-3.391,7.055q-.26.342-.369.342-.068,0-.328-.314a3.071,3.071,0,0,0-.9-.725,16.089,16.089,0,0,0,3.555-7.109,43.778,43.778,0,0,0,.725-9.461v-1.9a42.552,42.552,0,0,0-.191-5.182,16.13,16.13,0,0,1,1.668.137q.342.041.342.219a1.159,1.159,0,0,1-.055.273q-.068.232-.082.314a32.684,32.684,0,0,0-.137,4.115v1.941q0,1.148-.027,1.791a17.294,17.294,0,0,0,1.654-2.611,5.563,5.563,0,0,0,.41-1.121,9.307,9.307,0,0,1,1.189.766Q52.1,33.074,52.1,33.225Zm8.449,10.227a1.171,1.171,0,0,1-.137.479,5.038,5.038,0,0,0-.137,1.531v1.873l.055,2.475a2.1,2.1,0,0,1-.725,1.791,5.509,5.509,0,0,1-2.871.479A.854.854,0,0,1,56.246,52a1.214,1.214,0,0,1-.205-.451,3.327,3.327,0,0,0-.479-1.066,18.673,18.673,0,0,0,2.133.109,1.262,1.262,0,0,0,.93-.246,1.141,1.141,0,0,0,.191-.766V45.57a13.174,13.174,0,0,0-.191-2.516,11.42,11.42,0,0,1,1.586.191Q60.553,43.3,60.553,43.451Zm-2.6,4.252a2.756,2.756,0,0,1,.041.4q0,.26-.424.479a39.476,39.476,0,0,1-4.033,1.791,5.864,5.864,0,0,0-1.012.424.57.57,0,0,1-.342.191q-.137,0-.273-.314a9.7,9.7,0,0,1-.506-1.285,10.55,10.55,0,0,0,1.818-.424,30.9,30.9,0,0,0,4.73-2.064,2.9,2.9,0,0,0-.027.41A2.621,2.621,0,0,0,57.955,47.7ZM45.664,33.033a25.651,25.651,0,0,1-.984,6.193q-.041.15-.137.15a.663.663,0,0,1-.246-.1l-.711-.4q-.219-.123-.219-.246a1.07,1.07,0,0,1,.027-.15,20.027,20.027,0,0,0,.957-5.756q0-.219.123-.219a.793.793,0,0,1,.205.041l.67.191Q45.664,32.855,45.664,33.033ZM67.73,49.686a3.188,3.188,0,0,0-.643.793q-.26.424-.424.424a1.267,1.267,0,0,1-.369-.1,19.2,19.2,0,0,1-5.031-2.57q-.137-.1-.137-.15,0-.082.164-.246l.465-.479q.15-.137.219-.137a.373.373,0,0,1,.178.1A19.313,19.313,0,0,0,67.73,49.686Zm-3.227-4.5q0,.15-.246.273-.1.055-.643.479-.451.41-.93.766a.865.865,0,0,1-.4.191q-.1,0-.383-.26a2.633,2.633,0,0,0-.615-.383,11.731,11.731,0,0,0,1.285-1.066,7.709,7.709,0,0,0,.725-.93,8.352,8.352,0,0,1,1.039.643A.381.381,0,0,1,64.5,45.188Zm-7.055.67q.109.1.109.164t-.137.205l-.506.465q-.191.178-.273.178a.331.331,0,0,1-.178-.082,10.307,10.307,0,0,0-1.846-1.3q-.178-.082-.178-.15t.205-.232l.533-.424a.4.4,0,0,1,.219-.109.337.337,0,0,1,.15.055A12.552,12.552,0,0,1,57.449,45.857Z" transform="translate(-19.734 313)"/>
    <path id="路径_39924" data-name="路径 39924" d="M110.154,29.711q0,.219-.232.219l-3.883-.055h-2.434a22.994,22.994,0,0,1-1.012,3.213H105l3.336-.055a.193.193,0,0,1,.219.219l-.055,2.611v3.869l.055,2.57a.193.193,0,0,1-.219.219L105,42.467h-1.449v3.418l.055,3.445a2.278,2.278,0,0,1-.752,1.982,5.516,5.516,0,0,1-2.857.479.935.935,0,0,1-.506-.082,1.837,1.837,0,0,1-.191-.479,3.847,3.847,0,0,0-.533-1.2,18.057,18.057,0,0,0,1.873.109,1.63,1.63,0,0,0,1.053-.232,1.093,1.093,0,0,0,.232-.807V42.467h-1.367l-3.336.055A.193.193,0,0,1,97,42.3l.055-2.57V35.863L97,33.252a.193.193,0,0,1,.219-.219l3.336.055h.355a24.446,24.446,0,0,0,.957-3.213H94.979V34.51a55.173,55.173,0,0,1-.588,9.188,19.127,19.127,0,0,1-2.83,7.3q-.205.342-.3.342-.123,0-.4-.273a4.17,4.17,0,0,0-1.012-.752,16.027,16.027,0,0,0,2.967-7.137,56.715,56.715,0,0,0,.533-8.641L93.3,28.563q0-.232.219-.232l3.938.055h8.586l3.883-.055q.232,0,.232.219ZM106.928,41.1V38.352H98.6V41.1Zm0-4.115V34.455H98.6v2.529ZM90.385,43.752A50.953,50.953,0,0,1,88.115,50a6.115,6.115,0,0,0-.451,1.2q-.041.342-.273.342a.879.879,0,0,1-.369-.137,12.682,12.682,0,0,1-1.23-.93,11.216,11.216,0,0,0,1.258-2.187,43.158,43.158,0,0,0,2.133-6.152,6.543,6.543,0,0,0,.834.752q.451.287.451.465A1.967,1.967,0,0,1,90.385,43.752Zm9.242,1.176a.49.49,0,0,1-.219.369,2.559,2.559,0,0,0-.451.7,17.811,17.811,0,0,1-2.611,4.074q-.26.3-.355.3a1.155,1.155,0,0,1-.4-.219,3.782,3.782,0,0,0-1.039-.547,13.869,13.869,0,0,0,2.857-4.088,6.877,6.877,0,0,0,.451-1.449,8.3,8.3,0,0,1,1.422.533Q99.627,44.764,99.627,44.928Zm10.951,4.293a3.311,3.311,0,0,0-.984.7q-.246.246-.369.246-.082,0-.383-.314a20.969,20.969,0,0,1-3.213-4.922.234.234,0,0,1-.041-.109q0-.137.314-.246l.67-.287a.846.846,0,0,1,.26-.082q.1,0,.164.137A16.55,16.55,0,0,0,110.578,49.221ZM90.221,37.23a.236.236,0,0,1,.082.164.675.675,0,0,1-.164.314l-.533.752q-.178.246-.3.246a.258.258,0,0,1-.178-.109,18.253,18.253,0,0,0-3.473-2.816q-.123-.082-.123-.164a.756.756,0,0,1,.15-.287l.506-.7q.15-.205.246-.205a.466.466,0,0,1,.205.082A18.419,18.419,0,0,1,90.221,37.23Zm1.066-6.836a.349.349,0,0,1,.109.191.539.539,0,0,1-.137.26l-.643.82q-.164.164-.26.164a.258.258,0,0,1-.191-.123,17.389,17.389,0,0,0-3.336-2.926.219.219,0,0,1-.1-.15.583.583,0,0,1,.15-.273l.561-.7q.164-.191.246-.191a.331.331,0,0,1,.178.082A19.186,19.186,0,0,1,91.287,30.395Zm59.6,1.531a.193.193,0,0,1-.219.219l-3.869-.055h-6.467v3.35h3.951l3.951-.055q.219,0,.219.191l-.055,2.475v3.295l.055,2.475a.193.193,0,0,1-.219.219l-3.951-.055h-8.518l-3.924.055a.193.193,0,0,1-.219-.219l.055-2.475V38.051l-.055-2.475q0-.191.219-.191l3.924.055h2.83V30.148a23.062,23.062,0,0,0-.191-3.4,16.631,16.631,0,0,1,1.9.164q.342.041.342.219a1.536,1.536,0,0,1-.109.506,7.541,7.541,0,0,0-.205,2.27v.588h6.467l3.869-.055a.193.193,0,0,1,.219.219Zm-4.225,10.486v-5.4H133.41v5.4Zm4.99,8.176a.346.346,0,0,1,.055.164q0,.1-.314.26l-.779.355a1.28,1.28,0,0,1-.383.15q-.082,0-.15-.15a22.86,22.86,0,0,0-3.227-5.236.238.238,0,0,1-.068-.137q0-.1.328-.246l.615-.314a.753.753,0,0,1,.314-.109.33.33,0,0,1,.219.137A22.562,22.562,0,0,1,151.648,50.588Zm-18.881-4.115a16.706,16.706,0,0,1-3.158,5.018.337.337,0,0,1-.26.164.8.8,0,0,1-.355-.164l-.7-.4q-.355-.205-.355-.314,0-.055.1-.137a14.3,14.3,0,0,0,3.227-4.758q.068-.205.219-.205a.932.932,0,0,1,.342.1l.67.273q.314.137.314.273A.415.415,0,0,1,132.768,46.473Zm11.7,4.307a.586.586,0,0,1,.027.15q0,.137-.3.219l-.875.191a1.667,1.667,0,0,1-.355.082q-.123,0-.178-.191a20.014,20.014,0,0,0-1.627-4.84.532.532,0,0,1-.041-.15q0-.109.328-.219l.807-.246a.587.587,0,0,1,.15-.027q.15,0,.246.219A20.629,20.629,0,0,1,144.471,50.779Zm-6.18.205v.082q0,.219-.342.246l-.916.082a2.248,2.248,0,0,1-.26.027q-.191,0-.191-.219a25.722,25.722,0,0,0-.834-4.895.434.434,0,0,1-.027-.123q0-.137.355-.191l.807-.082a1.5,1.5,0,0,1,.178-.014q.191,0,.246.232A28.6,28.6,0,0,1,138.291,50.984Z" transform="translate(-19.734 313)" fill="#0080f4"/>
    <path id="路径_39923" data-name="路径 39923" d="M5.984.188a4.918,4.918,0,0,1-3.816-1.57A5.824,5.824,0,0,1,.734-5.469,6.171,6.171,0,0,1,2.2-9.781a5.1,5.1,0,0,1,3.977-1.609A4.807,4.807,0,0,1,9.91-9.828a5.845,5.845,0,0,1,1.418,4.086A6.191,6.191,0,0,1,9.875-1.406,5.008,5.008,0,0,1,5.984.188ZM6.078-10.2A3.612,3.612,0,0,0,3.211-8.93a4.93,4.93,0,0,0-1.1,3.344A4.964,4.964,0,0,0,3.184-2.254a3.5,3.5,0,0,0,2.8,1.262A3.678,3.678,0,0,0,8.891-2.2,4.917,4.917,0,0,0,9.953-5.562a5.138,5.138,0,0,0-1.031-3.43A3.536,3.536,0,0,0,6.078-10.2ZM29.727-4.531q0,4.719-4.258,4.719-4.078,0-4.078-4.539V-11.2H22.7v6.766q0,3.445,2.906,3.445,2.8,0,2.8-3.328V-11.2h1.313ZM48.555,0H46.992L45.117-3.141a6.84,6.84,0,0,0-.5-.746,2.85,2.85,0,0,0-.5-.5,1.718,1.718,0,0,0-.547-.285,2.249,2.249,0,0,0-.66-.09H41.836V0H40.523V-11.2h3.344a4.765,4.765,0,0,1,1.355.184,3.033,3.033,0,0,1,1.078.559,2.6,2.6,0,0,1,.715.934,3.1,3.1,0,0,1,.258,1.309A3.151,3.151,0,0,1,47.1-7.145a2.805,2.805,0,0,1-.5.871,3.031,3.031,0,0,1-.781.652,3.988,3.988,0,0,1-1.027.418v.031a2.363,2.363,0,0,1,.488.285,2.687,2.687,0,0,1,.395.379,5.019,5.019,0,0,1,.371.5q.184.277.41.645ZM41.836-10.016v4.063h1.781a2.7,2.7,0,0,0,.91-.148,2.107,2.107,0,0,0,.723-.426,1.931,1.931,0,0,0,.477-.68,2.275,2.275,0,0,0,.172-.9,1.756,1.756,0,0,0-.582-1.4,2.5,2.5,0,0,0-1.684-.5ZM81.9,0h-1.3V-7.516q0-.891.109-2.18h-.031a6.968,6.968,0,0,1-.336,1.086L76.508,0h-.641l-3.82-8.547A6.7,6.7,0,0,1,71.711-9.7H71.68q.062.672.063,2.2V0H70.477V-11.2h1.734l3.438,7.813a10,10,0,0,1,.516,1.344h.047q.336-.922.539-1.375L80.258-11.2H81.9ZM94.156,0H92.844V-11.2h1.313Zm10.422-.453V-2a3,3,0,0,0,.637.422,5.159,5.159,0,0,0,.781.316,6.219,6.219,0,0,0,.824.2,4.6,4.6,0,0,0,.766.07,3,3,0,0,0,1.809-.449,1.52,1.52,0,0,0,.6-1.293,1.518,1.518,0,0,0-.2-.789,2.244,2.244,0,0,0-.551-.613,5.465,5.465,0,0,0-.832-.531q-.48-.254-1.035-.535-.586-.3-1.094-.6a4.74,4.74,0,0,1-.883-.672,2.8,2.8,0,0,1-.59-.832,2.575,2.575,0,0,1-.215-1.09,2.563,2.563,0,0,1,.336-1.332,2.881,2.881,0,0,1,.883-.934,4,4,0,0,1,1.246-.547,5.706,5.706,0,0,1,1.426-.18,5.464,5.464,0,0,1,2.414.4v1.477a4.376,4.376,0,0,0-2.547-.687,4.189,4.189,0,0,0-.859.09,2.428,2.428,0,0,0-.766.293,1.7,1.7,0,0,0-.547.523,1.389,1.389,0,0,0-.211.781,1.608,1.608,0,0,0,.16.742,1.819,1.819,0,0,0,.473.57,4.708,4.708,0,0,0,.762.5q.449.242,1.035.531.6.3,1.141.625a5.214,5.214,0,0,1,.945.727,3.229,3.229,0,0,1,.645.883,2.482,2.482,0,0,1,.238,1.109,2.813,2.813,0,0,1-.324,1.4,2.661,2.661,0,0,1-.875.934,3.822,3.822,0,0,1-1.27.52,6.953,6.953,0,0,1-1.516.16,6.176,6.176,0,0,1-.656-.043q-.391-.043-.8-.125a6.5,6.5,0,0,1-.77-.2A2.4,2.4,0,0,1,104.578-.453Zm16.5,0V-2a3,3,0,0,0,.637.422,5.159,5.159,0,0,0,.781.316,6.219,6.219,0,0,0,.824.2,4.6,4.6,0,0,0,.766.07,3,3,0,0,0,1.809-.449,1.52,1.52,0,0,0,.6-1.293,1.518,1.518,0,0,0-.2-.789,2.244,2.244,0,0,0-.551-.613,5.465,5.465,0,0,0-.832-.531q-.48-.254-1.035-.535-.586-.3-1.094-.6a4.74,4.74,0,0,1-.883-.672,2.8,2.8,0,0,1-.59-.832,2.575,2.575,0,0,1-.215-1.09,2.563,2.563,0,0,1,.336-1.332,2.881,2.881,0,0,1,.883-.934,4,4,0,0,1,1.246-.547,5.706,5.706,0,0,1,1.426-.18,5.464,5.464,0,0,1,2.414.4v1.477a4.376,4.376,0,0,0-2.547-.687,4.189,4.189,0,0,0-.859.09,2.428,2.428,0,0,0-.766.293,1.7,1.7,0,0,0-.547.523,1.389,1.389,0,0,0-.211.781,1.608,1.608,0,0,0,.16.742,1.819,1.819,0,0,0,.473.57,4.708,4.708,0,0,0,.762.5q.449.242,1.035.531.6.3,1.141.625a5.214,5.214,0,0,1,.945.727,3.229,3.229,0,0,1,.645.883,2.482,2.482,0,0,1,.238,1.109,2.813,2.813,0,0,1-.324,1.4,2.661,2.661,0,0,1-.875.934,3.822,3.822,0,0,1-1.27.52,6.953,6.953,0,0,1-1.516.16,6.176,6.176,0,0,1-.656-.043q-.391-.043-.8-.125a6.5,6.5,0,0,1-.77-.2A2.4,2.4,0,0,1,121.078-.453ZM139.414,0H138.1V-11.2h1.313Zm15.461.188a4.918,4.918,0,0,1-3.816-1.57,5.824,5.824,0,0,1-1.434-4.086,6.171,6.171,0,0,1,1.461-4.312,5.1,5.1,0,0,1,3.977-1.609A4.807,4.807,0,0,1,158.8-9.828a5.845,5.845,0,0,1,1.418,4.086,6.191,6.191,0,0,1-1.453,4.336A5.008,5.008,0,0,1,154.875.188Zm.094-10.391A3.612,3.612,0,0,0,152.1-8.93,4.93,4.93,0,0,0,151-5.586a4.964,4.964,0,0,0,1.074,3.332,3.5,3.5,0,0,0,2.8,1.262,3.678,3.678,0,0,0,2.906-1.2,4.917,4.917,0,0,0,1.063-3.367,5.138,5.138,0,0,0-1.031-3.43A3.536,3.536,0,0,0,154.969-10.2ZM179.453,0h-1.609l-5.766-8.93a3.732,3.732,0,0,1-.359-.7h-.047a11.533,11.533,0,0,1,.063,1.539V0h-1.312V-11.2h1.7l5.609,8.789q.352.547.453.75h.031a11.854,11.854,0,0,1-.078-1.648V-11.2h1.313Z" transform="translate(-19.734 267)" fill="#636e72"/>
    <g id="首页" transform="translate(260.154 199.135)">
      <g id="组_21510" data-name="组 21510" transform="translate(82.599 0)">
        <path id="路径_37636" data-name="路径 37636" d="M906.861,51.25v5.579H904.25v3.842" transform="translate(-876.344 -47.168)" fill="none" stroke="#0080f4" stroke-miterlimit="10" stroke-width="1.2"/>
        <path id="路径_37637" data-name="路径 37637" d="M891.108,102l-7.441,3.652,2.558,5.082" transform="translate(-859.977 -87.524)" fill="none" stroke="#0080f4" stroke-miterlimit="10" stroke-width="1.2"/>
        <path id="路径_37638" data-name="路径 37638" d="M863.333,126.75l2.867,2.509v13.927" transform="translate(-843.808 -107.205)" fill="none" stroke="#0080f4" stroke-miterlimit="10" stroke-width="1.2"/>
        <path id="路径_37639" data-name="路径 37639" d="M832,154.333l2.8,2.364v8.7" transform="translate(-818.892 -129.139)" fill="none" stroke="#000" stroke-miterlimit="10" stroke-width="1.2"/>
        <path id="路径_37640" data-name="路径 37640" d="M813.333,172l2.765,2.424v5.257" transform="translate(-804.048 -143.187)" fill="none" stroke="#0080f4" stroke-miterlimit="10" stroke-width="1.2"/>
        <path id="路径_37641" data-name="路径 37641" d="M789,185.333l2.56,2.391v2.56" transform="translate(-784.699 -153.79)" fill="none" stroke="#000" stroke-miterlimit="10" stroke-width="1.2"/>
        <g id="组_21509" data-name="组 21509" transform="translate(0 11.404)">
          <path id="路径_37642" data-name="路径 37642" d="M965.873,126.75l-3.123,2.407v14.166" transform="translate(-922.863 -118.609)" fill="none" stroke="#0080f4" stroke-miterlimit="10" stroke-width="1.2"/>
          <path id="路径_37643" data-name="路径 37643" d="M921,87l7.783,5.223L926.53,97.65" transform="translate(-889.664 -87)" fill="none" stroke="#0080f4" stroke-miterlimit="10" stroke-width="1.2"/>
          <path id="路径_37644" data-name="路径 37644" d="M998.942,152l-3.106,2.321v8.944" transform="translate(-949.172 -138.687)" fill="none" stroke="#0c111a" stroke-miterlimit="10" stroke-width="1.2"/>
          <path id="路径_37645" data-name="路径 37645" d="M1017.737,169.833l-2.9,2.355v5.257" transform="translate(-964.28 -152.868)" fill="none" stroke="#0080f4" stroke-miterlimit="10" stroke-width="1.2"/>
          <path id="路径_37646" data-name="路径 37646" d="M1043,183.667l-2.833,2.05v2.935" transform="translate(-984.423 -163.868)" fill="none" stroke="#0c111a" stroke-miterlimit="10" stroke-width="1.2"/>
          <line id="直线_306" data-name="直线 306" x2="60.385" transform="translate(0 24.987)" fill="none" stroke="#0080f4" stroke-miterlimit="10" stroke-width="1.2"/>
        </g>
        <path id="路径_37647" data-name="路径 37647" d="M891,150.167h12.494v12.05" transform="translate(-865.808 -125.826)" fill="none" stroke="#0080f4" stroke-miterlimit="10" stroke-width="1.2"/>
        <path id="路径_37648" data-name="路径 37648" d="M902.111,169H896v8.056" transform="translate(-869.784 -140.802)" fill="none" stroke="#0c111a" stroke-miterlimit="10" stroke-width="1.2"/>
        <path id="路径_37649" data-name="路径 37649" d="M912,182.333h4.54v5.325" transform="translate(-882.507 -151.404)" fill="none" stroke="#0c111a" stroke-miterlimit="10" stroke-width="1.2"/>
        <circle id="椭圆_1659" data-name="椭圆 1659" cx="1.869" cy="1.869" r="1.869" transform="translate(28.648 0)" fill="none" stroke="#0080f4" stroke-miterlimit="10" stroke-width="1.2"/>
      </g>
      <g id="组_21512" data-name="组 21512" transform="translate(157.344 25.1)">
        <path id="路径_37650" data-name="路径 37650" d="M1183.625,182.833l3.618,3.926L1174,198.16" transform="translate(-1165.331 -176.902)" fill="none" stroke="#1a1311" stroke-miterlimit="10" stroke-width="1.2"/>
        <line id="直线_307" data-name="直线 307" x1="8.261" y2="7.339" transform="translate(6.962 11.905)" fill="none" stroke="#1a1311" stroke-miterlimit="10" stroke-width="1.2"/>
        <g id="组_21511" data-name="组 21511" transform="translate(0 0)">
          <path id="路径_37651" data-name="路径 37651" d="M1131.67,242.574l5.154-4.574,18.945,21.915" transform="translate(-1131.67 -220.77)" fill="none" stroke="#1a1311" stroke-miterlimit="10" stroke-width="1.2"/>
          <path id="路径_37652" data-name="路径 37652" d="M1214.433,262.94l-2.936-3.106-7,6.281" transform="translate(-1189.584 -238.132)" fill="none" stroke="#1a1311" stroke-miterlimit="10" stroke-width="1.2"/>
          <path id="路径_37653" data-name="路径 37653" d="M1233.12,233l2.05,7.988-10,8.875" transform="translate(-1206.019 -216.794)" fill="none" stroke="#1a1311" stroke-miterlimit="10" stroke-width="1.2"/>
          <path id="路径_37654" data-name="路径 37654" d="M1245.17,299.7,1248,297l4.2,4.95" transform="translate(-1221.924 -267.686)" fill="none" stroke="#1a1311" stroke-miterlimit="10" stroke-width="1.2"/>
          <path id="路径_37655" data-name="路径 37655" d="M1243,316.167l3.619,3.72.921,8.227-4.23,3.32,6.449,8.866" transform="translate(-1220.199 -282.928)" fill="none" stroke="#1a1311" stroke-miterlimit="10" stroke-width="1.2"/>
          <path id="路径_37656" data-name="路径 37656" d="M1262.858,385.167l-.137,3.243-2.391,1.946" transform="translate(-1233.98 -337.796)" fill="none" stroke="#1a1311" stroke-miterlimit="10" stroke-width="1.2"/>
          <path id="路径_37657" data-name="路径 37657" d="M1272.173,397l-.05,3.343L1269,402.325" transform="translate(-1240.874 -347.205)" fill="none" stroke="#1a1311" stroke-miterlimit="10" stroke-width="1.2"/>
          <path id="路径_37658" data-name="路径 37658" d="M1422.435,169.333l-3.96,3.175,1.127,2.185-1.391.637" transform="translate(-1359.525 -166.167)" fill="none" stroke="#000" stroke-miterlimit="10" stroke-width="1.2"/>
          <path id="路径_37659" data-name="路径 37659" d="M1367.016,183.971c-.1.108-1.434,1.262-1.434,1.262l1.093,2.225-4.028,3.378-3.928-2.831L1355,190.736l.956,3.277" transform="translate(-1309.26 -177.807)" fill="none" stroke="#000" stroke-miterlimit="10" stroke-width="1.2"/>
          <path id="路径_37660" data-name="路径 37660" d="M1370.491,215.333l4.779,3-.683,2.321-2.56,2.185-2.526-2.867" transform="translate(-1320.791 -202.746)" fill="none" stroke="#000" stroke-miterlimit="10" stroke-width="1.2"/>
          <line id="直线_308" data-name="直线 308" x2="3.685" y2="2.185" transform="translate(48.198 14.499)" fill="none" stroke="#000" stroke-miterlimit="10" stroke-width="1.2"/>
          <path id="路径_37661" data-name="路径 37661" d="M1294.639,237.894l-2.936-2.56L1276,248.988" transform="translate(-1246.44 -218.65)" fill="none" stroke="#000" stroke-miterlimit="10" stroke-width="1.2"/>
          <path id="路径_37662" data-name="路径 37662" d="M1285.56,257.667l-12.493,10.923,1.126,6.283-4.715.168" transform="translate(-1241.254 -236.409)" fill="none" stroke="#000" stroke-miterlimit="10" stroke-width="1.2"/>
          <circle id="椭圆_1660" data-name="椭圆 1660" cx="1.869" cy="1.869" r="1.869" transform="translate(62.714)" fill="none" stroke="#000" stroke-miterlimit="10" stroke-width="1.2"/>
        </g>
      </g>
      <g id="组_21513" data-name="组 21513" transform="translate(177.959 97.926)">
        <path id="路径_37664" data-name="路径 37664" d="M1252.125,614.233,1237.653,610l-5.326,18.634,10.276,2.6.785-3.174-1.433-6.827" transform="translate(-1232.327 -589.417)" fill="none" stroke="#000" stroke-miterlimit="10" stroke-width="1.2"/>
        <path id="路径_37665" data-name="路径 37665" d="M1253.67,624.185l18.911,5.393,2.082-7.578" transform="translate(-1249.298 -598.959)" fill="none" stroke="#ef54a1" stroke-miterlimit="10" stroke-width="1.2"/>
        <path id="路径_37666" data-name="路径 37666" d="M1249.67,645.833l8.841,2.492,1.383,6.759" transform="translate(-1246.118 -617.911)" fill="none" stroke="#000" stroke-miterlimit="10" stroke-width="1.2"/>
        <path id="路径_37667" data-name="路径 37667" d="M1241,663.948l3.414.887-.486-4.335" transform="translate(-1239.224 -629.573)" fill="none" stroke="#000" stroke-miterlimit="10" stroke-width="1.2"/>
        <path id="路径_37672" data-name="路径 37672" d="M1282.5,509.5l5.12,1.57-.887,2.833" transform="translate(-1272.224 -509.5)" fill="none" stroke="#000" stroke-miterlimit="10" stroke-width="1.2"/>
        <path id="路径_37673" data-name="路径 37673" d="M1279.33,522.333l8.3,2.97-.785,1.878" transform="translate(-1269.704 -519.705)" fill="none" stroke="#000" stroke-miterlimit="10" stroke-width="1.2"/>
        <g id="组_21986" data-name="组 21986" transform="translate(7.376 7.476)">
          <path id="路径_37663" data-name="路径 37663" d="M1403.83,588l2.355,3.311,4.744-.922,5.8,1.741" transform="translate(-1376.081 -579.398)" fill="none" stroke="#ef54a1" stroke-miterlimit="10" stroke-width="1.2"/>
          <path id="路径_37668" data-name="路径 37668" d="M1284.726,564.167l-1.981,6.009-4.916-1.945" transform="translate(-1275.886 -560.446)" fill="none" stroke="#ef54a1" stroke-miterlimit="10" stroke-width="1.2"/>
          <path id="路径_37669" data-name="路径 37669" d="M1328.791,566.667l-2.287,7.851,8.943,2.253,3.755,3.994" transform="translate(-1314.59 -562.434)" fill="none" stroke="#ef54a1" stroke-miterlimit="10" stroke-width="1.2"/>
          <path id="路径_37670" data-name="路径 37670" d="M1331.67,591.5l9.285,1.963,4.335,5.205" transform="translate(-1318.698 -582.181)" fill="none" stroke="#ef54a1" stroke-miterlimit="10" stroke-width="1.2"/>
          <path id="路径_37671" data-name="路径 37671" d="M1336.67,576l11.23,2.458,3.277,6.144" transform="translate(-1322.674 -569.856)" fill="none" stroke="#ef54a1" stroke-miterlimit="10" stroke-width="1.2"/>
          <line id="直线_309" data-name="直线 309" x2="5.12" y2="1.331" transform="translate(28.297 13.415)" fill="none" stroke="#ef54a1" stroke-miterlimit="10" stroke-width="1.2"/>
          <path id="路径_37674" data-name="路径 37674" d="M1290.67,546l7.2,2.185-3.6,10.548" transform="translate(-1286.096 -546)" fill="none" stroke="#ef54a1" stroke-miterlimit="10" stroke-width="1.2"/>
          <line id="直线_310" data-name="直线 310" x1="1.229" y2="3.652" transform="translate(4.402 2.185)" fill="none" stroke="#ef54a1" stroke-miterlimit="10" stroke-width="1.2"/>
          <path id="路径_37675" data-name="路径 37675" d="M1271.408,547l-3.072,9.147,6.076,2.014" transform="translate(-1268.336 -546.795)" fill="none" stroke="#ef54a1" stroke-miterlimit="10" stroke-width="1.2"/>
          <circle id="椭圆_1661" data-name="椭圆 1661" cx="1.869" cy="1.869" r="1.869" transform="translate(40.449 11.469)" fill="none" stroke="#ef54a1" stroke-miterlimit="10" stroke-width="1.2"/>
        </g>
      </g>
      <g id="组_21514" data-name="组 21514" transform="translate(142.152 150.133)">
        <path id="路径_37676" data-name="路径 37676" d="M1092,849l9.524,11.333,8.551-4.937" transform="translate(-1085.067 -831.68)" fill="none" stroke="#000" stroke-miterlimit="10" stroke-width="1.2"/>
        <path id="路径_37677" data-name="路径 37677" d="M1058.15,856.617l12.668,14.62,13.673-8.73,2.1,4.02" transform="translate(-1058.15 -837.737)" fill="none" stroke="#000" stroke-miterlimit="10" stroke-width="1.2"/>
        <line id="直线_311" data-name="直线 311" y1="3.55" x2="8.875" transform="translate(17.754 29.199)" fill="none" stroke="#000" stroke-miterlimit="10" stroke-width="1.2"/>
        <line id="直线_312" data-name="直线 312" x2="7.216" y2="10.697" transform="translate(25.865)" fill="none" stroke="#000" stroke-miterlimit="10" stroke-width="1.2"/>
        <path id="路径_37678" data-name="路径 37678" d="M1176,770l10.036,15.566,2.594-1.4" transform="translate(-1151.863 -768.86)" fill="none" stroke="#000" stroke-miterlimit="10" stroke-width="1.2"/>
        <path id="路径_37679" data-name="路径 37679" d="M1167,775.5l11.265,16.9,3-1.454" transform="translate(-1144.706 -773.234)" fill="none" stroke="#000" stroke-miterlimit="10" stroke-width="1.2"/>
        <path id="路径_37680" data-name="路径 37680" d="M1135.406,785.4l11.041,23.1v3.755l-14.781,4.608" transform="translate(-1116.609 -781.107)" fill="none" stroke="#000" stroke-miterlimit="10" stroke-width="1.2"/>
        <path id="路径_37681" data-name="路径 37681" d="M1099.62,820.1l8.134-5.936,5.666,13.791" transform="translate(-1091.126 -803.982)" fill="none" stroke="#000" stroke-miterlimit="10" stroke-width="1.2"/>
        <path id="路径_37682" data-name="路径 37682" d="M1113.268,833.833l-5.6,3.378s6.71,8.075,6.718,8.073,3.18-2,3.18-2" transform="translate(-1097.527 -819.62)" fill="none" stroke="#000" stroke-miterlimit="10" stroke-width="1.2"/>
        <path id="路径_37683" data-name="路径 37683" d="M1126.89,842l-3.89,2.05,3.448,4.4,2.867-1.229" transform="translate(-1109.718 -826.114)" fill="none" stroke="#000" stroke-miterlimit="10" stroke-width="1.2"/>
        <circle id="椭圆_1662" data-name="椭圆 1662" cx="1.869" cy="1.869" r="1.869" transform="translate(11.208 34.703)" fill="none" stroke="#000" stroke-miterlimit="10" stroke-width="1.2"/>
      </g>
      <g id="组_21515" data-name="组 21515" transform="translate(78.046 169.124)">
        <path id="路径_37686" data-name="路径 37686" d="M762.317,872.936l1.98-13.177-12.487-1.945-4.17-.649L746,866.689l3.414.2,5.8-2.185" transform="translate(-746 -857.165)" fill="none" stroke="#0c111a" stroke-miterlimit="10" stroke-width="1.2"/>
        <path id="路径_37687" data-name="路径 37687" d="M772.012,862.333l-.512,3.209,3.789-1.025" transform="translate(-766.277 -861.274)" fill="none" stroke="#000" stroke-miterlimit="10" stroke-width="1.2"/>
        <path id="路径_37688" data-name="路径 37688" d="M778.151,867.167l-1.263,8.09s-5.5,1.945-5.393,1.911" transform="translate(-766.272 -865.118)" fill="none" stroke="#0080f4" stroke-miterlimit="10" stroke-width="1.2"/>
        <path id="路径_37689" data-name="路径 37689" d="M805.323,869s-2.935,17.17-2.833,17.2,6.724,1.263,6.724,1.263" transform="translate(-790.918 -866.576)" fill="none" stroke="#0080f4" stroke-miterlimit="10" stroke-width="1.2"/>
        <g id="组_21987" data-name="组 21987" transform="translate(16.948 4.097)">
          <path id="路径_37684" data-name="路径 37684" d="M859.1,881.833l-5.2,33.316-6.058-.853" transform="translate(-843.928 -880.877)" fill="none" stroke="#0080f4" stroke-miterlimit="10" stroke-width="1.2"/>
          <path id="路径_37685" data-name="路径 37685" d="M857.4,879l-4.712,29.971-2.7-.342" transform="translate(-845.645 -878.624)" fill="none" stroke="#0080f4" stroke-miterlimit="10" stroke-width="1.2"/>
          <line id="直线_313" data-name="直线 313" x1="3.345" y2="21.266" transform="translate(5.581)" fill="none" stroke="#0080f4" stroke-miterlimit="10" stroke-width="1.2"/>
          <circle id="椭圆_1663" data-name="椭圆 1663" cx="1.869" cy="1.869" r="1.869" transform="translate(0 31.22)" fill="none" stroke="#0080f4" stroke-miterlimit="10" stroke-width="1.2"/>
        </g>
      </g>
      <g id="组_21517" data-name="组 21517" transform="translate(12.938 107.102)">
        <line id="直线_314" data-name="直线 314" x1="3.004" y2="1.673" transform="translate(39.784 43.971)" fill="none" stroke="#000" stroke-miterlimit="10" stroke-width="1.2"/>
        <g id="组_21516" data-name="组 21516" transform="translate(0)">
          <line id="直线_315" data-name="直线 315" x1="12.284" y2="19.599" transform="translate(11.69)" fill="none" stroke="#000" stroke-miterlimit="10" stroke-width="1.2"/>
          <line id="直线_316" data-name="直线 316" x2="18.604" y2="38.197" transform="translate(22.306 10.587)" fill="none" stroke="#000" stroke-miterlimit="10" stroke-width="1.2"/>
          <line id="直线_317" data-name="直线 317" x1="4.267" y2="2.014" transform="translate(23.774 11.133)" fill="none" stroke="#000" stroke-miterlimit="10" stroke-width="1.2"/>
          <path id="路径_37690" data-name="路径 37690" d="M478.034,624.333l-15.054,7.135L461,635.53" transform="translate(-454.464 -609.991)" fill="none" stroke="#000" stroke-miterlimit="10" stroke-width="1.2"/>
          <path id="路径_37691" data-name="路径 37691" d="M489.1,633.167l-13.518,6.111-1.911,3.277" transform="translate(-464.537 -617.016)" fill="none" stroke="#000" stroke-miterlimit="10" stroke-width="1.2"/>
          <path id="路径_37692" data-name="路径 37692" d="M470.218,648.667l-15.975,7.646-6.076-.853" transform="translate(-444.259 -629.341)" fill="none" stroke="#000" stroke-miterlimit="10" stroke-width="1.2"/>
          <line id="直线_318" data-name="直线 318" x2="9.524" y2="20.276" transform="translate(14.046 25.368)" fill="none" stroke="#000" stroke-miterlimit="10" stroke-width="1.2"/>
          <line id="直线_319" data-name="直线 319" x1="4.813" y2="2.321" transform="translate(11.554 31.136)" fill="none" stroke="#000" stroke-miterlimit="10" stroke-width="1.2"/>
          <line id="直线_320" data-name="直线 320" x1="4.95" y2="2.219" transform="translate(15.752 40.285)" fill="none" stroke="#000" stroke-miterlimit="10" stroke-width="1.2"/>
          <path id="路径_37693" data-name="路径 37693" d="M528.9,749l-17.269,7.646L509,761.927" transform="translate(-492.633 -709.125)" fill="none" stroke="#000" stroke-miterlimit="10" stroke-width="1.2"/>
          <path id="路径_37694" data-name="路径 37694" d="M544.614,763.5l-14.1,6.725L527,769.713" transform="translate(-506.946 -720.655)" fill="none" stroke="#000" stroke-miterlimit="10" stroke-width="1.2"/>
          <path id="路径_37695" data-name="路径 37695" d="M540.068,773.083l-15.634,7.322-4.267-.99" transform="translate(-501.513 -728.275)" fill="none" stroke="#000" stroke-miterlimit="10" stroke-width="1.2"/>
          <line id="直线_321" data-name="直线 321" x1="22.994" y1="2.174" transform="translate(26.3 50.628)" fill="none" stroke="#000" stroke-miterlimit="10" stroke-width="1.2"/>
          <path id="路径_37696" data-name="路径 37696" d="M560.833,647.536,564.144,646l1.638,9.285,6.759,9.489L569.674,666" transform="translate(-533.85 -627.22)" fill="none" stroke="#000" stroke-miterlimit="10" stroke-width="1.2"/>
          <circle id="椭圆_1664" data-name="椭圆 1664" cx="1.869" cy="1.869" r="1.869" transform="translate(13.371 52.579)" fill="none" stroke="#000" stroke-miterlimit="10" stroke-width="1.2"/>
          <circle id="椭圆_1665" data-name="椭圆 1665" cx="1.869" cy="1.869" r="1.869" transform="translate(0 23.848)" fill="none" stroke="#000" stroke-miterlimit="10" stroke-width="1.2"/>
        </g>
      </g>
      <g id="组_21519" data-name="组 21519" transform="translate(0 43.878)">
        <path id="路径_37697" data-name="路径 37697" d="M604.65,346l-6.144.375L594,356.036" transform="translate(-547.286 -325.434)" fill="none" stroke="#ef54a1" stroke-miterlimit="10" stroke-width="1.2"/>
        <path id="路径_37698" data-name="路径 37698" d="M627.416,270.841l-12-6.008,1.314,5.359" transform="translate(-564.317 -260.891)" fill="none" stroke="#000" stroke-miterlimit="10" stroke-width="1.2"/>
        <path id="路径_37699" data-name="路径 37699" d="M644.156,263.1l-8.227-4.1-1.263,2.936" transform="translate(-579.623 -256.252)" fill="none" stroke="#000" stroke-miterlimit="10" stroke-width="1.2"/>
        <g id="组_21518" data-name="组 21518" transform="translate(0 0)">
          <path id="路径_37700" data-name="路径 37700" d="M531.805,468.953l-8.022-3.994L523,461" transform="translate(-490.827 -416.88)" fill="none" stroke="#0c111a" stroke-miterlimit="10" stroke-width="1.2"/>
          <path id="路径_37701" data-name="路径 37701" d="M544,468.069,536,464l.342,3" transform="translate(-501.165 -419.266)" fill="none" stroke="#0c111a" stroke-miterlimit="10" stroke-width="1.2"/>
          <path id="路径_37702" data-name="路径 37702" d="M520.434,417.337l-15.6-8.4,1.639-3.789,2.97,1.3L511.422,403" transform="translate(-476.383 -370.759)" fill="none" stroke="#0c111a" stroke-miterlimit="10" stroke-width="1.2"/>
          <path id="路径_37703" data-name="路径 37703" d="M531.333,414.5l2.695-5.5,7.749,4.1" transform="translate(-497.454 -375.53)" fill="none" stroke="#0c111a" stroke-miterlimit="10" stroke-width="1.2"/>
          <path id="路径_37704" data-name="路径 37704" d="M568.294,347.911l-6.459-12.221L568.9,322" transform="translate(-521.708 -306.349)" fill="none" stroke="#0c111a" stroke-miterlimit="10" stroke-width="1.2"/>
          <path id="路径_37705" data-name="路径 37705" d="M574,306.481l5.939-11.572,10.582-1.536.444-1.058L577.687,286l-1.809,2.9" transform="translate(-531.382 -277.722)" fill="none" stroke="#0c111a" stroke-miterlimit="10" stroke-width="1.2"/>
          <path id="路径_37706" data-name="路径 37706" d="M581.325,275.108l-3.857-1.775L576,276.711" transform="translate(-532.972 -267.65)" fill="none" stroke="#0080f4" stroke-miterlimit="10" stroke-width="1.2"/>
          <path id="路径_37707" data-name="路径 37707" d="M585.662,344l-5.5,10.036,4.676,7.1" transform="translate(-536.285 -323.843)" fill="none" stroke="#ef54a1" stroke-miterlimit="10" stroke-width="1.2"/>
          <path id="路径_37708" data-name="路径 37708" d="M525.5,327.52l3.277-6.52,8.534,1.638" transform="translate(-492.815 -305.554)" fill="none" stroke="#ef54a1" stroke-miterlimit="10" stroke-width="1.2"/>
          <line id="直线_322" data-name="直线 322" x1="7.203" y2="14.337" transform="translate(37.873 15.651)" fill="none" stroke="#ef54a1" stroke-miterlimit="10" stroke-width="1.2"/>
          <path id="路径_37709" data-name="路径 37709" d="M536.711,339.753,532,334.735,534.9,329" transform="translate(-497.984 -311.915)" fill="none" stroke="#ef54a1" stroke-miterlimit="10" stroke-width="1.2"/>
          <path id="路径_37710" data-name="路径 37710" d="M441.349,290.339l-2.765,5.7-6.452-5.257-5.564-3.14L418,283" transform="translate(-407.333 -275.337)" fill="none" stroke="#ef54a1" stroke-miterlimit="10" stroke-width="1.2"/>
          <path id="路径_37711" data-name="路径 37711" d="M422.667,276.5l9.524,4.881,4.881,1.98,8.329,2.253" transform="translate(-411.044 -270.168)" fill="none" stroke="#ef54a1" stroke-miterlimit="10" stroke-width="1.2"/>
          <path id="路径_37712" data-name="路径 37712" d="M387.912,262.782l.922-1.092,2.424.819v.717l-1.468,2.151-3.55-1.843.353-1.841-3.425-1.628" transform="translate(-379.634 -257.098)" fill="none" stroke="#ef54a1" stroke-miterlimit="10" stroke-width="1.2"/>
          <circle id="椭圆_1666" data-name="椭圆 1666" cx="1.869" cy="1.869" r="1.869" fill="none" stroke="#ef54a1" stroke-miterlimit="10" stroke-width="1.2"/>
        </g>
      </g>
      <g id="组_21523" data-name="组 21523" transform="translate(51.062 42.645)">
        <g id="组_21522" data-name="组 21522" transform="translate(0 0.769)">
          <path id="路径_37713" data-name="路径 37713" d="M678.192,281.167l-4.54,16.317L655.833,305.1" transform="translate(-647.265 -273.418)" fill="none" stroke="#000" stroke-miterlimit="10" stroke-width="1.2"/>
          <line id="直线_323" data-name="直线 323" y1="5.394" x2="1.058" transform="translate(35.228 5.393)" fill="none" stroke="#000" stroke-miterlimit="10" stroke-width="1.2"/>
          <path id="路径_37714" data-name="路径 37714" d="M772,287.772l1.058-7,5.769-4.95,30.2-4.6" transform="translate(-739.64 -265.516)" fill="none" stroke="#000" stroke-miterlimit="10" stroke-width="1.2"/>
          <path id="路径_37715" data-name="路径 37715" d="M825.179,292l1.639,5.359-5.359,4.386L792,305.142" transform="translate(-755.544 -282.032)" fill="none" stroke="#000" stroke-miterlimit="10" stroke-width="1.2"/>
          <line id="直线_324" data-name="直线 324" x1="4.753" y1="10.859" transform="translate(69.389 2.181)" fill="none" stroke="#000" stroke-miterlimit="10" stroke-width="1.2"/>
          <path id="路径_37716" data-name="路径 37716" d="M759.465,797.578l-13.2-1.925L735,787" transform="translate(-710.218 -675.651)" fill="none" stroke="#000" stroke-miterlimit="10" stroke-width="1.2"/>
          <path id="路径_37717" data-name="路径 37717" d="M692.095,621.9l-8.449-9.781L654,609" transform="translate(-645.807 -534.107)" fill="none" stroke="#000" stroke-miterlimit="10" stroke-width="1.2"/>
          <line id="直线_325" data-name="直线 325" x2="29.997" y2="8.941" transform="translate(5.853 88.968)" fill="none" stroke="#000" stroke-miterlimit="10" stroke-width="1.2"/>
          <g id="组_21521" data-name="组 21521" transform="translate(15.207)">
            <g id="组_21520" data-name="组 21520" transform="translate(57.194)">
              <path id="路径_37718" data-name="路径 37718" d="M982.674,245.833l-9.951-2.5,9.951,13.04-15.174,14.1,8.977,7.885" transform="translate(-967.5 -243.333)" fill="none" stroke="#0c111a" stroke-miterlimit="10" stroke-width="1.2"/>
              <path id="路径_37719" data-name="路径 37719" d="M1065.724,273.666l-5.769,2.116L1052,267.727l2.475-.586,3.874,1.439" transform="translate(-1034.693 -262.265)" fill="none" stroke="#0c111a" stroke-miterlimit="10" stroke-width="1.2"/>
              <path id="路径_37720" data-name="路径 37720" d="M1124.9,339l-2.232,1.977-5.892-3.309-4.781,3.55,1.433,6.964" transform="translate(-1082.405 -318.346)" fill="none" stroke="#0c111a" stroke-miterlimit="10" stroke-width="1.2"/>
            </g>
            <path id="路径_37721" data-name="路径 37721" d="M1051.915,350l2.116,14.951L1047,371.71" transform="translate(-973.524 -328.153)" fill="none" stroke="#000" stroke-miterlimit="10" stroke-width="1.2"/>
            <path id="路径_37722" data-name="路径 37722" d="M1083.7,393l-27.24,26.062-2.456,13.3" transform="translate(-979.09 -362.346)" fill="none" stroke="#000" stroke-miterlimit="10" stroke-width="1.2"/>
            <line id="直线_326" data-name="直线 326" y1="24.85" x2="2.765" transform="translate(106.656 51.476)" fill="none" stroke="#000" stroke-miterlimit="10" stroke-width="1.2"/>
            <path id="路径_37723" data-name="路径 37723" d="M1107.335,412.735,1102.42,407l-3.892,4.1L1099.7,429.9,1076,453.492" transform="translate(-996.584 -373.479)" fill="none" stroke="#0c111a" stroke-miterlimit="10" stroke-width="1.2"/>
            <path id="路径_37724" data-name="路径 37724" d="M1115.48,584l-1.025,6.554L1095,608.782" transform="translate(-1011.693 -514.228)" fill="none" stroke="#000" stroke-miterlimit="10" stroke-width="1.2"/>
            <line id="直线_327" data-name="直线 327" x1="16.18" y2="14.439" transform="translate(89.042 85.441)" fill="none" stroke="#000" stroke-miterlimit="10" stroke-width="1.2"/>
            <path id="路径_37725" data-name="路径 37725" d="M1036.809,765.078l-.563-9.012,21.862-2.816" transform="translate(-964.973 -648.813)" fill="none" stroke="#000" stroke-miterlimit="10" stroke-width="1.2"/>
            <path id="路径_37726" data-name="路径 37726" d="M914.294,783.994l22.162-10.1-.38-6.338" transform="translate(-867.997 -660.186)" fill="none" stroke="#000" stroke-miterlimit="10" stroke-width="1.2"/>
            <path id="路径_37727" data-name="路径 37727" d="M889.107,733l-33.18.41L842,744.265" transform="translate(-810.51 -632.711)" fill="none" stroke="#000" stroke-miterlimit="10" stroke-width="1.2"/>
            <path id="路径_37728" data-name="路径 37728" d="M905,776.712l7.729-2.877L909.251,762" transform="translate(-860.607 -655.771)" fill="none" stroke="#000" stroke-miterlimit="10" stroke-width="1.2"/>
            <path id="路径_37729" data-name="路径 37729" d="M757.425,699.25l-35.842.152-15.668,13.835-17.665-7.689" transform="translate(-688.25 -605.873)" fill="none" stroke="#0c111a" stroke-miterlimit="10" stroke-width="1.2"/>
          </g>
          <line id="直线_328" data-name="直线 328" x2="25.394" y2="0.61" transform="translate(5.532 61.38)" fill="none" stroke="#000" stroke-miterlimit="10" stroke-width="1.2"/>
          <path id="路径_37730" data-name="路径 37730" d="M619,536.818l1.229-11.06L623.916,519" transform="translate(-617.976 -462.54)" fill="none" stroke="#000" stroke-miterlimit="10" stroke-width="1.2"/>
          <path id="路径_37731" data-name="路径 37731" d="M614,432.288,618.3,420l28.469-2.663L657.01,403" transform="translate(-614 -370.298)" fill="none" stroke="#0c111a" stroke-miterlimit="10" stroke-width="1.2"/>
          <line id="直线_329" data-name="直线 329" y1="9.387" x2="29.288" transform="translate(5.735 30.039)" fill="none" stroke="#000" stroke-miterlimit="10" stroke-width="1.2"/>
        </g>
        <circle id="椭圆_1667" data-name="椭圆 1667" cx="1.508" cy="1.508" r="1.508" transform="translate(5.558 31.473)" fill="none" stroke="#000" stroke-miterlimit="10" stroke-width="1.2"/>
        <circle id="椭圆_1668" data-name="椭圆 1668" cx="1.508" cy="1.508" r="1.508" transform="translate(35.228 2.95)" fill="none" stroke="#000" stroke-miterlimit="10" stroke-width="1.2"/>
        <circle id="椭圆_1669" data-name="椭圆 1669" cx="1.508" cy="1.508" r="1.508" transform="translate(67.264 0)" fill="none" stroke="#000" stroke-miterlimit="10" stroke-width="1.2"/>
        <circle id="椭圆_1670" data-name="椭圆 1670" cx="1.508" cy="1.508" r="1.508" transform="translate(96.057 6.157)" fill="none" stroke="#000" stroke-miterlimit="10" stroke-width="1.2"/>
        <circle id="椭圆_1671" data-name="椭圆 1671" cx="1.508" cy="1.508" r="1.508" transform="translate(102.354 30.734)" fill="none" stroke="#000" stroke-miterlimit="10" stroke-width="1.2"/>
        <circle id="椭圆_1672" data-name="椭圆 1672" cx="1.508" cy="1.508" r="1.508" transform="translate(123.408 49.167)" fill="none" stroke="#000" stroke-miterlimit="10" stroke-width="1.2"/>
        <circle id="椭圆_1673" data-name="椭圆 1673" cx="1.508" cy="1.508" r="1.508" transform="translate(108.47 103.368)" fill="none" stroke="#000" stroke-miterlimit="10" stroke-width="1.2"/>
        <circle id="椭圆_1674" data-name="椭圆 1674" cx="1.508" cy="1.508" r="1.508" transform="translate(61.779 103.983)" fill="none" stroke="#000" stroke-miterlimit="10" stroke-width="1.2"/>
        <circle id="椭圆_1675" data-name="椭圆 1675" cx="1.508" cy="1.508" r="1.508" transform="translate(12.262 98.125)" fill="none" stroke="#0c111a" stroke-miterlimit="10" stroke-width="1.2"/>
      </g>
      <g id="组_21524" data-name="组 21524" transform="translate(83.109 72.885)">
        <path id="路径_37732" data-name="路径 37732" d="M813.108,423.541a59.539,59.539,0,0,0,4.167,11.535,35.478,35.478,0,0,0,6.776,9.847c2.572,2.493,5.46,4.057,8.509,4.057,4.8,0,9.1-2.385,12.566-4.693,1.732-1.154,3.259-2.3,4.5-3.135a7.481,7.481,0,0,1,2.588-1.294,10.462,10.462,0,0,1,3.487.987c1.347.573,2.754,1.269,3.969,1.754a.738.738,0,0,0,.965-.636,9.064,9.064,0,0,0-5.811-8.553,10.754,10.754,0,0,0-8.772.5c1.594-3.411,3.392-7.09,4.956-10.811,1.855-4.417,3.312-8.654,3.312-12.018,0-14.385-10.794-23.86-21.053-23.86-11.567,0-21.732,8.76-21.755,22.413v.043a41.245,41.245,0,0,0,.175,5.637l.152,1.4c.211,1.718.49,3.469.878,5.219Z" transform="translate(-803.084 -387.225)" fill="none" stroke="#1a1311" stroke-miterlimit="10" stroke-width="1.2"/>
        <path id="路径_37733" data-name="路径 37733" d="M780.127,531.009c-1.9-.266-3.711.534-5.352,1.206a6.881,6.881,0,0,1-2.215.636c-1-.617-.769-1.887-.329-2.719a7.61,7.61,0,0,1,1.776-2.084,12.107,12.107,0,0,1,5.242-2.259l-.152-1.4a10.828,10.828,0,0,0-5.987,2.587,8.836,8.836,0,0,0-2.105,2.478c-.859,1.91-.792,4.2,1.491,4.8a6.888,6.888,0,0,0,2.829-.746c1.619-.6,3.639-1.676,5.2-.9Z" transform="translate(-770.497 -496.294)" fill="#070203"/>
        <path id="路径_37734" data-name="路径 37734" d="M910.539,449.148a.74.74,0,0,1-1.1.569,7.346,7.346,0,0,0-3.816-.921,7.432,7.432,0,0,0-3.838.921.739.739,0,0,1-1.075-.569,23.2,23.2,0,0,1,.811-6.711c.607-1.877,1.808-3.609,4.1-3.816,1.875.036,3.131,2.033,3.816,3.8a20.681,20.681,0,0,1,1.1,6.733" transform="translate(-874.045 -428.095)" fill="#070203"/>
        <path id="路径_37735" data-name="路径 37735" d="M836.685,449.718a.74.74,0,0,1-1.075-.569,23.214,23.214,0,0,1,.811-6.711c.607-1.877,1.808-3.609,4.1-3.816,1.875.036,3.131,2.033,3.816,3.8a20.694,20.694,0,0,1,1.1,6.733.74.74,0,0,1-1.1.569,7.349,7.349,0,0,0-3.816-.921A7.426,7.426,0,0,0,836.685,449.718Z" transform="translate(-822.275 -428.095)" fill="#070203"/>
        <path id="路径_37736" data-name="路径 37736" d="M877.552,527.077a10.563,10.563,0,0,0-11.448-.9,12.736,12.736,0,0,0-3.882,2.872c-.911,1.063-1.737,2.593-.175,3.4a7.41,7.41,0,0,0,2.479-.132c2.326-.389,4.7-.791,6.886.68l-.877,1.1c-1.5-1.157-3.849-.687-5.769-.394a7.886,7.886,0,0,1-3.048.131c-3.059-.8-1.9-4.061-.548-5.7a13.978,13.978,0,0,1,4.32-3.2,12.366,12.366,0,0,1,12.917,1.031Z" transform="translate(-841.498 -495.649)" fill="#070203"/>
      </g>
    </g>
    <g id="NAV_bg" transform="translate(-110.773 140)" clip-path="url(#clip-path)">
      <g id="组_22050" data-name="组 22050" transform="translate(-18.977 10.255)" opacity="0.05">
        <g id="组_22048" data-name="组 22048" transform="translate(0 2.874)">
          <g id="组_21990" data-name="组 21990" transform="translate(188.257 85.27)">
            <g id="组_21988" data-name="组 21988" transform="translate(0 0)">
              <rect id="矩形_2697" data-name="矩形 2697" width="179.215" height="0.718" transform="translate(0 32.151) rotate(-10.335)"/>
            </g>
            <g id="组_21989" data-name="组 21989" transform="translate(0 0)">
              <rect id="矩形_2698" data-name="矩形 2698" width="179.215" height="0.718" transform="translate(0 32.151) rotate(-10.335)"/>
            </g>
          </g>
          <g id="组_21994" data-name="组 21994" transform="translate(188.307 12.316)">
            <g id="组_21991" data-name="组 21991" transform="translate(176.146 0.139)">
              <rect id="矩形_2699" data-name="矩形 2699" width="73.217" height="0.479" transform="translate(0 73.071) rotate(-86.388)"/>
            </g>
            <g id="组_21992" data-name="组 21992">
              <path id="路径_39936" data-name="路径 39936" d="M62.839,165.058l-.239-.479L243.251,59.3l.479.479Z" transform="translate(-62.6 -59.3)"/>
            </g>
            <g id="组_21993" data-name="组 21993">
              <path id="路径_39937" data-name="路径 39937" d="M62.839,165.058l-.239-.479L243.251,59.3l.479.479Z" transform="translate(-62.6 -59.3)"/>
            </g>
          </g>
          <g id="组_21999" data-name="组 21999" transform="translate(188.193 12.261)">
            <g id="组_21995" data-name="组 21995" transform="translate(124.022 0)">
              <rect id="矩形_2700" data-name="矩形 2700" width="69.15" height="0.479" transform="translate(0 39.478) rotate(-34.814)"/>
            </g>
            <g id="组_21996" data-name="组 21996" transform="translate(124.176 39.639)">
              <rect id="矩形_2701" data-name="矩形 2701" width="0.479" height="61.971" transform="matrix(0.54, -0.841, 0.841, 0.54, 0, 0.403)"/>
            </g>
            <g id="组_21997" data-name="组 21997" transform="translate(0 39.44)">
              <rect id="矩形_2702" data-name="矩形 2702" width="140.453" height="0.479" transform="translate(0 65.871) rotate(-27.969)"/>
            </g>
            <g id="组_21998" data-name="组 21998" transform="translate(0 39.44)">
              <rect id="矩形_2703" data-name="矩形 2703" width="140.453" height="0.479" transform="translate(0 65.871) rotate(-27.969)"/>
            </g>
          </g>
          <g id="组_22002" data-name="组 22002" transform="translate(0 117.596)">
            <g id="组_22000" data-name="组 22000" transform="translate(0 0)">
              <path id="路径_39938" data-name="路径 39938" d="M-16.1,282.754,172.446,103.779l-.239-.479L-16.1,282.036Z" transform="translate(16.1 -103.3)"/>
            </g>
            <g id="组_22001" data-name="组 22001" transform="translate(0 0)">
              <path id="路径_39939" data-name="路径 39939" d="M-16.1,282.754,172.446,103.779l-.239-.479L-16.1,282.036Z" transform="translate(16.1 -103.3)"/>
            </g>
          </g>
          <g id="组_22009" data-name="组 22009" transform="translate(0 51.796)">
            <g id="组_22003" data-name="组 22003" transform="translate(0 48.333)">
              <path id="路径_39940" data-name="路径 39940" d="M-16.1,246.741,11.177,96h-.718L-16.1,243.392Z" transform="translate(16.1 -96)"/>
            </g>
            <g id="组_22004" data-name="组 22004" transform="translate(0 43.787)">
              <path id="路径_39941" data-name="路径 39941" d="M-16.1,94.1v.479l26.8,4.307.239-.479Z" transform="translate(16.1 -94.1)"/>
            </g>
            <g id="组_22005" data-name="组 22005" transform="translate(26.799)">
              <path id="路径_39942" data-name="路径 39942" d="M-4.661,124.372l-.239-.479L280.791,75.8v.479Z" transform="translate(4.9 -75.8)"/>
            </g>
            <g id="组_22006" data-name="组 22006" transform="translate(0 48.094)">
              <path id="路径_39943" data-name="路径 39943" d="M-16.1,113.845,10.938,96.379,10.7,95.9l-26.8,17.228Z" transform="translate(16.1 -95.9)"/>
            </g>
            <g id="组_22007" data-name="组 22007" transform="translate(26.972 48.125)">
              <rect id="矩形_2704" data-name="矩形 2704" width="0.479" height="162.466" transform="translate(0 0.476) rotate(-83.754)"/>
            </g>
            <g id="组_22008" data-name="组 22008" transform="translate(26.972 48.125)">
              <rect id="矩形_2705" data-name="矩形 2705" width="0.479" height="162.466" transform="translate(0 0.476) rotate(-83.754)"/>
            </g>
          </g>
          <g id="组_22015" data-name="组 22015" transform="translate(188.231 12.621)">
            <g id="组_22010" data-name="组 22010" transform="translate(123.78 39.414)">
              <path id="路径_39944" data-name="路径 39944" d="M152.824,328.571,114.3,75.9h.718L153.3,328.571Z" transform="translate(-114.3 -75.9)"/>
            </g>
            <g id="组_22011" data-name="组 22011" transform="translate(162.246 0)">
              <rect id="矩形_2706" data-name="矩形 2706" width="292.63" height="0.479" transform="translate(0 292.053) rotate(-86.406)"/>
            </g>
            <g id="组_22012" data-name="组 22012" transform="translate(162.312 73.138)">
              <rect id="矩形_2707" data-name="矩形 2707" width="219.413" height="0.479" transform="matrix(0.063, -0.998, 0.998, 0.063, 0, 218.978)"/>
            </g>
            <g id="组_22013" data-name="组 22013" transform="translate(0 105.011)">
              <rect id="矩形_2708" data-name="矩形 2708" width="0.479" height="247.647" transform="matrix(0.755, -0.656, 0.656, 0.755, 0, 0.314)"/>
            </g>
            <g id="组_22014" data-name="组 22014" transform="translate(0 105.011)">
              <rect id="矩形_2709" data-name="矩形 2709" width="0.479" height="247.647" transform="matrix(0.755, -0.656, 0.656, 0.755, 0, 0.314)"/>
            </g>
          </g>
          <g id="组_22023" data-name="组 22023" transform="translate(0 51.951)">
            <g id="组_22016" data-name="组 22016" transform="translate(201.11 252.678)">
              <rect id="矩形_2710" data-name="矩形 2710" width="153.374" height="0.718" transform="translate(0 33.589) rotate(-12.647)"/>
            </g>
            <g id="组_22017" data-name="组 22017" transform="translate(26.559 47.938)">
              <path id="路径_39945" data-name="路径 39945" d="M169.43,334.933-5,96.379l.479-.479,174.43,238.794Z" transform="translate(5 -95.9)"/>
            </g>
            <g id="组_22018" data-name="组 22018" transform="translate(0 255.866)">
              <path id="路径_39946" data-name="路径 39946" d="M-16.1,182.8v.479l201.228,30.866v-.718Z" transform="translate(16.1 -182.8)"/>
            </g>
            <g id="组_22019" data-name="组 22019" transform="translate(200.992 0)">
              <rect id="矩形_2711" data-name="矩形 2711" width="307.465" height="0.718" transform="matrix(0.361, -0.932, 0.932, 0.361, 0, 286.708)"/>
            </g>
            <g id="组_22020" data-name="组 22020" transform="translate(200.989 33.582)">
              <path id="路径_39947" data-name="路径 39947" d="M68.379,343.289l-.479-.239L231.323,89.9l.479.239Z" transform="translate(-67.9 -89.9)"/>
            </g>
            <g id="组_22021" data-name="组 22021" transform="translate(188.113 65.8)">
              <rect id="矩形_2712" data-name="矩形 2712" width="0.718" height="221.327" transform="matrix(0.998, -0.058, 0.058, 0.998, 0, 0.042)"/>
            </g>
            <g id="组_22022" data-name="组 22022" transform="translate(188.113 65.8)">
              <rect id="矩形_2713" data-name="矩形 2713" width="0.718" height="221.327" transform="matrix(0.998, -0.058, 0.058, 0.998, 0, 0.042)"/>
            </g>
          </g>
          <g id="组_22028" data-name="组 22028" transform="translate(312.25 0)">
            <g id="组_22024" data-name="组 22024" transform="translate(209.602 0.113)">
              <path id="路径_39948" data-name="路径 39948" d="M426.676,174.554,202.239,54.2l-.239.479L426.676,175.032Z" transform="translate(-202 -54.2)"/>
            </g>
            <g id="组_22025" data-name="组 22025" transform="translate(0 0.113)">
              <path id="路径_39949" data-name="路径 39949" d="M114.639,106.361l-.239-.479L324,54.2l.239.479Z" transform="translate(-114.4 -54.2)"/>
            </g>
            <g id="组_22026" data-name="组 22026" transform="translate(56.947 0.113)">
              <path id="路径_39950" data-name="路径 39950" d="M138.2,66.881V66.4L290.856,54.2l.239.479Z" transform="translate(-138.2 -54.2)"/>
            </g>
            <g id="组_22027" data-name="组 22027" transform="translate(52.339)">
              <rect id="矩形_2714" data-name="矩形 2714" width="178.976" height="0.479" transform="matrix(0.879, -0.477, 0.477, 0.879, 0, 85.371)"/>
            </g>
          </g>
          <g id="组_22031" data-name="组 22031" transform="translate(350.773 85.525)">
            <g id="组_22029" data-name="组 22029" transform="translate(0 218.942)">
              <path id="路径_39951" data-name="路径 39951" d="M298.23,220.641,130.5,181.879V181.4l167.73,38.524Z" transform="translate(-130.5 -181.4)"/>
            </g>
            <g id="组_22030" data-name="组 22030" transform="translate(13.604 0)">
              <rect id="矩形_2715" data-name="矩形 2715" width="0.718" height="300.287" transform="matrix(0.859, -0.513, 0.513, 0.859, 0, 0.368)"/>
            </g>
          </g>
          <g id="组_22039" data-name="组 22039" transform="translate(312.25 0.064)">
            <g id="组_22032" data-name="组 22032" transform="translate(205.966 202.951)">
              <rect id="矩形_2716" data-name="矩形 2716" width="151.22" height="0.718" transform="translate(0 140.181) rotate(-68.028)"/>
            </g>
            <g id="组_22033" data-name="组 22033" transform="translate(209.377 0)">
              <rect id="矩形_2717" data-name="矩形 2717" width="0.718" height="209.602" transform="translate(0 0.182) rotate(-14.662)"/>
            </g>
            <g id="组_22034" data-name="组 22034" transform="translate(262.721 149.356)">
              <path id="路径_39952" data-name="路径 39952" d="M395.758,116.6,224.2,169.958v.479l171.558-53.119Z" transform="translate(-224.2 -116.6)"/>
            </g>
            <g id="组_22035" data-name="组 22035" transform="translate(38.434 202.489)">
              <rect id="矩形_2718" data-name="矩形 2718" width="246.211" height="0.479" transform="translate(0 101.959) rotate(-24.463)"/>
            </g>
            <g id="组_22036" data-name="组 22036" transform="translate(0 51.733)">
              <path id="路径_39953" data-name="路径 39953" d="M376.882,227.26,114.4,76.279l.239-.479L377.36,226.781Z" transform="translate(-114.4 -75.8)"/>
            </g>
            <g id="组_22037" data-name="组 22037" transform="translate(56.774 12.163)">
              <rect id="矩形_2719" data-name="矩形 2719" width="0.718" height="280.427" transform="translate(0 0.527) rotate(-47.229)"/>
            </g>
            <g id="组_22038" data-name="组 22038" transform="translate(52.15 85.228)">
              <rect id="矩形_2720" data-name="矩形 2720" width="0.718" height="240.947" transform="translate(0 0.627) rotate(-60.849)"/>
            </g>
          </g>
          <g id="组_22041" data-name="组 22041" transform="translate(574.971 202.777)">
            <g id="组_22040" data-name="组 22040">
              <path id="路径_39954" data-name="路径 39954" d="M395.758,183.644,224.2,138.9v.479l171.558,44.983Z" transform="translate(-224.2 -138.9)"/>
            </g>
          </g>
          <g id="组_22047" data-name="组 22047" transform="translate(350.735 188.899)">
            <g id="组_22042" data-name="组 22042" transform="translate(281.901 129.446)">
              <path id="路径_39955" data-name="路径 39955" d="M362.194,187.2,248.3,223.809l.239.718,113.654-36.609Z" transform="translate(-248.3 -187.2)"/>
            </g>
            <g id="组_22043" data-name="组 22043" transform="translate(223.997 13.878)">
              <path id="路径_39956" data-name="路径 39956" d="M282,291.556,224.1,139.139l.479-.239,57.9,152.416Z" transform="translate(-224.1 -138.9)"/>
            </g>
            <g id="组_22044" data-name="组 22044" transform="translate(167.662 153.924)">
              <rect id="矩形_2721" data-name="矩形 2721" width="0.718" height="114.851" transform="translate(0 0.714) rotate(-83.996)"/>
            </g>
            <g id="组_22045" data-name="组 22045" transform="translate(281.901)">
              <path id="路径_39957" data-name="路径 39957" d="M362.194,133.1,248.3,299.394l.479.239L362.194,134.057Z" transform="translate(-248.3 -133.1)"/>
            </g>
            <g id="组_22046" data-name="组 22046" transform="translate(0 115.638)">
              <rect id="矩形_2722" data-name="矩形 2722" width="0.479" height="286.409" transform="translate(0 0.471) rotate(-79.81)"/>
            </g>
          </g>
        </g>
        <g id="组_22049" data-name="组 22049" transform="translate(23.804 0)">
          <path id="路径_39958" data-name="路径 39958" d="M65.313,108.266a3.106,3.106,0,1,1,2.154-3.828A3.179,3.179,0,0,1,65.313,108.266Z" transform="translate(100.147 15.553)"/>
          <path id="路径_39959" data-name="路径 39959" d="M139.013,94.766a3.106,3.106,0,1,1,2.154-3.828A3.524,3.524,0,0,1,139.013,94.766Z" transform="translate(202.791 -3.248)"/>
          <path id="路径_39960" data-name="路径 39960" d="M65.313,108.266a3.106,3.106,0,1,1,2.154-3.828A3.179,3.179,0,0,1,65.313,108.266Z" transform="translate(100.147 15.553)"/>
          <path id="路径_39961" data-name="路径 39961" d="M139.013,94.766a3.106,3.106,0,1,1,2.154-3.828A3.524,3.524,0,0,1,139.013,94.766Z" transform="translate(202.791 -3.248)"/>
          <path id="路径_39962" data-name="路径 39962" d="M139.013,94.766a3.106,3.106,0,1,1,2.154-3.828A3.524,3.524,0,0,1,139.013,94.766Z" transform="translate(202.791 -3.248)"/>
          <path id="路径_39963" data-name="路径 39963" d="M140.913,64.266a3.106,3.106,0,1,1,2.154-3.828A3.179,3.179,0,0,1,140.913,64.266Z" transform="translate(205.437 -45.727)"/>
          <path id="路径_39964" data-name="路径 39964" d="M65.313,108.266a3.106,3.106,0,1,1,2.154-3.828A3.179,3.179,0,0,1,65.313,108.266Z" transform="translate(100.147 15.553)"/>
          <path id="路径_39965" data-name="路径 39965" d="M140.913,64.266a3.106,3.106,0,1,1,2.154-3.828A3.179,3.179,0,0,1,140.913,64.266Z" transform="translate(205.437 -45.727)"/>
          <path id="路径_39966" data-name="路径 39966" d="M65.313,108.266a3.106,3.106,0,1,1,2.154-3.828A3.179,3.179,0,0,1,65.313,108.266Z" transform="translate(100.147 15.553)"/>
          <path id="路径_39967" data-name="路径 39967" d="M140.913,64.266a3.106,3.106,0,1,1,2.154-3.828A3.179,3.179,0,0,1,140.913,64.266Z" transform="translate(205.437 -45.727)"/>
          <path id="路径_39968" data-name="路径 39968" d="M140.913,64.266a3.106,3.106,0,1,1,2.154-3.828A3.179,3.179,0,0,1,140.913,64.266Z" transform="translate(205.437 -45.727)"/>
          <path id="路径_39969" data-name="路径 39969" d="M117.113,80.766a3.106,3.106,0,1,1,2.154-3.828A3.179,3.179,0,0,1,117.113,80.766Z" transform="translate(172.29 -22.747)"/>
          <path id="路径_39970" data-name="路径 39970" d="M139.013,94.766a3.106,3.106,0,1,1,2.154-3.828A3.524,3.524,0,0,1,139.013,94.766Z" transform="translate(202.791 -3.248)"/>
          <path id="路径_39971" data-name="路径 39971" d="M117.113,80.766a3.106,3.106,0,1,1,2.154-3.828A3.179,3.179,0,0,1,117.113,80.766Z" transform="translate(172.29 -22.747)"/>
          <path id="路径_39972" data-name="路径 39972" d="M65.313,108.266a3.106,3.106,0,1,1,2.154-3.828A3.179,3.179,0,0,1,65.313,108.266Z" transform="translate(100.147 15.553)"/>
          <path id="路径_39973" data-name="路径 39973" d="M117.113,80.766a3.106,3.106,0,1,1,2.154-3.828A3.179,3.179,0,0,1,117.113,80.766Z" transform="translate(172.29 -22.747)"/>
          <path id="路径_39974" data-name="路径 39974" d="M65.313,108.266a3.106,3.106,0,1,1,2.154-3.828A3.179,3.179,0,0,1,65.313,108.266Z" transform="translate(100.147 15.553)"/>
          <path id="路径_39975" data-name="路径 39975" d="M117.113,80.766a3.106,3.106,0,1,1,2.154-3.828A3.179,3.179,0,0,1,117.113,80.766Z" transform="translate(172.29 -22.747)"/>
          <path id="路径_39976" data-name="路径 39976" d="M65.313,108.266a3.106,3.106,0,1,1,2.154-3.828A3.179,3.179,0,0,1,65.313,108.266Z" transform="translate(100.147 15.553)"/>
          <path id="路径_39977" data-name="路径 39977" d="M65.313,108.266a3.106,3.106,0,1,1,2.154-3.828A3.179,3.179,0,0,1,65.313,108.266Z" transform="translate(100.147 15.553)"/>
          <path id="路径_39978" data-name="路径 39978" d="M-2.2,100.855a3.074,3.074,0,0,1-2.367-.272A3.074,3.074,0,0,1-6.027,98.7a3.074,3.074,0,0,1,.272-2.367,3.074,3.074,0,0,1,1.881-1.462,3.074,3.074,0,0,1,2.367.272A3.074,3.074,0,0,1-.045,97.026,3.179,3.179,0,0,1-2.2,100.855Z" transform="translate(6.15 5.259)"/>
          <path id="路径_39979" data-name="路径 39979" d="M-2.2,100.855a3.074,3.074,0,0,1-2.367-.272A3.074,3.074,0,0,1-6.027,98.7a3.074,3.074,0,0,1,.272-2.367,3.074,3.074,0,0,1,1.881-1.462,3.074,3.074,0,0,1,2.367.272A3.074,3.074,0,0,1-.045,97.026,3.179,3.179,0,0,1-2.2,100.855Z" transform="translate(6.15 5.259)"/>
          <path id="路径_39980" data-name="路径 39980" d="M117.113,80.766a3.106,3.106,0,1,1,2.154-3.828A3.179,3.179,0,0,1,117.113,80.766Z" transform="translate(172.29 -22.747)"/>
          <path id="路径_39981" data-name="路径 39981" d="M-2.2,100.855a3.074,3.074,0,0,1-2.367-.272A3.074,3.074,0,0,1-6.027,98.7a3.074,3.074,0,0,1,.272-2.367,3.074,3.074,0,0,1,1.881-1.462,3.074,3.074,0,0,1,2.367.272A3.074,3.074,0,0,1-.045,97.026,3.179,3.179,0,0,1-2.2,100.855Z" transform="translate(6.15 5.259)"/>
          <path id="路径_39982" data-name="路径 39982" d="M-2.2,100.855a3.074,3.074,0,0,1-2.367-.272A3.074,3.074,0,0,1-6.027,98.7a3.074,3.074,0,0,1,.272-2.367,3.074,3.074,0,0,1,1.881-1.462,3.074,3.074,0,0,1,2.367.272A3.074,3.074,0,0,1-.045,97.026,3.179,3.179,0,0,1-2.2,100.855Z" transform="translate(6.15 5.259)"/>
          <path id="路径_39983" data-name="路径 39983" d="M65.313,108.266a3.106,3.106,0,1,1,2.154-3.828A3.179,3.179,0,0,1,65.313,108.266Z" transform="translate(100.147 15.553)"/>
          <path id="路径_39984" data-name="路径 39984" d="M-2.2,100.855a3.074,3.074,0,0,1-2.367-.272A3.074,3.074,0,0,1-6.027,98.7a3.074,3.074,0,0,1,.272-2.367,3.074,3.074,0,0,1,1.881-1.462,3.074,3.074,0,0,1,2.367.272A3.074,3.074,0,0,1-.045,97.026,3.179,3.179,0,0,1-2.2,100.855Z" transform="translate(6.15 5.259)"/>
          <path id="路径_39985" data-name="路径 39985" d="M65.313,108.266a3.106,3.106,0,1,1,2.154-3.828A3.179,3.179,0,0,1,65.313,108.266Z" transform="translate(100.147 15.553)"/>
          <path id="路径_39986" data-name="路径 39986" d="M-2.2,100.855a3.074,3.074,0,0,1-2.367-.272A3.074,3.074,0,0,1-6.027,98.7a3.074,3.074,0,0,1,.272-2.367,3.074,3.074,0,0,1,1.881-1.462,3.074,3.074,0,0,1,2.367.272A3.074,3.074,0,0,1-.045,97.026,3.179,3.179,0,0,1-2.2,100.855Z" transform="translate(6.15 5.259)"/>
          <path id="路径_39987" data-name="路径 39987" d="M117.113,80.766a3.106,3.106,0,1,1,2.154-3.828A3.179,3.179,0,0,1,117.113,80.766Z" transform="translate(172.29 -22.747)"/>
          <path id="路径_39988" data-name="路径 39988" d="M133.213,186.266a3.106,3.106,0,1,1,2.154-3.828,3.074,3.074,0,0,1-2.154,3.828Z" transform="translate(194.713 124.186)"/>
          <path id="路径_39989" data-name="路径 39989" d="M140.913,64.266a3.106,3.106,0,1,1,2.154-3.828A3.179,3.179,0,0,1,140.913,64.266Z" transform="translate(205.437 -45.727)"/>
          <path id="路径_39990" data-name="路径 39990" d="M133.213,186.266a3.106,3.106,0,1,1,2.154-3.828,3.074,3.074,0,0,1-2.154,3.828Z" transform="translate(194.713 124.186)"/>
          <path id="路径_39991" data-name="路径 39991" d="M139.013,94.766a3.106,3.106,0,1,1,2.154-3.828A3.524,3.524,0,0,1,139.013,94.766Z" transform="translate(202.791 -3.248)"/>
          <path id="路径_39992" data-name="路径 39992" d="M133.213,186.266a3.106,3.106,0,1,1,2.154-3.828,3.074,3.074,0,0,1-2.154,3.828Z" transform="translate(194.713 124.186)"/>
          <path id="路径_39993" data-name="路径 39993" d="M65.313,108.266a3.106,3.106,0,1,1,2.154-3.828A3.179,3.179,0,0,1,65.313,108.266Z" transform="translate(100.147 15.553)"/>
          <path id="路径_39994" data-name="路径 39994" d="M133.213,186.266a3.106,3.106,0,1,1,2.154-3.828,3.074,3.074,0,0,1-2.154,3.828Z" transform="translate(194.713 124.186)"/>
          <path id="路径_39995" data-name="路径 39995" d="M65.313,108.266a3.106,3.106,0,1,1,2.154-3.828A3.179,3.179,0,0,1,65.313,108.266Z" transform="translate(100.147 15.553)"/>
          <path id="路径_39996" data-name="路径 39996" d="M133.213,186.266a3.106,3.106,0,1,1,2.154-3.828,3.074,3.074,0,0,1-2.154,3.828Z" transform="translate(194.713 124.186)"/>
          <path id="路径_39997" data-name="路径 39997" d="M133.213,186.266a3.106,3.106,0,1,1,2.154-3.828,3.074,3.074,0,0,1-2.154,3.828Z" transform="translate(194.713 124.186)"/>
          <path id="路径_39998" data-name="路径 39998" d="M70.713,200.566a3.106,3.106,0,1,1,2.154-3.828,3.074,3.074,0,0,1-2.154,3.828Z" transform="translate(107.668 144.102)"/>
          <path id="路径_39999" data-name="路径 39999" d="M-2.2,100.855a3.074,3.074,0,0,1-2.367-.272A3.074,3.074,0,0,1-6.027,98.7a3.074,3.074,0,0,1,.272-2.367,3.074,3.074,0,0,1,1.881-1.462,3.074,3.074,0,0,1,2.367.272A3.074,3.074,0,0,1-.045,97.026,3.179,3.179,0,0,1-2.2,100.855Z" transform="translate(6.15 5.259)"/>
          <path id="路径_40000" data-name="路径 40000" d="M70.713,200.566a3.106,3.106,0,1,1,2.154-3.828,3.074,3.074,0,0,1-2.154,3.828Z" transform="translate(107.668 144.102)"/>
          <path id="路径_40001" data-name="路径 40001" d="M70.713,200.566a3.106,3.106,0,1,1,2.154-3.828,3.074,3.074,0,0,1-2.154,3.828Z" transform="translate(107.668 144.102)"/>
          <path id="路径_40002" data-name="路径 40002" d="M117.113,80.766a3.106,3.106,0,1,1,2.154-3.828A3.179,3.179,0,0,1,117.113,80.766Z" transform="translate(172.29 -22.747)"/>
          <path id="路径_40003" data-name="路径 40003" d="M70.713,200.566a3.106,3.106,0,1,1,2.154-3.828,3.074,3.074,0,0,1-2.154,3.828Z" transform="translate(107.668 144.102)"/>
          <path id="路径_40004" data-name="路径 40004" d="M139.013,94.766a3.106,3.106,0,1,1,2.154-3.828A3.524,3.524,0,0,1,139.013,94.766Z" transform="translate(202.791 -3.248)"/>
          <path id="路径_40005" data-name="路径 40005" d="M70.713,200.566a3.106,3.106,0,1,1,2.154-3.828,3.074,3.074,0,0,1-2.154,3.828Z" transform="translate(107.668 144.102)"/>
          <path id="路径_40006" data-name="路径 40006" d="M65.313,108.266a3.106,3.106,0,1,1,2.154-3.828A3.179,3.179,0,0,1,65.313,108.266Z" transform="translate(100.147 15.553)"/>
          <path id="路径_40007" data-name="路径 40007" d="M70.713,200.566a3.106,3.106,0,1,1,2.154-3.828,3.074,3.074,0,0,1-2.154,3.828Z" transform="translate(107.668 144.102)"/>
          <path id="路径_40008" data-name="路径 40008" d="M65.313,108.266a3.106,3.106,0,1,1,2.154-3.828A3.179,3.179,0,0,1,65.313,108.266Z" transform="translate(100.147 15.553)"/>
          <path id="路径_40009" data-name="路径 40009" d="M70.713,200.566a3.106,3.106,0,1,1,2.154-3.828,3.074,3.074,0,0,1-2.154,3.828Z" transform="translate(107.668 144.102)"/>
          <path id="路径_40010" data-name="路径 40010" d="M204.713,59.066a3.106,3.106,0,1,1,2.154-3.828,3.074,3.074,0,0,1-2.154,3.828Z" transform="translate(294.293 -52.969)"/>
          <path id="路径_40011" data-name="路径 40011" d="M117.113,80.766a3.106,3.106,0,1,1,2.154-3.828A3.179,3.179,0,0,1,117.113,80.766Z" transform="translate(172.29 -22.747)"/>
          <path id="路径_40012" data-name="路径 40012" d="M204.713,59.066a3.106,3.106,0,1,1,2.154-3.828,3.074,3.074,0,0,1-2.154,3.828Z" transform="translate(294.293 -52.969)"/>
          <path id="路径_40013" data-name="路径 40013" d="M140.913,64.266a3.106,3.106,0,1,1,2.154-3.828A3.179,3.179,0,0,1,140.913,64.266Z" transform="translate(205.437 -45.727)"/>
          <path id="路径_40014" data-name="路径 40014" d="M204.713,59.066a3.106,3.106,0,1,1,2.154-3.828,3.074,3.074,0,0,1-2.154,3.828Z" transform="translate(294.293 -52.969)"/>
          <path id="路径_40015" data-name="路径 40015" d="M139.013,94.766a3.106,3.106,0,1,1,2.154-3.828A3.524,3.524,0,0,1,139.013,94.766Z" transform="translate(202.791 -3.248)"/>
          <path id="路径_40016" data-name="路径 40016" d="M204.713,59.066a3.106,3.106,0,1,1,2.154-3.828,3.074,3.074,0,0,1-2.154,3.828Z" transform="translate(294.293 -52.969)"/>
          <path id="路径_40017" data-name="路径 40017" d="M133.213,186.266a3.106,3.106,0,1,1,2.154-3.828,3.074,3.074,0,0,1-2.154,3.828Z" transform="translate(194.713 124.186)"/>
          <path id="路径_40018" data-name="路径 40018" d="M203.313,202.466a3.106,3.106,0,1,1,2.154-3.828,3.074,3.074,0,0,1-2.154,3.828Z" transform="translate(292.343 146.748)"/>
          <path id="路径_40019" data-name="路径 40019" d="M139.013,94.766a3.106,3.106,0,1,1,2.154-3.828A3.524,3.524,0,0,1,139.013,94.766Z" transform="translate(202.791 -3.248)"/>
          <path id="路径_40020" data-name="路径 40020" d="M203.313,202.466a3.106,3.106,0,1,1,2.154-3.828,3.074,3.074,0,0,1-2.154,3.828Z" transform="translate(292.343 146.748)"/>
          <path id="路径_40021" data-name="路径 40021" d="M203.313,202.466a3.106,3.106,0,1,1,2.154-3.828,3.074,3.074,0,0,1-2.154,3.828Z" transform="translate(292.343 146.748)"/>
          <path id="路径_40022" data-name="路径 40022" d="M226.913,143.765a3.106,3.106,0,1,1,2.154-3.828,3.074,3.074,0,0,1-2.154,3.828Z" transform="translate(325.211 64.995)"/>
          <path id="路径_40023" data-name="路径 40023" d="M204.713,59.066a3.106,3.106,0,1,1,2.154-3.828,3.074,3.074,0,0,1-2.154,3.828Z" transform="translate(294.293 -52.969)"/>
          <path id="路径_40024" data-name="路径 40024" d="M226.913,143.765a3.106,3.106,0,1,1,2.154-3.828,3.074,3.074,0,0,1-2.154,3.828Z" transform="translate(325.211 64.995)"/>
          <path id="路径_40025" data-name="路径 40025" d="M226.913,143.765a3.106,3.106,0,1,1,2.154-3.828,3.074,3.074,0,0,1-2.154,3.828Z" transform="translate(325.211 64.995)"/>
          <path id="路径_40026" data-name="路径 40026" d="M133.213,186.266a3.106,3.106,0,1,1,2.154-3.828,3.074,3.074,0,0,1-2.154,3.828Z" transform="translate(194.713 124.186)"/>
          <path id="路径_40027" data-name="路径 40027" d="M226.913,143.765a3.106,3.106,0,1,1,2.154-3.828,3.074,3.074,0,0,1-2.154,3.828Z" transform="translate(325.211 64.995)"/>
          <path id="路径_40028" data-name="路径 40028" d="M117.113,80.766a3.106,3.106,0,1,1,2.154-3.828A3.179,3.179,0,0,1,117.113,80.766Z" transform="translate(172.29 -22.747)"/>
          <path id="路径_40029" data-name="路径 40029" d="M226.913,143.765a3.106,3.106,0,1,1,2.154-3.828,3.074,3.074,0,0,1-2.154,3.828Z" transform="translate(325.211 64.995)"/>
          <path id="路径_40030" data-name="路径 40030" d="M140.913,64.266a3.106,3.106,0,1,1,2.154-3.828A3.179,3.179,0,0,1,140.913,64.266Z" transform="translate(205.437 -45.727)"/>
          <path id="路径_40031" data-name="路径 40031" d="M226.913,143.765a3.106,3.106,0,1,1,2.154-3.828,3.074,3.074,0,0,1-2.154,3.828Z" transform="translate(325.211 64.995)"/>
          <path id="路径_40032" data-name="路径 40032" d="M139.013,94.766a3.106,3.106,0,1,1,2.154-3.828A3.524,3.524,0,0,1,139.013,94.766Z" transform="translate(202.791 -3.248)"/>
          <path id="路径_40033" data-name="路径 40033" d="M226.913,143.765a3.106,3.106,0,1,1,2.154-3.828,3.074,3.074,0,0,1-2.154,3.828Z" transform="translate(325.211 64.995)"/>
          <path id="路径_40034" data-name="路径 40034" d="M226.913,143.765a3.106,3.106,0,1,1,2.154-3.828,3.074,3.074,0,0,1-2.154,3.828Z" transform="translate(325.211 64.995)"/>
          <path id="路径_40035" data-name="路径 40035" d="M251.013,207.466a3.106,3.106,0,1,1,2.154-3.828,3.074,3.074,0,0,1-2.154,3.828Z" transform="translate(358.776 153.712)"/>
          <path id="路径_40036" data-name="路径 40036" d="M226.913,143.765a3.106,3.106,0,1,1,2.154-3.828,3.074,3.074,0,0,1-2.154,3.828Z" transform="translate(325.211 64.995)"/>
          <path id="路径_40037" data-name="路径 40037" d="M251.013,207.466a3.106,3.106,0,1,1,2.154-3.828,3.074,3.074,0,0,1-2.154,3.828Z" transform="translate(358.776 153.712)"/>
          <path id="路径_40038" data-name="路径 40038" d="M203.313,202.466a3.106,3.106,0,1,1,2.154-3.828,3.074,3.074,0,0,1-2.154,3.828Z" transform="translate(292.343 146.748)"/>
          <path id="路径_40039" data-name="路径 40039" d="M251.013,207.466a3.106,3.106,0,1,1,2.154-3.828,3.074,3.074,0,0,1-2.154,3.828Z" transform="translate(358.776 153.712)"/>
          <path id="路径_40040" data-name="路径 40040" d="M251.013,207.466a3.106,3.106,0,1,1,2.154-3.828,3.074,3.074,0,0,1-2.154,3.828Z" transform="translate(358.776 153.712)"/>
          <path id="路径_40041" data-name="路径 40041" d="M133.213,186.266a3.106,3.106,0,1,1,2.154-3.828,3.074,3.074,0,0,1-2.154,3.828Z" transform="translate(194.713 124.186)"/>
        </g>
      </g>
    </g>
  </g>
</svg>
