<svg xmlns="http://www.w3.org/2000/svg" xmlns:xlink="http://www.w3.org/1999/xlink" width="691" height="334" viewBox="0 0 691 334">
  <defs>
    <clipPath id="clip-path">
      <rect id="矩形_2723" data-name="矩形 2723" width="691" height="334" transform="translate(-0.227)" fill="#fff"/>
    </clipPath>
  </defs>
  <g id="小屏-banner" transform="translate(-790 631)">
    <g id="首页" transform="translate(1201.153 -572)">
      <g id="组_21510" data-name="组 21510" transform="translate(82.599 0)">
        <path id="路径_37636" data-name="路径 37636" d="M906.861,51.25v5.579H904.25v3.842" transform="translate(-876.344 -47.168)" fill="none" stroke="#0080f4" stroke-miterlimit="10" stroke-width="1.2"/>
        <path id="路径_37637" data-name="路径 37637" d="M891.108,102l-7.441,3.652,2.558,5.082" transform="translate(-859.977 -87.524)" fill="none" stroke="#0080f4" stroke-miterlimit="10" stroke-width="1.2"/>
        <path id="路径_37638" data-name="路径 37638" d="M863.333,126.75l2.867,2.509v13.927" transform="translate(-843.808 -107.205)" fill="none" stroke="#0080f4" stroke-miterlimit="10" stroke-width="1.2"/>
        <path id="路径_37639" data-name="路径 37639" d="M832,154.333l2.8,2.364v8.7" transform="translate(-818.892 -129.139)" fill="none" stroke="#000" stroke-miterlimit="10" stroke-width="1.2"/>
        <path id="路径_37640" data-name="路径 37640" d="M813.333,172l2.765,2.424v5.257" transform="translate(-804.048 -143.187)" fill="none" stroke="#0080f4" stroke-miterlimit="10" stroke-width="1.2"/>
        <path id="路径_37641" data-name="路径 37641" d="M789,185.333l2.56,2.391v2.56" transform="translate(-784.699 -153.79)" fill="none" stroke="#000" stroke-miterlimit="10" stroke-width="1.2"/>
        <g id="组_21509" data-name="组 21509" transform="translate(0 11.404)">
          <path id="路径_37642" data-name="路径 37642" d="M965.873,126.75l-3.123,2.407v14.166" transform="translate(-922.863 -118.609)" fill="none" stroke="#0080f4" stroke-miterlimit="10" stroke-width="1.2"/>
          <path id="路径_37643" data-name="路径 37643" d="M921,87l7.783,5.223L926.53,97.65" transform="translate(-889.664 -87)" fill="none" stroke="#0080f4" stroke-miterlimit="10" stroke-width="1.2"/>
          <path id="路径_37644" data-name="路径 37644" d="M998.942,152l-3.106,2.321v8.944" transform="translate(-949.172 -138.687)" fill="none" stroke="#0c111a" stroke-miterlimit="10" stroke-width="1.2"/>
          <path id="路径_37645" data-name="路径 37645" d="M1017.737,169.833l-2.9,2.355v5.257" transform="translate(-964.28 -152.868)" fill="none" stroke="#0080f4" stroke-miterlimit="10" stroke-width="1.2"/>
          <path id="路径_37646" data-name="路径 37646" d="M1043,183.667l-2.833,2.05v2.935" transform="translate(-984.423 -163.868)" fill="none" stroke="#0c111a" stroke-miterlimit="10" stroke-width="1.2"/>
          <line id="直线_306" data-name="直线 306" x2="60.385" transform="translate(0 24.987)" fill="none" stroke="#0080f4" stroke-miterlimit="10" stroke-width="1.2"/>
        </g>
        <path id="路径_37647" data-name="路径 37647" d="M891,150.167h12.494v12.05" transform="translate(-865.808 -125.826)" fill="none" stroke="#0080f4" stroke-miterlimit="10" stroke-width="1.2"/>
        <path id="路径_37648" data-name="路径 37648" d="M902.111,169H896v8.056" transform="translate(-869.784 -140.802)" fill="none" stroke="#0c111a" stroke-miterlimit="10" stroke-width="1.2"/>
        <path id="路径_37649" data-name="路径 37649" d="M912,182.333h4.54v5.325" transform="translate(-882.507 -151.404)" fill="none" stroke="#0c111a" stroke-miterlimit="10" stroke-width="1.2"/>
        <circle id="椭圆_1659" data-name="椭圆 1659" cx="1.869" cy="1.869" r="1.869" transform="translate(28.648 0)" fill="none" stroke="#0080f4" stroke-miterlimit="10" stroke-width="1.2"/>
      </g>
      <g id="组_21512" data-name="组 21512" transform="translate(157.344 25.1)">
        <path id="路径_37650" data-name="路径 37650" d="M1183.625,182.833l3.618,3.926L1174,198.16" transform="translate(-1165.331 -176.902)" fill="none" stroke="#1a1311" stroke-miterlimit="10" stroke-width="1.2"/>
        <line id="直线_307" data-name="直线 307" x1="8.261" y2="7.339" transform="translate(6.962 11.905)" fill="none" stroke="#1a1311" stroke-miterlimit="10" stroke-width="1.2"/>
        <g id="组_21511" data-name="组 21511" transform="translate(0 0)">
          <path id="路径_37651" data-name="路径 37651" d="M1131.67,242.574l5.154-4.574,18.945,21.915" transform="translate(-1131.67 -220.77)" fill="none" stroke="#1a1311" stroke-miterlimit="10" stroke-width="1.2"/>
          <path id="路径_37652" data-name="路径 37652" d="M1214.433,262.94l-2.936-3.106-7,6.281" transform="translate(-1189.584 -238.132)" fill="none" stroke="#1a1311" stroke-miterlimit="10" stroke-width="1.2"/>
          <path id="路径_37653" data-name="路径 37653" d="M1233.12,233l2.05,7.988-10,8.875" transform="translate(-1206.019 -216.794)" fill="none" stroke="#1a1311" stroke-miterlimit="10" stroke-width="1.2"/>
          <path id="路径_37654" data-name="路径 37654" d="M1245.17,299.7,1248,297l4.2,4.95" transform="translate(-1221.924 -267.686)" fill="none" stroke="#1a1311" stroke-miterlimit="10" stroke-width="1.2"/>
          <path id="路径_37655" data-name="路径 37655" d="M1243,316.167l3.619,3.72.921,8.227-4.23,3.32,6.449,8.866" transform="translate(-1220.199 -282.928)" fill="none" stroke="#1a1311" stroke-miterlimit="10" stroke-width="1.2"/>
          <path id="路径_37656" data-name="路径 37656" d="M1262.858,385.167l-.137,3.243-2.391,1.946" transform="translate(-1233.98 -337.796)" fill="none" stroke="#1a1311" stroke-miterlimit="10" stroke-width="1.2"/>
          <path id="路径_37657" data-name="路径 37657" d="M1272.173,397l-.05,3.343L1269,402.325" transform="translate(-1240.874 -347.205)" fill="none" stroke="#1a1311" stroke-miterlimit="10" stroke-width="1.2"/>
          <path id="路径_37658" data-name="路径 37658" d="M1422.435,169.333l-3.96,3.175,1.127,2.185-1.391.637" transform="translate(-1359.525 -166.167)" fill="none" stroke="#000" stroke-miterlimit="10" stroke-width="1.2"/>
          <path id="路径_37659" data-name="路径 37659" d="M1367.016,183.971c-.1.108-1.434,1.262-1.434,1.262l1.093,2.225-4.028,3.378-3.928-2.831L1355,190.736l.956,3.277" transform="translate(-1309.26 -177.807)" fill="none" stroke="#000" stroke-miterlimit="10" stroke-width="1.2"/>
          <path id="路径_37660" data-name="路径 37660" d="M1370.491,215.333l4.779,3-.683,2.321-2.56,2.185-2.526-2.867" transform="translate(-1320.791 -202.746)" fill="none" stroke="#000" stroke-miterlimit="10" stroke-width="1.2"/>
          <line id="直线_308" data-name="直线 308" x2="3.685" y2="2.185" transform="translate(48.198 14.499)" fill="none" stroke="#000" stroke-miterlimit="10" stroke-width="1.2"/>
          <path id="路径_37661" data-name="路径 37661" d="M1294.639,237.894l-2.936-2.56L1276,248.988" transform="translate(-1246.44 -218.65)" fill="none" stroke="#000" stroke-miterlimit="10" stroke-width="1.2"/>
          <path id="路径_37662" data-name="路径 37662" d="M1285.56,257.667l-12.493,10.923,1.126,6.283-4.715.168" transform="translate(-1241.254 -236.409)" fill="none" stroke="#000" stroke-miterlimit="10" stroke-width="1.2"/>
          <circle id="椭圆_1660" data-name="椭圆 1660" cx="1.869" cy="1.869" r="1.869" transform="translate(62.714)" fill="none" stroke="#000" stroke-miterlimit="10" stroke-width="1.2"/>
        </g>
      </g>
      <g id="组_21513" data-name="组 21513" transform="translate(177.959 97.926)">
        <path id="路径_37664" data-name="路径 37664" d="M1252.125,614.233,1237.653,610l-5.326,18.634,10.276,2.6.785-3.174-1.433-6.827" transform="translate(-1232.327 -589.417)" fill="none" stroke="#000" stroke-miterlimit="10" stroke-width="1.2"/>
        <path id="路径_37665" data-name="路径 37665" d="M1253.67,624.185l18.911,5.393,2.082-7.578" transform="translate(-1249.298 -598.959)" fill="none" stroke="#ef54a1" stroke-miterlimit="10" stroke-width="1.2"/>
        <path id="路径_37666" data-name="路径 37666" d="M1249.67,645.833l8.841,2.492,1.383,6.759" transform="translate(-1246.118 -617.911)" fill="none" stroke="#000" stroke-miterlimit="10" stroke-width="1.2"/>
        <path id="路径_37667" data-name="路径 37667" d="M1241,663.948l3.414.887-.486-4.335" transform="translate(-1239.224 -629.573)" fill="none" stroke="#000" stroke-miterlimit="10" stroke-width="1.2"/>
        <path id="路径_37672" data-name="路径 37672" d="M1282.5,509.5l5.12,1.57-.887,2.833" transform="translate(-1272.224 -509.5)" fill="none" stroke="#000" stroke-miterlimit="10" stroke-width="1.2"/>
        <path id="路径_37673" data-name="路径 37673" d="M1279.33,522.333l8.3,2.97-.785,1.878" transform="translate(-1269.704 -519.705)" fill="none" stroke="#000" stroke-miterlimit="10" stroke-width="1.2"/>
        <g id="组_21986" data-name="组 21986" transform="translate(7.376 7.476)">
          <path id="路径_37663" data-name="路径 37663" d="M1403.83,588l2.355,3.311,4.744-.922,5.8,1.741" transform="translate(-1376.081 -579.398)" fill="none" stroke="#ef54a1" stroke-miterlimit="10" stroke-width="1.2"/>
          <path id="路径_37668" data-name="路径 37668" d="M1284.726,564.167l-1.981,6.009-4.916-1.945" transform="translate(-1275.886 -560.446)" fill="none" stroke="#ef54a1" stroke-miterlimit="10" stroke-width="1.2"/>
          <path id="路径_37669" data-name="路径 37669" d="M1328.791,566.667l-2.287,7.851,8.943,2.253,3.755,3.994" transform="translate(-1314.59 -562.434)" fill="none" stroke="#ef54a1" stroke-miterlimit="10" stroke-width="1.2"/>
          <path id="路径_37670" data-name="路径 37670" d="M1331.67,591.5l9.285,1.963,4.335,5.205" transform="translate(-1318.698 -582.181)" fill="none" stroke="#ef54a1" stroke-miterlimit="10" stroke-width="1.2"/>
          <path id="路径_37671" data-name="路径 37671" d="M1336.67,576l11.23,2.458,3.277,6.144" transform="translate(-1322.674 -569.856)" fill="none" stroke="#ef54a1" stroke-miterlimit="10" stroke-width="1.2"/>
          <line id="直线_309" data-name="直线 309" x2="5.12" y2="1.331" transform="translate(28.297 13.415)" fill="none" stroke="#ef54a1" stroke-miterlimit="10" stroke-width="1.2"/>
          <path id="路径_37674" data-name="路径 37674" d="M1290.67,546l7.2,2.185-3.6,10.548" transform="translate(-1286.096 -546)" fill="none" stroke="#ef54a1" stroke-miterlimit="10" stroke-width="1.2"/>
          <line id="直线_310" data-name="直线 310" x1="1.229" y2="3.652" transform="translate(4.402 2.185)" fill="none" stroke="#ef54a1" stroke-miterlimit="10" stroke-width="1.2"/>
          <path id="路径_37675" data-name="路径 37675" d="M1271.408,547l-3.072,9.147,6.076,2.014" transform="translate(-1268.336 -546.795)" fill="none" stroke="#ef54a1" stroke-miterlimit="10" stroke-width="1.2"/>
          <circle id="椭圆_1661" data-name="椭圆 1661" cx="1.869" cy="1.869" r="1.869" transform="translate(40.449 11.469)" fill="none" stroke="#ef54a1" stroke-miterlimit="10" stroke-width="1.2"/>
        </g>
      </g>
      <g id="组_21514" data-name="组 21514" transform="translate(142.152 150.133)">
        <path id="路径_37676" data-name="路径 37676" d="M1092,849l9.524,11.333,8.551-4.937" transform="translate(-1085.067 -831.68)" fill="none" stroke="#000" stroke-miterlimit="10" stroke-width="1.2"/>
        <path id="路径_37677" data-name="路径 37677" d="M1058.15,856.617l12.668,14.62,13.673-8.73,2.1,4.02" transform="translate(-1058.15 -837.737)" fill="none" stroke="#000" stroke-miterlimit="10" stroke-width="1.2"/>
        <line id="直线_311" data-name="直线 311" y1="3.55" x2="8.875" transform="translate(17.754 29.199)" fill="none" stroke="#000" stroke-miterlimit="10" stroke-width="1.2"/>
        <line id="直线_312" data-name="直线 312" x2="7.216" y2="10.697" transform="translate(25.865)" fill="none" stroke="#000" stroke-miterlimit="10" stroke-width="1.2"/>
        <path id="路径_37678" data-name="路径 37678" d="M1176,770l10.036,15.566,2.594-1.4" transform="translate(-1151.863 -768.86)" fill="none" stroke="#000" stroke-miterlimit="10" stroke-width="1.2"/>
        <path id="路径_37679" data-name="路径 37679" d="M1167,775.5l11.265,16.9,3-1.454" transform="translate(-1144.706 -773.234)" fill="none" stroke="#000" stroke-miterlimit="10" stroke-width="1.2"/>
        <path id="路径_37680" data-name="路径 37680" d="M1135.406,785.4l11.041,23.1v3.755l-14.781,4.608" transform="translate(-1116.609 -781.107)" fill="none" stroke="#000" stroke-miterlimit="10" stroke-width="1.2"/>
        <path id="路径_37681" data-name="路径 37681" d="M1099.62,820.1l8.134-5.936,5.666,13.791" transform="translate(-1091.126 -803.982)" fill="none" stroke="#000" stroke-miterlimit="10" stroke-width="1.2"/>
        <path id="路径_37682" data-name="路径 37682" d="M1113.268,833.833l-5.6,3.378s6.71,8.075,6.718,8.073,3.18-2,3.18-2" transform="translate(-1097.527 -819.62)" fill="none" stroke="#000" stroke-miterlimit="10" stroke-width="1.2"/>
        <path id="路径_37683" data-name="路径 37683" d="M1126.89,842l-3.89,2.05,3.448,4.4,2.867-1.229" transform="translate(-1109.718 -826.114)" fill="none" stroke="#000" stroke-miterlimit="10" stroke-width="1.2"/>
        <circle id="椭圆_1662" data-name="椭圆 1662" cx="1.869" cy="1.869" r="1.869" transform="translate(11.208 34.703)" fill="none" stroke="#000" stroke-miterlimit="10" stroke-width="1.2"/>
      </g>
      <g id="组_21515" data-name="组 21515" transform="translate(78.046 169.124)">
        <path id="路径_37686" data-name="路径 37686" d="M762.317,872.936l1.98-13.177-12.487-1.945-4.17-.649L746,866.689l3.414.2,5.8-2.185" transform="translate(-746 -857.165)" fill="none" stroke="#0c111a" stroke-miterlimit="10" stroke-width="1.2"/>
        <path id="路径_37687" data-name="路径 37687" d="M772.012,862.333l-.512,3.209,3.789-1.025" transform="translate(-766.277 -861.274)" fill="none" stroke="#000" stroke-miterlimit="10" stroke-width="1.2"/>
        <path id="路径_37688" data-name="路径 37688" d="M778.151,867.167l-1.263,8.09s-5.5,1.945-5.393,1.911" transform="translate(-766.272 -865.118)" fill="none" stroke="#0080f4" stroke-miterlimit="10" stroke-width="1.2"/>
        <path id="路径_37689" data-name="路径 37689" d="M805.323,869s-2.935,17.17-2.833,17.2,6.724,1.263,6.724,1.263" transform="translate(-790.918 -866.576)" fill="none" stroke="#0080f4" stroke-miterlimit="10" stroke-width="1.2"/>
        <g id="组_21987" data-name="组 21987" transform="translate(16.948 4.097)">
          <path id="路径_37684" data-name="路径 37684" d="M859.1,881.833l-5.2,33.316-6.058-.853" transform="translate(-843.928 -880.877)" fill="none" stroke="#0080f4" stroke-miterlimit="10" stroke-width="1.2"/>
          <path id="路径_37685" data-name="路径 37685" d="M857.4,879l-4.712,29.971-2.7-.342" transform="translate(-845.645 -878.624)" fill="none" stroke="#0080f4" stroke-miterlimit="10" stroke-width="1.2"/>
          <line id="直线_313" data-name="直线 313" x1="3.345" y2="21.266" transform="translate(5.581)" fill="none" stroke="#0080f4" stroke-miterlimit="10" stroke-width="1.2"/>
          <circle id="椭圆_1663" data-name="椭圆 1663" cx="1.869" cy="1.869" r="1.869" transform="translate(0 31.22)" fill="none" stroke="#0080f4" stroke-miterlimit="10" stroke-width="1.2"/>
        </g>
      </g>
      <g id="组_21517" data-name="组 21517" transform="translate(12.938 107.102)">
        <line id="直线_314" data-name="直线 314" x1="3.004" y2="1.673" transform="translate(39.784 43.971)" fill="none" stroke="#000" stroke-miterlimit="10" stroke-width="1.2"/>
        <g id="组_21516" data-name="组 21516" transform="translate(0)">
          <line id="直线_315" data-name="直线 315" x1="12.284" y2="19.599" transform="translate(11.69)" fill="none" stroke="#000" stroke-miterlimit="10" stroke-width="1.2"/>
          <line id="直线_316" data-name="直线 316" x2="18.604" y2="38.197" transform="translate(22.306 10.587)" fill="none" stroke="#000" stroke-miterlimit="10" stroke-width="1.2"/>
          <line id="直线_317" data-name="直线 317" x1="4.267" y2="2.014" transform="translate(23.774 11.133)" fill="none" stroke="#000" stroke-miterlimit="10" stroke-width="1.2"/>
          <path id="路径_37690" data-name="路径 37690" d="M478.034,624.333l-15.054,7.135L461,635.53" transform="translate(-454.464 -609.991)" fill="none" stroke="#000" stroke-miterlimit="10" stroke-width="1.2"/>
          <path id="路径_37691" data-name="路径 37691" d="M489.1,633.167l-13.518,6.111-1.911,3.277" transform="translate(-464.537 -617.016)" fill="none" stroke="#000" stroke-miterlimit="10" stroke-width="1.2"/>
          <path id="路径_37692" data-name="路径 37692" d="M470.218,648.667l-15.975,7.646-6.076-.853" transform="translate(-444.259 -629.341)" fill="none" stroke="#000" stroke-miterlimit="10" stroke-width="1.2"/>
          <line id="直线_318" data-name="直线 318" x2="9.524" y2="20.276" transform="translate(14.046 25.368)" fill="none" stroke="#000" stroke-miterlimit="10" stroke-width="1.2"/>
          <line id="直线_319" data-name="直线 319" x1="4.813" y2="2.321" transform="translate(11.554 31.136)" fill="none" stroke="#000" stroke-miterlimit="10" stroke-width="1.2"/>
          <line id="直线_320" data-name="直线 320" x1="4.95" y2="2.219" transform="translate(15.752 40.285)" fill="none" stroke="#000" stroke-miterlimit="10" stroke-width="1.2"/>
          <path id="路径_37693" data-name="路径 37693" d="M528.9,749l-17.269,7.646L509,761.927" transform="translate(-492.633 -709.125)" fill="none" stroke="#000" stroke-miterlimit="10" stroke-width="1.2"/>
          <path id="路径_37694" data-name="路径 37694" d="M544.614,763.5l-14.1,6.725L527,769.713" transform="translate(-506.946 -720.655)" fill="none" stroke="#000" stroke-miterlimit="10" stroke-width="1.2"/>
          <path id="路径_37695" data-name="路径 37695" d="M540.068,773.083l-15.634,7.322-4.267-.99" transform="translate(-501.513 -728.275)" fill="none" stroke="#000" stroke-miterlimit="10" stroke-width="1.2"/>
          <line id="直线_321" data-name="直线 321" x1="22.994" y1="2.174" transform="translate(26.3 50.628)" fill="none" stroke="#000" stroke-miterlimit="10" stroke-width="1.2"/>
          <path id="路径_37696" data-name="路径 37696" d="M560.833,647.536,564.144,646l1.638,9.285,6.759,9.489L569.674,666" transform="translate(-533.85 -627.22)" fill="none" stroke="#000" stroke-miterlimit="10" stroke-width="1.2"/>
          <circle id="椭圆_1664" data-name="椭圆 1664" cx="1.869" cy="1.869" r="1.869" transform="translate(13.371 52.579)" fill="none" stroke="#000" stroke-miterlimit="10" stroke-width="1.2"/>
          <circle id="椭圆_1665" data-name="椭圆 1665" cx="1.869" cy="1.869" r="1.869" transform="translate(0 23.848)" fill="none" stroke="#000" stroke-miterlimit="10" stroke-width="1.2"/>
        </g>
      </g>
      <g id="组_21519" data-name="组 21519" transform="translate(0 43.878)">
        <path id="路径_37697" data-name="路径 37697" d="M604.65,346l-6.144.375L594,356.036" transform="translate(-547.286 -325.434)" fill="none" stroke="#ef54a1" stroke-miterlimit="10" stroke-width="1.2"/>
        <path id="路径_37698" data-name="路径 37698" d="M627.416,270.841l-12-6.008,1.314,5.359" transform="translate(-564.317 -260.891)" fill="none" stroke="#000" stroke-miterlimit="10" stroke-width="1.2"/>
        <path id="路径_37699" data-name="路径 37699" d="M644.156,263.1l-8.227-4.1-1.263,2.936" transform="translate(-579.623 -256.252)" fill="none" stroke="#000" stroke-miterlimit="10" stroke-width="1.2"/>
        <g id="组_21518" data-name="组 21518" transform="translate(0 0)">
          <path id="路径_37700" data-name="路径 37700" d="M531.805,468.953l-8.022-3.994L523,461" transform="translate(-490.827 -416.88)" fill="none" stroke="#0c111a" stroke-miterlimit="10" stroke-width="1.2"/>
          <path id="路径_37701" data-name="路径 37701" d="M544,468.069,536,464l.342,3" transform="translate(-501.165 -419.266)" fill="none" stroke="#0c111a" stroke-miterlimit="10" stroke-width="1.2"/>
          <path id="路径_37702" data-name="路径 37702" d="M520.434,417.337l-15.6-8.4,1.639-3.789,2.97,1.3L511.422,403" transform="translate(-476.383 -370.759)" fill="none" stroke="#0c111a" stroke-miterlimit="10" stroke-width="1.2"/>
          <path id="路径_37703" data-name="路径 37703" d="M531.333,414.5l2.695-5.5,7.749,4.1" transform="translate(-497.454 -375.53)" fill="none" stroke="#0c111a" stroke-miterlimit="10" stroke-width="1.2"/>
          <path id="路径_37704" data-name="路径 37704" d="M568.294,347.911l-6.459-12.221L568.9,322" transform="translate(-521.708 -306.349)" fill="none" stroke="#0c111a" stroke-miterlimit="10" stroke-width="1.2"/>
          <path id="路径_37705" data-name="路径 37705" d="M574,306.481l5.939-11.572,10.582-1.536.444-1.058L577.687,286l-1.809,2.9" transform="translate(-531.382 -277.722)" fill="none" stroke="#0c111a" stroke-miterlimit="10" stroke-width="1.2"/>
          <path id="路径_37706" data-name="路径 37706" d="M581.325,275.108l-3.857-1.775L576,276.711" transform="translate(-532.972 -267.65)" fill="none" stroke="#0080f4" stroke-miterlimit="10" stroke-width="1.2"/>
          <path id="路径_37707" data-name="路径 37707" d="M585.662,344l-5.5,10.036,4.676,7.1" transform="translate(-536.285 -323.843)" fill="none" stroke="#ef54a1" stroke-miterlimit="10" stroke-width="1.2"/>
          <path id="路径_37708" data-name="路径 37708" d="M525.5,327.52l3.277-6.52,8.534,1.638" transform="translate(-492.815 -305.554)" fill="none" stroke="#ef54a1" stroke-miterlimit="10" stroke-width="1.2"/>
          <line id="直线_322" data-name="直线 322" x1="7.203" y2="14.337" transform="translate(37.873 15.651)" fill="none" stroke="#ef54a1" stroke-miterlimit="10" stroke-width="1.2"/>
          <path id="路径_37709" data-name="路径 37709" d="M536.711,339.753,532,334.735,534.9,329" transform="translate(-497.984 -311.915)" fill="none" stroke="#ef54a1" stroke-miterlimit="10" stroke-width="1.2"/>
          <path id="路径_37710" data-name="路径 37710" d="M441.349,290.339l-2.765,5.7-6.452-5.257-5.564-3.14L418,283" transform="translate(-407.333 -275.337)" fill="none" stroke="#ef54a1" stroke-miterlimit="10" stroke-width="1.2"/>
          <path id="路径_37711" data-name="路径 37711" d="M422.667,276.5l9.524,4.881,4.881,1.98,8.329,2.253" transform="translate(-411.044 -270.168)" fill="none" stroke="#ef54a1" stroke-miterlimit="10" stroke-width="1.2"/>
          <path id="路径_37712" data-name="路径 37712" d="M387.912,262.782l.922-1.092,2.424.819v.717l-1.468,2.151-3.55-1.843.353-1.841-3.425-1.628" transform="translate(-379.634 -257.098)" fill="none" stroke="#ef54a1" stroke-miterlimit="10" stroke-width="1.2"/>
          <circle id="椭圆_1666" data-name="椭圆 1666" cx="1.869" cy="1.869" r="1.869" fill="none" stroke="#ef54a1" stroke-miterlimit="10" stroke-width="1.2"/>
        </g>
      </g>
      <g id="组_21523" data-name="组 21523" transform="translate(51.062 42.645)">
        <g id="组_21522" data-name="组 21522" transform="translate(0 0.769)">
          <path id="路径_37713" data-name="路径 37713" d="M678.192,281.167l-4.54,16.317L655.833,305.1" transform="translate(-647.265 -273.418)" fill="none" stroke="#000" stroke-miterlimit="10" stroke-width="1.2"/>
          <line id="直线_323" data-name="直线 323" y1="5.394" x2="1.058" transform="translate(35.228 5.393)" fill="none" stroke="#000" stroke-miterlimit="10" stroke-width="1.2"/>
          <path id="路径_37714" data-name="路径 37714" d="M772,287.772l1.058-7,5.769-4.95,30.2-4.6" transform="translate(-739.64 -265.516)" fill="none" stroke="#000" stroke-miterlimit="10" stroke-width="1.2"/>
          <path id="路径_37715" data-name="路径 37715" d="M825.179,292l1.639,5.359-5.359,4.386L792,305.142" transform="translate(-755.544 -282.032)" fill="none" stroke="#000" stroke-miterlimit="10" stroke-width="1.2"/>
          <line id="直线_324" data-name="直线 324" x1="4.753" y1="10.859" transform="translate(69.389 2.181)" fill="none" stroke="#000" stroke-miterlimit="10" stroke-width="1.2"/>
          <path id="路径_37716" data-name="路径 37716" d="M759.465,797.578l-13.2-1.925L735,787" transform="translate(-710.218 -675.651)" fill="none" stroke="#000" stroke-miterlimit="10" stroke-width="1.2"/>
          <path id="路径_37717" data-name="路径 37717" d="M692.095,621.9l-8.449-9.781L654,609" transform="translate(-645.807 -534.107)" fill="none" stroke="#000" stroke-miterlimit="10" stroke-width="1.2"/>
          <line id="直线_325" data-name="直线 325" x2="29.997" y2="8.941" transform="translate(5.853 88.968)" fill="none" stroke="#000" stroke-miterlimit="10" stroke-width="1.2"/>
          <g id="组_21521" data-name="组 21521" transform="translate(15.207)">
            <g id="组_21520" data-name="组 21520" transform="translate(57.194)">
              <path id="路径_37718" data-name="路径 37718" d="M982.674,245.833l-9.951-2.5,9.951,13.04-15.174,14.1,8.977,7.885" transform="translate(-967.5 -243.333)" fill="none" stroke="#0c111a" stroke-miterlimit="10" stroke-width="1.2"/>
              <path id="路径_37719" data-name="路径 37719" d="M1065.724,273.666l-5.769,2.116L1052,267.727l2.475-.586,3.874,1.439" transform="translate(-1034.693 -262.265)" fill="none" stroke="#0c111a" stroke-miterlimit="10" stroke-width="1.2"/>
              <path id="路径_37720" data-name="路径 37720" d="M1124.9,339l-2.232,1.977-5.892-3.309-4.781,3.55,1.433,6.964" transform="translate(-1082.405 -318.346)" fill="none" stroke="#0c111a" stroke-miterlimit="10" stroke-width="1.2"/>
            </g>
            <path id="路径_37721" data-name="路径 37721" d="M1051.915,350l2.116,14.951L1047,371.71" transform="translate(-973.524 -328.153)" fill="none" stroke="#000" stroke-miterlimit="10" stroke-width="1.2"/>
            <path id="路径_37722" data-name="路径 37722" d="M1083.7,393l-27.24,26.062-2.456,13.3" transform="translate(-979.09 -362.346)" fill="none" stroke="#000" stroke-miterlimit="10" stroke-width="1.2"/>
            <line id="直线_326" data-name="直线 326" y1="24.85" x2="2.765" transform="translate(106.656 51.476)" fill="none" stroke="#000" stroke-miterlimit="10" stroke-width="1.2"/>
            <path id="路径_37723" data-name="路径 37723" d="M1107.335,412.735,1102.42,407l-3.892,4.1L1099.7,429.9,1076,453.492" transform="translate(-996.584 -373.479)" fill="none" stroke="#0c111a" stroke-miterlimit="10" stroke-width="1.2"/>
            <path id="路径_37724" data-name="路径 37724" d="M1115.48,584l-1.025,6.554L1095,608.782" transform="translate(-1011.693 -514.228)" fill="none" stroke="#000" stroke-miterlimit="10" stroke-width="1.2"/>
            <line id="直线_327" data-name="直线 327" x1="16.18" y2="14.439" transform="translate(89.042 85.441)" fill="none" stroke="#000" stroke-miterlimit="10" stroke-width="1.2"/>
            <path id="路径_37725" data-name="路径 37725" d="M1036.809,765.078l-.563-9.012,21.862-2.816" transform="translate(-964.973 -648.813)" fill="none" stroke="#000" stroke-miterlimit="10" stroke-width="1.2"/>
            <path id="路径_37726" data-name="路径 37726" d="M914.294,783.994l22.162-10.1-.38-6.338" transform="translate(-867.997 -660.186)" fill="none" stroke="#000" stroke-miterlimit="10" stroke-width="1.2"/>
            <path id="路径_37727" data-name="路径 37727" d="M889.107,733l-33.18.41L842,744.265" transform="translate(-810.51 -632.711)" fill="none" stroke="#000" stroke-miterlimit="10" stroke-width="1.2"/>
            <path id="路径_37728" data-name="路径 37728" d="M905,776.712l7.729-2.877L909.251,762" transform="translate(-860.607 -655.771)" fill="none" stroke="#000" stroke-miterlimit="10" stroke-width="1.2"/>
            <path id="路径_37729" data-name="路径 37729" d="M757.425,699.25l-35.842.152-15.668,13.835-17.665-7.689" transform="translate(-688.25 -605.873)" fill="none" stroke="#0c111a" stroke-miterlimit="10" stroke-width="1.2"/>
          </g>
          <line id="直线_328" data-name="直线 328" x2="25.394" y2="0.61" transform="translate(5.532 61.38)" fill="none" stroke="#000" stroke-miterlimit="10" stroke-width="1.2"/>
          <path id="路径_37730" data-name="路径 37730" d="M619,536.818l1.229-11.06L623.916,519" transform="translate(-617.976 -462.54)" fill="none" stroke="#000" stroke-miterlimit="10" stroke-width="1.2"/>
          <path id="路径_37731" data-name="路径 37731" d="M614,432.288,618.3,420l28.469-2.663L657.01,403" transform="translate(-614 -370.298)" fill="none" stroke="#0c111a" stroke-miterlimit="10" stroke-width="1.2"/>
          <line id="直线_329" data-name="直线 329" y1="9.387" x2="29.288" transform="translate(5.735 30.039)" fill="none" stroke="#000" stroke-miterlimit="10" stroke-width="1.2"/>
        </g>
        <circle id="椭圆_1667" data-name="椭圆 1667" cx="1.508" cy="1.508" r="1.508" transform="translate(5.558 31.473)" fill="none" stroke="#000" stroke-miterlimit="10" stroke-width="1.2"/>
        <circle id="椭圆_1668" data-name="椭圆 1668" cx="1.508" cy="1.508" r="1.508" transform="translate(35.228 2.95)" fill="none" stroke="#000" stroke-miterlimit="10" stroke-width="1.2"/>
        <circle id="椭圆_1669" data-name="椭圆 1669" cx="1.508" cy="1.508" r="1.508" transform="translate(67.264 0)" fill="none" stroke="#000" stroke-miterlimit="10" stroke-width="1.2"/>
        <circle id="椭圆_1670" data-name="椭圆 1670" cx="1.508" cy="1.508" r="1.508" transform="translate(96.057 6.157)" fill="none" stroke="#000" stroke-miterlimit="10" stroke-width="1.2"/>
        <circle id="椭圆_1671" data-name="椭圆 1671" cx="1.508" cy="1.508" r="1.508" transform="translate(102.354 30.734)" fill="none" stroke="#000" stroke-miterlimit="10" stroke-width="1.2"/>
        <circle id="椭圆_1672" data-name="椭圆 1672" cx="1.508" cy="1.508" r="1.508" transform="translate(123.408 49.167)" fill="none" stroke="#000" stroke-miterlimit="10" stroke-width="1.2"/>
        <circle id="椭圆_1673" data-name="椭圆 1673" cx="1.508" cy="1.508" r="1.508" transform="translate(108.47 103.368)" fill="none" stroke="#000" stroke-miterlimit="10" stroke-width="1.2"/>
        <circle id="椭圆_1674" data-name="椭圆 1674" cx="1.508" cy="1.508" r="1.508" transform="translate(61.779 103.983)" fill="none" stroke="#000" stroke-miterlimit="10" stroke-width="1.2"/>
        <circle id="椭圆_1675" data-name="椭圆 1675" cx="1.508" cy="1.508" r="1.508" transform="translate(12.262 98.125)" fill="none" stroke="#0c111a" stroke-miterlimit="10" stroke-width="1.2"/>
      </g>
      <g id="组_21524" data-name="组 21524" transform="translate(83.109 72.885)">
        <path id="路径_37732" data-name="路径 37732" d="M813.108,423.541a59.539,59.539,0,0,0,4.167,11.535,35.478,35.478,0,0,0,6.776,9.847c2.572,2.493,5.46,4.057,8.509,4.057,4.8,0,9.1-2.385,12.566-4.693,1.732-1.154,3.259-2.3,4.5-3.135a7.481,7.481,0,0,1,2.588-1.294,10.462,10.462,0,0,1,3.487.987c1.347.573,2.754,1.269,3.969,1.754a.738.738,0,0,0,.965-.636,9.064,9.064,0,0,0-5.811-8.553,10.754,10.754,0,0,0-8.772.5c1.594-3.411,3.392-7.09,4.956-10.811,1.855-4.417,3.312-8.654,3.312-12.018,0-14.385-10.794-23.86-21.053-23.86-11.567,0-21.732,8.76-21.755,22.413v.043a41.245,41.245,0,0,0,.175,5.637l.152,1.4c.211,1.718.49,3.469.878,5.219Z" transform="translate(-803.084 -387.225)" fill="none" stroke="#1a1311" stroke-miterlimit="10" stroke-width="1.2"/>
        <path id="路径_37733" data-name="路径 37733" d="M780.127,531.009c-1.9-.266-3.711.534-5.352,1.206a6.881,6.881,0,0,1-2.215.636c-1-.617-.769-1.887-.329-2.719a7.61,7.61,0,0,1,1.776-2.084,12.107,12.107,0,0,1,5.242-2.259l-.152-1.4a10.828,10.828,0,0,0-5.987,2.587,8.836,8.836,0,0,0-2.105,2.478c-.859,1.91-.792,4.2,1.491,4.8a6.888,6.888,0,0,0,2.829-.746c1.619-.6,3.639-1.676,5.2-.9Z" transform="translate(-770.497 -496.294)" fill="#070203"/>
        <path id="路径_37734" data-name="路径 37734" d="M910.539,449.148a.74.74,0,0,1-1.1.569,7.346,7.346,0,0,0-3.816-.921,7.432,7.432,0,0,0-3.838.921.739.739,0,0,1-1.075-.569,23.2,23.2,0,0,1,.811-6.711c.607-1.877,1.808-3.609,4.1-3.816,1.875.036,3.131,2.033,3.816,3.8a20.681,20.681,0,0,1,1.1,6.733" transform="translate(-874.045 -428.095)" fill="#070203"/>
        <path id="路径_37735" data-name="路径 37735" d="M836.685,449.718a.74.74,0,0,1-1.075-.569,23.214,23.214,0,0,1,.811-6.711c.607-1.877,1.808-3.609,4.1-3.816,1.875.036,3.131,2.033,3.816,3.8a20.694,20.694,0,0,1,1.1,6.733.74.74,0,0,1-1.1.569,7.349,7.349,0,0,0-3.816-.921A7.426,7.426,0,0,0,836.685,449.718Z" transform="translate(-822.275 -428.095)" fill="#070203"/>
        <path id="路径_37736" data-name="路径 37736" d="M877.552,527.077a10.563,10.563,0,0,0-11.448-.9,12.736,12.736,0,0,0-3.882,2.872c-.911,1.063-1.737,2.593-.175,3.4a7.41,7.41,0,0,0,2.479-.132c2.326-.389,4.7-.791,6.886.68l-.877,1.1c-1.5-1.157-3.849-.687-5.769-.394a7.886,7.886,0,0,1-3.048.131c-3.059-.8-1.9-4.061-.548-5.7a13.978,13.978,0,0,1,4.32-3.2,12.366,12.366,0,0,1,12.917,1.031Z" transform="translate(-841.498 -495.649)" fill="#070203"/>
      </g>
    </g>
    <g id="NAV_bg" transform="translate(790.227 -631)" clip-path="url(#clip-path)">
      <g id="组_22050" data-name="组 22050" transform="translate(-18.977 10.255)" opacity="0.05">
        <g id="组_22048" data-name="组 22048" transform="translate(0 2.874)">
          <g id="组_21990" data-name="组 21990" transform="translate(188.257 85.27)">
            <g id="组_21988" data-name="组 21988" transform="translate(0 0)">
              <rect id="矩形_2697" data-name="矩形 2697" width="179.215" height="0.718" transform="translate(0 32.151) rotate(-10.335)"/>
            </g>
            <g id="组_21989" data-name="组 21989" transform="translate(0 0)">
              <rect id="矩形_2698" data-name="矩形 2698" width="179.215" height="0.718" transform="translate(0 32.151) rotate(-10.335)"/>
            </g>
          </g>
          <g id="组_21994" data-name="组 21994" transform="translate(188.307 12.316)">
            <g id="组_21991" data-name="组 21991" transform="translate(176.146 0.139)">
              <rect id="矩形_2699" data-name="矩形 2699" width="73.217" height="0.479" transform="translate(0 73.071) rotate(-86.388)"/>
            </g>
            <g id="组_21992" data-name="组 21992">
              <path id="路径_39936" data-name="路径 39936" d="M62.839,165.058l-.239-.479L243.251,59.3l.479.479Z" transform="translate(-62.6 -59.3)"/>
            </g>
            <g id="组_21993" data-name="组 21993">
              <path id="路径_39937" data-name="路径 39937" d="M62.839,165.058l-.239-.479L243.251,59.3l.479.479Z" transform="translate(-62.6 -59.3)"/>
            </g>
          </g>
          <g id="组_21999" data-name="组 21999" transform="translate(188.193 12.261)">
            <g id="组_21995" data-name="组 21995" transform="translate(124.022 0)">
              <rect id="矩形_2700" data-name="矩形 2700" width="69.15" height="0.479" transform="translate(0 39.478) rotate(-34.814)"/>
            </g>
            <g id="组_21996" data-name="组 21996" transform="translate(124.176 39.639)">
              <rect id="矩形_2701" data-name="矩形 2701" width="0.479" height="61.971" transform="matrix(0.54, -0.841, 0.841, 0.54, 0, 0.403)"/>
            </g>
            <g id="组_21997" data-name="组 21997" transform="translate(0 39.44)">
              <rect id="矩形_2702" data-name="矩形 2702" width="140.453" height="0.479" transform="translate(0 65.871) rotate(-27.969)"/>
            </g>
            <g id="组_21998" data-name="组 21998" transform="translate(0 39.44)">
              <rect id="矩形_2703" data-name="矩形 2703" width="140.453" height="0.479" transform="translate(0 65.871) rotate(-27.969)"/>
            </g>
          </g>
          <g id="组_22002" data-name="组 22002" transform="translate(0 117.596)">
            <g id="组_22000" data-name="组 22000" transform="translate(0 0)">
              <path id="路径_39938" data-name="路径 39938" d="M-16.1,282.754,172.446,103.779l-.239-.479L-16.1,282.036Z" transform="translate(16.1 -103.3)"/>
            </g>
            <g id="组_22001" data-name="组 22001" transform="translate(0 0)">
              <path id="路径_39939" data-name="路径 39939" d="M-16.1,282.754,172.446,103.779l-.239-.479L-16.1,282.036Z" transform="translate(16.1 -103.3)"/>
            </g>
          </g>
          <g id="组_22009" data-name="组 22009" transform="translate(0 51.796)">
            <g id="组_22003" data-name="组 22003" transform="translate(0 48.333)">
              <path id="路径_39940" data-name="路径 39940" d="M-16.1,246.741,11.177,96h-.718L-16.1,243.392Z" transform="translate(16.1 -96)"/>
            </g>
            <g id="组_22004" data-name="组 22004" transform="translate(0 43.787)">
              <path id="路径_39941" data-name="路径 39941" d="M-16.1,94.1v.479l26.8,4.307.239-.479Z" transform="translate(16.1 -94.1)"/>
            </g>
            <g id="组_22005" data-name="组 22005" transform="translate(26.799)">
              <path id="路径_39942" data-name="路径 39942" d="M-4.661,124.372l-.239-.479L280.791,75.8v.479Z" transform="translate(4.9 -75.8)"/>
            </g>
            <g id="组_22006" data-name="组 22006" transform="translate(0 48.094)">
              <path id="路径_39943" data-name="路径 39943" d="M-16.1,113.845,10.938,96.379,10.7,95.9l-26.8,17.228Z" transform="translate(16.1 -95.9)"/>
            </g>
            <g id="组_22007" data-name="组 22007" transform="translate(26.972 48.125)">
              <rect id="矩形_2704" data-name="矩形 2704" width="0.479" height="162.466" transform="translate(0 0.476) rotate(-83.754)"/>
            </g>
            <g id="组_22008" data-name="组 22008" transform="translate(26.972 48.125)">
              <rect id="矩形_2705" data-name="矩形 2705" width="0.479" height="162.466" transform="translate(0 0.476) rotate(-83.754)"/>
            </g>
          </g>
          <g id="组_22015" data-name="组 22015" transform="translate(188.231 12.621)">
            <g id="组_22010" data-name="组 22010" transform="translate(123.78 39.414)">
              <path id="路径_39944" data-name="路径 39944" d="M152.824,328.571,114.3,75.9h.718L153.3,328.571Z" transform="translate(-114.3 -75.9)"/>
            </g>
            <g id="组_22011" data-name="组 22011" transform="translate(162.246 0)">
              <rect id="矩形_2706" data-name="矩形 2706" width="292.63" height="0.479" transform="translate(0 292.053) rotate(-86.406)"/>
            </g>
            <g id="组_22012" data-name="组 22012" transform="translate(162.312 73.138)">
              <rect id="矩形_2707" data-name="矩形 2707" width="219.413" height="0.479" transform="matrix(0.063, -0.998, 0.998, 0.063, 0, 218.978)"/>
            </g>
            <g id="组_22013" data-name="组 22013" transform="translate(0 105.011)">
              <rect id="矩形_2708" data-name="矩形 2708" width="0.479" height="247.647" transform="matrix(0.755, -0.656, 0.656, 0.755, 0, 0.314)"/>
            </g>
            <g id="组_22014" data-name="组 22014" transform="translate(0 105.011)">
              <rect id="矩形_2709" data-name="矩形 2709" width="0.479" height="247.647" transform="matrix(0.755, -0.656, 0.656, 0.755, 0, 0.314)"/>
            </g>
          </g>
          <g id="组_22023" data-name="组 22023" transform="translate(0 51.951)">
            <g id="组_22016" data-name="组 22016" transform="translate(201.11 252.678)">
              <rect id="矩形_2710" data-name="矩形 2710" width="153.374" height="0.718" transform="translate(0 33.589) rotate(-12.647)"/>
            </g>
            <g id="组_22017" data-name="组 22017" transform="translate(26.559 47.938)">
              <path id="路径_39945" data-name="路径 39945" d="M169.43,334.933-5,96.379l.479-.479,174.43,238.794Z" transform="translate(5 -95.9)"/>
            </g>
            <g id="组_22018" data-name="组 22018" transform="translate(0 255.866)">
              <path id="路径_39946" data-name="路径 39946" d="M-16.1,182.8v.479l201.228,30.866v-.718Z" transform="translate(16.1 -182.8)"/>
            </g>
            <g id="组_22019" data-name="组 22019" transform="translate(200.992 0)">
              <rect id="矩形_2711" data-name="矩形 2711" width="307.465" height="0.718" transform="matrix(0.361, -0.932, 0.932, 0.361, 0, 286.708)"/>
            </g>
            <g id="组_22020" data-name="组 22020" transform="translate(200.989 33.582)">
              <path id="路径_39947" data-name="路径 39947" d="M68.379,343.289l-.479-.239L231.323,89.9l.479.239Z" transform="translate(-67.9 -89.9)"/>
            </g>
            <g id="组_22021" data-name="组 22021" transform="translate(188.113 65.8)">
              <rect id="矩形_2712" data-name="矩形 2712" width="0.718" height="221.327" transform="matrix(0.998, -0.058, 0.058, 0.998, 0, 0.042)"/>
            </g>
            <g id="组_22022" data-name="组 22022" transform="translate(188.113 65.8)">
              <rect id="矩形_2713" data-name="矩形 2713" width="0.718" height="221.327" transform="matrix(0.998, -0.058, 0.058, 0.998, 0, 0.042)"/>
            </g>
          </g>
          <g id="组_22028" data-name="组 22028" transform="translate(312.25 0)">
            <g id="组_22024" data-name="组 22024" transform="translate(209.602 0.113)">
              <path id="路径_39948" data-name="路径 39948" d="M426.676,174.554,202.239,54.2l-.239.479L426.676,175.032Z" transform="translate(-202 -54.2)"/>
            </g>
            <g id="组_22025" data-name="组 22025" transform="translate(0 0.113)">
              <path id="路径_39949" data-name="路径 39949" d="M114.639,106.361l-.239-.479L324,54.2l.239.479Z" transform="translate(-114.4 -54.2)"/>
            </g>
            <g id="组_22026" data-name="组 22026" transform="translate(56.947 0.113)">
              <path id="路径_39950" data-name="路径 39950" d="M138.2,66.881V66.4L290.856,54.2l.239.479Z" transform="translate(-138.2 -54.2)"/>
            </g>
            <g id="组_22027" data-name="组 22027" transform="translate(52.339)">
              <rect id="矩形_2714" data-name="矩形 2714" width="178.976" height="0.479" transform="matrix(0.879, -0.477, 0.477, 0.879, 0, 85.371)"/>
            </g>
          </g>
          <g id="组_22031" data-name="组 22031" transform="translate(350.773 85.525)">
            <g id="组_22029" data-name="组 22029" transform="translate(0 218.942)">
              <path id="路径_39951" data-name="路径 39951" d="M298.23,220.641,130.5,181.879V181.4l167.73,38.524Z" transform="translate(-130.5 -181.4)"/>
            </g>
            <g id="组_22030" data-name="组 22030" transform="translate(13.604 0)">
              <rect id="矩形_2715" data-name="矩形 2715" width="0.718" height="300.287" transform="matrix(0.859, -0.513, 0.513, 0.859, 0, 0.368)"/>
            </g>
          </g>
          <g id="组_22039" data-name="组 22039" transform="translate(312.25 0.064)">
            <g id="组_22032" data-name="组 22032" transform="translate(205.966 202.951)">
              <rect id="矩形_2716" data-name="矩形 2716" width="151.22" height="0.718" transform="translate(0 140.181) rotate(-68.028)"/>
            </g>
            <g id="组_22033" data-name="组 22033" transform="translate(209.377 0)">
              <rect id="矩形_2717" data-name="矩形 2717" width="0.718" height="209.602" transform="translate(0 0.182) rotate(-14.662)"/>
            </g>
            <g id="组_22034" data-name="组 22034" transform="translate(262.721 149.356)">
              <path id="路径_39952" data-name="路径 39952" d="M395.758,116.6,224.2,169.958v.479l171.558-53.119Z" transform="translate(-224.2 -116.6)"/>
            </g>
            <g id="组_22035" data-name="组 22035" transform="translate(38.434 202.489)">
              <rect id="矩形_2718" data-name="矩形 2718" width="246.211" height="0.479" transform="translate(0 101.959) rotate(-24.463)"/>
            </g>
            <g id="组_22036" data-name="组 22036" transform="translate(0 51.733)">
              <path id="路径_39953" data-name="路径 39953" d="M376.882,227.26,114.4,76.279l.239-.479L377.36,226.781Z" transform="translate(-114.4 -75.8)"/>
            </g>
            <g id="组_22037" data-name="组 22037" transform="translate(56.774 12.163)">
              <rect id="矩形_2719" data-name="矩形 2719" width="0.718" height="280.427" transform="translate(0 0.527) rotate(-47.229)"/>
            </g>
            <g id="组_22038" data-name="组 22038" transform="translate(52.15 85.228)">
              <rect id="矩形_2720" data-name="矩形 2720" width="0.718" height="240.947" transform="translate(0 0.627) rotate(-60.849)"/>
            </g>
          </g>
          <g id="组_22041" data-name="组 22041" transform="translate(574.971 202.777)">
            <g id="组_22040" data-name="组 22040">
              <path id="路径_39954" data-name="路径 39954" d="M395.758,183.644,224.2,138.9v.479l171.558,44.983Z" transform="translate(-224.2 -138.9)"/>
            </g>
          </g>
          <g id="组_22047" data-name="组 22047" transform="translate(350.735 188.899)">
            <g id="组_22042" data-name="组 22042" transform="translate(281.901 129.446)">
              <path id="路径_39955" data-name="路径 39955" d="M362.194,187.2,248.3,223.809l.239.718,113.654-36.609Z" transform="translate(-248.3 -187.2)"/>
            </g>
            <g id="组_22043" data-name="组 22043" transform="translate(223.997 13.878)">
              <path id="路径_39956" data-name="路径 39956" d="M282,291.556,224.1,139.139l.479-.239,57.9,152.416Z" transform="translate(-224.1 -138.9)"/>
            </g>
            <g id="组_22044" data-name="组 22044" transform="translate(167.662 153.924)">
              <rect id="矩形_2721" data-name="矩形 2721" width="0.718" height="114.851" transform="translate(0 0.714) rotate(-83.996)"/>
            </g>
            <g id="组_22045" data-name="组 22045" transform="translate(281.901)">
              <path id="路径_39957" data-name="路径 39957" d="M362.194,133.1,248.3,299.394l.479.239L362.194,134.057Z" transform="translate(-248.3 -133.1)"/>
            </g>
            <g id="组_22046" data-name="组 22046" transform="translate(0 115.638)">
              <rect id="矩形_2722" data-name="矩形 2722" width="0.479" height="286.409" transform="translate(0 0.471) rotate(-79.81)"/>
            </g>
          </g>
        </g>
        <g id="组_22049" data-name="组 22049" transform="translate(23.804 0)">
          <path id="路径_39958" data-name="路径 39958" d="M65.313,108.266a3.106,3.106,0,1,1,2.154-3.828A3.179,3.179,0,0,1,65.313,108.266Z" transform="translate(100.147 15.553)"/>
          <path id="路径_39959" data-name="路径 39959" d="M139.013,94.766a3.106,3.106,0,1,1,2.154-3.828A3.524,3.524,0,0,1,139.013,94.766Z" transform="translate(202.791 -3.248)"/>
          <path id="路径_39960" data-name="路径 39960" d="M65.313,108.266a3.106,3.106,0,1,1,2.154-3.828A3.179,3.179,0,0,1,65.313,108.266Z" transform="translate(100.147 15.553)"/>
          <path id="路径_39961" data-name="路径 39961" d="M139.013,94.766a3.106,3.106,0,1,1,2.154-3.828A3.524,3.524,0,0,1,139.013,94.766Z" transform="translate(202.791 -3.248)"/>
          <path id="路径_39962" data-name="路径 39962" d="M139.013,94.766a3.106,3.106,0,1,1,2.154-3.828A3.524,3.524,0,0,1,139.013,94.766Z" transform="translate(202.791 -3.248)"/>
          <path id="路径_39963" data-name="路径 39963" d="M140.913,64.266a3.106,3.106,0,1,1,2.154-3.828A3.179,3.179,0,0,1,140.913,64.266Z" transform="translate(205.437 -45.727)"/>
          <path id="路径_39964" data-name="路径 39964" d="M65.313,108.266a3.106,3.106,0,1,1,2.154-3.828A3.179,3.179,0,0,1,65.313,108.266Z" transform="translate(100.147 15.553)"/>
          <path id="路径_39965" data-name="路径 39965" d="M140.913,64.266a3.106,3.106,0,1,1,2.154-3.828A3.179,3.179,0,0,1,140.913,64.266Z" transform="translate(205.437 -45.727)"/>
          <path id="路径_39966" data-name="路径 39966" d="M65.313,108.266a3.106,3.106,0,1,1,2.154-3.828A3.179,3.179,0,0,1,65.313,108.266Z" transform="translate(100.147 15.553)"/>
          <path id="路径_39967" data-name="路径 39967" d="M140.913,64.266a3.106,3.106,0,1,1,2.154-3.828A3.179,3.179,0,0,1,140.913,64.266Z" transform="translate(205.437 -45.727)"/>
          <path id="路径_39968" data-name="路径 39968" d="M140.913,64.266a3.106,3.106,0,1,1,2.154-3.828A3.179,3.179,0,0,1,140.913,64.266Z" transform="translate(205.437 -45.727)"/>
          <path id="路径_39969" data-name="路径 39969" d="M117.113,80.766a3.106,3.106,0,1,1,2.154-3.828A3.179,3.179,0,0,1,117.113,80.766Z" transform="translate(172.29 -22.747)"/>
          <path id="路径_39970" data-name="路径 39970" d="M139.013,94.766a3.106,3.106,0,1,1,2.154-3.828A3.524,3.524,0,0,1,139.013,94.766Z" transform="translate(202.791 -3.248)"/>
          <path id="路径_39971" data-name="路径 39971" d="M117.113,80.766a3.106,3.106,0,1,1,2.154-3.828A3.179,3.179,0,0,1,117.113,80.766Z" transform="translate(172.29 -22.747)"/>
          <path id="路径_39972" data-name="路径 39972" d="M65.313,108.266a3.106,3.106,0,1,1,2.154-3.828A3.179,3.179,0,0,1,65.313,108.266Z" transform="translate(100.147 15.553)"/>
          <path id="路径_39973" data-name="路径 39973" d="M117.113,80.766a3.106,3.106,0,1,1,2.154-3.828A3.179,3.179,0,0,1,117.113,80.766Z" transform="translate(172.29 -22.747)"/>
          <path id="路径_39974" data-name="路径 39974" d="M65.313,108.266a3.106,3.106,0,1,1,2.154-3.828A3.179,3.179,0,0,1,65.313,108.266Z" transform="translate(100.147 15.553)"/>
          <path id="路径_39975" data-name="路径 39975" d="M117.113,80.766a3.106,3.106,0,1,1,2.154-3.828A3.179,3.179,0,0,1,117.113,80.766Z" transform="translate(172.29 -22.747)"/>
          <path id="路径_39976" data-name="路径 39976" d="M65.313,108.266a3.106,3.106,0,1,1,2.154-3.828A3.179,3.179,0,0,1,65.313,108.266Z" transform="translate(100.147 15.553)"/>
          <path id="路径_39977" data-name="路径 39977" d="M65.313,108.266a3.106,3.106,0,1,1,2.154-3.828A3.179,3.179,0,0,1,65.313,108.266Z" transform="translate(100.147 15.553)"/>
          <path id="路径_39978" data-name="路径 39978" d="M-2.2,100.855a3.074,3.074,0,0,1-2.367-.272A3.074,3.074,0,0,1-6.027,98.7a3.074,3.074,0,0,1,.272-2.367,3.074,3.074,0,0,1,1.881-1.462,3.074,3.074,0,0,1,2.367.272A3.074,3.074,0,0,1-.045,97.026,3.179,3.179,0,0,1-2.2,100.855Z" transform="translate(6.15 5.259)"/>
          <path id="路径_39979" data-name="路径 39979" d="M-2.2,100.855a3.074,3.074,0,0,1-2.367-.272A3.074,3.074,0,0,1-6.027,98.7a3.074,3.074,0,0,1,.272-2.367,3.074,3.074,0,0,1,1.881-1.462,3.074,3.074,0,0,1,2.367.272A3.074,3.074,0,0,1-.045,97.026,3.179,3.179,0,0,1-2.2,100.855Z" transform="translate(6.15 5.259)"/>
          <path id="路径_39980" data-name="路径 39980" d="M117.113,80.766a3.106,3.106,0,1,1,2.154-3.828A3.179,3.179,0,0,1,117.113,80.766Z" transform="translate(172.29 -22.747)"/>
          <path id="路径_39981" data-name="路径 39981" d="M-2.2,100.855a3.074,3.074,0,0,1-2.367-.272A3.074,3.074,0,0,1-6.027,98.7a3.074,3.074,0,0,1,.272-2.367,3.074,3.074,0,0,1,1.881-1.462,3.074,3.074,0,0,1,2.367.272A3.074,3.074,0,0,1-.045,97.026,3.179,3.179,0,0,1-2.2,100.855Z" transform="translate(6.15 5.259)"/>
          <path id="路径_39982" data-name="路径 39982" d="M-2.2,100.855a3.074,3.074,0,0,1-2.367-.272A3.074,3.074,0,0,1-6.027,98.7a3.074,3.074,0,0,1,.272-2.367,3.074,3.074,0,0,1,1.881-1.462,3.074,3.074,0,0,1,2.367.272A3.074,3.074,0,0,1-.045,97.026,3.179,3.179,0,0,1-2.2,100.855Z" transform="translate(6.15 5.259)"/>
          <path id="路径_39983" data-name="路径 39983" d="M65.313,108.266a3.106,3.106,0,1,1,2.154-3.828A3.179,3.179,0,0,1,65.313,108.266Z" transform="translate(100.147 15.553)"/>
          <path id="路径_39984" data-name="路径 39984" d="M-2.2,100.855a3.074,3.074,0,0,1-2.367-.272A3.074,3.074,0,0,1-6.027,98.7a3.074,3.074,0,0,1,.272-2.367,3.074,3.074,0,0,1,1.881-1.462,3.074,3.074,0,0,1,2.367.272A3.074,3.074,0,0,1-.045,97.026,3.179,3.179,0,0,1-2.2,100.855Z" transform="translate(6.15 5.259)"/>
          <path id="路径_39985" data-name="路径 39985" d="M65.313,108.266a3.106,3.106,0,1,1,2.154-3.828A3.179,3.179,0,0,1,65.313,108.266Z" transform="translate(100.147 15.553)"/>
          <path id="路径_39986" data-name="路径 39986" d="M-2.2,100.855a3.074,3.074,0,0,1-2.367-.272A3.074,3.074,0,0,1-6.027,98.7a3.074,3.074,0,0,1,.272-2.367,3.074,3.074,0,0,1,1.881-1.462,3.074,3.074,0,0,1,2.367.272A3.074,3.074,0,0,1-.045,97.026,3.179,3.179,0,0,1-2.2,100.855Z" transform="translate(6.15 5.259)"/>
          <path id="路径_39987" data-name="路径 39987" d="M117.113,80.766a3.106,3.106,0,1,1,2.154-3.828A3.179,3.179,0,0,1,117.113,80.766Z" transform="translate(172.29 -22.747)"/>
          <path id="路径_39988" data-name="路径 39988" d="M133.213,186.266a3.106,3.106,0,1,1,2.154-3.828,3.074,3.074,0,0,1-2.154,3.828Z" transform="translate(194.713 124.186)"/>
          <path id="路径_39989" data-name="路径 39989" d="M140.913,64.266a3.106,3.106,0,1,1,2.154-3.828A3.179,3.179,0,0,1,140.913,64.266Z" transform="translate(205.437 -45.727)"/>
          <path id="路径_39990" data-name="路径 39990" d="M133.213,186.266a3.106,3.106,0,1,1,2.154-3.828,3.074,3.074,0,0,1-2.154,3.828Z" transform="translate(194.713 124.186)"/>
          <path id="路径_39991" data-name="路径 39991" d="M139.013,94.766a3.106,3.106,0,1,1,2.154-3.828A3.524,3.524,0,0,1,139.013,94.766Z" transform="translate(202.791 -3.248)"/>
          <path id="路径_39992" data-name="路径 39992" d="M133.213,186.266a3.106,3.106,0,1,1,2.154-3.828,3.074,3.074,0,0,1-2.154,3.828Z" transform="translate(194.713 124.186)"/>
          <path id="路径_39993" data-name="路径 39993" d="M65.313,108.266a3.106,3.106,0,1,1,2.154-3.828A3.179,3.179,0,0,1,65.313,108.266Z" transform="translate(100.147 15.553)"/>
          <path id="路径_39994" data-name="路径 39994" d="M133.213,186.266a3.106,3.106,0,1,1,2.154-3.828,3.074,3.074,0,0,1-2.154,3.828Z" transform="translate(194.713 124.186)"/>
          <path id="路径_39995" data-name="路径 39995" d="M65.313,108.266a3.106,3.106,0,1,1,2.154-3.828A3.179,3.179,0,0,1,65.313,108.266Z" transform="translate(100.147 15.553)"/>
          <path id="路径_39996" data-name="路径 39996" d="M133.213,186.266a3.106,3.106,0,1,1,2.154-3.828,3.074,3.074,0,0,1-2.154,3.828Z" transform="translate(194.713 124.186)"/>
          <path id="路径_39997" data-name="路径 39997" d="M133.213,186.266a3.106,3.106,0,1,1,2.154-3.828,3.074,3.074,0,0,1-2.154,3.828Z" transform="translate(194.713 124.186)"/>
          <path id="路径_39998" data-name="路径 39998" d="M70.713,200.566a3.106,3.106,0,1,1,2.154-3.828,3.074,3.074,0,0,1-2.154,3.828Z" transform="translate(107.668 144.102)"/>
          <path id="路径_39999" data-name="路径 39999" d="M-2.2,100.855a3.074,3.074,0,0,1-2.367-.272A3.074,3.074,0,0,1-6.027,98.7a3.074,3.074,0,0,1,.272-2.367,3.074,3.074,0,0,1,1.881-1.462,3.074,3.074,0,0,1,2.367.272A3.074,3.074,0,0,1-.045,97.026,3.179,3.179,0,0,1-2.2,100.855Z" transform="translate(6.15 5.259)"/>
          <path id="路径_40000" data-name="路径 40000" d="M70.713,200.566a3.106,3.106,0,1,1,2.154-3.828,3.074,3.074,0,0,1-2.154,3.828Z" transform="translate(107.668 144.102)"/>
          <path id="路径_40001" data-name="路径 40001" d="M70.713,200.566a3.106,3.106,0,1,1,2.154-3.828,3.074,3.074,0,0,1-2.154,3.828Z" transform="translate(107.668 144.102)"/>
          <path id="路径_40002" data-name="路径 40002" d="M117.113,80.766a3.106,3.106,0,1,1,2.154-3.828A3.179,3.179,0,0,1,117.113,80.766Z" transform="translate(172.29 -22.747)"/>
          <path id="路径_40003" data-name="路径 40003" d="M70.713,200.566a3.106,3.106,0,1,1,2.154-3.828,3.074,3.074,0,0,1-2.154,3.828Z" transform="translate(107.668 144.102)"/>
          <path id="路径_40004" data-name="路径 40004" d="M139.013,94.766a3.106,3.106,0,1,1,2.154-3.828A3.524,3.524,0,0,1,139.013,94.766Z" transform="translate(202.791 -3.248)"/>
          <path id="路径_40005" data-name="路径 40005" d="M70.713,200.566a3.106,3.106,0,1,1,2.154-3.828,3.074,3.074,0,0,1-2.154,3.828Z" transform="translate(107.668 144.102)"/>
          <path id="路径_40006" data-name="路径 40006" d="M65.313,108.266a3.106,3.106,0,1,1,2.154-3.828A3.179,3.179,0,0,1,65.313,108.266Z" transform="translate(100.147 15.553)"/>
          <path id="路径_40007" data-name="路径 40007" d="M70.713,200.566a3.106,3.106,0,1,1,2.154-3.828,3.074,3.074,0,0,1-2.154,3.828Z" transform="translate(107.668 144.102)"/>
          <path id="路径_40008" data-name="路径 40008" d="M65.313,108.266a3.106,3.106,0,1,1,2.154-3.828A3.179,3.179,0,0,1,65.313,108.266Z" transform="translate(100.147 15.553)"/>
          <path id="路径_40009" data-name="路径 40009" d="M70.713,200.566a3.106,3.106,0,1,1,2.154-3.828,3.074,3.074,0,0,1-2.154,3.828Z" transform="translate(107.668 144.102)"/>
          <path id="路径_40010" data-name="路径 40010" d="M204.713,59.066a3.106,3.106,0,1,1,2.154-3.828,3.074,3.074,0,0,1-2.154,3.828Z" transform="translate(294.293 -52.969)"/>
          <path id="路径_40011" data-name="路径 40011" d="M117.113,80.766a3.106,3.106,0,1,1,2.154-3.828A3.179,3.179,0,0,1,117.113,80.766Z" transform="translate(172.29 -22.747)"/>
          <path id="路径_40012" data-name="路径 40012" d="M204.713,59.066a3.106,3.106,0,1,1,2.154-3.828,3.074,3.074,0,0,1-2.154,3.828Z" transform="translate(294.293 -52.969)"/>
          <path id="路径_40013" data-name="路径 40013" d="M140.913,64.266a3.106,3.106,0,1,1,2.154-3.828A3.179,3.179,0,0,1,140.913,64.266Z" transform="translate(205.437 -45.727)"/>
          <path id="路径_40014" data-name="路径 40014" d="M204.713,59.066a3.106,3.106,0,1,1,2.154-3.828,3.074,3.074,0,0,1-2.154,3.828Z" transform="translate(294.293 -52.969)"/>
          <path id="路径_40015" data-name="路径 40015" d="M139.013,94.766a3.106,3.106,0,1,1,2.154-3.828A3.524,3.524,0,0,1,139.013,94.766Z" transform="translate(202.791 -3.248)"/>
          <path id="路径_40016" data-name="路径 40016" d="M204.713,59.066a3.106,3.106,0,1,1,2.154-3.828,3.074,3.074,0,0,1-2.154,3.828Z" transform="translate(294.293 -52.969)"/>
          <path id="路径_40017" data-name="路径 40017" d="M133.213,186.266a3.106,3.106,0,1,1,2.154-3.828,3.074,3.074,0,0,1-2.154,3.828Z" transform="translate(194.713 124.186)"/>
          <path id="路径_40018" data-name="路径 40018" d="M203.313,202.466a3.106,3.106,0,1,1,2.154-3.828,3.074,3.074,0,0,1-2.154,3.828Z" transform="translate(292.343 146.748)"/>
          <path id="路径_40019" data-name="路径 40019" d="M139.013,94.766a3.106,3.106,0,1,1,2.154-3.828A3.524,3.524,0,0,1,139.013,94.766Z" transform="translate(202.791 -3.248)"/>
          <path id="路径_40020" data-name="路径 40020" d="M203.313,202.466a3.106,3.106,0,1,1,2.154-3.828,3.074,3.074,0,0,1-2.154,3.828Z" transform="translate(292.343 146.748)"/>
          <path id="路径_40021" data-name="路径 40021" d="M203.313,202.466a3.106,3.106,0,1,1,2.154-3.828,3.074,3.074,0,0,1-2.154,3.828Z" transform="translate(292.343 146.748)"/>
          <path id="路径_40022" data-name="路径 40022" d="M226.913,143.765a3.106,3.106,0,1,1,2.154-3.828,3.074,3.074,0,0,1-2.154,3.828Z" transform="translate(325.211 64.995)"/>
          <path id="路径_40023" data-name="路径 40023" d="M204.713,59.066a3.106,3.106,0,1,1,2.154-3.828,3.074,3.074,0,0,1-2.154,3.828Z" transform="translate(294.293 -52.969)"/>
          <path id="路径_40024" data-name="路径 40024" d="M226.913,143.765a3.106,3.106,0,1,1,2.154-3.828,3.074,3.074,0,0,1-2.154,3.828Z" transform="translate(325.211 64.995)"/>
          <path id="路径_40025" data-name="路径 40025" d="M226.913,143.765a3.106,3.106,0,1,1,2.154-3.828,3.074,3.074,0,0,1-2.154,3.828Z" transform="translate(325.211 64.995)"/>
          <path id="路径_40026" data-name="路径 40026" d="M133.213,186.266a3.106,3.106,0,1,1,2.154-3.828,3.074,3.074,0,0,1-2.154,3.828Z" transform="translate(194.713 124.186)"/>
          <path id="路径_40027" data-name="路径 40027" d="M226.913,143.765a3.106,3.106,0,1,1,2.154-3.828,3.074,3.074,0,0,1-2.154,3.828Z" transform="translate(325.211 64.995)"/>
          <path id="路径_40028" data-name="路径 40028" d="M117.113,80.766a3.106,3.106,0,1,1,2.154-3.828A3.179,3.179,0,0,1,117.113,80.766Z" transform="translate(172.29 -22.747)"/>
          <path id="路径_40029" data-name="路径 40029" d="M226.913,143.765a3.106,3.106,0,1,1,2.154-3.828,3.074,3.074,0,0,1-2.154,3.828Z" transform="translate(325.211 64.995)"/>
          <path id="路径_40030" data-name="路径 40030" d="M140.913,64.266a3.106,3.106,0,1,1,2.154-3.828A3.179,3.179,0,0,1,140.913,64.266Z" transform="translate(205.437 -45.727)"/>
          <path id="路径_40031" data-name="路径 40031" d="M226.913,143.765a3.106,3.106,0,1,1,2.154-3.828,3.074,3.074,0,0,1-2.154,3.828Z" transform="translate(325.211 64.995)"/>
          <path id="路径_40032" data-name="路径 40032" d="M139.013,94.766a3.106,3.106,0,1,1,2.154-3.828A3.524,3.524,0,0,1,139.013,94.766Z" transform="translate(202.791 -3.248)"/>
          <path id="路径_40033" data-name="路径 40033" d="M226.913,143.765a3.106,3.106,0,1,1,2.154-3.828,3.074,3.074,0,0,1-2.154,3.828Z" transform="translate(325.211 64.995)"/>
          <path id="路径_40034" data-name="路径 40034" d="M226.913,143.765a3.106,3.106,0,1,1,2.154-3.828,3.074,3.074,0,0,1-2.154,3.828Z" transform="translate(325.211 64.995)"/>
          <path id="路径_40035" data-name="路径 40035" d="M251.013,207.466a3.106,3.106,0,1,1,2.154-3.828,3.074,3.074,0,0,1-2.154,3.828Z" transform="translate(358.776 153.712)"/>
          <path id="路径_40036" data-name="路径 40036" d="M226.913,143.765a3.106,3.106,0,1,1,2.154-3.828,3.074,3.074,0,0,1-2.154,3.828Z" transform="translate(325.211 64.995)"/>
          <path id="路径_40037" data-name="路径 40037" d="M251.013,207.466a3.106,3.106,0,1,1,2.154-3.828,3.074,3.074,0,0,1-2.154,3.828Z" transform="translate(358.776 153.712)"/>
          <path id="路径_40038" data-name="路径 40038" d="M203.313,202.466a3.106,3.106,0,1,1,2.154-3.828,3.074,3.074,0,0,1-2.154,3.828Z" transform="translate(292.343 146.748)"/>
          <path id="路径_40039" data-name="路径 40039" d="M251.013,207.466a3.106,3.106,0,1,1,2.154-3.828,3.074,3.074,0,0,1-2.154,3.828Z" transform="translate(358.776 153.712)"/>
          <path id="路径_40040" data-name="路径 40040" d="M251.013,207.466a3.106,3.106,0,1,1,2.154-3.828,3.074,3.074,0,0,1-2.154,3.828Z" transform="translate(358.776 153.712)"/>
          <path id="路径_40041" data-name="路径 40041" d="M133.213,186.266a3.106,3.106,0,1,1,2.154-3.828,3.074,3.074,0,0,1-2.154,3.828Z" transform="translate(194.713 124.186)"/>
        </g>
      </g>
    </g>
    <g id="组_21998-2" data-name="组 21998" transform="translate(0 -32.99)">
      <path id="路径_39974-2" data-name="路径 39974" d="M2.085-4A1.733,1.733,0,0,0,.8-3.5a2.141,2.141,0,0,0-.57,1.56A1.856,1.856,0,0,0,2.09.145,1.862,1.862,0,0,0,3.96-1.94,2.156,2.156,0,0,0,3.4-3.5,1.752,1.752,0,0,0,2.085-4ZM2.1-.45a1.08,1.08,0,0,1-.775-.305,1.652,1.652,0,0,1-.4-1.18c0-.9.455-1.475,1.175-1.475a1.076,1.076,0,0,1,.77.305A1.615,1.615,0,0,1,3.26-1.94C3.26-1.02,2.815-.45,2.1-.45ZM15.24-3.92a4.07,4.07,0,0,1,.04.685v1.76A.913.913,0,0,1,14.265-.44.916.916,0,0,1,13.24-1.47V-3.235a3.921,3.921,0,0,1,.04-.685h-.745a4.108,4.108,0,0,1,.04.685V-1.47A1.611,1.611,0,0,0,12.95-.32a1.723,1.723,0,0,0,1.29.47,1.506,1.506,0,0,0,1.7-1.615V-3.24a4.041,4.041,0,0,1,.04-.68ZM28.055.06c-.07-.135-.195-.405-.235-.5-.5-1.17-.59-1.31-.905-1.41a1.057,1.057,0,0,0,.555-.29,1.028,1.028,0,0,0,.255-.745c0-.66-.435-1.04-1.195-1.04h-1.2c-.275,0-.43-.005-.64-.015a4.449,4.449,0,0,1,.04.65v2.7a3.913,3.913,0,0,1-.04.65h.745A3.9,3.9,0,0,1,25.4-.6v-1.02h.745c.385,0,.56.185.83.875a4.048,4.048,0,0,1,.26.8ZM25.4-2.185V-3.35H26.42c.41,0,.615.185.615.545a.593.593,0,0,1-.16.44.674.674,0,0,1-.475.18ZM48.625.06a4.072,4.072,0,0,1,.22-.665l.75-1.76a6.1,6.1,0,0,0,.23-.73c-.005.075-.02.33-.04.765V-.67a4.649,4.649,0,0,1-.04.73h.7a4.334,4.334,0,0,1-.04-.73V-3.18a5.178,5.178,0,0,1,.04-.74h-.92a2.771,2.771,0,0,1-.18.6l-1.01,2.48L47.32-3.325a3.46,3.46,0,0,1-.185-.6H46.22a4.96,4.96,0,0,1,.04.74V-.67a4.69,4.69,0,0,1-.04.73h.7a4.569,4.569,0,0,1-.04-.73V-2.31c0-.11-.02-.52-.04-.785a5.564,5.564,0,0,0,.255.765l.72,1.715a3.4,3.4,0,0,1,.22.675Zm10.53-3.98a3.736,3.736,0,0,1,.04.645v2.69a3.773,3.773,0,0,1-.04.645h.76a3.772,3.772,0,0,1-.04-.645v-2.69a3.735,3.735,0,0,1,.04-.645ZM68.49-1.105a1.709,1.709,0,0,0,.1.415,1.177,1.177,0,0,0,.44.57,2.01,2.01,0,0,0,1.05.26A1.657,1.657,0,0,0,71.27-.24a1.163,1.163,0,0,0,.315-.85.987.987,0,0,0-.415-.86,2.2,2.2,0,0,0-.815-.305,4.257,4.257,0,0,1-.7-.18.475.475,0,0,1-.34-.455c0-.325.295-.545.73-.545a.791.791,0,0,1,.625.24.646.646,0,0,1,.15.355l.715-.085a1.348,1.348,0,0,0-.245-.58A1.474,1.474,0,0,0,70.04-4.01c-.86,0-1.42.45-1.42,1.145a.984.984,0,0,0,.385.81,1.767,1.767,0,0,0,.755.3,3.153,3.153,0,0,1,.87.245.508.508,0,0,1,.25.46c0,.375-.3.6-.8.6a.888.888,0,0,1-.73-.3.717.717,0,0,1-.14-.44Zm11.575,0a1.709,1.709,0,0,0,.1.415,1.177,1.177,0,0,0,.44.57,2.01,2.01,0,0,0,1.05.26,1.657,1.657,0,0,0,1.195-.38,1.163,1.163,0,0,0,.315-.85.987.987,0,0,0-.415-.86,2.2,2.2,0,0,0-.815-.305,4.257,4.257,0,0,1-.7-.18.475.475,0,0,1-.34-.455c0-.325.295-.545.73-.545a.791.791,0,0,1,.625.24.646.646,0,0,1,.15.355l.715-.085a1.348,1.348,0,0,0-.245-.58,1.474,1.474,0,0,0-1.245-.505c-.86,0-1.42.45-1.42,1.145a.984.984,0,0,0,.385.81,1.767,1.767,0,0,0,.755.3,3.153,3.153,0,0,1,.87.245.508.508,0,0,1,.25.46c0,.375-.3.6-.8.6a.888.888,0,0,1-.73-.3.717.717,0,0,1-.14-.44ZM91.77-3.92a3.736,3.736,0,0,1,.04.645v2.69a3.773,3.773,0,0,1-.04.645h.76a3.773,3.773,0,0,1-.04-.645v-2.69a3.736,3.736,0,0,1,.04-.645ZM102.965-4a1.733,1.733,0,0,0-1.29.5,2.141,2.141,0,0,0-.57,1.56A1.856,1.856,0,0,0,102.97.145a1.862,1.862,0,0,0,1.87-2.085,2.156,2.156,0,0,0-.56-1.56A1.752,1.752,0,0,0,102.965-4Zm.015,3.55a1.08,1.08,0,0,1-.775-.305,1.652,1.652,0,0,1-.4-1.18c0-.9.455-1.475,1.175-1.475a1.076,1.076,0,0,1,.77.305,1.615,1.615,0,0,1,.4,1.165C104.14-1.02,103.695-.45,102.98-.45Zm13.84.51a3.773,3.773,0,0,1-.04-.645V-3.23a4.372,4.372,0,0,1,.04-.69h-.73a4.371,4.371,0,0,1,.04.69v1.68c0,.21.015.51.035.7-.11-.2-.27-.46-.39-.64l-1.265-1.9a2.742,2.742,0,0,1-.305-.53h-.78a4.165,4.165,0,0,1,.04.645V-.7a5.411,5.411,0,0,1-.04.755h.73a5.534,5.534,0,0,1-.04-.75V-2.33c0-.115-.01-.34-.015-.435-.015-.185-.015-.185-.02-.255.12.235.245.45.34.6l1.29,1.945a4.981,4.981,0,0,1,.32.535Z" transform="translate(833.775 -508)"/>
      <path id="路径_40018-2" data-name="路径 40018" d="M17.856.288c-.336-.648-.936-1.944-1.128-2.376C14.352-7.7,13.9-8.376,12.384-8.856a5.074,5.074,0,0,0,2.664-1.392,4.934,4.934,0,0,0,1.224-3.576c0-3.168-2.088-4.992-5.736-4.992H4.776c-1.32,0-2.064-.024-3.072-.072a21.354,21.354,0,0,1,.192,3.12V-2.832A18.781,18.781,0,0,1,1.7.288H5.28a18.729,18.729,0,0,1-.192-3.144v-4.9H8.664c1.848,0,2.688.888,3.984,4.2A19.428,19.428,0,0,1,13.9.288ZM5.088-10.488V-16.08h4.92c1.968,0,2.952.888,2.952,2.616a2.848,2.848,0,0,1-.768,2.112,3.235,3.235,0,0,1-2.28.864Zm24.648-3a25.321,25.321,0,0,1,.192,3.12V-5.52c-1.08,2.376-2.448,3.552-4.176,3.552a2.986,2.986,0,0,1-1.32-.336c-.744-.456-1.1-1.344-1.1-2.736v-5.328a21.481,21.481,0,0,1,.168-3.12h-3.48a22.06,22.06,0,0,1,.192,3.12V-4.3A4.479,4.479,0,0,0,22.152-.144a5.228,5.228,0,0,0,2.88.7,5.275,5.275,0,0,0,4.92-2.568c-.024.6-.024.672-.024,1.032V.288h3.264A19.726,19.726,0,0,1,33-2.832v-7.536a17.376,17.376,0,0,1,.192-3.12Zm-7.248-5.376v3.072h3.048v-3.072Zm5.208,0v3.072h3.048v-3.072Zm21,9.288a7.989,7.989,0,0,0-.84-1.752A6.208,6.208,0,0,0,42.48-13.92,6.572,6.572,0,0,0,37.656-12.1a7.76,7.76,0,0,0-2.04,5.544c0,4.44,2.736,7.3,6.96,7.3a6.237,6.237,0,0,0,5.28-2.424,6.719,6.719,0,0,0,1.008-2.04l-2.976-.6a3.354,3.354,0,0,1-.48,1.2,3.213,3.213,0,0,1-2.76,1.344c-2.424,0-3.912-1.848-3.912-4.848,0-2.976,1.464-4.824,3.816-4.824a3.02,3.02,0,0,1,2.472,1.1,4.325,4.325,0,0,1,.744,1.464Zm2.544-9.24a22.011,22.011,0,0,1,.168,3.144v12.84A23.479,23.479,0,0,1,51.24.288h3.384a17.376,17.376,0,0,1-.168-3.072v-1.56l1.968-1.872,2.592,3.792A11.559,11.559,0,0,1,60.6.288h4.272A18.385,18.385,0,0,1,62.688-2.5L58.632-8.04l3.408-3.24c1.032-.984,1.032-.984,2.4-2.208H59.952a11.049,11.049,0,0,1-1.9,2.136l-3.6,3.576v-7.9a22.459,22.459,0,0,1,.168-3.144Zm15.648,0a22.012,22.012,0,0,1,.168,3.144v12.84a23.479,23.479,0,0,1-.168,3.12h3.384A17.376,17.376,0,0,1,70.1-2.784v-1.56l1.968-1.872,2.592,3.792A11.559,11.559,0,0,1,76.248.288H80.52A18.384,18.384,0,0,1,78.336-2.5L74.28-8.04l3.408-3.24c1.032-.984,1.032-.984,2.4-2.208H75.6a11.049,11.049,0,0,1-1.9,2.136L70.1-7.776v-7.9a22.46,22.46,0,0,1,.168-3.144ZM95.4-5.808c-.048-.552-.048-.624-.048-.672a9.866,9.866,0,0,0-.7-3.648A6.1,6.1,0,0,0,88.68-13.92c-4.1,0-6.768,2.9-6.768,7.344,0,4.488,2.688,7.32,6.936,7.32A6.816,6.816,0,0,0,93.792-1.1a6.745,6.745,0,0,0,1.464-2.208l-2.832-.912a3.488,3.488,0,0,1-.7,1.248,3.8,3.8,0,0,1-2.88,1.2,3.772,3.772,0,0,1-3-1.344,4.461,4.461,0,0,1-.888-2.688ZM85.032-8.184a3.6,3.6,0,0,1,3.6-3.264,3.423,3.423,0,0,1,2.592.96,3.767,3.767,0,0,1,1.056,2.3ZM97.8-18.816a22.459,22.459,0,0,1,.168,3.144v12.84a19.725,19.725,0,0,1-.192,3.12h3.456a21.354,21.354,0,0,1-.192-3.12V-7.68c1.08-2.4,2.472-3.552,4.272-3.552a2.228,2.228,0,0,1,1.656.7,3.385,3.385,0,0,1,.7,2.376v5.328A25.505,25.505,0,0,1,107.5.288h3.48a18.965,18.965,0,0,1-.192-3.12V-8.88c0-3.1-1.752-4.848-4.824-4.848a5.6,5.6,0,0,0-4.968,2.544,9.844,9.844,0,0,0,.048-1.032v-3.432a23.067,23.067,0,0,1,.168-3.168Zm26.184,5.328a12.444,12.444,0,0,0-2.232-.264,4.591,4.591,0,0,0-4.512,2.52v-2.256h-3.264a18.975,18.975,0,0,1,.168,3.12v7.536a26.325,26.325,0,0,1-.168,3.12h3.432a25.24,25.24,0,0,1-.168-3.12v-4.44a3.863,3.863,0,0,1,.984-2.4,3.426,3.426,0,0,1,2.784-1.176,7.167,7.167,0,0,1,2.136.384Zm9.744-5.328v3.048h3.528v-3.048Zm0,5.328a19.726,19.726,0,0,1,.192,3.12v7.536a21.57,21.57,0,0,1-.192,3.12h3.5a24.108,24.108,0,0,1-.168-3.144v-7.488a21.571,21.571,0,0,1,.168-3.144ZM143.688.288a21.354,21.354,0,0,1-.192-3.12V-7.68c1.056-2.376,2.472-3.576,4.2-3.576a2.257,2.257,0,0,1,2.016.984,3.943,3.943,0,0,1,.408,2.112v5.328a25.5,25.5,0,0,1-.168,3.12h3.48a18.966,18.966,0,0,1-.192-3.12v-5.76a5.336,5.336,0,0,0-.816-3.36,4.742,4.742,0,0,0-4.08-1.776,5.486,5.486,0,0,0-4.9,2.544,9.377,9.377,0,0,0,.048-1.032v-1.272h-3.264a19.726,19.726,0,0,1,.192,3.12v7.536a19.921,19.921,0,0,1-.192,3.12Zm31.464,0h3.192a25.2,25.2,0,0,1-.168-3.24V-15.6a27.988,27.988,0,0,1,.168-3.216H174.96a24.462,24.462,0,0,1,.168,3.24v2.4c0,.408,0,.864.024,1.032.024.48.024.48.024.768a6.112,6.112,0,0,0-1.224-1.32,5.7,5.7,0,0,0-3.648-1.1c-3.96,0-6.48,2.784-6.48,7.176A7.428,7.428,0,0,0,166.32-.6,6.1,6.1,0,0,0,170.328.624a5.124,5.124,0,0,0,4.848-2.376c-.024.312-.024.576-.024.864ZM166.944-6.6c0-2.856,1.488-4.68,3.816-4.68a4.394,4.394,0,0,1,3.12,1.344,4.984,4.984,0,0,1,1.152,3.192,5.429,5.429,0,0,1-.936,3.216,4.013,4.013,0,0,1-3.216,1.584C168.48-1.944,166.944-3.744,166.944-6.6Zm14.4-12.216v3.048h3.528v-3.048Zm0,5.328a19.726,19.726,0,0,1,.192,3.12v7.536a21.57,21.57,0,0,1-.192,3.12h3.5a24.108,24.108,0,0,1-.168-3.144v-7.488a21.571,21.571,0,0,1,.168-3.144Zm19.416,7.68c-.048-.552-.048-.624-.048-.672a9.866,9.866,0,0,0-.7-3.648,6.1,6.1,0,0,0-5.976-3.792c-4.1,0-6.768,2.9-6.768,7.344,0,4.488,2.688,7.32,6.936,7.32A6.816,6.816,0,0,0,199.152-1.1a6.745,6.745,0,0,0,1.464-2.208l-2.832-.912a3.488,3.488,0,0,1-.7,1.248,3.8,3.8,0,0,1-2.88,1.2,3.772,3.772,0,0,1-3-1.344,4.461,4.461,0,0,1-.888-2.688ZM190.392-8.184a3.6,3.6,0,0,1,3.6-3.264,3.423,3.423,0,0,1,2.592.96,3.767,3.767,0,0,1,1.056,2.3ZM17.352,40.848a20.122,20.122,0,0,1,.168-2.976c-1.032.072-1.728.1-2.832.1H13.44a17.911,17.911,0,0,1-2.88-.144v3.1a13.138,13.138,0,0,1,2.448-.144h1.3v3.912a7.162,7.162,0,0,1-4.08,1.08,5.023,5.023,0,0,1-4.176-1.656A8.474,8.474,0,0,1,4.416,38.5c0-2.448.576-4.224,1.776-5.472A5.071,5.071,0,0,1,9.84,31.56c2.472,0,3.624.768,4.416,2.952l3.288-.888a6.765,6.765,0,0,0-1.776-2.856,7.839,7.839,0,0,0-5.52-2.064A9.1,9.1,0,0,0,4.92,30.12c-2.5,1.68-3.84,4.608-3.84,8.424a11.274,11.274,0,0,0,2.256,7.3c1.512,1.824,3.816,2.76,6.816,2.76a14.212,14.212,0,0,0,3.528-.456,15.22,15.22,0,0,0,3.84-1.656,19.835,19.835,0,0,1-.168-3.12ZM33.36,42.192c-.048-.552-.048-.624-.048-.672a9.866,9.866,0,0,0-.7-3.648A6.1,6.1,0,0,0,26.64,34.08c-4.1,0-6.768,2.9-6.768,7.344,0,4.488,2.688,7.32,6.936,7.32A6.816,6.816,0,0,0,31.752,46.9a6.745,6.745,0,0,0,1.464-2.208l-2.832-.912a3.488,3.488,0,0,1-.7,1.248,4.037,4.037,0,0,1-5.88-.144,4.461,4.461,0,0,1-.888-2.688ZM22.992,39.816a3.6,3.6,0,0,1,3.6-3.264,3.423,3.423,0,0,1,2.592.96,3.767,3.767,0,0,1,1.056,2.3ZM39.12,48.288a24.978,24.978,0,0,1-.168-3.12V40.416a5.419,5.419,0,0,1,1.032-2.4,2.973,2.973,0,0,1,2.472-1.248c1.56,0,2.328,1.008,2.328,3.024v5.376a19.533,19.533,0,0,1-.192,3.12h3.456a23.478,23.478,0,0,1-.168-3.12V40.416a4.54,4.54,0,0,1,1.512-2.976,2.776,2.776,0,0,1,1.968-.72c1.608,0,2.352.96,2.352,3.072v5.376a18.966,18.966,0,0,1-.192,3.12h3.5a19.532,19.532,0,0,1-.192-3.12V39.24A4.97,4.97,0,0,0,55.7,35.592a4.736,4.736,0,0,0-3.6-1.368,5.3,5.3,0,0,0-2.688.624,5.553,5.553,0,0,0-2.016,1.9,3.111,3.111,0,0,0-.912-1.44,4.3,4.3,0,0,0-3.1-1.08,4.839,4.839,0,0,0-4.464,2.4c.024-.384.024-.744.024-.888V34.512H35.736a20.993,20.993,0,0,1,.168,3.12v7.536a24.214,24.214,0,0,1-.168,3.12Zm33.768-6.1c-.048-.552-.048-.624-.048-.672a9.866,9.866,0,0,0-.7-3.648,6.1,6.1,0,0,0-5.976-3.792c-4.1,0-6.768,2.9-6.768,7.344,0,4.488,2.688,7.32,6.936,7.32A6.816,6.816,0,0,0,71.28,46.9a6.745,6.745,0,0,0,1.464-2.208l-2.832-.912a3.488,3.488,0,0,1-.7,1.248,4.037,4.037,0,0,1-5.88-.144,4.461,4.461,0,0,1-.888-2.688ZM62.52,39.816a3.6,3.6,0,0,1,3.6-3.264,3.423,3.423,0,0,1,2.592.96,3.767,3.767,0,0,1,1.056,2.3ZM75.264,29.184v3.048h3.528V29.184Zm0,5.328a19.725,19.725,0,0,1,.192,3.12v7.536a21.568,21.568,0,0,1-.192,3.12h3.5a24.11,24.11,0,0,1-.168-3.144V37.656a21.573,21.573,0,0,1,.168-3.144Zm9.96,13.776a21.354,21.354,0,0,1-.192-3.12V40.32c1.056-2.376,2.472-3.576,4.2-3.576a2.257,2.257,0,0,1,2.016.984,3.943,3.943,0,0,1,.408,2.112v5.328a25.505,25.505,0,0,1-.168,3.12h3.48a18.965,18.965,0,0,1-.192-3.12v-5.76a5.336,5.336,0,0,0-.816-3.36,4.742,4.742,0,0,0-4.08-1.776,5.486,5.486,0,0,0-4.9,2.544,9.378,9.378,0,0,0,.048-1.032V34.512H81.768a19.725,19.725,0,0,1,.192,3.12v7.536a19.92,19.92,0,0,1-.192,3.12Zm12.1-3.912a5.4,5.4,0,0,0,.936,2.136c1.032,1.392,2.88,2.136,5.352,2.136a7.085,7.085,0,0,0,4.968-1.56,3.859,3.859,0,0,0,1.176-2.712A3.411,3.411,0,0,0,108.36,41.4c-.792-.6-1.776-.936-4.224-1.464a10.109,10.109,0,0,1-2.4-.72,1.293,1.293,0,0,1-.744-1.128c0-1.008,1.008-1.68,2.5-1.68,1.56,0,2.376.576,2.64,1.9L109.3,37.9A4.672,4.672,0,0,0,108,35.52a6.548,6.548,0,0,0-4.512-1.392c-2.184,0-3.816.624-4.8,1.872a3.571,3.571,0,0,0-.744,2.232,3.437,3.437,0,0,0,2.112,3.192,14.508,14.508,0,0,0,3.456,1.032c1.92.432,2.064.456,2.52.768a1.467,1.467,0,0,1,.624,1.2c0,1.128-1.1,1.824-2.88,1.824-1.872,0-2.76-.648-3.168-2.28Zm27.336-5.952a7.989,7.989,0,0,0-.84-1.752,6.208,6.208,0,0,0-5.376-2.592,6.572,6.572,0,0,0-4.824,1.824,7.76,7.76,0,0,0-2.04,5.544c0,4.44,2.736,7.3,6.96,7.3a6.237,6.237,0,0,0,5.28-2.424,6.719,6.719,0,0,0,1.008-2.04l-2.976-.6a3.354,3.354,0,0,1-.48,1.2,3.213,3.213,0,0,1-2.76,1.344c-2.424,0-3.912-1.848-3.912-4.848,0-2.976,1.464-4.824,3.816-4.824a3.02,3.02,0,0,1,2.472,1.1,4.325,4.325,0,0,1,.744,1.464Zm2.52-9.24a22.459,22.459,0,0,1,.168,3.144v12.84a19.725,19.725,0,0,1-.192,3.12h3.456a21.354,21.354,0,0,1-.192-3.12V40.32c1.08-2.4,2.472-3.552,4.272-3.552a2.228,2.228,0,0,1,1.656.7,3.385,3.385,0,0,1,.7,2.376v5.328a25.507,25.507,0,0,1-.168,3.12h3.48a18.966,18.966,0,0,1-.192-3.12V39.12c0-3.1-1.752-4.848-4.824-4.848a5.6,5.6,0,0,0-4.968,2.544,9.843,9.843,0,0,0,.048-1.032V32.352a23.067,23.067,0,0,1,.168-3.168Zm25.248,19.1h3.24a19.3,19.3,0,0,1-.192-3V38.832a4.03,4.03,0,0,0-1.128-3.312c-1.032-1.008-2.424-1.416-4.728-1.416a7.186,7.186,0,0,0-4.584,1.224,5.015,5.015,0,0,0-1.9,2.664l3.072.552a2.615,2.615,0,0,1,.96-1.536,4.33,4.33,0,0,1,2.5-.7c1.824,0,2.76.72,2.76,2.112v1.224c-3.432.072-5.208.312-6.768.96a4.258,4.258,0,0,0-2.712,3.888c0,2.52,1.776,4.032,4.7,4.032a8.492,8.492,0,0,0,2.232-.288,5.2,5.2,0,0,0,2.544-1.512Zm0-5.352a2.86,2.86,0,0,1-.864,2.112,4.873,4.873,0,0,1-3.336,1.272c-1.344,0-2.184-.7-2.184-1.824,0-1.872,1.8-2.664,6.384-2.76Zm8.088-5.9v8.136a25.773,25.773,0,0,1-.168,3.12h3.432a23.719,23.719,0,0,1-.168-3.12V37.032h1.176a20.655,20.655,0,0,1,2.664.144V34.368a26.357,26.357,0,0,1-2.712.144h-1.128v-.984c0-1.656.48-2.232,1.872-2.232a3.973,3.973,0,0,1,2.136.576l.648-2.52a8.678,8.678,0,0,0-2.976-.48c-3.264,0-4.776,1.392-4.776,4.368v1.272h-.984a15.728,15.728,0,0,1-2.256-.144v2.808a16.325,16.325,0,0,1,2.28-.144Zm11.064-6.216a27.622,27.622,0,0,1,.168,2.952v.744h-.888a11.023,11.023,0,0,1-2.16-.144V37.2a12.119,12.119,0,0,1,2.136-.144h.912V45.12c0,2.52,1.1,3.5,3.864,3.5a7.51,7.51,0,0,0,3-.5l-.432-2.544a3.174,3.174,0,0,1-1.752.528c-1.152,0-1.584-.432-1.584-1.608v-7.44h1.08a13.233,13.233,0,0,1,2.352.144V34.368a13.789,13.789,0,0,1-2.424.144H174.84v-.744a26.546,26.546,0,0,1,.168-2.952Zm26.5,3.7a25.322,25.322,0,0,1,.192,3.12V42.48c-1.08,2.376-2.448,3.552-4.176,3.552a2.986,2.986,0,0,1-1.32-.336c-.744-.456-1.1-1.344-1.1-2.736V37.632a21.481,21.481,0,0,1,.168-3.12h-3.48a22.06,22.06,0,0,1,.192,3.12V43.7a4.479,4.479,0,0,0,1.944,4.152,6.1,6.1,0,0,0,7.8-1.872c-.024.6-.024.672-.024,1.032v1.272h3.264a19.726,19.726,0,0,1-.192-3.12V37.632a17.376,17.376,0,0,1,.192-3.12Zm9.912,13.776a21.354,21.354,0,0,1-.192-3.12V40.32c1.056-2.376,2.472-3.576,4.2-3.576a2.257,2.257,0,0,1,2.016.984,3.943,3.943,0,0,1,.408,2.112v5.328a25.507,25.507,0,0,1-.168,3.12h3.48a18.966,18.966,0,0,1-.192-3.12v-5.76a5.336,5.336,0,0,0-.816-3.36,4.742,4.742,0,0,0-4.08-1.776,5.486,5.486,0,0,0-4.9,2.544,9.377,9.377,0,0,0,.048-1.032V34.512h-3.264a19.726,19.726,0,0,1,.192,3.12v7.536a19.921,19.921,0,0,1-.192,3.12Zm23.472,0h3.192a25.2,25.2,0,0,1-.168-3.24V32.4a27.988,27.988,0,0,1,.168-3.216h-3.384a24.462,24.462,0,0,1,.168,3.24v2.4c0,.408,0,.864.024,1.032.024.48.024.48.024.768a6.112,6.112,0,0,0-1.224-1.32,5.7,5.7,0,0,0-3.648-1.1c-3.96,0-6.48,2.784-6.48,7.176a7.428,7.428,0,0,0,2.5,6.024,6.1,6.1,0,0,0,4.008,1.224,5.124,5.124,0,0,0,4.848-2.376c-.024.312-.024.576-.024.864ZM223.248,41.4c0-2.856,1.488-4.68,3.816-4.68a4.394,4.394,0,0,1,3.12,1.344,4.984,4.984,0,0,1,1.152,3.192,5.429,5.429,0,0,1-.936,3.216,4.013,4.013,0,0,1-3.216,1.584C224.784,46.056,223.248,44.256,223.248,41.4ZM19.128,96.288A25.187,25.187,0,0,1,17.9,93.456L12.576,79.608a15.892,15.892,0,0,1-.816-2.424H7.584a14.215,14.215,0,0,1-.768,2.424L1.536,93.456A26.235,26.235,0,0,1,.264,96.288H4.2a11.97,11.97,0,0,1,.72-2.52l.96-2.616h7.68l.96,2.616a16.138,16.138,0,0,1,.672,2.52Zm-6.432-7.9H6.744l2.5-7.1c.072-.216.072-.216.456-1.344.264.792.336,1.08.432,1.344Zm8.232-11.208a22.011,22.011,0,0,1,.168,3.144v12.84a23.478,23.478,0,0,1-.168,3.12h3.384a17.376,17.376,0,0,1-.168-3.072v-1.56l1.968-1.872L28.7,93.576a11.559,11.559,0,0,1,1.584,2.712H34.56A18.385,18.385,0,0,1,32.376,93.5L28.32,87.96l3.408-3.24c1.032-.984,1.032-.984,2.4-2.208H29.64a11.049,11.049,0,0,1-1.9,2.136l-3.6,3.576v-7.9a22.459,22.459,0,0,1,.168-3.144Zm17.208,1.632a27.624,27.624,0,0,1,.168,2.952v.744h-.888a11.023,11.023,0,0,1-2.16-.144V85.2a12.12,12.12,0,0,1,2.136-.144H38.3V93.12c0,2.52,1.1,3.5,3.864,3.5a7.51,7.51,0,0,0,3-.5l-.432-2.544a3.174,3.174,0,0,1-1.752.528c-1.152,0-1.584-.432-1.584-1.608v-7.44h1.08a13.233,13.233,0,0,1,2.352.144V82.368a13.788,13.788,0,0,1-2.424.144H41.4v-.744a26.545,26.545,0,0,1,.168-2.952Zm8.808-1.632v3.048h3.528V77.184Zm0,5.328a19.725,19.725,0,0,1,.192,3.12v7.536a21.569,21.569,0,0,1-.192,3.12h3.5a24.11,24.11,0,0,1-.168-3.144V85.656a21.573,21.573,0,0,1,.168-3.144ZM61.128,96.288a12.83,12.83,0,0,1,.72-2.136l3.7-9.12c.456-1.176.744-1.848,1.08-2.52H62.976a10.867,10.867,0,0,1-.6,2.232L59.928,91.7c-.168.48-.36,1.08-.528,1.608-.144-.5-.36-1.224-.5-1.608l-2.448-6.96a12.672,12.672,0,0,1-.6-2.232H52.176c.48,1.008.864,1.9,1.128,2.52l3.672,9.12a11.425,11.425,0,0,1,.72,2.136Zm7.224-19.1v3.048H71.88V77.184Zm0,5.328a19.725,19.725,0,0,1,.192,3.12v7.536a21.569,21.569,0,0,1-.192,3.12h3.5a24.11,24.11,0,0,1-.168-3.144V85.656a21.573,21.573,0,0,1,.168-3.144Zm19.416,7.68c-.048-.552-.048-.624-.048-.672a9.866,9.866,0,0,0-.7-3.648,6.1,6.1,0,0,0-5.976-3.792c-4.1,0-6.768,2.9-6.768,7.344,0,4.488,2.688,7.32,6.936,7.32A6.816,6.816,0,0,0,86.16,94.9a6.745,6.745,0,0,0,1.464-2.208l-2.832-.912a3.488,3.488,0,0,1-.7,1.248,4.037,4.037,0,0,1-5.88-.144,4.461,4.461,0,0,1-.888-2.688ZM77.4,87.816A3.6,3.6,0,0,1,81,84.552a3.423,3.423,0,0,1,2.592.96,3.767,3.767,0,0,1,1.056,2.3Zm22.8-5.3a12.444,12.444,0,0,0-2.232-.264,4.591,4.591,0,0,0-4.512,2.52V82.512H90.192a18.975,18.975,0,0,1,.168,3.12v7.536a26.326,26.326,0,0,1-.168,3.12h3.432a25.24,25.24,0,0,1-.168-3.12v-4.44a3.863,3.863,0,0,1,.984-2.4,3.426,3.426,0,0,1,2.784-1.176,7.167,7.167,0,0,1,2.136.384Zm11.448,0a25.32,25.32,0,0,1,.192,3.12V90.48c-1.08,2.376-2.448,3.552-4.176,3.552a2.986,2.986,0,0,1-1.32-.336c-.744-.456-1.1-1.344-1.1-2.736V85.632a21.481,21.481,0,0,1,.168-3.12h-3.48a22.059,22.059,0,0,1,.192,3.12V91.7a4.479,4.479,0,0,0,1.944,4.152,6.1,6.1,0,0,0,7.8-1.872c-.024.6-.024.672-.024,1.032v1.272H115.1a19.726,19.726,0,0,1-.192-3.12V85.632a17.376,17.376,0,0,1,.192-3.12Zm9.912,13.776a21.355,21.355,0,0,1-.192-3.12V88.32c1.056-2.376,2.472-3.576,4.2-3.576a2.257,2.257,0,0,1,2.016.984,3.942,3.942,0,0,1,.408,2.112v5.328a25.505,25.505,0,0,1-.168,3.12h3.48a18.966,18.966,0,0,1-.192-3.12v-5.76a5.336,5.336,0,0,0-.816-3.36,4.742,4.742,0,0,0-4.08-1.776,5.486,5.486,0,0,0-4.9,2.544,9.378,9.378,0,0,0,.048-1.032V82.512H118.1a19.725,19.725,0,0,1,.192,3.12v7.536a19.92,19.92,0,0,1-.192,3.12ZM133.968,98.5c1.632,1.848,3.216,2.5,6.024,2.5a9.061,9.061,0,0,0,5.664-1.536c1.392-1.176,2.016-3.024,2.016-5.9v-8.04a22.294,22.294,0,0,1,.168-3h-3.216v1.1a5.772,5.772,0,0,0,.048.792,5.062,5.062,0,0,0-4.584-2.112c-3.888,0-6.408,2.688-6.408,6.84,0,4.1,2.448,6.72,6.264,6.72a5.462,5.462,0,0,0,4.7-2.184,6.539,6.539,0,0,1-.624,3.192,4.314,4.314,0,0,1-3.936,1.8,4.065,4.065,0,0,1-3.72-1.824Zm2.856-9.288c0-2.856,1.488-4.656,3.888-4.656a3.627,3.627,0,0,1,2.328.864,4.425,4.425,0,0,1,1.44,3.552,5.084,5.084,0,0,1-.672,2.736,4.017,4.017,0,0,1-3.336,1.9,3.679,3.679,0,0,1-2.544-1.08A4.632,4.632,0,0,1,136.824,89.208Zm32.808,7.08h3.192a25.2,25.2,0,0,1-.168-3.24V80.4a27.988,27.988,0,0,1,.168-3.216H169.44a24.462,24.462,0,0,1,.168,3.24v2.4c0,.408,0,.864.024,1.032.024.48.024.48.024.768a6.112,6.112,0,0,0-1.224-1.32,5.7,5.7,0,0,0-3.648-1.1c-3.96,0-6.48,2.784-6.48,7.176a7.428,7.428,0,0,0,2.5,6.024,6.1,6.1,0,0,0,4.008,1.224,5.124,5.124,0,0,0,4.848-2.376c-.024.312-.024.576-.024.864ZM161.424,89.4c0-2.856,1.488-4.68,3.816-4.68a4.394,4.394,0,0,1,3.12,1.344,4.984,4.984,0,0,1,1.152,3.192,5.429,5.429,0,0,1-.936,3.216,4.013,4.013,0,0,1-3.216,1.584C162.96,94.056,161.424,92.256,161.424,89.4Zm27.312.792c-.048-.552-.048-.624-.048-.672a9.866,9.866,0,0,0-.7-3.648,6.1,6.1,0,0,0-5.976-3.792c-4.1,0-6.768,2.9-6.768,7.344,0,4.488,2.688,7.32,6.936,7.32a6.816,6.816,0,0,0,4.944-1.848,6.745,6.745,0,0,0,1.464-2.208l-2.832-.912a3.488,3.488,0,0,1-.7,1.248,4.037,4.037,0,0,1-5.88-.144,4.461,4.461,0,0,1-.888-2.688Zm-10.368-2.376a3.6,3.6,0,0,1,3.6-3.264,3.423,3.423,0,0,1,2.592.96,3.767,3.767,0,0,1,1.056,2.3Zm22.8-5.3a12.444,12.444,0,0,0-2.232-.264,4.591,4.591,0,0,0-4.512,2.52V82.512H191.16a18.975,18.975,0,0,1,.168,3.12v7.536a26.322,26.322,0,0,1-.168,3.12h3.432a25.241,25.241,0,0,1-.168-3.12v-4.44a3.863,3.863,0,0,1,.984-2.4,3.426,3.426,0,0,1,2.784-1.176,7.167,7.167,0,0,1,2.136.384Z" transform="translate(834 -461)"/>
      <path id="路径_40019-2" data-name="路径 40019" d="M224.76,93.264a22.952,22.952,0,0,1-3.072.168h-7.2V87.768h5.856a18.807,18.807,0,0,1,3.12.168V84.792a24.978,24.978,0,0,1-3.12.168h-5.832V80.016h6.912a21.493,21.493,0,0,1,3.1.168V77.016a25.642,25.642,0,0,1-3.1.168h-7.248c-1.464,0-2.088-.024-3.048-.072a21.231,21.231,0,0,1,.192,3.1V93.192a19.412,19.412,0,0,1-.192,3.168c.96-.048,1.608-.072,3.048-.072h7.488a20.633,20.633,0,0,1,3.1.168Zm6.048,3.024a21.355,21.355,0,0,1-.192-3.12V88.32c1.056-2.376,2.472-3.576,4.2-3.576a2.257,2.257,0,0,1,2.016.984,3.943,3.943,0,0,1,.408,2.112v5.328a25.507,25.507,0,0,1-.168,3.12h3.48a18.966,18.966,0,0,1-.192-3.12v-5.76a5.337,5.337,0,0,0-.816-3.36,4.742,4.742,0,0,0-4.08-1.776,5.486,5.486,0,0,0-4.9,2.544,9.377,9.377,0,0,0,.048-1.032V82.512h-3.264a19.726,19.726,0,0,1,.192,3.12v7.536a19.921,19.921,0,0,1-.192,3.12Zm25.608-6.1c-.048-.552-.048-.624-.048-.672a9.866,9.866,0,0,0-.7-3.648A6.1,6.1,0,0,0,249.7,82.08c-4.1,0-6.768,2.9-6.768,7.344,0,4.488,2.688,7.32,6.936,7.32a6.816,6.816,0,0,0,4.944-1.848,6.745,6.745,0,0,0,1.464-2.208l-2.832-.912a3.488,3.488,0,0,1-.7,1.248,4.037,4.037,0,0,1-5.88-.144,4.461,4.461,0,0,1-.888-2.688Zm-10.368-2.376a3.6,3.6,0,0,1,3.6-3.264,3.423,3.423,0,0,1,2.592.96,3.767,3.767,0,0,1,1.056,2.3Zm22.8-5.3a12.444,12.444,0,0,0-2.232-.264,4.591,4.591,0,0,0-4.512,2.52V82.512H258.84a18.976,18.976,0,0,1,.168,3.12v7.536a26.326,26.326,0,0,1-.168,3.12h3.432a25.241,25.241,0,0,1-.168-3.12v-4.44a3.863,3.863,0,0,1,.984-2.4,3.426,3.426,0,0,1,2.784-1.176,7.167,7.167,0,0,1,2.136.384ZM270.312,98.5c1.632,1.848,3.216,2.5,6.024,2.5A9.061,9.061,0,0,0,282,99.456c1.392-1.176,2.016-3.024,2.016-5.9v-8.04a22.3,22.3,0,0,1,.168-3h-3.216v1.1a5.772,5.772,0,0,0,.048.792,5.061,5.061,0,0,0-4.584-2.112c-3.888,0-6.408,2.688-6.408,6.84,0,4.1,2.448,6.72,6.264,6.72a5.462,5.462,0,0,0,4.7-2.184,6.539,6.539,0,0,1-.624,3.192,4.314,4.314,0,0,1-3.936,1.8,4.065,4.065,0,0,1-3.72-1.824Zm2.856-9.288c0-2.856,1.488-4.656,3.888-4.656a3.627,3.627,0,0,1,2.328.864,4.425,4.425,0,0,1,1.44,3.552,5.084,5.084,0,0,1-.672,2.736,4.017,4.017,0,0,1-3.336,1.9,3.679,3.679,0,0,1-2.544-1.08A4.632,4.632,0,0,1,273.168,89.208Zm14.04-12.024v3.048h3.528V77.184Zm0,5.328a19.728,19.728,0,0,1,.192,3.12v7.536a21.572,21.572,0,0,1-.192,3.12h3.5a24.11,24.11,0,0,1-.168-3.144V85.656a21.573,21.573,0,0,1,.168-3.144Zm19.416,7.68c-.048-.552-.048-.624-.048-.672a9.866,9.866,0,0,0-.7-3.648A6.1,6.1,0,0,0,299.9,82.08c-4.1,0-6.768,2.9-6.768,7.344,0,4.488,2.688,7.32,6.936,7.32a6.816,6.816,0,0,0,4.944-1.848,6.745,6.745,0,0,0,1.464-2.208l-2.832-.912a3.489,3.489,0,0,1-.7,1.248,4.037,4.037,0,0,1-5.88-.144,4.461,4.461,0,0,1-.888-2.688Zm-10.368-2.376a3.6,3.6,0,0,1,3.6-3.264,3.423,3.423,0,0,1,2.592.96,3.767,3.767,0,0,1,1.056,2.3Zm23.5-5.3v1.1c0,.264.024.528.048.864a5.468,5.468,0,0,0-4.752-2.3,7.11,7.11,0,0,0-3.624.888c-1.92,1.176-3,3.432-3,6.288a7.388,7.388,0,0,0,1.872,5.376,6.345,6.345,0,0,0,4.584,1.728,5.762,5.762,0,0,0,4.92-2.328q-.072,1.224-.072,1.8v1.848a23.921,23.921,0,0,1-.168,3.192h3.384a26.869,26.869,0,0,1-.168-3.168V85.728a24.8,24.8,0,0,1,.168-3.216ZM311.544,89.4c0-2.832,1.56-4.656,3.984-4.656a4.152,4.152,0,0,1,4.1,4.464,5.86,5.86,0,0,1-.576,2.568,4.22,4.22,0,0,1-3.744,2.16C313.032,93.936,311.544,92.136,311.544,89.4Zm24.1-6.888a25.322,25.322,0,0,1,.192,3.12V90.48c-1.08,2.376-2.448,3.552-4.176,3.552a2.986,2.986,0,0,1-1.32-.336c-.744-.456-1.1-1.344-1.1-2.736V85.632a21.479,21.479,0,0,1,.168-3.12h-3.48a22.056,22.056,0,0,1,.192,3.12V91.7a4.479,4.479,0,0,0,1.944,4.152,6.1,6.1,0,0,0,7.8-1.872c-.024.6-.024.672-.024,1.032v1.272H339.1a19.724,19.724,0,0,1-.192-3.12V85.632a17.376,17.376,0,0,1,.192-3.12Zm19.368,7.68c-.048-.552-.048-.624-.048-.672a9.866,9.866,0,0,0-.7-3.648,6.1,6.1,0,0,0-5.976-3.792c-4.1,0-6.768,2.9-6.768,7.344,0,4.488,2.688,7.32,6.936,7.32A6.816,6.816,0,0,0,353.4,94.9a6.745,6.745,0,0,0,1.464-2.208l-2.832-.912a3.489,3.489,0,0,1-.7,1.248,4.037,4.037,0,0,1-5.88-.144,4.461,4.461,0,0,1-.888-2.688ZM344.64,87.816a3.6,3.6,0,0,1,3.6-3.264,3.423,3.423,0,0,1,2.592.96,3.767,3.767,0,0,1,1.056,2.3Zm12.744-10.632a21.642,21.642,0,0,1,.168,3.12V93.168a23.24,23.24,0,0,1-.168,3.12h3.48a24.721,24.721,0,0,1-.168-3.12V80.328a22.235,22.235,0,0,1,.168-3.144Zm6.5,0a21.642,21.642,0,0,1,.168,3.12V93.168a23.24,23.24,0,0,1-.168,3.12h3.48a24.721,24.721,0,0,1-.168-3.12V80.328a22.235,22.235,0,0,1,.168-3.144ZM383.3,90.192c-.048-.552-.048-.624-.048-.672a9.866,9.866,0,0,0-.7-3.648,6.1,6.1,0,0,0-5.976-3.792c-4.1,0-6.768,2.9-6.768,7.344,0,4.488,2.688,7.32,6.936,7.32A6.816,6.816,0,0,0,381.7,94.9a6.745,6.745,0,0,0,1.464-2.208l-2.832-.912a3.489,3.489,0,0,1-.7,1.248,4.037,4.037,0,0,1-5.88-.144,4.461,4.461,0,0,1-.888-2.688Zm-10.368-2.376a3.6,3.6,0,0,1,3.6-3.264,3.423,3.423,0,0,1,2.592.96,3.767,3.767,0,0,1,1.056,2.3Z" transform="translate(834 -461)" fill="#0080f4"/>
    </g>
  </g>
</svg>
