<svg xmlns="http://www.w3.org/2000/svg" width="566.992" height="320.778" viewBox="0 0 566.992 320.778">
  <g id="图2" transform="translate(-982.686 -1007.473)">
    <g id="产品_秘密_02" transform="translate(447.986 -434.493)">
      <path id="路径_6848" data-name="路径 6848" d="M239.056,144.551V132.559h60.22" transform="translate(641.846 1427.101)" fill="none" stroke="#2d3436" stroke-miterlimit="10" stroke-width="0.5" stroke-dasharray="2 1.818 2 1.818 2 1.818"/>
      <path id="路径_6850" data-name="路径 6850" d="M213.461,210.715H174.211" transform="translate(533.257 1325.747)" fill="none" stroke="#2d3436" stroke-miterlimit="10" stroke-width="0.5" stroke-dasharray="2 1.818 2 1.818 2 1.818"/>
      <path id="路径_36971" data-name="路径 36971" d="M0,0H46.716" transform="translate(989.321 1643.948)" fill="none" stroke="#2d3436" stroke-width="0.5" stroke-dasharray="2 1.818 2 1.818 2 1.818"/>
      <path id="路径_36972" data-name="路径 36972" d="M42.548,0h-47.6" transform="translate(605.78 1643.948)" fill="none" stroke="#2d3436" stroke-width="0.5" stroke-dasharray="2 1.818 2 1.818 2 1.818"/>
      <g id="组_21271" data-name="组 21271" transform="translate(645.826 1456.217)">
        <g id="组_21269" data-name="组 21269" transform="translate(0 0)">
          <path id="路径_36901" data-name="路径 36901" d="M1285.454,554.29,1401.181,621.1l-180.312,104.1L1040.556,621.1l115.94-66.938" transform="translate(-1047.847 -419.259)" fill="rgba(0,0,0,0)" stroke="#0c111a" stroke-miterlimit="10" stroke-width="1" opacity="0.2"/>
          <path id="路径_36902" data-name="路径 36902" d="M1275.151,542.269l109.1,62.989-170.911,98.675-170.911-98.676,109-62.934" transform="translate(-1040.318 -417.314)" fill="#fff" stroke="#2d3436" stroke-miterlimit="10" stroke-width="1"/>
          <path id="路径_36903" data-name="路径 36903" d="M1271.883,558.057l78.3,45.205-140.3,81-140.3-81,78.322-45.3" transform="translate(-1036.863 -415.318)" fill="rgba(0,0,0,0)" stroke="#2d3436" stroke-miterlimit="10" stroke-width="0.927"/>
          <path id="路径_36904" data-name="路径 36904" d="M1269.847,567.166l60.493,34.925L1207.873,672.8l-122.467-70.706,60.493-34.926" transform="translate(-1034.852 -414.148)" fill="rgba(0,0,0,0)" stroke="#0080f4" stroke-miterlimit="10" stroke-width="0.81" stroke-dasharray="3"/>
          <path id="路径_36905" data-name="路径 36905" d="M1042.428,598.249v10.828a.059.059,0,0,0,.029.051l170.793,98.607a.059.059,0,0,0,.089-.051V696.856a.061.061,0,0,0-.029-.052L1042.516,598.2A.059.059,0,0,0,1042.428,598.249Z" transform="translate(-1040.318 -410.203)" fill="#fff" stroke="#2d3436" stroke-miterlimit="10" stroke-width="1"/>
          <path id="路径_36906" data-name="路径 36906" d="M1194.085,696.8,1364.878,598.2a.059.059,0,0,1,.089.051v10.828a.057.057,0,0,1-.029.051l-170.794,98.607a.058.058,0,0,1-.088-.051V696.856A.062.062,0,0,1,1194.085,696.8Z" transform="translate(-1021.034 -410.203)" fill="#fff" stroke="#2d3436" stroke-miterlimit="10" stroke-width="1"/>
          <g id="组_21260" data-name="组 21260" transform="translate(92.056 157.839)">
            <path id="路径_36907" data-name="路径 36907" d="M1265,571.443l19.117,11.037a.023.023,0,0,1,0,.041L1203.2,629.239a.029.029,0,0,1-.024,0l-80.917-46.718a.023.023,0,0,1,0-.041l19.084-11.018" transform="translate(-1122.223 -571.443)" fill="rgba(0,0,0,0)" stroke="#0080f4" stroke-miterlimit="10" stroke-width="1"/>
            <path id="路径_36908" data-name="路径 36908" d="M1122.226,581.292v10.334a.023.023,0,0,0,.012.02l80.918,46.718a.024.024,0,0,0,.035-.021V628.01a.021.021,0,0,0-.012-.02l-80.917-46.718A.024.024,0,0,0,1122.226,581.292Z" transform="translate(-1122.226 -570.193)" fill="rgba(0,0,0,0)" stroke="#0c111a" stroke-miterlimit="10" stroke-width="1"/>
            <path id="路径_36909" data-name="路径 36909" d="M1194.067,627.989l80.918-46.718a.023.023,0,0,1,.035.02v10.334a.025.025,0,0,1-.011.02l-80.917,46.718a.024.024,0,0,1-.035-.021V628.01A.023.023,0,0,1,1194.067,627.989Z" transform="translate(-1113.091 -570.193)" fill="rgba(0,0,0,0)" stroke="#0c111a" stroke-miterlimit="10" stroke-width="1"/>
          </g>
          <g id="组_21261" data-name="组 21261" transform="translate(111.047 64.024)">
            <path id="路径_36910" data-name="路径 36910" d="M1235.228,488.213l27.756,16.025a.024.024,0,0,1,0,.042l-61.927,35.753a.022.022,0,0,1-.024,0l-61.927-35.753a.025.025,0,0,1,0-.042l27.721-16" transform="translate(-1139.071 -488.213)" fill="rgba(0,0,0,0)" stroke="#0c111a" stroke-miterlimit="10" stroke-width="1"/>
            <path id="路径_36911" data-name="路径 36911" d="M1139.074,502.488v89.9a.021.021,0,0,0,.012.02l61.927,35.754a.024.024,0,0,0,.035-.02v-89.9a.024.024,0,0,0-.012-.02l-61.927-35.753A.023.023,0,0,0,1139.074,502.488Z" transform="translate(-1139.074 -486.401)" fill="rgba(0,0,0,0)" stroke="#0c111a" stroke-miterlimit="10" stroke-width="1"/>
            <path id="路径_36912" data-name="路径 36912" d="M1194.067,538.22l61.927-35.753a.024.024,0,0,1,.036.02v89.9a.021.021,0,0,1-.012.02l-61.927,35.754a.023.023,0,0,1-.035-.02v-89.9A.026.026,0,0,1,1194.067,538.22Z" transform="translate(-1132.081 -486.401)" fill="rgba(0,0,0,0)" stroke="#0c111a" stroke-miterlimit="10" stroke-width="1"/>
          </g>
          <path id="路径_36913" data-name="路径 36913" d="M1241.705,485.508l33.073,19.1-72.539,41.88L1129.7,504.6l33.073-19.1" transform="translate(-1029.219 -424.533)" fill="#fff" stroke="#0c111a" stroke-miterlimit="10" stroke-width="0.927"/>
          <path id="路径_36914" data-name="路径 36914" d="M1252.863,479.938l21.916,12.653-72.539,41.88-72.538-41.88,22.049-12.73" transform="translate(-1029.219 -425.251)" fill="#fff" stroke="#2d3436" stroke-miterlimit="10" stroke-width="0.927" stroke-dasharray="3"/>
          <path id="路径_36915" data-name="路径 36915" d="M1263.754,474.214l11.025,6.365-72.539,41.88-72.538-41.88,11.024-6.365" transform="translate(-1029.219 -425.969)" fill="#fff" stroke="#0080f4" stroke-miterlimit="10" stroke-width="0.927" stroke-dasharray="3"/>
          <path id="路径_36916" data-name="路径 36916" d="M1129.7,473.292l72.538-41.88,72.539,41.88-72.539,41.88Z" transform="translate(-1029.219 -431.412)" fill="rgba(0,0,0,0)" stroke="#0c111a" stroke-miterlimit="10" stroke-width="0.927" stroke-dasharray="3"/>
          <g id="组_21262" data-name="组 21262" transform="translate(116.051 100.091)">
            <g id="组_21691" data-name="组 21691" opacity="0.5">
              <path id="路径_36918" data-name="路径 36918" d="M1148.842,533.174l-5.329-3.076v6.153l5.329,3.077Z" transform="translate(-1143.513 -518.953)" fill="#0c111a"/>
              <path id="路径_36919" data-name="路径 36919" d="M1148.842,543.062l-5.329-3.077v6.153l5.329,3.076Z" transform="translate(-1143.513 -517.696)" fill="#0c111a"/>
              <path id="路径_36920" data-name="路径 36920" d="M1148.842,552.949l-5.329-3.077v6.153l5.329,3.077Z" transform="translate(-1143.513 -516.439)" fill="#0c111a"/>
              <path id="路径_36921" data-name="路径 36921" d="M1157.394,528.231l-5.329-3.076v6.153l5.329,3.077Z" transform="translate(-1142.426 -519.582)" fill="#0c111a"/>
              <path id="路径_36923" data-name="路径 36923" d="M1157.394,548.005l-5.329-3.077v6.153l5.329,3.077Z" transform="translate(-1142.426 -517.067)" fill="#0c111a"/>
              <path id="路径_36925" data-name="路径 36925" d="M1166.414,543.442l-5.329-3.076v6.153l5.329,3.077Z" transform="translate(-1141.279 -517.648)" fill="#0c111a"/>
              <path id="路径_36926" data-name="路径 36926" d="M1174.848,538.5l-5.329-3.076v6.153l5.329,3.077Z" transform="translate(-1140.206 -518.276)" fill="#0c111a"/>
              <path id="路径_36929" data-name="路径 36929" d="M1166.414,553.33l-5.329-3.077v6.153l5.329,3.077Z" transform="translate(-1141.279 -516.39)" fill="#0c111a"/>
            </g>
            <g id="组_21692" data-name="组 21692">
              <path id="路径_36917" data-name="路径 36917" d="M1148.842,523.287l-5.329-3.076v6.153l5.329,3.077Z" transform="translate(-1143.513 -520.211)" fill="none" stroke="#0c111a" stroke-width="0.6"/>
              <path id="路径_36922" data-name="路径 36922" d="M1157.394,538.118l-5.329-3.077v6.153l5.329,3.077Z" transform="translate(-1142.426 -518.325)" fill="none" stroke="#0c111a" stroke-width="0.6"/>
              <path id="路径_36924" data-name="路径 36924" d="M1166.414,533.555l-5.329-3.077v6.153l5.329,3.077Z" transform="translate(-1141.279 -518.905)" fill="none" stroke="#0c111a" stroke-width="0.6"/>
              <path id="路径_36927" data-name="路径 36927" d="M1182.537,542.859l-5.329-3.077v6.153l5.329,3.077Z" transform="translate(-1139.228 -517.722)" fill="none" stroke="#0c111a" stroke-width="0.6"/>
              <path id="路径_36928" data-name="路径 36928" d="M1174.848,548.386l-5.329-3.076v6.153l5.329,3.077Z" transform="translate(-1140.206 -517.019)" fill="none" stroke="#0c111a" stroke-width="0.6"/>
              <path id="路径_36930" data-name="路径 36930" d="M1157.394,557.892l-5.329-3.077v6.153l5.329,3.077Z" transform="translate(-1142.426 -515.81)" fill="none" stroke="#0c111a" stroke-width="0.6"/>
              <path id="路径_36931" data-name="路径 36931" d="M1148.842,562.836l-5.329-3.077v6.153l5.329,3.077Z" transform="translate(-1143.513 -515.181)" fill="none" stroke="#0c111a" stroke-width="0.6"/>
            </g>
          </g>
          <g id="组_21263" data-name="组 21263" transform="translate(186.683 100.091)">
            <g id="组_21689" data-name="组 21689">
              <path id="路径_36932" data-name="路径 36932" d="M1239.871,523.287l5.329-3.076v6.153l-5.329,3.077Z" transform="translate(-1201.891 -520.211)" fill="none" stroke="#0c111a" stroke-width="0.6"/>
              <path id="路径_36935" data-name="路径 36935" d="M1239.871,552.949l5.329-3.077v6.153l-5.329,3.077Z" transform="translate(-1201.891 -516.439)" fill="none" stroke="#0c111a" stroke-width="0.6"/>
              <path id="路径_36937" data-name="路径 36937" d="M1231.319,538.118l5.329-3.077v6.153l-5.329,3.077Z" transform="translate(-1202.978 -518.325)" fill="none" stroke="#0c111a" stroke-width="0.6"/>
              <path id="路径_36938" data-name="路径 36938" d="M1231.319,548.005l5.329-3.077v6.153l-5.329,3.077Z" transform="translate(-1202.978 -517.067)" fill="none" stroke="#0c111a" stroke-width="0.6"/>
              <path id="路径_36940" data-name="路径 36940" d="M1222.3,543.442l5.329-3.076v6.153L1222.3,549.6Z" transform="translate(-1204.125 -517.648)" fill="none" stroke="#0c111a" stroke-width="0.6"/>
              <path id="路径_36941" data-name="路径 36941" d="M1213.865,538.5l5.329-3.076v6.153l-5.329,3.077Z" transform="translate(-1205.198 -518.276)" fill="none" stroke="#0c111a" stroke-width="0.6"/>
              <path id="路径_36943" data-name="路径 36943" d="M1213.865,548.386l5.329-3.076v6.153l-5.329,3.077Z" transform="translate(-1205.198 -517.019)" fill="none" stroke="#0c111a" stroke-width="0.6"/>
              <path id="路径_36944" data-name="路径 36944" d="M1222.3,553.33l5.329-3.077v6.153l-5.329,3.077Z" transform="translate(-1204.125 -516.39)" fill="none" stroke="#0c111a" stroke-width="0.6"/>
            </g>
            <g id="组_21690" data-name="组 21690" opacity="0.5">
              <path id="路径_36933" data-name="路径 36933" d="M1239.871,533.174l5.329-3.076v6.153l-5.329,3.077Z" transform="translate(-1201.891 -518.953)" fill="#0c111a"/>
              <path id="路径_36934" data-name="路径 36934" d="M1239.871,543.062l5.329-3.077v6.153l-5.329,3.076Z" transform="translate(-1201.891 -517.696)" fill="#0c111a"/>
              <path id="路径_36936" data-name="路径 36936" d="M1231.319,528.231l5.329-3.076v6.153l-5.329,3.077Z" transform="translate(-1202.978 -519.582)" fill="#0c111a"/>
              <path id="路径_36939" data-name="路径 36939" d="M1222.3,533.555l5.329-3.077v6.153l-5.329,3.077Z" transform="translate(-1204.125 -518.905)" fill="#0c111a"/>
              <path id="路径_36942" data-name="路径 36942" d="M1206.176,542.859l5.329-3.077v6.153l-5.329,3.077Z" transform="translate(-1206.176 -517.722)" fill="#0c111a"/>
              <path id="路径_36945" data-name="路径 36945" d="M1231.319,557.892l5.329-3.077v6.153l-5.329,3.077Z" transform="translate(-1202.978 -515.81)" fill="#0c111a"/>
              <path id="路径_36946" data-name="路径 36946" d="M1239.871,562.836l5.329-3.077v6.153l-5.329,3.077Z" transform="translate(-1201.891 -515.181)" fill="#0c111a"/>
            </g>
          </g>
        </g>
      </g>
      <g id="组_21277" data-name="组 21277" transform="translate(1013.69 1591.948)">
        <g id="组_21276" data-name="组 21276" transform="translate(0 20.232)">
          <g id="组_21275" data-name="组 21275" transform="translate(0 35.375)">
            <path id="路径_36969" data-name="路径 36969" d="M1134.373-184.461l5.9,3.405a.078.078,0,0,1,0,.135L1096.5-155.647a.077.077,0,0,1-.078,0l-43.774-25.274a.077.077,0,0,1,0-.135l6.189-3.574" transform="translate(-1052.607 201.131)" fill="none" stroke="#636e72" stroke-miterlimit="10" stroke-width="0.6"/>
            <path id="路径_36970" data-name="路径 36970" d="M1117.142-198.837l16.095,9.293a.077.077,0,0,1,0,.135l-37.6,21.708a.078.078,0,0,1-.078,0l-37.6-21.708a.077.077,0,0,1,0-.135l16.095-9.293" transform="translate(-1051.748 198.837)" fill="none" stroke="#636e72" stroke-width="0.6"/>
            <path id="路径_36971-2" data-name="路径 36971" d="M1057.857-190.651v10.718a.077.077,0,0,0,.039.067l37.6,21.714a.078.078,0,0,0,.117-.067v-10.718a.079.079,0,0,0-.038-.067l-37.6-21.714A.078.078,0,0,0,1057.857-190.651Z" transform="translate(-1051.759 200.146)" fill="none" stroke="#636e72" stroke-width="0.6"/>
            <path id="路径_36972-2" data-name="路径 36972" d="M1090.479-158.153l37.6-21.708a.079.079,0,0,0,.038-.067v-10.718a.078.078,0,0,0-.117-.067l-37.6,21.708a.078.078,0,0,0-.039.067v10.718A.078.078,0,0,0,1090.479-158.153Z" transform="translate(-1046.51 200.147)" fill="none" stroke="#636e72" stroke-width="0.6"/>
          </g>
          <g id="组_21276-2" data-name="组 21276" transform="translate(22.185 0)">
            <path id="路径_36973" data-name="路径 36973" d="M1071.8-216.867l21.522-12.427h.072l21.522,12.427a.071.071,0,0,1,0,.123L1093.4-204.318h-.072L1071.8-216.744A.071.071,0,0,1,1071.8-216.867Z" transform="translate(-1071.698 229.294)" fill="none" stroke="#636e72" stroke-width="0.6"/>
            <path id="路径_36974" data-name="路径 36974" d="M1071.708-218.425v33.518l.036.062,21.522,12.427a.071.071,0,0,0,.107-.062V-206l-.036-.063-21.522-12.427A.072.072,0,0,0,1071.708-218.425Z" transform="translate(-1071.708 231.037)" fill="none" stroke="#636e72" stroke-width="0.6"/>
            <path id="路径_36975" data-name="路径 36975" d="M1090.469-172.415l21.522-12.427.036-.062v-33.518a.072.072,0,0,0-.107-.063L1090.4-206.057l-.036.063v33.518A.071.071,0,0,0,1090.469-172.415Z" transform="translate(-1068.696 231.038)" fill="none" stroke="#636e72" stroke-width="0.6"/>
          </g>
        </g>
        <ellipse id="椭圆_1625" data-name="椭圆 1625" cx="8.5" cy="0.5" rx="8.5" ry="0.5" transform="translate(35.324 34.545)" fill="#dfe6e9" opacity="0.53"/>
        <g id="组_21688" data-name="组 21688" transform="translate(-1229.089 -259.826)">
          <path id="路径_37383" data-name="路径 37383" d="M1318.323,268.322a6.186,6.186,0,0,1,2.219-1.048,4.709,4.709,0,0,1,2,.92A9.746,9.746,0,0,1,1318.323,268.322Z" transform="translate(-47.322 -1.755)" fill="#fff" fill-rule="evenodd"/>
          <path id="路径_37384" data-name="路径 37384" d="M1314.388,273.457a8.757,8.757,0,0,0,5-.169c.132.111.262.223.393.335a8.8,8.8,0,0,1-5.848.164Z" transform="translate(-43.83 -6.54)" fill="#fff" fill-rule="evenodd"/>
          <path id="路径_37385" data-name="路径 37385" d="M1280.61,276.133a3.514,3.514,0,0,1,.851-2.179,3.8,3.8,0,0,0,1.47,3.3,3.906,3.906,0,0,0-.635,1.928A3.568,3.568,0,0,1,1280.61,276.133Z" transform="translate(-17.313 -7.069)" fill="#fff" fill-rule="evenodd"/>
          <path id="路径_37386" data-name="路径 37386" d="M1340.317,276.484c.223-.089.445-.182.666-.276a14.991,14.991,0,0,1,2.353,3.015,10.431,10.431,0,0,1-1.273.17C1341.456,278.438,1340.925,277.437,1340.317,276.484Z" transform="translate(-64.82 -8.863)" fill="#fff" fill-rule="evenodd"/>
          <path id="路径_37387" data-name="路径 37387" d="M1301.648,277.088c.271.1.546.187.822.269a27.093,27.093,0,0,0-2.318,2.55,2.293,2.293,0,0,1-1.194-.155A22.956,22.956,0,0,1,1301.648,277.088Z" transform="translate(-31.916 -9.563)" fill="#fff" fill-rule="evenodd"/>
          <path id="路径_37388" data-name="路径 37388" d="M1360.921,279.654a4.319,4.319,0,0,0,2.045-2.995,4.618,4.618,0,0,1-1.5,5.214c-.237-.173-.587-.275-.675-.587A3.844,3.844,0,0,1,1360.921,279.654Z" transform="translate(-81.065 -9.221)" fill="#fff" fill-rule="evenodd"/>
          <path id="路径_37389" data-name="路径 37389" d="M1335.76,278.115c.225-.058.449-.122.675-.187.472.971,1.063,1.88,1.527,2.854a11.478,11.478,0,0,1-1.621.109C1336.13,279.97,1335.974,279.037,1335.76,278.115Z" transform="translate(-61.194 -10.231)" fill="#fff" fill-rule="evenodd"/>
          <path id="路径_37390" data-name="路径 37390" d="M1306.712,281.293c.713-.861,1.391-1.75,2.178-2.547.3.047.6.094.9.142-.489.827-.814,1.737-1.286,2.572A17.651,17.651,0,0,1,1306.712,281.293Z" transform="translate(-38.085 -10.882)" fill="#fff" fill-rule="evenodd"/>
          <path id="路径_37391" data-name="路径 37391" d="M1328.587,279.3a3.361,3.361,0,0,1,.89-.054c.151.9.289,1.8.465,2.7a9.877,9.877,0,0,1-1.714.027C1328.282,281.072,1328.524,280.2,1328.587,279.3Z" transform="translate(-55.202 -11.263)" fill="#fff" fill-rule="evenodd"/>
          <path id="路径_37392" data-name="路径 37392" d="M1318.649,279.648c.389.006.776,0,1.164-.007-.155.885-.414,1.75-.492,2.646-.6-.036-1.2-.033-1.8-.047C1317.886,281.372,1318.273,280.513,1318.649,279.648Z" transform="translate(-46.682 -11.594)" fill="#fff" fill-rule="evenodd"/>
          <path id="路径_37393" data-name="路径 37393" d="M1382.032,285.765a3.25,3.25,0,0,1,1.184-1.706c.033,1.994,0,3.99.172,5.978-.43.011-.859.04-1.289.061A24.574,24.574,0,0,1,1382.032,285.765Z" transform="translate(-97.934 -15.109)" fill="#fff" fill-rule="evenodd"/>
          <path id="路径_37394" data-name="路径 37394" d="M1291,291.129c.155-.473.362-1.136.963-1.16a5.847,5.847,0,0,0-.695,2.467C1290.8,292.188,1290.882,291.558,1291,291.129Z" transform="translate(-25.513 -19.81)" fill="#fff" fill-rule="evenodd"/>
          <path id="路径_37395" data-name="路径 37395" d="M1355.056,291.983a2.333,2.333,0,0,1,.462-2.028l.444.02c.006.678-.346,1.341-.129,2.015.1.425.533.625.869.841a2.277,2.277,0,0,1-.6.352A1.931,1.931,0,0,1,1355.056,291.983Z" transform="translate(-76.48 -19.799)" fill="#fff" fill-rule="evenodd"/>
          <path id="路径_37396" data-name="路径 37396" d="M1294.644,293.437a4.722,4.722,0,0,1,.5-2.053,13.936,13.936,0,0,0,3.283.532,16.9,16.9,0,0,0,2.143.1,19.135,19.135,0,0,0,3.714,0,16.805,16.805,0,0,0,2.471-.241,2.72,2.72,0,0,0,.21,2.249,29.614,29.614,0,0,1-5.385.268c-1.327.067-2.633-.22-3.953-.281A11.259,11.259,0,0,1,1294.644,293.437Z" transform="translate(-28.484 -20.936)" fill="#fff" fill-rule="evenodd"/>
          <path id="路径_37397" data-name="路径 37397" d="M1292.73,303.439a13.975,13.975,0,0,0,3.837.658,29.542,29.542,0,0,0,8.872-.108,2.971,2.971,0,0,0,1.031.275,15,15,0,0,1-.124,5.662,16.508,16.508,0,0,1-1.779,4.734,4.913,4.913,0,0,1,1.887.586c.743.478,1.194,1.293,1.964,1.739a2.523,2.523,0,0,0,2.041.292c.205-.258.4-.523.594-.79.038.261.079.523.126.784a10.214,10.214,0,0,0,1.19.188c-.4.241-.893.245-1.3.469-.027.21-.043.42-.05.63a2,2,0,0,0-.552-.5,10.159,10.159,0,0,1-1.265-.008,8.5,8.5,0,0,1-2.008-.871,3.861,3.861,0,0,0-3.107-.064c-1.234.54-2.317,1.469-3.689,1.648a4.533,4.533,0,0,1-3.453-.533,7.39,7.39,0,0,1-2.7-3.332,1.5,1.5,0,0,0-.683-2.552,17.2,17.2,0,0,1-1.089-3.956,11.028,11.028,0,0,1,.254-4.951Zm.8,3.192h0a2.319,2.319,0,0,0,1.029,2.065,1.6,1.6,0,0,0,2.172-.322,1.973,1.973,0,0,0-.461-.377c-.98-.587-1.909-1.252-2.878-1.853-.371.075.031.359.138.488Zm9.354.106h0c-.908.554-1.913.932-2.811,1.5a1.542,1.542,0,0,0,2.052.607,2.273,2.273,0,0,0,1.27-2l.425-.357C1303.471,306.3,1303.173,306.59,1302.881,306.737Z" transform="translate(-26.622 -30.527)" fill="#fff" fill-rule="evenodd"/>
          <path id="路径_37398" data-name="路径 37398" d="M1376.488,315.638c.584-.668,1.578-.569,2.384-.573.415.082,1,.052,1.228.478-.76.1-1.514-.371-2.252-.048C1377.407,315.58,1376.915,315.957,1376.488,315.638Z" transform="translate(-93.596 -39.774)" fill="#fff" fill-rule="evenodd"/>
          <path id="路径_37399" data-name="路径 37399" d="M1367.2,318.77a1.337,1.337,0,0,1,1.225-.35c.177.227.516.53.291.835-1.144.87-2.028,2.124-3.406,2.659a3.746,3.746,0,0,1-1.927.05,19.314,19.314,0,0,0,.313-2.17,10.245,10.245,0,0,1,1.5,1.245c.133-.414.576-.57.852-.868A12.263,12.263,0,0,0,1367.2,318.77Z" transform="translate(-83.167 -42.431)" fill="#fff" fill-rule="evenodd"/>
          <path id="路径_37400" data-name="路径 37400" d="M1299.873,320.376c.733.542,1.534.98,2.284,1.489a1.488,1.488,0,0,1-1.974-.688A5.316,5.316,0,0,1,1299.873,320.376Z" transform="translate(-32.644 -44.001)" fill="#fff" fill-rule="evenodd"/>
          <path id="路径_37401" data-name="路径 37401" d="M1333.18,322.384a18.951,18.951,0,0,0,2.4-1.259,2.2,2.2,0,0,1-1.245,1.468A1.23,1.23,0,0,1,1333.18,322.384Z" transform="translate(-59.142 -44.597)" fill="#fff" fill-rule="evenodd"/>
          <path id="路径_37402" data-name="路径 37402" d="M1383.288,326.638c.3-.329.644-.6.957-.914.011.432.027.865.02,1.3a1.175,1.175,0,0,1-.773.166C1383.216,327.226,1383.112,326.8,1383.288,326.638Z" transform="translate(-98.937 -48.256)" fill="#fff" fill-rule="evenodd"/>
          <path id="路径_37403" data-name="路径 37403" d="M1271.94,332.274c-.261-.013.071-.138.136-.126a2.463,2.463,0,0,1,1.634.281,8.023,8.023,0,0,1,1.507,1.468,6.584,6.584,0,0,1,1.147,4.231,6.681,6.681,0,0,1-.756,3.105,2.316,2.316,0,0,1-.888,1.045,6.959,6.959,0,0,0,.991-4.424,7.5,7.5,0,0,0-1.614-4.295A2.615,2.615,0,0,0,1271.94,332.274Z" transform="translate(-10.342 -53.329)" fill="#fff" fill-rule="evenodd"/>
          <path id="路径_37404" data-name="路径 37404" d="M1261.639,334.825a1.862,1.862,0,0,1,1.611-.73,15.2,15.2,0,0,0-.985,1.686,35.37,35.37,0,0,0-1.473,3.392A7.5,7.5,0,0,1,1261.639,334.825Z" transform="translate(-1.532 -54.915)" fill="#fff" fill-rule="evenodd"/>
          <path id="路径_37405" data-name="路径 37405" d="M1262.345,337.682a18.868,18.868,0,0,1,1.62-3.039,2.574,2.574,0,0,1,1.239.963c-.381.72-.692,1.477-1.086,2.194-.347-.227-.882-.527-1.236-.155a2.648,2.648,0,0,0-.516,1.252,3.962,3.962,0,0,0,.261,1.72,16.8,16.8,0,0,1-.752,1.56,12.973,12.973,0,0,1-.594-2A21.775,21.775,0,0,1,1262.345,337.682Z" transform="translate(-1.941 -55.351)" fill="#fff" fill-rule="evenodd"/>
          <path id="路径_37406" data-name="路径 37406" d="M1292.979,340.5a2.355,2.355,0,0,1-.172-1.758c.2.578.374,1.167.628,1.727Z" transform="translate(-26.951 -58.613)" fill="#fff" fill-rule="evenodd"/>
          <path id="路径_37407" data-name="路径 37407" d="M1276.131,342.785c.4-.709.76-1.439,1.09-2.184a6.4,6.4,0,0,1,1.012,1.747c-.5.84-.883,1.743-1.4,2.571A3.515,3.515,0,0,0,1276.131,342.785Z" transform="translate(-13.755 -60.091)" fill="#fff" fill-rule="evenodd"/>
          <path id="路径_37408" data-name="路径 37408" d="M1294.741,349.015c.445-.027,1.018-.075,1.266.39a1.163,1.163,0,0,1-.979,1.752A12.688,12.688,0,0,0,1294.741,349.015Z" transform="translate(-28.561 -66.772)" fill="#fff" fill-rule="evenodd"/>
          <path id="路径_37409" data-name="路径 37409" d="M1268.017,351.053a2.221,2.221,0,0,1,.54-1.1,2.326,2.326,0,0,1,1.419,2.388c.014.54-.058,1.293-.692,1.449-.428-.092-.633-.533-.834-.876A3.741,3.741,0,0,1,1268.017,351.053Z" transform="translate(-7.292 -67.53)" fill="#fff" fill-rule="evenodd"/>
          <path id="路径_37410" data-name="路径 37410" d="M1272.344,354.494c.519-1.168,1.19-2.259,1.778-3.392a7.9,7.9,0,0,1,.342,1.849,9.318,9.318,0,0,1-.937,1.745c-.584,1.038-1.211,2.052-1.785,3.1-.33-.193-.651-.4-.964-.621.3-.506.539-1.043.841-1.546C1271.845,355.238,1272.147,354.9,1272.344,354.494Z" transform="translate(-9.496 -68.446)" fill="#fff" fill-rule="evenodd"/>
          <path id="路径_37411" data-name="路径 37411" d="M1279.3,363.677a5.112,5.112,0,0,1-1.357,4.024c-.282.318-.723.208-1.093.2C1277.6,366.459,1278.572,365.135,1279.3,363.677Z" transform="translate(-14.324 -78.45)" fill="#fff" fill-rule="evenodd"/>
          <path id="路径_37412" data-name="路径 37412" d="M1265.668,365.758c.282.464.635,1.059,1.268,1-.421.607-.677,1.306-1.057,1.937a9.843,9.843,0,0,1-.97-1.5A10.083,10.083,0,0,0,1265.668,365.758Z" transform="translate(-4.828 -80.105)" fill="#fff" fill-rule="evenodd"/>
          <path id="路径_37413" data-name="路径 37413" d="M1269.557,267.113c1.129-.808,2.236-1.824,3.656-2.045a5.388,5.388,0,0,1,2.9,1.554,19.077,19.077,0,0,1,2.69,3.291.825.825,0,0,1,1.031.164,4.4,4.4,0,0,0,1.655-2.512c.157-.724.728-.511.919.258a4.8,4.8,0,0,1-1.528,4.941c-.284.228-.343.617-.613.858a25.211,25.211,0,0,1,.274,3.42,3.339,3.339,0,0,1,1.445,1.029,5.919,5.919,0,0,0,1.653-1.815c-.313.075-.78.155-.9-.245-.21-.607.583-.843,1.036-.916.036-1.581-.3-3.182.041-4.746a3.816,3.816,0,0,1,1.158-1.6c.476-.343.528-.322.589.161.166,1.321.05,2.674.153,4,.059.681.094,1.364.108,2.048.339.129.777.183.967.536a.521.521,0,0,1-.156.581,1.927,1.927,0,0,1-.693.03,1.061,1.061,0,0,1-.285,1.2c-.016.34.011.684.014,1.025.005.564-.03.856-.695.967a.879.879,0,0,1-1.055-.557c-.814.579-1.659,1.422-2.744,1.268a5.464,5.464,0,0,1-1.034-.2,18.916,18.916,0,0,1-1.476,4.1,4.28,4.28,0,0,1,2.711,1.665,2.524,2.524,0,0,0,1.947.925c.505,0,.653-.546.927-.88.36-.44.484-.243.548.2.035.239.043.484.1.719.453.076.943.028,1.393.124.578.123.512.19.046.432a8.567,8.567,0,0,1-1.553.533c.022.241.044.484.042.726,0,.429-.05.467-.428.147-.223-.189-.4-.445-.623-.635a3.986,3.986,0,0,1-1.319-.006c-.913-.173-1.616-.883-2.551-1a3.8,3.8,0,0,0-3.183.642,6.989,6.989,0,0,1-4.492,1.285,5.235,5.235,0,0,1-3.573-1.985,6.308,6.308,0,0,1-1.286-2.165c-.3.092-.615.149-.923.224a7.331,7.331,0,0,1-.669,2.986,3.681,3.681,0,0,1-1.668,1.762,2.336,2.336,0,0,1-2.018.125,5.809,5.809,0,0,1-2.886-3.789,8.19,8.19,0,0,1-.008-4.831,5.178,5.178,0,0,1,1.175-2.046,3.04,3.04,0,0,1,2.7-.532c.981.279,1.534,1.2,2.23,1.87a6.464,6.464,0,0,1,.352-1,25.14,25.14,0,0,1-.391-2.965,19.907,19.907,0,0,1,.325-3.373c-.451-.437-1.065-.654-1.48-1.129a3.909,3.909,0,0,1-.636-4.793c.613-.935.915-.71.969.2a3.616,3.616,0,0,0,1.419,2.529.937.937,0,0,1,.893.173,16.971,16.971,0,0,1,2.8-2.934Zm1.443-.546h0a9.746,9.746,0,0,0,4.223-.128,4.709,4.709,0,0,0-2-.92,6.189,6.189,0,0,0-2.219,1.048Zm-.442.35h0l-.455.33a8.8,8.8,0,0,0,5.848-.164c-.131-.112-.261-.224-.393-.335a8.758,8.758,0,0,1-5,.169Zm-7.261,2.147h0a3.567,3.567,0,0,0,1.686,3.052,3.906,3.906,0,0,1,.635-1.928,3.8,3.8,0,0,1-1.47-3.3,3.514,3.514,0,0,0-.851,2.179Zm12.2-1.442h0c.608.953,1.139,1.954,1.745,2.908a10.431,10.431,0,0,0,1.273-.17,14.991,14.991,0,0,0-2.353-3.015c-.221.095-.444.187-.666.276Zm-5.766-.1h0a22.955,22.955,0,0,0-2.69,2.664,2.292,2.292,0,0,0,1.194.155,27.08,27.08,0,0,1,2.318-2.55c-.276-.082-.552-.172-.822-.269Zm10.124,2.907h0a3.842,3.842,0,0,0-.133,1.632c.088.312.438.414.675.587a4.618,4.618,0,0,0,1.5-5.214,4.32,4.32,0,0,1-2.045,2.995Zm-5.29-2.548h0c.214.922.37,1.855.581,2.776a11.473,11.473,0,0,0,1.621-.109c-.464-.974-1.055-1.883-1.527-2.854-.225.065-.45.129-.675.187Zm-5.938,2.527h0a17.651,17.651,0,0,0,1.791.167c.472-.835.8-1.745,1.286-2.572-.3-.048-.6-.1-.9-.142-.787.8-1.465,1.686-2.178,2.547Zm4.757-2.374h0c-.062.9-.3,1.771-.359,2.67a9.878,9.878,0,0,0,1.714-.027c-.176-.9-.315-1.8-.465-2.7a3.361,3.361,0,0,0-.891.054Zm-1.418.017h0c-.376.865-.763,1.724-1.13,2.592.6.014,1.2.011,1.8.047.078-.9.338-1.761.492-2.646-.388.009-.776.013-1.164.007Zm12.132,2.6h0a24.574,24.574,0,0,0,.067,4.333c.429-.021.859-.05,1.289-.061-.175-1.988-.139-3.984-.172-5.978a3.25,3.25,0,0,0-1.184,1.706Zm-18.609.662h0c-.121.43-.2,1.059.268,1.307a5.849,5.849,0,0,1,.695-2.467c-.6.024-.808.686-.963,1.16Zm13.086.865h0a1.931,1.931,0,0,0,1.047,1.2,2.276,2.276,0,0,0,.6-.352c-.336-.215-.766-.415-.869-.841-.217-.674.135-1.337.129-2.015l-.444-.02a2.333,2.333,0,0,0-.462,2.028Zm-12.416.318h0a11.258,11.258,0,0,0,2.978.579c1.32.061,2.626.347,3.953.281a29.614,29.614,0,0,0,5.385-.268,2.72,2.72,0,0,1-.21-2.249,16.805,16.805,0,0,1-2.471.241,19.135,19.135,0,0,1-3.714,0,16.9,16.9,0,0,1-2.143-.1,13.937,13.937,0,0,1-3.283-.532,4.72,4.72,0,0,0-.5,2.053Zm-.053.411h0a11.028,11.028,0,0,0-.254,4.951,17.185,17.185,0,0,0,1.089,3.956,1.5,1.5,0,0,1,.683,2.552,7.39,7.39,0,0,0,2.7,3.332,4.533,4.533,0,0,0,3.453.533c1.373-.179,2.456-1.108,3.689-1.648a3.861,3.861,0,0,1,3.107.064,8.494,8.494,0,0,0,2.008.871,10.157,10.157,0,0,0,1.265.008,2.007,2.007,0,0,1,.552.5c.007-.21.023-.42.05-.63.406-.224.9-.228,1.3-.469a10.207,10.207,0,0,1-1.19-.189c-.047-.261-.088-.523-.126-.784-.193.267-.389.532-.594.79a2.523,2.523,0,0,1-2.041-.292c-.77-.445-1.221-1.261-1.964-1.738a4.912,4.912,0,0,0-1.887-.586,16.509,16.509,0,0,0,1.78-4.735,15,15,0,0,0,.123-5.662,2.973,2.973,0,0,1-1.031-.275,29.543,29.543,0,0,1-8.872.108,13.976,13.976,0,0,1-3.837-.658Zm16.784,2.952h0c.427.319.919-.058,1.36-.143.737-.323,1.492.152,2.252.048-.232-.425-.812-.4-1.228-.478-.806,0-1.8-.1-2.384.573Zm1.137.475h0a12.266,12.266,0,0,1-1.15,1.4c-.277.3-.719.454-.852.868a10.245,10.245,0,0,0-1.5-1.245,19.315,19.315,0,0,1-.313,2.17,3.746,3.746,0,0,0,1.927-.05c1.378-.535,2.262-1.788,3.406-2.659.225-.305-.113-.608-.291-.835a1.337,1.337,0,0,0-1.225.35Zm.322,2.043h0c-.176.163-.072.587.2.547a1.175,1.175,0,0,0,.773-.166c.007-.431-.008-.864-.02-1.3-.313.312-.662.586-.957.914Zm-22.754.562h0a2.616,2.616,0,0,1,2.158,1.285,7.5,7.5,0,0,1,1.614,4.295,6.96,6.96,0,0,1-.991,4.424,2.316,2.316,0,0,0,.888-1.045,6.682,6.682,0,0,0,.756-3.105,6.585,6.585,0,0,0-1.147-4.231,8.027,8.027,0,0,0-1.507-1.468,2.463,2.463,0,0,0-1.634-.281c-.065-.011-.4.113-.136.126Zm-1.49.966h0a7.5,7.5,0,0,0-.848,4.347,35.371,35.371,0,0,1,1.473-3.392,15.175,15.175,0,0,1,.985-1.686,1.862,1.862,0,0,0-1.611.73Zm.3,2.42h0a21.775,21.775,0,0,0-1.064,2.49,12.974,12.974,0,0,0,.594,2,16.828,16.828,0,0,0,.751-1.56,3.964,3.964,0,0,1-.261-1.72,2.65,2.65,0,0,1,.516-1.252c.354-.373.889-.072,1.236.155.394-.716.7-1.473,1.086-2.194a2.574,2.574,0,0,0-1.239-.963,18.869,18.869,0,0,0-1.621,3.039Zm5.625-.442h0l.457-.031c-.254-.56-.428-1.149-.628-1.727a2.355,2.355,0,0,0,.172,1.758Zm-3.653.805h0a3.515,3.515,0,0,1,.7,2.134c.52-.828.9-1.731,1.4-2.571a6.4,6.4,0,0,0-1.012-1.747c-.33.745-.689,1.475-1.09,2.184Zm3.8-.451h0a12.688,12.688,0,0,1,.288,2.143,1.163,1.163,0,0,0,.978-1.752c-.248-.465-.821-.417-1.266-.39Zm-5.455,1.28h0a3.744,3.744,0,0,0,.434,1.859c.2.343.406.784.834.876.634-.156.706-.909.692-1.449a2.325,2.325,0,0,0-1.419-2.388,2.223,2.223,0,0,0-.54,1.1Zm2.123,2.525h0c-.2.406-.5.745-.726,1.132-.3.5-.543,1.039-.841,1.546.313.217.634.428.964.621.574-1.043,1.2-2.057,1.785-3.1a9.318,9.318,0,0,0,.937-1.745,7.91,7.91,0,0,0-.342-1.849c-.589,1.133-1.259,2.223-1.778,3.392Zm2.124-.821h0c-.725,1.458-1.693,2.782-2.45,4.223.37.01.811.119,1.093-.2a5.112,5.112,0,0,0,1.357-4.024Zm-4.132.425h0a10.086,10.086,0,0,1-.759,1.433,9.86,9.86,0,0,0,.97,1.5c.38-.631.635-1.33,1.057-1.937C1261.475,286.712,1261.122,286.116,1260.84,285.653Z" fill="#0080f4" stroke="#0080f4" stroke-width="0.25" fill-rule="evenodd"/>
          <path id="路径_37414" data-name="路径 37414" d="M1297.15,317.153c-.106-.129-.509-.413-.138-.488.97.6,1.9,1.266,2.878,1.853a1.974,1.974,0,0,1,.461.377,1.6,1.6,0,0,1-2.172.322,2.319,2.319,0,0,1-1.029-2.065Zm.325.271h0a5.317,5.317,0,0,0,.311.8,1.488,1.488,0,0,0,1.974.688C1299.009,318.4,1298.207,317.965,1297.474,317.424Z" transform="translate(-30.245 -41.049)" fill="#0080f4" stroke="#0080f4" stroke-width="0.25" fill-rule="evenodd"/>
          <path id="路径_37415" data-name="路径 37415" d="M1333.1,318.353c.292-.147.59-.438.937-.254l-.425.357a2.273,2.273,0,0,1-1.27,2,1.542,1.542,0,0,1-2.052-.607c.9-.567,1.9-.945,2.811-1.5Zm-2.221,1.577h0a1.23,1.23,0,0,0,1.154.209,2.2,2.2,0,0,0,1.245-1.468A18.951,18.951,0,0,1,1330.884,319.93Z" transform="translate(-56.846 -42.142)" fill="#0080f4" stroke="#0080f4" stroke-width="0.25" fill-rule="evenodd"/>
        </g>
      </g>
      <g id="组_21276-3" data-name="组 21276" transform="translate(918.887 1532.065)">
        <g id="组_21275-2" data-name="组 21275" transform="translate(0 35.375)">
          <path id="路径_36969-2" data-name="路径 36969" d="M1134.373-184.461l5.9,3.405a.078.078,0,0,1,0,.135L1096.5-155.647a.077.077,0,0,1-.078,0l-43.774-25.274a.077.077,0,0,1,0-.135l6.189-3.574" transform="translate(-1052.607 201.131)" fill="none" stroke="#636e72" stroke-miterlimit="10" stroke-width="0.6"/>
          <path id="路径_36970-2" data-name="路径 36970" d="M1117.142-198.837l16.095,9.293a.077.077,0,0,1,0,.135l-37.6,21.708a.078.078,0,0,1-.078,0l-37.6-21.708a.077.077,0,0,1,0-.135l16.095-9.293" transform="translate(-1051.748 198.837)" fill="none" stroke="#636e72" stroke-width="0.6"/>
          <path id="路径_36971-3" data-name="路径 36971" d="M1057.857-190.651v10.718a.077.077,0,0,0,.039.067l37.6,21.714a.078.078,0,0,0,.117-.067v-10.718a.079.079,0,0,0-.038-.067l-37.6-21.714A.078.078,0,0,0,1057.857-190.651Z" transform="translate(-1051.759 200.146)" fill="none" stroke="#636e72" stroke-width="0.6"/>
          <path id="路径_36972-3" data-name="路径 36972" d="M1090.479-158.153l37.6-21.708a.079.079,0,0,0,.038-.067v-10.718a.078.078,0,0,0-.117-.067l-37.6,21.708a.078.078,0,0,0-.039.067v10.718A.078.078,0,0,0,1090.479-158.153Z" transform="translate(-1046.51 200.147)" fill="none" stroke="#636e72" stroke-width="0.6"/>
        </g>
        <g id="组_21276-4" data-name="组 21276" transform="translate(22.185 0)">
          <path id="路径_36973-2" data-name="路径 36973" d="M1071.8-216.867l21.522-12.427h.072l21.522,12.427a.071.071,0,0,1,0,.123L1093.4-204.318h-.072L1071.8-216.744A.071.071,0,0,1,1071.8-216.867Z" transform="translate(-1071.698 229.294)" fill="none" stroke="#636e72" stroke-width="0.6"/>
          <path id="路径_36974-2" data-name="路径 36974" d="M1071.708-218.425v33.518l.036.062,21.522,12.427a.071.071,0,0,0,.107-.062V-206l-.036-.063-21.522-12.427A.072.072,0,0,0,1071.708-218.425Z" transform="translate(-1071.708 231.037)" fill="none" stroke="#636e72" stroke-width="0.6"/>
          <path id="路径_36975-2" data-name="路径 36975" d="M1090.469-172.415l21.522-12.427.036-.062v-33.518a.072.072,0,0,0-.107-.063L1090.4-206.057l-.036.063v33.518A.071.071,0,0,0,1090.469-172.415Z" transform="translate(-1068.696 231.038)" fill="none" stroke="#636e72" stroke-width="0.6"/>
        </g>
      </g>
      <ellipse id="椭圆_1625-2" data-name="椭圆 1625" cx="8.5" cy="1" rx="8.5" ry="1" transform="translate(954.014 1545.493)" fill="#dfe6e9" opacity="0.53"/>
      <g id="组_21278" data-name="组 21278" transform="translate(535 1591.948)">
        <g id="组_21276-5" data-name="组 21276" transform="translate(0 20.232)">
          <g id="组_21275-3" data-name="组 21275" transform="translate(0 35.375)">
            <path id="路径_36969-3" data-name="路径 36969" d="M1134.373-184.461l5.9,3.405a.078.078,0,0,1,0,.135L1096.5-155.647a.077.077,0,0,1-.078,0l-43.774-25.274a.077.077,0,0,1,0-.135l6.189-3.574" transform="translate(-1052.607 201.131)" fill="none" stroke="#636e72" stroke-miterlimit="10" stroke-width="0.6"/>
            <path id="路径_36970-3" data-name="路径 36970" d="M1117.142-198.837l16.095,9.293a.077.077,0,0,1,0,.135l-37.6,21.708a.078.078,0,0,1-.078,0l-37.6-21.708a.077.077,0,0,1,0-.135l16.095-9.293" transform="translate(-1051.748 198.837)" fill="none" stroke="#636e72" stroke-width="0.6"/>
            <path id="路径_36971-4" data-name="路径 36971" d="M1057.857-190.651v10.718a.077.077,0,0,0,.039.067l37.6,21.714a.078.078,0,0,0,.117-.067v-10.718a.079.079,0,0,0-.038-.067l-37.6-21.714A.078.078,0,0,0,1057.857-190.651Z" transform="translate(-1051.759 200.146)" fill="none" stroke="#636e72" stroke-width="0.6"/>
            <path id="路径_36972-4" data-name="路径 36972" d="M1090.479-158.153l37.6-21.708a.079.079,0,0,0,.038-.067v-10.718a.078.078,0,0,0-.117-.067l-37.6,21.708a.078.078,0,0,0-.039.067v10.718A.078.078,0,0,0,1090.479-158.153Z" transform="translate(-1046.51 200.147)" fill="none" stroke="#636e72" stroke-width="0.6"/>
          </g>
          <g id="组_21276-6" data-name="组 21276" transform="translate(22.185 0)">
            <path id="路径_36973-3" data-name="路径 36973" d="M1071.8-216.867l21.522-12.427h.072l21.522,12.427a.071.071,0,0,1,0,.123L1093.4-204.318h-.072L1071.8-216.744A.071.071,0,0,1,1071.8-216.867Z" transform="translate(-1071.698 229.294)" fill="none" stroke="#636e72" stroke-width="0.6"/>
            <path id="路径_36974-3" data-name="路径 36974" d="M1071.708-218.425v33.518l.036.062,21.522,12.427a.071.071,0,0,0,.107-.062V-206l-.036-.063-21.522-12.427A.072.072,0,0,0,1071.708-218.425Z" transform="translate(-1071.708 231.037)" fill="none" stroke="#636e72" stroke-width="0.6"/>
            <path id="路径_36975-3" data-name="路径 36975" d="M1090.469-172.415l21.522-12.427.036-.062v-33.518a.072.072,0,0,0-.107-.063L1090.4-206.057l-.036.063v33.518A.071.071,0,0,0,1090.469-172.415Z" transform="translate(-1068.696 231.038)" fill="none" stroke="#636e72" stroke-width="0.6"/>
          </g>
        </g>
        <ellipse id="椭圆_1625-3" data-name="椭圆 1625" cx="8.5" cy="0.5" rx="8.5" ry="0.5" transform="translate(35.014 34.545)" fill="#dfe6e9" opacity="0.53"/>
        <g id="组_21687" data-name="组 21687" transform="translate(-1008.816 -265.506)">
          <path id="路径_37361" data-name="路径 37361" d="M1081.419,269.079c.461-.179.933-.33,1.409-.467-.105.3-.209.6-.3.9C1082.158,269.364,1081.791,269.215,1081.419,269.079Z" transform="translate(-31.782 -1.795)" fill="#fff" fill-rule="evenodd"/>
          <path id="路径_37362" data-name="路径 37362" d="M1088.262,268.373a6.777,6.777,0,0,1,2.057.256,8.346,8.346,0,0,0-.372,2.9,12.537,12.537,0,0,1-2.126-.127A11.787,11.787,0,0,1,1088.262,268.373Z" transform="translate(-36.638 -1.607)" fill="#fff" fill-rule="evenodd"/>
          <path id="路径_37363" data-name="路径 37363" d="M1099.868,270.006a4.374,4.374,0,0,1,1.392.558,4.991,4.991,0,0,1,1.883,1.52l-.511.091c-.911-.615-1.821-1.238-2.754-1.821C1099.876,270.267,1099.871,270.093,1099.868,270.006Z" transform="translate(-45.775 -2.853)" fill="#fff" fill-rule="evenodd"/>
          <path id="路径_37364" data-name="路径 37364" d="M1076.237,272.015c.285-.161.57-.322.858-.476.471.2.957.365,1.429.565-.035.32-.07.638-.115.957A15.79,15.79,0,0,0,1076.237,272.015Z" transform="translate(-27.852 -4.015)" fill="#fff" fill-rule="evenodd"/>
          <path id="路径_37365" data-name="路径 37365" d="M1099.315,272.725a26.184,26.184,0,0,1,2.381,1.722l-.566.084c-.633-.349-1.186-.824-1.816-1.18C1099.313,273.194,1099.313,272.881,1099.315,272.725Z" transform="translate(-45.354 -4.915)" fill="#fff" fill-rule="evenodd"/>
          <path id="路径_37366" data-name="路径 37366" d="M1073.186,274.76c.134-.143.27-.285.405-.426a10.349,10.349,0,0,1,2.617,1.525A5.835,5.835,0,0,1,1073.186,274.76Z" transform="translate(-25.538 -6.135)" fill="#fff" fill-rule="evenodd"/>
          <path id="路径_37367" data-name="路径 37367" d="M1099.036,276.782q.638.483,1.268.973a7.96,7.96,0,0,1-1.287.178C1099.013,277.549,1099.023,277.166,1099.036,276.782Z" transform="translate(-45.129 -7.992)" fill="#fff" fill-rule="evenodd"/>
          <path id="路径_37368" data-name="路径 37368" d="M1071.92,277.489c1.774,1.377,4.152,1.384,6.293,1.49a10.612,10.612,0,0,0,4.2-.984,6.46,6.46,0,0,0-.191,1.086c-.479.628-1.335.553-2.025.732a13.091,13.091,0,0,1-7.593-.628C1071.925,278.922,1071.875,278.112,1071.92,277.489Z" transform="translate(-24.568 -8.528)" fill="#fff" fill-rule="evenodd"/>
          <path id="路径_37369" data-name="路径 37369" d="M1059.63,286.6a13.928,13.928,0,0,1,1.588-1.543,8.874,8.874,0,0,0,3.314,1.158,11.978,11.978,0,0,0,5.346-.109c.757-.236,1.754-.146,2.191-.948.313.343.635.679.948,1.022l-.382.231a1.766,1.766,0,0,0,.163,1.386,1.235,1.235,0,0,0,1.526.34,4.057,4.057,0,0,1,.415,1.732,12.211,12.211,0,0,1-.328,5.18,34.663,34.663,0,0,1-1.952,6.047c-.323.881-1.108,1.635-1,2.632.747.059,1.412-.427,2.161-.32a4.281,4.281,0,0,1,2.309.975c.549-.137,1.087-.313,1.632-.467a15.053,15.053,0,0,0-.581,1.714c.2.335.392.679.578,1.024a2.689,2.689,0,0,1-1.092-.489,14.9,14.9,0,0,0-1.2,1.228,4.5,4.5,0,0,0-.5-1.595c-1.6-.042-2.858,1.074-4.172,1.816a7.157,7.157,0,0,1-5.12,1.322,5.514,5.514,0,0,1-2.57-1.658,21.7,21.7,0,0,1-4.678-10.455,16.83,16.83,0,0,1,.039-6.829,8.133,8.133,0,0,1,1.374-3.393Zm-.255,5.371h0a2.916,2.916,0,0,0,.416,1.987,2.122,2.122,0,0,0,2.511.655,2.047,2.047,0,0,0,.9-1.24,28.253,28.253,0,0,1-3.832-1.4Zm10.187.818h0q-1.038.309-2.052.682a1.813,1.813,0,0,0,3.155.821,2.614,2.614,0,0,0,.668-2.267C1070.721,292.228,1070.175,292.588,1069.562,292.789Z" transform="translate(-13.933 -14.268)" fill="#fff" fill-rule="evenodd"/>
          <path id="路径_37370" data-name="路径 37370" d="M1120.474,287.57a4.784,4.784,0,0,0,1.776-1.431c-.2.826-.168,1.8-.823,2.431C1120.874,288.8,1120.37,288.062,1120.474,287.57Z" transform="translate(-61.393 -15.089)" fill="#fff" fill-rule="evenodd"/>
          <path id="路径_37371" data-name="路径 37371" d="M1059.016,287.436c.246.251.5.5.759.739a11.192,11.192,0,0,0-.578.969A6.633,6.633,0,0,1,1059.016,287.436Z" transform="translate(-14.79 -16.072)" fill="#fff" fill-rule="evenodd"/>
          <path id="路径_37372" data-name="路径 37372" d="M1137.864,299.3c-.223-.476.139-.907.295-1.339a4.441,4.441,0,0,1,.809.913c.258,1.005.422,2.032.675,3.039a9.184,9.184,0,0,0-1.1.25C1138.228,301.234,1138.137,300.247,1137.864,299.3Z" transform="translate(-74.539 -24.058)" fill="#fff" fill-rule="evenodd"/>
          <path id="路径_37373" data-name="路径 37373" d="M1065.182,315.769a9.386,9.386,0,0,0,3.022,1.154,8.033,8.033,0,0,1-.692.593,2.255,2.255,0,0,1-1.417-.2A2.522,2.522,0,0,1,1065.182,315.769Z" transform="translate(-19.467 -37.561)" fill="#fff" fill-rule="evenodd"/>
          <path id="路径_37374" data-name="路径 37374" d="M1137.524,317.188c.181-.922,1.211-1.131,2-1.248a1.229,1.229,0,0,1,1.017.229,5.9,5.9,0,0,0-1.945.353C1138.206,316.7,1137.908,317.012,1137.524,317.188Z" transform="translate(-74.335 -37.662)" fill="#fff" fill-rule="evenodd"/>
          <path id="路径_37375" data-name="路径 37375" d="M1099.8,317.293a9.987,9.987,0,0,0,3.006-1.163c-.159.7-.474,1.538-1.273,1.687A1.55,1.55,0,0,1,1099.8,317.293Z" transform="translate(-45.722 -37.835)" fill="#fff" fill-rule="evenodd"/>
          <path id="路径_37376" data-name="路径 37376" d="M1130.9,319.571c.29-.223.556.082.818.2a1.182,1.182,0,0,1-.638,1.283,8.537,8.537,0,0,1-1.984,3.049,2.747,2.747,0,0,1-2.584-.166,16,16,0,0,0,.612-2.155,1.552,1.552,0,0,0,1.555.719,2.332,2.332,0,0,0,1.595-1.644A1.055,1.055,0,0,1,1130.9,319.571Z" transform="translate(-65.986 -40.385)" fill="#fff" fill-rule="evenodd"/>
          <path id="路径_37377" data-name="路径 37377" d="M1044.9,327.6a4.815,4.815,0,0,1,2.438-4.47,16.991,16.991,0,0,0,.305,2.79,2.759,2.759,0,0,0-1.437,1.912A2.659,2.659,0,0,0,1044.9,327.6Z" transform="translate(-4.08 -43.143)" fill="#fff" fill-rule="evenodd"/>
          <path id="路径_37378" data-name="路径 37378" d="M1145.715,326.6a2.278,2.278,0,0,1,.655-.389,3.614,3.614,0,0,1,.054,1.171l-.531.1A2.432,2.432,0,0,1,1145.715,326.6Z" transform="translate(-80.547 -45.479)" fill="#fff" fill-rule="evenodd"/>
          <path id="路径_37379" data-name="路径 37379" d="M1041.877,344.477a1.307,1.307,0,0,1,1.479-.55c.25.334.657.645.591,1.109a1.266,1.266,0,0,1-1.645.972C1041.911,345.628,1041.509,345.006,1041.877,344.477Z" transform="translate(-1.681 -58.887)" fill="#fff" fill-rule="evenodd"/>
          <path id="路径_37380" data-name="路径 37380" d="M1047.075,268.36a7.471,7.471,0,0,1,4.54-2.106,8.817,8.817,0,0,1,6.487,2.54c.3.365.158.876.107,1.3a12.805,12.805,0,0,1,1.466,1.408,5.012,5.012,0,0,0,.865-.921c.544-.716.778-.6.766.325a5.382,5.382,0,0,1-.5,2.368,9.473,9.473,0,0,1,.8,3.165,23.546,23.546,0,0,1-.283,3.857c-.179.672.474,1.171,1.02,1.4.742-.132,1.638-.692,1.506-1.557a4.048,4.048,0,0,1,.056-.586c-.3.171-.694.478-1.017.2-.251-.625.3-1.137.737-1.489a17.767,17.767,0,0,1-.747-3.513,5.047,5.047,0,0,1,.29-.838c.345-.68.454-.515.856-.152a3.128,3.128,0,0,1,.7.8c.29,1.072.538,2.158.8,3.238.384.1.893.146,1.079.558.234.327.032.736-.469.745a3.013,3.013,0,0,1,.072.658c-.129.8.742,2.8-.652,2.675a1.4,1.4,0,0,1-.686-.275,6.238,6.238,0,0,1-1.674,2.158,3.2,3.2,0,0,1-2.808-.32,25.979,25.979,0,0,1-1.081,2.791,8.851,8.851,0,0,1-.9,1.9,4.266,4.266,0,0,1,4.063.868c.344-.084.7-.258,1.057-.35.817-.21.9,0,.613.7a7.677,7.677,0,0,0-.415,1.036c.208.583.548,1.116.706,1.719a.477.477,0,0,1-.417.462,3.424,3.424,0,0,1-1.582-.451c-.25.268-.5.537-.763.789-.295.28-.62.5-.778-.067-.107-.382-.193-.77-.32-1.146a3.065,3.065,0,0,0-1.845.677c-1.759,1.122-3.589,2.4-5.745,2.5a8.586,8.586,0,0,1-2.81-.456,11.8,11.8,0,0,1-3.475-3.7,25.323,25.323,0,0,1-2.138-4.411c-.4-1.107-.566-2.282-.911-3.408a3.151,3.151,0,0,0-1.064,1.83,1.783,1.783,0,0,1-1.5,2.515,1.749,1.749,0,0,1-1.5-2.171c.06-.441.471-.694.772-.97a5.459,5.459,0,0,1,2.877-5.42,20.081,20.081,0,0,1,.895-5.572,4.41,4.41,0,0,1-.269-2.673c.237-1.164.268-1.194.712-.244a1.537,1.537,0,0,0,.784.874,5.088,5.088,0,0,1,1.6-1.463,4.889,4.889,0,0,1,.124-1.806Zm2.562-1.076h0c.372.136.739.285,1.106.43.094-.3.2-.6.3-.9-.476.137-.948.288-1.409.467Zm1.987-.518h0a11.787,11.787,0,0,0-.441,3.031,12.538,12.538,0,0,0,2.126.127,8.344,8.344,0,0,1,.372-2.9,6.778,6.778,0,0,0-2.057-.256Zm2.469.387h0c0,.087.008.261.01.347.933.583,1.843,1.206,2.755,1.821l.511-.091a4.992,4.992,0,0,0-1.883-1.52,4.374,4.374,0,0,0-1.392-.558Zm-5.708.846h0a15.785,15.785,0,0,1,2.172,1.045c.045-.318.08-.637.115-.957-.473-.2-.958-.364-1.429-.565-.288.154-.573.315-.858.476Zm5.576-.189h0c0,.156,0,.469,0,.627.63.355,1.183.831,1.816,1.18l.566-.084a26.2,26.2,0,0,0-2.381-1.722Zm-6.313.814h0a5.835,5.835,0,0,0,3.022,1.1,10.348,10.348,0,0,0-2.617-1.525c-.136.141-.271.283-.405.426Zm6.259.166h0c-.014.384-.024.767-.019,1.151a7.956,7.956,0,0,0,1.287-.178q-.631-.492-1.268-.973Zm-6.556.171h0c-.045.623.005,1.433.687,1.7a13.091,13.091,0,0,0,7.593.628c.69-.179,1.546-.1,2.025-.732a6.459,6.459,0,0,1,.191-1.086,10.613,10.613,0,0,1-4.2.984c-2.141-.106-4.519-.112-6.293-1.49Zm-1.655,3.371h0a8.135,8.135,0,0,0-1.374,3.393,16.83,16.83,0,0,0-.039,6.829,21.7,21.7,0,0,0,4.678,10.455,5.513,5.513,0,0,0,2.57,1.658,7.157,7.157,0,0,0,5.12-1.322c1.313-.742,2.575-1.858,4.172-1.816a4.494,4.494,0,0,1,.5,1.595,14.9,14.9,0,0,1,1.2-1.228,2.689,2.689,0,0,0,1.092.489c-.186-.345-.375-.689-.578-1.024a15.051,15.051,0,0,1,.581-1.714c-.545.154-1.082.33-1.632.467a4.281,4.281,0,0,0-2.309-.975c-.749-.107-1.414.379-2.161.32-.1-1,.68-1.751,1-2.632a34.673,34.673,0,0,0,1.952-6.047,12.211,12.211,0,0,0,.328-5.18,4.057,4.057,0,0,0-.415-1.732,1.235,1.235,0,0,1-1.526-.34,1.767,1.767,0,0,1-.162-1.386l.382-.231c-.313-.343-.635-.679-.948-1.022-.437.8-1.434.712-2.191.948a11.978,11.978,0,0,1-5.346.109,8.875,8.875,0,0,1-3.314-1.158,13.942,13.942,0,0,0-1.589,1.543Zm13.385.149h0c-.1.493.4,1.23.953,1,.655-.633.622-1.605.823-2.431a4.785,4.785,0,0,1-1.776,1.431Zm-14.856-1.117h0a6.622,6.622,0,0,0,.181,1.707,11.156,11.156,0,0,1,.578-.969c-.263-.236-.513-.487-.759-.739Zm19.1,3.882h0c.273.943.364,1.93.675,2.863a9.189,9.189,0,0,1,1.1-.25c-.253-1.007-.417-2.034-.675-3.039a4.441,4.441,0,0,0-.809-.913c-.156.432-.518.863-.295,1.339Zm-.136,4.281h0c.384-.176.682-.491,1.067-.665a5.9,5.9,0,0,1,1.945-.353,1.229,1.229,0,0,0-1.017-.229c-.784.117-1.815.327-2,1.248Zm1.729-.34h0a1.055,1.055,0,0,0-.627,1.29,2.332,2.332,0,0,1-1.595,1.643,1.552,1.552,0,0,1-1.555-.719,15.979,15.979,0,0,1-.612,2.155,2.748,2.748,0,0,0,2.584.166,8.534,8.534,0,0,0,1.984-3.049,1.182,1.182,0,0,0,.639-1.283c-.261-.121-.528-.426-.818-.2Zm-24.1,5.269h0a2.659,2.659,0,0,1,1.305.231,2.758,2.758,0,0,1,1.438-1.912,16.977,16.977,0,0,1-.305-2.79,4.815,4.815,0,0,0-2.437,4.47Zm24.348-3.337h0a2.432,2.432,0,0,0,.178.879l.531-.1a3.614,3.614,0,0,0-.054-1.171,2.277,2.277,0,0,0-.655.389Zm-24.972,4.472h0c-.369.529.034,1.151.426,1.531a1.267,1.267,0,0,0,1.645-.972c.065-.464-.342-.776-.591-1.109A1.307,1.307,0,0,0,1040.2,285.589Z" fill="#0080f4" stroke="#0080f4" stroke-width="0.15" fill-rule="evenodd"/>
          <path id="路径_37381" data-name="路径 37381" d="M1063.957,313.681a28.259,28.259,0,0,0,3.832,1.4,2.047,2.047,0,0,1-.9,1.24,2.122,2.122,0,0,1-2.511-.655,2.917,2.917,0,0,1-.416-1.987Zm.273.5h0a2.522,2.522,0,0,0,.913,1.55,2.255,2.255,0,0,0,1.417.2,8.031,8.031,0,0,0,.692-.593A9.388,9.388,0,0,1,1064.23,314.185Z" transform="translate(-18.515 -35.978)" fill="#0080f4" stroke="#0080f4" stroke-width="0.15" fill-rule="evenodd"/>
          <path id="路径_37382" data-name="路径 37382" d="M1099.777,314.667c.613-.2,1.159-.561,1.771-.764a2.614,2.614,0,0,1-.668,2.267,1.989,1.989,0,0,1-2.641.122,2.009,2.009,0,0,1-.514-.943q1.013-.374,2.052-.682Zm-1.552.937h0a1.55,1.55,0,0,0,1.732.524c.8-.149,1.114-.99,1.273-1.687A9.987,9.987,0,0,1,1098.226,315.6Z" transform="translate(-44.149 -36.146)" fill="#0080f4" stroke="#0080f4" stroke-width="0.15" fill-rule="evenodd"/>
        </g>
      </g>
      <g id="组_21276-7" data-name="组 21276" transform="translate(643.156 1524.721)">
        <g id="组_21275-4" data-name="组 21275" transform="translate(0 35.375)">
          <path id="路径_36969-4" data-name="路径 36969" d="M1134.373-184.461l5.9,3.405a.078.078,0,0,1,0,.135L1096.5-155.647a.077.077,0,0,1-.078,0l-43.774-25.274a.077.077,0,0,1,0-.135l6.189-3.574" transform="translate(-1052.607 201.131)" fill="none" stroke="#636e72" stroke-miterlimit="10" stroke-width="0.6"/>
          <path id="路径_36970-4" data-name="路径 36970" d="M1117.142-198.837l16.095,9.293a.077.077,0,0,1,0,.135l-37.6,21.708a.078.078,0,0,1-.078,0l-37.6-21.708a.077.077,0,0,1,0-.135l16.095-9.293" transform="translate(-1051.748 198.837)" fill="none" stroke="#636e72" stroke-width="0.6"/>
          <path id="路径_36971-5" data-name="路径 36971" d="M1057.857-190.651v10.718a.077.077,0,0,0,.039.067l37.6,21.714a.078.078,0,0,0,.117-.067v-10.718a.079.079,0,0,0-.038-.067l-37.6-21.714A.078.078,0,0,0,1057.857-190.651Z" transform="translate(-1051.759 200.146)" fill="none" stroke="#636e72" stroke-width="0.6"/>
          <path id="路径_36972-5" data-name="路径 36972" d="M1090.479-158.153l37.6-21.708a.079.079,0,0,0,.038-.067v-10.718a.078.078,0,0,0-.117-.067l-37.6,21.708a.078.078,0,0,0-.039.067v10.718A.078.078,0,0,0,1090.479-158.153Z" transform="translate(-1046.51 200.147)" fill="none" stroke="#636e72" stroke-width="0.6"/>
        </g>
        <g id="组_21276-8" data-name="组 21276" transform="translate(22.185 0)">
          <path id="路径_36973-4" data-name="路径 36973" d="M1071.8-216.867l21.522-12.427h.072l21.522,12.427a.071.071,0,0,1,0,.123L1093.4-204.318h-.072L1071.8-216.744A.071.071,0,0,1,1071.8-216.867Z" transform="translate(-1071.698 229.294)" fill="none" stroke="#636e72" stroke-width="0.6"/>
          <path id="路径_36974-4" data-name="路径 36974" d="M1071.708-218.425v33.518l.036.062,21.522,12.427a.071.071,0,0,0,.107-.062V-206l-.036-.063-21.522-12.427A.072.072,0,0,0,1071.708-218.425Z" transform="translate(-1071.708 231.037)" fill="none" stroke="#636e72" stroke-width="0.6"/>
          <path id="路径_36975-4" data-name="路径 36975" d="M1090.469-172.415l21.522-12.427.036-.062v-33.518a.072.072,0,0,0-.107-.063L1090.4-206.057l-.036.063v33.518A.071.071,0,0,0,1090.469-172.415Z" transform="translate(-1068.696 231.038)" fill="none" stroke="#636e72" stroke-width="0.6"/>
        </g>
      </g>
      <ellipse id="椭圆_1625-4" data-name="椭圆 1625" cx="8" cy="0.5" rx="8" ry="0.5" transform="translate(679.014 1538.493)" fill="#dfe6e9" opacity="0.53"/>
      <path id="路径_36966" data-name="路径 36966" d="M3176.759,1587.455h12.428l-3.268-5.267-5.5-1.309-1.506,2.422Z" transform="translate(-2220.695 -51.731)" fill="#fff"/>
      <path id="路径_37330" data-name="路径 37330" d="M3184.507,1586.994l4.45-.754-3.037-3.864-5.5-1.5-1.506,2.768Z" transform="translate(-2214.019 -47.725)" fill="#fff"/>
      <path id="路径_37331" data-name="路径 37331" d="M3179.412,1586.013l7.3-.355-.793-3.282-5.5-1.5-1.506,2.768Z" transform="translate(-2225.368 -47.725)" fill="#fff"/>
      <ellipse id="椭圆_1626" data-name="椭圆 1626" cx="20.5" cy="1" rx="20.5" ry="1" transform="translate(798.014 1512.493)" fill="#d5d5d7" opacity="0.37"/>
      <g id="组_21282" data-name="组 21282" transform="translate(674.914 1510.535)">
        <path id="路径_36970-5" data-name="路径 36970" d="M2758.534,1573.584s-1.666.2-.527.8c0,0,1.48,3.687,1.584,3.742,1.04.552,4.171,0,4.171,0h12.582l1.648-2.221-6.374-4.023h-6.042l-6.369,1.057" transform="translate(-2755.578 -1558.609)" fill="#fff"/>
      </g>
      <path id="路径_36973-5" data-name="路径 36973" d="M2953.041,1471c0,1.7-.972,8.169-.972,8.169s15.16,7.573,15.646,7.4,18.659-14.721,18.659-14.721-.68-1.531-4.179-2.042-20.7-2.127-20.7-2.127Z" transform="translate(-2149.564 -13.441)" fill="#fff"/>
      <path id="路径_37355" data-name="路径 37355" d="M625.442,787.242h-.028a11.558,11.558,0,0,0,0,23.109h.028a11.558,11.558,0,0,0,0-23.116Zm-2.512,1.227a10.373,10.373,0,0,0-2.187,4.072,16.142,16.142,0,0,1-2.878-1.193,10.625,10.625,0,0,1,5.064-2.88Zm-5.7,3.589a17.025,17.025,0,0,0,3.265,1.377,21.818,21.818,0,0,0-.631,4.9h-5.038a10.575,10.575,0,0,1,2.408-6.278Zm0,13.484a10.582,10.582,0,0,1-2.408-6.278h5.043a21.821,21.821,0,0,0,.631,4.9,17.024,17.024,0,0,0-3.266,1.373Zm.636.706a15.944,15.944,0,0,1,2.879-1.193,10.369,10.369,0,0,0,2.187,4.076,10.63,10.63,0,0,1-5.067-2.883Zm7.117,3.124c-1.253-.329-2.531-2-3.342-4.563a16.09,16.09,0,0,1,3.342-.448Zm0-5.934a17.013,17.013,0,0,0-3.594.482,20.64,20.64,0,0,1-.595-4.656h4.188v4.174Zm0-5.1h-4.188a20.68,20.68,0,0,1,.6-4.659,16.945,16.945,0,0,0,3.593.482Zm0-5.105a16.069,16.069,0,0,1-3.34-.446c.811-2.563,2.085-4.231,3.34-4.557Zm8.675-1.177a10.578,10.578,0,0,1,2.408,6.279h-5.068a21.823,21.823,0,0,0-.63-4.894A17.126,17.126,0,0,0,633.655,792.058Zm-.637-.707a16.127,16.127,0,0,1-2.905,1.2,10.372,10.372,0,0,0-2.2-4.09,10.644,10.644,0,0,1,5.1,2.891Zm-7.113-3.11c1.246.345,2.5,2.007,3.313,4.553a16.085,16.085,0,0,1-3.313.441v-4.994Zm0,5.918a16.993,16.993,0,0,0,3.564-.475,20.683,20.683,0,0,1,.594,4.653H625.9v-4.178Zm0,5.1h4.16a20.7,20.7,0,0,1-.593,4.649,16.938,16.938,0,0,0-3.564-.475v-4.179Zm0,10.1v-5.005a16.1,16.1,0,0,1,3.314.442c-.8,2.549-2.067,4.212-3.314,4.557Zm2.013-.22a10.367,10.367,0,0,0,2.2-4.094,16.236,16.236,0,0,1,2.906,1.2,10.628,10.628,0,0,1-5.1,2.89Zm5.741-3.6a17.085,17.085,0,0,0-3.292-1.387,21.8,21.8,0,0,0,.629-4.891h5.067a10.581,10.581,0,0,1-2.408,6.278Z" transform="translate(61.88 724.258)" fill="#ef54a1"/>
      <g id="组_21682" data-name="组 21682" transform="translate(312.574 730.695)">
        <path id="路径_37356" data-name="路径 37356" d="M653.486,795.726h0a1.331,1.331,0,1,0,1.331,1.331v-.025A1.333,1.333,0,0,0,653.486,795.726Z" fill="#ef54a1"/>
        <path id="路径_37357" data-name="路径 37357" d="M662.14,808.775l.093,0a2.1,2.1,0,0,0,2.107-2.039V794.287a2.1,2.1,0,0,0-2.107-2.025l-.078,0a.466.466,0,0,0,0,.931c-.013,0,.023,0,.06,0a1.2,1.2,0,0,1,1.189,1.043.451.451,0,0,1,0,.052v12.464a.437.437,0,0,1,0,.052,1.2,1.2,0,0,1-1.189,1.043,1.02,1.02,0,0,1-.11-.005l-1.7,0a.466.466,0,0,0-.466.466v1.368c0,.161.06,1.323.06,1.323s-.665-.963-.741-1.039l-1.986-1.967a.468.468,0,0,0-.331-.144h-8.65a.466.466,0,0,0,.014.931h8.274a.4.4,0,0,1,.282.116l3.22,3.2a.454.454,0,0,0,.316.13.469.469,0,0,0,.473-.458v-2.594a.4.4,0,0,1,.4-.4Z" transform="translate(-1)" fill="#ef54a1"/>
        <path id="路径_37358" data-name="路径 37358" d="M648.292,795.726a1.331,1.331,0,1,0,1.331,1.331A1.332,1.332,0,0,0,648.292,795.726Z" fill="#ef54a1"/>
        <path id="路径_37359" data-name="路径 37359" d="M643.1,798.388a1.331,1.331,0,1,0-1.331-1.331A1.332,1.332,0,0,0,643.1,798.388Z" fill="#ef54a1"/>
        <path id="路径_37360" data-name="路径 37360" d="M644.916,805.433a.4.4,0,0,1,.279-.113h11.753l.093,0a2.1,2.1,0,0,0,2.1-1.974.4.4,0,0,1-.005-.059V790.825a2.1,2.1,0,0,0-2.107-2.026H639.64l-.093,0a2.1,2.1,0,0,0-2.107,2.033v12.458a2.1,2.1,0,0,0,2.107,2.026l.073,0h.883a.4.4,0,0,1,.4.4v2.6a.463.463,0,0,0,.252.413.415.415,0,0,0,.05,0,.436.436,0,0,0,.088-.009.418.418,0,0,1,.07-.007.46.46,0,0,0,.326-.14Zm-5.276-1.052a.555.555,0,0,1-.062,0,1.221,1.221,0,0,1-1.2-1.035.391.391,0,0,1,0-.059V790.825a.3.3,0,0,1,0-.052,1.2,1.2,0,0,1,1.188-1.043l.09,0h17.292a.457.457,0,0,1,.074,0,1.2,1.2,0,0,1,1.189,1.043.437.437,0,0,1,0,.052v12.464a.45.45,0,0,1,0,.052,1.2,1.2,0,0,1-1.189,1.043,1.02,1.02,0,0,1-.11,0l-12.082,0a.457.457,0,0,0-.32.14l-1.995,1.978c-.077.076-.465.522-.515.5-.149-.062-.167-.623-.167-.785v-1.368a.466.466,0,0,0-.464-.466Z" fill="#ef54a1"/>
      </g>
    </g>
    <g id="LOGO" transform="translate(1238.362 1007.973)">
      <path id="路径_3" data-name="路径 3" d="M54.053,42.36a10.065,10.065,0,0,0-8.084.431c1.509-3.126,3.126-6.467,4.527-9.916,1.725-4.1,3.018-7.976,3.018-10.994C53.514,8.731,43.6,0,34.22,0c-10.671,0-19.94,8.084-19.94,20.587h0a41.457,41.457,0,0,0,.108,5.174c-.081.009-.163.018-.244.029A10.161,10.161,0,0,0,8.89,28.132,9.8,9.8,0,0,0,6.95,30.4c-.755,1.725-.755,3.88,1.4,4.419a7.037,7.037,0,0,0,2.587-.647c1.284-.458,2.8-1.23,4.089-1.051a2.315,2.315,0,0,1,.653.189,51.339,51.339,0,0,0,3.773,10.563A32.4,32.4,0,0,0,25.7,52.923c2.371,2.264,4.958,3.773,7.761,3.773,4.419,0,8.407-2.156,11.533-4.311,1.617-1.078,3.018-2.156,4.1-2.91a7.005,7.005,0,0,1,2.371-1.186,12,12,0,0,1,3.234.862c1.186.539,2.479,1.186,3.665,1.617a.733.733,0,0,0,.862-.431v-.108A8.18,8.18,0,0,0,54.053,42.36Zm-20.7-7.114c-1.4-1.078-3.557-.647-5.282-.323a8.174,8.174,0,0,1-2.8.108c-2.8-.755-1.725-3.773-.539-5.282a11.913,11.913,0,0,1,3.988-2.91,11.245,11.245,0,0,1,11.857.97" transform="translate(-6.493)" fill="#fff" stroke="#0080f4" stroke-miterlimit="10" stroke-width="1"/>
      <path id="路径_37350" data-name="路径 37350" d="M29.971,12.7c.539-1.725,1.617-3.341,3.773-3.449,1.725,0,2.91,1.832,3.449,3.449a19.793,19.793,0,0,1,.97,6.144.721.721,0,0,1-.755.647c-.108,0-.216,0-.216-.108a6.569,6.569,0,0,0-3.449-.862,6.95,6.95,0,0,0-3.557.862.6.6,0,0,1-.862-.323c0-.108-.108-.108-.108-.216a23.976,23.976,0,0,1,.755-6.144Z" transform="translate(-4.724 0.72)" fill="#0080f4"/>
      <path id="路径_37351" data-name="路径 37351" d="M18.887,19.385a.6.6,0,0,1-.862-.323c0-.108-.108-.108-.108-.216a23.407,23.407,0,0,1,.755-6.144c.539-1.725,1.617-3.341,3.773-3.449,1.725,0,2.91,1.832,3.557,3.449a19.793,19.793,0,0,1,.97,6.144.721.721,0,0,1-.755.647c-.108,0-.216,0-.216-.108a6.7,6.7,0,0,0-3.557-.862,7.877,7.877,0,0,0-3.557.862Z" transform="translate(-5.604 0.72)" fill="#0080f4"/>
      <path id="路径_37352" data-name="路径 37352" d="M13.764,23.218a52.292,52.292,0,0,0,1.462,8.741" transform="translate(-5.927 1.808)" fill="none" stroke="#0080f4" stroke-miterlimit="10" stroke-width="1"/>
    </g>
  </g>
</svg>
