<svg xmlns="http://www.w3.org/2000/svg" xmlns:xlink="http://www.w3.org/1999/xlink" width="1820" height="880" viewBox="0 0 1820 880">
  <defs>
    <clipPath id="clip-path">
      <rect id="矩形_2676" data-name="矩形 2676" width="1820" height="880" transform="translate(50 88)" fill="#fff"/>
    </clipPath>
  </defs>
  <g id="人工智能-CN" transform="translate(-6399 1162)">
    <g id="人工智能-CN-2" data-name="人工智能-CN" transform="translate(6349 -1250)" clip-path="url(#clip-path)">
      <g id="组_21869" data-name="组 21869">
        <g id="组_21868" data-name="组 21868" transform="translate(-6274 1354)">
          <g id="组_21864" data-name="组 21864" transform="translate(6349 -1368)">
            <path id="路径_39778" data-name="路径 39778" d="M22.516-43a35.428,35.428,0,0,1,.208,4.42c0,12.376-2.86,20.956-9.516,28.652C9.932-6.188,7.176-4.056,1.872-1.248A15.556,15.556,0,0,1,5.928,4.108a43.859,43.859,0,0,0,8.06-5.98A36.2,36.2,0,0,0,22-11.856a37.209,37.209,0,0,0,4.056-10.5,41.111,41.111,0,0,0,6.916,14.2C36.66-3.276,39.832-.312,46.176,4.108a19.346,19.346,0,0,1,4.056-5.772,34.63,34.63,0,0,1-8.06-5.616,35.74,35.74,0,0,1-8.216-9.88c-3.744-6.656-5.1-12.168-5.1-21.008A39.239,39.239,0,0,1,29.224-43ZM93.028-29.016c-2.08,6.916-4.576,11.7-8.424,16.172a15.526,15.526,0,0,1,3.068,5.408A40.963,40.963,0,0,0,93.86-19.292a63.585,63.585,0,0,0-.26,7.852v10.3a41.1,41.1,0,0,1-.312,5.616h6.084A41.408,41.408,0,0,1,99.06-1.2V-20.54c2.808,5.2,2.808,5.2,3.692,7.176l3.692-4.212a86.371,86.371,0,0,0-7.384-10.3v-1.144h3.276a16.2,16.2,0,0,1,3.224.26v-5.72a15.489,15.489,0,0,1-3.276.26H99.06V-39a24.721,24.721,0,0,1,.312-4.784H93.236A24.721,24.721,0,0,1,93.548-39v4.784h-3.64a18.25,18.25,0,0,1-3.692-.26v5.72a16.684,16.684,0,0,1,3.484-.26Zm19.5-12.48a30.387,30.387,0,0,1-4.94-.26,53.409,53.409,0,0,1,.26,7.072c0,15.028-.572,21.892-2.288,26.988A17.527,17.527,0,0,1,100.776.052a21.884,21.884,0,0,1,4.576,4.264c4.16-4.784,5.928-9.048,7.02-16.744.78-5.408.988-10.452.988-23.868h6.968V-1.872c0,2.5.26,3.484,1.2,4.212.832.676,2.288.936,4.836.936A20.2,20.2,0,0,0,130,2.964a3.318,3.318,0,0,0,2.652-1.872c.832-1.664,1.092-3.588,1.508-11.648a17.68,17.68,0,0,1-4.992-2.236,88.833,88.833,0,0,1-.364,9.724c-.156.832-.572,1.092-1.664,1.092-.832,0-1.2-.312-1.2-.936V-36.556a47.1,47.1,0,0,1,.208-5.2,30.78,30.78,0,0,1-4.94.26Zm73.944,7.384V-37.6a33.276,33.276,0,0,1,.312-5.356h-6.4a34.937,34.937,0,0,1,.312,5.408v3.432h-3.848a45.017,45.017,0,0,1-5.72-.312v6.188a53.6,53.6,0,0,1,5.72-.26H180.7v10.92h-5.1a45.777,45.777,0,0,1-6.656-.364V-11.6a46.731,46.731,0,0,1,6.656-.364h33.7a47.532,47.532,0,0,1,6.708.364V-17.94a45.949,45.949,0,0,1-6.76.364h-5.3V-28.5h4.264a56.933,56.933,0,0,1,5.876.26v-6.188a45.38,45.38,0,0,1-5.876.312h-4.264V-37.44a37.629,37.629,0,0,1,.312-5.46h-6.4a28.065,28.065,0,0,1,.312,5.408v3.38Zm0,5.616h11.7v10.92h-11.7ZM183.56-10.92A22.193,22.193,0,0,1,177.528-5.1,36.419,36.419,0,0,1,169-.676a24.27,24.27,0,0,1,3.952,4.836,40.507,40.507,0,0,0,7.592-4.42A37.86,37.86,0,0,0,188.5-7.852ZM215.176-.208a123.976,123.976,0,0,0-14.456-10.92l-4.16,3.64C204-2.34,206.388-.416,210.86,4.16Zm49.608-33.176c.468-1.144,1.144-3.172,1.4-3.9a12.456,12.456,0,0,1,.52-1.716,8.22,8.22,0,0,0,.468-1.352l-5.928-1.456a28.221,28.221,0,0,1-1.144,4.836,37.714,37.714,0,0,1-8.788,15.184,15.776,15.776,0,0,1,4.264,4.42,45.944,45.944,0,0,0,7.072-10.92H273.26v9.568H265.2a47.717,47.717,0,0,1-6.24-.312v5.72a54.542,54.542,0,0,1,6.292-.312h8.008V-2.6H259.9a60.968,60.968,0,0,1-7.228-.364V2.964a66.87,66.87,0,0,1,7.384-.364h31.824a60.621,60.621,0,0,1,7.072.364V-2.964a57,57,0,0,1-7.228.364H279.24V-13.624h9a57.8,57.8,0,0,1,6.4.312v-5.72a53.974,53.974,0,0,1-6.4.312h-9v-9.568h10.972c2.5,0,4.628.1,6.864.312V-33.7c-2.132.208-4.368.312-7.02.312H279.24v-4a48.483,48.483,0,0,1,.312-6.188H272.9a42.4,42.4,0,0,1,.364,6.24v3.952Zm111.852.676v-4.316A43.268,43.268,0,0,1,377-43.16h-6.4a44.27,44.27,0,0,1,.364,6.136v4.316H358.852a30.987,30.987,0,0,1-5.1-.26V-27.2a26.984,26.984,0,0,1,4.992-.26h12.22V-3.172c0,1.04-.52,1.3-2.444,1.3a69.353,69.353,0,0,1-7.02-.52A21.928,21.928,0,0,1,362.6,3.484c3.8.208,4.16.208,4.992.208H369.1c5.98,0,7.54-1.144,7.54-5.668v-25.48h1.508a24.859,24.859,0,0,1,4.992.312V-33.02a30.079,30.079,0,0,1-5.1.312Zm-9.2,21.164c-3.38-7.332-4.212-8.84-7.436-13.364l-4.68,2.444c3.068,4.472,4.368,6.968,7.02,13.78ZM341.484,1.4V-3.38h5.72V-.572h5.46a38.27,38.27,0,0,1-.156-4.732V-35.36a49.644,49.644,0,0,1,.156-5.1,46.4,46.4,0,0,1-4.732.156H340.7a44.867,44.867,0,0,1-4.68-.156c.1,2.548.156,4.316.156,5.252v30.42c0,2.08-.1,4-.26,6.188Zm0-36.608h5.72v10.3h-5.72Zm0,15.392h5.72V-8.476h-5.72ZM443.4-23.868a56.388,56.388,0,0,0,4.368,15.652c3.484,7.28,8.476,12.272,12.324,12.272,3.692,0,5.512-3.276,6.708-12.22a21.492,21.492,0,0,1-4.94-3.38c-.52,6.084-1.2,8.736-2.184,8.736-1.248,0-4.368-3.692-6.344-7.592a43.618,43.618,0,0,1-4.108-13.936l11.024-.884c1.768-.156,2.912-.208,3.848-.208.416,0,.78,0,1.508.052l-.156-5.876a40.569,40.569,0,0,1-5.668.728l-11.128.884c-.312-3.172-.52-6.656-.52-9.412a19.573,19.573,0,0,1,.26-3.9l-6.292.1c.1.884.26,2.808.26,3.848.1,5.1.156,5.876.468,9.88l-4.732.364c-1.352.1-2.86.156-3.952.156h-1.612l.156,5.824a38.541,38.541,0,0,1,5.2-.624ZM424.84-2.08a41.48,41.48,0,0,1-.364,6.4h6.4a44.611,44.611,0,0,1-.364-6.292V-30.784a86.146,86.146,0,0,0,4.836-11.076l-5.928-2.028a31,31,0,0,1-2.028,6.812,45.164,45.164,0,0,1-10.452,15.444,20.866,20.866,0,0,1,2.756,5.98,36.152,36.152,0,0,0,5.3-6.5c-.1,1.976-.156,3.328-.156,5.98Zm25.792-37.492a49.815,49.815,0,0,1,3.9,4,30.015,30.015,0,0,1,3.8,4.576l4.316-3.952c-4.264-4.732-5.044-5.564-7.956-8.06Zm62.14,30.42H505.18V-1.56H509.5c-.052,3.224-.78,4.16-3.9,5.044l1.82,2.756c4.212-1.664,5.356-3.328,5.356-7.8ZM25.584,73.636l3.484-8.06H43.68a34.017,34.017,0,0,1,4.732.312V60.376a25.694,25.694,0,0,1-4.836.26H30.42l.26-.572a27.816,27.816,0,0,1,1.248-2.912l-5.512-1.144a23.259,23.259,0,0,1-1.4,4.628h-2.6a43.68,43.68,0,0,1-6.032-.312v5.512c1.3-.156,3.9-.26,5.928-.26h1.2l-2.392,5.616c-.832,1.716-1.2,2.132-2.548,2.808l1.248,4.628a2.747,2.747,0,0,1,.676-.052,7.363,7.363,0,0,1,.988-.052,14.661,14.661,0,0,1,2.236-.1h8.06v4.94H20.124a22.452,22.452,0,0,1-4.212-.312V88.56a28.946,28.946,0,0,1,4.264-.208h11.6V90.8a48.55,48.55,0,0,1-.26,5.46H37.18a35.137,35.137,0,0,1-.312-5.46V88.352h8.424a32.137,32.137,0,0,1,4.316.208V83.048a19.029,19.029,0,0,1-4.212.312H36.868V78.42h5.72a17.246,17.246,0,0,1,3.8.26v-5.3c-.312.052-1.56.156-3.8.26h-5.72V72.024a42.946,42.946,0,0,1,.208-4.368h-5.46c.1,1.872.156,2.86.156,4.368v1.612Zm-16.9,19.4c-.832.52-3.8,2.808-4.836,3.692C1.924,98.492,1.924,98.492,1.3,99.012l4.056,4.68c2.08-2.548,2.08-2.548,2.6-3.172,1.56-1.716,2.652-2.548,3.38-2.548a2.2,2.2,0,0,1,1.352.572c3.224,2.548,3.588,2.808,5.408,3.432,2.6.936,5.564,1.248,12.74,1.248,9.62,0,13.416-.052,18.408-.364a21.2,21.2,0,0,1,1.612-6.032,77.791,77.791,0,0,1-8.632.676c-4.212.156-8.58.26-11.44.26-8.58,0-11.128-.52-14.4-2.964-2.08-1.56-2.08-1.56-2.236-1.664V81.748a62.466,62.466,0,0,1,.208-6.448,21.828,21.828,0,0,1-3.952.26H6.5a23.257,23.257,0,0,1-4.16-.26v5.616a18.943,18.943,0,0,1,3.484-.26h2.86ZM2.652,60.48a51.675,51.675,0,0,1,4.264,4.16,53.971,53.971,0,0,1,3.8,4.732l4.16-4.16a53.734,53.734,0,0,0-7.124-7.488A14.369,14.369,0,0,0,6.6,56.736ZM128.18,87.728a31.84,31.84,0,0,1,5.044.26V82.476a29.834,29.834,0,0,1-5.1.26H116.272a10.118,10.118,0,0,1,.728-1.2c.572-1.04.572-1.04.832-1.508l-4.316-1.3h14.4a32.739,32.739,0,0,1,5.3.26V73.48a31.95,31.95,0,0,1-5.3.26h-4.108a27.017,27.017,0,0,0,3.224-6.136l-4.888-1.248h4.628a30.078,30.078,0,0,1,5.252.26V61.1a38.414,38.414,0,0,1-5.824.26h-6.448a34.705,34.705,0,0,0-2.288-5.824L112.06,57.1a20.513,20.513,0,0,1,1.976,4.264h-5.772a40.54,40.54,0,0,1-5.876-.26v5.512a29.7,29.7,0,0,1,5.252-.26h3.016L106.34,68.02a21.461,21.461,0,0,1,2.392,5.72H105.2a20.271,20.271,0,0,1-4.16-.26v5.512a26.431,26.431,0,0,1,4.472-.26h6.812a26.74,26.74,0,0,1-1.56,3.432c-.208.468-.208.468-.312.572H105.82a31.839,31.839,0,0,1-5.044-.26v5.512a31.91,31.91,0,0,1,4.992-.26h1.508a41.457,41.457,0,0,1-4.576,5.564,89.914,89.914,0,0,1,9.152,3.172c-3.952,1.872-7.7,2.652-13.676,3.016a15.87,15.87,0,0,1,2.184,4.992c7.124-.832,12.428-2.548,17.16-5.564a82.018,82.018,0,0,1,11.024,5.98l3.64-4.68a76.392,76.392,0,0,0-10.3-4.94,20.1,20.1,0,0,0,4.68-7.54Zm-7.28,0a13.863,13.863,0,0,1-4.056,5.616c-2.86-.988-4.94-1.716-6.292-2.132,1.456-1.82,1.924-2.444,2.652-3.484Zm.884-21.372c-1.2,3.9-1.716,5.1-3.276,7.384h-9.152l4.264-1.612a26.068,26.068,0,0,0-2.392-5.772Zm-24.908-.364V61.676a29.875,29.875,0,0,1,.312-5.252H91.1a30.166,30.166,0,0,1,.312,5.3v4.264h-2.08a22.389,22.389,0,0,1-3.848-.26v5.512a31.529,31.529,0,0,1,3.8-.208h2.132v9.412a32.864,32.864,0,0,1-6.552,1.612l1.092,5.824a16.551,16.551,0,0,1,2.184-.832c.832-.26,1.976-.624,3.276-1.092V97.348c0,1.248-.312,1.56-1.664,1.56a23.663,23.663,0,0,1-3.952-.364,16.2,16.2,0,0,1,1.3,5.356,20.96,20.96,0,0,0,2.392.1c2.86,0,4.732-.364,5.876-1.04.936-.624,1.508-2.132,1.508-4V83.724a37.358,37.358,0,0,0,3.536-1.768l-.416-5.2-3.12,1.56v-7.28h1.456a25.65,25.65,0,0,1,2.86.156V65.784a15.207,15.207,0,0,1-2.912.208Zm96.356,12.636v20.02c0,3.744,1.872,4.576,10.712,4.576,4.524,0,7.02-.312,8.632-1.092,1.768-.832,2.444-2.028,3.068-5.3a62.326,62.326,0,0,0,.728-6.968,19.3,19.3,0,0,1-5.616-1.924c-.052,4.42-.364,7.228-.78,8.268-.468,1.144-1.872,1.456-6.344,1.456-4.056,0-4.68-.208-4.68-1.56V78.628h10.4a44.6,44.6,0,0,1,5.928.312V72.8a47.155,47.155,0,0,1-5.98.312H193.544a86.2,86.2,0,0,0,.676-9.256h12.948a43.867,43.867,0,0,1,5.98.312V58.036a45.475,45.475,0,0,1-5.98.312H177.736a43.866,43.866,0,0,1-5.98-.312v6.136a48.313,48.313,0,0,1,5.98-.312h10.712a70.2,70.2,0,0,1-.676,9.256h-12.22a45.477,45.477,0,0,1-5.98-.312V78.94a49.508,49.508,0,0,1,5.98-.312h11.076a27.336,27.336,0,0,1-6.708,11.8c-3.068,3.172-6.448,5.46-12.012,8.164a22.027,22.027,0,0,1,4.212,5.46c5.98-3.484,9.464-6.136,12.584-9.62a34.138,34.138,0,0,0,7.852-15.808Zm102.18,2.86a10.741,10.741,0,0,1,1.456.1,51.78,51.78,0,0,1-.208-5.668V63.808c0-3.328.052-4.524.156-5.772a28.213,28.213,0,0,1-4.836.26H277.108a26.631,26.631,0,0,1-4.992-.26c.156,1.976.208,3.224.208,5.564V95.632c-.26,2.184-.624,2.808-2.184,3.64l1.716,4.992c5.46-1.3,8.684-2.236,14.248-4.056l.208-5.356A61.761,61.761,0,0,1,277.68,97.5V81.436h3.744c1.352,5.668,2.34,8.216,4.732,12.064,2.7,4.316,5.928,7.384,11.284,10.764a19.706,19.706,0,0,1,3.276-5.3,24.171,24.171,0,0,1-9.464-7.436c2.184-1.508,5.512-4.108,6.916-5.356a8.153,8.153,0,0,1,1.456-1.092Zm-2.756-.052c.728,0,1.508,0,2.548.052a37.636,37.636,0,0,1-6.5,5.668,26.106,26.106,0,0,1-1.872-5.72ZM277.68,63.288h13.676V67.5H277.68Zm0,8.788h13.676V76.7H277.68ZM253.864,98.232a46.584,46.584,0,0,1-.312,5.98h6.032c-.156-1.872-.26-3.8-.26-5.98V62.872h6.032a61.619,61.619,0,0,1-4.836,11.7,19.691,19.691,0,0,1,3.64,5.3,14.172,14.172,0,0,1,1.144,5.356c0,1.716-.676,2.288-2.652,2.288a12.223,12.223,0,0,1-2.34-.208,12.9,12.9,0,0,1,1.092,5.46,17.649,17.649,0,0,0,5.72-.572c2.548-.832,3.692-2.756,3.692-6.188a18.162,18.162,0,0,0-.832-5.252,20.748,20.748,0,0,0-3.692-6.656,83.964,83.964,0,0,0,4-8.892c1.2-3.016,1.248-3.224,1.612-3.952l-2.964-3.64a14.267,14.267,0,0,1-3.8.26H257.5a32.687,32.687,0,0,1-3.8-.156c.1,2.392.156,3.12.156,4.784ZM376.74,63.7a54.341,54.341,0,0,1,5.824.312V58.14a59.16,59.16,0,0,1-6.4.312h-34.06a55.183,55.183,0,0,1-6.292-.312v5.876a62.74,62.74,0,0,1,6.4-.312h28.7V96.932c0,1.352-.416,1.612-2.392,1.612a67.879,67.879,0,0,1-7.748-.572,20.038,20.038,0,0,1,1.456,5.772c2.548.1,4,.156,5.72.156,7.436,0,8.788-.884,8.788-5.772Zm-12.948,9.828a25.4,25.4,0,0,1,.26-4.42,45.4,45.4,0,0,1-4.992.208h-13.1a41.25,41.25,0,0,1-4.836-.208,31.848,31.848,0,0,1,.26,4.784v16.38a36.576,36.576,0,0,1-.312,4.68h5.98V90.64h12.22c.208,0,.676,0,1.352.052h1.352c.936.052,1.144.052,2.028.156a35.113,35.113,0,0,1-.208-4.212Zm-16.8.832h11.232V85.6H347ZM426.5,55.9a30.241,30.241,0,0,1-4.316,8.268,5.183,5.183,0,0,1-3.172,1.872l1.2,5.252c5.564-.468,11.908-1.092,17.368-1.768q.78,1.482,1.4,2.808l4.68-2.756a71.393,71.393,0,0,0-7.072-10.66l-4.264,2.028c1.04,1.456,1.248,1.716,2.132,3.12a6.189,6.189,0,0,0,.52.884c-2.6.26-2.652.26-5.824.52-.676.052-.676.052-1.716.1a31.072,31.072,0,0,0,1.872-2.964c1.3-2.34,1.3-2.34,1.664-2.912.572-1.04.572-1.04.728-1.3a7.1,7.1,0,0,1,.78-1.4ZM449.54,68.436a69.4,69.4,0,0,0,12.012-4.576c2.548-1.248,2.548-1.248,3.64-1.716l-3.848-4.784A26.114,26.114,0,0,1,455.312,61a33.13,33.13,0,0,1-5.772,2.184V60.792a22.164,22.164,0,0,1,.26-4.212h-5.98a26.058,26.058,0,0,1,.26,4.472V74c0,1.872.572,2.912,2.028,3.432,1.352.572,2.86.728,7.124.728,6.916,0,8.788-.312,10.14-1.612,1.2-1.2,1.664-2.964,2.08-7.852a19.385,19.385,0,0,1-5.2-1.612c-.156,3.9-.312,4.94-.884,5.46-.676.572-1.82.676-6.136.676-3.224,0-3.692-.208-3.692-1.508Zm0,23.192c3.172-.884,5.616-1.612,7.332-2.288,1.56-.52,7.124-3.016,8.632-3.848l-3.952-4.576a34.761,34.761,0,0,1-12.012,5.616V84.816a21.416,21.416,0,0,1,.26-4.316h-5.98a25.518,25.518,0,0,1,.26,4.628V98.8c0,1.716.416,2.652,1.612,3.38,1.352.832,2.964,1.04,8.112,1.04,6.552,0,8.372-.364,9.776-1.924,1.352-1.508,1.924-3.484,2.288-8.372a21.2,21.2,0,0,1-5.3-1.768c-.052,3.016-.364,5.3-.832,5.98-.468.78-1.716,1.04-5.2,1.04a15.363,15.363,0,0,1-3.692-.26c-.988-.208-1.3-.52-1.3-1.4ZM420.992,98.6a43.656,43.656,0,0,1-.26,5.668h5.928a45.4,45.4,0,0,1-.26-5.772V93.344h8.736V97.66c-.1.78-.312.936-1.352.936a18.472,18.472,0,0,1-3.536-.364,21.177,21.177,0,0,1,1.144,5.3c.936.052,1.716.052,2.184.052,2.756,0,4.368-.312,5.46-.988,1.04-.624,1.456-1.82,1.456-4.056v-20.7c0-2.548.052-3.432.156-4.888a37.855,37.855,0,0,1-4.68.208h-11.44a36.905,36.905,0,0,1-3.744-.156,45.686,45.686,0,0,1,.208,4.784Zm5.356-20.7h8.788v3.224h-8.788Zm0,7.7h8.788V88.82h-8.788Z" transform="translate(180 502)"/>
            <path id="路径_39973" data-name="路径 39973" d="M5-9.6a4.159,4.159,0,0,0-3.1,1.2A5.137,5.137,0,0,0,.54-4.656c0,3.048,1.752,5,4.476,5S9.5-1.62,9.5-4.656A5.175,5.175,0,0,0,8.16-8.4,4.205,4.205,0,0,0,5-9.6ZM5.04-1.08a2.591,2.591,0,0,1-1.86-.732,3.965,3.965,0,0,1-.972-2.832c0-2.172,1.092-3.54,2.82-3.54a2.583,2.583,0,0,1,1.848.732,3.876,3.876,0,0,1,.948,2.8C7.824-2.448,6.756-1.08,5.04-1.08ZM36.576-9.408a9.767,9.767,0,0,1,.1,1.644V-3.54a2.191,2.191,0,0,1-2.436,2.484,2.2,2.2,0,0,1-2.46-2.472V-7.764a9.41,9.41,0,0,1,.1-1.644H30.084a9.858,9.858,0,0,1,.1,1.644v4.236a3.865,3.865,0,0,0,.9,2.76A4.134,4.134,0,0,0,34.176.36c2.616,0,4.092-1.392,4.092-3.876v-4.26a9.7,9.7,0,0,1,.1-1.632ZM67.332.144c-.168-.324-.468-.972-.564-1.188C65.58-3.852,65.352-4.188,64.6-4.428a2.537,2.537,0,0,0,1.332-.7,2.467,2.467,0,0,0,.612-1.788c0-1.584-1.044-2.5-2.868-2.5h-2.88c-.66,0-1.032-.012-1.536-.036a10.677,10.677,0,0,1,.1,1.56v6.468a9.391,9.391,0,0,1-.1,1.56h1.788a9.364,9.364,0,0,1-.1-1.572V-3.876h1.788c.924,0,1.344.444,1.992,2.1a9.714,9.714,0,0,1,.624,1.92ZM60.948-5.244v-2.8h2.46c.984,0,1.476.444,1.476,1.308A1.424,1.424,0,0,1,64.5-5.676a1.617,1.617,0,0,1-1.14.432ZM116.7.144a9.771,9.771,0,0,1,.528-1.6l1.8-4.224a14.644,14.644,0,0,0,.552-1.752c-.012.18-.048.792-.1,1.836v3.984a11.156,11.156,0,0,1-.1,1.752h1.68a10.4,10.4,0,0,1-.1-1.752V-7.632a12.427,12.427,0,0,1,.1-1.776H118.86a6.65,6.65,0,0,1-.432,1.428L116-2.028,113.568-7.98a8.305,8.305,0,0,1-.444-1.428h-2.2a11.9,11.9,0,0,1,.1,1.776v6.024a11.254,11.254,0,0,1-.1,1.752h1.68a10.964,10.964,0,0,1-.1-1.752V-5.544c0-.264-.048-1.248-.1-1.884a13.354,13.354,0,0,0,.612,1.836l1.728,4.116a8.169,8.169,0,0,1,.528,1.62Zm25.272-9.552a8.966,8.966,0,0,1,.1,1.548V-1.4a9.055,9.055,0,0,1-.1,1.548H143.8a9.055,9.055,0,0,1-.1-1.548V-7.86a8.966,8.966,0,0,1,.1-1.548Zm22.4,6.756a4.1,4.1,0,0,0,.228,1A2.825,2.825,0,0,0,165.66-.288a4.825,4.825,0,0,0,2.52.624,3.977,3.977,0,0,0,2.868-.912,2.792,2.792,0,0,0,.756-2.04,2.368,2.368,0,0,0-1-2.064,5.283,5.283,0,0,0-1.956-.732,10.216,10.216,0,0,1-1.692-.432,1.141,1.141,0,0,1-.816-1.092c0-.78.708-1.308,1.752-1.308a1.9,1.9,0,0,1,1.5.576,1.55,1.55,0,0,1,.36.852l1.716-.2a3.235,3.235,0,0,0-.588-1.392A3.537,3.537,0,0,0,168.1-9.624c-2.064,0-3.408,1.08-3.408,2.748a2.362,2.362,0,0,0,.924,1.944,4.242,4.242,0,0,0,1.812.732,7.566,7.566,0,0,1,2.088.588,1.218,1.218,0,0,1,.6,1.1c0,.9-.72,1.44-1.92,1.44a2.13,2.13,0,0,1-1.752-.708,1.72,1.72,0,0,1-.336-1.056Zm27.78,0a4.1,4.1,0,0,0,.228,1A2.825,2.825,0,0,0,193.44-.288a4.825,4.825,0,0,0,2.52.624,3.977,3.977,0,0,0,2.868-.912,2.792,2.792,0,0,0,.756-2.04,2.368,2.368,0,0,0-1-2.064,5.283,5.283,0,0,0-1.956-.732,10.216,10.216,0,0,1-1.692-.432,1.141,1.141,0,0,1-.816-1.092c0-.78.708-1.308,1.752-1.308a1.9,1.9,0,0,1,1.5.576,1.55,1.55,0,0,1,.36.852l1.716-.2a3.235,3.235,0,0,0-.588-1.392,3.537,3.537,0,0,0-2.988-1.212c-2.064,0-3.408,1.08-3.408,2.748a2.362,2.362,0,0,0,.924,1.944A4.242,4.242,0,0,0,195.2-4.2a7.566,7.566,0,0,1,2.088.588,1.218,1.218,0,0,1,.6,1.1c0,.9-.72,1.44-1.92,1.44a2.13,2.13,0,0,1-1.752-.708,1.72,1.72,0,0,1-.336-1.056Zm28.092-6.756a8.966,8.966,0,0,1,.1,1.548V-1.4a9.055,9.055,0,0,1-.1,1.548h1.824a9.055,9.055,0,0,1-.1-1.548V-7.86a8.966,8.966,0,0,1,.1-1.548ZM247.116-9.6a4.159,4.159,0,0,0-3.1,1.2,5.137,5.137,0,0,0-1.368,3.744c0,3.048,1.752,5,4.476,5s4.488-1.968,4.488-5A5.175,5.175,0,0,0,250.272-8.4,4.205,4.205,0,0,0,247.116-9.6Zm.036,8.52a2.591,2.591,0,0,1-1.86-.732,3.965,3.965,0,0,1-.972-2.832c0-2.172,1.092-3.54,2.82-3.54a2.583,2.583,0,0,1,1.848.732,3.876,3.876,0,0,1,.948,2.8C249.936-2.448,248.868-1.08,247.152-1.08ZM280.368.144a9.055,9.055,0,0,1-.1-1.548V-7.752a10.493,10.493,0,0,1,.1-1.656h-1.752a10.489,10.489,0,0,1,.1,1.656V-3.72c0,.5.036,1.224.084,1.692-.264-.48-.648-1.1-.936-1.536l-3.036-4.572a6.582,6.582,0,0,1-.732-1.272H272.22a9.993,9.993,0,0,1,.1,1.548v6.192a12.983,12.983,0,0,1-.1,1.812h1.752a13.282,13.282,0,0,1-.1-1.8V-5.592c0-.276-.024-.816-.036-1.044-.036-.444-.036-.444-.048-.612.288.564.588,1.08.816,1.44l3.1,4.668a11.958,11.958,0,0,1,.768,1.284Z" transform="translate(180 416)"/>
          </g>
        </g>
        <g id="背景" transform="translate(283.495 -6.459)" opacity="0.1">
          <path id="路径_39769" data-name="路径 39769" d="M395.381,229.828l896.223,2.131,97.389,98.326V711.014l-921.585-2.13-72.028-85.75Z" transform="translate(90.634 56.382)" fill="none" stroke="#000" stroke-miterlimit="10" stroke-width="2"/>
          <path id="路径_39770" data-name="路径 39770" d="M484,250.647h769.917l62.883-66.313" transform="translate(155.55 21.688)" fill="none" stroke="#000" stroke-miterlimit="10" stroke-width="2"/>
          <path id="路径_39771" data-name="路径 39771" d="M1316.8,184.333H546.883L484,250.647" transform="translate(-59.926 594.795)" fill="none" stroke="#000" stroke-miterlimit="10" stroke-width="2"/>
          <circle id="椭圆_1997" data-name="椭圆 1997" cx="29.476" cy="29.476" r="29.476" transform="translate(1461.56 154)" fill="none" stroke="#000" stroke-miterlimit="10" stroke-width="2"/>
          <circle id="椭圆_1998" data-name="椭圆 1998" cx="18.42" cy="18.42" r="18.42" transform="translate(393.772 840.211)" fill="none" stroke="#000" stroke-miterlimit="10" stroke-width="2"/>
          <path id="路径_39772" data-name="路径 39772" d="M594.911,288.661l58.755-25.446h748.26" transform="translate(-31.036 -16.326)" fill="none" stroke="#000" stroke-width="2"/>
          <path id="路径_39773" data-name="路径 39773" d="M1401.926,263.214l-58.755,25.446H594.911" transform="translate(-69.377 515.914)" fill="none" stroke="#000" stroke-width="2"/>
          <path id="路径_39774" data-name="路径 39774" d="M444.242,293.133H387.292V671" transform="translate(79.749 -20.798)" fill="none" stroke="#000" stroke-width="2"/>
          <path id="路径_39775" data-name="路径 39775" d="M1688.293,462.333V786.349H1608.8" transform="translate(-182.597 -46.091)" fill="none" stroke="#707070" stroke-width="2"/>
          <path id="路径_39776" data-name="路径 39776" d="M428.642,768.6l67.719,70.977" transform="translate(44.819 -79.873)" fill="none" stroke="#000" stroke-width="2"/>
          <path id="路径_39777" data-name="路径 39777" d="M1636.882,316.811l50.249,47.226" transform="translate(-194.885 -6.37)" fill="none" stroke="#000" stroke-width="2"/>
        </g>
      </g>
    </g>
  </g>
</svg>
