<svg xmlns="http://www.w3.org/2000/svg" xmlns:xlink="http://www.w3.org/1999/xlink" width="1820" height="880" viewBox="0 0 1820 880">
  <defs>
    <clipPath id="clip-path">
      <rect id="矩形_2830" data-name="矩形 2830" width="1820" height="880" transform="translate(50 88)" fill="#fff"/>
    </clipPath>
  </defs>
  <g id="banner" transform="translate(-50 -88)" clip-path="url(#clip-path)">
    <g id="组_22248" data-name="组 22248">
      <g id="组_22247" data-name="组 22247" transform="translate(-6274 1354)">
        <g id="组_22243" data-name="组 22243" transform="translate(6189 -1390)">
          <path id="路径_41001" data-name="路径 41001" d="M2.34-11.492a17.776,17.776,0,0,0,.988,4.316A12.243,12.243,0,0,0,7.9-1.248c2.5,1.664,6.656,2.7,10.92,2.7,5.564,0,9.672-1.3,12.428-3.952a12.1,12.1,0,0,0,3.276-8.84,10.263,10.263,0,0,0-4.316-8.944c-1.872-1.3-4.368-2.288-8.476-3.172-5.772-1.3-6.188-1.4-7.332-1.872-2.392-1.04-3.536-2.548-3.536-4.732,0-3.38,3.068-5.668,7.592-5.668,2.86,0,5.148.884,6.5,2.5a6.717,6.717,0,0,1,1.56,3.692l7.436-.884a14.018,14.018,0,0,0-2.548-6.032C28.86-39.884,24.388-41.7,18.46-41.7,9.516-41.7,3.692-37.024,3.692-29.8a10.234,10.234,0,0,0,4,8.424c1.872,1.456,3.952,2.288,7.852,3.172,7.176,1.664,7.488,1.716,9.048,2.548a5.28,5.28,0,0,1,2.6,4.784c0,3.9-3.12,6.24-8.32,6.24-3.38,0-6.084-1.092-7.592-3.068-.936-1.2-1.248-2.236-1.456-4.576ZM40.4-40.768v6.6h7.644v-6.6Zm0,11.544a42.739,42.739,0,0,1,.416,6.76V-6.136A46.733,46.733,0,0,1,40.4.624H48a52.237,52.237,0,0,1-.364-6.812V-22.412A46.741,46.741,0,0,1,48-29.224ZM61.828.624a54.121,54.121,0,0,1-.364-6.76v-10.3a11.742,11.742,0,0,1,2.236-5.2,6.441,6.441,0,0,1,5.356-2.7c3.38,0,5.044,2.184,5.044,6.552V-6.136a42.32,42.32,0,0,1-.416,6.76h7.488a50.871,50.871,0,0,1-.364-6.76v-10.3c.624-3.224,1.456-4.888,3.276-6.448a6.014,6.014,0,0,1,4.264-1.56c3.484,0,5.1,2.08,5.1,6.656V-6.136a41.093,41.093,0,0,1-.416,6.76h7.592a42.32,42.32,0,0,1-.416-6.76V-18.98c0-3.692-.728-6.032-2.444-7.9a10.262,10.262,0,0,0-7.8-2.964A11.488,11.488,0,0,0,84.136-28.5c-1.612.832-2.6,1.768-4.368,4.108a6.74,6.74,0,0,0-1.976-3.12,9.327,9.327,0,0,0-6.708-2.34c-4.316,0-8.164,2.028-9.672,5.2.052-.832.052-1.612.052-1.924v-2.652H54.5a45.486,45.486,0,0,1,.364,6.76V-6.136A52.463,52.463,0,0,1,54.5.624Zm52.1,0V-1.924c0-.624,0-1.2-.052-1.872,2.6,3.64,5.564,5.148,10.348,5.148q6.318,0,9.984-3.744c2.808-2.912,4.264-7.072,4.264-12.168,0-9.672-5.148-15.34-13.884-15.34-4.784,0-8.008,1.612-10.712,5.252.052-1.768.1-3.068.1-3.9v-5.2a53,53,0,0,1,.364-7.02h-7.332a60.638,60.638,0,0,1,.364,6.968V-6.4a54.586,54.586,0,0,1-.364,7.02ZM131.716-14.56c0,6.292-3.38,10.348-8.632,10.348a9.059,9.059,0,0,1-5.46-1.924c-2.08-1.664-3.432-4.94-3.432-8.216a11.2,11.2,0,0,1,2.548-7.228,9.279,9.279,0,0,1,7.072-2.86C128.6-24.44,131.716-20.54,131.716-14.56Zm12.012-26.208v6.6h7.644v-6.6Zm0,11.544a42.739,42.739,0,0,1,.416,6.76V-6.136a46.734,46.734,0,0,1-.416,6.76h7.592a52.238,52.238,0,0,1-.364-6.812V-22.412a46.742,46.742,0,0,1,.364-6.812ZM172.12,1.612c9.256,0,15.34-6.344,15.34-15.964s-5.98-15.756-15.392-15.756c-9.464,0-15.5,6.188-15.5,15.86C156.572-4.524,162.6,1.612,172.12,1.612ZM172.068-24.7c5.512,0,8.684,3.848,8.684,10.556,0,6.344-3.328,10.244-8.736,10.244s-8.736-3.952-8.736-10.348C163.28-20.748,166.608-24.7,172.068-24.7ZM191.36-7.852a11.7,11.7,0,0,0,2.028,4.628c2.236,3.016,6.24,4.628,11.6,4.628,4.732,0,8.372-1.144,10.764-3.38A8.361,8.361,0,0,0,218.3-7.852,7.39,7.39,0,0,0,215.28-14.3c-1.716-1.3-3.848-2.028-9.152-3.172a21.9,21.9,0,0,1-5.2-1.56,2.8,2.8,0,0,1-1.612-2.444c0-2.184,2.184-3.64,5.408-3.64,3.38,0,5.148,1.248,5.72,4.108l6.864-.884A10.122,10.122,0,0,0,214.5-27.04c-2.132-1.976-5.512-3.016-9.776-3.016-4.732,0-8.268,1.352-10.4,4.056a7.737,7.737,0,0,0-1.612,4.836,7.446,7.446,0,0,0,4.576,6.916,31.435,31.435,0,0,0,7.488,2.236c4.16.936,4.472.988,5.46,1.664a3.179,3.179,0,0,1,1.352,2.6c0,2.444-2.392,3.952-6.24,3.952-4.056,0-5.98-1.4-6.864-4.94ZM223.5-40.768v6.6h7.644v-6.6Zm0,11.544a42.739,42.739,0,0,1,.416,6.76V-6.136A46.734,46.734,0,0,1,223.5.624h7.592a52.238,52.238,0,0,1-.364-6.812V-22.412a46.742,46.742,0,0,1,.364-6.812ZM236.288-7.852a11.7,11.7,0,0,0,2.028,4.628c2.236,3.016,6.24,4.628,11.6,4.628,4.732,0,8.372-1.144,10.764-3.38a8.361,8.361,0,0,0,2.548-5.876,7.39,7.39,0,0,0-3.016-6.448c-1.716-1.3-3.848-2.028-9.152-3.172a21.9,21.9,0,0,1-5.2-1.56,2.8,2.8,0,0,1-1.612-2.444c0-2.184,2.184-3.64,5.408-3.64,3.38,0,5.148,1.248,5.72,4.108l6.864-.884a10.122,10.122,0,0,0-2.808-5.148c-2.132-1.976-5.512-3.016-9.776-3.016-4.732,0-8.268,1.352-10.4,4.056a7.737,7.737,0,0,0-1.612,4.836,7.446,7.446,0,0,0,4.576,6.916,31.435,31.435,0,0,0,7.488,2.236c4.16.936,4.472.988,5.46,1.664a3.179,3.179,0,0,1,1.352,2.6c0,2.444-2.392,3.952-6.24,3.952-4.056,0-5.98-1.4-6.864-4.94Zm49.5-32.916a48.659,48.659,0,0,1,.364,6.812v27.82a42.737,42.737,0,0,1-.416,6.76h7.488a46.265,46.265,0,0,1-.416-6.76v-10.5c2.34-5.2,5.356-7.7,9.256-7.7a4.828,4.828,0,0,1,3.588,1.508c.988,1.04,1.508,2.756,1.508,5.148V-6.136A55.26,55.26,0,0,1,306.8.624h7.54a41.091,41.091,0,0,1-.416-6.76v-13.1c0-6.708-3.8-10.5-10.452-10.5-4.732,0-7.54,1.456-10.764,5.512a21.327,21.327,0,0,0,.1-2.236V-33.9a49.974,49.974,0,0,1,.364-6.864Zm49.244,42.38c9.256,0,15.34-6.344,15.34-15.964s-5.98-15.756-15.392-15.756c-9.464,0-15.5,6.188-15.5,15.86C319.488-4.524,325.52,1.612,335.036,1.612ZM334.984-24.7c5.512,0,8.684,3.848,8.684,10.556,0,6.344-3.328,10.244-8.736,10.244S326.2-7.852,326.2-14.248C326.2-20.748,329.524-24.7,334.984-24.7ZM362.908.624a54.118,54.118,0,0,1-.364-6.76v-10.3a11.742,11.742,0,0,1,2.236-5.2,6.441,6.441,0,0,1,5.356-2.7c3.38,0,5.044,2.184,5.044,6.552V-6.136a42.319,42.319,0,0,1-.416,6.76h7.488a50.874,50.874,0,0,1-.364-6.76v-10.3c.624-3.224,1.456-4.888,3.276-6.448a6.014,6.014,0,0,1,4.264-1.56c3.484,0,5.1,2.08,5.1,6.656V-6.136a41.1,41.1,0,0,1-.416,6.76H401.7a42.323,42.323,0,0,1-.416-6.76V-18.98c0-3.692-.728-6.032-2.444-7.9a10.262,10.262,0,0,0-7.8-2.964,11.488,11.488,0,0,0-5.824,1.352c-1.612.832-2.6,1.768-4.368,4.108a6.74,6.74,0,0,0-1.976-3.12,9.327,9.327,0,0,0-6.708-2.34c-4.316,0-8.164,2.028-9.672,5.2.052-.832.052-1.612.052-1.924v-2.652h-6.968a45.484,45.484,0,0,1,.364,6.76V-6.136a52.462,52.462,0,0,1-.364,6.76Zm52.1,0V-1.924c0-.624,0-1.2-.052-1.872,2.6,3.64,5.564,5.148,10.348,5.148q6.318,0,9.984-3.744c2.808-2.912,4.264-7.072,4.264-12.168,0-9.672-5.148-15.34-13.884-15.34-4.784,0-8.008,1.612-10.712,5.252.052-1.768.1-3.068.1-3.9v-5.2a53,53,0,0,1,.364-7.02H408.1a60.637,60.637,0,0,1,.364,6.968V-6.4A54.584,54.584,0,0,1,408.1.624ZM432.8-14.56c0,6.292-3.38,10.348-8.632,10.348a9.059,9.059,0,0,1-5.46-1.924c-2.08-1.664-3.432-4.94-3.432-8.216a11.2,11.2,0,0,1,2.548-7.228,9.279,9.279,0,0,1,7.072-2.86C429.676-24.44,432.8-20.54,432.8-14.56Zm33.8-14.664a26.961,26.961,0,0,0-4.836-.572c-4.68,0-7.9,1.768-9.776,5.46v-4.888h-7.072a41.11,41.11,0,0,1,.364,6.76V-6.136a57.034,57.034,0,0,1-.364,6.76h7.436a54.685,54.685,0,0,1-.364-6.76v-9.62a8.37,8.37,0,0,1,2.132-5.2,7.422,7.422,0,0,1,6.032-2.548,15.529,15.529,0,0,1,4.628.832Zm31.772,16.64c-.1-1.2-.1-1.352-.1-1.456a21.377,21.377,0,0,0-1.508-7.9c-2.08-5.2-6.864-8.216-12.948-8.216-8.892,0-14.664,6.292-14.664,15.912,0,9.724,5.824,15.86,15.028,15.86a14.767,14.767,0,0,0,10.712-4,14.614,14.614,0,0,0,3.172-4.784L491.92-9.152a7.557,7.557,0,0,1-1.508,2.7,8.222,8.222,0,0,1-6.24,2.6,8.173,8.173,0,0,1-6.5-2.912c-1.2-1.508-1.664-2.964-1.924-5.824ZM475.9-17.732c.78-4.368,3.744-7.072,7.8-7.072a7.416,7.416,0,0,1,5.616,2.08,8.162,8.162,0,0,1,2.288,4.992ZM502.06-11.7a28.62,28.62,0,0,1,4.888-.312h8.06a28.535,28.535,0,0,1,4.94.312v-6.916a32.84,32.84,0,0,1-4.94.312h-8.06a32.578,32.578,0,0,1-4.888-.312ZM10.556,100.624a54.12,54.12,0,0,1-.364-6.76v-10.3a11.742,11.742,0,0,1,2.236-5.2,6.441,6.441,0,0,1,5.356-2.7c3.38,0,5.044,2.184,5.044,6.552V93.864a42.321,42.321,0,0,1-.416,6.76H29.9a50.871,50.871,0,0,1-.364-6.76v-10.3c.624-3.224,1.456-4.888,3.276-6.448a6.014,6.014,0,0,1,4.264-1.56c3.484,0,5.1,2.08,5.1,6.656V93.864a41.093,41.093,0,0,1-.416,6.76h7.592a42.32,42.32,0,0,1-.416-6.76V81.02c0-3.692-.728-6.032-2.444-7.9a10.262,10.262,0,0,0-7.8-2.964A11.488,11.488,0,0,0,32.864,71.5c-1.612.832-2.6,1.768-4.368,4.108a6.74,6.74,0,0,0-1.976-3.12,9.327,9.327,0,0,0-6.708-2.34c-4.316,0-8.164,2.028-9.672,5.2.052-.832.052-1.612.052-1.924V70.776H3.224a45.486,45.486,0,0,1,.364,6.76V93.864a52.464,52.464,0,0,1-.364,6.76ZM79.04,70.776v2.392c0,.624.052,1.2.1,1.872a11.91,11.91,0,0,0-10.192-4.992,14.938,14.938,0,0,0-8.112,2.236c-4.16,2.652-6.344,7.228-6.344,13.26,0,9.828,5.356,15.808,14.248,15.808a13.731,13.731,0,0,0,7.176-1.768,10.514,10.514,0,0,0,3.744-3.692c.884,2.964,1.768,4,4.732,5.668l4.888-4.576c-2.86-1.612-3.744-3.068-3.692-6.448l.052-12.74a51.969,51.969,0,0,1,.364-7.02ZM61.256,85.856c0-6.292,3.224-10.14,8.476-10.14,5.3,0,9.1,4.056,9.1,9.672,0,6.188-3.744,10.4-9.256,10.4A8.683,8.683,0,0,1,65,94.488C62.452,92.876,61.256,90.12,61.256,85.856Zm3.276-22.464L69,68.072,77.948,58.5l-2.236-2.34Zm51.584,7.384v2.392c0,.572.052,1.144.1,1.872-2.34-3.328-5.824-4.992-10.3-4.992a15.4,15.4,0,0,0-7.852,1.924c-4.16,2.548-6.5,7.436-6.5,13.624,0,4.992,1.4,9,4.056,11.648a13.747,13.747,0,0,0,9.932,3.744c4.628,0,8.112-1.664,10.66-5.044q-.156,2.652-.156,3.9v4a51.826,51.826,0,0,1-.364,6.916h7.332a58.215,58.215,0,0,1-.364-6.864V77.744a53.727,53.727,0,0,1,.364-6.968ZM98.332,85.7c0-6.136,3.38-10.088,8.632-10.088,5.148,0,8.892,4.056,8.892,9.672a12.7,12.7,0,0,1-1.248,5.564,9.144,9.144,0,0,1-8.112,4.68C101.556,95.528,98.332,91.628,98.332,85.7ZM150.54,70.776a54.86,54.86,0,0,1,.416,6.76v10.5c-2.34,5.148-5.3,7.7-9.048,7.7a6.47,6.47,0,0,1-2.86-.728c-1.612-.988-2.392-2.912-2.392-5.928V77.536a46.54,46.54,0,0,1,.364-6.76h-7.54a47.794,47.794,0,0,1,.416,6.76V90.692c0,4.264,1.352,7.176,4.212,9a11.328,11.328,0,0,0,6.24,1.508c4.94,0,7.8-1.508,10.66-5.564-.052,1.3-.052,1.456-.052,2.236v2.756h7.072a42.739,42.739,0,0,1-.416-6.76V77.536a37.649,37.649,0,0,1,.416-6.76Zm13.988-11.544v6.6h7.644v-6.6Zm0,11.544a42.739,42.739,0,0,1,.416,6.76V93.864a46.734,46.734,0,0,1-.416,6.76h7.592a52.238,52.238,0,0,1-.364-6.812V77.588a46.742,46.742,0,0,1,.364-6.812Zm21.58,29.848a46.265,46.265,0,0,1-.416-6.76V83.36c2.288-5.148,5.356-7.748,9.1-7.748a4.891,4.891,0,0,1,4.368,2.132,8.542,8.542,0,0,1,.884,4.576V93.864a55.26,55.26,0,0,1-.364,6.76h7.54a41.092,41.092,0,0,1-.416-6.76V81.384c0-3.484-.52-5.564-1.768-7.28-1.872-2.548-4.836-3.848-8.84-3.848-4.68,0-7.436,1.456-10.608,5.512a20.317,20.317,0,0,0,.1-2.236V70.776H178.62a42.739,42.739,0,0,1,.416,6.76V93.864a43.162,43.162,0,0,1-.416,6.76Zm47.268,0h7.02a41.823,41.823,0,0,1-.416-6.5V80.136c0-3.536-.676-5.512-2.444-7.176-2.236-2.184-5.252-3.068-10.244-3.068-4.472,0-7.384.78-9.932,2.652-1.976,1.4-2.912,2.756-4.108,5.772l6.656,1.2c.624-1.872,1.092-2.6,2.08-3.328a9.381,9.381,0,0,1,5.408-1.508c3.952,0,5.98,1.56,5.98,4.576V81.9c-7.436.156-11.284.676-14.664,2.08a9.225,9.225,0,0,0-5.876,8.424c0,5.46,3.848,8.736,10.192,8.736a18.4,18.4,0,0,0,4.836-.624,11.276,11.276,0,0,0,5.512-3.276Zm0-11.6A6.2,6.2,0,0,1,231.5,93.6a10.559,10.559,0,0,1-7.228,2.756c-2.912,0-4.732-1.508-4.732-3.952,0-4.056,3.9-5.772,13.832-5.98Zm20.8,4h-7.644v7.592H250.9c-.052,3.224-.78,4.16-3.952,5.044l1.872,2.756c4.212-1.664,5.356-3.328,5.356-7.8Zm50.856-13.78a17.309,17.309,0,0,0-1.82-3.8c-2.5-3.64-6.552-5.616-11.648-5.616a14.239,14.239,0,0,0-10.452,3.952c-2.86,2.912-4.42,7.124-4.42,12.012,0,9.62,5.928,15.808,15.08,15.808,4.94,0,8.944-1.82,11.44-5.252a14.559,14.559,0,0,0,2.184-4.42l-6.448-1.3a7.268,7.268,0,0,1-1.04,2.6,6.961,6.961,0,0,1-5.98,2.912c-5.252,0-8.476-4-8.476-10.5,0-6.448,3.172-10.452,8.268-10.452a6.542,6.542,0,0,1,5.356,2.392,9.37,9.37,0,0,1,1.612,3.172Zm19.708,22.36c9.256,0,15.34-6.344,15.34-15.964s-5.98-15.756-15.392-15.756c-9.464,0-15.5,6.188-15.5,15.86C309.192,95.476,315.224,101.612,324.74,101.612ZM324.688,75.3c5.512,0,8.684,3.848,8.684,10.556,0,6.344-3.328,10.244-8.736,10.244S315.9,92.148,315.9,85.752C315.9,79.252,319.228,75.3,324.688,75.3Zm28.08,25.324a46.265,46.265,0,0,1-.416-6.76V83.36c2.288-5.148,5.356-7.748,9.1-7.748a4.891,4.891,0,0,1,4.368,2.132,8.542,8.542,0,0,1,.884,4.576V93.864a55.26,55.26,0,0,1-.364,6.76h7.54a41.091,41.091,0,0,1-.416-6.76V81.384c0-3.484-.52-5.564-1.768-7.28-1.872-2.548-4.836-3.848-8.84-3.848-4.68,0-7.436,1.456-10.608,5.512a20.317,20.317,0,0,0,.1-2.236V70.776H345.28a42.737,42.737,0,0,1,.416,6.76V93.864a43.16,43.16,0,0,1-.416,6.76Zm55.484-13.208c-.1-1.2-.1-1.352-.1-1.456a21.377,21.377,0,0,0-1.508-7.9c-2.08-5.2-6.864-8.216-12.948-8.216-8.892,0-14.664,6.292-14.664,15.912,0,9.724,5.824,15.86,15.028,15.86a14.767,14.767,0,0,0,10.712-4,14.614,14.614,0,0,0,3.172-4.784L401.8,90.848a7.558,7.558,0,0,1-1.508,2.7,8.748,8.748,0,0,1-12.74-.312c-1.2-1.508-1.664-2.964-1.924-5.824Zm-22.464-5.148c.78-4.368,3.744-7.072,7.8-7.072a7.416,7.416,0,0,1,5.616,2.08,8.162,8.162,0,0,1,2.288,4.992Zm54.7-3.016a17.309,17.309,0,0,0-1.82-3.8c-2.5-3.64-6.552-5.616-11.648-5.616a14.239,14.239,0,0,0-10.452,3.952c-2.86,2.912-4.42,7.124-4.42,12.012,0,9.62,5.928,15.808,15.08,15.808,4.94,0,8.944-1.82,11.44-5.252a14.559,14.559,0,0,0,2.184-4.42l-6.448-1.3a7.267,7.267,0,0,1-1.04,2.6,6.961,6.961,0,0,1-5.98,2.912c-5.252,0-8.476-4-8.476-10.5,0-6.448,3.172-10.452,8.268-10.452a6.543,6.543,0,0,1,5.356,2.392,9.371,9.371,0,0,1,1.612,3.172Zm8.892-16.484a59.859,59.859,0,0,1,.364,6.4v1.612h-1.924a23.884,23.884,0,0,1-4.68-.312V76.6a26.259,26.259,0,0,1,4.628-.312h1.976V93.76c0,5.46,2.392,7.592,8.372,7.592a16.272,16.272,0,0,0,6.5-1.092l-.936-5.512a6.878,6.878,0,0,1-3.8,1.144c-2.5,0-3.432-.936-3.432-3.484V76.288h2.34a28.67,28.67,0,0,1,5.1.312V70.464a29.875,29.875,0,0,1-5.252.312h-2.184V69.164a57.512,57.512,0,0,1,.364-6.4Zm38.844,37.856h7.02a41.821,41.821,0,0,1-.416-6.5V80.136c0-3.536-.676-5.512-2.444-7.176-2.236-2.184-5.252-3.068-10.244-3.068-4.472,0-7.384.78-9.932,2.652-1.976,1.4-2.912,2.756-4.108,5.772l6.656,1.2c.624-1.872,1.092-2.6,2.08-3.328a9.381,9.381,0,0,1,5.408-1.508c3.952,0,5.98,1.56,5.98,4.576V81.9c-7.436.156-11.284.676-14.664,2.08a9.225,9.225,0,0,0-5.876,8.424c0,5.46,3.848,8.736,10.192,8.736a18.4,18.4,0,0,0,4.836-.624,11.276,11.276,0,0,0,5.512-3.276Zm0-11.6a6.2,6.2,0,0,1-1.872,4.576,10.559,10.559,0,0,1-7.228,2.756c-2.912,0-4.732-1.508-4.732-3.952,0-4.056,3.9-5.772,13.832-5.98Zm-485,70.2v6.6h7.644v-6.6Zm0,11.544a42.739,42.739,0,0,1,.416,6.76v16.328a46.733,46.733,0,0,1-.416,6.76h7.592a52.237,52.237,0,0,1-.364-6.812V177.588a46.741,46.741,0,0,1,.364-6.812ZM24.8,200.624a46.267,46.267,0,0,1-.416-6.76v-10.5c2.288-5.148,5.356-7.748,9.1-7.748a4.891,4.891,0,0,1,4.368,2.132,8.542,8.542,0,0,1,.884,4.576v11.544a55.262,55.262,0,0,1-.364,6.76h7.54a41.092,41.092,0,0,1-.416-6.76v-12.48c0-3.484-.52-5.564-1.768-7.28-1.872-2.548-4.836-3.848-8.84-3.848-4.68,0-7.436,1.456-10.608,5.512a20.318,20.318,0,0,0,.1-2.236v-2.756H17.316a42.739,42.739,0,0,1,.416,6.76v16.328a43.162,43.162,0,0,1-.416,6.76Zm31.824-24.388v17.628a55.845,55.845,0,0,1-.364,6.76H63.7a51.394,51.394,0,0,1-.364-6.76V176.236h2.548a44.751,44.751,0,0,1,5.772.312v-6.084a57.11,57.11,0,0,1-5.876.312H63.336v-2.132c0-3.588,1.04-4.836,4.056-4.836a8.608,8.608,0,0,1,4.628,1.248l1.4-5.46a18.8,18.8,0,0,0-6.448-1.04c-7.072,0-10.348,3.016-10.348,9.464v2.756H54.5a34.078,34.078,0,0,1-4.888-.312v6.084a35.369,35.369,0,0,1,4.94-.312Zm20.488-17v6.6H84.76v-6.6Zm0,11.544a42.738,42.738,0,0,1,.416,6.76v16.328a46.732,46.732,0,0,1-.416,6.76h7.592a52.237,52.237,0,0,1-.364-6.812V177.588a46.741,46.741,0,0,1,.364-6.812ZM98.7,200.624a46.267,46.267,0,0,1-.416-6.76v-10.5c2.288-5.148,5.356-7.748,9.1-7.748a4.891,4.891,0,0,1,4.368,2.132,8.542,8.542,0,0,1,.884,4.576v11.544a55.263,55.263,0,0,1-.364,6.76h7.54a41.092,41.092,0,0,1-.416-6.76v-12.48c0-3.484-.52-5.564-1.768-7.28-1.872-2.548-4.836-3.848-8.84-3.848-4.68,0-7.436,1.456-10.608,5.512a20.319,20.319,0,0,0,.1-2.236v-2.756H91.208a42.738,42.738,0,0,1,.416,6.76v16.328a43.161,43.161,0,0,1-.416,6.76ZM126.2,159.232v6.6h7.644v-6.6Zm0,11.544a42.738,42.738,0,0,1,.416,6.76v16.328a46.732,46.732,0,0,1-.416,6.76H133.8a52.238,52.238,0,0,1-.364-6.812V177.588a46.742,46.742,0,0,1,.364-6.812Zm17.576-8.008a59.85,59.85,0,0,1,.364,6.4v1.612H142.22a23.884,23.884,0,0,1-4.68-.312V176.6a26.258,26.258,0,0,1,4.628-.312h1.976V193.76c0,5.46,2.392,7.592,8.372,7.592a16.272,16.272,0,0,0,6.5-1.092l-.936-5.512a6.878,6.878,0,0,1-3.8,1.144c-2.5,0-3.432-.936-3.432-3.484v-16.12h2.34a28.669,28.669,0,0,1,5.1.312v-6.136a29.876,29.876,0,0,1-5.252.312h-2.184v-1.612a57.515,57.515,0,0,1,.364-6.4Zm38.844,37.856h7.02a41.823,41.823,0,0,1-.416-6.5V180.136c0-3.536-.676-5.512-2.444-7.176-2.236-2.184-5.252-3.068-10.244-3.068-4.472,0-7.384.78-9.932,2.652-1.976,1.4-2.912,2.756-4.108,5.772l6.656,1.2c.624-1.872,1.092-2.6,2.08-3.328a9.381,9.381,0,0,1,5.408-1.508c3.952,0,5.98,1.56,5.98,4.576V181.9c-7.436.156-11.284.676-14.664,2.08a9.225,9.225,0,0,0-5.876,8.424c0,5.46,3.848,8.736,10.192,8.736a18.4,18.4,0,0,0,4.836-.624,11.276,11.276,0,0,0,5.512-3.276Zm0-11.6a6.2,6.2,0,0,1-1.872,4.576,10.559,10.559,0,0,1-7.228,2.756c-2.912,0-4.732-1.508-4.732-3.952,0-4.056,3.9-5.772,13.832-5.98Zm11.908,3.12a11.7,11.7,0,0,0,2.028,4.628c2.236,3.016,6.24,4.628,11.6,4.628,4.732,0,8.372-1.144,10.764-3.38a8.361,8.361,0,0,0,2.548-5.876,7.39,7.39,0,0,0-3.016-6.448c-1.716-1.3-3.848-2.028-9.152-3.172a21.9,21.9,0,0,1-5.2-1.56,2.8,2.8,0,0,1-1.612-2.444c0-2.184,2.184-3.64,5.408-3.64,3.38,0,5.148,1.248,5.72,4.108l6.864-.884a10.122,10.122,0,0,0-2.808-5.148c-2.132-1.976-5.512-3.016-9.776-3.016-4.732,0-8.268,1.352-10.4,4.056a7.737,7.737,0,0,0-1.612,4.836,7.446,7.446,0,0,0,4.576,6.916,31.435,31.435,0,0,0,7.488,2.236c4.16.936,4.472.988,5.46,1.664a3.179,3.179,0,0,1,1.352,2.6c0,2.444-2.392,3.952-6.24,3.952-4.056,0-5.98-1.4-6.864-4.94ZM250.9,170.776h-6.916a53.727,53.727,0,0,1,.364,6.968V203.9a58.216,58.216,0,0,1-.364,6.864h7.332a51.827,51.827,0,0,1-.364-6.916V199.9c0-.936,0-1.872-.052-2.236-.052-1.04-.052-1.04-.052-1.664,2.5,3.38,5.928,4.992,10.5,4.992,8.84,0,14.092-5.772,14.092-15.34,0-5.252-1.352-9.152-4.108-11.96-2.392-2.392-5.72-3.64-9.88-3.64-4.68,0-7.748,1.456-10.608,5.1.052-.676.052-1.248.052-1.82Zm17.784,14.768c0,6.136-3.172,9.984-8.268,9.984-5.408,0-9.256-4.16-9.256-10.088,0-5.564,3.9-9.828,9.048-9.828C265.46,175.612,268.684,179.408,268.684,185.544ZM295.1,201.612c9.256,0,15.34-6.344,15.34-15.964s-5.98-15.756-15.392-15.756c-9.464,0-15.5,6.188-15.5,15.86C279.552,195.476,285.584,201.612,295.1,201.612Zm-.052-26.312c5.512,0,8.684,3.848,8.684,10.556,0,6.344-3.328,10.244-8.736,10.244s-8.736-3.952-8.736-10.348C286.26,179.252,289.588,175.3,295.048,175.3Zm19.292,16.848a11.7,11.7,0,0,0,2.028,4.628c2.236,3.016,6.24,4.628,11.6,4.628,4.732,0,8.372-1.144,10.764-3.38a8.361,8.361,0,0,0,2.548-5.876,7.39,7.39,0,0,0-3.016-6.448c-1.716-1.3-3.848-2.028-9.152-3.172a21.9,21.9,0,0,1-5.2-1.56,2.8,2.8,0,0,1-1.612-2.444c0-2.184,2.184-3.64,5.408-3.64,3.38,0,5.148,1.248,5.72,4.108l6.864-.884a10.122,10.122,0,0,0-2.808-5.148c-2.132-1.976-5.512-3.016-9.776-3.016-4.732,0-8.268,1.352-10.4,4.056a7.737,7.737,0,0,0-1.612,4.836,7.446,7.446,0,0,0,4.576,6.916,31.435,31.435,0,0,0,7.488,2.236c4.16.936,4.472.988,5.46,1.664a3.179,3.179,0,0,1,1.352,2.6c0,2.444-2.392,3.952-6.24,3.952-4.056,0-5.98-1.4-6.864-4.94Zm32.136-32.916v6.6h7.644v-6.6Zm0,11.544a42.737,42.737,0,0,1,.416,6.76v16.328a46.731,46.731,0,0,1-.416,6.76h7.592a52.235,52.235,0,0,1-.364-6.812V177.588a46.739,46.739,0,0,1,.364-6.812Zm21.008,29.848v-2.548c0-.624,0-1.2-.052-1.872,2.6,3.64,5.564,5.148,10.348,5.148q6.318,0,9.984-3.744c2.808-2.912,4.264-7.072,4.264-12.168,0-9.672-5.148-15.34-13.884-15.34-4.784,0-8.008,1.612-10.712,5.252.052-1.768.1-3.068.1-3.9v-5.2a53,53,0,0,1,.364-7.02h-7.332a60.637,60.637,0,0,1,.364,6.968v27.4a54.584,54.584,0,0,1-.364,7.02Zm17.784-15.184c0,6.292-3.38,10.348-8.632,10.348a9.059,9.059,0,0,1-5.46-1.924c-2.08-1.664-3.432-4.94-3.432-8.216a11.2,11.2,0,0,1,2.548-7.228,9.279,9.279,0,0,1,7.072-2.86C382.148,175.56,385.268,179.46,385.268,185.44Zm12.012-26.208v6.6h7.644v-6.6Zm0,11.544a42.737,42.737,0,0,1,.416,6.76v16.328a46.731,46.731,0,0,1-.416,6.76h7.592a52.235,52.235,0,0,1-.364-6.812V177.588a46.739,46.739,0,0,1,.364-6.812Zm14.092-11.544a46.888,46.888,0,0,1,.364,6.76v27.872a50.35,50.35,0,0,1-.364,6.76h7.54a53.559,53.559,0,0,1-.364-6.76v-27.82a48.171,48.171,0,0,1,.364-6.812Zm14.092,0v6.6h7.644v-6.6Zm0,11.544a42.737,42.737,0,0,1,.416,6.76v16.328a46.731,46.731,0,0,1-.416,6.76h7.592a52.235,52.235,0,0,1-.364-6.812V177.588a46.739,46.739,0,0,1,.364-6.812Zm37.44,29.848h6.916a54.584,54.584,0,0,1-.364-7.02V166.2a60.637,60.637,0,0,1,.364-6.968h-7.332a53,53,0,0,1,.364,7.02v5.2c0,.884,0,1.872.052,2.236.052,1.04.052,1.04.052,1.664a13.242,13.242,0,0,0-2.652-2.86,12.343,12.343,0,0,0-7.9-2.392c-8.58,0-14.04,6.032-14.04,15.548,0,5.616,1.924,10.348,5.408,13.052a13.221,13.221,0,0,0,8.684,2.652c5.044,0,7.8-1.352,10.5-5.148-.052.676-.052,1.248-.052,1.872ZM445.12,185.7c0-6.188,3.224-10.14,8.268-10.14a9.52,9.52,0,0,1,6.76,2.912,10.8,10.8,0,0,1,2.5,6.916,11.763,11.763,0,0,1-2.028,6.968,8.7,8.7,0,0,1-6.968,3.432C448.448,195.788,445.12,191.888,445.12,185.7Zm50.96,14.924h7.02a41.825,41.825,0,0,1-.416-6.5V180.136c0-3.536-.676-5.512-2.444-7.176-2.236-2.184-5.252-3.068-10.244-3.068-4.472,0-7.384.78-9.932,2.652-1.976,1.4-2.912,2.756-4.108,5.772l6.656,1.2c.624-1.872,1.092-2.6,2.08-3.328a9.381,9.381,0,0,1,5.408-1.508c3.952,0,5.98,1.56,5.98,4.576V181.9c-7.436.156-11.284.676-14.664,2.08a9.225,9.225,0,0,0-5.876,8.424c0,5.46,3.848,8.736,10.192,8.736a18.4,18.4,0,0,0,4.836-.624,11.276,11.276,0,0,0,5.512-3.276Zm0-11.6a6.2,6.2,0,0,1-1.872,4.576,10.559,10.559,0,0,1-7.228,2.756c-2.912,0-4.732-1.508-4.732-3.952,0-4.056,3.9-5.772,13.832-5.98Zm36.556,11.6h6.916a54.6,54.6,0,0,1-.364-7.02V166.2a60.651,60.651,0,0,1,.364-6.968H532.22a53,53,0,0,1,.364,7.02v5.2c0,.884,0,1.872.052,2.236.052,1.04.052,1.04.052,1.664a13.242,13.242,0,0,0-2.652-2.86,12.343,12.343,0,0,0-7.9-2.392c-8.58,0-14.04,6.032-14.04,15.548,0,5.616,1.924,10.348,5.408,13.052a13.221,13.221,0,0,0,8.684,2.652c5.044,0,7.8-1.352,10.5-5.148-.052.676-.052,1.248-.052,1.872ZM514.852,185.7c0-6.188,3.224-10.14,8.268-10.14a9.52,9.52,0,0,1,6.76,2.912,10.8,10.8,0,0,1,2.5,6.916,11.763,11.763,0,0,1-2.028,6.968,8.7,8.7,0,0,1-6.968,3.432C518.18,195.788,514.852,191.888,514.852,185.7Zm59.176,1.716c-.1-1.2-.1-1.352-.1-1.456a21.377,21.377,0,0,0-1.508-7.9c-2.08-5.2-6.864-8.216-12.948-8.216-8.892,0-14.664,6.292-14.664,15.912,0,9.724,5.824,15.86,15.028,15.86a14.767,14.767,0,0,0,10.712-4,14.614,14.614,0,0,0,3.172-4.784l-6.136-1.976a7.558,7.558,0,0,1-1.508,2.7,8.748,8.748,0,0,1-12.74-.312c-1.2-1.508-1.664-2.964-1.924-5.824Zm-22.464-5.148c.78-4.368,3.744-7.072,7.8-7.072a7.416,7.416,0,0,1,5.616,2.08,8.162,8.162,0,0,1,2.288,4.992Zm26.312,9.88a11.7,11.7,0,0,0,2.028,4.628c2.236,3.016,6.24,4.628,11.6,4.628,4.732,0,8.372-1.144,10.764-3.38a8.361,8.361,0,0,0,2.548-5.876A7.39,7.39,0,0,0,601.8,185.7c-1.716-1.3-3.848-2.028-9.152-3.172a21.9,21.9,0,0,1-5.2-1.56,2.8,2.8,0,0,1-1.612-2.444c0-2.184,2.184-3.64,5.408-3.64,3.38,0,5.148,1.248,5.72,4.108l6.864-.884a10.123,10.123,0,0,0-2.808-5.148c-2.132-1.976-5.512-3.016-9.776-3.016-4.732,0-8.268,1.352-10.4,4.056a7.737,7.737,0,0,0-1.612,4.836,7.446,7.446,0,0,0,4.576,6.916,31.435,31.435,0,0,0,7.488,2.236c4.16.936,4.472.988,5.46,1.664a3.179,3.179,0,0,1,1.352,2.6c0,2.444-2.392,3.952-6.24,3.952-4.056,0-5.98-1.4-6.864-4.94Z" transform="translate(290 502)"/>
          <path id="路径_41002" data-name="路径 41002" d="M5-9.6a4.159,4.159,0,0,0-3.1,1.2A5.137,5.137,0,0,0,.54-4.656c0,3.048,1.752,5,4.476,5S9.5-1.62,9.5-4.656A5.175,5.175,0,0,0,8.16-8.4,4.205,4.205,0,0,0,5-9.6ZM5.04-1.08a2.591,2.591,0,0,1-1.86-.732,3.965,3.965,0,0,1-.972-2.832c0-2.172,1.092-3.54,2.82-3.54a2.583,2.583,0,0,1,1.848.732,3.876,3.876,0,0,1,.948,2.8C7.824-2.448,6.756-1.08,5.04-1.08ZM36.576-9.408a9.767,9.767,0,0,1,.1,1.644V-3.54a2.191,2.191,0,0,1-2.436,2.484,2.2,2.2,0,0,1-2.46-2.472V-7.764a9.41,9.41,0,0,1,.1-1.644H30.084a9.858,9.858,0,0,1,.1,1.644v4.236a3.865,3.865,0,0,0,.9,2.76A4.134,4.134,0,0,0,34.176.36c2.616,0,4.092-1.392,4.092-3.876v-4.26a9.7,9.7,0,0,1,.1-1.632ZM67.332.144c-.168-.324-.468-.972-.564-1.188C65.58-3.852,65.352-4.188,64.6-4.428a2.537,2.537,0,0,0,1.332-.7,2.467,2.467,0,0,0,.612-1.788c0-1.584-1.044-2.5-2.868-2.5h-2.88c-.66,0-1.032-.012-1.536-.036a10.677,10.677,0,0,1,.1,1.56v6.468a9.391,9.391,0,0,1-.1,1.56h1.788a9.364,9.364,0,0,1-.1-1.572V-3.876h1.788c.924,0,1.344.444,1.992,2.1a9.714,9.714,0,0,1,.624,1.92ZM60.948-5.244v-2.8h2.46c.984,0,1.476.444,1.476,1.308A1.424,1.424,0,0,1,64.5-5.676a1.617,1.617,0,0,1-1.14.432ZM116.7.144a9.771,9.771,0,0,1,.528-1.6l1.8-4.224a14.644,14.644,0,0,0,.552-1.752c-.012.18-.048.792-.1,1.836v3.984a11.156,11.156,0,0,1-.1,1.752h1.68a10.4,10.4,0,0,1-.1-1.752V-7.632a12.427,12.427,0,0,1,.1-1.776H118.86a6.65,6.65,0,0,1-.432,1.428L116-2.028,113.568-7.98a8.305,8.305,0,0,1-.444-1.428h-2.2a11.9,11.9,0,0,1,.1,1.776v6.024a11.254,11.254,0,0,1-.1,1.752h1.68a10.964,10.964,0,0,1-.1-1.752V-5.544c0-.264-.048-1.248-.1-1.884a13.354,13.354,0,0,0,.612,1.836l1.728,4.116a8.169,8.169,0,0,1,.528,1.62Zm25.272-9.552a8.966,8.966,0,0,1,.1,1.548V-1.4a9.055,9.055,0,0,1-.1,1.548H143.8a9.055,9.055,0,0,1-.1-1.548V-7.86a8.966,8.966,0,0,1,.1-1.548Zm22.4,6.756a4.1,4.1,0,0,0,.228,1A2.825,2.825,0,0,0,165.66-.288a4.825,4.825,0,0,0,2.52.624,3.977,3.977,0,0,0,2.868-.912,2.792,2.792,0,0,0,.756-2.04,2.368,2.368,0,0,0-1-2.064,5.283,5.283,0,0,0-1.956-.732,10.216,10.216,0,0,1-1.692-.432,1.141,1.141,0,0,1-.816-1.092c0-.78.708-1.308,1.752-1.308a1.9,1.9,0,0,1,1.5.576,1.55,1.55,0,0,1,.36.852l1.716-.2a3.235,3.235,0,0,0-.588-1.392A3.537,3.537,0,0,0,168.1-9.624c-2.064,0-3.408,1.08-3.408,2.748a2.362,2.362,0,0,0,.924,1.944,4.242,4.242,0,0,0,1.812.732,7.566,7.566,0,0,1,2.088.588,1.218,1.218,0,0,1,.6,1.1c0,.9-.72,1.44-1.92,1.44a2.13,2.13,0,0,1-1.752-.708,1.72,1.72,0,0,1-.336-1.056Zm27.78,0a4.1,4.1,0,0,0,.228,1A2.825,2.825,0,0,0,193.44-.288a4.825,4.825,0,0,0,2.52.624,3.977,3.977,0,0,0,2.868-.912,2.792,2.792,0,0,0,.756-2.04,2.368,2.368,0,0,0-1-2.064,5.283,5.283,0,0,0-1.956-.732,10.216,10.216,0,0,1-1.692-.432,1.141,1.141,0,0,1-.816-1.092c0-.78.708-1.308,1.752-1.308a1.9,1.9,0,0,1,1.5.576,1.55,1.55,0,0,1,.36.852l1.716-.2a3.235,3.235,0,0,0-.588-1.392,3.537,3.537,0,0,0-2.988-1.212c-2.064,0-3.408,1.08-3.408,2.748a2.362,2.362,0,0,0,.924,1.944A4.242,4.242,0,0,0,195.2-4.2a7.566,7.566,0,0,1,2.088.588,1.218,1.218,0,0,1,.6,1.1c0,.9-.72,1.44-1.92,1.44a2.13,2.13,0,0,1-1.752-.708,1.72,1.72,0,0,1-.336-1.056Zm28.092-6.756a8.966,8.966,0,0,1,.1,1.548V-1.4a9.055,9.055,0,0,1-.1,1.548h1.824a9.055,9.055,0,0,1-.1-1.548V-7.86a8.966,8.966,0,0,1,.1-1.548ZM247.116-9.6a4.159,4.159,0,0,0-3.1,1.2,5.137,5.137,0,0,0-1.368,3.744c0,3.048,1.752,5,4.476,5s4.488-1.968,4.488-5A5.175,5.175,0,0,0,250.272-8.4,4.205,4.205,0,0,0,247.116-9.6Zm.036,8.52a2.591,2.591,0,0,1-1.86-.732,3.965,3.965,0,0,1-.972-2.832c0-2.172,1.092-3.54,2.82-3.54a2.583,2.583,0,0,1,1.848.732,3.876,3.876,0,0,1,.948,2.8C249.936-2.448,248.868-1.08,247.152-1.08ZM280.368.144a9.055,9.055,0,0,1-.1-1.548V-7.752a10.493,10.493,0,0,1,.1-1.656h-1.752a10.489,10.489,0,0,1,.1,1.656V-3.72c0,.5.036,1.224.084,1.692-.264-.48-.648-1.1-.936-1.536l-3.036-4.572a6.582,6.582,0,0,1-.732-1.272H272.22a9.993,9.993,0,0,1,.1,1.548v6.192a12.983,12.983,0,0,1-.1,1.812h1.752a13.282,13.282,0,0,1-.1-1.8V-5.592c0-.276-.024-.816-.036-1.044-.036-.444-.036-.444-.048-.612.288.564.588,1.08.816,1.44l3.1,4.668a11.958,11.958,0,0,1,.768,1.284Z" transform="translate(290 400)"/>
        </g>
      </g>
      <g id="背景" transform="translate(283.495 -6.459)" opacity="0.1">
        <path id="路径_40641" data-name="路径 40641" d="M395.381,229.828l896.223,2.131,97.389,98.326V711.014l-921.585-2.13-72.028-85.75Z" transform="translate(90.634 56.382)" fill="none" stroke="#000" stroke-miterlimit="10" stroke-width="2"/>
        <path id="路径_40642" data-name="路径 40642" d="M484,250.647h769.917l62.883-66.313" transform="translate(155.55 21.688)" fill="none" stroke="#000" stroke-miterlimit="10" stroke-width="2"/>
        <path id="路径_40643" data-name="路径 40643" d="M1316.8,184.333H546.883L484,250.647" transform="translate(-59.926 594.795)" fill="none" stroke="#000" stroke-miterlimit="10" stroke-width="2"/>
        <circle id="椭圆_2109" data-name="椭圆 2109" cx="29.476" cy="29.476" r="29.476" transform="translate(1461.56 154)" fill="none" stroke="#000" stroke-miterlimit="10" stroke-width="2"/>
        <circle id="椭圆_2110" data-name="椭圆 2110" cx="18.42" cy="18.42" r="18.42" transform="translate(393.772 840.211)" fill="none" stroke="#000" stroke-miterlimit="10" stroke-width="2"/>
        <path id="路径_40644" data-name="路径 40644" d="M594.911,288.661l58.755-25.446h748.26" transform="translate(-31.036 -16.326)" fill="none" stroke="#000" stroke-width="2"/>
        <path id="路径_40645" data-name="路径 40645" d="M1401.926,263.214l-58.755,25.446H594.911" transform="translate(-69.377 515.914)" fill="none" stroke="#000" stroke-width="2"/>
        <path id="路径_40646" data-name="路径 40646" d="M444.242,293.133H387.292V671" transform="translate(79.749 -20.798)" fill="none" stroke="#000" stroke-width="2"/>
        <path id="路径_40647" data-name="路径 40647" d="M1688.293,462.333V786.349H1608.8" transform="translate(-182.597 -46.091)" fill="none" stroke="#707070" stroke-width="2"/>
        <path id="路径_40648" data-name="路径 40648" d="M428.642,768.6l67.719,70.977" transform="translate(44.819 -79.873)" fill="none" stroke="#000" stroke-width="2"/>
        <path id="路径_40649" data-name="路径 40649" d="M1636.882,316.811l50.249,47.226" transform="translate(-194.885 -6.37)" fill="none" stroke="#000" stroke-width="2"/>
      </g>
    </g>
  </g>
</svg>
