<svg xmlns="http://www.w3.org/2000/svg" xmlns:xlink="http://www.w3.org/1999/xlink" width="1820" height="880" viewBox="0 0 1820 880">
  <defs>
    <clipPath id="clip-path">
      <rect id="矩形_2851" data-name="矩形 2851" width="1820" height="880" transform="translate(50 88)" fill="#fff"/>
    </clipPath>
  </defs>
  <g id="banner" transform="translate(-50 -88)" clip-path="url(#clip-path)">
    <g id="组_22271" data-name="组 22271">
      <g id="组_22270" data-name="组 22270" transform="translate(-6274 1354)">
        <g id="组_22266" data-name="组 22266" transform="translate(6179 -1388)">
          <path id="路径_40975" data-name="路径 40975" d="M31.142,41.8a55.723,55.723,0,0,1-6.67.322h-11.5c-1.472,0-2.99.046-3.818.046a33.2,33.2,0,0,0,2.3-2.714l15-18.952a45.681,45.681,0,0,1,3.864-4.462V10.8c-1.748.092-4.186.138-5.98.138H9.476a57.19,57.19,0,0,1-6.486-.322v6.072a55.578,55.578,0,0,1,6.486-.322h9.752c.782,0,2.346-.046,3.266-.092-.092.138-.782.92-2.024,2.392L5.106,37.984A34.737,34.737,0,0,1,1.38,42.262V47.69c1.794-.092,3.082-.138,5.98-.138H24.472a47.726,47.726,0,0,1,6.67.322Zm28.98-5.934c-.092-1.058-.092-1.2-.092-1.288A18.91,18.91,0,0,0,58.7,27.588c-1.84-4.6-6.072-7.268-11.454-7.268-7.866,0-12.972,5.566-12.972,14.076,0,8.6,5.152,14.03,13.294,14.03a13.063,13.063,0,0,0,9.476-3.542,12.928,12.928,0,0,0,2.806-4.232L54.418,38.9A6.685,6.685,0,0,1,53.084,41.3a7.738,7.738,0,0,1-11.27-.276c-1.058-1.334-1.472-2.622-1.7-5.152ZM40.25,31.314c.69-3.864,3.312-6.256,6.9-6.256a6.56,6.56,0,0,1,4.968,1.84,7.22,7.22,0,0,1,2.024,4.416ZM64.676,10.936v5.842h6.762V10.936Zm0,10.212a37.807,37.807,0,0,1,.368,5.98V41.572a41.341,41.341,0,0,1-.368,5.98h6.716a46.209,46.209,0,0,1-.322-6.026V27.174a41.347,41.347,0,0,1,.322-6.026Zm15.548-7.084a52.947,52.947,0,0,1,.322,5.658v1.426h-1.7a21.128,21.128,0,0,1-4.14-.276V26.3a23.229,23.229,0,0,1,4.094-.276h1.748V41.48c0,4.83,2.116,6.716,7.406,6.716a14.394,14.394,0,0,0,5.75-.966l-.828-4.876a6.084,6.084,0,0,1-3.358,1.012c-2.208,0-3.036-.828-3.036-3.082V26.024h2.07a25.362,25.362,0,0,1,4.508.276V20.872a26.428,26.428,0,0,1-4.646.276H86.48V19.722a50.878,50.878,0,0,1,.322-5.658Zm34.362,33.488h6.21a37,37,0,0,1-.368-5.75V29.428c0-3.128-.6-4.876-2.162-6.348-1.978-1.932-4.646-2.714-9.062-2.714-3.956,0-6.532.69-8.786,2.346-1.748,1.242-2.576,2.438-3.634,5.106l5.888,1.058a5.012,5.012,0,0,1,1.84-2.944A8.3,8.3,0,0,1,109.3,24.6c3.5,0,5.29,1.38,5.29,4.048v2.346c-6.578.138-9.982.6-12.972,1.84a8.16,8.16,0,0,0-5.2,7.452c0,4.83,3.4,7.728,9.016,7.728a16.277,16.277,0,0,0,4.278-.552,9.975,9.975,0,0,0,4.876-2.9Zm0-10.258a5.482,5.482,0,0,1-1.656,4.048,9.34,9.34,0,0,1-6.394,2.438c-2.576,0-4.186-1.334-4.186-3.5,0-3.588,3.45-5.106,12.236-5.29ZM126.27,10.936a41.479,41.479,0,0,1,.322,5.98V41.572a44.541,44.541,0,0,1-.322,5.98h6.67a47.381,47.381,0,0,1-.322-5.98V16.962a42.615,42.615,0,0,1,.322-6.026Zm15.548,3.128a52.949,52.949,0,0,1,.322,5.658v1.426h-1.7a21.128,21.128,0,0,1-4.14-.276V26.3a23.229,23.229,0,0,1,4.094-.276h1.748V41.48c0,4.83,2.116,6.716,7.406,6.716a14.394,14.394,0,0,0,5.75-.966l-.828-4.876a6.084,6.084,0,0,1-3.358,1.012c-2.208,0-3.036-.828-3.036-3.082V26.024h2.07a25.362,25.362,0,0,1,4.508.276V20.872a26.428,26.428,0,0,1-4.646.276h-1.932V19.722a50.88,50.88,0,0,1,.322-5.658Zm41.63,21.8c-.092-1.058-.092-1.2-.092-1.288a18.91,18.91,0,0,0-1.334-6.992c-1.84-4.6-6.072-7.268-11.454-7.268C162.7,20.32,157.6,25.886,157.6,34.4c0,8.6,5.152,14.03,13.294,14.03a13.063,13.063,0,0,0,9.476-3.542,12.928,12.928,0,0,0,2.806-4.232L177.744,38.9A6.685,6.685,0,0,1,176.41,41.3a7.738,7.738,0,0,1-11.27-.276c-1.058-1.334-1.472-2.622-1.7-5.152Zm-19.872-4.554c.69-3.864,3.312-6.256,6.9-6.256a6.56,6.56,0,0,1,4.968,1.84,7.22,7.22,0,0,1,2.024,4.416Zm43.7-10.166A23.85,23.85,0,0,0,203,20.642c-4.14,0-6.992,1.564-8.648,4.83V21.148h-6.256a36.367,36.367,0,0,1,.322,5.98V41.572a50.456,50.456,0,0,1-.322,5.98h6.578a48.378,48.378,0,0,1-.322-5.98v-8.51a7.4,7.4,0,0,1,1.886-4.6,6.566,6.566,0,0,1,5.336-2.254,13.737,13.737,0,0,1,4.094.736Zm39.33,26.4h6.118a48.286,48.286,0,0,1-.322-6.21V17.1a53.64,53.64,0,0,1,.322-6.164h-6.486a46.884,46.884,0,0,1,.322,6.21v4.6c0,.782,0,1.656.046,1.978.046.92.046.92.046,1.472a11.714,11.714,0,0,0-2.346-2.53,10.919,10.919,0,0,0-6.992-2.116c-7.59,0-12.42,5.336-12.42,13.754,0,4.968,1.7,9.154,4.784,11.546A11.7,11.7,0,0,0,237.36,48.2c4.462,0,6.9-1.2,9.292-4.554-.046.6-.046,1.1-.046,1.656Zm-15.732-13.2c0-5.474,2.852-8.97,7.314-8.97a8.421,8.421,0,0,1,5.98,2.576,9.552,9.552,0,0,1,2.208,6.118,10.405,10.405,0,0,1-1.794,6.164,7.692,7.692,0,0,1-6.164,3.036C233.818,43.274,230.874,39.824,230.874,34.35Zm52.348,1.518c-.092-1.058-.092-1.2-.092-1.288a18.91,18.91,0,0,0-1.334-6.992c-1.84-4.6-6.072-7.268-11.454-7.268-7.866,0-12.972,5.566-12.972,14.076,0,8.6,5.152,14.03,13.294,14.03a13.063,13.063,0,0,0,9.476-3.542,12.928,12.928,0,0,0,2.806-4.232L277.518,38.9a6.685,6.685,0,0,1-1.334,2.392,7.738,7.738,0,0,1-11.27-.276c-1.058-1.334-1.472-2.622-1.7-5.152ZM263.35,31.314c.69-3.864,3.312-6.256,6.9-6.256a6.56,6.56,0,0,1,4.968,1.84,7.22,7.22,0,0,1,2.024,4.416Zm43.7-10.166a23.85,23.85,0,0,0-4.278-.506c-4.14,0-6.992,1.564-8.648,4.83V21.148h-6.256a36.367,36.367,0,0,1,.322,5.98V41.572a50.453,50.453,0,0,1-.322,5.98h6.578a48.375,48.375,0,0,1-.322-5.98v-8.51a7.4,7.4,0,0,1,1.886-4.6,6.566,6.566,0,0,1,5.336-2.254,13.737,13.737,0,0,1,4.094.736Zm41.216,26.4a37.456,37.456,0,0,1,2.024-6.118l6.9-16.192a56.138,56.138,0,0,0,2.116-6.716c-.046.69-.184,3.036-.368,7.038V40.836a42.769,42.769,0,0,1-.368,6.716h6.44a39.879,39.879,0,0,1-.368-6.716V17.744a47.639,47.639,0,0,1,.368-6.808h-8.464a25.49,25.49,0,0,1-1.656,5.474L345.6,39.226,336.26,16.41a31.835,31.835,0,0,1-1.7-5.474H326.14a45.63,45.63,0,0,1,.368,6.808V40.836a43.143,43.143,0,0,1-.368,6.716h6.44a42.029,42.029,0,0,1-.368-6.716V25.748c0-1.012-.184-4.784-.368-7.222a51.191,51.191,0,0,0,2.346,7.038l6.624,15.778a31.312,31.312,0,0,1,2.024,6.21Zm47.61-11.684c-.092-1.058-.092-1.2-.092-1.288a18.91,18.91,0,0,0-1.334-6.992c-1.84-4.6-6.072-7.268-11.454-7.268-7.866,0-12.972,5.566-12.972,14.076,0,8.6,5.152,14.03,13.294,14.03a13.063,13.063,0,0,0,9.476-3.542,12.928,12.928,0,0,0,2.806-4.232L390.172,38.9a6.685,6.685,0,0,1-1.334,2.392,7.738,7.738,0,0,1-11.27-.276c-1.058-1.334-1.472-2.622-1.7-5.152ZM376,31.314c.69-3.864,3.312-6.256,6.9-6.256a6.56,6.56,0,0,1,4.968,1.84,7.22,7.22,0,0,1,2.024,4.416Zm31.05,16.238a40.928,40.928,0,0,1-.368-5.98V32.28c2.024-4.554,4.738-6.854,8.05-6.854a4.327,4.327,0,0,1,3.864,1.886,7.556,7.556,0,0,1,.782,4.048V41.572a48.883,48.883,0,0,1-.322,5.98h6.67a36.351,36.351,0,0,1-.368-5.98V30.532c0-3.082-.46-4.922-1.564-6.44-1.656-2.254-4.278-3.4-7.82-3.4-4.14,0-6.578,1.288-9.384,4.876a17.971,17.971,0,0,0,.092-1.978V21.148H400.43a37.807,37.807,0,0,1,.368,5.98V41.572a38.181,38.181,0,0,1-.368,5.98Zm23.184-7.5a10.346,10.346,0,0,0,1.794,4.094c1.978,2.668,5.52,4.094,10.258,4.094,4.186,0,7.406-1.012,9.522-2.99a7.4,7.4,0,0,0,2.254-5.2,6.538,6.538,0,0,0-2.668-5.7c-1.518-1.15-3.4-1.794-8.1-2.806a19.376,19.376,0,0,1-4.6-1.38A2.479,2.479,0,0,1,437.276,28c0-1.932,1.932-3.22,4.784-3.22,2.99,0,4.554,1.1,5.06,3.634l6.072-.782a8.954,8.954,0,0,0-2.484-4.554c-1.886-1.748-4.876-2.668-8.648-2.668-4.186,0-7.314,1.2-9.2,3.588a6.844,6.844,0,0,0-1.426,4.278,6.587,6.587,0,0,0,4.048,6.118,27.808,27.808,0,0,0,6.624,1.978c3.68.828,3.956.874,4.83,1.472a2.812,2.812,0,0,1,1.2,2.3c0,2.162-2.116,3.5-5.52,3.5-3.588,0-5.29-1.242-6.072-4.37Zm52.394-11.408a15.311,15.311,0,0,0-1.61-3.358c-2.208-3.22-5.8-4.968-10.3-4.968a12.6,12.6,0,0,0-9.246,3.5,14.874,14.874,0,0,0-3.91,10.626c0,8.51,5.244,13.984,13.34,13.984,4.37,0,7.912-1.61,10.12-4.646a12.879,12.879,0,0,0,1.932-3.91l-5.7-1.15a6.429,6.429,0,0,1-.92,2.3,6.158,6.158,0,0,1-5.29,2.576c-4.646,0-7.5-3.542-7.5-9.292,0-5.7,2.806-9.246,7.314-9.246a5.788,5.788,0,0,1,4.738,2.116,8.289,8.289,0,0,1,1.426,2.806Zm4.83-17.71a43.049,43.049,0,0,1,.322,6.026v24.61a37.807,37.807,0,0,1-.368,5.98h6.624a40.928,40.928,0,0,1-.368-5.98V32.28c2.07-4.6,4.738-6.808,8.188-6.808a4.271,4.271,0,0,1,3.174,1.334c.874.92,1.334,2.438,1.334,4.554V41.572a48.883,48.883,0,0,1-.322,5.98h6.67a36.352,36.352,0,0,1-.368-5.98V29.98c0-5.934-3.358-9.292-9.246-9.292-4.186,0-6.67,1.288-9.522,4.876a18.864,18.864,0,0,0,.092-1.978V17.008a44.213,44.213,0,0,1,.322-6.072ZM517.086,36.65a25.317,25.317,0,0,1,4.324-.276h7.13a25.242,25.242,0,0,1,4.37.276V30.532a29.051,29.051,0,0,1-4.37.276h-7.13a28.819,28.819,0,0,1-4.324-.276Zm42.78,10.9a37.456,37.456,0,0,1,2.024-6.118l6.9-16.192a56.132,56.132,0,0,0,2.116-6.716c-.046.69-.184,3.036-.368,7.038V40.836a42.768,42.768,0,0,1-.368,6.716h6.44a39.88,39.88,0,0,1-.368-6.716V17.744a47.64,47.64,0,0,1,.368-6.808h-8.464a25.494,25.494,0,0,1-1.656,5.474L557.2,39.226,547.86,16.41a31.83,31.83,0,0,1-1.7-5.474H537.74a45.631,45.631,0,0,1,.368,6.808V40.836a43.144,43.144,0,0,1-.368,6.716h6.44a42.029,42.029,0,0,1-.368-6.716V25.748c0-1.012-.184-4.784-.368-7.222a51.2,51.2,0,0,0,2.346,7.038l6.624,15.778a31.314,31.314,0,0,1,2.024,6.21Zm40.342,0h6.21a37,37,0,0,1-.368-5.75V29.428c0-3.128-.6-4.876-2.162-6.348-1.978-1.932-4.646-2.714-9.062-2.714-3.956,0-6.532.69-8.786,2.346-1.748,1.242-2.576,2.438-3.634,5.106l5.888,1.058a5.012,5.012,0,0,1,1.84-2.944,8.3,8.3,0,0,1,4.784-1.334c3.5,0,5.29,1.38,5.29,4.048v2.346c-6.578.138-9.982.6-12.972,1.84a8.16,8.16,0,0,0-5.2,7.452c0,4.83,3.4,7.728,9.016,7.728a16.276,16.276,0,0,0,4.278-.552,9.975,9.975,0,0,0,4.876-2.9Zm0-10.258a5.482,5.482,0,0,1-1.656,4.048,9.34,9.34,0,0,1-6.394,2.438c-2.576,0-4.186-1.334-4.186-3.5,0-3.588,3.45-5.106,12.236-5.29Zm10.534,2.76a10.347,10.347,0,0,0,1.794,4.094c1.978,2.668,5.52,4.094,10.258,4.094,4.186,0,7.406-1.012,9.522-2.99a7.4,7.4,0,0,0,2.254-5.2,6.538,6.538,0,0,0-2.668-5.7c-1.518-1.15-3.4-1.794-8.1-2.806a19.375,19.375,0,0,1-4.6-1.38A2.479,2.479,0,0,1,617.78,28c0-1.932,1.932-3.22,4.784-3.22,2.99,0,4.554,1.1,5.06,3.634l6.072-.782a8.954,8.954,0,0,0-2.484-4.554c-1.886-1.748-4.876-2.668-8.648-2.668-4.186,0-7.314,1.2-9.2,3.588a6.844,6.844,0,0,0-1.426,4.278,6.587,6.587,0,0,0,4.048,6.118,27.808,27.808,0,0,0,6.624,1.978c3.68.828,3.956.874,4.83,1.472a2.812,2.812,0,0,1,1.2,2.3c0,2.162-2.116,3.5-5.52,3.5-3.588,0-5.29-1.242-6.072-4.37Zm52.394-11.408a15.31,15.31,0,0,0-1.61-3.358c-2.208-3.22-5.8-4.968-10.3-4.968a12.6,12.6,0,0,0-9.246,3.5,14.874,14.874,0,0,0-3.91,10.626c0,8.51,5.244,13.984,13.34,13.984,4.37,0,7.912-1.61,10.12-4.646a12.879,12.879,0,0,0,1.932-3.91l-5.7-1.15a6.429,6.429,0,0,1-.92,2.3,6.158,6.158,0,0,1-5.29,2.576c-4.646,0-7.5-3.542-7.5-9.292,0-5.7,2.806-9.246,7.314-9.246a5.788,5.788,0,0,1,4.738,2.116,8.289,8.289,0,0,1,1.426,2.806Zm4.83-17.71a43.05,43.05,0,0,1,.322,6.026v24.61a37.808,37.808,0,0,1-.368,5.98h6.624a40.928,40.928,0,0,1-.368-5.98V32.28c2.07-4.6,4.738-6.808,8.188-6.808a4.271,4.271,0,0,1,3.174,1.334c.874.92,1.334,2.438,1.334,4.554V41.572a48.89,48.89,0,0,1-.322,5.98h6.67a36.352,36.352,0,0,1-.368-5.98V29.98c0-5.934-3.358-9.292-9.246-9.292-4.186,0-6.67,1.288-9.522,4.876a18.871,18.871,0,0,0,.092-1.978V17.008a44.212,44.212,0,0,1,.322-6.072Zm30.912,0v5.842h6.762V10.936Zm0,10.212a37.808,37.808,0,0,1,.368,5.98V41.572a41.341,41.341,0,0,1-.368,5.98h6.716a46.213,46.213,0,0,1-.322-6.026V27.174a41.35,41.35,0,0,1,.322-6.026Zm19.09,26.4a40.928,40.928,0,0,1-.368-5.98V32.28c2.024-4.554,4.738-6.854,8.05-6.854a4.327,4.327,0,0,1,3.864,1.886,7.556,7.556,0,0,1,.782,4.048V41.572a48.89,48.89,0,0,1-.322,5.98h6.67a36.352,36.352,0,0,1-.368-5.98V30.532c0-3.082-.46-4.922-1.564-6.44-1.656-2.254-4.278-3.4-7.82-3.4-4.14,0-6.578,1.288-9.384,4.876a17.977,17.977,0,0,0,.092-1.978V21.148h-6.256a37.808,37.808,0,0,1,.368,5.98V41.572a38.182,38.182,0,0,1-.368,5.98ZM767.05,35.868c-.092-1.058-.092-1.2-.092-1.288a18.911,18.911,0,0,0-1.334-6.992c-1.84-4.6-6.072-7.268-11.454-7.268C746.3,20.32,741.2,25.886,741.2,34.4c0,8.6,5.152,14.03,13.294,14.03a13.063,13.063,0,0,0,9.476-3.542,12.927,12.927,0,0,0,2.806-4.232L761.346,38.9a6.686,6.686,0,0,1-1.334,2.392,7.738,7.738,0,0,1-11.27-.276c-1.058-1.334-1.472-2.622-1.7-5.152Zm-19.872-4.554c.69-3.864,3.312-6.256,6.9-6.256a6.56,6.56,0,0,1,4.968,1.84,7.221,7.221,0,0,1,2.024,4.416Zm23.138,5.336a25.317,25.317,0,0,1,4.324-.276h7.13a25.242,25.242,0,0,1,4.37.276V30.532a29.051,29.051,0,0,1-4.37.276h-7.13a28.819,28.819,0,0,1-4.324-.276ZM2.07,136.834a15.725,15.725,0,0,0,.874,3.818A10.83,10.83,0,0,0,6.992,145.9c2.208,1.472,5.888,2.392,9.66,2.392,4.922,0,8.556-1.15,10.994-3.5a10.7,10.7,0,0,0,2.9-7.82,9.079,9.079,0,0,0-3.818-7.912c-1.656-1.15-3.864-2.024-7.5-2.806-5.106-1.15-5.474-1.242-6.486-1.656-2.116-.92-3.128-2.254-3.128-4.186,0-2.99,2.714-5.014,6.716-5.014a7.278,7.278,0,0,1,5.75,2.208,5.942,5.942,0,0,1,1.38,3.266l6.578-.782a12.4,12.4,0,0,0-2.254-5.336c-2.254-3.036-6.21-4.646-11.454-4.646-7.912,0-13.064,4.14-13.064,10.534a9.053,9.053,0,0,0,3.542,7.452c1.656,1.288,3.5,2.024,6.946,2.806,6.348,1.472,6.624,1.518,8,2.254a4.671,4.671,0,0,1,2.3,4.232c0,3.45-2.76,5.52-7.36,5.52-2.99,0-5.382-.966-6.716-2.714-.828-1.058-1.1-1.978-1.288-4.048Zm42.458,8.878-1.564,3.542a3.839,3.839,0,0,1-3.588,2.3,7.634,7.634,0,0,1-3.22-.782L35.1,156.016a23.754,23.754,0,0,0,4.83.552c4.278,0,6.992-1.61,8.464-5.106l10.488-24.61c1.38-3.22,2.208-5.106,2.484-5.7H54.51a27.512,27.512,0,0,1-1.748,5.428l-5.106,13.018L42.044,126.53a26.641,26.641,0,0,1-1.748-5.382H33.3c.552,1.012.6,1.15,2.622,5.7Zm26.588,1.84a47.876,47.876,0,0,1-.322-5.98v-9.108a10.387,10.387,0,0,1,1.978-4.6,5.7,5.7,0,0,1,4.738-2.392c2.99,0,4.462,1.932,4.462,5.8v10.3a37.437,37.437,0,0,1-.368,5.98h6.624a45,45,0,0,1-.322-5.98v-9.108c.552-2.852,1.288-4.324,2.9-5.7a5.32,5.32,0,0,1,3.772-1.38c3.082,0,4.508,1.84,4.508,5.888v10.3a36.351,36.351,0,0,1-.368,5.98h6.716a37.437,37.437,0,0,1-.368-5.98V130.21c0-3.266-.644-5.336-2.162-6.992A9.078,9.078,0,0,0,96,120.6a10.162,10.162,0,0,0-5.152,1.2,10.643,10.643,0,0,0-3.864,3.634,5.963,5.963,0,0,0-1.748-2.76A8.251,8.251,0,0,0,79.3,120.6c-3.818,0-7.222,1.794-8.556,4.6.046-.736.046-1.426.046-1.7v-2.346H64.63a40.237,40.237,0,0,1,.322,5.98v14.444a46.41,46.41,0,0,1-.322,5.98Zm46.092,0V145.3c0-.552,0-1.058-.046-1.656,2.3,3.22,4.922,4.554,9.154,4.554a11.794,11.794,0,0,0,8.832-3.312c2.484-2.576,3.772-6.256,3.772-10.764,0-8.556-4.554-13.57-12.282-13.57a10.722,10.722,0,0,0-9.476,4.646c.046-1.564.092-2.714.092-3.45v-4.6a46.884,46.884,0,0,1,.322-6.21H111.09a53.641,53.641,0,0,1,.322,6.164v24.242a48.287,48.287,0,0,1-.322,6.21ZM132.94,134.12c0,5.566-2.99,9.154-7.636,9.154a8.014,8.014,0,0,1-4.83-1.7,9.6,9.6,0,0,1-3.036-7.268,9.907,9.907,0,0,1,2.254-6.394,8.208,8.208,0,0,1,6.256-2.53C130.18,125.38,132.94,128.83,132.94,134.12Zm10.626-23.184v5.842h6.762v-5.842Zm0,10.212a37.807,37.807,0,0,1,.368,5.98v14.444a41.341,41.341,0,0,1-.368,5.98h6.716a46.211,46.211,0,0,1-.322-6.026V127.174a41.349,41.349,0,0,1,.322-6.026Zm25.116,27.278c8.188,0,13.57-5.612,13.57-14.122s-5.29-13.938-13.616-13.938c-8.372,0-13.708,5.474-13.708,14.03C154.928,143,160.264,148.426,168.682,148.426Zm-.046-23.276c4.876,0,7.682,3.4,7.682,9.338,0,5.612-2.944,9.062-7.728,9.062s-7.728-3.5-7.728-9.154C160.862,128.646,163.806,125.15,168.636,125.15Zm17.066,14.9a10.346,10.346,0,0,0,1.794,4.094c1.978,2.668,5.52,4.094,10.258,4.094,4.186,0,7.406-1.012,9.522-2.99a7.4,7.4,0,0,0,2.254-5.2,6.537,6.537,0,0,0-2.668-5.7c-1.518-1.15-3.4-1.794-8.1-2.806a19.376,19.376,0,0,1-4.6-1.38A2.479,2.479,0,0,1,192.74,128c0-1.932,1.932-3.22,4.784-3.22,2.99,0,4.554,1.1,5.06,3.634l6.072-.782a8.954,8.954,0,0,0-2.484-4.554c-1.886-1.748-4.876-2.668-8.648-2.668-4.186,0-7.314,1.2-9.2,3.588a6.844,6.844,0,0,0-1.426,4.278,6.587,6.587,0,0,0,4.048,6.118,27.807,27.807,0,0,0,6.624,1.978c3.68.828,3.956.874,4.83,1.472a2.812,2.812,0,0,1,1.2,2.3c0,2.162-2.116,3.5-5.52,3.5-3.588,0-5.29-1.242-6.072-4.37Zm53.176-4.186c-.092-1.058-.092-1.2-.092-1.288a18.91,18.91,0,0,0-1.334-6.992c-1.84-4.6-6.072-7.268-11.454-7.268-7.866,0-12.972,5.566-12.972,14.076,0,8.6,5.152,14.03,13.294,14.03a13.063,13.063,0,0,0,9.476-3.542,12.928,12.928,0,0,0,2.806-4.232l-5.428-1.748a6.686,6.686,0,0,1-1.334,2.392,7.738,7.738,0,0,1-11.27-.276c-1.058-1.334-1.472-2.622-1.7-5.152Zm-19.872-4.554c.69-3.864,3.312-6.256,6.9-6.256a6.56,6.56,0,0,1,4.968,1.84,7.22,7.22,0,0,1,2.024,4.416Zm31.142,9.522h-6.762v6.716h3.864c-.046,2.852-.69,3.68-3.5,4.462l1.656,2.438c3.726-1.472,4.738-2.944,4.738-6.9Zm46.23-29.9a37.439,37.439,0,0,1,.368,6.3V133.43c0,6.256-3.174,9.522-9.338,9.522-6.21,0-9.43-3.266-9.43-9.476V117.238a36.072,36.072,0,0,1,.368-6.3h-6.854a37.789,37.789,0,0,1,.368,6.3v16.238c0,4.6,1.1,8.05,3.45,10.58,2.53,2.76,6.762,4.324,11.868,4.324,10.028,0,15.686-5.336,15.686-14.858v-16.33a37.177,37.177,0,0,1,.368-6.256Zm19.55,36.616a40.928,40.928,0,0,1-.368-5.98V132.28c2.024-4.554,4.738-6.854,8.05-6.854a4.327,4.327,0,0,1,3.864,1.886,7.556,7.556,0,0,1,.782,4.048v10.212a48.884,48.884,0,0,1-.322,5.98h6.67a36.351,36.351,0,0,1-.368-5.98v-11.04c0-3.082-.46-4.922-1.564-6.44-1.656-2.254-4.278-3.4-7.82-3.4-4.14,0-6.578,1.288-9.384,4.876a17.971,17.971,0,0,0,.092-1.978v-2.438H309.3a37.807,37.807,0,0,1,.368,5.98v14.444a38.181,38.181,0,0,1-.368,5.98Zm30.452,0V145.3c0-.552,0-1.058-.046-1.656,2.3,3.22,4.922,4.554,9.154,4.554a11.794,11.794,0,0,0,8.832-3.312c2.484-2.576,3.772-6.256,3.772-10.764,0-8.556-4.554-13.57-12.282-13.57a10.722,10.722,0,0,0-9.476,4.646c.046-1.564.092-2.714.092-3.45v-4.6a46.881,46.881,0,0,1,.322-6.21h-6.486a53.64,53.64,0,0,1,.322,6.164v24.242a48.286,48.286,0,0,1-.322,6.21Zm15.732-13.432c0,5.566-2.99,9.154-7.636,9.154a8.014,8.014,0,0,1-4.83-1.7,9.6,9.6,0,0,1-3.036-7.268,9.907,9.907,0,0,1,2.254-6.394,8.208,8.208,0,0,1,6.256-2.53C359.352,125.38,362.112,128.83,362.112,134.12Zm35.374,1.748c-.092-1.058-.092-1.2-.092-1.288a18.91,18.91,0,0,0-1.334-6.992c-1.84-4.6-6.072-7.268-11.454-7.268-7.866,0-12.972,5.566-12.972,14.076,0,8.6,5.152,14.03,13.294,14.03a13.063,13.063,0,0,0,9.476-3.542,12.928,12.928,0,0,0,2.806-4.232l-5.428-1.748a6.686,6.686,0,0,1-1.334,2.392,7.739,7.739,0,0,1-11.27-.276c-1.058-1.334-1.472-2.622-1.7-5.152Zm-19.872-4.554c.69-3.864,3.312-6.256,6.9-6.256a6.56,6.56,0,0,1,4.968,1.84,7.22,7.22,0,0,1,2.024,4.416Zm23.874,20.47c3.128,3.542,6.164,4.784,11.546,4.784,4.738,0,8.556-1.058,10.856-2.944,2.668-2.254,3.864-5.8,3.864-11.316V126.9a42.733,42.733,0,0,1,.322-5.75h-6.164v2.116a11.063,11.063,0,0,0,.092,1.518c-1.978-2.806-4.692-4.048-8.786-4.048-7.452,0-12.282,5.152-12.282,13.11,0,7.866,4.692,12.88,12.006,12.88a10.468,10.468,0,0,0,9.016-4.186c-.092,3.128-.414,4.738-1.2,6.118-1.288,2.208-4,3.45-7.544,3.45-3.312,0-5.336-1.012-7.13-3.5Zm5.474-17.8c0-5.474,2.852-8.924,7.452-8.924a6.952,6.952,0,0,1,4.462,1.656,8.48,8.48,0,0,1,2.76,6.808,9.744,9.744,0,0,1-1.288,5.244,7.7,7.7,0,0,1-6.394,3.634,7.051,7.051,0,0,1-4.876-2.07A8.878,8.878,0,0,1,406.962,133.982Zm46.184-12.834a23.851,23.851,0,0,0-4.278-.506c-4.14,0-6.992,1.564-8.648,4.83v-4.324h-6.256a36.367,36.367,0,0,1,.322,5.98v14.444a50.453,50.453,0,0,1-.322,5.98h6.578a48.375,48.375,0,0,1-.322-5.98v-8.51a7.4,7.4,0,0,1,1.886-4.6,6.566,6.566,0,0,1,5.336-2.254,13.737,13.737,0,0,1,4.094.736Zm28.106,14.72c-.092-1.058-.092-1.2-.092-1.288a18.91,18.91,0,0,0-1.334-6.992c-1.84-4.6-6.072-7.268-11.454-7.268-7.866,0-12.972,5.566-12.972,14.076,0,8.6,5.152,14.03,13.294,14.03a13.063,13.063,0,0,0,9.476-3.542,12.928,12.928,0,0,0,2.806-4.232l-5.428-1.748a6.686,6.686,0,0,1-1.334,2.392,7.739,7.739,0,0,1-11.27-.276c-1.058-1.334-1.472-2.622-1.7-5.152Zm-19.872-4.554c.69-3.864,3.312-6.256,6.9-6.256a6.56,6.56,0,0,1,4.968,1.84,7.22,7.22,0,0,1,2.024,4.416Zm31.05,16.238a40.928,40.928,0,0,1-.368-5.98V132.28c2.024-4.554,4.738-6.854,8.05-6.854a4.327,4.327,0,0,1,3.864,1.886,7.556,7.556,0,0,1,.782,4.048v10.212a48.884,48.884,0,0,1-.322,5.98h6.67a36.351,36.351,0,0,1-.368-5.98v-11.04c0-3.082-.46-4.922-1.564-6.44-1.656-2.254-4.278-3.4-7.82-3.4-4.14,0-6.578,1.288-9.384,4.876a17.971,17.971,0,0,0,.092-1.978v-2.438h-6.256a37.807,37.807,0,0,1,.368,5.98v14.444a38.181,38.181,0,0,1-.368,5.98Zm45.08-5.52a43.048,43.048,0,0,1-6.026.322H525.6c-.736,0-1.748,0-2.76.046.736-.874.736-.874,1.012-1.242.368-.414.46-.46.552-.644l8.694-10.994c.92-1.15,2.116-2.484,3.5-3.956V121.01a51.4,51.4,0,0,1-5.566.138H522.1a48.378,48.378,0,0,1-5.98-.322v5.75a45.465,45.465,0,0,1,5.98-.322h4.692a15.841,15.841,0,0,0,1.656-.046h.414a18.425,18.425,0,0,0-1.288,1.472L518.7,138.9a33.437,33.437,0,0,1-3.5,3.91v4.876c1.38-.092,2.392-.138,5.658-.138h10.58a43.77,43.77,0,0,1,6.072.322Zm7.222-27.968a52.958,52.958,0,0,1,.322,5.658v1.426h-1.7a21.128,21.128,0,0,1-4.14-.276V126.3a23.229,23.229,0,0,1,4.094-.276h1.748V141.48c0,4.83,2.116,6.716,7.406,6.716a14.394,14.394,0,0,0,5.75-.966l-.828-4.876a6.084,6.084,0,0,1-3.358,1.012c-2.208,0-3.036-.828-3.036-3.082v-14.26h2.07a25.362,25.362,0,0,1,4.508.276v-5.428a26.428,26.428,0,0,1-4.646.276h-1.932v-1.426a50.872,50.872,0,0,1,.322-5.658Zm41.63,21.8c-.092-1.058-.092-1.2-.092-1.288a18.911,18.911,0,0,0-1.334-6.992c-1.84-4.6-6.072-7.268-11.454-7.268-7.866,0-12.972,5.566-12.972,14.076,0,8.6,5.152,14.03,13.294,14.03a13.064,13.064,0,0,0,9.476-3.542,12.927,12.927,0,0,0,2.806-4.232l-5.428-1.748a6.686,6.686,0,0,1-1.334,2.392,7.739,7.739,0,0,1-11.27-.276c-1.058-1.334-1.472-2.622-1.7-5.152Zm-19.872-4.554c.69-3.864,3.312-6.256,6.9-6.256a6.56,6.56,0,0,1,4.968,1.84,7.221,7.221,0,0,1,2.024,4.416ZM22.034,247.552a27.623,27.623,0,0,1,1.426-4.6L33.3,216.41a36.159,36.159,0,0,1,2.3-5.474h-7.59a26.655,26.655,0,0,1-1.242,4.83L19.136,238.49c-.276.828-.644,2.116-1.058,3.5-.322-1.1-.874-2.944-1.1-3.5L9.338,215.766a29.9,29.9,0,0,1-1.242-4.83H.506a45.5,45.5,0,0,1,2.3,5.474l9.844,26.542a34.143,34.143,0,0,1,1.472,4.6Zm41.63-11.684c-.092-1.058-.092-1.2-.092-1.288a18.91,18.91,0,0,0-1.334-6.992c-1.84-4.6-6.072-7.268-11.454-7.268-7.866,0-12.972,5.566-12.972,14.076,0,8.6,5.152,14.03,13.294,14.03a13.063,13.063,0,0,0,9.476-3.542,12.928,12.928,0,0,0,2.806-4.232L57.96,238.9a6.686,6.686,0,0,1-1.334,2.392,7.739,7.739,0,0,1-11.27-.276c-1.058-1.334-1.472-2.622-1.7-5.152Zm-19.872-4.554c.69-3.864,3.312-6.256,6.9-6.256a6.56,6.56,0,0,1,4.968,1.84,7.22,7.22,0,0,1,2.024,4.416Zm43.7-10.166a23.851,23.851,0,0,0-4.278-.506c-4.14,0-6.992,1.564-8.648,4.83v-4.324H68.31a36.367,36.367,0,0,1,.322,5.98v14.444a50.454,50.454,0,0,1-.322,5.98h6.578a48.377,48.377,0,0,1-.322-5.98v-8.51a7.4,7.4,0,0,1,1.886-4.6,6.566,6.566,0,0,1,5.336-2.254,13.737,13.737,0,0,1,4.094.736Zm9.476,26.4V245.3c0-.552,0-1.058-.046-1.656,2.3,3.22,4.922,4.554,9.154,4.554a11.794,11.794,0,0,0,8.832-3.312c2.484-2.576,3.772-6.256,3.772-10.764,0-8.556-4.554-13.57-12.282-13.57a10.722,10.722,0,0,0-9.476,4.646c.046-1.564.092-2.714.092-3.45v-4.6a46.884,46.884,0,0,1,.322-6.21H90.85a53.641,53.641,0,0,1,.322,6.164v24.242a48.287,48.287,0,0,1-.322,6.21ZM112.7,234.12c0,5.566-2.99,9.154-7.636,9.154a8.014,8.014,0,0,1-4.83-1.7A9.6,9.6,0,0,1,97.2,234.3a9.907,9.907,0,0,1,2.254-6.394,8.208,8.208,0,0,1,6.256-2.53C109.94,225.38,112.7,228.83,112.7,234.12Zm10.626-23.184v5.842h6.762v-5.842Zm0,10.212a37.807,37.807,0,0,1,.368,5.98v14.444a41.341,41.341,0,0,1-.368,5.98h6.716a46.211,46.211,0,0,1-.322-6.026V227.174a41.349,41.349,0,0,1,.322-6.026Zm19.09,26.4a40.928,40.928,0,0,1-.368-5.98V232.28c2.024-4.554,4.738-6.854,8.05-6.854a4.327,4.327,0,0,1,3.864,1.886,7.556,7.556,0,0,1,.782,4.048v10.212a48.884,48.884,0,0,1-.322,5.98h6.67a36.351,36.351,0,0,1-.368-5.98v-11.04c0-3.082-.46-4.922-1.564-6.44-1.656-2.254-4.278-3.4-7.82-3.4-4.14,0-6.578,1.288-9.384,4.876a17.974,17.974,0,0,0,.092-1.978v-2.438h-6.256a37.807,37.807,0,0,1,.368,5.98v14.444a38.182,38.182,0,0,1-.368,5.98Zm44.988,0h6.118a48.286,48.286,0,0,1-.322-6.21V217.1a53.64,53.64,0,0,1,.322-6.164h-6.486a46.884,46.884,0,0,1,.322,6.21v4.6c0,.782,0,1.656.046,1.978.046.92.046.92.046,1.472a11.714,11.714,0,0,0-2.346-2.53,10.919,10.919,0,0,0-6.992-2.116c-7.59,0-12.42,5.336-12.42,13.754,0,4.968,1.7,9.154,4.784,11.546a11.7,11.7,0,0,0,7.682,2.346c4.462,0,6.9-1.2,9.292-4.554-.046.6-.046,1.1-.046,1.656Zm-15.732-13.2c0-5.474,2.852-8.97,7.314-8.97a8.421,8.421,0,0,1,5.98,2.576,9.552,9.552,0,0,1,2.208,6.118,10.405,10.405,0,0,1-1.794,6.164,7.692,7.692,0,0,1-6.164,3.036C174.616,243.274,171.672,239.824,171.672,234.35Zm46.184-13.2a48.532,48.532,0,0,1,.368,5.98v9.292c-2.07,4.554-4.692,6.808-8,6.808a5.723,5.723,0,0,1-2.53-.644c-1.426-.874-2.116-2.576-2.116-5.244V227.128a41.171,41.171,0,0,1,.322-5.98h-6.67a42.282,42.282,0,0,1,.368,5.98v11.638c0,3.772,1.2,6.348,3.726,7.958a10.021,10.021,0,0,0,5.52,1.334c4.37,0,6.9-1.334,9.43-4.922-.046,1.15-.046,1.288-.046,1.978v2.438h6.256a37.807,37.807,0,0,1-.368-5.98V227.128a33.306,33.306,0,0,1,.368-5.98Zm19,26.4a40.928,40.928,0,0,1-.368-5.98V232.28c2.024-4.554,4.738-6.854,8.05-6.854a4.327,4.327,0,0,1,3.864,1.886,7.556,7.556,0,0,1,.782,4.048v10.212a48.884,48.884,0,0,1-.322,5.98h6.67a36.351,36.351,0,0,1-.368-5.98v-11.04c0-3.082-.46-4.922-1.564-6.44-1.656-2.254-4.278-3.4-7.82-3.4-4.14,0-6.578,1.288-9.384,4.876a17.974,17.974,0,0,0,.092-1.978v-2.438H230.23a37.807,37.807,0,0,1,.368,5.98v14.444a38.182,38.182,0,0,1-.368,5.98Zm23.782,4.232c3.128,3.542,6.164,4.784,11.546,4.784,4.738,0,8.556-1.058,10.856-2.944,2.668-2.254,3.864-5.8,3.864-11.316V226.9a42.733,42.733,0,0,1,.322-5.75H281.06v2.116a11.063,11.063,0,0,0,.092,1.518c-1.978-2.806-4.692-4.048-8.786-4.048-7.452,0-12.282,5.152-12.282,13.11,0,7.866,4.692,12.88,12.006,12.88a10.468,10.468,0,0,0,9.016-4.186c-.092,3.128-.414,4.738-1.2,6.118-1.288,2.208-4,3.45-7.544,3.45-3.312,0-5.336-1.012-7.13-3.5Zm5.474-17.8c0-5.474,2.852-8.924,7.452-8.924a6.952,6.952,0,0,1,4.462,1.656,8.48,8.48,0,0,1,2.76,6.808,9.744,9.744,0,0,1-1.288,5.244A7.7,7.7,0,0,1,273.1,242.4a7.051,7.051,0,0,1-4.876-2.07A8.878,8.878,0,0,1,266.11,233.982Zm25.76,6.072a10.346,10.346,0,0,0,1.794,4.094c1.978,2.668,5.52,4.094,10.258,4.094,4.186,0,7.406-1.012,9.522-2.99a7.4,7.4,0,0,0,2.254-5.2,6.537,6.537,0,0,0-2.668-5.7c-1.518-1.15-3.4-1.794-8.1-2.806a19.376,19.376,0,0,1-4.6-1.38A2.479,2.479,0,0,1,298.908,228c0-1.932,1.932-3.22,4.784-3.22,2.99,0,4.554,1.1,5.06,3.634l6.072-.782a8.954,8.954,0,0,0-2.484-4.554c-1.886-1.748-4.876-2.668-8.648-2.668-4.186,0-7.314,1.2-9.2,3.588a6.844,6.844,0,0,0-1.426,4.278,6.587,6.587,0,0,0,4.048,6.118,27.807,27.807,0,0,0,6.624,1.978c3.68.828,3.956.874,4.83,1.472a2.812,2.812,0,0,1,1.2,2.3c0,2.162-2.116,3.5-5.52,3.5-3.588,0-5.29-1.242-6.072-4.37Zm34.914,7.5a47.873,47.873,0,0,1-.322-5.98v-9.108a10.387,10.387,0,0,1,1.978-4.6,5.7,5.7,0,0,1,4.738-2.392c2.99,0,4.462,1.932,4.462,5.8v10.3a37.437,37.437,0,0,1-.368,5.98H343.9a45,45,0,0,1-.322-5.98v-9.108c.552-2.852,1.288-4.324,2.9-5.7a5.32,5.32,0,0,1,3.772-1.38c3.082,0,4.508,1.84,4.508,5.888v10.3a36.351,36.351,0,0,1-.368,5.98H361.1a37.438,37.438,0,0,1-.368-5.98V230.21c0-3.266-.644-5.336-2.162-6.992a9.078,9.078,0,0,0-6.9-2.622,10.162,10.162,0,0,0-5.152,1.2,10.643,10.643,0,0,0-3.864,3.634,5.963,5.963,0,0,0-1.748-2.76,8.251,8.251,0,0,0-5.934-2.07c-3.818,0-7.222,1.794-8.556,4.6.046-.736.046-1.426.046-1.7v-2.346H320.3a40.236,40.236,0,0,1,.322,5.98v14.444a46.408,46.408,0,0,1-.322,5.98Zm50.711-.013a11.4,11.4,0,0,1-8.5-3.223,11.643,11.643,0,0,1-3.178-8.546q0-5.795,3.313-9.052a12.182,12.182,0,0,1,8.928-3.257q5.391,0,8.4,3.167t3.01,8.782a12.054,12.054,0,0,1-3.246,8.816A11.658,11.658,0,0,1,377.495,247.539Zm.247-19.923a5.949,5.949,0,0,0-4.829,2.134,8.934,8.934,0,0,0-1.774,5.885,8.415,8.415,0,0,0,1.8,5.694,6.035,6.035,0,0,0,4.807,2.078,5.726,5.726,0,0,0,4.728-2.044,9.048,9.048,0,0,0,1.651-5.817,9.184,9.184,0,0,0-1.651-5.862A5.7,5.7,0,0,0,377.742,227.616Zm4.627-7.637a2.8,2.8,0,0,1-1.943-.741,2.566,2.566,0,0,1-.034-3.729,2.681,2.681,0,0,1,1.909-.741,2.863,2.863,0,0,1,2.01.752,2.392,2.392,0,0,1,.82,1.831,2.5,2.5,0,0,1-.786,1.864A2.722,2.722,0,0,1,382.369,219.979Zm-9.344,0a2.828,2.828,0,0,1-2-.775,2.447,2.447,0,0,1-.831-1.853,2.412,2.412,0,0,1,.8-1.842,2.749,2.749,0,0,1,1.943-.741,2.886,2.886,0,0,1,1.988.752,2.365,2.365,0,0,1,.842,1.831,2.467,2.467,0,0,1-.809,1.864A2.716,2.716,0,0,1,373.025,219.979Zm20.651,31.8c3.128,3.542,6.164,4.784,11.546,4.784,4.738,0,8.556-1.058,10.856-2.944,2.668-2.254,3.864-5.8,3.864-11.316V226.9a42.733,42.733,0,0,1,.322-5.75H414.1v2.116a11.063,11.063,0,0,0,.092,1.518c-1.978-2.806-4.692-4.048-8.786-4.048-7.452,0-12.282,5.152-12.282,13.11,0,7.866,4.692,12.88,12.006,12.88a10.468,10.468,0,0,0,9.016-4.186c-.092,3.128-.414,4.738-1.2,6.118-1.288,2.208-4,3.45-7.544,3.45-3.312,0-5.336-1.012-7.13-3.5Zm5.474-17.8c0-5.474,2.852-8.924,7.452-8.924a6.952,6.952,0,0,1,4.462,1.656,8.48,8.48,0,0,1,2.76,6.808,9.744,9.744,0,0,1-1.288,5.244,7.7,7.7,0,0,1-6.394,3.634,7.051,7.051,0,0,1-4.876-2.07A8.878,8.878,0,0,1,399.15,233.982Zm26.91-23.046a41.477,41.477,0,0,1,.322,5.98v24.656a44.54,44.54,0,0,1-.322,5.98h6.67a47.379,47.379,0,0,1-.322-5.98v-24.61a42.613,42.613,0,0,1,.322-6.026Zm12.466,0v5.842h6.762v-5.842Zm0,10.212a37.807,37.807,0,0,1,.368,5.98v14.444a41.341,41.341,0,0,1-.368,5.98h6.716a46.214,46.214,0,0,1-.322-6.026V227.174a41.351,41.351,0,0,1,.322-6.026Zm36.432,7.5a15.311,15.311,0,0,0-1.61-3.358c-2.208-3.22-5.8-4.968-10.3-4.968a12.6,12.6,0,0,0-9.246,3.5,14.874,14.874,0,0,0-3.91,10.626c0,8.51,5.244,13.984,13.34,13.984,4.37,0,7.912-1.61,10.12-4.646a12.879,12.879,0,0,0,1.932-3.91l-5.7-1.15a6.429,6.429,0,0,1-.92,2.3,6.158,6.158,0,0,1-5.29,2.576c-4.646,0-7.5-3.542-7.5-9.292,0-5.7,2.806-9.246,7.314-9.246a5.788,5.788,0,0,1,4.738,2.116,8.289,8.289,0,0,1,1.426,2.806Zm4.83-17.71a43.049,43.049,0,0,1,.322,6.026v24.61a37.807,37.807,0,0,1-.368,5.98h6.624a40.928,40.928,0,0,1-.368-5.98V232.28c2.07-4.6,4.738-6.808,8.188-6.808a4.271,4.271,0,0,1,3.174,1.334c.874.92,1.334,2.438,1.334,4.554v10.212a48.884,48.884,0,0,1-.322,5.98h6.67a36.351,36.351,0,0,1-.368-5.98V229.98c0-5.934-3.358-9.292-9.246-9.292-4.186,0-6.67,1.288-9.522,4.876a18.864,18.864,0,0,0,.092-1.978v-6.578a44.212,44.212,0,0,1,.322-6.072Zm31,0a42.186,42.186,0,0,1,.322,6.026v24.61a45,45,0,0,1-.322,5.98h6.486a33.3,33.3,0,0,1-.322-5.888v-2.99l3.772-3.588,4.968,7.268a22.152,22.152,0,0,1,3.036,5.2h8.188c-1.058-1.058-1.058-1.058-4.186-5.336L524.96,231.59l6.532-6.21c1.978-1.886,1.978-1.886,4.6-4.232h-8.6a21.176,21.176,0,0,1-3.634,4.094l-6.9,6.854V216.962a43.049,43.049,0,0,1,.322-6.026Zm54.648,24.932c-.092-1.058-.092-1.2-.092-1.288a18.911,18.911,0,0,0-1.334-6.992c-1.84-4.6-6.072-7.268-11.454-7.268-7.866,0-12.972,5.566-12.972,14.076,0,8.6,5.152,14.03,13.294,14.03a13.064,13.064,0,0,0,9.476-3.542,12.927,12.927,0,0,0,2.806-4.232l-5.428-1.748A6.686,6.686,0,0,1,558.4,241.3a7.739,7.739,0,0,1-11.27-.276c-1.058-1.334-1.472-2.622-1.7-5.152Zm-19.872-4.554c.69-3.864,3.312-6.256,6.9-6.256a6.56,6.56,0,0,1,4.968,1.84,7.22,7.22,0,0,1,2.024,4.416Zm24.426-20.378v5.842h6.762v-5.842Zm0,10.212a37.808,37.808,0,0,1,.368,5.98v14.444a41.341,41.341,0,0,1-.368,5.98h6.716a46.213,46.213,0,0,1-.322-6.026V227.174a41.35,41.35,0,0,1,.322-6.026Zm15.548-7.084a52.958,52.958,0,0,1,.322,5.658v1.426h-1.7a21.127,21.127,0,0,1-4.14-.276V226.3a23.229,23.229,0,0,1,4.094-.276h1.748V241.48c0,4.83,2.116,6.716,7.406,6.716a14.394,14.394,0,0,0,5.75-.966l-.828-4.876a6.084,6.084,0,0,1-3.358,1.012c-2.208,0-3.036-.828-3.036-3.082v-14.26h2.07a25.363,25.363,0,0,1,4.508.276v-5.428a26.427,26.427,0,0,1-4.646.276H591.8v-1.426a50.872,50.872,0,0,1,.322-5.658Zm41.63,21.8c-.092-1.058-.092-1.2-.092-1.288a18.911,18.911,0,0,0-1.334-6.992c-1.84-4.6-6.072-7.268-11.454-7.268-7.866,0-12.972,5.566-12.972,14.076,0,8.6,5.152,14.03,13.294,14.03a13.064,13.064,0,0,0,9.476-3.542,12.927,12.927,0,0,0,2.806-4.232l-5.428-1.748a6.686,6.686,0,0,1-1.334,2.392,7.739,7.739,0,0,1-11.27-.276c-1.058-1.334-1.472-2.622-1.7-5.152ZM607.3,231.314c.69-3.864,3.312-6.256,6.9-6.256a6.56,6.56,0,0,1,4.968,1.84,7.221,7.221,0,0,1,2.024,4.416Zm31.05,16.238a40.928,40.928,0,0,1-.368-5.98V232.28c2.024-4.554,4.738-6.854,8.05-6.854a4.327,4.327,0,0,1,3.864,1.886,7.556,7.556,0,0,1,.782,4.048v10.212a48.89,48.89,0,0,1-.322,5.98h6.67a36.351,36.351,0,0,1-.368-5.98v-11.04c0-3.082-.46-4.922-1.564-6.44-1.656-2.254-4.278-3.4-7.82-3.4-4.14,0-6.578,1.288-9.384,4.876a17.977,17.977,0,0,0,.092-1.978v-2.438h-6.256a37.808,37.808,0,0,1,.368,5.98v14.444a38.182,38.182,0,0,1-.368,5.98Z" transform="translate(220 440)"/>
          <path id="路径_41024" data-name="路径 41024" d="M5-9.6a4.159,4.159,0,0,0-3.1,1.2A5.137,5.137,0,0,0,.54-4.656c0,3.048,1.752,5,4.476,5S9.5-1.62,9.5-4.656A5.175,5.175,0,0,0,8.16-8.4,4.205,4.205,0,0,0,5-9.6ZM5.04-1.08a2.591,2.591,0,0,1-1.86-.732,3.965,3.965,0,0,1-.972-2.832c0-2.172,1.092-3.54,2.82-3.54a2.583,2.583,0,0,1,1.848.732,3.876,3.876,0,0,1,.948,2.8C7.824-2.448,6.756-1.08,5.04-1.08ZM36.576-9.408a9.767,9.767,0,0,1,.1,1.644V-3.54a2.191,2.191,0,0,1-2.436,2.484,2.2,2.2,0,0,1-2.46-2.472V-7.764a9.41,9.41,0,0,1,.1-1.644H30.084a9.858,9.858,0,0,1,.1,1.644v4.236a3.865,3.865,0,0,0,.9,2.76A4.134,4.134,0,0,0,34.176.36c2.616,0,4.092-1.392,4.092-3.876v-4.26a9.7,9.7,0,0,1,.1-1.632ZM67.332.144c-.168-.324-.468-.972-.564-1.188C65.58-3.852,65.352-4.188,64.6-4.428a2.537,2.537,0,0,0,1.332-.7,2.467,2.467,0,0,0,.612-1.788c0-1.584-1.044-2.5-2.868-2.5h-2.88c-.66,0-1.032-.012-1.536-.036a10.677,10.677,0,0,1,.1,1.56v6.468a9.391,9.391,0,0,1-.1,1.56h1.788a9.364,9.364,0,0,1-.1-1.572V-3.876h1.788c.924,0,1.344.444,1.992,2.1a9.714,9.714,0,0,1,.624,1.92ZM60.948-5.244v-2.8h2.46c.984,0,1.476.444,1.476,1.308A1.424,1.424,0,0,1,64.5-5.676a1.617,1.617,0,0,1-1.14.432ZM116.7.144a9.771,9.771,0,0,1,.528-1.6l1.8-4.224a14.644,14.644,0,0,0,.552-1.752c-.012.18-.048.792-.1,1.836v3.984a11.156,11.156,0,0,1-.1,1.752h1.68a10.4,10.4,0,0,1-.1-1.752V-7.632a12.427,12.427,0,0,1,.1-1.776H118.86a6.65,6.65,0,0,1-.432,1.428L116-2.028,113.568-7.98a8.305,8.305,0,0,1-.444-1.428h-2.2a11.9,11.9,0,0,1,.1,1.776v6.024a11.254,11.254,0,0,1-.1,1.752h1.68a10.964,10.964,0,0,1-.1-1.752V-5.544c0-.264-.048-1.248-.1-1.884a13.354,13.354,0,0,0,.612,1.836l1.728,4.116a8.169,8.169,0,0,1,.528,1.62Zm25.272-9.552a8.966,8.966,0,0,1,.1,1.548V-1.4a9.055,9.055,0,0,1-.1,1.548H143.8a9.055,9.055,0,0,1-.1-1.548V-7.86a8.966,8.966,0,0,1,.1-1.548Zm22.4,6.756a4.1,4.1,0,0,0,.228,1A2.825,2.825,0,0,0,165.66-.288a4.825,4.825,0,0,0,2.52.624,3.977,3.977,0,0,0,2.868-.912,2.792,2.792,0,0,0,.756-2.04,2.368,2.368,0,0,0-1-2.064,5.283,5.283,0,0,0-1.956-.732,10.216,10.216,0,0,1-1.692-.432,1.141,1.141,0,0,1-.816-1.092c0-.78.708-1.308,1.752-1.308a1.9,1.9,0,0,1,1.5.576,1.55,1.55,0,0,1,.36.852l1.716-.2a3.235,3.235,0,0,0-.588-1.392A3.537,3.537,0,0,0,168.1-9.624c-2.064,0-3.408,1.08-3.408,2.748a2.362,2.362,0,0,0,.924,1.944,4.242,4.242,0,0,0,1.812.732,7.566,7.566,0,0,1,2.088.588,1.218,1.218,0,0,1,.6,1.1c0,.9-.72,1.44-1.92,1.44a2.13,2.13,0,0,1-1.752-.708,1.72,1.72,0,0,1-.336-1.056Zm27.78,0a4.1,4.1,0,0,0,.228,1A2.825,2.825,0,0,0,193.44-.288a4.825,4.825,0,0,0,2.52.624,3.977,3.977,0,0,0,2.868-.912,2.792,2.792,0,0,0,.756-2.04,2.368,2.368,0,0,0-1-2.064,5.283,5.283,0,0,0-1.956-.732,10.216,10.216,0,0,1-1.692-.432,1.141,1.141,0,0,1-.816-1.092c0-.78.708-1.308,1.752-1.308a1.9,1.9,0,0,1,1.5.576,1.55,1.55,0,0,1,.36.852l1.716-.2a3.235,3.235,0,0,0-.588-1.392,3.537,3.537,0,0,0-2.988-1.212c-2.064,0-3.408,1.08-3.408,2.748a2.362,2.362,0,0,0,.924,1.944A4.242,4.242,0,0,0,195.2-4.2a7.566,7.566,0,0,1,2.088.588,1.218,1.218,0,0,1,.6,1.1c0,.9-.72,1.44-1.92,1.44a2.13,2.13,0,0,1-1.752-.708,1.72,1.72,0,0,1-.336-1.056Zm28.092-6.756a8.966,8.966,0,0,1,.1,1.548V-1.4a9.055,9.055,0,0,1-.1,1.548h1.824a9.055,9.055,0,0,1-.1-1.548V-7.86a8.966,8.966,0,0,1,.1-1.548ZM247.116-9.6a4.159,4.159,0,0,0-3.1,1.2,5.137,5.137,0,0,0-1.368,3.744c0,3.048,1.752,5,4.476,5s4.488-1.968,4.488-5A5.175,5.175,0,0,0,250.272-8.4,4.205,4.205,0,0,0,247.116-9.6Zm.036,8.52a2.591,2.591,0,0,1-1.86-.732,3.965,3.965,0,0,1-.972-2.832c0-2.172,1.092-3.54,2.82-3.54a2.583,2.583,0,0,1,1.848.732,3.876,3.876,0,0,1,.948,2.8C249.936-2.448,248.868-1.08,247.152-1.08ZM280.368.144a9.055,9.055,0,0,1-.1-1.548V-7.752a10.493,10.493,0,0,1,.1-1.656h-1.752a10.489,10.489,0,0,1,.1,1.656V-3.72c0,.5.036,1.224.084,1.692-.264-.48-.648-1.1-.936-1.536l-3.036-4.572a6.582,6.582,0,0,1-.732-1.272H272.22a9.993,9.993,0,0,1,.1,1.548v6.192a12.983,12.983,0,0,1-.1,1.812h1.752a13.282,13.282,0,0,1-.1-1.8V-5.592c0-.276-.024-.816-.036-1.044-.036-.444-.036-.444-.048-.612.288.564.588,1.08.816,1.44l3.1,4.668a11.958,11.958,0,0,1,.768,1.284Z" transform="translate(220 390)"/>
        </g>
      </g>
      <g id="背景" transform="translate(283.495 -6.459)" opacity="0.1">
        <path id="路径_40872" data-name="路径 40872" d="M395.381,229.828l896.223,2.131,97.389,98.326V711.014l-921.585-2.13-72.028-85.75Z" transform="translate(90.634 56.382)" fill="none" stroke="#000" stroke-miterlimit="10" stroke-width="2"/>
        <path id="路径_40873" data-name="路径 40873" d="M484,250.647h769.917l62.883-66.313" transform="translate(155.55 21.688)" fill="none" stroke="#000" stroke-miterlimit="10" stroke-width="2"/>
        <path id="路径_40874" data-name="路径 40874" d="M1316.8,184.333H546.883L484,250.647" transform="translate(-59.926 594.795)" fill="none" stroke="#000" stroke-miterlimit="10" stroke-width="2"/>
        <circle id="椭圆_2166" data-name="椭圆 2166" cx="29.476" cy="29.476" r="29.476" transform="translate(1461.56 154)" fill="none" stroke="#000" stroke-miterlimit="10" stroke-width="2"/>
        <circle id="椭圆_2167" data-name="椭圆 2167" cx="18.42" cy="18.42" r="18.42" transform="translate(393.772 840.211)" fill="none" stroke="#000" stroke-miterlimit="10" stroke-width="2"/>
        <path id="路径_40875" data-name="路径 40875" d="M594.911,288.661l58.755-25.446h748.26" transform="translate(-31.036 -16.326)" fill="none" stroke="#000" stroke-width="2"/>
        <path id="路径_40876" data-name="路径 40876" d="M1401.926,263.214l-58.755,25.446H594.911" transform="translate(-69.377 515.914)" fill="none" stroke="#000" stroke-width="2"/>
        <path id="路径_40877" data-name="路径 40877" d="M444.242,293.133H387.292V671" transform="translate(79.749 -20.798)" fill="none" stroke="#000" stroke-width="2"/>
        <path id="路径_40878" data-name="路径 40878" d="M1688.293,462.333V786.349H1608.8" transform="translate(-182.597 -46.091)" fill="none" stroke="#707070" stroke-width="2"/>
        <path id="路径_40879" data-name="路径 40879" d="M428.642,768.6l67.719,70.977" transform="translate(44.819 -79.873)" fill="none" stroke="#000" stroke-width="2"/>
        <path id="路径_40880" data-name="路径 40880" d="M1636.882,316.811l50.249,47.226" transform="translate(-194.885 -6.37)" fill="none" stroke="#000" stroke-width="2"/>
      </g>
    </g>
  </g>
</svg>
