<svg xmlns="http://www.w3.org/2000/svg" xmlns:xlink="http://www.w3.org/1999/xlink" width="1820" height="880" viewBox="0 0 1820 880">
  <defs>
    <clipPath id="clip-path">
      <rect id="矩形_2683" data-name="矩形 2683" width="1820" height="880" transform="translate(50 88)" fill="#fff"/>
    </clipPath>
  </defs>
  <g id="人工智能-EN" transform="translate(-6399 2186)">
    <g id="蒙版组_32" data-name="蒙版组 32" transform="translate(6349 -2274)" clip-path="url(#clip-path)">
      <g id="组_21875" data-name="组 21875" transform="translate(-60)">
        <g id="组_21874" data-name="组 21874" transform="translate(-6309 1354)">
          <g id="组_21870" data-name="组 21870" transform="translate(6259 -1368)">
            <path id="路径_39856" data-name="路径 39856" d="M29.088-37.632a36.216,36.216,0,0,1,.384,6.192v9.216h-19.3v-9.264a39.338,39.338,0,0,1,.384-6.144H3.408a36.575,36.575,0,0,1,.384,6.192V-5.616A36.216,36.216,0,0,1,3.408.576H10.56a37.675,37.675,0,0,1-.384-6.192V-16.464h19.3V-5.616A36.575,36.575,0,0,1,29.088.576H36.24a38.049,38.049,0,0,1-.384-6.192V-31.488a37.419,37.419,0,0,1,.384-6.144ZM61.056-26.976a50.641,50.641,0,0,1,.384,6.24v9.7c-2.16,4.752-4.9,7.1-8.352,7.1a5.972,5.972,0,0,1-2.64-.672C48.96-5.52,48.24-7.3,48.24-10.08V-20.736a42.962,42.962,0,0,1,.336-6.24h-6.96A44.12,44.12,0,0,1,42-20.736V-8.592c0,3.936,1.248,6.624,3.888,8.3A10.456,10.456,0,0,0,51.648,1.1c4.56,0,7.2-1.392,9.84-5.136-.048,1.2-.048,1.344-.048,2.064V.576h6.528a39.451,39.451,0,0,1-.384-6.24V-20.736a34.753,34.753,0,0,1,.384-6.24ZM79.776.576a49.956,49.956,0,0,1-.336-6.24v-9.5a10.838,10.838,0,0,1,2.064-4.8,5.946,5.946,0,0,1,4.944-2.5c3.12,0,4.656,2.016,4.656,6.048V-5.664A39.066,39.066,0,0,1,90.72.576h6.912a46.956,46.956,0,0,1-.336-6.24v-9.5c.576-2.976,1.344-4.512,3.024-5.952a5.552,5.552,0,0,1,3.936-1.44c3.216,0,4.7,1.92,4.7,6.144V-5.664a37.933,37.933,0,0,1-.384,6.24h7.008a39.065,39.065,0,0,1-.384-6.24V-17.52c0-3.408-.672-5.568-2.256-7.3a9.473,9.473,0,0,0-7.2-2.736,10.6,10.6,0,0,0-5.376,1.248c-1.488.768-2.4,1.632-4.032,3.792a6.222,6.222,0,0,0-1.824-2.88,8.609,8.609,0,0,0-6.192-2.16c-3.984,0-7.536,1.872-8.928,4.8.048-.768.048-1.488.048-1.776v-2.448H73.008a41.986,41.986,0,0,1,.336,6.24V-5.664a48.427,48.427,0,0,1-.336,6.24Zm58.992,0h6.48a38.606,38.606,0,0,1-.384-6V-18.336c0-3.264-.624-5.088-2.256-6.624-2.064-2.016-4.848-2.832-9.456-2.832-4.128,0-6.816.72-9.168,2.448-1.824,1.3-2.688,2.544-3.792,5.328l6.144,1.1a5.23,5.23,0,0,1,1.92-3.072,8.66,8.66,0,0,1,4.992-1.392c3.648,0,5.52,1.44,5.52,4.224V-16.7c-6.864.144-10.416.624-13.536,1.92a8.515,8.515,0,0,0-5.424,7.776c0,5.04,3.552,8.064,9.408,8.064A16.984,16.984,0,0,0,133.68.48a10.408,10.408,0,0,0,5.088-3.024Zm0-10.7A5.72,5.72,0,0,1,137.04-5.9a9.747,9.747,0,0,1-6.672,2.544C127.68-3.36,126-4.752,126-7.008c0-3.744,3.6-5.328,12.768-5.52ZM156.912.576a42.709,42.709,0,0,1-.384-6.24v-9.7c2.112-4.752,4.944-7.152,8.4-7.152a4.515,4.515,0,0,1,4.032,1.968,7.885,7.885,0,0,1,.816,4.224V-5.664a51.01,51.01,0,0,1-.336,6.24h6.96a37.931,37.931,0,0,1-.384-6.24v-11.52c0-3.216-.48-5.136-1.632-6.72-1.728-2.352-4.464-3.552-8.16-3.552-4.32,0-6.864,1.344-9.792,5.088a18.756,18.756,0,0,0,.1-2.064v-2.544H150a39.45,39.45,0,0,1,.384,6.24V-5.664A39.841,39.841,0,0,1,150,.576ZM180-10.8a26.419,26.419,0,0,1,4.512-.288h7.44a26.34,26.34,0,0,1,4.56.288v-6.384a30.314,30.314,0,0,1-4.56.288h-7.44A30.073,30.073,0,0,1,180-17.184ZM206.928.576a49.956,49.956,0,0,1-.336-6.24v-9.5a10.838,10.838,0,0,1,2.064-4.8,5.946,5.946,0,0,1,4.944-2.5c3.12,0,4.656,2.016,4.656,6.048V-5.664a39.066,39.066,0,0,1-.384,6.24h6.912a46.956,46.956,0,0,1-.336-6.24v-9.5c.576-2.976,1.344-4.512,3.024-5.952a5.552,5.552,0,0,1,3.936-1.44c3.216,0,4.7,1.92,4.7,6.144V-5.664a37.933,37.933,0,0,1-.384,6.24h7.008a39.066,39.066,0,0,1-.384-6.24V-17.52c0-3.408-.672-5.568-2.256-7.3a9.473,9.473,0,0,0-7.2-2.736A10.6,10.6,0,0,0,227.52-26.3c-1.488.768-2.4,1.632-4.032,3.792a6.222,6.222,0,0,0-1.824-2.88,8.609,8.609,0,0,0-6.192-2.16c-3.984,0-7.536,1.872-8.928,4.8.048-.768.048-1.488.048-1.776v-2.448H200.16a41.986,41.986,0,0,1,.336,6.24V-5.664a48.427,48.427,0,0,1-.336,6.24Zm58.992,0h6.48a38.606,38.606,0,0,1-.384-6V-18.336c0-3.264-.624-5.088-2.256-6.624-2.064-2.016-4.848-2.832-9.456-2.832-4.128,0-6.816.72-9.168,2.448-1.824,1.3-2.688,2.544-3.792,5.328l6.144,1.1a5.23,5.23,0,0,1,1.92-3.072,8.66,8.66,0,0,1,4.992-1.392c3.648,0,5.52,1.44,5.52,4.224V-16.7c-6.864.144-10.416.624-13.536,1.92a8.515,8.515,0,0,0-5.424,7.776c0,5.04,3.552,8.064,9.408,8.064A16.984,16.984,0,0,0,260.832.48a10.408,10.408,0,0,0,5.088-3.024Zm0-10.7A5.72,5.72,0,0,1,264.192-5.9,9.746,9.746,0,0,1,257.52-3.36c-2.688,0-4.368-1.392-4.368-3.648,0-3.744,3.6-5.328,12.768-5.52Zm36.24-9.024a15.977,15.977,0,0,0-1.68-3.5c-2.3-3.36-6.048-5.184-10.752-5.184a13.144,13.144,0,0,0-9.648,3.648A15.521,15.521,0,0,0,276-13.1c0,8.88,5.472,14.592,13.92,14.592,4.56,0,8.256-1.68,10.56-4.848A13.439,13.439,0,0,0,302.5-7.44l-5.952-1.2a6.709,6.709,0,0,1-.96,2.4,6.426,6.426,0,0,1-5.52,2.688c-4.848,0-7.824-3.7-7.824-9.7,0-5.952,2.928-9.648,7.632-9.648a6.039,6.039,0,0,1,4.944,2.208A8.649,8.649,0,0,1,296.3-17.76Zm4.08-18.48a44.915,44.915,0,0,1,.336,6.288v25.68a39.452,39.452,0,0,1-.384,6.24H313.1a42.709,42.709,0,0,1-.384-6.24v-9.7c2.16-4.8,4.944-7.1,8.544-7.1a4.456,4.456,0,0,1,3.312,1.392c.912.96,1.392,2.544,1.392,4.752V-5.664a51.007,51.007,0,0,1-.336,6.24h6.96a37.932,37.932,0,0,1-.384-6.24v-12.1c0-6.192-3.5-9.7-9.648-9.7-4.368,0-6.96,1.344-9.936,5.088a19.685,19.685,0,0,0,.1-2.064V-31.3a46.133,46.133,0,0,1,.336-6.336Zm31.3,0v6.1h7.056v-6.1Zm0,10.656a39.452,39.452,0,0,1,.384,6.24V-5.664a43.139,43.139,0,0,1-.384,6.24h7.008a48.215,48.215,0,0,1-.336-6.288V-20.688a43.143,43.143,0,0,1,.336-6.288ZM356.5.576a42.709,42.709,0,0,1-.384-6.24v-9.7c2.112-4.752,4.944-7.152,8.4-7.152a4.515,4.515,0,0,1,4.032,1.968,7.885,7.885,0,0,1,.816,4.224V-5.664a51.013,51.013,0,0,1-.336,6.24h6.96a37.932,37.932,0,0,1-.384-6.24v-11.52c0-3.216-.48-5.136-1.632-6.72-1.728-2.352-4.464-3.552-8.16-3.552-4.32,0-6.864,1.344-9.792,5.088a18.753,18.753,0,0,0,.1-2.064v-2.544h-6.528a39.452,39.452,0,0,1,.384,6.24V-5.664a39.843,39.843,0,0,1-.384,6.24Zm50.256-12.192c-.1-1.1-.1-1.248-.1-1.344a19.733,19.733,0,0,0-1.392-7.3c-1.92-4.8-6.336-7.584-11.952-7.584-8.208,0-13.536,5.808-13.536,14.688,0,8.976,5.376,14.64,13.872,14.64a13.631,13.631,0,0,0,9.888-3.7,13.49,13.49,0,0,0,2.928-4.416L400.8-8.448a6.976,6.976,0,0,1-1.392,2.5,7.59,7.59,0,0,1-5.76,2.4,7.544,7.544,0,0,1-6-2.688c-1.1-1.392-1.536-2.736-1.776-5.376Zm-20.736-4.752c.72-4.032,3.456-6.528,7.2-6.528a6.845,6.845,0,0,1,5.184,1.92,7.534,7.534,0,0,1,2.112,4.608Zm38.352,9.12a10.8,10.8,0,0,0,1.872,4.272C428.3-.192,432,1.3,436.944,1.3c4.368,0,7.728-1.056,9.936-3.12a7.718,7.718,0,0,0,2.352-5.424,6.822,6.822,0,0,0-2.784-5.952c-1.584-1.2-3.552-1.872-8.448-2.928a20.218,20.218,0,0,1-4.8-1.44,2.587,2.587,0,0,1-1.488-2.256c0-2.016,2.016-3.36,4.992-3.36,3.12,0,4.752,1.152,5.28,3.792l6.336-.816a9.344,9.344,0,0,0-2.592-4.752c-1.968-1.824-5.088-2.784-9.024-2.784-4.368,0-7.632,1.248-9.6,3.744a7.142,7.142,0,0,0-1.488,4.464,6.873,6.873,0,0,0,4.224,6.384,29.017,29.017,0,0,0,6.912,2.064c3.84.864,4.128.912,5.04,1.536a2.935,2.935,0,0,1,1.248,2.4c0,2.256-2.208,3.648-5.76,3.648-3.744,0-5.52-1.3-6.336-4.56Zm37.872,5.9-1.632,3.7a4.006,4.006,0,0,1-3.744,2.4,7.966,7.966,0,0,1-3.36-.816l-1.1,5.472a24.786,24.786,0,0,0,5.04.576c4.464,0,7.3-1.68,8.832-5.328l10.944-25.68c1.44-3.36,2.3-5.328,2.592-5.952h-7.152a28.708,28.708,0,0,1-1.824,5.664L465.5-7.728,459.648-21.36a27.8,27.8,0,0,1-1.824-5.616h-7.3c.576,1.056.624,1.2,2.736,5.952ZM489.024.576a49.959,49.959,0,0,1-.336-6.24v-9.5a10.838,10.838,0,0,1,2.064-4.8,5.946,5.946,0,0,1,4.944-2.5c3.12,0,4.656,2.016,4.656,6.048V-5.664a39.062,39.062,0,0,1-.384,6.24h6.912a46.959,46.959,0,0,1-.336-6.24v-9.5c.576-2.976,1.344-4.512,3.024-5.952a5.552,5.552,0,0,1,3.936-1.44c3.216,0,4.7,1.92,4.7,6.144V-5.664a37.929,37.929,0,0,1-.384,6.24h7.008a39.062,39.062,0,0,1-.384-6.24V-17.52c0-3.408-.672-5.568-2.256-7.3a9.473,9.473,0,0,0-7.2-2.736,10.6,10.6,0,0,0-5.376,1.248c-1.488.768-2.4,1.632-4.032,3.792a6.222,6.222,0,0,0-1.824-2.88,8.609,8.609,0,0,0-6.192-2.16c-3.984,0-7.536,1.872-8.928,4.8.048-.768.048-1.488.048-1.776v-2.448h-6.432a41.989,41.989,0,0,1,.336,6.24V-5.664a48.43,48.43,0,0,1-.336,6.24Zm47.136,0V-1.776c0-.576,0-1.1-.048-1.728,2.4,3.36,5.136,4.752,9.552,4.752q5.832,0,9.216-3.456c2.592-2.688,3.936-6.528,3.936-11.232,0-8.928-4.752-14.16-12.816-14.16a11.189,11.189,0,0,0-9.888,4.848c.048-1.632.1-2.832.1-3.6v-4.8a48.924,48.924,0,0,1,.336-6.48h-6.768a55.977,55.977,0,0,1,.336,6.432V-5.9a50.389,50.389,0,0,1-.336,6.48ZM552.576-13.44c0,5.808-3.12,9.552-7.968,9.552a8.362,8.362,0,0,1-5.04-1.776,10.012,10.012,0,0,1-3.168-7.584,10.338,10.338,0,0,1,2.352-6.672,8.565,8.565,0,0,1,6.528-2.64C549.7-22.56,552.576-18.96,552.576-13.44ZM562.7-37.632v6.1h7.056v-6.1Zm0,10.656a39.456,39.456,0,0,1,.384,6.24V-5.664A43.143,43.143,0,0,1,562.7.576h7.008a48.221,48.221,0,0,1-.336-6.288V-20.688a43.147,43.147,0,0,1,.336-6.288ZM587.952,1.488c8.544,0,14.16-5.856,14.16-14.736s-5.52-14.544-14.208-14.544c-8.736,0-14.3,5.712-14.3,14.64C573.6-4.176,579.168,1.488,587.952,1.488ZM587.9-22.8c5.088,0,8.016,3.552,8.016,9.744,0,5.856-3.072,9.456-8.064,9.456s-8.064-3.648-8.064-9.552C579.792-19.152,582.864-22.8,587.9-22.8ZM604.752-7.248a10.8,10.8,0,0,0,1.872,4.272c2.064,2.784,5.76,4.272,10.7,4.272,4.368,0,7.728-1.056,9.936-3.12a7.718,7.718,0,0,0,2.352-5.424,6.822,6.822,0,0,0-2.784-5.952c-1.584-1.2-3.552-1.872-8.448-2.928a20.219,20.219,0,0,1-4.8-1.44,2.587,2.587,0,0,1-1.488-2.256c0-2.016,2.016-3.36,4.992-3.36,3.12,0,4.752,1.152,5.28,3.792l6.336-.816a9.344,9.344,0,0,0-2.592-4.752c-1.968-1.824-5.088-2.784-9.024-2.784-4.368,0-7.632,1.248-9.6,3.744A7.141,7.141,0,0,0,606-19.536a6.873,6.873,0,0,0,4.224,6.384,29.017,29.017,0,0,0,6.912,2.064c3.84.864,4.128.912,5.04,1.536a2.935,2.935,0,0,1,1.248,2.4c0,2.256-2.208,3.648-5.76,3.648-3.744,0-5.52-1.3-6.336-4.56Zm28.7-30.384v6.1h7.056v-6.1Zm0,10.656a39.456,39.456,0,0,1,.384,6.24V-5.664a43.143,43.143,0,0,1-.384,6.24h7.008a48.221,48.221,0,0,1-.336-6.288V-20.688a43.147,43.147,0,0,1,.336-6.288ZM644.3-7.248a10.8,10.8,0,0,0,1.872,4.272c2.064,2.784,5.76,4.272,10.7,4.272,4.368,0,7.728-1.056,9.936-3.12a7.718,7.718,0,0,0,2.352-5.424,6.822,6.822,0,0,0-2.784-5.952c-1.584-1.2-3.552-1.872-8.448-2.928a20.219,20.219,0,0,1-4.8-1.44,2.587,2.587,0,0,1-1.488-2.256c0-2.016,2.016-3.36,4.992-3.36,3.12,0,4.752,1.152,5.28,3.792l6.336-.816a9.344,9.344,0,0,0-2.592-4.752c-1.968-1.824-5.088-2.784-9.024-2.784-4.368,0-7.632,1.248-9.6,3.744a7.141,7.141,0,0,0-1.488,4.464,6.873,6.873,0,0,0,4.224,6.384,29.017,29.017,0,0,0,6.912,2.064c3.84.864,4.128.912,5.04,1.536a2.935,2.935,0,0,1,1.248,2.4c0,2.256-2.208,3.648-5.76,3.648-3.744,0-5.52-1.3-6.336-4.56Zm-616.32,88.1a15.977,15.977,0,0,0-1.68-3.5c-2.3-3.36-6.048-5.184-10.752-5.184A13.144,13.144,0,0,0,5.9,75.808,15.521,15.521,0,0,0,1.824,86.9c0,8.88,5.472,14.592,13.92,14.592,4.56,0,8.256-1.68,10.56-4.848a13.439,13.439,0,0,0,2.016-4.08l-5.952-1.2a6.709,6.709,0,0,1-.96,2.4,6.426,6.426,0,0,1-5.52,2.688c-4.848,0-7.824-3.7-7.824-9.7,0-5.952,2.928-9.648,7.632-9.648a6.039,6.039,0,0,1,4.944,2.208,8.649,8.649,0,0,1,1.488,2.928Zm17.232,20.64c8.544,0,14.16-5.856,14.16-14.736s-5.52-14.544-14.208-14.544c-8.736,0-14.3,5.712-14.3,14.64C30.864,95.824,36.432,101.488,45.216,101.488ZM45.168,77.2c5.088,0,8.016,3.552,8.016,9.744,0,5.856-3.072,9.456-8.064,9.456s-8.064-3.648-8.064-9.552C37.056,80.848,40.128,77.2,45.168,77.2Zm24.96,23.376a42.708,42.708,0,0,1-.384-6.24v-9.7c2.112-4.752,4.944-7.152,8.4-7.152a4.515,4.515,0,0,1,4.032,1.968,7.885,7.885,0,0,1,.816,4.224V94.336a51.012,51.012,0,0,1-.336,6.24h6.96a37.932,37.932,0,0,1-.384-6.24V82.816c0-3.216-.48-5.136-1.632-6.72-1.728-2.352-4.464-3.552-8.16-3.552-4.32,0-6.864,1.344-9.792,5.088a18.755,18.755,0,0,0,.1-2.064V73.024H63.216a39.451,39.451,0,0,1,.384,6.24V94.336a39.842,39.842,0,0,1-.384,6.24Zm31.344,0a42.708,42.708,0,0,1-.384-6.24v-9.7c2.112-4.752,4.944-7.152,8.4-7.152a4.515,4.515,0,0,1,4.032,1.968,7.885,7.885,0,0,1,.816,4.224V94.336a51.01,51.01,0,0,1-.336,6.24h6.96a37.931,37.931,0,0,1-.384-6.24V82.816c0-3.216-.48-5.136-1.632-6.72-1.728-2.352-4.464-3.552-8.16-3.552-4.32,0-6.864,1.344-9.792,5.088a18.757,18.757,0,0,0,.1-2.064V73.024H94.56a39.451,39.451,0,0,1,.384,6.24V94.336a39.841,39.841,0,0,1-.384,6.24Zm50.256-12.192c-.1-1.1-.1-1.248-.1-1.344a19.732,19.732,0,0,0-1.392-7.3c-1.92-4.8-6.336-7.584-11.952-7.584-8.208,0-13.536,5.808-13.536,14.688,0,8.976,5.376,14.64,13.872,14.64a13.631,13.631,0,0,0,9.888-3.7,13.49,13.49,0,0,0,2.928-4.416l-5.664-1.824a6.976,6.976,0,0,1-1.392,2.5,8.075,8.075,0,0,1-11.76-.288c-1.1-1.392-1.536-2.736-1.776-5.376Zm-20.736-4.752c.72-4.032,3.456-6.528,7.2-6.528a6.845,6.845,0,0,1,5.184,1.92,7.534,7.534,0,0,1,2.112,4.608Zm49.536-2.784a15.977,15.977,0,0,0-1.68-3.5c-2.3-3.36-6.048-5.184-10.752-5.184a13.144,13.144,0,0,0-9.648,3.648,15.521,15.521,0,0,0-4.08,11.088c0,8.88,5.472,14.592,13.92,14.592,4.56,0,8.256-1.68,10.56-4.848a13.439,13.439,0,0,0,2.016-4.08l-5.952-1.2a6.709,6.709,0,0,1-.96,2.4,6.426,6.426,0,0,1-5.52,2.688c-4.848,0-7.824-3.7-7.824-9.7,0-5.952,2.928-9.648,7.632-9.648a6.039,6.039,0,0,1,4.944,2.208,8.649,8.649,0,0,1,1.488,2.928Zm7.248-15.216a55.248,55.248,0,0,1,.336,5.9v1.488h-1.776a22.047,22.047,0,0,1-4.32-.288V78.4a24.239,24.239,0,0,1,4.272-.288h1.824V94.24c0,5.04,2.208,7.008,7.728,7.008a15.02,15.02,0,0,0,6-1.008l-.864-5.088a6.349,6.349,0,0,1-3.5,1.056c-2.3,0-3.168-.864-3.168-3.216V78.112h2.16a26.465,26.465,0,0,1,4.7.288V72.736a27.577,27.577,0,0,1-4.848.288H194.3V71.536a53.089,53.089,0,0,1,.336-5.9Zm15.456,27.12a10.8,10.8,0,0,0,1.872,4.272c2.064,2.784,5.76,4.272,10.7,4.272,4.368,0,7.728-1.056,9.936-3.12a7.718,7.718,0,0,0,2.352-5.424,6.822,6.822,0,0,0-2.784-5.952c-1.584-1.2-3.552-1.872-8.448-2.928a20.218,20.218,0,0,1-4.8-1.44,2.587,2.587,0,0,1-1.488-2.256c0-2.016,2.016-3.36,4.992-3.36,3.12,0,4.752,1.152,5.28,3.792l6.336-.816a9.344,9.344,0,0,0-2.592-4.752c-1.968-1.824-5.088-2.784-9.024-2.784-4.368,0-7.632,1.248-9.6,3.744a7.142,7.142,0,0,0-1.488,4.464,6.873,6.873,0,0,0,4.224,6.384,29.017,29.017,0,0,0,6.912,2.064c3.84.864,4.128.912,5.04,1.536a2.935,2.935,0,0,1,1.248,2.4c0,2.256-2.208,3.648-5.76,3.648-3.744,0-5.52-1.3-6.336-4.56Zm46.944-27.12a55.248,55.248,0,0,1,.336,5.9v1.488h-1.776a22.047,22.047,0,0,1-4.32-.288V78.4a24.239,24.239,0,0,1,4.272-.288h1.824V94.24c0,5.04,2.208,7.008,7.728,7.008a15.02,15.02,0,0,0,6-1.008l-.864-5.088a6.349,6.349,0,0,1-3.5,1.056c-2.3,0-3.168-.864-3.168-3.216V78.112h2.16a26.465,26.465,0,0,1,4.7.288V72.736a27.577,27.577,0,0,1-4.848.288H256.7V71.536a53.085,53.085,0,0,1,.336-5.9Zm16.7-3.264a44.915,44.915,0,0,1,.336,6.288v25.68a39.452,39.452,0,0,1-.384,6.24h6.912a42.709,42.709,0,0,1-.384-6.24v-9.7c2.16-4.8,4.944-7.1,8.544-7.1a4.456,4.456,0,0,1,3.312,1.392c.912.96,1.392,2.544,1.392,4.752V94.336a51.013,51.013,0,0,1-.336,6.24h6.96a37.932,37.932,0,0,1-.384-6.24V82.24c0-6.192-3.5-9.7-9.648-9.7-4.368,0-6.96,1.344-9.936,5.088a19.685,19.685,0,0,0,.1-2.064V68.7a46.133,46.133,0,0,1,.336-6.336ZM324,88.384c-.1-1.1-.1-1.248-.1-1.344a19.733,19.733,0,0,0-1.392-7.3c-1.92-4.8-6.336-7.584-11.952-7.584-8.208,0-13.536,5.808-13.536,14.688,0,8.976,5.376,14.64,13.872,14.64a13.631,13.631,0,0,0,9.888-3.7,13.49,13.49,0,0,0,2.928-4.416l-5.664-1.824a6.976,6.976,0,0,1-1.392,2.5,8.075,8.075,0,0,1-11.76-.288c-1.1-1.392-1.536-2.736-1.776-5.376Zm-20.736-4.752c.72-4.032,3.456-6.528,7.2-6.528a6.845,6.845,0,0,1,5.184,1.92,7.534,7.534,0,0,1,2.112,4.608Zm39.552-21.264v6.1h7.056v-6.1Zm0,10.656a39.452,39.452,0,0,1,.384,6.24V94.336a43.139,43.139,0,0,1-.384,6.24h7.008a48.215,48.215,0,0,1-.336-6.288V79.312a43.143,43.143,0,0,1,.336-6.288Zm18.96,27.552a42.709,42.709,0,0,1-.384-6.24v-9.7c2.112-4.752,4.944-7.152,8.4-7.152a4.515,4.515,0,0,1,4.032,1.968,7.885,7.885,0,0,1,.816,4.224V94.336a51.013,51.013,0,0,1-.336,6.24h6.96a37.932,37.932,0,0,1-.384-6.24V82.816c0-3.216-.48-5.136-1.632-6.72-1.728-2.352-4.464-3.552-8.16-3.552-4.32,0-6.864,1.344-9.792,5.088a18.754,18.754,0,0,0,.1-2.064V73.024h-6.528a39.452,39.452,0,0,1,.384,6.24V94.336a39.843,39.843,0,0,1-.384,6.24Zm28.416-22.512V94.336a51.545,51.545,0,0,1-.336,6.24h6.864a47.438,47.438,0,0,1-.336-6.24V78.064h2.352a41.311,41.311,0,0,1,5.328.288V72.736a52.714,52.714,0,0,1-5.424.288h-2.256V71.056c0-3.312.96-4.464,3.744-4.464a7.946,7.946,0,0,1,4.272,1.152l1.3-5.04a17.355,17.355,0,0,0-5.952-.96c-6.528,0-9.552,2.784-9.552,8.736v2.544h-1.968a31.456,31.456,0,0,1-4.512-.288v5.616a32.65,32.65,0,0,1,4.56-.288Zm17.952-15.7v6.1H415.2v-6.1Zm0,10.656a39.452,39.452,0,0,1,.384,6.24V94.336a43.139,43.139,0,0,1-.384,6.24h7.008a48.215,48.215,0,0,1-.336-6.288V79.312a43.143,43.143,0,0,1,.336-6.288Zm18.96,27.552a42.709,42.709,0,0,1-.384-6.24v-9.7c2.112-4.752,4.944-7.152,8.4-7.152a4.515,4.515,0,0,1,4.032,1.968,7.885,7.885,0,0,1,.816,4.224V94.336a51.013,51.013,0,0,1-.336,6.24h6.96a37.932,37.932,0,0,1-.384-6.24V82.816c0-3.216-.48-5.136-1.632-6.72-1.728-2.352-4.464-3.552-8.16-3.552-4.32,0-6.864,1.344-9.792,5.088a18.754,18.754,0,0,0,.1-2.064V73.024h-6.528a39.452,39.452,0,0,1,.384,6.24V94.336a39.843,39.843,0,0,1-.384,6.24Zm24.432-38.208v6.1h7.056v-6.1Zm0,10.656a39.452,39.452,0,0,1,.384,6.24V94.336a43.139,43.139,0,0,1-.384,6.24h7.008a48.215,48.215,0,0,1-.336-6.288V79.312a43.143,43.143,0,0,1,.336-6.288ZM466.8,65.632a55.244,55.244,0,0,1,.336,5.9v1.488H465.36a22.047,22.047,0,0,1-4.32-.288V78.4a24.239,24.239,0,0,1,4.272-.288h1.824V94.24c0,5.04,2.208,7.008,7.728,7.008a15.02,15.02,0,0,0,6-1.008L480,95.152a6.349,6.349,0,0,1-3.5,1.056c-2.3,0-3.168-.864-3.168-3.216V78.112h2.16a26.465,26.465,0,0,1,4.7.288V72.736a27.577,27.577,0,0,1-4.848.288h-2.016V71.536a53.093,53.093,0,0,1,.336-5.9Zm42.48,22.752c-.1-1.1-.1-1.248-.1-1.344a19.733,19.733,0,0,0-1.392-7.3c-1.92-4.8-6.336-7.584-11.952-7.584-8.208,0-13.536,5.808-13.536,14.688,0,8.976,5.376,14.64,13.872,14.64a13.631,13.631,0,0,0,9.888-3.7,13.49,13.49,0,0,0,2.928-4.416l-5.664-1.824a6.976,6.976,0,0,1-1.392,2.5,8.075,8.075,0,0,1-11.76-.288c-1.1-1.392-1.536-2.736-1.776-5.376Zm-20.736-4.752c.72-4.032,3.456-6.528,7.2-6.528a6.845,6.845,0,0,1,5.184,1.92,7.534,7.534,0,0,1,2.112,4.608ZM534.48,73.024H528.1a49.6,49.6,0,0,1,.336,6.432V103.6a53.738,53.738,0,0,1-.336,6.336h6.768a47.841,47.841,0,0,1-.336-6.384V99.9c0-.864,0-1.728-.048-2.064-.048-.96-.048-.96-.048-1.536,2.3,3.12,5.472,4.608,9.7,4.608,8.16,0,13.008-5.328,13.008-14.16,0-4.848-1.248-8.448-3.792-11.04a12.4,12.4,0,0,0-9.12-3.36,11.177,11.177,0,0,0-9.792,4.7c.048-.624.048-1.152.048-1.68ZM550.9,86.656c0,5.664-2.928,9.216-7.632,9.216-4.992,0-8.544-3.84-8.544-9.312,0-5.136,3.6-9.072,8.352-9.072C547.92,77.488,550.9,80.992,550.9,86.656Zm23.424,14.832c8.544,0,14.16-5.856,14.16-14.736s-5.52-14.544-14.208-14.544c-8.736,0-14.3,5.712-14.3,14.64C559.968,95.824,565.536,101.488,574.32,101.488ZM574.272,77.2c5.088,0,8.016,3.552,8.016,9.744,0,5.856-3.072,9.456-8.064,9.456s-8.064-3.648-8.064-9.552C566.16,80.848,569.232,77.2,574.272,77.2ZM591.12,92.752a10.8,10.8,0,0,0,1.872,4.272c2.064,2.784,5.76,4.272,10.7,4.272,4.368,0,7.728-1.056,9.936-3.12a7.718,7.718,0,0,0,2.352-5.424A6.822,6.822,0,0,0,613.2,86.8c-1.584-1.2-3.552-1.872-8.448-2.928a20.219,20.219,0,0,1-4.8-1.44,2.587,2.587,0,0,1-1.488-2.256c0-2.016,2.016-3.36,4.992-3.36,3.12,0,4.752,1.152,5.28,3.792l6.336-.816a9.344,9.344,0,0,0-2.592-4.752c-1.968-1.824-5.088-2.784-9.024-2.784-4.368,0-7.632,1.248-9.6,3.744a7.141,7.141,0,0,0-1.488,4.464,6.873,6.873,0,0,0,4.224,6.384,29.017,29.017,0,0,0,6.912,2.064c3.84.864,4.128.912,5.04,1.536a2.935,2.935,0,0,1,1.248,2.4c0,2.256-2.208,3.648-5.76,3.648-3.744,0-5.52-1.3-6.336-4.56Zm27.5,0a10.8,10.8,0,0,0,1.872,4.272c2.064,2.784,5.76,4.272,10.7,4.272,4.368,0,7.728-1.056,9.936-3.12a7.718,7.718,0,0,0,2.352-5.424A6.822,6.822,0,0,0,640.7,86.8c-1.584-1.2-3.552-1.872-8.448-2.928a20.219,20.219,0,0,1-4.8-1.44,2.587,2.587,0,0,1-1.488-2.256c0-2.016,2.016-3.36,4.992-3.36,3.12,0,4.752,1.152,5.28,3.792l6.336-.816a9.344,9.344,0,0,0-2.592-4.752c-1.968-1.824-5.088-2.784-9.024-2.784-4.368,0-7.632,1.248-9.6,3.744a7.141,7.141,0,0,0-1.488,4.464,6.873,6.873,0,0,0,4.224,6.384,29.017,29.017,0,0,0,6.912,2.064c3.84.864,4.128.912,5.04,1.536a2.935,2.935,0,0,1,1.248,2.4c0,2.256-2.208,3.648-5.76,3.648-3.744,0-5.52-1.3-6.336-4.56Zm28.7-30.384v6.1h7.056v-6.1Zm0,10.656a39.456,39.456,0,0,1,.384,6.24V94.336a43.143,43.143,0,0,1-.384,6.24h7.008A48.221,48.221,0,0,1,654,94.288V79.312a43.147,43.147,0,0,1,.336-6.288Zm18.432,27.552V98.224c0-.576,0-1.1-.048-1.728,2.4,3.36,5.136,4.752,9.552,4.752q5.832,0,9.216-3.456c2.592-2.688,3.936-6.528,3.936-11.232,0-8.928-4.752-14.16-12.816-14.16a11.189,11.189,0,0,0-9.888,4.848c.048-1.632.1-2.832.1-3.6v-4.8a48.924,48.924,0,0,1,.336-6.48h-6.768a55.977,55.977,0,0,1,.336,6.432V94.1a50.389,50.389,0,0,1-.336,6.48ZM682.176,86.56c0,5.808-3.12,9.552-7.968,9.552a8.362,8.362,0,0,1-5.04-1.776A10.012,10.012,0,0,1,666,86.752a10.338,10.338,0,0,1,2.352-6.672,8.565,8.565,0,0,1,6.528-2.64C679.3,77.44,682.176,81.04,682.176,86.56ZM692.3,62.368v6.1h7.056v-6.1Zm0,10.656a39.456,39.456,0,0,1,.384,6.24V94.336a43.143,43.143,0,0,1-.384,6.24h7.008a48.221,48.221,0,0,1-.336-6.288V79.312a43.147,43.147,0,0,1,.336-6.288Zm12.048-10.656a43.284,43.284,0,0,1,.336,6.24V94.336a46.48,46.48,0,0,1-.336,6.24h6.96a49.443,49.443,0,0,1-.336-6.24V68.656a44.469,44.469,0,0,1,.336-6.288Zm12.048,0v6.1h7.056v-6.1Zm0,10.656a39.456,39.456,0,0,1,.384,6.24V94.336a43.143,43.143,0,0,1-.384,6.24h7.008a48.221,48.221,0,0,1-.336-6.288V79.312a43.147,43.147,0,0,1,.336-6.288Zm15.264-7.392a55.26,55.26,0,0,1,.336,5.9v1.488h-1.776a22.047,22.047,0,0,1-4.32-.288V78.4a24.239,24.239,0,0,1,4.272-.288H732V94.24c0,5.04,2.208,7.008,7.728,7.008a15.02,15.02,0,0,0,6-1.008l-.864-5.088a6.349,6.349,0,0,1-3.5,1.056c-2.3,0-3.168-.864-3.168-3.216V78.112h2.16a26.465,26.465,0,0,1,4.7.288V72.736a27.577,27.577,0,0,1-4.848.288h-2.016V71.536a53.084,53.084,0,0,1,.336-5.9Zm16.656-3.264v6.1h7.056v-6.1Zm0,10.656a39.456,39.456,0,0,1,.384,6.24V94.336a43.143,43.143,0,0,1-.384,6.24h7.008a48.221,48.221,0,0,1-.336-6.288V79.312a43.147,43.147,0,0,1,.336-6.288Zm37.872,15.36c-.1-1.1-.1-1.248-.1-1.344a19.732,19.732,0,0,0-1.392-7.3c-1.92-4.8-6.336-7.584-11.952-7.584-8.208,0-13.536,5.808-13.536,14.688,0,8.976,5.376,14.64,13.872,14.64a13.631,13.631,0,0,0,9.888-3.7,13.49,13.49,0,0,0,2.928-4.416l-5.664-1.824a6.977,6.977,0,0,1-1.392,2.5,8.075,8.075,0,0,1-11.76-.288c-1.1-1.392-1.536-2.736-1.776-5.376Zm-20.736-4.752c.72-4.032,3.456-6.528,7.2-6.528a6.845,6.845,0,0,1,5.184,1.92,7.534,7.534,0,0,1,2.112,4.608Zm23.328,9.12a10.8,10.8,0,0,0,1.872,4.272c2.064,2.784,5.76,4.272,10.7,4.272,4.368,0,7.728-1.056,9.936-3.12a7.718,7.718,0,0,0,2.352-5.424,6.822,6.822,0,0,0-2.784-5.952c-1.584-1.2-3.552-1.872-8.448-2.928a20.219,20.219,0,0,1-4.8-1.44,2.587,2.587,0,0,1-1.488-2.256c0-2.016,2.016-3.36,4.992-3.36,3.12,0,4.752,1.152,5.28,3.792l6.336-.816a9.344,9.344,0,0,0-2.592-4.752c-1.968-1.824-5.088-2.784-9.024-2.784-4.368,0-7.632,1.248-9.6,3.744a7.141,7.141,0,0,0-1.488,4.464,6.873,6.873,0,0,0,4.224,6.384,29.017,29.017,0,0,0,6.912,2.064c3.84.864,4.128.912,5.04,1.536a2.935,2.935,0,0,1,1.248,2.4c0,2.256-2.208,3.648-5.76,3.648-3.744,0-5.52-1.3-6.336-4.56Zm35.712,7.824V93.568h-7.008v7.008Z" transform="translate(180 502)"/>
            <path id="路径_39974" data-name="路径 39974" d="M5-9.6a4.159,4.159,0,0,0-3.1,1.2A5.137,5.137,0,0,0,.54-4.656c0,3.048,1.752,5,4.476,5S9.5-1.62,9.5-4.656A5.175,5.175,0,0,0,8.16-8.4,4.205,4.205,0,0,0,5-9.6ZM5.04-1.08a2.591,2.591,0,0,1-1.86-.732,3.965,3.965,0,0,1-.972-2.832c0-2.172,1.092-3.54,2.82-3.54a2.583,2.583,0,0,1,1.848.732,3.876,3.876,0,0,1,.948,2.8C7.824-2.448,6.756-1.08,5.04-1.08ZM36.576-9.408a9.767,9.767,0,0,1,.1,1.644V-3.54a2.191,2.191,0,0,1-2.436,2.484,2.2,2.2,0,0,1-2.46-2.472V-7.764a9.41,9.41,0,0,1,.1-1.644H30.084a9.858,9.858,0,0,1,.1,1.644v4.236a3.865,3.865,0,0,0,.9,2.76A4.134,4.134,0,0,0,34.176.36c2.616,0,4.092-1.392,4.092-3.876v-4.26a9.7,9.7,0,0,1,.1-1.632ZM67.332.144c-.168-.324-.468-.972-.564-1.188C65.58-3.852,65.352-4.188,64.6-4.428a2.537,2.537,0,0,0,1.332-.7,2.467,2.467,0,0,0,.612-1.788c0-1.584-1.044-2.5-2.868-2.5h-2.88c-.66,0-1.032-.012-1.536-.036a10.677,10.677,0,0,1,.1,1.56v6.468a9.391,9.391,0,0,1-.1,1.56h1.788a9.364,9.364,0,0,1-.1-1.572V-3.876h1.788c.924,0,1.344.444,1.992,2.1a9.714,9.714,0,0,1,.624,1.92ZM60.948-5.244v-2.8h2.46c.984,0,1.476.444,1.476,1.308A1.424,1.424,0,0,1,64.5-5.676a1.617,1.617,0,0,1-1.14.432ZM116.7.144a9.771,9.771,0,0,1,.528-1.6l1.8-4.224a14.644,14.644,0,0,0,.552-1.752c-.012.18-.048.792-.1,1.836v3.984a11.156,11.156,0,0,1-.1,1.752h1.68a10.4,10.4,0,0,1-.1-1.752V-7.632a12.427,12.427,0,0,1,.1-1.776H118.86a6.65,6.65,0,0,1-.432,1.428L116-2.028,113.568-7.98a8.305,8.305,0,0,1-.444-1.428h-2.2a11.9,11.9,0,0,1,.1,1.776v6.024a11.254,11.254,0,0,1-.1,1.752h1.68a10.964,10.964,0,0,1-.1-1.752V-5.544c0-.264-.048-1.248-.1-1.884a13.354,13.354,0,0,0,.612,1.836l1.728,4.116a8.169,8.169,0,0,1,.528,1.62Zm25.272-9.552a8.966,8.966,0,0,1,.1,1.548V-1.4a9.055,9.055,0,0,1-.1,1.548H143.8a9.055,9.055,0,0,1-.1-1.548V-7.86a8.966,8.966,0,0,1,.1-1.548Zm22.4,6.756a4.1,4.1,0,0,0,.228,1A2.825,2.825,0,0,0,165.66-.288a4.825,4.825,0,0,0,2.52.624,3.977,3.977,0,0,0,2.868-.912,2.792,2.792,0,0,0,.756-2.04,2.368,2.368,0,0,0-1-2.064,5.283,5.283,0,0,0-1.956-.732,10.216,10.216,0,0,1-1.692-.432,1.141,1.141,0,0,1-.816-1.092c0-.78.708-1.308,1.752-1.308a1.9,1.9,0,0,1,1.5.576,1.55,1.55,0,0,1,.36.852l1.716-.2a3.235,3.235,0,0,0-.588-1.392A3.537,3.537,0,0,0,168.1-9.624c-2.064,0-3.408,1.08-3.408,2.748a2.362,2.362,0,0,0,.924,1.944,4.242,4.242,0,0,0,1.812.732,7.566,7.566,0,0,1,2.088.588,1.218,1.218,0,0,1,.6,1.1c0,.9-.72,1.44-1.92,1.44a2.13,2.13,0,0,1-1.752-.708,1.72,1.72,0,0,1-.336-1.056Zm27.78,0a4.1,4.1,0,0,0,.228,1A2.825,2.825,0,0,0,193.44-.288a4.825,4.825,0,0,0,2.52.624,3.977,3.977,0,0,0,2.868-.912,2.792,2.792,0,0,0,.756-2.04,2.368,2.368,0,0,0-1-2.064,5.283,5.283,0,0,0-1.956-.732,10.216,10.216,0,0,1-1.692-.432,1.141,1.141,0,0,1-.816-1.092c0-.78.708-1.308,1.752-1.308a1.9,1.9,0,0,1,1.5.576,1.55,1.55,0,0,1,.36.852l1.716-.2a3.235,3.235,0,0,0-.588-1.392,3.537,3.537,0,0,0-2.988-1.212c-2.064,0-3.408,1.08-3.408,2.748a2.362,2.362,0,0,0,.924,1.944A4.242,4.242,0,0,0,195.2-4.2a7.566,7.566,0,0,1,2.088.588,1.218,1.218,0,0,1,.6,1.1c0,.9-.72,1.44-1.92,1.44a2.13,2.13,0,0,1-1.752-.708,1.72,1.72,0,0,1-.336-1.056Zm28.092-6.756a8.966,8.966,0,0,1,.1,1.548V-1.4a9.055,9.055,0,0,1-.1,1.548h1.824a9.055,9.055,0,0,1-.1-1.548V-7.86a8.966,8.966,0,0,1,.1-1.548ZM247.116-9.6a4.159,4.159,0,0,0-3.1,1.2,5.137,5.137,0,0,0-1.368,3.744c0,3.048,1.752,5,4.476,5s4.488-1.968,4.488-5A5.175,5.175,0,0,0,250.272-8.4,4.205,4.205,0,0,0,247.116-9.6Zm.036,8.52a2.591,2.591,0,0,1-1.86-.732,3.965,3.965,0,0,1-.972-2.832c0-2.172,1.092-3.54,2.82-3.54a2.583,2.583,0,0,1,1.848.732,3.876,3.876,0,0,1,.948,2.8C249.936-2.448,248.868-1.08,247.152-1.08ZM280.368.144a9.055,9.055,0,0,1-.1-1.548V-7.752a10.493,10.493,0,0,1,.1-1.656h-1.752a10.489,10.489,0,0,1,.1,1.656V-3.72c0,.5.036,1.224.084,1.692-.264-.48-.648-1.1-.936-1.536l-3.036-4.572a6.582,6.582,0,0,1-.732-1.272H272.22a9.993,9.993,0,0,1,.1,1.548v6.192a12.983,12.983,0,0,1-.1,1.812h1.752a13.282,13.282,0,0,1-.1-1.8V-5.592c0-.276-.024-.816-.036-1.044-.036-.444-.036-.444-.048-.612.288.564.588,1.08.816,1.44l3.1,4.668a11.958,11.958,0,0,1,.768,1.284Z" transform="translate(180 416)"/>
          </g>
        </g>
        <g id="背景" transform="translate(343.495 -6.459)" opacity="0.1">
          <path id="路径_39847" data-name="路径 39847" d="M395.381,229.828l896.223,2.131,97.389,98.326V711.014l-921.585-2.13-72.028-85.75Z" transform="translate(90.634 56.382)" fill="none" stroke="#000" stroke-miterlimit="10" stroke-width="2"/>
          <path id="路径_39848" data-name="路径 39848" d="M484,250.647h769.917l62.883-66.313" transform="translate(155.55 21.688)" fill="none" stroke="#000" stroke-miterlimit="10" stroke-width="2"/>
          <path id="路径_39849" data-name="路径 39849" d="M1316.8,184.333H546.883L484,250.647" transform="translate(-59.926 594.795)" fill="none" stroke="#000" stroke-miterlimit="10" stroke-width="2"/>
          <circle id="椭圆_2016" data-name="椭圆 2016" cx="29.476" cy="29.476" r="29.476" transform="translate(1461.56 154)" fill="none" stroke="#000" stroke-miterlimit="10" stroke-width="2"/>
          <circle id="椭圆_2017" data-name="椭圆 2017" cx="18.42" cy="18.42" r="18.42" transform="translate(393.772 840.211)" fill="none" stroke="#000" stroke-miterlimit="10" stroke-width="2"/>
          <path id="路径_39850" data-name="路径 39850" d="M594.911,288.661l58.755-25.446h748.26" transform="translate(-31.036 -16.326)" fill="none" stroke="#000" stroke-width="2"/>
          <path id="路径_39851" data-name="路径 39851" d="M1401.926,263.214l-58.755,25.446H594.911" transform="translate(-69.377 515.914)" fill="none" stroke="#000" stroke-width="2"/>
          <path id="路径_39852" data-name="路径 39852" d="M444.242,293.133H387.292V671" transform="translate(79.749 -20.798)" fill="none" stroke="#000" stroke-width="2"/>
          <path id="路径_39853" data-name="路径 39853" d="M1688.293,462.333V786.349H1608.8" transform="translate(-182.597 -46.091)" fill="none" stroke="#707070" stroke-width="2"/>
          <path id="路径_39854" data-name="路径 39854" d="M428.642,768.6l67.719,70.977" transform="translate(44.819 -79.873)" fill="none" stroke="#000" stroke-width="2"/>
          <path id="路径_39855" data-name="路径 39855" d="M1636.882,316.811l50.249,47.226" transform="translate(-194.885 -6.37)" fill="none" stroke="#000" stroke-width="2"/>
        </g>
      </g>
    </g>
  </g>
</svg>
