<svg xmlns="http://www.w3.org/2000/svg" xmlns:xlink="http://www.w3.org/1999/xlink" width="1820" height="880" viewBox="0 0 1820 880">
  <defs>
    <clipPath id="clip-path">
      <rect id="矩形_2809" data-name="矩形 2809" width="1820" height="880" transform="translate(50 88)" fill="#fff"/>
    </clipPath>
  </defs>
  <g id="banner_jp" transform="translate(-50 -88)" clip-path="url(#clip-path)">
    <g id="组_22215" data-name="组 22215">
      <g id="组_22214" data-name="组 22214" transform="translate(-6274 1354)">
        <g id="组_22210" data-name="组 22210" transform="translate(6199 -1368)">
          <path id="路径_40412" data-name="路径 40412" d="M22.516-43a35.428,35.428,0,0,1,.208,4.42c0,12.376-2.86,20.956-9.516,28.652C9.932-6.188,7.176-4.056,1.872-1.248A15.556,15.556,0,0,1,5.928,4.108a43.859,43.859,0,0,0,8.06-5.98A36.2,36.2,0,0,0,22-11.856a37.209,37.209,0,0,0,4.056-10.5,41.111,41.111,0,0,0,6.916,14.2C36.66-3.276,39.832-.312,46.176,4.108a19.346,19.346,0,0,1,4.056-5.772,34.63,34.63,0,0,1-8.06-5.616,35.74,35.74,0,0,1-8.216-9.88c-3.744-6.656-5.1-12.168-5.1-21.008A39.239,39.239,0,0,1,29.224-43Zm77.272,6.656c0-2.6.052-3.9.208-5.772a46.646,46.646,0,0,1-5.356.208H84.656a45.625,45.625,0,0,1-5.3-.208c.1,1.716.156,3.12.156,4.836v7.956c0,2.132-.052,3.38-.156,4.732,1.3-.1,2.964-.156,4.784-.156H94.38V-3.016c0,1.092-.468,1.4-1.924,1.4A28.582,28.582,0,0,1,88.5-1.924,39.48,39.48,0,0,1,88.348-6.4V-16.952c0-1.976.052-3.432.156-4.68a41.821,41.821,0,0,1-4.836.208h-11.6a42.4,42.4,0,0,1-4.836-.208q.156,2.028.156,4.68V-6.344c0,1.456-.052,3.172-.156,4.524,1.456-.1,3.12-.156,4.784-.156H83.564c.728,0,1.924,0,2.912.052a18.426,18.426,0,0,1,1.352,5.356c1.976.1,2.86.156,3.536.156,3.328,0,4.836-.156,5.928-.624,1.872-.78,2.5-2.132,2.5-5.252ZM84.656-37.7H94.38v2.6H84.656Zm0,6.292H94.38v2.652H84.656ZM72.54-17.056H83.148v3.12H72.54Zm0,7.332H83.148v3.38H72.54ZM61.672-24.752h9.412c1.82,0,3.432.052,4.784.156-.1-1.144-.156-2.34-.156-4.732v-7.956c0-2.028.052-3.172.156-4.836a43.936,43.936,0,0,1-5.3.208h-9.2A47.229,47.229,0,0,1,56-42.12a57.651,57.651,0,0,1,.208,5.824V-2.34A46.487,46.487,0,0,1,55.9,4.108h6.084a45.1,45.1,0,0,1-.312-6.4Zm0-12.948h8.944v2.6H61.672Zm0,6.292h8.944v2.652H61.672ZM119.5-41.652a22.1,22.1,0,0,1,.832,3.38,132.5,132.5,0,0,0,3.484,14.092,32.1,32.1,0,0,0-7.072,4.472,12.212,12.212,0,0,0-4.628,9.308,9.842,9.842,0,0,0,4.524,8.684c3.328,1.976,7.852,2.86,15.08,2.86a109.891,109.891,0,0,0,12.168-.78A32.415,32.415,0,0,1,148.1,0l-.572-7.124c-3.9,1.352-10.3,2.132-16.8,2.132-8.372,0-11.908-1.612-11.908-5.408,0-3.744,3.8-7.072,11.388-9.88a127.054,127.054,0,0,1,17.16-4.992l-2.236-6.552a14.231,14.231,0,0,1-1.976.78c-10.088,3.328-10.088,3.328-13.468,4.576a87.333,87.333,0,0,1-3.432-16.276Zm73.892,39.1V.624h6.968a34.3,34.3,0,0,1-.26-5.356V-33.28a31.549,31.549,0,0,1,.156-4.316c-1.82.1-1.82.1-4.524.1H170.716a34.953,34.953,0,0,1-6.708-.364v6.76a50.886,50.886,0,0,1,6.656-.26H193.44V-8.684H169.78a33.431,33.431,0,0,1-6.5-.364V-2.34a58.127,58.127,0,0,1,6.4-.208Zm20.956-30.836A54.6,54.6,0,0,1,227.6-22.828l4.472-5.668A73.647,73.647,0,0,0,218.66-38.532Zm1.82,34.32A18.408,18.408,0,0,1,219.6.052c8.06-1.716,14.508-4.264,19.812-7.8,7.124-4.732,12.064-10.868,16.484-20.384a22.423,22.423,0,0,1-5.512-5.1,43.421,43.421,0,0,1-5.3,10.4,34.742,34.742,0,0,1-15.444,12.74A49.549,49.549,0,0,1,214.24-6.24Zm59.124-36.244a28.967,28.967,0,0,1,.26-4.836H268.58a28.127,28.127,0,0,1,.208,4.784l.052,24.128A39.181,39.181,0,0,0,269-6.448c.312,2.548,1.092,4.212,2.548,5.3,2.028,1.56,5.616,2.236,12.116,2.236,3.9,0,10.4-.364,14.56-.78,3.744-.364,4.108-.416,5.148-.416l-.312-6.916a30.723,30.723,0,0,1-5.928,1.248,98.065,98.065,0,0,1-12.064.832c-5.044,0-8.008-.416-8.892-1.352-.728-.728-.936-1.872-.936-4.94v-.676a.4.4,0,0,0,.052-.156v-6.708a84.812,84.812,0,0,0,23.244-7.7c3.016-1.456,3.016-1.456,3.64-1.716l-4.16-5.876c-3.952,3.432-14.04,7.488-22.724,9.256Zm28.808-9a5.7,5.7,0,0,0-5.72,5.72,5.771,5.771,0,0,0,5.72,5.72,5.7,5.7,0,0,0,5.72-5.72A5.7,5.7,0,0,0,304.1-44.3Zm0,2.756a2.93,2.93,0,0,1,2.964,2.964A3,3,0,0,1,304.1-35.62a3,3,0,0,1-2.964-2.964A3,3,0,0,1,304.1-41.548ZM346.008-4.576c.884-4.68,1.456-8.372,2.236-14.092.572-4.316.572-4.316,1.2-5.928l-2.86-2.5a11.6,11.6,0,0,1-3.848.468H329.576a29.727,29.727,0,0,1-4.784-.312v5.876a33.4,33.4,0,0,1,4.628-.208h12.9c-.52,4.732-1.612,12.064-2.5,16.692H324.48a23.485,23.485,0,0,1-4.784-.312V1.04A38.644,38.644,0,0,1,324.48.832h26.988a39.732,39.732,0,0,1,4.784.208V-4.888a23.184,23.184,0,0,1-4.784.312Zm21.684-11.752c2.08-.26,2.652-.26,8.476-.26H403.78c5.824,0,6.4,0,8.476.26v-7.228a51.067,51.067,0,0,1-8.424.364H376.116a51.067,51.067,0,0,1-8.424-.364Zm90.48-21.008a13.65,13.65,0,0,1-4.576.624c-12.688.1-12.688.1-13.52.208a25.9,25.9,0,0,0,1.248-2.5,27.4,27.4,0,0,1,1.56-2.912l-6.76-1.508a31.7,31.7,0,0,1-3.016,7.228,44.7,44.7,0,0,1-13.052,14.82,16.507,16.507,0,0,1,5.2,4.16A53.8,53.8,0,0,0,437.424-31.2l16.172-.156a49.682,49.682,0,0,1-5.824,12.272,67.685,67.685,0,0,0-10.452-6.968l-3.952,4.628a58.869,58.869,0,0,1,10.66,7.436A37.748,37.748,0,0,1,435.5-6.76a52.407,52.407,0,0,1-10.14,5.2A16.5,16.5,0,0,1,429.676,3.8c11.076-5.1,18.408-11.232,23.712-19.864a87.216,87.216,0,0,0,6.656-14.3c.832-2.392.936-2.6,1.612-3.484Zm13.52,21.008c2.08-.26,2.652-.26,8.476-.26H507.78c5.824,0,6.4,0,8.476.26v-7.228a51.066,51.066,0,0,1-8.424.364H480.116a51.067,51.067,0,0,1-8.424-.364Zm78.364-17a11.365,11.365,0,0,1,5.252,1.56,12.882,12.882,0,0,1,6.4,11.544,14.559,14.559,0,0,1-7.228,13c-2.444,1.4-5.564,2.236-10.348,2.86A16.588,16.588,0,0,1,547.3,1.716a34,34,0,0,0,8.164-2.184c7.956-3.224,12.636-10.4,12.636-19.4,0-11.7-8.112-19.292-20.592-19.292-7.384,0-13.52,2.5-17.888,7.28a22.337,22.337,0,0,0-5.72,15.132c0,8.372,4.264,14.4,10.192,14.4,4.264,0,7.592-3.068,10.556-9.776A75.229,75.229,0,0,0,550.056-33.332Zm-6.344.052A68.53,68.53,0,0,1,539.4-15.7c-1.872,4.472-3.64,6.656-5.356,6.656-2.288,0-4.108-3.38-4.108-7.644A17.41,17.41,0,0,1,537-30.732,13.237,13.237,0,0,1,543.712-33.28Zm48.36-.832V-37.6a33.284,33.284,0,0,1,.312-5.356h-6.4a34.935,34.935,0,0,1,.312,5.408v3.432h-3.848a45.017,45.017,0,0,1-5.72-.312v6.188a53.6,53.6,0,0,1,5.72-.26H586.3v10.92h-5.1a45.778,45.778,0,0,1-6.656-.364V-11.6a46.732,46.732,0,0,1,6.656-.364h33.7a47.532,47.532,0,0,1,6.708.364V-17.94a45.95,45.95,0,0,1-6.76.364h-5.3V-28.5h4.264a56.933,56.933,0,0,1,5.876.26v-6.188a45.38,45.38,0,0,1-5.876.312h-4.264V-37.44a37.627,37.627,0,0,1,.312-5.46h-6.4a28.07,28.07,0,0,1,.312,5.408v3.38Zm0,5.616h11.7v10.92h-11.7ZM589.16-10.92A22.193,22.193,0,0,1,583.128-5.1,36.418,36.418,0,0,1,574.6-.676a24.27,24.27,0,0,1,3.952,4.836,40.506,40.506,0,0,0,7.592-4.42A37.859,37.859,0,0,0,594.1-7.852ZM620.776-.208a123.974,123.974,0,0,0-14.456-10.92l-4.16,3.64C609.6-2.34,611.988-.416,616.46,4.16Zm18.408-33.176c.468-1.144,1.144-3.172,1.4-3.9a12.456,12.456,0,0,1,.52-1.716,8.222,8.222,0,0,0,.468-1.352l-5.928-1.456a28.224,28.224,0,0,1-1.144,4.836,37.713,37.713,0,0,1-8.788,15.184,15.776,15.776,0,0,1,4.264,4.42,45.944,45.944,0,0,0,7.072-10.92H647.66v9.568H639.6a47.717,47.717,0,0,1-6.24-.312v5.72a54.543,54.543,0,0,1,6.292-.312h8.008V-2.6H634.3a60.968,60.968,0,0,1-7.228-.364V2.964a66.871,66.871,0,0,1,7.384-.364h31.824a60.622,60.622,0,0,1,7.072.364V-2.964a57,57,0,0,1-7.228.364H653.64V-13.624h9a57.8,57.8,0,0,1,6.4.312v-5.72a53.973,53.973,0,0,1-6.4.312h-9v-9.568h10.972c2.5,0,4.628.1,6.864.312V-33.7c-2.132.208-4.368.312-7.02.312H653.64v-4a48.483,48.483,0,0,1,.312-6.188H647.3a42.4,42.4,0,0,1,.364,6.24v3.952Zm66.872.052a11.365,11.365,0,0,1,5.252,1.56,12.882,12.882,0,0,1,6.4,11.544,14.559,14.559,0,0,1-7.228,13c-2.444,1.4-5.564,2.236-10.348,2.86A16.588,16.588,0,0,1,703.3,1.716a34,34,0,0,0,8.164-2.184c7.956-3.224,12.636-10.4,12.636-19.4,0-11.7-8.112-19.292-20.592-19.292-7.384,0-13.52,2.5-17.888,7.28a22.337,22.337,0,0,0-5.72,15.132c0,8.372,4.264,14.4,10.192,14.4,4.264,0,7.592-3.068,10.556-9.776A75.229,75.229,0,0,0,706.056-33.332Zm-6.344.052A68.53,68.53,0,0,1,695.4-15.7c-1.872,4.472-3.64,6.656-5.356,6.656-2.288,0-4.108-3.38-4.108-7.644A17.41,17.41,0,0,1,693-30.732,13.237,13.237,0,0,1,699.712-33.28ZM31.668,61.988H27.092a37.829,37.829,0,0,1-5.408-.312v5.512a44.037,44.037,0,0,1,5.564-.26h4.42v4.94H26.312a40,40,0,0,1-5.772-.312v5.512c1.612-.156,3.536-.26,5.72-.26H38.584v4.42H26.832a38.59,38.59,0,0,1-5.668-.26v5.668a46.571,46.571,0,0,1,5.564-.312H38.584V97.4c0,1.04-.364,1.352-1.56,1.352a47.594,47.594,0,0,1-6.188-.364,13.4,13.4,0,0,1,1.248,5.46c3.432.052,3.432.052,4,.052a14.7,14.7,0,0,0,5.772-.832c1.56-.728,2.08-1.976,2.08-4.992V86.324a28.048,28.048,0,0,1,5.044.312V80.968a30.268,30.268,0,0,1-5.044.26v-4.42h.884a33.819,33.819,0,0,1,5.1.26V71.556a38.379,38.379,0,0,1-5.668.312H37.076v-4.94H42.8a37.723,37.723,0,0,1,5.356.26V61.676a38.337,38.337,0,0,1-5.408.312H37.076v-1.4a27.646,27.646,0,0,1,.26-3.9h-5.98a23.241,23.241,0,0,1,.312,3.9ZM4.16,94.748a47.371,47.371,0,0,1-.312,6.188h5.46V96.568H14.04v2.6h5.3c-.1-1.3-.156-2.444-.156-5.2V64.224a39.016,39.016,0,0,1,.156-5.148c-1.248.1-2.184.156-4.524.156H8.528a45.048,45.048,0,0,1-4.576-.156,48.749,48.749,0,0,1,.208,5.252Zm5.2-30.576h4.68V75.04H9.36Zm0,15.652h4.68v11.7H9.36ZM33.852,94.9a53.536,53.536,0,0,0-6.812-7.956l-4.16,2.808a33.612,33.612,0,0,1,6.708,8.528ZM79.4,76.132a56.388,56.388,0,0,0,4.368,15.652c3.484,7.28,8.476,12.272,12.324,12.272,3.692,0,5.512-3.276,6.708-12.22a21.493,21.493,0,0,1-4.94-3.38c-.52,6.084-1.2,8.736-2.184,8.736-1.248,0-4.368-3.692-6.344-7.592a43.618,43.618,0,0,1-4.108-13.936l11.024-.884c1.768-.156,2.912-.208,3.848-.208.416,0,.78,0,1.508.052l-.156-5.876a40.569,40.569,0,0,1-5.668.728l-11.128.884c-.312-3.172-.52-6.656-.52-9.412a19.574,19.574,0,0,1,.26-3.9l-6.292.1c.1.884.26,2.808.26,3.848.1,5.1.156,5.876.468,9.88l-4.732.364c-1.352.1-2.86.156-3.952.156H68.536l.156,5.824a38.542,38.542,0,0,1,5.2-.624ZM60.84,97.92a41.477,41.477,0,0,1-.364,6.4h6.4a44.613,44.613,0,0,1-.364-6.292V69.216A86.149,86.149,0,0,0,71.344,58.14l-5.928-2.028a31,31,0,0,1-2.028,6.812A45.164,45.164,0,0,1,52.936,78.368a20.866,20.866,0,0,1,2.756,5.98,36.151,36.151,0,0,0,5.3-6.5c-.1,1.976-.156,3.328-.156,5.98ZM86.632,60.428a49.822,49.822,0,0,1,3.9,4,30.014,30.014,0,0,1,3.8,4.576l4.316-3.952C94.38,60.324,93.6,59.492,90.688,57ZM107.9,92.2a55.968,55.968,0,0,1,11.284,11.856l4.836-4.524a60.78,60.78,0,0,0-11.7-11.44Zm57.98-7.124H163.7a33.065,33.065,0,0,1-5.044-.26v5.72a23.063,23.063,0,0,1,4.576-.312h37.388a25.255,25.255,0,0,1,4.888.312v-5.72a30.714,30.714,0,0,1-4.992.26h-1.976V78.108h.312a27.325,27.325,0,0,1,5.1.312V72.6a27,27,0,0,1-5.1.312h-.312V65.992c1.872.052,2.912.1,4.472.26v-5.72a50.785,50.785,0,0,1-6.6.312H171.86c.728-1.144,1.2-1.82,1.664-2.652a16.509,16.509,0,0,1,1.092-1.872l-6.084-1.144a12.536,12.536,0,0,1-1.04,2.548c-1.924,3.588-4.784,6.5-9.672,10.036a23.241,23.241,0,0,1,3.8,3.952,46.177,46.177,0,0,0,4.264-3.64v4.836h-.78A26.673,26.673,0,0,1,160,72.6V78.42a27.656,27.656,0,0,1,5.1-.312h.78Zm5.148,0V78.108h4.212v6.968Zm0-12.168V65.992h4.212v6.916Zm8.944-6.916h4.316v6.916h-4.316Zm0,12.116h4.316v6.968h-4.316Zm9-12.116h4.42v6.916h-4.42Zm0,12.116h4.42v6.968h-4.42ZM205.3,100.676a55.028,55.028,0,0,0-6.708-9.984l-4.472,2.236a54.289,54.289,0,0,1,6.24,10.868Zm-14.144,1.82a61.59,61.59,0,0,0-3.068-10.816l-4.992,1.144a60.169,60.169,0,0,1,2.444,10.92Zm-12.012.884a76.4,76.4,0,0,0-1.4-11.388l-5.044.572a81.411,81.411,0,0,1,.78,9.724c0,.52,0,.884-.052,1.612Zm-16.12.728a33.589,33.589,0,0,0,6.656-10.92L164.944,90.8a24.3,24.3,0,0,1-6.5,9.724Zm90.792-22.62a10.741,10.741,0,0,1,1.456.1,51.779,51.779,0,0,1-.208-5.668V63.808c0-3.328.052-4.524.156-5.772a28.213,28.213,0,0,1-4.836.26H235.508a26.63,26.63,0,0,1-4.992-.26c.156,1.976.208,3.224.208,5.564V95.632c-.26,2.184-.624,2.808-2.184,3.64l1.716,4.992c5.46-1.3,8.684-2.236,14.248-4.056l.208-5.356A61.762,61.762,0,0,1,236.08,97.5V81.436h3.744c1.352,5.668,2.34,8.216,4.732,12.064,2.7,4.316,5.928,7.384,11.284,10.764a19.708,19.708,0,0,1,3.276-5.3,24.17,24.17,0,0,1-9.464-7.436c2.184-1.508,5.512-4.108,6.916-5.356a8.155,8.155,0,0,1,1.456-1.092Zm-2.756-.052c.728,0,1.508,0,2.548.052a37.638,37.638,0,0,1-6.5,5.668,26.107,26.107,0,0,1-1.872-5.72ZM236.08,63.288h13.676V67.5H236.08Zm0,8.788h13.676V76.7H236.08ZM212.264,98.232a46.584,46.584,0,0,1-.312,5.98h6.032c-.156-1.872-.26-3.8-.26-5.98V62.872h6.032a61.619,61.619,0,0,1-4.836,11.7,19.69,19.69,0,0,1,3.64,5.3,14.172,14.172,0,0,1,1.144,5.356c0,1.716-.676,2.288-2.652,2.288a12.223,12.223,0,0,1-2.34-.208,12.9,12.9,0,0,1,1.092,5.46,17.649,17.649,0,0,0,5.72-.572c2.548-.832,3.692-2.756,3.692-6.188a18.163,18.163,0,0,0-.832-5.252,20.748,20.748,0,0,0-3.692-6.656,83.961,83.961,0,0,0,4-8.892c1.2-3.016,1.248-3.224,1.612-3.952l-2.964-3.64a14.267,14.267,0,0,1-3.8.26H215.9a32.687,32.687,0,0,1-3.8-.156c.1,2.392.156,3.12.156,4.784Zm77.792-31.564a11.365,11.365,0,0,1,5.252,1.56,12.883,12.883,0,0,1,6.4,11.544,14.559,14.559,0,0,1-7.228,13c-2.444,1.4-5.564,2.236-10.348,2.86a16.588,16.588,0,0,1,3.172,6.084,34,34,0,0,0,8.164-2.184c7.956-3.224,12.636-10.4,12.636-19.4,0-11.7-8.112-19.292-20.592-19.292-7.384,0-13.52,2.5-17.888,7.28a22.337,22.337,0,0,0-5.72,15.132c0,8.372,4.264,14.4,10.192,14.4,4.264,0,7.592-3.068,10.556-9.776A75.227,75.227,0,0,0,290.056,66.668Zm-6.344.052A68.532,68.532,0,0,1,279.4,84.3c-1.872,4.472-3.64,6.656-5.356,6.656-2.288,0-4.108-3.38-4.108-7.644A17.41,17.41,0,0,1,277,69.268,13.237,13.237,0,0,1,283.712,66.72ZM355.94,63.7a54.341,54.341,0,0,1,5.824.312V58.14a59.16,59.16,0,0,1-6.4.312h-34.06a55.183,55.183,0,0,1-6.292-.312v5.876a62.74,62.74,0,0,1,6.4-.312h28.7V96.932c0,1.352-.416,1.612-2.392,1.612a67.879,67.879,0,0,1-7.748-.572,20.038,20.038,0,0,1,1.456,5.772c2.548.1,4,.156,5.72.156,7.436,0,8.788-.884,8.788-5.772Zm-12.948,9.828a25.4,25.4,0,0,1,.26-4.42,45.4,45.4,0,0,1-4.992.208h-13.1a41.25,41.25,0,0,1-4.836-.208,31.848,31.848,0,0,1,.26,4.784v16.38a36.576,36.576,0,0,1-.312,4.68h5.98V90.64h12.22c.208,0,.676,0,1.352.052h1.352c.936.052,1.144.052,2.028.156a35.113,35.113,0,0,1-.208-4.212Zm-16.8.832h11.232V85.6H326.2ZM374.5,55.9a30.241,30.241,0,0,1-4.316,8.268,5.183,5.183,0,0,1-3.172,1.872l1.2,5.252c5.564-.468,11.908-1.092,17.368-1.768q.78,1.482,1.4,2.808l4.68-2.756a71.393,71.393,0,0,0-7.072-10.66l-4.264,2.028c1.04,1.456,1.248,1.716,2.132,3.12a6.189,6.189,0,0,0,.52.884c-2.6.26-2.652.26-5.824.52-.676.052-.676.052-1.716.1a31.072,31.072,0,0,0,1.872-2.964c1.3-2.34,1.3-2.34,1.664-2.912.572-1.04.572-1.04.728-1.3a7.1,7.1,0,0,1,.78-1.4ZM397.54,68.436a69.4,69.4,0,0,0,12.012-4.576c2.548-1.248,2.548-1.248,3.64-1.716l-3.848-4.784A26.114,26.114,0,0,1,403.312,61a33.13,33.13,0,0,1-5.772,2.184V60.792a22.164,22.164,0,0,1,.26-4.212h-5.98a26.058,26.058,0,0,1,.26,4.472V74c0,1.872.572,2.912,2.028,3.432,1.352.572,2.86.728,7.124.728,6.916,0,8.788-.312,10.14-1.612,1.2-1.2,1.664-2.964,2.08-7.852a19.385,19.385,0,0,1-5.2-1.612c-.156,3.9-.312,4.94-.884,5.46-.676.572-1.82.676-6.136.676-3.224,0-3.692-.208-3.692-1.508Zm0,23.192c3.172-.884,5.616-1.612,7.332-2.288,1.56-.52,7.124-3.016,8.632-3.848l-3.952-4.576a34.761,34.761,0,0,1-12.012,5.616V84.816a21.416,21.416,0,0,1,.26-4.316h-5.98a25.518,25.518,0,0,1,.26,4.628V98.8c0,1.716.416,2.652,1.612,3.38,1.352.832,2.964,1.04,8.112,1.04,6.552,0,8.372-.364,9.776-1.924,1.352-1.508,1.924-3.484,2.288-8.372a21.2,21.2,0,0,1-5.3-1.768c-.052,3.016-.364,5.3-.832,5.98-.468.78-1.716,1.04-5.2,1.04a15.363,15.363,0,0,1-3.692-.26c-.988-.208-1.3-.52-1.3-1.4ZM368.992,98.6a43.656,43.656,0,0,1-.26,5.668h5.928a45.4,45.4,0,0,1-.26-5.772V93.344h8.736V97.66c-.1.78-.312.936-1.352.936a18.472,18.472,0,0,1-3.536-.364,21.177,21.177,0,0,1,1.144,5.3c.936.052,1.716.052,2.184.052,2.756,0,4.368-.312,5.46-.988,1.04-.624,1.456-1.82,1.456-4.056v-20.7c0-2.548.052-3.432.156-4.888a37.855,37.855,0,0,1-4.68.208h-11.44a36.905,36.905,0,0,1-3.744-.156,45.686,45.686,0,0,1,.208,4.784Zm5.356-20.7h8.788v3.224h-8.788Zm0,7.7h8.788V88.82h-8.788Zm62.088.936a43.1,43.1,0,0,1,5.772-.312h4.68V97.244H438.62a47.029,47.029,0,0,1-6.136-.312v5.876a42.3,42.3,0,0,1,6.136-.364h20.9a42.019,42.019,0,0,1,6.084.364V96.932a46.691,46.691,0,0,1-6.084.312h-7.072V86.22H457.6a38.866,38.866,0,0,1,5.668.312V80.916a39.1,39.1,0,0,1-5.616.26h-5.2v-9.1h6.136a47.741,47.741,0,0,1,5.668.312V66.616a36.813,36.813,0,0,1-5.72.312h-6.084v-5.2a34.526,34.526,0,0,1,.364-5.512h-6.292a34.964,34.964,0,0,1,.364,5.512v5.2h-4.42c.156-.78.624-3.536.78-4.472a13.142,13.142,0,0,1,.364-1.872l-5.564-1.04a43.88,43.88,0,0,1-2.236,12.012,42.622,42.622,0,0,0-2.392-6.6l-3.484,1.664a29.722,29.722,0,0,1,2.392,7.748l3.016-1.456a23.24,23.24,0,0,1-2.756,5.2,30.179,30.179,0,0,1,4.68,2.912c-.26-.052-.416-.052-.832-.1Zm10.452-14.456v9.1h-5.46c-1.664,0-2.808-.052-3.952-.156a40.1,40.1,0,0,0,3.744-8.944Zm-25.428,9.36a65.08,65.08,0,0,0,1.924-14.56l-4.212-.52a46.669,46.669,0,0,1-1.872,13.52Zm8.684,22.88a50.469,50.469,0,0,1-.312-6.136V61.572a42.133,42.133,0,0,1,.312-5.512H423.9a34.526,34.526,0,0,1,.364,5.512V97.764a49.65,49.65,0,0,1-.364,6.552Zm51.584-3.068c-.052-.676-.052-1.092-.052-1.4,0-3.692,1.768-9.724,4.628-15.756l-4.16-1.872a53.03,53.03,0,0,0-2.7,6.864c.052-1.3.1-1.716.1-2.86a86.824,86.824,0,0,1,.78-11.492c.832-6.656,2.028-12.48,3.276-15.548l-6.864-.728a34.023,34.023,0,0,1-.78,4.836,99.829,99.829,0,0,0-2.132,20.332,90.7,90.7,0,0,0,1.352,15.548c.156,1.2.208,1.508.26,2.444ZM488.9,70.1a61.729,61.729,0,0,0,9.36.572,93.143,93.143,0,0,0,11.128-.624c2.5-.312,3.276-.416,3.692-.468l-.312-6.292a57.342,57.342,0,0,1-14.144,1.4c-4.524,0-7.28-.208-9.62-.832Zm3.588,8.58c-3.224,3.848-4.784,7.332-4.784,10.712a8.711,8.711,0,0,0,1.56,5.1c2.288,3.068,6.448,4.524,12.9,4.524a64.125,64.125,0,0,0,10.764-.988,17.382,17.382,0,0,1,2.132-.312l-.52-6.6a36.543,36.543,0,0,1-12.376,1.976c-5.408,0-8.268-1.56-8.268-4.524,0-2.236,1.092-4.472,3.692-7.488Zm72.852-10.556a10.287,10.287,0,0,1-3.172.26H548.756a8.946,8.946,0,0,0,2.808-1.508c1.82-1.508,2.5-2.86,2.912-6.032h3.848v3.432c0,1.248.1,1.716.572,2.132a6.063,6.063,0,0,0,3.432.884h6.136l1.092-3.952c-1.4.052-1.56.052-3.276.1-1.04.052-1.716.1-1.976.1h-.156c-.624,0-.988-.156-1.144-.416-.1-.208-.1-.208-.1-1.56V59.856a19.974,19.974,0,0,1,.156-3.172,24.489,24.489,0,0,1-3.8.156h-5.512a20.133,20.133,0,0,1-3.64-.156,3.728,3.728,0,0,1,.1,1.144c0,4.108-1.092,5.772-4.524,6.864a9.675,9.675,0,0,1,2.964,3.64,8.971,8.971,0,0,1-1.872-.156v4.108a15.847,15.847,0,0,1,1.664-.1c2.548,3.432,2.548,3.432,4.628,5.252a33.5,33.5,0,0,1-6.24,1.4,10.46,10.46,0,0,1,2.184,4.056,52.057,52.057,0,0,0,8.112-2.548,44.683,44.683,0,0,0,11.336,4.264,14.114,14.114,0,0,1,2.184-4.68,36.511,36.511,0,0,1-9-2.236,30.447,30.447,0,0,0,5.3-5.356c.468-.572.572-.676.988-1.144Zm-3.8,4a12.912,12.912,0,0,1-4.056,3.328,21.634,21.634,0,0,1-3.588-3.328ZM527.852,58.5a24.265,24.265,0,0,1-4.94-.26V62.3a47.306,47.306,0,0,1,4.94-.26h4.784V63.5H528.58a22.716,22.716,0,0,1-3.952-.208,29.412,29.412,0,0,1,.156,3.536v4.524a29.631,29.631,0,0,1-.156,3.64c.78-.1,2.912-.156,4-.156h4v1.456h-5.1a23.155,23.155,0,0,1-4.888-.26v4.108a47.632,47.632,0,0,1,4.836-.26h5.148a15.832,15.832,0,0,1-.208,2.6h5.044a15.972,15.972,0,0,1-.156-2.6h4.42c1.716,0,3.8.1,4.94.208V76.028a24.938,24.938,0,0,1-4.94.26h-4.42V74.832h4.056c1.3,0,3.276.052,4.056.1a27.984,27.984,0,0,1-.1-3.38V66.668a18.071,18.071,0,0,1,.156-3.328,33.532,33.532,0,0,1-4.108.156h-4.056V62.04h4.472a39.491,39.491,0,0,1,4.992.208v-4a26.985,26.985,0,0,1-4.992.26h-4.472a9.387,9.387,0,0,1,.26-2.34h-5.2a14.593,14.593,0,0,1,.26,2.34Zm4.94,9.256H529.2V66.3h3.588Zm4.42,0V66.3h3.744V67.76Zm-4.42,4.264H529.2V70.412h3.588Zm4.42,0V70.412h3.744v1.612Zm-11.544,23.5c3.64-.26,3.744-.26,6.292-.312,8.164-.156,8.164-.156,11.8-.26v3.588c0,.572-.988.988-2.288.988a24.552,24.552,0,0,1-3.692-.364,13.536,13.536,0,0,1,1.456,4.94c1.924.1,2.912.156,3.016.156a16.693,16.693,0,0,0,4.888-.728,4.034,4.034,0,0,0,2.392-4V94.7c3.484-.1,10.712-.416,13.832-.624a24.374,24.374,0,0,1,2.236,2.444l4.056-2.808a35.468,35.468,0,0,0-7.332-6.6,16.1,16.1,0,0,1-1.352-.988l-3.692,2.392c1.2.832,1.508,1.092,2.652,1.976-2.028.208-8.06.52-17.784.884,8.84-2.86,10.5-3.432,15.184-5.46l-4-2.964a38.992,38.992,0,0,1-5.148,2.7c-3.952.1-7.956.208-9.256.208a40.993,40.993,0,0,0,7.54-2.6l-3.744-2.86a43.006,43.006,0,0,1-14.248,4.992l.78,3.536c3.38-.156,3.38-.156,5.824-.26,2.184-.052,4.212-.1,6.032-.208a72.013,72.013,0,0,1-7.332,2.028,68.7,68.7,0,0,1-9,1.144Zm9-.1c-.416.208-.988.572-1.872,1.092a19.369,19.369,0,0,1-3.172,1.508,49.55,49.55,0,0,1-6.864,1.924A13.614,13.614,0,0,1,525.3,102.6c.624.884.624.884.936,1.352,6.24-2.028,7.176-2.444,12.688-5.772Zm17.94,3.224a113.529,113.529,0,0,1,13.208,5.252l3.068-4.212a93.591,93.591,0,0,0-12.688-4.368ZM602.68,56.684a23.838,23.838,0,0,1-3.8,4.316,123,123,0,0,1-12.012,10.192c-3.848,2.912-3.9,3.016-4.576,3.692a6.2,6.2,0,0,0-1.716,4.264c0,2.392.936,3.744,4.368,6.448A167.666,167.666,0,0,1,598.364,96.62a47.284,47.284,0,0,1,6.76,7.176l5.356-5.46a12.97,12.97,0,0,1-1.508-1.3,166.893,166.893,0,0,0-16.38-13.52c-4.576-3.484-4.68-3.536-4.68-4.316,0-.572.364-1.04,1.976-2.236,6.084-4.576,9.724-7.54,12.376-9.984,4.524-4.16,5.512-5.044,6.4-5.72Zm-.468,12.688a31.721,31.721,0,0,1,4.836,6.916l3.9-2.236a26.626,26.626,0,0,0-4.888-6.812Zm14.248,1.4a27.3,27.3,0,0,0-4.784-6.5L607.932,66.3a35.914,35.914,0,0,1,4.732,6.708Z" transform="translate(225 502)"/>
          <path id="路径_40413" data-name="路径 40413" d="M5-9.6a4.159,4.159,0,0,0-3.1,1.2A5.137,5.137,0,0,0,.54-4.656c0,3.048,1.752,5,4.476,5S9.5-1.62,9.5-4.656A5.175,5.175,0,0,0,8.16-8.4,4.205,4.205,0,0,0,5-9.6ZM5.04-1.08a2.591,2.591,0,0,1-1.86-.732,3.965,3.965,0,0,1-.972-2.832c0-2.172,1.092-3.54,2.82-3.54a2.583,2.583,0,0,1,1.848.732,3.876,3.876,0,0,1,.948,2.8C7.824-2.448,6.756-1.08,5.04-1.08ZM36.576-9.408a9.767,9.767,0,0,1,.1,1.644V-3.54a2.191,2.191,0,0,1-2.436,2.484,2.2,2.2,0,0,1-2.46-2.472V-7.764a9.41,9.41,0,0,1,.1-1.644H30.084a9.858,9.858,0,0,1,.1,1.644v4.236a3.865,3.865,0,0,0,.9,2.76A4.134,4.134,0,0,0,34.176.36c2.616,0,4.092-1.392,4.092-3.876v-4.26a9.7,9.7,0,0,1,.1-1.632ZM67.332.144c-.168-.324-.468-.972-.564-1.188C65.58-3.852,65.352-4.188,64.6-4.428a2.537,2.537,0,0,0,1.332-.7,2.467,2.467,0,0,0,.612-1.788c0-1.584-1.044-2.5-2.868-2.5h-2.88c-.66,0-1.032-.012-1.536-.036a10.677,10.677,0,0,1,.1,1.56v6.468a9.391,9.391,0,0,1-.1,1.56h1.788a9.364,9.364,0,0,1-.1-1.572V-3.876h1.788c.924,0,1.344.444,1.992,2.1a9.714,9.714,0,0,1,.624,1.92ZM60.948-5.244v-2.8h2.46c.984,0,1.476.444,1.476,1.308A1.424,1.424,0,0,1,64.5-5.676a1.617,1.617,0,0,1-1.14.432ZM116.7.144a9.771,9.771,0,0,1,.528-1.6l1.8-4.224a14.644,14.644,0,0,0,.552-1.752c-.012.18-.048.792-.1,1.836v3.984a11.156,11.156,0,0,1-.1,1.752h1.68a10.4,10.4,0,0,1-.1-1.752V-7.632a12.427,12.427,0,0,1,.1-1.776H118.86a6.65,6.65,0,0,1-.432,1.428L116-2.028,113.568-7.98a8.305,8.305,0,0,1-.444-1.428h-2.2a11.9,11.9,0,0,1,.1,1.776v6.024a11.254,11.254,0,0,1-.1,1.752h1.68a10.964,10.964,0,0,1-.1-1.752V-5.544c0-.264-.048-1.248-.1-1.884a13.354,13.354,0,0,0,.612,1.836l1.728,4.116a8.169,8.169,0,0,1,.528,1.62Zm25.272-9.552a8.966,8.966,0,0,1,.1,1.548V-1.4a9.055,9.055,0,0,1-.1,1.548H143.8a9.055,9.055,0,0,1-.1-1.548V-7.86a8.966,8.966,0,0,1,.1-1.548Zm22.4,6.756a4.1,4.1,0,0,0,.228,1A2.825,2.825,0,0,0,165.66-.288a4.825,4.825,0,0,0,2.52.624,3.977,3.977,0,0,0,2.868-.912,2.792,2.792,0,0,0,.756-2.04,2.368,2.368,0,0,0-1-2.064,5.283,5.283,0,0,0-1.956-.732,10.216,10.216,0,0,1-1.692-.432,1.141,1.141,0,0,1-.816-1.092c0-.78.708-1.308,1.752-1.308a1.9,1.9,0,0,1,1.5.576,1.55,1.55,0,0,1,.36.852l1.716-.2a3.235,3.235,0,0,0-.588-1.392A3.537,3.537,0,0,0,168.1-9.624c-2.064,0-3.408,1.08-3.408,2.748a2.362,2.362,0,0,0,.924,1.944,4.242,4.242,0,0,0,1.812.732,7.566,7.566,0,0,1,2.088.588,1.218,1.218,0,0,1,.6,1.1c0,.9-.72,1.44-1.92,1.44a2.13,2.13,0,0,1-1.752-.708,1.72,1.72,0,0,1-.336-1.056Zm27.78,0a4.1,4.1,0,0,0,.228,1A2.825,2.825,0,0,0,193.44-.288a4.825,4.825,0,0,0,2.52.624,3.977,3.977,0,0,0,2.868-.912,2.792,2.792,0,0,0,.756-2.04,2.368,2.368,0,0,0-1-2.064,5.283,5.283,0,0,0-1.956-.732,10.216,10.216,0,0,1-1.692-.432,1.141,1.141,0,0,1-.816-1.092c0-.78.708-1.308,1.752-1.308a1.9,1.9,0,0,1,1.5.576,1.55,1.55,0,0,1,.36.852l1.716-.2a3.235,3.235,0,0,0-.588-1.392,3.537,3.537,0,0,0-2.988-1.212c-2.064,0-3.408,1.08-3.408,2.748a2.362,2.362,0,0,0,.924,1.944A4.242,4.242,0,0,0,195.2-4.2a7.566,7.566,0,0,1,2.088.588,1.218,1.218,0,0,1,.6,1.1c0,.9-.72,1.44-1.92,1.44a2.13,2.13,0,0,1-1.752-.708,1.72,1.72,0,0,1-.336-1.056Zm28.092-6.756a8.966,8.966,0,0,1,.1,1.548V-1.4a9.055,9.055,0,0,1-.1,1.548h1.824a9.055,9.055,0,0,1-.1-1.548V-7.86a8.966,8.966,0,0,1,.1-1.548ZM247.116-9.6a4.159,4.159,0,0,0-3.1,1.2,5.137,5.137,0,0,0-1.368,3.744c0,3.048,1.752,5,4.476,5s4.488-1.968,4.488-5A5.175,5.175,0,0,0,250.272-8.4,4.205,4.205,0,0,0,247.116-9.6Zm.036,8.52a2.591,2.591,0,0,1-1.86-.732,3.965,3.965,0,0,1-.972-2.832c0-2.172,1.092-3.54,2.82-3.54a2.583,2.583,0,0,1,1.848.732,3.876,3.876,0,0,1,.948,2.8C249.936-2.448,248.868-1.08,247.152-1.08ZM280.368.144a9.055,9.055,0,0,1-.1-1.548V-7.752a10.493,10.493,0,0,1,.1-1.656h-1.752a10.489,10.489,0,0,1,.1,1.656V-3.72c0,.5.036,1.224.084,1.692-.264-.48-.648-1.1-.936-1.536l-3.036-4.572a6.582,6.582,0,0,1-.732-1.272H272.22a9.993,9.993,0,0,1,.1,1.548v6.192a12.983,12.983,0,0,1-.1,1.812h1.752a13.282,13.282,0,0,1-.1-1.8V-5.592c0-.276-.024-.816-.036-1.044-.036-.444-.036-.444-.048-.612.288.564.588,1.08.816,1.44l3.1,4.668a11.958,11.958,0,0,1,.768,1.284Z" transform="translate(225 396)"/>
        </g>
      </g>
      <g id="背景" transform="translate(283.495 -6.459)" opacity="0.1">
        <path id="路径_40393" data-name="路径 40393" d="M395.381,229.828l896.223,2.131,97.389,98.326V711.014l-921.585-2.13-72.028-85.75Z" transform="translate(90.634 56.382)" fill="none" stroke="#000" stroke-miterlimit="10" stroke-width="2"/>
        <path id="路径_40394" data-name="路径 40394" d="M484,250.647h769.917l62.883-66.313" transform="translate(155.55 21.688)" fill="none" stroke="#000" stroke-miterlimit="10" stroke-width="2"/>
        <path id="路径_40395" data-name="路径 40395" d="M1316.8,184.333H546.883L484,250.647" transform="translate(-59.926 594.795)" fill="none" stroke="#000" stroke-miterlimit="10" stroke-width="2"/>
        <circle id="椭圆_2052" data-name="椭圆 2052" cx="29.476" cy="29.476" r="29.476" transform="translate(1461.56 154)" fill="none" stroke="#000" stroke-miterlimit="10" stroke-width="2"/>
        <circle id="椭圆_2053" data-name="椭圆 2053" cx="18.42" cy="18.42" r="18.42" transform="translate(393.772 840.211)" fill="none" stroke="#000" stroke-miterlimit="10" stroke-width="2"/>
        <path id="路径_40396" data-name="路径 40396" d="M594.911,288.661l58.755-25.446h748.26" transform="translate(-31.036 -16.326)" fill="none" stroke="#000" stroke-width="2"/>
        <path id="路径_40397" data-name="路径 40397" d="M1401.926,263.214l-58.755,25.446H594.911" transform="translate(-69.377 515.914)" fill="none" stroke="#000" stroke-width="2"/>
        <path id="路径_40398" data-name="路径 40398" d="M444.242,293.133H387.292V671" transform="translate(79.749 -20.798)" fill="none" stroke="#000" stroke-width="2"/>
        <path id="路径_40399" data-name="路径 40399" d="M1688.293,462.333V786.349H1608.8" transform="translate(-182.597 -46.091)" fill="none" stroke="#707070" stroke-width="2"/>
        <path id="路径_40400" data-name="路径 40400" d="M428.642,768.6l67.719,70.977" transform="translate(44.819 -79.873)" fill="none" stroke="#000" stroke-width="2"/>
        <path id="路径_40401" data-name="路径 40401" d="M1636.882,316.811l50.249,47.226" transform="translate(-194.885 -6.37)" fill="none" stroke="#000" stroke-width="2"/>
      </g>
    </g>
  </g>
</svg>
