<svg xmlns="http://www.w3.org/2000/svg" xmlns:xlink="http://www.w3.org/1999/xlink" width="1820" height="880" viewBox="0 0 1820 880">
  <defs>
    <clipPath id="clip-path">
      <rect id="矩形_2858" data-name="矩形 2858" width="1820" height="880" transform="translate(50 88)" fill="#fff"/>
    </clipPath>
  </defs>
  <g id="banner" transform="translate(-50 -88)" clip-path="url(#clip-path)">
    <g id="组_22281" data-name="组 22281">
      <g id="组_22280" data-name="组 22280" transform="translate(-6274 1354)">
        <g id="组_22276" data-name="组 22276" transform="translate(6179 -1398)">
          <path id="路径_40962" data-name="路径 40962" d="M7.313,34.164a1.951,1.951,0,0,0,1.955,1.955A1.955,1.955,0,1,0,7.884,32.78,1.885,1.885,0,0,0,7.313,34.164ZM3.377,56V48.561a5.654,5.654,0,0,1,.33-2.044,4.532,4.532,0,0,1,.863-1.435,4.286,4.286,0,0,1,1.193-.927,6.791,6.791,0,0,1,1.295-.521A6.352,6.352,0,0,1,5.764,43.1a4.433,4.433,0,0,1-2.057-2.374,5.654,5.654,0,0,1-.33-2.044V35.23A5.71,5.71,0,0,1,4.951,30.8,5.454,5.454,0,0,1,8.76,29.365a7.149,7.149,0,0,1,2.158.3,4.729,4.729,0,0,1,1.676.914,4.038,4.038,0,0,1,1.092,1.5,5.254,5.254,0,0,1,.381,2.082,4.916,4.916,0,0,1-.317,1.8,4.509,4.509,0,0,1-.876,1.422,4.564,4.564,0,0,1-1.308.99,4.779,4.779,0,0,1-1.638.482l-.2.025a2.305,2.305,0,0,0,.457,1.485,3.492,3.492,0,0,0,1.1.914,6.006,6.006,0,0,0,1.358.521q.711.178,1.244.279v3.072q-.533.1-1.244.267a5.509,5.509,0,0,0-1.371.521,3.284,3.284,0,0,0-1.117.99A2.806,2.806,0,0,0,9.7,48.611v2.311H18a3.659,3.659,0,0,0,2.564-.8,3.121,3.121,0,0,0,.939-2.476v-17.9h6.322V48.713a8.67,8.67,0,0,1-.482,2.945,6.238,6.238,0,0,1-1.435,2.311,6.488,6.488,0,0,1-2.361,1.5A9.11,9.11,0,0,1,20.313,56ZM24.2,68.213V64.48h-.152a2.779,2.779,0,0,1-1.13-.229,3.085,3.085,0,0,1-.914-.609,2.625,2.625,0,0,1-.609-.914,3.016,3.016,0,0,1-.216-1.143,2.845,2.845,0,0,1,.2-1.066,2.661,2.661,0,0,1,.6-.9,2.991,2.991,0,0,1,.965-.635,3.336,3.336,0,0,1,1.308-.241,3.044,3.044,0,0,1,2.311.851,2.949,2.949,0,0,1,.813,2.12v6.5Zm-1.193-6.627a1.04,1.04,0,1,0,.3-.736A1,1,0,0,0,23.012,61.586Zm23.475-14.9a3.022,3.022,0,0,0-.406.813,8.414,8.414,0,0,0-.3,1.155,13.062,13.062,0,0,0-.19,1.371q-.063.724-.063,1.46V56H39.174V49.5a10.824,10.824,0,0,0-.317-2.412q-.292-1.168-.622-2.4t-.609-2.6a15.024,15.024,0,0,1-.279-3,8.495,8.495,0,0,1,1-4.177,8.755,8.755,0,0,1,2.831-3.047A13.674,13.674,0,0,1,45.585,30a23.956,23.956,0,0,1,5.726-.635,23.64,23.64,0,0,1,5.9.673,12.656,12.656,0,0,1,4.405,2.006,8.691,8.691,0,0,1,2.742,3.326,10.7,10.7,0,0,1,.939,4.608V56H58.978V40.563a7.155,7.155,0,0,0-.381-2.349,4.786,4.786,0,0,0-1.206-1.9,6.372,6.372,0,0,0-2.311-1.333,11.311,11.311,0,0,0-3.771-.533,11.834,11.834,0,0,0-3.771.508,6.292,6.292,0,0,0-2.285,1.257,4.622,4.622,0,0,0-1.181,1.752,5.851,5.851,0,0,0-.381,2.095,8.1,8.1,0,0,0,.267,2.158q.267.965.571,2.031a6.746,6.746,0,0,1,.99-1.917,7.021,7.021,0,0,1,1.46-1.46,6.464,6.464,0,0,1,1.752-.927,5.726,5.726,0,0,1,1.866-.317,5.664,5.664,0,0,1,2.044.355,4.574,4.574,0,0,1,1.587,1A4.455,4.455,0,0,1,55.246,42.5a5.485,5.485,0,0,1,0,3.885,4.605,4.605,0,0,1-.978,1.511,4.342,4.342,0,0,1-1.511.99,5.219,5.219,0,0,1-1.955.355,5.021,5.021,0,0,1-2.641-.673A4.191,4.191,0,0,1,46.486,46.682ZM50.8,42.492a1.951,1.951,0,1,0,1.384.571A1.885,1.885,0,0,0,50.8,42.492ZM96.882,56a12.921,12.921,0,0,0-1.752-2.247,22.026,22.026,0,0,0-2.272-2.044,13.187,13.187,0,0,0-3.3-1.777,11.637,11.637,0,0,0-3.339-.889v.863a6.694,6.694,0,0,1-1.612,4.812,5.737,5.737,0,0,1-4.354,1.688,7.686,7.686,0,0,1-5.027-1.371A5.016,5.016,0,0,1,73.6,50.973a5.7,5.7,0,0,1,.5-2.45,5.013,5.013,0,0,1,1.358-1.765,6.6,6.6,0,0,1,2.006-1.117,9.45,9.45,0,0,1,2.438-.508V38.887l-.229-.025a4.88,4.88,0,0,1-1.625-.482,4.452,4.452,0,0,1-2.2-2.412,4.916,4.916,0,0,1-.317-1.8,5.254,5.254,0,0,1,.381-2.082A4.038,4.038,0,0,1,77,30.584a4.715,4.715,0,0,1,1.688-.914,7.182,7.182,0,0,1,2.146-.3A5.454,5.454,0,0,1,84.644,30.8a5.71,5.71,0,0,1,1.574,4.431v9.953a17.35,17.35,0,0,1,3.491.66,20.8,20.8,0,0,1,3.364,1.181,23.323,23.323,0,0,1,2.3,1.257A8.749,8.749,0,0,1,97.136,49.7V29.746h6.322V56Zm-14.6-21.836a1.951,1.951,0,1,0-.571,1.384A1.885,1.885,0,0,0,82.283,34.164ZM79.9,48.941q-2.615.279-2.615,2.438a2,2,0,0,0,.355,1.295,1.131,1.131,0,0,0,.914.432,1.2,1.2,0,0,0,1-.432A2.414,2.414,0,0,0,79.9,51.2Zm42.881.762a13.637,13.637,0,0,1,1.739-1.5,12.09,12.09,0,0,1,2.222-1.282,25.328,25.328,0,0,1,2.755-1.028,20.425,20.425,0,0,1,4.2-.711V29.746h6.322V45.133a9.45,9.45,0,0,1,2.438.508,6.6,6.6,0,0,1,2.006,1.117,5.013,5.013,0,0,1,1.358,1.765,5.7,5.7,0,0,1,.5,2.45,5.016,5.016,0,0,1-1.625,4.063,7.686,7.686,0,0,1-5.027,1.371,5.737,5.737,0,0,1-4.354-1.688,6.694,6.694,0,0,1-1.612-4.812v-.863a12.377,12.377,0,0,0-3.9.927,14.176,14.176,0,0,0-2.844,1.638,14.586,14.586,0,0,0-2.209,2.069A17.2,17.2,0,0,0,123.031,56h-6.6V38.887l-.2-.025a4.88,4.88,0,0,1-1.625-.482,4.452,4.452,0,0,1-2.2-2.412,4.916,4.916,0,0,1-.317-1.8,5.254,5.254,0,0,1,.381-2.082,4.038,4.038,0,0,1,1.092-1.5,4.715,4.715,0,0,1,1.688-.914,7.182,7.182,0,0,1,2.146-.3A5.454,5.454,0,0,1,121.2,30.8a5.71,5.71,0,0,1,1.574,4.431Zm17.24,1.5a2.414,2.414,0,0,0,.343,1.473,1.2,1.2,0,0,0,1,.432,1.131,1.131,0,0,0,.914-.432,2,2,0,0,0,.355-1.295q0-2.158-2.615-2.437ZM118.841,34.164a1.951,1.951,0,1,0-.571,1.384A1.885,1.885,0,0,0,118.841,34.164Zm25.564,34.049V64.48h-.152a2.779,2.779,0,0,1-1.13-.229,3.085,3.085,0,0,1-.914-.609,2.625,2.625,0,0,1-.609-.914,3.016,3.016,0,0,1-.216-1.143,2.845,2.845,0,0,1,.2-1.066,2.661,2.661,0,0,1,.6-.9,2.991,2.991,0,0,1,.965-.635,3.336,3.336,0,0,1,1.308-.241,3.044,3.044,0,0,1,2.311.851,2.949,2.949,0,0,1,.813,2.12v6.5Zm-1.193-6.627a1.04,1.04,0,1,0,.3-.736A1,1,0,0,0,143.212,61.586Zm32.094-19.551q.2-.076.419-.165t.47-.216V29.746h6.322v7.795a23.23,23.23,0,0,0,2.107-2.069,12.894,12.894,0,0,0,1.625-2.247v5.51a16.581,16.581,0,0,1-1.282,1.384,22.618,22.618,0,0,1-2.45,2.069v6.525a8.67,8.67,0,0,1-.482,2.945,6.238,6.238,0,0,1-1.435,2.311,6.488,6.488,0,0,1-2.361,1.5A9.11,9.11,0,0,1,175,56H157V38.887l-.2-.025a4.88,4.88,0,0,1-1.625-.482,4.452,4.452,0,0,1-2.2-2.412,4.916,4.916,0,0,1-.317-1.8,5.254,5.254,0,0,1,.381-2.082,4.038,4.038,0,0,1,1.092-1.5,4.715,4.715,0,0,1,1.688-.914,7.182,7.182,0,0,1,2.146-.3,5.454,5.454,0,0,1,3.809,1.435,5.71,5.71,0,0,1,1.574,4.431V50.947h9.344a3.751,3.751,0,0,0,2.564-.825,3.121,3.121,0,0,0,.939-2.476V45.234a15.448,15.448,0,0,1-4.24.584,7.714,7.714,0,0,1-2.7-.432,5.4,5.4,0,0,1-1.892-1.143,4.693,4.693,0,0,1-1.1-1.612,4.828,4.828,0,0,1-.368-1.841,5.664,5.664,0,0,1,.355-2.044,4.574,4.574,0,0,1,1-1.587,4.455,4.455,0,0,1,1.523-1.016,5.485,5.485,0,0,1,3.885,0,4.605,4.605,0,0,1,1.511.978,4.342,4.342,0,0,1,.99,1.511,5.218,5.218,0,0,1,.355,1.955,5.711,5.711,0,0,1-.063.8A3.368,3.368,0,0,1,175.306,42.035Zm-15.895-7.871a1.951,1.951,0,1,0-.571,1.384A1.885,1.885,0,0,0,159.411,34.164Zm9.344,6.424a1.951,1.951,0,1,0,.571-1.384A1.885,1.885,0,0,0,168.755,40.588Zm30.008-6.424a1.951,1.951,0,1,0,.571-1.384A1.885,1.885,0,0,0,198.763,34.164ZM194.827,56V48.561a5.654,5.654,0,0,1,.33-2.044,4.532,4.532,0,0,1,.863-1.435,4.286,4.286,0,0,1,1.193-.927,6.791,6.791,0,0,1,1.295-.521,6.352,6.352,0,0,1-1.295-.533,4.433,4.433,0,0,1-2.057-2.374,5.654,5.654,0,0,1-.33-2.044V35.23A5.71,5.71,0,0,1,196.4,30.8a5.454,5.454,0,0,1,3.809-1.435,7.149,7.149,0,0,1,2.158.3,4.729,4.729,0,0,1,1.676.914,4.038,4.038,0,0,1,1.092,1.5,5.254,5.254,0,0,1,.381,2.082,4.916,4.916,0,0,1-.317,1.8,4.509,4.509,0,0,1-.876,1.422,4.564,4.564,0,0,1-1.308.99,4.779,4.779,0,0,1-1.638.482l-.2.025a2.305,2.305,0,0,0,.457,1.485,3.492,3.492,0,0,0,1.1.914,6.006,6.006,0,0,0,1.358.521q.711.178,1.244.279v3.072q-.533.1-1.244.267a5.51,5.51,0,0,0-1.371.521,3.284,3.284,0,0,0-1.117.99,2.806,2.806,0,0,0-.457,1.676v2.311h8.3a3.659,3.659,0,0,0,2.564-.8,3.121,3.121,0,0,0,.939-2.476v-17.9h6.322V48.713a8.67,8.67,0,0,1-.482,2.945,6.238,6.238,0,0,1-1.435,2.311,6.488,6.488,0,0,1-2.361,1.5,9.11,9.11,0,0,1-3.237.533Zm22.8-31.713a3.729,3.729,0,0,1-1.1,2.831,4.326,4.326,0,0,1-3.11,1.054A4.211,4.211,0,0,1,210.273,27a4.146,4.146,0,0,1-1.155-3.047,4.515,4.515,0,0,1,.33-1.739,3.663,3.663,0,0,1,1-1.384,5.02,5.02,0,0,1,1.65-.927,6.863,6.863,0,0,1,2.272-.343q.863,0,1.46.025l1.143.051q.546.025,1.181.051t1.6.025a3.815,3.815,0,0,0,2.666-.838,4.349,4.349,0,0,0,1.193-2.615h4.139a16.612,16.612,0,0,1-.533,2.171,6.2,6.2,0,0,1-.9,1.8,4.166,4.166,0,0,1-1.447,1.231,4.6,4.6,0,0,1-2.146.457q-.863,0-1.841-.038t-1.879-.076q-.9-.038-1.6-.076t-1-.038a3.431,3.431,0,0,1,.381.394,3.951,3.951,0,0,1,.394.571,3.643,3.643,0,0,1,.317.736A2.967,2.967,0,0,1,217.624,24.287Zm-6.2-.051a1.814,1.814,0,0,0,.546,1.4,2.022,2.022,0,0,0,1.435.508,1.918,1.918,0,0,0,1.358-.508,2.043,2.043,0,0,0,0-2.78,1.892,1.892,0,0,0-1.358-.521,1.993,1.993,0,0,0-1.435.521A1.823,1.823,0,0,0,211.429,24.236Zm25.111,5.484V46.732l.2.025a4.779,4.779,0,0,1,1.638.482,4.564,4.564,0,0,1,1.308.99,4.509,4.509,0,0,1,.876,1.422,4.916,4.916,0,0,1,.317,1.8,5.277,5.277,0,0,1-.381,2.069,4.015,4.015,0,0,1-1.092,1.511,4.729,4.729,0,0,1-1.676.914,7.149,7.149,0,0,1-2.158.3,5.454,5.454,0,0,1-3.809-1.435,5.71,5.71,0,0,1-1.574-4.431V29.721Zm-2.412,21.734a1.951,1.951,0,1,0,.571-1.384A1.885,1.885,0,0,0,234.128,51.455ZM251.6,29.721V46.732l.2.025a4.779,4.779,0,0,1,1.638.482,4.564,4.564,0,0,1,1.308.99,4.509,4.509,0,0,1,.876,1.422,4.916,4.916,0,0,1,.317,1.8,5.277,5.277,0,0,1-.381,2.069,4.015,4.015,0,0,1-1.092,1.511,4.729,4.729,0,0,1-1.676.914,7.149,7.149,0,0,1-2.158.3,5.454,5.454,0,0,1-3.809-1.435,5.71,5.71,0,0,1-1.574-4.431V29.721Zm-2.412,21.734a1.951,1.951,0,1,0,.571-1.384A1.885,1.885,0,0,0,249.185,51.455Zm21.4-4.57.2.025a4.779,4.779,0,0,1,1.638.482,4.564,4.564,0,0,1,1.308.99,4.509,4.509,0,0,1,.876,1.422,4.917,4.917,0,0,1,.317,1.8,5.277,5.277,0,0,1-.381,2.069,4.015,4.015,0,0,1-1.092,1.511,4.73,4.73,0,0,1-1.676.914,7.149,7.149,0,0,1-2.158.3,5.454,5.454,0,0,1-3.809-1.435,5.71,5.71,0,0,1-1.574-4.431v-3.4a7.112,7.112,0,0,1,2.45-5.764q2.45-2.057,7.351-2.057a16.72,16.72,0,0,1,3.91.406,10.847,10.847,0,0,1,2.793,1.041,7.328,7.328,0,0,1,1.892,1.511,7.866,7.866,0,0,1,1.231,1.841h.076V40.055a5.857,5.857,0,0,0-.508-2.539,4.652,4.652,0,0,0-1.422-1.752,6.028,6.028,0,0,0-2.2-1,16.945,16.945,0,0,0-3.8-.317,21.538,21.538,0,0,0-3.136.241,27.028,27.028,0,0,0-3.212.673,25.175,25.175,0,0,0-2.983,1.016,16.077,16.077,0,0,0-2.45,1.244v-5.84a12.169,12.169,0,0,1,2.361-1.092,20.6,20.6,0,0,1,2.831-.749A29.923,29.923,0,0,1,272.6,29.5q1.663-.14,3.415-.14,7.084,0,10.664,2.7t3.58,7.909V56h-6.348V50.744a7.41,7.41,0,0,0-.482-2.679A6.931,6.931,0,0,0,282,45.793a7.917,7.917,0,0,0-2.552-1.739,9.6,9.6,0,0,0-3.961-.724,5.758,5.758,0,0,0-3.771.978,2.887,2.887,0,0,0-1.13,2.222Zm-2.412,4.723a1.951,1.951,0,1,0,.571-1.384A1.885,1.885,0,0,0,268.173,51.607Zm37.6-15.691A1.951,1.951,0,1,0,305.2,37.3,1.885,1.885,0,0,0,305.772,35.916Zm2.564,1.447a13.176,13.176,0,0,0,4.316-2.856,23.194,23.194,0,0,0,3.555-4.431v5.23a12.572,12.572,0,0,1-1.866,2.019,15.884,15.884,0,0,1-2.628,1.879,16.364,16.364,0,0,1-3.161,1.4,11.2,11.2,0,0,1-3.466.546,8.188,8.188,0,0,1-2.666-.394,5.467,5.467,0,0,1-1.9-1.079,4.393,4.393,0,0,1-1.143-1.612,5.192,5.192,0,0,1-.381-1.993,4.874,4.874,0,0,1,.381-1.917,5.12,5.12,0,0,1,1.028-1.574,4.85,4.85,0,0,1,1.523-1.066,4.5,4.5,0,0,1,1.866-.394,4.72,4.72,0,0,1,1.879.381,4.791,4.791,0,0,1,2.564,2.552,4.629,4.629,0,0,1,.381,1.866,3.986,3.986,0,0,1-.1.863A2.423,2.423,0,0,1,308.337,37.363Zm-2.564,10.563a1.951,1.951,0,1,0-.571,1.384A1.885,1.885,0,0,0,305.772,47.926Zm2.564,1.447a13.176,13.176,0,0,0,4.316-2.856,23.194,23.194,0,0,0,3.555-4.431v5.23a12.572,12.572,0,0,1-1.866,2.019,15.884,15.884,0,0,1-2.628,1.879,16.364,16.364,0,0,1-3.161,1.4,11.2,11.2,0,0,1-3.466.546,8.188,8.188,0,0,1-2.666-.394,5.467,5.467,0,0,1-1.9-1.079,4.393,4.393,0,0,1-1.143-1.612,5.192,5.192,0,0,1-.381-1.993,4.874,4.874,0,0,1,.381-1.917,5.12,5.12,0,0,1,1.028-1.574,4.85,4.85,0,0,1,1.523-1.066,4.5,4.5,0,0,1,1.866-.394,4.72,4.72,0,0,1,1.879.381,4.791,4.791,0,0,1,2.564,2.552,4.629,4.629,0,0,1,.381,1.866,3.986,3.986,0,0,1-.1.863A2.423,2.423,0,0,1,308.337,49.373ZM348.221,33.91a1.715,1.715,0,0,0-.152-.749,1.627,1.627,0,0,0-.381-.521,1.4,1.4,0,0,0-.508-.292,1.833,1.833,0,0,0-.559-.089,1.88,1.88,0,0,0-1.1.368A1.317,1.317,0,0,0,345,33.783a2,2,0,0,0,.533,1.346,3.357,3.357,0,0,0,1.168.889,5.709,5.709,0,0,0,.521-.355,3.231,3.231,0,0,0,.5-.47,2.343,2.343,0,0,0,.368-.584A1.715,1.715,0,0,0,348.221,33.91ZM327.02,56V38.887l-.2-.025a4.88,4.88,0,0,1-1.625-.482,4.452,4.452,0,0,1-2.2-2.412,4.917,4.917,0,0,1-.317-1.8,5.254,5.254,0,0,1,.381-2.082,4.037,4.037,0,0,1,1.092-1.5,4.715,4.715,0,0,1,1.688-.914,7.182,7.182,0,0,1,2.146-.3,5.454,5.454,0,0,1,3.809,1.435,5.71,5.71,0,0,1,1.574,4.431V47.266q1.27-1.422,2.691-2.793t2.577-2.349q1.155-.978,2.4-1.93t2.666-1.968q-.381-.355-.825-.838a8.1,8.1,0,0,1-.825-1.066,5.994,5.994,0,0,1-.622-1.257,4.219,4.219,0,0,1-.241-1.435,3.713,3.713,0,0,1,1.511-3.11,6.281,6.281,0,0,1,3.923-1.155,10.566,10.566,0,0,1,2.564.292,6.736,6.736,0,0,1,2.019.838,4.006,4.006,0,0,1,1.32,1.346,3.567,3.567,0,0,1,.47,1.841,3.953,3.953,0,0,1-.2,1.282,5.216,5.216,0,0,1-.533,1.117,5.9,5.9,0,0,1-.749.952,11.313,11.313,0,0,1-.876.813A5.042,5.042,0,0,1,352.093,39a5.452,5.452,0,0,1,.9,1.485,7.6,7.6,0,0,1,.47,1.765,13.729,13.729,0,0,1,.14,1.993V56h-6.322V44.4a16.18,16.18,0,0,0-.114-2.082,3.061,3.061,0,0,0-.825-1.65q-.939.66-2.285,1.79t-2.628,2.285q-1.282,1.155-2.552,2.438a40.371,40.371,0,0,0-2.755,3.136,19.4,19.4,0,0,0-2.12,3.1,5.049,5.049,0,0,0-.635,2.26V56Zm2.412-21.836a1.951,1.951,0,1,0-.571,1.384A1.885,1.885,0,0,0,329.432,34.164Zm24.346,34.049V64.48h-.152a2.779,2.779,0,0,1-1.13-.229,3.084,3.084,0,0,1-.914-.609,2.626,2.626,0,0,1-.609-.914,3.016,3.016,0,0,1-.216-1.143,2.845,2.845,0,0,1,.2-1.066,2.661,2.661,0,0,1,.6-.9,2.99,2.99,0,0,1,.965-.635,3.336,3.336,0,0,1,1.308-.241,3.044,3.044,0,0,1,2.311.851,2.949,2.949,0,0,1,.813,2.12v6.5Zm-1.193-6.627a1.04,1.04,0,1,0,.3-.736A1,1,0,0,0,352.584,61.586Zm-.406-42.148h3.555v8.379h-3.555ZM372.719,49.7a13.637,13.637,0,0,1,1.739-1.5,12.089,12.089,0,0,1,2.222-1.282,25.33,25.33,0,0,1,2.755-1.028,20.425,20.425,0,0,1,4.2-.711V29.746h6.322V45.133a9.45,9.45,0,0,1,2.438.508,6.6,6.6,0,0,1,2.006,1.117,5.013,5.013,0,0,1,1.358,1.765,5.7,5.7,0,0,1,.5,2.45,5.016,5.016,0,0,1-1.625,4.063,7.686,7.686,0,0,1-5.027,1.371,5.737,5.737,0,0,1-4.354-1.688,6.694,6.694,0,0,1-1.612-4.812v-.863a12.377,12.377,0,0,0-3.9.927,14.176,14.176,0,0,0-2.844,1.638,14.585,14.585,0,0,0-2.209,2.069A17.2,17.2,0,0,0,372.973,56h-6.6V38.887l-.2-.025a4.88,4.88,0,0,1-1.625-.482,4.452,4.452,0,0,1-2.2-2.412,4.917,4.917,0,0,1-.317-1.8,5.254,5.254,0,0,1,.381-2.082,4.037,4.037,0,0,1,1.092-1.5,4.715,4.715,0,0,1,1.688-.914,7.182,7.182,0,0,1,2.146-.3,5.454,5.454,0,0,1,3.809,1.435,5.71,5.71,0,0,1,1.574,4.431Zm17.24,1.5a2.414,2.414,0,0,0,.343,1.473,1.2,1.2,0,0,0,1,.432,1.131,1.131,0,0,0,.914-.432,2,2,0,0,0,.355-1.295q0-2.158-2.615-2.437ZM368.784,34.164a1.951,1.951,0,1,0-.571,1.384A1.885,1.885,0,0,0,368.784,34.164Zm40.037,0a1.951,1.951,0,1,0,.571-1.384A1.885,1.885,0,0,0,408.821,34.164ZM404.885,56V48.561a5.654,5.654,0,0,1,.33-2.044,4.533,4.533,0,0,1,.863-1.435,4.286,4.286,0,0,1,1.193-.927,6.79,6.79,0,0,1,1.295-.521,6.351,6.351,0,0,1-1.295-.533,4.433,4.433,0,0,1-2.057-2.374,5.654,5.654,0,0,1-.33-2.044V35.23a5.71,5.71,0,0,1,1.574-4.431,5.454,5.454,0,0,1,3.809-1.435,7.149,7.149,0,0,1,2.158.3,4.73,4.73,0,0,1,1.676.914,4.037,4.037,0,0,1,1.092,1.5,5.254,5.254,0,0,1,.381,2.082,4.917,4.917,0,0,1-.317,1.8,4.509,4.509,0,0,1-.876,1.422,4.564,4.564,0,0,1-1.308.99,4.779,4.779,0,0,1-1.638.482l-.2.025a2.305,2.305,0,0,0,.457,1.485,3.492,3.492,0,0,0,1.1.914,6.006,6.006,0,0,0,1.358.521q.711.178,1.244.279v3.072q-.533.1-1.244.267a5.509,5.509,0,0,0-1.371.521,3.284,3.284,0,0,0-1.117.99,2.806,2.806,0,0,0-.457,1.676v2.311h8.3a3.659,3.659,0,0,0,2.564-.8,3.121,3.121,0,0,0,.939-2.476v-17.9h6.322V48.713a8.67,8.67,0,0,1-.482,2.945,6.238,6.238,0,0,1-1.435,2.311,6.488,6.488,0,0,1-2.361,1.5,9.11,9.11,0,0,1-3.237.533Zm43.769-6.3a13.637,13.637,0,0,1,1.739-1.5,12.089,12.089,0,0,1,2.222-1.282,25.33,25.33,0,0,1,2.755-1.028,20.425,20.425,0,0,1,4.2-.711V29.746h6.322V45.133a9.45,9.45,0,0,1,2.438.508,6.6,6.6,0,0,1,2.006,1.117,5.013,5.013,0,0,1,1.358,1.765,5.7,5.7,0,0,1,.5,2.45,5.016,5.016,0,0,1-1.625,4.063,7.686,7.686,0,0,1-5.027,1.371,5.737,5.737,0,0,1-4.354-1.688,6.694,6.694,0,0,1-1.612-4.812v-.863a12.377,12.377,0,0,0-3.9.927,14.176,14.176,0,0,0-2.844,1.638,14.585,14.585,0,0,0-2.209,2.069A17.2,17.2,0,0,0,448.908,56h-6.6V38.887l-.2-.025a4.88,4.88,0,0,1-1.625-.482,4.452,4.452,0,0,1-2.2-2.412,4.917,4.917,0,0,1-.317-1.8,5.254,5.254,0,0,1,.381-2.082,4.037,4.037,0,0,1,1.092-1.5,4.715,4.715,0,0,1,1.688-.914,7.182,7.182,0,0,1,2.146-.3A5.454,5.454,0,0,1,447.08,30.8a5.71,5.71,0,0,1,1.574,4.431Zm17.24,1.5a2.414,2.414,0,0,0,.343,1.473,1.2,1.2,0,0,0,1,.432,1.131,1.131,0,0,0,.914-.432,2,2,0,0,0,.355-1.295q0-2.158-2.615-2.437ZM444.719,34.164a1.951,1.951,0,1,0-.571,1.384A1.885,1.885,0,0,0,444.719,34.164ZM487.6,51.125a15.975,15.975,0,0,0,1.8-1.422,4.88,4.88,0,0,0,1.117-1.5,4.293,4.293,0,0,1-1.879-1.676,4.949,4.949,0,0,1-.686-2.641,5.219,5.219,0,0,1,.355-1.955,4.342,4.342,0,0,1,.99-1.511,4.605,4.605,0,0,1,1.511-.978,5.485,5.485,0,0,1,3.885,0,4.455,4.455,0,0,1,1.523,1.016,4.574,4.574,0,0,1,1,1.587,5.664,5.664,0,0,1,.355,2.044,7.589,7.589,0,0,1-.47,2.679,10.774,10.774,0,0,1-1.244,2.374,13.881,13.881,0,0,1-1.79,2.095,25.436,25.436,0,0,1-2.12,1.828q-1.1.851-2.234,1.574L487.6,56h-6.348V50.719A14.1,14.1,0,0,0,480.973,48q-.279-1.422-.622-2.907t-.635-3a15.823,15.823,0,0,1-.292-3.009,8.785,8.785,0,0,1,3.009-6.906,10.035,10.035,0,0,1,3-1.815,14.634,14.634,0,0,1,3.339-.876l4.7,3.682,4.367-3.631a14.023,14.023,0,0,1,3.58.876,9.345,9.345,0,0,1,3.047,1.917,9.167,9.167,0,0,1,2.12,3.11,11.343,11.343,0,0,1,.8,4.481V56h-6.322V41.35q0-.99-.076-1.942a7.17,7.17,0,0,0-.355-1.765,4.866,4.866,0,0,0-.965-1.6,6.078,6.078,0,0,0-2.057-1.422l-4.139,3.428-4.24-3.428a6.114,6.114,0,0,0-1.93,1.295,4.709,4.709,0,0,0-1.028,1.5,6.3,6.3,0,0,0-.394,1.549,13.292,13.292,0,0,0-.1,1.65,11.174,11.174,0,0,0,.292,2.425q.292,1.308.635,2.653t.622,2.666a11.942,11.942,0,0,1,.279,2.463Zm7.109-7.236a1.951,1.951,0,1,0-.571,1.384A1.885,1.885,0,0,0,494.709,43.889Zm10.685-19.6a3.729,3.729,0,0,1-1.1,2.831,4.326,4.326,0,0,1-3.11,1.054A4.211,4.211,0,0,1,498.044,27a4.146,4.146,0,0,1-1.155-3.047,4.515,4.515,0,0,1,.33-1.739,3.663,3.663,0,0,1,1-1.384,5.02,5.02,0,0,1,1.65-.927,6.863,6.863,0,0,1,2.272-.343q.863,0,1.46.025l1.143.051q.546.025,1.181.051t1.6.025a3.815,3.815,0,0,0,2.666-.838,4.349,4.349,0,0,0,1.193-2.615h4.139a16.617,16.617,0,0,1-.533,2.171,6.2,6.2,0,0,1-.9,1.8,4.166,4.166,0,0,1-1.447,1.231,4.6,4.6,0,0,1-2.146.457q-.863,0-1.841-.038t-1.879-.076q-.9-.038-1.6-.076t-1-.038a3.428,3.428,0,0,1,.381.394,3.953,3.953,0,0,1,.394.571,3.642,3.642,0,0,1,.317.736A2.967,2.967,0,0,1,505.394,24.287Zm-6.2-.051a1.814,1.814,0,0,0,.546,1.4,2.022,2.022,0,0,0,1.435.508,1.918,1.918,0,0,0,1.358-.508,2.043,2.043,0,0,0,0-2.78,1.892,1.892,0,0,0-1.358-.521,1.993,1.993,0,0,0-1.435.521A1.823,1.823,0,0,0,499.2,24.236Zm18.434,21.252a5.684,5.684,0,0,1,1.587-4.431,5.466,5.466,0,0,1,3.8-1.435,7.149,7.149,0,0,1,2.158.3,4.729,4.729,0,0,1,1.676.914,4.038,4.038,0,0,1,1.092,1.5,5.254,5.254,0,0,1,.381,2.082A5.017,5.017,0,0,1,528,46.237a4.362,4.362,0,0,1-.889,1.435,4.727,4.727,0,0,1-2.958,1.473l-.178.025q.025.939,1.333,1.523a11.419,11.419,0,0,0,4.3.584,10.394,10.394,0,0,0,2.933-.33,5.465,5.465,0,0,0,1.828-.927,4.279,4.279,0,0,0,1.219-1.663,6.059,6.059,0,0,0,.47-2.463V40.842a6.94,6.94,0,0,0-.6-3.1,5.2,5.2,0,0,0-1.511-1.879,6.625,6.625,0,0,0-2.361-1.054,14.153,14.153,0,0,0-3.453-.368,21.538,21.538,0,0,0-3.136.241,27.029,27.029,0,0,0-3.212.673,25.173,25.173,0,0,0-2.983,1.016,16.078,16.078,0,0,0-2.45,1.244v-5.84a12.171,12.171,0,0,1,2.361-1.092,20.6,20.6,0,0,1,2.831-.749,29.923,29.923,0,0,1,3.174-.432q1.663-.14,3.415-.14,7.084,0,10.664,2.7t3.58,7.909v5.764a13.892,13.892,0,0,1-.7,4.621,7.689,7.689,0,0,1-2.234,3.313,10.045,10.045,0,0,1-3.961,2.006,22.24,22.24,0,0,1-5.878.673,22.7,22.7,0,0,1-5.789-.622,10.2,10.2,0,0,1-3.682-1.7,5.968,5.968,0,0,1-1.942-2.564,8.8,8.8,0,0,1-.571-3.187Zm3.936-1.066a1.951,1.951,0,1,0,.571-1.384A1.885,1.885,0,0,0,521.568,44.422Zm35.086-10.258a1.951,1.951,0,1,0,.571-1.384A1.885,1.885,0,0,0,556.654,34.164ZM552.718,56V48.561a5.655,5.655,0,0,1,.33-2.044,4.532,4.532,0,0,1,.863-1.435,4.286,4.286,0,0,1,1.193-.927,6.792,6.792,0,0,1,1.295-.521,6.353,6.353,0,0,1-1.295-.533,4.433,4.433,0,0,1-2.057-2.374,5.655,5.655,0,0,1-.33-2.044V35.23a5.71,5.71,0,0,1,1.574-4.431,5.454,5.454,0,0,1,3.809-1.435,7.149,7.149,0,0,1,2.158.3,4.729,4.729,0,0,1,1.676.914,4.038,4.038,0,0,1,1.092,1.5,5.254,5.254,0,0,1,.381,2.082,4.916,4.916,0,0,1-.317,1.8,4.51,4.51,0,0,1-.876,1.422,4.564,4.564,0,0,1-1.308.99,4.778,4.778,0,0,1-1.638.482l-.2.025a2.305,2.305,0,0,0,.457,1.485,3.492,3.492,0,0,0,1.1.914,6.006,6.006,0,0,0,1.358.521q.711.178,1.244.279v3.072q-.533.1-1.244.267a5.51,5.51,0,0,0-1.371.521,3.284,3.284,0,0,0-1.117.99,2.806,2.806,0,0,0-.457,1.676v2.311h8.3a3.659,3.659,0,0,0,2.564-.8,3.121,3.121,0,0,0,.939-2.476v-17.9h6.322V48.713a8.671,8.671,0,0,1-.482,2.945,6.238,6.238,0,0,1-1.435,2.311,6.488,6.488,0,0,1-2.361,1.5,9.11,9.11,0,0,1-3.237.533Zm21.2,9.217a5.6,5.6,0,0,0,1.993-.292,2.23,2.23,0,0,0,1.155-1,4.833,4.833,0,0,0,.533-1.866q.127-1.155.152-2.882h3.936q0,1.066-.076,2.146a12.148,12.148,0,0,1-.33,2.095,7.941,7.941,0,0,1-.724,1.879,5.092,5.092,0,0,1-1.282,1.523,5.915,5.915,0,0,1-1.993,1.028,9.677,9.677,0,0,1-2.856.368h-4.469V64.48H569.8a2.779,2.779,0,0,1-1.13-.229,3.085,3.085,0,0,1-.914-.609,2.625,2.625,0,0,1-.609-.914,3.017,3.017,0,0,1-.216-1.143,2.844,2.844,0,0,1,.2-1.066,2.661,2.661,0,0,1,.6-.9,2.991,2.991,0,0,1,.965-.635,3.336,3.336,0,0,1,1.308-.241,3.044,3.044,0,0,1,2.311.851,2.949,2.949,0,0,1,.813,2.12v3.5Zm-5.154-3.631a1.04,1.04,0,1,0,.3-.736A1,1,0,0,0,568.761,61.586Zm7.186-42.148H579.5v8.379h-3.555ZM601.21,45.488a3.972,3.972,0,0,0-.254-1.46,2.754,2.754,0,0,0-.9-1.155,4.54,4.54,0,0,0-1.739-.774,17.709,17.709,0,0,0-3.707-.267q-2.209,0-4.139.14t-4.062.5V38.811a13.309,13.309,0,0,1,.521-4.075,7.115,7.115,0,0,1,1.727-2.958,7.452,7.452,0,0,1,3.047-1.8,14.524,14.524,0,0,1,4.481-.609q.838,0,1.993.076t2.4.152l2.463.152q1.219.076,2.158.076,1.676,0,3.085-.063a21.4,21.4,0,0,0,2.222-.19v4.443a19.605,19.605,0,0,1-2.133.165q-1.244.038-3,.038-.914,0-2.234-.076l-2.653-.152q-1.333-.076-2.488-.152t-1.79-.076a7.263,7.263,0,0,0-2.336.241,2.46,2.46,0,0,0-.952.673,2.656,2.656,0,0,0-.533,1.016,8.818,8.818,0,0,0-.165,2.082q.736-.1,1.739-.178t2.882-.076a25.864,25.864,0,0,1,4.85.394,8.4,8.4,0,0,1,3.326,1.32,5.385,5.385,0,0,1,1.9,2.5,10.984,10.984,0,0,1,.609,3.936v4.875a5.925,5.925,0,0,1-1.5,4.354,5.232,5.232,0,0,1-3.885,1.511A7.182,7.182,0,0,1,600,56.1a4.715,4.715,0,0,1-1.688-.914,4.016,4.016,0,0,1-1.092-1.511,5.277,5.277,0,0,1-.381-2.069,4.922,4.922,0,0,1,.343-1.879,4.453,4.453,0,0,1,.939-1.447,4.526,4.526,0,0,1,1.384-.965,5.137,5.137,0,0,1,1.7-.432Zm2.387,6.119a1.951,1.951,0,1,0-.571,1.384A1.885,1.885,0,0,0,603.6,51.607Zm30.262-11.3a5.5,5.5,0,0,0-1.688-4.418A7.8,7.8,0,0,0,627,34.443a16.482,16.482,0,0,0-2.729.241,21.334,21.334,0,0,0-2.818.673,19.981,19.981,0,0,0-2.615,1.016,13.659,13.659,0,0,0-2.146,1.244v-5.84a8.788,8.788,0,0,1,2.044-1.092,16.816,16.816,0,0,1,2.539-.749,24.449,24.449,0,0,1,2.831-.432q1.473-.14,2.895-.14,6.7,0,9.94,2.717t3.237,7.9V50.541a5.925,5.925,0,0,1-1.5,4.354,5.232,5.232,0,0,1-3.885,1.511,7.182,7.182,0,0,1-2.146-.3,4.715,4.715,0,0,1-1.688-.914,4.016,4.016,0,0,1-1.092-1.511,5.277,5.277,0,0,1-.381-2.069,4.922,4.922,0,0,1,.343-1.879,4.453,4.453,0,0,1,.939-1.447,4.526,4.526,0,0,1,1.384-.965,5.137,5.137,0,0,1,1.7-.432Zm2.387,11.3a1.951,1.951,0,1,0-.571,1.384A1.885,1.885,0,0,0,636.245,51.607ZM671.763,56a12.919,12.919,0,0,0-1.752-2.247,22.026,22.026,0,0,0-2.272-2.044,13.187,13.187,0,0,0-3.3-1.777,11.637,11.637,0,0,0-3.339-.889v.863a6.694,6.694,0,0,1-1.612,4.812,5.737,5.737,0,0,1-4.354,1.688,7.686,7.686,0,0,1-5.027-1.371,5.016,5.016,0,0,1-1.625-4.062,5.7,5.7,0,0,1,.5-2.45,5.013,5.013,0,0,1,1.358-1.765,6.6,6.6,0,0,1,2.006-1.117,9.45,9.45,0,0,1,2.438-.508V38.887l-.229-.025a4.88,4.88,0,0,1-1.625-.482,4.452,4.452,0,0,1-2.2-2.412,4.916,4.916,0,0,1-.317-1.8,5.254,5.254,0,0,1,.381-2.082,4.038,4.038,0,0,1,1.092-1.5,4.715,4.715,0,0,1,1.688-.914,7.182,7.182,0,0,1,2.146-.3,5.454,5.454,0,0,1,3.809,1.435A5.71,5.71,0,0,1,661.1,35.23v9.953a17.35,17.35,0,0,1,3.491.66,20.8,20.8,0,0,1,3.364,1.181,23.323,23.323,0,0,1,2.3,1.257,8.749,8.749,0,0,1,1.765,1.422V29.746h6.322V56Zm-14.6-21.836a1.951,1.951,0,1,0-.571,1.384A1.885,1.885,0,0,0,657.163,34.164Zm-2.387,14.777q-2.615.279-2.615,2.438a2,2,0,0,0,.355,1.295,1.131,1.131,0,0,0,.914.432,1.2,1.2,0,0,0,1-.432,2.414,2.414,0,0,0,.343-1.473ZM688.923,56V49.475a6.977,6.977,0,0,1,.33-2.146,6.381,6.381,0,0,1,.978-1.892,6.282,6.282,0,0,1,1.625-1.5,7.548,7.548,0,0,1,2.3-.965h-5.916V39.141a10.863,10.863,0,0,1,1.295-4.012,10.015,10.015,0,0,1,2.7-3.085,12.506,12.506,0,0,1,4.024-1.98,18.335,18.335,0,0,1,5.256-.7,20.351,20.351,0,0,1,6.056.8,11.855,11.855,0,0,1,4.215,2.222,8.782,8.782,0,0,1,2.463,3.364,11,11,0,0,1,.8,4.228V56h-6.322V40.436a6.729,6.729,0,0,0-.457-2.564,5.115,5.115,0,0,0-1.295-1.879,5.627,5.627,0,0,0-2.12-1.168,11.319,11.319,0,0,0-3.339-.406,11.1,11.1,0,0,0-3.237.381,5.741,5.741,0,0,0-1.968,1.016,5.005,5.005,0,0,0-1.206,1.447,4.719,4.719,0,0,0-.546,1.8h5.053v3.91a12.812,12.812,0,0,0-1.447.533,4.368,4.368,0,0,0-1.409,1,5.21,5.21,0,0,0-1.066,1.752,7.786,7.786,0,0,0-.419,2.78V56Zm22.289-32.932a1.951,1.951,0,1,0-.571,1.384A1.885,1.885,0,0,0,711.212,23.068Zm2.564,1.447a12.337,12.337,0,0,0,2.234-1.181,15.408,15.408,0,0,0,2.095-1.676A19.41,19.41,0,0,0,720,19.577a26.6,26.6,0,0,0,1.65-2.349v5.23a12.569,12.569,0,0,1-1.866,2.019,15.886,15.886,0,0,1-2.628,1.879,16.362,16.362,0,0,1-3.161,1.4,11.2,11.2,0,0,1-3.466.546,8.188,8.188,0,0,1-2.666-.394,5.467,5.467,0,0,1-1.9-1.079,4.393,4.393,0,0,1-1.143-1.612,5.192,5.192,0,0,1-.381-1.993,4.874,4.874,0,0,1,.381-1.917,5.12,5.12,0,0,1,1.028-1.574,4.85,4.85,0,0,1,1.523-1.066,4.5,4.5,0,0,1,1.866-.394,4.72,4.72,0,0,1,1.879.381,4.791,4.791,0,0,1,2.564,2.552,4.629,4.629,0,0,1,.381,1.866,3.987,3.987,0,0,1-.1.863A2.422,2.422,0,0,1,713.776,24.516ZM734.038,49.7a13.637,13.637,0,0,1,1.739-1.5A12.09,12.09,0,0,1,738,46.923a25.327,25.327,0,0,1,2.755-1.028,20.425,20.425,0,0,1,4.2-.711V29.746h6.322V45.133a9.45,9.45,0,0,1,2.438.508,6.6,6.6,0,0,1,2.006,1.117,5.013,5.013,0,0,1,1.358,1.765,5.7,5.7,0,0,1,.5,2.45,5.016,5.016,0,0,1-1.625,4.063,7.686,7.686,0,0,1-5.027,1.371,5.737,5.737,0,0,1-4.354-1.688,6.694,6.694,0,0,1-1.612-4.812v-.863a12.376,12.376,0,0,0-3.9.927,14.175,14.175,0,0,0-2.844,1.638,14.588,14.588,0,0,0-2.209,2.069A17.2,17.2,0,0,0,734.292,56h-6.6V38.887l-.2-.025a4.88,4.88,0,0,1-1.625-.482,4.452,4.452,0,0,1-2.2-2.412,4.916,4.916,0,0,1-.317-1.8,5.254,5.254,0,0,1,.381-2.082,4.038,4.038,0,0,1,1.092-1.5,4.715,4.715,0,0,1,1.688-.914,7.182,7.182,0,0,1,2.146-.3,5.454,5.454,0,0,1,3.809,1.435,5.71,5.71,0,0,1,1.574,4.431Zm17.24,1.5a2.414,2.414,0,0,0,.343,1.473,1.2,1.2,0,0,0,1,.432,1.131,1.131,0,0,0,.914-.432,2,2,0,0,0,.355-1.295q0-2.158-2.615-2.437ZM730.1,34.164a1.951,1.951,0,1,0-.571,1.384A1.885,1.885,0,0,0,730.1,34.164ZM10.156,151.125a15.976,15.976,0,0,0,1.8-1.422,4.88,4.88,0,0,0,1.117-1.5,4.293,4.293,0,0,1-1.879-1.676,4.949,4.949,0,0,1-.686-2.641,5.219,5.219,0,0,1,.355-1.955,4.342,4.342,0,0,1,.99-1.511,4.605,4.605,0,0,1,1.511-.978,5.485,5.485,0,0,1,3.885,0,4.455,4.455,0,0,1,1.523,1.016,4.574,4.574,0,0,1,1,1.587,5.664,5.664,0,0,1,.355,2.044,7.589,7.589,0,0,1-.47,2.679,10.774,10.774,0,0,1-1.244,2.374,13.882,13.882,0,0,1-1.79,2.095,25.436,25.436,0,0,1-2.12,1.828q-1.1.851-2.234,1.574L10.156,156H3.809v-4.926a17.186,17.186,0,0,0-.279-3.2q-.279-1.473-.622-2.882t-.635-2.844a15.325,15.325,0,0,1-.292-3.06,8.495,8.495,0,0,1,1-4.177,8.755,8.755,0,0,1,2.831-3.047A13.673,13.673,0,0,1,10.22,130a23.956,23.956,0,0,1,5.726-.635,23.8,23.8,0,0,1,5.865.66,12.773,12.773,0,0,1,4.405,1.98,8.656,8.656,0,0,1,2.768,3.313,10.7,10.7,0,0,1,.952,4.659V156H23.613V140.486a6.739,6.739,0,0,0-.33-2.12,5.469,5.469,0,0,0-1.041-1.841,5.866,5.866,0,0,0-2.171-1.473,10.667,10.667,0,0,0-4.126-.635,10.536,10.536,0,0,0-3.986.609,6.024,6.024,0,0,0-2.158,1.4,5.834,5.834,0,0,0-1.092,1.727,5.221,5.221,0,0,0-.381,1.98,13.26,13.26,0,0,0,.292,2.818q.292,1.346.635,2.653t.622,2.59a12.312,12.312,0,0,1,.279,2.628Zm7.109-7.236a1.951,1.951,0,1,0-.571,1.384A1.885,1.885,0,0,0,17.266,143.889Zm6.014-21.836a3.769,3.769,0,0,1-.343.546,2.409,2.409,0,0,1-.559.533,3.313,3.313,0,0,1-.812.406,3.248,3.248,0,0,1-1.079.165,3.2,3.2,0,0,1-1.257-.241,2.978,2.978,0,0,1-.99-.673,3.19,3.19,0,0,1-.66-1.016,3.293,3.293,0,0,1-.241-1.27,2.811,2.811,0,0,1,1.066-2.209,4.678,4.678,0,0,1,3.123-.914,6.635,6.635,0,0,1,2.057.3,4.956,4.956,0,0,1,1.612.851,3.729,3.729,0,0,1,1.041,1.333,4.085,4.085,0,0,1,.368,1.752,4.487,4.487,0,0,1-2.26,4.012,6.729,6.729,0,0,0,3.428-.749,5.119,5.119,0,0,0,1.93-1.942,7.59,7.59,0,0,0,.863-2.653,24.155,24.155,0,0,0,.229-2.907h4.139q-.127,1.727-.343,3.174a11.8,11.8,0,0,1-.673,2.6,6.977,6.977,0,0,1-1.219,2.031,6.1,6.1,0,0,1-1.955,1.46,10.731,10.731,0,0,1-2.907.876,24.626,24.626,0,0,1-4.075.292h-3.2v-2.234a4.028,4.028,0,0,0,1.942-1.27A3.376,3.376,0,0,0,23.279,122.053Zm-3.961-1.523a1.43,1.43,0,1,0,.419-1A1.368,1.368,0,0,0,19.318,120.529Zm36,19.779a5.5,5.5,0,0,0-1.688-4.418,7.8,7.8,0,0,0-5.167-1.447,16.481,16.481,0,0,0-2.729.241,21.332,21.332,0,0,0-2.818.673,19.981,19.981,0,0,0-2.615,1.016,13.66,13.66,0,0,0-2.146,1.244v-5.84a8.788,8.788,0,0,1,2.044-1.092,16.815,16.815,0,0,1,2.539-.749,24.449,24.449,0,0,1,2.831-.432q1.473-.14,2.895-.14,6.7,0,9.94,2.717t3.237,7.9v10.563a5.925,5.925,0,0,1-1.5,4.354,5.232,5.232,0,0,1-3.885,1.511,7.182,7.182,0,0,1-2.146-.3,4.715,4.715,0,0,1-1.688-.914,4.015,4.015,0,0,1-1.092-1.511,5.277,5.277,0,0,1-.381-2.069,4.922,4.922,0,0,1,.343-1.879,4.453,4.453,0,0,1,.939-1.447,4.526,4.526,0,0,1,1.384-.965,5.137,5.137,0,0,1,1.7-.432Zm2.387,11.3a1.951,1.951,0,1,0-.571,1.384A1.885,1.885,0,0,0,57.709,151.607Zm18.455-17.443a1.951,1.951,0,1,0,.571-1.384A1.885,1.885,0,0,0,76.164,134.164ZM72.228,156v-7.439a5.654,5.654,0,0,1,.33-2.044,4.532,4.532,0,0,1,.863-1.435,4.286,4.286,0,0,1,1.193-.927,6.79,6.79,0,0,1,1.295-.521,6.351,6.351,0,0,1-1.295-.533,4.433,4.433,0,0,1-2.057-2.374,5.654,5.654,0,0,1-.33-2.044V135.23A5.71,5.71,0,0,1,73.8,130.8a5.454,5.454,0,0,1,3.809-1.435,7.149,7.149,0,0,1,2.158.3,4.729,4.729,0,0,1,1.676.914,4.037,4.037,0,0,1,1.092,1.5,5.254,5.254,0,0,1,.381,2.082,4.916,4.916,0,0,1-.317,1.8,4.509,4.509,0,0,1-.876,1.422,4.564,4.564,0,0,1-1.308.99,4.779,4.779,0,0,1-1.638.482l-.2.025a2.305,2.305,0,0,0,.457,1.485,3.492,3.492,0,0,0,1.1.914,6.006,6.006,0,0,0,1.358.521q.711.178,1.244.279v3.072q-.533.1-1.244.267a5.509,5.509,0,0,0-1.371.521,3.284,3.284,0,0,0-1.117.99,2.806,2.806,0,0,0-.457,1.676v2.311h8.3a3.659,3.659,0,0,0,2.564-.8,3.121,3.121,0,0,0,.939-2.476v-17.9h6.322v18.967a8.67,8.67,0,0,1-.482,2.945,6.238,6.238,0,0,1-1.435,2.311,6.488,6.488,0,0,1-2.361,1.5,9.11,9.11,0,0,1-3.237.533Zm35.035,0v-6.525a6.977,6.977,0,0,1,.33-2.146,6.382,6.382,0,0,1,.978-1.892,6.281,6.281,0,0,1,1.625-1.5,7.548,7.548,0,0,1,2.3-.965h-5.916v-3.834a10.863,10.863,0,0,1,1.295-4.012,10.016,10.016,0,0,1,2.7-3.085,12.506,12.506,0,0,1,4.024-1.98,18.334,18.334,0,0,1,5.256-.7,20.351,20.351,0,0,1,6.056.8,11.855,11.855,0,0,1,4.215,2.222,8.782,8.782,0,0,1,2.463,3.364,11,11,0,0,1,.8,4.228V156h-6.322V140.436a6.729,6.729,0,0,0-.457-2.564,5.115,5.115,0,0,0-1.295-1.879,5.627,5.627,0,0,0-2.12-1.168,11.319,11.319,0,0,0-3.339-.406,11.1,11.1,0,0,0-3.237.381,5.741,5.741,0,0,0-1.968,1.016,5.005,5.005,0,0,0-1.206,1.447,4.719,4.719,0,0,0-.546,1.8h5.053v3.91a12.814,12.814,0,0,0-1.447.533,4.368,4.368,0,0,0-1.409,1,5.21,5.21,0,0,0-1.066,1.752,7.786,7.786,0,0,0-.419,2.78V156Zm22.289-32.932a1.951,1.951,0,1,0-.571,1.384A1.885,1.885,0,0,0,129.552,123.068Zm2.564,1.447a12.337,12.337,0,0,0,2.234-1.181,15.406,15.406,0,0,0,2.095-1.676,19.41,19.41,0,0,0,1.892-2.082,26.6,26.6,0,0,0,1.65-2.349v5.23a12.571,12.571,0,0,1-1.866,2.019,15.885,15.885,0,0,1-2.628,1.879,16.363,16.363,0,0,1-3.161,1.4,11.2,11.2,0,0,1-3.466.546,8.188,8.188,0,0,1-2.666-.394,5.467,5.467,0,0,1-1.9-1.079,4.393,4.393,0,0,1-1.143-1.612,5.192,5.192,0,0,1-.381-1.993,4.874,4.874,0,0,1,.381-1.917,5.12,5.12,0,0,1,1.028-1.574,4.849,4.849,0,0,1,1.523-1.066,4.5,4.5,0,0,1,1.866-.394,4.72,4.72,0,0,1,1.879.381,4.791,4.791,0,0,1,2.564,2.552,4.629,4.629,0,0,1,.381,1.866,3.987,3.987,0,0,1-.1.863A2.423,2.423,0,0,1,132.117,124.516ZM152.378,149.7a13.637,13.637,0,0,1,1.739-1.5,12.09,12.09,0,0,1,2.222-1.282,25.327,25.327,0,0,1,2.755-1.028,20.425,20.425,0,0,1,4.2-.711V129.746h6.322v15.387a9.45,9.45,0,0,1,2.438.508,6.6,6.6,0,0,1,2.006,1.117,5.013,5.013,0,0,1,1.358,1.765,5.7,5.7,0,0,1,.5,2.45,5.016,5.016,0,0,1-1.625,4.063,7.686,7.686,0,0,1-5.027,1.371,5.737,5.737,0,0,1-4.354-1.688,6.694,6.694,0,0,1-1.612-4.812v-.863a12.377,12.377,0,0,0-3.9.927,14.176,14.176,0,0,0-2.844,1.638,14.586,14.586,0,0,0-2.209,2.069A17.2,17.2,0,0,0,152.632,156h-6.6V138.887l-.2-.025a4.88,4.88,0,0,1-1.625-.482,4.452,4.452,0,0,1-2.2-2.412,4.916,4.916,0,0,1-.317-1.8,5.254,5.254,0,0,1,.381-2.082,4.038,4.038,0,0,1,1.092-1.5,4.715,4.715,0,0,1,1.688-.914,7.182,7.182,0,0,1,2.146-.3A5.454,5.454,0,0,1,150.8,130.8a5.71,5.71,0,0,1,1.574,4.431Zm17.24,1.5a2.414,2.414,0,0,0,.343,1.473,1.2,1.2,0,0,0,1,.432,1.131,1.131,0,0,0,.914-.432,2,2,0,0,0,.355-1.295q0-2.158-2.615-2.437Zm-21.176-17.037a1.951,1.951,0,1,0-.571,1.384A1.885,1.885,0,0,0,148.443,134.164Zm85.782-4.443v17.012l.2.025a4.778,4.778,0,0,1,1.638.482,4.564,4.564,0,0,1,1.308.99,4.509,4.509,0,0,1,.876,1.422,4.916,4.916,0,0,1,.317,1.8,5.277,5.277,0,0,1-.381,2.069,4.016,4.016,0,0,1-1.092,1.511,4.729,4.729,0,0,1-1.676.914,7.149,7.149,0,0,1-2.158.3,5.454,5.454,0,0,1-3.809-1.435,5.71,5.71,0,0,1-1.574-4.431V129.721Zm-2.412,21.734a1.951,1.951,0,1,0,.571-1.384A1.885,1.885,0,0,0,231.813,151.455Zm17.16-10.816a1.951,1.951,0,1,0,.571-1.384A1.885,1.885,0,0,0,248.973,140.639Zm29.479,8.074a8.67,8.67,0,0,1-.482,2.945,6.238,6.238,0,0,1-1.435,2.311,6.488,6.488,0,0,1-2.361,1.5,9.11,9.11,0,0,1-3.237.533H257.123v-8.658a22.743,22.743,0,0,1,.229-3.542,7.768,7.768,0,0,1,.736-2.374,5.626,5.626,0,0,1,1.32-1.663,14.249,14.249,0,0,1,1.955-1.384,5.881,5.881,0,0,0-.254-1.739,3.758,3.758,0,0,0-.876-1.485,5.238,5.238,0,0,0-1.638-1.13,6.046,6.046,0,0,0-2.539-.47,8.416,8.416,0,0,0-3.555.724,5.326,5.326,0,0,0-2.209,1.638,1.051,1.051,0,0,1,.317-.063q.19-.013.317-.013a5.121,5.121,0,0,1,1.942.355,4.605,4.605,0,0,1,1.511.978,4.342,4.342,0,0,1,.99,1.511,5.554,5.554,0,0,1,0,3.91,4.342,4.342,0,0,1-.99,1.511,4.605,4.605,0,0,1-1.511.978,5.121,5.121,0,0,1-1.942.355,5.473,5.473,0,0,1-2.4-.5,4.949,4.949,0,0,1-1.739-1.384,6.015,6.015,0,0,1-1.066-2.133,9.96,9.96,0,0,1-.355-2.742,9.453,9.453,0,0,1,.736-3.771,7.937,7.937,0,0,1,2.184-2.945,10.314,10.314,0,0,1,3.593-1.917,16.419,16.419,0,0,1,4.989-.686,15.359,15.359,0,0,1,4.38.635,10.731,10.731,0,0,1,3.631,1.8,7.762,7.762,0,0,1,2.272,2.856,8.817,8.817,0,0,1,.787,3.771,12.313,12.313,0,0,0-2.133,1.473,6.12,6.12,0,0,0-1.384,1.752,7.8,7.8,0,0,0-.749,2.272,17.355,17.355,0,0,0-.229,3.009v4.012h5.18a3.789,3.789,0,0,0,2.564-.812,3.114,3.114,0,0,0,.939-2.488v-5.129a11.743,11.743,0,0,0-.1-1.663,4.347,4.347,0,0,0-.33-1.193,2.358,2.358,0,0,0-.6-.812,3,3,0,0,0-.9-.521v-3.072a7.587,7.587,0,0,0,2.2-1.282,4.389,4.389,0,0,0,1.143-1.587,7.094,7.094,0,0,0,.482-1.993q.114-1.1.241-2.526h6.475a19.223,19.223,0,0,1-.5,3.136,8.224,8.224,0,0,1-1,2.374,7.52,7.52,0,0,1-1.7,1.866,13.783,13.783,0,0,1-2.564,1.562,4,4,0,0,1,1.295.635,4.528,4.528,0,0,1,1.117,1.181,6.3,6.3,0,0,1,.774,1.7,7.665,7.665,0,0,1,.292,2.2Zm3.931-20.566q-3.123-.508-5.992-.851t-5.662-.546q-2.793-.2-5.6-.279t-5.8-.076a8.512,8.512,0,0,1,3.618-5.116,12.833,12.833,0,0,1,7.147-1.79,14.429,14.429,0,0,1,2.209.165,16.452,16.452,0,0,1,2.107.47v-2.742h3.047v4.139a10.965,10.965,0,0,1,1.879,1.422v-5.561h3.047Zm-12.264-6.094q-4.621,0-5.789,2.311,3.631,0,6.855.2t6.2.584a6.286,6.286,0,0,0-1.117-1.181,7.109,7.109,0,0,0-1.6-.99,10.286,10.286,0,0,0-2.057-.673A11.469,11.469,0,0,0,270.119,122.053Zm8.988-.939h2.844v6.7h-2.844Zm11.451,24.375a5.684,5.684,0,0,1,1.587-4.431,5.466,5.466,0,0,1,3.8-1.435,7.149,7.149,0,0,1,2.158.3,4.73,4.73,0,0,1,1.676.914,4.037,4.037,0,0,1,1.092,1.5,5.254,5.254,0,0,1,.381,2.082,5.018,5.018,0,0,1-.317,1.815,4.361,4.361,0,0,1-.889,1.435,4.727,4.727,0,0,1-2.958,1.473l-.178.025q.025.939,1.333,1.523a11.419,11.419,0,0,0,4.3.584,10.394,10.394,0,0,0,2.933-.33,5.466,5.466,0,0,0,1.828-.927,4.278,4.278,0,0,0,1.219-1.663,6.06,6.06,0,0,0,.47-2.463v-5.053a6.939,6.939,0,0,0-.6-3.1,5.2,5.2,0,0,0-1.511-1.879,6.625,6.625,0,0,0-2.361-1.054,14.153,14.153,0,0,0-3.453-.368,21.537,21.537,0,0,0-3.136.241,27.028,27.028,0,0,0-3.212.673,25.175,25.175,0,0,0-2.983,1.016,16.077,16.077,0,0,0-2.45,1.244v-5.84a12.169,12.169,0,0,1,2.361-1.092,20.6,20.6,0,0,1,2.831-.749,29.923,29.923,0,0,1,3.174-.432q1.663-.14,3.415-.14,7.084,0,10.664,2.7t3.58,7.909v5.764a13.893,13.893,0,0,1-.7,4.621,7.689,7.689,0,0,1-2.234,3.313,10.045,10.045,0,0,1-3.961,2.006,22.24,22.24,0,0,1-5.878.673,22.7,22.7,0,0,1-5.789-.622,10.2,10.2,0,0,1-3.682-1.7,5.968,5.968,0,0,1-1.942-2.564,8.8,8.8,0,0,1-.571-3.187Zm3.936-1.066a1.951,1.951,0,1,0,.571-1.384A1.885,1.885,0,0,0,294.494,144.422ZM346.642,156a12.923,12.923,0,0,0-1.752-2.247,22.026,22.026,0,0,0-2.272-2.044,13.187,13.187,0,0,0-3.3-1.777,11.637,11.637,0,0,0-3.339-.889v.863a6.694,6.694,0,0,1-1.612,4.812,5.737,5.737,0,0,1-4.354,1.688,7.686,7.686,0,0,1-5.027-1.371,5.016,5.016,0,0,1-1.625-4.062,5.7,5.7,0,0,1,.5-2.45,5.013,5.013,0,0,1,1.358-1.765,6.6,6.6,0,0,1,2.006-1.117,9.45,9.45,0,0,1,2.438-.508v-6.246l-.229-.025a4.88,4.88,0,0,1-1.625-.482,4.452,4.452,0,0,1-2.2-2.412,4.917,4.917,0,0,1-.317-1.8,5.254,5.254,0,0,1,.381-2.082,4.037,4.037,0,0,1,1.092-1.5,4.715,4.715,0,0,1,1.688-.914,7.182,7.182,0,0,1,2.146-.3A5.454,5.454,0,0,1,334.4,130.8a5.71,5.71,0,0,1,1.574,4.431v9.953a17.35,17.35,0,0,1,3.491.66,20.8,20.8,0,0,1,3.364,1.181,23.322,23.322,0,0,1,2.3,1.257A8.749,8.749,0,0,1,346.9,149.7V129.746h6.322V156Zm-14.6-21.836a1.951,1.951,0,1,0-.571,1.384A1.885,1.885,0,0,0,332.043,134.164Zm-2.387,14.777q-2.615.279-2.615,2.438a2,2,0,0,0,.355,1.295,1.131,1.131,0,0,0,.914.432,1.2,1.2,0,0,0,1-.432,2.414,2.414,0,0,0,.343-1.473Zm41.256,2.184a15.975,15.975,0,0,0,1.8-1.422,4.88,4.88,0,0,0,1.117-1.5,4.293,4.293,0,0,1-1.879-1.676,4.949,4.949,0,0,1-.686-2.641,5.219,5.219,0,0,1,.355-1.955,4.342,4.342,0,0,1,.99-1.511,4.605,4.605,0,0,1,1.511-.978,5.485,5.485,0,0,1,3.885,0,4.455,4.455,0,0,1,1.523,1.016,4.574,4.574,0,0,1,1,1.587,5.664,5.664,0,0,1,.355,2.044,7.589,7.589,0,0,1-.47,2.679,10.774,10.774,0,0,1-1.244,2.374,13.881,13.881,0,0,1-1.79,2.095,25.438,25.438,0,0,1-2.12,1.828q-1.1.851-2.234,1.574L370.912,156h-6.348v-5.281a14.1,14.1,0,0,0-.279-2.717q-.279-1.422-.622-2.907t-.635-3a15.822,15.822,0,0,1-.292-3.009,8.785,8.785,0,0,1,3.009-6.906,10.035,10.035,0,0,1,3-1.815,14.634,14.634,0,0,1,3.339-.876l4.7,3.682,4.367-3.631a14.024,14.024,0,0,1,3.58.876,9.345,9.345,0,0,1,3.047,1.917,9.167,9.167,0,0,1,2.12,3.11,11.343,11.343,0,0,1,.8,4.481V156h-6.322V141.35q0-.99-.076-1.942a7.17,7.17,0,0,0-.355-1.765,4.866,4.866,0,0,0-.965-1.6,6.078,6.078,0,0,0-2.057-1.422l-4.139,3.428-4.24-3.428a6.114,6.114,0,0,0-1.93,1.295,4.709,4.709,0,0,0-1.028,1.5,6.3,6.3,0,0,0-.394,1.549,13.292,13.292,0,0,0-.1,1.65,11.174,11.174,0,0,0,.292,2.425q.292,1.308.635,2.653t.622,2.666a11.942,11.942,0,0,1,.279,2.463Zm7.109-7.236a1.951,1.951,0,1,0-.571,1.384A1.885,1.885,0,0,0,378.021,143.889Zm8.117-24.451h3.555v8.379h-3.555Zm14.807,26.051a5.684,5.684,0,0,1,1.587-4.431,5.466,5.466,0,0,1,3.8-1.435,7.149,7.149,0,0,1,2.158.3,4.73,4.73,0,0,1,1.676.914,4.037,4.037,0,0,1,1.092,1.5,5.254,5.254,0,0,1,.381,2.082,5.018,5.018,0,0,1-.317,1.815,4.361,4.361,0,0,1-.889,1.435,4.727,4.727,0,0,1-2.958,1.473l-.178.025q.025.939,1.333,1.523a11.419,11.419,0,0,0,4.3.584,10.394,10.394,0,0,0,2.933-.33,5.466,5.466,0,0,0,1.828-.927,4.278,4.278,0,0,0,1.219-1.663,6.06,6.06,0,0,0,.47-2.463v-5.053a6.939,6.939,0,0,0-.6-3.1,5.2,5.2,0,0,0-1.511-1.879,6.625,6.625,0,0,0-2.361-1.054,14.153,14.153,0,0,0-3.453-.368,21.537,21.537,0,0,0-3.136.241,27.028,27.028,0,0,0-3.212.673,25.175,25.175,0,0,0-2.983,1.016,16.077,16.077,0,0,0-2.45,1.244v-5.84a12.169,12.169,0,0,1,2.361-1.092,20.6,20.6,0,0,1,2.831-.749,29.923,29.923,0,0,1,3.174-.432q1.663-.14,3.415-.14,7.084,0,10.664,2.7t3.58,7.909v5.764a13.893,13.893,0,0,1-.7,4.621,7.689,7.689,0,0,1-2.234,3.313,10.045,10.045,0,0,1-3.961,2.006,22.24,22.24,0,0,1-5.878.673,22.7,22.7,0,0,1-5.789-.622,10.2,10.2,0,0,1-3.682-1.7,5.968,5.968,0,0,1-1.942-2.564,8.8,8.8,0,0,1-.571-3.187Zm3.936-1.066a1.951,1.951,0,1,0,.571-1.384A1.885,1.885,0,0,0,404.88,144.422Zm38.894,2.26a3.022,3.022,0,0,0-.406.813,8.411,8.411,0,0,0-.3,1.155,13.068,13.068,0,0,0-.19,1.371q-.063.724-.063,1.46V156h-6.348v-6.5a10.824,10.824,0,0,0-.317-2.412q-.292-1.168-.622-2.4t-.609-2.6a15.025,15.025,0,0,1-.279-3,8.495,8.495,0,0,1,1-4.177,8.755,8.755,0,0,1,2.831-3.047A13.673,13.673,0,0,1,442.873,130a23.957,23.957,0,0,1,5.726-.635,23.641,23.641,0,0,1,5.9.673,12.656,12.656,0,0,1,4.405,2.006,8.691,8.691,0,0,1,2.742,3.326,10.7,10.7,0,0,1,.939,4.608V156h-6.322V140.563a7.155,7.155,0,0,0-.381-2.349,4.786,4.786,0,0,0-1.206-1.9,6.372,6.372,0,0,0-2.311-1.333,11.311,11.311,0,0,0-3.771-.533,11.834,11.834,0,0,0-3.771.508,6.293,6.293,0,0,0-2.285,1.257,4.622,4.622,0,0,0-1.181,1.752,5.851,5.851,0,0,0-.381,2.095,8.1,8.1,0,0,0,.267,2.158q.267.965.571,2.031a6.746,6.746,0,0,1,.99-1.917,7.021,7.021,0,0,1,1.46-1.46,6.465,6.465,0,0,1,1.752-.927,5.726,5.726,0,0,1,1.866-.317,5.664,5.664,0,0,1,2.044.355,4.574,4.574,0,0,1,1.587,1,4.455,4.455,0,0,1,1.016,1.523,5.485,5.485,0,0,1,0,3.885,4.605,4.605,0,0,1-.978,1.511,4.342,4.342,0,0,1-1.511.99,5.218,5.218,0,0,1-1.955.355,5.021,5.021,0,0,1-2.641-.673A4.191,4.191,0,0,1,443.775,146.682Zm4.316-4.189a1.951,1.951,0,1,0,1.384.571A1.885,1.885,0,0,0,448.091,142.492Zm39.885-2.184a5.5,5.5,0,0,0-1.688-4.418,7.8,7.8,0,0,0-5.167-1.447,16.481,16.481,0,0,0-2.729.241,21.331,21.331,0,0,0-2.818.673,19.981,19.981,0,0,0-2.615,1.016,13.66,13.66,0,0,0-2.146,1.244v-5.84a8.788,8.788,0,0,1,2.044-1.092,16.815,16.815,0,0,1,2.539-.749,24.449,24.449,0,0,1,2.831-.432q1.473-.14,2.895-.14,6.7,0,9.94,2.717t3.237,7.9v10.563a5.925,5.925,0,0,1-1.5,4.354,5.232,5.232,0,0,1-3.885,1.511,7.182,7.182,0,0,1-2.146-.3,4.715,4.715,0,0,1-1.688-.914,4.015,4.015,0,0,1-1.092-1.511,5.277,5.277,0,0,1-.381-2.069,4.922,4.922,0,0,1,.343-1.879,4.453,4.453,0,0,1,.939-1.447,4.526,4.526,0,0,1,1.384-.965,5.137,5.137,0,0,1,1.7-.432Zm2.387,11.3a1.951,1.951,0,1,0-.571,1.384A1.885,1.885,0,0,0,490.362,151.607ZM519.76,156V140.563a5.986,5.986,0,0,0-1.65-4.545q-1.65-1.574-5.205-1.574a16.481,16.481,0,0,0-2.729.241,21.331,21.331,0,0,0-2.818.673,19.981,19.981,0,0,0-2.615,1.016,13.66,13.66,0,0,0-2.146,1.244v-5.84a8.788,8.788,0,0,1,2.044-1.092,16.815,16.815,0,0,1,2.539-.749,24.449,24.449,0,0,1,2.831-.432q1.473-.14,2.895-.14,6.7,0,9.94,2.717t3.237,7.9V156Zm37.9,0a12.92,12.92,0,0,0-1.752-2.247,22.026,22.026,0,0,0-2.272-2.044,13.187,13.187,0,0,0-3.3-1.777,11.637,11.637,0,0,0-3.339-.889v.863a6.694,6.694,0,0,1-1.612,4.812,5.737,5.737,0,0,1-4.354,1.688,7.686,7.686,0,0,1-5.027-1.371,5.016,5.016,0,0,1-1.625-4.062,5.7,5.7,0,0,1,.5-2.45,5.013,5.013,0,0,1,1.358-1.765,6.6,6.6,0,0,1,2.006-1.117,9.45,9.45,0,0,1,2.438-.508v-6.246l-.229-.025a4.88,4.88,0,0,1-1.625-.482,4.452,4.452,0,0,1-2.2-2.412,4.916,4.916,0,0,1-.317-1.8,5.254,5.254,0,0,1,.381-2.082,4.038,4.038,0,0,1,1.092-1.5,4.715,4.715,0,0,1,1.688-.914,7.182,7.182,0,0,1,2.146-.3,5.454,5.454,0,0,1,3.809,1.435A5.71,5.71,0,0,1,547,135.23v9.953a17.35,17.35,0,0,1,3.491.66,20.8,20.8,0,0,1,3.364,1.181,23.322,23.322,0,0,1,2.3,1.257,8.749,8.749,0,0,1,1.765,1.422V129.746h6.322V156Zm-14.6-21.836a1.951,1.951,0,1,0-.571,1.384A1.885,1.885,0,0,0,543.065,134.164Zm-2.387,14.777q-2.615.279-2.615,2.438a2,2,0,0,0,.355,1.295,1.131,1.131,0,0,0,.914.432,1.2,1.2,0,0,0,1-.432,2.414,2.414,0,0,0,.343-1.473Zm41.2-19.221v17.012l.2.025a4.778,4.778,0,0,1,1.638.482,4.564,4.564,0,0,1,1.308.99,4.51,4.51,0,0,1,.876,1.422,4.916,4.916,0,0,1,.317,1.8,5.277,5.277,0,0,1-.381,2.069,4.016,4.016,0,0,1-1.092,1.511,4.729,4.729,0,0,1-1.676.914,7.149,7.149,0,0,1-2.158.3,5.454,5.454,0,0,1-3.809-1.435,5.71,5.71,0,0,1-1.574-4.431V129.721Zm-2.412,21.734a1.951,1.951,0,1,0,.571-1.384A1.885,1.885,0,0,0,579.471,151.455ZM597.444,156V138.887l-.2-.025a4.88,4.88,0,0,1-1.625-.482,4.452,4.452,0,0,1-2.2-2.412,4.916,4.916,0,0,1-.317-1.8,5.254,5.254,0,0,1,.381-2.082,4.038,4.038,0,0,1,1.092-1.5,4.715,4.715,0,0,1,1.688-.914,7.182,7.182,0,0,1,2.146-.3,5.454,5.454,0,0,1,3.809,1.435,5.71,5.71,0,0,1,1.574,4.431v15.717h6.8a3.751,3.751,0,0,0,2.564-.825,3.121,3.121,0,0,0,.939-2.476V119.59h6.322v29.123a8.671,8.671,0,0,1-.482,2.945,6.238,6.238,0,0,1-1.435,2.311,6.488,6.488,0,0,1-2.361,1.5,9.11,9.11,0,0,1-3.237.533Zm2.412-21.836a1.951,1.951,0,1,0-.571,1.384A1.885,1.885,0,0,0,599.856,134.164Zm20.765-8.455a2.224,2.224,0,0,0,.724-.1,1.812,1.812,0,0,0,.5-.254,2.093,2.093,0,0,1-1.536-.7,2.261,2.261,0,0,1-.622-1.587,2.328,2.328,0,0,1,.6-1.574,2.246,2.246,0,0,1,1.79-.686,2.341,2.341,0,0,1,1.854.749,2.756,2.756,0,0,1,.66,1.892,5.463,5.463,0,0,1-.279,1.714,4.883,4.883,0,0,1-.812,1.523,4.244,4.244,0,0,1-1.295,1.092,3.523,3.523,0,0,1-1.727.419,4.456,4.456,0,0,1-2.044-.457,14.569,14.569,0,0,1-1.676-.99q-.774-.533-1.473-.99a2.627,2.627,0,0,0-1.46-.457,2.4,2.4,0,0,0-1.752.7,9.174,9.174,0,0,0-1.473,2.069,12.486,12.486,0,0,1-1.6-.927,7.606,7.606,0,0,1-1.358-1.181,5.139,5.139,0,0,1-.939-1.485,4.687,4.687,0,0,1-.343-1.815,4.628,4.628,0,0,1,.47-2.184,3.885,3.885,0,0,1,1.282-1.435,5.714,5.714,0,0,1,1.866-.8,9.569,9.569,0,0,1,2.247-.254h6.17a7.311,7.311,0,0,0,1.828-.229,9.961,9.961,0,0,0,1.688-.6,9.007,9.007,0,0,0,1.46-.838,7.616,7.616,0,0,0,1.117-.952v2.971a4.665,4.665,0,0,1-1.054,1.028,5.258,5.258,0,0,1-1.282.66,7.316,7.316,0,0,1-1.4.343,9.867,9.867,0,0,1-1.4.1H612.09a2.8,2.8,0,0,0-2.031.609,2.13,2.13,0,0,0-.609,1.574,2.228,2.228,0,0,0,.279,1.231,1.687,1.687,0,0,0,.635.6,3.644,3.644,0,0,1,3.453-1.752,4.718,4.718,0,0,1,2.069.47,17.067,17.067,0,0,1,1.828,1.016q.851.546,1.574,1.016A2.5,2.5,0,0,0,620.621,125.709Zm.406-2.691a1.155,1.155,0,0,0,.279.813.982.982,0,0,0,1.422,0,1.11,1.11,0,0,0,0-1.473.982.982,0,0,0-1.422,0A.96.96,0,0,0,621.027,123.018ZM639.74,149.7a13.637,13.637,0,0,1,1.739-1.5,12.09,12.09,0,0,1,2.222-1.282,25.326,25.326,0,0,1,2.755-1.028,20.425,20.425,0,0,1,4.2-.711V129.746h6.322v15.387a9.45,9.45,0,0,1,2.438.508,6.6,6.6,0,0,1,2.006,1.117,5.013,5.013,0,0,1,1.358,1.765,5.7,5.7,0,0,1,.5,2.45,5.016,5.016,0,0,1-1.625,4.063,7.686,7.686,0,0,1-5.027,1.371,5.737,5.737,0,0,1-4.354-1.688,6.694,6.694,0,0,1-1.612-4.812v-.863a12.377,12.377,0,0,0-3.9.927,14.175,14.175,0,0,0-2.844,1.638,14.588,14.588,0,0,0-2.209,2.069A17.2,17.2,0,0,0,639.994,156h-6.6V138.887l-.2-.025a4.88,4.88,0,0,1-1.625-.482,4.452,4.452,0,0,1-2.2-2.412,4.916,4.916,0,0,1-.317-1.8,5.254,5.254,0,0,1,.381-2.082,4.038,4.038,0,0,1,1.092-1.5,4.715,4.715,0,0,1,1.688-.914,7.182,7.182,0,0,1,2.146-.3,5.454,5.454,0,0,1,3.809,1.435,5.71,5.71,0,0,1,1.574,4.431Zm17.24,1.5a2.414,2.414,0,0,0,.343,1.473,1.2,1.2,0,0,0,1,.432,1.131,1.131,0,0,0,.914-.432,2,2,0,0,0,.355-1.295q0-2.158-2.615-2.437ZM635.8,134.164a1.951,1.951,0,1,0-.571,1.384A1.885,1.885,0,0,0,635.8,134.164Zm42.424,12.568.2.025a4.778,4.778,0,0,1,1.638.482,4.564,4.564,0,0,1,1.308.99,4.51,4.51,0,0,1,.876,1.422,4.916,4.916,0,0,1,.317,1.8,5.277,5.277,0,0,1-.381,2.069,4.016,4.016,0,0,1-1.092,1.511,4.729,4.729,0,0,1-1.676.914,7.149,7.149,0,0,1-2.158.3,5.408,5.408,0,0,1-3.8-1.435,5.737,5.737,0,0,1-1.562-4.431V114.131a8.691,8.691,0,0,0-.076-1.295,3.027,3.027,0,0,0-.19-.736.574.574,0,0,0-.267-.317.85.85,0,0,0-.33-.063.809.809,0,0,0-.343.076.731.731,0,0,0-.3.33,3.045,3.045,0,0,0-.254.724,11.979,11.979,0,0,0-.216,1.282l-.406,3.021a14.051,14.051,0,0,1-.5,2.247,5.208,5.208,0,0,1-.876,1.7,3.769,3.769,0,0,1-1.384,1.079,4.8,4.8,0,0,1-2.019.381,5.049,5.049,0,0,1-2.069-.381,3.565,3.565,0,0,1-1.4-1.092,5.545,5.545,0,0,1-.863-1.7,12.193,12.193,0,0,1-.47-2.234l-.812-6.2a7.364,7.364,0,0,0-.432-1.714,6.206,6.206,0,0,0-.66-1.282h4.063a4.367,4.367,0,0,1,.521,1.155,12.627,12.627,0,0,1,.343,1.714l.889,6.145a5.283,5.283,0,0,0,.343,1.46.578.578,0,0,0,.521.368.631.631,0,0,0,.508-.355,4.167,4.167,0,0,0,.381-1.473l.457-3.5a9.909,9.909,0,0,1,.6-2.463,4.468,4.468,0,0,1,1.181-1.714,4.866,4.866,0,0,1,1.917-1,10.441,10.441,0,0,1,2.831-.33,6.526,6.526,0,0,1,2.133.444,5.1,5.1,0,0,1,2.019,1.257,4.894,4.894,0,0,1,1.13,1.955,8.615,8.615,0,0,1,.355,2.564Zm-2.412,4.723a1.951,1.951,0,1,0,.571-1.384A1.885,1.885,0,0,0,675.816,151.455ZM693.662,156V138.887l-.2-.025a4.88,4.88,0,0,1-1.625-.482,4.452,4.452,0,0,1-2.2-2.412,4.916,4.916,0,0,1-.317-1.8,5.254,5.254,0,0,1,.381-2.082,4.038,4.038,0,0,1,1.092-1.5,4.715,4.715,0,0,1,1.688-.914,7.182,7.182,0,0,1,2.146-.3,5.454,5.454,0,0,1,3.809,1.435,5.71,5.71,0,0,1,1.574,4.431v15.717h6.8a3.751,3.751,0,0,0,2.564-.825,3.121,3.121,0,0,0,.939-2.476V119.59h6.322v29.123a8.671,8.671,0,0,1-.482,2.945,6.238,6.238,0,0,1-1.435,2.311,6.488,6.488,0,0,1-2.361,1.5,9.11,9.11,0,0,1-3.237.533Zm2.412-21.836a1.951,1.951,0,1,0-.571,1.384A1.885,1.885,0,0,0,696.074,134.164ZM19.6,246.732l.2.025a4.779,4.779,0,0,1,1.638.482,4.564,4.564,0,0,1,1.308.99,4.509,4.509,0,0,1,.876,1.422,4.916,4.916,0,0,1,.317,1.8,5.277,5.277,0,0,1-.381,2.069,4.015,4.015,0,0,1-1.092,1.511,4.729,4.729,0,0,1-1.676.914,7.149,7.149,0,0,1-2.158.3,5.408,5.408,0,0,1-3.8-1.435,5.737,5.737,0,0,1-1.562-4.431V214.131a8.69,8.69,0,0,0-.076-1.295,3.027,3.027,0,0,0-.19-.736.574.574,0,0,0-.267-.317.85.85,0,0,0-.33-.063.809.809,0,0,0-.343.076.731.731,0,0,0-.3.33,3.044,3.044,0,0,0-.254.724,11.984,11.984,0,0,0-.216,1.282l-.406,3.021a14.056,14.056,0,0,1-.5,2.247,5.208,5.208,0,0,1-.876,1.7,3.769,3.769,0,0,1-1.384,1.079,4.8,4.8,0,0,1-2.019.381,5.048,5.048,0,0,1-2.069-.381,3.565,3.565,0,0,1-1.4-1.092,5.544,5.544,0,0,1-.863-1.7,12.2,12.2,0,0,1-.47-2.234l-.812-6.2a7.363,7.363,0,0,0-.432-1.714,6.207,6.207,0,0,0-.66-1.282H3.479A4.367,4.367,0,0,1,4,209.116a12.626,12.626,0,0,1,.343,1.714l.889,6.145a5.283,5.283,0,0,0,.343,1.46.578.578,0,0,0,.521.368.631.631,0,0,0,.508-.355,4.167,4.167,0,0,0,.381-1.473l.457-3.5a9.91,9.91,0,0,1,.6-2.463,4.468,4.468,0,0,1,1.181-1.714,4.866,4.866,0,0,1,1.917-1,10.441,10.441,0,0,1,2.831-.33,6.527,6.527,0,0,1,2.133.444,5.1,5.1,0,0,1,2.019,1.257,4.894,4.894,0,0,1,1.13,1.955,8.616,8.616,0,0,1,.355,2.564Zm-2.412,4.723a1.951,1.951,0,1,0,.571-1.384A1.885,1.885,0,0,0,17.189,251.455Zm22.568-.33a15.976,15.976,0,0,0,1.8-1.422,4.88,4.88,0,0,0,1.117-1.5,4.293,4.293,0,0,1-1.879-1.676,4.949,4.949,0,0,1-.686-2.641,5.218,5.218,0,0,1,.355-1.955,4.342,4.342,0,0,1,.99-1.511,4.605,4.605,0,0,1,1.511-.978,5.485,5.485,0,0,1,3.885,0,4.455,4.455,0,0,1,1.523,1.016,4.574,4.574,0,0,1,1,1.587,5.664,5.664,0,0,1,.355,2.044,7.589,7.589,0,0,1-.47,2.679,10.774,10.774,0,0,1-1.244,2.374,13.882,13.882,0,0,1-1.79,2.095,25.436,25.436,0,0,1-2.12,1.828q-1.1.851-2.234,1.574L39.758,256H33.41v-4.926a17.186,17.186,0,0,0-.279-3.2q-.279-1.473-.622-2.882t-.635-2.844a15.325,15.325,0,0,1-.292-3.06,8.495,8.495,0,0,1,1-4.177,8.755,8.755,0,0,1,2.831-3.047A13.673,13.673,0,0,1,39.821,230a23.956,23.956,0,0,1,5.726-.635,23.8,23.8,0,0,1,5.865.66,12.773,12.773,0,0,1,4.405,1.98,8.656,8.656,0,0,1,2.768,3.313,10.7,10.7,0,0,1,.952,4.659V256H53.215V240.486a6.739,6.739,0,0,0-.33-2.12,5.469,5.469,0,0,0-1.041-1.841,5.866,5.866,0,0,0-2.171-1.473,10.667,10.667,0,0,0-4.126-.635,10.536,10.536,0,0,0-3.986.609,6.024,6.024,0,0,0-2.158,1.4,5.834,5.834,0,0,0-1.092,1.727,5.221,5.221,0,0,0-.381,1.98,13.26,13.26,0,0,0,.292,2.818q.292,1.346.635,2.653t.622,2.59a12.312,12.312,0,0,1,.279,2.628Zm7.109-7.236a1.951,1.951,0,1,0-.571,1.384A1.885,1.885,0,0,0,46.867,243.889Zm6.014-21.836a3.77,3.77,0,0,1-.343.546,2.41,2.41,0,0,1-.559.533,3.313,3.313,0,0,1-.812.406,3.248,3.248,0,0,1-1.079.165,3.2,3.2,0,0,1-1.257-.241,2.978,2.978,0,0,1-.99-.673,3.19,3.19,0,0,1-.66-1.016,3.293,3.293,0,0,1-.241-1.27,2.811,2.811,0,0,1,1.066-2.209,4.678,4.678,0,0,1,3.123-.914,6.635,6.635,0,0,1,2.057.3,4.956,4.956,0,0,1,1.612.851,3.729,3.729,0,0,1,1.041,1.333,4.085,4.085,0,0,1,.368,1.752,4.487,4.487,0,0,1-2.26,4.012,6.729,6.729,0,0,0,3.428-.749,5.119,5.119,0,0,0,1.93-1.942,7.59,7.59,0,0,0,.863-2.653,24.154,24.154,0,0,0,.229-2.907h4.139q-.127,1.727-.343,3.174a11.8,11.8,0,0,1-.673,2.6,6.977,6.977,0,0,1-1.219,2.031,6.1,6.1,0,0,1-1.955,1.46,10.731,10.731,0,0,1-2.907.876,24.627,24.627,0,0,1-4.075.292h-3.2v-2.234a4.028,4.028,0,0,0,1.942-1.27A3.376,3.376,0,0,0,52.881,222.053Zm-3.961-1.523a1.43,1.43,0,1,0,.419-1A1.368,1.368,0,0,0,48.92,220.529Zm34.709,3.123v23.08l.2.025a4.779,4.779,0,0,1,1.638.482,4.564,4.564,0,0,1,1.308.99,4.509,4.509,0,0,1,.876,1.422,4.916,4.916,0,0,1,.317,1.8,5.277,5.277,0,0,1-.381,2.069,4.015,4.015,0,0,1-1.092,1.511,4.729,4.729,0,0,1-1.676.914,7.149,7.149,0,0,1-2.158.3,5.454,5.454,0,0,1-3.809-1.435,5.71,5.71,0,0,1-1.574-4.431V223.145a6.546,6.546,0,0,0-.267-1.638,2.433,2.433,0,0,0-.66-1.079,2.615,2.615,0,0,0-1.143-.584,7.186,7.186,0,0,0-1.739-.178q-1.955,0-3.644.14a18.206,18.206,0,0,0-3.06.5v-3.4a11.52,11.52,0,0,1,.521-3.745,6.872,6.872,0,0,1,1.727-2.818,7.683,7.683,0,0,1,3.047-1.765,14.524,14.524,0,0,1,4.481-.609q.838,0,1.866.076t2.133.152l2.209.152q1.1.076,2.044.076,1.676,0,2.831-.063t1.968-.19v4.189q-.432.051-.889.089t-.99.063q-.533.025-1.206.038t-1.536.013q-.914,0-2.107-.076l-2.387-.152q-1.193-.076-2.234-.152T76.57,212.1a5.763,5.763,0,0,0-2.158.292,3.005,3.005,0,0,0-1.028.7,2.965,2.965,0,0,0-.584,1.016,5.293,5.293,0,0,0-.216,1.7,8.948,8.948,0,0,1,1.13-.152q.647-.051,2.2-.051a16.344,16.344,0,0,1,3,.3,5.682,5.682,0,0,1,2.666,1.181,5.109,5.109,0,0,1,1.536,2.45A14.542,14.542,0,0,1,83.629,223.652Zm-2.412,27.8a1.951,1.951,0,1,0,.571-1.384A1.885,1.885,0,0,0,81.216,251.455Zm23.076-.33a15.976,15.976,0,0,0,1.8-1.422,4.88,4.88,0,0,0,1.117-1.5,4.293,4.293,0,0,1-1.879-1.676,4.949,4.949,0,0,1-.686-2.641,5.219,5.219,0,0,1,.355-1.955,4.342,4.342,0,0,1,.99-1.511,4.605,4.605,0,0,1,1.511-.978,5.485,5.485,0,0,1,3.885,0,4.455,4.455,0,0,1,1.523,1.016,4.574,4.574,0,0,1,1,1.587,5.664,5.664,0,0,1,.355,2.044,7.589,7.589,0,0,1-.47,2.679,10.774,10.774,0,0,1-1.244,2.374,13.882,13.882,0,0,1-1.79,2.095,25.437,25.437,0,0,1-2.12,1.828q-1.1.851-2.234,1.574L104.292,256H97.945v-4.926a17.186,17.186,0,0,0-.279-3.2q-.279-1.473-.622-2.882t-.635-2.844a15.325,15.325,0,0,1-.292-3.06,8.495,8.495,0,0,1,1-4.177,8.755,8.755,0,0,1,2.831-3.047A13.673,13.673,0,0,1,104.356,230a26.263,26.263,0,0,1,11.591.025,12.773,12.773,0,0,1,4.405,1.98,8.656,8.656,0,0,1,2.768,3.313,10.7,10.7,0,0,1,.952,4.659V256H117.75V240.486a6.738,6.738,0,0,0-.33-2.12,5.469,5.469,0,0,0-1.041-1.841,5.866,5.866,0,0,0-2.171-1.473,10.667,10.667,0,0,0-4.126-.635,10.536,10.536,0,0,0-3.986.609,6.024,6.024,0,0,0-2.158,1.4,5.834,5.834,0,0,0-1.092,1.727,5.221,5.221,0,0,0-.381,1.98,13.26,13.26,0,0,0,.292,2.818q.292,1.346.635,2.653t.622,2.59a12.312,12.312,0,0,1,.279,2.628Zm7.109-7.236a1.951,1.951,0,1,0-.571,1.384A1.885,1.885,0,0,0,111.4,243.889Zm27.189-9.725a1.951,1.951,0,1,0,.571-1.384A1.885,1.885,0,0,0,138.591,234.164ZM134.656,256v-7.439a5.654,5.654,0,0,1,.33-2.044,4.532,4.532,0,0,1,.863-1.435,4.286,4.286,0,0,1,1.193-.927,6.791,6.791,0,0,1,1.295-.521,6.352,6.352,0,0,1-1.295-.533,4.433,4.433,0,0,1-2.057-2.374,5.654,5.654,0,0,1-.33-2.044V235.23a5.71,5.71,0,0,1,1.574-4.431,5.454,5.454,0,0,1,3.809-1.435,7.149,7.149,0,0,1,2.158.3,4.729,4.729,0,0,1,1.676.914,4.038,4.038,0,0,1,1.092,1.5,5.254,5.254,0,0,1,.381,2.082,4.916,4.916,0,0,1-.317,1.8,4.509,4.509,0,0,1-.876,1.422,4.564,4.564,0,0,1-1.308.99,4.778,4.778,0,0,1-1.638.482l-.2.025a2.305,2.305,0,0,0,.457,1.485,3.492,3.492,0,0,0,1.1.914,6.006,6.006,0,0,0,1.358.521q.711.178,1.244.279v3.072q-.533.1-1.244.267a5.51,5.51,0,0,0-1.371.521,3.284,3.284,0,0,0-1.117.99,2.806,2.806,0,0,0-.457,1.676v2.311h8.3a3.659,3.659,0,0,0,2.564-.8,3.121,3.121,0,0,0,.939-2.476v-17.9h6.322v18.967a8.67,8.67,0,0,1-.482,2.945,6.238,6.238,0,0,1-1.435,2.311,6.488,6.488,0,0,1-2.361,1.5,9.11,9.11,0,0,1-3.237.533Zm41.687-9.268.2.025a4.778,4.778,0,0,1,1.638.482,4.564,4.564,0,0,1,1.308.99,4.509,4.509,0,0,1,.876,1.422,4.916,4.916,0,0,1,.317,1.8,5.277,5.277,0,0,1-.381,2.069,4.016,4.016,0,0,1-1.092,1.511,4.729,4.729,0,0,1-1.676.914,7.149,7.149,0,0,1-2.158.3,5.408,5.408,0,0,1-3.8-1.435,5.737,5.737,0,0,1-1.562-4.431V214.131a8.69,8.69,0,0,0-.076-1.295,3.027,3.027,0,0,0-.19-.736.574.574,0,0,0-.267-.317.85.85,0,0,0-.33-.063.809.809,0,0,0-.343.076.731.731,0,0,0-.3.33,3.044,3.044,0,0,0-.254.724,11.983,11.983,0,0,0-.216,1.282l-.406,3.021a14.055,14.055,0,0,1-.5,2.247,5.208,5.208,0,0,1-.876,1.7,3.769,3.769,0,0,1-1.384,1.079,4.8,4.8,0,0,1-2.019.381,5.048,5.048,0,0,1-2.069-.381,3.565,3.565,0,0,1-1.4-1.092,5.544,5.544,0,0,1-.863-1.7,12.194,12.194,0,0,1-.47-2.234l-.812-6.2a7.363,7.363,0,0,0-.432-1.714,6.207,6.207,0,0,0-.66-1.282h4.063a4.367,4.367,0,0,1,.521,1.155,12.626,12.626,0,0,1,.343,1.714l.889,6.145a5.283,5.283,0,0,0,.343,1.46.578.578,0,0,0,.521.368.631.631,0,0,0,.508-.355,4.167,4.167,0,0,0,.381-1.473l.457-3.5a9.91,9.91,0,0,1,.6-2.463,4.468,4.468,0,0,1,1.181-1.714,4.866,4.866,0,0,1,1.917-1,10.441,10.441,0,0,1,2.831-.33,6.527,6.527,0,0,1,2.133.444,5.1,5.1,0,0,1,2.019,1.257,4.894,4.894,0,0,1,1.13,1.955,8.616,8.616,0,0,1,.355,2.564Zm-2.412,4.723a1.951,1.951,0,1,0,.571-1.384A1.885,1.885,0,0,0,173.931,251.455ZM210.718,256a12.921,12.921,0,0,0-1.752-2.247,22.026,22.026,0,0,0-2.272-2.044,13.187,13.187,0,0,0-3.3-1.777,11.637,11.637,0,0,0-3.339-.889v.863a6.694,6.694,0,0,1-1.612,4.812,5.737,5.737,0,0,1-4.354,1.688,7.686,7.686,0,0,1-5.027-1.371,5.016,5.016,0,0,1-1.625-4.062,5.7,5.7,0,0,1,.5-2.45,5.013,5.013,0,0,1,1.358-1.765,6.6,6.6,0,0,1,2.006-1.117,9.45,9.45,0,0,1,2.438-.508v-6.246l-.229-.025a4.88,4.88,0,0,1-1.625-.482,4.452,4.452,0,0,1-2.2-2.412,4.916,4.916,0,0,1-.317-1.8,5.254,5.254,0,0,1,.381-2.082,4.038,4.038,0,0,1,1.092-1.5,4.715,4.715,0,0,1,1.688-.914,7.182,7.182,0,0,1,2.146-.3,5.454,5.454,0,0,1,3.809,1.435,5.71,5.71,0,0,1,1.574,4.431v9.953a17.35,17.35,0,0,1,3.491.66,20.8,20.8,0,0,1,3.364,1.181,23.322,23.322,0,0,1,2.3,1.257,8.749,8.749,0,0,1,1.765,1.422V229.746h6.322V256Zm-14.6-21.836a1.951,1.951,0,1,0-.571,1.384A1.885,1.885,0,0,0,196.118,234.164Zm-2.387,14.777q-2.615.279-2.615,2.438a2,2,0,0,0,.355,1.295,1.131,1.131,0,0,0,.914.432,1.2,1.2,0,0,0,1-.432,2.414,2.414,0,0,0,.343-1.473Zm19.34-29.5h3.555v8.379h-3.555ZM249.206,256a12.921,12.921,0,0,0-1.752-2.247,22.026,22.026,0,0,0-2.272-2.044,13.187,13.187,0,0,0-3.3-1.777,11.637,11.637,0,0,0-3.339-.889v.863a6.694,6.694,0,0,1-1.612,4.812,5.737,5.737,0,0,1-4.354,1.688,7.686,7.686,0,0,1-5.027-1.371,5.016,5.016,0,0,1-1.625-4.062,5.7,5.7,0,0,1,.5-2.45,5.013,5.013,0,0,1,1.358-1.765,6.6,6.6,0,0,1,2.006-1.117,9.45,9.45,0,0,1,2.438-.508v-6.246l-.229-.025a4.88,4.88,0,0,1-1.625-.482,4.452,4.452,0,0,1-2.2-2.412,4.916,4.916,0,0,1-.317-1.8,5.254,5.254,0,0,1,.381-2.082,4.038,4.038,0,0,1,1.092-1.5,4.715,4.715,0,0,1,1.688-.914,7.182,7.182,0,0,1,2.146-.3,5.454,5.454,0,0,1,3.809,1.435,5.71,5.71,0,0,1,1.574,4.431v9.953a17.35,17.35,0,0,1,3.491.66,20.8,20.8,0,0,1,3.364,1.181,23.322,23.322,0,0,1,2.3,1.257,8.749,8.749,0,0,1,1.765,1.422V229.746h6.322V256Zm-14.6-21.836a1.951,1.951,0,1,0-.571,1.384A1.885,1.885,0,0,0,234.606,234.164Zm-2.387,14.777q-2.615.279-2.615,2.438a2,2,0,0,0,.355,1.295,1.131,1.131,0,0,0,.914.432,1.2,1.2,0,0,0,1-.432,2.414,2.414,0,0,0,.343-1.473Zm25.971-20.795q-3.123-.508-5.992-.851t-5.662-.546q-2.793-.2-5.6-.279t-5.8-.076a8.512,8.512,0,0,1,3.618-5.116,12.833,12.833,0,0,1,7.147-1.79,14.394,14.394,0,0,1,5.04.889,12.452,12.452,0,0,1,4.2,2.564v-5.561h3.047Zm-12.264-6.094q-4.621,0-5.789,2.311,3.631,0,6.855.2t6.2.584a6.286,6.286,0,0,0-1.117-1.181,7.109,7.109,0,0,0-1.6-.99,10.286,10.286,0,0,0-2.057-.673A11.469,11.469,0,0,0,245.926,222.053ZM284.038,249.6v-9.547a5.986,5.986,0,0,0-.5-2.539,4.543,4.543,0,0,0-1.409-1.752,6.025,6.025,0,0,0-2.209-1,17.124,17.124,0,0,0-3.809-.317,21.537,21.537,0,0,0-3.136.241,27.028,27.028,0,0,0-3.212.673,25.175,25.175,0,0,0-2.983,1.016,16.077,16.077,0,0,0-2.45,1.244v-5.84a12.169,12.169,0,0,1,2.361-1.092,20.6,20.6,0,0,1,2.831-.749,29.923,29.923,0,0,1,3.174-.432q1.663-.14,3.415-.14,7.084,0,10.664,2.7t3.58,7.909V256h-6.7l-6.678-7.262a4.722,4.722,0,0,1-1.5,1.193,4.989,4.989,0,0,1-2.285.457,4.926,4.926,0,0,1-1.9-.368A4.678,4.678,0,0,1,269.756,249a4.928,4.928,0,0,1-1.028-1.511,4.54,4.54,0,0,1-.381-1.854,5.254,5.254,0,0,1,.381-2.082,4.247,4.247,0,0,1,1.054-1.5,4.379,4.379,0,0,1,1.612-.914,6.548,6.548,0,0,1,2.031-.3,5.535,5.535,0,0,1,1.587.216,5.993,5.993,0,0,1,1.346.584,6.734,6.734,0,0,1,1.155.863q.533.5,1.041,1.054Zm-8.937-3.961a1.951,1.951,0,1,0-.571,1.384A1.885,1.885,0,0,0,275.1,245.641ZM288.126,223.8a1.671,1.671,0,0,0-.521-1.244,1.734,1.734,0,0,0-1.257-.508A1.734,1.734,0,0,0,284.6,223.8a1.734,1.734,0,0,0,.508,1.257,1.671,1.671,0,0,0,1.244.521,1.777,1.777,0,0,0,1.777-1.777Zm-6.348,0a4.7,4.7,0,0,1,1.32-3.288,4.415,4.415,0,0,1,1.447-.978,4.568,4.568,0,0,1,1.8-.355,4.7,4.7,0,0,1,3.3,1.333,4.591,4.591,0,0,1,1,1.473,4.66,4.66,0,0,1,0,3.631,4.591,4.591,0,0,1-1,1.473,4.7,4.7,0,0,1-3.3,1.333,4.568,4.568,0,0,1-1.8-.355,4.415,4.415,0,0,1-1.447-.978,4.7,4.7,0,0,1-1.32-3.288ZM311.663,256V240.563a5.986,5.986,0,0,0-1.65-4.545q-1.65-1.574-5.205-1.574a16.481,16.481,0,0,0-2.729.241,21.331,21.331,0,0,0-2.818.673,19.981,19.981,0,0,0-2.615,1.016,13.66,13.66,0,0,0-2.146,1.244v-5.84a8.788,8.788,0,0,1,2.044-1.092,16.815,16.815,0,0,1,2.539-.749,24.449,24.449,0,0,1,2.831-.432q1.473-.14,2.895-.14,6.7,0,9.94,2.717t3.237,7.9V256Zm16.576,0v-6.525a6.976,6.976,0,0,1,.33-2.146,6.382,6.382,0,0,1,.978-1.892,6.281,6.281,0,0,1,1.625-1.5,7.548,7.548,0,0,1,2.3-.965h-5.916v-3.834a10.862,10.862,0,0,1,1.295-4.012,10.016,10.016,0,0,1,2.7-3.085,12.506,12.506,0,0,1,4.024-1.98,18.334,18.334,0,0,1,5.256-.7,20.351,20.351,0,0,1,6.056.8,11.855,11.855,0,0,1,4.215,2.222,8.782,8.782,0,0,1,2.463,3.364,11,11,0,0,1,.8,4.228V256h-6.322V240.436a6.729,6.729,0,0,0-.457-2.564,5.115,5.115,0,0,0-1.295-1.879,5.627,5.627,0,0,0-2.12-1.168,11.319,11.319,0,0,0-3.339-.406,11.1,11.1,0,0,0-3.237.381,5.741,5.741,0,0,0-1.968,1.016,5.006,5.006,0,0,0-1.206,1.447,4.719,4.719,0,0,0-.546,1.8h5.053v3.91a12.814,12.814,0,0,0-1.447.533,4.368,4.368,0,0,0-1.409,1,5.21,5.21,0,0,0-1.066,1.752,7.786,7.786,0,0,0-.419,2.78V256Zm22.289-32.932a1.951,1.951,0,1,0-.571,1.384A1.885,1.885,0,0,0,350.528,223.068Zm2.564,1.447a12.338,12.338,0,0,0,2.234-1.181,15.4,15.4,0,0,0,2.095-1.676,19.411,19.411,0,0,0,1.892-2.082,26.607,26.607,0,0,0,1.65-2.349v5.23a12.572,12.572,0,0,1-1.866,2.019,15.884,15.884,0,0,1-2.628,1.879,16.364,16.364,0,0,1-3.161,1.4,11.2,11.2,0,0,1-3.466.546,8.188,8.188,0,0,1-2.666-.394,5.467,5.467,0,0,1-1.9-1.079,4.393,4.393,0,0,1-1.143-1.612,5.192,5.192,0,0,1-.381-1.993,4.874,4.874,0,0,1,.381-1.917,5.12,5.12,0,0,1,1.028-1.574,4.85,4.85,0,0,1,1.523-1.066,4.5,4.5,0,0,1,1.866-.394,4.72,4.72,0,0,1,1.879.381,4.791,4.791,0,0,1,2.564,2.552,4.629,4.629,0,0,1,.381,1.866,3.986,3.986,0,0,1-.1.863A2.423,2.423,0,0,1,353.092,224.516Zm18.637,26.609a15.975,15.975,0,0,0,1.8-1.422,4.88,4.88,0,0,0,1.117-1.5,4.293,4.293,0,0,1-1.879-1.676,4.949,4.949,0,0,1-.686-2.641,5.219,5.219,0,0,1,.355-1.955,4.342,4.342,0,0,1,.99-1.511,4.605,4.605,0,0,1,1.511-.978,5.485,5.485,0,0,1,3.885,0,4.455,4.455,0,0,1,1.523,1.016,4.574,4.574,0,0,1,1,1.587,5.664,5.664,0,0,1,.355,2.044,7.589,7.589,0,0,1-.47,2.679,10.774,10.774,0,0,1-1.244,2.374,13.881,13.881,0,0,1-1.79,2.095,25.438,25.438,0,0,1-2.12,1.828q-1.1.851-2.234,1.574L371.729,256h-6.348v-4.926a17.187,17.187,0,0,0-.279-3.2q-.279-1.473-.622-2.882t-.635-2.844a15.324,15.324,0,0,1-.292-3.06,8.495,8.495,0,0,1,1-4.177,8.755,8.755,0,0,1,2.831-3.047A13.673,13.673,0,0,1,371.792,230a26.263,26.263,0,0,1,11.591.025,12.773,12.773,0,0,1,4.405,1.98,8.656,8.656,0,0,1,2.768,3.313,10.7,10.7,0,0,1,.952,4.659V256h-6.322V240.486a6.738,6.738,0,0,0-.33-2.12,5.469,5.469,0,0,0-1.041-1.841,5.867,5.867,0,0,0-2.171-1.473,10.667,10.667,0,0,0-4.126-.635,10.536,10.536,0,0,0-3.986.609,6.024,6.024,0,0,0-2.158,1.4,5.833,5.833,0,0,0-1.092,1.727,5.221,5.221,0,0,0-.381,1.98,13.259,13.259,0,0,0,.292,2.818q.292,1.346.635,2.653t.622,2.59a12.312,12.312,0,0,1,.279,2.628Zm7.109-7.236a1.951,1.951,0,1,0-.571,1.384A1.885,1.885,0,0,0,378.838,243.889Z" transform="translate(219.584 440)"/>
          <path id="路径_41018" data-name="路径 41018" d="M5-9.6a4.159,4.159,0,0,0-3.1,1.2A5.137,5.137,0,0,0,.54-4.656c0,3.048,1.752,5,4.476,5S9.5-1.62,9.5-4.656A5.175,5.175,0,0,0,8.16-8.4,4.205,4.205,0,0,0,5-9.6ZM5.04-1.08a2.591,2.591,0,0,1-1.86-.732,3.965,3.965,0,0,1-.972-2.832c0-2.172,1.092-3.54,2.82-3.54a2.583,2.583,0,0,1,1.848.732,3.876,3.876,0,0,1,.948,2.8C7.824-2.448,6.756-1.08,5.04-1.08ZM36.576-9.408a9.767,9.767,0,0,1,.1,1.644V-3.54a2.191,2.191,0,0,1-2.436,2.484,2.2,2.2,0,0,1-2.46-2.472V-7.764a9.41,9.41,0,0,1,.1-1.644H30.084a9.858,9.858,0,0,1,.1,1.644v4.236a3.865,3.865,0,0,0,.9,2.76A4.134,4.134,0,0,0,34.176.36c2.616,0,4.092-1.392,4.092-3.876v-4.26a9.7,9.7,0,0,1,.1-1.632ZM67.332.144c-.168-.324-.468-.972-.564-1.188C65.58-3.852,65.352-4.188,64.6-4.428a2.537,2.537,0,0,0,1.332-.7,2.467,2.467,0,0,0,.612-1.788c0-1.584-1.044-2.5-2.868-2.5h-2.88c-.66,0-1.032-.012-1.536-.036a10.677,10.677,0,0,1,.1,1.56v6.468a9.391,9.391,0,0,1-.1,1.56h1.788a9.364,9.364,0,0,1-.1-1.572V-3.876h1.788c.924,0,1.344.444,1.992,2.1a9.714,9.714,0,0,1,.624,1.92ZM60.948-5.244v-2.8h2.46c.984,0,1.476.444,1.476,1.308A1.424,1.424,0,0,1,64.5-5.676a1.617,1.617,0,0,1-1.14.432ZM116.7.144a9.771,9.771,0,0,1,.528-1.6l1.8-4.224a14.644,14.644,0,0,0,.552-1.752c-.012.18-.048.792-.1,1.836v3.984a11.156,11.156,0,0,1-.1,1.752h1.68a10.4,10.4,0,0,1-.1-1.752V-7.632a12.427,12.427,0,0,1,.1-1.776H118.86a6.65,6.65,0,0,1-.432,1.428L116-2.028,113.568-7.98a8.305,8.305,0,0,1-.444-1.428h-2.2a11.9,11.9,0,0,1,.1,1.776v6.024a11.254,11.254,0,0,1-.1,1.752h1.68a10.964,10.964,0,0,1-.1-1.752V-5.544c0-.264-.048-1.248-.1-1.884a13.354,13.354,0,0,0,.612,1.836l1.728,4.116a8.169,8.169,0,0,1,.528,1.62Zm25.272-9.552a8.966,8.966,0,0,1,.1,1.548V-1.4a9.055,9.055,0,0,1-.1,1.548H143.8a9.055,9.055,0,0,1-.1-1.548V-7.86a8.966,8.966,0,0,1,.1-1.548Zm22.4,6.756a4.1,4.1,0,0,0,.228,1A2.825,2.825,0,0,0,165.66-.288a4.825,4.825,0,0,0,2.52.624,3.977,3.977,0,0,0,2.868-.912,2.792,2.792,0,0,0,.756-2.04,2.368,2.368,0,0,0-1-2.064,5.283,5.283,0,0,0-1.956-.732,10.216,10.216,0,0,1-1.692-.432,1.141,1.141,0,0,1-.816-1.092c0-.78.708-1.308,1.752-1.308a1.9,1.9,0,0,1,1.5.576,1.55,1.55,0,0,1,.36.852l1.716-.2a3.235,3.235,0,0,0-.588-1.392A3.537,3.537,0,0,0,168.1-9.624c-2.064,0-3.408,1.08-3.408,2.748a2.362,2.362,0,0,0,.924,1.944,4.242,4.242,0,0,0,1.812.732,7.566,7.566,0,0,1,2.088.588,1.218,1.218,0,0,1,.6,1.1c0,.9-.72,1.44-1.92,1.44a2.13,2.13,0,0,1-1.752-.708,1.72,1.72,0,0,1-.336-1.056Zm27.78,0a4.1,4.1,0,0,0,.228,1A2.825,2.825,0,0,0,193.44-.288a4.825,4.825,0,0,0,2.52.624,3.977,3.977,0,0,0,2.868-.912,2.792,2.792,0,0,0,.756-2.04,2.368,2.368,0,0,0-1-2.064,5.283,5.283,0,0,0-1.956-.732,10.216,10.216,0,0,1-1.692-.432,1.141,1.141,0,0,1-.816-1.092c0-.78.708-1.308,1.752-1.308a1.9,1.9,0,0,1,1.5.576,1.55,1.55,0,0,1,.36.852l1.716-.2a3.235,3.235,0,0,0-.588-1.392,3.537,3.537,0,0,0-2.988-1.212c-2.064,0-3.408,1.08-3.408,2.748a2.362,2.362,0,0,0,.924,1.944A4.242,4.242,0,0,0,195.2-4.2a7.566,7.566,0,0,1,2.088.588,1.218,1.218,0,0,1,.6,1.1c0,.9-.72,1.44-1.92,1.44a2.13,2.13,0,0,1-1.752-.708,1.72,1.72,0,0,1-.336-1.056Zm28.092-6.756a8.966,8.966,0,0,1,.1,1.548V-1.4a9.055,9.055,0,0,1-.1,1.548h1.824a9.055,9.055,0,0,1-.1-1.548V-7.86a8.966,8.966,0,0,1,.1-1.548ZM247.116-9.6a4.159,4.159,0,0,0-3.1,1.2,5.137,5.137,0,0,0-1.368,3.744c0,3.048,1.752,5,4.476,5s4.488-1.968,4.488-5A5.175,5.175,0,0,0,250.272-8.4,4.205,4.205,0,0,0,247.116-9.6Zm.036,8.52a2.591,2.591,0,0,1-1.86-.732,3.965,3.965,0,0,1-.972-2.832c0-2.172,1.092-3.54,2.82-3.54a2.583,2.583,0,0,1,1.848.732,3.876,3.876,0,0,1,.948,2.8C249.936-2.448,248.868-1.08,247.152-1.08ZM280.368.144a9.055,9.055,0,0,1-.1-1.548V-7.752a10.493,10.493,0,0,1,.1-1.656h-1.752a10.489,10.489,0,0,1,.1,1.656V-3.72c0,.5.036,1.224.084,1.692-.264-.48-.648-1.1-.936-1.536l-3.036-4.572a6.582,6.582,0,0,1-.732-1.272H272.22a9.993,9.993,0,0,1,.1,1.548v6.192a12.983,12.983,0,0,1-.1,1.812h1.752a13.282,13.282,0,0,1-.1-1.8V-5.592c0-.276-.024-.816-.036-1.044-.036-.444-.036-.444-.048-.612.288.564.588,1.08.816,1.44l3.1,4.668a11.958,11.958,0,0,1,.768,1.284Z" transform="translate(219 390)"/>
        </g>
      </g>
      <g id="背景" transform="translate(283.495 -6.459)" opacity="0.1">
        <path id="路径_40949" data-name="路径 40949" d="M395.381,229.828l896.223,2.131,97.389,98.326V711.014l-921.585-2.13-72.028-85.75Z" transform="translate(90.634 56.382)" fill="none" stroke="#000" stroke-miterlimit="10" stroke-width="2"/>
        <path id="路径_40950" data-name="路径 40950" d="M484,250.647h769.917l62.883-66.313" transform="translate(155.55 21.688)" fill="none" stroke="#000" stroke-miterlimit="10" stroke-width="2"/>
        <path id="路径_40951" data-name="路径 40951" d="M1316.8,184.333H546.883L484,250.647" transform="translate(-59.926 594.795)" fill="none" stroke="#000" stroke-miterlimit="10" stroke-width="2"/>
        <circle id="椭圆_2185" data-name="椭圆 2185" cx="29.476" cy="29.476" r="29.476" transform="translate(1461.56 154)" fill="none" stroke="#000" stroke-miterlimit="10" stroke-width="2"/>
        <circle id="椭圆_2186" data-name="椭圆 2186" cx="18.42" cy="18.42" r="18.42" transform="translate(393.772 840.211)" fill="none" stroke="#000" stroke-miterlimit="10" stroke-width="2"/>
        <path id="路径_40952" data-name="路径 40952" d="M594.911,288.661l58.755-25.446h748.26" transform="translate(-31.036 -16.326)" fill="none" stroke="#000" stroke-width="2"/>
        <path id="路径_40953" data-name="路径 40953" d="M1401.926,263.214l-58.755,25.446H594.911" transform="translate(-69.377 515.914)" fill="none" stroke="#000" stroke-width="2"/>
        <path id="路径_40954" data-name="路径 40954" d="M444.242,293.133H387.292V671" transform="translate(79.749 -20.798)" fill="none" stroke="#000" stroke-width="2"/>
        <path id="路径_40955" data-name="路径 40955" d="M1688.293,462.333V786.349H1608.8" transform="translate(-182.597 -46.091)" fill="none" stroke="#707070" stroke-width="2"/>
        <path id="路径_40956" data-name="路径 40956" d="M428.642,768.6l67.719,70.977" transform="translate(44.819 -79.873)" fill="none" stroke="#000" stroke-width="2"/>
        <path id="路径_40957" data-name="路径 40957" d="M1636.882,316.811l50.249,47.226" transform="translate(-194.885 -6.37)" fill="none" stroke="#000" stroke-width="2"/>
      </g>
    </g>
  </g>
</svg>
