<svg xmlns="http://www.w3.org/2000/svg" xmlns:xlink="http://www.w3.org/1999/xlink" width="1820" height="880" viewBox="0 0 1820 880">
  <defs>
    <clipPath id="clip-path">
      <rect id="矩形_2816" data-name="矩形 2816" width="1820" height="880" transform="translate(50 88)" fill="#fff"/>
    </clipPath>
  </defs>
  <g id="banner" transform="translate(-50 -88)" clip-path="url(#clip-path)">
    <g id="组_22221" data-name="组 22221">
      <g id="组_22220" data-name="组 22220" transform="translate(-6274 1354)">
        <g id="组_22216" data-name="组 22216" transform="translate(6189 -1400)">
          <path id="路径_41059" data-name="路径 41059" d="M33.648-16.08c-.384,3.7-.864,5.376-2.16,7.344a10.547,10.547,0,0,1-8.976,4.7,9.532,9.532,0,0,1-7.584-3.312,8.853,8.853,0,0,1-2.112-4.8L6.24-10.992a17.44,17.44,0,0,0,2.64,6.24c2.976,4.128,7.68,6.288,13.632,6.288,11.136,0,17.856-7.488,17.856-19.824S33.744-38.016,22.752-38.016c-5.376,0-9.744,1.776-12.768,5.184a15.875,15.875,0,0,0-3.264,6.1L13.2-25.3a8.59,8.59,0,0,1,1.3-3.024,9.96,9.96,0,0,1,8.352-4.224,10,10,0,0,1,8.016,3.6c1.584,2.112,2.256,3.936,2.688,7.44H23.184A49.722,49.722,0,0,1,16.9-21.84v6.1a43.883,43.883,0,0,1,6.336-.336Zm16.608,10.7A45.624,45.624,0,0,1,49.92.72h6.672a44.21,44.21,0,0,1-.336-6.1V-21.312H68.5V-5.376a38.307,38.307,0,0,1-.384,6.1h6.72a44.21,44.21,0,0,1-.336-6.1V-20.592a46.387,46.387,0,0,1,.336-6.144c-1.92.1-3.12.144-6,.144H55.92c-2.88,0-4.08-.048-6-.144a48.428,48.428,0,0,1,.336,6.24ZM100.9,1.632c8.544,0,14.16-5.856,14.16-14.736s-5.52-14.544-14.208-14.544c-8.736,0-14.3,5.712-14.3,14.64C86.544-4.032,92.112,1.632,100.9,1.632Zm-.048-24.288c5.088,0,8.016,3.552,8.016,9.744,0,5.856-3.072,9.456-8.064,9.456S92.736-7.1,92.736-13.008C92.736-19.008,95.808-22.656,100.848-22.656ZM153.36.864c-1.3-1.584-2.88-3.7-3.552-4.608L142.8-13.536l6.48-9.072c.768-1.1,1.536-2.16,3.072-4.128h-7.44a23.757,23.757,0,0,1-2.016,3.648l-3.648,5.376-3.7-5.376a22.624,22.624,0,0,1-2.016-3.648h-7.488c2.16,2.784,2.544,3.312,3.072,4.032l6.528,9.168L128.448-3.5c-.816,1.152-2.3,3.072-3.36,4.368h7.728a25.925,25.925,0,0,1,2.064-3.648l4.32-6.432,4.176,6.144A25.613,25.613,0,0,1,145.632.864Zm30.24,0h6.48a38.6,38.6,0,0,1-.384-6V-18.1c0-3.264-.624-5.088-2.256-6.624-2.064-2.016-4.848-2.832-9.456-2.832-4.128,0-6.816.72-9.168,2.448-1.824,1.3-2.688,2.544-3.792,5.328l6.144,1.1a5.57,5.57,0,0,1,1.92-3.072,9.036,9.036,0,0,1,4.992-1.344c3.648,0,5.52,1.44,5.52,4.224v2.4c-6.864.144-10.416.672-13.536,1.968A8.466,8.466,0,0,0,164.64-6.72c0,4.992,3.552,8.064,9.408,8.064a16.984,16.984,0,0,0,4.464-.576A10.408,10.408,0,0,0,183.6-2.256Zm0-10.7a5.72,5.72,0,0,1-1.728,4.224A9.747,9.747,0,0,1,175.2-3.072c-2.688,0-4.368-1.392-4.368-3.7,0-3.744,3.6-5.28,12.768-5.52Zm51.7-9.168a15.977,15.977,0,0,0-1.68-3.5c-2.3-3.36-6.048-5.184-10.752-5.184a13.144,13.144,0,0,0-9.648,3.648,15.521,15.521,0,0,0-4.08,11.088c0,8.88,5.472,14.592,13.92,14.592,4.56,0,8.256-1.68,10.56-4.8A14.373,14.373,0,0,0,235.632-7.3L229.68-8.5a6.709,6.709,0,0,1-.96,2.4,6.426,6.426,0,0,1-5.52,2.688c-4.848,0-7.824-3.7-7.824-9.7,0-5.952,2.928-9.648,7.632-9.648a6.039,6.039,0,0,1,4.944,2.208,9.146,9.146,0,0,1,1.488,2.928Zm12.48-7.584a53.29,53.29,0,0,1,.336,6.144V-5.472A41.618,41.618,0,0,1,247.728.72h6.816A26.5,26.5,0,0,1,257.232-3.7l9.216-12.192a8.393,8.393,0,0,0,.864-1.392c.048-.1.144-.24.288-.48-.048,1.008-.048,1.008-.1,2.544l-.048,9.792A44.039,44.039,0,0,1,267.12.72h6.672a48.654,48.654,0,0,1-.336-6.192V-20.448a48.894,48.894,0,0,1,.336-6.144h-6.72a18.976,18.976,0,0,1-2.688,4.464l-9.072,12.1c-.288.384-.72,1.056-1.056,1.584a3.08,3.08,0,0,1-.288.48c.048-1.344.1-2.256.1-2.736v-9.7a48.149,48.149,0,0,1,.336-6.192ZM315.456.72a44.787,44.787,0,0,1-.336-6.192V-20.448a51.58,51.58,0,0,1,.336-6.144h-7.872a2.731,2.731,0,0,1-.144.768c-.144.624-1.3,3.888-1.392,4.128L299.184-7.248,292.272-21.7c-.144-.384-1.2-3.408-1.392-3.984-.048-.288-.1-.48-.144-.912h-7.872A53.527,53.527,0,0,1,283.2-20.4V-5.472A42.984,42.984,0,0,1,282.864.72h6.24a45.713,45.713,0,0,1-.336-6.192v-9.36c0-1.2-.048-2.256-.192-4.032a24.851,24.851,0,0,0,1.3,3.5L295.056-4.8A34.725,34.725,0,0,1,297.072.72h4.176a30.179,30.179,0,0,1,1.968-5.472l5.232-10.608a26.334,26.334,0,0,0,1.3-3.5,40.287,40.287,0,0,0-.192,4.032v9.36A50.211,50.211,0,0,1,309.216.72Zm27.6-31.872a8.35,8.35,0,0,0,7.488-3.7l-4.272-3.36a5.012,5.012,0,0,1-4.656,2.3H336.96c-4.7,0-8.16,1.68-10.368,5.088-1.968,2.976-3.12,8.352-3.12,14.4a25.162,25.162,0,0,0,2.256,11.184c2.256,4.272,6.432,6.576,12,6.576,8.544,0,14.112-5.76,14.112-14.64,0-8.3-4.9-13.68-12.528-13.68-4.608,0-7.1,1.1-9.408,4.08.48-2.88.912-4.176,1.824-5.472,1.3-1.92,3.264-2.784,6.192-2.784Zm-4.848,8.976a7.081,7.081,0,0,1,4.56,1.536c1.872,1.392,2.88,4.176,2.88,7.632a10.63,10.63,0,0,1-1.728,6.384,7.493,7.493,0,0,1-6.192,2.832c-4.992,0-7.968-3.408-7.968-9.072S333.072-22.176,338.208-22.176Zm24.768-4.416a53.29,53.29,0,0,1,.336,6.144V-5.472A41.618,41.618,0,0,1,362.928.72h6.816A26.5,26.5,0,0,1,372.432-3.7l9.216-12.192a8.393,8.393,0,0,0,.864-1.392c.048-.1.144-.24.288-.48-.048,1.008-.048,1.008-.1,2.544l-.048,9.792A44.039,44.039,0,0,1,382.32.72h6.672a48.654,48.654,0,0,1-.336-6.192V-20.448a48.894,48.894,0,0,1,.336-6.144h-6.72a18.976,18.976,0,0,1-2.688,4.464l-9.072,12.1c-.288.384-.72,1.056-1.056,1.584a3.08,3.08,0,0,1-.288.48c.048-1.344.1-2.256.1-2.736v-9.7a48.149,48.149,0,0,1,.336-6.192Zm51.5,28.224c8.544,0,14.16-5.856,14.16-14.736s-5.52-14.544-14.208-14.544c-8.736,0-14.3,5.712-14.3,14.64C400.128-4.032,405.7,1.632,414.48,1.632Zm-.048-24.288c5.088,0,8.016,3.552,8.016,9.744,0,5.856-3.072,9.456-8.064,9.456S406.32-7.1,406.32-13.008C406.32-19.008,409.392-22.656,414.432-22.656Zm25.392,16.8c1.008,2.736,1.872,3.984,3.792,5.28,1.872,1.248,5.328,2.016,9.024,2.016,4.464,0,8.016-1.1,10.08-3.12a6.582,6.582,0,0,0,2.016-4.992,6,6,0,0,0-2.3-5.088c-1.344-1.008-2.688-1.392-5.52-1.632a9.434,9.434,0,0,0,4.416-1.632,5.89,5.89,0,0,0,2.4-5.088,5.693,5.693,0,0,0-.864-3.312c-1.536-2.5-5.184-3.936-9.936-3.936a15.743,15.743,0,0,0-8.3,1.92,9.091,9.091,0,0,0-3.888,5.04l6.1,1.1c.912-2.5,2.4-3.36,5.712-3.36,3.456,0,5.136,1.056,5.136,3.216,0,2.688-1.824,3.792-6.192,3.792a16.931,16.931,0,0,1-3.168-.24v5.04a16.93,16.93,0,0,1,3.6-.24c5.088,0,6.72.864,6.72,3.6q0,4.176-6.192,4.176a9.411,9.411,0,0,1-4.608-.96,3.747,3.747,0,0,1-1.92-2.64Zm57.36,6.72h6.48a38.606,38.606,0,0,1-.384-6V-18.1c0-3.264-.624-5.088-2.256-6.624-2.064-2.016-4.848-2.832-9.456-2.832-4.128,0-6.816.72-9.168,2.448-1.824,1.3-2.688,2.544-3.792,5.328l6.144,1.1a5.57,5.57,0,0,1,1.92-3.072,9.036,9.036,0,0,1,4.992-1.344c3.648,0,5.52,1.44,5.52,4.224v2.4c-6.864.144-10.416.672-13.536,1.968a8.466,8.466,0,0,0-5.424,7.776c0,4.992,3.552,8.064,9.408,8.064A16.984,16.984,0,0,0,492.1.768a10.408,10.408,0,0,0,5.088-3.024Zm0-10.7a5.72,5.72,0,0,1-1.728,4.224,9.746,9.746,0,0,1-6.672,2.544c-2.688,0-4.368-1.392-4.368-3.7,0-3.744,3.6-5.28,12.768-5.52Zm26.592-16.752a52.47,52.47,0,0,1,.336,6.1v5.328c0,4.512,2.16,6.192,7.92,6.192a62.179,62.179,0,0,0,8.16-.576v4.224A55.284,55.284,0,0,1,539.856.72h6.72a41.555,41.555,0,0,1-.336-5.952V-20.544a46.825,46.825,0,0,1,.336-6.048h-6.72a49.972,49.972,0,0,1,.336,6.048v6.336a50.238,50.238,0,0,1-5.472.288c-2.352,0-2.88-.048-3.552-.288-.672-.288-1.008-.96-1.008-2.16V-20.5a45.148,45.148,0,0,1,.336-6.1Zm64.176,15.12c-.1-1.1-.1-1.248-.1-1.344a19.732,19.732,0,0,0-1.392-7.3c-1.92-4.8-6.336-7.584-11.952-7.584-8.208,0-13.536,5.808-13.536,14.688,0,8.976,5.376,14.64,13.872,14.64a13.631,13.631,0,0,0,9.888-3.7,13.49,13.49,0,0,0,2.928-4.416L582-8.3a6.977,6.977,0,0,1-1.392,2.5,7.59,7.59,0,0,1-5.76,2.4,7.544,7.544,0,0,1-6-2.688c-1.1-1.392-1.536-2.736-1.776-5.376Zm-20.736-4.752c.72-4.032,3.456-6.528,7.2-6.528a6.845,6.845,0,0,1,5.184,1.92,7.534,7.534,0,0,1,2.112,4.608ZM608.4-26.592c-2.544,0-3.5-.048-5.76-.144.048,1.2.1,1.68.1,2.736a21.313,21.313,0,0,1-.1,2.592l-.672,13.344c-.144,2.544-.864,3.648-2.448,3.648a4.053,4.053,0,0,1-1.92-.576L596.4.576a12.275,12.275,0,0,0,4.368.72A6.808,6.808,0,0,0,606-.96c1.056-1.248,1.68-3.216,1.824-5.856l.816-14.544H617.9V-4.512A38.3,38.3,0,0,1,617.568.72h6.72a35.505,35.505,0,0,1-.336-5.232v-16.9a37.313,37.313,0,0,1,.336-5.328c-1.776.1-2.88.144-5.472.144ZM651.264,1.632c8.544,0,14.16-5.856,14.16-14.736s-5.52-14.544-14.208-14.544c-8.736,0-14.3,5.712-14.3,14.64C636.912-4.032,642.48,1.632,651.264,1.632Zm-.048-24.288c5.088,0,8.016,3.552,8.016,9.744,0,5.856-3.072,9.456-8.064,9.456S643.1-7.1,643.1-13.008C643.1-19.008,646.176-22.656,651.216-22.656ZM692.064.72c6.384,0,9.792-2.64,9.792-7.584a6.481,6.481,0,0,0-2.208-5.232,6.309,6.309,0,0,0-3.936-1.584c3.36-.768,5.088-2.88,5.088-6.24,0-4.464-3.072-6.672-9.168-6.672h-7.92c-2.88,0-4.08-.048-6-.144a46.876,46.876,0,0,1,.336,6.144V-5.28a46.876,46.876,0,0,1-.336,6.144c2.112-.1,3.36-.144,6.048-.144ZM683.952-15.7v-6.288h7.008c2.736,0,4.032.96,4.032,2.976,0,2.16-1.392,3.312-3.984,3.312Zm0,4.272h7.3c3.168,0,4.656,1.2,4.656,3.792,0,2.5-1.488,3.7-4.608,3.7h-7.344Zm57.6-.048c-.1-1.1-.1-1.248-.1-1.344a19.732,19.732,0,0,0-1.392-7.3c-1.92-4.8-6.336-7.584-11.952-7.584-8.208,0-13.536,5.808-13.536,14.688,0,8.976,5.376,14.64,13.872,14.64a13.631,13.631,0,0,0,9.888-3.7,13.49,13.49,0,0,0,2.928-4.416L735.6-8.3a6.977,6.977,0,0,1-1.392,2.5,7.59,7.59,0,0,1-5.76,2.4,7.544,7.544,0,0,1-6-2.688c-1.1-1.392-1.536-2.736-1.776-5.376Zm-20.736-4.752c.72-4.032,3.456-6.528,7.2-6.528a6.845,6.845,0,0,1,5.184,1.92,7.534,7.534,0,0,1,2.112,4.608ZM754.8-26.592a48.109,48.109,0,0,1,.336,6.1V-5.424A48.379,48.379,0,0,1,754.8.72h6.72a48.379,48.379,0,0,1-.336-6.144v-5.568h1.2a6.752,6.752,0,0,1,1.92.288c1.1.432,2.4,1.968,3.888,4.512C771.5-.528,771.5-.528,771.888.72h8.448a24.568,24.568,0,0,1-2.592-3.456c-2.256-3.312-2.256-3.312-3.456-4.992-2.256-3.312-2.256-3.312-3.168-4.224a6.418,6.418,0,0,0-4.32-1.776,6.024,6.024,0,0,0,3.792-2.544l3.264-4.752a2.174,2.174,0,0,1,1.824-1.056,2.862,2.862,0,0,1,1.536.48l1.632-4.752a8.846,8.846,0,0,0-4.08-.816,6.13,6.13,0,0,0-5.424,3.024L765.6-18.48a4.678,4.678,0,0,1-3.744,2.208h-.672V-20.5a44.212,44.212,0,0,1,.336-6.1ZM782.4-10.8a26.418,26.418,0,0,1,4.512-.288h7.44a26.34,26.34,0,0,1,4.56.288v-6.384a30.314,30.314,0,0,1-4.56.288h-7.44a30.072,30.072,0,0,1-4.512-.288ZM12.432,73.408a48.107,48.107,0,0,1,.336,6.1V94.576a48.377,48.377,0,0,1-.336,6.144h6.72a48.377,48.377,0,0,1-.336-6.144V89.008h1.2a6.752,6.752,0,0,1,1.92.288c1.1.432,2.4,1.968,3.888,4.512,3.312,5.664,3.312,5.664,3.7,6.912h8.448a24.567,24.567,0,0,1-2.592-3.456c-2.256-3.312-2.256-3.312-3.456-4.992-2.256-3.312-2.256-3.312-3.168-4.224a6.418,6.418,0,0,0-4.32-1.776,6.024,6.024,0,0,0,3.792-2.544l3.264-4.752a2.174,2.174,0,0,1,1.824-1.056,2.862,2.862,0,0,1,1.536.48l1.632-4.752a8.846,8.846,0,0,0-4.08-.816,6.13,6.13,0,0,0-5.424,3.024L23.232,81.52a4.678,4.678,0,0,1-3.744,2.208h-.672V79.5a44.21,44.21,0,0,1,.336-6.1ZM62.5,101.632c8.544,0,14.16-5.856,14.16-14.736s-5.52-14.544-14.208-14.544c-8.736,0-14.3,5.712-14.3,14.64C48.144,95.968,53.712,101.632,62.5,101.632Zm-.048-24.288c5.088,0,8.016,3.552,8.016,9.744,0,5.856-3.072,9.456-8.064,9.456s-8.064-3.648-8.064-9.552C54.336,80.992,57.408,77.344,62.448,77.344Zm54.624,23.376a44.784,44.784,0,0,1-.336-6.192V79.552a51.576,51.576,0,0,1,.336-6.144H109.2a2.73,2.73,0,0,1-.144.768c-.144.624-1.3,3.888-1.392,4.128L100.8,92.752,93.888,78.3c-.144-.384-1.2-3.408-1.392-3.984-.048-.288-.1-.48-.144-.912H84.48a53.532,53.532,0,0,1,.336,6.192V94.528a42.987,42.987,0,0,1-.336,6.192h6.24a45.717,45.717,0,0,1-.336-6.192v-9.36c0-1.2-.048-2.256-.192-4.032a24.85,24.85,0,0,0,1.3,3.5L96.672,95.2a34.725,34.725,0,0,1,2.016,5.52h4.176a30.179,30.179,0,0,1,1.968-5.472l5.232-10.608a26.335,26.335,0,0,0,1.3-3.5,40.291,40.291,0,0,0-.192,4.032v9.36a50.208,50.208,0,0,1-.336,6.192Zm9.984-6.1a45.623,45.623,0,0,1-.336,6.1h6.672a44.212,44.212,0,0,1-.336-6.1V78.688H145.3V94.624a38.306,38.306,0,0,1-.384,6.1h6.72a44.209,44.209,0,0,1-.336-6.1V79.408a46.386,46.386,0,0,1,.336-6.144c-1.92.1-3.12.144-6,.144H132.72c-2.88,0-4.08-.048-6-.144a48.427,48.427,0,0,1,.336,6.24ZM173.136,83.2V79.5a45.623,45.623,0,0,1,.336-6.1h-6.624a53.05,53.05,0,0,1,.336,6.1V94.672a43.428,43.428,0,0,1-.336,6.192c2.112-.1,3.36-.144,6-.144h8.112c6.24,0,9.792-3.168,9.792-8.784,0-5.568-3.552-8.736-9.84-8.736Zm0,12.576V88.144h6.624c3.408,0,4.848,1.152,4.848,3.84s-1.392,3.792-4.752,3.792Zm32.64-6.864h3.456c.528,3.984,1.008,5.616,2.208,7.488,2.112,3.312,5.472,4.992,9.936,4.992,7.92,0,12.672-5.424,12.672-14.5,0-8.928-4.656-14.208-12.48-14.208a11.43,11.43,0,0,0-8.592,3.264c-1.872,1.92-2.736,3.84-3.648,8.112h-3.552V79.6a47.647,47.647,0,0,1,.336-6.192h-6.576a44.913,44.913,0,0,1,.336,6.24V94.48a53.21,53.21,0,0,1-.336,6.24h6.576a49.956,49.956,0,0,1-.336-6.24ZM221.424,96.5a5.761,5.761,0,0,1-4.176-1.584c-1.488-1.584-2.352-4.416-2.352-7.776,0-6,2.5-9.552,6.624-9.552,4.08,0,6.48,3.456,6.48,9.312,0,3.36-.864,6.192-2.352,7.872A5.6,5.6,0,0,1,221.424,96.5Zm36.384,4.224a49.443,49.443,0,0,1-.336-6.24V78.64h3.744a53.172,53.172,0,0,1,6.144.288V73.072a44.038,44.038,0,0,1-6.144.336H247.584a45.43,45.43,0,0,1-6.144-.336v5.856a56.816,56.816,0,0,1,6.24-.288h3.648V94.48a44.169,44.169,0,0,1-.336,6.24Zm48.576-12.192c-.1-1.1-.1-1.248-.1-1.344a19.733,19.733,0,0,0-1.392-7.3c-1.92-4.8-6.336-7.584-11.952-7.584-8.208,0-13.536,5.808-13.536,14.688,0,8.976,5.376,14.64,13.872,14.64a13.631,13.631,0,0,0,9.888-3.7A13.49,13.49,0,0,0,306.1,93.52L300.432,91.7a6.976,6.976,0,0,1-1.392,2.5,8.075,8.075,0,0,1-11.76-.288c-1.1-1.392-1.536-2.736-1.776-5.376Zm-20.736-4.752c.72-4.032,3.456-6.528,7.2-6.528a6.845,6.845,0,0,1,5.184,1.92,7.534,7.534,0,0,1,2.112,4.608Zm39.072,21.936a43.959,43.959,0,0,1-.336-5.136v-3.36a24.3,24.3,0,0,0-.1-2.544,6.417,6.417,0,0,0,1.824,1.92A12.721,12.721,0,0,0,333.6,98.8c8.3,0,13.248-4.944,13.248-13.248,0-8.016-4.752-12.768-12.768-12.768-4.416,0-7.728,1.44-9.792,4.176.048-.72.048-.96.048-1.44V73.408H318a43.1,43.1,0,0,1,.336,5.9V99.856a41.447,41.447,0,0,1-.336,5.856Zm-.144-19.92a8.251,8.251,0,0,1,2.544-6.1,9.055,9.055,0,0,1,5.616-2.16c4.9,0,7.728,2.976,7.728,8.16,0,5.136-2.832,8.3-7.488,8.3A8.074,8.074,0,0,1,324.576,85.792Zm64.32-4.8a15.979,15.979,0,0,0-1.68-3.5c-2.3-3.36-6.048-5.184-10.752-5.184a13.144,13.144,0,0,0-9.648,3.648,15.52,15.52,0,0,0-4.08,11.088c0,8.88,5.472,14.592,13.92,14.592,4.56,0,8.256-1.68,10.56-4.8a14.373,14.373,0,0,0,2.016-4.128l-5.952-1.2a6.708,6.708,0,0,1-.96,2.4,6.426,6.426,0,0,1-5.52,2.688c-4.848,0-7.824-3.7-7.824-9.7,0-5.952,2.928-9.648,7.632-9.648a6.039,6.039,0,0,1,4.944,2.208,9.146,9.146,0,0,1,1.488,2.928Zm25.584,20.64c8.544,0,14.16-5.856,14.16-14.736s-5.52-14.544-14.208-14.544c-8.736,0-14.3,5.712-14.3,14.64C400.128,95.968,405.7,101.632,414.48,101.632Zm-.048-24.288c5.088,0,8.016,3.552,8.016,9.744,0,5.856-3.072,9.456-8.064,9.456s-8.064-3.648-8.064-9.552C406.32,80.992,409.392,77.344,414.432,77.344Zm51.936,11.184c-.1-1.1-.1-1.248-.1-1.344a19.733,19.733,0,0,0-1.392-7.3c-1.92-4.8-6.336-7.584-11.952-7.584-8.208,0-13.536,5.808-13.536,14.688,0,8.976,5.376,14.64,13.872,14.64a13.631,13.631,0,0,0,9.888-3.7,13.49,13.49,0,0,0,2.928-4.416L460.416,91.7a6.976,6.976,0,0,1-1.392,2.5,8.075,8.075,0,0,1-11.76-.288c-1.1-1.392-1.536-2.736-1.776-5.376Zm-20.736-4.752c.72-4.032,3.456-6.528,7.2-6.528a6.845,6.845,0,0,1,5.184,1.92,7.534,7.534,0,0,1,2.112,4.608Zm29.9,18.288a16.168,16.168,0,0,1-.336,3.7h6.768a21.626,21.626,0,0,1-.288-3.648v-1.44h18.192v1.536a13.6,13.6,0,0,1-.336,3.552h6.816a17.259,17.259,0,0,1-.336-3.84V99.184a25.378,25.378,0,0,1,.336-3.84c-1.584.1-1.824.1-2.832.1V79.5a46.48,46.48,0,0,1,.336-6.24c-1.92.144-2.64.144-6.048.144H487.392c-3.36,0-4.128,0-6-.144a51.571,51.571,0,0,1,.288,5.712,42.345,42.345,0,0,1-.768,8.688,23.989,23.989,0,0,1-2.88,7.776c-1.2-.048-1.2-.048-2.832-.1a24.078,24.078,0,0,1,.336,3.888Zm8.736-6.576a27.3,27.3,0,0,0,2.592-7.3,47.014,47.014,0,0,0,.768-9.6h9.984v16.9Zm32.3-22.08a53.277,53.277,0,0,1,.336,6.144V94.528a41.614,41.614,0,0,1-.384,6.192h6.816a26.5,26.5,0,0,1,2.688-4.416l9.216-12.192a8.387,8.387,0,0,0,.864-1.392c.048-.1.144-.24.288-.48-.048,1.008-.048,1.008-.1,2.544l-.048,9.792a44.039,44.039,0,0,1-.336,6.144h6.672a48.643,48.643,0,0,1-.336-6.192V79.552a48.882,48.882,0,0,1,.336-6.144h-6.72a18.976,18.976,0,0,1-2.688,4.464l-9.072,12.1c-.288.384-.72,1.056-1.056,1.584a3.085,3.085,0,0,1-.288.48c.048-1.344.1-2.256.1-2.736V79.6a48.149,48.149,0,0,1,.336-6.192ZM561.5,100.72a44.962,44.962,0,0,1-.336-6.144V89.152H574.8v5.424a50.469,50.469,0,0,1-.336,6.144h6.624a45.907,45.907,0,0,1-.336-6.144V79.6a42.988,42.988,0,0,1,.336-6.192h-6.624A49.154,49.154,0,0,1,574.8,79.6v4.272H561.168v-4.32a47.371,47.371,0,0,1,.336-6.144H554.88a49.945,49.945,0,0,1,.336,6.144V94.576a38.04,38.04,0,0,1-.336,6.144Zm49.488-10.992V94.48a49.443,49.443,0,0,1-.336,6.24h6.624a47.65,47.65,0,0,1-.336-6.192V79.408a47.871,47.871,0,0,1,.336-6.144c-1.968.1-3.456.144-6.048.144h-8.016c-5.76,0-9.12,2.736-9.12,7.44a6.413,6.413,0,0,0,2.544,5.568,6.687,6.687,0,0,0,3.36,1.3,4.247,4.247,0,0,0-2.016,1.2,20.8,20.8,0,0,0-3.024,5.04c-2.688,5.616-2.688,5.616-3.456,6.768h7.44a33.773,33.773,0,0,1,2.448-6.432c1.728-3.648,2.64-4.56,4.8-4.56Zm0-4.944h-6.72c-2.736,0-4.08-1.056-4.08-3.216s1.3-3.216,3.936-3.216h6.864Zm47.376,3.744c-.1-1.1-.1-1.248-.1-1.344a19.732,19.732,0,0,0-1.392-7.3c-1.92-4.8-6.336-7.584-11.952-7.584-8.208,0-13.536,5.808-13.536,14.688,0,8.976,5.376,14.64,13.872,14.64a13.631,13.631,0,0,0,9.888-3.7,13.49,13.49,0,0,0,2.928-4.416L652.416,91.7a6.977,6.977,0,0,1-1.392,2.5,8.075,8.075,0,0,1-11.76-.288c-1.1-1.392-1.536-2.736-1.776-5.376Zm-20.736-4.752c.72-4.032,3.456-6.528,7.2-6.528a6.845,6.845,0,0,1,5.184,1.92,7.534,7.534,0,0,1,2.112,4.608Zm48.96,16.944a49.443,49.443,0,0,1-.336-6.24V78.64H690a53.173,53.173,0,0,1,6.144.288V73.072a44.038,44.038,0,0,1-6.144.336H676.368a45.431,45.431,0,0,1-6.144-.336v5.856a56.817,56.817,0,0,1,6.24-.288h3.648V94.48a44.172,44.172,0,0,1-.336,6.24ZM29.472,168.848a8.35,8.35,0,0,0,7.488-3.7l-4.272-3.36a5.012,5.012,0,0,1-4.656,2.3H23.376c-4.7,0-8.16,1.68-10.368,5.088-1.968,2.976-3.12,8.352-3.12,14.4a25.163,25.163,0,0,0,2.256,11.184c2.256,4.272,6.432,6.576,12,6.576,8.544,0,14.112-5.76,14.112-14.64,0-8.3-4.9-13.68-12.528-13.68-4.608,0-7.1,1.1-9.408,4.08.48-2.88.912-4.176,1.824-5.472,1.3-1.92,3.264-2.784,6.192-2.784Zm-4.848,8.976a7.081,7.081,0,0,1,4.56,1.536c1.872,1.392,2.88,4.176,2.88,7.632a10.63,10.63,0,0,1-1.728,6.384,7.493,7.493,0,0,1-6.192,2.832c-4.992,0-7.968-3.408-7.968-9.072S19.488,177.824,24.624,177.824Zm51.36,10.7c-.1-1.1-.1-1.248-.1-1.344a19.732,19.732,0,0,0-1.392-7.3c-1.92-4.8-6.336-7.584-11.952-7.584-8.208,0-13.536,5.808-13.536,14.688,0,8.976,5.376,14.64,13.872,14.64a13.631,13.631,0,0,0,9.888-3.7A13.49,13.49,0,0,0,75.7,193.52L70.032,191.7a6.976,6.976,0,0,1-1.392,2.5,8.075,8.075,0,0,1-11.76-.288c-1.1-1.392-1.536-2.736-1.776-5.376Zm-20.736-4.752c.72-4.032,3.456-6.528,7.2-6.528a6.845,6.845,0,0,1,5.184,1.92,7.534,7.534,0,0,1,2.112,4.608Zm58.464-2.784a15.977,15.977,0,0,0-1.68-3.5c-2.3-3.36-6.048-5.184-10.752-5.184a13.144,13.144,0,0,0-9.648,3.648,15.521,15.521,0,0,0-4.08,11.088c0,8.88,5.472,14.592,13.92,14.592,4.56,0,8.256-1.68,10.56-4.8a14.373,14.373,0,0,0,2.016-4.128l-5.952-1.2a6.709,6.709,0,0,1-.96,2.4,6.426,6.426,0,0,1-5.52,2.688c-4.848,0-7.824-3.7-7.824-9.7,0-5.952,2.928-9.648,7.632-9.648a6.039,6.039,0,0,1,4.944,2.208,9.146,9.146,0,0,1,1.488,2.928Zm13.92-7.584a48.107,48.107,0,0,1,.336,6.1v15.072a48.378,48.378,0,0,1-.336,6.144h6.72a48.376,48.376,0,0,1-.336-6.144v-5.568h1.2a6.752,6.752,0,0,1,1.92.288c1.1.432,2.4,1.968,3.888,4.512,3.312,5.664,3.312,5.664,3.7,6.912h8.448a24.569,24.569,0,0,1-2.592-3.456c-2.256-3.312-2.256-3.312-3.456-4.992-2.256-3.312-2.256-3.312-3.168-4.224a6.418,6.418,0,0,0-4.32-1.776,6.024,6.024,0,0,0,3.792-2.544l3.264-4.752a2.174,2.174,0,0,1,1.824-1.056,2.862,2.862,0,0,1,1.536.48l1.632-4.752a8.846,8.846,0,0,0-4.08-.816,6.13,6.13,0,0,0-5.424,3.024l-3.744,5.664a4.678,4.678,0,0,1-3.744,2.208h-.672V179.5a44.209,44.209,0,0,1,.336-6.1ZM177.7,201.632c8.544,0,14.16-5.856,14.16-14.736s-5.52-14.544-14.208-14.544c-8.736,0-14.3,5.712-14.3,14.64C163.344,195.968,168.912,201.632,177.7,201.632Zm-.048-24.288c5.088,0,8.016,3.552,8.016,9.744,0,5.856-3.072,9.456-8.064,9.456s-8.064-3.648-8.064-9.552C169.536,180.992,172.608,177.344,177.648,177.344ZM209.52,200.72a44.959,44.959,0,0,1-.336-6.144v-5.424h13.632v5.424a50.482,50.482,0,0,1-.336,6.144H229.1a45.9,45.9,0,0,1-.336-6.144V179.6a42.986,42.986,0,0,1,.336-6.192H222.48a49.166,49.166,0,0,1,.336,6.192v4.272H209.184v-4.32a47.368,47.368,0,0,1,.336-6.144H202.9a49.942,49.942,0,0,1,.336,6.144v15.024a38.042,38.042,0,0,1-.336,6.144Zm58.464-12.192c-.1-1.1-.1-1.248-.1-1.344a19.733,19.733,0,0,0-1.392-7.3c-1.92-4.8-6.336-7.584-11.952-7.584-8.208,0-13.536,5.808-13.536,14.688,0,8.976,5.376,14.64,13.872,14.64a13.631,13.631,0,0,0,9.888-3.7,13.49,13.49,0,0,0,2.928-4.416l-5.664-1.824a6.976,6.976,0,0,1-1.392,2.5,8.075,8.075,0,0,1-11.76-.288c-1.1-1.392-1.536-2.736-1.776-5.376Zm-20.736-4.752c.72-4.032,3.456-6.528,7.2-6.528a6.845,6.845,0,0,1,5.184,1.92,7.534,7.534,0,0,1,2.112,4.608Zm33.36-10.368a52.47,52.47,0,0,1,.336,6.1v5.328c0,4.512,2.16,6.192,7.92,6.192a62.18,62.18,0,0,0,8.16-.576v4.224a55.284,55.284,0,0,1-.336,6.048h6.72a41.554,41.554,0,0,1-.336-5.952V179.456a46.824,46.824,0,0,1,.336-6.048h-6.72a49.971,49.971,0,0,1,.336,6.048v6.336a50.238,50.238,0,0,1-5.472.288c-2.352,0-2.88-.048-3.552-.288-.672-.288-1.008-.96-1.008-2.16V179.5a45.143,45.143,0,0,1,.336-6.1ZM324.72,200.72a44.961,44.961,0,0,1-.336-6.144v-5.424h13.632v5.424a50.482,50.482,0,0,1-.336,6.144H344.3a45.9,45.9,0,0,1-.336-6.144V179.6a42.984,42.984,0,0,1,.336-6.192H337.68a49.166,49.166,0,0,1,.336,6.192v4.272H324.384v-4.32a47.37,47.37,0,0,1,.336-6.144H318.1a49.945,49.945,0,0,1,.336,6.144v15.024a38.044,38.044,0,0,1-.336,6.144Zm33.888,4.272a24.655,24.655,0,0,0,5.808.72c4.032,0,6.816-1.632,8.3-4.848l10.176-22.08c1.392-2.88,2.208-4.656,2.592-5.376l-7.1.048a24.435,24.435,0,0,1-1.776,5.088l-5.232,12.672-5.856-12.672a23.442,23.442,0,0,1-1.776-5.136H356.5a59.065,59.065,0,0,1,2.736,5.376l8.88,18.048-.576,1.344c-.672,1.488-1.92,2.208-3.888,2.208a8.555,8.555,0,0,1-3.792-.912Zm39.168-16.08h3.456c.528,3.984,1.008,5.616,2.208,7.488,2.112,3.312,5.472,4.992,9.936,4.992,7.92,0,12.672-5.424,12.672-14.5,0-8.928-4.656-14.208-12.48-14.208a11.43,11.43,0,0,0-8.592,3.264c-1.872,1.92-2.736,3.84-3.648,8.112h-3.552V179.6a47.65,47.65,0,0,1,.336-6.192h-6.576a44.915,44.915,0,0,1,.336,6.24V194.48a53.213,53.213,0,0,1-.336,6.24h6.576a49.959,49.959,0,0,1-.336-6.24Zm15.648,7.584a5.761,5.761,0,0,1-4.176-1.584c-1.488-1.584-2.352-4.416-2.352-7.776,0-6,2.5-9.552,6.624-9.552,4.08,0,6.48,3.456,6.48,9.312,0,3.36-.864,6.192-2.352,7.872A5.6,5.6,0,0,1,413.424,196.5Zm41.856,4.224c6.384,0,9.792-2.64,9.792-7.584a6.481,6.481,0,0,0-2.208-5.232,6.309,6.309,0,0,0-3.936-1.584c3.36-.768,5.088-2.88,5.088-6.24,0-4.464-3.072-6.672-9.168-6.672h-7.92c-2.88,0-4.08-.048-6-.144a46.877,46.877,0,0,1,.336,6.144V194.72a46.876,46.876,0,0,1-.336,6.144c2.112-.1,3.36-.144,6.048-.144ZM447.168,184.3v-6.288h7.008c2.736,0,4.032.96,4.032,2.976,0,2.16-1.392,3.312-3.984,3.312Zm0,4.272h7.3c3.168,0,4.656,1.2,4.656,3.792,0,2.5-1.488,3.7-4.608,3.7h-7.344Zm44.112,13.056c8.544,0,14.16-5.856,14.16-14.736s-5.52-14.544-14.208-14.544c-8.736,0-14.3,5.712-14.3,14.64C476.928,195.968,482.5,201.632,491.28,201.632Zm-.048-24.288c5.088,0,8.016,3.552,8.016,9.744,0,5.856-3.072,9.456-8.064,9.456s-8.064-3.648-8.064-9.552C483.12,180.992,486.192,177.344,491.232,177.344Zm25.392,16.8c1.008,2.736,1.872,3.984,3.792,5.28,1.872,1.248,5.328,2.016,9.024,2.016,4.464,0,8.016-1.1,10.08-3.12a6.582,6.582,0,0,0,2.016-4.992,6,6,0,0,0-2.3-5.088c-1.344-1.008-2.688-1.392-5.52-1.632a9.434,9.434,0,0,0,4.416-1.632,5.89,5.89,0,0,0,2.4-5.088,5.693,5.693,0,0,0-.864-3.312c-1.536-2.5-5.184-3.936-9.936-3.936a15.743,15.743,0,0,0-8.3,1.92,9.091,9.091,0,0,0-3.888,5.04l6.1,1.1c.912-2.5,2.4-3.36,5.712-3.36,3.456,0,5.136,1.056,5.136,3.216,0,2.688-1.824,3.792-6.192,3.792a16.931,16.931,0,0,1-3.168-.24v5.04a16.931,16.931,0,0,1,3.6-.24c5.088,0,6.72.864,6.72,3.6q0,4.176-6.192,4.176a9.411,9.411,0,0,1-4.608-.96,3.747,3.747,0,0,1-1.92-2.64Zm67.632,6.576a44.776,44.776,0,0,1-.336-6.192V179.552a51.566,51.566,0,0,1,.336-6.144h-7.872a2.731,2.731,0,0,1-.144.768c-.144.624-1.3,3.888-1.392,4.128l-6.864,14.448L561.072,178.3c-.144-.384-1.2-3.408-1.392-3.984-.048-.288-.1-.48-.144-.912h-7.872A53.533,53.533,0,0,1,552,179.6v14.928a42.988,42.988,0,0,1-.336,6.192h6.24a45.718,45.718,0,0,1-.336-6.192v-9.36c0-1.2-.048-2.256-.192-4.032a24.848,24.848,0,0,0,1.3,3.5l5.184,10.56a34.725,34.725,0,0,1,2.016,5.52h4.176a30.179,30.179,0,0,1,1.968-5.472l5.232-10.608a26.338,26.338,0,0,0,1.3-3.5,40.3,40.3,0,0,0-.192,4.032v9.36a50.2,50.2,0,0,1-.336,6.192Zm22.224.912c8.544,0,14.16-5.856,14.16-14.736s-5.52-14.544-14.208-14.544c-8.736,0-14.3,5.712-14.3,14.64C592.128,195.968,597.7,201.632,606.48,201.632Zm-.048-24.288c5.088,0,8.016,3.552,8.016,9.744,0,5.856-3.072,9.456-8.064,9.456s-8.064-3.648-8.064-9.552C598.32,180.992,601.392,177.344,606.432,177.344Zm35.472,6.912h-.912a2.993,2.993,0,0,1-2.688-1.776l-3.36-6.144c-1.344-2.5-2.736-3.408-5.232-3.408a8.441,8.441,0,0,0-3.216.624l1.008,4.416a1.976,1.976,0,0,1,1.2-.384c.672,0,1.008.24,1.488,1.1l2.832,4.8a5.113,5.113,0,0,0,3.792,2.88c-2.448.384-3.744,1.344-5.04,3.7l-4.128,7.536a29.835,29.835,0,0,1-1.776,3.12h6.816a14.726,14.726,0,0,1,1.248-3.36l3.072-6.1c.816-1.68,2.016-2.352,4.08-2.352h.816v6.528a38.031,38.031,0,0,1-.336,5.28H647.9a41.55,41.55,0,0,1-.288-5.28v-6.528h.816c2.112,0,3.168.624,4.032,2.3l3.12,6.144a18.652,18.652,0,0,1,1.248,3.36H663.6c-.768-1.2-.768-1.2-2.544-4.416l-3.408-6.288a8.053,8.053,0,0,0-2.448-2.832,5.023,5.023,0,0,0-2.5-.816,5.1,5.1,0,0,0,3.744-2.88l2.832-4.8c.528-.912.816-1.1,1.44-1.1a2.669,2.669,0,0,1,1.248.384l1.008-4.416a7.666,7.666,0,0,0-3.168-.576c-2.592,0-3.936.864-5.28,3.36l-3.312,6.144a3.2,3.2,0,0,1-2.736,1.776h-.864v-5.568a46.722,46.722,0,0,1,.288-5.28h-6.336a40.008,40.008,0,0,1,.336,5.28Zm34.8,16.464a44.961,44.961,0,0,1-.336-6.144v-5.424H690v5.424a50.47,50.47,0,0,1-.336,6.144h6.624a45.907,45.907,0,0,1-.336-6.144V179.6a42.988,42.988,0,0,1,.336-6.192h-6.624A49.154,49.154,0,0,1,690,179.6v4.272H676.368v-4.32a47.37,47.37,0,0,1,.336-6.144H670.08a49.945,49.945,0,0,1,.336,6.144v15.024a38.04,38.04,0,0,1-.336,6.144Zm44.976.912c8.544,0,14.16-5.856,14.16-14.736s-5.52-14.544-14.208-14.544c-8.736,0-14.3,5.712-14.3,14.64C707.328,195.968,712.9,201.632,721.68,201.632Zm-.048-24.288c5.088,0,8.016,3.552,8.016,9.744,0,5.856-3.072,9.456-8.064,9.456s-8.064-3.648-8.064-9.552C713.52,180.992,716.592,177.344,721.632,177.344Zm51.264,3.648a15.976,15.976,0,0,0-1.68-3.5c-2.3-3.36-6.048-5.184-10.752-5.184a13.144,13.144,0,0,0-9.648,3.648,15.521,15.521,0,0,0-4.08,11.088c0,8.88,5.472,14.592,13.92,14.592,4.56,0,8.256-1.68,10.56-4.8a14.373,14.373,0,0,0,2.016-4.128l-5.952-1.2a6.709,6.709,0,0,1-.96,2.4,6.426,6.426,0,0,1-5.52,2.688c-4.848,0-7.824-3.7-7.824-9.7,0-5.952,2.928-9.648,7.632-9.648a6.039,6.039,0,0,1,4.944,2.208,9.145,9.145,0,0,1,1.488,2.928Zm28.9,19.728a49.443,49.443,0,0,1-.336-6.24V178.64H805.2a53.173,53.173,0,0,1,6.144.288v-5.856a44.037,44.037,0,0,1-6.144.336H791.568a45.429,45.429,0,0,1-6.144-.336v5.856a56.817,56.817,0,0,1,6.24-.288h3.648v15.84a44.172,44.172,0,0,1-.336,6.24ZM832.32,183.2v-3.7a45.625,45.625,0,0,1,.336-6.1h-6.624a53.054,53.054,0,0,1,.336,6.1v15.168a43.43,43.43,0,0,1-.336,6.192c2.112-.1,3.36-.144,6-.144h8.112c6.24,0,9.792-3.168,9.792-8.784,0-5.568-3.552-8.736-9.84-8.736Zm0,12.576v-7.632h6.624c3.408,0,4.848,1.152,4.848,3.84s-1.392,3.792-4.752,3.792Z" transform="translate(174.76 502)"/>
          <path id="路径_41058" data-name="路径 41058" d="M5-9.6a4.159,4.159,0,0,0-3.1,1.2A5.137,5.137,0,0,0,.54-4.656c0,3.048,1.752,5,4.476,5S9.5-1.62,9.5-4.656A5.175,5.175,0,0,0,8.16-8.4,4.205,4.205,0,0,0,5-9.6ZM5.04-1.08a2.591,2.591,0,0,1-1.86-.732,3.965,3.965,0,0,1-.972-2.832c0-2.172,1.092-3.54,2.82-3.54a2.583,2.583,0,0,1,1.848.732,3.876,3.876,0,0,1,.948,2.8C7.824-2.448,6.756-1.08,5.04-1.08ZM36.576-9.408a9.767,9.767,0,0,1,.1,1.644V-3.54a2.191,2.191,0,0,1-2.436,2.484,2.2,2.2,0,0,1-2.46-2.472V-7.764a9.41,9.41,0,0,1,.1-1.644H30.084a9.858,9.858,0,0,1,.1,1.644v4.236a3.865,3.865,0,0,0,.9,2.76A4.134,4.134,0,0,0,34.176.36c2.616,0,4.092-1.392,4.092-3.876v-4.26a9.7,9.7,0,0,1,.1-1.632ZM67.332.144c-.168-.324-.468-.972-.564-1.188C65.58-3.852,65.352-4.188,64.6-4.428a2.537,2.537,0,0,0,1.332-.7,2.467,2.467,0,0,0,.612-1.788c0-1.584-1.044-2.5-2.868-2.5h-2.88c-.66,0-1.032-.012-1.536-.036a10.677,10.677,0,0,1,.1,1.56v6.468a9.391,9.391,0,0,1-.1,1.56h1.788a9.364,9.364,0,0,1-.1-1.572V-3.876h1.788c.924,0,1.344.444,1.992,2.1a9.714,9.714,0,0,1,.624,1.92ZM60.948-5.244v-2.8h2.46c.984,0,1.476.444,1.476,1.308A1.424,1.424,0,0,1,64.5-5.676a1.617,1.617,0,0,1-1.14.432ZM116.7.144a9.771,9.771,0,0,1,.528-1.6l1.8-4.224a14.644,14.644,0,0,0,.552-1.752c-.012.18-.048.792-.1,1.836v3.984a11.156,11.156,0,0,1-.1,1.752h1.68a10.4,10.4,0,0,1-.1-1.752V-7.632a12.427,12.427,0,0,1,.1-1.776H118.86a6.65,6.65,0,0,1-.432,1.428L116-2.028,113.568-7.98a8.305,8.305,0,0,1-.444-1.428h-2.2a11.9,11.9,0,0,1,.1,1.776v6.024a11.254,11.254,0,0,1-.1,1.752h1.68a10.964,10.964,0,0,1-.1-1.752V-5.544c0-.264-.048-1.248-.1-1.884a13.354,13.354,0,0,0,.612,1.836l1.728,4.116a8.169,8.169,0,0,1,.528,1.62Zm25.272-9.552a8.966,8.966,0,0,1,.1,1.548V-1.4a9.055,9.055,0,0,1-.1,1.548H143.8a9.055,9.055,0,0,1-.1-1.548V-7.86a8.966,8.966,0,0,1,.1-1.548Zm22.4,6.756a4.1,4.1,0,0,0,.228,1A2.825,2.825,0,0,0,165.66-.288a4.825,4.825,0,0,0,2.52.624,3.977,3.977,0,0,0,2.868-.912,2.792,2.792,0,0,0,.756-2.04,2.368,2.368,0,0,0-1-2.064,5.283,5.283,0,0,0-1.956-.732,10.216,10.216,0,0,1-1.692-.432,1.141,1.141,0,0,1-.816-1.092c0-.78.708-1.308,1.752-1.308a1.9,1.9,0,0,1,1.5.576,1.55,1.55,0,0,1,.36.852l1.716-.2a3.235,3.235,0,0,0-.588-1.392A3.537,3.537,0,0,0,168.1-9.624c-2.064,0-3.408,1.08-3.408,2.748a2.362,2.362,0,0,0,.924,1.944,4.242,4.242,0,0,0,1.812.732,7.566,7.566,0,0,1,2.088.588,1.218,1.218,0,0,1,.6,1.1c0,.9-.72,1.44-1.92,1.44a2.13,2.13,0,0,1-1.752-.708,1.72,1.72,0,0,1-.336-1.056Zm27.78,0a4.1,4.1,0,0,0,.228,1A2.825,2.825,0,0,0,193.44-.288a4.825,4.825,0,0,0,2.52.624,3.977,3.977,0,0,0,2.868-.912,2.792,2.792,0,0,0,.756-2.04,2.368,2.368,0,0,0-1-2.064,5.283,5.283,0,0,0-1.956-.732,10.216,10.216,0,0,1-1.692-.432,1.141,1.141,0,0,1-.816-1.092c0-.78.708-1.308,1.752-1.308a1.9,1.9,0,0,1,1.5.576,1.55,1.55,0,0,1,.36.852l1.716-.2a3.235,3.235,0,0,0-.588-1.392,3.537,3.537,0,0,0-2.988-1.212c-2.064,0-3.408,1.08-3.408,2.748a2.362,2.362,0,0,0,.924,1.944A4.242,4.242,0,0,0,195.2-4.2a7.566,7.566,0,0,1,2.088.588,1.218,1.218,0,0,1,.6,1.1c0,.9-.72,1.44-1.92,1.44a2.13,2.13,0,0,1-1.752-.708,1.72,1.72,0,0,1-.336-1.056Zm28.092-6.756a8.966,8.966,0,0,1,.1,1.548V-1.4a9.055,9.055,0,0,1-.1,1.548h1.824a9.055,9.055,0,0,1-.1-1.548V-7.86a8.966,8.966,0,0,1,.1-1.548ZM247.116-9.6a4.159,4.159,0,0,0-3.1,1.2,5.137,5.137,0,0,0-1.368,3.744c0,3.048,1.752,5,4.476,5s4.488-1.968,4.488-5A5.175,5.175,0,0,0,250.272-8.4,4.205,4.205,0,0,0,247.116-9.6Zm.036,8.52a2.591,2.591,0,0,1-1.86-.732,3.965,3.965,0,0,1-.972-2.832c0-2.172,1.092-3.54,2.82-3.54a2.583,2.583,0,0,1,1.848.732,3.876,3.876,0,0,1,.948,2.8C249.936-2.448,248.868-1.08,247.152-1.08ZM280.368.144a9.055,9.055,0,0,1-.1-1.548V-7.752a10.493,10.493,0,0,1,.1-1.656h-1.752a10.489,10.489,0,0,1,.1,1.656V-3.72c0,.5.036,1.224.084,1.692-.264-.48-.648-1.1-.936-1.536l-3.036-4.572a6.582,6.582,0,0,1-.732-1.272H272.22a9.993,9.993,0,0,1,.1,1.548v6.192a12.983,12.983,0,0,1-.1,1.812h1.752a13.282,13.282,0,0,1-.1-1.8V-5.592c0-.276-.024-.816-.036-1.044-.036-.444-.036-.444-.048-.612.288.564.588,1.08.816,1.44l3.1,4.668a11.958,11.958,0,0,1,.768,1.284Z" transform="translate(180.46 400)"/>
        </g>
      </g>
      <g id="背景" transform="translate(283.495 -6.459)" opacity="0.1">
        <path id="路径_40487" data-name="路径 40487" d="M395.381,229.828l896.223,2.131,97.389,98.326V711.014l-921.585-2.13-72.028-85.75Z" transform="translate(90.634 56.382)" fill="none" stroke="#000" stroke-miterlimit="10" stroke-width="2"/>
        <path id="路径_40488" data-name="路径 40488" d="M484,250.647h769.917l62.883-66.313" transform="translate(155.55 21.688)" fill="none" stroke="#000" stroke-miterlimit="10" stroke-width="2"/>
        <path id="路径_40489" data-name="路径 40489" d="M1316.8,184.333H546.883L484,250.647" transform="translate(-59.926 594.795)" fill="none" stroke="#000" stroke-miterlimit="10" stroke-width="2"/>
        <circle id="椭圆_2071" data-name="椭圆 2071" cx="29.476" cy="29.476" r="29.476" transform="translate(1461.56 154)" fill="none" stroke="#000" stroke-miterlimit="10" stroke-width="2"/>
        <circle id="椭圆_2072" data-name="椭圆 2072" cx="18.42" cy="18.42" r="18.42" transform="translate(393.772 840.211)" fill="none" stroke="#000" stroke-miterlimit="10" stroke-width="2"/>
        <path id="路径_40490" data-name="路径 40490" d="M594.911,288.661l58.755-25.446h748.26" transform="translate(-31.036 -16.326)" fill="none" stroke="#000" stroke-width="2"/>
        <path id="路径_40491" data-name="路径 40491" d="M1401.926,263.214l-58.755,25.446H594.911" transform="translate(-69.377 515.914)" fill="none" stroke="#000" stroke-width="2"/>
        <path id="路径_40492" data-name="路径 40492" d="M444.242,293.133H387.292V671" transform="translate(79.749 -20.798)" fill="none" stroke="#000" stroke-width="2"/>
        <path id="路径_40493" data-name="路径 40493" d="M1688.293,462.333V786.349H1608.8" transform="translate(-182.597 -46.091)" fill="none" stroke="#707070" stroke-width="2"/>
        <path id="路径_40494" data-name="路径 40494" d="M428.642,768.6l67.719,70.977" transform="translate(44.819 -79.873)" fill="none" stroke="#000" stroke-width="2"/>
        <path id="路径_40495" data-name="路径 40495" d="M1636.882,316.811l50.249,47.226" transform="translate(-194.885 -6.37)" fill="none" stroke="#000" stroke-width="2"/>
      </g>
    </g>
  </g>
</svg>
