<svg xmlns="http://www.w3.org/2000/svg" xmlns:xlink="http://www.w3.org/1999/xlink" width="1820" height="880" viewBox="0 0 1820 880">
  <defs>
    <clipPath id="clip-path">
      <rect id="矩形_2676" data-name="矩形 2676" width="1820" height="880" transform="translate(50 88)" fill="#fff"/>
    </clipPath>
  </defs>
  <g id="人工智能-韩文" transform="translate(-6399 1162)">
    <g id="人工智能-CN" transform="translate(6349 -1250)" clip-path="url(#clip-path)">
      <g id="组_21869" data-name="组 21869">
        <g id="组_21868" data-name="组 21868" transform="translate(-6274 1354)">
          <g id="组_21864" data-name="组 21864" transform="translate(6349 -1368)">
            <path id="路径_39973" data-name="路径 39973" d="M5-9.6a4.159,4.159,0,0,0-3.1,1.2A5.137,5.137,0,0,0,.54-4.656c0,3.048,1.752,5,4.476,5S9.5-1.62,9.5-4.656A5.175,5.175,0,0,0,8.16-8.4,4.205,4.205,0,0,0,5-9.6ZM5.04-1.08a2.591,2.591,0,0,1-1.86-.732,3.965,3.965,0,0,1-.972-2.832c0-2.172,1.092-3.54,2.82-3.54a2.583,2.583,0,0,1,1.848.732,3.876,3.876,0,0,1,.948,2.8C7.824-2.448,6.756-1.08,5.04-1.08ZM36.576-9.408a9.767,9.767,0,0,1,.1,1.644V-3.54a2.191,2.191,0,0,1-2.436,2.484,2.2,2.2,0,0,1-2.46-2.472V-7.764a9.41,9.41,0,0,1,.1-1.644H30.084a9.858,9.858,0,0,1,.1,1.644v4.236a3.865,3.865,0,0,0,.9,2.76A4.134,4.134,0,0,0,34.176.36c2.616,0,4.092-1.392,4.092-3.876v-4.26a9.7,9.7,0,0,1,.1-1.632ZM67.332.144c-.168-.324-.468-.972-.564-1.188C65.58-3.852,65.352-4.188,64.6-4.428a2.537,2.537,0,0,0,1.332-.7,2.467,2.467,0,0,0,.612-1.788c0-1.584-1.044-2.5-2.868-2.5h-2.88c-.66,0-1.032-.012-1.536-.036a10.677,10.677,0,0,1,.1,1.56v6.468a9.391,9.391,0,0,1-.1,1.56h1.788a9.364,9.364,0,0,1-.1-1.572V-3.876h1.788c.924,0,1.344.444,1.992,2.1a9.714,9.714,0,0,1,.624,1.92ZM60.948-5.244v-2.8h2.46c.984,0,1.476.444,1.476,1.308A1.424,1.424,0,0,1,64.5-5.676a1.617,1.617,0,0,1-1.14.432ZM116.7.144a9.771,9.771,0,0,1,.528-1.6l1.8-4.224a14.644,14.644,0,0,0,.552-1.752c-.012.18-.048.792-.1,1.836v3.984a11.156,11.156,0,0,1-.1,1.752h1.68a10.4,10.4,0,0,1-.1-1.752V-7.632a12.427,12.427,0,0,1,.1-1.776H118.86a6.65,6.65,0,0,1-.432,1.428L116-2.028,113.568-7.98a8.305,8.305,0,0,1-.444-1.428h-2.2a11.9,11.9,0,0,1,.1,1.776v6.024a11.254,11.254,0,0,1-.1,1.752h1.68a10.964,10.964,0,0,1-.1-1.752V-5.544c0-.264-.048-1.248-.1-1.884a13.354,13.354,0,0,0,.612,1.836l1.728,4.116a8.169,8.169,0,0,1,.528,1.62Zm25.272-9.552a8.966,8.966,0,0,1,.1,1.548V-1.4a9.055,9.055,0,0,1-.1,1.548H143.8a9.055,9.055,0,0,1-.1-1.548V-7.86a8.966,8.966,0,0,1,.1-1.548Zm22.4,6.756a4.1,4.1,0,0,0,.228,1A2.825,2.825,0,0,0,165.66-.288a4.825,4.825,0,0,0,2.52.624,3.977,3.977,0,0,0,2.868-.912,2.792,2.792,0,0,0,.756-2.04,2.368,2.368,0,0,0-1-2.064,5.283,5.283,0,0,0-1.956-.732,10.216,10.216,0,0,1-1.692-.432,1.141,1.141,0,0,1-.816-1.092c0-.78.708-1.308,1.752-1.308a1.9,1.9,0,0,1,1.5.576,1.55,1.55,0,0,1,.36.852l1.716-.2a3.235,3.235,0,0,0-.588-1.392A3.537,3.537,0,0,0,168.1-9.624c-2.064,0-3.408,1.08-3.408,2.748a2.362,2.362,0,0,0,.924,1.944,4.242,4.242,0,0,0,1.812.732,7.566,7.566,0,0,1,2.088.588,1.218,1.218,0,0,1,.6,1.1c0,.9-.72,1.44-1.92,1.44a2.13,2.13,0,0,1-1.752-.708,1.72,1.72,0,0,1-.336-1.056Zm27.78,0a4.1,4.1,0,0,0,.228,1A2.825,2.825,0,0,0,193.44-.288a4.825,4.825,0,0,0,2.52.624,3.977,3.977,0,0,0,2.868-.912,2.792,2.792,0,0,0,.756-2.04,2.368,2.368,0,0,0-1-2.064,5.283,5.283,0,0,0-1.956-.732,10.216,10.216,0,0,1-1.692-.432,1.141,1.141,0,0,1-.816-1.092c0-.78.708-1.308,1.752-1.308a1.9,1.9,0,0,1,1.5.576,1.55,1.55,0,0,1,.36.852l1.716-.2a3.235,3.235,0,0,0-.588-1.392,3.537,3.537,0,0,0-2.988-1.212c-2.064,0-3.408,1.08-3.408,2.748a2.362,2.362,0,0,0,.924,1.944A4.242,4.242,0,0,0,195.2-4.2a7.566,7.566,0,0,1,2.088.588,1.218,1.218,0,0,1,.6,1.1c0,.9-.72,1.44-1.92,1.44a2.13,2.13,0,0,1-1.752-.708,1.72,1.72,0,0,1-.336-1.056Zm28.092-6.756a8.966,8.966,0,0,1,.1,1.548V-1.4a9.055,9.055,0,0,1-.1,1.548h1.824a9.055,9.055,0,0,1-.1-1.548V-7.86a8.966,8.966,0,0,1,.1-1.548ZM247.116-9.6a4.159,4.159,0,0,0-3.1,1.2,5.137,5.137,0,0,0-1.368,3.744c0,3.048,1.752,5,4.476,5s4.488-1.968,4.488-5A5.175,5.175,0,0,0,250.272-8.4,4.205,4.205,0,0,0,247.116-9.6Zm.036,8.52a2.591,2.591,0,0,1-1.86-.732,3.965,3.965,0,0,1-.972-2.832c0-2.172,1.092-3.54,2.82-3.54a2.583,2.583,0,0,1,1.848.732,3.876,3.876,0,0,1,.948,2.8C249.936-2.448,248.868-1.08,247.152-1.08ZM280.368.144a9.055,9.055,0,0,1-.1-1.548V-7.752a10.493,10.493,0,0,1,.1-1.656h-1.752a10.489,10.489,0,0,1,.1,1.656V-3.72c0,.5.036,1.224.084,1.692-.264-.48-.648-1.1-.936-1.536l-3.036-4.572a6.582,6.582,0,0,1-.732-1.272H272.22a9.993,9.993,0,0,1,.1,1.548v6.192a12.983,12.983,0,0,1-.1,1.812h1.752a13.282,13.282,0,0,1-.1-1.8V-5.592c0-.276-.024-.816-.036-1.044-.036-.444-.036-.444-.048-.612.288.564.588,1.08.816,1.44l3.1,4.668a11.958,11.958,0,0,1,.768,1.284Z" transform="translate(180 416)"/>
            <path id="路径_40301" data-name="路径 40301" d="M38.162-9.521V-44.408h6.246V-9.521ZM18.053-16.529a12.935,12.935,0,0,1-9.42-3.644A12.444,12.444,0,0,1,4.9-29.479a12.506,12.506,0,0,1,3.732-9.356,12.935,12.935,0,0,1,9.42-3.644,12.96,12.96,0,0,1,9.42,3.631,12.5,12.5,0,0,1,3.732,9.369,12.433,12.433,0,0,1-3.732,9.318A12.96,12.96,0,0,1,18.053-16.529Zm0-20.592a6.48,6.48,0,0,0-4.989,2.107,7.845,7.845,0,0,0-1.942,5.535,7.762,7.762,0,0,0,1.942,5.5,6.5,6.5,0,0,0,4.989,2.095,6.439,6.439,0,0,0,5-2.095,7.856,7.856,0,0,0,1.9-5.5,7.908,7.908,0,0,0-1.93-5.5A6.387,6.387,0,0,0,18.053-37.121ZM12.8,2.869V-13.3h6.4V-2.488H45.348V2.869ZM105.082-24.5V-9.141H98.759V-44.408h6.322v14.549h7.49V-24.5ZM70.093-14.244l-4.621-5a28.288,28.288,0,0,0,11.794-6.462,21.9,21.9,0,0,0,6.817-10.169H68.7v-5.357H91.929Q89.543-22.547,70.093-14.244ZM74.461,2.869V-13.3h6.4V-2.488h25.594V2.869Zm93.961-21.328V4.57h-6.449V-44.408h6.449v20.592h7.389v5.357ZM156.157-39.584q0,12.645-1.092,25.9l-6.145-.355q.635-4.7.99-20.135H130.894v-5.408Zm4.164,35.471q-14.523.838-33.389.838L126.2-8.633q4.367,0,10.969-.1v-15.92h6.449V-8.836q9.242-.127,16.377-.533Zm92.6,8.684V-44.408h6.246V4.57Zm-7.49-44.662a36.061,36.061,0,0,1-5.929,19.36A43.98,43.98,0,0,1,223.346-6.145l-4.9-4.621a32.8,32.8,0,0,0,13.229-9.5,29.227,29.227,0,0,0,7.008-14.473H221.416v-5.357ZM316.9,4.57V-44.408h6.322V4.57ZM302.681-40.295a64.879,64.879,0,0,1-1.193,7.693h5.307V-43.418h6.3V3.123h-6.3V-14.193h-9.471V-19.5h9.471v-7.795h-6.8a42.685,42.685,0,0,1-6.119,11.705,44.291,44.291,0,0,1-8.328,9.242l-5.357-4.012q4.52-2.615,9.344-9.395a37.352,37.352,0,0,0,6.348-15.234h-13v-5.307ZM378.716,4.57V-44.408h6.3V4.57Zm-20.084-21.3a14.134,14.134,0,0,1-9.661-3.415,11.245,11.245,0,0,1-3.9-8.874,11.227,11.227,0,0,1,3.986-8.937,14.582,14.582,0,0,1,9.852-3.428,13.8,13.8,0,0,1,9.61,3.428,11.477,11.477,0,0,1,3.8,8.938,11.207,11.207,0,0,1-3.936,8.861A14.317,14.317,0,0,1,358.632-16.732Zm.076-19.3a6.952,6.952,0,0,0-5.18,1.98,6.859,6.859,0,0,0-1.955,5.027,6.662,6.662,0,0,0,2.006,4.964,7.018,7.018,0,0,0,5.129,1.968,6.906,6.906,0,0,0,5.142-1.993,6.752,6.752,0,0,0,1.968-4.938,6.822,6.822,0,0,0-1.993-4.989A6.88,6.88,0,0,0,358.708-36.029Zm-16.4,32.5-.66-5.357q23.258,0,34.836-.736l.355,5.256Q360.714-3.529,342.306-3.529ZM471.7-43.316a163.345,163.345,0,0,1-.736,17.469l-6.094-.3q.33-3.2.482-11.807H439.912v-5.357ZM433.107-18v-5.357h17.012V-32.8h6.449v9.445h21.988V-18ZM455.934,4.215q-8.023,0-12.429-2.641T439.1-5.459q0-4.494,4.405-7.084t12.429-2.59q8.074,0,12.441,2.552a7.894,7.894,0,0,1,4.367,7.122q0,4.52-4.418,7.1T455.934,4.215Zm0-14.244a18.176,18.176,0,0,0-7.643,1.27q-2.641,1.27-2.641,3.3t2.641,3.3a18.176,18.176,0,0,0,7.643,1.27,18.077,18.077,0,0,0,7.592-1.257q2.615-1.257,2.615-3.313t-2.615-3.313A18.077,18.077,0,0,0,455.934-10.029Zm75.755-5.1V-26.584h-3.834v9.9h-6.246V-43.418h6.246v11.5h3.834V-44.408h6.3v29.275Zm-14.4-2.539a27.392,27.392,0,0,1-8.836-8.684A25.887,25.887,0,0,1,504.6-21a23.258,23.258,0,0,1-5.18,4.52l-4.6-4.469a19.007,19.007,0,0,0,7.5-6.614,16.267,16.267,0,0,0,2.856-9.153v-5.662h6.094v5.662a14.667,14.667,0,0,0,2.806,8.506,15.459,15.459,0,0,0,7.122,5.738ZM521.66,4.52q-7.77,0-12.2-2.679t-4.431-7.046q0-4.316,4.418-7.046T521.66-14.98q7.77,0,12.175,2.755t4.405,7.021q0,4.342-4.418,7.033T521.66,4.52Zm0-14.244q-5.078,0-7.6,1.27t-2.526,3.25q0,2.006,2.552,3.263A17.775,17.775,0,0,0,521.66-.686,17.767,17.767,0,0,0,529.2-1.93q2.539-1.244,2.539-3.275,0-2.006-2.514-3.263T521.66-9.725ZM592.591,4.57V-44.408h6.348V4.57Zm-8-12.162A36.954,36.954,0,0,1,573.345-19.7,35.155,35.155,0,0,1,562.071-6.754l-4.951-4.469a24.22,24.22,0,0,0,9.382-8.671,21.475,21.475,0,0,0,3.669-11.718v-9.521h6.4v9.369a20.5,20.5,0,0,0,3.567,11.324,20.1,20.1,0,0,0,8.925,7.795ZM656.616,4.57V-19.906h-4.443V3.123H645.9V-43.418h6.271v18.154h4.443V-44.408h6.322V4.57ZM642.981-9.877a197.508,197.508,0,0,1-20.795.838V-40.244h19.3v5.357H628.432V-14.4h2.818a88.077,88.077,0,0,0,11.273-.686Zm47.267,2.909H682.6V.624h4.368c-.052,3.224-.78,4.16-3.952,5.044l1.872,2.756c4.212-1.664,5.356-3.328,5.356-7.8ZM10.309,76.768v-19.4H41.59v19.4ZM35.268,62.727H16.682v8.734H35.268ZM29.174,87.787V104.57h-6.4V87.787H3.275V82.379H48.725v5.408ZM66.031,65.52v-5.1H77.838v-5.51h6.4v5.51H96.043v5.1Zm39.051,11.553V91.164H98.759V55.592h6.322V71.715h7.49v5.357ZM81.113,86.314A14.814,14.814,0,0,1,71.96,83.7a8.147,8.147,0,0,1-.025-13.317q3.44-2.628,9.229-2.628t9.242,2.615a8.138,8.138,0,0,1-.013,13.317Q86.927,86.314,81.113,86.314Zm.051-13.3a8.4,8.4,0,0,0-4.634,1.079,3.346,3.346,0,0,0-1.638,2.933,3.48,3.48,0,0,0,1.6,3,8.137,8.137,0,0,0,4.672,1.117,8.384,8.384,0,0,0,4.735-1.1,3.463,3.463,0,0,0,1.612-3.009,3.332,3.332,0,0,0-1.65-2.945A8.655,8.655,0,0,0,81.164,73.01Zm-7.541,30.012V88.549h6.4v9.115h26.432v5.357Zm54.808-37.5v-5.1h11.807v-5.51h6.4v5.51h11.807v5.1Zm39.051,11.553V91.164h-6.322V55.592h6.322V71.715h7.49v5.357Zm-23.969,9.242A14.814,14.814,0,0,1,134.36,83.7a8.147,8.147,0,0,1-.025-13.317q3.44-2.628,9.229-2.628t9.242,2.615a8.138,8.138,0,0,1-.013,13.317Q149.327,86.314,143.513,86.314Zm.051-13.3a8.4,8.4,0,0,0-4.634,1.079,3.346,3.346,0,0,0-1.638,2.933,3.48,3.48,0,0,0,1.6,3,8.137,8.137,0,0,0,4.672,1.117,8.384,8.384,0,0,0,4.735-1.1,3.463,3.463,0,0,0,1.612-3.009,3.332,3.332,0,0,0-1.65-2.945A8.655,8.655,0,0,0,143.564,73.01Zm-7.541,30.012V88.549h6.4v9.115h26.432v5.357Zm121.7-22.775V104.57h-6.4V55.592h6.4v19.3h7.592v5.357ZM222.863,93.855l-4.773-4.469q16.428-9.014,19.855-24.223H220.908V59.807h24.273Q243.176,81.338,222.863,93.855ZM287.5,72.5V56.633h6.4V67.094h25.9V72.5Zm-6.906,9.547V76.691h45.449v5.357Zm22.725,22.521q-8.023,0-12.327-2.476a7.707,7.707,0,0,1-4.3-7q0-4.443,4.316-6.919t12.314-2.476q8.074,0,12.353,2.5t4.278,6.894a7.707,7.707,0,0,1-4.3,7Q311.339,104.57,303.316,104.57Zm0-13.609q-10.131,0-10.131,4.139,0,1.955,2.564,3.11a25.356,25.356,0,0,0,15.133,0q2.564-1.155,2.564-3.11Q313.447,90.961,303.316,90.961Zm75.3-7.338V69.633H368.1V64.225h10.512V55.592h6.246V83.623Zm-9.725-1.574A26.09,26.09,0,0,1,357.718,72.6a24.964,24.964,0,0,1-4.837,6.132,27.43,27.43,0,0,1-6.081,4.786L342.154,79.1a22.505,22.505,0,0,0,8.811-6.792,14.64,14.64,0,0,0,3.428-9.077V57.141h6.322v5.891a12.8,12.8,0,0,0,3.555,8.684,17.766,17.766,0,0,0,8.684,5.408Zm.559,22.318q-7.592,0-11.845-2.831a8.521,8.521,0,0,1-4.253-7.351q0-4.494,4.266-7.351t11.832-2.856q7.592,0,11.883,2.869t4.291,7.338q0,4.52-4.278,7.351T369.448,104.367Zm0-15.133q-4.85,0-7.249,1.371a3.853,3.853,0,0,0,.025,7.147q2.425,1.358,7.224,1.358,4.824,0,7.274-1.346a4.026,4.026,0,0,0,2.45-3.58,4.075,4.075,0,0,0-2.425-3.567Q374.323,89.234,369.448,89.234Zm88.872-9.775a12.725,12.725,0,0,1-10.436,4.723,13.217,13.217,0,0,1-9.547-3.694,12.872,12.872,0,0,1-3.834-9.712,12.9,12.9,0,0,1,3.821-9.712,13.206,13.206,0,0,1,9.56-3.694A12.791,12.791,0,0,1,458.6,62.4h10.08v-6.8h6.3v35.42h-6.3V79.459ZM447.885,62.676a6.592,6.592,0,0,0-5.154,2.146,8.586,8.586,0,0,0-1.93,5.954,8.55,8.55,0,0,0,1.942,5.954,7.173,7.173,0,0,0,10.245-.013,8.524,8.524,0,0,0,1.955-5.941A8.559,8.559,0,0,0,453,64.834,6.553,6.553,0,0,0,447.885,62.676Zm12.9,11.73h7.9V67.5h-7.795a17.2,17.2,0,0,1,.3,3.275A15.807,15.807,0,0,1,460.783,74.406Zm-17.367,28.463V86.7h6.373V97.512h26.178v5.357Zm77-26.482V71.461h10.766V66.992h-9.42V62.041h9.42V55.592h6.246V80.2h-6.246V76.387Zm-20.287,4.469-4.088-5.078a30.736,30.736,0,0,0,10.41-4.418,21.027,21.027,0,0,0,8.15-9.014H499.037V56.988h23.512Q520.263,73.568,500.129,80.855Zm5.611,23.055V90.529h25.441V87.355H505.74V82.1h31.688V95.328H512.037v3.326h26.635v5.256Z" transform="translate(181 515.11)"/>
          </g>
        </g>
        <g id="背景" transform="translate(283.495 -6.459)" opacity="0.1">
          <path id="路径_39769" data-name="路径 39769" d="M395.381,229.828l896.223,2.131,97.389,98.326V711.014l-921.585-2.13-72.028-85.75Z" transform="translate(90.634 56.382)" fill="none" stroke="#000" stroke-miterlimit="10" stroke-width="2"/>
          <path id="路径_39770" data-name="路径 39770" d="M484,250.647h769.917l62.883-66.313" transform="translate(155.55 21.688)" fill="none" stroke="#000" stroke-miterlimit="10" stroke-width="2"/>
          <path id="路径_39771" data-name="路径 39771" d="M1316.8,184.333H546.883L484,250.647" transform="translate(-59.926 594.795)" fill="none" stroke="#000" stroke-miterlimit="10" stroke-width="2"/>
          <circle id="椭圆_1997" data-name="椭圆 1997" cx="29.476" cy="29.476" r="29.476" transform="translate(1461.56 154)" fill="none" stroke="#000" stroke-miterlimit="10" stroke-width="2"/>
          <circle id="椭圆_1998" data-name="椭圆 1998" cx="18.42" cy="18.42" r="18.42" transform="translate(393.772 840.211)" fill="none" stroke="#000" stroke-miterlimit="10" stroke-width="2"/>
          <path id="路径_39772" data-name="路径 39772" d="M594.911,288.661l58.755-25.446h748.26" transform="translate(-31.036 -16.326)" fill="none" stroke="#000" stroke-width="2"/>
          <path id="路径_39773" data-name="路径 39773" d="M1401.926,263.214l-58.755,25.446H594.911" transform="translate(-69.377 515.914)" fill="none" stroke="#000" stroke-width="2"/>
          <path id="路径_39774" data-name="路径 39774" d="M444.242,293.133H387.292V671" transform="translate(79.749 -20.798)" fill="none" stroke="#000" stroke-width="2"/>
          <path id="路径_39775" data-name="路径 39775" d="M1688.293,462.333V786.349H1608.8" transform="translate(-182.597 -46.091)" fill="none" stroke="#707070" stroke-width="2"/>
          <path id="路径_39776" data-name="路径 39776" d="M428.642,768.6l67.719,70.977" transform="translate(44.819 -79.873)" fill="none" stroke="#000" stroke-width="2"/>
          <path id="路径_39777" data-name="路径 39777" d="M1636.882,316.811l50.249,47.226" transform="translate(-194.885 -6.37)" fill="none" stroke="#000" stroke-width="2"/>
        </g>
      </g>
    </g>
  </g>
</svg>
