<svg xmlns="http://www.w3.org/2000/svg" xmlns:xlink="http://www.w3.org/1999/xlink" width="1820" height="880" viewBox="0 0 1820 880">
  <defs>
    <clipPath id="clip-path">
      <rect id="矩形_2837" data-name="矩形 2837" width="1820" height="880" transform="translate(50 88)" fill="#fff"/>
    </clipPath>
  </defs>
  <g id="banner" transform="translate(-50 -88)" clip-path="url(#clip-path)">
    <g id="组_22255" data-name="组 22255">
      <g id="组_22254" data-name="组 22254" transform="translate(-6274 1354)">
        <g id="组_22250" data-name="组 22250" transform="translate(6229 -1442)">
          <path id="路径_40988" data-name="路径 40988" d="M34.4,0H27.777L24.5-9.268H10.182L7.033,0H.432L14.066-36.41h6.8ZM22.9-14.193,17.85-28.717A17.2,17.2,0,0,1,17.367-31h-.1a14.863,14.863,0,0,1-.508,2.285l-5,14.523ZM21.023-39.762H16.631L9.979-48.09h5.434Zm34.429-1.006a46.889,46.889,0,0,1,.364,6.76V-6.136a50.352,50.352,0,0,1-.364,6.76h7.54a53.561,53.561,0,0,1-.364-6.76v-27.82a48.173,48.173,0,0,1,.364-6.812Zm13.78,0,1.04,13.78h4.264l1.04-13.78Zm40.456,28.184c-.1-1.2-.1-1.352-.1-1.456a21.376,21.376,0,0,0-1.508-7.9c-2.08-5.2-6.864-8.216-12.948-8.216-8.892,0-14.664,6.292-14.664,15.912,0,9.724,5.824,15.86,15.028,15.86a14.767,14.767,0,0,0,10.712-4,14.614,14.614,0,0,0,3.172-4.784L103.24-9.152a7.557,7.557,0,0,1-1.508,2.7,8.222,8.222,0,0,1-6.24,2.6,8.173,8.173,0,0,1-6.5-2.912c-1.2-1.508-1.664-2.964-1.924-5.824ZM87.224-17.732C88-22.1,90.968-24.8,95.024-24.8a7.416,7.416,0,0,1,5.616,2.08,8.162,8.162,0,0,1,2.288,4.992ZM85.3-39.1l11.232,7.176,2.184-2.34-8.892-9.568Zm51.324,9.88a26.961,26.961,0,0,0-4.836-.572c-4.68,0-7.9,1.768-9.776,5.46v-4.888H114.94a41.111,41.111,0,0,1,.364,6.76V-6.136a57.037,57.037,0,0,1-.364,6.76h7.436a54.687,54.687,0,0,1-.364-6.76v-9.62a8.37,8.37,0,0,1,2.132-5.2,7.422,7.422,0,0,1,6.032-2.548,15.529,15.529,0,0,1,4.628.832ZM168.4-12.584c-.1-1.2-.1-1.352-.1-1.456a21.376,21.376,0,0,0-1.508-7.9c-2.08-5.2-6.864-8.216-12.948-8.216-8.892,0-14.664,6.292-14.664,15.912,0,9.724,5.824,15.86,15.028,15.86a14.767,14.767,0,0,0,10.712-4,14.614,14.614,0,0,0,3.172-4.784l-6.136-1.976a7.558,7.558,0,0,1-1.508,2.7,8.222,8.222,0,0,1-6.24,2.6,8.173,8.173,0,0,1-6.5-2.912c-1.2-1.508-1.664-2.964-1.924-5.824Zm-22.464-5.148c.78-4.368,3.744-7.072,7.8-7.072a7.416,7.416,0,0,1,5.616,2.08,8.162,8.162,0,0,1,2.288,4.992ZM214.208.624h6.916a54.588,54.588,0,0,1-.364-7.02V-33.8a60.64,60.64,0,0,1,.364-6.968h-7.332a53,53,0,0,1,.364,7.02v5.2c0,.884,0,1.872.052,2.236.052,1.04.052,1.04.052,1.664a13.242,13.242,0,0,0-2.652-2.86,12.343,12.343,0,0,0-7.9-2.392c-8.58,0-14.04,6.032-14.04,15.548,0,5.616,1.924,10.348,5.408,13.052a13.221,13.221,0,0,0,8.684,2.652c5.044,0,7.8-1.352,10.5-5.148-.052.676-.052,1.248-.052,1.872ZM196.424-14.3c0-6.188,3.224-10.14,8.268-10.14a9.52,9.52,0,0,1,6.76,2.912,10.8,10.8,0,0,1,2.5,6.916,11.763,11.763,0,0,1-2.028,6.968,8.7,8.7,0,0,1-6.968,3.432C199.752-4.212,196.424-8.112,196.424-14.3ZM255.6-12.584c-.1-1.2-.1-1.352-.1-1.456a21.376,21.376,0,0,0-1.508-7.9c-2.08-5.2-6.864-8.216-12.948-8.216-8.892,0-14.664,6.292-14.664,15.912,0,9.724,5.824,15.86,15.028,15.86a14.767,14.767,0,0,0,10.712-4,14.614,14.614,0,0,0,3.172-4.784l-6.136-1.976a7.558,7.558,0,0,1-1.508,2.7,8.222,8.222,0,0,1-6.24,2.6,8.173,8.173,0,0,1-6.5-2.912c-1.2-1.508-1.664-2.964-1.924-5.824Zm-22.464-5.148c.78-4.368,3.744-7.072,7.8-7.072a7.416,7.416,0,0,1,5.616,2.08,8.162,8.162,0,0,1,2.288,4.992Zm44.928-23.036a46.888,46.888,0,0,1,.364,6.76V-6.136a50.35,50.35,0,0,1-.364,6.76h7.54a53.559,53.559,0,0,1-.364-6.76v-27.82a48.171,48.171,0,0,1,.364-6.812ZM311.916.624h7.02a41.821,41.821,0,0,1-.416-6.5V-19.864c0-3.536-.676-5.512-2.444-7.176-2.236-2.184-5.252-3.068-10.244-3.068-4.472,0-7.384.78-9.932,2.652-1.976,1.4-2.912,2.756-4.108,5.772l6.656,1.2c.624-1.872,1.092-2.6,2.08-3.328a9.381,9.381,0,0,1,5.408-1.508c3.952,0,5.98,1.56,5.98,4.576V-18.1c-7.436.156-11.284.676-14.664,2.08a9.225,9.225,0,0,0-5.876,8.424c0,5.46,3.848,8.736,10.192,8.736A18.4,18.4,0,0,0,306.4.52a11.276,11.276,0,0,0,5.512-3.276Zm0-11.6A6.2,6.2,0,0,1,310.044-6.4a10.559,10.559,0,0,1-7.228,2.756c-2.912,0-4.732-1.508-4.732-3.952,0-4.056,3.9-5.772,13.832-5.98Zm57.616-9.776a17.309,17.309,0,0,0-1.82-3.8c-2.5-3.64-6.552-5.616-11.648-5.616a14.239,14.239,0,0,0-10.452,3.952c-2.86,2.912-4.42,7.124-4.42,12.012,0,9.62,5.928,15.808,15.08,15.808,4.94,0,8.944-1.82,11.44-5.252A14.559,14.559,0,0,0,369.9-8.06l-6.448-1.3a7.267,7.267,0,0,1-1.04,2.6,6.961,6.961,0,0,1-5.98,2.912c-5.252,0-8.476-4-8.476-10.5,0-6.448,3.172-10.452,8.268-10.452a6.542,6.542,0,0,1,5.356,2.392,9.371,9.371,0,0,1,1.612,3.172ZM389.24,1.612c9.256,0,15.34-6.344,15.34-15.964s-5.98-15.756-15.392-15.756c-9.464,0-15.5,6.188-15.5,15.86C373.692-4.524,379.724,1.612,389.24,1.612ZM389.188-24.7c5.512,0,8.684,3.848,8.684,10.556,0,6.344-3.328,10.244-8.736,10.244S380.4-7.852,380.4-14.248C380.4-20.748,383.728-24.7,389.188-24.7Zm48.568,12.116c-.1-1.2-.1-1.352-.1-1.456a21.377,21.377,0,0,0-1.508-7.9c-2.08-5.2-6.864-8.216-12.948-8.216-8.892,0-14.664,6.292-14.664,15.912,0,9.724,5.824,15.86,15.028,15.86a14.767,14.767,0,0,0,10.712-4,14.614,14.614,0,0,0,3.172-4.784l-6.136-1.976a7.557,7.557,0,0,1-1.508,2.7,8.222,8.222,0,0,1-6.24,2.6,8.173,8.173,0,0,1-6.5-2.912c-1.2-1.508-1.664-2.964-1.924-5.824Zm-22.464-5.148c.78-4.368,3.744-7.072,7.8-7.072a7.416,7.416,0,0,1,5.616,2.08A8.162,8.162,0,0,1,431-17.732ZM471.036.624c-1.4-1.716-3.12-3.952-3.848-4.992L459.6-14.976l7.02-9.776c.832-1.2,1.664-2.34,3.328-4.472h-8.06a25.739,25.739,0,0,1-2.184,3.952l-3.952,5.824-4-5.824a24.509,24.509,0,0,1-2.184-3.952h-8.112c2.34,3.016,2.756,3.588,3.328,4.368l7.072,9.88-7.8,10.92c-.884,1.2-2.5,3.276-3.64,4.68h8.372a28.087,28.087,0,0,1,2.236-3.952L455.7-10.3,460.22-3.64A27.749,27.749,0,0,1,462.664.624Zm3.952-41.392v6.6h7.644v-6.6Zm0,11.544a42.737,42.737,0,0,1,.416,6.76V-6.136a46.731,46.731,0,0,1-.416,6.76h7.592a52.235,52.235,0,0,1-.364-6.812V-22.412a46.739,46.739,0,0,1,.364-6.812ZM487.78-7.852a11.7,11.7,0,0,0,2.028,4.628c2.236,3.016,6.24,4.628,11.6,4.628,4.732,0,8.372-1.144,10.764-3.38a8.361,8.361,0,0,0,2.548-5.876A7.39,7.39,0,0,0,511.7-14.3c-1.716-1.3-3.848-2.028-9.152-3.172a21.9,21.9,0,0,1-5.2-1.56,2.8,2.8,0,0,1-1.612-2.444c0-2.184,2.184-3.64,5.408-3.64,3.38,0,5.148,1.248,5.72,4.108l6.864-.884a10.122,10.122,0,0,0-2.808-5.148c-2.132-1.976-5.512-3.016-9.776-3.016-4.732,0-8.268,1.352-10.4,4.056a7.737,7.737,0,0,0-1.612,4.836,7.446,7.446,0,0,0,4.576,6.916,31.435,31.435,0,0,0,7.488,2.236c4.16.936,4.472.988,5.46,1.664a3.179,3.179,0,0,1,1.352,2.6c0,2.444-2.392,3.952-6.24,3.952-4.056,0-5.98-1.4-6.864-4.94Zm35.62-29.38a59.85,59.85,0,0,1,.364,6.4v1.612H521.84a23.884,23.884,0,0,1-4.68-.312V-23.4a26.259,26.259,0,0,1,4.628-.312h1.976V-6.24c0,5.46,2.392,7.592,8.372,7.592a16.272,16.272,0,0,0,6.5-1.092L537.7-5.252a6.878,6.878,0,0,1-3.8,1.144c-2.5,0-3.432-.936-3.432-3.484v-16.12h2.34a28.67,28.67,0,0,1,5.1.312v-6.136a29.875,29.875,0,0,1-5.252.312h-2.184v-1.612a57.513,57.513,0,0,1,.364-6.4Zm47.06,24.648c-.1-1.2-.1-1.352-.1-1.456a21.377,21.377,0,0,0-1.508-7.9c-2.08-5.2-6.864-8.216-12.948-8.216-8.892,0-14.664,6.292-14.664,15.912,0,9.724,5.824,15.86,15.028,15.86a14.767,14.767,0,0,0,10.712-4,14.614,14.614,0,0,0,3.172-4.784l-6.136-1.976a7.558,7.558,0,0,1-1.508,2.7,8.222,8.222,0,0,1-6.24,2.6,8.173,8.173,0,0,1-6.5-2.912c-1.2-1.508-1.664-2.964-1.924-5.824ZM548-17.732c.78-4.368,3.744-7.072,7.8-7.072a7.416,7.416,0,0,1,5.616,2.08,8.162,8.162,0,0,1,2.288,4.992ZM583.1.624a46.274,46.274,0,0,1-.416-6.76v-10.5c2.288-5.148,5.356-7.748,9.1-7.748a4.891,4.891,0,0,1,4.368,2.132,8.542,8.542,0,0,1,.884,4.576V-6.136a55.26,55.26,0,0,1-.364,6.76h7.54a41.1,41.1,0,0,1-.416-6.76v-12.48c0-3.484-.52-5.564-1.768-7.28-1.872-2.548-4.836-3.848-8.84-3.848-4.68,0-7.436,1.456-10.608,5.512a20.317,20.317,0,0,0,.1-2.236v-2.756h-7.072a42.737,42.737,0,0,1,.416,6.76V-6.136a43.16,43.16,0,0,1-.416,6.76Zm54.6-21.372a17.306,17.306,0,0,0-1.82-3.8c-2.5-3.64-6.552-5.616-11.648-5.616a14.239,14.239,0,0,0-10.452,3.952c-2.86,2.912-4.42,7.124-4.42,12.012,0,9.62,5.928,15.808,15.08,15.808,4.94,0,8.944-1.82,11.44-5.252a14.557,14.557,0,0,0,2.184-4.42l-6.448-1.3a7.269,7.269,0,0,1-1.04,2.6,6.961,6.961,0,0,1-5.98,2.912c-5.252,0-8.476-4-8.476-10.5,0-6.448,3.172-10.452,8.268-10.452a6.542,6.542,0,0,1,5.356,2.392,9.369,9.369,0,0,1,1.612,3.172Zm33.384,8.164c-.1-1.2-.1-1.352-.1-1.456a21.377,21.377,0,0,0-1.508-7.9c-2.08-5.2-6.864-8.216-12.948-8.216-8.892,0-14.664,6.292-14.664,15.912,0,9.724,5.824,15.86,15.028,15.86a14.767,14.767,0,0,0,10.712-4,14.614,14.614,0,0,0,3.172-4.784l-6.136-1.976a7.558,7.558,0,0,1-1.508,2.7,8.222,8.222,0,0,1-6.24,2.6,8.173,8.173,0,0,1-6.5-2.912c-1.2-1.508-1.664-2.964-1.924-5.824Zm-22.464-5.148c.78-4.368,3.744-7.072,7.8-7.072a7.416,7.416,0,0,1,5.616,2.08,8.162,8.162,0,0,1,2.288,4.992ZM3.276,59.232a48.661,48.661,0,0,1,.364,6.812v27.82a42.739,42.739,0,0,1-.416,6.76h7.488a46.267,46.267,0,0,1-.416-6.76V83.36c2.34-5.2,5.356-7.7,9.256-7.7a4.828,4.828,0,0,1,3.588,1.508c.988,1.04,1.508,2.756,1.508,5.148V93.864a55.262,55.262,0,0,1-.364,6.76h7.54a41.093,41.093,0,0,1-.416-6.76V80.76c0-6.708-3.8-10.5-10.452-10.5-4.732,0-7.54,1.456-10.764,5.512a21.327,21.327,0,0,0,.1-2.236V66.1a49.976,49.976,0,0,1,.364-6.864Zm49.244,42.38c9.256,0,15.34-6.344,15.34-15.964S61.88,69.892,52.468,69.892c-9.464,0-15.5,6.188-15.5,15.86C36.972,95.476,43,101.612,52.52,101.612ZM52.468,75.3c5.512,0,8.684,3.848,8.684,10.556,0,6.344-3.328,10.244-8.736,10.244S43.68,92.148,43.68,85.752C43.68,79.252,47.008,75.3,52.468,75.3Zm27.924,25.324a54.12,54.12,0,0,1-.364-6.76v-10.3a11.742,11.742,0,0,1,2.236-5.2,6.441,6.441,0,0,1,5.356-2.7c3.38,0,5.044,2.184,5.044,6.552V93.864a42.321,42.321,0,0,1-.416,6.76h7.488a50.87,50.87,0,0,1-.364-6.76v-10.3c.624-3.224,1.456-4.888,3.276-6.448a6.014,6.014,0,0,1,4.264-1.56c3.484,0,5.1,2.08,5.1,6.656V93.864a41.092,41.092,0,0,1-.416,6.76h7.592a42.319,42.319,0,0,1-.416-6.76V81.02c0-3.692-.728-6.032-2.444-7.9a10.262,10.262,0,0,0-7.8-2.964A11.488,11.488,0,0,0,102.7,71.5c-1.612.832-2.6,1.768-4.368,4.108a6.74,6.74,0,0,0-1.976-3.12,9.327,9.327,0,0,0-6.708-2.34c-4.316,0-8.164,2.028-9.672,5.2.052-.832.052-1.612.052-1.924V70.776H73.06a45.486,45.486,0,0,1,.364,6.76V93.864a52.464,52.464,0,0,1-.364,6.76Zm52.52,0a54.121,54.121,0,0,1-.364-6.76v-10.3a11.742,11.742,0,0,1,2.236-5.2,6.441,6.441,0,0,1,5.356-2.7c3.38,0,5.044,2.184,5.044,6.552V93.864a42.321,42.321,0,0,1-.416,6.76h7.488a50.868,50.868,0,0,1-.364-6.76v-10.3c.624-3.224,1.456-4.888,3.276-6.448a6.014,6.014,0,0,1,4.264-1.56c3.484,0,5.1,2.08,5.1,6.656V93.864a41.092,41.092,0,0,1-.416,6.76H171.7a42.319,42.319,0,0,1-.416-6.76V81.02c0-3.692-.728-6.032-2.444-7.9a10.262,10.262,0,0,0-7.8-2.964A11.488,11.488,0,0,0,155.22,71.5c-1.612.832-2.6,1.768-4.368,4.108a6.74,6.74,0,0,0-1.976-3.12,9.327,9.327,0,0,0-6.708-2.34c-4.316,0-8.164,2.028-9.672,5.2.052-.832.052-1.612.052-1.924V70.776H125.58a45.486,45.486,0,0,1,.364,6.76V93.864a52.464,52.464,0,0,1-.364,6.76Zm73.164-13.208c-.1-1.2-.1-1.352-.1-1.456a21.376,21.376,0,0,0-1.508-7.9c-2.08-5.2-6.864-8.216-12.948-8.216-8.892,0-14.664,6.292-14.664,15.912,0,9.724,5.824,15.86,15.028,15.86a14.767,14.767,0,0,0,10.712-4,14.614,14.614,0,0,0,3.172-4.784l-6.136-1.976a7.558,7.558,0,0,1-1.508,2.7,8.748,8.748,0,0,1-12.74-.312c-1.2-1.508-1.664-2.964-1.924-5.824Zm-22.464-5.148c.78-4.368,3.744-7.072,7.8-7.072a7.416,7.416,0,0,1,5.616,2.08,8.162,8.162,0,0,1,2.288,4.992ZM209.768,88.3a28.62,28.62,0,0,1,4.888-.312h8.06a28.535,28.535,0,0,1,4.94.312V81.384a32.842,32.842,0,0,1-4.94.312h-8.06a32.58,32.58,0,0,1-4.888-.312Zm30.212,12.324a54.121,54.121,0,0,1-.364-6.76v-10.3a11.742,11.742,0,0,1,2.236-5.2,6.441,6.441,0,0,1,5.356-2.7c3.38,0,5.044,2.184,5.044,6.552V93.864a42.321,42.321,0,0,1-.416,6.76h7.488a50.868,50.868,0,0,1-.364-6.76v-10.3c.624-3.224,1.456-4.888,3.276-6.448a6.014,6.014,0,0,1,4.264-1.56c3.484,0,5.1,2.08,5.1,6.656V93.864a41.091,41.091,0,0,1-.416,6.76h7.592a42.319,42.319,0,0,1-.416-6.76V81.02c0-3.692-.728-6.032-2.444-7.9a10.262,10.262,0,0,0-7.8-2.964,11.488,11.488,0,0,0-5.824,1.352c-1.612.832-2.6,1.768-4.368,4.108a6.74,6.74,0,0,0-1.976-3.12,9.327,9.327,0,0,0-6.708-2.34c-4.316,0-8.164,2.028-9.672,5.2.052-.832.052-1.612.052-1.924V70.776h-6.968a45.487,45.487,0,0,1,.364,6.76V93.864a52.465,52.465,0,0,1-.364,6.76Zm64.948,0h7.02a41.821,41.821,0,0,1-.416-6.5V80.136c0-3.536-.676-5.512-2.444-7.176-2.236-2.184-5.252-3.068-10.244-3.068-4.472,0-7.384.78-9.932,2.652-1.976,1.4-2.912,2.756-4.108,5.772l6.656,1.2c.624-1.872,1.092-2.6,2.08-3.328a9.381,9.381,0,0,1,5.408-1.508c3.952,0,5.98,1.56,5.98,4.576V81.9c-7.436.156-11.284.676-14.664,2.08a9.225,9.225,0,0,0-5.876,8.424c0,5.46,3.848,8.736,10.192,8.736a18.4,18.4,0,0,0,4.836-.624,11.276,11.276,0,0,0,5.512-3.276Zm0-11.6a6.2,6.2,0,0,1-1.872,4.576,10.559,10.559,0,0,1-7.228,2.756c-2.912,0-4.732-1.508-4.732-3.952,0-4.056,3.9-5.772,13.832-5.98Zm40.3-9.776a17.309,17.309,0,0,0-1.82-3.8c-2.5-3.64-6.552-5.616-11.648-5.616a14.239,14.239,0,0,0-10.452,3.952c-2.86,2.912-4.42,7.124-4.42,12.012,0,9.62,5.928,15.808,15.08,15.808,4.94,0,8.944-1.82,11.44-5.252a14.559,14.559,0,0,0,2.184-4.42l-6.448-1.3a7.268,7.268,0,0,1-1.04,2.6,6.961,6.961,0,0,1-5.98,2.912c-5.252,0-8.476-4-8.476-10.5,0-6.448,3.172-10.452,8.268-10.452a6.542,6.542,0,0,1,5.356,2.392,9.37,9.37,0,0,1,1.612,3.172Zm5.46-20.02a48.659,48.659,0,0,1,.364,6.812v27.82a42.737,42.737,0,0,1-.416,6.76h7.488a46.265,46.265,0,0,1-.416-6.76V83.36c2.34-5.2,5.356-7.7,9.256-7.7a4.828,4.828,0,0,1,3.588,1.508c.988,1.04,1.508,2.756,1.508,5.148V93.864a55.26,55.26,0,0,1-.364,6.76h7.54a41.091,41.091,0,0,1-.416-6.76V80.76c0-6.708-3.8-10.5-10.452-10.5-4.732,0-7.54,1.456-10.764,5.512a21.327,21.327,0,0,0,.1-2.236V66.1a49.974,49.974,0,0,1,.364-6.864Zm34.944,0v6.6h7.644v-6.6Zm0,11.544a42.737,42.737,0,0,1,.416,6.76V93.864a46.731,46.731,0,0,1-.416,6.76h7.592a52.235,52.235,0,0,1-.364-6.812V77.588a46.739,46.739,0,0,1,.364-6.812Zm21.58,29.848a46.265,46.265,0,0,1-.416-6.76V83.36c2.288-5.148,5.356-7.748,9.1-7.748a4.891,4.891,0,0,1,4.368,2.132,8.542,8.542,0,0,1,.884,4.576V93.864a55.26,55.26,0,0,1-.364,6.76h7.54a41.091,41.091,0,0,1-.416-6.76V81.384c0-3.484-.52-5.564-1.768-7.28-1.872-2.548-4.836-3.848-8.84-3.848-4.68,0-7.436,1.456-10.608,5.512a20.317,20.317,0,0,0,.1-2.236V70.776h-7.072a42.737,42.737,0,0,1,.416,6.76V93.864a43.16,43.16,0,0,1-.416,6.76ZM462.7,87.416c-.1-1.2-.1-1.352-.1-1.456a21.377,21.377,0,0,0-1.508-7.9c-2.08-5.2-6.864-8.216-12.948-8.216-8.892,0-14.664,6.292-14.664,15.912,0,9.724,5.824,15.86,15.028,15.86a14.767,14.767,0,0,0,10.712-4,14.614,14.614,0,0,0,3.172-4.784l-6.136-1.976a7.558,7.558,0,0,1-1.508,2.7A8.748,8.748,0,0,1,442,93.24c-1.2-1.508-1.664-2.964-1.924-5.824Zm-22.464-5.148c.78-4.368,3.744-7.072,7.8-7.072a7.416,7.416,0,0,1,5.616,2.08,8.162,8.162,0,0,1,2.288,4.992Zm35.2,10.764h-7.644v7.592h4.368c-.052,3.224-.78,4.16-3.952,5.044l1.872,2.756c4.212-1.664,5.356-3.328,5.356-7.8Zm23.764-33.8a46.888,46.888,0,0,1,.364,6.76V93.864a50.35,50.35,0,0,1-.364,6.76h7.54a53.559,53.559,0,0,1-.364-6.76V66.044a48.171,48.171,0,0,1,.364-6.812Zm33.852,41.392h7.02a41.821,41.821,0,0,1-.416-6.5V80.136c0-3.536-.676-5.512-2.444-7.176-2.236-2.184-5.252-3.068-10.244-3.068-4.472,0-7.384.78-9.932,2.652-1.976,1.4-2.912,2.756-4.108,5.772l6.656,1.2c.624-1.872,1.092-2.6,2.08-3.328a9.381,9.381,0,0,1,5.408-1.508c3.952,0,5.98,1.56,5.98,4.576V81.9c-7.436.156-11.284.676-14.664,2.08a9.225,9.225,0,0,0-5.876,8.424c0,5.46,3.848,8.736,10.192,8.736a18.4,18.4,0,0,0,4.836-.624,11.276,11.276,0,0,0,5.512-3.276Zm0-11.6A6.2,6.2,0,0,1,531.18,93.6a10.559,10.559,0,0,1-7.228,2.756c-2.912,0-4.732-1.508-4.732-3.952,0-4.056,3.9-5.772,13.832-5.98ZM30.316,179.252a17.309,17.309,0,0,0-1.82-3.8c-2.5-3.64-6.552-5.616-11.648-5.616A14.239,14.239,0,0,0,6.4,173.792c-2.86,2.912-4.42,7.124-4.42,12.012,0,9.62,5.928,15.808,15.08,15.808,4.94,0,8.944-1.82,11.44-5.252a14.559,14.559,0,0,0,2.184-4.42l-6.448-1.3a7.268,7.268,0,0,1-1.04,2.6,6.961,6.961,0,0,1-5.98,2.912c-5.252,0-8.476-4-8.476-10.5C8.736,179.2,11.908,175.2,17,175.2a6.542,6.542,0,0,1,5.356,2.392,9.37,9.37,0,0,1,1.612,3.172Zm19.708,22.36c9.256,0,15.34-6.344,15.34-15.964s-5.98-15.756-15.392-15.756c-9.464,0-15.5,6.188-15.5,15.86C34.476,195.476,40.508,201.612,50.024,201.612ZM49.972,175.3c5.512,0,8.684,3.848,8.684,10.556,0,6.344-3.328,10.244-8.736,10.244s-8.736-3.952-8.736-10.348C41.184,179.252,44.512,175.3,49.972,175.3Zm28.08,25.324a46.267,46.267,0,0,1-.416-6.76v-10.5c2.288-5.148,5.356-7.748,9.1-7.748a4.891,4.891,0,0,1,4.368,2.132,8.542,8.542,0,0,1,.884,4.576v11.544a55.26,55.26,0,0,1-.364,6.76h7.54a41.092,41.092,0,0,1-.416-6.76v-12.48c0-3.484-.52-5.564-1.768-7.28-1.872-2.548-4.836-3.848-8.84-3.848-4.68,0-7.436,1.456-10.608,5.512a20.319,20.319,0,0,0,.1-2.236v-2.756H70.564a42.738,42.738,0,0,1,.416,6.76v16.328a43.161,43.161,0,0,1-.416,6.76Zm35,0a46.267,46.267,0,0,1-.416-6.76v-10.5c2.288-5.148,5.356-7.748,9.1-7.748a4.891,4.891,0,0,1,4.368,2.132,8.542,8.542,0,0,1,.884,4.576v11.544a55.26,55.26,0,0,1-.364,6.76h7.54a41.091,41.091,0,0,1-.416-6.76v-12.48c0-3.484-.52-5.564-1.768-7.28-1.872-2.548-4.836-3.848-8.84-3.848-4.68,0-7.436,1.456-10.608,5.512a20.319,20.319,0,0,0,.1-2.236v-2.756H105.56a42.738,42.738,0,0,1,.416,6.76v16.328a43.161,43.161,0,0,1-.416,6.76Zm55.484-13.208c-.1-1.2-.1-1.352-.1-1.456a21.376,21.376,0,0,0-1.508-7.9c-2.08-5.2-6.864-8.216-12.948-8.216-8.892,0-14.664,6.292-14.664,15.912,0,9.724,5.824,15.86,15.028,15.86a14.767,14.767,0,0,0,10.712-4,14.614,14.614,0,0,0,3.172-4.784l-6.136-1.976a7.558,7.558,0,0,1-1.508,2.7,8.748,8.748,0,0,1-12.74-.312c-1.2-1.508-1.664-2.964-1.924-5.824Zm-22.464-5.148c.78-4.368,3.744-7.072,7.8-7.072a7.416,7.416,0,0,1,5.616,2.08,8.162,8.162,0,0,1,2.288,4.992Zm55.744,18.356c-1.4-1.716-3.12-3.952-3.848-4.992l-7.592-10.608,7.02-9.776c.832-1.2,1.664-2.34,3.328-4.472h-8.06a25.737,25.737,0,0,1-2.184,3.952l-3.952,5.824-4-5.824a24.509,24.509,0,0,1-2.184-3.952h-8.112c2.34,3.016,2.756,3.588,3.328,4.368l7.072,9.88-7.8,10.92c-.884,1.2-2.5,3.276-3.64,4.68h8.372a28.085,28.085,0,0,1,2.236-3.952l4.68-6.968L191,196.36a27.748,27.748,0,0,1,2.444,4.264Zm3.952-41.392v6.6h7.644v-6.6Zm0,11.544a42.739,42.739,0,0,1,.416,6.76v16.328a46.733,46.733,0,0,1-.416,6.76h7.592a52.238,52.238,0,0,1-.364-6.812V177.588a46.742,46.742,0,0,1,.364-6.812Zm28.392,30.836c9.256,0,15.34-6.344,15.34-15.964s-5.98-15.756-15.392-15.756c-9.464,0-15.5,6.188-15.5,15.86C218.608,195.476,224.64,201.612,234.156,201.612ZM234.1,175.3c5.512,0,8.684,3.848,8.684,10.556,0,6.344-3.328,10.244-8.736,10.244s-8.736-3.952-8.736-10.348C225.316,179.252,228.644,175.3,234.1,175.3Zm28.08,25.324a46.265,46.265,0,0,1-.416-6.76v-10.5c2.288-5.148,5.356-7.748,9.1-7.748a4.891,4.891,0,0,1,4.368,2.132,8.542,8.542,0,0,1,.884,4.576v11.544a55.26,55.26,0,0,1-.364,6.76h7.54a41.091,41.091,0,0,1-.416-6.76v-12.48c0-3.484-.52-5.564-1.768-7.28-1.872-2.548-4.836-3.848-8.84-3.848-4.68,0-7.436,1.456-10.608,5.512a20.317,20.317,0,0,0,.1-2.236v-2.756H254.7a42.739,42.739,0,0,1,.416,6.76v16.328a43.162,43.162,0,0,1-.416,6.76Zm72.8-13.208c-.1-1.2-.1-1.352-.1-1.456a21.377,21.377,0,0,0-1.508-7.9c-2.08-5.2-6.864-8.216-12.948-8.216-8.892,0-14.664,6.292-14.664,15.912,0,9.724,5.824,15.86,15.028,15.86a14.767,14.767,0,0,0,10.712-4,14.614,14.614,0,0,0,3.172-4.784l-6.136-1.976a7.557,7.557,0,0,1-1.508,2.7,8.748,8.748,0,0,1-12.74-.312c-1.2-1.508-1.664-2.964-1.924-5.824Zm-22.464-5.148c.78-4.368,3.744-7.072,7.8-7.072a7.416,7.416,0,0,1,5.616,2.08,8.162,8.162,0,0,1,2.288,4.992Zm26.312,9.88a11.7,11.7,0,0,0,2.028,4.628c2.236,3.016,6.24,4.628,11.6,4.628,4.732,0,8.372-1.144,10.764-3.38a8.361,8.361,0,0,0,2.548-5.876,7.39,7.39,0,0,0-3.016-6.448c-1.716-1.3-3.848-2.028-9.152-3.172a21.9,21.9,0,0,1-5.2-1.56,2.8,2.8,0,0,1-1.612-2.444c0-2.184,2.184-3.64,5.408-3.64,3.38,0,5.148,1.248,5.72,4.108l6.864-.884a10.122,10.122,0,0,0-2.808-5.148c-2.132-1.976-5.512-3.016-9.776-3.016-4.732,0-8.268,1.352-10.4,4.056a7.737,7.737,0,0,0-1.612,4.836,7.446,7.446,0,0,0,4.576,6.916,31.435,31.435,0,0,0,7.488,2.236c4.16.936,4.472.988,5.46,1.664a3.179,3.179,0,0,1,1.352,2.6c0,2.444-2.392,3.952-6.24,3.952-4.056,0-5.98-1.4-6.864-4.94Zm35.62-29.38a59.858,59.858,0,0,1,.364,6.4v1.612h-1.924a23.885,23.885,0,0,1-4.68-.312V176.6a26.258,26.258,0,0,1,4.628-.312h1.976V193.76c0,5.46,2.392,7.592,8.372,7.592a16.272,16.272,0,0,0,6.5-1.092l-.936-5.512a6.878,6.878,0,0,1-3.8,1.144c-2.5,0-3.432-.936-3.432-3.484v-16.12h2.34a28.669,28.669,0,0,1,5.1.312v-6.136a29.876,29.876,0,0,1-5.252.312h-2.184v-1.612a57.511,57.511,0,0,1,.364-6.4Zm36.4-3.536v6.6H418.5v-6.6Zm0,11.544a42.737,42.737,0,0,1,.416,6.76v16.328a46.731,46.731,0,0,1-.416,6.76h7.592a52.235,52.235,0,0,1-.364-6.812V177.588a46.739,46.739,0,0,1,.364-6.812Zm21.58,29.848a46.265,46.265,0,0,1-.416-6.76v-10.5c2.288-5.148,5.356-7.748,9.1-7.748a4.891,4.891,0,0,1,4.368,2.132,8.542,8.542,0,0,1,.884,4.576v11.544a55.26,55.26,0,0,1-.364,6.76h7.54a41.091,41.091,0,0,1-.416-6.76v-12.48c0-3.484-.52-5.564-1.768-7.28-1.872-2.548-4.836-3.848-8.84-3.848-4.68,0-7.436,1.456-10.608,5.512a20.317,20.317,0,0,0,.1-2.236v-2.756h-7.072a42.737,42.737,0,0,1,.416,6.76v16.328a43.16,43.16,0,0,1-.416,6.76Zm31.824-24.388v17.628a55.843,55.843,0,0,1-.364,6.76h7.436a51.393,51.393,0,0,1-.364-6.76V176.236h2.548a44.751,44.751,0,0,1,5.772.312v-6.084a57.109,57.109,0,0,1-5.876.312h-2.444v-2.132c0-3.588,1.04-4.836,4.056-4.836a8.608,8.608,0,0,1,4.628,1.248l1.4-5.46a18.8,18.8,0,0,0-6.448-1.04c-7.072,0-10.348,3.016-10.348,9.464v2.756h-2.132a34.079,34.079,0,0,1-4.888-.312v6.084a35.37,35.37,0,0,1,4.94-.312Zm20.488-17v6.6h7.644v-6.6Zm0,11.544a42.737,42.737,0,0,1,.416,6.76v16.328a46.731,46.731,0,0,1-.416,6.76h7.592a52.235,52.235,0,0,1-.364-6.812V177.588a46.739,46.739,0,0,1,.364-6.812Zm21.58,29.848a46.265,46.265,0,0,1-.416-6.76v-10.5c2.288-5.148,5.356-7.748,9.1-7.748a4.891,4.891,0,0,1,4.368,2.132,8.542,8.542,0,0,1,.884,4.576v11.544a55.273,55.273,0,0,1-.364,6.76h7.54a41.091,41.091,0,0,1-.416-6.76v-12.48c0-3.484-.52-5.564-1.768-7.28-1.872-2.548-4.836-3.848-8.84-3.848-4.68,0-7.436,1.456-10.608,5.512a20.317,20.317,0,0,0,.1-2.236v-2.756h-7.072a42.737,42.737,0,0,1,.416,6.76v16.328a43.16,43.16,0,0,1-.416,6.76Zm27.508-41.392v6.6h7.644v-6.6Zm0,11.544a42.737,42.737,0,0,1,.416,6.76v16.328a46.731,46.731,0,0,1-.416,6.76h7.592a52.247,52.247,0,0,1-.364-6.812V177.588a46.749,46.749,0,0,1,.364-6.812Zm21.424,29.848a54.118,54.118,0,0,1-.364-6.76v-10.3a11.741,11.741,0,0,1,2.236-5.2,6.441,6.441,0,0,1,5.356-2.7c3.38,0,5.044,2.184,5.044,6.552v11.648a42.319,42.319,0,0,1-.416,6.76H574.6a50.868,50.868,0,0,1-.364-6.76v-10.3c.624-3.224,1.456-4.888,3.276-6.448a6.014,6.014,0,0,1,4.264-1.56c3.484,0,5.1,2.08,5.1,6.656v11.648a41.091,41.091,0,0,1-.416,6.76h7.592a42.319,42.319,0,0,1-.416-6.76V181.02c0-3.692-.728-6.032-2.444-7.9a10.262,10.262,0,0,0-7.8-2.964,11.488,11.488,0,0,0-5.824,1.352c-1.612.832-2.6,1.768-4.368,4.108a6.741,6.741,0,0,0-1.976-3.12,9.327,9.327,0,0,0-6.708-2.34c-4.316,0-8.164,2.028-9.672,5.2.052-.832.052-1.612.052-1.924v-2.652h-6.968a45.484,45.484,0,0,1,.364,6.76v16.328a52.462,52.462,0,0,1-.364,6.76Zm73.164-13.208c-.1-1.2-.1-1.352-.1-1.456a21.377,21.377,0,0,0-1.508-7.9c-2.08-5.2-6.864-8.216-12.948-8.216-8.892,0-14.664,6.292-14.664,15.912,0,9.724,5.824,15.86,15.028,15.86a14.767,14.767,0,0,0,10.712-4,14.614,14.614,0,0,0,3.172-4.784l-6.136-1.976a7.558,7.558,0,0,1-1.508,2.7,8.748,8.748,0,0,1-12.74-.312c-1.2-1.508-1.664-2.964-1.924-5.824Zm-22.464-5.148c.78-4.368,3.744-7.072,7.8-7.072a7.416,7.416,0,0,1,5.616,2.08,8.162,8.162,0,0,1,2.288,4.992Zm35.1,18.356a46.274,46.274,0,0,1-.416-6.76v-10.5c2.288-5.148,5.356-7.748,9.1-7.748a4.891,4.891,0,0,1,4.368,2.132,8.542,8.542,0,0,1,.884,4.576v11.544a55.26,55.26,0,0,1-.364,6.76h7.54a41.1,41.1,0,0,1-.416-6.76v-12.48c0-3.484-.52-5.564-1.768-7.28-1.872-2.548-4.836-3.848-8.84-3.848-4.68,0-7.436,1.456-10.608,5.512a20.317,20.317,0,0,0,.1-2.236v-2.756h-7.072a42.737,42.737,0,0,1,.416,6.76v16.328a43.16,43.16,0,0,1-.416,6.76Zm30.992-37.856a59.85,59.85,0,0,1,.364,6.4v1.612h-1.924a23.884,23.884,0,0,1-4.68-.312V176.6a26.258,26.258,0,0,1,4.628-.312h1.976V193.76c0,5.46,2.392,7.592,8.372,7.592a16.272,16.272,0,0,0,6.5-1.092l-.936-5.512a6.878,6.878,0,0,1-3.8,1.144c-2.5,0-3.432-.936-3.432-3.484v-16.12h2.34a28.669,28.669,0,0,1,5.1.312v-6.136a29.876,29.876,0,0,1-5.252.312H679.12v-1.612a57.513,57.513,0,0,1,.364-6.4ZM10.14,270.776H3.224a53.726,53.726,0,0,1,.364,6.968V303.9a58.214,58.214,0,0,1-.364,6.864h7.332a51.827,51.827,0,0,1-.364-6.916V299.9c0-.936,0-1.872-.052-2.236-.052-1.04-.052-1.04-.052-1.664,2.5,3.38,5.928,4.992,10.5,4.992,8.84,0,14.092-5.772,14.092-15.34,0-5.252-1.352-9.152-4.108-11.96-2.392-2.392-5.72-3.64-9.88-3.64-4.68,0-7.748,1.456-10.608,5.1.052-.676.052-1.248.052-1.82Zm17.784,14.768c0,6.136-3.172,9.984-8.268,9.984-5.408,0-9.256-4.16-9.256-10.088,0-5.564,3.9-9.828,9.048-9.828C24.7,275.612,27.924,279.408,27.924,285.544ZM54.34,301.612c9.256,0,15.34-6.344,15.34-15.964s-5.98-15.756-15.392-15.756c-9.464,0-15.5,6.188-15.5,15.86C38.792,295.476,44.824,301.612,54.34,301.612ZM54.288,275.3c5.512,0,8.684,3.848,8.684,10.556,0,6.344-3.328,10.244-8.736,10.244S45.5,292.148,45.5,285.752C45.5,279.252,48.828,275.3,54.288,275.3ZM73.58,292.148a11.7,11.7,0,0,0,2.028,4.628c2.236,3.016,6.24,4.628,11.6,4.628,4.732,0,8.372-1.144,10.764-3.38a8.361,8.361,0,0,0,2.548-5.876A7.39,7.39,0,0,0,97.5,285.7c-1.716-1.3-3.848-2.028-9.152-3.172a21.9,21.9,0,0,1-5.2-1.56,2.8,2.8,0,0,1-1.612-2.444c0-2.184,2.184-3.64,5.408-3.64,3.38,0,5.148,1.248,5.72,4.108l6.864-.884a10.122,10.122,0,0,0-2.808-5.148c-2.132-1.976-5.512-3.016-9.776-3.016-4.732,0-8.268,1.352-10.4,4.056a7.737,7.737,0,0,0-1.612,4.836,7.446,7.446,0,0,0,4.576,6.916A31.437,31.437,0,0,0,87,287.988c4.16.936,4.472.988,5.46,1.664a3.179,3.179,0,0,1,1.352,2.6c0,2.444-2.392,3.952-6.24,3.952-4.056,0-5.98-1.4-6.864-4.94Zm30.836,0a11.7,11.7,0,0,0,2.028,4.628c2.236,3.016,6.24,4.628,11.6,4.628,4.732,0,8.372-1.144,10.764-3.38a8.361,8.361,0,0,0,2.548-5.876,7.39,7.39,0,0,0-3.016-6.448c-1.716-1.3-3.848-2.028-9.152-3.172a21.9,21.9,0,0,1-5.2-1.56,2.8,2.8,0,0,1-1.612-2.444c0-2.184,2.184-3.64,5.408-3.64,3.38,0,5.148,1.248,5.72,4.108l6.864-.884a10.123,10.123,0,0,0-2.808-5.148c-2.132-1.976-5.512-3.016-9.776-3.016-4.732,0-8.268,1.352-10.4,4.056a7.737,7.737,0,0,0-1.612,4.836,7.446,7.446,0,0,0,4.576,6.916,31.437,31.437,0,0,0,7.488,2.236c4.16.936,4.472.988,5.46,1.664a3.179,3.179,0,0,1,1.352,2.6c0,2.444-2.392,3.952-6.24,3.952-4.056,0-5.98-1.4-6.864-4.94Zm32.136-32.916v6.6H144.2v-6.6Zm0,11.544a42.739,42.739,0,0,1,.416,6.76v16.328a46.733,46.733,0,0,1-.416,6.76h7.592a52.238,52.238,0,0,1-.364-6.812V277.588a46.742,46.742,0,0,1,.364-6.812Zm21.008,29.848v-2.548c0-.624,0-1.2-.052-1.872,2.6,3.64,5.564,5.148,10.348,5.148q6.318,0,9.984-3.744c2.808-2.912,4.264-7.072,4.264-12.168,0-9.672-5.148-15.34-13.884-15.34-4.784,0-8.008,1.612-10.712,5.252.052-1.768.1-3.068.1-3.9v-5.2a53,53,0,0,1,.364-7.02h-7.332a60.64,60.64,0,0,1,.364,6.968v27.4a54.587,54.587,0,0,1-.364,7.02Zm17.784-15.184c0,6.292-3.38,10.348-8.632,10.348a9.06,9.06,0,0,1-5.46-1.924c-2.08-1.664-3.432-4.94-3.432-8.216a11.2,11.2,0,0,1,2.548-7.228,9.279,9.279,0,0,1,7.072-2.86C172.224,275.56,175.344,279.46,175.344,285.44Zm12.012-26.208a46.891,46.891,0,0,1,.364,6.76v27.872a50.353,50.353,0,0,1-.364,6.76h7.54a53.559,53.559,0,0,1-.364-6.76v-27.82a48.172,48.172,0,0,1,.364-6.812Zm42.068,28.184c-.1-1.2-.1-1.352-.1-1.456a21.377,21.377,0,0,0-1.508-7.9c-2.08-5.2-6.864-8.216-12.948-8.216-8.892,0-14.664,6.292-14.664,15.912,0,9.724,5.824,15.86,15.028,15.86a14.767,14.767,0,0,0,10.712-4,14.614,14.614,0,0,0,3.172-4.784l-6.136-1.976a7.558,7.558,0,0,1-1.508,2.7,8.748,8.748,0,0,1-12.74-.312c-1.2-1.508-1.664-2.964-1.924-5.824Zm-22.464-5.148c.78-4.368,3.744-7.072,7.8-7.072a7.416,7.416,0,0,1,5.616,2.08,8.162,8.162,0,0,1,2.288,4.992Z" transform="translate(220 502)"/>
          <path id="路径_41029" data-name="路径 41029" d="M5-9.6a4.159,4.159,0,0,0-3.1,1.2A5.137,5.137,0,0,0,.54-4.656c0,3.048,1.752,5,4.476,5S9.5-1.62,9.5-4.656A5.175,5.175,0,0,0,8.16-8.4,4.205,4.205,0,0,0,5-9.6ZM5.04-1.08a2.591,2.591,0,0,1-1.86-.732,3.965,3.965,0,0,1-.972-2.832c0-2.172,1.092-3.54,2.82-3.54a2.583,2.583,0,0,1,1.848.732,3.876,3.876,0,0,1,.948,2.8C7.824-2.448,6.756-1.08,5.04-1.08ZM36.576-9.408a9.767,9.767,0,0,1,.1,1.644V-3.54a2.191,2.191,0,0,1-2.436,2.484,2.2,2.2,0,0,1-2.46-2.472V-7.764a9.41,9.41,0,0,1,.1-1.644H30.084a9.858,9.858,0,0,1,.1,1.644v4.236a3.865,3.865,0,0,0,.9,2.76A4.134,4.134,0,0,0,34.176.36c2.616,0,4.092-1.392,4.092-3.876v-4.26a9.7,9.7,0,0,1,.1-1.632ZM67.332.144c-.168-.324-.468-.972-.564-1.188C65.58-3.852,65.352-4.188,64.6-4.428a2.537,2.537,0,0,0,1.332-.7,2.467,2.467,0,0,0,.612-1.788c0-1.584-1.044-2.5-2.868-2.5h-2.88c-.66,0-1.032-.012-1.536-.036a10.677,10.677,0,0,1,.1,1.56v6.468a9.391,9.391,0,0,1-.1,1.56h1.788a9.364,9.364,0,0,1-.1-1.572V-3.876h1.788c.924,0,1.344.444,1.992,2.1a9.714,9.714,0,0,1,.624,1.92ZM60.948-5.244v-2.8h2.46c.984,0,1.476.444,1.476,1.308A1.424,1.424,0,0,1,64.5-5.676a1.617,1.617,0,0,1-1.14.432ZM116.7.144a9.771,9.771,0,0,1,.528-1.6l1.8-4.224a14.644,14.644,0,0,0,.552-1.752c-.012.18-.048.792-.1,1.836v3.984a11.156,11.156,0,0,1-.1,1.752h1.68a10.4,10.4,0,0,1-.1-1.752V-7.632a12.427,12.427,0,0,1,.1-1.776H118.86a6.65,6.65,0,0,1-.432,1.428L116-2.028,113.568-7.98a8.305,8.305,0,0,1-.444-1.428h-2.2a11.9,11.9,0,0,1,.1,1.776v6.024a11.254,11.254,0,0,1-.1,1.752h1.68a10.964,10.964,0,0,1-.1-1.752V-5.544c0-.264-.048-1.248-.1-1.884a13.354,13.354,0,0,0,.612,1.836l1.728,4.116a8.169,8.169,0,0,1,.528,1.62Zm25.272-9.552a8.966,8.966,0,0,1,.1,1.548V-1.4a9.055,9.055,0,0,1-.1,1.548H143.8a9.055,9.055,0,0,1-.1-1.548V-7.86a8.966,8.966,0,0,1,.1-1.548Zm22.4,6.756a4.1,4.1,0,0,0,.228,1A2.825,2.825,0,0,0,165.66-.288a4.825,4.825,0,0,0,2.52.624,3.977,3.977,0,0,0,2.868-.912,2.792,2.792,0,0,0,.756-2.04,2.368,2.368,0,0,0-1-2.064,5.283,5.283,0,0,0-1.956-.732,10.216,10.216,0,0,1-1.692-.432,1.141,1.141,0,0,1-.816-1.092c0-.78.708-1.308,1.752-1.308a1.9,1.9,0,0,1,1.5.576,1.55,1.55,0,0,1,.36.852l1.716-.2a3.235,3.235,0,0,0-.588-1.392A3.537,3.537,0,0,0,168.1-9.624c-2.064,0-3.408,1.08-3.408,2.748a2.362,2.362,0,0,0,.924,1.944,4.242,4.242,0,0,0,1.812.732,7.566,7.566,0,0,1,2.088.588,1.218,1.218,0,0,1,.6,1.1c0,.9-.72,1.44-1.92,1.44a2.13,2.13,0,0,1-1.752-.708,1.72,1.72,0,0,1-.336-1.056Zm27.78,0a4.1,4.1,0,0,0,.228,1A2.825,2.825,0,0,0,193.44-.288a4.825,4.825,0,0,0,2.52.624,3.977,3.977,0,0,0,2.868-.912,2.792,2.792,0,0,0,.756-2.04,2.368,2.368,0,0,0-1-2.064,5.283,5.283,0,0,0-1.956-.732,10.216,10.216,0,0,1-1.692-.432,1.141,1.141,0,0,1-.816-1.092c0-.78.708-1.308,1.752-1.308a1.9,1.9,0,0,1,1.5.576,1.55,1.55,0,0,1,.36.852l1.716-.2a3.235,3.235,0,0,0-.588-1.392,3.537,3.537,0,0,0-2.988-1.212c-2.064,0-3.408,1.08-3.408,2.748a2.362,2.362,0,0,0,.924,1.944A4.242,4.242,0,0,0,195.2-4.2a7.566,7.566,0,0,1,2.088.588,1.218,1.218,0,0,1,.6,1.1c0,.9-.72,1.44-1.92,1.44a2.13,2.13,0,0,1-1.752-.708,1.72,1.72,0,0,1-.336-1.056Zm28.092-6.756a8.966,8.966,0,0,1,.1,1.548V-1.4a9.055,9.055,0,0,1-.1,1.548h1.824a9.055,9.055,0,0,1-.1-1.548V-7.86a8.966,8.966,0,0,1,.1-1.548ZM247.116-9.6a4.159,4.159,0,0,0-3.1,1.2,5.137,5.137,0,0,0-1.368,3.744c0,3.048,1.752,5,4.476,5s4.488-1.968,4.488-5A5.175,5.175,0,0,0,250.272-8.4,4.205,4.205,0,0,0,247.116-9.6Zm.036,8.52a2.591,2.591,0,0,1-1.86-.732,3.965,3.965,0,0,1-.972-2.832c0-2.172,1.092-3.54,2.82-3.54a2.583,2.583,0,0,1,1.848.732,3.876,3.876,0,0,1,.948,2.8C249.936-2.448,248.868-1.08,247.152-1.08ZM280.368.144a9.055,9.055,0,0,1-.1-1.548V-7.752a10.493,10.493,0,0,1,.1-1.656h-1.752a10.489,10.489,0,0,1,.1,1.656V-3.72c0,.5.036,1.224.084,1.692-.264-.48-.648-1.1-.936-1.536l-3.036-4.572a6.582,6.582,0,0,1-.732-1.272H272.22a9.993,9.993,0,0,1,.1,1.548v6.192a12.983,12.983,0,0,1-.1,1.812h1.752a13.282,13.282,0,0,1-.1-1.8V-5.592c0-.276-.024-.816-.036-1.044-.036-.444-.036-.444-.048-.612.288.564.588,1.08.816,1.44l3.1,4.668a11.958,11.958,0,0,1,.768,1.284Z" transform="translate(220 400)"/>
        </g>
      </g>
      <g id="背景" transform="translate(283.495 -6.459)" opacity="0.1">
        <path id="路径_40718" data-name="路径 40718" d="M395.381,229.828l896.223,2.131,97.389,98.326V711.014l-921.585-2.13-72.028-85.75Z" transform="translate(90.634 56.382)" fill="none" stroke="#000" stroke-miterlimit="10" stroke-width="2"/>
        <path id="路径_40719" data-name="路径 40719" d="M484,250.647h769.917l62.883-66.313" transform="translate(155.55 21.688)" fill="none" stroke="#000" stroke-miterlimit="10" stroke-width="2"/>
        <path id="路径_40720" data-name="路径 40720" d="M1316.8,184.333H546.883L484,250.647" transform="translate(-59.926 594.795)" fill="none" stroke="#000" stroke-miterlimit="10" stroke-width="2"/>
        <circle id="椭圆_2128" data-name="椭圆 2128" cx="29.476" cy="29.476" r="29.476" transform="translate(1461.56 154)" fill="none" stroke="#000" stroke-miterlimit="10" stroke-width="2"/>
        <circle id="椭圆_2129" data-name="椭圆 2129" cx="18.42" cy="18.42" r="18.42" transform="translate(393.772 840.211)" fill="none" stroke="#000" stroke-miterlimit="10" stroke-width="2"/>
        <path id="路径_40721" data-name="路径 40721" d="M594.911,288.661l58.755-25.446h748.26" transform="translate(-31.036 -16.326)" fill="none" stroke="#000" stroke-width="2"/>
        <path id="路径_40722" data-name="路径 40722" d="M1401.926,263.214l-58.755,25.446H594.911" transform="translate(-69.377 515.914)" fill="none" stroke="#000" stroke-width="2"/>
        <path id="路径_40723" data-name="路径 40723" d="M444.242,293.133H387.292V671" transform="translate(79.749 -20.798)" fill="none" stroke="#000" stroke-width="2"/>
        <path id="路径_40724" data-name="路径 40724" d="M1688.293,462.333V786.349H1608.8" transform="translate(-182.597 -46.091)" fill="none" stroke="#707070" stroke-width="2"/>
        <path id="路径_40725" data-name="路径 40725" d="M428.642,768.6l67.719,70.977" transform="translate(44.819 -79.873)" fill="none" stroke="#000" stroke-width="2"/>
        <path id="路径_40726" data-name="路径 40726" d="M1636.882,316.811l50.249,47.226" transform="translate(-194.885 -6.37)" fill="none" stroke="#000" stroke-width="2"/>
      </g>
    </g>
  </g>
</svg>
