<svg xmlns="http://www.w3.org/2000/svg" xmlns:xlink="http://www.w3.org/1999/xlink" width="1820" height="880" viewBox="0 0 1820 880">
  <defs>
    <clipPath id="clip-path">
      <rect id="矩形_2273" data-name="矩形 2273" width="1820" height="880" transform="translate(50 160)" fill="#fff"/>
    </clipPath>
  </defs>
  <g id="区块链_CN" transform="translate(-6399 -8218)">
    <g id="区块链-CN" transform="translate(6349 8058)">
      <path id="路径_39448" data-name="路径 39448" d="M24.076-18.668l2.86-3.484A59.2,59.2,0,0,0,20.228-27.2h2.236a32.592,32.592,0,0,1,4.836.26v-5.3a33.905,33.905,0,0,1-5.044.26H18.98a33.17,33.17,0,0,0,.26-3.692h2.236a42.064,42.064,0,0,1,4.94.208v-5.252a32.1,32.1,0,0,1-5.148.312H13.312a6.316,6.316,0,0,0,.468-1.04,2.169,2.169,0,0,0,.26-.52c.156-.26.364-.78.728-1.456l-5.46-.988c-.832,3.432-2.912,6.5-6.448,9.516A16.82,16.82,0,0,1,6.5-31.98a35.287,35.287,0,0,1-3.8-.26v5.356A35.9,35.9,0,0,1,7.852-27.2h4.42A13.277,13.277,0,0,1,9-23.088a19.586,19.586,0,0,1-7.072,3.952,12.988,12.988,0,0,1,3.224,4.784,30.263,30.263,0,0,0,4.576-2.7c.052,1.04.1,2.184.1,3.9v11.44A41.655,41.655,0,0,1,9.516,4.16H15.34V1.976H37.128V4.16H43a34.251,34.251,0,0,1-.312-5.876v-11.44a51.781,51.781,0,0,1,.208-5.668c-1.508.1-2.912.156-5.512.156Zm-9,0c-1.56,0-2.444,0-3.224-.052a20.019,20.019,0,0,0,4.524-5.564,45.115,45.115,0,0,1,6.24,5.616ZM7.228-31.98A22.266,22.266,0,0,0,10.4-35.672h3.744a20.792,20.792,0,0,1-.364,3.692Zm8.164,17.992H37.128v3.276H15.392Zm0,7.748H37.128v3.432H15.392ZM43.42-21.424a41.587,41.587,0,0,1,4.212.156,29.508,29.508,0,0,1-.208-4.212V-36.608a32.009,32.009,0,0,1,.208-4.368,33.017,33.017,0,0,1-4.576.208H33.072a33.017,33.017,0,0,1-4.576-.208,30.935,30.935,0,0,1,.208,4.212V-25.22a27.344,27.344,0,0,1-.208,3.952,43.035,43.035,0,0,1,4.368-.156ZM34.008-35.932h8.06V-26.1h-8.06ZM93.7-44.1a30.242,30.242,0,0,1-4.316,8.268,5.183,5.183,0,0,1-3.172,1.872l1.2,5.252c5.564-.468,11.908-1.092,17.368-1.768q.78,1.482,1.4,2.808l4.68-2.756a71.391,71.391,0,0,0-7.072-10.66l-4.264,2.028c1.04,1.456,1.248,1.716,2.132,3.12a6.19,6.19,0,0,0,.52.884c-2.6.26-2.652.26-5.824.52-.676.052-.676.052-1.716.1a31.073,31.073,0,0,0,1.872-2.964c1.3-2.34,1.3-2.34,1.664-2.912.572-1.04.572-1.04.728-1.3a7.1,7.1,0,0,1,.78-1.4ZM116.74-31.564a69.4,69.4,0,0,0,12.012-4.576c2.548-1.248,2.548-1.248,3.64-1.716l-3.848-4.784A26.114,26.114,0,0,1,122.512-39a33.129,33.129,0,0,1-5.772,2.184v-2.392A22.162,22.162,0,0,1,117-43.42h-5.98a26.059,26.059,0,0,1,.26,4.472V-26c0,1.872.572,2.912,2.028,3.432,1.352.572,2.86.728,7.124.728,6.916,0,8.788-.312,10.14-1.612,1.2-1.2,1.664-2.964,2.08-7.852a19.385,19.385,0,0,1-5.2-1.612c-.156,3.9-.312,4.94-.884,5.46-.676.572-1.82.676-6.136.676-3.224,0-3.692-.208-3.692-1.508Zm0,23.192c3.172-.884,5.616-1.612,7.332-2.288,1.56-.52,7.124-3.016,8.632-3.848l-3.952-4.576a34.761,34.761,0,0,1-12.012,5.616v-1.716A21.414,21.414,0,0,1,117-19.5h-5.98a25.519,25.519,0,0,1,.26,4.628V-1.2c0,1.716.416,2.652,1.612,3.38,1.352.832,2.964,1.04,8.112,1.04,6.552,0,8.372-.364,9.776-1.924,1.352-1.508,1.924-3.484,2.288-8.372a21.2,21.2,0,0,1-5.3-1.768c-.052,3.016-.364,5.3-.832,5.98-.468.78-1.716,1.04-5.2,1.04a15.363,15.363,0,0,1-3.692-.26c-.988-.208-1.3-.52-1.3-1.4ZM88.192-1.4a43.657,43.657,0,0,1-.26,5.668H93.86a45.4,45.4,0,0,1-.26-5.772V-6.656h8.736V-2.34c-.1.78-.312.936-1.352.936a18.471,18.471,0,0,1-3.536-.364,21.177,21.177,0,0,1,1.144,5.3c.936.052,1.716.052,2.184.052,2.756,0,4.368-.312,5.46-.988,1.04-.624,1.456-1.82,1.456-4.056v-20.7c0-2.548.052-3.432.156-4.888a37.854,37.854,0,0,1-4.68.208H91.728a36.906,36.906,0,0,1-3.744-.156,45.686,45.686,0,0,1,.208,4.784Zm5.356-20.7h8.788v3.224H93.548Zm0,7.7h8.788v3.224H93.548ZM340.184-38.012a23.979,23.979,0,0,1-4.94-.312v5.616a32.731,32.731,0,0,1,4.992-.26h15.5a31.581,31.581,0,0,1,4.94.26v-5.616a24.94,24.94,0,0,1-4.888.312H351.26a40.114,40.114,0,0,0-2.652-5.772l-5.616,1.352a27.15,27.15,0,0,1,2.236,4.42ZM351-16.536h2.756a42.988,42.988,0,0,1,4.836.208,38.246,38.246,0,0,1-.208-4.732v-4.628a36.023,36.023,0,0,1,.208-4.576,42.8,42.8,0,0,1-4.888.208H342.576a44.8,44.8,0,0,1-4.992-.208,42.42,42.42,0,0,1,.208,4.68v4.472a43.189,43.189,0,0,1-.208,4.784,47.044,47.044,0,0,1,5.044-.208h2.964V-2.184c0,.936-.26,1.144-1.352,1.144a19.234,19.234,0,0,1-3.38-.26A20.092,20.092,0,0,1,341.952,4c1.3.052,1.924.052,2.6.052,2.652,0,4.056-.26,4.94-.936a4.917,4.917,0,0,0,1.508-4Zm-7.8-8.84h9.776v4.108H343.2Zm21.528-5.616a27.475,27.475,0,0,1-4.836-.26v5.876a30.132,30.132,0,0,1,4.836-.26h.936a52.48,52.48,0,0,1-2.912,12.376,30.555,30.555,0,0,1-5.46,9.672A27.856,27.856,0,0,1,353.34.52a24.27,24.27,0,0,1,4.16,4.472,37.42,37.42,0,0,0,7.176-9.412A51.7,51.7,0,0,0,370.032-19.6v1.2l-.156,17.94v.1c0,1.872.416,2.756,1.508,3.276a10.512,10.512,0,0,0,4.524.676c3.8,0,5.3-.624,6.188-2.548.78-1.768.988-3.8,1.2-10.088a15.347,15.347,0,0,1-4.732-1.976V-9.2a39.863,39.863,0,0,1-.312,5.98c-.156,1.092-.572,1.4-1.664,1.4-1.456,0-1.716-.208-1.716-1.144l.156-15.5a25.809,25.809,0,0,1,.208-4.056H370.5c.26-1.664.26-1.664.468-3.12h6.4a32.988,32.988,0,0,1,5.1.26v-5.876a30.6,30.6,0,0,1-5.1.26h-5.876c.156-1.82.26-4.888.312-7.384a32.88,32.88,0,0,1,.26-4.68h-5.928a30.528,30.528,0,0,1,.26,4.836c0,2.808-.052,3.848-.208,7.228Zm-26.312,16.38c-.624,5.3-1.716,8.58-4.056,12.324A18.908,18.908,0,0,1,339.04.884a40.741,40.741,0,0,0,4.108-14.4Zm13.468,1.092A37.49,37.49,0,0,1,355-4.836l4.316-2.34a68.439,68.439,0,0,0-3.484-8.008Zm20.748-26.416a40.588,40.588,0,0,1,5.408,8.268l4.212-3.224a45.77,45.77,0,0,0-5.72-7.644Zm86.632,8.06a50.55,50.55,0,0,1,6.24.312v-6.084a45.577,45.577,0,0,1-6.24.312H440.388c.468-1.2.936-2.392,1.352-3.588a20.3,20.3,0,0,1,.832-2.08l-6.448-1.248a29.814,29.814,0,0,1-2.08,6.916H425.1a45.577,45.577,0,0,1-6.24-.312v6.084a49.969,49.969,0,0,1,6.24-.312h6.344a46.346,46.346,0,0,1-14.04,15.5,17.287,17.287,0,0,1,3.9,5.148,41.81,41.81,0,0,0,3.952-3.536v12.9a45.805,45.805,0,0,1-.312,6.032h6.344a44.458,44.458,0,0,1-.26-6.032V-21.06a54.175,54.175,0,0,0,6.812-10.816ZM451.048-15.34h6.5a41.471,41.471,0,0,1,5.564.26v-5.876a37.75,37.75,0,0,1-5.564.312h-6.5v-3.224a32.552,32.552,0,0,1,.26-5.512h-6.292a35.066,35.066,0,0,1,.26,5.408v3.328h-5.46a37.268,37.268,0,0,1-5.564-.312v5.876a41.843,41.843,0,0,1,5.616-.26h5.408V-3.12h-6.864a43.1,43.1,0,0,1-5.772-.312v5.98a45.629,45.629,0,0,1,5.824-.312h20.8a51.155,51.155,0,0,1,5.824.312v-5.98a39.021,39.021,0,0,1-5.772.312h-8.268Zm92.716-16.016c1.456,0,2.652.052,3.38.1a8.479,8.479,0,0,0,1.04.1h.312v-5.616a28.989,28.989,0,0,1-5.148.208h-7.8a44.894,44.894,0,0,0-2.184-7.124l-5.876,1.144a32.094,32.094,0,0,1,2.08,5.98H521.2a23.265,23.265,0,0,1-4.628-.208v5.616a24.547,24.547,0,0,1,4.732-.208h16.224a23.624,23.624,0,0,1-4.68,9.36c-2.964-2.288-4.94-3.692-10.712-7.7l-3.38,3.744c5.252,3.952,6.448,4.836,10.14,7.8a50.828,50.828,0,0,1-14.144,7.54,26.436,26.436,0,0,1,3.12,5.3c6.968-2.86,11.076-5.3,15.392-9.2A130.258,130.258,0,0,1,543.5-4.68l4-4.68a90.154,90.154,0,0,0-10.348-9.308,30.633,30.633,0,0,0,3.068-4.42,27.225,27.225,0,0,0,3.328-8.268ZM508.352-7.072a38.727,38.727,0,0,0-6.864,5.3c-.208.156-.52.416-.884.728l4.056,4.628C505.544,2.444,507,.78,508.2-.468s1.82-1.716,2.444-1.716a2.891,2.891,0,0,1,1.612.728C515.06.832,515.476,1.092,517.5,1.82c2.652.988,5.46,1.248,12.948,1.248,9.256,0,13.208-.052,18.148-.312a21.992,21.992,0,0,1,1.612-6.136,151.1,151.1,0,0,1-19.968,1.092,60.985,60.985,0,0,1-8.892-.468c-2.392-.416-3.692-1.04-6.24-3.016-.676-.52-.988-.728-1.3-.936V-18.46c0-2.808.052-3.8.208-5.72a20.478,20.478,0,0,1-3.952.26H505.8a23.256,23.256,0,0,1-4.16-.26v5.72a18.827,18.827,0,0,1,3.536-.26h3.172Zm-5.928-31.98a51.676,51.676,0,0,1,8.944,9.828l4.316-4.212a63.8,63.8,0,0,0-9.1-9.516ZM611.156-17.368h10.5a42.426,42.426,0,0,1,5.824.26,45.381,45.381,0,0,1-.208-5.408V-36.088a47.884,47.884,0,0,1,.208-5.564,42.892,42.892,0,0,1-5.824.26H595.14a40.744,40.744,0,0,1-5.72-.26,53.635,53.635,0,0,1,.208,5.668v13.468a48.864,48.864,0,0,1-.208,5.408,43.363,43.363,0,0,1,5.824-.26h10.244v4.316H592.9a34.363,34.363,0,0,1-5.3-.26V-7.7a41.115,41.115,0,0,1,5.3-.26h12.584v4.888H591.032A42.657,42.657,0,0,1,585-3.38V2.6a45.294,45.294,0,0,1,6.136-.364H625.82a44.777,44.777,0,0,1,6.136.364V-3.38a42.829,42.829,0,0,1-5.98.312h-14.82V-7.956H624a42.113,42.113,0,0,1,5.3.26v-5.616a34.363,34.363,0,0,1-5.3.26H611.156Zm-5.668-14.456H595.3v-4.368h10.192Zm5.668,0v-4.368h10.5v4.368Zm-5.668,9.568H595.3v-4.68h10.192Zm5.668,0v-4.68h10.5v4.68Z" transform="translate(150 622)"/>
      <path id="路径_39450" data-name="路径 39450" d="M180.6-19.032a36.192,36.192,0,0,1,.156-4.94,27.953,27.953,0,0,1-3.9.208h-3.9a22.221,22.221,0,0,1-4.16-.26v5.616a18.943,18.943,0,0,1,3.484-.26h2.86V-6.812c-.832.468-3.848,2.756-4.836,3.588-2.028,1.768-2.028,1.768-2.6,2.288l4.056,4.628c1.612-1.924,2.5-2.964,2.7-3.224,1.612-1.716,2.7-2.548,3.484-2.548.624,0,.884.156,2.964,1.82,3.64,2.86,6.4,3.432,16.536,3.432,9.62,0,13.416-.052,18.408-.312a20.861,20.861,0,0,1,1.612-5.98,76.771,76.771,0,0,1-8.632.676c-4.16.156-8.58.26-11.388.26-8.632,0-11.18-.52-14.456-2.964-1.924-1.456-2.08-1.56-2.392-1.768Zm-11.96-20.384a47.27,47.27,0,0,1,8.788,9.724l4.316-4.16a66.832,66.832,0,0,0-8.84-9.36Zm20.7,22.724c-.988,3.9-2.756,6.6-6.448,9.672a15.9,15.9,0,0,1,4.992,3.744,25.7,25.7,0,0,0,7.02-13.416h7.7v6.5a43.418,43.418,0,0,1-.312,5.824h6.084a42.425,42.425,0,0,1-.26-5.824v-6.5h3.276a18.556,18.556,0,0,1,4.732.364v-6.136a17.394,17.394,0,0,1-4.732.364H208.1v-8.892h2.5a21.787,21.787,0,0,1,4.68.312v-6.032a17.868,17.868,0,0,1-4.68.364h-2.5v-1.976a28.966,28.966,0,0,1,.208-5.1h-5.98a28.348,28.348,0,0,1,.26,5.1v1.976h-6.968v-2.5a16.24,16.24,0,0,1,.312-4.576h-5.98a33.148,33.148,0,0,1,.26,4.992v2.08h-2.444a19.177,19.177,0,0,1-5.044-.364v6.032a25.133,25.133,0,0,1,5.044-.312h2.444c-.052,4.316-.052,5.772-.208,8.892h-2.5a23.287,23.287,0,0,1-5.1-.364v6.136a23.287,23.287,0,0,1,5.1-.364Zm13.26-14.3V-22.1h-7.228c.1-2.652.156-3.744.26-8.892Zm62.5.676c2.132-4.836,2.548-5.824,3.744-9.048.468-1.3.676-1.82,1.144-2.912L263.9-43.992a39.584,39.584,0,0,1-5.252,12.9,45.253,45.253,0,0,1-7.28,9.2,26.073,26.073,0,0,1,2.756,6.136,53.943,53.943,0,0,0,5.356-6.76c-.1,3.848-.1,4.056-.1,5.824V-2.5a55.556,55.556,0,0,1-.364,6.708h6.4c-.208-2.184-.312-4.524-.312-6.656V-13.416a17.628,17.628,0,0,1,3.432,5.044c2.7-1.248,3.536-1.664,5.564-2.756v8.372c0,4.732,1.56,5.616,9.932,5.616,8.528,0,11.336-.572,12.948-2.5,1.248-1.612,1.976-5.044,2.392-11.492a21.074,21.074,0,0,1-5.616-2.028c-.26,6.292-.572,8.32-1.456,9.516-.676.832-2.5,1.144-7.176,1.144-4.264,0-5.148-.312-5.148-1.716V-14.768c6.864-4.888,11.128-9.1,17.888-17.732.572-.728.676-.832,1.092-1.352L293.384-37.7a35.161,35.161,0,0,1-4.472,6.916,43.857,43.857,0,0,1-8.944,8.892v-15.08a48.267,48.267,0,0,1,.312-6.24h-6.5a48.833,48.833,0,0,1,.312,6.24v18.98a42.516,42.516,0,0,1-9,4Z" transform="translate(150 622)" fill="#0080f4"/>
      <path id="路径_39449" data-name="路径 39449" d="M5-9.6a4.159,4.159,0,0,0-3.1,1.2A5.137,5.137,0,0,0,.54-4.656c0,3.048,1.752,5,4.476,5S9.5-1.62,9.5-4.656A5.175,5.175,0,0,0,8.16-8.4,4.205,4.205,0,0,0,5-9.6ZM5.04-1.08a2.591,2.591,0,0,1-1.86-.732,3.965,3.965,0,0,1-.972-2.832c0-2.172,1.092-3.54,2.82-3.54a2.583,2.583,0,0,1,1.848.732,3.876,3.876,0,0,1,.948,2.8C7.824-2.448,6.756-1.08,5.04-1.08ZM36.576-9.408a9.767,9.767,0,0,1,.1,1.644V-3.54a2.191,2.191,0,0,1-2.436,2.484,2.2,2.2,0,0,1-2.46-2.472V-7.764a9.41,9.41,0,0,1,.1-1.644H30.084a9.858,9.858,0,0,1,.1,1.644v4.236a3.865,3.865,0,0,0,.9,2.76A4.134,4.134,0,0,0,34.176.36c2.616,0,4.092-1.392,4.092-3.876v-4.26a9.7,9.7,0,0,1,.1-1.632ZM67.332.144c-.168-.324-.468-.972-.564-1.188C65.58-3.852,65.352-4.188,64.6-4.428a2.537,2.537,0,0,0,1.332-.7,2.467,2.467,0,0,0,.612-1.788c0-1.584-1.044-2.5-2.868-2.5h-2.88c-.66,0-1.032-.012-1.536-.036a10.677,10.677,0,0,1,.1,1.56v6.468a9.391,9.391,0,0,1-.1,1.56h1.788a9.364,9.364,0,0,1-.1-1.572V-3.876h1.788c.924,0,1.344.444,1.992,2.1a9.714,9.714,0,0,1,.624,1.92ZM60.948-5.244v-2.8h2.46c.984,0,1.476.444,1.476,1.308A1.424,1.424,0,0,1,64.5-5.676a1.617,1.617,0,0,1-1.14.432ZM116.7.144a9.771,9.771,0,0,1,.528-1.6l1.8-4.224a14.644,14.644,0,0,0,.552-1.752c-.012.18-.048.792-.1,1.836v3.984a11.156,11.156,0,0,1-.1,1.752h1.68a10.4,10.4,0,0,1-.1-1.752V-7.632a12.427,12.427,0,0,1,.1-1.776H118.86a6.65,6.65,0,0,1-.432,1.428L116-2.028,113.568-7.98a8.305,8.305,0,0,1-.444-1.428h-2.2a11.9,11.9,0,0,1,.1,1.776v6.024a11.254,11.254,0,0,1-.1,1.752h1.68a10.964,10.964,0,0,1-.1-1.752V-5.544c0-.264-.048-1.248-.1-1.884a13.354,13.354,0,0,0,.612,1.836l1.728,4.116a8.169,8.169,0,0,1,.528,1.62Zm25.272-9.552a8.966,8.966,0,0,1,.1,1.548V-1.4a9.055,9.055,0,0,1-.1,1.548H143.8a9.055,9.055,0,0,1-.1-1.548V-7.86a8.966,8.966,0,0,1,.1-1.548Zm22.4,6.756a4.1,4.1,0,0,0,.228,1A2.825,2.825,0,0,0,165.66-.288a4.825,4.825,0,0,0,2.52.624,3.977,3.977,0,0,0,2.868-.912,2.792,2.792,0,0,0,.756-2.04,2.368,2.368,0,0,0-1-2.064,5.283,5.283,0,0,0-1.956-.732,10.216,10.216,0,0,1-1.692-.432,1.141,1.141,0,0,1-.816-1.092c0-.78.708-1.308,1.752-1.308a1.9,1.9,0,0,1,1.5.576,1.55,1.55,0,0,1,.36.852l1.716-.2a3.235,3.235,0,0,0-.588-1.392A3.537,3.537,0,0,0,168.1-9.624c-2.064,0-3.408,1.08-3.408,2.748a2.362,2.362,0,0,0,.924,1.944,4.242,4.242,0,0,0,1.812.732,7.566,7.566,0,0,1,2.088.588,1.218,1.218,0,0,1,.6,1.1c0,.9-.72,1.44-1.92,1.44a2.13,2.13,0,0,1-1.752-.708,1.72,1.72,0,0,1-.336-1.056Zm27.78,0a4.1,4.1,0,0,0,.228,1A2.825,2.825,0,0,0,193.44-.288a4.825,4.825,0,0,0,2.52.624,3.977,3.977,0,0,0,2.868-.912,2.792,2.792,0,0,0,.756-2.04,2.368,2.368,0,0,0-1-2.064,5.283,5.283,0,0,0-1.956-.732,10.216,10.216,0,0,1-1.692-.432,1.141,1.141,0,0,1-.816-1.092c0-.78.708-1.308,1.752-1.308a1.9,1.9,0,0,1,1.5.576,1.55,1.55,0,0,1,.36.852l1.716-.2a3.235,3.235,0,0,0-.588-1.392,3.537,3.537,0,0,0-2.988-1.212c-2.064,0-3.408,1.08-3.408,2.748a2.362,2.362,0,0,0,.924,1.944A4.242,4.242,0,0,0,195.2-4.2a7.566,7.566,0,0,1,2.088.588,1.218,1.218,0,0,1,.6,1.1c0,.9-.72,1.44-1.92,1.44a2.13,2.13,0,0,1-1.752-.708,1.72,1.72,0,0,1-.336-1.056Zm28.092-6.756a8.966,8.966,0,0,1,.1,1.548V-1.4a9.055,9.055,0,0,1-.1,1.548h1.824a9.055,9.055,0,0,1-.1-1.548V-7.86a8.966,8.966,0,0,1,.1-1.548ZM247.116-9.6a4.159,4.159,0,0,0-3.1,1.2,5.137,5.137,0,0,0-1.368,3.744c0,3.048,1.752,5,4.476,5s4.488-1.968,4.488-5A5.175,5.175,0,0,0,250.272-8.4,4.205,4.205,0,0,0,247.116-9.6Zm.036,8.52a2.591,2.591,0,0,1-1.86-.732,3.965,3.965,0,0,1-.972-2.832c0-2.172,1.092-3.54,2.82-3.54a2.583,2.583,0,0,1,1.848.732,3.876,3.876,0,0,1,.948,2.8C249.936-2.448,248.868-1.08,247.152-1.08ZM280.368.144a9.055,9.055,0,0,1-.1-1.548V-7.752a10.493,10.493,0,0,1,.1-1.656h-1.752a10.489,10.489,0,0,1,.1,1.656V-3.72c0,.5.036,1.224.084,1.692-.264-.48-.648-1.1-.936-1.536l-3.036-4.572a6.582,6.582,0,0,1-.732-1.272H272.22a9.993,9.993,0,0,1,.1,1.548v6.192a12.983,12.983,0,0,1-.1,1.812h1.752a13.282,13.282,0,0,1-.1-1.8V-5.592c0-.276-.024-.816-.036-1.044-.036-.444-.036-.444-.048-.612.288.564.588,1.08.816,1.44l3.1,4.668a11.958,11.958,0,0,1,.768,1.284Z" transform="translate(150 541)"/>
      <g id="蒙版组_22" data-name="蒙版组 22" clip-path="url(#clip-path)">
        <g id="组_21561" data-name="组 21561" transform="translate(582.609 166.744)" opacity="0.05">
          <g id="组_21553" data-name="组 21553" transform="translate(563.889)">
            <path id="路径_37975" data-name="路径 37975" d="M925.759-111.156,832.4-57.126a.086.086,0,0,0,0,.15L924.929-3.36a.086.086,0,0,0,.088,0l91.293-53.824a.087.087,0,0,0,0-.149l-90.463-53.822A.086.086,0,0,0,925.759-111.156Z" transform="translate(-832.266 111.168)" fill="none" stroke="#1a1311" stroke-miterlimit="10" stroke-width="3"/>
            <path id="路径_37976" data-name="路径 37976" d="M832.226,76.027V-31.413a.086.086,0,0,1,.13-.075l92.533,53.616a.088.088,0,0,1,.044.075V131.092a.087.087,0,0,1-.131.075L832.268,76.1A.086.086,0,0,1,832.226,76.027Z" transform="translate(-832.226 85.68)" fill="none" stroke="#1a1311" stroke-miterlimit="10" stroke-width="3"/>
            <path id="路径_37977" data-name="路径 37977" d="M1060.007-31.716V75.516a.086.086,0,0,1-.042.074l-91.289,55.478a.087.087,0,0,1-.131-.074V22.106a.086.086,0,0,1,.042-.075l91.29-53.822A.087.087,0,0,1,1060.007-31.716Z" transform="translate(-875.838 85.777)" fill="none" stroke="#1a1311" stroke-miterlimit="10" stroke-width="3"/>
          </g>
          <g id="组_21554" data-name="组 21554" transform="translate(843.4 160.388)">
            <path id="路径_37978" data-name="路径 37978" d="M1336.795,124.7l-93.364,54.031a.087.087,0,0,0,0,.15l92.534,53.616a.087.087,0,0,0,.087,0l91.293-53.824a.086.086,0,0,0,0-.149l-90.463-53.823A.088.088,0,0,0,1336.795,124.7Z" transform="translate(-1243.302 -124.693)" fill="none" stroke="#1a1311" stroke-miterlimit="10" stroke-width="3"/>
            <path id="路径_37979" data-name="路径 37979" d="M1243.261,311.889V204.449a.087.087,0,0,1,.13-.075l92.534,53.616a.085.085,0,0,1,.043.075V366.954a.086.086,0,0,1-.131.074L1243.3,311.963A.087.087,0,0,1,1243.261,311.889Z" transform="translate(-1243.261 -150.181)" fill="none" stroke="#1a1311" stroke-miterlimit="10" stroke-width="3"/>
            <path id="路径_37980" data-name="路径 37980" d="M1471.042,204.146V311.378a.086.086,0,0,1-.041.073l-91.29,55.478a.086.086,0,0,1-.131-.074V257.967a.085.085,0,0,1,.043-.074l91.289-53.822A.087.087,0,0,1,1471.042,204.146Z" transform="translate(-1286.873 -150.085)" fill="none" stroke="#1a1311" stroke-miterlimit="10" stroke-width="3"/>
          </g>
          <g id="组_21555" data-name="组 21555" transform="translate(1123.843 322.035)">
            <path id="路径_37981" data-name="路径 37981" d="M1749.2,362.416l-93.364,54.03a.086.086,0,0,0,0,.15l92.533,53.616a.088.088,0,0,0,.088,0l91.293-53.824a.086.086,0,0,0,0-.149l-90.462-53.823A.088.088,0,0,0,1749.2,362.416Z" transform="translate(-1655.705 -362.405)" fill="none" stroke="#1a1311" stroke-miterlimit="10" stroke-width="3"/>
            <path id="路径_37982" data-name="路径 37982" d="M1655.665,549.6V442.16a.086.086,0,0,1,.13-.075l92.534,53.616a.086.086,0,0,1,.043.075V604.665a.087.087,0,0,1-.131.074l-92.533-55.065A.085.085,0,0,1,1655.665,549.6Z" transform="translate(-1655.665 -387.893)" fill="none" stroke="#1a1311" stroke-miterlimit="10" stroke-width="3"/>
            <path id="路径_37983" data-name="路径 37983" d="M1883.446,441.857V549.089a.087.087,0,0,1-.042.074l-91.29,55.477a.086.086,0,0,1-.131-.074V495.678a.086.086,0,0,1,.043-.074l91.289-53.822A.087.087,0,0,1,1883.446,441.857Z" transform="translate(-1699.277 -387.796)" fill="none" stroke="#1a1311" stroke-miterlimit="10" stroke-width="3"/>
          </g>
          <g id="组_21556" data-name="组 21556" transform="translate(0 322.645)">
            <path id="路径_37984" data-name="路径 37984" d="M96.534,363.313,3.17,417.344a.087.087,0,0,0,0,.15L95.7,471.109a.086.086,0,0,0,.087,0l91.293-53.824a.087.087,0,0,0,0-.149L96.621,363.313A.088.088,0,0,0,96.534,363.313Z" transform="translate(-3.041 -363.302)" fill="none" stroke="#1a1311" stroke-miterlimit="10" stroke-width="3"/>
            <path id="路径_37985" data-name="路径 37985" d="M3,550.5V443.057a.086.086,0,0,1,.13-.075L95.664,496.6a.087.087,0,0,1,.043.075V605.562a.086.086,0,0,1-.131.074L3.042,550.571A.087.087,0,0,1,3,550.5Z" transform="translate(-3 -388.79)" fill="none" stroke="#1a1311" stroke-miterlimit="10" stroke-width="3"/>
            <path id="路径_37986" data-name="路径 37986" d="M230.781,442.754V549.986a.087.087,0,0,1-.041.074l-91.289,55.477a.087.087,0,0,1-.132-.074V496.575a.086.086,0,0,1,.043-.074l91.289-53.822A.087.087,0,0,1,230.781,442.754Z" transform="translate(-46.612 -388.693)" fill="none" stroke="#1a1311" stroke-miterlimit="10" stroke-width="3"/>
          </g>
          <g id="组_21557" data-name="组 21557" transform="translate(843.4 486.109)">
            <path id="路径_37987" data-name="路径 37987" d="M1336.795,603.7l-93.364,54.03a.087.087,0,0,0,0,.15l92.534,53.616a.085.085,0,0,0,.087,0l91.293-53.823a.087.087,0,0,0,0-.15L1336.882,603.7A.086.086,0,0,0,1336.795,603.7Z" transform="translate(-1243.302 -603.687)" fill="none" stroke="#1a1311" stroke-miterlimit="10" stroke-width="3"/>
            <path id="路径_37988" data-name="路径 37988" d="M1243.261,790.882V683.442a.086.086,0,0,1,.13-.075l92.534,53.616a.086.086,0,0,1,.043.075V845.947a.087.087,0,0,1-.131.075L1243.3,790.957A.088.088,0,0,1,1243.261,790.882Z" transform="translate(-1243.261 -629.175)" fill="none" stroke="#1a1311" stroke-miterlimit="10" stroke-width="3"/>
            <path id="路径_37989" data-name="路径 37989" d="M1471.042,683.139V790.371a.086.086,0,0,1-.041.074l-91.29,55.478a.087.087,0,0,1-.131-.074V736.961a.087.087,0,0,1,.043-.075l91.289-53.821A.086.086,0,0,1,1471.042,683.139Z" transform="translate(-1286.873 -629.078)" fill="none" stroke="#1a1311" stroke-miterlimit="10" stroke-width="3"/>
          </g>
          <g id="组_21558" data-name="组 21558" transform="translate(281.15 161.849)">
            <path id="路径_37990" data-name="路径 37990" d="M509.978,126.853l-93.363,54.03a.087.087,0,0,0,0,.15l92.533,53.616a.086.086,0,0,0,.088,0l91.293-53.823a.087.087,0,0,0,0-.149l-90.463-53.823A.086.086,0,0,0,509.978,126.853Z" transform="translate(-416.485 -126.841)" fill="none" stroke="#1a1311" stroke-miterlimit="10" stroke-width="3"/>
            <path id="路径_37991" data-name="路径 37991" d="M416.445,314.036V206.6a.087.087,0,0,1,.13-.075l92.533,53.616a.088.088,0,0,1,.043.075V369.1a.087.087,0,0,1-.131.075l-92.533-55.065A.087.087,0,0,1,416.445,314.036Z" transform="translate(-416.445 -152.329)" fill="none" stroke="#1a1311" stroke-miterlimit="10" stroke-width="3"/>
            <path id="路径_37992" data-name="路径 37992" d="M644.226,206.293V313.525a.086.086,0,0,1-.041.074L552.9,369.077a.087.087,0,0,1-.131-.074V260.115a.086.086,0,0,1,.042-.075L644.1,206.219A.087.087,0,0,1,644.226,206.293Z" transform="translate(-460.057 -152.232)" fill="none" stroke="#1a1311" stroke-miterlimit="10" stroke-width="3"/>
          </g>
          <g id="组_21559" data-name="组 21559" transform="translate(281.15 486.719)">
            <path id="路径_37993" data-name="路径 37993" d="M509.978,604.6l-93.363,54.03a.087.087,0,0,0,0,.15l92.533,53.616a.087.087,0,0,0,.088,0l91.293-53.823a.087.087,0,0,0,0-.15L510.066,604.6A.087.087,0,0,0,509.978,604.6Z" transform="translate(-416.485 -604.584)" fill="none" stroke="#1a1311" stroke-miterlimit="10" stroke-width="3"/>
            <path id="路径_37994" data-name="路径 37994" d="M416.445,791.779V684.339a.087.087,0,0,1,.13-.075l92.533,53.616a.088.088,0,0,1,.043.075V846.844a.087.087,0,0,1-.131.075l-92.533-55.065A.086.086,0,0,1,416.445,791.779Z" transform="translate(-416.445 -630.072)" fill="none" stroke="#1a1311" stroke-miterlimit="10" stroke-width="3"/>
            <path id="路径_37995" data-name="路径 37995" d="M644.226,684.036V791.268a.086.086,0,0,1-.041.074L552.9,846.82a.087.087,0,0,1-.131-.074V737.858a.086.086,0,0,1,.042-.075L644.1,683.962A.086.086,0,0,1,644.226,684.036Z" transform="translate(-460.057 -629.975)" fill="none" stroke="#1a1311" stroke-miterlimit="10" stroke-width="3"/>
          </g>
          <g id="组_21560" data-name="组 21560" transform="translate(563.889 649.653)">
            <path id="路径_37996" data-name="路径 37996" d="M925.759,844.2,832.4,898.232a.086.086,0,0,0,0,.15L924.929,952a.088.088,0,0,0,.088,0l91.293-53.824a.087.087,0,0,0,0-.149L925.846,844.2A.088.088,0,0,0,925.759,844.2Z" transform="translate(-832.266 -844.189)" fill="none" stroke="#1a1311" stroke-miterlimit="10" stroke-width="3"/>
            <path id="路径_37997" data-name="路径 37997" d="M832.226,1031.385V923.945a.087.087,0,0,1,.13-.075l92.533,53.616a.086.086,0,0,1,.044.075V1086.45a.087.087,0,0,1-.131.074l-92.534-55.065A.085.085,0,0,1,832.226,1031.385Z" transform="translate(-832.226 -869.677)" fill="none" stroke="#1a1311" stroke-miterlimit="10" stroke-width="3"/>
            <path id="路径_37998" data-name="路径 37998" d="M1060.007,923.642v107.232a.086.086,0,0,1-.042.074l-91.289,55.478a.086.086,0,0,1-.131-.074V977.463a.085.085,0,0,1,.042-.074l91.29-53.822A.087.087,0,0,1,1060.007,923.642Z" transform="translate(-875.838 -869.58)" fill="none" stroke="#1a1311" stroke-miterlimit="10" stroke-width="3"/>
          </g>
          <line id="直线_377" data-name="直线 377" y1="69.712" x2="127.067" transform="translate(465.176 146.128)" fill="none" stroke="#1a1311" stroke-miterlimit="10" stroke-width="3"/>
          <line id="直线_378" data-name="直线 378" y1="69.712" x2="127.067" transform="translate(182.828 307.73)" fill="none" stroke="#1a1311" stroke-miterlimit="10" stroke-width="3"/>
          <line id="直线_379" data-name="直线 379" y1="74.545" x2="127.872" transform="translate(1027.409 465.812)" fill="none" stroke="#1a1311" stroke-miterlimit="10" stroke-width="3"/>
          <line id="直线_380" data-name="直线 380" y1="74.263" x2="125.336" transform="translate(747.963 630.231)" fill="none" stroke="#1a1311" stroke-miterlimit="10" stroke-width="3"/>
          <line id="直线_381" data-name="直线 381" x1="120.34" y1="67.615" transform="translate(724.33 148.224)" fill="none" stroke="#1a1311" stroke-miterlimit="10" stroke-width="3"/>
          <line id="直线_382" data-name="直线 382" x1="122.248" y1="69.445" transform="translate(443.653 635.499)" fill="none" stroke="#1a1311" stroke-miterlimit="10" stroke-width="3"/>
          <line id="直线_383" data-name="直线 383" x1="121.677" y1="69.986" transform="translate(160.84 471.379)" fill="none" stroke="#1a1311" stroke-miterlimit="10" stroke-width="3"/>
          <path id="路径_38192" data-name="路径 38192" d="M123.695,69.292,27.541,15.428,0,0" transform="translate(1001.456 307.548)" fill="none" stroke="#1a1311" stroke-width="3"/>
        </g>
      </g>
    </g>
  </g>
</svg>
