<svg xmlns="http://www.w3.org/2000/svg" xmlns:xlink="http://www.w3.org/1999/xlink" width="1820" height="880" viewBox="0 0 1820 880">
  <defs>
    <clipPath id="clip-path">
      <rect id="矩形_2273" data-name="矩形 2273" width="1820" height="880" transform="translate(50 160)" fill="#fff"/>
    </clipPath>
  </defs>
  <g id="区块链_韩文" transform="translate(-6399 -8218)">
    <g id="区块链-CN" transform="translate(6349 8058)">
      <path id="路径_39449" data-name="路径 39449" d="M5-9.6a4.159,4.159,0,0,0-3.1,1.2A5.137,5.137,0,0,0,.54-4.656c0,3.048,1.752,5,4.476,5S9.5-1.62,9.5-4.656A5.175,5.175,0,0,0,8.16-8.4,4.205,4.205,0,0,0,5-9.6ZM5.04-1.08a2.591,2.591,0,0,1-1.86-.732,3.965,3.965,0,0,1-.972-2.832c0-2.172,1.092-3.54,2.82-3.54a2.583,2.583,0,0,1,1.848.732,3.876,3.876,0,0,1,.948,2.8C7.824-2.448,6.756-1.08,5.04-1.08ZM36.576-9.408a9.767,9.767,0,0,1,.1,1.644V-3.54a2.191,2.191,0,0,1-2.436,2.484,2.2,2.2,0,0,1-2.46-2.472V-7.764a9.41,9.41,0,0,1,.1-1.644H30.084a9.858,9.858,0,0,1,.1,1.644v4.236a3.865,3.865,0,0,0,.9,2.76A4.134,4.134,0,0,0,34.176.36c2.616,0,4.092-1.392,4.092-3.876v-4.26a9.7,9.7,0,0,1,.1-1.632ZM67.332.144c-.168-.324-.468-.972-.564-1.188C65.58-3.852,65.352-4.188,64.6-4.428a2.537,2.537,0,0,0,1.332-.7,2.467,2.467,0,0,0,.612-1.788c0-1.584-1.044-2.5-2.868-2.5h-2.88c-.66,0-1.032-.012-1.536-.036a10.677,10.677,0,0,1,.1,1.56v6.468a9.391,9.391,0,0,1-.1,1.56h1.788a9.364,9.364,0,0,1-.1-1.572V-3.876h1.788c.924,0,1.344.444,1.992,2.1a9.714,9.714,0,0,1,.624,1.92ZM60.948-5.244v-2.8h2.46c.984,0,1.476.444,1.476,1.308A1.424,1.424,0,0,1,64.5-5.676a1.617,1.617,0,0,1-1.14.432ZM116.7.144a9.771,9.771,0,0,1,.528-1.6l1.8-4.224a14.644,14.644,0,0,0,.552-1.752c-.012.18-.048.792-.1,1.836v3.984a11.156,11.156,0,0,1-.1,1.752h1.68a10.4,10.4,0,0,1-.1-1.752V-7.632a12.427,12.427,0,0,1,.1-1.776H118.86a6.65,6.65,0,0,1-.432,1.428L116-2.028,113.568-7.98a8.305,8.305,0,0,1-.444-1.428h-2.2a11.9,11.9,0,0,1,.1,1.776v6.024a11.254,11.254,0,0,1-.1,1.752h1.68a10.964,10.964,0,0,1-.1-1.752V-5.544c0-.264-.048-1.248-.1-1.884a13.354,13.354,0,0,0,.612,1.836l1.728,4.116a8.169,8.169,0,0,1,.528,1.62Zm25.272-9.552a8.966,8.966,0,0,1,.1,1.548V-1.4a9.055,9.055,0,0,1-.1,1.548H143.8a9.055,9.055,0,0,1-.1-1.548V-7.86a8.966,8.966,0,0,1,.1-1.548Zm22.4,6.756a4.1,4.1,0,0,0,.228,1A2.825,2.825,0,0,0,165.66-.288a4.825,4.825,0,0,0,2.52.624,3.977,3.977,0,0,0,2.868-.912,2.792,2.792,0,0,0,.756-2.04,2.368,2.368,0,0,0-1-2.064,5.283,5.283,0,0,0-1.956-.732,10.216,10.216,0,0,1-1.692-.432,1.141,1.141,0,0,1-.816-1.092c0-.78.708-1.308,1.752-1.308a1.9,1.9,0,0,1,1.5.576,1.55,1.55,0,0,1,.36.852l1.716-.2a3.235,3.235,0,0,0-.588-1.392A3.537,3.537,0,0,0,168.1-9.624c-2.064,0-3.408,1.08-3.408,2.748a2.362,2.362,0,0,0,.924,1.944,4.242,4.242,0,0,0,1.812.732,7.566,7.566,0,0,1,2.088.588,1.218,1.218,0,0,1,.6,1.1c0,.9-.72,1.44-1.92,1.44a2.13,2.13,0,0,1-1.752-.708,1.72,1.72,0,0,1-.336-1.056Zm27.78,0a4.1,4.1,0,0,0,.228,1A2.825,2.825,0,0,0,193.44-.288a4.825,4.825,0,0,0,2.52.624,3.977,3.977,0,0,0,2.868-.912,2.792,2.792,0,0,0,.756-2.04,2.368,2.368,0,0,0-1-2.064,5.283,5.283,0,0,0-1.956-.732,10.216,10.216,0,0,1-1.692-.432,1.141,1.141,0,0,1-.816-1.092c0-.78.708-1.308,1.752-1.308a1.9,1.9,0,0,1,1.5.576,1.55,1.55,0,0,1,.36.852l1.716-.2a3.235,3.235,0,0,0-.588-1.392,3.537,3.537,0,0,0-2.988-1.212c-2.064,0-3.408,1.08-3.408,2.748a2.362,2.362,0,0,0,.924,1.944A4.242,4.242,0,0,0,195.2-4.2a7.566,7.566,0,0,1,2.088.588,1.218,1.218,0,0,1,.6,1.1c0,.9-.72,1.44-1.92,1.44a2.13,2.13,0,0,1-1.752-.708,1.72,1.72,0,0,1-.336-1.056Zm28.092-6.756a8.966,8.966,0,0,1,.1,1.548V-1.4a9.055,9.055,0,0,1-.1,1.548h1.824a9.055,9.055,0,0,1-.1-1.548V-7.86a8.966,8.966,0,0,1,.1-1.548ZM247.116-9.6a4.159,4.159,0,0,0-3.1,1.2,5.137,5.137,0,0,0-1.368,3.744c0,3.048,1.752,5,4.476,5s4.488-1.968,4.488-5A5.175,5.175,0,0,0,250.272-8.4,4.205,4.205,0,0,0,247.116-9.6Zm.036,8.52a2.591,2.591,0,0,1-1.86-.732,3.965,3.965,0,0,1-.972-2.832c0-2.172,1.092-3.54,2.82-3.54a2.583,2.583,0,0,1,1.848.732,3.876,3.876,0,0,1,.948,2.8C249.936-2.448,248.868-1.08,247.152-1.08ZM280.368.144a9.055,9.055,0,0,1-.1-1.548V-7.752a10.493,10.493,0,0,1,.1-1.656h-1.752a10.489,10.489,0,0,1,.1,1.656V-3.72c0,.5.036,1.224.084,1.692-.264-.48-.648-1.1-.936-1.536l-3.036-4.572a6.582,6.582,0,0,1-.732-1.272H272.22a9.993,9.993,0,0,1,.1,1.548v6.192a12.983,12.983,0,0,1-.1,1.812h1.752a13.282,13.282,0,0,1-.1-1.8V-5.592c0-.276-.024-.816-.036-1.044-.036-.444-.036-.444-.048-.612.288.564.588,1.08.816,1.44l3.1,4.668a11.958,11.958,0,0,1,.768,1.284Z" transform="translate(150 541)"/>
      <g id="蒙版组_22" data-name="蒙版组 22" clip-path="url(#clip-path)">
        <g id="组_21561" data-name="组 21561" transform="translate(582.609 166.744)" opacity="0.05">
          <g id="组_21553" data-name="组 21553" transform="translate(563.889)">
            <path id="路径_37975" data-name="路径 37975" d="M925.759-111.156,832.4-57.126a.086.086,0,0,0,0,.15L924.929-3.36a.086.086,0,0,0,.088,0l91.293-53.824a.087.087,0,0,0,0-.149l-90.463-53.822A.086.086,0,0,0,925.759-111.156Z" transform="translate(-832.266 111.168)" fill="none" stroke="#1a1311" stroke-miterlimit="10" stroke-width="3"/>
            <path id="路径_37976" data-name="路径 37976" d="M832.226,76.027V-31.413a.086.086,0,0,1,.13-.075l92.533,53.616a.088.088,0,0,1,.044.075V131.092a.087.087,0,0,1-.131.075L832.268,76.1A.086.086,0,0,1,832.226,76.027Z" transform="translate(-832.226 85.68)" fill="none" stroke="#1a1311" stroke-miterlimit="10" stroke-width="3"/>
            <path id="路径_37977" data-name="路径 37977" d="M1060.007-31.716V75.516a.086.086,0,0,1-.042.074l-91.289,55.478a.087.087,0,0,1-.131-.074V22.106a.086.086,0,0,1,.042-.075l91.29-53.822A.087.087,0,0,1,1060.007-31.716Z" transform="translate(-875.838 85.777)" fill="none" stroke="#1a1311" stroke-miterlimit="10" stroke-width="3"/>
          </g>
          <g id="组_21554" data-name="组 21554" transform="translate(843.4 160.388)">
            <path id="路径_37978" data-name="路径 37978" d="M1336.795,124.7l-93.364,54.031a.087.087,0,0,0,0,.15l92.534,53.616a.087.087,0,0,0,.087,0l91.293-53.824a.086.086,0,0,0,0-.149l-90.463-53.823A.088.088,0,0,0,1336.795,124.7Z" transform="translate(-1243.302 -124.693)" fill="none" stroke="#1a1311" stroke-miterlimit="10" stroke-width="3"/>
            <path id="路径_37979" data-name="路径 37979" d="M1243.261,311.889V204.449a.087.087,0,0,1,.13-.075l92.534,53.616a.085.085,0,0,1,.043.075V366.954a.086.086,0,0,1-.131.074L1243.3,311.963A.087.087,0,0,1,1243.261,311.889Z" transform="translate(-1243.261 -150.181)" fill="none" stroke="#1a1311" stroke-miterlimit="10" stroke-width="3"/>
            <path id="路径_37980" data-name="路径 37980" d="M1471.042,204.146V311.378a.086.086,0,0,1-.041.073l-91.29,55.478a.086.086,0,0,1-.131-.074V257.967a.085.085,0,0,1,.043-.074l91.289-53.822A.087.087,0,0,1,1471.042,204.146Z" transform="translate(-1286.873 -150.085)" fill="none" stroke="#1a1311" stroke-miterlimit="10" stroke-width="3"/>
          </g>
          <g id="组_21555" data-name="组 21555" transform="translate(1123.843 322.035)">
            <path id="路径_37981" data-name="路径 37981" d="M1749.2,362.416l-93.364,54.03a.086.086,0,0,0,0,.15l92.533,53.616a.088.088,0,0,0,.088,0l91.293-53.824a.086.086,0,0,0,0-.149l-90.462-53.823A.088.088,0,0,0,1749.2,362.416Z" transform="translate(-1655.705 -362.405)" fill="none" stroke="#1a1311" stroke-miterlimit="10" stroke-width="3"/>
            <path id="路径_37982" data-name="路径 37982" d="M1655.665,549.6V442.16a.086.086,0,0,1,.13-.075l92.534,53.616a.086.086,0,0,1,.043.075V604.665a.087.087,0,0,1-.131.074l-92.533-55.065A.085.085,0,0,1,1655.665,549.6Z" transform="translate(-1655.665 -387.893)" fill="none" stroke="#1a1311" stroke-miterlimit="10" stroke-width="3"/>
            <path id="路径_37983" data-name="路径 37983" d="M1883.446,441.857V549.089a.087.087,0,0,1-.042.074l-91.29,55.477a.086.086,0,0,1-.131-.074V495.678a.086.086,0,0,1,.043-.074l91.289-53.822A.087.087,0,0,1,1883.446,441.857Z" transform="translate(-1699.277 -387.796)" fill="none" stroke="#1a1311" stroke-miterlimit="10" stroke-width="3"/>
          </g>
          <g id="组_21556" data-name="组 21556" transform="translate(0 322.645)">
            <path id="路径_37984" data-name="路径 37984" d="M96.534,363.313,3.17,417.344a.087.087,0,0,0,0,.15L95.7,471.109a.086.086,0,0,0,.087,0l91.293-53.824a.087.087,0,0,0,0-.149L96.621,363.313A.088.088,0,0,0,96.534,363.313Z" transform="translate(-3.041 -363.302)" fill="none" stroke="#1a1311" stroke-miterlimit="10" stroke-width="3"/>
            <path id="路径_37985" data-name="路径 37985" d="M3,550.5V443.057a.086.086,0,0,1,.13-.075L95.664,496.6a.087.087,0,0,1,.043.075V605.562a.086.086,0,0,1-.131.074L3.042,550.571A.087.087,0,0,1,3,550.5Z" transform="translate(-3 -388.79)" fill="none" stroke="#1a1311" stroke-miterlimit="10" stroke-width="3"/>
            <path id="路径_37986" data-name="路径 37986" d="M230.781,442.754V549.986a.087.087,0,0,1-.041.074l-91.289,55.477a.087.087,0,0,1-.132-.074V496.575a.086.086,0,0,1,.043-.074l91.289-53.822A.087.087,0,0,1,230.781,442.754Z" transform="translate(-46.612 -388.693)" fill="none" stroke="#1a1311" stroke-miterlimit="10" stroke-width="3"/>
          </g>
          <g id="组_21557" data-name="组 21557" transform="translate(843.4 486.109)">
            <path id="路径_37987" data-name="路径 37987" d="M1336.795,603.7l-93.364,54.03a.087.087,0,0,0,0,.15l92.534,53.616a.085.085,0,0,0,.087,0l91.293-53.823a.087.087,0,0,0,0-.15L1336.882,603.7A.086.086,0,0,0,1336.795,603.7Z" transform="translate(-1243.302 -603.687)" fill="none" stroke="#1a1311" stroke-miterlimit="10" stroke-width="3"/>
            <path id="路径_37988" data-name="路径 37988" d="M1243.261,790.882V683.442a.086.086,0,0,1,.13-.075l92.534,53.616a.086.086,0,0,1,.043.075V845.947a.087.087,0,0,1-.131.075L1243.3,790.957A.088.088,0,0,1,1243.261,790.882Z" transform="translate(-1243.261 -629.175)" fill="none" stroke="#1a1311" stroke-miterlimit="10" stroke-width="3"/>
            <path id="路径_37989" data-name="路径 37989" d="M1471.042,683.139V790.371a.086.086,0,0,1-.041.074l-91.29,55.478a.087.087,0,0,1-.131-.074V736.961a.087.087,0,0,1,.043-.075l91.289-53.821A.086.086,0,0,1,1471.042,683.139Z" transform="translate(-1286.873 -629.078)" fill="none" stroke="#1a1311" stroke-miterlimit="10" stroke-width="3"/>
          </g>
          <g id="组_21558" data-name="组 21558" transform="translate(281.15 161.849)">
            <path id="路径_37990" data-name="路径 37990" d="M509.978,126.853l-93.363,54.03a.087.087,0,0,0,0,.15l92.533,53.616a.086.086,0,0,0,.088,0l91.293-53.823a.087.087,0,0,0,0-.149l-90.463-53.823A.086.086,0,0,0,509.978,126.853Z" transform="translate(-416.485 -126.841)" fill="none" stroke="#1a1311" stroke-miterlimit="10" stroke-width="3"/>
            <path id="路径_37991" data-name="路径 37991" d="M416.445,314.036V206.6a.087.087,0,0,1,.13-.075l92.533,53.616a.088.088,0,0,1,.043.075V369.1a.087.087,0,0,1-.131.075l-92.533-55.065A.087.087,0,0,1,416.445,314.036Z" transform="translate(-416.445 -152.329)" fill="none" stroke="#1a1311" stroke-miterlimit="10" stroke-width="3"/>
            <path id="路径_37992" data-name="路径 37992" d="M644.226,206.293V313.525a.086.086,0,0,1-.041.074L552.9,369.077a.087.087,0,0,1-.131-.074V260.115a.086.086,0,0,1,.042-.075L644.1,206.219A.087.087,0,0,1,644.226,206.293Z" transform="translate(-460.057 -152.232)" fill="none" stroke="#1a1311" stroke-miterlimit="10" stroke-width="3"/>
          </g>
          <g id="组_21559" data-name="组 21559" transform="translate(281.15 486.719)">
            <path id="路径_37993" data-name="路径 37993" d="M509.978,604.6l-93.363,54.03a.087.087,0,0,0,0,.15l92.533,53.616a.087.087,0,0,0,.088,0l91.293-53.823a.087.087,0,0,0,0-.15L510.066,604.6A.087.087,0,0,0,509.978,604.6Z" transform="translate(-416.485 -604.584)" fill="none" stroke="#1a1311" stroke-miterlimit="10" stroke-width="3"/>
            <path id="路径_37994" data-name="路径 37994" d="M416.445,791.779V684.339a.087.087,0,0,1,.13-.075l92.533,53.616a.088.088,0,0,1,.043.075V846.844a.087.087,0,0,1-.131.075l-92.533-55.065A.086.086,0,0,1,416.445,791.779Z" transform="translate(-416.445 -630.072)" fill="none" stroke="#1a1311" stroke-miterlimit="10" stroke-width="3"/>
            <path id="路径_37995" data-name="路径 37995" d="M644.226,684.036V791.268a.086.086,0,0,1-.041.074L552.9,846.82a.087.087,0,0,1-.131-.074V737.858a.086.086,0,0,1,.042-.075L644.1,683.962A.086.086,0,0,1,644.226,684.036Z" transform="translate(-460.057 -629.975)" fill="none" stroke="#1a1311" stroke-miterlimit="10" stroke-width="3"/>
          </g>
          <g id="组_21560" data-name="组 21560" transform="translate(563.889 649.653)">
            <path id="路径_37996" data-name="路径 37996" d="M925.759,844.2,832.4,898.232a.086.086,0,0,0,0,.15L924.929,952a.088.088,0,0,0,.088,0l91.293-53.824a.087.087,0,0,0,0-.149L925.846,844.2A.088.088,0,0,0,925.759,844.2Z" transform="translate(-832.266 -844.189)" fill="none" stroke="#1a1311" stroke-miterlimit="10" stroke-width="3"/>
            <path id="路径_37997" data-name="路径 37997" d="M832.226,1031.385V923.945a.087.087,0,0,1,.13-.075l92.533,53.616a.086.086,0,0,1,.044.075V1086.45a.087.087,0,0,1-.131.074l-92.534-55.065A.085.085,0,0,1,832.226,1031.385Z" transform="translate(-832.226 -869.677)" fill="none" stroke="#1a1311" stroke-miterlimit="10" stroke-width="3"/>
            <path id="路径_37998" data-name="路径 37998" d="M1060.007,923.642v107.232a.086.086,0,0,1-.042.074l-91.289,55.478a.086.086,0,0,1-.131-.074V977.463a.085.085,0,0,1,.042-.074l91.29-53.822A.087.087,0,0,1,1060.007,923.642Z" transform="translate(-875.838 -869.58)" fill="none" stroke="#1a1311" stroke-miterlimit="10" stroke-width="3"/>
          </g>
          <line id="直线_377" data-name="直线 377" y1="69.712" x2="127.067" transform="translate(465.176 146.128)" fill="none" stroke="#1a1311" stroke-miterlimit="10" stroke-width="3"/>
          <line id="直线_378" data-name="直线 378" y1="69.712" x2="127.067" transform="translate(182.828 307.73)" fill="none" stroke="#1a1311" stroke-miterlimit="10" stroke-width="3"/>
          <line id="直线_379" data-name="直线 379" y1="74.545" x2="127.872" transform="translate(1027.409 465.812)" fill="none" stroke="#1a1311" stroke-miterlimit="10" stroke-width="3"/>
          <line id="直线_380" data-name="直线 380" y1="74.263" x2="125.336" transform="translate(747.963 630.231)" fill="none" stroke="#1a1311" stroke-miterlimit="10" stroke-width="3"/>
          <line id="直线_381" data-name="直线 381" x1="120.34" y1="67.615" transform="translate(724.33 148.224)" fill="none" stroke="#1a1311" stroke-miterlimit="10" stroke-width="3"/>
          <line id="直线_382" data-name="直线 382" x1="122.248" y1="69.445" transform="translate(443.653 635.499)" fill="none" stroke="#1a1311" stroke-miterlimit="10" stroke-width="3"/>
          <line id="直线_383" data-name="直线 383" x1="121.677" y1="69.986" transform="translate(160.84 471.379)" fill="none" stroke="#1a1311" stroke-miterlimit="10" stroke-width="3"/>
          <path id="路径_38192" data-name="路径 38192" d="M123.695,69.292,27.541,15.428,0,0" transform="translate(1001.456 307.548)" fill="none" stroke="#1a1311" stroke-width="3"/>
        </g>
      </g>
      <path id="路径_40305" data-name="路径 40305" d="M37.959,4.57V-44.408h6.246V4.57ZM29.428-7.541A38.6,38.6,0,0,1,18.408-19.4Q13.381-10.537,7.439-6.6L2.768-10.664a22.9,22.9,0,0,0,8.544-7.909,19.617,19.617,0,0,0,3.872-11.159v-5.205H4.57v-5.357H31.916v5.357H21.531v5.027a17.286,17.286,0,0,0,3.682,10.258,23.665,23.665,0,0,0,8.43,7.439ZM66.342-27.5V-43.367h6.4v10.461h25.9V-27.5Zm-6.906,9.547v-5.357h45.449v5.357ZM82.16,4.57q-8.023,0-12.327-2.476a7.707,7.707,0,0,1-4.3-7q0-4.443,4.316-6.919T82.16-14.295q8.074,0,12.353,2.5T98.791-4.9a7.707,7.707,0,0,1-4.3,7Q90.183,4.57,82.16,4.57Zm0-13.609q-10.131,0-10.131,4.139,0,1.955,2.564,3.11A19.183,19.183,0,0,0,82.16-.635,19.183,19.183,0,0,0,89.726-1.79q2.564-1.155,2.564-3.11Q92.291-9.039,82.16-9.039Zm89.849-.33V-44.408h6.246V-9.369Zm-8.4-6.119a27.921,27.921,0,0,1-10.943-9.217,22.331,22.331,0,0,1-4.7,6.106,24.712,24.712,0,0,1-6.373,4.761l-4.52-4.469a20.243,20.243,0,0,0,8.671-6.348,14.114,14.114,0,0,0,3.542-8.887v-2.818H139.2v-5.281h26.3v5.281h-9.826v2.615a11.6,11.6,0,0,0,3.377,8.062,19.857,19.857,0,0,0,8.582,5.345ZM146.212,2.92V-13.457h6.4v11.02h26.178V2.92Zm47.07-36.562V-39h12.01v-5.764h6.4V-39h11.959v5.357Zm40.346,15.488V4.57h-6.4V-44.408h6.4v20.9h7.338v5.357ZM225.579-3.275q-13.508.787-33.643.787L191.3-7.795l13.99-.1v-4.951a12.537,12.537,0,0,1-7.008-3.288,8.37,8.37,0,0,1-2.514-6.132,8.425,8.425,0,0,1,3.466-6.944q3.466-2.7,9.28-2.7,5.891,0,9.268,2.577a8.208,8.208,0,0,1,3.377,6.868,8.678,8.678,0,0,1-2.476,6.17,12.187,12.187,0,0,1-7,3.4v4.85q10.41-.254,13.457-.533Zm-17.062-23.41a7.533,7.533,0,0,0-4.608,1.295,3.846,3.846,0,0,0-1.739,3.174,3.768,3.768,0,0,0,1.688,3.148,7.712,7.712,0,0,0,4.659,1.244,7.664,7.664,0,0,0,4.621-1.231,3.765,3.765,0,0,0,1.676-3.161,3.851,3.851,0,0,0-1.663-3.225A7.6,7.6,0,0,0,208.517-26.686ZM256.3-26V-41.971h6.4v10.563h25.9V-26Zm-6.906,10.512v-5.357h45.449v5.357Zm6.652,17.977v-14.5h6.4v9.141H288.8V2.488ZM366.484-20.236V4.57h-6.322V-44.408h6.322v18.814h7.668v5.357Zm-37.172,11.1V-40.879h6.3v11.35h11.172v-11.35h6.3V-9.141Zm17.469-15.031H335.609V-14.5h11.172ZM383.187-2.031V-7.338h19.551v-6.855h-13.1V-29.961h25.949v-4.926H389.738v-5.256h32.246v15.285H396.035v5.408h27.244v5.256H409.086v6.855h19.551v5.307Zm112.472,6.6V-44.408h6.3V4.57ZM475.448-7.338a11.229,11.229,0,0,1-9.369-4.6q-3.529-4.6-3.529-12.391,0-7.922,3.517-12.441a11.287,11.287,0,0,1,9.382-4.52,11.16,11.16,0,0,1,9.331,4.558q3.491,4.558,3.491,12.4,0,7.871-3.479,12.429A11.15,11.15,0,0,1,475.448-7.338Zm0-28.539q-2.92,0-4.8,3.123a16.4,16.4,0,0,0-1.879,8.48,16.02,16.02,0,0,0,1.93,8.43q1.93,3.148,4.748,3.148,2.793,0,4.723-3.11a15.982,15.982,0,0,0,1.93-8.468,16.493,16.493,0,0,0-1.866-8.48Q478.368-35.877,475.448-35.877Zm101.6-7.439a163.337,163.337,0,0,1-.736,17.469l-6.094-.3q.33-3.2.482-11.807H545.264v-5.357ZM538.459-17.469v-5.357H555.09V-32.6h6.449v9.775h22.369v5.357ZM577.866,4.418Q566.059,1.5,561.133-4.723A21.266,21.266,0,0,1,554.062.952a30.079,30.079,0,0,1-9.407,3.466L540.643-.736q7.744-.965,12.53-4.278t4.786-7.1v-2.514h6.348v2.463q0,3.58,5.167,7.122A24.017,24.017,0,0,0,581.522-.99Zm53.469.152V-44.408h6.145V4.57ZM617.09-27.244h4.926V-43.418h5.992V3.123h-5.992V-21.836h-4.875q-.432,7.211-3.275,10.854a9.3,9.3,0,0,1-7.744,3.644,9.306,9.306,0,0,1-8.29-4.354q-2.856-4.354-2.856-12.581,0-8.2,2.869-12.581a9.3,9.3,0,0,1,8.277-4.38,9.284,9.284,0,0,1,7.63,3.517Q616.582-34.2,617.09-27.244Zm-10.969-8.582q-5,0-5,11.553,0,11.527,5,11.527,2.387,0,3.682-2.971a22.19,22.19,0,0,0,1.295-8.557,22.507,22.507,0,0,0-1.282-8.557Q608.533-35.826,606.121-35.826Z" transform="translate(152 634.6)"/>
    </g>
  </g>
</svg>
