<svg xmlns="http://www.w3.org/2000/svg" width="75.87" height="65.604" viewBox="0 0 75.87 65.604">
  <g id="产品-社群应用__会议" data-name="产品-社群应用 _会议" transform="translate(-764.75 -255.38)">
    <path id="路径_1828" data-name="路径 1828" d="M773.333,293.911V256.38h63.261v36.8H801.232" transform="translate(-2.016)" fill="none" stroke="#6287de" stroke-miterlimit="10" stroke-width="2"/>
    <line id="直线_60" data-name="直线 60" x2="25.696" transform="translate(801.541 268.123)" fill="none" stroke="#6287de" stroke-miterlimit="10" stroke-width="2"/>
    <line id="直线_61" data-name="直线 61" x2="13.077" transform="translate(801.541 273.385)" fill="none" stroke="#6287de" stroke-miterlimit="10" stroke-width="2"/>
    <path id="路径_1829" data-name="路径 1829" d="M780,301.951V286.625h34.139a2.845,2.845,0,0,1,2.845,2.845h0a2.845,2.845,0,0,1-2.845,2.845h-15.6V302.41" transform="translate(-3.788 -8.04)" fill="none" stroke="#6287de" stroke-miterlimit="10" stroke-width="2"/>
    <ellipse id="椭圆_46" data-name="椭圆 46" cx="5.567" cy="6.057" rx="5.567" ry="6.057" transform="translate(781.106 264.5)" fill="none" stroke="#6287de" stroke-miterlimit="10" stroke-width="2"/>
    <ellipse id="椭圆_47" data-name="椭圆 47" cx="5.567" cy="6.057" rx="5.567" ry="6.057" transform="translate(770.645 298.398)" fill="none" stroke="#6287de" stroke-miterlimit="10" stroke-width="2"/>
    <path id="路径_1830" data-name="路径 1830" d="M765.75,341.584v-2.753a4.956,4.956,0,0,1,4.956-4.956h11.013a4.956,4.956,0,0,1,4.956,4.956v2.753" transform="translate(0 -20.6)" fill="none" stroke="#6287de" stroke-miterlimit="10" stroke-width="2"/>
    <ellipse id="椭圆_48" data-name="椭圆 48" cx="5.567" cy="6.057" rx="5.567" ry="6.057" transform="translate(797.136 298.398)" fill="none" stroke="#6287de" stroke-miterlimit="10" stroke-width="2"/>
    <path id="路径_1831" data-name="路径 1831" d="M801.833,341.584v-2.753a4.956,4.956,0,0,1,4.956-4.956H817.8a4.956,4.956,0,0,1,4.956,4.956v2.753" transform="translate(-9.592 -20.6)" fill="none" stroke="#6287de" stroke-miterlimit="10" stroke-width="2"/>
    <ellipse id="椭圆_49" data-name="椭圆 49" cx="5.567" cy="6.057" rx="5.567" ry="6.057" transform="translate(823.59 298.398)" fill="none" stroke="#6287de" stroke-miterlimit="10" stroke-width="2"/>
    <path id="路径_1832" data-name="路径 1832" d="M837.866,341.584v-2.753a4.956,4.956,0,0,1,4.956-4.956h11.013a4.956,4.956,0,0,1,4.956,4.956v2.753" transform="translate(-19.17 -20.6)" fill="none" stroke="#6287de" stroke-miterlimit="10" stroke-width="2"/>
  </g>
</svg>
