<svg xmlns="http://www.w3.org/2000/svg" width="75.388" height="64.969" viewBox="0 0 75.388 64.969">
  <g id="产品-社群应用__交易" data-name="产品-社群应用 _交易" transform="translate(-279.689 -269.996)">
    <path id="路径_924" data-name="路径 924" d="M302.488,281.011a.549.549,0,0,0,.385-.169,30.992,30.992,0,0,1,43.775-.506l1.3,1.272-5.223.058a.6.6,0,0,0-.407.185.534.534,0,0,0-.148.386.565.565,0,0,0,.567.564l6.605-.08a.56.56,0,0,0,.557-.572l-.08-6.605a.56.56,0,0,0-.567-.552.56.56,0,0,0-.568.572l.058,5.227-1.3-1.268a31.857,31.857,0,0,0-22.417-9.126q-.19,0-.381,0a31.877,31.877,0,0,0-22.586,9.645.568.568,0,0,0,.007.8A.642.642,0,0,0,302.488,281.011Z" transform="translate(-8.111)" fill="#91f0d2" stroke="#91f0d2" stroke-width="0.8"/>
    <path id="路径_925" data-name="路径 925" d="M346.5,354.577a.549.549,0,0,0-.4.168h0a30.739,30.739,0,0,1-21.791,9.325h-.277a30.782,30.782,0,0,1-21.707-8.821l-1.3-1.271,5.224-.058a.56.56,0,0,0,.556-.572.572.572,0,0,0-.556-.563l-6.618.08a.56.56,0,0,0-.556.572l.08,6.6a.562.562,0,0,0,.568.556.555.555,0,0,0,.41-.169.548.548,0,0,0,.159-.4l-.059-5.226,1.3,1.268a31.872,31.872,0,0,0,22.424,9.14h.384a31.846,31.846,0,0,0,22.575-9.662.568.568,0,0,0-.007-.8A.561.561,0,0,0,346.5,354.577Z" transform="translate(-7.06 -30.64)" fill="#91f0d2" stroke="#91f0d2" stroke-width="0.8"/>
    <path id="路径_926" data-name="路径 926" d="M293.765,300.127h1.217a4.511,4.511,0,0,1,4.506,4.506v5.634a1.94,1.94,0,0,1-.885,1.643.557.557,0,0,0-.252.47v5.426a.85.85,0,0,0,.46.741,43.307,43.307,0,0,1,7.9,5.071,2.176,2.176,0,0,1,.782,1.663v3.858a.568.568,0,0,0,1.136,0v-3.858a3.3,3.3,0,0,0-1.2-2.546,45.686,45.686,0,0,0-7.74-5.027l-.214-.11v-4.943l.128-.117a3.1,3.1,0,0,0,1.008-2.286v-5.618a5.648,5.648,0,0,0-5.642-5.642H293.75a5.648,5.648,0,0,0-5.642,5.642v5.634a3.1,3.1,0,0,0,1.008,2.287l.128.116v4.943l-.213.11a45.755,45.755,0,0,0-7.741,5.027,3.3,3.3,0,0,0-1.2,2.546v3.857a.568.568,0,0,0,1.136,0V325.3a2.169,2.169,0,0,1,.781-1.661,44.376,44.376,0,0,1,7.9-5.076.82.82,0,0,0,.455-.737V312.4a.563.563,0,0,0-.252-.47,1.939,1.939,0,0,1-.884-1.643v-5.65A4.548,4.548,0,0,1,293.765,300.127Z" transform="translate(0 -10.634)" fill="#91f0d2" stroke="#91f0d2" stroke-width="0.8"/>
    <path id="路径_927" data-name="路径 927" d="M380.741,322.75A45.724,45.724,0,0,0,373,317.723l-.214-.11V312.67l.128-.116a3.1,3.1,0,0,0,1.008-2.287v-5.634a5.648,5.648,0,0,0-5.642-5.642h-1.217a5.648,5.648,0,0,0-5.642,5.642v5.634a3.1,3.1,0,0,0,1.008,2.287l.128.116v4.943l-.214.11a45.731,45.731,0,0,0-7.741,5.027,3.307,3.307,0,0,0-1.2,2.546v3.857a.568.568,0,0,0,1.136,0V325.3a2.165,2.165,0,0,1,.781-1.661,44.374,44.374,0,0,1,7.9-5.076.819.819,0,0,0,.455-.737V312.4a.565.565,0,0,0-.253-.47,1.939,1.939,0,0,1-.884-1.643v-5.65a4.511,4.511,0,0,1,4.507-4.506h1.216a4.511,4.511,0,0,1,4.506,4.506v5.634a1.939,1.939,0,0,1-.884,1.643.556.556,0,0,0-.251.469v5.426a.85.85,0,0,0,.46.741,43.262,43.262,0,0,1,7.9,5.071,2.172,2.172,0,0,1,.783,1.663v3.858a.613.613,0,0,0,.6.583.568.568,0,0,0,.567-.568V325.3A3.307,3.307,0,0,0,380.741,322.75Z" transform="translate(-27.265 -10.634)" fill="#91f0d2" stroke="#91f0d2" stroke-width="0.8"/>
  </g>
</svg>
