<svg xmlns="http://www.w3.org/2000/svg" width="76.088" height="55.464" viewBox="0 0 76.088 55.464">
  <g id="产品-社群应用__工作台" data-name="产品-社群应用 _工作台" transform="translate(-2077.441 17.475)">
    <g id="组_782" data-name="组 782" transform="translate(2099.97 -14.67)">
      <path id="路径_1913" data-name="路径 1913" d="M2130.422-13.872h1.783l-2.986,3.051h-1.783Z" transform="translate(-2113.739 13.872)" fill="#ff7675"/>
      <path id="路径_1910" data-name="路径 1910" d="M2111.409-13.872h1.783l-2.986,3.051h-1.783Z" transform="translate(-2108.423 13.872)" fill="#ff7675"/>
      <path id="路径_1911" data-name="路径 1911" d="M2117.68-13.872h1.783l-2.987,3.051h-1.783Z" transform="translate(-2110.176 13.872)" fill="#ff7675"/>
      <path id="路径_1912" data-name="路径 1912" d="M2123.95-13.872h1.783l-2.988,3.052h-1.783Z" transform="translate(-2111.929 13.872)" fill="#ff7675"/>
      <path id="路径_1914" data-name="路径 1914" d="M2136.8-13.872h1.783l-2.986,3.051h-1.783Z" transform="translate(-2115.523 13.872)" fill="#ff7675"/>
      <path id="路径_1915" data-name="路径 1915" d="M2143.275-13.872h1.783l-2.989,3.052h-1.783Z" transform="translate(-2117.332 13.872)" fill="#ff7675"/>
      <path id="路径_1916" data-name="路径 1916" d="M2149.747-13.872h1.783l-2.986,3.051h-1.783Z" transform="translate(-2119.142 13.872)" fill="#ff7675"/>
    </g>
    <g id="组_780" data-name="组 780" transform="translate(2082.874 -5.732)">
      <path id="矩形_55" data-name="矩形 55" d="M2085.337-1.466H2122.5a.645.645,0,0,1,.645.645h0a.645.645,0,0,1-.645.645h-37.158a.645.645,0,0,1-.645-.645h0A.645.645,0,0,1,2085.337-1.466Z" transform="translate(-2084.692 1.466)" fill="#ff7675"/>
      <path id="矩形_56" data-name="矩形 56" d="M2085.337,4.618h30.293a.645.645,0,0,1,.645.645h0a.645.645,0,0,1-.645.645h-30.293a.645.645,0,0,1-.645-.645h0A.645.645,0,0,1,2085.337,4.618Z" transform="translate(-2084.692 -0.235)" fill="#ff7675"/>
      <path id="矩形_57" data-name="矩形 57" d="M2085.337,10.821h42.487a.645.645,0,0,1,.645.645h0a.645.645,0,0,1-.645.645h-42.487a.645.645,0,0,1-.645-.645h0A.645.645,0,0,1,2085.337,10.821Z" transform="translate(-2084.692 -1.969)" fill="#ff7675"/>
      <path id="矩形_58" data-name="矩形 58" d="M2085.337,16.905h59.933a.645.645,0,0,1,.645.645h0a.645.645,0,0,1-.645.645h-59.933a.645.645,0,0,1-.645-.645h0A.645.645,0,0,1,2085.337,16.905Z" transform="translate(-2084.692 -3.67)" fill="#ff7675"/>
      <path id="矩形_59" data-name="矩形 59" d="M2085.337,23.255h31.325a.645.645,0,0,1,.645.645h0a.645.645,0,0,1-.645.645h-31.325a.645.645,0,0,1-.645-.645h0A.645.645,0,0,1,2085.337,23.255Z" transform="translate(-2084.692 -5.446)" fill="#ff7675"/>
    </g>
    <path id="路径_1905" data-name="路径 1905" d="M2147.62,39.871h-60.835l-8.594-8.422V-7.31h69.429Z" transform="translate(0 -2.632)" fill="none" stroke="#ff7675" stroke-linecap="round" stroke-miterlimit="10" stroke-width="1.5"/>
    <path id="路径_1906" data-name="路径 1906" d="M2101.084-10.183l5.937-6.542h52.158V16.892l-5.157,5.393" transform="translate(-6.401)" fill="none" stroke="#ff7675" stroke-linecap="round" stroke-miterlimit="10" stroke-width="1.5"/>
    <g id="组_21382" data-name="组 21382" transform="translate(2082.874 17.537)">
      <path id="路径_1918" data-name="路径 1918" d="M2084.692,32v9.475l5.8,5.995h56.152" transform="translate(-2084.692 -31.158)" fill="none" stroke="#ff7675" stroke-linecap="round" stroke-miterlimit="10" stroke-width="1"/>
      <g id="组_21381" data-name="组 21381" transform="translate(6.346 1.156)">
        <path id="路径_1919" data-name="路径 1919" d="M2093.5,39.963s.71.88,2.161-2.815,2.992-7.734,5.169-1.375,3.762,4.3,4.874,1.375" transform="translate(-2093.5 -32.438)" fill="none" stroke="#ff7675" stroke-linecap="round" stroke-miterlimit="10" stroke-width="1"/>
        <path id="路径_1919-2" data-name="路径 1919" d="M2107.218,39.963s.71.88,2.161-2.815,2.992-7.734,5.168-1.375,3.762,4.3,4.873,1.375" transform="translate(-2097.335 -32.438)" fill="none" stroke="#ff7675" stroke-linecap="round" stroke-miterlimit="10" stroke-width="1"/>
        <path id="路径_1919-3" data-name="路径 1919" d="M2121.142,39.963s.71.88,2.161-2.815,2.992-7.734,5.168-1.375,3.763,4.3,4.874,1.375" transform="translate(-2101.229 -32.438)" fill="none" stroke="#ff7675" stroke-linecap="round" stroke-miterlimit="10" stroke-width="1"/>
        <path id="路径_1919-4" data-name="路径 1919" d="M2135,39.963s.711.88,2.161-2.815,2.993-7.734,5.168-1.375,3.763,4.3,4.874,1.375" transform="translate(-2105.102 -32.438)" fill="none" stroke="#ff7675" stroke-linecap="round" stroke-miterlimit="10" stroke-width="1"/>
        <path id="路径_1919-5" data-name="路径 1919" d="M2148.936,39.963s.711.88,2.161-2.815,2.993-7.734,5.168-1.375,3.763,4.3,4.874,1.375" transform="translate(-2108.999 -32.438)" fill="none" stroke="#ff7675" stroke-linecap="round" stroke-miterlimit="10" stroke-width="1"/>
      </g>
      <line id="直线_80" data-name="直线 80" y2="11.491" transform="translate(6.233)" fill="none" stroke="#ff7675" stroke-linecap="round" stroke-miterlimit="10" stroke-width="1"/>
      <line id="直线_81" data-name="直线 81" y2="11.491" transform="translate(58.576)" fill="none" stroke="#ff7675" stroke-linecap="round" stroke-miterlimit="10" stroke-width="1"/>
    </g>
  </g>
</svg>
