<svg xmlns="http://www.w3.org/2000/svg" width="35.516" height="45.091" viewBox="0 0 35.516 45.091">
  <g id="私人领域" transform="translate(-1036 -2289)">
    <g id="私人领域-2" data-name="私人领域" transform="translate(1029.316 2269.129)">
      <path id="路径_30006" data-name="路径 30006" d="M71.3,48.883h4.215v4.758a4.183,4.183,0,0,0,4.306,4.181c.189-.006,1.869-.016,4.731-.028a1.75,1.75,0,0,1,1.695,1.265v5.33a.573.573,0,0,0,.573.573h14.492a.573.573,0,0,0,.572-.607,133.219,133.219,0,0,1,0-15.707,33.541,33.541,0,0,1,1.858-5.92,15.646,15.646,0,0,0-.37-15.162A15.343,15.343,0,0,0,90.61,19.882q-.216-.008-.433-.01A16.813,16.813,0,0,0,73.2,35.759c-.017.282-.024,2.7-.026,3.3l-3.079,8.066a1.295,1.295,0,0,0,1.21,1.757Zm-.139-1.348,3.117-8.164a.574.574,0,0,0,.038-.2c0-1.183.012-3.136.024-3.343A15.667,15.667,0,0,1,90.164,21.018q.2,0,.4.01a13.984,13.984,0,0,1,6.993,2.118,14.593,14.593,0,0,1,5.152,19.079c-.009.016-.016.033-.023.05a34.229,34.229,0,0,0-1.947,6.269,128.253,128.253,0,0,0-.034,15.274H87.4V58.984a.575.575,0,0,0-.017-.14,2.9,2.9,0,0,0-2.816-2.2h-.012c-2.955.012-4.558.022-4.762.029a3.037,3.037,0,0,1-3.125-3.036V48.31a.573.573,0,0,0-.573-.573H71.3a.149.149,0,0,1-.139-.2Z" transform="translate(-63.322)" fill="#6287de"/>
      <path id="路径_30007" data-name="路径 30007" d="M180.466,71.808a11.01,11.01,0,1,0-11.01-11.01A11.01,11.01,0,0,0,180.466,71.808Zm0-20.874A9.864,9.864,0,1,1,170.6,60.8,9.864,9.864,0,0,1,180.466,50.934Z" transform="translate(-153.276 -27.06)" fill="#6287de"/>
      <path id="路径_30008" data-name="路径 30008" d="M210.726,103.291v6.367a.573.573,0,0,0,.573.573h9.452a.573.573,0,0,0,.573-.573v-6.367h1.384a.573.573,0,0,0,.337-1.036l-1.222-.889v-1.189a.573.573,0,1,0-1.146,0v.355l-4.316-3.142a.573.573,0,0,0-.674,0L209,102.255a.573.573,0,0,0,.337,1.036Zm5.3-4.73,4.924,3.584h-.2a.573.573,0,0,0-.573.573v6.367h-8.307v-6.367a.573.573,0,0,0-.573-.573h-.2Z" transform="translate(-188.835 -70.017)" fill="#6287de"/>
    </g>
  </g>
</svg>
