<svg xmlns="http://www.w3.org/2000/svg" width="38.964" height="42.558" viewBox="0 0 38.964 42.558">
  <g id="秘密群聊" transform="translate(-642.66 -280.495)">
    <path id="路径_785" data-name="路径 785" d="M675.665,366.534h-5.031a5.77,5.77,0,0,0-4.689,2.418l-.1.146-.176-.031a5.087,5.087,0,0,0-.992-.086h-5.038a5.771,5.771,0,0,0-.993.086l-.176.031-.1-.146a5.866,5.866,0,0,0-1.862-1.674,5.738,5.738,0,0,0-2.824-.744h-5.037a5.8,5.8,0,0,0-5.776,5.777v3.417a.366.366,0,0,0,.365.361h10.613v2.081a.366.366,0,0,0,.366.365h15.877a.366.366,0,0,0,.366-.365v-2.081h10.612a.366.366,0,0,0,.365-.366V372.31A5.8,5.8,0,0,0,675.665,366.534Zm-21.759,7.654v1.169H643.591V372.31a5.07,5.07,0,0,1,5.044-5.045h5.034a5.014,5.014,0,0,1,2.466.648A5.106,5.106,0,0,1,657.472,369l.256.294-.358.156A5.254,5.254,0,0,0,653.906,374.188Zm.682,3.62v-.041s.009-1.947.009-3.414c0-1.742,1.4-4.666,5.352-4.666h4.722a4.834,4.834,0,0,1,5.041,4.607v3.514Zm26.124-2.447H670.442v-1.423a5.463,5.463,0,0,0-3.226-4.456l-.468-.187a7.684,7.684,0,0,1,.959-1.076l.454-.305a5.01,5.01,0,0,1,2.464-.649h5.042a5.07,5.07,0,0,1,5.045,5.044Z" transform="translate(0 -55.683)" fill="#6287de" stroke="#6287de" stroke-width="0.4"/>
    <path id="路径_786" data-name="路径 786" d="M658.506,345.9h0a4.3,4.3,0,1,0-3.043-1.262A4.271,4.271,0,0,0,658.51,345.9Zm-2.515-6.825a3.567,3.567,0,1,1-1.045,2.523A3.572,3.572,0,0,1,655.991,339.077Z" transform="translate(-7.363 -36.721)" fill="#6287de" stroke="#6287de" stroke-width="0.4"/>
    <path id="路径_787" data-name="路径 787" d="M670.6,295.341l.129.1-.541,3.6a.362.362,0,0,0,.3.412.355.355,0,0,0,.237-.045l3.618-2.11.119.035a12.618,12.618,0,0,0,1.659.373,13.221,13.221,0,0,0,2.01.154,12.04,12.04,0,0,0,7.5-2.492,7.476,7.476,0,0,0-.007-12.184,12.067,12.067,0,0,0-7.489-2.489h-.162a12.1,12.1,0,0,0-7.337,2.493,7.788,7.788,0,0,0-3.144,6.091,7.2,7.2,0,0,0,.894,3.454A8.739,8.739,0,0,0,670.6,295.341Zm.479-11.593h0a11.376,11.376,0,0,1,6.862-2.309l.182,0,.2,0a11.326,11.326,0,0,1,6.83,2.3,6.779,6.779,0,0,1,.019,11.069,11.38,11.38,0,0,1-6.868,2.309h-.2a12.477,12.477,0,0,1-1.874-.142,11.8,11.8,0,0,1-1.839-.428.362.362,0,0,0-.29.033l-3.08,1.817.462-3.063a.364.364,0,0,0-.149-.35,8.229,8.229,0,0,1-2.328-2.606,6.481,6.481,0,0,1-.8-3.1A7.085,7.085,0,0,1,671.075,283.749Z" transform="translate(-15.976 0)" fill="#6287de" stroke="#6287de" stroke-width="0.4"/>
    <path id="路径_788" data-name="路径 788" d="M718.109,338.473a4.3,4.3,0,1,0,3.041-1.256l0-.041v.041A4.272,4.272,0,0,0,718.109,338.473Zm5.56.518a3.568,3.568,0,1,1-5.045,0A3.572,3.572,0,0,1,723.668,338.991Z" transform="translate(-47.994 -36.638)" fill="#6287de" stroke="#6287de" stroke-width="0.4"/>
    <path id="路径_789" data-name="路径 789" d="M686.817,351.594a4.295,4.295,0,1,0,3.032-7.336,4.313,4.313,0,0,0-3.042,1.263h0a4.295,4.295,0,0,0,.01,6.074Zm.508-5.557a3.544,3.544,0,0,1,2.522-1.044h0a3.544,3.544,0,0,1,2.523,1.045,3.568,3.568,0,0,1-2.523,6.09,3.567,3.567,0,0,1-2.522-6.091Z" transform="translate(-27.695 -41.232)" fill="#6287de" stroke="#6287de" stroke-width="0.4"/>
    <path id="路径_945" data-name="路径 945" d="M372.018,241.554h-.277v-1.107a2.214,2.214,0,1,0-4.429,0v1.107h-.277a.831.831,0,0,0-.83.831v3.34a.831.831,0,0,0,.83.83h4.982a.831.831,0,0,0,.83-.83v-3.34A.831.831,0,0,0,372.018,241.554Zm-4.152-1.107a1.661,1.661,0,1,1,3.321,0v1.107h-3.321Zm4.429,5.278a.277.277,0,0,1-.277.277h-4.982a.277.277,0,0,1-.277-.277v-3.34a.277.277,0,0,1,.277-.277h4.982a.277.277,0,0,1,.277.277Z" transform="translate(292.463 46.787)" fill="#6287de" stroke="#6287de" stroke-width="0.4"/>
  </g>
</svg>
