<svg xmlns="http://www.w3.org/2000/svg" width="47.663" height="38.019" viewBox="0 0 47.663 38.019">
  <g id="加密聊天" transform="translate(-771.465 -307.95)">
    <path id="路径_791" data-name="路径 791" d="M787.507,330.929s-2.055,0-2.16,0a.426.426,0,0,0-.252.125L777.4,338.75v-1.713c0-1.882,0-5.626-.005-5.754a.44.44,0,0,0-.434-.354H773.7a1.156,1.156,0,0,1-1.155-1.154V310.181a1.156,1.156,0,0,1,1.155-1.154h32.658a1.156,1.156,0,0,1,1.155,1.154V317.7a.438.438,0,0,0,.877,0v-7.517a2.034,2.034,0,0,0-2.031-2.031H773.7a2.034,2.034,0,0,0-2.032,2.031v19.593a2.034,2.034,0,0,0,2.032,2.031h2.828v8a.437.437,0,0,0,.271.405.449.449,0,0,0,.477-.1l8.314-8.314h1.92a.439.439,0,1,0,0-.877Z" transform="translate(0)" fill="#91f0d2" stroke="#91f0d2" stroke-width="0.4"/>
    <path id="路径_792" data-name="路径 792" d="M846.7,342.775h-22.86a2.033,2.033,0,0,0-2.031,2.031v13.366a2.033,2.033,0,0,0,2.031,2.031h14.605l6.006,6.006a.443.443,0,0,0,.479.095.437.437,0,0,0,.27-.4v-5.7h1.5a2.034,2.034,0,0,0,2.031-2.031V344.806A2.034,2.034,0,0,0,846.7,342.775Zm1.155,15.4a1.156,1.156,0,0,1-1.155,1.154h-1.937a.44.44,0,0,0-.436.4c0,.056,0,2.067,0,3.4v1.712l-5.421-5.418a.431.431,0,0,0-.273-.1H823.835a1.156,1.156,0,0,1-1.155-1.154V344.806a1.155,1.155,0,0,1,1.155-1.154H846.7a1.156,1.156,0,0,1,1.155,1.154Z" transform="translate(-29.798 -20.578)" fill="#91f0d2" stroke="#91f0d2" stroke-width="0.4"/>
    <path id="路径_793" data-name="路径 793" d="M790.08,327.3a.439.439,0,0,0,.438.439h20.9a.438.438,0,0,0,0-.877h-20.9A.439.439,0,0,0,790.08,327.3Z" transform="translate(-10.944 -11.123)" fill="#91f0d2" stroke="#91f0d2" stroke-width="0.4"/>
    <path id="路径_794" data-name="路径 794" d="M798.451,345.582h-7.933a.438.438,0,1,0,0,.877h7.933a.438.438,0,1,0,0-.877Z" transform="translate(-10.944 -22.246)" fill="#91f0d2" stroke="#91f0d2" stroke-width="0.4"/>
    <path id="路径_942" data-name="路径 942" d="M372.719,241.954h-.31v-1.241a2.482,2.482,0,0,0-4.963,0v1.241h-.31a.932.932,0,0,0-.931.931v3.743a.931.931,0,0,0,.931.93h5.583a.931.931,0,0,0,.93-.93v-3.743A.932.932,0,0,0,372.719,241.954Zm-4.653-1.241a1.861,1.861,0,0,1,3.722,0v1.241h-3.722Zm4.963,5.915a.31.31,0,0,1-.31.31h-5.583a.31.31,0,0,1-.31-.31v-3.743a.311.311,0,0,1,.31-.31h5.583a.311.311,0,0,1,.31.31Z" transform="translate(435.304 87.754)" fill="#91f0d2" stroke="#91f0d2" stroke-width="0.4"/>
  </g>
</svg>
