<svg xmlns="http://www.w3.org/2000/svg" width="42.389" height="39.549" viewBox="0 0 42.389 39.549">
  <g id="加密分享" transform="translate(-50 -63.8)">
    <path id="路径_30024" data-name="路径 30024" d="M54.733,95.478H64.7l4.418,7.312.008.012a1.181,1.181,0,0,0,1.993,0l.008-.012,4.418-7.312h12.11a4.738,4.738,0,0,0,4.733-4.733V68.533A4.738,4.738,0,0,0,87.656,63.8H54.733A4.738,4.738,0,0,0,50,68.533V90.745a4.738,4.738,0,0,0,4.733,4.733Zm-3.5-26.945a3.5,3.5,0,0,1,3.5-3.5H87.656a3.5,3.5,0,0,1,3.5,3.5V90.745a3.5,3.5,0,0,1-3.5,3.5H75.2a.617.617,0,0,0-.528.3l-4.546,7.523-4.545-7.523a.617.617,0,0,0-.528-.3H54.733a3.5,3.5,0,0,1-3.5-3.5Z" fill="#6287de"/>
    <path id="路径_30026" data-name="路径 30026" d="M153.683,128.526A2.757,2.757,0,1,0,151,130.671,2.762,2.762,0,0,0,153.683,128.526Zm-1.675,1.006a1.916,1.916,0,1,1-2.035-3.246h0a1.9,1.9,0,0,1,1.014-.293,1.916,1.916,0,0,1,1.021,3.54Z" transform="translate(-84.999 -45.798)" fill="#6287de" stroke="#2d3436" stroke-width="0.1"/>
    <path id="路径_30027" data-name="路径 30027" d="M111.421,25.758a6.717,6.717,0,0,0,6.484-8.4l2.713-1.7,1.7.135a.423.423,0,0,0,.4-.208l.855-1.462,1.407,0h0a.423.423,0,0,0,.363-.206l.86-1.441,1.333.041a.425.425,0,0,0,.426-.333l.519-2.393A.423.423,0,0,0,128.2,9.3l-.02-.007-.047-.013-2.925-.656a.423.423,0,0,0-.317.054l-8.826,5.532a6.712,6.712,0,1,0-6.159,11.376A5.672,5.672,0,0,0,111.421,25.758ZM125.194,9.487l2.366.531-.356,1.641-1.23-.038h-.013a.423.423,0,0,0-.363.206l-.864,1.447-1.409,0h0a.423.423,0,0,0-.365.21l-.843,1.443-1.57-.125a.421.421,0,0,0-.258.063l-2.655,1.664a6.725,6.725,0,0,0-.986-1.682ZM106.438,22.158a5.866,5.866,0,0,1,9.16-7.22.808.808,0,0,0,.182.195,5.865,5.865,0,1,1-9.342,7.025Z" transform="translate(-44.537 62.516)" fill="#6287de" stroke="#2d3436" stroke-width="0.1"/>
  </g>
</svg>
