<svg xmlns="http://www.w3.org/2000/svg" xmlns:xlink="http://www.w3.org/1999/xlink" width="1820" height="880" viewBox="0 0 1820 880">
  <defs>
    <clipPath id="clip-path">
      <rect id="矩形_2284" data-name="矩形 2284" width="1820" height="880" transform="translate(50 89)" fill="#fff"/>
    </clipPath>
  </defs>
  <g id="banner" transform="translate(-50 -89)">
    <g id="组_21710" data-name="组 21710" transform="translate(120 -23)">
      <path id="路径_40963" data-name="路径 40963" d="M3.047,0V-6.525a6.977,6.977,0,0,1,.33-2.146,6.382,6.382,0,0,1,.978-1.892,6.281,6.281,0,0,1,1.625-1.5,7.548,7.548,0,0,1,2.3-.965H2.361v-3.834a10.863,10.863,0,0,1,1.295-4.012,10.016,10.016,0,0,1,2.7-3.085,12.506,12.506,0,0,1,4.024-1.98,18.335,18.335,0,0,1,5.256-.7,20.351,20.351,0,0,1,6.056.8,11.855,11.855,0,0,1,4.215,2.222,8.782,8.782,0,0,1,2.463,3.364,11,11,0,0,1,.8,4.228V0H22.852V-15.564a6.729,6.729,0,0,0-.457-2.564A5.115,5.115,0,0,0,21.1-20.008a5.627,5.627,0,0,0-2.12-1.168,11.319,11.319,0,0,0-3.339-.406A11.1,11.1,0,0,0,12.4-21.2a5.741,5.741,0,0,0-1.968,1.016,5.006,5.006,0,0,0-1.206,1.447,4.719,4.719,0,0,0-.546,1.8h5.053v3.91a12.812,12.812,0,0,0-1.447.533,4.368,4.368,0,0,0-1.409,1A5.21,5.21,0,0,0,9.813-9.737a7.786,7.786,0,0,0-.419,2.78V0Zm52.63,0V-15.437a5.986,5.986,0,0,0-1.65-4.545q-1.65-1.574-5.205-1.574a16.482,16.482,0,0,0-2.729.241,21.333,21.333,0,0,0-2.818.673,19.981,19.981,0,0,0-2.615,1.016,13.66,13.66,0,0,0-2.146,1.244v-5.84a8.788,8.788,0,0,1,2.044-1.092,16.816,16.816,0,0,1,2.539-.749,24.449,24.449,0,0,1,2.831-.432q1.473-.14,2.895-.14,6.7,0,9.94,2.717T62-16.021V0ZM86.75-10.512a3.972,3.972,0,0,0-.254-1.46,2.754,2.754,0,0,0-.9-1.155,4.54,4.54,0,0,0-1.739-.774,17.709,17.709,0,0,0-3.707-.267q-2.209,0-4.139.14t-4.062.5v-3.656a13.309,13.309,0,0,1,.521-4.075,7.115,7.115,0,0,1,1.727-2.958,7.452,7.452,0,0,1,3.047-1.8,14.524,14.524,0,0,1,4.481-.609q.838,0,1.993.076t2.4.152l2.463.152q1.219.076,2.158.076,1.676,0,3.085-.063a21.4,21.4,0,0,0,2.222-.19v4.443a19.6,19.6,0,0,1-2.133.165q-1.244.038-3,.038-.914,0-2.234-.076l-2.653-.152q-1.333-.076-2.488-.152t-1.79-.076A7.263,7.263,0,0,0,79.412-22a2.46,2.46,0,0,0-.952.673,2.655,2.655,0,0,0-.533,1.016,8.819,8.819,0,0,0-.165,2.082q.736-.1,1.739-.178t2.882-.076a25.864,25.864,0,0,1,4.85.394,8.4,8.4,0,0,1,3.326,1.32,5.385,5.385,0,0,1,1.9,2.5,10.984,10.984,0,0,1,.609,3.936v4.875a5.925,5.925,0,0,1-1.5,4.354A5.232,5.232,0,0,1,87.689.406,7.182,7.182,0,0,1,85.544.1a4.715,4.715,0,0,1-1.688-.914,4.015,4.015,0,0,1-1.092-1.511,5.277,5.277,0,0,1-.381-2.069,4.922,4.922,0,0,1,.343-1.879,4.453,4.453,0,0,1,.939-1.447,4.526,4.526,0,0,1,1.384-.965,5.137,5.137,0,0,1,1.7-.432Zm2.387,6.119a1.885,1.885,0,0,0-.571-1.384,1.885,1.885,0,0,0-1.384-.571,1.885,1.885,0,0,0-1.384.571,1.885,1.885,0,0,0-.571,1.384A1.885,1.885,0,0,0,85.8-3.009a1.885,1.885,0,0,0,1.384.571,1.885,1.885,0,0,0,1.384-.571A1.885,1.885,0,0,0,89.136-4.393Zm23.227-21.887V-9.268l.2.025a4.779,4.779,0,0,1,1.638.482,4.564,4.564,0,0,1,1.308.99,4.509,4.509,0,0,1,.876,1.422,4.916,4.916,0,0,1,.317,1.8,5.277,5.277,0,0,1-.381,2.069,4.015,4.015,0,0,1-1.092,1.511,4.729,4.729,0,0,1-1.676.914,7.149,7.149,0,0,1-2.158.3,5.454,5.454,0,0,1-3.809-1.435,5.71,5.71,0,0,1-1.574-4.431V-26.279ZM109.952-4.545a1.885,1.885,0,0,0,.571,1.384,1.885,1.885,0,0,0,1.384.571,1.885,1.885,0,0,0,1.384-.571,1.885,1.885,0,0,0,.571-1.384,1.885,1.885,0,0,0-.571-1.384,1.885,1.885,0,0,0-1.384-.571,1.885,1.885,0,0,0-1.384.571A1.885,1.885,0,0,0,109.952-4.545ZM130.107-20.16a5.121,5.121,0,0,1,1.942.355,4.605,4.605,0,0,1,1.511.978,4.342,4.342,0,0,1,.99,1.511,5.218,5.218,0,0,1,.355,1.955,5.218,5.218,0,0,1-.355,1.955,4.342,4.342,0,0,1-.99,1.511,4.605,4.605,0,0,1-1.511.978,5.121,5.121,0,0,1-1.942.355,5.473,5.473,0,0,1-2.4-.5,4.949,4.949,0,0,1-1.739-1.384,6.014,6.014,0,0,1-1.066-2.133,9.96,9.96,0,0,1-.355-2.742,9.453,9.453,0,0,1,.736-3.771,7.937,7.937,0,0,1,2.184-2.945,10.314,10.314,0,0,1,3.593-1.917,16.419,16.419,0,0,1,4.989-.686,14.889,14.889,0,0,1,4.545.635,10.959,10.959,0,0,1,3.466,1.8,7.762,7.762,0,0,1,2.272,2.856,8.817,8.817,0,0,1,.787,3.771,12.312,12.312,0,0,0-2.133,1.473,6.12,6.12,0,0,0-1.384,1.752,7.8,7.8,0,0,0-.749,2.272,17.355,17.355,0,0,0-.229,3.009v4.012h5.18a3.789,3.789,0,0,0,2.564-.812,3.114,3.114,0,0,0,.939-2.488v-17.9h6.322V-7.287a8.67,8.67,0,0,1-.482,2.945,6.238,6.238,0,0,1-1.435,2.311,6.488,6.488,0,0,1-2.361,1.5A9.11,9.11,0,0,1,150.114,0H136.3V-8.658a22.743,22.743,0,0,1,.229-3.542,7.767,7.767,0,0,1,.736-2.374,5.626,5.626,0,0,1,1.32-1.663,14.251,14.251,0,0,1,1.955-1.384,5.98,5.98,0,0,0-.279-1.8,3.849,3.849,0,0,0-.9-1.536,4.719,4.719,0,0,0-1.65-1.066,7.115,7.115,0,0,0-2.653-.419,8.63,8.63,0,0,0-3.44.66,4.365,4.365,0,0,0-2.146,1.7,1.051,1.051,0,0,1,.317-.063Q129.98-20.16,130.107-20.16Zm-1.955,4.8a1.885,1.885,0,0,0,.571,1.384,1.885,1.885,0,0,0,1.384.571,1.885,1.885,0,0,0,1.384-.571,1.885,1.885,0,0,0,.571-1.384,1.885,1.885,0,0,0-.571-1.384,1.885,1.885,0,0,0-1.384-.571,1.885,1.885,0,0,0-1.384.571A1.885,1.885,0,0,0,128.152-15.361Zm24.192-18.586A3.77,3.77,0,0,1,152-33.4a2.409,2.409,0,0,1-.559.533,3.313,3.313,0,0,1-.812.406,3.248,3.248,0,0,1-1.079.165,3.2,3.2,0,0,1-1.257-.241,2.978,2.978,0,0,1-.99-.673,3.19,3.19,0,0,1-.66-1.016,3.293,3.293,0,0,1-.241-1.27,2.811,2.811,0,0,1,1.066-2.209,4.678,4.678,0,0,1,3.123-.914,6.635,6.635,0,0,1,2.057.3,4.956,4.956,0,0,1,1.612.851,3.729,3.729,0,0,1,1.041,1.333,4.085,4.085,0,0,1,.368,1.752,4.487,4.487,0,0,1-2.26,4.012,6.729,6.729,0,0,0,3.428-.749,5.119,5.119,0,0,0,1.93-1.942,7.59,7.59,0,0,0,.863-2.653,24.152,24.152,0,0,0,.229-2.907H164q-.127,1.727-.343,3.174a11.8,11.8,0,0,1-.673,2.6,6.977,6.977,0,0,1-1.219,2.031,6.1,6.1,0,0,1-1.955,1.46,10.731,10.731,0,0,1-2.907.876,24.626,24.626,0,0,1-4.075.292h-3.2v-2.234a4.028,4.028,0,0,0,1.942-1.27A3.376,3.376,0,0,0,152.344-33.947Zm-3.961-1.523a1.368,1.368,0,0,0,.419,1,1.368,1.368,0,0,0,1,.419,1.368,1.368,0,0,0,1-.419,1.368,1.368,0,0,0,.419-1,1.368,1.368,0,0,0-.419-1,1.368,1.368,0,0,0-1-.419,1.368,1.368,0,0,0-1,.419A1.368,1.368,0,0,0,148.383-35.471ZM184.463,0V-15.437a5.986,5.986,0,0,0-1.65-4.545q-1.65-1.574-5.205-1.574a16.482,16.482,0,0,0-2.729.241,21.333,21.333,0,0,0-2.818.673,19.981,19.981,0,0,0-2.615,1.016,13.66,13.66,0,0,0-2.146,1.244v-5.84a8.788,8.788,0,0,1,2.044-1.092,16.816,16.816,0,0,1,2.539-.749,24.449,24.449,0,0,1,2.831-.432q1.473-.14,2.895-.14,6.7,0,9.94,2.717t3.237,7.9V0Zm31.073-10.512a3.972,3.972,0,0,0-.254-1.46,2.754,2.754,0,0,0-.9-1.155,4.54,4.54,0,0,0-1.739-.774,17.709,17.709,0,0,0-3.707-.267q-2.209,0-4.139.14t-4.062.5v-3.656a13.309,13.309,0,0,1,.521-4.075,7.115,7.115,0,0,1,1.727-2.958,7.452,7.452,0,0,1,3.047-1.8,14.524,14.524,0,0,1,4.481-.609q.838,0,1.993.076t2.4.152l2.463.152q1.219.076,2.158.076,1.676,0,3.085-.063a21.4,21.4,0,0,0,2.222-.19v4.443a19.6,19.6,0,0,1-2.133.165q-1.244.038-3,.038-.914,0-2.234-.076l-2.653-.152q-1.333-.076-2.488-.152t-1.79-.076A7.263,7.263,0,0,0,208.2-22a2.46,2.46,0,0,0-.952.673,2.655,2.655,0,0,0-.533,1.016,8.819,8.819,0,0,0-.165,2.082q.736-.1,1.739-.178t2.882-.076a25.864,25.864,0,0,1,4.85.394,8.4,8.4,0,0,1,3.326,1.32,5.385,5.385,0,0,1,1.9,2.5,10.984,10.984,0,0,1,.609,3.936v4.875a5.925,5.925,0,0,1-1.5,4.354A5.232,5.232,0,0,1,216.475.406,7.182,7.182,0,0,1,214.33.1a4.715,4.715,0,0,1-1.688-.914,4.015,4.015,0,0,1-1.092-1.511,5.277,5.277,0,0,1-.381-2.069,4.922,4.922,0,0,1,.343-1.879,4.453,4.453,0,0,1,.939-1.447,4.526,4.526,0,0,1,1.384-.965,5.137,5.137,0,0,1,1.7-.432Zm2.387,6.119a1.885,1.885,0,0,0-.571-1.384,1.885,1.885,0,0,0-1.384-.571,1.885,1.885,0,0,0-1.384.571,1.885,1.885,0,0,0-.571,1.384,1.885,1.885,0,0,0,.571,1.384,1.885,1.885,0,0,0,1.384.571,1.885,1.885,0,0,0,1.384-.571A1.885,1.885,0,0,0,217.923-4.393Zm39.757-17.7a1.715,1.715,0,0,0-.152-.749,1.627,1.627,0,0,0-.381-.521,1.4,1.4,0,0,0-.508-.292,1.833,1.833,0,0,0-.559-.089,1.88,1.88,0,0,0-1.1.368,1.318,1.318,0,0,0-.521,1.155,2,2,0,0,0,.533,1.346,3.357,3.357,0,0,0,1.168.889,5.71,5.71,0,0,0,.521-.355,3.231,3.231,0,0,0,.5-.47,2.343,2.343,0,0,0,.368-.584A1.715,1.715,0,0,0,257.679-22.09ZM236.478,0V-17.113l-.2-.025a4.88,4.88,0,0,1-1.625-.482,4.508,4.508,0,0,1-1.32-.99,4.509,4.509,0,0,1-.876-1.422,4.916,4.916,0,0,1-.317-1.8,5.254,5.254,0,0,1,.381-2.082,4.038,4.038,0,0,1,1.092-1.5,4.715,4.715,0,0,1,1.688-.914,7.182,7.182,0,0,1,2.146-.3,5.454,5.454,0,0,1,3.809,1.435,5.71,5.71,0,0,1,1.574,4.431V-8.734q1.27-1.422,2.691-2.793t2.577-2.349q1.155-.978,2.4-1.93t2.666-1.968q-.381-.355-.825-.838a8.1,8.1,0,0,1-.825-1.066,6,6,0,0,1-.622-1.257,4.219,4.219,0,0,1-.241-1.435,3.713,3.713,0,0,1,1.511-3.11,6.281,6.281,0,0,1,3.923-1.155,10.566,10.566,0,0,1,2.564.292,6.736,6.736,0,0,1,2.019.838,4.006,4.006,0,0,1,1.32,1.346,3.567,3.567,0,0,1,.47,1.841,3.953,3.953,0,0,1-.2,1.282,5.216,5.216,0,0,1-.533,1.117,5.9,5.9,0,0,1-.749.952,11.313,11.313,0,0,1-.876.813A5.042,5.042,0,0,1,261.551-17a5.452,5.452,0,0,1,.9,1.485,7.6,7.6,0,0,1,.47,1.765,13.729,13.729,0,0,1,.14,1.993V0H256.74V-11.6a16.18,16.18,0,0,0-.114-2.082,3.061,3.061,0,0,0-.825-1.65q-.939.66-2.285,1.79t-2.628,2.285q-1.282,1.155-2.552,2.438a40.368,40.368,0,0,0-2.755,3.136,19.4,19.4,0,0,0-2.12,3.1,5.05,5.05,0,0,0-.635,2.26V0Zm2.412-21.836a1.885,1.885,0,0,0-.571-1.384,1.885,1.885,0,0,0-1.384-.571,1.885,1.885,0,0,0-1.384.571,1.885,1.885,0,0,0-.571,1.384,1.885,1.885,0,0,0,.571,1.384,1.885,1.885,0,0,0,1.384.571,1.885,1.885,0,0,0,1.384-.571A1.885,1.885,0,0,0,238.89-21.836Zm18.5-11.1a1.885,1.885,0,0,0-.571-1.384,1.885,1.885,0,0,0-1.384-.571,1.885,1.885,0,0,0-1.384.571,1.885,1.885,0,0,0-.571,1.384,1.885,1.885,0,0,0,.571,1.384,1.885,1.885,0,0,0,1.384.571,1.885,1.885,0,0,0,1.384-.571A1.885,1.885,0,0,0,257.391-32.932Zm2.564,1.447a12.338,12.338,0,0,0,2.234-1.181,15.4,15.4,0,0,0,2.095-1.676,19.41,19.41,0,0,0,1.892-2.082,26.607,26.607,0,0,0,1.65-2.349v5.23a12.572,12.572,0,0,1-1.866,2.019,15.883,15.883,0,0,1-2.628,1.879,16.364,16.364,0,0,1-3.161,1.4,11.2,11.2,0,0,1-3.466.546,8.188,8.188,0,0,1-2.666-.394,5.467,5.467,0,0,1-1.9-1.079,4.393,4.393,0,0,1-1.143-1.612,5.192,5.192,0,0,1-.381-1.993,4.874,4.874,0,0,1,.381-1.917,5.12,5.12,0,0,1,1.028-1.574,4.85,4.85,0,0,1,1.523-1.066,4.5,4.5,0,0,1,1.866-.394,4.72,4.72,0,0,1,1.879.381,4.847,4.847,0,0,1,1.536,1.028,4.885,4.885,0,0,1,1.028,1.523,4.629,4.629,0,0,1,.381,1.866,3.986,3.986,0,0,1-.1.863A2.423,2.423,0,0,1,259.955-31.484ZM280.83-9.115l.2.025a4.779,4.779,0,0,1,1.638.482,4.564,4.564,0,0,1,1.308.99,4.509,4.509,0,0,1,.876,1.422,4.917,4.917,0,0,1,.317,1.8,5.277,5.277,0,0,1-.381,2.069A4.015,4.015,0,0,1,283.7-.812,4.73,4.73,0,0,1,282.024.1a7.149,7.149,0,0,1-2.158.3,5.454,5.454,0,0,1-3.809-1.435,5.71,5.71,0,0,1-1.574-4.431v-3.4a7.112,7.112,0,0,1,2.45-5.764q2.45-2.057,7.351-2.057a15.825,15.825,0,0,1,4.075.419,11.572,11.572,0,0,1,2.628,1.054,6.95,6.95,0,0,1,1.892,1.549,8.634,8.634,0,0,1,1.231,1.879h.076v-4.012a4.819,4.819,0,0,0-.7-2.691,3.849,3.849,0,0,0-1.308-1.371q-.432.279-.749.457l-.686.381q-.368.2-.724.394t-.66.317h-5.434q.432-.229,1.041-.609t1.257-.8q.647-.419,1.27-.838t1.054-.749a3.32,3.32,0,0,0-.432-.1q-.279-.051-.6-.089t-.66-.051q-.343-.013-.6-.013a21.538,21.538,0,0,0-3.136.241,27.029,27.029,0,0,0-3.212.673,25.176,25.176,0,0,0-2.983,1.016c-.939.389-1.756.8-2.45-4.6a12.169,12.169,0,0,1,2.361-1.092,20.6,20.6,0,0,1,2.831-.749,29.923,29.923,0,0,1,3.174-.432q1.663-.14,3.415-.14.889,0,1.828.063t1.866.178q.927.114,1.765.279a10.192,10.192,0,0,1,1.473.394,5.233,5.233,0,0,0,.622-.7q.317-.419.622-.851t.546-.851a6.536,6.536,0,0,0,.368-.724h6.2a14.5,14.5,0,0,1-1.7,3.148,14.056,14.056,0,0,1-2.209,2.387,7.92,7.92,0,0,1,2.12,3.009,11.173,11.173,0,0,1,.749,4.278V0h-6.322V-4.672a9.14,9.14,0,0,0-.457-2.933,6.85,6.85,0,0,0-1.435-2.437,7.8,7.8,0,0,0-2.666-1.828,8.64,8.64,0,0,0-3.542-.749,6.563,6.563,0,0,0-4.062.965,2.783,2.783,0,0,0-1.193,2.184Zm-2.412,4.723a1.885,1.885,0,0,0,.571,1.384,1.885,1.885,0,0,0,1.384.571,1.885,1.885,0,0,0,1.384-.571,1.885,1.885,0,0,0,.571-1.384,1.885,1.885,0,0,0-.571-1.384,1.885,1.885,0,0,0-1.384-.571,1.885,1.885,0,0,0-1.384.571A1.885,1.885,0,0,0,278.418-4.393Z" transform="translate(180 505)" fill="#0080f4"/>
      <path id="路径_41019" data-name="路径 41019" d="M5-9.6a4.159,4.159,0,0,0-3.1,1.2A5.137,5.137,0,0,0,.54-4.656c0,3.048,1.752,5,4.476,5S9.5-1.62,9.5-4.656A5.175,5.175,0,0,0,8.16-8.4,4.205,4.205,0,0,0,5-9.6ZM5.04-1.08a2.591,2.591,0,0,1-1.86-.732,3.965,3.965,0,0,1-.972-2.832c0-2.172,1.092-3.54,2.82-3.54a2.583,2.583,0,0,1,1.848.732,3.876,3.876,0,0,1,.948,2.8C7.824-2.448,6.756-1.08,5.04-1.08ZM36.576-9.408a9.767,9.767,0,0,1,.1,1.644V-3.54a2.191,2.191,0,0,1-2.436,2.484,2.2,2.2,0,0,1-2.46-2.472V-7.764a9.41,9.41,0,0,1,.1-1.644H30.084a9.858,9.858,0,0,1,.1,1.644v4.236a3.865,3.865,0,0,0,.9,2.76A4.134,4.134,0,0,0,34.176.36c2.616,0,4.092-1.392,4.092-3.876v-4.26a9.7,9.7,0,0,1,.1-1.632ZM67.332.144c-.168-.324-.468-.972-.564-1.188C65.58-3.852,65.352-4.188,64.6-4.428a2.537,2.537,0,0,0,1.332-.7,2.467,2.467,0,0,0,.612-1.788c0-1.584-1.044-2.5-2.868-2.5h-2.88c-.66,0-1.032-.012-1.536-.036a10.677,10.677,0,0,1,.1,1.56v6.468a9.391,9.391,0,0,1-.1,1.56h1.788a9.364,9.364,0,0,1-.1-1.572V-3.876h1.788c.924,0,1.344.444,1.992,2.1a9.714,9.714,0,0,1,.624,1.92ZM60.948-5.244v-2.8h2.46c.984,0,1.476.444,1.476,1.308A1.424,1.424,0,0,1,64.5-5.676a1.617,1.617,0,0,1-1.14.432ZM116.7.144a9.771,9.771,0,0,1,.528-1.6l1.8-4.224a14.644,14.644,0,0,0,.552-1.752c-.012.18-.048.792-.1,1.836v3.984a11.156,11.156,0,0,1-.1,1.752h1.68a10.4,10.4,0,0,1-.1-1.752V-7.632a12.427,12.427,0,0,1,.1-1.776H118.86a6.65,6.65,0,0,1-.432,1.428L116-2.028,113.568-7.98a8.305,8.305,0,0,1-.444-1.428h-2.2a11.9,11.9,0,0,1,.1,1.776v6.024a11.254,11.254,0,0,1-.1,1.752h1.68a10.964,10.964,0,0,1-.1-1.752V-5.544c0-.264-.048-1.248-.1-1.884a13.354,13.354,0,0,0,.612,1.836l1.728,4.116a8.169,8.169,0,0,1,.528,1.62Zm25.272-9.552a8.966,8.966,0,0,1,.1,1.548V-1.4a9.055,9.055,0,0,1-.1,1.548H143.8a9.055,9.055,0,0,1-.1-1.548V-7.86a8.966,8.966,0,0,1,.1-1.548Zm22.4,6.756a4.1,4.1,0,0,0,.228,1A2.825,2.825,0,0,0,165.66-.288a4.825,4.825,0,0,0,2.52.624,3.977,3.977,0,0,0,2.868-.912,2.792,2.792,0,0,0,.756-2.04,2.368,2.368,0,0,0-1-2.064,5.283,5.283,0,0,0-1.956-.732,10.216,10.216,0,0,1-1.692-.432,1.141,1.141,0,0,1-.816-1.092c0-.78.708-1.308,1.752-1.308a1.9,1.9,0,0,1,1.5.576,1.55,1.55,0,0,1,.36.852l1.716-.2a3.235,3.235,0,0,0-.588-1.392A3.537,3.537,0,0,0,168.1-9.624c-2.064,0-3.408,1.08-3.408,2.748a2.362,2.362,0,0,0,.924,1.944,4.242,4.242,0,0,0,1.812.732,7.566,7.566,0,0,1,2.088.588,1.218,1.218,0,0,1,.6,1.1c0,.9-.72,1.44-1.92,1.44a2.13,2.13,0,0,1-1.752-.708,1.72,1.72,0,0,1-.336-1.056Zm27.78,0a4.1,4.1,0,0,0,.228,1A2.825,2.825,0,0,0,193.44-.288a4.825,4.825,0,0,0,2.52.624,3.977,3.977,0,0,0,2.868-.912,2.792,2.792,0,0,0,.756-2.04,2.368,2.368,0,0,0-1-2.064,5.283,5.283,0,0,0-1.956-.732,10.216,10.216,0,0,1-1.692-.432,1.141,1.141,0,0,1-.816-1.092c0-.78.708-1.308,1.752-1.308a1.9,1.9,0,0,1,1.5.576,1.55,1.55,0,0,1,.36.852l1.716-.2a3.235,3.235,0,0,0-.588-1.392,3.537,3.537,0,0,0-2.988-1.212c-2.064,0-3.408,1.08-3.408,2.748a2.362,2.362,0,0,0,.924,1.944A4.242,4.242,0,0,0,195.2-4.2a7.566,7.566,0,0,1,2.088.588,1.218,1.218,0,0,1,.6,1.1c0,.9-.72,1.44-1.92,1.44a2.13,2.13,0,0,1-1.752-.708,1.72,1.72,0,0,1-.336-1.056Zm28.092-6.756a8.966,8.966,0,0,1,.1,1.548V-1.4a9.055,9.055,0,0,1-.1,1.548h1.824a9.055,9.055,0,0,1-.1-1.548V-7.86a8.966,8.966,0,0,1,.1-1.548ZM247.116-9.6a4.159,4.159,0,0,0-3.1,1.2,5.137,5.137,0,0,0-1.368,3.744c0,3.048,1.752,5,4.476,5s4.488-1.968,4.488-5A5.175,5.175,0,0,0,250.272-8.4,4.205,4.205,0,0,0,247.116-9.6Zm.036,8.52a2.591,2.591,0,0,1-1.86-.732,3.965,3.965,0,0,1-.972-2.832c0-2.172,1.092-3.54,2.82-3.54a2.583,2.583,0,0,1,1.848.732,3.876,3.876,0,0,1,.948,2.8C249.936-2.448,248.868-1.08,247.152-1.08ZM280.368.144a9.055,9.055,0,0,1-.1-1.548V-7.752a10.493,10.493,0,0,1,.1-1.656h-1.752a10.489,10.489,0,0,1,.1,1.656V-3.72c0,.5.036,1.224.084,1.692-.264-.48-.648-1.1-.936-1.536l-3.036-4.572a6.582,6.582,0,0,1-.732-1.272H272.22a9.993,9.993,0,0,1,.1,1.548v6.192a12.983,12.983,0,0,1-.1,1.812h1.752a13.282,13.282,0,0,1-.1-1.8V-5.592c0-.276-.024-.816-.036-1.044-.036-.444-.036-.444-.048-.612.288.564.588,1.08.816,1.44l3.1,4.668a11.958,11.958,0,0,1,.768,1.284Z" transform="translate(180 396)"/>
      <path id="路径_40964" data-name="路径 40964" d="M318.48-9.115l.2.025a4.779,4.779,0,0,1,1.638.482,4.564,4.564,0,0,1,1.308.99A4.509,4.509,0,0,1,322.5-6.2a4.917,4.917,0,0,1,.317,1.8,5.277,5.277,0,0,1-.381,2.069,4.015,4.015,0,0,1-1.092,1.511A4.73,4.73,0,0,1,319.673.1a7.149,7.149,0,0,1-2.158.3,5.454,5.454,0,0,1-3.809-1.435,5.71,5.71,0,0,1-1.574-4.431v-3.4a7.112,7.112,0,0,1,2.45-5.764q2.45-2.057,7.351-2.057a15.825,15.825,0,0,1,4.075.419,11.572,11.572,0,0,1,2.628,1.054,6.95,6.95,0,0,1,1.892,1.549,8.634,8.634,0,0,1,1.231,1.879h.076v-4.012a4.819,4.819,0,0,0-.7-2.691,3.849,3.849,0,0,0-1.308-1.371q-.432.279-.749.457l-.686.381q-.368.2-.724.394t-.66.317h-5.434q.432-.229,1.041-.609t1.257-.8q.647-.419,1.27-.838T326.2-21.3a3.32,3.32,0,0,0-.432-.1q-.279-.051-.6-.089t-.66-.051q-.343-.013-.6-.013a21.538,21.538,0,0,0-3.136.241,27.029,27.029,0,0,0-3.212.673,25.176,25.176,0,0,0-2.983,1.016,16.077,16.077,0,0,0-2.45,1.244v-5.84a12.169,12.169,0,0,1,2.361-1.092,20.6,20.6,0,0,1,2.831-.749A29.923,29.923,0,0,1,320.5-26.5q1.663-.14,3.415-.14.889,0,1.828.063t1.866.178q.927.114,1.765.279a10.192,10.192,0,0,1,1.473.394,5.233,5.233,0,0,0,.622-.7q.317-.419.622-.851t.546-.851a6.536,6.536,0,0,0,.368-.724h6.2a14.5,14.5,0,0,1-1.7,3.148,14.056,14.056,0,0,1-2.209,2.387,7.92,7.92,0,0,1,2.12,3.009,11.173,11.173,0,0,1,.749,4.278V0h-6.322V-4.672a9.14,9.14,0,0,0-.457-2.933,6.85,6.85,0,0,0-1.435-2.437,7.8,7.8,0,0,0-2.666-1.828,8.64,8.64,0,0,0-3.542-.749,6.563,6.563,0,0,0-4.062.965,2.783,2.783,0,0,0-1.193,2.184Zm-2.412,4.723a1.885,1.885,0,0,0,.571,1.384,1.885,1.885,0,0,0,1.384.571,1.885,1.885,0,0,0,1.384-.571,1.885,1.885,0,0,0,.571-1.384,1.885,1.885,0,0,0-.571-1.384,1.885,1.885,0,0,0-1.384-.571,1.885,1.885,0,0,0-1.384.571A1.885,1.885,0,0,0,316.068-4.393Zm25.538-23.461q-3.123-.508-5.992-.851t-5.662-.546q-2.793-.2-5.6-.279t-5.8-.076a8.512,8.512,0,0,1,3.618-5.116,12.833,12.833,0,0,1,7.147-1.79,14.758,14.758,0,0,1,4.05.559,12.92,12.92,0,0,1,3.605,1.638,11.715,11.715,0,0,1,2.844,2.641,10.606,10.606,0,0,1,1.79,3.593Zm-12.264-6.094q-4.621,0-5.789,2.311,3.631,0,6.855.2t6.2.584a6.286,6.286,0,0,0-1.117-1.181,7.109,7.109,0,0,0-1.6-.99,10.286,10.286,0,0,0-2.057-.673A11.469,11.469,0,0,0,329.342-33.947ZM358.516-6.3a13.637,13.637,0,0,1,1.739-1.5,12.089,12.089,0,0,1,2.222-1.282,25.33,25.33,0,0,1,2.755-1.028,20.425,20.425,0,0,1,4.2-.711V-26.254h6.322v15.387a9.45,9.45,0,0,1,2.438.508A6.6,6.6,0,0,1,380.2-9.242a5.013,5.013,0,0,1,1.358,1.765,5.7,5.7,0,0,1,.5,2.45,5.016,5.016,0,0,1-1.625,4.063A7.686,7.686,0,0,1,375.4.406a5.737,5.737,0,0,1-4.354-1.688,6.694,6.694,0,0,1-1.612-4.812v-.863a12.377,12.377,0,0,0-3.9.927,14.176,14.176,0,0,0-2.844,1.638,14.585,14.585,0,0,0-2.209,2.069A17.2,17.2,0,0,0,358.77,0h-6.6V-17.113l-.2-.025a4.88,4.88,0,0,1-1.625-.482,4.508,4.508,0,0,1-1.32-.99,4.509,4.509,0,0,1-.876-1.422,4.917,4.917,0,0,1-.317-1.8,5.254,5.254,0,0,1,.381-2.082,4.037,4.037,0,0,1,1.092-1.5,4.715,4.715,0,0,1,1.688-.914,7.182,7.182,0,0,1,2.146-.3,5.454,5.454,0,0,1,3.809,1.435,5.71,5.71,0,0,1,1.574,4.431Zm17.24,1.5a2.414,2.414,0,0,0,.343,1.473,1.2,1.2,0,0,0,1,.432,1.131,1.131,0,0,0,.914-.432,2,2,0,0,0,.355-1.295q0-2.158-2.615-2.437ZM354.58-21.836a1.885,1.885,0,0,0-.571-1.384,1.885,1.885,0,0,0-1.384-.571,1.885,1.885,0,0,0-1.384.571,1.885,1.885,0,0,0-.571,1.384,1.885,1.885,0,0,0,.571,1.384,1.885,1.885,0,0,0,1.384.571,1.885,1.885,0,0,0,1.384-.571A1.885,1.885,0,0,0,354.58-21.836ZM393.778,0V-17.113l-.2-.025a4.88,4.88,0,0,1-1.625-.482,4.508,4.508,0,0,1-1.32-.99,4.509,4.509,0,0,1-.876-1.422,4.917,4.917,0,0,1-.317-1.8,5.254,5.254,0,0,1,.381-2.082,4.037,4.037,0,0,1,1.092-1.5,4.715,4.715,0,0,1,1.688-.914,7.182,7.182,0,0,1,2.146-.3,5.454,5.454,0,0,1,3.809,1.435,5.71,5.71,0,0,1,1.574,4.431V-7.287L411.12-26.254h5.307a6.288,6.288,0,0,1,1.841.267,4.518,4.518,0,0,1,1.549.813,4,4,0,0,1,1.079,1.384,4.5,4.5,0,0,1,.406,1.98V0h-6.322V-19.754a1.661,1.661,0,0,0-.343-1.066,1.5,1.5,0,0,0-1.231-.432L400.888,0Zm2.412-21.836a1.885,1.885,0,0,0-.571-1.384,1.885,1.885,0,0,0-1.384-.571,1.885,1.885,0,0,0-1.384.571,1.885,1.885,0,0,0-.571,1.384,1.885,1.885,0,0,0,.571,1.384,1.885,1.885,0,0,0,1.384.571,1.885,1.885,0,0,0,1.384-.571A1.885,1.885,0,0,0,396.19-21.836Zm50.192,11.324a3.972,3.972,0,0,0-.254-1.46,2.754,2.754,0,0,0-.9-1.155,4.54,4.54,0,0,0-1.739-.774,17.709,17.709,0,0,0-3.707-.267q-2.209,0-4.139.14t-4.062.5v-3.656a13.309,13.309,0,0,1,.521-4.075,7.114,7.114,0,0,1,1.727-2.958,7.452,7.452,0,0,1,3.047-1.8,14.524,14.524,0,0,1,4.481-.609q.838,0,1.993.076t2.4.152l2.463.152q1.219.076,2.158.076,1.676,0,3.085-.063a21.4,21.4,0,0,0,2.222-.19v4.443a19.6,19.6,0,0,1-2.133.165q-1.244.038-3,.038-.914,0-2.234-.076l-2.653-.152q-1.333-.076-2.488-.152t-1.79-.076a7.263,7.263,0,0,0-2.336.241,2.46,2.46,0,0,0-.952.673,2.655,2.655,0,0,0-.533,1.016,8.819,8.819,0,0,0-.165,2.082q.736-.1,1.739-.178t2.882-.076a25.864,25.864,0,0,1,4.85.394,8.4,8.4,0,0,1,3.326,1.32,5.385,5.385,0,0,1,1.9,2.5,10.984,10.984,0,0,1,.609,3.936v4.875a5.925,5.925,0,0,1-1.5,4.354A5.232,5.232,0,0,1,447.322.406a7.182,7.182,0,0,1-2.146-.3,4.715,4.715,0,0,1-1.688-.914A4.015,4.015,0,0,1,442.4-2.323a5.277,5.277,0,0,1-.381-2.069,4.922,4.922,0,0,1,.343-1.879,4.453,4.453,0,0,1,.939-1.447,4.526,4.526,0,0,1,1.384-.965,5.137,5.137,0,0,1,1.7-.432Zm2.387,6.119a1.885,1.885,0,0,0-.571-1.384,1.885,1.885,0,0,0-1.384-.571,1.885,1.885,0,0,0-1.384.571,1.885,1.885,0,0,0-.571,1.384,1.885,1.885,0,0,0,.571,1.384,1.885,1.885,0,0,0,1.384.571,1.885,1.885,0,0,0,1.384-.571A1.885,1.885,0,0,0,448.769-4.393Zm2.077-28.539a1.885,1.885,0,0,0-.571-1.384,1.885,1.885,0,0,0-1.384-.571,1.885,1.885,0,0,0-1.384.571,1.885,1.885,0,0,0-.571,1.384,1.885,1.885,0,0,0,.571,1.384,1.885,1.885,0,0,0,1.384.571,1.885,1.885,0,0,0,1.384-.571A1.885,1.885,0,0,0,450.846-32.932Zm2.564,1.447a12.338,12.338,0,0,0,2.234-1.181,15.4,15.4,0,0,0,2.095-1.676,19.41,19.41,0,0,0,1.892-2.082,26.607,26.607,0,0,0,1.65-2.349v5.23a12.572,12.572,0,0,1-1.866,2.019,15.883,15.883,0,0,1-2.628,1.879,16.364,16.364,0,0,1-3.161,1.4,11.2,11.2,0,0,1-3.466.546,8.188,8.188,0,0,1-2.666-.394,5.467,5.467,0,0,1-1.9-1.079,4.393,4.393,0,0,1-1.143-1.612,5.192,5.192,0,0,1-.381-1.993,4.874,4.874,0,0,1,.381-1.917,5.12,5.12,0,0,1,1.028-1.574A4.85,4.85,0,0,1,447-37.337a4.5,4.5,0,0,1,1.866-.394,4.72,4.72,0,0,1,1.879.381,4.847,4.847,0,0,1,1.536,1.028,4.885,4.885,0,0,1,1.028,1.523,4.629,4.629,0,0,1,.381,1.866,3.986,3.986,0,0,1-.1.863A2.423,2.423,0,0,1,453.411-31.484ZM467.325,0V-17.113l-.2-.025a4.88,4.88,0,0,1-1.625-.482,4.508,4.508,0,0,1-1.32-.99,4.509,4.509,0,0,1-.876-1.422,4.917,4.917,0,0,1-.317-1.8,5.254,5.254,0,0,1,.381-2.082,4.037,4.037,0,0,1,1.092-1.5,4.715,4.715,0,0,1,1.688-.914,7.182,7.182,0,0,1,2.146-.3A5.454,5.454,0,0,1,472.1-25.2a5.71,5.71,0,0,1,1.574,4.431V-5.332q.152-.66.368-1.511t.432-1.676a15.677,15.677,0,0,1,.482-1.536q.267-.711.394-1.041L481.366-26h3.428l5.941,14.9q.127.33.394,1.041t.5,1.549q.229.838.432,1.688t.355,1.511V-26.254h6.322V0h-7.922l-6.018-14.473q-.2-.635-.571-1.587T483.6-17.9q-.279-1.041-.559-2.184-.279,1.143-.559,2.209-.254.914-.622,1.866t-.571,1.562L475.272,0Zm2.412-21.836a1.885,1.885,0,0,0-.571-1.384,1.885,1.885,0,0,0-1.384-.571,1.885,1.885,0,0,0-1.384.571,1.885,1.885,0,0,0-.571,1.384,1.885,1.885,0,0,0,.571,1.384,1.885,1.885,0,0,0,1.384.571,1.885,1.885,0,0,0,1.384-.571A1.885,1.885,0,0,0,469.737-21.836Zm44.886,0a1.885,1.885,0,0,0,.571,1.384,1.885,1.885,0,0,0,1.384.571,1.885,1.885,0,0,0,1.384-.571,1.885,1.885,0,0,0,.571-1.384,1.885,1.885,0,0,0-.571-1.384,1.885,1.885,0,0,0-1.384-.571,1.885,1.885,0,0,0-1.384.571A1.885,1.885,0,0,0,514.622-21.836ZM510.687,0V-7.439a5.654,5.654,0,0,1,.33-2.044,4.533,4.533,0,0,1,.863-1.435,4.285,4.285,0,0,1,1.193-.927,6.792,6.792,0,0,1,1.295-.521,6.353,6.353,0,0,1-1.295-.533,4.5,4.5,0,0,1-1.193-.939,4.533,4.533,0,0,1-.863-1.435,5.654,5.654,0,0,1-.33-2.044V-20.77a5.71,5.71,0,0,1,1.574-4.431,5.454,5.454,0,0,1,3.809-1.435,7.149,7.149,0,0,1,2.158.3,4.729,4.729,0,0,1,1.676.914,4.038,4.038,0,0,1,1.092,1.5,5.254,5.254,0,0,1,.381,2.082,4.916,4.916,0,0,1-.317,1.8,4.51,4.51,0,0,1-.876,1.422,4.564,4.564,0,0,1-1.308.99,4.778,4.778,0,0,1-1.638.482l-.2.025a2.305,2.305,0,0,0,.457,1.485,3.492,3.492,0,0,0,1.1.914,6.006,6.006,0,0,0,1.358.521q.711.178,1.244.279v3.072q-.533.1-1.244.267a5.51,5.51,0,0,0-1.371.521,3.284,3.284,0,0,0-1.117.99,2.806,2.806,0,0,0-.457,1.676v2.311h8.3a3.659,3.659,0,0,0,2.564-.8,3.121,3.121,0,0,0,.939-2.476v-17.9h6.322V-7.287a8.671,8.671,0,0,1-.482,2.945,6.238,6.238,0,0,1-1.435,2.311,6.488,6.488,0,0,1-2.361,1.5A9.11,9.11,0,0,1,527.622,0Zm23.837-31.713a3.729,3.729,0,0,1-1.1,2.831,4.326,4.326,0,0,1-3.11,1.054A4.211,4.211,0,0,1,527.173-29a4.146,4.146,0,0,1-1.155-3.047,4.515,4.515,0,0,1,.33-1.739,3.663,3.663,0,0,1,1-1.384,5.02,5.02,0,0,1,1.65-.927,6.863,6.863,0,0,1,2.272-.343q.863,0,1.46.025l1.143.051q.546.025,1.181.051t1.6.025a3.815,3.815,0,0,0,2.666-.838,4.349,4.349,0,0,0,1.193-2.615h4.139a16.617,16.617,0,0,1-.533,2.171,6.2,6.2,0,0,1-.9,1.8,4.166,4.166,0,0,1-1.447,1.231,4.6,4.6,0,0,1-2.146.457q-.863,0-1.841-.038t-1.879-.076q-.9-.038-1.6-.076t-1-.038a3.433,3.433,0,0,1,.381.394,3.95,3.95,0,0,1,.394.571,3.644,3.644,0,0,1,.317.736A2.966,2.966,0,0,1,534.523-31.713Zm-6.2-.051a1.814,1.814,0,0,0,.546,1.4,2.022,2.022,0,0,0,1.435.508,1.918,1.918,0,0,0,1.358-.508,1.814,1.814,0,0,0,.546-1.4,1.823,1.823,0,0,0-.546-1.384,1.892,1.892,0,0,0-1.358-.521,1.993,1.993,0,0,0-1.435.521A1.823,1.823,0,0,0,528.328-31.764ZM10.105,73.721V90.732l.2.025a4.779,4.779,0,0,1,1.638.482,4.564,4.564,0,0,1,1.308.99,4.509,4.509,0,0,1,.876,1.422,4.916,4.916,0,0,1,.317,1.8,5.277,5.277,0,0,1-.381,2.069,4.015,4.015,0,0,1-1.092,1.511,4.729,4.729,0,0,1-1.676.914,7.149,7.149,0,0,1-2.158.3,5.454,5.454,0,0,1-3.809-1.435,5.71,5.71,0,0,1-1.574-4.431V73.721ZM7.693,95.455A1.951,1.951,0,0,0,9.648,97.41a1.955,1.955,0,1,0-1.384-3.339A1.885,1.885,0,0,0,7.693,95.455Zm18.2-10.816a1.951,1.951,0,1,0,.571-1.384A1.885,1.885,0,0,0,25.893,84.639Zm29.479,8.074a8.67,8.67,0,0,1-.482,2.945,6.238,6.238,0,0,1-1.435,2.311,6.488,6.488,0,0,1-2.361,1.5,9.11,9.11,0,0,1-3.237.533H34.044V91.342a22.743,22.743,0,0,1,.229-3.542,7.768,7.768,0,0,1,.736-2.374,5.626,5.626,0,0,1,1.32-1.663,14.251,14.251,0,0,1,1.955-1.384,5.881,5.881,0,0,0-.254-1.739,3.758,3.758,0,0,0-.876-1.485,5.238,5.238,0,0,0-1.638-1.13,6.046,6.046,0,0,0-2.539-.47,8.416,8.416,0,0,0-3.555.724,5.326,5.326,0,0,0-2.209,1.638,1.051,1.051,0,0,1,.317-.063q.19-.013.317-.013a5.121,5.121,0,0,1,1.942.355,4.605,4.605,0,0,1,1.511.978,4.342,4.342,0,0,1,.99,1.511,5.554,5.554,0,0,1,0,3.91A4.342,4.342,0,0,1,31.3,88.1a4.605,4.605,0,0,1-1.511.978,5.121,5.121,0,0,1-1.942.355,5.473,5.473,0,0,1-2.4-.5,4.949,4.949,0,0,1-1.739-1.384,6.014,6.014,0,0,1-1.066-2.133,9.96,9.96,0,0,1-.355-2.742,9.453,9.453,0,0,1,.736-3.771,7.937,7.937,0,0,1,2.184-2.945A10.314,10.314,0,0,1,28.8,74.051a16.419,16.419,0,0,1,4.989-.686A15.359,15.359,0,0,1,38.17,74,10.731,10.731,0,0,1,41.8,75.8a7.762,7.762,0,0,1,2.272,2.856,8.817,8.817,0,0,1,.787,3.771A12.312,12.312,0,0,0,42.727,83.9a6.12,6.12,0,0,0-1.384,1.752,7.8,7.8,0,0,0-.749,2.272,17.355,17.355,0,0,0-.229,3.009v4.012h5.18a3.789,3.789,0,0,0,2.564-.812,3.114,3.114,0,0,0,.939-2.488V86.518a11.744,11.744,0,0,0-.1-1.663,4.347,4.347,0,0,0-.33-1.193,2.358,2.358,0,0,0-.6-.812,3,3,0,0,0-.9-.521V79.256a7.587,7.587,0,0,0,2.2-1.282,4.389,4.389,0,0,0,1.143-1.587,7.1,7.1,0,0,0,.482-1.993q.114-1.1.241-2.526h6.475a19.223,19.223,0,0,1-.5,3.136,8.224,8.224,0,0,1-1,2.374,7.52,7.52,0,0,1-1.7,1.866A13.782,13.782,0,0,1,51.893,80.8a4,4,0,0,1,1.295.635,4.528,4.528,0,0,1,1.117,1.181,6.3,6.3,0,0,1,.774,1.7,7.665,7.665,0,0,1,.292,2.2Zm4.971-20.566q-3.123-.508-5.992-.851t-5.662-.546q-2.793-.2-5.6-.279t-5.8-.076a8.512,8.512,0,0,1,3.618-5.116,12.833,12.833,0,0,1,7.147-1.79,14.428,14.428,0,0,1,2.209.165,16.453,16.453,0,0,1,2.107.47V61.381h3.047V65.52A10.965,10.965,0,0,1,57.3,66.941V61.381h3.047ZM48.08,66.053q-4.621,0-5.789,2.311,3.631,0,6.855.2t6.2.584a6.286,6.286,0,0,0-1.117-1.181,7.109,7.109,0,0,0-1.6-.99,10.286,10.286,0,0,0-2.057-.673A11.469,11.469,0,0,0,48.08,66.053Zm8.988-.939h2.844v6.7H57.068ZM68.519,89.488a5.684,5.684,0,0,1,1.587-4.431,5.466,5.466,0,0,1,3.8-1.435,7.149,7.149,0,0,1,2.158.3,4.729,4.729,0,0,1,1.676.914,4.038,4.038,0,0,1,1.092,1.5,5.254,5.254,0,0,1,.381,2.082,5.018,5.018,0,0,1-.317,1.815A4.361,4.361,0,0,1,78,91.672a4.727,4.727,0,0,1-2.958,1.473l-.178.025q.025.939,1.333,1.523a11.419,11.419,0,0,0,4.3.584,10.394,10.394,0,0,0,2.933-.33,5.466,5.466,0,0,0,1.828-.927,4.278,4.278,0,0,0,1.219-1.663,6.06,6.06,0,0,0,.47-2.463V84.842a6.939,6.939,0,0,0-.6-3.1,5.2,5.2,0,0,0-1.511-1.879,6.625,6.625,0,0,0-2.361-1.054,14.153,14.153,0,0,0-3.453-.368,21.538,21.538,0,0,0-3.136.241,27.028,27.028,0,0,0-3.212.673A25.175,25.175,0,0,0,69.7,80.373a16.077,16.077,0,0,0-2.45,1.244v-5.84a12.169,12.169,0,0,1,2.361-1.092,20.6,20.6,0,0,1,2.831-.749,29.923,29.923,0,0,1,3.174-.432q1.663-.14,3.415-.14,7.084,0,10.664,2.7t3.58,7.909v5.764a13.893,13.893,0,0,1-.7,4.621,7.689,7.689,0,0,1-2.234,3.313,10.045,10.045,0,0,1-3.961,2.006,22.24,22.24,0,0,1-5.878.673,22.7,22.7,0,0,1-5.789-.622,10.2,10.2,0,0,1-3.682-1.7,5.968,5.968,0,0,1-1.942-2.564,8.8,8.8,0,0,1-.571-3.187Zm3.936-1.066a1.951,1.951,0,1,0,.571-1.384A1.885,1.885,0,0,0,72.455,88.422ZM125.643,100a12.921,12.921,0,0,0-1.752-2.247,22.026,22.026,0,0,0-2.272-2.044,13.187,13.187,0,0,0-3.3-1.777,11.637,11.637,0,0,0-3.339-.889v.863a6.694,6.694,0,0,1-1.612,4.812,5.737,5.737,0,0,1-4.354,1.688,7.686,7.686,0,0,1-5.027-1.371,5.016,5.016,0,0,1-1.625-4.062,5.7,5.7,0,0,1,.5-2.45,5.013,5.013,0,0,1,1.358-1.765,6.6,6.6,0,0,1,2.006-1.117,9.45,9.45,0,0,1,2.438-.508V82.887l-.229-.025a4.88,4.88,0,0,1-1.625-.482,4.452,4.452,0,0,1-2.2-2.412,4.916,4.916,0,0,1-.317-1.8,5.254,5.254,0,0,1,.381-2.082,4.038,4.038,0,0,1,1.092-1.5,4.715,4.715,0,0,1,1.688-.914,7.182,7.182,0,0,1,2.146-.3A5.454,5.454,0,0,1,113.4,74.8a5.71,5.71,0,0,1,1.574,4.431v9.953a17.35,17.35,0,0,1,3.491.66,20.8,20.8,0,0,1,3.364,1.181,23.325,23.325,0,0,1,2.3,1.257A8.749,8.749,0,0,1,125.9,93.7V73.746h6.322V100Zm-14.6-21.836a1.951,1.951,0,1,0-.571,1.384A1.885,1.885,0,0,0,111.043,78.164Zm-2.387,14.777q-2.615.279-2.615,2.438a2,2,0,0,0,.355,1.295,1.131,1.131,0,0,0,.914.432,1.2,1.2,0,0,0,1-.432,2.414,2.414,0,0,0,.343-1.473Zm42.3,2.184a15.976,15.976,0,0,0,1.8-1.422,4.88,4.88,0,0,0,1.117-1.5,4.293,4.293,0,0,1-1.879-1.676,4.949,4.949,0,0,1-.686-2.641,5.218,5.218,0,0,1,.355-1.955,4.342,4.342,0,0,1,.99-1.511,4.605,4.605,0,0,1,1.511-.978,5.485,5.485,0,0,1,3.885,0,4.455,4.455,0,0,1,1.523,1.016,4.574,4.574,0,0,1,1,1.587,5.664,5.664,0,0,1,.355,2.044,7.589,7.589,0,0,1-.47,2.679,10.774,10.774,0,0,1-1.244,2.374,13.883,13.883,0,0,1-1.79,2.095,25.432,25.432,0,0,1-2.12,1.828q-1.1.851-2.234,1.574L150.952,100H144.6V94.719A14.1,14.1,0,0,0,144.325,92q-.279-1.422-.622-2.907t-.635-3a15.824,15.824,0,0,1-.292-3.009,8.785,8.785,0,0,1,3.009-6.906,10.035,10.035,0,0,1,3-1.815,14.634,14.634,0,0,1,3.339-.876l4.7,3.682,4.367-3.631a14.024,14.024,0,0,1,3.58.876,9.345,9.345,0,0,1,3.047,1.917,9.167,9.167,0,0,1,2.12,3.11,11.343,11.343,0,0,1,.8,4.481V100h-6.322V85.35q0-.99-.076-1.942a7.17,7.17,0,0,0-.355-1.765,4.867,4.867,0,0,0-.965-1.6,6.078,6.078,0,0,0-2.057-1.422l-4.139,3.428-4.24-3.428a6.114,6.114,0,0,0-1.93,1.295,4.708,4.708,0,0,0-1.028,1.5,6.3,6.3,0,0,0-.394,1.549,13.3,13.3,0,0,0-.1,1.65,11.175,11.175,0,0,0,.292,2.425q.292,1.308.635,2.653t.622,2.666a11.941,11.941,0,0,1,.279,2.463Zm7.109-7.236a1.951,1.951,0,1,0-.571,1.384A1.885,1.885,0,0,0,158.062,87.889Zm8.157-24.451h3.555v8.379h-3.555Zm15.807,26.051a5.684,5.684,0,0,1,1.587-4.431,5.466,5.466,0,0,1,3.8-1.435,7.149,7.149,0,0,1,2.158.3,4.729,4.729,0,0,1,1.676.914,4.038,4.038,0,0,1,1.092,1.5,5.254,5.254,0,0,1,.381,2.082,5.018,5.018,0,0,1-.317,1.815,4.362,4.362,0,0,1-.889,1.435,4.727,4.727,0,0,1-2.958,1.473l-.178.025q.025.939,1.333,1.523a11.419,11.419,0,0,0,4.3.584,10.394,10.394,0,0,0,2.933-.33,5.466,5.466,0,0,0,1.828-.927,4.278,4.278,0,0,0,1.219-1.663,6.059,6.059,0,0,0,.47-2.463V84.842a6.939,6.939,0,0,0-.6-3.1,5.2,5.2,0,0,0-1.511-1.879,6.625,6.625,0,0,0-2.361-1.054,14.153,14.153,0,0,0-3.453-.368,21.537,21.537,0,0,0-3.136.241,27.029,27.029,0,0,0-3.212.673,25.174,25.174,0,0,0-2.983,1.016,16.078,16.078,0,0,0-2.45,1.244v-5.84a12.17,12.17,0,0,1,2.361-1.092,20.6,20.6,0,0,1,2.831-.749,29.923,29.923,0,0,1,3.174-.432q1.663-.14,3.415-.14,7.084,0,10.664,2.7t3.58,7.909v5.764a13.893,13.893,0,0,1-.7,4.621,7.689,7.689,0,0,1-2.234,3.313,10.045,10.045,0,0,1-3.961,2.006,22.24,22.24,0,0,1-5.878.673,22.7,22.7,0,0,1-5.789-.622,10.2,10.2,0,0,1-3.682-1.7,5.968,5.968,0,0,1-1.942-2.564,8.8,8.8,0,0,1-.571-3.187Zm3.936-1.066a1.951,1.951,0,1,0,.571-1.384A1.885,1.885,0,0,0,185.961,88.422ZM219.4,84.639a1.951,1.951,0,1,0,.571-1.384A1.885,1.885,0,0,0,219.4,84.639Zm29.479,8.074a8.67,8.67,0,0,1-.482,2.945,6.238,6.238,0,0,1-1.435,2.311,6.488,6.488,0,0,1-2.361,1.5,9.11,9.11,0,0,1-3.237.533H227.546V91.342a22.743,22.743,0,0,1,.229-3.542,7.767,7.767,0,0,1,.736-2.374,5.626,5.626,0,0,1,1.32-1.663,14.251,14.251,0,0,1,1.955-1.384,5.881,5.881,0,0,0-.254-1.739,3.757,3.757,0,0,0-.876-1.485,5.238,5.238,0,0,0-1.638-1.13,6.046,6.046,0,0,0-2.539-.47,8.416,8.416,0,0,0-3.555.724,5.326,5.326,0,0,0-2.209,1.638,1.051,1.051,0,0,1,.317-.063q.19-.013.317-.013a5.121,5.121,0,0,1,1.942.355,4.605,4.605,0,0,1,1.511.978,4.342,4.342,0,0,1,.99,1.511,5.554,5.554,0,0,1,0,3.91,4.342,4.342,0,0,1-.99,1.511,4.605,4.605,0,0,1-1.511.978,5.121,5.121,0,0,1-1.942.355,5.473,5.473,0,0,1-2.4-.5,4.949,4.949,0,0,1-1.739-1.384,6.015,6.015,0,0,1-1.066-2.133,9.96,9.96,0,0,1-.355-2.742,9.453,9.453,0,0,1,.736-3.771,7.937,7.937,0,0,1,2.184-2.945,10.314,10.314,0,0,1,3.593-1.917,16.419,16.419,0,0,1,4.989-.686,15.359,15.359,0,0,1,4.38.635,10.731,10.731,0,0,1,3.631,1.8,7.762,7.762,0,0,1,2.272,2.856,8.817,8.817,0,0,1,.787,3.771,12.312,12.312,0,0,0-2.133,1.473,6.12,6.12,0,0,0-1.384,1.752,7.8,7.8,0,0,0-.749,2.272,17.355,17.355,0,0,0-.229,3.009v4.012h5.18a3.789,3.789,0,0,0,2.564-.812,3.114,3.114,0,0,0,.939-2.488V86.518a11.745,11.745,0,0,0-.1-1.663,4.346,4.346,0,0,0-.33-1.193,2.358,2.358,0,0,0-.6-.812,3,3,0,0,0-.9-.521V79.256a7.587,7.587,0,0,0,2.2-1.282,4.389,4.389,0,0,0,1.143-1.587,7.1,7.1,0,0,0,.482-1.993q.114-1.1.241-2.526h6.475a19.223,19.223,0,0,1-.5,3.136,8.224,8.224,0,0,1-1,2.374,7.52,7.52,0,0,1-1.7,1.866A13.782,13.782,0,0,1,245.4,80.8a4,4,0,0,1,1.295.635,4.528,4.528,0,0,1,1.117,1.181,6.3,6.3,0,0,1,.774,1.7,7.666,7.666,0,0,1,.292,2.2Zm-2.06,19.5V108.48h-.152a2.779,2.779,0,0,1-1.13-.229,3.085,3.085,0,0,1-.914-.609,2.625,2.625,0,0,1-.609-.914,3.016,3.016,0,0,1-.216-1.143,2.845,2.845,0,0,1,.2-1.066,2.661,2.661,0,0,1,.6-.9,2.991,2.991,0,0,1,.965-.635,3.336,3.336,0,0,1,1.308-.241,3.044,3.044,0,0,1,2.311.851,2.949,2.949,0,0,1,.813,2.12v6.5Zm-1.193-6.627a1.04,1.04,0,1,0,.3-.736A1,1,0,0,0,245.621,105.586ZM283.349,100a12.922,12.922,0,0,0-1.752-2.247,22.026,22.026,0,0,0-2.272-2.044,13.187,13.187,0,0,0-3.3-1.777,11.637,11.637,0,0,0-3.339-.889v.863a6.694,6.694,0,0,1-1.612,4.812,5.737,5.737,0,0,1-4.354,1.688,7.686,7.686,0,0,1-5.027-1.371,5.016,5.016,0,0,1-1.625-4.062,5.7,5.7,0,0,1,.5-2.45,5.013,5.013,0,0,1,1.358-1.765,6.6,6.6,0,0,1,2.006-1.117,9.45,9.45,0,0,1,2.438-.508V82.887l-.229-.025a4.88,4.88,0,0,1-1.625-.482,4.452,4.452,0,0,1-2.2-2.412,4.917,4.917,0,0,1-.317-1.8,5.254,5.254,0,0,1,.381-2.082,4.037,4.037,0,0,1,1.092-1.5,4.715,4.715,0,0,1,1.688-.914,7.182,7.182,0,0,1,2.146-.3,5.454,5.454,0,0,1,3.809,1.435,5.71,5.71,0,0,1,1.574,4.431v9.953a17.35,17.35,0,0,1,3.491.66,20.8,20.8,0,0,1,3.364,1.181,23.325,23.325,0,0,1,2.3,1.257A8.749,8.749,0,0,1,283.6,93.7V73.746h6.322V100Zm-14.6-21.836a1.951,1.951,0,1,0-.571,1.384A1.885,1.885,0,0,0,268.75,78.164Zm-2.387,14.777q-2.615.279-2.615,2.438a2,2,0,0,0,.355,1.295,1.131,1.131,0,0,0,.914.432,1.2,1.2,0,0,0,1-.432,2.414,2.414,0,0,0,.343-1.473Zm36.761-8.3a1.951,1.951,0,1,0,.571-1.384A1.885,1.885,0,0,0,303.123,84.639ZM332.6,92.713a8.67,8.67,0,0,1-.482,2.945,6.238,6.238,0,0,1-1.435,2.311,6.488,6.488,0,0,1-2.361,1.5,9.11,9.11,0,0,1-3.237.533H311.274V91.342A22.743,22.743,0,0,1,311.5,87.8a7.768,7.768,0,0,1,.736-2.374,5.626,5.626,0,0,1,1.32-1.663,14.25,14.25,0,0,1,1.955-1.384,5.881,5.881,0,0,0-.254-1.739,3.758,3.758,0,0,0-.876-1.485,5.238,5.238,0,0,0-1.638-1.13,6.046,6.046,0,0,0-2.539-.47,8.416,8.416,0,0,0-3.555.724,5.326,5.326,0,0,0-2.209,1.638,1.051,1.051,0,0,1,.317-.063q.19-.013.317-.013a5.121,5.121,0,0,1,1.942.355,4.605,4.605,0,0,1,1.511.978,4.342,4.342,0,0,1,.99,1.511,5.554,5.554,0,0,1,0,3.91,4.342,4.342,0,0,1-.99,1.511,4.605,4.605,0,0,1-1.511.978,5.121,5.121,0,0,1-1.942.355,5.473,5.473,0,0,1-2.4-.5,4.949,4.949,0,0,1-1.739-1.384,6.014,6.014,0,0,1-1.066-2.133,9.961,9.961,0,0,1-.355-2.742,9.453,9.453,0,0,1,.736-3.771,7.937,7.937,0,0,1,2.184-2.945,10.314,10.314,0,0,1,3.593-1.917,16.419,16.419,0,0,1,4.989-.686A15.359,15.359,0,0,1,315.4,74a10.731,10.731,0,0,1,3.631,1.8,7.762,7.762,0,0,1,2.272,2.856,8.817,8.817,0,0,1,.787,3.771,12.313,12.313,0,0,0-2.133,1.473,6.12,6.12,0,0,0-1.384,1.752,7.8,7.8,0,0,0-.749,2.272,17.355,17.355,0,0,0-.229,3.009v4.012h5.18a3.789,3.789,0,0,0,2.564-.812,3.114,3.114,0,0,0,.939-2.488V86.518a11.743,11.743,0,0,0-.1-1.663,4.347,4.347,0,0,0-.33-1.193,2.358,2.358,0,0,0-.6-.812,3,3,0,0,0-.9-.521V79.256a7.587,7.587,0,0,0,2.2-1.282,4.389,4.389,0,0,0,1.143-1.587,7.094,7.094,0,0,0,.482-1.993q.114-1.1.241-2.526h6.475a19.223,19.223,0,0,1-.5,3.136,8.224,8.224,0,0,1-1,2.374,7.52,7.52,0,0,1-1.7,1.866,13.782,13.782,0,0,1-2.564,1.562,4,4,0,0,1,1.295.635,4.528,4.528,0,0,1,1.117,1.181,6.3,6.3,0,0,1,.774,1.7,7.665,7.665,0,0,1,.292,2.2Zm21.882.99a13.637,13.637,0,0,1,1.739-1.5,12.089,12.089,0,0,1,2.222-1.282,25.331,25.331,0,0,1,2.755-1.028,20.425,20.425,0,0,1,4.2-.711V73.746h6.322V89.133a9.45,9.45,0,0,1,2.438.508,6.6,6.6,0,0,1,2.006,1.117,5.013,5.013,0,0,1,1.358,1.765,5.7,5.7,0,0,1,.5,2.45,5.016,5.016,0,0,1-1.625,4.063,7.686,7.686,0,0,1-5.027,1.371,5.737,5.737,0,0,1-4.354-1.688,6.694,6.694,0,0,1-1.612-4.812v-.863a12.377,12.377,0,0,0-3.9.927,14.176,14.176,0,0,0-2.844,1.638,14.585,14.585,0,0,0-2.209,2.069A17.2,17.2,0,0,0,354.738,100h-6.6V82.887l-.2-.025a4.88,4.88,0,0,1-1.625-.482,4.452,4.452,0,0,1-2.2-2.412,4.917,4.917,0,0,1-.317-1.8,5.254,5.254,0,0,1,.381-2.082,4.037,4.037,0,0,1,1.092-1.5,4.715,4.715,0,0,1,1.688-.914,7.182,7.182,0,0,1,2.146-.3,5.454,5.454,0,0,1,3.809,1.435,5.71,5.71,0,0,1,1.574,4.431Zm17.24,1.5a2.414,2.414,0,0,0,.343,1.473,1.2,1.2,0,0,0,1,.432,1.131,1.131,0,0,0,.914-.432,2,2,0,0,0,.355-1.295q0-2.158-2.615-2.437ZM350.548,78.164a1.951,1.951,0,1,0-.571,1.384A1.885,1.885,0,0,0,350.548,78.164Z" transform="translate(180 505)"/>
    </g>
    <g id="蒙版组_33" data-name="蒙版组 33" clip-path="url(#clip-path)">
      <g id="bg" transform="translate(593.966 137.526)" opacity="0.06">
        <g id="组_21620" data-name="组 21620" transform="translate(552.34 642.069)">
          <path id="路径_38454" data-name="路径 38454" d="M974.923,856.855l-41.776,23.29,59.442,35.771L916.5,959.608l40.261,25.179,118.075-67.8Z" transform="translate(-737.066 -856.839)" fill="none" stroke="#231815" stroke-miterlimit="10" stroke-width="2"/>
          <path id="路径_38455" data-name="路径 38455" d="M792.713,984.784l41.781-23.293-59.449-35.776,76.1-43.7-40.266-25.182-118.09,67.813Z" transform="translate(-692.785 -856.835)" fill="none" stroke="#231815" stroke-miterlimit="10" stroke-width="2"/>
        </g>
        <path id="路径_38456" data-name="路径 38456" d="M620.954,959.488l217.228,132.864,206.091-122.416-32.144-21" transform="translate(-126.227 -232.996)" fill="none" stroke="#231815" stroke-miterlimit="10" stroke-width="2" stroke-dasharray="15 5"/>
        <ellipse id="椭圆_1799" data-name="椭圆 1799" cx="9.182" cy="5.831" rx="9.182" ry="5.831" transform="translate(238.014 497.65)" fill="#231815"/>
        <ellipse id="椭圆_1800" data-name="椭圆 1800" cx="6.803" cy="4.32" rx="6.803" ry="4.32" transform="translate(483.568 719.982)" fill="none" stroke="#231815" stroke-miterlimit="10" stroke-width="2"/>
        <ellipse id="椭圆_1801" data-name="椭圆 1801" cx="9.182" cy="5.831" rx="9.182" ry="5.831" transform="translate(702.486 851.999)" fill="#231815"/>
        <ellipse id="椭圆_1802" data-name="椭圆 1802" cx="9.182" cy="5.831" rx="9.182" ry="5.831" transform="translate(1170.115 497.571)" fill="#231815"/>
        <ellipse id="椭圆_1803" data-name="椭圆 1803" cx="9.182" cy="5.831" rx="9.182" ry="5.831" transform="translate(835.872 93.215)"/>
        <ellipse id="椭圆_1804" data-name="椭圆 1804" cx="9.182" cy="5.831" rx="9.182" ry="5.831" transform="translate(704.006 8.599)" fill="#231815"/>
        <path id="路径_38457" data-name="路径 38457" d="M1617.878,523.339l15.476,9.62-99.2,59.847-96.673,59.7-149.6-89.544" transform="translate(-258.235 -148.755)" fill="none" stroke="#000" stroke-miterlimit="10" stroke-width="2" stroke-dasharray="11 5"/>
        <path id="路径_38458" data-name="路径 38458" d="M243.628,126.461,371.81,47.5l149.6,89.544" transform="translate(-51.541 -54.571)" fill="none" stroke="#231815" stroke-miterlimit="10" stroke-width="2" stroke-dasharray="11 5"/>
        <g id="组_21621" data-name="组 21621" transform="translate(244.16 453.534)">
          <line id="直线_454" data-name="直线 454" x2="311.077" y2="189.85" transform="translate(0 49.947)" fill="none" stroke="#231815" stroke-miterlimit="10" stroke-width="2" stroke-dasharray="12 5"/>
          <line id="直线_455" data-name="直线 455" x1="91.209" y2="49.947" fill="none" stroke="#231815" stroke-miterlimit="10" stroke-width="2" stroke-dasharray="11 5"/>
        </g>
        <path id="路径_38459" data-name="路径 38459" d="M1244.886-68.37l-127.528,75,147.421,85.421L1467.74-29.109l-120.9-60.862" transform="translate(-224.482 -27.36)" fill="none" stroke="#000" stroke-miterlimit="10" stroke-width="2"/>
        <path id="路径_38460" data-name="路径 38460" d="M1252.3-46.8,1152.143,10.566l121.128,66.707L1444.114-26.289l-90.219-43.779" transform="translate(-231.368 -31.299)" fill="none" stroke="#000" stroke-miterlimit="10" stroke-width="1"/>
        <line id="直线_456" data-name="直线 456" y1="25.786" transform="translate(811.9 143.641)" fill="none" stroke="#000" stroke-miterlimit="10" stroke-width="2"/>
        <path id="路径_38461" data-name="路径 38461" d="M1016.4,223.495V205.411l6.832-4.65" transform="translate(-204.499 -84.906)" fill="none" stroke="#000" stroke-miterlimit="10" stroke-width="2"/>
        <line id="直线_457" data-name="直线 457" y1="11.147" x2="18.092" transform="translate(824.989 101.322)" fill="none" stroke="#000" stroke-miterlimit="10" stroke-width="2"/>
        <line id="直线_458" data-name="直线 458" x2="24.566" y2="15.133" transform="translate(816.206 78.082)" fill="none" stroke="#000" stroke-miterlimit="10" stroke-width="2"/>
        <line id="直线_459" data-name="直线 459" x2="21.815" y2="13.376" transform="translate(788.65 61.434)" fill="none" stroke="#000" stroke-miterlimit="10" stroke-width="2"/>
        <line id="直线_460" data-name="直线 460" x2="19.231" y2="11.424" transform="translate(762.932 46.623)" fill="none" stroke="#000" stroke-miterlimit="10" stroke-width="2"/>
        <line id="直线_461" data-name="直线 461" x1="23.422" y1="14.352" transform="translate(733.54 28.827)" fill="none" stroke="#000" stroke-miterlimit="10" stroke-width="2"/>
        <line id="直线_462" data-name="直线 462" x1="12.4" y1="7.865" transform="translate(714.997 17.747)" fill="none" stroke="#000" stroke-miterlimit="10" stroke-width="2"/>
        <line id="直线_463" data-name="直线 463" x1="10.792" y2="7.693" transform="translate(712.873 4.371)" fill="none" stroke="#000" stroke-miterlimit="10" stroke-width="2"/>
        <line id="直线_464" data-name="直线 464" y1="14.754" x2="24.283" transform="translate(730.268 -13.712)" fill="none" stroke="#000" stroke-miterlimit="10" stroke-width="2"/>
        <line id="直线_465" data-name="直线 465" y1="12.974" x2="22.389" transform="translate(760.119 -30.13)" fill="none" stroke="#000" stroke-miterlimit="10" stroke-width="2"/>
        <line id="直线_466" data-name="直线 466" y1="15.5" x2="25.833" transform="translate(789.282 -49.132)" fill="none" stroke="#000" stroke-miterlimit="10" stroke-width="2"/>
        <line id="直线_467" data-name="直线 467" x1="20.781" y2="12.4" transform="translate(822.176 -65.148)" fill="none" stroke="#000" stroke-miterlimit="10" stroke-width="2"/>
        <line id="直线_468" data-name="直线 468" y1="15.041" x2="24.8" transform="translate(849.502 -83.633)" fill="none" stroke="#000" stroke-miterlimit="10" stroke-width="2"/>
        <line id="直线_469" data-name="直线 469" y1="16.189" x2="26.866" transform="translate(881.851 -103.389)" fill="none" stroke="#000" stroke-miterlimit="10" stroke-width="2"/>
        <line id="直线_470" data-name="直线 470" x2="19.231" y2="11.194" transform="translate(916.642 -105.523)" fill="none" stroke="#000" stroke-miterlimit="10" stroke-width="2"/>
        <line id="直线_471" data-name="直线 471" x2="21.585" y2="12.228" transform="translate(942.303 -91.171)" fill="none" stroke="#000" stroke-miterlimit="10" stroke-width="2"/>
        <line id="直线_472" data-name="直线 472" x2="7.332" y2="4.703" transform="translate(970.088 -75.155)" fill="none" stroke="#000" stroke-miterlimit="10" stroke-width="2"/>
        <path id="路径_38462" data-name="路径 38462" d="M17.963,165.526l-34.726,84.962,105.055,55.8,140.876-22.733L264.3,204.677,162.346,144.055Z" transform="translate(0 -73.682)" fill="none" stroke="#231815" stroke-miterlimit="10" stroke-width="2"/>
        <path id="路径_38463" data-name="路径 38463" d="M27.894,175.113l-31.344,74.4L95.06,300.49l130.888-23.078,30.311-67.51L163.6,154.791Z" transform="translate(-2.635 -75.807)" fill="none" stroke="#231815" stroke-miterlimit="10" stroke-width="1.2"/>
        <path id="路径_38464" data-name="路径 38464" d="M901.908,324.442l-16.755-9.793H823.039L684.23,397.2v37.659l12.629,7.693" transform="translate(-138.751 -107.448)" fill="none" stroke="#000" stroke-miterlimit="10" stroke-width="3"/>
        <ellipse id="椭圆_1805" data-name="椭圆 1805" cx="6.056" cy="3.961" rx="6.056" ry="3.961" transform="translate(558.108 333.668)" fill="none" stroke="#231815" stroke-miterlimit="10" stroke-width="3"/>
        <ellipse id="椭圆_1806" data-name="椭圆 1806" cx="6.627" cy="4.621" rx="6.627" ry="4.621" transform="translate(784.011 228.326)" fill="none" stroke="#000" stroke-miterlimit="10" stroke-width="3"/>
        <path id="路径_38465" data-name="路径 38465" d="M887.185,366.594l-31.11-.335-84.883,51.013v18.733l85.636,50.512h30.357l85.217-51.47V417.44Z" transform="translate(-155.964 -117.664)" fill="none" stroke="#fff" stroke-miterlimit="10" stroke-width="0.5"/>
        <path id="路径_38466" data-name="路径 38466" d="M946.473,350.722l89.079,54.336V441.54L896.4,524.837H835.132l-93-55.8" transform="translate(-150.212 -114.588)" fill="none" stroke="#000" stroke-miterlimit="10" stroke-width="3"/>
        <g id="组_21622" data-name="组 21622" transform="translate(749.065 82.743)">
          <path id="路径_38467" data-name="路径 38467" d="M938.057,285.295l143.5-85.881V166.348" transform="translate(-938.057 -160.837)" fill="none" stroke="#000" stroke-miterlimit="10" stroke-width="2"/>
          <path id="路径_38468" data-name="路径 38468" d="M1179.5,179.8l-41.1,24.8h-27.1L953.8,298.088" transform="translate(-941.174 -163.5)" fill="none" stroke="#000" stroke-miterlimit="10" stroke-width="2"/>
          <line id="直线_473" data-name="直线 473" y1="56.029" x2="94.147" transform="translate(29.601 86.684)" fill="none" stroke="#000" stroke-miterlimit="10" stroke-width="2"/>
          <path id="路径_38469" data-name="路径 38469" d="M998.94,325.11l138.408-82.321h31.861" transform="translate(-950.108 -175.967)" fill="none" stroke="#000" stroke-miterlimit="10" stroke-width="2"/>
          <path id="路径_38470" data-name="路径 38470" d="M1013.684,340.243l130.353-77.557h30.387" transform="translate(-953.026 -179.906)" fill="none" stroke="#000" stroke-miterlimit="10" stroke-width="2"/>
          <line id="直线_474" data-name="直线 474" y1="68.716" x2="115.101" transform="translate(76.674 100.347)" fill="none" stroke="#000" stroke-miterlimit="10" stroke-width="2"/>
          <path id="路径_38471" data-name="路径 38471" d="M1052.62,355.372l142.426-84.887,24.972-3.979,26.867-15.844" transform="translate(-960.733 -177.526)" fill="none" stroke="#000" stroke-miterlimit="10" stroke-width="2"/>
          <line id="直线_475" data-name="直线 475" y1="56.144" x2="94.377" transform="translate(106.354 131.002)" fill="none" stroke="#000" stroke-miterlimit="10" stroke-width="2"/>
          <path id="路径_38472" data-name="路径 38472" d="M1089.123,376.18,1223.8,296.1l40.3-6.372,45.122-27.039" transform="translate(-967.958 -179.906)" fill="none" stroke="#000" stroke-miterlimit="10" stroke-width="2"/>
          <path id="路径_38473" data-name="路径 38473" d="M1107.962,397.534l113.407-67.683,39.4-5.755,33.411,19.633" transform="translate(-971.687 -192.061)" fill="none" stroke="#000" stroke-miterlimit="10" stroke-width="2"/>
          <ellipse id="椭圆_1807" data-name="椭圆 1807" cx="3.387" cy="2.459" rx="3.387" ry="2.459" transform="translate(140.224)" fill="none" stroke="#000" stroke-miterlimit="10" stroke-width="2"/>
          <ellipse id="椭圆_1808" data-name="椭圆 1808" cx="3.387" cy="2.459" rx="3.387" ry="2.459" transform="translate(236.824 12.341)" fill="none" stroke="#000" stroke-miterlimit="10" stroke-width="2"/>
          <ellipse id="椭圆_1809" data-name="椭圆 1809" cx="3.387" cy="2.586" rx="3.387" ry="2.586" transform="translate(220.467 63.138)" fill="none" stroke="#000" stroke-miterlimit="10" stroke-width="2"/>
          <ellipse id="椭圆_1810" data-name="椭圆 1810" cx="3.387" cy="2.586" rx="3.387" ry="2.586" transform="translate(122.944 82.781)" fill="none" stroke="#000" stroke-miterlimit="10" stroke-width="2"/>
          <ellipse id="椭圆_1811" data-name="椭圆 1811" cx="3.387" cy="2.586" rx="3.387" ry="2.586" transform="translate(221.231 80.195)" fill="none" stroke="#000" stroke-miterlimit="10" stroke-width="2"/>
          <ellipse id="椭圆_1812" data-name="椭圆 1812" cx="3.387" cy="2.586" rx="3.387" ry="2.586" transform="translate(191.255 96.67)" fill="none" stroke="#000" stroke-miterlimit="10" stroke-width="2"/>
          <ellipse id="椭圆_1813" data-name="椭圆 1813" cx="3.387" cy="2.586" rx="3.387" ry="2.586" transform="translate(200.211 127.411)" fill="none" stroke="#000" stroke-miterlimit="10" stroke-width="2"/>
          <ellipse id="椭圆_1814" data-name="椭圆 1814" cx="3.387" cy="2.586" rx="3.387" ry="2.586" transform="translate(285.092 69.257)" fill="none" stroke="#000" stroke-miterlimit="10" stroke-width="2"/>
          <ellipse id="椭圆_1815" data-name="椭圆 1815" cx="3.387" cy="2.586" rx="3.387" ry="2.586" transform="translate(340.146 79.036)" fill="none" stroke="#000" stroke-miterlimit="10" stroke-width="2"/>
          <ellipse id="椭圆_1816" data-name="椭圆 1816" cx="3.387" cy="2.586" rx="3.387" ry="2.586" transform="translate(320.922 150.805)" fill="none" stroke="#000" stroke-miterlimit="10" stroke-width="2"/>
        </g>
        <g id="组_21623" data-name="组 21623" transform="translate(334.649 327.96)">
          <path id="路径_38474" data-name="路径 38474" d="M818.493,567.153,675,653.034V686.1" transform="translate(-471.573 -485.388)" fill="none" stroke="#231815" stroke-miterlimit="10" stroke-width="2"/>
          <path id="路径_38475" data-name="路径 38475" d="M556.762,672.808l41.1-24.8h27.1l157.5-93.484" transform="translate(-448.17 -482.888)" fill="none" stroke="#231815" stroke-miterlimit="10" stroke-width="2"/>
          <line id="直线_476" data-name="直线 476" x1="94.147" y2="56.029" transform="translate(223.172 63.51)" fill="none" stroke="#231815" stroke-miterlimit="10" stroke-width="2"/>
          <path id="路径_38476" data-name="路径 38476" d="M754.835,533.242l-143.6,85.41H579.374" transform="translate(-452.646 -478.676)" fill="none" stroke="#231815" stroke-miterlimit="10" stroke-width="2"/>
          <path id="路径_38477" data-name="路径 38477" d="M739.817,521.73,608.182,599.84H577.871" transform="translate(-452.348 -476.397)" fill="none" stroke="#231815" stroke-miterlimit="10" stroke-width="2"/>
          <line id="直线_477" data-name="直线 477" x1="116.73" y2="69.689" transform="translate(155.145 36.188)" fill="none" stroke="#231815" stroke-miterlimit="10" stroke-width="2"/>
          <path id="路径_38478" data-name="路径 38478" d="M694.156,498.872,548.974,585.136,524,589.116,497.136,604.96" transform="translate(-436.368 -471.873)" fill="none" stroke="#231815" stroke-miterlimit="10" stroke-width="2"/>
          <line id="直线_478" data-name="直线 478" x1="94.377" y2="56.144" transform="translate(146.189 19.077)" fill="none" stroke="#231815" stroke-miterlimit="10" stroke-width="2"/>
          <path id="路径_38479" data-name="路径 38479" d="M645.939,479.53,513.846,558.076l-40.3,6.372-45.122,27.039" transform="translate(-422.768 -468.044)" fill="none" stroke="#231815" stroke-miterlimit="10" stroke-width="2"/>
          <path id="路径_38480" data-name="路径 38480" d="M638.23,465.21,524.638,533.643l-39.4,5.755L451.83,519.764" transform="translate(-427.4 -465.21)" fill="none" stroke="#231815" stroke-miterlimit="10" stroke-width="2"/>
          <ellipse id="椭圆_1817" data-name="椭圆 1817" cx="3.387" cy="2.459" rx="3.387" ry="2.459" transform="translate(199.922 201.305)" fill="none" stroke="#231815" stroke-miterlimit="10" stroke-width="2"/>
          <ellipse id="椭圆_1818" data-name="椭圆 1818" cx="3.387" cy="2.459" rx="3.387" ry="2.459" transform="translate(103.321 188.964)" fill="none" stroke="#231815" stroke-miterlimit="10" stroke-width="2"/>
          <ellipse id="椭圆_1819" data-name="椭圆 1819" cx="3.387" cy="2.586" rx="3.387" ry="2.586" transform="translate(119.679 137.914)" fill="none" stroke="#231815" stroke-miterlimit="10" stroke-width="2"/>
          <ellipse id="椭圆_1820" data-name="椭圆 1820" cx="3.387" cy="2.586" rx="3.387" ry="2.586" transform="translate(217.202 118.271)" fill="none" stroke="#231815" stroke-miterlimit="10" stroke-width="2"/>
          <ellipse id="椭圆_1821" data-name="椭圆 1821" cx="3.387" cy="2.586" rx="3.387" ry="2.586" transform="translate(118.915 120.857)" fill="none" stroke="#231815" stroke-miterlimit="10" stroke-width="2"/>
          <ellipse id="椭圆_1822" data-name="椭圆 1822" cx="3.387" cy="2.586" rx="3.387" ry="2.586" transform="translate(148.891 104.382)" fill="none" stroke="#231815" stroke-miterlimit="10" stroke-width="2"/>
          <ellipse id="椭圆_1823" data-name="椭圆 1823" cx="3.387" cy="2.586" rx="3.387" ry="2.586" transform="translate(139.935 73.641)" fill="none" stroke="#231815" stroke-miterlimit="10" stroke-width="2"/>
          <ellipse id="椭圆_1824" data-name="椭圆 1824" cx="3.387" cy="2.586" rx="3.387" ry="2.586" transform="translate(55.054 131.795)" fill="none" stroke="#231815" stroke-miterlimit="10" stroke-width="2"/>
          <ellipse id="椭圆_1825" data-name="椭圆 1825" cx="3.387" cy="2.586" rx="3.387" ry="2.586" transform="translate(0 122.016)" fill="none" stroke="#231815" stroke-miterlimit="10" stroke-width="2"/>
          <ellipse id="椭圆_1826" data-name="椭圆 1826" cx="3.387" cy="2.586" rx="3.387" ry="2.586" transform="translate(19.224 50.247)" fill="none" stroke="#231815" stroke-miterlimit="10" stroke-width="2"/>
        </g>
        <g id="组_21624" data-name="组 21624" transform="translate(749.503 328.444)">
          <path id="路径_38481" data-name="路径 38481" d="M938.6,567.018l114.01,68.2,10.1,22.618-33.3,20.207" transform="translate(-938.603 -485.845)" fill="none" stroke="#231815" stroke-miterlimit="10" stroke-width="2"/>
          <path id="路径_38482" data-name="路径 38482" d="M957.5,556l135.136,80.37,10.218,23.307L1148.434,687" transform="translate(-942.343 -483.663)" fill="none" stroke="#231815" stroke-miterlimit="10" stroke-width="2"/>
          <line id="直线_479" data-name="直线 479" x2="94.836" y2="56.374" transform="translate(30.655 63.377)" fill="none" stroke="#231815" stroke-miterlimit="10" stroke-width="2"/>
          <path id="路径_38483" data-name="路径 38483" d="M996.005,533.379l142.943,85.192,6.889,15.155,26.637,15.959" transform="translate(-949.965 -479.187)" fill="none" stroke="#231815" stroke-miterlimit="10" stroke-width="2"/>
          <line id="直线_480" data-name="直线 480" x2="116.766" y2="69.462" transform="translate(60.851 45.351)" fill="none" stroke="#231815" stroke-miterlimit="10" stroke-width="2"/>
          <path id="路径_38484" data-name="路径 38484" d="M1033.51,511.191,1163.479,588.8V607.06" transform="translate(-957.388 -474.795)" fill="none" stroke="#231815" stroke-miterlimit="10" stroke-width="2"/>
          <path id="路径_38485" data-name="路径 38485" d="M1052.549,499.6l143.058,86v18.255" transform="translate(-961.157 -472.5)" fill="none" stroke="#231815" stroke-miterlimit="10" stroke-width="2"/>
          <line id="直线_481" data-name="直线 481" x2="93.114" y2="55.799" transform="translate(106.547 18.141)" fill="none" stroke="#231815" stroke-miterlimit="10" stroke-width="2"/>
          <path id="路径_38486" data-name="路径 38486" d="M1090.2,477.122l155.687,92.884v15.729l40.644,24.226" transform="translate(-968.609 -468.051)" fill="none" stroke="#231815" stroke-miterlimit="10" stroke-width="2"/>
          <path id="路径_38487" data-name="路径 38487" d="M1107.962,465.813l144.309,85.766H1309.1" transform="translate(-972.125 -465.813)" fill="none" stroke="#231815" stroke-miterlimit="10" stroke-width="2"/>
          <ellipse id="椭圆_1827" data-name="椭圆 1827" cx="3.363" cy="2.594" rx="3.363" ry="2.594" transform="translate(231.311 131.347)" fill="none" stroke="#231815" stroke-miterlimit="10" stroke-width="2"/>
          <ellipse id="椭圆_1828" data-name="椭圆 1828" cx="3.363" cy="2.594" rx="3.363" ry="2.594" transform="translate(202.728 132.265)" fill="none" stroke="#231815" stroke-miterlimit="10" stroke-width="2"/>
          <ellipse id="椭圆_1829" data-name="椭圆 1829" cx="3.363" cy="2.102" rx="3.363" ry="2.102" transform="translate(221.705 169.723)" fill="none" stroke="#231815" stroke-miterlimit="10" stroke-width="2"/>
          <ellipse id="椭圆_1830" data-name="椭圆 1830" cx="3.363" cy="2.102" rx="3.363" ry="2.102" transform="translate(316.698 141.265)" fill="none" stroke="#231815" stroke-miterlimit="10" stroke-width="2"/>
          <ellipse id="椭圆_1831" data-name="椭圆 1831" cx="3.363" cy="2.102" rx="3.363" ry="2.102" transform="translate(336.978 83.664)" fill="none" stroke="#231815" stroke-miterlimit="10" stroke-width="2"/>
          <ellipse id="椭圆_1832" data-name="椭圆 1832" cx="3.769" cy="2.356" rx="3.769" ry="2.356" transform="translate(175.967 114.198)" fill="none" stroke="#231815" stroke-miterlimit="10" stroke-width="2"/>
          <ellipse id="椭圆_1833" data-name="椭圆 1833" cx="3.769" cy="2.356" rx="3.769" ry="2.356" transform="translate(198.552 73.134)" fill="none" stroke="#231815" stroke-miterlimit="10" stroke-width="2"/>
          <ellipse id="椭圆_1834" data-name="椭圆 1834" cx="3.769" cy="2.356" rx="3.769" ry="2.356" transform="translate(124.351 119.146)" fill="none" stroke="#231815" stroke-miterlimit="10" stroke-width="2"/>
          <ellipse id="椭圆_1835" data-name="椭圆 1835" cx="3.769" cy="2.356" rx="3.769" ry="2.356" transform="translate(205.711 202.513)" fill="none" stroke="#231815" stroke-miterlimit="10" stroke-width="2"/>
          <ellipse id="椭圆_1836" data-name="椭圆 1836" cx="3.769" cy="2.356" rx="3.769" ry="2.356" transform="translate(84.263 191.779)" fill="none" stroke="#231815" stroke-miterlimit="10" stroke-width="2"/>
        </g>
        <g id="组_21625" data-name="组 21625" transform="translate(338.036 81.141)">
          <path id="路径_38488" data-name="路径 38488" d="M823.489,287.24l-114.01-68.2-10.1-22.618,33.3-20.207" transform="translate(-479.785 -161.189)" fill="none" stroke="#231815" stroke-miterlimit="10" stroke-width="2"/>
          <path id="路径_38489" data-name="路径 38489" d="M788.1,293.333l-135.136-80.37-10.219-23.307L597.167,162.33" transform="translate(-459.555 -158.44)" fill="none" stroke="#231815" stroke-miterlimit="10" stroke-width="2"/>
          <line id="直线_482" data-name="直线 482" x1="94.836" y1="56.374" transform="translate(218.212 87.474)" fill="none" stroke="#231815" stroke-miterlimit="10" stroke-width="2"/>
          <path id="路径_38490" data-name="路径 38490" d="M753.166,319.577,610.223,234.385l-6.889-15.155L576.7,203.27" transform="translate(-455.503 -166.544)" fill="none" stroke="#231815" stroke-miterlimit="10" stroke-width="2"/>
          <line id="直线_483" data-name="直线 483" x1="116.766" y1="69.462" transform="translate(166.087 92.411)" fill="none" stroke="#231815" stroke-miterlimit="10" stroke-width="2"/>
          <path id="路径_38491" data-name="路径 38491" d="M727.137,346.808,597.167,269.194V250.938" transform="translate(-459.555 -175.979)" fill="none" stroke="#231815" stroke-miterlimit="10" stroke-width="2"/>
          <path id="路径_38492" data-name="路径 38492" d="M704.868,356.335l-143.058-86V252.084" transform="translate(-452.556 -176.206)" fill="none" stroke="#231815" stroke-miterlimit="10" stroke-width="2"/>
          <line id="直线_484" data-name="直线 484" x1="93.114" y1="55.799" transform="translate(144.042 133.285)" fill="none" stroke="#231815" stroke-miterlimit="10" stroke-width="2"/>
          <path id="路径_38493" data-name="路径 38493" d="M654.073,371.754,535.224,300.848l-36.839-21.978V263.14l-40.644-24.226" transform="translate(-431.957 -173.599)" fill="none" stroke="#231815" stroke-miterlimit="10" stroke-width="2"/>
          <path id="路径_38494" data-name="路径 38494" d="M635.121,394.679,490.812,308.913H433.979" transform="translate(-427.254 -187.454)" fill="none" stroke="#231815" stroke-miterlimit="10" stroke-width="2"/>
          <ellipse id="椭圆_1837" data-name="椭圆 1837" cx="3.363" cy="2.594" rx="3.363" ry="2.594" transform="translate(105.667 70.69)" fill="none" stroke="#231815" stroke-miterlimit="10" stroke-width="2"/>
          <ellipse id="椭圆_1838" data-name="椭圆 1838" cx="3.363" cy="2.594" rx="3.363" ry="2.594" transform="translate(134.25 69.772)" fill="none" stroke="#231815" stroke-miterlimit="10" stroke-width="2"/>
          <ellipse id="椭圆_1839" data-name="椭圆 1839" cx="3.363" cy="2.102" rx="3.363" ry="2.102" transform="translate(115.274 33.298)" fill="none" stroke="#231815" stroke-miterlimit="10" stroke-width="2"/>
          <ellipse id="椭圆_1840" data-name="椭圆 1840" cx="3.363" cy="2.102" rx="3.363" ry="2.102" transform="translate(20.28 61.757)" fill="none" stroke="#231815" stroke-miterlimit="10" stroke-width="2"/>
          <ellipse id="椭圆_1841" data-name="椭圆 1841" cx="3.363" cy="2.102" rx="3.363" ry="2.102" transform="translate(0 119.357)" fill="none" stroke="#231815" stroke-miterlimit="10" stroke-width="2"/>
          <ellipse id="椭圆_1842" data-name="椭圆 1842" cx="3.769" cy="2.356" rx="3.769" ry="2.356" transform="translate(160.198 88.315)" fill="none" stroke="#231815" stroke-miterlimit="10" stroke-width="2"/>
          <ellipse id="椭圆_1843" data-name="椭圆 1843" cx="3.769" cy="2.356" rx="3.769" ry="2.356" transform="translate(137.613 129.379)" fill="none" stroke="#231815" stroke-miterlimit="10" stroke-width="2"/>
          <ellipse id="椭圆_1844" data-name="椭圆 1844" cx="3.769" cy="2.356" rx="3.769" ry="2.356" transform="translate(211.813 83.367)" fill="none" stroke="#231815" stroke-miterlimit="10" stroke-width="2"/>
          <ellipse id="椭圆_1845" data-name="椭圆 1845" cx="3.769" cy="2.356" rx="3.769" ry="2.356" transform="translate(130.454)" fill="none" stroke="#231815" stroke-miterlimit="10" stroke-width="2"/>
          <ellipse id="椭圆_1846" data-name="椭圆 1846" cx="3.769" cy="2.356" rx="3.769" ry="2.356" transform="translate(251.901 10.734)" fill="none" stroke="#231815" stroke-miterlimit="10" stroke-width="2"/>
        </g>
        <path id="矩形_2283" data-name="矩形 2283" d="M8.125,0h6.139a8.125,8.125,0,0,1,8.125,8.125v8.753a0,0,0,0,1,0,0H0a0,0,0,0,1,0,0V8.125A8.125,8.125,0,0,1,8.125,0Z" transform="translate(1059.814 -146.526)" fill="none" stroke="#000" stroke-miterlimit="10" stroke-width="2"/>
        <line id="直线_485" data-name="直线 485" y2="5.942" transform="translate(1071.482 -122.716)" fill="none" stroke="#000" stroke-linecap="round" stroke-miterlimit="10" stroke-width="2"/>
        <line id="直线_486" data-name="直线 486" x1="1.851" transform="translate(1070.111 -53.936)" fill="none" stroke="#000" stroke-linecap="round" stroke-miterlimit="10" stroke-width="3"/>
        <g id="组_21626" data-name="组 21626" transform="translate(1194.715 205.797)">
          <path id="路径_38495" data-name="路径 38495" d="M1541.735,367.616s-83.945,5.622-29.923,52.427c0,0-36.436,23.969,6.518,51.676s93.057-.381,93.057-.381l158.762-91.381s38.388-28.088-.011-54.673-91.755-2.615-95.008.755c0,0-60.526-28.08-111.928-.74C1563.2,325.3,1527.414,343.651,1541.735,367.616Z" transform="translate(-1493.686 -312.898)" fill="none" stroke="#000" stroke-miterlimit="10" stroke-width="2"/>
          <path id="路径_38496" data-name="路径 38496" d="M1902.88,476l-127.53,73.4-86.234-49.611,127.53-73.4Z" transform="translate(-1532.368 -335.361)" fill="none" stroke="#000" stroke-miterlimit="10" stroke-width="2"/>
          <path id="路径_38497" data-name="路径 38497" d="M1881.338,487.193,1794.8,537l-110.965-63.839,86.538-49.81Z" transform="translate(-1531.323 -334.762)" fill="none" stroke="#000" stroke-miterlimit="10" stroke-width="2"/>
          <path id="路径_38498" data-name="路径 38498" d="M1830.246,499.132l9.437,5.429c3.5,2.016,3.505,5.286,0,7.3h0a14.066,14.066,0,0,1-12.69,0l-9.437-5.429-4.325-1.676c-5.091.44-10.465-.467-14.384-2.722-6.56-3.774-6.561-9.893,0-13.668s17.192-3.775,23.752,0c4.225,2.43,5.729,5.834,4.512,8.958Z" transform="translate(-1553.115 -347.07)" fill="none" stroke="#000" stroke-miterlimit="10" stroke-width="2"/>
        </g>
      </g>
    </g>
  </g>
</svg>
