<svg xmlns="http://www.w3.org/2000/svg" xmlns:xlink="http://www.w3.org/1999/xlink" width="1820" height="880" viewBox="0 0 1820 880">
  <defs>
    <clipPath id="clip-path">
      <rect id="矩形_2284" data-name="矩形 2284" width="1820" height="880" transform="translate(50 89)" fill="#fff"/>
    </clipPath>
  </defs>
  <g id="banner_jp" transform="translate(-50 -89)">
    <g id="组_21710" data-name="组 21710" transform="translate(40 -29)">
      <path id="路径_40409" data-name="路径 40409" d="M255.32-31.46a5.745,5.745,0,0,1,.832-.052c.468,0,.468,0,1.456.052,1.144,0,5.72.1,6.552.1,0,0,.676-.052.884-.052a2.544,2.544,0,0,0-.416.676,68.869,68.869,0,0,1-6.24,8.892,31.856,31.856,0,0,1-4.68,4.628l4.732,4.68a23.381,23.381,0,0,1,4.524-4.732c4-3.536,7.644-5.356,10.66-5.356a2.854,2.854,0,0,1,3.172,2.808c-5.876,2.444-8.84,4.42-11.18,7.332a8.287,8.287,0,0,0-2.288,5.772A7.54,7.54,0,0,0,267.124,0c2.652,1.56,6.084,2.184,11.6,2.184a94.315,94.315,0,0,0,13.312-.936,15.322,15.322,0,0,1,2.392-.208l-.52-6.708c-3.692,1.4-9.048,2.184-15.288,2.184-6.292,0-8.788-1.092-8.788-3.8,0-1.508.884-2.912,2.7-4.264a31.6,31.6,0,0,1,4.992-2.7V-13a41.165,41.165,0,0,1-.312,6.032l6.032-.156a21.349,21.349,0,0,1-.156-2.756c0-.364,0-.832.052-1.716v-2.08c0-.728,0-.728-.052-2.08v-.572q6.708-2.34,7.8-2.652a45.9,45.9,0,0,1,5.772-1.4l-2.444-5.98c-.832.52-1.04.572-3.848,1.56q-1.95.624-7.956,2.808c-.832-3.588-3.38-5.512-7.436-5.512a12.57,12.57,0,0,0-7.332,2.34c-.676.52-.676.52-1.04.78l-.052-.1a26.908,26.908,0,0,0,4.784-6.916c5.252-.156,11.856-.572,15.652-1.04,2.652-.312,2.652-.312,4.108-.416l-.364-5.928c-2.86.832-7.592,1.4-13.624,1.768-2.86.156-2.86.156-3.276.208.1-.208.208-.364.468-.936a39.723,39.723,0,0,1,2.08-4.68l-6.812-.728a20.593,20.593,0,0,1-2.08,6.448c-6.6,0-9.932-.208-12.064-.676Zm83.512-7.7a42.317,42.317,0,0,1-5.616-.26v5.408a34.015,34.015,0,0,1,5.252-.26h2.34l-4.316,1.56a27.272,27.272,0,0,1,2.288,6.24h-1.612c-1.768,0-3.484-.1-5.044-.26v5.564a54.009,54.009,0,0,1,5.564-.26H356.72a40.077,40.077,0,0,1,5.564.26v-5.564a36.486,36.486,0,0,1-5.3.26h-2.912a61.316,61.316,0,0,0,2.7-6.24l-4.94-1.56h3.848a32,32,0,0,1,5.252.26v-5.408a42.692,42.692,0,0,1-5.668.26H349.6a35.4,35.4,0,0,0-1.976-4.992l-5.46,1.664a20.245,20.245,0,0,1,1.508,3.328Zm12.792,4.888a34.336,34.336,0,0,1-3.016,7.8h-9l4.16-1.4a36.524,36.524,0,0,0-2.5-6.4ZM316-5.148a48.581,48.581,0,0,1-.26,6.188H321V-3.952h5.044v2.7h5.148c-.1-1.4-.156-2.288-.156-4.212V-37.076c0-1.716.052-2.756.156-4.16a27.45,27.45,0,0,1-4.108.208H319.7a27.953,27.953,0,0,1-3.9-.208A51.283,51.283,0,0,1,316-35.984Zm5.044-30.732h5.044v10.712h-5.044Zm0,15.548h5.044V-9.1h-5.044ZM334.776-1.716a41.371,41.371,0,0,1-.26,5.928h5.512V1.924h13.416V4.16h5.668a36.047,36.047,0,0,1-.312-5.928V-14.612a32.637,32.637,0,0,1,.208-4.524,34.567,34.567,0,0,1-4.784.208H339.3a35.766,35.766,0,0,1-4.68-.208c.1,1.3.156,2.444.156,4.42Zm5.252-12.636h13.416v3.432H340.028Zm0,7.852h13.416v3.64H340.028Zm47.684-12.428a72.891,72.891,0,0,1-3.64,8.84c1.456-.156,4.212-.26,6.344-.26h20.9c-.52,4.524-1.092,6.864-1.872,7.9-.624.78-1.768,1.092-4.212,1.092-1.976,0-5.72-.312-9.308-.728a13.489,13.489,0,0,1,1.4,5.564c3.276.26,4.94.312,7.644.312,5.72,0,7.592-.52,9.256-2.548,1.4-1.716,2.34-5.46,3.224-12.844.416-3.536.416-3.536.468-3.744a43.282,43.282,0,0,1-5.356.208l-20.332.052,1.56-3.848H418.08a47.029,47.029,0,0,1,6.136.312v-5.616a46.482,46.482,0,0,1-6.136.312H382.72a45.067,45.067,0,0,1-6.084-.312v5.616a46.914,46.914,0,0,1,6.032-.312ZM383.24-31.252a37.633,37.633,0,0,1-.208,4.42,48.416,48.416,0,0,1,5.356-.208h24.024a47.229,47.229,0,0,1,5.356.208,35.964,35.964,0,0,1-.208-4.42v-6.76a34.175,34.175,0,0,1,.208-4.316,40.926,40.926,0,0,1-5.928.26H388.908a49.266,49.266,0,0,1-5.876-.26,36.36,36.36,0,0,1,.208,4.316Zm28.6-5.928v5.356H388.8V-37.18ZM452.3-30.316c2.132-4.836,2.548-5.824,3.744-9.048.468-1.3.676-1.82,1.144-2.912L451.1-43.992a39.584,39.584,0,0,1-5.252,12.9,45.252,45.252,0,0,1-7.28,9.2,26.072,26.072,0,0,1,2.756,6.136,53.944,53.944,0,0,0,5.356-6.76c-.1,3.848-.1,4.056-.1,5.824V-2.5a55.556,55.556,0,0,1-.364,6.708h6.4c-.208-2.184-.312-4.524-.312-6.656V-13.416a17.628,17.628,0,0,1,3.432,5.044c2.7-1.248,3.536-1.664,5.564-2.756v8.372c0,4.732,1.56,5.616,9.932,5.616,8.528,0,11.336-.572,12.948-2.5,1.248-1.612,1.976-5.044,2.392-11.492a21.074,21.074,0,0,1-5.616-2.028c-.26,6.292-.572,8.32-1.456,9.516-.676.832-2.5,1.144-7.176,1.144-4.264,0-5.148-.312-5.148-1.716V-14.768c6.864-4.888,11.128-9.1,17.888-17.732.572-.728.676-.832,1.092-1.352L480.584-37.7a35.161,35.161,0,0,1-4.472,6.916,43.858,43.858,0,0,1-8.944,8.892v-15.08a48.274,48.274,0,0,1,.312-6.24h-6.5a48.826,48.826,0,0,1,.312,6.24v18.98a42.517,42.517,0,0,1-9,4Zm57.512-11.232a25.861,25.861,0,0,1,.208,3.536c0,.728,0,1.82-.052,3.38-.312,13.052-.416,18.252-.416,20.956,0,6.968,1.508,10.972,5.1,13.364a16.953,16.953,0,0,0,9.1,2.288c6.552,0,11.7-2.184,15.6-6.6,2.548-2.86,4.108-6.24,6.188-13.26a22.458,22.458,0,0,1-6.292-4,34.859,34.859,0,0,1-2.392,8.736c-2.444,5.72-6.968,8.892-12.584,8.892-3.276,0-5.772-.988-6.968-2.7-1.04-1.56-1.352-3.432-1.352-8.372,0-3.692.312-14.248.52-19.084a47.532,47.532,0,0,1,.624-7.02ZM565.5-7.8A55.968,55.968,0,0,1,576.784,4.056L581.62-.468a60.781,60.781,0,0,0-11.7-11.44Z" transform="translate(180 502)" fill="#0080f4"/>
      <path id="路径_40411" data-name="路径 40411" d="M5-9.6a4.159,4.159,0,0,0-3.1,1.2A5.137,5.137,0,0,0,.54-4.656c0,3.048,1.752,5,4.476,5S9.5-1.62,9.5-4.656A5.175,5.175,0,0,0,8.16-8.4,4.205,4.205,0,0,0,5-9.6ZM5.04-1.08a2.591,2.591,0,0,1-1.86-.732,3.965,3.965,0,0,1-.972-2.832c0-2.172,1.092-3.54,2.82-3.54a2.583,2.583,0,0,1,1.848.732,3.876,3.876,0,0,1,.948,2.8C7.824-2.448,6.756-1.08,5.04-1.08ZM36.576-9.408a9.767,9.767,0,0,1,.1,1.644V-3.54a2.191,2.191,0,0,1-2.436,2.484,2.2,2.2,0,0,1-2.46-2.472V-7.764a9.41,9.41,0,0,1,.1-1.644H30.084a9.858,9.858,0,0,1,.1,1.644v4.236a3.865,3.865,0,0,0,.9,2.76A4.134,4.134,0,0,0,34.176.36c2.616,0,4.092-1.392,4.092-3.876v-4.26a9.7,9.7,0,0,1,.1-1.632ZM67.332.144c-.168-.324-.468-.972-.564-1.188C65.58-3.852,65.352-4.188,64.6-4.428a2.537,2.537,0,0,0,1.332-.7,2.467,2.467,0,0,0,.612-1.788c0-1.584-1.044-2.5-2.868-2.5h-2.88c-.66,0-1.032-.012-1.536-.036a10.677,10.677,0,0,1,.1,1.56v6.468a9.391,9.391,0,0,1-.1,1.56h1.788a9.364,9.364,0,0,1-.1-1.572V-3.876h1.788c.924,0,1.344.444,1.992,2.1a9.714,9.714,0,0,1,.624,1.92ZM60.948-5.244v-2.8h2.46c.984,0,1.476.444,1.476,1.308A1.424,1.424,0,0,1,64.5-5.676a1.617,1.617,0,0,1-1.14.432ZM116.7.144a9.771,9.771,0,0,1,.528-1.6l1.8-4.224a14.644,14.644,0,0,0,.552-1.752c-.012.18-.048.792-.1,1.836v3.984a11.156,11.156,0,0,1-.1,1.752h1.68a10.4,10.4,0,0,1-.1-1.752V-7.632a12.427,12.427,0,0,1,.1-1.776H118.86a6.65,6.65,0,0,1-.432,1.428L116-2.028,113.568-7.98a8.305,8.305,0,0,1-.444-1.428h-2.2a11.9,11.9,0,0,1,.1,1.776v6.024a11.254,11.254,0,0,1-.1,1.752h1.68a10.964,10.964,0,0,1-.1-1.752V-5.544c0-.264-.048-1.248-.1-1.884a13.354,13.354,0,0,0,.612,1.836l1.728,4.116a8.169,8.169,0,0,1,.528,1.62Zm25.272-9.552a8.966,8.966,0,0,1,.1,1.548V-1.4a9.055,9.055,0,0,1-.1,1.548H143.8a9.055,9.055,0,0,1-.1-1.548V-7.86a8.966,8.966,0,0,1,.1-1.548Zm22.4,6.756a4.1,4.1,0,0,0,.228,1A2.825,2.825,0,0,0,165.66-.288a4.825,4.825,0,0,0,2.52.624,3.977,3.977,0,0,0,2.868-.912,2.792,2.792,0,0,0,.756-2.04,2.368,2.368,0,0,0-1-2.064,5.283,5.283,0,0,0-1.956-.732,10.216,10.216,0,0,1-1.692-.432,1.141,1.141,0,0,1-.816-1.092c0-.78.708-1.308,1.752-1.308a1.9,1.9,0,0,1,1.5.576,1.55,1.55,0,0,1,.36.852l1.716-.2a3.235,3.235,0,0,0-.588-1.392A3.537,3.537,0,0,0,168.1-9.624c-2.064,0-3.408,1.08-3.408,2.748a2.362,2.362,0,0,0,.924,1.944,4.242,4.242,0,0,0,1.812.732,7.566,7.566,0,0,1,2.088.588,1.218,1.218,0,0,1,.6,1.1c0,.9-.72,1.44-1.92,1.44a2.13,2.13,0,0,1-1.752-.708,1.72,1.72,0,0,1-.336-1.056Zm27.78,0a4.1,4.1,0,0,0,.228,1A2.825,2.825,0,0,0,193.44-.288a4.825,4.825,0,0,0,2.52.624,3.977,3.977,0,0,0,2.868-.912,2.792,2.792,0,0,0,.756-2.04,2.368,2.368,0,0,0-1-2.064,5.283,5.283,0,0,0-1.956-.732,10.216,10.216,0,0,1-1.692-.432,1.141,1.141,0,0,1-.816-1.092c0-.78.708-1.308,1.752-1.308a1.9,1.9,0,0,1,1.5.576,1.55,1.55,0,0,1,.36.852l1.716-.2a3.235,3.235,0,0,0-.588-1.392,3.537,3.537,0,0,0-2.988-1.212c-2.064,0-3.408,1.08-3.408,2.748a2.362,2.362,0,0,0,.924,1.944A4.242,4.242,0,0,0,195.2-4.2a7.566,7.566,0,0,1,2.088.588,1.218,1.218,0,0,1,.6,1.1c0,.9-.72,1.44-1.92,1.44a2.13,2.13,0,0,1-1.752-.708,1.72,1.72,0,0,1-.336-1.056Zm28.092-6.756a8.966,8.966,0,0,1,.1,1.548V-1.4a9.055,9.055,0,0,1-.1,1.548h1.824a9.055,9.055,0,0,1-.1-1.548V-7.86a8.966,8.966,0,0,1,.1-1.548ZM247.116-9.6a4.159,4.159,0,0,0-3.1,1.2,5.137,5.137,0,0,0-1.368,3.744c0,3.048,1.752,5,4.476,5s4.488-1.968,4.488-5A5.175,5.175,0,0,0,250.272-8.4,4.205,4.205,0,0,0,247.116-9.6Zm.036,8.52a2.591,2.591,0,0,1-1.86-.732,3.965,3.965,0,0,1-.972-2.832c0-2.172,1.092-3.54,2.82-3.54a2.583,2.583,0,0,1,1.848.732,3.876,3.876,0,0,1,.948,2.8C249.936-2.448,248.868-1.08,247.152-1.08ZM280.368.144a9.055,9.055,0,0,1-.1-1.548V-7.752a10.493,10.493,0,0,1,.1-1.656h-1.752a10.489,10.489,0,0,1,.1,1.656V-3.72c0,.5.036,1.224.084,1.692-.264-.48-.648-1.1-.936-1.536l-3.036-4.572a6.582,6.582,0,0,1-.732-1.272H272.22a9.993,9.993,0,0,1,.1,1.548v6.192a12.983,12.983,0,0,1-.1,1.812h1.752a13.282,13.282,0,0,1-.1-1.8V-5.592c0-.276-.024-.816-.036-1.044-.036-.444-.036-.444-.048-.612.288.564.588,1.08.816,1.44l3.1,4.668a11.958,11.958,0,0,1,.768,1.284Z" transform="translate(180 396)"/>
      <path id="路径_40410" data-name="路径 40410" d="M45.188-39.78c-1.456.416-1.924.468-5.044.468H13a41.456,41.456,0,0,1-7.176-.416v6.5A49.984,49.984,0,0,1,12.9-33.54H40.2a21.564,21.564,0,0,1-4.94,6.6,24.113,24.113,0,0,1-7.592,4.784,17.575,17.575,0,0,1,4.68,4.732,32.526,32.526,0,0,0,6.24-4.316,33,33,0,0,0,8.008-10.452c1.352-2.7,1.352-2.756,2.08-3.64Zm-24.7,10.5a13.167,13.167,0,0,1,.26,3.12c0,9.828-1.664,14.3-6.968,18.512a23.976,23.976,0,0,1-9.1,4.42A18.356,18.356,0,0,1,8.788,2.7c6.5-2.7,10.3-5.356,13.416-9.36,3.536-4.524,4.94-9.516,5.148-18.408a23.873,23.873,0,0,1,.208-4.212Zm86.06-3.848c-1.2.52-1.248.572-4,.884L83.616-29.952V-36.5a25.3,25.3,0,0,1,.312-4.836H76.752a25.844,25.844,0,0,1,.312,4.94v7.124l-5.512.676a41.036,41.036,0,0,1-4.576.364c-.26,0-.676,0-1.248-.052L66.4-21.84a30.424,30.424,0,0,1,5.772-.988l4.888-.624v11.908c0,4.16.052,4.94.52,6.552A6.8,6.8,0,0,0,82.056-.208a35.878,35.878,0,0,0,9.256.884,115.842,115.842,0,0,0,12.9-.884,31.443,31.443,0,0,1,3.172-.208l-.312-7.02A57.58,57.58,0,0,1,91.1-5.408c-5.3,0-6.968-.572-7.332-2.6a23.234,23.234,0,0,1-.208-4.472v-11.7c5.408-.78,10.764-1.456,16.016-2.08.78-.1,1.144-.156,1.976-.312-.936,1.56-1.248,2.028-1.976,3.068A26.261,26.261,0,0,1,91-16.172a17.2,17.2,0,0,1,5.2,4.212,37.915,37.915,0,0,0,12.74-15.184,12.833,12.833,0,0,1,1.456-2.548Zm26.572,4.836A52.024,52.024,0,0,1,137.852-15.7l5.876-1.872a59.982,59.982,0,0,0-5.1-12.324Zm11.128-2.184a57.181,57.181,0,0,1,4.732,12.22l5.772-1.82a51.084,51.084,0,0,0-5.044-11.96Zm17.888-.52a23.066,23.066,0,0,1-.936,5.98c-2.236,8.32-5.72,13.624-11.8,18.044a33.73,33.73,0,0,1-8.84,4.784,18.888,18.888,0,0,1,4.16,5.148c7.7-3.9,12.012-7.28,15.86-12.532,3.328-4.524,5.668-10.244,7.176-17.316a10.942,10.942,0,0,1,.728-2.652ZM208.1,2.34a57.164,57.164,0,0,1-.208-5.772V-17.16a26.886,26.886,0,0,0-.208-3.536,16.8,16.8,0,0,0,1.768.884c8.684,4,14.092,6.968,18.408,9.932l3.64-6.136A152.772,152.772,0,0,0,207.9-26.988V-36.66a34.857,34.857,0,0,1,.208-5.46H200.98a33.423,33.423,0,0,1,.312,5.3V-3.484a35.029,35.029,0,0,1-.312,5.824ZM37.388,97.452v3.172h6.968a34.3,34.3,0,0,1-.26-5.356V66.72a31.548,31.548,0,0,1,.156-4.316c-1.82.1-1.82.1-4.524.1H14.716a34.953,34.953,0,0,1-6.708-.364V68.9a50.886,50.886,0,0,1,6.656-.26H37.44V91.316H13.78a33.431,33.431,0,0,1-6.5-.364V97.66a58.125,58.125,0,0,1,6.4-.208Zm36.556-33.02a137.173,137.173,0,0,1,28.392,5.98l2.08-6.4A173.334,173.334,0,0,0,76.284,58.4Zm-.832,14.3A114.355,114.355,0,0,1,86.268,81.02a89.38,89.38,0,0,1,14.3,4.16l2.028-6.4A163.407,163.407,0,0,0,75.5,72.752ZM68.9,93.344A144.673,144.673,0,0,1,85.228,96.36a95.4,95.4,0,0,1,18.408,5.824l2.236-6.552a162.786,162.786,0,0,0-34.528-8.216Zm89.908,2.08c.884-4.68,1.456-8.372,2.236-14.092.572-4.316.572-4.316,1.2-5.928l-2.86-2.5a11.6,11.6,0,0,1-3.848.468H142.376a29.726,29.726,0,0,1-4.784-.312V78.94a33.4,33.4,0,0,1,4.628-.208h12.9c-.52,4.732-1.612,12.064-2.5,16.692H137.28a23.485,23.485,0,0,1-4.784-.312v5.928a38.644,38.644,0,0,1,4.784-.208h26.988a39.731,39.731,0,0,1,4.784.208V95.112a23.184,23.184,0,0,1-4.784.312ZM196.82,70.932a44.858,44.858,0,0,1,6.084-.26h20.54a44.858,44.858,0,0,1,6.084.26V64.068a32.342,32.342,0,0,1-6.136.364H202.956a32.342,32.342,0,0,1-6.136-.364ZM191.568,96.36a51.525,51.525,0,0,1,6.552-.26h30.056a51.525,51.525,0,0,1,6.552.26V89.392a36.292,36.292,0,0,1-6.656.364H198.224a36.292,36.292,0,0,1-6.656-.364Zm99.32-17.576a51.452,51.452,0,0,1,6.6.26V72.856a36.937,36.937,0,0,1-6.708.364h-30.42a36.6,36.6,0,0,1-6.708-.364v6.188a51.452,51.452,0,0,1,6.6-.26h12.688a22.083,22.083,0,0,1-2.288,9.828c-2.184,4-6.084,6.76-12.324,8.684a16.5,16.5,0,0,1,4.212,5.72c7.02-2.808,10.816-5.668,13.572-10.244,2.236-3.692,3.38-8.008,3.64-13.988ZM258.908,66.1a48.988,48.988,0,0,1,6.6-.26h20.176a48.988,48.988,0,0,1,6.6.26V59.752a35.278,35.278,0,0,1-6.708.364H265.616a35.278,35.278,0,0,1-6.708-.364Zm90.116.312a19.5,19.5,0,0,1-3.172,3.744,59.32,59.32,0,0,1-14.768,10.556,55.462,55.462,0,0,1-12.324,4.68,21.276,21.276,0,0,1,3.224,5.408,73.361,73.361,0,0,0,14.716-6.6V98.128a31.177,31.177,0,0,1-.26,4.94l6.708.052a30.713,30.713,0,0,1-.26-4.992V80.448a69.586,69.586,0,0,0,9.672-8.528,10.14,10.14,0,0,1,1.768-1.716Zm40.872-8.06a22.1,22.1,0,0,1,.832,3.38,132.488,132.488,0,0,0,3.484,14.092,32.1,32.1,0,0,0-7.072,4.472,12.212,12.212,0,0,0-4.628,9.308,9.842,9.842,0,0,0,4.524,8.684c3.328,1.976,7.852,2.86,15.08,2.86a109.892,109.892,0,0,0,12.168-.78A32.416,32.416,0,0,1,418.5,100l-.572-7.124c-3.9,1.352-10.3,2.132-16.8,2.132-8.372,0-11.908-1.612-11.908-5.408,0-3.744,3.8-7.072,11.388-9.88a127.054,127.054,0,0,1,17.16-4.992l-2.236-6.552a14.23,14.23,0,0,1-1.976.78c-10.088,3.328-10.088,3.328-13.468,4.576a87.331,87.331,0,0,1-3.432-16.276Zm51.9,17.212a18.97,18.97,0,0,1,4.16-1.456c8.372-2.5,15.08-3.692,20.488-3.692a13.551,13.551,0,0,1,6.708,1.4,7.615,7.615,0,0,1,3.952,6.76,11.465,11.465,0,0,1-.572,3.692c-1.04,3.068-4.108,6.032-7.852,7.7-4.42,1.924-8.788,2.7-17.108,3.068a22.539,22.539,0,0,1,2.652,6.708c9.516-1.04,13.572-1.976,18.3-4.316,7.384-3.588,11.544-9.568,11.544-16.64,0-8.84-6.708-14.612-17-14.612-6.032,0-8.84.416-20.7,2.964a37.17,37.17,0,0,1-6.084,1.04ZM515.06,56.892a53.127,53.127,0,0,1-1.56,9.048c-1.144.052-2.028.052-2.652.052a36.106,36.106,0,0,1-7.02-.468v5.928l2.756.052c1.092.052,1.4.052,2.08.052.624,0,.936,0,3.276-.052a80,80,0,0,1-4.888,12.272,47.333,47.333,0,0,1-5.044,8.32l5.98,3.328c.312-.624.312-.624.988-1.872,1.976-3.64,2.444-4.576,3.64-7.124a99.81,99.81,0,0,0,5.72-15.08c3.224-.26,6.4-.624,8.268-.936a10.137,10.137,0,0,1,1.664-.26l-.156-5.98a44.6,44.6,0,0,1-8.32,1.456c.572-2.288.832-3.328,1.092-4.576a26.03,26.03,0,0,1,.832-3.484Zm33.28,13.52a82.084,82.084,0,0,0-14.664-6.968l-3.12,5.044a63.642,63.642,0,0,1,14.976,7.28Zm-.208,23.452a9.32,9.32,0,0,1-.78-.728,19.173,19.173,0,0,0-1.82-1.4,32.489,32.489,0,0,0-8.216-4.784,55.208,55.208,0,0,1-.468-7.124,17.332,17.332,0,0,1,.624-5.252l-6.032-.312a27.58,27.58,0,0,0-.416,5.252c0,1.56.1,3.588.26,5.98a25.829,25.829,0,0,0-4.836-.468c-6.6,0-11.232,3.692-11.232,8.944,0,5.3,4.472,8.736,11.336,8.736,3.692,0,6.812-1.04,8.632-2.912a8.31,8.31,0,0,0,2.236-5.512c0-.208-.052-.572-.1-1.04a31.45,31.45,0,0,1,7.956,6.448ZM531.492,91s.1,1.248.1,1.768c0,2.912-1.716,4.368-5.252,4.368-3.224,0-5.1-1.248-5.1-3.38,0-2.184,2.184-3.588,5.564-3.588A13.108,13.108,0,0,1,531.492,91ZM598,70.464a32.47,32.47,0,0,1,3.692,6.136A48.883,48.883,0,0,1,605.8,88.3l5.928-2.964a49.729,49.729,0,0,0-8.476-17.472Zm-2.548-9.776A31.08,31.08,0,0,1,600.34,67.6l4.056-2.132a29.249,29.249,0,0,0-4.888-6.812Zm14.82,1.768a30.608,30.608,0,0,0-4.836-6.5l-3.9,2.028a35.769,35.769,0,0,1,4.784,6.708Zm-33.228-4.784v.936a78.981,78.981,0,0,1-1.352,10.5A110.019,110.019,0,0,1,564.616,70.2l.624,6.136a92.018,92.018,0,0,1,9.308-1.716A86.565,86.565,0,0,1,569.5,89.34a53.055,53.055,0,0,1-5.408,9.776l6.032,3.328c.26-.468.26-.572.416-.884.52-1.04.52-1.04.78-1.508a117.844,117.844,0,0,0,6.24-14.612,114.119,114.119,0,0,0,3.172-11.284c1.2-.1,1.976-.156,3.016-.156,4.108,0,5.3,1.4,5.3,6.188A46.205,46.205,0,0,1,587.7,92.044c-.78,2.548-1.612,3.536-3.12,3.536a21.768,21.768,0,0,1-7.592-2.08,19.533,19.533,0,0,1,.52,4.42c0,.52-.052,1.3-.1,2.288a24.107,24.107,0,0,0,8.008,1.56c2.756,0,4.316-.624,5.772-2.34,2.5-2.86,4-9.984,4-18.928,0-4.732-.676-7.228-2.444-9.2-1.716-1.82-4.264-2.756-7.7-2.756-.988,0-1.716.052-3.224.1.156-.676.156-.728.364-1.872.728-3.9.728-3.9.884-5.044.156-.78.208-1.04.312-1.768.1-.52.26-1.092.416-1.612Zm58.812-.52a12.221,12.221,0,0,1-.156,1.768l-.78,6.448c-.416,3.588-.728,9.36-.728,13.572,0,1.04.1,4.888.156,6.4v.988A4.043,4.043,0,0,1,634.3,87l6.24-.1V85.8a24.932,24.932,0,0,1,6.552-16.8,7.739,7.739,0,0,1,5.616-2.756c4.472,0,6.968,4.16,6.968,11.648,0,7.9-2.756,12.844-8.788,15.912-3.172,1.612-6.188,2.392-11.388,2.964a19.89,19.89,0,0,1,3.068,6.136A44.347,44.347,0,0,0,652.756,100c8.736-3.848,13.416-11.336,13.416-21.372,0-6.136-1.144-10.348-3.744-13.832a10.889,10.889,0,0,0-8.892-4.68c-3.8,0-7.02,1.768-9.88,5.3a21.023,21.023,0,0,0-3.276,6.188,11.415,11.415,0,0,1-.312,1.144h-.156c.1-1.248.312-3.016.676-5.2.988-6.916,1.248-8.268,1.872-10.036Zm97.292,37.336c-.728-.416-.988-.624-1.872-1.2-5.616-3.952-9.672-5.98-14.248-7.332-.052-1.248-.052-1.248-.208-6.292,2.028-.1,2.808-.156,3.536-.208,3.9-.364,6.24-.624,7.02-.728,1.2-.156,2.5-.312,3.38-.364l-.156-5.72a38.484,38.484,0,0,1-6.448,1.144c-4.784.52-4.784.52-7.384.676-.052-3.224-.052-3.848-.1-5.148,4.576-.26,6.6-.416,11.18-1.04a32.525,32.525,0,0,1,4.108-.468l-.26-5.772c-3.38.988-7.9,1.56-14.976,1.976a32.237,32.237,0,0,1,.364-6.344h-6.6c.208,1.3.208,1.352.26,6.552-1.3.052-3.068.1-3.9.1-5.98,0-11.336-.416-13.988-1.092l-.052,5.772h.832c.156,0,.572,0,1.144.052,3.484.26,10.192.52,12.74.52.78,0,1.612,0,3.276-.052.052,2.964.052,4.732.052,5.2-1.456.052-3.224.1-4.264.1a67.053,67.053,0,0,1-12.116-.884l-.1,5.616c.78,0,1.3,0,1.976.052,4.316.312,6.24.364,9.412.364,1.092,0,2.7-.052,5.2-.1.052,2.08.052,2.08.1,2.808v1.144a10.019,10.019,0,0,1,.052,1.248,27.167,27.167,0,0,0-3.484-.208c-8.736,0-13.884,3.328-13.884,9,0,5.148,4.368,8.112,11.96,8.112,3.8,0,6.6-.728,8.58-2.236s2.912-3.744,2.912-7.02v-.572a23.137,23.137,0,0,1,2.808,1.3,35.087,35.087,0,0,1,9.62,7.124Zm-21.944-4v1.248a6.592,6.592,0,0,1-.624,3.328c-.728,1.04-2.34,1.664-4.524,1.664-3.692,0-5.928-1.2-5.928-3.12,0-2.236,2.548-3.588,6.76-3.588A18.251,18.251,0,0,1,711.2,90.484ZM782.34,72.336v-3.38c4.108-.1,5.044-.1,6.292-.1,4.316,0,6.812.1,8.736.26l-.052-5.98c-1.924.208-5.98.312-15.028.364a40.881,40.881,0,0,1,.26-6.188L776,57.36c.26,1.352.26,1.352.312,6.292-2.7.1-2.7.1-4.42.156-4.264.1-4.784.1-8.164.208-6.708.26-7.54.26-8.84.26a22.643,22.643,0,0,1-2.548-.1l.208,6.188c1.4-.208,1.4-.208,9.256-.78,2.288-.156,7.176-.312,14.612-.52,0,1.4,0,4.316.052,4.42a2.143,2.143,0,0,0,.052.624,8.69,8.69,0,0,0-5.408-1.56c-6.032,0-10.348,3.952-10.348,9.464a8.125,8.125,0,0,0,3.588,7.02A9.583,9.583,0,0,0,770.38,90.9c3.432,0,6.136-1.3,7.644-3.692-.416,2.912-2.5,5.564-6.032,7.592-2.444,1.456-4.576,2.184-8.84,3.016a17.066,17.066,0,0,1,3.692,5.876c4.836-1.664,7.228-2.756,9.412-4.264C781.3,95.944,784,91.056,784,85.388a15.824,15.824,0,0,0-1.664-7.332c0-.624-.052-1.04-.052-1.248Zm-5.98,8.58c0,2.7-2.132,4.68-5.1,4.68a4.1,4.1,0,0,1-4.42-4.108c0-2.288,2.184-4.16,4.836-4.16C774.54,77.328,776.36,78.732,776.36,80.916Z" transform="translate(180 502)"/>
    </g>
    <g id="蒙版组_33" data-name="蒙版组 33" clip-path="url(#clip-path)">
      <g id="bg" transform="translate(593.966 137.526)" opacity="0.06">
        <g id="组_21620" data-name="组 21620" transform="translate(552.34 642.069)">
          <path id="路径_38454" data-name="路径 38454" d="M974.923,856.855l-41.776,23.29,59.442,35.771L916.5,959.608l40.261,25.179,118.075-67.8Z" transform="translate(-737.066 -856.839)" fill="none" stroke="#231815" stroke-miterlimit="10" stroke-width="2"/>
          <path id="路径_38455" data-name="路径 38455" d="M792.713,984.784l41.781-23.293-59.449-35.776,76.1-43.7-40.266-25.182-118.09,67.813Z" transform="translate(-692.785 -856.835)" fill="none" stroke="#231815" stroke-miterlimit="10" stroke-width="2"/>
        </g>
        <path id="路径_38456" data-name="路径 38456" d="M620.954,959.488l217.228,132.864,206.091-122.416-32.144-21" transform="translate(-126.227 -232.996)" fill="none" stroke="#231815" stroke-miterlimit="10" stroke-width="2" stroke-dasharray="15 5"/>
        <ellipse id="椭圆_1799" data-name="椭圆 1799" cx="9.182" cy="5.831" rx="9.182" ry="5.831" transform="translate(238.014 497.65)" fill="#231815"/>
        <ellipse id="椭圆_1800" data-name="椭圆 1800" cx="6.803" cy="4.32" rx="6.803" ry="4.32" transform="translate(483.568 719.982)" fill="none" stroke="#231815" stroke-miterlimit="10" stroke-width="2"/>
        <ellipse id="椭圆_1801" data-name="椭圆 1801" cx="9.182" cy="5.831" rx="9.182" ry="5.831" transform="translate(702.486 851.999)" fill="#231815"/>
        <ellipse id="椭圆_1802" data-name="椭圆 1802" cx="9.182" cy="5.831" rx="9.182" ry="5.831" transform="translate(1170.115 497.571)" fill="#231815"/>
        <ellipse id="椭圆_1803" data-name="椭圆 1803" cx="9.182" cy="5.831" rx="9.182" ry="5.831" transform="translate(835.872 93.215)"/>
        <ellipse id="椭圆_1804" data-name="椭圆 1804" cx="9.182" cy="5.831" rx="9.182" ry="5.831" transform="translate(704.006 8.599)" fill="#231815"/>
        <path id="路径_38457" data-name="路径 38457" d="M1617.878,523.339l15.476,9.62-99.2,59.847-96.673,59.7-149.6-89.544" transform="translate(-258.235 -148.755)" fill="none" stroke="#000" stroke-miterlimit="10" stroke-width="2" stroke-dasharray="11 5"/>
        <path id="路径_38458" data-name="路径 38458" d="M243.628,126.461,371.81,47.5l149.6,89.544" transform="translate(-51.541 -54.571)" fill="none" stroke="#231815" stroke-miterlimit="10" stroke-width="2" stroke-dasharray="11 5"/>
        <g id="组_21621" data-name="组 21621" transform="translate(244.16 453.534)">
          <line id="直线_454" data-name="直线 454" x2="311.077" y2="189.85" transform="translate(0 49.947)" fill="none" stroke="#231815" stroke-miterlimit="10" stroke-width="2" stroke-dasharray="12 5"/>
          <line id="直线_455" data-name="直线 455" x1="91.209" y2="49.947" fill="none" stroke="#231815" stroke-miterlimit="10" stroke-width="2" stroke-dasharray="11 5"/>
        </g>
        <path id="路径_38459" data-name="路径 38459" d="M1244.886-68.37l-127.528,75,147.421,85.421L1467.74-29.109l-120.9-60.862" transform="translate(-224.482 -27.36)" fill="none" stroke="#000" stroke-miterlimit="10" stroke-width="2"/>
        <path id="路径_38460" data-name="路径 38460" d="M1252.3-46.8,1152.143,10.566l121.128,66.707L1444.114-26.289l-90.219-43.779" transform="translate(-231.368 -31.299)" fill="none" stroke="#000" stroke-miterlimit="10" stroke-width="1"/>
        <line id="直线_456" data-name="直线 456" y1="25.786" transform="translate(811.9 143.641)" fill="none" stroke="#000" stroke-miterlimit="10" stroke-width="2"/>
        <path id="路径_38461" data-name="路径 38461" d="M1016.4,223.495V205.411l6.832-4.65" transform="translate(-204.499 -84.906)" fill="none" stroke="#000" stroke-miterlimit="10" stroke-width="2"/>
        <line id="直线_457" data-name="直线 457" y1="11.147" x2="18.092" transform="translate(824.989 101.322)" fill="none" stroke="#000" stroke-miterlimit="10" stroke-width="2"/>
        <line id="直线_458" data-name="直线 458" x2="24.566" y2="15.133" transform="translate(816.206 78.082)" fill="none" stroke="#000" stroke-miterlimit="10" stroke-width="2"/>
        <line id="直线_459" data-name="直线 459" x2="21.815" y2="13.376" transform="translate(788.65 61.434)" fill="none" stroke="#000" stroke-miterlimit="10" stroke-width="2"/>
        <line id="直线_460" data-name="直线 460" x2="19.231" y2="11.424" transform="translate(762.932 46.623)" fill="none" stroke="#000" stroke-miterlimit="10" stroke-width="2"/>
        <line id="直线_461" data-name="直线 461" x1="23.422" y1="14.352" transform="translate(733.54 28.827)" fill="none" stroke="#000" stroke-miterlimit="10" stroke-width="2"/>
        <line id="直线_462" data-name="直线 462" x1="12.4" y1="7.865" transform="translate(714.997 17.747)" fill="none" stroke="#000" stroke-miterlimit="10" stroke-width="2"/>
        <line id="直线_463" data-name="直线 463" x1="10.792" y2="7.693" transform="translate(712.873 4.371)" fill="none" stroke="#000" stroke-miterlimit="10" stroke-width="2"/>
        <line id="直线_464" data-name="直线 464" y1="14.754" x2="24.283" transform="translate(730.268 -13.712)" fill="none" stroke="#000" stroke-miterlimit="10" stroke-width="2"/>
        <line id="直线_465" data-name="直线 465" y1="12.974" x2="22.389" transform="translate(760.119 -30.13)" fill="none" stroke="#000" stroke-miterlimit="10" stroke-width="2"/>
        <line id="直线_466" data-name="直线 466" y1="15.5" x2="25.833" transform="translate(789.282 -49.132)" fill="none" stroke="#000" stroke-miterlimit="10" stroke-width="2"/>
        <line id="直线_467" data-name="直线 467" x1="20.781" y2="12.4" transform="translate(822.176 -65.148)" fill="none" stroke="#000" stroke-miterlimit="10" stroke-width="2"/>
        <line id="直线_468" data-name="直线 468" y1="15.041" x2="24.8" transform="translate(849.502 -83.633)" fill="none" stroke="#000" stroke-miterlimit="10" stroke-width="2"/>
        <line id="直线_469" data-name="直线 469" y1="16.189" x2="26.866" transform="translate(881.851 -103.389)" fill="none" stroke="#000" stroke-miterlimit="10" stroke-width="2"/>
        <line id="直线_470" data-name="直线 470" x2="19.231" y2="11.194" transform="translate(916.642 -105.523)" fill="none" stroke="#000" stroke-miterlimit="10" stroke-width="2"/>
        <line id="直线_471" data-name="直线 471" x2="21.585" y2="12.228" transform="translate(942.303 -91.171)" fill="none" stroke="#000" stroke-miterlimit="10" stroke-width="2"/>
        <line id="直线_472" data-name="直线 472" x2="7.332" y2="4.703" transform="translate(970.088 -75.155)" fill="none" stroke="#000" stroke-miterlimit="10" stroke-width="2"/>
        <path id="路径_38462" data-name="路径 38462" d="M17.963,165.526l-34.726,84.962,105.055,55.8,140.876-22.733L264.3,204.677,162.346,144.055Z" transform="translate(0 -73.682)" fill="none" stroke="#231815" stroke-miterlimit="10" stroke-width="2"/>
        <path id="路径_38463" data-name="路径 38463" d="M27.894,175.113l-31.344,74.4L95.06,300.49l130.888-23.078,30.311-67.51L163.6,154.791Z" transform="translate(-2.635 -75.807)" fill="none" stroke="#231815" stroke-miterlimit="10" stroke-width="1.2"/>
        <path id="路径_38464" data-name="路径 38464" d="M901.908,324.442l-16.755-9.793H823.039L684.23,397.2v37.659l12.629,7.693" transform="translate(-138.751 -107.448)" fill="none" stroke="#000" stroke-miterlimit="10" stroke-width="3"/>
        <ellipse id="椭圆_1805" data-name="椭圆 1805" cx="6.056" cy="3.961" rx="6.056" ry="3.961" transform="translate(558.108 333.668)" fill="none" stroke="#231815" stroke-miterlimit="10" stroke-width="3"/>
        <ellipse id="椭圆_1806" data-name="椭圆 1806" cx="6.627" cy="4.621" rx="6.627" ry="4.621" transform="translate(784.011 228.326)" fill="none" stroke="#000" stroke-miterlimit="10" stroke-width="3"/>
        <path id="路径_38465" data-name="路径 38465" d="M887.185,366.594l-31.11-.335-84.883,51.013v18.733l85.636,50.512h30.357l85.217-51.47V417.44Z" transform="translate(-155.964 -117.664)" fill="none" stroke="#fff" stroke-miterlimit="10" stroke-width="0.5"/>
        <path id="路径_38466" data-name="路径 38466" d="M946.473,350.722l89.079,54.336V441.54L896.4,524.837H835.132l-93-55.8" transform="translate(-150.212 -114.588)" fill="none" stroke="#000" stroke-miterlimit="10" stroke-width="3"/>
        <g id="组_21622" data-name="组 21622" transform="translate(749.065 82.743)">
          <path id="路径_38467" data-name="路径 38467" d="M938.057,285.295l143.5-85.881V166.348" transform="translate(-938.057 -160.837)" fill="none" stroke="#000" stroke-miterlimit="10" stroke-width="2"/>
          <path id="路径_38468" data-name="路径 38468" d="M1179.5,179.8l-41.1,24.8h-27.1L953.8,298.088" transform="translate(-941.174 -163.5)" fill="none" stroke="#000" stroke-miterlimit="10" stroke-width="2"/>
          <line id="直线_473" data-name="直线 473" y1="56.029" x2="94.147" transform="translate(29.601 86.684)" fill="none" stroke="#000" stroke-miterlimit="10" stroke-width="2"/>
          <path id="路径_38469" data-name="路径 38469" d="M998.94,325.11l138.408-82.321h31.861" transform="translate(-950.108 -175.967)" fill="none" stroke="#000" stroke-miterlimit="10" stroke-width="2"/>
          <path id="路径_38470" data-name="路径 38470" d="M1013.684,340.243l130.353-77.557h30.387" transform="translate(-953.026 -179.906)" fill="none" stroke="#000" stroke-miterlimit="10" stroke-width="2"/>
          <line id="直线_474" data-name="直线 474" y1="68.716" x2="115.101" transform="translate(76.674 100.347)" fill="none" stroke="#000" stroke-miterlimit="10" stroke-width="2"/>
          <path id="路径_38471" data-name="路径 38471" d="M1052.62,355.372l142.426-84.887,24.972-3.979,26.867-15.844" transform="translate(-960.733 -177.526)" fill="none" stroke="#000" stroke-miterlimit="10" stroke-width="2"/>
          <line id="直线_475" data-name="直线 475" y1="56.144" x2="94.377" transform="translate(106.354 131.002)" fill="none" stroke="#000" stroke-miterlimit="10" stroke-width="2"/>
          <path id="路径_38472" data-name="路径 38472" d="M1089.123,376.18,1223.8,296.1l40.3-6.372,45.122-27.039" transform="translate(-967.958 -179.906)" fill="none" stroke="#000" stroke-miterlimit="10" stroke-width="2"/>
          <path id="路径_38473" data-name="路径 38473" d="M1107.962,397.534l113.407-67.683,39.4-5.755,33.411,19.633" transform="translate(-971.687 -192.061)" fill="none" stroke="#000" stroke-miterlimit="10" stroke-width="2"/>
          <ellipse id="椭圆_1807" data-name="椭圆 1807" cx="3.387" cy="2.459" rx="3.387" ry="2.459" transform="translate(140.224)" fill="none" stroke="#000" stroke-miterlimit="10" stroke-width="2"/>
          <ellipse id="椭圆_1808" data-name="椭圆 1808" cx="3.387" cy="2.459" rx="3.387" ry="2.459" transform="translate(236.824 12.341)" fill="none" stroke="#000" stroke-miterlimit="10" stroke-width="2"/>
          <ellipse id="椭圆_1809" data-name="椭圆 1809" cx="3.387" cy="2.586" rx="3.387" ry="2.586" transform="translate(220.467 63.138)" fill="none" stroke="#000" stroke-miterlimit="10" stroke-width="2"/>
          <ellipse id="椭圆_1810" data-name="椭圆 1810" cx="3.387" cy="2.586" rx="3.387" ry="2.586" transform="translate(122.944 82.781)" fill="none" stroke="#000" stroke-miterlimit="10" stroke-width="2"/>
          <ellipse id="椭圆_1811" data-name="椭圆 1811" cx="3.387" cy="2.586" rx="3.387" ry="2.586" transform="translate(221.231 80.195)" fill="none" stroke="#000" stroke-miterlimit="10" stroke-width="2"/>
          <ellipse id="椭圆_1812" data-name="椭圆 1812" cx="3.387" cy="2.586" rx="3.387" ry="2.586" transform="translate(191.255 96.67)" fill="none" stroke="#000" stroke-miterlimit="10" stroke-width="2"/>
          <ellipse id="椭圆_1813" data-name="椭圆 1813" cx="3.387" cy="2.586" rx="3.387" ry="2.586" transform="translate(200.211 127.411)" fill="none" stroke="#000" stroke-miterlimit="10" stroke-width="2"/>
          <ellipse id="椭圆_1814" data-name="椭圆 1814" cx="3.387" cy="2.586" rx="3.387" ry="2.586" transform="translate(285.092 69.257)" fill="none" stroke="#000" stroke-miterlimit="10" stroke-width="2"/>
          <ellipse id="椭圆_1815" data-name="椭圆 1815" cx="3.387" cy="2.586" rx="3.387" ry="2.586" transform="translate(340.146 79.036)" fill="none" stroke="#000" stroke-miterlimit="10" stroke-width="2"/>
          <ellipse id="椭圆_1816" data-name="椭圆 1816" cx="3.387" cy="2.586" rx="3.387" ry="2.586" transform="translate(320.922 150.805)" fill="none" stroke="#000" stroke-miterlimit="10" stroke-width="2"/>
        </g>
        <g id="组_21623" data-name="组 21623" transform="translate(334.649 327.96)">
          <path id="路径_38474" data-name="路径 38474" d="M818.493,567.153,675,653.034V686.1" transform="translate(-471.573 -485.388)" fill="none" stroke="#231815" stroke-miterlimit="10" stroke-width="2"/>
          <path id="路径_38475" data-name="路径 38475" d="M556.762,672.808l41.1-24.8h27.1l157.5-93.484" transform="translate(-448.17 -482.888)" fill="none" stroke="#231815" stroke-miterlimit="10" stroke-width="2"/>
          <line id="直线_476" data-name="直线 476" x1="94.147" y2="56.029" transform="translate(223.172 63.51)" fill="none" stroke="#231815" stroke-miterlimit="10" stroke-width="2"/>
          <path id="路径_38476" data-name="路径 38476" d="M754.835,533.242l-143.6,85.41H579.374" transform="translate(-452.646 -478.676)" fill="none" stroke="#231815" stroke-miterlimit="10" stroke-width="2"/>
          <path id="路径_38477" data-name="路径 38477" d="M739.817,521.73,608.182,599.84H577.871" transform="translate(-452.348 -476.397)" fill="none" stroke="#231815" stroke-miterlimit="10" stroke-width="2"/>
          <line id="直线_477" data-name="直线 477" x1="116.73" y2="69.689" transform="translate(155.145 36.188)" fill="none" stroke="#231815" stroke-miterlimit="10" stroke-width="2"/>
          <path id="路径_38478" data-name="路径 38478" d="M694.156,498.872,548.974,585.136,524,589.116,497.136,604.96" transform="translate(-436.368 -471.873)" fill="none" stroke="#231815" stroke-miterlimit="10" stroke-width="2"/>
          <line id="直线_478" data-name="直线 478" x1="94.377" y2="56.144" transform="translate(146.189 19.077)" fill="none" stroke="#231815" stroke-miterlimit="10" stroke-width="2"/>
          <path id="路径_38479" data-name="路径 38479" d="M645.939,479.53,513.846,558.076l-40.3,6.372-45.122,27.039" transform="translate(-422.768 -468.044)" fill="none" stroke="#231815" stroke-miterlimit="10" stroke-width="2"/>
          <path id="路径_38480" data-name="路径 38480" d="M638.23,465.21,524.638,533.643l-39.4,5.755L451.83,519.764" transform="translate(-427.4 -465.21)" fill="none" stroke="#231815" stroke-miterlimit="10" stroke-width="2"/>
          <ellipse id="椭圆_1817" data-name="椭圆 1817" cx="3.387" cy="2.459" rx="3.387" ry="2.459" transform="translate(199.922 201.305)" fill="none" stroke="#231815" stroke-miterlimit="10" stroke-width="2"/>
          <ellipse id="椭圆_1818" data-name="椭圆 1818" cx="3.387" cy="2.459" rx="3.387" ry="2.459" transform="translate(103.321 188.964)" fill="none" stroke="#231815" stroke-miterlimit="10" stroke-width="2"/>
          <ellipse id="椭圆_1819" data-name="椭圆 1819" cx="3.387" cy="2.586" rx="3.387" ry="2.586" transform="translate(119.679 137.914)" fill="none" stroke="#231815" stroke-miterlimit="10" stroke-width="2"/>
          <ellipse id="椭圆_1820" data-name="椭圆 1820" cx="3.387" cy="2.586" rx="3.387" ry="2.586" transform="translate(217.202 118.271)" fill="none" stroke="#231815" stroke-miterlimit="10" stroke-width="2"/>
          <ellipse id="椭圆_1821" data-name="椭圆 1821" cx="3.387" cy="2.586" rx="3.387" ry="2.586" transform="translate(118.915 120.857)" fill="none" stroke="#231815" stroke-miterlimit="10" stroke-width="2"/>
          <ellipse id="椭圆_1822" data-name="椭圆 1822" cx="3.387" cy="2.586" rx="3.387" ry="2.586" transform="translate(148.891 104.382)" fill="none" stroke="#231815" stroke-miterlimit="10" stroke-width="2"/>
          <ellipse id="椭圆_1823" data-name="椭圆 1823" cx="3.387" cy="2.586" rx="3.387" ry="2.586" transform="translate(139.935 73.641)" fill="none" stroke="#231815" stroke-miterlimit="10" stroke-width="2"/>
          <ellipse id="椭圆_1824" data-name="椭圆 1824" cx="3.387" cy="2.586" rx="3.387" ry="2.586" transform="translate(55.054 131.795)" fill="none" stroke="#231815" stroke-miterlimit="10" stroke-width="2"/>
          <ellipse id="椭圆_1825" data-name="椭圆 1825" cx="3.387" cy="2.586" rx="3.387" ry="2.586" transform="translate(0 122.016)" fill="none" stroke="#231815" stroke-miterlimit="10" stroke-width="2"/>
          <ellipse id="椭圆_1826" data-name="椭圆 1826" cx="3.387" cy="2.586" rx="3.387" ry="2.586" transform="translate(19.224 50.247)" fill="none" stroke="#231815" stroke-miterlimit="10" stroke-width="2"/>
        </g>
        <g id="组_21624" data-name="组 21624" transform="translate(749.503 328.444)">
          <path id="路径_38481" data-name="路径 38481" d="M938.6,567.018l114.01,68.2,10.1,22.618-33.3,20.207" transform="translate(-938.603 -485.845)" fill="none" stroke="#231815" stroke-miterlimit="10" stroke-width="2"/>
          <path id="路径_38482" data-name="路径 38482" d="M957.5,556l135.136,80.37,10.218,23.307L1148.434,687" transform="translate(-942.343 -483.663)" fill="none" stroke="#231815" stroke-miterlimit="10" stroke-width="2"/>
          <line id="直线_479" data-name="直线 479" x2="94.836" y2="56.374" transform="translate(30.655 63.377)" fill="none" stroke="#231815" stroke-miterlimit="10" stroke-width="2"/>
          <path id="路径_38483" data-name="路径 38483" d="M996.005,533.379l142.943,85.192,6.889,15.155,26.637,15.959" transform="translate(-949.965 -479.187)" fill="none" stroke="#231815" stroke-miterlimit="10" stroke-width="2"/>
          <line id="直线_480" data-name="直线 480" x2="116.766" y2="69.462" transform="translate(60.851 45.351)" fill="none" stroke="#231815" stroke-miterlimit="10" stroke-width="2"/>
          <path id="路径_38484" data-name="路径 38484" d="M1033.51,511.191,1163.479,588.8V607.06" transform="translate(-957.388 -474.795)" fill="none" stroke="#231815" stroke-miterlimit="10" stroke-width="2"/>
          <path id="路径_38485" data-name="路径 38485" d="M1052.549,499.6l143.058,86v18.255" transform="translate(-961.157 -472.5)" fill="none" stroke="#231815" stroke-miterlimit="10" stroke-width="2"/>
          <line id="直线_481" data-name="直线 481" x2="93.114" y2="55.799" transform="translate(106.547 18.141)" fill="none" stroke="#231815" stroke-miterlimit="10" stroke-width="2"/>
          <path id="路径_38486" data-name="路径 38486" d="M1090.2,477.122l155.687,92.884v15.729l40.644,24.226" transform="translate(-968.609 -468.051)" fill="none" stroke="#231815" stroke-miterlimit="10" stroke-width="2"/>
          <path id="路径_38487" data-name="路径 38487" d="M1107.962,465.813l144.309,85.766H1309.1" transform="translate(-972.125 -465.813)" fill="none" stroke="#231815" stroke-miterlimit="10" stroke-width="2"/>
          <ellipse id="椭圆_1827" data-name="椭圆 1827" cx="3.363" cy="2.594" rx="3.363" ry="2.594" transform="translate(231.311 131.347)" fill="none" stroke="#231815" stroke-miterlimit="10" stroke-width="2"/>
          <ellipse id="椭圆_1828" data-name="椭圆 1828" cx="3.363" cy="2.594" rx="3.363" ry="2.594" transform="translate(202.728 132.265)" fill="none" stroke="#231815" stroke-miterlimit="10" stroke-width="2"/>
          <ellipse id="椭圆_1829" data-name="椭圆 1829" cx="3.363" cy="2.102" rx="3.363" ry="2.102" transform="translate(221.705 169.723)" fill="none" stroke="#231815" stroke-miterlimit="10" stroke-width="2"/>
          <ellipse id="椭圆_1830" data-name="椭圆 1830" cx="3.363" cy="2.102" rx="3.363" ry="2.102" transform="translate(316.698 141.265)" fill="none" stroke="#231815" stroke-miterlimit="10" stroke-width="2"/>
          <ellipse id="椭圆_1831" data-name="椭圆 1831" cx="3.363" cy="2.102" rx="3.363" ry="2.102" transform="translate(336.978 83.664)" fill="none" stroke="#231815" stroke-miterlimit="10" stroke-width="2"/>
          <ellipse id="椭圆_1832" data-name="椭圆 1832" cx="3.769" cy="2.356" rx="3.769" ry="2.356" transform="translate(175.967 114.198)" fill="none" stroke="#231815" stroke-miterlimit="10" stroke-width="2"/>
          <ellipse id="椭圆_1833" data-name="椭圆 1833" cx="3.769" cy="2.356" rx="3.769" ry="2.356" transform="translate(198.552 73.134)" fill="none" stroke="#231815" stroke-miterlimit="10" stroke-width="2"/>
          <ellipse id="椭圆_1834" data-name="椭圆 1834" cx="3.769" cy="2.356" rx="3.769" ry="2.356" transform="translate(124.351 119.146)" fill="none" stroke="#231815" stroke-miterlimit="10" stroke-width="2"/>
          <ellipse id="椭圆_1835" data-name="椭圆 1835" cx="3.769" cy="2.356" rx="3.769" ry="2.356" transform="translate(205.711 202.513)" fill="none" stroke="#231815" stroke-miterlimit="10" stroke-width="2"/>
          <ellipse id="椭圆_1836" data-name="椭圆 1836" cx="3.769" cy="2.356" rx="3.769" ry="2.356" transform="translate(84.263 191.779)" fill="none" stroke="#231815" stroke-miterlimit="10" stroke-width="2"/>
        </g>
        <g id="组_21625" data-name="组 21625" transform="translate(338.036 81.141)">
          <path id="路径_38488" data-name="路径 38488" d="M823.489,287.24l-114.01-68.2-10.1-22.618,33.3-20.207" transform="translate(-479.785 -161.189)" fill="none" stroke="#231815" stroke-miterlimit="10" stroke-width="2"/>
          <path id="路径_38489" data-name="路径 38489" d="M788.1,293.333l-135.136-80.37-10.219-23.307L597.167,162.33" transform="translate(-459.555 -158.44)" fill="none" stroke="#231815" stroke-miterlimit="10" stroke-width="2"/>
          <line id="直线_482" data-name="直线 482" x1="94.836" y1="56.374" transform="translate(218.212 87.474)" fill="none" stroke="#231815" stroke-miterlimit="10" stroke-width="2"/>
          <path id="路径_38490" data-name="路径 38490" d="M753.166,319.577,610.223,234.385l-6.889-15.155L576.7,203.27" transform="translate(-455.503 -166.544)" fill="none" stroke="#231815" stroke-miterlimit="10" stroke-width="2"/>
          <line id="直线_483" data-name="直线 483" x1="116.766" y1="69.462" transform="translate(166.087 92.411)" fill="none" stroke="#231815" stroke-miterlimit="10" stroke-width="2"/>
          <path id="路径_38491" data-name="路径 38491" d="M727.137,346.808,597.167,269.194V250.938" transform="translate(-459.555 -175.979)" fill="none" stroke="#231815" stroke-miterlimit="10" stroke-width="2"/>
          <path id="路径_38492" data-name="路径 38492" d="M704.868,356.335l-143.058-86V252.084" transform="translate(-452.556 -176.206)" fill="none" stroke="#231815" stroke-miterlimit="10" stroke-width="2"/>
          <line id="直线_484" data-name="直线 484" x1="93.114" y1="55.799" transform="translate(144.042 133.285)" fill="none" stroke="#231815" stroke-miterlimit="10" stroke-width="2"/>
          <path id="路径_38493" data-name="路径 38493" d="M654.073,371.754,535.224,300.848l-36.839-21.978V263.14l-40.644-24.226" transform="translate(-431.957 -173.599)" fill="none" stroke="#231815" stroke-miterlimit="10" stroke-width="2"/>
          <path id="路径_38494" data-name="路径 38494" d="M635.121,394.679,490.812,308.913H433.979" transform="translate(-427.254 -187.454)" fill="none" stroke="#231815" stroke-miterlimit="10" stroke-width="2"/>
          <ellipse id="椭圆_1837" data-name="椭圆 1837" cx="3.363" cy="2.594" rx="3.363" ry="2.594" transform="translate(105.667 70.69)" fill="none" stroke="#231815" stroke-miterlimit="10" stroke-width="2"/>
          <ellipse id="椭圆_1838" data-name="椭圆 1838" cx="3.363" cy="2.594" rx="3.363" ry="2.594" transform="translate(134.25 69.772)" fill="none" stroke="#231815" stroke-miterlimit="10" stroke-width="2"/>
          <ellipse id="椭圆_1839" data-name="椭圆 1839" cx="3.363" cy="2.102" rx="3.363" ry="2.102" transform="translate(115.274 33.298)" fill="none" stroke="#231815" stroke-miterlimit="10" stroke-width="2"/>
          <ellipse id="椭圆_1840" data-name="椭圆 1840" cx="3.363" cy="2.102" rx="3.363" ry="2.102" transform="translate(20.28 61.757)" fill="none" stroke="#231815" stroke-miterlimit="10" stroke-width="2"/>
          <ellipse id="椭圆_1841" data-name="椭圆 1841" cx="3.363" cy="2.102" rx="3.363" ry="2.102" transform="translate(0 119.357)" fill="none" stroke="#231815" stroke-miterlimit="10" stroke-width="2"/>
          <ellipse id="椭圆_1842" data-name="椭圆 1842" cx="3.769" cy="2.356" rx="3.769" ry="2.356" transform="translate(160.198 88.315)" fill="none" stroke="#231815" stroke-miterlimit="10" stroke-width="2"/>
          <ellipse id="椭圆_1843" data-name="椭圆 1843" cx="3.769" cy="2.356" rx="3.769" ry="2.356" transform="translate(137.613 129.379)" fill="none" stroke="#231815" stroke-miterlimit="10" stroke-width="2"/>
          <ellipse id="椭圆_1844" data-name="椭圆 1844" cx="3.769" cy="2.356" rx="3.769" ry="2.356" transform="translate(211.813 83.367)" fill="none" stroke="#231815" stroke-miterlimit="10" stroke-width="2"/>
          <ellipse id="椭圆_1845" data-name="椭圆 1845" cx="3.769" cy="2.356" rx="3.769" ry="2.356" transform="translate(130.454)" fill="none" stroke="#231815" stroke-miterlimit="10" stroke-width="2"/>
          <ellipse id="椭圆_1846" data-name="椭圆 1846" cx="3.769" cy="2.356" rx="3.769" ry="2.356" transform="translate(251.901 10.734)" fill="none" stroke="#231815" stroke-miterlimit="10" stroke-width="2"/>
        </g>
        <path id="矩形_2283" data-name="矩形 2283" d="M8.125,0h6.139a8.125,8.125,0,0,1,8.125,8.125v8.753a0,0,0,0,1,0,0H0a0,0,0,0,1,0,0V8.125A8.125,8.125,0,0,1,8.125,0Z" transform="translate(1059.814 -146.526)" fill="none" stroke="#000" stroke-miterlimit="10" stroke-width="2"/>
        <line id="直线_485" data-name="直线 485" y2="5.942" transform="translate(1071.482 -122.716)" fill="none" stroke="#000" stroke-linecap="round" stroke-miterlimit="10" stroke-width="2"/>
        <line id="直线_486" data-name="直线 486" x1="1.851" transform="translate(1070.111 -53.936)" fill="none" stroke="#000" stroke-linecap="round" stroke-miterlimit="10" stroke-width="3"/>
        <g id="组_21626" data-name="组 21626" transform="translate(1194.715 205.797)">
          <path id="路径_38495" data-name="路径 38495" d="M1541.735,367.616s-83.945,5.622-29.923,52.427c0,0-36.436,23.969,6.518,51.676s93.057-.381,93.057-.381l158.762-91.381s38.388-28.088-.011-54.673-91.755-2.615-95.008.755c0,0-60.526-28.08-111.928-.74C1563.2,325.3,1527.414,343.651,1541.735,367.616Z" transform="translate(-1493.686 -312.898)" fill="none" stroke="#000" stroke-miterlimit="10" stroke-width="2"/>
          <path id="路径_38496" data-name="路径 38496" d="M1902.88,476l-127.53,73.4-86.234-49.611,127.53-73.4Z" transform="translate(-1532.368 -335.361)" fill="none" stroke="#000" stroke-miterlimit="10" stroke-width="2"/>
          <path id="路径_38497" data-name="路径 38497" d="M1881.338,487.193,1794.8,537l-110.965-63.839,86.538-49.81Z" transform="translate(-1531.323 -334.762)" fill="none" stroke="#000" stroke-miterlimit="10" stroke-width="2"/>
          <path id="路径_38498" data-name="路径 38498" d="M1830.246,499.132l9.437,5.429c3.5,2.016,3.505,5.286,0,7.3h0a14.066,14.066,0,0,1-12.69,0l-9.437-5.429-4.325-1.676c-5.091.44-10.465-.467-14.384-2.722-6.56-3.774-6.561-9.893,0-13.668s17.192-3.775,23.752,0c4.225,2.43,5.729,5.834,4.512,8.958Z" transform="translate(-1553.115 -347.07)" fill="none" stroke="#000" stroke-miterlimit="10" stroke-width="2"/>
        </g>
      </g>
    </g>
  </g>
</svg>
