<svg xmlns="http://www.w3.org/2000/svg" xmlns:xlink="http://www.w3.org/1999/xlink" width="1820" height="880" viewBox="0 0 1820 880">
  <defs>
    <clipPath id="clip-path">
      <rect id="矩形_2284" data-name="矩形 2284" width="1820" height="880" transform="translate(50 89)" fill="#fff"/>
    </clipPath>
  </defs>
  <g id="banner" transform="translate(-50 -89)">
    <g id="组_21710" data-name="组 21710" transform="translate(40 -91)">
      <path id="路径_40976" data-name="路径 40976" d="M460.56,50.576A25.66,25.66,0,0,1,462,46.3l7.392-18.24c.912-2.352,1.488-3.7,2.16-5.04h-7.3a21.734,21.734,0,0,1-1.2,4.464l-4.9,13.92c-.336.96-.72,2.16-1.056,3.216-.288-1.008-.72-2.448-1.008-3.216l-4.9-13.92a25.344,25.344,0,0,1-1.2-4.464h-7.344c.96,2.016,1.728,3.792,2.256,5.04l7.344,18.24a22.85,22.85,0,0,1,1.44,4.272Zm27.648.912c8.544,0,14.16-5.856,14.16-14.736s-5.52-14.544-14.208-14.544c-8.736,0-14.3,5.712-14.3,14.64C473.856,45.824,479.424,51.488,488.208,51.488ZM488.16,27.2c5.088,0,8.016,3.552,8.016,9.744,0,5.856-3.072,9.456-8.064,9.456s-8.064-3.648-8.064-9.552C480.048,30.848,483.12,27.2,488.16,27.2Zm25.92,23.376a42.7,42.7,0,0,1-.384-6.24v-9.7c2.112-4.752,4.944-7.152,8.4-7.152a4.515,4.515,0,0,1,4.032,1.968,7.884,7.884,0,0,1,.816,4.224V44.336a51.013,51.013,0,0,1-.336,6.24h6.96a37.936,37.936,0,0,1-.384-6.24V32.816c0-3.216-.48-5.136-1.632-6.72-1.728-2.352-4.464-3.552-8.16-3.552-4.32,0-6.864,1.344-9.792,5.088a18.753,18.753,0,0,0,.1-2.064V23.024h-6.528a39.452,39.452,0,0,1,.384,6.24V44.336a39.843,39.843,0,0,1-.384,6.24Zm-491.088,100a28.824,28.824,0,0,1,1.488-4.8l10.272-27.7a37.732,37.732,0,0,1,2.4-5.712h-7.92a27.814,27.814,0,0,1-1.3,5.04L19.968,141.12c-.288.864-.672,2.208-1.1,3.648-.336-1.152-.912-3.072-1.152-3.648L9.744,117.408a31.2,31.2,0,0,1-1.3-5.04H.528a47.479,47.479,0,0,1,2.4,5.712l10.272,27.7a35.627,35.627,0,0,1,1.536,4.8Zm43.44-12.192c-.1-1.1-.1-1.248-.1-1.344a19.732,19.732,0,0,0-1.392-7.3c-1.92-4.8-6.336-7.584-11.952-7.584-8.208,0-13.536,5.808-13.536,14.688,0,8.976,5.376,14.64,13.872,14.64a13.631,13.631,0,0,0,9.888-3.7,13.49,13.49,0,0,0,2.928-4.416l-5.664-1.824a6.976,6.976,0,0,1-1.392,2.5,8.075,8.075,0,0,1-11.76-.288c-1.1-1.392-1.536-2.736-1.776-5.376ZM45.7,133.632c.72-4.032,3.456-6.528,7.2-6.528a6.845,6.845,0,0,1,5.184,1.92,7.534,7.534,0,0,1,2.112,4.608Zm45.6-10.608a24.887,24.887,0,0,0-4.464-.528c-4.32,0-7.3,1.632-9.024,5.04v-4.512H71.28a37.948,37.948,0,0,1,.336,6.24v15.072a52.648,52.648,0,0,1-.336,6.24h6.864a50.481,50.481,0,0,1-.336-6.24v-8.88a7.726,7.726,0,0,1,1.968-4.8,6.851,6.851,0,0,1,5.568-2.352,14.334,14.334,0,0,1,4.272.768Zm10.272,27.552a49.956,49.956,0,0,1-.336-6.24v-9.5a10.838,10.838,0,0,1,2.064-4.8,5.946,5.946,0,0,1,4.944-2.5c3.12,0,4.656,2.016,4.656,6.048v10.752a39.066,39.066,0,0,1-.384,6.24h6.912a46.956,46.956,0,0,1-.336-6.24v-9.5c.576-2.976,1.344-4.512,3.024-5.952a5.552,5.552,0,0,1,3.936-1.44c3.216,0,4.7,1.92,4.7,6.144v10.752a37.933,37.933,0,0,1-.384,6.24h7.008a39.066,39.066,0,0,1-.384-6.24V132.48c0-3.408-.672-5.568-2.256-7.3a9.473,9.473,0,0,0-7.2-2.736,10.6,10.6,0,0,0-5.376,1.248c-1.488.768-2.4,1.632-4.032,3.792a6.222,6.222,0,0,0-1.824-2.88,8.609,8.609,0,0,0-6.192-2.16c-3.984,0-7.536,1.872-8.928,4.8.048-.768.048-1.488.048-1.776v-2.448H94.8a41.986,41.986,0,0,1,.336,6.24v15.072a48.427,48.427,0,0,1-.336,6.24Zm52.916-.014a11.9,11.9,0,0,1-8.871-3.363,12.149,12.149,0,0,1-3.316-8.918q0-6.047,3.457-9.445t9.316-3.4q5.625,0,8.766,3.3t3.141,9.164a12.578,12.578,0,0,1-3.387,9.2A12.165,12.165,0,0,1,154.484,150.563Zm.258-20.789A6.207,6.207,0,0,0,149.7,132a9.323,9.323,0,0,0-1.852,6.141,8.781,8.781,0,0,0,1.875,5.941,6.3,6.3,0,0,0,5.016,2.168,5.975,5.975,0,0,0,4.934-2.133,9.441,9.441,0,0,0,1.723-6.07,9.584,9.584,0,0,0-1.723-6.117A5.947,5.947,0,0,0,154.742,129.773Zm4.828-7.969a2.922,2.922,0,0,1-2.027-.773,2.677,2.677,0,0,1-.035-3.891,2.8,2.8,0,0,1,1.992-.773,2.988,2.988,0,0,1,2.1.785,2.5,2.5,0,0,1,.855,1.91,2.609,2.609,0,0,1-.82,1.945A2.841,2.841,0,0,1,159.57,121.8Zm-9.75,0a2.95,2.95,0,0,1-2.086-.809,2.553,2.553,0,0,1-.867-1.934,2.517,2.517,0,0,1,.832-1.922,2.869,2.869,0,0,1,2.027-.773,3.012,3.012,0,0,1,2.074.785,2.468,2.468,0,0,1,.879,1.91,2.574,2.574,0,0,1-.844,1.945A2.834,2.834,0,0,1,149.82,121.8Zm21.548,33.187c3.264,3.7,6.432,4.992,12.048,4.992,4.944,0,8.928-1.1,11.328-3.072,2.784-2.352,4.032-6.048,4.032-11.808v-16.08a44.594,44.594,0,0,1,.336-6H192.68v2.208a11.546,11.546,0,0,0,.1,1.584c-2.064-2.928-4.9-4.224-9.168-4.224-7.776,0-12.816,5.376-12.816,13.68,0,8.208,4.9,13.44,12.528,13.44,4.176,0,7.008-1.344,9.408-4.368-.1,3.264-.432,4.944-1.248,6.384-1.344,2.3-4.176,3.6-7.872,3.6-3.456,0-5.568-1.056-7.44-3.648Zm5.712-18.576c0-5.712,2.976-9.312,7.776-9.312a7.254,7.254,0,0,1,4.656,1.728,8.849,8.849,0,0,1,2.88,7.1,10.167,10.167,0,0,1-1.344,5.472,8.033,8.033,0,0,1-6.672,3.792,7.357,7.357,0,0,1-5.088-2.16C177.848,141.6,177.08,139.248,177.08,136.416Zm53.9,1.968c-.1-1.1-.1-1.248-.1-1.344a19.732,19.732,0,0,0-1.392-7.3c-1.92-4.8-6.336-7.584-11.952-7.584-8.208,0-13.536,5.808-13.536,14.688,0,8.976,5.376,14.64,13.872,14.64a13.631,13.631,0,0,0,9.888-3.7,13.49,13.49,0,0,0,2.928-4.416l-5.664-1.824a6.977,6.977,0,0,1-1.392,2.5,8.075,8.075,0,0,1-11.76-.288c-1.1-1.392-1.536-2.736-1.776-5.376Zm-20.736-4.752c.72-4.032,3.456-6.528,7.2-6.528a6.845,6.845,0,0,1,5.184,1.92,7.534,7.534,0,0,1,2.112,4.608Zm32.4,16.944a42.709,42.709,0,0,1-.384-6.24v-9.7c2.112-4.752,4.944-7.152,8.4-7.152a4.515,4.515,0,0,1,4.032,1.968,7.885,7.885,0,0,1,.816,4.224v10.656a51.01,51.01,0,0,1-.336,6.24h6.96a37.933,37.933,0,0,1-.384-6.24v-11.52c0-3.216-.48-5.136-1.632-6.72-1.728-2.352-4.464-3.552-8.16-3.552-4.32,0-6.864,1.344-9.792,5.088a18.757,18.757,0,0,0,.1-2.064v-2.544h-6.528a39.45,39.45,0,0,1,.384,6.24v15.072a39.841,39.841,0,0,1-.384,6.24Zm24.192-7.824a10.8,10.8,0,0,0,1.872,4.272c2.064,2.784,5.76,4.272,10.7,4.272,4.368,0,7.728-1.056,9.936-3.12a7.718,7.718,0,0,0,2.352-5.424,6.822,6.822,0,0,0-2.784-5.952c-1.584-1.2-3.552-1.872-8.448-2.928a20.219,20.219,0,0,1-4.8-1.44,2.587,2.587,0,0,1-1.488-2.256c0-2.016,2.016-3.36,4.992-3.36,3.12,0,4.752,1.152,5.28,3.792l6.336-.816a9.344,9.344,0,0,0-2.592-4.752c-1.968-1.824-5.088-2.784-9.024-2.784-4.368,0-7.632,1.248-9.6,3.744a7.142,7.142,0,0,0-1.488,4.464,6.873,6.873,0,0,0,4.224,6.384,29.018,29.018,0,0,0,6.912,2.064c3.84.864,4.128.912,5.04,1.536a2.935,2.935,0,0,1,1.248,2.4c0,2.256-2.208,3.648-5.76,3.648-3.744,0-5.52-1.3-6.336-4.56Zm58.512,7.824a32.81,32.81,0,0,1,1.2-4.56l5.328-17.04c1.248-3.984,1.344-4.368,1.968-5.952h-7.056a29.8,29.8,0,0,1-1.056,5.712l-2.688,9.6c-.1.336-.432,1.872-.576,2.544s-.144.672-.24,1.056c-.1-.432-.144-.48-.288-1.1-.288-1.008-.528-1.92-.672-2.352l-3.552-10.9a47.075,47.075,0,0,1-1.2-4.56h-5.136a34.291,34.291,0,0,1-1.2,4.56l-3.456,10.464c-.192.576-1.008,3.408-1.1,3.888-.384-1.872-.672-3.216-.864-3.84l-2.64-9.36a33.213,33.213,0,0,1-1.056-5.712h-7.1c.672,1.776,1.344,3.744,2.016,5.952l5.28,17.04a39.151,39.151,0,0,1,1.248,4.56h5.568a46.219,46.219,0,0,1,1.248-4.56l3.7-11.232c.144-.48.72-2.448.96-3.312.528,1.968.816,3.024.912,3.216l3.7,11.328a38.809,38.809,0,0,1,1.2,4.56Zm37.776-12.192c-.1-1.1-.1-1.248-.1-1.344a19.733,19.733,0,0,0-1.392-7.3c-1.92-4.8-6.336-7.584-11.952-7.584-8.208,0-13.536,5.808-13.536,14.688,0,8.976,5.376,14.64,13.872,14.64a13.631,13.631,0,0,0,9.888-3.7,13.49,13.49,0,0,0,2.928-4.416l-5.664-1.824a6.976,6.976,0,0,1-1.392,2.5,8.075,8.075,0,0,1-11.76-.288c-1.1-1.392-1.536-2.736-1.776-5.376Zm-20.736-4.752c.72-4.032,3.456-6.528,7.2-6.528a6.845,6.845,0,0,1,5.184,1.92,7.534,7.534,0,0,1,2.112,4.608Zm45.6-10.608a24.887,24.887,0,0,0-4.464-.528c-4.32,0-7.3,1.632-9.024,5.04v-4.512h-6.528a37.949,37.949,0,0,1,.336,6.24v15.072a52.645,52.645,0,0,1-.336,6.24h6.864a50.483,50.483,0,0,1-.336-6.24v-8.88a7.726,7.726,0,0,1,1.968-4.8,6.851,6.851,0,0,1,5.568-2.352,14.334,14.334,0,0,1,4.272.768Zm6.72-7.392a55.244,55.244,0,0,1,.336,5.9v1.488h-1.776a22.047,22.047,0,0,1-4.32-.288V128.4a24.24,24.24,0,0,1,4.272-.288h1.824V144.24c0,5.04,2.208,7.008,7.728,7.008a15.02,15.02,0,0,0,6-1.008l-.864-5.088a6.349,6.349,0,0,1-3.5,1.056c-2.3,0-3.168-.864-3.168-3.216v-14.88h2.16a26.466,26.466,0,0,1,4.7.288v-5.664a27.577,27.577,0,0,1-4.848.288H401.24v-1.488a53.093,53.093,0,0,1,.336-5.9Zm43.44,22.752c-.1-1.1-.1-1.248-.1-1.344a19.733,19.733,0,0,0-1.392-7.3c-1.92-4.8-6.336-7.584-11.952-7.584-8.208,0-13.536,5.808-13.536,14.688,0,8.976,5.376,14.64,13.872,14.64a13.631,13.631,0,0,0,9.888-3.7,13.49,13.49,0,0,0,2.928-4.416l-5.664-1.824a6.976,6.976,0,0,1-1.392,2.5,8.075,8.075,0,0,1-11.76-.288c-1.1-1.392-1.536-2.736-1.776-5.376Zm-20.736-4.752c.72-4.032,3.456-6.528,7.2-6.528a6.845,6.845,0,0,1,5.184,1.92,7.534,7.534,0,0,1,2.112,4.608Zm32.4,16.944a42.709,42.709,0,0,1-.384-6.24v-9.7c2.112-4.752,4.944-7.152,8.4-7.152a4.515,4.515,0,0,1,4.032,1.968,7.885,7.885,0,0,1,.816,4.224v10.656a51.013,51.013,0,0,1-.336,6.24h6.96a37.933,37.933,0,0,1-.384-6.24v-11.52c0-3.216-.48-5.136-1.632-6.72-1.728-2.352-4.464-3.552-8.16-3.552-4.32,0-6.864,1.344-9.792,5.088a18.754,18.754,0,0,0,.1-2.064v-2.544H442.9a39.452,39.452,0,0,1,.384,6.24v15.072a39.843,39.843,0,0,1-.384,6.24Zm60.768-27.552a50.643,50.643,0,0,1,.384,6.24v9.7c-2.16,4.752-4.9,7.1-8.352,7.1a5.972,5.972,0,0,1-2.64-.672c-1.488-.912-2.208-2.688-2.208-5.472V129.264a42.962,42.962,0,0,1,.336-6.24h-6.96a44.121,44.121,0,0,1,.384,6.24v12.144c0,3.936,1.248,6.624,3.888,8.3a10.456,10.456,0,0,0,5.76,1.392c4.56,0,7.2-1.392,9.84-5.136-.048,1.2-.048,1.344-.048,2.064v2.544H517.5a39.448,39.448,0,0,1-.384-6.24V129.264a34.752,34.752,0,0,1,.384-6.24Zm19.824,27.552a42.7,42.7,0,0,1-.384-6.24v-9.7c2.112-4.752,4.944-7.152,8.4-7.152a4.515,4.515,0,0,1,4.032,1.968,7.884,7.884,0,0,1,.816,4.224v10.656a51.013,51.013,0,0,1-.336,6.24h6.96a37.936,37.936,0,0,1-.384-6.24v-11.52c0-3.216-.48-5.136-1.632-6.72-1.728-2.352-4.464-3.552-8.16-3.552-4.32,0-6.864,1.344-9.792,5.088a18.754,18.754,0,0,0,.1-2.064v-2.544H523.5a39.456,39.456,0,0,1,.384,6.24v15.072a39.847,39.847,0,0,1-.384,6.24Zm46.944,0h6.384a50.389,50.389,0,0,1-.336-6.48V118.8a55.977,55.977,0,0,1,.336-6.432h-6.768a48.924,48.924,0,0,1,.336,6.48v4.8c0,.816,0,1.728.048,2.064.048.96.048.96.048,1.536a12.222,12.222,0,0,0-2.448-2.64,11.393,11.393,0,0,0-7.3-2.208c-7.92,0-12.96,5.568-12.96,14.352,0,5.184,1.776,9.552,4.992,12.048a12.2,12.2,0,0,0,8.016,2.448c4.656,0,7.2-1.248,9.7-4.752-.048.624-.048,1.152-.048,1.728ZM560.936,136.8c0-5.712,2.976-9.36,7.632-9.36a8.788,8.788,0,0,1,6.24,2.688,9.967,9.967,0,0,1,2.3,6.384,10.858,10.858,0,0,1-1.872,6.432,8.026,8.026,0,0,1-6.432,3.168C564.008,146.112,560.936,142.512,560.936,136.8ZM22.992,250.576a28.824,28.824,0,0,1,1.488-4.8l10.272-27.7a37.732,37.732,0,0,1,2.4-5.712h-7.92a27.814,27.814,0,0,1-1.3,5.04L19.968,241.12c-.288.864-.672,2.208-1.1,3.648-.336-1.152-.912-3.072-1.152-3.648L9.744,217.408a31.2,31.2,0,0,1-1.3-5.04H.528a47.479,47.479,0,0,1,2.4,5.712l10.272,27.7a35.627,35.627,0,0,1,1.536,4.8Zm43.44-12.192c-.1-1.1-.1-1.248-.1-1.344a19.732,19.732,0,0,0-1.392-7.3c-1.92-4.8-6.336-7.584-11.952-7.584-8.208,0-13.536,5.808-13.536,14.688,0,8.976,5.376,14.64,13.872,14.64a13.631,13.631,0,0,0,9.888-3.7,13.49,13.49,0,0,0,2.928-4.416l-5.664-1.824a6.976,6.976,0,0,1-1.392,2.5,8.075,8.075,0,0,1-11.76-.288c-1.1-1.392-1.536-2.736-1.776-5.376ZM45.7,233.632c.72-4.032,3.456-6.528,7.2-6.528a6.845,6.845,0,0,1,5.184,1.92,7.534,7.534,0,0,1,2.112,4.608Zm45.6-10.608a24.887,24.887,0,0,0-4.464-.528c-4.32,0-7.3,1.632-9.024,5.04v-4.512H71.28a37.948,37.948,0,0,1,.336,6.24v15.072a52.648,52.648,0,0,1-.336,6.24h6.864a50.481,50.481,0,0,1-.336-6.24v-8.88a7.726,7.726,0,0,1,1.968-4.8,6.851,6.851,0,0,1,5.568-2.352,14.334,14.334,0,0,1,4.272.768Zm9.888,27.552v-2.352c0-.576,0-1.1-.048-1.728,2.4,3.36,5.136,4.752,9.552,4.752q5.832,0,9.216-3.456c2.592-2.688,3.936-6.528,3.936-11.232,0-8.928-4.752-14.16-12.816-14.16a11.189,11.189,0,0,0-9.888,4.848c.048-1.632.1-2.832.1-3.6v-4.8a48.921,48.921,0,0,1,.336-6.48H94.8a55.973,55.973,0,0,1,.336,6.432v25.3a50.387,50.387,0,0,1-.336,6.48ZM117.6,236.56c0,5.808-3.12,9.552-7.968,9.552a8.363,8.363,0,0,1-5.04-1.776c-1.92-1.536-3.168-4.56-3.168-7.584a10.338,10.338,0,0,1,2.352-6.672,8.565,8.565,0,0,1,6.528-2.64C114.72,227.44,117.6,231.04,117.6,236.56Zm11.088-24.192v6.1h7.056v-6.1Zm0,10.656a39.45,39.45,0,0,1,.384,6.24v15.072a43.137,43.137,0,0,1-.384,6.24H135.7a48.221,48.221,0,0,1-.336-6.288V229.312a43.147,43.147,0,0,1,.336-6.288Zm19.92,27.552a42.709,42.709,0,0,1-.384-6.24v-9.7c2.112-4.752,4.944-7.152,8.4-7.152a4.515,4.515,0,0,1,4.032,1.968,7.885,7.885,0,0,1,.816,4.224v10.656a51.01,51.01,0,0,1-.336,6.24h6.96a37.931,37.931,0,0,1-.384-6.24v-11.52c0-3.216-.48-5.136-1.632-6.72-1.728-2.352-4.464-3.552-8.16-3.552-4.32,0-6.864,1.344-9.792,5.088a18.756,18.756,0,0,0,.1-2.064v-2.544H141.7a39.45,39.45,0,0,1,.384,6.24v15.072a39.841,39.841,0,0,1-.384,6.24Zm46.944,0h6.384a50.387,50.387,0,0,1-.336-6.48V218.8a55.973,55.973,0,0,1,.336-6.432h-6.768a48.921,48.921,0,0,1,.336,6.48v4.8c0,.816,0,1.728.048,2.064.048.96.048.96.048,1.536a12.223,12.223,0,0,0-2.448-2.64,11.393,11.393,0,0,0-7.3-2.208c-7.92,0-12.96,5.568-12.96,14.352,0,5.184,1.776,9.552,4.992,12.048a12.2,12.2,0,0,0,8.016,2.448c4.656,0,7.2-1.248,9.7-4.752-.048.624-.048,1.152-.048,1.728ZM179.136,236.8c0-5.712,2.976-9.36,7.632-9.36a8.788,8.788,0,0,1,6.24,2.688,9.967,9.967,0,0,1,2.3,6.384,10.858,10.858,0,0,1-1.872,6.432,8.026,8.026,0,0,1-6.432,3.168C182.208,246.112,179.136,242.512,179.136,236.8Zm48.192-13.776a50.64,50.64,0,0,1,.384,6.24v9.7c-2.16,4.752-4.9,7.1-8.352,7.1a5.972,5.972,0,0,1-2.64-.672c-1.488-.912-2.208-2.688-2.208-5.472V229.264a42.962,42.962,0,0,1,.336-6.24h-6.96a44.118,44.118,0,0,1,.384,6.24v12.144c0,3.936,1.248,6.624,3.888,8.3a10.456,10.456,0,0,0,5.76,1.392c4.56,0,7.2-1.392,9.84-5.136-.048,1.2-.048,1.344-.048,2.064v2.544h6.528a39.452,39.452,0,0,1-.384-6.24V229.264a34.753,34.753,0,0,1,.384-6.24Zm19.824,27.552a42.709,42.709,0,0,1-.384-6.24v-9.7c2.112-4.752,4.944-7.152,8.4-7.152a4.515,4.515,0,0,1,4.032,1.968,7.885,7.885,0,0,1,.816,4.224v10.656a51.007,51.007,0,0,1-.336,6.24h6.96a37.933,37.933,0,0,1-.384-6.24v-11.52c0-3.216-.48-5.136-1.632-6.72-1.728-2.352-4.464-3.552-8.16-3.552-4.32,0-6.864,1.344-9.792,5.088a18.756,18.756,0,0,0,.1-2.064v-2.544H240.24a39.45,39.45,0,0,1,.384,6.24v15.072a39.841,39.841,0,0,1-.384,6.24Zm24.816,4.416c3.264,3.7,6.432,4.992,12.048,4.992,4.944,0,8.928-1.1,11.328-3.072,2.784-2.352,4.032-6.048,4.032-11.808v-16.08a44.589,44.589,0,0,1,.336-6H293.28v2.208a11.544,11.544,0,0,0,.1,1.584c-2.064-2.928-4.9-4.224-9.168-4.224-7.776,0-12.816,5.376-12.816,13.68,0,8.208,4.9,13.44,12.528,13.44,4.176,0,7.008-1.344,9.408-4.368-.1,3.264-.432,4.944-1.248,6.384-1.344,2.3-4.176,3.6-7.872,3.6-3.456,0-5.568-1.056-7.44-3.648Zm5.712-18.576c0-5.712,2.976-9.312,7.776-9.312a7.254,7.254,0,0,1,4.656,1.728,8.849,8.849,0,0,1,2.88,7.1,10.167,10.167,0,0,1-1.344,5.472,8.033,8.033,0,0,1-6.672,3.792,7.357,7.357,0,0,1-5.088-2.16C278.448,241.6,277.68,239.248,277.68,236.416Zm59.424,14.16a25.66,25.66,0,0,1,1.44-4.272l7.392-18.24c.912-2.352,1.488-3.7,2.16-5.04h-7.3a21.734,21.734,0,0,1-1.2,4.464l-4.9,13.92c-.336.96-.72,2.16-1.056,3.216-.288-1.008-.72-2.448-1.008-3.216l-4.9-13.92a25.344,25.344,0,0,1-1.2-4.464H319.2c.96,2.016,1.728,3.792,2.256,5.04L328.8,246.3a22.849,22.849,0,0,1,1.44,4.272Zm27.648.912c8.544,0,14.16-5.856,14.16-14.736s-5.52-14.544-14.208-14.544c-8.736,0-14.3,5.712-14.3,14.64C350.4,245.824,355.968,251.488,364.752,251.488ZM364.7,227.2c5.088,0,8.016,3.552,8.016,9.744,0,5.856-3.072,9.456-8.064,9.456s-8.064-3.648-8.064-9.552C356.592,230.848,359.664,227.2,364.7,227.2Zm25.92,23.376a42.709,42.709,0,0,1-.384-6.24v-9.7c2.112-4.752,4.944-7.152,8.4-7.152a4.515,4.515,0,0,1,4.032,1.968,7.885,7.885,0,0,1,.816,4.224v10.656a51.013,51.013,0,0,1-.336,6.24h6.96a37.933,37.933,0,0,1-.384-6.24v-11.52c0-3.216-.48-5.136-1.632-6.72-1.728-2.352-4.464-3.552-8.16-3.552-4.32,0-6.864,1.344-9.792,5.088a18.754,18.754,0,0,0,.1-2.064v-2.544h-6.528a39.452,39.452,0,0,1,.384,6.24v15.072a39.843,39.843,0,0,1-.384,6.24Zm73.1-14.88a40.241,40.241,0,0,1,.336-5.952c-2.064.144-3.456.192-5.664.192h-2.5a35.821,35.821,0,0,1-5.76-.288v6.192a26.278,26.278,0,0,1,4.9-.288h2.592v7.824a14.324,14.324,0,0,1-8.16,2.16c-3.792,0-6.384-1.008-8.352-3.312-2.16-2.544-3.264-6.288-3.264-11.232,0-4.9,1.152-8.448,3.552-10.944a10.143,10.143,0,0,1,7.3-2.928c4.944,0,7.248,1.536,8.832,5.9l6.576-1.776a13.531,13.531,0,0,0-3.552-5.712,15.677,15.677,0,0,0-11.04-4.128c-4.416,0-7.68.864-10.656,2.832-4.992,3.36-7.68,9.216-7.68,16.848,0,5.952,1.584,11.136,4.512,14.592,3.024,3.648,7.632,5.52,13.632,5.52a28.424,28.424,0,0,0,7.056-.912,30.439,30.439,0,0,0,7.68-3.312,39.671,39.671,0,0,1-.336-6.24Zm32.016,2.688c-.1-1.1-.1-1.248-.1-1.344a19.733,19.733,0,0,0-1.392-7.3c-1.92-4.8-6.336-7.584-11.952-7.584-8.208,0-13.536,5.808-13.536,14.688,0,8.976,5.376,14.64,13.872,14.64a13.631,13.631,0,0,0,9.888-3.7,13.49,13.49,0,0,0,2.928-4.416l-5.664-1.824a6.976,6.976,0,0,1-1.392,2.5,8.075,8.075,0,0,1-11.76-.288c-1.1-1.392-1.536-2.736-1.776-5.376Zm-20.736-4.752c.72-4.032,3.456-6.528,7.2-6.528a6.845,6.845,0,0,1,5.184,1.92,7.534,7.534,0,0,1,2.112,4.608Zm32.256,16.944a49.959,49.959,0,0,1-.336-6.24v-9.5a10.838,10.838,0,0,1,2.064-4.8,5.946,5.946,0,0,1,4.944-2.5c3.12,0,4.656,2.016,4.656,6.048v10.752a39.07,39.07,0,0,1-.384,6.24h6.912a46.959,46.959,0,0,1-.336-6.24v-9.5c.576-2.976,1.344-4.512,3.024-5.952a5.552,5.552,0,0,1,3.936-1.44c3.216,0,4.7,1.92,4.7,6.144v10.752a37.929,37.929,0,0,1-.384,6.24h7.008a39.07,39.07,0,0,1-.384-6.24V232.48c0-3.408-.672-5.568-2.256-7.3a9.473,9.473,0,0,0-7.2-2.736,10.6,10.6,0,0,0-5.376,1.248c-1.488.768-2.4,1.632-4.032,3.792a6.222,6.222,0,0,0-1.824-2.88,8.61,8.61,0,0,0-6.192-2.16c-3.984,0-7.536,1.872-8.928,4.8.048-.768.048-1.488.048-1.776v-2.448H500.5a41.988,41.988,0,0,1,.336,6.24v15.072a48.43,48.43,0,0,1-.336,6.24ZM574.8,238.384c-.1-1.1-.1-1.248-.1-1.344a19.732,19.732,0,0,0-1.392-7.3c-1.92-4.8-6.336-7.584-11.952-7.584-8.208,0-13.536,5.808-13.536,14.688,0,8.976,5.376,14.64,13.872,14.64a13.631,13.631,0,0,0,9.888-3.7,13.49,13.49,0,0,0,2.928-4.416l-5.664-1.824a6.977,6.977,0,0,1-1.392,2.5,8.075,8.075,0,0,1-11.76-.288c-1.1-1.392-1.536-2.736-1.776-5.376Zm-20.736-4.752c.72-4.032,3.456-6.528,7.2-6.528a6.845,6.845,0,0,1,5.184,1.92,7.534,7.534,0,0,1,2.112,4.608Zm25.488-21.264v6.1h7.056v-6.1Zm0,10.656a39.456,39.456,0,0,1,.384,6.24v15.072a43.144,43.144,0,0,1-.384,6.24h7.008a48.221,48.221,0,0,1-.336-6.288V229.312a43.147,43.147,0,0,1,.336-6.288Zm19.92,27.552a42.7,42.7,0,0,1-.384-6.24v-9.7c2.112-4.752,4.944-7.152,8.4-7.152a4.515,4.515,0,0,1,4.032,1.968,7.884,7.884,0,0,1,.816,4.224v10.656a51.013,51.013,0,0,1-.336,6.24h6.96a37.936,37.936,0,0,1-.384-6.24v-11.52c0-3.216-.48-5.136-1.632-6.72-1.728-2.352-4.464-3.552-8.16-3.552-4.32,0-6.864,1.344-9.792,5.088a18.754,18.754,0,0,0,.1-2.064v-2.544H592.56a39.456,39.456,0,0,1,.384,6.24v15.072a39.847,39.847,0,0,1-.384,6.24Zm24.192-7.824a10.8,10.8,0,0,0,1.872,4.272c2.064,2.784,5.76,4.272,10.7,4.272,4.368,0,7.728-1.056,9.936-3.12a7.718,7.718,0,0,0,2.352-5.424,6.822,6.822,0,0,0-2.784-5.952c-1.584-1.2-3.552-1.872-8.448-2.928a20.22,20.22,0,0,1-4.8-1.44,2.587,2.587,0,0,1-1.488-2.256c0-2.016,2.016-3.36,4.992-3.36,3.12,0,4.752,1.152,5.28,3.792l6.336-.816a9.344,9.344,0,0,0-2.592-4.752c-1.968-1.824-5.088-2.784-9.024-2.784-4.368,0-7.632,1.248-9.6,3.744a7.141,7.141,0,0,0-1.488,4.464,6.873,6.873,0,0,0,4.224,6.384,29.017,29.017,0,0,0,6.912,2.064c3.84.864,4.128.912,5.04,1.536a2.935,2.935,0,0,1,1.248,2.4c0,2.256-2.208,3.648-5.76,3.648-3.744,0-5.52-1.3-6.336-4.56Zm54.672-11.9a15.979,15.979,0,0,0-1.68-3.5c-2.3-3.36-6.048-5.184-10.752-5.184a13.144,13.144,0,0,0-9.648,3.648,15.52,15.52,0,0,0-4.08,11.088c0,8.88,5.472,14.592,13.92,14.592,4.56,0,8.256-1.68,10.56-4.848a13.439,13.439,0,0,0,2.016-4.08l-5.952-1.2a6.708,6.708,0,0,1-.96,2.4,6.426,6.426,0,0,1-5.52,2.688c-4.848,0-7.824-3.7-7.824-9.7,0-5.952,2.928-9.648,7.632-9.648a6.039,6.039,0,0,1,4.944,2.208,8.65,8.65,0,0,1,1.488,2.928Zm5.04-18.48a44.919,44.919,0,0,1,.336,6.288v25.68a39.456,39.456,0,0,1-.384,6.24h6.912a42.7,42.7,0,0,1-.384-6.24v-9.7c2.16-4.8,4.944-7.1,8.544-7.1a4.456,4.456,0,0,1,3.312,1.392c.912.96,1.392,2.544,1.392,4.752v10.656a51.013,51.013,0,0,1-.336,6.24h6.96a37.936,37.936,0,0,1-.384-6.24v-12.1c0-6.192-3.5-9.7-9.648-9.7-4.368,0-6.96,1.344-9.936,5.088a19.685,19.685,0,0,0,.1-2.064V218.7a46.123,46.123,0,0,1,.336-6.336Zm50.5,38.208h6.48a38.61,38.61,0,0,1-.384-6V231.664c0-3.264-.624-5.088-2.256-6.624-2.064-2.016-4.848-2.832-9.456-2.832-4.128,0-6.816.72-9.168,2.448-1.824,1.3-2.688,2.544-3.792,5.328l6.144,1.1a5.23,5.23,0,0,1,1.92-3.072,8.66,8.66,0,0,1,4.992-1.392c3.648,0,5.52,1.44,5.52,4.224V233.3c-6.864.144-10.416.624-13.536,1.92a8.515,8.515,0,0,0-5.424,7.776c0,5.04,3.552,8.064,9.408,8.064a16.984,16.984,0,0,0,4.464-.576,10.408,10.408,0,0,0,5.088-3.024Zm0-10.7a5.72,5.72,0,0,1-1.728,4.224,9.746,9.746,0,0,1-6.672,2.544c-2.688,0-4.368-1.392-4.368-3.648,0-3.744,3.6-5.328,12.768-5.52Zm16.176-11.808v16.272a51.551,51.551,0,0,1-.336,6.24h6.864a47.443,47.443,0,0,1-.336-6.24V228.064h2.352a41.311,41.311,0,0,1,5.328.288v-5.616a52.714,52.714,0,0,1-5.424.288H756.24v-1.968c0-3.312.96-4.464,3.744-4.464a7.946,7.946,0,0,1,4.272,1.152l1.3-5.04a17.355,17.355,0,0,0-5.952-.96c-6.528,0-9.552,2.784-9.552,8.736v2.544H748.08a31.456,31.456,0,0,1-4.512-.288v5.616a32.653,32.653,0,0,1,4.56-.288Zm22.128-12.432a55.26,55.26,0,0,1,.336,5.9v1.488h-1.776a22.046,22.046,0,0,1-4.32-.288V228.4a24.239,24.239,0,0,1,4.272-.288h1.824V244.24c0,5.04,2.208,7.008,7.728,7.008a15.02,15.02,0,0,0,6-1.008l-.864-5.088a6.349,6.349,0,0,1-3.5,1.056c-2.3,0-3.168-.864-3.168-3.216v-14.88h2.16a26.466,26.466,0,0,1,4.7.288v-5.664a27.576,27.576,0,0,1-4.848.288H778.7v-1.488a53.085,53.085,0,0,1,.336-5.9Zm43.44,22.752c-.1-1.1-.1-1.248-.1-1.344a19.732,19.732,0,0,0-1.392-7.3c-1.92-4.8-6.336-7.584-11.952-7.584-8.208,0-13.536,5.808-13.536,14.688,0,8.976,5.376,14.64,13.872,14.64a13.631,13.631,0,0,0,9.888-3.7,13.49,13.49,0,0,0,2.928-4.416l-5.664-1.824a6.977,6.977,0,0,1-1.392,2.5,8.075,8.075,0,0,1-11.76-.288c-1.1-1.392-1.536-2.736-1.776-5.376Zm-20.736-4.752c.72-4.032,3.456-6.528,7.2-6.528a6.845,6.845,0,0,1,5.184,1.92,7.534,7.534,0,0,1,2.112,4.608Zm32.4,16.944a42.7,42.7,0,0,1-.384-6.24v-9.7c2.112-4.752,4.944-7.152,8.4-7.152a4.515,4.515,0,0,1,4.032,1.968,7.884,7.884,0,0,1,.816,4.224v10.656a51.013,51.013,0,0,1-.336,6.24h6.96a37.936,37.936,0,0,1-.384-6.24v-11.52c0-3.216-.48-5.136-1.632-6.72-1.728-2.352-4.464-3.552-8.16-3.552-4.32,0-6.864,1.344-9.792,5.088a18.754,18.754,0,0,0,.1-2.064v-2.544h-6.528a39.456,39.456,0,0,1,.384,6.24v15.072a39.847,39.847,0,0,1-.384,6.24Z" transform="translate(180 449)"/>
      <path id="路径_41025" data-name="路径 41025" d="M5-9.6a4.159,4.159,0,0,0-3.1,1.2A5.137,5.137,0,0,0,.54-4.656c0,3.048,1.752,5,4.476,5S9.5-1.62,9.5-4.656A5.175,5.175,0,0,0,8.16-8.4,4.205,4.205,0,0,0,5-9.6ZM5.04-1.08a2.591,2.591,0,0,1-1.86-.732,3.965,3.965,0,0,1-.972-2.832c0-2.172,1.092-3.54,2.82-3.54a2.583,2.583,0,0,1,1.848.732,3.876,3.876,0,0,1,.948,2.8C7.824-2.448,6.756-1.08,5.04-1.08ZM36.576-9.408a9.767,9.767,0,0,1,.1,1.644V-3.54a2.191,2.191,0,0,1-2.436,2.484,2.2,2.2,0,0,1-2.46-2.472V-7.764a9.41,9.41,0,0,1,.1-1.644H30.084a9.858,9.858,0,0,1,.1,1.644v4.236a3.865,3.865,0,0,0,.9,2.76A4.134,4.134,0,0,0,34.176.36c2.616,0,4.092-1.392,4.092-3.876v-4.26a9.7,9.7,0,0,1,.1-1.632ZM67.332.144c-.168-.324-.468-.972-.564-1.188C65.58-3.852,65.352-4.188,64.6-4.428a2.537,2.537,0,0,0,1.332-.7,2.467,2.467,0,0,0,.612-1.788c0-1.584-1.044-2.5-2.868-2.5h-2.88c-.66,0-1.032-.012-1.536-.036a10.677,10.677,0,0,1,.1,1.56v6.468a9.391,9.391,0,0,1-.1,1.56h1.788a9.364,9.364,0,0,1-.1-1.572V-3.876h1.788c.924,0,1.344.444,1.992,2.1a9.714,9.714,0,0,1,.624,1.92ZM60.948-5.244v-2.8h2.46c.984,0,1.476.444,1.476,1.308A1.424,1.424,0,0,1,64.5-5.676a1.617,1.617,0,0,1-1.14.432ZM116.7.144a9.771,9.771,0,0,1,.528-1.6l1.8-4.224a14.644,14.644,0,0,0,.552-1.752c-.012.18-.048.792-.1,1.836v3.984a11.156,11.156,0,0,1-.1,1.752h1.68a10.4,10.4,0,0,1-.1-1.752V-7.632a12.427,12.427,0,0,1,.1-1.776H118.86a6.65,6.65,0,0,1-.432,1.428L116-2.028,113.568-7.98a8.305,8.305,0,0,1-.444-1.428h-2.2a11.9,11.9,0,0,1,.1,1.776v6.024a11.254,11.254,0,0,1-.1,1.752h1.68a10.964,10.964,0,0,1-.1-1.752V-5.544c0-.264-.048-1.248-.1-1.884a13.354,13.354,0,0,0,.612,1.836l1.728,4.116a8.169,8.169,0,0,1,.528,1.62Zm25.272-9.552a8.966,8.966,0,0,1,.1,1.548V-1.4a9.055,9.055,0,0,1-.1,1.548H143.8a9.055,9.055,0,0,1-.1-1.548V-7.86a8.966,8.966,0,0,1,.1-1.548Zm22.4,6.756a4.1,4.1,0,0,0,.228,1A2.825,2.825,0,0,0,165.66-.288a4.825,4.825,0,0,0,2.52.624,3.977,3.977,0,0,0,2.868-.912,2.792,2.792,0,0,0,.756-2.04,2.368,2.368,0,0,0-1-2.064,5.283,5.283,0,0,0-1.956-.732,10.216,10.216,0,0,1-1.692-.432,1.141,1.141,0,0,1-.816-1.092c0-.78.708-1.308,1.752-1.308a1.9,1.9,0,0,1,1.5.576,1.55,1.55,0,0,1,.36.852l1.716-.2a3.235,3.235,0,0,0-.588-1.392A3.537,3.537,0,0,0,168.1-9.624c-2.064,0-3.408,1.08-3.408,2.748a2.362,2.362,0,0,0,.924,1.944,4.242,4.242,0,0,0,1.812.732,7.566,7.566,0,0,1,2.088.588,1.218,1.218,0,0,1,.6,1.1c0,.9-.72,1.44-1.92,1.44a2.13,2.13,0,0,1-1.752-.708,1.72,1.72,0,0,1-.336-1.056Zm27.78,0a4.1,4.1,0,0,0,.228,1A2.825,2.825,0,0,0,193.44-.288a4.825,4.825,0,0,0,2.52.624,3.977,3.977,0,0,0,2.868-.912,2.792,2.792,0,0,0,.756-2.04,2.368,2.368,0,0,0-1-2.064,5.283,5.283,0,0,0-1.956-.732,10.216,10.216,0,0,1-1.692-.432,1.141,1.141,0,0,1-.816-1.092c0-.78.708-1.308,1.752-1.308a1.9,1.9,0,0,1,1.5.576,1.55,1.55,0,0,1,.36.852l1.716-.2a3.235,3.235,0,0,0-.588-1.392,3.537,3.537,0,0,0-2.988-1.212c-2.064,0-3.408,1.08-3.408,2.748a2.362,2.362,0,0,0,.924,1.944A4.242,4.242,0,0,0,195.2-4.2a7.566,7.566,0,0,1,2.088.588,1.218,1.218,0,0,1,.6,1.1c0,.9-.72,1.44-1.92,1.44a2.13,2.13,0,0,1-1.752-.708,1.72,1.72,0,0,1-.336-1.056Zm28.092-6.756a8.966,8.966,0,0,1,.1,1.548V-1.4a9.055,9.055,0,0,1-.1,1.548h1.824a9.055,9.055,0,0,1-.1-1.548V-7.86a8.966,8.966,0,0,1,.1-1.548ZM247.116-9.6a4.159,4.159,0,0,0-3.1,1.2,5.137,5.137,0,0,0-1.368,3.744c0,3.048,1.752,5,4.476,5s4.488-1.968,4.488-5A5.175,5.175,0,0,0,250.272-8.4,4.205,4.205,0,0,0,247.116-9.6Zm.036,8.52a2.591,2.591,0,0,1-1.86-.732,3.965,3.965,0,0,1-.972-2.832c0-2.172,1.092-3.54,2.82-3.54a2.583,2.583,0,0,1,1.848.732,3.876,3.876,0,0,1,.948,2.8C249.936-2.448,248.868-1.08,247.152-1.08ZM280.368.144a9.055,9.055,0,0,1-.1-1.548V-7.752a10.493,10.493,0,0,1,.1-1.656h-1.752a10.489,10.489,0,0,1,.1,1.656V-3.72c0,.5.036,1.224.084,1.692-.264-.48-.648-1.1-.936-1.536l-3.036-4.572a6.582,6.582,0,0,1-.732-1.272H272.22a9.993,9.993,0,0,1,.1,1.548v6.192a12.983,12.983,0,0,1-.1,1.812h1.752a13.282,13.282,0,0,1-.1-1.8V-5.592c0-.276-.024-.816-.036-1.044-.036-.444-.036-.444-.048-.612.288.564.588,1.08.816,1.44l3.1,4.668a11.958,11.958,0,0,1,.768,1.284Z" transform="translate(180 396)"/>
      <path id="路径_40977" data-name="路径 40977" d="M22.992,50.576a28.824,28.824,0,0,1,1.488-4.8l10.272-27.7a37.732,37.732,0,0,1,2.4-5.712h-7.92a27.814,27.814,0,0,1-1.3,5.04L19.968,41.12c-.288.864-.672,2.208-1.1,3.648-.336-1.152-.912-3.072-1.152-3.648L9.744,17.408a31.2,31.2,0,0,1-1.3-5.04H.528a47.479,47.479,0,0,1,2.4,5.712L13.2,45.776a35.628,35.628,0,0,1,1.536,4.8Zm43.44-12.192c-.1-1.1-.1-1.248-.1-1.344a19.732,19.732,0,0,0-1.392-7.3c-1.92-4.8-6.336-7.584-11.952-7.584-8.208,0-13.536,5.808-13.536,14.688,0,8.976,5.376,14.64,13.872,14.64a13.631,13.631,0,0,0,9.888-3.7,13.49,13.49,0,0,0,2.928-4.416L60.48,41.552a6.976,6.976,0,0,1-1.392,2.5,8.075,8.075,0,0,1-11.76-.288c-1.1-1.392-1.536-2.736-1.776-5.376ZM45.7,33.632c.72-4.032,3.456-6.528,7.2-6.528a6.845,6.845,0,0,1,5.184,1.92,7.534,7.534,0,0,1,2.112,4.608ZM91.3,23.024a24.887,24.887,0,0,0-4.464-.528c-4.32,0-7.3,1.632-9.024,5.04V23.024H71.28a37.948,37.948,0,0,1,.336,6.24V44.336a52.648,52.648,0,0,1-.336,6.24h6.864a50.481,50.481,0,0,1-.336-6.24v-8.88a7.726,7.726,0,0,1,1.968-4.8A6.851,6.851,0,0,1,85.344,28.3a14.334,14.334,0,0,1,4.272.768Zm2.3,19.728a10.8,10.8,0,0,0,1.872,4.272c2.064,2.784,5.76,4.272,10.7,4.272,4.368,0,7.728-1.056,9.936-3.12a7.718,7.718,0,0,0,2.352-5.424A6.822,6.822,0,0,0,115.68,36.8c-1.584-1.2-3.552-1.872-8.448-2.928a20.218,20.218,0,0,1-4.8-1.44,2.587,2.587,0,0,1-1.488-2.256c0-2.016,2.016-3.36,4.992-3.36,3.12,0,4.752,1.152,5.28,3.792l6.336-.816a9.344,9.344,0,0,0-2.592-4.752c-1.968-1.824-5.088-2.784-9.024-2.784-4.368,0-7.632,1.248-9.6,3.744a7.142,7.142,0,0,0-1.488,4.464,6.873,6.873,0,0,0,4.224,6.384,29.017,29.017,0,0,0,6.912,2.064c3.84.864,4.128.912,5.04,1.536a2.935,2.935,0,0,1,1.248,2.4c0,2.256-2.208,3.648-5.76,3.648-3.744,0-5.52-1.3-6.336-4.56Zm54.672-11.9a15.977,15.977,0,0,0-1.68-3.5c-2.3-3.36-6.048-5.184-10.752-5.184a13.144,13.144,0,0,0-9.648,3.648,15.521,15.521,0,0,0-4.08,11.088c0,8.88,5.472,14.592,13.92,14.592,4.56,0,8.256-1.68,10.56-4.848a13.439,13.439,0,0,0,2.016-4.08l-5.952-1.2a6.709,6.709,0,0,1-.96,2.4,6.426,6.426,0,0,1-5.52,2.688c-4.848,0-7.824-3.7-7.824-9.7,0-5.952,2.928-9.648,7.632-9.648a6.039,6.039,0,0,1,4.944,2.208,8.65,8.65,0,0,1,1.488,2.928Zm5.04-18.48a44.917,44.917,0,0,1,.336,6.288v25.68a39.45,39.45,0,0,1-.384,6.24h6.912a42.709,42.709,0,0,1-.384-6.24v-9.7c2.16-4.8,4.944-7.1,8.544-7.1a4.456,4.456,0,0,1,3.312,1.392c.912.96,1.392,2.544,1.392,4.752V44.336a51.01,51.01,0,0,1-.336,6.24h6.96a37.931,37.931,0,0,1-.384-6.24V32.24c0-6.192-3.5-9.7-9.648-9.7-4.368,0-6.96,1.344-9.936,5.088a19.688,19.688,0,0,0,.1-2.064V18.7a46.133,46.133,0,0,1,.336-6.336Zm32.256,0a43.282,43.282,0,0,1,.336,6.24V44.336a46.478,46.478,0,0,1-.336,6.24h6.96a49.44,49.44,0,0,1-.336-6.24V18.656a44.467,44.467,0,0,1,.336-6.288Zm32.4,10.656a50.64,50.64,0,0,1,.384,6.24v9.7c-2.16,4.752-4.9,7.1-8.352,7.1a5.972,5.972,0,0,1-2.64-.672c-1.488-.912-2.208-2.688-2.208-5.472V29.264a42.962,42.962,0,0,1,.336-6.24h-6.96a44.119,44.119,0,0,1,.384,6.24V41.408c0,3.936,1.248,6.624,3.888,8.3a10.456,10.456,0,0,0,5.76,1.392c4.56,0,7.2-1.392,9.84-5.136-.048,1.2-.048,1.344-.048,2.064v2.544h6.528a39.452,39.452,0,0,1-.384-6.24V29.264a34.753,34.753,0,0,1,.384-6.24Zm-14.5-10.752v6.144h6.1V12.272Zm10.416,0v6.144h6.1V12.272Zm15.792,30.48a10.8,10.8,0,0,0,1.872,4.272c2.064,2.784,5.76,4.272,10.7,4.272,4.368,0,7.728-1.056,9.936-3.12a7.718,7.718,0,0,0,2.352-5.424A6.822,6.822,0,0,0,251.76,36.8c-1.584-1.2-3.552-1.872-8.448-2.928a20.218,20.218,0,0,1-4.8-1.44,2.587,2.587,0,0,1-1.488-2.256c0-2.016,2.016-3.36,4.992-3.36,3.12,0,4.752,1.152,5.28,3.792l6.336-.816a9.344,9.344,0,0,0-2.592-4.752c-1.968-1.824-5.088-2.784-9.024-2.784-4.368,0-7.632,1.248-9.6,3.744a7.142,7.142,0,0,0-1.488,4.464,6.873,6.873,0,0,0,4.224,6.384,29.017,29.017,0,0,0,6.912,2.064c3.84.864,4.128.912,5.04,1.536a2.935,2.935,0,0,1,1.248,2.4c0,2.256-2.208,3.648-5.76,3.648-3.744,0-5.52-1.3-6.336-4.56Zm28.464,0a10.8,10.8,0,0,0,1.872,4.272c2.064,2.784,5.76,4.272,10.7,4.272,4.368,0,7.728-1.056,9.936-3.12a7.718,7.718,0,0,0,2.352-5.424,6.822,6.822,0,0,0-2.784-5.952c-1.584-1.2-3.552-1.872-8.448-2.928a20.218,20.218,0,0,1-4.8-1.44,2.587,2.587,0,0,1-1.488-2.256c0-2.016,2.016-3.36,4.992-3.36,3.12,0,4.752,1.152,5.28,3.792l6.336-.816A9.344,9.344,0,0,0,279.5,25.04c-1.968-1.824-5.088-2.784-9.024-2.784-4.368,0-7.632,1.248-9.6,3.744a7.142,7.142,0,0,0-1.488,4.464,6.873,6.873,0,0,0,4.224,6.384,29.017,29.017,0,0,0,6.912,2.064c3.84.864,4.128.912,5.04,1.536a2.935,2.935,0,0,1,1.248,2.4c0,2.256-2.208,3.648-5.76,3.648-3.744,0-5.52-1.3-6.336-4.56Zm55.488-4.368c-.1-1.1-.1-1.248-.1-1.344a19.733,19.733,0,0,0-1.392-7.3c-1.92-4.8-6.336-7.584-11.952-7.584-8.208,0-13.536,5.808-13.536,14.688,0,8.976,5.376,14.64,13.872,14.64a13.631,13.631,0,0,0,9.888-3.7,13.49,13.49,0,0,0,2.928-4.416l-5.664-1.824a6.976,6.976,0,0,1-1.392,2.5,8.075,8.075,0,0,1-11.76-.288c-1.1-1.392-1.536-2.736-1.776-5.376ZM292.9,33.632c.72-4.032,3.456-6.528,7.2-6.528a6.845,6.845,0,0,1,5.184,1.92,7.534,7.534,0,0,1,2.112,4.608Zm25.488-21.264a43.284,43.284,0,0,1,.336,6.24V44.336a46.48,46.48,0,0,1-.336,6.24h6.96a49.443,49.443,0,0,1-.336-6.24V18.656a44.469,44.469,0,0,1,.336-6.288Zm32.4,10.656a50.643,50.643,0,0,1,.384,6.24v9.7c-2.16,4.752-4.9,7.1-8.352,7.1a5.972,5.972,0,0,1-2.64-.672c-1.488-.912-2.208-2.688-2.208-5.472V29.264a42.962,42.962,0,0,1,.336-6.24h-6.96a44.121,44.121,0,0,1,.384,6.24V41.408c0,3.936,1.248,6.624,3.888,8.3a10.456,10.456,0,0,0,5.76,1.392c4.56,0,7.2-1.392,9.84-5.136-.048,1.2-.048,1.344-.048,2.064v2.544H357.7a39.452,39.452,0,0,1-.384-6.24V29.264a34.753,34.753,0,0,1,.384-6.24Zm19.824,27.552a42.709,42.709,0,0,1-.384-6.24v-9.7c2.112-4.752,4.944-7.152,8.4-7.152a4.515,4.515,0,0,1,4.032,1.968,7.885,7.885,0,0,1,.816,4.224V44.336a51.013,51.013,0,0,1-.336,6.24h6.96a37.933,37.933,0,0,1-.384-6.24V32.816c0-3.216-.48-5.136-1.632-6.72-1.728-2.352-4.464-3.552-8.16-3.552-4.32,0-6.864,1.344-9.792,5.088a18.753,18.753,0,0,0,.1-2.064V23.024H363.7a39.452,39.452,0,0,1,.384,6.24V44.336a39.843,39.843,0,0,1-.384,6.24Zm24.816,4.416c3.264,3.7,6.432,4.992,12.048,4.992,4.944,0,8.928-1.1,11.328-3.072,2.784-2.352,4.032-6.048,4.032-11.808V29.024a44.589,44.589,0,0,1,.336-6h-6.432v2.208a11.544,11.544,0,0,0,.1,1.584c-2.064-2.928-4.9-4.224-9.168-4.224-7.776,0-12.816,5.376-12.816,13.68,0,8.208,4.9,13.44,12.528,13.44,4.176,0,7.008-1.344,9.408-4.368-.1,3.264-.432,4.944-1.248,6.384-1.344,2.3-4.176,3.6-7.872,3.6-3.456,0-5.568-1.056-7.44-3.648Zm5.712-18.576c0-5.712,2.976-9.312,7.776-9.312a7.254,7.254,0,0,1,4.656,1.728,8.849,8.849,0,0,1,2.88,7.1,10.167,10.167,0,0,1-1.344,5.472,8.033,8.033,0,0,1-6.672,3.792,7.357,7.357,0,0,1-5.088-2.16C401.9,41.6,401.136,39.248,401.136,36.416Z" transform="translate(180 449)" fill="#0080f4"/>
    </g>
    <g id="蒙版组_33" data-name="蒙版组 33" clip-path="url(#clip-path)">
      <g id="bg" transform="translate(593.966 137.526)" opacity="0.06">
        <g id="组_21620" data-name="组 21620" transform="translate(552.34 642.069)">
          <path id="路径_38454" data-name="路径 38454" d="M974.923,856.855l-41.776,23.29,59.442,35.771L916.5,959.608l40.261,25.179,118.075-67.8Z" transform="translate(-737.066 -856.839)" fill="none" stroke="#231815" stroke-miterlimit="10" stroke-width="2"/>
          <path id="路径_38455" data-name="路径 38455" d="M792.713,984.784l41.781-23.293-59.449-35.776,76.1-43.7-40.266-25.182-118.09,67.813Z" transform="translate(-692.785 -856.835)" fill="none" stroke="#231815" stroke-miterlimit="10" stroke-width="2"/>
        </g>
        <path id="路径_38456" data-name="路径 38456" d="M620.954,959.488l217.228,132.864,206.091-122.416-32.144-21" transform="translate(-126.227 -232.996)" fill="none" stroke="#231815" stroke-miterlimit="10" stroke-width="2" stroke-dasharray="15 5"/>
        <ellipse id="椭圆_1799" data-name="椭圆 1799" cx="9.182" cy="5.831" rx="9.182" ry="5.831" transform="translate(238.014 497.65)" fill="#231815"/>
        <ellipse id="椭圆_1800" data-name="椭圆 1800" cx="6.803" cy="4.32" rx="6.803" ry="4.32" transform="translate(483.568 719.982)" fill="none" stroke="#231815" stroke-miterlimit="10" stroke-width="2"/>
        <ellipse id="椭圆_1801" data-name="椭圆 1801" cx="9.182" cy="5.831" rx="9.182" ry="5.831" transform="translate(702.486 851.999)" fill="#231815"/>
        <ellipse id="椭圆_1802" data-name="椭圆 1802" cx="9.182" cy="5.831" rx="9.182" ry="5.831" transform="translate(1170.115 497.571)" fill="#231815"/>
        <ellipse id="椭圆_1803" data-name="椭圆 1803" cx="9.182" cy="5.831" rx="9.182" ry="5.831" transform="translate(835.872 93.215)"/>
        <ellipse id="椭圆_1804" data-name="椭圆 1804" cx="9.182" cy="5.831" rx="9.182" ry="5.831" transform="translate(704.006 8.599)" fill="#231815"/>
        <path id="路径_38457" data-name="路径 38457" d="M1617.878,523.339l15.476,9.62-99.2,59.847-96.673,59.7-149.6-89.544" transform="translate(-258.235 -148.755)" fill="none" stroke="#000" stroke-miterlimit="10" stroke-width="2" stroke-dasharray="11 5"/>
        <path id="路径_38458" data-name="路径 38458" d="M243.628,126.461,371.81,47.5l149.6,89.544" transform="translate(-51.541 -54.571)" fill="none" stroke="#231815" stroke-miterlimit="10" stroke-width="2" stroke-dasharray="11 5"/>
        <g id="组_21621" data-name="组 21621" transform="translate(244.16 453.534)">
          <line id="直线_454" data-name="直线 454" x2="311.077" y2="189.85" transform="translate(0 49.947)" fill="none" stroke="#231815" stroke-miterlimit="10" stroke-width="2" stroke-dasharray="12 5"/>
          <line id="直线_455" data-name="直线 455" x1="91.209" y2="49.947" fill="none" stroke="#231815" stroke-miterlimit="10" stroke-width="2" stroke-dasharray="11 5"/>
        </g>
        <path id="路径_38459" data-name="路径 38459" d="M1244.886-68.37l-127.528,75,147.421,85.421L1467.74-29.109l-120.9-60.862" transform="translate(-224.482 -27.36)" fill="none" stroke="#000" stroke-miterlimit="10" stroke-width="2"/>
        <path id="路径_38460" data-name="路径 38460" d="M1252.3-46.8,1152.143,10.566l121.128,66.707L1444.114-26.289l-90.219-43.779" transform="translate(-231.368 -31.299)" fill="none" stroke="#000" stroke-miterlimit="10" stroke-width="1"/>
        <line id="直线_456" data-name="直线 456" y1="25.786" transform="translate(811.9 143.641)" fill="none" stroke="#000" stroke-miterlimit="10" stroke-width="2"/>
        <path id="路径_38461" data-name="路径 38461" d="M1016.4,223.495V205.411l6.832-4.65" transform="translate(-204.499 -84.906)" fill="none" stroke="#000" stroke-miterlimit="10" stroke-width="2"/>
        <line id="直线_457" data-name="直线 457" y1="11.147" x2="18.092" transform="translate(824.989 101.322)" fill="none" stroke="#000" stroke-miterlimit="10" stroke-width="2"/>
        <line id="直线_458" data-name="直线 458" x2="24.566" y2="15.133" transform="translate(816.206 78.082)" fill="none" stroke="#000" stroke-miterlimit="10" stroke-width="2"/>
        <line id="直线_459" data-name="直线 459" x2="21.815" y2="13.376" transform="translate(788.65 61.434)" fill="none" stroke="#000" stroke-miterlimit="10" stroke-width="2"/>
        <line id="直线_460" data-name="直线 460" x2="19.231" y2="11.424" transform="translate(762.932 46.623)" fill="none" stroke="#000" stroke-miterlimit="10" stroke-width="2"/>
        <line id="直线_461" data-name="直线 461" x1="23.422" y1="14.352" transform="translate(733.54 28.827)" fill="none" stroke="#000" stroke-miterlimit="10" stroke-width="2"/>
        <line id="直线_462" data-name="直线 462" x1="12.4" y1="7.865" transform="translate(714.997 17.747)" fill="none" stroke="#000" stroke-miterlimit="10" stroke-width="2"/>
        <line id="直线_463" data-name="直线 463" x1="10.792" y2="7.693" transform="translate(712.873 4.371)" fill="none" stroke="#000" stroke-miterlimit="10" stroke-width="2"/>
        <line id="直线_464" data-name="直线 464" y1="14.754" x2="24.283" transform="translate(730.268 -13.712)" fill="none" stroke="#000" stroke-miterlimit="10" stroke-width="2"/>
        <line id="直线_465" data-name="直线 465" y1="12.974" x2="22.389" transform="translate(760.119 -30.13)" fill="none" stroke="#000" stroke-miterlimit="10" stroke-width="2"/>
        <line id="直线_466" data-name="直线 466" y1="15.5" x2="25.833" transform="translate(789.282 -49.132)" fill="none" stroke="#000" stroke-miterlimit="10" stroke-width="2"/>
        <line id="直线_467" data-name="直线 467" x1="20.781" y2="12.4" transform="translate(822.176 -65.148)" fill="none" stroke="#000" stroke-miterlimit="10" stroke-width="2"/>
        <line id="直线_468" data-name="直线 468" y1="15.041" x2="24.8" transform="translate(849.502 -83.633)" fill="none" stroke="#000" stroke-miterlimit="10" stroke-width="2"/>
        <line id="直线_469" data-name="直线 469" y1="16.189" x2="26.866" transform="translate(881.851 -103.389)" fill="none" stroke="#000" stroke-miterlimit="10" stroke-width="2"/>
        <line id="直线_470" data-name="直线 470" x2="19.231" y2="11.194" transform="translate(916.642 -105.523)" fill="none" stroke="#000" stroke-miterlimit="10" stroke-width="2"/>
        <line id="直线_471" data-name="直线 471" x2="21.585" y2="12.228" transform="translate(942.303 -91.171)" fill="none" stroke="#000" stroke-miterlimit="10" stroke-width="2"/>
        <line id="直线_472" data-name="直线 472" x2="7.332" y2="4.703" transform="translate(970.088 -75.155)" fill="none" stroke="#000" stroke-miterlimit="10" stroke-width="2"/>
        <path id="路径_38462" data-name="路径 38462" d="M17.963,165.526l-34.726,84.962,105.055,55.8,140.876-22.733L264.3,204.677,162.346,144.055Z" transform="translate(0 -73.682)" fill="none" stroke="#231815" stroke-miterlimit="10" stroke-width="2"/>
        <path id="路径_38463" data-name="路径 38463" d="M27.894,175.113l-31.344,74.4L95.06,300.49l130.888-23.078,30.311-67.51L163.6,154.791Z" transform="translate(-2.635 -75.807)" fill="none" stroke="#231815" stroke-miterlimit="10" stroke-width="1.2"/>
        <path id="路径_38464" data-name="路径 38464" d="M901.908,324.442l-16.755-9.793H823.039L684.23,397.2v37.659l12.629,7.693" transform="translate(-138.751 -107.448)" fill="none" stroke="#000" stroke-miterlimit="10" stroke-width="3"/>
        <ellipse id="椭圆_1805" data-name="椭圆 1805" cx="6.056" cy="3.961" rx="6.056" ry="3.961" transform="translate(558.108 333.668)" fill="none" stroke="#231815" stroke-miterlimit="10" stroke-width="3"/>
        <ellipse id="椭圆_1806" data-name="椭圆 1806" cx="6.627" cy="4.621" rx="6.627" ry="4.621" transform="translate(784.011 228.326)" fill="none" stroke="#000" stroke-miterlimit="10" stroke-width="3"/>
        <path id="路径_38465" data-name="路径 38465" d="M887.185,366.594l-31.11-.335-84.883,51.013v18.733l85.636,50.512h30.357l85.217-51.47V417.44Z" transform="translate(-155.964 -117.664)" fill="none" stroke="#fff" stroke-miterlimit="10" stroke-width="0.5"/>
        <path id="路径_38466" data-name="路径 38466" d="M946.473,350.722l89.079,54.336V441.54L896.4,524.837H835.132l-93-55.8" transform="translate(-150.212 -114.588)" fill="none" stroke="#000" stroke-miterlimit="10" stroke-width="3"/>
        <g id="组_21622" data-name="组 21622" transform="translate(749.065 82.743)">
          <path id="路径_38467" data-name="路径 38467" d="M938.057,285.295l143.5-85.881V166.348" transform="translate(-938.057 -160.837)" fill="none" stroke="#000" stroke-miterlimit="10" stroke-width="2"/>
          <path id="路径_38468" data-name="路径 38468" d="M1179.5,179.8l-41.1,24.8h-27.1L953.8,298.088" transform="translate(-941.174 -163.5)" fill="none" stroke="#000" stroke-miterlimit="10" stroke-width="2"/>
          <line id="直线_473" data-name="直线 473" y1="56.029" x2="94.147" transform="translate(29.601 86.684)" fill="none" stroke="#000" stroke-miterlimit="10" stroke-width="2"/>
          <path id="路径_38469" data-name="路径 38469" d="M998.94,325.11l138.408-82.321h31.861" transform="translate(-950.108 -175.967)" fill="none" stroke="#000" stroke-miterlimit="10" stroke-width="2"/>
          <path id="路径_38470" data-name="路径 38470" d="M1013.684,340.243l130.353-77.557h30.387" transform="translate(-953.026 -179.906)" fill="none" stroke="#000" stroke-miterlimit="10" stroke-width="2"/>
          <line id="直线_474" data-name="直线 474" y1="68.716" x2="115.101" transform="translate(76.674 100.347)" fill="none" stroke="#000" stroke-miterlimit="10" stroke-width="2"/>
          <path id="路径_38471" data-name="路径 38471" d="M1052.62,355.372l142.426-84.887,24.972-3.979,26.867-15.844" transform="translate(-960.733 -177.526)" fill="none" stroke="#000" stroke-miterlimit="10" stroke-width="2"/>
          <line id="直线_475" data-name="直线 475" y1="56.144" x2="94.377" transform="translate(106.354 131.002)" fill="none" stroke="#000" stroke-miterlimit="10" stroke-width="2"/>
          <path id="路径_38472" data-name="路径 38472" d="M1089.123,376.18,1223.8,296.1l40.3-6.372,45.122-27.039" transform="translate(-967.958 -179.906)" fill="none" stroke="#000" stroke-miterlimit="10" stroke-width="2"/>
          <path id="路径_38473" data-name="路径 38473" d="M1107.962,397.534l113.407-67.683,39.4-5.755,33.411,19.633" transform="translate(-971.687 -192.061)" fill="none" stroke="#000" stroke-miterlimit="10" stroke-width="2"/>
          <ellipse id="椭圆_1807" data-name="椭圆 1807" cx="3.387" cy="2.459" rx="3.387" ry="2.459" transform="translate(140.224)" fill="none" stroke="#000" stroke-miterlimit="10" stroke-width="2"/>
          <ellipse id="椭圆_1808" data-name="椭圆 1808" cx="3.387" cy="2.459" rx="3.387" ry="2.459" transform="translate(236.824 12.341)" fill="none" stroke="#000" stroke-miterlimit="10" stroke-width="2"/>
          <ellipse id="椭圆_1809" data-name="椭圆 1809" cx="3.387" cy="2.586" rx="3.387" ry="2.586" transform="translate(220.467 63.138)" fill="none" stroke="#000" stroke-miterlimit="10" stroke-width="2"/>
          <ellipse id="椭圆_1810" data-name="椭圆 1810" cx="3.387" cy="2.586" rx="3.387" ry="2.586" transform="translate(122.944 82.781)" fill="none" stroke="#000" stroke-miterlimit="10" stroke-width="2"/>
          <ellipse id="椭圆_1811" data-name="椭圆 1811" cx="3.387" cy="2.586" rx="3.387" ry="2.586" transform="translate(221.231 80.195)" fill="none" stroke="#000" stroke-miterlimit="10" stroke-width="2"/>
          <ellipse id="椭圆_1812" data-name="椭圆 1812" cx="3.387" cy="2.586" rx="3.387" ry="2.586" transform="translate(191.255 96.67)" fill="none" stroke="#000" stroke-miterlimit="10" stroke-width="2"/>
          <ellipse id="椭圆_1813" data-name="椭圆 1813" cx="3.387" cy="2.586" rx="3.387" ry="2.586" transform="translate(200.211 127.411)" fill="none" stroke="#000" stroke-miterlimit="10" stroke-width="2"/>
          <ellipse id="椭圆_1814" data-name="椭圆 1814" cx="3.387" cy="2.586" rx="3.387" ry="2.586" transform="translate(285.092 69.257)" fill="none" stroke="#000" stroke-miterlimit="10" stroke-width="2"/>
          <ellipse id="椭圆_1815" data-name="椭圆 1815" cx="3.387" cy="2.586" rx="3.387" ry="2.586" transform="translate(340.146 79.036)" fill="none" stroke="#000" stroke-miterlimit="10" stroke-width="2"/>
          <ellipse id="椭圆_1816" data-name="椭圆 1816" cx="3.387" cy="2.586" rx="3.387" ry="2.586" transform="translate(320.922 150.805)" fill="none" stroke="#000" stroke-miterlimit="10" stroke-width="2"/>
        </g>
        <g id="组_21623" data-name="组 21623" transform="translate(334.649 327.96)">
          <path id="路径_38474" data-name="路径 38474" d="M818.493,567.153,675,653.034V686.1" transform="translate(-471.573 -485.388)" fill="none" stroke="#231815" stroke-miterlimit="10" stroke-width="2"/>
          <path id="路径_38475" data-name="路径 38475" d="M556.762,672.808l41.1-24.8h27.1l157.5-93.484" transform="translate(-448.17 -482.888)" fill="none" stroke="#231815" stroke-miterlimit="10" stroke-width="2"/>
          <line id="直线_476" data-name="直线 476" x1="94.147" y2="56.029" transform="translate(223.172 63.51)" fill="none" stroke="#231815" stroke-miterlimit="10" stroke-width="2"/>
          <path id="路径_38476" data-name="路径 38476" d="M754.835,533.242l-143.6,85.41H579.374" transform="translate(-452.646 -478.676)" fill="none" stroke="#231815" stroke-miterlimit="10" stroke-width="2"/>
          <path id="路径_38477" data-name="路径 38477" d="M739.817,521.73,608.182,599.84H577.871" transform="translate(-452.348 -476.397)" fill="none" stroke="#231815" stroke-miterlimit="10" stroke-width="2"/>
          <line id="直线_477" data-name="直线 477" x1="116.73" y2="69.689" transform="translate(155.145 36.188)" fill="none" stroke="#231815" stroke-miterlimit="10" stroke-width="2"/>
          <path id="路径_38478" data-name="路径 38478" d="M694.156,498.872,548.974,585.136,524,589.116,497.136,604.96" transform="translate(-436.368 -471.873)" fill="none" stroke="#231815" stroke-miterlimit="10" stroke-width="2"/>
          <line id="直线_478" data-name="直线 478" x1="94.377" y2="56.144" transform="translate(146.189 19.077)" fill="none" stroke="#231815" stroke-miterlimit="10" stroke-width="2"/>
          <path id="路径_38479" data-name="路径 38479" d="M645.939,479.53,513.846,558.076l-40.3,6.372-45.122,27.039" transform="translate(-422.768 -468.044)" fill="none" stroke="#231815" stroke-miterlimit="10" stroke-width="2"/>
          <path id="路径_38480" data-name="路径 38480" d="M638.23,465.21,524.638,533.643l-39.4,5.755L451.83,519.764" transform="translate(-427.4 -465.21)" fill="none" stroke="#231815" stroke-miterlimit="10" stroke-width="2"/>
          <ellipse id="椭圆_1817" data-name="椭圆 1817" cx="3.387" cy="2.459" rx="3.387" ry="2.459" transform="translate(199.922 201.305)" fill="none" stroke="#231815" stroke-miterlimit="10" stroke-width="2"/>
          <ellipse id="椭圆_1818" data-name="椭圆 1818" cx="3.387" cy="2.459" rx="3.387" ry="2.459" transform="translate(103.321 188.964)" fill="none" stroke="#231815" stroke-miterlimit="10" stroke-width="2"/>
          <ellipse id="椭圆_1819" data-name="椭圆 1819" cx="3.387" cy="2.586" rx="3.387" ry="2.586" transform="translate(119.679 137.914)" fill="none" stroke="#231815" stroke-miterlimit="10" stroke-width="2"/>
          <ellipse id="椭圆_1820" data-name="椭圆 1820" cx="3.387" cy="2.586" rx="3.387" ry="2.586" transform="translate(217.202 118.271)" fill="none" stroke="#231815" stroke-miterlimit="10" stroke-width="2"/>
          <ellipse id="椭圆_1821" data-name="椭圆 1821" cx="3.387" cy="2.586" rx="3.387" ry="2.586" transform="translate(118.915 120.857)" fill="none" stroke="#231815" stroke-miterlimit="10" stroke-width="2"/>
          <ellipse id="椭圆_1822" data-name="椭圆 1822" cx="3.387" cy="2.586" rx="3.387" ry="2.586" transform="translate(148.891 104.382)" fill="none" stroke="#231815" stroke-miterlimit="10" stroke-width="2"/>
          <ellipse id="椭圆_1823" data-name="椭圆 1823" cx="3.387" cy="2.586" rx="3.387" ry="2.586" transform="translate(139.935 73.641)" fill="none" stroke="#231815" stroke-miterlimit="10" stroke-width="2"/>
          <ellipse id="椭圆_1824" data-name="椭圆 1824" cx="3.387" cy="2.586" rx="3.387" ry="2.586" transform="translate(55.054 131.795)" fill="none" stroke="#231815" stroke-miterlimit="10" stroke-width="2"/>
          <ellipse id="椭圆_1825" data-name="椭圆 1825" cx="3.387" cy="2.586" rx="3.387" ry="2.586" transform="translate(0 122.016)" fill="none" stroke="#231815" stroke-miterlimit="10" stroke-width="2"/>
          <ellipse id="椭圆_1826" data-name="椭圆 1826" cx="3.387" cy="2.586" rx="3.387" ry="2.586" transform="translate(19.224 50.247)" fill="none" stroke="#231815" stroke-miterlimit="10" stroke-width="2"/>
        </g>
        <g id="组_21624" data-name="组 21624" transform="translate(749.503 328.444)">
          <path id="路径_38481" data-name="路径 38481" d="M938.6,567.018l114.01,68.2,10.1,22.618-33.3,20.207" transform="translate(-938.603 -485.845)" fill="none" stroke="#231815" stroke-miterlimit="10" stroke-width="2"/>
          <path id="路径_38482" data-name="路径 38482" d="M957.5,556l135.136,80.37,10.218,23.307L1148.434,687" transform="translate(-942.343 -483.663)" fill="none" stroke="#231815" stroke-miterlimit="10" stroke-width="2"/>
          <line id="直线_479" data-name="直线 479" x2="94.836" y2="56.374" transform="translate(30.655 63.377)" fill="none" stroke="#231815" stroke-miterlimit="10" stroke-width="2"/>
          <path id="路径_38483" data-name="路径 38483" d="M996.005,533.379l142.943,85.192,6.889,15.155,26.637,15.959" transform="translate(-949.965 -479.187)" fill="none" stroke="#231815" stroke-miterlimit="10" stroke-width="2"/>
          <line id="直线_480" data-name="直线 480" x2="116.766" y2="69.462" transform="translate(60.851 45.351)" fill="none" stroke="#231815" stroke-miterlimit="10" stroke-width="2"/>
          <path id="路径_38484" data-name="路径 38484" d="M1033.51,511.191,1163.479,588.8V607.06" transform="translate(-957.388 -474.795)" fill="none" stroke="#231815" stroke-miterlimit="10" stroke-width="2"/>
          <path id="路径_38485" data-name="路径 38485" d="M1052.549,499.6l143.058,86v18.255" transform="translate(-961.157 -472.5)" fill="none" stroke="#231815" stroke-miterlimit="10" stroke-width="2"/>
          <line id="直线_481" data-name="直线 481" x2="93.114" y2="55.799" transform="translate(106.547 18.141)" fill="none" stroke="#231815" stroke-miterlimit="10" stroke-width="2"/>
          <path id="路径_38486" data-name="路径 38486" d="M1090.2,477.122l155.687,92.884v15.729l40.644,24.226" transform="translate(-968.609 -468.051)" fill="none" stroke="#231815" stroke-miterlimit="10" stroke-width="2"/>
          <path id="路径_38487" data-name="路径 38487" d="M1107.962,465.813l144.309,85.766H1309.1" transform="translate(-972.125 -465.813)" fill="none" stroke="#231815" stroke-miterlimit="10" stroke-width="2"/>
          <ellipse id="椭圆_1827" data-name="椭圆 1827" cx="3.363" cy="2.594" rx="3.363" ry="2.594" transform="translate(231.311 131.347)" fill="none" stroke="#231815" stroke-miterlimit="10" stroke-width="2"/>
          <ellipse id="椭圆_1828" data-name="椭圆 1828" cx="3.363" cy="2.594" rx="3.363" ry="2.594" transform="translate(202.728 132.265)" fill="none" stroke="#231815" stroke-miterlimit="10" stroke-width="2"/>
          <ellipse id="椭圆_1829" data-name="椭圆 1829" cx="3.363" cy="2.102" rx="3.363" ry="2.102" transform="translate(221.705 169.723)" fill="none" stroke="#231815" stroke-miterlimit="10" stroke-width="2"/>
          <ellipse id="椭圆_1830" data-name="椭圆 1830" cx="3.363" cy="2.102" rx="3.363" ry="2.102" transform="translate(316.698 141.265)" fill="none" stroke="#231815" stroke-miterlimit="10" stroke-width="2"/>
          <ellipse id="椭圆_1831" data-name="椭圆 1831" cx="3.363" cy="2.102" rx="3.363" ry="2.102" transform="translate(336.978 83.664)" fill="none" stroke="#231815" stroke-miterlimit="10" stroke-width="2"/>
          <ellipse id="椭圆_1832" data-name="椭圆 1832" cx="3.769" cy="2.356" rx="3.769" ry="2.356" transform="translate(175.967 114.198)" fill="none" stroke="#231815" stroke-miterlimit="10" stroke-width="2"/>
          <ellipse id="椭圆_1833" data-name="椭圆 1833" cx="3.769" cy="2.356" rx="3.769" ry="2.356" transform="translate(198.552 73.134)" fill="none" stroke="#231815" stroke-miterlimit="10" stroke-width="2"/>
          <ellipse id="椭圆_1834" data-name="椭圆 1834" cx="3.769" cy="2.356" rx="3.769" ry="2.356" transform="translate(124.351 119.146)" fill="none" stroke="#231815" stroke-miterlimit="10" stroke-width="2"/>
          <ellipse id="椭圆_1835" data-name="椭圆 1835" cx="3.769" cy="2.356" rx="3.769" ry="2.356" transform="translate(205.711 202.513)" fill="none" stroke="#231815" stroke-miterlimit="10" stroke-width="2"/>
          <ellipse id="椭圆_1836" data-name="椭圆 1836" cx="3.769" cy="2.356" rx="3.769" ry="2.356" transform="translate(84.263 191.779)" fill="none" stroke="#231815" stroke-miterlimit="10" stroke-width="2"/>
        </g>
        <g id="组_21625" data-name="组 21625" transform="translate(338.036 81.141)">
          <path id="路径_38488" data-name="路径 38488" d="M823.489,287.24l-114.01-68.2-10.1-22.618,33.3-20.207" transform="translate(-479.785 -161.189)" fill="none" stroke="#231815" stroke-miterlimit="10" stroke-width="2"/>
          <path id="路径_38489" data-name="路径 38489" d="M788.1,293.333l-135.136-80.37-10.219-23.307L597.167,162.33" transform="translate(-459.555 -158.44)" fill="none" stroke="#231815" stroke-miterlimit="10" stroke-width="2"/>
          <line id="直线_482" data-name="直线 482" x1="94.836" y1="56.374" transform="translate(218.212 87.474)" fill="none" stroke="#231815" stroke-miterlimit="10" stroke-width="2"/>
          <path id="路径_38490" data-name="路径 38490" d="M753.166,319.577,610.223,234.385l-6.889-15.155L576.7,203.27" transform="translate(-455.503 -166.544)" fill="none" stroke="#231815" stroke-miterlimit="10" stroke-width="2"/>
          <line id="直线_483" data-name="直线 483" x1="116.766" y1="69.462" transform="translate(166.087 92.411)" fill="none" stroke="#231815" stroke-miterlimit="10" stroke-width="2"/>
          <path id="路径_38491" data-name="路径 38491" d="M727.137,346.808,597.167,269.194V250.938" transform="translate(-459.555 -175.979)" fill="none" stroke="#231815" stroke-miterlimit="10" stroke-width="2"/>
          <path id="路径_38492" data-name="路径 38492" d="M704.868,356.335l-143.058-86V252.084" transform="translate(-452.556 -176.206)" fill="none" stroke="#231815" stroke-miterlimit="10" stroke-width="2"/>
          <line id="直线_484" data-name="直线 484" x1="93.114" y1="55.799" transform="translate(144.042 133.285)" fill="none" stroke="#231815" stroke-miterlimit="10" stroke-width="2"/>
          <path id="路径_38493" data-name="路径 38493" d="M654.073,371.754,535.224,300.848l-36.839-21.978V263.14l-40.644-24.226" transform="translate(-431.957 -173.599)" fill="none" stroke="#231815" stroke-miterlimit="10" stroke-width="2"/>
          <path id="路径_38494" data-name="路径 38494" d="M635.121,394.679,490.812,308.913H433.979" transform="translate(-427.254 -187.454)" fill="none" stroke="#231815" stroke-miterlimit="10" stroke-width="2"/>
          <ellipse id="椭圆_1837" data-name="椭圆 1837" cx="3.363" cy="2.594" rx="3.363" ry="2.594" transform="translate(105.667 70.69)" fill="none" stroke="#231815" stroke-miterlimit="10" stroke-width="2"/>
          <ellipse id="椭圆_1838" data-name="椭圆 1838" cx="3.363" cy="2.594" rx="3.363" ry="2.594" transform="translate(134.25 69.772)" fill="none" stroke="#231815" stroke-miterlimit="10" stroke-width="2"/>
          <ellipse id="椭圆_1839" data-name="椭圆 1839" cx="3.363" cy="2.102" rx="3.363" ry="2.102" transform="translate(115.274 33.298)" fill="none" stroke="#231815" stroke-miterlimit="10" stroke-width="2"/>
          <ellipse id="椭圆_1840" data-name="椭圆 1840" cx="3.363" cy="2.102" rx="3.363" ry="2.102" transform="translate(20.28 61.757)" fill="none" stroke="#231815" stroke-miterlimit="10" stroke-width="2"/>
          <ellipse id="椭圆_1841" data-name="椭圆 1841" cx="3.363" cy="2.102" rx="3.363" ry="2.102" transform="translate(0 119.357)" fill="none" stroke="#231815" stroke-miterlimit="10" stroke-width="2"/>
          <ellipse id="椭圆_1842" data-name="椭圆 1842" cx="3.769" cy="2.356" rx="3.769" ry="2.356" transform="translate(160.198 88.315)" fill="none" stroke="#231815" stroke-miterlimit="10" stroke-width="2"/>
          <ellipse id="椭圆_1843" data-name="椭圆 1843" cx="3.769" cy="2.356" rx="3.769" ry="2.356" transform="translate(137.613 129.379)" fill="none" stroke="#231815" stroke-miterlimit="10" stroke-width="2"/>
          <ellipse id="椭圆_1844" data-name="椭圆 1844" cx="3.769" cy="2.356" rx="3.769" ry="2.356" transform="translate(211.813 83.367)" fill="none" stroke="#231815" stroke-miterlimit="10" stroke-width="2"/>
          <ellipse id="椭圆_1845" data-name="椭圆 1845" cx="3.769" cy="2.356" rx="3.769" ry="2.356" transform="translate(130.454)" fill="none" stroke="#231815" stroke-miterlimit="10" stroke-width="2"/>
          <ellipse id="椭圆_1846" data-name="椭圆 1846" cx="3.769" cy="2.356" rx="3.769" ry="2.356" transform="translate(251.901 10.734)" fill="none" stroke="#231815" stroke-miterlimit="10" stroke-width="2"/>
        </g>
        <path id="矩形_2283" data-name="矩形 2283" d="M8.125,0h6.139a8.125,8.125,0,0,1,8.125,8.125v8.753a0,0,0,0,1,0,0H0a0,0,0,0,1,0,0V8.125A8.125,8.125,0,0,1,8.125,0Z" transform="translate(1059.814 -146.526)" fill="none" stroke="#000" stroke-miterlimit="10" stroke-width="2"/>
        <line id="直线_485" data-name="直线 485" y2="5.942" transform="translate(1071.482 -122.716)" fill="none" stroke="#000" stroke-linecap="round" stroke-miterlimit="10" stroke-width="2"/>
        <line id="直线_486" data-name="直线 486" x1="1.851" transform="translate(1070.111 -53.936)" fill="none" stroke="#000" stroke-linecap="round" stroke-miterlimit="10" stroke-width="3"/>
        <g id="组_21626" data-name="组 21626" transform="translate(1194.715 205.797)">
          <path id="路径_38495" data-name="路径 38495" d="M1541.735,367.616s-83.945,5.622-29.923,52.427c0,0-36.436,23.969,6.518,51.676s93.057-.381,93.057-.381l158.762-91.381s38.388-28.088-.011-54.673-91.755-2.615-95.008.755c0,0-60.526-28.08-111.928-.74C1563.2,325.3,1527.414,343.651,1541.735,367.616Z" transform="translate(-1493.686 -312.898)" fill="none" stroke="#000" stroke-miterlimit="10" stroke-width="2"/>
          <path id="路径_38496" data-name="路径 38496" d="M1902.88,476l-127.53,73.4-86.234-49.611,127.53-73.4Z" transform="translate(-1532.368 -335.361)" fill="none" stroke="#000" stroke-miterlimit="10" stroke-width="2"/>
          <path id="路径_38497" data-name="路径 38497" d="M1881.338,487.193,1794.8,537l-110.965-63.839,86.538-49.81Z" transform="translate(-1531.323 -334.762)" fill="none" stroke="#000" stroke-miterlimit="10" stroke-width="2"/>
          <path id="路径_38498" data-name="路径 38498" d="M1830.246,499.132l9.437,5.429c3.5,2.016,3.505,5.286,0,7.3h0a14.066,14.066,0,0,1-12.69,0l-9.437-5.429-4.325-1.676c-5.091.44-10.465-.467-14.384-2.722-6.56-3.774-6.561-9.893,0-13.668s17.192-3.775,23.752,0c4.225,2.43,5.729,5.834,4.512,8.958Z" transform="translate(-1553.115 -347.07)" fill="none" stroke="#000" stroke-miterlimit="10" stroke-width="2"/>
        </g>
      </g>
    </g>
  </g>
</svg>
