<svg xmlns="http://www.w3.org/2000/svg" xmlns:xlink="http://www.w3.org/1999/xlink" width="1820" height="880" viewBox="0 0 1820 880">
  <defs>
    <clipPath id="clip-path">
      <rect id="矩形_2284" data-name="矩形 2284" width="1820" height="880" transform="translate(50 89)" fill="#fff"/>
    </clipPath>
  </defs>
  <g id="交易中心-韩文" transform="translate(-8450 1151)">
    <g id="交易中心_CN">
      <path id="路径_39976" data-name="路径 39976" d="M5-9.6a4.159,4.159,0,0,0-3.1,1.2A5.137,5.137,0,0,0,.54-4.656c0,3.048,1.752,5,4.476,5S9.5-1.62,9.5-4.656A5.175,5.175,0,0,0,8.16-8.4,4.205,4.205,0,0,0,5-9.6ZM5.04-1.08a2.591,2.591,0,0,1-1.86-.732,3.965,3.965,0,0,1-.972-2.832c0-2.172,1.092-3.54,2.82-3.54a2.583,2.583,0,0,1,1.848.732,3.876,3.876,0,0,1,.948,2.8C7.824-2.448,6.756-1.08,5.04-1.08ZM36.576-9.408a9.767,9.767,0,0,1,.1,1.644V-3.54a2.191,2.191,0,0,1-2.436,2.484,2.2,2.2,0,0,1-2.46-2.472V-7.764a9.41,9.41,0,0,1,.1-1.644H30.084a9.858,9.858,0,0,1,.1,1.644v4.236a3.865,3.865,0,0,0,.9,2.76A4.134,4.134,0,0,0,34.176.36c2.616,0,4.092-1.392,4.092-3.876v-4.26a9.7,9.7,0,0,1,.1-1.632ZM67.332.144c-.168-.324-.468-.972-.564-1.188C65.58-3.852,65.352-4.188,64.6-4.428a2.537,2.537,0,0,0,1.332-.7,2.467,2.467,0,0,0,.612-1.788c0-1.584-1.044-2.5-2.868-2.5h-2.88c-.66,0-1.032-.012-1.536-.036a10.677,10.677,0,0,1,.1,1.56v6.468a9.391,9.391,0,0,1-.1,1.56h1.788a9.364,9.364,0,0,1-.1-1.572V-3.876h1.788c.924,0,1.344.444,1.992,2.1a9.714,9.714,0,0,1,.624,1.92ZM60.948-5.244v-2.8h2.46c.984,0,1.476.444,1.476,1.308A1.424,1.424,0,0,1,64.5-5.676a1.617,1.617,0,0,1-1.14.432ZM116.7.144a9.771,9.771,0,0,1,.528-1.6l1.8-4.224a14.644,14.644,0,0,0,.552-1.752c-.012.18-.048.792-.1,1.836v3.984a11.156,11.156,0,0,1-.1,1.752h1.68a10.4,10.4,0,0,1-.1-1.752V-7.632a12.427,12.427,0,0,1,.1-1.776H118.86a6.65,6.65,0,0,1-.432,1.428L116-2.028,113.568-7.98a8.305,8.305,0,0,1-.444-1.428h-2.2a11.9,11.9,0,0,1,.1,1.776v6.024a11.254,11.254,0,0,1-.1,1.752h1.68a10.964,10.964,0,0,1-.1-1.752V-5.544c0-.264-.048-1.248-.1-1.884a13.354,13.354,0,0,0,.612,1.836l1.728,4.116a8.169,8.169,0,0,1,.528,1.62Zm25.272-9.552a8.966,8.966,0,0,1,.1,1.548V-1.4a9.055,9.055,0,0,1-.1,1.548H143.8a9.055,9.055,0,0,1-.1-1.548V-7.86a8.966,8.966,0,0,1,.1-1.548Zm22.4,6.756a4.1,4.1,0,0,0,.228,1A2.825,2.825,0,0,0,165.66-.288a4.825,4.825,0,0,0,2.52.624,3.977,3.977,0,0,0,2.868-.912,2.792,2.792,0,0,0,.756-2.04,2.368,2.368,0,0,0-1-2.064,5.283,5.283,0,0,0-1.956-.732,10.216,10.216,0,0,1-1.692-.432,1.141,1.141,0,0,1-.816-1.092c0-.78.708-1.308,1.752-1.308a1.9,1.9,0,0,1,1.5.576,1.55,1.55,0,0,1,.36.852l1.716-.2a3.235,3.235,0,0,0-.588-1.392A3.537,3.537,0,0,0,168.1-9.624c-2.064,0-3.408,1.08-3.408,2.748a2.362,2.362,0,0,0,.924,1.944,4.242,4.242,0,0,0,1.812.732,7.566,7.566,0,0,1,2.088.588,1.218,1.218,0,0,1,.6,1.1c0,.9-.72,1.44-1.92,1.44a2.13,2.13,0,0,1-1.752-.708,1.72,1.72,0,0,1-.336-1.056Zm27.78,0a4.1,4.1,0,0,0,.228,1A2.825,2.825,0,0,0,193.44-.288a4.825,4.825,0,0,0,2.52.624,3.977,3.977,0,0,0,2.868-.912,2.792,2.792,0,0,0,.756-2.04,2.368,2.368,0,0,0-1-2.064,5.283,5.283,0,0,0-1.956-.732,10.216,10.216,0,0,1-1.692-.432,1.141,1.141,0,0,1-.816-1.092c0-.78.708-1.308,1.752-1.308a1.9,1.9,0,0,1,1.5.576,1.55,1.55,0,0,1,.36.852l1.716-.2a3.235,3.235,0,0,0-.588-1.392,3.537,3.537,0,0,0-2.988-1.212c-2.064,0-3.408,1.08-3.408,2.748a2.362,2.362,0,0,0,.924,1.944A4.242,4.242,0,0,0,195.2-4.2a7.566,7.566,0,0,1,2.088.588,1.218,1.218,0,0,1,.6,1.1c0,.9-.72,1.44-1.92,1.44a2.13,2.13,0,0,1-1.752-.708,1.72,1.72,0,0,1-.336-1.056Zm28.092-6.756a8.966,8.966,0,0,1,.1,1.548V-1.4a9.055,9.055,0,0,1-.1,1.548h1.824a9.055,9.055,0,0,1-.1-1.548V-7.86a8.966,8.966,0,0,1,.1-1.548ZM247.116-9.6a4.159,4.159,0,0,0-3.1,1.2,5.137,5.137,0,0,0-1.368,3.744c0,3.048,1.752,5,4.476,5s4.488-1.968,4.488-5A5.175,5.175,0,0,0,250.272-8.4,4.205,4.205,0,0,0,247.116-9.6Zm.036,8.52a2.591,2.591,0,0,1-1.86-.732,3.965,3.965,0,0,1-.972-2.832c0-2.172,1.092-3.54,2.82-3.54a2.583,2.583,0,0,1,1.848.732,3.876,3.876,0,0,1,.948,2.8C249.936-2.448,248.868-1.08,247.152-1.08ZM280.368.144a9.055,9.055,0,0,1-.1-1.548V-7.752a10.493,10.493,0,0,1,.1-1.656h-1.752a10.489,10.489,0,0,1,.1,1.656V-3.72c0,.5.036,1.224.084,1.692-.264-.48-.648-1.1-.936-1.536l-3.036-4.572a6.582,6.582,0,0,1-.732-1.272H272.22a9.993,9.993,0,0,1,.1,1.548v6.192a12.983,12.983,0,0,1-.1,1.812h1.752a13.282,13.282,0,0,1-.1-1.8V-5.592c0-.276-.024-.816-.036-1.044-.036-.444-.036-.444-.048-.612.288.564.588,1.08.816,1.44l3.1,4.668a11.958,11.958,0,0,1,.768,1.284Z" transform="translate(8620 -823)"/>
      <g id="蒙版组_33" data-name="蒙版组 33" transform="translate(8400 -1240)" clip-path="url(#clip-path)">
        <g id="bg" transform="translate(593.966 137.526)" opacity="0.06">
          <g id="组_21620" data-name="组 21620" transform="translate(552.34 642.069)">
            <path id="路径_38454" data-name="路径 38454" d="M974.923,856.855l-41.776,23.29,59.442,35.771L916.5,959.608l40.261,25.179,118.075-67.8Z" transform="translate(-737.066 -856.839)" fill="none" stroke="#231815" stroke-miterlimit="10" stroke-width="2"/>
            <path id="路径_38455" data-name="路径 38455" d="M792.713,984.784l41.781-23.293-59.449-35.776,76.1-43.7-40.266-25.182-118.09,67.813Z" transform="translate(-692.785 -856.835)" fill="none" stroke="#231815" stroke-miterlimit="10" stroke-width="2"/>
          </g>
          <path id="路径_38456" data-name="路径 38456" d="M620.954,959.488l217.228,132.864,206.091-122.416-32.144-21" transform="translate(-126.227 -232.996)" fill="none" stroke="#231815" stroke-miterlimit="10" stroke-width="2" stroke-dasharray="15 5"/>
          <ellipse id="椭圆_1799" data-name="椭圆 1799" cx="9.182" cy="5.831" rx="9.182" ry="5.831" transform="translate(238.014 497.65)" fill="#231815"/>
          <ellipse id="椭圆_1800" data-name="椭圆 1800" cx="6.803" cy="4.32" rx="6.803" ry="4.32" transform="translate(483.568 719.982)" fill="none" stroke="#231815" stroke-miterlimit="10" stroke-width="2"/>
          <ellipse id="椭圆_1801" data-name="椭圆 1801" cx="9.182" cy="5.831" rx="9.182" ry="5.831" transform="translate(702.486 851.999)" fill="#231815"/>
          <ellipse id="椭圆_1802" data-name="椭圆 1802" cx="9.182" cy="5.831" rx="9.182" ry="5.831" transform="translate(1170.115 497.571)" fill="#231815"/>
          <ellipse id="椭圆_1803" data-name="椭圆 1803" cx="9.182" cy="5.831" rx="9.182" ry="5.831" transform="translate(835.872 93.215)"/>
          <ellipse id="椭圆_1804" data-name="椭圆 1804" cx="9.182" cy="5.831" rx="9.182" ry="5.831" transform="translate(704.006 8.599)" fill="#231815"/>
          <path id="路径_38457" data-name="路径 38457" d="M1617.878,523.339l15.476,9.62-99.2,59.847-96.673,59.7-149.6-89.544" transform="translate(-258.235 -148.755)" fill="none" stroke="#000" stroke-miterlimit="10" stroke-width="2" stroke-dasharray="11 5"/>
          <path id="路径_38458" data-name="路径 38458" d="M243.628,126.461,371.81,47.5l149.6,89.544" transform="translate(-51.541 -54.571)" fill="none" stroke="#231815" stroke-miterlimit="10" stroke-width="2" stroke-dasharray="11 5"/>
          <g id="组_21621" data-name="组 21621" transform="translate(244.16 453.534)">
            <line id="直线_454" data-name="直线 454" x2="311.077" y2="189.85" transform="translate(0 49.947)" fill="none" stroke="#231815" stroke-miterlimit="10" stroke-width="2" stroke-dasharray="12 5"/>
            <line id="直线_455" data-name="直线 455" x1="91.209" y2="49.947" fill="none" stroke="#231815" stroke-miterlimit="10" stroke-width="2" stroke-dasharray="11 5"/>
          </g>
          <path id="路径_38459" data-name="路径 38459" d="M1244.886-68.37l-127.528,75,147.421,85.421L1467.74-29.109l-120.9-60.862" transform="translate(-224.482 -27.36)" fill="none" stroke="#000" stroke-miterlimit="10" stroke-width="2"/>
          <path id="路径_38460" data-name="路径 38460" d="M1252.3-46.8,1152.143,10.566l121.128,66.707L1444.114-26.289l-90.219-43.779" transform="translate(-231.368 -31.299)" fill="none" stroke="#000" stroke-miterlimit="10" stroke-width="1"/>
          <line id="直线_456" data-name="直线 456" y1="25.786" transform="translate(811.9 143.641)" fill="none" stroke="#000" stroke-miterlimit="10" stroke-width="2"/>
          <path id="路径_38461" data-name="路径 38461" d="M1016.4,223.495V205.411l6.832-4.65" transform="translate(-204.499 -84.906)" fill="none" stroke="#000" stroke-miterlimit="10" stroke-width="2"/>
          <line id="直线_457" data-name="直线 457" y1="11.147" x2="18.092" transform="translate(824.989 101.322)" fill="none" stroke="#000" stroke-miterlimit="10" stroke-width="2"/>
          <line id="直线_458" data-name="直线 458" x2="24.566" y2="15.133" transform="translate(816.206 78.082)" fill="none" stroke="#000" stroke-miterlimit="10" stroke-width="2"/>
          <line id="直线_459" data-name="直线 459" x2="21.815" y2="13.376" transform="translate(788.65 61.434)" fill="none" stroke="#000" stroke-miterlimit="10" stroke-width="2"/>
          <line id="直线_460" data-name="直线 460" x2="19.231" y2="11.424" transform="translate(762.932 46.623)" fill="none" stroke="#000" stroke-miterlimit="10" stroke-width="2"/>
          <line id="直线_461" data-name="直线 461" x1="23.422" y1="14.352" transform="translate(733.54 28.827)" fill="none" stroke="#000" stroke-miterlimit="10" stroke-width="2"/>
          <line id="直线_462" data-name="直线 462" x1="12.4" y1="7.865" transform="translate(714.997 17.747)" fill="none" stroke="#000" stroke-miterlimit="10" stroke-width="2"/>
          <line id="直线_463" data-name="直线 463" x1="10.792" y2="7.693" transform="translate(712.873 4.371)" fill="none" stroke="#000" stroke-miterlimit="10" stroke-width="2"/>
          <line id="直线_464" data-name="直线 464" y1="14.754" x2="24.283" transform="translate(730.268 -13.712)" fill="none" stroke="#000" stroke-miterlimit="10" stroke-width="2"/>
          <line id="直线_465" data-name="直线 465" y1="12.974" x2="22.389" transform="translate(760.119 -30.13)" fill="none" stroke="#000" stroke-miterlimit="10" stroke-width="2"/>
          <line id="直线_466" data-name="直线 466" y1="15.5" x2="25.833" transform="translate(789.282 -49.132)" fill="none" stroke="#000" stroke-miterlimit="10" stroke-width="2"/>
          <line id="直线_467" data-name="直线 467" x1="20.781" y2="12.4" transform="translate(822.176 -65.148)" fill="none" stroke="#000" stroke-miterlimit="10" stroke-width="2"/>
          <line id="直线_468" data-name="直线 468" y1="15.041" x2="24.8" transform="translate(849.502 -83.633)" fill="none" stroke="#000" stroke-miterlimit="10" stroke-width="2"/>
          <line id="直线_469" data-name="直线 469" y1="16.189" x2="26.866" transform="translate(881.851 -103.389)" fill="none" stroke="#000" stroke-miterlimit="10" stroke-width="2"/>
          <line id="直线_470" data-name="直线 470" x2="19.231" y2="11.194" transform="translate(916.642 -105.523)" fill="none" stroke="#000" stroke-miterlimit="10" stroke-width="2"/>
          <line id="直线_471" data-name="直线 471" x2="21.585" y2="12.228" transform="translate(942.303 -91.171)" fill="none" stroke="#000" stroke-miterlimit="10" stroke-width="2"/>
          <line id="直线_472" data-name="直线 472" x2="7.332" y2="4.703" transform="translate(970.088 -75.155)" fill="none" stroke="#000" stroke-miterlimit="10" stroke-width="2"/>
          <path id="路径_38462" data-name="路径 38462" d="M17.963,165.526l-34.726,84.962,105.055,55.8,140.876-22.733L264.3,204.677,162.346,144.055Z" transform="translate(0 -73.682)" fill="none" stroke="#231815" stroke-miterlimit="10" stroke-width="2"/>
          <path id="路径_38463" data-name="路径 38463" d="M27.894,175.113l-31.344,74.4L95.06,300.49l130.888-23.078,30.311-67.51L163.6,154.791Z" transform="translate(-2.635 -75.807)" fill="none" stroke="#231815" stroke-miterlimit="10" stroke-width="1.2"/>
          <path id="路径_38464" data-name="路径 38464" d="M901.908,324.442l-16.755-9.793H823.039L684.23,397.2v37.659l12.629,7.693" transform="translate(-138.751 -107.448)" fill="none" stroke="#000" stroke-miterlimit="10" stroke-width="3"/>
          <ellipse id="椭圆_1805" data-name="椭圆 1805" cx="6.056" cy="3.961" rx="6.056" ry="3.961" transform="translate(558.108 333.668)" fill="none" stroke="#231815" stroke-miterlimit="10" stroke-width="3"/>
          <ellipse id="椭圆_1806" data-name="椭圆 1806" cx="6.627" cy="4.621" rx="6.627" ry="4.621" transform="translate(784.011 228.326)" fill="none" stroke="#000" stroke-miterlimit="10" stroke-width="3"/>
          <path id="路径_38465" data-name="路径 38465" d="M887.185,366.594l-31.11-.335-84.883,51.013v18.733l85.636,50.512h30.357l85.217-51.47V417.44Z" transform="translate(-155.964 -117.664)" fill="none" stroke="#fff" stroke-miterlimit="10" stroke-width="0.5"/>
          <path id="路径_38466" data-name="路径 38466" d="M946.473,350.722l89.079,54.336V441.54L896.4,524.837H835.132l-93-55.8" transform="translate(-150.212 -114.588)" fill="none" stroke="#000" stroke-miterlimit="10" stroke-width="3"/>
          <g id="组_21622" data-name="组 21622" transform="translate(749.065 82.743)">
            <path id="路径_38467" data-name="路径 38467" d="M938.057,285.295l143.5-85.881V166.348" transform="translate(-938.057 -160.837)" fill="none" stroke="#000" stroke-miterlimit="10" stroke-width="2"/>
            <path id="路径_38468" data-name="路径 38468" d="M1179.5,179.8l-41.1,24.8h-27.1L953.8,298.088" transform="translate(-941.174 -163.5)" fill="none" stroke="#000" stroke-miterlimit="10" stroke-width="2"/>
            <line id="直线_473" data-name="直线 473" y1="56.029" x2="94.147" transform="translate(29.601 86.684)" fill="none" stroke="#000" stroke-miterlimit="10" stroke-width="2"/>
            <path id="路径_38469" data-name="路径 38469" d="M998.94,325.11l138.408-82.321h31.861" transform="translate(-950.108 -175.967)" fill="none" stroke="#000" stroke-miterlimit="10" stroke-width="2"/>
            <path id="路径_38470" data-name="路径 38470" d="M1013.684,340.243l130.353-77.557h30.387" transform="translate(-953.026 -179.906)" fill="none" stroke="#000" stroke-miterlimit="10" stroke-width="2"/>
            <line id="直线_474" data-name="直线 474" y1="68.716" x2="115.101" transform="translate(76.674 100.347)" fill="none" stroke="#000" stroke-miterlimit="10" stroke-width="2"/>
            <path id="路径_38471" data-name="路径 38471" d="M1052.62,355.372l142.426-84.887,24.972-3.979,26.867-15.844" transform="translate(-960.733 -177.526)" fill="none" stroke="#000" stroke-miterlimit="10" stroke-width="2"/>
            <line id="直线_475" data-name="直线 475" y1="56.144" x2="94.377" transform="translate(106.354 131.002)" fill="none" stroke="#000" stroke-miterlimit="10" stroke-width="2"/>
            <path id="路径_38472" data-name="路径 38472" d="M1089.123,376.18,1223.8,296.1l40.3-6.372,45.122-27.039" transform="translate(-967.958 -179.906)" fill="none" stroke="#000" stroke-miterlimit="10" stroke-width="2"/>
            <path id="路径_38473" data-name="路径 38473" d="M1107.962,397.534l113.407-67.683,39.4-5.755,33.411,19.633" transform="translate(-971.687 -192.061)" fill="none" stroke="#000" stroke-miterlimit="10" stroke-width="2"/>
            <ellipse id="椭圆_1807" data-name="椭圆 1807" cx="3.387" cy="2.459" rx="3.387" ry="2.459" transform="translate(140.224)" fill="none" stroke="#000" stroke-miterlimit="10" stroke-width="2"/>
            <ellipse id="椭圆_1808" data-name="椭圆 1808" cx="3.387" cy="2.459" rx="3.387" ry="2.459" transform="translate(236.824 12.341)" fill="none" stroke="#000" stroke-miterlimit="10" stroke-width="2"/>
            <ellipse id="椭圆_1809" data-name="椭圆 1809" cx="3.387" cy="2.586" rx="3.387" ry="2.586" transform="translate(220.467 63.138)" fill="none" stroke="#000" stroke-miterlimit="10" stroke-width="2"/>
            <ellipse id="椭圆_1810" data-name="椭圆 1810" cx="3.387" cy="2.586" rx="3.387" ry="2.586" transform="translate(122.944 82.781)" fill="none" stroke="#000" stroke-miterlimit="10" stroke-width="2"/>
            <ellipse id="椭圆_1811" data-name="椭圆 1811" cx="3.387" cy="2.586" rx="3.387" ry="2.586" transform="translate(221.231 80.195)" fill="none" stroke="#000" stroke-miterlimit="10" stroke-width="2"/>
            <ellipse id="椭圆_1812" data-name="椭圆 1812" cx="3.387" cy="2.586" rx="3.387" ry="2.586" transform="translate(191.255 96.67)" fill="none" stroke="#000" stroke-miterlimit="10" stroke-width="2"/>
            <ellipse id="椭圆_1813" data-name="椭圆 1813" cx="3.387" cy="2.586" rx="3.387" ry="2.586" transform="translate(200.211 127.411)" fill="none" stroke="#000" stroke-miterlimit="10" stroke-width="2"/>
            <ellipse id="椭圆_1814" data-name="椭圆 1814" cx="3.387" cy="2.586" rx="3.387" ry="2.586" transform="translate(285.092 69.257)" fill="none" stroke="#000" stroke-miterlimit="10" stroke-width="2"/>
            <ellipse id="椭圆_1815" data-name="椭圆 1815" cx="3.387" cy="2.586" rx="3.387" ry="2.586" transform="translate(340.146 79.036)" fill="none" stroke="#000" stroke-miterlimit="10" stroke-width="2"/>
            <ellipse id="椭圆_1816" data-name="椭圆 1816" cx="3.387" cy="2.586" rx="3.387" ry="2.586" transform="translate(320.922 150.805)" fill="none" stroke="#000" stroke-miterlimit="10" stroke-width="2"/>
          </g>
          <g id="组_21623" data-name="组 21623" transform="translate(334.649 327.96)">
            <path id="路径_38474" data-name="路径 38474" d="M818.493,567.153,675,653.034V686.1" transform="translate(-471.573 -485.388)" fill="none" stroke="#231815" stroke-miterlimit="10" stroke-width="2"/>
            <path id="路径_38475" data-name="路径 38475" d="M556.762,672.808l41.1-24.8h27.1l157.5-93.484" transform="translate(-448.17 -482.888)" fill="none" stroke="#231815" stroke-miterlimit="10" stroke-width="2"/>
            <line id="直线_476" data-name="直线 476" x1="94.147" y2="56.029" transform="translate(223.172 63.51)" fill="none" stroke="#231815" stroke-miterlimit="10" stroke-width="2"/>
            <path id="路径_38476" data-name="路径 38476" d="M754.835,533.242l-143.6,85.41H579.374" transform="translate(-452.646 -478.676)" fill="none" stroke="#231815" stroke-miterlimit="10" stroke-width="2"/>
            <path id="路径_38477" data-name="路径 38477" d="M739.817,521.73,608.182,599.84H577.871" transform="translate(-452.348 -476.397)" fill="none" stroke="#231815" stroke-miterlimit="10" stroke-width="2"/>
            <line id="直线_477" data-name="直线 477" x1="116.73" y2="69.689" transform="translate(155.145 36.188)" fill="none" stroke="#231815" stroke-miterlimit="10" stroke-width="2"/>
            <path id="路径_38478" data-name="路径 38478" d="M694.156,498.872,548.974,585.136,524,589.116,497.136,604.96" transform="translate(-436.368 -471.873)" fill="none" stroke="#231815" stroke-miterlimit="10" stroke-width="2"/>
            <line id="直线_478" data-name="直线 478" x1="94.377" y2="56.144" transform="translate(146.189 19.077)" fill="none" stroke="#231815" stroke-miterlimit="10" stroke-width="2"/>
            <path id="路径_38479" data-name="路径 38479" d="M645.939,479.53,513.846,558.076l-40.3,6.372-45.122,27.039" transform="translate(-422.768 -468.044)" fill="none" stroke="#231815" stroke-miterlimit="10" stroke-width="2"/>
            <path id="路径_38480" data-name="路径 38480" d="M638.23,465.21,524.638,533.643l-39.4,5.755L451.83,519.764" transform="translate(-427.4 -465.21)" fill="none" stroke="#231815" stroke-miterlimit="10" stroke-width="2"/>
            <ellipse id="椭圆_1817" data-name="椭圆 1817" cx="3.387" cy="2.459" rx="3.387" ry="2.459" transform="translate(199.922 201.305)" fill="none" stroke="#231815" stroke-miterlimit="10" stroke-width="2"/>
            <ellipse id="椭圆_1818" data-name="椭圆 1818" cx="3.387" cy="2.459" rx="3.387" ry="2.459" transform="translate(103.321 188.964)" fill="none" stroke="#231815" stroke-miterlimit="10" stroke-width="2"/>
            <ellipse id="椭圆_1819" data-name="椭圆 1819" cx="3.387" cy="2.586" rx="3.387" ry="2.586" transform="translate(119.679 137.914)" fill="none" stroke="#231815" stroke-miterlimit="10" stroke-width="2"/>
            <ellipse id="椭圆_1820" data-name="椭圆 1820" cx="3.387" cy="2.586" rx="3.387" ry="2.586" transform="translate(217.202 118.271)" fill="none" stroke="#231815" stroke-miterlimit="10" stroke-width="2"/>
            <ellipse id="椭圆_1821" data-name="椭圆 1821" cx="3.387" cy="2.586" rx="3.387" ry="2.586" transform="translate(118.915 120.857)" fill="none" stroke="#231815" stroke-miterlimit="10" stroke-width="2"/>
            <ellipse id="椭圆_1822" data-name="椭圆 1822" cx="3.387" cy="2.586" rx="3.387" ry="2.586" transform="translate(148.891 104.382)" fill="none" stroke="#231815" stroke-miterlimit="10" stroke-width="2"/>
            <ellipse id="椭圆_1823" data-name="椭圆 1823" cx="3.387" cy="2.586" rx="3.387" ry="2.586" transform="translate(139.935 73.641)" fill="none" stroke="#231815" stroke-miterlimit="10" stroke-width="2"/>
            <ellipse id="椭圆_1824" data-name="椭圆 1824" cx="3.387" cy="2.586" rx="3.387" ry="2.586" transform="translate(55.054 131.795)" fill="none" stroke="#231815" stroke-miterlimit="10" stroke-width="2"/>
            <ellipse id="椭圆_1825" data-name="椭圆 1825" cx="3.387" cy="2.586" rx="3.387" ry="2.586" transform="translate(0 122.016)" fill="none" stroke="#231815" stroke-miterlimit="10" stroke-width="2"/>
            <ellipse id="椭圆_1826" data-name="椭圆 1826" cx="3.387" cy="2.586" rx="3.387" ry="2.586" transform="translate(19.224 50.247)" fill="none" stroke="#231815" stroke-miterlimit="10" stroke-width="2"/>
          </g>
          <g id="组_21624" data-name="组 21624" transform="translate(749.503 328.444)">
            <path id="路径_38481" data-name="路径 38481" d="M938.6,567.018l114.01,68.2,10.1,22.618-33.3,20.207" transform="translate(-938.603 -485.845)" fill="none" stroke="#231815" stroke-miterlimit="10" stroke-width="2"/>
            <path id="路径_38482" data-name="路径 38482" d="M957.5,556l135.136,80.37,10.218,23.307L1148.434,687" transform="translate(-942.343 -483.663)" fill="none" stroke="#231815" stroke-miterlimit="10" stroke-width="2"/>
            <line id="直线_479" data-name="直线 479" x2="94.836" y2="56.374" transform="translate(30.655 63.377)" fill="none" stroke="#231815" stroke-miterlimit="10" stroke-width="2"/>
            <path id="路径_38483" data-name="路径 38483" d="M996.005,533.379l142.943,85.192,6.889,15.155,26.637,15.959" transform="translate(-949.965 -479.187)" fill="none" stroke="#231815" stroke-miterlimit="10" stroke-width="2"/>
            <line id="直线_480" data-name="直线 480" x2="116.766" y2="69.462" transform="translate(60.851 45.351)" fill="none" stroke="#231815" stroke-miterlimit="10" stroke-width="2"/>
            <path id="路径_38484" data-name="路径 38484" d="M1033.51,511.191,1163.479,588.8V607.06" transform="translate(-957.388 -474.795)" fill="none" stroke="#231815" stroke-miterlimit="10" stroke-width="2"/>
            <path id="路径_38485" data-name="路径 38485" d="M1052.549,499.6l143.058,86v18.255" transform="translate(-961.157 -472.5)" fill="none" stroke="#231815" stroke-miterlimit="10" stroke-width="2"/>
            <line id="直线_481" data-name="直线 481" x2="93.114" y2="55.799" transform="translate(106.547 18.141)" fill="none" stroke="#231815" stroke-miterlimit="10" stroke-width="2"/>
            <path id="路径_38486" data-name="路径 38486" d="M1090.2,477.122l155.687,92.884v15.729l40.644,24.226" transform="translate(-968.609 -468.051)" fill="none" stroke="#231815" stroke-miterlimit="10" stroke-width="2"/>
            <path id="路径_38487" data-name="路径 38487" d="M1107.962,465.813l144.309,85.766H1309.1" transform="translate(-972.125 -465.813)" fill="none" stroke="#231815" stroke-miterlimit="10" stroke-width="2"/>
            <ellipse id="椭圆_1827" data-name="椭圆 1827" cx="3.363" cy="2.594" rx="3.363" ry="2.594" transform="translate(231.311 131.347)" fill="none" stroke="#231815" stroke-miterlimit="10" stroke-width="2"/>
            <ellipse id="椭圆_1828" data-name="椭圆 1828" cx="3.363" cy="2.594" rx="3.363" ry="2.594" transform="translate(202.728 132.265)" fill="none" stroke="#231815" stroke-miterlimit="10" stroke-width="2"/>
            <ellipse id="椭圆_1829" data-name="椭圆 1829" cx="3.363" cy="2.102" rx="3.363" ry="2.102" transform="translate(221.705 169.723)" fill="none" stroke="#231815" stroke-miterlimit="10" stroke-width="2"/>
            <ellipse id="椭圆_1830" data-name="椭圆 1830" cx="3.363" cy="2.102" rx="3.363" ry="2.102" transform="translate(316.698 141.265)" fill="none" stroke="#231815" stroke-miterlimit="10" stroke-width="2"/>
            <ellipse id="椭圆_1831" data-name="椭圆 1831" cx="3.363" cy="2.102" rx="3.363" ry="2.102" transform="translate(336.978 83.664)" fill="none" stroke="#231815" stroke-miterlimit="10" stroke-width="2"/>
            <ellipse id="椭圆_1832" data-name="椭圆 1832" cx="3.769" cy="2.356" rx="3.769" ry="2.356" transform="translate(175.967 114.198)" fill="none" stroke="#231815" stroke-miterlimit="10" stroke-width="2"/>
            <ellipse id="椭圆_1833" data-name="椭圆 1833" cx="3.769" cy="2.356" rx="3.769" ry="2.356" transform="translate(198.552 73.134)" fill="none" stroke="#231815" stroke-miterlimit="10" stroke-width="2"/>
            <ellipse id="椭圆_1834" data-name="椭圆 1834" cx="3.769" cy="2.356" rx="3.769" ry="2.356" transform="translate(124.351 119.146)" fill="none" stroke="#231815" stroke-miterlimit="10" stroke-width="2"/>
            <ellipse id="椭圆_1835" data-name="椭圆 1835" cx="3.769" cy="2.356" rx="3.769" ry="2.356" transform="translate(205.711 202.513)" fill="none" stroke="#231815" stroke-miterlimit="10" stroke-width="2"/>
            <ellipse id="椭圆_1836" data-name="椭圆 1836" cx="3.769" cy="2.356" rx="3.769" ry="2.356" transform="translate(84.263 191.779)" fill="none" stroke="#231815" stroke-miterlimit="10" stroke-width="2"/>
          </g>
          <g id="组_21625" data-name="组 21625" transform="translate(338.036 81.141)">
            <path id="路径_38488" data-name="路径 38488" d="M823.489,287.24l-114.01-68.2-10.1-22.618,33.3-20.207" transform="translate(-479.785 -161.189)" fill="none" stroke="#231815" stroke-miterlimit="10" stroke-width="2"/>
            <path id="路径_38489" data-name="路径 38489" d="M788.1,293.333l-135.136-80.37-10.219-23.307L597.167,162.33" transform="translate(-459.555 -158.44)" fill="none" stroke="#231815" stroke-miterlimit="10" stroke-width="2"/>
            <line id="直线_482" data-name="直线 482" x1="94.836" y1="56.374" transform="translate(218.212 87.474)" fill="none" stroke="#231815" stroke-miterlimit="10" stroke-width="2"/>
            <path id="路径_38490" data-name="路径 38490" d="M753.166,319.577,610.223,234.385l-6.889-15.155L576.7,203.27" transform="translate(-455.503 -166.544)" fill="none" stroke="#231815" stroke-miterlimit="10" stroke-width="2"/>
            <line id="直线_483" data-name="直线 483" x1="116.766" y1="69.462" transform="translate(166.087 92.411)" fill="none" stroke="#231815" stroke-miterlimit="10" stroke-width="2"/>
            <path id="路径_38491" data-name="路径 38491" d="M727.137,346.808,597.167,269.194V250.938" transform="translate(-459.555 -175.979)" fill="none" stroke="#231815" stroke-miterlimit="10" stroke-width="2"/>
            <path id="路径_38492" data-name="路径 38492" d="M704.868,356.335l-143.058-86V252.084" transform="translate(-452.556 -176.206)" fill="none" stroke="#231815" stroke-miterlimit="10" stroke-width="2"/>
            <line id="直线_484" data-name="直线 484" x1="93.114" y1="55.799" transform="translate(144.042 133.285)" fill="none" stroke="#231815" stroke-miterlimit="10" stroke-width="2"/>
            <path id="路径_38493" data-name="路径 38493" d="M654.073,371.754,535.224,300.848l-36.839-21.978V263.14l-40.644-24.226" transform="translate(-431.957 -173.599)" fill="none" stroke="#231815" stroke-miterlimit="10" stroke-width="2"/>
            <path id="路径_38494" data-name="路径 38494" d="M635.121,394.679,490.812,308.913H433.979" transform="translate(-427.254 -187.454)" fill="none" stroke="#231815" stroke-miterlimit="10" stroke-width="2"/>
            <ellipse id="椭圆_1837" data-name="椭圆 1837" cx="3.363" cy="2.594" rx="3.363" ry="2.594" transform="translate(105.667 70.69)" fill="none" stroke="#231815" stroke-miterlimit="10" stroke-width="2"/>
            <ellipse id="椭圆_1838" data-name="椭圆 1838" cx="3.363" cy="2.594" rx="3.363" ry="2.594" transform="translate(134.25 69.772)" fill="none" stroke="#231815" stroke-miterlimit="10" stroke-width="2"/>
            <ellipse id="椭圆_1839" data-name="椭圆 1839" cx="3.363" cy="2.102" rx="3.363" ry="2.102" transform="translate(115.274 33.298)" fill="none" stroke="#231815" stroke-miterlimit="10" stroke-width="2"/>
            <ellipse id="椭圆_1840" data-name="椭圆 1840" cx="3.363" cy="2.102" rx="3.363" ry="2.102" transform="translate(20.28 61.757)" fill="none" stroke="#231815" stroke-miterlimit="10" stroke-width="2"/>
            <ellipse id="椭圆_1841" data-name="椭圆 1841" cx="3.363" cy="2.102" rx="3.363" ry="2.102" transform="translate(0 119.357)" fill="none" stroke="#231815" stroke-miterlimit="10" stroke-width="2"/>
            <ellipse id="椭圆_1842" data-name="椭圆 1842" cx="3.769" cy="2.356" rx="3.769" ry="2.356" transform="translate(160.198 88.315)" fill="none" stroke="#231815" stroke-miterlimit="10" stroke-width="2"/>
            <ellipse id="椭圆_1843" data-name="椭圆 1843" cx="3.769" cy="2.356" rx="3.769" ry="2.356" transform="translate(137.613 129.379)" fill="none" stroke="#231815" stroke-miterlimit="10" stroke-width="2"/>
            <ellipse id="椭圆_1844" data-name="椭圆 1844" cx="3.769" cy="2.356" rx="3.769" ry="2.356" transform="translate(211.813 83.367)" fill="none" stroke="#231815" stroke-miterlimit="10" stroke-width="2"/>
            <ellipse id="椭圆_1845" data-name="椭圆 1845" cx="3.769" cy="2.356" rx="3.769" ry="2.356" transform="translate(130.454)" fill="none" stroke="#231815" stroke-miterlimit="10" stroke-width="2"/>
            <ellipse id="椭圆_1846" data-name="椭圆 1846" cx="3.769" cy="2.356" rx="3.769" ry="2.356" transform="translate(251.901 10.734)" fill="none" stroke="#231815" stroke-miterlimit="10" stroke-width="2"/>
          </g>
          <path id="矩形_2283" data-name="矩形 2283" d="M8.125,0h6.139a8.125,8.125,0,0,1,8.125,8.125v8.753a0,0,0,0,1,0,0H0a0,0,0,0,1,0,0V8.125A8.125,8.125,0,0,1,8.125,0Z" transform="translate(1059.814 -146.526)" fill="none" stroke="#000" stroke-miterlimit="10" stroke-width="2"/>
          <line id="直线_485" data-name="直线 485" y2="5.942" transform="translate(1071.482 -122.716)" fill="none" stroke="#000" stroke-linecap="round" stroke-miterlimit="10" stroke-width="2"/>
          <line id="直线_486" data-name="直线 486" x1="1.851" transform="translate(1070.111 -53.936)" fill="none" stroke="#000" stroke-linecap="round" stroke-miterlimit="10" stroke-width="3"/>
          <g id="组_21626" data-name="组 21626" transform="translate(1194.715 205.797)">
            <path id="路径_38495" data-name="路径 38495" d="M1541.735,367.616s-83.945,5.622-29.923,52.427c0,0-36.436,23.969,6.518,51.676s93.057-.381,93.057-.381l158.762-91.381s38.388-28.088-.011-54.673-91.755-2.615-95.008.755c0,0-60.526-28.08-111.928-.74C1563.2,325.3,1527.414,343.651,1541.735,367.616Z" transform="translate(-1493.686 -312.898)" fill="none" stroke="#000" stroke-miterlimit="10" stroke-width="2"/>
            <path id="路径_38496" data-name="路径 38496" d="M1902.88,476l-127.53,73.4-86.234-49.611,127.53-73.4Z" transform="translate(-1532.368 -335.361)" fill="none" stroke="#000" stroke-miterlimit="10" stroke-width="2"/>
            <path id="路径_38497" data-name="路径 38497" d="M1881.338,487.193,1794.8,537l-110.965-63.839,86.538-49.81Z" transform="translate(-1531.323 -334.762)" fill="none" stroke="#000" stroke-miterlimit="10" stroke-width="2"/>
            <path id="路径_38498" data-name="路径 38498" d="M1830.246,499.132l9.437,5.429c3.5,2.016,3.505,5.286,0,7.3h0a14.066,14.066,0,0,1-12.69,0l-9.437-5.429-4.325-1.676c-5.091.44-10.465-.467-14.384-2.722-6.56-3.774-6.561-9.893,0-13.668s17.192-3.775,23.752,0c4.225,2.43,5.729,5.834,4.512,8.958Z" transform="translate(-1553.115 -347.07)" fill="none" stroke="#000" stroke-miterlimit="10" stroke-width="2"/>
          </g>
        </g>
      </g>
      <path id="路径_40302" data-name="路径 40302" d="M42.732-27.041v10.359H36.359V-44.408h6.373V-32.4h7.439v5.357ZM17.113-18.459a13.031,13.031,0,0,1-9.382-3.5,11.612,11.612,0,0,1-3.669-8.76,11.67,11.67,0,0,1,3.644-8.8,13.036,13.036,0,0,1,9.407-3.491,13.036,13.036,0,0,1,9.407,3.491,11.67,11.67,0,0,1,3.644,8.8,11.612,11.612,0,0,1-3.669,8.76A13.031,13.031,0,0,1,17.113-18.459Zm0-19.348A6.179,6.179,0,0,0,12.238-35.8a7.374,7.374,0,0,0-1.777,5.078,7.284,7.284,0,0,0,1.79,5.078,6.226,6.226,0,0,0,4.862,1.98,6.325,6.325,0,0,0,4.862-1.98,7.163,7.163,0,0,0,1.841-5.078A7.25,7.25,0,0,0,21.988-35.8,6.276,6.276,0,0,0,17.113-37.807ZM11.959,3.529V-14.625H42.732V3.529ZM36.41-9.268h-18.1v7.49h18.1Zm33-24.172v-5.154H85.226v-5.764h6.3v5.764h15.869v5.154ZM65.675-1.5V-6.754H85.226v-5.307q-6.322-.584-9.737-3.174a7.816,7.816,0,0,1-3.415-6.449Q72.074-26,76.4-28.7t12-2.7q7.668,0,11.972,2.7t4.3,7.021a7.864,7.864,0,0,1-3.428,6.437q-3.428,2.628-9.725,3.187v5.307h19.6V-1.5ZM88.4-26.3q-9.826,0-9.826,4.621,0,4.723,9.826,4.723,4.875,0,7.3-1.257a3.833,3.833,0,0,0,2.425-3.466q0-2.184-2.476-3.4A16.938,16.938,0,0,0,88.4-26.3Zm39.726-7.338V-39h12.01v-5.764h6.4V-39h11.959v5.357Zm40.346,15.488V4.57h-6.4V-44.408h6.4v20.9h7.338v5.357ZM160.423-3.275q-13.508.787-33.643.787l-.635-5.307,13.99-.1v-4.951a12.537,12.537,0,0,1-7.008-3.288,8.37,8.37,0,0,1-2.514-6.132,8.425,8.425,0,0,1,3.466-6.944q3.466-2.7,9.28-2.7,5.891,0,9.268,2.577a8.208,8.208,0,0,1,3.377,6.868,8.678,8.678,0,0,1-2.476,6.17,12.187,12.187,0,0,1-7,3.4v4.85q10.41-.254,13.457-.533Zm-17.062-23.41a7.533,7.533,0,0,0-4.608,1.295,3.846,3.846,0,0,0-1.739,3.174,3.768,3.768,0,0,0,1.688,3.148,7.712,7.712,0,0,0,4.659,1.244,7.664,7.664,0,0,0,4.621-1.231,3.765,3.765,0,0,0,1.676-3.161,3.851,3.851,0,0,0-1.663-3.225A7.6,7.6,0,0,0,143.361-26.686Z" transform="translate(8621 -724.46)" fill="#0080f4"/>
      <path id="路径_40310" data-name="路径 40310" d="M238.648-20.236V4.57h-6.322V-44.408h6.322v18.814h7.668v5.357ZM225.09-7.541q-7.693-5.51-11.02-11.705a41.754,41.754,0,0,1-5.142,7.3A27.283,27.283,0,0,1,203.1-6.6l-4.7-4.062a22.721,22.721,0,0,0,8.607-7.871,19.392,19.392,0,0,0,3.834-11.045v-5.357H200.232v-5.357h27.346v5.357H217.193v5.205a17.582,17.582,0,0,0,3.682,10.309,20.773,20.773,0,0,0,8.43,7.211ZM301-24.273V-9.141h-6.322V-44.408H301v14.777h7.49v5.357Zm-13.508,7.9A26.361,26.361,0,0,1,276.318-26.2a26.907,26.907,0,0,1-4.9,6.373,26.332,26.332,0,0,1-6.018,4.9l-4.646-4.57a21.568,21.568,0,0,0,8.709-6.855,15.346,15.346,0,0,0,3.529-9.369v-6.6h6.373v6.4a13.448,13.448,0,0,0,3.567,8.887,17.194,17.194,0,0,0,8.62,5.561ZM270.377,2.869V-13.3h6.4V-2.488h25.594V2.869Zm61.155-9.837h-7.644V.624h4.368c-.052,3.224-.78,4.16-3.952,5.044l1.872,2.756c4.212-1.664,5.356-3.328,5.356-7.8ZM411.872,4.57V-20.643H400.421V-26h11.451V-44.408h6.246V4.57Zm-9.09-44.764a36.068,36.068,0,0,1-6.31,20.249,45.519,45.519,0,0,1-16.06,14.13l-4.723-5.053a31.082,31.082,0,0,0,8.849-5.192,32.683,32.683,0,0,0,6.894-7.452l-13.406,1.371-2.234-5.586,18.51-1.143a28.43,28.43,0,0,0,1.65-5.967H378.636v-5.357Zm42.8,16.961v-19.4h31.281v19.4ZM470.54-37.273H451.954v8.734H470.54ZM449.821,4.52V-12.492H438.547v-5.332H484v5.332H472.723V4.52h-6.4V-12.492H456.219V4.52Zm85.252.051V-44.408h6.271V4.57Zm-2.92-15.742Q526.922-9.8,515.471-9.8l-11.045-.076v-31h6.3v25.645q9.674,0,13.33-.178a56.6,56.6,0,0,0,7.414-.863ZM598.031,4.57V-44.408h6.246V4.57ZM593.308-9.877q-5.154.584-9.661.686t-17.481.1V-40.143h24.477v5.357H572.386v6.449h15.971v5.307H572.386V-14.4h2.539a152,152,0,0,0,18-.736Zm85.368-10.664a12.725,12.725,0,0,1-10.436,4.723,13.217,13.217,0,0,1-9.547-3.694,12.873,12.873,0,0,1-3.834-9.712,12.9,12.9,0,0,1,3.821-9.712,13.206,13.206,0,0,1,9.56-3.694A12.791,12.791,0,0,1,678.956-37.6h10.08v-6.8h6.3v35.42h-6.3V-20.541ZM668.241-37.324a6.592,6.592,0,0,0-5.154,2.146,8.586,8.586,0,0,0-1.93,5.954,8.55,8.55,0,0,0,1.942,5.954,6.6,6.6,0,0,0,5.142,2.146,6.563,6.563,0,0,0,5.1-2.158,8.524,8.524,0,0,0,1.955-5.941,8.559,8.559,0,0,0-1.942-5.941A6.553,6.553,0,0,0,668.241-37.324Zm12.9,11.73h7.9V-32.5h-7.795a17.2,17.2,0,0,1,.3,3.275A15.809,15.809,0,0,1,681.139-25.594ZM663.772,2.869V-13.3h6.373V-2.488h26.178V2.869Zm77-26.482v-4.926h10.766v-4.469h-9.42v-4.951h9.42v-6.449h6.246v24.6h-6.246v-3.809Zm-20.287,4.469L716.4-24.223a30.735,30.735,0,0,0,10.41-4.418,21.027,21.027,0,0,0,8.15-9.014H719.393v-5.357H742.9Q740.619-26.432,720.485-19.145ZM726.1,3.91V-9.471h25.441v-3.174H726.1V-17.9h31.688V-4.672H732.393v3.326h26.635V3.91Z" transform="translate(8621 -724.46)"/>
    </g>
  </g>
</svg>
