<svg xmlns="http://www.w3.org/2000/svg" xmlns:xlink="http://www.w3.org/1999/xlink" width="1820" height="880" viewBox="0 0 1820 880">
  <defs>
    <clipPath id="clip-path">
      <rect id="矩形_2284" data-name="矩形 2284" width="1820" height="880" transform="translate(50 89)" fill="#fff"/>
    </clipPath>
  </defs>
  <g id="交易中心-CN" transform="translate(-8450 1151)">
    <g id="交易中心_CN">
      <path id="路径_39878" data-name="路径 39878" d="M189.852-16.8a5.685,5.685,0,0,1,.052,1.04,15.124,15.124,0,0,1-1.872,6.864A12.466,12.466,0,0,1,182.1-3.536a45.885,45.885,0,0,1-13.676,3.38,20.12,20.12,0,0,1,3.328,4.628C184.808,1.924,190.58-1.144,193.44-7.176c1.248-2.548,1.768-5.044,2.08-9.62Zm-8.008-20.852A44.165,44.165,0,0,0,174.1-43.42l-3.848,3.484a34.254,34.254,0,0,1,7.592,6.084ZM180.908-5.2c-.1-1.508-.1-2.652-.1-5.512v-7.852H204v7.852c0,2.86,0,4.056-.1,5.512h5.72a41.948,41.948,0,0,1-.208-5.512v-6.812c0-2.86,0-3.848.052-5.044a42.93,42.93,0,0,0,5.1,1.092,18.844,18.844,0,0,1,2.184-5.1c-5.3-.416-8.268-1.2-11.18-2.86a11.012,11.012,0,0,1-5.252-6.344h8.008a16.4,16.4,0,0,1-3.484,3.068,24.349,24.349,0,0,1,4.784,1.976,30.976,30.976,0,0,0,4.576-5.356c.52-.78.676-1.04,1.2-1.768l-3.068-2.392A27.539,27.539,0,0,1,208-40.04H192.764c.416-.624.728-1.092.884-1.3a3.886,3.886,0,0,1,.676-1.092c.1-.208.208-.364.416-.78l-5.46-.988c-1.352,3.432-3.848,6.24-8.268,9.36a11.452,11.452,0,0,1,3.484,3.432,37.4,37.4,0,0,0,4.94-4.368h5.2c-1.56,5.512-4.836,7.592-13.728,8.736l2.236-1.04-1.56-4.576a51.485,51.485,0,0,1-12.74,4.68l2.028,5.356c1.04-.468,1.716-.78,2.288-1.04,4.732-1.924,4.732-1.924,7.488-3.224a17.236,17.236,0,0,1,2.34,3.8h-2.5c-2.5,0-4-.052-5.3-.156a48.864,48.864,0,0,1,.208,5.408v7.124c0,2.028-.1,4.264-.208,5.512Zm3.952-17.888c6.552-1.2,9.932-3.276,12.74-7.748a23.346,23.346,0,0,0,10.14,7.592c-1.56.1-2.392.156-3.432.156ZM215.488-.676c-3.068-1.144-6.6-2.34-8.528-2.912-2.08-.572-10.244-2.808-11.492-3.12l-2.5,4.576c1.768.468,2.288.624,3.952,1.092C200.3-.1,200.3-.1,201.708.312c4.056,1.3,5.2,1.716,9.724,3.432.416.156,1.092.416,1.924.728ZM261.04-40.092a43.344,43.344,0,0,1-5.98-.312v5.512a56.688,56.688,0,0,1,5.928-.208h3.484a38.6,38.6,0,0,1,2.132,7.332h-5.668a40.986,40.986,0,0,1-5.876-.26c.1,1.352.208,2.756.208,3.64,0,8.736,0,9.308-.364,12.428-.624,5.252-1.248,7.02-4.16,11.492A25.249,25.249,0,0,1,254.8,4.68c4.472-6.292,5.928-11.908,5.928-22.88v-4.524h31.616c2.08,0,4.992.1,5.772.156a6.39,6.39,0,0,0,.676.1V-28.08a51.371,51.371,0,0,1-6.448.312h-6.136c.728-1.82,1.092-2.86,1.352-3.692l1.092-3.64h2.964a59.292,59.292,0,0,1,5.928.208V-40.4a46.263,46.263,0,0,1-5.928.312H280.072a14.087,14.087,0,0,0-1.716-4l-6.292,1.248a13.973,13.973,0,0,1,1.456,2.756Zm11.492,12.324A39.593,39.593,0,0,0,270.4-35.1h12.22a41.5,41.5,0,0,1-2.236,7.332Zm73.84,18.616H338.78V-1.56H343.1c-.052,3.224-.78,4.16-3.9,5.044l1.82,2.756c4.212-1.664,5.356-3.328,5.356-7.8Zm95.212-17.212,3.484-8.06H459.68a34.017,34.017,0,0,1,4.732.312v-5.512a25.693,25.693,0,0,1-4.836.26H446.42l.26-.572a27.817,27.817,0,0,1,1.248-2.912l-5.512-1.144a23.258,23.258,0,0,1-1.4,4.628h-2.6a43.679,43.679,0,0,1-6.032-.312v5.512c1.3-.156,3.9-.26,5.928-.26h1.2l-2.392,5.616c-.832,1.716-1.2,2.132-2.548,2.808l1.248,4.628a2.747,2.747,0,0,1,.676-.052,7.362,7.362,0,0,1,.988-.052,14.662,14.662,0,0,1,2.236-.1h8.06v4.94H436.124a22.452,22.452,0,0,1-4.212-.312v5.512a28.946,28.946,0,0,1,4.264-.208h11.6V-9.2a48.548,48.548,0,0,1-.26,5.46h5.668a35.14,35.14,0,0,1-.312-5.46v-2.444h8.424a32.136,32.136,0,0,1,4.316.208v-5.512a19.028,19.028,0,0,1-4.212.312h-8.528v-4.94h5.72a17.246,17.246,0,0,1,3.8.26v-5.3c-.312.052-1.56.156-3.8.26h-5.72v-1.612a42.953,42.953,0,0,1,.208-4.368h-5.46c.1,1.872.156,2.86.156,4.368v1.612Zm-16.9,19.4c-.832.52-3.8,2.808-4.836,3.692-1.924,1.768-1.924,1.768-2.548,2.288l4.056,4.68c2.08-2.548,2.08-2.548,2.6-3.172,1.56-1.716,2.652-2.548,3.38-2.548a2.2,2.2,0,0,1,1.352.572c3.224,2.548,3.588,2.808,5.408,3.432,2.6.936,5.564,1.248,12.74,1.248,9.62,0,13.416-.052,18.408-.364a21.2,21.2,0,0,1,1.612-6.032,77.792,77.792,0,0,1-8.632.676c-4.212.156-8.58.26-11.44.26-8.58,0-11.128-.52-14.4-2.964-2.08-1.56-2.08-1.56-2.236-1.664V-18.252a62.475,62.475,0,0,1,.208-6.448,21.827,21.827,0,0,1-3.952.26h-3.9a23.256,23.256,0,0,1-4.16-.26v5.616a18.943,18.943,0,0,1,3.484-.26h2.86ZM418.652-39.52a51.676,51.676,0,0,1,4.264,4.16,53.97,53.97,0,0,1,3.8,4.732l4.16-4.16a53.732,53.732,0,0,0-7.124-7.488,14.366,14.366,0,0,0-1.144-.988ZM544.18-12.272a31.839,31.839,0,0,1,5.044.26v-5.512a29.834,29.834,0,0,1-5.1.26H532.272a10.116,10.116,0,0,1,.728-1.2c.572-1.04.572-1.04.832-1.508l-4.316-1.3h14.4a32.739,32.739,0,0,1,5.3.26V-26.52a31.949,31.949,0,0,1-5.3.26h-4.108a27.017,27.017,0,0,0,3.224-6.136l-4.888-1.248h4.628a30.078,30.078,0,0,1,5.252.26V-38.9a38.413,38.413,0,0,1-5.824.26h-6.448a34.7,34.7,0,0,0-2.288-5.824L528.06-42.9a20.513,20.513,0,0,1,1.976,4.264h-5.772a40.54,40.54,0,0,1-5.876-.26v5.512a29.7,29.7,0,0,1,5.252-.26h3.016L522.34-31.98a21.461,21.461,0,0,1,2.392,5.72H521.2a20.271,20.271,0,0,1-4.16-.26v5.512a26.43,26.43,0,0,1,4.472-.26h6.812a26.739,26.739,0,0,1-1.56,3.432c-.208.468-.208.468-.312.572H521.82a31.84,31.84,0,0,1-5.044-.26v5.512a31.911,31.911,0,0,1,4.992-.26h1.508A41.457,41.457,0,0,1,518.7-6.708a89.913,89.913,0,0,1,9.152,3.172c-3.952,1.872-7.7,2.652-13.676,3.016a15.87,15.87,0,0,1,2.184,4.992c7.124-.832,12.428-2.548,17.16-5.564a82.017,82.017,0,0,1,11.024,5.98l3.64-4.68a76.393,76.393,0,0,0-10.3-4.94,20.1,20.1,0,0,0,4.68-7.54Zm-7.28,0a13.863,13.863,0,0,1-4.056,5.616c-2.86-.988-4.94-1.716-6.292-2.132,1.456-1.82,1.924-2.444,2.652-3.484Zm.884-21.372c-1.2,3.9-1.716,5.1-3.276,7.384h-9.152l4.264-1.612a26.068,26.068,0,0,0-2.392-5.772Zm-24.908-.364v-4.316a29.881,29.881,0,0,1,.312-5.252H507.1a30.165,30.165,0,0,1,.312,5.3v4.264h-2.08a22.39,22.39,0,0,1-3.848-.26v5.512a31.528,31.528,0,0,1,3.8-.208h2.132v9.412a32.863,32.863,0,0,1-6.552,1.612l1.092,5.824a16.549,16.549,0,0,1,2.184-.832c.832-.26,1.976-.624,3.276-1.092V-2.652c0,1.248-.312,1.56-1.664,1.56a23.663,23.663,0,0,1-3.952-.364A16.2,16.2,0,0,1,503.1,3.9a20.959,20.959,0,0,0,2.392.1c2.86,0,4.732-.364,5.876-1.04.936-.624,1.508-2.132,1.508-4V-16.276a37.356,37.356,0,0,0,3.536-1.768l-.416-5.2-3.12,1.56v-7.28h1.456a25.65,25.65,0,0,1,2.86.156v-5.408a15.207,15.207,0,0,1-2.912.208ZM598-16.744a49.357,49.357,0,0,1,6.24,6.708l3.328-4.68a55.207,55.207,0,0,0-8.32-7.072,41.267,41.267,0,0,0,5.252-9,14.664,14.664,0,0,1,1.2-2.184l-2.548-2.7a18.606,18.606,0,0,1-2.964.156h-3.9l3.224-2.34a34.5,34.5,0,0,0-4.68-6.5L590.46-41.6a32.709,32.709,0,0,1,4.42,6.084h-5.148a31.749,31.749,0,0,1-4.108-.208v5.772a35.965,35.965,0,0,1,4.42-.208h8.424a32.024,32.024,0,0,1-5.616,8.008,37.1,37.1,0,0,1-9,7.02,20.147,20.147,0,0,1,2.652,5.408,37.175,37.175,0,0,0,5.824-4.42V-1.092a37.327,37.327,0,0,1-.312,5.408h6.292A29.818,29.818,0,0,1,598-.988ZM620.048-29.12v-9.152a30.483,30.483,0,0,1,.364-5.408h-6.5a36.813,36.813,0,0,1,.364,5.408v9.152h-3.9a35.1,35.1,0,0,1-5.1-.26V-23.5c1.664-.156,3.328-.26,5.1-.26h3.9V-3.432h-5.668a47.152,47.152,0,0,1-5.98-.312V2.548a41.934,41.934,0,0,1,5.876-.364h17.784a42.7,42.7,0,0,1,5.928.364V-3.744a44.6,44.6,0,0,1-5.928.312h-6.24V-23.764h5.512c1.82,0,3.432.1,5.1.26V-29.38a33.819,33.819,0,0,1-5.1.26Zm65.936,9.2c1.456,0,2.652.052,3.952.1a16.212,16.212,0,0,1-.208-3.12v-5.512c.832.052,1.3.1,2.028.208v-5.148c-.572.052-.728.1-2.028.156v-5.46a17.537,17.537,0,0,1,.208-3.172c-1.2.1-2.132.156-4.212.156H673.608a33.1,33.1,0,0,1-4.316-.26v5.3a24.421,24.421,0,0,1,3.536-.208h2.288v3.64H672.2a37.987,37.987,0,0,1-4.836-.208v5.252a28.589,28.589,0,0,1,4.836-.26h2.6c-.156,1.664-.312,2.7-.468,3.8H672.62a29.237,29.237,0,0,1-3.432-.156v5.044a32.058,32.058,0,0,1,3.64-.156h.364a28.993,28.993,0,0,1-6.656,11.18,15.738,15.738,0,0,1,2.5,5.668,31.059,31.059,0,0,0,4.212-5.512c-.052.78-.052,1.56-.052,3.12V0c0,1.2-.1,2.392-.26,4h5.616V1.04h6.188V2.86h5.616a31.646,31.646,0,0,1-.26-4.68V-13a26.978,26.978,0,0,1,.156-3.588,23.609,23.609,0,0,1-3.276.156H677.2a30.363,30.363,0,0,0,1.2-3.484Zm-6.5-4.732a26.1,26.1,0,0,0,.468-3.8h4.94v3.8Zm.728-8.58.1-3.64h4.576v3.64Zm-1.664,21.684h6.188V-3.9h-6.188Zm30.784-22.308a63.387,63.387,0,0,0,4.212-8.476L708.032-44.1a50.008,50.008,0,0,1-4.212,10.244h-6.708a27.972,27.972,0,0,1-4.316-.208v5.668a24.251,24.251,0,0,1,4.212-.26h3.536v5.3H696.7a19.381,19.381,0,0,1-3.8-.26v5.564a19.573,19.573,0,0,1,3.9-.26h3.744v5.876h-5.512a25.675,25.675,0,0,1-3.9-.208v5.72a18.748,18.748,0,0,1,3.8-.26h5.616V-1.3a42.475,42.475,0,0,1-.312,5.668h6.24A43.022,43.022,0,0,1,706.16-1.3V-7.176h5.356a28.946,28.946,0,0,1,4.524.312v-5.824a32.389,32.389,0,0,1-4.732.26H706.16V-18.3h3.64a25.763,25.763,0,0,1,4.42.26v-5.564a20.405,20.405,0,0,1-4.42.26h-3.64v-5.3h4.94a24.171,24.171,0,0,1,4.264.26v-5.72a26.6,26.6,0,0,1-4.628.26Zm-7.384-1.924a64.478,64.478,0,0,0-3.744-8.268l-5.2,1.82a37.667,37.667,0,0,1,3.8,8.268Z" transform="translate(8620 -737)"/>
      <path id="路径_39976" data-name="路径 39976" d="M5-9.6a4.159,4.159,0,0,0-3.1,1.2A5.137,5.137,0,0,0,.54-4.656c0,3.048,1.752,5,4.476,5S9.5-1.62,9.5-4.656A5.175,5.175,0,0,0,8.16-8.4,4.205,4.205,0,0,0,5-9.6ZM5.04-1.08a2.591,2.591,0,0,1-1.86-.732,3.965,3.965,0,0,1-.972-2.832c0-2.172,1.092-3.54,2.82-3.54a2.583,2.583,0,0,1,1.848.732,3.876,3.876,0,0,1,.948,2.8C7.824-2.448,6.756-1.08,5.04-1.08ZM36.576-9.408a9.767,9.767,0,0,1,.1,1.644V-3.54a2.191,2.191,0,0,1-2.436,2.484,2.2,2.2,0,0,1-2.46-2.472V-7.764a9.41,9.41,0,0,1,.1-1.644H30.084a9.858,9.858,0,0,1,.1,1.644v4.236a3.865,3.865,0,0,0,.9,2.76A4.134,4.134,0,0,0,34.176.36c2.616,0,4.092-1.392,4.092-3.876v-4.26a9.7,9.7,0,0,1,.1-1.632ZM67.332.144c-.168-.324-.468-.972-.564-1.188C65.58-3.852,65.352-4.188,64.6-4.428a2.537,2.537,0,0,0,1.332-.7,2.467,2.467,0,0,0,.612-1.788c0-1.584-1.044-2.5-2.868-2.5h-2.88c-.66,0-1.032-.012-1.536-.036a10.677,10.677,0,0,1,.1,1.56v6.468a9.391,9.391,0,0,1-.1,1.56h1.788a9.364,9.364,0,0,1-.1-1.572V-3.876h1.788c.924,0,1.344.444,1.992,2.1a9.714,9.714,0,0,1,.624,1.92ZM60.948-5.244v-2.8h2.46c.984,0,1.476.444,1.476,1.308A1.424,1.424,0,0,1,64.5-5.676a1.617,1.617,0,0,1-1.14.432ZM116.7.144a9.771,9.771,0,0,1,.528-1.6l1.8-4.224a14.644,14.644,0,0,0,.552-1.752c-.012.18-.048.792-.1,1.836v3.984a11.156,11.156,0,0,1-.1,1.752h1.68a10.4,10.4,0,0,1-.1-1.752V-7.632a12.427,12.427,0,0,1,.1-1.776H118.86a6.65,6.65,0,0,1-.432,1.428L116-2.028,113.568-7.98a8.305,8.305,0,0,1-.444-1.428h-2.2a11.9,11.9,0,0,1,.1,1.776v6.024a11.254,11.254,0,0,1-.1,1.752h1.68a10.964,10.964,0,0,1-.1-1.752V-5.544c0-.264-.048-1.248-.1-1.884a13.354,13.354,0,0,0,.612,1.836l1.728,4.116a8.169,8.169,0,0,1,.528,1.62Zm25.272-9.552a8.966,8.966,0,0,1,.1,1.548V-1.4a9.055,9.055,0,0,1-.1,1.548H143.8a9.055,9.055,0,0,1-.1-1.548V-7.86a8.966,8.966,0,0,1,.1-1.548Zm22.4,6.756a4.1,4.1,0,0,0,.228,1A2.825,2.825,0,0,0,165.66-.288a4.825,4.825,0,0,0,2.52.624,3.977,3.977,0,0,0,2.868-.912,2.792,2.792,0,0,0,.756-2.04,2.368,2.368,0,0,0-1-2.064,5.283,5.283,0,0,0-1.956-.732,10.216,10.216,0,0,1-1.692-.432,1.141,1.141,0,0,1-.816-1.092c0-.78.708-1.308,1.752-1.308a1.9,1.9,0,0,1,1.5.576,1.55,1.55,0,0,1,.36.852l1.716-.2a3.235,3.235,0,0,0-.588-1.392A3.537,3.537,0,0,0,168.1-9.624c-2.064,0-3.408,1.08-3.408,2.748a2.362,2.362,0,0,0,.924,1.944,4.242,4.242,0,0,0,1.812.732,7.566,7.566,0,0,1,2.088.588,1.218,1.218,0,0,1,.6,1.1c0,.9-.72,1.44-1.92,1.44a2.13,2.13,0,0,1-1.752-.708,1.72,1.72,0,0,1-.336-1.056Zm27.78,0a4.1,4.1,0,0,0,.228,1A2.825,2.825,0,0,0,193.44-.288a4.825,4.825,0,0,0,2.52.624,3.977,3.977,0,0,0,2.868-.912,2.792,2.792,0,0,0,.756-2.04,2.368,2.368,0,0,0-1-2.064,5.283,5.283,0,0,0-1.956-.732,10.216,10.216,0,0,1-1.692-.432,1.141,1.141,0,0,1-.816-1.092c0-.78.708-1.308,1.752-1.308a1.9,1.9,0,0,1,1.5.576,1.55,1.55,0,0,1,.36.852l1.716-.2a3.235,3.235,0,0,0-.588-1.392,3.537,3.537,0,0,0-2.988-1.212c-2.064,0-3.408,1.08-3.408,2.748a2.362,2.362,0,0,0,.924,1.944A4.242,4.242,0,0,0,195.2-4.2a7.566,7.566,0,0,1,2.088.588,1.218,1.218,0,0,1,.6,1.1c0,.9-.72,1.44-1.92,1.44a2.13,2.13,0,0,1-1.752-.708,1.72,1.72,0,0,1-.336-1.056Zm28.092-6.756a8.966,8.966,0,0,1,.1,1.548V-1.4a9.055,9.055,0,0,1-.1,1.548h1.824a9.055,9.055,0,0,1-.1-1.548V-7.86a8.966,8.966,0,0,1,.1-1.548ZM247.116-9.6a4.159,4.159,0,0,0-3.1,1.2,5.137,5.137,0,0,0-1.368,3.744c0,3.048,1.752,5,4.476,5s4.488-1.968,4.488-5A5.175,5.175,0,0,0,250.272-8.4,4.205,4.205,0,0,0,247.116-9.6Zm.036,8.52a2.591,2.591,0,0,1-1.86-.732,3.965,3.965,0,0,1-.972-2.832c0-2.172,1.092-3.54,2.82-3.54a2.583,2.583,0,0,1,1.848.732,3.876,3.876,0,0,1,.948,2.8C249.936-2.448,248.868-1.08,247.152-1.08ZM280.368.144a9.055,9.055,0,0,1-.1-1.548V-7.752a10.493,10.493,0,0,1,.1-1.656h-1.752a10.489,10.489,0,0,1,.1,1.656V-3.72c0,.5.036,1.224.084,1.692-.264-.48-.648-1.1-.936-1.536l-3.036-4.572a6.582,6.582,0,0,1-.732-1.272H272.22a9.993,9.993,0,0,1,.1,1.548v6.192a12.983,12.983,0,0,1-.1,1.812h1.752a13.282,13.282,0,0,1-.1-1.8V-5.592c0-.276-.024-.816-.036-1.044-.036-.444-.036-.444-.048-.612.288.564.588,1.08.816,1.44l3.1,4.668a11.958,11.958,0,0,1,.768,1.284Z" transform="translate(8620 -823)"/>
      <g id="蒙版组_33" data-name="蒙版组 33" transform="translate(8400 -1240)" clip-path="url(#clip-path)">
        <g id="bg" transform="translate(593.966 137.526)" opacity="0.06">
          <g id="组_21620" data-name="组 21620" transform="translate(552.34 642.069)">
            <path id="路径_38454" data-name="路径 38454" d="M974.923,856.855l-41.776,23.29,59.442,35.771L916.5,959.608l40.261,25.179,118.075-67.8Z" transform="translate(-737.066 -856.839)" fill="none" stroke="#231815" stroke-miterlimit="10" stroke-width="2"/>
            <path id="路径_38455" data-name="路径 38455" d="M792.713,984.784l41.781-23.293-59.449-35.776,76.1-43.7-40.266-25.182-118.09,67.813Z" transform="translate(-692.785 -856.835)" fill="none" stroke="#231815" stroke-miterlimit="10" stroke-width="2"/>
          </g>
          <path id="路径_38456" data-name="路径 38456" d="M620.954,959.488l217.228,132.864,206.091-122.416-32.144-21" transform="translate(-126.227 -232.996)" fill="none" stroke="#231815" stroke-miterlimit="10" stroke-width="2" stroke-dasharray="15 5"/>
          <ellipse id="椭圆_1799" data-name="椭圆 1799" cx="9.182" cy="5.831" rx="9.182" ry="5.831" transform="translate(238.014 497.65)" fill="#231815"/>
          <ellipse id="椭圆_1800" data-name="椭圆 1800" cx="6.803" cy="4.32" rx="6.803" ry="4.32" transform="translate(483.568 719.982)" fill="none" stroke="#231815" stroke-miterlimit="10" stroke-width="2"/>
          <ellipse id="椭圆_1801" data-name="椭圆 1801" cx="9.182" cy="5.831" rx="9.182" ry="5.831" transform="translate(702.486 851.999)" fill="#231815"/>
          <ellipse id="椭圆_1802" data-name="椭圆 1802" cx="9.182" cy="5.831" rx="9.182" ry="5.831" transform="translate(1170.115 497.571)" fill="#231815"/>
          <ellipse id="椭圆_1803" data-name="椭圆 1803" cx="9.182" cy="5.831" rx="9.182" ry="5.831" transform="translate(835.872 93.215)"/>
          <ellipse id="椭圆_1804" data-name="椭圆 1804" cx="9.182" cy="5.831" rx="9.182" ry="5.831" transform="translate(704.006 8.599)" fill="#231815"/>
          <path id="路径_38457" data-name="路径 38457" d="M1617.878,523.339l15.476,9.62-99.2,59.847-96.673,59.7-149.6-89.544" transform="translate(-258.235 -148.755)" fill="none" stroke="#000" stroke-miterlimit="10" stroke-width="2" stroke-dasharray="11 5"/>
          <path id="路径_38458" data-name="路径 38458" d="M243.628,126.461,371.81,47.5l149.6,89.544" transform="translate(-51.541 -54.571)" fill="none" stroke="#231815" stroke-miterlimit="10" stroke-width="2" stroke-dasharray="11 5"/>
          <g id="组_21621" data-name="组 21621" transform="translate(244.16 453.534)">
            <line id="直线_454" data-name="直线 454" x2="311.077" y2="189.85" transform="translate(0 49.947)" fill="none" stroke="#231815" stroke-miterlimit="10" stroke-width="2" stroke-dasharray="12 5"/>
            <line id="直线_455" data-name="直线 455" x1="91.209" y2="49.947" fill="none" stroke="#231815" stroke-miterlimit="10" stroke-width="2" stroke-dasharray="11 5"/>
          </g>
          <path id="路径_38459" data-name="路径 38459" d="M1244.886-68.37l-127.528,75,147.421,85.421L1467.74-29.109l-120.9-60.862" transform="translate(-224.482 -27.36)" fill="none" stroke="#000" stroke-miterlimit="10" stroke-width="2"/>
          <path id="路径_38460" data-name="路径 38460" d="M1252.3-46.8,1152.143,10.566l121.128,66.707L1444.114-26.289l-90.219-43.779" transform="translate(-231.368 -31.299)" fill="none" stroke="#000" stroke-miterlimit="10" stroke-width="1"/>
          <line id="直线_456" data-name="直线 456" y1="25.786" transform="translate(811.9 143.641)" fill="none" stroke="#000" stroke-miterlimit="10" stroke-width="2"/>
          <path id="路径_38461" data-name="路径 38461" d="M1016.4,223.495V205.411l6.832-4.65" transform="translate(-204.499 -84.906)" fill="none" stroke="#000" stroke-miterlimit="10" stroke-width="2"/>
          <line id="直线_457" data-name="直线 457" y1="11.147" x2="18.092" transform="translate(824.989 101.322)" fill="none" stroke="#000" stroke-miterlimit="10" stroke-width="2"/>
          <line id="直线_458" data-name="直线 458" x2="24.566" y2="15.133" transform="translate(816.206 78.082)" fill="none" stroke="#000" stroke-miterlimit="10" stroke-width="2"/>
          <line id="直线_459" data-name="直线 459" x2="21.815" y2="13.376" transform="translate(788.65 61.434)" fill="none" stroke="#000" stroke-miterlimit="10" stroke-width="2"/>
          <line id="直线_460" data-name="直线 460" x2="19.231" y2="11.424" transform="translate(762.932 46.623)" fill="none" stroke="#000" stroke-miterlimit="10" stroke-width="2"/>
          <line id="直线_461" data-name="直线 461" x1="23.422" y1="14.352" transform="translate(733.54 28.827)" fill="none" stroke="#000" stroke-miterlimit="10" stroke-width="2"/>
          <line id="直线_462" data-name="直线 462" x1="12.4" y1="7.865" transform="translate(714.997 17.747)" fill="none" stroke="#000" stroke-miterlimit="10" stroke-width="2"/>
          <line id="直线_463" data-name="直线 463" x1="10.792" y2="7.693" transform="translate(712.873 4.371)" fill="none" stroke="#000" stroke-miterlimit="10" stroke-width="2"/>
          <line id="直线_464" data-name="直线 464" y1="14.754" x2="24.283" transform="translate(730.268 -13.712)" fill="none" stroke="#000" stroke-miterlimit="10" stroke-width="2"/>
          <line id="直线_465" data-name="直线 465" y1="12.974" x2="22.389" transform="translate(760.119 -30.13)" fill="none" stroke="#000" stroke-miterlimit="10" stroke-width="2"/>
          <line id="直线_466" data-name="直线 466" y1="15.5" x2="25.833" transform="translate(789.282 -49.132)" fill="none" stroke="#000" stroke-miterlimit="10" stroke-width="2"/>
          <line id="直线_467" data-name="直线 467" x1="20.781" y2="12.4" transform="translate(822.176 -65.148)" fill="none" stroke="#000" stroke-miterlimit="10" stroke-width="2"/>
          <line id="直线_468" data-name="直线 468" y1="15.041" x2="24.8" transform="translate(849.502 -83.633)" fill="none" stroke="#000" stroke-miterlimit="10" stroke-width="2"/>
          <line id="直线_469" data-name="直线 469" y1="16.189" x2="26.866" transform="translate(881.851 -103.389)" fill="none" stroke="#000" stroke-miterlimit="10" stroke-width="2"/>
          <line id="直线_470" data-name="直线 470" x2="19.231" y2="11.194" transform="translate(916.642 -105.523)" fill="none" stroke="#000" stroke-miterlimit="10" stroke-width="2"/>
          <line id="直线_471" data-name="直线 471" x2="21.585" y2="12.228" transform="translate(942.303 -91.171)" fill="none" stroke="#000" stroke-miterlimit="10" stroke-width="2"/>
          <line id="直线_472" data-name="直线 472" x2="7.332" y2="4.703" transform="translate(970.088 -75.155)" fill="none" stroke="#000" stroke-miterlimit="10" stroke-width="2"/>
          <path id="路径_38462" data-name="路径 38462" d="M17.963,165.526l-34.726,84.962,105.055,55.8,140.876-22.733L264.3,204.677,162.346,144.055Z" transform="translate(0 -73.682)" fill="none" stroke="#231815" stroke-miterlimit="10" stroke-width="2"/>
          <path id="路径_38463" data-name="路径 38463" d="M27.894,175.113l-31.344,74.4L95.06,300.49l130.888-23.078,30.311-67.51L163.6,154.791Z" transform="translate(-2.635 -75.807)" fill="none" stroke="#231815" stroke-miterlimit="10" stroke-width="1.2"/>
          <path id="路径_38464" data-name="路径 38464" d="M901.908,324.442l-16.755-9.793H823.039L684.23,397.2v37.659l12.629,7.693" transform="translate(-138.751 -107.448)" fill="none" stroke="#000" stroke-miterlimit="10" stroke-width="3"/>
          <ellipse id="椭圆_1805" data-name="椭圆 1805" cx="6.056" cy="3.961" rx="6.056" ry="3.961" transform="translate(558.108 333.668)" fill="none" stroke="#231815" stroke-miterlimit="10" stroke-width="3"/>
          <ellipse id="椭圆_1806" data-name="椭圆 1806" cx="6.627" cy="4.621" rx="6.627" ry="4.621" transform="translate(784.011 228.326)" fill="none" stroke="#000" stroke-miterlimit="10" stroke-width="3"/>
          <path id="路径_38465" data-name="路径 38465" d="M887.185,366.594l-31.11-.335-84.883,51.013v18.733l85.636,50.512h30.357l85.217-51.47V417.44Z" transform="translate(-155.964 -117.664)" fill="none" stroke="#fff" stroke-miterlimit="10" stroke-width="0.5"/>
          <path id="路径_38466" data-name="路径 38466" d="M946.473,350.722l89.079,54.336V441.54L896.4,524.837H835.132l-93-55.8" transform="translate(-150.212 -114.588)" fill="none" stroke="#000" stroke-miterlimit="10" stroke-width="3"/>
          <g id="组_21622" data-name="组 21622" transform="translate(749.065 82.743)">
            <path id="路径_38467" data-name="路径 38467" d="M938.057,285.295l143.5-85.881V166.348" transform="translate(-938.057 -160.837)" fill="none" stroke="#000" stroke-miterlimit="10" stroke-width="2"/>
            <path id="路径_38468" data-name="路径 38468" d="M1179.5,179.8l-41.1,24.8h-27.1L953.8,298.088" transform="translate(-941.174 -163.5)" fill="none" stroke="#000" stroke-miterlimit="10" stroke-width="2"/>
            <line id="直线_473" data-name="直线 473" y1="56.029" x2="94.147" transform="translate(29.601 86.684)" fill="none" stroke="#000" stroke-miterlimit="10" stroke-width="2"/>
            <path id="路径_38469" data-name="路径 38469" d="M998.94,325.11l138.408-82.321h31.861" transform="translate(-950.108 -175.967)" fill="none" stroke="#000" stroke-miterlimit="10" stroke-width="2"/>
            <path id="路径_38470" data-name="路径 38470" d="M1013.684,340.243l130.353-77.557h30.387" transform="translate(-953.026 -179.906)" fill="none" stroke="#000" stroke-miterlimit="10" stroke-width="2"/>
            <line id="直线_474" data-name="直线 474" y1="68.716" x2="115.101" transform="translate(76.674 100.347)" fill="none" stroke="#000" stroke-miterlimit="10" stroke-width="2"/>
            <path id="路径_38471" data-name="路径 38471" d="M1052.62,355.372l142.426-84.887,24.972-3.979,26.867-15.844" transform="translate(-960.733 -177.526)" fill="none" stroke="#000" stroke-miterlimit="10" stroke-width="2"/>
            <line id="直线_475" data-name="直线 475" y1="56.144" x2="94.377" transform="translate(106.354 131.002)" fill="none" stroke="#000" stroke-miterlimit="10" stroke-width="2"/>
            <path id="路径_38472" data-name="路径 38472" d="M1089.123,376.18,1223.8,296.1l40.3-6.372,45.122-27.039" transform="translate(-967.958 -179.906)" fill="none" stroke="#000" stroke-miterlimit="10" stroke-width="2"/>
            <path id="路径_38473" data-name="路径 38473" d="M1107.962,397.534l113.407-67.683,39.4-5.755,33.411,19.633" transform="translate(-971.687 -192.061)" fill="none" stroke="#000" stroke-miterlimit="10" stroke-width="2"/>
            <ellipse id="椭圆_1807" data-name="椭圆 1807" cx="3.387" cy="2.459" rx="3.387" ry="2.459" transform="translate(140.224)" fill="none" stroke="#000" stroke-miterlimit="10" stroke-width="2"/>
            <ellipse id="椭圆_1808" data-name="椭圆 1808" cx="3.387" cy="2.459" rx="3.387" ry="2.459" transform="translate(236.824 12.341)" fill="none" stroke="#000" stroke-miterlimit="10" stroke-width="2"/>
            <ellipse id="椭圆_1809" data-name="椭圆 1809" cx="3.387" cy="2.586" rx="3.387" ry="2.586" transform="translate(220.467 63.138)" fill="none" stroke="#000" stroke-miterlimit="10" stroke-width="2"/>
            <ellipse id="椭圆_1810" data-name="椭圆 1810" cx="3.387" cy="2.586" rx="3.387" ry="2.586" transform="translate(122.944 82.781)" fill="none" stroke="#000" stroke-miterlimit="10" stroke-width="2"/>
            <ellipse id="椭圆_1811" data-name="椭圆 1811" cx="3.387" cy="2.586" rx="3.387" ry="2.586" transform="translate(221.231 80.195)" fill="none" stroke="#000" stroke-miterlimit="10" stroke-width="2"/>
            <ellipse id="椭圆_1812" data-name="椭圆 1812" cx="3.387" cy="2.586" rx="3.387" ry="2.586" transform="translate(191.255 96.67)" fill="none" stroke="#000" stroke-miterlimit="10" stroke-width="2"/>
            <ellipse id="椭圆_1813" data-name="椭圆 1813" cx="3.387" cy="2.586" rx="3.387" ry="2.586" transform="translate(200.211 127.411)" fill="none" stroke="#000" stroke-miterlimit="10" stroke-width="2"/>
            <ellipse id="椭圆_1814" data-name="椭圆 1814" cx="3.387" cy="2.586" rx="3.387" ry="2.586" transform="translate(285.092 69.257)" fill="none" stroke="#000" stroke-miterlimit="10" stroke-width="2"/>
            <ellipse id="椭圆_1815" data-name="椭圆 1815" cx="3.387" cy="2.586" rx="3.387" ry="2.586" transform="translate(340.146 79.036)" fill="none" stroke="#000" stroke-miterlimit="10" stroke-width="2"/>
            <ellipse id="椭圆_1816" data-name="椭圆 1816" cx="3.387" cy="2.586" rx="3.387" ry="2.586" transform="translate(320.922 150.805)" fill="none" stroke="#000" stroke-miterlimit="10" stroke-width="2"/>
          </g>
          <g id="组_21623" data-name="组 21623" transform="translate(334.649 327.96)">
            <path id="路径_38474" data-name="路径 38474" d="M818.493,567.153,675,653.034V686.1" transform="translate(-471.573 -485.388)" fill="none" stroke="#231815" stroke-miterlimit="10" stroke-width="2"/>
            <path id="路径_38475" data-name="路径 38475" d="M556.762,672.808l41.1-24.8h27.1l157.5-93.484" transform="translate(-448.17 -482.888)" fill="none" stroke="#231815" stroke-miterlimit="10" stroke-width="2"/>
            <line id="直线_476" data-name="直线 476" x1="94.147" y2="56.029" transform="translate(223.172 63.51)" fill="none" stroke="#231815" stroke-miterlimit="10" stroke-width="2"/>
            <path id="路径_38476" data-name="路径 38476" d="M754.835,533.242l-143.6,85.41H579.374" transform="translate(-452.646 -478.676)" fill="none" stroke="#231815" stroke-miterlimit="10" stroke-width="2"/>
            <path id="路径_38477" data-name="路径 38477" d="M739.817,521.73,608.182,599.84H577.871" transform="translate(-452.348 -476.397)" fill="none" stroke="#231815" stroke-miterlimit="10" stroke-width="2"/>
            <line id="直线_477" data-name="直线 477" x1="116.73" y2="69.689" transform="translate(155.145 36.188)" fill="none" stroke="#231815" stroke-miterlimit="10" stroke-width="2"/>
            <path id="路径_38478" data-name="路径 38478" d="M694.156,498.872,548.974,585.136,524,589.116,497.136,604.96" transform="translate(-436.368 -471.873)" fill="none" stroke="#231815" stroke-miterlimit="10" stroke-width="2"/>
            <line id="直线_478" data-name="直线 478" x1="94.377" y2="56.144" transform="translate(146.189 19.077)" fill="none" stroke="#231815" stroke-miterlimit="10" stroke-width="2"/>
            <path id="路径_38479" data-name="路径 38479" d="M645.939,479.53,513.846,558.076l-40.3,6.372-45.122,27.039" transform="translate(-422.768 -468.044)" fill="none" stroke="#231815" stroke-miterlimit="10" stroke-width="2"/>
            <path id="路径_38480" data-name="路径 38480" d="M638.23,465.21,524.638,533.643l-39.4,5.755L451.83,519.764" transform="translate(-427.4 -465.21)" fill="none" stroke="#231815" stroke-miterlimit="10" stroke-width="2"/>
            <ellipse id="椭圆_1817" data-name="椭圆 1817" cx="3.387" cy="2.459" rx="3.387" ry="2.459" transform="translate(199.922 201.305)" fill="none" stroke="#231815" stroke-miterlimit="10" stroke-width="2"/>
            <ellipse id="椭圆_1818" data-name="椭圆 1818" cx="3.387" cy="2.459" rx="3.387" ry="2.459" transform="translate(103.321 188.964)" fill="none" stroke="#231815" stroke-miterlimit="10" stroke-width="2"/>
            <ellipse id="椭圆_1819" data-name="椭圆 1819" cx="3.387" cy="2.586" rx="3.387" ry="2.586" transform="translate(119.679 137.914)" fill="none" stroke="#231815" stroke-miterlimit="10" stroke-width="2"/>
            <ellipse id="椭圆_1820" data-name="椭圆 1820" cx="3.387" cy="2.586" rx="3.387" ry="2.586" transform="translate(217.202 118.271)" fill="none" stroke="#231815" stroke-miterlimit="10" stroke-width="2"/>
            <ellipse id="椭圆_1821" data-name="椭圆 1821" cx="3.387" cy="2.586" rx="3.387" ry="2.586" transform="translate(118.915 120.857)" fill="none" stroke="#231815" stroke-miterlimit="10" stroke-width="2"/>
            <ellipse id="椭圆_1822" data-name="椭圆 1822" cx="3.387" cy="2.586" rx="3.387" ry="2.586" transform="translate(148.891 104.382)" fill="none" stroke="#231815" stroke-miterlimit="10" stroke-width="2"/>
            <ellipse id="椭圆_1823" data-name="椭圆 1823" cx="3.387" cy="2.586" rx="3.387" ry="2.586" transform="translate(139.935 73.641)" fill="none" stroke="#231815" stroke-miterlimit="10" stroke-width="2"/>
            <ellipse id="椭圆_1824" data-name="椭圆 1824" cx="3.387" cy="2.586" rx="3.387" ry="2.586" transform="translate(55.054 131.795)" fill="none" stroke="#231815" stroke-miterlimit="10" stroke-width="2"/>
            <ellipse id="椭圆_1825" data-name="椭圆 1825" cx="3.387" cy="2.586" rx="3.387" ry="2.586" transform="translate(0 122.016)" fill="none" stroke="#231815" stroke-miterlimit="10" stroke-width="2"/>
            <ellipse id="椭圆_1826" data-name="椭圆 1826" cx="3.387" cy="2.586" rx="3.387" ry="2.586" transform="translate(19.224 50.247)" fill="none" stroke="#231815" stroke-miterlimit="10" stroke-width="2"/>
          </g>
          <g id="组_21624" data-name="组 21624" transform="translate(749.503 328.444)">
            <path id="路径_38481" data-name="路径 38481" d="M938.6,567.018l114.01,68.2,10.1,22.618-33.3,20.207" transform="translate(-938.603 -485.845)" fill="none" stroke="#231815" stroke-miterlimit="10" stroke-width="2"/>
            <path id="路径_38482" data-name="路径 38482" d="M957.5,556l135.136,80.37,10.218,23.307L1148.434,687" transform="translate(-942.343 -483.663)" fill="none" stroke="#231815" stroke-miterlimit="10" stroke-width="2"/>
            <line id="直线_479" data-name="直线 479" x2="94.836" y2="56.374" transform="translate(30.655 63.377)" fill="none" stroke="#231815" stroke-miterlimit="10" stroke-width="2"/>
            <path id="路径_38483" data-name="路径 38483" d="M996.005,533.379l142.943,85.192,6.889,15.155,26.637,15.959" transform="translate(-949.965 -479.187)" fill="none" stroke="#231815" stroke-miterlimit="10" stroke-width="2"/>
            <line id="直线_480" data-name="直线 480" x2="116.766" y2="69.462" transform="translate(60.851 45.351)" fill="none" stroke="#231815" stroke-miterlimit="10" stroke-width="2"/>
            <path id="路径_38484" data-name="路径 38484" d="M1033.51,511.191,1163.479,588.8V607.06" transform="translate(-957.388 -474.795)" fill="none" stroke="#231815" stroke-miterlimit="10" stroke-width="2"/>
            <path id="路径_38485" data-name="路径 38485" d="M1052.549,499.6l143.058,86v18.255" transform="translate(-961.157 -472.5)" fill="none" stroke="#231815" stroke-miterlimit="10" stroke-width="2"/>
            <line id="直线_481" data-name="直线 481" x2="93.114" y2="55.799" transform="translate(106.547 18.141)" fill="none" stroke="#231815" stroke-miterlimit="10" stroke-width="2"/>
            <path id="路径_38486" data-name="路径 38486" d="M1090.2,477.122l155.687,92.884v15.729l40.644,24.226" transform="translate(-968.609 -468.051)" fill="none" stroke="#231815" stroke-miterlimit="10" stroke-width="2"/>
            <path id="路径_38487" data-name="路径 38487" d="M1107.962,465.813l144.309,85.766H1309.1" transform="translate(-972.125 -465.813)" fill="none" stroke="#231815" stroke-miterlimit="10" stroke-width="2"/>
            <ellipse id="椭圆_1827" data-name="椭圆 1827" cx="3.363" cy="2.594" rx="3.363" ry="2.594" transform="translate(231.311 131.347)" fill="none" stroke="#231815" stroke-miterlimit="10" stroke-width="2"/>
            <ellipse id="椭圆_1828" data-name="椭圆 1828" cx="3.363" cy="2.594" rx="3.363" ry="2.594" transform="translate(202.728 132.265)" fill="none" stroke="#231815" stroke-miterlimit="10" stroke-width="2"/>
            <ellipse id="椭圆_1829" data-name="椭圆 1829" cx="3.363" cy="2.102" rx="3.363" ry="2.102" transform="translate(221.705 169.723)" fill="none" stroke="#231815" stroke-miterlimit="10" stroke-width="2"/>
            <ellipse id="椭圆_1830" data-name="椭圆 1830" cx="3.363" cy="2.102" rx="3.363" ry="2.102" transform="translate(316.698 141.265)" fill="none" stroke="#231815" stroke-miterlimit="10" stroke-width="2"/>
            <ellipse id="椭圆_1831" data-name="椭圆 1831" cx="3.363" cy="2.102" rx="3.363" ry="2.102" transform="translate(336.978 83.664)" fill="none" stroke="#231815" stroke-miterlimit="10" stroke-width="2"/>
            <ellipse id="椭圆_1832" data-name="椭圆 1832" cx="3.769" cy="2.356" rx="3.769" ry="2.356" transform="translate(175.967 114.198)" fill="none" stroke="#231815" stroke-miterlimit="10" stroke-width="2"/>
            <ellipse id="椭圆_1833" data-name="椭圆 1833" cx="3.769" cy="2.356" rx="3.769" ry="2.356" transform="translate(198.552 73.134)" fill="none" stroke="#231815" stroke-miterlimit="10" stroke-width="2"/>
            <ellipse id="椭圆_1834" data-name="椭圆 1834" cx="3.769" cy="2.356" rx="3.769" ry="2.356" transform="translate(124.351 119.146)" fill="none" stroke="#231815" stroke-miterlimit="10" stroke-width="2"/>
            <ellipse id="椭圆_1835" data-name="椭圆 1835" cx="3.769" cy="2.356" rx="3.769" ry="2.356" transform="translate(205.711 202.513)" fill="none" stroke="#231815" stroke-miterlimit="10" stroke-width="2"/>
            <ellipse id="椭圆_1836" data-name="椭圆 1836" cx="3.769" cy="2.356" rx="3.769" ry="2.356" transform="translate(84.263 191.779)" fill="none" stroke="#231815" stroke-miterlimit="10" stroke-width="2"/>
          </g>
          <g id="组_21625" data-name="组 21625" transform="translate(338.036 81.141)">
            <path id="路径_38488" data-name="路径 38488" d="M823.489,287.24l-114.01-68.2-10.1-22.618,33.3-20.207" transform="translate(-479.785 -161.189)" fill="none" stroke="#231815" stroke-miterlimit="10" stroke-width="2"/>
            <path id="路径_38489" data-name="路径 38489" d="M788.1,293.333l-135.136-80.37-10.219-23.307L597.167,162.33" transform="translate(-459.555 -158.44)" fill="none" stroke="#231815" stroke-miterlimit="10" stroke-width="2"/>
            <line id="直线_482" data-name="直线 482" x1="94.836" y1="56.374" transform="translate(218.212 87.474)" fill="none" stroke="#231815" stroke-miterlimit="10" stroke-width="2"/>
            <path id="路径_38490" data-name="路径 38490" d="M753.166,319.577,610.223,234.385l-6.889-15.155L576.7,203.27" transform="translate(-455.503 -166.544)" fill="none" stroke="#231815" stroke-miterlimit="10" stroke-width="2"/>
            <line id="直线_483" data-name="直线 483" x1="116.766" y1="69.462" transform="translate(166.087 92.411)" fill="none" stroke="#231815" stroke-miterlimit="10" stroke-width="2"/>
            <path id="路径_38491" data-name="路径 38491" d="M727.137,346.808,597.167,269.194V250.938" transform="translate(-459.555 -175.979)" fill="none" stroke="#231815" stroke-miterlimit="10" stroke-width="2"/>
            <path id="路径_38492" data-name="路径 38492" d="M704.868,356.335l-143.058-86V252.084" transform="translate(-452.556 -176.206)" fill="none" stroke="#231815" stroke-miterlimit="10" stroke-width="2"/>
            <line id="直线_484" data-name="直线 484" x1="93.114" y1="55.799" transform="translate(144.042 133.285)" fill="none" stroke="#231815" stroke-miterlimit="10" stroke-width="2"/>
            <path id="路径_38493" data-name="路径 38493" d="M654.073,371.754,535.224,300.848l-36.839-21.978V263.14l-40.644-24.226" transform="translate(-431.957 -173.599)" fill="none" stroke="#231815" stroke-miterlimit="10" stroke-width="2"/>
            <path id="路径_38494" data-name="路径 38494" d="M635.121,394.679,490.812,308.913H433.979" transform="translate(-427.254 -187.454)" fill="none" stroke="#231815" stroke-miterlimit="10" stroke-width="2"/>
            <ellipse id="椭圆_1837" data-name="椭圆 1837" cx="3.363" cy="2.594" rx="3.363" ry="2.594" transform="translate(105.667 70.69)" fill="none" stroke="#231815" stroke-miterlimit="10" stroke-width="2"/>
            <ellipse id="椭圆_1838" data-name="椭圆 1838" cx="3.363" cy="2.594" rx="3.363" ry="2.594" transform="translate(134.25 69.772)" fill="none" stroke="#231815" stroke-miterlimit="10" stroke-width="2"/>
            <ellipse id="椭圆_1839" data-name="椭圆 1839" cx="3.363" cy="2.102" rx="3.363" ry="2.102" transform="translate(115.274 33.298)" fill="none" stroke="#231815" stroke-miterlimit="10" stroke-width="2"/>
            <ellipse id="椭圆_1840" data-name="椭圆 1840" cx="3.363" cy="2.102" rx="3.363" ry="2.102" transform="translate(20.28 61.757)" fill="none" stroke="#231815" stroke-miterlimit="10" stroke-width="2"/>
            <ellipse id="椭圆_1841" data-name="椭圆 1841" cx="3.363" cy="2.102" rx="3.363" ry="2.102" transform="translate(0 119.357)" fill="none" stroke="#231815" stroke-miterlimit="10" stroke-width="2"/>
            <ellipse id="椭圆_1842" data-name="椭圆 1842" cx="3.769" cy="2.356" rx="3.769" ry="2.356" transform="translate(160.198 88.315)" fill="none" stroke="#231815" stroke-miterlimit="10" stroke-width="2"/>
            <ellipse id="椭圆_1843" data-name="椭圆 1843" cx="3.769" cy="2.356" rx="3.769" ry="2.356" transform="translate(137.613 129.379)" fill="none" stroke="#231815" stroke-miterlimit="10" stroke-width="2"/>
            <ellipse id="椭圆_1844" data-name="椭圆 1844" cx="3.769" cy="2.356" rx="3.769" ry="2.356" transform="translate(211.813 83.367)" fill="none" stroke="#231815" stroke-miterlimit="10" stroke-width="2"/>
            <ellipse id="椭圆_1845" data-name="椭圆 1845" cx="3.769" cy="2.356" rx="3.769" ry="2.356" transform="translate(130.454)" fill="none" stroke="#231815" stroke-miterlimit="10" stroke-width="2"/>
            <ellipse id="椭圆_1846" data-name="椭圆 1846" cx="3.769" cy="2.356" rx="3.769" ry="2.356" transform="translate(251.901 10.734)" fill="none" stroke="#231815" stroke-miterlimit="10" stroke-width="2"/>
          </g>
          <path id="矩形_2283" data-name="矩形 2283" d="M8.125,0h6.139a8.125,8.125,0,0,1,8.125,8.125v8.753a0,0,0,0,1,0,0H0a0,0,0,0,1,0,0V8.125A8.125,8.125,0,0,1,8.125,0Z" transform="translate(1059.814 -146.526)" fill="none" stroke="#000" stroke-miterlimit="10" stroke-width="2"/>
          <line id="直线_485" data-name="直线 485" y2="5.942" transform="translate(1071.482 -122.716)" fill="none" stroke="#000" stroke-linecap="round" stroke-miterlimit="10" stroke-width="2"/>
          <line id="直线_486" data-name="直线 486" x1="1.851" transform="translate(1070.111 -53.936)" fill="none" stroke="#000" stroke-linecap="round" stroke-miterlimit="10" stroke-width="3"/>
          <g id="组_21626" data-name="组 21626" transform="translate(1194.715 205.797)">
            <path id="路径_38495" data-name="路径 38495" d="M1541.735,367.616s-83.945,5.622-29.923,52.427c0,0-36.436,23.969,6.518,51.676s93.057-.381,93.057-.381l158.762-91.381s38.388-28.088-.011-54.673-91.755-2.615-95.008.755c0,0-60.526-28.08-111.928-.74C1563.2,325.3,1527.414,343.651,1541.735,367.616Z" transform="translate(-1493.686 -312.898)" fill="none" stroke="#000" stroke-miterlimit="10" stroke-width="2"/>
            <path id="路径_38496" data-name="路径 38496" d="M1902.88,476l-127.53,73.4-86.234-49.611,127.53-73.4Z" transform="translate(-1532.368 -335.361)" fill="none" stroke="#000" stroke-miterlimit="10" stroke-width="2"/>
            <path id="路径_38497" data-name="路径 38497" d="M1881.338,487.193,1794.8,537l-110.965-63.839,86.538-49.81Z" transform="translate(-1531.323 -334.762)" fill="none" stroke="#000" stroke-miterlimit="10" stroke-width="2"/>
            <path id="路径_38498" data-name="路径 38498" d="M1830.246,499.132l9.437,5.429c3.5,2.016,3.505,5.286,0,7.3h0a14.066,14.066,0,0,1-12.69,0l-9.437-5.429-4.325-1.676c-5.091.44-10.465-.467-14.384-2.722-6.56-3.774-6.561-9.893,0-13.668s17.192-3.775,23.752,0c4.225,2.43,5.729,5.834,4.512,8.958Z" transform="translate(-1553.115 -347.07)" fill="none" stroke="#000" stroke-miterlimit="10" stroke-width="2"/>
          </g>
        </g>
      </g>
      <path id="路径_39879" data-name="路径 39879" d="M20.852-29.328c-.1,7.54-.1,7.54-.312,12.168-.312,5.824-.78,10.348-1.352,12.324-.468,1.716-.884,2.08-2.444,2.08A26.813,26.813,0,0,1,11.7-3.38a17.836,17.836,0,0,1,.936,5.564,49,49,0,0,0,5.408.364c4.316,0,5.772-1.3,6.76-5.928.884-4.264,1.456-12.168,1.56-21.84.052-7.956.052-7.956.26-9.776a57,57,0,0,1-5.824.208H16.068c.1-3.172.156-5.044.156-5.564a18.4,18.4,0,0,1,.312-3.432H10.3a33.645,33.645,0,0,1,.312,6.292c0,1.144,0,1.664-.052,2.7H8.216A38.217,38.217,0,0,1,2.5-35.1v6.084a36.455,36.455,0,0,1,5.252-.312h2.6A61.624,61.624,0,0,1,7.9-14.4,33.415,33.415,0,0,1,.988-1.456a23.25,23.25,0,0,1,4.264,5.3,43.252,43.252,0,0,0,7.956-15.912A81.533,81.533,0,0,0,15.86-29.328Zm14.4,28.236H42.9V2.6h5.876a43.642,43.642,0,0,1-.312-5.772v-29.8a41.213,41.213,0,0,1,.26-5.46,29.982,29.982,0,0,1-4.68.26h-9.88a31.222,31.222,0,0,1-4.68-.26,41.213,41.213,0,0,1,.26,5.46V-3.12a48.313,48.313,0,0,1-.312,5.98h5.824Zm0-31.876H42.9V-6.292H35.256ZM98.956-19.4a78,78,0,0,1-13.832,4.524,17.8,17.8,0,0,1,2.5,5.1,113.544,113.544,0,0,0,12.688-4.888c1.3.832,3.224,1.092,8.84,1.092,8.58,0,10.764-.26,12.376-1.4,1.3-.936,1.872-2.808,2.184-7.176a18.94,18.94,0,0,1-5.044-1.4c-.1,5.408-.208,5.46-8.424,5.46-1.768,0-2.288,0-3.328-.052a52.67,52.67,0,0,0,6.968-4.68c2.08-1.664,5.98-5.044,7.592-6.6.936-.936.936-.936,1.612-1.56l-4.732-3.016A47.361,47.361,0,0,1,104.26-22.1v-5.72a24.852,24.852,0,0,1,.208-3.692H98.7a20.37,20.37,0,0,1,.26,3.8ZM92.248-39.884a43.773,43.773,0,0,1-5.616-.26,25.862,25.862,0,0,1,.208,3.536v3.9a27.111,27.111,0,0,1-.208,4.056H92.2v-6.24h14.04l-2.6,2.184a22.943,22.943,0,0,1,6.084,5.46l3.848-3.588c-1.352-1.612-1.456-1.664-4.784-4.056H126.36v6.344h5.564a26.116,26.116,0,0,1-.208-3.9v-4.108a23.809,23.809,0,0,1,.208-3.588,41,41,0,0,1-5.564.26H112.632A25.585,25.585,0,0,0,110.4-44.46l-5.876,1.716a19.4,19.4,0,0,1,1.56,2.86ZM111.9-3.276V-8.632a18.043,18.043,0,0,1,.26-3.9H106.08a18.693,18.693,0,0,1,.26,3.848v5.408H95.94V-6.864A19.176,19.176,0,0,1,96.2-10.3H90.272a17.457,17.457,0,0,1,.26,3.588v3.536a36.931,36.931,0,0,1-.312,5.148c.728-.052.936-.052,1.4-.052.936,0,.936,0,2.028-.052.468-.052,1.144-.052,2.08-.052h26.832V3.952h5.824a35.625,35.625,0,0,1-.312-5.1V-6.76a24.456,24.456,0,0,1,.26-4.316H122.3a21.413,21.413,0,0,1,.26,3.8v4ZM90.168-18.46a34.438,34.438,0,0,0,8.164-9.516l-4.056-2.652c-2.08,3.64-3.8,5.46-7.956,8.528Zm42.744-1.3a47.783,47.783,0,0,0-7.9-9.256L120.8-26.208a38.118,38.118,0,0,1,7.592,9.88Z" transform="translate(8620 -737)" fill="#0080f4"/>
    </g>
  </g>
</svg>
