<svg xmlns="http://www.w3.org/2000/svg" xmlns:xlink="http://www.w3.org/1999/xlink" width="1820" height="880" viewBox="0 0 1820 880">
  <defs>
    <clipPath id="clip-path">
      <rect id="矩形_2284" data-name="矩形 2284" width="1820" height="880" transform="translate(50 89)" fill="#fff"/>
    </clipPath>
  </defs>
  <g id="banner" transform="translate(-50 -89)">
    <g id="组_21710" data-name="组 21710" transform="translate(40 1)">
      <path id="路径_41060" data-name="路径 41060" d="M466.856.936h7.02a41.821,41.821,0,0,1-.416-6.5V-19.6c0-3.536-.676-5.512-2.444-7.176-2.236-2.184-5.252-3.068-10.244-3.068-4.472,0-7.384.78-9.932,2.652-1.976,1.4-2.912,2.756-4.108,5.772l6.656,1.2a6.034,6.034,0,0,1,2.08-3.328,9.789,9.789,0,0,1,5.408-1.456c3.952,0,5.98,1.56,5.98,4.576v2.6c-7.436.156-11.284.728-14.664,2.132a9.171,9.171,0,0,0-5.876,8.424c0,5.408,3.848,8.736,10.192,8.736a18.4,18.4,0,0,0,4.836-.624,11.276,11.276,0,0,0,5.512-3.276Zm0-11.6a6.2,6.2,0,0,1-1.872,4.576,10.559,10.559,0,0,1-7.228,2.756c-2.912,0-4.732-1.508-4.732-4,0-4.056,3.9-5.72,13.832-5.98Zm23.608-18.148a52.114,52.114,0,0,1,.364,6.6V-5.876A52.407,52.407,0,0,1,490.464.78h7.28a52.413,52.413,0,0,1-.364-6.656v-6.032h1.3a7.315,7.315,0,0,1,2.08.312c1.2.468,2.6,2.132,4.212,4.888,3.588,6.136,3.588,6.136,4,7.488h9.152a26.612,26.612,0,0,1-2.808-3.744c-2.444-3.588-2.444-3.588-3.744-5.408-2.444-3.588-2.444-3.588-3.432-4.576a6.953,6.953,0,0,0-4.68-1.924,6.526,6.526,0,0,0,4.108-2.756l3.536-5.148a2.355,2.355,0,0,1,1.976-1.144,3.1,3.1,0,0,1,1.664.52l1.768-5.148a9.583,9.583,0,0,0-4.42-.884,6.641,6.641,0,0,0-5.876,3.276l-4.056,6.136a5.068,5.068,0,0,1-4.056,2.392h-.728V-22.2a47.9,47.9,0,0,1,.364-6.6ZM549.328.78a53.559,53.559,0,0,1-.364-6.76V-23.14h4.056a57.6,57.6,0,0,1,6.656.312v-6.344a47.706,47.706,0,0,1-6.656.364H538.252a49.215,49.215,0,0,1-6.656-.364v6.344a61.55,61.55,0,0,1,6.76-.312h3.952V-5.98a47.849,47.849,0,0,1-.364,6.76Zm24.856-29.588a57.726,57.726,0,0,1,.364,6.656V-5.928A45.084,45.084,0,0,1,574.132.78h7.384A28.711,28.711,0,0,1,584.428-4l9.984-13.208a9.09,9.09,0,0,0,.936-1.508c.052-.1.156-.26.312-.52-.052,1.092-.052,1.092-.1,2.756L595.5-5.876A47.706,47.706,0,0,1,595.14.78h7.228A52.705,52.705,0,0,1,602-5.928V-22.152a52.965,52.965,0,0,1,.364-6.656h-7.28a20.559,20.559,0,0,1-2.912,4.836l-9.828,13.1c-.312.416-.78,1.144-1.144,1.716a3.34,3.34,0,0,1-.312.52c.052-1.456.1-2.444.1-2.964V-22.1a52.158,52.158,0,0,1,.364-6.708ZM633.62.78c6.916,0,10.608-2.86,10.608-8.216a7.021,7.021,0,0,0-2.392-5.668,6.834,6.834,0,0,0-4.264-1.716c3.64-.832,5.512-3.12,5.512-6.76,0-4.836-3.328-7.228-9.932-7.228h-8.58c-3.12,0-4.42-.052-6.5-.156a50.779,50.779,0,0,1,.364,6.656V-5.72a50.779,50.779,0,0,1-.364,6.656c2.288-.1,3.64-.156,6.552-.156ZM624.832-17v-6.812h7.592c2.964,0,4.368,1.04,4.368,3.224,0,2.34-1.508,3.588-4.316,3.588Zm0,4.628h7.9c3.432,0,5.044,1.3,5.044,4.108,0,2.7-1.612,4-4.992,4h-7.956ZM673.66,1.768C682.916,1.768,689-4.576,689-14.2s-5.98-15.756-15.392-15.756c-9.464,0-15.5,6.188-15.5,15.86C658.112-4.368,664.144,1.768,673.66,1.768Zm-.052-26.312c5.512,0,8.684,3.848,8.684,10.556,0,6.344-3.328,10.244-8.736,10.244S664.82-7.7,664.82-14.092C664.82-20.592,668.148-24.544,673.608-24.544ZM718.9.78c6.916,0,10.608-2.86,10.608-8.216a7.021,7.021,0,0,0-2.392-5.668,6.834,6.834,0,0,0-4.264-1.716c3.64-.832,5.512-3.12,5.512-6.76,0-4.836-3.328-7.228-9.932-7.228h-8.58c-3.12,0-4.42-.052-6.5-.156a50.779,50.779,0,0,1,.364,6.656V-5.72a50.779,50.779,0,0,1-.364,6.656c2.288-.1,3.64-.156,6.552-.156ZM710.112-17v-6.812H717.7c2.964,0,4.368,1.04,4.368,3.224,0,2.34-1.508,3.588-4.316,3.588Zm0,4.628h7.9c3.432,0,5.044,1.3,5.044,4.108,0,2.7-1.612,4-4.992,4h-7.956ZM11.908,71.192a57.729,57.729,0,0,1,.364,6.656V94.072a45.086,45.086,0,0,1-.416,6.708H19.24A28.708,28.708,0,0,1,22.152,96l9.984-13.208a9.09,9.09,0,0,0,.936-1.508c.052-.1.156-.26.312-.52-.052,1.092-.052,1.092-.1,2.756l-.052,10.608a47.708,47.708,0,0,1-.364,6.656h7.228a52.706,52.706,0,0,1-.364-6.708V77.848a52.966,52.966,0,0,1,.364-6.656h-7.28A20.558,20.558,0,0,1,29.9,76.028l-9.828,13.1c-.312.416-.78,1.144-1.144,1.716a3.336,3.336,0,0,1-.312.52c.052-1.456.1-2.444.1-2.964V77.9a52.159,52.159,0,0,1,.364-6.708Zm78.676,8.216a17.309,17.309,0,0,0-1.82-3.8C86.268,71.972,82.212,70,77.116,70a14.239,14.239,0,0,0-10.452,3.952c-2.86,2.912-4.42,7.124-4.42,12.012,0,9.62,5.928,15.808,15.08,15.808,4.94,0,8.944-1.82,11.44-5.2A15.571,15.571,0,0,0,90.948,92.1L84.5,90.8a7.268,7.268,0,0,1-1.04,2.6,6.961,6.961,0,0,1-5.98,2.912c-5.252,0-8.476-4-8.476-10.5,0-6.448,3.172-10.452,8.268-10.452a6.542,6.542,0,0,1,5.356,2.392,9.909,9.909,0,0,1,1.612,3.172ZM121.94,100.78c6.916,0,10.608-2.86,10.608-8.216a7.021,7.021,0,0,0-2.392-5.668,6.834,6.834,0,0,0-4.264-1.716c3.64-.832,5.512-3.12,5.512-6.76,0-4.836-3.328-7.228-9.932-7.228h-8.58c-3.12,0-4.42-.052-6.5-.156a50.781,50.781,0,0,1,.364,6.656V94.28a50.78,50.78,0,0,1-.364,6.656c2.288-.1,3.64-.156,6.552-.156ZM113.152,83V76.184h7.592c2.964,0,4.368,1.04,4.368,3.224,0,2.34-1.508,3.588-4.316,3.588Zm0,4.628h7.9c3.432,0,5.044,1.3,5.044,4.108,0,2.7-1.612,4-4.992,4h-7.956Zm53.716,1.248V94.02a53.562,53.562,0,0,1-.364,6.76h7.176a51.62,51.62,0,0,1-.364-6.708V77.692a51.86,51.86,0,0,1,.364-6.656c-2.132.1-3.744.156-6.552.156h-8.684c-6.24,0-9.88,2.964-9.88,8.06a6.948,6.948,0,0,0,2.756,6.032,7.244,7.244,0,0,0,3.64,1.4,4.6,4.6,0,0,0-2.184,1.3,22.534,22.534,0,0,0-3.276,5.46c-2.912,6.084-2.912,6.084-3.744,7.332h8.06a36.586,36.586,0,0,1,2.652-6.968c1.872-3.952,2.86-4.94,5.2-4.94Zm0-5.356h-7.28c-2.964,0-4.42-1.144-4.42-3.484s1.4-3.484,4.264-3.484h7.436Zm23.608,10.14c1.092,2.964,2.028,4.316,4.108,5.72,2.028,1.352,5.772,2.184,9.776,2.184,4.836,0,8.684-1.2,10.92-3.38a7.13,7.13,0,0,0,2.184-5.408,6.5,6.5,0,0,0-2.5-5.512c-1.456-1.092-2.912-1.508-5.98-1.768a10.22,10.22,0,0,0,4.784-1.768,6.38,6.38,0,0,0,2.6-5.512,6.167,6.167,0,0,0-.936-3.588c-1.664-2.7-5.616-4.264-10.764-4.264-3.692,0-6.916.728-9,2.08-2.028,1.3-3.068,2.6-4.212,5.46l6.6,1.2c.988-2.7,2.6-3.64,6.188-3.64,3.744,0,5.564,1.144,5.564,3.484,0,2.912-1.976,4.108-6.708,4.108a18.341,18.341,0,0,1-3.432-.26v5.46a18.341,18.341,0,0,1,3.9-.26c5.512,0,7.28.936,7.28,3.9q0,4.524-6.708,4.524a10.2,10.2,0,0,1-4.992-1.04,4.059,4.059,0,0,1-2.08-2.86ZM242.32,81.8v-4a49.427,49.427,0,0,1,.364-6.6h-7.176a57.474,57.474,0,0,1,.364,6.6V94.228a47.049,47.049,0,0,1-.364,6.708c2.288-.1,3.64-.156,6.5-.156H250.8c6.76,0,10.608-3.432,10.608-9.516,0-6.032-3.848-9.464-10.66-9.464Zm0,13.624V87.156H249.5c3.692,0,5.252,1.248,5.252,4.16s-1.508,4.108-5.148,4.108Zm69.42-16.016a17.309,17.309,0,0,0-1.82-3.8c-2.5-3.64-6.552-5.616-11.648-5.616a14.239,14.239,0,0,0-10.452,3.952c-2.86,2.912-4.42,7.124-4.42,12.012,0,9.62,5.928,15.808,15.08,15.808,4.94,0,8.944-1.82,11.44-5.2A15.571,15.571,0,0,0,312.1,92.1l-6.448-1.3a7.268,7.268,0,0,1-1.04,2.6,6.961,6.961,0,0,1-5.98,2.912c-5.252,0-8.476-4-8.476-10.5,0-6.448,3.172-10.452,8.268-10.452a6.543,6.543,0,0,1,5.356,2.392,9.909,9.909,0,0,1,1.612,3.172Zm50.6,0a17.309,17.309,0,0,0-1.82-3.8c-2.5-3.64-6.552-5.616-11.648-5.616a14.239,14.239,0,0,0-10.452,3.952C335.556,76.86,334,81.072,334,85.96c0,9.62,5.928,15.808,15.08,15.808,4.94,0,8.944-1.82,11.44-5.2A15.571,15.571,0,0,0,362.7,92.1l-6.448-1.3a7.268,7.268,0,0,1-1.04,2.6,6.961,6.961,0,0,1-5.98,2.912c-5.252,0-8.476-4-8.476-10.5,0-6.448,3.172-10.452,8.268-10.452a6.543,6.543,0,0,1,5.356,2.392,9.909,9.909,0,0,1,1.612,3.172Zm28.756,22.36c9.256,0,15.34-6.344,15.34-15.964s-5.98-15.756-15.392-15.756c-9.464,0-15.5,6.188-15.5,15.86C375.544,95.632,381.576,101.768,391.092,101.768Zm-.052-26.312c5.512,0,8.684,3.848,8.684,10.556,0,6.344-3.328,10.244-8.736,10.244s-8.736-3.952-8.736-10.348C382.252,79.408,385.58,75.456,391.04,75.456Zm42.692,26.312c9.256,0,15.34-6.344,15.34-15.964s-5.98-15.756-15.392-15.756c-9.464,0-15.5,6.188-15.5,15.86C418.184,95.632,424.216,101.768,433.732,101.768Zm-.052-26.312c5.512,0,8.684,3.848,8.684,10.556,0,6.344-3.328,10.244-8.736,10.244s-8.736-3.952-8.736-10.348C424.892,79.408,428.22,75.456,433.68,75.456Zm48.516-9.2a9.046,9.046,0,0,0,8.112-4l-4.628-3.64a5.43,5.43,0,0,1-5.044,2.5h-5.044c-5.1,0-8.84,1.82-11.232,5.512-2.132,3.224-3.38,9.048-3.38,15.6,0,4.732.884,9.152,2.444,12.116,2.444,4.628,6.968,7.124,13,7.124,9.256,0,15.288-6.24,15.288-15.86,0-9-5.3-14.82-13.572-14.82-4.992,0-7.7,1.2-10.192,4.42.52-3.12.988-4.524,1.976-5.928,1.4-2.08,3.536-3.016,6.708-3.016Zm-5.252,9.724a7.671,7.671,0,0,1,4.94,1.664c2.028,1.508,3.12,4.524,3.12,8.268a11.516,11.516,0,0,1-1.872,6.916,8.118,8.118,0,0,1-6.708,3.068c-5.408,0-8.632-3.692-8.632-9.828S471.38,75.976,476.944,75.976ZM536.9,77.8a41.92,41.92,0,0,1,.416-6.6h-6.968a55.6,55.6,0,0,1,.364,6.6V95.112h-9.1V77.8a49.948,49.948,0,0,1,.364-6.6h-6.76a51.016,51.016,0,0,1,.364,6.6V95.112h-9.152V77.8a44.068,44.068,0,0,1,.364-6.6h-6.916a53.82,53.82,0,0,1,.364,6.6V94.228a52.157,52.157,0,0,1-.364,6.708c2.236-.1,3.588-.156,6.5-.156H533v1.612a16.974,16.974,0,0,1-.364,3.848h7.332a19.441,19.441,0,0,1-.364-3.9V99.22a33.7,33.7,0,0,1,.364-4.264c-1.612.1-1.612.1-3.068.156Zm39.364,9.776c-.1-1.2-.1-1.352-.1-1.456a21.377,21.377,0,0,0-1.508-7.9C572.572,73.012,567.788,70,561.7,70c-8.892,0-14.664,6.292-14.664,15.912,0,9.724,5.824,15.86,15.028,15.86a14.767,14.767,0,0,0,10.712-4,14.614,14.614,0,0,0,3.172-4.784L569.816,91a7.558,7.558,0,0,1-1.508,2.7,8.748,8.748,0,0,1-12.74-.312c-1.2-1.508-1.664-2.964-1.924-5.824ZM553.8,82.424c.78-4.368,3.744-7.072,7.8-7.072a7.416,7.416,0,0,1,5.616,2.08,8.162,8.162,0,0,1,2.288,4.992Zm64.376-3.016a17.309,17.309,0,0,0-1.82-3.8C613.86,71.972,609.8,70,604.708,70a14.239,14.239,0,0,0-10.452,3.952c-2.86,2.912-4.42,7.124-4.42,12.012,0,9.62,5.928,15.808,15.08,15.808,4.94,0,8.944-1.82,11.44-5.2A15.571,15.571,0,0,0,618.54,92.1l-6.448-1.3a7.268,7.268,0,0,1-1.04,2.6,6.961,6.961,0,0,1-5.98,2.912c-5.252,0-8.476-4-8.476-10.5,0-6.448,3.172-10.452,8.268-10.452a6.542,6.542,0,0,1,5.356,2.392,9.907,9.907,0,0,1,1.612,3.172ZM650.52,100.78a53.559,53.559,0,0,1-.364-6.76V76.86h4.056a57.6,57.6,0,0,1,6.656.312V70.828a47.706,47.706,0,0,1-6.656.364H639.444a49.214,49.214,0,0,1-6.656-.364v6.344a61.549,61.549,0,0,1,6.76-.312H643.5V94.02a47.849,47.849,0,0,1-.364,6.76Zm41.652,0c6.916,0,10.608-2.86,10.608-8.216a7.021,7.021,0,0,0-2.392-5.668,6.834,6.834,0,0,0-4.264-1.716c3.64-.832,5.512-3.12,5.512-6.76,0-4.836-3.328-7.228-9.932-7.228h-8.58c-3.12,0-4.42-.052-6.5-.156a50.779,50.779,0,0,1,.364,6.656V94.28a50.779,50.779,0,0,1-.364,6.656c2.288-.1,3.64-.156,6.552-.156ZM683.384,83V76.184h7.592c2.964,0,4.368,1.04,4.368,3.224,0,2.34-1.508,3.588-4.316,3.588Zm0,4.628h7.9c3.432,0,5.044,1.3,5.044,4.108,0,2.7-1.612,4-4.992,4h-7.956Zm48.828,14.144c9.256,0,15.34-6.344,15.34-15.964s-5.98-15.756-15.392-15.756c-9.464,0-15.5,6.188-15.5,15.86C716.664,95.632,722.7,101.768,732.212,101.768Zm-.052-26.312c5.512,0,8.684,3.848,8.684,10.556,0,6.344-3.328,10.244-8.736,10.244s-8.736-3.952-8.736-10.348C723.372,79.408,726.7,75.456,732.16,75.456Zm60.216,25.324a48.515,48.515,0,0,1-.364-6.708V77.848a55.873,55.873,0,0,1,.364-6.656h-8.528a2.96,2.96,0,0,1-.156.832c-.156.676-1.4,4.212-1.508,4.472l-7.436,15.652L767.26,76.5c-.156-.416-1.3-3.692-1.508-4.316-.052-.312-.1-.52-.156-.988h-8.528a57.99,57.99,0,0,1,.364,6.708V94.072a46.567,46.567,0,0,1-.364,6.708h6.76a49.524,49.524,0,0,1-.364-6.708V83.932c0-1.3-.052-2.444-.208-4.368a26.921,26.921,0,0,0,1.4,3.8l5.616,11.44a37.617,37.617,0,0,1,2.184,5.98h4.524a32.693,32.693,0,0,1,2.132-5.928l5.668-11.492a28.532,28.532,0,0,0,1.4-3.8,43.647,43.647,0,0,0-.208,4.368v10.14a54.391,54.391,0,0,1-.364,6.708Z" transform="translate(180 502)"/>
      <path id="路径_41061" data-name="路径 41061" d="M5-9.6a4.159,4.159,0,0,0-3.1,1.2A5.137,5.137,0,0,0,.54-4.656c0,3.048,1.752,5,4.476,5S9.5-1.62,9.5-4.656A5.175,5.175,0,0,0,8.16-8.4,4.205,4.205,0,0,0,5-9.6ZM5.04-1.08a2.591,2.591,0,0,1-1.86-.732,3.965,3.965,0,0,1-.972-2.832c0-2.172,1.092-3.54,2.82-3.54a2.583,2.583,0,0,1,1.848.732,3.876,3.876,0,0,1,.948,2.8C7.824-2.448,6.756-1.08,5.04-1.08ZM36.576-9.408a9.767,9.767,0,0,1,.1,1.644V-3.54a2.191,2.191,0,0,1-2.436,2.484,2.2,2.2,0,0,1-2.46-2.472V-7.764a9.41,9.41,0,0,1,.1-1.644H30.084a9.858,9.858,0,0,1,.1,1.644v4.236a3.865,3.865,0,0,0,.9,2.76A4.134,4.134,0,0,0,34.176.36c2.616,0,4.092-1.392,4.092-3.876v-4.26a9.7,9.7,0,0,1,.1-1.632ZM67.332.144c-.168-.324-.468-.972-.564-1.188C65.58-3.852,65.352-4.188,64.6-4.428a2.537,2.537,0,0,0,1.332-.7,2.467,2.467,0,0,0,.612-1.788c0-1.584-1.044-2.5-2.868-2.5h-2.88c-.66,0-1.032-.012-1.536-.036a10.677,10.677,0,0,1,.1,1.56v6.468a9.391,9.391,0,0,1-.1,1.56h1.788a9.364,9.364,0,0,1-.1-1.572V-3.876h1.788c.924,0,1.344.444,1.992,2.1a9.714,9.714,0,0,1,.624,1.92ZM60.948-5.244v-2.8h2.46c.984,0,1.476.444,1.476,1.308A1.424,1.424,0,0,1,64.5-5.676a1.617,1.617,0,0,1-1.14.432ZM116.7.144a9.771,9.771,0,0,1,.528-1.6l1.8-4.224a14.644,14.644,0,0,0,.552-1.752c-.012.18-.048.792-.1,1.836v3.984a11.156,11.156,0,0,1-.1,1.752h1.68a10.4,10.4,0,0,1-.1-1.752V-7.632a12.427,12.427,0,0,1,.1-1.776H118.86a6.65,6.65,0,0,1-.432,1.428L116-2.028,113.568-7.98a8.305,8.305,0,0,1-.444-1.428h-2.2a11.9,11.9,0,0,1,.1,1.776v6.024a11.254,11.254,0,0,1-.1,1.752h1.68a10.964,10.964,0,0,1-.1-1.752V-5.544c0-.264-.048-1.248-.1-1.884a13.354,13.354,0,0,0,.612,1.836l1.728,4.116a8.169,8.169,0,0,1,.528,1.62Zm25.272-9.552a8.966,8.966,0,0,1,.1,1.548V-1.4a9.055,9.055,0,0,1-.1,1.548H143.8a9.055,9.055,0,0,1-.1-1.548V-7.86a8.966,8.966,0,0,1,.1-1.548Zm22.4,6.756a4.1,4.1,0,0,0,.228,1A2.825,2.825,0,0,0,165.66-.288a4.825,4.825,0,0,0,2.52.624,3.977,3.977,0,0,0,2.868-.912,2.792,2.792,0,0,0,.756-2.04,2.368,2.368,0,0,0-1-2.064,5.283,5.283,0,0,0-1.956-.732,10.216,10.216,0,0,1-1.692-.432,1.141,1.141,0,0,1-.816-1.092c0-.78.708-1.308,1.752-1.308a1.9,1.9,0,0,1,1.5.576,1.55,1.55,0,0,1,.36.852l1.716-.2a3.235,3.235,0,0,0-.588-1.392A3.537,3.537,0,0,0,168.1-9.624c-2.064,0-3.408,1.08-3.408,2.748a2.362,2.362,0,0,0,.924,1.944,4.242,4.242,0,0,0,1.812.732,7.566,7.566,0,0,1,2.088.588,1.218,1.218,0,0,1,.6,1.1c0,.9-.72,1.44-1.92,1.44a2.13,2.13,0,0,1-1.752-.708,1.72,1.72,0,0,1-.336-1.056Zm27.78,0a4.1,4.1,0,0,0,.228,1A2.825,2.825,0,0,0,193.44-.288a4.825,4.825,0,0,0,2.52.624,3.977,3.977,0,0,0,2.868-.912,2.792,2.792,0,0,0,.756-2.04,2.368,2.368,0,0,0-1-2.064,5.283,5.283,0,0,0-1.956-.732,10.216,10.216,0,0,1-1.692-.432,1.141,1.141,0,0,1-.816-1.092c0-.78.708-1.308,1.752-1.308a1.9,1.9,0,0,1,1.5.576,1.55,1.55,0,0,1,.36.852l1.716-.2a3.235,3.235,0,0,0-.588-1.392,3.537,3.537,0,0,0-2.988-1.212c-2.064,0-3.408,1.08-3.408,2.748a2.362,2.362,0,0,0,.924,1.944A4.242,4.242,0,0,0,195.2-4.2a7.566,7.566,0,0,1,2.088.588,1.218,1.218,0,0,1,.6,1.1c0,.9-.72,1.44-1.92,1.44a2.13,2.13,0,0,1-1.752-.708,1.72,1.72,0,0,1-.336-1.056Zm28.092-6.756a8.966,8.966,0,0,1,.1,1.548V-1.4a9.055,9.055,0,0,1-.1,1.548h1.824a9.055,9.055,0,0,1-.1-1.548V-7.86a8.966,8.966,0,0,1,.1-1.548ZM247.116-9.6a4.159,4.159,0,0,0-3.1,1.2,5.137,5.137,0,0,0-1.368,3.744c0,3.048,1.752,5,4.476,5s4.488-1.968,4.488-5A5.175,5.175,0,0,0,250.272-8.4,4.205,4.205,0,0,0,247.116-9.6Zm.036,8.52a2.591,2.591,0,0,1-1.86-.732,3.965,3.965,0,0,1-.972-2.832c0-2.172,1.092-3.54,2.82-3.54a2.583,2.583,0,0,1,1.848.732,3.876,3.876,0,0,1,.948,2.8C249.936-2.448,248.868-1.08,247.152-1.08ZM280.368.144a9.055,9.055,0,0,1-.1-1.548V-7.752a10.493,10.493,0,0,1,.1-1.656h-1.752a10.489,10.489,0,0,1,.1,1.656V-3.72c0,.5.036,1.224.084,1.692-.264-.48-.648-1.1-.936-1.536l-3.036-4.572a6.582,6.582,0,0,1-.732-1.272H272.22a9.993,9.993,0,0,1,.1,1.548v6.192a12.983,12.983,0,0,1-.1,1.812h1.752a13.282,13.282,0,0,1-.1-1.8V-5.592c0-.276-.024-.816-.036-1.044-.036-.444-.036-.444-.048-.612.288.564.588,1.08.816,1.44l3.1,4.668a11.958,11.958,0,0,1,.768,1.284Z" transform="translate(180 396)"/>
      <path id="路径_41062" data-name="路径 41062" d="M29.276-5.3V-33.748a38.3,38.3,0,0,1,.416-6.6H22.308a41.921,41.921,0,0,1,.416,6.6V-5.3H10.608V-33.748a40.671,40.671,0,0,1,.416-6.6H3.64a41.5,41.5,0,0,1,.416,6.6V-5.72A46.693,46.693,0,0,1,3.64.936C5.876.832,7.28.78,10.192.78H41.808c2.912,0,4.316.052,6.552.156a42.19,42.19,0,0,1-.416-6.656V-33.748a39.861,39.861,0,0,1,.416-6.6H40.924a52.8,52.8,0,0,1,.416,6.6V-5.3Zm25.272-23.5a57.729,57.729,0,0,1,.364,6.656V-5.928A45.086,45.086,0,0,1,54.5.78H61.88A28.709,28.709,0,0,1,64.792-4l9.984-13.208a9.091,9.091,0,0,0,.936-1.508c.052-.1.156-.26.312-.52-.052,1.092-.052,1.092-.1,2.756L75.868-5.876A47.707,47.707,0,0,1,75.5.78h7.228a52.706,52.706,0,0,1-.364-6.708V-22.152a52.966,52.966,0,0,1,.364-6.656h-7.28a20.558,20.558,0,0,1-2.912,4.836l-9.828,13.1c-.312.416-.78,1.144-1.144,1.716a3.336,3.336,0,0,1-.312.52c.052-1.456.1-2.444.1-2.964V-22.1a52.159,52.159,0,0,1,.364-6.708ZM114.5-33.644a40.43,40.43,0,0,1,.364-6.708h-7.124a54.687,54.687,0,0,1,.364,6.656v6.4a21.517,21.517,0,0,0,.1,2.34c-1.716-3.276-4.264-4.628-8.788-4.628a10.751,10.751,0,0,0-7.748,3.068c-2.548,2.548-3.952,6.708-3.952,11.752,0,5.98,1.716,10.348,5.044,12.792A12.039,12.039,0,0,0,99.892.052c4.056,0,6.916-1.508,8.268-4.368-.1,1.352-.1,1.924-.1,3.12V1.82a25.351,25.351,0,0,1-.364,4.42h7.176a23.961,23.961,0,0,1-.364-4.472V-1.3a29.227,29.227,0,0,0-.1-3.016,4.681,4.681,0,0,0,1.352,1.924A9.738,9.738,0,0,0,122.668.1c7.8,0,12.168-5.356,12.168-14.872,0-5.044-1.4-9.2-3.952-11.752a10.838,10.838,0,0,0-7.748-3.068c-2.912,0-4.992.624-6.6,1.976a8.938,8.938,0,0,0-2.184,2.652,6.041,6.041,0,0,1,.1-1.04c0-.156.052-.624.052-.832Zm-13.468,9.36a6.793,6.793,0,0,1,4.836,1.924c1.56,1.664,2.5,4.576,2.5,7.644a11.344,11.344,0,0,1-2.444,7.488,7.12,7.12,0,0,1-4.992,1.976c-4.316,0-6.864-3.536-6.864-9.516C94.068-20.7,96.668-24.284,101.036-24.284Zm20.384,0c4.472,0,7.072,3.536,7.072,9.516s-2.548,9.516-6.864,9.516c-4.524,0-7.488-3.8-7.488-9.62C114.14-20.488,117.1-24.284,121.42-24.284ZM146.9,6.188a47.621,47.621,0,0,1-.364-5.564v-3.64a26.322,26.322,0,0,0-.1-2.756,6.951,6.951,0,0,0,1.976,2.08A13.781,13.781,0,0,0,156.52-1.3c9,0,14.352-5.356,14.352-14.352,0-8.684-5.148-13.832-13.832-13.832-4.784,0-8.372,1.56-10.608,4.524.052-.78.052-1.04.052-1.56v-2.288H139.62a46.693,46.693,0,0,1,.364,6.4V-.156a44.9,44.9,0,0,1-.364,6.344Zm-.156-21.58A8.939,8.939,0,0,1,149.5-22a9.81,9.81,0,0,1,6.084-2.34c5.3,0,8.372,3.224,8.372,8.84,0,5.564-3.068,9-8.112,9A8.747,8.747,0,0,1,146.744-15.392Zm49.92,17.16C205.92,1.768,212-4.576,212-14.2s-5.98-15.756-15.392-15.756c-9.464,0-15.5,6.188-15.5,15.86C181.116-4.368,187.148,1.768,196.664,1.768Zm-.052-26.312c5.512,0,8.684,3.848,8.684,10.556,0,6.344-3.328,10.244-8.736,10.244s-8.736-3.952-8.736-10.348C187.824-20.592,191.152-24.544,196.612-24.544ZM241.9.78c6.916,0,10.608-2.86,10.608-8.216A7.021,7.021,0,0,0,250.12-13.1a6.834,6.834,0,0,0-4.264-1.716c3.64-.832,5.512-3.12,5.512-6.76,0-4.836-3.328-7.228-9.932-7.228h-8.58c-3.12,0-4.42-.052-6.5-.156a50.782,50.782,0,0,1,.364,6.656V-5.72a50.782,50.782,0,0,1-.364,6.656c2.288-.1,3.64-.156,6.552-.156ZM233.116-17v-6.812h7.592c2.964,0,4.368,1.04,4.368,3.224,0,2.34-1.508,3.588-4.316,3.588Zm0,4.628h7.9c3.432,0,5.044,1.3,5.044,4.108,0,2.7-1.612,4-4.992,4h-7.956ZM288.34.936h7.02a41.825,41.825,0,0,1-.416-6.5V-19.6c0-3.536-.676-5.512-2.444-7.176-2.236-2.184-5.252-3.068-10.244-3.068-4.472,0-7.384.78-9.932,2.652-1.976,1.4-2.912,2.756-4.108,5.772l6.656,1.2a6.034,6.034,0,0,1,2.08-3.328,9.789,9.789,0,0,1,5.408-1.456c3.952,0,5.98,1.56,5.98,4.576v2.6c-7.436.156-11.284.728-14.664,2.132A9.171,9.171,0,0,0,267.8-7.28c0,5.408,3.848,8.736,10.192,8.736a18.4,18.4,0,0,0,4.836-.624,11.276,11.276,0,0,0,5.512-3.276Zm0-11.6a6.2,6.2,0,0,1-1.872,4.576,10.559,10.559,0,0,1-7.228,2.756c-2.912,0-4.732-1.508-4.732-4,0-4.056,3.9-5.72,13.832-5.98ZM317.46.78a48.7,48.7,0,0,1-.364-6.656v-5.876h14.768v5.876A54.691,54.691,0,0,1,331.5.78h7.176a49.729,49.729,0,0,1-.364-6.656V-22.1a46.568,46.568,0,0,1,.364-6.708H331.5a53.265,53.265,0,0,1,.364,6.708v4.628H317.1v-4.68a51.314,51.314,0,0,1,.364-6.656h-7.176a54.109,54.109,0,0,1,.364,6.656V-5.876A41.216,41.216,0,0,1,310.284.78Zm35.568-29.588a57.727,57.727,0,0,1,.364,6.656V-5.928A45.084,45.084,0,0,1,352.976.78h7.384A28.707,28.707,0,0,1,363.272-4l9.984-13.208a9.088,9.088,0,0,0,.936-1.508c.052-.1.156-.26.312-.52-.052,1.092-.052,1.092-.1,2.756l-.052,10.608A47.711,47.711,0,0,1,373.984.78h7.228a52.7,52.7,0,0,1-.364-6.708V-22.152a52.964,52.964,0,0,1,.364-6.656h-7.28a20.557,20.557,0,0,1-2.912,4.836l-9.828,13.1c-.312.416-.78,1.144-1.144,1.716a3.336,3.336,0,0,1-.312.52c.052-1.456.1-2.444.1-2.964V-22.1a52.157,52.157,0,0,1,.364-6.708Zm71.448,16.38c-.1-1.2-.1-1.352-.1-1.456a21.376,21.376,0,0,0-1.508-7.9C420.784-26.988,416-30,409.916-30c-8.892,0-14.664,6.292-14.664,15.912,0,9.724,5.824,15.86,15.028,15.86a14.767,14.767,0,0,0,10.712-4,14.613,14.613,0,0,0,3.172-4.784L418.028-9a7.558,7.558,0,0,1-1.508,2.7,8.222,8.222,0,0,1-6.24,2.6,8.173,8.173,0,0,1-6.5-2.912c-1.2-1.508-1.664-2.964-1.924-5.824Zm-22.464-5.148c.78-4.368,3.744-7.072,7.8-7.072a7.416,7.416,0,0,1,5.616,2.08,8.162,8.162,0,0,1,2.288,4.992Z" transform="translate(180 502)" fill="#0080f4"/>
    </g>
    <g id="蒙版组_33" data-name="蒙版组 33" clip-path="url(#clip-path)">
      <g id="bg" transform="translate(593.966 137.526)" opacity="0.06">
        <g id="组_21620" data-name="组 21620" transform="translate(552.34 642.069)">
          <path id="路径_38454" data-name="路径 38454" d="M974.923,856.855l-41.776,23.29,59.442,35.771L916.5,959.608l40.261,25.179,118.075-67.8Z" transform="translate(-737.066 -856.839)" fill="none" stroke="#231815" stroke-miterlimit="10" stroke-width="2"/>
          <path id="路径_38455" data-name="路径 38455" d="M792.713,984.784l41.781-23.293-59.449-35.776,76.1-43.7-40.266-25.182-118.09,67.813Z" transform="translate(-692.785 -856.835)" fill="none" stroke="#231815" stroke-miterlimit="10" stroke-width="2"/>
        </g>
        <path id="路径_38456" data-name="路径 38456" d="M620.954,959.488l217.228,132.864,206.091-122.416-32.144-21" transform="translate(-126.227 -232.996)" fill="none" stroke="#231815" stroke-miterlimit="10" stroke-width="2" stroke-dasharray="15 5"/>
        <ellipse id="椭圆_1799" data-name="椭圆 1799" cx="9.182" cy="5.831" rx="9.182" ry="5.831" transform="translate(238.014 497.65)" fill="#231815"/>
        <ellipse id="椭圆_1800" data-name="椭圆 1800" cx="6.803" cy="4.32" rx="6.803" ry="4.32" transform="translate(483.568 719.982)" fill="none" stroke="#231815" stroke-miterlimit="10" stroke-width="2"/>
        <ellipse id="椭圆_1801" data-name="椭圆 1801" cx="9.182" cy="5.831" rx="9.182" ry="5.831" transform="translate(702.486 851.999)" fill="#231815"/>
        <ellipse id="椭圆_1802" data-name="椭圆 1802" cx="9.182" cy="5.831" rx="9.182" ry="5.831" transform="translate(1170.115 497.571)" fill="#231815"/>
        <ellipse id="椭圆_1803" data-name="椭圆 1803" cx="9.182" cy="5.831" rx="9.182" ry="5.831" transform="translate(835.872 93.215)"/>
        <ellipse id="椭圆_1804" data-name="椭圆 1804" cx="9.182" cy="5.831" rx="9.182" ry="5.831" transform="translate(704.006 8.599)" fill="#231815"/>
        <path id="路径_38457" data-name="路径 38457" d="M1617.878,523.339l15.476,9.62-99.2,59.847-96.673,59.7-149.6-89.544" transform="translate(-258.235 -148.755)" fill="none" stroke="#000" stroke-miterlimit="10" stroke-width="2" stroke-dasharray="11 5"/>
        <path id="路径_38458" data-name="路径 38458" d="M243.628,126.461,371.81,47.5l149.6,89.544" transform="translate(-51.541 -54.571)" fill="none" stroke="#231815" stroke-miterlimit="10" stroke-width="2" stroke-dasharray="11 5"/>
        <g id="组_21621" data-name="组 21621" transform="translate(244.16 453.534)">
          <line id="直线_454" data-name="直线 454" x2="311.077" y2="189.85" transform="translate(0 49.947)" fill="none" stroke="#231815" stroke-miterlimit="10" stroke-width="2" stroke-dasharray="12 5"/>
          <line id="直线_455" data-name="直线 455" x1="91.209" y2="49.947" fill="none" stroke="#231815" stroke-miterlimit="10" stroke-width="2" stroke-dasharray="11 5"/>
        </g>
        <path id="路径_38459" data-name="路径 38459" d="M1244.886-68.37l-127.528,75,147.421,85.421L1467.74-29.109l-120.9-60.862" transform="translate(-224.482 -27.36)" fill="none" stroke="#000" stroke-miterlimit="10" stroke-width="2"/>
        <path id="路径_38460" data-name="路径 38460" d="M1252.3-46.8,1152.143,10.566l121.128,66.707L1444.114-26.289l-90.219-43.779" transform="translate(-231.368 -31.299)" fill="none" stroke="#000" stroke-miterlimit="10" stroke-width="1"/>
        <line id="直线_456" data-name="直线 456" y1="25.786" transform="translate(811.9 143.641)" fill="none" stroke="#000" stroke-miterlimit="10" stroke-width="2"/>
        <path id="路径_38461" data-name="路径 38461" d="M1016.4,223.495V205.411l6.832-4.65" transform="translate(-204.499 -84.906)" fill="none" stroke="#000" stroke-miterlimit="10" stroke-width="2"/>
        <line id="直线_457" data-name="直线 457" y1="11.147" x2="18.092" transform="translate(824.989 101.322)" fill="none" stroke="#000" stroke-miterlimit="10" stroke-width="2"/>
        <line id="直线_458" data-name="直线 458" x2="24.566" y2="15.133" transform="translate(816.206 78.082)" fill="none" stroke="#000" stroke-miterlimit="10" stroke-width="2"/>
        <line id="直线_459" data-name="直线 459" x2="21.815" y2="13.376" transform="translate(788.65 61.434)" fill="none" stroke="#000" stroke-miterlimit="10" stroke-width="2"/>
        <line id="直线_460" data-name="直线 460" x2="19.231" y2="11.424" transform="translate(762.932 46.623)" fill="none" stroke="#000" stroke-miterlimit="10" stroke-width="2"/>
        <line id="直线_461" data-name="直线 461" x1="23.422" y1="14.352" transform="translate(733.54 28.827)" fill="none" stroke="#000" stroke-miterlimit="10" stroke-width="2"/>
        <line id="直线_462" data-name="直线 462" x1="12.4" y1="7.865" transform="translate(714.997 17.747)" fill="none" stroke="#000" stroke-miterlimit="10" stroke-width="2"/>
        <line id="直线_463" data-name="直线 463" x1="10.792" y2="7.693" transform="translate(712.873 4.371)" fill="none" stroke="#000" stroke-miterlimit="10" stroke-width="2"/>
        <line id="直线_464" data-name="直线 464" y1="14.754" x2="24.283" transform="translate(730.268 -13.712)" fill="none" stroke="#000" stroke-miterlimit="10" stroke-width="2"/>
        <line id="直线_465" data-name="直线 465" y1="12.974" x2="22.389" transform="translate(760.119 -30.13)" fill="none" stroke="#000" stroke-miterlimit="10" stroke-width="2"/>
        <line id="直线_466" data-name="直线 466" y1="15.5" x2="25.833" transform="translate(789.282 -49.132)" fill="none" stroke="#000" stroke-miterlimit="10" stroke-width="2"/>
        <line id="直线_467" data-name="直线 467" x1="20.781" y2="12.4" transform="translate(822.176 -65.148)" fill="none" stroke="#000" stroke-miterlimit="10" stroke-width="2"/>
        <line id="直线_468" data-name="直线 468" y1="15.041" x2="24.8" transform="translate(849.502 -83.633)" fill="none" stroke="#000" stroke-miterlimit="10" stroke-width="2"/>
        <line id="直线_469" data-name="直线 469" y1="16.189" x2="26.866" transform="translate(881.851 -103.389)" fill="none" stroke="#000" stroke-miterlimit="10" stroke-width="2"/>
        <line id="直线_470" data-name="直线 470" x2="19.231" y2="11.194" transform="translate(916.642 -105.523)" fill="none" stroke="#000" stroke-miterlimit="10" stroke-width="2"/>
        <line id="直线_471" data-name="直线 471" x2="21.585" y2="12.228" transform="translate(942.303 -91.171)" fill="none" stroke="#000" stroke-miterlimit="10" stroke-width="2"/>
        <line id="直线_472" data-name="直线 472" x2="7.332" y2="4.703" transform="translate(970.088 -75.155)" fill="none" stroke="#000" stroke-miterlimit="10" stroke-width="2"/>
        <path id="路径_38462" data-name="路径 38462" d="M17.963,165.526l-34.726,84.962,105.055,55.8,140.876-22.733L264.3,204.677,162.346,144.055Z" transform="translate(0 -73.682)" fill="none" stroke="#231815" stroke-miterlimit="10" stroke-width="2"/>
        <path id="路径_38463" data-name="路径 38463" d="M27.894,175.113l-31.344,74.4L95.06,300.49l130.888-23.078,30.311-67.51L163.6,154.791Z" transform="translate(-2.635 -75.807)" fill="none" stroke="#231815" stroke-miterlimit="10" stroke-width="1.2"/>
        <path id="路径_38464" data-name="路径 38464" d="M901.908,324.442l-16.755-9.793H823.039L684.23,397.2v37.659l12.629,7.693" transform="translate(-138.751 -107.448)" fill="none" stroke="#000" stroke-miterlimit="10" stroke-width="3"/>
        <ellipse id="椭圆_1805" data-name="椭圆 1805" cx="6.056" cy="3.961" rx="6.056" ry="3.961" transform="translate(558.108 333.668)" fill="none" stroke="#231815" stroke-miterlimit="10" stroke-width="3"/>
        <ellipse id="椭圆_1806" data-name="椭圆 1806" cx="6.627" cy="4.621" rx="6.627" ry="4.621" transform="translate(784.011 228.326)" fill="none" stroke="#000" stroke-miterlimit="10" stroke-width="3"/>
        <path id="路径_38465" data-name="路径 38465" d="M887.185,366.594l-31.11-.335-84.883,51.013v18.733l85.636,50.512h30.357l85.217-51.47V417.44Z" transform="translate(-155.964 -117.664)" fill="none" stroke="#fff" stroke-miterlimit="10" stroke-width="0.5"/>
        <path id="路径_38466" data-name="路径 38466" d="M946.473,350.722l89.079,54.336V441.54L896.4,524.837H835.132l-93-55.8" transform="translate(-150.212 -114.588)" fill="none" stroke="#000" stroke-miterlimit="10" stroke-width="3"/>
        <g id="组_21622" data-name="组 21622" transform="translate(749.065 82.743)">
          <path id="路径_38467" data-name="路径 38467" d="M938.057,285.295l143.5-85.881V166.348" transform="translate(-938.057 -160.837)" fill="none" stroke="#000" stroke-miterlimit="10" stroke-width="2"/>
          <path id="路径_38468" data-name="路径 38468" d="M1179.5,179.8l-41.1,24.8h-27.1L953.8,298.088" transform="translate(-941.174 -163.5)" fill="none" stroke="#000" stroke-miterlimit="10" stroke-width="2"/>
          <line id="直线_473" data-name="直线 473" y1="56.029" x2="94.147" transform="translate(29.601 86.684)" fill="none" stroke="#000" stroke-miterlimit="10" stroke-width="2"/>
          <path id="路径_38469" data-name="路径 38469" d="M998.94,325.11l138.408-82.321h31.861" transform="translate(-950.108 -175.967)" fill="none" stroke="#000" stroke-miterlimit="10" stroke-width="2"/>
          <path id="路径_38470" data-name="路径 38470" d="M1013.684,340.243l130.353-77.557h30.387" transform="translate(-953.026 -179.906)" fill="none" stroke="#000" stroke-miterlimit="10" stroke-width="2"/>
          <line id="直线_474" data-name="直线 474" y1="68.716" x2="115.101" transform="translate(76.674 100.347)" fill="none" stroke="#000" stroke-miterlimit="10" stroke-width="2"/>
          <path id="路径_38471" data-name="路径 38471" d="M1052.62,355.372l142.426-84.887,24.972-3.979,26.867-15.844" transform="translate(-960.733 -177.526)" fill="none" stroke="#000" stroke-miterlimit="10" stroke-width="2"/>
          <line id="直线_475" data-name="直线 475" y1="56.144" x2="94.377" transform="translate(106.354 131.002)" fill="none" stroke="#000" stroke-miterlimit="10" stroke-width="2"/>
          <path id="路径_38472" data-name="路径 38472" d="M1089.123,376.18,1223.8,296.1l40.3-6.372,45.122-27.039" transform="translate(-967.958 -179.906)" fill="none" stroke="#000" stroke-miterlimit="10" stroke-width="2"/>
          <path id="路径_38473" data-name="路径 38473" d="M1107.962,397.534l113.407-67.683,39.4-5.755,33.411,19.633" transform="translate(-971.687 -192.061)" fill="none" stroke="#000" stroke-miterlimit="10" stroke-width="2"/>
          <ellipse id="椭圆_1807" data-name="椭圆 1807" cx="3.387" cy="2.459" rx="3.387" ry="2.459" transform="translate(140.224)" fill="none" stroke="#000" stroke-miterlimit="10" stroke-width="2"/>
          <ellipse id="椭圆_1808" data-name="椭圆 1808" cx="3.387" cy="2.459" rx="3.387" ry="2.459" transform="translate(236.824 12.341)" fill="none" stroke="#000" stroke-miterlimit="10" stroke-width="2"/>
          <ellipse id="椭圆_1809" data-name="椭圆 1809" cx="3.387" cy="2.586" rx="3.387" ry="2.586" transform="translate(220.467 63.138)" fill="none" stroke="#000" stroke-miterlimit="10" stroke-width="2"/>
          <ellipse id="椭圆_1810" data-name="椭圆 1810" cx="3.387" cy="2.586" rx="3.387" ry="2.586" transform="translate(122.944 82.781)" fill="none" stroke="#000" stroke-miterlimit="10" stroke-width="2"/>
          <ellipse id="椭圆_1811" data-name="椭圆 1811" cx="3.387" cy="2.586" rx="3.387" ry="2.586" transform="translate(221.231 80.195)" fill="none" stroke="#000" stroke-miterlimit="10" stroke-width="2"/>
          <ellipse id="椭圆_1812" data-name="椭圆 1812" cx="3.387" cy="2.586" rx="3.387" ry="2.586" transform="translate(191.255 96.67)" fill="none" stroke="#000" stroke-miterlimit="10" stroke-width="2"/>
          <ellipse id="椭圆_1813" data-name="椭圆 1813" cx="3.387" cy="2.586" rx="3.387" ry="2.586" transform="translate(200.211 127.411)" fill="none" stroke="#000" stroke-miterlimit="10" stroke-width="2"/>
          <ellipse id="椭圆_1814" data-name="椭圆 1814" cx="3.387" cy="2.586" rx="3.387" ry="2.586" transform="translate(285.092 69.257)" fill="none" stroke="#000" stroke-miterlimit="10" stroke-width="2"/>
          <ellipse id="椭圆_1815" data-name="椭圆 1815" cx="3.387" cy="2.586" rx="3.387" ry="2.586" transform="translate(340.146 79.036)" fill="none" stroke="#000" stroke-miterlimit="10" stroke-width="2"/>
          <ellipse id="椭圆_1816" data-name="椭圆 1816" cx="3.387" cy="2.586" rx="3.387" ry="2.586" transform="translate(320.922 150.805)" fill="none" stroke="#000" stroke-miterlimit="10" stroke-width="2"/>
        </g>
        <g id="组_21623" data-name="组 21623" transform="translate(334.649 327.96)">
          <path id="路径_38474" data-name="路径 38474" d="M818.493,567.153,675,653.034V686.1" transform="translate(-471.573 -485.388)" fill="none" stroke="#231815" stroke-miterlimit="10" stroke-width="2"/>
          <path id="路径_38475" data-name="路径 38475" d="M556.762,672.808l41.1-24.8h27.1l157.5-93.484" transform="translate(-448.17 -482.888)" fill="none" stroke="#231815" stroke-miterlimit="10" stroke-width="2"/>
          <line id="直线_476" data-name="直线 476" x1="94.147" y2="56.029" transform="translate(223.172 63.51)" fill="none" stroke="#231815" stroke-miterlimit="10" stroke-width="2"/>
          <path id="路径_38476" data-name="路径 38476" d="M754.835,533.242l-143.6,85.41H579.374" transform="translate(-452.646 -478.676)" fill="none" stroke="#231815" stroke-miterlimit="10" stroke-width="2"/>
          <path id="路径_38477" data-name="路径 38477" d="M739.817,521.73,608.182,599.84H577.871" transform="translate(-452.348 -476.397)" fill="none" stroke="#231815" stroke-miterlimit="10" stroke-width="2"/>
          <line id="直线_477" data-name="直线 477" x1="116.73" y2="69.689" transform="translate(155.145 36.188)" fill="none" stroke="#231815" stroke-miterlimit="10" stroke-width="2"/>
          <path id="路径_38478" data-name="路径 38478" d="M694.156,498.872,548.974,585.136,524,589.116,497.136,604.96" transform="translate(-436.368 -471.873)" fill="none" stroke="#231815" stroke-miterlimit="10" stroke-width="2"/>
          <line id="直线_478" data-name="直线 478" x1="94.377" y2="56.144" transform="translate(146.189 19.077)" fill="none" stroke="#231815" stroke-miterlimit="10" stroke-width="2"/>
          <path id="路径_38479" data-name="路径 38479" d="M645.939,479.53,513.846,558.076l-40.3,6.372-45.122,27.039" transform="translate(-422.768 -468.044)" fill="none" stroke="#231815" stroke-miterlimit="10" stroke-width="2"/>
          <path id="路径_38480" data-name="路径 38480" d="M638.23,465.21,524.638,533.643l-39.4,5.755L451.83,519.764" transform="translate(-427.4 -465.21)" fill="none" stroke="#231815" stroke-miterlimit="10" stroke-width="2"/>
          <ellipse id="椭圆_1817" data-name="椭圆 1817" cx="3.387" cy="2.459" rx="3.387" ry="2.459" transform="translate(199.922 201.305)" fill="none" stroke="#231815" stroke-miterlimit="10" stroke-width="2"/>
          <ellipse id="椭圆_1818" data-name="椭圆 1818" cx="3.387" cy="2.459" rx="3.387" ry="2.459" transform="translate(103.321 188.964)" fill="none" stroke="#231815" stroke-miterlimit="10" stroke-width="2"/>
          <ellipse id="椭圆_1819" data-name="椭圆 1819" cx="3.387" cy="2.586" rx="3.387" ry="2.586" transform="translate(119.679 137.914)" fill="none" stroke="#231815" stroke-miterlimit="10" stroke-width="2"/>
          <ellipse id="椭圆_1820" data-name="椭圆 1820" cx="3.387" cy="2.586" rx="3.387" ry="2.586" transform="translate(217.202 118.271)" fill="none" stroke="#231815" stroke-miterlimit="10" stroke-width="2"/>
          <ellipse id="椭圆_1821" data-name="椭圆 1821" cx="3.387" cy="2.586" rx="3.387" ry="2.586" transform="translate(118.915 120.857)" fill="none" stroke="#231815" stroke-miterlimit="10" stroke-width="2"/>
          <ellipse id="椭圆_1822" data-name="椭圆 1822" cx="3.387" cy="2.586" rx="3.387" ry="2.586" transform="translate(148.891 104.382)" fill="none" stroke="#231815" stroke-miterlimit="10" stroke-width="2"/>
          <ellipse id="椭圆_1823" data-name="椭圆 1823" cx="3.387" cy="2.586" rx="3.387" ry="2.586" transform="translate(139.935 73.641)" fill="none" stroke="#231815" stroke-miterlimit="10" stroke-width="2"/>
          <ellipse id="椭圆_1824" data-name="椭圆 1824" cx="3.387" cy="2.586" rx="3.387" ry="2.586" transform="translate(55.054 131.795)" fill="none" stroke="#231815" stroke-miterlimit="10" stroke-width="2"/>
          <ellipse id="椭圆_1825" data-name="椭圆 1825" cx="3.387" cy="2.586" rx="3.387" ry="2.586" transform="translate(0 122.016)" fill="none" stroke="#231815" stroke-miterlimit="10" stroke-width="2"/>
          <ellipse id="椭圆_1826" data-name="椭圆 1826" cx="3.387" cy="2.586" rx="3.387" ry="2.586" transform="translate(19.224 50.247)" fill="none" stroke="#231815" stroke-miterlimit="10" stroke-width="2"/>
        </g>
        <g id="组_21624" data-name="组 21624" transform="translate(749.503 328.444)">
          <path id="路径_38481" data-name="路径 38481" d="M938.6,567.018l114.01,68.2,10.1,22.618-33.3,20.207" transform="translate(-938.603 -485.845)" fill="none" stroke="#231815" stroke-miterlimit="10" stroke-width="2"/>
          <path id="路径_38482" data-name="路径 38482" d="M957.5,556l135.136,80.37,10.218,23.307L1148.434,687" transform="translate(-942.343 -483.663)" fill="none" stroke="#231815" stroke-miterlimit="10" stroke-width="2"/>
          <line id="直线_479" data-name="直线 479" x2="94.836" y2="56.374" transform="translate(30.655 63.377)" fill="none" stroke="#231815" stroke-miterlimit="10" stroke-width="2"/>
          <path id="路径_38483" data-name="路径 38483" d="M996.005,533.379l142.943,85.192,6.889,15.155,26.637,15.959" transform="translate(-949.965 -479.187)" fill="none" stroke="#231815" stroke-miterlimit="10" stroke-width="2"/>
          <line id="直线_480" data-name="直线 480" x2="116.766" y2="69.462" transform="translate(60.851 45.351)" fill="none" stroke="#231815" stroke-miterlimit="10" stroke-width="2"/>
          <path id="路径_38484" data-name="路径 38484" d="M1033.51,511.191,1163.479,588.8V607.06" transform="translate(-957.388 -474.795)" fill="none" stroke="#231815" stroke-miterlimit="10" stroke-width="2"/>
          <path id="路径_38485" data-name="路径 38485" d="M1052.549,499.6l143.058,86v18.255" transform="translate(-961.157 -472.5)" fill="none" stroke="#231815" stroke-miterlimit="10" stroke-width="2"/>
          <line id="直线_481" data-name="直线 481" x2="93.114" y2="55.799" transform="translate(106.547 18.141)" fill="none" stroke="#231815" stroke-miterlimit="10" stroke-width="2"/>
          <path id="路径_38486" data-name="路径 38486" d="M1090.2,477.122l155.687,92.884v15.729l40.644,24.226" transform="translate(-968.609 -468.051)" fill="none" stroke="#231815" stroke-miterlimit="10" stroke-width="2"/>
          <path id="路径_38487" data-name="路径 38487" d="M1107.962,465.813l144.309,85.766H1309.1" transform="translate(-972.125 -465.813)" fill="none" stroke="#231815" stroke-miterlimit="10" stroke-width="2"/>
          <ellipse id="椭圆_1827" data-name="椭圆 1827" cx="3.363" cy="2.594" rx="3.363" ry="2.594" transform="translate(231.311 131.347)" fill="none" stroke="#231815" stroke-miterlimit="10" stroke-width="2"/>
          <ellipse id="椭圆_1828" data-name="椭圆 1828" cx="3.363" cy="2.594" rx="3.363" ry="2.594" transform="translate(202.728 132.265)" fill="none" stroke="#231815" stroke-miterlimit="10" stroke-width="2"/>
          <ellipse id="椭圆_1829" data-name="椭圆 1829" cx="3.363" cy="2.102" rx="3.363" ry="2.102" transform="translate(221.705 169.723)" fill="none" stroke="#231815" stroke-miterlimit="10" stroke-width="2"/>
          <ellipse id="椭圆_1830" data-name="椭圆 1830" cx="3.363" cy="2.102" rx="3.363" ry="2.102" transform="translate(316.698 141.265)" fill="none" stroke="#231815" stroke-miterlimit="10" stroke-width="2"/>
          <ellipse id="椭圆_1831" data-name="椭圆 1831" cx="3.363" cy="2.102" rx="3.363" ry="2.102" transform="translate(336.978 83.664)" fill="none" stroke="#231815" stroke-miterlimit="10" stroke-width="2"/>
          <ellipse id="椭圆_1832" data-name="椭圆 1832" cx="3.769" cy="2.356" rx="3.769" ry="2.356" transform="translate(175.967 114.198)" fill="none" stroke="#231815" stroke-miterlimit="10" stroke-width="2"/>
          <ellipse id="椭圆_1833" data-name="椭圆 1833" cx="3.769" cy="2.356" rx="3.769" ry="2.356" transform="translate(198.552 73.134)" fill="none" stroke="#231815" stroke-miterlimit="10" stroke-width="2"/>
          <ellipse id="椭圆_1834" data-name="椭圆 1834" cx="3.769" cy="2.356" rx="3.769" ry="2.356" transform="translate(124.351 119.146)" fill="none" stroke="#231815" stroke-miterlimit="10" stroke-width="2"/>
          <ellipse id="椭圆_1835" data-name="椭圆 1835" cx="3.769" cy="2.356" rx="3.769" ry="2.356" transform="translate(205.711 202.513)" fill="none" stroke="#231815" stroke-miterlimit="10" stroke-width="2"/>
          <ellipse id="椭圆_1836" data-name="椭圆 1836" cx="3.769" cy="2.356" rx="3.769" ry="2.356" transform="translate(84.263 191.779)" fill="none" stroke="#231815" stroke-miterlimit="10" stroke-width="2"/>
        </g>
        <g id="组_21625" data-name="组 21625" transform="translate(338.036 81.141)">
          <path id="路径_38488" data-name="路径 38488" d="M823.489,287.24l-114.01-68.2-10.1-22.618,33.3-20.207" transform="translate(-479.785 -161.189)" fill="none" stroke="#231815" stroke-miterlimit="10" stroke-width="2"/>
          <path id="路径_38489" data-name="路径 38489" d="M788.1,293.333l-135.136-80.37-10.219-23.307L597.167,162.33" transform="translate(-459.555 -158.44)" fill="none" stroke="#231815" stroke-miterlimit="10" stroke-width="2"/>
          <line id="直线_482" data-name="直线 482" x1="94.836" y1="56.374" transform="translate(218.212 87.474)" fill="none" stroke="#231815" stroke-miterlimit="10" stroke-width="2"/>
          <path id="路径_38490" data-name="路径 38490" d="M753.166,319.577,610.223,234.385l-6.889-15.155L576.7,203.27" transform="translate(-455.503 -166.544)" fill="none" stroke="#231815" stroke-miterlimit="10" stroke-width="2"/>
          <line id="直线_483" data-name="直线 483" x1="116.766" y1="69.462" transform="translate(166.087 92.411)" fill="none" stroke="#231815" stroke-miterlimit="10" stroke-width="2"/>
          <path id="路径_38491" data-name="路径 38491" d="M727.137,346.808,597.167,269.194V250.938" transform="translate(-459.555 -175.979)" fill="none" stroke="#231815" stroke-miterlimit="10" stroke-width="2"/>
          <path id="路径_38492" data-name="路径 38492" d="M704.868,356.335l-143.058-86V252.084" transform="translate(-452.556 -176.206)" fill="none" stroke="#231815" stroke-miterlimit="10" stroke-width="2"/>
          <line id="直线_484" data-name="直线 484" x1="93.114" y1="55.799" transform="translate(144.042 133.285)" fill="none" stroke="#231815" stroke-miterlimit="10" stroke-width="2"/>
          <path id="路径_38493" data-name="路径 38493" d="M654.073,371.754,535.224,300.848l-36.839-21.978V263.14l-40.644-24.226" transform="translate(-431.957 -173.599)" fill="none" stroke="#231815" stroke-miterlimit="10" stroke-width="2"/>
          <path id="路径_38494" data-name="路径 38494" d="M635.121,394.679,490.812,308.913H433.979" transform="translate(-427.254 -187.454)" fill="none" stroke="#231815" stroke-miterlimit="10" stroke-width="2"/>
          <ellipse id="椭圆_1837" data-name="椭圆 1837" cx="3.363" cy="2.594" rx="3.363" ry="2.594" transform="translate(105.667 70.69)" fill="none" stroke="#231815" stroke-miterlimit="10" stroke-width="2"/>
          <ellipse id="椭圆_1838" data-name="椭圆 1838" cx="3.363" cy="2.594" rx="3.363" ry="2.594" transform="translate(134.25 69.772)" fill="none" stroke="#231815" stroke-miterlimit="10" stroke-width="2"/>
          <ellipse id="椭圆_1839" data-name="椭圆 1839" cx="3.363" cy="2.102" rx="3.363" ry="2.102" transform="translate(115.274 33.298)" fill="none" stroke="#231815" stroke-miterlimit="10" stroke-width="2"/>
          <ellipse id="椭圆_1840" data-name="椭圆 1840" cx="3.363" cy="2.102" rx="3.363" ry="2.102" transform="translate(20.28 61.757)" fill="none" stroke="#231815" stroke-miterlimit="10" stroke-width="2"/>
          <ellipse id="椭圆_1841" data-name="椭圆 1841" cx="3.363" cy="2.102" rx="3.363" ry="2.102" transform="translate(0 119.357)" fill="none" stroke="#231815" stroke-miterlimit="10" stroke-width="2"/>
          <ellipse id="椭圆_1842" data-name="椭圆 1842" cx="3.769" cy="2.356" rx="3.769" ry="2.356" transform="translate(160.198 88.315)" fill="none" stroke="#231815" stroke-miterlimit="10" stroke-width="2"/>
          <ellipse id="椭圆_1843" data-name="椭圆 1843" cx="3.769" cy="2.356" rx="3.769" ry="2.356" transform="translate(137.613 129.379)" fill="none" stroke="#231815" stroke-miterlimit="10" stroke-width="2"/>
          <ellipse id="椭圆_1844" data-name="椭圆 1844" cx="3.769" cy="2.356" rx="3.769" ry="2.356" transform="translate(211.813 83.367)" fill="none" stroke="#231815" stroke-miterlimit="10" stroke-width="2"/>
          <ellipse id="椭圆_1845" data-name="椭圆 1845" cx="3.769" cy="2.356" rx="3.769" ry="2.356" transform="translate(130.454)" fill="none" stroke="#231815" stroke-miterlimit="10" stroke-width="2"/>
          <ellipse id="椭圆_1846" data-name="椭圆 1846" cx="3.769" cy="2.356" rx="3.769" ry="2.356" transform="translate(251.901 10.734)" fill="none" stroke="#231815" stroke-miterlimit="10" stroke-width="2"/>
        </g>
        <path id="矩形_2283" data-name="矩形 2283" d="M8.125,0h6.139a8.125,8.125,0,0,1,8.125,8.125v8.753a0,0,0,0,1,0,0H0a0,0,0,0,1,0,0V8.125A8.125,8.125,0,0,1,8.125,0Z" transform="translate(1059.814 -146.526)" fill="none" stroke="#000" stroke-miterlimit="10" stroke-width="2"/>
        <line id="直线_485" data-name="直线 485" y2="5.942" transform="translate(1071.482 -122.716)" fill="none" stroke="#000" stroke-linecap="round" stroke-miterlimit="10" stroke-width="2"/>
        <line id="直线_486" data-name="直线 486" x1="1.851" transform="translate(1070.111 -53.936)" fill="none" stroke="#000" stroke-linecap="round" stroke-miterlimit="10" stroke-width="3"/>
        <g id="组_21626" data-name="组 21626" transform="translate(1194.715 205.797)">
          <path id="路径_38495" data-name="路径 38495" d="M1541.735,367.616s-83.945,5.622-29.923,52.427c0,0-36.436,23.969,6.518,51.676s93.057-.381,93.057-.381l158.762-91.381s38.388-28.088-.011-54.673-91.755-2.615-95.008.755c0,0-60.526-28.08-111.928-.74C1563.2,325.3,1527.414,343.651,1541.735,367.616Z" transform="translate(-1493.686 -312.898)" fill="none" stroke="#000" stroke-miterlimit="10" stroke-width="2"/>
          <path id="路径_38496" data-name="路径 38496" d="M1902.88,476l-127.53,73.4-86.234-49.611,127.53-73.4Z" transform="translate(-1532.368 -335.361)" fill="none" stroke="#000" stroke-miterlimit="10" stroke-width="2"/>
          <path id="路径_38497" data-name="路径 38497" d="M1881.338,487.193,1794.8,537l-110.965-63.839,86.538-49.81Z" transform="translate(-1531.323 -334.762)" fill="none" stroke="#000" stroke-miterlimit="10" stroke-width="2"/>
          <path id="路径_38498" data-name="路径 38498" d="M1830.246,499.132l9.437,5.429c3.5,2.016,3.505,5.286,0,7.3h0a14.066,14.066,0,0,1-12.69,0l-9.437-5.429-4.325-1.676c-5.091.44-10.465-.467-14.384-2.722-6.56-3.774-6.561-9.893,0-13.668s17.192-3.775,23.752,0c4.225,2.43,5.729,5.834,4.512,8.958Z" transform="translate(-1553.115 -347.07)" fill="none" stroke="#000" stroke-miterlimit="10" stroke-width="2"/>
        </g>
      </g>
    </g>
  </g>
</svg>
