<svg xmlns="http://www.w3.org/2000/svg" width="69.5" height="69.5" viewBox="0 0 69.5 69.5">
  <path id="群关系" d="M247.167,578.25a5.555,5.555,0,0,0-5.185,7.623l.076.19-7.233,4.7-.141-.182a13.882,13.882,0,0,0-5.122-4.068l-.208-.1L235.2,570.2l.222.061a13.744,13.744,0,1,0-8.873-19.066l-.1.208L222.3,549.87l.032-.2a5.463,5.463,0,0,0,.086-.835,5.635,5.635,0,1,0-.854,2.932l.108-.173,4.149,1.531-.062.222a13.513,13.513,0,0,0,.188,7.951l.073.219-13.254,5.616-.108-.2a13.685,13.685,0,0,0-17-6.448l-.215.082-3.413-7.172.162-.123a5.773,5.773,0,1,0-2.012.966l.2-.049,3.409,7.166-.2.116a13.727,13.727,0,0,0-.734,23.285l.191.128-2.345,4.215-.2-.062a5.618,5.618,0,1,0,1.952,1.087l-.154-.133,2.349-4.223.209.094a13.634,13.634,0,0,0,14-1.63l.183-.141,4.9,5.392-.156.168a13.461,13.461,0,0,0-3.529,11.41l.035.227-5.825,1.382-.086-.185a5.55,5.55,0,1,0,.539,2.352,1.594,1.594,0,0,1-.019-.185l0-.2,5.811-1.377.072.218A13.744,13.744,0,1,0,235.943,592.5l-.109-.2,7.217-4.693.143.145a5.581,5.581,0,1,0,3.973-9.5Zm-30.334-25.667a3.75,3.75,0,1,1,3.75-3.75A3.755,3.755,0,0,1,216.833,552.583Zm-28,0a3.75,3.75,0,1,1,3.75-3.75A3.755,3.755,0,0,1,188.833,552.583Zm3.75,41.75a3.75,3.75,0,1,1-3.75-3.75A3.755,3.755,0,0,1,192.583,594.333Zm6.75,14.25a3.75,3.75,0,1,1,3.75-3.75A3.755,3.755,0,0,1,199.333,608.583Zm46.685-41.973a11.828,11.828,0,0,1-14.036,0l-.128-.093.03-.156a6.084,6.084,0,0,1,5.949-4.944h2.334a6.084,6.084,0,0,1,5.949,4.944l.03.156ZM235.25,555.833a3.75,3.75,0,1,1,3.75,3.75A3.755,3.755,0,0,1,235.25,555.833Zm3.75-10.75a11.9,11.9,0,0,1,8.995,19.71l-.275.315-.148-.39a8,8,0,0,0-4.505-4.575l-.348-.14.263-.268a5.583,5.583,0,1,0-7.964,0l.263.268-.348.14a8,8,0,0,0-4.505,4.575l-.148.39-.275-.315A11.9,11.9,0,0,1,239,545.083Zm-31.5,37.876a11.827,11.827,0,0,1-14.035-.032l-.128-.094.031-.155a6.084,6.084,0,0,1,5.945-4.928h2.334a6.078,6.078,0,0,1,5.951,4.96l.03.155Zm-10.77-10.792a3.75,3.75,0,1,1,3.75,3.75A3.755,3.755,0,0,1,196.727,572.167Zm12.477,9.294-.148-.392a8,8,0,0,0-4.511-4.593l-.348-.14.262-.268a5.583,5.583,0,1,0-7.964,0l.263.268-.349.14a8,8,0,0,0-4.5,4.556l-.149.391-.273-.317a11.916,11.916,0,1,1,17.991.04Zm1.19,1.393.157-.168a13.654,13.654,0,0,0,3-13.649l-.073-.219,13.255-5.616.107.2a13.867,13.867,0,0,0,6.429,6.079l.209.1L227.629,585.8l-.222-.061a13.477,13.477,0,0,0-11.928,2.367l-.183.141Zm20.436,25.772a11.827,11.827,0,0,1-14.035-.032l-.128-.094.031-.155a6.085,6.085,0,0,1,5.946-4.928h2.333a6.08,6.08,0,0,1,5.952,4.96l.029.156Zm-10.77-10.793a3.75,3.75,0,1,1,3.75,3.75A3.755,3.755,0,0,1,220.06,597.833Zm12.752,8.979-.275.315-.148-.392a8,8,0,0,0-4.511-4.592l-.348-.14.262-.268a5.584,5.584,0,1,0-7.963,0l.262.268-.348.14a8,8,0,0,0-4.5,4.556l-.149.391-.273-.317a11.917,11.917,0,1,1,17.991.039Zm14.355-19.229a3.75,3.75,0,1,1,3.75-3.75A3.755,3.755,0,0,1,247.167,587.583Z" transform="translate(-183.25 -543.25)" fill="#6287de"/>
</svg>
