<svg xmlns="http://www.w3.org/2000/svg" width="69.472" height="69.5" viewBox="0 0 69.472 69.5">
  <g id="社交关系管理" transform="translate(13 -9.001)">
    <path id="路径_39159" data-name="路径 39159" d="M437.562,627.8a4.184,4.184,0,0,0-4.042,3.147l-.049.188h-6.734l-.007-.243a19.8,19.8,0,0,0-4.762-12.315l-.152-.176,4.518-4.516.167.1a4.2,4.2,0,0,0,5.085-.625,4.156,4.156,0,0,0,1.221-2.963,4.209,4.209,0,0,0-1.223-2.966,4.3,4.3,0,0,0-5.929,0,4.141,4.141,0,0,0-.623,5.083l.1.167-4.5,4.5-.177-.164a19.73,19.73,0,0,0-12.342-5.253l-.236-.014v-6.2l.187-.049a4.2,4.2,0,1,0-2.107,0l.187.049v6.2l-.236.014a19.739,19.739,0,0,0-12.342,5.253l-.176.164-4.5-4.5.1-.167a4.141,4.141,0,0,0-.625-5.085,4.3,4.3,0,0,0-5.929,0,4.162,4.162,0,0,0-1.221,2.965,4.164,4.164,0,0,0,6.3,3.588l.167-.1,4.518,4.516-.151.176a19.7,19.7,0,0,0-4.763,12.315l-.007.243h-6.733l-.049-.188a4.2,4.2,0,1,0,0,2.108l.049-.188h6.775l.02.23a19.8,19.8,0,0,0,5.224,11.783l.165.176-5.048,5.048-.167-.1a4.2,4.2,0,0,0-5.085.625,4.157,4.157,0,0,0-1.22,2.964,4.214,4.214,0,0,0,1.223,2.967,4.16,4.16,0,0,0,2.963,1.219,4.207,4.207,0,0,0,2.966-1.223,4.14,4.14,0,0,0,.623-5.082l-.1-.167,5.069-5.069.176.152a19.51,19.51,0,0,0,11.769,4.739l.236.014v7.314l-.187.049a4.2,4.2,0,1,0,2.107,0l-.187-.049v-7.316l.236-.014a19.516,19.516,0,0,0,11.742-4.737l.176-.152,5.069,5.069-.1.167a4.163,4.163,0,0,0,3.589,6.3,4.215,4.215,0,0,0,2.967-1.223,4.16,4.16,0,0,0,1.219-2.963,4.164,4.164,0,0,0-6.3-3.589l-.167.1-5.048-5.048.165-.176a19.449,19.449,0,0,0,5.224-11.783l.019-.23h6.776l.049.188a4.191,4.191,0,1,0,4.07-5.255Zm-10.688-19.154a2.478,2.478,0,0,1,3.494,0,2.488,2.488,0,0,1,.721,1.748,2.469,2.469,0,1,1-4.938,0A2.409,2.409,0,0,1,426.874,608.645Zm-39.719,3.5a2.469,2.469,0,0,1-4.216-1.748,2.471,2.471,0,0,1,4.216-1.748,2.488,2.488,0,0,1,.721,1.748A2.458,2.458,0,0,1,387.155,612.142Zm-10.69,22.327A2.469,2.469,0,1,1,378.933,632,2.472,2.472,0,0,1,376.465,634.469Zm10.688,20.886a2.52,2.52,0,0,1-3.493,0,2.479,2.479,0,0,1,0-3.5,2.486,2.486,0,0,1,1.747-.72,2.46,2.46,0,0,1,2.469,2.468A2.409,2.409,0,0,1,387.153,655.355Zm39.719-3.5a2.461,2.461,0,0,1,1.748-.72,2.414,2.414,0,0,1,1.751.723,2.456,2.456,0,0,1,.718,1.745,2.469,2.469,0,1,1-4.938,0A2.458,2.458,0,0,1,426.872,651.858Zm-22.327-50.407a2.468,2.468,0,1,1,2.469,2.468A2.472,2.472,0,0,1,404.545,601.451Zm4.937,61.1a2.468,2.468,0,1,1-2.468-2.468A2.471,2.471,0,0,1,409.482,662.549Zm-2.468-13.074a18.026,18.026,0,1,1,18.025-18.026A18.046,18.046,0,0,1,407.014,649.475Zm30.548-15.006A2.469,2.469,0,1,1,440.031,632,2.471,2.471,0,0,1,437.562,634.469Z" transform="translate(-385.264 -588.249)" fill="#ef54a1"/>
    <g id="logo_white" transform="translate(-2530.373 219.989)">
      <g id="组_21931" data-name="组 21931" transform="translate(1877.031 -1650.34)">
        <path id="路径_39871" data-name="路径 39871" d="M683.338,1476.35c-.055-.253-.094-.626-.446-.576a4.685,4.685,0,0,1-.891,1.5,4.49,4.49,0,0,1-1.193.723c-.2.954,1.107,1.538,1.786.962a2.652,2.652,0,0,0,.744-2.609Zm-1.022,2.162a.921.921,0,0,1-1.008-.006c-.018-.059-.057-.175-.075-.232a2.458,2.458,0,0,0,1.7-1.61,1.8,1.8,0,0,1-.617,1.856Z" transform="translate(-8.284 -7.807)" fill="#ef54a1" stroke="#ef54a1" stroke-miterlimit="10" stroke-width="0.3" fill-rule="evenodd"/>
        <path id="路径_39872" data-name="路径 39872" d="M670.813,1477.38c-.753-.347-1.056-1.171-1.433-1.848-.344-.094-.384.33-.441.563a2.594,2.594,0,0,0,.829,2.633,1.281,1.281,0,0,0,1.5-.158.881.881,0,0,0,.2-.659C671.455,1477.57,671.037,1477.54,670.813,1477.38Zm.174.876c-.3.087-.647.25-.943.044a1.886,1.886,0,0,1-.7-1.92,2.5,2.5,0,0,0,1.682,1.61c-.013.06-.026.2-.039.26Z" transform="translate(-2.624 -7.684)" fill="#ef54a1" stroke="#ef54a1" stroke-miterlimit="10" stroke-width="0.3" fill-rule="evenodd"/>
        <path id="路径_39873" data-name="路径 39873" d="M686.769,1484.4a6.808,6.808,0,0,0-2.389-3.053,5.156,5.156,0,0,0-2.1-.784,3.381,3.381,0,0,0-1.392.146l-.2.173c.017-.45.372-.778.525-1.181a6.218,6.218,0,0,0,2.209-1.581,4.855,4.855,0,0,0,.349-3.566,8.746,8.746,0,0,1-.39-1.171,21.286,21.286,0,0,0,.5-2.861c.034-.907.108-1.813.1-2.722a10.2,10.2,0,0,0-.853-3.286,5.465,5.465,0,0,0,.544-2.128c.082-1.579-.191-1.436-.891-.508a3.969,3.969,0,0,1-.81.8,9.976,9.976,0,0,0-3.477-2.517c-.775-.28-1.575-.475-2.37-.685a15.068,15.068,0,0,0-2.628-.108,10.529,10.529,0,0,0-3.768,1.176,8.57,8.57,0,0,0-2.812,2.266,1.656,1.656,0,0,1-.96-1.094c-.266-.688-.392-.714-.558.076a4.794,4.794,0,0,0,.212,3.134,5.774,5.774,0,0,1-.318,1.118,23.382,23.382,0,0,0-.644,4.614c.03.563.081,1.124.059,1.688a17.614,17.614,0,0,0-.937,1.927,6.75,6.75,0,0,0,.292,5.4c.165.34.2.728.364,1.068a1.774,1.774,0,0,0,2.267.973c.2-.044.4-.247.6-.167a17.741,17.741,0,0,0,2,3.306,7.8,7.8,0,0,0,2.873,2.6,8.054,8.054,0,0,0,4.062.2,13.39,13.39,0,0,0,3.307-1.527c1.185-.707,2.329-1.756,3.8-1.714,1,.006,1.838.869,2.788.98C687.058,1485.5,687.056,1485.08,686.769,1484.4Zm-3.55-22.3a4.3,4.3,0,0,1-.954,2.753,1.146,1.146,0,0,1-.992-1.174,4.11,4.11,0,0,0,1.946-1.569Zm-17.525.42a11.4,11.4,0,0,0,.841.773c-.227.346-.435.7-.667,1.046a5.159,5.159,0,0,1-.173-1.809Zm.841,18.709a1.494,1.494,0,0,1-1.742-1.693,3.241,3.241,0,0,1-.75-1.662,7.966,7.966,0,0,1,.8-4.1c.179.981.353,1.965.626,2.925a11.063,11.063,0,0,0,.394,1.732c1.505-.2,1.926,2.209.668,2.8Zm17.077,2.549a4.584,4.584,0,0,0-2.848.719,21.166,21.166,0,0,1-4.681,2.457,6.181,6.181,0,0,1-3.2-.012,9.823,9.823,0,0,1-3.872-3.781c-.432-.741-.808-1.514-1.223-2.263a2.349,2.349,0,0,0-.144-2.389,2.011,2.011,0,0,0-1.067-.708,29.036,29.036,0,0,1-1.187-5.938,16.855,16.855,0,0,1,1.313-7.589,9.338,9.338,0,0,1,8.049-4.218,8.178,8.178,0,0,1,6.607,3.066c-1.1.555-.176,2.484.975,2.17a2.085,2.085,0,0,1,.409-.155,8.671,8.671,0,0,1,.554,2.683,12.571,12.571,0,0,1-.436,4.535c-.187.53-.453,1.172-.08,1.685a3.742,3.742,0,0,1-.155,4.054,4.82,4.82,0,0,1-2.185,1.276,10.294,10.294,0,0,1-2.886.523,1.952,1.952,0,0,0-.156-1.581,4.833,4.833,0,0,0,2.657-1.9c.191-.167-.113-.612-.26-.3a4.469,4.469,0,0,1-3.091,1.591c-.548-.135-1.19-.391-1.7-.009a1.847,1.847,0,0,0,.069,3.175,1.794,1.794,0,0,0,2.225-.535,10.812,10.812,0,0,0,2.838-.28,1.984,1.984,0,0,0-.351,1.532c.8-.042,1.537-.5,2.352-.335a5.128,5.128,0,0,1,3.994,3.485c-.906-.156-1.564-.966-2.518-.956Zm-6.438-4.389c-.01.7-.759,1.055-1.36,1.118a1.821,1.821,0,0,1-.959-.446,1.551,1.551,0,0,1,.379-1.844,1.335,1.335,0,0,1,1.941,1.183Z" fill="#ef54a1" stroke="#ef54a1" stroke-miterlimit="10" stroke-width="0.5" fill-rule="evenodd"/>
      </g>
    </g>
  </g>
</svg>
