<svg xmlns="http://www.w3.org/2000/svg" width="64" height="64" viewBox="0 0 64 64">
  <g id="Task任务管理系统" transform="translate(-56.125 -466.125)">
    <path id="路径_39151" data-name="路径 39151" d="M114.888,466.125H61.362a5.244,5.244,0,0,0-5.237,5.237v53.525a5.244,5.244,0,0,0,5.237,5.237h53.525a5.244,5.244,0,0,0,5.237-5.237V471.362A5.244,5.244,0,0,0,114.888,466.125ZM94.663,528.214h-33.3a3.33,3.33,0,0,1-3.326-3.326v-15.1H94.663Zm0-20.34H58.036v-19.5H94.663Zm0-21.409H58.036v-15.1a3.33,3.33,0,0,1,3.326-3.326h33.3Zm23.551,38.423a3.33,3.33,0,0,1-3.326,3.326H96.574V468.036h18.314a3.33,3.33,0,0,1,3.326,3.326Z" fill="#ef54a1"/>
    <path id="路径_39152" data-name="路径 39152" d="M103.747,485.645h11.776a.957.957,0,0,0,.955-.956v-4.167h-1.911v3.211H104.7V473.87h3.211v-1.912h-4.168a.957.957,0,0,0-.955.956v11.775A.957.957,0,0,0,103.747,485.645Z" transform="translate(-3.847 -0.481)" fill="#ef54a1"/>
    <path id="路径_39153" data-name="路径 39153" d="M108.037,476.634l-1.352,1.351,3.131,3.13a.976.976,0,0,0,1.352,0l7.412-7.411-1.352-1.352-6.737,6.736Z" transform="translate(-4.168 -0.513)" fill="#ef54a1"/>
    <path id="路径_39154" data-name="路径 39154" d="M104.7,494.87h3.211v-1.912h-4.168a.957.957,0,0,0-.955.956v11.775a.957.957,0,0,0,.955.956h11.776a.957.957,0,0,0,.955-.956v-4.167h-1.911v3.211H104.7Z" transform="translate(-3.847 -2.212)" fill="#ef54a1"/>
    <path id="路径_39155" data-name="路径 39155" d="M108.037,497.634l-1.352,1.351,3.131,3.13a.976.976,0,0,0,1.352,0l7.412-7.411-1.352-1.352-6.737,6.736Z" transform="translate(-4.168 -2.245)" fill="#ef54a1"/>
    <path id="路径_39156" data-name="路径 39156" d="M115.523,515.125H103.747a.957.957,0,0,0-.955.956v11.775a.957.957,0,0,0,.955.956h11.776a.957.957,0,0,0,.955-.956V516.081A.957.957,0,0,0,115.523,515.125Zm-.956,11.775H104.7v-9.864h9.864Z" transform="translate(-3.847 -4.039)" fill="#ef54a1"/>
    <rect id="矩形_2365" data-name="矩形 2365" width="13.687" height="1.911" transform="translate(60.407 475.759)" fill="#ef54a1"/>
    <rect id="矩形_2366" data-name="矩形 2366" width="13.687" height="1.912" transform="translate(67.901 497.169)" fill="#ef54a1"/>
    <rect id="矩形_2367" data-name="矩形 2367" width="13.687" height="1.911" transform="translate(78.605 517.508)" fill="#ef54a1"/>
  </g>
</svg>
