<svg xmlns="http://www.w3.org/2000/svg" width="68" height="61.164" viewBox="0 0 68 61.164">
  <g id="代理聊天" transform="translate(-160 -575.418)">
    <path id="路径_39160" data-name="路径 39160" d="M181.758,622.642l-1.385-.591L181.455,621a8.707,8.707,0,1,0-12.113-.015l1.083,1.054-1.393.585a14.215,14.215,0,0,0-9.032,12.9,1.051,1.051,0,0,0,2.1,0c0-6.658,5.968-12.074,13.3-12.074,7.261,0,13.168,5.416,13.168,12.074a1.051,1.051,0,0,0,2.1,0A14.213,14.213,0,0,0,181.758,622.642Zm-6.352-1.287a6.6,6.6,0,1,1,6.606-6.6A6.612,6.612,0,0,1,175.406,621.355Z" fill="#ef54a1"/>
    <path id="路径_39161" data-name="路径 39161" d="M198.375,605.957a1.052,1.052,0,0,0,1.051-1.051c0-6.658,5.907-12.074,13.168-12.074,7.336,0,13.3,5.416,13.3,12.074a1.051,1.051,0,0,0,2.1,0,14.215,14.215,0,0,0-9.032-12.9l-1.393-.585,1.083-1.054a8.707,8.707,0,1,0-12.113.015l1.082,1.048-1.385.591a14.213,14.213,0,0,0-8.918,12.889A1.052,1.052,0,0,0,198.375,605.957Zm7.613-21.832a6.605,6.605,0,1,1,6.606,6.6A6.613,6.613,0,0,1,205.988,584.125Z" fill="#ef54a1"/>
    <path id="路径_39162" data-name="路径 39162" d="M167.613,599.4h19.961a3.105,3.105,0,0,0,3.1-3.1v-4.512a1,1,0,0,1,.29-.7c.077-.079.68-.732,5.163-5.828a3.334,3.334,0,0,0,1.057-3.378,3.083,3.083,0,0,0-2.5-2.06l-.1-.023c-.08-.006-.517-.008-1.733-.008l-4.274,0c-3.913,0-10.347.01-20.967.01a3.105,3.105,0,0,0-3.1,3.1v13.4A3.105,3.105,0,0,0,167.613,599.4Zm-1-16.5a1,1,0,0,1,1-1l26.479,0a1,1,0,0,1,.712,1.7c-.012.011-1.222,1.244-5.18,5.7a3.506,3.506,0,0,0-1.05,2.477v4.512a1,1,0,0,1-1,1H167.613a1,1,0,0,1-1-1Z" fill="#ef54a1"/>
    <path id="路径_39163" data-name="路径 39163" d="M209.1,623.435a1.032,1.032,0,0,0,.8-.159,1.049,1.049,0,1,0-.8.159Z" fill="#ef54a1"/>
    <path id="路径_39164" data-name="路径 39164" d="M217.874,623.437a1.013,1.013,0,0,0,1.058-.441,1.046,1.046,0,0,0,0-1.176,1.031,1.031,0,0,0-1.086-.442,1.049,1.049,0,0,0,.028,2.059Z" fill="#ef54a1"/>
    <path id="路径_39165" data-name="路径 39165" d="M224.9,612.6c-12.122,0-19.584,0-24.187-.007-5.361-.005-7-.006-7.323.008-.021.005-.046.011-.076.016a3.087,3.087,0,0,0-2.5,2.062,3.292,3.292,0,0,0,1.013,3.331c4.527,5.142,5.13,5.8,5.207,5.875a1,1,0,0,1,.29.7V629.1a3.106,3.106,0,0,0,3.1,3.1H224.9a3.105,3.105,0,0,0,3.1-3.1v-13.4A3.105,3.105,0,0,0,224.9,612.6Zm1,16.5a1,1,0,0,1-1,1H200.426a1,1,0,0,1-1-1v-4.511a3.482,3.482,0,0,0-1.021-2.448c-3.987-4.49-5.2-5.722-5.209-5.734a1,1,0,0,1,.712-1.7l30.99,0a1,1,0,0,1,1,1Z" fill="#ef54a1"/>
  </g>
</svg>
