<svg xmlns="http://www.w3.org/2000/svg" width="71.794" height="59.908" viewBox="0 0 71.794 59.908">
  <g id="智能客服机器人" transform="translate(-179.54 -259.909)">
    <path id="路径_908" data-name="路径 908" d="M206.583,314.479a5.782,5.782,0,1,0,5.781,5.782A5.789,5.789,0,0,0,206.583,314.479Zm0,10.395a4.613,4.613,0,1,1,4.613-4.612A4.618,4.618,0,0,1,206.583,324.874Z" transform="translate(-8.316 -21.501)" fill="#19d9b4" stroke="#19d9b4" stroke-width="0.5"/>
    <path id="路径_909" data-name="路径 909" d="M253.527,314.479a5.782,5.782,0,1,0,5.782,5.782A5.789,5.789,0,0,0,253.527,314.479Zm0,10.395a4.613,4.613,0,1,1,4.614-4.612A4.618,4.618,0,0,1,253.527,324.874Z" transform="translate(-26.898 -21.501)" fill="#19d9b4" stroke="#19d9b4" stroke-width="0.5"/>
    <path id="路径_910" data-name="路径 910" d="M236.631,339.527a.579.579,0,0,0-.446.037h0a12.175,12.175,0,0,1-11.6,0,.567.567,0,0,0-.258-.062.585.585,0,0,0-.258,1.109,13.467,13.467,0,0,0,12.653,0,.576.576,0,0,0,.289-.34.586.586,0,0,0-.037-.448A.576.576,0,0,0,236.631,339.527Z" transform="translate(-17.396 -31.404)" fill="#19d9b4" stroke="#19d9b4" stroke-width="0.5"/>
    <path id="路径_911" data-name="路径 911" d="M250.5,260.159H219.6a.584.584,0,0,0-.584.584v12.49h-5.963V265.5a.584.584,0,1,0-1.169,0v7.735H199.273a13.556,13.556,0,0,0-13.541,13.54v4.618l-.451.118a7.319,7.319,0,0,0,0,14.175l.451.118v5.6a8.17,8.17,0,0,0,8.16,8.161h38.334a8.17,8.17,0,0,0,8.16-8.161v-5.772l.4-.144a7.255,7.255,0,0,0,4.841-6.891,7.365,7.365,0,0,0-4.843-6.883l-.4-.146v-4.8a13.539,13.539,0,0,0-1.785-6.714l-.517-.9H250.5a.585.585,0,0,0,.584-.584V260.743A.585.585,0,0,0,250.5,260.159Zm-64.768,44.528-.822-.318a6.183,6.183,0,0,1,0-11.532l.823-.32Zm54.655-11.975.9.507a6.149,6.149,0,0,1,0,10.759l-.9.51Zm-1.169-5.939-.015,18.3a.624.624,0,0,0-.014.21l.03.2v5.922a7,7,0,0,1-6.991,6.992H193.892a7,7,0,0,1-6.991-6.992V286.773A12.386,12.386,0,0,1,199.273,274.4h19.739v4.17a.585.585,0,0,0,.584.584h6.547v5.9a.589.589,0,0,0,.376.546.6.6,0,0,0,.644-.155l5.639-6.289h3.989l.173.465a.616.616,0,0,0,.023.065A12.294,12.294,0,0,1,239.218,286.773Zm10.7-8.787H232.541a.587.587,0,0,0-.436.194l-4.792,5.346v-4.955a.586.586,0,0,0-.585-.585h-6.547V261.328h29.734Z" transform="translate(0)" fill="#19d9b4" stroke="#19d9b4" stroke-width="0.5"/>
    <path id="路径_912" data-name="路径 912" d="M254.217,271.054h6.868a.585.585,0,0,0,0-1.17h-6.868a.585.585,0,0,0,0,1.17Z" transform="translate(-29.228 -3.849)" fill="#19d9b4" stroke="#19d9b4" stroke-width="0.5"/>
    <path id="路径_913" data-name="路径 913" d="M274.974,279.72H254.217a.585.585,0,0,0,0,1.17h20.756a.585.585,0,0,0,0-1.17Z" transform="translate(-29.228 -7.742)" fill="#19d9b4" stroke="#19d9b4" stroke-width="0.5"/>
  </g>
</svg>
