<svg xmlns="http://www.w3.org/2000/svg" width="69.5" height="69.5" viewBox="0 0 69.5 69.5">
  <g id="机器人工厂" transform="translate(-59.25 -578.25)">
    <path id="路径_39166" data-name="路径 39166" d="M119.968,618.9h-3.637v-3.638a5.4,5.4,0,0,0-5.4-5.4h-5.895v-3.637a.88.88,0,0,0-.88-.879H94.879v-2.862l.187-.048a4.266,4.266,0,1,0-2.132,0l.187.048v2.862H83.839a.88.88,0,0,0-.88.879v3.637H77.064a5.4,5.4,0,0,0-5.4,5.4V618.9H68.032a3.14,3.14,0,0,0-3.137,3.136v13.549a3.14,3.14,0,0,0,3.137,3.137h3.637v3.636a5.4,5.4,0,0,0,5.4,5.4h33.872a5.4,5.4,0,0,0,5.4-5.4v-3.636h3.637a3.14,3.14,0,0,0,3.137-3.137V622.032A3.14,3.14,0,0,0,119.968,618.9Zm-48.3,18.064H68.032a1.38,1.38,0,0,1-1.379-1.379V622.032a1.38,1.38,0,0,1,1.379-1.379h3.637Zm19.823-38.638A2.508,2.508,0,1,1,94,600.831,2.511,2.511,0,0,1,91.492,598.322ZM84.718,607.1h18.564v2.759H84.718Zm29.855,35.25a3.642,3.642,0,0,1-3.637,3.638H77.064a3.642,3.642,0,0,1-3.637-3.638v-27.1a3.642,3.642,0,0,1,3.637-3.637h33.872a3.642,3.642,0,0,1,3.637,3.637Zm6.774-6.773a1.38,1.38,0,0,1-1.379,1.379h-3.637V620.653h3.637a1.38,1.38,0,0,1,1.379,1.379Z" fill="#6287de"/>
    <path id="路径_39167" data-name="路径 39167" d="M104.161,630.186H83.839a.88.88,0,0,0-.88.878v1.129a11.041,11.041,0,0,0,22.082,0v-1.129A.88.88,0,0,0,104.161,630.186Zm-.879,2.007a9.282,9.282,0,1,1-18.564,0v-.25h18.564Z" fill="#6287de"/>
    <path id="路径_39168" data-name="路径 39168" d="M86.976,623.161a4.266,4.266,0,1,0-4.267,4.267A4.271,4.271,0,0,0,86.976,623.161Zm-4.267,2.508a2.508,2.508,0,1,1,2.509-2.508A2.511,2.511,0,0,1,82.709,625.669Z" fill="#6287de"/>
    <path id="路径_39169" data-name="路径 39169" d="M105.291,618.9a4.266,4.266,0,1,0,4.266,4.265A4.271,4.271,0,0,0,105.291,618.9Zm0,6.773a2.508,2.508,0,1,1,2.507-2.508A2.511,2.511,0,0,1,105.291,625.669Z" fill="#6287de"/>
    <path id="路径_39170" data-name="路径 39170" d="M76.443,602.331a.892.892,0,0,0,.959.19.875.875,0,0,0,.541-.811v-3.638h7.025a3.14,3.14,0,0,0,3.137-3.136V581.387a3.14,3.14,0,0,0-3.137-3.137H62.387a3.14,3.14,0,0,0-3.137,3.137v13.549a3.14,3.14,0,0,0,3.137,3.136h9.8Zm-15.435-7.4V581.387a1.38,1.38,0,0,1,1.379-1.379H84.968a1.38,1.38,0,0,1,1.379,1.379v13.549a1.38,1.38,0,0,1-1.379,1.378h-7.9a.88.88,0,0,0-.878.879v2.4l-3.016-3.016a.874.874,0,0,0-.622-.258H62.387A1.38,1.38,0,0,1,61.008,594.936Z" fill="#6287de"/>
    <path id="路径_39171" data-name="路径 39171" d="M125.613,582.767H103.032a3.14,3.14,0,0,0-3.137,3.136v13.548a3.14,3.14,0,0,0,3.137,3.138h7.025v3.637a.878.878,0,0,0,.542.812.9.9,0,0,0,.959-.19l4.257-4.259h9.8a3.14,3.14,0,0,0,3.137-3.138V585.9A3.14,3.14,0,0,0,125.613,582.767Zm1.379,16.684a1.381,1.381,0,0,1-1.379,1.38H115.452a.886.886,0,0,0-.622.257l-3.016,3.016V601.71a.88.88,0,0,0-.878-.879h-7.9a1.381,1.381,0,0,1-1.379-1.38V585.9a1.381,1.381,0,0,1,1.379-1.379h22.581a1.381,1.381,0,0,1,1.379,1.379Z" fill="#6287de"/>
    <rect id="矩形_2368" data-name="矩形 2368" width="15.306" height="1.758" transform="translate(66.024 587.282)" fill="#6287de"/>
    <rect id="矩形_2369" data-name="矩形 2369" width="15.306" height="1.758" transform="translate(106.669 591.799)" fill="#6287de"/>
  </g>
</svg>
