<svg xmlns="http://www.w3.org/2000/svg" width="70" height="70" viewBox="0 0 70 70">
  <g id="商品展示销售流程" transform="translate(-372 -265)">
    <path id="路径_39112" data-name="路径 39112" d="M433.492,265.342a1.167,1.167,0,0,0-.825-.342h-59.5A1.166,1.166,0,0,0,372,266.167v67.666A1.166,1.166,0,0,0,373.167,335h67.666A1.166,1.166,0,0,0,442,333.833v-59.5a1.165,1.165,0,0,0-.342-.825Zm-59.159,67.325V267.333h57.851l5.833,5.834h-4.184v-2.334H431.5v3.5a1.166,1.166,0,0,0,1.167,1.167h7v57.167Z" fill="#6287de"/>
    <path id="路径_39113" data-name="路径 39113" d="M429.167,276.667h-9.334a1.165,1.165,0,0,0-1.166,1.166v3.5H395.333v-3.5a1.165,1.165,0,0,0-1.166-1.166h-9.334a1.165,1.165,0,0,0-1.166,1.166v9.334a1.165,1.165,0,0,0,1.166,1.166h9.334a1.165,1.165,0,0,0,1.166-1.166v-3.5h23.334v3.5a1.165,1.165,0,0,0,1.166,1.166h3.5v7a3.5,3.5,0,0,1-3.5,3.5h-7v-3.5a1.165,1.165,0,0,0-1.166-1.166h-9.334a1.165,1.165,0,0,0-1.166,1.166v3.5h-7a5.84,5.84,0,0,0-5.834,5.834V310.5h-3.5a1.166,1.166,0,0,0-1.166,1.167V321a1.166,1.166,0,0,0,1.166,1.167h9.334A1.166,1.166,0,0,0,395.333,321v-3.5h23.334V321a1.166,1.166,0,0,0,1.166,1.167h9.334A1.166,1.166,0,0,0,430.333,321v-9.333a1.166,1.166,0,0,0-1.166-1.167h-9.334a1.166,1.166,0,0,0-1.166,1.167v3.5H395.333v-3.5a1.166,1.166,0,0,0-1.166-1.167h-3.5v-5.833a3.5,3.5,0,0,1,3.5-3.5h7v3.5a1.165,1.165,0,0,0,1.166,1.166h9.334a1.165,1.165,0,0,0,1.166-1.166v-3.5h7a5.84,5.84,0,0,0,5.834-5.834v-7h3.5a1.165,1.165,0,0,0,1.166-1.166v-9.334A1.165,1.165,0,0,0,429.167,276.667ZM393,286h-7v-7h7Zm28,26.833h7v7h-7Zm-28,7h-7v-7h7ZM410.5,303.5h-7v-7h7ZM428,286h-7v-7h7Z" fill="#6287de"/>
  </g>
</svg>
