<svg xmlns="http://www.w3.org/2000/svg" width="69.75" height="69.75" viewBox="0 0 69.75 69.75">
  <g id="OTC_场外交易" data-name="OTC 场外交易" transform="translate(-426.125 -360.125)">
    <path id="路径_39125" data-name="路径 39125" d="M461,378.189a15.682,15.682,0,1,0,15.682,15.682A15.7,15.7,0,0,0,461,378.189Zm0,29.355a13.674,13.674,0,1,1,13.674-13.673A13.688,13.688,0,0,1,461,407.544Z" fill="#ff7675"/>
    <path id="路径_39127" data-name="路径 39127" d="M457.738,375.682h2.008V365.646a5.527,5.527,0,0,0-5.52-5.521H431.645a5.527,5.527,0,0,0-5.52,5.521v43.907h2.008V368.907h29.605ZM428.133,366.9v-1.253a3.516,3.516,0,0,1,3.512-3.513h22.581a3.516,3.516,0,0,1,3.512,3.513V366.9Z" fill="#ff7675"/>
    <path id="路径_39128" data-name="路径 39128" d="M431.645,423.1h22.581a5.526,5.526,0,0,0,5.52-5.52v-5.52H426.125v5.52A5.526,5.526,0,0,0,431.645,423.1Zm-3.512-9.033h29.605v3.513a3.515,3.515,0,0,1-3.512,3.512H431.645a3.515,3.515,0,0,1-3.512-3.512Z" fill="#ff7675"/>
    <path id="路径_39129" data-name="路径 39129" d="M490.354,366.9h-22.58a5.526,5.526,0,0,0-5.52,5.52v3.263h31.613v40.644h2.008V372.419A5.527,5.527,0,0,0,490.354,366.9Zm3.513,6.775H464.262v-1.255a3.516,3.516,0,0,1,3.512-3.512h22.58a3.516,3.516,0,0,1,3.513,3.512Z" fill="#ff7675"/>
    <path id="路径_39130" data-name="路径 39130" d="M464.262,412.061h-2.008v12.293a5.527,5.527,0,0,0,5.52,5.521h22.58a5.528,5.528,0,0,0,5.521-5.521v-5.519H464.262Zm29.605,8.782v3.511a3.517,3.517,0,0,1-3.513,3.513h-22.58a3.517,3.517,0,0,1-3.512-3.513v-3.511Z" fill="#ff7675"/>
    <path id="路径_39131" data-name="路径 39131" d="M484.585,396.254h-5.4v2.008h3.387v7.653l9.034-12.044-9.034-12.045v7.653h-3.387v2.009h5.4v-3.638l4.515,6.021-4.515,6.021Z" fill="#ff7675"/>
    <path id="路径_39132" data-name="路径 39132" d="M437.416,391.488h5.4v-2.009h-3.387v-7.653l-9.033,12.045,9.033,12.044v-7.653h3.387v-2.008h-5.4v3.638l-4.515-6.021,4.515-6.021Z" fill="#ff7675"/>
    <path id="路径_39146" data-name="路径 39146" d="M139.152,407.487a3.635,3.635,0,0,0-1.287-2.751,4.352,4.352,0,0,0-1.955-.979l-.1-.022v-1.309a.9.9,0,0,0-1.8,0v1.221h-2.44v-1.221a.9.9,0,0,0-1.8,0v1.221h-3.725a.9.9,0,0,0,0,1.8h1.222V415.4h-1.222a.9.9,0,0,0,0,1.8h3.725v1.222a.9.9,0,0,0,1.8,0V417.2h2.44v1.222a.9.9,0,0,0,1.8,0v-1.306l.1-.021a4.386,4.386,0,0,0,1.955-.984,3.637,3.637,0,0,0,1.287-2.751,3.681,3.681,0,0,0-1.4-2.842l-.118-.1.118-.1A3.679,3.679,0,0,0,139.152,407.487Zm-2.474,7.276a2.659,2.659,0,0,1-1.765.639h-5.845v-4.075h5.845a2.668,2.668,0,0,1,1.764.636,1.79,1.79,0,0,1,0,2.8Zm0-5.876a2.672,2.672,0,0,1-1.765.635h-5.845v-4.075h5.845a2.66,2.66,0,0,1,1.765.64,1.791,1.791,0,0,1,0,2.8Z" transform="translate(328.449 -17)" fill="#ff7675"/>
  </g>
</svg>
