<svg xmlns="http://www.w3.org/2000/svg" width="62.65" height="69.75" viewBox="0 0 62.65 69.75">
  <g id="数字货币交易平台" transform="translate(-83.676 -381.125)">
    <path id="路径_39120" data-name="路径 39120" d="M100.986,405.845a1.145,1.145,0,0,1,.8-.336h5.585a1.146,1.146,0,0,1,1.132,1.137.9.9,0,1,0,1.8,0,2.94,2.94,0,0,0-2.933-2.937h-1.892v-1.218a.9.9,0,1,0-1.8,0v1.218h-1.893a2.945,2.945,0,0,0-2.936,2.937v1.806a2.947,2.947,0,0,0,2.936,2.937h5.585a1.146,1.146,0,0,1,1.133,1.136v1.806a1.137,1.137,0,0,1-1.133,1.133h-5.585a1.128,1.128,0,0,1-1.132-1.133.9.9,0,0,0-1.8,0,2.945,2.945,0,0,0,2.936,2.938h1.892v1.089a.9.9,0,1,0,1.8,0v-1.089h1.893a2.941,2.941,0,0,0,2.933-2.938v-1.806a2.936,2.936,0,0,0-2.933-2.936h-5.585a1.14,1.14,0,0,1-.8-.335,1.129,1.129,0,0,1-.332-.8v-1.806A1.139,1.139,0,0,1,100.986,405.845Z" fill="#19d9b4"/>
    <path id="路径_39121" data-name="路径 39121" d="M102.258,393.582H96.22a.9.9,0,1,0,0,1.8h6.038a.9.9,0,1,0,0-1.8Z" fill="#19d9b4"/>
    <path id="路径_39122" data-name="路径 39122" d="M113.21,431.768h3.582a.9.9,0,1,0,0-1.8H113.21a.9.9,0,1,0,0,1.8Z" fill="#19d9b4"/>
    <path id="路径_39123" data-name="路径 39123" d="M144.526,408.27a.9.9,0,1,0,1.8,0v-9.713a5.275,5.275,0,0,0-5.262-5.266H119.6v-3.219h5.136a1.484,1.484,0,0,0,1.592-1.592v-3.092a4.238,4.238,0,0,0-1.25-3.016,4.452,4.452,0,0,0-3.2-1.247H93.787a4.162,4.162,0,0,0-2.974,1.25,4.307,4.307,0,0,0-1.254,3.013v7.9h-.621a5.275,5.275,0,0,0-5.262,5.266v31.665a5.275,5.275,0,0,0,5.262,5.262h18.237l-1.8,8.619h-1.334a3.386,3.386,0,0,0,0,6.772h21.927a3.386,3.386,0,0,0,0-6.772h-1.337l-1.8-8.619h18.24a5.273,5.273,0,0,0,5.262-5.262v-17.3a.9.9,0,1,0-1.8,0V426.25H119.6V395.091h21.46a3.479,3.479,0,0,1,3.462,3.466ZM119.6,385.388a2.469,2.469,0,0,1,2.462-2.467h0a2.469,2.469,0,0,1,2.463,2.467v2.883H119.6Zm-28.245,0a2.454,2.454,0,0,1,.727-1.748,2.378,2.378,0,0,1,1.7-.722c5.455.04,11.01.027,16.382.013q4.1-.009,8.188-.013h.226l-.12.191a4.273,4.273,0,0,0-.655,2.279V426.25H91.359Zm-5.883,13.169a3.479,3.479,0,0,1,3.462-3.466h.621V426.25H85.476ZM125.965,445.9a1.586,1.586,0,0,1,0,3.172H104.037a1.586,1.586,0,0,1,0-3.172h8.643a.9.9,0,0,0,0-1.8h-5.472l1.8-8.619h11.977l1.8,8.619h-5.471a.9.9,0,0,0,0,1.8Zm18.56-17.851v2.171a3.472,3.472,0,0,1-3.462,3.462H88.938a3.474,3.474,0,0,1-3.462-3.462v-2.171Z" fill="#19d9b4"/>
    <path id="路径_39124" data-name="路径 39124" d="M139.152,407.487a3.635,3.635,0,0,0-1.287-2.751,4.352,4.352,0,0,0-1.955-.979l-.1-.022v-1.309a.9.9,0,0,0-1.8,0v1.221h-2.44v-1.221a.9.9,0,0,0-1.8,0v1.221h-3.725a.9.9,0,0,0,0,1.8h1.222V415.4h-1.222a.9.9,0,0,0,0,1.8h3.725v1.222a.9.9,0,0,0,1.8,0V417.2h2.44v1.222a.9.9,0,0,0,1.8,0v-1.306l.1-.021a4.386,4.386,0,0,0,1.955-.984,3.637,3.637,0,0,0,1.287-2.751,3.681,3.681,0,0,0-1.4-2.842l-.118-.1.118-.1A3.679,3.679,0,0,0,139.152,407.487Zm-2.474,7.276a2.659,2.659,0,0,1-1.765.639h-5.845v-4.075h5.845a2.668,2.668,0,0,1,1.764.636,1.79,1.79,0,0,1,0,2.8Zm0-5.876a2.672,2.672,0,0,1-1.765.635h-5.845v-4.075h5.845a2.66,2.66,0,0,1,1.765.64,1.791,1.791,0,0,1,0,2.8Z" fill="#19d9b4"/>
  </g>
</svg>
