<svg xmlns="http://www.w3.org/2000/svg" width="68.699" height="59.817" viewBox="0 0 68.699 59.817">
  <g id="线上和线下商家" transform="translate(-346.351 -370.791)">
    <path id="路径_39110" data-name="路径 39110" d="M395.433,404.075h-9.512a4.074,4.074,0,0,0-4.07,4.07v7.294a4.074,4.074,0,0,0,4.07,4.07h9.512a4.073,4.073,0,0,0,4.069-4.07v-7.294A4.073,4.073,0,0,0,395.433,404.075Zm1.937,11.364a1.939,1.939,0,0,1-1.937,1.938h-9.512a1.94,1.94,0,0,1-1.938-1.938v-7.294a1.94,1.94,0,0,1,1.938-1.938h9.512a1.939,1.939,0,0,1,1.937,1.938Z" fill="#ef54a1"/>
    <path id="路径_39111" data-name="路径 39111" d="M414.917,389.664l-10.424-18.329a1.079,1.079,0,0,0-.922-.544H357.814a1.05,1.05,0,0,0-.918.537l-10.4,18.316a1.054,1.054,0,0,0-.143.522,9.4,9.4,0,0,0,5.619,8.588l.387.171v30.617a1.068,1.068,0,0,0,1.067,1.066h54.538a1.067,1.067,0,0,0,1.066-1.066V399.563l-.127-.482.485-.291a9.433,9.433,0,0,0,5.664-8.624A.929.929,0,0,0,414.917,389.664ZM349.7,388.332l8.736-15.394h44.509l.044.076,8.834,15.543h-62.25Zm46.591,2.342-.135.764a7.246,7.246,0,0,1-14.266,0l-.135-.764Zm-16.635,0-.135.764a7.255,7.255,0,0,1-14.281,0l-.138-.765Zm-31.051.764-.134-.764h14.55l-.134.764a7.255,7.255,0,0,1-14.282,0ZM375.2,428.477H364.016V409.3a3.1,3.1,0,0,1,3.1-3.1H372.1a3.1,3.1,0,0,1,3.1,3.1Zm31.7,0H377.317V409.3a5.234,5.234,0,0,0-5.227-5.229H367.1a5.235,5.235,0,0,0-5.229,5.229v19.187h-7.38v-29l.7.051a5.249,5.249,0,0,0,.552.013,9.379,9.379,0,0,0,7.787-4.148l.539-.8.539.8a9.38,9.38,0,0,0,15.572,0l.541-.8.536.8a9.354,9.354,0,0,0,15.543,0l.539-.8.539.8a9.375,9.375,0,0,0,7.785,4.148c.073,0,.144,0,.215-.005l.055,0c.1,0,.208-.008.316-.008h.651Zm5.911-37.023a7.256,7.256,0,0,1-14.282,0l-.134-.764h14.554Z" fill="#ef54a1"/>
  </g>
</svg>
