<svg xmlns="http://www.w3.org/2000/svg" width="69.75" height="69.75" viewBox="0 0 69.75 69.75">
  <g id="支付功能" transform="translate(-363.125 -472.125)">
    <path id="路径_39140" data-name="路径 39140" d="M378.807,496.964a15.681,15.681,0,1,0,15.681,15.682A15.7,15.7,0,0,0,378.807,496.964Zm0,29.354a13.673,13.673,0,1,1,13.672-13.672A13.688,13.688,0,0,1,378.807,526.318Z" fill="#ef54a1"/>
    <path id="路径_39141" data-name="路径 39141" d="M379.922,503.8l-.111-.013v-2.3H377.8v2.3l-.112.013a4.942,4.942,0,0,0,.551,9.854h1.129a2.948,2.948,0,0,1,0,5.9h-1.129a2.951,2.951,0,0,1-2.948-2.947v-.44h-2.008v.44a4.94,4.94,0,0,0,4.4,4.9l.112.013v2.3h2.008v-2.3l.111-.013a4.942,4.942,0,0,0-.551-9.854h-1.129a2.948,2.948,0,1,1,0-5.9h1.129a2.95,2.95,0,0,1,2.947,2.947v.44h2.008v-.44A4.937,4.937,0,0,0,379.922,503.8Z" fill="#ef54a1"/>
    <path id="路径_39142" data-name="路径 39142" d="M416.189,483.165H418.2v-5.519a5.526,5.526,0,0,0-5.519-5.521H383.322a5.526,5.526,0,0,0-5.519,5.521v16.81h2.008V480.907h36.378ZM379.811,478.9v-1.253a3.516,3.516,0,0,1,3.511-3.513h29.356a3.516,3.516,0,0,1,3.511,3.513V478.9Z" fill="#ef54a1"/>
    <path id="路径_39143" data-name="路径 39143" d="M383.322,541.875h29.356a5.526,5.526,0,0,0,5.519-5.521v-5.519H377.8v5.519A5.526,5.526,0,0,0,383.322,541.875Zm-3.511-9.032h36.378v3.511a3.516,3.516,0,0,1-3.511,3.513H383.322a3.516,3.516,0,0,1-3.511-3.513Z" fill="#ef54a1"/>
    <path id="路径_39144" data-name="路径 39144" d="M429.613,485.674h-36.13a3.265,3.265,0,0,0-3.261,3.262v10.036h40.645v12.545a1.255,1.255,0,0,1-1.254,1.254H397v2.007h32.617a3.265,3.265,0,0,0,3.262-3.261V488.936A3.265,3.265,0,0,0,429.613,485.674Zm1.254,11.29H392.229V492.2h38.638Zm0-6.775H392.229v-1.253a1.255,1.255,0,0,1,1.254-1.254h36.13a1.255,1.255,0,0,1,1.254,1.254Z" fill="#ef54a1"/>
    <path id="路径_39145" data-name="路径 39145" d="M420.581,508.637l.094.108a4.392,4.392,0,1,0,0-5.748l-.094.108-.094-.108a4.391,4.391,0,1,0,0,5.748Zm3.387-5.149a2.383,2.383,0,1,1-2.383,2.383A2.387,2.387,0,0,1,423.968,503.488Zm-6.775,4.766a2.383,2.383,0,1,1,2.383-2.383A2.385,2.385,0,0,1,417.193,508.254Z" fill="#ef54a1"/>
    <rect id="矩形_2364" data-name="矩形 2364" width="2.008" height="11.04" transform="translate(416.189 517.286)" fill="#ef54a1"/>
  </g>
</svg>
