<svg xmlns="http://www.w3.org/2000/svg" width="69.25" height="69.25" viewBox="0 0 69.25 69.25">
  <g id="货币兑换" transform="translate(-405.375 -101.375)">
    <path id="路径_39147" data-name="路径 39147" d="M411.66,151.168c-.028.02-.057.038-.085.061a1.143,1.143,0,0,0-.254.327l-2.918,5.833a1.089,1.089,0,0,0,.487,1.455,1.1,1.1,0,0,0,1.454-.484l1.529-3.059.291.843c1.925,5.574,6.8,11.539,14.706,11.564a1.083,1.083,0,1,0,.01-2.166c-7.09-.022-11.362-5.789-12.866-10.719l-.255-.835,3.881,1.939a1.084,1.084,0,1,0,.967-1.94l-5.833-2.917a1.074,1.074,0,0,0-.168-.061.978.978,0,0,0-.442-.044,1.145,1.145,0,0,0-.191.045l-.1.04-.3-.272.188.325Z" fill="#6287de"/>
    <path id="路径_39148" data-name="路径 39148" d="M453.12,106.455c7.089.022,11.363,5.788,12.868,10.719l.256.836-3.887-1.943a1.08,1.08,0,0,0-.477-.11,1.082,1.082,0,0,0-.49,2.051l5.98,2.966a1.171,1.171,0,0,0,.311.064h.035a1.1,1.1,0,0,0,.127-.01l.122-.029a1.126,1.126,0,0,0,.3-.116,1.39,1.39,0,0,0,.211-.17,1.236,1.236,0,0,0,.208-.285l2.914-5.826a1.084,1.084,0,1,0-1.941-.968l-1.527,3.055-.291-.842c-1.926-5.573-6.8-11.536-14.7-11.561a1.2,1.2,0,0,0-1.088,1.082A1.084,1.084,0,0,0,453.12,106.455Z" fill="#6287de"/>
    <path id="路径_39149" data-name="路径 39149" d="M451.715,135.72c3.569.456,6.16,2.413,6.16,4.655a1.083,1.083,0,0,0,2.167,0c0-3.483-3.538-6.36-8.412-6.839l-.338-.034v-1.877a1.083,1.083,0,0,0-2.167,0V133.5l-.338.034c-4.874.479-8.412,3.356-8.412,6.839s3.538,6.36,8.412,6.839l.338.034v9.5l-.423-.054c-3.569-.455-6.16-2.413-6.16-4.654a1.083,1.083,0,1,0-2.167,0c0,3.483,3.538,6.359,8.412,6.839l.338.033v1.878a1.083,1.083,0,0,0,2.167,0v-1.878l.338-.033c4.874-.48,8.412-3.356,8.412-6.839s-3.538-6.36-8.412-6.839l-.338-.034v-9.5Zm-2.59,9.363-.423-.053c-3.569-.455-6.16-2.413-6.16-4.655s2.591-4.2,6.16-4.655l.423-.053Zm2.59,2.3c3.569.455,6.16,2.413,6.16,4.655s-2.591,4.2-6.16,4.654l-.423.054v-9.417Z" fill="#6287de"/>
    <path id="路径_39150" data-name="路径 39150" d="M450.208,121.792c-.5,0-.993.02-1.485.049l-.373.023-.024-.373a21.5,21.5,0,1,0-22.836,22.835l.373.023-.022.373c-.029.492-.049.987-.049,1.486a24.417,24.417,0,1,0,24.416-24.416Zm-24.078,20.38-.33-.018A19.321,19.321,0,1,1,446.154,121.8l.019.331-.326.059a24.383,24.383,0,0,0-11.442,5.428l-.647.551.029-.85a5.483,5.483,0,0,0-1.849-4.163l-.318-.281.318-.281a5.446,5.446,0,0,0-.876-8.814l-.187-.109v-2.463a1.083,1.083,0,0,0-2.167,0v1.834h-3.666v-1.834a1.083,1.083,0,0,0-2.167,0v1.834h-1.833a1.084,1.084,0,0,0-1.084,1.083v17.5a1.084,1.084,0,0,0,1.084,1.083h1.833v1.834a1.083,1.083,0,0,0,2.167,0v-1.834h3.666l-.042,2.023a24.23,24.23,0,0,0-2.477,7.116Zm2.2-18.214a3.292,3.292,0,0,1,0,6.584h-6.208v-6.584Zm-6.208-2.166v-6.584h6.208a3.292,3.292,0,0,1,0,6.584Zm28.083,46.666a22.25,22.25,0,1,1,22.25-22.25A22.275,22.275,0,0,1,450.208,168.458Z" fill="#6287de"/>
  </g>
</svg>
