<svg xmlns="http://www.w3.org/2000/svg" width="69.5" height="69.5" viewBox="0 0 69.5 69.5">
  <g id="钱包" transform="translate(-429.25 -237.25)">
    <path id="路径_39133" data-name="路径 39133" d="M480.936,250.8a13.3,13.3,0,1,0,13.3,13.3A13.314,13.314,0,0,0,480.936,250.8Zm0,24.839a11.54,11.54,0,1,1,11.54-11.54A11.553,11.553,0,0,1,480.936,275.637Z" fill="#6287de"/>
    <path id="路径_39134" data-name="路径 39134" d="M481.814,257.6v-2.283h-1.757V257.6l-.214.031a3.692,3.692,0,0,0,.528,7.348H481.5a1.943,1.943,0,0,1,0,3.887h-1.129a1.946,1.946,0,0,1-1.943-1.944v-.314h-1.759v.314a3.713,3.713,0,0,0,3.174,3.647l.214.031v2.282h1.757V270.6l.214-.031a3.692,3.692,0,0,0-.528-7.348h-1.129a1.943,1.943,0,0,1,0-3.887H481.5a1.946,1.946,0,0,1,1.943,1.943v.315H485.2v-.315a3.712,3.712,0,0,0-3.173-3.646Z" fill="#6287de"/>
    <path id="路径_39135" data-name="路径 39135" d="M447.064,284.169a3.137,3.137,0,1,0-3.136-3.137A3.14,3.14,0,0,0,447.064,284.169Zm0-4.516a1.379,1.379,0,1,1-1.378,1.379A1.38,1.38,0,0,1,447.064,279.653Z" fill="#6287de"/>
    <path id="路径_39136" data-name="路径 39136" d="M496.992,287.807a3.641,3.641,0,0,1-3.638,3.636H468.517a3.641,3.641,0,0,1-3.638-3.636V272a5.4,5.4,0,0,0-5.4-5.395H434.646a5.4,5.4,0,0,0-5.4,5.395v29.354a5.4,5.4,0,0,0,5.4,5.4h33.871a5.4,5.4,0,0,0,5.394-5.4V293.2h19.443a5.4,5.4,0,0,0,5.4-5.394v-5.4H467.637v1.758h29.355ZM442.3,268.363h9.532v13.8a4.766,4.766,0,1,1-9.532,0Zm-7.653,36.629a3.642,3.642,0,0,1-3.638-3.638V272a3.642,3.642,0,0,1,3.638-3.637h5.894v13.8a6.524,6.524,0,1,0,13.049,0v-13.8h5.894A3.642,3.642,0,0,1,463.121,272v29.354a5.353,5.353,0,0,0,1.081,3.238l.3.4Zm37.507-3.638a3.637,3.637,0,1,1-7.274,0V291.79l.4.3a5.329,5.329,0,0,0,2.157,1l.2.041v8.1H469.4V293.2h2.757Z" fill="#6287de"/>
    <path id="路径_39137" data-name="路径 39137" d="M493.354,237.25H468.517a5.4,5.4,0,0,0-5.4,5.4v22.331h1.758V245.782h32.113v33.871h1.758V242.645A5.4,5.4,0,0,0,493.354,237.25Zm3.638,6.774H464.879v-1.379a3.642,3.642,0,0,1,3.638-3.637h24.837a3.642,3.642,0,0,1,3.638,3.637Z" fill="#6287de"/>
    <path id="路径_39138" data-name="路径 39138" d="M447.064,263.847a13.3,13.3,0,1,0-13.3-13.3A13.314,13.314,0,0,0,447.064,263.847Zm0-24.839a11.54,11.54,0,1,1-11.54,11.54A11.553,11.553,0,0,1,447.064,239.008Z" fill="#6287de"/>
    <path id="路径_39139" data-name="路径 39139" d="M446.186,257.049v2.282h1.757v-2.282l.214-.031a3.693,3.693,0,0,0-.528-7.349H446.5a1.944,1.944,0,0,1,0-3.887h1.129a1.946,1.946,0,0,1,1.943,1.944v.315h1.759v-.315a3.713,3.713,0,0,0-3.174-3.647l-.214-.031v-2.282h-1.757v2.282l-.214.031a3.692,3.692,0,0,0,.528,7.348h1.129a1.943,1.943,0,0,1,0,3.887H446.5a1.945,1.945,0,0,1-1.943-1.943v-.314H442.8v.314a3.713,3.713,0,0,0,3.173,3.647Z" fill="#6287de"/>
  </g>
</svg>
