<svg xmlns="http://www.w3.org/2000/svg" width="62.743" height="68.75" viewBox="0 0 62.743 68.75">
  <g id="红包" transform="translate(-187.078 -385.665)">
    <path id="路径_39117" data-name="路径 39117" d="M248.173,424.68h0a3.709,3.709,0,0,0-3.4-.5l-25.832,8.715a1.5,1.5,0,0,1-1.021-.012l-25.8-8.7a3.837,3.837,0,0,0-1.221-.2,3.775,3.775,0,0,0-2.178.711,4.076,4.076,0,0,0-1.645,3.274v22.465a3.93,3.93,0,0,0,3.854,3.993h55.035a3.93,3.93,0,0,0,3.854-3.993V427.957A4.021,4.021,0,0,0,248.173,424.68Zm-.644,25.742a1.707,1.707,0,0,1-1.632,1.77H190.863a1.707,1.707,0,0,1-1.632-1.77V427.957a1.752,1.752,0,0,1,.764-1.493l.105-.058a1.69,1.69,0,0,1,.8-.22,1.088,1.088,0,0,1,.513.106l25.729,8.676a3.7,3.7,0,0,0,2.408,0l25.838-8.717a1.631,1.631,0,0,1,1.409.231,1.75,1.75,0,0,1,.735,1.473Z" fill="#ef54a1"/>
    <path id="路径_39118" data-name="路径 39118" d="M196.7,421.915a1.1,1.1,0,0,0,1.111-1.111V389.658a1.707,1.707,0,0,1,1.632-1.77h37.987a1.707,1.707,0,0,1,1.631,1.77V420.8a1.111,1.111,0,1,0,2.222,0V389.658a3.929,3.929,0,0,0-3.853-3.993H199.439a3.93,3.93,0,0,0-3.854,3.993V420.8A1.1,1.1,0,0,0,196.7,421.915Z" fill="#ef54a1"/>
    <path id="路径_39119" data-name="路径 39119" d="M229.369,412.192a1.11,1.11,0,1,0,0-2.221H221.88L228,403.029a1.133,1.133,0,0,0,.267-.815,1.1,1.1,0,0,0-.378-.761,1.112,1.112,0,0,0-.825-.272,1.082,1.082,0,0,0-.758.377l-7.416,8.413h-.911l-7.41-8.407a1.122,1.122,0,1,0-1.7,1.471l6.113,6.936H207.46a1.11,1.11,0,1,0,0,2.221h9.861v5.765h-6.6a1.111,1.111,0,1,0,0,2.222h6.6v4.444a1.111,1.111,0,1,0,2.222,0v-4.444h6.633a1.112,1.112,0,0,0,1.11-1.112,1.1,1.1,0,0,0-1.11-1.11h-6.633v-5.765Z" fill="#ef54a1"/>
  </g>
</svg>
