<svg xmlns="http://www.w3.org/2000/svg" width="62.517" height="64" viewBox="0 0 62.517 64">
  <g id="加密聊天" transform="translate(-131.211 -255.271)">
    <path id="路径_39080" data-name="路径 39080" d="M192.766,287.185h0a.965.965,0,0,0-.961.964v12.2a5.777,5.777,0,0,1-5.771,5.771H168.149a.97.97,0,0,0-.429.1l-21.33,10.665v-9.806a.962.962,0,0,0-.962-.962h-6.523a5.777,5.777,0,0,1-5.771-5.771V264.587a5.777,5.777,0,0,1,5.771-5.771h28.433a.962.962,0,0,0,0-1.924H138.906a7.7,7.7,0,0,0-7.695,7.695v35.767a7.7,7.7,0,0,0,7.695,7.695h5.561v10.4a.961.961,0,0,0,1.391.858l22.522-11.259h17.655a7.7,7.7,0,0,0,7.695-7.695v-12.2a.963.963,0,0,0-.962-.965Z" transform="translate(0 -0.139)" fill="#ef54a1"/>
    <path id="路径_39081" data-name="路径 39081" d="M178.577,282.713a3.293,3.293,0,0,1-3.289-3.289v-11a3.293,3.293,0,0,1,3.289-3.29h15.544a3.293,3.293,0,0,1,3.29,3.29v11a3.293,3.293,0,0,1-3.29,3.289Zm0-15.74a1.458,1.458,0,0,0-1.455,1.454v11a1.459,1.459,0,0,0,1.455,1.455h15.544a1.457,1.457,0,0,0,1.456-1.455v-11a1.456,1.456,0,0,0-1.456-1.455Z" transform="translate(-3.778 -0.846)" fill="#ef54a1"/>
    <path id="路径_39082" data-name="路径 39082" d="M186.774,276.867a.918.918,0,0,1-.917-.917v-3.185a.917.917,0,0,1,1.834,0v3.184a.916.916,0,0,1-.917.918ZM191.5,265v-3.187a4.708,4.708,0,0,0-9.416,0V265h-1.834v-3.187a6.542,6.542,0,0,1,13.084,0V265Z" transform="translate(-4.203)" fill="#ef54a1"/>
    <path id="路径_39083" data-name="路径 39083" d="M187.218,274.5a1.7,1.7,0,1,1,1.7-1.7,1.7,1.7,0,0,1-1.7,1.7Z" transform="translate(-4.655 -1.357)" fill="#ef54a1"/>
    <g id="组_21828" data-name="组 21828" transform="translate(142.904 272.138)">
      <path id="路径_39084" data-name="路径 39084" d="M163.2,275.548H144.914a.914.914,0,1,1,0-1.829H163.2a.914.914,0,1,1,0,1.829Z" transform="translate(-144 -273.719)" fill="#ef54a1"/>
    </g>
    <g id="组_21829" data-name="组 21829" transform="translate(142.904 282.709)">
      <path id="路径_39085" data-name="路径 39085" d="M163.2,287.11H144.914a.914.914,0,1,1,0-1.829H163.2a.914.914,0,1,1,0,1.829Z" transform="translate(-144 -285.281)" fill="#ef54a1"/>
    </g>
    <g id="组_21830" data-name="组 21830" transform="translate(142.904 293.423)">
      <path id="路径_39086" data-name="路径 39086" d="M181.486,298.829H144.914a.914.914,0,1,1,0-1.829h36.572a.914.914,0,1,1,0,1.829Z" transform="translate(-144 -297)" fill="#ef54a1"/>
    </g>
  </g>
</svg>
