<svg xmlns="http://www.w3.org/2000/svg" width="68.5" height="57.291" viewBox="0 0 68.5 57.291">
  <g id="电台" transform="translate(-194.75 -326.354)">
    <path id="路径_39095" data-name="路径 39095" d="M212.594,374.895a8.957,8.957,0,1,0-8.957-8.957A8.968,8.968,0,0,0,212.594,374.895Zm0-15.313a6.355,6.355,0,1,1-6.356,6.356A6.363,6.363,0,0,1,212.594,359.582Z" fill="#19d9b4"/>
    <path id="路径_39096" data-name="路径 39096" d="M231.187,361.77h21.875a1.3,1.3,0,1,0,0-2.6H231.187a1.3,1.3,0,0,0,0,2.6Z" fill="#19d9b4"/>
    <path id="路径_39097" data-name="路径 39097" d="M231.187,372.707h21.875a1.3,1.3,0,1,0,0-2.6H231.187a1.3,1.3,0,0,0,0,2.6Z" fill="#19d9b4"/>
    <path id="路径_39098" data-name="路径 39098" d="M255.8,335.105l-1.553-.033L226.1,326.413a1.3,1.3,0,1,0-.765,2.486l20.169,6.206H202.2a7.462,7.462,0,0,0-7.453,7.454v33.632a7.462,7.462,0,0,0,7.453,7.454H255.8a7.462,7.462,0,0,0,7.453-7.454V342.559A7.462,7.462,0,0,0,255.8,335.105Zm4.851,41.086a4.857,4.857,0,0,1-4.851,4.852H202.2a4.857,4.857,0,0,1-4.851-4.852V350.832h63.3Zm0-27.961H213.9v-3.074a1.3,1.3,0,0,0-2.6,0v3.074H197.352v-5.671a4.857,4.857,0,0,1,4.851-4.852H255.8a4.857,4.857,0,0,1,4.851,4.852Z" fill="#19d9b4"/>
  </g>
</svg>
