<svg xmlns="http://www.w3.org/2000/svg" width="59.944" height="68.699" viewBox="0 0 59.944 68.699">
  <g id="万人群" transform="translate(-335.833 -262.456)">
    <path id="路径_39087" data-name="路径 39087" d="M358,304.173a7.807,7.807,0,1,0,7.806-7.807A7.814,7.814,0,0,0,358,304.173Zm14,0a6.191,6.191,0,1,1-6.192-6.191A6.2,6.2,0,0,1,372,304.173Z" fill="#6287de"/>
    <path id="路径_39088" data-name="路径 39088" d="M384.9,310.584h-2.546a11.171,11.171,0,0,0-9.434,5.376l-.325.533-.546-.3a9.5,9.5,0,0,0-5.056-1.23h-2.355a9.738,9.738,0,0,0-5.079,1.23l-.546.3-.325-.533a11.175,11.175,0,0,0-9.442-5.376h-2.4A11.016,11.016,0,0,0,335.833,321.6v4.813c0,.545.334,1.1.663,1.1h16.836v3.055c0,.583.844.59.88.59H377.4c.036,0,.88-.007.88-.59V327.51h16.836c.328,0,.662-.555.662-1.1v-4.666a11.026,11.026,0,0,0-10.875-11.16Zm-31.352,14.7-.042.605H337.45v-4.15a9.4,9.4,0,0,1,9.241-9.544l2.564,0a9.76,9.76,0,0,1,8.216,4.768l.277.47-.415.354A10.932,10.932,0,0,0,353.549,325.289Zm23.114,4.25H354.948v-2.983a9.937,9.937,0,0,1,9.67-9.983h2.354a9.947,9.947,0,0,1,9.691,9.983Zm17.5-3.645H378.1l-.042-.605a10.933,10.933,0,0,0-3.784-7.5l-.415-.354.277-.47a9.748,9.748,0,0,1,8.206-4.768h2.415a9.411,9.411,0,0,1,9.4,9.4Z" fill="#6287de"/>
    <path id="路径_39089" data-name="路径 39089" d="M383.6,292.283a7.807,7.807,0,1,0,7.807,7.807A7.816,7.816,0,0,0,383.6,292.283Zm0,14a6.192,6.192,0,1,1,6.191-6.192A6.2,6.2,0,0,1,383.6,306.282Z" fill="#6287de"/>
    <path id="路径_39090" data-name="路径 39090" d="M348.089,307.9a7.807,7.807,0,1,0-7.807-7.807A7.816,7.816,0,0,0,348.089,307.9Zm0-14a6.192,6.192,0,1,1-6.192,6.191A6.2,6.2,0,0,1,348.089,293.9Z" fill="#6287de"/>
    <path id="路径_39091" data-name="路径 39091" d="M342.475,285.952h6.483v3.275a.74.74,0,0,0,.386.667.654.654,0,0,0,.363.142.888.888,0,0,0,.4-.168l5.573-3.916H368.94a.639.639,0,0,0,.426-.216.66.66,0,0,0,.172-.477l-.008-.1v-5.04h8.148l6.9,7.276a.9.9,0,0,0,.642.308h.542a.8.8,0,0,0,.539-.708l0-6.875h2.838c.807,0,.807-.3.807-.516v-16.55a.617.617,0,0,0-.213-.428.675.675,0,0,0-.48-.169l-.1.007H355.89c-.459,0-1.1.224-1.1.589v2.327H342.475c-.536,0-.808.174-.808.516v19.248A.809.809,0,0,0,342.475,285.952Zm13.931-21.872h31.922V278.5H385.2c-.333,0-.516.65-.516,1.1V285l-5.929-6.109a1.318,1.318,0,0,0-.828-.388l-21.52,0ZM343.283,267h11.508V279.6c0,.5.986.516,1.1.516h12.024v4.217H355.453a.6.6,0,0,0-.385.139l-4.495,3.159v-2.49a.878.878,0,0,0-.878-.808h-6.412Z" fill="#6287de"/>
  </g>
</svg>
