<svg xmlns="http://www.w3.org/2000/svg" width="69.5" height="69.5" viewBox="0 0 69.5 69.5">
  <g id="直播" transform="translate(-235.25 -197.25)">
    <path id="路径_39092" data-name="路径 39092" d="M279.911,232.8v-1.926a2.011,2.011,0,0,0-2.008-2.008h-1.879l.12-.334a6.4,6.4,0,0,0,0-4.348l-.118-.334h18.814a3.142,3.142,0,0,0,3.137-3.138V200.387a3.141,3.141,0,0,0-3.137-3.137H249.677a3.14,3.14,0,0,0-3.136,3.137v16.056h-1.052a3.47,3.47,0,0,0-3.465,3.466v7.247a3.47,3.47,0,0,0,3.465,3.465h14.6V232.8l-.063.07L236.24,259.9a3.966,3.966,0,0,0-.99,2.621v.266a3.964,3.964,0,0,0,6.99,2.562l23.494-27.766v24.9a4.266,4.266,0,1,0,8.532,0v-24.9l23.494,27.766a3.964,3.964,0,0,0,6.99-2.561v-.266a3.97,3.97,0,0,0-.988-2.621Zm9.032-33.789h5.9a1.381,1.381,0,0,1,1.379,1.379v20.322a1.381,1.381,0,0,1-1.379,1.38h-5.9Zm-27.1,0h25.339v23.081H274.924l-.074-.083a6.495,6.495,0,0,0-9.7,0l-.074.083h-3.229Zm12.919,27.346A4.766,4.766,0,1,1,270,221.589,4.772,4.772,0,0,1,274.766,226.354ZM248.3,200.387a1.381,1.381,0,0,1,1.379-1.379h10.412v23.081H249.677a1.381,1.381,0,0,1-1.379-1.38Zm-2.809,28.476a1.709,1.709,0,0,1-1.707-1.708v-7.247a1.708,1.708,0,0,1,1.707-1.706h1.052v2.507a3.141,3.141,0,0,0,3.136,3.138h14.3l-.118.334a6.393,6.393,0,0,0,0,4.348l.118.334ZM240.9,264.211a2.206,2.206,0,0,1-3.89-1.425v-.266a2.2,2.2,0,0,1,.552-1.458L260.051,235.5l.126.438a2.014,2.014,0,0,0,1.92,1.457h1.492Zm31.61-1.728a2.508,2.508,0,1,1-5.016,0V237.4h5.016Zm-10.661-26.846v-5.016h3.229l.074.083a6.495,6.495,0,0,0,9.7,0l.074-.083h3.229v5.016Zm41.145,27.149a2.205,2.205,0,0,1-3.889,1.425L276.411,237.4H277.9a2.014,2.014,0,0,0,1.92-1.457l.126-.438,22.492,25.562a2.188,2.188,0,0,1,.551,1.456Z" fill="#ff7675"/>
    <path id="路径_39093" data-name="路径 39093" d="M253.064,217.073h2.259a2.011,2.011,0,0,0,2.008-2.009v-9.032a2.011,2.011,0,0,0-2.008-2.008h-2.259a2.01,2.01,0,0,0-2.007,2.008v9.032A2.011,2.011,0,0,0,253.064,217.073Zm-.25-11.291h2.759v9.532h-2.759Z" fill="#ff7675"/>
    <rect id="矩形_2362" data-name="矩形 2362" width="1.758" height="13.048" transform="translate(291.702 201.766)" fill="#ff7675"/>
    <rect id="矩形_2363" data-name="矩形 2363" width="1.758" height="1.758" transform="translate(291.702 217.573)" fill="#ff7675"/>
    <path id="路径_39094" data-name="路径 39094" d="M266.863,202.352v16.393l16.393-8.2Zm1.758,2.845,10.7,5.351-10.7,5.352Z" fill="#ff7675"/>
  </g>
</svg>
