<svg xmlns="http://www.w3.org/2000/svg" width="53.886" height="71.922" viewBox="0 0 53.886 71.922">
  <g id="头条" transform="translate(-158.228 -410.17)">
    <g id="产品-社群应用__头条" data-name="产品-社群应用 _头条" transform="translate(-756.672 276.27)">
      <path id="路径_1903" data-name="路径 1903" d="M955.518,182.993v16.878a5.1,5.1,0,0,1-5.1,5.1H920.85a5.1,5.1,0,0,1-5.1-5.1V139.85a5.1,5.1,0,0,1,5.1-5.1h29.567a5.1,5.1,0,0,1,5.1,5.1v8.895" fill="none" stroke="#6287de" stroke-linecap="round" stroke-miterlimit="10" stroke-width="1.7"/>
      <line id="直线_74" data-name="直线 74" x2="39.768" transform="translate(915.75 144.951)" fill="none" stroke="#6287de" stroke-linecap="round" stroke-miterlimit="10" stroke-width="1.7"/>
      <line id="直线_75" data-name="直线 75" x2="39.768" transform="translate(915.75 191.667)" fill="none" stroke="#6287de" stroke-linecap="round" stroke-miterlimit="10" stroke-width="1.7"/>
      <line id="直线_76" data-name="直线 76" x2="5.913" transform="translate(932.677 140.368)" fill="none" stroke="#6287de" stroke-linecap="round" stroke-miterlimit="10" stroke-width="1.7"/>
      <circle id="椭圆_62" data-name="椭圆 62" cx="2.932" cy="2.932" r="2.932" transform="translate(932.889 194.819)" fill="none" stroke="#6287de" stroke-linecap="round" stroke-miterlimit="10" stroke-width="1.7"/>
      <path id="路径_1904" data-name="路径 1904" d="M978,190.21H961.261l-3.491,6.206a.194.194,0,0,1-.338,0l-3.526-6.206h-4.731a2.55,2.55,0,0,1-2.55-2.55V169.55a2.55,2.55,0,0,1,2.55-2.55H978a2.55,2.55,0,0,1,2.55,2.55v18.11A2.55,2.55,0,0,1,978,190.21Z" transform="translate(-12.617 -13.179)" fill="none" stroke="#6287de" stroke-linecap="round" stroke-miterlimit="10" stroke-width="1.7"/>
      <line id="直线_77" data-name="直线 77" x2="18.972" transform="translate(941.671 162.149)" fill="none" stroke="#6287de" stroke-linecap="round" stroke-miterlimit="10" stroke-width="1.7"/>
      <line id="直线_78" data-name="直线 78" x2="13.946" transform="translate(941.671 167.126)" fill="none" stroke="#6287de" stroke-linecap="round" stroke-miterlimit="10" stroke-width="1.7"/>
    </g>
  </g>
</svg>
