<svg xmlns="http://www.w3.org/2000/svg" width="69.499" height="69.5" viewBox="0 0 69.499 69.5">
  <g id="社区" transform="translate(-37.25 -404.25)">
    <path id="路径_39101" data-name="路径 39101" d="M38.166,424.75H56.833a.918.918,0,0,0,.917-.917v-4.669a5.571,5.571,0,0,0-3.844-5.3l-.255-.083.1-.248a6.75,6.75,0,1,0-12.5,0l.1.248-.254.083a5.572,5.572,0,0,0-3.844,5.3v4.669A.917.917,0,0,0,38.166,424.75ZM47.5,406.083A4.923,4.923,0,0,1,52.416,411a4.867,4.867,0,0,1-.978,2.917,5.126,5.126,0,0,1-.738.787c-.043.037-.088.073-.133.109-.024.02-.047.041-.072.06h0c-.048.038-.1.074-.144.109-.085.064-.171.123-.261.18l-.017.01c-.111.069-.224.134-.34.194-.062.032-.126.064-.19.093h0c-.081.038-.163.074-.246.107a4.612,4.612,0,0,1-.752.233l-.108.02a4.993,4.993,0,0,1-.936.1,4.792,4.792,0,0,1-.892-.09l-.155-.028a4.786,4.786,0,0,1-.749-.233c-.084-.033-.167-.069-.248-.107a4.918,4.918,0,0,1-.548-.3,4.865,4.865,0,0,1-.405-.289c-.068-.054-.137-.11-.2-.169a5.149,5.149,0,0,1-.708-.756A4.86,4.86,0,0,1,42.583,411,4.923,4.923,0,0,1,47.5,406.083Zm-8.417,13.081a3.774,3.774,0,0,1,3.213-3.7l.132-.02.09.1a6.753,6.753,0,0,0,1.635,1.316c.188.108.372.2.56.287l-.018.268.1-.228c.164.072.334.134.5.194l.146.054c.157.05.319.09.481.129l.187.047c.164.036.332.058.5.08l.185.028a6.978,6.978,0,0,0,1.4,0l.179-.027c.169-.023.339-.045.506-.081l.183-.046c.162-.039.326-.08.485-.131l.141-.052h0c.169-.059.341-.122.507-.2l.057.059-.02-.077.143.2-.1-.222c.187-.087.371-.179.55-.282l.009-.005v0h0v0a6.728,6.728,0,0,0,.555-.381c.1-.075.217-.139.315-.219a6.829,6.829,0,0,0,.761-.723l.1-.115.154.044a3.758,3.758,0,0,1,3.184,3.7v3.753H39.083Z" fill="#6287de"/>
    <path id="路径_39102" data-name="路径 39102" d="M102.9,413.864l-.254-.083.1-.248a6.75,6.75,0,1,0-12.5,0l.1.248-.255.083a5.57,5.57,0,0,0-3.843,5.3v4.669a.917.917,0,0,0,.916.917h18.667a.917.917,0,0,0,.916-.917v-4.669A5.568,5.568,0,0,0,102.9,413.864Zm-6.4-7.781A4.923,4.923,0,0,1,101.416,411a4.861,4.861,0,0,1-.979,2.917l-.214-.136.171.183a4.9,4.9,0,0,1-.692.737c-.069.061-.138.117-.209.173a4.868,4.868,0,0,1-.4.285,4.93,4.93,0,0,1-.553.3c-.081.037-.162.072-.244.105a4.726,4.726,0,0,1-.754.235l-.1.017a5.025,5.025,0,0,1-.947.1,4.822,4.822,0,0,1-.895-.09c-.083-.014-.117-.019-.152-.027a4.836,4.836,0,0,1-.752-.235q-.123-.049-.243-.105a4.43,4.43,0,0,1-.952-.586c-.07-.054-.14-.112-.209-.172a5.138,5.138,0,0,1-.706-.754A4.863,4.863,0,0,1,91.583,411,4.923,4.923,0,0,1,96.5,406.083Zm8.416,16.834H88.083v-3.753a3.728,3.728,0,0,1,3.213-3.7l.132-.02.09.1a6.753,6.753,0,0,0,1.637,1.317c.185.107.368.2.557.286l-.017.269.1-.229c.166.073.336.136.509.2l.14.052c.16.051.323.091.486.13l.088.023c.032.009.064.018.1.024.163.035.332.058.5.08l.184.028a6.978,6.978,0,0,0,1.4,0l.181-.027c.168-.023.337-.045.5-.081l.184-.046c.162-.039.326-.08.485-.131l.141-.052c.174-.061.345-.123.51-.2l.183.189h0l-.1-.227q.252-.115.492-.248l.035-.07H99.9a6.755,6.755,0,0,0,1.586-1.288l.089-.1.132.019a3.765,3.765,0,0,1,3.211,3.708Z" fill="#6287de"/>
    <path id="路径_39103" data-name="路径 39103" d="M53.906,462.863l-.255-.083.1-.248a6.689,6.689,0,0,0,.5-2.532,6.75,6.75,0,1,0-13,2.532l.1.248-.254.083a5.572,5.572,0,0,0-3.844,5.3v4.669a.917.917,0,0,0,.916.917H56.833a.918.918,0,0,0,.917-.917v-4.669A5.574,5.574,0,0,0,53.906,462.863Zm-6.406-7.78A4.923,4.923,0,0,1,52.416,460a4.866,4.866,0,0,1-.978,2.916l-.043.046a4.951,4.951,0,0,1-.694.74q-.1.09-.207.171a4.455,4.455,0,0,1-.4.288,4.793,4.793,0,0,1-.55.3c-.078.036-.159.071-.242.105a4.85,4.85,0,0,1-.754.235l-.1.017a4.99,4.99,0,0,1-.945.1,4.812,4.812,0,0,1-.894-.09l-.148-.026a4.731,4.731,0,0,1-.756-.236c-.083-.033-.164-.068-.244-.105a4.774,4.774,0,0,1-.554-.3,4.9,4.9,0,0,1-.4-.286c-.068-.052-.138-.11-.206-.17a5.143,5.143,0,0,1-.708-.755A4.863,4.863,0,0,1,42.583,460,4.923,4.923,0,0,1,47.5,455.083Zm8.416,16.834H39.083v-3.753a3.774,3.774,0,0,1,3.213-3.7l.132-.02.09.1a6.753,6.753,0,0,0,1.635,1.316c.188.108.372.2.56.287l-.018.268.1-.228c.164.072.333.134.5.193l.147.055c.157.05.319.09.481.129l.187.047c.163.035.332.058.5.08l.185.028a6.978,6.978,0,0,0,1.4,0l.179-.027c.169-.023.339-.045.506-.081l.183-.046c.162-.039.326-.08.485-.131l.144-.053c.171-.059.341-.122.507-.2l.086-.041c.184-.084.37-.179.551-.283v0a6.916,6.916,0,0,0,1.642-1.323l.089-.1.131.019a3.765,3.765,0,0,1,3.211,3.708Z" fill="#6287de"/>
    <path id="路径_39104" data-name="路径 39104" d="M102.906,462.863l-.255-.083.1-.248a6.689,6.689,0,0,0,.5-2.532,6.75,6.75,0,0,0-13.5,0,6.688,6.688,0,0,0,.5,2.532l.1.248-.255.083a5.573,5.573,0,0,0-3.843,5.3v4.669a.917.917,0,0,0,.916.917h18.667a.917.917,0,0,0,.916-.917v-4.669A5.572,5.572,0,0,0,102.906,462.863Zm-6.406-7.78A4.923,4.923,0,0,1,101.416,460a4.863,4.863,0,0,1-.979,2.916l-.212-.136h0l.172.182a5.013,5.013,0,0,1-.7.74c-.068.06-.137.116-.207.171a4.54,4.54,0,0,1-.4.288,4.847,4.847,0,0,1-.549.3c-.079.036-.16.071-.242.105a4.938,4.938,0,0,1-.756.235l-.1.018a5.045,5.045,0,0,1-.944.1,4.812,4.812,0,0,1-.894-.09l-.148-.026a4.731,4.731,0,0,1-.756-.236c-.083-.033-.164-.068-.244-.105a4.774,4.774,0,0,1-.554-.3,4.544,4.544,0,0,1-.4-.287c-.067-.051-.136-.109-.2-.169a5.032,5.032,0,0,1-.708-.756A4.858,4.858,0,0,1,91.583,460,4.923,4.923,0,0,1,96.5,455.083Zm8.416,16.834H88.083v-3.753a3.774,3.774,0,0,1,3.213-3.7l.132-.02.09.1a6.753,6.753,0,0,0,1.637,1.317c.185.107.368.2.557.286l-.017.269.1-.229c.166.073.336.136.509.2l.14.052c.16.051.323.091.486.13l.088.023c.032.009.064.018.1.024.163.035.332.058.5.08l.184.028a6.978,6.978,0,0,0,1.4,0l.181-.027c.168-.023.338-.046.5-.081l.183-.046c.162-.039.326-.08.485-.131l.141-.052c.174-.061.345-.123.51-.2l.183.189h0l-.1-.227q.287-.131.557-.286a6.747,6.747,0,0,0,1.643-1.321l.089-.1.132.019a3.765,3.765,0,0,1,3.211,3.708Z" fill="#6287de"/>
    <path id="路径_39105" data-name="路径 39105" d="M86.351,459.68a.915.915,0,0,0,.565-.847V452.75h1.415a2.089,2.089,0,0,0,2.085-2.087V436.669a2.089,2.089,0,0,0-2.087-2.086H77.583v-4.914a2.089,2.089,0,0,0-2.087-2.086H54.5a2.089,2.089,0,0,0-2.086,2.086v13.995A2.089,2.089,0,0,0,54.5,445.75h1.414v6.084a.914.914,0,0,0,.567.846.931.931,0,0,0,1-.2l6.731-6.731H65.25v4.914a2.089,2.089,0,0,0,2.086,2.086H78.62l6.732,6.731A.933.933,0,0,0,86.351,459.68Zm-21.1-23.011v7.248H63.833a.918.918,0,0,0-.647.268L57.75,449.62v-4.787a.918.918,0,0,0-.917-.916l-2.583,0,0-14.5,21.5,0v5.164H67.335A2.088,2.088,0,0,0,65.25,436.669Zm19.833,15.164v4.787l-5.436-5.434a.915.915,0,0,0-.647-.269l-11.917,0V436.419h21.5l0,14.5H86A.917.917,0,0,0,85.083,451.833Z" fill="#6287de"/>
    <path id="路径_39106" data-name="路径 39106" d="M69.917,441.333a.917.917,0,0,0,.916.917h7a.917.917,0,1,0,0-1.833h-7A.917.917,0,0,0,69.917,441.333Z" fill="#6287de"/>
    <path id="路径_39107" data-name="路径 39107" d="M82.5,442.25h2.333a.917.917,0,1,0,0-1.833H82.5a.917.917,0,1,0,0,1.833Z" fill="#6287de"/>
    <path id="路径_39108" data-name="路径 39108" d="M84.833,445.083h-7a.917.917,0,0,0,0,1.834h7a.917.917,0,1,0,0-1.834Z" fill="#6287de"/>
    <path id="路径_39109" data-name="路径 39109" d="M73.166,445.083H70.833a.917.917,0,1,0,0,1.834h2.333a.917.917,0,1,0,0-1.834Z" fill="#6287de"/>
  </g>
</svg>
