<svg xmlns="http://www.w3.org/2000/svg" xmlns:xlink="http://www.w3.org/1999/xlink" width="21.405" height="12.42" viewBox="0 0 21.405 12.42">
  <defs>
    <linearGradient id="linear-gradient" x1="1.277" y1="1.963" x2="0.102" y2="0.208" gradientUnits="objectBoundingBox">
      <stop offset="0" stop-color="#2f30ea"/>
      <stop offset="1" stop-color="#f81a20"/>
    </linearGradient>
  </defs>
  <path id="_02" data-name="02" d="M5.325.42A4.258,4.258,0,0,0,8.97-1.35a7.878,7.878,0,0,0,1.11-4.44,10.088,10.088,0,0,0-.585-3.48,4.2,4.2,0,0,0-.99-1.515A4.357,4.357,0,0,0,5.34-12,4.265,4.265,0,0,0,1.515-9.915,8.832,8.832,0,0,0,.6-5.76a10.039,10.039,0,0,0,.585,3.45A4.2,4.2,0,0,0,2.175-.8,4.321,4.321,0,0,0,5.325.42ZM5.34-1.32A2.2,2.2,0,0,1,3.42-2.3a6.747,6.747,0,0,1-.765-3.57,5.6,5.6,0,0,1,.99-3.645,2.017,2.017,0,0,1,1.68-.765,2.168,2.168,0,0,1,1.635.63,5.817,5.817,0,0,1,1.05,3.84A5.78,5.78,0,0,1,6.96-1.95,2.18,2.18,0,0,1,5.34-1.32ZM19.74.18c.96,0,1.56.03,2.265.09V-1.71a15.76,15.76,0,0,1-2.19.12h-4.2a3.616,3.616,0,0,1,.855-1.35,13.123,13.123,0,0,1,1.785-1.5,18.779,18.779,0,0,0,2.52-1.845,3.045,3.045,0,0,0,1.065-2.4C21.84-10.74,20.22-12,17.595-12a4.362,4.362,0,0,0-3.435,1.335,4.5,4.5,0,0,0-1.035,2.4l2.145.255a2.851,2.851,0,0,1,.465-1.38,2.119,2.119,0,0,1,1.9-.885c1.275,0,2.07.63,2.07,1.65,0,.765-.42,1.26-1.8,2.205a20.657,20.657,0,0,0-2.475,1.815,7.4,7.4,0,0,0-2.055,2.94,7.664,7.664,0,0,0-.39,1.92A13.824,13.824,0,0,1,14.925.18Z" transform="translate(-0.6 12)" fill="url(#linear-gradient)"/>
</svg>
