<svg xmlns="http://www.w3.org/2000/svg" width="849.365" height="497.054" viewBox="0 0 849.365 497.054">
  <g id="产品_秘密_02" transform="translate(-534.5 -1427.246)">
    <g id="组_21271" data-name="组 21271">
      <g id="组_21269" data-name="组 21269" transform="translate(-339.556 1039.228)">
        <path id="路径_36901" data-name="路径 36901" d="M1392.541,554.344l166.331,96.031L1299.714,800,1040.556,650.375l166.637-96.208" transform="translate(0 84.495)" fill="rgba(0,0,0,0)" stroke="#2d3436" stroke-miterlimit="10" stroke-width="1"/>
        <path id="路径_36902" data-name="路径 36902" d="M1391.009,542.269l163.414,94.347-256,147.8-256-147.8,163.27-94.264" transform="translate(1.289 76.306)" fill="rgba(0,0,0,0)" stroke="#2d3436" stroke-miterlimit="10" stroke-width="1"/>
        <path id="路径_36903" data-name="路径 36903" d="M1372.593,558.1l117.277,67.71L1279.729,747.137,1069.589,625.812,1186.9,557.965" transform="translate(19.984 87.109)" fill="rgba(0,0,0,0)" stroke="#2d3436" stroke-miterlimit="10" stroke-width="0.927"/>
        <path id="路径_36904" data-name="路径 36904" d="M1361.669,567.166l90.608,52.313L1268.842,725.385,1085.407,619.479l90.608-52.313" transform="translate(30.872 93.443)" fill="rgba(0,0,0,0)" stroke="#2d3436" stroke-miterlimit="10" stroke-width="0.81"/>
        <path id="路径_36905" data-name="路径 36905" d="M1042.428,598.278V614.5a.089.089,0,0,0,.044.076l255.82,147.7a.088.088,0,0,0,.133-.076V745.977a.092.092,0,0,0-.044-.078L1042.56,598.2A.088.088,0,0,0,1042.428,598.278Z" transform="translate(1.289 114.796)" fill="rgba(0,0,0,0)" stroke="#2d3436" stroke-miterlimit="10" stroke-width="1"/>
        <path id="路径_36906" data-name="路径 36906" d="M1194.1,745.9l255.82-147.7a.088.088,0,0,1,.133.076V614.5a.086.086,0,0,1-.044.076l-255.821,147.7a.087.087,0,0,1-.132-.076V745.976A.092.092,0,0,1,1194.1,745.9Z" transform="translate(105.658 114.797)" fill="rgba(0,0,0,0)" stroke="#2d3436" stroke-miterlimit="10" stroke-width="1"/>
        <g id="组_21260" data-name="组 21260" transform="translate(1178.442 667.83)">
          <path id="路径_36907" data-name="路径 36907" d="M1336.068,571.443l28.634,16.532a.035.035,0,0,1,0,.061l-121.2,69.976a.044.044,0,0,1-.036,0l-121.2-69.976a.035.035,0,0,1,0-.061l28.585-16.5" transform="translate(-1122.211 -571.443)" fill="rgba(0,0,0,0)" stroke="#2d3436" stroke-miterlimit="10" stroke-width="1"/>
          <path id="路径_36908" data-name="路径 36908" d="M1122.226,581.3v15.479a.035.035,0,0,0,.019.03l121.2,69.976a.035.035,0,0,0,.052-.032V651.279a.032.032,0,0,0-.019-.03l-121.2-69.976A.036.036,0,0,0,1122.226,581.3Z" transform="translate(-1122.226 -564.68)" fill="rgba(0,0,0,0)" stroke="#2d3436" stroke-miterlimit="10" stroke-width="1"/>
          <path id="路径_36909" data-name="路径 36909" d="M1194.073,651.249l121.2-69.976a.035.035,0,0,1,.052.03v15.479a.038.038,0,0,1-.017.03l-121.2,69.976a.035.035,0,0,1-.052-.032V651.279A.034.034,0,0,1,1194.073,651.249Z" transform="translate(-1072.783 -564.68)" fill="rgba(0,0,0,0)" stroke="#2d3436" stroke-miterlimit="10" stroke-width="1"/>
        </g>
        <g id="组_21261" data-name="组 21261" transform="translate(1206.886 527.31)">
          <path id="路径_36910" data-name="路径 36910" d="M1283.087,488.213l41.573,24a.036.036,0,0,1,0,.063L1231.9,565.83a.034.034,0,0,1-.036,0l-92.757-53.552a.038.038,0,0,1,0-.062l41.521-23.971" transform="translate(-1139.059 -488.213)" fill="rgba(0,0,0,0)" stroke="#2d3436" stroke-miterlimit="10" stroke-width="1"/>
          <path id="路径_36911" data-name="路径 36911" d="M1139.074,502.5V637.159a.032.032,0,0,0,.018.03l92.757,53.554a.035.035,0,0,0,.052-.03V556.052a.036.036,0,0,0-.019-.03l-92.757-53.552A.035.035,0,0,0,1139.074,502.5Z" transform="translate(-1139.074 -478.404)" fill="rgba(0,0,0,0)" stroke="#2d3436" stroke-miterlimit="10" stroke-width="1"/>
          <path id="路径_36912" data-name="路径 36912" d="M1194.073,556.021l92.756-53.552a.036.036,0,0,1,.054.03V637.158a.032.032,0,0,1-.018.03l-92.757,53.554a.035.035,0,0,1-.052-.03V556.051A.038.038,0,0,1,1194.073,556.021Z" transform="translate(-1101.228 -478.404)" fill="rgba(0,0,0,0)" stroke="#2d3436" stroke-miterlimit="10" stroke-width="1"/>
        </g>
        <path id="路径_36913" data-name="路径 36913" d="M1297.465,485.508l49.539,28.6-108.651,62.729L1129.7,514.109l49.538-28.6" transform="translate(61.361 37.235)" fill="rgba(0,0,0,0)" stroke="#2d3436" stroke-miterlimit="10" stroke-width="0.927"/>
        <path id="路径_36914" data-name="路径 36914" d="M1314.177,479.976,1347,498.928l-108.651,62.729L1129.7,498.928l33.026-19.067" transform="translate(61.361 33.348)" fill="rgba(0,0,0,0)" stroke="#2d3436" stroke-miterlimit="10" stroke-width="0.927"/>
        <path id="路径_36915" data-name="路径 36915" d="M1330.49,474.214,1347,483.748l-108.651,62.729L1129.7,483.748l16.513-9.534" transform="translate(61.361 29.462)" fill="rgba(0,0,0,0)" stroke="#2d3436" stroke-miterlimit="10" stroke-width="0.927"/>
        <path id="路径_36916" data-name="路径 36916" d="M1129.7,494.142l108.651-62.729L1347,494.142l-108.651,62.73Z" transform="translate(61.361)" fill="rgba(0,0,0,0)" stroke="#2d3436" stroke-miterlimit="10" stroke-width="0.927"/>
        <g id="组_21262" data-name="组 21262" transform="translate(1214.381 581.333)">
          <path id="路径_36917" data-name="路径 36917" d="M1151.495,524.819l-7.982-4.608v9.216l7.982,4.608Z" transform="translate(-1143.513 -520.211)" fill="none" stroke="#2d3436" stroke-width="1"/>
          <path id="路径_36918" data-name="路径 36918" d="M1151.495,534.706l-7.982-4.608v9.216l7.982,4.608Z" transform="translate(-1143.513 -513.405)" fill="#2d3436" stroke="#2d3436" stroke-width="1"/>
          <path id="路径_36919" data-name="路径 36919" d="M1151.495,544.593l-7.982-4.608V549.2l7.982,4.608Z" transform="translate(-1143.513 -506.6)" fill="#2d3436" stroke="#2d3436" stroke-width="1"/>
          <path id="路径_36920" data-name="路径 36920" d="M1151.495,554.481l-7.982-4.608v9.216l7.982,4.608Z" transform="translate(-1143.513 -499.794)" fill="#2d3436" stroke="#2d3436" stroke-width="1"/>
          <path id="路径_36921" data-name="路径 36921" d="M1160.046,529.762l-7.981-4.608v9.216l7.981,4.608Z" transform="translate(-1137.627 -516.808)" fill="#2d3436" stroke="#2d3436" stroke-width="1"/>
          <path id="路径_36922" data-name="路径 36922" d="M1160.046,539.65l-7.981-4.608v9.216l7.981,4.608Z" transform="translate(-1137.627 -510.002)" fill="none" stroke="#2d3436" stroke-width="1"/>
          <path id="路径_36923" data-name="路径 36923" d="M1160.046,549.537l-7.981-4.608v9.216l7.981,4.608Z" transform="translate(-1137.627 -503.197)" fill="#2d3436" stroke="#2d3436" stroke-width="1"/>
          <path id="路径_36924" data-name="路径 36924" d="M1169.067,535.087l-7.982-4.608V539.7l7.982,4.608Z" transform="translate(-1131.418 -513.143)" fill="none" stroke="#2d3436" stroke-width="1"/>
          <path id="路径_36925" data-name="路径 36925" d="M1169.067,544.974l-7.982-4.608v9.216l7.982,4.608Z" transform="translate(-1131.418 -506.338)" fill="#2d3436" stroke="#2d3436" stroke-width="1"/>
          <path id="路径_36926" data-name="路径 36926" d="M1177.5,540.03l-7.981-4.608v9.216l7.981,4.608Z" transform="translate(-1125.613 -509.74)" fill="#2d3436" stroke="#2d3436" stroke-width="1"/>
          <path id="路径_36927" data-name="路径 36927" d="M1185.19,544.391l-7.982-4.608V549l7.982,4.608Z" transform="translate(-1120.32 -506.739)" fill="none" stroke="#2d3436" stroke-width="1"/>
          <path id="路径_36928" data-name="路径 36928" d="M1177.5,549.917l-7.981-4.608v9.216l7.981,4.608Z" transform="translate(-1125.613 -502.935)" fill="none" stroke="#2d3436" stroke-width="1"/>
          <path id="路径_36929" data-name="路径 36929" d="M1169.067,554.861l-7.982-4.608v9.216l7.982,4.608Z" transform="translate(-1131.418 -499.532)" fill="#2d3436" stroke="#2d3436" stroke-width="1"/>
          <path id="路径_36930" data-name="路径 36930" d="M1160.046,559.424l-7.981-4.608v9.216l7.981,4.609Z" transform="translate(-1137.627 -496.391)" fill="none" stroke="#2d3436" stroke-width="1"/>
          <path id="路径_36931" data-name="路径 36931" d="M1151.495,564.368l-7.982-4.608v9.217l7.982,4.608Z" transform="translate(-1143.513 -492.989)" fill="none" stroke="#2d3436" stroke-width="1"/>
        </g>
        <g id="组_21263" data-name="组 21263" transform="translate(1320.176 581.333)">
          <path id="路径_36932" data-name="路径 36932" d="M1239.871,524.819l7.981-4.608v9.216l-7.981,4.608Z" transform="translate(-1182.983 -520.211)" fill="none" stroke="#2d3436" stroke-width="1"/>
          <path id="路径_36933" data-name="路径 36933" d="M1239.871,534.706l7.981-4.608v9.216l-7.981,4.608Z" transform="translate(-1182.983 -513.405)" fill="#2d3436" stroke="#2d3436" stroke-width="1"/>
          <path id="路径_36934" data-name="路径 36934" d="M1239.871,544.593l7.981-4.608V549.2l-7.981,4.608Z" transform="translate(-1182.983 -506.6)" fill="#2d3436" stroke="#2d3436" stroke-width="1"/>
          <path id="路径_36935" data-name="路径 36935" d="M1239.871,554.481l7.981-4.608v9.216l-7.981,4.608Z" transform="translate(-1182.983 -499.794)" fill="none" stroke="#2d3436" stroke-width="1"/>
          <path id="路径_36936" data-name="路径 36936" d="M1231.319,529.762l7.981-4.608v9.216l-7.981,4.608Z" transform="translate(-1188.869 -516.808)" fill="#2d3436" stroke="#2d3436" stroke-width="1"/>
          <path id="路径_36937" data-name="路径 36937" d="M1231.319,539.65l7.981-4.608v9.216l-7.981,4.608Z" transform="translate(-1188.869 -510.002)" fill="none" stroke="#2d3436" stroke-width="1"/>
          <path id="路径_36938" data-name="路径 36938" d="M1231.319,549.537l7.981-4.608v9.216l-7.981,4.608Z" transform="translate(-1188.869 -503.197)" fill="none" stroke="#2d3436" stroke-width="1"/>
          <path id="路径_36939" data-name="路径 36939" d="M1222.3,535.087l7.981-4.608V539.7L1222.3,544.3Z" transform="translate(-1195.078 -513.143)" fill="#2d3436" stroke="#2d3436" stroke-width="1"/>
          <path id="路径_36940" data-name="路径 36940" d="M1222.3,544.974l7.981-4.608v9.216l-7.981,4.608Z" transform="translate(-1195.078 -506.338)" fill="none" stroke="#2d3436" stroke-width="1"/>
          <path id="路径_36941" data-name="路径 36941" d="M1213.865,540.03l7.982-4.608v9.216l-7.982,4.608Z" transform="translate(-1200.883 -509.74)" fill="none" stroke="#2d3436" stroke-width="1"/>
          <path id="路径_36942" data-name="路径 36942" d="M1206.176,544.391l7.982-4.608V549l-7.982,4.608Z" transform="translate(-1206.176 -506.739)" fill="#2d3436" stroke="#2d3436" stroke-width="1"/>
          <path id="路径_36943" data-name="路径 36943" d="M1213.865,549.917l7.982-4.608v9.216l-7.982,4.608Z" transform="translate(-1200.883 -502.935)" fill="#2d3436" stroke="#2d3436" stroke-width="1"/>
          <path id="路径_36944" data-name="路径 36944" d="M1222.3,554.861l7.981-4.608v9.216l-7.981,4.608Z" transform="translate(-1195.078 -499.532)" fill="#2d3436" stroke="#2d3436" stroke-width="1"/>
          <path id="路径_36945" data-name="路径 36945" d="M1231.319,559.424l7.981-4.608v9.216l-7.981,4.609Z" transform="translate(-1188.869 -496.391)" fill="#2d3436" stroke="#2d3436" stroke-width="1"/>
          <path id="路径_36946" data-name="路径 36946" d="M1239.871,564.368l7.981-4.608v9.217l-7.981,4.608Z" transform="translate(-1182.983 -492.989)" fill="#2d3436" stroke="#2d3436" stroke-width="1"/>
        </g>
      </g>
    </g>
    <path id="路径_6848" data-name="路径 6848" d="M239.056,150.52V132.559h90.2" transform="translate(814.049 1493.022)" fill="none" stroke="#2d3436" stroke-miterlimit="10" stroke-width="0.454" stroke-dasharray="1.818 1.818 1.818 1.818 1.818 1.818"/>
    <path id="路径_6850" data-name="路径 6850" d="M233,210.715H174.211" transform="translate(619.118 1380.119)" fill="none" stroke="#2d3436" stroke-miterlimit="10" stroke-width="0.454" stroke-dasharray="1.818 1.818 1.818 1.818 1.818 1.818"/>
    <path id="路径_36971" data-name="路径 36971" d="M0,0H69.973" transform="translate(1215.5 1751.831)" fill="none" stroke="#2d3436" stroke-width="0.454" stroke-dasharray="1.818 1.818 1.818 1.818 1.818 1.818"/>
    <path id="路径_36972" data-name="路径 36972" d="M66.247,0h-71.3" transform="translate(638.5 1751.831)" fill="none" stroke="#2d3436" stroke-width="0.454" stroke-dasharray="1.818 1.818 1.818 1.818 1.818 1.818"/>
    <path id="路径_36964" data-name="路径 36964" d="M2730.348,1762.071l4.009,2.342-13.874,7.244-4.208-2.481Z" transform="translate(-2010)" fill="#fff"/>
    <path id="路径_36965" data-name="路径 36965" d="M3222.974,1769.833l-2.243,1.27-12.45-8.072,3.3-1.859Z" transform="translate(-2010)" fill="#fff"/>
    <g id="组_21277" data-name="组 21277" transform="translate(-20 10)">
      <g id="组_21276" data-name="组 21276" transform="translate(219.393 1923.542)">
        <g id="组_21275" data-name="组 21275" transform="translate(1052.607 -176.308)">
          <path id="路径_36969" data-name="路径 36969" d="M1175.079-184.377l8.834,5.1a.116.116,0,0,1,0,.2l-65.565,37.856a.116.116,0,0,1-.116,0l-65.566-37.856a.116.116,0,0,1,0-.2l9.271-5.353" transform="translate(-1052.607 209.347)" fill="none" stroke="#636e72" stroke-miterlimit="10" stroke-width="1"/>
          <path id="路径_36970" data-name="路径 36970" d="M1146.623-198.837l24.107,13.919a.116.116,0,0,1,0,.2L1114.416-152.2a.117.117,0,0,1-.117,0l-56.316-32.515a.116.116,0,0,1,0-.2l24.107-13.919" transform="translate(-1048.674 198.837)" fill="none" stroke="#636e72" stroke-width="1"/>
          <path id="路径_36971-2" data-name="路径 36971" d="M1057.857-190.612v16.054a.116.116,0,0,0,.059.1l56.314,32.524a.117.117,0,0,0,.176-.1v-16.054a.118.118,0,0,0-.058-.1l-56.316-32.524A.117.117,0,0,0,1057.857-190.612Z" transform="translate(-1048.724 204.834)" fill="none" stroke="#636e72" stroke-width="1"/>
          <path id="路径_36972-2" data-name="路径 36972" d="M1090.538-141.937l56.316-32.515a.119.119,0,0,0,.057-.1v-16.054a.117.117,0,0,0-.176-.1l-56.314,32.515a.117.117,0,0,0-.059.1v16.054A.117.117,0,0,0,1090.538-141.937Z" transform="translate(-1024.68 204.838)" fill="none" stroke="#636e72" stroke-width="1"/>
        </g>
        <g id="组_21276-2" data-name="组 21276" transform="translate(1085.837 -229.294)">
          <path id="路径_36973" data-name="路径 36973" d="M1071.823-210.681l32.237-18.613h.108l32.237,18.613a.106.106,0,0,1,0,.184l-32.237,18.613h-.108L1071.823-210.5A.106.106,0,0,1,1071.823-210.681Z" transform="translate(-1071.663 229.294)" fill="none" stroke="#636e72" stroke-width="1"/>
          <path id="路径_36974" data-name="路径 36974" d="M1071.708-218.389v50.2l.054.092L1104-149.479a.107.107,0,0,0,.16-.092v-50.2l-.054-.094-32.237-18.613A.107.107,0,0,0,1071.708-218.389Z" transform="translate(-1071.708 237.281)" fill="none" stroke="#636e72" stroke-width="1"/>
          <path id="路径_36975" data-name="路径 36975" d="M1090.522-149.475l32.237-18.613.054-.092v-50.2a.107.107,0,0,0-.16-.094l-32.237,18.613-.054.094v50.2A.107.107,0,0,0,1090.522-149.475Z" transform="translate(-1057.909 237.284)" fill="none" stroke="#636e72" stroke-width="1"/>
        </g>
        <g id="组_21273" data-name="组 21273" transform="translate(1122.101 -193.778)">
          <path id="路径_36976" data-name="路径 36976" d="M1092.553-183.942l3.386-1.955v-5.264l-3.386,1.955Z" transform="translate(-1092.553 221.984)" fill="none" stroke="#636e72" stroke-width="0.5"/>
          <path id="路径_36979" data-name="路径 36979" d="M1092.553-179.69l3.386-1.955v-5.264l-3.386,1.955Z" transform="translate(-1092.553 225.13)" fill="none" stroke="#636e72" stroke-width="0.5"/>
          <path id="路径_36982" data-name="路径 36982" d="M1092.553-192.8l3.386-1.955v-5.27l-3.386,1.955Z" transform="translate(-1092.553 215.43)" fill="none" stroke="#636e72" stroke-width="0.5"/>
          <path id="路径_36985" data-name="路径 36985" d="M1092.553-188.553l3.386-1.955v-5.264l-3.386,1.955Z" transform="translate(-1092.553 218.574)" fill="none" stroke="#636e72" stroke-width="0.5"/>
          <path id="路径_36988" data-name="路径 36988" d="M1092.553-201.659l3.386-1.955v-5.264l-3.386,1.955Z" transform="translate(-1092.553 208.879)" fill="none" stroke="#636e72" stroke-width="0.5"/>
          <path id="路径_36991" data-name="路径 36991" d="M1092.553-197.41l3.386-1.955v-5.257l-3.386,1.955Z" transform="translate(-1092.553 212.027)" fill="none" stroke="#636e72" stroke-width="0.5"/>
        </g>
        <g id="组_21274" data-name="组 21274" transform="translate(1128.061 -197.146)">
          <path id="路径_36977" data-name="路径 36977" d="M1095.979-185.875l3.385-1.962V-193.1l-3.385,1.955Z" transform="translate(-1095.979 223.917)" fill="none" stroke="#636e72" stroke-width="0.5"/>
          <path id="路径_36980" data-name="路径 36980" d="M1095.979-181.626l3.385-1.955v-5.264l-3.385,1.955Z" transform="translate(-1095.979 227.066)" fill="none" stroke="#636e72" stroke-width="0.5"/>
          <path id="路径_36983" data-name="路径 36983" d="M1095.979-194.737l3.385-1.955v-5.264L1095.979-200Z" transform="translate(-1095.979 217.367)" fill="none" stroke="#636e72" stroke-width="0.5"/>
          <path id="路径_36986" data-name="路径 36986" d="M1095.979-190.485l3.385-1.955V-197.7l-3.385,1.955Z" transform="translate(-1095.979 220.513)" fill="none" stroke="#636e72" stroke-width="0.5"/>
          <path id="路径_36989" data-name="路径 36989" d="M1095.979-203.6l3.385-1.955v-5.264l-3.385,1.955Z" transform="translate(-1095.979 210.815)" fill="none" stroke="#636e72" stroke-width="0.5"/>
          <path id="路径_36992" data-name="路径 36992" d="M1095.979-199.344l3.385-1.955v-5.264l-3.385,1.955Z" transform="translate(-1095.979 213.96)" fill="none" stroke="#636e72" stroke-width="0.5"/>
        </g>
        <g id="组_21279" data-name="组 21279" transform="translate(1134.061 -200.146)">
          <path id="路径_36977-2" data-name="路径 36977" d="M1095.979-185.875l3.385-1.962V-193.1l-3.385,1.955Z" transform="translate(-1095.979 223.917)" fill="none" stroke="#636e72" stroke-width="0.5"/>
          <path id="路径_36980-2" data-name="路径 36980" d="M1095.979-181.626l3.385-1.955v-5.264l-3.385,1.955Z" transform="translate(-1095.979 227.066)" fill="none" stroke="#636e72" stroke-width="0.5"/>
          <path id="路径_36983-2" data-name="路径 36983" d="M1095.979-194.737l3.385-1.955v-5.264L1095.979-200Z" transform="translate(-1095.979 217.367)" fill="none" stroke="#636e72" stroke-width="0.5"/>
          <path id="路径_36986-2" data-name="路径 36986" d="M1095.979-190.485l3.385-1.955V-197.7l-3.385,1.955Z" transform="translate(-1095.979 220.513)" fill="none" stroke="#636e72" stroke-width="0.5"/>
          <path id="路径_36989-2" data-name="路径 36989" d="M1095.979-203.6l3.385-1.955v-5.264l-3.385,1.955Z" transform="translate(-1095.979 210.815)" fill="none" stroke="#636e72" stroke-width="0.5"/>
          <path id="路径_36992-2" data-name="路径 36992" d="M1095.979-199.344l3.385-1.955v-5.264l-3.385,1.955Z" transform="translate(-1095.979 213.96)" fill="none" stroke="#636e72" stroke-width="0.5"/>
        </g>
        <g id="组_21275-2" data-name="组 21275" transform="translate(1143.178 -205.796)">
          <path id="路径_36994" data-name="路径 36994" d="M1104.668-190.853l3.386-1.955v-5.264l-3.386,1.955Z" transform="translate(-1104.668 228.89)" fill="none" stroke="#636e72" stroke-width="0.5"/>
          <path id="路径_36995" data-name="路径 36995" d="M1104.668-186.6l3.386-1.955v-5.264l-3.386,1.955Z" transform="translate(-1104.668 232.038)" fill="none" stroke="#636e72" stroke-width="0.5"/>
          <path id="路径_36996" data-name="路径 36996" d="M1104.668-199.708l3.386-1.955v-5.264l-3.386,1.955Z" transform="translate(-1104.668 222.34)" fill="none" stroke="#636e72" stroke-width="0.5"/>
          <path id="路径_36997" data-name="路径 36997" d="M1104.668-195.453l3.386-1.955v-5.264l-3.386,1.955Z" transform="translate(-1104.668 225.488)" fill="none" stroke="#636e72" stroke-width="0.5"/>
          <path id="路径_36998" data-name="路径 36998" d="M1104.668-208.567l3.386-1.955v-5.264l-3.386,1.955Z" transform="translate(-1104.668 215.787)" fill="none" stroke="#636e72" stroke-width="0.5"/>
          <path id="路径_36999" data-name="路径 36999" d="M1104.668-204.315l3.386-1.955v-5.264l-3.386,1.955Z" transform="translate(-1104.668 218.932)" fill="none" stroke="#636e72" stroke-width="0.5"/>
        </g>
      </g>
      <ellipse id="椭圆_1625" data-name="椭圆 1625" cx="12.5" cy="1" rx="12.5" ry="1" transform="translate(1325 1715)" fill="#dfe6e9" opacity="0.53"/>
      <path id="路径_3" data-name="路径 3" d="M166.365,483.568a7.846,7.846,0,0,0-6.4.368c1.163-2.485,2.475-5.173,3.616-7.889,1.354-3.223,2.416-6.313,2.416-8.769,0-10.5-7.875-17.41-15.361-17.41-8.44,0-15.856,6.392-15.873,16.353a.121.121,0,0,1,0,.016v.015a30.1,30.1,0,0,0,.129,4.113,7.9,7.9,0,0,0-4.37,1.885,6.448,6.448,0,0,0-1.536,1.808c-.627,1.394-.577,3.067,1.088,3.505a5.025,5.025,0,0,0,2.064-.544c1.182-.437,2.656-1.223,3.792-.655a43.439,43.439,0,0,0,3.04,8.416,25.885,25.885,0,0,0,4.946,7.184,9.12,9.12,0,0,0,6.209,2.96c3.5,0,6.642-1.74,9.168-3.427,1.264-.842,2.378-1.676,3.28-2.288a5.453,5.453,0,0,1,1.885-.942,7.636,7.636,0,0,1,2.544.72c.982.418,2.01.925,2.9,1.28a.538.538,0,0,0,.7-.464A6.613,6.613,0,0,0,166.365,483.568ZM131.74,476.08a5.018,5.018,0,0,1-1.616.465c-.727-.451-.561-1.377-.241-1.985a5.55,5.55,0,0,1,1.3-1.52A8.827,8.827,0,0,1,135,471.391c.154,1.253.357,2.531.64,3.807a7.659,7.659,0,0,0-3.9.88Zm16.929-15.745a3.541,3.541,0,0,1,2.992-2.784c1.371.026,2.285,1.483,2.784,2.768a15.1,15.1,0,0,1,.8,4.913.54.54,0,0,1-.8.415,5.358,5.358,0,0,0-2.784-.672,5.422,5.422,0,0,0-2.8.672.54.54,0,0,1-.784-.415,16.928,16.928,0,0,1,.591-4.9Zm-9.536,5.312a.54.54,0,0,1-.784-.416,16.942,16.942,0,0,1,.592-4.9,3.541,3.541,0,0,1,2.992-2.784c1.371.026,2.285,1.483,2.785,2.768a15.11,15.11,0,0,1,.8,4.913.54.54,0,0,1-.8.415,5.362,5.362,0,0,0-2.785-.672,5.421,5.421,0,0,0-2.8.67Zm15.793,7.153a7.711,7.711,0,0,0-8.352-.655,9.292,9.292,0,0,0-2.833,2.1c-.664.771-1.267,1.892-.128,2.481a5.4,5.4,0,0,0,1.809-.1c1.7-.284,3.427-.577,5.024.5l-.64.8c-1.092-.844-2.809-.5-4.209-.288a5.755,5.755,0,0,1-2.228.1c-2.228-.581-1.384-2.962-.4-4.161a10.2,10.2,0,0,1,3.152-2.336,9.022,9.022,0,0,1,9.425.752Z" transform="translate(1186.385 1214.074)" fill="#2d3436"/>
    </g>
    <g id="组_21276-3" data-name="组 21276" transform="translate(57.393 1813.542)">
      <g id="组_21275-3" data-name="组 21275" transform="translate(1052.607 -176.308)">
        <path id="路径_36969-2" data-name="路径 36969" d="M1175.079-184.377l8.834,5.1a.116.116,0,0,1,0,.2l-65.565,37.856a.116.116,0,0,1-.116,0l-65.566-37.856a.116.116,0,0,1,0-.2l9.271-5.353" transform="translate(-1052.607 209.347)" fill="none" stroke="#636e72" stroke-miterlimit="10" stroke-width="1"/>
        <path id="路径_36970-2" data-name="路径 36970" d="M1146.623-198.837l24.107,13.919a.116.116,0,0,1,0,.2L1114.416-152.2a.117.117,0,0,1-.117,0l-56.316-32.515a.116.116,0,0,1,0-.2l24.107-13.919" transform="translate(-1048.674 198.837)" fill="none" stroke="#636e72" stroke-width="1"/>
        <path id="路径_36971-3" data-name="路径 36971" d="M1057.857-190.612v16.054a.116.116,0,0,0,.059.1l56.314,32.524a.117.117,0,0,0,.176-.1v-16.054a.118.118,0,0,0-.058-.1l-56.316-32.524A.117.117,0,0,0,1057.857-190.612Z" transform="translate(-1048.724 204.834)" fill="none" stroke="#636e72" stroke-width="1"/>
        <path id="路径_36972-3" data-name="路径 36972" d="M1090.538-141.937l56.316-32.515a.119.119,0,0,0,.057-.1v-16.054a.117.117,0,0,0-.176-.1l-56.314,32.515a.117.117,0,0,0-.059.1v16.054A.117.117,0,0,0,1090.538-141.937Z" transform="translate(-1024.68 204.838)" fill="none" stroke="#636e72" stroke-width="1"/>
      </g>
      <g id="组_21276-4" data-name="组 21276" transform="translate(1085.837 -229.294)">
        <path id="路径_36973-2" data-name="路径 36973" d="M1071.823-210.681l32.237-18.613h.108l32.237,18.613a.106.106,0,0,1,0,.184l-32.237,18.613h-.108L1071.823-210.5A.106.106,0,0,1,1071.823-210.681Z" transform="translate(-1071.663 229.294)" fill="none" stroke="#636e72" stroke-width="1"/>
        <path id="路径_36974-2" data-name="路径 36974" d="M1071.708-218.389v50.2l.054.092L1104-149.479a.107.107,0,0,0,.16-.092v-50.2l-.054-.094-32.237-18.613A.107.107,0,0,0,1071.708-218.389Z" transform="translate(-1071.708 237.281)" fill="none" stroke="#636e72" stroke-width="1"/>
        <path id="路径_36975-2" data-name="路径 36975" d="M1090.522-149.475l32.237-18.613.054-.092v-50.2a.107.107,0,0,0-.16-.094l-32.237,18.613-.054.094v50.2A.107.107,0,0,0,1090.522-149.475Z" transform="translate(-1057.909 237.284)" fill="none" stroke="#636e72" stroke-width="1"/>
      </g>
      <g id="组_21275-4" data-name="组 21275" transform="translate(1143.178 -205.796)">
        <path id="路径_36994-2" data-name="路径 36994" d="M1104.668-190.853l3.386-1.955v-5.264l-3.386,1.955Z" transform="translate(-1104.668 228.89)" fill="none" stroke="#636e72" stroke-width="0.5"/>
        <path id="路径_36995-2" data-name="路径 36995" d="M1104.668-186.6l3.386-1.955v-5.264l-3.386,1.955Z" transform="translate(-1104.668 232.038)" fill="none" stroke="#636e72" stroke-width="0.5"/>
        <path id="路径_36996-2" data-name="路径 36996" d="M1104.668-199.708l3.386-1.955v-5.264l-3.386,1.955Z" transform="translate(-1104.668 222.34)" fill="none" stroke="#636e72" stroke-width="0.5"/>
        <path id="路径_36997-2" data-name="路径 36997" d="M1104.668-195.453l3.386-1.955v-5.264l-3.386,1.955Z" transform="translate(-1104.668 225.488)" fill="none" stroke="#636e72" stroke-width="0.5"/>
        <path id="路径_36998-2" data-name="路径 36998" d="M1104.668-208.567l3.386-1.955v-5.264l-3.386,1.955Z" transform="translate(-1104.668 215.787)" fill="none" stroke="#636e72" stroke-width="0.5"/>
        <path id="路径_36999-2" data-name="路径 36999" d="M1104.668-204.315l3.386-1.955v-5.264l-3.386,1.955Z" transform="translate(-1104.668 218.932)" fill="none" stroke="#636e72" stroke-width="0.5"/>
      </g>
    </g>
    <ellipse id="椭圆_1625-2" data-name="椭圆 1625" cx="12.5" cy="1" rx="12.5" ry="1" transform="translate(1163 1605)" fill="#dfe6e9" opacity="0.53"/>
    <g id="组_21278" data-name="组 21278" transform="translate(-737 10)">
      <g id="组_21276-5" data-name="组 21276" transform="translate(219.393 1923.542)">
        <g id="组_21275-5" data-name="组 21275" transform="translate(1052.607 -176.308)">
          <path id="路径_36969-3" data-name="路径 36969" d="M1175.079-184.377l8.834,5.1a.116.116,0,0,1,0,.2l-65.565,37.856a.116.116,0,0,1-.116,0l-65.566-37.856a.116.116,0,0,1,0-.2l9.271-5.353" transform="translate(-1052.607 209.347)" fill="none" stroke="#636e72" stroke-miterlimit="10" stroke-width="1"/>
          <path id="路径_36970-3" data-name="路径 36970" d="M1146.623-198.837l24.107,13.919a.116.116,0,0,1,0,.2L1114.416-152.2a.117.117,0,0,1-.117,0l-56.316-32.515a.116.116,0,0,1,0-.2l24.107-13.919" transform="translate(-1048.674 198.837)" fill="none" stroke="#636e72" stroke-width="1"/>
          <path id="路径_36971-4" data-name="路径 36971" d="M1057.857-190.612v16.054a.116.116,0,0,0,.059.1l56.314,32.524a.117.117,0,0,0,.176-.1v-16.054a.118.118,0,0,0-.058-.1l-56.316-32.524A.117.117,0,0,0,1057.857-190.612Z" transform="translate(-1048.724 204.834)" fill="none" stroke="#636e72" stroke-width="1"/>
          <path id="路径_36972-4" data-name="路径 36972" d="M1090.538-141.937l56.316-32.515a.119.119,0,0,0,.057-.1v-16.054a.117.117,0,0,0-.176-.1l-56.314,32.515a.117.117,0,0,0-.059.1v16.054A.117.117,0,0,0,1090.538-141.937Z" transform="translate(-1024.68 204.838)" fill="none" stroke="#636e72" stroke-width="1"/>
        </g>
        <g id="组_21276-6" data-name="组 21276" transform="translate(1085.837 -229.294)">
          <path id="路径_36973-3" data-name="路径 36973" d="M1071.823-210.681l32.237-18.613h.108l32.237,18.613a.106.106,0,0,1,0,.184l-32.237,18.613h-.108L1071.823-210.5A.106.106,0,0,1,1071.823-210.681Z" transform="translate(-1071.663 229.294)" fill="none" stroke="#636e72" stroke-width="1"/>
          <path id="路径_36974-3" data-name="路径 36974" d="M1071.708-218.389v50.2l.054.092L1104-149.479a.107.107,0,0,0,.16-.092v-50.2l-.054-.094-32.237-18.613A.107.107,0,0,0,1071.708-218.389Z" transform="translate(-1071.708 237.281)" fill="none" stroke="#636e72" stroke-width="1"/>
          <path id="路径_36975-3" data-name="路径 36975" d="M1090.522-149.475l32.237-18.613.054-.092v-50.2a.107.107,0,0,0-.16-.094l-32.237,18.613-.054.094v50.2A.107.107,0,0,0,1090.522-149.475Z" transform="translate(-1057.909 237.284)" fill="none" stroke="#636e72" stroke-width="1"/>
        </g>
        <g id="组_21273-2" data-name="组 21273" transform="translate(1122.101 -193.778)">
          <path id="路径_36976-2" data-name="路径 36976" d="M1092.553-183.942l3.386-1.955v-5.264l-3.386,1.955Z" transform="translate(-1092.553 221.984)" fill="none" stroke="#636e72" stroke-width="0.5"/>
          <path id="路径_36979-2" data-name="路径 36979" d="M1092.553-179.69l3.386-1.955v-5.264l-3.386,1.955Z" transform="translate(-1092.553 225.13)" fill="none" stroke="#636e72" stroke-width="0.5"/>
          <path id="路径_36982-2" data-name="路径 36982" d="M1092.553-192.8l3.386-1.955v-5.27l-3.386,1.955Z" transform="translate(-1092.553 215.43)" fill="none" stroke="#636e72" stroke-width="0.5"/>
          <path id="路径_36985-2" data-name="路径 36985" d="M1092.553-188.553l3.386-1.955v-5.264l-3.386,1.955Z" transform="translate(-1092.553 218.574)" fill="none" stroke="#636e72" stroke-width="0.5"/>
          <path id="路径_36988-2" data-name="路径 36988" d="M1092.553-201.659l3.386-1.955v-5.264l-3.386,1.955Z" transform="translate(-1092.553 208.879)" fill="none" stroke="#636e72" stroke-width="0.5"/>
          <path id="路径_36991-2" data-name="路径 36991" d="M1092.553-197.41l3.386-1.955v-5.257l-3.386,1.955Z" transform="translate(-1092.553 212.027)" fill="none" stroke="#636e72" stroke-width="0.5"/>
        </g>
        <g id="组_21274-2" data-name="组 21274" transform="translate(1128.061 -197.146)">
          <path id="路径_36977-3" data-name="路径 36977" d="M1095.979-185.875l3.385-1.962V-193.1l-3.385,1.955Z" transform="translate(-1095.979 223.917)" fill="none" stroke="#636e72" stroke-width="0.5"/>
          <path id="路径_36980-3" data-name="路径 36980" d="M1095.979-181.626l3.385-1.955v-5.264l-3.385,1.955Z" transform="translate(-1095.979 227.066)" fill="none" stroke="#636e72" stroke-width="0.5"/>
          <path id="路径_36983-3" data-name="路径 36983" d="M1095.979-194.737l3.385-1.955v-5.264L1095.979-200Z" transform="translate(-1095.979 217.367)" fill="none" stroke="#636e72" stroke-width="0.5"/>
          <path id="路径_36986-3" data-name="路径 36986" d="M1095.979-190.485l3.385-1.955V-197.7l-3.385,1.955Z" transform="translate(-1095.979 220.513)" fill="none" stroke="#636e72" stroke-width="0.5"/>
          <path id="路径_36989-3" data-name="路径 36989" d="M1095.979-203.6l3.385-1.955v-5.264l-3.385,1.955Z" transform="translate(-1095.979 210.815)" fill="none" stroke="#636e72" stroke-width="0.5"/>
          <path id="路径_36992-3" data-name="路径 36992" d="M1095.979-199.344l3.385-1.955v-5.264l-3.385,1.955Z" transform="translate(-1095.979 213.96)" fill="none" stroke="#636e72" stroke-width="0.5"/>
        </g>
        <g id="组_21275-6" data-name="组 21275" transform="translate(1143.178 -205.796)">
          <path id="路径_36994-3" data-name="路径 36994" d="M1104.668-190.853l3.386-1.955v-5.264l-3.386,1.955Z" transform="translate(-1104.668 228.89)" fill="none" stroke="#636e72" stroke-width="0.5"/>
          <path id="路径_36995-3" data-name="路径 36995" d="M1104.668-186.6l3.386-1.955v-5.264l-3.386,1.955Z" transform="translate(-1104.668 232.038)" fill="none" stroke="#636e72" stroke-width="0.5"/>
          <path id="路径_36996-3" data-name="路径 36996" d="M1104.668-199.708l3.386-1.955v-5.264l-3.386,1.955Z" transform="translate(-1104.668 222.34)" fill="none" stroke="#636e72" stroke-width="0.5"/>
          <path id="路径_36997-3" data-name="路径 36997" d="M1104.668-195.453l3.386-1.955v-5.264l-3.386,1.955Z" transform="translate(-1104.668 225.488)" fill="none" stroke="#636e72" stroke-width="0.5"/>
          <path id="路径_36998-3" data-name="路径 36998" d="M1104.668-208.567l3.386-1.955v-5.264l-3.386,1.955Z" transform="translate(-1104.668 215.787)" fill="none" stroke="#636e72" stroke-width="0.5"/>
          <path id="路径_36999-3" data-name="路径 36999" d="M1104.668-204.315l3.386-1.955v-5.264l-3.386,1.955Z" transform="translate(-1104.668 218.932)" fill="none" stroke="#636e72" stroke-width="0.5"/>
        </g>
      </g>
      <ellipse id="椭圆_1625-3" data-name="椭圆 1625" cx="12.5" cy="1" rx="12.5" ry="1" transform="translate(1325 1715)" fill="#dfe6e9" opacity="0.53"/>
      <path id="路径_3-2" data-name="路径 3" d="M166.365,483.568a7.846,7.846,0,0,0-6.4.368c1.163-2.485,2.475-5.173,3.616-7.889,1.354-3.223,2.416-6.313,2.416-8.769,0-10.5-7.875-17.41-15.361-17.41-8.44,0-15.856,6.392-15.873,16.353a.121.121,0,0,1,0,.016v.015a30.1,30.1,0,0,0,.129,4.113,7.9,7.9,0,0,0-4.37,1.885,6.448,6.448,0,0,0-1.536,1.808c-.627,1.394-.577,3.067,1.088,3.505a5.025,5.025,0,0,0,2.064-.544c1.182-.437,2.656-1.223,3.792-.655a43.439,43.439,0,0,0,3.04,8.416,25.885,25.885,0,0,0,4.946,7.184,9.12,9.12,0,0,0,6.209,2.96c3.5,0,6.642-1.74,9.168-3.427,1.264-.842,2.378-1.676,3.28-2.288a5.453,5.453,0,0,1,1.885-.942,7.636,7.636,0,0,1,2.544.72c.982.418,2.01.925,2.9,1.28a.538.538,0,0,0,.7-.464A6.613,6.613,0,0,0,166.365,483.568ZM131.74,476.08a5.018,5.018,0,0,1-1.616.465c-.727-.451-.561-1.377-.241-1.985a5.55,5.55,0,0,1,1.3-1.52A8.827,8.827,0,0,1,135,471.391c.154,1.253.357,2.531.64,3.807a7.659,7.659,0,0,0-3.9.88Zm16.929-15.745a3.541,3.541,0,0,1,2.992-2.784c1.371.026,2.285,1.483,2.784,2.768a15.1,15.1,0,0,1,.8,4.913.54.54,0,0,1-.8.415,5.358,5.358,0,0,0-2.784-.672,5.422,5.422,0,0,0-2.8.672.54.54,0,0,1-.784-.415,16.928,16.928,0,0,1,.591-4.9Zm-9.536,5.312a.54.54,0,0,1-.784-.416,16.942,16.942,0,0,1,.592-4.9,3.541,3.541,0,0,1,2.992-2.784c1.371.026,2.285,1.483,2.785,2.768a15.11,15.11,0,0,1,.8,4.913.54.54,0,0,1-.8.415,5.362,5.362,0,0,0-2.785-.672,5.421,5.421,0,0,0-2.8.67Zm15.793,7.153a7.711,7.711,0,0,0-8.352-.655,9.292,9.292,0,0,0-2.833,2.1c-.664.771-1.267,1.892-.128,2.481a5.4,5.4,0,0,0,1.809-.1c1.7-.284,3.427-.577,5.024.5l-.64.8c-1.092-.844-2.809-.5-4.209-.288a5.755,5.755,0,0,1-2.228.1c-2.228-.581-1.384-2.962-.4-4.161a10.2,10.2,0,0,1,3.152-2.336,9.022,9.022,0,0,1,9.425.752Z" transform="translate(1186.385 1214.074)" fill="#2d3436"/>
    </g>
    <g id="组_21276-7" data-name="组 21276" transform="translate(-355.607 1802.542)">
      <g id="组_21275-7" data-name="组 21275" transform="translate(1052.607 -176.308)">
        <path id="路径_36969-4" data-name="路径 36969" d="M1175.079-184.377l8.834,5.1a.116.116,0,0,1,0,.2l-65.565,37.856a.116.116,0,0,1-.116,0l-65.566-37.856a.116.116,0,0,1,0-.2l9.271-5.353" transform="translate(-1052.607 209.347)" fill="none" stroke="#636e72" stroke-miterlimit="10" stroke-width="1"/>
        <path id="路径_36970-4" data-name="路径 36970" d="M1146.623-198.837l24.107,13.919a.116.116,0,0,1,0,.2L1114.416-152.2a.117.117,0,0,1-.117,0l-56.316-32.515a.116.116,0,0,1,0-.2l24.107-13.919" transform="translate(-1048.674 198.837)" fill="none" stroke="#636e72" stroke-width="1"/>
        <path id="路径_36971-5" data-name="路径 36971" d="M1057.857-190.612v16.054a.116.116,0,0,0,.059.1l56.314,32.524a.117.117,0,0,0,.176-.1v-16.054a.118.118,0,0,0-.058-.1l-56.316-32.524A.117.117,0,0,0,1057.857-190.612Z" transform="translate(-1048.724 204.834)" fill="none" stroke="#636e72" stroke-width="1"/>
        <path id="路径_36972-5" data-name="路径 36972" d="M1090.538-141.937l56.316-32.515a.119.119,0,0,0,.057-.1v-16.054a.117.117,0,0,0-.176-.1l-56.314,32.515a.117.117,0,0,0-.059.1v16.054A.117.117,0,0,0,1090.538-141.937Z" transform="translate(-1024.68 204.838)" fill="none" stroke="#636e72" stroke-width="1"/>
      </g>
      <g id="组_21276-8" data-name="组 21276" transform="translate(1085.837 -229.294)">
        <path id="路径_36973-4" data-name="路径 36973" d="M1071.823-210.681l32.237-18.613h.108l32.237,18.613a.106.106,0,0,1,0,.184l-32.237,18.613h-.108L1071.823-210.5A.106.106,0,0,1,1071.823-210.681Z" transform="translate(-1071.663 229.294)" fill="none" stroke="#636e72" stroke-width="1"/>
        <path id="路径_36974-4" data-name="路径 36974" d="M1071.708-218.389v50.2l.054.092L1104-149.479a.107.107,0,0,0,.16-.092v-50.2l-.054-.094-32.237-18.613A.107.107,0,0,0,1071.708-218.389Z" transform="translate(-1071.708 237.281)" fill="none" stroke="#636e72" stroke-width="1"/>
        <path id="路径_36975-4" data-name="路径 36975" d="M1090.522-149.475l32.237-18.613.054-.092v-50.2a.107.107,0,0,0-.16-.094l-32.237,18.613-.054.094v50.2A.107.107,0,0,0,1090.522-149.475Z" transform="translate(-1057.909 237.284)" fill="none" stroke="#636e72" stroke-width="1"/>
      </g>
      <g id="组_21273-3" data-name="组 21273" transform="translate(1122.101 -193.778)">
        <path id="路径_36976-3" data-name="路径 36976" d="M1092.553-183.942l3.386-1.955v-5.264l-3.386,1.955Z" transform="translate(-1092.553 221.984)" fill="none" stroke="#636e72" stroke-width="0.5"/>
        <path id="路径_36979-3" data-name="路径 36979" d="M1092.553-179.69l3.386-1.955v-5.264l-3.386,1.955Z" transform="translate(-1092.553 225.13)" fill="none" stroke="#636e72" stroke-width="0.5"/>
        <path id="路径_36982-3" data-name="路径 36982" d="M1092.553-192.8l3.386-1.955v-5.27l-3.386,1.955Z" transform="translate(-1092.553 215.43)" fill="none" stroke="#636e72" stroke-width="0.5"/>
        <path id="路径_36985-3" data-name="路径 36985" d="M1092.553-188.553l3.386-1.955v-5.264l-3.386,1.955Z" transform="translate(-1092.553 218.574)" fill="none" stroke="#636e72" stroke-width="0.5"/>
        <path id="路径_36988-3" data-name="路径 36988" d="M1092.553-201.659l3.386-1.955v-5.264l-3.386,1.955Z" transform="translate(-1092.553 208.879)" fill="none" stroke="#636e72" stroke-width="0.5"/>
        <path id="路径_36991-3" data-name="路径 36991" d="M1092.553-197.41l3.386-1.955v-5.257l-3.386,1.955Z" transform="translate(-1092.553 212.027)" fill="none" stroke="#636e72" stroke-width="0.5"/>
      </g>
      <g id="组_21275-8" data-name="组 21275" transform="translate(1143.178 -205.796)">
        <path id="路径_36994-4" data-name="路径 36994" d="M1104.668-190.853l3.386-1.955v-5.264l-3.386,1.955Z" transform="translate(-1104.668 228.89)" fill="none" stroke="#636e72" stroke-width="0.5"/>
        <path id="路径_36995-4" data-name="路径 36995" d="M1104.668-186.6l3.386-1.955v-5.264l-3.386,1.955Z" transform="translate(-1104.668 232.038)" fill="none" stroke="#636e72" stroke-width="0.5"/>
        <path id="路径_36996-4" data-name="路径 36996" d="M1104.668-199.708l3.386-1.955v-5.264l-3.386,1.955Z" transform="translate(-1104.668 222.34)" fill="none" stroke="#636e72" stroke-width="0.5"/>
        <path id="路径_36997-4" data-name="路径 36997" d="M1104.668-195.453l3.386-1.955v-5.264l-3.386,1.955Z" transform="translate(-1104.668 225.488)" fill="none" stroke="#636e72" stroke-width="0.5"/>
        <path id="路径_36998-4" data-name="路径 36998" d="M1104.668-208.567l3.386-1.955v-5.264l-3.386,1.955Z" transform="translate(-1104.668 215.787)" fill="none" stroke="#636e72" stroke-width="0.5"/>
        <path id="路径_36999-4" data-name="路径 36999" d="M1104.668-204.315l3.386-1.955v-5.264l-3.386,1.955Z" transform="translate(-1104.668 218.932)" fill="none" stroke="#636e72" stroke-width="0.5"/>
      </g>
    </g>
    <ellipse id="椭圆_1625-4" data-name="椭圆 1625" cx="12.5" cy="1" rx="12.5" ry="1" transform="translate(750 1594)" fill="#dfe6e9" opacity="0.53"/>
    <path id="路径_36966" data-name="路径 36966" d="M3181.171,1587.141h9.423l-1.187-4.3-8.236-1.961-2.255,3.628Z" transform="translate(-2010 -1)" fill="#fff"/>
    <path id="路径_37330" data-name="路径 37330" d="M3181.171,1588.036h9.423l-1.187-4.916-8.236-2.241-2.255,4.147Z" transform="translate(-2000 5)" fill="#fff"/>
    <path id="路径_37331" data-name="路径 37331" d="M3181.171,1588.036h9.423l-1.187-4.916-8.236-2.241-2.255,4.147Z" transform="translate(-2017 5)" fill="#fff"/>
    <path id="路径_36961" data-name="路径 36961" d="M33.708,22.3V3.632A3.76,3.76,0,0,0,29.823,0H3.889A3.76,3.76,0,0,0,0,3.628V22.3a3.76,3.76,0,0,0,3.885,3.63h1.3v3.889a1.3,1.3,0,0,0,.8,1.193,1.3,1.3,0,0,0,.493,0,1.3,1.3,0,0,0,.908-.389l4.823-4.693H29.819a3.76,3.76,0,0,0,3.889-3.626Zm-22.04,1.037a1.3,1.3,0,0,0-.908.389L7.779,26.683V24.635a1.3,1.3,0,0,0-1.3-1.3H3.889a1.219,1.219,0,0,1-1.3-1.037V3.632A1.193,1.193,0,0,1,3.889,2.6H29.819a1.193,1.193,0,0,1,1.3,1.037V22.3a1.193,1.193,0,0,1-1.3,1.037ZM41.487,8.818V27.487a3.76,3.76,0,0,1-3.885,3.63H36.3v3.89a1.3,1.3,0,0,1-2.2.907l-4.823-4.8H16.854a1.3,1.3,0,0,1,0-2.593H29.819a1.3,1.3,0,0,1,.908.389l2.982,2.956V29.821a1.3,1.3,0,0,1,1.3-1.3H37.6a1.193,1.193,0,0,0,1.3-1.037V8.818a1.193,1.193,0,0,0-1.3-1.037,1.3,1.3,0,0,1,0-2.593,3.76,3.76,0,0,1,3.889,3.626ZM11.668,12.967a2.593,2.593,0,1,1-2.593-2.593,2.593,2.593,0,0,1,2.593,2.593Zm7.779,0a2.593,2.593,0,1,1-2.593-2.593,2.593,2.593,0,0,1,2.593,2.593Zm7.779,0a2.593,2.593,0,1,1-2.593-2.593h0A2.593,2.593,0,0,1,27.226,12.967Z" transform="translate(1155.535 1562)" fill="#2d3436"/>
    <ellipse id="椭圆_1626" data-name="椭圆 1626" cx="40" cy="3" rx="40" ry="3" transform="translate(920 1552)" fill="#d5d5d7" opacity="0.37"/>
    <g id="组_21282" data-name="组 21282">
      <path id="路径_36970-5" data-name="路径 36970" d="M2758.994,1574.43s-2.5.3-.79,1.2a24.5,24.5,0,0,0,.79,2.952,78.6,78.6,0,0,0,7.83,2.653h18.553l1.056-5.053-7.844-4.3h-9.05l-9.54,1.584" transform="translate(-2010)" fill="#fff"/>
      <path id="路径_36969-5" data-name="路径 36969" d="M30.666,12.192h-.043a17.969,17.969,0,0,0,0,35.938l.021,0h.022a17.97,17.97,0,0,0,0-35.941ZM26.759,14.1a16.129,16.129,0,0,0-3.4,6.333,25.025,25.025,0,0,1-4.475-1.855A16.521,16.521,0,0,1,26.759,14.1Zm-8.868,5.581a26.378,26.378,0,0,0,5.078,2.142,33.924,33.924,0,0,0-.981,7.621H14.152a16.452,16.452,0,0,1,3.739-9.762Zm0,20.963a16.455,16.455,0,0,1-3.739-9.763h7.835a33.914,33.914,0,0,0,.981,7.62A26.476,26.476,0,0,0,17.891,40.643Zm.989,1.1a24.829,24.829,0,0,1,4.479-1.856,16.126,16.126,0,0,0,3.4,6.339,16.536,16.536,0,0,1-7.879-4.483ZM29.947,46.6c-1.952-.511-3.935-3.106-5.2-7.1a24.922,24.922,0,0,1,5.2-.7Zm0-9.227a26.4,26.4,0,0,0-5.588.749,32.154,32.154,0,0,1-.925-7.24h6.513v6.491Zm0-7.928H23.434A32.185,32.185,0,0,1,24.36,22.2a26.438,26.438,0,0,0,5.587.746Zm0-7.934a24.919,24.919,0,0,1-5.193-.7c1.261-3.986,3.243-6.579,5.193-7.087Zm13.49-1.832a16.45,16.45,0,0,1,3.743,9.767H39.3a33.911,33.911,0,0,0-.98-7.612,26.55,26.55,0,0,0,5.117-2.155Zm-.991-1.1a25.07,25.07,0,0,1-4.516,1.868,16.138,16.138,0,0,0-3.415-6.36A16.546,16.546,0,0,1,42.447,18.578ZM31.385,13.743c1.938.536,3.9,3.12,5.153,7.081a25,25,0,0,1-5.153.685V13.743Zm0,9.2a26.429,26.429,0,0,0,5.544-.738,32.133,32.133,0,0,1,.924,7.236H31.385v-6.5Zm0,7.934h6.469a32.217,32.217,0,0,1-.922,7.23,26.254,26.254,0,0,0-5.546-.739V30.88Zm0,15.7V38.806a25.059,25.059,0,0,1,5.154.686c-1.251,3.964-3.215,6.552-5.154,7.088Zm3.13-.343a16.112,16.112,0,0,0,3.418-6.366,25.2,25.2,0,0,1,4.518,1.87,16.519,16.519,0,0,1-7.937,4.5Zm8.927-5.594a26.471,26.471,0,0,0-5.12-2.156A33.908,33.908,0,0,0,39.3,30.88h7.88a16.455,16.455,0,0,1-3.738,9.763Z" transform="translate(731.872 1539.808)" fill="#2d3436" stroke="#2d3436" stroke-width="0.8"/>
    </g>
    <path id="路径_36973-5" data-name="路径 36973" d="M2953.344,1472.657c0,2.549-1.275,12.236-1.275,12.236s19.884,11.344,20.521,11.089,24.472-22.05,24.472-22.05-.892-2.294-5.481-3.059-27.149-3.187-27.149-3.187Z" transform="translate(-2010)" fill="#fff"/>
    <g id="组_21281" data-name="组 21281" transform="translate(915.472 1427.246)">
      <g id="组_21280" data-name="组 21280" transform="translate(0 0)">
        <path id="路径_3-3" data-name="路径 3" d="M209.25,521.851a16.759,16.759,0,0,0-13.671.785c2.483-5.307,5.287-11.049,7.723-16.85,2.892-6.883,5.161-13.485,5.161-18.73,0-22.421-16.821-37.187-32.811-37.187-18.027,0-33.869,13.653-33.906,34.931a.307.307,0,0,1,0,.035v.033a64.253,64.253,0,0,0,.275,8.785,16.88,16.88,0,0,0-9.334,4.026,13.774,13.774,0,0,0-3.282,3.862c-1.34,2.978-1.233,6.55,2.324,7.487a10.733,10.733,0,0,0,4.409-1.162c2.524-.933,5.673-2.611,8.1-1.4a92.789,92.789,0,0,0,6.493,17.978A55.293,55.293,0,0,0,161.3,539.787c4.008,3.884,8.51,6.323,13.261,6.323,7.474,0,14.187-3.717,19.583-7.321,2.7-1.8,5.079-3.58,7.006-4.887a11.64,11.64,0,0,1,4.026-2.013,16.314,16.314,0,0,1,5.434,1.537c2.1.893,4.294,1.976,6.186,2.734a1.149,1.149,0,0,0,1.5-.992A14.125,14.125,0,0,0,209.25,521.851Zm-73.96-16a10.73,10.73,0,0,1-3.452.992c-1.554-.963-1.2-2.941-.514-4.239a11.857,11.857,0,0,1,2.769-3.247,18.861,18.861,0,0,1,8.168-3.521c.329,2.678.763,5.406,1.367,8.133a16.364,16.364,0,0,0-8.34,1.88Zm36.16-33.631c.95-2.928,2.817-5.626,6.391-5.946,2.928.055,4.881,3.168,5.946,5.913a32.241,32.241,0,0,1,1.709,10.494,1.153,1.153,0,0,1-1.709.888,11.445,11.445,0,0,0-5.946-1.435,11.585,11.585,0,0,0-5.981,1.435,1.153,1.153,0,0,1-1.675-.887,36.162,36.162,0,0,1,1.263-10.463Zm-20.37,11.347a1.153,1.153,0,0,1-1.675-.888,36.187,36.187,0,0,1,1.265-10.459c.95-2.928,2.817-5.626,6.391-5.946,2.928.055,4.881,3.168,5.948,5.913a32.275,32.275,0,0,1,1.708,10.494,1.153,1.153,0,0,1-1.708.888,11.452,11.452,0,0,0-5.948-1.435,11.576,11.576,0,0,0-5.983,1.431Zm33.734,15.278a16.471,16.471,0,0,0-17.84-1.4,19.851,19.851,0,0,0-6.051,4.477c-1.418,1.647-2.707,4.041-.273,5.3a11.541,11.541,0,0,0,3.864-.207c3.625-.606,7.321-1.232,10.732,1.06l-1.367,1.709c-2.332-1.8-6-1.071-8.99-.615a12.29,12.29,0,0,1-4.758.2c-4.758-1.241-2.956-6.327-.855-8.887a21.781,21.781,0,0,1,6.733-4.989,19.273,19.273,0,0,1,20.132,1.607Z" transform="translate(-128.614 -449.869)" fill="#2d3436"/>
      </g>
    </g>
  </g>
</svg>
