<svg xmlns="http://www.w3.org/2000/svg" width="456.951" height="232" viewBox="0 0 456.951 232">
  <g id="点对点加密" transform="translate(-444.75 -3219.185)">
    <g id="组_21354" data-name="组 21354" transform="translate(325.359 3156.069)">
      <path id="路径_37059" data-name="路径 37059" d="M123.423,180.319l184.644-106.6L505.9,187.938l-184.644,106.6Z" fill="none" stroke="#2d3436" stroke-miterlimit="10" stroke-width="1"/>
      <path id="路径_37060" data-name="路径 37060" d="M158.028,181.008,309.261,93.694,471.3,187.245,320.063,274.559Z" fill="none" stroke="#2d3436" stroke-miterlimit="10" stroke-width="0.8"/>
      <path id="路径_37061" data-name="路径 37061" d="M177.272,181.391,309.924,104.8l142.127,82.06L319.4,263.451l-61.268-35.374Z" fill="none" stroke="#2d3436" stroke-miterlimit="10" stroke-width="0.7"/>
      <g id="组_21357" data-name="组 21357">
        <g id="组_21322" data-name="组 21322">
          <path id="路径_37062" data-name="路径 37062" d="M442.2,100.333,429,92.709a.064.064,0,0,0-.063,0l-13.2,7.629a.062.062,0,0,0-.023.085.051.051,0,0,0,.023.023l13.2,7.618a.06.06,0,0,0,.063,0l13.2-7.624a.06.06,0,0,0,.022-.084A.061.061,0,0,0,442.2,100.333Z" fill="none" stroke="#2d3436" stroke-miterlimit="10" stroke-width="0.5"/>
          <path id="路径_37063" data-name="路径 37063" d="M428.966,108.118V117.5a.064.064,0,0,1-.064.063.065.065,0,0,1-.03-.009l-13.2-7.621a.062.062,0,0,1-.031-.054V100.5a.063.063,0,0,1,.094-.054l13.2,7.618A.064.064,0,0,1,428.966,108.118Z" fill="none" stroke="#2d3436" stroke-miterlimit="10" stroke-width="0.5"/>
          <path id="路径_37064" data-name="路径 37064" d="M429,108.064l13.2-7.624a.062.062,0,0,1,.085.023.068.068,0,0,1,.008.031v9.382a.062.062,0,0,1-.031.054l-13.205,7.627a.062.062,0,0,1-.085-.022.072.072,0,0,1-.008-.032v-9.385A.064.064,0,0,1,429,108.064Z" fill="none" stroke="#2d3436" stroke-miterlimit="10" stroke-width="0.5"/>
        </g>
        <g id="组_21323" data-name="组 21323">
          <path id="路径_37065" data-name="路径 37065" d="M442.2,117.264,429,109.641a.064.064,0,0,0-.063,0l-13.2,7.629a.062.062,0,0,0-.023.085.051.051,0,0,0,.023.023l13.2,7.618a.064.064,0,0,0,.063,0l13.2-7.624a.062.062,0,0,0,.022-.086A.077.077,0,0,0,442.2,117.264Z" fill="none" stroke="#2d3436" stroke-miterlimit="10" stroke-width="0.5"/>
          <path id="路径_37066" data-name="路径 37066" d="M428.966,125.053v9.385a.064.064,0,0,1-.064.063.065.065,0,0,1-.03-.009l-13.2-7.621a.062.062,0,0,1-.031-.054v-9.382a.063.063,0,0,1,.094-.054l13.2,7.618A.063.063,0,0,1,428.966,125.053Z" fill="none" stroke="#2d3436" stroke-miterlimit="10" stroke-width="0.5"/>
          <path id="路径_37067" data-name="路径 37067" d="M429,125l13.2-7.624a.062.062,0,0,1,.085.023.068.068,0,0,1,.008.031v9.382a.062.062,0,0,1-.031.054l-13.205,7.627a.062.062,0,0,1-.085-.022.072.072,0,0,1-.008-.032v-9.385A.061.061,0,0,1,429,125Z" fill="none" stroke="#2d3436" stroke-miterlimit="10" stroke-width="0.5"/>
        </g>
        <g id="组_21324" data-name="组 21324">
          <path id="路径_37068" data-name="路径 37068" d="M442.2,84.179,429,76.555a.064.064,0,0,0-.063,0l-13.2,7.629a.062.062,0,0,0-.023.085.051.051,0,0,0,.023.023l13.2,7.619a.064.064,0,0,0,.063,0l13.2-7.625a.06.06,0,0,0,.022-.084A.061.061,0,0,0,442.2,84.179Z" fill="none" stroke="#2d3436" stroke-miterlimit="10" stroke-width="0.5"/>
          <path id="路径_37069" data-name="路径 37069" d="M428.966,91.964v9.385a.064.064,0,0,1-.064.063.065.065,0,0,1-.03-.009l-13.2-7.621a.062.062,0,0,1-.031-.054V84.346a.063.063,0,0,1,.094-.054l13.2,7.619A.061.061,0,0,1,428.966,91.964Z" fill="none" stroke="#2d3436" stroke-miterlimit="10" stroke-width="0.5"/>
          <path id="路径_37070" data-name="路径 37070" d="M429,91.911l13.2-7.625a.062.062,0,0,1,.085.023.068.068,0,0,1,.008.031v9.383a.06.06,0,0,1-.031.053L429.059,101.4a.062.062,0,0,1-.085-.022.072.072,0,0,1-.008-.032V91.964A.057.057,0,0,1,429,91.911Z" fill="none" stroke="#2d3436" stroke-miterlimit="10" stroke-width="0.5"/>
        </g>
      </g>
      <g id="组_21327" data-name="组 21327">
        <g id="组_21325" data-name="组 21325">
          <path id="路径_37071" data-name="路径 37071" d="M484.811,162.764l23.9-13.8a.1.1,0,0,1,.1,0l23.882,13.808a.1.1,0,0,1,.03.139.092.092,0,0,1-.03.029l-23.882,13.786a.1.1,0,0,1-.1,0l-23.9-13.8a.1.1,0,0,1-.023-.139A.125.125,0,0,1,484.811,162.764Z" fill="none" stroke="#2d3436" stroke-miterlimit="10" stroke-width="0.4"/>
          <path id="路径_37072" data-name="路径 37072" d="M508.762,176.81v4.754a.1.1,0,0,0,.1.1.1.1,0,0,0,.042-.012l23.882-13.793a.1.1,0,0,0,.049-.084v-4.749a.1.1,0,0,0-.1-.1.119.119,0,0,0-.041.011l-23.882,13.788A.1.1,0,0,0,508.762,176.81Z" fill="none" stroke="#2d3436" stroke-miterlimit="10" stroke-width="0.4"/>
          <path id="路径_37073" data-name="路径 37073" d="M508.711,176.726l-23.9-13.8a.1.1,0,0,0-.135.043.119.119,0,0,0-.011.041v4.754a.1.1,0,0,0,.049.084l23.9,13.8a.1.1,0,0,0,.135-.042.1.1,0,0,0,.011-.042v-4.753A.1.1,0,0,0,508.711,176.726Z" fill="none" stroke="#2d3436" stroke-miterlimit="10" stroke-width="0.4"/>
        </g>
        <g id="组_21326" data-name="组 21326">
          <path id="路径_37074" data-name="路径 37074" d="M508.834,155.9c6.03.07,10.882,3.249,10.838,7.1s-4.969,6.92-11,6.85-10.882-3.25-10.838-7.1S502.8,155.826,508.834,155.9Z" fill="none" stroke="#2d3436" stroke-miterlimit="10" stroke-width="0.3"/>
          <path id="路径_37075" data-name="路径 37075" d="M508.811,158.181c4.055.047,7.318,2.185,7.288,4.776s-3.342,4.654-7.4,4.607-7.318-2.185-7.288-4.776S504.752,158.134,508.811,158.181Z" fill="none" stroke="#2d3436" stroke-miterlimit="10" stroke-width="0.26"/>
          <path id="路径_37076" data-name="路径 37076" d="M508.784,160.173c2.334.027,4.211,1.257,4.194,2.748s-1.922,2.678-4.256,2.651-4.211-1.257-4.193-2.748S506.451,160.146,508.784,160.173Z" fill="none" stroke="#2d3436" stroke-miterlimit="10" stroke-width="0.198"/>
          <path id="路径_37077" data-name="路径 37077" d="M508.771,161.345c1.32.015,2.383.711,2.373,1.555s-1.088,1.515-2.408,1.5-2.383-.711-2.374-1.555S507.451,161.33,508.771,161.345Z" fill="#fff" stroke="#2d3436" stroke-width="0.3"/>
        </g>
      </g>
      <g id="组_21330" data-name="组 21330">
        <g id="组_21328" data-name="组 21328">
          <path id="路径_37078" data-name="路径 37078" d="M447.011,140.691l23.66-13.659a.216.216,0,0,1,.217,0L494.531,140.7a.218.218,0,0,1,.08.3.224.224,0,0,1-.08.079l-23.643,13.65a.216.216,0,0,1-.217,0l-23.66-13.663a.218.218,0,0,1-.074-.3A.227.227,0,0,1,447.011,140.691Z" fill="none" stroke="#2d3436" stroke-miterlimit="10" stroke-width="0.5"/>
          <path id="路径_37079" data-name="路径 37079" d="M470.782,154.915v4.476a.217.217,0,0,0,.325.188l23.643-13.654a.217.217,0,0,0,.108-.188v-4.473a.217.217,0,0,0-.217-.216.226.226,0,0,0-.108.028l-23.643,13.65A.221.221,0,0,0,470.782,154.915Z" fill="none" stroke="#2d3436" stroke-miterlimit="10" stroke-width="0.5"/>
          <path id="路径_37080" data-name="路径 37080" d="M470.673,154.727l-23.662-13.663a.217.217,0,0,0-.3.081.212.212,0,0,0-.029.107v4.472a.217.217,0,0,0,.108.188l23.66,13.664a.217.217,0,0,0,.326-.188v-4.476A.22.22,0,0,0,470.673,154.727Z" fill="none" stroke="#2d3436" stroke-miterlimit="10" stroke-width="0.5"/>
        </g>
        <g id="组_21329" data-name="组 21329">
          <path id="路径_37081" data-name="路径 37081" d="M470.854,133.932c6.03.07,10.882,3.25,10.837,7.1s-4.969,6.92-11,6.85-10.882-3.249-10.837-7.1S464.823,133.864,470.854,133.932Z" fill="none" stroke="#2d3436" stroke-miterlimit="10" stroke-width="0.3"/>
          <path id="路径_37082" data-name="路径 37082" d="M470.827,136.217c4.055.047,7.318,2.185,7.288,4.777s-3.341,4.653-7.4,4.606-7.318-2.185-7.288-4.776S466.772,136.17,470.827,136.217Z" fill="none" stroke="#2d3436" stroke-miterlimit="10" stroke-width="0.26"/>
          <path id="路径_37083" data-name="路径 37083" d="M470.8,138.209c2.333.027,4.211,1.258,4.194,2.748s-1.923,2.678-4.256,2.651-4.211-1.257-4.194-2.748S468.471,138.182,470.8,138.209Z" fill="none" stroke="#2d3436" stroke-miterlimit="10" stroke-width="0.198"/>
          <path id="路径_37084" data-name="路径 37084" d="M470.791,139.381c1.32.015,2.383.712,2.373,1.555s-1.088,1.516-2.409,1.5-2.383-.712-2.373-1.556S469.47,139.364,470.791,139.381Z" fill="#fff" stroke="#2d3436" stroke-width="0.3"/>
        </g>
      </g>
      <g id="组_21358" data-name="组 21358">
        <g id="组_21338" data-name="组 21338">
          <path id="路径_37102" data-name="路径 37102" d="M211.2,110.264,198,102.641a.064.064,0,0,0-.063,0l-13.2,7.629a.062.062,0,0,0-.023.085.051.051,0,0,0,.023.023l13.2,7.618a.064.064,0,0,0,.063,0l13.205-7.624a.062.062,0,0,0,.022-.086A.077.077,0,0,0,211.2,110.264Z" fill="none" stroke="#2d3436" stroke-miterlimit="10" stroke-width="0.5"/>
          <path id="路径_37103" data-name="路径 37103" d="M197.966,118.053v9.385a.064.064,0,0,1-.064.063.065.065,0,0,1-.03-.009l-13.2-7.621a.062.062,0,0,1-.031-.054v-9.382a.063.063,0,0,1,.094-.054l13.2,7.618A.063.063,0,0,1,197.966,118.053Z" fill="none" stroke="#2d3436" stroke-miterlimit="10" stroke-width="0.5"/>
          <path id="路径_37104" data-name="路径 37104" d="M198,118l13.205-7.624a.062.062,0,0,1,.085.023.068.068,0,0,1,.008.031v9.382a.062.062,0,0,1-.031.054l-13.205,7.627a.062.062,0,0,1-.085-.022.072.072,0,0,1-.008-.032v-9.385A.061.061,0,0,1,198,118Z" fill="none" stroke="#2d3436" stroke-miterlimit="10" stroke-width="0.5"/>
        </g>
        <g id="组_21355" data-name="组 21355">
          <path id="路径_37102-2" data-name="路径 37102-2" d="M179.2,129.264,166,121.641a.064.064,0,0,0-.063,0l-13.2,7.629a.062.062,0,0,0-.023.085.051.051,0,0,0,.023.023l13.2,7.618a.064.064,0,0,0,.063,0l13.205-7.624a.062.062,0,0,0,.022-.086A.077.077,0,0,0,179.2,129.264Z" fill="none" stroke="#2d3436" stroke-miterlimit="10" stroke-width="0.5"/>
          <path id="路径_37103-2" data-name="路径 37103-2" d="M165.966,137.053v9.385a.064.064,0,0,1-.064.063.066.066,0,0,1-.03-.009l-13.2-7.621a.062.062,0,0,1-.031-.054v-9.382a.063.063,0,0,1,.094-.054l13.2,7.618A.063.063,0,0,1,165.966,137.053Z" fill="none" stroke="#2d3436" stroke-miterlimit="10" stroke-width="0.5"/>
          <path id="路径_37104-2" data-name="路径 37104-2" d="M166,137l13.205-7.624a.062.062,0,0,1,.085.023.068.068,0,0,1,.008.031v9.382a.062.062,0,0,1-.031.054l-13.205,7.627a.062.062,0,0,1-.085-.022.072.072,0,0,1-.008-.032v-9.385A.061.061,0,0,1,166,137Z" fill="none" stroke="#2d3436" stroke-miterlimit="10" stroke-width="0.5"/>
        </g>
        <g id="组_21356" data-name="组 21356">
          <path id="路径_37102-3" data-name="路径 37102-3" d="M146.2,148.264,133,140.641a.064.064,0,0,0-.063,0l-13.2,7.629a.062.062,0,0,0-.023.085.051.051,0,0,0,.023.023l13.2,7.618a.064.064,0,0,0,.063,0l13.205-7.624a.062.062,0,0,0,.022-.086A.077.077,0,0,0,146.2,148.264Z" fill="none" stroke="#2d3436" stroke-miterlimit="10" stroke-width="0.5"/>
          <path id="路径_37103-3" data-name="路径 37103-3" d="M132.966,156.053v9.385a.064.064,0,0,1-.064.063.066.066,0,0,1-.03-.009l-13.2-7.621a.062.062,0,0,1-.031-.054v-9.382a.063.063,0,0,1,.094-.054l13.2,7.618A.063.063,0,0,1,132.966,156.053Z" fill="none" stroke="#2d3436" stroke-miterlimit="10" stroke-width="0.5"/>
          <path id="路径_37104-3" data-name="路径 37104-3" d="M133,156l13.205-7.624a.062.062,0,0,1,.085.023.068.068,0,0,1,.008.031v9.382a.062.062,0,0,1-.031.054l-13.205,7.627a.062.062,0,0,1-.085-.022.072.072,0,0,1-.008-.032v-9.385A.061.061,0,0,1,133,156Z" fill="none" stroke="#2d3436" stroke-miterlimit="10" stroke-width="0.5"/>
        </g>
      </g>
      <path id="路径_37108" data-name="路径 37108" d="M406.7,180.249a3.348,3.348,0,0,0,.063-.6h0l.04-5.73a3.257,3.257,0,0,1-.064.6c-.011.063-.031.125-.047.188a3.289,3.289,0,0,1-.13.416c-.031.08-.064.16-.1.239s-.078.161-.122.241-.1.175-.158.261-.1.157-.162.235-.131.169-.2.253-.131.152-.2.227-.162.162-.247.243-.157.146-.242.217c-.065.055-.135.107-.2.161a7.9,7.9,0,0,1-.914.626l-83.428,48.483a10.473,10.473,0,0,1-1.554.729c-.184.07-.386.114-.576.176-.377.122-.752.247-1.148.337-.3.068-.613.108-.922.158-.283.046-.561.1-.849.135-.315.034-.636.038-.955.053-.29.014-.58.041-.872.039a16.11,16.11,0,0,1-1.673-.093c-.132-.014-.261-.04-.392-.058-.447-.06-.89-.13-1.322-.227-.094-.021-.187-.043-.28-.066a12.794,12.794,0,0,1-1.46-.444c-.071-.027-.138-.057-.207-.084a10.452,10.452,0,0,1-1.387-.655l-83.962-48.475a6.054,6.054,0,0,1-2.451-2.376,3.446,3.446,0,0,1-.4-1.6h0l-.041,5.73c0,1.436.946,2.875,2.85,3.975l83.962,48.475a10.45,10.45,0,0,0,1.387.655c.07.027.136.057.206.083a13,13,0,0,0,1.46.445c.094.023.186.045.281.066.116.026.229.059.347.081.319.064.648.1.975.146.131.017.259.044.392.058.524.056,1.054.091,1.585.1h.088c.292,0,.581-.024.872-.039.319-.015.639-.019.954-.053.289-.031.566-.089.849-.135s.562-.072.833-.132c.031-.007.059-.019.09-.026.4-.091.771-.215,1.148-.337.19-.062.391-.106.576-.176a10.471,10.471,0,0,0,1.554-.729l83.427-48.483a7.907,7.907,0,0,0,.915-.626c.032-.025.073-.047.1-.072s.065-.06.1-.089c.084-.071.163-.144.241-.217s.17-.16.247-.242.138-.151.2-.227.14-.168.2-.253.111-.156.162-.235.109-.173.157-.261.085-.16.123-.241c.021-.045.049-.089.068-.134s.019-.07.033-.1a3.578,3.578,0,0,0,.13-.416C406.671,180.374,406.69,180.312,406.7,180.249Z" fill="none" stroke="#2d3436" stroke-miterlimit="10" stroke-width="0.8"/>
      <path id="路径_37109" data-name="路径 37109" d="M403.966,169.95c3.769,2.176,3.789,5.7.045,7.876l-83.428,48.483a14.97,14.97,0,0,1-13.6,0l-83.961-48.475c-3.781-2.183-3.8-5.707-.056-7.883l83.427-48.483a14.989,14.989,0,0,1,13.609.007Z" fill="none" stroke="#2d3436" stroke-miterlimit="10" stroke-width="0.8"/>
      <g id="组_21346" data-name="组 21346">
        <g id="组_21343" data-name="组 21343">
          <path id="路径_37115" data-name="路径 37115" d="M545.243,246.364a1.3,1.3,0,0,0-.008-.176c-.008-.059-.008-.117-.014-.176s-.012-.119-.02-.178-.016-.122-.026-.183v-.007c-.009-.059-.019-.117-.03-.176s-.025-.126-.039-.189-.028-.127-.044-.19-.033-.129-.051-.193-.028-.1-.043-.148v-.013l-.009-.03c-.019-.063-.039-.125-.06-.188s-.042-.123-.064-.184-.044-.119-.067-.178-.046-.117-.07-.176l-.057-.132v-.012l-.013-.029c-.026-.059-.052-.117-.08-.176s-.06-.127-.092-.19-.074-.145-.112-.217-.085-.154-.129-.23l-.022-.039c-.01-.017-.018-.033-.028-.049-.085-.145-.175-.288-.268-.428-.074-.111-.151-.22-.229-.327h0c-.053-.071-.106-.141-.161-.21s-.092-.116-.139-.172-.093-.11-.14-.164-.093-.105-.141-.157l-.029-.03-.012-.012-.107-.113c-.036-.037-.1-.1-.153-.152s-.106-.1-.16-.148-.107-.1-.161-.141l-.083-.067-.018-.015-.061-.049c-.052-.042-.106-.083-.159-.122s-.1-.076-.158-.112-.1-.069-.154-.1-.1-.064-.154-.094l-.036-.021-25.689-14.833-.115-.064c-.05-.027-.1-.053-.149-.077l-.1-.045-.023-.011-.028-.013c-.049-.022-.1-.042-.145-.061s-.1-.038-.146-.055l-.025-.008-.021-.007c-.033-.012-.066-.023-.1-.033-.05-.015-.1-.029-.15-.041l-.071-.016-.031-.007-.046-.01c-.053-.01-.106-.019-.158-.026l-.1-.01h-.065c-.058,0-.114-.006-.17-.006h-.188a1.845,1.845,0,0,0-.209.03h0a.238.238,0,0,0-.044.012,1.7,1.7,0,0,0-.2.057l-.015.007a1.889,1.889,0,0,0-.278.128l-56.6,32.89a1.83,1.83,0,0,1,.5-.192.241.241,0,0,0,.044-.012,2.044,2.044,0,0,1,.271-.034h.056a2.541,2.541,0,0,1,.276.006h.032a2.791,2.791,0,0,1,.3.046l.031.007c.108.025.214.054.319.089l.021.007q.169.06.345.138l.022.011c.118.055.238.116.359.186l25.691,14.832a5.684,5.684,0,0,1,.721.5l.019.015a7.355,7.355,0,0,1,.664.62l.012.013a8.32,8.32,0,0,1,.608.733h0a8.6,8.6,0,0,1,.525.8l.022.04a8.623,8.623,0,0,1,.426.842v.011a8.1,8.1,0,0,1,.328.889v.013a6.9,6.9,0,0,1,.207.9h0a5.548,5.548,0,0,1,.071.882,4,4,0,0,1-.074.78l-.005.022a2.762,2.762,0,0,1-.2.64v.01a2.087,2.087,0,0,1-.273.422c-.033.042-.065.086-.1.124a1.752,1.752,0,0,1-.4.327h0l56.6-32.89a1.721,1.721,0,0,0,.4-.326c.036-.039.067-.083.1-.125a1.57,1.57,0,0,0,.131-.163,2.06,2.06,0,0,0,.137-.248v-.011l.005-.01c.027-.06.054-.121.078-.185s.044-.125.063-.191.034-.122.048-.185c.006-.026.011-.053.016-.079V247.3c.006-.025.011-.05.017-.076.01-.057.018-.115.025-.173s.013-.116.018-.175.009-.113.01-.171,0-.115,0-.175v-.01A.7.7,0,0,0,545.243,246.364Z" fill="none" stroke="#2d3436" stroke-miterlimit="10" stroke-width="0.7"/>
          <path id="路径_37126" data-name="路径 37126" d="M520.6,174.718l55.262,32.022-44.483,27.979" fill="none" stroke="#2d3436" stroke-width="0.5"/>
        </g>
        <g id="组_21344" data-name="组 21344">
          <path id="路径_37116" data-name="路径 37116" d="M485.036,273.164a7.962,7.962,0,0,1,3.614,6.26c-.007,2.3-1.634,3.23-3.638,2.073l-25.691-14.833a7.965,7.965,0,0,1-3.609-6.257c.006-2.3,1.633-3.23,3.633-2.076Z" fill="none" stroke="#2d3436" stroke-miterlimit="10" stroke-width="0.7"/>
        </g>
        <g id="组_21345" data-name="组 21345">
          <path id="路径_37117" data-name="路径 37117" d="M474.039,270.38a1.153,1.153,0,0,1,.522.9c0,.332-.236.466-.526.3l-3.713-2.143a1.152,1.152,0,0,1-.521-.9c0-.332.236-.466.525-.3Z" fill="none" stroke="#2d3436" stroke-width="0.7"/>
        </g>
        <path id="路径_37118" data-name="路径 37118" d="M514.078,229.31a1.6,1.6,0,0,1-.794-.19.466.466,0,0,1-.006-.885,1.756,1.756,0,0,1,1.588,0,.549.549,0,0,1,.323.444.541.541,0,0,1-.318.441A1.6,1.6,0,0,1,514.078,229.31Zm3.306,1.265a.54.54,0,0,0,.317-.441.548.548,0,0,0-.322-.444,1.639,1.639,0,0,0-.8-.19,1.617,1.617,0,0,0-.792.19.466.466,0,0,0,.005.885,1.75,1.75,0,0,0,1.588,0Zm2.536,1.455a.466.466,0,0,0-.006-.885,1.754,1.754,0,0,0-1.587,0,.466.466,0,0,0,0,.885,1.75,1.75,0,0,0,1.588,0Z" fill="#09285a" opacity="0.2"/>
      </g>
      <path id="路径_37125" data-name="路径 37125" d="M390.826,221.876l65.1,38.007" fill="none" stroke="#2d3436" stroke-width="0.5"/>
    </g>
    <g id="组_21364" data-name="组 21364" transform="translate(325.359 3156.069)">
      <path id="路径_37121" data-name="路径 37121" d="M304.263,85.816a.43.43,0,0,1,.622.15l1.65,3.057c.049.147,8.308,14.848,27.159,25.732.7.4,1.437.83,2.183,1.2l2.4,1.284a.427.427,0,0,1,.227.38l-.126,44.716c-.034,11.744-3.507,26.985-33.111,23.023l-.943-.144-.941-.944c-29.53-30.179-32.906-49.318-32.872-61.118l.125-44.205a.43.43,0,0,1,.656-.364l1.976,1.226c.741.456,1.464.888,2.175,1.3,18.59,10.733,26.8,6,27.3,5.747a.407.407,0,0,0,.05-.029Z" fill="none" stroke="#2d3436" stroke-miterlimit="10" stroke-width="1.6"/>
    </g>
    <path id="路径_37123" data-name="路径 37123" d="M2606.909,3244.715l-.134,31.613,11.116,15.215,13.573,18.295h31.482l36.2-1.729-.787-9.9v-38.667l-9.6-6.13-19.991-13.99-24.241-11.946-8.028,2.358Z" transform="translate(-2010.132)" fill="#fff"/>
    <path id="路径_37120" data-name="路径 37120" d="M360.521,101.638c-.746-.374-1.487-.8-2.183-1.205C339.487,89.55,331.228,74.848,331.179,74.7l-1.667-3.089a.43.43,0,0,0-.594-.167l-2.8,1.625-.092.031-.2.064-.186.054-.226.063-.21.053c-.082.021-.166.041-.253.06s-.154.034-.233.051l-.238.047q-.279.054-.588.1l-.133.021c-.248.035-.512.066-.786.092l-.278.022c-.152.012-.306.023-.465.032l-.325.013c-.161.006-.325.011-.494.013-.125,0-.252,0-.381,0s-.266,0-.4-.006-.29-.008-.438-.014-.283-.014-.428-.023c-.162-.009-.326-.021-.494-.035l-.365-.031c-.183-.018-.372-.039-.561-.061-.122-.014-.243-.028-.368-.044-.1-.013-.2-.03-.3-.044-.456-.064-.928-.141-1.418-.234l-.2-.036c-.5-.1-1.016-.215-1.549-.345l-.393-.1q-.683-.176-1.4-.388c-.086-.026-.169-.048-.257-.075-.54-.164-1.1-.348-1.67-.547-.146-.051-.3-.106-.445-.159q-.68-.245-1.39-.524c-.156-.061-.31-.12-.469-.184-.6-.244-1.219-.5-1.854-.787q-.663-.3-1.349-.623l-.354-.171q-.571-.276-1.159-.574L303.4,68.6q-.726-.372-1.474-.778c-.6-.328-1.215-.669-1.841-1.03-.711-.411-1.434-.842-2.175-1.3L295.5,64a.428.428,0,0,0-.442-.006l-23.8,13.832a.43.43,0,0,0-.011.737l2.022,1.254q.8.492,1.572.947c.2.118.4.236.6.351.626.361,1.238.7,1.841,1.03l.08.045c.473.256.936.5,1.394.734l.366.185c.2.1.4.2.593.3s.377.182.565.273l.355.171c.435.207.865.407,1.286.6l.063.026c.635.284,1.251.543,1.854.787.054.022.112.049.166.07.1.042.2.074.3.115q.711.279,1.391.524c.093.033.193.074.285.107.054.019.1.033.159.052.572.2,1.13.383,1.67.547.021.006.043.014.063.021.067.02.127.033.194.053.481.143.948.271,1.4.388.073.019.153.044.225.063s.11.023.168.037c.533.131,1.051.248,1.549.345l.054.013c.05.009.093.014.142.023.491.093.962.171,1.418.235.054.008.114.02.167.028l.132.015c.125.017.246.03.368.044.189.023.377.044.561.061.123.012.244.022.365.032l.273.024c.076,0,.147.006.221.011.145.009.288.016.428.022s.294.012.438.015l.4.006.2,0c.063,0,.12,0,.182,0,.167,0,.33-.006.491-.012.111,0,.221-.008.328-.014.159-.008.312-.019.463-.031.067-.006.14-.008.206-.014l.073-.009c.275-.026.538-.056.786-.091.047-.007.088-.015.133-.021.206-.031.4-.065.588-.1.03-.005.066-.01.1-.016l.143-.031c.08-.016.157-.033.233-.05l.253-.06.21-.054c.078-.021.153-.041.227-.063l.185-.054c.07-.021.136-.042.2-.064l.162-.053.053-.018.069-.026c.117-.042.224-.082.321-.121l.075-.03c.113-.046.211-.089.3-.128l.053-.025c.068-.032.127-.06.175-.085l.04-.02.092-.047.009-.005a.331.331,0,0,1,.037-.018l1.591-.924a.43.43,0,0,1,.594.167l1.583,2.933c.049.147,8.308,14.848,27.159,25.732.7.4,1.437.83,2.183,1.2l2.4,1.284a.427.427,0,0,1,.227.38l-.126,44.716c-.021,7.221-1.342,15.764-9.237,20.352l24.644-14.322c7.9-4.588,9.216-13.131,9.237-20.351l.126-44.717a.427.427,0,0,0-.227-.38Z" transform="translate(325.359 3156.069)" fill="none" stroke="#2d3436" stroke-miterlimit="10" stroke-width="1.6"/>
    <path id="路径_37124" data-name="路径 37124" d="M2606.656,3279.891c.07,5.739,1.881,14.5,3.422,17.967s23.122-9.151,23.122-9.151l-8.848-13.8-17.7-.968S2606.586,3274.151,2606.656,3279.891Z" transform="translate(-2010)" fill="#fff"/>
    <path id="路径_37122" data-name="路径 37122" d="M322.214,128.9a6.3,6.3,0,0,0-2.2-2.323,2.223,2.223,0,0,0-2.21-.221l-17.826,10.159-8.76-15.178a6.309,6.309,0,0,0-2.2-2.323,2.223,2.223,0,0,0-2.21-.221c-1.221.691-1.227,2.957-.014,5.063l10.96,18.995a6.341,6.341,0,0,0,2.2,2.308,2.18,2.18,0,0,0,2.206.217L322.2,133.967C323.426,133.279,323.432,131.013,322.214,128.9Z" transform="translate(325.359 3156.069)" fill="#2d3436"/>
  </g>
</svg>
