<svg xmlns="http://www.w3.org/2000/svg" width="317.227" height="269.396" viewBox="0 0 317.227 269.396">
  <g id="没有剖析" transform="translate(-1089.6 -3109.422)">
    <g id="组_21409" data-name="组 21409">
      <path id="路径_37127" data-name="路径 37127" d="M-1328.268,295.284c-.1-.147-.185-.293-.267-.443s-.143-.272-.208-.41c-.035-.075-.083-.15-.115-.226-.025-.058-.033-.118-.056-.177a6.024,6.024,0,0,1-.221-.705c-.026-.107-.059-.212-.08-.319a5.537,5.537,0,0,1-.107-1.019V284.2a5.564,5.564,0,0,0,.108,1.023c.021.107.053.213.08.319a6.1,6.1,0,0,0,.221.706c.052.135.108.27.171.4s.133.275.208.411.172.3.267.441.176.267.274.4.224.288.344.43.222.257.342.385.274.276.42.412.266.247.408.369c.185.156.381.309.585.462.1.072.191.146.292.217.321.224.657.445,1.019.655l141.449,82.2c.408.237.834.457,1.273.664.147.069.3.127.454.193.3.131.595.263.906.38.185.07.379.13.568.194.286.1.569.2.862.287.209.063.426.115.638.172.283.076.565.154.853.218.248.057.5.1.753.154s.485.1.73.138.516.075.776.11.495.069.745.1.529.046.794.066c.249.019.5.041.75.055s.534.016.8.022c.251.006.5.014.755.013.13,0,.258-.008.388-.01.686-.014,1.371-.051,2.051-.114.114-.011.229-.017.342-.03.728-.076,1.447-.187,2.156-.321.191-.036.382-.075.572-.116q.483-.1.957-.224c.212-.055.423-.11.631-.171.317-.091.629-.191.937-.295.195-.066.39-.129.58-.2.331-.123.651-.257.969-.395.156-.067.316-.129.467-.2.463-.214.913-.443,1.343-.69l142.354-82.189a10.278,10.278,0,0,0,4.157-4.028,5.88,5.88,0,0,0,.675-2.711h0v7.783c.007,2.434-1.6,4.876-4.831,6.739l-142.354,82.188c-.43.248-.88.477-1.343.692-.152.07-.313.132-.469.2-.318.138-.638.272-.968.394-.19.07-.385.133-.579.2-.309.1-.621.2-.938.3-.209.06-.42.115-.632.169q-.473.121-.956.225c-.119.025-.234.059-.355.083-.072.015-.147.019-.218.033-.709.134-1.427.245-2.156.321-.113.013-.226.018-.339.028q-1.022.1-2.053.114c-.08,0-.159.013-.239.014-.05,0-.1,0-.149,0-.254,0-.506-.008-.76-.013s-.53-.009-.8-.023-.505-.035-.757-.055-.526-.038-.786-.066-.5-.063-.75-.1-.516-.067-.772-.109-.489-.091-.734-.139c-.2-.039-.4-.069-.594-.113-.052-.011-.1-.027-.155-.04-.291-.066-.574-.143-.86-.22-.211-.057-.424-.108-.631-.171-.295-.088-.579-.189-.866-.288-.189-.065-.381-.124-.565-.193-.311-.117-.608-.249-.906-.38-.15-.066-.307-.125-.454-.195-.439-.206-.865-.427-1.273-.664l-141.449-82.2c-.362-.212-.7-.431-1.019-.656-.1-.071-.195-.144-.292-.217-.139-.1-.286-.2-.416-.309-.06-.05-.109-.1-.168-.152-.143-.121-.276-.243-.408-.367s-.288-.273-.42-.413-.232-.255-.342-.384-.237-.284-.344-.429S-1328.182,295.418-1328.268,295.284Z" transform="translate(2419.323 2994.841)" fill="none" stroke="#2d3436" stroke-miterlimit="10" stroke-width="0.8"/>
      <g id="组_21383" data-name="组 21383" transform="translate(1090 3187.35)">
        <path id="路径_37128" data-name="路径 37128" d="M-1324.508,288.548c-6.391,3.689-6.424,9.665-.076,13.354l141.449,82.2c6.348,3.689,16.663,3.689,23.052,0l142.354-82.189c6.409-3.7,6.442-9.675.094-13.364l-141.448-82.2c-6.349-3.689-16.664-3.689-23.073.011Z" transform="translate(1329.323 -203.584)" fill="none" stroke="#2d3436" stroke-miterlimit="10" stroke-width="0.8"/>
      </g>
      <path id="路径_37128-2" data-name="路径 37128" d="M-1194,219.762a5.372,5.372,0,0,0-4.887,0l-76.211,44.289c-1.349.784-1.354,2.053,0,2.837l128.8,74.365a5.4,5.4,0,0,0,4.9-.007l76.211-44.289c1.349-.784,1.342-2.046-.016-2.83Z" transform="translate(2426.642 2985.91)" fill="none" stroke="#2d3436" stroke-miterlimit="10" stroke-width="0.8"/>
      <path id="路径_37129" data-name="路径 37129" d="M-1206.838,230.051a.359.359,0,0,1,0-.677l5.321-3.092a1.291,1.291,0,0,1,1.166,0l5.357,3.092a.358.358,0,0,1,0,.676l-5.321,3.093a1.292,1.292,0,0,1-1.166,0Zm13.053,7.536a1.3,1.3,0,0,0,1.167,0l5.321-3.093a.358.358,0,0,0,0-.676l-5.357-3.092a1.294,1.294,0,0,0-1.167,0l-5.321,3.092a.358.358,0,0,0,0,.676Zm7.7,4.444a1.28,1.28,0,0,0,1.167,0l5.321-3.093c.319-.184.328-.485,0-.676l-5.344-3.086a1.276,1.276,0,0,0-1.167,0l-5.322,3.093c-.318.184-.328.485,0,.676Zm-30.69,0a1.3,1.3,0,0,0,1.167,0l5.321-3.093a.358.358,0,0,0,0-.676l-5.356-3.092a1.294,1.294,0,0,0-1.167,0l-5.322,3.092a.358.358,0,0,0,0,.676Zm21.371,2.805,5.321-3.093c.318-.184.316-.49-.015-.681l-5.345-3.086a1.276,1.276,0,0,0-1.167,0l-5.321,3.092c-.318.185-.327.485,0,.676l5.345,3.086A1.3,1.3,0,0,0-1195.405,244.837Zm-19.033-2.129a.358.358,0,0,0,0,.676l5.357,3.092a1.294,1.294,0,0,0,1.167,0l5.322-3.092a.358.358,0,0,0,0-.676l-5.356-3.093a1.3,1.3,0,0,0-1.167,0Zm43.758,8.219a1.3,1.3,0,0,0,1.167,0l5.322-3.093a.358.358,0,0,0,0-.676l-5.357-3.092a1.294,1.294,0,0,0-1.167,0l-5.321,3.092a.358.358,0,0,0,0,.676Zm-9.33,2.8,5.321-3.092a.358.358,0,0,0,0-.676l-5.356-3.093a1.3,1.3,0,0,0-1.167,0l-5.321,3.093a.358.358,0,0,0,0,.676l5.357,3.092A1.292,1.292,0,0,0-1180.011,253.725Zm17.028,1.645a1.294,1.294,0,0,0,1.167,0l5.321-3.092a.358.358,0,0,0,0-.676l-5.355-3.093a1.3,1.3,0,0,0-1.167,0l-5.321,3.093a.358.358,0,0,0,0,.676Zm-24.2-3.092a.358.358,0,0,0,0-.676l-5.355-3.093a1.3,1.3,0,0,0-1.167,0l-5.321,3.093a.358.358,0,0,0,0,.676l5.357,3.093a1.3,1.3,0,0,0,1.167,0Zm-51.427-3.711a1.3,1.3,0,0,0-1.167,0L-1245,251.6a.358.358,0,0,0,0,.676l6.394,3.692a1.3,1.3,0,0,0,1.167,0l5.223-3.035a.359.359,0,0,0,0-.677Zm66.26,2.741a1.294,1.294,0,0,0-1.167,0l-5.321,3.092a.359.359,0,0,0,0,.677l5.356,3.092a1.294,1.294,0,0,0,1.167,0l5.321-3.092a.359.359,0,0,0,0-.677Zm17.067,8.505a1.292,1.292,0,0,0,1.166,0l5.321-3.092a.358.358,0,0,0,0-.676l-5.357-3.093a1.3,1.3,0,0,0-1.166,0l-5.321,3.093a.358.358,0,0,0,0,.676Zm-24.2-3.092a.358.358,0,0,0,0-.676l-5.357-3.093a1.3,1.3,0,0,0-1.166,0l-5.321,3.093a.358.358,0,0,0,0,.676l5.357,3.092a1.292,1.292,0,0,0,1.166,0Zm-53.932-.95a1.294,1.294,0,0,0-1.167,0l-1.59.925a.358.358,0,0,0,0,.676l6.394,3.691a1.276,1.276,0,0,0,1.167,0l1.592-.925c.317-.184.326-.485,0-.676Zm68.777-.014a1.28,1.28,0,0,0-1.167,0l-5.322,3.093c-.318.184-.328.485,0,.676l5.345,3.086a1.28,1.28,0,0,0,1.167,0l5.321-3.093c.318-.184.328-.485,0-.676Zm-18.995,4.731a.359.359,0,0,0,0,.677l5.355,3.092a1.294,1.294,0,0,0,1.167,0l5.321-3.092a.359.359,0,0,0,0-.677l-5.357-3.092a1.294,1.294,0,0,0-1.167,0Zm-37.326-1.734a1.3,1.3,0,0,0-1.167,0l-5.222,3.035a.358.358,0,0,0,0,.676l6.394,3.692a1.28,1.28,0,0,0,1.167,0l5.222-3.035c.318-.185.328-.485,0-.677Zm64.018,1.447a1.278,1.278,0,0,0-1.166,0l-5.321,3.093c-.319.184-.328.485,0,.676l5.345,3.086a1.28,1.28,0,0,0,1.167,0l5.322-3.093c.317-.184.328-.485,0-.676Zm-30.559,7.587a1.273,1.273,0,0,0,1.167,0l5.31-3.086c.33-.191.317-.49,0-.676l-5.356-3.092a1.276,1.276,0,0,0-1.167,0l-5.31,3.086c-.33.191-.317.49,0,.676Zm47.614.912a1.3,1.3,0,0,0,1.178.006l5.32-3.092c.319-.185.318-.491-.015-.683l-5.344-3.086a1.3,1.3,0,0,0-1.167,0l-5.322,3.093a.358.358,0,0,0,0,.676Zm-9.357-4.055a1.294,1.294,0,0,0-1.167,0l-5.321,3.092a.359.359,0,0,0,0,.677l5.355,3.092a1.294,1.294,0,0,0,1.167,0l5.322-3.092a.359.359,0,0,0,0-.677Zm-24.082,4.5c.33-.191.316-.49,0-.676l-5.357-3.092a1.274,1.274,0,0,0-1.166,0l-5.311,3.086c-.329.191-.316.49,0,.676l5.356,3.092a1.276,1.276,0,0,0,1.167,0Zm41.147,4a1.294,1.294,0,0,0,1.167,0l5.321-3.092a.359.359,0,0,0,0-.677l-5.357-3.092a1.292,1.292,0,0,0-1.166,0l-5.321,3.093a.358.358,0,0,0,0,.676Zm-36.06-3.774c-.319.185-.316.491.015.683l5.345,3.086a1.28,1.28,0,0,0,1.167,0l5.321-3.093c.317-.184.328-.485,0-.676l-5.345-3.086a1.3,1.3,0,0,0-1.177-.006Zm26.692-.287a1.294,1.294,0,0,0-1.167,0l-5.321,3.092a.358.358,0,0,0,0,.676l5.357,3.093a1.3,1.3,0,0,0,1.167,0l5.321-3.093a.358.358,0,0,0,0-.676Zm-62.871-.849a1.3,1.3,0,0,0-1.166,0l-5.322,3.092a.358.358,0,0,0,0,.676l6.914,3.992a1.274,1.274,0,0,0,1.166,0l5.321-3.093c.319-.184.328-.485,0-.676Zm43.887,5.585a.359.359,0,0,0,0,.677l5.345,3.085a1.294,1.294,0,0,0,1.177.007l5.321-3.093c.318-.184.316-.49-.015-.681l-5.345-3.086a1.294,1.294,0,0,0-1.167,0Zm-23.142,5.044a1.3,1.3,0,0,0,1.177-.006l5.31-3.086c.33-.191.317-.491,0-.676l-5.357-3.093a1.278,1.278,0,0,0-1.166,0l-5.311,3.086c-.329.191-.327.5-.007.683Zm49.824-5.337a1.3,1.3,0,0,0-1.167,0l-5.321,3.093a.358.358,0,0,0,0,.676l5.357,3.093a1.3,1.3,0,0,0,1.166,0l5.321-3.093a.358.358,0,0,0,0-.676Zm17.066,8.507a1.3,1.3,0,0,0,1.167,0l5.321-3.093a.358.358,0,0,0,0-.676l-5.356-3.092a1.3,1.3,0,0,0-1.167,0l-5.321,3.093a.358.358,0,0,0,0,.676Zm-36.05-3.769a.358.358,0,0,0,0,.676l5.357,3.093a1.3,1.3,0,0,0,1.167,0l5.321-3.093a.358.358,0,0,0,0-.676l-5.356-3.092a1.294,1.294,0,0,0-1.167,0Zm26.72,6.567,5.321-3.092a.358.358,0,0,0,0-.676l-5.345-3.086a1.3,1.3,0,0,0-1.177-.007l-5.322,3.093c-.318.184-.317.49.015.681l5.344,3.086A1.294,1.294,0,0,0-1126.118,284.84Zm17.028,1.646a1.274,1.274,0,0,0,1.166,0l5.321-3.092c.319-.185.328-.485,0-.676l-5.345-3.086a1.3,1.3,0,0,0-1.177-.007l-5.321,3.093c-.318.184-.316.49.015.683Zm-36.05-3.769a.358.358,0,0,0,0,.676l5.357,3.093a1.3,1.3,0,0,0,1.167,0l5.32-3.093a.358.358,0,0,0,0-.676l-5.355-3.093a1.3,1.3,0,0,0-1.167,0Zm-23.143,5.044a1.3,1.3,0,0,0,1.179-.007l5.31-3.086c.329-.191.316-.49,0-.676l-5.357-3.092a1.273,1.273,0,0,0-1.167,0l-5.31,3.085c-.329.192-.328.5-.007.683Zm49.836-5.331a1.273,1.273,0,0,0-1.167,0l-5.322,3.092c-.318.185-.328.485,0,.676l5.345,3.086a1.277,1.277,0,0,0,1.167,0l5.321-3.092c.318-.185.328-.485,0-.676Zm-7.147,5.407a.358.358,0,0,0,0-.676l-5.357-3.093a1.3,1.3,0,0,0-1.167,0l-5.32,3.093a.358.358,0,0,0,0,.676l5.356,3.092a1.294,1.294,0,0,0,1.167,0Zm-4.151,3.768c-.318.185-.316.491.015.683l5.345,3.086a1.277,1.277,0,0,0,1.167,0l5.322-3.092c.318-.185.328-.485,0-.677l-5.345-3.085a1.3,1.3,0,0,0-1.178-.007Zm-23.142,5.044a1.3,1.3,0,0,0,1.189,0l5.31-3.086c.329-.191.316-.49-.015-.681l-5.345-3.086a1.26,1.26,0,0,0-1.167,0l-5.31,3.086c-.329.191-.339.49-.007.681Zm60.332-8.13a1.3,1.3,0,0,0-1.167,0l-5.321,3.093a.358.358,0,0,0,0,.676l10.2,5.891a1.294,1.294,0,0,0,1.167,0l5.32-3.092a.358.358,0,0,0,0-.676Zm-17.633,8.213c.318-.185.316-.491-.015-.683l-5.345-3.086a1.3,1.3,0,0,0-1.166,0l-5.321,3.093a.358.358,0,0,0,0,.676l5.345,3.086a1.3,1.3,0,0,0,1.177.006Zm-84.967-23.139a1.3,1.3,0,0,0-1.167,0l-5.321,3.093a.358.358,0,0,0,0,.676l42.187,24.356a1.3,1.3,0,0,0,1.178.007l5.321-3.093c.318-.184.316-.49-.015-.681Zm99.8,22.17a1.294,1.294,0,0,0-1.167,0l-5.321,3.092a.359.359,0,0,0,0,.677l5.356,3.092a1.294,1.294,0,0,0,1.167,0l5.321-3.092a.359.359,0,0,0,0-.677Zm-24.082,4.5c.329-.191.316-.49,0-.676l-5.345-3.086a1.28,1.28,0,0,0-1.178-.006l-5.31,3.086c-.329.191-.316.49.015.681l5.345,3.086a1.277,1.277,0,0,0,1.167,0Zm-18.045,5.279a1.3,1.3,0,0,0,1.177-.006l5.31-3.086c.33-.191.317-.491,0-.676l-5.356-3.093a1.28,1.28,0,0,0-1.167,0l-5.311,3.086c-.329.191-.326.5-.007.683Zm29.631-8.136a1.3,1.3,0,0,0-1.167,0l-5.321,3.093a.358.358,0,0,0,0,.676l10.2,5.891a1.3,1.3,0,0,0,1.167,0l5.321-3.093a.358.358,0,0,0,0-.676Zm-42.766,1.9a1.292,1.292,0,0,0-1.166,0l-5.321,3.092a.358.358,0,0,0,0,.676l6.914,3.992a1.274,1.274,0,0,0,1.166,0l5.321-3.092c.318-.185.328-.485,0-.677Zm21.96,3.819a1.274,1.274,0,0,0-1.166,0l-5.311,3.086c-.329.191-.328.5-.007.682l15.7,9.066a1.3,1.3,0,0,0,1.178-.006l5.31-3.086c.329-.192.316-.491,0-.676Zm-5,5.974a1.3,1.3,0,0,0-1.166,0l-5.321,3.093a.358.358,0,0,0,0,.676l5.357,3.092a1.291,1.291,0,0,0,1.166,0l5.322-3.092a.358.358,0,0,0,0-.676Zm-70.627-68.716a1.273,1.273,0,0,0,1.167,0l5.321-3.092c.317-.185.327-.485,0-.676l-10.2-5.891a1.294,1.294,0,0,0-1.167,0l-5.321,3.092a.358.358,0,0,0,0,.676Zm25.9,6.1a1.3,1.3,0,0,0,1.167,0l5.321-3.093a.358.358,0,0,0,0-.676l-5.357-3.092a1.292,1.292,0,0,0-1.166,0l-5.321,3.092a.358.358,0,0,0,0,.676Zm-9.329,2.8,5.321-3.093a.358.358,0,0,0,0-.676l-5.356-3.093a1.3,1.3,0,0,0-1.167,0l-5.321,3.092a.358.358,0,0,0,0,.676l5.357,3.093A1.3,1.3,0,0,0-1187.708,249.282Zm-30.6.727a1.28,1.28,0,0,0,1.167,0l5.31-3.086c.329-.191.316-.491,0-.676l-11.474-6.625a1.276,1.276,0,0,0-1.167,0l-5.31,3.086c-.33.191-.317.49,0,.676Zm23.412-2.181c.318-.185.328-.485,0-.676l-5.345-3.086a1.276,1.276,0,0,0-1.167,0l-5.321,3.092c-.318.185-.326.485,0,.676l5.345,3.086a1.274,1.274,0,0,0,1.166,0Zm-15.714,6.625a1.274,1.274,0,0,0,1.166,0l5.311-3.085c.329-.192.316-.491,0-.677l-5.356-3.092a1.276,1.276,0,0,0-1.167,0l-5.31,3.086c-.33.191-.318.49,0,.676Zm-20.346-10.387a1.276,1.276,0,0,0-1.167,0l-5.288,3.074a.358.358,0,0,0,0,.676l15.262,8.811a1.3,1.3,0,0,0,1.167,0l5.289-3.074c.33-.191.316-.49,0-.676Zm28.043,14.83a1.26,1.26,0,0,0,1.167,0l5.31-3.086c.33-.191.328-.485,0-.676l-5.345-3.086a1.259,1.259,0,0,0-1.167,0l-5.31,3.086c-.329.191-.328.485,0,.676Zm-26.877-5.234a1.294,1.294,0,0,0-1.167,0l-1.58.918c-.329.191-.328.5-.007.681l6.394,3.692a1.281,1.281,0,0,0,1.177-.007l1.58-.918c.319-.184.328-.485,0-.676Zm15.342,7.409a1.3,1.3,0,0,0,1.167,0l5.288-3.074c.329-.191.316-.491,0-.676l-5.357-3.093a1.28,1.28,0,0,0-1.167,0l-5.288,3.074a.358.358,0,0,0,0,.676Zm19.232,2.269a1.28,1.28,0,0,0,1.177.007l5.311-3.086c.329-.191.316-.491-.015-.683l-5.345-3.086a1.28,1.28,0,0,0-1.167,0l-5.31,3.086c-.33.191-.316.491,0,.676Zm47.624.918a1.277,1.277,0,0,0,1.167,0l5.321-3.093c.319-.184.328-.483,0-.676l-5.345-3.086a1.3,1.3,0,0,0-1.178-.006l-5.321,3.092c-.317.185-.316.491.015.683Zm-52.7-1.817c.329-.191.316-.491,0-.676l-5.356-3.093a1.28,1.28,0,0,0-1.167,0l-5.288,3.074a.358.358,0,0,0,0,.676l.155.127,5.169,2.984a1.3,1.3,0,0,0,1.177-.006Zm24.352,2.492a.358.358,0,0,0,0,.676l5.356,3.093a1.3,1.3,0,0,0,1.167,0l5.321-3.093a.358.358,0,0,0,0-.676l-5.356-3.092a1.294,1.294,0,0,0-1.167,0Zm-16.655,1.952c.33-.192.328-.485,0-.677l-5.345-3.086a1.281,1.281,0,0,0-1.177-.006l-5.311,3.086c-.329.191-.328.5,0,.688l5.345,3.086a1.277,1.277,0,0,0,1.177-.007Zm-19.478-3.061a1.3,1.3,0,0,0-1.178-.006l-5.321,3.092c-.318.185-.316.491.015.683l5.3,3.06a1.276,1.276,0,0,0,1.167,0l5.321-3.092c.318-.185.328-.485,0-.676Zm20.688,10.6a1.3,1.3,0,0,0,1.189,0l5.311-3.086c.329-.191.316-.491-.015-.683l-5.345-3.086a1.259,1.259,0,0,0-1.167,0l-5.31,3.086c-.33.191-.339.491-.008.683Zm25.754-.829c.329-.191.316-.491,0-.676l-5.357-3.093a1.28,1.28,0,0,0-1.167,0l-5.31,3.086c-.329.191-.316.491,0,.677l5.357,3.092a1.276,1.276,0,0,0,1.167,0Zm41.147,4a1.3,1.3,0,0,0,1.167,0L-1118,274.5a.358.358,0,0,0,0-.676l-5.357-3.092a1.294,1.294,0,0,0-1.167,0l-5.321,3.092a.358.358,0,0,0,0,.676Zm-33.449.44c.329-.191.316-.491,0-.676l-5.345-3.086a1.281,1.281,0,0,0-1.177-.007l-5.31,3.086c-.33.191-.316.491.015.683l5.345,3.086a1.277,1.277,0,0,0,1.166,0Zm-18.046,5.279a1.3,1.3,0,0,0,1.179-.007l5.31-3.086c.33-.191.316-.49,0-.676l-5.357-3.092a1.274,1.274,0,0,0-1.166,0l-5.311,3.086c-.329.191-.328.5-.007.681Zm25.754-.829c.329-.191.316-.49-.015-.682l-5.345-3.085a1.251,1.251,0,0,0-1.166,0l-5.311,3.086c-.329.191-.328.483,0,.676l5.345,3.085a1.28,1.28,0,0,0,1.178.007Zm7.7,4.444c.329-.191.316-.491,0-.676l-5.356-3.093a1.28,1.28,0,0,0-1.167,0l-5.31,3.086c-.33.191-.316.491,0,.676l5.357,3.093a1.278,1.278,0,0,0,1.166,0Zm41.136,4a1.3,1.3,0,0,0,1.178.007l5.321-3.093c.318-.184.316-.49-.015-.681l-5.345-3.086a1.294,1.294,0,0,0-1.167,0l-5.321,3.092a.358.358,0,0,0,0,.676Zm-59.192,1.275a1.277,1.277,0,0,0,1.177-.006l5.311-3.086c.329-.191.326-.485,0-.676l-5.345-3.086a1.281,1.281,0,0,0-1.177-.007l-5.31,3.086c-.33.191-.328.5,0,.689Zm49.873,1.53,5.321-3.092c.319-.185.318-.491-.015-.683l-5.345-3.086a1.3,1.3,0,0,0-1.166,0l-5.321,3.093a.358.358,0,0,0,0,.676l5.345,3.086A1.3,1.3,0,0,0-1110.712,293.735Zm-24.119-2.358c.329-.191.316-.491,0-.676l-5.355-3.093a1.28,1.28,0,0,0-1.167,0l-5.31,3.086c-.33.191-.317.491,0,.676l5.356,3.093a1.28,1.28,0,0,0,1.167,0Zm37.139,3.711a.358.358,0,0,0,0-.676l-5.357-3.093a1.3,1.3,0,0,0-1.167,0l-5.32,3.093a.358.358,0,0,0,0,.676l5.355,3.092a1.294,1.294,0,0,0,1.167,0Zm-35.919,3.819a1.273,1.273,0,0,0,1.167,0l5.31-3.086c.33-.191.316-.49,0-.676l-5.357-3.092a1.274,1.274,0,0,0-1.166,0l-5.311,3.086c-.329.191-.316.49,0,.676Zm-5.079-.9c.329-.191.316-.49,0-.676l-5.356-3.092a1.276,1.276,0,0,0-1.167,0l-5.31,3.086c-.33.192-.328.5-.007.683l5.356,3.093a1.3,1.3,0,0,0,1.177-.007Zm21.6,2.939a1.26,1.26,0,0,0-1.167,0l-5.311,3.086c-.329.191-.326.485,0,.676l11.784,6.8a1.278,1.278,0,0,0,1.166,0l5.311-3.086c.329-.191.316-.491,0-.676Zm-24.263,3.711a1.3,1.3,0,0,0-1.167,0l-5.321,3.093a.358.358,0,0,0,0,.676l5.345,3.086a1.3,1.3,0,0,0,1.178.006l5.322-3.092c.317-.185.316-.491-.015-.682Zm-50.441-18.216a2.685,2.685,0,0,0-2.445,0l-15.986,9.289a.748.748,0,0,0,.008,1.416l33.993,19.625a2.7,2.7,0,0,0,2.443,0l4.372-2.541,5.914-3.437,5.7-3.312a.75.75,0,0,0-.008-1.416Zm65.835,27.1a1.292,1.292,0,0,0-1.166,0l-5.321,3.092a.359.359,0,0,0,0,.677l5.357,3.092a1.292,1.292,0,0,0,1.166,0l5.321-3.093a.358.358,0,0,0,0-.676Z" transform="translate(2430.888 2986.869)" fill="none" stroke="#2d3436" stroke-miterlimit="10" stroke-width="0.3"/>
      <g id="组_21384" data-name="组 21384" transform="translate(1238.74 3286.822)">
        <path id="路径_37131" data-name="路径 37131" d="M-1192.973,292.76a16.26,16.26,0,0,1-5.315-.092.49.49,0,0,1-.168-.057c-.093-.053-.135-.134-.1-.214a.455.455,0,0,1,.466-.154,15.174,15.174,0,0,0,4.889.1,15.967,15.967,0,0,0,4.168-1.265.6.6,0,0,1,.5.018l.033.023c.128.1.1.234-.067.308A17.155,17.155,0,0,1-1192.973,292.76Z" transform="translate(1198.568 -291.029)" fill="none" stroke="#636e72" stroke-width="0.2"/>
      </g>
      <g id="组_21385" data-name="组 21385" transform="translate(1240.408 3284.476)">
        <path id="路径_37132" data-name="路径 37132" d="M-1187.292,293.9c-1.25.628-2.43,1.221-2.611,2.133-.024.121-.213.207-.42.193a.526.526,0,0,1-.224-.063.179.179,0,0,1-.11-.182c.214-1.083,1.562-1.76,2.867-2.414,1.49-.749,2.777-1.4,2.408-2.549a1.975,1.975,0,0,0-.951-1.04,4.556,4.556,0,0,0-1.927-.552,9.229,9.229,0,0,0-3.473.535,17.135,17.135,0,0,1-1.742.446,9.856,9.856,0,0,1-3.347.08.49.49,0,0,1-.168-.056c-.093-.055-.135-.135-.1-.214a.454.454,0,0,1,.465-.155,8.572,8.572,0,0,0,2.913-.074,16.289,16.289,0,0,0,1.632-.42,10.338,10.338,0,0,1,3.909-.579,5.618,5.618,0,0,1,2.371.678,2.423,2.423,0,0,1,1.163,1.271C-1184.186,292.339-1185.766,293.131-1187.292,293.9Z" transform="translate(1197.101 -288.966)" fill="none" stroke="#636e72" stroke-width="0.2"/>
      </g>
      <g id="组_21386" data-name="组 21386" transform="translate(1238.884 3283.29)">
        <g id="组_21369" data-name="组 21369" transform="translate(2.985)">
          <path id="路径_37133" data-name="路径 37133" d="M-1183.332,292.6a6.645,6.645,0,0,1-2.876,2.079,10.731,10.731,0,0,0-1.9,1.1.574.574,0,0,1-.53.049.355.355,0,0,1-.047-.023c-.131-.075-.15-.2-.04-.284a11.331,11.331,0,0,1,2.021-1.174,6.147,6.147,0,0,0,2.653-1.889c.623-1.048.015-2.322-1.452-3.169-.166-.094-.341-.184-.528-.268a8.864,8.864,0,0,0-6.284-.146,7.6,7.6,0,0,1-3.162.58.532.532,0,0,1-.229-.064.179.179,0,0,1-.11-.179c.021-.121.208-.208.417-.2a6.409,6.409,0,0,0,2.71-.526,10.035,10.035,0,0,1,7.122.182,6.393,6.393,0,0,1,.593.3C-1183.3,289.932-1182.615,291.391-1183.332,292.6Z" transform="translate(1195.817 -287.924)" fill="none" stroke="#636e72" stroke-width="0.2"/>
        </g>
        <g id="组_21370" data-name="组 21370" transform="translate(1.215 7.009)">
          <path id="路径_37134" data-name="路径 37134" d="M-1194.659,294.506a2.378,2.378,0,0,0-.2.826c-.013.122-.192.214-.4.206a.535.535,0,0,1-.245-.064.185.185,0,0,1-.113-.169,4.09,4.09,0,0,1,.121-.653,10.326,10.326,0,0,1-1.6-.134.518.518,0,0,1-.166-.056c-.094-.055-.137-.136-.1-.216a.456.456,0,0,1,.469-.151,9.1,9.1,0,0,0,1.851.109.572.572,0,0,1,.3.064.451.451,0,0,1,.039.026A.149.149,0,0,1-1194.659,294.506Z" transform="translate(1197.374 -294.085)" fill="none" stroke="#636e72" stroke-width="0.2"/>
        </g>
        <g id="组_21371" data-name="组 21371" transform="translate(0.402 2.341)">
          <path id="路径_37135" data-name="路径 37135" d="M-1191.431,295.97c0,.027,0,.055,0,.082,0,.122-.165.222-.374.223a.551.551,0,0,1-.273-.065.192.192,0,0,1-.111-.154c0-.032,0-.065,0-.1.038-1.144,1.126-2.258,3.236-3.311l.035-.017a7.21,7.21,0,0,0,1.437-.854.594.594,0,0,0-.1-1.02c-.027-.019-.062-.042-.1-.066a2.9,2.9,0,0,0-2.049-.179,12.944,12.944,0,0,0-1.623.462,13.6,13.6,0,0,1-3.446.762,10.173,10.173,0,0,1-3.052-.18.453.453,0,0,1-.124-.048c-.106-.061-.143-.155-.084-.24a.511.511,0,0,1,.5-.119,8.733,8.733,0,0,0,2.637.152,12.635,12.635,0,0,0,3.191-.708,13.67,13.67,0,0,1,1.754-.5,4.185,4.185,0,0,1,2.826.276c.058.034.114.069.166.107a.9.9,0,0,1,.139,1.544,7.728,7.728,0,0,1-1.571.941l-.037.018C-1190.424,293.965-1191.4,294.942-1191.431,295.97Z" transform="translate(1198.088 -289.982)" fill="none" stroke="#636e72" stroke-width="0.2"/>
        </g>
        <g id="组_21372" data-name="组 21372" transform="translate(0 5.974)">
          <path id="路径_37136" data-name="路径 37136" d="M-1192.078,293.536a3.056,3.056,0,0,0-1.1,2.108c-.006.122-.181.216-.391.213a.543.543,0,0,1-.255-.065.188.188,0,0,1-.113-.163,3.535,3.535,0,0,1,.775-1.907,18.421,18.421,0,0,1-4.992-.1.473.473,0,0,1-.171-.058c-.093-.053-.136-.133-.1-.212a.452.452,0,0,1,.464-.156,17.468,17.468,0,0,0,5.5-.016.577.577,0,0,1,.361.058.378.378,0,0,1,.053.038A.153.153,0,0,1-1192.078,293.536Z" transform="translate(1198.441 -293.175)" fill="none" stroke="#636e72" stroke-width="0.2"/>
        </g>
      </g>
      <path id="路径_37130" data-name="路径 37130" d="M-1276.112,259.869a1.727,1.727,0,0,0,1.018,1.422l128.8,74.365a5.4,5.4,0,0,0,4.9-.007l76.211-44.289c.079-.047.139-.1.209-.148a2.951,2.951,0,0,0,.25-.185,1.971,1.971,0,0,0,.274-.3c.014-.018.025-.036.038-.056a1.444,1.444,0,0,0,.166-.322c0-.013.007-.025.01-.036a1.212,1.212,0,0,0,.06-.356l-.016,5.64v.031a1.125,1.125,0,0,1-.023.2,1,1,0,0,1-.036.129l-.01.036c0,.009,0,.019-.009.03a1.306,1.306,0,0,1-.091.2c-.019.033-.044.065-.066.1s-.024.038-.037.056a.584.584,0,0,1-.036.053,1.913,1.913,0,0,1-.214.231c-.007.007-.017.011-.024.018a3,3,0,0,1-.25.185c-.058.04-.1.084-.167.123l-.042.025-76.211,44.289a5.4,5.4,0,0,1-4.9.007l-128.8-74.365a1.722,1.722,0,0,1-1.017-1.422Z" transform="translate(2426.64 2991.508)" fill="none" stroke="#2d3436" stroke-miterlimit="10" stroke-width="0.8"/>
      <path id="路径_37131-2" data-name="路径 37131" d="M-1077.04,212.255a8.074,8.074,0,0,1,3.666,6.349l-.255,89.566-131.415-75.029-.22-.126-.071-.04v-.3l.254-89.267c.007-2.335,1.657-3.276,3.689-2.1Z" transform="translate(2436.102 2971.855)" fill="none" stroke="#2d3436" stroke-miterlimit="10" stroke-width="0.8"/>
      <path id="路径_37132-2" data-name="路径 37132" d="M3241.2,3188.578v5.672l135.337,79.521h0l.331-10.548.19-13-16.513-14.17-99.667-62.731-10.2,5.736Z" transform="translate(-2010)" fill="#fff"/>
      <path id="路径_37133-2" data-name="路径 37133" d="M-1201.7,146.68l-.226,79.693,121.447,70.118.226-79.693Z" transform="translate(2436.845 2972.939)" fill="none" stroke="#2d3436" stroke-miterlimit="10" stroke-width="0.8"/>
      <path id="路径_37134-2" data-name="路径 37134" d="M-1202.358,141.29a3.011,3.011,0,0,0-.6-.131l-.055-.006a2.2,2.2,0,0,0-.592.03l-.03.007a1.814,1.814,0,0,0-.531.2l4.877-2.835.02-.011a1.741,1.741,0,0,1,.184-.09,1.789,1.789,0,0,1,.194-.068c.042-.013.088-.022.132-.031l.03-.007c.015,0,.03-.008.044-.01a2.037,2.037,0,0,1,.222-.026c.08,0,.161-.006.244,0,.027,0,.055.007.082.009l.055,0c.045.006.091.007.138.015a2.952,2.952,0,0,1,.324.068c.045.013.094.034.141.049s.085.028.129.044.108.033.164.057a4.343,4.343,0,0,1,.515.256l124.35,70.948a5.7,5.7,0,0,1,.692.48c.074.058.142.125.213.187.109.1.221.183.325.287.048.047.092.1.139.147l.123.131c.046.051.094.1.14.15.1.117.2.239.3.363.034.043.066.089.1.133l.051.069c.032.043.065.085.1.13.074.1.144.209.214.317s.127.206.189.311l.015.027.014.024c.05.085.1.172.145.258.055.1.108.208.158.313s.09.191.132.288l.007.015.007.016c.048.109.093.22.135.33s.085.231.125.347c.019.059.035.117.052.175l.024.075c.011.042.026.083.037.125.039.14.074.281.1.422.018.085.03.171.044.256.007.044.016.088.023.132s.015.082.02.122a5.554,5.554,0,0,1,.048.721l-.248,87.105a4.288,4.288,0,0,1-2.134,3.7l-2.748,1.6.254-89.566a5.817,5.817,0,0,0-.068-.843c-.007-.044-.015-.088-.023-.132a6.936,6.936,0,0,0-.185-.8l-.023-.074a8.258,8.258,0,0,0-.321-.869l-.007-.015a8.805,8.805,0,0,0-.433-.859l-.014-.024a9.154,9.154,0,0,0-.514-.786l-.05-.067a8.288,8.288,0,0,0-.538-.647c-.04-.044-.081-.088-.122-.13-.149-.155-.3-.3-.463-.433-.072-.061-.14-.13-.214-.188a5.58,5.58,0,0,0-.692-.479l-124.35-70.95a4.264,4.264,0,0,0-.679-.313Z" transform="translate(2436.262 2971.513)" fill="none" stroke="#2d3436" stroke-miterlimit="10" stroke-width="0.8"/>
      <path id="路径_37135-2" data-name="路径 37135" d="M2039.286,133.377l-1.1-.638.019-6.752c.019-7.016-4.938-15.586-11.029-19.1s-11.094-.7-11.113,6.318l-.019,6.752h0l-1.106-.638c-.836-.483-1.5-.089-1.5.855L2013.369,143a3.278,3.278,0,0,0,1.49,2.6l24.353,14.059c.836.483,1.5.091,1.5-.87l.065-22.826A3.276,3.276,0,0,0,2039.286,133.377Zm-5.606-3.238-13.136-7.584.016-6.754c.012-4.165,2.972-5.854,6.6-3.761a14.445,14.445,0,0,1,6.541,11.347Z" transform="translate(-728.945 3067.539)" fill="none" stroke="#2d3436" stroke-miterlimit="10" stroke-width="1.54"/>
      <g id="组_21387" data-name="组 21387">
        <path id="路径_37145" data-name="路径 37145" d="M3210.75,3215.656l1.922,1.063,2.75-1.062,8.5-5.737v-2.54l-9.131,1.2-5.389,3.261Z" transform="translate(-2018.87)" fill="#fff"/>
        <g id="组_21379" data-name="组 21379" transform="translate(-17.87 6)">
          <path id="路径_37141" data-name="路径 37141" d="M2006.02,69.153q-.2-.075-.384-.132c-.082-.025-.164-.049-.244-.069s-.149-.033-.223-.047c-.1-.019-.195-.034-.29-.045-.055-.006-.11-.013-.164-.016a3.151,3.151,0,0,0-.349-.007h-.082a3.081,3.081,0,0,0-.4.051c-.033.006-.064.015-.1.022a2.994,2.994,0,0,0-.3.087l-.091.032a2.569,2.569,0,0,0-.359.171l3.439-2,.03-.017a2.673,2.673,0,0,1,.274-.134c.018-.007.037-.012.054-.019s.062-.022.092-.032c.048-.017.094-.036.143-.051s.106-.024.159-.036c.032-.008.063-.016.095-.022l.052-.012a2.976,2.976,0,0,1,.33-.039h.022c.027,0,.054,0,.081,0,.086,0,.171-.006.259,0,.03,0,.061.007.091.009.054,0,.109.01.164.017s.1.007.153.015.091.021.137.029c.074.014.148.03.223.048.04.01.08.015.121.026s.082.03.123.042c.126.038.254.083.384.133.046.017.09.027.136.047.026.01.053.028.079.039a6.721,6.721,0,0,1,.687.341l30.005,17.324a8.447,8.447,0,0,1,.852.576c.047.035.094.069.14.106a10.061,10.061,0,0,1,.769.675c.021.021.044.037.065.057.04.039.076.084.116.124.124.126.245.255.365.389.038.042.079.081.116.124s.06.074.091.11c.072.085.143.172.213.26.046.057.095.112.14.17s.069.1.1.142c.053.069.1.139.155.209.034.048.07.093.1.142.056.079.108.161.162.242.037.055.074.108.11.163.014.023.03.044.044.067.1.152.192.306.283.462l.016.029c.018.031.035.063.053.095.063.111.127.223.187.336.027.051.052.1.079.155l.083.164c.024.049.05.1.073.145.061.126.118.254.175.381.01.025.022.049.033.073l.009.02c.07.162.137.326.2.49.012.029.021.059.032.088.023.061.044.122.065.182.03.082.061.163.088.245.021.064.039.128.059.191s.047.15.068.226c.014.046.03.093.043.14.023.084.041.167.062.251s.047.185.068.278c.007.032.017.065.024.1.014.067.022.134.034.2.028.146.054.291.075.436.006.04.016.08.021.12s0,.074.007.112a8.052,8.052,0,0,1,.063.959l-.214,75.307a4.4,4.4,0,0,1-.93,2.953,2.671,2.671,0,0,1-.661.544l-3.439,2a3.818,3.818,0,0,0,1.592-3.5l.213-75.307a8.066,8.066,0,0,0-.063-.959c-.009-.077-.016-.154-.028-.232-.02-.144-.047-.29-.074-.435-.019-.1-.037-.2-.059-.3s-.045-.185-.068-.278c-.033-.13-.066-.26-.1-.391-.022-.075-.046-.15-.069-.225q-.069-.219-.147-.438c-.021-.059-.042-.119-.064-.179-.076-.2-.155-.4-.242-.6l-.033-.072q-.118-.265-.248-.527c-.027-.054-.055-.108-.083-.162q-.127-.249-.267-.494c-.017-.031-.034-.063-.052-.094-.11-.189-.225-.374-.343-.557l-.109-.164q-.13-.194-.267-.383c-.051-.071-.1-.141-.154-.21-.08-.106-.162-.209-.245-.312-.07-.087-.14-.174-.212-.259s-.139-.158-.209-.236q-.179-.2-.364-.388c-.06-.061-.12-.121-.181-.18a9.687,9.687,0,0,0-.769-.676c-.046-.037-.093-.07-.14-.106a8.337,8.337,0,0,0-.852-.576l-30.005-17.323a6.649,6.649,0,0,0-.687-.342C2006.163,69.208,2006.091,69.181,2006.02,69.153Z" transform="translate(-822.227 3038.166)" fill="none" stroke="#2d3436" stroke-miterlimit="10" stroke-width="1"/>
          <path id="路径_37142" data-name="路径 37142" d="M2036.927,86.9a12,12,0,0,1,5.446,9.433l-.213,75.307c-.01,3.465-2.467,4.858-5.482,3.117l-30.005-17.324a12,12,0,0,1-5.446-9.426l.213-75.306c.01-3.472,2.466-4.865,5.482-3.124Z" transform="translate(-822.227 3038.166)" fill="none" stroke="#2d3436" stroke-miterlimit="10" stroke-width="1"/>
          <path id="路径_37143" data-name="路径 37143" d="M2028.227,121.425l-.633-.366.011-3.871a13.961,13.961,0,0,0-6.323-10.951c-3.5-2.021-6.36-.4-6.371,3.622l-.011,3.871h0l-.634-.366c-.479-.277-.859-.051-.86.49l-.037,13.086a1.88,1.88,0,0,0,.854,1.49l13.961,8.06c.479.277.859.052.861-.5l.037-13.086A1.878,1.878,0,0,0,2028.227,121.425Zm-3.214-1.856-7.531-4.348.009-3.872c.007-2.388,1.7-3.356,3.783-2.156a8.281,8.281,0,0,1,3.75,6.5Z" transform="translate(-822.227 3038.166)" fill="none" stroke="#2d3436" stroke-miterlimit="10" stroke-width="1"/>
        </g>
      </g>
      <g id="组_21388" data-name="组 21388" transform="translate(1464.177 3087.953)">
        <path id="路径_37276" data-name="路径 37276" d="M-166.63,113.881a4.613,4.613,0,0,1,2.09,3.62l-.01,3.614c0,1.329-.948,1.866-2.1,1.2a4.611,4.611,0,0,1-2.09-3.62l.01-3.614C-168.73,113.75-167.787,113.213-166.63,113.881Zm1.031,6.629.01-3.614a2.3,2.3,0,0,0-1.045-1.81c-.578-.334-1.05-.065-1.052.6l-.01,3.614a2.306,2.306,0,0,0,1.045,1.81c.578.334,1.05.065,1.052-.6" transform="translate(0 0)" fill="#2d3436" stroke="#2d3436" stroke-width="0.2"/>
      </g>
      <g id="组_21389" data-name="组 21389" transform="translate(1348.177 3051.813)">
        <path id="路径_37276-2" data-name="路径 37276" d="M-167.443,113.77A2.84,2.84,0,0,1-166.156,116l-.006,2.225c0,.818-.584,1.149-1.3.738a2.839,2.839,0,0,1-1.287-2.229l.006-2.225C-168.735,113.69-168.155,113.359-167.443,113.77Zm.635,4.081.006-2.225a1.419,1.419,0,0,0-.643-1.114c-.356-.206-.646-.04-.648.369l-.006,2.225a1.42,1.42,0,0,0,.643,1.114c.356.205.647.04.648-.369" transform="translate(0 0)" fill="#2d3436"/>
      </g>
      <g id="组_2025" data-name="组 2025" transform="translate(1099.744 3199.73) rotate(-90)">
        <path id="路径_6873" data-name="路径 6873" d="M15.92,61.435V0H0" transform="translate(0)" fill="none" stroke="#2d3436" stroke-miterlimit="10" stroke-width="0.454" stroke-dasharray="1.818 1.818 1.818 1.818 1.818 1.818"/>
      </g>
      <path id="路径_3" data-name="路径 3" d="M160.972,478.754a6.725,6.725,0,0,0-5.486.315c1-2.13,2.122-4.434,3.1-6.762,1.16-2.762,2.071-5.411,2.071-7.516,0-9-6.75-14.922-13.167-14.922-7.234,0-13.591,5.479-13.606,14.017a.133.133,0,0,1,0,.014v.013a25.783,25.783,0,0,0,.11,3.525,6.773,6.773,0,0,0-3.745,1.616,5.526,5.526,0,0,0-1.317,1.55c-.538,1.195-.495,2.629.933,3a4.307,4.307,0,0,0,1.769-.466c1.013-.375,2.277-1.048,3.25-.562a37.235,37.235,0,0,0,2.606,7.214,22.188,22.188,0,0,0,4.24,6.157,7.817,7.817,0,0,0,5.322,2.537c3,0,5.693-1.492,7.858-2.938,1.083-.721,2.038-1.437,2.811-1.961a4.67,4.67,0,0,1,1.616-.808,6.546,6.546,0,0,1,2.18.617c.842.358,1.723.793,2.482,1.1a.461.461,0,0,0,.6-.4A5.668,5.668,0,0,0,160.972,478.754Zm-29.679-6.419a4.306,4.306,0,0,1-1.385.4c-.624-.386-.481-1.18-.206-1.7a4.758,4.758,0,0,1,1.111-1.3,7.568,7.568,0,0,1,3.278-1.413c.132,1.074.306,2.169.549,3.264a6.567,6.567,0,0,0-3.347.754Zm14.51-13.5a3.035,3.035,0,0,1,2.565-2.386c1.175.022,1.959,1.271,2.386,2.373a12.939,12.939,0,0,1,.686,4.211.463.463,0,0,1-.686.356,4.593,4.593,0,0,0-2.386-.576,4.649,4.649,0,0,0-2.4.576.463.463,0,0,1-.672-.356,14.512,14.512,0,0,1,.507-4.2Zm-8.174,4.553a.463.463,0,0,1-.672-.356,14.52,14.52,0,0,1,.507-4.2,3.035,3.035,0,0,1,2.565-2.386c1.175.022,1.959,1.271,2.387,2.373a12.951,12.951,0,0,1,.685,4.211.463.463,0,0,1-.685.356,4.6,4.6,0,0,0-2.387-.576,4.646,4.646,0,0,0-2.4.574Zm13.537,6.131a6.61,6.61,0,0,0-7.159-.562,7.964,7.964,0,0,0-2.428,1.8c-.569.661-1.086,1.622-.109,2.126a4.632,4.632,0,0,0,1.55-.083c1.455-.243,2.938-.494,4.307.425l-.549.686c-.936-.723-2.407-.43-3.607-.247a4.931,4.931,0,0,1-1.909.082c-1.909-.5-1.186-2.539-.343-3.566a8.74,8.74,0,0,1,2.7-2,7.734,7.734,0,0,1,8.079.645Z" transform="translate(1041.13 2833.293)" fill="#2d3436"/>
      <path id="路径_6857" data-name="路径 6857" d="M298.36,399.51V321.133H276.317" transform="translate(1090.736 2932.265)" fill="none" stroke="#2d3436" stroke-miterlimit="10" stroke-width="0.454" stroke-dasharray="1.818 1.818 1.818 1.818 1.818 1.818"/>
      <g id="组_21401" data-name="组 21401" transform="translate(845.77 3120.842)">
        <path id="路径_37328" data-name="路径 37328" d="M263,100.618a.692.692,0,0,0-.755-.6H260.08V95.553c0-2.975-2.9-5.4-6.464-5.4s-6.463,2.42-6.463,5.4v4.461h-2.139a.583.583,0,0,0-.059,0,.715.715,0,0,0-.725.639v13.657a.7.7,0,0,0,.755.6h17.236a.712.712,0,0,0,.782-.637Zm-14.287-5.067c0-2.309,2.2-4.188,4.9-4.188a5.332,5.332,0,0,1,3.443,1.209,3.881,3.881,0,0,1,1.457,2.981v4.46h-9.8ZM261.439,113.7H245.794V101.22h15.645Z" fill="#2d3436"/>
        <path id="路径_37329" data-name="路径 37329" d="M253.672,104.041a1.1,1.1,0,0,0-1.087,1.09v3.58a1.1,1.1,0,0,0,1.089,1.087h0a1.1,1.1,0,0,0,1.088-1.09v-3.58A1.1,1.1,0,0,0,253.672,104.041Z" fill="#2d3436"/>
      </g>
    </g>
    <g id="组_21402" data-name="组 21402" transform="translate(1135.77 3250.842)">
      <path id="路径_37328-2" data-name="路径 37328" d="M263,100.618a.692.692,0,0,0-.755-.6H260.08V95.553c0-2.975-2.9-5.4-6.464-5.4s-6.463,2.42-6.463,5.4v4.461h-2.139a.583.583,0,0,0-.059,0,.715.715,0,0,0-.725.639v13.657a.7.7,0,0,0,.755.6h17.236a.712.712,0,0,0,.782-.637Zm-14.287-5.067c0-2.309,2.2-4.188,4.9-4.188a5.332,5.332,0,0,1,3.443,1.209,3.881,3.881,0,0,1,1.457,2.981v4.46h-9.8ZM261.439,113.7H245.794V101.22h15.645Z" fill="#2d3436"/>
      <path id="路径_37329-2" data-name="路径 37329" d="M253.672,104.041a1.1,1.1,0,0,0-1.087,1.09v3.58a1.1,1.1,0,0,0,1.089,1.087h0a1.1,1.1,0,0,0,1.088-1.09v-3.58A1.1,1.1,0,0,0,253.672,104.041Z" fill="#2d3436"/>
    </g>
  </g>
</svg>
