<svg xmlns="http://www.w3.org/2000/svg" xmlns:xlink="http://www.w3.org/1999/xlink" width="1820" height="880" viewBox="0 0 1820 880">
  <defs>
    <clipPath id="clip-path">
      <rect id="矩形_2774" data-name="矩形 2774" width="1820" height="880" fill="#fff"/>
    </clipPath>
  </defs>
  <g id="产品-秘密_CN" transform="translate(-4379 1187)">
    <g id="秘密-CN" transform="translate(-2020 2338)">
      <path id="路径_38602" data-name="路径 38602" d="M611.312-33.02a43.8,43.8,0,0,1-4.784-.208c.1.936.156,2.652.156,4.264V-17.42a27.11,27.11,0,0,1-.208,4.056,37.281,37.281,0,0,1,4.368-.208h4.368v11.18c0,1.04-.208,1.144-1.82,1.144-.728,0-2.548-.156-4.212-.364a13.9,13.9,0,0,1,1.248,5.252c1.352.052,3.016.1,4.16.1,4.628,0,5.98-.988,5.98-4.368V-13.572H625.3a32.088,32.088,0,0,1,4.16.208,32.995,32.995,0,0,1-.208-4.368V-29.12a29.9,29.9,0,0,1,.208-4.056c-1.4.1-2.392.156-4.628.156H619.32c.468-1.04.988-2.34,1.456-3.64h4.94a59.216,59.216,0,0,1,5.98.26v-5.616c-1.716.156-3.432.26-6.084.26H603.876a39.71,39.71,0,0,1-5.512-.26,65.538,65.538,0,0,1,.26,6.76v5.824c0,7.852-.832,15.652-2.132,20.384a31.57,31.57,0,0,1-3.536,8.008c1.872,1.4,2.444,2.08,4.316,4.836,2.86-4.784,4.576-10.192,5.668-17.472a146.506,146.506,0,0,0,1.04-16.9V-36.66h11.076a17.525,17.525,0,0,1-1.352,3.64Zm.52,4.524h12.22v2.964h-12.22Zm0,7.176h12.22v3.068h-12.22Zm-26.312-18.1a31.026,31.026,0,0,1,7.956,7.124l3.9-4.264a39.676,39.676,0,0,0-7.852-6.6Zm-1.664,13.208a36.716,36.716,0,0,1,8.476,6.76l3.432-4.472a41.992,41.992,0,0,0-8.268-6.344Zm6.188,9.932C588.224-8.632,586.2-3.328,584.116-.52l4.732,4.212C589.576,2.028,590.1.832,590.356.1a77.052,77.052,0,0,0,4.16-13.676ZM632.684-.988a63.077,63.077,0,0,0-5.564-11.388L622.7-10.5a63.224,63.224,0,0,1,5.616,12.22ZM607.2-12.48c-1.4,5.564-2.652,7.956-5.824,11.336a11.3,11.3,0,0,1,3.952,3.64c3.432-4,5.044-7.228,6.656-13.416Zm86.424-25.792V-39.1a27.387,27.387,0,0,1,.312-4.576h-6.552a29.259,29.259,0,0,1,.364,5.1v10.5h-8.06a44.226,44.226,0,0,1-5.876-.26,36.36,36.36,0,0,1,.208,4.316v9.776a31.84,31.84,0,0,1-.208,3.952,43.8,43.8,0,0,1,4.94-.208h25.532a47.044,47.044,0,0,1,5.044.208,29.9,29.9,0,0,1-.208-4.056v-9.672a34.707,34.707,0,0,1,.208-4.316,40.924,40.924,0,0,1-5.928.26h-9.776v-5.1h13.936a45.947,45.947,0,0,1,5.564.312v-5.72a40.269,40.269,0,0,1-5.564.312Zm9.828,15.288v7.332H679.692v-7.332Zm-30.784,27.3A36.285,36.285,0,0,0,678.756-7.7l-5.148-1.82a23.906,23.906,0,0,1-2.444,5.928A24.19,24.19,0,0,1,667.472,1.4ZM689,3.328A80.276,80.276,0,0,0,687.648-8.32l-4.992.78a66.385,66.385,0,0,1,.78,9.672c0,.468,0,1.2-.052,2.132Zm12.584-.884A82.673,82.673,0,0,0,697.476-8.84L692.64-7.488a63.9,63.9,0,0,1,3.484,11.856Zm13.208-.988a85.576,85.576,0,0,0-6.448-11.128l-4.888,1.924a61.05,61.05,0,0,1,5.98,11.96Z" transform="translate(6529 -3112)" fill="#0080f4"/>
      <path id="路径_40086" data-name="路径 40086" d="M5-9.6a4.159,4.159,0,0,0-3.1,1.2A5.137,5.137,0,0,0,.54-4.656c0,3.048,1.752,5,4.476,5S9.5-1.62,9.5-4.656A5.175,5.175,0,0,0,8.16-8.4,4.205,4.205,0,0,0,5-9.6ZM5.04-1.08a2.591,2.591,0,0,1-1.86-.732,3.965,3.965,0,0,1-.972-2.832c0-2.172,1.092-3.54,2.82-3.54a2.583,2.583,0,0,1,1.848.732,3.876,3.876,0,0,1,.948,2.8C7.824-2.448,6.756-1.08,5.04-1.08ZM36.576-9.408a9.767,9.767,0,0,1,.1,1.644V-3.54a2.191,2.191,0,0,1-2.436,2.484,2.2,2.2,0,0,1-2.46-2.472V-7.764a9.41,9.41,0,0,1,.1-1.644H30.084a9.858,9.858,0,0,1,.1,1.644v4.236a3.865,3.865,0,0,0,.9,2.76A4.134,4.134,0,0,0,34.176.36c2.616,0,4.092-1.392,4.092-3.876v-4.26a9.7,9.7,0,0,1,.1-1.632ZM67.332.144c-.168-.324-.468-.972-.564-1.188C65.58-3.852,65.352-4.188,64.6-4.428a2.537,2.537,0,0,0,1.332-.7,2.467,2.467,0,0,0,.612-1.788c0-1.584-1.044-2.5-2.868-2.5h-2.88c-.66,0-1.032-.012-1.536-.036a10.677,10.677,0,0,1,.1,1.56v6.468a9.391,9.391,0,0,1-.1,1.56h1.788a9.364,9.364,0,0,1-.1-1.572V-3.876h1.788c.924,0,1.344.444,1.992,2.1a9.714,9.714,0,0,1,.624,1.92ZM60.948-5.244v-2.8h2.46c.984,0,1.476.444,1.476,1.308A1.424,1.424,0,0,1,64.5-5.676a1.617,1.617,0,0,1-1.14.432ZM116.7.144a9.771,9.771,0,0,1,.528-1.6l1.8-4.224a14.644,14.644,0,0,0,.552-1.752c-.012.18-.048.792-.1,1.836v3.984a11.156,11.156,0,0,1-.1,1.752h1.68a10.4,10.4,0,0,1-.1-1.752V-7.632a12.427,12.427,0,0,1,.1-1.776H118.86a6.65,6.65,0,0,1-.432,1.428L116-2.028,113.568-7.98a8.305,8.305,0,0,1-.444-1.428h-2.2a11.9,11.9,0,0,1,.1,1.776v6.024a11.254,11.254,0,0,1-.1,1.752h1.68a10.964,10.964,0,0,1-.1-1.752V-5.544c0-.264-.048-1.248-.1-1.884a13.354,13.354,0,0,0,.612,1.836l1.728,4.116a8.169,8.169,0,0,1,.528,1.62Zm25.272-9.552a8.966,8.966,0,0,1,.1,1.548V-1.4a9.055,9.055,0,0,1-.1,1.548H143.8a9.055,9.055,0,0,1-.1-1.548V-7.86a8.966,8.966,0,0,1,.1-1.548Zm22.4,6.756a4.1,4.1,0,0,0,.228,1A2.825,2.825,0,0,0,165.66-.288a4.825,4.825,0,0,0,2.52.624,3.977,3.977,0,0,0,2.868-.912,2.792,2.792,0,0,0,.756-2.04,2.368,2.368,0,0,0-1-2.064,5.283,5.283,0,0,0-1.956-.732,10.216,10.216,0,0,1-1.692-.432,1.141,1.141,0,0,1-.816-1.092c0-.78.708-1.308,1.752-1.308a1.9,1.9,0,0,1,1.5.576,1.55,1.55,0,0,1,.36.852l1.716-.2a3.235,3.235,0,0,0-.588-1.392A3.537,3.537,0,0,0,168.1-9.624c-2.064,0-3.408,1.08-3.408,2.748a2.362,2.362,0,0,0,.924,1.944,4.242,4.242,0,0,0,1.812.732,7.566,7.566,0,0,1,2.088.588,1.218,1.218,0,0,1,.6,1.1c0,.9-.72,1.44-1.92,1.44a2.13,2.13,0,0,1-1.752-.708,1.72,1.72,0,0,1-.336-1.056Zm27.78,0a4.1,4.1,0,0,0,.228,1A2.825,2.825,0,0,0,193.44-.288a4.825,4.825,0,0,0,2.52.624,3.977,3.977,0,0,0,2.868-.912,2.792,2.792,0,0,0,.756-2.04,2.368,2.368,0,0,0-1-2.064,5.283,5.283,0,0,0-1.956-.732,10.216,10.216,0,0,1-1.692-.432,1.141,1.141,0,0,1-.816-1.092c0-.78.708-1.308,1.752-1.308a1.9,1.9,0,0,1,1.5.576,1.55,1.55,0,0,1,.36.852l1.716-.2a3.235,3.235,0,0,0-.588-1.392,3.537,3.537,0,0,0-2.988-1.212c-2.064,0-3.408,1.08-3.408,2.748a2.362,2.362,0,0,0,.924,1.944A4.242,4.242,0,0,0,195.2-4.2a7.566,7.566,0,0,1,2.088.588,1.218,1.218,0,0,1,.6,1.1c0,.9-.72,1.44-1.92,1.44a2.13,2.13,0,0,1-1.752-.708,1.72,1.72,0,0,1-.336-1.056Zm28.092-6.756a8.966,8.966,0,0,1,.1,1.548V-1.4a9.055,9.055,0,0,1-.1,1.548h1.824a9.055,9.055,0,0,1-.1-1.548V-7.86a8.966,8.966,0,0,1,.1-1.548ZM247.116-9.6a4.159,4.159,0,0,0-3.1,1.2,5.137,5.137,0,0,0-1.368,3.744c0,3.048,1.752,5,4.476,5s4.488-1.968,4.488-5A5.175,5.175,0,0,0,250.272-8.4,4.205,4.205,0,0,0,247.116-9.6Zm.036,8.52a2.591,2.591,0,0,1-1.86-.732,3.965,3.965,0,0,1-.972-2.832c0-2.172,1.092-3.54,2.82-3.54a2.583,2.583,0,0,1,1.848.732,3.876,3.876,0,0,1,.948,2.8C249.936-2.448,248.868-1.08,247.152-1.08ZM280.368.144a9.055,9.055,0,0,1-.1-1.548V-7.752a10.493,10.493,0,0,1,.1-1.656h-1.752a10.489,10.489,0,0,1,.1,1.656V-3.72c0,.5.036,1.224.084,1.692-.264-.48-.648-1.1-.936-1.536l-3.036-4.572a6.582,6.582,0,0,1-.732-1.272H272.22a9.993,9.993,0,0,1,.1,1.548v6.192a12.983,12.983,0,0,1-.1,1.812h1.752a13.282,13.282,0,0,1-.1-1.8V-5.592c0-.276-.024-.816-.036-1.044-.036-.444-.036-.444-.048-.612.288.564.588,1.08.816,1.44l3.1,4.668a11.958,11.958,0,0,1,.768,1.284Z" transform="translate(6529 -3198)"/>
      <path id="路径_38603" data-name="路径 38603" d="M20.488-30.212a42.336,42.336,0,0,1-5.044-.208,35.355,35.355,0,0,1,.208,4.16v12.428a35.355,35.355,0,0,1-.208,4.16,41.782,41.782,0,0,1,5.044-.208H31.564a45.817,45.817,0,0,1,5.044.208,33.674,33.674,0,0,1-.208-4.16V-26.26a33.136,33.136,0,0,1,.208-4.16,42.9,42.9,0,0,1-5.044.208Zm.624,4.888h9.776v10.556H21.112ZM48.36,4.316a52.645,52.645,0,0,1-.312-6.708V-35.36a53.582,53.582,0,0,1,.312-6.24,54.381,54.381,0,0,1-6.188.26H9.932a52.465,52.465,0,0,1-6.084-.26,55.511,55.511,0,0,1,.312,6.24V-2.444a57.109,57.109,0,0,1-.312,6.76H9.88V1.456h32.4v2.86ZM9.88-36.14h32.4V-3.692H9.88ZM97.4-43.42a98.474,98.474,0,0,1,.416,11.076c0,10.764-.624,16.38-2.236,20.54C94.12-8.06,91.52-4.42,87.464-.468A16.551,16.551,0,0,1,91.832,4.16c5.408-5.824,8.424-10.816,9.88-16.328,1.3-5.044,1.82-11.8,1.82-25.636a46.085,46.085,0,0,1,.208-5.616Zm28.392,25.428V-5.2h-15.6a29.425,29.425,0,0,1-5.928-.312V.78a38.437,38.437,0,0,1,5.876-.312H126v2.6h5.72a45.135,45.135,0,0,1-.312-5.98V-35.464c0-2.392.052-3.8.208-5.512a44.036,44.036,0,0,1-5.72.26H112.216a37.95,37.95,0,0,1-6.084-.364V-35a34.211,34.211,0,0,1,5.928-.312h13.728v11.7H114.244a37.873,37.873,0,0,1-6.864-.364v6.344a61.853,61.853,0,0,1,7.072-.364ZM91.624-16.12a24.919,24.919,0,0,1-.208-3.848v-14.56a21.506,21.506,0,0,1,.312-3.64H85.852a19.785,19.785,0,0,1,.312,3.64v14.56a24.918,24.918,0,0,1-.208,3.848ZM182-16.744a49.356,49.356,0,0,1,6.24,6.708l3.328-4.68a55.2,55.2,0,0,0-8.32-7.072,41.266,41.266,0,0,0,5.252-9,14.664,14.664,0,0,1,1.2-2.184l-2.548-2.7a18.607,18.607,0,0,1-2.964.156h-3.9l3.224-2.34a34.5,34.5,0,0,0-4.68-6.5L174.46-41.6a32.71,32.71,0,0,1,4.42,6.084h-5.148a31.749,31.749,0,0,1-4.108-.208v5.772a35.965,35.965,0,0,1,4.42-.208h8.424a32.023,32.023,0,0,1-5.616,8.008,37.1,37.1,0,0,1-9,7.02,20.148,20.148,0,0,1,2.652,5.408,37.176,37.176,0,0,0,5.824-4.42V-1.092a37.327,37.327,0,0,1-.312,5.408h6.292A29.82,29.82,0,0,1,182-.988ZM204.048-29.12v-9.152a30.485,30.485,0,0,1,.364-5.408h-6.5a36.8,36.8,0,0,1,.364,5.408v9.152h-3.9a35.1,35.1,0,0,1-5.1-.26V-23.5c1.664-.156,3.328-.26,5.1-.26h3.9V-3.432h-5.668a47.153,47.153,0,0,1-5.98-.312V2.548a41.935,41.935,0,0,1,5.876-.364h17.784a42.7,42.7,0,0,1,5.928.364V-3.744a44.6,44.6,0,0,1-5.928.312h-6.24V-23.764h5.512c1.82,0,3.432.1,5.1.26V-29.38a33.82,33.82,0,0,1-5.1.26Zm65.936,9.2c1.456,0,2.652.052,3.952.1a16.212,16.212,0,0,1-.208-3.12v-5.512c.832.052,1.3.1,2.028.208v-5.148c-.572.052-.728.1-2.028.156v-5.46a17.537,17.537,0,0,1,.208-3.172c-1.2.1-2.132.156-4.212.156H257.608a33.1,33.1,0,0,1-4.316-.26v5.3a24.421,24.421,0,0,1,3.536-.208h2.288v3.64H256.2a37.987,37.987,0,0,1-4.836-.208v5.252a28.588,28.588,0,0,1,4.836-.26h2.6c-.156,1.664-.312,2.7-.468,3.8H256.62a29.238,29.238,0,0,1-3.432-.156v5.044a32.058,32.058,0,0,1,3.64-.156h.364a28.993,28.993,0,0,1-6.656,11.18,15.739,15.739,0,0,1,2.5,5.668,31.06,31.06,0,0,0,4.212-5.512c-.052.78-.052,1.56-.052,3.12V0c0,1.2-.1,2.392-.26,4h5.616V1.04h6.188V2.86h5.616a31.646,31.646,0,0,1-.26-4.68V-13a26.978,26.978,0,0,1,.156-3.588,23.609,23.609,0,0,1-3.276.156H261.2a30.363,30.363,0,0,0,1.2-3.484Zm-6.5-4.732a26.1,26.1,0,0,0,.468-3.8h4.94v3.8Zm.728-8.58.1-3.64h4.576v3.64Zm-1.664,21.684h6.188V-3.9h-6.188Zm30.784-22.308a63.381,63.381,0,0,0,4.212-8.476L292.032-44.1a50.007,50.007,0,0,1-4.212,10.244h-6.708a27.971,27.971,0,0,1-4.316-.208v5.668a24.25,24.25,0,0,1,4.212-.26h3.536v5.3H280.7a19.381,19.381,0,0,1-3.8-.26v5.564a19.573,19.573,0,0,1,3.9-.26h3.744v5.876h-5.512a25.674,25.674,0,0,1-3.9-.208v5.72a18.748,18.748,0,0,1,3.8-.26h5.616V-1.3a42.475,42.475,0,0,1-.312,5.668h6.24A43.023,43.023,0,0,1,290.16-1.3V-7.176h5.356a28.946,28.946,0,0,1,4.524.312v-5.824a32.389,32.389,0,0,1-4.732.26H290.16V-18.3h3.64a25.764,25.764,0,0,1,4.42.26v-5.564a20.406,20.406,0,0,1-4.42.26h-3.64v-5.3h4.94a24.171,24.171,0,0,1,4.264.26v-5.72a26.6,26.6,0,0,1-4.628.26Zm-7.384-1.924a64.474,64.474,0,0,0-3.744-8.268l-5.2,1.82a37.665,37.665,0,0,1,3.8,8.268ZM346.372-9.152H338.78V-1.56H343.1c-.052,3.224-.78,4.16-3.9,5.044l1.82,2.756c4.212-1.664,5.356-3.328,5.356-7.8Zm80.548-9.88c.468-2.236.78-4,1.092-6.24h11.6c1.664,0,3.328.052,4.628.156-.1-1.248-.156-2.34-.156-4.056V-37.7c0-1.716.052-2.912.156-4.212a47.043,47.043,0,0,1-5.044.208H426.14a42.7,42.7,0,0,1-5.512-.312v5.772a45.422,45.422,0,0,1,5.46-.312h12.22v6.344h-11.6a28.472,28.472,0,0,1-4.056-.208,77.7,77.7,0,0,1-2.5,16.536c1.2-.1,2.392-.156,3.848-.156H438.36c-.416,5.252-1.04,8.528-2.08,10.608-.468.988-1.3,1.3-3.38,1.3a55.724,55.724,0,0,1-9.62-.988,23.345,23.345,0,0,1,1.352,5.928c3.38.312,5.72.468,8.216.468,4.992,0,7.228-.884,8.528-3.484,1.664-3.224,2.756-9.152,3.068-16.276.052-1.352.1-1.716.208-2.756a32.278,32.278,0,0,1-4.264.208Zm27.664-23.92a31.344,31.344,0,0,1,.364,5.772V-2.6a48.208,48.208,0,0,1-.364,6.656h6.6a47.41,47.41,0,0,1-.312-6.656V-37.18a36.224,36.224,0,0,1,.312-5.772Zm80.184,40.04A79.648,79.648,0,0,1,545.636,3.38l2.132-4.732A70.174,70.174,0,0,0,540.384-5.3a35.184,35.184,0,0,0,2.652-2.86,36.348,36.348,0,0,0,4.94,2.444,20.254,20.254,0,0,1,2.132-4.576,21.461,21.461,0,0,1-8.84-4.472h3.172a43.49,43.49,0,0,1,4.784.26V-19.24a30.132,30.132,0,0,1-4.836.26h-4.42v-2.392h3.224a31.645,31.645,0,0,1,4.316.208v-4.42a23.4,23.4,0,0,1-4.316.26h-3.224V-27.4h1.2a43.843,43.843,0,0,1,4.732.156,29.507,29.507,0,0,1-.208-4.212V-37.8a30.687,30.687,0,0,1,.208-4.316,50.106,50.106,0,0,1-5.616.208H523.848a47.547,47.547,0,0,1-5.46-.208c.1,1.3.156,2.132.156,4.368v5.2l-3.172-2.288a15.73,15.73,0,0,1-2.548,4.524c.052-4.628.052-4.628.052-7.852a32.119,32.119,0,0,1,.26-5.148h-5.72c.364,2.184.416,3.38.416,10.244,0,13-.468,18.3-2.08,23.088a22.428,22.428,0,0,1-5.3,9.412,17.508,17.508,0,0,1,3.588,4.888A31.149,31.149,0,0,0,510.38-6.812a13.639,13.639,0,0,1,.884,1.456c1.612,3.016,1.612,3.016,2.288,4.212L517.4-4.992a64.572,64.572,0,0,0-5.668-7.436,83.662,83.662,0,0,0,1.04-11.7,67.1,67.1,0,0,0,5.2-6.136c.312-.416.312-.468.572-.78-.052,2.132-.052,2.34-.156,3.8,1.092-.1,2.34-.156,4.784-.156h.624v2.08H520.78a26.577,26.577,0,0,1-4.108-.208v4.368a28.353,28.353,0,0,1,4.108-.208H523.8v2.392h-4.212a25.93,25.93,0,0,1-4.576-.26v4.68a30.22,30.22,0,0,1,4.316-.208h3.432a19.257,19.257,0,0,1-7.852,4.576,18.41,18.41,0,0,1,2.34,4.212,31.119,31.119,0,0,0,4.16-2.288,23.538,23.538,0,0,1,2.86,3.224,57.068,57.068,0,0,1-8.32,3.8l2.288,4.472c.364-.208.936-.624,1.04-.676,1.144-.52,3.224-1.664,4.784-2.6a12.542,12.542,0,0,1,.936,4.16,44.588,44.588,0,0,0,4.628.208c4,0,5.148-.936,5.148-4.264Zm-7.54-3.64,1.04-.832a25.622,25.622,0,0,0-3.224-3.588,22.771,22.771,0,0,0,3.12-3.224c.312-.364.312-.364.468-.572h6.812a22.415,22.415,0,0,0,3.848,3.9,20.463,20.463,0,0,1-3.276,3.64l-1.248-.52V-10.4a16.066,16.066,0,0,1,.208-3.224h-5.564a16.822,16.822,0,0,1,.208,3.172V-1.56c0,1.092-.156,1.2-1.56,1.2a20.555,20.555,0,0,1-3.12-.26c1.248-.78,1.82-1.144,3.848-2.548Zm1.56-20.852h6.188v2.08h-6.188Zm0,6.032h6.188v2.392h-6.188ZM523.64-38.22h16.9v2.028h-16.9Zm0,5.252h16.9v1.976h-16.9Zm-18.668,15.08c.988-3.9,1.248-6.448,1.508-15.132l-4.368-.572c0,7.28-.312,10.764-1.3,13.936Z" transform="translate(6529 -3112)"/>
      <g id="NAV_bg" transform="translate(6399 -3525)" clip-path="url(#clip-path)">
        <g id="组_22122" data-name="组 22122" transform="translate(-50 27)" opacity="0.05">
          <g id="组_22120" data-name="组 22120" transform="translate(0 7.733)">
            <g id="组_22062" data-name="组 22062" transform="translate(496.006 224.522)">
              <g id="组_22060" data-name="组 22060" transform="translate(0 0)">
                <rect id="矩形_2748" data-name="矩形 2748" width="472.183" height="1.891" transform="translate(0 84.71) rotate(-10.335)"/>
              </g>
              <g id="组_22061" data-name="组 22061" transform="translate(0 0)">
                <rect id="矩形_2749" data-name="矩形 2749" width="472.183" height="1.891" transform="translate(0 84.71) rotate(-10.335)"/>
              </g>
            </g>
            <g id="组_22066" data-name="组 22066" transform="translate(496.139 32.308)">
              <g id="组_22063" data-name="组 22063" transform="translate(464.098 0.366)">
                <rect id="矩形_2750" data-name="矩形 2750" width="192.908" height="1.261" transform="matrix(0.063, -0.998, 0.998, 0.063, 0, 192.522)"/>
              </g>
              <g id="组_22064" data-name="组 22064" transform="translate(0)">
                <path id="路径_40087" data-name="路径 40087" d="M63.23,337.945l-.63-1.261L538.566,59.3l1.261,1.261Z" transform="translate(-62.6 -59.3)"/>
              </g>
              <g id="组_22065" data-name="组 22065" transform="translate(0)">
                <path id="路径_40088" data-name="路径 40088" d="M63.23,337.945l-.63-1.261L538.566,59.3l1.261,1.261Z" transform="translate(-62.6 -59.3)"/>
              </g>
            </g>
            <g id="组_22071" data-name="组 22071" transform="translate(495.837 32.165)">
              <g id="组_22067" data-name="组 22067" transform="translate(326.765 0)">
                <rect id="矩形_2751" data-name="矩形 2751" width="182.191" height="1.261" transform="translate(0 104.013) rotate(-34.814)"/>
              </g>
              <g id="组_22068" data-name="组 22068" transform="translate(327.17 104.435)">
                <rect id="矩形_2752" data-name="矩形 2752" width="1.261" height="163.278" transform="matrix(0.54, -0.841, 0.841, 0.54, 0, 1.061)"/>
              </g>
              <g id="组_22069" data-name="组 22069" transform="translate(0 103.907)">
                <rect id="矩形_2753" data-name="矩形 2753" width="370.055" height="1.261" transform="translate(0 173.556) rotate(-27.969)"/>
              </g>
              <g id="组_22070" data-name="组 22070" transform="translate(0 103.907)">
                <rect id="矩形_2754" data-name="矩形 2754" width="370.055" height="1.261" transform="translate(0 173.556) rotate(-27.969)"/>
              </g>
            </g>
            <g id="组_22074" data-name="组 22074" transform="translate(0 309.692)">
              <g id="组_22072" data-name="组 22072">
                <path id="路径_40089" data-name="路径 40089" d="M-16.1,576.113,480.669,104.561l-.63-1.261L-16.1,574.222Z" transform="translate(16.1 -103.3)"/>
              </g>
              <g id="组_22073" data-name="组 22073">
                <path id="路径_40090" data-name="路径 40090" d="M-16.1,576.113,480.669,104.561l-.63-1.261L-16.1,574.222Z" transform="translate(16.1 -103.3)"/>
              </g>
            </g>
            <g id="组_22081" data-name="组 22081" transform="translate(0 136.327)">
              <g id="组_22075" data-name="组 22075" transform="translate(0 127.344)">
                <path id="路径_40091" data-name="路径 40091" d="M-16.1,493.163,55.768,96H53.876L-16.1,484.337Z" transform="translate(16.1 -96)"/>
              </g>
              <g id="组_22076" data-name="组 22076" transform="translate(0 115.366)">
                <path id="路径_40092" data-name="路径 40092" d="M-16.1,94.1v1.261l70.607,11.347.63-1.261Z" transform="translate(16.1 -94.1)"/>
              </g>
              <g id="组_22077" data-name="组 22077" transform="translate(70.607)">
                <path id="路径_40093" data-name="路径 40093" d="M-4.27,203.775l-.63-1.261L747.819,75.8v1.261Z" transform="translate(4.9 -75.8)"/>
              </g>
              <g id="组_22078" data-name="组 22078" transform="translate(0 126.714)">
                <path id="路径_40094" data-name="路径 40094" d="M-16.1,143.181,55.137,97.161l-.63-1.261L-16.1,141.29Z" transform="translate(16.1 -95.9)"/>
              </g>
              <g id="组_22079" data-name="组 22079" transform="translate(71.065 126.796)">
                <rect id="矩形_2755" data-name="矩形 2755" width="1.261" height="428.054" transform="translate(0 1.253) rotate(-83.754)"/>
              </g>
              <g id="组_22080" data-name="组 22080" transform="translate(71.065 126.796)">
                <rect id="矩形_2756" data-name="矩形 2756" width="1.261" height="428.054" transform="translate(0 1.253) rotate(-83.754)"/>
              </g>
            </g>
            <g id="组_22087" data-name="组 22087" transform="translate(495.939 33.135)">
              <g id="组_22082" data-name="组 22082" transform="translate(326.126 103.822)">
                <path id="路径_40095" data-name="路径 40095" d="M215.8,741.621,114.3,75.9h1.891L217.058,741.621Z" transform="translate(-114.3 -75.9)"/>
              </g>
              <g id="组_22083" data-name="组 22083" transform="translate(427.475 0)">
                <rect id="矩形_2757" data-name="矩形 2757" width="771.001" height="1.261" transform="translate(0 769.459) rotate(-86.406)"/>
              </g>
              <g id="组_22084" data-name="组 22084" transform="translate(427.648 192.686)">
                <rect id="矩形_2758" data-name="矩形 2758" width="578.093" height="1.261" transform="translate(0 576.937) rotate(-86.392)"/>
              </g>
              <g id="组_22085" data-name="组 22085" transform="translate(0 276.653)">
                <rect id="矩形_2759" data-name="矩形 2759" width="1.261" height="652.483" transform="matrix(0.755, -0.656, 0.656, 0.755, 0, 0.827)"/>
              </g>
              <g id="组_22086" data-name="组 22086" transform="translate(0 276.653)">
                <rect id="矩形_2760" data-name="矩形 2760" width="1.261" height="652.483" transform="matrix(0.755, -0.656, 0.656, 0.755, 0, 0.827)"/>
              </g>
            </g>
            <g id="组_22095" data-name="组 22095" transform="translate(0 136.728)">
              <g id="组_22088" data-name="组 22088" transform="translate(529.871 665.909)">
                <rect id="矩形_2761" data-name="矩形 2761" width="404.098" height="1.891" transform="matrix(0.976, -0.219, 0.219, 0.976, 0, 88.336)"/>
              </g>
              <g id="组_22089" data-name="组 22089" transform="translate(69.976 126.313)">
                <path id="路径_40096" data-name="路径 40096" d="M454.575,725.688-5,97.161-3.739,95.9,455.836,725.057Z" transform="translate(5 -95.9)"/>
              </g>
              <g id="组_22090" data-name="组 22090" transform="translate(0 674.146)">
                <path id="路径_40097" data-name="路径 40097" d="M-16.1,182.8v1.261l530.182,81.324v-1.891Z" transform="translate(16.1 -182.8)"/>
              </g>
              <g id="组_22091" data-name="组 22091" transform="translate(529.561)">
                <rect id="矩形_2762" data-name="矩形 2762" width="810.087" height="1.891" transform="translate(0 755.406) rotate(-68.826)"/>
              </g>
              <g id="组_22092" data-name="组 22092" transform="translate(529.551 88.488)">
                <path id="路径_40098" data-name="路径 40098" d="M69.161,757.513l-1.261-.63L498.476,89.9l1.261.63Z" transform="translate(-67.9 -89.9)"/>
              </g>
              <g id="组_22093" data-name="组 22093" transform="translate(495.627 173.374)">
                <rect id="矩形_2763" data-name="矩形 2763" width="1.891" height="583.137" transform="matrix(0.998, -0.058, 0.058, 0.998, 0, 0.11)"/>
              </g>
              <g id="组_22094" data-name="组 22094" transform="translate(495.627 173.374)">
                <rect id="矩形_2764" data-name="矩形 2764" width="1.891" height="583.137" transform="matrix(0.998, -0.058, 0.058, 0.998, 0, 0.11)"/>
              </g>
            </g>
            <g id="组_22100" data-name="组 22100" transform="translate(822.695 0)">
              <g id="组_22096" data-name="组 22096" transform="translate(552.246 0.157)">
                <path id="路径_40099" data-name="路径 40099" d="M793.962,371.3,202.63,54.2,202,55.461l591.962,317.1Z" transform="translate(-202 -54.2)"/>
              </g>
              <g id="组_22097" data-name="组 22097" transform="translate(0 0.157)">
                <path id="路径_40100" data-name="路径 40100" d="M115.03,191.631l-.63-1.261L666.646,54.2l.63,1.261Z" transform="translate(-114.4 -54.2)"/>
              </g>
              <g id="组_22098" data-name="组 22098" transform="translate(150.039 0.157)">
                <path id="路径_40101" data-name="路径 40101" d="M138.2,87.612V86.351L540.407,54.2l.63,1.261Z" transform="translate(-138.2 -54.2)"/>
              </g>
              <g id="组_22099" data-name="组 22099" transform="translate(137.898)">
                <rect id="矩形_2765" data-name="矩形 2765" width="471.553" height="1.261" transform="matrix(0.879, -0.477, 0.477, 0.879, 0, 224.789)"/>
              </g>
            </g>
            <g id="组_22103" data-name="组 22103" transform="translate(924.193 225.193)">
              <g id="组_22101" data-name="组 22101" transform="translate(0 576.855)">
                <path id="路径_40102" data-name="路径 40102" d="M572.423,284.789,130.5,182.661V181.4L572.423,282.9Z" transform="translate(-130.5 -181.4)"/>
              </g>
              <g id="组_22102" data-name="组 22102" transform="translate(35.844 0)">
                <rect id="矩形_2766" data-name="矩形 2766" width="1.891" height="791.175" transform="translate(0 0.97) rotate(-30.843)"/>
              </g>
            </g>
            <g id="组_22111" data-name="组 22111" transform="translate(822.695 0.025)">
              <g id="组_22104" data-name="组 22104" transform="translate(542.664 534.601)">
                <rect id="矩形_2767" data-name="矩形 2767" width="398.424" height="1.891" transform="matrix(0.374, -0.927, 0.927, 0.374, 0, 369.459)"/>
              </g>
              <g id="组_22105" data-name="组 22105" transform="translate(551.651 0)">
                <rect id="矩形_2768" data-name="矩形 2768" width="1.891" height="552.246" transform="matrix(0.967, -0.253, 0.253, 0.967, 0, 0.479)"/>
              </g>
              <g id="组_22106" data-name="组 22106" transform="translate(692.199 393.513)">
                <path id="路径_40103" data-name="路径 40103" d="M676.21,116.6,224.2,257.183v1.261L676.21,118.491Z" transform="translate(-224.2 -116.6)"/>
              </g>
              <g id="组_22107" data-name="组 22107" transform="translate(101.262 533.511)">
                <rect id="矩形_2769" data-name="矩形 2769" width="648.7" height="1.261" transform="translate(0 268.627) rotate(-24.463)"/>
              </g>
              <g id="组_22108" data-name="组 22108" transform="translate(0 136.302)">
                <path id="路径_40104" data-name="路径 40104" d="M805.968,474.855,114.4,77.061l.63-1.261,692.2,397.794Z" transform="translate(-114.4 -75.8)"/>
              </g>
              <g id="组_22109" data-name="组 22109" transform="translate(149.585 32.046)">
                <rect id="矩形_2770" data-name="矩形 2770" width="1.891" height="738.85" transform="translate(0 1.388) rotate(-47.229)"/>
              </g>
              <g id="组_22110" data-name="组 22110" transform="translate(137.402 224.553)">
                <rect id="矩形_2771" data-name="矩形 2771" width="1.891" height="634.831" transform="translate(0 1.652) rotate(-60.849)"/>
              </g>
            </g>
            <g id="组_22113" data-name="组 22113" transform="translate(1514.894 534.12)">
              <g id="组_22112" data-name="组 22112">
                <path id="路径_40105" data-name="路径 40105" d="M676.21,256.788,224.2,138.9v1.261L676.21,258.679Z" transform="translate(-224.2 -138.9)"/>
              </g>
            </g>
            <g id="组_22119" data-name="组 22119" transform="translate(924.091 497.556)">
              <g id="组_22114" data-name="组 22114" transform="translate(742.734 341.056)">
                <path id="路径_40106" data-name="路径 40106" d="M548.379,187.2,248.3,283.654l.63,1.891,299.448-96.454Z" transform="translate(-248.3 -187.2)"/>
              </g>
              <g id="组_22115" data-name="组 22115" transform="translate(590.173 36.564)">
                <path id="路径_40107" data-name="路径 40107" d="M376.661,541.107,224.1,139.531l1.261-.631L377.922,540.476Z" transform="translate(-224.1 -138.9)"/>
              </g>
              <g id="组_22116" data-name="组 22116" transform="translate(441.745 405.549)">
                <rect id="矩形_2772" data-name="矩形 2772" width="1.891" height="302.601" transform="translate(0 1.881) rotate(-83.996)"/>
              </g>
              <g id="组_22117" data-name="组 22117" transform="translate(742.734)">
                <path id="路径_40108" data-name="路径 40108" d="M548.379,133.1,248.3,571.241l1.261.63L548.379,135.622Z" transform="translate(-248.3 -133.1)"/>
              </g>
              <g id="组_22118" data-name="组 22118" transform="translate(0 304.675)">
                <rect id="矩形_2773" data-name="矩形 2773" width="1.261" height="754.61" transform="translate(0 1.241) rotate(-79.81)"/>
              </g>
            </g>
          </g>
          <g id="组_22121" data-name="组 22121" transform="translate(62.717)">
            <path id="路径_40109" data-name="路径 40109" d="M71.76,118.234a8.183,8.183,0,1,1,5.674-10.087C78.694,111.929,76.173,116.973,71.76,118.234Z" transform="translate(364.184 208.017)"/>
            <path id="路径_40110" data-name="路径 40110" d="M145.46,104.734a8.183,8.183,0,1,1,5.674-10.087C151.764,99.06,149.242,103.473,145.46,104.734Z" transform="translate(755.102 136.411)"/>
            <path id="路径_40111" data-name="路径 40111" d="M71.76,118.234a8.183,8.183,0,1,1,5.674-10.087C78.694,111.929,76.173,116.973,71.76,118.234Z" transform="translate(364.184 208.017)"/>
            <path id="路径_40112" data-name="路径 40112" d="M145.46,104.734a8.183,8.183,0,1,1,5.674-10.087C151.764,99.06,149.242,103.473,145.46,104.734Z" transform="translate(755.102 136.411)"/>
            <path id="路径_40113" data-name="路径 40113" d="M145.46,104.734a8.183,8.183,0,1,1,5.674-10.087C151.764,99.06,149.242,103.473,145.46,104.734Z" transform="translate(755.102 136.411)"/>
            <path id="路径_40114" data-name="路径 40114" d="M147.36,74.234a8.183,8.183,0,1,1,5.674-10.087C154.294,67.929,151.773,72.973,147.36,74.234Z" transform="translate(765.18 -25.367)"/>
            <path id="路径_40115" data-name="路径 40115" d="M71.76,118.234a8.183,8.183,0,1,1,5.674-10.087C78.694,111.929,76.173,116.973,71.76,118.234Z" transform="translate(364.184 208.017)"/>
            <path id="路径_40116" data-name="路径 40116" d="M147.36,74.234a8.183,8.183,0,1,1,5.674-10.087C154.294,67.929,151.773,72.973,147.36,74.234Z" transform="translate(765.18 -25.367)"/>
            <path id="路径_40117" data-name="路径 40117" d="M71.76,118.234a8.183,8.183,0,1,1,5.674-10.087C78.694,111.929,76.173,116.973,71.76,118.234Z" transform="translate(364.184 208.017)"/>
            <path id="路径_40118" data-name="路径 40118" d="M147.36,74.234a8.183,8.183,0,1,1,5.674-10.087C154.294,67.929,151.773,72.973,147.36,74.234Z" transform="translate(765.18 -25.367)"/>
            <path id="路径_40119" data-name="路径 40119" d="M147.36,74.234a8.183,8.183,0,1,1,5.674-10.087C154.294,67.929,151.773,72.973,147.36,74.234Z" transform="translate(765.18 -25.367)"/>
            <path id="路径_40120" data-name="路径 40120" d="M123.56,90.734a8.183,8.183,0,1,1,5.674-10.087C130.494,84.429,127.973,89.473,123.56,90.734Z" transform="translate(638.94 62.152)"/>
            <path id="路径_40121" data-name="路径 40121" d="M145.46,104.734a8.183,8.183,0,1,1,5.674-10.087C151.764,99.06,149.242,103.473,145.46,104.734Z" transform="translate(755.102 136.411)"/>
            <path id="路径_40122" data-name="路径 40122" d="M123.56,90.734a8.183,8.183,0,1,1,5.674-10.087C130.494,84.429,127.973,89.473,123.56,90.734Z" transform="translate(638.94 62.152)"/>
            <path id="路径_40123" data-name="路径 40123" d="M71.76,118.234a8.183,8.183,0,1,1,5.674-10.087C78.694,111.929,76.173,116.973,71.76,118.234Z" transform="translate(364.184 208.017)"/>
            <path id="路径_40124" data-name="路径 40124" d="M123.56,90.734a8.183,8.183,0,1,1,5.674-10.087C130.494,84.429,127.973,89.473,123.56,90.734Z" transform="translate(638.94 62.152)"/>
            <path id="路径_40125" data-name="路径 40125" d="M71.76,118.234a8.183,8.183,0,1,1,5.674-10.087C78.694,111.929,76.173,116.973,71.76,118.234Z" transform="translate(364.184 208.017)"/>
            <path id="路径_40126" data-name="路径 40126" d="M123.56,90.734a8.183,8.183,0,1,1,5.674-10.087C130.494,84.429,127.973,89.473,123.56,90.734Z" transform="translate(638.94 62.152)"/>
            <path id="路径_40127" data-name="路径 40127" d="M71.76,118.234a8.183,8.183,0,1,1,5.674-10.087C78.694,111.929,76.173,116.973,71.76,118.234Z" transform="translate(364.184 208.017)"/>
            <path id="路径_40128" data-name="路径 40128" d="M71.76,118.234a8.183,8.183,0,1,1,5.674-10.087C78.694,111.929,76.173,116.973,71.76,118.234Z" transform="translate(364.184 208.017)"/>
            <path id="路径_40129" data-name="路径 40129" d="M4.26,110.834A8.1,8.1,0,0,1-5.827,105.16,8.1,8.1,0,0,1-.153,95.073a8.1,8.1,0,0,1,10.087,5.674C11.194,104.529,8.673,109.573,4.26,110.834Z" transform="translate(6.151 168.766)"/>
            <path id="路径_40130" data-name="路径 40130" d="M4.26,110.834A8.1,8.1,0,0,1-5.827,105.16,8.1,8.1,0,0,1-.153,95.073a8.1,8.1,0,0,1,10.087,5.674C11.194,104.529,8.673,109.573,4.26,110.834Z" transform="translate(6.151 168.766)"/>
            <path id="路径_40131" data-name="路径 40131" d="M123.56,90.734a8.183,8.183,0,1,1,5.674-10.087C130.494,84.429,127.973,89.473,123.56,90.734Z" transform="translate(638.94 62.152)"/>
            <path id="路径_40132" data-name="路径 40132" d="M4.26,110.834A8.1,8.1,0,0,1-5.827,105.16,8.1,8.1,0,0,1-.153,95.073a8.1,8.1,0,0,1,10.087,5.674C11.194,104.529,8.673,109.573,4.26,110.834Z" transform="translate(6.151 168.766)"/>
            <path id="路径_40133" data-name="路径 40133" d="M4.26,110.834A8.1,8.1,0,0,1-5.827,105.16,8.1,8.1,0,0,1-.153,95.073a8.1,8.1,0,0,1,10.087,5.674C11.194,104.529,8.673,109.573,4.26,110.834Z" transform="translate(6.151 168.766)"/>
            <path id="路径_40134" data-name="路径 40134" d="M71.76,118.234a8.183,8.183,0,1,1,5.674-10.087C78.694,111.929,76.173,116.973,71.76,118.234Z" transform="translate(364.184 208.017)"/>
            <path id="路径_40135" data-name="路径 40135" d="M4.26,110.834A8.1,8.1,0,0,1-5.827,105.16,8.1,8.1,0,0,1-.153,95.073a8.1,8.1,0,0,1,10.087,5.674C11.194,104.529,8.673,109.573,4.26,110.834Z" transform="translate(6.151 168.766)"/>
            <path id="路径_40136" data-name="路径 40136" d="M71.76,118.234a8.183,8.183,0,1,1,5.674-10.087C78.694,111.929,76.173,116.973,71.76,118.234Z" transform="translate(364.184 208.017)"/>
            <path id="路径_40137" data-name="路径 40137" d="M4.26,110.834A8.1,8.1,0,0,1-5.827,105.16,8.1,8.1,0,0,1-.153,95.073a8.1,8.1,0,0,1,10.087,5.674C11.194,104.529,8.673,109.573,4.26,110.834Z" transform="translate(6.151 168.766)"/>
            <path id="路径_40138" data-name="路径 40138" d="M123.56,90.734a8.183,8.183,0,1,1,5.674-10.087C130.494,84.429,127.973,89.473,123.56,90.734Z" transform="translate(638.94 62.152)"/>
            <path id="路径_40139" data-name="路径 40139" d="M139.66,196.234a8.183,8.183,0,1,1,5.674-10.087A8.1,8.1,0,0,1,139.66,196.234Z" transform="translate(724.337 621.743)"/>
            <path id="路径_40140" data-name="路径 40140" d="M147.36,74.234a8.183,8.183,0,1,1,5.674-10.087C154.294,67.929,151.773,72.973,147.36,74.234Z" transform="translate(765.18 -25.367)"/>
            <path id="路径_40141" data-name="路径 40141" d="M139.66,196.234a8.183,8.183,0,1,1,5.674-10.087A8.1,8.1,0,0,1,139.66,196.234Z" transform="translate(724.337 621.743)"/>
            <path id="路径_40142" data-name="路径 40142" d="M145.46,104.734a8.183,8.183,0,1,1,5.674-10.087C151.764,99.06,149.242,103.473,145.46,104.734Z" transform="translate(755.102 136.411)"/>
            <path id="路径_40143" data-name="路径 40143" d="M139.66,196.234a8.183,8.183,0,1,1,5.674-10.087A8.1,8.1,0,0,1,139.66,196.234Z" transform="translate(724.337 621.743)"/>
            <path id="路径_40144" data-name="路径 40144" d="M71.76,118.234a8.183,8.183,0,1,1,5.674-10.087C78.694,111.929,76.173,116.973,71.76,118.234Z" transform="translate(364.184 208.017)"/>
            <path id="路径_40145" data-name="路径 40145" d="M139.66,196.234a8.183,8.183,0,1,1,5.674-10.087A8.1,8.1,0,0,1,139.66,196.234Z" transform="translate(724.337 621.743)"/>
            <path id="路径_40146" data-name="路径 40146" d="M71.76,118.234a8.183,8.183,0,1,1,5.674-10.087C78.694,111.929,76.173,116.973,71.76,118.234Z" transform="translate(364.184 208.017)"/>
            <path id="路径_40147" data-name="路径 40147" d="M139.66,196.234a8.183,8.183,0,1,1,5.674-10.087A8.1,8.1,0,0,1,139.66,196.234Z" transform="translate(724.337 621.743)"/>
            <path id="路径_40148" data-name="路径 40148" d="M139.66,196.234a8.183,8.183,0,1,1,5.674-10.087A8.1,8.1,0,0,1,139.66,196.234Z" transform="translate(724.337 621.743)"/>
            <path id="路径_40149" data-name="路径 40149" d="M77.16,210.534a8.183,8.183,0,1,1,5.674-10.087A8.1,8.1,0,0,1,77.16,210.534Z" transform="translate(392.826 697.593)"/>
            <path id="路径_40150" data-name="路径 40150" d="M4.26,110.834A8.1,8.1,0,0,1-5.827,105.16,8.1,8.1,0,0,1-.153,95.073a8.1,8.1,0,0,1,10.087,5.674C11.194,104.529,8.673,109.573,4.26,110.834Z" transform="translate(6.151 168.766)"/>
            <path id="路径_40151" data-name="路径 40151" d="M77.16,210.534a8.183,8.183,0,1,1,5.674-10.087A8.1,8.1,0,0,1,77.16,210.534Z" transform="translate(392.826 697.593)"/>
            <path id="路径_40152" data-name="路径 40152" d="M77.16,210.534a8.183,8.183,0,1,1,5.674-10.087A8.1,8.1,0,0,1,77.16,210.534Z" transform="translate(392.826 697.593)"/>
            <path id="路径_40153" data-name="路径 40153" d="M123.56,90.734a8.183,8.183,0,1,1,5.674-10.087C130.494,84.429,127.973,89.473,123.56,90.734Z" transform="translate(638.94 62.152)"/>
            <path id="路径_40154" data-name="路径 40154" d="M77.16,210.534a8.183,8.183,0,1,1,5.674-10.087A8.1,8.1,0,0,1,77.16,210.534Z" transform="translate(392.826 697.593)"/>
            <path id="路径_40155" data-name="路径 40155" d="M145.46,104.734a8.183,8.183,0,1,1,5.674-10.087C151.764,99.06,149.242,103.473,145.46,104.734Z" transform="translate(755.102 136.411)"/>
            <path id="路径_40156" data-name="路径 40156" d="M77.16,210.534a8.183,8.183,0,1,1,5.674-10.087A8.1,8.1,0,0,1,77.16,210.534Z" transform="translate(392.826 697.593)"/>
            <path id="路径_40157" data-name="路径 40157" d="M71.76,118.234a8.183,8.183,0,1,1,5.674-10.087C78.694,111.929,76.173,116.973,71.76,118.234Z" transform="translate(364.184 208.017)"/>
            <path id="路径_40158" data-name="路径 40158" d="M77.16,210.534a8.183,8.183,0,1,1,5.674-10.087A8.1,8.1,0,0,1,77.16,210.534Z" transform="translate(392.826 697.593)"/>
            <path id="路径_40159" data-name="路径 40159" d="M71.76,118.234a8.183,8.183,0,1,1,5.674-10.087C78.694,111.929,76.173,116.973,71.76,118.234Z" transform="translate(364.184 208.017)"/>
            <path id="路径_40160" data-name="路径 40160" d="M77.16,210.534a8.183,8.183,0,1,1,5.674-10.087A8.1,8.1,0,0,1,77.16,210.534Z" transform="translate(392.826 697.593)"/>
            <path id="路径_40161" data-name="路径 40161" d="M211.16,69.034a8.183,8.183,0,1,1,5.674-10.087A8.1,8.1,0,0,1,211.16,69.034Z" transform="translate(1103.586 -52.949)"/>
            <path id="路径_40162" data-name="路径 40162" d="M123.56,90.734a8.183,8.183,0,1,1,5.674-10.087C130.494,84.429,127.973,89.473,123.56,90.734Z" transform="translate(638.94 62.152)"/>
            <path id="路径_40163" data-name="路径 40163" d="M211.16,69.034a8.183,8.183,0,1,1,5.674-10.087A8.1,8.1,0,0,1,211.16,69.034Z" transform="translate(1103.586 -52.949)"/>
            <path id="路径_40164" data-name="路径 40164" d="M147.36,74.234a8.183,8.183,0,1,1,5.674-10.087C154.294,67.929,151.773,72.973,147.36,74.234Z" transform="translate(765.18 -25.367)"/>
            <path id="路径_40165" data-name="路径 40165" d="M211.16,69.034a8.183,8.183,0,1,1,5.674-10.087A8.1,8.1,0,0,1,211.16,69.034Z" transform="translate(1103.586 -52.949)"/>
            <path id="路径_40166" data-name="路径 40166" d="M145.46,104.734a8.183,8.183,0,1,1,5.674-10.087C151.764,99.06,149.242,103.473,145.46,104.734Z" transform="translate(755.102 136.411)"/>
            <path id="路径_40167" data-name="路径 40167" d="M211.16,69.034a8.183,8.183,0,1,1,5.674-10.087A8.1,8.1,0,0,1,211.16,69.034Z" transform="translate(1103.586 -52.949)"/>
            <path id="路径_40168" data-name="路径 40168" d="M139.66,196.234a8.183,8.183,0,1,1,5.674-10.087A8.1,8.1,0,0,1,139.66,196.234Z" transform="translate(724.337 621.743)"/>
            <path id="路径_40169" data-name="路径 40169" d="M209.76,212.434a8.183,8.183,0,1,1,5.674-10.087A8.1,8.1,0,0,1,209.76,212.434Z" transform="translate(1096.16 707.671)"/>
            <path id="路径_40170" data-name="路径 40170" d="M145.46,104.734a8.183,8.183,0,1,1,5.674-10.087C151.764,99.06,149.242,103.473,145.46,104.734Z" transform="translate(755.102 136.411)"/>
            <path id="路径_40171" data-name="路径 40171" d="M209.76,212.434a8.183,8.183,0,1,1,5.674-10.087A8.1,8.1,0,0,1,209.76,212.434Z" transform="translate(1096.16 707.671)"/>
            <path id="路径_40172" data-name="路径 40172" d="M209.76,212.434a8.183,8.183,0,1,1,5.674-10.087A8.1,8.1,0,0,1,209.76,212.434Z" transform="translate(1096.16 707.671)"/>
            <path id="路径_40173" data-name="路径 40173" d="M233.36,153.733a8.183,8.183,0,1,1,5.674-10.087A8.1,8.1,0,0,1,233.36,153.733Z" transform="translate(1221.339 396.315)"/>
            <path id="路径_40174" data-name="路径 40174" d="M211.16,69.034a8.183,8.183,0,1,1,5.674-10.087A8.1,8.1,0,0,1,211.16,69.034Z" transform="translate(1103.586 -52.949)"/>
            <path id="路径_40175" data-name="路径 40175" d="M233.36,153.733a8.183,8.183,0,1,1,5.674-10.087A8.1,8.1,0,0,1,233.36,153.733Z" transform="translate(1221.339 396.315)"/>
            <path id="路径_40176" data-name="路径 40176" d="M233.36,153.733a8.183,8.183,0,1,1,5.674-10.087A8.1,8.1,0,0,1,233.36,153.733Z" transform="translate(1221.339 396.315)"/>
            <path id="路径_40177" data-name="路径 40177" d="M139.66,196.234a8.183,8.183,0,1,1,5.674-10.087A8.1,8.1,0,0,1,139.66,196.234Z" transform="translate(724.337 621.743)"/>
            <path id="路径_40178" data-name="路径 40178" d="M233.36,153.733a8.183,8.183,0,1,1,5.674-10.087A8.1,8.1,0,0,1,233.36,153.733Z" transform="translate(1221.339 396.315)"/>
            <path id="路径_40179" data-name="路径 40179" d="M123.56,90.734a8.183,8.183,0,1,1,5.674-10.087C130.494,84.429,127.973,89.473,123.56,90.734Z" transform="translate(638.94 62.152)"/>
            <path id="路径_40180" data-name="路径 40180" d="M233.36,153.733a8.183,8.183,0,1,1,5.674-10.087A8.1,8.1,0,0,1,233.36,153.733Z" transform="translate(1221.339 396.315)"/>
            <path id="路径_40181" data-name="路径 40181" d="M147.36,74.234a8.183,8.183,0,1,1,5.674-10.087C154.294,67.929,151.773,72.973,147.36,74.234Z" transform="translate(765.18 -25.367)"/>
            <path id="路径_40182" data-name="路径 40182" d="M233.36,153.733a8.183,8.183,0,1,1,5.674-10.087A8.1,8.1,0,0,1,233.36,153.733Z" transform="translate(1221.339 396.315)"/>
            <path id="路径_40183" data-name="路径 40183" d="M145.46,104.734a8.183,8.183,0,1,1,5.674-10.087C151.764,99.06,149.242,103.473,145.46,104.734Z" transform="translate(755.102 136.411)"/>
            <path id="路径_40184" data-name="路径 40184" d="M233.36,153.733a8.183,8.183,0,1,1,5.674-10.087A8.1,8.1,0,0,1,233.36,153.733Z" transform="translate(1221.339 396.315)"/>
            <path id="路径_40185" data-name="路径 40185" d="M233.36,153.733a8.183,8.183,0,1,1,5.674-10.087A8.1,8.1,0,0,1,233.36,153.733Z" transform="translate(1221.339 396.315)"/>
            <path id="路径_40186" data-name="路径 40186" d="M257.46,217.434a8.183,8.183,0,1,1,5.674-10.087A8.1,8.1,0,0,1,257.46,217.434Z" transform="translate(1349.17 734.192)"/>
            <path id="路径_40187" data-name="路径 40187" d="M233.36,153.733a8.183,8.183,0,1,1,5.674-10.087A8.1,8.1,0,0,1,233.36,153.733Z" transform="translate(1221.339 396.315)"/>
            <path id="路径_40188" data-name="路径 40188" d="M257.46,217.434a8.183,8.183,0,1,1,5.674-10.087A8.1,8.1,0,0,1,257.46,217.434Z" transform="translate(1349.17 734.192)"/>
            <path id="路径_40189" data-name="路径 40189" d="M209.76,212.434a8.183,8.183,0,1,1,5.674-10.087A8.1,8.1,0,0,1,209.76,212.434Z" transform="translate(1096.16 707.671)"/>
            <path id="路径_40190" data-name="路径 40190" d="M257.46,217.434a8.183,8.183,0,1,1,5.674-10.087A8.1,8.1,0,0,1,257.46,217.434Z" transform="translate(1349.17 734.192)"/>
            <path id="路径_40191" data-name="路径 40191" d="M257.46,217.434a8.183,8.183,0,1,1,5.674-10.087A8.1,8.1,0,0,1,257.46,217.434Z" transform="translate(1349.17 734.192)"/>
            <path id="路径_40192" data-name="路径 40192" d="M139.66,196.234a8.183,8.183,0,1,1,5.674-10.087A8.1,8.1,0,0,1,139.66,196.234Z" transform="translate(724.337 621.743)"/>
          </g>
        </g>
      </g>
    </g>
  </g>
</svg>
