<svg xmlns="http://www.w3.org/2000/svg" xmlns:xlink="http://www.w3.org/1999/xlink" width="1820" height="880" viewBox="0 0 1820 880">
  <defs>
    <clipPath id="clip-path">
      <rect id="矩形_2747" data-name="矩形 2747" width="1820" height="880" fill="#fff"/>
    </clipPath>
    <clipPath id="clip-path-2">
      <rect id="矩形_2279" data-name="矩形 2279" width="1820" height="880" transform="translate(50 160)" fill="#fff"/>
    </clipPath>
  </defs>
  <g id="banner" transform="translate(-50 -89)">
    <g id="NAV_bg" transform="translate(50 89)" clip-path="url(#clip-path)">
      <g id="组_22059" data-name="组 22059" transform="translate(-50 27)" opacity="0.05">
        <g id="组_22057" data-name="组 22057" transform="translate(0 7.733)">
          <g id="组_21999" data-name="组 21999" transform="translate(496.006 224.522)">
            <g id="组_21997" data-name="组 21997" transform="translate(0 0)">
              <rect id="矩形_2721" data-name="矩形 2721" width="472.183" height="1.891" transform="translate(0 84.71) rotate(-10.335)"/>
            </g>
            <g id="组_21998" data-name="组 21998" transform="translate(0 0)">
              <rect id="矩形_2722" data-name="矩形 2722" width="472.183" height="1.891" transform="translate(0 84.71) rotate(-10.335)"/>
            </g>
          </g>
          <g id="组_22003" data-name="组 22003" transform="translate(496.139 32.308)">
            <g id="组_22000" data-name="组 22000" transform="translate(464.098 0.366)">
              <rect id="矩形_2723" data-name="矩形 2723" width="192.908" height="1.261" transform="matrix(0.063, -0.998, 0.998, 0.063, 0, 192.522)"/>
            </g>
            <g id="组_22001" data-name="组 22001" transform="translate(0)">
              <path id="路径_39980" data-name="路径 39980" d="M63.23,337.945l-.63-1.261L538.566,59.3l1.261,1.261Z" transform="translate(-62.6 -59.3)"/>
            </g>
            <g id="组_22002" data-name="组 22002" transform="translate(0)">
              <path id="路径_39981" data-name="路径 39981" d="M63.23,337.945l-.63-1.261L538.566,59.3l1.261,1.261Z" transform="translate(-62.6 -59.3)"/>
            </g>
          </g>
          <g id="组_22008" data-name="组 22008" transform="translate(495.837 32.165)">
            <g id="组_22004" data-name="组 22004" transform="translate(326.765 0)">
              <rect id="矩形_2724" data-name="矩形 2724" width="182.191" height="1.261" transform="translate(0 104.013) rotate(-34.814)"/>
            </g>
            <g id="组_22005" data-name="组 22005" transform="translate(327.17 104.435)">
              <rect id="矩形_2725" data-name="矩形 2725" width="1.261" height="163.278" transform="matrix(0.54, -0.841, 0.841, 0.54, 0, 1.061)"/>
            </g>
            <g id="组_22006" data-name="组 22006" transform="translate(0 103.907)">
              <rect id="矩形_2726" data-name="矩形 2726" width="370.055" height="1.261" transform="translate(0 173.556) rotate(-27.969)"/>
            </g>
            <g id="组_22007" data-name="组 22007" transform="translate(0 103.907)">
              <rect id="矩形_2727" data-name="矩形 2727" width="370.055" height="1.261" transform="translate(0 173.556) rotate(-27.969)"/>
            </g>
          </g>
          <g id="组_22011" data-name="组 22011" transform="translate(0 309.692)">
            <g id="组_22009" data-name="组 22009">
              <path id="路径_39982" data-name="路径 39982" d="M-16.1,576.113,480.669,104.561l-.63-1.261L-16.1,574.222Z" transform="translate(16.1 -103.3)"/>
            </g>
            <g id="组_22010" data-name="组 22010">
              <path id="路径_39983" data-name="路径 39983" d="M-16.1,576.113,480.669,104.561l-.63-1.261L-16.1,574.222Z" transform="translate(16.1 -103.3)"/>
            </g>
          </g>
          <g id="组_22018" data-name="组 22018" transform="translate(0 136.327)">
            <g id="组_22012" data-name="组 22012" transform="translate(0 127.344)">
              <path id="路径_39984" data-name="路径 39984" d="M-16.1,493.163,55.768,96H53.876L-16.1,484.337Z" transform="translate(16.1 -96)"/>
            </g>
            <g id="组_22013" data-name="组 22013" transform="translate(0 115.366)">
              <path id="路径_39985" data-name="路径 39985" d="M-16.1,94.1v1.261l70.607,11.347.63-1.261Z" transform="translate(16.1 -94.1)"/>
            </g>
            <g id="组_22014" data-name="组 22014" transform="translate(70.607)">
              <path id="路径_39986" data-name="路径 39986" d="M-4.27,203.775l-.63-1.261L747.819,75.8v1.261Z" transform="translate(4.9 -75.8)"/>
            </g>
            <g id="组_22015" data-name="组 22015" transform="translate(0 126.714)">
              <path id="路径_39987" data-name="路径 39987" d="M-16.1,143.181,55.137,97.161l-.63-1.261L-16.1,141.29Z" transform="translate(16.1 -95.9)"/>
            </g>
            <g id="组_22016" data-name="组 22016" transform="translate(71.065 126.796)">
              <rect id="矩形_2728" data-name="矩形 2728" width="1.261" height="428.054" transform="translate(0 1.253) rotate(-83.754)"/>
            </g>
            <g id="组_22017" data-name="组 22017" transform="translate(71.065 126.796)">
              <rect id="矩形_2729" data-name="矩形 2729" width="1.261" height="428.054" transform="translate(0 1.253) rotate(-83.754)"/>
            </g>
          </g>
          <g id="组_22024" data-name="组 22024" transform="translate(495.939 33.135)">
            <g id="组_22019" data-name="组 22019" transform="translate(326.126 103.822)">
              <path id="路径_39988" data-name="路径 39988" d="M215.8,741.621,114.3,75.9h1.891L217.058,741.621Z" transform="translate(-114.3 -75.9)"/>
            </g>
            <g id="组_22020" data-name="组 22020" transform="translate(427.475 0)">
              <rect id="矩形_2730" data-name="矩形 2730" width="771.001" height="1.261" transform="translate(0 769.459) rotate(-86.406)"/>
            </g>
            <g id="组_22021" data-name="组 22021" transform="translate(427.648 192.686)">
              <rect id="矩形_2731" data-name="矩形 2731" width="578.093" height="1.261" transform="translate(0 576.937) rotate(-86.392)"/>
            </g>
            <g id="组_22022" data-name="组 22022" transform="translate(0 276.653)">
              <rect id="矩形_2732" data-name="矩形 2732" width="1.261" height="652.483" transform="matrix(0.755, -0.656, 0.656, 0.755, 0, 0.827)"/>
            </g>
            <g id="组_22023" data-name="组 22023" transform="translate(0 276.653)">
              <rect id="矩形_2733" data-name="矩形 2733" width="1.261" height="652.483" transform="matrix(0.755, -0.656, 0.656, 0.755, 0, 0.827)"/>
            </g>
          </g>
          <g id="组_22032" data-name="组 22032" transform="translate(0 136.728)">
            <g id="组_22025" data-name="组 22025" transform="translate(529.871 665.909)">
              <rect id="矩形_2734" data-name="矩形 2734" width="404.098" height="1.891" transform="matrix(0.976, -0.219, 0.219, 0.976, 0, 88.336)"/>
            </g>
            <g id="组_22026" data-name="组 22026" transform="translate(69.976 126.313)">
              <path id="路径_39989" data-name="路径 39989" d="M454.575,725.688-5,97.161-3.739,95.9,455.836,725.057Z" transform="translate(5 -95.9)"/>
            </g>
            <g id="组_22027" data-name="组 22027" transform="translate(0 674.146)">
              <path id="路径_39990" data-name="路径 39990" d="M-16.1,182.8v1.261l530.182,81.324v-1.891Z" transform="translate(16.1 -182.8)"/>
            </g>
            <g id="组_22028" data-name="组 22028" transform="translate(529.561)">
              <rect id="矩形_2735" data-name="矩形 2735" width="810.087" height="1.891" transform="translate(0 755.406) rotate(-68.826)"/>
            </g>
            <g id="组_22029" data-name="组 22029" transform="translate(529.551 88.488)">
              <path id="路径_39991" data-name="路径 39991" d="M69.161,757.513l-1.261-.63L498.476,89.9l1.261.63Z" transform="translate(-67.9 -89.9)"/>
            </g>
            <g id="组_22030" data-name="组 22030" transform="translate(495.627 173.374)">
              <rect id="矩形_2736" data-name="矩形 2736" width="1.891" height="583.137" transform="matrix(0.998, -0.058, 0.058, 0.998, 0, 0.11)"/>
            </g>
            <g id="组_22031" data-name="组 22031" transform="translate(495.627 173.374)">
              <rect id="矩形_2737" data-name="矩形 2737" width="1.891" height="583.137" transform="matrix(0.998, -0.058, 0.058, 0.998, 0, 0.11)"/>
            </g>
          </g>
          <g id="组_22037" data-name="组 22037" transform="translate(822.695 0)">
            <g id="组_22033" data-name="组 22033" transform="translate(552.246 0.157)">
              <path id="路径_39992" data-name="路径 39992" d="M793.962,371.3,202.63,54.2,202,55.461l591.962,317.1Z" transform="translate(-202 -54.2)"/>
            </g>
            <g id="组_22034" data-name="组 22034" transform="translate(0 0.157)">
              <path id="路径_39993" data-name="路径 39993" d="M115.03,191.631l-.63-1.261L666.646,54.2l.63,1.261Z" transform="translate(-114.4 -54.2)"/>
            </g>
            <g id="组_22035" data-name="组 22035" transform="translate(150.039 0.157)">
              <path id="路径_39994" data-name="路径 39994" d="M138.2,87.612V86.351L540.407,54.2l.63,1.261Z" transform="translate(-138.2 -54.2)"/>
            </g>
            <g id="组_22036" data-name="组 22036" transform="translate(137.898)">
              <rect id="矩形_2738" data-name="矩形 2738" width="471.553" height="1.261" transform="matrix(0.879, -0.477, 0.477, 0.879, 0, 224.789)"/>
            </g>
          </g>
          <g id="组_22040" data-name="组 22040" transform="translate(924.193 225.193)">
            <g id="组_22038" data-name="组 22038" transform="translate(0 576.855)">
              <path id="路径_39995" data-name="路径 39995" d="M572.423,284.789,130.5,182.661V181.4L572.423,282.9Z" transform="translate(-130.5 -181.4)"/>
            </g>
            <g id="组_22039" data-name="组 22039" transform="translate(35.844 0)">
              <rect id="矩形_2739" data-name="矩形 2739" width="1.891" height="791.175" transform="translate(0 0.97) rotate(-30.843)"/>
            </g>
          </g>
          <g id="组_22048" data-name="组 22048" transform="translate(822.695 0.025)">
            <g id="组_22041" data-name="组 22041" transform="translate(542.664 534.601)">
              <rect id="矩形_2740" data-name="矩形 2740" width="398.424" height="1.891" transform="matrix(0.374, -0.927, 0.927, 0.374, 0, 369.459)"/>
            </g>
            <g id="组_22042" data-name="组 22042" transform="translate(551.651 0)">
              <rect id="矩形_2741" data-name="矩形 2741" width="1.891" height="552.246" transform="matrix(0.967, -0.253, 0.253, 0.967, 0, 0.479)"/>
            </g>
            <g id="组_22043" data-name="组 22043" transform="translate(692.199 393.513)">
              <path id="路径_39996" data-name="路径 39996" d="M676.21,116.6,224.2,257.183v1.261L676.21,118.491Z" transform="translate(-224.2 -116.6)"/>
            </g>
            <g id="组_22044" data-name="组 22044" transform="translate(101.262 533.511)">
              <rect id="矩形_2742" data-name="矩形 2742" width="648.7" height="1.261" transform="translate(0 268.627) rotate(-24.463)"/>
            </g>
            <g id="组_22045" data-name="组 22045" transform="translate(0 136.302)">
              <path id="路径_39997" data-name="路径 39997" d="M805.968,474.855,114.4,77.061l.63-1.261,692.2,397.794Z" transform="translate(-114.4 -75.8)"/>
            </g>
            <g id="组_22046" data-name="组 22046" transform="translate(149.585 32.046)">
              <rect id="矩形_2743" data-name="矩形 2743" width="1.891" height="738.85" transform="translate(0 1.388) rotate(-47.229)"/>
            </g>
            <g id="组_22047" data-name="组 22047" transform="translate(137.402 224.553)">
              <rect id="矩形_2744" data-name="矩形 2744" width="1.891" height="634.831" transform="translate(0 1.652) rotate(-60.849)"/>
            </g>
          </g>
          <g id="组_22050" data-name="组 22050" transform="translate(1514.894 534.12)">
            <g id="组_22049" data-name="组 22049">
              <path id="路径_39998" data-name="路径 39998" d="M676.21,256.788,224.2,138.9v1.261L676.21,258.679Z" transform="translate(-224.2 -138.9)"/>
            </g>
          </g>
          <g id="组_22056" data-name="组 22056" transform="translate(924.091 497.556)">
            <g id="组_22051" data-name="组 22051" transform="translate(742.734 341.056)">
              <path id="路径_39999" data-name="路径 39999" d="M548.379,187.2,248.3,283.654l.63,1.891,299.448-96.454Z" transform="translate(-248.3 -187.2)"/>
            </g>
            <g id="组_22052" data-name="组 22052" transform="translate(590.173 36.564)">
              <path id="路径_40000" data-name="路径 40000" d="M376.661,541.107,224.1,139.531l1.261-.631L377.922,540.476Z" transform="translate(-224.1 -138.9)"/>
            </g>
            <g id="组_22053" data-name="组 22053" transform="translate(441.745 405.549)">
              <rect id="矩形_2745" data-name="矩形 2745" width="1.891" height="302.601" transform="translate(0 1.881) rotate(-83.996)"/>
            </g>
            <g id="组_22054" data-name="组 22054" transform="translate(742.734)">
              <path id="路径_40001" data-name="路径 40001" d="M548.379,133.1,248.3,571.241l1.261.63L548.379,135.622Z" transform="translate(-248.3 -133.1)"/>
            </g>
            <g id="组_22055" data-name="组 22055" transform="translate(0 304.675)">
              <rect id="矩形_2746" data-name="矩形 2746" width="1.261" height="754.61" transform="translate(0 1.241) rotate(-79.81)"/>
            </g>
          </g>
        </g>
        <g id="组_22058" data-name="组 22058" transform="translate(62.717)">
          <path id="路径_40002" data-name="路径 40002" d="M71.76,118.234a8.183,8.183,0,1,1,5.674-10.087C78.694,111.929,76.173,116.973,71.76,118.234Z" transform="translate(364.184 208.017)"/>
          <path id="路径_40003" data-name="路径 40003" d="M145.46,104.734a8.183,8.183,0,1,1,5.674-10.087C151.764,99.06,149.242,103.473,145.46,104.734Z" transform="translate(755.102 136.411)"/>
          <path id="路径_40004" data-name="路径 40004" d="M71.76,118.234a8.183,8.183,0,1,1,5.674-10.087C78.694,111.929,76.173,116.973,71.76,118.234Z" transform="translate(364.184 208.017)"/>
          <path id="路径_40005" data-name="路径 40005" d="M145.46,104.734a8.183,8.183,0,1,1,5.674-10.087C151.764,99.06,149.242,103.473,145.46,104.734Z" transform="translate(755.102 136.411)"/>
          <path id="路径_40006" data-name="路径 40006" d="M145.46,104.734a8.183,8.183,0,1,1,5.674-10.087C151.764,99.06,149.242,103.473,145.46,104.734Z" transform="translate(755.102 136.411)"/>
          <path id="路径_40007" data-name="路径 40007" d="M147.36,74.234a8.183,8.183,0,1,1,5.674-10.087C154.294,67.929,151.773,72.973,147.36,74.234Z" transform="translate(765.18 -25.367)"/>
          <path id="路径_40008" data-name="路径 40008" d="M71.76,118.234a8.183,8.183,0,1,1,5.674-10.087C78.694,111.929,76.173,116.973,71.76,118.234Z" transform="translate(364.184 208.017)"/>
          <path id="路径_40009" data-name="路径 40009" d="M147.36,74.234a8.183,8.183,0,1,1,5.674-10.087C154.294,67.929,151.773,72.973,147.36,74.234Z" transform="translate(765.18 -25.367)"/>
          <path id="路径_40010" data-name="路径 40010" d="M71.76,118.234a8.183,8.183,0,1,1,5.674-10.087C78.694,111.929,76.173,116.973,71.76,118.234Z" transform="translate(364.184 208.017)"/>
          <path id="路径_40011" data-name="路径 40011" d="M147.36,74.234a8.183,8.183,0,1,1,5.674-10.087C154.294,67.929,151.773,72.973,147.36,74.234Z" transform="translate(765.18 -25.367)"/>
          <path id="路径_40012" data-name="路径 40012" d="M147.36,74.234a8.183,8.183,0,1,1,5.674-10.087C154.294,67.929,151.773,72.973,147.36,74.234Z" transform="translate(765.18 -25.367)"/>
          <path id="路径_40013" data-name="路径 40013" d="M123.56,90.734a8.183,8.183,0,1,1,5.674-10.087C130.494,84.429,127.973,89.473,123.56,90.734Z" transform="translate(638.94 62.152)"/>
          <path id="路径_40014" data-name="路径 40014" d="M145.46,104.734a8.183,8.183,0,1,1,5.674-10.087C151.764,99.06,149.242,103.473,145.46,104.734Z" transform="translate(755.102 136.411)"/>
          <path id="路径_40015" data-name="路径 40015" d="M123.56,90.734a8.183,8.183,0,1,1,5.674-10.087C130.494,84.429,127.973,89.473,123.56,90.734Z" transform="translate(638.94 62.152)"/>
          <path id="路径_40016" data-name="路径 40016" d="M71.76,118.234a8.183,8.183,0,1,1,5.674-10.087C78.694,111.929,76.173,116.973,71.76,118.234Z" transform="translate(364.184 208.017)"/>
          <path id="路径_40017" data-name="路径 40017" d="M123.56,90.734a8.183,8.183,0,1,1,5.674-10.087C130.494,84.429,127.973,89.473,123.56,90.734Z" transform="translate(638.94 62.152)"/>
          <path id="路径_40018" data-name="路径 40018" d="M71.76,118.234a8.183,8.183,0,1,1,5.674-10.087C78.694,111.929,76.173,116.973,71.76,118.234Z" transform="translate(364.184 208.017)"/>
          <path id="路径_40019" data-name="路径 40019" d="M123.56,90.734a8.183,8.183,0,1,1,5.674-10.087C130.494,84.429,127.973,89.473,123.56,90.734Z" transform="translate(638.94 62.152)"/>
          <path id="路径_40020" data-name="路径 40020" d="M71.76,118.234a8.183,8.183,0,1,1,5.674-10.087C78.694,111.929,76.173,116.973,71.76,118.234Z" transform="translate(364.184 208.017)"/>
          <path id="路径_40021" data-name="路径 40021" d="M71.76,118.234a8.183,8.183,0,1,1,5.674-10.087C78.694,111.929,76.173,116.973,71.76,118.234Z" transform="translate(364.184 208.017)"/>
          <path id="路径_40022" data-name="路径 40022" d="M4.26,110.834A8.1,8.1,0,0,1-5.827,105.16,8.1,8.1,0,0,1-.153,95.073a8.1,8.1,0,0,1,10.087,5.674C11.194,104.529,8.673,109.573,4.26,110.834Z" transform="translate(6.151 168.766)"/>
          <path id="路径_40023" data-name="路径 40023" d="M4.26,110.834A8.1,8.1,0,0,1-5.827,105.16,8.1,8.1,0,0,1-.153,95.073a8.1,8.1,0,0,1,10.087,5.674C11.194,104.529,8.673,109.573,4.26,110.834Z" transform="translate(6.151 168.766)"/>
          <path id="路径_40024" data-name="路径 40024" d="M123.56,90.734a8.183,8.183,0,1,1,5.674-10.087C130.494,84.429,127.973,89.473,123.56,90.734Z" transform="translate(638.94 62.152)"/>
          <path id="路径_40025" data-name="路径 40025" d="M4.26,110.834A8.1,8.1,0,0,1-5.827,105.16,8.1,8.1,0,0,1-.153,95.073a8.1,8.1,0,0,1,10.087,5.674C11.194,104.529,8.673,109.573,4.26,110.834Z" transform="translate(6.151 168.766)"/>
          <path id="路径_40026" data-name="路径 40026" d="M4.26,110.834A8.1,8.1,0,0,1-5.827,105.16,8.1,8.1,0,0,1-.153,95.073a8.1,8.1,0,0,1,10.087,5.674C11.194,104.529,8.673,109.573,4.26,110.834Z" transform="translate(6.151 168.766)"/>
          <path id="路径_40027" data-name="路径 40027" d="M71.76,118.234a8.183,8.183,0,1,1,5.674-10.087C78.694,111.929,76.173,116.973,71.76,118.234Z" transform="translate(364.184 208.017)"/>
          <path id="路径_40028" data-name="路径 40028" d="M4.26,110.834A8.1,8.1,0,0,1-5.827,105.16,8.1,8.1,0,0,1-.153,95.073a8.1,8.1,0,0,1,10.087,5.674C11.194,104.529,8.673,109.573,4.26,110.834Z" transform="translate(6.151 168.766)"/>
          <path id="路径_40029" data-name="路径 40029" d="M71.76,118.234a8.183,8.183,0,1,1,5.674-10.087C78.694,111.929,76.173,116.973,71.76,118.234Z" transform="translate(364.184 208.017)"/>
          <path id="路径_40030" data-name="路径 40030" d="M4.26,110.834A8.1,8.1,0,0,1-5.827,105.16,8.1,8.1,0,0,1-.153,95.073a8.1,8.1,0,0,1,10.087,5.674C11.194,104.529,8.673,109.573,4.26,110.834Z" transform="translate(6.151 168.766)"/>
          <path id="路径_40031" data-name="路径 40031" d="M123.56,90.734a8.183,8.183,0,1,1,5.674-10.087C130.494,84.429,127.973,89.473,123.56,90.734Z" transform="translate(638.94 62.152)"/>
          <path id="路径_40032" data-name="路径 40032" d="M139.66,196.234a8.183,8.183,0,1,1,5.674-10.087A8.1,8.1,0,0,1,139.66,196.234Z" transform="translate(724.337 621.743)"/>
          <path id="路径_40033" data-name="路径 40033" d="M147.36,74.234a8.183,8.183,0,1,1,5.674-10.087C154.294,67.929,151.773,72.973,147.36,74.234Z" transform="translate(765.18 -25.367)"/>
          <path id="路径_40034" data-name="路径 40034" d="M139.66,196.234a8.183,8.183,0,1,1,5.674-10.087A8.1,8.1,0,0,1,139.66,196.234Z" transform="translate(724.337 621.743)"/>
          <path id="路径_40035" data-name="路径 40035" d="M145.46,104.734a8.183,8.183,0,1,1,5.674-10.087C151.764,99.06,149.242,103.473,145.46,104.734Z" transform="translate(755.102 136.411)"/>
          <path id="路径_40036" data-name="路径 40036" d="M139.66,196.234a8.183,8.183,0,1,1,5.674-10.087A8.1,8.1,0,0,1,139.66,196.234Z" transform="translate(724.337 621.743)"/>
          <path id="路径_40037" data-name="路径 40037" d="M71.76,118.234a8.183,8.183,0,1,1,5.674-10.087C78.694,111.929,76.173,116.973,71.76,118.234Z" transform="translate(364.184 208.017)"/>
          <path id="路径_40038" data-name="路径 40038" d="M139.66,196.234a8.183,8.183,0,1,1,5.674-10.087A8.1,8.1,0,0,1,139.66,196.234Z" transform="translate(724.337 621.743)"/>
          <path id="路径_40039" data-name="路径 40039" d="M71.76,118.234a8.183,8.183,0,1,1,5.674-10.087C78.694,111.929,76.173,116.973,71.76,118.234Z" transform="translate(364.184 208.017)"/>
          <path id="路径_40040" data-name="路径 40040" d="M139.66,196.234a8.183,8.183,0,1,1,5.674-10.087A8.1,8.1,0,0,1,139.66,196.234Z" transform="translate(724.337 621.743)"/>
          <path id="路径_40041" data-name="路径 40041" d="M139.66,196.234a8.183,8.183,0,1,1,5.674-10.087A8.1,8.1,0,0,1,139.66,196.234Z" transform="translate(724.337 621.743)"/>
          <path id="路径_40042" data-name="路径 40042" d="M77.16,210.534a8.183,8.183,0,1,1,5.674-10.087A8.1,8.1,0,0,1,77.16,210.534Z" transform="translate(392.826 697.593)"/>
          <path id="路径_40043" data-name="路径 40043" d="M4.26,110.834A8.1,8.1,0,0,1-5.827,105.16,8.1,8.1,0,0,1-.153,95.073a8.1,8.1,0,0,1,10.087,5.674C11.194,104.529,8.673,109.573,4.26,110.834Z" transform="translate(6.151 168.766)"/>
          <path id="路径_40044" data-name="路径 40044" d="M77.16,210.534a8.183,8.183,0,1,1,5.674-10.087A8.1,8.1,0,0,1,77.16,210.534Z" transform="translate(392.826 697.593)"/>
          <path id="路径_40045" data-name="路径 40045" d="M77.16,210.534a8.183,8.183,0,1,1,5.674-10.087A8.1,8.1,0,0,1,77.16,210.534Z" transform="translate(392.826 697.593)"/>
          <path id="路径_40046" data-name="路径 40046" d="M123.56,90.734a8.183,8.183,0,1,1,5.674-10.087C130.494,84.429,127.973,89.473,123.56,90.734Z" transform="translate(638.94 62.152)"/>
          <path id="路径_40047" data-name="路径 40047" d="M77.16,210.534a8.183,8.183,0,1,1,5.674-10.087A8.1,8.1,0,0,1,77.16,210.534Z" transform="translate(392.826 697.593)"/>
          <path id="路径_40048" data-name="路径 40048" d="M145.46,104.734a8.183,8.183,0,1,1,5.674-10.087C151.764,99.06,149.242,103.473,145.46,104.734Z" transform="translate(755.102 136.411)"/>
          <path id="路径_40049" data-name="路径 40049" d="M77.16,210.534a8.183,8.183,0,1,1,5.674-10.087A8.1,8.1,0,0,1,77.16,210.534Z" transform="translate(392.826 697.593)"/>
          <path id="路径_40050" data-name="路径 40050" d="M71.76,118.234a8.183,8.183,0,1,1,5.674-10.087C78.694,111.929,76.173,116.973,71.76,118.234Z" transform="translate(364.184 208.017)"/>
          <path id="路径_40051" data-name="路径 40051" d="M77.16,210.534a8.183,8.183,0,1,1,5.674-10.087A8.1,8.1,0,0,1,77.16,210.534Z" transform="translate(392.826 697.593)"/>
          <path id="路径_40052" data-name="路径 40052" d="M71.76,118.234a8.183,8.183,0,1,1,5.674-10.087C78.694,111.929,76.173,116.973,71.76,118.234Z" transform="translate(364.184 208.017)"/>
          <path id="路径_40053" data-name="路径 40053" d="M77.16,210.534a8.183,8.183,0,1,1,5.674-10.087A8.1,8.1,0,0,1,77.16,210.534Z" transform="translate(392.826 697.593)"/>
          <path id="路径_40054" data-name="路径 40054" d="M211.16,69.034a8.183,8.183,0,1,1,5.674-10.087A8.1,8.1,0,0,1,211.16,69.034Z" transform="translate(1103.586 -52.949)"/>
          <path id="路径_40055" data-name="路径 40055" d="M123.56,90.734a8.183,8.183,0,1,1,5.674-10.087C130.494,84.429,127.973,89.473,123.56,90.734Z" transform="translate(638.94 62.152)"/>
          <path id="路径_40056" data-name="路径 40056" d="M211.16,69.034a8.183,8.183,0,1,1,5.674-10.087A8.1,8.1,0,0,1,211.16,69.034Z" transform="translate(1103.586 -52.949)"/>
          <path id="路径_40057" data-name="路径 40057" d="M147.36,74.234a8.183,8.183,0,1,1,5.674-10.087C154.294,67.929,151.773,72.973,147.36,74.234Z" transform="translate(765.18 -25.367)"/>
          <path id="路径_40058" data-name="路径 40058" d="M211.16,69.034a8.183,8.183,0,1,1,5.674-10.087A8.1,8.1,0,0,1,211.16,69.034Z" transform="translate(1103.586 -52.949)"/>
          <path id="路径_40059" data-name="路径 40059" d="M145.46,104.734a8.183,8.183,0,1,1,5.674-10.087C151.764,99.06,149.242,103.473,145.46,104.734Z" transform="translate(755.102 136.411)"/>
          <path id="路径_40060" data-name="路径 40060" d="M211.16,69.034a8.183,8.183,0,1,1,5.674-10.087A8.1,8.1,0,0,1,211.16,69.034Z" transform="translate(1103.586 -52.949)"/>
          <path id="路径_40061" data-name="路径 40061" d="M139.66,196.234a8.183,8.183,0,1,1,5.674-10.087A8.1,8.1,0,0,1,139.66,196.234Z" transform="translate(724.337 621.743)"/>
          <path id="路径_40062" data-name="路径 40062" d="M209.76,212.434a8.183,8.183,0,1,1,5.674-10.087A8.1,8.1,0,0,1,209.76,212.434Z" transform="translate(1096.16 707.671)"/>
          <path id="路径_40063" data-name="路径 40063" d="M145.46,104.734a8.183,8.183,0,1,1,5.674-10.087C151.764,99.06,149.242,103.473,145.46,104.734Z" transform="translate(755.102 136.411)"/>
          <path id="路径_40064" data-name="路径 40064" d="M209.76,212.434a8.183,8.183,0,1,1,5.674-10.087A8.1,8.1,0,0,1,209.76,212.434Z" transform="translate(1096.16 707.671)"/>
          <path id="路径_40065" data-name="路径 40065" d="M209.76,212.434a8.183,8.183,0,1,1,5.674-10.087A8.1,8.1,0,0,1,209.76,212.434Z" transform="translate(1096.16 707.671)"/>
          <path id="路径_40066" data-name="路径 40066" d="M233.36,153.733a8.183,8.183,0,1,1,5.674-10.087A8.1,8.1,0,0,1,233.36,153.733Z" transform="translate(1221.339 396.315)"/>
          <path id="路径_40067" data-name="路径 40067" d="M211.16,69.034a8.183,8.183,0,1,1,5.674-10.087A8.1,8.1,0,0,1,211.16,69.034Z" transform="translate(1103.586 -52.949)"/>
          <path id="路径_40068" data-name="路径 40068" d="M233.36,153.733a8.183,8.183,0,1,1,5.674-10.087A8.1,8.1,0,0,1,233.36,153.733Z" transform="translate(1221.339 396.315)"/>
          <path id="路径_40069" data-name="路径 40069" d="M233.36,153.733a8.183,8.183,0,1,1,5.674-10.087A8.1,8.1,0,0,1,233.36,153.733Z" transform="translate(1221.339 396.315)"/>
          <path id="路径_40070" data-name="路径 40070" d="M139.66,196.234a8.183,8.183,0,1,1,5.674-10.087A8.1,8.1,0,0,1,139.66,196.234Z" transform="translate(724.337 621.743)"/>
          <path id="路径_40071" data-name="路径 40071" d="M233.36,153.733a8.183,8.183,0,1,1,5.674-10.087A8.1,8.1,0,0,1,233.36,153.733Z" transform="translate(1221.339 396.315)"/>
          <path id="路径_40072" data-name="路径 40072" d="M123.56,90.734a8.183,8.183,0,1,1,5.674-10.087C130.494,84.429,127.973,89.473,123.56,90.734Z" transform="translate(638.94 62.152)"/>
          <path id="路径_40073" data-name="路径 40073" d="M233.36,153.733a8.183,8.183,0,1,1,5.674-10.087A8.1,8.1,0,0,1,233.36,153.733Z" transform="translate(1221.339 396.315)"/>
          <path id="路径_40074" data-name="路径 40074" d="M147.36,74.234a8.183,8.183,0,1,1,5.674-10.087C154.294,67.929,151.773,72.973,147.36,74.234Z" transform="translate(765.18 -25.367)"/>
          <path id="路径_40075" data-name="路径 40075" d="M233.36,153.733a8.183,8.183,0,1,1,5.674-10.087A8.1,8.1,0,0,1,233.36,153.733Z" transform="translate(1221.339 396.315)"/>
          <path id="路径_40076" data-name="路径 40076" d="M145.46,104.734a8.183,8.183,0,1,1,5.674-10.087C151.764,99.06,149.242,103.473,145.46,104.734Z" transform="translate(755.102 136.411)"/>
          <path id="路径_40077" data-name="路径 40077" d="M233.36,153.733a8.183,8.183,0,1,1,5.674-10.087A8.1,8.1,0,0,1,233.36,153.733Z" transform="translate(1221.339 396.315)"/>
          <path id="路径_40078" data-name="路径 40078" d="M233.36,153.733a8.183,8.183,0,1,1,5.674-10.087A8.1,8.1,0,0,1,233.36,153.733Z" transform="translate(1221.339 396.315)"/>
          <path id="路径_40079" data-name="路径 40079" d="M257.46,217.434a8.183,8.183,0,1,1,5.674-10.087A8.1,8.1,0,0,1,257.46,217.434Z" transform="translate(1349.17 734.192)"/>
          <path id="路径_40080" data-name="路径 40080" d="M233.36,153.733a8.183,8.183,0,1,1,5.674-10.087A8.1,8.1,0,0,1,233.36,153.733Z" transform="translate(1221.339 396.315)"/>
          <path id="路径_40081" data-name="路径 40081" d="M257.46,217.434a8.183,8.183,0,1,1,5.674-10.087A8.1,8.1,0,0,1,257.46,217.434Z" transform="translate(1349.17 734.192)"/>
          <path id="路径_40082" data-name="路径 40082" d="M209.76,212.434a8.183,8.183,0,1,1,5.674-10.087A8.1,8.1,0,0,1,209.76,212.434Z" transform="translate(1096.16 707.671)"/>
          <path id="路径_40083" data-name="路径 40083" d="M257.46,217.434a8.183,8.183,0,1,1,5.674-10.087A8.1,8.1,0,0,1,257.46,217.434Z" transform="translate(1349.17 734.192)"/>
          <path id="路径_40084" data-name="路径 40084" d="M257.46,217.434a8.183,8.183,0,1,1,5.674-10.087A8.1,8.1,0,0,1,257.46,217.434Z" transform="translate(1349.17 734.192)"/>
          <path id="路径_40085" data-name="路径 40085" d="M139.66,196.234a8.183,8.183,0,1,1,5.674-10.087A8.1,8.1,0,0,1,139.66,196.234Z" transform="translate(724.337 621.743)"/>
        </g>
      </g>
    </g>
    <g id="组_22249" data-name="组 22249" transform="translate(10 -18)">
      <path id="路径_40958" data-name="路径 40958" d="M599.273-6.4v-9.547a5.986,5.986,0,0,0-.5-2.539,4.543,4.543,0,0,0-1.409-1.752,6.025,6.025,0,0,0-2.209-1,17.125,17.125,0,0,0-3.809-.317,21.538,21.538,0,0,0-3.136.241,27.03,27.03,0,0,0-3.212.673,25.174,25.174,0,0,0-2.983,1.016,16.078,16.078,0,0,0-2.45,1.244v-5.84a12.171,12.171,0,0,1,2.361-1.092,20.6,20.6,0,0,1,2.831-.749,29.923,29.923,0,0,1,3.174-.432q1.663-.14,3.415-.14,7.084,0,10.664,2.7t3.58,7.909V0h-6.7l-6.678-7.262a4.721,4.721,0,0,1-1.5,1.193,4.989,4.989,0,0,1-2.285.457,4.926,4.926,0,0,1-1.9-.368A4.677,4.677,0,0,1,584.99-7a4.928,4.928,0,0,1-1.028-1.511,4.54,4.54,0,0,1-.381-1.854,5.254,5.254,0,0,1,.381-2.082,4.247,4.247,0,0,1,1.054-1.5,4.379,4.379,0,0,1,1.612-.914,6.548,6.548,0,0,1,2.031-.3,5.535,5.535,0,0,1,1.587.216,5.994,5.994,0,0,1,1.346.584,6.733,6.733,0,0,1,1.155.863q.533.5,1.041,1.054Zm-8.937-3.961a1.885,1.885,0,0,0-.571-1.384,1.885,1.885,0,0,0-1.384-.571,1.885,1.885,0,0,0-1.384.571,1.885,1.885,0,0,0-.571,1.384A1.885,1.885,0,0,0,587-8.976a1.885,1.885,0,0,0,1.384.571,1.885,1.885,0,0,0,1.384-.571A1.885,1.885,0,0,0,590.335-10.359Zm12.386,22.572V8.48h-.152a2.779,2.779,0,0,1-1.13-.229,3.085,3.085,0,0,1-.914-.609,2.625,2.625,0,0,1-.609-.914,3.017,3.017,0,0,1-.216-1.143,2.844,2.844,0,0,1,.2-1.066,2.661,2.661,0,0,1,.6-.9,2.991,2.991,0,0,1,.965-.635,3.336,3.336,0,0,1,1.308-.241,3.044,3.044,0,0,1,2.311.851,2.949,2.949,0,0,1,.813,2.12v6.5Zm-1.193-6.627a1.04,1.04,0,1,0,.3-.736A1,1,0,0,0,601.528,5.586Zm23.51-10.461a15.977,15.977,0,0,0,1.8-1.422,4.88,4.88,0,0,0,1.117-1.5,4.293,4.293,0,0,1-1.879-1.676,4.949,4.949,0,0,1-.686-2.641,5.218,5.218,0,0,1,.355-1.955,4.343,4.343,0,0,1,.99-1.511,4.605,4.605,0,0,1,1.511-.978,5.121,5.121,0,0,1,1.942-.355,5.121,5.121,0,0,1,1.942.355,4.455,4.455,0,0,1,1.523,1.016,4.574,4.574,0,0,1,1,1.587,5.664,5.664,0,0,1,.355,2.044,7.588,7.588,0,0,1-.47,2.679A10.774,10.774,0,0,1,633.3-6.855a13.885,13.885,0,0,1-1.79,2.095,25.431,25.431,0,0,1-2.12,1.828q-1.1.851-2.234,1.574L625.038,0H618.69V-4.926a17.184,17.184,0,0,0-.279-3.2q-.279-1.473-.622-2.882t-.635-2.844a15.326,15.326,0,0,1-.292-3.06,8.495,8.495,0,0,1,1-4.177,8.755,8.755,0,0,1,2.831-3.047A13.674,13.674,0,0,1,625.1-26a23.956,23.956,0,0,1,5.726-.635,23.8,23.8,0,0,1,5.865.66,12.773,12.773,0,0,1,4.405,1.98,8.656,8.656,0,0,1,2.768,3.313,10.7,10.7,0,0,1,.952,4.659V0H638.5V-15.514a6.739,6.739,0,0,0-.33-2.12,5.469,5.469,0,0,0-1.041-1.841,5.866,5.866,0,0,0-2.171-1.473,10.667,10.667,0,0,0-4.126-.635,10.536,10.536,0,0,0-3.986.609,6.024,6.024,0,0,0-2.158,1.4,5.834,5.834,0,0,0-1.092,1.727,5.221,5.221,0,0,0-.381,1.98,13.261,13.261,0,0,0,.292,2.818q.292,1.346.635,2.653t.622,2.59a12.311,12.311,0,0,1,.279,2.628Zm7.109-7.236a1.885,1.885,0,0,0-.571-1.384,1.885,1.885,0,0,0-1.384-.571,1.885,1.885,0,0,0-1.384.571,1.885,1.885,0,0,0-.571,1.384,1.885,1.885,0,0,0,.571,1.384,1.885,1.885,0,0,0,1.384.571,1.885,1.885,0,0,0,1.384-.571A1.885,1.885,0,0,0,632.147-12.111ZM664.26-4.875a15.977,15.977,0,0,0,1.8-1.422,4.88,4.88,0,0,0,1.117-1.5A4.293,4.293,0,0,1,665.3-9.471a4.949,4.949,0,0,1-.686-2.641,5.218,5.218,0,0,1,.355-1.955,4.343,4.343,0,0,1,.99-1.511,4.605,4.605,0,0,1,1.511-.978,5.121,5.121,0,0,1,1.942-.355,5.121,5.121,0,0,1,1.942.355,4.455,4.455,0,0,1,1.523,1.016,4.574,4.574,0,0,1,1,1.587,5.664,5.664,0,0,1,.355,2.044,7.588,7.588,0,0,1-.47,2.679,10.774,10.774,0,0,1-1.244,2.374,13.885,13.885,0,0,1-1.79,2.095,25.431,25.431,0,0,1-2.12,1.828q-1.1.851-2.234,1.574L664.26,0h-6.348V-5.281A14.1,14.1,0,0,0,657.634-8q-.279-1.422-.622-2.907t-.635-3a15.825,15.825,0,0,1-.292-3.009,9.046,9.046,0,0,1,.838-4.037,9.119,9.119,0,0,1,2.171-2.869,10.035,10.035,0,0,1,3-1.815,14.634,14.634,0,0,1,3.339-.876l4.7,3.682,4.367-3.631a14.024,14.024,0,0,1,3.58.876,9.344,9.344,0,0,1,3.047,1.917,9.168,9.168,0,0,1,2.12,3.11,11.343,11.343,0,0,1,.8,4.481V0h-6.322V-14.65q0-.99-.076-1.942a7.169,7.169,0,0,0-.355-1.765,4.867,4.867,0,0,0-.965-1.6,6.078,6.078,0,0,0-2.057-1.422l-4.139,3.428-4.24-3.428a6.114,6.114,0,0,0-1.93,1.295,4.708,4.708,0,0,0-1.028,1.5,6.305,6.305,0,0,0-.394,1.549,13.3,13.3,0,0,0-.1,1.65,11.176,11.176,0,0,0,.292,2.425q.292,1.308.635,2.653t.622,2.666a11.94,11.94,0,0,1,.279,2.463Zm7.109-7.236A1.885,1.885,0,0,0,670.8-13.5a1.885,1.885,0,0,0-1.384-.571,1.885,1.885,0,0,0-1.384.571,1.885,1.885,0,0,0-.571,1.384,1.885,1.885,0,0,0,.571,1.384,1.885,1.885,0,0,0,1.384.571,1.885,1.885,0,0,0,1.384-.571A1.885,1.885,0,0,0,671.37-12.111Zm2.094-21.836a3.773,3.773,0,0,1-.343.546,2.409,2.409,0,0,1-.559.533,3.312,3.312,0,0,1-.812.406,3.248,3.248,0,0,1-1.079.165,3.2,3.2,0,0,1-1.257-.241,2.978,2.978,0,0,1-.99-.673,3.19,3.19,0,0,1-.66-1.016,3.293,3.293,0,0,1-.241-1.27,2.811,2.811,0,0,1,1.066-2.209,4.678,4.678,0,0,1,3.123-.914,6.635,6.635,0,0,1,2.057.3,4.956,4.956,0,0,1,1.612.851,3.729,3.729,0,0,1,1.041,1.333,4.085,4.085,0,0,1,.368,1.752,4.487,4.487,0,0,1-2.26,4.012,6.729,6.729,0,0,0,3.428-.749,5.119,5.119,0,0,0,1.93-1.942,7.59,7.59,0,0,0,.863-2.653,24.146,24.146,0,0,0,.229-2.907h4.139q-.127,1.727-.343,3.174a11.8,11.8,0,0,1-.673,2.6,6.977,6.977,0,0,1-1.219,2.031,6.1,6.1,0,0,1-1.955,1.46,10.731,10.731,0,0,1-2.907.876,24.626,24.626,0,0,1-4.075.292h-3.2v-2.234a4.028,4.028,0,0,0,1.942-1.27A3.376,3.376,0,0,0,673.463-33.947ZM669.5-35.471a1.368,1.368,0,0,0,.419,1,1.368,1.368,0,0,0,1,.419,1.368,1.368,0,0,0,1-.419,1.368,1.368,0,0,0,.419-1,1.368,1.368,0,0,0-.419-1,1.368,1.368,0,0,0-1-.419,1.368,1.368,0,0,0-1,.419A1.368,1.368,0,0,0,669.5-35.471ZM705.108-6.3a13.637,13.637,0,0,1,1.739-1.5,12.09,12.09,0,0,1,2.222-1.282,25.328,25.328,0,0,1,2.755-1.028,20.425,20.425,0,0,1,4.2-.711V-26.254h6.322v15.387a9.45,9.45,0,0,1,2.438.508,6.6,6.6,0,0,1,2.006,1.117,5.013,5.013,0,0,1,1.358,1.765,5.7,5.7,0,0,1,.5,2.45A5.016,5.016,0,0,1,727.02-.965,7.686,7.686,0,0,1,721.993.406a5.737,5.737,0,0,1-4.354-1.688,6.694,6.694,0,0,1-1.612-4.812v-.863a12.376,12.376,0,0,0-3.9.927,14.175,14.175,0,0,0-2.844,1.638,14.588,14.588,0,0,0-2.209,2.069A17.2,17.2,0,0,0,705.362,0h-6.6V-17.113l-.2-.025a4.88,4.88,0,0,1-1.625-.482,4.507,4.507,0,0,1-1.32-.99,4.51,4.51,0,0,1-.876-1.422,4.916,4.916,0,0,1-.317-1.8,5.254,5.254,0,0,1,.381-2.082,4.038,4.038,0,0,1,1.092-1.5,4.715,4.715,0,0,1,1.688-.914,7.182,7.182,0,0,1,2.146-.3,5.454,5.454,0,0,1,3.809,1.435,5.71,5.71,0,0,1,1.574,4.431Zm17.24,1.5a2.414,2.414,0,0,0,.343,1.473,1.2,1.2,0,0,0,1,.432,1.131,1.131,0,0,0,.914-.432,2,2,0,0,0,.355-1.295q0-2.158-2.615-2.437ZM701.172-21.836a1.885,1.885,0,0,0-.571-1.384,1.885,1.885,0,0,0-1.384-.571,1.885,1.885,0,0,0-1.384.571,1.885,1.885,0,0,0-.571,1.384,1.885,1.885,0,0,0,.571,1.384,1.885,1.885,0,0,0,1.384.571,1.885,1.885,0,0,0,1.384-.571A1.885,1.885,0,0,0,701.172-21.836ZM741.41,0V-17.113l-.2-.025a4.88,4.88,0,0,1-1.625-.482,4.507,4.507,0,0,1-1.32-.99,4.51,4.51,0,0,1-.876-1.422,4.916,4.916,0,0,1-.317-1.8,5.254,5.254,0,0,1,.381-2.082,4.038,4.038,0,0,1,1.092-1.5,4.715,4.715,0,0,1,1.688-.914,7.182,7.182,0,0,1,2.146-.3,5.454,5.454,0,0,1,3.809,1.435,5.71,5.71,0,0,1,1.574,4.431V-7.287l10.994-18.967h5.307a6.288,6.288,0,0,1,1.841.267,4.518,4.518,0,0,1,1.549.813,4,4,0,0,1,1.079,1.384,4.5,4.5,0,0,1,.406,1.98V0h-6.322V-19.754a1.661,1.661,0,0,0-.343-1.066,1.5,1.5,0,0,0-1.231-.432L748.52,0Zm2.412-21.836a1.885,1.885,0,0,0-.571-1.384,1.885,1.885,0,0,0-1.384-.571,1.885,1.885,0,0,0-1.384.571,1.885,1.885,0,0,0-.571,1.384,1.885,1.885,0,0,0,.571,1.384,1.885,1.885,0,0,0,1.384.571,1.885,1.885,0,0,0,1.384-.571A1.885,1.885,0,0,0,743.823-21.836ZM796.807,0V-15.437a5.986,5.986,0,0,0-1.65-4.545q-1.65-1.574-5.205-1.574a16.482,16.482,0,0,0-2.729.241,21.334,21.334,0,0,0-2.818.673,19.981,19.981,0,0,0-2.615,1.016,13.659,13.659,0,0,0-2.146,1.244v-5.84a8.788,8.788,0,0,1,2.044-1.092,16.816,16.816,0,0,1,2.539-.749,24.449,24.449,0,0,1,2.831-.432q1.473-.14,2.895-.14,6.7,0,9.94,2.717t3.237,7.9V0Zm32.037-21.836a1.885,1.885,0,0,0-.571-1.384,1.885,1.885,0,0,0-1.384-.571,1.885,1.885,0,0,0-1.384.571,1.885,1.885,0,0,0-.571,1.384,1.885,1.885,0,0,0,.571,1.384,1.885,1.885,0,0,0,1.384.571,1.885,1.885,0,0,0,1.384-.571A1.885,1.885,0,0,0,828.844-21.836Zm-2.412,4.723a5.137,5.137,0,0,1-1.7-.432,4.526,4.526,0,0,1-1.384-.965,4.289,4.289,0,0,1-.927-1.447,5.09,5.09,0,0,1-.33-1.879,5.277,5.277,0,0,1,.381-2.069,4.016,4.016,0,0,1,1.092-1.511,4.729,4.729,0,0,1,1.676-.914,7.149,7.149,0,0,1,2.158-.3q5.383,0,5.383,6.373V0h-6.424L812.924-12.365V-18L826.431-5.713Z" transform="translate(195 538)" fill="#0080f4"/>
      <path id="路径_41016" data-name="路径 41016" d="M5-9.6a4.159,4.159,0,0,0-3.1,1.2A5.137,5.137,0,0,0,.54-4.656c0,3.048,1.752,5,4.476,5S9.5-1.62,9.5-4.656A5.175,5.175,0,0,0,8.16-8.4,4.205,4.205,0,0,0,5-9.6ZM5.04-1.08a2.591,2.591,0,0,1-1.86-.732,3.965,3.965,0,0,1-.972-2.832c0-2.172,1.092-3.54,2.82-3.54a2.583,2.583,0,0,1,1.848.732,3.876,3.876,0,0,1,.948,2.8C7.824-2.448,6.756-1.08,5.04-1.08ZM36.576-9.408a9.767,9.767,0,0,1,.1,1.644V-3.54a2.191,2.191,0,0,1-2.436,2.484,2.2,2.2,0,0,1-2.46-2.472V-7.764a9.41,9.41,0,0,1,.1-1.644H30.084a9.858,9.858,0,0,1,.1,1.644v4.236a3.865,3.865,0,0,0,.9,2.76A4.134,4.134,0,0,0,34.176.36c2.616,0,4.092-1.392,4.092-3.876v-4.26a9.7,9.7,0,0,1,.1-1.632ZM67.332.144c-.168-.324-.468-.972-.564-1.188C65.58-3.852,65.352-4.188,64.6-4.428a2.537,2.537,0,0,0,1.332-.7,2.467,2.467,0,0,0,.612-1.788c0-1.584-1.044-2.5-2.868-2.5h-2.88c-.66,0-1.032-.012-1.536-.036a10.677,10.677,0,0,1,.1,1.56v6.468a9.391,9.391,0,0,1-.1,1.56h1.788a9.364,9.364,0,0,1-.1-1.572V-3.876h1.788c.924,0,1.344.444,1.992,2.1a9.714,9.714,0,0,1,.624,1.92ZM60.948-5.244v-2.8h2.46c.984,0,1.476.444,1.476,1.308A1.424,1.424,0,0,1,64.5-5.676a1.617,1.617,0,0,1-1.14.432ZM116.7.144a9.771,9.771,0,0,1,.528-1.6l1.8-4.224a14.644,14.644,0,0,0,.552-1.752c-.012.18-.048.792-.1,1.836v3.984a11.156,11.156,0,0,1-.1,1.752h1.68a10.4,10.4,0,0,1-.1-1.752V-7.632a12.427,12.427,0,0,1,.1-1.776H118.86a6.65,6.65,0,0,1-.432,1.428L116-2.028,113.568-7.98a8.305,8.305,0,0,1-.444-1.428h-2.2a11.9,11.9,0,0,1,.1,1.776v6.024a11.254,11.254,0,0,1-.1,1.752h1.68a10.964,10.964,0,0,1-.1-1.752V-5.544c0-.264-.048-1.248-.1-1.884a13.354,13.354,0,0,0,.612,1.836l1.728,4.116a8.169,8.169,0,0,1,.528,1.62Zm25.272-9.552a8.966,8.966,0,0,1,.1,1.548V-1.4a9.055,9.055,0,0,1-.1,1.548H143.8a9.055,9.055,0,0,1-.1-1.548V-7.86a8.966,8.966,0,0,1,.1-1.548Zm22.4,6.756a4.1,4.1,0,0,0,.228,1A2.825,2.825,0,0,0,165.66-.288a4.825,4.825,0,0,0,2.52.624,3.977,3.977,0,0,0,2.868-.912,2.792,2.792,0,0,0,.756-2.04,2.368,2.368,0,0,0-1-2.064,5.283,5.283,0,0,0-1.956-.732,10.216,10.216,0,0,1-1.692-.432,1.141,1.141,0,0,1-.816-1.092c0-.78.708-1.308,1.752-1.308a1.9,1.9,0,0,1,1.5.576,1.55,1.55,0,0,1,.36.852l1.716-.2a3.235,3.235,0,0,0-.588-1.392A3.537,3.537,0,0,0,168.1-9.624c-2.064,0-3.408,1.08-3.408,2.748a2.362,2.362,0,0,0,.924,1.944,4.242,4.242,0,0,0,1.812.732,7.566,7.566,0,0,1,2.088.588,1.218,1.218,0,0,1,.6,1.1c0,.9-.72,1.44-1.92,1.44a2.13,2.13,0,0,1-1.752-.708,1.72,1.72,0,0,1-.336-1.056Zm27.78,0a4.1,4.1,0,0,0,.228,1A2.825,2.825,0,0,0,193.44-.288a4.825,4.825,0,0,0,2.52.624,3.977,3.977,0,0,0,2.868-.912,2.792,2.792,0,0,0,.756-2.04,2.368,2.368,0,0,0-1-2.064,5.283,5.283,0,0,0-1.956-.732,10.216,10.216,0,0,1-1.692-.432,1.141,1.141,0,0,1-.816-1.092c0-.78.708-1.308,1.752-1.308a1.9,1.9,0,0,1,1.5.576,1.55,1.55,0,0,1,.36.852l1.716-.2a3.235,3.235,0,0,0-.588-1.392,3.537,3.537,0,0,0-2.988-1.212c-2.064,0-3.408,1.08-3.408,2.748a2.362,2.362,0,0,0,.924,1.944A4.242,4.242,0,0,0,195.2-4.2a7.566,7.566,0,0,1,2.088.588,1.218,1.218,0,0,1,.6,1.1c0,.9-.72,1.44-1.92,1.44a2.13,2.13,0,0,1-1.752-.708,1.72,1.72,0,0,1-.336-1.056Zm28.092-6.756a8.966,8.966,0,0,1,.1,1.548V-1.4a9.055,9.055,0,0,1-.1,1.548h1.824a9.055,9.055,0,0,1-.1-1.548V-7.86a8.966,8.966,0,0,1,.1-1.548ZM247.116-9.6a4.159,4.159,0,0,0-3.1,1.2,5.137,5.137,0,0,0-1.368,3.744c0,3.048,1.752,5,4.476,5s4.488-1.968,4.488-5A5.175,5.175,0,0,0,250.272-8.4,4.205,4.205,0,0,0,247.116-9.6Zm.036,8.52a2.591,2.591,0,0,1-1.86-.732,3.965,3.965,0,0,1-.972-2.832c0-2.172,1.092-3.54,2.82-3.54a2.583,2.583,0,0,1,1.848.732,3.876,3.876,0,0,1,.948,2.8C249.936-2.448,248.868-1.08,247.152-1.08ZM280.368.144a9.055,9.055,0,0,1-.1-1.548V-7.752a10.493,10.493,0,0,1,.1-1.656h-1.752a10.489,10.489,0,0,1,.1,1.656V-3.72c0,.5.036,1.224.084,1.692-.264-.48-.648-1.1-.936-1.536l-3.036-4.572a6.582,6.582,0,0,1-.732-1.272H272.22a9.993,9.993,0,0,1,.1,1.548v6.192a12.983,12.983,0,0,1-.1,1.812h1.752a13.282,13.282,0,0,1-.1-1.8V-5.592c0-.276-.024-.816-.036-1.044-.036-.444-.036-.444-.048-.612.288.564.588,1.08.816,1.44l3.1,4.668a11.958,11.958,0,0,1,.768,1.284Z" transform="translate(195 430)"/>
      <path id="路径_40959" data-name="路径 40959" d="M26.635-22.09a1.715,1.715,0,0,0-.152-.749,1.627,1.627,0,0,0-.381-.521,1.4,1.4,0,0,0-.508-.292,1.833,1.833,0,0,0-.559-.089,1.88,1.88,0,0,0-1.1.368,1.317,1.317,0,0,0-.521,1.155,2,2,0,0,0,.533,1.346,3.357,3.357,0,0,0,1.168.889,5.712,5.712,0,0,0,.521-.355,3.232,3.232,0,0,0,.5-.47,2.343,2.343,0,0,0,.368-.584A1.715,1.715,0,0,0,26.635-22.09ZM5.434,0V-17.113l-.2-.025a4.88,4.88,0,0,1-1.625-.482,4.508,4.508,0,0,1-1.32-.99,4.509,4.509,0,0,1-.876-1.422,4.916,4.916,0,0,1-.317-1.8,5.254,5.254,0,0,1,.381-2.082,4.038,4.038,0,0,1,1.092-1.5,4.715,4.715,0,0,1,1.688-.914,7.182,7.182,0,0,1,2.146-.3A5.454,5.454,0,0,1,10.207-25.2a5.71,5.71,0,0,1,1.574,4.431V-8.734q1.27-1.422,2.691-2.793t2.577-2.349q1.155-.978,2.4-1.93t2.666-1.968q-.381-.355-.825-.838a8.1,8.1,0,0,1-.825-1.066,6,6,0,0,1-.622-1.257,4.219,4.219,0,0,1-.241-1.435,3.713,3.713,0,0,1,1.511-3.11,6.281,6.281,0,0,1,3.923-1.155,10.566,10.566,0,0,1,2.564.292,6.737,6.737,0,0,1,2.019.838,4.006,4.006,0,0,1,1.32,1.346,3.567,3.567,0,0,1,.47,1.841,3.953,3.953,0,0,1-.2,1.282,5.217,5.217,0,0,1-.533,1.117,5.9,5.9,0,0,1-.749.952,11.313,11.313,0,0,1-.876.813A5.042,5.042,0,0,1,30.507-17a5.451,5.451,0,0,1,.9,1.485,7.6,7.6,0,0,1,.47,1.765,13.73,13.73,0,0,1,.14,1.993V0H25.7V-11.6a16.18,16.18,0,0,0-.114-2.082,3.061,3.061,0,0,0-.825-1.65q-.939.66-2.285,1.79t-2.628,2.285q-1.282,1.155-2.552,2.438a40.369,40.369,0,0,0-2.755,3.136,19.4,19.4,0,0,0-2.12,3.1,5.05,5.05,0,0,0-.635,2.26V0ZM7.846-21.836a1.885,1.885,0,0,0-.571-1.384,1.885,1.885,0,0,0-1.384-.571,1.885,1.885,0,0,0-1.384.571,1.885,1.885,0,0,0-.571,1.384,1.885,1.885,0,0,0,.571,1.384,1.885,1.885,0,0,0,1.384.571,1.885,1.885,0,0,0,1.384-.571A1.885,1.885,0,0,0,7.846-21.836Zm19.541-11.1a1.885,1.885,0,0,0-.571-1.384,1.885,1.885,0,0,0-1.384-.571,1.885,1.885,0,0,0-1.384.571,1.885,1.885,0,0,0-.571,1.384,1.885,1.885,0,0,0,.571,1.384,1.885,1.885,0,0,0,1.384.571,1.885,1.885,0,0,0,1.384-.571A1.885,1.885,0,0,0,27.386-32.932Zm2.564,1.447a12.337,12.337,0,0,0,2.234-1.181,15.406,15.406,0,0,0,2.095-1.676,19.41,19.41,0,0,0,1.892-2.082,26.6,26.6,0,0,0,1.65-2.349v5.23a12.571,12.571,0,0,1-1.866,2.019,15.884,15.884,0,0,1-2.628,1.879,16.363,16.363,0,0,1-3.161,1.4A11.2,11.2,0,0,1,26.7-27.7a8.188,8.188,0,0,1-2.666-.394,5.467,5.467,0,0,1-1.9-1.079,4.393,4.393,0,0,1-1.143-1.612,5.192,5.192,0,0,1-.381-1.993,4.874,4.874,0,0,1,.381-1.917,5.12,5.12,0,0,1,1.028-1.574,4.85,4.85,0,0,1,1.523-1.066,4.5,4.5,0,0,1,1.866-.394,4.72,4.72,0,0,1,1.879.381,4.847,4.847,0,0,1,1.536,1.028A4.885,4.885,0,0,1,29.849-34.8a4.629,4.629,0,0,1,.381,1.866,3.986,3.986,0,0,1-.1.863A2.423,2.423,0,0,1,29.951-31.484ZM53.213-6.3a13.637,13.637,0,0,1,1.739-1.5,12.09,12.09,0,0,1,2.222-1.282,25.329,25.329,0,0,1,2.755-1.028,20.425,20.425,0,0,1,4.2-.711V-26.254h6.322v15.387a9.45,9.45,0,0,1,2.438.508A6.6,6.6,0,0,1,74.9-9.242a5.013,5.013,0,0,1,1.358,1.765,5.7,5.7,0,0,1,.5,2.45A5.016,5.016,0,0,1,75.125-.965,7.686,7.686,0,0,1,70.1.406a5.737,5.737,0,0,1-4.354-1.688,6.694,6.694,0,0,1-1.612-4.812v-.863a12.377,12.377,0,0,0-3.9.927,14.176,14.176,0,0,0-2.844,1.638A14.586,14.586,0,0,0,55.18-2.323,17.2,17.2,0,0,0,53.467,0h-6.6V-17.113l-.2-.025a4.88,4.88,0,0,1-1.625-.482,4.508,4.508,0,0,1-1.32-.99,4.509,4.509,0,0,1-.876-1.422,4.916,4.916,0,0,1-.317-1.8,5.254,5.254,0,0,1,.381-2.082A4.038,4.038,0,0,1,44-25.416a4.715,4.715,0,0,1,1.688-.914,7.182,7.182,0,0,1,2.146-.3A5.454,5.454,0,0,1,51.638-25.2a5.71,5.71,0,0,1,1.574,4.431Zm17.24,1.5A2.414,2.414,0,0,0,70.8-3.326a1.2,1.2,0,0,0,1,.432,1.131,1.131,0,0,0,.914-.432,2,2,0,0,0,.355-1.295q0-2.158-2.615-2.437ZM49.277-21.836a1.885,1.885,0,0,0-.571-1.384,1.885,1.885,0,0,0-1.384-.571,1.885,1.885,0,0,0-1.384.571,1.885,1.885,0,0,0-.571,1.384,1.885,1.885,0,0,0,.571,1.384,1.885,1.885,0,0,0,1.384.571,1.885,1.885,0,0,0,1.384-.571A1.885,1.885,0,0,0,49.277-21.836ZM87.128,0V-6.525a6.977,6.977,0,0,1,.33-2.146,6.382,6.382,0,0,1,.978-1.892,6.281,6.281,0,0,1,1.625-1.5,7.548,7.548,0,0,1,2.3-.965H86.443v-3.834a10.863,10.863,0,0,1,1.295-4.012,10.016,10.016,0,0,1,2.7-3.085,12.506,12.506,0,0,1,4.024-1.98,18.335,18.335,0,0,1,5.256-.7,20.351,20.351,0,0,1,6.056.8,11.855,11.855,0,0,1,4.215,2.222,8.782,8.782,0,0,1,2.463,3.364,11,11,0,0,1,.8,4.228V0h-6.322V-15.564a6.729,6.729,0,0,0-.457-2.564,5.115,5.115,0,0,0-1.295-1.879,5.627,5.627,0,0,0-2.12-1.168,11.319,11.319,0,0,0-3.339-.406,11.1,11.1,0,0,0-3.237.381,5.741,5.741,0,0,0-1.968,1.016,5.006,5.006,0,0,0-1.206,1.447,4.719,4.719,0,0,0-.546,1.8h5.053v3.91a12.812,12.812,0,0,0-1.447.533,4.368,4.368,0,0,0-1.409,1A5.21,5.21,0,0,0,93.9-9.737a7.786,7.786,0,0,0-.419,2.78V0Zm44.808-9.115.2.025a4.779,4.779,0,0,1,1.638.482,4.564,4.564,0,0,1,1.308.99,4.509,4.509,0,0,1,.876,1.422,4.916,4.916,0,0,1,.317,1.8,5.277,5.277,0,0,1-.381,2.069,4.015,4.015,0,0,1-1.092,1.511A4.73,4.73,0,0,1,133.13.1a7.149,7.149,0,0,1-2.158.3,5.454,5.454,0,0,1-3.809-1.435,5.71,5.71,0,0,1-1.574-4.431v-3.4a7.112,7.112,0,0,1,2.45-5.764q2.45-2.057,7.351-2.057a16.72,16.72,0,0,1,3.91.406,10.847,10.847,0,0,1,2.793,1.041,7.328,7.328,0,0,1,1.892,1.511,7.865,7.865,0,0,1,1.231,1.841h.076v-4.062a5.857,5.857,0,0,0-.508-2.539,4.652,4.652,0,0,0-1.422-1.752,6.028,6.028,0,0,0-2.2-1,16.944,16.944,0,0,0-3.8-.317,21.538,21.538,0,0,0-3.136.241,27.028,27.028,0,0,0-3.212.673,25.175,25.175,0,0,0-2.983,1.016,16.077,16.077,0,0,0-2.45,1.244v-5.84a12.169,12.169,0,0,1,2.361-1.092,20.6,20.6,0,0,1,2.831-.749,29.923,29.923,0,0,1,3.174-.432q1.663-.14,3.415-.14,7.084,0,10.664,2.7t3.58,7.909V0h-6.348V-5.256a7.411,7.411,0,0,0-.482-2.679,6.931,6.931,0,0,0-1.435-2.272,7.917,7.917,0,0,0-2.552-1.739,9.6,9.6,0,0,0-3.961-.724,5.758,5.758,0,0,0-3.771.978,2.887,2.887,0,0,0-1.13,2.222Zm-2.412,4.723a1.885,1.885,0,0,0,.571,1.384,1.885,1.885,0,0,0,1.384.571,1.885,1.885,0,0,0,1.384-.571,1.885,1.885,0,0,0,.571-1.384,1.885,1.885,0,0,0-.571-1.384,1.885,1.885,0,0,0-1.384-.571,1.885,1.885,0,0,0-1.384.571A1.885,1.885,0,0,0,129.525-4.393Zm16.662-28.539a1.885,1.885,0,0,0-.571-1.384,1.885,1.885,0,0,0-1.384-.571,1.885,1.885,0,0,0-1.384.571,1.885,1.885,0,0,0-.571,1.384,1.885,1.885,0,0,0,.571,1.384,1.885,1.885,0,0,0,1.384.571,1.885,1.885,0,0,0,1.384-.571A1.885,1.885,0,0,0,146.187-32.932Zm2.564,1.447a12.337,12.337,0,0,0,2.234-1.181,15.406,15.406,0,0,0,2.095-1.676,19.41,19.41,0,0,0,1.892-2.082,26.6,26.6,0,0,0,1.65-2.349v5.23a12.571,12.571,0,0,1-1.866,2.019,15.885,15.885,0,0,1-2.628,1.879,16.363,16.363,0,0,1-3.161,1.4,11.2,11.2,0,0,1-3.466.546,8.188,8.188,0,0,1-2.666-.394,5.467,5.467,0,0,1-1.9-1.079,4.393,4.393,0,0,1-1.143-1.612,5.192,5.192,0,0,1-.381-1.993,4.874,4.874,0,0,1,.381-1.917,5.12,5.12,0,0,1,1.028-1.574,4.85,4.85,0,0,1,1.523-1.066,4.5,4.5,0,0,1,1.866-.394,4.72,4.72,0,0,1,1.879.381,4.847,4.847,0,0,1,1.536,1.028,4.885,4.885,0,0,1,1.028,1.523,4.629,4.629,0,0,1,.381,1.866,3.987,3.987,0,0,1-.1.863A2.423,2.423,0,0,1,148.751-31.484ZM166.665,0V-17.113l-.2-.025a4.88,4.88,0,0,1-1.625-.482,4.508,4.508,0,0,1-1.32-.99,4.509,4.509,0,0,1-.876-1.422,4.916,4.916,0,0,1-.317-1.8,5.254,5.254,0,0,1,.381-2.082,4.038,4.038,0,0,1,1.092-1.5,4.715,4.715,0,0,1,1.688-.914,7.182,7.182,0,0,1,2.146-.3,5.454,5.454,0,0,1,3.809,1.435,5.71,5.71,0,0,1,1.574,4.431V-5.053h6.8a3.751,3.751,0,0,0,2.564-.825,3.121,3.121,0,0,0,.939-2.476v-17.9h6.322V-7.287a8.67,8.67,0,0,1-.482,2.945,6.238,6.238,0,0,1-1.435,2.311,6.488,6.488,0,0,1-2.361,1.5A9.11,9.11,0,0,1,182.128,0Zm2.412-21.836a1.885,1.885,0,0,0-.571-1.384,1.885,1.885,0,0,0-1.384-.571,1.885,1.885,0,0,0-1.384.571,1.885,1.885,0,0,0-.571,1.384,1.885,1.885,0,0,0,.571,1.384,1.885,1.885,0,0,0,1.384.571,1.885,1.885,0,0,0,1.384-.571A1.885,1.885,0,0,0,169.077-21.836Zm34.8,6.475a1.885,1.885,0,0,0,.571,1.384,1.885,1.885,0,0,0,1.384.571,1.885,1.885,0,0,0,1.384-.571,1.885,1.885,0,0,0,.571-1.384,1.885,1.885,0,0,0-.571-1.384,1.885,1.885,0,0,0-1.384-.571,1.885,1.885,0,0,0-1.384.571A1.885,1.885,0,0,0,203.882-15.361ZM233.36-7.287a8.67,8.67,0,0,1-.482,2.945,6.238,6.238,0,0,1-1.435,2.311,6.488,6.488,0,0,1-2.361,1.5A9.11,9.11,0,0,1,225.845,0H212.032V-8.658a22.743,22.743,0,0,1,.229-3.542A7.767,7.767,0,0,1,213-14.574a5.626,5.626,0,0,1,1.32-1.663,14.251,14.251,0,0,1,1.955-1.384,5.881,5.881,0,0,0-.254-1.739,3.758,3.758,0,0,0-.876-1.485,5.238,5.238,0,0,0-1.638-1.13,6.046,6.046,0,0,0-2.539-.47,8.416,8.416,0,0,0-3.555.724,5.326,5.326,0,0,0-2.209,1.638,1.051,1.051,0,0,1,.317-.063q.19-.013.317-.013a5.121,5.121,0,0,1,1.942.355,4.605,4.605,0,0,1,1.511.978,4.342,4.342,0,0,1,.99,1.511,5.218,5.218,0,0,1,.355,1.955,5.218,5.218,0,0,1-.355,1.955,4.342,4.342,0,0,1-.99,1.511,4.605,4.605,0,0,1-1.511.978,5.121,5.121,0,0,1-1.942.355,5.473,5.473,0,0,1-2.4-.5,4.949,4.949,0,0,1-1.739-1.384,6.015,6.015,0,0,1-1.066-2.133,9.96,9.96,0,0,1-.355-2.742,9.453,9.453,0,0,1,.736-3.771,7.937,7.937,0,0,1,2.184-2.945,10.314,10.314,0,0,1,3.593-1.917,16.419,16.419,0,0,1,4.989-.686,15.359,15.359,0,0,1,4.38.635,10.731,10.731,0,0,1,3.631,1.8,7.762,7.762,0,0,1,2.272,2.856,8.817,8.817,0,0,1,.787,3.771,12.312,12.312,0,0,0-2.133,1.473,6.12,6.12,0,0,0-1.384,1.752,7.8,7.8,0,0,0-.749,2.272,17.355,17.355,0,0,0-.229,3.009v4.012h5.18a3.789,3.789,0,0,0,2.564-.812,3.114,3.114,0,0,0,.939-2.488v-5.129a11.745,11.745,0,0,0-.1-1.663,4.346,4.346,0,0,0-.33-1.193,2.358,2.358,0,0,0-.6-.812,3,3,0,0,0-.9-.521v-3.072a7.587,7.587,0,0,0,2.2-1.282,4.389,4.389,0,0,0,1.143-1.587,7.1,7.1,0,0,0,.482-1.993q.114-1.1.241-2.526h6.475a19.223,19.223,0,0,1-.5,3.136,8.224,8.224,0,0,1-1,2.374,7.52,7.52,0,0,1-1.7,1.866,13.782,13.782,0,0,1-2.564,1.562,4,4,0,0,1,1.295.635,4.528,4.528,0,0,1,1.117,1.181,6.3,6.3,0,0,1,.774,1.7,7.666,7.666,0,0,1,.292,2.2Zm-3.02,19.5V8.48h-.152a2.779,2.779,0,0,1-1.13-.229,3.085,3.085,0,0,1-.914-.609,2.625,2.625,0,0,1-.609-.914,3.016,3.016,0,0,1-.216-1.143,2.845,2.845,0,0,1,.2-1.066,2.661,2.661,0,0,1,.6-.9,2.991,2.991,0,0,1,.965-.635,3.336,3.336,0,0,1,1.308-.241,3.044,3.044,0,0,1,2.311.851,2.949,2.949,0,0,1,.813,2.12v6.5Zm-1.193-6.627a1.04,1.04,0,1,0,.3-.736A1,1,0,0,0,229.147,5.586ZM268.876,0a12.922,12.922,0,0,0-1.752-2.247,22.026,22.026,0,0,0-2.272-2.044,13.188,13.188,0,0,0-3.3-1.777,11.637,11.637,0,0,0-3.339-.889v.863A6.694,6.694,0,0,1,256.6-1.282,5.737,5.737,0,0,1,252.245.406a7.686,7.686,0,0,1-5.027-1.371,5.016,5.016,0,0,1-1.625-4.062,5.7,5.7,0,0,1,.5-2.45,5.013,5.013,0,0,1,1.358-1.765,6.6,6.6,0,0,1,2.006-1.117,9.45,9.45,0,0,1,2.438-.508v-6.246l-.229-.025a4.88,4.88,0,0,1-1.625-.482,4.508,4.508,0,0,1-1.32-.99,4.509,4.509,0,0,1-.876-1.422,4.916,4.916,0,0,1-.317-1.8,5.254,5.254,0,0,1,.381-2.082,4.038,4.038,0,0,1,1.092-1.5,4.715,4.715,0,0,1,1.688-.914,7.182,7.182,0,0,1,2.146-.3,5.454,5.454,0,0,1,3.809,1.435,5.71,5.71,0,0,1,1.574,4.431v9.953a17.35,17.35,0,0,1,3.491.66,20.8,20.8,0,0,1,3.364,1.181,23.324,23.324,0,0,1,2.3,1.257A8.749,8.749,0,0,1,269.129-6.3V-26.254h6.322V0Zm-14.6-21.836a1.885,1.885,0,0,0-.571-1.384,1.885,1.885,0,0,0-1.384-.571,1.885,1.885,0,0,0-1.384.571,1.885,1.885,0,0,0-.571,1.384,1.885,1.885,0,0,0,.571,1.384,1.885,1.885,0,0,0,1.384.571,1.885,1.885,0,0,0,1.384-.571A1.885,1.885,0,0,0,254.276-21.836ZM251.889-7.059q-2.615.279-2.615,2.438a2,2,0,0,0,.355,1.295,1.131,1.131,0,0,0,.914.432,1.2,1.2,0,0,0,1-.432,2.414,2.414,0,0,0,.343-1.473Zm37.8-8.3a1.885,1.885,0,0,0,.571,1.384,1.885,1.885,0,0,0,1.384.571,1.885,1.885,0,0,0,1.384-.571,1.885,1.885,0,0,0,.571-1.384,1.885,1.885,0,0,0-.571-1.384,1.885,1.885,0,0,0-1.384-.571,1.885,1.885,0,0,0-1.384.571A1.885,1.885,0,0,0,289.69-15.361Zm29.479,8.074a8.67,8.67,0,0,1-.482,2.945,6.238,6.238,0,0,1-1.435,2.311,6.488,6.488,0,0,1-2.361,1.5A9.11,9.11,0,0,1,311.653,0H297.84V-8.658a22.743,22.743,0,0,1,.229-3.542,7.768,7.768,0,0,1,.736-2.374,5.626,5.626,0,0,1,1.32-1.663,14.25,14.25,0,0,1,1.955-1.384,5.881,5.881,0,0,0-.254-1.739,3.758,3.758,0,0,0-.876-1.485,5.238,5.238,0,0,0-1.638-1.13,6.046,6.046,0,0,0-2.539-.47,8.416,8.416,0,0,0-3.555.724,5.326,5.326,0,0,0-2.209,1.638,1.051,1.051,0,0,1,.317-.063q.19-.013.317-.013a5.121,5.121,0,0,1,1.942.355,4.605,4.605,0,0,1,1.511.978,4.342,4.342,0,0,1,.99,1.511,5.219,5.219,0,0,1,.355,1.955,5.219,5.219,0,0,1-.355,1.955,4.342,4.342,0,0,1-.99,1.511,4.605,4.605,0,0,1-1.511.978,5.121,5.121,0,0,1-1.942.355,5.473,5.473,0,0,1-2.4-.5,4.949,4.949,0,0,1-1.739-1.384,6.014,6.014,0,0,1-1.066-2.133,9.961,9.961,0,0,1-.355-2.742,9.453,9.453,0,0,1,.736-3.771A7.937,7.937,0,0,1,289-24.032a10.314,10.314,0,0,1,3.593-1.917,16.419,16.419,0,0,1,4.989-.686,15.359,15.359,0,0,1,4.38.635,10.731,10.731,0,0,1,3.631,1.8,7.762,7.762,0,0,1,2.272,2.856,8.817,8.817,0,0,1,.787,3.771,12.313,12.313,0,0,0-2.133,1.473,6.12,6.12,0,0,0-1.384,1.752,7.8,7.8,0,0,0-.749,2.272,17.355,17.355,0,0,0-.229,3.009v4.012h5.18a3.789,3.789,0,0,0,2.564-.812,3.114,3.114,0,0,0,.939-2.488v-5.129a11.743,11.743,0,0,0-.1-1.663,4.347,4.347,0,0,0-.33-1.193,2.358,2.358,0,0,0-.6-.812,3,3,0,0,0-.9-.521v-3.072a7.587,7.587,0,0,0,2.2-1.282,4.389,4.389,0,0,0,1.143-1.587,7.094,7.094,0,0,0,.482-1.993q.114-1.1.241-2.526h6.475a19.223,19.223,0,0,1-.5,3.136,8.224,8.224,0,0,1-1,2.374,7.52,7.52,0,0,1-1.7,1.866A13.782,13.782,0,0,1,315.69-19.2a4,4,0,0,1,1.295.635A4.528,4.528,0,0,1,318.1-17.38a6.3,6.3,0,0,1,.774,1.7,7.665,7.665,0,0,1,.292,2.2Zm22.922.99a13.637,13.637,0,0,1,1.739-1.5,12.089,12.089,0,0,1,2.222-1.282,25.33,25.33,0,0,1,2.755-1.028,20.425,20.425,0,0,1,4.2-.711V-26.254h6.322v15.387a9.45,9.45,0,0,1,2.438.508,6.6,6.6,0,0,1,2.006,1.117,5.013,5.013,0,0,1,1.358,1.765,5.7,5.7,0,0,1,.5,2.45A5.016,5.016,0,0,1,364-.965,7.686,7.686,0,0,1,358.975.406a5.737,5.737,0,0,1-4.354-1.688,6.694,6.694,0,0,1-1.612-4.812v-.863a12.377,12.377,0,0,0-3.9.927,14.176,14.176,0,0,0-2.844,1.638,14.585,14.585,0,0,0-2.209,2.069A17.2,17.2,0,0,0,342.344,0h-6.6V-17.113l-.2-.025a4.88,4.88,0,0,1-1.625-.482,4.508,4.508,0,0,1-1.32-.99,4.509,4.509,0,0,1-.876-1.422,4.917,4.917,0,0,1-.317-1.8,5.254,5.254,0,0,1,.381-2.082,4.037,4.037,0,0,1,1.092-1.5,4.715,4.715,0,0,1,1.688-.914,7.182,7.182,0,0,1,2.146-.3,5.454,5.454,0,0,1,3.809,1.435,5.71,5.71,0,0,1,1.574,4.431Zm17.24,1.5a2.414,2.414,0,0,0,.343,1.473,1.2,1.2,0,0,0,1,.432,1.131,1.131,0,0,0,.914-.432,2,2,0,0,0,.355-1.295q0-2.158-2.615-2.437ZM338.154-21.836a1.885,1.885,0,0,0-.571-1.384,1.885,1.885,0,0,0-1.384-.571,1.885,1.885,0,0,0-1.384.571,1.885,1.885,0,0,0-.571,1.384,1.885,1.885,0,0,0,.571,1.384,1.885,1.885,0,0,0,1.384.571,1.885,1.885,0,0,0,1.384-.571A1.885,1.885,0,0,0,338.154-21.836Zm98.42,11.324a3.972,3.972,0,0,0-.254-1.46,2.754,2.754,0,0,0-.9-1.155,4.54,4.54,0,0,0-1.739-.774,17.709,17.709,0,0,0-3.707-.267q-2.209,0-4.139.14t-4.062.5v-3.656a13.309,13.309,0,0,1,.521-4.075,7.114,7.114,0,0,1,1.727-2.958,7.452,7.452,0,0,1,3.047-1.8,14.524,14.524,0,0,1,4.481-.609q.838,0,1.993.076t2.4.152l2.463.152q1.219.076,2.158.076,1.676,0,3.085-.063a21.4,21.4,0,0,0,2.222-.19v4.443a19.6,19.6,0,0,1-2.133.165q-1.244.038-3,.038-.914,0-2.234-.076l-2.653-.152q-1.333-.076-2.488-.152t-1.79-.076a7.263,7.263,0,0,0-2.336.241,2.46,2.46,0,0,0-.952.673,2.655,2.655,0,0,0-.533,1.016,8.819,8.819,0,0,0-.165,2.082q.736-.1,1.739-.178t2.882-.076a25.864,25.864,0,0,1,4.85.394,8.4,8.4,0,0,1,3.326,1.32,5.385,5.385,0,0,1,1.9,2.5,10.984,10.984,0,0,1,.609,3.936v4.875A5.925,5.925,0,0,1,441.4-1.1,5.232,5.232,0,0,1,437.514.406a7.182,7.182,0,0,1-2.146-.3,4.715,4.715,0,0,1-1.688-.914,4.015,4.015,0,0,1-1.092-1.511,5.277,5.277,0,0,1-.381-2.069,4.922,4.922,0,0,1,.343-1.879,4.453,4.453,0,0,1,.939-1.447,4.526,4.526,0,0,1,1.384-.965,5.137,5.137,0,0,1,1.7-.432Zm2.387,6.119a1.885,1.885,0,0,0-.571-1.384,1.885,1.885,0,0,0-1.384-.571,1.885,1.885,0,0,0-1.384.571,1.885,1.885,0,0,0-.571,1.384,1.885,1.885,0,0,0,.571,1.384,1.885,1.885,0,0,0,1.384.571,1.885,1.885,0,0,0,1.384-.571A1.885,1.885,0,0,0,438.961-4.393ZM461.1-20.084a1.885,1.885,0,0,0-.571-1.384,1.885,1.885,0,0,0-1.384-.571,1.885,1.885,0,0,0-1.384.571,1.885,1.885,0,0,0-.571,1.384,1.885,1.885,0,0,0,.571,1.384,1.885,1.885,0,0,0,1.384.571,1.885,1.885,0,0,0,1.384-.571A1.885,1.885,0,0,0,461.1-20.084Zm2.564,1.447a13.176,13.176,0,0,0,4.316-2.856,23.194,23.194,0,0,0,3.555-4.431v5.23a12.572,12.572,0,0,1-1.866,2.019,15.883,15.883,0,0,1-2.628,1.879,16.364,16.364,0,0,1-3.161,1.4,11.2,11.2,0,0,1-3.466.546,8.188,8.188,0,0,1-2.666-.394,5.467,5.467,0,0,1-1.9-1.079,4.393,4.393,0,0,1-1.143-1.612,5.192,5.192,0,0,1-.381-1.993,4.874,4.874,0,0,1,.381-1.917,5.12,5.12,0,0,1,1.028-1.574,4.85,4.85,0,0,1,1.523-1.066,4.5,4.5,0,0,1,1.866-.394,4.72,4.72,0,0,1,1.879.381,4.847,4.847,0,0,1,1.536,1.028,4.885,4.885,0,0,1,1.028,1.523,4.629,4.629,0,0,1,.381,1.866,3.986,3.986,0,0,1-.1.863A2.423,2.423,0,0,1,463.66-18.637ZM461.1-8.074a1.885,1.885,0,0,0-.571-1.384,1.885,1.885,0,0,0-1.384-.571,1.885,1.885,0,0,0-1.384.571,1.885,1.885,0,0,0-.571,1.384,1.885,1.885,0,0,0,.571,1.384,1.885,1.885,0,0,0,1.384.571,1.885,1.885,0,0,0,1.384-.571A1.885,1.885,0,0,0,461.1-8.074Zm2.564,1.447a13.176,13.176,0,0,0,4.316-2.856,23.194,23.194,0,0,0,3.555-4.431v5.23a12.572,12.572,0,0,1-1.866,2.019,15.883,15.883,0,0,1-2.628,1.879,16.364,16.364,0,0,1-3.161,1.4,11.2,11.2,0,0,1-3.466.546,8.188,8.188,0,0,1-2.666-.394,5.467,5.467,0,0,1-1.9-1.079A4.393,4.393,0,0,1,454.7-5.929a5.192,5.192,0,0,1-.381-1.993,4.874,4.874,0,0,1,.381-1.917,5.12,5.12,0,0,1,1.028-1.574,4.85,4.85,0,0,1,1.523-1.066,4.5,4.5,0,0,1,1.866-.394,4.72,4.72,0,0,1,1.879.381,4.847,4.847,0,0,1,1.536,1.028,4.886,4.886,0,0,1,1.028,1.523,4.629,4.629,0,0,1,.381,1.866,3.986,3.986,0,0,1-.1.863A2.423,2.423,0,0,1,463.66-6.627ZM489.1-26.279V-9.268l.2.025a4.779,4.779,0,0,1,1.638.482,4.564,4.564,0,0,1,1.308.99,4.509,4.509,0,0,1,.876,1.422,4.917,4.917,0,0,1,.317,1.8,5.277,5.277,0,0,1-.381,2.069,4.015,4.015,0,0,1-1.092,1.511,4.73,4.73,0,0,1-1.676.914,7.149,7.149,0,0,1-2.158.3,5.454,5.454,0,0,1-3.809-1.435,5.71,5.71,0,0,1-1.574-4.431V-26.279ZM486.684-4.545a1.885,1.885,0,0,0,.571,1.384,1.885,1.885,0,0,0,1.384.571,1.885,1.885,0,0,0,1.384-.571,1.885,1.885,0,0,0,.571-1.384,1.885,1.885,0,0,0-.571-1.384,1.885,1.885,0,0,0-1.384-.571,1.885,1.885,0,0,0-1.384.571A1.885,1.885,0,0,0,486.684-4.545ZM506.736,0V-17.113l-.2-.025a4.88,4.88,0,0,1-1.625-.482,4.508,4.508,0,0,1-1.32-.99,4.509,4.509,0,0,1-.876-1.422,4.917,4.917,0,0,1-.317-1.8,5.254,5.254,0,0,1,.381-2.082,4.037,4.037,0,0,1,1.092-1.5,4.715,4.715,0,0,1,1.688-.914,7.182,7.182,0,0,1,2.146-.3,5.454,5.454,0,0,1,3.809,1.435,5.711,5.711,0,0,1,1.574,4.431V-5.053h6.8a3.751,3.751,0,0,0,2.564-.825,3.121,3.121,0,0,0,.939-2.476v-17.9h6.322V-7.287a8.671,8.671,0,0,1-.482,2.945A6.239,6.239,0,0,1,527.8-2.031a6.488,6.488,0,0,1-2.361,1.5A9.11,9.11,0,0,1,522.2,0Zm2.412-21.836a1.885,1.885,0,0,0-.571-1.384,1.885,1.885,0,0,0-1.384-.571,1.885,1.885,0,0,0-1.384.571,1.885,1.885,0,0,0-.571,1.384,1.885,1.885,0,0,0,.571,1.384,1.885,1.885,0,0,0,1.384.571,1.885,1.885,0,0,0,1.384-.571A1.885,1.885,0,0,0,509.148-21.836ZM527.2-27.854q-3.123-.508-5.992-.851t-5.662-.546q-2.793-.2-5.6-.279t-5.8-.076a8.512,8.512,0,0,1,3.618-5.116,12.833,12.833,0,0,1,7.147-1.79,14.758,14.758,0,0,1,4.05.559,12.92,12.92,0,0,1,3.605,1.638,11.715,11.715,0,0,1,2.844,2.641,10.607,10.607,0,0,1,1.79,3.593Zm-12.264-6.094q-4.621,0-5.789,2.311,3.631,0,6.855.2t6.2.584a6.287,6.287,0,0,0-1.117-1.181,7.109,7.109,0,0,0-1.6-.99,10.286,10.286,0,0,0-2.057-.673A11.469,11.469,0,0,0,514.939-33.947ZM549.488-4.875a15.977,15.977,0,0,0,1.8-1.422,4.88,4.88,0,0,0,1.117-1.5,4.293,4.293,0,0,1-1.879-1.676,4.949,4.949,0,0,1-.686-2.641,5.218,5.218,0,0,1,.355-1.955,4.343,4.343,0,0,1,.99-1.511,4.605,4.605,0,0,1,1.511-.978,5.121,5.121,0,0,1,1.942-.355,5.121,5.121,0,0,1,1.942.355,4.455,4.455,0,0,1,1.523,1.016,4.574,4.574,0,0,1,1,1.587,5.664,5.664,0,0,1,.355,2.044A7.588,7.588,0,0,1,559-9.229a10.774,10.774,0,0,1-1.244,2.374,13.885,13.885,0,0,1-1.79,2.095,25.431,25.431,0,0,1-2.12,1.828q-1.1.851-2.234,1.574L549.488,0H543.14V-4.926a17.184,17.184,0,0,0-.279-3.2q-.279-1.473-.622-2.882t-.635-2.844a15.326,15.326,0,0,1-.292-3.06,8.495,8.495,0,0,1,1-4.177,8.755,8.755,0,0,1,2.831-3.047A13.674,13.674,0,0,1,549.551-26a23.956,23.956,0,0,1,5.726-.635,23.8,23.8,0,0,1,5.865.66,12.773,12.773,0,0,1,4.405,1.98,8.656,8.656,0,0,1,2.768,3.313,10.7,10.7,0,0,1,.952,4.659V0h-6.322V-15.514a6.739,6.739,0,0,0-.33-2.12,5.469,5.469,0,0,0-1.041-1.841,5.866,5.866,0,0,0-2.171-1.473,10.667,10.667,0,0,0-4.126-.635,10.536,10.536,0,0,0-3.986.609,6.024,6.024,0,0,0-2.158,1.4,5.834,5.834,0,0,0-1.092,1.727,5.221,5.221,0,0,0-.381,1.98,13.261,13.261,0,0,0,.292,2.818q.292,1.346.635,2.653t.622,2.59a12.311,12.311,0,0,1,.279,2.628Zm7.109-7.236a1.885,1.885,0,0,0-.571-1.384,1.885,1.885,0,0,0-1.384-.571,1.885,1.885,0,0,0-1.384.571,1.885,1.885,0,0,0-.571,1.384,1.885,1.885,0,0,0,.571,1.384,1.885,1.885,0,0,0,1.384.571,1.885,1.885,0,0,0,1.384-.571A1.885,1.885,0,0,0,556.6-12.111Z" transform="translate(193.908 538)"/>
    </g>
  </g>
</svg>
