<svg xmlns="http://www.w3.org/2000/svg" xmlns:xlink="http://www.w3.org/1999/xlink" width="1820" height="880" viewBox="0 0 1820 880">
  <defs>
    <clipPath id="clip-path">
      <rect id="矩形_2747" data-name="矩形 2747" width="1820" height="880" fill="#fff"/>
    </clipPath>
    <clipPath id="clip-path-2">
      <rect id="矩形_2279" data-name="矩形 2279" width="1820" height="880" transform="translate(50 160)" fill="#fff"/>
    </clipPath>
  </defs>
  <g id="banner" transform="translate(-50 -89)">
    <g id="NAV_bg" transform="translate(50 89)" clip-path="url(#clip-path)">
      <g id="组_22059" data-name="组 22059" transform="translate(-50 27)" opacity="0.05">
        <g id="组_22057" data-name="组 22057" transform="translate(0 7.733)">
          <g id="组_21999" data-name="组 21999" transform="translate(496.006 224.522)">
            <g id="组_21997" data-name="组 21997" transform="translate(0 0)">
              <rect id="矩形_2721" data-name="矩形 2721" width="472.183" height="1.891" transform="translate(0 84.71) rotate(-10.335)"/>
            </g>
            <g id="组_21998" data-name="组 21998" transform="translate(0 0)">
              <rect id="矩形_2722" data-name="矩形 2722" width="472.183" height="1.891" transform="translate(0 84.71) rotate(-10.335)"/>
            </g>
          </g>
          <g id="组_22003" data-name="组 22003" transform="translate(496.139 32.308)">
            <g id="组_22000" data-name="组 22000" transform="translate(464.098 0.366)">
              <rect id="矩形_2723" data-name="矩形 2723" width="192.908" height="1.261" transform="matrix(0.063, -0.998, 0.998, 0.063, 0, 192.522)"/>
            </g>
            <g id="组_22001" data-name="组 22001" transform="translate(0)">
              <path id="路径_39980" data-name="路径 39980" d="M63.23,337.945l-.63-1.261L538.566,59.3l1.261,1.261Z" transform="translate(-62.6 -59.3)"/>
            </g>
            <g id="组_22002" data-name="组 22002" transform="translate(0)">
              <path id="路径_39981" data-name="路径 39981" d="M63.23,337.945l-.63-1.261L538.566,59.3l1.261,1.261Z" transform="translate(-62.6 -59.3)"/>
            </g>
          </g>
          <g id="组_22008" data-name="组 22008" transform="translate(495.837 32.165)">
            <g id="组_22004" data-name="组 22004" transform="translate(326.765 0)">
              <rect id="矩形_2724" data-name="矩形 2724" width="182.191" height="1.261" transform="translate(0 104.013) rotate(-34.814)"/>
            </g>
            <g id="组_22005" data-name="组 22005" transform="translate(327.17 104.435)">
              <rect id="矩形_2725" data-name="矩形 2725" width="1.261" height="163.278" transform="matrix(0.54, -0.841, 0.841, 0.54, 0, 1.061)"/>
            </g>
            <g id="组_22006" data-name="组 22006" transform="translate(0 103.907)">
              <rect id="矩形_2726" data-name="矩形 2726" width="370.055" height="1.261" transform="translate(0 173.556) rotate(-27.969)"/>
            </g>
            <g id="组_22007" data-name="组 22007" transform="translate(0 103.907)">
              <rect id="矩形_2727" data-name="矩形 2727" width="370.055" height="1.261" transform="translate(0 173.556) rotate(-27.969)"/>
            </g>
          </g>
          <g id="组_22011" data-name="组 22011" transform="translate(0 309.692)">
            <g id="组_22009" data-name="组 22009">
              <path id="路径_39982" data-name="路径 39982" d="M-16.1,576.113,480.669,104.561l-.63-1.261L-16.1,574.222Z" transform="translate(16.1 -103.3)"/>
            </g>
            <g id="组_22010" data-name="组 22010">
              <path id="路径_39983" data-name="路径 39983" d="M-16.1,576.113,480.669,104.561l-.63-1.261L-16.1,574.222Z" transform="translate(16.1 -103.3)"/>
            </g>
          </g>
          <g id="组_22018" data-name="组 22018" transform="translate(0 136.327)">
            <g id="组_22012" data-name="组 22012" transform="translate(0 127.344)">
              <path id="路径_39984" data-name="路径 39984" d="M-16.1,493.163,55.768,96H53.876L-16.1,484.337Z" transform="translate(16.1 -96)"/>
            </g>
            <g id="组_22013" data-name="组 22013" transform="translate(0 115.366)">
              <path id="路径_39985" data-name="路径 39985" d="M-16.1,94.1v1.261l70.607,11.347.63-1.261Z" transform="translate(16.1 -94.1)"/>
            </g>
            <g id="组_22014" data-name="组 22014" transform="translate(70.607)">
              <path id="路径_39986" data-name="路径 39986" d="M-4.27,203.775l-.63-1.261L747.819,75.8v1.261Z" transform="translate(4.9 -75.8)"/>
            </g>
            <g id="组_22015" data-name="组 22015" transform="translate(0 126.714)">
              <path id="路径_39987" data-name="路径 39987" d="M-16.1,143.181,55.137,97.161l-.63-1.261L-16.1,141.29Z" transform="translate(16.1 -95.9)"/>
            </g>
            <g id="组_22016" data-name="组 22016" transform="translate(71.065 126.796)">
              <rect id="矩形_2728" data-name="矩形 2728" width="1.261" height="428.054" transform="translate(0 1.253) rotate(-83.754)"/>
            </g>
            <g id="组_22017" data-name="组 22017" transform="translate(71.065 126.796)">
              <rect id="矩形_2729" data-name="矩形 2729" width="1.261" height="428.054" transform="translate(0 1.253) rotate(-83.754)"/>
            </g>
          </g>
          <g id="组_22024" data-name="组 22024" transform="translate(495.939 33.135)">
            <g id="组_22019" data-name="组 22019" transform="translate(326.126 103.822)">
              <path id="路径_39988" data-name="路径 39988" d="M215.8,741.621,114.3,75.9h1.891L217.058,741.621Z" transform="translate(-114.3 -75.9)"/>
            </g>
            <g id="组_22020" data-name="组 22020" transform="translate(427.475 0)">
              <rect id="矩形_2730" data-name="矩形 2730" width="771.001" height="1.261" transform="translate(0 769.459) rotate(-86.406)"/>
            </g>
            <g id="组_22021" data-name="组 22021" transform="translate(427.648 192.686)">
              <rect id="矩形_2731" data-name="矩形 2731" width="578.093" height="1.261" transform="translate(0 576.937) rotate(-86.392)"/>
            </g>
            <g id="组_22022" data-name="组 22022" transform="translate(0 276.653)">
              <rect id="矩形_2732" data-name="矩形 2732" width="1.261" height="652.483" transform="matrix(0.755, -0.656, 0.656, 0.755, 0, 0.827)"/>
            </g>
            <g id="组_22023" data-name="组 22023" transform="translate(0 276.653)">
              <rect id="矩形_2733" data-name="矩形 2733" width="1.261" height="652.483" transform="matrix(0.755, -0.656, 0.656, 0.755, 0, 0.827)"/>
            </g>
          </g>
          <g id="组_22032" data-name="组 22032" transform="translate(0 136.728)">
            <g id="组_22025" data-name="组 22025" transform="translate(529.871 665.909)">
              <rect id="矩形_2734" data-name="矩形 2734" width="404.098" height="1.891" transform="matrix(0.976, -0.219, 0.219, 0.976, 0, 88.336)"/>
            </g>
            <g id="组_22026" data-name="组 22026" transform="translate(69.976 126.313)">
              <path id="路径_39989" data-name="路径 39989" d="M454.575,725.688-5,97.161-3.739,95.9,455.836,725.057Z" transform="translate(5 -95.9)"/>
            </g>
            <g id="组_22027" data-name="组 22027" transform="translate(0 674.146)">
              <path id="路径_39990" data-name="路径 39990" d="M-16.1,182.8v1.261l530.182,81.324v-1.891Z" transform="translate(16.1 -182.8)"/>
            </g>
            <g id="组_22028" data-name="组 22028" transform="translate(529.561)">
              <rect id="矩形_2735" data-name="矩形 2735" width="810.087" height="1.891" transform="translate(0 755.406) rotate(-68.826)"/>
            </g>
            <g id="组_22029" data-name="组 22029" transform="translate(529.551 88.488)">
              <path id="路径_39991" data-name="路径 39991" d="M69.161,757.513l-1.261-.63L498.476,89.9l1.261.63Z" transform="translate(-67.9 -89.9)"/>
            </g>
            <g id="组_22030" data-name="组 22030" transform="translate(495.627 173.374)">
              <rect id="矩形_2736" data-name="矩形 2736" width="1.891" height="583.137" transform="matrix(0.998, -0.058, 0.058, 0.998, 0, 0.11)"/>
            </g>
            <g id="组_22031" data-name="组 22031" transform="translate(495.627 173.374)">
              <rect id="矩形_2737" data-name="矩形 2737" width="1.891" height="583.137" transform="matrix(0.998, -0.058, 0.058, 0.998, 0, 0.11)"/>
            </g>
          </g>
          <g id="组_22037" data-name="组 22037" transform="translate(822.695 0)">
            <g id="组_22033" data-name="组 22033" transform="translate(552.246 0.157)">
              <path id="路径_39992" data-name="路径 39992" d="M793.962,371.3,202.63,54.2,202,55.461l591.962,317.1Z" transform="translate(-202 -54.2)"/>
            </g>
            <g id="组_22034" data-name="组 22034" transform="translate(0 0.157)">
              <path id="路径_39993" data-name="路径 39993" d="M115.03,191.631l-.63-1.261L666.646,54.2l.63,1.261Z" transform="translate(-114.4 -54.2)"/>
            </g>
            <g id="组_22035" data-name="组 22035" transform="translate(150.039 0.157)">
              <path id="路径_39994" data-name="路径 39994" d="M138.2,87.612V86.351L540.407,54.2l.63,1.261Z" transform="translate(-138.2 -54.2)"/>
            </g>
            <g id="组_22036" data-name="组 22036" transform="translate(137.898)">
              <rect id="矩形_2738" data-name="矩形 2738" width="471.553" height="1.261" transform="matrix(0.879, -0.477, 0.477, 0.879, 0, 224.789)"/>
            </g>
          </g>
          <g id="组_22040" data-name="组 22040" transform="translate(924.193 225.193)">
            <g id="组_22038" data-name="组 22038" transform="translate(0 576.855)">
              <path id="路径_39995" data-name="路径 39995" d="M572.423,284.789,130.5,182.661V181.4L572.423,282.9Z" transform="translate(-130.5 -181.4)"/>
            </g>
            <g id="组_22039" data-name="组 22039" transform="translate(35.844 0)">
              <rect id="矩形_2739" data-name="矩形 2739" width="1.891" height="791.175" transform="translate(0 0.97) rotate(-30.843)"/>
            </g>
          </g>
          <g id="组_22048" data-name="组 22048" transform="translate(822.695 0.025)">
            <g id="组_22041" data-name="组 22041" transform="translate(542.664 534.601)">
              <rect id="矩形_2740" data-name="矩形 2740" width="398.424" height="1.891" transform="matrix(0.374, -0.927, 0.927, 0.374, 0, 369.459)"/>
            </g>
            <g id="组_22042" data-name="组 22042" transform="translate(551.651 0)">
              <rect id="矩形_2741" data-name="矩形 2741" width="1.891" height="552.246" transform="matrix(0.967, -0.253, 0.253, 0.967, 0, 0.479)"/>
            </g>
            <g id="组_22043" data-name="组 22043" transform="translate(692.199 393.513)">
              <path id="路径_39996" data-name="路径 39996" d="M676.21,116.6,224.2,257.183v1.261L676.21,118.491Z" transform="translate(-224.2 -116.6)"/>
            </g>
            <g id="组_22044" data-name="组 22044" transform="translate(101.262 533.511)">
              <rect id="矩形_2742" data-name="矩形 2742" width="648.7" height="1.261" transform="translate(0 268.627) rotate(-24.463)"/>
            </g>
            <g id="组_22045" data-name="组 22045" transform="translate(0 136.302)">
              <path id="路径_39997" data-name="路径 39997" d="M805.968,474.855,114.4,77.061l.63-1.261,692.2,397.794Z" transform="translate(-114.4 -75.8)"/>
            </g>
            <g id="组_22046" data-name="组 22046" transform="translate(149.585 32.046)">
              <rect id="矩形_2743" data-name="矩形 2743" width="1.891" height="738.85" transform="translate(0 1.388) rotate(-47.229)"/>
            </g>
            <g id="组_22047" data-name="组 22047" transform="translate(137.402 224.553)">
              <rect id="矩形_2744" data-name="矩形 2744" width="1.891" height="634.831" transform="translate(0 1.652) rotate(-60.849)"/>
            </g>
          </g>
          <g id="组_22050" data-name="组 22050" transform="translate(1514.894 534.12)">
            <g id="组_22049" data-name="组 22049">
              <path id="路径_39998" data-name="路径 39998" d="M676.21,256.788,224.2,138.9v1.261L676.21,258.679Z" transform="translate(-224.2 -138.9)"/>
            </g>
          </g>
          <g id="组_22056" data-name="组 22056" transform="translate(924.091 497.556)">
            <g id="组_22051" data-name="组 22051" transform="translate(742.734 341.056)">
              <path id="路径_39999" data-name="路径 39999" d="M548.379,187.2,248.3,283.654l.63,1.891,299.448-96.454Z" transform="translate(-248.3 -187.2)"/>
            </g>
            <g id="组_22052" data-name="组 22052" transform="translate(590.173 36.564)">
              <path id="路径_40000" data-name="路径 40000" d="M376.661,541.107,224.1,139.531l1.261-.631L377.922,540.476Z" transform="translate(-224.1 -138.9)"/>
            </g>
            <g id="组_22053" data-name="组 22053" transform="translate(441.745 405.549)">
              <rect id="矩形_2745" data-name="矩形 2745" width="1.891" height="302.601" transform="translate(0 1.881) rotate(-83.996)"/>
            </g>
            <g id="组_22054" data-name="组 22054" transform="translate(742.734)">
              <path id="路径_40001" data-name="路径 40001" d="M548.379,133.1,248.3,571.241l1.261.63L548.379,135.622Z" transform="translate(-248.3 -133.1)"/>
            </g>
            <g id="组_22055" data-name="组 22055" transform="translate(0 304.675)">
              <rect id="矩形_2746" data-name="矩形 2746" width="1.261" height="754.61" transform="translate(0 1.241) rotate(-79.81)"/>
            </g>
          </g>
        </g>
        <g id="组_22058" data-name="组 22058" transform="translate(62.717)">
          <path id="路径_40002" data-name="路径 40002" d="M71.76,118.234a8.183,8.183,0,1,1,5.674-10.087C78.694,111.929,76.173,116.973,71.76,118.234Z" transform="translate(364.184 208.017)"/>
          <path id="路径_40003" data-name="路径 40003" d="M145.46,104.734a8.183,8.183,0,1,1,5.674-10.087C151.764,99.06,149.242,103.473,145.46,104.734Z" transform="translate(755.102 136.411)"/>
          <path id="路径_40004" data-name="路径 40004" d="M71.76,118.234a8.183,8.183,0,1,1,5.674-10.087C78.694,111.929,76.173,116.973,71.76,118.234Z" transform="translate(364.184 208.017)"/>
          <path id="路径_40005" data-name="路径 40005" d="M145.46,104.734a8.183,8.183,0,1,1,5.674-10.087C151.764,99.06,149.242,103.473,145.46,104.734Z" transform="translate(755.102 136.411)"/>
          <path id="路径_40006" data-name="路径 40006" d="M145.46,104.734a8.183,8.183,0,1,1,5.674-10.087C151.764,99.06,149.242,103.473,145.46,104.734Z" transform="translate(755.102 136.411)"/>
          <path id="路径_40007" data-name="路径 40007" d="M147.36,74.234a8.183,8.183,0,1,1,5.674-10.087C154.294,67.929,151.773,72.973,147.36,74.234Z" transform="translate(765.18 -25.367)"/>
          <path id="路径_40008" data-name="路径 40008" d="M71.76,118.234a8.183,8.183,0,1,1,5.674-10.087C78.694,111.929,76.173,116.973,71.76,118.234Z" transform="translate(364.184 208.017)"/>
          <path id="路径_40009" data-name="路径 40009" d="M147.36,74.234a8.183,8.183,0,1,1,5.674-10.087C154.294,67.929,151.773,72.973,147.36,74.234Z" transform="translate(765.18 -25.367)"/>
          <path id="路径_40010" data-name="路径 40010" d="M71.76,118.234a8.183,8.183,0,1,1,5.674-10.087C78.694,111.929,76.173,116.973,71.76,118.234Z" transform="translate(364.184 208.017)"/>
          <path id="路径_40011" data-name="路径 40011" d="M147.36,74.234a8.183,8.183,0,1,1,5.674-10.087C154.294,67.929,151.773,72.973,147.36,74.234Z" transform="translate(765.18 -25.367)"/>
          <path id="路径_40012" data-name="路径 40012" d="M147.36,74.234a8.183,8.183,0,1,1,5.674-10.087C154.294,67.929,151.773,72.973,147.36,74.234Z" transform="translate(765.18 -25.367)"/>
          <path id="路径_40013" data-name="路径 40013" d="M123.56,90.734a8.183,8.183,0,1,1,5.674-10.087C130.494,84.429,127.973,89.473,123.56,90.734Z" transform="translate(638.94 62.152)"/>
          <path id="路径_40014" data-name="路径 40014" d="M145.46,104.734a8.183,8.183,0,1,1,5.674-10.087C151.764,99.06,149.242,103.473,145.46,104.734Z" transform="translate(755.102 136.411)"/>
          <path id="路径_40015" data-name="路径 40015" d="M123.56,90.734a8.183,8.183,0,1,1,5.674-10.087C130.494,84.429,127.973,89.473,123.56,90.734Z" transform="translate(638.94 62.152)"/>
          <path id="路径_40016" data-name="路径 40016" d="M71.76,118.234a8.183,8.183,0,1,1,5.674-10.087C78.694,111.929,76.173,116.973,71.76,118.234Z" transform="translate(364.184 208.017)"/>
          <path id="路径_40017" data-name="路径 40017" d="M123.56,90.734a8.183,8.183,0,1,1,5.674-10.087C130.494,84.429,127.973,89.473,123.56,90.734Z" transform="translate(638.94 62.152)"/>
          <path id="路径_40018" data-name="路径 40018" d="M71.76,118.234a8.183,8.183,0,1,1,5.674-10.087C78.694,111.929,76.173,116.973,71.76,118.234Z" transform="translate(364.184 208.017)"/>
          <path id="路径_40019" data-name="路径 40019" d="M123.56,90.734a8.183,8.183,0,1,1,5.674-10.087C130.494,84.429,127.973,89.473,123.56,90.734Z" transform="translate(638.94 62.152)"/>
          <path id="路径_40020" data-name="路径 40020" d="M71.76,118.234a8.183,8.183,0,1,1,5.674-10.087C78.694,111.929,76.173,116.973,71.76,118.234Z" transform="translate(364.184 208.017)"/>
          <path id="路径_40021" data-name="路径 40021" d="M71.76,118.234a8.183,8.183,0,1,1,5.674-10.087C78.694,111.929,76.173,116.973,71.76,118.234Z" transform="translate(364.184 208.017)"/>
          <path id="路径_40022" data-name="路径 40022" d="M4.26,110.834A8.1,8.1,0,0,1-5.827,105.16,8.1,8.1,0,0,1-.153,95.073a8.1,8.1,0,0,1,10.087,5.674C11.194,104.529,8.673,109.573,4.26,110.834Z" transform="translate(6.151 168.766)"/>
          <path id="路径_40023" data-name="路径 40023" d="M4.26,110.834A8.1,8.1,0,0,1-5.827,105.16,8.1,8.1,0,0,1-.153,95.073a8.1,8.1,0,0,1,10.087,5.674C11.194,104.529,8.673,109.573,4.26,110.834Z" transform="translate(6.151 168.766)"/>
          <path id="路径_40024" data-name="路径 40024" d="M123.56,90.734a8.183,8.183,0,1,1,5.674-10.087C130.494,84.429,127.973,89.473,123.56,90.734Z" transform="translate(638.94 62.152)"/>
          <path id="路径_40025" data-name="路径 40025" d="M4.26,110.834A8.1,8.1,0,0,1-5.827,105.16,8.1,8.1,0,0,1-.153,95.073a8.1,8.1,0,0,1,10.087,5.674C11.194,104.529,8.673,109.573,4.26,110.834Z" transform="translate(6.151 168.766)"/>
          <path id="路径_40026" data-name="路径 40026" d="M4.26,110.834A8.1,8.1,0,0,1-5.827,105.16,8.1,8.1,0,0,1-.153,95.073a8.1,8.1,0,0,1,10.087,5.674C11.194,104.529,8.673,109.573,4.26,110.834Z" transform="translate(6.151 168.766)"/>
          <path id="路径_40027" data-name="路径 40027" d="M71.76,118.234a8.183,8.183,0,1,1,5.674-10.087C78.694,111.929,76.173,116.973,71.76,118.234Z" transform="translate(364.184 208.017)"/>
          <path id="路径_40028" data-name="路径 40028" d="M4.26,110.834A8.1,8.1,0,0,1-5.827,105.16,8.1,8.1,0,0,1-.153,95.073a8.1,8.1,0,0,1,10.087,5.674C11.194,104.529,8.673,109.573,4.26,110.834Z" transform="translate(6.151 168.766)"/>
          <path id="路径_40029" data-name="路径 40029" d="M71.76,118.234a8.183,8.183,0,1,1,5.674-10.087C78.694,111.929,76.173,116.973,71.76,118.234Z" transform="translate(364.184 208.017)"/>
          <path id="路径_40030" data-name="路径 40030" d="M4.26,110.834A8.1,8.1,0,0,1-5.827,105.16,8.1,8.1,0,0,1-.153,95.073a8.1,8.1,0,0,1,10.087,5.674C11.194,104.529,8.673,109.573,4.26,110.834Z" transform="translate(6.151 168.766)"/>
          <path id="路径_40031" data-name="路径 40031" d="M123.56,90.734a8.183,8.183,0,1,1,5.674-10.087C130.494,84.429,127.973,89.473,123.56,90.734Z" transform="translate(638.94 62.152)"/>
          <path id="路径_40032" data-name="路径 40032" d="M139.66,196.234a8.183,8.183,0,1,1,5.674-10.087A8.1,8.1,0,0,1,139.66,196.234Z" transform="translate(724.337 621.743)"/>
          <path id="路径_40033" data-name="路径 40033" d="M147.36,74.234a8.183,8.183,0,1,1,5.674-10.087C154.294,67.929,151.773,72.973,147.36,74.234Z" transform="translate(765.18 -25.367)"/>
          <path id="路径_40034" data-name="路径 40034" d="M139.66,196.234a8.183,8.183,0,1,1,5.674-10.087A8.1,8.1,0,0,1,139.66,196.234Z" transform="translate(724.337 621.743)"/>
          <path id="路径_40035" data-name="路径 40035" d="M145.46,104.734a8.183,8.183,0,1,1,5.674-10.087C151.764,99.06,149.242,103.473,145.46,104.734Z" transform="translate(755.102 136.411)"/>
          <path id="路径_40036" data-name="路径 40036" d="M139.66,196.234a8.183,8.183,0,1,1,5.674-10.087A8.1,8.1,0,0,1,139.66,196.234Z" transform="translate(724.337 621.743)"/>
          <path id="路径_40037" data-name="路径 40037" d="M71.76,118.234a8.183,8.183,0,1,1,5.674-10.087C78.694,111.929,76.173,116.973,71.76,118.234Z" transform="translate(364.184 208.017)"/>
          <path id="路径_40038" data-name="路径 40038" d="M139.66,196.234a8.183,8.183,0,1,1,5.674-10.087A8.1,8.1,0,0,1,139.66,196.234Z" transform="translate(724.337 621.743)"/>
          <path id="路径_40039" data-name="路径 40039" d="M71.76,118.234a8.183,8.183,0,1,1,5.674-10.087C78.694,111.929,76.173,116.973,71.76,118.234Z" transform="translate(364.184 208.017)"/>
          <path id="路径_40040" data-name="路径 40040" d="M139.66,196.234a8.183,8.183,0,1,1,5.674-10.087A8.1,8.1,0,0,1,139.66,196.234Z" transform="translate(724.337 621.743)"/>
          <path id="路径_40041" data-name="路径 40041" d="M139.66,196.234a8.183,8.183,0,1,1,5.674-10.087A8.1,8.1,0,0,1,139.66,196.234Z" transform="translate(724.337 621.743)"/>
          <path id="路径_40042" data-name="路径 40042" d="M77.16,210.534a8.183,8.183,0,1,1,5.674-10.087A8.1,8.1,0,0,1,77.16,210.534Z" transform="translate(392.826 697.593)"/>
          <path id="路径_40043" data-name="路径 40043" d="M4.26,110.834A8.1,8.1,0,0,1-5.827,105.16,8.1,8.1,0,0,1-.153,95.073a8.1,8.1,0,0,1,10.087,5.674C11.194,104.529,8.673,109.573,4.26,110.834Z" transform="translate(6.151 168.766)"/>
          <path id="路径_40044" data-name="路径 40044" d="M77.16,210.534a8.183,8.183,0,1,1,5.674-10.087A8.1,8.1,0,0,1,77.16,210.534Z" transform="translate(392.826 697.593)"/>
          <path id="路径_40045" data-name="路径 40045" d="M77.16,210.534a8.183,8.183,0,1,1,5.674-10.087A8.1,8.1,0,0,1,77.16,210.534Z" transform="translate(392.826 697.593)"/>
          <path id="路径_40046" data-name="路径 40046" d="M123.56,90.734a8.183,8.183,0,1,1,5.674-10.087C130.494,84.429,127.973,89.473,123.56,90.734Z" transform="translate(638.94 62.152)"/>
          <path id="路径_40047" data-name="路径 40047" d="M77.16,210.534a8.183,8.183,0,1,1,5.674-10.087A8.1,8.1,0,0,1,77.16,210.534Z" transform="translate(392.826 697.593)"/>
          <path id="路径_40048" data-name="路径 40048" d="M145.46,104.734a8.183,8.183,0,1,1,5.674-10.087C151.764,99.06,149.242,103.473,145.46,104.734Z" transform="translate(755.102 136.411)"/>
          <path id="路径_40049" data-name="路径 40049" d="M77.16,210.534a8.183,8.183,0,1,1,5.674-10.087A8.1,8.1,0,0,1,77.16,210.534Z" transform="translate(392.826 697.593)"/>
          <path id="路径_40050" data-name="路径 40050" d="M71.76,118.234a8.183,8.183,0,1,1,5.674-10.087C78.694,111.929,76.173,116.973,71.76,118.234Z" transform="translate(364.184 208.017)"/>
          <path id="路径_40051" data-name="路径 40051" d="M77.16,210.534a8.183,8.183,0,1,1,5.674-10.087A8.1,8.1,0,0,1,77.16,210.534Z" transform="translate(392.826 697.593)"/>
          <path id="路径_40052" data-name="路径 40052" d="M71.76,118.234a8.183,8.183,0,1,1,5.674-10.087C78.694,111.929,76.173,116.973,71.76,118.234Z" transform="translate(364.184 208.017)"/>
          <path id="路径_40053" data-name="路径 40053" d="M77.16,210.534a8.183,8.183,0,1,1,5.674-10.087A8.1,8.1,0,0,1,77.16,210.534Z" transform="translate(392.826 697.593)"/>
          <path id="路径_40054" data-name="路径 40054" d="M211.16,69.034a8.183,8.183,0,1,1,5.674-10.087A8.1,8.1,0,0,1,211.16,69.034Z" transform="translate(1103.586 -52.949)"/>
          <path id="路径_40055" data-name="路径 40055" d="M123.56,90.734a8.183,8.183,0,1,1,5.674-10.087C130.494,84.429,127.973,89.473,123.56,90.734Z" transform="translate(638.94 62.152)"/>
          <path id="路径_40056" data-name="路径 40056" d="M211.16,69.034a8.183,8.183,0,1,1,5.674-10.087A8.1,8.1,0,0,1,211.16,69.034Z" transform="translate(1103.586 -52.949)"/>
          <path id="路径_40057" data-name="路径 40057" d="M147.36,74.234a8.183,8.183,0,1,1,5.674-10.087C154.294,67.929,151.773,72.973,147.36,74.234Z" transform="translate(765.18 -25.367)"/>
          <path id="路径_40058" data-name="路径 40058" d="M211.16,69.034a8.183,8.183,0,1,1,5.674-10.087A8.1,8.1,0,0,1,211.16,69.034Z" transform="translate(1103.586 -52.949)"/>
          <path id="路径_40059" data-name="路径 40059" d="M145.46,104.734a8.183,8.183,0,1,1,5.674-10.087C151.764,99.06,149.242,103.473,145.46,104.734Z" transform="translate(755.102 136.411)"/>
          <path id="路径_40060" data-name="路径 40060" d="M211.16,69.034a8.183,8.183,0,1,1,5.674-10.087A8.1,8.1,0,0,1,211.16,69.034Z" transform="translate(1103.586 -52.949)"/>
          <path id="路径_40061" data-name="路径 40061" d="M139.66,196.234a8.183,8.183,0,1,1,5.674-10.087A8.1,8.1,0,0,1,139.66,196.234Z" transform="translate(724.337 621.743)"/>
          <path id="路径_40062" data-name="路径 40062" d="M209.76,212.434a8.183,8.183,0,1,1,5.674-10.087A8.1,8.1,0,0,1,209.76,212.434Z" transform="translate(1096.16 707.671)"/>
          <path id="路径_40063" data-name="路径 40063" d="M145.46,104.734a8.183,8.183,0,1,1,5.674-10.087C151.764,99.06,149.242,103.473,145.46,104.734Z" transform="translate(755.102 136.411)"/>
          <path id="路径_40064" data-name="路径 40064" d="M209.76,212.434a8.183,8.183,0,1,1,5.674-10.087A8.1,8.1,0,0,1,209.76,212.434Z" transform="translate(1096.16 707.671)"/>
          <path id="路径_40065" data-name="路径 40065" d="M209.76,212.434a8.183,8.183,0,1,1,5.674-10.087A8.1,8.1,0,0,1,209.76,212.434Z" transform="translate(1096.16 707.671)"/>
          <path id="路径_40066" data-name="路径 40066" d="M233.36,153.733a8.183,8.183,0,1,1,5.674-10.087A8.1,8.1,0,0,1,233.36,153.733Z" transform="translate(1221.339 396.315)"/>
          <path id="路径_40067" data-name="路径 40067" d="M211.16,69.034a8.183,8.183,0,1,1,5.674-10.087A8.1,8.1,0,0,1,211.16,69.034Z" transform="translate(1103.586 -52.949)"/>
          <path id="路径_40068" data-name="路径 40068" d="M233.36,153.733a8.183,8.183,0,1,1,5.674-10.087A8.1,8.1,0,0,1,233.36,153.733Z" transform="translate(1221.339 396.315)"/>
          <path id="路径_40069" data-name="路径 40069" d="M233.36,153.733a8.183,8.183,0,1,1,5.674-10.087A8.1,8.1,0,0,1,233.36,153.733Z" transform="translate(1221.339 396.315)"/>
          <path id="路径_40070" data-name="路径 40070" d="M139.66,196.234a8.183,8.183,0,1,1,5.674-10.087A8.1,8.1,0,0,1,139.66,196.234Z" transform="translate(724.337 621.743)"/>
          <path id="路径_40071" data-name="路径 40071" d="M233.36,153.733a8.183,8.183,0,1,1,5.674-10.087A8.1,8.1,0,0,1,233.36,153.733Z" transform="translate(1221.339 396.315)"/>
          <path id="路径_40072" data-name="路径 40072" d="M123.56,90.734a8.183,8.183,0,1,1,5.674-10.087C130.494,84.429,127.973,89.473,123.56,90.734Z" transform="translate(638.94 62.152)"/>
          <path id="路径_40073" data-name="路径 40073" d="M233.36,153.733a8.183,8.183,0,1,1,5.674-10.087A8.1,8.1,0,0,1,233.36,153.733Z" transform="translate(1221.339 396.315)"/>
          <path id="路径_40074" data-name="路径 40074" d="M147.36,74.234a8.183,8.183,0,1,1,5.674-10.087C154.294,67.929,151.773,72.973,147.36,74.234Z" transform="translate(765.18 -25.367)"/>
          <path id="路径_40075" data-name="路径 40075" d="M233.36,153.733a8.183,8.183,0,1,1,5.674-10.087A8.1,8.1,0,0,1,233.36,153.733Z" transform="translate(1221.339 396.315)"/>
          <path id="路径_40076" data-name="路径 40076" d="M145.46,104.734a8.183,8.183,0,1,1,5.674-10.087C151.764,99.06,149.242,103.473,145.46,104.734Z" transform="translate(755.102 136.411)"/>
          <path id="路径_40077" data-name="路径 40077" d="M233.36,153.733a8.183,8.183,0,1,1,5.674-10.087A8.1,8.1,0,0,1,233.36,153.733Z" transform="translate(1221.339 396.315)"/>
          <path id="路径_40078" data-name="路径 40078" d="M233.36,153.733a8.183,8.183,0,1,1,5.674-10.087A8.1,8.1,0,0,1,233.36,153.733Z" transform="translate(1221.339 396.315)"/>
          <path id="路径_40079" data-name="路径 40079" d="M257.46,217.434a8.183,8.183,0,1,1,5.674-10.087A8.1,8.1,0,0,1,257.46,217.434Z" transform="translate(1349.17 734.192)"/>
          <path id="路径_40080" data-name="路径 40080" d="M233.36,153.733a8.183,8.183,0,1,1,5.674-10.087A8.1,8.1,0,0,1,233.36,153.733Z" transform="translate(1221.339 396.315)"/>
          <path id="路径_40081" data-name="路径 40081" d="M257.46,217.434a8.183,8.183,0,1,1,5.674-10.087A8.1,8.1,0,0,1,257.46,217.434Z" transform="translate(1349.17 734.192)"/>
          <path id="路径_40082" data-name="路径 40082" d="M209.76,212.434a8.183,8.183,0,1,1,5.674-10.087A8.1,8.1,0,0,1,209.76,212.434Z" transform="translate(1096.16 707.671)"/>
          <path id="路径_40083" data-name="路径 40083" d="M257.46,217.434a8.183,8.183,0,1,1,5.674-10.087A8.1,8.1,0,0,1,257.46,217.434Z" transform="translate(1349.17 734.192)"/>
          <path id="路径_40084" data-name="路径 40084" d="M257.46,217.434a8.183,8.183,0,1,1,5.674-10.087A8.1,8.1,0,0,1,257.46,217.434Z" transform="translate(1349.17 734.192)"/>
          <path id="路径_40085" data-name="路径 40085" d="M139.66,196.234a8.183,8.183,0,1,1,5.674-10.087A8.1,8.1,0,0,1,139.66,196.234Z" transform="translate(724.337 621.743)"/>
        </g>
      </g>
    </g>
    <g id="组_22249" data-name="组 22249" transform="translate(10 -18)">
      <path id="路径_40971" data-name="路径 40971" d="M544.848,94.528a45.905,45.905,0,0,1-6.144.336H524.3V83.536h11.712a37.613,37.613,0,0,1,6.24.336V77.584a49.958,49.958,0,0,1-6.24.336H524.352V68.032h13.824a42.988,42.988,0,0,1,6.192.336V62.032a51.284,51.284,0,0,1-6.192.336h-14.5c-2.928,0-4.176-.048-6.1-.144a42.47,42.47,0,0,1,.384,6.192V94.384a38.831,38.831,0,0,1-.384,6.336c1.92-.1,3.216-.144,6.1-.144h14.976a41.265,41.265,0,0,1,6.192.336Zm11.136,6.048a42.7,42.7,0,0,1-.384-6.24v-9.7c2.112-4.752,4.944-7.152,8.4-7.152a4.515,4.515,0,0,1,4.032,1.968,7.884,7.884,0,0,1,.816,4.224V94.336a51.013,51.013,0,0,1-.336,6.24h6.96a37.936,37.936,0,0,1-.384-6.24V82.816c0-3.216-.48-5.136-1.632-6.72-1.728-2.352-4.464-3.552-8.16-3.552-4.32,0-6.864,1.344-9.792,5.088a18.754,18.754,0,0,0,.1-2.064V73.024h-6.528a39.456,39.456,0,0,1,.384,6.24V94.336a39.846,39.846,0,0,1-.384,6.24ZM606.24,88.384c-.1-1.1-.1-1.248-.1-1.344a19.732,19.732,0,0,0-1.392-7.3c-1.92-4.8-6.336-7.584-11.952-7.584-8.208,0-13.536,5.808-13.536,14.688,0,8.976,5.376,14.64,13.872,14.64a13.631,13.631,0,0,0,9.888-3.7,13.49,13.49,0,0,0,2.928-4.416l-5.664-1.824a6.977,6.977,0,0,1-1.392,2.5,8.075,8.075,0,0,1-11.76-.288c-1.1-1.392-1.536-2.736-1.776-5.376ZM585.5,83.632c.72-4.032,3.456-6.528,7.2-6.528a6.845,6.845,0,0,1,5.184,1.92A7.534,7.534,0,0,1,600,83.632Zm44.64-10.608a24.888,24.888,0,0,0-4.464-.528c-4.32,0-7.3,1.632-9.024,5.04V73.024h-6.528a37.953,37.953,0,0,1,.336,6.24V94.336a52.651,52.651,0,0,1-.336,6.24h6.864a50.482,50.482,0,0,1-.336-6.24v-8.88a7.726,7.726,0,0,1,1.968-4.8,6.851,6.851,0,0,1,5.568-2.352,14.334,14.334,0,0,1,4.272.768Zm1.968,31.968c3.264,3.7,6.432,4.992,12.048,4.992,4.944,0,8.928-1.1,11.328-3.072,2.784-2.352,4.032-6.048,4.032-11.808V79.024a44.594,44.594,0,0,1,.336-6h-6.432v2.208a11.544,11.544,0,0,0,.1,1.584c-2.064-2.928-4.9-4.224-9.168-4.224-7.776,0-12.816,5.376-12.816,13.68,0,8.208,4.9,13.44,12.528,13.44,4.176,0,7.008-1.344,9.408-4.368-.1,3.264-.432,4.944-1.248,6.384-1.344,2.3-4.176,3.6-7.872,3.6-3.456,0-5.568-1.056-7.44-3.648Zm5.712-18.576c0-5.712,2.976-9.312,7.776-9.312a7.254,7.254,0,0,1,4.656,1.728,8.849,8.849,0,0,1,2.88,7.1,10.167,10.167,0,0,1-1.344,5.472A8.033,8.033,0,0,1,645.12,95.2a7.357,7.357,0,0,1-5.088-2.16C638.592,91.6,637.824,89.248,637.824,86.416Zm27.12-24.048v6.1H672v-6.1Zm0,10.656a39.456,39.456,0,0,1,.384,6.24V94.336a43.143,43.143,0,0,1-.384,6.24h7.008a48.221,48.221,0,0,1-.336-6.288V79.312a43.147,43.147,0,0,1,.336-6.288Zm37.872,15.36c-.1-1.1-.1-1.248-.1-1.344a19.732,19.732,0,0,0-1.392-7.3c-1.92-4.8-6.336-7.584-11.952-7.584-8.208,0-13.536,5.808-13.536,14.688,0,8.976,5.376,14.64,13.872,14.64a13.631,13.631,0,0,0,9.888-3.7,13.49,13.49,0,0,0,2.928-4.416l-5.664-1.824a6.977,6.977,0,0,1-1.392,2.5,8.075,8.075,0,0,1-11.76-.288c-1.1-1.392-1.536-2.736-1.776-5.376ZM682.08,83.632c.72-4.032,3.456-6.528,7.2-6.528a6.845,6.845,0,0,1,5.184,1.92,7.534,7.534,0,0,1,2.112,4.608Zm46.032-10.608v2.208c0,.528.048,1.056.1,1.728-2.16-3.072-5.376-4.608-9.5-4.608a14.219,14.219,0,0,0-7.248,1.776c-3.84,2.352-6,6.864-6,12.576,0,4.608,1.3,8.3,3.744,10.752a12.689,12.689,0,0,0,9.168,3.456,11.523,11.523,0,0,0,9.84-4.656q-.144,2.448-.144,3.6v3.7a47.841,47.841,0,0,1-.336,6.384H734.5a53.738,53.738,0,0,1-.336-6.336V79.456a49.6,49.6,0,0,1,.336-6.432ZM711.7,86.8c0-5.664,3.12-9.312,7.968-9.312,4.752,0,8.208,3.744,8.208,8.928a11.72,11.72,0,0,1-1.152,5.136,8.441,8.441,0,0,1-7.488,4.32C714.672,95.872,711.7,92.272,711.7,86.8Zm47.232-13.776a50.643,50.643,0,0,1,.384,6.24v9.7c-2.16,4.752-4.9,7.1-8.352,7.1a5.972,5.972,0,0,1-2.64-.672c-1.488-.912-2.208-2.688-2.208-5.472V79.264a42.958,42.958,0,0,1,.336-6.24h-6.96a44.111,44.111,0,0,1,.384,6.24V91.408c0,3.936,1.248,6.624,3.888,8.3a10.456,10.456,0,0,0,5.76,1.392c4.56,0,7.2-1.392,9.84-5.136-.048,1.2-.048,1.344-.048,2.064v2.544h6.528a39.448,39.448,0,0,1-.384-6.24V79.264a34.752,34.752,0,0,1,.384-6.24ZM796.7,88.384c-.1-1.1-.1-1.248-.1-1.344a19.732,19.732,0,0,0-1.392-7.3c-1.92-4.8-6.336-7.584-11.952-7.584-8.208,0-13.536,5.808-13.536,14.688,0,8.976,5.376,14.64,13.872,14.64a13.631,13.631,0,0,0,9.888-3.7,13.49,13.49,0,0,0,2.928-4.416l-5.664-1.824a6.977,6.977,0,0,1-1.392,2.5,8.075,8.075,0,0,1-11.76-.288c-1.1-1.392-1.536-2.736-1.776-5.376Zm-20.736-4.752c.72-4.032,3.456-6.528,7.2-6.528a6.845,6.845,0,0,1,5.184,1.92,7.534,7.534,0,0,1,2.112,4.608ZM800.5,62.368a43.284,43.284,0,0,1,.336,6.24V94.336a46.48,46.48,0,0,1-.336,6.24h6.96a49.443,49.443,0,0,1-.336-6.24V68.656a44.469,44.469,0,0,1,.336-6.288Zm12.048,0a43.284,43.284,0,0,1,.336,6.24V94.336a46.48,46.48,0,0,1-.336,6.24h6.96a49.443,49.443,0,0,1-.336-6.24V68.656a44.469,44.469,0,0,1,.336-6.288Zm37.872,26.016c-.1-1.1-.1-1.248-.1-1.344a19.732,19.732,0,0,0-1.392-7.3c-1.92-4.8-6.336-7.584-11.952-7.584-8.208,0-13.536,5.808-13.536,14.688,0,8.976,5.376,14.64,13.872,14.64a13.631,13.631,0,0,0,9.888-3.7,13.49,13.49,0,0,0,2.928-4.416l-5.664-1.824a6.977,6.977,0,0,1-1.392,2.5,8.075,8.075,0,0,1-11.76-.288c-1.1-1.392-1.536-2.736-1.776-5.376ZM829.68,83.632c.72-4.032,3.456-6.528,7.2-6.528a6.845,6.845,0,0,1,5.184,1.92,7.534,7.534,0,0,1,2.112,4.608Z" transform="translate(173 502)" fill="#0080f4"/>
      <path id="路径_41022" data-name="路径 41022" d="M5-9.6a4.159,4.159,0,0,0-3.1,1.2A5.137,5.137,0,0,0,.54-4.656c0,3.048,1.752,5,4.476,5S9.5-1.62,9.5-4.656A5.175,5.175,0,0,0,8.16-8.4,4.205,4.205,0,0,0,5-9.6ZM5.04-1.08a2.591,2.591,0,0,1-1.86-.732,3.965,3.965,0,0,1-.972-2.832c0-2.172,1.092-3.54,2.82-3.54a2.583,2.583,0,0,1,1.848.732,3.876,3.876,0,0,1,.948,2.8C7.824-2.448,6.756-1.08,5.04-1.08ZM36.576-9.408a9.767,9.767,0,0,1,.1,1.644V-3.54a2.191,2.191,0,0,1-2.436,2.484,2.2,2.2,0,0,1-2.46-2.472V-7.764a9.41,9.41,0,0,1,.1-1.644H30.084a9.858,9.858,0,0,1,.1,1.644v4.236a3.865,3.865,0,0,0,.9,2.76A4.134,4.134,0,0,0,34.176.36c2.616,0,4.092-1.392,4.092-3.876v-4.26a9.7,9.7,0,0,1,.1-1.632ZM67.332.144c-.168-.324-.468-.972-.564-1.188C65.58-3.852,65.352-4.188,64.6-4.428a2.537,2.537,0,0,0,1.332-.7,2.467,2.467,0,0,0,.612-1.788c0-1.584-1.044-2.5-2.868-2.5h-2.88c-.66,0-1.032-.012-1.536-.036a10.677,10.677,0,0,1,.1,1.56v6.468a9.391,9.391,0,0,1-.1,1.56h1.788a9.364,9.364,0,0,1-.1-1.572V-3.876h1.788c.924,0,1.344.444,1.992,2.1a9.714,9.714,0,0,1,.624,1.92ZM60.948-5.244v-2.8h2.46c.984,0,1.476.444,1.476,1.308A1.424,1.424,0,0,1,64.5-5.676a1.617,1.617,0,0,1-1.14.432ZM116.7.144a9.771,9.771,0,0,1,.528-1.6l1.8-4.224a14.644,14.644,0,0,0,.552-1.752c-.012.18-.048.792-.1,1.836v3.984a11.156,11.156,0,0,1-.1,1.752h1.68a10.4,10.4,0,0,1-.1-1.752V-7.632a12.427,12.427,0,0,1,.1-1.776H118.86a6.65,6.65,0,0,1-.432,1.428L116-2.028,113.568-7.98a8.305,8.305,0,0,1-.444-1.428h-2.2a11.9,11.9,0,0,1,.1,1.776v6.024a11.254,11.254,0,0,1-.1,1.752h1.68a10.964,10.964,0,0,1-.1-1.752V-5.544c0-.264-.048-1.248-.1-1.884a13.354,13.354,0,0,0,.612,1.836l1.728,4.116a8.169,8.169,0,0,1,.528,1.62Zm25.272-9.552a8.966,8.966,0,0,1,.1,1.548V-1.4a9.055,9.055,0,0,1-.1,1.548H143.8a9.055,9.055,0,0,1-.1-1.548V-7.86a8.966,8.966,0,0,1,.1-1.548Zm22.4,6.756a4.1,4.1,0,0,0,.228,1A2.825,2.825,0,0,0,165.66-.288a4.825,4.825,0,0,0,2.52.624,3.977,3.977,0,0,0,2.868-.912,2.792,2.792,0,0,0,.756-2.04,2.368,2.368,0,0,0-1-2.064,5.283,5.283,0,0,0-1.956-.732,10.216,10.216,0,0,1-1.692-.432,1.141,1.141,0,0,1-.816-1.092c0-.78.708-1.308,1.752-1.308a1.9,1.9,0,0,1,1.5.576,1.55,1.55,0,0,1,.36.852l1.716-.2a3.235,3.235,0,0,0-.588-1.392A3.537,3.537,0,0,0,168.1-9.624c-2.064,0-3.408,1.08-3.408,2.748a2.362,2.362,0,0,0,.924,1.944,4.242,4.242,0,0,0,1.812.732,7.566,7.566,0,0,1,2.088.588,1.218,1.218,0,0,1,.6,1.1c0,.9-.72,1.44-1.92,1.44a2.13,2.13,0,0,1-1.752-.708,1.72,1.72,0,0,1-.336-1.056Zm27.78,0a4.1,4.1,0,0,0,.228,1A2.825,2.825,0,0,0,193.44-.288a4.825,4.825,0,0,0,2.52.624,3.977,3.977,0,0,0,2.868-.912,2.792,2.792,0,0,0,.756-2.04,2.368,2.368,0,0,0-1-2.064,5.283,5.283,0,0,0-1.956-.732,10.216,10.216,0,0,1-1.692-.432,1.141,1.141,0,0,1-.816-1.092c0-.78.708-1.308,1.752-1.308a1.9,1.9,0,0,1,1.5.576,1.55,1.55,0,0,1,.36.852l1.716-.2a3.235,3.235,0,0,0-.588-1.392,3.537,3.537,0,0,0-2.988-1.212c-2.064,0-3.408,1.08-3.408,2.748a2.362,2.362,0,0,0,.924,1.944A4.242,4.242,0,0,0,195.2-4.2a7.566,7.566,0,0,1,2.088.588,1.218,1.218,0,0,1,.6,1.1c0,.9-.72,1.44-1.92,1.44a2.13,2.13,0,0,1-1.752-.708,1.72,1.72,0,0,1-.336-1.056Zm28.092-6.756a8.966,8.966,0,0,1,.1,1.548V-1.4a9.055,9.055,0,0,1-.1,1.548h1.824a9.055,9.055,0,0,1-.1-1.548V-7.86a8.966,8.966,0,0,1,.1-1.548ZM247.116-9.6a4.159,4.159,0,0,0-3.1,1.2,5.137,5.137,0,0,0-1.368,3.744c0,3.048,1.752,5,4.476,5s4.488-1.968,4.488-5A5.175,5.175,0,0,0,250.272-8.4,4.205,4.205,0,0,0,247.116-9.6Zm.036,8.52a2.591,2.591,0,0,1-1.86-.732,3.965,3.965,0,0,1-.972-2.832c0-2.172,1.092-3.54,2.82-3.54a2.583,2.583,0,0,1,1.848.732,3.876,3.876,0,0,1,.948,2.8C249.936-2.448,248.868-1.08,247.152-1.08ZM280.368.144a9.055,9.055,0,0,1-.1-1.548V-7.752a10.493,10.493,0,0,1,.1-1.656h-1.752a10.489,10.489,0,0,1,.1,1.656V-3.72c0,.5.036,1.224.084,1.692-.264-.48-.648-1.1-.936-1.536l-3.036-4.572a6.582,6.582,0,0,1-.732-1.272H272.22a9.993,9.993,0,0,1,.1,1.548v6.192a12.983,12.983,0,0,1-.1,1.812h1.752a13.282,13.282,0,0,1-.1-1.8V-5.592c0-.276-.024-.816-.036-1.044-.036-.444-.036-.444-.048-.612.288.564.588,1.08.816,1.44l3.1,4.668a11.958,11.958,0,0,1,.768,1.284Z" transform="translate(173 400)"/>
      <path id="路径_40972" data-name="路径 40972" d="M35.712.576c-.672-1.3-1.872-3.888-2.256-4.752C28.7-15.408,27.792-16.752,24.768-17.712,27.5-18.48,28.752-19.1,30.1-20.5c1.632-1.68,2.448-4.08,2.448-7.152,0-6.336-4.176-9.984-11.472-9.984H9.552c-2.64,0-4.128-.048-6.144-.144a42.708,42.708,0,0,1,.384,6.24V-5.664A37.562,37.562,0,0,1,3.408.576H10.56a37.457,37.457,0,0,1-.384-6.288V-15.5h7.152c3.7,0,5.376,1.776,7.968,8.4,1.584,4.08,2.4,6.528,2.5,7.68ZM10.176-20.976V-32.16h9.84c3.936,0,5.9,1.776,5.9,5.232A5.7,5.7,0,0,1,24.384-22.7a6.469,6.469,0,0,1-4.56,1.728Zm48.336-6a50.641,50.641,0,0,1,.384,6.24v9.7c-2.16,4.752-4.9,7.1-8.352,7.1a5.972,5.972,0,0,1-2.64-.672C46.416-5.52,45.7-7.3,45.7-10.08V-20.736a42.962,42.962,0,0,1,.336-6.24h-6.96a44.12,44.12,0,0,1,.384,6.24V-8.592c0,3.936,1.248,6.624,3.888,8.3A10.456,10.456,0,0,0,49.1,1.1c4.56,0,7.2-1.392,9.84-5.136-.048,1.2-.048,1.344-.048,2.064V.576h6.528a39.451,39.451,0,0,1-.384-6.24V-20.736a34.753,34.753,0,0,1,.384-6.24Zm-14.5-10.752v6.144h6.1v-6.144Zm10.416,0v6.144h6.1v-6.144Zm41.04,18.576a15.977,15.977,0,0,0-1.68-3.5c-2.3-3.36-6.048-5.184-10.752-5.184a13.144,13.144,0,0,0-9.648,3.648A15.521,15.521,0,0,0,69.312-13.1c0,8.88,5.472,14.592,13.92,14.592,4.56,0,8.256-1.68,10.56-4.848a13.439,13.439,0,0,0,2.016-4.08l-5.952-1.2a6.709,6.709,0,0,1-.96,2.4,6.426,6.426,0,0,1-5.52,2.688c-4.848,0-7.824-3.7-7.824-9.7,0-5.952,2.928-9.648,7.632-9.648a6.039,6.039,0,0,1,4.944,2.208,8.65,8.65,0,0,1,1.488,2.928ZM99.6-37.632a44.021,44.021,0,0,1,.336,6.288v25.68A46.956,46.956,0,0,1,99.6.576h6.768a34.75,34.75,0,0,1-.336-6.144v-3.12l3.936-3.744,5.184,7.584C117.168-1.92,117.744-.96,118.32.576h8.544c-1.1-1.1-1.1-1.1-4.368-5.568L114.384-16.08l6.816-6.48c2.064-1.968,2.064-1.968,4.8-4.416h-8.976a22.1,22.1,0,0,1-3.792,4.272l-7.2,7.152V-31.344a44.917,44.917,0,0,1,.336-6.288Zm30.336,0a44.021,44.021,0,0,1,.336,6.288v25.68a46.956,46.956,0,0,1-.336,6.24H136.7a34.75,34.75,0,0,1-.336-6.144v-3.12l3.936-3.744,5.184,7.584C147.5-1.92,148.08-.96,148.656.576H157.2c-1.1-1.1-1.1-1.1-4.368-5.568L144.72-16.08l6.816-6.48c2.064-1.968,2.064-1.968,4.8-4.416H147.36a22.1,22.1,0,0,1-3.792,4.272l-7.2,7.152V-31.344a44.917,44.917,0,0,1,.336-6.288ZM186-11.616c-.1-1.1-.1-1.248-.1-1.344a19.732,19.732,0,0,0-1.392-7.3c-1.92-4.8-6.336-7.584-11.952-7.584-8.208,0-13.536,5.808-13.536,14.688,0,8.976,5.376,14.64,13.872,14.64a13.631,13.631,0,0,0,9.888-3.7,13.49,13.49,0,0,0,2.928-4.416l-5.664-1.824a6.976,6.976,0,0,1-1.392,2.5,7.59,7.59,0,0,1-5.76,2.4,7.544,7.544,0,0,1-6-2.688c-1.1-1.392-1.536-2.736-1.776-5.376Zm-20.736-4.752c.72-4.032,3.456-6.528,7.2-6.528a6.845,6.845,0,0,1,5.184,1.92,7.534,7.534,0,0,1,2.112,4.608ZM189.84-37.632a44.917,44.917,0,0,1,.336,6.288v25.68a39.45,39.45,0,0,1-.384,6.24H196.7a42.709,42.709,0,0,1-.384-6.24v-9.7c2.16-4.8,4.944-7.1,8.544-7.1a4.456,4.456,0,0,1,3.312,1.392c.912.96,1.392,2.544,1.392,4.752V-5.664a51.01,51.01,0,0,1-.336,6.24h6.96a37.931,37.931,0,0,1-.384-6.24v-12.1c0-6.192-3.5-9.7-9.648-9.7-4.368,0-6.96,1.344-9.936,5.088a19.688,19.688,0,0,0,.1-2.064V-31.3a46.133,46.133,0,0,1,.336-6.336Zm51.408,10.656a24.887,24.887,0,0,0-4.464-.528c-4.32,0-7.3,1.632-9.024,5.04v-4.512h-6.528a37.949,37.949,0,0,1,.336,6.24V-5.664a52.651,52.651,0,0,1-.336,6.24H228.1a50.48,50.48,0,0,1-.336-6.24v-8.88a7.726,7.726,0,0,1,1.968-4.8A6.851,6.851,0,0,1,235.3-21.7a14.334,14.334,0,0,1,4.272.768Zm17.568-10.656v6.1h7.056v-6.1Zm0,10.656a39.452,39.452,0,0,1,.384,6.24V-5.664a43.139,43.139,0,0,1-.384,6.24h7.008a48.221,48.221,0,0,1-.336-6.288V-20.688a43.147,43.147,0,0,1,.336-6.288ZM277.776.576a42.709,42.709,0,0,1-.384-6.24v-9.7c2.112-4.752,4.944-7.152,8.4-7.152a4.515,4.515,0,0,1,4.032,1.968,7.885,7.885,0,0,1,.816,4.224V-5.664A51.013,51.013,0,0,1,290.3.576h6.96a37.932,37.932,0,0,1-.384-6.24v-11.52c0-3.216-.48-5.136-1.632-6.72-1.728-2.352-4.464-3.552-8.16-3.552-4.32,0-6.864,1.344-9.792,5.088a18.753,18.753,0,0,0,.1-2.064v-2.544h-6.528a39.452,39.452,0,0,1,.384,6.24V-5.664a39.843,39.843,0,0,1-.384,6.24Zm61.008,0h6.384a50.389,50.389,0,0,1-.336-6.48V-31.2a55.977,55.977,0,0,1,.336-6.432H338.4a48.924,48.924,0,0,1,.336,6.48v4.8c0,.816,0,1.728.048,2.064.048.96.048.96.048,1.536a12.223,12.223,0,0,0-2.448-2.64,11.393,11.393,0,0,0-7.3-2.208c-7.92,0-12.96,5.568-12.96,14.352,0,5.184,1.776,9.552,4.992,12.048a12.2,12.2,0,0,0,8.016,2.448c4.656,0,7.2-1.248,9.7-4.752-.048.624-.048,1.152-.048,1.728ZM322.368-13.2c0-5.712,2.976-9.36,7.632-9.36a8.788,8.788,0,0,1,6.24,2.688,9.967,9.967,0,0,1,2.3,6.384,10.858,10.858,0,0,1-1.872,6.432,8.026,8.026,0,0,1-6.432,3.168C325.44-3.888,322.368-7.488,322.368-13.2Zm27.84-24.432v6.1h7.056v-6.1Zm0,10.656a39.452,39.452,0,0,1,.384,6.24V-5.664a43.139,43.139,0,0,1-.384,6.24h7.008a48.215,48.215,0,0,1-.336-6.288V-20.688a43.143,43.143,0,0,1,.336-6.288Zm37.872,15.36c-.1-1.1-.1-1.248-.1-1.344a19.733,19.733,0,0,0-1.392-7.3c-1.92-4.8-6.336-7.584-11.952-7.584-8.208,0-13.536,5.808-13.536,14.688,0,8.976,5.376,14.64,13.872,14.64a13.631,13.631,0,0,0,9.888-3.7,13.49,13.49,0,0,0,2.928-4.416l-5.664-1.824a6.976,6.976,0,0,1-1.392,2.5,7.59,7.59,0,0,1-5.76,2.4,7.544,7.544,0,0,1-6-2.688c-1.1-1.392-1.536-2.736-1.776-5.376Zm-20.736-4.752c.72-4.032,3.456-6.528,7.2-6.528a6.845,6.845,0,0,1,5.184,1.92,7.534,7.534,0,0,1,2.112,4.608Zm71.28,2.064a40.241,40.241,0,0,1,.336-5.952c-2.064.144-3.456.192-5.664.192h-2.5a35.822,35.822,0,0,1-5.76-.288v6.192a26.277,26.277,0,0,1,4.9-.288h2.592v7.824a14.324,14.324,0,0,1-8.16,2.16c-3.792,0-6.384-1.008-8.352-3.312-2.16-2.544-3.264-6.288-3.264-11.232,0-4.9,1.152-8.448,3.552-10.944a10.143,10.143,0,0,1,7.3-2.928c4.944,0,7.248,1.536,8.832,5.9l6.576-1.776a13.531,13.531,0,0,0-3.552-5.712,15.677,15.677,0,0,0-11.04-4.128c-4.416,0-7.68.864-10.656,2.832-4.992,3.36-7.68,9.216-7.68,16.848,0,5.952,1.584,11.136,4.512,14.592,3.024,3.648,7.632,5.52,13.632,5.52A28.425,28.425,0,0,0,431.28.288a30.44,30.44,0,0,0,7.68-3.312,39.671,39.671,0,0,1-.336-6.24Zm31.056,2.688c-.1-1.1-.1-1.248-.1-1.344a19.733,19.733,0,0,0-1.392-7.3c-1.92-4.8-6.336-7.584-11.952-7.584-8.208,0-13.536,5.808-13.536,14.688,0,8.976,5.376,14.64,13.872,14.64a13.631,13.631,0,0,0,9.888-3.7,13.49,13.49,0,0,0,2.928-4.416l-5.664-1.824a6.976,6.976,0,0,1-1.392,2.5,7.59,7.59,0,0,1-5.76,2.4,7.544,7.544,0,0,1-6-2.688c-1.1-1.392-1.536-2.736-1.776-5.376Zm-20.736-4.752c.72-4.032,3.456-6.528,7.2-6.528a6.845,6.845,0,0,1,5.184,1.92,7.534,7.534,0,0,1,2.112,4.608ZM480.24.576a49.959,49.959,0,0,1-.336-6.24v-9.5a10.839,10.839,0,0,1,2.064-4.8,5.946,5.946,0,0,1,4.944-2.5c3.12,0,4.656,2.016,4.656,6.048V-5.664a39.062,39.062,0,0,1-.384,6.24H498.1a46.959,46.959,0,0,1-.336-6.24v-9.5c.576-2.976,1.344-4.512,3.024-5.952a5.552,5.552,0,0,1,3.936-1.44c3.216,0,4.7,1.92,4.7,6.144V-5.664a37.933,37.933,0,0,1-.384,6.24h7.008a39.063,39.063,0,0,1-.384-6.24V-17.52c0-3.408-.672-5.568-2.256-7.3a9.473,9.473,0,0,0-7.2-2.736,10.6,10.6,0,0,0-5.376,1.248c-1.488.768-2.4,1.632-4.032,3.792a6.222,6.222,0,0,0-1.824-2.88,8.609,8.609,0,0,0-6.192-2.16c-3.984,0-7.536,1.872-8.928,4.8.048-.768.048-1.488.048-1.776v-2.448h-6.432a41.989,41.989,0,0,1,.336,6.24V-5.664a48.43,48.43,0,0,1-.336,6.24Zm66.576-12.192c-.1-1.1-.1-1.248-.1-1.344a19.732,19.732,0,0,0-1.392-7.3c-1.92-4.8-6.336-7.584-11.952-7.584-8.208,0-13.536,5.808-13.536,14.688,0,8.976,5.376,14.64,13.872,14.64a13.631,13.631,0,0,0,9.888-3.7,13.49,13.49,0,0,0,2.928-4.416l-5.664-1.824a6.977,6.977,0,0,1-1.392,2.5,7.59,7.59,0,0,1-5.76,2.4,7.544,7.544,0,0,1-6-2.688c-1.1-1.392-1.536-2.736-1.776-5.376ZM526.08-16.368c.72-4.032,3.456-6.528,7.2-6.528a6.845,6.845,0,0,1,5.184,1.92,7.534,7.534,0,0,1,2.112,4.608Zm24.528-21.264v6.1h7.056v-6.1Zm0,10.656a39.456,39.456,0,0,1,.384,6.24V-5.664a43.143,43.143,0,0,1-.384,6.24h7.008a48.221,48.221,0,0,1-.336-6.288V-20.688a43.147,43.147,0,0,1,.336-6.288ZM569.568.576a42.7,42.7,0,0,1-.384-6.24v-9.7c2.112-4.752,4.944-7.152,8.4-7.152a4.515,4.515,0,0,1,4.032,1.968,7.884,7.884,0,0,1,.816,4.224V-5.664A51.013,51.013,0,0,1,582.1.576h6.96a37.936,37.936,0,0,1-.384-6.24v-11.52c0-3.216-.48-5.136-1.632-6.72-1.728-2.352-4.464-3.552-8.16-3.552-4.32,0-6.864,1.344-9.792,5.088a18.753,18.753,0,0,0,.1-2.064v-2.544h-6.528a39.456,39.456,0,0,1,.384,6.24V-5.664a39.846,39.846,0,0,1-.384,6.24ZM592.8-7.248a10.8,10.8,0,0,0,1.872,4.272c2.064,2.784,5.76,4.272,10.7,4.272,4.368,0,7.728-1.056,9.936-3.12a7.718,7.718,0,0,0,2.352-5.424A6.822,6.822,0,0,0,614.88-13.2c-1.584-1.2-3.552-1.872-8.448-2.928a20.219,20.219,0,0,1-4.8-1.44,2.587,2.587,0,0,1-1.488-2.256c0-2.016,2.016-3.36,4.992-3.36,3.12,0,4.752,1.152,5.28,3.792l6.336-.816a9.344,9.344,0,0,0-2.592-4.752c-1.968-1.824-5.088-2.784-9.024-2.784-4.368,0-7.632,1.248-9.6,3.744a7.141,7.141,0,0,0-1.488,4.464,6.873,6.873,0,0,0,4.224,6.384,29.017,29.017,0,0,0,6.912,2.064c3.84.864,4.128.912,5.04,1.536a2.935,2.935,0,0,1,1.248,2.4c0,2.256-2.208,3.648-5.76,3.648-3.744,0-5.52-1.3-6.336-4.56Zm53.712-11.9a15.979,15.979,0,0,0-1.68-3.5c-2.3-3.36-6.048-5.184-10.752-5.184a13.144,13.144,0,0,0-9.648,3.648,15.52,15.52,0,0,0-4.08,11.088c0,8.88,5.472,14.592,13.92,14.592,4.56,0,8.256-1.68,10.56-4.848a13.439,13.439,0,0,0,2.016-4.08L640.9-8.64a6.708,6.708,0,0,1-.96,2.4,6.426,6.426,0,0,1-5.52,2.688c-4.848,0-7.824-3.7-7.824-9.7,0-5.952,2.928-9.648,7.632-9.648a6.039,6.039,0,0,1,4.944,2.208,8.65,8.65,0,0,1,1.488,2.928Zm4.08-18.48a44.919,44.919,0,0,1,.336,6.288v25.68a39.456,39.456,0,0,1-.384,6.24h6.912a42.7,42.7,0,0,1-.384-6.24v-9.7c2.16-4.8,4.944-7.1,8.544-7.1a4.456,4.456,0,0,1,3.312,1.392c.912.96,1.392,2.544,1.392,4.752V-5.664a51.013,51.013,0,0,1-.336,6.24h6.96a37.936,37.936,0,0,1-.384-6.24v-12.1c0-6.192-3.5-9.7-9.648-9.7-4.368,0-6.96,1.344-9.936,5.088a19.685,19.685,0,0,0,.1-2.064V-31.3a46.123,46.123,0,0,1,.336-6.336ZM700.128.576h6.48a38.61,38.61,0,0,1-.384-6V-18.336c0-3.264-.624-5.088-2.256-6.624-2.064-2.016-4.848-2.832-9.456-2.832-4.128,0-6.816.72-9.168,2.448-1.824,1.3-2.688,2.544-3.792,5.328l6.144,1.1a5.23,5.23,0,0,1,1.92-3.072,8.66,8.66,0,0,1,4.992-1.392c3.648,0,5.52,1.44,5.52,4.224V-16.7c-6.864.144-10.416.624-13.536,1.92a8.515,8.515,0,0,0-5.424,7.776c0,5.04,3.552,8.064,9.408,8.064A16.984,16.984,0,0,0,695.04.48a10.408,10.408,0,0,0,5.088-3.024Zm0-10.7A5.72,5.72,0,0,1,698.4-5.9a9.746,9.746,0,0,1-6.672,2.544c-2.688,0-4.368-1.392-4.368-3.648,0-3.744,3.6-5.328,12.768-5.52Zm15.216-11.808V-5.664a51.551,51.551,0,0,1-.336,6.24h6.864a47.443,47.443,0,0,1-.336-6.24V-21.936h2.352a41.309,41.309,0,0,1,5.328.288v-5.616a52.714,52.714,0,0,1-5.424.288h-2.256v-1.968c0-3.312.96-4.464,3.744-4.464a7.946,7.946,0,0,1,4.272,1.152l1.3-5.04a17.355,17.355,0,0,0-5.952-.96c-6.528,0-9.552,2.784-9.552,8.736v2.544h-1.968a31.456,31.456,0,0,1-4.512-.288v5.616a32.651,32.651,0,0,1,4.56-.288Zm21.168-12.432a55.26,55.26,0,0,1,.336,5.9v1.488h-1.776a22.047,22.047,0,0,1-4.32-.288V-21.6a24.238,24.238,0,0,1,4.272-.288h1.824V-5.76c0,5.04,2.208,7.008,7.728,7.008a15.02,15.02,0,0,0,6-1.008l-.864-5.088a6.349,6.349,0,0,1-3.5,1.056c-2.3,0-3.168-.864-3.168-3.216v-14.88h2.16a26.465,26.465,0,0,1,4.7.288v-5.664a27.577,27.577,0,0,1-4.848.288H743.04v-1.488a53.084,53.084,0,0,1,.336-5.9ZM22.368,73.024a50.641,50.641,0,0,1,.384,6.24v9.7c-2.16,4.752-4.9,7.1-8.352,7.1a5.972,5.972,0,0,1-2.64-.672C10.272,94.48,9.552,92.7,9.552,89.92V79.264a42.961,42.961,0,0,1,.336-6.24H2.928a44.119,44.119,0,0,1,.384,6.24V91.408c0,3.936,1.248,6.624,3.888,8.3a10.456,10.456,0,0,0,5.76,1.392c4.56,0,7.2-1.392,9.84-5.136-.048,1.2-.048,1.344-.048,2.064v2.544H29.28a39.451,39.451,0,0,1-.384-6.24V79.264a34.753,34.753,0,0,1,.384-6.24Zm18.864,27.552a42.708,42.708,0,0,1-.384-6.24v-9.7c2.112-4.752,4.944-7.152,8.4-7.152a4.515,4.515,0,0,1,4.032,1.968A7.885,7.885,0,0,1,54.1,83.68V94.336a51.011,51.011,0,0,1-.336,6.24h6.96a37.932,37.932,0,0,1-.384-6.24V82.816c0-3.216-.48-5.136-1.632-6.72-1.728-2.352-4.464-3.552-8.16-3.552-4.32,0-6.864,1.344-9.792,5.088a18.755,18.755,0,0,0,.1-2.064V73.024H34.32a39.451,39.451,0,0,1,.384,6.24V94.336a39.842,39.842,0,0,1-.384,6.24Zm45.984,0H93.6a50.388,50.388,0,0,1-.336-6.48V68.8a55.975,55.975,0,0,1,.336-6.432H86.832a48.921,48.921,0,0,1,.336,6.48v4.8c0,.816,0,1.728.048,2.064.048.96.048.96.048,1.536a12.223,12.223,0,0,0-2.448-2.64,11.393,11.393,0,0,0-7.3-2.208c-7.92,0-12.96,5.568-12.96,14.352,0,5.184,1.776,9.552,4.992,12.048a12.2,12.2,0,0,0,8.016,2.448c4.656,0,7.2-1.248,9.7-4.752-.048.624-.048,1.152-.048,1.728ZM70.8,86.8c0-5.712,2.976-9.36,7.632-9.36a8.788,8.788,0,0,1,6.24,2.688,9.967,9.967,0,0,1,2.3,6.384A10.858,10.858,0,0,1,85.1,92.944a8.026,8.026,0,0,1-6.432,3.168C73.872,96.112,70.8,92.512,70.8,86.8Zm78.144,13.776a50.375,50.375,0,0,1-2.448-5.664l-10.656-27.7a31.782,31.782,0,0,1-1.632-4.848h-8.352a28.43,28.43,0,0,1-1.536,4.848l-10.56,27.7a52.467,52.467,0,0,1-2.544,5.664h7.872a23.939,23.939,0,0,1,1.44-5.04l1.92-5.232h15.36l1.92,5.232a32.275,32.275,0,0,1,1.344,5.04ZM136.08,84.784h-11.9l4.992-14.208c.144-.432.144-.432.912-2.688.528,1.584.672,2.16.864,2.688Zm15.5-22.416a44.024,44.024,0,0,1,.336,6.288v25.68a46.959,46.959,0,0,1-.336,6.24h6.768a34.751,34.751,0,0,1-.336-6.144v-3.12l3.936-3.744,5.184,7.584c2.016,2.928,2.592,3.888,3.168,5.424h8.544c-1.1-1.1-1.1-1.1-4.368-5.568L166.368,83.92l6.816-6.48c2.064-1.968,2.064-1.968,4.8-4.416h-8.976a22.1,22.1,0,0,1-3.792,4.272l-7.2,7.152V68.656a44.919,44.919,0,0,1,.336-6.288Zm33.456,3.264a55.248,55.248,0,0,1,.336,5.9v1.488H183.6a22.047,22.047,0,0,1-4.32-.288V78.4a24.239,24.239,0,0,1,4.272-.288h1.824V94.24c0,5.04,2.208,7.008,7.728,7.008a15.02,15.02,0,0,0,6-1.008l-.864-5.088a6.349,6.349,0,0,1-3.5,1.056c-2.3,0-3.168-.864-3.168-3.216V78.112h2.16a26.465,26.465,0,0,1,4.7.288V72.736a27.577,27.577,0,0,1-4.848.288h-2.016V71.536a53.089,53.089,0,0,1,.336-5.9ZM201.7,62.368v6.1h7.056v-6.1Zm0,10.656a39.45,39.45,0,0,1,.384,6.24V94.336a43.137,43.137,0,0,1-.384,6.24H208.7a48.221,48.221,0,0,1-.336-6.288V79.312a43.147,43.147,0,0,1,.336-6.288ZM229.1,100.576a25.66,25.66,0,0,1,1.44-4.272l7.392-18.24c.912-2.352,1.488-3.7,2.16-5.04h-7.3a21.733,21.733,0,0,1-1.2,4.464l-4.9,13.92c-.336.96-.72,2.16-1.056,3.216-.288-1.008-.72-2.448-1.008-3.216l-4.9-13.92a25.345,25.345,0,0,1-1.2-4.464H211.2c.96,2.016,1.728,3.792,2.256,5.04L220.8,96.3a22.849,22.849,0,0,1,1.44,4.272Zm13.488-38.208v6.1h7.056v-6.1Zm0,10.656a39.45,39.45,0,0,1,.384,6.24V94.336a43.137,43.137,0,0,1-.384,6.24H249.6a48.221,48.221,0,0,1-.336-6.288V79.312a43.147,43.147,0,0,1,.336-6.288Zm37.872,15.36c-.1-1.1-.1-1.248-.1-1.344a19.732,19.732,0,0,0-1.392-7.3c-1.92-4.8-6.336-7.584-11.952-7.584-8.208,0-13.536,5.808-13.536,14.688,0,8.976,5.376,14.64,13.872,14.64a13.631,13.631,0,0,0,9.888-3.7,13.49,13.49,0,0,0,2.928-4.416l-5.664-1.824a6.976,6.976,0,0,1-1.392,2.5,8.075,8.075,0,0,1-11.76-.288c-1.1-1.392-1.536-2.736-1.776-5.376Zm-20.736-4.752c.72-4.032,3.456-6.528,7.2-6.528a6.845,6.845,0,0,1,5.184,1.92,7.534,7.534,0,0,1,2.112,4.608Zm44.64-10.608A24.887,24.887,0,0,0,299.9,72.5c-4.32,0-7.3,1.632-9.024,5.04V73.024h-6.528a37.949,37.949,0,0,1,.336,6.24V94.336a52.644,52.644,0,0,1-.336,6.24h6.864a50.482,50.482,0,0,1-.336-6.24v-8.88a7.726,7.726,0,0,1,1.968-4.8,6.851,6.851,0,0,1,5.568-2.352,14.334,14.334,0,0,1,4.272.768Zm21.936,0a50.643,50.643,0,0,1,.384,6.24v9.7c-2.16,4.752-4.9,7.1-8.352,7.1a5.972,5.972,0,0,1-2.64-.672c-1.488-.912-2.208-2.688-2.208-5.472V79.264a42.962,42.962,0,0,1,.336-6.24h-6.96a44.121,44.121,0,0,1,.384,6.24V91.408c0,3.936,1.248,6.624,3.888,8.3a10.456,10.456,0,0,0,5.76,1.392c4.56,0,7.2-1.392,9.84-5.136-.048,1.2-.048,1.344-.048,2.064v2.544h6.528a39.452,39.452,0,0,1-.384-6.24V79.264a34.753,34.753,0,0,1,.384-6.24Zm18.864,27.552a42.709,42.709,0,0,1-.384-6.24v-9.7c2.112-4.752,4.944-7.152,8.4-7.152a4.515,4.515,0,0,1,4.032,1.968,7.885,7.885,0,0,1,.816,4.224V94.336a51.013,51.013,0,0,1-.336,6.24h6.96a37.932,37.932,0,0,1-.384-6.24V82.816c0-3.216-.48-5.136-1.632-6.72-1.728-2.352-4.464-3.552-8.16-3.552-4.32,0-6.864,1.344-9.792,5.088a18.754,18.754,0,0,0,.1-2.064V73.024h-6.528a39.452,39.452,0,0,1,.384,6.24V94.336a39.843,39.843,0,0,1-.384,6.24Zm23.856,4.416c3.264,3.7,6.432,4.992,12.048,4.992,4.944,0,8.928-1.1,11.328-3.072,2.784-2.352,4.032-6.048,4.032-11.808V79.024a44.589,44.589,0,0,1,.336-6h-6.432v2.208a11.544,11.544,0,0,0,.1,1.584c-2.064-2.928-4.9-4.224-9.168-4.224-7.776,0-12.816,5.376-12.816,13.68,0,8.208,4.9,13.44,12.528,13.44,4.176,0,7.008-1.344,9.408-4.368-.1,3.264-.432,4.944-1.248,6.384-1.344,2.3-4.176,3.6-7.872,3.6-3.456,0-5.568-1.056-7.44-3.648Zm5.712-18.576c0-5.712,2.976-9.312,7.776-9.312a7.254,7.254,0,0,1,4.656,1.728,8.849,8.849,0,0,1,2.88,7.1,10.167,10.167,0,0,1-1.344,5.472,8.033,8.033,0,0,1-6.672,3.792,7.357,7.357,0,0,1-5.088-2.16C375.5,91.6,374.736,89.248,374.736,86.416Zm63.7,14.16h6.384a50.383,50.383,0,0,1-.336-6.48V68.8a55.97,55.97,0,0,1,.336-6.432h-6.768a48.924,48.924,0,0,1,.336,6.48v4.8c0,.816,0,1.728.048,2.064.048.96.048.96.048,1.536a12.223,12.223,0,0,0-2.448-2.64,11.393,11.393,0,0,0-7.3-2.208c-7.92,0-12.96,5.568-12.96,14.352,0,5.184,1.776,9.552,4.992,12.048a12.2,12.2,0,0,0,8.016,2.448c4.656,0,7.2-1.248,9.7-4.752-.048.624-.048,1.152-.048,1.728ZM422.016,86.8c0-5.712,2.976-9.36,7.632-9.36a8.788,8.788,0,0,1,6.24,2.688,9.967,9.967,0,0,1,2.3,6.384,10.858,10.858,0,0,1-1.872,6.432,8.026,8.026,0,0,1-6.432,3.168C425.088,96.112,422.016,92.512,422.016,86.8Zm53.664,1.584c-.1-1.1-.1-1.248-.1-1.344a19.733,19.733,0,0,0-1.392-7.3c-1.92-4.8-6.336-7.584-11.952-7.584-8.208,0-13.536,5.808-13.536,14.688,0,8.976,5.376,14.64,13.872,14.64a13.631,13.631,0,0,0,9.888-3.7,13.49,13.49,0,0,0,2.928-4.416l-5.664-1.824a6.976,6.976,0,0,1-1.392,2.5,8.075,8.075,0,0,1-11.76-.288c-1.1-1.392-1.536-2.736-1.776-5.376Zm-20.736-4.752c.72-4.032,3.456-6.528,7.2-6.528a6.845,6.845,0,0,1,5.184,1.92,7.534,7.534,0,0,1,2.112,4.608Zm44.64-10.608a24.887,24.887,0,0,0-4.464-.528c-4.32,0-7.3,1.632-9.024,5.04V73.024h-6.528a37.949,37.949,0,0,1,.336,6.24V94.336a52.644,52.644,0,0,1-.336,6.24h6.864a50.482,50.482,0,0,1-.336-6.24v-8.88a7.726,7.726,0,0,1,1.968-4.8,6.851,6.851,0,0,1,5.568-2.352,14.334,14.334,0,0,1,4.272.768Z" transform="translate(173 502)"/>
    </g>
  </g>
</svg>
