<svg xmlns="http://www.w3.org/2000/svg" xmlns:xlink="http://www.w3.org/1999/xlink" width="1820" height="880" viewBox="0 0 1820 880">
  <defs>
    <clipPath id="clip-path">
      <rect id="矩形_2801" data-name="矩形 2801" width="1820" height="880" fill="#fff"/>
    </clipPath>
  </defs>
  <g id="产品-秘密_EN" transform="translate(-4379 2103)">
    <g id="秘密-EN" transform="translate(1935 -2106)">
      <path id="路径_38604" data-name="路径 38604" d="M24.03.648c8.964,0,13.986-4.266,13.986-11.826a10.66,10.66,0,0,0-3.348-8.262c-1.458-1.35-2.7-1.89-5.454-2.484a9.137,9.137,0,0,0,4.266-2.268A9.658,9.658,0,0,0,36.5-31.806c0-6.75-4.7-10.53-13.068-10.53H10.692c-3.672,0-4.536,0-6.8-.108A51.475,51.475,0,0,1,4.32-35.8V-6.48A38.539,38.539,0,0,1,3.834.81C6.048.7,7.614.648,10.746.648ZM11.448-24.732V-36.288H22.626a7.66,7.66,0,0,1,5.184,1.674,5.5,5.5,0,0,1,1.4,4c0,3.672-2.43,5.886-6.534,5.886Zm0,5.994h11.5A8.822,8.822,0,0,1,28.836-16.9a5.851,5.851,0,0,1,1.728,4.7c0,4.374-2.7,6.75-7.506,6.75H11.448ZM64.584.648h7.29a43.432,43.432,0,0,1-.432-6.75V-20.628c0-3.672-.7-5.724-2.538-7.452-2.322-2.268-5.454-3.186-10.638-3.186-4.644,0-7.668.81-10.314,2.754-2.052,1.458-3.024,2.862-4.266,5.994L50.6-21.276c.648-1.944,1.134-2.7,2.16-3.456A9.742,9.742,0,0,1,58.374-26.3c4.1,0,6.21,1.62,6.21,4.752v2.754c-7.722.162-11.718.7-15.228,2.16a9.579,9.579,0,0,0-6.1,8.748c0,5.67,4,9.072,10.584,9.072A19.107,19.107,0,0,0,58.86.54a11.71,11.71,0,0,0,5.724-3.4Zm0-12.042A6.435,6.435,0,0,1,62.64-6.642,10.965,10.965,0,0,1,55.134-3.78c-3.024,0-4.914-1.566-4.914-4.1,0-4.212,4.05-5.994,14.364-6.21Zm41.85-10.152a17.974,17.974,0,0,0-1.89-3.942c-2.592-3.78-6.8-5.832-12.1-5.832a14.787,14.787,0,0,0-10.854,4.1c-2.97,3.024-4.59,7.4-4.59,12.474,0,9.99,6.156,16.416,15.66,16.416,5.13,0,9.288-1.89,11.88-5.454a15.119,15.119,0,0,0,2.268-4.59l-6.7-1.35a7.547,7.547,0,0,1-1.08,2.7A7.229,7.229,0,0,1,92.826-4c-5.454,0-8.8-4.158-8.8-10.908,0-6.7,3.294-10.854,8.586-10.854a6.794,6.794,0,0,1,5.562,2.484,9.731,9.731,0,0,1,1.674,3.294Zm5.724-20.79a49.525,49.525,0,0,1,.378,7.074v28.89a52.827,52.827,0,0,1-.378,7.02h7.614a39.1,39.1,0,0,1-.378-6.912v-3.51l4.428-4.212,5.832,8.532c2.268,3.294,2.916,4.374,3.564,6.1h9.612c-1.242-1.242-1.242-1.242-4.914-6.264L128.79-18.09l7.668-7.29c2.322-2.214,2.322-2.214,5.4-4.968h-10.1a24.859,24.859,0,0,1-4.266,4.806l-8.1,8.046V-35.262a50.533,50.533,0,0,1,.378-7.074Zm56.7,3.672a62.154,62.154,0,0,1,.378,6.642v1.674h-2a24.8,24.8,0,0,1-4.86-.324V-24.3a27.269,27.269,0,0,1,4.806-.324h2.052V-6.48c0,5.67,2.484,7.884,8.694,7.884A16.9,16.9,0,0,0,184.68.27l-.972-5.724a7.142,7.142,0,0,1-3.942,1.188c-2.592,0-3.564-.972-3.564-3.618v-16.74h2.43a29.773,29.773,0,0,1,5.292.324v-6.372a31.024,31.024,0,0,1-5.454.324H176.2v-1.674a59.725,59.725,0,0,1,.378-6.642ZM203.526,1.674c9.612,0,15.93-6.588,15.93-16.578s-6.21-16.362-15.984-16.362c-9.828,0-16.092,6.426-16.092,16.47C187.38-4.7,193.644,1.674,203.526,1.674Zm-.054-27.324c5.724,0,9.018,4,9.018,10.962,0,6.588-3.456,10.638-9.072,10.638s-9.072-4.1-9.072-10.746C194.346-21.546,197.8-25.65,203.472-25.65Zm42.984-13.014a62.154,62.154,0,0,1,.378,6.642v1.674h-2a24.8,24.8,0,0,1-4.86-.324V-24.3a27.269,27.269,0,0,1,4.806-.324h2.052V-6.48c0,5.67,2.484,7.884,8.694,7.884A16.9,16.9,0,0,0,262.278.27l-.972-5.724a7.142,7.142,0,0,1-3.942,1.188c-2.592,0-3.564-.972-3.564-3.618v-16.74h2.43a29.773,29.773,0,0,1,5.292.324v-6.372a31.024,31.024,0,0,1-5.454.324H253.8v-1.674a59.725,59.725,0,0,1,.378-6.642Zm19.872-3.672a50.534,50.534,0,0,1,.378,7.074v28.89a44.382,44.382,0,0,1-.432,7.02h7.776a48.046,48.046,0,0,1-.432-7.02V-17.28c2.43-5.4,5.562-7.992,9.612-7.992a5.013,5.013,0,0,1,3.726,1.566c1.026,1.08,1.566,2.862,1.566,5.346V-6.372a57.384,57.384,0,0,1-.378,7.02h7.83a42.673,42.673,0,0,1-.432-7.02V-19.98c0-6.966-3.942-10.908-10.854-10.908-4.914,0-7.83,1.512-11.178,5.724a22.154,22.154,0,0,0,.108-2.322v-7.722A51.894,51.894,0,0,1,274-42.336Zm65.34,29.268c-.108-1.242-.108-1.4-.108-1.512a22.2,22.2,0,0,0-1.566-8.208c-2.16-5.4-7.128-8.532-13.446-8.532-9.234,0-15.228,6.534-15.228,16.524,0,10.1,6.048,16.47,15.606,16.47A15.335,15.335,0,0,0,328.05-2.484a15.176,15.176,0,0,0,3.294-4.968L324.972-9.5A7.848,7.848,0,0,1,323.406-6.7a8.538,8.538,0,0,1-6.48,2.7,8.487,8.487,0,0,1-6.75-3.024c-1.242-1.566-1.728-3.078-2-6.048ZM308.34-18.414c.81-4.536,3.888-7.344,8.1-7.344a7.7,7.7,0,0,1,5.832,2.16,8.476,8.476,0,0,1,2.376,5.184Zm74.79-3.132a17.974,17.974,0,0,0-1.89-3.942c-2.592-3.78-6.8-5.832-12.1-5.832a14.787,14.787,0,0,0-10.854,4.1c-2.97,3.024-4.59,7.4-4.59,12.474,0,9.99,6.156,16.416,15.66,16.416,5.13,0,9.288-1.89,11.88-5.454a15.12,15.12,0,0,0,2.268-4.59l-6.7-1.35a7.547,7.547,0,0,1-1.08,2.7A7.229,7.229,0,0,1,369.522-4c-5.454,0-8.8-4.158-8.8-10.908,0-6.7,3.294-10.854,8.586-10.854a6.794,6.794,0,0,1,5.562,2.484,9.731,9.731,0,0,1,1.674,3.294ZM403.6,1.674c9.612,0,15.93-6.588,15.93-16.578s-6.21-16.362-15.984-16.362c-9.828,0-16.092,6.426-16.092,16.47C387.45-4.7,393.714,1.674,403.6,1.674Zm-.054-27.324c5.724,0,9.018,4,9.018,10.962,0,6.588-3.456,10.638-9.072,10.638s-9.072-4.1-9.072-10.746C394.416-21.546,397.872-25.65,403.542-25.65Zm29,26.3a56.2,56.2,0,0,1-.378-7.02V-17.064a12.193,12.193,0,0,1,2.322-5.4,6.689,6.689,0,0,1,5.562-2.808c3.51,0,5.238,2.268,5.238,6.8v12.1a43.948,43.948,0,0,1-.432,7.02h7.776a52.829,52.829,0,0,1-.378-7.02V-17.064c.648-3.348,1.512-5.076,3.4-6.7a6.246,6.246,0,0,1,4.428-1.62c3.618,0,5.292,2.16,5.292,6.912v12.1a42.673,42.673,0,0,1-.432,7.02h7.884a43.948,43.948,0,0,1-.432-7.02V-19.71c0-3.834-.756-6.264-2.538-8.208-1.836-2-4.644-3.078-8.1-3.078a11.93,11.93,0,0,0-6.048,1.4c-1.674.864-2.7,1.836-4.536,4.266a7,7,0,0,0-2.052-3.24A9.686,9.686,0,0,0,442.152-31c-4.482,0-8.478,2.106-10.044,5.4.054-.864.054-1.674.054-2v-2.754h-7.236a47.232,47.232,0,0,1,.378,7.02V-6.372a54.478,54.478,0,0,1-.378,7.02Zm54.54,0a56.2,56.2,0,0,1-.378-7.02V-17.064a12.193,12.193,0,0,1,2.322-5.4,6.689,6.689,0,0,1,5.562-2.808c3.51,0,5.238,2.268,5.238,6.8v12.1a43.952,43.952,0,0,1-.432,7.02h7.776a52.823,52.823,0,0,1-.378-7.02V-17.064c.648-3.348,1.512-5.076,3.4-6.7a6.246,6.246,0,0,1,4.428-1.62c3.618,0,5.292,2.16,5.292,6.912v12.1a42.677,42.677,0,0,1-.432,7.02h7.884a43.951,43.951,0,0,1-.432-7.02V-19.71c0-3.834-.756-6.264-2.538-8.208-1.836-2-4.644-3.078-8.1-3.078a11.93,11.93,0,0,0-6.048,1.4c-1.674.864-2.7,1.836-4.536,4.266a7,7,0,0,0-2.052-3.24A9.686,9.686,0,0,0,496.692-31c-4.482,0-8.478,2.106-10.044,5.4.054-.864.054-1.674.054-2v-2.754h-7.236a47.232,47.232,0,0,1,.378,7.02V-6.372a54.478,54.478,0,0,1-.378,7.02Zm68.742-31a56.968,56.968,0,0,1,.432,7.02V-12.42c-2.43,5.346-5.508,7.992-9.4,7.992a6.719,6.719,0,0,1-2.97-.756C542.214-6.21,541.4-8.208,541.4-11.34V-23.328a48.326,48.326,0,0,1,.378-7.02h-7.83a49.631,49.631,0,0,1,.432,7.02V-9.666c0,4.428,1.4,7.452,4.374,9.342a11.763,11.763,0,0,0,6.48,1.566c5.13,0,8.1-1.566,11.07-5.778-.054,1.35-.054,1.512-.054,2.322V.648H563.6a44.386,44.386,0,0,1-.432-7.02V-23.328a39.1,39.1,0,0,1,.432-7.02Zm22.3,31a48.042,48.042,0,0,1-.432-7.02V-17.28c2.376-5.346,5.562-8.046,9.45-8.046a5.079,5.079,0,0,1,4.536,2.214c.648,1.026.918,2.484.918,4.752V-6.372a57.4,57.4,0,0,1-.378,7.02h7.83a42.677,42.677,0,0,1-.432-7.02v-12.96c0-3.618-.54-5.778-1.836-7.56-1.944-2.646-5.022-4-9.18-4-4.86,0-7.722,1.512-11.016,5.724a21.093,21.093,0,0,0,.108-2.322v-2.862h-7.344a44.386,44.386,0,0,1,.432,7.02V-6.372a44.825,44.825,0,0,1-.432,7.02ZM606.69-42.336v6.858h7.938v-6.858Zm0,11.988a44.386,44.386,0,0,1,.432,7.02V-6.372a48.534,48.534,0,0,1-.432,7.02h7.884a54.243,54.243,0,0,1-.378-7.074V-23.274a48.536,48.536,0,0,1,.378-7.074Zm18.252-8.316a62.154,62.154,0,0,1,.378,6.642v1.674h-2a24.8,24.8,0,0,1-4.86-.324V-24.3a27.268,27.268,0,0,1,4.806-.324h2.052V-6.48c0,5.67,2.484,7.884,8.694,7.884A16.9,16.9,0,0,0,640.764.27l-.972-5.724a7.142,7.142,0,0,1-3.942,1.188c-2.592,0-3.564-.972-3.564-3.618v-16.74h2.43a29.773,29.773,0,0,1,5.292.324v-6.372a31.023,31.023,0,0,1-5.454.324h-2.268v-1.674a59.725,59.725,0,0,1,.378-6.642ZM655.074-1.512l-1.836,4.158a4.507,4.507,0,0,1-4.212,2.7,8.962,8.962,0,0,1-3.78-.918L644,10.584a27.884,27.884,0,0,0,5.67.648c5.022,0,8.208-1.89,9.936-5.994l12.312-28.89c1.62-3.78,2.592-5.994,2.916-6.7h-8.046a32.294,32.294,0,0,1-2.052,6.372L658.746-8.694,652.158-24.03a31.272,31.272,0,0,1-2.052-6.318H641.9c.648,1.188.7,1.35,3.078,6.7Zm31.482-5.724h-7.938V.648h4.536c-.054,3.348-.81,4.32-4.1,5.238l1.944,2.862c4.374-1.728,5.562-3.456,5.562-8.1Z" transform="translate(2574 416)"/>
      <path id="路径_40193" data-name="路径 40193" d="M5-9.6a4.159,4.159,0,0,0-3.1,1.2A5.137,5.137,0,0,0,.54-4.656c0,3.048,1.752,5,4.476,5S9.5-1.62,9.5-4.656A5.175,5.175,0,0,0,8.16-8.4,4.205,4.205,0,0,0,5-9.6ZM5.04-1.08a2.591,2.591,0,0,1-1.86-.732,3.965,3.965,0,0,1-.972-2.832c0-2.172,1.092-3.54,2.82-3.54a2.583,2.583,0,0,1,1.848.732,3.876,3.876,0,0,1,.948,2.8C7.824-2.448,6.756-1.08,5.04-1.08ZM36.576-9.408a9.767,9.767,0,0,1,.1,1.644V-3.54a2.191,2.191,0,0,1-2.436,2.484,2.2,2.2,0,0,1-2.46-2.472V-7.764a9.41,9.41,0,0,1,.1-1.644H30.084a9.858,9.858,0,0,1,.1,1.644v4.236a3.865,3.865,0,0,0,.9,2.76A4.134,4.134,0,0,0,34.176.36c2.616,0,4.092-1.392,4.092-3.876v-4.26a9.7,9.7,0,0,1,.1-1.632ZM67.332.144c-.168-.324-.468-.972-.564-1.188C65.58-3.852,65.352-4.188,64.6-4.428a2.537,2.537,0,0,0,1.332-.7,2.467,2.467,0,0,0,.612-1.788c0-1.584-1.044-2.5-2.868-2.5h-2.88c-.66,0-1.032-.012-1.536-.036a10.677,10.677,0,0,1,.1,1.56v6.468a9.391,9.391,0,0,1-.1,1.56h1.788a9.364,9.364,0,0,1-.1-1.572V-3.876h1.788c.924,0,1.344.444,1.992,2.1a9.714,9.714,0,0,1,.624,1.92ZM60.948-5.244v-2.8h2.46c.984,0,1.476.444,1.476,1.308A1.424,1.424,0,0,1,64.5-5.676a1.617,1.617,0,0,1-1.14.432ZM116.7.144a9.771,9.771,0,0,1,.528-1.6l1.8-4.224a14.644,14.644,0,0,0,.552-1.752c-.012.18-.048.792-.1,1.836v3.984a11.156,11.156,0,0,1-.1,1.752h1.68a10.4,10.4,0,0,1-.1-1.752V-7.632a12.427,12.427,0,0,1,.1-1.776H118.86a6.65,6.65,0,0,1-.432,1.428L116-2.028,113.568-7.98a8.305,8.305,0,0,1-.444-1.428h-2.2a11.9,11.9,0,0,1,.1,1.776v6.024a11.254,11.254,0,0,1-.1,1.752h1.68a10.964,10.964,0,0,1-.1-1.752V-5.544c0-.264-.048-1.248-.1-1.884a13.354,13.354,0,0,0,.612,1.836l1.728,4.116a8.169,8.169,0,0,1,.528,1.62Zm25.272-9.552a8.966,8.966,0,0,1,.1,1.548V-1.4a9.055,9.055,0,0,1-.1,1.548H143.8a9.055,9.055,0,0,1-.1-1.548V-7.86a8.966,8.966,0,0,1,.1-1.548Zm22.4,6.756a4.1,4.1,0,0,0,.228,1A2.825,2.825,0,0,0,165.66-.288a4.825,4.825,0,0,0,2.52.624,3.977,3.977,0,0,0,2.868-.912,2.792,2.792,0,0,0,.756-2.04,2.368,2.368,0,0,0-1-2.064,5.283,5.283,0,0,0-1.956-.732,10.216,10.216,0,0,1-1.692-.432,1.141,1.141,0,0,1-.816-1.092c0-.78.708-1.308,1.752-1.308a1.9,1.9,0,0,1,1.5.576,1.55,1.55,0,0,1,.36.852l1.716-.2a3.235,3.235,0,0,0-.588-1.392A3.537,3.537,0,0,0,168.1-9.624c-2.064,0-3.408,1.08-3.408,2.748a2.362,2.362,0,0,0,.924,1.944,4.242,4.242,0,0,0,1.812.732,7.566,7.566,0,0,1,2.088.588,1.218,1.218,0,0,1,.6,1.1c0,.9-.72,1.44-1.92,1.44a2.13,2.13,0,0,1-1.752-.708,1.72,1.72,0,0,1-.336-1.056Zm27.78,0a4.1,4.1,0,0,0,.228,1A2.825,2.825,0,0,0,193.44-.288a4.825,4.825,0,0,0,2.52.624,3.977,3.977,0,0,0,2.868-.912,2.792,2.792,0,0,0,.756-2.04,2.368,2.368,0,0,0-1-2.064,5.283,5.283,0,0,0-1.956-.732,10.216,10.216,0,0,1-1.692-.432,1.141,1.141,0,0,1-.816-1.092c0-.78.708-1.308,1.752-1.308a1.9,1.9,0,0,1,1.5.576,1.55,1.55,0,0,1,.36.852l1.716-.2a3.235,3.235,0,0,0-.588-1.392,3.537,3.537,0,0,0-2.988-1.212c-2.064,0-3.408,1.08-3.408,2.748a2.362,2.362,0,0,0,.924,1.944A4.242,4.242,0,0,0,195.2-4.2a7.566,7.566,0,0,1,2.088.588,1.218,1.218,0,0,1,.6,1.1c0,.9-.72,1.44-1.92,1.44a2.13,2.13,0,0,1-1.752-.708,1.72,1.72,0,0,1-.336-1.056Zm28.092-6.756a8.966,8.966,0,0,1,.1,1.548V-1.4a9.055,9.055,0,0,1-.1,1.548h1.824a9.055,9.055,0,0,1-.1-1.548V-7.86a8.966,8.966,0,0,1,.1-1.548ZM247.116-9.6a4.159,4.159,0,0,0-3.1,1.2,5.137,5.137,0,0,0-1.368,3.744c0,3.048,1.752,5,4.476,5s4.488-1.968,4.488-5A5.175,5.175,0,0,0,250.272-8.4,4.205,4.205,0,0,0,247.116-9.6Zm.036,8.52a2.591,2.591,0,0,1-1.86-.732,3.965,3.965,0,0,1-.972-2.832c0-2.172,1.092-3.54,2.82-3.54a2.583,2.583,0,0,1,1.848.732,3.876,3.876,0,0,1,.948,2.8C249.936-2.448,248.868-1.08,247.152-1.08ZM280.368.144a9.055,9.055,0,0,1-.1-1.548V-7.752a10.493,10.493,0,0,1,.1-1.656h-1.752a10.489,10.489,0,0,1,.1,1.656V-3.72c0,.5.036,1.224.084,1.692-.264-.48-.648-1.1-.936-1.536l-3.036-4.572a6.582,6.582,0,0,1-.732-1.272H272.22a9.993,9.993,0,0,1,.1,1.548v6.192a12.983,12.983,0,0,1-.1,1.812h1.752a13.282,13.282,0,0,1-.1-1.8V-5.592c0-.276-.024-.816-.036-1.044-.036-.444-.036-.444-.048-.612.288.564.588,1.08.816,1.44l3.1,4.668a11.958,11.958,0,0,1,.768,1.284Z" transform="translate(2574 330)"/>
      <path id="路径_38605" data-name="路径 38605" d="M10.962,100.648a56.2,56.2,0,0,1-.378-7.02V82.936a12.193,12.193,0,0,1,2.322-5.4,6.689,6.689,0,0,1,5.562-2.808c3.51,0,5.238,2.268,5.238,6.8v12.1a43.949,43.949,0,0,1-.432,7.02H31.05a52.827,52.827,0,0,1-.378-7.02V82.936c.648-3.348,1.512-5.076,3.4-6.7A6.246,6.246,0,0,1,38.5,74.62c3.618,0,5.292,2.16,5.292,6.912v12.1a42.674,42.674,0,0,1-.432,7.02h7.884a43.948,43.948,0,0,1-.432-7.02V80.29c0-3.834-.756-6.264-2.538-8.208-1.836-2-4.644-3.078-8.1-3.078a11.93,11.93,0,0,0-6.048,1.4c-1.674.864-2.7,1.836-4.536,4.266a7,7,0,0,0-2.052-3.24A9.686,9.686,0,0,0,20.574,69C16.092,69,12.1,71.11,10.53,74.4c.054-.864.054-1.674.054-2V69.652H3.348a47.235,47.235,0,0,1,.378,7.02V93.628a54.482,54.482,0,0,1-.378,7.02Zm67.446,0H85.7a43.432,43.432,0,0,1-.432-6.75V79.372c0-3.672-.7-5.724-2.538-7.452-2.322-2.268-5.454-3.186-10.638-3.186-4.644,0-7.668.81-10.314,2.754-2.052,1.458-3.024,2.862-4.266,5.994l6.912,1.242c.648-1.944,1.134-2.7,2.16-3.456A9.742,9.742,0,0,1,72.2,73.7c4.1,0,6.21,1.62,6.21,4.752v2.754c-7.722.162-11.718.7-15.228,2.16a9.579,9.579,0,0,0-6.1,8.748c0,5.67,4,9.072,10.584,9.072a19.107,19.107,0,0,0,5.022-.648,11.71,11.71,0,0,0,5.724-3.4Zm0-12.042a6.435,6.435,0,0,1-1.944,4.752,10.965,10.965,0,0,1-7.506,2.862c-3.024,0-4.914-1.566-4.914-4.1,0-4.212,4.05-5.994,14.364-6.21ZM92.232,57.664a49.525,49.525,0,0,1,.378,7.074v28.89a52.827,52.827,0,0,1-.378,7.02h7.614a39.1,39.1,0,0,1-.378-6.912v-3.51l4.428-4.212,5.832,8.532c2.268,3.294,2.916,4.374,3.564,6.1H122.9c-1.242-1.242-1.242-1.242-4.914-6.264L108.864,81.91l7.668-7.29c2.322-2.214,2.322-2.214,5.4-4.968h-10.1a24.859,24.859,0,0,1-4.266,4.806l-8.1,8.046V64.738a50.533,50.533,0,0,1,.378-7.074Zm64.152,29.268c-.108-1.242-.108-1.4-.108-1.512a22.2,22.2,0,0,0-1.566-8.208c-2.16-5.4-7.128-8.532-13.446-8.532-9.234,0-15.228,6.534-15.228,16.524,0,10.1,6.048,16.47,15.606,16.47a15.335,15.335,0,0,0,11.124-4.158,15.176,15.176,0,0,0,3.294-4.968L149.688,90.5a7.848,7.848,0,0,1-1.566,2.808,9.084,9.084,0,0,1-13.23-.324c-1.242-1.566-1.728-3.078-2-6.048Zm-23.328-5.346c.81-4.536,3.888-7.344,8.1-7.344a7.7,7.7,0,0,1,5.832,2.16,8.476,8.476,0,0,1,2.376,5.184Zm46.656-23.922v6.858h7.938V57.664Zm0,11.988a44.384,44.384,0,0,1,.432,7.02V93.628a48.532,48.532,0,0,1-.432,7.02H187.6a54.249,54.249,0,0,1-.378-7.074V76.726a48.54,48.54,0,0,1,.378-7.074Zm18.252-8.316a62.154,62.154,0,0,1,.378,6.642v1.674h-2a24.8,24.8,0,0,1-4.86-.324V75.7a27.269,27.269,0,0,1,4.806-.324h2.052V93.52c0,5.67,2.484,7.884,8.694,7.884a16.9,16.9,0,0,0,6.75-1.134l-.972-5.724a7.142,7.142,0,0,1-3.942,1.188c-2.592,0-3.564-.972-3.564-3.618V75.376h2.43a29.773,29.773,0,0,1,5.292.324V69.328a31.024,31.024,0,0,1-5.454.324h-2.268V67.978a59.725,59.725,0,0,1,.378-6.642Zm44.982,39.312V98c0-.648,0-1.242-.054-1.944,2.7,3.78,5.778,5.346,10.746,5.346q6.561,0,10.368-3.888c2.916-3.024,4.428-7.344,4.428-12.636,0-10.044-5.346-15.93-14.418-15.93-4.968,0-8.316,1.674-11.124,5.454.054-1.836.108-3.186.108-4.05v-5.4a55.036,55.036,0,0,1,.378-7.29h-7.614a62.974,62.974,0,0,1,.378,7.236V93.358a56.688,56.688,0,0,1-.378,7.29ZM261.414,84.88c0,6.534-3.51,10.746-8.964,10.746a9.408,9.408,0,0,1-5.67-2c-2.16-1.728-3.564-5.13-3.564-8.532a11.63,11.63,0,0,1,2.646-7.506,9.636,9.636,0,0,1,7.344-2.97C258.174,74.62,261.414,78.67,261.414,84.88Zm41.526,2.052c-.108-1.242-.108-1.4-.108-1.512a22.2,22.2,0,0,0-1.566-8.208c-2.16-5.4-7.128-8.532-13.446-8.532-9.234,0-15.228,6.534-15.228,16.524,0,10.1,6.048,16.47,15.606,16.47a15.335,15.335,0,0,0,11.124-4.158,15.176,15.176,0,0,0,3.294-4.968L296.244,90.5a7.848,7.848,0,0,1-1.566,2.808,9.084,9.084,0,0,1-13.23-.324c-1.242-1.566-1.728-3.078-2-6.048Zm-23.328-5.346c.81-4.536,3.888-7.344,8.1-7.344a7.7,7.7,0,0,1,5.832,2.16,8.476,8.476,0,0,1,2.376,5.184ZM311.9,61.336a62.154,62.154,0,0,1,.378,6.642v1.674h-2a24.8,24.8,0,0,1-4.86-.324V75.7a27.269,27.269,0,0,1,4.806-.324h2.052V93.52c0,5.67,2.484,7.884,8.694,7.884a16.9,16.9,0,0,0,6.75-1.134l-.972-5.724a7.142,7.142,0,0,1-3.942,1.188c-2.592,0-3.564-.972-3.564-3.618V75.376h2.43a29.774,29.774,0,0,1,5.292.324V69.328a31.025,31.025,0,0,1-5.454.324h-2.268V67.978a59.733,59.733,0,0,1,.378-6.642Zm23.436,0a62.154,62.154,0,0,1,.378,6.642v1.674h-2a24.8,24.8,0,0,1-4.86-.324V75.7a27.269,27.269,0,0,1,4.806-.324h2.052V93.52c0,5.67,2.484,7.884,8.694,7.884a16.9,16.9,0,0,0,6.75-1.134l-.972-5.724a7.142,7.142,0,0,1-3.942,1.188c-2.592,0-3.564-.972-3.564-3.618V75.376h2.43a29.774,29.774,0,0,1,5.292.324V69.328a31.024,31.024,0,0,1-5.454.324h-2.268V67.978a59.725,59.725,0,0,1,.378-6.642Zm48.87,25.6c-.108-1.242-.108-1.4-.108-1.512a22.2,22.2,0,0,0-1.566-8.208c-2.16-5.4-7.128-8.532-13.446-8.532-9.234,0-15.228,6.534-15.228,16.524,0,10.1,6.048,16.47,15.606,16.47a15.335,15.335,0,0,0,11.124-4.158,15.176,15.176,0,0,0,3.294-4.968L377.514,90.5a7.848,7.848,0,0,1-1.566,2.808,9.084,9.084,0,0,1-13.23-.324c-1.242-1.566-1.728-3.078-2-6.048Zm-23.328-5.346c.81-4.536,3.888-7.344,8.1-7.344a7.7,7.7,0,0,1,5.832,2.16,8.476,8.476,0,0,1,2.376,5.184Zm51.3-11.934a28,28,0,0,0-5.022-.594c-4.86,0-8.208,1.836-10.152,5.67V69.652h-7.344a42.691,42.691,0,0,1,.378,7.02V93.628a59.226,59.226,0,0,1-.378,7.02h7.722a56.787,56.787,0,0,1-.378-7.02v-9.99a8.692,8.692,0,0,1,2.214-5.4,7.708,7.708,0,0,1,6.264-2.646,16.126,16.126,0,0,1,4.806.864Z" transform="translate(2574 416)" fill="#0080f4"/>
      <g id="NAV_bg" transform="translate(2444 3)" clip-path="url(#clip-path)">
        <g id="组_22185" data-name="组 22185" transform="translate(-50 27)" opacity="0.05">
          <g id="组_22183" data-name="组 22183" transform="translate(0 7.733)">
            <g id="组_22125" data-name="组 22125" transform="translate(496.006 224.522)">
              <g id="组_22123" data-name="组 22123" transform="translate(0 0)">
                <rect id="矩形_2775" data-name="矩形 2775" width="472.183" height="1.891" transform="translate(0 84.71) rotate(-10.335)"/>
              </g>
              <g id="组_22124" data-name="组 22124" transform="translate(0 0)">
                <rect id="矩形_2776" data-name="矩形 2776" width="472.183" height="1.891" transform="translate(0 84.71) rotate(-10.335)"/>
              </g>
            </g>
            <g id="组_22129" data-name="组 22129" transform="translate(496.139 32.308)">
              <g id="组_22126" data-name="组 22126" transform="translate(464.098 0.366)">
                <rect id="矩形_2777" data-name="矩形 2777" width="192.908" height="1.261" transform="matrix(0.063, -0.998, 0.998, 0.063, 0, 192.522)"/>
              </g>
              <g id="组_22127" data-name="组 22127" transform="translate(0)">
                <path id="路径_40194" data-name="路径 40194" d="M63.23,337.945l-.63-1.261L538.566,59.3l1.261,1.261Z" transform="translate(-62.6 -59.3)"/>
              </g>
              <g id="组_22128" data-name="组 22128" transform="translate(0)">
                <path id="路径_40195" data-name="路径 40195" d="M63.23,337.945l-.63-1.261L538.566,59.3l1.261,1.261Z" transform="translate(-62.6 -59.3)"/>
              </g>
            </g>
            <g id="组_22134" data-name="组 22134" transform="translate(495.837 32.165)">
              <g id="组_22130" data-name="组 22130" transform="translate(326.765 0)">
                <rect id="矩形_2778" data-name="矩形 2778" width="182.191" height="1.261" transform="translate(0 104.013) rotate(-34.814)"/>
              </g>
              <g id="组_22131" data-name="组 22131" transform="translate(327.17 104.435)">
                <rect id="矩形_2779" data-name="矩形 2779" width="1.261" height="163.278" transform="matrix(0.54, -0.841, 0.841, 0.54, 0, 1.061)"/>
              </g>
              <g id="组_22132" data-name="组 22132" transform="translate(0 103.907)">
                <rect id="矩形_2780" data-name="矩形 2780" width="370.055" height="1.261" transform="translate(0 173.556) rotate(-27.969)"/>
              </g>
              <g id="组_22133" data-name="组 22133" transform="translate(0 103.907)">
                <rect id="矩形_2781" data-name="矩形 2781" width="370.055" height="1.261" transform="translate(0 173.556) rotate(-27.969)"/>
              </g>
            </g>
            <g id="组_22137" data-name="组 22137" transform="translate(0 309.692)">
              <g id="组_22135" data-name="组 22135">
                <path id="路径_40196" data-name="路径 40196" d="M-16.1,576.113,480.669,104.561l-.63-1.261L-16.1,574.222Z" transform="translate(16.1 -103.3)"/>
              </g>
              <g id="组_22136" data-name="组 22136">
                <path id="路径_40197" data-name="路径 40197" d="M-16.1,576.113,480.669,104.561l-.63-1.261L-16.1,574.222Z" transform="translate(16.1 -103.3)"/>
              </g>
            </g>
            <g id="组_22144" data-name="组 22144" transform="translate(0 136.327)">
              <g id="组_22138" data-name="组 22138" transform="translate(0 127.344)">
                <path id="路径_40198" data-name="路径 40198" d="M-16.1,493.163,55.768,96H53.876L-16.1,484.337Z" transform="translate(16.1 -96)"/>
              </g>
              <g id="组_22139" data-name="组 22139" transform="translate(0 115.366)">
                <path id="路径_40199" data-name="路径 40199" d="M-16.1,94.1v1.261l70.607,11.347.63-1.261Z" transform="translate(16.1 -94.1)"/>
              </g>
              <g id="组_22140" data-name="组 22140" transform="translate(70.607)">
                <path id="路径_40200" data-name="路径 40200" d="M-4.27,203.775l-.63-1.261L747.819,75.8v1.261Z" transform="translate(4.9 -75.8)"/>
              </g>
              <g id="组_22141" data-name="组 22141" transform="translate(0 126.714)">
                <path id="路径_40201" data-name="路径 40201" d="M-16.1,143.181,55.137,97.161l-.63-1.261L-16.1,141.29Z" transform="translate(16.1 -95.9)"/>
              </g>
              <g id="组_22142" data-name="组 22142" transform="translate(71.065 126.796)">
                <rect id="矩形_2782" data-name="矩形 2782" width="1.261" height="428.054" transform="translate(0 1.253) rotate(-83.754)"/>
              </g>
              <g id="组_22143" data-name="组 22143" transform="translate(71.065 126.796)">
                <rect id="矩形_2783" data-name="矩形 2783" width="1.261" height="428.054" transform="translate(0 1.253) rotate(-83.754)"/>
              </g>
            </g>
            <g id="组_22150" data-name="组 22150" transform="translate(495.939 33.135)">
              <g id="组_22145" data-name="组 22145" transform="translate(326.126 103.822)">
                <path id="路径_40202" data-name="路径 40202" d="M215.8,741.621,114.3,75.9h1.891L217.058,741.621Z" transform="translate(-114.3 -75.9)"/>
              </g>
              <g id="组_22146" data-name="组 22146" transform="translate(427.475 0)">
                <rect id="矩形_2784" data-name="矩形 2784" width="771.001" height="1.261" transform="translate(0 769.459) rotate(-86.406)"/>
              </g>
              <g id="组_22147" data-name="组 22147" transform="translate(427.648 192.686)">
                <rect id="矩形_2785" data-name="矩形 2785" width="578.093" height="1.261" transform="translate(0 576.937) rotate(-86.392)"/>
              </g>
              <g id="组_22148" data-name="组 22148" transform="translate(0 276.653)">
                <rect id="矩形_2786" data-name="矩形 2786" width="1.261" height="652.483" transform="matrix(0.755, -0.656, 0.656, 0.755, 0, 0.827)"/>
              </g>
              <g id="组_22149" data-name="组 22149" transform="translate(0 276.653)">
                <rect id="矩形_2787" data-name="矩形 2787" width="1.261" height="652.483" transform="matrix(0.755, -0.656, 0.656, 0.755, 0, 0.827)"/>
              </g>
            </g>
            <g id="组_22158" data-name="组 22158" transform="translate(0 136.728)">
              <g id="组_22151" data-name="组 22151" transform="translate(529.871 665.909)">
                <rect id="矩形_2788" data-name="矩形 2788" width="404.098" height="1.891" transform="matrix(0.976, -0.219, 0.219, 0.976, 0, 88.336)"/>
              </g>
              <g id="组_22152" data-name="组 22152" transform="translate(69.976 126.313)">
                <path id="路径_40203" data-name="路径 40203" d="M454.575,725.688-5,97.161-3.739,95.9,455.836,725.057Z" transform="translate(5 -95.9)"/>
              </g>
              <g id="组_22153" data-name="组 22153" transform="translate(0 674.146)">
                <path id="路径_40204" data-name="路径 40204" d="M-16.1,182.8v1.261l530.182,81.324v-1.891Z" transform="translate(16.1 -182.8)"/>
              </g>
              <g id="组_22154" data-name="组 22154" transform="translate(529.561)">
                <rect id="矩形_2789" data-name="矩形 2789" width="810.087" height="1.891" transform="translate(0 755.406) rotate(-68.826)"/>
              </g>
              <g id="组_22155" data-name="组 22155" transform="translate(529.551 88.488)">
                <path id="路径_40205" data-name="路径 40205" d="M69.161,757.513l-1.261-.63L498.476,89.9l1.261.63Z" transform="translate(-67.9 -89.9)"/>
              </g>
              <g id="组_22156" data-name="组 22156" transform="translate(495.627 173.374)">
                <rect id="矩形_2790" data-name="矩形 2790" width="1.891" height="583.137" transform="matrix(0.998, -0.058, 0.058, 0.998, 0, 0.11)"/>
              </g>
              <g id="组_22157" data-name="组 22157" transform="translate(495.627 173.374)">
                <rect id="矩形_2791" data-name="矩形 2791" width="1.891" height="583.137" transform="matrix(0.998, -0.058, 0.058, 0.998, 0, 0.11)"/>
              </g>
            </g>
            <g id="组_22163" data-name="组 22163" transform="translate(822.695 0)">
              <g id="组_22159" data-name="组 22159" transform="translate(552.246 0.157)">
                <path id="路径_40206" data-name="路径 40206" d="M793.962,371.3,202.63,54.2,202,55.461l591.962,317.1Z" transform="translate(-202 -54.2)"/>
              </g>
              <g id="组_22160" data-name="组 22160" transform="translate(0 0.157)">
                <path id="路径_40207" data-name="路径 40207" d="M115.03,191.631l-.63-1.261L666.646,54.2l.63,1.261Z" transform="translate(-114.4 -54.2)"/>
              </g>
              <g id="组_22161" data-name="组 22161" transform="translate(150.039 0.157)">
                <path id="路径_40208" data-name="路径 40208" d="M138.2,87.612V86.351L540.407,54.2l.63,1.261Z" transform="translate(-138.2 -54.2)"/>
              </g>
              <g id="组_22162" data-name="组 22162" transform="translate(137.898)">
                <rect id="矩形_2792" data-name="矩形 2792" width="471.553" height="1.261" transform="matrix(0.879, -0.477, 0.477, 0.879, 0, 224.789)"/>
              </g>
            </g>
            <g id="组_22166" data-name="组 22166" transform="translate(924.193 225.193)">
              <g id="组_22164" data-name="组 22164" transform="translate(0 576.855)">
                <path id="路径_40209" data-name="路径 40209" d="M572.423,284.789,130.5,182.661V181.4L572.423,282.9Z" transform="translate(-130.5 -181.4)"/>
              </g>
              <g id="组_22165" data-name="组 22165" transform="translate(35.844 0)">
                <rect id="矩形_2793" data-name="矩形 2793" width="1.891" height="791.175" transform="translate(0 0.97) rotate(-30.843)"/>
              </g>
            </g>
            <g id="组_22174" data-name="组 22174" transform="translate(822.695 0.025)">
              <g id="组_22167" data-name="组 22167" transform="translate(542.664 534.601)">
                <rect id="矩形_2794" data-name="矩形 2794" width="398.424" height="1.891" transform="matrix(0.374, -0.927, 0.927, 0.374, 0, 369.459)"/>
              </g>
              <g id="组_22168" data-name="组 22168" transform="translate(551.651 0)">
                <rect id="矩形_2795" data-name="矩形 2795" width="1.891" height="552.246" transform="matrix(0.967, -0.253, 0.253, 0.967, 0, 0.479)"/>
              </g>
              <g id="组_22169" data-name="组 22169" transform="translate(692.199 393.513)">
                <path id="路径_40210" data-name="路径 40210" d="M676.21,116.6,224.2,257.183v1.261L676.21,118.491Z" transform="translate(-224.2 -116.6)"/>
              </g>
              <g id="组_22170" data-name="组 22170" transform="translate(101.262 533.511)">
                <rect id="矩形_2796" data-name="矩形 2796" width="648.7" height="1.261" transform="translate(0 268.627) rotate(-24.463)"/>
              </g>
              <g id="组_22171" data-name="组 22171" transform="translate(0 136.302)">
                <path id="路径_40211" data-name="路径 40211" d="M805.968,474.855,114.4,77.061l.63-1.261,692.2,397.794Z" transform="translate(-114.4 -75.8)"/>
              </g>
              <g id="组_22172" data-name="组 22172" transform="translate(149.585 32.046)">
                <rect id="矩形_2797" data-name="矩形 2797" width="1.891" height="738.85" transform="translate(0 1.388) rotate(-47.229)"/>
              </g>
              <g id="组_22173" data-name="组 22173" transform="translate(137.402 224.553)">
                <rect id="矩形_2798" data-name="矩形 2798" width="1.891" height="634.831" transform="translate(0 1.652) rotate(-60.849)"/>
              </g>
            </g>
            <g id="组_22176" data-name="组 22176" transform="translate(1514.894 534.12)">
              <g id="组_22175" data-name="组 22175">
                <path id="路径_40212" data-name="路径 40212" d="M676.21,256.788,224.2,138.9v1.261L676.21,258.679Z" transform="translate(-224.2 -138.9)"/>
              </g>
            </g>
            <g id="组_22182" data-name="组 22182" transform="translate(924.091 497.556)">
              <g id="组_22177" data-name="组 22177" transform="translate(742.734 341.056)">
                <path id="路径_40213" data-name="路径 40213" d="M548.379,187.2,248.3,283.654l.63,1.891,299.448-96.454Z" transform="translate(-248.3 -187.2)"/>
              </g>
              <g id="组_22178" data-name="组 22178" transform="translate(590.173 36.564)">
                <path id="路径_40214" data-name="路径 40214" d="M376.661,541.107,224.1,139.531l1.261-.631L377.922,540.476Z" transform="translate(-224.1 -138.9)"/>
              </g>
              <g id="组_22179" data-name="组 22179" transform="translate(441.745 405.549)">
                <rect id="矩形_2799" data-name="矩形 2799" width="1.891" height="302.601" transform="translate(0 1.881) rotate(-83.996)"/>
              </g>
              <g id="组_22180" data-name="组 22180" transform="translate(742.734)">
                <path id="路径_40215" data-name="路径 40215" d="M548.379,133.1,248.3,571.241l1.261.63L548.379,135.622Z" transform="translate(-248.3 -133.1)"/>
              </g>
              <g id="组_22181" data-name="组 22181" transform="translate(0 304.675)">
                <rect id="矩形_2800" data-name="矩形 2800" width="1.261" height="754.61" transform="translate(0 1.241) rotate(-79.81)"/>
              </g>
            </g>
          </g>
          <g id="组_22184" data-name="组 22184" transform="translate(62.717)">
            <path id="路径_40216" data-name="路径 40216" d="M71.76,118.234a8.183,8.183,0,1,1,5.674-10.087C78.694,111.929,76.173,116.973,71.76,118.234Z" transform="translate(364.184 208.017)"/>
            <path id="路径_40217" data-name="路径 40217" d="M145.46,104.734a8.183,8.183,0,1,1,5.674-10.087C151.764,99.06,149.242,103.473,145.46,104.734Z" transform="translate(755.102 136.411)"/>
            <path id="路径_40218" data-name="路径 40218" d="M71.76,118.234a8.183,8.183,0,1,1,5.674-10.087C78.694,111.929,76.173,116.973,71.76,118.234Z" transform="translate(364.184 208.017)"/>
            <path id="路径_40219" data-name="路径 40219" d="M145.46,104.734a8.183,8.183,0,1,1,5.674-10.087C151.764,99.06,149.242,103.473,145.46,104.734Z" transform="translate(755.102 136.411)"/>
            <path id="路径_40220" data-name="路径 40220" d="M145.46,104.734a8.183,8.183,0,1,1,5.674-10.087C151.764,99.06,149.242,103.473,145.46,104.734Z" transform="translate(755.102 136.411)"/>
            <path id="路径_40221" data-name="路径 40221" d="M147.36,74.234a8.183,8.183,0,1,1,5.674-10.087C154.294,67.929,151.773,72.973,147.36,74.234Z" transform="translate(765.18 -25.367)"/>
            <path id="路径_40222" data-name="路径 40222" d="M71.76,118.234a8.183,8.183,0,1,1,5.674-10.087C78.694,111.929,76.173,116.973,71.76,118.234Z" transform="translate(364.184 208.017)"/>
            <path id="路径_40223" data-name="路径 40223" d="M147.36,74.234a8.183,8.183,0,1,1,5.674-10.087C154.294,67.929,151.773,72.973,147.36,74.234Z" transform="translate(765.18 -25.367)"/>
            <path id="路径_40224" data-name="路径 40224" d="M71.76,118.234a8.183,8.183,0,1,1,5.674-10.087C78.694,111.929,76.173,116.973,71.76,118.234Z" transform="translate(364.184 208.017)"/>
            <path id="路径_40225" data-name="路径 40225" d="M147.36,74.234a8.183,8.183,0,1,1,5.674-10.087C154.294,67.929,151.773,72.973,147.36,74.234Z" transform="translate(765.18 -25.367)"/>
            <path id="路径_40226" data-name="路径 40226" d="M147.36,74.234a8.183,8.183,0,1,1,5.674-10.087C154.294,67.929,151.773,72.973,147.36,74.234Z" transform="translate(765.18 -25.367)"/>
            <path id="路径_40227" data-name="路径 40227" d="M123.56,90.734a8.183,8.183,0,1,1,5.674-10.087C130.494,84.429,127.973,89.473,123.56,90.734Z" transform="translate(638.94 62.152)"/>
            <path id="路径_40228" data-name="路径 40228" d="M145.46,104.734a8.183,8.183,0,1,1,5.674-10.087C151.764,99.06,149.242,103.473,145.46,104.734Z" transform="translate(755.102 136.411)"/>
            <path id="路径_40229" data-name="路径 40229" d="M123.56,90.734a8.183,8.183,0,1,1,5.674-10.087C130.494,84.429,127.973,89.473,123.56,90.734Z" transform="translate(638.94 62.152)"/>
            <path id="路径_40230" data-name="路径 40230" d="M71.76,118.234a8.183,8.183,0,1,1,5.674-10.087C78.694,111.929,76.173,116.973,71.76,118.234Z" transform="translate(364.184 208.017)"/>
            <path id="路径_40231" data-name="路径 40231" d="M123.56,90.734a8.183,8.183,0,1,1,5.674-10.087C130.494,84.429,127.973,89.473,123.56,90.734Z" transform="translate(638.94 62.152)"/>
            <path id="路径_40232" data-name="路径 40232" d="M71.76,118.234a8.183,8.183,0,1,1,5.674-10.087C78.694,111.929,76.173,116.973,71.76,118.234Z" transform="translate(364.184 208.017)"/>
            <path id="路径_40233" data-name="路径 40233" d="M123.56,90.734a8.183,8.183,0,1,1,5.674-10.087C130.494,84.429,127.973,89.473,123.56,90.734Z" transform="translate(638.94 62.152)"/>
            <path id="路径_40234" data-name="路径 40234" d="M71.76,118.234a8.183,8.183,0,1,1,5.674-10.087C78.694,111.929,76.173,116.973,71.76,118.234Z" transform="translate(364.184 208.017)"/>
            <path id="路径_40235" data-name="路径 40235" d="M71.76,118.234a8.183,8.183,0,1,1,5.674-10.087C78.694,111.929,76.173,116.973,71.76,118.234Z" transform="translate(364.184 208.017)"/>
            <path id="路径_40236" data-name="路径 40236" d="M4.26,110.834A8.1,8.1,0,0,1-5.827,105.16,8.1,8.1,0,0,1-.153,95.073a8.1,8.1,0,0,1,10.087,5.674C11.194,104.529,8.673,109.573,4.26,110.834Z" transform="translate(6.151 168.766)"/>
            <path id="路径_40237" data-name="路径 40237" d="M4.26,110.834A8.1,8.1,0,0,1-5.827,105.16,8.1,8.1,0,0,1-.153,95.073a8.1,8.1,0,0,1,10.087,5.674C11.194,104.529,8.673,109.573,4.26,110.834Z" transform="translate(6.151 168.766)"/>
            <path id="路径_40238" data-name="路径 40238" d="M123.56,90.734a8.183,8.183,0,1,1,5.674-10.087C130.494,84.429,127.973,89.473,123.56,90.734Z" transform="translate(638.94 62.152)"/>
            <path id="路径_40239" data-name="路径 40239" d="M4.26,110.834A8.1,8.1,0,0,1-5.827,105.16,8.1,8.1,0,0,1-.153,95.073a8.1,8.1,0,0,1,10.087,5.674C11.194,104.529,8.673,109.573,4.26,110.834Z" transform="translate(6.151 168.766)"/>
            <path id="路径_40240" data-name="路径 40240" d="M4.26,110.834A8.1,8.1,0,0,1-5.827,105.16,8.1,8.1,0,0,1-.153,95.073a8.1,8.1,0,0,1,10.087,5.674C11.194,104.529,8.673,109.573,4.26,110.834Z" transform="translate(6.151 168.766)"/>
            <path id="路径_40241" data-name="路径 40241" d="M71.76,118.234a8.183,8.183,0,1,1,5.674-10.087C78.694,111.929,76.173,116.973,71.76,118.234Z" transform="translate(364.184 208.017)"/>
            <path id="路径_40242" data-name="路径 40242" d="M4.26,110.834A8.1,8.1,0,0,1-5.827,105.16,8.1,8.1,0,0,1-.153,95.073a8.1,8.1,0,0,1,10.087,5.674C11.194,104.529,8.673,109.573,4.26,110.834Z" transform="translate(6.151 168.766)"/>
            <path id="路径_40243" data-name="路径 40243" d="M71.76,118.234a8.183,8.183,0,1,1,5.674-10.087C78.694,111.929,76.173,116.973,71.76,118.234Z" transform="translate(364.184 208.017)"/>
            <path id="路径_40244" data-name="路径 40244" d="M4.26,110.834A8.1,8.1,0,0,1-5.827,105.16,8.1,8.1,0,0,1-.153,95.073a8.1,8.1,0,0,1,10.087,5.674C11.194,104.529,8.673,109.573,4.26,110.834Z" transform="translate(6.151 168.766)"/>
            <path id="路径_40245" data-name="路径 40245" d="M123.56,90.734a8.183,8.183,0,1,1,5.674-10.087C130.494,84.429,127.973,89.473,123.56,90.734Z" transform="translate(638.94 62.152)"/>
            <path id="路径_40246" data-name="路径 40246" d="M139.66,196.234a8.183,8.183,0,1,1,5.674-10.087A8.1,8.1,0,0,1,139.66,196.234Z" transform="translate(724.337 621.743)"/>
            <path id="路径_40247" data-name="路径 40247" d="M147.36,74.234a8.183,8.183,0,1,1,5.674-10.087C154.294,67.929,151.773,72.973,147.36,74.234Z" transform="translate(765.18 -25.367)"/>
            <path id="路径_40248" data-name="路径 40248" d="M139.66,196.234a8.183,8.183,0,1,1,5.674-10.087A8.1,8.1,0,0,1,139.66,196.234Z" transform="translate(724.337 621.743)"/>
            <path id="路径_40249" data-name="路径 40249" d="M145.46,104.734a8.183,8.183,0,1,1,5.674-10.087C151.764,99.06,149.242,103.473,145.46,104.734Z" transform="translate(755.102 136.411)"/>
            <path id="路径_40250" data-name="路径 40250" d="M139.66,196.234a8.183,8.183,0,1,1,5.674-10.087A8.1,8.1,0,0,1,139.66,196.234Z" transform="translate(724.337 621.743)"/>
            <path id="路径_40251" data-name="路径 40251" d="M71.76,118.234a8.183,8.183,0,1,1,5.674-10.087C78.694,111.929,76.173,116.973,71.76,118.234Z" transform="translate(364.184 208.017)"/>
            <path id="路径_40252" data-name="路径 40252" d="M139.66,196.234a8.183,8.183,0,1,1,5.674-10.087A8.1,8.1,0,0,1,139.66,196.234Z" transform="translate(724.337 621.743)"/>
            <path id="路径_40253" data-name="路径 40253" d="M71.76,118.234a8.183,8.183,0,1,1,5.674-10.087C78.694,111.929,76.173,116.973,71.76,118.234Z" transform="translate(364.184 208.017)"/>
            <path id="路径_40254" data-name="路径 40254" d="M139.66,196.234a8.183,8.183,0,1,1,5.674-10.087A8.1,8.1,0,0,1,139.66,196.234Z" transform="translate(724.337 621.743)"/>
            <path id="路径_40255" data-name="路径 40255" d="M139.66,196.234a8.183,8.183,0,1,1,5.674-10.087A8.1,8.1,0,0,1,139.66,196.234Z" transform="translate(724.337 621.743)"/>
            <path id="路径_40256" data-name="路径 40256" d="M77.16,210.534a8.183,8.183,0,1,1,5.674-10.087A8.1,8.1,0,0,1,77.16,210.534Z" transform="translate(392.826 697.593)"/>
            <path id="路径_40257" data-name="路径 40257" d="M4.26,110.834A8.1,8.1,0,0,1-5.827,105.16,8.1,8.1,0,0,1-.153,95.073a8.1,8.1,0,0,1,10.087,5.674C11.194,104.529,8.673,109.573,4.26,110.834Z" transform="translate(6.151 168.766)"/>
            <path id="路径_40258" data-name="路径 40258" d="M77.16,210.534a8.183,8.183,0,1,1,5.674-10.087A8.1,8.1,0,0,1,77.16,210.534Z" transform="translate(392.826 697.593)"/>
            <path id="路径_40259" data-name="路径 40259" d="M77.16,210.534a8.183,8.183,0,1,1,5.674-10.087A8.1,8.1,0,0,1,77.16,210.534Z" transform="translate(392.826 697.593)"/>
            <path id="路径_40260" data-name="路径 40260" d="M123.56,90.734a8.183,8.183,0,1,1,5.674-10.087C130.494,84.429,127.973,89.473,123.56,90.734Z" transform="translate(638.94 62.152)"/>
            <path id="路径_40261" data-name="路径 40261" d="M77.16,210.534a8.183,8.183,0,1,1,5.674-10.087A8.1,8.1,0,0,1,77.16,210.534Z" transform="translate(392.826 697.593)"/>
            <path id="路径_40262" data-name="路径 40262" d="M145.46,104.734a8.183,8.183,0,1,1,5.674-10.087C151.764,99.06,149.242,103.473,145.46,104.734Z" transform="translate(755.102 136.411)"/>
            <path id="路径_40263" data-name="路径 40263" d="M77.16,210.534a8.183,8.183,0,1,1,5.674-10.087A8.1,8.1,0,0,1,77.16,210.534Z" transform="translate(392.826 697.593)"/>
            <path id="路径_40264" data-name="路径 40264" d="M71.76,118.234a8.183,8.183,0,1,1,5.674-10.087C78.694,111.929,76.173,116.973,71.76,118.234Z" transform="translate(364.184 208.017)"/>
            <path id="路径_40265" data-name="路径 40265" d="M77.16,210.534a8.183,8.183,0,1,1,5.674-10.087A8.1,8.1,0,0,1,77.16,210.534Z" transform="translate(392.826 697.593)"/>
            <path id="路径_40266" data-name="路径 40266" d="M71.76,118.234a8.183,8.183,0,1,1,5.674-10.087C78.694,111.929,76.173,116.973,71.76,118.234Z" transform="translate(364.184 208.017)"/>
            <path id="路径_40267" data-name="路径 40267" d="M77.16,210.534a8.183,8.183,0,1,1,5.674-10.087A8.1,8.1,0,0,1,77.16,210.534Z" transform="translate(392.826 697.593)"/>
            <path id="路径_40268" data-name="路径 40268" d="M211.16,69.034a8.183,8.183,0,1,1,5.674-10.087A8.1,8.1,0,0,1,211.16,69.034Z" transform="translate(1103.586 -52.949)"/>
            <path id="路径_40269" data-name="路径 40269" d="M123.56,90.734a8.183,8.183,0,1,1,5.674-10.087C130.494,84.429,127.973,89.473,123.56,90.734Z" transform="translate(638.94 62.152)"/>
            <path id="路径_40270" data-name="路径 40270" d="M211.16,69.034a8.183,8.183,0,1,1,5.674-10.087A8.1,8.1,0,0,1,211.16,69.034Z" transform="translate(1103.586 -52.949)"/>
            <path id="路径_40271" data-name="路径 40271" d="M147.36,74.234a8.183,8.183,0,1,1,5.674-10.087C154.294,67.929,151.773,72.973,147.36,74.234Z" transform="translate(765.18 -25.367)"/>
            <path id="路径_40272" data-name="路径 40272" d="M211.16,69.034a8.183,8.183,0,1,1,5.674-10.087A8.1,8.1,0,0,1,211.16,69.034Z" transform="translate(1103.586 -52.949)"/>
            <path id="路径_40273" data-name="路径 40273" d="M145.46,104.734a8.183,8.183,0,1,1,5.674-10.087C151.764,99.06,149.242,103.473,145.46,104.734Z" transform="translate(755.102 136.411)"/>
            <path id="路径_40274" data-name="路径 40274" d="M211.16,69.034a8.183,8.183,0,1,1,5.674-10.087A8.1,8.1,0,0,1,211.16,69.034Z" transform="translate(1103.586 -52.949)"/>
            <path id="路径_40275" data-name="路径 40275" d="M139.66,196.234a8.183,8.183,0,1,1,5.674-10.087A8.1,8.1,0,0,1,139.66,196.234Z" transform="translate(724.337 621.743)"/>
            <path id="路径_40276" data-name="路径 40276" d="M209.76,212.434a8.183,8.183,0,1,1,5.674-10.087A8.1,8.1,0,0,1,209.76,212.434Z" transform="translate(1096.16 707.671)"/>
            <path id="路径_40277" data-name="路径 40277" d="M145.46,104.734a8.183,8.183,0,1,1,5.674-10.087C151.764,99.06,149.242,103.473,145.46,104.734Z" transform="translate(755.102 136.411)"/>
            <path id="路径_40278" data-name="路径 40278" d="M209.76,212.434a8.183,8.183,0,1,1,5.674-10.087A8.1,8.1,0,0,1,209.76,212.434Z" transform="translate(1096.16 707.671)"/>
            <path id="路径_40279" data-name="路径 40279" d="M209.76,212.434a8.183,8.183,0,1,1,5.674-10.087A8.1,8.1,0,0,1,209.76,212.434Z" transform="translate(1096.16 707.671)"/>
            <path id="路径_40280" data-name="路径 40280" d="M233.36,153.733a8.183,8.183,0,1,1,5.674-10.087A8.1,8.1,0,0,1,233.36,153.733Z" transform="translate(1221.339 396.315)"/>
            <path id="路径_40281" data-name="路径 40281" d="M211.16,69.034a8.183,8.183,0,1,1,5.674-10.087A8.1,8.1,0,0,1,211.16,69.034Z" transform="translate(1103.586 -52.949)"/>
            <path id="路径_40282" data-name="路径 40282" d="M233.36,153.733a8.183,8.183,0,1,1,5.674-10.087A8.1,8.1,0,0,1,233.36,153.733Z" transform="translate(1221.339 396.315)"/>
            <path id="路径_40283" data-name="路径 40283" d="M233.36,153.733a8.183,8.183,0,1,1,5.674-10.087A8.1,8.1,0,0,1,233.36,153.733Z" transform="translate(1221.339 396.315)"/>
            <path id="路径_40284" data-name="路径 40284" d="M139.66,196.234a8.183,8.183,0,1,1,5.674-10.087A8.1,8.1,0,0,1,139.66,196.234Z" transform="translate(724.337 621.743)"/>
            <path id="路径_40285" data-name="路径 40285" d="M233.36,153.733a8.183,8.183,0,1,1,5.674-10.087A8.1,8.1,0,0,1,233.36,153.733Z" transform="translate(1221.339 396.315)"/>
            <path id="路径_40286" data-name="路径 40286" d="M123.56,90.734a8.183,8.183,0,1,1,5.674-10.087C130.494,84.429,127.973,89.473,123.56,90.734Z" transform="translate(638.94 62.152)"/>
            <path id="路径_40287" data-name="路径 40287" d="M233.36,153.733a8.183,8.183,0,1,1,5.674-10.087A8.1,8.1,0,0,1,233.36,153.733Z" transform="translate(1221.339 396.315)"/>
            <path id="路径_40288" data-name="路径 40288" d="M147.36,74.234a8.183,8.183,0,1,1,5.674-10.087C154.294,67.929,151.773,72.973,147.36,74.234Z" transform="translate(765.18 -25.367)"/>
            <path id="路径_40289" data-name="路径 40289" d="M233.36,153.733a8.183,8.183,0,1,1,5.674-10.087A8.1,8.1,0,0,1,233.36,153.733Z" transform="translate(1221.339 396.315)"/>
            <path id="路径_40290" data-name="路径 40290" d="M145.46,104.734a8.183,8.183,0,1,1,5.674-10.087C151.764,99.06,149.242,103.473,145.46,104.734Z" transform="translate(755.102 136.411)"/>
            <path id="路径_40291" data-name="路径 40291" d="M233.36,153.733a8.183,8.183,0,1,1,5.674-10.087A8.1,8.1,0,0,1,233.36,153.733Z" transform="translate(1221.339 396.315)"/>
            <path id="路径_40292" data-name="路径 40292" d="M233.36,153.733a8.183,8.183,0,1,1,5.674-10.087A8.1,8.1,0,0,1,233.36,153.733Z" transform="translate(1221.339 396.315)"/>
            <path id="路径_40293" data-name="路径 40293" d="M257.46,217.434a8.183,8.183,0,1,1,5.674-10.087A8.1,8.1,0,0,1,257.46,217.434Z" transform="translate(1349.17 734.192)"/>
            <path id="路径_40294" data-name="路径 40294" d="M233.36,153.733a8.183,8.183,0,1,1,5.674-10.087A8.1,8.1,0,0,1,233.36,153.733Z" transform="translate(1221.339 396.315)"/>
            <path id="路径_40295" data-name="路径 40295" d="M257.46,217.434a8.183,8.183,0,1,1,5.674-10.087A8.1,8.1,0,0,1,257.46,217.434Z" transform="translate(1349.17 734.192)"/>
            <path id="路径_40296" data-name="路径 40296" d="M209.76,212.434a8.183,8.183,0,1,1,5.674-10.087A8.1,8.1,0,0,1,209.76,212.434Z" transform="translate(1096.16 707.671)"/>
            <path id="路径_40297" data-name="路径 40297" d="M257.46,217.434a8.183,8.183,0,1,1,5.674-10.087A8.1,8.1,0,0,1,257.46,217.434Z" transform="translate(1349.17 734.192)"/>
            <path id="路径_40298" data-name="路径 40298" d="M257.46,217.434a8.183,8.183,0,1,1,5.674-10.087A8.1,8.1,0,0,1,257.46,217.434Z" transform="translate(1349.17 734.192)"/>
            <path id="路径_40299" data-name="路径 40299" d="M139.66,196.234a8.183,8.183,0,1,1,5.674-10.087A8.1,8.1,0,0,1,139.66,196.234Z" transform="translate(724.337 621.743)"/>
          </g>
        </g>
      </g>
    </g>
  </g>
</svg>
