<svg xmlns="http://www.w3.org/2000/svg" xmlns:xlink="http://www.w3.org/1999/xlink" width="1820" height="880" viewBox="0 0 1820 880">
  <defs>
    <clipPath id="clip-path">
      <rect id="矩形_2774" data-name="矩形 2774" width="1820" height="880" fill="#fff"/>
    </clipPath>
  </defs>
  <g id="产品-秘密-韩文" transform="translate(-6399 3525)">
    <path id="路径_40086" data-name="路径 40086" d="M5-9.6a4.159,4.159,0,0,0-3.1,1.2A5.137,5.137,0,0,0,.54-4.656c0,3.048,1.752,5,4.476,5S9.5-1.62,9.5-4.656A5.175,5.175,0,0,0,8.16-8.4,4.205,4.205,0,0,0,5-9.6ZM5.04-1.08a2.591,2.591,0,0,1-1.86-.732,3.965,3.965,0,0,1-.972-2.832c0-2.172,1.092-3.54,2.82-3.54a2.583,2.583,0,0,1,1.848.732,3.876,3.876,0,0,1,.948,2.8C7.824-2.448,6.756-1.08,5.04-1.08ZM36.576-9.408a9.767,9.767,0,0,1,.1,1.644V-3.54a2.191,2.191,0,0,1-2.436,2.484,2.2,2.2,0,0,1-2.46-2.472V-7.764a9.41,9.41,0,0,1,.1-1.644H30.084a9.858,9.858,0,0,1,.1,1.644v4.236a3.865,3.865,0,0,0,.9,2.76A4.134,4.134,0,0,0,34.176.36c2.616,0,4.092-1.392,4.092-3.876v-4.26a9.7,9.7,0,0,1,.1-1.632ZM67.332.144c-.168-.324-.468-.972-.564-1.188C65.58-3.852,65.352-4.188,64.6-4.428a2.537,2.537,0,0,0,1.332-.7,2.467,2.467,0,0,0,.612-1.788c0-1.584-1.044-2.5-2.868-2.5h-2.88c-.66,0-1.032-.012-1.536-.036a10.677,10.677,0,0,1,.1,1.56v6.468a9.391,9.391,0,0,1-.1,1.56h1.788a9.364,9.364,0,0,1-.1-1.572V-3.876h1.788c.924,0,1.344.444,1.992,2.1a9.714,9.714,0,0,1,.624,1.92ZM60.948-5.244v-2.8h2.46c.984,0,1.476.444,1.476,1.308A1.424,1.424,0,0,1,64.5-5.676a1.617,1.617,0,0,1-1.14.432ZM116.7.144a9.771,9.771,0,0,1,.528-1.6l1.8-4.224a14.644,14.644,0,0,0,.552-1.752c-.012.18-.048.792-.1,1.836v3.984a11.156,11.156,0,0,1-.1,1.752h1.68a10.4,10.4,0,0,1-.1-1.752V-7.632a12.427,12.427,0,0,1,.1-1.776H118.86a6.65,6.65,0,0,1-.432,1.428L116-2.028,113.568-7.98a8.305,8.305,0,0,1-.444-1.428h-2.2a11.9,11.9,0,0,1,.1,1.776v6.024a11.254,11.254,0,0,1-.1,1.752h1.68a10.964,10.964,0,0,1-.1-1.752V-5.544c0-.264-.048-1.248-.1-1.884a13.354,13.354,0,0,0,.612,1.836l1.728,4.116a8.169,8.169,0,0,1,.528,1.62Zm25.272-9.552a8.966,8.966,0,0,1,.1,1.548V-1.4a9.055,9.055,0,0,1-.1,1.548H143.8a9.055,9.055,0,0,1-.1-1.548V-7.86a8.966,8.966,0,0,1,.1-1.548Zm22.4,6.756a4.1,4.1,0,0,0,.228,1A2.825,2.825,0,0,0,165.66-.288a4.825,4.825,0,0,0,2.52.624,3.977,3.977,0,0,0,2.868-.912,2.792,2.792,0,0,0,.756-2.04,2.368,2.368,0,0,0-1-2.064,5.283,5.283,0,0,0-1.956-.732,10.216,10.216,0,0,1-1.692-.432,1.141,1.141,0,0,1-.816-1.092c0-.78.708-1.308,1.752-1.308a1.9,1.9,0,0,1,1.5.576,1.55,1.55,0,0,1,.36.852l1.716-.2a3.235,3.235,0,0,0-.588-1.392A3.537,3.537,0,0,0,168.1-9.624c-2.064,0-3.408,1.08-3.408,2.748a2.362,2.362,0,0,0,.924,1.944,4.242,4.242,0,0,0,1.812.732,7.566,7.566,0,0,1,2.088.588,1.218,1.218,0,0,1,.6,1.1c0,.9-.72,1.44-1.92,1.44a2.13,2.13,0,0,1-1.752-.708,1.72,1.72,0,0,1-.336-1.056Zm27.78,0a4.1,4.1,0,0,0,.228,1A2.825,2.825,0,0,0,193.44-.288a4.825,4.825,0,0,0,2.52.624,3.977,3.977,0,0,0,2.868-.912,2.792,2.792,0,0,0,.756-2.04,2.368,2.368,0,0,0-1-2.064,5.283,5.283,0,0,0-1.956-.732,10.216,10.216,0,0,1-1.692-.432,1.141,1.141,0,0,1-.816-1.092c0-.78.708-1.308,1.752-1.308a1.9,1.9,0,0,1,1.5.576,1.55,1.55,0,0,1,.36.852l1.716-.2a3.235,3.235,0,0,0-.588-1.392,3.537,3.537,0,0,0-2.988-1.212c-2.064,0-3.408,1.08-3.408,2.748a2.362,2.362,0,0,0,.924,1.944A4.242,4.242,0,0,0,195.2-4.2a7.566,7.566,0,0,1,2.088.588,1.218,1.218,0,0,1,.6,1.1c0,.9-.72,1.44-1.92,1.44a2.13,2.13,0,0,1-1.752-.708,1.72,1.72,0,0,1-.336-1.056Zm28.092-6.756a8.966,8.966,0,0,1,.1,1.548V-1.4a9.055,9.055,0,0,1-.1,1.548h1.824a9.055,9.055,0,0,1-.1-1.548V-7.86a8.966,8.966,0,0,1,.1-1.548ZM247.116-9.6a4.159,4.159,0,0,0-3.1,1.2,5.137,5.137,0,0,0-1.368,3.744c0,3.048,1.752,5,4.476,5s4.488-1.968,4.488-5A5.175,5.175,0,0,0,250.272-8.4,4.205,4.205,0,0,0,247.116-9.6Zm.036,8.52a2.591,2.591,0,0,1-1.86-.732,3.965,3.965,0,0,1-.972-2.832c0-2.172,1.092-3.54,2.82-3.54a2.583,2.583,0,0,1,1.848.732,3.876,3.876,0,0,1,.948,2.8C249.936-2.448,248.868-1.08,247.152-1.08ZM280.368.144a9.055,9.055,0,0,1-.1-1.548V-7.752a10.493,10.493,0,0,1,.1-1.656h-1.752a10.489,10.489,0,0,1,.1,1.656V-3.72c0,.5.036,1.224.084,1.692-.264-.48-.648-1.1-.936-1.536l-3.036-4.572a6.582,6.582,0,0,1-.732-1.272H272.22a9.993,9.993,0,0,1,.1,1.548v6.192a12.983,12.983,0,0,1-.1,1.812h1.752a13.282,13.282,0,0,1-.1-1.8V-5.592c0-.276-.024-.816-.036-1.044-.036-.444-.036-.444-.048-.612.288.564.588,1.08.816,1.44l3.1,4.668a11.958,11.958,0,0,1,.768,1.284Z" transform="translate(6529 -3198)"/>
    <g id="NAV_bg" transform="translate(6399 -3525)" clip-path="url(#clip-path)">
      <g id="组_22122" data-name="组 22122" transform="translate(-50 27)" opacity="0.05">
        <g id="组_22120" data-name="组 22120" transform="translate(0 7.733)">
          <g id="组_22062" data-name="组 22062" transform="translate(496.006 224.522)">
            <g id="组_22060" data-name="组 22060" transform="translate(0 0)">
              <rect id="矩形_2748" data-name="矩形 2748" width="472.183" height="1.891" transform="translate(0 84.71) rotate(-10.335)"/>
            </g>
            <g id="组_22061" data-name="组 22061" transform="translate(0 0)">
              <rect id="矩形_2749" data-name="矩形 2749" width="472.183" height="1.891" transform="translate(0 84.71) rotate(-10.335)"/>
            </g>
          </g>
          <g id="组_22066" data-name="组 22066" transform="translate(496.139 32.308)">
            <g id="组_22063" data-name="组 22063" transform="translate(464.098 0.366)">
              <rect id="矩形_2750" data-name="矩形 2750" width="192.908" height="1.261" transform="matrix(0.063, -0.998, 0.998, 0.063, 0, 192.522)"/>
            </g>
            <g id="组_22064" data-name="组 22064" transform="translate(0)">
              <path id="路径_40087" data-name="路径 40087" d="M63.23,337.945l-.63-1.261L538.566,59.3l1.261,1.261Z" transform="translate(-62.6 -59.3)"/>
            </g>
            <g id="组_22065" data-name="组 22065" transform="translate(0)">
              <path id="路径_40088" data-name="路径 40088" d="M63.23,337.945l-.63-1.261L538.566,59.3l1.261,1.261Z" transform="translate(-62.6 -59.3)"/>
            </g>
          </g>
          <g id="组_22071" data-name="组 22071" transform="translate(495.837 32.165)">
            <g id="组_22067" data-name="组 22067" transform="translate(326.765 0)">
              <rect id="矩形_2751" data-name="矩形 2751" width="182.191" height="1.261" transform="translate(0 104.013) rotate(-34.814)"/>
            </g>
            <g id="组_22068" data-name="组 22068" transform="translate(327.17 104.435)">
              <rect id="矩形_2752" data-name="矩形 2752" width="1.261" height="163.278" transform="matrix(0.54, -0.841, 0.841, 0.54, 0, 1.061)"/>
            </g>
            <g id="组_22069" data-name="组 22069" transform="translate(0 103.907)">
              <rect id="矩形_2753" data-name="矩形 2753" width="370.055" height="1.261" transform="translate(0 173.556) rotate(-27.969)"/>
            </g>
            <g id="组_22070" data-name="组 22070" transform="translate(0 103.907)">
              <rect id="矩形_2754" data-name="矩形 2754" width="370.055" height="1.261" transform="translate(0 173.556) rotate(-27.969)"/>
            </g>
          </g>
          <g id="组_22074" data-name="组 22074" transform="translate(0 309.692)">
            <g id="组_22072" data-name="组 22072">
              <path id="路径_40089" data-name="路径 40089" d="M-16.1,576.113,480.669,104.561l-.63-1.261L-16.1,574.222Z" transform="translate(16.1 -103.3)"/>
            </g>
            <g id="组_22073" data-name="组 22073">
              <path id="路径_40090" data-name="路径 40090" d="M-16.1,576.113,480.669,104.561l-.63-1.261L-16.1,574.222Z" transform="translate(16.1 -103.3)"/>
            </g>
          </g>
          <g id="组_22081" data-name="组 22081" transform="translate(0 136.327)">
            <g id="组_22075" data-name="组 22075" transform="translate(0 127.344)">
              <path id="路径_40091" data-name="路径 40091" d="M-16.1,493.163,55.768,96H53.876L-16.1,484.337Z" transform="translate(16.1 -96)"/>
            </g>
            <g id="组_22076" data-name="组 22076" transform="translate(0 115.366)">
              <path id="路径_40092" data-name="路径 40092" d="M-16.1,94.1v1.261l70.607,11.347.63-1.261Z" transform="translate(16.1 -94.1)"/>
            </g>
            <g id="组_22077" data-name="组 22077" transform="translate(70.607)">
              <path id="路径_40093" data-name="路径 40093" d="M-4.27,203.775l-.63-1.261L747.819,75.8v1.261Z" transform="translate(4.9 -75.8)"/>
            </g>
            <g id="组_22078" data-name="组 22078" transform="translate(0 126.714)">
              <path id="路径_40094" data-name="路径 40094" d="M-16.1,143.181,55.137,97.161l-.63-1.261L-16.1,141.29Z" transform="translate(16.1 -95.9)"/>
            </g>
            <g id="组_22079" data-name="组 22079" transform="translate(71.065 126.796)">
              <rect id="矩形_2755" data-name="矩形 2755" width="1.261" height="428.054" transform="translate(0 1.253) rotate(-83.754)"/>
            </g>
            <g id="组_22080" data-name="组 22080" transform="translate(71.065 126.796)">
              <rect id="矩形_2756" data-name="矩形 2756" width="1.261" height="428.054" transform="translate(0 1.253) rotate(-83.754)"/>
            </g>
          </g>
          <g id="组_22087" data-name="组 22087" transform="translate(495.939 33.135)">
            <g id="组_22082" data-name="组 22082" transform="translate(326.126 103.822)">
              <path id="路径_40095" data-name="路径 40095" d="M215.8,741.621,114.3,75.9h1.891L217.058,741.621Z" transform="translate(-114.3 -75.9)"/>
            </g>
            <g id="组_22083" data-name="组 22083" transform="translate(427.475 0)">
              <rect id="矩形_2757" data-name="矩形 2757" width="771.001" height="1.261" transform="translate(0 769.459) rotate(-86.406)"/>
            </g>
            <g id="组_22084" data-name="组 22084" transform="translate(427.648 192.686)">
              <rect id="矩形_2758" data-name="矩形 2758" width="578.093" height="1.261" transform="translate(0 576.937) rotate(-86.392)"/>
            </g>
            <g id="组_22085" data-name="组 22085" transform="translate(0 276.653)">
              <rect id="矩形_2759" data-name="矩形 2759" width="1.261" height="652.483" transform="matrix(0.755, -0.656, 0.656, 0.755, 0, 0.827)"/>
            </g>
            <g id="组_22086" data-name="组 22086" transform="translate(0 276.653)">
              <rect id="矩形_2760" data-name="矩形 2760" width="1.261" height="652.483" transform="matrix(0.755, -0.656, 0.656, 0.755, 0, 0.827)"/>
            </g>
          </g>
          <g id="组_22095" data-name="组 22095" transform="translate(0 136.728)">
            <g id="组_22088" data-name="组 22088" transform="translate(529.871 665.909)">
              <rect id="矩形_2761" data-name="矩形 2761" width="404.098" height="1.891" transform="matrix(0.976, -0.219, 0.219, 0.976, 0, 88.336)"/>
            </g>
            <g id="组_22089" data-name="组 22089" transform="translate(69.976 126.313)">
              <path id="路径_40096" data-name="路径 40096" d="M454.575,725.688-5,97.161-3.739,95.9,455.836,725.057Z" transform="translate(5 -95.9)"/>
            </g>
            <g id="组_22090" data-name="组 22090" transform="translate(0 674.146)">
              <path id="路径_40097" data-name="路径 40097" d="M-16.1,182.8v1.261l530.182,81.324v-1.891Z" transform="translate(16.1 -182.8)"/>
            </g>
            <g id="组_22091" data-name="组 22091" transform="translate(529.561)">
              <rect id="矩形_2762" data-name="矩形 2762" width="810.087" height="1.891" transform="translate(0 755.406) rotate(-68.826)"/>
            </g>
            <g id="组_22092" data-name="组 22092" transform="translate(529.551 88.488)">
              <path id="路径_40098" data-name="路径 40098" d="M69.161,757.513l-1.261-.63L498.476,89.9l1.261.63Z" transform="translate(-67.9 -89.9)"/>
            </g>
            <g id="组_22093" data-name="组 22093" transform="translate(495.627 173.374)">
              <rect id="矩形_2763" data-name="矩形 2763" width="1.891" height="583.137" transform="matrix(0.998, -0.058, 0.058, 0.998, 0, 0.11)"/>
            </g>
            <g id="组_22094" data-name="组 22094" transform="translate(495.627 173.374)">
              <rect id="矩形_2764" data-name="矩形 2764" width="1.891" height="583.137" transform="matrix(0.998, -0.058, 0.058, 0.998, 0, 0.11)"/>
            </g>
          </g>
          <g id="组_22100" data-name="组 22100" transform="translate(822.695 0)">
            <g id="组_22096" data-name="组 22096" transform="translate(552.246 0.157)">
              <path id="路径_40099" data-name="路径 40099" d="M793.962,371.3,202.63,54.2,202,55.461l591.962,317.1Z" transform="translate(-202 -54.2)"/>
            </g>
            <g id="组_22097" data-name="组 22097" transform="translate(0 0.157)">
              <path id="路径_40100" data-name="路径 40100" d="M115.03,191.631l-.63-1.261L666.646,54.2l.63,1.261Z" transform="translate(-114.4 -54.2)"/>
            </g>
            <g id="组_22098" data-name="组 22098" transform="translate(150.039 0.157)">
              <path id="路径_40101" data-name="路径 40101" d="M138.2,87.612V86.351L540.407,54.2l.63,1.261Z" transform="translate(-138.2 -54.2)"/>
            </g>
            <g id="组_22099" data-name="组 22099" transform="translate(137.898)">
              <rect id="矩形_2765" data-name="矩形 2765" width="471.553" height="1.261" transform="matrix(0.879, -0.477, 0.477, 0.879, 0, 224.789)"/>
            </g>
          </g>
          <g id="组_22103" data-name="组 22103" transform="translate(924.193 225.193)">
            <g id="组_22101" data-name="组 22101" transform="translate(0 576.855)">
              <path id="路径_40102" data-name="路径 40102" d="M572.423,284.789,130.5,182.661V181.4L572.423,282.9Z" transform="translate(-130.5 -181.4)"/>
            </g>
            <g id="组_22102" data-name="组 22102" transform="translate(35.844 0)">
              <rect id="矩形_2766" data-name="矩形 2766" width="1.891" height="791.175" transform="translate(0 0.97) rotate(-30.843)"/>
            </g>
          </g>
          <g id="组_22111" data-name="组 22111" transform="translate(822.695 0.025)">
            <g id="组_22104" data-name="组 22104" transform="translate(542.664 534.601)">
              <rect id="矩形_2767" data-name="矩形 2767" width="398.424" height="1.891" transform="matrix(0.374, -0.927, 0.927, 0.374, 0, 369.459)"/>
            </g>
            <g id="组_22105" data-name="组 22105" transform="translate(551.651 0)">
              <rect id="矩形_2768" data-name="矩形 2768" width="1.891" height="552.246" transform="matrix(0.967, -0.253, 0.253, 0.967, 0, 0.479)"/>
            </g>
            <g id="组_22106" data-name="组 22106" transform="translate(692.199 393.513)">
              <path id="路径_40103" data-name="路径 40103" d="M676.21,116.6,224.2,257.183v1.261L676.21,118.491Z" transform="translate(-224.2 -116.6)"/>
            </g>
            <g id="组_22107" data-name="组 22107" transform="translate(101.262 533.511)">
              <rect id="矩形_2769" data-name="矩形 2769" width="648.7" height="1.261" transform="translate(0 268.627) rotate(-24.463)"/>
            </g>
            <g id="组_22108" data-name="组 22108" transform="translate(0 136.302)">
              <path id="路径_40104" data-name="路径 40104" d="M805.968,474.855,114.4,77.061l.63-1.261,692.2,397.794Z" transform="translate(-114.4 -75.8)"/>
            </g>
            <g id="组_22109" data-name="组 22109" transform="translate(149.585 32.046)">
              <rect id="矩形_2770" data-name="矩形 2770" width="1.891" height="738.85" transform="translate(0 1.388) rotate(-47.229)"/>
            </g>
            <g id="组_22110" data-name="组 22110" transform="translate(137.402 224.553)">
              <rect id="矩形_2771" data-name="矩形 2771" width="1.891" height="634.831" transform="translate(0 1.652) rotate(-60.849)"/>
            </g>
          </g>
          <g id="组_22113" data-name="组 22113" transform="translate(1514.894 534.12)">
            <g id="组_22112" data-name="组 22112">
              <path id="路径_40105" data-name="路径 40105" d="M676.21,256.788,224.2,138.9v1.261L676.21,258.679Z" transform="translate(-224.2 -138.9)"/>
            </g>
          </g>
          <g id="组_22119" data-name="组 22119" transform="translate(924.091 497.556)">
            <g id="组_22114" data-name="组 22114" transform="translate(742.734 341.056)">
              <path id="路径_40106" data-name="路径 40106" d="M548.379,187.2,248.3,283.654l.63,1.891,299.448-96.454Z" transform="translate(-248.3 -187.2)"/>
            </g>
            <g id="组_22115" data-name="组 22115" transform="translate(590.173 36.564)">
              <path id="路径_40107" data-name="路径 40107" d="M376.661,541.107,224.1,139.531l1.261-.631L377.922,540.476Z" transform="translate(-224.1 -138.9)"/>
            </g>
            <g id="组_22116" data-name="组 22116" transform="translate(441.745 405.549)">
              <rect id="矩形_2772" data-name="矩形 2772" width="1.891" height="302.601" transform="translate(0 1.881) rotate(-83.996)"/>
            </g>
            <g id="组_22117" data-name="组 22117" transform="translate(742.734)">
              <path id="路径_40108" data-name="路径 40108" d="M548.379,133.1,248.3,571.241l1.261.63L548.379,135.622Z" transform="translate(-248.3 -133.1)"/>
            </g>
            <g id="组_22118" data-name="组 22118" transform="translate(0 304.675)">
              <rect id="矩形_2773" data-name="矩形 2773" width="1.261" height="754.61" transform="translate(0 1.241) rotate(-79.81)"/>
            </g>
          </g>
        </g>
        <g id="组_22121" data-name="组 22121" transform="translate(62.717)">
          <path id="路径_40109" data-name="路径 40109" d="M71.76,118.234a8.183,8.183,0,1,1,5.674-10.087C78.694,111.929,76.173,116.973,71.76,118.234Z" transform="translate(364.184 208.017)"/>
          <path id="路径_40110" data-name="路径 40110" d="M145.46,104.734a8.183,8.183,0,1,1,5.674-10.087C151.764,99.06,149.242,103.473,145.46,104.734Z" transform="translate(755.102 136.411)"/>
          <path id="路径_40111" data-name="路径 40111" d="M71.76,118.234a8.183,8.183,0,1,1,5.674-10.087C78.694,111.929,76.173,116.973,71.76,118.234Z" transform="translate(364.184 208.017)"/>
          <path id="路径_40112" data-name="路径 40112" d="M145.46,104.734a8.183,8.183,0,1,1,5.674-10.087C151.764,99.06,149.242,103.473,145.46,104.734Z" transform="translate(755.102 136.411)"/>
          <path id="路径_40113" data-name="路径 40113" d="M145.46,104.734a8.183,8.183,0,1,1,5.674-10.087C151.764,99.06,149.242,103.473,145.46,104.734Z" transform="translate(755.102 136.411)"/>
          <path id="路径_40114" data-name="路径 40114" d="M147.36,74.234a8.183,8.183,0,1,1,5.674-10.087C154.294,67.929,151.773,72.973,147.36,74.234Z" transform="translate(765.18 -25.367)"/>
          <path id="路径_40115" data-name="路径 40115" d="M71.76,118.234a8.183,8.183,0,1,1,5.674-10.087C78.694,111.929,76.173,116.973,71.76,118.234Z" transform="translate(364.184 208.017)"/>
          <path id="路径_40116" data-name="路径 40116" d="M147.36,74.234a8.183,8.183,0,1,1,5.674-10.087C154.294,67.929,151.773,72.973,147.36,74.234Z" transform="translate(765.18 -25.367)"/>
          <path id="路径_40117" data-name="路径 40117" d="M71.76,118.234a8.183,8.183,0,1,1,5.674-10.087C78.694,111.929,76.173,116.973,71.76,118.234Z" transform="translate(364.184 208.017)"/>
          <path id="路径_40118" data-name="路径 40118" d="M147.36,74.234a8.183,8.183,0,1,1,5.674-10.087C154.294,67.929,151.773,72.973,147.36,74.234Z" transform="translate(765.18 -25.367)"/>
          <path id="路径_40119" data-name="路径 40119" d="M147.36,74.234a8.183,8.183,0,1,1,5.674-10.087C154.294,67.929,151.773,72.973,147.36,74.234Z" transform="translate(765.18 -25.367)"/>
          <path id="路径_40120" data-name="路径 40120" d="M123.56,90.734a8.183,8.183,0,1,1,5.674-10.087C130.494,84.429,127.973,89.473,123.56,90.734Z" transform="translate(638.94 62.152)"/>
          <path id="路径_40121" data-name="路径 40121" d="M145.46,104.734a8.183,8.183,0,1,1,5.674-10.087C151.764,99.06,149.242,103.473,145.46,104.734Z" transform="translate(755.102 136.411)"/>
          <path id="路径_40122" data-name="路径 40122" d="M123.56,90.734a8.183,8.183,0,1,1,5.674-10.087C130.494,84.429,127.973,89.473,123.56,90.734Z" transform="translate(638.94 62.152)"/>
          <path id="路径_40123" data-name="路径 40123" d="M71.76,118.234a8.183,8.183,0,1,1,5.674-10.087C78.694,111.929,76.173,116.973,71.76,118.234Z" transform="translate(364.184 208.017)"/>
          <path id="路径_40124" data-name="路径 40124" d="M123.56,90.734a8.183,8.183,0,1,1,5.674-10.087C130.494,84.429,127.973,89.473,123.56,90.734Z" transform="translate(638.94 62.152)"/>
          <path id="路径_40125" data-name="路径 40125" d="M71.76,118.234a8.183,8.183,0,1,1,5.674-10.087C78.694,111.929,76.173,116.973,71.76,118.234Z" transform="translate(364.184 208.017)"/>
          <path id="路径_40126" data-name="路径 40126" d="M123.56,90.734a8.183,8.183,0,1,1,5.674-10.087C130.494,84.429,127.973,89.473,123.56,90.734Z" transform="translate(638.94 62.152)"/>
          <path id="路径_40127" data-name="路径 40127" d="M71.76,118.234a8.183,8.183,0,1,1,5.674-10.087C78.694,111.929,76.173,116.973,71.76,118.234Z" transform="translate(364.184 208.017)"/>
          <path id="路径_40128" data-name="路径 40128" d="M71.76,118.234a8.183,8.183,0,1,1,5.674-10.087C78.694,111.929,76.173,116.973,71.76,118.234Z" transform="translate(364.184 208.017)"/>
          <path id="路径_40129" data-name="路径 40129" d="M4.26,110.834A8.1,8.1,0,0,1-5.827,105.16,8.1,8.1,0,0,1-.153,95.073a8.1,8.1,0,0,1,10.087,5.674C11.194,104.529,8.673,109.573,4.26,110.834Z" transform="translate(6.151 168.766)"/>
          <path id="路径_40130" data-name="路径 40130" d="M4.26,110.834A8.1,8.1,0,0,1-5.827,105.16,8.1,8.1,0,0,1-.153,95.073a8.1,8.1,0,0,1,10.087,5.674C11.194,104.529,8.673,109.573,4.26,110.834Z" transform="translate(6.151 168.766)"/>
          <path id="路径_40131" data-name="路径 40131" d="M123.56,90.734a8.183,8.183,0,1,1,5.674-10.087C130.494,84.429,127.973,89.473,123.56,90.734Z" transform="translate(638.94 62.152)"/>
          <path id="路径_40132" data-name="路径 40132" d="M4.26,110.834A8.1,8.1,0,0,1-5.827,105.16,8.1,8.1,0,0,1-.153,95.073a8.1,8.1,0,0,1,10.087,5.674C11.194,104.529,8.673,109.573,4.26,110.834Z" transform="translate(6.151 168.766)"/>
          <path id="路径_40133" data-name="路径 40133" d="M4.26,110.834A8.1,8.1,0,0,1-5.827,105.16,8.1,8.1,0,0,1-.153,95.073a8.1,8.1,0,0,1,10.087,5.674C11.194,104.529,8.673,109.573,4.26,110.834Z" transform="translate(6.151 168.766)"/>
          <path id="路径_40134" data-name="路径 40134" d="M71.76,118.234a8.183,8.183,0,1,1,5.674-10.087C78.694,111.929,76.173,116.973,71.76,118.234Z" transform="translate(364.184 208.017)"/>
          <path id="路径_40135" data-name="路径 40135" d="M4.26,110.834A8.1,8.1,0,0,1-5.827,105.16,8.1,8.1,0,0,1-.153,95.073a8.1,8.1,0,0,1,10.087,5.674C11.194,104.529,8.673,109.573,4.26,110.834Z" transform="translate(6.151 168.766)"/>
          <path id="路径_40136" data-name="路径 40136" d="M71.76,118.234a8.183,8.183,0,1,1,5.674-10.087C78.694,111.929,76.173,116.973,71.76,118.234Z" transform="translate(364.184 208.017)"/>
          <path id="路径_40137" data-name="路径 40137" d="M4.26,110.834A8.1,8.1,0,0,1-5.827,105.16,8.1,8.1,0,0,1-.153,95.073a8.1,8.1,0,0,1,10.087,5.674C11.194,104.529,8.673,109.573,4.26,110.834Z" transform="translate(6.151 168.766)"/>
          <path id="路径_40138" data-name="路径 40138" d="M123.56,90.734a8.183,8.183,0,1,1,5.674-10.087C130.494,84.429,127.973,89.473,123.56,90.734Z" transform="translate(638.94 62.152)"/>
          <path id="路径_40139" data-name="路径 40139" d="M139.66,196.234a8.183,8.183,0,1,1,5.674-10.087A8.1,8.1,0,0,1,139.66,196.234Z" transform="translate(724.337 621.743)"/>
          <path id="路径_40140" data-name="路径 40140" d="M147.36,74.234a8.183,8.183,0,1,1,5.674-10.087C154.294,67.929,151.773,72.973,147.36,74.234Z" transform="translate(765.18 -25.367)"/>
          <path id="路径_40141" data-name="路径 40141" d="M139.66,196.234a8.183,8.183,0,1,1,5.674-10.087A8.1,8.1,0,0,1,139.66,196.234Z" transform="translate(724.337 621.743)"/>
          <path id="路径_40142" data-name="路径 40142" d="M145.46,104.734a8.183,8.183,0,1,1,5.674-10.087C151.764,99.06,149.242,103.473,145.46,104.734Z" transform="translate(755.102 136.411)"/>
          <path id="路径_40143" data-name="路径 40143" d="M139.66,196.234a8.183,8.183,0,1,1,5.674-10.087A8.1,8.1,0,0,1,139.66,196.234Z" transform="translate(724.337 621.743)"/>
          <path id="路径_40144" data-name="路径 40144" d="M71.76,118.234a8.183,8.183,0,1,1,5.674-10.087C78.694,111.929,76.173,116.973,71.76,118.234Z" transform="translate(364.184 208.017)"/>
          <path id="路径_40145" data-name="路径 40145" d="M139.66,196.234a8.183,8.183,0,1,1,5.674-10.087A8.1,8.1,0,0,1,139.66,196.234Z" transform="translate(724.337 621.743)"/>
          <path id="路径_40146" data-name="路径 40146" d="M71.76,118.234a8.183,8.183,0,1,1,5.674-10.087C78.694,111.929,76.173,116.973,71.76,118.234Z" transform="translate(364.184 208.017)"/>
          <path id="路径_40147" data-name="路径 40147" d="M139.66,196.234a8.183,8.183,0,1,1,5.674-10.087A8.1,8.1,0,0,1,139.66,196.234Z" transform="translate(724.337 621.743)"/>
          <path id="路径_40148" data-name="路径 40148" d="M139.66,196.234a8.183,8.183,0,1,1,5.674-10.087A8.1,8.1,0,0,1,139.66,196.234Z" transform="translate(724.337 621.743)"/>
          <path id="路径_40149" data-name="路径 40149" d="M77.16,210.534a8.183,8.183,0,1,1,5.674-10.087A8.1,8.1,0,0,1,77.16,210.534Z" transform="translate(392.826 697.593)"/>
          <path id="路径_40150" data-name="路径 40150" d="M4.26,110.834A8.1,8.1,0,0,1-5.827,105.16,8.1,8.1,0,0,1-.153,95.073a8.1,8.1,0,0,1,10.087,5.674C11.194,104.529,8.673,109.573,4.26,110.834Z" transform="translate(6.151 168.766)"/>
          <path id="路径_40151" data-name="路径 40151" d="M77.16,210.534a8.183,8.183,0,1,1,5.674-10.087A8.1,8.1,0,0,1,77.16,210.534Z" transform="translate(392.826 697.593)"/>
          <path id="路径_40152" data-name="路径 40152" d="M77.16,210.534a8.183,8.183,0,1,1,5.674-10.087A8.1,8.1,0,0,1,77.16,210.534Z" transform="translate(392.826 697.593)"/>
          <path id="路径_40153" data-name="路径 40153" d="M123.56,90.734a8.183,8.183,0,1,1,5.674-10.087C130.494,84.429,127.973,89.473,123.56,90.734Z" transform="translate(638.94 62.152)"/>
          <path id="路径_40154" data-name="路径 40154" d="M77.16,210.534a8.183,8.183,0,1,1,5.674-10.087A8.1,8.1,0,0,1,77.16,210.534Z" transform="translate(392.826 697.593)"/>
          <path id="路径_40155" data-name="路径 40155" d="M145.46,104.734a8.183,8.183,0,1,1,5.674-10.087C151.764,99.06,149.242,103.473,145.46,104.734Z" transform="translate(755.102 136.411)"/>
          <path id="路径_40156" data-name="路径 40156" d="M77.16,210.534a8.183,8.183,0,1,1,5.674-10.087A8.1,8.1,0,0,1,77.16,210.534Z" transform="translate(392.826 697.593)"/>
          <path id="路径_40157" data-name="路径 40157" d="M71.76,118.234a8.183,8.183,0,1,1,5.674-10.087C78.694,111.929,76.173,116.973,71.76,118.234Z" transform="translate(364.184 208.017)"/>
          <path id="路径_40158" data-name="路径 40158" d="M77.16,210.534a8.183,8.183,0,1,1,5.674-10.087A8.1,8.1,0,0,1,77.16,210.534Z" transform="translate(392.826 697.593)"/>
          <path id="路径_40159" data-name="路径 40159" d="M71.76,118.234a8.183,8.183,0,1,1,5.674-10.087C78.694,111.929,76.173,116.973,71.76,118.234Z" transform="translate(364.184 208.017)"/>
          <path id="路径_40160" data-name="路径 40160" d="M77.16,210.534a8.183,8.183,0,1,1,5.674-10.087A8.1,8.1,0,0,1,77.16,210.534Z" transform="translate(392.826 697.593)"/>
          <path id="路径_40161" data-name="路径 40161" d="M211.16,69.034a8.183,8.183,0,1,1,5.674-10.087A8.1,8.1,0,0,1,211.16,69.034Z" transform="translate(1103.586 -52.949)"/>
          <path id="路径_40162" data-name="路径 40162" d="M123.56,90.734a8.183,8.183,0,1,1,5.674-10.087C130.494,84.429,127.973,89.473,123.56,90.734Z" transform="translate(638.94 62.152)"/>
          <path id="路径_40163" data-name="路径 40163" d="M211.16,69.034a8.183,8.183,0,1,1,5.674-10.087A8.1,8.1,0,0,1,211.16,69.034Z" transform="translate(1103.586 -52.949)"/>
          <path id="路径_40164" data-name="路径 40164" d="M147.36,74.234a8.183,8.183,0,1,1,5.674-10.087C154.294,67.929,151.773,72.973,147.36,74.234Z" transform="translate(765.18 -25.367)"/>
          <path id="路径_40165" data-name="路径 40165" d="M211.16,69.034a8.183,8.183,0,1,1,5.674-10.087A8.1,8.1,0,0,1,211.16,69.034Z" transform="translate(1103.586 -52.949)"/>
          <path id="路径_40166" data-name="路径 40166" d="M145.46,104.734a8.183,8.183,0,1,1,5.674-10.087C151.764,99.06,149.242,103.473,145.46,104.734Z" transform="translate(755.102 136.411)"/>
          <path id="路径_40167" data-name="路径 40167" d="M211.16,69.034a8.183,8.183,0,1,1,5.674-10.087A8.1,8.1,0,0,1,211.16,69.034Z" transform="translate(1103.586 -52.949)"/>
          <path id="路径_40168" data-name="路径 40168" d="M139.66,196.234a8.183,8.183,0,1,1,5.674-10.087A8.1,8.1,0,0,1,139.66,196.234Z" transform="translate(724.337 621.743)"/>
          <path id="路径_40169" data-name="路径 40169" d="M209.76,212.434a8.183,8.183,0,1,1,5.674-10.087A8.1,8.1,0,0,1,209.76,212.434Z" transform="translate(1096.16 707.671)"/>
          <path id="路径_40170" data-name="路径 40170" d="M145.46,104.734a8.183,8.183,0,1,1,5.674-10.087C151.764,99.06,149.242,103.473,145.46,104.734Z" transform="translate(755.102 136.411)"/>
          <path id="路径_40171" data-name="路径 40171" d="M209.76,212.434a8.183,8.183,0,1,1,5.674-10.087A8.1,8.1,0,0,1,209.76,212.434Z" transform="translate(1096.16 707.671)"/>
          <path id="路径_40172" data-name="路径 40172" d="M209.76,212.434a8.183,8.183,0,1,1,5.674-10.087A8.1,8.1,0,0,1,209.76,212.434Z" transform="translate(1096.16 707.671)"/>
          <path id="路径_40173" data-name="路径 40173" d="M233.36,153.733a8.183,8.183,0,1,1,5.674-10.087A8.1,8.1,0,0,1,233.36,153.733Z" transform="translate(1221.339 396.315)"/>
          <path id="路径_40174" data-name="路径 40174" d="M211.16,69.034a8.183,8.183,0,1,1,5.674-10.087A8.1,8.1,0,0,1,211.16,69.034Z" transform="translate(1103.586 -52.949)"/>
          <path id="路径_40175" data-name="路径 40175" d="M233.36,153.733a8.183,8.183,0,1,1,5.674-10.087A8.1,8.1,0,0,1,233.36,153.733Z" transform="translate(1221.339 396.315)"/>
          <path id="路径_40176" data-name="路径 40176" d="M233.36,153.733a8.183,8.183,0,1,1,5.674-10.087A8.1,8.1,0,0,1,233.36,153.733Z" transform="translate(1221.339 396.315)"/>
          <path id="路径_40177" data-name="路径 40177" d="M139.66,196.234a8.183,8.183,0,1,1,5.674-10.087A8.1,8.1,0,0,1,139.66,196.234Z" transform="translate(724.337 621.743)"/>
          <path id="路径_40178" data-name="路径 40178" d="M233.36,153.733a8.183,8.183,0,1,1,5.674-10.087A8.1,8.1,0,0,1,233.36,153.733Z" transform="translate(1221.339 396.315)"/>
          <path id="路径_40179" data-name="路径 40179" d="M123.56,90.734a8.183,8.183,0,1,1,5.674-10.087C130.494,84.429,127.973,89.473,123.56,90.734Z" transform="translate(638.94 62.152)"/>
          <path id="路径_40180" data-name="路径 40180" d="M233.36,153.733a8.183,8.183,0,1,1,5.674-10.087A8.1,8.1,0,0,1,233.36,153.733Z" transform="translate(1221.339 396.315)"/>
          <path id="路径_40181" data-name="路径 40181" d="M147.36,74.234a8.183,8.183,0,1,1,5.674-10.087C154.294,67.929,151.773,72.973,147.36,74.234Z" transform="translate(765.18 -25.367)"/>
          <path id="路径_40182" data-name="路径 40182" d="M233.36,153.733a8.183,8.183,0,1,1,5.674-10.087A8.1,8.1,0,0,1,233.36,153.733Z" transform="translate(1221.339 396.315)"/>
          <path id="路径_40183" data-name="路径 40183" d="M145.46,104.734a8.183,8.183,0,1,1,5.674-10.087C151.764,99.06,149.242,103.473,145.46,104.734Z" transform="translate(755.102 136.411)"/>
          <path id="路径_40184" data-name="路径 40184" d="M233.36,153.733a8.183,8.183,0,1,1,5.674-10.087A8.1,8.1,0,0,1,233.36,153.733Z" transform="translate(1221.339 396.315)"/>
          <path id="路径_40185" data-name="路径 40185" d="M233.36,153.733a8.183,8.183,0,1,1,5.674-10.087A8.1,8.1,0,0,1,233.36,153.733Z" transform="translate(1221.339 396.315)"/>
          <path id="路径_40186" data-name="路径 40186" d="M257.46,217.434a8.183,8.183,0,1,1,5.674-10.087A8.1,8.1,0,0,1,257.46,217.434Z" transform="translate(1349.17 734.192)"/>
          <path id="路径_40187" data-name="路径 40187" d="M233.36,153.733a8.183,8.183,0,1,1,5.674-10.087A8.1,8.1,0,0,1,233.36,153.733Z" transform="translate(1221.339 396.315)"/>
          <path id="路径_40188" data-name="路径 40188" d="M257.46,217.434a8.183,8.183,0,1,1,5.674-10.087A8.1,8.1,0,0,1,257.46,217.434Z" transform="translate(1349.17 734.192)"/>
          <path id="路径_40189" data-name="路径 40189" d="M209.76,212.434a8.183,8.183,0,1,1,5.674-10.087A8.1,8.1,0,0,1,209.76,212.434Z" transform="translate(1096.16 707.671)"/>
          <path id="路径_40190" data-name="路径 40190" d="M257.46,217.434a8.183,8.183,0,1,1,5.674-10.087A8.1,8.1,0,0,1,257.46,217.434Z" transform="translate(1349.17 734.192)"/>
          <path id="路径_40191" data-name="路径 40191" d="M257.46,217.434a8.183,8.183,0,1,1,5.674-10.087A8.1,8.1,0,0,1,257.46,217.434Z" transform="translate(1349.17 734.192)"/>
          <path id="路径_40192" data-name="路径 40192" d="M139.66,196.234a8.183,8.183,0,1,1,5.674-10.087A8.1,8.1,0,0,1,139.66,196.234Z" transform="translate(724.337 621.743)"/>
        </g>
      </g>
    </g>
    <path id="路径_40308" data-name="路径 40308" d="M39,4.57V-20.643H27.549V-26H39V-44.408h6.246V4.57ZM29.91-40.193A36.068,36.068,0,0,1,23.6-19.944,45.519,45.519,0,0,1,7.541-5.814L2.818-10.867a31.082,31.082,0,0,0,8.849-5.192,32.683,32.683,0,0,0,6.894-7.452L5.154-22.141,2.92-27.727l18.51-1.143a28.43,28.43,0,0,0,1.65-5.967H5.764v-5.357Zm63.6,16.961v-19.4H124.79v19.4Zm24.959-14.041H99.882v8.734h18.586ZM97.749,4.52V-12.492H86.475v-5.332h45.449v5.332H120.651V4.52h-6.4V-12.492H104.147V4.52ZM203.8,4.57V-44.408h6.271V4.57Zm-2.92-15.742Q195.65-9.8,184.2-9.8l-11.045-.076v-31h6.3v25.645q9.674,0,13.33-.178a56.6,56.6,0,0,0,7.414-.863ZM287.559,4.57V-44.408h6.246V4.57ZM282.836-9.877q-5.154.584-9.661.686t-17.481.1V-40.143H280.17v5.357H261.914v6.449h15.971v5.307H261.914V-14.4h2.539a152,152,0,0,0,18-.736Zm53.239,7.846V-7.338h19.551v-6.855h-13.1V-29.961h25.949v-4.926H342.626v-5.256h32.246v15.285H348.923v5.408h27.244v5.256H361.974v6.855h19.551v5.307Zm84.292-31.764v-5.357h12.061v-5.611h6.4v5.611h12.061v5.357ZM455.152,4.57V-44.408h6.4V4.57Zm-1.7-7.846q-13.635.787-35.064.787l-.609-5.307,14.65-.1V-13a12.537,12.537,0,0,1-7.008-3.288,8.37,8.37,0,0,1-2.514-6.132,8.429,8.429,0,0,1,3.491-6.97q3.491-2.7,9.255-2.7,5.916,0,9.28,2.6a8.262,8.262,0,0,1,3.364,6.868,8.691,8.691,0,0,1-2.476,6.157,12.147,12.147,0,0,1-7,3.415v5q11.1-.254,14.193-.533Zm-17.8-23.562a7.533,7.533,0,0,0-4.608,1.295,3.846,3.846,0,0,0-1.739,3.174,3.739,3.739,0,0,0,1.7,3.123A7.723,7.723,0,0,0,435.652-18a7.723,7.723,0,0,0,4.621-1.219,3.733,3.733,0,0,0,1.676-3.148,3.851,3.851,0,0,0-1.663-3.225A7.6,7.6,0,0,0,435.652-26.838ZM537.616,4.57V-44.408h6.348V4.57Zm-21.988-1.93V-18.1q-5.941.152-13,.152l-.609-5.357q7.109,0,21.785-.254a131.377,131.377,0,0,0,.711-13.609H506.639V-42.58h24.172q0,7.287-.99,18.814l6.094-.3.3,5.307q-6.627.381-14.244.508v20.9Zm109.5-20.414V4.57h-6.373V-44.408h6.373v21.277H632.8v5.357ZM586.31-32.3v-5.357h11.73v-6.754h6.449v6.754h11.756V-32.3ZM601.164-6.8a13.31,13.31,0,0,1-9.242-3.237,10.557,10.557,0,0,1-3.605-8.214,10.719,10.719,0,0,1,3.555-8.341,13.4,13.4,0,0,1,9.344-3.212,13.487,13.487,0,0,1,9.344,3.225,10.716,10.716,0,0,1,3.605,8.379,10.469,10.469,0,0,1-3.605,8.2A13.627,13.627,0,0,1,601.164-6.8Zm.051-17.646a6.645,6.645,0,0,0-4.773,1.688,5.925,5.925,0,0,0-1.777,4.507,5.853,5.853,0,0,0,1.752,4.393,6.6,6.6,0,0,0,4.8,1.7,6.638,6.638,0,0,0,4.812-1.727,5.81,5.81,0,0,0,1.79-4.367,5.922,5.922,0,0,0-1.79-4.481A6.667,6.667,0,0,0,601.214-24.451Zm92.721,10.715a11.271,11.271,0,0,1-10.562,6.4,11.187,11.187,0,0,1-9.293-4.558q-3.529-4.558-3.529-12.429,0-8,3.517-12.479a11.245,11.245,0,0,1,9.306-4.481,11.271,11.271,0,0,1,10.563,6.4H704.6v-9.521h6.246V4.57H704.6V-13.736ZM683.373-35.877q-2.869,0-4.761,3.11t-1.892,8.493a15.923,15.923,0,0,0,1.942,8.442q1.942,3.136,4.71,3.136,2.818,0,4.773-3.136a15.84,15.84,0,0,0,1.955-8.442,16.428,16.428,0,0,0-1.879-8.455Q686.344-35.877,683.373-35.877Zm12.441,16.783H704.6V-29.529h-8.785a27.2,27.2,0,0,1,.457,5.205A27.859,27.859,0,0,1,695.815-19.094Zm66.557,9.942H754.78V-1.56H759.1c-.052,3.224-.78,4.16-3.9,5.044l1.82,2.756c4.212-1.664,5.356-3.328,5.356-7.8ZM287.61,94.57V45.592h6.246V94.57Zm-7.49-44.662a36.061,36.061,0,0,1-5.929,19.36A43.98,43.98,0,0,1,258.03,83.855l-4.9-4.621a32.8,32.8,0,0,0,13.229-9.5,29.227,29.227,0,0,0,7.008-14.473H256.1V49.908Zm61.212,2.133V46.684h34.938v5.357Zm-5.256,22.725V69.408h19.5V65.346H340.7V60.039h6.7l-.457-6.7h6.3l.355,6.7h10.359l.406-6.7h6.3l-.457,6.7h6.652v5.307H361.974v4.063h19.551v5.357Zm32.4,19.8V83.043H342.118V77.686h32.754V94.57Z" transform="translate(6536 -3086)"/>
    <path id="路径_40309" data-name="路径 40309" d="M38.01,82.814V79.285H28.539V74.359H38.01V45.592h6.4V82.814ZM19.551,64.457a15.67,15.67,0,0,1-9.179-2.463,7.607,7.607,0,0,1-3.517-6.525,7.518,7.518,0,0,1,3.567-6.5,15.844,15.844,0,0,1,9.128-2.437q5.713,0,9.179,2.4a7.852,7.852,0,0,1-.076,13.076A15.66,15.66,0,0,1,19.551,64.457Zm0-13a8.113,8.113,0,0,0-4.634,1.168A3.39,3.39,0,0,0,13.2,55.469a3.441,3.441,0,0,0,1.676,2.895,8.078,8.078,0,0,0,4.672,1.168A7.969,7.969,0,0,0,24.2,58.338a3.455,3.455,0,0,0,1.7-2.869,3.365,3.365,0,0,0-1.638-2.907A8.4,8.4,0,0,0,19.551,51.457ZM35.572,71.236q-5.586.381-11.172.609V82.053h-6.2V72.1q-8.354.33-13.889.33l-.889-5.51q17.926,0,31.713-.939ZM10.664,93.021V77.889h6.348v9.775H45.6v5.357Zm111.282-19.7V61.512h-9.217V56.307h9.217V45.592h6.246V73.318Zm-9.369-1.27a27.3,27.3,0,0,1-10.918-8.937,20.347,20.347,0,0,1-4.634,5.929,26.284,26.284,0,0,1-6.437,4.685l-4.52-4.469a20.668,20.668,0,0,0,8.671-6.221,13.626,13.626,0,0,0,3.542-8.76V52.93H88.2V47.623h26.3V52.93H104.68v1.143a11.279,11.279,0,0,0,3.288,7.871,20.056,20.056,0,0,0,8.671,5.281ZM96.555,93.529V75.375h31.637V93.529ZM122,80.682H102.8v7.541H122Zm70.4-17.773q-7.795,0-12.162-2.349t-4.367-6.284q0-3.986,4.393-6.31T192.4,45.643q7.795,0,12.162,2.3t4.367,6.335q0,3.961-4.342,6.3T192.4,62.908Zm0-12.416a19.975,19.975,0,0,0-7.528,1.079q-2.5,1.079-2.5,2.7,0,1.7,2.539,2.755a27.149,27.149,0,0,0,14.98,0q2.539-1.054,2.539-2.755,0-1.625-2.5-2.7A19.975,19.975,0,0,0,192.4,50.492ZM169.675,70.6v-5h45.449v5Zm6.652,23.182V81.57h25.746V78.6H176.328V73.623h32.094V85.988H182.675v2.818h26.939v4.977Z" transform="translate(6536 -3086)" fill="#0080f4"/>
  </g>
</svg>
