<svg xmlns="http://www.w3.org/2000/svg" xmlns:xlink="http://www.w3.org/1999/xlink" width="1820" height="880" viewBox="0 0 1820 880">
  <defs>
    <clipPath id="clip-path">
      <rect id="矩形_2747" data-name="矩形 2747" width="1820" height="880" fill="#fff"/>
    </clipPath>
    <clipPath id="clip-path-2">
      <rect id="矩形_2279" data-name="矩形 2279" width="1820" height="880" transform="translate(50 160)" fill="#fff"/>
    </clipPath>
  </defs>
  <g id="banner_jp" transform="translate(-50 -89)">
    <g id="NAV_bg" transform="translate(50 89)" clip-path="url(#clip-path)">
      <g id="组_22059" data-name="组 22059" transform="translate(-50 27)" opacity="0.05">
        <g id="组_22057" data-name="组 22057" transform="translate(0 7.733)">
          <g id="组_21999" data-name="组 21999" transform="translate(496.006 224.522)">
            <g id="组_21997" data-name="组 21997" transform="translate(0 0)">
              <rect id="矩形_2721" data-name="矩形 2721" width="472.183" height="1.891" transform="translate(0 84.71) rotate(-10.335)"/>
            </g>
            <g id="组_21998" data-name="组 21998" transform="translate(0 0)">
              <rect id="矩形_2722" data-name="矩形 2722" width="472.183" height="1.891" transform="translate(0 84.71) rotate(-10.335)"/>
            </g>
          </g>
          <g id="组_22003" data-name="组 22003" transform="translate(496.139 32.308)">
            <g id="组_22000" data-name="组 22000" transform="translate(464.098 0.366)">
              <rect id="矩形_2723" data-name="矩形 2723" width="192.908" height="1.261" transform="matrix(0.063, -0.998, 0.998, 0.063, 0, 192.522)"/>
            </g>
            <g id="组_22001" data-name="组 22001" transform="translate(0)">
              <path id="路径_39980" data-name="路径 39980" d="M63.23,337.945l-.63-1.261L538.566,59.3l1.261,1.261Z" transform="translate(-62.6 -59.3)"/>
            </g>
            <g id="组_22002" data-name="组 22002" transform="translate(0)">
              <path id="路径_39981" data-name="路径 39981" d="M63.23,337.945l-.63-1.261L538.566,59.3l1.261,1.261Z" transform="translate(-62.6 -59.3)"/>
            </g>
          </g>
          <g id="组_22008" data-name="组 22008" transform="translate(495.837 32.165)">
            <g id="组_22004" data-name="组 22004" transform="translate(326.765 0)">
              <rect id="矩形_2724" data-name="矩形 2724" width="182.191" height="1.261" transform="translate(0 104.013) rotate(-34.814)"/>
            </g>
            <g id="组_22005" data-name="组 22005" transform="translate(327.17 104.435)">
              <rect id="矩形_2725" data-name="矩形 2725" width="1.261" height="163.278" transform="matrix(0.54, -0.841, 0.841, 0.54, 0, 1.061)"/>
            </g>
            <g id="组_22006" data-name="组 22006" transform="translate(0 103.907)">
              <rect id="矩形_2726" data-name="矩形 2726" width="370.055" height="1.261" transform="translate(0 173.556) rotate(-27.969)"/>
            </g>
            <g id="组_22007" data-name="组 22007" transform="translate(0 103.907)">
              <rect id="矩形_2727" data-name="矩形 2727" width="370.055" height="1.261" transform="translate(0 173.556) rotate(-27.969)"/>
            </g>
          </g>
          <g id="组_22011" data-name="组 22011" transform="translate(0 309.692)">
            <g id="组_22009" data-name="组 22009">
              <path id="路径_39982" data-name="路径 39982" d="M-16.1,576.113,480.669,104.561l-.63-1.261L-16.1,574.222Z" transform="translate(16.1 -103.3)"/>
            </g>
            <g id="组_22010" data-name="组 22010">
              <path id="路径_39983" data-name="路径 39983" d="M-16.1,576.113,480.669,104.561l-.63-1.261L-16.1,574.222Z" transform="translate(16.1 -103.3)"/>
            </g>
          </g>
          <g id="组_22018" data-name="组 22018" transform="translate(0 136.327)">
            <g id="组_22012" data-name="组 22012" transform="translate(0 127.344)">
              <path id="路径_39984" data-name="路径 39984" d="M-16.1,493.163,55.768,96H53.876L-16.1,484.337Z" transform="translate(16.1 -96)"/>
            </g>
            <g id="组_22013" data-name="组 22013" transform="translate(0 115.366)">
              <path id="路径_39985" data-name="路径 39985" d="M-16.1,94.1v1.261l70.607,11.347.63-1.261Z" transform="translate(16.1 -94.1)"/>
            </g>
            <g id="组_22014" data-name="组 22014" transform="translate(70.607)">
              <path id="路径_39986" data-name="路径 39986" d="M-4.27,203.775l-.63-1.261L747.819,75.8v1.261Z" transform="translate(4.9 -75.8)"/>
            </g>
            <g id="组_22015" data-name="组 22015" transform="translate(0 126.714)">
              <path id="路径_39987" data-name="路径 39987" d="M-16.1,143.181,55.137,97.161l-.63-1.261L-16.1,141.29Z" transform="translate(16.1 -95.9)"/>
            </g>
            <g id="组_22016" data-name="组 22016" transform="translate(71.065 126.796)">
              <rect id="矩形_2728" data-name="矩形 2728" width="1.261" height="428.054" transform="translate(0 1.253) rotate(-83.754)"/>
            </g>
            <g id="组_22017" data-name="组 22017" transform="translate(71.065 126.796)">
              <rect id="矩形_2729" data-name="矩形 2729" width="1.261" height="428.054" transform="translate(0 1.253) rotate(-83.754)"/>
            </g>
          </g>
          <g id="组_22024" data-name="组 22024" transform="translate(495.939 33.135)">
            <g id="组_22019" data-name="组 22019" transform="translate(326.126 103.822)">
              <path id="路径_39988" data-name="路径 39988" d="M215.8,741.621,114.3,75.9h1.891L217.058,741.621Z" transform="translate(-114.3 -75.9)"/>
            </g>
            <g id="组_22020" data-name="组 22020" transform="translate(427.475 0)">
              <rect id="矩形_2730" data-name="矩形 2730" width="771.001" height="1.261" transform="translate(0 769.459) rotate(-86.406)"/>
            </g>
            <g id="组_22021" data-name="组 22021" transform="translate(427.648 192.686)">
              <rect id="矩形_2731" data-name="矩形 2731" width="578.093" height="1.261" transform="translate(0 576.937) rotate(-86.392)"/>
            </g>
            <g id="组_22022" data-name="组 22022" transform="translate(0 276.653)">
              <rect id="矩形_2732" data-name="矩形 2732" width="1.261" height="652.483" transform="matrix(0.755, -0.656, 0.656, 0.755, 0, 0.827)"/>
            </g>
            <g id="组_22023" data-name="组 22023" transform="translate(0 276.653)">
              <rect id="矩形_2733" data-name="矩形 2733" width="1.261" height="652.483" transform="matrix(0.755, -0.656, 0.656, 0.755, 0, 0.827)"/>
            </g>
          </g>
          <g id="组_22032" data-name="组 22032" transform="translate(0 136.728)">
            <g id="组_22025" data-name="组 22025" transform="translate(529.871 665.909)">
              <rect id="矩形_2734" data-name="矩形 2734" width="404.098" height="1.891" transform="matrix(0.976, -0.219, 0.219, 0.976, 0, 88.336)"/>
            </g>
            <g id="组_22026" data-name="组 22026" transform="translate(69.976 126.313)">
              <path id="路径_39989" data-name="路径 39989" d="M454.575,725.688-5,97.161-3.739,95.9,455.836,725.057Z" transform="translate(5 -95.9)"/>
            </g>
            <g id="组_22027" data-name="组 22027" transform="translate(0 674.146)">
              <path id="路径_39990" data-name="路径 39990" d="M-16.1,182.8v1.261l530.182,81.324v-1.891Z" transform="translate(16.1 -182.8)"/>
            </g>
            <g id="组_22028" data-name="组 22028" transform="translate(529.561)">
              <rect id="矩形_2735" data-name="矩形 2735" width="810.087" height="1.891" transform="translate(0 755.406) rotate(-68.826)"/>
            </g>
            <g id="组_22029" data-name="组 22029" transform="translate(529.551 88.488)">
              <path id="路径_39991" data-name="路径 39991" d="M69.161,757.513l-1.261-.63L498.476,89.9l1.261.63Z" transform="translate(-67.9 -89.9)"/>
            </g>
            <g id="组_22030" data-name="组 22030" transform="translate(495.627 173.374)">
              <rect id="矩形_2736" data-name="矩形 2736" width="1.891" height="583.137" transform="matrix(0.998, -0.058, 0.058, 0.998, 0, 0.11)"/>
            </g>
            <g id="组_22031" data-name="组 22031" transform="translate(495.627 173.374)">
              <rect id="矩形_2737" data-name="矩形 2737" width="1.891" height="583.137" transform="matrix(0.998, -0.058, 0.058, 0.998, 0, 0.11)"/>
            </g>
          </g>
          <g id="组_22037" data-name="组 22037" transform="translate(822.695 0)">
            <g id="组_22033" data-name="组 22033" transform="translate(552.246 0.157)">
              <path id="路径_39992" data-name="路径 39992" d="M793.962,371.3,202.63,54.2,202,55.461l591.962,317.1Z" transform="translate(-202 -54.2)"/>
            </g>
            <g id="组_22034" data-name="组 22034" transform="translate(0 0.157)">
              <path id="路径_39993" data-name="路径 39993" d="M115.03,191.631l-.63-1.261L666.646,54.2l.63,1.261Z" transform="translate(-114.4 -54.2)"/>
            </g>
            <g id="组_22035" data-name="组 22035" transform="translate(150.039 0.157)">
              <path id="路径_39994" data-name="路径 39994" d="M138.2,87.612V86.351L540.407,54.2l.63,1.261Z" transform="translate(-138.2 -54.2)"/>
            </g>
            <g id="组_22036" data-name="组 22036" transform="translate(137.898)">
              <rect id="矩形_2738" data-name="矩形 2738" width="471.553" height="1.261" transform="matrix(0.879, -0.477, 0.477, 0.879, 0, 224.789)"/>
            </g>
          </g>
          <g id="组_22040" data-name="组 22040" transform="translate(924.193 225.193)">
            <g id="组_22038" data-name="组 22038" transform="translate(0 576.855)">
              <path id="路径_39995" data-name="路径 39995" d="M572.423,284.789,130.5,182.661V181.4L572.423,282.9Z" transform="translate(-130.5 -181.4)"/>
            </g>
            <g id="组_22039" data-name="组 22039" transform="translate(35.844 0)">
              <rect id="矩形_2739" data-name="矩形 2739" width="1.891" height="791.175" transform="translate(0 0.97) rotate(-30.843)"/>
            </g>
          </g>
          <g id="组_22048" data-name="组 22048" transform="translate(822.695 0.025)">
            <g id="组_22041" data-name="组 22041" transform="translate(542.664 534.601)">
              <rect id="矩形_2740" data-name="矩形 2740" width="398.424" height="1.891" transform="matrix(0.374, -0.927, 0.927, 0.374, 0, 369.459)"/>
            </g>
            <g id="组_22042" data-name="组 22042" transform="translate(551.651 0)">
              <rect id="矩形_2741" data-name="矩形 2741" width="1.891" height="552.246" transform="matrix(0.967, -0.253, 0.253, 0.967, 0, 0.479)"/>
            </g>
            <g id="组_22043" data-name="组 22043" transform="translate(692.199 393.513)">
              <path id="路径_39996" data-name="路径 39996" d="M676.21,116.6,224.2,257.183v1.261L676.21,118.491Z" transform="translate(-224.2 -116.6)"/>
            </g>
            <g id="组_22044" data-name="组 22044" transform="translate(101.262 533.511)">
              <rect id="矩形_2742" data-name="矩形 2742" width="648.7" height="1.261" transform="translate(0 268.627) rotate(-24.463)"/>
            </g>
            <g id="组_22045" data-name="组 22045" transform="translate(0 136.302)">
              <path id="路径_39997" data-name="路径 39997" d="M805.968,474.855,114.4,77.061l.63-1.261,692.2,397.794Z" transform="translate(-114.4 -75.8)"/>
            </g>
            <g id="组_22046" data-name="组 22046" transform="translate(149.585 32.046)">
              <rect id="矩形_2743" data-name="矩形 2743" width="1.891" height="738.85" transform="translate(0 1.388) rotate(-47.229)"/>
            </g>
            <g id="组_22047" data-name="组 22047" transform="translate(137.402 224.553)">
              <rect id="矩形_2744" data-name="矩形 2744" width="1.891" height="634.831" transform="translate(0 1.652) rotate(-60.849)"/>
            </g>
          </g>
          <g id="组_22050" data-name="组 22050" transform="translate(1514.894 534.12)">
            <g id="组_22049" data-name="组 22049">
              <path id="路径_39998" data-name="路径 39998" d="M676.21,256.788,224.2,138.9v1.261L676.21,258.679Z" transform="translate(-224.2 -138.9)"/>
            </g>
          </g>
          <g id="组_22056" data-name="组 22056" transform="translate(924.091 497.556)">
            <g id="组_22051" data-name="组 22051" transform="translate(742.734 341.056)">
              <path id="路径_39999" data-name="路径 39999" d="M548.379,187.2,248.3,283.654l.63,1.891,299.448-96.454Z" transform="translate(-248.3 -187.2)"/>
            </g>
            <g id="组_22052" data-name="组 22052" transform="translate(590.173 36.564)">
              <path id="路径_40000" data-name="路径 40000" d="M376.661,541.107,224.1,139.531l1.261-.631L377.922,540.476Z" transform="translate(-224.1 -138.9)"/>
            </g>
            <g id="组_22053" data-name="组 22053" transform="translate(441.745 405.549)">
              <rect id="矩形_2745" data-name="矩形 2745" width="1.891" height="302.601" transform="translate(0 1.881) rotate(-83.996)"/>
            </g>
            <g id="组_22054" data-name="组 22054" transform="translate(742.734)">
              <path id="路径_40001" data-name="路径 40001" d="M548.379,133.1,248.3,571.241l1.261.63L548.379,135.622Z" transform="translate(-248.3 -133.1)"/>
            </g>
            <g id="组_22055" data-name="组 22055" transform="translate(0 304.675)">
              <rect id="矩形_2746" data-name="矩形 2746" width="1.261" height="754.61" transform="translate(0 1.241) rotate(-79.81)"/>
            </g>
          </g>
        </g>
        <g id="组_22058" data-name="组 22058" transform="translate(62.717)">
          <path id="路径_40002" data-name="路径 40002" d="M71.76,118.234a8.183,8.183,0,1,1,5.674-10.087C78.694,111.929,76.173,116.973,71.76,118.234Z" transform="translate(364.184 208.017)"/>
          <path id="路径_40003" data-name="路径 40003" d="M145.46,104.734a8.183,8.183,0,1,1,5.674-10.087C151.764,99.06,149.242,103.473,145.46,104.734Z" transform="translate(755.102 136.411)"/>
          <path id="路径_40004" data-name="路径 40004" d="M71.76,118.234a8.183,8.183,0,1,1,5.674-10.087C78.694,111.929,76.173,116.973,71.76,118.234Z" transform="translate(364.184 208.017)"/>
          <path id="路径_40005" data-name="路径 40005" d="M145.46,104.734a8.183,8.183,0,1,1,5.674-10.087C151.764,99.06,149.242,103.473,145.46,104.734Z" transform="translate(755.102 136.411)"/>
          <path id="路径_40006" data-name="路径 40006" d="M145.46,104.734a8.183,8.183,0,1,1,5.674-10.087C151.764,99.06,149.242,103.473,145.46,104.734Z" transform="translate(755.102 136.411)"/>
          <path id="路径_40007" data-name="路径 40007" d="M147.36,74.234a8.183,8.183,0,1,1,5.674-10.087C154.294,67.929,151.773,72.973,147.36,74.234Z" transform="translate(765.18 -25.367)"/>
          <path id="路径_40008" data-name="路径 40008" d="M71.76,118.234a8.183,8.183,0,1,1,5.674-10.087C78.694,111.929,76.173,116.973,71.76,118.234Z" transform="translate(364.184 208.017)"/>
          <path id="路径_40009" data-name="路径 40009" d="M147.36,74.234a8.183,8.183,0,1,1,5.674-10.087C154.294,67.929,151.773,72.973,147.36,74.234Z" transform="translate(765.18 -25.367)"/>
          <path id="路径_40010" data-name="路径 40010" d="M71.76,118.234a8.183,8.183,0,1,1,5.674-10.087C78.694,111.929,76.173,116.973,71.76,118.234Z" transform="translate(364.184 208.017)"/>
          <path id="路径_40011" data-name="路径 40011" d="M147.36,74.234a8.183,8.183,0,1,1,5.674-10.087C154.294,67.929,151.773,72.973,147.36,74.234Z" transform="translate(765.18 -25.367)"/>
          <path id="路径_40012" data-name="路径 40012" d="M147.36,74.234a8.183,8.183,0,1,1,5.674-10.087C154.294,67.929,151.773,72.973,147.36,74.234Z" transform="translate(765.18 -25.367)"/>
          <path id="路径_40013" data-name="路径 40013" d="M123.56,90.734a8.183,8.183,0,1,1,5.674-10.087C130.494,84.429,127.973,89.473,123.56,90.734Z" transform="translate(638.94 62.152)"/>
          <path id="路径_40014" data-name="路径 40014" d="M145.46,104.734a8.183,8.183,0,1,1,5.674-10.087C151.764,99.06,149.242,103.473,145.46,104.734Z" transform="translate(755.102 136.411)"/>
          <path id="路径_40015" data-name="路径 40015" d="M123.56,90.734a8.183,8.183,0,1,1,5.674-10.087C130.494,84.429,127.973,89.473,123.56,90.734Z" transform="translate(638.94 62.152)"/>
          <path id="路径_40016" data-name="路径 40016" d="M71.76,118.234a8.183,8.183,0,1,1,5.674-10.087C78.694,111.929,76.173,116.973,71.76,118.234Z" transform="translate(364.184 208.017)"/>
          <path id="路径_40017" data-name="路径 40017" d="M123.56,90.734a8.183,8.183,0,1,1,5.674-10.087C130.494,84.429,127.973,89.473,123.56,90.734Z" transform="translate(638.94 62.152)"/>
          <path id="路径_40018" data-name="路径 40018" d="M71.76,118.234a8.183,8.183,0,1,1,5.674-10.087C78.694,111.929,76.173,116.973,71.76,118.234Z" transform="translate(364.184 208.017)"/>
          <path id="路径_40019" data-name="路径 40019" d="M123.56,90.734a8.183,8.183,0,1,1,5.674-10.087C130.494,84.429,127.973,89.473,123.56,90.734Z" transform="translate(638.94 62.152)"/>
          <path id="路径_40020" data-name="路径 40020" d="M71.76,118.234a8.183,8.183,0,1,1,5.674-10.087C78.694,111.929,76.173,116.973,71.76,118.234Z" transform="translate(364.184 208.017)"/>
          <path id="路径_40021" data-name="路径 40021" d="M71.76,118.234a8.183,8.183,0,1,1,5.674-10.087C78.694,111.929,76.173,116.973,71.76,118.234Z" transform="translate(364.184 208.017)"/>
          <path id="路径_40022" data-name="路径 40022" d="M4.26,110.834A8.1,8.1,0,0,1-5.827,105.16,8.1,8.1,0,0,1-.153,95.073a8.1,8.1,0,0,1,10.087,5.674C11.194,104.529,8.673,109.573,4.26,110.834Z" transform="translate(6.151 168.766)"/>
          <path id="路径_40023" data-name="路径 40023" d="M4.26,110.834A8.1,8.1,0,0,1-5.827,105.16,8.1,8.1,0,0,1-.153,95.073a8.1,8.1,0,0,1,10.087,5.674C11.194,104.529,8.673,109.573,4.26,110.834Z" transform="translate(6.151 168.766)"/>
          <path id="路径_40024" data-name="路径 40024" d="M123.56,90.734a8.183,8.183,0,1,1,5.674-10.087C130.494,84.429,127.973,89.473,123.56,90.734Z" transform="translate(638.94 62.152)"/>
          <path id="路径_40025" data-name="路径 40025" d="M4.26,110.834A8.1,8.1,0,0,1-5.827,105.16,8.1,8.1,0,0,1-.153,95.073a8.1,8.1,0,0,1,10.087,5.674C11.194,104.529,8.673,109.573,4.26,110.834Z" transform="translate(6.151 168.766)"/>
          <path id="路径_40026" data-name="路径 40026" d="M4.26,110.834A8.1,8.1,0,0,1-5.827,105.16,8.1,8.1,0,0,1-.153,95.073a8.1,8.1,0,0,1,10.087,5.674C11.194,104.529,8.673,109.573,4.26,110.834Z" transform="translate(6.151 168.766)"/>
          <path id="路径_40027" data-name="路径 40027" d="M71.76,118.234a8.183,8.183,0,1,1,5.674-10.087C78.694,111.929,76.173,116.973,71.76,118.234Z" transform="translate(364.184 208.017)"/>
          <path id="路径_40028" data-name="路径 40028" d="M4.26,110.834A8.1,8.1,0,0,1-5.827,105.16,8.1,8.1,0,0,1-.153,95.073a8.1,8.1,0,0,1,10.087,5.674C11.194,104.529,8.673,109.573,4.26,110.834Z" transform="translate(6.151 168.766)"/>
          <path id="路径_40029" data-name="路径 40029" d="M71.76,118.234a8.183,8.183,0,1,1,5.674-10.087C78.694,111.929,76.173,116.973,71.76,118.234Z" transform="translate(364.184 208.017)"/>
          <path id="路径_40030" data-name="路径 40030" d="M4.26,110.834A8.1,8.1,0,0,1-5.827,105.16,8.1,8.1,0,0,1-.153,95.073a8.1,8.1,0,0,1,10.087,5.674C11.194,104.529,8.673,109.573,4.26,110.834Z" transform="translate(6.151 168.766)"/>
          <path id="路径_40031" data-name="路径 40031" d="M123.56,90.734a8.183,8.183,0,1,1,5.674-10.087C130.494,84.429,127.973,89.473,123.56,90.734Z" transform="translate(638.94 62.152)"/>
          <path id="路径_40032" data-name="路径 40032" d="M139.66,196.234a8.183,8.183,0,1,1,5.674-10.087A8.1,8.1,0,0,1,139.66,196.234Z" transform="translate(724.337 621.743)"/>
          <path id="路径_40033" data-name="路径 40033" d="M147.36,74.234a8.183,8.183,0,1,1,5.674-10.087C154.294,67.929,151.773,72.973,147.36,74.234Z" transform="translate(765.18 -25.367)"/>
          <path id="路径_40034" data-name="路径 40034" d="M139.66,196.234a8.183,8.183,0,1,1,5.674-10.087A8.1,8.1,0,0,1,139.66,196.234Z" transform="translate(724.337 621.743)"/>
          <path id="路径_40035" data-name="路径 40035" d="M145.46,104.734a8.183,8.183,0,1,1,5.674-10.087C151.764,99.06,149.242,103.473,145.46,104.734Z" transform="translate(755.102 136.411)"/>
          <path id="路径_40036" data-name="路径 40036" d="M139.66,196.234a8.183,8.183,0,1,1,5.674-10.087A8.1,8.1,0,0,1,139.66,196.234Z" transform="translate(724.337 621.743)"/>
          <path id="路径_40037" data-name="路径 40037" d="M71.76,118.234a8.183,8.183,0,1,1,5.674-10.087C78.694,111.929,76.173,116.973,71.76,118.234Z" transform="translate(364.184 208.017)"/>
          <path id="路径_40038" data-name="路径 40038" d="M139.66,196.234a8.183,8.183,0,1,1,5.674-10.087A8.1,8.1,0,0,1,139.66,196.234Z" transform="translate(724.337 621.743)"/>
          <path id="路径_40039" data-name="路径 40039" d="M71.76,118.234a8.183,8.183,0,1,1,5.674-10.087C78.694,111.929,76.173,116.973,71.76,118.234Z" transform="translate(364.184 208.017)"/>
          <path id="路径_40040" data-name="路径 40040" d="M139.66,196.234a8.183,8.183,0,1,1,5.674-10.087A8.1,8.1,0,0,1,139.66,196.234Z" transform="translate(724.337 621.743)"/>
          <path id="路径_40041" data-name="路径 40041" d="M139.66,196.234a8.183,8.183,0,1,1,5.674-10.087A8.1,8.1,0,0,1,139.66,196.234Z" transform="translate(724.337 621.743)"/>
          <path id="路径_40042" data-name="路径 40042" d="M77.16,210.534a8.183,8.183,0,1,1,5.674-10.087A8.1,8.1,0,0,1,77.16,210.534Z" transform="translate(392.826 697.593)"/>
          <path id="路径_40043" data-name="路径 40043" d="M4.26,110.834A8.1,8.1,0,0,1-5.827,105.16,8.1,8.1,0,0,1-.153,95.073a8.1,8.1,0,0,1,10.087,5.674C11.194,104.529,8.673,109.573,4.26,110.834Z" transform="translate(6.151 168.766)"/>
          <path id="路径_40044" data-name="路径 40044" d="M77.16,210.534a8.183,8.183,0,1,1,5.674-10.087A8.1,8.1,0,0,1,77.16,210.534Z" transform="translate(392.826 697.593)"/>
          <path id="路径_40045" data-name="路径 40045" d="M77.16,210.534a8.183,8.183,0,1,1,5.674-10.087A8.1,8.1,0,0,1,77.16,210.534Z" transform="translate(392.826 697.593)"/>
          <path id="路径_40046" data-name="路径 40046" d="M123.56,90.734a8.183,8.183,0,1,1,5.674-10.087C130.494,84.429,127.973,89.473,123.56,90.734Z" transform="translate(638.94 62.152)"/>
          <path id="路径_40047" data-name="路径 40047" d="M77.16,210.534a8.183,8.183,0,1,1,5.674-10.087A8.1,8.1,0,0,1,77.16,210.534Z" transform="translate(392.826 697.593)"/>
          <path id="路径_40048" data-name="路径 40048" d="M145.46,104.734a8.183,8.183,0,1,1,5.674-10.087C151.764,99.06,149.242,103.473,145.46,104.734Z" transform="translate(755.102 136.411)"/>
          <path id="路径_40049" data-name="路径 40049" d="M77.16,210.534a8.183,8.183,0,1,1,5.674-10.087A8.1,8.1,0,0,1,77.16,210.534Z" transform="translate(392.826 697.593)"/>
          <path id="路径_40050" data-name="路径 40050" d="M71.76,118.234a8.183,8.183,0,1,1,5.674-10.087C78.694,111.929,76.173,116.973,71.76,118.234Z" transform="translate(364.184 208.017)"/>
          <path id="路径_40051" data-name="路径 40051" d="M77.16,210.534a8.183,8.183,0,1,1,5.674-10.087A8.1,8.1,0,0,1,77.16,210.534Z" transform="translate(392.826 697.593)"/>
          <path id="路径_40052" data-name="路径 40052" d="M71.76,118.234a8.183,8.183,0,1,1,5.674-10.087C78.694,111.929,76.173,116.973,71.76,118.234Z" transform="translate(364.184 208.017)"/>
          <path id="路径_40053" data-name="路径 40053" d="M77.16,210.534a8.183,8.183,0,1,1,5.674-10.087A8.1,8.1,0,0,1,77.16,210.534Z" transform="translate(392.826 697.593)"/>
          <path id="路径_40054" data-name="路径 40054" d="M211.16,69.034a8.183,8.183,0,1,1,5.674-10.087A8.1,8.1,0,0,1,211.16,69.034Z" transform="translate(1103.586 -52.949)"/>
          <path id="路径_40055" data-name="路径 40055" d="M123.56,90.734a8.183,8.183,0,1,1,5.674-10.087C130.494,84.429,127.973,89.473,123.56,90.734Z" transform="translate(638.94 62.152)"/>
          <path id="路径_40056" data-name="路径 40056" d="M211.16,69.034a8.183,8.183,0,1,1,5.674-10.087A8.1,8.1,0,0,1,211.16,69.034Z" transform="translate(1103.586 -52.949)"/>
          <path id="路径_40057" data-name="路径 40057" d="M147.36,74.234a8.183,8.183,0,1,1,5.674-10.087C154.294,67.929,151.773,72.973,147.36,74.234Z" transform="translate(765.18 -25.367)"/>
          <path id="路径_40058" data-name="路径 40058" d="M211.16,69.034a8.183,8.183,0,1,1,5.674-10.087A8.1,8.1,0,0,1,211.16,69.034Z" transform="translate(1103.586 -52.949)"/>
          <path id="路径_40059" data-name="路径 40059" d="M145.46,104.734a8.183,8.183,0,1,1,5.674-10.087C151.764,99.06,149.242,103.473,145.46,104.734Z" transform="translate(755.102 136.411)"/>
          <path id="路径_40060" data-name="路径 40060" d="M211.16,69.034a8.183,8.183,0,1,1,5.674-10.087A8.1,8.1,0,0,1,211.16,69.034Z" transform="translate(1103.586 -52.949)"/>
          <path id="路径_40061" data-name="路径 40061" d="M139.66,196.234a8.183,8.183,0,1,1,5.674-10.087A8.1,8.1,0,0,1,139.66,196.234Z" transform="translate(724.337 621.743)"/>
          <path id="路径_40062" data-name="路径 40062" d="M209.76,212.434a8.183,8.183,0,1,1,5.674-10.087A8.1,8.1,0,0,1,209.76,212.434Z" transform="translate(1096.16 707.671)"/>
          <path id="路径_40063" data-name="路径 40063" d="M145.46,104.734a8.183,8.183,0,1,1,5.674-10.087C151.764,99.06,149.242,103.473,145.46,104.734Z" transform="translate(755.102 136.411)"/>
          <path id="路径_40064" data-name="路径 40064" d="M209.76,212.434a8.183,8.183,0,1,1,5.674-10.087A8.1,8.1,0,0,1,209.76,212.434Z" transform="translate(1096.16 707.671)"/>
          <path id="路径_40065" data-name="路径 40065" d="M209.76,212.434a8.183,8.183,0,1,1,5.674-10.087A8.1,8.1,0,0,1,209.76,212.434Z" transform="translate(1096.16 707.671)"/>
          <path id="路径_40066" data-name="路径 40066" d="M233.36,153.733a8.183,8.183,0,1,1,5.674-10.087A8.1,8.1,0,0,1,233.36,153.733Z" transform="translate(1221.339 396.315)"/>
          <path id="路径_40067" data-name="路径 40067" d="M211.16,69.034a8.183,8.183,0,1,1,5.674-10.087A8.1,8.1,0,0,1,211.16,69.034Z" transform="translate(1103.586 -52.949)"/>
          <path id="路径_40068" data-name="路径 40068" d="M233.36,153.733a8.183,8.183,0,1,1,5.674-10.087A8.1,8.1,0,0,1,233.36,153.733Z" transform="translate(1221.339 396.315)"/>
          <path id="路径_40069" data-name="路径 40069" d="M233.36,153.733a8.183,8.183,0,1,1,5.674-10.087A8.1,8.1,0,0,1,233.36,153.733Z" transform="translate(1221.339 396.315)"/>
          <path id="路径_40070" data-name="路径 40070" d="M139.66,196.234a8.183,8.183,0,1,1,5.674-10.087A8.1,8.1,0,0,1,139.66,196.234Z" transform="translate(724.337 621.743)"/>
          <path id="路径_40071" data-name="路径 40071" d="M233.36,153.733a8.183,8.183,0,1,1,5.674-10.087A8.1,8.1,0,0,1,233.36,153.733Z" transform="translate(1221.339 396.315)"/>
          <path id="路径_40072" data-name="路径 40072" d="M123.56,90.734a8.183,8.183,0,1,1,5.674-10.087C130.494,84.429,127.973,89.473,123.56,90.734Z" transform="translate(638.94 62.152)"/>
          <path id="路径_40073" data-name="路径 40073" d="M233.36,153.733a8.183,8.183,0,1,1,5.674-10.087A8.1,8.1,0,0,1,233.36,153.733Z" transform="translate(1221.339 396.315)"/>
          <path id="路径_40074" data-name="路径 40074" d="M147.36,74.234a8.183,8.183,0,1,1,5.674-10.087C154.294,67.929,151.773,72.973,147.36,74.234Z" transform="translate(765.18 -25.367)"/>
          <path id="路径_40075" data-name="路径 40075" d="M233.36,153.733a8.183,8.183,0,1,1,5.674-10.087A8.1,8.1,0,0,1,233.36,153.733Z" transform="translate(1221.339 396.315)"/>
          <path id="路径_40076" data-name="路径 40076" d="M145.46,104.734a8.183,8.183,0,1,1,5.674-10.087C151.764,99.06,149.242,103.473,145.46,104.734Z" transform="translate(755.102 136.411)"/>
          <path id="路径_40077" data-name="路径 40077" d="M233.36,153.733a8.183,8.183,0,1,1,5.674-10.087A8.1,8.1,0,0,1,233.36,153.733Z" transform="translate(1221.339 396.315)"/>
          <path id="路径_40078" data-name="路径 40078" d="M233.36,153.733a8.183,8.183,0,1,1,5.674-10.087A8.1,8.1,0,0,1,233.36,153.733Z" transform="translate(1221.339 396.315)"/>
          <path id="路径_40079" data-name="路径 40079" d="M257.46,217.434a8.183,8.183,0,1,1,5.674-10.087A8.1,8.1,0,0,1,257.46,217.434Z" transform="translate(1349.17 734.192)"/>
          <path id="路径_40080" data-name="路径 40080" d="M233.36,153.733a8.183,8.183,0,1,1,5.674-10.087A8.1,8.1,0,0,1,233.36,153.733Z" transform="translate(1221.339 396.315)"/>
          <path id="路径_40081" data-name="路径 40081" d="M257.46,217.434a8.183,8.183,0,1,1,5.674-10.087A8.1,8.1,0,0,1,257.46,217.434Z" transform="translate(1349.17 734.192)"/>
          <path id="路径_40082" data-name="路径 40082" d="M209.76,212.434a8.183,8.183,0,1,1,5.674-10.087A8.1,8.1,0,0,1,209.76,212.434Z" transform="translate(1096.16 707.671)"/>
          <path id="路径_40083" data-name="路径 40083" d="M257.46,217.434a8.183,8.183,0,1,1,5.674-10.087A8.1,8.1,0,0,1,257.46,217.434Z" transform="translate(1349.17 734.192)"/>
          <path id="路径_40084" data-name="路径 40084" d="M257.46,217.434a8.183,8.183,0,1,1,5.674-10.087A8.1,8.1,0,0,1,257.46,217.434Z" transform="translate(1349.17 734.192)"/>
          <path id="路径_40085" data-name="路径 40085" d="M139.66,196.234a8.183,8.183,0,1,1,5.674-10.087A8.1,8.1,0,0,1,139.66,196.234Z" transform="translate(724.337 621.743)"/>
        </g>
      </g>
    </g>
    <path id="路径_40417" data-name="路径 40417" d="M6.24,63.34a66.959,66.959,0,0,1,6.6,16.8l6.76-2.392a74.036,74.036,0,0,0-7.02-16.588Zm31.928-2.288a46.7,46.7,0,0,1-2.6,11.752,39.266,39.266,0,0,1-8.476,14.768A40,40,0,0,1,12.636,97.5a19.442,19.442,0,0,1,4.784,5.616A47.43,47.43,0,0,0,32.4,91.784C37.8,85.7,41.912,77.172,43.94,67.812a23.616,23.616,0,0,1,1.4-5.1Zm48.724,22.62c2.08-.26,2.652-.26,8.476-.26H122.98c5.824,0,6.4,0,8.476.26V76.444a51.067,51.067,0,0,1-8.424.364H95.316a51.067,51.067,0,0,1-8.424-.364ZM214.916,96.308c-6.292-6.084-6.292-6.084-7.592-7.228a80.6,80.6,0,0,0-9.62-7.54,68.868,68.868,0,0,0,8.112-14.352,10,10,0,0,1,1.664-2.808l-3.432-3.536c-1.3.468-1.716.52-4.628.572l-18.3.26h-1.248a22.757,22.757,0,0,1-4.576-.312l.208,6.656a40.977,40.977,0,0,1,5.668-.416c16.38-.26,16.38-.26,17.212-.312l-.572,1.352a50.122,50.122,0,0,1-17.472,21.164,42.931,42.931,0,0,1-10.4,5.72,20.86,20.86,0,0,1,4.212,5.772A61.8,61.8,0,0,0,193.96,86.272a99.961,99.961,0,0,1,15.964,15.444Zm40.4-27.768a5.745,5.745,0,0,1,.832-.052c.468,0,.468,0,1.456.052,1.144,0,5.72.1,6.552.1,0,0,.676-.052.884-.052a2.544,2.544,0,0,0-.416.676,68.876,68.876,0,0,1-6.24,8.892,31.855,31.855,0,0,1-4.68,4.628l4.732,4.68a23.38,23.38,0,0,1,4.524-4.732c4-3.536,7.644-5.356,10.66-5.356a2.854,2.854,0,0,1,3.172,2.808c-5.876,2.444-8.84,4.42-11.18,7.332a8.287,8.287,0,0,0-2.288,5.772,7.54,7.54,0,0,0,3.8,6.708c2.652,1.56,6.084,2.184,11.6,2.184a94.315,94.315,0,0,0,13.312-.936,15.322,15.322,0,0,1,2.392-.208l-.52-6.708c-3.692,1.4-9.048,2.184-15.288,2.184-6.292,0-8.788-1.092-8.788-3.8,0-1.508.884-2.912,2.7-4.264a31.6,31.6,0,0,1,4.992-2.7V87a41.171,41.171,0,0,1-.312,6.032l6.032-.156a21.349,21.349,0,0,1-.156-2.756c0-.364,0-.832.052-1.716v-2.08c0-.728,0-.728-.052-2.08v-.572q6.708-2.34,7.8-2.652a45.9,45.9,0,0,1,5.772-1.4l-2.444-5.98c-.832.52-1.04.572-3.848,1.56q-1.95.624-7.956,2.808c-.832-3.588-3.38-5.512-7.436-5.512a12.57,12.57,0,0,0-7.332,2.34c-.676.52-.676.52-1.04.78l-.052-.1a26.909,26.909,0,0,0,4.784-6.916c5.252-.156,11.856-.572,15.652-1.04,2.652-.312,2.652-.312,4.108-.416l-.364-5.928c-2.86.832-7.592,1.4-13.624,1.768-2.86.156-2.86.156-3.276.208.1-.208.208-.364.468-.936a39.725,39.725,0,0,1,2.08-4.68l-6.812-.728a20.594,20.594,0,0,1-2.08,6.448c-6.6,0-9.932-.208-12.064-.676Z" transform="translate(243 502)" fill="#0080f4"/>
    <text id="OUR_MISSION" data-name="OUR MISSION" transform="translate(243 386)" font-size="12" font-family="HiraginoSansGB-W6, Hiragino Sans GB" letter-spacing="1.6em"><tspan x="0" y="0">OUR MISSION</tspan></text>
    <path id="路径_40418" data-name="路径 40418" d="M37.388-2.548V.624h6.968a34.3,34.3,0,0,1-.26-5.356V-33.28a31.547,31.547,0,0,1,.156-4.316c-1.82.1-1.82.1-4.524.1H14.716a34.953,34.953,0,0,1-6.708-.364v6.76a50.886,50.886,0,0,1,6.656-.26H37.44V-8.684H13.78a33.431,33.431,0,0,1-6.5-.364V-2.34a58.127,58.127,0,0,1,6.4-.208Zm57.356-33.02a137.173,137.173,0,0,1,28.392,5.98l2.08-6.4A173.335,173.335,0,0,0,97.084-41.6Zm-.832,14.3a114.357,114.357,0,0,1,13.156,2.288,89.381,89.381,0,0,1,14.3,4.16l2.028-6.4A163.407,163.407,0,0,0,96.3-27.248ZM89.7-6.656A144.674,144.674,0,0,1,106.028-3.64a95.4,95.4,0,0,1,18.408,5.824l2.236-6.552a162.786,162.786,0,0,0-34.528-8.216Zm110.708,2.08c.884-4.68,1.456-8.372,2.236-14.092.572-4.316.572-4.316,1.2-5.928l-2.86-2.5a11.6,11.6,0,0,1-3.848.468H183.976a29.727,29.727,0,0,1-4.784-.312v5.876a33.4,33.4,0,0,1,4.628-.208h12.9c-.52,4.732-1.612,12.064-2.5,16.692H178.88a23.485,23.485,0,0,1-4.784-.312V1.04A38.644,38.644,0,0,1,178.88.832h26.988a39.731,39.731,0,0,1,4.784.208V-4.888a23.184,23.184,0,0,1-4.784.312ZM259.22-29.068a44.857,44.857,0,0,1,6.084-.26h20.54a44.857,44.857,0,0,1,6.084.26v-6.864a32.342,32.342,0,0,1-6.136.364H265.356a32.342,32.342,0,0,1-6.136-.364ZM253.968-3.64a51.525,51.525,0,0,1,6.552-.26h30.056a51.525,51.525,0,0,1,6.552.26v-6.968a36.292,36.292,0,0,1-6.656.364H260.624a36.292,36.292,0,0,1-6.656-.364Zm120.12-17.576a51.452,51.452,0,0,1,6.6.26v-6.188a36.936,36.936,0,0,1-6.708.364h-30.42a36.6,36.6,0,0,1-6.708-.364v6.188a51.453,51.453,0,0,1,6.6-.26h12.688a22.083,22.083,0,0,1-2.288,9.828c-2.184,4-6.084,6.76-12.324,8.684a16.5,16.5,0,0,1,4.212,5.72c7.02-2.808,10.816-5.668,13.572-10.244,2.236-3.692,3.38-8.008,3.64-13.988ZM342.108-33.9a48.988,48.988,0,0,1,6.6-.26h20.176a48.988,48.988,0,0,1,6.6.26v-6.344a35.279,35.279,0,0,1-6.708.364H348.816a35.278,35.278,0,0,1-6.708-.364Zm110.916.312a19.5,19.5,0,0,1-3.172,3.744,59.32,59.32,0,0,1-14.768,10.556,55.461,55.461,0,0,1-12.324,4.68A21.276,21.276,0,0,1,425.984-9.2a73.361,73.361,0,0,0,14.716-6.6V-1.872a31.177,31.177,0,0,1-.26,4.94l6.708.052a30.713,30.713,0,0,1-.26-4.992v-17.68a69.586,69.586,0,0,0,9.672-8.528,10.139,10.139,0,0,1,1.768-1.716Zm59.9,34.84c-.052-.676-.052-1.092-.052-1.4,0-3.692,1.768-9.724,4.628-15.756l-4.16-1.872a53.033,53.033,0,0,0-2.7,6.864c.052-1.3.1-1.716.1-2.86a86.824,86.824,0,0,1,.78-11.492c.832-6.656,2.028-12.48,3.276-15.548l-6.864-.728a34.023,34.023,0,0,1-.78,4.836,99.829,99.829,0,0,0-2.132,20.332A90.7,90.7,0,0,0,506.376-.832c.156,1.2.208,1.508.26,2.444ZM520.1-29.9a61.729,61.729,0,0,0,9.36.572,93.143,93.143,0,0,0,11.128-.624c2.5-.312,3.276-.416,3.692-.468l-.312-6.292a57.343,57.343,0,0,1-14.144,1.4c-4.524,0-7.28-.208-9.62-.832Zm3.588,8.58c-3.224,3.848-4.784,7.332-4.784,10.712a8.711,8.711,0,0,0,1.56,5.1c2.288,3.068,6.448,4.524,12.9,4.524a64.124,64.124,0,0,0,10.764-.988,17.38,17.38,0,0,1,2.132-.312l-.52-6.6a36.543,36.543,0,0,1-12.376,1.976c-5.408,0-8.268-1.56-8.268-4.524,0-2.236,1.092-4.472,3.692-7.488Zm72.54-17.472a56.137,56.137,0,0,1-6.812-.364c.208,2.132.26,4.212.26,10.712,0,15.288-1.3,21.736-5.668,28.548a20.693,20.693,0,0,1,4.472,4,34.785,34.785,0,0,0,4.992-12.116,72.057,72.057,0,0,0,1.612-15.548h30.836c1.612,0,3.016.052,4.316.156a36.017,36.017,0,0,1-.208-4.264v-7.228A28.351,28.351,0,0,1,630.24-39a48.416,48.416,0,0,1-5.356.208h-11.7a36.533,36.533,0,0,0-2.756-5.1l-5.772,1.82a27.86,27.86,0,0,1,2.08,3.276Zm-1.092,5.044h29.38V-28.6H595.14Zm30.316,21.736a45.947,45.947,0,0,1,5.564.312v-5.46a38.286,38.286,0,0,1-5.564.26h-11.18c.1-1.2.156-2.392.208-3.536a13.234,13.234,0,0,1,.26-2.236h-5.876a19.261,19.261,0,0,1,.1,2.6c0,1.2-.052,2.132-.1,3.172h-7.852a36.332,36.332,0,0,1-5.408-.26v5.408a43.321,43.321,0,0,1,5.408-.26h6.916a13.494,13.494,0,0,1-6.24,7.28c-2.34,1.4-4.888,2.288-9.828,3.38.416.78.416.78,1.4,2.548A15.69,15.69,0,0,1,594.516,4c5.3-1.508,8.112-2.756,11.388-5.044a16.972,16.972,0,0,0,5.876-6.708A22.176,22.176,0,0,0,618.592-.52c3.224,2.132,6.292,3.328,11.7,4.576a24.509,24.509,0,0,1,2.028-5.72c-5.512-.884-7.748-1.56-10.556-3.224a18.762,18.762,0,0,1-6.812-7.124Zm52-30.836a12.221,12.221,0,0,1-.156,1.768l-.78,6.448c-.416,3.588-.728,9.36-.728,13.572,0,1.04.1,4.888.156,6.4v.988A4.043,4.043,0,0,1,675.9-13l6.24-.1V-14.2a24.932,24.932,0,0,1,6.552-16.8,7.739,7.739,0,0,1,5.616-2.756c4.472,0,6.968,4.16,6.968,11.648,0,7.9-2.756,12.844-8.788,15.912C689.312-4.576,686.3-3.8,681.1-3.224a19.89,19.89,0,0,1,3.068,6.136A44.346,44.346,0,0,0,694.356,0c8.736-3.848,13.416-11.336,13.416-21.372,0-6.136-1.144-10.348-3.744-13.832a10.889,10.889,0,0,0-8.892-4.68c-3.8,0-7.02,1.768-9.88,5.3a21.023,21.023,0,0,0-3.276,6.188,11.416,11.416,0,0,1-.312,1.144h-.156c.1-1.248.312-3.016.676-5.2.988-6.916,1.248-8.268,1.872-10.036ZM752.7-7.8A55.968,55.968,0,0,1,763.984,4.056L768.82-.468a60.781,60.781,0,0,0-11.7-11.44ZM368.368,97.088a79.65,79.65,0,0,1,10.868,6.292l2.132-4.732a70.169,70.169,0,0,0-7.384-3.952,35.183,35.183,0,0,0,2.652-2.86,36.35,36.35,0,0,0,4.94,2.444,20.255,20.255,0,0,1,2.132-4.576,21.462,21.462,0,0,1-8.84-4.472h3.172a43.491,43.491,0,0,1,4.784.26V80.76a30.132,30.132,0,0,1-4.836.26h-4.42V78.628h3.224a31.647,31.647,0,0,1,4.316.208v-4.42a23.4,23.4,0,0,1-4.316.26h-3.224V72.6h1.2a43.843,43.843,0,0,1,4.732.156,29.507,29.507,0,0,1-.208-4.212V62.2a30.687,30.687,0,0,1,.208-4.316,50.107,50.107,0,0,1-5.616.208H357.448a47.548,47.548,0,0,1-5.46-.208c.1,1.3.156,2.132.156,4.368v5.2l-3.172-2.288a15.73,15.73,0,0,1-2.548,4.524c.052-4.628.052-4.628.052-7.852a32.111,32.111,0,0,1,.26-5.148h-5.72c.364,2.184.416,3.38.416,10.244,0,13-.468,18.3-2.08,23.088a22.428,22.428,0,0,1-5.3,9.412,17.508,17.508,0,0,1,3.588,4.888,31.149,31.149,0,0,0,6.344-11.128,13.639,13.639,0,0,1,.884,1.456c1.612,3.016,1.612,3.016,2.288,4.212L351,95.008a64.572,64.572,0,0,0-5.668-7.436,83.662,83.662,0,0,0,1.04-11.7,67.108,67.108,0,0,0,5.2-6.136c.312-.416.312-.468.572-.78-.052,2.132-.052,2.34-.156,3.8,1.092-.1,2.34-.156,4.784-.156h.624v2.08H354.38a26.577,26.577,0,0,1-4.108-.208v4.368a28.352,28.352,0,0,1,4.108-.208H357.4V81.02h-4.212a25.93,25.93,0,0,1-4.576-.26v4.68a30.219,30.219,0,0,1,4.316-.208h3.432a19.258,19.258,0,0,1-7.852,4.576,18.41,18.41,0,0,1,2.34,4.212A31.122,31.122,0,0,0,355,91.732a23.539,23.539,0,0,1,2.86,3.224,57.067,57.067,0,0,1-8.32,3.8l2.288,4.472c.364-.208.936-.624,1.04-.676,1.144-.52,3.224-1.664,4.784-2.6a12.541,12.541,0,0,1,.936,4.16,44.589,44.589,0,0,0,4.628.208c4,0,5.148-.936,5.148-4.264Zm-7.54-3.64,1.04-.832a25.62,25.62,0,0,0-3.224-3.588,22.77,22.77,0,0,0,3.12-3.224c.312-.364.312-.364.468-.572h6.812a22.416,22.416,0,0,0,3.848,3.9,20.467,20.467,0,0,1-3.276,3.64l-1.248-.52V89.6a16.066,16.066,0,0,1,.208-3.224h-5.564a16.822,16.822,0,0,1,.208,3.172V98.44c0,1.092-.156,1.2-1.56,1.2a20.555,20.555,0,0,1-3.12-.26c1.248-.78,1.82-1.144,3.848-2.548Zm1.56-20.852h6.188v2.08h-6.188Zm0,6.032h6.188V81.02h-6.188ZM357.24,61.78h16.9v2.028h-16.9Zm0,5.252h16.9v1.976h-16.9Zm-18.668,15.08c.988-3.9,1.248-6.448,1.508-15.132l-4.368-.572c0,7.28-.312,10.764-1.3,13.936Zm91.052-3.484c1.248-.1,2.444-.208,3.484-.208l-.052,4A15.143,15.143,0,0,1,433,84.036H425.62a32.066,32.066,0,0,1-5.512-.312v5.564a33.9,33.9,0,0,1,5.512-.312h6.6a11.84,11.84,0,0,1-2.288,4.316c-2.34,2.86-5.252,4.472-11.024,6.084a19.2,19.2,0,0,1,3.744,5.1c6.4-2.5,9.464-4.576,12.064-8.008a17.689,17.689,0,0,0,3.224-7.488h6.708V99.064c0,3.64,1.664,4.524,8.736,4.524,10.036,0,10.972-.728,12.064-9.568a18.174,18.174,0,0,1-5.616-1.82c-.156,2.912-.468,4.628-.936,5.252-.52.676-1.82.988-4.316.988a13.068,13.068,0,0,1-3.692-.26c-.728-.208-.832-.364-.832-1.456V88.976h8.268a39.67,39.67,0,0,1,5.46.312V83.724a31.056,31.056,0,0,1-5.46.312H450.06V78.42a43.048,43.048,0,0,1,4.992.208V75.4c2.08,1.82,3.328,2.652,8.476,5.824a19.406,19.406,0,0,1,3.276-5.1,31.226,31.226,0,0,1-8.112-4.68,39.269,39.269,0,0,0,4.68-4.888c.416-.468.572-.624.884-.936l-4.628-2.652a28.429,28.429,0,0,1-4.524,5.46c-1.04-.988-1.82-1.716-3.016-3.016,1.56-1.56,2.08-2.132,2.756-2.912,1.456-1.768,1.456-1.768,1.872-2.236l-4.628-2.652a20.241,20.241,0,0,1-3.068,4.056,35.022,35.022,0,0,1-3.068-5.1L441.48,58.4a42.928,42.928,0,0,0,5.148,8.32,44.573,44.573,0,0,0,6.188,6.76c-.624.052-1.612.052-2.912.052h-17.16c4.316-3.64,6.4-6.4,9.464-12.532l-3.172-3.536a14.4,14.4,0,0,1-3.952.312h-5.668a22.778,22.778,0,0,1-4.264-.26V62.3c-.52-.416-.52-.416-.936-.78l-4,3.38a42.351,42.351,0,0,1,6.968,6.292A38.4,38.4,0,0,1,417.2,76.34a19.839,19.839,0,0,1,3.276,4.836,55.8,55.8,0,0,0,9.152-5.252Zm6.292-16.172a27.875,27.875,0,0,1-4.68,5.512c-1.3-1.4-4.16-4.108-5.72-5.408.624-.052,1.716-.1,2.756-.1Zm8.736,15.964v5.616h-6.084v-1.2l.052-4.42Zm61.412-5.148a19.538,19.538,0,0,1,2.288-.156,181.216,181.216,0,0,0,18.46-1.248c3.432,6.4,3.484,6.552,5.616,9.464a24.158,24.158,0,0,0-9-1.56c-5.928,0-10.244,1.2-13.26,3.744a10.116,10.116,0,0,0-3.744,7.748,9.7,9.7,0,0,0,3.068,7.02c2.652,2.548,7.8,3.952,14.456,3.952a53.681,53.681,0,0,0,16.484-2.808l-.832-6.656a36.13,36.13,0,0,1-15.652,3.484c-7.072,0-10.92-1.872-10.92-5.252,0-3.692,4.16-5.824,11.232-5.824a26.061,26.061,0,0,1,8.216,1.2,9.188,9.188,0,0,1,3.588,2.236l6.032-2.756c-1.82-2.444-4.108-5.824-5.512-8.216-.52-.936-1.716-3.12-3.588-6.6q6.474-1.248,7.644-1.56c1.768-.364,2.34-.52,3.692-.728l-.728-6.188a79.121,79.121,0,0,1-12.74,3.068,43.569,43.569,0,0,1-2.86-8.32l-6.708.884c.26.416,2.5,5.928,3.38,8.216-3.224.416-10.14.884-14.04.884a35.65,35.65,0,0,1-5.044-.26Zm120.9,19.916c-3.38,1.352-8.268,1.976-15.028,1.976-8.476,0-10.712-1.092-11.128-5.46-.1-1.04-.26-6.708-.26-9.412V79.2c.052-2.756.052-2.756.052-3.016v-1.4c7.228-.416,7.228-.416,15.132-.728a44.8,44.8,0,0,1-.468,6.5c-.312,2.028-.884,2.7-2.236,2.7-1.56,0-4-.936-6.812-2.548a27.68,27.68,0,0,1,.364,4.264c0,.728,0,1.04-.052,2.08a17.044,17.044,0,0,0,7.436,1.768c3.068,0,5.2-1.3,6.344-3.9.832-1.872,1.3-5.772,1.352-11.024,2.444,0,5.408-.052,7.228-.052a18.231,18.231,0,0,1,2.964.156l-.1-6.188c-1.716.208-1.716.208-10.088.468v-6.5a23.7,23.7,0,0,1,.26-3.588h-6.5c.312,2.028.312,2.028.312,10.3-7.748.364-7.748.364-15.028.728.156-8.216.156-8.216.468-10.14H594.2c.312,1.872.364,3.328.364,8.84,0,.312,0,.78-.052,1.612-5.148.312-8.008.468-8.476.468-.26,0-.78,0-1.508-.052l.416,6.084c2.34-.416,2.34-.416,9.62-.936-.052,4.056-.052,4.264-.052,5.044,0,8.944.208,11.856.936,14.2,1.56,4.992,5.772,6.864,15.5,6.864,3.432,0,10.3-.364,14.092-.78,1.768-.208,1.768-.208,2.34-.26Zm85.384,1.3c-.728-.416-.988-.624-1.872-1.2-5.616-3.952-9.672-5.98-14.248-7.332-.052-1.248-.052-1.248-.208-6.292,2.028-.1,2.808-.156,3.536-.208,3.9-.364,6.24-.624,7.02-.728,1.2-.156,2.5-.312,3.38-.364l-.156-5.72a38.484,38.484,0,0,1-6.448,1.144c-4.784.52-4.784.52-7.384.676-.052-3.224-.052-3.848-.1-5.148,4.576-.26,6.6-.416,11.18-1.04a32.525,32.525,0,0,1,4.108-.468l-.26-5.772c-3.38.988-7.9,1.56-14.976,1.976a32.237,32.237,0,0,1,.364-6.344h-6.6c.208,1.3.208,1.352.26,6.552-1.3.052-3.068.1-3.9.1-5.98,0-11.336-.416-13.988-1.092L672,69.008h.832c.156,0,.572,0,1.144.052,3.484.26,10.192.52,12.74.52.78,0,1.612,0,3.276-.052.052,2.964.052,4.732.052,5.2-1.456.052-3.224.1-4.264.1a67.053,67.053,0,0,1-12.116-.884l-.1,5.616c.78,0,1.3,0,1.976.052,4.316.312,6.24.364,9.412.364,1.092,0,2.7-.052,5.2-.1.052,2.08.052,2.08.1,2.808v1.144a10.019,10.019,0,0,1,.052,1.248,27.167,27.167,0,0,0-3.484-.208c-8.736,0-13.884,3.328-13.884,9,0,5.148,4.368,8.112,11.96,8.112,3.8,0,6.6-.728,8.58-2.236s2.912-3.744,2.912-7.02v-.572a23.137,23.137,0,0,1,2.808,1.3,35.087,35.087,0,0,1,9.62,7.124Zm-21.944-4v1.248a6.592,6.592,0,0,1-.624,3.328c-.728,1.04-2.34,1.664-4.524,1.664-3.692,0-5.928-1.2-5.928-3.12,0-2.236,2.548-3.588,6.76-3.588A18.251,18.251,0,0,1,690.4,90.484ZM782.34,72.336v-3.38c4.108-.1,5.044-.1,6.292-.1,4.316,0,6.812.1,8.736.26l-.052-5.98c-1.924.208-5.98.312-15.028.364a40.881,40.881,0,0,1,.26-6.188L776,57.36c.26,1.352.26,1.352.312,6.292-2.7.1-2.7.1-4.42.156-4.264.1-4.784.1-8.164.208-6.708.26-7.54.26-8.84.26a22.643,22.643,0,0,1-2.548-.1l.208,6.188c1.4-.208,1.4-.208,9.256-.78,2.288-.156,7.176-.312,14.612-.52,0,1.4,0,4.316.052,4.42a2.143,2.143,0,0,0,.052.624,8.69,8.69,0,0,0-5.408-1.56c-6.032,0-10.348,3.952-10.348,9.464a8.125,8.125,0,0,0,3.588,7.02A9.583,9.583,0,0,0,770.38,90.9c3.432,0,6.136-1.3,7.644-3.692-.416,2.912-2.5,5.564-6.032,7.592-2.444,1.456-4.576,2.184-8.84,3.016a17.066,17.066,0,0,1,3.692,5.876c4.836-1.664,7.228-2.756,9.412-4.264C781.3,95.944,784,91.056,784,85.388a15.824,15.824,0,0,0-1.664-7.332c0-.624-.052-1.04-.052-1.248Zm-5.98,8.58c0,2.7-2.132,4.68-5.1,4.68a4.1,4.1,0,0,1-4.42-4.108c0-2.288,2.184-4.16,4.836-4.16C774.54,77.328,776.36,78.732,776.36,80.916Z" transform="translate(243 502)"/>
  </g>
</svg>
