<svg xmlns="http://www.w3.org/2000/svg" xmlns:xlink="http://www.w3.org/1999/xlink" width="1820" height="880" viewBox="0 0 1820 880">
  <defs>
    <clipPath id="clip-path">
      <rect id="矩形_2747" data-name="矩形 2747" width="1820" height="880" fill="#fff"/>
    </clipPath>
  </defs>
  <g id="产品-秘密" clip-path="url(#clip-path)">
    <g id="组_22059" data-name="组 22059" transform="translate(-50 27)" opacity="0.05">
      <g id="组_22057" data-name="组 22057" transform="translate(0 7.733)">
        <g id="组_21999" data-name="组 21999" transform="translate(496.006 224.522)">
          <g id="组_21997" data-name="组 21997" transform="translate(0 0)">
            <rect id="矩形_2721" data-name="矩形 2721" width="472.183" height="1.891" transform="translate(0 84.71) rotate(-10.335)"/>
          </g>
          <g id="组_21998" data-name="组 21998" transform="translate(0 0)">
            <rect id="矩形_2722" data-name="矩形 2722" width="472.183" height="1.891" transform="translate(0 84.71) rotate(-10.335)"/>
          </g>
        </g>
        <g id="组_22003" data-name="组 22003" transform="translate(496.139 32.308)">
          <g id="组_22000" data-name="组 22000" transform="translate(464.098 0.366)">
            <rect id="矩形_2723" data-name="矩形 2723" width="192.908" height="1.261" transform="matrix(0.063, -0.998, 0.998, 0.063, 0, 192.522)"/>
          </g>
          <g id="组_22001" data-name="组 22001" transform="translate(0)">
            <path id="路径_39980" data-name="路径 39980" d="M63.23,337.945l-.63-1.261L538.566,59.3l1.261,1.261Z" transform="translate(-62.6 -59.3)"/>
          </g>
          <g id="组_22002" data-name="组 22002" transform="translate(0)">
            <path id="路径_39981" data-name="路径 39981" d="M63.23,337.945l-.63-1.261L538.566,59.3l1.261,1.261Z" transform="translate(-62.6 -59.3)"/>
          </g>
        </g>
        <g id="组_22008" data-name="组 22008" transform="translate(495.837 32.165)">
          <g id="组_22004" data-name="组 22004" transform="translate(326.765 0)">
            <rect id="矩形_2724" data-name="矩形 2724" width="182.191" height="1.261" transform="translate(0 104.013) rotate(-34.814)"/>
          </g>
          <g id="组_22005" data-name="组 22005" transform="translate(327.17 104.435)">
            <rect id="矩形_2725" data-name="矩形 2725" width="1.261" height="163.278" transform="matrix(0.54, -0.841, 0.841, 0.54, 0, 1.061)"/>
          </g>
          <g id="组_22006" data-name="组 22006" transform="translate(0 103.907)">
            <rect id="矩形_2726" data-name="矩形 2726" width="370.055" height="1.261" transform="translate(0 173.556) rotate(-27.969)"/>
          </g>
          <g id="组_22007" data-name="组 22007" transform="translate(0 103.907)">
            <rect id="矩形_2727" data-name="矩形 2727" width="370.055" height="1.261" transform="translate(0 173.556) rotate(-27.969)"/>
          </g>
        </g>
        <g id="组_22011" data-name="组 22011" transform="translate(0 309.692)">
          <g id="组_22009" data-name="组 22009">
            <path id="路径_39982" data-name="路径 39982" d="M-16.1,576.113,480.669,104.561l-.63-1.261L-16.1,574.222Z" transform="translate(16.1 -103.3)"/>
          </g>
          <g id="组_22010" data-name="组 22010">
            <path id="路径_39983" data-name="路径 39983" d="M-16.1,576.113,480.669,104.561l-.63-1.261L-16.1,574.222Z" transform="translate(16.1 -103.3)"/>
          </g>
        </g>
        <g id="组_22018" data-name="组 22018" transform="translate(0 136.327)">
          <g id="组_22012" data-name="组 22012" transform="translate(0 127.344)">
            <path id="路径_39984" data-name="路径 39984" d="M-16.1,493.163,55.768,96H53.876L-16.1,484.337Z" transform="translate(16.1 -96)"/>
          </g>
          <g id="组_22013" data-name="组 22013" transform="translate(0 115.366)">
            <path id="路径_39985" data-name="路径 39985" d="M-16.1,94.1v1.261l70.607,11.347.63-1.261Z" transform="translate(16.1 -94.1)"/>
          </g>
          <g id="组_22014" data-name="组 22014" transform="translate(70.607)">
            <path id="路径_39986" data-name="路径 39986" d="M-4.27,203.775l-.63-1.261L747.819,75.8v1.261Z" transform="translate(4.9 -75.8)"/>
          </g>
          <g id="组_22015" data-name="组 22015" transform="translate(0 126.714)">
            <path id="路径_39987" data-name="路径 39987" d="M-16.1,143.181,55.137,97.161l-.63-1.261L-16.1,141.29Z" transform="translate(16.1 -95.9)"/>
          </g>
          <g id="组_22016" data-name="组 22016" transform="translate(71.065 126.796)">
            <rect id="矩形_2728" data-name="矩形 2728" width="1.261" height="428.054" transform="translate(0 1.253) rotate(-83.754)"/>
          </g>
          <g id="组_22017" data-name="组 22017" transform="translate(71.065 126.796)">
            <rect id="矩形_2729" data-name="矩形 2729" width="1.261" height="428.054" transform="translate(0 1.253) rotate(-83.754)"/>
          </g>
        </g>
        <g id="组_22024" data-name="组 22024" transform="translate(495.939 33.135)">
          <g id="组_22019" data-name="组 22019" transform="translate(326.126 103.822)">
            <path id="路径_39988" data-name="路径 39988" d="M215.8,741.621,114.3,75.9h1.891L217.058,741.621Z" transform="translate(-114.3 -75.9)"/>
          </g>
          <g id="组_22020" data-name="组 22020" transform="translate(427.475 0)">
            <rect id="矩形_2730" data-name="矩形 2730" width="771.001" height="1.261" transform="translate(0 769.459) rotate(-86.406)"/>
          </g>
          <g id="组_22021" data-name="组 22021" transform="translate(427.648 192.686)">
            <rect id="矩形_2731" data-name="矩形 2731" width="578.093" height="1.261" transform="translate(0 576.937) rotate(-86.392)"/>
          </g>
          <g id="组_22022" data-name="组 22022" transform="translate(0 276.653)">
            <rect id="矩形_2732" data-name="矩形 2732" width="1.261" height="652.483" transform="matrix(0.755, -0.656, 0.656, 0.755, 0, 0.827)"/>
          </g>
          <g id="组_22023" data-name="组 22023" transform="translate(0 276.653)">
            <rect id="矩形_2733" data-name="矩形 2733" width="1.261" height="652.483" transform="matrix(0.755, -0.656, 0.656, 0.755, 0, 0.827)"/>
          </g>
        </g>
        <g id="组_22032" data-name="组 22032" transform="translate(0 136.728)">
          <g id="组_22025" data-name="组 22025" transform="translate(529.871 665.909)">
            <rect id="矩形_2734" data-name="矩形 2734" width="404.098" height="1.891" transform="matrix(0.976, -0.219, 0.219, 0.976, 0, 88.336)"/>
          </g>
          <g id="组_22026" data-name="组 22026" transform="translate(69.976 126.313)">
            <path id="路径_39989" data-name="路径 39989" d="M454.575,725.688-5,97.161-3.739,95.9,455.836,725.057Z" transform="translate(5 -95.9)"/>
          </g>
          <g id="组_22027" data-name="组 22027" transform="translate(0 674.146)">
            <path id="路径_39990" data-name="路径 39990" d="M-16.1,182.8v1.261l530.182,81.324v-1.891Z" transform="translate(16.1 -182.8)"/>
          </g>
          <g id="组_22028" data-name="组 22028" transform="translate(529.561)">
            <rect id="矩形_2735" data-name="矩形 2735" width="810.087" height="1.891" transform="translate(0 755.406) rotate(-68.826)"/>
          </g>
          <g id="组_22029" data-name="组 22029" transform="translate(529.551 88.488)">
            <path id="路径_39991" data-name="路径 39991" d="M69.161,757.513l-1.261-.63L498.476,89.9l1.261.63Z" transform="translate(-67.9 -89.9)"/>
          </g>
          <g id="组_22030" data-name="组 22030" transform="translate(495.627 173.374)">
            <rect id="矩形_2736" data-name="矩形 2736" width="1.891" height="583.137" transform="matrix(0.998, -0.058, 0.058, 0.998, 0, 0.11)"/>
          </g>
          <g id="组_22031" data-name="组 22031" transform="translate(495.627 173.374)">
            <rect id="矩形_2737" data-name="矩形 2737" width="1.891" height="583.137" transform="matrix(0.998, -0.058, 0.058, 0.998, 0, 0.11)"/>
          </g>
        </g>
        <g id="组_22037" data-name="组 22037" transform="translate(822.695 0)">
          <g id="组_22033" data-name="组 22033" transform="translate(552.246 0.157)">
            <path id="路径_39992" data-name="路径 39992" d="M793.962,371.3,202.63,54.2,202,55.461l591.962,317.1Z" transform="translate(-202 -54.2)"/>
          </g>
          <g id="组_22034" data-name="组 22034" transform="translate(0 0.157)">
            <path id="路径_39993" data-name="路径 39993" d="M115.03,191.631l-.63-1.261L666.646,54.2l.63,1.261Z" transform="translate(-114.4 -54.2)"/>
          </g>
          <g id="组_22035" data-name="组 22035" transform="translate(150.039 0.157)">
            <path id="路径_39994" data-name="路径 39994" d="M138.2,87.612V86.351L540.407,54.2l.63,1.261Z" transform="translate(-138.2 -54.2)"/>
          </g>
          <g id="组_22036" data-name="组 22036" transform="translate(137.898)">
            <rect id="矩形_2738" data-name="矩形 2738" width="471.553" height="1.261" transform="matrix(0.879, -0.477, 0.477, 0.879, 0, 224.789)"/>
          </g>
        </g>
        <g id="组_22040" data-name="组 22040" transform="translate(924.193 225.193)">
          <g id="组_22038" data-name="组 22038" transform="translate(0 576.855)">
            <path id="路径_39995" data-name="路径 39995" d="M572.423,284.789,130.5,182.661V181.4L572.423,282.9Z" transform="translate(-130.5 -181.4)"/>
          </g>
          <g id="组_22039" data-name="组 22039" transform="translate(35.844 0)">
            <rect id="矩形_2739" data-name="矩形 2739" width="1.891" height="791.175" transform="translate(0 0.97) rotate(-30.843)"/>
          </g>
        </g>
        <g id="组_22048" data-name="组 22048" transform="translate(822.695 0.025)">
          <g id="组_22041" data-name="组 22041" transform="translate(542.664 534.601)">
            <rect id="矩形_2740" data-name="矩形 2740" width="398.424" height="1.891" transform="matrix(0.374, -0.927, 0.927, 0.374, 0, 369.459)"/>
          </g>
          <g id="组_22042" data-name="组 22042" transform="translate(551.651 0)">
            <rect id="矩形_2741" data-name="矩形 2741" width="1.891" height="552.246" transform="matrix(0.967, -0.253, 0.253, 0.967, 0, 0.479)"/>
          </g>
          <g id="组_22043" data-name="组 22043" transform="translate(692.199 393.513)">
            <path id="路径_39996" data-name="路径 39996" d="M676.21,116.6,224.2,257.183v1.261L676.21,118.491Z" transform="translate(-224.2 -116.6)"/>
          </g>
          <g id="组_22044" data-name="组 22044" transform="translate(101.262 533.511)">
            <rect id="矩形_2742" data-name="矩形 2742" width="648.7" height="1.261" transform="translate(0 268.627) rotate(-24.463)"/>
          </g>
          <g id="组_22045" data-name="组 22045" transform="translate(0 136.302)">
            <path id="路径_39997" data-name="路径 39997" d="M805.968,474.855,114.4,77.061l.63-1.261,692.2,397.794Z" transform="translate(-114.4 -75.8)"/>
          </g>
          <g id="组_22046" data-name="组 22046" transform="translate(149.585 32.046)">
            <rect id="矩形_2743" data-name="矩形 2743" width="1.891" height="738.85" transform="translate(0 1.388) rotate(-47.229)"/>
          </g>
          <g id="组_22047" data-name="组 22047" transform="translate(137.402 224.553)">
            <rect id="矩形_2744" data-name="矩形 2744" width="1.891" height="634.831" transform="translate(0 1.652) rotate(-60.849)"/>
          </g>
        </g>
        <g id="组_22050" data-name="组 22050" transform="translate(1514.894 534.12)">
          <g id="组_22049" data-name="组 22049">
            <path id="路径_39998" data-name="路径 39998" d="M676.21,256.788,224.2,138.9v1.261L676.21,258.679Z" transform="translate(-224.2 -138.9)"/>
          </g>
        </g>
        <g id="组_22056" data-name="组 22056" transform="translate(924.091 497.556)">
          <g id="组_22051" data-name="组 22051" transform="translate(742.734 341.056)">
            <path id="路径_39999" data-name="路径 39999" d="M548.379,187.2,248.3,283.654l.63,1.891,299.448-96.454Z" transform="translate(-248.3 -187.2)"/>
          </g>
          <g id="组_22052" data-name="组 22052" transform="translate(590.173 36.564)">
            <path id="路径_40000" data-name="路径 40000" d="M376.661,541.107,224.1,139.531l1.261-.631L377.922,540.476Z" transform="translate(-224.1 -138.9)"/>
          </g>
          <g id="组_22053" data-name="组 22053" transform="translate(441.745 405.549)">
            <rect id="矩形_2745" data-name="矩形 2745" width="1.891" height="302.601" transform="translate(0 1.881) rotate(-83.996)"/>
          </g>
          <g id="组_22054" data-name="组 22054" transform="translate(742.734)">
            <path id="路径_40001" data-name="路径 40001" d="M548.379,133.1,248.3,571.241l1.261.63L548.379,135.622Z" transform="translate(-248.3 -133.1)"/>
          </g>
          <g id="组_22055" data-name="组 22055" transform="translate(0 304.675)">
            <rect id="矩形_2746" data-name="矩形 2746" width="1.261" height="754.61" transform="translate(0 1.241) rotate(-79.81)"/>
          </g>
        </g>
      </g>
      <g id="组_22058" data-name="组 22058" transform="translate(62.717)">
        <path id="路径_40002" data-name="路径 40002" d="M71.76,118.234a8.183,8.183,0,1,1,5.674-10.087C78.694,111.929,76.173,116.973,71.76,118.234Z" transform="translate(364.184 208.017)"/>
        <path id="路径_40003" data-name="路径 40003" d="M145.46,104.734a8.183,8.183,0,1,1,5.674-10.087C151.764,99.06,149.242,103.473,145.46,104.734Z" transform="translate(755.102 136.411)"/>
        <path id="路径_40004" data-name="路径 40004" d="M71.76,118.234a8.183,8.183,0,1,1,5.674-10.087C78.694,111.929,76.173,116.973,71.76,118.234Z" transform="translate(364.184 208.017)"/>
        <path id="路径_40005" data-name="路径 40005" d="M145.46,104.734a8.183,8.183,0,1,1,5.674-10.087C151.764,99.06,149.242,103.473,145.46,104.734Z" transform="translate(755.102 136.411)"/>
        <path id="路径_40006" data-name="路径 40006" d="M145.46,104.734a8.183,8.183,0,1,1,5.674-10.087C151.764,99.06,149.242,103.473,145.46,104.734Z" transform="translate(755.102 136.411)"/>
        <path id="路径_40007" data-name="路径 40007" d="M147.36,74.234a8.183,8.183,0,1,1,5.674-10.087C154.294,67.929,151.773,72.973,147.36,74.234Z" transform="translate(765.18 -25.367)"/>
        <path id="路径_40008" data-name="路径 40008" d="M71.76,118.234a8.183,8.183,0,1,1,5.674-10.087C78.694,111.929,76.173,116.973,71.76,118.234Z" transform="translate(364.184 208.017)"/>
        <path id="路径_40009" data-name="路径 40009" d="M147.36,74.234a8.183,8.183,0,1,1,5.674-10.087C154.294,67.929,151.773,72.973,147.36,74.234Z" transform="translate(765.18 -25.367)"/>
        <path id="路径_40010" data-name="路径 40010" d="M71.76,118.234a8.183,8.183,0,1,1,5.674-10.087C78.694,111.929,76.173,116.973,71.76,118.234Z" transform="translate(364.184 208.017)"/>
        <path id="路径_40011" data-name="路径 40011" d="M147.36,74.234a8.183,8.183,0,1,1,5.674-10.087C154.294,67.929,151.773,72.973,147.36,74.234Z" transform="translate(765.18 -25.367)"/>
        <path id="路径_40012" data-name="路径 40012" d="M147.36,74.234a8.183,8.183,0,1,1,5.674-10.087C154.294,67.929,151.773,72.973,147.36,74.234Z" transform="translate(765.18 -25.367)"/>
        <path id="路径_40013" data-name="路径 40013" d="M123.56,90.734a8.183,8.183,0,1,1,5.674-10.087C130.494,84.429,127.973,89.473,123.56,90.734Z" transform="translate(638.94 62.152)"/>
        <path id="路径_40014" data-name="路径 40014" d="M145.46,104.734a8.183,8.183,0,1,1,5.674-10.087C151.764,99.06,149.242,103.473,145.46,104.734Z" transform="translate(755.102 136.411)"/>
        <path id="路径_40015" data-name="路径 40015" d="M123.56,90.734a8.183,8.183,0,1,1,5.674-10.087C130.494,84.429,127.973,89.473,123.56,90.734Z" transform="translate(638.94 62.152)"/>
        <path id="路径_40016" data-name="路径 40016" d="M71.76,118.234a8.183,8.183,0,1,1,5.674-10.087C78.694,111.929,76.173,116.973,71.76,118.234Z" transform="translate(364.184 208.017)"/>
        <path id="路径_40017" data-name="路径 40017" d="M123.56,90.734a8.183,8.183,0,1,1,5.674-10.087C130.494,84.429,127.973,89.473,123.56,90.734Z" transform="translate(638.94 62.152)"/>
        <path id="路径_40018" data-name="路径 40018" d="M71.76,118.234a8.183,8.183,0,1,1,5.674-10.087C78.694,111.929,76.173,116.973,71.76,118.234Z" transform="translate(364.184 208.017)"/>
        <path id="路径_40019" data-name="路径 40019" d="M123.56,90.734a8.183,8.183,0,1,1,5.674-10.087C130.494,84.429,127.973,89.473,123.56,90.734Z" transform="translate(638.94 62.152)"/>
        <path id="路径_40020" data-name="路径 40020" d="M71.76,118.234a8.183,8.183,0,1,1,5.674-10.087C78.694,111.929,76.173,116.973,71.76,118.234Z" transform="translate(364.184 208.017)"/>
        <path id="路径_40021" data-name="路径 40021" d="M71.76,118.234a8.183,8.183,0,1,1,5.674-10.087C78.694,111.929,76.173,116.973,71.76,118.234Z" transform="translate(364.184 208.017)"/>
        <path id="路径_40022" data-name="路径 40022" d="M4.26,110.834A8.1,8.1,0,0,1-5.827,105.16,8.1,8.1,0,0,1-.153,95.073a8.1,8.1,0,0,1,10.087,5.674C11.194,104.529,8.673,109.573,4.26,110.834Z" transform="translate(6.151 168.766)"/>
        <path id="路径_40023" data-name="路径 40023" d="M4.26,110.834A8.1,8.1,0,0,1-5.827,105.16,8.1,8.1,0,0,1-.153,95.073a8.1,8.1,0,0,1,10.087,5.674C11.194,104.529,8.673,109.573,4.26,110.834Z" transform="translate(6.151 168.766)"/>
        <path id="路径_40024" data-name="路径 40024" d="M123.56,90.734a8.183,8.183,0,1,1,5.674-10.087C130.494,84.429,127.973,89.473,123.56,90.734Z" transform="translate(638.94 62.152)"/>
        <path id="路径_40025" data-name="路径 40025" d="M4.26,110.834A8.1,8.1,0,0,1-5.827,105.16,8.1,8.1,0,0,1-.153,95.073a8.1,8.1,0,0,1,10.087,5.674C11.194,104.529,8.673,109.573,4.26,110.834Z" transform="translate(6.151 168.766)"/>
        <path id="路径_40026" data-name="路径 40026" d="M4.26,110.834A8.1,8.1,0,0,1-5.827,105.16,8.1,8.1,0,0,1-.153,95.073a8.1,8.1,0,0,1,10.087,5.674C11.194,104.529,8.673,109.573,4.26,110.834Z" transform="translate(6.151 168.766)"/>
        <path id="路径_40027" data-name="路径 40027" d="M71.76,118.234a8.183,8.183,0,1,1,5.674-10.087C78.694,111.929,76.173,116.973,71.76,118.234Z" transform="translate(364.184 208.017)"/>
        <path id="路径_40028" data-name="路径 40028" d="M4.26,110.834A8.1,8.1,0,0,1-5.827,105.16,8.1,8.1,0,0,1-.153,95.073a8.1,8.1,0,0,1,10.087,5.674C11.194,104.529,8.673,109.573,4.26,110.834Z" transform="translate(6.151 168.766)"/>
        <path id="路径_40029" data-name="路径 40029" d="M71.76,118.234a8.183,8.183,0,1,1,5.674-10.087C78.694,111.929,76.173,116.973,71.76,118.234Z" transform="translate(364.184 208.017)"/>
        <path id="路径_40030" data-name="路径 40030" d="M4.26,110.834A8.1,8.1,0,0,1-5.827,105.16,8.1,8.1,0,0,1-.153,95.073a8.1,8.1,0,0,1,10.087,5.674C11.194,104.529,8.673,109.573,4.26,110.834Z" transform="translate(6.151 168.766)"/>
        <path id="路径_40031" data-name="路径 40031" d="M123.56,90.734a8.183,8.183,0,1,1,5.674-10.087C130.494,84.429,127.973,89.473,123.56,90.734Z" transform="translate(638.94 62.152)"/>
        <path id="路径_40032" data-name="路径 40032" d="M139.66,196.234a8.183,8.183,0,1,1,5.674-10.087A8.1,8.1,0,0,1,139.66,196.234Z" transform="translate(724.337 621.743)"/>
        <path id="路径_40033" data-name="路径 40033" d="M147.36,74.234a8.183,8.183,0,1,1,5.674-10.087C154.294,67.929,151.773,72.973,147.36,74.234Z" transform="translate(765.18 -25.367)"/>
        <path id="路径_40034" data-name="路径 40034" d="M139.66,196.234a8.183,8.183,0,1,1,5.674-10.087A8.1,8.1,0,0,1,139.66,196.234Z" transform="translate(724.337 621.743)"/>
        <path id="路径_40035" data-name="路径 40035" d="M145.46,104.734a8.183,8.183,0,1,1,5.674-10.087C151.764,99.06,149.242,103.473,145.46,104.734Z" transform="translate(755.102 136.411)"/>
        <path id="路径_40036" data-name="路径 40036" d="M139.66,196.234a8.183,8.183,0,1,1,5.674-10.087A8.1,8.1,0,0,1,139.66,196.234Z" transform="translate(724.337 621.743)"/>
        <path id="路径_40037" data-name="路径 40037" d="M71.76,118.234a8.183,8.183,0,1,1,5.674-10.087C78.694,111.929,76.173,116.973,71.76,118.234Z" transform="translate(364.184 208.017)"/>
        <path id="路径_40038" data-name="路径 40038" d="M139.66,196.234a8.183,8.183,0,1,1,5.674-10.087A8.1,8.1,0,0,1,139.66,196.234Z" transform="translate(724.337 621.743)"/>
        <path id="路径_40039" data-name="路径 40039" d="M71.76,118.234a8.183,8.183,0,1,1,5.674-10.087C78.694,111.929,76.173,116.973,71.76,118.234Z" transform="translate(364.184 208.017)"/>
        <path id="路径_40040" data-name="路径 40040" d="M139.66,196.234a8.183,8.183,0,1,1,5.674-10.087A8.1,8.1,0,0,1,139.66,196.234Z" transform="translate(724.337 621.743)"/>
        <path id="路径_40041" data-name="路径 40041" d="M139.66,196.234a8.183,8.183,0,1,1,5.674-10.087A8.1,8.1,0,0,1,139.66,196.234Z" transform="translate(724.337 621.743)"/>
        <path id="路径_40042" data-name="路径 40042" d="M77.16,210.534a8.183,8.183,0,1,1,5.674-10.087A8.1,8.1,0,0,1,77.16,210.534Z" transform="translate(392.826 697.593)"/>
        <path id="路径_40043" data-name="路径 40043" d="M4.26,110.834A8.1,8.1,0,0,1-5.827,105.16,8.1,8.1,0,0,1-.153,95.073a8.1,8.1,0,0,1,10.087,5.674C11.194,104.529,8.673,109.573,4.26,110.834Z" transform="translate(6.151 168.766)"/>
        <path id="路径_40044" data-name="路径 40044" d="M77.16,210.534a8.183,8.183,0,1,1,5.674-10.087A8.1,8.1,0,0,1,77.16,210.534Z" transform="translate(392.826 697.593)"/>
        <path id="路径_40045" data-name="路径 40045" d="M77.16,210.534a8.183,8.183,0,1,1,5.674-10.087A8.1,8.1,0,0,1,77.16,210.534Z" transform="translate(392.826 697.593)"/>
        <path id="路径_40046" data-name="路径 40046" d="M123.56,90.734a8.183,8.183,0,1,1,5.674-10.087C130.494,84.429,127.973,89.473,123.56,90.734Z" transform="translate(638.94 62.152)"/>
        <path id="路径_40047" data-name="路径 40047" d="M77.16,210.534a8.183,8.183,0,1,1,5.674-10.087A8.1,8.1,0,0,1,77.16,210.534Z" transform="translate(392.826 697.593)"/>
        <path id="路径_40048" data-name="路径 40048" d="M145.46,104.734a8.183,8.183,0,1,1,5.674-10.087C151.764,99.06,149.242,103.473,145.46,104.734Z" transform="translate(755.102 136.411)"/>
        <path id="路径_40049" data-name="路径 40049" d="M77.16,210.534a8.183,8.183,0,1,1,5.674-10.087A8.1,8.1,0,0,1,77.16,210.534Z" transform="translate(392.826 697.593)"/>
        <path id="路径_40050" data-name="路径 40050" d="M71.76,118.234a8.183,8.183,0,1,1,5.674-10.087C78.694,111.929,76.173,116.973,71.76,118.234Z" transform="translate(364.184 208.017)"/>
        <path id="路径_40051" data-name="路径 40051" d="M77.16,210.534a8.183,8.183,0,1,1,5.674-10.087A8.1,8.1,0,0,1,77.16,210.534Z" transform="translate(392.826 697.593)"/>
        <path id="路径_40052" data-name="路径 40052" d="M71.76,118.234a8.183,8.183,0,1,1,5.674-10.087C78.694,111.929,76.173,116.973,71.76,118.234Z" transform="translate(364.184 208.017)"/>
        <path id="路径_40053" data-name="路径 40053" d="M77.16,210.534a8.183,8.183,0,1,1,5.674-10.087A8.1,8.1,0,0,1,77.16,210.534Z" transform="translate(392.826 697.593)"/>
        <path id="路径_40054" data-name="路径 40054" d="M211.16,69.034a8.183,8.183,0,1,1,5.674-10.087A8.1,8.1,0,0,1,211.16,69.034Z" transform="translate(1103.586 -52.949)"/>
        <path id="路径_40055" data-name="路径 40055" d="M123.56,90.734a8.183,8.183,0,1,1,5.674-10.087C130.494,84.429,127.973,89.473,123.56,90.734Z" transform="translate(638.94 62.152)"/>
        <path id="路径_40056" data-name="路径 40056" d="M211.16,69.034a8.183,8.183,0,1,1,5.674-10.087A8.1,8.1,0,0,1,211.16,69.034Z" transform="translate(1103.586 -52.949)"/>
        <path id="路径_40057" data-name="路径 40057" d="M147.36,74.234a8.183,8.183,0,1,1,5.674-10.087C154.294,67.929,151.773,72.973,147.36,74.234Z" transform="translate(765.18 -25.367)"/>
        <path id="路径_40058" data-name="路径 40058" d="M211.16,69.034a8.183,8.183,0,1,1,5.674-10.087A8.1,8.1,0,0,1,211.16,69.034Z" transform="translate(1103.586 -52.949)"/>
        <path id="路径_40059" data-name="路径 40059" d="M145.46,104.734a8.183,8.183,0,1,1,5.674-10.087C151.764,99.06,149.242,103.473,145.46,104.734Z" transform="translate(755.102 136.411)"/>
        <path id="路径_40060" data-name="路径 40060" d="M211.16,69.034a8.183,8.183,0,1,1,5.674-10.087A8.1,8.1,0,0,1,211.16,69.034Z" transform="translate(1103.586 -52.949)"/>
        <path id="路径_40061" data-name="路径 40061" d="M139.66,196.234a8.183,8.183,0,1,1,5.674-10.087A8.1,8.1,0,0,1,139.66,196.234Z" transform="translate(724.337 621.743)"/>
        <path id="路径_40062" data-name="路径 40062" d="M209.76,212.434a8.183,8.183,0,1,1,5.674-10.087A8.1,8.1,0,0,1,209.76,212.434Z" transform="translate(1096.16 707.671)"/>
        <path id="路径_40063" data-name="路径 40063" d="M145.46,104.734a8.183,8.183,0,1,1,5.674-10.087C151.764,99.06,149.242,103.473,145.46,104.734Z" transform="translate(755.102 136.411)"/>
        <path id="路径_40064" data-name="路径 40064" d="M209.76,212.434a8.183,8.183,0,1,1,5.674-10.087A8.1,8.1,0,0,1,209.76,212.434Z" transform="translate(1096.16 707.671)"/>
        <path id="路径_40065" data-name="路径 40065" d="M209.76,212.434a8.183,8.183,0,1,1,5.674-10.087A8.1,8.1,0,0,1,209.76,212.434Z" transform="translate(1096.16 707.671)"/>
        <path id="路径_40066" data-name="路径 40066" d="M233.36,153.733a8.183,8.183,0,1,1,5.674-10.087A8.1,8.1,0,0,1,233.36,153.733Z" transform="translate(1221.339 396.315)"/>
        <path id="路径_40067" data-name="路径 40067" d="M211.16,69.034a8.183,8.183,0,1,1,5.674-10.087A8.1,8.1,0,0,1,211.16,69.034Z" transform="translate(1103.586 -52.949)"/>
        <path id="路径_40068" data-name="路径 40068" d="M233.36,153.733a8.183,8.183,0,1,1,5.674-10.087A8.1,8.1,0,0,1,233.36,153.733Z" transform="translate(1221.339 396.315)"/>
        <path id="路径_40069" data-name="路径 40069" d="M233.36,153.733a8.183,8.183,0,1,1,5.674-10.087A8.1,8.1,0,0,1,233.36,153.733Z" transform="translate(1221.339 396.315)"/>
        <path id="路径_40070" data-name="路径 40070" d="M139.66,196.234a8.183,8.183,0,1,1,5.674-10.087A8.1,8.1,0,0,1,139.66,196.234Z" transform="translate(724.337 621.743)"/>
        <path id="路径_40071" data-name="路径 40071" d="M233.36,153.733a8.183,8.183,0,1,1,5.674-10.087A8.1,8.1,0,0,1,233.36,153.733Z" transform="translate(1221.339 396.315)"/>
        <path id="路径_40072" data-name="路径 40072" d="M123.56,90.734a8.183,8.183,0,1,1,5.674-10.087C130.494,84.429,127.973,89.473,123.56,90.734Z" transform="translate(638.94 62.152)"/>
        <path id="路径_40073" data-name="路径 40073" d="M233.36,153.733a8.183,8.183,0,1,1,5.674-10.087A8.1,8.1,0,0,1,233.36,153.733Z" transform="translate(1221.339 396.315)"/>
        <path id="路径_40074" data-name="路径 40074" d="M147.36,74.234a8.183,8.183,0,1,1,5.674-10.087C154.294,67.929,151.773,72.973,147.36,74.234Z" transform="translate(765.18 -25.367)"/>
        <path id="路径_40075" data-name="路径 40075" d="M233.36,153.733a8.183,8.183,0,1,1,5.674-10.087A8.1,8.1,0,0,1,233.36,153.733Z" transform="translate(1221.339 396.315)"/>
        <path id="路径_40076" data-name="路径 40076" d="M145.46,104.734a8.183,8.183,0,1,1,5.674-10.087C151.764,99.06,149.242,103.473,145.46,104.734Z" transform="translate(755.102 136.411)"/>
        <path id="路径_40077" data-name="路径 40077" d="M233.36,153.733a8.183,8.183,0,1,1,5.674-10.087A8.1,8.1,0,0,1,233.36,153.733Z" transform="translate(1221.339 396.315)"/>
        <path id="路径_40078" data-name="路径 40078" d="M233.36,153.733a8.183,8.183,0,1,1,5.674-10.087A8.1,8.1,0,0,1,233.36,153.733Z" transform="translate(1221.339 396.315)"/>
        <path id="路径_40079" data-name="路径 40079" d="M257.46,217.434a8.183,8.183,0,1,1,5.674-10.087A8.1,8.1,0,0,1,257.46,217.434Z" transform="translate(1349.17 734.192)"/>
        <path id="路径_40080" data-name="路径 40080" d="M233.36,153.733a8.183,8.183,0,1,1,5.674-10.087A8.1,8.1,0,0,1,233.36,153.733Z" transform="translate(1221.339 396.315)"/>
        <path id="路径_40081" data-name="路径 40081" d="M257.46,217.434a8.183,8.183,0,1,1,5.674-10.087A8.1,8.1,0,0,1,257.46,217.434Z" transform="translate(1349.17 734.192)"/>
        <path id="路径_40082" data-name="路径 40082" d="M209.76,212.434a8.183,8.183,0,1,1,5.674-10.087A8.1,8.1,0,0,1,209.76,212.434Z" transform="translate(1096.16 707.671)"/>
        <path id="路径_40083" data-name="路径 40083" d="M257.46,217.434a8.183,8.183,0,1,1,5.674-10.087A8.1,8.1,0,0,1,257.46,217.434Z" transform="translate(1349.17 734.192)"/>
        <path id="路径_40084" data-name="路径 40084" d="M257.46,217.434a8.183,8.183,0,1,1,5.674-10.087A8.1,8.1,0,0,1,257.46,217.434Z" transform="translate(1349.17 734.192)"/>
        <path id="路径_40085" data-name="路径 40085" d="M139.66,196.234a8.183,8.183,0,1,1,5.674-10.087A8.1,8.1,0,0,1,139.66,196.234Z" transform="translate(724.337 621.743)"/>
      </g>
    </g>
  </g>
</svg>
