<svg xmlns="http://www.w3.org/2000/svg" xmlns:xlink="http://www.w3.org/1999/xlink" width="1820" height="880" viewBox="0 0 1820 880">
  <defs>
    <clipPath id="clip-path">
      <rect id="矩形_2747" data-name="矩形 2747" width="1820" height="880" fill="#fff"/>
    </clipPath>
    <clipPath id="clip-path-2">
      <rect id="矩形_2279" data-name="矩形 2279" width="1820" height="880" transform="translate(50 160)" fill="#fff"/>
    </clipPath>
  </defs>
  <g id="banner" transform="translate(-50 -89)">
    <g id="NAV_bg" transform="translate(50 89)" clip-path="url(#clip-path)">
      <g id="组_22059" data-name="组 22059" transform="translate(-50 27)" opacity="0.05">
        <g id="组_22057" data-name="组 22057" transform="translate(0 7.733)">
          <g id="组_21999" data-name="组 21999" transform="translate(496.006 224.522)">
            <g id="组_21997" data-name="组 21997" transform="translate(0 0)">
              <rect id="矩形_2721" data-name="矩形 2721" width="472.183" height="1.891" transform="translate(0 84.71) rotate(-10.335)"/>
            </g>
            <g id="组_21998" data-name="组 21998" transform="translate(0 0)">
              <rect id="矩形_2722" data-name="矩形 2722" width="472.183" height="1.891" transform="translate(0 84.71) rotate(-10.335)"/>
            </g>
          </g>
          <g id="组_22003" data-name="组 22003" transform="translate(496.139 32.308)">
            <g id="组_22000" data-name="组 22000" transform="translate(464.098 0.366)">
              <rect id="矩形_2723" data-name="矩形 2723" width="192.908" height="1.261" transform="matrix(0.063, -0.998, 0.998, 0.063, 0, 192.522)"/>
            </g>
            <g id="组_22001" data-name="组 22001" transform="translate(0)">
              <path id="路径_39980" data-name="路径 39980" d="M63.23,337.945l-.63-1.261L538.566,59.3l1.261,1.261Z" transform="translate(-62.6 -59.3)"/>
            </g>
            <g id="组_22002" data-name="组 22002" transform="translate(0)">
              <path id="路径_39981" data-name="路径 39981" d="M63.23,337.945l-.63-1.261L538.566,59.3l1.261,1.261Z" transform="translate(-62.6 -59.3)"/>
            </g>
          </g>
          <g id="组_22008" data-name="组 22008" transform="translate(495.837 32.165)">
            <g id="组_22004" data-name="组 22004" transform="translate(326.765 0)">
              <rect id="矩形_2724" data-name="矩形 2724" width="182.191" height="1.261" transform="translate(0 104.013) rotate(-34.814)"/>
            </g>
            <g id="组_22005" data-name="组 22005" transform="translate(327.17 104.435)">
              <rect id="矩形_2725" data-name="矩形 2725" width="1.261" height="163.278" transform="matrix(0.54, -0.841, 0.841, 0.54, 0, 1.061)"/>
            </g>
            <g id="组_22006" data-name="组 22006" transform="translate(0 103.907)">
              <rect id="矩形_2726" data-name="矩形 2726" width="370.055" height="1.261" transform="translate(0 173.556) rotate(-27.969)"/>
            </g>
            <g id="组_22007" data-name="组 22007" transform="translate(0 103.907)">
              <rect id="矩形_2727" data-name="矩形 2727" width="370.055" height="1.261" transform="translate(0 173.556) rotate(-27.969)"/>
            </g>
          </g>
          <g id="组_22011" data-name="组 22011" transform="translate(0 309.692)">
            <g id="组_22009" data-name="组 22009">
              <path id="路径_39982" data-name="路径 39982" d="M-16.1,576.113,480.669,104.561l-.63-1.261L-16.1,574.222Z" transform="translate(16.1 -103.3)"/>
            </g>
            <g id="组_22010" data-name="组 22010">
              <path id="路径_39983" data-name="路径 39983" d="M-16.1,576.113,480.669,104.561l-.63-1.261L-16.1,574.222Z" transform="translate(16.1 -103.3)"/>
            </g>
          </g>
          <g id="组_22018" data-name="组 22018" transform="translate(0 136.327)">
            <g id="组_22012" data-name="组 22012" transform="translate(0 127.344)">
              <path id="路径_39984" data-name="路径 39984" d="M-16.1,493.163,55.768,96H53.876L-16.1,484.337Z" transform="translate(16.1 -96)"/>
            </g>
            <g id="组_22013" data-name="组 22013" transform="translate(0 115.366)">
              <path id="路径_39985" data-name="路径 39985" d="M-16.1,94.1v1.261l70.607,11.347.63-1.261Z" transform="translate(16.1 -94.1)"/>
            </g>
            <g id="组_22014" data-name="组 22014" transform="translate(70.607)">
              <path id="路径_39986" data-name="路径 39986" d="M-4.27,203.775l-.63-1.261L747.819,75.8v1.261Z" transform="translate(4.9 -75.8)"/>
            </g>
            <g id="组_22015" data-name="组 22015" transform="translate(0 126.714)">
              <path id="路径_39987" data-name="路径 39987" d="M-16.1,143.181,55.137,97.161l-.63-1.261L-16.1,141.29Z" transform="translate(16.1 -95.9)"/>
            </g>
            <g id="组_22016" data-name="组 22016" transform="translate(71.065 126.796)">
              <rect id="矩形_2728" data-name="矩形 2728" width="1.261" height="428.054" transform="translate(0 1.253) rotate(-83.754)"/>
            </g>
            <g id="组_22017" data-name="组 22017" transform="translate(71.065 126.796)">
              <rect id="矩形_2729" data-name="矩形 2729" width="1.261" height="428.054" transform="translate(0 1.253) rotate(-83.754)"/>
            </g>
          </g>
          <g id="组_22024" data-name="组 22024" transform="translate(495.939 33.135)">
            <g id="组_22019" data-name="组 22019" transform="translate(326.126 103.822)">
              <path id="路径_39988" data-name="路径 39988" d="M215.8,741.621,114.3,75.9h1.891L217.058,741.621Z" transform="translate(-114.3 -75.9)"/>
            </g>
            <g id="组_22020" data-name="组 22020" transform="translate(427.475 0)">
              <rect id="矩形_2730" data-name="矩形 2730" width="771.001" height="1.261" transform="translate(0 769.459) rotate(-86.406)"/>
            </g>
            <g id="组_22021" data-name="组 22021" transform="translate(427.648 192.686)">
              <rect id="矩形_2731" data-name="矩形 2731" width="578.093" height="1.261" transform="translate(0 576.937) rotate(-86.392)"/>
            </g>
            <g id="组_22022" data-name="组 22022" transform="translate(0 276.653)">
              <rect id="矩形_2732" data-name="矩形 2732" width="1.261" height="652.483" transform="matrix(0.755, -0.656, 0.656, 0.755, 0, 0.827)"/>
            </g>
            <g id="组_22023" data-name="组 22023" transform="translate(0 276.653)">
              <rect id="矩形_2733" data-name="矩形 2733" width="1.261" height="652.483" transform="matrix(0.755, -0.656, 0.656, 0.755, 0, 0.827)"/>
            </g>
          </g>
          <g id="组_22032" data-name="组 22032" transform="translate(0 136.728)">
            <g id="组_22025" data-name="组 22025" transform="translate(529.871 665.909)">
              <rect id="矩形_2734" data-name="矩形 2734" width="404.098" height="1.891" transform="matrix(0.976, -0.219, 0.219, 0.976, 0, 88.336)"/>
            </g>
            <g id="组_22026" data-name="组 22026" transform="translate(69.976 126.313)">
              <path id="路径_39989" data-name="路径 39989" d="M454.575,725.688-5,97.161-3.739,95.9,455.836,725.057Z" transform="translate(5 -95.9)"/>
            </g>
            <g id="组_22027" data-name="组 22027" transform="translate(0 674.146)">
              <path id="路径_39990" data-name="路径 39990" d="M-16.1,182.8v1.261l530.182,81.324v-1.891Z" transform="translate(16.1 -182.8)"/>
            </g>
            <g id="组_22028" data-name="组 22028" transform="translate(529.561)">
              <rect id="矩形_2735" data-name="矩形 2735" width="810.087" height="1.891" transform="translate(0 755.406) rotate(-68.826)"/>
            </g>
            <g id="组_22029" data-name="组 22029" transform="translate(529.551 88.488)">
              <path id="路径_39991" data-name="路径 39991" d="M69.161,757.513l-1.261-.63L498.476,89.9l1.261.63Z" transform="translate(-67.9 -89.9)"/>
            </g>
            <g id="组_22030" data-name="组 22030" transform="translate(495.627 173.374)">
              <rect id="矩形_2736" data-name="矩形 2736" width="1.891" height="583.137" transform="matrix(0.998, -0.058, 0.058, 0.998, 0, 0.11)"/>
            </g>
            <g id="组_22031" data-name="组 22031" transform="translate(495.627 173.374)">
              <rect id="矩形_2737" data-name="矩形 2737" width="1.891" height="583.137" transform="matrix(0.998, -0.058, 0.058, 0.998, 0, 0.11)"/>
            </g>
          </g>
          <g id="组_22037" data-name="组 22037" transform="translate(822.695 0)">
            <g id="组_22033" data-name="组 22033" transform="translate(552.246 0.157)">
              <path id="路径_39992" data-name="路径 39992" d="M793.962,371.3,202.63,54.2,202,55.461l591.962,317.1Z" transform="translate(-202 -54.2)"/>
            </g>
            <g id="组_22034" data-name="组 22034" transform="translate(0 0.157)">
              <path id="路径_39993" data-name="路径 39993" d="M115.03,191.631l-.63-1.261L666.646,54.2l.63,1.261Z" transform="translate(-114.4 -54.2)"/>
            </g>
            <g id="组_22035" data-name="组 22035" transform="translate(150.039 0.157)">
              <path id="路径_39994" data-name="路径 39994" d="M138.2,87.612V86.351L540.407,54.2l.63,1.261Z" transform="translate(-138.2 -54.2)"/>
            </g>
            <g id="组_22036" data-name="组 22036" transform="translate(137.898)">
              <rect id="矩形_2738" data-name="矩形 2738" width="471.553" height="1.261" transform="matrix(0.879, -0.477, 0.477, 0.879, 0, 224.789)"/>
            </g>
          </g>
          <g id="组_22040" data-name="组 22040" transform="translate(924.193 225.193)">
            <g id="组_22038" data-name="组 22038" transform="translate(0 576.855)">
              <path id="路径_39995" data-name="路径 39995" d="M572.423,284.789,130.5,182.661V181.4L572.423,282.9Z" transform="translate(-130.5 -181.4)"/>
            </g>
            <g id="组_22039" data-name="组 22039" transform="translate(35.844 0)">
              <rect id="矩形_2739" data-name="矩形 2739" width="1.891" height="791.175" transform="translate(0 0.97) rotate(-30.843)"/>
            </g>
          </g>
          <g id="组_22048" data-name="组 22048" transform="translate(822.695 0.025)">
            <g id="组_22041" data-name="组 22041" transform="translate(542.664 534.601)">
              <rect id="矩形_2740" data-name="矩形 2740" width="398.424" height="1.891" transform="matrix(0.374, -0.927, 0.927, 0.374, 0, 369.459)"/>
            </g>
            <g id="组_22042" data-name="组 22042" transform="translate(551.651 0)">
              <rect id="矩形_2741" data-name="矩形 2741" width="1.891" height="552.246" transform="matrix(0.967, -0.253, 0.253, 0.967, 0, 0.479)"/>
            </g>
            <g id="组_22043" data-name="组 22043" transform="translate(692.199 393.513)">
              <path id="路径_39996" data-name="路径 39996" d="M676.21,116.6,224.2,257.183v1.261L676.21,118.491Z" transform="translate(-224.2 -116.6)"/>
            </g>
            <g id="组_22044" data-name="组 22044" transform="translate(101.262 533.511)">
              <rect id="矩形_2742" data-name="矩形 2742" width="648.7" height="1.261" transform="translate(0 268.627) rotate(-24.463)"/>
            </g>
            <g id="组_22045" data-name="组 22045" transform="translate(0 136.302)">
              <path id="路径_39997" data-name="路径 39997" d="M805.968,474.855,114.4,77.061l.63-1.261,692.2,397.794Z" transform="translate(-114.4 -75.8)"/>
            </g>
            <g id="组_22046" data-name="组 22046" transform="translate(149.585 32.046)">
              <rect id="矩形_2743" data-name="矩形 2743" width="1.891" height="738.85" transform="translate(0 1.388) rotate(-47.229)"/>
            </g>
            <g id="组_22047" data-name="组 22047" transform="translate(137.402 224.553)">
              <rect id="矩形_2744" data-name="矩形 2744" width="1.891" height="634.831" transform="translate(0 1.652) rotate(-60.849)"/>
            </g>
          </g>
          <g id="组_22050" data-name="组 22050" transform="translate(1514.894 534.12)">
            <g id="组_22049" data-name="组 22049">
              <path id="路径_39998" data-name="路径 39998" d="M676.21,256.788,224.2,138.9v1.261L676.21,258.679Z" transform="translate(-224.2 -138.9)"/>
            </g>
          </g>
          <g id="组_22056" data-name="组 22056" transform="translate(924.091 497.556)">
            <g id="组_22051" data-name="组 22051" transform="translate(742.734 341.056)">
              <path id="路径_39999" data-name="路径 39999" d="M548.379,187.2,248.3,283.654l.63,1.891,299.448-96.454Z" transform="translate(-248.3 -187.2)"/>
            </g>
            <g id="组_22052" data-name="组 22052" transform="translate(590.173 36.564)">
              <path id="路径_40000" data-name="路径 40000" d="M376.661,541.107,224.1,139.531l1.261-.631L377.922,540.476Z" transform="translate(-224.1 -138.9)"/>
            </g>
            <g id="组_22053" data-name="组 22053" transform="translate(441.745 405.549)">
              <rect id="矩形_2745" data-name="矩形 2745" width="1.891" height="302.601" transform="translate(0 1.881) rotate(-83.996)"/>
            </g>
            <g id="组_22054" data-name="组 22054" transform="translate(742.734)">
              <path id="路径_40001" data-name="路径 40001" d="M548.379,133.1,248.3,571.241l1.261.63L548.379,135.622Z" transform="translate(-248.3 -133.1)"/>
            </g>
            <g id="组_22055" data-name="组 22055" transform="translate(0 304.675)">
              <rect id="矩形_2746" data-name="矩形 2746" width="1.261" height="754.61" transform="translate(0 1.241) rotate(-79.81)"/>
            </g>
          </g>
        </g>
        <g id="组_22058" data-name="组 22058" transform="translate(62.717)">
          <path id="路径_40002" data-name="路径 40002" d="M71.76,118.234a8.183,8.183,0,1,1,5.674-10.087C78.694,111.929,76.173,116.973,71.76,118.234Z" transform="translate(364.184 208.017)"/>
          <path id="路径_40003" data-name="路径 40003" d="M145.46,104.734a8.183,8.183,0,1,1,5.674-10.087C151.764,99.06,149.242,103.473,145.46,104.734Z" transform="translate(755.102 136.411)"/>
          <path id="路径_40004" data-name="路径 40004" d="M71.76,118.234a8.183,8.183,0,1,1,5.674-10.087C78.694,111.929,76.173,116.973,71.76,118.234Z" transform="translate(364.184 208.017)"/>
          <path id="路径_40005" data-name="路径 40005" d="M145.46,104.734a8.183,8.183,0,1,1,5.674-10.087C151.764,99.06,149.242,103.473,145.46,104.734Z" transform="translate(755.102 136.411)"/>
          <path id="路径_40006" data-name="路径 40006" d="M145.46,104.734a8.183,8.183,0,1,1,5.674-10.087C151.764,99.06,149.242,103.473,145.46,104.734Z" transform="translate(755.102 136.411)"/>
          <path id="路径_40007" data-name="路径 40007" d="M147.36,74.234a8.183,8.183,0,1,1,5.674-10.087C154.294,67.929,151.773,72.973,147.36,74.234Z" transform="translate(765.18 -25.367)"/>
          <path id="路径_40008" data-name="路径 40008" d="M71.76,118.234a8.183,8.183,0,1,1,5.674-10.087C78.694,111.929,76.173,116.973,71.76,118.234Z" transform="translate(364.184 208.017)"/>
          <path id="路径_40009" data-name="路径 40009" d="M147.36,74.234a8.183,8.183,0,1,1,5.674-10.087C154.294,67.929,151.773,72.973,147.36,74.234Z" transform="translate(765.18 -25.367)"/>
          <path id="路径_40010" data-name="路径 40010" d="M71.76,118.234a8.183,8.183,0,1,1,5.674-10.087C78.694,111.929,76.173,116.973,71.76,118.234Z" transform="translate(364.184 208.017)"/>
          <path id="路径_40011" data-name="路径 40011" d="M147.36,74.234a8.183,8.183,0,1,1,5.674-10.087C154.294,67.929,151.773,72.973,147.36,74.234Z" transform="translate(765.18 -25.367)"/>
          <path id="路径_40012" data-name="路径 40012" d="M147.36,74.234a8.183,8.183,0,1,1,5.674-10.087C154.294,67.929,151.773,72.973,147.36,74.234Z" transform="translate(765.18 -25.367)"/>
          <path id="路径_40013" data-name="路径 40013" d="M123.56,90.734a8.183,8.183,0,1,1,5.674-10.087C130.494,84.429,127.973,89.473,123.56,90.734Z" transform="translate(638.94 62.152)"/>
          <path id="路径_40014" data-name="路径 40014" d="M145.46,104.734a8.183,8.183,0,1,1,5.674-10.087C151.764,99.06,149.242,103.473,145.46,104.734Z" transform="translate(755.102 136.411)"/>
          <path id="路径_40015" data-name="路径 40015" d="M123.56,90.734a8.183,8.183,0,1,1,5.674-10.087C130.494,84.429,127.973,89.473,123.56,90.734Z" transform="translate(638.94 62.152)"/>
          <path id="路径_40016" data-name="路径 40016" d="M71.76,118.234a8.183,8.183,0,1,1,5.674-10.087C78.694,111.929,76.173,116.973,71.76,118.234Z" transform="translate(364.184 208.017)"/>
          <path id="路径_40017" data-name="路径 40017" d="M123.56,90.734a8.183,8.183,0,1,1,5.674-10.087C130.494,84.429,127.973,89.473,123.56,90.734Z" transform="translate(638.94 62.152)"/>
          <path id="路径_40018" data-name="路径 40018" d="M71.76,118.234a8.183,8.183,0,1,1,5.674-10.087C78.694,111.929,76.173,116.973,71.76,118.234Z" transform="translate(364.184 208.017)"/>
          <path id="路径_40019" data-name="路径 40019" d="M123.56,90.734a8.183,8.183,0,1,1,5.674-10.087C130.494,84.429,127.973,89.473,123.56,90.734Z" transform="translate(638.94 62.152)"/>
          <path id="路径_40020" data-name="路径 40020" d="M71.76,118.234a8.183,8.183,0,1,1,5.674-10.087C78.694,111.929,76.173,116.973,71.76,118.234Z" transform="translate(364.184 208.017)"/>
          <path id="路径_40021" data-name="路径 40021" d="M71.76,118.234a8.183,8.183,0,1,1,5.674-10.087C78.694,111.929,76.173,116.973,71.76,118.234Z" transform="translate(364.184 208.017)"/>
          <path id="路径_40022" data-name="路径 40022" d="M4.26,110.834A8.1,8.1,0,0,1-5.827,105.16,8.1,8.1,0,0,1-.153,95.073a8.1,8.1,0,0,1,10.087,5.674C11.194,104.529,8.673,109.573,4.26,110.834Z" transform="translate(6.151 168.766)"/>
          <path id="路径_40023" data-name="路径 40023" d="M4.26,110.834A8.1,8.1,0,0,1-5.827,105.16,8.1,8.1,0,0,1-.153,95.073a8.1,8.1,0,0,1,10.087,5.674C11.194,104.529,8.673,109.573,4.26,110.834Z" transform="translate(6.151 168.766)"/>
          <path id="路径_40024" data-name="路径 40024" d="M123.56,90.734a8.183,8.183,0,1,1,5.674-10.087C130.494,84.429,127.973,89.473,123.56,90.734Z" transform="translate(638.94 62.152)"/>
          <path id="路径_40025" data-name="路径 40025" d="M4.26,110.834A8.1,8.1,0,0,1-5.827,105.16,8.1,8.1,0,0,1-.153,95.073a8.1,8.1,0,0,1,10.087,5.674C11.194,104.529,8.673,109.573,4.26,110.834Z" transform="translate(6.151 168.766)"/>
          <path id="路径_40026" data-name="路径 40026" d="M4.26,110.834A8.1,8.1,0,0,1-5.827,105.16,8.1,8.1,0,0,1-.153,95.073a8.1,8.1,0,0,1,10.087,5.674C11.194,104.529,8.673,109.573,4.26,110.834Z" transform="translate(6.151 168.766)"/>
          <path id="路径_40027" data-name="路径 40027" d="M71.76,118.234a8.183,8.183,0,1,1,5.674-10.087C78.694,111.929,76.173,116.973,71.76,118.234Z" transform="translate(364.184 208.017)"/>
          <path id="路径_40028" data-name="路径 40028" d="M4.26,110.834A8.1,8.1,0,0,1-5.827,105.16,8.1,8.1,0,0,1-.153,95.073a8.1,8.1,0,0,1,10.087,5.674C11.194,104.529,8.673,109.573,4.26,110.834Z" transform="translate(6.151 168.766)"/>
          <path id="路径_40029" data-name="路径 40029" d="M71.76,118.234a8.183,8.183,0,1,1,5.674-10.087C78.694,111.929,76.173,116.973,71.76,118.234Z" transform="translate(364.184 208.017)"/>
          <path id="路径_40030" data-name="路径 40030" d="M4.26,110.834A8.1,8.1,0,0,1-5.827,105.16,8.1,8.1,0,0,1-.153,95.073a8.1,8.1,0,0,1,10.087,5.674C11.194,104.529,8.673,109.573,4.26,110.834Z" transform="translate(6.151 168.766)"/>
          <path id="路径_40031" data-name="路径 40031" d="M123.56,90.734a8.183,8.183,0,1,1,5.674-10.087C130.494,84.429,127.973,89.473,123.56,90.734Z" transform="translate(638.94 62.152)"/>
          <path id="路径_40032" data-name="路径 40032" d="M139.66,196.234a8.183,8.183,0,1,1,5.674-10.087A8.1,8.1,0,0,1,139.66,196.234Z" transform="translate(724.337 621.743)"/>
          <path id="路径_40033" data-name="路径 40033" d="M147.36,74.234a8.183,8.183,0,1,1,5.674-10.087C154.294,67.929,151.773,72.973,147.36,74.234Z" transform="translate(765.18 -25.367)"/>
          <path id="路径_40034" data-name="路径 40034" d="M139.66,196.234a8.183,8.183,0,1,1,5.674-10.087A8.1,8.1,0,0,1,139.66,196.234Z" transform="translate(724.337 621.743)"/>
          <path id="路径_40035" data-name="路径 40035" d="M145.46,104.734a8.183,8.183,0,1,1,5.674-10.087C151.764,99.06,149.242,103.473,145.46,104.734Z" transform="translate(755.102 136.411)"/>
          <path id="路径_40036" data-name="路径 40036" d="M139.66,196.234a8.183,8.183,0,1,1,5.674-10.087A8.1,8.1,0,0,1,139.66,196.234Z" transform="translate(724.337 621.743)"/>
          <path id="路径_40037" data-name="路径 40037" d="M71.76,118.234a8.183,8.183,0,1,1,5.674-10.087C78.694,111.929,76.173,116.973,71.76,118.234Z" transform="translate(364.184 208.017)"/>
          <path id="路径_40038" data-name="路径 40038" d="M139.66,196.234a8.183,8.183,0,1,1,5.674-10.087A8.1,8.1,0,0,1,139.66,196.234Z" transform="translate(724.337 621.743)"/>
          <path id="路径_40039" data-name="路径 40039" d="M71.76,118.234a8.183,8.183,0,1,1,5.674-10.087C78.694,111.929,76.173,116.973,71.76,118.234Z" transform="translate(364.184 208.017)"/>
          <path id="路径_40040" data-name="路径 40040" d="M139.66,196.234a8.183,8.183,0,1,1,5.674-10.087A8.1,8.1,0,0,1,139.66,196.234Z" transform="translate(724.337 621.743)"/>
          <path id="路径_40041" data-name="路径 40041" d="M139.66,196.234a8.183,8.183,0,1,1,5.674-10.087A8.1,8.1,0,0,1,139.66,196.234Z" transform="translate(724.337 621.743)"/>
          <path id="路径_40042" data-name="路径 40042" d="M77.16,210.534a8.183,8.183,0,1,1,5.674-10.087A8.1,8.1,0,0,1,77.16,210.534Z" transform="translate(392.826 697.593)"/>
          <path id="路径_40043" data-name="路径 40043" d="M4.26,110.834A8.1,8.1,0,0,1-5.827,105.16,8.1,8.1,0,0,1-.153,95.073a8.1,8.1,0,0,1,10.087,5.674C11.194,104.529,8.673,109.573,4.26,110.834Z" transform="translate(6.151 168.766)"/>
          <path id="路径_40044" data-name="路径 40044" d="M77.16,210.534a8.183,8.183,0,1,1,5.674-10.087A8.1,8.1,0,0,1,77.16,210.534Z" transform="translate(392.826 697.593)"/>
          <path id="路径_40045" data-name="路径 40045" d="M77.16,210.534a8.183,8.183,0,1,1,5.674-10.087A8.1,8.1,0,0,1,77.16,210.534Z" transform="translate(392.826 697.593)"/>
          <path id="路径_40046" data-name="路径 40046" d="M123.56,90.734a8.183,8.183,0,1,1,5.674-10.087C130.494,84.429,127.973,89.473,123.56,90.734Z" transform="translate(638.94 62.152)"/>
          <path id="路径_40047" data-name="路径 40047" d="M77.16,210.534a8.183,8.183,0,1,1,5.674-10.087A8.1,8.1,0,0,1,77.16,210.534Z" transform="translate(392.826 697.593)"/>
          <path id="路径_40048" data-name="路径 40048" d="M145.46,104.734a8.183,8.183,0,1,1,5.674-10.087C151.764,99.06,149.242,103.473,145.46,104.734Z" transform="translate(755.102 136.411)"/>
          <path id="路径_40049" data-name="路径 40049" d="M77.16,210.534a8.183,8.183,0,1,1,5.674-10.087A8.1,8.1,0,0,1,77.16,210.534Z" transform="translate(392.826 697.593)"/>
          <path id="路径_40050" data-name="路径 40050" d="M71.76,118.234a8.183,8.183,0,1,1,5.674-10.087C78.694,111.929,76.173,116.973,71.76,118.234Z" transform="translate(364.184 208.017)"/>
          <path id="路径_40051" data-name="路径 40051" d="M77.16,210.534a8.183,8.183,0,1,1,5.674-10.087A8.1,8.1,0,0,1,77.16,210.534Z" transform="translate(392.826 697.593)"/>
          <path id="路径_40052" data-name="路径 40052" d="M71.76,118.234a8.183,8.183,0,1,1,5.674-10.087C78.694,111.929,76.173,116.973,71.76,118.234Z" transform="translate(364.184 208.017)"/>
          <path id="路径_40053" data-name="路径 40053" d="M77.16,210.534a8.183,8.183,0,1,1,5.674-10.087A8.1,8.1,0,0,1,77.16,210.534Z" transform="translate(392.826 697.593)"/>
          <path id="路径_40054" data-name="路径 40054" d="M211.16,69.034a8.183,8.183,0,1,1,5.674-10.087A8.1,8.1,0,0,1,211.16,69.034Z" transform="translate(1103.586 -52.949)"/>
          <path id="路径_40055" data-name="路径 40055" d="M123.56,90.734a8.183,8.183,0,1,1,5.674-10.087C130.494,84.429,127.973,89.473,123.56,90.734Z" transform="translate(638.94 62.152)"/>
          <path id="路径_40056" data-name="路径 40056" d="M211.16,69.034a8.183,8.183,0,1,1,5.674-10.087A8.1,8.1,0,0,1,211.16,69.034Z" transform="translate(1103.586 -52.949)"/>
          <path id="路径_40057" data-name="路径 40057" d="M147.36,74.234a8.183,8.183,0,1,1,5.674-10.087C154.294,67.929,151.773,72.973,147.36,74.234Z" transform="translate(765.18 -25.367)"/>
          <path id="路径_40058" data-name="路径 40058" d="M211.16,69.034a8.183,8.183,0,1,1,5.674-10.087A8.1,8.1,0,0,1,211.16,69.034Z" transform="translate(1103.586 -52.949)"/>
          <path id="路径_40059" data-name="路径 40059" d="M145.46,104.734a8.183,8.183,0,1,1,5.674-10.087C151.764,99.06,149.242,103.473,145.46,104.734Z" transform="translate(755.102 136.411)"/>
          <path id="路径_40060" data-name="路径 40060" d="M211.16,69.034a8.183,8.183,0,1,1,5.674-10.087A8.1,8.1,0,0,1,211.16,69.034Z" transform="translate(1103.586 -52.949)"/>
          <path id="路径_40061" data-name="路径 40061" d="M139.66,196.234a8.183,8.183,0,1,1,5.674-10.087A8.1,8.1,0,0,1,139.66,196.234Z" transform="translate(724.337 621.743)"/>
          <path id="路径_40062" data-name="路径 40062" d="M209.76,212.434a8.183,8.183,0,1,1,5.674-10.087A8.1,8.1,0,0,1,209.76,212.434Z" transform="translate(1096.16 707.671)"/>
          <path id="路径_40063" data-name="路径 40063" d="M145.46,104.734a8.183,8.183,0,1,1,5.674-10.087C151.764,99.06,149.242,103.473,145.46,104.734Z" transform="translate(755.102 136.411)"/>
          <path id="路径_40064" data-name="路径 40064" d="M209.76,212.434a8.183,8.183,0,1,1,5.674-10.087A8.1,8.1,0,0,1,209.76,212.434Z" transform="translate(1096.16 707.671)"/>
          <path id="路径_40065" data-name="路径 40065" d="M209.76,212.434a8.183,8.183,0,1,1,5.674-10.087A8.1,8.1,0,0,1,209.76,212.434Z" transform="translate(1096.16 707.671)"/>
          <path id="路径_40066" data-name="路径 40066" d="M233.36,153.733a8.183,8.183,0,1,1,5.674-10.087A8.1,8.1,0,0,1,233.36,153.733Z" transform="translate(1221.339 396.315)"/>
          <path id="路径_40067" data-name="路径 40067" d="M211.16,69.034a8.183,8.183,0,1,1,5.674-10.087A8.1,8.1,0,0,1,211.16,69.034Z" transform="translate(1103.586 -52.949)"/>
          <path id="路径_40068" data-name="路径 40068" d="M233.36,153.733a8.183,8.183,0,1,1,5.674-10.087A8.1,8.1,0,0,1,233.36,153.733Z" transform="translate(1221.339 396.315)"/>
          <path id="路径_40069" data-name="路径 40069" d="M233.36,153.733a8.183,8.183,0,1,1,5.674-10.087A8.1,8.1,0,0,1,233.36,153.733Z" transform="translate(1221.339 396.315)"/>
          <path id="路径_40070" data-name="路径 40070" d="M139.66,196.234a8.183,8.183,0,1,1,5.674-10.087A8.1,8.1,0,0,1,139.66,196.234Z" transform="translate(724.337 621.743)"/>
          <path id="路径_40071" data-name="路径 40071" d="M233.36,153.733a8.183,8.183,0,1,1,5.674-10.087A8.1,8.1,0,0,1,233.36,153.733Z" transform="translate(1221.339 396.315)"/>
          <path id="路径_40072" data-name="路径 40072" d="M123.56,90.734a8.183,8.183,0,1,1,5.674-10.087C130.494,84.429,127.973,89.473,123.56,90.734Z" transform="translate(638.94 62.152)"/>
          <path id="路径_40073" data-name="路径 40073" d="M233.36,153.733a8.183,8.183,0,1,1,5.674-10.087A8.1,8.1,0,0,1,233.36,153.733Z" transform="translate(1221.339 396.315)"/>
          <path id="路径_40074" data-name="路径 40074" d="M147.36,74.234a8.183,8.183,0,1,1,5.674-10.087C154.294,67.929,151.773,72.973,147.36,74.234Z" transform="translate(765.18 -25.367)"/>
          <path id="路径_40075" data-name="路径 40075" d="M233.36,153.733a8.183,8.183,0,1,1,5.674-10.087A8.1,8.1,0,0,1,233.36,153.733Z" transform="translate(1221.339 396.315)"/>
          <path id="路径_40076" data-name="路径 40076" d="M145.46,104.734a8.183,8.183,0,1,1,5.674-10.087C151.764,99.06,149.242,103.473,145.46,104.734Z" transform="translate(755.102 136.411)"/>
          <path id="路径_40077" data-name="路径 40077" d="M233.36,153.733a8.183,8.183,0,1,1,5.674-10.087A8.1,8.1,0,0,1,233.36,153.733Z" transform="translate(1221.339 396.315)"/>
          <path id="路径_40078" data-name="路径 40078" d="M233.36,153.733a8.183,8.183,0,1,1,5.674-10.087A8.1,8.1,0,0,1,233.36,153.733Z" transform="translate(1221.339 396.315)"/>
          <path id="路径_40079" data-name="路径 40079" d="M257.46,217.434a8.183,8.183,0,1,1,5.674-10.087A8.1,8.1,0,0,1,257.46,217.434Z" transform="translate(1349.17 734.192)"/>
          <path id="路径_40080" data-name="路径 40080" d="M233.36,153.733a8.183,8.183,0,1,1,5.674-10.087A8.1,8.1,0,0,1,233.36,153.733Z" transform="translate(1221.339 396.315)"/>
          <path id="路径_40081" data-name="路径 40081" d="M257.46,217.434a8.183,8.183,0,1,1,5.674-10.087A8.1,8.1,0,0,1,257.46,217.434Z" transform="translate(1349.17 734.192)"/>
          <path id="路径_40082" data-name="路径 40082" d="M209.76,212.434a8.183,8.183,0,1,1,5.674-10.087A8.1,8.1,0,0,1,209.76,212.434Z" transform="translate(1096.16 707.671)"/>
          <path id="路径_40083" data-name="路径 40083" d="M257.46,217.434a8.183,8.183,0,1,1,5.674-10.087A8.1,8.1,0,0,1,257.46,217.434Z" transform="translate(1349.17 734.192)"/>
          <path id="路径_40084" data-name="路径 40084" d="M257.46,217.434a8.183,8.183,0,1,1,5.674-10.087A8.1,8.1,0,0,1,257.46,217.434Z" transform="translate(1349.17 734.192)"/>
          <path id="路径_40085" data-name="路径 40085" d="M139.66,196.234a8.183,8.183,0,1,1,5.674-10.087A8.1,8.1,0,0,1,139.66,196.234Z" transform="translate(724.337 621.743)"/>
        </g>
      </g>
    </g>
    <path id="路径_41052" data-name="路径 41052" d="M451.75,124.3a55.508,55.508,0,0,1,.35,6.4v15.6a43.349,43.349,0,0,1-.4,6.45h7.1a27.605,27.605,0,0,1,2.8-4.6l9.6-12.7a8.738,8.738,0,0,0,.9-1.45c.05-.1.15-.25.3-.5-.05,1.05-.05,1.05-.1,2.65l-.05,10.2a45.872,45.872,0,0,1-.35,6.4h6.95a50.679,50.679,0,0,1-.35-6.45V130.7a50.929,50.929,0,0,1,.35-6.4h-7a19.767,19.767,0,0,1-2.8,4.65l-9.45,12.6c-.3.4-.75,1.1-1.1,1.65a3.21,3.21,0,0,1-.3.5c.05-1.4.1-2.35.1-2.85v-10.1a50.153,50.153,0,0,1,.35-6.45Zm66,7.9a16.645,16.645,0,0,0-1.75-3.65c-2.4-3.5-6.3-5.4-11.2-5.4a13.692,13.692,0,0,0-10.05,3.8,16.167,16.167,0,0,0-4.25,11.55c0,9.25,5.7,15.2,14.5,15.2,4.75,0,8.6-1.75,11-5a14.973,14.973,0,0,0,2.1-4.3l-6.2-1.25a6.989,6.989,0,0,1-1,2.5,6.693,6.693,0,0,1-5.75,2.8c-5.05,0-8.15-3.85-8.15-10.1,0-6.2,3.05-10.05,7.95-10.05a6.291,6.291,0,0,1,5.15,2.3,9.527,9.527,0,0,1,1.55,3.05Zm29.1,20.55a51.5,51.5,0,0,1-.35-6.5v-16.5h3.9a55.389,55.389,0,0,1,6.4.3v-6.1a45.872,45.872,0,0,1-6.4.35H536.2a47.323,47.323,0,0,1-6.4-.35v6.1a59.184,59.184,0,0,1,6.5-.3h3.8v16.5a46.011,46.011,0,0,1-.35,6.5Zm35.55.95c8.9,0,14.75-6.1,14.75-15.35s-5.75-15.15-14.8-15.15c-9.1,0-14.9,5.95-14.9,15.25C567.45,147.8,573.25,153.7,582.4,153.7Zm-.05-25.3c5.3,0,8.35,3.7,8.35,10.15,0,6.1-3.2,9.85-8.4,9.85s-8.4-3.8-8.4-9.95C573.9,132.2,577.1,128.4,582.35,128.4Zm26.25-4.1a54.654,54.654,0,0,1,.35,6.35v5.55c0,4.7,2.25,6.45,8.25,6.45a64.773,64.773,0,0,0,8.5-.6v4.4a57.585,57.585,0,0,1-.35,6.3h7a43.284,43.284,0,0,1-.35-6.2V130.6a48.774,48.774,0,0,1,.35-6.3h-7a52.052,52.052,0,0,1,.35,6.3v6.6a52.333,52.333,0,0,1-5.7.3c-2.45,0-3-.05-3.7-.3-.7-.3-1.05-1-1.05-2.25v-4.3a47.028,47.028,0,0,1,.35-6.35Zm44.95,28.45a46.834,46.834,0,0,1-.35-6.4V140.7h14.2v5.65a52.583,52.583,0,0,1-.35,6.4h6.9a47.817,47.817,0,0,1-.35-6.4v-15.6a44.777,44.777,0,0,1,.35-6.45h-6.9a51.213,51.213,0,0,1,.35,6.45v4.45H653.2v-4.5a49.343,49.343,0,0,1,.35-6.4h-6.9a52.023,52.023,0,0,1,.35,6.4v15.65a39.622,39.622,0,0,1-.35,6.4Zm32.2-28.45a55.508,55.508,0,0,1,.35,6.4v15.6a43.354,43.354,0,0,1-.4,6.45h7.1a27.605,27.605,0,0,1,2.8-4.6l9.6-12.7a8.742,8.742,0,0,0,.9-1.45c.05-.1.15-.25.3-.5-.05,1.05-.05,1.05-.1,2.65l-.05,10.2a45.872,45.872,0,0,1-.35,6.4h6.95a50.679,50.679,0,0,1-.35-6.45V130.7a50.929,50.929,0,0,1,.35-6.4h-7a19.767,19.767,0,0,1-2.8,4.65l-9.45,12.6c-.3.4-.75,1.1-1.1,1.65a3.209,3.209,0,0,1-.3.5c.05-1.4.1-2.35.1-2.85v-10.1a50.153,50.153,0,0,1,.35-6.45Zm40.5,0a50.112,50.112,0,0,1,.35,6.35v15.7a50.393,50.393,0,0,1-.35,6.4h7a50.393,50.393,0,0,1-.35-6.4v-5.8h1.25a7.033,7.033,0,0,1,2,.3c1.15.45,2.5,2.05,4.05,4.7,3.45,5.9,3.45,5.9,3.85,7.2h8.8a25.593,25.593,0,0,1-2.7-3.6c-2.35-3.45-2.35-3.45-3.6-5.2-2.35-3.45-2.35-3.45-3.3-4.4a6.686,6.686,0,0,0-4.5-1.85,6.275,6.275,0,0,0,3.95-2.65l3.4-4.95A2.265,2.265,0,0,1,748,129a2.981,2.981,0,0,1,1.6.5l1.7-4.95a9.214,9.214,0,0,0-4.25-.85,6.386,6.386,0,0,0-5.65,3.15l-3.9,5.9a4.873,4.873,0,0,1-3.9,2.3h-.7v-4.4a46.052,46.052,0,0,1,.35-6.35Z" transform="translate(243 450)" fill="#0080f4" opacity="0.8"/>
    <path id="路径_41053" data-name="路径 41053" d="M5-9.6a4.159,4.159,0,0,0-3.1,1.2A5.137,5.137,0,0,0,.54-4.656c0,3.048,1.752,5,4.476,5S9.5-1.62,9.5-4.656A5.175,5.175,0,0,0,8.16-8.4,4.205,4.205,0,0,0,5-9.6ZM5.04-1.08a2.591,2.591,0,0,1-1.86-.732,3.965,3.965,0,0,1-.972-2.832c0-2.172,1.092-3.54,2.82-3.54a2.583,2.583,0,0,1,1.848.732,3.876,3.876,0,0,1,.948,2.8C7.824-2.448,6.756-1.08,5.04-1.08ZM36.576-9.408a9.767,9.767,0,0,1,.1,1.644V-3.54a2.191,2.191,0,0,1-2.436,2.484,2.2,2.2,0,0,1-2.46-2.472V-7.764a9.41,9.41,0,0,1,.1-1.644H30.084a9.858,9.858,0,0,1,.1,1.644v4.236a3.865,3.865,0,0,0,.9,2.76A4.134,4.134,0,0,0,34.176.36c2.616,0,4.092-1.392,4.092-3.876v-4.26a9.7,9.7,0,0,1,.1-1.632ZM67.332.144c-.168-.324-.468-.972-.564-1.188C65.58-3.852,65.352-4.188,64.6-4.428a2.537,2.537,0,0,0,1.332-.7,2.467,2.467,0,0,0,.612-1.788c0-1.584-1.044-2.5-2.868-2.5h-2.88c-.66,0-1.032-.012-1.536-.036a10.677,10.677,0,0,1,.1,1.56v6.468a9.391,9.391,0,0,1-.1,1.56h1.788a9.364,9.364,0,0,1-.1-1.572V-3.876h1.788c.924,0,1.344.444,1.992,2.1a9.714,9.714,0,0,1,.624,1.92ZM60.948-5.244v-2.8h2.46c.984,0,1.476.444,1.476,1.308A1.424,1.424,0,0,1,64.5-5.676a1.617,1.617,0,0,1-1.14.432ZM116.7.144a9.771,9.771,0,0,1,.528-1.6l1.8-4.224a14.644,14.644,0,0,0,.552-1.752c-.012.18-.048.792-.1,1.836v3.984a11.156,11.156,0,0,1-.1,1.752h1.68a10.4,10.4,0,0,1-.1-1.752V-7.632a12.427,12.427,0,0,1,.1-1.776H118.86a6.65,6.65,0,0,1-.432,1.428L116-2.028,113.568-7.98a8.305,8.305,0,0,1-.444-1.428h-2.2a11.9,11.9,0,0,1,.1,1.776v6.024a11.254,11.254,0,0,1-.1,1.752h1.68a10.964,10.964,0,0,1-.1-1.752V-5.544c0-.264-.048-1.248-.1-1.884a13.354,13.354,0,0,0,.612,1.836l1.728,4.116a8.169,8.169,0,0,1,.528,1.62Zm25.272-9.552a8.966,8.966,0,0,1,.1,1.548V-1.4a9.055,9.055,0,0,1-.1,1.548H143.8a9.055,9.055,0,0,1-.1-1.548V-7.86a8.966,8.966,0,0,1,.1-1.548Zm22.4,6.756a4.1,4.1,0,0,0,.228,1A2.825,2.825,0,0,0,165.66-.288a4.825,4.825,0,0,0,2.52.624,3.977,3.977,0,0,0,2.868-.912,2.792,2.792,0,0,0,.756-2.04,2.368,2.368,0,0,0-1-2.064,5.283,5.283,0,0,0-1.956-.732,10.216,10.216,0,0,1-1.692-.432,1.141,1.141,0,0,1-.816-1.092c0-.78.708-1.308,1.752-1.308a1.9,1.9,0,0,1,1.5.576,1.55,1.55,0,0,1,.36.852l1.716-.2a3.235,3.235,0,0,0-.588-1.392A3.537,3.537,0,0,0,168.1-9.624c-2.064,0-3.408,1.08-3.408,2.748a2.362,2.362,0,0,0,.924,1.944,4.242,4.242,0,0,0,1.812.732,7.566,7.566,0,0,1,2.088.588,1.218,1.218,0,0,1,.6,1.1c0,.9-.72,1.44-1.92,1.44a2.13,2.13,0,0,1-1.752-.708,1.72,1.72,0,0,1-.336-1.056Zm27.78,0a4.1,4.1,0,0,0,.228,1A2.825,2.825,0,0,0,193.44-.288a4.825,4.825,0,0,0,2.52.624,3.977,3.977,0,0,0,2.868-.912,2.792,2.792,0,0,0,.756-2.04,2.368,2.368,0,0,0-1-2.064,5.283,5.283,0,0,0-1.956-.732,10.216,10.216,0,0,1-1.692-.432,1.141,1.141,0,0,1-.816-1.092c0-.78.708-1.308,1.752-1.308a1.9,1.9,0,0,1,1.5.576,1.55,1.55,0,0,1,.36.852l1.716-.2a3.235,3.235,0,0,0-.588-1.392,3.537,3.537,0,0,0-2.988-1.212c-2.064,0-3.408,1.08-3.408,2.748a2.362,2.362,0,0,0,.924,1.944A4.242,4.242,0,0,0,195.2-4.2a7.566,7.566,0,0,1,2.088.588,1.218,1.218,0,0,1,.6,1.1c0,.9-.72,1.44-1.92,1.44a2.13,2.13,0,0,1-1.752-.708,1.72,1.72,0,0,1-.336-1.056Zm28.092-6.756a8.966,8.966,0,0,1,.1,1.548V-1.4a9.055,9.055,0,0,1-.1,1.548h1.824a9.055,9.055,0,0,1-.1-1.548V-7.86a8.966,8.966,0,0,1,.1-1.548ZM247.116-9.6a4.159,4.159,0,0,0-3.1,1.2,5.137,5.137,0,0,0-1.368,3.744c0,3.048,1.752,5,4.476,5s4.488-1.968,4.488-5A5.175,5.175,0,0,0,250.272-8.4,4.205,4.205,0,0,0,247.116-9.6Zm.036,8.52a2.591,2.591,0,0,1-1.86-.732,3.965,3.965,0,0,1-.972-2.832c0-2.172,1.092-3.54,2.82-3.54a2.583,2.583,0,0,1,1.848.732,3.876,3.876,0,0,1,.948,2.8C249.936-2.448,248.868-1.08,247.152-1.08ZM280.368.144a9.055,9.055,0,0,1-.1-1.548V-7.752a10.493,10.493,0,0,1,.1-1.656h-1.752a10.489,10.489,0,0,1,.1,1.656V-3.72c0,.5.036,1.224.084,1.692-.264-.48-.648-1.1-.936-1.536l-3.036-4.572a6.582,6.582,0,0,1-.732-1.272H272.22a9.993,9.993,0,0,1,.1,1.548v6.192a12.983,12.983,0,0,1-.1,1.812h1.752a13.282,13.282,0,0,1-.1-1.8V-5.592c0-.276-.024-.816-.036-1.044-.036-.444-.036-.444-.048-.612.288.564.588,1.08.816,1.44l3.1,4.668a11.958,11.958,0,0,1,.768,1.284Z" transform="translate(243 400)"/>
    <path id="路径_41054" data-name="路径 41054" d="M28.85,52.9c8.3,0,12.95-3.95,12.95-11a9.87,9.87,0,0,0-3.1-7.65c-1.35-1.25-2.5-1.75-5.05-2.3a8.46,8.46,0,0,0,3.95-2.1,8.9,8.9,0,0,0,2.8-7c0-6.25-4.35-9.75-12.1-9.75H16.5c-3.4,0-4.2,0-6.3-.1a47.663,47.663,0,0,1,.4,6.15V46.3a35.685,35.685,0,0,1-.45,6.75c2.05-.1,3.5-.15,6.4-.15ZM17.2,29.35V18.7H27.55a7.092,7.092,0,0,1,4.8,1.55,5.048,5.048,0,0,1,1.3,3.65c0,3.45-2.25,5.45-6.05,5.45Zm0,5.55H27.85a8.169,8.169,0,0,1,5.45,1.7A5.531,5.531,0,0,1,34.9,41c0,4-2.5,6.25-6.95,6.25H17.2Zm60.95,5.15c-.1-1.15-.1-1.3-.1-1.4a20.554,20.554,0,0,0-1.45-7.6c-2-5-6.6-7.9-12.45-7.9-8.55,0-14.1,6.05-14.1,15.3,0,9.35,5.6,15.25,14.45,15.25a14.2,14.2,0,0,0,10.3-3.85,14.052,14.052,0,0,0,3.05-4.6l-5.9-1.9a7.267,7.267,0,0,1-1.45,2.6,8.411,8.411,0,0,1-12.25-.3c-1.15-1.45-1.6-2.85-1.85-5.6ZM56.55,35.1c.75-4.2,3.6-6.8,7.5-6.8a7.131,7.131,0,0,1,5.4,2,7.848,7.848,0,0,1,2.2,4.8Zm39.7,22.85a45.789,45.789,0,0,1-.35-5.35V49.1a25.307,25.307,0,0,0-.1-2.65,6.684,6.684,0,0,0,1.9,2,13.251,13.251,0,0,0,7.8,2.3c8.65,0,13.8-5.15,13.8-13.8,0-8.35-4.95-13.3-13.3-13.3-4.6,0-8.05,1.5-10.2,4.35.05-.75.05-1,.05-1.5V24.3h-6.6a44.9,44.9,0,0,1,.35,6.15v21.4a43.177,43.177,0,0,1-.35,6.1ZM96.1,37.2a8.6,8.6,0,0,1,2.65-6.35,9.432,9.432,0,0,1,5.85-2.25c5.1,0,8.05,3.1,8.05,8.5,0,5.35-2.95,8.65-7.8,8.65A8.411,8.411,0,0,1,96.1,37.2Zm39.15,15.55a46.833,46.833,0,0,1-.35-6.4V40.7h14.2v5.65a52.583,52.583,0,0,1-.35,6.4h6.9a47.818,47.818,0,0,1-.35-6.4V30.75a44.778,44.778,0,0,1,.35-6.45h-6.9a51.212,51.212,0,0,1,.35,6.45V35.2H134.9V30.7a49.342,49.342,0,0,1,.35-6.4h-6.9a52.024,52.024,0,0,1,.35,6.4V46.35a39.63,39.63,0,0,1-.35,6.4Zm34.3,4.45a25.682,25.682,0,0,0,6.05.75c4.2,0,7.1-1.7,8.65-5.05l10.6-23c1.45-3,2.3-4.85,2.7-5.6l-7.4.05a25.454,25.454,0,0,1-1.85,5.3l-5.45,13.2-6.1-13.2a24.421,24.421,0,0,1-1.85-5.35h-7.55a61.526,61.526,0,0,1,2.85,5.6l9.25,18.8-.6,1.4c-.7,1.55-2,2.3-4.05,2.3a8.911,8.911,0,0,1-3.95-.95Zm64.6-17.15c-.1-1.15-.1-1.3-.1-1.4a20.555,20.555,0,0,0-1.45-7.6c-2-5-6.6-7.9-12.45-7.9-8.55,0-14.1,6.05-14.1,15.3,0,9.35,5.6,15.25,14.45,15.25a14.2,14.2,0,0,0,10.3-3.85,14.052,14.052,0,0,0,3.05-4.6l-5.9-1.9a7.267,7.267,0,0,1-1.45,2.6,8.411,8.411,0,0,1-12.25-.3c-1.15-1.45-1.6-2.85-1.85-5.6Zm-21.6-4.95c.75-4.2,3.6-6.8,7.5-6.8a7.131,7.131,0,0,1,5.4,2,7.848,7.848,0,0,1,2.2,4.8Zm63.4,17.65a46.651,46.651,0,0,1-.35-6.45V30.7a53.727,53.727,0,0,1,.35-6.4h-8.2a2.844,2.844,0,0,1-.15.8c-.15.65-1.35,4.05-1.45,4.3L259,44.45,251.8,29.4c-.15-.4-1.25-3.55-1.45-4.15-.05-.3-.1-.5-.15-.95H242a55.762,55.762,0,0,1,.35,6.45V46.3a44.778,44.778,0,0,1-.35,6.45h6.5a47.621,47.621,0,0,1-.35-6.45V36.55c0-1.25-.05-2.35-.2-4.2A25.884,25.884,0,0,0,249.3,36l5.4,11a36.171,36.171,0,0,1,2.1,5.75h4.35a31.436,31.436,0,0,1,2.05-5.7L268.65,36A27.43,27.43,0,0,0,270,32.35a41.971,41.971,0,0,0-.2,4.2V46.3a52.3,52.3,0,0,1-.35,6.45Zm35.5-20.55a16.644,16.644,0,0,0-1.75-3.65c-2.4-3.5-6.3-5.4-11.2-5.4a13.692,13.692,0,0,0-10.05,3.8A16.167,16.167,0,0,0,284.2,38.5c0,9.25,5.7,15.2,14.5,15.2,4.75,0,8.6-1.75,11-5a14.972,14.972,0,0,0,2.1-4.3l-6.2-1.25a6.989,6.989,0,0,1-1,2.5,6.693,6.693,0,0,1-5.75,2.8c-5.05,0-8.15-3.85-8.15-10.1,0-6.2,3.05-10.05,7.95-10.05a6.291,6.291,0,0,1,5.15,2.3,9.527,9.527,0,0,1,1.55,3.05Zm30.35,9.1v4.95a51.5,51.5,0,0,1-.35,6.5h6.9A49.633,49.633,0,0,1,348,46.3V30.55a49.864,49.864,0,0,1,.35-6.4c-2.05.1-3.6.15-6.3.15H333.7c-6,0-9.5,2.85-9.5,7.75a6.681,6.681,0,0,0,2.65,5.8,6.966,6.966,0,0,0,3.5,1.35,4.423,4.423,0,0,0-2.1,1.25,21.666,21.666,0,0,0-3.15,5.25c-2.8,5.85-2.8,5.85-3.6,7.05h7.75a35.177,35.177,0,0,1,2.55-6.7c1.8-3.8,2.75-4.75,5-4.75Zm0-5.15h-7c-2.85,0-4.25-1.1-4.25-3.35s1.35-3.35,4.1-3.35h7.15Zm42.45,16.6c6.65,0,10.2-2.75,10.2-7.9a6.751,6.751,0,0,0-2.3-5.45,6.571,6.571,0,0,0-4.1-1.65c3.5-.8,5.3-3,5.3-6.5,0-4.65-3.2-6.95-9.55-6.95h-8.25c-3,0-4.25-.05-6.25-.15a48.828,48.828,0,0,1,.35,6.4V46.5a48.828,48.828,0,0,1-.35,6.4c2.2-.1,3.5-.15,6.3-.15Zm-8.45-17.1V29.1h7.3c2.85,0,4.2,1,4.2,3.1,0,2.25-1.45,3.45-4.15,3.45Zm0,4.45h7.6c3.3,0,4.85,1.25,4.85,3.95,0,2.6-1.55,3.85-4.8,3.85H375.8Zm63.95-7.9A16.644,16.644,0,0,0,438,28.55c-2.4-3.5-6.3-5.4-11.2-5.4a13.692,13.692,0,0,0-10.05,3.8A16.167,16.167,0,0,0,412.5,38.5c0,9.25,5.7,15.2,14.5,15.2,4.75,0,8.6-1.75,11-5a14.972,14.972,0,0,0,2.1-4.3l-6.2-1.25a6.989,6.989,0,0,1-1,2.5,6.693,6.693,0,0,1-5.75,2.8c-5.05,0-8.15-3.85-8.15-10.1,0-6.2,3.05-10.05,7.95-10.05a6.291,6.291,0,0,1,5.15,2.3,9.527,9.527,0,0,1,1.55,3.05ZM465.4,53.7c8.9,0,14.75-6.1,14.75-15.35S474.4,23.2,465.35,23.2c-9.1,0-14.9,5.95-14.9,15.25C450.45,47.8,456.25,53.7,465.4,53.7Zm-.05-25.3c5.3,0,8.35,3.7,8.35,10.15,0,6.1-3.2,9.85-8.4,9.85s-8.4-3.8-8.4-9.95C456.9,32.2,460.1,28.4,465.35,28.4ZM504.4,53.7c8.9,0,14.75-6.1,14.75-15.35S513.4,23.2,504.35,23.2c-9.1,0-14.9,5.95-14.9,15.25C489.45,47.8,495.25,53.7,504.4,53.7Zm-.05-25.3c5.3,0,8.35,3.7,8.35,10.15,0,6.1-3.2,9.85-8.4,9.85s-8.4-3.8-8.4-9.95C495.9,32.2,499.1,28.4,504.35,28.4ZM549,19.55a8.7,8.7,0,0,0,7.8-3.85l-4.45-3.5a5.221,5.221,0,0,1-4.85,2.4h-4.85c-4.9,0-8.5,1.75-10.8,5.3-2.05,3.1-3.25,8.7-3.25,15,0,4.55.85,8.8,2.35,11.65,2.35,4.45,6.7,6.85,12.5,6.85,8.9,0,14.7-6,14.7-15.25,0-8.65-5.1-14.25-13.05-14.25-4.8,0-7.4,1.15-9.8,4.25.5-3,.95-4.35,1.9-5.7,1.35-2,3.4-2.9,6.45-2.9Zm-5.05,9.35a7.376,7.376,0,0,1,4.75,1.6c1.95,1.45,3,4.35,3,7.95a11.073,11.073,0,0,1-1.8,6.65,7.806,7.806,0,0,1-6.45,2.95c-5.2,0-8.3-3.55-8.3-9.45S538.6,28.9,543.95,28.9Zm55.65,1.75a40.31,40.31,0,0,1,.4-6.35h-6.7a53.466,53.466,0,0,1,.35,6.35V47.3H584.9V30.65a48.028,48.028,0,0,1,.35-6.35h-6.5a49.056,49.056,0,0,1,.35,6.35V47.3h-8.8V30.65a42.375,42.375,0,0,1,.35-6.35H564a51.752,51.752,0,0,1,.35,6.35v15.8A50.153,50.153,0,0,1,564,52.9c2.15-.1,3.45-.15,6.25-.15h25.6V54.3a16.319,16.319,0,0,1-.35,3.7h7.05a18.694,18.694,0,0,1-.35-3.75v-3a32.405,32.405,0,0,1,.35-4.1c-1.55.1-1.55.1-2.95.15Zm35.85,9.4c-.1-1.15-.1-1.3-.1-1.4a20.553,20.553,0,0,0-1.45-7.6c-2-5-6.6-7.9-12.45-7.9-8.55,0-14.1,6.05-14.1,15.3,0,9.35,5.6,15.25,14.45,15.25a14.2,14.2,0,0,0,10.3-3.85,14.051,14.051,0,0,0,3.05-4.6l-5.9-1.9a7.267,7.267,0,0,1-1.45,2.6,8.411,8.411,0,0,1-12.25-.3c-1.15-1.45-1.6-2.85-1.85-5.6Zm-21.6-4.95c.75-4.2,3.6-6.8,7.5-6.8a7.131,7.131,0,0,1,5.4,2,7.848,7.848,0,0,1,2.2,4.8Zm59.9-2.9A16.645,16.645,0,0,0,672,28.55c-2.4-3.5-6.3-5.4-11.2-5.4a13.692,13.692,0,0,0-10.05,3.8A16.167,16.167,0,0,0,646.5,38.5c0,9.25,5.7,15.2,14.5,15.2,4.75,0,8.6-1.75,11-5a14.973,14.973,0,0,0,2.1-4.3l-6.2-1.25a6.988,6.988,0,0,1-1,2.5,6.693,6.693,0,0,1-5.75,2.8c-5.05,0-8.15-3.85-8.15-10.1,0-6.2,3.05-10.05,7.95-10.05a6.291,6.291,0,0,1,5.15,2.3,9.527,9.527,0,0,1,1.55,3.05Zm29.1,20.55a51.5,51.5,0,0,1-.35-6.5V29.75h3.9a55.388,55.388,0,0,1,6.4.3v-6.1a45.872,45.872,0,0,1-6.4.35H692.2a47.323,47.323,0,0,1-6.4-.35v6.1a59.183,59.183,0,0,1,6.5-.3h3.8v16.5a46.011,46.011,0,0,1-.35,6.5Zm38.05,0c6.65,0,10.2-2.75,10.2-7.9a6.751,6.751,0,0,0-2.3-5.45,6.571,6.571,0,0,0-4.1-1.65c3.5-.8,5.3-3,5.3-6.5,0-4.65-3.2-6.95-9.55-6.95H732.2c-3,0-4.25-.05-6.25-.15a48.828,48.828,0,0,1,.35,6.4V46.5a48.828,48.828,0,0,1-.35,6.4c2.2-.1,3.5-.15,6.3-.15Zm-8.45-17.1V29.1h7.3c2.85,0,4.2,1,4.2,3.1,0,2.25-1.45,3.45-4.15,3.45Zm0,4.45h7.6c3.3,0,4.85,1.25,4.85,3.95,0,2.6-1.55,3.85-4.8,3.85h-7.65ZM777.4,53.7c8.9,0,14.75-6.1,14.75-15.35S786.4,23.2,777.35,23.2c-9.1,0-14.9,5.95-14.9,15.25C762.45,47.8,768.25,53.7,777.4,53.7Zm-.05-25.3c5.3,0,8.35,3.7,8.35,10.15,0,6.1-3.2,9.85-8.4,9.85s-8.4-3.8-8.4-9.95C768.9,32.2,772.1,28.4,777.35,28.4ZM11.45,124.3a55.508,55.508,0,0,1,.35,6.4v15.6a43.352,43.352,0,0,1-.4,6.45h7.1a27.6,27.6,0,0,1,2.8-4.6l9.6-12.7a8.741,8.741,0,0,0,.9-1.45c.05-.1.15-.25.3-.5-.05,1.05-.05,1.05-.1,2.65l-.05,10.2a45.873,45.873,0,0,1-.35,6.4h6.95a50.679,50.679,0,0,1-.35-6.45V130.7a50.929,50.929,0,0,1,.35-6.4h-7a19.767,19.767,0,0,1-2.8,4.65l-9.45,12.6c-.3.4-.75,1.1-1.1,1.65a3.208,3.208,0,0,1-.3.5c.05-1.4.1-2.35.1-2.85v-10.1a50.153,50.153,0,0,1,.35-6.45Zm41.9,29.85A16.843,16.843,0,0,1,53,158h7.05a22.525,22.525,0,0,1-.3-3.8v-1.5H78.7v1.6a14.165,14.165,0,0,1-.35,3.7h7.1a17.978,17.978,0,0,1-.35-4v-2.85a26.433,26.433,0,0,1,.35-4c-1.65.1-1.9.1-2.95.1v-16.6a48.415,48.415,0,0,1,.35-6.5c-2,.15-2.75.15-6.3.15H65.7c-3.5,0-4.3,0-6.25-.15a53.716,53.716,0,0,1,.3,5.95,44.11,44.11,0,0,1-.8,9.05,24.989,24.989,0,0,1-3,8.1c-1.25-.05-1.25-.05-2.95-.1a25.084,25.084,0,0,1,.35,4.05Zm9.1-6.85a28.441,28.441,0,0,0,2.7-7.6,48.974,48.974,0,0,0,.8-10h10.4v17.6Zm60.35-7.25c-.1-1.15-.1-1.3-.1-1.4a20.554,20.554,0,0,0-1.45-7.6c-2-5-6.6-7.9-12.45-7.9-8.55,0-14.1,6.05-14.1,15.3,0,9.35,5.6,15.25,14.45,15.25a14.2,14.2,0,0,0,10.3-3.85,14.052,14.052,0,0,0,3.05-4.6l-5.9-1.9a7.267,7.267,0,0,1-1.45,2.6,8.411,8.411,0,0,1-12.25-.3c-1.15-1.45-1.6-2.85-1.85-5.6Zm-21.6-4.95c.75-4.2,3.6-6.8,7.5-6.8a7.131,7.131,0,0,1,5.4,2,7.848,7.848,0,0,1,2.2,4.8Zm50,17.65a51.5,51.5,0,0,1-.35-6.5v-16.5h3.9a55.389,55.389,0,0,1,6.4.3v-6.1a45.873,45.873,0,0,1-6.4.35h-14.2a47.323,47.323,0,0,1-6.4-.35v6.1a59.184,59.184,0,0,1,6.5-.3h3.8v16.5a46.011,46.011,0,0,1-.35,6.5Zm35.55.95c8.9,0,14.75-6.1,14.75-15.35s-5.75-15.15-14.8-15.15c-9.1,0-14.9,5.95-14.9,15.25C171.8,147.8,177.6,153.7,186.75,153.7Zm-.05-25.3c5.3,0,8.35,3.7,8.35,10.15,0,6.1-3.2,9.85-8.4,9.85s-8.4-3.8-8.4-9.95C178.25,132.2,181.45,128.4,186.7,128.4Zm32.2,24.35a46.833,46.833,0,0,1-.35-6.4V140.7h14.2v5.65a52.583,52.583,0,0,1-.35,6.4h6.9a47.818,47.818,0,0,1-.35-6.4v-15.6a44.778,44.778,0,0,1,.35-6.45h-6.9a51.212,51.212,0,0,1,.35,6.45v4.45h-14.2v-4.5a49.342,49.342,0,0,1,.35-6.4H212a52.024,52.024,0,0,1,.35,6.4v15.65a39.63,39.63,0,0,1-.35,6.4Zm32.2-28.45a55.508,55.508,0,0,1,.35,6.4v15.6a43.351,43.351,0,0,1-.4,6.45h7.1a27.605,27.605,0,0,1,2.8-4.6l9.6-12.7a8.738,8.738,0,0,0,.9-1.45c.05-.1.15-.25.3-.5-.05,1.05-.05,1.05-.1,2.65l-.05,10.2a45.872,45.872,0,0,1-.35,6.4h6.95a50.679,50.679,0,0,1-.35-6.45V130.7a50.929,50.929,0,0,1,.35-6.4h-7a19.768,19.768,0,0,1-2.8,4.65l-9.45,12.6c-.3.4-.75,1.1-1.1,1.65a3.21,3.21,0,0,1-.3.5c.05-1.4.1-2.35.1-2.85v-10.1a50.153,50.153,0,0,1,.35-6.45Zm45.8,33.65a45.785,45.785,0,0,1-.35-5.35v-3.5a25.305,25.305,0,0,0-.1-2.65,6.684,6.684,0,0,0,1.9,2,13.251,13.251,0,0,0,7.8,2.3c8.65,0,13.8-5.15,13.8-13.8,0-8.35-4.95-13.3-13.3-13.3-4.6,0-8.05,1.5-10.2,4.35.05-.75.05-1,.05-1.5v-2.2h-6.6a44.9,44.9,0,0,1,.35,6.15v21.4a43.177,43.177,0,0,1-.35,6.1Zm-.15-20.75a8.6,8.6,0,0,1,2.65-6.35,9.432,9.432,0,0,1,5.85-2.25c5.1,0,8.05,3.1,8.05,8.5,0,5.35-2.95,8.65-7.8,8.65A8.411,8.411,0,0,1,296.75,137.2Zm34.45,20a25.682,25.682,0,0,0,6.05.75c4.2,0,7.1-1.7,8.65-5.05l10.6-23c1.45-3,2.3-4.85,2.7-5.6l-7.4.05a25.454,25.454,0,0,1-1.85,5.3l-5.45,13.2-6.1-13.2a24.42,24.42,0,0,1-1.85-5.35H329a61.527,61.527,0,0,1,2.85,5.6l9.25,18.8-.6,1.4c-.7,1.55-2,2.3-4.05,2.3a8.911,8.911,0,0,1-3.95-.95Zm64.6-17.15c-.1-1.15-.1-1.3-.1-1.4a20.554,20.554,0,0,0-1.45-7.6c-2-5-6.6-7.9-12.45-7.9-8.55,0-14.1,6.05-14.1,15.3,0,9.35,5.6,15.25,14.45,15.25a14.2,14.2,0,0,0,10.3-3.85,14.051,14.051,0,0,0,3.05-4.6l-5.9-1.9a7.267,7.267,0,0,1-1.45,2.6,8.411,8.411,0,0,1-12.25-.3c-1.15-1.45-1.6-2.85-1.85-5.6Zm-21.6-4.95c.75-4.2,3.6-6.8,7.5-6.8a7.131,7.131,0,0,1,5.4,2,7.848,7.848,0,0,1,2.2,4.8Zm63.4,17.65a46.651,46.651,0,0,1-.35-6.45V130.7a53.726,53.726,0,0,1,.35-6.4h-8.2a2.844,2.844,0,0,1-.15.8c-.15.65-1.35,4.05-1.45,4.3l-7.15,15.05-7.2-15.05c-.15-.4-1.25-3.55-1.45-4.15-.05-.3-.1-.5-.15-.95h-8.2a55.762,55.762,0,0,1,.35,6.45V146.3a44.778,44.778,0,0,1-.35,6.45h6.5a47.621,47.621,0,0,1-.35-6.45v-9.75c0-1.25-.05-2.35-.2-4.2a25.888,25.888,0,0,0,1.35,3.65l5.4,11a36.171,36.171,0,0,1,2.1,5.75h4.35a31.436,31.436,0,0,1,2.05-5.7L430.3,136a27.43,27.43,0,0,0,1.35-3.65,41.971,41.971,0,0,0-.2,4.2v9.75a52.3,52.3,0,0,1-.35,6.45Z" transform="translate(243 450)" opacity="0.8"/>
  </g>
</svg>
