<svg xmlns="http://www.w3.org/2000/svg" xmlns:xlink="http://www.w3.org/1999/xlink" width="1820" height="880" viewBox="0 0 1820 880">
  <defs>
    <clipPath id="clip-path">
      <rect id="矩形_2747" data-name="矩形 2747" width="1820" height="880" fill="#fff"/>
    </clipPath>
    <clipPath id="clip-path-2">
      <rect id="矩形_2279" data-name="矩形 2279" width="1820" height="880" transform="translate(50 160)" fill="#fff"/>
    </clipPath>
  </defs>
  <g id="banner" transform="translate(-50 -89)">
    <g id="NAV_bg" transform="translate(50 89)" clip-path="url(#clip-path)">
      <g id="组_22059" data-name="组 22059" transform="translate(-50 27)" opacity="0.05">
        <g id="组_22057" data-name="组 22057" transform="translate(0 7.733)">
          <g id="组_21999" data-name="组 21999" transform="translate(496.006 224.522)">
            <g id="组_21997" data-name="组 21997" transform="translate(0 0)">
              <rect id="矩形_2721" data-name="矩形 2721" width="472.183" height="1.891" transform="translate(0 84.71) rotate(-10.335)"/>
            </g>
            <g id="组_21998" data-name="组 21998" transform="translate(0 0)">
              <rect id="矩形_2722" data-name="矩形 2722" width="472.183" height="1.891" transform="translate(0 84.71) rotate(-10.335)"/>
            </g>
          </g>
          <g id="组_22003" data-name="组 22003" transform="translate(496.139 32.308)">
            <g id="组_22000" data-name="组 22000" transform="translate(464.098 0.366)">
              <rect id="矩形_2723" data-name="矩形 2723" width="192.908" height="1.261" transform="matrix(0.063, -0.998, 0.998, 0.063, 0, 192.522)"/>
            </g>
            <g id="组_22001" data-name="组 22001" transform="translate(0)">
              <path id="路径_39980" data-name="路径 39980" d="M63.23,337.945l-.63-1.261L538.566,59.3l1.261,1.261Z" transform="translate(-62.6 -59.3)"/>
            </g>
            <g id="组_22002" data-name="组 22002" transform="translate(0)">
              <path id="路径_39981" data-name="路径 39981" d="M63.23,337.945l-.63-1.261L538.566,59.3l1.261,1.261Z" transform="translate(-62.6 -59.3)"/>
            </g>
          </g>
          <g id="组_22008" data-name="组 22008" transform="translate(495.837 32.165)">
            <g id="组_22004" data-name="组 22004" transform="translate(326.765 0)">
              <rect id="矩形_2724" data-name="矩形 2724" width="182.191" height="1.261" transform="translate(0 104.013) rotate(-34.814)"/>
            </g>
            <g id="组_22005" data-name="组 22005" transform="translate(327.17 104.435)">
              <rect id="矩形_2725" data-name="矩形 2725" width="1.261" height="163.278" transform="matrix(0.54, -0.841, 0.841, 0.54, 0, 1.061)"/>
            </g>
            <g id="组_22006" data-name="组 22006" transform="translate(0 103.907)">
              <rect id="矩形_2726" data-name="矩形 2726" width="370.055" height="1.261" transform="translate(0 173.556) rotate(-27.969)"/>
            </g>
            <g id="组_22007" data-name="组 22007" transform="translate(0 103.907)">
              <rect id="矩形_2727" data-name="矩形 2727" width="370.055" height="1.261" transform="translate(0 173.556) rotate(-27.969)"/>
            </g>
          </g>
          <g id="组_22011" data-name="组 22011" transform="translate(0 309.692)">
            <g id="组_22009" data-name="组 22009">
              <path id="路径_39982" data-name="路径 39982" d="M-16.1,576.113,480.669,104.561l-.63-1.261L-16.1,574.222Z" transform="translate(16.1 -103.3)"/>
            </g>
            <g id="组_22010" data-name="组 22010">
              <path id="路径_39983" data-name="路径 39983" d="M-16.1,576.113,480.669,104.561l-.63-1.261L-16.1,574.222Z" transform="translate(16.1 -103.3)"/>
            </g>
          </g>
          <g id="组_22018" data-name="组 22018" transform="translate(0 136.327)">
            <g id="组_22012" data-name="组 22012" transform="translate(0 127.344)">
              <path id="路径_39984" data-name="路径 39984" d="M-16.1,493.163,55.768,96H53.876L-16.1,484.337Z" transform="translate(16.1 -96)"/>
            </g>
            <g id="组_22013" data-name="组 22013" transform="translate(0 115.366)">
              <path id="路径_39985" data-name="路径 39985" d="M-16.1,94.1v1.261l70.607,11.347.63-1.261Z" transform="translate(16.1 -94.1)"/>
            </g>
            <g id="组_22014" data-name="组 22014" transform="translate(70.607)">
              <path id="路径_39986" data-name="路径 39986" d="M-4.27,203.775l-.63-1.261L747.819,75.8v1.261Z" transform="translate(4.9 -75.8)"/>
            </g>
            <g id="组_22015" data-name="组 22015" transform="translate(0 126.714)">
              <path id="路径_39987" data-name="路径 39987" d="M-16.1,143.181,55.137,97.161l-.63-1.261L-16.1,141.29Z" transform="translate(16.1 -95.9)"/>
            </g>
            <g id="组_22016" data-name="组 22016" transform="translate(71.065 126.796)">
              <rect id="矩形_2728" data-name="矩形 2728" width="1.261" height="428.054" transform="translate(0 1.253) rotate(-83.754)"/>
            </g>
            <g id="组_22017" data-name="组 22017" transform="translate(71.065 126.796)">
              <rect id="矩形_2729" data-name="矩形 2729" width="1.261" height="428.054" transform="translate(0 1.253) rotate(-83.754)"/>
            </g>
          </g>
          <g id="组_22024" data-name="组 22024" transform="translate(495.939 33.135)">
            <g id="组_22019" data-name="组 22019" transform="translate(326.126 103.822)">
              <path id="路径_39988" data-name="路径 39988" d="M215.8,741.621,114.3,75.9h1.891L217.058,741.621Z" transform="translate(-114.3 -75.9)"/>
            </g>
            <g id="组_22020" data-name="组 22020" transform="translate(427.475 0)">
              <rect id="矩形_2730" data-name="矩形 2730" width="771.001" height="1.261" transform="translate(0 769.459) rotate(-86.406)"/>
            </g>
            <g id="组_22021" data-name="组 22021" transform="translate(427.648 192.686)">
              <rect id="矩形_2731" data-name="矩形 2731" width="578.093" height="1.261" transform="translate(0 576.937) rotate(-86.392)"/>
            </g>
            <g id="组_22022" data-name="组 22022" transform="translate(0 276.653)">
              <rect id="矩形_2732" data-name="矩形 2732" width="1.261" height="652.483" transform="matrix(0.755, -0.656, 0.656, 0.755, 0, 0.827)"/>
            </g>
            <g id="组_22023" data-name="组 22023" transform="translate(0 276.653)">
              <rect id="矩形_2733" data-name="矩形 2733" width="1.261" height="652.483" transform="matrix(0.755, -0.656, 0.656, 0.755, 0, 0.827)"/>
            </g>
          </g>
          <g id="组_22032" data-name="组 22032" transform="translate(0 136.728)">
            <g id="组_22025" data-name="组 22025" transform="translate(529.871 665.909)">
              <rect id="矩形_2734" data-name="矩形 2734" width="404.098" height="1.891" transform="matrix(0.976, -0.219, 0.219, 0.976, 0, 88.336)"/>
            </g>
            <g id="组_22026" data-name="组 22026" transform="translate(69.976 126.313)">
              <path id="路径_39989" data-name="路径 39989" d="M454.575,725.688-5,97.161-3.739,95.9,455.836,725.057Z" transform="translate(5 -95.9)"/>
            </g>
            <g id="组_22027" data-name="组 22027" transform="translate(0 674.146)">
              <path id="路径_39990" data-name="路径 39990" d="M-16.1,182.8v1.261l530.182,81.324v-1.891Z" transform="translate(16.1 -182.8)"/>
            </g>
            <g id="组_22028" data-name="组 22028" transform="translate(529.561)">
              <rect id="矩形_2735" data-name="矩形 2735" width="810.087" height="1.891" transform="translate(0 755.406) rotate(-68.826)"/>
            </g>
            <g id="组_22029" data-name="组 22029" transform="translate(529.551 88.488)">
              <path id="路径_39991" data-name="路径 39991" d="M69.161,757.513l-1.261-.63L498.476,89.9l1.261.63Z" transform="translate(-67.9 -89.9)"/>
            </g>
            <g id="组_22030" data-name="组 22030" transform="translate(495.627 173.374)">
              <rect id="矩形_2736" data-name="矩形 2736" width="1.891" height="583.137" transform="matrix(0.998, -0.058, 0.058, 0.998, 0, 0.11)"/>
            </g>
            <g id="组_22031" data-name="组 22031" transform="translate(495.627 173.374)">
              <rect id="矩形_2737" data-name="矩形 2737" width="1.891" height="583.137" transform="matrix(0.998, -0.058, 0.058, 0.998, 0, 0.11)"/>
            </g>
          </g>
          <g id="组_22037" data-name="组 22037" transform="translate(822.695 0)">
            <g id="组_22033" data-name="组 22033" transform="translate(552.246 0.157)">
              <path id="路径_39992" data-name="路径 39992" d="M793.962,371.3,202.63,54.2,202,55.461l591.962,317.1Z" transform="translate(-202 -54.2)"/>
            </g>
            <g id="组_22034" data-name="组 22034" transform="translate(0 0.157)">
              <path id="路径_39993" data-name="路径 39993" d="M115.03,191.631l-.63-1.261L666.646,54.2l.63,1.261Z" transform="translate(-114.4 -54.2)"/>
            </g>
            <g id="组_22035" data-name="组 22035" transform="translate(150.039 0.157)">
              <path id="路径_39994" data-name="路径 39994" d="M138.2,87.612V86.351L540.407,54.2l.63,1.261Z" transform="translate(-138.2 -54.2)"/>
            </g>
            <g id="组_22036" data-name="组 22036" transform="translate(137.898)">
              <rect id="矩形_2738" data-name="矩形 2738" width="471.553" height="1.261" transform="matrix(0.879, -0.477, 0.477, 0.879, 0, 224.789)"/>
            </g>
          </g>
          <g id="组_22040" data-name="组 22040" transform="translate(924.193 225.193)">
            <g id="组_22038" data-name="组 22038" transform="translate(0 576.855)">
              <path id="路径_39995" data-name="路径 39995" d="M572.423,284.789,130.5,182.661V181.4L572.423,282.9Z" transform="translate(-130.5 -181.4)"/>
            </g>
            <g id="组_22039" data-name="组 22039" transform="translate(35.844 0)">
              <rect id="矩形_2739" data-name="矩形 2739" width="1.891" height="791.175" transform="translate(0 0.97) rotate(-30.843)"/>
            </g>
          </g>
          <g id="组_22048" data-name="组 22048" transform="translate(822.695 0.025)">
            <g id="组_22041" data-name="组 22041" transform="translate(542.664 534.601)">
              <rect id="矩形_2740" data-name="矩形 2740" width="398.424" height="1.891" transform="matrix(0.374, -0.927, 0.927, 0.374, 0, 369.459)"/>
            </g>
            <g id="组_22042" data-name="组 22042" transform="translate(551.651 0)">
              <rect id="矩形_2741" data-name="矩形 2741" width="1.891" height="552.246" transform="matrix(0.967, -0.253, 0.253, 0.967, 0, 0.479)"/>
            </g>
            <g id="组_22043" data-name="组 22043" transform="translate(692.199 393.513)">
              <path id="路径_39996" data-name="路径 39996" d="M676.21,116.6,224.2,257.183v1.261L676.21,118.491Z" transform="translate(-224.2 -116.6)"/>
            </g>
            <g id="组_22044" data-name="组 22044" transform="translate(101.262 533.511)">
              <rect id="矩形_2742" data-name="矩形 2742" width="648.7" height="1.261" transform="translate(0 268.627) rotate(-24.463)"/>
            </g>
            <g id="组_22045" data-name="组 22045" transform="translate(0 136.302)">
              <path id="路径_39997" data-name="路径 39997" d="M805.968,474.855,114.4,77.061l.63-1.261,692.2,397.794Z" transform="translate(-114.4 -75.8)"/>
            </g>
            <g id="组_22046" data-name="组 22046" transform="translate(149.585 32.046)">
              <rect id="矩形_2743" data-name="矩形 2743" width="1.891" height="738.85" transform="translate(0 1.388) rotate(-47.229)"/>
            </g>
            <g id="组_22047" data-name="组 22047" transform="translate(137.402 224.553)">
              <rect id="矩形_2744" data-name="矩形 2744" width="1.891" height="634.831" transform="translate(0 1.652) rotate(-60.849)"/>
            </g>
          </g>
          <g id="组_22050" data-name="组 22050" transform="translate(1514.894 534.12)">
            <g id="组_22049" data-name="组 22049">
              <path id="路径_39998" data-name="路径 39998" d="M676.21,256.788,224.2,138.9v1.261L676.21,258.679Z" transform="translate(-224.2 -138.9)"/>
            </g>
          </g>
          <g id="组_22056" data-name="组 22056" transform="translate(924.091 497.556)">
            <g id="组_22051" data-name="组 22051" transform="translate(742.734 341.056)">
              <path id="路径_39999" data-name="路径 39999" d="M548.379,187.2,248.3,283.654l.63,1.891,299.448-96.454Z" transform="translate(-248.3 -187.2)"/>
            </g>
            <g id="组_22052" data-name="组 22052" transform="translate(590.173 36.564)">
              <path id="路径_40000" data-name="路径 40000" d="M376.661,541.107,224.1,139.531l1.261-.631L377.922,540.476Z" transform="translate(-224.1 -138.9)"/>
            </g>
            <g id="组_22053" data-name="组 22053" transform="translate(441.745 405.549)">
              <rect id="矩形_2745" data-name="矩形 2745" width="1.891" height="302.601" transform="translate(0 1.881) rotate(-83.996)"/>
            </g>
            <g id="组_22054" data-name="组 22054" transform="translate(742.734)">
              <path id="路径_40001" data-name="路径 40001" d="M548.379,133.1,248.3,571.241l1.261.63L548.379,135.622Z" transform="translate(-248.3 -133.1)"/>
            </g>
            <g id="组_22055" data-name="组 22055" transform="translate(0 304.675)">
              <rect id="矩形_2746" data-name="矩形 2746" width="1.261" height="754.61" transform="translate(0 1.241) rotate(-79.81)"/>
            </g>
          </g>
        </g>
        <g id="组_22058" data-name="组 22058" transform="translate(62.717)">
          <path id="路径_40002" data-name="路径 40002" d="M71.76,118.234a8.183,8.183,0,1,1,5.674-10.087C78.694,111.929,76.173,116.973,71.76,118.234Z" transform="translate(364.184 208.017)"/>
          <path id="路径_40003" data-name="路径 40003" d="M145.46,104.734a8.183,8.183,0,1,1,5.674-10.087C151.764,99.06,149.242,103.473,145.46,104.734Z" transform="translate(755.102 136.411)"/>
          <path id="路径_40004" data-name="路径 40004" d="M71.76,118.234a8.183,8.183,0,1,1,5.674-10.087C78.694,111.929,76.173,116.973,71.76,118.234Z" transform="translate(364.184 208.017)"/>
          <path id="路径_40005" data-name="路径 40005" d="M145.46,104.734a8.183,8.183,0,1,1,5.674-10.087C151.764,99.06,149.242,103.473,145.46,104.734Z" transform="translate(755.102 136.411)"/>
          <path id="路径_40006" data-name="路径 40006" d="M145.46,104.734a8.183,8.183,0,1,1,5.674-10.087C151.764,99.06,149.242,103.473,145.46,104.734Z" transform="translate(755.102 136.411)"/>
          <path id="路径_40007" data-name="路径 40007" d="M147.36,74.234a8.183,8.183,0,1,1,5.674-10.087C154.294,67.929,151.773,72.973,147.36,74.234Z" transform="translate(765.18 -25.367)"/>
          <path id="路径_40008" data-name="路径 40008" d="M71.76,118.234a8.183,8.183,0,1,1,5.674-10.087C78.694,111.929,76.173,116.973,71.76,118.234Z" transform="translate(364.184 208.017)"/>
          <path id="路径_40009" data-name="路径 40009" d="M147.36,74.234a8.183,8.183,0,1,1,5.674-10.087C154.294,67.929,151.773,72.973,147.36,74.234Z" transform="translate(765.18 -25.367)"/>
          <path id="路径_40010" data-name="路径 40010" d="M71.76,118.234a8.183,8.183,0,1,1,5.674-10.087C78.694,111.929,76.173,116.973,71.76,118.234Z" transform="translate(364.184 208.017)"/>
          <path id="路径_40011" data-name="路径 40011" d="M147.36,74.234a8.183,8.183,0,1,1,5.674-10.087C154.294,67.929,151.773,72.973,147.36,74.234Z" transform="translate(765.18 -25.367)"/>
          <path id="路径_40012" data-name="路径 40012" d="M147.36,74.234a8.183,8.183,0,1,1,5.674-10.087C154.294,67.929,151.773,72.973,147.36,74.234Z" transform="translate(765.18 -25.367)"/>
          <path id="路径_40013" data-name="路径 40013" d="M123.56,90.734a8.183,8.183,0,1,1,5.674-10.087C130.494,84.429,127.973,89.473,123.56,90.734Z" transform="translate(638.94 62.152)"/>
          <path id="路径_40014" data-name="路径 40014" d="M145.46,104.734a8.183,8.183,0,1,1,5.674-10.087C151.764,99.06,149.242,103.473,145.46,104.734Z" transform="translate(755.102 136.411)"/>
          <path id="路径_40015" data-name="路径 40015" d="M123.56,90.734a8.183,8.183,0,1,1,5.674-10.087C130.494,84.429,127.973,89.473,123.56,90.734Z" transform="translate(638.94 62.152)"/>
          <path id="路径_40016" data-name="路径 40016" d="M71.76,118.234a8.183,8.183,0,1,1,5.674-10.087C78.694,111.929,76.173,116.973,71.76,118.234Z" transform="translate(364.184 208.017)"/>
          <path id="路径_40017" data-name="路径 40017" d="M123.56,90.734a8.183,8.183,0,1,1,5.674-10.087C130.494,84.429,127.973,89.473,123.56,90.734Z" transform="translate(638.94 62.152)"/>
          <path id="路径_40018" data-name="路径 40018" d="M71.76,118.234a8.183,8.183,0,1,1,5.674-10.087C78.694,111.929,76.173,116.973,71.76,118.234Z" transform="translate(364.184 208.017)"/>
          <path id="路径_40019" data-name="路径 40019" d="M123.56,90.734a8.183,8.183,0,1,1,5.674-10.087C130.494,84.429,127.973,89.473,123.56,90.734Z" transform="translate(638.94 62.152)"/>
          <path id="路径_40020" data-name="路径 40020" d="M71.76,118.234a8.183,8.183,0,1,1,5.674-10.087C78.694,111.929,76.173,116.973,71.76,118.234Z" transform="translate(364.184 208.017)"/>
          <path id="路径_40021" data-name="路径 40021" d="M71.76,118.234a8.183,8.183,0,1,1,5.674-10.087C78.694,111.929,76.173,116.973,71.76,118.234Z" transform="translate(364.184 208.017)"/>
          <path id="路径_40022" data-name="路径 40022" d="M4.26,110.834A8.1,8.1,0,0,1-5.827,105.16,8.1,8.1,0,0,1-.153,95.073a8.1,8.1,0,0,1,10.087,5.674C11.194,104.529,8.673,109.573,4.26,110.834Z" transform="translate(6.151 168.766)"/>
          <path id="路径_40023" data-name="路径 40023" d="M4.26,110.834A8.1,8.1,0,0,1-5.827,105.16,8.1,8.1,0,0,1-.153,95.073a8.1,8.1,0,0,1,10.087,5.674C11.194,104.529,8.673,109.573,4.26,110.834Z" transform="translate(6.151 168.766)"/>
          <path id="路径_40024" data-name="路径 40024" d="M123.56,90.734a8.183,8.183,0,1,1,5.674-10.087C130.494,84.429,127.973,89.473,123.56,90.734Z" transform="translate(638.94 62.152)"/>
          <path id="路径_40025" data-name="路径 40025" d="M4.26,110.834A8.1,8.1,0,0,1-5.827,105.16,8.1,8.1,0,0,1-.153,95.073a8.1,8.1,0,0,1,10.087,5.674C11.194,104.529,8.673,109.573,4.26,110.834Z" transform="translate(6.151 168.766)"/>
          <path id="路径_40026" data-name="路径 40026" d="M4.26,110.834A8.1,8.1,0,0,1-5.827,105.16,8.1,8.1,0,0,1-.153,95.073a8.1,8.1,0,0,1,10.087,5.674C11.194,104.529,8.673,109.573,4.26,110.834Z" transform="translate(6.151 168.766)"/>
          <path id="路径_40027" data-name="路径 40027" d="M71.76,118.234a8.183,8.183,0,1,1,5.674-10.087C78.694,111.929,76.173,116.973,71.76,118.234Z" transform="translate(364.184 208.017)"/>
          <path id="路径_40028" data-name="路径 40028" d="M4.26,110.834A8.1,8.1,0,0,1-5.827,105.16,8.1,8.1,0,0,1-.153,95.073a8.1,8.1,0,0,1,10.087,5.674C11.194,104.529,8.673,109.573,4.26,110.834Z" transform="translate(6.151 168.766)"/>
          <path id="路径_40029" data-name="路径 40029" d="M71.76,118.234a8.183,8.183,0,1,1,5.674-10.087C78.694,111.929,76.173,116.973,71.76,118.234Z" transform="translate(364.184 208.017)"/>
          <path id="路径_40030" data-name="路径 40030" d="M4.26,110.834A8.1,8.1,0,0,1-5.827,105.16,8.1,8.1,0,0,1-.153,95.073a8.1,8.1,0,0,1,10.087,5.674C11.194,104.529,8.673,109.573,4.26,110.834Z" transform="translate(6.151 168.766)"/>
          <path id="路径_40031" data-name="路径 40031" d="M123.56,90.734a8.183,8.183,0,1,1,5.674-10.087C130.494,84.429,127.973,89.473,123.56,90.734Z" transform="translate(638.94 62.152)"/>
          <path id="路径_40032" data-name="路径 40032" d="M139.66,196.234a8.183,8.183,0,1,1,5.674-10.087A8.1,8.1,0,0,1,139.66,196.234Z" transform="translate(724.337 621.743)"/>
          <path id="路径_40033" data-name="路径 40033" d="M147.36,74.234a8.183,8.183,0,1,1,5.674-10.087C154.294,67.929,151.773,72.973,147.36,74.234Z" transform="translate(765.18 -25.367)"/>
          <path id="路径_40034" data-name="路径 40034" d="M139.66,196.234a8.183,8.183,0,1,1,5.674-10.087A8.1,8.1,0,0,1,139.66,196.234Z" transform="translate(724.337 621.743)"/>
          <path id="路径_40035" data-name="路径 40035" d="M145.46,104.734a8.183,8.183,0,1,1,5.674-10.087C151.764,99.06,149.242,103.473,145.46,104.734Z" transform="translate(755.102 136.411)"/>
          <path id="路径_40036" data-name="路径 40036" d="M139.66,196.234a8.183,8.183,0,1,1,5.674-10.087A8.1,8.1,0,0,1,139.66,196.234Z" transform="translate(724.337 621.743)"/>
          <path id="路径_40037" data-name="路径 40037" d="M71.76,118.234a8.183,8.183,0,1,1,5.674-10.087C78.694,111.929,76.173,116.973,71.76,118.234Z" transform="translate(364.184 208.017)"/>
          <path id="路径_40038" data-name="路径 40038" d="M139.66,196.234a8.183,8.183,0,1,1,5.674-10.087A8.1,8.1,0,0,1,139.66,196.234Z" transform="translate(724.337 621.743)"/>
          <path id="路径_40039" data-name="路径 40039" d="M71.76,118.234a8.183,8.183,0,1,1,5.674-10.087C78.694,111.929,76.173,116.973,71.76,118.234Z" transform="translate(364.184 208.017)"/>
          <path id="路径_40040" data-name="路径 40040" d="M139.66,196.234a8.183,8.183,0,1,1,5.674-10.087A8.1,8.1,0,0,1,139.66,196.234Z" transform="translate(724.337 621.743)"/>
          <path id="路径_40041" data-name="路径 40041" d="M139.66,196.234a8.183,8.183,0,1,1,5.674-10.087A8.1,8.1,0,0,1,139.66,196.234Z" transform="translate(724.337 621.743)"/>
          <path id="路径_40042" data-name="路径 40042" d="M77.16,210.534a8.183,8.183,0,1,1,5.674-10.087A8.1,8.1,0,0,1,77.16,210.534Z" transform="translate(392.826 697.593)"/>
          <path id="路径_40043" data-name="路径 40043" d="M4.26,110.834A8.1,8.1,0,0,1-5.827,105.16,8.1,8.1,0,0,1-.153,95.073a8.1,8.1,0,0,1,10.087,5.674C11.194,104.529,8.673,109.573,4.26,110.834Z" transform="translate(6.151 168.766)"/>
          <path id="路径_40044" data-name="路径 40044" d="M77.16,210.534a8.183,8.183,0,1,1,5.674-10.087A8.1,8.1,0,0,1,77.16,210.534Z" transform="translate(392.826 697.593)"/>
          <path id="路径_40045" data-name="路径 40045" d="M77.16,210.534a8.183,8.183,0,1,1,5.674-10.087A8.1,8.1,0,0,1,77.16,210.534Z" transform="translate(392.826 697.593)"/>
          <path id="路径_40046" data-name="路径 40046" d="M123.56,90.734a8.183,8.183,0,1,1,5.674-10.087C130.494,84.429,127.973,89.473,123.56,90.734Z" transform="translate(638.94 62.152)"/>
          <path id="路径_40047" data-name="路径 40047" d="M77.16,210.534a8.183,8.183,0,1,1,5.674-10.087A8.1,8.1,0,0,1,77.16,210.534Z" transform="translate(392.826 697.593)"/>
          <path id="路径_40048" data-name="路径 40048" d="M145.46,104.734a8.183,8.183,0,1,1,5.674-10.087C151.764,99.06,149.242,103.473,145.46,104.734Z" transform="translate(755.102 136.411)"/>
          <path id="路径_40049" data-name="路径 40049" d="M77.16,210.534a8.183,8.183,0,1,1,5.674-10.087A8.1,8.1,0,0,1,77.16,210.534Z" transform="translate(392.826 697.593)"/>
          <path id="路径_40050" data-name="路径 40050" d="M71.76,118.234a8.183,8.183,0,1,1,5.674-10.087C78.694,111.929,76.173,116.973,71.76,118.234Z" transform="translate(364.184 208.017)"/>
          <path id="路径_40051" data-name="路径 40051" d="M77.16,210.534a8.183,8.183,0,1,1,5.674-10.087A8.1,8.1,0,0,1,77.16,210.534Z" transform="translate(392.826 697.593)"/>
          <path id="路径_40052" data-name="路径 40052" d="M71.76,118.234a8.183,8.183,0,1,1,5.674-10.087C78.694,111.929,76.173,116.973,71.76,118.234Z" transform="translate(364.184 208.017)"/>
          <path id="路径_40053" data-name="路径 40053" d="M77.16,210.534a8.183,8.183,0,1,1,5.674-10.087A8.1,8.1,0,0,1,77.16,210.534Z" transform="translate(392.826 697.593)"/>
          <path id="路径_40054" data-name="路径 40054" d="M211.16,69.034a8.183,8.183,0,1,1,5.674-10.087A8.1,8.1,0,0,1,211.16,69.034Z" transform="translate(1103.586 -52.949)"/>
          <path id="路径_40055" data-name="路径 40055" d="M123.56,90.734a8.183,8.183,0,1,1,5.674-10.087C130.494,84.429,127.973,89.473,123.56,90.734Z" transform="translate(638.94 62.152)"/>
          <path id="路径_40056" data-name="路径 40056" d="M211.16,69.034a8.183,8.183,0,1,1,5.674-10.087A8.1,8.1,0,0,1,211.16,69.034Z" transform="translate(1103.586 -52.949)"/>
          <path id="路径_40057" data-name="路径 40057" d="M147.36,74.234a8.183,8.183,0,1,1,5.674-10.087C154.294,67.929,151.773,72.973,147.36,74.234Z" transform="translate(765.18 -25.367)"/>
          <path id="路径_40058" data-name="路径 40058" d="M211.16,69.034a8.183,8.183,0,1,1,5.674-10.087A8.1,8.1,0,0,1,211.16,69.034Z" transform="translate(1103.586 -52.949)"/>
          <path id="路径_40059" data-name="路径 40059" d="M145.46,104.734a8.183,8.183,0,1,1,5.674-10.087C151.764,99.06,149.242,103.473,145.46,104.734Z" transform="translate(755.102 136.411)"/>
          <path id="路径_40060" data-name="路径 40060" d="M211.16,69.034a8.183,8.183,0,1,1,5.674-10.087A8.1,8.1,0,0,1,211.16,69.034Z" transform="translate(1103.586 -52.949)"/>
          <path id="路径_40061" data-name="路径 40061" d="M139.66,196.234a8.183,8.183,0,1,1,5.674-10.087A8.1,8.1,0,0,1,139.66,196.234Z" transform="translate(724.337 621.743)"/>
          <path id="路径_40062" data-name="路径 40062" d="M209.76,212.434a8.183,8.183,0,1,1,5.674-10.087A8.1,8.1,0,0,1,209.76,212.434Z" transform="translate(1096.16 707.671)"/>
          <path id="路径_40063" data-name="路径 40063" d="M145.46,104.734a8.183,8.183,0,1,1,5.674-10.087C151.764,99.06,149.242,103.473,145.46,104.734Z" transform="translate(755.102 136.411)"/>
          <path id="路径_40064" data-name="路径 40064" d="M209.76,212.434a8.183,8.183,0,1,1,5.674-10.087A8.1,8.1,0,0,1,209.76,212.434Z" transform="translate(1096.16 707.671)"/>
          <path id="路径_40065" data-name="路径 40065" d="M209.76,212.434a8.183,8.183,0,1,1,5.674-10.087A8.1,8.1,0,0,1,209.76,212.434Z" transform="translate(1096.16 707.671)"/>
          <path id="路径_40066" data-name="路径 40066" d="M233.36,153.733a8.183,8.183,0,1,1,5.674-10.087A8.1,8.1,0,0,1,233.36,153.733Z" transform="translate(1221.339 396.315)"/>
          <path id="路径_40067" data-name="路径 40067" d="M211.16,69.034a8.183,8.183,0,1,1,5.674-10.087A8.1,8.1,0,0,1,211.16,69.034Z" transform="translate(1103.586 -52.949)"/>
          <path id="路径_40068" data-name="路径 40068" d="M233.36,153.733a8.183,8.183,0,1,1,5.674-10.087A8.1,8.1,0,0,1,233.36,153.733Z" transform="translate(1221.339 396.315)"/>
          <path id="路径_40069" data-name="路径 40069" d="M233.36,153.733a8.183,8.183,0,1,1,5.674-10.087A8.1,8.1,0,0,1,233.36,153.733Z" transform="translate(1221.339 396.315)"/>
          <path id="路径_40070" data-name="路径 40070" d="M139.66,196.234a8.183,8.183,0,1,1,5.674-10.087A8.1,8.1,0,0,1,139.66,196.234Z" transform="translate(724.337 621.743)"/>
          <path id="路径_40071" data-name="路径 40071" d="M233.36,153.733a8.183,8.183,0,1,1,5.674-10.087A8.1,8.1,0,0,1,233.36,153.733Z" transform="translate(1221.339 396.315)"/>
          <path id="路径_40072" data-name="路径 40072" d="M123.56,90.734a8.183,8.183,0,1,1,5.674-10.087C130.494,84.429,127.973,89.473,123.56,90.734Z" transform="translate(638.94 62.152)"/>
          <path id="路径_40073" data-name="路径 40073" d="M233.36,153.733a8.183,8.183,0,1,1,5.674-10.087A8.1,8.1,0,0,1,233.36,153.733Z" transform="translate(1221.339 396.315)"/>
          <path id="路径_40074" data-name="路径 40074" d="M147.36,74.234a8.183,8.183,0,1,1,5.674-10.087C154.294,67.929,151.773,72.973,147.36,74.234Z" transform="translate(765.18 -25.367)"/>
          <path id="路径_40075" data-name="路径 40075" d="M233.36,153.733a8.183,8.183,0,1,1,5.674-10.087A8.1,8.1,0,0,1,233.36,153.733Z" transform="translate(1221.339 396.315)"/>
          <path id="路径_40076" data-name="路径 40076" d="M145.46,104.734a8.183,8.183,0,1,1,5.674-10.087C151.764,99.06,149.242,103.473,145.46,104.734Z" transform="translate(755.102 136.411)"/>
          <path id="路径_40077" data-name="路径 40077" d="M233.36,153.733a8.183,8.183,0,1,1,5.674-10.087A8.1,8.1,0,0,1,233.36,153.733Z" transform="translate(1221.339 396.315)"/>
          <path id="路径_40078" data-name="路径 40078" d="M233.36,153.733a8.183,8.183,0,1,1,5.674-10.087A8.1,8.1,0,0,1,233.36,153.733Z" transform="translate(1221.339 396.315)"/>
          <path id="路径_40079" data-name="路径 40079" d="M257.46,217.434a8.183,8.183,0,1,1,5.674-10.087A8.1,8.1,0,0,1,257.46,217.434Z" transform="translate(1349.17 734.192)"/>
          <path id="路径_40080" data-name="路径 40080" d="M233.36,153.733a8.183,8.183,0,1,1,5.674-10.087A8.1,8.1,0,0,1,233.36,153.733Z" transform="translate(1221.339 396.315)"/>
          <path id="路径_40081" data-name="路径 40081" d="M257.46,217.434a8.183,8.183,0,1,1,5.674-10.087A8.1,8.1,0,0,1,257.46,217.434Z" transform="translate(1349.17 734.192)"/>
          <path id="路径_40082" data-name="路径 40082" d="M209.76,212.434a8.183,8.183,0,1,1,5.674-10.087A8.1,8.1,0,0,1,209.76,212.434Z" transform="translate(1096.16 707.671)"/>
          <path id="路径_40083" data-name="路径 40083" d="M257.46,217.434a8.183,8.183,0,1,1,5.674-10.087A8.1,8.1,0,0,1,257.46,217.434Z" transform="translate(1349.17 734.192)"/>
          <path id="路径_40084" data-name="路径 40084" d="M257.46,217.434a8.183,8.183,0,1,1,5.674-10.087A8.1,8.1,0,0,1,257.46,217.434Z" transform="translate(1349.17 734.192)"/>
          <path id="路径_40085" data-name="路径 40085" d="M139.66,196.234a8.183,8.183,0,1,1,5.674-10.087A8.1,8.1,0,0,1,139.66,196.234Z" transform="translate(724.337 621.743)"/>
        </g>
      </g>
    </g>
    <g id="组_22249" data-name="组 22249" transform="translate(0 -66)">
      <path id="路径_40984" data-name="路径 40984" d="M251,160.8a45.086,45.086,0,0,1,.35,6.5v26.8a48.416,48.416,0,0,1-.35,6.5h7.25a51.5,51.5,0,0,1-.35-6.5V167.35a46.321,46.321,0,0,1,.35-6.55Zm32.55,39.8h6.75a40.212,40.212,0,0,1-.4-6.25V180.9c0-3.4-.65-5.3-2.35-6.9-2.15-2.1-5.05-2.95-9.85-2.95-4.3,0-7.1.75-9.55,2.55-1.9,1.35-2.8,2.65-3.95,5.55l6.4,1.15c.6-1.8,1.05-2.5,2-3.2a9.02,9.02,0,0,1,5.2-1.45c3.8,0,5.75,1.5,5.75,4.4v2.55c-7.15.15-10.85.65-14.1,2a8.87,8.87,0,0,0-5.65,8.1c0,5.25,3.7,8.4,9.8,8.4a17.692,17.692,0,0,0,4.65-.6,10.842,10.842,0,0,0,5.3-3.15Zm0-11.15a5.959,5.959,0,0,1-1.8,4.4,10.153,10.153,0,0,1-6.95,2.65c-2.8,0-4.55-1.45-4.55-3.8,0-3.9,3.75-5.55,13.3-5.75Zm28.1,3a11.246,11.246,0,0,0,1.95,4.45c2.15,2.9,6,4.45,11.15,4.45,4.55,0,8.05-1.1,10.35-3.25a8.04,8.04,0,0,0,2.45-5.65,7.106,7.106,0,0,0-2.9-6.2c-1.65-1.25-3.7-1.95-8.8-3.05a21.061,21.061,0,0,1-5-1.5,2.7,2.7,0,0,1-1.55-2.35c0-2.1,2.1-3.5,5.2-3.5,3.25,0,4.95,1.2,5.5,3.95l6.6-.85a9.733,9.733,0,0,0-2.7-4.95c-2.05-1.9-5.3-2.9-9.4-2.9-4.55,0-7.95,1.3-10,3.9a7.439,7.439,0,0,0-1.55,4.65,7.16,7.16,0,0,0,4.4,6.65,30.225,30.225,0,0,0,7.2,2.15c4,.9,4.3.95,5.25,1.6a3.057,3.057,0,0,1,1.3,2.5c0,2.35-2.3,3.8-6,3.8-3.9,0-5.75-1.35-6.6-4.75Zm44.65,9.1c8.9,0,14.75-6.1,14.75-15.35s-5.75-15.15-14.8-15.15c-9.1,0-14.9,5.95-14.9,15.25C341.35,195.65,347.15,201.55,356.3,201.55Zm-.05-25.3c5.3,0,8.35,3.7,8.35,10.15,0,6.1-3.2,9.85-8.4,9.85s-8.4-3.8-8.4-9.95C347.8,180.05,351,176.25,356.25,176.25Zm40-4.35a52.752,52.752,0,0,1,.4,6.5v10.1c-2.25,4.95-5.1,7.4-8.7,7.4a6.221,6.221,0,0,1-2.75-.7c-1.55-.95-2.3-2.8-2.3-5.7V178.4a44.753,44.753,0,0,1,.35-6.5H376a45.957,45.957,0,0,1,.4,6.5v12.65c0,4.1,1.3,6.9,4.05,8.65a10.892,10.892,0,0,0,6,1.45c4.75,0,7.5-1.45,10.25-5.35-.05,1.25-.05,1.4-.05,2.15v2.65h6.8a41.1,41.1,0,0,1-.4-6.5V178.4a36.2,36.2,0,0,1,.4-6.5Zm34.4,0a25.925,25.925,0,0,0-4.65-.55c-4.5,0-7.6,1.7-9.4,5.25v-4.7h-6.8a39.532,39.532,0,0,1,.35,6.5v15.7a54.843,54.843,0,0,1-.35,6.5h7.15a52.584,52.584,0,0,1-.35-6.5v-9.25a8.048,8.048,0,0,1,2.05-5,7.137,7.137,0,0,1,5.8-2.45,14.932,14.932,0,0,1,4.45.8Zm29.7,8.15a16.642,16.642,0,0,0-1.75-3.65c-2.4-3.5-6.3-5.4-11.2-5.4a13.692,13.692,0,0,0-10.05,3.8,16.167,16.167,0,0,0-4.25,11.55c0,9.25,5.7,15.2,14.5,15.2,4.75,0,8.6-1.75,11-5.05a14,14,0,0,0,2.1-4.25L454.5,191a6.988,6.988,0,0,1-1,2.5,6.693,6.693,0,0,1-5.75,2.8c-5.05,0-8.15-3.85-8.15-10.1,0-6.2,3.05-10.05,7.95-10.05a6.291,6.291,0,0,1,5.15,2.3,9.01,9.01,0,0,1,1.55,3.05Zm32.1,7.85c-.1-1.15-.1-1.3-.1-1.4a20.555,20.555,0,0,0-1.45-7.6c-2-5-6.6-7.9-12.45-7.9-8.55,0-14.1,6.05-14.1,15.3,0,9.35,5.6,15.25,14.45,15.25a14.2,14.2,0,0,0,10.3-3.85,14.052,14.052,0,0,0,3.05-4.6l-5.9-1.9a7.267,7.267,0,0,1-1.45,2.6,8.411,8.411,0,0,1-12.25-.3c-1.15-1.45-1.6-2.85-1.85-5.6Zm-21.6-4.95c.75-4.2,3.6-6.8,7.5-6.8a7.131,7.131,0,0,1,5.4,2,7.848,7.848,0,0,1,2.2,4.8Z" transform="translate(243 500)" fill="#0080f4"/>
      <text id="OUR_MISSION" data-name="OUR MISSION" transform="translate(243 400)" font-size="12" font-family="HiraginoSansGB-W6, Hiragino Sans GB" letter-spacing="1.6em" opacity="0.8"><tspan x="0" y="0">OUR MISSION</tspan></text>
      <path id="路径_40985" data-name="路径 40985" d="M37.2.6c-.7-1.35-1.95-4.05-2.35-4.95-4.95-11.7-5.9-13.1-9.05-14.1,2.85-.8,4.15-1.45,5.55-2.9,1.7-1.75,2.55-4.25,2.55-7.45,0-6.6-4.35-10.4-11.95-10.4h-12c-2.75,0-4.3-.05-6.4-.15a44.488,44.488,0,0,1,.4,6.5V-5.9A39.127,39.127,0,0,1,3.55.6H11a39.018,39.018,0,0,1-.4-6.55v-10.2h7.45c3.85,0,5.6,1.85,8.3,8.75,1.65,4.25,2.5,6.8,2.6,8ZM10.6-21.85V-33.5H20.85c4.1,0,6.15,1.85,6.15,5.45a5.934,5.934,0,0,1-1.6,4.4,6.739,6.739,0,0,1-4.75,1.8ZM68.65-12.1c-.1-1.15-.1-1.3-.1-1.4a20.554,20.554,0,0,0-1.45-7.6c-2-5-6.6-7.9-12.45-7.9-8.55,0-14.1,6.05-14.1,15.3,0,9.35,5.6,15.25,14.45,15.25A14.2,14.2,0,0,0,65.3-2.3a14.052,14.052,0,0,0,3.05-4.6l-5.9-1.9A7.267,7.267,0,0,1,61-6.2a7.906,7.906,0,0,1-6,2.5,7.858,7.858,0,0,1-6.25-2.8c-1.15-1.45-1.6-2.85-1.85-5.6Zm-21.6-4.95c.75-4.2,3.6-6.8,7.5-6.8a7.131,7.131,0,0,1,5.4,2,7.848,7.848,0,0,1,2.2,4.8ZM76.95-35.8a57.549,57.549,0,0,1,.35,6.15v1.55H75.45a22.965,22.965,0,0,1-4.5-.3v5.9a25.249,25.249,0,0,1,4.45-.3h1.9V-6c0,5.25,2.3,7.3,8.05,7.3A15.646,15.646,0,0,0,91.6.25l-.9-5.3a6.613,6.613,0,0,1-3.65,1.1c-2.4,0-3.3-.9-3.3-3.35V-22.8H86a27.568,27.568,0,0,1,4.9.3v-5.9a28.726,28.726,0,0,1-5.05.3h-2.1v-1.55a55.3,55.3,0,0,1,.35-6.15Zm32.1,37.35c8.9,0,14.75-6.1,14.75-15.35S118.05-28.95,109-28.95c-9.1,0-14.9,5.95-14.9,15.25C94.1-4.35,99.9,1.55,109.05,1.55ZM109-23.75c5.3,0,8.35,3.7,8.35,10.15,0,6.1-3.2,9.85-8.4,9.85s-8.4-3.8-8.4-9.95C100.55-19.95,103.75-23.75,109-23.75Zm40-4.35a52.752,52.752,0,0,1,.4,6.5v10.1c-2.25,4.95-5.1,7.4-8.7,7.4a6.221,6.221,0,0,1-2.75-.7c-1.55-.95-2.3-2.8-2.3-5.7V-21.6a44.751,44.751,0,0,1,.35-6.5h-7.25a45.958,45.958,0,0,1,.4,6.5V-8.95c0,4.1,1.3,6.9,4.05,8.65a10.892,10.892,0,0,0,6,1.45c4.75,0,7.5-1.45,10.25-5.35-.05,1.25-.05,1.4-.05,2.15V.6h6.8a41.1,41.1,0,0,1-.4-6.5V-21.6a36.2,36.2,0,0,1,.4-6.5Zm34.4,0a25.924,25.924,0,0,0-4.65-.55c-4.5,0-7.6,1.7-9.4,5.25v-4.7h-6.8a39.529,39.529,0,0,1,.35,6.5V-5.9a54.843,54.843,0,0,1-.35,6.5h7.15a52.584,52.584,0,0,1-.35-6.5v-9.25a8.048,8.048,0,0,1,2.05-5,7.137,7.137,0,0,1,5.8-2.45,14.931,14.931,0,0,1,4.45.8ZM226.15.6h6.65a52.484,52.484,0,0,1-.35-6.75V-32.5a58.3,58.3,0,0,1,.35-6.7h-7.05a50.96,50.96,0,0,1,.35,6.75v5c0,.85,0,1.8.05,2.15.05,1,.05,1,.05,1.6a12.733,12.733,0,0,0-2.55-2.75,11.868,11.868,0,0,0-7.6-2.3c-8.25,0-13.5,5.8-13.5,14.95,0,5.4,1.85,9.95,5.2,12.55A12.713,12.713,0,0,0,216.1,1.3c4.85,0,7.5-1.3,10.1-4.95-.05.65-.05,1.2-.05,1.8Zm-17.1-14.35c0-5.95,3.1-9.75,7.95-9.75a9.154,9.154,0,0,1,6.5,2.8,10.382,10.382,0,0,1,2.4,6.65,11.31,11.31,0,0,1-1.95,6.7,8.361,8.361,0,0,1-6.7,3.3C212.25-4.05,209.05-7.8,209.05-13.75ZM258.05.6h6.75a40.212,40.212,0,0,1-.4-6.25V-19.1c0-3.4-.65-5.3-2.35-6.9-2.15-2.1-5.05-2.95-9.85-2.95-4.3,0-7.1.75-9.55,2.55-1.9,1.35-2.8,2.65-3.95,5.55l6.4,1.15c.6-1.8,1.05-2.5,2-3.2a9.02,9.02,0,0,1,5.2-1.45c3.8,0,5.75,1.5,5.75,4.4v2.55c-7.15.15-10.85.65-14.1,2a8.87,8.87,0,0,0-5.65,8.1c0,5.25,3.7,8.4,9.8,8.4a17.692,17.692,0,0,0,4.65-.6,10.842,10.842,0,0,0,5.3-3.15Zm0-11.15a5.959,5.959,0,0,1-1.8,4.4A10.153,10.153,0,0,1,249.3-3.5c-2.8,0-4.55-1.45-4.55-3.8,0-3.9,3.75-5.55,13.3-5.75ZM277.95.6a44.489,44.489,0,0,1-.4-6.5V-16c2.2-4.95,5.15-7.45,8.75-7.45a4.7,4.7,0,0,1,4.2,2.05,8.213,8.213,0,0,1,.85,4.4V-5.9A53.137,53.137,0,0,1,291,.6h7.25a39.51,39.51,0,0,1-.4-6.5v-12c0-3.35-.5-5.35-1.7-7-1.8-2.45-4.65-3.7-8.5-3.7-4.5,0-7.15,1.4-10.2,5.3a19.535,19.535,0,0,0,.1-2.15V-28.1h-6.8a41.1,41.1,0,0,1,.4,6.5V-5.9a41.5,41.5,0,0,1-.4,6.5Zm25.2-8.15A11.246,11.246,0,0,0,305.1-3.1c2.15,2.9,6,4.45,11.15,4.45,4.55,0,8.05-1.1,10.35-3.25a8.04,8.04,0,0,0,2.45-5.65,7.106,7.106,0,0,0-2.9-6.2c-1.65-1.25-3.7-1.95-8.8-3.05a21.061,21.061,0,0,1-5-1.5,2.7,2.7,0,0,1-1.55-2.35c0-2.1,2.1-3.5,5.2-3.5,3.25,0,4.95,1.2,5.5,3.95l6.6-.85A9.733,9.733,0,0,0,325.4-26c-2.05-1.9-5.3-2.9-9.4-2.9-4.55,0-7.95,1.3-10,3.9a7.439,7.439,0,0,0-1.55,4.65,7.16,7.16,0,0,0,4.4,6.65,30.226,30.226,0,0,0,7.2,2.15c4,.9,4.3.95,5.25,1.6a3.057,3.057,0,0,1,1.3,2.5c0,2.35-2.3,3.8-6,3.8-3.9,0-5.75-1.35-6.6-4.75ZM350.7-39.2a45.086,45.086,0,0,1,.35,6.5V-5.9A48.415,48.415,0,0,1,350.7.6h7.25a51.5,51.5,0,0,1-.35-6.5V-32.65a46.32,46.32,0,0,1,.35-6.55ZM383.25.6H390a40.212,40.212,0,0,1-.4-6.25V-19.1c0-3.4-.65-5.3-2.35-6.9-2.15-2.1-5.05-2.95-9.85-2.95-4.3,0-7.1.75-9.55,2.55-1.9,1.35-2.8,2.65-3.95,5.55l6.4,1.15c.6-1.8,1.05-2.5,2-3.2a9.02,9.02,0,0,1,5.2-1.45c3.8,0,5.75,1.5,5.75,4.4v2.55c-7.15.15-10.85.65-14.1,2a8.87,8.87,0,0,0-5.65,8.1c0,5.25,3.7,8.4,9.8,8.4a17.692,17.692,0,0,0,4.65-.6,10.842,10.842,0,0,0,5.3-3.15Zm0-11.15a5.959,5.959,0,0,1-1.8,4.4A10.153,10.153,0,0,1,374.5-3.5c-2.8,0-4.55-1.45-4.55-3.8,0-3.9,3.75-5.55,13.3-5.75ZM29.15,80.05A16.643,16.643,0,0,0,27.4,76.4C25,72.9,21.1,71,16.2,71A13.692,13.692,0,0,0,6.15,74.8,16.167,16.167,0,0,0,1.9,86.35c0,9.25,5.7,15.2,14.5,15.2,4.75,0,8.6-1.75,11-5.05a14,14,0,0,0,2.1-4.25L23.3,91a6.988,6.988,0,0,1-1,2.5,6.693,6.693,0,0,1-5.75,2.8c-5.05,0-8.15-3.85-8.15-10.1,0-6.2,3.05-10.05,7.95-10.05a6.291,6.291,0,0,1,5.15,2.3,9.01,9.01,0,0,1,1.55,3.05ZM43.9,98.6l-1.7,3.85a4.173,4.173,0,0,1-3.9,2.5,8.3,8.3,0,0,1-3.5-.85l-1.15,5.7a25.818,25.818,0,0,0,5.25.6c4.65,0,7.6-1.75,9.2-5.55L59.5,78.1c1.5-3.5,2.4-5.55,2.7-6.2H54.75a29.9,29.9,0,0,1-1.9,5.9L47.3,91.95l-6.1-14.2a28.958,28.958,0,0,1-1.9-5.85H31.7c.6,1.1.65,1.25,2.85,6.2Zm28.5,2V98.15c0-.6,0-1.15-.05-1.8,2.5,3.5,5.35,4.95,9.95,4.95q6.075,0,9.6-3.6C94.6,94.9,96,90.9,96,86c0-9.3-4.95-14.75-13.35-14.75-4.6,0-7.7,1.55-10.3,5.05.05-1.7.1-2.95.1-3.75v-5a50.961,50.961,0,0,1,.35-6.75H65.75a58.307,58.307,0,0,1,.35,6.7V93.85a52.487,52.487,0,0,1-.35,6.75ZM89.5,86c0,6.05-3.25,9.95-8.3,9.95a8.711,8.711,0,0,1-5.25-1.85c-2-1.6-3.3-4.75-3.3-7.9a10.769,10.769,0,0,1,2.45-6.95,8.922,8.922,0,0,1,6.8-2.75C86.5,76.5,89.5,80.25,89.5,86Zm38.45,1.9c-.1-1.15-.1-1.3-.1-1.4a20.554,20.554,0,0,0-1.45-7.6c-2-5-6.6-7.9-12.45-7.9-8.55,0-14.1,6.05-14.1,15.3,0,9.35,5.6,15.25,14.45,15.25a14.2,14.2,0,0,0,10.3-3.85,14.052,14.052,0,0,0,3.05-4.6l-5.9-1.9a7.267,7.267,0,0,1-1.45,2.6,8.411,8.411,0,0,1-12.25-.3c-1.15-1.45-1.6-2.85-1.85-5.6Zm-21.6-4.95c.75-4.2,3.6-6.8,7.5-6.8a7.131,7.131,0,0,1,5.4,2,7.848,7.848,0,0,1,2.2,4.8Zm47.5-11.05a25.925,25.925,0,0,0-4.65-.55c-4.5,0-7.6,1.7-9.4,5.25V71.9H133a39.529,39.529,0,0,1,.35,6.5V94.1a54.843,54.843,0,0,1-.35,6.5h7.15a52.584,52.584,0,0,1-.35-6.5V84.85a8.048,8.048,0,0,1,2.05-5,7.137,7.137,0,0,1,5.8-2.45,14.931,14.931,0,0,1,4.45.8Zm29.7,8.15a16.643,16.643,0,0,0-1.75-3.65c-2.4-3.5-6.3-5.4-11.2-5.4a13.692,13.692,0,0,0-10.05,3.8,16.167,16.167,0,0,0-4.25,11.55c0,9.25,5.7,15.2,14.5,15.2,4.75,0,8.6-1.75,11-5.05a14,14,0,0,0,2.1-4.25L177.7,91a6.988,6.988,0,0,1-1,2.5,6.693,6.693,0,0,1-5.75,2.8c-5.05,0-8.15-3.85-8.15-10.1,0-6.2,3.05-10.05,7.95-10.05a6.291,6.291,0,0,1,5.15,2.3,9.01,9.01,0,0,1,1.55,3.05Zm18.95,21.5c8.9,0,14.75-6.1,14.75-15.35s-5.75-15.15-14.8-15.15c-9.1,0-14.9,5.95-14.9,15.25C187.55,95.65,193.35,101.55,202.5,101.55Zm-.05-25.3c5.3,0,8.35,3.7,8.35,10.15,0,6.1-3.2,9.85-8.4,9.85s-8.4-3.8-8.4-9.95C194,80.05,197.2,76.25,202.45,76.25ZM229.3,100.6a52.039,52.039,0,0,1-.35-6.5V84.2a11.29,11.29,0,0,1,2.15-5,6.193,6.193,0,0,1,5.15-2.6c3.25,0,4.85,2.1,4.85,6.3V94.1a40.693,40.693,0,0,1-.4,6.5h7.2a48.914,48.914,0,0,1-.35-6.5V84.2c.6-3.1,1.4-4.7,3.15-6.2a5.783,5.783,0,0,1,4.1-1.5c3.35,0,4.9,2,4.9,6.4V94.1a39.514,39.514,0,0,1-.4,6.5h7.3a40.694,40.694,0,0,1-.4-6.5V81.75c0-3.55-.7-5.8-2.35-7.6a9.867,9.867,0,0,0-7.5-2.85,11.046,11.046,0,0,0-5.6,1.3c-1.55.8-2.5,1.7-4.2,3.95a6.481,6.481,0,0,0-1.9-3,8.968,8.968,0,0,0-6.45-2.25c-4.15,0-7.85,1.95-9.3,5,.05-.8.05-1.55.05-1.85V71.9h-6.7a43.737,43.737,0,0,1,.35,6.5V94.1a50.446,50.446,0,0,1-.35,6.5Zm50.5,0a52.039,52.039,0,0,1-.35-6.5V84.2a11.29,11.29,0,0,1,2.15-5,6.193,6.193,0,0,1,5.15-2.6c3.25,0,4.85,2.1,4.85,6.3V94.1a40.69,40.69,0,0,1-.4,6.5h7.2a48.913,48.913,0,0,1-.35-6.5V84.2c.6-3.1,1.4-4.7,3.15-6.2a5.783,5.783,0,0,1,4.1-1.5c3.35,0,4.9,2,4.9,6.4V94.1a39.51,39.51,0,0,1-.4,6.5h7.3a40.69,40.69,0,0,1-.4-6.5V81.75c0-3.55-.7-5.8-2.35-7.6a9.867,9.867,0,0,0-7.5-2.85,11.046,11.046,0,0,0-5.6,1.3c-1.55.8-2.5,1.7-4.2,3.95a6.481,6.481,0,0,0-1.9-3,8.968,8.968,0,0,0-6.45-2.25c-4.15,0-7.85,1.95-9.3,5,.05-.8.05-1.55.05-1.85V71.9h-6.7a43.737,43.737,0,0,1,.35,6.5V94.1a50.446,50.446,0,0,1-.35,6.5Zm63.65-28.7a52.751,52.751,0,0,1,.4,6.5V88.5c-2.25,4.95-5.1,7.4-8.7,7.4a6.221,6.221,0,0,1-2.75-.7c-1.55-.95-2.3-2.8-2.3-5.7V78.4a44.753,44.753,0,0,1,.35-6.5H323.2a45.957,45.957,0,0,1,.4,6.5V91.05c0,4.1,1.3,6.9,4.05,8.65a10.892,10.892,0,0,0,6,1.45c4.75,0,7.5-1.45,10.25-5.35-.05,1.25-.05,1.4-.05,2.15v2.65h6.8a41.1,41.1,0,0,1-.4-6.5V78.4a36.2,36.2,0,0,1,.4-6.5Zm20.65,28.7a44.489,44.489,0,0,1-.4-6.5V84c2.2-4.95,5.15-7.45,8.75-7.45a4.7,4.7,0,0,1,4.2,2.05,8.213,8.213,0,0,1,.85,4.4V94.1a53.137,53.137,0,0,1-.35,6.5h7.25a39.51,39.51,0,0,1-.4-6.5v-12c0-3.35-.5-5.35-1.7-7-1.8-2.45-4.65-3.7-8.5-3.7-4.5,0-7.15,1.4-10.2,5.3a19.535,19.535,0,0,0,.1-2.15V71.9h-6.8a41.1,41.1,0,0,1,.4,6.5V94.1a41.5,41.5,0,0,1-.4,6.5Zm45.45,0h6.75a40.212,40.212,0,0,1-.4-6.25V80.9c0-3.4-.65-5.3-2.35-6.9-2.15-2.1-5.05-2.95-9.85-2.95-4.3,0-7.1.75-9.55,2.55-1.9,1.35-2.8,2.65-3.95,5.55l6.4,1.15c.6-1.8,1.05-2.5,2-3.2a9.02,9.02,0,0,1,5.2-1.45c3.8,0,5.75,1.5,5.75,4.4V82.6c-7.15.15-10.85.65-14.1,2a8.87,8.87,0,0,0-5.65,8.1c0,5.25,3.7,8.4,9.8,8.4a17.692,17.692,0,0,0,4.65-.6,10.842,10.842,0,0,0,5.3-3.15Zm0-11.15a5.959,5.959,0,0,1-1.8,4.4,10.153,10.153,0,0,1-6.95,2.65c-2.8,0-4.55-1.45-4.55-3.8,0-3.9,3.75-5.55,13.3-5.75Zm32.9-17.55a52.751,52.751,0,0,1,.4,6.5V88.5c-2.25,4.95-5.1,7.4-8.7,7.4a6.221,6.221,0,0,1-2.75-.7c-1.55-.95-2.3-2.8-2.3-5.7V78.4a44.753,44.753,0,0,1,.35-6.5H422.2a45.957,45.957,0,0,1,.4,6.5V91.05c0,4.1,1.3,6.9,4.05,8.65a10.892,10.892,0,0,0,6,1.45c4.75,0,7.5-1.45,10.25-5.35-.05,1.25-.05,1.4-.05,2.15v2.65h6.8a41.1,41.1,0,0,1-.4-6.5V78.4a36.2,36.2,0,0,1,.4-6.5Zm16.8-7.7a57.556,57.556,0,0,1,.35,6.15V71.9h-1.85a22.965,22.965,0,0,1-4.5-.3v5.9a25.248,25.248,0,0,1,4.45-.3h1.9V94c0,5.25,2.3,7.3,8.05,7.3a15.646,15.646,0,0,0,6.25-1.05l-.9-5.3a6.613,6.613,0,0,1-3.65,1.1c-2.4,0-3.3-.9-3.3-3.35V77.2h2.25a27.568,27.568,0,0,1,4.9.3V71.6a28.726,28.726,0,0,1-5.05.3h-2.1V70.35a55.3,55.3,0,0,1,.35-6.15ZM504.5,87.9c-.1-1.25-.1-1.25-.1-1.4a20.555,20.555,0,0,0-1.45-7.6c-2-5-6.65-7.9-12.45-7.9-8.5,0-14.1,6.05-14.1,15.3,0,9.35,5.6,15.25,14.45,15.25a14.2,14.2,0,0,0,10.3-3.85,14.052,14.052,0,0,0,3.05-4.6l-5.95-1.9a6.581,6.581,0,0,1-1.4,2.6,7.733,7.733,0,0,1-6,2.5,7.858,7.858,0,0,1-6.25-2.8c-1.15-1.45-1.6-2.8-1.85-5.6Zm-21.6-4.95a8.338,8.338,0,0,1,2-4.35,7.1,7.1,0,0,1,5.75-2.45,7,7,0,0,1,5.8,2.75A8.3,8.3,0,0,1,498,82.95Zm3.2-18.1,4.35,4.55L499,60.2l-2.1-2.25Zm46.65,7.05H526.1a51.659,51.659,0,0,1,.35,6.7v25.15a55.975,55.975,0,0,1-.35,6.6h7.05a49.832,49.832,0,0,1-.35-6.65V99.9c0-.9,0-1.8-.05-2.15-.05-1-.05-1-.05-1.6,2.4,3.25,5.7,4.8,10.1,4.8,8.5,0,13.55-5.55,13.55-14.75,0-5.05-1.3-8.8-3.95-11.5-2.3-2.3-5.5-3.5-9.5-3.5a11.643,11.643,0,0,0-10.2,4.9c.05-.65.05-1.2.05-1.75Zm17.1,14.2c0,5.9-3.05,9.6-7.95,9.6-5.2,0-8.9-4-8.9-9.7,0-5.35,3.75-9.45,8.7-9.45C546.75,76.55,549.85,80.2,549.85,86.1Zm25.4,15.45c8.9,0,14.75-6.1,14.75-15.35s-5.75-15.15-14.8-15.15c-9.1,0-14.9,5.95-14.9,15.25C560.3,95.65,566.1,101.55,575.25,101.55Zm-.05-25.3c5.3,0,8.35,3.7,8.35,10.15,0,6.1-3.2,9.85-8.4,9.85s-8.4-3.8-8.4-9.95C566.75,80.05,569.95,76.25,575.2,76.25Zm40-4.35a52.751,52.751,0,0,1,.4,6.5V88.5c-2.25,4.95-5.1,7.4-8.7,7.4a6.221,6.221,0,0,1-2.75-.7c-1.55-.95-2.3-2.8-2.3-5.7V78.4a44.753,44.753,0,0,1,.35-6.5h-7.25a45.957,45.957,0,0,1,.4,6.5V91.05c0,4.1,1.3,6.9,4.05,8.65a10.892,10.892,0,0,0,6,1.45c4.75,0,7.5-1.45,10.25-5.35-.05,1.25-.05,1.4-.05,2.15v2.65h6.8a41.1,41.1,0,0,1-.4-6.5V78.4a36.2,36.2,0,0,1,.4-6.5Zm34.4,0a25.925,25.925,0,0,0-4.65-.55c-4.5,0-7.6,1.7-9.4,5.25V71.9h-6.8a39.532,39.532,0,0,1,.35,6.5V94.1a54.843,54.843,0,0,1-.35,6.5h7.15a52.584,52.584,0,0,1-.35-6.5V84.85a8.048,8.048,0,0,1,2.05-5,7.137,7.137,0,0,1,5.8-2.45,14.931,14.931,0,0,1,4.45.8Zm24.45,5.25V94.1a53.7,53.7,0,0,1-.35,6.5h7.15a49.418,49.418,0,0,1-.35-6.5V77.15h2.45a43.032,43.032,0,0,1,5.55.3V71.6a54.911,54.911,0,0,1-5.65.3H680.5V69.85c0-3.45,1-4.65,3.9-4.65a8.277,8.277,0,0,1,4.45,1.2l1.35-5.25a18.079,18.079,0,0,0-6.2-1c-6.8,0-9.95,2.9-9.95,9.1V71.9H672a32.767,32.767,0,0,1-4.7-.3v5.85a34.01,34.01,0,0,1,4.75-.3Zm38.7,23.45h6.75a40.216,40.216,0,0,1-.4-6.25V80.9c0-3.4-.65-5.3-2.35-6.9-2.15-2.1-5.05-2.95-9.85-2.95-4.3,0-7.1.75-9.55,2.55-1.9,1.35-2.8,2.65-3.95,5.55l6.4,1.15c.6-1.8,1.05-2.5,2-3.2a9.02,9.02,0,0,1,5.2-1.45c3.8,0,5.75,1.5,5.75,4.4V82.6c-7.15.15-10.85.65-14.1,2A8.87,8.87,0,0,0,693,92.7c0,5.25,3.7,8.4,9.8,8.4a17.692,17.692,0,0,0,4.65-.6,10.842,10.842,0,0,0,5.3-3.15Zm0-11.15a5.959,5.959,0,0,1-1.8,4.4A10.153,10.153,0,0,1,704,96.5c-2.8,0-4.55-1.45-4.55-3.8,0-3.9,3.75-5.55,13.3-5.75Zm12.7-28.65v6.35h7.35V60.8Zm0,11.1a41.089,41.089,0,0,1,.4,6.5V94.1a44.929,44.929,0,0,1-.4,6.5h7.3a50.227,50.227,0,0,1-.35-6.55V78.45a44.942,44.942,0,0,1,.35-6.55Zm34.5,0a25.925,25.925,0,0,0-4.65-.55c-4.5,0-7.6,1.7-9.4,5.25V71.9h-6.8a39.532,39.532,0,0,1,.35,6.5V94.1a54.843,54.843,0,0,1-.35,6.5h7.15a52.584,52.584,0,0,1-.35-6.5V84.85a8.048,8.048,0,0,1,2.05-5,7.137,7.137,0,0,1,5.8-2.45,14.931,14.931,0,0,1,4.45.8Zm30.55,16c-.1-1.15-.1-1.3-.1-1.4a20.555,20.555,0,0,0-1.45-7.6c-2-5-6.6-7.9-12.45-7.9-8.55,0-14.1,6.05-14.1,15.3,0,9.35,5.6,15.25,14.45,15.25a14.2,14.2,0,0,0,10.3-3.85,14.052,14.052,0,0,0,3.05-4.6l-5.9-1.9a7.266,7.266,0,0,1-1.45,2.6,8.411,8.411,0,0,1-12.25-.3c-1.15-1.45-1.6-2.85-1.85-5.6Zm-21.6-4.95c.75-4.2,3.6-6.8,7.5-6.8a7.131,7.131,0,0,1,5.4,2,7.848,7.848,0,0,1,2.2,4.8ZM30,187.9c-.1-1.15-.1-1.3-.1-1.4a20.554,20.554,0,0,0-1.45-7.6c-2-5-6.6-7.9-12.45-7.9-8.55,0-14.1,6.05-14.1,15.3,0,9.35,5.6,15.25,14.45,15.25a14.2,14.2,0,0,0,10.3-3.85,14.052,14.052,0,0,0,3.05-4.6l-5.9-1.9a7.267,7.267,0,0,1-1.45,2.6,7.906,7.906,0,0,1-6,2.5,7.858,7.858,0,0,1-6.25-2.8c-1.15-1.45-1.6-2.85-1.85-5.6ZM8.4,182.95c.75-4.2,3.6-6.8,7.5-6.8a7.131,7.131,0,0,1,5.4,2,7.848,7.848,0,0,1,2.2,4.8ZM62,200.6c-1.35-1.65-3-3.8-3.7-4.8L51,185.6l6.75-9.4c.8-1.15,1.6-2.25,3.2-4.3H53.2a24.747,24.747,0,0,1-2.1,3.8l-3.8,5.6-3.85-5.6a23.566,23.566,0,0,1-2.1-3.8h-7.8c2.25,2.9,2.65,3.45,3.2,4.2l6.8,9.5-7.5,10.5c-.85,1.15-2.4,3.15-3.5,4.5H40.6a27.005,27.005,0,0,1,2.15-3.8l4.5-6.7,4.35,6.4a26.68,26.68,0,0,1,2.35,4.1Zm10.45-28.7H65.8a51.66,51.66,0,0,1,.35,6.7v25.15a55.975,55.975,0,0,1-.35,6.6h7.05a49.833,49.833,0,0,1-.35-6.65v-3.8c0-.9,0-1.8-.05-2.15-.05-1-.05-1-.05-1.6,2.4,3.25,5.7,4.8,10.1,4.8,8.5,0,13.55-5.55,13.55-14.75,0-5.05-1.3-8.8-3.95-11.5-2.3-2.3-5.5-3.5-9.5-3.5a11.643,11.643,0,0,0-10.2,4.9c.05-.65.05-1.2.05-1.75Zm17.1,14.2c0,5.9-3.05,9.6-7.95,9.6-5.2,0-8.9-4-8.9-9.7,0-5.35,3.75-9.45,8.7-9.45C86.45,176.55,89.55,180.2,89.55,186.1Zm11.65-25.3a45.086,45.086,0,0,1,.35,6.5v26.8a48.416,48.416,0,0,1-.35,6.5h7.25a51.5,51.5,0,0,1-.35-6.5V167.35a46.32,46.32,0,0,1,.35-6.55Zm27.3,40.75c8.9,0,14.75-6.1,14.75-15.35s-5.75-15.15-14.8-15.15c-9.1,0-14.9,5.95-14.9,15.25C113.55,195.65,119.35,201.55,128.5,201.55Zm-.05-25.3c5.3,0,8.35,3.7,8.35,10.15,0,6.1-3.2,9.85-8.4,9.85s-8.4-3.8-8.4-9.95C120,180.05,123.2,176.25,128.45,176.25ZM147,192.45a11.246,11.246,0,0,0,1.95,4.45c2.15,2.9,6,4.45,11.15,4.45,4.55,0,8.05-1.1,10.35-3.25a8.04,8.04,0,0,0,2.45-5.65,7.106,7.106,0,0,0-2.9-6.2c-1.65-1.25-3.7-1.95-8.8-3.05a21.06,21.06,0,0,1-5-1.5,2.7,2.7,0,0,1-1.55-2.35c0-2.1,2.1-3.5,5.2-3.5,3.25,0,4.95,1.2,5.5,3.95l6.6-.85a9.733,9.733,0,0,0-2.7-4.95c-2.05-1.9-5.3-2.9-9.4-2.9-4.55,0-7.95,1.3-10,3.9a7.439,7.439,0,0,0-1.55,4.65,7.16,7.16,0,0,0,4.4,6.65,30.225,30.225,0,0,0,7.2,2.15c4,.9,4.3.95,5.25,1.6a3.057,3.057,0,0,1,1.3,2.5c0,2.35-2.3,3.8-6,3.8-3.9,0-5.75-1.35-6.6-4.75Zm57.8-4.55c-.1-1.15-.1-1.3-.1-1.4a20.555,20.555,0,0,0-1.45-7.6c-2-5-6.6-7.9-12.45-7.9-8.55,0-14.1,6.05-14.1,15.3,0,9.35,5.6,15.25,14.45,15.25a14.2,14.2,0,0,0,10.3-3.85,14.052,14.052,0,0,0,3.05-4.6l-5.9-1.9a7.267,7.267,0,0,1-1.45,2.6,8.411,8.411,0,0,1-12.25-.3c-1.15-1.45-1.6-2.85-1.85-5.6Zm-21.6-4.95c.75-4.2,3.6-6.8,7.5-6.8a7.131,7.131,0,0,1,5.4,2,7.848,7.848,0,0,1,2.2,4.8Zm47.5-11.05a25.925,25.925,0,0,0-4.65-.55c-4.5,0-7.6,1.7-9.4,5.25v-4.7h-6.8a39.529,39.529,0,0,1,.35,6.5v15.7a54.843,54.843,0,0,1-.35,6.5H217a52.584,52.584,0,0,1-.35-6.5v-9.25a8.048,8.048,0,0,1,2.05-5,7.137,7.137,0,0,1,5.8-2.45,14.932,14.932,0,0,1,4.45.8Z" transform="translate(243 500)"/>
    </g>
  </g>
</svg>
