<svg xmlns="http://www.w3.org/2000/svg" xmlns:xlink="http://www.w3.org/1999/xlink" width="1820" height="880" viewBox="0 0 1820 880">
  <defs>
    <clipPath id="clip-path">
      <rect id="矩形_2253" data-name="矩形 2253" width="1820" height="880" fill="#fff"/>
    </clipPath>
  </defs>
  <g id="banner" transform="translate(-50 -88)">
    <g id="组_21795" data-name="组 21795" transform="translate(0 -72)">
      <g id="NAV_bg" transform="translate(50 160)" clip-path="url(#clip-path)">
        <g id="组_21480" data-name="组 21480" transform="translate(-50 27)" opacity="0.05">
          <g id="组_21478" data-name="组 21478" transform="translate(0 7.733)">
            <g id="组_21420" data-name="组 21420" transform="translate(496.006 224.522)">
              <g id="组_21418" data-name="组 21418" transform="translate(0 0)">
                <rect id="矩形_2227" data-name="矩形 2227" width="472.183" height="1.891" transform="translate(0 84.71) rotate(-10.335)"/>
              </g>
              <g id="组_21419" data-name="组 21419" transform="translate(0 0)">
                <rect id="矩形_2228" data-name="矩形 2228" width="472.183" height="1.891" transform="translate(0 84.71) rotate(-10.335)"/>
              </g>
            </g>
            <g id="组_21424" data-name="组 21424" transform="translate(496.139 32.308)">
              <g id="组_21421" data-name="组 21421" transform="translate(464.098 0.366)">
                <rect id="矩形_2229" data-name="矩形 2229" width="192.908" height="1.261" transform="matrix(0.063, -0.998, 0.998, 0.063, 0, 192.522)"/>
              </g>
              <g id="组_21422" data-name="组 21422" transform="translate(0)">
                <path id="路径_37381" data-name="路径 37381" d="M63.23,337.945l-.63-1.261L538.566,59.3l1.261,1.261Z" transform="translate(-62.6 -59.3)"/>
              </g>
              <g id="组_21423" data-name="组 21423" transform="translate(0)">
                <path id="路径_37382" data-name="路径 37382" d="M63.23,337.945l-.63-1.261L538.566,59.3l1.261,1.261Z" transform="translate(-62.6 -59.3)"/>
              </g>
            </g>
            <g id="组_21429" data-name="组 21429" transform="translate(495.837 32.165)">
              <g id="组_21425" data-name="组 21425" transform="translate(326.765 0)">
                <rect id="矩形_2230" data-name="矩形 2230" width="182.191" height="1.261" transform="translate(0 104.013) rotate(-34.814)"/>
              </g>
              <g id="组_21426" data-name="组 21426" transform="translate(327.17 104.435)">
                <rect id="矩形_2231" data-name="矩形 2231" width="1.261" height="163.278" transform="matrix(0.54, -0.841, 0.841, 0.54, 0, 1.061)"/>
              </g>
              <g id="组_21427" data-name="组 21427" transform="translate(0 103.907)">
                <rect id="矩形_2232" data-name="矩形 2232" width="370.055" height="1.261" transform="translate(0 173.556) rotate(-27.969)"/>
              </g>
              <g id="组_21428" data-name="组 21428" transform="translate(0 103.907)">
                <rect id="矩形_2233" data-name="矩形 2233" width="370.055" height="1.261" transform="translate(0 173.556) rotate(-27.969)"/>
              </g>
            </g>
            <g id="组_21432" data-name="组 21432" transform="translate(0 309.692)">
              <g id="组_21430" data-name="组 21430">
                <path id="路径_37383" data-name="路径 37383" d="M-16.1,576.113,480.669,104.561l-.63-1.261L-16.1,574.222Z" transform="translate(16.1 -103.3)"/>
              </g>
              <g id="组_21431" data-name="组 21431">
                <path id="路径_37384" data-name="路径 37384" d="M-16.1,576.113,480.669,104.561l-.63-1.261L-16.1,574.222Z" transform="translate(16.1 -103.3)"/>
              </g>
            </g>
            <g id="组_21439" data-name="组 21439" transform="translate(0 136.327)">
              <g id="组_21433" data-name="组 21433" transform="translate(0 127.344)">
                <path id="路径_37385" data-name="路径 37385" d="M-16.1,493.163,55.768,96H53.876L-16.1,484.337Z" transform="translate(16.1 -96)"/>
              </g>
              <g id="组_21434" data-name="组 21434" transform="translate(0 115.366)">
                <path id="路径_37386" data-name="路径 37386" d="M-16.1,94.1v1.261l70.607,11.347.63-1.261Z" transform="translate(16.1 -94.1)"/>
              </g>
              <g id="组_21435" data-name="组 21435" transform="translate(70.607)">
                <path id="路径_37387" data-name="路径 37387" d="M-4.27,203.775l-.63-1.261L747.819,75.8v1.261Z" transform="translate(4.9 -75.8)"/>
              </g>
              <g id="组_21436" data-name="组 21436" transform="translate(0 126.714)">
                <path id="路径_37388" data-name="路径 37388" d="M-16.1,143.181,55.137,97.161l-.63-1.261L-16.1,141.29Z" transform="translate(16.1 -95.9)"/>
              </g>
              <g id="组_21437" data-name="组 21437" transform="translate(71.065 126.796)">
                <rect id="矩形_2234" data-name="矩形 2234" width="1.261" height="428.054" transform="translate(0 1.253) rotate(-83.754)"/>
              </g>
              <g id="组_21438" data-name="组 21438" transform="translate(71.065 126.796)">
                <rect id="矩形_2235" data-name="矩形 2235" width="1.261" height="428.054" transform="translate(0 1.253) rotate(-83.754)"/>
              </g>
            </g>
            <g id="组_21445" data-name="组 21445" transform="translate(495.939 33.135)">
              <g id="组_21440" data-name="组 21440" transform="translate(326.126 103.822)">
                <path id="路径_37389" data-name="路径 37389" d="M215.8,741.621,114.3,75.9h1.891L217.058,741.621Z" transform="translate(-114.3 -75.9)"/>
              </g>
              <g id="组_21441" data-name="组 21441" transform="translate(427.475 0)">
                <rect id="矩形_2236" data-name="矩形 2236" width="771.001" height="1.261" transform="translate(0 769.459) rotate(-86.406)"/>
              </g>
              <g id="组_21442" data-name="组 21442" transform="translate(427.648 192.686)">
                <rect id="矩形_2237" data-name="矩形 2237" width="578.093" height="1.261" transform="translate(0 576.937) rotate(-86.392)"/>
              </g>
              <g id="组_21443" data-name="组 21443" transform="translate(0 276.653)">
                <rect id="矩形_2238" data-name="矩形 2238" width="1.261" height="652.483" transform="matrix(0.755, -0.656, 0.656, 0.755, 0, 0.827)"/>
              </g>
              <g id="组_21444" data-name="组 21444" transform="translate(0 276.653)">
                <rect id="矩形_2239" data-name="矩形 2239" width="1.261" height="652.483" transform="matrix(0.755, -0.656, 0.656, 0.755, 0, 0.827)"/>
              </g>
            </g>
            <g id="组_21453" data-name="组 21453" transform="translate(0 136.728)">
              <g id="组_21446" data-name="组 21446" transform="translate(529.871 665.909)">
                <rect id="矩形_2240" data-name="矩形 2240" width="404.098" height="1.891" transform="matrix(0.976, -0.219, 0.219, 0.976, 0, 88.336)"/>
              </g>
              <g id="组_21447" data-name="组 21447" transform="translate(69.976 126.313)">
                <path id="路径_37390" data-name="路径 37390" d="M454.575,725.688-5,97.161-3.739,95.9,455.836,725.057Z" transform="translate(5 -95.9)"/>
              </g>
              <g id="组_21448" data-name="组 21448" transform="translate(0 674.146)">
                <path id="路径_37391" data-name="路径 37391" d="M-16.1,182.8v1.261l530.182,81.324v-1.891Z" transform="translate(16.1 -182.8)"/>
              </g>
              <g id="组_21449" data-name="组 21449" transform="translate(529.561)">
                <rect id="矩形_2241" data-name="矩形 2241" width="810.087" height="1.891" transform="translate(0 755.406) rotate(-68.826)"/>
              </g>
              <g id="组_21450" data-name="组 21450" transform="translate(529.551 88.488)">
                <path id="路径_37392" data-name="路径 37392" d="M69.161,757.513l-1.261-.63L498.476,89.9l1.261.63Z" transform="translate(-67.9 -89.9)"/>
              </g>
              <g id="组_21451" data-name="组 21451" transform="translate(495.627 173.374)">
                <rect id="矩形_2242" data-name="矩形 2242" width="1.891" height="583.137" transform="matrix(0.998, -0.058, 0.058, 0.998, 0, 0.11)"/>
              </g>
              <g id="组_21452" data-name="组 21452" transform="translate(495.627 173.374)">
                <rect id="矩形_2243" data-name="矩形 2243" width="1.891" height="583.137" transform="matrix(0.998, -0.058, 0.058, 0.998, 0, 0.11)"/>
              </g>
            </g>
            <g id="组_21458" data-name="组 21458" transform="translate(822.695 0)">
              <g id="组_21454" data-name="组 21454" transform="translate(552.246 0.157)">
                <path id="路径_37393" data-name="路径 37393" d="M793.962,371.3,202.63,54.2,202,55.461l591.962,317.1Z" transform="translate(-202 -54.2)"/>
              </g>
              <g id="组_21455" data-name="组 21455" transform="translate(0 0.157)">
                <path id="路径_37394" data-name="路径 37394" d="M115.03,191.631l-.63-1.261L666.646,54.2l.63,1.261Z" transform="translate(-114.4 -54.2)"/>
              </g>
              <g id="组_21456" data-name="组 21456" transform="translate(150.039 0.157)">
                <path id="路径_37395" data-name="路径 37395" d="M138.2,87.612V86.351L540.407,54.2l.63,1.261Z" transform="translate(-138.2 -54.2)"/>
              </g>
              <g id="组_21457" data-name="组 21457" transform="translate(137.898)">
                <rect id="矩形_2244" data-name="矩形 2244" width="471.553" height="1.261" transform="matrix(0.879, -0.477, 0.477, 0.879, 0, 224.789)"/>
              </g>
            </g>
            <g id="组_21461" data-name="组 21461" transform="translate(924.193 225.193)">
              <g id="组_21459" data-name="组 21459" transform="translate(0 576.855)">
                <path id="路径_37396" data-name="路径 37396" d="M572.423,284.789,130.5,182.661V181.4L572.423,282.9Z" transform="translate(-130.5 -181.4)"/>
              </g>
              <g id="组_21460" data-name="组 21460" transform="translate(35.844 0)">
                <rect id="矩形_2245" data-name="矩形 2245" width="1.891" height="791.175" transform="translate(0 0.97) rotate(-30.843)"/>
              </g>
            </g>
            <g id="组_21469" data-name="组 21469" transform="translate(822.695 0.025)">
              <g id="组_21462" data-name="组 21462" transform="translate(542.664 534.601)">
                <rect id="矩形_2246" data-name="矩形 2246" width="398.424" height="1.891" transform="matrix(0.374, -0.927, 0.927, 0.374, 0, 369.459)"/>
              </g>
              <g id="组_21463" data-name="组 21463" transform="translate(551.651 0)">
                <rect id="矩形_2247" data-name="矩形 2247" width="1.891" height="552.246" transform="matrix(0.967, -0.253, 0.253, 0.967, 0, 0.479)"/>
              </g>
              <g id="组_21464" data-name="组 21464" transform="translate(692.199 393.513)">
                <path id="路径_37397" data-name="路径 37397" d="M676.21,116.6,224.2,257.183v1.261L676.21,118.491Z" transform="translate(-224.2 -116.6)"/>
              </g>
              <g id="组_21465" data-name="组 21465" transform="translate(101.262 533.511)">
                <rect id="矩形_2248" data-name="矩形 2248" width="648.7" height="1.261" transform="translate(0 268.627) rotate(-24.463)"/>
              </g>
              <g id="组_21466" data-name="组 21466" transform="translate(0 136.302)">
                <path id="路径_37398" data-name="路径 37398" d="M805.968,474.855,114.4,77.061l.63-1.261,692.2,397.794Z" transform="translate(-114.4 -75.8)"/>
              </g>
              <g id="组_21467" data-name="组 21467" transform="translate(149.585 32.046)">
                <rect id="矩形_2249" data-name="矩形 2249" width="1.891" height="738.85" transform="translate(0 1.388) rotate(-47.229)"/>
              </g>
              <g id="组_21468" data-name="组 21468" transform="translate(137.402 224.553)">
                <rect id="矩形_2250" data-name="矩形 2250" width="1.891" height="634.831" transform="translate(0 1.652) rotate(-60.849)"/>
              </g>
            </g>
            <g id="组_21471" data-name="组 21471" transform="translate(1514.894 534.12)">
              <g id="组_21470" data-name="组 21470">
                <path id="路径_37399" data-name="路径 37399" d="M676.21,256.788,224.2,138.9v1.261L676.21,258.679Z" transform="translate(-224.2 -138.9)"/>
              </g>
            </g>
            <g id="组_21477" data-name="组 21477" transform="translate(924.091 497.556)">
              <g id="组_21472" data-name="组 21472" transform="translate(742.734 341.056)">
                <path id="路径_37400" data-name="路径 37400" d="M548.379,187.2,248.3,283.654l.63,1.891,299.448-96.454Z" transform="translate(-248.3 -187.2)"/>
              </g>
              <g id="组_21473" data-name="组 21473" transform="translate(590.173 36.564)">
                <path id="路径_37401" data-name="路径 37401" d="M376.661,541.107,224.1,139.531l1.261-.631L377.922,540.476Z" transform="translate(-224.1 -138.9)"/>
              </g>
              <g id="组_21474" data-name="组 21474" transform="translate(441.745 405.549)">
                <rect id="矩形_2251" data-name="矩形 2251" width="1.891" height="302.601" transform="translate(0 1.881) rotate(-83.996)"/>
              </g>
              <g id="组_21475" data-name="组 21475" transform="translate(742.734)">
                <path id="路径_37402" data-name="路径 37402" d="M548.379,133.1,248.3,571.241l1.261.63L548.379,135.622Z" transform="translate(-248.3 -133.1)"/>
              </g>
              <g id="组_21476" data-name="组 21476" transform="translate(0 304.675)">
                <rect id="矩形_2252" data-name="矩形 2252" width="1.261" height="754.61" transform="translate(0 1.241) rotate(-79.81)"/>
              </g>
            </g>
          </g>
          <g id="组_21479" data-name="组 21479" transform="translate(62.717)">
            <path id="路径_37403" data-name="路径 37403" d="M71.76,118.234a8.183,8.183,0,1,1,5.674-10.087C78.694,111.929,76.173,116.973,71.76,118.234Z" transform="translate(364.184 208.017)"/>
            <path id="路径_37404" data-name="路径 37404" d="M145.46,104.734a8.183,8.183,0,1,1,5.674-10.087C151.764,99.06,149.242,103.473,145.46,104.734Z" transform="translate(755.102 136.411)"/>
            <path id="路径_37405" data-name="路径 37405" d="M71.76,118.234a8.183,8.183,0,1,1,5.674-10.087C78.694,111.929,76.173,116.973,71.76,118.234Z" transform="translate(364.184 208.017)"/>
            <path id="路径_37406" data-name="路径 37406" d="M145.46,104.734a8.183,8.183,0,1,1,5.674-10.087C151.764,99.06,149.242,103.473,145.46,104.734Z" transform="translate(755.102 136.411)"/>
            <path id="路径_37407" data-name="路径 37407" d="M145.46,104.734a8.183,8.183,0,1,1,5.674-10.087C151.764,99.06,149.242,103.473,145.46,104.734Z" transform="translate(755.102 136.411)"/>
            <path id="路径_37408" data-name="路径 37408" d="M147.36,74.234a8.183,8.183,0,1,1,5.674-10.087C154.294,67.929,151.773,72.973,147.36,74.234Z" transform="translate(765.18 -25.367)"/>
            <path id="路径_37409" data-name="路径 37409" d="M71.76,118.234a8.183,8.183,0,1,1,5.674-10.087C78.694,111.929,76.173,116.973,71.76,118.234Z" transform="translate(364.184 208.017)"/>
            <path id="路径_37410" data-name="路径 37410" d="M147.36,74.234a8.183,8.183,0,1,1,5.674-10.087C154.294,67.929,151.773,72.973,147.36,74.234Z" transform="translate(765.18 -25.367)"/>
            <path id="路径_37411" data-name="路径 37411" d="M71.76,118.234a8.183,8.183,0,1,1,5.674-10.087C78.694,111.929,76.173,116.973,71.76,118.234Z" transform="translate(364.184 208.017)"/>
            <path id="路径_37412" data-name="路径 37412" d="M147.36,74.234a8.183,8.183,0,1,1,5.674-10.087C154.294,67.929,151.773,72.973,147.36,74.234Z" transform="translate(765.18 -25.367)"/>
            <path id="路径_37413" data-name="路径 37413" d="M147.36,74.234a8.183,8.183,0,1,1,5.674-10.087C154.294,67.929,151.773,72.973,147.36,74.234Z" transform="translate(765.18 -25.367)"/>
            <path id="路径_37414" data-name="路径 37414" d="M123.56,90.734a8.183,8.183,0,1,1,5.674-10.087C130.494,84.429,127.973,89.473,123.56,90.734Z" transform="translate(638.94 62.152)"/>
            <path id="路径_37415" data-name="路径 37415" d="M145.46,104.734a8.183,8.183,0,1,1,5.674-10.087C151.764,99.06,149.242,103.473,145.46,104.734Z" transform="translate(755.102 136.411)"/>
            <path id="路径_37416" data-name="路径 37416" d="M123.56,90.734a8.183,8.183,0,1,1,5.674-10.087C130.494,84.429,127.973,89.473,123.56,90.734Z" transform="translate(638.94 62.152)"/>
            <path id="路径_37417" data-name="路径 37417" d="M71.76,118.234a8.183,8.183,0,1,1,5.674-10.087C78.694,111.929,76.173,116.973,71.76,118.234Z" transform="translate(364.184 208.017)"/>
            <path id="路径_37418" data-name="路径 37418" d="M123.56,90.734a8.183,8.183,0,1,1,5.674-10.087C130.494,84.429,127.973,89.473,123.56,90.734Z" transform="translate(638.94 62.152)"/>
            <path id="路径_37419" data-name="路径 37419" d="M71.76,118.234a8.183,8.183,0,1,1,5.674-10.087C78.694,111.929,76.173,116.973,71.76,118.234Z" transform="translate(364.184 208.017)"/>
            <path id="路径_37420" data-name="路径 37420" d="M123.56,90.734a8.183,8.183,0,1,1,5.674-10.087C130.494,84.429,127.973,89.473,123.56,90.734Z" transform="translate(638.94 62.152)"/>
            <path id="路径_37421" data-name="路径 37421" d="M71.76,118.234a8.183,8.183,0,1,1,5.674-10.087C78.694,111.929,76.173,116.973,71.76,118.234Z" transform="translate(364.184 208.017)"/>
            <path id="路径_37422" data-name="路径 37422" d="M71.76,118.234a8.183,8.183,0,1,1,5.674-10.087C78.694,111.929,76.173,116.973,71.76,118.234Z" transform="translate(364.184 208.017)"/>
            <path id="路径_37423" data-name="路径 37423" d="M4.26,110.834A8.1,8.1,0,0,1-5.827,105.16,8.1,8.1,0,0,1-.153,95.073a8.1,8.1,0,0,1,10.087,5.674C11.194,104.529,8.673,109.573,4.26,110.834Z" transform="translate(6.151 168.766)"/>
            <path id="路径_37424" data-name="路径 37424" d="M4.26,110.834A8.1,8.1,0,0,1-5.827,105.16,8.1,8.1,0,0,1-.153,95.073a8.1,8.1,0,0,1,10.087,5.674C11.194,104.529,8.673,109.573,4.26,110.834Z" transform="translate(6.151 168.766)"/>
            <path id="路径_37425" data-name="路径 37425" d="M123.56,90.734a8.183,8.183,0,1,1,5.674-10.087C130.494,84.429,127.973,89.473,123.56,90.734Z" transform="translate(638.94 62.152)"/>
            <path id="路径_37426" data-name="路径 37426" d="M4.26,110.834A8.1,8.1,0,0,1-5.827,105.16,8.1,8.1,0,0,1-.153,95.073a8.1,8.1,0,0,1,10.087,5.674C11.194,104.529,8.673,109.573,4.26,110.834Z" transform="translate(6.151 168.766)"/>
            <path id="路径_37427" data-name="路径 37427" d="M4.26,110.834A8.1,8.1,0,0,1-5.827,105.16,8.1,8.1,0,0,1-.153,95.073a8.1,8.1,0,0,1,10.087,5.674C11.194,104.529,8.673,109.573,4.26,110.834Z" transform="translate(6.151 168.766)"/>
            <path id="路径_37428" data-name="路径 37428" d="M71.76,118.234a8.183,8.183,0,1,1,5.674-10.087C78.694,111.929,76.173,116.973,71.76,118.234Z" transform="translate(364.184 208.017)"/>
            <path id="路径_37429" data-name="路径 37429" d="M4.26,110.834A8.1,8.1,0,0,1-5.827,105.16,8.1,8.1,0,0,1-.153,95.073a8.1,8.1,0,0,1,10.087,5.674C11.194,104.529,8.673,109.573,4.26,110.834Z" transform="translate(6.151 168.766)"/>
            <path id="路径_37430" data-name="路径 37430" d="M71.76,118.234a8.183,8.183,0,1,1,5.674-10.087C78.694,111.929,76.173,116.973,71.76,118.234Z" transform="translate(364.184 208.017)"/>
            <path id="路径_37431" data-name="路径 37431" d="M4.26,110.834A8.1,8.1,0,0,1-5.827,105.16,8.1,8.1,0,0,1-.153,95.073a8.1,8.1,0,0,1,10.087,5.674C11.194,104.529,8.673,109.573,4.26,110.834Z" transform="translate(6.151 168.766)"/>
            <path id="路径_37432" data-name="路径 37432" d="M123.56,90.734a8.183,8.183,0,1,1,5.674-10.087C130.494,84.429,127.973,89.473,123.56,90.734Z" transform="translate(638.94 62.152)"/>
            <path id="路径_37433" data-name="路径 37433" d="M139.66,196.234a8.183,8.183,0,1,1,5.674-10.087A8.1,8.1,0,0,1,139.66,196.234Z" transform="translate(724.337 621.743)"/>
            <path id="路径_37434" data-name="路径 37434" d="M147.36,74.234a8.183,8.183,0,1,1,5.674-10.087C154.294,67.929,151.773,72.973,147.36,74.234Z" transform="translate(765.18 -25.367)"/>
            <path id="路径_37435" data-name="路径 37435" d="M139.66,196.234a8.183,8.183,0,1,1,5.674-10.087A8.1,8.1,0,0,1,139.66,196.234Z" transform="translate(724.337 621.743)"/>
            <path id="路径_37436" data-name="路径 37436" d="M145.46,104.734a8.183,8.183,0,1,1,5.674-10.087C151.764,99.06,149.242,103.473,145.46,104.734Z" transform="translate(755.102 136.411)"/>
            <path id="路径_37437" data-name="路径 37437" d="M139.66,196.234a8.183,8.183,0,1,1,5.674-10.087A8.1,8.1,0,0,1,139.66,196.234Z" transform="translate(724.337 621.743)"/>
            <path id="路径_37438" data-name="路径 37438" d="M71.76,118.234a8.183,8.183,0,1,1,5.674-10.087C78.694,111.929,76.173,116.973,71.76,118.234Z" transform="translate(364.184 208.017)"/>
            <path id="路径_37439" data-name="路径 37439" d="M139.66,196.234a8.183,8.183,0,1,1,5.674-10.087A8.1,8.1,0,0,1,139.66,196.234Z" transform="translate(724.337 621.743)"/>
            <path id="路径_37440" data-name="路径 37440" d="M71.76,118.234a8.183,8.183,0,1,1,5.674-10.087C78.694,111.929,76.173,116.973,71.76,118.234Z" transform="translate(364.184 208.017)"/>
            <path id="路径_37441" data-name="路径 37441" d="M139.66,196.234a8.183,8.183,0,1,1,5.674-10.087A8.1,8.1,0,0,1,139.66,196.234Z" transform="translate(724.337 621.743)"/>
            <path id="路径_37442" data-name="路径 37442" d="M139.66,196.234a8.183,8.183,0,1,1,5.674-10.087A8.1,8.1,0,0,1,139.66,196.234Z" transform="translate(724.337 621.743)"/>
            <path id="路径_37443" data-name="路径 37443" d="M77.16,210.534a8.183,8.183,0,1,1,5.674-10.087A8.1,8.1,0,0,1,77.16,210.534Z" transform="translate(392.826 697.593)"/>
            <path id="路径_37444" data-name="路径 37444" d="M4.26,110.834A8.1,8.1,0,0,1-5.827,105.16,8.1,8.1,0,0,1-.153,95.073a8.1,8.1,0,0,1,10.087,5.674C11.194,104.529,8.673,109.573,4.26,110.834Z" transform="translate(6.151 168.766)"/>
            <path id="路径_37445" data-name="路径 37445" d="M77.16,210.534a8.183,8.183,0,1,1,5.674-10.087A8.1,8.1,0,0,1,77.16,210.534Z" transform="translate(392.826 697.593)"/>
            <path id="路径_37446" data-name="路径 37446" d="M77.16,210.534a8.183,8.183,0,1,1,5.674-10.087A8.1,8.1,0,0,1,77.16,210.534Z" transform="translate(392.826 697.593)"/>
            <path id="路径_37447" data-name="路径 37447" d="M123.56,90.734a8.183,8.183,0,1,1,5.674-10.087C130.494,84.429,127.973,89.473,123.56,90.734Z" transform="translate(638.94 62.152)"/>
            <path id="路径_37448" data-name="路径 37448" d="M77.16,210.534a8.183,8.183,0,1,1,5.674-10.087A8.1,8.1,0,0,1,77.16,210.534Z" transform="translate(392.826 697.593)"/>
            <path id="路径_37449" data-name="路径 37449" d="M145.46,104.734a8.183,8.183,0,1,1,5.674-10.087C151.764,99.06,149.242,103.473,145.46,104.734Z" transform="translate(755.102 136.411)"/>
            <path id="路径_37450" data-name="路径 37450" d="M77.16,210.534a8.183,8.183,0,1,1,5.674-10.087A8.1,8.1,0,0,1,77.16,210.534Z" transform="translate(392.826 697.593)"/>
            <path id="路径_37451" data-name="路径 37451" d="M71.76,118.234a8.183,8.183,0,1,1,5.674-10.087C78.694,111.929,76.173,116.973,71.76,118.234Z" transform="translate(364.184 208.017)"/>
            <path id="路径_37452" data-name="路径 37452" d="M77.16,210.534a8.183,8.183,0,1,1,5.674-10.087A8.1,8.1,0,0,1,77.16,210.534Z" transform="translate(392.826 697.593)"/>
            <path id="路径_37453" data-name="路径 37453" d="M71.76,118.234a8.183,8.183,0,1,1,5.674-10.087C78.694,111.929,76.173,116.973,71.76,118.234Z" transform="translate(364.184 208.017)"/>
            <path id="路径_37454" data-name="路径 37454" d="M77.16,210.534a8.183,8.183,0,1,1,5.674-10.087A8.1,8.1,0,0,1,77.16,210.534Z" transform="translate(392.826 697.593)"/>
            <path id="路径_37455" data-name="路径 37455" d="M211.16,69.034a8.183,8.183,0,1,1,5.674-10.087A8.1,8.1,0,0,1,211.16,69.034Z" transform="translate(1103.586 -52.949)"/>
            <path id="路径_37456" data-name="路径 37456" d="M123.56,90.734a8.183,8.183,0,1,1,5.674-10.087C130.494,84.429,127.973,89.473,123.56,90.734Z" transform="translate(638.94 62.152)"/>
            <path id="路径_37457" data-name="路径 37457" d="M211.16,69.034a8.183,8.183,0,1,1,5.674-10.087A8.1,8.1,0,0,1,211.16,69.034Z" transform="translate(1103.586 -52.949)"/>
            <path id="路径_37458" data-name="路径 37458" d="M147.36,74.234a8.183,8.183,0,1,1,5.674-10.087C154.294,67.929,151.773,72.973,147.36,74.234Z" transform="translate(765.18 -25.367)"/>
            <path id="路径_37459" data-name="路径 37459" d="M211.16,69.034a8.183,8.183,0,1,1,5.674-10.087A8.1,8.1,0,0,1,211.16,69.034Z" transform="translate(1103.586 -52.949)"/>
            <path id="路径_37460" data-name="路径 37460" d="M145.46,104.734a8.183,8.183,0,1,1,5.674-10.087C151.764,99.06,149.242,103.473,145.46,104.734Z" transform="translate(755.102 136.411)"/>
            <path id="路径_37461" data-name="路径 37461" d="M211.16,69.034a8.183,8.183,0,1,1,5.674-10.087A8.1,8.1,0,0,1,211.16,69.034Z" transform="translate(1103.586 -52.949)"/>
            <path id="路径_37462" data-name="路径 37462" d="M139.66,196.234a8.183,8.183,0,1,1,5.674-10.087A8.1,8.1,0,0,1,139.66,196.234Z" transform="translate(724.337 621.743)"/>
            <path id="路径_37463" data-name="路径 37463" d="M209.76,212.434a8.183,8.183,0,1,1,5.674-10.087A8.1,8.1,0,0,1,209.76,212.434Z" transform="translate(1096.16 707.671)"/>
            <path id="路径_37464" data-name="路径 37464" d="M145.46,104.734a8.183,8.183,0,1,1,5.674-10.087C151.764,99.06,149.242,103.473,145.46,104.734Z" transform="translate(755.102 136.411)"/>
            <path id="路径_37465" data-name="路径 37465" d="M209.76,212.434a8.183,8.183,0,1,1,5.674-10.087A8.1,8.1,0,0,1,209.76,212.434Z" transform="translate(1096.16 707.671)"/>
            <path id="路径_37466" data-name="路径 37466" d="M209.76,212.434a8.183,8.183,0,1,1,5.674-10.087A8.1,8.1,0,0,1,209.76,212.434Z" transform="translate(1096.16 707.671)"/>
            <path id="路径_37467" data-name="路径 37467" d="M233.36,153.733a8.183,8.183,0,1,1,5.674-10.087A8.1,8.1,0,0,1,233.36,153.733Z" transform="translate(1221.339 396.315)"/>
            <path id="路径_37468" data-name="路径 37468" d="M211.16,69.034a8.183,8.183,0,1,1,5.674-10.087A8.1,8.1,0,0,1,211.16,69.034Z" transform="translate(1103.586 -52.949)"/>
            <path id="路径_37469" data-name="路径 37469" d="M233.36,153.733a8.183,8.183,0,1,1,5.674-10.087A8.1,8.1,0,0,1,233.36,153.733Z" transform="translate(1221.339 396.315)"/>
            <path id="路径_37470" data-name="路径 37470" d="M233.36,153.733a8.183,8.183,0,1,1,5.674-10.087A8.1,8.1,0,0,1,233.36,153.733Z" transform="translate(1221.339 396.315)"/>
            <path id="路径_37471" data-name="路径 37471" d="M139.66,196.234a8.183,8.183,0,1,1,5.674-10.087A8.1,8.1,0,0,1,139.66,196.234Z" transform="translate(724.337 621.743)"/>
            <path id="路径_37472" data-name="路径 37472" d="M233.36,153.733a8.183,8.183,0,1,1,5.674-10.087A8.1,8.1,0,0,1,233.36,153.733Z" transform="translate(1221.339 396.315)"/>
            <path id="路径_37473" data-name="路径 37473" d="M123.56,90.734a8.183,8.183,0,1,1,5.674-10.087C130.494,84.429,127.973,89.473,123.56,90.734Z" transform="translate(638.94 62.152)"/>
            <path id="路径_37474" data-name="路径 37474" d="M233.36,153.733a8.183,8.183,0,1,1,5.674-10.087A8.1,8.1,0,0,1,233.36,153.733Z" transform="translate(1221.339 396.315)"/>
            <path id="路径_37475" data-name="路径 37475" d="M147.36,74.234a8.183,8.183,0,1,1,5.674-10.087C154.294,67.929,151.773,72.973,147.36,74.234Z" transform="translate(765.18 -25.367)"/>
            <path id="路径_37476" data-name="路径 37476" d="M233.36,153.733a8.183,8.183,0,1,1,5.674-10.087A8.1,8.1,0,0,1,233.36,153.733Z" transform="translate(1221.339 396.315)"/>
            <path id="路径_37477" data-name="路径 37477" d="M145.46,104.734a8.183,8.183,0,1,1,5.674-10.087C151.764,99.06,149.242,103.473,145.46,104.734Z" transform="translate(755.102 136.411)"/>
            <path id="路径_37478" data-name="路径 37478" d="M233.36,153.733a8.183,8.183,0,1,1,5.674-10.087A8.1,8.1,0,0,1,233.36,153.733Z" transform="translate(1221.339 396.315)"/>
            <path id="路径_37479" data-name="路径 37479" d="M233.36,153.733a8.183,8.183,0,1,1,5.674-10.087A8.1,8.1,0,0,1,233.36,153.733Z" transform="translate(1221.339 396.315)"/>
            <path id="路径_37480" data-name="路径 37480" d="M257.46,217.434a8.183,8.183,0,1,1,5.674-10.087A8.1,8.1,0,0,1,257.46,217.434Z" transform="translate(1349.17 734.192)"/>
            <path id="路径_37481" data-name="路径 37481" d="M233.36,153.733a8.183,8.183,0,1,1,5.674-10.087A8.1,8.1,0,0,1,233.36,153.733Z" transform="translate(1221.339 396.315)"/>
            <path id="路径_37482" data-name="路径 37482" d="M257.46,217.434a8.183,8.183,0,1,1,5.674-10.087A8.1,8.1,0,0,1,257.46,217.434Z" transform="translate(1349.17 734.192)"/>
            <path id="路径_37483" data-name="路径 37483" d="M209.76,212.434a8.183,8.183,0,1,1,5.674-10.087A8.1,8.1,0,0,1,209.76,212.434Z" transform="translate(1096.16 707.671)"/>
            <path id="路径_37484" data-name="路径 37484" d="M257.46,217.434a8.183,8.183,0,1,1,5.674-10.087A8.1,8.1,0,0,1,257.46,217.434Z" transform="translate(1349.17 734.192)"/>
            <path id="路径_37485" data-name="路径 37485" d="M257.46,217.434a8.183,8.183,0,1,1,5.674-10.087A8.1,8.1,0,0,1,257.46,217.434Z" transform="translate(1349.17 734.192)"/>
            <path id="路径_37486" data-name="路径 37486" d="M139.66,196.234a8.183,8.183,0,1,1,5.674-10.087A8.1,8.1,0,0,1,139.66,196.234Z" transform="translate(724.337 621.743)"/>
          </g>
        </g>
      </g>
    </g>
    <g id="组_21710" data-name="组 21710" transform="translate(100 14)">
      <path id="路径_40965" data-name="路径 40965" d="M9.395-9.115l.2.025a4.779,4.779,0,0,1,1.638.482,4.564,4.564,0,0,1,1.308.99A4.509,4.509,0,0,1,13.419-6.2a4.916,4.916,0,0,1,.317,1.8,5.277,5.277,0,0,1-.381,2.069A4.015,4.015,0,0,1,12.264-.812,4.729,4.729,0,0,1,10.588.1a7.149,7.149,0,0,1-2.158.3A5.454,5.454,0,0,1,4.621-1.028,5.71,5.71,0,0,1,3.047-5.459v-3.4A7.112,7.112,0,0,1,5.5-14.625q2.45-2.057,7.351-2.057a15.825,15.825,0,0,1,4.075.419,11.572,11.572,0,0,1,2.628,1.054,6.95,6.95,0,0,1,1.892,1.549,8.633,8.633,0,0,1,1.231,1.879h.076v-4.012a4.819,4.819,0,0,0-.7-2.691,3.849,3.849,0,0,0-1.308-1.371q-.432.279-.749.457l-.686.381q-.368.2-.724.394t-.66.317H12.492q.432-.229,1.041-.609t1.257-.8q.647-.419,1.27-.838t1.054-.749a3.319,3.319,0,0,0-.432-.1q-.279-.051-.6-.089t-.66-.051q-.343-.013-.6-.013a21.538,21.538,0,0,0-3.136.241,27.029,27.029,0,0,0-3.212.673A25.175,25.175,0,0,0,5.5-19.627a16.078,16.078,0,0,0-2.45,1.244v-5.84a12.17,12.17,0,0,1,2.361-1.092,20.6,20.6,0,0,1,2.831-.749,29.923,29.923,0,0,1,3.174-.432q1.663-.14,3.415-.14.889,0,1.828.063t1.866.178q.927.114,1.765.279a10.191,10.191,0,0,1,1.473.394,5.233,5.233,0,0,0,.622-.7q.317-.419.622-.851t.546-.851a6.536,6.536,0,0,0,.368-.724h6.2a14.5,14.5,0,0,1-1.7,3.148A14.057,14.057,0,0,1,26.2-23.309a7.92,7.92,0,0,1,2.12,3.009,11.173,11.173,0,0,1,.749,4.278V0H22.75V-4.672A9.14,9.14,0,0,0,22.293-7.6a6.85,6.85,0,0,0-1.435-2.437,7.8,7.8,0,0,0-2.666-1.828,8.64,8.64,0,0,0-3.542-.749,6.563,6.563,0,0,0-4.062.965A2.783,2.783,0,0,0,9.395-9.471ZM6.982-4.393a1.885,1.885,0,0,0,.571,1.384,1.885,1.885,0,0,0,1.384.571,1.885,1.885,0,0,0,1.384-.571,1.885,1.885,0,0,0,.571-1.384,1.885,1.885,0,0,0-.571-1.384,1.885,1.885,0,0,0-1.384-.571,1.885,1.885,0,0,0-1.384.571A1.885,1.885,0,0,0,6.982-4.393Zm47.171-6.119a3.972,3.972,0,0,0-.254-1.46,2.754,2.754,0,0,0-.9-1.155,4.54,4.54,0,0,0-1.739-.774,17.709,17.709,0,0,0-3.707-.267q-2.209,0-4.139.14t-4.062.5v-3.656a13.309,13.309,0,0,1,.521-4.075A7.115,7.115,0,0,1,41.6-24.223a7.452,7.452,0,0,1,3.047-1.8,14.524,14.524,0,0,1,4.481-.609q.838,0,1.993.076t2.4.152l2.463.152q1.219.076,2.158.076,1.676,0,3.085-.063a21.4,21.4,0,0,0,2.222-.19v4.443a19.6,19.6,0,0,1-2.133.165q-1.244.038-3,.038-.914,0-2.234-.076l-2.653-.152q-1.333-.076-2.488-.152t-1.79-.076A7.263,7.263,0,0,0,46.815-22a2.46,2.46,0,0,0-.952.673,2.655,2.655,0,0,0-.533,1.016,8.819,8.819,0,0,0-.165,2.082q.736-.1,1.739-.178t2.882-.076a25.864,25.864,0,0,1,4.85.394,8.4,8.4,0,0,1,3.326,1.32,5.385,5.385,0,0,1,1.9,2.5,10.984,10.984,0,0,1,.609,3.936v4.875a5.925,5.925,0,0,1-1.5,4.354A5.232,5.232,0,0,1,55.093.406,7.182,7.182,0,0,1,52.947.1a4.715,4.715,0,0,1-1.688-.914,4.015,4.015,0,0,1-1.092-1.511,5.277,5.277,0,0,1-.381-2.069,4.922,4.922,0,0,1,.343-1.879,4.453,4.453,0,0,1,.939-1.447,4.525,4.525,0,0,1,1.384-.965,5.137,5.137,0,0,1,1.7-.432ZM56.54-4.393a1.885,1.885,0,0,0-.571-1.384,1.885,1.885,0,0,0-1.384-.571,1.885,1.885,0,0,0-1.384.571,1.885,1.885,0,0,0-.571,1.384A1.885,1.885,0,0,0,53.2-3.009a1.885,1.885,0,0,0,1.384.571,1.885,1.885,0,0,0,1.384-.571A1.885,1.885,0,0,0,56.54-4.393ZM55.8-33.947a3.769,3.769,0,0,1-.343.546,2.409,2.409,0,0,1-.559.533,3.313,3.313,0,0,1-.812.406,3.248,3.248,0,0,1-1.079.165,3.2,3.2,0,0,1-1.257-.241,2.978,2.978,0,0,1-.99-.673,3.19,3.19,0,0,1-.66-1.016,3.293,3.293,0,0,1-.241-1.27,2.811,2.811,0,0,1,1.066-2.209,4.678,4.678,0,0,1,3.123-.914,6.635,6.635,0,0,1,2.057.3,4.956,4.956,0,0,1,1.612.851,3.729,3.729,0,0,1,1.041,1.333,4.085,4.085,0,0,1,.368,1.752,4.487,4.487,0,0,1-2.26,4.012,6.729,6.729,0,0,0,3.428-.749,5.119,5.119,0,0,0,1.93-1.942,7.59,7.59,0,0,0,.863-2.653,24.154,24.154,0,0,0,.229-2.907h4.139q-.127,1.727-.343,3.174a11.8,11.8,0,0,1-.673,2.6,6.977,6.977,0,0,1-1.219,2.031,6.1,6.1,0,0,1-1.955,1.46,10.731,10.731,0,0,1-2.907.876,24.626,24.626,0,0,1-4.075.292h-3.2v-2.234a4.028,4.028,0,0,0,1.942-1.27A3.376,3.376,0,0,0,55.8-33.947Zm-3.961-1.523a1.368,1.368,0,0,0,.419,1,1.368,1.368,0,0,0,1,.419,1.368,1.368,0,0,0,1-.419,1.368,1.368,0,0,0,.419-1,1.368,1.368,0,0,0-.419-1,1.368,1.368,0,0,0-1-.419,1.368,1.368,0,0,0-1,.419A1.368,1.368,0,0,0,51.838-35.471ZM87.918,0V-15.437a5.986,5.986,0,0,0-1.65-4.545q-1.65-1.574-5.205-1.574a16.482,16.482,0,0,0-2.729.241,21.332,21.332,0,0,0-2.818.673A19.981,19.981,0,0,0,72.9-19.627a13.66,13.66,0,0,0-2.146,1.244v-5.84A8.788,8.788,0,0,1,72.8-25.314a16.816,16.816,0,0,1,2.539-.749,24.449,24.449,0,0,1,2.831-.432q1.473-.14,2.895-.14,6.7,0,9.94,2.717t3.237,7.9V0Zm31-21.836a1.885,1.885,0,0,0-.571-1.384,1.885,1.885,0,0,0-1.384-.571,1.885,1.885,0,0,0-1.384.571A1.885,1.885,0,0,0,115-21.836a1.885,1.885,0,0,0,.571,1.384,1.885,1.885,0,0,0,1.384.571,1.885,1.885,0,0,0,1.384-.571A1.885,1.885,0,0,0,118.914-21.836ZM116.5-17.113a5.137,5.137,0,0,1-1.7-.432,4.526,4.526,0,0,1-1.384-.965,4.289,4.289,0,0,1-.927-1.447,5.089,5.089,0,0,1-.33-1.879,5.277,5.277,0,0,1,.381-2.069,4.015,4.015,0,0,1,1.092-1.511,4.729,4.729,0,0,1,1.676-.914,7.149,7.149,0,0,1,2.158-.3q5.383,0,5.383,6.373V0h-6.424L102.995-12.365V-18L116.5-5.713Z" transform="translate(100 471)" fill="#0080f4"/>
      <path id="路径_41020" data-name="路径 41020" d="M5-9.6a4.159,4.159,0,0,0-3.1,1.2A5.137,5.137,0,0,0,.54-4.656c0,3.048,1.752,5,4.476,5S9.5-1.62,9.5-4.656A5.175,5.175,0,0,0,8.16-8.4,4.205,4.205,0,0,0,5-9.6ZM5.04-1.08a2.591,2.591,0,0,1-1.86-.732,3.965,3.965,0,0,1-.972-2.832c0-2.172,1.092-3.54,2.82-3.54a2.583,2.583,0,0,1,1.848.732,3.876,3.876,0,0,1,.948,2.8C7.824-2.448,6.756-1.08,5.04-1.08ZM36.576-9.408a9.767,9.767,0,0,1,.1,1.644V-3.54a2.191,2.191,0,0,1-2.436,2.484,2.2,2.2,0,0,1-2.46-2.472V-7.764a9.41,9.41,0,0,1,.1-1.644H30.084a9.858,9.858,0,0,1,.1,1.644v4.236a3.865,3.865,0,0,0,.9,2.76A4.134,4.134,0,0,0,34.176.36c2.616,0,4.092-1.392,4.092-3.876v-4.26a9.7,9.7,0,0,1,.1-1.632ZM67.332.144c-.168-.324-.468-.972-.564-1.188C65.58-3.852,65.352-4.188,64.6-4.428a2.537,2.537,0,0,0,1.332-.7,2.467,2.467,0,0,0,.612-1.788c0-1.584-1.044-2.5-2.868-2.5h-2.88c-.66,0-1.032-.012-1.536-.036a10.677,10.677,0,0,1,.1,1.56v6.468a9.391,9.391,0,0,1-.1,1.56h1.788a9.364,9.364,0,0,1-.1-1.572V-3.876h1.788c.924,0,1.344.444,1.992,2.1a9.714,9.714,0,0,1,.624,1.92ZM60.948-5.244v-2.8h2.46c.984,0,1.476.444,1.476,1.308A1.424,1.424,0,0,1,64.5-5.676a1.617,1.617,0,0,1-1.14.432ZM116.7.144a9.771,9.771,0,0,1,.528-1.6l1.8-4.224a14.644,14.644,0,0,0,.552-1.752c-.012.18-.048.792-.1,1.836v3.984a11.156,11.156,0,0,1-.1,1.752h1.68a10.4,10.4,0,0,1-.1-1.752V-7.632a12.427,12.427,0,0,1,.1-1.776H118.86a6.65,6.65,0,0,1-.432,1.428L116-2.028,113.568-7.98a8.305,8.305,0,0,1-.444-1.428h-2.2a11.9,11.9,0,0,1,.1,1.776v6.024a11.254,11.254,0,0,1-.1,1.752h1.68a10.964,10.964,0,0,1-.1-1.752V-5.544c0-.264-.048-1.248-.1-1.884a13.354,13.354,0,0,0,.612,1.836l1.728,4.116a8.169,8.169,0,0,1,.528,1.62Zm25.272-9.552a8.966,8.966,0,0,1,.1,1.548V-1.4a9.055,9.055,0,0,1-.1,1.548H143.8a9.055,9.055,0,0,1-.1-1.548V-7.86a8.966,8.966,0,0,1,.1-1.548Zm22.4,6.756a4.1,4.1,0,0,0,.228,1A2.825,2.825,0,0,0,165.66-.288a4.825,4.825,0,0,0,2.52.624,3.977,3.977,0,0,0,2.868-.912,2.792,2.792,0,0,0,.756-2.04,2.368,2.368,0,0,0-1-2.064,5.283,5.283,0,0,0-1.956-.732,10.216,10.216,0,0,1-1.692-.432,1.141,1.141,0,0,1-.816-1.092c0-.78.708-1.308,1.752-1.308a1.9,1.9,0,0,1,1.5.576,1.55,1.55,0,0,1,.36.852l1.716-.2a3.235,3.235,0,0,0-.588-1.392A3.537,3.537,0,0,0,168.1-9.624c-2.064,0-3.408,1.08-3.408,2.748a2.362,2.362,0,0,0,.924,1.944,4.242,4.242,0,0,0,1.812.732,7.566,7.566,0,0,1,2.088.588,1.218,1.218,0,0,1,.6,1.1c0,.9-.72,1.44-1.92,1.44a2.13,2.13,0,0,1-1.752-.708,1.72,1.72,0,0,1-.336-1.056Zm27.78,0a4.1,4.1,0,0,0,.228,1A2.825,2.825,0,0,0,193.44-.288a4.825,4.825,0,0,0,2.52.624,3.977,3.977,0,0,0,2.868-.912,2.792,2.792,0,0,0,.756-2.04,2.368,2.368,0,0,0-1-2.064,5.283,5.283,0,0,0-1.956-.732,10.216,10.216,0,0,1-1.692-.432,1.141,1.141,0,0,1-.816-1.092c0-.78.708-1.308,1.752-1.308a1.9,1.9,0,0,1,1.5.576,1.55,1.55,0,0,1,.36.852l1.716-.2a3.235,3.235,0,0,0-.588-1.392,3.537,3.537,0,0,0-2.988-1.212c-2.064,0-3.408,1.08-3.408,2.748a2.362,2.362,0,0,0,.924,1.944A4.242,4.242,0,0,0,195.2-4.2a7.566,7.566,0,0,1,2.088.588,1.218,1.218,0,0,1,.6,1.1c0,.9-.72,1.44-1.92,1.44a2.13,2.13,0,0,1-1.752-.708,1.72,1.72,0,0,1-.336-1.056Zm28.092-6.756a8.966,8.966,0,0,1,.1,1.548V-1.4a9.055,9.055,0,0,1-.1,1.548h1.824a9.055,9.055,0,0,1-.1-1.548V-7.86a8.966,8.966,0,0,1,.1-1.548ZM247.116-9.6a4.159,4.159,0,0,0-3.1,1.2,5.137,5.137,0,0,0-1.368,3.744c0,3.048,1.752,5,4.476,5s4.488-1.968,4.488-5A5.175,5.175,0,0,0,250.272-8.4,4.205,4.205,0,0,0,247.116-9.6Zm.036,8.52a2.591,2.591,0,0,1-1.86-.732,3.965,3.965,0,0,1-.972-2.832c0-2.172,1.092-3.54,2.82-3.54a2.583,2.583,0,0,1,1.848.732,3.876,3.876,0,0,1,.948,2.8C249.936-2.448,248.868-1.08,247.152-1.08ZM280.368.144a9.055,9.055,0,0,1-.1-1.548V-7.752a10.493,10.493,0,0,1,.1-1.656h-1.752a10.489,10.489,0,0,1,.1,1.656V-3.72c0,.5.036,1.224.084,1.692-.264-.48-.648-1.1-.936-1.536l-3.036-4.572a6.582,6.582,0,0,1-.732-1.272H272.22a9.993,9.993,0,0,1,.1,1.548v6.192a12.983,12.983,0,0,1-.1,1.812h1.752a13.282,13.282,0,0,1-.1-1.8V-5.592c0-.276-.024-.816-.036-1.044-.036-.444-.036-.444-.048-.612.288.564.588,1.08.816,1.44l3.1,4.668a11.958,11.958,0,0,1,.768,1.284Z" transform="translate(100 366)"/>
      <path id="路径_40966" data-name="路径 40966" d="M140.187-32.348v23.08l.2.025a4.779,4.779,0,0,1,1.638.482,4.564,4.564,0,0,1,1.308.99,4.509,4.509,0,0,1,.876,1.422,4.916,4.916,0,0,1,.317,1.8,5.277,5.277,0,0,1-.381,2.069,4.015,4.015,0,0,1-1.092,1.511,4.729,4.729,0,0,1-1.676.914,7.149,7.149,0,0,1-2.158.3,5.454,5.454,0,0,1-3.809-1.435,5.71,5.71,0,0,1-1.574-4.431V-32.855a6.547,6.547,0,0,0-.267-1.638,2.433,2.433,0,0,0-.66-1.079,2.615,2.615,0,0,0-1.143-.584,7.186,7.186,0,0,0-1.739-.178q-1.955,0-3.644.14a18.207,18.207,0,0,0-3.06.5v-3.4a11.52,11.52,0,0,1,.521-3.745,6.871,6.871,0,0,1,1.727-2.818,7.684,7.684,0,0,1,3.047-1.765,14.524,14.524,0,0,1,4.481-.609q.838,0,1.866.076t2.133.152l2.209.152q1.1.076,2.044.076,1.676,0,2.831-.063t1.968-.19v4.189q-.432.051-.889.089t-.99.063q-.533.025-1.206.038t-1.536.013q-.914,0-2.107-.076l-2.387-.152q-1.193-.076-2.234-.152t-1.676-.076a5.763,5.763,0,0,0-2.158.292,3.005,3.005,0,0,0-1.028.7,2.965,2.965,0,0,0-.584,1.016,5.293,5.293,0,0,0-.216,1.7,8.948,8.948,0,0,1,1.13-.152q.647-.051,2.2-.051a16.344,16.344,0,0,1,3,.3,5.682,5.682,0,0,1,2.666,1.181,5.108,5.108,0,0,1,1.536,2.45A14.542,14.542,0,0,1,140.187-32.348Zm-2.412,27.8a1.885,1.885,0,0,0,.571,1.384,1.885,1.885,0,0,0,1.384.571,1.885,1.885,0,0,0,1.384-.571,1.885,1.885,0,0,0,.571-1.384,1.885,1.885,0,0,0-.571-1.384A1.885,1.885,0,0,0,139.73-6.5a1.885,1.885,0,0,0-1.384.571A1.885,1.885,0,0,0,137.775-4.545Zm23.354-4.57.2.025a4.779,4.779,0,0,1,1.638.482,4.564,4.564,0,0,1,1.308.99,4.509,4.509,0,0,1,.876,1.422,4.916,4.916,0,0,1,.317,1.8,5.277,5.277,0,0,1-.381,2.069A4.015,4.015,0,0,1,164-.812,4.729,4.729,0,0,1,162.322.1a7.149,7.149,0,0,1-2.158.3,5.454,5.454,0,0,1-3.809-1.435,5.71,5.71,0,0,1-1.574-4.431v-3.4a7.112,7.112,0,0,1,2.45-5.764q2.45-2.057,7.351-2.057a16.72,16.72,0,0,1,3.91.406,10.847,10.847,0,0,1,2.793,1.041,7.328,7.328,0,0,1,1.892,1.511,7.865,7.865,0,0,1,1.231,1.841h.076v-4.062a5.857,5.857,0,0,0-.508-2.539,4.652,4.652,0,0,0-1.422-1.752,6.028,6.028,0,0,0-2.2-1,16.944,16.944,0,0,0-3.8-.317,21.538,21.538,0,0,0-3.136.241,27.029,27.029,0,0,0-3.212.673,25.175,25.175,0,0,0-2.983,1.016,16.078,16.078,0,0,0-2.45,1.244v-5.84a12.17,12.17,0,0,1,2.361-1.092,20.6,20.6,0,0,1,2.831-.749,29.923,29.923,0,0,1,3.174-.432q1.663-.14,3.415-.14,7.084,0,10.664,2.7t3.58,7.909V0h-6.348V-5.256a7.411,7.411,0,0,0-.482-2.679,6.931,6.931,0,0,0-1.435-2.272,7.917,7.917,0,0,0-2.552-1.739,9.6,9.6,0,0,0-3.961-.724,5.758,5.758,0,0,0-3.771.978,2.887,2.887,0,0,0-1.13,2.222Zm-2.412,4.723a1.885,1.885,0,0,0,.571,1.384,1.885,1.885,0,0,0,1.384.571,1.885,1.885,0,0,0,1.384-.571,1.885,1.885,0,0,0,.571-1.384,1.885,1.885,0,0,0-.571-1.384,1.885,1.885,0,0,0-1.384-.571,1.885,1.885,0,0,0-1.384.571A1.885,1.885,0,0,0,158.717-4.393ZM192.43,0V-6.525a6.977,6.977,0,0,1,.33-2.146,6.381,6.381,0,0,1,.978-1.892,6.281,6.281,0,0,1,1.625-1.5,7.548,7.548,0,0,1,2.3-.965h-5.916v-3.834a10.863,10.863,0,0,1,1.295-4.012,10.016,10.016,0,0,1,2.7-3.085,12.506,12.506,0,0,1,4.024-1.98,18.335,18.335,0,0,1,5.256-.7,20.351,20.351,0,0,1,6.056.8,11.855,11.855,0,0,1,4.215,2.222,8.782,8.782,0,0,1,2.463,3.364,11,11,0,0,1,.8,4.228V0h-6.322V-15.564a6.729,6.729,0,0,0-.457-2.564,5.115,5.115,0,0,0-1.295-1.879,5.627,5.627,0,0,0-2.12-1.168,11.319,11.319,0,0,0-3.339-.406,11.1,11.1,0,0,0-3.237.381,5.741,5.741,0,0,0-1.968,1.016,5.006,5.006,0,0,0-1.206,1.447,4.719,4.719,0,0,0-.546,1.8h5.053v3.91a12.812,12.812,0,0,0-1.447.533,4.368,4.368,0,0,0-1.409,1A5.21,5.21,0,0,0,199.2-9.737a7.786,7.786,0,0,0-.419,2.78V0Zm39.807,0V-17.113l-.2-.025a4.88,4.88,0,0,1-1.625-.482,4.508,4.508,0,0,1-1.32-.99,4.509,4.509,0,0,1-.876-1.422,4.916,4.916,0,0,1-.317-1.8,5.254,5.254,0,0,1,.381-2.082,4.038,4.038,0,0,1,1.092-1.5,4.715,4.715,0,0,1,1.688-.914,7.182,7.182,0,0,1,2.146-.3,5.454,5.454,0,0,1,3.809,1.435,5.71,5.71,0,0,1,1.574,4.431V-7.287L249.58-26.254h5.307a6.288,6.288,0,0,1,1.841.267,4.518,4.518,0,0,1,1.549.813,4,4,0,0,1,1.079,1.384,4.5,4.5,0,0,1,.406,1.98V0h-6.322V-19.754a1.661,1.661,0,0,0-.343-1.066,1.5,1.5,0,0,0-1.231-.432L239.347,0Zm2.412-21.836a1.885,1.885,0,0,0-.571-1.384,1.885,1.885,0,0,0-1.384-.571,1.885,1.885,0,0,0-1.384.571,1.885,1.885,0,0,0-.571,1.384,1.885,1.885,0,0,0,.571,1.384,1.885,1.885,0,0,0,1.384.571,1.885,1.885,0,0,0,1.384-.571A1.885,1.885,0,0,0,234.65-21.836Zm28.559-6.018q-3.123-.508-5.992-.851t-5.662-.546q-2.793-.2-5.6-.279t-5.8-.076a8.512,8.512,0,0,1,3.618-5.116,12.833,12.833,0,0,1,7.147-1.79,14.394,14.394,0,0,1,5.04.889,12.452,12.452,0,0,1,4.2,2.564v-5.561h3.047Zm-12.264-6.094q-4.621,0-5.789,2.311,3.631,0,6.855.2t6.2.584a6.286,6.286,0,0,0-1.117-1.181,7.109,7.109,0,0,0-1.6-.99,10.286,10.286,0,0,0-2.057-.673A11.469,11.469,0,0,0,250.946-33.947Zm8.988-.939h2.844v6.7h-2.844ZM292.713,0a12.922,12.922,0,0,0-1.752-2.247,22.026,22.026,0,0,0-2.272-2.044,13.188,13.188,0,0,0-3.3-1.777,11.637,11.637,0,0,0-3.339-.889v.863a6.694,6.694,0,0,1-1.612,4.812A5.737,5.737,0,0,1,276.082.406a7.686,7.686,0,0,1-5.027-1.371,5.016,5.016,0,0,1-1.625-4.062,5.7,5.7,0,0,1,.5-2.45,5.013,5.013,0,0,1,1.358-1.765,6.6,6.6,0,0,1,2.006-1.117,9.45,9.45,0,0,1,2.438-.508v-6.246l-.229-.025a4.88,4.88,0,0,1-1.625-.482,4.508,4.508,0,0,1-1.32-.99,4.509,4.509,0,0,1-.876-1.422,4.917,4.917,0,0,1-.317-1.8,5.254,5.254,0,0,1,.381-2.082,4.037,4.037,0,0,1,1.092-1.5,4.715,4.715,0,0,1,1.688-.914,7.182,7.182,0,0,1,2.146-.3,5.454,5.454,0,0,1,3.809,1.435,5.71,5.71,0,0,1,1.574,4.431v9.953a17.35,17.35,0,0,1,3.491.66A20.8,20.8,0,0,1,288.9-8.976a23.324,23.324,0,0,1,2.3,1.257A8.749,8.749,0,0,1,292.967-6.3V-26.254h6.322V0Zm-14.6-21.836a1.885,1.885,0,0,0-.571-1.384,1.885,1.885,0,0,0-1.384-.571,1.885,1.885,0,0,0-1.384.571,1.885,1.885,0,0,0-.571,1.384,1.885,1.885,0,0,0,.571,1.384,1.885,1.885,0,0,0,1.384.571,1.885,1.885,0,0,0,1.384-.571A1.885,1.885,0,0,0,278.114-21.836ZM275.727-7.059q-2.615.279-2.615,2.438a2,2,0,0,0,.355,1.295,1.131,1.131,0,0,0,.914.432,1.2,1.2,0,0,0,1-.432,2.414,2.414,0,0,0,.343-1.473Zm27.011-20.795q-3.123-.508-5.992-.851t-5.662-.546q-2.793-.2-5.6-.279t-5.8-.076a8.512,8.512,0,0,1,3.618-5.116,12.833,12.833,0,0,1,7.147-1.79,14.394,14.394,0,0,1,5.04.889,12.452,12.452,0,0,1,4.2,2.564v-5.561h3.047Zm-12.264-6.094q-4.621,0-5.789,2.311,3.631,0,6.855.2t6.2.584a6.286,6.286,0,0,0-1.117-1.181,7.109,7.109,0,0,0-1.6-.99,10.286,10.286,0,0,0-2.057-.673A11.469,11.469,0,0,0,290.474-33.947Zm27.117,7.668V-9.268l.2.025a4.779,4.779,0,0,1,1.638.482,4.564,4.564,0,0,1,1.308.99,4.509,4.509,0,0,1,.876,1.422,4.917,4.917,0,0,1,.317,1.8,5.277,5.277,0,0,1-.381,2.069A4.015,4.015,0,0,1,320.46-.965a4.73,4.73,0,0,1-1.676.914,7.149,7.149,0,0,1-2.158.3,5.454,5.454,0,0,1-3.809-1.435,5.71,5.71,0,0,1-1.574-4.431V-26.279ZM315.179-4.545a1.885,1.885,0,0,0,.571,1.384,1.885,1.885,0,0,0,1.384.571,1.885,1.885,0,0,0,1.384-.571,1.885,1.885,0,0,0,.571-1.384,1.885,1.885,0,0,0-.571-1.384,1.885,1.885,0,0,0-1.384-.571,1.885,1.885,0,0,0-1.384.571A1.885,1.885,0,0,0,315.179-4.545Zm17.469-21.734V-9.268l.2.025a4.779,4.779,0,0,1,1.638.482,4.564,4.564,0,0,1,1.308.99,4.509,4.509,0,0,1,.876,1.422,4.917,4.917,0,0,1,.317,1.8,5.277,5.277,0,0,1-.381,2.069,4.015,4.015,0,0,1-1.092,1.511,4.73,4.73,0,0,1-1.676.914,7.149,7.149,0,0,1-2.158.3,5.454,5.454,0,0,1-3.809-1.435A5.71,5.71,0,0,1,326.3-5.611V-26.279ZM330.236-4.545a1.885,1.885,0,0,0,.571,1.384,1.885,1.885,0,0,0,1.384.571,1.885,1.885,0,0,0,1.384-.571,1.885,1.885,0,0,0,.571-1.384,1.885,1.885,0,0,0-.571-1.384,1.885,1.885,0,0,0-1.384-.571,1.885,1.885,0,0,0-1.384.571A1.885,1.885,0,0,0,330.236-4.545Zm29.55-5.967a3.972,3.972,0,0,0-.254-1.46,2.754,2.754,0,0,0-.9-1.155,4.54,4.54,0,0,0-1.739-.774,17.709,17.709,0,0,0-3.707-.267q-2.209,0-4.139.14t-4.062.5v-3.656a13.309,13.309,0,0,1,.521-4.075,7.114,7.114,0,0,1,1.727-2.958,7.452,7.452,0,0,1,3.047-1.8,14.524,14.524,0,0,1,4.481-.609q.838,0,1.993.076t2.4.152l2.463.152q1.219.076,2.158.076,1.676,0,3.085-.063a21.4,21.4,0,0,0,2.222-.19v4.443a19.6,19.6,0,0,1-2.133.165q-1.244.038-3,.038-.914,0-2.234-.076l-2.653-.152q-1.333-.076-2.488-.152t-1.79-.076a7.263,7.263,0,0,0-2.336.241,2.46,2.46,0,0,0-.952.673,2.655,2.655,0,0,0-.533,1.016,8.819,8.819,0,0,0-.165,2.082q.736-.1,1.739-.178t2.882-.076a25.864,25.864,0,0,1,4.85.394,8.4,8.4,0,0,1,3.326,1.32,5.385,5.385,0,0,1,1.9,2.5,10.984,10.984,0,0,1,.609,3.936v4.875a5.925,5.925,0,0,1-1.5,4.354A5.232,5.232,0,0,1,360.725.406a7.182,7.182,0,0,1-2.146-.3,4.715,4.715,0,0,1-1.688-.914A4.015,4.015,0,0,1,355.8-2.323a5.277,5.277,0,0,1-.381-2.069,4.922,4.922,0,0,1,.343-1.879,4.453,4.453,0,0,1,.939-1.447,4.526,4.526,0,0,1,1.384-.965,5.137,5.137,0,0,1,1.7-.432Zm2.387,6.119a1.885,1.885,0,0,0-.571-1.384,1.885,1.885,0,0,0-1.384-.571,1.885,1.885,0,0,0-1.384.571,1.885,1.885,0,0,0-.571,1.384,1.885,1.885,0,0,0,.571,1.384,1.885,1.885,0,0,0,1.384.571,1.885,1.885,0,0,0,1.384-.571A1.885,1.885,0,0,0,362.172-4.393Zm29.55-17.443a1.885,1.885,0,0,0-.571-1.384,1.885,1.885,0,0,0-1.384-.571,1.885,1.885,0,0,0-1.384.571,1.885,1.885,0,0,0-.571,1.384,1.885,1.885,0,0,0,.571,1.384,1.885,1.885,0,0,0,1.384.571,1.885,1.885,0,0,0,1.384-.571A1.885,1.885,0,0,0,391.722-21.836Zm-2.412,4.723a5.137,5.137,0,0,1-1.7-.432,4.526,4.526,0,0,1-1.384-.965,4.289,4.289,0,0,1-.927-1.447,5.089,5.089,0,0,1-.33-1.879,5.277,5.277,0,0,1,.381-2.069,4.015,4.015,0,0,1,1.092-1.511,4.73,4.73,0,0,1,1.676-.914,7.149,7.149,0,0,1,2.158-.3q5.383,0,5.383,6.373V0h-6.424L375.8-12.365V-18L389.309-5.713ZM409.668,0V-17.113l-.2-.025a4.88,4.88,0,0,1-1.625-.482,4.508,4.508,0,0,1-1.32-.99,4.509,4.509,0,0,1-.876-1.422,4.917,4.917,0,0,1-.317-1.8,5.254,5.254,0,0,1,.381-2.082,4.037,4.037,0,0,1,1.092-1.5,4.715,4.715,0,0,1,1.688-.914,7.182,7.182,0,0,1,2.146-.3,5.454,5.454,0,0,1,3.809,1.435,5.71,5.71,0,0,1,1.574,4.431V-5.053h6.8a3.751,3.751,0,0,0,2.564-.825,3.121,3.121,0,0,0,.939-2.476v-17.9h6.322V-7.287a8.67,8.67,0,0,1-.482,2.945,6.238,6.238,0,0,1-1.435,2.311,6.488,6.488,0,0,1-2.361,1.5A9.11,9.11,0,0,1,425.131,0Zm2.412-21.836a1.885,1.885,0,0,0-.571-1.384,1.885,1.885,0,0,0-1.384-.571,1.885,1.885,0,0,0-1.384.571,1.885,1.885,0,0,0-.571,1.384,1.885,1.885,0,0,0,.571,1.384,1.885,1.885,0,0,0,1.384.571,1.885,1.885,0,0,0,1.384-.571A1.885,1.885,0,0,0,412.08-21.836Zm18.1-11.1a1.885,1.885,0,0,0-.571-1.384,1.885,1.885,0,0,0-1.384-.571,1.885,1.885,0,0,0-1.384.571,1.885,1.885,0,0,0-.571,1.384,1.885,1.885,0,0,0,.571,1.384,1.885,1.885,0,0,0,1.384.571,1.885,1.885,0,0,0,1.384-.571A1.885,1.885,0,0,0,430.178-32.932Zm2.564,1.447a12.338,12.338,0,0,0,2.234-1.181,15.4,15.4,0,0,0,2.095-1.676,19.41,19.41,0,0,0,1.892-2.082,26.607,26.607,0,0,0,1.65-2.349v5.23a12.572,12.572,0,0,1-1.866,2.019,15.883,15.883,0,0,1-2.628,1.879,16.364,16.364,0,0,1-3.161,1.4,11.2,11.2,0,0,1-3.466.546,8.188,8.188,0,0,1-2.666-.394,5.467,5.467,0,0,1-1.9-1.079,4.393,4.393,0,0,1-1.143-1.612,5.192,5.192,0,0,1-.381-1.993,4.874,4.874,0,0,1,.381-1.917,5.12,5.12,0,0,1,1.028-1.574,4.85,4.85,0,0,1,1.523-1.066,4.5,4.5,0,0,1,1.866-.394,4.72,4.72,0,0,1,1.879.381,4.847,4.847,0,0,1,1.536,1.028,4.885,4.885,0,0,1,1.028,1.523,4.629,4.629,0,0,1,.381,1.866,3.986,3.986,0,0,1-.1.863A2.423,2.423,0,0,1,432.743-31.484ZM453-6.3a13.637,13.637,0,0,1,1.739-1.5,12.089,12.089,0,0,1,2.222-1.282,25.33,25.33,0,0,1,2.755-1.028,20.425,20.425,0,0,1,4.2-.711V-26.254h6.322v15.387a9.45,9.45,0,0,1,2.438.508,6.6,6.6,0,0,1,2.006,1.117,5.013,5.013,0,0,1,1.358,1.765,5.7,5.7,0,0,1,.5,2.45,5.016,5.016,0,0,1-1.625,4.063A7.686,7.686,0,0,1,469.889.406a5.737,5.737,0,0,1-4.354-1.688,6.694,6.694,0,0,1-1.612-4.812v-.863a12.377,12.377,0,0,0-3.9.927,14.176,14.176,0,0,0-2.844,1.638,14.585,14.585,0,0,0-2.209,2.069A17.2,17.2,0,0,0,453.258,0h-6.6V-17.113l-.2-.025a4.88,4.88,0,0,1-1.625-.482,4.508,4.508,0,0,1-1.32-.99,4.509,4.509,0,0,1-.876-1.422,4.917,4.917,0,0,1-.317-1.8,5.254,5.254,0,0,1,.381-2.082,4.037,4.037,0,0,1,1.092-1.5,4.715,4.715,0,0,1,1.688-.914,7.182,7.182,0,0,1,2.146-.3A5.454,5.454,0,0,1,451.43-25.2,5.71,5.71,0,0,1,453-20.77Zm17.24,1.5a2.414,2.414,0,0,0,.343,1.473,1.2,1.2,0,0,0,1,.432,1.131,1.131,0,0,0,.914-.432,2,2,0,0,0,.355-1.295q0-2.158-2.615-2.437ZM449.069-21.836a1.885,1.885,0,0,0-.571-1.384,1.885,1.885,0,0,0-1.384-.571,1.885,1.885,0,0,0-1.384.571,1.885,1.885,0,0,0-.571,1.384,1.885,1.885,0,0,0,.571,1.384,1.885,1.885,0,0,0,1.384.571,1.885,1.885,0,0,0,1.384-.571A1.885,1.885,0,0,0,449.069-21.836ZM492.99-4.875a15.975,15.975,0,0,0,1.8-1.422,4.88,4.88,0,0,0,1.117-1.5,4.293,4.293,0,0,1-1.879-1.676,4.949,4.949,0,0,1-.686-2.641,5.219,5.219,0,0,1,.355-1.955,4.342,4.342,0,0,1,.99-1.511,4.605,4.605,0,0,1,1.511-.978,5.121,5.121,0,0,1,1.942-.355,5.121,5.121,0,0,1,1.942.355,4.455,4.455,0,0,1,1.523,1.016,4.574,4.574,0,0,1,1,1.587,5.664,5.664,0,0,1,.355,2.044,7.589,7.589,0,0,1-.47,2.679,10.774,10.774,0,0,1-1.244,2.374,13.881,13.881,0,0,1-1.79,2.095,25.436,25.436,0,0,1-2.12,1.828q-1.1.851-2.234,1.574L492.99,0h-6.348V-4.926a17.187,17.187,0,0,0-.279-3.2q-.279-1.473-.622-2.882t-.635-2.844a15.324,15.324,0,0,1-.292-3.06,8.495,8.495,0,0,1,1-4.177,8.755,8.755,0,0,1,2.831-3.047A13.674,13.674,0,0,1,493.053-26a23.956,23.956,0,0,1,5.726-.635,23.8,23.8,0,0,1,5.865.66,12.773,12.773,0,0,1,4.405,1.98,8.656,8.656,0,0,1,2.768,3.313,10.7,10.7,0,0,1,.952,4.659V0h-6.322V-15.514a6.738,6.738,0,0,0-.33-2.12,5.469,5.469,0,0,0-1.041-1.841,5.867,5.867,0,0,0-2.171-1.473,10.667,10.667,0,0,0-4.126-.635,10.536,10.536,0,0,0-3.986.609,6.024,6.024,0,0,0-2.158,1.4,5.833,5.833,0,0,0-1.092,1.727,5.221,5.221,0,0,0-.381,1.98,13.259,13.259,0,0,0,.292,2.818q.292,1.346.635,2.653t.622,2.59a12.312,12.312,0,0,1,.279,2.628Zm7.109-7.236a1.885,1.885,0,0,0-.571-1.384,1.885,1.885,0,0,0-1.384-.571,1.885,1.885,0,0,0-1.384.571,1.885,1.885,0,0,0-.571,1.384,1.885,1.885,0,0,0,.571,1.384,1.885,1.885,0,0,0,1.384.571,1.885,1.885,0,0,0,1.384-.571A1.885,1.885,0,0,0,500.1-12.111ZM539.272,0V-15.437a5.986,5.986,0,0,0-1.65-4.545q-1.65-1.574-5.205-1.574a16.482,16.482,0,0,0-2.729.241,21.334,21.334,0,0,0-2.818.673,19.981,19.981,0,0,0-2.615,1.016,13.659,13.659,0,0,0-2.146,1.244v-5.84a8.788,8.788,0,0,1,2.044-1.092,16.816,16.816,0,0,1,2.539-.749,24.449,24.449,0,0,1,2.831-.432q1.473-.14,2.895-.14,6.7,0,9.94,2.717t3.237,7.9V0Zm23.964-9.115.2.025a4.778,4.778,0,0,1,1.638.482,4.564,4.564,0,0,1,1.308.99A4.51,4.51,0,0,1,567.26-6.2a4.916,4.916,0,0,1,.317,1.8,5.277,5.277,0,0,1-.381,2.069A4.016,4.016,0,0,1,566.1-.812,4.729,4.729,0,0,1,564.429.1a7.149,7.149,0,0,1-2.158.3,5.454,5.454,0,0,1-3.809-1.435,5.71,5.71,0,0,1-1.574-4.431v-3.4a7.112,7.112,0,0,1,2.45-5.764q2.45-2.057,7.351-2.057a16.72,16.72,0,0,1,3.91.406,10.847,10.847,0,0,1,2.793,1.041,7.328,7.328,0,0,1,1.892,1.511,7.865,7.865,0,0,1,1.231,1.841h.076v-4.062a5.857,5.857,0,0,0-.508-2.539,4.652,4.652,0,0,0-1.422-1.752,6.028,6.028,0,0,0-2.2-1,16.944,16.944,0,0,0-3.8-.317,21.538,21.538,0,0,0-3.136.241,27.03,27.03,0,0,0-3.212.673,25.174,25.174,0,0,0-2.983,1.016,16.078,16.078,0,0,0-2.45,1.244v-5.84a12.171,12.171,0,0,1,2.361-1.092,20.6,20.6,0,0,1,2.831-.749,29.923,29.923,0,0,1,3.174-.432q1.663-.14,3.415-.14,7.084,0,10.664,2.7t3.58,7.909V0h-6.348V-5.256a7.411,7.411,0,0,0-.482-2.679,6.93,6.93,0,0,0-1.435-2.272,7.917,7.917,0,0,0-2.552-1.739,9.6,9.6,0,0,0-3.961-.724,5.758,5.758,0,0,0-3.771.978,2.887,2.887,0,0,0-1.13,2.222Zm-2.412,4.723a1.885,1.885,0,0,0,.571,1.384,1.885,1.885,0,0,0,1.384.571,1.885,1.885,0,0,0,1.384-.571,1.885,1.885,0,0,0,.571-1.384,1.885,1.885,0,0,0-.571-1.384,1.885,1.885,0,0,0-1.384-.571,1.885,1.885,0,0,0-1.384.571A1.885,1.885,0,0,0,560.823-4.393Zm38.411-.152a1.885,1.885,0,0,0,.571,1.384,1.885,1.885,0,0,0,1.384.571,1.885,1.885,0,0,0,1.384-.571,1.885,1.885,0,0,0,.571-1.384,1.885,1.885,0,0,0-.571-1.384,1.885,1.885,0,0,0-1.384-.571,1.885,1.885,0,0,0-1.384.571A1.885,1.885,0,0,0,599.234-4.545Zm2.412-4.723.2.025a4.88,4.88,0,0,1,1.625.482,4.507,4.507,0,0,1,1.32.99,4.51,4.51,0,0,1,.876,1.422,4.916,4.916,0,0,1,.317,1.8,5.254,5.254,0,0,1-.381,2.082,4.038,4.038,0,0,1-1.092,1.5,4.715,4.715,0,0,1-1.688.914,7.182,7.182,0,0,1-2.146.3,5.441,5.441,0,0,1-3.821-1.435A5.737,5.737,0,0,1,595.3-5.611v-24.73a24.573,24.573,0,0,1,.254-3.542,7.767,7.767,0,0,1,.736-2.374,5.626,5.626,0,0,1,1.32-1.663,14.252,14.252,0,0,1,1.955-1.384,6,6,0,0,0-.216-1.663,4.334,4.334,0,0,0-.851-1.523A4.116,4.116,0,0,0,596.72-43.7a7.854,7.854,0,0,0-2.768-.432,9.436,9.436,0,0,0-3.618.635,5.06,5.06,0,0,0-2.3,1.727,1.051,1.051,0,0,1,.317-.063q.19-.013.317-.013a5.121,5.121,0,0,1,1.942.355,4.605,4.605,0,0,1,1.511.978,4.343,4.343,0,0,1,.99,1.511,5.218,5.218,0,0,1,.355,1.955,5.218,5.218,0,0,1-.355,1.955,4.343,4.343,0,0,1-.99,1.511,4.605,4.605,0,0,1-1.511.978,5.121,5.121,0,0,1-1.942.355,5.473,5.473,0,0,1-2.4-.5,4.948,4.948,0,0,1-1.739-1.384,6.015,6.015,0,0,1-1.066-2.133A9.959,9.959,0,0,1,583.111-39a9.453,9.453,0,0,1,.736-3.771,7.938,7.938,0,0,1,2.184-2.945,10.314,10.314,0,0,1,3.593-1.917,20.148,20.148,0,0,1,5.9-.686,13.93,13.93,0,0,1,3.923.635,10.731,10.731,0,0,1,3.631,1.8,7.761,7.761,0,0,1,2.272,2.856,8.817,8.817,0,0,1,.787,3.771,12.311,12.311,0,0,0-2.133,1.473,6.12,6.12,0,0,0-1.384,1.752,7.8,7.8,0,0,0-.749,2.272,17.355,17.355,0,0,0-.229,3.009Zm-14.93-27.777a1.885,1.885,0,0,0,.571,1.384,1.885,1.885,0,0,0,1.384.571,1.885,1.885,0,0,0,1.384-.571,1.885,1.885,0,0,0,.571-1.384,1.885,1.885,0,0,0-.571-1.384A1.885,1.885,0,0,0,588.672-39a1.885,1.885,0,0,0-1.384.571A1.885,1.885,0,0,0,586.716-37.045ZM633-6.4v-9.547a5.986,5.986,0,0,0-.5-2.539,4.543,4.543,0,0,0-1.409-1.752,6.025,6.025,0,0,0-2.209-1,17.125,17.125,0,0,0-3.809-.317,21.538,21.538,0,0,0-3.136.241,27.03,27.03,0,0,0-3.212.673,25.174,25.174,0,0,0-2.983,1.016,16.078,16.078,0,0,0-2.45,1.244v-5.84a12.171,12.171,0,0,1,2.361-1.092,20.6,20.6,0,0,1,2.831-.749,29.923,29.923,0,0,1,3.174-.432q1.663-.14,3.415-.14,7.084,0,10.664,2.7t3.58,7.909V0h-6.7L625.94-7.262a4.721,4.721,0,0,1-1.5,1.193,4.989,4.989,0,0,1-2.285.457,4.926,4.926,0,0,1-1.9-.368A4.677,4.677,0,0,1,618.716-7a4.928,4.928,0,0,1-1.028-1.511,4.54,4.54,0,0,1-.381-1.854,5.254,5.254,0,0,1,.381-2.082,4.247,4.247,0,0,1,1.054-1.5,4.379,4.379,0,0,1,1.612-.914,6.548,6.548,0,0,1,2.031-.3,5.535,5.535,0,0,1,1.587.216,5.994,5.994,0,0,1,1.346.584,6.733,6.733,0,0,1,1.155.863q.533.5,1.041,1.054Zm-8.937-3.961a1.885,1.885,0,0,0-.571-1.384,1.885,1.885,0,0,0-1.384-.571,1.885,1.885,0,0,0-1.384.571,1.885,1.885,0,0,0-.571,1.384,1.885,1.885,0,0,0,.571,1.384,1.885,1.885,0,0,0,1.384.571,1.885,1.885,0,0,0,1.384-.571A1.885,1.885,0,0,0,624.061-10.359Zm31.251,5.814a1.885,1.885,0,0,0,.571,1.384,1.885,1.885,0,0,0,1.384.571,1.885,1.885,0,0,0,1.384-.571,1.885,1.885,0,0,0,.571-1.384,1.885,1.885,0,0,0-.571-1.384,1.885,1.885,0,0,0-1.384-.571,1.885,1.885,0,0,0-1.384.571A1.885,1.885,0,0,0,655.312-4.545Zm2.412-4.723.2.025a4.88,4.88,0,0,1,1.625.482,4.507,4.507,0,0,1,1.32.99,4.51,4.51,0,0,1,.876,1.422,4.916,4.916,0,0,1,.317,1.8,5.254,5.254,0,0,1-.381,2.082,4.038,4.038,0,0,1-1.092,1.5,4.715,4.715,0,0,1-1.688.914,7.182,7.182,0,0,1-2.146.3,5.441,5.441,0,0,1-3.821-1.435,5.737,5.737,0,0,1-1.562-4.431v-24.73a24.573,24.573,0,0,1,.254-3.542,7.767,7.767,0,0,1,.736-2.374,5.626,5.626,0,0,1,1.32-1.663,14.252,14.252,0,0,1,1.955-1.384,6,6,0,0,0-.216-1.663,4.334,4.334,0,0,0-.851-1.523A4.116,4.116,0,0,0,652.8-43.7a7.854,7.854,0,0,0-2.768-.432,9.436,9.436,0,0,0-3.618.635,5.06,5.06,0,0,0-2.3,1.727,1.051,1.051,0,0,1,.317-.063q.19-.013.317-.013a5.121,5.121,0,0,1,1.942.355,4.605,4.605,0,0,1,1.511.978,4.343,4.343,0,0,1,.99,1.511,5.218,5.218,0,0,1,.355,1.955,5.218,5.218,0,0,1-.355,1.955,4.343,4.343,0,0,1-.99,1.511,4.605,4.605,0,0,1-1.511.978,5.121,5.121,0,0,1-1.942.355,5.473,5.473,0,0,1-2.4-.5,4.948,4.948,0,0,1-1.739-1.384,6.015,6.015,0,0,1-1.066-2.133A9.959,9.959,0,0,1,639.189-39a9.453,9.453,0,0,1,.736-3.771,7.938,7.938,0,0,1,2.184-2.945,10.314,10.314,0,0,1,3.593-1.917,20.148,20.148,0,0,1,5.9-.686,13.93,13.93,0,0,1,3.923.635,10.731,10.731,0,0,1,3.631,1.8,7.761,7.761,0,0,1,2.272,2.856,8.817,8.817,0,0,1,.787,3.771,12.311,12.311,0,0,0-2.133,1.473,6.12,6.12,0,0,0-1.384,1.752,7.8,7.8,0,0,0-.749,2.272,17.355,17.355,0,0,0-.229,3.009Zm-14.93-27.777a1.885,1.885,0,0,0,.571,1.384,1.885,1.885,0,0,0,1.384.571,1.885,1.885,0,0,0,1.384-.571,1.885,1.885,0,0,0,.571-1.384,1.885,1.885,0,0,0-.571-1.384A1.885,1.885,0,0,0,644.749-39a1.885,1.885,0,0,0-1.384.571A1.885,1.885,0,0,0,642.794-37.045Zm52.2,14.955a1.715,1.715,0,0,0-.152-.749,1.627,1.627,0,0,0-.381-.521,1.4,1.4,0,0,0-.508-.292,1.833,1.833,0,0,0-.559-.089,1.88,1.88,0,0,0-1.1.368,1.318,1.318,0,0,0-.521,1.155,2,2,0,0,0,.533,1.346,3.357,3.357,0,0,0,1.168.889,5.714,5.714,0,0,0,.521-.355,3.231,3.231,0,0,0,.5-.47,2.343,2.343,0,0,0,.368-.584A1.715,1.715,0,0,0,694.992-22.09ZM673.791,0V-17.113l-.2-.025a4.88,4.88,0,0,1-1.625-.482,4.507,4.507,0,0,1-1.32-.99,4.51,4.51,0,0,1-.876-1.422,4.916,4.916,0,0,1-.317-1.8,5.254,5.254,0,0,1,.381-2.082,4.038,4.038,0,0,1,1.092-1.5,4.715,4.715,0,0,1,1.688-.914,7.182,7.182,0,0,1,2.146-.3,5.454,5.454,0,0,1,3.809,1.435,5.71,5.71,0,0,1,1.574,4.431V-8.734q1.27-1.422,2.691-2.793t2.577-2.349q1.155-.978,2.4-1.93t2.666-1.968q-.381-.355-.825-.838a8.1,8.1,0,0,1-.825-1.066,6,6,0,0,1-.622-1.257,4.219,4.219,0,0,1-.241-1.435,3.713,3.713,0,0,1,1.511-3.11,6.281,6.281,0,0,1,3.923-1.155,10.566,10.566,0,0,1,2.564.292,6.737,6.737,0,0,1,2.019.838,4.006,4.006,0,0,1,1.32,1.346,3.567,3.567,0,0,1,.47,1.841,3.953,3.953,0,0,1-.2,1.282,5.219,5.219,0,0,1-.533,1.117,5.9,5.9,0,0,1-.749.952,11.313,11.313,0,0,1-.876.813A5.042,5.042,0,0,1,698.864-17a5.451,5.451,0,0,1,.9,1.485,7.6,7.6,0,0,1,.47,1.765,13.733,13.733,0,0,1,.14,1.993V0h-6.322V-11.6a16.18,16.18,0,0,0-.114-2.082,3.061,3.061,0,0,0-.825-1.65q-.939.66-2.285,1.79T688.2-11.261q-1.282,1.155-2.552,2.438a40.365,40.365,0,0,0-2.755,3.136,19.4,19.4,0,0,0-2.12,3.1,5.05,5.05,0,0,0-.635,2.26V0ZM676.2-21.836a1.885,1.885,0,0,0-.571-1.384,1.885,1.885,0,0,0-1.384-.571,1.885,1.885,0,0,0-1.384.571,1.885,1.885,0,0,0-.571,1.384,1.885,1.885,0,0,0,.571,1.384,1.885,1.885,0,0,0,1.384.571,1.885,1.885,0,0,0,1.384-.571A1.885,1.885,0,0,0,676.2-21.836Zm18.682-12.111a3.773,3.773,0,0,1-.343.546,2.409,2.409,0,0,1-.559.533,3.312,3.312,0,0,1-.812.406,3.248,3.248,0,0,1-1.079.165,3.2,3.2,0,0,1-1.257-.241,2.978,2.978,0,0,1-.99-.673,3.19,3.19,0,0,1-.66-1.016,3.293,3.293,0,0,1-.241-1.27,2.811,2.811,0,0,1,1.066-2.209,4.678,4.678,0,0,1,3.123-.914,6.635,6.635,0,0,1,2.057.3,4.956,4.956,0,0,1,1.612.851,3.729,3.729,0,0,1,1.041,1.333,4.085,4.085,0,0,1,.368,1.752,4.487,4.487,0,0,1-2.26,4.012,6.729,6.729,0,0,0,3.428-.749,5.119,5.119,0,0,0,1.93-1.942,7.59,7.59,0,0,0,.863-2.653,24.146,24.146,0,0,0,.229-2.907h4.139q-.127,1.727-.343,3.174a11.8,11.8,0,0,1-.673,2.6,6.977,6.977,0,0,1-1.219,2.031,6.1,6.1,0,0,1-1.955,1.46,10.731,10.731,0,0,1-2.907.876,24.626,24.626,0,0,1-4.075.292h-3.2v-2.234a4.028,4.028,0,0,0,1.942-1.27A3.376,3.376,0,0,0,694.886-33.947Zm-3.961-1.523a1.368,1.368,0,0,0,.419,1,1.368,1.368,0,0,0,1,.419,1.368,1.368,0,0,0,1-.419,1.368,1.368,0,0,0,.419-1,1.368,1.368,0,0,0-.419-1,1.368,1.368,0,0,0-1-.419,1.368,1.368,0,0,0-1,.419A1.368,1.368,0,0,0,690.925-35.471ZM711.8,0V-6.525a6.977,6.977,0,0,1,.33-2.146,6.381,6.381,0,0,1,.978-1.892,6.282,6.282,0,0,1,1.625-1.5,7.548,7.548,0,0,1,2.3-.965H711.11v-3.834a10.863,10.863,0,0,1,1.295-4.012,10.015,10.015,0,0,1,2.7-3.085,12.506,12.506,0,0,1,4.024-1.98,18.335,18.335,0,0,1,5.256-.7,20.351,20.351,0,0,1,6.056.8,11.855,11.855,0,0,1,4.215,2.222,8.782,8.782,0,0,1,2.463,3.364,11,11,0,0,1,.8,4.228V0H731.6V-15.564a6.729,6.729,0,0,0-.457-2.564,5.115,5.115,0,0,0-1.295-1.879,5.627,5.627,0,0,0-2.12-1.168,11.319,11.319,0,0,0-3.339-.406,11.1,11.1,0,0,0-3.237.381,5.741,5.741,0,0,0-1.968,1.016,5.005,5.005,0,0,0-1.206,1.447,4.719,4.719,0,0,0-.546,1.8h5.053v3.91a12.812,12.812,0,0,0-1.447.533,4.368,4.368,0,0,0-1.409,1,5.21,5.21,0,0,0-1.066,1.752,7.786,7.786,0,0,0-.419,2.78V0Zm23.329-32.932a1.885,1.885,0,0,0-.571-1.384,1.885,1.885,0,0,0-1.384-.571,1.885,1.885,0,0,0-1.384.571,1.885,1.885,0,0,0-.571,1.384,1.885,1.885,0,0,0,.571,1.384,1.885,1.885,0,0,0,1.384.571,1.885,1.885,0,0,0,1.384-.571A1.885,1.885,0,0,0,735.125-32.932Zm2.564,1.447a12.337,12.337,0,0,0,2.234-1.181,15.408,15.408,0,0,0,2.095-1.676,19.41,19.41,0,0,0,1.892-2.082,26.6,26.6,0,0,0,1.65-2.349v5.23a12.569,12.569,0,0,1-1.866,2.019,15.886,15.886,0,0,1-2.628,1.879,16.362,16.362,0,0,1-3.161,1.4,11.2,11.2,0,0,1-3.466.546,8.188,8.188,0,0,1-2.666-.394,5.467,5.467,0,0,1-1.9-1.079,4.393,4.393,0,0,1-1.143-1.612,5.192,5.192,0,0,1-.381-1.993,4.874,4.874,0,0,1,.381-1.917,5.12,5.12,0,0,1,1.028-1.574,4.85,4.85,0,0,1,1.523-1.066,4.5,4.5,0,0,1,1.866-.394,4.72,4.72,0,0,1,1.879.381,4.846,4.846,0,0,1,1.536,1.028,4.885,4.885,0,0,1,1.028,1.523,4.629,4.629,0,0,1,.381,1.866,3.987,3.987,0,0,1-.1.863A2.422,2.422,0,0,1,737.689-31.484ZM751.6,0V-17.113l-.2-.025a4.88,4.88,0,0,1-1.625-.482,4.507,4.507,0,0,1-1.32-.99,4.51,4.51,0,0,1-.876-1.422,4.916,4.916,0,0,1-.317-1.8,5.254,5.254,0,0,1,.381-2.082,4.038,4.038,0,0,1,1.092-1.5,4.715,4.715,0,0,1,1.688-.914,7.182,7.182,0,0,1,2.146-.3,5.454,5.454,0,0,1,3.809,1.435,5.71,5.71,0,0,1,1.574,4.431V-5.053h6.8a3.751,3.751,0,0,0,2.564-.825,3.121,3.121,0,0,0,.939-2.476v-17.9h6.322V-7.287a8.671,8.671,0,0,1-.482,2.945,6.238,6.238,0,0,1-1.435,2.311,6.488,6.488,0,0,1-2.361,1.5A9.11,9.11,0,0,1,767.066,0Zm2.412-21.836a1.885,1.885,0,0,0-.571-1.384,1.885,1.885,0,0,0-1.384-.571,1.885,1.885,0,0,0-1.384.571,1.885,1.885,0,0,0-.571,1.384,1.885,1.885,0,0,0,.571,1.384,1.885,1.885,0,0,0,1.384.571,1.885,1.885,0,0,0,1.384-.571A1.885,1.885,0,0,0,754.015-21.836ZM3.047,90V83.475a6.977,6.977,0,0,1,.33-2.146,6.382,6.382,0,0,1,.978-1.892,6.281,6.281,0,0,1,1.625-1.5,7.548,7.548,0,0,1,2.3-.965H2.361V73.141a10.863,10.863,0,0,1,1.295-4.012,10.016,10.016,0,0,1,2.7-3.085,12.506,12.506,0,0,1,4.024-1.98,18.335,18.335,0,0,1,5.256-.7,20.351,20.351,0,0,1,6.056.8,11.855,11.855,0,0,1,4.215,2.222,8.782,8.782,0,0,1,2.463,3.364,11,11,0,0,1,.8,4.228V90H22.852V74.436a6.729,6.729,0,0,0-.457-2.564A5.115,5.115,0,0,0,21.1,69.992a5.627,5.627,0,0,0-2.12-1.168,11.319,11.319,0,0,0-3.339-.406A11.1,11.1,0,0,0,12.4,68.8a5.741,5.741,0,0,0-1.968,1.016,5.006,5.006,0,0,0-1.206,1.447,4.719,4.719,0,0,0-.546,1.8h5.053v3.91a12.811,12.811,0,0,0-1.447.533,4.368,4.368,0,0,0-1.409,1,5.21,5.21,0,0,0-1.066,1.752,7.786,7.786,0,0,0-.419,2.78V90Zm52.63,0V74.563a5.986,5.986,0,0,0-1.65-4.545q-1.65-1.574-5.205-1.574a16.482,16.482,0,0,0-2.729.241,21.332,21.332,0,0,0-2.818.673,19.981,19.981,0,0,0-2.615,1.016,13.66,13.66,0,0,0-2.146,1.244v-5.84a8.788,8.788,0,0,1,2.044-1.092,16.816,16.816,0,0,1,2.539-.749,24.449,24.449,0,0,1,2.831-.432q1.473-.14,2.895-.14,6.7,0,9.94,2.717T62,73.979V90ZM86.75,79.488a3.972,3.972,0,0,0-.254-1.46,2.754,2.754,0,0,0-.9-1.155,4.54,4.54,0,0,0-1.739-.774,17.709,17.709,0,0,0-3.707-.267q-2.209,0-4.139.14t-4.062.5V72.811a13.309,13.309,0,0,1,.521-4.075,7.115,7.115,0,0,1,1.727-2.958,7.452,7.452,0,0,1,3.047-1.8,14.524,14.524,0,0,1,4.481-.609q.838,0,1.993.076t2.4.152l2.463.152q1.219.076,2.158.076,1.676,0,3.085-.063a21.4,21.4,0,0,0,2.222-.19v4.443a19.605,19.605,0,0,1-2.133.165q-1.244.038-3,.038-.914,0-2.234-.076l-2.653-.152q-1.333-.076-2.488-.152t-1.79-.076A7.263,7.263,0,0,0,79.412,68a2.46,2.46,0,0,0-.952.673,2.655,2.655,0,0,0-.533,1.016,8.819,8.819,0,0,0-.165,2.082q.736-.1,1.739-.178t2.882-.076a25.864,25.864,0,0,1,4.85.394,8.4,8.4,0,0,1,3.326,1.32,5.385,5.385,0,0,1,1.9,2.5,10.984,10.984,0,0,1,.609,3.936v4.875a5.925,5.925,0,0,1-1.5,4.354,5.232,5.232,0,0,1-3.885,1.511,7.182,7.182,0,0,1-2.146-.3,4.715,4.715,0,0,1-1.688-.914,4.015,4.015,0,0,1-1.092-1.511,5.277,5.277,0,0,1-.381-2.069,4.922,4.922,0,0,1,.343-1.879,4.453,4.453,0,0,1,.939-1.447,4.525,4.525,0,0,1,1.384-.965,5.137,5.137,0,0,1,1.7-.432Zm2.387,6.119a1.951,1.951,0,1,0-.571,1.384A1.885,1.885,0,0,0,89.136,85.607Zm22.516-4.723.2.025a4.779,4.779,0,0,1,1.638.482,4.564,4.564,0,0,1,1.308.99,4.509,4.509,0,0,1,.876,1.422,4.916,4.916,0,0,1,.317,1.8,5.277,5.277,0,0,1-.381,2.069,4.015,4.015,0,0,1-1.092,1.511,4.729,4.729,0,0,1-1.676.914,7.149,7.149,0,0,1-2.158.3,5.454,5.454,0,0,1-3.809-1.435,5.71,5.71,0,0,1-1.574-4.431v-3.4a7.112,7.112,0,0,1,2.45-5.764q2.45-2.057,7.351-2.057a15.825,15.825,0,0,1,4.075.419,11.572,11.572,0,0,1,2.628,1.054A6.95,6.95,0,0,1,123.7,76.34a8.633,8.633,0,0,1,1.231,1.879h.076V74.207a4.819,4.819,0,0,0-.7-2.691A3.849,3.849,0,0,0,123,70.145q-.432.279-.749.457l-.686.381q-.368.2-.724.394t-.66.317H114.75q.432-.229,1.041-.609t1.257-.8q.647-.419,1.27-.838t1.054-.749a3.319,3.319,0,0,0-.432-.1q-.279-.051-.6-.089t-.66-.051q-.343-.013-.6-.013a21.538,21.538,0,0,0-3.136.241,27.028,27.028,0,0,0-3.212.673,25.175,25.175,0,0,0-2.983,1.016,16.077,16.077,0,0,0-2.45,1.244v-5.84a12.169,12.169,0,0,1,2.361-1.092,20.6,20.6,0,0,1,2.831-.749,29.923,29.923,0,0,1,3.174-.432q1.663-.14,3.415-.14.889,0,1.828.063t1.866.178q.927.114,1.765.279a10.191,10.191,0,0,1,1.473.394,5.233,5.233,0,0,0,.622-.7q.317-.419.622-.851t.546-.851a6.536,6.536,0,0,0,.368-.724h6.2a14.5,14.5,0,0,1-1.7,3.148,14.058,14.058,0,0,1-2.209,2.387,7.92,7.92,0,0,1,2.12,3.009,11.173,11.173,0,0,1,.749,4.278V90h-6.322V85.328a9.14,9.14,0,0,0-.457-2.933,6.85,6.85,0,0,0-1.435-2.437,7.8,7.8,0,0,0-2.666-1.828,8.64,8.64,0,0,0-3.542-.749,6.563,6.563,0,0,0-4.062.965,2.783,2.783,0,0,0-1.193,2.184Zm-2.412,4.723a1.951,1.951,0,1,0,.571-1.384A1.885,1.885,0,0,0,109.241,85.607Zm25.538-23.461q-3.123-.508-5.992-.851t-5.662-.546q-2.793-.2-5.6-.279t-5.8-.076a8.512,8.512,0,0,1,3.618-5.116,12.833,12.833,0,0,1,7.147-1.79,14.428,14.428,0,0,1,2.209.165,16.453,16.453,0,0,1,2.107.47V51.381h3.047V55.52a10.965,10.965,0,0,1,1.879,1.422V51.381h3.047Zm-12.264-6.094q-4.621,0-5.789,2.311,3.631,0,6.855.2t6.2.584a6.286,6.286,0,0,0-1.117-1.181,7.109,7.109,0,0,0-1.6-.99A10.286,10.286,0,0,0,125,56.307,11.469,11.469,0,0,0,122.515,56.053Zm8.988-.939h2.844v6.7H131.5Zm11.451,24.375a5.684,5.684,0,0,1,1.587-4.431,5.466,5.466,0,0,1,3.8-1.435,7.149,7.149,0,0,1,2.158.3,4.729,4.729,0,0,1,1.676.914,4.038,4.038,0,0,1,1.092,1.5,5.254,5.254,0,0,1,.381,2.082,5.018,5.018,0,0,1-.317,1.815,4.362,4.362,0,0,1-.889,1.435,4.727,4.727,0,0,1-2.958,1.473l-.178.025q.025.939,1.333,1.523a11.419,11.419,0,0,0,4.3.584,10.394,10.394,0,0,0,2.933-.33,5.466,5.466,0,0,0,1.828-.927,4.278,4.278,0,0,0,1.219-1.663,6.059,6.059,0,0,0,.47-2.463V74.842a6.939,6.939,0,0,0-.6-3.1,5.2,5.2,0,0,0-1.511-1.879,6.625,6.625,0,0,0-2.361-1.054,14.153,14.153,0,0,0-3.453-.368,21.537,21.537,0,0,0-3.136.241,27.029,27.029,0,0,0-3.212.673,25.174,25.174,0,0,0-2.983,1.016,16.078,16.078,0,0,0-2.45,1.244v-5.84a12.17,12.17,0,0,1,2.361-1.092,20.6,20.6,0,0,1,2.831-.749,29.923,29.923,0,0,1,3.174-.432q1.663-.14,3.415-.14,7.084,0,10.664,2.7t3.58,7.909v5.764a13.893,13.893,0,0,1-.7,4.621,7.689,7.689,0,0,1-2.234,3.313,10.045,10.045,0,0,1-3.961,2.006,22.24,22.24,0,0,1-5.878.673,22.7,22.7,0,0,1-5.789-.622,10.2,10.2,0,0,1-3.682-1.7,5.968,5.968,0,0,1-1.942-2.564,8.8,8.8,0,0,1-.571-3.187Zm3.936-1.066a1.951,1.951,0,1,0,.571-1.384A1.885,1.885,0,0,0,146.89,78.422ZM185.1,80.885l.2.025a4.779,4.779,0,0,1,1.638.482,4.564,4.564,0,0,1,1.308.99,4.509,4.509,0,0,1,.876,1.422,4.916,4.916,0,0,1,.317,1.8,5.277,5.277,0,0,1-.381,2.069,4.015,4.015,0,0,1-1.092,1.511,4.729,4.729,0,0,1-1.676.914,7.149,7.149,0,0,1-2.158.3,5.454,5.454,0,0,1-3.809-1.435,5.71,5.71,0,0,1-1.574-4.431v-3.4a7.112,7.112,0,0,1,2.45-5.764q2.45-2.057,7.351-2.057a15.825,15.825,0,0,1,4.075.419,11.572,11.572,0,0,1,2.628,1.054,6.95,6.95,0,0,1,1.892,1.549,8.633,8.633,0,0,1,1.231,1.879h.076V74.207a4.819,4.819,0,0,0-.7-2.691,3.849,3.849,0,0,0-1.308-1.371q-.432.279-.749.457l-.686.381q-.368.2-.724.394t-.66.317H188.2q.432-.229,1.041-.609t1.257-.8q.647-.419,1.27-.838t1.054-.749a3.319,3.319,0,0,0-.432-.1q-.279-.051-.6-.089t-.66-.051q-.343-.013-.6-.013a21.537,21.537,0,0,0-3.136.241,27.029,27.029,0,0,0-3.212.673,25.174,25.174,0,0,0-2.983,1.016,16.078,16.078,0,0,0-2.45,1.244v-5.84a12.17,12.17,0,0,1,2.361-1.092,20.6,20.6,0,0,1,2.831-.749,29.923,29.923,0,0,1,3.174-.432q1.663-.14,3.415-.14.889,0,1.828.063t1.866.178q.927.114,1.765.279a10.191,10.191,0,0,1,1.473.394,5.234,5.234,0,0,0,.622-.7q.317-.419.622-.851t.546-.851a6.536,6.536,0,0,0,.368-.724h6.2a14.5,14.5,0,0,1-1.7,3.148,14.058,14.058,0,0,1-2.209,2.387,7.92,7.92,0,0,1,2.12,3.009,11.173,11.173,0,0,1,.749,4.278V90h-6.322V85.328A9.14,9.14,0,0,0,198,82.4a6.85,6.85,0,0,0-1.435-2.437A7.8,7.8,0,0,0,193.9,78.13a8.64,8.64,0,0,0-3.542-.749,6.563,6.563,0,0,0-4.062.965,2.783,2.783,0,0,0-1.193,2.184Zm-2.412,4.723a1.951,1.951,0,1,0,.571-1.384A1.885,1.885,0,0,0,182.686,85.607ZM231.608,90V74.563a5.986,5.986,0,0,0-1.65-4.545q-1.65-1.574-5.205-1.574a16.482,16.482,0,0,0-2.729.241,21.333,21.333,0,0,0-2.818.673,19.981,19.981,0,0,0-2.615,1.016,13.66,13.66,0,0,0-2.146,1.244v-5.84a8.788,8.788,0,0,1,2.044-1.092,16.816,16.816,0,0,1,2.539-.749,24.449,24.449,0,0,1,2.831-.432q1.473-.14,2.895-.14,6.7,0,9.94,2.717t3.237,7.9V90Zm31.073-10.512a3.972,3.972,0,0,0-.254-1.46,2.754,2.754,0,0,0-.9-1.155,4.54,4.54,0,0,0-1.739-.774,17.709,17.709,0,0,0-3.707-.267q-2.209,0-4.139.14t-4.062.5V72.811a13.309,13.309,0,0,1,.521-4.075,7.115,7.115,0,0,1,1.727-2.958,7.452,7.452,0,0,1,3.047-1.8,14.524,14.524,0,0,1,4.481-.609q.838,0,1.993.076t2.4.152l2.463.152q1.219.076,2.158.076,1.676,0,3.085-.063a21.4,21.4,0,0,0,2.222-.19v4.443a19.6,19.6,0,0,1-2.133.165q-1.244.038-3,.038-.914,0-2.234-.076l-2.653-.152q-1.333-.076-2.488-.152t-1.79-.076a7.263,7.263,0,0,0-2.336.241,2.46,2.46,0,0,0-.952.673,2.655,2.655,0,0,0-.533,1.016,8.819,8.819,0,0,0-.165,2.082q.736-.1,1.739-.178t2.882-.076a25.864,25.864,0,0,1,4.85.394,8.4,8.4,0,0,1,3.326,1.32,5.385,5.385,0,0,1,1.9,2.5A10.984,10.984,0,0,1,269,79.666v4.875a5.925,5.925,0,0,1-1.5,4.354,5.232,5.232,0,0,1-3.885,1.511,7.182,7.182,0,0,1-2.146-.3,4.715,4.715,0,0,1-1.688-.914,4.015,4.015,0,0,1-1.092-1.511,5.277,5.277,0,0,1-.381-2.069,4.922,4.922,0,0,1,.343-1.879,4.453,4.453,0,0,1,.939-1.447,4.525,4.525,0,0,1,1.384-.965,5.137,5.137,0,0,1,1.7-.432Zm2.387,6.119a1.951,1.951,0,1,0-.571,1.384A1.885,1.885,0,0,0,265.068,85.607Zm19.7-15.768a5.121,5.121,0,0,1,1.942.355,4.605,4.605,0,0,1,1.511.978,4.342,4.342,0,0,1,.99,1.511,5.554,5.554,0,0,1,0,3.91,4.342,4.342,0,0,1-.99,1.511,4.605,4.605,0,0,1-1.511.978,5.121,5.121,0,0,1-1.942.355,5.473,5.473,0,0,1-2.4-.5,4.949,4.949,0,0,1-1.739-1.384,6.014,6.014,0,0,1-1.066-2.133,9.961,9.961,0,0,1-.355-2.742,9.453,9.453,0,0,1,.736-3.771,7.937,7.937,0,0,1,2.184-2.945,10.314,10.314,0,0,1,3.593-1.917,16.419,16.419,0,0,1,4.989-.686,14.889,14.889,0,0,1,4.545.635,10.959,10.959,0,0,1,3.466,1.8,7.762,7.762,0,0,1,2.272,2.856,8.817,8.817,0,0,1,.787,3.771,12.313,12.313,0,0,0-2.133,1.473,6.12,6.12,0,0,0-1.384,1.752,7.8,7.8,0,0,0-.749,2.272,17.355,17.355,0,0,0-.229,3.009v4.012h5.18a3.789,3.789,0,0,0,2.564-.812,3.114,3.114,0,0,0,.939-2.488v-17.9h6.322V82.713a8.67,8.67,0,0,1-.482,2.945,6.238,6.238,0,0,1-1.435,2.311,6.488,6.488,0,0,1-2.361,1.5,9.11,9.11,0,0,1-3.237.533H290.961V81.342a22.743,22.743,0,0,1,.229-3.542,7.768,7.768,0,0,1,.736-2.374,5.626,5.626,0,0,1,1.32-1.663,14.25,14.25,0,0,1,1.955-1.384,5.98,5.98,0,0,0-.279-1.8,3.849,3.849,0,0,0-.9-1.536,4.718,4.718,0,0,0-1.65-1.066,7.115,7.115,0,0,0-2.653-.419,8.63,8.63,0,0,0-3.44.66,4.365,4.365,0,0,0-2.146,1.7,1.051,1.051,0,0,1,.317-.063Q284.639,69.84,284.766,69.84Zm-1.955,4.8a1.951,1.951,0,1,0,.571-1.384A1.885,1.885,0,0,0,282.811,74.639Zm41.1,4.85a5.684,5.684,0,0,1,1.587-4.431,5.466,5.466,0,0,1,3.8-1.435,7.149,7.149,0,0,1,2.158.3,4.73,4.73,0,0,1,1.676.914,4.037,4.037,0,0,1,1.092,1.5,5.254,5.254,0,0,1,.381,2.082,5.018,5.018,0,0,1-.317,1.815,4.361,4.361,0,0,1-.889,1.435,4.727,4.727,0,0,1-2.958,1.473l-.178.025q.025.939,1.333,1.523a11.419,11.419,0,0,0,4.3.584,10.394,10.394,0,0,0,2.933-.33,5.466,5.466,0,0,0,1.828-.927,4.278,4.278,0,0,0,1.219-1.663,6.06,6.06,0,0,0,.47-2.463V74.842a6.939,6.939,0,0,0-.6-3.1,5.2,5.2,0,0,0-1.511-1.879,6.625,6.625,0,0,0-2.361-1.054,14.153,14.153,0,0,0-3.453-.368,21.538,21.538,0,0,0-3.136.241,27.028,27.028,0,0,0-3.212.673,25.175,25.175,0,0,0-2.983,1.016,16.077,16.077,0,0,0-2.45,1.244v-5.84a12.169,12.169,0,0,1,2.361-1.092,20.6,20.6,0,0,1,2.831-.749,29.923,29.923,0,0,1,3.174-.432q1.663-.14,3.415-.14,7.084,0,10.664,2.7t3.58,7.909v5.764a13.893,13.893,0,0,1-.7,4.621,7.689,7.689,0,0,1-2.234,3.313,10.045,10.045,0,0,1-3.961,2.006,22.24,22.24,0,0,1-5.878.673,22.7,22.7,0,0,1-5.789-.622,10.2,10.2,0,0,1-3.682-1.7,5.968,5.968,0,0,1-1.942-2.564,8.8,8.8,0,0,1-.571-3.187Zm3.936-1.066a1.951,1.951,0,1,0,.571-1.384A1.885,1.885,0,0,0,327.849,78.422ZM373.09,68.164a1.951,1.951,0,1,0-.571,1.384A1.885,1.885,0,0,0,373.09,68.164Zm-2.412,4.723a5.137,5.137,0,0,1-1.7-.432,4.525,4.525,0,0,1-1.384-.965,4.289,4.289,0,0,1-.927-1.447,5.089,5.089,0,0,1-.33-1.879,5.277,5.277,0,0,1,.381-2.069,4.015,4.015,0,0,1,1.092-1.511,4.73,4.73,0,0,1,1.676-.914,7.149,7.149,0,0,1,2.158-.3q5.383,0,5.383,6.373V90H370.6L357.17,77.635V72l13.508,12.289ZM409.977,90a12.922,12.922,0,0,0-1.752-2.247,22.026,22.026,0,0,0-2.272-2.044,13.187,13.187,0,0,0-3.3-1.777,11.637,11.637,0,0,0-3.339-.889v.863a6.694,6.694,0,0,1-1.612,4.812,5.737,5.737,0,0,1-4.354,1.688,7.686,7.686,0,0,1-5.027-1.371,5.016,5.016,0,0,1-1.625-4.062,5.7,5.7,0,0,1,.5-2.45,5.013,5.013,0,0,1,1.358-1.765,6.6,6.6,0,0,1,2.006-1.117,9.45,9.45,0,0,1,2.438-.508V72.887l-.229-.025a4.88,4.88,0,0,1-1.625-.482,4.452,4.452,0,0,1-2.2-2.412,4.917,4.917,0,0,1-.317-1.8A5.254,5.254,0,0,1,389,66.082a4.037,4.037,0,0,1,1.092-1.5,4.715,4.715,0,0,1,1.688-.914,7.182,7.182,0,0,1,2.146-.3,5.454,5.454,0,0,1,3.809,1.435,5.71,5.71,0,0,1,1.574,4.431v9.953a17.35,17.35,0,0,1,3.491.66,20.8,20.8,0,0,1,3.364,1.181,23.325,23.325,0,0,1,2.3,1.257,8.749,8.749,0,0,1,1.765,1.422V63.746h6.322V90Zm-14.6-21.836a1.951,1.951,0,1,0-.571,1.384A1.885,1.885,0,0,0,395.378,68.164Zm-2.387,14.777q-2.615.279-2.615,2.438a2,2,0,0,0,.355,1.295,1.131,1.131,0,0,0,.914.432,1.2,1.2,0,0,0,1-.432,2.414,2.414,0,0,0,.343-1.473Zm43.921.762a13.637,13.637,0,0,1,1.739-1.5,12.089,12.089,0,0,1,2.222-1.282,25.331,25.331,0,0,1,2.755-1.028,20.425,20.425,0,0,1,4.2-.711V63.746h6.322V79.133a9.45,9.45,0,0,1,2.438.508,6.6,6.6,0,0,1,2.006,1.117,5.013,5.013,0,0,1,1.358,1.765,5.7,5.7,0,0,1,.5,2.45,5.016,5.016,0,0,1-1.625,4.063,7.686,7.686,0,0,1-5.027,1.371,5.737,5.737,0,0,1-4.354-1.688,6.694,6.694,0,0,1-1.612-4.812v-.863a12.377,12.377,0,0,0-3.9.927,14.176,14.176,0,0,0-2.844,1.638,14.585,14.585,0,0,0-2.209,2.069A17.2,17.2,0,0,0,437.166,90h-6.6V72.887l-.2-.025a4.88,4.88,0,0,1-1.625-.482,4.452,4.452,0,0,1-2.2-2.412,4.917,4.917,0,0,1-.317-1.8,5.254,5.254,0,0,1,.381-2.082,4.037,4.037,0,0,1,1.092-1.5,4.715,4.715,0,0,1,1.688-.914,7.182,7.182,0,0,1,2.146-.3,5.454,5.454,0,0,1,3.809,1.435,5.71,5.71,0,0,1,1.574,4.431Zm17.24,1.5a2.414,2.414,0,0,0,.343,1.473,1.2,1.2,0,0,0,1,.432,1.131,1.131,0,0,0,.914-.432,2,2,0,0,0,.355-1.295q0-2.158-2.615-2.437ZM432.976,68.164a1.951,1.951,0,1,0-.571,1.384A1.885,1.885,0,0,0,432.976,68.164Zm24.6,34.049V98.48h-.152a2.779,2.779,0,0,1-1.13-.229,3.084,3.084,0,0,1-.914-.609,2.626,2.626,0,0,1-.609-.914,3.016,3.016,0,0,1-.216-1.143,2.845,2.845,0,0,1,.2-1.066,2.661,2.661,0,0,1,.6-.9,2.99,2.99,0,0,1,.965-.635,3.336,3.336,0,0,1,1.308-.241,3.044,3.044,0,0,1,2.311.851,2.949,2.949,0,0,1,.813,2.12v6.5Zm-1.193-6.627a1.04,1.04,0,1,0,.3-.736A1,1,0,0,0,456.387,95.586Zm34.094-19.551q.2-.076.419-.165t.47-.216V63.746h6.322v7.795a23.228,23.228,0,0,0,2.107-2.069,12.893,12.893,0,0,0,1.625-2.247v5.51a16.585,16.585,0,0,1-1.282,1.384,22.619,22.619,0,0,1-2.45,2.069v6.525a8.67,8.67,0,0,1-.482,2.945,6.238,6.238,0,0,1-1.435,2.311,6.488,6.488,0,0,1-2.361,1.5,9.11,9.11,0,0,1-3.237.533h-18V72.887l-.2-.025a4.88,4.88,0,0,1-1.625-.482,4.452,4.452,0,0,1-2.2-2.412,4.917,4.917,0,0,1-.317-1.8,5.254,5.254,0,0,1,.381-2.082,4.037,4.037,0,0,1,1.092-1.5,4.715,4.715,0,0,1,1.688-.914,7.182,7.182,0,0,1,2.146-.3,5.454,5.454,0,0,1,3.809,1.435,5.71,5.71,0,0,1,1.574,4.431V84.947h9.344a3.751,3.751,0,0,0,2.564-.825,3.121,3.121,0,0,0,.939-2.476V79.234a15.448,15.448,0,0,1-4.24.584,7.714,7.714,0,0,1-2.7-.432,5.4,5.4,0,0,1-1.892-1.143,4.693,4.693,0,0,1-1.1-1.612,4.827,4.827,0,0,1-.368-1.841,5.664,5.664,0,0,1,.355-2.044,4.574,4.574,0,0,1,1-1.587,4.455,4.455,0,0,1,1.523-1.016,5.485,5.485,0,0,1,3.885,0,4.605,4.605,0,0,1,1.511.978,4.342,4.342,0,0,1,.99,1.511,5.219,5.219,0,0,1,.355,1.955,5.708,5.708,0,0,1-.063.8A3.369,3.369,0,0,1,490.481,76.035Zm-15.895-7.871a1.951,1.951,0,1,0-.571,1.384A1.885,1.885,0,0,0,474.586,68.164Zm9.344,6.424A1.951,1.951,0,1,0,484.5,73.2,1.885,1.885,0,0,0,483.93,74.588Zm31.048-6.424a1.951,1.951,0,1,0,.571-1.384A1.885,1.885,0,0,0,514.978,68.164ZM511.042,90V82.561a5.654,5.654,0,0,1,.33-2.044,4.533,4.533,0,0,1,.863-1.435,4.286,4.286,0,0,1,1.193-.927,6.792,6.792,0,0,1,1.295-.521,6.353,6.353,0,0,1-1.295-.533,4.432,4.432,0,0,1-2.057-2.374,5.654,5.654,0,0,1-.33-2.044V69.23a5.71,5.71,0,0,1,1.574-4.431,5.454,5.454,0,0,1,3.809-1.435,7.149,7.149,0,0,1,2.158.3,4.729,4.729,0,0,1,1.676.914,4.038,4.038,0,0,1,1.092,1.5,5.254,5.254,0,0,1,.381,2.082,4.916,4.916,0,0,1-.317,1.8,4.51,4.51,0,0,1-.876,1.422,4.564,4.564,0,0,1-1.308.99,4.778,4.778,0,0,1-1.638.482l-.2.025a2.305,2.305,0,0,0,.457,1.485,3.492,3.492,0,0,0,1.1.914,6.006,6.006,0,0,0,1.358.521q.711.178,1.244.279v3.072q-.533.1-1.244.267a5.51,5.51,0,0,0-1.371.521,3.284,3.284,0,0,0-1.117.99,2.806,2.806,0,0,0-.457,1.676v2.311h8.3a3.659,3.659,0,0,0,2.564-.8,3.121,3.121,0,0,0,.939-2.476v-17.9h6.322V82.713a8.671,8.671,0,0,1-.482,2.945,6.238,6.238,0,0,1-1.435,2.311,6.488,6.488,0,0,1-2.361,1.5,9.11,9.11,0,0,1-3.237.533Zm23.837-31.713a3.729,3.729,0,0,1-1.1,2.831,4.326,4.326,0,0,1-3.11,1.054A4.211,4.211,0,0,1,527.528,61a4.146,4.146,0,0,1-1.155-3.047,4.515,4.515,0,0,1,.33-1.739,3.663,3.663,0,0,1,1-1.384,5.02,5.02,0,0,1,1.65-.927,6.863,6.863,0,0,1,2.272-.343q.863,0,1.46.025l1.143.051q.546.025,1.181.051t1.6.025a3.815,3.815,0,0,0,2.666-.838,4.349,4.349,0,0,0,1.193-2.615h4.139a16.617,16.617,0,0,1-.533,2.171,6.2,6.2,0,0,1-.9,1.8,4.166,4.166,0,0,1-1.447,1.231,4.6,4.6,0,0,1-2.146.457q-.863,0-1.841-.038t-1.879-.076q-.9-.038-1.6-.076t-1-.038a3.433,3.433,0,0,1,.381.394,3.95,3.95,0,0,1,.394.571,3.644,3.644,0,0,1,.317.736A2.966,2.966,0,0,1,534.879,58.287Zm-6.2-.051a1.814,1.814,0,0,0,.546,1.4,2.022,2.022,0,0,0,1.435.508,1.918,1.918,0,0,0,1.358-.508,2.043,2.043,0,0,0,0-2.78,1.892,1.892,0,0,0-1.358-.521,1.993,1.993,0,0,0-1.435.521A1.823,1.823,0,0,0,528.684,58.236Z" transform="translate(100 471)"/>
    </g>
  </g>
</svg>
