<svg xmlns="http://www.w3.org/2000/svg" xmlns:xlink="http://www.w3.org/1999/xlink" width="1820" height="880" viewBox="0 0 1820 880">
  <defs>
    <clipPath id="clip-path">
      <rect id="矩形_2253" data-name="矩形 2253" width="1820" height="880" fill="#fff"/>
    </clipPath>
  </defs>
  <g id="banner" transform="translate(-50 -88)">
    <g id="组_21795" data-name="组 21795" transform="translate(0 -72)">
      <g id="NAV_bg" transform="translate(50 160)" clip-path="url(#clip-path)">
        <g id="组_21480" data-name="组 21480" transform="translate(-50 27)" opacity="0.05">
          <g id="组_21478" data-name="组 21478" transform="translate(0 7.733)">
            <g id="组_21420" data-name="组 21420" transform="translate(496.006 224.522)">
              <g id="组_21418" data-name="组 21418" transform="translate(0 0)">
                <rect id="矩形_2227" data-name="矩形 2227" width="472.183" height="1.891" transform="translate(0 84.71) rotate(-10.335)"/>
              </g>
              <g id="组_21419" data-name="组 21419" transform="translate(0 0)">
                <rect id="矩形_2228" data-name="矩形 2228" width="472.183" height="1.891" transform="translate(0 84.71) rotate(-10.335)"/>
              </g>
            </g>
            <g id="组_21424" data-name="组 21424" transform="translate(496.139 32.308)">
              <g id="组_21421" data-name="组 21421" transform="translate(464.098 0.366)">
                <rect id="矩形_2229" data-name="矩形 2229" width="192.908" height="1.261" transform="matrix(0.063, -0.998, 0.998, 0.063, 0, 192.522)"/>
              </g>
              <g id="组_21422" data-name="组 21422" transform="translate(0)">
                <path id="路径_37381" data-name="路径 37381" d="M63.23,337.945l-.63-1.261L538.566,59.3l1.261,1.261Z" transform="translate(-62.6 -59.3)"/>
              </g>
              <g id="组_21423" data-name="组 21423" transform="translate(0)">
                <path id="路径_37382" data-name="路径 37382" d="M63.23,337.945l-.63-1.261L538.566,59.3l1.261,1.261Z" transform="translate(-62.6 -59.3)"/>
              </g>
            </g>
            <g id="组_21429" data-name="组 21429" transform="translate(495.837 32.165)">
              <g id="组_21425" data-name="组 21425" transform="translate(326.765 0)">
                <rect id="矩形_2230" data-name="矩形 2230" width="182.191" height="1.261" transform="translate(0 104.013) rotate(-34.814)"/>
              </g>
              <g id="组_21426" data-name="组 21426" transform="translate(327.17 104.435)">
                <rect id="矩形_2231" data-name="矩形 2231" width="1.261" height="163.278" transform="matrix(0.54, -0.841, 0.841, 0.54, 0, 1.061)"/>
              </g>
              <g id="组_21427" data-name="组 21427" transform="translate(0 103.907)">
                <rect id="矩形_2232" data-name="矩形 2232" width="370.055" height="1.261" transform="translate(0 173.556) rotate(-27.969)"/>
              </g>
              <g id="组_21428" data-name="组 21428" transform="translate(0 103.907)">
                <rect id="矩形_2233" data-name="矩形 2233" width="370.055" height="1.261" transform="translate(0 173.556) rotate(-27.969)"/>
              </g>
            </g>
            <g id="组_21432" data-name="组 21432" transform="translate(0 309.692)">
              <g id="组_21430" data-name="组 21430">
                <path id="路径_37383" data-name="路径 37383" d="M-16.1,576.113,480.669,104.561l-.63-1.261L-16.1,574.222Z" transform="translate(16.1 -103.3)"/>
              </g>
              <g id="组_21431" data-name="组 21431">
                <path id="路径_37384" data-name="路径 37384" d="M-16.1,576.113,480.669,104.561l-.63-1.261L-16.1,574.222Z" transform="translate(16.1 -103.3)"/>
              </g>
            </g>
            <g id="组_21439" data-name="组 21439" transform="translate(0 136.327)">
              <g id="组_21433" data-name="组 21433" transform="translate(0 127.344)">
                <path id="路径_37385" data-name="路径 37385" d="M-16.1,493.163,55.768,96H53.876L-16.1,484.337Z" transform="translate(16.1 -96)"/>
              </g>
              <g id="组_21434" data-name="组 21434" transform="translate(0 115.366)">
                <path id="路径_37386" data-name="路径 37386" d="M-16.1,94.1v1.261l70.607,11.347.63-1.261Z" transform="translate(16.1 -94.1)"/>
              </g>
              <g id="组_21435" data-name="组 21435" transform="translate(70.607)">
                <path id="路径_37387" data-name="路径 37387" d="M-4.27,203.775l-.63-1.261L747.819,75.8v1.261Z" transform="translate(4.9 -75.8)"/>
              </g>
              <g id="组_21436" data-name="组 21436" transform="translate(0 126.714)">
                <path id="路径_37388" data-name="路径 37388" d="M-16.1,143.181,55.137,97.161l-.63-1.261L-16.1,141.29Z" transform="translate(16.1 -95.9)"/>
              </g>
              <g id="组_21437" data-name="组 21437" transform="translate(71.065 126.796)">
                <rect id="矩形_2234" data-name="矩形 2234" width="1.261" height="428.054" transform="translate(0 1.253) rotate(-83.754)"/>
              </g>
              <g id="组_21438" data-name="组 21438" transform="translate(71.065 126.796)">
                <rect id="矩形_2235" data-name="矩形 2235" width="1.261" height="428.054" transform="translate(0 1.253) rotate(-83.754)"/>
              </g>
            </g>
            <g id="组_21445" data-name="组 21445" transform="translate(495.939 33.135)">
              <g id="组_21440" data-name="组 21440" transform="translate(326.126 103.822)">
                <path id="路径_37389" data-name="路径 37389" d="M215.8,741.621,114.3,75.9h1.891L217.058,741.621Z" transform="translate(-114.3 -75.9)"/>
              </g>
              <g id="组_21441" data-name="组 21441" transform="translate(427.475 0)">
                <rect id="矩形_2236" data-name="矩形 2236" width="771.001" height="1.261" transform="translate(0 769.459) rotate(-86.406)"/>
              </g>
              <g id="组_21442" data-name="组 21442" transform="translate(427.648 192.686)">
                <rect id="矩形_2237" data-name="矩形 2237" width="578.093" height="1.261" transform="translate(0 576.937) rotate(-86.392)"/>
              </g>
              <g id="组_21443" data-name="组 21443" transform="translate(0 276.653)">
                <rect id="矩形_2238" data-name="矩形 2238" width="1.261" height="652.483" transform="matrix(0.755, -0.656, 0.656, 0.755, 0, 0.827)"/>
              </g>
              <g id="组_21444" data-name="组 21444" transform="translate(0 276.653)">
                <rect id="矩形_2239" data-name="矩形 2239" width="1.261" height="652.483" transform="matrix(0.755, -0.656, 0.656, 0.755, 0, 0.827)"/>
              </g>
            </g>
            <g id="组_21453" data-name="组 21453" transform="translate(0 136.728)">
              <g id="组_21446" data-name="组 21446" transform="translate(529.871 665.909)">
                <rect id="矩形_2240" data-name="矩形 2240" width="404.098" height="1.891" transform="matrix(0.976, -0.219, 0.219, 0.976, 0, 88.336)"/>
              </g>
              <g id="组_21447" data-name="组 21447" transform="translate(69.976 126.313)">
                <path id="路径_37390" data-name="路径 37390" d="M454.575,725.688-5,97.161-3.739,95.9,455.836,725.057Z" transform="translate(5 -95.9)"/>
              </g>
              <g id="组_21448" data-name="组 21448" transform="translate(0 674.146)">
                <path id="路径_37391" data-name="路径 37391" d="M-16.1,182.8v1.261l530.182,81.324v-1.891Z" transform="translate(16.1 -182.8)"/>
              </g>
              <g id="组_21449" data-name="组 21449" transform="translate(529.561)">
                <rect id="矩形_2241" data-name="矩形 2241" width="810.087" height="1.891" transform="translate(0 755.406) rotate(-68.826)"/>
              </g>
              <g id="组_21450" data-name="组 21450" transform="translate(529.551 88.488)">
                <path id="路径_37392" data-name="路径 37392" d="M69.161,757.513l-1.261-.63L498.476,89.9l1.261.63Z" transform="translate(-67.9 -89.9)"/>
              </g>
              <g id="组_21451" data-name="组 21451" transform="translate(495.627 173.374)">
                <rect id="矩形_2242" data-name="矩形 2242" width="1.891" height="583.137" transform="matrix(0.998, -0.058, 0.058, 0.998, 0, 0.11)"/>
              </g>
              <g id="组_21452" data-name="组 21452" transform="translate(495.627 173.374)">
                <rect id="矩形_2243" data-name="矩形 2243" width="1.891" height="583.137" transform="matrix(0.998, -0.058, 0.058, 0.998, 0, 0.11)"/>
              </g>
            </g>
            <g id="组_21458" data-name="组 21458" transform="translate(822.695 0)">
              <g id="组_21454" data-name="组 21454" transform="translate(552.246 0.157)">
                <path id="路径_37393" data-name="路径 37393" d="M793.962,371.3,202.63,54.2,202,55.461l591.962,317.1Z" transform="translate(-202 -54.2)"/>
              </g>
              <g id="组_21455" data-name="组 21455" transform="translate(0 0.157)">
                <path id="路径_37394" data-name="路径 37394" d="M115.03,191.631l-.63-1.261L666.646,54.2l.63,1.261Z" transform="translate(-114.4 -54.2)"/>
              </g>
              <g id="组_21456" data-name="组 21456" transform="translate(150.039 0.157)">
                <path id="路径_37395" data-name="路径 37395" d="M138.2,87.612V86.351L540.407,54.2l.63,1.261Z" transform="translate(-138.2 -54.2)"/>
              </g>
              <g id="组_21457" data-name="组 21457" transform="translate(137.898)">
                <rect id="矩形_2244" data-name="矩形 2244" width="471.553" height="1.261" transform="matrix(0.879, -0.477, 0.477, 0.879, 0, 224.789)"/>
              </g>
            </g>
            <g id="组_21461" data-name="组 21461" transform="translate(924.193 225.193)">
              <g id="组_21459" data-name="组 21459" transform="translate(0 576.855)">
                <path id="路径_37396" data-name="路径 37396" d="M572.423,284.789,130.5,182.661V181.4L572.423,282.9Z" transform="translate(-130.5 -181.4)"/>
              </g>
              <g id="组_21460" data-name="组 21460" transform="translate(35.844 0)">
                <rect id="矩形_2245" data-name="矩形 2245" width="1.891" height="791.175" transform="translate(0 0.97) rotate(-30.843)"/>
              </g>
            </g>
            <g id="组_21469" data-name="组 21469" transform="translate(822.695 0.025)">
              <g id="组_21462" data-name="组 21462" transform="translate(542.664 534.601)">
                <rect id="矩形_2246" data-name="矩形 2246" width="398.424" height="1.891" transform="matrix(0.374, -0.927, 0.927, 0.374, 0, 369.459)"/>
              </g>
              <g id="组_21463" data-name="组 21463" transform="translate(551.651 0)">
                <rect id="矩形_2247" data-name="矩形 2247" width="1.891" height="552.246" transform="matrix(0.967, -0.253, 0.253, 0.967, 0, 0.479)"/>
              </g>
              <g id="组_21464" data-name="组 21464" transform="translate(692.199 393.513)">
                <path id="路径_37397" data-name="路径 37397" d="M676.21,116.6,224.2,257.183v1.261L676.21,118.491Z" transform="translate(-224.2 -116.6)"/>
              </g>
              <g id="组_21465" data-name="组 21465" transform="translate(101.262 533.511)">
                <rect id="矩形_2248" data-name="矩形 2248" width="648.7" height="1.261" transform="translate(0 268.627) rotate(-24.463)"/>
              </g>
              <g id="组_21466" data-name="组 21466" transform="translate(0 136.302)">
                <path id="路径_37398" data-name="路径 37398" d="M805.968,474.855,114.4,77.061l.63-1.261,692.2,397.794Z" transform="translate(-114.4 -75.8)"/>
              </g>
              <g id="组_21467" data-name="组 21467" transform="translate(149.585 32.046)">
                <rect id="矩形_2249" data-name="矩形 2249" width="1.891" height="738.85" transform="translate(0 1.388) rotate(-47.229)"/>
              </g>
              <g id="组_21468" data-name="组 21468" transform="translate(137.402 224.553)">
                <rect id="矩形_2250" data-name="矩形 2250" width="1.891" height="634.831" transform="translate(0 1.652) rotate(-60.849)"/>
              </g>
            </g>
            <g id="组_21471" data-name="组 21471" transform="translate(1514.894 534.12)">
              <g id="组_21470" data-name="组 21470">
                <path id="路径_37399" data-name="路径 37399" d="M676.21,256.788,224.2,138.9v1.261L676.21,258.679Z" transform="translate(-224.2 -138.9)"/>
              </g>
            </g>
            <g id="组_21477" data-name="组 21477" transform="translate(924.091 497.556)">
              <g id="组_21472" data-name="组 21472" transform="translate(742.734 341.056)">
                <path id="路径_37400" data-name="路径 37400" d="M548.379,187.2,248.3,283.654l.63,1.891,299.448-96.454Z" transform="translate(-248.3 -187.2)"/>
              </g>
              <g id="组_21473" data-name="组 21473" transform="translate(590.173 36.564)">
                <path id="路径_37401" data-name="路径 37401" d="M376.661,541.107,224.1,139.531l1.261-.631L377.922,540.476Z" transform="translate(-224.1 -138.9)"/>
              </g>
              <g id="组_21474" data-name="组 21474" transform="translate(441.745 405.549)">
                <rect id="矩形_2251" data-name="矩形 2251" width="1.891" height="302.601" transform="translate(0 1.881) rotate(-83.996)"/>
              </g>
              <g id="组_21475" data-name="组 21475" transform="translate(742.734)">
                <path id="路径_37402" data-name="路径 37402" d="M548.379,133.1,248.3,571.241l1.261.63L548.379,135.622Z" transform="translate(-248.3 -133.1)"/>
              </g>
              <g id="组_21476" data-name="组 21476" transform="translate(0 304.675)">
                <rect id="矩形_2252" data-name="矩形 2252" width="1.261" height="754.61" transform="translate(0 1.241) rotate(-79.81)"/>
              </g>
            </g>
          </g>
          <g id="组_21479" data-name="组 21479" transform="translate(62.717)">
            <path id="路径_37403" data-name="路径 37403" d="M71.76,118.234a8.183,8.183,0,1,1,5.674-10.087C78.694,111.929,76.173,116.973,71.76,118.234Z" transform="translate(364.184 208.017)"/>
            <path id="路径_37404" data-name="路径 37404" d="M145.46,104.734a8.183,8.183,0,1,1,5.674-10.087C151.764,99.06,149.242,103.473,145.46,104.734Z" transform="translate(755.102 136.411)"/>
            <path id="路径_37405" data-name="路径 37405" d="M71.76,118.234a8.183,8.183,0,1,1,5.674-10.087C78.694,111.929,76.173,116.973,71.76,118.234Z" transform="translate(364.184 208.017)"/>
            <path id="路径_37406" data-name="路径 37406" d="M145.46,104.734a8.183,8.183,0,1,1,5.674-10.087C151.764,99.06,149.242,103.473,145.46,104.734Z" transform="translate(755.102 136.411)"/>
            <path id="路径_37407" data-name="路径 37407" d="M145.46,104.734a8.183,8.183,0,1,1,5.674-10.087C151.764,99.06,149.242,103.473,145.46,104.734Z" transform="translate(755.102 136.411)"/>
            <path id="路径_37408" data-name="路径 37408" d="M147.36,74.234a8.183,8.183,0,1,1,5.674-10.087C154.294,67.929,151.773,72.973,147.36,74.234Z" transform="translate(765.18 -25.367)"/>
            <path id="路径_37409" data-name="路径 37409" d="M71.76,118.234a8.183,8.183,0,1,1,5.674-10.087C78.694,111.929,76.173,116.973,71.76,118.234Z" transform="translate(364.184 208.017)"/>
            <path id="路径_37410" data-name="路径 37410" d="M147.36,74.234a8.183,8.183,0,1,1,5.674-10.087C154.294,67.929,151.773,72.973,147.36,74.234Z" transform="translate(765.18 -25.367)"/>
            <path id="路径_37411" data-name="路径 37411" d="M71.76,118.234a8.183,8.183,0,1,1,5.674-10.087C78.694,111.929,76.173,116.973,71.76,118.234Z" transform="translate(364.184 208.017)"/>
            <path id="路径_37412" data-name="路径 37412" d="M147.36,74.234a8.183,8.183,0,1,1,5.674-10.087C154.294,67.929,151.773,72.973,147.36,74.234Z" transform="translate(765.18 -25.367)"/>
            <path id="路径_37413" data-name="路径 37413" d="M147.36,74.234a8.183,8.183,0,1,1,5.674-10.087C154.294,67.929,151.773,72.973,147.36,74.234Z" transform="translate(765.18 -25.367)"/>
            <path id="路径_37414" data-name="路径 37414" d="M123.56,90.734a8.183,8.183,0,1,1,5.674-10.087C130.494,84.429,127.973,89.473,123.56,90.734Z" transform="translate(638.94 62.152)"/>
            <path id="路径_37415" data-name="路径 37415" d="M145.46,104.734a8.183,8.183,0,1,1,5.674-10.087C151.764,99.06,149.242,103.473,145.46,104.734Z" transform="translate(755.102 136.411)"/>
            <path id="路径_37416" data-name="路径 37416" d="M123.56,90.734a8.183,8.183,0,1,1,5.674-10.087C130.494,84.429,127.973,89.473,123.56,90.734Z" transform="translate(638.94 62.152)"/>
            <path id="路径_37417" data-name="路径 37417" d="M71.76,118.234a8.183,8.183,0,1,1,5.674-10.087C78.694,111.929,76.173,116.973,71.76,118.234Z" transform="translate(364.184 208.017)"/>
            <path id="路径_37418" data-name="路径 37418" d="M123.56,90.734a8.183,8.183,0,1,1,5.674-10.087C130.494,84.429,127.973,89.473,123.56,90.734Z" transform="translate(638.94 62.152)"/>
            <path id="路径_37419" data-name="路径 37419" d="M71.76,118.234a8.183,8.183,0,1,1,5.674-10.087C78.694,111.929,76.173,116.973,71.76,118.234Z" transform="translate(364.184 208.017)"/>
            <path id="路径_37420" data-name="路径 37420" d="M123.56,90.734a8.183,8.183,0,1,1,5.674-10.087C130.494,84.429,127.973,89.473,123.56,90.734Z" transform="translate(638.94 62.152)"/>
            <path id="路径_37421" data-name="路径 37421" d="M71.76,118.234a8.183,8.183,0,1,1,5.674-10.087C78.694,111.929,76.173,116.973,71.76,118.234Z" transform="translate(364.184 208.017)"/>
            <path id="路径_37422" data-name="路径 37422" d="M71.76,118.234a8.183,8.183,0,1,1,5.674-10.087C78.694,111.929,76.173,116.973,71.76,118.234Z" transform="translate(364.184 208.017)"/>
            <path id="路径_37423" data-name="路径 37423" d="M4.26,110.834A8.1,8.1,0,0,1-5.827,105.16,8.1,8.1,0,0,1-.153,95.073a8.1,8.1,0,0,1,10.087,5.674C11.194,104.529,8.673,109.573,4.26,110.834Z" transform="translate(6.151 168.766)"/>
            <path id="路径_37424" data-name="路径 37424" d="M4.26,110.834A8.1,8.1,0,0,1-5.827,105.16,8.1,8.1,0,0,1-.153,95.073a8.1,8.1,0,0,1,10.087,5.674C11.194,104.529,8.673,109.573,4.26,110.834Z" transform="translate(6.151 168.766)"/>
            <path id="路径_37425" data-name="路径 37425" d="M123.56,90.734a8.183,8.183,0,1,1,5.674-10.087C130.494,84.429,127.973,89.473,123.56,90.734Z" transform="translate(638.94 62.152)"/>
            <path id="路径_37426" data-name="路径 37426" d="M4.26,110.834A8.1,8.1,0,0,1-5.827,105.16,8.1,8.1,0,0,1-.153,95.073a8.1,8.1,0,0,1,10.087,5.674C11.194,104.529,8.673,109.573,4.26,110.834Z" transform="translate(6.151 168.766)"/>
            <path id="路径_37427" data-name="路径 37427" d="M4.26,110.834A8.1,8.1,0,0,1-5.827,105.16,8.1,8.1,0,0,1-.153,95.073a8.1,8.1,0,0,1,10.087,5.674C11.194,104.529,8.673,109.573,4.26,110.834Z" transform="translate(6.151 168.766)"/>
            <path id="路径_37428" data-name="路径 37428" d="M71.76,118.234a8.183,8.183,0,1,1,5.674-10.087C78.694,111.929,76.173,116.973,71.76,118.234Z" transform="translate(364.184 208.017)"/>
            <path id="路径_37429" data-name="路径 37429" d="M4.26,110.834A8.1,8.1,0,0,1-5.827,105.16,8.1,8.1,0,0,1-.153,95.073a8.1,8.1,0,0,1,10.087,5.674C11.194,104.529,8.673,109.573,4.26,110.834Z" transform="translate(6.151 168.766)"/>
            <path id="路径_37430" data-name="路径 37430" d="M71.76,118.234a8.183,8.183,0,1,1,5.674-10.087C78.694,111.929,76.173,116.973,71.76,118.234Z" transform="translate(364.184 208.017)"/>
            <path id="路径_37431" data-name="路径 37431" d="M4.26,110.834A8.1,8.1,0,0,1-5.827,105.16,8.1,8.1,0,0,1-.153,95.073a8.1,8.1,0,0,1,10.087,5.674C11.194,104.529,8.673,109.573,4.26,110.834Z" transform="translate(6.151 168.766)"/>
            <path id="路径_37432" data-name="路径 37432" d="M123.56,90.734a8.183,8.183,0,1,1,5.674-10.087C130.494,84.429,127.973,89.473,123.56,90.734Z" transform="translate(638.94 62.152)"/>
            <path id="路径_37433" data-name="路径 37433" d="M139.66,196.234a8.183,8.183,0,1,1,5.674-10.087A8.1,8.1,0,0,1,139.66,196.234Z" transform="translate(724.337 621.743)"/>
            <path id="路径_37434" data-name="路径 37434" d="M147.36,74.234a8.183,8.183,0,1,1,5.674-10.087C154.294,67.929,151.773,72.973,147.36,74.234Z" transform="translate(765.18 -25.367)"/>
            <path id="路径_37435" data-name="路径 37435" d="M139.66,196.234a8.183,8.183,0,1,1,5.674-10.087A8.1,8.1,0,0,1,139.66,196.234Z" transform="translate(724.337 621.743)"/>
            <path id="路径_37436" data-name="路径 37436" d="M145.46,104.734a8.183,8.183,0,1,1,5.674-10.087C151.764,99.06,149.242,103.473,145.46,104.734Z" transform="translate(755.102 136.411)"/>
            <path id="路径_37437" data-name="路径 37437" d="M139.66,196.234a8.183,8.183,0,1,1,5.674-10.087A8.1,8.1,0,0,1,139.66,196.234Z" transform="translate(724.337 621.743)"/>
            <path id="路径_37438" data-name="路径 37438" d="M71.76,118.234a8.183,8.183,0,1,1,5.674-10.087C78.694,111.929,76.173,116.973,71.76,118.234Z" transform="translate(364.184 208.017)"/>
            <path id="路径_37439" data-name="路径 37439" d="M139.66,196.234a8.183,8.183,0,1,1,5.674-10.087A8.1,8.1,0,0,1,139.66,196.234Z" transform="translate(724.337 621.743)"/>
            <path id="路径_37440" data-name="路径 37440" d="M71.76,118.234a8.183,8.183,0,1,1,5.674-10.087C78.694,111.929,76.173,116.973,71.76,118.234Z" transform="translate(364.184 208.017)"/>
            <path id="路径_37441" data-name="路径 37441" d="M139.66,196.234a8.183,8.183,0,1,1,5.674-10.087A8.1,8.1,0,0,1,139.66,196.234Z" transform="translate(724.337 621.743)"/>
            <path id="路径_37442" data-name="路径 37442" d="M139.66,196.234a8.183,8.183,0,1,1,5.674-10.087A8.1,8.1,0,0,1,139.66,196.234Z" transform="translate(724.337 621.743)"/>
            <path id="路径_37443" data-name="路径 37443" d="M77.16,210.534a8.183,8.183,0,1,1,5.674-10.087A8.1,8.1,0,0,1,77.16,210.534Z" transform="translate(392.826 697.593)"/>
            <path id="路径_37444" data-name="路径 37444" d="M4.26,110.834A8.1,8.1,0,0,1-5.827,105.16,8.1,8.1,0,0,1-.153,95.073a8.1,8.1,0,0,1,10.087,5.674C11.194,104.529,8.673,109.573,4.26,110.834Z" transform="translate(6.151 168.766)"/>
            <path id="路径_37445" data-name="路径 37445" d="M77.16,210.534a8.183,8.183,0,1,1,5.674-10.087A8.1,8.1,0,0,1,77.16,210.534Z" transform="translate(392.826 697.593)"/>
            <path id="路径_37446" data-name="路径 37446" d="M77.16,210.534a8.183,8.183,0,1,1,5.674-10.087A8.1,8.1,0,0,1,77.16,210.534Z" transform="translate(392.826 697.593)"/>
            <path id="路径_37447" data-name="路径 37447" d="M123.56,90.734a8.183,8.183,0,1,1,5.674-10.087C130.494,84.429,127.973,89.473,123.56,90.734Z" transform="translate(638.94 62.152)"/>
            <path id="路径_37448" data-name="路径 37448" d="M77.16,210.534a8.183,8.183,0,1,1,5.674-10.087A8.1,8.1,0,0,1,77.16,210.534Z" transform="translate(392.826 697.593)"/>
            <path id="路径_37449" data-name="路径 37449" d="M145.46,104.734a8.183,8.183,0,1,1,5.674-10.087C151.764,99.06,149.242,103.473,145.46,104.734Z" transform="translate(755.102 136.411)"/>
            <path id="路径_37450" data-name="路径 37450" d="M77.16,210.534a8.183,8.183,0,1,1,5.674-10.087A8.1,8.1,0,0,1,77.16,210.534Z" transform="translate(392.826 697.593)"/>
            <path id="路径_37451" data-name="路径 37451" d="M71.76,118.234a8.183,8.183,0,1,1,5.674-10.087C78.694,111.929,76.173,116.973,71.76,118.234Z" transform="translate(364.184 208.017)"/>
            <path id="路径_37452" data-name="路径 37452" d="M77.16,210.534a8.183,8.183,0,1,1,5.674-10.087A8.1,8.1,0,0,1,77.16,210.534Z" transform="translate(392.826 697.593)"/>
            <path id="路径_37453" data-name="路径 37453" d="M71.76,118.234a8.183,8.183,0,1,1,5.674-10.087C78.694,111.929,76.173,116.973,71.76,118.234Z" transform="translate(364.184 208.017)"/>
            <path id="路径_37454" data-name="路径 37454" d="M77.16,210.534a8.183,8.183,0,1,1,5.674-10.087A8.1,8.1,0,0,1,77.16,210.534Z" transform="translate(392.826 697.593)"/>
            <path id="路径_37455" data-name="路径 37455" d="M211.16,69.034a8.183,8.183,0,1,1,5.674-10.087A8.1,8.1,0,0,1,211.16,69.034Z" transform="translate(1103.586 -52.949)"/>
            <path id="路径_37456" data-name="路径 37456" d="M123.56,90.734a8.183,8.183,0,1,1,5.674-10.087C130.494,84.429,127.973,89.473,123.56,90.734Z" transform="translate(638.94 62.152)"/>
            <path id="路径_37457" data-name="路径 37457" d="M211.16,69.034a8.183,8.183,0,1,1,5.674-10.087A8.1,8.1,0,0,1,211.16,69.034Z" transform="translate(1103.586 -52.949)"/>
            <path id="路径_37458" data-name="路径 37458" d="M147.36,74.234a8.183,8.183,0,1,1,5.674-10.087C154.294,67.929,151.773,72.973,147.36,74.234Z" transform="translate(765.18 -25.367)"/>
            <path id="路径_37459" data-name="路径 37459" d="M211.16,69.034a8.183,8.183,0,1,1,5.674-10.087A8.1,8.1,0,0,1,211.16,69.034Z" transform="translate(1103.586 -52.949)"/>
            <path id="路径_37460" data-name="路径 37460" d="M145.46,104.734a8.183,8.183,0,1,1,5.674-10.087C151.764,99.06,149.242,103.473,145.46,104.734Z" transform="translate(755.102 136.411)"/>
            <path id="路径_37461" data-name="路径 37461" d="M211.16,69.034a8.183,8.183,0,1,1,5.674-10.087A8.1,8.1,0,0,1,211.16,69.034Z" transform="translate(1103.586 -52.949)"/>
            <path id="路径_37462" data-name="路径 37462" d="M139.66,196.234a8.183,8.183,0,1,1,5.674-10.087A8.1,8.1,0,0,1,139.66,196.234Z" transform="translate(724.337 621.743)"/>
            <path id="路径_37463" data-name="路径 37463" d="M209.76,212.434a8.183,8.183,0,1,1,5.674-10.087A8.1,8.1,0,0,1,209.76,212.434Z" transform="translate(1096.16 707.671)"/>
            <path id="路径_37464" data-name="路径 37464" d="M145.46,104.734a8.183,8.183,0,1,1,5.674-10.087C151.764,99.06,149.242,103.473,145.46,104.734Z" transform="translate(755.102 136.411)"/>
            <path id="路径_37465" data-name="路径 37465" d="M209.76,212.434a8.183,8.183,0,1,1,5.674-10.087A8.1,8.1,0,0,1,209.76,212.434Z" transform="translate(1096.16 707.671)"/>
            <path id="路径_37466" data-name="路径 37466" d="M209.76,212.434a8.183,8.183,0,1,1,5.674-10.087A8.1,8.1,0,0,1,209.76,212.434Z" transform="translate(1096.16 707.671)"/>
            <path id="路径_37467" data-name="路径 37467" d="M233.36,153.733a8.183,8.183,0,1,1,5.674-10.087A8.1,8.1,0,0,1,233.36,153.733Z" transform="translate(1221.339 396.315)"/>
            <path id="路径_37468" data-name="路径 37468" d="M211.16,69.034a8.183,8.183,0,1,1,5.674-10.087A8.1,8.1,0,0,1,211.16,69.034Z" transform="translate(1103.586 -52.949)"/>
            <path id="路径_37469" data-name="路径 37469" d="M233.36,153.733a8.183,8.183,0,1,1,5.674-10.087A8.1,8.1,0,0,1,233.36,153.733Z" transform="translate(1221.339 396.315)"/>
            <path id="路径_37470" data-name="路径 37470" d="M233.36,153.733a8.183,8.183,0,1,1,5.674-10.087A8.1,8.1,0,0,1,233.36,153.733Z" transform="translate(1221.339 396.315)"/>
            <path id="路径_37471" data-name="路径 37471" d="M139.66,196.234a8.183,8.183,0,1,1,5.674-10.087A8.1,8.1,0,0,1,139.66,196.234Z" transform="translate(724.337 621.743)"/>
            <path id="路径_37472" data-name="路径 37472" d="M233.36,153.733a8.183,8.183,0,1,1,5.674-10.087A8.1,8.1,0,0,1,233.36,153.733Z" transform="translate(1221.339 396.315)"/>
            <path id="路径_37473" data-name="路径 37473" d="M123.56,90.734a8.183,8.183,0,1,1,5.674-10.087C130.494,84.429,127.973,89.473,123.56,90.734Z" transform="translate(638.94 62.152)"/>
            <path id="路径_37474" data-name="路径 37474" d="M233.36,153.733a8.183,8.183,0,1,1,5.674-10.087A8.1,8.1,0,0,1,233.36,153.733Z" transform="translate(1221.339 396.315)"/>
            <path id="路径_37475" data-name="路径 37475" d="M147.36,74.234a8.183,8.183,0,1,1,5.674-10.087C154.294,67.929,151.773,72.973,147.36,74.234Z" transform="translate(765.18 -25.367)"/>
            <path id="路径_37476" data-name="路径 37476" d="M233.36,153.733a8.183,8.183,0,1,1,5.674-10.087A8.1,8.1,0,0,1,233.36,153.733Z" transform="translate(1221.339 396.315)"/>
            <path id="路径_37477" data-name="路径 37477" d="M145.46,104.734a8.183,8.183,0,1,1,5.674-10.087C151.764,99.06,149.242,103.473,145.46,104.734Z" transform="translate(755.102 136.411)"/>
            <path id="路径_37478" data-name="路径 37478" d="M233.36,153.733a8.183,8.183,0,1,1,5.674-10.087A8.1,8.1,0,0,1,233.36,153.733Z" transform="translate(1221.339 396.315)"/>
            <path id="路径_37479" data-name="路径 37479" d="M233.36,153.733a8.183,8.183,0,1,1,5.674-10.087A8.1,8.1,0,0,1,233.36,153.733Z" transform="translate(1221.339 396.315)"/>
            <path id="路径_37480" data-name="路径 37480" d="M257.46,217.434a8.183,8.183,0,1,1,5.674-10.087A8.1,8.1,0,0,1,257.46,217.434Z" transform="translate(1349.17 734.192)"/>
            <path id="路径_37481" data-name="路径 37481" d="M233.36,153.733a8.183,8.183,0,1,1,5.674-10.087A8.1,8.1,0,0,1,233.36,153.733Z" transform="translate(1221.339 396.315)"/>
            <path id="路径_37482" data-name="路径 37482" d="M257.46,217.434a8.183,8.183,0,1,1,5.674-10.087A8.1,8.1,0,0,1,257.46,217.434Z" transform="translate(1349.17 734.192)"/>
            <path id="路径_37483" data-name="路径 37483" d="M209.76,212.434a8.183,8.183,0,1,1,5.674-10.087A8.1,8.1,0,0,1,209.76,212.434Z" transform="translate(1096.16 707.671)"/>
            <path id="路径_37484" data-name="路径 37484" d="M257.46,217.434a8.183,8.183,0,1,1,5.674-10.087A8.1,8.1,0,0,1,257.46,217.434Z" transform="translate(1349.17 734.192)"/>
            <path id="路径_37485" data-name="路径 37485" d="M257.46,217.434a8.183,8.183,0,1,1,5.674-10.087A8.1,8.1,0,0,1,257.46,217.434Z" transform="translate(1349.17 734.192)"/>
            <path id="路径_37486" data-name="路径 37486" d="M139.66,196.234a8.183,8.183,0,1,1,5.674-10.087A8.1,8.1,0,0,1,139.66,196.234Z" transform="translate(724.337 621.743)"/>
          </g>
        </g>
      </g>
    </g>
    <g id="组_21710" data-name="组 21710" transform="translate(80 -20)">
      <path id="路径_41064" data-name="路径 41064" d="M631.25.75a46.65,46.65,0,0,1-.35-6.45V-21.3a53.726,53.726,0,0,1,.35-6.4h-8.2a2.842,2.842,0,0,1-.15.8c-.15.65-1.35,4.05-1.45,4.3L614.3-7.55,607.1-22.6c-.15-.4-1.25-3.55-1.45-4.15-.05-.3-.1-.5-.15-.95h-8.2a55.762,55.762,0,0,1,.35,6.45V-5.7A44.779,44.779,0,0,1,597.3.75h6.5a47.621,47.621,0,0,1-.35-6.45v-9.75c0-1.25-.05-2.35-.2-4.2A25.888,25.888,0,0,0,604.6-16L610-5A36.168,36.168,0,0,1,612.1.75h4.35a31.436,31.436,0,0,1,2.05-5.7L623.95-16a27.436,27.436,0,0,0,1.35-3.65,41.962,41.962,0,0,0-.2,4.2V-5.7a52.3,52.3,0,0,1-.35,6.45Zm10.5-28.45a55.508,55.508,0,0,1,.35,6.4V-5.7a43.353,43.353,0,0,1-.4,6.45h7.1a27.606,27.606,0,0,1,2.8-4.6l9.6-12.7a8.742,8.742,0,0,0,.9-1.45c.05-.1.15-.25.3-.5-.05,1.05-.05,1.05-.1,2.65l-.05,10.2a45.872,45.872,0,0,1-.35,6.4h6.95a50.679,50.679,0,0,1-.35-6.45V-21.3a50.929,50.929,0,0,1,.35-6.4h-7a19.766,19.766,0,0,1-2.8,4.65l-9.45,12.6c-.3.4-.75,1.1-1.1,1.65a3.21,3.21,0,0,1-.3.5c.05-1.4.1-2.35.1-2.85v-10.1a50.153,50.153,0,0,1,.35-6.45Zm47.8,33.65A45.785,45.785,0,0,1,689.2.6V-2.9a25.3,25.3,0,0,0-.1-2.65,6.684,6.684,0,0,0,1.9,2,13.251,13.251,0,0,0,7.8,2.3c8.65,0,13.8-5.15,13.8-13.8,0-8.35-4.95-13.3-13.3-13.3-4.6,0-8.05,1.5-10.2,4.35.05-.75.05-1,.05-1.5v-2.2h-6.6a44.9,44.9,0,0,1,.35,6.15V-.15a43.178,43.178,0,0,1-.35,6.1ZM689.4-14.8a8.6,8.6,0,0,1,2.65-6.35,9.432,9.432,0,0,1,5.85-2.25c5.1,0,8.05,3.1,8.05,8.5,0,5.35-2.95,8.65-7.8,8.65A8.411,8.411,0,0,1,689.4-14.8Zm35.95,6h-7.3v7.3h4.15c-.05,3.1-.75,4-3.75,4.85L720.2,6c4.05-1.6,5.15-3.2,5.15-7.5ZM12.95,62.3a50.111,50.111,0,0,1,.35,6.35v15.7a50.393,50.393,0,0,1-.35,6.4h7a50.393,50.393,0,0,1-.35-6.4v-5.8h1.25a7.033,7.033,0,0,1,2,.3c1.15.45,2.5,2.05,4.05,4.7,3.45,5.9,3.45,5.9,3.85,7.2h8.8a25.592,25.592,0,0,1-2.7-3.6c-2.35-3.45-2.35-3.45-3.6-5.2-2.35-3.45-2.35-3.45-3.3-4.4a6.686,6.686,0,0,0-4.5-1.85,6.275,6.275,0,0,0,3.95-2.65l3.4-4.95A2.265,2.265,0,0,1,34.7,67a2.982,2.982,0,0,1,1.6.5L38,62.55a9.214,9.214,0,0,0-4.25-.85,6.386,6.386,0,0,0-5.65,3.15l-3.9,5.9a4.873,4.873,0,0,1-3.9,2.3h-.7v-4.4a46.052,46.052,0,0,1,.35-6.35ZM66.1,91.7c8.9,0,14.75-6.1,14.75-15.35S75.1,61.2,66.05,61.2c-9.1,0-14.9,5.95-14.9,15.25C51.15,85.8,56.95,91.7,66.1,91.7Zm-.05-25.3c5.3,0,8.35,3.7,8.35,10.15,0,6.1-3.2,9.85-8.4,9.85s-8.4-3.8-8.4-9.95C57.6,70.2,60.8,66.4,66.05,66.4Zm44.5,24.35a51.5,51.5,0,0,1-.35-6.5V67.75h3.9a55.387,55.387,0,0,1,6.4.3v-6.1a45.872,45.872,0,0,1-6.4.35H99.9a47.322,47.322,0,0,1-6.4-.35v6.1a59.182,59.182,0,0,1,6.5-.3h3.8v16.5a46.01,46.01,0,0,1-.35,6.5Zm37.55.95c8.9,0,14.75-6.1,14.75-15.35S157.1,61.2,148.05,61.2c-9.1,0-14.9,5.95-14.9,15.25C133.15,85.8,138.95,91.7,148.1,91.7Zm-.05-25.3c5.3,0,8.35,3.7,8.35,10.15,0,6.1-3.2,9.85-8.4,9.85s-8.4-3.8-8.4-9.95C139.6,70.2,142.8,66.4,148.05,66.4Zm34.2,29.55a45.788,45.788,0,0,1-.35-5.35V87.1a25.309,25.309,0,0,0-.1-2.65,6.684,6.684,0,0,0,1.9,2,13.251,13.251,0,0,0,7.8,2.3c8.65,0,13.8-5.15,13.8-13.8,0-8.35-4.95-13.3-13.3-13.3-4.6,0-8.05,1.5-10.2,4.35.05-.75.05-1,.05-1.5V62.3h-6.6a44.9,44.9,0,0,1,.35,6.15v21.4a43.177,43.177,0,0,1-.35,6.1ZM182.1,75.2a8.6,8.6,0,0,1,2.65-6.35,9.432,9.432,0,0,1,5.85-2.25c5.1,0,8.05,3.1,8.05,8.5,0,5.35-2.95,8.65-7.8,8.65A8.411,8.411,0,0,1,182.1,75.2Zm37.3-2.7V68.7a39.986,39.986,0,0,1,.35-6.4h-6.7a55.163,55.163,0,0,1,.35,6.45v15.8a49.056,49.056,0,0,1-.35,6.35c2-.1,3.35-.15,6.1-.15h8.15c6.5,0,10.2-3.3,10.2-9.15,0-5.8-3.7-9.1-10.2-9.1Zm0,13.1V77.65h6.9c3.5,0,5,1.2,5,4.05,0,2.75-1.4,3.9-4.9,3.9Zm20.8-23.3a44.147,44.147,0,0,1,.35,6.4V84.35a45.875,45.875,0,0,1-.35,6.4h6.75a43.12,43.12,0,0,1-.35-6.4V68.7a48.32,48.32,0,0,1,.35-6.4Zm17.25,0a55.508,55.508,0,0,1,.35,6.4V84.3a43.349,43.349,0,0,1-.4,6.45h7.1a27.606,27.606,0,0,1,2.8-4.6l9.6-12.7a8.738,8.738,0,0,0,.9-1.45c.05-.1.15-.25.3-.5-.05,1.05-.05,1.05-.1,2.65l-.05,10.2a45.872,45.872,0,0,1-.35,6.4h6.95a50.679,50.679,0,0,1-.35-6.45V68.7a50.929,50.929,0,0,1,.35-6.4h-7a19.766,19.766,0,0,1-2.8,4.65l-9.45,12.6c-.3.4-.75,1.1-1.1,1.65a3.21,3.21,0,0,1-.3.5c.05-1.4.1-2.35.1-2.85V68.75a50.153,50.153,0,0,1,.35-6.45ZM275.2,57c-.5,1.75-1.75,2.55-4.1,2.55a5.184,5.184,0,0,1-3.1-.85,2.6,2.6,0,0,1-1-1.7h-4.05a5.61,5.61,0,0,0,1.6,2.95,8.639,8.639,0,0,0,6.35,2.25,9.844,9.844,0,0,0,6.35-2,5.152,5.152,0,0,0,2-3.2Zm47.05,33.75c6.65,0,10.2-2.75,10.2-7.9a6.751,6.751,0,0,0-2.3-5.45,6.571,6.571,0,0,0-4.1-1.65c3.5-.8,5.3-3,5.3-6.5,0-4.65-3.2-6.95-9.55-6.95h-8.25c-3,0-4.25-.05-6.25-.15a48.828,48.828,0,0,1,.35,6.4V84.5a48.828,48.828,0,0,1-.35,6.4c2.2-.1,3.5-.15,6.3-.15Zm-8.45-17.1V67.1h7.3c2.85,0,4.2,1,4.2,3.1,0,2.25-1.45,3.45-4.15,3.45Zm0,4.45h7.6c3.3,0,4.85,1.25,4.85,3.95,0,2.6-1.55,3.85-4.8,3.85H313.8Zm30.55,14.05A16.843,16.843,0,0,1,344,96h7.05a22.528,22.528,0,0,1-.3-3.8V90.7H369.7v1.6a14.165,14.165,0,0,1-.35,3.7h7.1a17.977,17.977,0,0,1-.35-4V89.15a26.432,26.432,0,0,1,.35-4c-1.65.1-1.9.1-2.95.1V68.65a48.415,48.415,0,0,1,.35-6.5c-2,.15-2.75.15-6.3.15H356.7c-3.5,0-4.3,0-6.25-.15a53.713,53.713,0,0,1,.3,5.95,44.109,44.109,0,0,1-.8,9.05,24.989,24.989,0,0,1-3,8.1c-1.25-.05-1.25-.05-2.95-.1a25.084,25.084,0,0,1,.35,4.05Zm9.1-6.85a28.441,28.441,0,0,0,2.7-7.6,48.974,48.974,0,0,0,.8-10h10.4V85.3Zm48.3,6.4c8.9,0,14.75-6.1,14.75-15.35S410.75,61.2,401.7,61.2c-9.1,0-14.9,5.95-14.9,15.25C386.8,85.8,392.6,91.7,401.75,91.7Zm-.05-25.3c5.3,0,8.35,3.7,8.35,10.15,0,6.1-3.2,9.85-8.4,9.85s-8.4-3.8-8.4-9.95C393.25,70.2,396.45,66.4,401.7,66.4Zm55.7,24.5c-1.35-1.65-3-3.85-3.7-4.8l-7.3-10.2,6.75-9.45c.8-1.15,1.6-2.25,3.2-4.3H448.6a24.748,24.748,0,0,1-2.1,3.8l-3.8,5.6-3.85-5.6a23.567,23.567,0,0,1-2.1-3.8h-7.8c2.25,2.9,2.65,3.45,3.2,4.2l6.8,9.55-7.5,10.45c-.85,1.2-2.4,3.2-3.5,4.55H436a27.007,27.007,0,0,1,2.15-3.8l4.5-6.7L447,86.8a26.681,26.681,0,0,1,2.35,4.1Zm19.5-.15a46.833,46.833,0,0,1-.35-6.4V78.7h14.2v5.65a52.583,52.583,0,0,1-.35,6.4h6.9a47.818,47.818,0,0,1-.35-6.4V68.75a44.779,44.779,0,0,1,.35-6.45h-6.9a51.212,51.212,0,0,1,.35,6.45V73.2h-14.2V68.7a49.342,49.342,0,0,1,.35-6.4H470a52.024,52.024,0,0,1,.35,6.4V84.35a39.629,39.629,0,0,1-.35,6.4Zm47.85.95c8.9,0,14.75-6.1,14.75-15.35S533.75,61.2,524.7,61.2c-9.1,0-14.9,5.95-14.9,15.25C509.8,85.8,515.6,91.7,524.75,91.7Zm-.05-25.3c5.3,0,8.35,3.7,8.35,10.15,0,6.1-3.2,9.85-8.4,9.85s-8.4-3.8-8.4-9.95C516.25,70.2,519.45,66.4,524.7,66.4Zm43.55,24.35c6.65,0,10.2-2.75,10.2-7.9a6.751,6.751,0,0,0-2.3-5.45,6.571,6.571,0,0,0-4.1-1.65c3.5-.8,5.3-3,5.3-6.5,0-4.65-3.2-6.95-9.55-6.95h-8.25c-3,0-4.25-.05-6.25-.15a48.828,48.828,0,0,1,.35,6.4V84.5a48.828,48.828,0,0,1-.35,6.4c2.2-.1,3.5-.15,6.3-.15Zm-8.45-17.1V67.1h7.3c2.85,0,4.2,1,4.2,3.1,0,2.25-1.45,3.45-4.15,3.45Zm0,4.45h7.6c3.3,0,4.85,1.25,4.85,3.95,0,2.6-1.55,3.85-4.8,3.85H559.8Zm42.3-15.8c-2.65,0-3.65-.05-6-.15.05,1.25.1,1.75.1,2.85a22.208,22.208,0,0,1-.1,2.7l-.7,13.9c-.15,2.65-.9,3.8-2.55,3.8a4.221,4.221,0,0,1-2-.6l-1.25,5.8a12.786,12.786,0,0,0,4.55.75A7.092,7.092,0,0,0,599.6,89c1.1-1.3,1.75-3.35,1.9-6.1l.85-15.15H612V85.3a39.9,39.9,0,0,1-.35,5.45h7a36.992,36.992,0,0,1-.35-5.45V67.7a38.876,38.876,0,0,1,.35-5.55c-1.85.1-3,.15-5.7.15Zm50.35,17v4.95a51.5,51.5,0,0,1-.35,6.5H659a49.634,49.634,0,0,1-.35-6.45V68.55a49.865,49.865,0,0,1,.35-6.4c-2.05.1-3.6.15-6.3.15h-8.35c-6,0-9.5,2.85-9.5,7.75a6.681,6.681,0,0,0,2.65,5.8A6.966,6.966,0,0,0,641,77.2a4.423,4.423,0,0,0-2.1,1.25,21.667,21.667,0,0,0-3.15,5.25c-2.8,5.85-2.8,5.85-3.6,7.05h7.75a35.177,35.177,0,0,1,2.55-6.7c1.8-3.8,2.75-4.75,5-4.75Zm0-5.15h-7c-2.85,0-4.25-1.1-4.25-3.35s1.35-3.35,4.1-3.35h7.15Zm50.35,3.9c-.1-1.15-.1-1.3-.1-1.4a20.553,20.553,0,0,0-1.45-7.6c-2-5-6.6-7.9-12.45-7.9-8.55,0-14.1,6.05-14.1,15.3,0,9.35,5.6,15.25,14.45,15.25a14.2,14.2,0,0,0,10.3-3.85,14.051,14.051,0,0,0,3.05-4.6l-5.9-1.9a7.267,7.267,0,0,1-1.45,2.6,8.411,8.411,0,0,1-12.25-.3c-1.15-1.45-1.6-2.85-1.85-5.6ZM681.2,73.1c.75-4.2,3.6-6.8,7.5-6.8a7.131,7.131,0,0,1,5.4,2,7.848,7.848,0,0,1,2.2,4.8Zm52,17.65a51.5,51.5,0,0,1-.35-6.5V67.75h3.9a55.387,55.387,0,0,1,6.4.3v-6.1a45.872,45.872,0,0,1-6.4.35h-14.2a47.323,47.323,0,0,1-6.4-.35v6.1a59.182,59.182,0,0,1,6.5-.3h3.8v16.5a46.011,46.011,0,0,1-.35,6.5ZM20.45,152.3c-2.65,0-3.65-.05-6-.15.05,1.25.1,1.75.1,2.85a22.2,22.2,0,0,1-.1,2.7l-.7,13.9c-.15,2.65-.9,3.8-2.55,3.8a4.221,4.221,0,0,1-2-.6l-1.25,5.8a12.787,12.787,0,0,0,4.55.75A7.092,7.092,0,0,0,17.95,179c1.1-1.3,1.75-3.35,1.9-6.1l.85-15.15h9.65V175.3a39.9,39.9,0,0,1-.35,5.45h7a36.992,36.992,0,0,1-.35-5.45V157.7a38.876,38.876,0,0,1,.35-5.55c-1.85.1-3,.15-5.7.15Zm34.9,16.15h3.6c.55,4.15,1.05,5.85,2.3,7.8,2.2,3.45,5.7,5.2,10.35,5.2,8.25,0,13.2-5.65,13.2-15.1,0-9.3-4.85-14.8-13-14.8a11.907,11.907,0,0,0-8.95,3.4c-1.95,2-2.85,4-3.8,8.45h-3.7v-4.65a49.633,49.633,0,0,1,.35-6.45H48.85a46.785,46.785,0,0,1,.35,6.5v15.45a55.428,55.428,0,0,1-.35,6.5H55.7a52.039,52.039,0,0,1-.35-6.5Zm16.3,7.9a6,6,0,0,1-4.35-1.65c-1.55-1.65-2.45-4.6-2.45-8.1,0-6.25,2.6-9.95,6.9-9.95,4.25,0,6.75,3.6,6.75,9.7,0,3.5-.9,6.45-2.45,8.2A5.831,5.831,0,0,1,71.65,176.35Zm19.05,5.8a16.843,16.843,0,0,1-.35,3.85H97.4a22.525,22.525,0,0,1-.3-3.8v-1.5h18.95v1.6a14.165,14.165,0,0,1-.35,3.7h7.1a17.977,17.977,0,0,1-.35-4v-2.85a26.434,26.434,0,0,1,.35-4c-1.65.1-1.9.1-2.95.1v-16.6a48.416,48.416,0,0,1,.35-6.5c-2,.15-2.75.15-6.3.15H103.05c-3.5,0-4.3,0-6.25-.15a53.717,53.717,0,0,1,.3,5.95,44.111,44.111,0,0,1-.8,9.05,24.99,24.99,0,0,1-3,8.1c-1.25-.05-1.25-.05-2.95-.1a25.084,25.084,0,0,1,.35,4.05Zm9.1-6.85a28.441,28.441,0,0,0,2.7-7.6,48.974,48.974,0,0,0,.8-10h10.4v17.6Zm62.35-7.25c-.1-1.15-.1-1.3-.1-1.4a20.555,20.555,0,0,0-1.45-7.6c-2-5-6.6-7.9-12.45-7.9-8.55,0-14.1,6.05-14.1,15.3,0,9.35,5.6,15.25,14.45,15.25a14.2,14.2,0,0,0,10.3-3.85,14.052,14.052,0,0,0,3.05-4.6l-5.9-1.9a7.267,7.267,0,0,1-1.45,2.6,8.411,8.411,0,0,1-12.25-.3c-1.15-1.45-1.6-2.85-1.85-5.6Zm-21.6-4.95c.75-4.2,3.6-6.8,7.5-6.8a7.131,7.131,0,0,1,5.4,2,7.848,7.848,0,0,1,2.2,4.8Zm34.9-10.8a55.508,55.508,0,0,1,.35,6.4v15.6a43.351,43.351,0,0,1-.4,6.45h7.1a27.6,27.6,0,0,1,2.8-4.6l9.6-12.7a8.74,8.74,0,0,0,.9-1.45c.05-.1.15-.25.3-.5-.05,1.05-.05,1.05-.1,2.65l-.05,10.2a45.873,45.873,0,0,1-.35,6.4h6.95a50.679,50.679,0,0,1-.35-6.45V158.7a50.929,50.929,0,0,1,.35-6.4h-7a19.767,19.767,0,0,1-2.8,4.65l-9.45,12.6c-.3.4-.75,1.1-1.1,1.65a3.207,3.207,0,0,1-.3.5c.05-1.4.1-2.35.1-2.85v-10.1a50.153,50.153,0,0,1,.35-6.45ZM193.2,147c-.5,1.75-1.75,2.55-4.1,2.55a5.184,5.184,0,0,1-3.1-.85,2.6,2.6,0,0,1-1-1.7h-4.05a5.61,5.61,0,0,0,1.6,2.95,8.639,8.639,0,0,0,6.35,2.25,9.844,9.844,0,0,0,6.35-2,5.152,5.152,0,0,0,2-3.2Zm57.9,13.2a16.643,16.643,0,0,0-1.75-3.65c-2.4-3.5-6.3-5.4-11.2-5.4a13.692,13.692,0,0,0-10.05,3.8,16.167,16.167,0,0,0-4.25,11.55c0,9.25,5.7,15.2,14.5,15.2,4.75,0,8.6-1.75,11-5a14.972,14.972,0,0,0,2.1-4.3l-6.2-1.25a6.988,6.988,0,0,1-1,2.5,6.693,6.693,0,0,1-5.75,2.8c-5.05,0-8.15-3.85-8.15-10.1,0-6.2,3.05-10.05,7.95-10.05a6.291,6.291,0,0,1,5.15,2.3,9.528,9.528,0,0,1,1.55,3.05Zm27.65,21.5c8.9,0,14.75-6.1,14.75-15.35s-5.75-15.15-14.8-15.15c-9.1,0-14.9,5.95-14.9,15.25C263.8,175.8,269.6,181.7,278.75,181.7Zm-.05-25.3c5.3,0,8.35,3.7,8.35,10.15,0,6.1-3.2,9.85-8.4,9.85s-8.4-3.8-8.4-9.95C270.25,160.2,273.45,156.4,278.7,156.4Zm55.1,11.65c-.1-1.15-.1-1.3-.1-1.4a20.554,20.554,0,0,0-1.45-7.6c-2-5-6.6-7.9-12.45-7.9-8.55,0-14.1,6.05-14.1,15.3,0,9.35,5.6,15.25,14.45,15.25a14.2,14.2,0,0,0,10.3-3.85,14.051,14.051,0,0,0,3.05-4.6l-5.9-1.9a7.267,7.267,0,0,1-1.45,2.6,8.411,8.411,0,0,1-12.25-.3c-1.15-1.45-1.6-2.85-1.85-5.6Zm-21.6-4.95c.75-4.2,3.6-6.8,7.5-6.8a7.131,7.131,0,0,1,5.4,2,7.848,7.848,0,0,1,2.2,4.8Zm32.15,19.05A16.843,16.843,0,0,1,344,186h7.05a22.527,22.527,0,0,1-.3-3.8v-1.5H369.7v1.6a14.165,14.165,0,0,1-.35,3.7h7.1a17.977,17.977,0,0,1-.35-4v-2.85a26.432,26.432,0,0,1,.35-4c-1.65.1-1.9.1-2.95.1v-16.6a48.415,48.415,0,0,1,.35-6.5c-2,.15-2.75.15-6.3.15H356.7c-3.5,0-4.3,0-6.25-.15a53.713,53.713,0,0,1,.3,5.95,44.109,44.109,0,0,1-.8,9.05,24.989,24.989,0,0,1-3,8.1c-1.25-.05-1.25-.05-2.95-.1a25.084,25.084,0,0,1,.35,4.05Zm9.1-6.85a28.441,28.441,0,0,0,2.7-7.6,48.974,48.974,0,0,0,.8-10h10.4v17.6Zm34.65-23a55.508,55.508,0,0,1,.35,6.4v15.6a43.349,43.349,0,0,1-.4,6.45h7.1a27.605,27.605,0,0,1,2.8-4.6l9.6-12.7a8.738,8.738,0,0,0,.9-1.45c.05-.1.15-.25.3-.5-.05,1.05-.05,1.05-.1,2.65l-.05,10.2a45.872,45.872,0,0,1-.35,6.4h6.95a50.679,50.679,0,0,1-.35-6.45V158.7a50.929,50.929,0,0,1,.35-6.4h-7a19.768,19.768,0,0,1-2.8,4.65l-9.45,12.6c-.3.4-.75,1.1-1.1,1.65a3.21,3.21,0,0,1-.3.5c.05-1.4.1-2.35.1-2.85v-10.1a50.153,50.153,0,0,1,.35-6.45Zm47.8,28.45a46.833,46.833,0,0,1-.35-6.4V168.7h14.2v5.65a52.583,52.583,0,0,1-.35,6.4h6.9a47.818,47.818,0,0,1-.35-6.4v-15.6a44.779,44.779,0,0,1,.35-6.45h-6.9a51.212,51.212,0,0,1,.35,6.45v4.45h-14.2v-4.5a49.342,49.342,0,0,1,.35-6.4H429a52.024,52.024,0,0,1,.35,6.4v15.65a39.629,39.629,0,0,1-.35,6.4Zm52.55-11.45v4.95a51.5,51.5,0,0,1-.35,6.5H495a49.633,49.633,0,0,1-.35-6.45V158.55a49.864,49.864,0,0,1,.35-6.4c-2.05.1-3.6.15-6.3.15h-8.35c-6,0-9.5,2.85-9.5,7.75a6.681,6.681,0,0,0,2.65,5.8,6.966,6.966,0,0,0,3.5,1.35,4.424,4.424,0,0,0-2.1,1.25,21.666,21.666,0,0,0-3.15,5.25c-2.8,5.85-2.8,5.85-3.6,7.05h7.75a35.178,35.178,0,0,1,2.55-6.7c1.8-3.8,2.75-4.75,5-4.75Zm0-5.15h-7c-2.85,0-4.25-1.1-4.25-3.35s1.35-3.35,4.1-3.35h7.15Zm39.75,16.6a51.5,51.5,0,0,1-.35-6.5v-16.5h3.9a55.389,55.389,0,0,1,6.4.3v-6.1a45.873,45.873,0,0,1-6.4.35h-14.2a47.323,47.323,0,0,1-6.4-.35v6.1a59.184,59.184,0,0,1,6.5-.3h3.8v16.5a46.01,46.01,0,0,1-.35,6.5ZM561,162.5v-3.85a47.524,47.524,0,0,1,.35-6.35h-6.9a55.262,55.262,0,0,1,.35,6.35v15.8a45.238,45.238,0,0,1-.35,6.45c2.2-.1,3.5-.15,6.25-.15h8.45c6.5,0,10.2-3.3,10.2-9.15,0-5.8-3.7-9.1-10.25-9.1Zm0,13.1v-7.95h6.9c3.55,0,5.05,1.2,5.05,4s-1.45,3.95-4.95,3.95Zm59.1-15.4a16.645,16.645,0,0,0-1.75-3.65c-2.4-3.5-6.3-5.4-11.2-5.4a13.692,13.692,0,0,0-10.05,3.8,16.167,16.167,0,0,0-4.25,11.55c0,9.25,5.7,15.2,14.5,15.2,4.75,0,8.6-1.75,11-5a14.973,14.973,0,0,0,2.1-4.3l-6.2-1.25a6.988,6.988,0,0,1-1,2.5,6.693,6.693,0,0,1-5.75,2.8c-5.05,0-8.15-3.85-8.15-10.1,0-6.2,3.05-10.05,7.95-10.05a6.291,6.291,0,0,1,5.15,2.3,9.527,9.527,0,0,1,1.55,3.05Zm32.35,9.1v4.95a51.5,51.5,0,0,1-.35,6.5H659a49.634,49.634,0,0,1-.35-6.45V158.55a49.865,49.865,0,0,1,.35-6.4c-2.05.1-3.6.15-6.3.15h-8.35c-6,0-9.5,2.85-9.5,7.75a6.681,6.681,0,0,0,2.65,5.8,6.966,6.966,0,0,0,3.5,1.35,4.424,4.424,0,0,0-2.1,1.25,21.667,21.667,0,0,0-3.15,5.25c-2.8,5.85-2.8,5.85-3.6,7.05h7.75a35.178,35.178,0,0,1,2.55-6.7c1.8-3.8,2.75-4.75,5-4.75Zm0-5.15h-7c-2.85,0-4.25-1.1-4.25-3.35s1.35-3.35,4.1-3.35h7.15Z" transform="translate(176.85 472)"/>
      <path id="路径_41063" data-name="路径 41063" d="M5-9.6a4.159,4.159,0,0,0-3.1,1.2A5.137,5.137,0,0,0,.54-4.656c0,3.048,1.752,5,4.476,5S9.5-1.62,9.5-4.656A5.175,5.175,0,0,0,8.16-8.4,4.205,4.205,0,0,0,5-9.6ZM5.04-1.08a2.591,2.591,0,0,1-1.86-.732,3.965,3.965,0,0,1-.972-2.832c0-2.172,1.092-3.54,2.82-3.54a2.583,2.583,0,0,1,1.848.732,3.876,3.876,0,0,1,.948,2.8C7.824-2.448,6.756-1.08,5.04-1.08ZM36.576-9.408a9.767,9.767,0,0,1,.1,1.644V-3.54a2.191,2.191,0,0,1-2.436,2.484,2.2,2.2,0,0,1-2.46-2.472V-7.764a9.41,9.41,0,0,1,.1-1.644H30.084a9.858,9.858,0,0,1,.1,1.644v4.236a3.865,3.865,0,0,0,.9,2.76A4.134,4.134,0,0,0,34.176.36c2.616,0,4.092-1.392,4.092-3.876v-4.26a9.7,9.7,0,0,1,.1-1.632ZM67.332.144c-.168-.324-.468-.972-.564-1.188C65.58-3.852,65.352-4.188,64.6-4.428a2.537,2.537,0,0,0,1.332-.7,2.467,2.467,0,0,0,.612-1.788c0-1.584-1.044-2.5-2.868-2.5h-2.88c-.66,0-1.032-.012-1.536-.036a10.677,10.677,0,0,1,.1,1.56v6.468a9.391,9.391,0,0,1-.1,1.56h1.788a9.364,9.364,0,0,1-.1-1.572V-3.876h1.788c.924,0,1.344.444,1.992,2.1a9.714,9.714,0,0,1,.624,1.92ZM60.948-5.244v-2.8h2.46c.984,0,1.476.444,1.476,1.308A1.424,1.424,0,0,1,64.5-5.676a1.617,1.617,0,0,1-1.14.432ZM116.7.144a9.771,9.771,0,0,1,.528-1.6l1.8-4.224a14.644,14.644,0,0,0,.552-1.752c-.012.18-.048.792-.1,1.836v3.984a11.156,11.156,0,0,1-.1,1.752h1.68a10.4,10.4,0,0,1-.1-1.752V-7.632a12.427,12.427,0,0,1,.1-1.776H118.86a6.65,6.65,0,0,1-.432,1.428L116-2.028,113.568-7.98a8.305,8.305,0,0,1-.444-1.428h-2.2a11.9,11.9,0,0,1,.1,1.776v6.024a11.254,11.254,0,0,1-.1,1.752h1.68a10.964,10.964,0,0,1-.1-1.752V-5.544c0-.264-.048-1.248-.1-1.884a13.354,13.354,0,0,0,.612,1.836l1.728,4.116a8.169,8.169,0,0,1,.528,1.62Zm25.272-9.552a8.966,8.966,0,0,1,.1,1.548V-1.4a9.055,9.055,0,0,1-.1,1.548H143.8a9.055,9.055,0,0,1-.1-1.548V-7.86a8.966,8.966,0,0,1,.1-1.548Zm22.4,6.756a4.1,4.1,0,0,0,.228,1A2.825,2.825,0,0,0,165.66-.288a4.825,4.825,0,0,0,2.52.624,3.977,3.977,0,0,0,2.868-.912,2.792,2.792,0,0,0,.756-2.04,2.368,2.368,0,0,0-1-2.064,5.283,5.283,0,0,0-1.956-.732,10.216,10.216,0,0,1-1.692-.432,1.141,1.141,0,0,1-.816-1.092c0-.78.708-1.308,1.752-1.308a1.9,1.9,0,0,1,1.5.576,1.55,1.55,0,0,1,.36.852l1.716-.2a3.235,3.235,0,0,0-.588-1.392A3.537,3.537,0,0,0,168.1-9.624c-2.064,0-3.408,1.08-3.408,2.748a2.362,2.362,0,0,0,.924,1.944,4.242,4.242,0,0,0,1.812.732,7.566,7.566,0,0,1,2.088.588,1.218,1.218,0,0,1,.6,1.1c0,.9-.72,1.44-1.92,1.44a2.13,2.13,0,0,1-1.752-.708,1.72,1.72,0,0,1-.336-1.056Zm27.78,0a4.1,4.1,0,0,0,.228,1A2.825,2.825,0,0,0,193.44-.288a4.825,4.825,0,0,0,2.52.624,3.977,3.977,0,0,0,2.868-.912,2.792,2.792,0,0,0,.756-2.04,2.368,2.368,0,0,0-1-2.064,5.283,5.283,0,0,0-1.956-.732,10.216,10.216,0,0,1-1.692-.432,1.141,1.141,0,0,1-.816-1.092c0-.78.708-1.308,1.752-1.308a1.9,1.9,0,0,1,1.5.576,1.55,1.55,0,0,1,.36.852l1.716-.2a3.235,3.235,0,0,0-.588-1.392,3.537,3.537,0,0,0-2.988-1.212c-2.064,0-3.408,1.08-3.408,2.748a2.362,2.362,0,0,0,.924,1.944A4.242,4.242,0,0,0,195.2-4.2a7.566,7.566,0,0,1,2.088.588,1.218,1.218,0,0,1,.6,1.1c0,.9-.72,1.44-1.92,1.44a2.13,2.13,0,0,1-1.752-.708,1.72,1.72,0,0,1-.336-1.056Zm28.092-6.756a8.966,8.966,0,0,1,.1,1.548V-1.4a9.055,9.055,0,0,1-.1,1.548h1.824a9.055,9.055,0,0,1-.1-1.548V-7.86a8.966,8.966,0,0,1,.1-1.548ZM247.116-9.6a4.159,4.159,0,0,0-3.1,1.2,5.137,5.137,0,0,0-1.368,3.744c0,3.048,1.752,5,4.476,5s4.488-1.968,4.488-5A5.175,5.175,0,0,0,250.272-8.4,4.205,4.205,0,0,0,247.116-9.6Zm.036,8.52a2.591,2.591,0,0,1-1.86-.732,3.965,3.965,0,0,1-.972-2.832c0-2.172,1.092-3.54,2.82-3.54a2.583,2.583,0,0,1,1.848.732,3.876,3.876,0,0,1,.948,2.8C249.936-2.448,248.868-1.08,247.152-1.08ZM280.368.144a9.055,9.055,0,0,1-.1-1.548V-7.752a10.493,10.493,0,0,1,.1-1.656h-1.752a10.489,10.489,0,0,1,.1,1.656V-3.72c0,.5.036,1.224.084,1.692-.264-.48-.648-1.1-.936-1.536l-3.036-4.572a6.582,6.582,0,0,1-.732-1.272H272.22a9.993,9.993,0,0,1,.1,1.548v6.192a12.983,12.983,0,0,1-.1,1.812h1.752a13.282,13.282,0,0,1-.1-1.8V-5.592c0-.276-.024-.816-.036-1.044-.036-.444-.036-.444-.048-.612.288.564.588,1.08.816,1.44l3.1,4.668a11.958,11.958,0,0,1,.768,1.284Z" transform="translate(180.46 366)"/>
      <path id="路径_41065" data-name="路径 41065" d="M4.5,2a27.609,27.609,0,0,1-.35,4h7.4a20.288,20.288,0,0,1-.25-3.2V.75H37.45V2a20.1,20.1,0,0,1-.25,4h7.3a22.471,22.471,0,0,1-.3-4.35v-2.8c0-.3.1-1.7.3-4.05-1.3.05-2.6.1-3.8.1V-32.5a43.79,43.79,0,0,1,.4-6.45c-2.1.15-3.2.15-6.3.15H18.9c-2.85,0-3.45,0-6.3-.15A40.427,40.427,0,0,1,13-32.5v1.85a72.56,72.56,0,0,1-1.45,14.7A57.32,57.32,0,0,1,8-5.1c-.95,0-1.35,0-2.15-.05C4.75-5.2,4.75-5.2,4.2-5.2a25.313,25.313,0,0,1,.3,3.8ZM14.75-5.1A47.172,47.172,0,0,0,18.35-17c.8-4.45,1.05-7.8,1.2-15.9h14.5V-5.1Zm57.5,6H79a40.214,40.214,0,0,1-.4-6.25v-13.5c0-3.4-.65-5.3-2.35-6.9-2.15-2.1-5.05-2.95-9.85-2.95-4.3,0-7.1.75-9.55,2.55-1.9,1.35-2.8,2.65-3.95,5.55l6.4,1.15a5.8,5.8,0,0,1,2-3.2,9.412,9.412,0,0,1,5.2-1.4c3.8,0,5.75,1.5,5.75,4.4v2.5c-7.15.15-10.85.7-14.1,2.05A8.819,8.819,0,0,0,52.5-7c0,5.2,3.7,8.4,9.8,8.4A17.692,17.692,0,0,0,66.95.8a10.842,10.842,0,0,0,5.3-3.15Zm0-11.15a5.959,5.959,0,0,1-1.8,4.4A10.153,10.153,0,0,1,63.5-3.2c-2.8,0-4.55-1.45-4.55-3.85,0-3.9,3.75-5.5,13.3-5.75ZM109.6.75c6.65,0,10.2-2.75,10.2-7.9a6.751,6.751,0,0,0-2.3-5.45,6.571,6.571,0,0,0-4.1-1.65c3.5-.8,5.3-3,5.3-6.5,0-4.65-3.2-6.95-9.55-6.95H100.9c-3,0-4.25-.05-6.25-.15a48.828,48.828,0,0,1,.35,6.4V-5.5A48.828,48.828,0,0,1,94.65.9c2.2-.1,3.5-.15,6.3-.15Zm-8.45-17.1V-22.9h7.3c2.85,0,4.2,1,4.2,3.1,0,2.25-1.45,3.45-4.15,3.45Zm0,4.45h7.6c3.3,0,4.85,1.25,4.85,3.95,0,2.6-1.55,3.85-4.8,3.85h-7.65ZM154.25.9H161a40.214,40.214,0,0,1-.4-6.25v-13.5c0-3.4-.65-5.3-2.35-6.9-2.15-2.1-5.05-2.95-9.85-2.95-4.3,0-7.1.75-9.55,2.55-1.9,1.35-2.8,2.65-3.95,5.55l6.4,1.15a5.8,5.8,0,0,1,2-3.2,9.412,9.412,0,0,1,5.2-1.4c3.8,0,5.75,1.5,5.75,4.4v2.5c-7.15.15-10.85.7-14.1,2.05A8.819,8.819,0,0,0,134.5-7c0,5.2,3.7,8.4,9.8,8.4a17.692,17.692,0,0,0,4.65-.6,10.842,10.842,0,0,0,5.3-3.15Zm0-11.15a5.959,5.959,0,0,1-1.8,4.4A10.153,10.153,0,0,1,145.5-3.2c-2.8,0-4.55-1.45-4.55-3.85,0-3.9,3.75-5.5,13.3-5.75Zm21.2-17.45a55.508,55.508,0,0,1,.35,6.4V-5.7a43.351,43.351,0,0,1-.4,6.45h7.1a27.6,27.6,0,0,1,2.8-4.6l9.6-12.7a8.741,8.741,0,0,0,.9-1.45c.05-.1.15-.25.3-.5-.05,1.05-.05,1.05-.1,2.65l-.05,10.2a45.873,45.873,0,0,1-.35,6.4h6.95a50.679,50.679,0,0,1-.35-6.45V-21.3a50.929,50.929,0,0,1,.35-6.4h-7a19.767,19.767,0,0,1-2.8,4.65l-9.45,12.6c-.3.4-.75,1.1-1.1,1.65a3.208,3.208,0,0,1-.3.5c.05-1.4.1-2.35.1-2.85v-10.1a50.153,50.153,0,0,1,.35-6.45ZM193.2-33c-.5,1.75-1.75,2.55-4.1,2.55a5.184,5.184,0,0,1-3.1-.85,2.6,2.6,0,0,1-1-1.7h-4.05a5.61,5.61,0,0,0,1.6,2.95,8.639,8.639,0,0,0,6.35,2.25,9.844,9.844,0,0,0,6.35-2,5.152,5.152,0,0,0,2-3.2ZM233.55.75a51.5,51.5,0,0,1-.35-6.5v-16.5h3.9a55.388,55.388,0,0,1,6.4.3v-6.1a45.872,45.872,0,0,1-6.4.35H222.9a47.322,47.322,0,0,1-6.4-.35v6.1a59.183,59.183,0,0,1,6.5-.3h3.8v16.5a46.01,46.01,0,0,1-.35,6.5Zm51.6-12.7c-.1-1.15-.1-1.3-.1-1.4a20.555,20.555,0,0,0-1.45-7.6c-2-5-6.6-7.9-12.45-7.9-8.55,0-14.1,6.05-14.1,15.3,0,9.35,5.6,15.25,14.45,15.25a14.2,14.2,0,0,0,10.3-3.85,14.052,14.052,0,0,0,3.05-4.6l-5.9-1.9a7.267,7.267,0,0,1-1.45,2.6,7.906,7.906,0,0,1-6,2.5,7.858,7.858,0,0,1-6.25-2.8c-1.15-1.45-1.6-2.85-1.85-5.6Zm-21.6-4.95c.75-4.2,3.6-6.8,7.5-6.8a7.131,7.131,0,0,1,5.4,2,7.848,7.848,0,0,1,2.2,4.8Zm69.55-2.9a16.644,16.644,0,0,0-1.75-3.65c-2.4-3.5-6.3-5.4-11.2-5.4a13.692,13.692,0,0,0-10.05,3.8,16.167,16.167,0,0,0-4.25,11.55c0,9.25,5.7,15.2,14.5,15.2,4.75,0,8.6-1.75,11-5a14.972,14.972,0,0,0,2.1-4.3l-6.2-1.25a6.988,6.988,0,0,1-1,2.5,6.693,6.693,0,0,1-5.75,2.8c-5.05,0-8.15-3.85-8.15-10.1,0-6.2,3.05-10.05,7.95-10.05a6.291,6.291,0,0,1,5.15,2.3A9.528,9.528,0,0,1,327-18.35ZM360.75,1.7c8.9,0,14.75-6.1,14.75-15.35S369.75-28.8,360.7-28.8c-9.1,0-14.9,5.95-14.9,15.25C345.8-4.2,351.6,1.7,360.75,1.7Zm-.05-25.3c5.3,0,8.35,3.7,8.35,10.15,0,6.1-3.2,9.85-8.4,9.85s-8.4-3.8-8.4-9.95C352.25-19.8,355.45-23.6,360.7-23.6ZM388.15-6.1c1.05,2.85,1.95,4.15,3.95,5.5,1.95,1.3,5.55,2.1,9.4,2.1,4.65,0,8.35-1.15,10.5-3.25a6.856,6.856,0,0,0,2.1-5.2,6.252,6.252,0,0,0-2.4-5.3c-1.4-1.05-2.8-1.45-5.75-1.7a9.827,9.827,0,0,0,4.6-1.7,6.135,6.135,0,0,0,2.5-5.3,5.93,5.93,0,0,0-.9-3.45c-1.6-2.6-5.4-4.1-10.35-4.1-3.55,0-6.65.7-8.65,2-1.95,1.25-2.95,2.5-4.05,5.25l6.35,1.15c.95-2.6,2.5-3.5,5.95-3.5,3.6,0,5.35,1.1,5.35,3.35,0,2.8-1.9,3.95-6.45,3.95a17.636,17.636,0,0,1-3.3-.25v5.25a17.635,17.635,0,0,1,3.75-.25c5.3,0,7,.9,7,3.75q0,4.35-6.45,4.35a9.8,9.8,0,0,1-4.8-1,3.9,3.9,0,0,1-2-2.75Zm38.2,8.25A16.843,16.843,0,0,1,426,6h7.05a22.528,22.528,0,0,1-.3-3.8V.7H451.7V2.3a14.165,14.165,0,0,1-.35,3.7h7.1a17.977,17.977,0,0,1-.35-4V-.85a26.432,26.432,0,0,1,.35-4c-1.65.1-1.9.1-2.95.1v-16.6a48.415,48.415,0,0,1,.35-6.5c-2,.15-2.75.15-6.3.15H438.7c-3.5,0-4.3,0-6.25-.15a53.713,53.713,0,0,1,.3,5.95,44.109,44.109,0,0,1-.8,9.05,24.989,24.989,0,0,1-3,8.1c-1.25-.05-1.25-.05-2.95-.1a25.084,25.084,0,0,1,.35,4.05Zm9.1-6.85a28.441,28.441,0,0,0,2.7-7.6,48.974,48.974,0,0,0,.8-10h10.4V-4.7ZM489.9.9h6.75a40.216,40.216,0,0,1-.4-6.25v-13.5c0-3.4-.65-5.3-2.35-6.9-2.15-2.1-5.05-2.95-9.85-2.95-4.3,0-7.1.75-9.55,2.55-1.9,1.35-2.8,2.65-3.95,5.55l6.4,1.15a5.8,5.8,0,0,1,2-3.2,9.413,9.413,0,0,1,5.2-1.4c3.8,0,5.75,1.5,5.75,4.4v2.5c-7.15.15-10.85.7-14.1,2.05A8.819,8.819,0,0,0,470.15-7c0,5.2,3.7,8.4,9.8,8.4A17.692,17.692,0,0,0,484.6.8a10.842,10.842,0,0,0,5.3-3.15Zm0-11.15a5.959,5.959,0,0,1-1.8,4.4,10.153,10.153,0,0,1-6.95,2.65c-2.8,0-4.55-1.45-4.55-3.85,0-3.9,3.75-5.5,13.3-5.75Zm38.3,11a51.5,51.5,0,0,1-.35-6.5v-16.5h3.9a55.388,55.388,0,0,1,6.4.3v-6.1a45.873,45.873,0,0,1-6.4.35h-14.2a47.323,47.323,0,0,1-6.4-.35v6.1a59.184,59.184,0,0,1,6.5-.3h3.8v16.5a46.01,46.01,0,0,1-.35,6.5ZM561-17.5v-3.85a47.524,47.524,0,0,1,.35-6.35h-6.9a55.262,55.262,0,0,1,.35,6.35v15.8A45.238,45.238,0,0,1,554.45.9c2.2-.1,3.5-.15,6.25-.15h8.45c6.5,0,10.2-3.3,10.2-9.15,0-5.8-3.7-9.1-10.25-9.1Zm0,13.1v-7.95h6.9c3.55,0,5.05,1.2,5.05,4S571.5-4.4,568-4.4ZM7.95,180.6C9.5,181.15,9.8,175.15,7.95,180.6Z" transform="translate(176.85 472)" fill="#0080f4"/>
    </g>
  </g>
</svg>
