<svg xmlns="http://www.w3.org/2000/svg" xmlns:xlink="http://www.w3.org/1999/xlink" width="1820" height="880" viewBox="0 0 1820 880">
  <defs>
    <clipPath id="clip-path">
      <rect id="矩形_2253" data-name="矩形 2253" width="1820" height="880" fill="#fff"/>
    </clipPath>
  </defs>
  <g id="关于我们-韩文" transform="translate(-10461 1353)">
    <g id="关于我们_CN">
      <g id="组_21795" data-name="组 21795" transform="translate(10411 -1513)">
        <g id="NAV_bg" transform="translate(50 160)" clip-path="url(#clip-path)">
          <g id="组_21480" data-name="组 21480" transform="translate(-50 27)" opacity="0.05">
            <g id="组_21478" data-name="组 21478" transform="translate(0 7.733)">
              <g id="组_21420" data-name="组 21420" transform="translate(496.006 224.522)">
                <g id="组_21418" data-name="组 21418" transform="translate(0 0)">
                  <rect id="矩形_2227" data-name="矩形 2227" width="472.183" height="1.891" transform="translate(0 84.71) rotate(-10.335)"/>
                </g>
                <g id="组_21419" data-name="组 21419" transform="translate(0 0)">
                  <rect id="矩形_2228" data-name="矩形 2228" width="472.183" height="1.891" transform="translate(0 84.71) rotate(-10.335)"/>
                </g>
              </g>
              <g id="组_21424" data-name="组 21424" transform="translate(496.139 32.308)">
                <g id="组_21421" data-name="组 21421" transform="translate(464.098 0.366)">
                  <rect id="矩形_2229" data-name="矩形 2229" width="192.908" height="1.261" transform="matrix(0.063, -0.998, 0.998, 0.063, 0, 192.522)"/>
                </g>
                <g id="组_21422" data-name="组 21422" transform="translate(0)">
                  <path id="路径_37381" data-name="路径 37381" d="M63.23,337.945l-.63-1.261L538.566,59.3l1.261,1.261Z" transform="translate(-62.6 -59.3)"/>
                </g>
                <g id="组_21423" data-name="组 21423" transform="translate(0)">
                  <path id="路径_37382" data-name="路径 37382" d="M63.23,337.945l-.63-1.261L538.566,59.3l1.261,1.261Z" transform="translate(-62.6 -59.3)"/>
                </g>
              </g>
              <g id="组_21429" data-name="组 21429" transform="translate(495.837 32.165)">
                <g id="组_21425" data-name="组 21425" transform="translate(326.765 0)">
                  <rect id="矩形_2230" data-name="矩形 2230" width="182.191" height="1.261" transform="translate(0 104.013) rotate(-34.814)"/>
                </g>
                <g id="组_21426" data-name="组 21426" transform="translate(327.17 104.435)">
                  <rect id="矩形_2231" data-name="矩形 2231" width="1.261" height="163.278" transform="matrix(0.54, -0.841, 0.841, 0.54, 0, 1.061)"/>
                </g>
                <g id="组_21427" data-name="组 21427" transform="translate(0 103.907)">
                  <rect id="矩形_2232" data-name="矩形 2232" width="370.055" height="1.261" transform="translate(0 173.556) rotate(-27.969)"/>
                </g>
                <g id="组_21428" data-name="组 21428" transform="translate(0 103.907)">
                  <rect id="矩形_2233" data-name="矩形 2233" width="370.055" height="1.261" transform="translate(0 173.556) rotate(-27.969)"/>
                </g>
              </g>
              <g id="组_21432" data-name="组 21432" transform="translate(0 309.692)">
                <g id="组_21430" data-name="组 21430">
                  <path id="路径_37383" data-name="路径 37383" d="M-16.1,576.113,480.669,104.561l-.63-1.261L-16.1,574.222Z" transform="translate(16.1 -103.3)"/>
                </g>
                <g id="组_21431" data-name="组 21431">
                  <path id="路径_37384" data-name="路径 37384" d="M-16.1,576.113,480.669,104.561l-.63-1.261L-16.1,574.222Z" transform="translate(16.1 -103.3)"/>
                </g>
              </g>
              <g id="组_21439" data-name="组 21439" transform="translate(0 136.327)">
                <g id="组_21433" data-name="组 21433" transform="translate(0 127.344)">
                  <path id="路径_37385" data-name="路径 37385" d="M-16.1,493.163,55.768,96H53.876L-16.1,484.337Z" transform="translate(16.1 -96)"/>
                </g>
                <g id="组_21434" data-name="组 21434" transform="translate(0 115.366)">
                  <path id="路径_37386" data-name="路径 37386" d="M-16.1,94.1v1.261l70.607,11.347.63-1.261Z" transform="translate(16.1 -94.1)"/>
                </g>
                <g id="组_21435" data-name="组 21435" transform="translate(70.607)">
                  <path id="路径_37387" data-name="路径 37387" d="M-4.27,203.775l-.63-1.261L747.819,75.8v1.261Z" transform="translate(4.9 -75.8)"/>
                </g>
                <g id="组_21436" data-name="组 21436" transform="translate(0 126.714)">
                  <path id="路径_37388" data-name="路径 37388" d="M-16.1,143.181,55.137,97.161l-.63-1.261L-16.1,141.29Z" transform="translate(16.1 -95.9)"/>
                </g>
                <g id="组_21437" data-name="组 21437" transform="translate(71.065 126.796)">
                  <rect id="矩形_2234" data-name="矩形 2234" width="1.261" height="428.054" transform="translate(0 1.253) rotate(-83.754)"/>
                </g>
                <g id="组_21438" data-name="组 21438" transform="translate(71.065 126.796)">
                  <rect id="矩形_2235" data-name="矩形 2235" width="1.261" height="428.054" transform="translate(0 1.253) rotate(-83.754)"/>
                </g>
              </g>
              <g id="组_21445" data-name="组 21445" transform="translate(495.939 33.135)">
                <g id="组_21440" data-name="组 21440" transform="translate(326.126 103.822)">
                  <path id="路径_37389" data-name="路径 37389" d="M215.8,741.621,114.3,75.9h1.891L217.058,741.621Z" transform="translate(-114.3 -75.9)"/>
                </g>
                <g id="组_21441" data-name="组 21441" transform="translate(427.475 0)">
                  <rect id="矩形_2236" data-name="矩形 2236" width="771.001" height="1.261" transform="translate(0 769.459) rotate(-86.406)"/>
                </g>
                <g id="组_21442" data-name="组 21442" transform="translate(427.648 192.686)">
                  <rect id="矩形_2237" data-name="矩形 2237" width="578.093" height="1.261" transform="translate(0 576.937) rotate(-86.392)"/>
                </g>
                <g id="组_21443" data-name="组 21443" transform="translate(0 276.653)">
                  <rect id="矩形_2238" data-name="矩形 2238" width="1.261" height="652.483" transform="matrix(0.755, -0.656, 0.656, 0.755, 0, 0.827)"/>
                </g>
                <g id="组_21444" data-name="组 21444" transform="translate(0 276.653)">
                  <rect id="矩形_2239" data-name="矩形 2239" width="1.261" height="652.483" transform="matrix(0.755, -0.656, 0.656, 0.755, 0, 0.827)"/>
                </g>
              </g>
              <g id="组_21453" data-name="组 21453" transform="translate(0 136.728)">
                <g id="组_21446" data-name="组 21446" transform="translate(529.871 665.909)">
                  <rect id="矩形_2240" data-name="矩形 2240" width="404.098" height="1.891" transform="matrix(0.976, -0.219, 0.219, 0.976, 0, 88.336)"/>
                </g>
                <g id="组_21447" data-name="组 21447" transform="translate(69.976 126.313)">
                  <path id="路径_37390" data-name="路径 37390" d="M454.575,725.688-5,97.161-3.739,95.9,455.836,725.057Z" transform="translate(5 -95.9)"/>
                </g>
                <g id="组_21448" data-name="组 21448" transform="translate(0 674.146)">
                  <path id="路径_37391" data-name="路径 37391" d="M-16.1,182.8v1.261l530.182,81.324v-1.891Z" transform="translate(16.1 -182.8)"/>
                </g>
                <g id="组_21449" data-name="组 21449" transform="translate(529.561)">
                  <rect id="矩形_2241" data-name="矩形 2241" width="810.087" height="1.891" transform="translate(0 755.406) rotate(-68.826)"/>
                </g>
                <g id="组_21450" data-name="组 21450" transform="translate(529.551 88.488)">
                  <path id="路径_37392" data-name="路径 37392" d="M69.161,757.513l-1.261-.63L498.476,89.9l1.261.63Z" transform="translate(-67.9 -89.9)"/>
                </g>
                <g id="组_21451" data-name="组 21451" transform="translate(495.627 173.374)">
                  <rect id="矩形_2242" data-name="矩形 2242" width="1.891" height="583.137" transform="matrix(0.998, -0.058, 0.058, 0.998, 0, 0.11)"/>
                </g>
                <g id="组_21452" data-name="组 21452" transform="translate(495.627 173.374)">
                  <rect id="矩形_2243" data-name="矩形 2243" width="1.891" height="583.137" transform="matrix(0.998, -0.058, 0.058, 0.998, 0, 0.11)"/>
                </g>
              </g>
              <g id="组_21458" data-name="组 21458" transform="translate(822.695 0)">
                <g id="组_21454" data-name="组 21454" transform="translate(552.246 0.157)">
                  <path id="路径_37393" data-name="路径 37393" d="M793.962,371.3,202.63,54.2,202,55.461l591.962,317.1Z" transform="translate(-202 -54.2)"/>
                </g>
                <g id="组_21455" data-name="组 21455" transform="translate(0 0.157)">
                  <path id="路径_37394" data-name="路径 37394" d="M115.03,191.631l-.63-1.261L666.646,54.2l.63,1.261Z" transform="translate(-114.4 -54.2)"/>
                </g>
                <g id="组_21456" data-name="组 21456" transform="translate(150.039 0.157)">
                  <path id="路径_37395" data-name="路径 37395" d="M138.2,87.612V86.351L540.407,54.2l.63,1.261Z" transform="translate(-138.2 -54.2)"/>
                </g>
                <g id="组_21457" data-name="组 21457" transform="translate(137.898)">
                  <rect id="矩形_2244" data-name="矩形 2244" width="471.553" height="1.261" transform="matrix(0.879, -0.477, 0.477, 0.879, 0, 224.789)"/>
                </g>
              </g>
              <g id="组_21461" data-name="组 21461" transform="translate(924.193 225.193)">
                <g id="组_21459" data-name="组 21459" transform="translate(0 576.855)">
                  <path id="路径_37396" data-name="路径 37396" d="M572.423,284.789,130.5,182.661V181.4L572.423,282.9Z" transform="translate(-130.5 -181.4)"/>
                </g>
                <g id="组_21460" data-name="组 21460" transform="translate(35.844 0)">
                  <rect id="矩形_2245" data-name="矩形 2245" width="1.891" height="791.175" transform="translate(0 0.97) rotate(-30.843)"/>
                </g>
              </g>
              <g id="组_21469" data-name="组 21469" transform="translate(822.695 0.025)">
                <g id="组_21462" data-name="组 21462" transform="translate(542.664 534.601)">
                  <rect id="矩形_2246" data-name="矩形 2246" width="398.424" height="1.891" transform="matrix(0.374, -0.927, 0.927, 0.374, 0, 369.459)"/>
                </g>
                <g id="组_21463" data-name="组 21463" transform="translate(551.651 0)">
                  <rect id="矩形_2247" data-name="矩形 2247" width="1.891" height="552.246" transform="matrix(0.967, -0.253, 0.253, 0.967, 0, 0.479)"/>
                </g>
                <g id="组_21464" data-name="组 21464" transform="translate(692.199 393.513)">
                  <path id="路径_37397" data-name="路径 37397" d="M676.21,116.6,224.2,257.183v1.261L676.21,118.491Z" transform="translate(-224.2 -116.6)"/>
                </g>
                <g id="组_21465" data-name="组 21465" transform="translate(101.262 533.511)">
                  <rect id="矩形_2248" data-name="矩形 2248" width="648.7" height="1.261" transform="translate(0 268.627) rotate(-24.463)"/>
                </g>
                <g id="组_21466" data-name="组 21466" transform="translate(0 136.302)">
                  <path id="路径_37398" data-name="路径 37398" d="M805.968,474.855,114.4,77.061l.63-1.261,692.2,397.794Z" transform="translate(-114.4 -75.8)"/>
                </g>
                <g id="组_21467" data-name="组 21467" transform="translate(149.585 32.046)">
                  <rect id="矩形_2249" data-name="矩形 2249" width="1.891" height="738.85" transform="translate(0 1.388) rotate(-47.229)"/>
                </g>
                <g id="组_21468" data-name="组 21468" transform="translate(137.402 224.553)">
                  <rect id="矩形_2250" data-name="矩形 2250" width="1.891" height="634.831" transform="translate(0 1.652) rotate(-60.849)"/>
                </g>
              </g>
              <g id="组_21471" data-name="组 21471" transform="translate(1514.894 534.12)">
                <g id="组_21470" data-name="组 21470">
                  <path id="路径_37399" data-name="路径 37399" d="M676.21,256.788,224.2,138.9v1.261L676.21,258.679Z" transform="translate(-224.2 -138.9)"/>
                </g>
              </g>
              <g id="组_21477" data-name="组 21477" transform="translate(924.091 497.556)">
                <g id="组_21472" data-name="组 21472" transform="translate(742.734 341.056)">
                  <path id="路径_37400" data-name="路径 37400" d="M548.379,187.2,248.3,283.654l.63,1.891,299.448-96.454Z" transform="translate(-248.3 -187.2)"/>
                </g>
                <g id="组_21473" data-name="组 21473" transform="translate(590.173 36.564)">
                  <path id="路径_37401" data-name="路径 37401" d="M376.661,541.107,224.1,139.531l1.261-.631L377.922,540.476Z" transform="translate(-224.1 -138.9)"/>
                </g>
                <g id="组_21474" data-name="组 21474" transform="translate(441.745 405.549)">
                  <rect id="矩形_2251" data-name="矩形 2251" width="1.891" height="302.601" transform="translate(0 1.881) rotate(-83.996)"/>
                </g>
                <g id="组_21475" data-name="组 21475" transform="translate(742.734)">
                  <path id="路径_37402" data-name="路径 37402" d="M548.379,133.1,248.3,571.241l1.261.63L548.379,135.622Z" transform="translate(-248.3 -133.1)"/>
                </g>
                <g id="组_21476" data-name="组 21476" transform="translate(0 304.675)">
                  <rect id="矩形_2252" data-name="矩形 2252" width="1.261" height="754.61" transform="translate(0 1.241) rotate(-79.81)"/>
                </g>
              </g>
            </g>
            <g id="组_21479" data-name="组 21479" transform="translate(62.717)">
              <path id="路径_37403" data-name="路径 37403" d="M71.76,118.234a8.183,8.183,0,1,1,5.674-10.087C78.694,111.929,76.173,116.973,71.76,118.234Z" transform="translate(364.184 208.017)"/>
              <path id="路径_37404" data-name="路径 37404" d="M145.46,104.734a8.183,8.183,0,1,1,5.674-10.087C151.764,99.06,149.242,103.473,145.46,104.734Z" transform="translate(755.102 136.411)"/>
              <path id="路径_37405" data-name="路径 37405" d="M71.76,118.234a8.183,8.183,0,1,1,5.674-10.087C78.694,111.929,76.173,116.973,71.76,118.234Z" transform="translate(364.184 208.017)"/>
              <path id="路径_37406" data-name="路径 37406" d="M145.46,104.734a8.183,8.183,0,1,1,5.674-10.087C151.764,99.06,149.242,103.473,145.46,104.734Z" transform="translate(755.102 136.411)"/>
              <path id="路径_37407" data-name="路径 37407" d="M145.46,104.734a8.183,8.183,0,1,1,5.674-10.087C151.764,99.06,149.242,103.473,145.46,104.734Z" transform="translate(755.102 136.411)"/>
              <path id="路径_37408" data-name="路径 37408" d="M147.36,74.234a8.183,8.183,0,1,1,5.674-10.087C154.294,67.929,151.773,72.973,147.36,74.234Z" transform="translate(765.18 -25.367)"/>
              <path id="路径_37409" data-name="路径 37409" d="M71.76,118.234a8.183,8.183,0,1,1,5.674-10.087C78.694,111.929,76.173,116.973,71.76,118.234Z" transform="translate(364.184 208.017)"/>
              <path id="路径_37410" data-name="路径 37410" d="M147.36,74.234a8.183,8.183,0,1,1,5.674-10.087C154.294,67.929,151.773,72.973,147.36,74.234Z" transform="translate(765.18 -25.367)"/>
              <path id="路径_37411" data-name="路径 37411" d="M71.76,118.234a8.183,8.183,0,1,1,5.674-10.087C78.694,111.929,76.173,116.973,71.76,118.234Z" transform="translate(364.184 208.017)"/>
              <path id="路径_37412" data-name="路径 37412" d="M147.36,74.234a8.183,8.183,0,1,1,5.674-10.087C154.294,67.929,151.773,72.973,147.36,74.234Z" transform="translate(765.18 -25.367)"/>
              <path id="路径_37413" data-name="路径 37413" d="M147.36,74.234a8.183,8.183,0,1,1,5.674-10.087C154.294,67.929,151.773,72.973,147.36,74.234Z" transform="translate(765.18 -25.367)"/>
              <path id="路径_37414" data-name="路径 37414" d="M123.56,90.734a8.183,8.183,0,1,1,5.674-10.087C130.494,84.429,127.973,89.473,123.56,90.734Z" transform="translate(638.94 62.152)"/>
              <path id="路径_37415" data-name="路径 37415" d="M145.46,104.734a8.183,8.183,0,1,1,5.674-10.087C151.764,99.06,149.242,103.473,145.46,104.734Z" transform="translate(755.102 136.411)"/>
              <path id="路径_37416" data-name="路径 37416" d="M123.56,90.734a8.183,8.183,0,1,1,5.674-10.087C130.494,84.429,127.973,89.473,123.56,90.734Z" transform="translate(638.94 62.152)"/>
              <path id="路径_37417" data-name="路径 37417" d="M71.76,118.234a8.183,8.183,0,1,1,5.674-10.087C78.694,111.929,76.173,116.973,71.76,118.234Z" transform="translate(364.184 208.017)"/>
              <path id="路径_37418" data-name="路径 37418" d="M123.56,90.734a8.183,8.183,0,1,1,5.674-10.087C130.494,84.429,127.973,89.473,123.56,90.734Z" transform="translate(638.94 62.152)"/>
              <path id="路径_37419" data-name="路径 37419" d="M71.76,118.234a8.183,8.183,0,1,1,5.674-10.087C78.694,111.929,76.173,116.973,71.76,118.234Z" transform="translate(364.184 208.017)"/>
              <path id="路径_37420" data-name="路径 37420" d="M123.56,90.734a8.183,8.183,0,1,1,5.674-10.087C130.494,84.429,127.973,89.473,123.56,90.734Z" transform="translate(638.94 62.152)"/>
              <path id="路径_37421" data-name="路径 37421" d="M71.76,118.234a8.183,8.183,0,1,1,5.674-10.087C78.694,111.929,76.173,116.973,71.76,118.234Z" transform="translate(364.184 208.017)"/>
              <path id="路径_37422" data-name="路径 37422" d="M71.76,118.234a8.183,8.183,0,1,1,5.674-10.087C78.694,111.929,76.173,116.973,71.76,118.234Z" transform="translate(364.184 208.017)"/>
              <path id="路径_37423" data-name="路径 37423" d="M4.26,110.834A8.1,8.1,0,0,1-5.827,105.16,8.1,8.1,0,0,1-.153,95.073a8.1,8.1,0,0,1,10.087,5.674C11.194,104.529,8.673,109.573,4.26,110.834Z" transform="translate(6.151 168.766)"/>
              <path id="路径_37424" data-name="路径 37424" d="M4.26,110.834A8.1,8.1,0,0,1-5.827,105.16,8.1,8.1,0,0,1-.153,95.073a8.1,8.1,0,0,1,10.087,5.674C11.194,104.529,8.673,109.573,4.26,110.834Z" transform="translate(6.151 168.766)"/>
              <path id="路径_37425" data-name="路径 37425" d="M123.56,90.734a8.183,8.183,0,1,1,5.674-10.087C130.494,84.429,127.973,89.473,123.56,90.734Z" transform="translate(638.94 62.152)"/>
              <path id="路径_37426" data-name="路径 37426" d="M4.26,110.834A8.1,8.1,0,0,1-5.827,105.16,8.1,8.1,0,0,1-.153,95.073a8.1,8.1,0,0,1,10.087,5.674C11.194,104.529,8.673,109.573,4.26,110.834Z" transform="translate(6.151 168.766)"/>
              <path id="路径_37427" data-name="路径 37427" d="M4.26,110.834A8.1,8.1,0,0,1-5.827,105.16,8.1,8.1,0,0,1-.153,95.073a8.1,8.1,0,0,1,10.087,5.674C11.194,104.529,8.673,109.573,4.26,110.834Z" transform="translate(6.151 168.766)"/>
              <path id="路径_37428" data-name="路径 37428" d="M71.76,118.234a8.183,8.183,0,1,1,5.674-10.087C78.694,111.929,76.173,116.973,71.76,118.234Z" transform="translate(364.184 208.017)"/>
              <path id="路径_37429" data-name="路径 37429" d="M4.26,110.834A8.1,8.1,0,0,1-5.827,105.16,8.1,8.1,0,0,1-.153,95.073a8.1,8.1,0,0,1,10.087,5.674C11.194,104.529,8.673,109.573,4.26,110.834Z" transform="translate(6.151 168.766)"/>
              <path id="路径_37430" data-name="路径 37430" d="M71.76,118.234a8.183,8.183,0,1,1,5.674-10.087C78.694,111.929,76.173,116.973,71.76,118.234Z" transform="translate(364.184 208.017)"/>
              <path id="路径_37431" data-name="路径 37431" d="M4.26,110.834A8.1,8.1,0,0,1-5.827,105.16,8.1,8.1,0,0,1-.153,95.073a8.1,8.1,0,0,1,10.087,5.674C11.194,104.529,8.673,109.573,4.26,110.834Z" transform="translate(6.151 168.766)"/>
              <path id="路径_37432" data-name="路径 37432" d="M123.56,90.734a8.183,8.183,0,1,1,5.674-10.087C130.494,84.429,127.973,89.473,123.56,90.734Z" transform="translate(638.94 62.152)"/>
              <path id="路径_37433" data-name="路径 37433" d="M139.66,196.234a8.183,8.183,0,1,1,5.674-10.087A8.1,8.1,0,0,1,139.66,196.234Z" transform="translate(724.337 621.743)"/>
              <path id="路径_37434" data-name="路径 37434" d="M147.36,74.234a8.183,8.183,0,1,1,5.674-10.087C154.294,67.929,151.773,72.973,147.36,74.234Z" transform="translate(765.18 -25.367)"/>
              <path id="路径_37435" data-name="路径 37435" d="M139.66,196.234a8.183,8.183,0,1,1,5.674-10.087A8.1,8.1,0,0,1,139.66,196.234Z" transform="translate(724.337 621.743)"/>
              <path id="路径_37436" data-name="路径 37436" d="M145.46,104.734a8.183,8.183,0,1,1,5.674-10.087C151.764,99.06,149.242,103.473,145.46,104.734Z" transform="translate(755.102 136.411)"/>
              <path id="路径_37437" data-name="路径 37437" d="M139.66,196.234a8.183,8.183,0,1,1,5.674-10.087A8.1,8.1,0,0,1,139.66,196.234Z" transform="translate(724.337 621.743)"/>
              <path id="路径_37438" data-name="路径 37438" d="M71.76,118.234a8.183,8.183,0,1,1,5.674-10.087C78.694,111.929,76.173,116.973,71.76,118.234Z" transform="translate(364.184 208.017)"/>
              <path id="路径_37439" data-name="路径 37439" d="M139.66,196.234a8.183,8.183,0,1,1,5.674-10.087A8.1,8.1,0,0,1,139.66,196.234Z" transform="translate(724.337 621.743)"/>
              <path id="路径_37440" data-name="路径 37440" d="M71.76,118.234a8.183,8.183,0,1,1,5.674-10.087C78.694,111.929,76.173,116.973,71.76,118.234Z" transform="translate(364.184 208.017)"/>
              <path id="路径_37441" data-name="路径 37441" d="M139.66,196.234a8.183,8.183,0,1,1,5.674-10.087A8.1,8.1,0,0,1,139.66,196.234Z" transform="translate(724.337 621.743)"/>
              <path id="路径_37442" data-name="路径 37442" d="M139.66,196.234a8.183,8.183,0,1,1,5.674-10.087A8.1,8.1,0,0,1,139.66,196.234Z" transform="translate(724.337 621.743)"/>
              <path id="路径_37443" data-name="路径 37443" d="M77.16,210.534a8.183,8.183,0,1,1,5.674-10.087A8.1,8.1,0,0,1,77.16,210.534Z" transform="translate(392.826 697.593)"/>
              <path id="路径_37444" data-name="路径 37444" d="M4.26,110.834A8.1,8.1,0,0,1-5.827,105.16,8.1,8.1,0,0,1-.153,95.073a8.1,8.1,0,0,1,10.087,5.674C11.194,104.529,8.673,109.573,4.26,110.834Z" transform="translate(6.151 168.766)"/>
              <path id="路径_37445" data-name="路径 37445" d="M77.16,210.534a8.183,8.183,0,1,1,5.674-10.087A8.1,8.1,0,0,1,77.16,210.534Z" transform="translate(392.826 697.593)"/>
              <path id="路径_37446" data-name="路径 37446" d="M77.16,210.534a8.183,8.183,0,1,1,5.674-10.087A8.1,8.1,0,0,1,77.16,210.534Z" transform="translate(392.826 697.593)"/>
              <path id="路径_37447" data-name="路径 37447" d="M123.56,90.734a8.183,8.183,0,1,1,5.674-10.087C130.494,84.429,127.973,89.473,123.56,90.734Z" transform="translate(638.94 62.152)"/>
              <path id="路径_37448" data-name="路径 37448" d="M77.16,210.534a8.183,8.183,0,1,1,5.674-10.087A8.1,8.1,0,0,1,77.16,210.534Z" transform="translate(392.826 697.593)"/>
              <path id="路径_37449" data-name="路径 37449" d="M145.46,104.734a8.183,8.183,0,1,1,5.674-10.087C151.764,99.06,149.242,103.473,145.46,104.734Z" transform="translate(755.102 136.411)"/>
              <path id="路径_37450" data-name="路径 37450" d="M77.16,210.534a8.183,8.183,0,1,1,5.674-10.087A8.1,8.1,0,0,1,77.16,210.534Z" transform="translate(392.826 697.593)"/>
              <path id="路径_37451" data-name="路径 37451" d="M71.76,118.234a8.183,8.183,0,1,1,5.674-10.087C78.694,111.929,76.173,116.973,71.76,118.234Z" transform="translate(364.184 208.017)"/>
              <path id="路径_37452" data-name="路径 37452" d="M77.16,210.534a8.183,8.183,0,1,1,5.674-10.087A8.1,8.1,0,0,1,77.16,210.534Z" transform="translate(392.826 697.593)"/>
              <path id="路径_37453" data-name="路径 37453" d="M71.76,118.234a8.183,8.183,0,1,1,5.674-10.087C78.694,111.929,76.173,116.973,71.76,118.234Z" transform="translate(364.184 208.017)"/>
              <path id="路径_37454" data-name="路径 37454" d="M77.16,210.534a8.183,8.183,0,1,1,5.674-10.087A8.1,8.1,0,0,1,77.16,210.534Z" transform="translate(392.826 697.593)"/>
              <path id="路径_37455" data-name="路径 37455" d="M211.16,69.034a8.183,8.183,0,1,1,5.674-10.087A8.1,8.1,0,0,1,211.16,69.034Z" transform="translate(1103.586 -52.949)"/>
              <path id="路径_37456" data-name="路径 37456" d="M123.56,90.734a8.183,8.183,0,1,1,5.674-10.087C130.494,84.429,127.973,89.473,123.56,90.734Z" transform="translate(638.94 62.152)"/>
              <path id="路径_37457" data-name="路径 37457" d="M211.16,69.034a8.183,8.183,0,1,1,5.674-10.087A8.1,8.1,0,0,1,211.16,69.034Z" transform="translate(1103.586 -52.949)"/>
              <path id="路径_37458" data-name="路径 37458" d="M147.36,74.234a8.183,8.183,0,1,1,5.674-10.087C154.294,67.929,151.773,72.973,147.36,74.234Z" transform="translate(765.18 -25.367)"/>
              <path id="路径_37459" data-name="路径 37459" d="M211.16,69.034a8.183,8.183,0,1,1,5.674-10.087A8.1,8.1,0,0,1,211.16,69.034Z" transform="translate(1103.586 -52.949)"/>
              <path id="路径_37460" data-name="路径 37460" d="M145.46,104.734a8.183,8.183,0,1,1,5.674-10.087C151.764,99.06,149.242,103.473,145.46,104.734Z" transform="translate(755.102 136.411)"/>
              <path id="路径_37461" data-name="路径 37461" d="M211.16,69.034a8.183,8.183,0,1,1,5.674-10.087A8.1,8.1,0,0,1,211.16,69.034Z" transform="translate(1103.586 -52.949)"/>
              <path id="路径_37462" data-name="路径 37462" d="M139.66,196.234a8.183,8.183,0,1,1,5.674-10.087A8.1,8.1,0,0,1,139.66,196.234Z" transform="translate(724.337 621.743)"/>
              <path id="路径_37463" data-name="路径 37463" d="M209.76,212.434a8.183,8.183,0,1,1,5.674-10.087A8.1,8.1,0,0,1,209.76,212.434Z" transform="translate(1096.16 707.671)"/>
              <path id="路径_37464" data-name="路径 37464" d="M145.46,104.734a8.183,8.183,0,1,1,5.674-10.087C151.764,99.06,149.242,103.473,145.46,104.734Z" transform="translate(755.102 136.411)"/>
              <path id="路径_37465" data-name="路径 37465" d="M209.76,212.434a8.183,8.183,0,1,1,5.674-10.087A8.1,8.1,0,0,1,209.76,212.434Z" transform="translate(1096.16 707.671)"/>
              <path id="路径_37466" data-name="路径 37466" d="M209.76,212.434a8.183,8.183,0,1,1,5.674-10.087A8.1,8.1,0,0,1,209.76,212.434Z" transform="translate(1096.16 707.671)"/>
              <path id="路径_37467" data-name="路径 37467" d="M233.36,153.733a8.183,8.183,0,1,1,5.674-10.087A8.1,8.1,0,0,1,233.36,153.733Z" transform="translate(1221.339 396.315)"/>
              <path id="路径_37468" data-name="路径 37468" d="M211.16,69.034a8.183,8.183,0,1,1,5.674-10.087A8.1,8.1,0,0,1,211.16,69.034Z" transform="translate(1103.586 -52.949)"/>
              <path id="路径_37469" data-name="路径 37469" d="M233.36,153.733a8.183,8.183,0,1,1,5.674-10.087A8.1,8.1,0,0,1,233.36,153.733Z" transform="translate(1221.339 396.315)"/>
              <path id="路径_37470" data-name="路径 37470" d="M233.36,153.733a8.183,8.183,0,1,1,5.674-10.087A8.1,8.1,0,0,1,233.36,153.733Z" transform="translate(1221.339 396.315)"/>
              <path id="路径_37471" data-name="路径 37471" d="M139.66,196.234a8.183,8.183,0,1,1,5.674-10.087A8.1,8.1,0,0,1,139.66,196.234Z" transform="translate(724.337 621.743)"/>
              <path id="路径_37472" data-name="路径 37472" d="M233.36,153.733a8.183,8.183,0,1,1,5.674-10.087A8.1,8.1,0,0,1,233.36,153.733Z" transform="translate(1221.339 396.315)"/>
              <path id="路径_37473" data-name="路径 37473" d="M123.56,90.734a8.183,8.183,0,1,1,5.674-10.087C130.494,84.429,127.973,89.473,123.56,90.734Z" transform="translate(638.94 62.152)"/>
              <path id="路径_37474" data-name="路径 37474" d="M233.36,153.733a8.183,8.183,0,1,1,5.674-10.087A8.1,8.1,0,0,1,233.36,153.733Z" transform="translate(1221.339 396.315)"/>
              <path id="路径_37475" data-name="路径 37475" d="M147.36,74.234a8.183,8.183,0,1,1,5.674-10.087C154.294,67.929,151.773,72.973,147.36,74.234Z" transform="translate(765.18 -25.367)"/>
              <path id="路径_37476" data-name="路径 37476" d="M233.36,153.733a8.183,8.183,0,1,1,5.674-10.087A8.1,8.1,0,0,1,233.36,153.733Z" transform="translate(1221.339 396.315)"/>
              <path id="路径_37477" data-name="路径 37477" d="M145.46,104.734a8.183,8.183,0,1,1,5.674-10.087C151.764,99.06,149.242,103.473,145.46,104.734Z" transform="translate(755.102 136.411)"/>
              <path id="路径_37478" data-name="路径 37478" d="M233.36,153.733a8.183,8.183,0,1,1,5.674-10.087A8.1,8.1,0,0,1,233.36,153.733Z" transform="translate(1221.339 396.315)"/>
              <path id="路径_37479" data-name="路径 37479" d="M233.36,153.733a8.183,8.183,0,1,1,5.674-10.087A8.1,8.1,0,0,1,233.36,153.733Z" transform="translate(1221.339 396.315)"/>
              <path id="路径_37480" data-name="路径 37480" d="M257.46,217.434a8.183,8.183,0,1,1,5.674-10.087A8.1,8.1,0,0,1,257.46,217.434Z" transform="translate(1349.17 734.192)"/>
              <path id="路径_37481" data-name="路径 37481" d="M233.36,153.733a8.183,8.183,0,1,1,5.674-10.087A8.1,8.1,0,0,1,233.36,153.733Z" transform="translate(1221.339 396.315)"/>
              <path id="路径_37482" data-name="路径 37482" d="M257.46,217.434a8.183,8.183,0,1,1,5.674-10.087A8.1,8.1,0,0,1,257.46,217.434Z" transform="translate(1349.17 734.192)"/>
              <path id="路径_37483" data-name="路径 37483" d="M209.76,212.434a8.183,8.183,0,1,1,5.674-10.087A8.1,8.1,0,0,1,209.76,212.434Z" transform="translate(1096.16 707.671)"/>
              <path id="路径_37484" data-name="路径 37484" d="M257.46,217.434a8.183,8.183,0,1,1,5.674-10.087A8.1,8.1,0,0,1,257.46,217.434Z" transform="translate(1349.17 734.192)"/>
              <path id="路径_37485" data-name="路径 37485" d="M257.46,217.434a8.183,8.183,0,1,1,5.674-10.087A8.1,8.1,0,0,1,257.46,217.434Z" transform="translate(1349.17 734.192)"/>
              <path id="路径_37486" data-name="路径 37486" d="M139.66,196.234a8.183,8.183,0,1,1,5.674-10.087A8.1,8.1,0,0,1,139.66,196.234Z" transform="translate(724.337 621.743)"/>
            </g>
          </g>
        </g>
      </g>
      <path id="路径_39977" data-name="路径 39977" d="M5-9.6a4.159,4.159,0,0,0-3.1,1.2A5.137,5.137,0,0,0,.54-4.656c0,3.048,1.752,5,4.476,5S9.5-1.62,9.5-4.656A5.175,5.175,0,0,0,8.16-8.4,4.205,4.205,0,0,0,5-9.6ZM5.04-1.08a2.591,2.591,0,0,1-1.86-.732,3.965,3.965,0,0,1-.972-2.832c0-2.172,1.092-3.54,2.82-3.54a2.583,2.583,0,0,1,1.848.732,3.876,3.876,0,0,1,.948,2.8C7.824-2.448,6.756-1.08,5.04-1.08ZM36.576-9.408a9.767,9.767,0,0,1,.1,1.644V-3.54a2.191,2.191,0,0,1-2.436,2.484,2.2,2.2,0,0,1-2.46-2.472V-7.764a9.41,9.41,0,0,1,.1-1.644H30.084a9.858,9.858,0,0,1,.1,1.644v4.236a3.865,3.865,0,0,0,.9,2.76A4.134,4.134,0,0,0,34.176.36c2.616,0,4.092-1.392,4.092-3.876v-4.26a9.7,9.7,0,0,1,.1-1.632ZM67.332.144c-.168-.324-.468-.972-.564-1.188C65.58-3.852,65.352-4.188,64.6-4.428a2.537,2.537,0,0,0,1.332-.7,2.467,2.467,0,0,0,.612-1.788c0-1.584-1.044-2.5-2.868-2.5h-2.88c-.66,0-1.032-.012-1.536-.036a10.677,10.677,0,0,1,.1,1.56v6.468a9.391,9.391,0,0,1-.1,1.56h1.788a9.364,9.364,0,0,1-.1-1.572V-3.876h1.788c.924,0,1.344.444,1.992,2.1a9.714,9.714,0,0,1,.624,1.92ZM60.948-5.244v-2.8h2.46c.984,0,1.476.444,1.476,1.308A1.424,1.424,0,0,1,64.5-5.676a1.617,1.617,0,0,1-1.14.432ZM116.7.144a9.771,9.771,0,0,1,.528-1.6l1.8-4.224a14.644,14.644,0,0,0,.552-1.752c-.012.18-.048.792-.1,1.836v3.984a11.156,11.156,0,0,1-.1,1.752h1.68a10.4,10.4,0,0,1-.1-1.752V-7.632a12.427,12.427,0,0,1,.1-1.776H118.86a6.65,6.65,0,0,1-.432,1.428L116-2.028,113.568-7.98a8.305,8.305,0,0,1-.444-1.428h-2.2a11.9,11.9,0,0,1,.1,1.776v6.024a11.254,11.254,0,0,1-.1,1.752h1.68a10.964,10.964,0,0,1-.1-1.752V-5.544c0-.264-.048-1.248-.1-1.884a13.354,13.354,0,0,0,.612,1.836l1.728,4.116a8.169,8.169,0,0,1,.528,1.62Zm25.272-9.552a8.966,8.966,0,0,1,.1,1.548V-1.4a9.055,9.055,0,0,1-.1,1.548H143.8a9.055,9.055,0,0,1-.1-1.548V-7.86a8.966,8.966,0,0,1,.1-1.548Zm22.4,6.756a4.1,4.1,0,0,0,.228,1A2.825,2.825,0,0,0,165.66-.288a4.825,4.825,0,0,0,2.52.624,3.977,3.977,0,0,0,2.868-.912,2.792,2.792,0,0,0,.756-2.04,2.368,2.368,0,0,0-1-2.064,5.283,5.283,0,0,0-1.956-.732,10.216,10.216,0,0,1-1.692-.432,1.141,1.141,0,0,1-.816-1.092c0-.78.708-1.308,1.752-1.308a1.9,1.9,0,0,1,1.5.576,1.55,1.55,0,0,1,.36.852l1.716-.2a3.235,3.235,0,0,0-.588-1.392A3.537,3.537,0,0,0,168.1-9.624c-2.064,0-3.408,1.08-3.408,2.748a2.362,2.362,0,0,0,.924,1.944,4.242,4.242,0,0,0,1.812.732,7.566,7.566,0,0,1,2.088.588,1.218,1.218,0,0,1,.6,1.1c0,.9-.72,1.44-1.92,1.44a2.13,2.13,0,0,1-1.752-.708,1.72,1.72,0,0,1-.336-1.056Zm27.78,0a4.1,4.1,0,0,0,.228,1A2.825,2.825,0,0,0,193.44-.288a4.825,4.825,0,0,0,2.52.624,3.977,3.977,0,0,0,2.868-.912,2.792,2.792,0,0,0,.756-2.04,2.368,2.368,0,0,0-1-2.064,5.283,5.283,0,0,0-1.956-.732,10.216,10.216,0,0,1-1.692-.432,1.141,1.141,0,0,1-.816-1.092c0-.78.708-1.308,1.752-1.308a1.9,1.9,0,0,1,1.5.576,1.55,1.55,0,0,1,.36.852l1.716-.2a3.235,3.235,0,0,0-.588-1.392,3.537,3.537,0,0,0-2.988-1.212c-2.064,0-3.408,1.08-3.408,2.748a2.362,2.362,0,0,0,.924,1.944A4.242,4.242,0,0,0,195.2-4.2a7.566,7.566,0,0,1,2.088.588,1.218,1.218,0,0,1,.6,1.1c0,.9-.72,1.44-1.92,1.44a2.13,2.13,0,0,1-1.752-.708,1.72,1.72,0,0,1-.336-1.056Zm28.092-6.756a8.966,8.966,0,0,1,.1,1.548V-1.4a9.055,9.055,0,0,1-.1,1.548h1.824a9.055,9.055,0,0,1-.1-1.548V-7.86a8.966,8.966,0,0,1,.1-1.548ZM247.116-9.6a4.159,4.159,0,0,0-3.1,1.2,5.137,5.137,0,0,0-1.368,3.744c0,3.048,1.752,5,4.476,5s4.488-1.968,4.488-5A5.175,5.175,0,0,0,250.272-8.4,4.205,4.205,0,0,0,247.116-9.6Zm.036,8.52a2.591,2.591,0,0,1-1.86-.732,3.965,3.965,0,0,1-.972-2.832c0-2.172,1.092-3.54,2.82-3.54a2.583,2.583,0,0,1,1.848.732,3.876,3.876,0,0,1,.948,2.8C249.936-2.448,248.868-1.08,247.152-1.08ZM280.368.144a9.055,9.055,0,0,1-.1-1.548V-7.752a10.493,10.493,0,0,1,.1-1.656h-1.752a10.489,10.489,0,0,1,.1,1.656V-3.72c0,.5.036,1.224.084,1.692-.264-.48-.648-1.1-.936-1.536l-3.036-4.572a6.582,6.582,0,0,1-.732-1.272H272.22a9.993,9.993,0,0,1,.1,1.548v6.192a12.983,12.983,0,0,1-.1,1.812h1.752a13.282,13.282,0,0,1-.1-1.8V-5.592c0-.276-.024-.816-.036-1.044-.036-.444-.036-.444-.048-.612.288.564.588,1.08.816,1.44l3.1,4.668a11.958,11.958,0,0,1,.768,1.284Z" transform="translate(10671 -1061)"/>
      <path id="路径_40303" data-name="路径 40303" d="M38.162-9.521V-44.408h6.246V-9.521ZM18.053-16.529a12.935,12.935,0,0,1-9.42-3.644A12.444,12.444,0,0,1,4.9-29.479a12.506,12.506,0,0,1,3.732-9.356,12.935,12.935,0,0,1,9.42-3.644,12.96,12.96,0,0,1,9.42,3.631,12.5,12.5,0,0,1,3.732,9.369,12.433,12.433,0,0,1-3.732,9.318A12.96,12.96,0,0,1,18.053-16.529Zm0-20.592a6.48,6.48,0,0,0-4.989,2.107,7.845,7.845,0,0,0-1.942,5.535,7.762,7.762,0,0,0,1.942,5.5,6.5,6.5,0,0,0,4.989,2.095,6.439,6.439,0,0,0,5-2.095,7.856,7.856,0,0,0,1.9-5.5,7.908,7.908,0,0,0-1.93-5.5A6.387,6.387,0,0,0,18.053-37.121ZM12.8,2.869V-13.3h6.4V-2.488H45.348V2.869ZM72.709-20.49V-34.328H97.769v-3.225H72.709V-42.91h31.383v13.584H79.031v3.479h26.1v5.357ZM76.593,4.57V-11.451H65.675v-5.357h45.449v5.357H100.257V4.57h-6.4V-11.451H82.992V4.57Zm87.207,0V-44.408h6.3V4.57Zm-20.084-21.3a14.134,14.134,0,0,1-9.661-3.415,11.245,11.245,0,0,1-3.9-8.874,11.227,11.227,0,0,1,3.986-8.937A14.582,14.582,0,0,1,144-41.387a13.8,13.8,0,0,1,9.61,3.428,11.478,11.478,0,0,1,3.8,8.938,11.207,11.207,0,0,1-3.936,8.861A14.317,14.317,0,0,1,143.716-16.732Zm.076-19.3a6.952,6.952,0,0,0-5.18,1.98,6.859,6.859,0,0,0-1.955,5.027,6.662,6.662,0,0,0,2.006,4.964,7.018,7.018,0,0,0,5.129,1.968,6.906,6.906,0,0,0,5.142-1.993,6.752,6.752,0,0,0,1.968-4.938,6.822,6.822,0,0,0-1.993-4.989A6.88,6.88,0,0,0,143.792-36.029Zm-16.4,32.5-.66-5.357q23.258,0,34.836-.736l.355,5.256Q145.8-3.529,127.39-3.529ZM257.648-27.041v11.223h-6.373v-28.59h6.373V-32.4h7.439v5.357Zm-13.559,9.09q-7.617-3.631-11.172-9.293a23.555,23.555,0,0,1-4.8,5.992A29.636,29.636,0,0,1,222-16.479l-4.646-4.57a22.477,22.477,0,0,0,8.836-6.729,14.419,14.419,0,0,0,3.4-8.988v-6.094h6.373v5.891a12.618,12.618,0,0,0,3.491,8.582,17.785,17.785,0,0,0,8.7,5.357Zm-1.98,22.318q-7.795,0-12.061-2.679t-4.266-7.1q0-4.393,4.316-7.033t12.01-2.641q7.719,0,12.022,2.628t4.3,7.046q0,4.443-4.278,7.109T242.109,4.367Zm0-14.143q-9.725,0-9.725,4.367,0,4.469,9.725,4.469,9.775,0,9.775-4.469Q251.885-9.775,242.109-9.775Zm42.214-23.664v-5.154h15.818v-5.764h6.3v5.764h15.869v5.154ZM280.591-1.5V-6.754h19.551v-5.307q-6.322-.584-9.737-3.174a7.816,7.816,0,0,1-3.415-6.449q0-4.316,4.329-7.021t12-2.7q7.668,0,11.972,2.7t4.3,7.021a7.864,7.864,0,0,1-3.428,6.437q-3.428,2.628-9.725,3.187v5.307h19.6V-1.5ZM303.316-26.3q-9.826,0-9.826,4.621,0,4.723,9.826,4.723,4.875,0,7.3-1.257a3.833,3.833,0,0,0,2.425-3.466q0-2.184-2.476-3.4A16.938,16.938,0,0,0,303.316-26.3Zm92.6,5.764a12.725,12.725,0,0,1-10.436,4.723,13.217,13.217,0,0,1-9.547-3.694,12.872,12.872,0,0,1-3.834-9.712,12.9,12.9,0,0,1,3.821-9.712,13.206,13.206,0,0,1,9.56-3.694A12.791,12.791,0,0,1,396.2-37.6h10.08v-6.8h6.3v35.42h-6.3V-20.541ZM385.485-37.324a6.592,6.592,0,0,0-5.154,2.146,8.586,8.586,0,0,0-1.93,5.954,8.55,8.55,0,0,0,1.942,5.954,6.6,6.6,0,0,0,5.142,2.146,6.563,6.563,0,0,0,5.1-2.158,8.524,8.524,0,0,0,1.955-5.941,8.559,8.559,0,0,0-1.942-5.941A6.553,6.553,0,0,0,385.485-37.324Zm12.9,11.73h7.9V-32.5h-7.795a17.2,17.2,0,0,1,.3,3.275A15.807,15.807,0,0,1,398.383-25.594ZM381.016,2.869V-13.3h6.373V-2.488h26.178V2.869Zm77-26.482v-4.926h10.766v-4.469h-9.42v-4.951h9.42v-6.449h6.246v24.6h-6.246v-3.809Zm-20.287,4.469-4.088-5.078a30.735,30.735,0,0,0,10.41-4.418,21.026,21.026,0,0,0,8.15-9.014H436.637v-5.357h23.512Q457.863-26.432,437.728-19.145ZM443.34,3.91V-9.471h25.441v-3.174H443.34V-17.9h31.688V-4.672H449.637v3.326h26.635V3.91Zm74.892-31q-7.795,0-12.162-2.349T501.7-35.725q0-3.986,4.393-6.31t12.137-2.323q7.795,0,12.162,2.3t4.367,6.335q0,3.961-4.342,6.3T518.232-27.092Zm0-12.416a19.975,19.975,0,0,0-7.528,1.079q-2.5,1.079-2.5,2.7,0,1.7,2.539,2.755a20.462,20.462,0,0,0,7.49,1.054,20.462,20.462,0,0,0,7.49-1.054q2.539-1.054,2.539-2.755,0-1.625-2.5-2.7A19.975,19.975,0,0,0,518.232-39.508ZM495.507-19.4v-5h45.449v5ZM502.16,3.783V-8.43h25.746V-11.4H502.16v-4.977h32.094V-4.012H508.507v2.818h26.939V3.783ZM39.584,94.57V45.592h6.322V94.57ZM25.365,49.705A64.879,64.879,0,0,1,24.172,57.4h5.307V46.582h6.3V93.123h-6.3V75.807H20.008V70.5h9.471V62.705h-6.8A42.685,42.685,0,0,1,16.555,74.41a44.291,44.291,0,0,1-8.328,9.242L2.869,79.641q4.52-2.615,9.344-9.395a37.353,37.353,0,0,0,6.348-15.234h-13V49.705Zm79.767,11.07v8.379H98.81V45.592h6.322v9.826h7.439v5.357ZM67.859,67.529V46.836h6.348V52.5H84.871V46.836h6.3V67.529Zm17.012-9.674H74.207v4.367H84.871ZM74.41,93.479V79.768h24.4V76.594H74.41V71.236h30.723V84.795H80.757v3.326H106.4v5.357Zm93.123-21.252V94.57h-6.373V45.592h6.373V66.869H175.2v5.357ZM128.71,57.7V52.346h11.73V45.592h6.449v6.754h11.756V57.7ZM143.564,83.2a13.31,13.31,0,0,1-9.242-3.237,10.557,10.557,0,0,1-3.605-8.214,10.719,10.719,0,0,1,3.555-8.341,15.173,15.173,0,0,1,18.688.013,10.716,10.716,0,0,1,3.605,8.379,10.469,10.469,0,0,1-3.605,8.2A13.627,13.627,0,0,1,143.564,83.2Zm.051-17.646a6.645,6.645,0,0,0-4.773,1.688,5.925,5.925,0,0,0-1.777,4.507,5.853,5.853,0,0,0,1.752,4.393,7.593,7.593,0,0,0,9.61-.025,5.81,5.81,0,0,0,1.79-4.367,5.922,5.922,0,0,0-1.79-4.481A6.667,6.667,0,0,0,143.614,65.549ZM197.382,64V48.029h6.4V58.592h25.9V64Zm-6.906,10.512V69.154h45.449v5.357Zm6.652,17.977V77.99h6.4v9.141h26.355v5.357ZM316.9,94.57V45.592h6.322V94.57ZM307,93.123V66.336h-7.059V60.979H307v-14.4h6.3V93.123Zm-6.119-10.258a29.537,29.537,0,0,1-7.973-9.877,26.067,26.067,0,0,1-3.859,6.068,28.567,28.567,0,0,1-5.078,5.078l-4.57-4.113q10.461-6.551,10.461-19.754V48.918h6.068v11.5q0,11.832,9.42,18.027ZM379.3,94.57V45.592h6.322V94.57ZM365.081,49.705a64.879,64.879,0,0,1-1.193,7.693h5.307V46.582h6.3V93.123h-6.3V75.807h-9.471V70.5h9.471V62.705h-6.8a42.685,42.685,0,0,1-6.119,11.705,44.291,44.291,0,0,1-8.328,9.242l-5.357-4.012q4.52-2.615,9.344-9.395a37.352,37.352,0,0,0,6.348-15.234h-13V49.705Zm47.166,15.133v-11.6h25.441V50.492H412.247V45.9h31.789V57.449H418.595v2.818h26.533v4.57ZM405.391,72.1v-4.57h45.449V72.1Zm6.652,21.963V82.357h25.8V79.488h-25.8v-4.57h32.2v11.6H418.391v2.971h26.838v4.57Z" transform="translate(10672 -962)"/>
      <path id="路径_40311" data-name="路径 40311" d="M521.964,72.582a25.2,25.2,0,0,1-6.627-3.783,19.575,19.575,0,0,1-4.9-4.951q-3.529,5.916-11.121,9.928l-4.393-4.316a21.671,21.671,0,0,0,8.544-5.561,12.676,12.676,0,0,0,3.593-7.846H496.295V50.746h10.816V45.287h6.4v5.459h10.766v5.307H513.509q.254,3.986,3.986,7.4a17.136,17.136,0,0,0,8.227,4.329Zm13-9.623V74.182h-6.373V45.592h6.373V57.6H542.4v5.357ZM519.425,94.367q-7.795,0-12.061-2.679t-4.266-7.1q0-4.393,4.316-7.033t12.01-2.641q7.719,0,12.022,2.628t4.3,7.046q0,4.443-4.278,7.109T519.425,94.367Zm0-14.143q-9.725,0-9.725,4.367,0,4.469,9.725,4.469,9.775,0,9.775-4.469Q529.2,80.225,519.425,80.225Zm78.523-6.551a35.471,35.471,0,0,1-10.156-4.85q-5.205-3.479-7.211-6.6a22.1,22.1,0,0,1-6.729,6.475,40.18,40.18,0,0,1-10.486,4.977l-4.113-4.8a25.987,25.987,0,0,0,12.479-5.269q5.218-4.151,5.675-8.442h-14.6V49.908h35.6v5.256H583.857q.33,4.266,5.256,8.15a30.635,30.635,0,0,0,12.7,5.561ZM557.907,87.816V82.561h19.5V71.643h6.4V82.561h19.551v5.256Z" transform="translate(10672 -962)" fill="#0080f4"/>
    </g>
  </g>
</svg>
