<svg xmlns="http://www.w3.org/2000/svg" xmlns:xlink="http://www.w3.org/1999/xlink" width="1820" height="880" viewBox="0 0 1820 880">
  <defs>
    <clipPath id="clip-path">
      <rect id="矩形_2253" data-name="矩形 2253" width="1820" height="880" fill="#fff"/>
    </clipPath>
  </defs>
  <g id="banner_jp" transform="translate(-50 -88)">
    <g id="组_21795" data-name="组 21795" transform="translate(0 -72)">
      <g id="NAV_bg" transform="translate(50 160)" clip-path="url(#clip-path)">
        <g id="组_21480" data-name="组 21480" transform="translate(-50 27)" opacity="0.05">
          <g id="组_21478" data-name="组 21478" transform="translate(0 7.733)">
            <g id="组_21420" data-name="组 21420" transform="translate(496.006 224.522)">
              <g id="组_21418" data-name="组 21418" transform="translate(0 0)">
                <rect id="矩形_2227" data-name="矩形 2227" width="472.183" height="1.891" transform="translate(0 84.71) rotate(-10.335)"/>
              </g>
              <g id="组_21419" data-name="组 21419" transform="translate(0 0)">
                <rect id="矩形_2228" data-name="矩形 2228" width="472.183" height="1.891" transform="translate(0 84.71) rotate(-10.335)"/>
              </g>
            </g>
            <g id="组_21424" data-name="组 21424" transform="translate(496.139 32.308)">
              <g id="组_21421" data-name="组 21421" transform="translate(464.098 0.366)">
                <rect id="矩形_2229" data-name="矩形 2229" width="192.908" height="1.261" transform="matrix(0.063, -0.998, 0.998, 0.063, 0, 192.522)"/>
              </g>
              <g id="组_21422" data-name="组 21422" transform="translate(0)">
                <path id="路径_37381" data-name="路径 37381" d="M63.23,337.945l-.63-1.261L538.566,59.3l1.261,1.261Z" transform="translate(-62.6 -59.3)"/>
              </g>
              <g id="组_21423" data-name="组 21423" transform="translate(0)">
                <path id="路径_37382" data-name="路径 37382" d="M63.23,337.945l-.63-1.261L538.566,59.3l1.261,1.261Z" transform="translate(-62.6 -59.3)"/>
              </g>
            </g>
            <g id="组_21429" data-name="组 21429" transform="translate(495.837 32.165)">
              <g id="组_21425" data-name="组 21425" transform="translate(326.765 0)">
                <rect id="矩形_2230" data-name="矩形 2230" width="182.191" height="1.261" transform="translate(0 104.013) rotate(-34.814)"/>
              </g>
              <g id="组_21426" data-name="组 21426" transform="translate(327.17 104.435)">
                <rect id="矩形_2231" data-name="矩形 2231" width="1.261" height="163.278" transform="matrix(0.54, -0.841, 0.841, 0.54, 0, 1.061)"/>
              </g>
              <g id="组_21427" data-name="组 21427" transform="translate(0 103.907)">
                <rect id="矩形_2232" data-name="矩形 2232" width="370.055" height="1.261" transform="translate(0 173.556) rotate(-27.969)"/>
              </g>
              <g id="组_21428" data-name="组 21428" transform="translate(0 103.907)">
                <rect id="矩形_2233" data-name="矩形 2233" width="370.055" height="1.261" transform="translate(0 173.556) rotate(-27.969)"/>
              </g>
            </g>
            <g id="组_21432" data-name="组 21432" transform="translate(0 309.692)">
              <g id="组_21430" data-name="组 21430">
                <path id="路径_37383" data-name="路径 37383" d="M-16.1,576.113,480.669,104.561l-.63-1.261L-16.1,574.222Z" transform="translate(16.1 -103.3)"/>
              </g>
              <g id="组_21431" data-name="组 21431">
                <path id="路径_37384" data-name="路径 37384" d="M-16.1,576.113,480.669,104.561l-.63-1.261L-16.1,574.222Z" transform="translate(16.1 -103.3)"/>
              </g>
            </g>
            <g id="组_21439" data-name="组 21439" transform="translate(0 136.327)">
              <g id="组_21433" data-name="组 21433" transform="translate(0 127.344)">
                <path id="路径_37385" data-name="路径 37385" d="M-16.1,493.163,55.768,96H53.876L-16.1,484.337Z" transform="translate(16.1 -96)"/>
              </g>
              <g id="组_21434" data-name="组 21434" transform="translate(0 115.366)">
                <path id="路径_37386" data-name="路径 37386" d="M-16.1,94.1v1.261l70.607,11.347.63-1.261Z" transform="translate(16.1 -94.1)"/>
              </g>
              <g id="组_21435" data-name="组 21435" transform="translate(70.607)">
                <path id="路径_37387" data-name="路径 37387" d="M-4.27,203.775l-.63-1.261L747.819,75.8v1.261Z" transform="translate(4.9 -75.8)"/>
              </g>
              <g id="组_21436" data-name="组 21436" transform="translate(0 126.714)">
                <path id="路径_37388" data-name="路径 37388" d="M-16.1,143.181,55.137,97.161l-.63-1.261L-16.1,141.29Z" transform="translate(16.1 -95.9)"/>
              </g>
              <g id="组_21437" data-name="组 21437" transform="translate(71.065 126.796)">
                <rect id="矩形_2234" data-name="矩形 2234" width="1.261" height="428.054" transform="translate(0 1.253) rotate(-83.754)"/>
              </g>
              <g id="组_21438" data-name="组 21438" transform="translate(71.065 126.796)">
                <rect id="矩形_2235" data-name="矩形 2235" width="1.261" height="428.054" transform="translate(0 1.253) rotate(-83.754)"/>
              </g>
            </g>
            <g id="组_21445" data-name="组 21445" transform="translate(495.939 33.135)">
              <g id="组_21440" data-name="组 21440" transform="translate(326.126 103.822)">
                <path id="路径_37389" data-name="路径 37389" d="M215.8,741.621,114.3,75.9h1.891L217.058,741.621Z" transform="translate(-114.3 -75.9)"/>
              </g>
              <g id="组_21441" data-name="组 21441" transform="translate(427.475 0)">
                <rect id="矩形_2236" data-name="矩形 2236" width="771.001" height="1.261" transform="translate(0 769.459) rotate(-86.406)"/>
              </g>
              <g id="组_21442" data-name="组 21442" transform="translate(427.648 192.686)">
                <rect id="矩形_2237" data-name="矩形 2237" width="578.093" height="1.261" transform="translate(0 576.937) rotate(-86.392)"/>
              </g>
              <g id="组_21443" data-name="组 21443" transform="translate(0 276.653)">
                <rect id="矩形_2238" data-name="矩形 2238" width="1.261" height="652.483" transform="matrix(0.755, -0.656, 0.656, 0.755, 0, 0.827)"/>
              </g>
              <g id="组_21444" data-name="组 21444" transform="translate(0 276.653)">
                <rect id="矩形_2239" data-name="矩形 2239" width="1.261" height="652.483" transform="matrix(0.755, -0.656, 0.656, 0.755, 0, 0.827)"/>
              </g>
            </g>
            <g id="组_21453" data-name="组 21453" transform="translate(0 136.728)">
              <g id="组_21446" data-name="组 21446" transform="translate(529.871 665.909)">
                <rect id="矩形_2240" data-name="矩形 2240" width="404.098" height="1.891" transform="matrix(0.976, -0.219, 0.219, 0.976, 0, 88.336)"/>
              </g>
              <g id="组_21447" data-name="组 21447" transform="translate(69.976 126.313)">
                <path id="路径_37390" data-name="路径 37390" d="M454.575,725.688-5,97.161-3.739,95.9,455.836,725.057Z" transform="translate(5 -95.9)"/>
              </g>
              <g id="组_21448" data-name="组 21448" transform="translate(0 674.146)">
                <path id="路径_37391" data-name="路径 37391" d="M-16.1,182.8v1.261l530.182,81.324v-1.891Z" transform="translate(16.1 -182.8)"/>
              </g>
              <g id="组_21449" data-name="组 21449" transform="translate(529.561)">
                <rect id="矩形_2241" data-name="矩形 2241" width="810.087" height="1.891" transform="translate(0 755.406) rotate(-68.826)"/>
              </g>
              <g id="组_21450" data-name="组 21450" transform="translate(529.551 88.488)">
                <path id="路径_37392" data-name="路径 37392" d="M69.161,757.513l-1.261-.63L498.476,89.9l1.261.63Z" transform="translate(-67.9 -89.9)"/>
              </g>
              <g id="组_21451" data-name="组 21451" transform="translate(495.627 173.374)">
                <rect id="矩形_2242" data-name="矩形 2242" width="1.891" height="583.137" transform="matrix(0.998, -0.058, 0.058, 0.998, 0, 0.11)"/>
              </g>
              <g id="组_21452" data-name="组 21452" transform="translate(495.627 173.374)">
                <rect id="矩形_2243" data-name="矩形 2243" width="1.891" height="583.137" transform="matrix(0.998, -0.058, 0.058, 0.998, 0, 0.11)"/>
              </g>
            </g>
            <g id="组_21458" data-name="组 21458" transform="translate(822.695 0)">
              <g id="组_21454" data-name="组 21454" transform="translate(552.246 0.157)">
                <path id="路径_37393" data-name="路径 37393" d="M793.962,371.3,202.63,54.2,202,55.461l591.962,317.1Z" transform="translate(-202 -54.2)"/>
              </g>
              <g id="组_21455" data-name="组 21455" transform="translate(0 0.157)">
                <path id="路径_37394" data-name="路径 37394" d="M115.03,191.631l-.63-1.261L666.646,54.2l.63,1.261Z" transform="translate(-114.4 -54.2)"/>
              </g>
              <g id="组_21456" data-name="组 21456" transform="translate(150.039 0.157)">
                <path id="路径_37395" data-name="路径 37395" d="M138.2,87.612V86.351L540.407,54.2l.63,1.261Z" transform="translate(-138.2 -54.2)"/>
              </g>
              <g id="组_21457" data-name="组 21457" transform="translate(137.898)">
                <rect id="矩形_2244" data-name="矩形 2244" width="471.553" height="1.261" transform="matrix(0.879, -0.477, 0.477, 0.879, 0, 224.789)"/>
              </g>
            </g>
            <g id="组_21461" data-name="组 21461" transform="translate(924.193 225.193)">
              <g id="组_21459" data-name="组 21459" transform="translate(0 576.855)">
                <path id="路径_37396" data-name="路径 37396" d="M572.423,284.789,130.5,182.661V181.4L572.423,282.9Z" transform="translate(-130.5 -181.4)"/>
              </g>
              <g id="组_21460" data-name="组 21460" transform="translate(35.844 0)">
                <rect id="矩形_2245" data-name="矩形 2245" width="1.891" height="791.175" transform="translate(0 0.97) rotate(-30.843)"/>
              </g>
            </g>
            <g id="组_21469" data-name="组 21469" transform="translate(822.695 0.025)">
              <g id="组_21462" data-name="组 21462" transform="translate(542.664 534.601)">
                <rect id="矩形_2246" data-name="矩形 2246" width="398.424" height="1.891" transform="matrix(0.374, -0.927, 0.927, 0.374, 0, 369.459)"/>
              </g>
              <g id="组_21463" data-name="组 21463" transform="translate(551.651 0)">
                <rect id="矩形_2247" data-name="矩形 2247" width="1.891" height="552.246" transform="matrix(0.967, -0.253, 0.253, 0.967, 0, 0.479)"/>
              </g>
              <g id="组_21464" data-name="组 21464" transform="translate(692.199 393.513)">
                <path id="路径_37397" data-name="路径 37397" d="M676.21,116.6,224.2,257.183v1.261L676.21,118.491Z" transform="translate(-224.2 -116.6)"/>
              </g>
              <g id="组_21465" data-name="组 21465" transform="translate(101.262 533.511)">
                <rect id="矩形_2248" data-name="矩形 2248" width="648.7" height="1.261" transform="translate(0 268.627) rotate(-24.463)"/>
              </g>
              <g id="组_21466" data-name="组 21466" transform="translate(0 136.302)">
                <path id="路径_37398" data-name="路径 37398" d="M805.968,474.855,114.4,77.061l.63-1.261,692.2,397.794Z" transform="translate(-114.4 -75.8)"/>
              </g>
              <g id="组_21467" data-name="组 21467" transform="translate(149.585 32.046)">
                <rect id="矩形_2249" data-name="矩形 2249" width="1.891" height="738.85" transform="translate(0 1.388) rotate(-47.229)"/>
              </g>
              <g id="组_21468" data-name="组 21468" transform="translate(137.402 224.553)">
                <rect id="矩形_2250" data-name="矩形 2250" width="1.891" height="634.831" transform="translate(0 1.652) rotate(-60.849)"/>
              </g>
            </g>
            <g id="组_21471" data-name="组 21471" transform="translate(1514.894 534.12)">
              <g id="组_21470" data-name="组 21470">
                <path id="路径_37399" data-name="路径 37399" d="M676.21,256.788,224.2,138.9v1.261L676.21,258.679Z" transform="translate(-224.2 -138.9)"/>
              </g>
            </g>
            <g id="组_21477" data-name="组 21477" transform="translate(924.091 497.556)">
              <g id="组_21472" data-name="组 21472" transform="translate(742.734 341.056)">
                <path id="路径_37400" data-name="路径 37400" d="M548.379,187.2,248.3,283.654l.63,1.891,299.448-96.454Z" transform="translate(-248.3 -187.2)"/>
              </g>
              <g id="组_21473" data-name="组 21473" transform="translate(590.173 36.564)">
                <path id="路径_37401" data-name="路径 37401" d="M376.661,541.107,224.1,139.531l1.261-.631L377.922,540.476Z" transform="translate(-224.1 -138.9)"/>
              </g>
              <g id="组_21474" data-name="组 21474" transform="translate(441.745 405.549)">
                <rect id="矩形_2251" data-name="矩形 2251" width="1.891" height="302.601" transform="translate(0 1.881) rotate(-83.996)"/>
              </g>
              <g id="组_21475" data-name="组 21475" transform="translate(742.734)">
                <path id="路径_37402" data-name="路径 37402" d="M548.379,133.1,248.3,571.241l1.261.63L548.379,135.622Z" transform="translate(-248.3 -133.1)"/>
              </g>
              <g id="组_21476" data-name="组 21476" transform="translate(0 304.675)">
                <rect id="矩形_2252" data-name="矩形 2252" width="1.261" height="754.61" transform="translate(0 1.241) rotate(-79.81)"/>
              </g>
            </g>
          </g>
          <g id="组_21479" data-name="组 21479" transform="translate(62.717)">
            <path id="路径_37403" data-name="路径 37403" d="M71.76,118.234a8.183,8.183,0,1,1,5.674-10.087C78.694,111.929,76.173,116.973,71.76,118.234Z" transform="translate(364.184 208.017)"/>
            <path id="路径_37404" data-name="路径 37404" d="M145.46,104.734a8.183,8.183,0,1,1,5.674-10.087C151.764,99.06,149.242,103.473,145.46,104.734Z" transform="translate(755.102 136.411)"/>
            <path id="路径_37405" data-name="路径 37405" d="M71.76,118.234a8.183,8.183,0,1,1,5.674-10.087C78.694,111.929,76.173,116.973,71.76,118.234Z" transform="translate(364.184 208.017)"/>
            <path id="路径_37406" data-name="路径 37406" d="M145.46,104.734a8.183,8.183,0,1,1,5.674-10.087C151.764,99.06,149.242,103.473,145.46,104.734Z" transform="translate(755.102 136.411)"/>
            <path id="路径_37407" data-name="路径 37407" d="M145.46,104.734a8.183,8.183,0,1,1,5.674-10.087C151.764,99.06,149.242,103.473,145.46,104.734Z" transform="translate(755.102 136.411)"/>
            <path id="路径_37408" data-name="路径 37408" d="M147.36,74.234a8.183,8.183,0,1,1,5.674-10.087C154.294,67.929,151.773,72.973,147.36,74.234Z" transform="translate(765.18 -25.367)"/>
            <path id="路径_37409" data-name="路径 37409" d="M71.76,118.234a8.183,8.183,0,1,1,5.674-10.087C78.694,111.929,76.173,116.973,71.76,118.234Z" transform="translate(364.184 208.017)"/>
            <path id="路径_37410" data-name="路径 37410" d="M147.36,74.234a8.183,8.183,0,1,1,5.674-10.087C154.294,67.929,151.773,72.973,147.36,74.234Z" transform="translate(765.18 -25.367)"/>
            <path id="路径_37411" data-name="路径 37411" d="M71.76,118.234a8.183,8.183,0,1,1,5.674-10.087C78.694,111.929,76.173,116.973,71.76,118.234Z" transform="translate(364.184 208.017)"/>
            <path id="路径_37412" data-name="路径 37412" d="M147.36,74.234a8.183,8.183,0,1,1,5.674-10.087C154.294,67.929,151.773,72.973,147.36,74.234Z" transform="translate(765.18 -25.367)"/>
            <path id="路径_37413" data-name="路径 37413" d="M147.36,74.234a8.183,8.183,0,1,1,5.674-10.087C154.294,67.929,151.773,72.973,147.36,74.234Z" transform="translate(765.18 -25.367)"/>
            <path id="路径_37414" data-name="路径 37414" d="M123.56,90.734a8.183,8.183,0,1,1,5.674-10.087C130.494,84.429,127.973,89.473,123.56,90.734Z" transform="translate(638.94 62.152)"/>
            <path id="路径_37415" data-name="路径 37415" d="M145.46,104.734a8.183,8.183,0,1,1,5.674-10.087C151.764,99.06,149.242,103.473,145.46,104.734Z" transform="translate(755.102 136.411)"/>
            <path id="路径_37416" data-name="路径 37416" d="M123.56,90.734a8.183,8.183,0,1,1,5.674-10.087C130.494,84.429,127.973,89.473,123.56,90.734Z" transform="translate(638.94 62.152)"/>
            <path id="路径_37417" data-name="路径 37417" d="M71.76,118.234a8.183,8.183,0,1,1,5.674-10.087C78.694,111.929,76.173,116.973,71.76,118.234Z" transform="translate(364.184 208.017)"/>
            <path id="路径_37418" data-name="路径 37418" d="M123.56,90.734a8.183,8.183,0,1,1,5.674-10.087C130.494,84.429,127.973,89.473,123.56,90.734Z" transform="translate(638.94 62.152)"/>
            <path id="路径_37419" data-name="路径 37419" d="M71.76,118.234a8.183,8.183,0,1,1,5.674-10.087C78.694,111.929,76.173,116.973,71.76,118.234Z" transform="translate(364.184 208.017)"/>
            <path id="路径_37420" data-name="路径 37420" d="M123.56,90.734a8.183,8.183,0,1,1,5.674-10.087C130.494,84.429,127.973,89.473,123.56,90.734Z" transform="translate(638.94 62.152)"/>
            <path id="路径_37421" data-name="路径 37421" d="M71.76,118.234a8.183,8.183,0,1,1,5.674-10.087C78.694,111.929,76.173,116.973,71.76,118.234Z" transform="translate(364.184 208.017)"/>
            <path id="路径_37422" data-name="路径 37422" d="M71.76,118.234a8.183,8.183,0,1,1,5.674-10.087C78.694,111.929,76.173,116.973,71.76,118.234Z" transform="translate(364.184 208.017)"/>
            <path id="路径_37423" data-name="路径 37423" d="M4.26,110.834A8.1,8.1,0,0,1-5.827,105.16,8.1,8.1,0,0,1-.153,95.073a8.1,8.1,0,0,1,10.087,5.674C11.194,104.529,8.673,109.573,4.26,110.834Z" transform="translate(6.151 168.766)"/>
            <path id="路径_37424" data-name="路径 37424" d="M4.26,110.834A8.1,8.1,0,0,1-5.827,105.16,8.1,8.1,0,0,1-.153,95.073a8.1,8.1,0,0,1,10.087,5.674C11.194,104.529,8.673,109.573,4.26,110.834Z" transform="translate(6.151 168.766)"/>
            <path id="路径_37425" data-name="路径 37425" d="M123.56,90.734a8.183,8.183,0,1,1,5.674-10.087C130.494,84.429,127.973,89.473,123.56,90.734Z" transform="translate(638.94 62.152)"/>
            <path id="路径_37426" data-name="路径 37426" d="M4.26,110.834A8.1,8.1,0,0,1-5.827,105.16,8.1,8.1,0,0,1-.153,95.073a8.1,8.1,0,0,1,10.087,5.674C11.194,104.529,8.673,109.573,4.26,110.834Z" transform="translate(6.151 168.766)"/>
            <path id="路径_37427" data-name="路径 37427" d="M4.26,110.834A8.1,8.1,0,0,1-5.827,105.16,8.1,8.1,0,0,1-.153,95.073a8.1,8.1,0,0,1,10.087,5.674C11.194,104.529,8.673,109.573,4.26,110.834Z" transform="translate(6.151 168.766)"/>
            <path id="路径_37428" data-name="路径 37428" d="M71.76,118.234a8.183,8.183,0,1,1,5.674-10.087C78.694,111.929,76.173,116.973,71.76,118.234Z" transform="translate(364.184 208.017)"/>
            <path id="路径_37429" data-name="路径 37429" d="M4.26,110.834A8.1,8.1,0,0,1-5.827,105.16,8.1,8.1,0,0,1-.153,95.073a8.1,8.1,0,0,1,10.087,5.674C11.194,104.529,8.673,109.573,4.26,110.834Z" transform="translate(6.151 168.766)"/>
            <path id="路径_37430" data-name="路径 37430" d="M71.76,118.234a8.183,8.183,0,1,1,5.674-10.087C78.694,111.929,76.173,116.973,71.76,118.234Z" transform="translate(364.184 208.017)"/>
            <path id="路径_37431" data-name="路径 37431" d="M4.26,110.834A8.1,8.1,0,0,1-5.827,105.16,8.1,8.1,0,0,1-.153,95.073a8.1,8.1,0,0,1,10.087,5.674C11.194,104.529,8.673,109.573,4.26,110.834Z" transform="translate(6.151 168.766)"/>
            <path id="路径_37432" data-name="路径 37432" d="M123.56,90.734a8.183,8.183,0,1,1,5.674-10.087C130.494,84.429,127.973,89.473,123.56,90.734Z" transform="translate(638.94 62.152)"/>
            <path id="路径_37433" data-name="路径 37433" d="M139.66,196.234a8.183,8.183,0,1,1,5.674-10.087A8.1,8.1,0,0,1,139.66,196.234Z" transform="translate(724.337 621.743)"/>
            <path id="路径_37434" data-name="路径 37434" d="M147.36,74.234a8.183,8.183,0,1,1,5.674-10.087C154.294,67.929,151.773,72.973,147.36,74.234Z" transform="translate(765.18 -25.367)"/>
            <path id="路径_37435" data-name="路径 37435" d="M139.66,196.234a8.183,8.183,0,1,1,5.674-10.087A8.1,8.1,0,0,1,139.66,196.234Z" transform="translate(724.337 621.743)"/>
            <path id="路径_37436" data-name="路径 37436" d="M145.46,104.734a8.183,8.183,0,1,1,5.674-10.087C151.764,99.06,149.242,103.473,145.46,104.734Z" transform="translate(755.102 136.411)"/>
            <path id="路径_37437" data-name="路径 37437" d="M139.66,196.234a8.183,8.183,0,1,1,5.674-10.087A8.1,8.1,0,0,1,139.66,196.234Z" transform="translate(724.337 621.743)"/>
            <path id="路径_37438" data-name="路径 37438" d="M71.76,118.234a8.183,8.183,0,1,1,5.674-10.087C78.694,111.929,76.173,116.973,71.76,118.234Z" transform="translate(364.184 208.017)"/>
            <path id="路径_37439" data-name="路径 37439" d="M139.66,196.234a8.183,8.183,0,1,1,5.674-10.087A8.1,8.1,0,0,1,139.66,196.234Z" transform="translate(724.337 621.743)"/>
            <path id="路径_37440" data-name="路径 37440" d="M71.76,118.234a8.183,8.183,0,1,1,5.674-10.087C78.694,111.929,76.173,116.973,71.76,118.234Z" transform="translate(364.184 208.017)"/>
            <path id="路径_37441" data-name="路径 37441" d="M139.66,196.234a8.183,8.183,0,1,1,5.674-10.087A8.1,8.1,0,0,1,139.66,196.234Z" transform="translate(724.337 621.743)"/>
            <path id="路径_37442" data-name="路径 37442" d="M139.66,196.234a8.183,8.183,0,1,1,5.674-10.087A8.1,8.1,0,0,1,139.66,196.234Z" transform="translate(724.337 621.743)"/>
            <path id="路径_37443" data-name="路径 37443" d="M77.16,210.534a8.183,8.183,0,1,1,5.674-10.087A8.1,8.1,0,0,1,77.16,210.534Z" transform="translate(392.826 697.593)"/>
            <path id="路径_37444" data-name="路径 37444" d="M4.26,110.834A8.1,8.1,0,0,1-5.827,105.16,8.1,8.1,0,0,1-.153,95.073a8.1,8.1,0,0,1,10.087,5.674C11.194,104.529,8.673,109.573,4.26,110.834Z" transform="translate(6.151 168.766)"/>
            <path id="路径_37445" data-name="路径 37445" d="M77.16,210.534a8.183,8.183,0,1,1,5.674-10.087A8.1,8.1,0,0,1,77.16,210.534Z" transform="translate(392.826 697.593)"/>
            <path id="路径_37446" data-name="路径 37446" d="M77.16,210.534a8.183,8.183,0,1,1,5.674-10.087A8.1,8.1,0,0,1,77.16,210.534Z" transform="translate(392.826 697.593)"/>
            <path id="路径_37447" data-name="路径 37447" d="M123.56,90.734a8.183,8.183,0,1,1,5.674-10.087C130.494,84.429,127.973,89.473,123.56,90.734Z" transform="translate(638.94 62.152)"/>
            <path id="路径_37448" data-name="路径 37448" d="M77.16,210.534a8.183,8.183,0,1,1,5.674-10.087A8.1,8.1,0,0,1,77.16,210.534Z" transform="translate(392.826 697.593)"/>
            <path id="路径_37449" data-name="路径 37449" d="M145.46,104.734a8.183,8.183,0,1,1,5.674-10.087C151.764,99.06,149.242,103.473,145.46,104.734Z" transform="translate(755.102 136.411)"/>
            <path id="路径_37450" data-name="路径 37450" d="M77.16,210.534a8.183,8.183,0,1,1,5.674-10.087A8.1,8.1,0,0,1,77.16,210.534Z" transform="translate(392.826 697.593)"/>
            <path id="路径_37451" data-name="路径 37451" d="M71.76,118.234a8.183,8.183,0,1,1,5.674-10.087C78.694,111.929,76.173,116.973,71.76,118.234Z" transform="translate(364.184 208.017)"/>
            <path id="路径_37452" data-name="路径 37452" d="M77.16,210.534a8.183,8.183,0,1,1,5.674-10.087A8.1,8.1,0,0,1,77.16,210.534Z" transform="translate(392.826 697.593)"/>
            <path id="路径_37453" data-name="路径 37453" d="M71.76,118.234a8.183,8.183,0,1,1,5.674-10.087C78.694,111.929,76.173,116.973,71.76,118.234Z" transform="translate(364.184 208.017)"/>
            <path id="路径_37454" data-name="路径 37454" d="M77.16,210.534a8.183,8.183,0,1,1,5.674-10.087A8.1,8.1,0,0,1,77.16,210.534Z" transform="translate(392.826 697.593)"/>
            <path id="路径_37455" data-name="路径 37455" d="M211.16,69.034a8.183,8.183,0,1,1,5.674-10.087A8.1,8.1,0,0,1,211.16,69.034Z" transform="translate(1103.586 -52.949)"/>
            <path id="路径_37456" data-name="路径 37456" d="M123.56,90.734a8.183,8.183,0,1,1,5.674-10.087C130.494,84.429,127.973,89.473,123.56,90.734Z" transform="translate(638.94 62.152)"/>
            <path id="路径_37457" data-name="路径 37457" d="M211.16,69.034a8.183,8.183,0,1,1,5.674-10.087A8.1,8.1,0,0,1,211.16,69.034Z" transform="translate(1103.586 -52.949)"/>
            <path id="路径_37458" data-name="路径 37458" d="M147.36,74.234a8.183,8.183,0,1,1,5.674-10.087C154.294,67.929,151.773,72.973,147.36,74.234Z" transform="translate(765.18 -25.367)"/>
            <path id="路径_37459" data-name="路径 37459" d="M211.16,69.034a8.183,8.183,0,1,1,5.674-10.087A8.1,8.1,0,0,1,211.16,69.034Z" transform="translate(1103.586 -52.949)"/>
            <path id="路径_37460" data-name="路径 37460" d="M145.46,104.734a8.183,8.183,0,1,1,5.674-10.087C151.764,99.06,149.242,103.473,145.46,104.734Z" transform="translate(755.102 136.411)"/>
            <path id="路径_37461" data-name="路径 37461" d="M211.16,69.034a8.183,8.183,0,1,1,5.674-10.087A8.1,8.1,0,0,1,211.16,69.034Z" transform="translate(1103.586 -52.949)"/>
            <path id="路径_37462" data-name="路径 37462" d="M139.66,196.234a8.183,8.183,0,1,1,5.674-10.087A8.1,8.1,0,0,1,139.66,196.234Z" transform="translate(724.337 621.743)"/>
            <path id="路径_37463" data-name="路径 37463" d="M209.76,212.434a8.183,8.183,0,1,1,5.674-10.087A8.1,8.1,0,0,1,209.76,212.434Z" transform="translate(1096.16 707.671)"/>
            <path id="路径_37464" data-name="路径 37464" d="M145.46,104.734a8.183,8.183,0,1,1,5.674-10.087C151.764,99.06,149.242,103.473,145.46,104.734Z" transform="translate(755.102 136.411)"/>
            <path id="路径_37465" data-name="路径 37465" d="M209.76,212.434a8.183,8.183,0,1,1,5.674-10.087A8.1,8.1,0,0,1,209.76,212.434Z" transform="translate(1096.16 707.671)"/>
            <path id="路径_37466" data-name="路径 37466" d="M209.76,212.434a8.183,8.183,0,1,1,5.674-10.087A8.1,8.1,0,0,1,209.76,212.434Z" transform="translate(1096.16 707.671)"/>
            <path id="路径_37467" data-name="路径 37467" d="M233.36,153.733a8.183,8.183,0,1,1,5.674-10.087A8.1,8.1,0,0,1,233.36,153.733Z" transform="translate(1221.339 396.315)"/>
            <path id="路径_37468" data-name="路径 37468" d="M211.16,69.034a8.183,8.183,0,1,1,5.674-10.087A8.1,8.1,0,0,1,211.16,69.034Z" transform="translate(1103.586 -52.949)"/>
            <path id="路径_37469" data-name="路径 37469" d="M233.36,153.733a8.183,8.183,0,1,1,5.674-10.087A8.1,8.1,0,0,1,233.36,153.733Z" transform="translate(1221.339 396.315)"/>
            <path id="路径_37470" data-name="路径 37470" d="M233.36,153.733a8.183,8.183,0,1,1,5.674-10.087A8.1,8.1,0,0,1,233.36,153.733Z" transform="translate(1221.339 396.315)"/>
            <path id="路径_37471" data-name="路径 37471" d="M139.66,196.234a8.183,8.183,0,1,1,5.674-10.087A8.1,8.1,0,0,1,139.66,196.234Z" transform="translate(724.337 621.743)"/>
            <path id="路径_37472" data-name="路径 37472" d="M233.36,153.733a8.183,8.183,0,1,1,5.674-10.087A8.1,8.1,0,0,1,233.36,153.733Z" transform="translate(1221.339 396.315)"/>
            <path id="路径_37473" data-name="路径 37473" d="M123.56,90.734a8.183,8.183,0,1,1,5.674-10.087C130.494,84.429,127.973,89.473,123.56,90.734Z" transform="translate(638.94 62.152)"/>
            <path id="路径_37474" data-name="路径 37474" d="M233.36,153.733a8.183,8.183,0,1,1,5.674-10.087A8.1,8.1,0,0,1,233.36,153.733Z" transform="translate(1221.339 396.315)"/>
            <path id="路径_37475" data-name="路径 37475" d="M147.36,74.234a8.183,8.183,0,1,1,5.674-10.087C154.294,67.929,151.773,72.973,147.36,74.234Z" transform="translate(765.18 -25.367)"/>
            <path id="路径_37476" data-name="路径 37476" d="M233.36,153.733a8.183,8.183,0,1,1,5.674-10.087A8.1,8.1,0,0,1,233.36,153.733Z" transform="translate(1221.339 396.315)"/>
            <path id="路径_37477" data-name="路径 37477" d="M145.46,104.734a8.183,8.183,0,1,1,5.674-10.087C151.764,99.06,149.242,103.473,145.46,104.734Z" transform="translate(755.102 136.411)"/>
            <path id="路径_37478" data-name="路径 37478" d="M233.36,153.733a8.183,8.183,0,1,1,5.674-10.087A8.1,8.1,0,0,1,233.36,153.733Z" transform="translate(1221.339 396.315)"/>
            <path id="路径_37479" data-name="路径 37479" d="M233.36,153.733a8.183,8.183,0,1,1,5.674-10.087A8.1,8.1,0,0,1,233.36,153.733Z" transform="translate(1221.339 396.315)"/>
            <path id="路径_37480" data-name="路径 37480" d="M257.46,217.434a8.183,8.183,0,1,1,5.674-10.087A8.1,8.1,0,0,1,257.46,217.434Z" transform="translate(1349.17 734.192)"/>
            <path id="路径_37481" data-name="路径 37481" d="M233.36,153.733a8.183,8.183,0,1,1,5.674-10.087A8.1,8.1,0,0,1,233.36,153.733Z" transform="translate(1221.339 396.315)"/>
            <path id="路径_37482" data-name="路径 37482" d="M257.46,217.434a8.183,8.183,0,1,1,5.674-10.087A8.1,8.1,0,0,1,257.46,217.434Z" transform="translate(1349.17 734.192)"/>
            <path id="路径_37483" data-name="路径 37483" d="M209.76,212.434a8.183,8.183,0,1,1,5.674-10.087A8.1,8.1,0,0,1,209.76,212.434Z" transform="translate(1096.16 707.671)"/>
            <path id="路径_37484" data-name="路径 37484" d="M257.46,217.434a8.183,8.183,0,1,1,5.674-10.087A8.1,8.1,0,0,1,257.46,217.434Z" transform="translate(1349.17 734.192)"/>
            <path id="路径_37485" data-name="路径 37485" d="M257.46,217.434a8.183,8.183,0,1,1,5.674-10.087A8.1,8.1,0,0,1,257.46,217.434Z" transform="translate(1349.17 734.192)"/>
            <path id="路径_37486" data-name="路径 37486" d="M139.66,196.234a8.183,8.183,0,1,1,5.674-10.087A8.1,8.1,0,0,1,139.66,196.234Z" transform="translate(724.337 621.743)"/>
          </g>
        </g>
      </g>
    </g>
    <g id="组_21710" data-name="组 21710" transform="translate(80 -6)">
      <path id="路径_40407" data-name="路径 40407" d="M207.9,47.88,202.9,45.7a33.251,33.251,0,0,1-5.044,5.928,36.7,36.7,0,0,1-9.1,6.136,16.656,16.656,0,0,1,3.38,4.784c.52-.312.936-.572,1.2-.728.052,1.248.1,2.444.1,4.628a47.08,47.08,0,0,1-.468,8.008,61.916,61.916,0,0,1-1.04,6.4A25.811,25.811,0,0,1,188.5,88.8a17.566,17.566,0,0,1,4.108,4.576A42.794,42.794,0,0,0,197.288,81c.052.676.052,1.56.052,2.236v6.552A32.952,32.952,0,0,1,197.132,94h5.252V91.872h8.06v2.184H215.8a31.077,31.077,0,0,1-.208-4.16V83.084c0-1.612.052-2.34.156-3.8-1.144.1-2.132.156-3.484.156H200.408a20.954,20.954,0,0,1-2.756-.1l.312-2.184H212c1.144,0,2.236.052,3.484.156a26.89,26.89,0,0,1-.208-3.952V64.728a30.46,30.46,0,0,1,.208-3.9l3.224-4.68a129.307,129.307,0,0,0-11.388-7.436Zm.52,13.1a38.177,38.177,0,0,0-2.5-5.98l-5.2,1.82a17.611,17.611,0,0,1,1.924,4.16h-4.472c-1.612,0-1.768,0-3.38-.052a50.171,50.171,0,0,0,9.62-8.216A58.823,58.823,0,0,1,214.6,60.2c.156.1.364.364.676.624a36.349,36.349,0,0,1-3.848.156Zm1.716,9.984V73.1H198.276c.1-1.664.1-1.664.156-2.132Zm-11.6-3.8V65.04h11.6v2.132Zm3.9,16.38h8.008v4.16h-8.008ZM219.18,50.22a38.36,38.36,0,0,1,.26,5.512V76.376a36.142,36.142,0,0,1-.26,5.564h5.928a33.339,33.339,0,0,1-.26-5.512v-20.8a35.066,35.066,0,0,1,.26-5.408Zm10.452-3.536a48.6,48.6,0,0,1,.312,6.448v33.54c0,1.3-.416,1.612-2.392,1.612a44.36,44.36,0,0,1-6.084-.52,18.928,18.928,0,0,1,1.4,5.512c2.7.1,3.692.156,4.784.156,6.344,0,7.748-1.04,7.748-5.98V52.976a35.482,35.482,0,0,1,.364-6.292ZM263.8,71.956A52.4,52.4,0,0,1,264,66.288a23.646,23.646,0,0,1-3.952.26h-3.9a23.971,23.971,0,0,1-4.16-.26V71.9a19.517,19.517,0,0,1,3.536-.26h2.808v11.44a25.972,25.972,0,0,0-4.888,3.744c-1.612,1.508-1.664,1.508-2.6,2.392l4.056,4.472c1.56-1.82,2.5-2.86,2.808-3.224,1.872-1.872,2.7-2.548,3.224-2.548.364,0,.884.364,1.716,1.2a12.708,12.708,0,0,0,5.668,3.38,59.575,59.575,0,0,0,12.324.884c9.724,0,13.208-.052,18.356-.312a20.689,20.689,0,0,1,1.612-5.98,167.736,167.736,0,0,1-19.188.936c-11.128,0-12.688-.312-16.588-3.536a12.214,12.214,0,0,0-1.04-.884Zm11.076-19.344c.624-1.456.676-1.508.832-1.976.208-.52.26-.52.312-.728.208-.52.208-.52.416-.988a5.067,5.067,0,0,0,.26-.572L271.388,47a18.381,18.381,0,0,1-1.924,5.252,25.633,25.633,0,0,1-4.42,6.188,8.168,8.168,0,0,1,1.976,1.144c1.924,1.4,1.924,1.4,2.5,1.872a41.844,41.844,0,0,0,2.912-4h7.384v4.784h-9.256a36.158,36.158,0,0,1-4.732-.208v5.252a41.911,41.911,0,0,1,4.42-.208H293.9a37.679,37.679,0,0,1,4.836.26v-5.3a36.955,36.955,0,0,1-4.836.208h-8.632V57.448h6.344a49.633,49.633,0,0,1,5.356.208V52.3a37.442,37.442,0,0,1-5.512.312h-6.188V51.26a26.042,26.042,0,0,1,.26-4.836H279.5a25.873,25.873,0,0,1,.312,4.836v1.352Zm15.6,32.24a44.892,44.892,0,0,1,5.148.208,35.351,35.351,0,0,1-.156-4.992V75.18a41.444,41.444,0,0,1,.156-5.3,49.632,49.632,0,0,1-5.356.208H274.716a53.012,53.012,0,0,1-5.668-.208,30.162,30.162,0,0,1,.208,4.628v5.2a35.473,35.473,0,0,1-.156,5.356,35.378,35.378,0,0,1,4.628-.208Zm-15.964-9.776h15.548V79.86H274.508ZM252.2,50.792a62.691,62.691,0,0,1,8.84,9.828l4.42-4.16a69.607,69.607,0,0,0-9.1-9.412Z" transform="translate(180 472)" fill="#0080f4"/>
      <path id="路径_40406" data-name="路径 40406" d="M5-9.6a4.159,4.159,0,0,0-3.1,1.2A5.137,5.137,0,0,0,.54-4.656c0,3.048,1.752,5,4.476,5S9.5-1.62,9.5-4.656A5.175,5.175,0,0,0,8.16-8.4,4.205,4.205,0,0,0,5-9.6ZM5.04-1.08a2.591,2.591,0,0,1-1.86-.732,3.965,3.965,0,0,1-.972-2.832c0-2.172,1.092-3.54,2.82-3.54a2.583,2.583,0,0,1,1.848.732,3.876,3.876,0,0,1,.948,2.8C7.824-2.448,6.756-1.08,5.04-1.08ZM36.576-9.408a9.767,9.767,0,0,1,.1,1.644V-3.54a2.191,2.191,0,0,1-2.436,2.484,2.2,2.2,0,0,1-2.46-2.472V-7.764a9.41,9.41,0,0,1,.1-1.644H30.084a9.858,9.858,0,0,1,.1,1.644v4.236a3.865,3.865,0,0,0,.9,2.76A4.134,4.134,0,0,0,34.176.36c2.616,0,4.092-1.392,4.092-3.876v-4.26a9.7,9.7,0,0,1,.1-1.632ZM67.332.144c-.168-.324-.468-.972-.564-1.188C65.58-3.852,65.352-4.188,64.6-4.428a2.537,2.537,0,0,0,1.332-.7,2.467,2.467,0,0,0,.612-1.788c0-1.584-1.044-2.5-2.868-2.5h-2.88c-.66,0-1.032-.012-1.536-.036a10.677,10.677,0,0,1,.1,1.56v6.468a9.391,9.391,0,0,1-.1,1.56h1.788a9.364,9.364,0,0,1-.1-1.572V-3.876h1.788c.924,0,1.344.444,1.992,2.1a9.714,9.714,0,0,1,.624,1.92ZM60.948-5.244v-2.8h2.46c.984,0,1.476.444,1.476,1.308A1.424,1.424,0,0,1,64.5-5.676a1.617,1.617,0,0,1-1.14.432ZM116.7.144a9.771,9.771,0,0,1,.528-1.6l1.8-4.224a14.644,14.644,0,0,0,.552-1.752c-.012.18-.048.792-.1,1.836v3.984a11.156,11.156,0,0,1-.1,1.752h1.68a10.4,10.4,0,0,1-.1-1.752V-7.632a12.427,12.427,0,0,1,.1-1.776H118.86a6.65,6.65,0,0,1-.432,1.428L116-2.028,113.568-7.98a8.305,8.305,0,0,1-.444-1.428h-2.2a11.9,11.9,0,0,1,.1,1.776v6.024a11.254,11.254,0,0,1-.1,1.752h1.68a10.964,10.964,0,0,1-.1-1.752V-5.544c0-.264-.048-1.248-.1-1.884a13.354,13.354,0,0,0,.612,1.836l1.728,4.116a8.169,8.169,0,0,1,.528,1.62Zm25.272-9.552a8.966,8.966,0,0,1,.1,1.548V-1.4a9.055,9.055,0,0,1-.1,1.548H143.8a9.055,9.055,0,0,1-.1-1.548V-7.86a8.966,8.966,0,0,1,.1-1.548Zm22.4,6.756a4.1,4.1,0,0,0,.228,1A2.825,2.825,0,0,0,165.66-.288a4.825,4.825,0,0,0,2.52.624,3.977,3.977,0,0,0,2.868-.912,2.792,2.792,0,0,0,.756-2.04,2.368,2.368,0,0,0-1-2.064,5.283,5.283,0,0,0-1.956-.732,10.216,10.216,0,0,1-1.692-.432,1.141,1.141,0,0,1-.816-1.092c0-.78.708-1.308,1.752-1.308a1.9,1.9,0,0,1,1.5.576,1.55,1.55,0,0,1,.36.852l1.716-.2a3.235,3.235,0,0,0-.588-1.392A3.537,3.537,0,0,0,168.1-9.624c-2.064,0-3.408,1.08-3.408,2.748a2.362,2.362,0,0,0,.924,1.944,4.242,4.242,0,0,0,1.812.732,7.566,7.566,0,0,1,2.088.588,1.218,1.218,0,0,1,.6,1.1c0,.9-.72,1.44-1.92,1.44a2.13,2.13,0,0,1-1.752-.708,1.72,1.72,0,0,1-.336-1.056Zm27.78,0a4.1,4.1,0,0,0,.228,1A2.825,2.825,0,0,0,193.44-.288a4.825,4.825,0,0,0,2.52.624,3.977,3.977,0,0,0,2.868-.912,2.792,2.792,0,0,0,.756-2.04,2.368,2.368,0,0,0-1-2.064,5.283,5.283,0,0,0-1.956-.732,10.216,10.216,0,0,1-1.692-.432,1.141,1.141,0,0,1-.816-1.092c0-.78.708-1.308,1.752-1.308a1.9,1.9,0,0,1,1.5.576,1.55,1.55,0,0,1,.36.852l1.716-.2a3.235,3.235,0,0,0-.588-1.392,3.537,3.537,0,0,0-2.988-1.212c-2.064,0-3.408,1.08-3.408,2.748a2.362,2.362,0,0,0,.924,1.944A4.242,4.242,0,0,0,195.2-4.2a7.566,7.566,0,0,1,2.088.588,1.218,1.218,0,0,1,.6,1.1c0,.9-.72,1.44-1.92,1.44a2.13,2.13,0,0,1-1.752-.708,1.72,1.72,0,0,1-.336-1.056Zm28.092-6.756a8.966,8.966,0,0,1,.1,1.548V-1.4a9.055,9.055,0,0,1-.1,1.548h1.824a9.055,9.055,0,0,1-.1-1.548V-7.86a8.966,8.966,0,0,1,.1-1.548ZM247.116-9.6a4.159,4.159,0,0,0-3.1,1.2,5.137,5.137,0,0,0-1.368,3.744c0,3.048,1.752,5,4.476,5s4.488-1.968,4.488-5A5.175,5.175,0,0,0,250.272-8.4,4.205,4.205,0,0,0,247.116-9.6Zm.036,8.52a2.591,2.591,0,0,1-1.86-.732,3.965,3.965,0,0,1-.972-2.832c0-2.172,1.092-3.54,2.82-3.54a2.583,2.583,0,0,1,1.848.732,3.876,3.876,0,0,1,.948,2.8C249.936-2.448,248.868-1.08,247.152-1.08ZM280.368.144a9.055,9.055,0,0,1-.1-1.548V-7.752a10.493,10.493,0,0,1,.1-1.656h-1.752a10.489,10.489,0,0,1,.1,1.656V-3.72c0,.5.036,1.224.084,1.692-.264-.48-.648-1.1-.936-1.536l-3.036-4.572a6.582,6.582,0,0,1-.732-1.272H272.22a9.993,9.993,0,0,1,.1,1.548v6.192a12.983,12.983,0,0,1-.1,1.812h1.752a13.282,13.282,0,0,1-.1-1.8V-5.592c0-.276-.024-.816-.036-1.044-.036-.444-.036-.444-.048-.612.288.564.588,1.08.816,1.44l3.1,4.668a11.958,11.958,0,0,1,.768,1.284Z" transform="translate(180 366)"/>
      <path id="路径_40408" data-name="路径 40408" d="M22.516-43a35.428,35.428,0,0,1,.208,4.42c0,12.376-2.86,20.956-9.516,28.652C9.932-6.188,7.176-4.056,1.872-1.248A15.556,15.556,0,0,1,5.928,4.108a43.859,43.859,0,0,0,8.06-5.98A36.2,36.2,0,0,0,22-11.856a37.209,37.209,0,0,0,4.056-10.5,41.111,41.111,0,0,0,6.916,14.2C36.66-3.276,39.832-.312,46.176,4.108a19.346,19.346,0,0,1,4.056-5.772,34.63,34.63,0,0,1-8.06-5.616,35.74,35.74,0,0,1-8.216-9.88c-3.744-6.656-5.1-12.168-5.1-21.008A39.239,39.239,0,0,1,29.224-43ZM77.9-41.652a22.1,22.1,0,0,1,.832,3.38A132.494,132.494,0,0,0,82.212-24.18a32.1,32.1,0,0,0-7.072,4.472A12.212,12.212,0,0,0,70.512-10.4a9.842,9.842,0,0,0,4.524,8.684c3.328,1.976,7.852,2.86,15.08,2.86a109.891,109.891,0,0,0,12.168-.78A32.415,32.415,0,0,1,106.5,0l-.572-7.124c-3.9,1.352-10.3,2.132-16.8,2.132C80.756-4.992,77.22-6.6,77.22-10.4c0-3.744,3.8-7.072,11.388-9.88a127.055,127.055,0,0,1,17.16-4.992l-2.236-6.552a14.231,14.231,0,0,1-1.976.78c-10.088,3.328-10.088,3.328-13.468,4.576a87.333,87.333,0,0,1-3.432-16.276Zm76.96,8.32a11.365,11.365,0,0,1,5.252,1.56,12.883,12.883,0,0,1,6.4,11.544,14.559,14.559,0,0,1-7.228,13c-2.444,1.4-5.564,2.236-10.348,2.86A16.588,16.588,0,0,1,152.1,1.716a34,34,0,0,0,8.164-2.184c7.956-3.224,12.636-10.4,12.636-19.4,0-11.7-8.112-19.292-20.592-19.292-7.384,0-13.52,2.5-17.888,7.28a22.337,22.337,0,0,0-5.72,15.132c0,8.372,4.264,14.4,10.192,14.4,4.264,0,7.592-3.068,10.556-9.776A75.227,75.227,0,0,0,154.856-33.332Zm-6.344.052A68.533,68.533,0,0,1,144.2-15.7c-1.872,4.472-3.64,6.656-5.356,6.656-2.288,0-4.108-3.38-4.108-7.644a17.41,17.41,0,0,1,7.072-14.04A13.237,13.237,0,0,1,148.512-33.28Zm43.68,8.84a18.969,18.969,0,0,1,4.16-1.456c8.372-2.5,15.08-3.692,20.488-3.692a13.551,13.551,0,0,1,6.708,1.4,7.615,7.615,0,0,1,3.952,6.76,11.465,11.465,0,0,1-.572,3.692c-1.04,3.068-4.108,6.032-7.852,7.7-4.42,1.924-8.788,2.7-17.108,3.068A22.538,22.538,0,0,1,204.62-.26c9.516-1.04,13.572-1.976,18.3-4.316,7.384-3.588,11.544-9.568,11.544-16.64,0-8.84-6.708-14.612-17-14.612-6.032,0-8.84.416-20.7,2.964a37.171,37.171,0,0,1-6.084,1.04ZM265.46-43.108a53.124,53.124,0,0,1-1.56,9.048c-1.144.052-2.028.052-2.652.052a36.1,36.1,0,0,1-7.02-.468v5.928l2.756.052c1.092.052,1.4.052,2.08.052.624,0,.936,0,3.276-.052a80,80,0,0,1-4.888,12.272,47.332,47.332,0,0,1-5.044,8.32l5.98,3.328c.312-.624.312-.624.988-1.872,1.976-3.64,2.444-4.576,3.64-7.124a99.813,99.813,0,0,0,5.72-15.08c3.224-.26,6.4-.624,8.268-.936a10.14,10.14,0,0,1,1.664-.26l-.156-5.98a44.6,44.6,0,0,1-8.32,1.456c.572-2.288.832-3.328,1.092-4.576a26.037,26.037,0,0,1,.832-3.484Zm33.28,13.52a82.087,82.087,0,0,0-14.664-6.968l-3.12,5.044a63.643,63.643,0,0,1,14.976,7.28Zm-.208,23.452a9.306,9.306,0,0,1-.78-.728,19.174,19.174,0,0,0-1.82-1.4,32.488,32.488,0,0,0-8.216-4.784,55.208,55.208,0,0,1-.468-7.124,17.332,17.332,0,0,1,.624-5.252l-6.032-.312a27.583,27.583,0,0,0-.416,5.252c0,1.56.1,3.588.26,5.98a25.829,25.829,0,0,0-4.836-.468c-6.6,0-11.232,3.692-11.232,8.944,0,5.3,4.472,8.736,11.336,8.736,3.692,0,6.812-1.04,8.632-2.912A8.31,8.31,0,0,0,287.82-5.72c0-.208-.052-.572-.1-1.04a31.449,31.449,0,0,1,7.956,6.448ZM281.892-9s.1,1.248.1,1.768c0,2.912-1.716,4.368-5.252,4.368-3.224,0-5.1-1.248-5.1-3.38,0-2.184,2.184-3.588,5.564-3.588A13.108,13.108,0,0,1,281.892-9ZM348.4-29.536a32.468,32.468,0,0,1,3.692,6.136A48.883,48.883,0,0,1,356.2-11.7l5.928-2.964a49.729,49.729,0,0,0-8.476-17.472Zm-2.548-9.776A31.08,31.08,0,0,1,350.74-32.4l4.056-2.132a29.247,29.247,0,0,0-4.888-6.812Zm14.82,1.768a30.608,30.608,0,0,0-4.836-6.5l-3.9,2.028a35.769,35.769,0,0,1,4.784,6.708Zm-33.228-4.784v.936a78.982,78.982,0,0,1-1.352,10.5A110.021,110.021,0,0,1,315.016-29.8l.624,6.136a92.014,92.014,0,0,1,9.308-1.716A86.563,86.563,0,0,1,319.9-10.66,53.059,53.059,0,0,1,314.5-.884l6.032,3.328c.26-.468.26-.572.416-.884.52-1.04.52-1.04.78-1.508a117.839,117.839,0,0,0,6.24-14.612,114.128,114.128,0,0,0,3.172-11.284c1.2-.1,1.976-.156,3.016-.156,4.108,0,5.3,1.4,5.3,6.188A46.2,46.2,0,0,1,338.1-7.956c-.78,2.548-1.612,3.536-3.12,3.536a21.768,21.768,0,0,1-7.592-2.08,19.53,19.53,0,0,1,.52,4.42c0,.52-.052,1.3-.1,2.288a24.107,24.107,0,0,0,8.008,1.56c2.756,0,4.316-.624,5.772-2.34,2.5-2.86,4-9.984,4-18.928,0-4.732-.676-7.228-2.444-9.2-1.716-1.82-4.264-2.756-7.7-2.756-.988,0-1.716.052-3.224.1.156-.676.156-.728.364-1.872.728-3.9.728-3.9.884-5.044.156-.78.208-1.04.312-1.768.1-.52.26-1.092.416-1.612Zm58.812-.52a12.225,12.225,0,0,1-.156,1.768l-.78,6.448c-.416,3.588-.728,9.36-.728,13.572,0,1.04.1,4.888.156,6.4v.988A4.043,4.043,0,0,1,384.7-13l6.24-.1V-14.2a24.932,24.932,0,0,1,6.552-16.8,7.739,7.739,0,0,1,5.616-2.756c4.472,0,6.968,4.16,6.968,11.648,0,7.9-2.756,12.844-8.788,15.912C398.112-4.576,395.1-3.8,389.9-3.224a19.89,19.89,0,0,1,3.068,6.136A44.347,44.347,0,0,0,403.156,0c8.736-3.848,13.416-11.336,13.416-21.372,0-6.136-1.144-10.348-3.744-13.832a10.89,10.89,0,0,0-8.892-4.68c-3.8,0-7.02,1.768-9.88,5.3a21.022,21.022,0,0,0-3.276,6.188,11.416,11.416,0,0,1-.312,1.144h-.156c.1-1.248.312-3.016.676-5.2.988-6.916,1.248-8.268,1.872-10.036ZM442.52-31.46a5.745,5.745,0,0,1,.832-.052c.468,0,.468,0,1.456.052,1.144,0,5.72.1,6.552.1,0,0,.676-.052.884-.052a2.543,2.543,0,0,0-.416.676,68.873,68.873,0,0,1-6.24,8.892,31.856,31.856,0,0,1-4.68,4.628l4.732,4.68a23.381,23.381,0,0,1,4.524-4.732c4-3.536,7.644-5.356,10.66-5.356A2.854,2.854,0,0,1,464-19.812c-5.876,2.444-8.84,4.42-11.18,7.332a8.287,8.287,0,0,0-2.288,5.772A7.54,7.54,0,0,0,454.324,0c2.652,1.56,6.084,2.184,11.6,2.184a94.316,94.316,0,0,0,13.312-.936,15.322,15.322,0,0,1,2.392-.208l-.52-6.708c-3.692,1.4-9.048,2.184-15.288,2.184-6.292,0-8.788-1.092-8.788-3.8,0-1.508.884-2.912,2.7-4.264a31.6,31.6,0,0,1,4.992-2.7V-13a41.165,41.165,0,0,1-.312,6.032l6.032-.156a21.349,21.349,0,0,1-.156-2.756c0-.364,0-.832.052-1.716v-2.08c0-.728,0-.728-.052-2.08v-.572q6.708-2.34,7.8-2.652a45.9,45.9,0,0,1,5.772-1.4l-2.444-5.98c-.832.52-1.04.572-3.848,1.56q-1.95.624-7.956,2.808c-.832-3.588-3.38-5.512-7.436-5.512a12.57,12.57,0,0,0-7.332,2.34c-.676.52-.676.52-1.04.78l-.052-.1a26.908,26.908,0,0,0,4.784-6.916c5.252-.156,11.856-.572,15.652-1.04,2.652-.312,2.652-.312,4.108-.416l-.364-5.928c-2.86.832-7.592,1.4-13.624,1.768-2.86.156-2.86.156-3.276.208.1-.208.208-.364.468-.936a39.723,39.723,0,0,1,2.08-4.68l-6.812-.728a20.593,20.593,0,0,1-2.08,6.448c-6.6,0-9.932-.208-12.064-.676Zm76.076,6.6h5.356v5.564c0,.728-.208.884-1.456.884-.624,0-.988-.052-1.768-.1a12.585,12.585,0,0,1,1.04,4.472h.988c2.86,0,4.108-.312,4.992-1.2.832-.832,1.092-1.82,1.092-4.472v-6.084A39.949,39.949,0,0,1,529-29.9a37.625,37.625,0,0,1-4.576.208h-5.772v-3.744h5.72a39.907,39.907,0,0,1,5.408.26v-5.616a47.38,47.38,0,0,1-5.824.312h-5.3v-1.092a28.921,28.921,0,0,1,.26-4.056h-5.876a30.07,30.07,0,0,1,.26,4.056v1.092h-6.136a42.135,42.135,0,0,1-5.512-.312v5.616a36.775,36.775,0,0,1,5.148-.26h6.5v3.744h-5.3A46.46,46.46,0,0,1,503.1-29.9a42.4,42.4,0,0,1,.208,4.836v6.24a43.85,43.85,0,0,1-.26,5.1h5.512c-.1-1.2-.156-2.288-.156-4.056v-7.072h4.888v6.24a31.783,31.783,0,0,1-4.992,7.488,35.549,35.549,0,0,1-7.748,7.02A22.16,22.16,0,0,1,503.724.624,33.257,33.257,0,0,0,513.4-10.3c-.052.728-.1,1.924-.1,3.744V-.676a30.975,30.975,0,0,1-.312,4.94h5.928a24.2,24.2,0,0,1-.312-4.68V-9.984a118.623,118.623,0,0,1,8.372,8.528L530.4-6.4c-3.64-3.432-3.64-3.432-11.8-9.412Zm13.052-14.82a47.961,47.961,0,0,1,.26,5.512v20.436a36.573,36.573,0,0,1-.26,5.564h5.876a43.536,43.536,0,0,1-.208-5.512V-34.268a35.066,35.066,0,0,1,.26-5.408Zm10.088-3.64a48.593,48.593,0,0,1,.312,6.448v33.7c0,1.352-.468,1.612-2.7,1.612-1.56,0-3.952-.208-6.292-.468a19.027,19.027,0,0,1,1.508,5.46c2.34.1,3.432.156,4.628.156,3.952,0,5.46-.26,6.6-1.092,1.3-.936,1.716-2.132,1.716-5.148V-37.024a36.876,36.876,0,0,1,.312-6.292Zm70.3,8.268a20.4,20.4,0,0,1-4.16.312h-6.812c.416-1.248.936-3.068,1.2-4.264a20.836,20.836,0,0,1,.988-3.64l-5.616-.988c-.364,5.044-2.756,12.168-5.824,17.472v-8.32c0-2.756.052-3.9.156-5.044a36.851,36.851,0,0,1-4.888.208H585.1c.676-1.3.676-1.3,1.716-3.64l-5.616-.676a13.247,13.247,0,0,1-1.456,4.316,33.884,33.884,0,0,1-4.628-.208c.1,1.04.156,1.82.208,2.808a39.638,39.638,0,0,0-7.7-6.292l-3.744,3.848a37.076,37.076,0,0,1,7.8,6.76l3.64-4.056v8.892a44.315,44.315,0,0,1-.208,5.148,28.5,28.5,0,0,1,4.264-.208h3.484l-3.12,1.092c.78,1.4,1.2,2.236,1.3,2.392h-3.8a25.365,25.365,0,0,1-4.212-.26v4.732a30.574,30.574,0,0,1,4-.208h.936c-.312,4.108-.832,6.448-1.872,8.632A17.067,17.067,0,0,1,571.064,0a16.26,16.26,0,0,1,3.9,4.056c3.9-3.692,5.824-6.812,7.02-11.6h4.992a35.915,35.915,0,0,1-.728,5.408c-.26.884-.52,1.04-1.716,1.04a30.228,30.228,0,0,1-3.224-.26,12.463,12.463,0,0,1,.936,4.628c1.4.052,2.5.1,3.12.1,3.692,0,4.888-.78,5.668-3.692a14.429,14.429,0,0,1,3.224,4.16,37.322,37.322,0,0,0,7.852-8.788,41.049,41.049,0,0,0,8.216,8.528,18.8,18.8,0,0,1,3.016-5.3,34.311,34.311,0,0,1-8.424-8.216,40,40,0,0,0,3.016-9.672,66.228,66.228,0,0,0,1.2-10.5,17.5,17.5,0,0,1,2.912.26Zm-8.06,4.94a60.389,60.389,0,0,1-.78,9.048,29.645,29.645,0,0,1-1.456,5.72,38.5,38.5,0,0,1-3.12-12.948c.156-.364.572-1.352.78-1.82ZM582.764-11.7c.1-1.144.156-1.456.312-3.172h6.708a29.245,29.245,0,0,1,3.952.208V-19.4a19.875,19.875,0,0,1-3.692.26H586.3a24.4,24.4,0,0,0-1.456-3.484h3.536c.78,0,2.236.052,2.6.052h.416a20.5,20.5,0,0,1,2.288,3.016c.832-1.2,1.2-1.664,1.508-2.236a39.331,39.331,0,0,0,3.952,12.012,31.972,31.972,0,0,1-3.952,5.2,19.636,19.636,0,0,1-4,3.692,68.245,68.245,0,0,0,.988-8.06,23.71,23.71,0,0,1,.208-2.964,29.419,29.419,0,0,1-4.056.208ZM579.9-35.62h7.332v2.912H579.9Zm0,6.5h7.332v2.912H579.9Zm-17.368,2.86a35.739,35.739,0,0,1,8.008,6.448l3.38-4.42a40.675,40.675,0,0,0-8.008-5.98Zm6.916,10.348c-1.872,6.6-4.68,13-6.76,15.392l4.628,3.848c1.04-2.184,1.612-3.484,1.82-3.9,1.664-4.108,3.224-8.06,4.68-12.116ZM657.54-27.664v-3.38c4.108-.1,5.044-.1,6.292-.1,4.316,0,6.812.1,8.736.26l-.052-5.98c-1.924.208-5.98.312-15.028.364a40.881,40.881,0,0,1,.26-6.188l-6.552.052c.26,1.352.26,1.352.312,6.292-2.7.1-2.7.1-4.42.156-4.264.1-4.784.1-8.164.208-6.708.26-7.54.26-8.84.26a22.645,22.645,0,0,1-2.548-.1l.208,6.188c1.4-.208,1.4-.208,9.256-.78,2.288-.156,7.176-.312,14.612-.52,0,1.4,0,4.316.052,4.42a2.143,2.143,0,0,0,.052.624,8.69,8.69,0,0,0-5.408-1.56c-6.032,0-10.348,3.952-10.348,9.464a8.125,8.125,0,0,0,3.588,7.02A9.583,9.583,0,0,0,645.58-9.1c3.432,0,6.136-1.3,7.644-3.692-.416,2.912-2.5,5.564-6.032,7.592-2.444,1.456-4.576,2.184-8.84,3.016a17.066,17.066,0,0,1,3.692,5.876c4.836-1.664,7.228-2.756,9.412-4.264,5.044-3.484,7.748-8.372,7.748-14.04a15.824,15.824,0,0,0-1.664-7.332c0-.624-.052-1.04-.052-1.248Zm-5.98,8.58c0,2.7-2.132,4.68-5.1,4.68a4.1,4.1,0,0,1-4.42-4.108c0-2.288,2.184-4.16,4.836-4.16C649.74-22.672,651.56-21.268,651.56-19.084Zm55.328-2.5a20.4,20.4,0,0,0,2.132-1.352c1.04-.676,4.784-3.484,5.72-4.264,1.768-1.508,5.564-4.888,8.164-7.28a11.146,11.146,0,0,1,2.7-2.132l-3.224-4.576a7.662,7.662,0,0,1-3.224.676c-5.044.364-11.388.624-15.808.624a47.029,47.029,0,0,1-6.136-.312l.26,6.24a17.542,17.542,0,0,1,2.5-.26c9.412-.416,12.74-.624,14.716-.884l.052.052-.936.936a173.625,173.625,0,0,1-15.548,13.52,46.766,46.766,0,0,1-7.332,4.888l3.536,5.616a32.04,32.04,0,0,1,21.424-8.736c6.292,0,10.3,2.652,10.3,6.708,0,3.692-1.872,5.928-6.188,7.54a13.984,13.984,0,0,0-2.392-4.68,11.192,11.192,0,0,0-9-4.264c-5.2,0-8.944,3.12-8.944,7.436A7.422,7.422,0,0,0,702.78-.1c2.08,1.56,5.72,2.392,10.088,2.392A25.727,25.727,0,0,0,725.452-.676c4.628-2.6,7.072-6.552,7.072-11.492,0-7.124-5.72-11.7-14.612-11.7-3.9,0-6.188.52-10.92,2.392Zm7.488,18.512a14.075,14.075,0,0,1-2.7.208c-3.848,0-6.188-1.2-6.188-3.276,0-1.456,1.2-2.392,3.068-2.392C711.464-8.528,713.44-6.656,714.376-3.068ZM14.2,58.124v-5.1a40.574,40.574,0,0,1,.364-6.24H8.112a58.938,58.938,0,0,1,.312,6.24v5.1H7.384a44.446,44.446,0,0,1-5.72-.312v5.824a43.884,43.884,0,0,1,5.72-.312h1.04V87.556A44.893,44.893,0,0,1,8.216,92.7a41.693,41.693,0,0,1,5.46-.26H41.288a62.935,62.935,0,0,1,6.552.312V86.724a59.478,59.478,0,0,1-6.552.312H14.2V63.324H22.62v11.7a34.9,34.9,0,0,1-.208,4.42c1.612-.1,2.756-.156,4.524-.156H38.428c1.768,0,2.964.052,4.368.156-.156-1.56-.208-3.12-.208-4.68V63.324h1.82a44.446,44.446,0,0,1,5.72.312V57.812a43.33,43.33,0,0,1-5.72.312h-1.82V52.352a36.817,36.817,0,0,1,.364-5.616H36.608A42.987,42.987,0,0,1,36.92,52.3v5.824H28.184V52.352a47.471,47.471,0,0,1,.312-5.616h-6.24A38,38,0,0,1,22.62,52.4v5.72Zm13.988,5.2H36.92v10.92H28.184Zm62.244,5.564h11.96c2.288,0,3.9.052,5.564.208a36.763,36.763,0,0,1-.26-5.408v-10.4a39.173,39.173,0,0,1,.26-5.564,42.8,42.8,0,0,1-5.616.26H74.464a41,41,0,0,1-5.564-.26,51.064,51.064,0,0,1,.26,5.564v10.4A49.3,49.3,0,0,1,68.9,69.1a54.366,54.366,0,0,1,5.46-.208H85.436c-5.1,3.64-12.064,5.876-21.528,6.916A19.415,19.415,0,0,1,66.3,81.42,94.129,94.129,0,0,0,78.156,78.4v.364c0,3.224-.832,5.3-2.7,6.864-2.236,1.924-4.576,2.964-9.516,4.264a23.324,23.324,0,0,1,3.484,4.836c5.616-1.716,8.788-3.588,11.336-6.708,1.976-2.392,2.756-4.524,3.12-8.528.1-.78.156-1.04.312-1.82H80.132a41.576,41.576,0,0,0,7.488-3.8,29.68,29.68,0,0,0,7.124,3.8H93.028a27.055,27.055,0,0,1,.26,4.108v6.708a43.64,43.64,0,0,1-.312,5.772h6.292a37.792,37.792,0,0,1-.312-5.772V81c0-.728,0-1.04.052-1.924a76.26,76.26,0,0,0,11.752,2.5,26.722,26.722,0,0,1,2.132-5.772c-9.516-.676-15.6-2.08-21.268-4.836.364-.312.572-.468,1.092-.936Zm-15.7-16.172H85.488v3.692H74.724Zm0,8.112H85.488V64.52H74.724Zm16.12-8.112h11.232v3.692H90.844Zm0,8.112h11.232V64.52H90.844ZM130.52,58.54a5.745,5.745,0,0,1,.832-.052c.468,0,.468,0,1.456.052,1.144,0,5.72.1,6.552.1,0,0,.676-.052.884-.052a2.544,2.544,0,0,0-.416.676,68.873,68.873,0,0,1-6.24,8.892,31.855,31.855,0,0,1-4.68,4.628l4.732,4.68a23.381,23.381,0,0,1,4.524-4.732c4-3.536,7.644-5.356,10.66-5.356A2.854,2.854,0,0,1,152,70.188c-5.876,2.444-8.84,4.42-11.18,7.332a8.287,8.287,0,0,0-2.288,5.772,7.54,7.54,0,0,0,3.8,6.708c2.652,1.56,6.084,2.184,11.6,2.184a94.316,94.316,0,0,0,13.312-.936,15.322,15.322,0,0,1,2.392-.208l-.52-6.708c-3.692,1.4-9.048,2.184-15.288,2.184-6.292,0-8.788-1.092-8.788-3.8,0-1.508.884-2.912,2.7-4.264a31.6,31.6,0,0,1,4.992-2.7V77a41.166,41.166,0,0,1-.312,6.032l6.032-.156a21.349,21.349,0,0,1-.156-2.756c0-.364,0-.832.052-1.716v-2.08c0-.728,0-.728-.052-2.08v-.572q6.708-2.34,7.8-2.652a45.9,45.9,0,0,1,5.772-1.4l-2.444-5.98c-.832.52-1.04.572-3.848,1.56q-1.95.624-7.956,2.808c-.832-3.588-3.38-5.512-7.436-5.512a12.57,12.57,0,0,0-7.332,2.34c-.676.52-.676.52-1.04.78l-.052-.1a26.909,26.909,0,0,0,4.784-6.916c5.252-.156,11.856-.572,15.652-1.04,2.652-.312,2.652-.312,4.108-.416l-.364-5.928c-2.86.832-7.592,1.4-13.624,1.768-2.86.156-2.86.156-3.276.208.1-.208.208-.364.468-.936a39.731,39.731,0,0,1,2.08-4.68l-6.812-.728a20.594,20.594,0,0,1-2.08,6.448c-6.6,0-9.932-.208-12.064-.676ZM322.608,48.452a25.861,25.861,0,0,1,.208,3.536c0,.728,0,1.82-.052,3.38-.312,13.052-.416,18.252-.416,20.956,0,6.968,1.508,10.972,5.1,13.364a16.953,16.953,0,0,0,9.1,2.288c6.552,0,11.7-2.184,15.6-6.6,2.548-2.86,4.108-6.24,6.188-13.26a22.457,22.457,0,0,1-6.292-4,34.861,34.861,0,0,1-2.392,8.736c-2.444,5.72-6.968,8.892-12.584,8.892-3.276,0-5.772-.988-6.968-2.7-1.04-1.56-1.352-3.432-1.352-8.372,0-3.692.312-14.248.52-19.084a47.534,47.534,0,0,1,.624-7.02Zm98.54,36.036c-.728-.416-.988-.624-1.872-1.2-5.616-3.952-9.672-5.98-14.248-7.332-.052-1.248-.052-1.248-.208-6.292,2.028-.1,2.808-.156,3.536-.208,3.9-.364,6.24-.624,7.02-.728,1.2-.156,2.5-.312,3.38-.364l-.156-5.72a38.484,38.484,0,0,1-6.448,1.144c-4.784.52-4.784.52-7.384.676-.052-3.224-.052-3.848-.1-5.148,4.576-.26,6.6-.416,11.18-1.04a32.524,32.524,0,0,1,4.108-.468l-.26-5.772c-3.38.988-7.9,1.56-14.976,1.976a32.241,32.241,0,0,1,.364-6.344h-6.6c.208,1.3.208,1.352.26,6.552-1.3.052-3.068.1-3.9.1-5.98,0-11.336-.416-13.988-1.092l-.052,5.772h.832c.156,0,.572,0,1.144.052,3.484.26,10.192.52,12.74.52.78,0,1.612,0,3.276-.052.052,2.964.052,4.732.052,5.2-1.456.052-3.224.1-4.264.1a67.052,67.052,0,0,1-12.116-.884l-.1,5.616c.78,0,1.3,0,1.976.052,4.316.312,6.24.364,9.412.364,1.092,0,2.7-.052,5.2-.1.052,2.08.052,2.08.1,2.808v1.144a10.019,10.019,0,0,1,.052,1.248,27.168,27.168,0,0,0-3.484-.208c-8.736,0-13.884,3.328-13.884,9,0,5.148,4.368,8.112,11.96,8.112,3.8,0,6.6-.728,8.58-2.236s2.912-3.744,2.912-7.02v-.572a23.138,23.138,0,0,1,2.808,1.3,35.087,35.087,0,0,1,9.62,7.124Zm-21.944-4v1.248a6.592,6.592,0,0,1-.624,3.328c-.728,1.04-2.34,1.664-4.524,1.664-3.692,0-5.928-1.2-5.928-3.12,0-2.236,2.548-3.588,6.76-3.588A18.25,18.25,0,0,1,399.2,80.484ZM470.34,62.336v-3.38c4.108-.1,5.044-.1,6.292-.1,4.316,0,6.812.1,8.736.26l-.052-5.98c-1.924.208-5.98.312-15.028.364a40.888,40.888,0,0,1,.26-6.188L464,47.36c.26,1.352.26,1.352.312,6.292-2.7.1-2.7.1-4.42.156-4.264.1-4.784.1-8.164.208-6.708.26-7.54.26-8.84.26a22.645,22.645,0,0,1-2.548-.1l.208,6.188c1.4-.208,1.4-.208,9.256-.78,2.288-.156,7.176-.312,14.612-.52,0,1.4,0,4.316.052,4.42a2.143,2.143,0,0,0,.052.624,8.69,8.69,0,0,0-5.408-1.56c-6.032,0-10.348,3.952-10.348,9.464a8.125,8.125,0,0,0,3.588,7.02A9.583,9.583,0,0,0,458.38,80.9c3.432,0,6.136-1.3,7.644-3.692-.416,2.912-2.5,5.564-6.032,7.592-2.444,1.456-4.576,2.184-8.84,3.016a17.066,17.066,0,0,1,3.692,5.876c4.836-1.664,7.228-2.756,9.412-4.264C469.3,85.944,472,81.056,472,75.388a15.825,15.825,0,0,0-1.664-7.332c0-.624-.052-1.04-.052-1.248Zm-5.98,8.58c0,2.7-2.132,4.68-5.1,4.68a4.1,4.1,0,0,1-4.42-4.108c0-2.288,2.184-4.16,4.836-4.16C462.54,67.328,464.36,68.732,464.36,70.916Z" transform="translate(180 472)"/>
    </g>
  </g>
</svg>
