<svg xmlns="http://www.w3.org/2000/svg" xmlns:xlink="http://www.w3.org/1999/xlink" width="1820" height="880" viewBox="0 0 1820 880">
  <defs>
    <clipPath id="clip-path">
      <rect id="矩形_2253" data-name="矩形 2253" width="1820" height="880" fill="#fff"/>
    </clipPath>
  </defs>
  <g id="关于我们-EN" transform="translate(-10461 2350)">
    <g id="关于我们_EN" transform="translate(0 617)">
      <g id="组_21898" data-name="组 21898" transform="translate(-12.34 1402.6)">
        <path id="路径_39857" data-name="路径 39857" d="M211.947-1.21h6.709a39.97,39.97,0,0,1-.4-6.212V-20.79c0-3.379-.646-5.268-2.336-6.858-2.137-2.087-5.019-2.932-9.79-2.932-4.274,0-7.057.745-9.492,2.534-1.888,1.342-2.783,2.634-3.926,5.516l6.361,1.143c.6-1.789,1.044-2.485,1.988-3.181a8.966,8.966,0,0,1,5.168-1.441c3.777,0,5.715,1.491,5.715,4.373V-19.1c-7.107.149-10.784.646-14.014,1.988a8.816,8.816,0,0,0-5.616,8.051c0,5.218,3.678,8.349,9.74,8.349a17.584,17.584,0,0,0,4.622-.6,10.776,10.776,0,0,0,5.268-3.131Zm0-11.082a5.922,5.922,0,0,1-1.789,4.373,10.091,10.091,0,0,1-6.908,2.634c-2.783,0-4.522-1.441-4.522-3.777,0-3.876,3.727-5.516,13.219-5.715ZM269-1.21a33.964,33.964,0,0,1,1.242-4.721l5.516-17.642c1.292-4.125,1.391-4.522,2.038-6.162h-7.305a30.854,30.854,0,0,1-1.093,5.914l-2.783,9.939c-.1.348-.447,1.938-.6,2.634s-.149.7-.249,1.093c-.1-.447-.149-.5-.3-1.143-.3-1.044-.547-1.988-.7-2.435L261.1-25.014a48.742,48.742,0,0,1-1.242-4.721h-5.317a35.505,35.505,0,0,1-1.242,4.721l-3.578,10.834c-.2.6-1.044,3.528-1.143,4.025-.4-1.938-.7-3.33-.895-3.976l-2.733-9.691a34.391,34.391,0,0,1-1.093-5.914H236.5c.7,1.839,1.391,3.876,2.087,6.162l5.467,17.642a40.528,40.528,0,0,1,1.292,4.721h5.765A47.85,47.85,0,0,1,252.4-5.931l3.827-11.629c.149-.5.745-2.534.994-3.429.547,2.038.845,3.131.944,3.33l3.827,11.728a40.178,40.178,0,0,1,1.242,4.721Zm25.047.944c8.846,0,14.66-6.063,14.66-15.257S302.99-30.58,294-30.58c-9.045,0-14.809,5.914-14.809,15.157C279.186-6.13,284.95-.266,294.045-.266ZM294-25.412c5.268,0,8.3,3.678,8.3,10.088,0,6.063-3.181,9.79-8.349,9.79S285.6-9.31,285.6-15.423C285.6-21.635,288.777-25.412,294-25.412ZM333.5-29.735a25.767,25.767,0,0,0-4.622-.547c-4.473,0-7.554,1.69-9.343,5.218v-4.671H312.78a39.289,39.289,0,0,1,.348,6.46v15.6a54.51,54.51,0,0,1-.348,6.46h7.107a52.259,52.259,0,0,1-.348-6.46v-9.194a8,8,0,0,1,2.038-4.97,7.093,7.093,0,0,1,5.765-2.435,14.84,14.84,0,0,1,4.423.8Zm2.634-11.033a44.813,44.813,0,0,1,.348,6.46V-7.67a48.122,48.122,0,0,1-.348,6.46h7.206A51.189,51.189,0,0,1,343-7.67V-34.258a46.04,46.04,0,0,1,.348-6.51ZM370.924-1.21h6.61a52.169,52.169,0,0,1-.348-6.709v-26.19a57.953,57.953,0,0,1,.348-6.659h-7.007a50.657,50.657,0,0,1,.348,6.709v4.97c0,.845,0,1.789.05,2.137.05.994.05.994.05,1.59A12.655,12.655,0,0,0,368.44-28.1a11.8,11.8,0,0,0-7.554-2.286c-8.2,0-13.418,5.765-13.418,14.859,0,5.367,1.839,9.889,5.168,12.474a12.636,12.636,0,0,0,8.3,2.534c4.82,0,7.454-1.292,10.039-4.92-.05.646-.05,1.193-.05,1.789Zm-17-14.263c0-5.914,3.081-9.691,7.9-9.691a9.1,9.1,0,0,1,6.46,2.783,10.319,10.319,0,0,1,2.385,6.61,11.241,11.241,0,0,1-1.938,6.659,8.31,8.31,0,0,1-6.659,3.28C357.109-5.832,353.928-9.559,353.928-15.473Zm47.708-21.916a57.2,57.2,0,0,1,.348,6.113v1.541h-1.839a22.826,22.826,0,0,1-4.473-.3v5.864a25.1,25.1,0,0,1,4.423-.3h1.888v16.7c0,5.218,2.286,7.256,8,7.256A15.551,15.551,0,0,0,416.2-1.558L415.3-6.826a6.573,6.573,0,0,1-3.628,1.093c-2.385,0-3.28-.895-3.28-3.33V-24.468h2.236a27.4,27.4,0,0,1,4.87.3v-5.864a28.551,28.551,0,0,1-5.019.3H408.4v-1.541a54.964,54.964,0,0,1,.348-6.113Zm17.294-3.379a46.5,46.5,0,0,1,.348,6.51V-7.67a40.844,40.844,0,0,1-.4,6.46h7.156a44.215,44.215,0,0,1-.4-6.46V-17.709c2.236-4.97,5.119-7.355,8.846-7.355a4.614,4.614,0,0,1,3.429,1.441c.944.994,1.441,2.634,1.441,4.92V-7.67a52.815,52.815,0,0,1-.348,6.46h7.206a39.271,39.271,0,0,1-.4-6.46V-20.194c0-6.411-3.628-10.039-9.989-10.039-4.522,0-7.206,1.391-10.287,5.268a20.382,20.382,0,0,0,.1-2.137v-7.107a47.762,47.762,0,0,1,.348-6.56ZM470.217-1.21h6.709a39.972,39.972,0,0,1-.4-6.212V-20.79c0-3.379-.646-5.268-2.336-6.858-2.137-2.087-5.019-2.932-9.79-2.932-4.274,0-7.057.745-9.492,2.534-1.888,1.342-2.783,2.634-3.926,5.516l6.361,1.143c.6-1.789,1.044-2.485,1.988-3.181a8.965,8.965,0,0,1,5.168-1.441c3.777,0,5.715,1.491,5.715,4.373V-19.1c-7.107.149-10.784.646-14.014,1.988a8.816,8.816,0,0,0-5.616,8.051c0,5.218,3.678,8.349,9.74,8.349a17.584,17.584,0,0,0,4.622-.6,10.776,10.776,0,0,0,5.268-3.131Zm0-11.082a5.923,5.923,0,0,1-1.789,4.373,10.091,10.091,0,0,1-6.908,2.634c-2.783,0-4.522-1.441-4.522-3.777,0-3.876,3.727-5.516,13.219-5.715Zm14.958-25.1a57.207,57.207,0,0,1,.348,6.113v1.541h-1.839a22.826,22.826,0,0,1-4.473-.3v5.864a25.1,25.1,0,0,1,4.423-.3h1.888v16.7c0,5.218,2.286,7.256,8,7.256a15.551,15.551,0,0,0,6.212-1.044l-.895-5.268a6.573,6.573,0,0,1-3.628,1.093c-2.385,0-3.28-.895-3.28-3.33V-24.468h2.236a27.4,27.4,0,0,1,4.87.3v-5.864a28.551,28.551,0,0,1-5.019.3h-2.087v-1.541a54.964,54.964,0,0,1,.348-6.113Zm32.8-3.379v6.311h7.305v-6.311Zm0,11.033a40.847,40.847,0,0,1,.4,6.46v15.6a44.665,44.665,0,0,1-.4,6.46h7.256a49.936,49.936,0,0,1-.348-6.51V-23.225a44.682,44.682,0,0,1,.348-6.51ZM537.6-1.21a44.22,44.22,0,0,1-.4-6.46V-17.709c2.187-4.92,5.119-7.4,8.7-7.4a4.674,4.674,0,0,1,4.174,2.038,8.163,8.163,0,0,1,.845,4.373V-7.67a52.815,52.815,0,0,1-.348,6.46h7.206a39.275,39.275,0,0,1-.4-6.46V-19.6c0-3.33-.5-5.317-1.69-6.957-1.789-2.435-4.622-3.678-8.448-3.678-4.473,0-7.106,1.391-10.138,5.268a19.411,19.411,0,0,0,.1-2.137v-2.634h-6.759a40.847,40.847,0,0,1,.4,6.46v15.6a41.252,41.252,0,0,1-.4,6.46Zm24.053-8.1A11.176,11.176,0,0,0,563.6-4.888c2.137,2.882,5.964,4.423,11.082,4.423,4.522,0,8-1.093,10.287-3.23A7.991,7.991,0,0,0,587.4-9.31a7.063,7.063,0,0,0-2.882-6.162c-1.64-1.242-3.678-1.938-8.747-3.031A20.933,20.933,0,0,1,570.8-20a2.678,2.678,0,0,1-1.541-2.336c0-2.087,2.087-3.479,5.168-3.479,3.23,0,4.92,1.193,5.466,3.926l6.56-.845a9.674,9.674,0,0,0-2.684-4.92c-2.038-1.888-5.268-2.882-9.343-2.882-4.522,0-7.9,1.292-9.939,3.876a7.394,7.394,0,0,0-1.541,4.622,7.116,7.116,0,0,0,4.373,6.61,30.041,30.041,0,0,0,7.156,2.137c3.976.895,4.274.944,5.218,1.59a3.038,3.038,0,0,1,1.292,2.485c0,2.336-2.286,3.777-5.964,3.777-3.876,0-5.715-1.342-6.56-4.721Zm36.328-20.425h-6.61a51.346,51.346,0,0,1,.348,6.659v25a55.636,55.636,0,0,1-.348,6.56h7.007a49.531,49.531,0,0,1-.348-6.61V-1.906c0-.895,0-1.789-.05-2.137-.05-.994-.05-.994-.05-1.59C600.321-2.4,603.6-.862,607.974-.862c8.448,0,13.468-5.516,13.468-14.66,0-5.019-1.292-8.746-3.926-11.43-2.286-2.286-5.467-3.479-9.442-3.479a11.572,11.572,0,0,0-10.138,4.87c.05-.646.05-1.193.05-1.739Zm17,14.114c0,5.864-3.031,9.542-7.9,9.542-5.168,0-8.846-3.976-8.846-9.641,0-5.317,3.727-9.393,8.647-9.393C611.9-25.114,614.981-21.486,614.981-15.622Zm10.585-25.146v6.311h7.305v-6.311Zm0,11.033a40.847,40.847,0,0,1,.4,6.46v15.6a44.665,44.665,0,0,1-.4,6.46h7.256a49.935,49.935,0,0,1-.348-6.51V-23.225a44.68,44.68,0,0,1,.348-6.51Zm33.3,0a25.768,25.768,0,0,0-4.622-.547c-4.473,0-7.554,1.69-9.343,5.218v-4.671H638.14a39.284,39.284,0,0,1,.348,6.46v15.6a54.51,54.51,0,0,1-.348,6.46h7.107a52.278,52.278,0,0,1-.348-6.46v-9.194a8,8,0,0,1,2.037-4.97,7.093,7.093,0,0,1,5.765-2.435,14.841,14.841,0,0,1,4.423.8Zm29.37,15.9c-.1-1.143-.1-1.292-.1-1.391a20.429,20.429,0,0,0-1.441-7.554c-1.988-4.97-6.56-7.852-12.374-7.852-8.5,0-14.014,6.013-14.014,15.207,0,9.293,5.566,15.157,14.362,15.157A14.113,14.113,0,0,0,684.9-4.092a13.967,13.967,0,0,0,3.031-4.572l-5.864-1.888a7.224,7.224,0,0,1-1.441,2.584,7.858,7.858,0,0,1-5.964,2.485,7.811,7.811,0,0,1-6.212-2.783c-1.143-1.441-1.59-2.833-1.839-5.566Zm-21.469-4.92c.745-4.174,3.578-6.759,7.454-6.759a7.087,7.087,0,0,1,5.367,1.988,7.8,7.8,0,0,1,2.187,4.771ZM690.917-9.31a11.177,11.177,0,0,0,1.938,4.423c2.137,2.882,5.964,4.423,11.082,4.423,4.522,0,8-1.093,10.287-3.23a7.991,7.991,0,0,0,2.435-5.616,7.063,7.063,0,0,0-2.882-6.162c-1.64-1.242-3.678-1.938-8.746-3.031A20.933,20.933,0,0,1,700.061-20a2.678,2.678,0,0,1-1.541-2.336c0-2.087,2.087-3.479,5.168-3.479,3.23,0,4.92,1.193,5.466,3.926l6.56-.845a9.674,9.674,0,0,0-2.684-4.92c-2.038-1.888-5.268-2.882-9.343-2.882-4.522,0-7.9,1.292-9.939,3.876a7.394,7.394,0,0,0-1.541,4.622,7.116,7.116,0,0,0,4.373,6.61,30.041,30.041,0,0,0,7.156,2.137c3.976.895,4.274.944,5.218,1.59a3.038,3.038,0,0,1,1.292,2.485c0,2.336-2.286,3.777-5.964,3.777-3.876,0-5.715-1.342-6.56-4.721ZM3.274,54.8a46.5,46.5,0,0,1,.348,6.51V87.9a40.845,40.845,0,0,1-.4,6.46H10.38a44.217,44.217,0,0,1-.4-6.46V77.86c2.236-4.97,5.119-7.355,8.846-7.355a4.614,4.614,0,0,1,3.429,1.441c.944.994,1.441,2.634,1.441,4.92V87.9a52.813,52.813,0,0,1-.348,6.46h7.206a39.272,39.272,0,0,1-.4-6.46V75.375c0-6.411-3.628-10.039-9.989-10.039-4.522,0-7.206,1.391-10.287,5.268a20.382,20.382,0,0,0,.1-2.137V61.361a47.761,47.761,0,0,1,.348-6.56ZM55.753,65.834a52.431,52.431,0,0,1,.4,6.46V82.333c-2.236,4.92-5.069,7.355-8.647,7.355a6.183,6.183,0,0,1-2.733-.7c-1.541-.944-2.286-2.783-2.286-5.665V72.294a44.479,44.479,0,0,1,.348-6.46H35.626a45.678,45.678,0,0,1,.4,6.46V84.867c0,4.075,1.292,6.858,4.025,8.6a10.826,10.826,0,0,0,5.964,1.441c4.721,0,7.454-1.441,10.188-5.317-.05,1.242-.05,1.391-.05,2.137v2.634h6.759a40.845,40.845,0,0,1-.4-6.46v-15.6a35.981,35.981,0,0,1,.4-6.46ZM75.134,94.359a51.722,51.722,0,0,1-.348-6.46v-9.84a11.221,11.221,0,0,1,2.137-4.97,6.156,6.156,0,0,1,5.119-2.584c3.23,0,4.821,2.087,4.821,6.262V87.9a40.446,40.446,0,0,1-.4,6.46h7.156a48.616,48.616,0,0,1-.348-6.46v-9.84c.6-3.081,1.391-4.671,3.131-6.162a5.748,5.748,0,0,1,4.075-1.491c3.33,0,4.87,1.988,4.87,6.361V87.9a39.272,39.272,0,0,1-.4,6.46h7.256a40.444,40.444,0,0,1-.4-6.46V75.624c0-3.528-.7-5.765-2.336-7.554a9.807,9.807,0,0,0-7.454-2.833,10.979,10.979,0,0,0-5.566,1.292c-1.541.8-2.485,1.69-4.174,3.926a6.442,6.442,0,0,0-1.888-2.982,8.914,8.914,0,0,0-6.411-2.236c-4.125,0-7.8,1.938-9.243,4.97.05-.8.05-1.541.05-1.839V65.834H68.127a43.47,43.47,0,0,1,.348,6.46V87.9a50.139,50.139,0,0,1-.348,6.46Zm61.076,0h6.709a39.97,39.97,0,0,1-.4-6.212V74.779c0-3.379-.646-5.268-2.336-6.858-2.137-2.087-5.019-2.932-9.79-2.932-4.274,0-7.057.745-9.492,2.534-1.888,1.342-2.783,2.634-3.926,5.516l6.361,1.143c.6-1.789,1.044-2.485,1.988-3.181a8.966,8.966,0,0,1,5.168-1.441c3.777,0,5.715,1.491,5.715,4.373v2.534c-7.107.149-10.784.646-14.014,1.988a8.816,8.816,0,0,0-5.616,8.051c0,5.218,3.677,8.349,9.74,8.349a17.584,17.584,0,0,0,4.622-.6,10.776,10.776,0,0,0,5.268-3.131Zm0-11.082a5.922,5.922,0,0,1-1.789,4.373,10.091,10.091,0,0,1-6.908,2.634c-2.783,0-4.522-1.441-4.522-3.777,0-3.876,3.727-5.516,13.219-5.715ZM155,94.359a44.215,44.215,0,0,1-.4-6.46V77.86c2.187-4.92,5.119-7.4,8.7-7.4a4.674,4.674,0,0,1,4.174,2.038,8.164,8.164,0,0,1,.845,4.373V87.9a52.812,52.812,0,0,1-.348,6.46h7.206a39.271,39.271,0,0,1-.4-6.46V75.972c0-3.33-.5-5.317-1.69-6.957-1.789-2.435-4.622-3.677-8.448-3.677-4.473,0-7.107,1.391-10.138,5.268a19.417,19.417,0,0,0,.1-2.137V65.834h-6.759a40.846,40.846,0,0,1,.4,6.46V87.9a41.25,41.25,0,0,1-.4,6.46Zm24.053-8.1a11.178,11.178,0,0,0,1.938,4.423c2.137,2.882,5.964,4.423,11.082,4.423,4.522,0,8-1.093,10.287-3.23a7.991,7.991,0,0,0,2.435-5.616,7.063,7.063,0,0,0-2.882-6.162c-1.64-1.242-3.677-1.938-8.746-3.031a20.933,20.933,0,0,1-4.97-1.491,2.678,2.678,0,0,1-1.541-2.336c0-2.087,2.087-3.479,5.168-3.479,3.23,0,4.92,1.193,5.467,3.926l6.56-.845a9.674,9.674,0,0,0-2.684-4.92c-2.038-1.888-5.268-2.882-9.343-2.882-4.522,0-7.9,1.292-9.939,3.876a7.394,7.394,0,0,0-1.541,4.622,7.116,7.116,0,0,0,4.373,6.61,30.042,30.042,0,0,0,7.156,2.137c3.976.895,4.274.944,5.218,1.59a3.038,3.038,0,0,1,1.292,2.485c0,2.336-2.286,3.777-5.964,3.777-3.876,0-5.715-1.342-6.56-4.721Zm48.6-28.078A57.2,57.2,0,0,1,228,64.293v1.541H226.16a22.825,22.825,0,0,1-4.473-.3V71.4a25.1,25.1,0,0,1,4.423-.3H228V87.8c0,5.218,2.286,7.256,8,7.256a15.551,15.551,0,0,0,6.212-1.044l-.895-5.268a6.573,6.573,0,0,1-3.628,1.093c-2.385,0-3.28-.895-3.28-3.33V71.1h2.236a27.4,27.4,0,0,1,4.87.3V65.535a28.551,28.551,0,0,1-5.019.3H234.41V64.293a54.967,54.967,0,0,1,.348-6.113ZM258.562,95.3c8.846,0,14.66-6.063,14.66-15.257s-5.715-15.058-14.71-15.058c-9.045,0-14.809,5.914-14.809,15.157C243.7,89.439,249.468,95.3,258.562,95.3Zm-.05-25.146c5.268,0,8.3,3.677,8.3,10.088,0,6.063-3.181,9.79-8.349,9.79s-8.349-3.777-8.349-9.889C250.114,73.934,253.294,70.157,258.512,70.157Zm44.577,3.777a16.543,16.543,0,0,0-1.739-3.628c-2.385-3.479-6.262-5.367-11.132-5.367a13.608,13.608,0,0,0-9.989,3.777,16.069,16.069,0,0,0-4.224,11.48c0,9.194,5.665,15.108,14.412,15.108,4.721,0,8.548-1.739,10.933-5.019a13.914,13.914,0,0,0,2.087-4.224l-6.162-1.242a6.945,6.945,0,0,1-.994,2.485,6.652,6.652,0,0,1-5.715,2.783c-5.019,0-8.1-3.827-8.1-10.039,0-6.162,3.031-9.989,7.9-9.989a6.253,6.253,0,0,1,5.119,2.286,8.955,8.955,0,0,1,1.541,3.031ZM320.93,95.3c8.846,0,14.66-6.063,14.66-15.257s-5.715-15.058-14.71-15.058c-9.045,0-14.809,5.914-14.809,15.157C306.071,89.439,311.836,95.3,320.93,95.3Zm-.05-25.146c5.268,0,8.3,3.677,8.3,10.088,0,6.063-3.181,9.79-8.349,9.79s-8.349-3.777-8.349-9.889C312.482,73.934,315.663,70.157,320.881,70.157Zm25.842,24.2a44.215,44.215,0,0,1-.4-6.46V77.86c2.187-4.92,5.119-7.4,8.7-7.4a4.674,4.674,0,0,1,4.174,2.038,8.164,8.164,0,0,1,.845,4.373V87.9a52.808,52.808,0,0,1-.348,6.46H366.9a39.271,39.271,0,0,1-.4-6.46V75.972c0-3.33-.5-5.317-1.69-6.957-1.789-2.435-4.622-3.677-8.448-3.677-4.473,0-7.107,1.391-10.138,5.268a19.417,19.417,0,0,0,.1-2.137V65.834h-6.759a40.844,40.844,0,0,1,.4,6.46V87.9a41.248,41.248,0,0,1-.4,6.46Zm32.451,0a44.215,44.215,0,0,1-.4-6.46V77.86c2.187-4.92,5.119-7.4,8.7-7.4a4.674,4.674,0,0,1,4.174,2.038,8.164,8.164,0,0,1,.845,4.373V87.9a52.815,52.815,0,0,1-.348,6.46h7.206a39.271,39.271,0,0,1-.4-6.46V75.972c0-3.33-.5-5.317-1.69-6.957-1.789-2.435-4.622-3.677-8.448-3.677-4.473,0-7.107,1.391-10.138,5.268a19.417,19.417,0,0,0,.1-2.137V65.834h-6.759a40.844,40.844,0,0,1,.4,6.46V87.9a41.248,41.248,0,0,1-.4,6.46Zm52.032-12.623c-.1-1.143-.1-1.292-.1-1.391a20.43,20.43,0,0,0-1.441-7.554c-1.988-4.97-6.56-7.852-12.374-7.852-8.5,0-14.014,6.013-14.014,15.207,0,9.293,5.566,15.157,14.362,15.157a14.113,14.113,0,0,0,10.237-3.827,13.966,13.966,0,0,0,3.031-4.572l-5.864-1.888A7.223,7.223,0,0,1,423.6,87.6a8.36,8.36,0,0,1-12.176-.3c-1.143-1.441-1.59-2.833-1.839-5.566Zm-21.469-4.92c.745-4.174,3.578-6.759,7.454-6.759a7.087,7.087,0,0,1,5.367,1.988,7.8,7.8,0,0,1,2.187,4.771Zm51.286-2.882a16.541,16.541,0,0,0-1.739-3.628c-2.385-3.479-6.262-5.367-11.132-5.367a13.608,13.608,0,0,0-9.989,3.777,16.069,16.069,0,0,0-4.224,11.48c0,9.194,5.665,15.108,14.412,15.108,4.721,0,8.548-1.739,10.933-5.019a13.914,13.914,0,0,0,2.087-4.224l-6.162-1.242a6.945,6.945,0,0,1-.994,2.485,6.653,6.653,0,0,1-5.715,2.783c-5.019,0-8.1-3.827-8.1-10.039,0-6.162,3.031-9.989,7.9-9.989a6.252,6.252,0,0,1,5.119,2.286,8.955,8.955,0,0,1,1.541,3.031Zm7.5-15.754a57.207,57.207,0,0,1,.348,6.113v1.541h-1.839a22.826,22.826,0,0,1-4.473-.3V71.4a25.1,25.1,0,0,1,4.423-.3h1.888V87.8c0,5.218,2.286,7.256,8,7.256a15.551,15.551,0,0,0,6.212-1.044l-.895-5.268a6.573,6.573,0,0,1-3.628,1.093c-2.385,0-3.28-.895-3.28-3.33V71.1h2.236a27.4,27.4,0,0,1,4.87.3V65.535a28.551,28.551,0,0,1-5.019.3h-2.087V64.293a54.964,54.964,0,0,1,.348-6.113Zm62.667,36.179a33.97,33.97,0,0,1,1.242-4.721L537.953,72c1.292-4.125,1.392-4.522,2.038-6.162h-7.305a30.849,30.849,0,0,1-1.093,5.914l-2.783,9.939c-.1.348-.447,1.938-.6,2.634s-.149.7-.248,1.093c-.1-.447-.149-.5-.3-1.143-.3-1.044-.547-1.988-.7-2.435l-3.677-11.281a48.734,48.734,0,0,1-1.242-4.721h-5.317a35.5,35.5,0,0,1-1.242,4.721l-3.578,10.834c-.2.6-1.044,3.528-1.143,4.025-.4-1.938-.7-3.33-.895-3.976l-2.733-9.691a34.4,34.4,0,0,1-1.093-5.914h-7.355c.7,1.839,1.391,3.876,2.087,6.162l5.467,17.642a40.537,40.537,0,0,1,1.292,4.721H513.3a47.85,47.85,0,0,1,1.292-4.721l3.827-11.629c.149-.5.745-2.534.994-3.429.547,2.038.845,3.131.944,3.33l3.827,11.728a40.173,40.173,0,0,1,1.242,4.721ZM542.574,54.8v6.311h7.305V54.8Zm0,11.033a40.847,40.847,0,0,1,.4,6.46V87.9a44.665,44.665,0,0,1-.4,6.46h7.256a49.924,49.924,0,0,1-.348-6.51V72.344a44.671,44.671,0,0,1,.348-6.51Zm15.8-7.653a57.2,57.2,0,0,1,.348,6.113v1.541h-1.839a22.825,22.825,0,0,1-4.473-.3V71.4a25.1,25.1,0,0,1,4.423-.3h1.888V87.8c0,5.218,2.286,7.256,8,7.256a15.551,15.551,0,0,0,6.212-1.044l-.895-5.268a6.573,6.573,0,0,1-3.628,1.093c-2.385,0-3.28-.895-3.28-3.33V71.1h2.236a27.4,27.4,0,0,1,4.87.3V65.535a28.551,28.551,0,0,1-5.019.3h-2.087V64.293a54.964,54.964,0,0,1,.348-6.113ZM575.672,54.8a46.505,46.505,0,0,1,.348,6.51V87.9a40.847,40.847,0,0,1-.4,6.46h7.156a44.22,44.22,0,0,1-.4-6.46V77.86c2.236-4.97,5.119-7.355,8.846-7.355a4.614,4.614,0,0,1,3.429,1.441c.944.994,1.441,2.634,1.441,4.92V87.9a52.815,52.815,0,0,1-.348,6.46h7.206a39.275,39.275,0,0,1-.4-6.46V75.375c0-6.411-3.628-10.039-9.989-10.039-4.522,0-7.206,1.391-10.287,5.268a20.375,20.375,0,0,0,.1-2.137V61.361a47.763,47.763,0,0,1,.348-6.56Zm74.693,26.935c-.1-1.143-.1-1.292-.1-1.391a20.429,20.429,0,0,0-1.441-7.554c-1.988-4.97-6.56-7.852-12.374-7.852-8.5,0-14.014,6.013-14.014,15.207C622.436,89.439,628,95.3,636.8,95.3a14.113,14.113,0,0,0,10.237-3.827,13.967,13.967,0,0,0,3.031-4.572L644.2,85.016a7.224,7.224,0,0,1-1.441,2.584,8.36,8.36,0,0,1-12.175-.3c-1.143-1.441-1.59-2.833-1.839-5.566ZM628.9,76.816c.745-4.174,3.578-6.759,7.454-6.759a7.087,7.087,0,0,1,5.367,1.988,7.8,7.8,0,0,1,2.187,4.771Zm44.279,17.543h6.709a39.964,39.964,0,0,1-.4-6.212V74.779c0-3.379-.646-5.268-2.336-6.858-2.137-2.087-5.019-2.932-9.79-2.932-4.274,0-7.057.745-9.492,2.534-1.888,1.342-2.783,2.634-3.926,5.516l6.361,1.143c.6-1.789,1.044-2.485,1.988-3.181a8.966,8.966,0,0,1,5.168-1.441c3.777,0,5.715,1.491,5.715,4.373v2.534c-7.107.149-10.784.646-14.014,1.988a8.816,8.816,0,0,0-5.616,8.051c0,5.218,3.677,8.349,9.74,8.349a17.584,17.584,0,0,0,4.622-.6,10.776,10.776,0,0,0,5.268-3.131Zm0-11.082a5.923,5.923,0,0,1-1.789,4.373,10.091,10.091,0,0,1-6.908,2.634c-2.783,0-4.522-1.441-4.522-3.777,0-3.876,3.727-5.516,13.219-5.715Zm37.52-9.343a16.539,16.539,0,0,0-1.739-3.628c-2.385-3.479-6.262-5.367-11.132-5.367a13.608,13.608,0,0,0-9.989,3.777,16.069,16.069,0,0,0-4.224,11.48c0,9.194,5.665,15.108,14.412,15.108,4.721,0,8.548-1.739,10.933-5.019a13.914,13.914,0,0,0,2.087-4.224l-6.162-1.242a6.948,6.948,0,0,1-.994,2.485,6.653,6.653,0,0,1-5.715,2.783c-5.019,0-8.1-3.827-8.1-10.039,0-6.162,3.031-9.989,7.9-9.989a6.253,6.253,0,0,1,5.119,2.286,8.954,8.954,0,0,1,1.541,3.031ZM714.92,54.8a46.507,46.507,0,0,1,.348,6.51V87.9a40.84,40.84,0,0,1-.4,6.46h7.156a44.228,44.228,0,0,1-.4-6.46V77.86c2.236-4.97,5.119-7.355,8.846-7.355a4.614,4.614,0,0,1,3.429,1.441c.944.994,1.441,2.634,1.441,4.92V87.9a52.815,52.815,0,0,1-.348,6.46H742.2a39.282,39.282,0,0,1-.4-6.46V75.375c0-6.411-3.628-10.039-9.989-10.039-4.522,0-7.206,1.391-10.287,5.268a20.388,20.388,0,0,0,.1-2.137V61.361a47.773,47.773,0,0,1,.348-6.56Zm61.623,40.5c8.846,0,14.66-6.063,14.66-15.257s-5.715-15.058-14.71-15.058c-9.045,0-14.809,5.914-14.809,15.157C761.684,89.439,767.448,95.3,776.543,95.3Zm-.05-25.146c5.268,0,8.3,3.677,8.3,10.088,0,6.063-3.181,9.79-8.349,9.79s-8.349-3.777-8.349-9.889C768.095,73.934,771.275,70.157,776.493,70.157ZM798.508,58.18a57.2,57.2,0,0,1,.348,6.113v1.541h-1.839a22.825,22.825,0,0,1-4.473-.3V71.4a25.1,25.1,0,0,1,4.423-.3h1.888V87.8c0,5.218,2.286,7.256,8,7.256a15.551,15.551,0,0,0,6.212-1.044l-.895-5.268a6.573,6.573,0,0,1-3.628,1.093c-2.385,0-3.28-.895-3.28-3.33V71.1H807.5a27.4,27.4,0,0,1,4.87.3V65.535a28.551,28.551,0,0,1-5.019.3h-2.087V64.293a54.964,54.964,0,0,1,.348-6.113ZM815.8,54.8a46.507,46.507,0,0,1,.348,6.51V87.9a40.84,40.84,0,0,1-.4,6.46h7.156a44.228,44.228,0,0,1-.4-6.46V77.86c2.236-4.97,5.119-7.355,8.846-7.355a4.614,4.614,0,0,1,3.429,1.441c.944.994,1.441,2.634,1.441,4.92V87.9a52.815,52.815,0,0,1-.348,6.46h7.206a39.282,39.282,0,0,1-.4-6.46V75.375c0-6.411-3.628-10.039-9.989-10.039-4.522,0-7.206,1.391-10.287,5.268a20.388,20.388,0,0,0,.1-2.137V61.361a47.773,47.773,0,0,1,.348-6.56Zm59.138,26.935c-.1-1.143-.1-1.292-.1-1.391a20.429,20.429,0,0,0-1.441-7.554c-1.988-4.97-6.56-7.852-12.374-7.852-8.5,0-14.014,6.013-14.014,15.207,0,9.293,5.566,15.157,14.362,15.157a14.113,14.113,0,0,0,10.237-3.827,13.966,13.966,0,0,0,3.031-4.572l-5.864-1.888a7.224,7.224,0,0,1-1.441,2.584,8.36,8.36,0,0,1-12.176-.3c-1.143-1.441-1.59-2.833-1.839-5.566Zm-21.469-4.92c.745-4.174,3.578-6.759,7.454-6.759a7.087,7.087,0,0,1,5.367,1.988,7.8,7.8,0,0,1,2.187,4.771Zm46.217-10.983a25.768,25.768,0,0,0-4.622-.547c-4.473,0-7.554,1.69-9.343,5.218V65.834h-6.759a39.284,39.284,0,0,1,.348,6.46V87.9a54.51,54.51,0,0,1-.348,6.46h7.107a52.278,52.278,0,0,1-.348-6.46V78.7a8,8,0,0,1,2.038-4.97,7.093,7.093,0,0,1,5.765-2.435,14.841,14.841,0,0,1,4.423.8Z" transform="translate(10581 -4004)" fill="#0c111a"/>
        <path id="路径_39858" data-name="路径 39858" d="M31.616-13.312A10.622,10.622,0,0,1,29.9-8.528C28.236-6.084,25.116-4.68,21.476-4.68,14.2-4.68,9.62-10.608,9.62-20.124c0-9.568,4.472-15.34,11.856-15.34a9.416,9.416,0,0,1,7.592,3.224A10.835,10.835,0,0,1,31.3-27.768l7.228-1.664a18.493,18.493,0,0,0-1.612-4A15.964,15.964,0,0,0,31.408-39.1a18.375,18.375,0,0,0-9.984-2.5,18.068,18.068,0,0,0-13,4.94c-3.9,3.9-6.084,9.932-6.084,16.8,0,6.656,2.028,12.532,5.668,16.328C11.18-.26,15.7,1.456,21.372,1.456c6.24,0,11.232-2.028,14.2-5.668a19.868,19.868,0,0,0,3.484-7.8ZM65.208-29.224a26.961,26.961,0,0,0-4.836-.572c-4.68,0-7.9,1.768-9.776,5.46v-4.888H43.524a41.111,41.111,0,0,1,.364,6.76V-6.136a57.036,57.036,0,0,1-.364,6.76H50.96a54.688,54.688,0,0,1-.364-6.76v-9.62a8.37,8.37,0,0,1,2.132-5.2A7.422,7.422,0,0,1,58.76-23.5a15.529,15.529,0,0,1,4.628.832ZM95.94-12.584c-.1-1.2-.1-1.352-.1-1.456a21.377,21.377,0,0,0-1.508-7.9c-2.08-5.2-6.864-8.216-12.948-8.216-8.892,0-14.664,6.292-14.664,15.912,0,9.724,5.824,15.86,15.028,15.86a14.767,14.767,0,0,0,10.712-4,14.614,14.614,0,0,0,3.172-4.784L89.492-9.152a7.557,7.557,0,0,1-1.508,2.7,8.222,8.222,0,0,1-6.24,2.6,8.173,8.173,0,0,1-6.5-2.912c-1.2-1.508-1.664-2.964-1.924-5.824ZM73.476-17.732c.78-4.368,3.744-7.072,7.8-7.072a7.416,7.416,0,0,1,5.616,2.08,8.162,8.162,0,0,1,2.288,4.992ZM119.808.624h7.02a41.822,41.822,0,0,1-.416-6.5V-19.864c0-3.536-.676-5.512-2.444-7.176-2.236-2.184-5.252-3.068-10.244-3.068-4.472,0-7.384.78-9.932,2.652-1.976,1.4-2.912,2.756-4.108,5.772l6.656,1.2c.624-1.872,1.092-2.6,2.08-3.328a9.381,9.381,0,0,1,5.408-1.508c3.952,0,5.98,1.56,5.98,4.576V-18.1c-7.436.156-11.284.676-14.664,2.08a9.225,9.225,0,0,0-5.876,8.424c0,5.46,3.848,8.736,10.192,8.736A18.4,18.4,0,0,0,114.3.52a11.276,11.276,0,0,0,5.512-3.276Zm0-11.6A6.2,6.2,0,0,1,117.936-6.4a10.559,10.559,0,0,1-7.228,2.756c-2.912,0-4.732-1.508-4.732-3.952,0-4.056,3.9-5.772,13.832-5.98Zm15.652-26.26a59.85,59.85,0,0,1,.364,6.4v1.612H133.9a23.884,23.884,0,0,1-4.68-.312V-23.4a26.259,26.259,0,0,1,4.628-.312h1.976V-6.24c0,5.46,2.392,7.592,8.372,7.592A16.272,16.272,0,0,0,150.7.26l-.936-5.512a6.878,6.878,0,0,1-3.8,1.144c-2.5,0-3.432-.936-3.432-3.484v-16.12h2.34a28.671,28.671,0,0,1,5.1.312v-6.136a29.875,29.875,0,0,1-5.252.312h-2.184v-1.612a57.515,57.515,0,0,1,.364-6.4Zm46.02,24.648c-.1-1.2-.1-1.352-.1-1.456a21.376,21.376,0,0,0-1.508-7.9c-2.08-5.2-6.864-8.216-12.948-8.216-8.892,0-14.664,6.292-14.664,15.912,0,9.724,5.824,15.86,15.028,15.86a14.767,14.767,0,0,0,10.712-4,14.614,14.614,0,0,0,3.172-4.784l-6.136-1.976a7.558,7.558,0,0,1-1.508,2.7,8.222,8.222,0,0,1-6.24,2.6,8.173,8.173,0,0,1-6.5-2.912c-1.2-1.508-1.664-2.964-1.924-5.824Zm-22.464-5.148c.78-4.368,3.744-7.072,7.8-7.072a7.416,7.416,0,0,1,5.616,2.08,8.162,8.162,0,0,1,2.288,4.992Z" transform="translate(10581 -4004)" fill="#0080f4"/>
      </g>
      <g id="组_21795" data-name="组 21795" transform="translate(10411 -3127)">
        <g id="NAV_bg" transform="translate(50 160)" clip-path="url(#clip-path)">
          <g id="组_21480" data-name="组 21480" transform="translate(-50 27)" opacity="0.05">
            <g id="组_21478" data-name="组 21478" transform="translate(0 7.733)">
              <g id="组_21420" data-name="组 21420" transform="translate(496.006 224.522)">
                <g id="组_21418" data-name="组 21418" transform="translate(0 0)">
                  <rect id="矩形_2227" data-name="矩形 2227" width="472.183" height="1.891" transform="translate(0 84.71) rotate(-10.335)"/>
                </g>
                <g id="组_21419" data-name="组 21419" transform="translate(0 0)">
                  <rect id="矩形_2228" data-name="矩形 2228" width="472.183" height="1.891" transform="translate(0 84.71) rotate(-10.335)"/>
                </g>
              </g>
              <g id="组_21424" data-name="组 21424" transform="translate(496.139 32.308)">
                <g id="组_21421" data-name="组 21421" transform="translate(464.098 0.366)">
                  <rect id="矩形_2229" data-name="矩形 2229" width="192.908" height="1.261" transform="matrix(0.063, -0.998, 0.998, 0.063, 0, 192.522)"/>
                </g>
                <g id="组_21422" data-name="组 21422" transform="translate(0)">
                  <path id="路径_37381" data-name="路径 37381" d="M63.23,337.945l-.63-1.261L538.566,59.3l1.261,1.261Z" transform="translate(-62.6 -59.3)"/>
                </g>
                <g id="组_21423" data-name="组 21423" transform="translate(0)">
                  <path id="路径_37382" data-name="路径 37382" d="M63.23,337.945l-.63-1.261L538.566,59.3l1.261,1.261Z" transform="translate(-62.6 -59.3)"/>
                </g>
              </g>
              <g id="组_21429" data-name="组 21429" transform="translate(495.837 32.165)">
                <g id="组_21425" data-name="组 21425" transform="translate(326.765 0)">
                  <rect id="矩形_2230" data-name="矩形 2230" width="182.191" height="1.261" transform="translate(0 104.013) rotate(-34.814)"/>
                </g>
                <g id="组_21426" data-name="组 21426" transform="translate(327.17 104.435)">
                  <rect id="矩形_2231" data-name="矩形 2231" width="1.261" height="163.278" transform="matrix(0.54, -0.841, 0.841, 0.54, 0, 1.061)"/>
                </g>
                <g id="组_21427" data-name="组 21427" transform="translate(0 103.907)">
                  <rect id="矩形_2232" data-name="矩形 2232" width="370.055" height="1.261" transform="translate(0 173.556) rotate(-27.969)"/>
                </g>
                <g id="组_21428" data-name="组 21428" transform="translate(0 103.907)">
                  <rect id="矩形_2233" data-name="矩形 2233" width="370.055" height="1.261" transform="translate(0 173.556) rotate(-27.969)"/>
                </g>
              </g>
              <g id="组_21432" data-name="组 21432" transform="translate(0 309.692)">
                <g id="组_21430" data-name="组 21430">
                  <path id="路径_37383" data-name="路径 37383" d="M-16.1,576.113,480.669,104.561l-.63-1.261L-16.1,574.222Z" transform="translate(16.1 -103.3)"/>
                </g>
                <g id="组_21431" data-name="组 21431">
                  <path id="路径_37384" data-name="路径 37384" d="M-16.1,576.113,480.669,104.561l-.63-1.261L-16.1,574.222Z" transform="translate(16.1 -103.3)"/>
                </g>
              </g>
              <g id="组_21439" data-name="组 21439" transform="translate(0 136.327)">
                <g id="组_21433" data-name="组 21433" transform="translate(0 127.344)">
                  <path id="路径_37385" data-name="路径 37385" d="M-16.1,493.163,55.768,96H53.876L-16.1,484.337Z" transform="translate(16.1 -96)"/>
                </g>
                <g id="组_21434" data-name="组 21434" transform="translate(0 115.366)">
                  <path id="路径_37386" data-name="路径 37386" d="M-16.1,94.1v1.261l70.607,11.347.63-1.261Z" transform="translate(16.1 -94.1)"/>
                </g>
                <g id="组_21435" data-name="组 21435" transform="translate(70.607)">
                  <path id="路径_37387" data-name="路径 37387" d="M-4.27,203.775l-.63-1.261L747.819,75.8v1.261Z" transform="translate(4.9 -75.8)"/>
                </g>
                <g id="组_21436" data-name="组 21436" transform="translate(0 126.714)">
                  <path id="路径_37388" data-name="路径 37388" d="M-16.1,143.181,55.137,97.161l-.63-1.261L-16.1,141.29Z" transform="translate(16.1 -95.9)"/>
                </g>
                <g id="组_21437" data-name="组 21437" transform="translate(71.065 126.796)">
                  <rect id="矩形_2234" data-name="矩形 2234" width="1.261" height="428.054" transform="translate(0 1.253) rotate(-83.754)"/>
                </g>
                <g id="组_21438" data-name="组 21438" transform="translate(71.065 126.796)">
                  <rect id="矩形_2235" data-name="矩形 2235" width="1.261" height="428.054" transform="translate(0 1.253) rotate(-83.754)"/>
                </g>
              </g>
              <g id="组_21445" data-name="组 21445" transform="translate(495.939 33.135)">
                <g id="组_21440" data-name="组 21440" transform="translate(326.126 103.822)">
                  <path id="路径_37389" data-name="路径 37389" d="M215.8,741.621,114.3,75.9h1.891L217.058,741.621Z" transform="translate(-114.3 -75.9)"/>
                </g>
                <g id="组_21441" data-name="组 21441" transform="translate(427.475 0)">
                  <rect id="矩形_2236" data-name="矩形 2236" width="771.001" height="1.261" transform="translate(0 769.459) rotate(-86.406)"/>
                </g>
                <g id="组_21442" data-name="组 21442" transform="translate(427.648 192.686)">
                  <rect id="矩形_2237" data-name="矩形 2237" width="578.093" height="1.261" transform="translate(0 576.937) rotate(-86.392)"/>
                </g>
                <g id="组_21443" data-name="组 21443" transform="translate(0 276.653)">
                  <rect id="矩形_2238" data-name="矩形 2238" width="1.261" height="652.483" transform="matrix(0.755, -0.656, 0.656, 0.755, 0, 0.827)"/>
                </g>
                <g id="组_21444" data-name="组 21444" transform="translate(0 276.653)">
                  <rect id="矩形_2239" data-name="矩形 2239" width="1.261" height="652.483" transform="matrix(0.755, -0.656, 0.656, 0.755, 0, 0.827)"/>
                </g>
              </g>
              <g id="组_21453" data-name="组 21453" transform="translate(0 136.728)">
                <g id="组_21446" data-name="组 21446" transform="translate(529.871 665.909)">
                  <rect id="矩形_2240" data-name="矩形 2240" width="404.098" height="1.891" transform="matrix(0.976, -0.219, 0.219, 0.976, 0, 88.336)"/>
                </g>
                <g id="组_21447" data-name="组 21447" transform="translate(69.976 126.313)">
                  <path id="路径_37390" data-name="路径 37390" d="M454.575,725.688-5,97.161-3.739,95.9,455.836,725.057Z" transform="translate(5 -95.9)"/>
                </g>
                <g id="组_21448" data-name="组 21448" transform="translate(0 674.146)">
                  <path id="路径_37391" data-name="路径 37391" d="M-16.1,182.8v1.261l530.182,81.324v-1.891Z" transform="translate(16.1 -182.8)"/>
                </g>
                <g id="组_21449" data-name="组 21449" transform="translate(529.561)">
                  <rect id="矩形_2241" data-name="矩形 2241" width="810.087" height="1.891" transform="translate(0 755.406) rotate(-68.826)"/>
                </g>
                <g id="组_21450" data-name="组 21450" transform="translate(529.551 88.488)">
                  <path id="路径_37392" data-name="路径 37392" d="M69.161,757.513l-1.261-.63L498.476,89.9l1.261.63Z" transform="translate(-67.9 -89.9)"/>
                </g>
                <g id="组_21451" data-name="组 21451" transform="translate(495.627 173.374)">
                  <rect id="矩形_2242" data-name="矩形 2242" width="1.891" height="583.137" transform="matrix(0.998, -0.058, 0.058, 0.998, 0, 0.11)"/>
                </g>
                <g id="组_21452" data-name="组 21452" transform="translate(495.627 173.374)">
                  <rect id="矩形_2243" data-name="矩形 2243" width="1.891" height="583.137" transform="matrix(0.998, -0.058, 0.058, 0.998, 0, 0.11)"/>
                </g>
              </g>
              <g id="组_21458" data-name="组 21458" transform="translate(822.695 0)">
                <g id="组_21454" data-name="组 21454" transform="translate(552.246 0.157)">
                  <path id="路径_37393" data-name="路径 37393" d="M793.962,371.3,202.63,54.2,202,55.461l591.962,317.1Z" transform="translate(-202 -54.2)"/>
                </g>
                <g id="组_21455" data-name="组 21455" transform="translate(0 0.157)">
                  <path id="路径_37394" data-name="路径 37394" d="M115.03,191.631l-.63-1.261L666.646,54.2l.63,1.261Z" transform="translate(-114.4 -54.2)"/>
                </g>
                <g id="组_21456" data-name="组 21456" transform="translate(150.039 0.157)">
                  <path id="路径_37395" data-name="路径 37395" d="M138.2,87.612V86.351L540.407,54.2l.63,1.261Z" transform="translate(-138.2 -54.2)"/>
                </g>
                <g id="组_21457" data-name="组 21457" transform="translate(137.898)">
                  <rect id="矩形_2244" data-name="矩形 2244" width="471.553" height="1.261" transform="matrix(0.879, -0.477, 0.477, 0.879, 0, 224.789)"/>
                </g>
              </g>
              <g id="组_21461" data-name="组 21461" transform="translate(924.193 225.193)">
                <g id="组_21459" data-name="组 21459" transform="translate(0 576.855)">
                  <path id="路径_37396" data-name="路径 37396" d="M572.423,284.789,130.5,182.661V181.4L572.423,282.9Z" transform="translate(-130.5 -181.4)"/>
                </g>
                <g id="组_21460" data-name="组 21460" transform="translate(35.844 0)">
                  <rect id="矩形_2245" data-name="矩形 2245" width="1.891" height="791.175" transform="translate(0 0.97) rotate(-30.843)"/>
                </g>
              </g>
              <g id="组_21469" data-name="组 21469" transform="translate(822.695 0.025)">
                <g id="组_21462" data-name="组 21462" transform="translate(542.664 534.601)">
                  <rect id="矩形_2246" data-name="矩形 2246" width="398.424" height="1.891" transform="matrix(0.374, -0.927, 0.927, 0.374, 0, 369.459)"/>
                </g>
                <g id="组_21463" data-name="组 21463" transform="translate(551.651 0)">
                  <rect id="矩形_2247" data-name="矩形 2247" width="1.891" height="552.246" transform="matrix(0.967, -0.253, 0.253, 0.967, 0, 0.479)"/>
                </g>
                <g id="组_21464" data-name="组 21464" transform="translate(692.199 393.513)">
                  <path id="路径_37397" data-name="路径 37397" d="M676.21,116.6,224.2,257.183v1.261L676.21,118.491Z" transform="translate(-224.2 -116.6)"/>
                </g>
                <g id="组_21465" data-name="组 21465" transform="translate(101.262 533.511)">
                  <rect id="矩形_2248" data-name="矩形 2248" width="648.7" height="1.261" transform="translate(0 268.627) rotate(-24.463)"/>
                </g>
                <g id="组_21466" data-name="组 21466" transform="translate(0 136.302)">
                  <path id="路径_37398" data-name="路径 37398" d="M805.968,474.855,114.4,77.061l.63-1.261,692.2,397.794Z" transform="translate(-114.4 -75.8)"/>
                </g>
                <g id="组_21467" data-name="组 21467" transform="translate(149.585 32.046)">
                  <rect id="矩形_2249" data-name="矩形 2249" width="1.891" height="738.85" transform="translate(0 1.388) rotate(-47.229)"/>
                </g>
                <g id="组_21468" data-name="组 21468" transform="translate(137.402 224.553)">
                  <rect id="矩形_2250" data-name="矩形 2250" width="1.891" height="634.831" transform="translate(0 1.652) rotate(-60.849)"/>
                </g>
              </g>
              <g id="组_21471" data-name="组 21471" transform="translate(1514.894 534.12)">
                <g id="组_21470" data-name="组 21470">
                  <path id="路径_37399" data-name="路径 37399" d="M676.21,256.788,224.2,138.9v1.261L676.21,258.679Z" transform="translate(-224.2 -138.9)"/>
                </g>
              </g>
              <g id="组_21477" data-name="组 21477" transform="translate(924.091 497.556)">
                <g id="组_21472" data-name="组 21472" transform="translate(742.734 341.056)">
                  <path id="路径_37400" data-name="路径 37400" d="M548.379,187.2,248.3,283.654l.63,1.891,299.448-96.454Z" transform="translate(-248.3 -187.2)"/>
                </g>
                <g id="组_21473" data-name="组 21473" transform="translate(590.173 36.564)">
                  <path id="路径_37401" data-name="路径 37401" d="M376.661,541.107,224.1,139.531l1.261-.631L377.922,540.476Z" transform="translate(-224.1 -138.9)"/>
                </g>
                <g id="组_21474" data-name="组 21474" transform="translate(441.745 405.549)">
                  <rect id="矩形_2251" data-name="矩形 2251" width="1.891" height="302.601" transform="translate(0 1.881) rotate(-83.996)"/>
                </g>
                <g id="组_21475" data-name="组 21475" transform="translate(742.734)">
                  <path id="路径_37402" data-name="路径 37402" d="M548.379,133.1,248.3,571.241l1.261.63L548.379,135.622Z" transform="translate(-248.3 -133.1)"/>
                </g>
                <g id="组_21476" data-name="组 21476" transform="translate(0 304.675)">
                  <rect id="矩形_2252" data-name="矩形 2252" width="1.261" height="754.61" transform="translate(0 1.241) rotate(-79.81)"/>
                </g>
              </g>
            </g>
            <g id="组_21479" data-name="组 21479" transform="translate(62.717)">
              <path id="路径_37403" data-name="路径 37403" d="M71.76,118.234a8.183,8.183,0,1,1,5.674-10.087C78.694,111.929,76.173,116.973,71.76,118.234Z" transform="translate(364.184 208.017)"/>
              <path id="路径_37404" data-name="路径 37404" d="M145.46,104.734a8.183,8.183,0,1,1,5.674-10.087C151.764,99.06,149.242,103.473,145.46,104.734Z" transform="translate(755.102 136.411)"/>
              <path id="路径_37405" data-name="路径 37405" d="M71.76,118.234a8.183,8.183,0,1,1,5.674-10.087C78.694,111.929,76.173,116.973,71.76,118.234Z" transform="translate(364.184 208.017)"/>
              <path id="路径_37406" data-name="路径 37406" d="M145.46,104.734a8.183,8.183,0,1,1,5.674-10.087C151.764,99.06,149.242,103.473,145.46,104.734Z" transform="translate(755.102 136.411)"/>
              <path id="路径_37407" data-name="路径 37407" d="M145.46,104.734a8.183,8.183,0,1,1,5.674-10.087C151.764,99.06,149.242,103.473,145.46,104.734Z" transform="translate(755.102 136.411)"/>
              <path id="路径_37408" data-name="路径 37408" d="M147.36,74.234a8.183,8.183,0,1,1,5.674-10.087C154.294,67.929,151.773,72.973,147.36,74.234Z" transform="translate(765.18 -25.367)"/>
              <path id="路径_37409" data-name="路径 37409" d="M71.76,118.234a8.183,8.183,0,1,1,5.674-10.087C78.694,111.929,76.173,116.973,71.76,118.234Z" transform="translate(364.184 208.017)"/>
              <path id="路径_37410" data-name="路径 37410" d="M147.36,74.234a8.183,8.183,0,1,1,5.674-10.087C154.294,67.929,151.773,72.973,147.36,74.234Z" transform="translate(765.18 -25.367)"/>
              <path id="路径_37411" data-name="路径 37411" d="M71.76,118.234a8.183,8.183,0,1,1,5.674-10.087C78.694,111.929,76.173,116.973,71.76,118.234Z" transform="translate(364.184 208.017)"/>
              <path id="路径_37412" data-name="路径 37412" d="M147.36,74.234a8.183,8.183,0,1,1,5.674-10.087C154.294,67.929,151.773,72.973,147.36,74.234Z" transform="translate(765.18 -25.367)"/>
              <path id="路径_37413" data-name="路径 37413" d="M147.36,74.234a8.183,8.183,0,1,1,5.674-10.087C154.294,67.929,151.773,72.973,147.36,74.234Z" transform="translate(765.18 -25.367)"/>
              <path id="路径_37414" data-name="路径 37414" d="M123.56,90.734a8.183,8.183,0,1,1,5.674-10.087C130.494,84.429,127.973,89.473,123.56,90.734Z" transform="translate(638.94 62.152)"/>
              <path id="路径_37415" data-name="路径 37415" d="M145.46,104.734a8.183,8.183,0,1,1,5.674-10.087C151.764,99.06,149.242,103.473,145.46,104.734Z" transform="translate(755.102 136.411)"/>
              <path id="路径_37416" data-name="路径 37416" d="M123.56,90.734a8.183,8.183,0,1,1,5.674-10.087C130.494,84.429,127.973,89.473,123.56,90.734Z" transform="translate(638.94 62.152)"/>
              <path id="路径_37417" data-name="路径 37417" d="M71.76,118.234a8.183,8.183,0,1,1,5.674-10.087C78.694,111.929,76.173,116.973,71.76,118.234Z" transform="translate(364.184 208.017)"/>
              <path id="路径_37418" data-name="路径 37418" d="M123.56,90.734a8.183,8.183,0,1,1,5.674-10.087C130.494,84.429,127.973,89.473,123.56,90.734Z" transform="translate(638.94 62.152)"/>
              <path id="路径_37419" data-name="路径 37419" d="M71.76,118.234a8.183,8.183,0,1,1,5.674-10.087C78.694,111.929,76.173,116.973,71.76,118.234Z" transform="translate(364.184 208.017)"/>
              <path id="路径_37420" data-name="路径 37420" d="M123.56,90.734a8.183,8.183,0,1,1,5.674-10.087C130.494,84.429,127.973,89.473,123.56,90.734Z" transform="translate(638.94 62.152)"/>
              <path id="路径_37421" data-name="路径 37421" d="M71.76,118.234a8.183,8.183,0,1,1,5.674-10.087C78.694,111.929,76.173,116.973,71.76,118.234Z" transform="translate(364.184 208.017)"/>
              <path id="路径_37422" data-name="路径 37422" d="M71.76,118.234a8.183,8.183,0,1,1,5.674-10.087C78.694,111.929,76.173,116.973,71.76,118.234Z" transform="translate(364.184 208.017)"/>
              <path id="路径_37423" data-name="路径 37423" d="M4.26,110.834A8.1,8.1,0,0,1-5.827,105.16,8.1,8.1,0,0,1-.153,95.073a8.1,8.1,0,0,1,10.087,5.674C11.194,104.529,8.673,109.573,4.26,110.834Z" transform="translate(6.151 168.766)"/>
              <path id="路径_37424" data-name="路径 37424" d="M4.26,110.834A8.1,8.1,0,0,1-5.827,105.16,8.1,8.1,0,0,1-.153,95.073a8.1,8.1,0,0,1,10.087,5.674C11.194,104.529,8.673,109.573,4.26,110.834Z" transform="translate(6.151 168.766)"/>
              <path id="路径_37425" data-name="路径 37425" d="M123.56,90.734a8.183,8.183,0,1,1,5.674-10.087C130.494,84.429,127.973,89.473,123.56,90.734Z" transform="translate(638.94 62.152)"/>
              <path id="路径_37426" data-name="路径 37426" d="M4.26,110.834A8.1,8.1,0,0,1-5.827,105.16,8.1,8.1,0,0,1-.153,95.073a8.1,8.1,0,0,1,10.087,5.674C11.194,104.529,8.673,109.573,4.26,110.834Z" transform="translate(6.151 168.766)"/>
              <path id="路径_37427" data-name="路径 37427" d="M4.26,110.834A8.1,8.1,0,0,1-5.827,105.16,8.1,8.1,0,0,1-.153,95.073a8.1,8.1,0,0,1,10.087,5.674C11.194,104.529,8.673,109.573,4.26,110.834Z" transform="translate(6.151 168.766)"/>
              <path id="路径_37428" data-name="路径 37428" d="M71.76,118.234a8.183,8.183,0,1,1,5.674-10.087C78.694,111.929,76.173,116.973,71.76,118.234Z" transform="translate(364.184 208.017)"/>
              <path id="路径_37429" data-name="路径 37429" d="M4.26,110.834A8.1,8.1,0,0,1-5.827,105.16,8.1,8.1,0,0,1-.153,95.073a8.1,8.1,0,0,1,10.087,5.674C11.194,104.529,8.673,109.573,4.26,110.834Z" transform="translate(6.151 168.766)"/>
              <path id="路径_37430" data-name="路径 37430" d="M71.76,118.234a8.183,8.183,0,1,1,5.674-10.087C78.694,111.929,76.173,116.973,71.76,118.234Z" transform="translate(364.184 208.017)"/>
              <path id="路径_37431" data-name="路径 37431" d="M4.26,110.834A8.1,8.1,0,0,1-5.827,105.16,8.1,8.1,0,0,1-.153,95.073a8.1,8.1,0,0,1,10.087,5.674C11.194,104.529,8.673,109.573,4.26,110.834Z" transform="translate(6.151 168.766)"/>
              <path id="路径_37432" data-name="路径 37432" d="M123.56,90.734a8.183,8.183,0,1,1,5.674-10.087C130.494,84.429,127.973,89.473,123.56,90.734Z" transform="translate(638.94 62.152)"/>
              <path id="路径_37433" data-name="路径 37433" d="M139.66,196.234a8.183,8.183,0,1,1,5.674-10.087A8.1,8.1,0,0,1,139.66,196.234Z" transform="translate(724.337 621.743)"/>
              <path id="路径_37434" data-name="路径 37434" d="M147.36,74.234a8.183,8.183,0,1,1,5.674-10.087C154.294,67.929,151.773,72.973,147.36,74.234Z" transform="translate(765.18 -25.367)"/>
              <path id="路径_37435" data-name="路径 37435" d="M139.66,196.234a8.183,8.183,0,1,1,5.674-10.087A8.1,8.1,0,0,1,139.66,196.234Z" transform="translate(724.337 621.743)"/>
              <path id="路径_37436" data-name="路径 37436" d="M145.46,104.734a8.183,8.183,0,1,1,5.674-10.087C151.764,99.06,149.242,103.473,145.46,104.734Z" transform="translate(755.102 136.411)"/>
              <path id="路径_37437" data-name="路径 37437" d="M139.66,196.234a8.183,8.183,0,1,1,5.674-10.087A8.1,8.1,0,0,1,139.66,196.234Z" transform="translate(724.337 621.743)"/>
              <path id="路径_37438" data-name="路径 37438" d="M71.76,118.234a8.183,8.183,0,1,1,5.674-10.087C78.694,111.929,76.173,116.973,71.76,118.234Z" transform="translate(364.184 208.017)"/>
              <path id="路径_37439" data-name="路径 37439" d="M139.66,196.234a8.183,8.183,0,1,1,5.674-10.087A8.1,8.1,0,0,1,139.66,196.234Z" transform="translate(724.337 621.743)"/>
              <path id="路径_37440" data-name="路径 37440" d="M71.76,118.234a8.183,8.183,0,1,1,5.674-10.087C78.694,111.929,76.173,116.973,71.76,118.234Z" transform="translate(364.184 208.017)"/>
              <path id="路径_37441" data-name="路径 37441" d="M139.66,196.234a8.183,8.183,0,1,1,5.674-10.087A8.1,8.1,0,0,1,139.66,196.234Z" transform="translate(724.337 621.743)"/>
              <path id="路径_37442" data-name="路径 37442" d="M139.66,196.234a8.183,8.183,0,1,1,5.674-10.087A8.1,8.1,0,0,1,139.66,196.234Z" transform="translate(724.337 621.743)"/>
              <path id="路径_37443" data-name="路径 37443" d="M77.16,210.534a8.183,8.183,0,1,1,5.674-10.087A8.1,8.1,0,0,1,77.16,210.534Z" transform="translate(392.826 697.593)"/>
              <path id="路径_37444" data-name="路径 37444" d="M4.26,110.834A8.1,8.1,0,0,1-5.827,105.16,8.1,8.1,0,0,1-.153,95.073a8.1,8.1,0,0,1,10.087,5.674C11.194,104.529,8.673,109.573,4.26,110.834Z" transform="translate(6.151 168.766)"/>
              <path id="路径_37445" data-name="路径 37445" d="M77.16,210.534a8.183,8.183,0,1,1,5.674-10.087A8.1,8.1,0,0,1,77.16,210.534Z" transform="translate(392.826 697.593)"/>
              <path id="路径_37446" data-name="路径 37446" d="M77.16,210.534a8.183,8.183,0,1,1,5.674-10.087A8.1,8.1,0,0,1,77.16,210.534Z" transform="translate(392.826 697.593)"/>
              <path id="路径_37447" data-name="路径 37447" d="M123.56,90.734a8.183,8.183,0,1,1,5.674-10.087C130.494,84.429,127.973,89.473,123.56,90.734Z" transform="translate(638.94 62.152)"/>
              <path id="路径_37448" data-name="路径 37448" d="M77.16,210.534a8.183,8.183,0,1,1,5.674-10.087A8.1,8.1,0,0,1,77.16,210.534Z" transform="translate(392.826 697.593)"/>
              <path id="路径_37449" data-name="路径 37449" d="M145.46,104.734a8.183,8.183,0,1,1,5.674-10.087C151.764,99.06,149.242,103.473,145.46,104.734Z" transform="translate(755.102 136.411)"/>
              <path id="路径_37450" data-name="路径 37450" d="M77.16,210.534a8.183,8.183,0,1,1,5.674-10.087A8.1,8.1,0,0,1,77.16,210.534Z" transform="translate(392.826 697.593)"/>
              <path id="路径_37451" data-name="路径 37451" d="M71.76,118.234a8.183,8.183,0,1,1,5.674-10.087C78.694,111.929,76.173,116.973,71.76,118.234Z" transform="translate(364.184 208.017)"/>
              <path id="路径_37452" data-name="路径 37452" d="M77.16,210.534a8.183,8.183,0,1,1,5.674-10.087A8.1,8.1,0,0,1,77.16,210.534Z" transform="translate(392.826 697.593)"/>
              <path id="路径_37453" data-name="路径 37453" d="M71.76,118.234a8.183,8.183,0,1,1,5.674-10.087C78.694,111.929,76.173,116.973,71.76,118.234Z" transform="translate(364.184 208.017)"/>
              <path id="路径_37454" data-name="路径 37454" d="M77.16,210.534a8.183,8.183,0,1,1,5.674-10.087A8.1,8.1,0,0,1,77.16,210.534Z" transform="translate(392.826 697.593)"/>
              <path id="路径_37455" data-name="路径 37455" d="M211.16,69.034a8.183,8.183,0,1,1,5.674-10.087A8.1,8.1,0,0,1,211.16,69.034Z" transform="translate(1103.586 -52.949)"/>
              <path id="路径_37456" data-name="路径 37456" d="M123.56,90.734a8.183,8.183,0,1,1,5.674-10.087C130.494,84.429,127.973,89.473,123.56,90.734Z" transform="translate(638.94 62.152)"/>
              <path id="路径_37457" data-name="路径 37457" d="M211.16,69.034a8.183,8.183,0,1,1,5.674-10.087A8.1,8.1,0,0,1,211.16,69.034Z" transform="translate(1103.586 -52.949)"/>
              <path id="路径_37458" data-name="路径 37458" d="M147.36,74.234a8.183,8.183,0,1,1,5.674-10.087C154.294,67.929,151.773,72.973,147.36,74.234Z" transform="translate(765.18 -25.367)"/>
              <path id="路径_37459" data-name="路径 37459" d="M211.16,69.034a8.183,8.183,0,1,1,5.674-10.087A8.1,8.1,0,0,1,211.16,69.034Z" transform="translate(1103.586 -52.949)"/>
              <path id="路径_37460" data-name="路径 37460" d="M145.46,104.734a8.183,8.183,0,1,1,5.674-10.087C151.764,99.06,149.242,103.473,145.46,104.734Z" transform="translate(755.102 136.411)"/>
              <path id="路径_37461" data-name="路径 37461" d="M211.16,69.034a8.183,8.183,0,1,1,5.674-10.087A8.1,8.1,0,0,1,211.16,69.034Z" transform="translate(1103.586 -52.949)"/>
              <path id="路径_37462" data-name="路径 37462" d="M139.66,196.234a8.183,8.183,0,1,1,5.674-10.087A8.1,8.1,0,0,1,139.66,196.234Z" transform="translate(724.337 621.743)"/>
              <path id="路径_37463" data-name="路径 37463" d="M209.76,212.434a8.183,8.183,0,1,1,5.674-10.087A8.1,8.1,0,0,1,209.76,212.434Z" transform="translate(1096.16 707.671)"/>
              <path id="路径_37464" data-name="路径 37464" d="M145.46,104.734a8.183,8.183,0,1,1,5.674-10.087C151.764,99.06,149.242,103.473,145.46,104.734Z" transform="translate(755.102 136.411)"/>
              <path id="路径_37465" data-name="路径 37465" d="M209.76,212.434a8.183,8.183,0,1,1,5.674-10.087A8.1,8.1,0,0,1,209.76,212.434Z" transform="translate(1096.16 707.671)"/>
              <path id="路径_37466" data-name="路径 37466" d="M209.76,212.434a8.183,8.183,0,1,1,5.674-10.087A8.1,8.1,0,0,1,209.76,212.434Z" transform="translate(1096.16 707.671)"/>
              <path id="路径_37467" data-name="路径 37467" d="M233.36,153.733a8.183,8.183,0,1,1,5.674-10.087A8.1,8.1,0,0,1,233.36,153.733Z" transform="translate(1221.339 396.315)"/>
              <path id="路径_37468" data-name="路径 37468" d="M211.16,69.034a8.183,8.183,0,1,1,5.674-10.087A8.1,8.1,0,0,1,211.16,69.034Z" transform="translate(1103.586 -52.949)"/>
              <path id="路径_37469" data-name="路径 37469" d="M233.36,153.733a8.183,8.183,0,1,1,5.674-10.087A8.1,8.1,0,0,1,233.36,153.733Z" transform="translate(1221.339 396.315)"/>
              <path id="路径_37470" data-name="路径 37470" d="M233.36,153.733a8.183,8.183,0,1,1,5.674-10.087A8.1,8.1,0,0,1,233.36,153.733Z" transform="translate(1221.339 396.315)"/>
              <path id="路径_37471" data-name="路径 37471" d="M139.66,196.234a8.183,8.183,0,1,1,5.674-10.087A8.1,8.1,0,0,1,139.66,196.234Z" transform="translate(724.337 621.743)"/>
              <path id="路径_37472" data-name="路径 37472" d="M233.36,153.733a8.183,8.183,0,1,1,5.674-10.087A8.1,8.1,0,0,1,233.36,153.733Z" transform="translate(1221.339 396.315)"/>
              <path id="路径_37473" data-name="路径 37473" d="M123.56,90.734a8.183,8.183,0,1,1,5.674-10.087C130.494,84.429,127.973,89.473,123.56,90.734Z" transform="translate(638.94 62.152)"/>
              <path id="路径_37474" data-name="路径 37474" d="M233.36,153.733a8.183,8.183,0,1,1,5.674-10.087A8.1,8.1,0,0,1,233.36,153.733Z" transform="translate(1221.339 396.315)"/>
              <path id="路径_37475" data-name="路径 37475" d="M147.36,74.234a8.183,8.183,0,1,1,5.674-10.087C154.294,67.929,151.773,72.973,147.36,74.234Z" transform="translate(765.18 -25.367)"/>
              <path id="路径_37476" data-name="路径 37476" d="M233.36,153.733a8.183,8.183,0,1,1,5.674-10.087A8.1,8.1,0,0,1,233.36,153.733Z" transform="translate(1221.339 396.315)"/>
              <path id="路径_37477" data-name="路径 37477" d="M145.46,104.734a8.183,8.183,0,1,1,5.674-10.087C151.764,99.06,149.242,103.473,145.46,104.734Z" transform="translate(755.102 136.411)"/>
              <path id="路径_37478" data-name="路径 37478" d="M233.36,153.733a8.183,8.183,0,1,1,5.674-10.087A8.1,8.1,0,0,1,233.36,153.733Z" transform="translate(1221.339 396.315)"/>
              <path id="路径_37479" data-name="路径 37479" d="M233.36,153.733a8.183,8.183,0,1,1,5.674-10.087A8.1,8.1,0,0,1,233.36,153.733Z" transform="translate(1221.339 396.315)"/>
              <path id="路径_37480" data-name="路径 37480" d="M257.46,217.434a8.183,8.183,0,1,1,5.674-10.087A8.1,8.1,0,0,1,257.46,217.434Z" transform="translate(1349.17 734.192)"/>
              <path id="路径_37481" data-name="路径 37481" d="M233.36,153.733a8.183,8.183,0,1,1,5.674-10.087A8.1,8.1,0,0,1,233.36,153.733Z" transform="translate(1221.339 396.315)"/>
              <path id="路径_37482" data-name="路径 37482" d="M257.46,217.434a8.183,8.183,0,1,1,5.674-10.087A8.1,8.1,0,0,1,257.46,217.434Z" transform="translate(1349.17 734.192)"/>
              <path id="路径_37483" data-name="路径 37483" d="M209.76,212.434a8.183,8.183,0,1,1,5.674-10.087A8.1,8.1,0,0,1,209.76,212.434Z" transform="translate(1096.16 707.671)"/>
              <path id="路径_37484" data-name="路径 37484" d="M257.46,217.434a8.183,8.183,0,1,1,5.674-10.087A8.1,8.1,0,0,1,257.46,217.434Z" transform="translate(1349.17 734.192)"/>
              <path id="路径_37485" data-name="路径 37485" d="M257.46,217.434a8.183,8.183,0,1,1,5.674-10.087A8.1,8.1,0,0,1,257.46,217.434Z" transform="translate(1349.17 734.192)"/>
              <path id="路径_37486" data-name="路径 37486" d="M139.66,196.234a8.183,8.183,0,1,1,5.674-10.087A8.1,8.1,0,0,1,139.66,196.234Z" transform="translate(724.337 621.743)"/>
            </g>
          </g>
        </g>
      </g>
      <path id="路径_39978" data-name="路径 39978" d="M5-9.6a4.159,4.159,0,0,0-3.1,1.2A5.137,5.137,0,0,0,.54-4.656c0,3.048,1.752,5,4.476,5S9.5-1.62,9.5-4.656A5.175,5.175,0,0,0,8.16-8.4,4.205,4.205,0,0,0,5-9.6ZM5.04-1.08a2.591,2.591,0,0,1-1.86-.732,3.965,3.965,0,0,1-.972-2.832c0-2.172,1.092-3.54,2.82-3.54a2.583,2.583,0,0,1,1.848.732,3.876,3.876,0,0,1,.948,2.8C7.824-2.448,6.756-1.08,5.04-1.08ZM36.576-9.408a9.767,9.767,0,0,1,.1,1.644V-3.54a2.191,2.191,0,0,1-2.436,2.484,2.2,2.2,0,0,1-2.46-2.472V-7.764a9.41,9.41,0,0,1,.1-1.644H30.084a9.858,9.858,0,0,1,.1,1.644v4.236a3.865,3.865,0,0,0,.9,2.76A4.134,4.134,0,0,0,34.176.36c2.616,0,4.092-1.392,4.092-3.876v-4.26a9.7,9.7,0,0,1,.1-1.632ZM67.332.144c-.168-.324-.468-.972-.564-1.188C65.58-3.852,65.352-4.188,64.6-4.428a2.537,2.537,0,0,0,1.332-.7,2.467,2.467,0,0,0,.612-1.788c0-1.584-1.044-2.5-2.868-2.5h-2.88c-.66,0-1.032-.012-1.536-.036a10.677,10.677,0,0,1,.1,1.56v6.468a9.391,9.391,0,0,1-.1,1.56h1.788a9.364,9.364,0,0,1-.1-1.572V-3.876h1.788c.924,0,1.344.444,1.992,2.1a9.714,9.714,0,0,1,.624,1.92ZM60.948-5.244v-2.8h2.46c.984,0,1.476.444,1.476,1.308A1.424,1.424,0,0,1,64.5-5.676a1.617,1.617,0,0,1-1.14.432ZM116.7.144a9.771,9.771,0,0,1,.528-1.6l1.8-4.224a14.644,14.644,0,0,0,.552-1.752c-.012.18-.048.792-.1,1.836v3.984a11.156,11.156,0,0,1-.1,1.752h1.68a10.4,10.4,0,0,1-.1-1.752V-7.632a12.427,12.427,0,0,1,.1-1.776H118.86a6.65,6.65,0,0,1-.432,1.428L116-2.028,113.568-7.98a8.305,8.305,0,0,1-.444-1.428h-2.2a11.9,11.9,0,0,1,.1,1.776v6.024a11.254,11.254,0,0,1-.1,1.752h1.68a10.964,10.964,0,0,1-.1-1.752V-5.544c0-.264-.048-1.248-.1-1.884a13.354,13.354,0,0,0,.612,1.836l1.728,4.116a8.169,8.169,0,0,1,.528,1.62Zm25.272-9.552a8.966,8.966,0,0,1,.1,1.548V-1.4a9.055,9.055,0,0,1-.1,1.548H143.8a9.055,9.055,0,0,1-.1-1.548V-7.86a8.966,8.966,0,0,1,.1-1.548Zm22.4,6.756a4.1,4.1,0,0,0,.228,1A2.825,2.825,0,0,0,165.66-.288a4.825,4.825,0,0,0,2.52.624,3.977,3.977,0,0,0,2.868-.912,2.792,2.792,0,0,0,.756-2.04,2.368,2.368,0,0,0-1-2.064,5.283,5.283,0,0,0-1.956-.732,10.216,10.216,0,0,1-1.692-.432,1.141,1.141,0,0,1-.816-1.092c0-.78.708-1.308,1.752-1.308a1.9,1.9,0,0,1,1.5.576,1.55,1.55,0,0,1,.36.852l1.716-.2a3.235,3.235,0,0,0-.588-1.392A3.537,3.537,0,0,0,168.1-9.624c-2.064,0-3.408,1.08-3.408,2.748a2.362,2.362,0,0,0,.924,1.944,4.242,4.242,0,0,0,1.812.732,7.566,7.566,0,0,1,2.088.588,1.218,1.218,0,0,1,.6,1.1c0,.9-.72,1.44-1.92,1.44a2.13,2.13,0,0,1-1.752-.708,1.72,1.72,0,0,1-.336-1.056Zm27.78,0a4.1,4.1,0,0,0,.228,1A2.825,2.825,0,0,0,193.44-.288a4.825,4.825,0,0,0,2.52.624,3.977,3.977,0,0,0,2.868-.912,2.792,2.792,0,0,0,.756-2.04,2.368,2.368,0,0,0-1-2.064,5.283,5.283,0,0,0-1.956-.732,10.216,10.216,0,0,1-1.692-.432,1.141,1.141,0,0,1-.816-1.092c0-.78.708-1.308,1.752-1.308a1.9,1.9,0,0,1,1.5.576,1.55,1.55,0,0,1,.36.852l1.716-.2a3.235,3.235,0,0,0-.588-1.392,3.537,3.537,0,0,0-2.988-1.212c-2.064,0-3.408,1.08-3.408,2.748a2.362,2.362,0,0,0,.924,1.944A4.242,4.242,0,0,0,195.2-4.2a7.566,7.566,0,0,1,2.088.588,1.218,1.218,0,0,1,.6,1.1c0,.9-.72,1.44-1.92,1.44a2.13,2.13,0,0,1-1.752-.708,1.72,1.72,0,0,1-.336-1.056Zm28.092-6.756a8.966,8.966,0,0,1,.1,1.548V-1.4a9.055,9.055,0,0,1-.1,1.548h1.824a9.055,9.055,0,0,1-.1-1.548V-7.86a8.966,8.966,0,0,1,.1-1.548ZM247.116-9.6a4.159,4.159,0,0,0-3.1,1.2,5.137,5.137,0,0,0-1.368,3.744c0,3.048,1.752,5,4.476,5s4.488-1.968,4.488-5A5.175,5.175,0,0,0,250.272-8.4,4.205,4.205,0,0,0,247.116-9.6Zm.036,8.52a2.591,2.591,0,0,1-1.86-.732,3.965,3.965,0,0,1-.972-2.832c0-2.172,1.092-3.54,2.82-3.54a2.583,2.583,0,0,1,1.848.732,3.876,3.876,0,0,1,.948,2.8C249.936-2.448,248.868-1.08,247.152-1.08ZM280.368.144a9.055,9.055,0,0,1-.1-1.548V-7.752a10.493,10.493,0,0,1,.1-1.656h-1.752a10.489,10.489,0,0,1,.1,1.656V-3.72c0,.5.036,1.224.084,1.692-.264-.48-.648-1.1-.936-1.536l-3.036-4.572a6.582,6.582,0,0,1-.732-1.272H272.22a9.993,9.993,0,0,1,.1,1.548v6.192a12.983,12.983,0,0,1-.1,1.812h1.752a13.282,13.282,0,0,1-.1-1.8V-5.592c0-.276-.024-.816-.036-1.044-.036-.444-.036-.444-.048-.612.288.564.588,1.08.816,1.44l3.1,4.668a11.958,11.958,0,0,1,.768,1.284Z" transform="translate(10571 -2675)"/>
    </g>
  </g>
</svg>
