<svg xmlns="http://www.w3.org/2000/svg" xmlns:xlink="http://www.w3.org/1999/xlink" width="1820" height="880" viewBox="0 0 1820 880">
  <defs>
    <clipPath id="clip-path">
      <rect id="矩形_2253" data-name="矩形 2253" width="1820" height="880" fill="#fff"/>
    </clipPath>
  </defs>
  <g id="banner" transform="translate(-50 -88)">
    <g id="组_21795" data-name="组 21795" transform="translate(0 -72)">
      <g id="NAV_bg" transform="translate(50 160)" clip-path="url(#clip-path)">
        <g id="组_21480" data-name="组 21480" transform="translate(-50 27)" opacity="0.05">
          <g id="组_21478" data-name="组 21478" transform="translate(0 7.733)">
            <g id="组_21420" data-name="组 21420" transform="translate(496.006 224.522)">
              <g id="组_21418" data-name="组 21418" transform="translate(0 0)">
                <rect id="矩形_2227" data-name="矩形 2227" width="472.183" height="1.891" transform="translate(0 84.71) rotate(-10.335)"/>
              </g>
              <g id="组_21419" data-name="组 21419" transform="translate(0 0)">
                <rect id="矩形_2228" data-name="矩形 2228" width="472.183" height="1.891" transform="translate(0 84.71) rotate(-10.335)"/>
              </g>
            </g>
            <g id="组_21424" data-name="组 21424" transform="translate(496.139 32.308)">
              <g id="组_21421" data-name="组 21421" transform="translate(464.098 0.366)">
                <rect id="矩形_2229" data-name="矩形 2229" width="192.908" height="1.261" transform="matrix(0.063, -0.998, 0.998, 0.063, 0, 192.522)"/>
              </g>
              <g id="组_21422" data-name="组 21422" transform="translate(0)">
                <path id="路径_37381" data-name="路径 37381" d="M63.23,337.945l-.63-1.261L538.566,59.3l1.261,1.261Z" transform="translate(-62.6 -59.3)"/>
              </g>
              <g id="组_21423" data-name="组 21423" transform="translate(0)">
                <path id="路径_37382" data-name="路径 37382" d="M63.23,337.945l-.63-1.261L538.566,59.3l1.261,1.261Z" transform="translate(-62.6 -59.3)"/>
              </g>
            </g>
            <g id="组_21429" data-name="组 21429" transform="translate(495.837 32.165)">
              <g id="组_21425" data-name="组 21425" transform="translate(326.765 0)">
                <rect id="矩形_2230" data-name="矩形 2230" width="182.191" height="1.261" transform="translate(0 104.013) rotate(-34.814)"/>
              </g>
              <g id="组_21426" data-name="组 21426" transform="translate(327.17 104.435)">
                <rect id="矩形_2231" data-name="矩形 2231" width="1.261" height="163.278" transform="matrix(0.54, -0.841, 0.841, 0.54, 0, 1.061)"/>
              </g>
              <g id="组_21427" data-name="组 21427" transform="translate(0 103.907)">
                <rect id="矩形_2232" data-name="矩形 2232" width="370.055" height="1.261" transform="translate(0 173.556) rotate(-27.969)"/>
              </g>
              <g id="组_21428" data-name="组 21428" transform="translate(0 103.907)">
                <rect id="矩形_2233" data-name="矩形 2233" width="370.055" height="1.261" transform="translate(0 173.556) rotate(-27.969)"/>
              </g>
            </g>
            <g id="组_21432" data-name="组 21432" transform="translate(0 309.692)">
              <g id="组_21430" data-name="组 21430">
                <path id="路径_37383" data-name="路径 37383" d="M-16.1,576.113,480.669,104.561l-.63-1.261L-16.1,574.222Z" transform="translate(16.1 -103.3)"/>
              </g>
              <g id="组_21431" data-name="组 21431">
                <path id="路径_37384" data-name="路径 37384" d="M-16.1,576.113,480.669,104.561l-.63-1.261L-16.1,574.222Z" transform="translate(16.1 -103.3)"/>
              </g>
            </g>
            <g id="组_21439" data-name="组 21439" transform="translate(0 136.327)">
              <g id="组_21433" data-name="组 21433" transform="translate(0 127.344)">
                <path id="路径_37385" data-name="路径 37385" d="M-16.1,493.163,55.768,96H53.876L-16.1,484.337Z" transform="translate(16.1 -96)"/>
              </g>
              <g id="组_21434" data-name="组 21434" transform="translate(0 115.366)">
                <path id="路径_37386" data-name="路径 37386" d="M-16.1,94.1v1.261l70.607,11.347.63-1.261Z" transform="translate(16.1 -94.1)"/>
              </g>
              <g id="组_21435" data-name="组 21435" transform="translate(70.607)">
                <path id="路径_37387" data-name="路径 37387" d="M-4.27,203.775l-.63-1.261L747.819,75.8v1.261Z" transform="translate(4.9 -75.8)"/>
              </g>
              <g id="组_21436" data-name="组 21436" transform="translate(0 126.714)">
                <path id="路径_37388" data-name="路径 37388" d="M-16.1,143.181,55.137,97.161l-.63-1.261L-16.1,141.29Z" transform="translate(16.1 -95.9)"/>
              </g>
              <g id="组_21437" data-name="组 21437" transform="translate(71.065 126.796)">
                <rect id="矩形_2234" data-name="矩形 2234" width="1.261" height="428.054" transform="translate(0 1.253) rotate(-83.754)"/>
              </g>
              <g id="组_21438" data-name="组 21438" transform="translate(71.065 126.796)">
                <rect id="矩形_2235" data-name="矩形 2235" width="1.261" height="428.054" transform="translate(0 1.253) rotate(-83.754)"/>
              </g>
            </g>
            <g id="组_21445" data-name="组 21445" transform="translate(495.939 33.135)">
              <g id="组_21440" data-name="组 21440" transform="translate(326.126 103.822)">
                <path id="路径_37389" data-name="路径 37389" d="M215.8,741.621,114.3,75.9h1.891L217.058,741.621Z" transform="translate(-114.3 -75.9)"/>
              </g>
              <g id="组_21441" data-name="组 21441" transform="translate(427.475 0)">
                <rect id="矩形_2236" data-name="矩形 2236" width="771.001" height="1.261" transform="translate(0 769.459) rotate(-86.406)"/>
              </g>
              <g id="组_21442" data-name="组 21442" transform="translate(427.648 192.686)">
                <rect id="矩形_2237" data-name="矩形 2237" width="578.093" height="1.261" transform="translate(0 576.937) rotate(-86.392)"/>
              </g>
              <g id="组_21443" data-name="组 21443" transform="translate(0 276.653)">
                <rect id="矩形_2238" data-name="矩形 2238" width="1.261" height="652.483" transform="matrix(0.755, -0.656, 0.656, 0.755, 0, 0.827)"/>
              </g>
              <g id="组_21444" data-name="组 21444" transform="translate(0 276.653)">
                <rect id="矩形_2239" data-name="矩形 2239" width="1.261" height="652.483" transform="matrix(0.755, -0.656, 0.656, 0.755, 0, 0.827)"/>
              </g>
            </g>
            <g id="组_21453" data-name="组 21453" transform="translate(0 136.728)">
              <g id="组_21446" data-name="组 21446" transform="translate(529.871 665.909)">
                <rect id="矩形_2240" data-name="矩形 2240" width="404.098" height="1.891" transform="matrix(0.976, -0.219, 0.219, 0.976, 0, 88.336)"/>
              </g>
              <g id="组_21447" data-name="组 21447" transform="translate(69.976 126.313)">
                <path id="路径_37390" data-name="路径 37390" d="M454.575,725.688-5,97.161-3.739,95.9,455.836,725.057Z" transform="translate(5 -95.9)"/>
              </g>
              <g id="组_21448" data-name="组 21448" transform="translate(0 674.146)">
                <path id="路径_37391" data-name="路径 37391" d="M-16.1,182.8v1.261l530.182,81.324v-1.891Z" transform="translate(16.1 -182.8)"/>
              </g>
              <g id="组_21449" data-name="组 21449" transform="translate(529.561)">
                <rect id="矩形_2241" data-name="矩形 2241" width="810.087" height="1.891" transform="translate(0 755.406) rotate(-68.826)"/>
              </g>
              <g id="组_21450" data-name="组 21450" transform="translate(529.551 88.488)">
                <path id="路径_37392" data-name="路径 37392" d="M69.161,757.513l-1.261-.63L498.476,89.9l1.261.63Z" transform="translate(-67.9 -89.9)"/>
              </g>
              <g id="组_21451" data-name="组 21451" transform="translate(495.627 173.374)">
                <rect id="矩形_2242" data-name="矩形 2242" width="1.891" height="583.137" transform="matrix(0.998, -0.058, 0.058, 0.998, 0, 0.11)"/>
              </g>
              <g id="组_21452" data-name="组 21452" transform="translate(495.627 173.374)">
                <rect id="矩形_2243" data-name="矩形 2243" width="1.891" height="583.137" transform="matrix(0.998, -0.058, 0.058, 0.998, 0, 0.11)"/>
              </g>
            </g>
            <g id="组_21458" data-name="组 21458" transform="translate(822.695 0)">
              <g id="组_21454" data-name="组 21454" transform="translate(552.246 0.157)">
                <path id="路径_37393" data-name="路径 37393" d="M793.962,371.3,202.63,54.2,202,55.461l591.962,317.1Z" transform="translate(-202 -54.2)"/>
              </g>
              <g id="组_21455" data-name="组 21455" transform="translate(0 0.157)">
                <path id="路径_37394" data-name="路径 37394" d="M115.03,191.631l-.63-1.261L666.646,54.2l.63,1.261Z" transform="translate(-114.4 -54.2)"/>
              </g>
              <g id="组_21456" data-name="组 21456" transform="translate(150.039 0.157)">
                <path id="路径_37395" data-name="路径 37395" d="M138.2,87.612V86.351L540.407,54.2l.63,1.261Z" transform="translate(-138.2 -54.2)"/>
              </g>
              <g id="组_21457" data-name="组 21457" transform="translate(137.898)">
                <rect id="矩形_2244" data-name="矩形 2244" width="471.553" height="1.261" transform="matrix(0.879, -0.477, 0.477, 0.879, 0, 224.789)"/>
              </g>
            </g>
            <g id="组_21461" data-name="组 21461" transform="translate(924.193 225.193)">
              <g id="组_21459" data-name="组 21459" transform="translate(0 576.855)">
                <path id="路径_37396" data-name="路径 37396" d="M572.423,284.789,130.5,182.661V181.4L572.423,282.9Z" transform="translate(-130.5 -181.4)"/>
              </g>
              <g id="组_21460" data-name="组 21460" transform="translate(35.844 0)">
                <rect id="矩形_2245" data-name="矩形 2245" width="1.891" height="791.175" transform="translate(0 0.97) rotate(-30.843)"/>
              </g>
            </g>
            <g id="组_21469" data-name="组 21469" transform="translate(822.695 0.025)">
              <g id="组_21462" data-name="组 21462" transform="translate(542.664 534.601)">
                <rect id="矩形_2246" data-name="矩形 2246" width="398.424" height="1.891" transform="matrix(0.374, -0.927, 0.927, 0.374, 0, 369.459)"/>
              </g>
              <g id="组_21463" data-name="组 21463" transform="translate(551.651 0)">
                <rect id="矩形_2247" data-name="矩形 2247" width="1.891" height="552.246" transform="matrix(0.967, -0.253, 0.253, 0.967, 0, 0.479)"/>
              </g>
              <g id="组_21464" data-name="组 21464" transform="translate(692.199 393.513)">
                <path id="路径_37397" data-name="路径 37397" d="M676.21,116.6,224.2,257.183v1.261L676.21,118.491Z" transform="translate(-224.2 -116.6)"/>
              </g>
              <g id="组_21465" data-name="组 21465" transform="translate(101.262 533.511)">
                <rect id="矩形_2248" data-name="矩形 2248" width="648.7" height="1.261" transform="translate(0 268.627) rotate(-24.463)"/>
              </g>
              <g id="组_21466" data-name="组 21466" transform="translate(0 136.302)">
                <path id="路径_37398" data-name="路径 37398" d="M805.968,474.855,114.4,77.061l.63-1.261,692.2,397.794Z" transform="translate(-114.4 -75.8)"/>
              </g>
              <g id="组_21467" data-name="组 21467" transform="translate(149.585 32.046)">
                <rect id="矩形_2249" data-name="矩形 2249" width="1.891" height="738.85" transform="translate(0 1.388) rotate(-47.229)"/>
              </g>
              <g id="组_21468" data-name="组 21468" transform="translate(137.402 224.553)">
                <rect id="矩形_2250" data-name="矩形 2250" width="1.891" height="634.831" transform="translate(0 1.652) rotate(-60.849)"/>
              </g>
            </g>
            <g id="组_21471" data-name="组 21471" transform="translate(1514.894 534.12)">
              <g id="组_21470" data-name="组 21470">
                <path id="路径_37399" data-name="路径 37399" d="M676.21,256.788,224.2,138.9v1.261L676.21,258.679Z" transform="translate(-224.2 -138.9)"/>
              </g>
            </g>
            <g id="组_21477" data-name="组 21477" transform="translate(924.091 497.556)">
              <g id="组_21472" data-name="组 21472" transform="translate(742.734 341.056)">
                <path id="路径_37400" data-name="路径 37400" d="M548.379,187.2,248.3,283.654l.63,1.891,299.448-96.454Z" transform="translate(-248.3 -187.2)"/>
              </g>
              <g id="组_21473" data-name="组 21473" transform="translate(590.173 36.564)">
                <path id="路径_37401" data-name="路径 37401" d="M376.661,541.107,224.1,139.531l1.261-.631L377.922,540.476Z" transform="translate(-224.1 -138.9)"/>
              </g>
              <g id="组_21474" data-name="组 21474" transform="translate(441.745 405.549)">
                <rect id="矩形_2251" data-name="矩形 2251" width="1.891" height="302.601" transform="translate(0 1.881) rotate(-83.996)"/>
              </g>
              <g id="组_21475" data-name="组 21475" transform="translate(742.734)">
                <path id="路径_37402" data-name="路径 37402" d="M548.379,133.1,248.3,571.241l1.261.63L548.379,135.622Z" transform="translate(-248.3 -133.1)"/>
              </g>
              <g id="组_21476" data-name="组 21476" transform="translate(0 304.675)">
                <rect id="矩形_2252" data-name="矩形 2252" width="1.261" height="754.61" transform="translate(0 1.241) rotate(-79.81)"/>
              </g>
            </g>
          </g>
          <g id="组_21479" data-name="组 21479" transform="translate(62.717)">
            <path id="路径_37403" data-name="路径 37403" d="M71.76,118.234a8.183,8.183,0,1,1,5.674-10.087C78.694,111.929,76.173,116.973,71.76,118.234Z" transform="translate(364.184 208.017)"/>
            <path id="路径_37404" data-name="路径 37404" d="M145.46,104.734a8.183,8.183,0,1,1,5.674-10.087C151.764,99.06,149.242,103.473,145.46,104.734Z" transform="translate(755.102 136.411)"/>
            <path id="路径_37405" data-name="路径 37405" d="M71.76,118.234a8.183,8.183,0,1,1,5.674-10.087C78.694,111.929,76.173,116.973,71.76,118.234Z" transform="translate(364.184 208.017)"/>
            <path id="路径_37406" data-name="路径 37406" d="M145.46,104.734a8.183,8.183,0,1,1,5.674-10.087C151.764,99.06,149.242,103.473,145.46,104.734Z" transform="translate(755.102 136.411)"/>
            <path id="路径_37407" data-name="路径 37407" d="M145.46,104.734a8.183,8.183,0,1,1,5.674-10.087C151.764,99.06,149.242,103.473,145.46,104.734Z" transform="translate(755.102 136.411)"/>
            <path id="路径_37408" data-name="路径 37408" d="M147.36,74.234a8.183,8.183,0,1,1,5.674-10.087C154.294,67.929,151.773,72.973,147.36,74.234Z" transform="translate(765.18 -25.367)"/>
            <path id="路径_37409" data-name="路径 37409" d="M71.76,118.234a8.183,8.183,0,1,1,5.674-10.087C78.694,111.929,76.173,116.973,71.76,118.234Z" transform="translate(364.184 208.017)"/>
            <path id="路径_37410" data-name="路径 37410" d="M147.36,74.234a8.183,8.183,0,1,1,5.674-10.087C154.294,67.929,151.773,72.973,147.36,74.234Z" transform="translate(765.18 -25.367)"/>
            <path id="路径_37411" data-name="路径 37411" d="M71.76,118.234a8.183,8.183,0,1,1,5.674-10.087C78.694,111.929,76.173,116.973,71.76,118.234Z" transform="translate(364.184 208.017)"/>
            <path id="路径_37412" data-name="路径 37412" d="M147.36,74.234a8.183,8.183,0,1,1,5.674-10.087C154.294,67.929,151.773,72.973,147.36,74.234Z" transform="translate(765.18 -25.367)"/>
            <path id="路径_37413" data-name="路径 37413" d="M147.36,74.234a8.183,8.183,0,1,1,5.674-10.087C154.294,67.929,151.773,72.973,147.36,74.234Z" transform="translate(765.18 -25.367)"/>
            <path id="路径_37414" data-name="路径 37414" d="M123.56,90.734a8.183,8.183,0,1,1,5.674-10.087C130.494,84.429,127.973,89.473,123.56,90.734Z" transform="translate(638.94 62.152)"/>
            <path id="路径_37415" data-name="路径 37415" d="M145.46,104.734a8.183,8.183,0,1,1,5.674-10.087C151.764,99.06,149.242,103.473,145.46,104.734Z" transform="translate(755.102 136.411)"/>
            <path id="路径_37416" data-name="路径 37416" d="M123.56,90.734a8.183,8.183,0,1,1,5.674-10.087C130.494,84.429,127.973,89.473,123.56,90.734Z" transform="translate(638.94 62.152)"/>
            <path id="路径_37417" data-name="路径 37417" d="M71.76,118.234a8.183,8.183,0,1,1,5.674-10.087C78.694,111.929,76.173,116.973,71.76,118.234Z" transform="translate(364.184 208.017)"/>
            <path id="路径_37418" data-name="路径 37418" d="M123.56,90.734a8.183,8.183,0,1,1,5.674-10.087C130.494,84.429,127.973,89.473,123.56,90.734Z" transform="translate(638.94 62.152)"/>
            <path id="路径_37419" data-name="路径 37419" d="M71.76,118.234a8.183,8.183,0,1,1,5.674-10.087C78.694,111.929,76.173,116.973,71.76,118.234Z" transform="translate(364.184 208.017)"/>
            <path id="路径_37420" data-name="路径 37420" d="M123.56,90.734a8.183,8.183,0,1,1,5.674-10.087C130.494,84.429,127.973,89.473,123.56,90.734Z" transform="translate(638.94 62.152)"/>
            <path id="路径_37421" data-name="路径 37421" d="M71.76,118.234a8.183,8.183,0,1,1,5.674-10.087C78.694,111.929,76.173,116.973,71.76,118.234Z" transform="translate(364.184 208.017)"/>
            <path id="路径_37422" data-name="路径 37422" d="M71.76,118.234a8.183,8.183,0,1,1,5.674-10.087C78.694,111.929,76.173,116.973,71.76,118.234Z" transform="translate(364.184 208.017)"/>
            <path id="路径_37423" data-name="路径 37423" d="M4.26,110.834A8.1,8.1,0,0,1-5.827,105.16,8.1,8.1,0,0,1-.153,95.073a8.1,8.1,0,0,1,10.087,5.674C11.194,104.529,8.673,109.573,4.26,110.834Z" transform="translate(6.151 168.766)"/>
            <path id="路径_37424" data-name="路径 37424" d="M4.26,110.834A8.1,8.1,0,0,1-5.827,105.16,8.1,8.1,0,0,1-.153,95.073a8.1,8.1,0,0,1,10.087,5.674C11.194,104.529,8.673,109.573,4.26,110.834Z" transform="translate(6.151 168.766)"/>
            <path id="路径_37425" data-name="路径 37425" d="M123.56,90.734a8.183,8.183,0,1,1,5.674-10.087C130.494,84.429,127.973,89.473,123.56,90.734Z" transform="translate(638.94 62.152)"/>
            <path id="路径_37426" data-name="路径 37426" d="M4.26,110.834A8.1,8.1,0,0,1-5.827,105.16,8.1,8.1,0,0,1-.153,95.073a8.1,8.1,0,0,1,10.087,5.674C11.194,104.529,8.673,109.573,4.26,110.834Z" transform="translate(6.151 168.766)"/>
            <path id="路径_37427" data-name="路径 37427" d="M4.26,110.834A8.1,8.1,0,0,1-5.827,105.16,8.1,8.1,0,0,1-.153,95.073a8.1,8.1,0,0,1,10.087,5.674C11.194,104.529,8.673,109.573,4.26,110.834Z" transform="translate(6.151 168.766)"/>
            <path id="路径_37428" data-name="路径 37428" d="M71.76,118.234a8.183,8.183,0,1,1,5.674-10.087C78.694,111.929,76.173,116.973,71.76,118.234Z" transform="translate(364.184 208.017)"/>
            <path id="路径_37429" data-name="路径 37429" d="M4.26,110.834A8.1,8.1,0,0,1-5.827,105.16,8.1,8.1,0,0,1-.153,95.073a8.1,8.1,0,0,1,10.087,5.674C11.194,104.529,8.673,109.573,4.26,110.834Z" transform="translate(6.151 168.766)"/>
            <path id="路径_37430" data-name="路径 37430" d="M71.76,118.234a8.183,8.183,0,1,1,5.674-10.087C78.694,111.929,76.173,116.973,71.76,118.234Z" transform="translate(364.184 208.017)"/>
            <path id="路径_37431" data-name="路径 37431" d="M4.26,110.834A8.1,8.1,0,0,1-5.827,105.16,8.1,8.1,0,0,1-.153,95.073a8.1,8.1,0,0,1,10.087,5.674C11.194,104.529,8.673,109.573,4.26,110.834Z" transform="translate(6.151 168.766)"/>
            <path id="路径_37432" data-name="路径 37432" d="M123.56,90.734a8.183,8.183,0,1,1,5.674-10.087C130.494,84.429,127.973,89.473,123.56,90.734Z" transform="translate(638.94 62.152)"/>
            <path id="路径_37433" data-name="路径 37433" d="M139.66,196.234a8.183,8.183,0,1,1,5.674-10.087A8.1,8.1,0,0,1,139.66,196.234Z" transform="translate(724.337 621.743)"/>
            <path id="路径_37434" data-name="路径 37434" d="M147.36,74.234a8.183,8.183,0,1,1,5.674-10.087C154.294,67.929,151.773,72.973,147.36,74.234Z" transform="translate(765.18 -25.367)"/>
            <path id="路径_37435" data-name="路径 37435" d="M139.66,196.234a8.183,8.183,0,1,1,5.674-10.087A8.1,8.1,0,0,1,139.66,196.234Z" transform="translate(724.337 621.743)"/>
            <path id="路径_37436" data-name="路径 37436" d="M145.46,104.734a8.183,8.183,0,1,1,5.674-10.087C151.764,99.06,149.242,103.473,145.46,104.734Z" transform="translate(755.102 136.411)"/>
            <path id="路径_37437" data-name="路径 37437" d="M139.66,196.234a8.183,8.183,0,1,1,5.674-10.087A8.1,8.1,0,0,1,139.66,196.234Z" transform="translate(724.337 621.743)"/>
            <path id="路径_37438" data-name="路径 37438" d="M71.76,118.234a8.183,8.183,0,1,1,5.674-10.087C78.694,111.929,76.173,116.973,71.76,118.234Z" transform="translate(364.184 208.017)"/>
            <path id="路径_37439" data-name="路径 37439" d="M139.66,196.234a8.183,8.183,0,1,1,5.674-10.087A8.1,8.1,0,0,1,139.66,196.234Z" transform="translate(724.337 621.743)"/>
            <path id="路径_37440" data-name="路径 37440" d="M71.76,118.234a8.183,8.183,0,1,1,5.674-10.087C78.694,111.929,76.173,116.973,71.76,118.234Z" transform="translate(364.184 208.017)"/>
            <path id="路径_37441" data-name="路径 37441" d="M139.66,196.234a8.183,8.183,0,1,1,5.674-10.087A8.1,8.1,0,0,1,139.66,196.234Z" transform="translate(724.337 621.743)"/>
            <path id="路径_37442" data-name="路径 37442" d="M139.66,196.234a8.183,8.183,0,1,1,5.674-10.087A8.1,8.1,0,0,1,139.66,196.234Z" transform="translate(724.337 621.743)"/>
            <path id="路径_37443" data-name="路径 37443" d="M77.16,210.534a8.183,8.183,0,1,1,5.674-10.087A8.1,8.1,0,0,1,77.16,210.534Z" transform="translate(392.826 697.593)"/>
            <path id="路径_37444" data-name="路径 37444" d="M4.26,110.834A8.1,8.1,0,0,1-5.827,105.16,8.1,8.1,0,0,1-.153,95.073a8.1,8.1,0,0,1,10.087,5.674C11.194,104.529,8.673,109.573,4.26,110.834Z" transform="translate(6.151 168.766)"/>
            <path id="路径_37445" data-name="路径 37445" d="M77.16,210.534a8.183,8.183,0,1,1,5.674-10.087A8.1,8.1,0,0,1,77.16,210.534Z" transform="translate(392.826 697.593)"/>
            <path id="路径_37446" data-name="路径 37446" d="M77.16,210.534a8.183,8.183,0,1,1,5.674-10.087A8.1,8.1,0,0,1,77.16,210.534Z" transform="translate(392.826 697.593)"/>
            <path id="路径_37447" data-name="路径 37447" d="M123.56,90.734a8.183,8.183,0,1,1,5.674-10.087C130.494,84.429,127.973,89.473,123.56,90.734Z" transform="translate(638.94 62.152)"/>
            <path id="路径_37448" data-name="路径 37448" d="M77.16,210.534a8.183,8.183,0,1,1,5.674-10.087A8.1,8.1,0,0,1,77.16,210.534Z" transform="translate(392.826 697.593)"/>
            <path id="路径_37449" data-name="路径 37449" d="M145.46,104.734a8.183,8.183,0,1,1,5.674-10.087C151.764,99.06,149.242,103.473,145.46,104.734Z" transform="translate(755.102 136.411)"/>
            <path id="路径_37450" data-name="路径 37450" d="M77.16,210.534a8.183,8.183,0,1,1,5.674-10.087A8.1,8.1,0,0,1,77.16,210.534Z" transform="translate(392.826 697.593)"/>
            <path id="路径_37451" data-name="路径 37451" d="M71.76,118.234a8.183,8.183,0,1,1,5.674-10.087C78.694,111.929,76.173,116.973,71.76,118.234Z" transform="translate(364.184 208.017)"/>
            <path id="路径_37452" data-name="路径 37452" d="M77.16,210.534a8.183,8.183,0,1,1,5.674-10.087A8.1,8.1,0,0,1,77.16,210.534Z" transform="translate(392.826 697.593)"/>
            <path id="路径_37453" data-name="路径 37453" d="M71.76,118.234a8.183,8.183,0,1,1,5.674-10.087C78.694,111.929,76.173,116.973,71.76,118.234Z" transform="translate(364.184 208.017)"/>
            <path id="路径_37454" data-name="路径 37454" d="M77.16,210.534a8.183,8.183,0,1,1,5.674-10.087A8.1,8.1,0,0,1,77.16,210.534Z" transform="translate(392.826 697.593)"/>
            <path id="路径_37455" data-name="路径 37455" d="M211.16,69.034a8.183,8.183,0,1,1,5.674-10.087A8.1,8.1,0,0,1,211.16,69.034Z" transform="translate(1103.586 -52.949)"/>
            <path id="路径_37456" data-name="路径 37456" d="M123.56,90.734a8.183,8.183,0,1,1,5.674-10.087C130.494,84.429,127.973,89.473,123.56,90.734Z" transform="translate(638.94 62.152)"/>
            <path id="路径_37457" data-name="路径 37457" d="M211.16,69.034a8.183,8.183,0,1,1,5.674-10.087A8.1,8.1,0,0,1,211.16,69.034Z" transform="translate(1103.586 -52.949)"/>
            <path id="路径_37458" data-name="路径 37458" d="M147.36,74.234a8.183,8.183,0,1,1,5.674-10.087C154.294,67.929,151.773,72.973,147.36,74.234Z" transform="translate(765.18 -25.367)"/>
            <path id="路径_37459" data-name="路径 37459" d="M211.16,69.034a8.183,8.183,0,1,1,5.674-10.087A8.1,8.1,0,0,1,211.16,69.034Z" transform="translate(1103.586 -52.949)"/>
            <path id="路径_37460" data-name="路径 37460" d="M145.46,104.734a8.183,8.183,0,1,1,5.674-10.087C151.764,99.06,149.242,103.473,145.46,104.734Z" transform="translate(755.102 136.411)"/>
            <path id="路径_37461" data-name="路径 37461" d="M211.16,69.034a8.183,8.183,0,1,1,5.674-10.087A8.1,8.1,0,0,1,211.16,69.034Z" transform="translate(1103.586 -52.949)"/>
            <path id="路径_37462" data-name="路径 37462" d="M139.66,196.234a8.183,8.183,0,1,1,5.674-10.087A8.1,8.1,0,0,1,139.66,196.234Z" transform="translate(724.337 621.743)"/>
            <path id="路径_37463" data-name="路径 37463" d="M209.76,212.434a8.183,8.183,0,1,1,5.674-10.087A8.1,8.1,0,0,1,209.76,212.434Z" transform="translate(1096.16 707.671)"/>
            <path id="路径_37464" data-name="路径 37464" d="M145.46,104.734a8.183,8.183,0,1,1,5.674-10.087C151.764,99.06,149.242,103.473,145.46,104.734Z" transform="translate(755.102 136.411)"/>
            <path id="路径_37465" data-name="路径 37465" d="M209.76,212.434a8.183,8.183,0,1,1,5.674-10.087A8.1,8.1,0,0,1,209.76,212.434Z" transform="translate(1096.16 707.671)"/>
            <path id="路径_37466" data-name="路径 37466" d="M209.76,212.434a8.183,8.183,0,1,1,5.674-10.087A8.1,8.1,0,0,1,209.76,212.434Z" transform="translate(1096.16 707.671)"/>
            <path id="路径_37467" data-name="路径 37467" d="M233.36,153.733a8.183,8.183,0,1,1,5.674-10.087A8.1,8.1,0,0,1,233.36,153.733Z" transform="translate(1221.339 396.315)"/>
            <path id="路径_37468" data-name="路径 37468" d="M211.16,69.034a8.183,8.183,0,1,1,5.674-10.087A8.1,8.1,0,0,1,211.16,69.034Z" transform="translate(1103.586 -52.949)"/>
            <path id="路径_37469" data-name="路径 37469" d="M233.36,153.733a8.183,8.183,0,1,1,5.674-10.087A8.1,8.1,0,0,1,233.36,153.733Z" transform="translate(1221.339 396.315)"/>
            <path id="路径_37470" data-name="路径 37470" d="M233.36,153.733a8.183,8.183,0,1,1,5.674-10.087A8.1,8.1,0,0,1,233.36,153.733Z" transform="translate(1221.339 396.315)"/>
            <path id="路径_37471" data-name="路径 37471" d="M139.66,196.234a8.183,8.183,0,1,1,5.674-10.087A8.1,8.1,0,0,1,139.66,196.234Z" transform="translate(724.337 621.743)"/>
            <path id="路径_37472" data-name="路径 37472" d="M233.36,153.733a8.183,8.183,0,1,1,5.674-10.087A8.1,8.1,0,0,1,233.36,153.733Z" transform="translate(1221.339 396.315)"/>
            <path id="路径_37473" data-name="路径 37473" d="M123.56,90.734a8.183,8.183,0,1,1,5.674-10.087C130.494,84.429,127.973,89.473,123.56,90.734Z" transform="translate(638.94 62.152)"/>
            <path id="路径_37474" data-name="路径 37474" d="M233.36,153.733a8.183,8.183,0,1,1,5.674-10.087A8.1,8.1,0,0,1,233.36,153.733Z" transform="translate(1221.339 396.315)"/>
            <path id="路径_37475" data-name="路径 37475" d="M147.36,74.234a8.183,8.183,0,1,1,5.674-10.087C154.294,67.929,151.773,72.973,147.36,74.234Z" transform="translate(765.18 -25.367)"/>
            <path id="路径_37476" data-name="路径 37476" d="M233.36,153.733a8.183,8.183,0,1,1,5.674-10.087A8.1,8.1,0,0,1,233.36,153.733Z" transform="translate(1221.339 396.315)"/>
            <path id="路径_37477" data-name="路径 37477" d="M145.46,104.734a8.183,8.183,0,1,1,5.674-10.087C151.764,99.06,149.242,103.473,145.46,104.734Z" transform="translate(755.102 136.411)"/>
            <path id="路径_37478" data-name="路径 37478" d="M233.36,153.733a8.183,8.183,0,1,1,5.674-10.087A8.1,8.1,0,0,1,233.36,153.733Z" transform="translate(1221.339 396.315)"/>
            <path id="路径_37479" data-name="路径 37479" d="M233.36,153.733a8.183,8.183,0,1,1,5.674-10.087A8.1,8.1,0,0,1,233.36,153.733Z" transform="translate(1221.339 396.315)"/>
            <path id="路径_37480" data-name="路径 37480" d="M257.46,217.434a8.183,8.183,0,1,1,5.674-10.087A8.1,8.1,0,0,1,257.46,217.434Z" transform="translate(1349.17 734.192)"/>
            <path id="路径_37481" data-name="路径 37481" d="M233.36,153.733a8.183,8.183,0,1,1,5.674-10.087A8.1,8.1,0,0,1,233.36,153.733Z" transform="translate(1221.339 396.315)"/>
            <path id="路径_37482" data-name="路径 37482" d="M257.46,217.434a8.183,8.183,0,1,1,5.674-10.087A8.1,8.1,0,0,1,257.46,217.434Z" transform="translate(1349.17 734.192)"/>
            <path id="路径_37483" data-name="路径 37483" d="M209.76,212.434a8.183,8.183,0,1,1,5.674-10.087A8.1,8.1,0,0,1,209.76,212.434Z" transform="translate(1096.16 707.671)"/>
            <path id="路径_37484" data-name="路径 37484" d="M257.46,217.434a8.183,8.183,0,1,1,5.674-10.087A8.1,8.1,0,0,1,257.46,217.434Z" transform="translate(1349.17 734.192)"/>
            <path id="路径_37485" data-name="路径 37485" d="M257.46,217.434a8.183,8.183,0,1,1,5.674-10.087A8.1,8.1,0,0,1,257.46,217.434Z" transform="translate(1349.17 734.192)"/>
            <path id="路径_37486" data-name="路径 37486" d="M139.66,196.234a8.183,8.183,0,1,1,5.674-10.087A8.1,8.1,0,0,1,139.66,196.234Z" transform="translate(724.337 621.743)"/>
          </g>
        </g>
      </g>
    </g>
    <g id="组_21710" data-name="组 21710" transform="translate(80 -21)">
      <path id="路径_41009" data-name="路径 41009" d="M200.044,24.776a54.86,54.86,0,0,1,.416,6.76v10.5c-2.34,5.148-5.3,7.7-9.048,7.7a6.47,6.47,0,0,1-2.86-.728c-1.612-.988-2.392-2.912-2.392-5.928V31.536a46.54,46.54,0,0,1,.364-6.76h-7.54a47.8,47.8,0,0,1,.416,6.76V44.692c0,4.264,1.352,7.176,4.212,9a11.328,11.328,0,0,0,6.24,1.508c4.94,0,7.8-1.508,10.66-5.564-.052,1.3-.052,1.456-.052,2.236v2.756h7.072a42.739,42.739,0,0,1-.416-6.76V31.536a37.649,37.649,0,0,1,.416-6.76ZM221.52,54.624a46.266,46.266,0,0,1-.416-6.76V37.36c2.288-5.148,5.356-7.748,9.1-7.748a4.891,4.891,0,0,1,4.368,2.132,8.542,8.542,0,0,1,.884,4.576V47.864a55.26,55.26,0,0,1-.364,6.76h7.54a41.093,41.093,0,0,1-.416-6.76V35.384c0-3.484-.52-5.564-1.768-7.28-1.872-2.548-4.836-3.848-8.84-3.848-4.68,0-7.436,1.456-10.608,5.512a20.317,20.317,0,0,0,.1-2.236V24.776h-7.072a42.739,42.739,0,0,1,.416,6.76V47.864a43.162,43.162,0,0,1-.416,6.76Zm52.156,0a54.118,54.118,0,0,1-.364-6.76v-10.3a11.742,11.742,0,0,1,2.236-5.2,6.441,6.441,0,0,1,5.356-2.7c3.38,0,5.044,2.184,5.044,6.552V47.864a42.319,42.319,0,0,1-.416,6.76h7.488a50.874,50.874,0,0,1-.364-6.76v-10.3c.624-3.224,1.456-4.888,3.276-6.448a6.014,6.014,0,0,1,4.264-1.56c3.484,0,5.1,2.08,5.1,6.656V47.864a41.1,41.1,0,0,1-.416,6.76h7.592a42.323,42.323,0,0,1-.416-6.76V35.02c0-3.692-.728-6.032-2.444-7.9a10.262,10.262,0,0,0-7.8-2.964,11.488,11.488,0,0,0-5.824,1.352c-1.612.832-2.6,1.768-4.368,4.108a6.74,6.74,0,0,0-1.976-3.12,9.327,9.327,0,0,0-6.708-2.34c-4.316,0-8.164,2.028-9.672,5.2.052-.832.052-1.612.052-1.924V24.776h-6.968a45.484,45.484,0,0,1,.364,6.76V47.864a52.462,52.462,0,0,1-.364,6.76Zm66.2-29.848a54.86,54.86,0,0,1,.416,6.76v10.5c-2.34,5.148-5.3,7.7-9.048,7.7a6.47,6.47,0,0,1-2.86-.728c-1.612-.988-2.392-2.912-2.392-5.928V31.536a46.54,46.54,0,0,1,.364-6.76h-7.54a47.794,47.794,0,0,1,.416,6.76V44.692c0,4.264,1.352,7.176,4.212,9a11.328,11.328,0,0,0,6.24,1.508c4.94,0,7.8-1.508,10.66-5.564-.052,1.3-.052,1.456-.052,2.236v2.756h7.072a42.738,42.738,0,0,1-.416-6.76V31.536a37.648,37.648,0,0,1,.416-6.76Zm21.476,29.848a46.265,46.265,0,0,1-.416-6.76V37.36c2.288-5.148,5.356-7.748,9.1-7.748a4.891,4.891,0,0,1,4.368,2.132,8.542,8.542,0,0,1,.884,4.576V47.864a55.26,55.26,0,0,1-.364,6.76h7.54a41.091,41.091,0,0,1-.416-6.76V35.384c0-3.484-.52-5.564-1.768-7.28-1.872-2.548-4.836-3.848-8.84-3.848-4.68,0-7.436,1.456-10.608,5.512a20.317,20.317,0,0,0,.1-2.236V24.776H353.86a42.737,42.737,0,0,1,.416,6.76V47.864a43.16,43.16,0,0,1-.416,6.76Zm50.856,0h6.916a54.584,54.584,0,0,1-.364-7.02V20.2a60.637,60.637,0,0,1,.364-6.968h-7.332a53,53,0,0,1,.364,7.02v5.2c0,.884,0,1.872.052,2.236.052,1.04.052,1.04.052,1.664a13.242,13.242,0,0,0-2.652-2.86,12.343,12.343,0,0,0-7.9-2.392c-8.58,0-14.04,6.032-14.04,15.548,0,5.616,1.924,10.348,5.408,13.052a13.221,13.221,0,0,0,8.684,2.652c5.044,0,7.8-1.352,10.5-5.148-.052.676-.052,1.248-.052,1.872ZM394.42,39.7c0-6.188,3.224-10.14,8.268-10.14a9.52,9.52,0,0,1,6.76,2.912,10.8,10.8,0,0,1,2.5,6.916,11.762,11.762,0,0,1-2.028,6.968,8.7,8.7,0,0,1-6.968,3.432C397.748,49.788,394.42,45.888,394.42,39.7Zm45.5,15.912c9.256,0,15.34-6.344,15.34-15.964s-5.98-15.756-15.392-15.756c-9.464,0-15.5,6.188-15.5,15.86C424.372,49.476,430.4,55.612,439.92,55.612ZM439.868,29.3c5.512,0,8.684,3.848,8.684,10.556,0,6.344-3.328,10.244-8.736,10.244s-8.736-3.952-8.736-10.348C431.08,33.252,434.408,29.3,439.868,29.3Zm61.2-4.524v2.392c0,.572.052,1.144.1,1.872-2.34-3.328-5.824-4.992-10.3-4.992a15.4,15.4,0,0,0-7.852,1.924c-4.16,2.548-6.5,7.436-6.5,13.624,0,4.992,1.4,9,4.056,11.648a13.747,13.747,0,0,0,9.932,3.744c4.628,0,8.112-1.664,10.66-5.044q-.156,2.652-.156,3.9v4a51.825,51.825,0,0,1-.364,6.916h7.332a58.212,58.212,0,0,1-.364-6.864V31.744a53.724,53.724,0,0,1,.364-6.968ZM483.288,39.7c0-6.136,3.38-10.088,8.632-10.088,5.148,0,8.892,4.056,8.892,9.672a12.7,12.7,0,0,1-1.248,5.564,9.144,9.144,0,0,1-8.112,4.68C486.512,49.528,483.288,45.628,483.288,39.7ZM535.5,24.776a54.872,54.872,0,0,1,.416,6.76v10.5c-2.34,5.148-5.3,7.7-9.048,7.7a6.469,6.469,0,0,1-2.86-.728c-1.612-.988-2.392-2.912-2.392-5.928V31.536a46.54,46.54,0,0,1,.364-6.76h-7.54a47.8,47.8,0,0,1,.416,6.76V44.692c0,4.264,1.352,7.176,4.212,9A11.327,11.327,0,0,0,525.3,55.2c4.94,0,7.8-1.508,10.66-5.564-.052,1.3-.052,1.456-.052,2.236v2.756h7.072a42.737,42.737,0,0,1-.416-6.76V31.536a37.647,37.647,0,0,1,.416-6.76Zm41.964,16.64c-.1-1.2-.1-1.352-.1-1.456a21.377,21.377,0,0,0-1.508-7.9c-2.08-5.2-6.864-8.216-12.948-8.216-8.892,0-14.664,6.292-14.664,15.912,0,9.724,5.824,15.86,15.028,15.86a14.767,14.767,0,0,0,10.712-4,14.614,14.614,0,0,0,3.172-4.784l-6.136-1.976a7.558,7.558,0,0,1-1.508,2.7,8.748,8.748,0,0,1-12.74-.312c-1.2-1.508-1.664-2.964-1.924-5.824ZM555,36.268c.78-4.368,3.744-7.072,7.8-7.072a7.416,7.416,0,0,1,5.616,2.08,8.162,8.162,0,0,1,2.288,4.992Zm44.928-23.036v6.6h7.644v-6.6Zm0,11.544a42.737,42.737,0,0,1,.416,6.76V47.864a46.731,46.731,0,0,1-.416,6.76h7.592a52.247,52.247,0,0,1-.364-6.812V31.588a46.749,46.749,0,0,1,.364-6.812ZM621.5,54.624a46.274,46.274,0,0,1-.416-6.76V37.36c2.288-5.148,5.356-7.748,9.1-7.748a4.891,4.891,0,0,1,4.368,2.132,8.542,8.542,0,0,1,.884,4.576V47.864a55.26,55.26,0,0,1-.364,6.76h7.54a41.1,41.1,0,0,1-.416-6.76V35.384c0-3.484-.52-5.564-1.768-7.28-1.872-2.548-4.836-3.848-8.84-3.848-4.68,0-7.436,1.456-10.608,5.512a20.317,20.317,0,0,0,.1-2.236V24.776h-7.072a42.737,42.737,0,0,1,.416,6.76V47.864a43.16,43.16,0,0,1-.416,6.76Zm26.208-8.476a11.7,11.7,0,0,0,2.028,4.628c2.236,3.016,6.24,4.628,11.6,4.628,4.732,0,8.372-1.144,10.764-3.38a8.361,8.361,0,0,0,2.548-5.876,7.39,7.39,0,0,0-3.016-6.448c-1.716-1.3-3.848-2.028-9.152-3.172a21.9,21.9,0,0,1-5.2-1.56,2.8,2.8,0,0,1-1.612-2.444c0-2.184,2.184-3.64,5.408-3.64,3.38,0,5.148,1.248,5.72,4.108l6.864-.884a10.123,10.123,0,0,0-2.808-5.148c-2.132-1.976-5.512-3.016-9.776-3.016-4.732,0-8.268,1.352-10.4,4.056a7.737,7.737,0,0,0-1.612,4.836,7.446,7.446,0,0,0,4.576,6.916,31.435,31.435,0,0,0,7.488,2.236c4.16.936,4.472.988,5.46,1.664a3.179,3.179,0,0,1,1.352,2.6c0,2.444-2.392,3.952-6.24,3.952-4.056,0-5.98-1.4-6.864-4.94Zm39.052-21.372h-6.916a53.724,53.724,0,0,1,.364,6.968V57.9a58.212,58.212,0,0,1-.364,6.864h7.332a51.824,51.824,0,0,1-.364-6.916V53.9c0-.936,0-1.872-.052-2.236-.052-1.04-.052-1.04-.052-1.664,2.5,3.38,5.928,4.992,10.5,4.992,8.84,0,14.092-5.772,14.092-15.34,0-5.252-1.352-9.152-4.108-11.96-2.392-2.392-5.72-3.64-9.88-3.64-4.68,0-7.748,1.456-10.608,5.1.052-.676.052-1.248.052-1.82Zm17.784,14.768c0,6.136-3.172,9.984-8.268,9.984-5.408,0-9.256-4.16-9.256-10.088,0-5.564,3.9-9.828,9.048-9.828C701.324,29.612,704.548,33.408,704.548,39.544Zm12.116-26.312v6.6h7.644v-6.6Zm0,11.544a42.737,42.737,0,0,1,.416,6.76V47.864a46.731,46.731,0,0,1-.416,6.76h7.592a52.247,52.247,0,0,1-.364-6.812V31.588a46.749,46.749,0,0,1,.364-6.812Zm35.88,0a26.962,26.962,0,0,0-4.836-.572c-4.68,0-7.9,1.768-9.776,5.46V24.776H730.86a41.109,41.109,0,0,1,.364,6.76V47.864a57.034,57.034,0,0,1-.364,6.76H738.3a54.7,54.7,0,0,1-.364-6.76v-9.62a8.37,8.37,0,0,1,2.132-5.2A7.422,7.422,0,0,1,746.1,30.5a15.529,15.529,0,0,1,4.628.832Zm31.772,16.64c-.1-1.2-.1-1.352-.1-1.456a21.377,21.377,0,0,0-1.508-7.9c-2.08-5.2-6.864-8.216-12.948-8.216-8.892,0-14.664,6.292-14.664,15.912,0,9.724,5.824,15.86,15.028,15.86a14.767,14.767,0,0,0,10.712-4A14.614,14.614,0,0,0,784,46.824l-6.136-1.976a7.558,7.558,0,0,1-1.508,2.7,8.748,8.748,0,0,1-12.74-.312c-1.2-1.508-1.664-2.964-1.924-5.824Zm-22.464-5.148c.78-4.368,3.744-7.072,7.8-7.072a7.416,7.416,0,0,1,5.616,2.08,8.162,8.162,0,0,1,2.288,4.992ZM22.984,144.624H30a41.822,41.822,0,0,1-.416-6.5V124.136c0-3.536-.676-5.512-2.444-7.176-2.236-2.184-5.252-3.068-10.244-3.068-4.472,0-7.384.78-9.932,2.652-1.976,1.4-2.912,2.756-4.108,5.772l6.656,1.2c.624-1.872,1.092-2.6,2.08-3.328A9.381,9.381,0,0,1,17,118.676c3.952,0,5.98,1.56,5.98,4.576V125.9c-7.436.156-11.284.676-14.664,2.08a9.225,9.225,0,0,0-5.876,8.424c0,5.46,3.848,8.736,10.192,8.736a18.4,18.4,0,0,0,4.836-.624,11.276,11.276,0,0,0,5.512-3.276Zm0-11.6a6.2,6.2,0,0,1-1.872,4.576,10.559,10.559,0,0,1-7.228,2.756c-2.912,0-4.732-1.508-4.732-3.952,0-4.056,3.9-5.772,13.832-5.98Zm30.524-29.8a46.889,46.889,0,0,1,.364,6.76v27.872a50.351,50.351,0,0,1-.364,6.76h7.54a53.561,53.561,0,0,1-.364-6.76v-27.82a48.173,48.173,0,0,1,.364-6.812ZM81.9,145.612c9.256,0,15.34-6.344,15.34-15.964s-5.98-15.756-15.392-15.756c-9.464,0-15.5,6.188-15.5,15.86C66.352,139.476,72.384,145.612,81.9,145.612ZM81.848,119.3c5.512,0,8.684,3.848,8.684,10.556,0,6.344-3.328,10.244-8.736,10.244s-8.736-3.952-8.736-10.348C73.06,123.252,76.388,119.3,81.848,119.3Zm19.292,16.848a11.7,11.7,0,0,0,2.028,4.628c2.236,3.016,6.24,4.628,11.6,4.628,4.732,0,8.372-1.144,10.764-3.38a8.361,8.361,0,0,0,2.548-5.876,7.39,7.39,0,0,0-3.016-6.448c-1.716-1.3-3.848-2.028-9.152-3.172a21.9,21.9,0,0,1-5.2-1.56,2.8,2.8,0,0,1-1.612-2.444c0-2.184,2.184-3.64,5.408-3.64,3.38,0,5.148,1.248,5.72,4.108l6.864-.884a10.122,10.122,0,0,0-2.808-5.148c-2.132-1.976-5.512-3.016-9.776-3.016-4.732,0-8.268,1.352-10.4,4.056a7.737,7.737,0,0,0-1.612,4.836,7.446,7.446,0,0,0,4.576,6.916,31.435,31.435,0,0,0,7.488,2.236c4.16.936,4.472.988,5.46,1.664a3.179,3.179,0,0,1,1.352,2.6c0,2.444-2.392,3.952-6.24,3.952-4.056,0-5.98-1.4-6.864-4.94Zm49.5-32.916a48.662,48.662,0,0,1,.364,6.812v27.82a42.739,42.739,0,0,1-.416,6.76h7.488a46.265,46.265,0,0,1-.416-6.76v-10.5c2.34-5.2,5.356-7.7,9.256-7.7a4.828,4.828,0,0,1,3.588,1.508c.988,1.04,1.508,2.756,1.508,5.148v11.544a55.26,55.26,0,0,1-.364,6.76h7.54a41.093,41.093,0,0,1-.416-6.76v-13.1c0-6.708-3.8-10.5-10.452-10.5-4.732,0-7.54,1.456-10.764,5.512a21.327,21.327,0,0,0,.1-2.236V110.1a49.974,49.974,0,0,1,.364-6.864ZM206.6,114.776a54.86,54.86,0,0,1,.416,6.76v10.5c-2.34,5.148-5.3,7.7-9.048,7.7a6.47,6.47,0,0,1-2.86-.728c-1.612-.988-2.392-2.912-2.392-5.928V121.536a46.54,46.54,0,0,1,.364-6.76h-7.54a47.794,47.794,0,0,1,.416,6.76v13.156c0,4.264,1.352,7.176,4.212,9a11.328,11.328,0,0,0,6.24,1.508c4.94,0,7.8-1.508,10.66-5.564-.052,1.3-.052,1.456-.052,2.236v2.756h7.072a42.739,42.739,0,0,1-.416-6.76V121.536a37.649,37.649,0,0,1,.416-6.76Zm21.32,29.848a54.121,54.121,0,0,1-.364-6.76v-10.3a11.742,11.742,0,0,1,2.236-5.2,6.441,6.441,0,0,1,5.356-2.7c3.38,0,5.044,2.184,5.044,6.552v11.648a42.321,42.321,0,0,1-.416,6.76h7.488a50.868,50.868,0,0,1-.364-6.76v-10.3c.624-3.224,1.456-4.888,3.276-6.448a6.014,6.014,0,0,1,4.264-1.56c3.484,0,5.1,2.08,5.1,6.656v11.648a41.091,41.091,0,0,1-.416,6.76h7.592a42.319,42.319,0,0,1-.416-6.76V125.02c0-3.692-.728-6.032-2.444-7.9a10.262,10.262,0,0,0-7.8-2.964,11.488,11.488,0,0,0-5.824,1.352c-1.612.832-2.6,1.768-4.368,4.108a6.74,6.74,0,0,0-1.976-3.12,9.327,9.327,0,0,0-6.708-2.34c-4.316,0-8.164,2.028-9.672,5.2.052-.832.052-1.612.052-1.924v-2.652h-6.968a45.487,45.487,0,0,1,.364,6.76v16.328a52.465,52.465,0,0,1-.364,6.76Zm64.948,0h7.02a41.825,41.825,0,0,1-.416-6.5V124.136c0-3.536-.676-5.512-2.444-7.176-2.236-2.184-5.252-3.068-10.244-3.068-4.472,0-7.384.78-9.932,2.652-1.976,1.4-2.912,2.756-4.108,5.772l6.656,1.2c.624-1.872,1.092-2.6,2.08-3.328a9.381,9.381,0,0,1,5.408-1.508c3.952,0,5.98,1.56,5.98,4.576V125.9c-7.436.156-11.284.676-14.664,2.08a9.225,9.225,0,0,0-5.876,8.424c0,5.46,3.848,8.736,10.192,8.736a18.4,18.4,0,0,0,4.836-.624,11.276,11.276,0,0,0,5.512-3.276Zm0-11.6a6.2,6.2,0,0,1-1.872,4.576,10.559,10.559,0,0,1-7.228,2.756c-2.912,0-4.732-1.508-4.732-3.952,0-4.056,3.9-5.772,13.832-5.98Zm20.7,11.6a46.265,46.265,0,0,1-.416-6.76v-10.5c2.288-5.148,5.356-7.748,9.1-7.748a4.891,4.891,0,0,1,4.368,2.132,8.542,8.542,0,0,1,.884,4.576v11.544a55.26,55.26,0,0,1-.364,6.76h7.54a41.091,41.091,0,0,1-.416-6.76v-12.48c0-3.484-.52-5.564-1.768-7.28-1.872-2.548-4.836-3.848-8.84-3.848-4.68,0-7.436,1.456-10.608,5.512a20.317,20.317,0,0,0,.1-2.236v-2.756h-7.072a42.737,42.737,0,0,1,.416,6.76v16.328a43.16,43.16,0,0,1-.416,6.76Zm41.808.988c9.256,0,15.34-6.344,15.34-15.964s-5.98-15.756-15.392-15.756c-9.464,0-15.5,6.188-15.5,15.86C339.82,139.476,345.852,145.612,355.368,145.612Zm-.052-26.312c5.512,0,8.684,3.848,8.684,10.556,0,6.344-3.328,10.244-8.736,10.244s-8.736-3.952-8.736-10.348C346.528,123.252,349.856,119.3,355.316,119.3Zm19.292,16.848a11.7,11.7,0,0,0,2.028,4.628c2.236,3.016,6.24,4.628,11.6,4.628,4.732,0,8.372-1.144,10.764-3.38a8.361,8.361,0,0,0,2.548-5.876,7.39,7.39,0,0,0-3.016-6.448c-1.716-1.3-3.848-2.028-9.152-3.172a21.9,21.9,0,0,1-5.2-1.56,2.8,2.8,0,0,1-1.612-2.444c0-2.184,2.184-3.64,5.408-3.64,3.38,0,5.148,1.248,5.72,4.108l6.864-.884a10.122,10.122,0,0,0-2.808-5.148c-2.132-1.976-5.512-3.016-9.776-3.016-4.732,0-8.268,1.352-10.4,4.056a7.737,7.737,0,0,0-1.612,4.836,7.446,7.446,0,0,0,4.576,6.916,31.435,31.435,0,0,0,7.488,2.236c4.16.936,4.472.988,5.46,1.664a3.179,3.179,0,0,1,1.352,2.6c0,2.444-2.392,3.952-6.24,3.952-4.056,0-5.98-1.4-6.864-4.94Zm69.212,8.476h7.02a41.821,41.821,0,0,1-.416-6.5V124.136c0-3.536-.676-5.512-2.444-7.176-2.236-2.184-5.252-3.068-10.244-3.068-4.472,0-7.384.78-9.932,2.652-1.976,1.4-2.912,2.756-4.108,5.772l6.656,1.2c.624-1.872,1.092-2.6,2.08-3.328a9.381,9.381,0,0,1,5.408-1.508c3.952,0,5.98,1.56,5.98,4.576V125.9c-7.436.156-11.284.676-14.664,2.08a9.225,9.225,0,0,0-5.876,8.424c0,5.46,3.848,8.736,10.192,8.736a18.4,18.4,0,0,0,4.836-.624,11.276,11.276,0,0,0,5.512-3.276Zm0-11.6a6.2,6.2,0,0,1-1.872,4.576,10.559,10.559,0,0,1-7.228,2.756c-2.912,0-4.732-1.508-4.732-3.952,0-4.056,3.9-5.772,13.832-5.98Zm57.616-9.776a17.309,17.309,0,0,0-1.82-3.8c-2.5-3.64-6.552-5.616-11.648-5.616a14.239,14.239,0,0,0-10.452,3.952c-2.86,2.912-4.42,7.124-4.42,12.012,0,9.62,5.928,15.808,15.08,15.808,4.94,0,8.944-1.82,11.44-5.252a14.559,14.559,0,0,0,2.184-4.42l-6.448-1.3a7.267,7.267,0,0,1-1.04,2.6,6.961,6.961,0,0,1-5.98,2.912c-5.252,0-8.476-4-8.476-10.5,0-6.448,3.172-10.452,8.268-10.452a6.543,6.543,0,0,1,5.356,2.392,9.371,9.371,0,0,1,1.612,3.172Zm19.708,22.36c9.256,0,15.34-6.344,15.34-15.964s-5.98-15.756-15.392-15.756c-9.464,0-15.5,6.188-15.5,15.86C505.6,139.476,511.628,145.612,521.144,145.612Zm-.052-26.312c5.512,0,8.684,3.848,8.684,10.556,0,6.344-3.328,10.244-8.736,10.244s-8.736-3.952-8.736-10.348C512.3,123.252,515.632,119.3,521.092,119.3Zm28.08,25.324a46.274,46.274,0,0,1-.416-6.76v-10.5c2.288-5.148,5.356-7.748,9.1-7.748a4.891,4.891,0,0,1,4.368,2.132,8.542,8.542,0,0,1,.884,4.576v11.544a55.26,55.26,0,0,1-.364,6.76h7.54a41.1,41.1,0,0,1-.416-6.76v-12.48c0-3.484-.52-5.564-1.768-7.28-1.872-2.548-4.836-3.848-8.84-3.848-4.68,0-7.436,1.456-10.608,5.512a20.317,20.317,0,0,0,.1-2.236v-2.756h-7.072a42.737,42.737,0,0,1,.416,6.76v16.328a43.16,43.16,0,0,1-.416,6.76Zm55.484-13.208c-.1-1.2-.1-1.352-.1-1.456a21.377,21.377,0,0,0-1.508-7.9c-2.08-5.2-6.864-8.216-12.948-8.216-8.892,0-14.664,6.292-14.664,15.912,0,9.724,5.824,15.86,15.028,15.86a14.767,14.767,0,0,0,10.712-4,14.614,14.614,0,0,0,3.172-4.784l-6.136-1.976a7.558,7.558,0,0,1-1.508,2.7,8.748,8.748,0,0,1-12.74-.312c-1.2-1.508-1.664-2.964-1.924-5.824Zm-22.464-5.148c.78-4.368,3.744-7.072,7.8-7.072a7.416,7.416,0,0,1,5.616,2.08,8.162,8.162,0,0,1,2.288,4.992Zm54.7-3.016a17.306,17.306,0,0,0-1.82-3.8c-2.5-3.64-6.552-5.616-11.648-5.616a14.239,14.239,0,0,0-10.452,3.952c-2.86,2.912-4.42,7.124-4.42,12.012,0,9.62,5.928,15.808,15.08,15.808,4.94,0,8.944-1.82,11.44-5.252a14.557,14.557,0,0,0,2.184-4.42l-6.448-1.3a7.269,7.269,0,0,1-1.04,2.6,6.961,6.961,0,0,1-5.98,2.912c-5.252,0-8.476-4-8.476-10.5,0-6.448,3.172-10.452,8.268-10.452a6.542,6.542,0,0,1,5.356,2.392,9.369,9.369,0,0,1,1.612,3.172Zm8.892-16.484a59.85,59.85,0,0,1,.364,6.4v1.612h-1.924a23.883,23.883,0,0,1-4.68-.312V120.6a26.258,26.258,0,0,1,4.628-.312h1.976V137.76c0,5.46,2.392,7.592,8.372,7.592a16.272,16.272,0,0,0,6.5-1.092l-.936-5.512a6.878,6.878,0,0,1-3.8,1.144c-2.5,0-3.432-.936-3.432-3.484v-16.12h2.34a28.67,28.67,0,0,1,5.1.312v-6.136a29.875,29.875,0,0,1-5.252.312H652.86v-1.612a57.513,57.513,0,0,1,.364-6.4Zm38.844,37.856h7.02a41.821,41.821,0,0,1-.416-6.5V124.136c0-3.536-.676-5.512-2.444-7.176-2.236-2.184-5.252-3.068-10.244-3.068-4.472,0-7.384.78-9.932,2.652-1.976,1.4-2.912,2.756-4.108,5.772l6.656,1.2c.624-1.872,1.092-2.6,2.08-3.328a9.381,9.381,0,0,1,5.408-1.508c3.952,0,5.98,1.56,5.98,4.576V125.9c-7.436.156-11.284.676-14.664,2.08a9.225,9.225,0,0,0-5.876,8.424c0,5.46,3.848,8.736,10.192,8.736a18.4,18.4,0,0,0,4.836-.624,11.276,11.276,0,0,0,5.512-3.276Zm0-11.6a6.2,6.2,0,0,1-1.872,4.576,10.559,10.559,0,0,1-7.228,2.756c-2.912,0-4.732-1.508-4.732-3.952,0-4.056,3.9-5.772,13.832-5.98Zm35-18.252a26.962,26.962,0,0,0-4.836-.572c-4.68,0-7.9,1.768-9.776,5.46v-4.888h-7.072a41.109,41.109,0,0,1,.364,6.76v16.328a57.034,57.034,0,0,1-.364,6.76h7.436a54.7,54.7,0,0,1-.364-6.76v-9.62a8.37,8.37,0,0,1,2.132-5.2,7.422,7.422,0,0,1,6.032-2.548,15.529,15.529,0,0,1,4.628.832Zm2.5,21.372a11.7,11.7,0,0,0,2.028,4.628c2.236,3.016,6.24,4.628,11.6,4.628,4.732,0,8.372-1.144,10.764-3.38a8.361,8.361,0,0,0,2.548-5.876,7.39,7.39,0,0,0-3.016-6.448c-1.716-1.3-3.848-2.028-9.152-3.172a21.9,21.9,0,0,1-5.2-1.56,2.8,2.8,0,0,1-1.612-2.444c0-2.184,2.184-3.64,5.408-3.64,3.38,0,5.148,1.248,5.72,4.108l6.864-.884a10.123,10.123,0,0,0-2.808-5.148c-2.132-1.976-5.512-3.016-9.776-3.016-4.732,0-8.268,1.352-10.4,4.056a7.737,7.737,0,0,0-1.612,4.836,7.446,7.446,0,0,0,4.576,6.916,31.435,31.435,0,0,0,7.488,2.236c4.16.936,4.472.988,5.46,1.664a3.179,3.179,0,0,1,1.352,2.6c0,2.444-2.392,3.952-6.24,3.952-4.056,0-5.98-1.4-6.864-4.94Zm60.112-4.732c-.1-1.2-.1-1.352-.1-1.456a21.377,21.377,0,0,0-1.508-7.9c-2.08-5.2-6.864-8.216-12.948-8.216-8.892,0-14.664,6.292-14.664,15.912,0,9.724,5.824,15.86,15.028,15.86a14.767,14.767,0,0,0,10.712-4,14.614,14.614,0,0,0,3.172-4.784l-6.136-1.976a7.558,7.558,0,0,1-1.508,2.7,8.748,8.748,0,0,1-12.74-.312c-1.2-1.508-1.664-2.964-1.924-5.824Zm-22.464-5.148c.78-4.368,3.744-7.072,7.8-7.072a7.416,7.416,0,0,1,5.616,2.08,8.162,8.162,0,0,1,2.288,4.992ZM31.2,221.416c-.1-1.2-.1-1.352-.1-1.456a21.376,21.376,0,0,0-1.508-7.9c-2.08-5.2-6.864-8.216-12.948-8.216-8.892,0-14.664,6.292-14.664,15.912,0,9.724,5.824,15.86,15.028,15.86a14.767,14.767,0,0,0,10.712-4,14.614,14.614,0,0,0,3.172-4.784l-6.136-1.976a7.558,7.558,0,0,1-1.508,2.7,8.222,8.222,0,0,1-6.24,2.6,8.173,8.173,0,0,1-6.5-2.912c-1.2-1.508-1.664-2.964-1.924-5.824ZM8.736,216.268c.78-4.368,3.744-7.072,7.8-7.072a7.416,7.416,0,0,1,5.616,2.08,8.162,8.162,0,0,1,2.288,4.992Zm35.1,18.356a46.267,46.267,0,0,1-.416-6.76v-10.5c2.288-5.148,5.356-7.748,9.1-7.748a4.891,4.891,0,0,1,4.368,2.132,8.542,8.542,0,0,1,.884,4.576v11.544a55.262,55.262,0,0,1-.364,6.76h7.54a41.092,41.092,0,0,1-.416-6.76v-12.48c0-3.484-.52-5.564-1.768-7.28-1.872-2.548-4.836-3.848-8.84-3.848-4.68,0-7.436,1.456-10.608,5.512a20.318,20.318,0,0,0,.1-2.236v-2.756H36.348a42.739,42.739,0,0,1,.416,6.76v16.328a43.162,43.162,0,0,1-.416,6.76Zm30.992-37.856a59.852,59.852,0,0,1,.364,6.4v1.612H73.268a23.884,23.884,0,0,1-4.68-.312V210.6a26.258,26.258,0,0,1,4.628-.312h1.976V227.76c0,5.46,2.392,7.592,8.372,7.592a16.272,16.272,0,0,0,6.5-1.092l-.936-5.512a6.878,6.878,0,0,1-3.8,1.144c-2.5,0-3.432-.936-3.432-3.484v-16.12h2.34a28.669,28.669,0,0,1,5.1.312v-6.136a29.876,29.876,0,0,1-5.252.312H81.9v-1.612a57.512,57.512,0,0,1,.364-6.4Zm40.872,8.008a26.962,26.962,0,0,0-4.836-.572c-4.68,0-7.9,1.768-9.776,5.46v-4.888H94.016a41.111,41.111,0,0,1,.364,6.76v16.328a57.037,57.037,0,0,1-.364,6.76h7.436a54.687,54.687,0,0,1-.364-6.76v-9.62a8.37,8.37,0,0,1,2.132-5.2,7.422,7.422,0,0,1,6.032-2.548,15.528,15.528,0,0,1,4.628.832Zm31.772,16.64c-.1-1.2-.1-1.352-.1-1.456a21.376,21.376,0,0,0-1.508-7.9c-2.08-5.2-6.864-8.216-12.948-8.216-8.892,0-14.664,6.292-14.664,15.912,0,9.724,5.824,15.86,15.028,15.86a14.767,14.767,0,0,0,10.712-4,14.614,14.614,0,0,0,3.172-4.784l-6.136-1.976a7.558,7.558,0,0,1-1.508,2.7,8.748,8.748,0,0,1-12.74-.312c-1.2-1.508-1.664-2.964-1.924-5.824Zm-22.464-5.148c.78-4.368,3.744-7.072,7.8-7.072a7.416,7.416,0,0,1,5.616,2.08,8.162,8.162,0,0,1,2.288,4.992Zm43.628,9.88a11.7,11.7,0,0,0,2.028,4.628c2.236,3.016,6.24,4.628,11.6,4.628,4.732,0,8.372-1.144,10.764-3.38a8.361,8.361,0,0,0,2.548-5.876,7.39,7.39,0,0,0-3.016-6.448c-1.716-1.3-3.848-2.028-9.152-3.172a21.9,21.9,0,0,1-5.2-1.56,2.8,2.8,0,0,1-1.612-2.444c0-2.184,2.184-3.64,5.408-3.64,3.38,0,5.148,1.248,5.72,4.108l6.864-.884a10.122,10.122,0,0,0-2.808-5.148c-2.132-1.976-5.512-3.016-9.776-3.016-4.732,0-8.268,1.352-10.4,4.056a7.737,7.737,0,0,0-1.612,4.836,7.446,7.446,0,0,0,4.576,6.916,31.435,31.435,0,0,0,7.488,2.236c4.16.936,4.472.988,5.46,1.664a3.179,3.179,0,0,1,1.352,2.6c0,2.444-2.392,3.952-6.24,3.952-4.056,0-5.98-1.4-6.864-4.94Zm33.748-21.372a42.739,42.739,0,0,1,.416,6.76v16.328a46.733,46.733,0,0,1-.416,6.76h7.592a52.238,52.238,0,0,1-.364-6.812V211.588a46.742,46.742,0,0,1,.364-6.812Zm-.936-7.384,4.472,4.732,8.944-9.568-2.236-2.34Z" transform="translate(100 418)"/>
      <path id="路径_41008" data-name="路径 41008" d="M5-9.6a4.159,4.159,0,0,0-3.1,1.2A5.137,5.137,0,0,0,.54-4.656c0,3.048,1.752,5,4.476,5S9.5-1.62,9.5-4.656A5.175,5.175,0,0,0,8.16-8.4,4.205,4.205,0,0,0,5-9.6ZM5.04-1.08a2.591,2.591,0,0,1-1.86-.732,3.965,3.965,0,0,1-.972-2.832c0-2.172,1.092-3.54,2.82-3.54a2.583,2.583,0,0,1,1.848.732,3.876,3.876,0,0,1,.948,2.8C7.824-2.448,6.756-1.08,5.04-1.08ZM36.576-9.408a9.767,9.767,0,0,1,.1,1.644V-3.54a2.191,2.191,0,0,1-2.436,2.484,2.2,2.2,0,0,1-2.46-2.472V-7.764a9.41,9.41,0,0,1,.1-1.644H30.084a9.858,9.858,0,0,1,.1,1.644v4.236a3.865,3.865,0,0,0,.9,2.76A4.134,4.134,0,0,0,34.176.36c2.616,0,4.092-1.392,4.092-3.876v-4.26a9.7,9.7,0,0,1,.1-1.632ZM67.332.144c-.168-.324-.468-.972-.564-1.188C65.58-3.852,65.352-4.188,64.6-4.428a2.537,2.537,0,0,0,1.332-.7,2.467,2.467,0,0,0,.612-1.788c0-1.584-1.044-2.5-2.868-2.5h-2.88c-.66,0-1.032-.012-1.536-.036a10.677,10.677,0,0,1,.1,1.56v6.468a9.391,9.391,0,0,1-.1,1.56h1.788a9.364,9.364,0,0,1-.1-1.572V-3.876h1.788c.924,0,1.344.444,1.992,2.1a9.714,9.714,0,0,1,.624,1.92ZM60.948-5.244v-2.8h2.46c.984,0,1.476.444,1.476,1.308A1.424,1.424,0,0,1,64.5-5.676a1.617,1.617,0,0,1-1.14.432ZM116.7.144a9.771,9.771,0,0,1,.528-1.6l1.8-4.224a14.644,14.644,0,0,0,.552-1.752c-.012.18-.048.792-.1,1.836v3.984a11.156,11.156,0,0,1-.1,1.752h1.68a10.4,10.4,0,0,1-.1-1.752V-7.632a12.427,12.427,0,0,1,.1-1.776H118.86a6.65,6.65,0,0,1-.432,1.428L116-2.028,113.568-7.98a8.305,8.305,0,0,1-.444-1.428h-2.2a11.9,11.9,0,0,1,.1,1.776v6.024a11.254,11.254,0,0,1-.1,1.752h1.68a10.964,10.964,0,0,1-.1-1.752V-5.544c0-.264-.048-1.248-.1-1.884a13.354,13.354,0,0,0,.612,1.836l1.728,4.116a8.169,8.169,0,0,1,.528,1.62Zm25.272-9.552a8.966,8.966,0,0,1,.1,1.548V-1.4a9.055,9.055,0,0,1-.1,1.548H143.8a9.055,9.055,0,0,1-.1-1.548V-7.86a8.966,8.966,0,0,1,.1-1.548Zm22.4,6.756a4.1,4.1,0,0,0,.228,1A2.825,2.825,0,0,0,165.66-.288a4.825,4.825,0,0,0,2.52.624,3.977,3.977,0,0,0,2.868-.912,2.792,2.792,0,0,0,.756-2.04,2.368,2.368,0,0,0-1-2.064,5.283,5.283,0,0,0-1.956-.732,10.216,10.216,0,0,1-1.692-.432,1.141,1.141,0,0,1-.816-1.092c0-.78.708-1.308,1.752-1.308a1.9,1.9,0,0,1,1.5.576,1.55,1.55,0,0,1,.36.852l1.716-.2a3.235,3.235,0,0,0-.588-1.392A3.537,3.537,0,0,0,168.1-9.624c-2.064,0-3.408,1.08-3.408,2.748a2.362,2.362,0,0,0,.924,1.944,4.242,4.242,0,0,0,1.812.732,7.566,7.566,0,0,1,2.088.588,1.218,1.218,0,0,1,.6,1.1c0,.9-.72,1.44-1.92,1.44a2.13,2.13,0,0,1-1.752-.708,1.72,1.72,0,0,1-.336-1.056Zm27.78,0a4.1,4.1,0,0,0,.228,1A2.825,2.825,0,0,0,193.44-.288a4.825,4.825,0,0,0,2.52.624,3.977,3.977,0,0,0,2.868-.912,2.792,2.792,0,0,0,.756-2.04,2.368,2.368,0,0,0-1-2.064,5.283,5.283,0,0,0-1.956-.732,10.216,10.216,0,0,1-1.692-.432,1.141,1.141,0,0,1-.816-1.092c0-.78.708-1.308,1.752-1.308a1.9,1.9,0,0,1,1.5.576,1.55,1.55,0,0,1,.36.852l1.716-.2a3.235,3.235,0,0,0-.588-1.392,3.537,3.537,0,0,0-2.988-1.212c-2.064,0-3.408,1.08-3.408,2.748a2.362,2.362,0,0,0,.924,1.944A4.242,4.242,0,0,0,195.2-4.2a7.566,7.566,0,0,1,2.088.588,1.218,1.218,0,0,1,.6,1.1c0,.9-.72,1.44-1.92,1.44a2.13,2.13,0,0,1-1.752-.708,1.72,1.72,0,0,1-.336-1.056Zm28.092-6.756a8.966,8.966,0,0,1,.1,1.548V-1.4a9.055,9.055,0,0,1-.1,1.548h1.824a9.055,9.055,0,0,1-.1-1.548V-7.86a8.966,8.966,0,0,1,.1-1.548ZM247.116-9.6a4.159,4.159,0,0,0-3.1,1.2,5.137,5.137,0,0,0-1.368,3.744c0,3.048,1.752,5,4.476,5s4.488-1.968,4.488-5A5.175,5.175,0,0,0,250.272-8.4,4.205,4.205,0,0,0,247.116-9.6Zm.036,8.52a2.591,2.591,0,0,1-1.86-.732,3.965,3.965,0,0,1-.972-2.832c0-2.172,1.092-3.54,2.82-3.54a2.583,2.583,0,0,1,1.848.732,3.876,3.876,0,0,1,.948,2.8C249.936-2.448,248.868-1.08,247.152-1.08ZM280.368.144a9.055,9.055,0,0,1-.1-1.548V-7.752a10.493,10.493,0,0,1,.1-1.656h-1.752a10.489,10.489,0,0,1,.1,1.656V-3.72c0,.5.036,1.224.084,1.692-.264-.48-.648-1.1-.936-1.536l-3.036-4.572a6.582,6.582,0,0,1-.732-1.272H272.22a9.993,9.993,0,0,1,.1,1.548v6.192a12.983,12.983,0,0,1-.1,1.812h1.752a13.282,13.282,0,0,1-.1-1.8V-5.592c0-.276-.024-.816-.036-1.044-.036-.444-.036-.444-.048-.612.288.564.588,1.08.816,1.44l3.1,4.668a11.958,11.958,0,0,1,.768,1.284Z" transform="translate(100 366)"/>
      <path id="路径_41010" data-name="路径 41010" d="M31.616,40.688A10.622,10.622,0,0,1,29.9,45.472c-1.664,2.444-4.784,3.848-8.424,3.848C14.2,49.32,9.62,43.392,9.62,33.876c0-9.568,4.472-15.34,11.856-15.34a9.416,9.416,0,0,1,7.592,3.224A10.835,10.835,0,0,1,31.3,26.232l7.228-1.664a18.493,18.493,0,0,0-1.612-4A15.964,15.964,0,0,0,31.408,14.9a18.375,18.375,0,0,0-9.984-2.5,18.068,18.068,0,0,0-13,4.94c-3.9,3.9-6.084,9.932-6.084,16.8,0,6.656,2.028,12.532,5.668,16.328,3.172,3.276,7.7,4.992,13.364,4.992,6.24,0,11.232-2.028,14.2-5.668a19.868,19.868,0,0,0,3.484-7.8ZM66.248,24.776a26.961,26.961,0,0,0-4.836-.572c-4.68,0-7.9,1.768-9.776,5.46V24.776H44.564a41.111,41.111,0,0,1,.364,6.76V47.864a57.036,57.036,0,0,1-.364,6.76H52a54.688,54.688,0,0,1-.364-6.76v-9.62a8.37,8.37,0,0,1,2.132-5.2A7.422,7.422,0,0,1,59.8,30.5a15.529,15.529,0,0,1,4.628.832ZM98.02,41.416c-.1-1.2-.1-1.352-.1-1.456a21.377,21.377,0,0,0-1.508-7.9c-2.08-5.2-6.864-8.216-12.948-8.216-8.892,0-14.664,6.292-14.664,15.912,0,9.724,5.824,15.86,15.028,15.86a14.767,14.767,0,0,0,10.712-4,14.614,14.614,0,0,0,3.172-4.784l-6.136-1.976a7.557,7.557,0,0,1-1.508,2.7,8.748,8.748,0,0,1-12.74-.312c-1.2-1.508-1.664-2.964-1.924-5.824ZM75.556,36.268c.78-4.368,3.744-7.072,7.8-7.072a7.416,7.416,0,0,1,5.616,2.08,8.162,8.162,0,0,1,2.288,4.992Zm47.372,18.356h7.02a41.823,41.823,0,0,1-.416-6.5V34.136c0-3.536-.676-5.512-2.444-7.176-2.236-2.184-5.252-3.068-10.244-3.068-4.472,0-7.384.78-9.932,2.652-1.976,1.4-2.912,2.756-4.108,5.772l6.656,1.2c.624-1.872,1.092-2.6,2.08-3.328a9.381,9.381,0,0,1,5.408-1.508c3.952,0,5.98,1.56,5.98,4.576V35.9c-7.436.156-11.284.676-14.664,2.08a9.225,9.225,0,0,0-5.876,8.424c0,5.46,3.848,8.736,10.192,8.736a18.4,18.4,0,0,0,4.836-.624,11.276,11.276,0,0,0,5.512-3.276Zm0-11.6a6.2,6.2,0,0,1-1.872,4.576,10.559,10.559,0,0,1-7.228,2.756c-2.912,0-4.732-1.508-4.732-3.952,0-4.056,3.9-5.772,13.832-5.98Zm35-18.252a26.962,26.962,0,0,0-4.836-.572c-4.68,0-7.9,1.768-9.776,5.46V24.776H136.24a41.111,41.111,0,0,1,.364,6.76V47.864a57.038,57.038,0,0,1-.364,6.76h7.436a54.685,54.685,0,0,1-.364-6.76v-9.62a8.37,8.37,0,0,1,2.132-5.2,7.422,7.422,0,0,1,6.032-2.548,15.529,15.529,0,0,1,4.628.832Z" transform="translate(100 418)" fill="#0080f4"/>
    </g>
  </g>
</svg>
