<svg xmlns="http://www.w3.org/2000/svg" xmlns:xlink="http://www.w3.org/1999/xlink" width="1820" height="880" viewBox="0 0 1820 880">
  <defs>
    <clipPath id="clip-path">
      <rect id="矩形_2253" data-name="矩形 2253" width="1820" height="880" fill="#fff"/>
    </clipPath>
  </defs>
  <g id="banner" transform="translate(-50 -88)">
    <g id="组_21795" data-name="组 21795" transform="translate(0 -72)">
      <g id="NAV_bg" transform="translate(50 160)" clip-path="url(#clip-path)">
        <g id="组_21480" data-name="组 21480" transform="translate(-50 27)" opacity="0.05">
          <g id="组_21478" data-name="组 21478" transform="translate(0 7.733)">
            <g id="组_21420" data-name="组 21420" transform="translate(496.006 224.522)">
              <g id="组_21418" data-name="组 21418" transform="translate(0 0)">
                <rect id="矩形_2227" data-name="矩形 2227" width="472.183" height="1.891" transform="translate(0 84.71) rotate(-10.335)"/>
              </g>
              <g id="组_21419" data-name="组 21419" transform="translate(0 0)">
                <rect id="矩形_2228" data-name="矩形 2228" width="472.183" height="1.891" transform="translate(0 84.71) rotate(-10.335)"/>
              </g>
            </g>
            <g id="组_21424" data-name="组 21424" transform="translate(496.139 32.308)">
              <g id="组_21421" data-name="组 21421" transform="translate(464.098 0.366)">
                <rect id="矩形_2229" data-name="矩形 2229" width="192.908" height="1.261" transform="matrix(0.063, -0.998, 0.998, 0.063, 0, 192.522)"/>
              </g>
              <g id="组_21422" data-name="组 21422" transform="translate(0)">
                <path id="路径_37381" data-name="路径 37381" d="M63.23,337.945l-.63-1.261L538.566,59.3l1.261,1.261Z" transform="translate(-62.6 -59.3)"/>
              </g>
              <g id="组_21423" data-name="组 21423" transform="translate(0)">
                <path id="路径_37382" data-name="路径 37382" d="M63.23,337.945l-.63-1.261L538.566,59.3l1.261,1.261Z" transform="translate(-62.6 -59.3)"/>
              </g>
            </g>
            <g id="组_21429" data-name="组 21429" transform="translate(495.837 32.165)">
              <g id="组_21425" data-name="组 21425" transform="translate(326.765 0)">
                <rect id="矩形_2230" data-name="矩形 2230" width="182.191" height="1.261" transform="translate(0 104.013) rotate(-34.814)"/>
              </g>
              <g id="组_21426" data-name="组 21426" transform="translate(327.17 104.435)">
                <rect id="矩形_2231" data-name="矩形 2231" width="1.261" height="163.278" transform="matrix(0.54, -0.841, 0.841, 0.54, 0, 1.061)"/>
              </g>
              <g id="组_21427" data-name="组 21427" transform="translate(0 103.907)">
                <rect id="矩形_2232" data-name="矩形 2232" width="370.055" height="1.261" transform="translate(0 173.556) rotate(-27.969)"/>
              </g>
              <g id="组_21428" data-name="组 21428" transform="translate(0 103.907)">
                <rect id="矩形_2233" data-name="矩形 2233" width="370.055" height="1.261" transform="translate(0 173.556) rotate(-27.969)"/>
              </g>
            </g>
            <g id="组_21432" data-name="组 21432" transform="translate(0 309.692)">
              <g id="组_21430" data-name="组 21430">
                <path id="路径_37383" data-name="路径 37383" d="M-16.1,576.113,480.669,104.561l-.63-1.261L-16.1,574.222Z" transform="translate(16.1 -103.3)"/>
              </g>
              <g id="组_21431" data-name="组 21431">
                <path id="路径_37384" data-name="路径 37384" d="M-16.1,576.113,480.669,104.561l-.63-1.261L-16.1,574.222Z" transform="translate(16.1 -103.3)"/>
              </g>
            </g>
            <g id="组_21439" data-name="组 21439" transform="translate(0 136.327)">
              <g id="组_21433" data-name="组 21433" transform="translate(0 127.344)">
                <path id="路径_37385" data-name="路径 37385" d="M-16.1,493.163,55.768,96H53.876L-16.1,484.337Z" transform="translate(16.1 -96)"/>
              </g>
              <g id="组_21434" data-name="组 21434" transform="translate(0 115.366)">
                <path id="路径_37386" data-name="路径 37386" d="M-16.1,94.1v1.261l70.607,11.347.63-1.261Z" transform="translate(16.1 -94.1)"/>
              </g>
              <g id="组_21435" data-name="组 21435" transform="translate(70.607)">
                <path id="路径_37387" data-name="路径 37387" d="M-4.27,203.775l-.63-1.261L747.819,75.8v1.261Z" transform="translate(4.9 -75.8)"/>
              </g>
              <g id="组_21436" data-name="组 21436" transform="translate(0 126.714)">
                <path id="路径_37388" data-name="路径 37388" d="M-16.1,143.181,55.137,97.161l-.63-1.261L-16.1,141.29Z" transform="translate(16.1 -95.9)"/>
              </g>
              <g id="组_21437" data-name="组 21437" transform="translate(71.065 126.796)">
                <rect id="矩形_2234" data-name="矩形 2234" width="1.261" height="428.054" transform="translate(0 1.253) rotate(-83.754)"/>
              </g>
              <g id="组_21438" data-name="组 21438" transform="translate(71.065 126.796)">
                <rect id="矩形_2235" data-name="矩形 2235" width="1.261" height="428.054" transform="translate(0 1.253) rotate(-83.754)"/>
              </g>
            </g>
            <g id="组_21445" data-name="组 21445" transform="translate(495.939 33.135)">
              <g id="组_21440" data-name="组 21440" transform="translate(326.126 103.822)">
                <path id="路径_37389" data-name="路径 37389" d="M215.8,741.621,114.3,75.9h1.891L217.058,741.621Z" transform="translate(-114.3 -75.9)"/>
              </g>
              <g id="组_21441" data-name="组 21441" transform="translate(427.475 0)">
                <rect id="矩形_2236" data-name="矩形 2236" width="771.001" height="1.261" transform="translate(0 769.459) rotate(-86.406)"/>
              </g>
              <g id="组_21442" data-name="组 21442" transform="translate(427.648 192.686)">
                <rect id="矩形_2237" data-name="矩形 2237" width="578.093" height="1.261" transform="translate(0 576.937) rotate(-86.392)"/>
              </g>
              <g id="组_21443" data-name="组 21443" transform="translate(0 276.653)">
                <rect id="矩形_2238" data-name="矩形 2238" width="1.261" height="652.483" transform="matrix(0.755, -0.656, 0.656, 0.755, 0, 0.827)"/>
              </g>
              <g id="组_21444" data-name="组 21444" transform="translate(0 276.653)">
                <rect id="矩形_2239" data-name="矩形 2239" width="1.261" height="652.483" transform="matrix(0.755, -0.656, 0.656, 0.755, 0, 0.827)"/>
              </g>
            </g>
            <g id="组_21453" data-name="组 21453" transform="translate(0 136.728)">
              <g id="组_21446" data-name="组 21446" transform="translate(529.871 665.909)">
                <rect id="矩形_2240" data-name="矩形 2240" width="404.098" height="1.891" transform="matrix(0.976, -0.219, 0.219, 0.976, 0, 88.336)"/>
              </g>
              <g id="组_21447" data-name="组 21447" transform="translate(69.976 126.313)">
                <path id="路径_37390" data-name="路径 37390" d="M454.575,725.688-5,97.161-3.739,95.9,455.836,725.057Z" transform="translate(5 -95.9)"/>
              </g>
              <g id="组_21448" data-name="组 21448" transform="translate(0 674.146)">
                <path id="路径_37391" data-name="路径 37391" d="M-16.1,182.8v1.261l530.182,81.324v-1.891Z" transform="translate(16.1 -182.8)"/>
              </g>
              <g id="组_21449" data-name="组 21449" transform="translate(529.561)">
                <rect id="矩形_2241" data-name="矩形 2241" width="810.087" height="1.891" transform="translate(0 755.406) rotate(-68.826)"/>
              </g>
              <g id="组_21450" data-name="组 21450" transform="translate(529.551 88.488)">
                <path id="路径_37392" data-name="路径 37392" d="M69.161,757.513l-1.261-.63L498.476,89.9l1.261.63Z" transform="translate(-67.9 -89.9)"/>
              </g>
              <g id="组_21451" data-name="组 21451" transform="translate(495.627 173.374)">
                <rect id="矩形_2242" data-name="矩形 2242" width="1.891" height="583.137" transform="matrix(0.998, -0.058, 0.058, 0.998, 0, 0.11)"/>
              </g>
              <g id="组_21452" data-name="组 21452" transform="translate(495.627 173.374)">
                <rect id="矩形_2243" data-name="矩形 2243" width="1.891" height="583.137" transform="matrix(0.998, -0.058, 0.058, 0.998, 0, 0.11)"/>
              </g>
            </g>
            <g id="组_21458" data-name="组 21458" transform="translate(822.695 0)">
              <g id="组_21454" data-name="组 21454" transform="translate(552.246 0.157)">
                <path id="路径_37393" data-name="路径 37393" d="M793.962,371.3,202.63,54.2,202,55.461l591.962,317.1Z" transform="translate(-202 -54.2)"/>
              </g>
              <g id="组_21455" data-name="组 21455" transform="translate(0 0.157)">
                <path id="路径_37394" data-name="路径 37394" d="M115.03,191.631l-.63-1.261L666.646,54.2l.63,1.261Z" transform="translate(-114.4 -54.2)"/>
              </g>
              <g id="组_21456" data-name="组 21456" transform="translate(150.039 0.157)">
                <path id="路径_37395" data-name="路径 37395" d="M138.2,87.612V86.351L540.407,54.2l.63,1.261Z" transform="translate(-138.2 -54.2)"/>
              </g>
              <g id="组_21457" data-name="组 21457" transform="translate(137.898)">
                <rect id="矩形_2244" data-name="矩形 2244" width="471.553" height="1.261" transform="matrix(0.879, -0.477, 0.477, 0.879, 0, 224.789)"/>
              </g>
            </g>
            <g id="组_21461" data-name="组 21461" transform="translate(924.193 225.193)">
              <g id="组_21459" data-name="组 21459" transform="translate(0 576.855)">
                <path id="路径_37396" data-name="路径 37396" d="M572.423,284.789,130.5,182.661V181.4L572.423,282.9Z" transform="translate(-130.5 -181.4)"/>
              </g>
              <g id="组_21460" data-name="组 21460" transform="translate(35.844 0)">
                <rect id="矩形_2245" data-name="矩形 2245" width="1.891" height="791.175" transform="translate(0 0.97) rotate(-30.843)"/>
              </g>
            </g>
            <g id="组_21469" data-name="组 21469" transform="translate(822.695 0.025)">
              <g id="组_21462" data-name="组 21462" transform="translate(542.664 534.601)">
                <rect id="矩形_2246" data-name="矩形 2246" width="398.424" height="1.891" transform="matrix(0.374, -0.927, 0.927, 0.374, 0, 369.459)"/>
              </g>
              <g id="组_21463" data-name="组 21463" transform="translate(551.651 0)">
                <rect id="矩形_2247" data-name="矩形 2247" width="1.891" height="552.246" transform="matrix(0.967, -0.253, 0.253, 0.967, 0, 0.479)"/>
              </g>
              <g id="组_21464" data-name="组 21464" transform="translate(692.199 393.513)">
                <path id="路径_37397" data-name="路径 37397" d="M676.21,116.6,224.2,257.183v1.261L676.21,118.491Z" transform="translate(-224.2 -116.6)"/>
              </g>
              <g id="组_21465" data-name="组 21465" transform="translate(101.262 533.511)">
                <rect id="矩形_2248" data-name="矩形 2248" width="648.7" height="1.261" transform="translate(0 268.627) rotate(-24.463)"/>
              </g>
              <g id="组_21466" data-name="组 21466" transform="translate(0 136.302)">
                <path id="路径_37398" data-name="路径 37398" d="M805.968,474.855,114.4,77.061l.63-1.261,692.2,397.794Z" transform="translate(-114.4 -75.8)"/>
              </g>
              <g id="组_21467" data-name="组 21467" transform="translate(149.585 32.046)">
                <rect id="矩形_2249" data-name="矩形 2249" width="1.891" height="738.85" transform="translate(0 1.388) rotate(-47.229)"/>
              </g>
              <g id="组_21468" data-name="组 21468" transform="translate(137.402 224.553)">
                <rect id="矩形_2250" data-name="矩形 2250" width="1.891" height="634.831" transform="translate(0 1.652) rotate(-60.849)"/>
              </g>
            </g>
            <g id="组_21471" data-name="组 21471" transform="translate(1514.894 534.12)">
              <g id="组_21470" data-name="组 21470">
                <path id="路径_37399" data-name="路径 37399" d="M676.21,256.788,224.2,138.9v1.261L676.21,258.679Z" transform="translate(-224.2 -138.9)"/>
              </g>
            </g>
            <g id="组_21477" data-name="组 21477" transform="translate(924.091 497.556)">
              <g id="组_21472" data-name="组 21472" transform="translate(742.734 341.056)">
                <path id="路径_37400" data-name="路径 37400" d="M548.379,187.2,248.3,283.654l.63,1.891,299.448-96.454Z" transform="translate(-248.3 -187.2)"/>
              </g>
              <g id="组_21473" data-name="组 21473" transform="translate(590.173 36.564)">
                <path id="路径_37401" data-name="路径 37401" d="M376.661,541.107,224.1,139.531l1.261-.631L377.922,540.476Z" transform="translate(-224.1 -138.9)"/>
              </g>
              <g id="组_21474" data-name="组 21474" transform="translate(441.745 405.549)">
                <rect id="矩形_2251" data-name="矩形 2251" width="1.891" height="302.601" transform="translate(0 1.881) rotate(-83.996)"/>
              </g>
              <g id="组_21475" data-name="组 21475" transform="translate(742.734)">
                <path id="路径_37402" data-name="路径 37402" d="M548.379,133.1,248.3,571.241l1.261.63L548.379,135.622Z" transform="translate(-248.3 -133.1)"/>
              </g>
              <g id="组_21476" data-name="组 21476" transform="translate(0 304.675)">
                <rect id="矩形_2252" data-name="矩形 2252" width="1.261" height="754.61" transform="translate(0 1.241) rotate(-79.81)"/>
              </g>
            </g>
          </g>
          <g id="组_21479" data-name="组 21479" transform="translate(62.717)">
            <path id="路径_37403" data-name="路径 37403" d="M71.76,118.234a8.183,8.183,0,1,1,5.674-10.087C78.694,111.929,76.173,116.973,71.76,118.234Z" transform="translate(364.184 208.017)"/>
            <path id="路径_37404" data-name="路径 37404" d="M145.46,104.734a8.183,8.183,0,1,1,5.674-10.087C151.764,99.06,149.242,103.473,145.46,104.734Z" transform="translate(755.102 136.411)"/>
            <path id="路径_37405" data-name="路径 37405" d="M71.76,118.234a8.183,8.183,0,1,1,5.674-10.087C78.694,111.929,76.173,116.973,71.76,118.234Z" transform="translate(364.184 208.017)"/>
            <path id="路径_37406" data-name="路径 37406" d="M145.46,104.734a8.183,8.183,0,1,1,5.674-10.087C151.764,99.06,149.242,103.473,145.46,104.734Z" transform="translate(755.102 136.411)"/>
            <path id="路径_37407" data-name="路径 37407" d="M145.46,104.734a8.183,8.183,0,1,1,5.674-10.087C151.764,99.06,149.242,103.473,145.46,104.734Z" transform="translate(755.102 136.411)"/>
            <path id="路径_37408" data-name="路径 37408" d="M147.36,74.234a8.183,8.183,0,1,1,5.674-10.087C154.294,67.929,151.773,72.973,147.36,74.234Z" transform="translate(765.18 -25.367)"/>
            <path id="路径_37409" data-name="路径 37409" d="M71.76,118.234a8.183,8.183,0,1,1,5.674-10.087C78.694,111.929,76.173,116.973,71.76,118.234Z" transform="translate(364.184 208.017)"/>
            <path id="路径_37410" data-name="路径 37410" d="M147.36,74.234a8.183,8.183,0,1,1,5.674-10.087C154.294,67.929,151.773,72.973,147.36,74.234Z" transform="translate(765.18 -25.367)"/>
            <path id="路径_37411" data-name="路径 37411" d="M71.76,118.234a8.183,8.183,0,1,1,5.674-10.087C78.694,111.929,76.173,116.973,71.76,118.234Z" transform="translate(364.184 208.017)"/>
            <path id="路径_37412" data-name="路径 37412" d="M147.36,74.234a8.183,8.183,0,1,1,5.674-10.087C154.294,67.929,151.773,72.973,147.36,74.234Z" transform="translate(765.18 -25.367)"/>
            <path id="路径_37413" data-name="路径 37413" d="M147.36,74.234a8.183,8.183,0,1,1,5.674-10.087C154.294,67.929,151.773,72.973,147.36,74.234Z" transform="translate(765.18 -25.367)"/>
            <path id="路径_37414" data-name="路径 37414" d="M123.56,90.734a8.183,8.183,0,1,1,5.674-10.087C130.494,84.429,127.973,89.473,123.56,90.734Z" transform="translate(638.94 62.152)"/>
            <path id="路径_37415" data-name="路径 37415" d="M145.46,104.734a8.183,8.183,0,1,1,5.674-10.087C151.764,99.06,149.242,103.473,145.46,104.734Z" transform="translate(755.102 136.411)"/>
            <path id="路径_37416" data-name="路径 37416" d="M123.56,90.734a8.183,8.183,0,1,1,5.674-10.087C130.494,84.429,127.973,89.473,123.56,90.734Z" transform="translate(638.94 62.152)"/>
            <path id="路径_37417" data-name="路径 37417" d="M71.76,118.234a8.183,8.183,0,1,1,5.674-10.087C78.694,111.929,76.173,116.973,71.76,118.234Z" transform="translate(364.184 208.017)"/>
            <path id="路径_37418" data-name="路径 37418" d="M123.56,90.734a8.183,8.183,0,1,1,5.674-10.087C130.494,84.429,127.973,89.473,123.56,90.734Z" transform="translate(638.94 62.152)"/>
            <path id="路径_37419" data-name="路径 37419" d="M71.76,118.234a8.183,8.183,0,1,1,5.674-10.087C78.694,111.929,76.173,116.973,71.76,118.234Z" transform="translate(364.184 208.017)"/>
            <path id="路径_37420" data-name="路径 37420" d="M123.56,90.734a8.183,8.183,0,1,1,5.674-10.087C130.494,84.429,127.973,89.473,123.56,90.734Z" transform="translate(638.94 62.152)"/>
            <path id="路径_37421" data-name="路径 37421" d="M71.76,118.234a8.183,8.183,0,1,1,5.674-10.087C78.694,111.929,76.173,116.973,71.76,118.234Z" transform="translate(364.184 208.017)"/>
            <path id="路径_37422" data-name="路径 37422" d="M71.76,118.234a8.183,8.183,0,1,1,5.674-10.087C78.694,111.929,76.173,116.973,71.76,118.234Z" transform="translate(364.184 208.017)"/>
            <path id="路径_37423" data-name="路径 37423" d="M4.26,110.834A8.1,8.1,0,0,1-5.827,105.16,8.1,8.1,0,0,1-.153,95.073a8.1,8.1,0,0,1,10.087,5.674C11.194,104.529,8.673,109.573,4.26,110.834Z" transform="translate(6.151 168.766)"/>
            <path id="路径_37424" data-name="路径 37424" d="M4.26,110.834A8.1,8.1,0,0,1-5.827,105.16,8.1,8.1,0,0,1-.153,95.073a8.1,8.1,0,0,1,10.087,5.674C11.194,104.529,8.673,109.573,4.26,110.834Z" transform="translate(6.151 168.766)"/>
            <path id="路径_37425" data-name="路径 37425" d="M123.56,90.734a8.183,8.183,0,1,1,5.674-10.087C130.494,84.429,127.973,89.473,123.56,90.734Z" transform="translate(638.94 62.152)"/>
            <path id="路径_37426" data-name="路径 37426" d="M4.26,110.834A8.1,8.1,0,0,1-5.827,105.16,8.1,8.1,0,0,1-.153,95.073a8.1,8.1,0,0,1,10.087,5.674C11.194,104.529,8.673,109.573,4.26,110.834Z" transform="translate(6.151 168.766)"/>
            <path id="路径_37427" data-name="路径 37427" d="M4.26,110.834A8.1,8.1,0,0,1-5.827,105.16,8.1,8.1,0,0,1-.153,95.073a8.1,8.1,0,0,1,10.087,5.674C11.194,104.529,8.673,109.573,4.26,110.834Z" transform="translate(6.151 168.766)"/>
            <path id="路径_37428" data-name="路径 37428" d="M71.76,118.234a8.183,8.183,0,1,1,5.674-10.087C78.694,111.929,76.173,116.973,71.76,118.234Z" transform="translate(364.184 208.017)"/>
            <path id="路径_37429" data-name="路径 37429" d="M4.26,110.834A8.1,8.1,0,0,1-5.827,105.16,8.1,8.1,0,0,1-.153,95.073a8.1,8.1,0,0,1,10.087,5.674C11.194,104.529,8.673,109.573,4.26,110.834Z" transform="translate(6.151 168.766)"/>
            <path id="路径_37430" data-name="路径 37430" d="M71.76,118.234a8.183,8.183,0,1,1,5.674-10.087C78.694,111.929,76.173,116.973,71.76,118.234Z" transform="translate(364.184 208.017)"/>
            <path id="路径_37431" data-name="路径 37431" d="M4.26,110.834A8.1,8.1,0,0,1-5.827,105.16,8.1,8.1,0,0,1-.153,95.073a8.1,8.1,0,0,1,10.087,5.674C11.194,104.529,8.673,109.573,4.26,110.834Z" transform="translate(6.151 168.766)"/>
            <path id="路径_37432" data-name="路径 37432" d="M123.56,90.734a8.183,8.183,0,1,1,5.674-10.087C130.494,84.429,127.973,89.473,123.56,90.734Z" transform="translate(638.94 62.152)"/>
            <path id="路径_37433" data-name="路径 37433" d="M139.66,196.234a8.183,8.183,0,1,1,5.674-10.087A8.1,8.1,0,0,1,139.66,196.234Z" transform="translate(724.337 621.743)"/>
            <path id="路径_37434" data-name="路径 37434" d="M147.36,74.234a8.183,8.183,0,1,1,5.674-10.087C154.294,67.929,151.773,72.973,147.36,74.234Z" transform="translate(765.18 -25.367)"/>
            <path id="路径_37435" data-name="路径 37435" d="M139.66,196.234a8.183,8.183,0,1,1,5.674-10.087A8.1,8.1,0,0,1,139.66,196.234Z" transform="translate(724.337 621.743)"/>
            <path id="路径_37436" data-name="路径 37436" d="M145.46,104.734a8.183,8.183,0,1,1,5.674-10.087C151.764,99.06,149.242,103.473,145.46,104.734Z" transform="translate(755.102 136.411)"/>
            <path id="路径_37437" data-name="路径 37437" d="M139.66,196.234a8.183,8.183,0,1,1,5.674-10.087A8.1,8.1,0,0,1,139.66,196.234Z" transform="translate(724.337 621.743)"/>
            <path id="路径_37438" data-name="路径 37438" d="M71.76,118.234a8.183,8.183,0,1,1,5.674-10.087C78.694,111.929,76.173,116.973,71.76,118.234Z" transform="translate(364.184 208.017)"/>
            <path id="路径_37439" data-name="路径 37439" d="M139.66,196.234a8.183,8.183,0,1,1,5.674-10.087A8.1,8.1,0,0,1,139.66,196.234Z" transform="translate(724.337 621.743)"/>
            <path id="路径_37440" data-name="路径 37440" d="M71.76,118.234a8.183,8.183,0,1,1,5.674-10.087C78.694,111.929,76.173,116.973,71.76,118.234Z" transform="translate(364.184 208.017)"/>
            <path id="路径_37441" data-name="路径 37441" d="M139.66,196.234a8.183,8.183,0,1,1,5.674-10.087A8.1,8.1,0,0,1,139.66,196.234Z" transform="translate(724.337 621.743)"/>
            <path id="路径_37442" data-name="路径 37442" d="M139.66,196.234a8.183,8.183,0,1,1,5.674-10.087A8.1,8.1,0,0,1,139.66,196.234Z" transform="translate(724.337 621.743)"/>
            <path id="路径_37443" data-name="路径 37443" d="M77.16,210.534a8.183,8.183,0,1,1,5.674-10.087A8.1,8.1,0,0,1,77.16,210.534Z" transform="translate(392.826 697.593)"/>
            <path id="路径_37444" data-name="路径 37444" d="M4.26,110.834A8.1,8.1,0,0,1-5.827,105.16,8.1,8.1,0,0,1-.153,95.073a8.1,8.1,0,0,1,10.087,5.674C11.194,104.529,8.673,109.573,4.26,110.834Z" transform="translate(6.151 168.766)"/>
            <path id="路径_37445" data-name="路径 37445" d="M77.16,210.534a8.183,8.183,0,1,1,5.674-10.087A8.1,8.1,0,0,1,77.16,210.534Z" transform="translate(392.826 697.593)"/>
            <path id="路径_37446" data-name="路径 37446" d="M77.16,210.534a8.183,8.183,0,1,1,5.674-10.087A8.1,8.1,0,0,1,77.16,210.534Z" transform="translate(392.826 697.593)"/>
            <path id="路径_37447" data-name="路径 37447" d="M123.56,90.734a8.183,8.183,0,1,1,5.674-10.087C130.494,84.429,127.973,89.473,123.56,90.734Z" transform="translate(638.94 62.152)"/>
            <path id="路径_37448" data-name="路径 37448" d="M77.16,210.534a8.183,8.183,0,1,1,5.674-10.087A8.1,8.1,0,0,1,77.16,210.534Z" transform="translate(392.826 697.593)"/>
            <path id="路径_37449" data-name="路径 37449" d="M145.46,104.734a8.183,8.183,0,1,1,5.674-10.087C151.764,99.06,149.242,103.473,145.46,104.734Z" transform="translate(755.102 136.411)"/>
            <path id="路径_37450" data-name="路径 37450" d="M77.16,210.534a8.183,8.183,0,1,1,5.674-10.087A8.1,8.1,0,0,1,77.16,210.534Z" transform="translate(392.826 697.593)"/>
            <path id="路径_37451" data-name="路径 37451" d="M71.76,118.234a8.183,8.183,0,1,1,5.674-10.087C78.694,111.929,76.173,116.973,71.76,118.234Z" transform="translate(364.184 208.017)"/>
            <path id="路径_37452" data-name="路径 37452" d="M77.16,210.534a8.183,8.183,0,1,1,5.674-10.087A8.1,8.1,0,0,1,77.16,210.534Z" transform="translate(392.826 697.593)"/>
            <path id="路径_37453" data-name="路径 37453" d="M71.76,118.234a8.183,8.183,0,1,1,5.674-10.087C78.694,111.929,76.173,116.973,71.76,118.234Z" transform="translate(364.184 208.017)"/>
            <path id="路径_37454" data-name="路径 37454" d="M77.16,210.534a8.183,8.183,0,1,1,5.674-10.087A8.1,8.1,0,0,1,77.16,210.534Z" transform="translate(392.826 697.593)"/>
            <path id="路径_37455" data-name="路径 37455" d="M211.16,69.034a8.183,8.183,0,1,1,5.674-10.087A8.1,8.1,0,0,1,211.16,69.034Z" transform="translate(1103.586 -52.949)"/>
            <path id="路径_37456" data-name="路径 37456" d="M123.56,90.734a8.183,8.183,0,1,1,5.674-10.087C130.494,84.429,127.973,89.473,123.56,90.734Z" transform="translate(638.94 62.152)"/>
            <path id="路径_37457" data-name="路径 37457" d="M211.16,69.034a8.183,8.183,0,1,1,5.674-10.087A8.1,8.1,0,0,1,211.16,69.034Z" transform="translate(1103.586 -52.949)"/>
            <path id="路径_37458" data-name="路径 37458" d="M147.36,74.234a8.183,8.183,0,1,1,5.674-10.087C154.294,67.929,151.773,72.973,147.36,74.234Z" transform="translate(765.18 -25.367)"/>
            <path id="路径_37459" data-name="路径 37459" d="M211.16,69.034a8.183,8.183,0,1,1,5.674-10.087A8.1,8.1,0,0,1,211.16,69.034Z" transform="translate(1103.586 -52.949)"/>
            <path id="路径_37460" data-name="路径 37460" d="M145.46,104.734a8.183,8.183,0,1,1,5.674-10.087C151.764,99.06,149.242,103.473,145.46,104.734Z" transform="translate(755.102 136.411)"/>
            <path id="路径_37461" data-name="路径 37461" d="M211.16,69.034a8.183,8.183,0,1,1,5.674-10.087A8.1,8.1,0,0,1,211.16,69.034Z" transform="translate(1103.586 -52.949)"/>
            <path id="路径_37462" data-name="路径 37462" d="M139.66,196.234a8.183,8.183,0,1,1,5.674-10.087A8.1,8.1,0,0,1,139.66,196.234Z" transform="translate(724.337 621.743)"/>
            <path id="路径_37463" data-name="路径 37463" d="M209.76,212.434a8.183,8.183,0,1,1,5.674-10.087A8.1,8.1,0,0,1,209.76,212.434Z" transform="translate(1096.16 707.671)"/>
            <path id="路径_37464" data-name="路径 37464" d="M145.46,104.734a8.183,8.183,0,1,1,5.674-10.087C151.764,99.06,149.242,103.473,145.46,104.734Z" transform="translate(755.102 136.411)"/>
            <path id="路径_37465" data-name="路径 37465" d="M209.76,212.434a8.183,8.183,0,1,1,5.674-10.087A8.1,8.1,0,0,1,209.76,212.434Z" transform="translate(1096.16 707.671)"/>
            <path id="路径_37466" data-name="路径 37466" d="M209.76,212.434a8.183,8.183,0,1,1,5.674-10.087A8.1,8.1,0,0,1,209.76,212.434Z" transform="translate(1096.16 707.671)"/>
            <path id="路径_37467" data-name="路径 37467" d="M233.36,153.733a8.183,8.183,0,1,1,5.674-10.087A8.1,8.1,0,0,1,233.36,153.733Z" transform="translate(1221.339 396.315)"/>
            <path id="路径_37468" data-name="路径 37468" d="M211.16,69.034a8.183,8.183,0,1,1,5.674-10.087A8.1,8.1,0,0,1,211.16,69.034Z" transform="translate(1103.586 -52.949)"/>
            <path id="路径_37469" data-name="路径 37469" d="M233.36,153.733a8.183,8.183,0,1,1,5.674-10.087A8.1,8.1,0,0,1,233.36,153.733Z" transform="translate(1221.339 396.315)"/>
            <path id="路径_37470" data-name="路径 37470" d="M233.36,153.733a8.183,8.183,0,1,1,5.674-10.087A8.1,8.1,0,0,1,233.36,153.733Z" transform="translate(1221.339 396.315)"/>
            <path id="路径_37471" data-name="路径 37471" d="M139.66,196.234a8.183,8.183,0,1,1,5.674-10.087A8.1,8.1,0,0,1,139.66,196.234Z" transform="translate(724.337 621.743)"/>
            <path id="路径_37472" data-name="路径 37472" d="M233.36,153.733a8.183,8.183,0,1,1,5.674-10.087A8.1,8.1,0,0,1,233.36,153.733Z" transform="translate(1221.339 396.315)"/>
            <path id="路径_37473" data-name="路径 37473" d="M123.56,90.734a8.183,8.183,0,1,1,5.674-10.087C130.494,84.429,127.973,89.473,123.56,90.734Z" transform="translate(638.94 62.152)"/>
            <path id="路径_37474" data-name="路径 37474" d="M233.36,153.733a8.183,8.183,0,1,1,5.674-10.087A8.1,8.1,0,0,1,233.36,153.733Z" transform="translate(1221.339 396.315)"/>
            <path id="路径_37475" data-name="路径 37475" d="M147.36,74.234a8.183,8.183,0,1,1,5.674-10.087C154.294,67.929,151.773,72.973,147.36,74.234Z" transform="translate(765.18 -25.367)"/>
            <path id="路径_37476" data-name="路径 37476" d="M233.36,153.733a8.183,8.183,0,1,1,5.674-10.087A8.1,8.1,0,0,1,233.36,153.733Z" transform="translate(1221.339 396.315)"/>
            <path id="路径_37477" data-name="路径 37477" d="M145.46,104.734a8.183,8.183,0,1,1,5.674-10.087C151.764,99.06,149.242,103.473,145.46,104.734Z" transform="translate(755.102 136.411)"/>
            <path id="路径_37478" data-name="路径 37478" d="M233.36,153.733a8.183,8.183,0,1,1,5.674-10.087A8.1,8.1,0,0,1,233.36,153.733Z" transform="translate(1221.339 396.315)"/>
            <path id="路径_37479" data-name="路径 37479" d="M233.36,153.733a8.183,8.183,0,1,1,5.674-10.087A8.1,8.1,0,0,1,233.36,153.733Z" transform="translate(1221.339 396.315)"/>
            <path id="路径_37480" data-name="路径 37480" d="M257.46,217.434a8.183,8.183,0,1,1,5.674-10.087A8.1,8.1,0,0,1,257.46,217.434Z" transform="translate(1349.17 734.192)"/>
            <path id="路径_37481" data-name="路径 37481" d="M233.36,153.733a8.183,8.183,0,1,1,5.674-10.087A8.1,8.1,0,0,1,233.36,153.733Z" transform="translate(1221.339 396.315)"/>
            <path id="路径_37482" data-name="路径 37482" d="M257.46,217.434a8.183,8.183,0,1,1,5.674-10.087A8.1,8.1,0,0,1,257.46,217.434Z" transform="translate(1349.17 734.192)"/>
            <path id="路径_37483" data-name="路径 37483" d="M209.76,212.434a8.183,8.183,0,1,1,5.674-10.087A8.1,8.1,0,0,1,209.76,212.434Z" transform="translate(1096.16 707.671)"/>
            <path id="路径_37484" data-name="路径 37484" d="M257.46,217.434a8.183,8.183,0,1,1,5.674-10.087A8.1,8.1,0,0,1,257.46,217.434Z" transform="translate(1349.17 734.192)"/>
            <path id="路径_37485" data-name="路径 37485" d="M257.46,217.434a8.183,8.183,0,1,1,5.674-10.087A8.1,8.1,0,0,1,257.46,217.434Z" transform="translate(1349.17 734.192)"/>
            <path id="路径_37486" data-name="路径 37486" d="M139.66,196.234a8.183,8.183,0,1,1,5.674-10.087A8.1,8.1,0,0,1,139.66,196.234Z" transform="translate(724.337 621.743)"/>
          </g>
        </g>
      </g>
    </g>
    <g id="组_21710" data-name="组 21710" transform="translate(80 -16)">
      <path id="路径_40978" data-name="路径 40978" d="M30.672-5.472a45.905,45.905,0,0,1-6.144.336h-14.4V-16.464H21.84a37.613,37.613,0,0,1,6.24.336v-6.288a49.957,49.957,0,0,1-6.24.336H10.176v-9.888H24a42.987,42.987,0,0,1,6.192.336v-6.336A51.284,51.284,0,0,1,24-37.632H9.5c-2.928,0-4.176-.048-6.1-.144a42.465,42.465,0,0,1,.384,6.192V-5.616A38.827,38.827,0,0,1,3.408.72C5.328.624,6.624.576,9.5.576H24.48a41.267,41.267,0,0,1,6.192.336Zm3.984-1.776a10.8,10.8,0,0,0,1.872,4.272C38.592-.192,42.288,1.3,47.232,1.3,51.6,1.3,54.96.24,57.168-1.824A7.718,7.718,0,0,0,59.52-7.248,6.822,6.822,0,0,0,56.736-13.2c-1.584-1.2-3.552-1.872-8.448-2.928a20.218,20.218,0,0,1-4.8-1.44A2.587,2.587,0,0,1,42-19.824c0-2.016,2.016-3.36,4.992-3.36,3.12,0,4.752,1.152,5.28,3.792l6.336-.816a9.344,9.344,0,0,0-2.592-4.752c-1.968-1.824-5.088-2.784-9.024-2.784-4.368,0-7.632,1.248-9.6,3.744A7.142,7.142,0,0,0,35.9-19.536a6.873,6.873,0,0,0,4.224,6.384,29.017,29.017,0,0,0,6.912,2.064c3.84.864,4.128.912,5.04,1.536a2.935,2.935,0,0,1,1.248,2.4c0,2.256-2.208,3.648-5.76,3.648-3.744,0-5.52-1.3-6.336-4.56Zm275.28-4.368c-.1-1.1-.1-1.248-.1-1.344a19.733,19.733,0,0,0-1.392-7.3c-1.92-4.8-6.336-7.584-11.952-7.584-8.208,0-13.536,5.808-13.536,14.688,0,8.976,5.376,14.64,13.872,14.64a13.631,13.631,0,0,0,9.888-3.7,13.49,13.49,0,0,0,2.928-4.416l-5.664-1.824a6.976,6.976,0,0,1-1.392,2.5,7.59,7.59,0,0,1-5.76,2.4,7.544,7.544,0,0,1-6-2.688c-1.1-1.392-1.536-2.736-1.776-5.376ZM289.2-16.368c.72-4.032,3.456-6.528,7.2-6.528a6.845,6.845,0,0,1,5.184,1.92,7.534,7.534,0,0,1,2.112,4.608Zm25.488-21.264v6.1h7.056v-6.1Zm0,10.656a39.452,39.452,0,0,1,.384,6.24V-5.664a43.139,43.139,0,0,1-.384,6.24H321.7a48.215,48.215,0,0,1-.336-6.288V-20.688a43.143,43.143,0,0,1,.336-6.288ZM334.608.576a42.709,42.709,0,0,1-.384-6.24v-9.7c2.112-4.752,4.944-7.152,8.4-7.152a4.515,4.515,0,0,1,4.032,1.968,7.885,7.885,0,0,1,.816,4.224V-5.664a51.007,51.007,0,0,1-.336,6.24h6.96a37.932,37.932,0,0,1-.384-6.24v-11.52c0-3.216-.48-5.136-1.632-6.72-1.728-2.352-4.464-3.552-8.16-3.552-4.32,0-6.864,1.344-9.792,5.088a18.753,18.753,0,0,0,.1-2.064v-2.544H327.7a39.452,39.452,0,0,1,.384,6.24V-5.664A39.843,39.843,0,0,1,327.7.576Zm51.216-12.192c-.1-1.1-.1-1.248-.1-1.344a19.733,19.733,0,0,0-1.392-7.3c-1.92-4.8-6.336-7.584-11.952-7.584-8.208,0-13.536,5.808-13.536,14.688,0,8.976,5.376,14.64,13.872,14.64a13.631,13.631,0,0,0,9.888-3.7,13.49,13.49,0,0,0,2.928-4.416l-5.664-1.824a6.976,6.976,0,0,1-1.392,2.5,7.59,7.59,0,0,1-5.76,2.4,7.544,7.544,0,0,1-6-2.688c-1.1-1.392-1.536-2.736-1.776-5.376Zm-20.736-4.752c.72-4.032,3.456-6.528,7.2-6.528a6.845,6.845,0,0,1,5.184,1.92,7.534,7.534,0,0,1,2.112,4.608Zm78,16.944a11.925,11.925,0,0,1,.528-2.352c.1-.432.336-1.3.672-2.64l7.68-27.5a44.178,44.178,0,0,1,1.872-5.712h-7.68a25.568,25.568,0,0,1-.816,5.136L440.88-14.4c-.1.432-.48,2.3-.624,3.072-.288,1.68-.288,1.68-.528,2.784-.768-3.6-1.008-4.56-1.344-5.808l-5.376-18.48a34.158,34.158,0,0,1-1.1-4.8H426a30.529,30.529,0,0,1-1.056,4.9l-5.328,18.528c-.384,1.344-.72,2.688-1.344,5.664-.288-1.68-.816-4.128-1.152-5.616l-4.464-18.288a26.424,26.424,0,0,1-.864-5.184h-7.68a47.855,47.855,0,0,1,1.92,5.712l7.632,27.552c1.056,3.744,1.056,3.744,1.3,4.944h6.384a40.672,40.672,0,0,1,1.1-4.848l5.088-17.856c.432-1.536.912-3.408,1.44-6.144a59.685,59.685,0,0,0,1.392,6.144L435.5-4.272A48.626,48.626,0,0,1,436.656.576Zm40.08-12.192c-.1-1.1-.1-1.248-.1-1.344a19.733,19.733,0,0,0-1.392-7.3c-1.92-4.8-6.336-7.584-11.952-7.584-8.208,0-13.536,5.808-13.536,14.688,0,8.976,5.376,14.64,13.872,14.64a13.631,13.631,0,0,0,9.888-3.7,13.49,13.49,0,0,0,2.928-4.416l-5.664-1.824a6.976,6.976,0,0,1-1.392,2.5,7.59,7.59,0,0,1-5.76,2.4,7.544,7.544,0,0,1-6-2.688c-1.1-1.392-1.536-2.736-1.776-5.376Zm-20.736-4.752c.72-4.032,3.456-6.528,7.2-6.528a6.845,6.845,0,0,1,5.184,1.92,7.534,7.534,0,0,1,2.112,4.608ZM487.92-37.632a43.284,43.284,0,0,1,.336,6.24V-5.664a46.48,46.48,0,0,1-.336,6.24h6.96a49.443,49.443,0,0,1-.336-6.24v-25.68a44.469,44.469,0,0,1,.336-6.288Zm16.224,3.264a55.244,55.244,0,0,1,.336,5.9v1.488H502.7a22.047,22.047,0,0,1-4.32-.288V-21.6a24.239,24.239,0,0,1,4.272-.288h1.824V-5.76c0,5.04,2.208,7.008,7.728,7.008a15.02,15.02,0,0,0,6-1.008l-.864-5.088a6.349,6.349,0,0,1-3.5,1.056c-2.3,0-3.168-.864-3.168-3.216v-14.88h2.16a26.465,26.465,0,0,1,4.7.288v-5.664a27.577,27.577,0,0,1-4.848.288h-2.016v-1.488a53.093,53.093,0,0,1,.336-5.9ZM528.768-6.432h-7.056V.576h4.032c-.048,2.976-.72,3.84-3.648,4.656l1.728,2.544c3.888-1.536,4.944-3.072,4.944-7.2ZM572.256.576h6.384A50.389,50.389,0,0,1,578.3-5.9V-31.2a55.977,55.977,0,0,1,.336-6.432h-6.768a48.924,48.924,0,0,1,.336,6.48v4.8c0,.816,0,1.728.048,2.064.048.96.048.96.048,1.536a12.222,12.222,0,0,0-2.448-2.64,11.393,11.393,0,0,0-7.3-2.208c-7.92,0-12.96,5.568-12.96,14.352,0,5.184,1.776,9.552,4.992,12.048a12.2,12.2,0,0,0,8.016,2.448c4.656,0,7.2-1.248,9.7-4.752-.048.624-.048,1.152-.048,1.728ZM555.84-13.2c0-5.712,2.976-9.36,7.632-9.36a8.788,8.788,0,0,1,6.24,2.688,9.967,9.967,0,0,1,2.3,6.384,10.858,10.858,0,0,1-1.872,6.432,8.026,8.026,0,0,1-6.432,3.168C558.912-3.888,555.84-7.488,555.84-13.2Zm28.8-24.432v6.1H591.7v-6.1Zm0,10.656a39.456,39.456,0,0,1,.384,6.24V-5.664a43.143,43.143,0,0,1-.384,6.24h7.008a48.221,48.221,0,0,1-.336-6.288V-20.688a43.147,43.147,0,0,1,.336-6.288Zm38.832,15.36c-.1-1.1-.1-1.248-.1-1.344a19.732,19.732,0,0,0-1.392-7.3c-1.92-4.8-6.336-7.584-11.952-7.584-8.208,0-13.536,5.808-13.536,14.688,0,8.976,5.376,14.64,13.872,14.64a13.631,13.631,0,0,0,9.888-3.7,13.49,13.49,0,0,0,2.928-4.416L617.52-8.448a6.977,6.977,0,0,1-1.392,2.5,7.59,7.59,0,0,1-5.76,2.4,7.544,7.544,0,0,1-6-2.688c-1.1-1.392-1.536-2.736-1.776-5.376Zm-20.736-4.752c.72-4.032,3.456-6.528,7.2-6.528a6.845,6.845,0,0,1,5.184,1.92,7.534,7.534,0,0,1,2.112,4.608ZM26.5,90.576a39.082,39.082,0,0,1,2.112-6.384l7.2-16.9a58.577,58.577,0,0,0,2.208-7.008c-.048.72-.192,3.168-.384,7.344V83.568a44.628,44.628,0,0,1-.384,7.008h6.72a41.613,41.613,0,0,1-.384-7.008v-24.1a49.71,49.71,0,0,1,.384-7.1H35.136a26.6,26.6,0,0,1-1.728,5.712l-9.7,23.808L13.968,58.08a33.216,33.216,0,0,1-1.776-5.712H3.408a47.614,47.614,0,0,1,.384,7.1v24.1a45.02,45.02,0,0,1-.384,7.008h6.72a43.856,43.856,0,0,1-.384-7.008V67.824c0-1.056-.192-4.992-.384-7.536a53.419,53.419,0,0,0,2.448,7.344L18.72,84.1a32.676,32.676,0,0,1,2.112,6.48Zm49.68-12.192c-.1-1.1-.1-1.248-.1-1.344a19.732,19.732,0,0,0-1.392-7.3c-1.92-4.8-6.336-7.584-11.952-7.584-8.208,0-13.536,5.808-13.536,14.688,0,8.976,5.376,14.64,13.872,14.64a13.631,13.631,0,0,0,9.888-3.7,13.49,13.49,0,0,0,2.928-4.416l-5.664-1.824a6.976,6.976,0,0,1-1.392,2.5,8.075,8.075,0,0,1-11.76-.288c-1.1-1.392-1.536-2.736-1.776-5.376ZM55.44,73.632C56.16,69.6,58.9,67.1,62.64,67.1a6.845,6.845,0,0,1,5.184,1.92,7.534,7.534,0,0,1,2.112,4.608Zm32.4,16.944a42.708,42.708,0,0,1-.384-6.24v-9.7c2.112-4.752,4.944-7.152,8.4-7.152a4.515,4.515,0,0,1,4.032,1.968,7.885,7.885,0,0,1,.816,4.224V84.336a51.01,51.01,0,0,1-.336,6.24h6.96a37.931,37.931,0,0,1-.384-6.24V72.816c0-3.216-.48-5.136-1.632-6.72-1.728-2.352-4.464-3.552-8.16-3.552-4.32,0-6.864,1.344-9.792,5.088a18.757,18.757,0,0,0,.1-2.064V63.024H80.928a39.451,39.451,0,0,1,.384,6.24V84.336a39.841,39.841,0,0,1-.384,6.24Zm24.192-7.824a10.8,10.8,0,0,0,1.872,4.272c2.064,2.784,5.76,4.272,10.7,4.272,4.368,0,7.728-1.056,9.936-3.12a7.718,7.718,0,0,0,2.352-5.424,6.822,6.822,0,0,0-2.784-5.952c-1.584-1.2-3.552-1.872-8.448-2.928a20.218,20.218,0,0,1-4.8-1.44,2.587,2.587,0,0,1-1.488-2.256c0-2.016,2.016-3.36,4.992-3.36,3.12,0,4.752,1.152,5.28,3.792l6.336-.816a9.344,9.344,0,0,0-2.592-4.752c-1.968-1.824-5.088-2.784-9.024-2.784-4.368,0-7.632,1.248-9.6,3.744a7.142,7.142,0,0,0-1.488,4.464,6.873,6.873,0,0,0,4.224,6.384,29.017,29.017,0,0,0,6.912,2.064c3.84.864,4.128.912,5.04,1.536a2.935,2.935,0,0,1,1.248,2.4c0,2.256-2.208,3.648-5.76,3.648-3.744,0-5.52-1.3-6.336-4.56Zm54.672-11.9a15.977,15.977,0,0,0-1.68-3.5c-2.3-3.36-6.048-5.184-10.752-5.184a13.144,13.144,0,0,0-9.648,3.648,15.521,15.521,0,0,0-4.08,11.088c0,8.88,5.472,14.592,13.92,14.592,4.56,0,8.256-1.68,10.56-4.848a13.439,13.439,0,0,0,2.016-4.08l-5.952-1.2a6.709,6.709,0,0,1-.96,2.4,6.426,6.426,0,0,1-5.52,2.688c-4.848,0-7.824-3.7-7.824-9.7,0-5.952,2.928-9.648,7.632-9.648a6.039,6.039,0,0,1,4.944,2.208,8.649,8.649,0,0,1,1.488,2.928Zm5.04-18.48a44.917,44.917,0,0,1,.336,6.288v25.68a39.45,39.45,0,0,1-.384,6.24h6.912a42.709,42.709,0,0,1-.384-6.24v-9.7c2.16-4.8,4.944-7.1,8.544-7.1a4.456,4.456,0,0,1,3.312,1.392c.912.96,1.392,2.544,1.392,4.752V84.336a51.01,51.01,0,0,1-.336,6.24h6.96a37.931,37.931,0,0,1-.384-6.24V72.24c0-6.192-3.5-9.7-9.648-9.7-4.368,0-6.96,1.344-9.936,5.088a19.688,19.688,0,0,0,.1-2.064V58.7a46.133,46.133,0,0,1,.336-6.336Zm58.08,26.016c-.1-1.1-.1-1.248-.1-1.344a19.732,19.732,0,0,0-1.392-7.3c-1.92-4.8-6.336-7.584-11.952-7.584-8.208,0-13.536,5.808-13.536,14.688,0,8.976,5.376,14.64,13.872,14.64a13.631,13.631,0,0,0,9.888-3.7,13.49,13.49,0,0,0,2.928-4.416l-5.664-1.824a6.976,6.976,0,0,1-1.392,2.5,8.075,8.075,0,0,1-11.76-.288c-1.1-1.392-1.536-2.736-1.776-5.376Zm-20.736-4.752c.72-4.032,3.456-6.528,7.2-6.528a6.845,6.845,0,0,1,5.184,1.92,7.534,7.534,0,0,1,2.112,4.608Zm32.4,16.944a42.709,42.709,0,0,1-.384-6.24v-9.7c2.112-4.752,4.944-7.152,8.4-7.152a4.515,4.515,0,0,1,4.032,1.968,7.885,7.885,0,0,1,.816,4.224V84.336a51.01,51.01,0,0,1-.336,6.24h6.96a37.932,37.932,0,0,1-.384-6.24V72.816c0-3.216-.48-5.136-1.632-6.72-1.728-2.352-4.464-3.552-8.16-3.552-4.32,0-6.864,1.344-9.792,5.088a18.757,18.757,0,0,0,.1-2.064V63.024h-6.528a39.45,39.45,0,0,1,.384,6.24V84.336a39.84,39.84,0,0,1-.384,6.24Zm62.928,0H310.8a50.389,50.389,0,0,1-.336-6.48V58.8a55.977,55.977,0,0,1,.336-6.432h-6.768a48.924,48.924,0,0,1,.336,6.48v4.8c0,.816,0,1.728.048,2.064.048.96.048.96.048,1.536a12.223,12.223,0,0,0-2.448-2.64,11.393,11.393,0,0,0-7.3-2.208c-7.92,0-12.96,5.568-12.96,14.352,0,5.184,1.776,9.552,4.992,12.048a12.2,12.2,0,0,0,8.016,2.448c4.656,0,7.2-1.248,9.7-4.752-.048.624-.048,1.152-.048,1.728ZM288,76.8c0-5.712,2.976-9.36,7.632-9.36a8.788,8.788,0,0,1,6.24,2.688,9.967,9.967,0,0,1,2.3,6.384,10.858,10.858,0,0,1-1.872,6.432,8.026,8.026,0,0,1-6.432,3.168C291.072,86.112,288,82.512,288,76.8Zm47.04,13.776h6.48a38.6,38.6,0,0,1-.384-6V71.664c0-3.264-.624-5.088-2.256-6.624-2.064-2.016-4.848-2.832-9.456-2.832-4.128,0-6.816.72-9.168,2.448-1.824,1.3-2.688,2.544-3.792,5.328l6.144,1.1a5.23,5.23,0,0,1,1.92-3.072,8.66,8.66,0,0,1,4.992-1.392c3.648,0,5.52,1.44,5.52,4.224V73.3c-6.864.144-10.416.624-13.536,1.92a8.515,8.515,0,0,0-5.424,7.776c0,5.04,3.552,8.064,9.408,8.064a16.984,16.984,0,0,0,4.464-.576,10.409,10.409,0,0,0,5.088-3.024Zm0-10.7a5.72,5.72,0,0,1-1.728,4.224,9.747,9.747,0,0,1-6.672,2.544c-2.688,0-4.368-1.392-4.368-3.648,0-3.744,3.6-5.328,12.768-5.52Zm33.84,4.944a44.918,44.918,0,0,1-6.288.336h-6.144c-.768,0-1.824,0-2.88.048.768-.912.768-.912,1.056-1.3.384-.432.48-.48.576-.672l9.072-11.472c.96-1.2,2.208-2.592,3.648-4.128V62.88a53.631,53.631,0,0,1-5.808.144H352.8a50.481,50.481,0,0,1-6.24-.336v6a47.442,47.442,0,0,1,6.24-.336h4.9a16.53,16.53,0,0,0,1.728-.048h.432a19.215,19.215,0,0,0-1.344,1.536l-9.264,11.712a34.891,34.891,0,0,1-3.648,4.08V90.72c1.44-.1,2.5-.144,5.9-.144h11.04a45.671,45.671,0,0,1,6.336.336Zm23.712-21.792a50.643,50.643,0,0,1,.384,6.24v9.7c-2.16,4.752-4.9,7.1-8.352,7.1a5.972,5.972,0,0,1-2.64-.672c-1.488-.912-2.208-2.688-2.208-5.472V69.264a42.962,42.962,0,0,1,.336-6.24h-6.96a44.121,44.121,0,0,1,.384,6.24V81.408c0,3.936,1.248,6.624,3.888,8.3a10.456,10.456,0,0,0,5.76,1.392c4.56,0,7.2-1.392,9.84-5.136-.048,1.2-.048,1.344-.048,2.064v2.544H399.5a39.452,39.452,0,0,1-.384-6.24V69.264a34.753,34.753,0,0,1,.384-6.24Zm28.9-10.656v6.1h7.056v-6.1Zm0,10.656a39.452,39.452,0,0,1,.384,6.24V84.336a43.139,43.139,0,0,1-.384,6.24H428.5a48.215,48.215,0,0,1-.336-6.288V69.312a43.143,43.143,0,0,1,.336-6.288Zm19.92,27.552a42.709,42.709,0,0,1-.384-6.24v-9.7c2.112-4.752,4.944-7.152,8.4-7.152a4.515,4.515,0,0,1,4.032,1.968,7.885,7.885,0,0,1,.816,4.224V84.336a51.013,51.013,0,0,1-.336,6.24h6.96a37.932,37.932,0,0,1-.384-6.24V72.816c0-3.216-.48-5.136-1.632-6.72-1.728-2.352-4.464-3.552-8.16-3.552-4.32,0-6.864,1.344-9.792,5.088a18.754,18.754,0,0,0,.1-2.064V63.024H434.5a39.452,39.452,0,0,1,.384,6.24V84.336a39.843,39.843,0,0,1-.384,6.24ZM465.6,82.752a10.8,10.8,0,0,0,1.872,4.272c2.064,2.784,5.76,4.272,10.7,4.272,4.368,0,7.728-1.056,9.936-3.12a7.718,7.718,0,0,0,2.352-5.424A6.822,6.822,0,0,0,487.68,76.8c-1.584-1.2-3.552-1.872-8.448-2.928a20.218,20.218,0,0,1-4.8-1.44,2.587,2.587,0,0,1-1.488-2.256c0-2.016,2.016-3.36,4.992-3.36,3.12,0,4.752,1.152,5.28,3.792l6.336-.816a9.344,9.344,0,0,0-2.592-4.752c-1.968-1.824-5.088-2.784-9.024-2.784-4.368,0-7.632,1.248-9.6,3.744a7.142,7.142,0,0,0-1.488,4.464,6.873,6.873,0,0,0,4.224,6.384,29.018,29.018,0,0,0,6.912,2.064c3.84.864,4.128.912,5.04,1.536a2.935,2.935,0,0,1,1.248,2.4c0,2.256-2.208,3.648-5.76,3.648-3.744,0-5.52-1.3-6.336-4.56Zm36.048-19.728h-6.384a49.6,49.6,0,0,1,.336,6.432V93.6a53.738,53.738,0,0,1-.336,6.336h6.768a47.841,47.841,0,0,1-.336-6.384V89.9c0-.864,0-1.728-.048-2.064-.048-.96-.048-.96-.048-1.536,2.3,3.12,5.472,4.608,9.7,4.608,8.16,0,13.008-5.328,13.008-14.16,0-4.848-1.248-8.448-3.792-11.04a12.4,12.4,0,0,0-9.12-3.36,11.177,11.177,0,0,0-9.792,4.7c.048-.624.048-1.152.048-1.68Zm16.416,13.632c0,5.664-2.928,9.216-7.632,9.216-4.992,0-8.544-3.84-8.544-9.312,0-5.136,3.6-9.072,8.352-9.072C515.088,67.488,518.064,70.992,518.064,76.656Zm11.184-24.288v6.1H536.3v-6.1Zm0,10.656a39.456,39.456,0,0,1,.384,6.24V84.336a43.143,43.143,0,0,1-.384,6.24h7.008a48.221,48.221,0,0,1-.336-6.288V69.312a43.147,43.147,0,0,1,.336-6.288Zm33.12,0A24.888,24.888,0,0,0,557.9,62.5c-4.32,0-7.3,1.632-9.024,5.04V63.024h-6.528a37.953,37.953,0,0,1,.336,6.24V84.336a52.651,52.651,0,0,1-.336,6.24h6.864a50.482,50.482,0,0,1-.336-6.24v-8.88a7.726,7.726,0,0,1,1.968-4.8,6.851,6.851,0,0,1,5.568-2.352,14.334,14.334,0,0,1,4.272.768Zm3.5-10.656v6.1h7.056v-6.1Zm0,10.656a39.456,39.456,0,0,1,.384,6.24V84.336a43.143,43.143,0,0,1-.384,6.24h7.008a48.221,48.221,0,0,1-.336-6.288V69.312a43.147,43.147,0,0,1,.336-6.288ZM604.7,78.384c-.1-1.1-.1-1.248-.1-1.344a19.732,19.732,0,0,0-1.392-7.3c-1.92-4.8-6.336-7.584-11.952-7.584-8.208,0-13.536,5.808-13.536,14.688,0,8.976,5.376,14.64,13.872,14.64a13.631,13.631,0,0,0,9.888-3.7,13.49,13.49,0,0,0,2.928-4.416l-5.664-1.824a6.977,6.977,0,0,1-1.392,2.5,8.075,8.075,0,0,1-11.76-.288c-1.1-1.392-1.536-2.736-1.776-5.376Zm-20.736-4.752c.72-4.032,3.456-6.528,7.2-6.528a6.845,6.845,0,0,1,5.184,1.92,7.534,7.534,0,0,1,2.112,4.608Zm45.6-10.608A24.888,24.888,0,0,0,625.1,62.5c-4.32,0-7.3,1.632-9.024,5.04V63.024h-6.528a37.953,37.953,0,0,1,.336,6.24V84.336a52.651,52.651,0,0,1-.336,6.24h6.864a50.482,50.482,0,0,1-.336-6.24v-8.88a7.726,7.726,0,0,1,1.968-4.8,6.851,6.851,0,0,1,5.568-2.352,14.334,14.334,0,0,1,4.272.768Zm6.72-7.392a55.26,55.26,0,0,1,.336,5.9v1.488h-1.776a22.047,22.047,0,0,1-4.32-.288V68.4a24.239,24.239,0,0,1,4.272-.288h1.824V84.24c0,5.04,2.208,7.008,7.728,7.008a15.02,15.02,0,0,0,6-1.008l-.864-5.088a6.349,6.349,0,0,1-3.5,1.056c-2.3,0-3.168-.864-3.168-3.216V68.112h2.16a26.465,26.465,0,0,1,4.7.288V62.736a27.577,27.577,0,0,1-4.848.288h-2.016V61.536a53.084,53.084,0,0,1,.336-5.9Zm24.624,27.936h-7.056v7.008h4.032c-.048,2.976-.72,3.84-3.648,4.656l1.728,2.544c3.888-1.536,4.944-3.072,4.944-7.2ZM1.776,172.752a10.8,10.8,0,0,0,1.872,4.272c2.064,2.784,5.76,4.272,10.7,4.272,4.368,0,7.728-1.056,9.936-3.12a7.718,7.718,0,0,0,2.352-5.424,6.822,6.822,0,0,0-2.784-5.952c-1.584-1.2-3.552-1.872-8.448-2.928a20.219,20.219,0,0,1-4.8-1.44,2.587,2.587,0,0,1-1.488-2.256c0-2.016,2.016-3.36,4.992-3.36,3.12,0,4.752,1.152,5.28,3.792l6.336-.816a9.344,9.344,0,0,0-2.592-4.752c-1.968-1.824-5.088-2.784-9.024-2.784-4.368,0-7.632,1.248-9.6,3.744a7.142,7.142,0,0,0-1.488,4.464,6.873,6.873,0,0,0,4.224,6.384,29.017,29.017,0,0,0,6.912,2.064c3.84.864,4.128.912,5.04,1.536a2.935,2.935,0,0,1,1.248,2.4c0,2.256-2.208,3.648-5.76,3.648-3.744,0-5.52-1.3-6.336-4.56ZM31.44,142.368v6.1H38.5v-6.1Zm0,10.656a39.451,39.451,0,0,1,.384,6.24v15.072a43.138,43.138,0,0,1-.384,6.24h7.008a48.219,48.219,0,0,1-.336-6.288V159.312a43.145,43.145,0,0,1,.336-6.288Zm38.016,7.824a15.977,15.977,0,0,0-1.68-3.5c-2.3-3.36-6.048-5.184-10.752-5.184a13.144,13.144,0,0,0-9.648,3.648A15.521,15.521,0,0,0,43.3,166.9c0,8.88,5.472,14.592,13.92,14.592,4.56,0,8.256-1.68,10.56-4.848a13.439,13.439,0,0,0,2.016-4.08l-5.952-1.2a6.709,6.709,0,0,1-.96,2.4,6.426,6.426,0,0,1-5.52,2.688c-4.848,0-7.824-3.7-7.824-9.7,0-5.952,2.928-9.648,7.632-9.648a6.039,6.039,0,0,1,4.944,2.208A8.649,8.649,0,0,1,63.6,162.24Zm5.04-18.48a44.918,44.918,0,0,1,.336,6.288v25.68a39.451,39.451,0,0,1-.384,6.24H81.36a42.708,42.708,0,0,1-.384-6.24v-9.7c2.16-4.8,4.944-7.1,8.544-7.1a4.456,4.456,0,0,1,3.312,1.392c.912.96,1.392,2.544,1.392,4.752v10.656a51.01,51.01,0,0,1-.336,6.24h6.96a37.931,37.931,0,0,1-.384-6.24v-12.1c0-6.192-3.5-9.7-9.648-9.7-4.368,0-6.96,1.344-9.936,5.088a19.688,19.688,0,0,0,.1-2.064V148.7a46.132,46.132,0,0,1,.336-6.336ZM129.5,180.576a49.959,49.959,0,0,1-.336-6.24v-9.5a10.838,10.838,0,0,1,2.064-4.8,5.946,5.946,0,0,1,4.944-2.5c3.12,0,4.656,2.016,4.656,6.048v10.752a39.064,39.064,0,0,1-.384,6.24h6.912a46.959,46.959,0,0,1-.336-6.24v-9.5c.576-2.976,1.344-4.512,3.024-5.952a5.552,5.552,0,0,1,3.936-1.44c3.216,0,4.7,1.92,4.7,6.144v10.752a37.931,37.931,0,0,1-.384,6.24h7.008a39.064,39.064,0,0,1-.384-6.24V162.48c0-3.408-.672-5.568-2.256-7.3a9.473,9.473,0,0,0-7.2-2.736A10.6,10.6,0,0,0,150.1,153.7c-1.488.768-2.4,1.632-4.032,3.792a6.222,6.222,0,0,0-1.824-2.88,8.609,8.609,0,0,0-6.192-2.16c-3.984,0-7.536,1.872-8.928,4.8.048-.768.048-1.488.048-1.776v-2.448h-6.432a41.986,41.986,0,0,1,.336,6.24v15.072a48.427,48.427,0,0,1-.336,6.24Zm41.712-38.208v6.1h7.056v-6.1Zm0,10.656a39.45,39.45,0,0,1,.384,6.24v15.072a43.137,43.137,0,0,1-.384,6.24h7.008a48.221,48.221,0,0,1-.336-6.288V159.312a43.147,43.147,0,0,1,.336-6.288Zm16.224-7.392a55.248,55.248,0,0,1,.336,5.9v1.488H186a22.046,22.046,0,0,1-4.32-.288V158.4a24.24,24.24,0,0,1,4.272-.288h1.824V174.24c0,5.04,2.208,7.008,7.728,7.008a15.02,15.02,0,0,0,6-1.008l-.864-5.088a6.349,6.349,0,0,1-3.5,1.056c-2.3,0-3.168-.864-3.168-3.216v-14.88h2.16a26.466,26.466,0,0,1,4.7.288v-5.664a27.576,27.576,0,0,1-4.848.288h-2.016v-1.488a53.089,53.089,0,0,1,.336-5.9Zm43.44,22.752c-.1-1.1-.1-1.248-.1-1.344a19.732,19.732,0,0,0-1.392-7.3c-1.92-4.8-6.336-7.584-11.952-7.584-8.208,0-13.536,5.808-13.536,14.688,0,8.976,5.376,14.64,13.872,14.64a13.631,13.631,0,0,0,9.888-3.7,13.49,13.49,0,0,0,2.928-4.416l-5.664-1.824a6.977,6.977,0,0,1-1.392,2.5,8.075,8.075,0,0,1-11.76-.288c-1.1-1.392-1.536-2.736-1.776-5.376Zm-20.736-4.752c.72-4.032,3.456-6.528,7.2-6.528a6.845,6.845,0,0,1,5.184,1.92,7.534,7.534,0,0,1,2.112,4.608Zm25.488-21.264v6.1h7.056v-6.1Zm0,10.656a39.45,39.45,0,0,1,.384,6.24v15.072a43.137,43.137,0,0,1-.384,6.24h7.008a48.221,48.221,0,0,1-.336-6.288V159.312a43.147,43.147,0,0,1,.336-6.288Zm19.92,27.552a42.709,42.709,0,0,1-.384-6.24v-9.7c2.112-4.752,4.944-7.152,8.4-7.152a4.515,4.515,0,0,1,4.032,1.968,7.885,7.885,0,0,1,.816,4.224v10.656a51.013,51.013,0,0,1-.336,6.24h6.96a37.933,37.933,0,0,1-.384-6.24v-11.52c0-3.216-.48-5.136-1.632-6.72-1.728-2.352-4.464-3.552-8.16-3.552-4.32,0-6.864,1.344-9.792,5.088a18.756,18.756,0,0,0,.1-2.064v-2.544H248.64a39.45,39.45,0,0,1,.384,6.24v15.072a39.841,39.841,0,0,1-.384,6.24Zm43.632,0h6.48a38.6,38.6,0,0,1-.384-6V161.664c0-3.264-.624-5.088-2.256-6.624-2.064-2.016-4.848-2.832-9.456-2.832-4.128,0-6.816.72-9.168,2.448-1.824,1.3-2.688,2.544-3.792,5.328l6.144,1.1a5.23,5.23,0,0,1,1.92-3.072,8.66,8.66,0,0,1,4.992-1.392c3.648,0,5.52,1.44,5.52,4.224V163.3c-6.864.144-10.416.624-13.536,1.92a8.515,8.515,0,0,0-5.424,7.776c0,5.04,3.552,8.064,9.408,8.064a16.984,16.984,0,0,0,4.464-.576,10.408,10.408,0,0,0,5.088-3.024Zm0-10.7a5.72,5.72,0,0,1-1.728,4.224,9.747,9.747,0,0,1-6.672,2.544c-2.688,0-4.368-1.392-4.368-3.648,0-3.744,3.6-5.328,12.768-5.52Zm19.1,10.7a42.709,42.709,0,0,1-.384-6.24v-9.7c2.112-4.752,4.944-7.152,8.4-7.152a4.515,4.515,0,0,1,4.032,1.968,7.885,7.885,0,0,1,.816,4.224v10.656a51.013,51.013,0,0,1-.336,6.24h6.96a37.933,37.933,0,0,1-.384-6.24v-11.52c0-3.216-.48-5.136-1.632-6.72-1.728-2.352-4.464-3.552-8.16-3.552-4.32,0-6.864,1.344-9.792,5.088a18.754,18.754,0,0,0,.1-2.064v-2.544h-6.528a39.452,39.452,0,0,1,.384,6.24v15.072a39.843,39.843,0,0,1-.384,6.24Zm46.944,0h6.384a50.389,50.389,0,0,1-.336-6.48V148.8a55.977,55.977,0,0,1,.336-6.432h-6.768a48.924,48.924,0,0,1,.336,6.48v4.8c0,.816,0,1.728.048,2.064.048.96.048.96.048,1.536a12.223,12.223,0,0,0-2.448-2.64,11.393,11.393,0,0,0-7.3-2.208c-7.92,0-12.96,5.568-12.96,14.352,0,5.184,1.776,9.552,4.992,12.048a12.2,12.2,0,0,0,8.016,2.448c4.656,0,7.2-1.248,9.7-4.752-.048.624-.048,1.152-.048,1.728ZM348.816,166.8c0-5.712,2.976-9.36,7.632-9.36a8.788,8.788,0,0,1,6.24,2.688,9.967,9.967,0,0,1,2.3,6.384,10.858,10.858,0,0,1-1.872,6.432,8.026,8.026,0,0,1-6.432,3.168C351.888,176.112,348.816,172.512,348.816,166.8Zm54.624,1.584c-.1-1.1-.1-1.248-.1-1.344a19.733,19.733,0,0,0-1.392-7.3c-1.92-4.8-6.336-7.584-11.952-7.584-8.208,0-13.536,5.808-13.536,14.688,0,8.976,5.376,14.64,13.872,14.64a13.631,13.631,0,0,0,9.888-3.7,13.49,13.49,0,0,0,2.928-4.416l-5.664-1.824a6.976,6.976,0,0,1-1.392,2.5,8.075,8.075,0,0,1-11.76-.288c-1.1-1.392-1.536-2.736-1.776-5.376ZM382.7,163.632c.72-4.032,3.456-6.528,7.2-6.528a6.845,6.845,0,0,1,5.184,1.92,7.534,7.534,0,0,1,2.112,4.608Zm45.6-10.608a24.887,24.887,0,0,0-4.464-.528c-4.32,0-7.3,1.632-9.024,5.04v-4.512h-6.528a37.949,37.949,0,0,1,.336,6.24v15.072a52.645,52.645,0,0,1-.336,6.24h6.864a50.483,50.483,0,0,1-.336-6.24v-8.88a7.726,7.726,0,0,1,1.968-4.8,6.851,6.851,0,0,1,5.568-2.352,14.334,14.334,0,0,1,4.272.768Zm41.136,21.792a44.917,44.917,0,0,1-6.288.336h-6.144c-.768,0-1.824,0-2.88.048.768-.912.768-.912,1.056-1.3.384-.432.48-.48.576-.672l9.072-11.472c.96-1.2,2.208-2.592,3.648-4.128V152.88a53.631,53.631,0,0,1-5.808.144H453.36a50.483,50.483,0,0,1-6.24-.336v6a47.441,47.441,0,0,1,6.24-.336h4.9a16.533,16.533,0,0,0,1.728-.048h.432a19.217,19.217,0,0,0-1.344,1.536l-9.264,11.712a34.892,34.892,0,0,1-3.648,4.08v5.088c1.44-.1,2.5-.144,5.9-.144H463.1a45.671,45.671,0,0,1,6.336.336Zm23.712-21.792a50.643,50.643,0,0,1,.384,6.24v9.7c-2.16,4.752-4.9,7.1-8.352,7.1a5.972,5.972,0,0,1-2.64-.672c-1.488-.912-2.208-2.688-2.208-5.472V159.264a42.962,42.962,0,0,1,.336-6.24h-6.96a44.121,44.121,0,0,1,.384,6.24v12.144c0,3.936,1.248,6.624,3.888,8.3a10.456,10.456,0,0,0,5.76,1.392c4.56,0,7.2-1.392,9.84-5.136-.048,1.2-.048,1.344-.048,2.064v2.544h6.528a39.452,39.452,0,0,1-.384-6.24V159.264a34.753,34.753,0,0,1,.384-6.24Zm44.256,27.552a25.657,25.657,0,0,1,1.44-4.272l7.392-18.24c.912-2.352,1.488-3.7,2.16-5.04h-7.3a21.733,21.733,0,0,1-1.2,4.464l-4.9,13.92c-.336.96-.72,2.16-1.056,3.216-.288-1.008-.72-2.448-1.008-3.216l-4.9-13.92a25.342,25.342,0,0,1-1.2-4.464H519.5c.96,2.016,1.728,3.792,2.256,5.04L529.1,176.3a22.845,22.845,0,0,1,1.44,4.272Zm40.272-12.192c-.1-1.1-.1-1.248-.1-1.344a19.732,19.732,0,0,0-1.392-7.3c-1.92-4.8-6.336-7.584-11.952-7.584-8.208,0-13.536,5.808-13.536,14.688,0,8.976,5.376,14.64,13.872,14.64a13.631,13.631,0,0,0,9.888-3.7,13.49,13.49,0,0,0,2.928-4.416l-5.664-1.824a6.977,6.977,0,0,1-1.392,2.5,8.075,8.075,0,0,1-11.76-.288c-1.1-1.392-1.536-2.736-1.776-5.376Zm-20.736-4.752c.72-4.032,3.456-6.528,7.2-6.528a6.845,6.845,0,0,1,5.184,1.92,7.534,7.534,0,0,1,2.112,4.608Zm45.6-10.608a24.888,24.888,0,0,0-4.464-.528c-4.32,0-7.3,1.632-9.024,5.04v-4.512h-6.528a37.953,37.953,0,0,1,.336,6.24v15.072a52.651,52.651,0,0,1-.336,6.24h6.864a50.483,50.483,0,0,1-.336-6.24v-8.88a7.726,7.726,0,0,1,1.968-4.8,6.851,6.851,0,0,1,5.568-2.352,14.335,14.335,0,0,1,4.272.768Zm9.888,27.552v-2.352c0-.576,0-1.1-.048-1.728,2.4,3.36,5.136,4.752,9.552,4.752q5.832,0,9.216-3.456c2.592-2.688,3.936-6.528,3.936-11.232,0-8.928-4.752-14.16-12.816-14.16a11.189,11.189,0,0,0-9.888,4.848c.048-1.632.1-2.832.1-3.6v-4.8a48.924,48.924,0,0,1,.336-6.48h-6.768a55.977,55.977,0,0,1,.336,6.432v25.3a50.389,50.389,0,0,1-.336,6.48Zm16.416-14.016c0,5.808-3.12,9.552-7.968,9.552a8.362,8.362,0,0,1-5.04-1.776,10.012,10.012,0,0,1-3.168-7.584,10.338,10.338,0,0,1,2.352-6.672,8.565,8.565,0,0,1,6.528-2.64C625.968,157.44,628.848,161.04,628.848,166.56Zm11.088-24.192v6.1h7.056v-6.1Zm0,10.656a39.456,39.456,0,0,1,.384,6.24v15.072a43.144,43.144,0,0,1-.384,6.24h7.008a48.221,48.221,0,0,1-.336-6.288V159.312a43.147,43.147,0,0,1,.336-6.288Zm19.92,27.552a42.7,42.7,0,0,1-.384-6.24v-9.7c2.112-4.752,4.944-7.152,8.4-7.152a4.515,4.515,0,0,1,4.032,1.968,7.884,7.884,0,0,1,.816,4.224v10.656a51.013,51.013,0,0,1-.336,6.24h6.96a37.936,37.936,0,0,1-.384-6.24v-11.52c0-3.216-.48-5.136-1.632-6.72-1.728-2.352-4.464-3.552-8.16-3.552-4.32,0-6.864,1.344-9.792,5.088a18.754,18.754,0,0,0,.1-2.064v-2.544h-6.528a39.456,39.456,0,0,1,.384,6.24v15.072a39.847,39.847,0,0,1-.384,6.24Zm46.944,0h6.384a50.389,50.389,0,0,1-.336-6.48V148.8a55.977,55.977,0,0,1,.336-6.432h-6.768a48.924,48.924,0,0,1,.336,6.48v4.8c0,.816,0,1.728.048,2.064.048.96.048.96.048,1.536a12.222,12.222,0,0,0-2.448-2.64,11.393,11.393,0,0,0-7.3-2.208c-7.92,0-12.96,5.568-12.96,14.352,0,5.184,1.776,9.552,4.992,12.048a12.2,12.2,0,0,0,8.016,2.448c4.656,0,7.2-1.248,9.7-4.752-.048.624-.048,1.152-.048,1.728ZM690.384,166.8c0-5.712,2.976-9.36,7.632-9.36a8.788,8.788,0,0,1,6.24,2.688,9.967,9.967,0,0,1,2.3,6.384,10.858,10.858,0,0,1-1.872,6.432,8.026,8.026,0,0,1-6.432,3.168C693.456,176.112,690.384,172.512,690.384,166.8Zm54.624,1.584c-.1-1.1-.1-1.248-.1-1.344a19.732,19.732,0,0,0-1.392-7.3c-1.92-4.8-6.336-7.584-11.952-7.584-8.208,0-13.536,5.808-13.536,14.688,0,8.976,5.376,14.64,13.872,14.64a13.631,13.631,0,0,0,9.888-3.7,13.49,13.49,0,0,0,2.928-4.416l-5.664-1.824a6.977,6.977,0,0,1-1.392,2.5,8.075,8.075,0,0,1-11.76-.288c-1.1-1.392-1.536-2.736-1.776-5.376Zm-20.736-4.752c.72-4.032,3.456-6.528,7.2-6.528a6.845,6.845,0,0,1,5.184,1.92,7.534,7.534,0,0,1,2.112,4.608Zm32.4,16.944a42.7,42.7,0,0,1-.384-6.24v-9.7c2.112-4.752,4.944-7.152,8.4-7.152a4.515,4.515,0,0,1,4.032,1.968,7.884,7.884,0,0,1,.816,4.224v10.656a51.013,51.013,0,0,1-.336,6.24h6.96a37.936,37.936,0,0,1-.384-6.24v-11.52c0-3.216-.48-5.136-1.632-6.72-1.728-2.352-4.464-3.552-8.16-3.552-4.32,0-6.864,1.344-9.792,5.088a18.754,18.754,0,0,0,.1-2.064v-2.544H749.76a39.456,39.456,0,0,1,.384,6.24v15.072a39.847,39.847,0,0,1-.384,6.24Z" transform="translate(100 465)"/>
      <path id="路径_41026" data-name="路径 41026" d="M5-9.6a4.159,4.159,0,0,0-3.1,1.2A5.137,5.137,0,0,0,.54-4.656c0,3.048,1.752,5,4.476,5S9.5-1.62,9.5-4.656A5.175,5.175,0,0,0,8.16-8.4,4.205,4.205,0,0,0,5-9.6ZM5.04-1.08a2.591,2.591,0,0,1-1.86-.732,3.965,3.965,0,0,1-.972-2.832c0-2.172,1.092-3.54,2.82-3.54a2.583,2.583,0,0,1,1.848.732,3.876,3.876,0,0,1,.948,2.8C7.824-2.448,6.756-1.08,5.04-1.08ZM36.576-9.408a9.767,9.767,0,0,1,.1,1.644V-3.54a2.191,2.191,0,0,1-2.436,2.484,2.2,2.2,0,0,1-2.46-2.472V-7.764a9.41,9.41,0,0,1,.1-1.644H30.084a9.858,9.858,0,0,1,.1,1.644v4.236a3.865,3.865,0,0,0,.9,2.76A4.134,4.134,0,0,0,34.176.36c2.616,0,4.092-1.392,4.092-3.876v-4.26a9.7,9.7,0,0,1,.1-1.632ZM67.332.144c-.168-.324-.468-.972-.564-1.188C65.58-3.852,65.352-4.188,64.6-4.428a2.537,2.537,0,0,0,1.332-.7,2.467,2.467,0,0,0,.612-1.788c0-1.584-1.044-2.5-2.868-2.5h-2.88c-.66,0-1.032-.012-1.536-.036a10.677,10.677,0,0,1,.1,1.56v6.468a9.391,9.391,0,0,1-.1,1.56h1.788a9.364,9.364,0,0,1-.1-1.572V-3.876h1.788c.924,0,1.344.444,1.992,2.1a9.714,9.714,0,0,1,.624,1.92ZM60.948-5.244v-2.8h2.46c.984,0,1.476.444,1.476,1.308A1.424,1.424,0,0,1,64.5-5.676a1.617,1.617,0,0,1-1.14.432ZM116.7.144a9.771,9.771,0,0,1,.528-1.6l1.8-4.224a14.644,14.644,0,0,0,.552-1.752c-.012.18-.048.792-.1,1.836v3.984a11.156,11.156,0,0,1-.1,1.752h1.68a10.4,10.4,0,0,1-.1-1.752V-7.632a12.427,12.427,0,0,1,.1-1.776H118.86a6.65,6.65,0,0,1-.432,1.428L116-2.028,113.568-7.98a8.305,8.305,0,0,1-.444-1.428h-2.2a11.9,11.9,0,0,1,.1,1.776v6.024a11.254,11.254,0,0,1-.1,1.752h1.68a10.964,10.964,0,0,1-.1-1.752V-5.544c0-.264-.048-1.248-.1-1.884a13.354,13.354,0,0,0,.612,1.836l1.728,4.116a8.169,8.169,0,0,1,.528,1.62Zm25.272-9.552a8.966,8.966,0,0,1,.1,1.548V-1.4a9.055,9.055,0,0,1-.1,1.548H143.8a9.055,9.055,0,0,1-.1-1.548V-7.86a8.966,8.966,0,0,1,.1-1.548Zm22.4,6.756a4.1,4.1,0,0,0,.228,1A2.825,2.825,0,0,0,165.66-.288a4.825,4.825,0,0,0,2.52.624,3.977,3.977,0,0,0,2.868-.912,2.792,2.792,0,0,0,.756-2.04,2.368,2.368,0,0,0-1-2.064,5.283,5.283,0,0,0-1.956-.732,10.216,10.216,0,0,1-1.692-.432,1.141,1.141,0,0,1-.816-1.092c0-.78.708-1.308,1.752-1.308a1.9,1.9,0,0,1,1.5.576,1.55,1.55,0,0,1,.36.852l1.716-.2a3.235,3.235,0,0,0-.588-1.392A3.537,3.537,0,0,0,168.1-9.624c-2.064,0-3.408,1.08-3.408,2.748a2.362,2.362,0,0,0,.924,1.944,4.242,4.242,0,0,0,1.812.732,7.566,7.566,0,0,1,2.088.588,1.218,1.218,0,0,1,.6,1.1c0,.9-.72,1.44-1.92,1.44a2.13,2.13,0,0,1-1.752-.708,1.72,1.72,0,0,1-.336-1.056Zm27.78,0a4.1,4.1,0,0,0,.228,1A2.825,2.825,0,0,0,193.44-.288a4.825,4.825,0,0,0,2.52.624,3.977,3.977,0,0,0,2.868-.912,2.792,2.792,0,0,0,.756-2.04,2.368,2.368,0,0,0-1-2.064,5.283,5.283,0,0,0-1.956-.732,10.216,10.216,0,0,1-1.692-.432,1.141,1.141,0,0,1-.816-1.092c0-.78.708-1.308,1.752-1.308a1.9,1.9,0,0,1,1.5.576,1.55,1.55,0,0,1,.36.852l1.716-.2a3.235,3.235,0,0,0-.588-1.392,3.537,3.537,0,0,0-2.988-1.212c-2.064,0-3.408,1.08-3.408,2.748a2.362,2.362,0,0,0,.924,1.944A4.242,4.242,0,0,0,195.2-4.2a7.566,7.566,0,0,1,2.088.588,1.218,1.218,0,0,1,.6,1.1c0,.9-.72,1.44-1.92,1.44a2.13,2.13,0,0,1-1.752-.708,1.72,1.72,0,0,1-.336-1.056Zm28.092-6.756a8.966,8.966,0,0,1,.1,1.548V-1.4a9.055,9.055,0,0,1-.1,1.548h1.824a9.055,9.055,0,0,1-.1-1.548V-7.86a8.966,8.966,0,0,1,.1-1.548ZM247.116-9.6a4.159,4.159,0,0,0-3.1,1.2,5.137,5.137,0,0,0-1.368,3.744c0,3.048,1.752,5,4.476,5s4.488-1.968,4.488-5A5.175,5.175,0,0,0,250.272-8.4,4.205,4.205,0,0,0,247.116-9.6Zm.036,8.52a2.591,2.591,0,0,1-1.86-.732,3.965,3.965,0,0,1-.972-2.832c0-2.172,1.092-3.54,2.82-3.54a2.583,2.583,0,0,1,1.848.732,3.876,3.876,0,0,1,.948,2.8C249.936-2.448,248.868-1.08,247.152-1.08ZM280.368.144a9.055,9.055,0,0,1-.1-1.548V-7.752a10.493,10.493,0,0,1,.1-1.656h-1.752a10.489,10.489,0,0,1,.1,1.656V-3.72c0,.5.036,1.224.084,1.692-.264-.48-.648-1.1-.936-1.536l-3.036-4.572a6.582,6.582,0,0,1-.732-1.272H272.22a9.993,9.993,0,0,1,.1,1.548v6.192a12.983,12.983,0,0,1-.1,1.812h1.752a13.282,13.282,0,0,1-.1-1.8V-5.592c0-.276-.024-.816-.036-1.044-.036-.444-.036-.444-.048-.612.288.564.588,1.08.816,1.44l3.1,4.668a11.958,11.958,0,0,1,.768,1.284Z" transform="translate(100 366)"/>
      <path id="路径_40979" data-name="路径 40979" d="M79.1-7.248a10.8,10.8,0,0,0,1.872,4.272C83.04-.192,86.736,1.3,91.68,1.3c4.368,0,7.728-1.056,9.936-3.12a7.718,7.718,0,0,0,2.352-5.424,6.822,6.822,0,0,0-2.784-5.952c-1.584-1.2-3.552-1.872-8.448-2.928a20.218,20.218,0,0,1-4.8-1.44,2.587,2.587,0,0,1-1.488-2.256c0-2.016,2.016-3.36,4.992-3.36,3.12,0,4.752,1.152,5.28,3.792l6.336-.816a9.344,9.344,0,0,0-2.592-4.752c-1.968-1.824-5.088-2.784-9.024-2.784-4.368,0-7.632,1.248-9.6,3.744a7.142,7.142,0,0,0-1.488,4.464,6.873,6.873,0,0,0,4.224,6.384,29.017,29.017,0,0,0,6.912,2.064c3.84.864,4.128.912,5.04,1.536a2.935,2.935,0,0,1,1.248,2.4c0,2.256-2.208,3.648-5.76,3.648-3.744,0-5.52-1.3-6.336-4.56Zm54.672-11.9a15.977,15.977,0,0,0-1.68-3.5c-2.3-3.36-6.048-5.184-10.752-5.184a13.144,13.144,0,0,0-9.648,3.648,15.521,15.521,0,0,0-4.08,11.088c0,8.88,5.472,14.592,13.92,14.592,4.56,0,8.256-1.68,10.56-4.848a13.439,13.439,0,0,0,2.016-4.08l-5.952-1.2a6.709,6.709,0,0,1-.96,2.4,6.426,6.426,0,0,1-5.52,2.688c-4.848,0-7.824-3.7-7.824-9.7,0-5.952,2.928-9.648,7.632-9.648a6.039,6.039,0,0,1,4.944,2.208,8.65,8.65,0,0,1,1.488,2.928Zm5.04-18.48a44.917,44.917,0,0,1,.336,6.288v25.68a39.45,39.45,0,0,1-.384,6.24h6.912a42.709,42.709,0,0,1-.384-6.24v-9.7c2.16-4.8,4.944-7.1,8.544-7.1a4.456,4.456,0,0,1,3.312,1.392c.912.96,1.392,2.544,1.392,4.752V-5.664a51.01,51.01,0,0,1-.336,6.24h6.96a37.931,37.931,0,0,1-.384-6.24v-12.1c0-6.192-3.5-9.7-9.648-9.7-4.368,0-6.96,1.344-9.936,5.088a19.688,19.688,0,0,0,.1-2.064V-31.3a46.133,46.133,0,0,1,.336-6.336ZM189.312.576h6.48a38.606,38.606,0,0,1-.384-6V-18.336c0-3.264-.624-5.088-2.256-6.624-2.064-2.016-4.848-2.832-9.456-2.832-4.128,0-6.816.72-9.168,2.448-1.824,1.3-2.688,2.544-3.792,5.328l6.144,1.1a5.23,5.23,0,0,1,1.92-3.072,8.66,8.66,0,0,1,4.992-1.392c3.648,0,5.52,1.44,5.52,4.224V-16.7c-6.864.144-10.416.624-13.536,1.92a8.515,8.515,0,0,0-5.424,7.776c0,5.04,3.552,8.064,9.408,8.064A16.984,16.984,0,0,0,184.224.48a10.408,10.408,0,0,0,5.088-3.024Zm0-10.7A5.72,5.72,0,0,1,187.584-5.9a9.747,9.747,0,0,1-6.672,2.544c-2.688,0-4.368-1.392-4.368-3.648,0-3.744,3.6-5.328,12.768-5.52Zm16.176-11.808V-5.664a51.548,51.548,0,0,1-.336,6.24h6.864a47.44,47.44,0,0,1-.336-6.24V-21.936h2.352a41.31,41.31,0,0,1,5.328.288v-5.616a52.715,52.715,0,0,1-5.424.288H211.68v-1.968c0-3.312.96-4.464,3.744-4.464a7.946,7.946,0,0,1,4.272,1.152l1.3-5.04a17.355,17.355,0,0,0-5.952-.96c-6.528,0-9.552,2.784-9.552,8.736v2.544H203.52a31.456,31.456,0,0,1-4.512-.288v5.616a32.65,32.65,0,0,1,4.56-.288Zm22.9,0V-5.664a51.548,51.548,0,0,1-.336,6.24h6.864a47.44,47.44,0,0,1-.336-6.24V-21.936h2.352a41.31,41.31,0,0,1,5.328.288v-5.616a52.715,52.715,0,0,1-5.424.288h-2.256v-1.968c0-3.312.96-4.464,3.744-4.464a7.946,7.946,0,0,1,4.272,1.152l1.3-5.04a17.355,17.355,0,0,0-5.952-.96c-6.528,0-9.552,2.784-9.552,8.736v2.544h-1.968a31.456,31.456,0,0,1-4.512-.288v5.616a32.65,32.65,0,0,1,4.56-.288Zm22.128-12.432a55.248,55.248,0,0,1,.336,5.9v1.488h-1.776a22.047,22.047,0,0,1-4.32-.288V-21.6a24.239,24.239,0,0,1,4.272-.288h1.824V-5.76c0,5.04,2.208,7.008,7.728,7.008a15.02,15.02,0,0,0,6-1.008l-.864-5.088a6.349,6.349,0,0,1-3.5,1.056c-2.3,0-3.168-.864-3.168-3.216v-14.88h2.16a26.465,26.465,0,0,1,4.7.288v-5.664a27.577,27.577,0,0,1-4.848.288H257.04v-1.488a53.093,53.093,0,0,1,.336-5.9Z" transform="translate(100 465)" fill="#0080f4"/>
    </g>
  </g>
</svg>
