<svg xmlns="http://www.w3.org/2000/svg" width="70.778" height="69.874" viewBox="0 0 70.778 69.874">
  <g id="赏金猎人社群" transform="translate(-244.838 -242.817)">
    <path id="路径_39241" data-name="路径 39241" d="M253.55,258.4c-.275-3.1,1.127-5.762,2.592-8.625-5.555,1.76-9,6.912-8.2,11.823a8.236,8.236,0,0,1-.439,1.167c-2.975,5.374-1.631,10.338,3.352,14.191,1.931,1.492,3.73,2.262,5.984,1.631a9.515,9.515,0,0,0,6.651-6.17c1.435-4,.318-6.241-3.69-7.88a3.183,3.183,0,0,1-2.268-2.739C257.333,259.283,255.9,258.327,253.55,258.4Zm18.9-8.163q-.256-2.305-.512-4.61c-.065-.573.214-1.345-.593-1.555-.714-.185-1.1.469-1.48.92-2.4,2.813-3.7,5.96-2.848,9.731-2.376,4.638-.339,8.467,2.223,12.211.517.756,1.379,1.169,1.694,2.164.9,2.839,4.7,4.945,7.635,4.364a7.034,7.034,0,0,0,5.8-6.874,11,11,0,0,0-3.811-8.323c-1.59-1.383-2.6-2.959-2.332-5.178.234-1.936-1.1-2.587-2.645-2.83A19.859,19.859,0,0,0,272.455,250.233Zm19.53-1.861c-3-4.294-6.321-5.594-10.048-3.647,3.412,1.1,5.5,3.122,5.538,6.713-.919,1.446-.231,2.812.188,4.2.3.994.943,2.119.716,3-1.441,5.582,2.492,9.514,4.19,14.1a4.95,4.95,0,0,0,4.716,3.016c1.636-.039,2.728-1.808,2.919-3.641.135-1.3,1.213-1.911,1.866-2.824a12.1,12.1,0,0,0,.9-13.36C300.711,251.5,297.4,248.342,291.985,248.372Zm-29.761,40.756c-6.943-.364-10.526,5.18-7.7,11.039a15.3,15.3,0,0,0,3.154,4.287c9.4,9.179,19.319,9.269,32.219,2.3,2.1-1.134,4.125-2.6,3.984-5.531a6.645,6.645,0,0,0-4.737-6.352c-4.25-1.614-6.441-4.5-5.592-9.248a3.47,3.47,0,0,0-1.9-3.943c-3.641-1.986-12.617.21-14.041,4.075C266.377,289.08,264.505,289.519,262.224,289.129Z" transform="translate(0 0)" fill="none" stroke="#19d9b4" stroke-width="2"/>
    <path id="路径_39245" data-name="路径 39245" d="M341.993,306.609a23.185,23.185,0,0,1-11.268,9.012c-2.4.924-4.745-.2-6.747-1.7a3.1,3.1,0,0,1-1.045-1.509c-.65-2.2,2.615-8.967,4.806-9.678,1.475-.478,1.868-1.5,2.233-2.734,1.411-4.779,2.89-5.579,7.5-4.1a22.3,22.3,0,0,1,5.42,5.536c.011,1.227.03,2.166.03,2.868A5.7,5.7,0,0,1,341.993,306.609Z" transform="translate(-28.445 -19.009)" fill="none" stroke="#19d9b4" stroke-width="2"/>
    <path id="路径_39247" data-name="路径 39247" d="M350.7,296.672a22.3,22.3,0,0,0-5.42-5.536c1.246-3.113-.093-5.9-1.337-8.8,3.72,1.1,6.812,4.863,6.912,8.368C350.91,292.69,350.758,294.683,350.7,296.672Z" transform="translate(-36.247 -14.237)" fill="#19d9b4" stroke="#19d9b4" stroke-width="2"/>
    <path id="路径_39248" data-name="路径 39248" d="M254.659,261.875c-2.159.556-3.082,3.277-5.6,3.2-.8-4.911,2.641-10.063,8.2-11.823C255.786,256.113,254.385,258.776,254.659,261.875Z" transform="translate(-1.109 -3.479)" fill="#19d9b4" stroke="#19d9b4" stroke-width="2"/>
    <path id="路径_39249" data-name="路径 39249" d="M313.113,248.372c-.543,2.435-2.018,3.5-4.51,3.066-.033-3.591-2.125-5.616-5.538-6.713C306.792,242.778,310.116,244.079,313.113,248.372Z" transform="translate(-21.128 0)" fill="#19d9b4" stroke="#19d9b4" stroke-width="2"/>
    <path id="路径_39250" data-name="路径 39250" d="M284.674,250.347c-1.995,1.273-3.241,3.452-5.433,4.487-.852-3.771.447-6.918,2.848-9.731.384-.451.766-1.105,1.48-.92.807.209.528.981.593,1.555Q284.422,248.041,284.674,250.347Z" transform="translate(-12.219 -0.114)" fill="#19d9b4" stroke="#19d9b4" stroke-width="2"/>
  </g>
</svg>
