<svg xmlns="http://www.w3.org/2000/svg" width="70" height="70" viewBox="0 0 70 70">
  <g id="文件夹社群" transform="translate(330.333 -205.667)">
    <path id="路径_39252" data-name="路径 39252" d="M-263.262,237.167h-4.071v-7.313a3.192,3.192,0,0,0-3.188-3.187h-3.812V223.85l-.578-.577v0l-8.512-8.512-9.093-9.092H-321V218.5h-6.146a3.191,3.191,0,0,0-3.187,3.187v50.968h.007a2.966,2.966,0,0,0,.609,1.838,2.968,2.968,0,0,0,2.376,1.174h52.219a2.962,2.962,0,0,0,2.858-2.115l11.931-32.711v-.207C-260.333,238.625-261.565,237.167-263.262,237.167ZM-270.521,229a.855.855,0,0,1,.854.854v7.313h-4.666V229Zm-21.312-19.349,13.517,13.516h-13.517ZM-318.667,208h24.5v17.5h17.5v11.667h-38.814a3.09,3.09,0,0,0-.492.04,2.944,2.944,0,0,0-2.366,2.075l-.328.9V208ZM-328,221.687a.855.855,0,0,1,.854-.854H-321v25.708l-7,19.091Zm53.514,51.16a.66.66,0,0,1-.636.486h-52.219a.642.642,0,0,1-.522-.259.629.629,0,0,1-.144-.476L-321,253.381v.006l4.853-13.3.031-.1a.66.66,0,0,1,.635-.486h52.219c.444,0,.557.637.586.956Z" fill="#ef54a1"/>
    <path id="路径_39253" data-name="路径 39253" d="M-311.667,225.5H-300a1.167,1.167,0,0,0,1.167-1.167A1.166,1.166,0,0,0-300,223.167h-11.667a1.165,1.165,0,0,0-1.166,1.166A1.166,1.166,0,0,0-311.667,225.5Z" fill="#ef54a1"/>
    <path id="路径_39254" data-name="路径 39254" d="M-311.667,217.333H-300a1.166,1.166,0,0,0,1.167-1.166A1.166,1.166,0,0,0-300,215h-11.667a1.166,1.166,0,0,0-1.166,1.167A1.165,1.165,0,0,0-311.667,217.333Z" fill="#ef54a1"/>
    <path id="路径_39255" data-name="路径 39255" d="M-311.667,233.667h28A1.167,1.167,0,0,0-282.5,232.5a1.167,1.167,0,0,0-1.167-1.167h-28a1.166,1.166,0,0,0-1.166,1.167A1.166,1.166,0,0,0-311.667,233.667Z" fill="#ef54a1"/>
  </g>
</svg>
