<svg xmlns="http://www.w3.org/2000/svg" width="69.043" height="70" viewBox="0 0 69.043 70">
  <g id="展市商城" transform="translate(-340.013 -404.351)">
    <g id="组_21859" data-name="组 21859">
      <g id="组_21858" data-name="组 21858">
        <path id="路径_39209" data-name="路径 39209" d="M409.056,436.41a1.027,1.027,0,0,0-1.026-1.026H383.078V426.84a1.025,1.025,0,0,0-1.026-1.025h-8.543v-3.759a8.551,8.551,0,0,0-11.871-7.874l-.081.037-.081-.037a8.541,8.541,0,0,0-11.869,7.874v3.759h-8.569a1.025,1.025,0,0,0-1.025,1.025h0v46.483a1.025,1.025,0,0,0,1.025,1.025H375.19l.026,0H408.03a1.027,1.027,0,0,0,1.026-1.026l0-.028,0-.029V436.41Zm-44.092-20.85a6.5,6.5,0,0,1,6.494,6.5v3.759H366.7v-3.759a8.522,8.522,0,0,0-2.5-6.043c-.121-.121-.247-.237-.374-.35A6.5,6.5,0,0,1,364.964,415.56Zm-3.407.966a6.5,6.5,0,0,1,3.088,5.53v3.759H358.47v-3.759a6.5,6.5,0,0,1,3.087-5.53Zm-8,.937a6.478,6.478,0,0,1,5.737-1.8c-.127.113-.253.229-.374.35a8.522,8.522,0,0,0-2.5,6.043v3.759h-4.762v-3.759h0A6.456,6.456,0,0,1,353.559,417.463ZM374.191,472.3H342.063V427.866h7.543v7.178a1.026,1.026,0,0,0,2.051,0v-7.178h12.988v7.178a1.026,1.026,0,0,0,2.051,0v-7.178h7.495Zm6.836,0h-4.785V427.866h4.785Zm19.142,0H383.078V448.3a7.854,7.854,0,0,0,6.837-7.794,1.025,1.025,0,0,0-2.051,0,5.807,5.807,0,0,1-4.786,5.72v-8.8h17.091V472.3Zm6.836,0H402.22V437.435h4.785Z" fill="#ef54a1"/>
      </g>
    </g>
    <g id="组_21861" data-name="组 21861">
      <g id="组_21860" data-name="组 21860">
        <path id="路径_39210" data-name="路径 39210" d="M393.676,408.452a3.077,3.077,0,1,0,3.076,3.077A3.08,3.08,0,0,0,393.676,408.452Zm0,4.1a1.025,1.025,0,1,1,1.025-1.025A1.027,1.027,0,0,1,393.676,412.554Z" fill="#ef54a1"/>
      </g>
    </g>
    <g id="组_21863" data-name="组 21863">
      <g id="组_21862" data-name="组 21862">
        <path id="路径_39211" data-name="路径 39211" d="M401.879,416.656a3.076,3.076,0,1,0,3.076,3.076A3.08,3.08,0,0,0,401.879,416.656Zm0,4.1a1.025,1.025,0,1,1,1.025-1.025A1.027,1.027,0,0,1,401.879,420.757Z" fill="#ef54a1"/>
      </g>
    </g>
    <g id="组_21865" data-name="组 21865">
      <g id="组_21864" data-name="组 21864">
        <path id="路径_39212" data-name="路径 39212" d="M404.655,408.753a1.024,1.024,0,0,0-1.45,0l-12.3,12.305a1.025,1.025,0,0,0,1.45,1.45l12.3-12.3A1.026,1.026,0,0,0,404.655,408.753Z" fill="#ef54a1"/>
      </g>
    </g>
    <g id="组_21867" data-name="组 21867">
      <g id="组_21866" data-name="组 21866">
        <path id="路径_39213" data-name="路径 39213" d="M408.03,404.351H387.523a1.025,1.025,0,0,0-1.026,1.025.922.922,0,0,1,0,.342v6.494a1.025,1.025,0,0,0,2.051,0V406.4h18.457v17.5l-9.228,4.922-9.229-4.922v-7.588a1.025,1.025,0,0,0-2.051,0v8.2c0,.037,0,.074.005.111a1.031,1.031,0,0,0,.11.366l.009.019.007.013a1.03,1.03,0,0,0,.412.4l10.254,5.469a1.03,1.03,0,0,0,.965,0l10.254-5.469a1.012,1.012,0,0,0,.361-.325l.007-.009c.011-.016.02-.032.03-.049s.016-.026.023-.039l.011-.022a1.012,1.012,0,0,0,.11-.445V405.376A1.026,1.026,0,0,0,408.03,404.351Z" fill="#ef54a1"/>
      </g>
    </g>
  </g>
</svg>
