<svg xmlns="http://www.w3.org/2000/svg" width="68.019" height="69.249" viewBox="0 0 68.019 69.249">
  <g id="新闻类社群" transform="translate(-213.918 -181.98)">
    <path id="路径_39214" data-name="路径 39214" d="M242.531,205.984H234.1a1,1,0,0,0-.993.993v12.087a.994.994,0,0,0,.993.992h8.427a.993.993,0,0,0,.992-.992V206.977A.994.994,0,0,0,242.531,205.984Zm-.992,12.088H235.1v-10.1h6.443Z" fill="#6287de"/>
    <path id="路径_39215" data-name="路径 39215" d="M247.774,206.977a.994.994,0,0,0,.992.992h11.177a.993.993,0,0,0,0-1.985H248.766A.994.994,0,0,0,247.774,206.977Z" fill="#6287de"/>
    <path id="路径_39216" data-name="路径 39216" d="M259.943,212.03H248.766a.992.992,0,0,0,0,1.984h11.177a.992.992,0,1,0,0-1.984Z" fill="#6287de"/>
    <path id="路径_39217" data-name="路径 39217" d="M276.561,189.944H266.278l-8.483-7.707a.991.991,0,0,0-.668-.257h-27.4a2.285,2.285,0,0,0-2.282,2.283v5.681h-8.151a5.384,5.384,0,0,0-5.376,5.379v34.24a5.384,5.384,0,0,0,5.376,5.378H236.1l-1.381,6.434H232.98a4.932,4.932,0,0,0-4.926,4.926v3.936a.993.993,0,0,0,.992.992h36.389a.994.994,0,0,0,.992-.992V246.3a4.93,4.93,0,0,0-4.923-4.925h-1.747l-1.379-6.434h18.183a5.384,5.384,0,0,0,5.376-5.378v-34.24A5.384,5.384,0,0,0,276.561,189.944Zm-18.441-4.73,6.73,6.113h-6.73ZM215.9,195.323a3.4,3.4,0,0,1,3.392-3.4h8.151v32.213H215.9Zm45.6,48.036a2.943,2.943,0,0,1,2.938,2.941v2.945h-34.4V246.3a2.945,2.945,0,0,1,2.942-2.941Zm-24.751-1.984,1.382-6.434h18.214l1.379,6.434Zm43.2-11.812a3.4,3.4,0,0,1-3.392,3.394H219.294a3.4,3.4,0,0,1-3.392-3.394v-3.438h25.889a.992.992,0,1,0,0-1.984H229.43V183.964h26.705v7.061a2.289,2.289,0,0,0,2.286,2.287h8v30.829H254.064a.992.992,0,0,0,0,1.984h25.889Zm0-5.422H268.41v-32.2l.374-.016h7.777a3.4,3.4,0,0,1,3.392,3.4Z" fill="#6287de"/>
    <path id="路径_39218" data-name="路径 39218" d="M234.309,195.881h15.274a.992.992,0,1,0,0-1.984H234.309a.992.992,0,1,0,0,1.984Z" fill="#6287de"/>
    <path id="路径_39219" data-name="路径 39219" d="M234.309,201.927h24.259a.993.993,0,0,0,0-1.985H234.309a.993.993,0,0,0,0,1.985Z" fill="#6287de"/>
    <path id="路径_39220" data-name="路径 39220" d="M247.93,224.141a.992.992,0,1,0,.993.992A.994.994,0,0,0,247.93,224.141Z" fill="#6287de"/>
  </g>
</svg>
