<svg xmlns="http://www.w3.org/2000/svg" width="51.441" height="70" viewBox="0 0 51.441 70">
  <g id="游戏类型应用" transform="translate(-114.706 -484.013)">
    <path id="路径_39203" data-name="路径 39203" d="M136.468,510.853a.984.984,0,0,0-1.353,0l-8.121,8.121a6.695,6.695,0,0,0,5.1,11.422,13.579,13.579,0,0,1-1.729,4.277.956.956,0,0,0,.812,1.462h9.235a.956.956,0,0,0,.812-1.462,13.555,13.555,0,0,1-1.729-4.277,6.695,6.695,0,0,0,5.1-11.422Zm6.768,16.243a4.8,4.8,0,0,1-4.654,1.226.956.956,0,0,0-1.2,1.036,15.566,15.566,0,0,0,1.415,4.864h-6.005a15.568,15.568,0,0,0,1.415-4.863.957.957,0,0,0-1.2-1.037,4.783,4.783,0,0,1-4.654-8l7.444-7.442,7.445,7.442a4.793,4.793,0,0,1,0,6.77Z" fill="#ef54a1"/>
    <path id="路径_39204" data-name="路径 39204" d="M148.786,498.724a.966.966,0,0,0-1.737,0l-2.529,5.468a.957.957,0,0,0,1.721.839l.016-.035.293-.633h2.734l.292.633a.958.958,0,0,0,1.74-.8h0Zm-1.351,3.725.482-1.046.483,1.045Z" fill="#ef54a1"/>
    <path id="路径_39205" data-name="路径 39205" d="M126.6,541.245a.958.958,0,0,0-1.27.467h0l-.293.633H122.3l-.293-.633a.957.957,0,0,0-1.753.769l.016.035,2.53,5.469a.967.967,0,0,0,1.737,0l2.529-5.469a.956.956,0,0,0-.467-1.27Zm-2.448,3.014-.483,1.044-.483-1.044Z" fill="#ef54a1"/>
    <path id="路径_39206" data-name="路径 39206" d="M165.188,484.013H124.929a.957.957,0,0,0-.957.957V492.7h-8.309a.957.957,0,0,0-.957.957v59.4a.957.957,0,0,0,.957.957H155.92a.957.957,0,0,0,.957-.956h0v-7.727h8.313a.956.956,0,0,0,.957-.955v-59.4a.957.957,0,0,0-.956-.957ZM154.961,552.1H116.62V494.61h38.343V552.1Zm9.267-8.684h-7.351V493.653a.956.956,0,0,0-.956-.957H125.886v-6.769h38.345Z" fill="#ef54a1"/>
  </g>
</svg>
