<svg xmlns="http://www.w3.org/2000/svg" width="70" height="69.581" viewBox="0 0 70 69.581">
  <g id="ShowTime社群应用" transform="translate(-127.005 -232.001)">
    <g id="组_9" data-name="组 9" transform="translate(127.868 240.779)">
      <path id="路径_24" data-name="路径 24" d="M147.719,263.652a5.376,5.376,0,0,1-1.624-10.5,13.917,13.917,0,0,0-5.782-1.365A9.85,9.85,0,0,0,154.091,265.8a13.914,13.914,0,0,0-1.274-5.81,5.378,5.378,0,0,1-5.1,3.669Z" transform="translate(-124.735 -235.069)" fill="#19d9b4"/>
      <path id="路径_25" data-name="路径 25" d="M174.127,258.275a9.8,9.8,0,0,0-2.448-6.489,13.937,13.937,0,0,0-5.782,1.365,5.376,5.376,0,1,1-6.72,6.83,13.874,13.874,0,0,0-1.274,5.81,9.854,9.854,0,0,0,16.225-7.515Z" transform="translate(-118.951 -235.069)" fill="#19d9b4"/>
      <path id="路径_26" data-name="路径 26" d="M195.974,238.813c-6.553,3.416-16.34,5.327-16.34,5.327-2.706.539-5.541.952-8.457,1.24h-.006c-3.024.294-6.153.455-9.346.455s-6.322-.161-9.346-.455h-.006c-2.919-.287-5.747-.707-8.457-1.24,0,0-9.787-1.911-16.34-5.327,4.7,3.08,7.687,7.666,7.687,12.791a13.236,13.236,0,0,1-.805,4.51h.006a22.077,22.077,0,0,0-1.344,7.6c0,9.683,6.287,18.069,15.479,22.235v-2.282a21.746,21.746,0,0,1-9.983-18.132,21.323,21.323,0,0,1,5.174-13.89c9.766,4.95,16.193,12.188,16.949,20.231h1.89c0-.1-.006-.21,0-.314.21-8.376,6.572-15.721,16.452-20.582a21.34,21.34,0,0,1,5.755,14.547,21.746,21.746,0,0,1-9.983,18.132v2.282c9.192-4.166,15.479-12.552,15.479-22.235a22.231,22.231,0,0,0-1.344-7.6h.006a13.3,13.3,0,0,1-.805-4.51C188.287,246.479,191.269,241.893,195.974,238.813Zm-12.559,8.5-.006-.006Z" transform="translate(-127.675 -238.813)" fill="#19d9b4"/>
    </g>
    <path id="路径_27" data-name="路径 27" d="M139.625,243.818a30.707,30.707,0,0,1,40.31,0c1.675-.387,3.3-.805,4.866-1.281a34.977,34.977,0,0,0-49.461-.58q-.294.286-.58.58C136.327,243.012,137.958,243.432,139.625,243.818Z" transform="translate(2.238)" fill="#19d9b4"/>
    <path id="路径_28" data-name="路径 28" d="M190.265,249.923a12.662,12.662,0,0,0,.1,1.546,30.325,30.325,0,0,1-9.616,35.921,30.936,30.936,0,0,1-37.474,0,30.322,30.322,0,0,1-9.61-35.92,12.793,12.793,0,0,0,.1-1.555,13.1,13.1,0,0,0-1.191-5.429,34.514,34.514,0,0,0,6.5,45.011,35.223,35.223,0,0,0,45.853,0,34.513,34.513,0,0,0,6.511-45.015A13.492,13.492,0,0,0,190.265,249.923Z" transform="translate(0 3.602)" fill="#19d9b4"/>
  </g>
</svg>
