<svg xmlns="http://www.w3.org/2000/svg" width="69.75" height="69.75" viewBox="0 0 69.75 69.75">
  <g id="陌推商城" transform="translate(-276.515 -357.589)">
    <path id="路径_39207" data-name="路径 39207" d="M331.7,366.679l-.117-.008v-3.562a5.526,5.526,0,0,0-5.52-5.52H296.713a5.526,5.526,0,0,0-5.52,5.52V380.17H280.211l-3.4,9.061a4.626,4.626,0,0,0-.3,1.638v.2a4.634,4.634,0,0,0,2.2,3.939l.059.037v14.229h12.419v12.545a5.526,5.526,0,0,0,5.52,5.52h29.355a5.526,5.526,0,0,0,5.52-5.52V397.935l.117-.009a15.662,15.662,0,0,0,0-31.247Zm-38.5-3.57a3.516,3.516,0,0,1,3.512-3.512h29.355a3.516,3.516,0,0,1,3.512,3.512v3.513H293.2Zm-3.607,19.068h2.948l.023.1,1.734,6.93h-6.463Zm4.973,9.033-.015.138a2.639,2.639,0,0,1-2.622,2.37h-1.723a2.637,2.637,0,0,1-2.622-2.371l-.014-.137ZM281.6,382.177h5.921l-1.755,7.025h-6.8Zm-3.051,9.171-.014-.138h7l-.015.138a2.639,2.639,0,0,1-2.622,2.37h-1.725A2.64,2.64,0,0,1,278.551,391.348Zm7,15.918h-4.765V395.69l.133.009c.041,0,.081.009.121.014a1.044,1.044,0,0,0,.137.013H282.9a4.64,4.64,0,0,0,3.558-1.689l.1-.116.1.116a4.647,4.647,0,0,0,3.56,1.689h1.723a4.64,4.64,0,0,0,3.558-1.689l.1-.116.1.116a4.65,4.65,0,0,0,3.56,1.689h1.723a1.06,1.06,0,0,0,.138-.013c.04-.005.08-.011.121-.014l.133-.009v11.576h-4.766v-9.032h-11.04Zm10.82-18.064-.024-.1-1.731-6.93h4.868l.034.07,3.478,6.955Zm7.232,2.008-.015.138a2.639,2.639,0,0,1-2.622,2.37h-1.723a2.635,2.635,0,0,1-2.621-2.371l-.015-.137Zm-16.043,16.056v-7.024h7.024v7.024Zm42.024,14.553a3.517,3.517,0,0,1-3.512,3.512H296.713a3.517,3.517,0,0,1-3.512-3.512v-3.513H329.58Zm0-5.521H293.2v-7.024h10.161v-14.23l.058-.037a4.635,4.635,0,0,0,1.709-6.023l-4.408-8.814H293.2V368.63h29.734l-.387.232a15.753,15.753,0,0,0-2.917,2.239l-1.9,2.25A15.554,15.554,0,0,0,314.9,382.3a15.784,15.784,0,0,0,10.081,14.631l2.244.68a15.353,15.353,0,0,0,2.235.313l.117.009Zm11.291-25.017-.032.036a13.616,13.616,0,0,1-20.51,0l-.032-.036v-.937a3.507,3.507,0,0,1,2.661-3.407l2.11-.527,1.632,5.713,3.884-3.884.089.088,3.795,3.8,1.632-5.713,2.11.527a3.507,3.507,0,0,1,2.661,3.407Zm-8.535-9.343-.5.29v1.917l-.036.037-1.218,1.217-1.254-1.254v-1.917l-.5-.29a3.474,3.474,0,0,1-1.76-3.022v-2.025a3.664,3.664,0,0,1,3.2-3.732,3.511,3.511,0,0,1,3.829,3.5v2.258A3.474,3.474,0,0,1,332.336,381.938Zm.814,3.735,1,.249-.676,2.367-1.47-1.47Zm-3.985,1.146-1.471,1.47-.676-2.367,1-.249Zm13.474,1.91-.1-.27a5.511,5.511,0,0,0-3.845-3.47l-4.851-1.212v-.431l.05-.037a5.535,5.535,0,0,0,2.208-4.392v-2.258a5.522,5.522,0,0,0-6.012-5.5,5.681,5.681,0,0,0-5.028,5.732v2.025a5.535,5.535,0,0,0,2.208,4.392l.05.037v.431l-4.85,1.213a5.51,5.51,0,0,0-3.846,3.468l-.1.27-.131-.257a13.47,13.47,0,0,1-1.487-6.168,13.673,13.673,0,0,1,27.346,0,13.487,13.487,0,0,1-1.487,6.17Z" fill="#19d9b4"/>
    <path id="路径_39208" data-name="路径 39208" d="M313.618,391.617l-.094-.025V389.2h-2.009v2.258h-3.387v4.391a4.4,4.4,0,0,0,4.391,4.391,2.386,2.386,0,0,1,2.384,2.384v2.382h-2.384a2.387,2.387,0,0,1-2.38-2.257H308.13a4.387,4.387,0,0,0,3.291,4.109l.094.024v2.39h2.009v-2.258h3.387v-4.39a4.4,4.4,0,0,0-4.392-4.392,2.386,2.386,0,0,1-2.383-2.383v-2.383h2.383a2.387,2.387,0,0,1,2.381,2.258h2.009A4.384,4.384,0,0,0,313.618,391.617Z" fill="#19d9b4"/>
  </g>
</svg>
