<svg xmlns="http://www.w3.org/2000/svg" width="66.912" height="69.25" viewBox="0 0 66.912 69.25">
  <g id="_超级商家_社群应用" data-name="“超级商家”社群应用" transform="translate(-187.211 -373.24)">
    <path id="路径_39187" data-name="路径 39187" d="M211.336,437.823h2.333a.792.792,0,1,0,0-1.583h-2.333a.792.792,0,1,0,0,1.583Z" fill="#ef54a1"/>
    <path id="路径_39188" data-name="路径 39188" d="M218.336,411.74H206.669a3.125,3.125,0,1,0,3.125,3.125,3.053,3.053,0,0,0-.191-1.036l-.187-.505h6.173l-.187.505a3.069,3.069,0,0,0-.191,1.04,3.125,3.125,0,1,0,3.125-3.129Zm-11.667,4.667a1.542,1.542,0,1,1,1.542-1.542A1.544,1.544,0,0,1,206.669,416.407Zm11.667,0a1.542,1.542,0,1,1,1.541-1.542A1.544,1.544,0,0,1,218.336,416.407Z" fill="#ef54a1"/>
    <path id="路径_39189" data-name="路径 39189" d="M251,418.74h-3.873v-2.708a5.458,5.458,0,1,0-10.916,0v2.708h-1.917V389.911l.281-.073a4.292,4.292,0,0,0,3.219-4.14.8.8,0,0,0-.087-.354l-3.413-6.926v-2.053a3.143,3.143,0,0,0-3.126-3.125H193.836a3.144,3.144,0,0,0-3.125,3.126l-.04,2.22-3.371,6.755a.789.789,0,0,0-.089.36,4.291,4.291,0,0,0,3.219,4.137l.281.073v49.454a3.143,3.143,0,0,0,3.126,3.125h59.5a.794.794,0,0,0,.585-.261.781.781,0,0,0,.2-.607l-2.333-22.169A.791.791,0,0,0,251,418.74Zm-13.206-2.708a3.875,3.875,0,0,1,7.75,0v2.708h-7.75Zm-1.586-30.159-.011.108a2.712,2.712,0,0,1-2.693,2.438c-.089,0-.18,0-.272-.013a2.7,2.7,0,0,1-2.438-2.709V379.49h2.217Zm-43.914-9.508a1.543,1.543,0,0,1,1.542-1.541h37.333a1.543,1.543,0,0,1,1.542,1.541v1.542H192.294Zm36.917,3.125V385.7a2.708,2.708,0,0,1-5.417,0V379.49Zm-7,0V385.7a2.708,2.708,0,0,1-5.417,0V379.49Zm-7,0V385.7a2.708,2.708,0,0,1-5.417,0V379.49Zm-7,0V385.7a2.708,2.708,0,0,1-5.417,0V379.49Zm-7,0V385.7a2.708,2.708,0,0,1-5.417,0V379.49Zm-9.694,8.929H191.5a2.7,2.7,0,0,1-2.694-2.438l-.011-.108,3.2-6.383h2.216V385.7A2.711,2.711,0,0,1,191.517,388.419Zm28.36,52.488H193.836a1.543,1.543,0,0,1-1.542-1.542v-6.208h27.583Zm0-15.542v6.208H192.294V389.914l.278-.075a4.337,4.337,0,0,0,2.149-1.331l.285-.324.281.327a4.234,4.234,0,0,0,5.971.46,4.164,4.164,0,0,0,.46-.46l.284-.332.285.332a4.234,4.234,0,0,0,5.971.46,4.164,4.164,0,0,0,.46-.46l.284-.332.285.332a4.234,4.234,0,0,0,5.971.46,4.164,4.164,0,0,0,.46-.46l.284-.332.285.332a4.24,4.24,0,0,0,5.971.46,4.164,4.164,0,0,0,.46-.46l.284-.332.285.332a4.234,4.234,0,0,0,5.971.46,4.164,4.164,0,0,0,.46-.46l.281-.327.285.324a4.337,4.337,0,0,0,2.149,1.331l.278.075v28.824l-.373,0a.79.79,0,0,0-.784.713l-.55,5.12H220.669A.793.793,0,0,0,219.877,425.365Zm9.413,15.542h-7.829v-11.25h9.017Zm1.355-12.834h-9.184v-1.916h9.376Zm.236,12.834,2.167-20.584h3.163v3.5h1.583v-3.5h7.75v3.5h1.583v-3.5h3.163l2.168,20.584Z" fill="#ef54a1"/>
    <path id="路径_39190" data-name="路径 39190" d="M222.427,399.173a.77.77,0,0,0-.583-.266h-15.55v-3.875a.793.793,0,0,0-.792-.792h-4.291v1.584h3.5v13.208a.793.793,0,0,0,.791.792h15.167a.794.794,0,0,0,.783-.7l1.167-9.335a.755.755,0,0,0-.187-.612Zm-2.453,9.067h-13.68v-7.75h14.648Z" fill="#ef54a1"/>
  </g>
</svg>
