<svg xmlns="http://www.w3.org/2000/svg" width="70" height="70" viewBox="0 0 70 70">
  <g id="任务管理社群" transform="translate(215 -214)">
    <g id="组_21887" data-name="组 21887">
      <g id="组_21886" data-name="组 21886">
        <path id="路径_39256" data-name="路径 39256" d="M-169.158,245.158a1.168,1.168,0,0,0,1.131.311,1.169,1.169,0,0,0,.829-.83,1.164,1.164,0,0,0-.311-1.13l-6.628-6.629a10.527,10.527,0,0,0-1.2-14.418,10.528,10.528,0,0,0-14.463.4,10.528,10.528,0,0,0-.4,14.463,10.527,10.527,0,0,0,14.418,1.2Zm-9.675-7.457a8.068,8.068,0,0,1-7,0v-1.044a3.221,3.221,0,0,1,3.5-2.824,3.827,3.827,0,0,1,2.541.907,2.5,2.5,0,0,1,.959,1.917Zm-5.834-8.534a2.334,2.334,0,0,1,2.334-2.334A2.334,2.334,0,0,1-180,229.167a2.334,2.334,0,0,1-2.333,2.333A2.336,2.336,0,0,1-184.667,229.167Zm6.392,3.8a5.563,5.563,0,0,0-.737-.529,4.667,4.667,0,0,0-.026-6.584,4.666,4.666,0,0,0-6.584-.006,4.668,4.668,0,0,0-.038,6.584,5.072,5.072,0,0,0-2.444,3.676,8.144,8.144,0,0,1-2.4-5.774,8.166,8.166,0,0,1,6.051-7.893,8.166,8.166,0,0,1,9.189,3.807,8.166,8.166,0,0,1-1.3,9.86A4.865,4.865,0,0,0-178.275,232.966Z" fill="#6287de"/>
        <path id="路径_39257" data-name="路径 39257" d="M-186.658,245.842l-6.175,6.175-1.509-1.508a1.164,1.164,0,0,0-1.129-.308,1.163,1.163,0,0,0-.828.828,1.164,1.164,0,0,0,.308,1.129l2.333,2.334a1.169,1.169,0,0,0,.825.341,1.171,1.171,0,0,0,.825-.341l7-7a1.167,1.167,0,0,0-.006-1.645A1.166,1.166,0,0,0-186.658,245.842Z" fill="#6287de"/>
        <path id="路径_39258" data-name="路径 39258" d="M-164.833,250.167h-14A1.166,1.166,0,0,0-180,251.333a1.166,1.166,0,0,0,1.167,1.167h14a1.166,1.166,0,0,0,1.166-1.167A1.166,1.166,0,0,0-164.833,250.167Z" fill="#6287de"/>
        <path id="路径_39259" data-name="路径 39259" d="M-186.658,256.342l-6.175,6.175-1.509-1.508a1.165,1.165,0,0,0-1.644.005,1.166,1.166,0,0,0-.006,1.644l2.334,2.334a1.166,1.166,0,0,0,.825.342,1.163,1.163,0,0,0,.824-.342l7-7a1.166,1.166,0,0,0-.005-1.645A1.166,1.166,0,0,0-186.658,256.342Z" fill="#6287de"/>
        <path id="路径_39260" data-name="路径 39260" d="M-164.833,260.667h-14A1.166,1.166,0,0,0-180,261.833,1.166,1.166,0,0,0-178.833,263h14a1.166,1.166,0,0,0,1.166-1.167A1.166,1.166,0,0,0-164.833,260.667Z" fill="#6287de"/>
        <path id="路径_39261" data-name="路径 39261" d="M-186.658,266.842l-6.175,6.175-1.509-1.508a1.165,1.165,0,0,0-1.644.005,1.166,1.166,0,0,0-.006,1.644l2.334,2.334a1.166,1.166,0,0,0,.825.342,1.163,1.163,0,0,0,.824-.342l7-7a1.166,1.166,0,0,0-.005-1.645A1.166,1.166,0,0,0-186.658,266.842Z" fill="#6287de"/>
        <path id="路径_39262" data-name="路径 39262" d="M-164.833,271.167h-14A1.166,1.166,0,0,0-180,272.333a1.166,1.166,0,0,0,1.167,1.167h14a1.166,1.166,0,0,0,1.166-1.167A1.166,1.166,0,0,0-164.833,271.167Z" fill="#6287de"/>
        <path id="路径_39263" data-name="路径 39263" d="M-155.5,224.028V217.5A3.5,3.5,0,0,0-159,214h-42a3.5,3.5,0,0,0-3.5,3.5v6.528A34.96,34.96,0,0,0-215,249.243a34.959,34.959,0,0,0,10.84,25.07l0,0,.012.012c.368.356.757.7,1.213,1.1A34.966,34.966,0,0,0-157,275.373c.391-.345.78-.69,1.14-1.038l.02-.021h0A34.959,34.959,0,0,0-145,249.243,34.956,34.956,0,0,0-155.5,224.028Zm-49,46.565A32.265,32.265,0,0,1-212.667,249a32.267,32.267,0,0,1,8.167-21.593Zm46.667,2.388c-.241.222-.49.445-.766.69a32.594,32.594,0,0,1-21.4,8,32.636,32.636,0,0,1-21.451-8.04c-.241-.214-.478-.434-.716-.653V217.5A1.169,1.169,0,0,1-201,216.333h42a1.169,1.169,0,0,1,1.167,1.167Zm2.333-2.388V227.407A32.629,32.629,0,0,1-155.5,270.593Z" fill="#6287de"/>
      </g>
    </g>
  </g>
</svg>
