<svg xmlns="http://www.w3.org/2000/svg" width="110.679" height="72" viewBox="0 0 110.679 72">
  <g id="光鹰视频" transform="translate(139.424 -135.778)">
    <path id="路径_39172" data-name="路径 39172" d="M-84.085,181.845A7.438,7.438,0,0,1-89.148,180s-5.145-5.035-11.006-10.9-14.143-6.439-14.143-6.439H-136.75l4.464,3.881a9.554,9.554,0,0,0,5.607,2.319h13.611s4.274.046,9.007,4.779,16.455,16.39,16.455,16.39a6.085,6.085,0,0,0,3.522,1.632" transform="translate(0 -8.792)" fill="none" stroke="#6287de" stroke-miterlimit="10" stroke-width="2"/>
    <path id="路径_39173" data-name="路径 39173" d="M-109.521,172.056H-121.5l6.867,6.284a9.544,9.544,0,0,0,5.607,2.319h13.611" transform="translate(-5.179 -11.981)" fill="none" stroke="#6287de" stroke-miterlimit="10" stroke-width="2"/>
    <path id="路径_39174" data-name="路径 39174" d="M-88.887,185.083h-14.446l7.582,6.376a9.544,9.544,0,0,0,5.607,2.319h9.979" transform="translate(-11.349 -16.405)" fill="none" stroke="#6287de" stroke-miterlimit="10" stroke-width="2"/>
    <path id="路径_39175" data-name="路径 39175" d="M-71.281,175.7l.259-1.443s2.311-11.593,11.226-11.593c7.851,0,10.217,4.623,8.549,7.117h0c-1.771-3.152-5.6-2.678-5.6.165a7.182,7.182,0,0,0,2.624,5.5l1.084.956" transform="translate(-22.235 -8.792)" fill="none" stroke="#6287de" stroke-miterlimit="10" stroke-width="2"/>
    <path id="路径_39176" data-name="路径 39176" d="M-57.284,167.414l.077.032a3.841,3.841,0,0,0,2.982,0l.078-.032" transform="translate(-26.988 -10.405)" fill="none" stroke="#6287de" stroke-miterlimit="10" stroke-width="2"/>
    <path id="路径_39177" data-name="路径 39177" d="M-59.913,200.619V203.1s6.411,5.613,9.988,5.613h1.55s-.367,2.229-3.834,5.274c0,0-2.933,3.067-6.108.367a25.924,25.924,0,0,1-2.091-1.853l.807,5.595s.569,1.284-2.091,1.468-4.439.256-4.439.256-1.779-.073-4.439-.256-2.091-1.468-2.091-1.468l.807-5.595a25.918,25.918,0,0,1-2.091,1.853c-3.176,2.7-6.108-.367-6.108-.367-3.467-3.045-3.834-5.274-3.834-5.274h1.55c3.577,0,9.988-5.613,9.988-5.613l.048-2.974" transform="translate(-17.953 -21.513)" fill="none" stroke="#6287de" stroke-miterlimit="10" stroke-width="2"/>
    <path id="路径_39178" data-name="路径 39178" d="M-57,181.845A7.438,7.438,0,0,0-51.937,180s5.145-5.035,11.006-10.9,14.143-6.439,14.143-6.439H-4.335L-8.8,166.548a9.554,9.554,0,0,1-5.607,2.319H-28.017s-4.274.046-9.007,4.779-16.455,16.39-16.455,16.39A6.085,6.085,0,0,1-57,191.668" transform="translate(-27.085 -8.792)" fill="none" stroke="#6287de" stroke-miterlimit="10" stroke-width="2"/>
    <path id="路径_39179" data-name="路径 39179" d="M-17.894,172.056H-5.915l-6.867,6.284a9.544,9.544,0,0,1-5.607,2.319H-32" transform="translate(-35.575 -11.981)" fill="none" stroke="#6287de" stroke-miterlimit="10" stroke-width="2"/>
    <path id="路径_39180" data-name="路径 39180" d="M-37.028,185.083h14.446l-7.582,6.376a9.544,9.544,0,0,1-5.607,2.319H-45.75" transform="translate(-30.906 -16.405)" fill="none" stroke="#6287de" stroke-miterlimit="10" stroke-width="2"/>
    <g id="组_21850" data-name="组 21850" transform="translate(-119.452 136.778)">
      <path id="路径_39181" data-name="路径 39181" d="M-43.95,150.793a34.947,34.947,0,0,0-28.013-14.015,34.946,34.946,0,0,0-28.012,14.015" transform="translate(106.962 -136.778)" fill="none" stroke="#6287de" stroke-linecap="round" stroke-miterlimit="10" stroke-width="2"/>
      <path id="路径_39182" data-name="路径 39182" d="M-110.556,189.778a35,35,0,0,0,35,35,35,35,0,0,0,35-35" transform="translate(110.556 -154.778)" fill="none" stroke="#6287de" stroke-linecap="round" stroke-miterlimit="10" stroke-width="2"/>
    </g>
  </g>
</svg>
