<svg xmlns="http://www.w3.org/2000/svg" xmlns:xlink="http://www.w3.org/1999/xlink" width="21.9" height="21" viewBox="0 0 21.9 21">
  <defs>
    <linearGradient id="linear-gradient" x1="1.277" y1="1.963" x2="0.102" y2="0.208" gradientUnits="objectBoundingBox">
      <stop offset="0" stop-color="#2f30ea"/>
      <stop offset="1" stop-color="#f81a20"/>
    </linearGradient>
  </defs>
  <g id="_04" data-name="04" transform="translate(-380.6 -3054)">
    <rect id="矩形_2000" data-name="矩形 2000" width="20" height="2" transform="translate(381.6 3073)" fill="#2d3436"/>
    <path id="_04-2" data-name="04" d="M5.325.42A4.258,4.258,0,0,0,8.97-1.35a7.878,7.878,0,0,0,1.11-4.44,10.088,10.088,0,0,0-.585-3.48,4.2,4.2,0,0,0-.99-1.515A4.357,4.357,0,0,0,5.34-12,4.265,4.265,0,0,0,1.515-9.915,8.832,8.832,0,0,0,.6-5.76a10.039,10.039,0,0,0,.585,3.45A4.2,4.2,0,0,0,2.175-.8,4.321,4.321,0,0,0,5.325.42ZM5.34-1.32A2.2,2.2,0,0,1,3.42-2.3a6.747,6.747,0,0,1-.765-3.57,5.6,5.6,0,0,1,.99-3.645,2.017,2.017,0,0,1,1.68-.765,2.168,2.168,0,0,1,1.635.63,5.817,5.817,0,0,1,1.05,3.84A5.78,5.78,0,0,1,6.96-1.95,2.18,2.18,0,0,1,5.34-1.32ZM22.5-4.41a9.875,9.875,0,0,1-1.515.105H20.46v-4.92a21.113,21.113,0,0,1,.1-2.535H18.54A14.276,14.276,0,0,1,17.3-10.11L13.74-5.76c-.525.63-.69.825-1.2,1.38v1.845c.51-.045.99-.06,1.875-.06H18.57V-1.56A9.568,9.568,0,0,1,18.45.18h2.13a9.321,9.321,0,0,1-.12-1.71V-2.6H21a11.577,11.577,0,0,1,1.5.1Zm-3.915.12H14.76l2.88-3.57c.54-.66.72-.9,1.02-1.335a16.975,16.975,0,0,0-.075,1.8Z" transform="translate(380 3066)" fill="url(#linear-gradient)"/>
  </g>
</svg>
