<svg xmlns="http://www.w3.org/2000/svg" xmlns:xlink="http://www.w3.org/1999/xlink" width="21.345" height="21" viewBox="0 0 21.345 21">
  <defs>
    <linearGradient id="linear-gradient" x1="1.492" y1="1.784" x2="0.041" y2="0.359" gradientUnits="objectBoundingBox">
      <stop offset="0" stop-color="#2f30ea"/>
      <stop offset="1" stop-color="#f81a20"/>
    </linearGradient>
  </defs>
  <g id="_05" data-name="05" transform="translate(-949.17 -4760)">
    <rect id="矩形_171" data-name="矩形 171" width="20" height="2" transform="translate(949.4 4779)" fill="#2d3436"/>
    <path id="路径_39882" data-name="路径 39882" d="M-6.1.42A4.258,4.258,0,0,0-2.46-1.35,7.878,7.878,0,0,0-1.35-5.79a10.088,10.088,0,0,0-.585-3.48,4.2,4.2,0,0,0-.99-1.515A4.357,4.357,0,0,0-6.09-12,4.265,4.265,0,0,0-9.915-9.915,8.832,8.832,0,0,0-10.83-5.76a10.039,10.039,0,0,0,.585,3.45A4.2,4.2,0,0,0-9.255-.8,4.321,4.321,0,0,0-6.1.42Zm.015-1.74A2.2,2.2,0,0,1-8.01-2.3a6.747,6.747,0,0,1-.765-3.57,5.6,5.6,0,0,1,.99-3.645,2.017,2.017,0,0,1,1.68-.765,2.168,2.168,0,0,1,1.635.63,5.817,5.817,0,0,1,1.05,3.84A5.78,5.78,0,0,1-4.47-1.95,2.18,2.18,0,0,1-6.09-1.32ZM1.635-2.49A4.425,4.425,0,0,0,2.58-.855,4.39,4.39,0,0,0,6,.45c2.79,0,4.515-1.635,4.515-4.275A3.687,3.687,0,0,0,9.45-6.645,3.854,3.854,0,0,0,6.525-7.77a3.69,3.69,0,0,0-2.565.915q.067-.45.09-.63l.24-2.625H7.815a14.388,14.388,0,0,1,2.07.12v-1.89a11.421,11.421,0,0,1-2.085.12H4.11c-.8,0-1.14-.015-1.59-.045-.015.75-.045,1.26-.06,1.53l-.345,3.72c-.03.42-.045.495-.2,1.56l1.875.18a1.72,1.72,0,0,1,.45-.675,2.637,2.637,0,0,1,1.86-.69A2.237,2.237,0,0,1,8.46-3.765,2.327,2.327,0,0,1,6-1.29a2.272,2.272,0,0,1-1.845-.765,2.054,2.054,0,0,1-.45-.87Z" transform="translate(960 4772)" fill="url(#linear-gradient)"/>
  </g>
</svg>
