<svg xmlns="http://www.w3.org/2000/svg" xmlns:xlink="http://www.w3.org/1999/xlink" width="21.525" height="21" viewBox="0 0 21.525 21">
  <defs>
    <linearGradient id="linear-gradient" x1="1.473" y1="1.752" x2="-0.017" y2="0.332" gradientUnits="objectBoundingBox">
      <stop offset="0" stop-color="#2f30ea"/>
      <stop offset="1" stop-color="#f81a20"/>
    </linearGradient>
  </defs>
  <g id="_06" data-name="06" transform="translate(-989 -4567)">
    <rect id="矩形_171" data-name="矩形 171" width="20" height="2" transform="translate(989.4 4586)" fill="#2d3436"/>
    <path id="路径_39931" data-name="路径 39931" d="M5.325.42A4.258,4.258,0,0,0,8.97-1.35a7.878,7.878,0,0,0,1.11-4.44,10.088,10.088,0,0,0-.585-3.48,4.2,4.2,0,0,0-.99-1.515A4.357,4.357,0,0,0,5.34-12,4.265,4.265,0,0,0,1.515-9.915,8.832,8.832,0,0,0,.6-5.76a10.039,10.039,0,0,0,.585,3.45A4.2,4.2,0,0,0,2.175-.8,4.321,4.321,0,0,0,5.325.42ZM5.34-1.32A2.2,2.2,0,0,1,3.42-2.3a6.747,6.747,0,0,1-.765-3.57,5.6,5.6,0,0,1,.99-3.645,2.017,2.017,0,0,1,1.68-.765,2.168,2.168,0,0,1,1.635.63,5.817,5.817,0,0,1,1.05,3.84A5.78,5.78,0,0,1,6.96-1.95,2.18,2.18,0,0,1,5.34-1.32Zm16.56-8a4.33,4.33,0,0,0-.945-1.53,4.132,4.132,0,0,0-3.075-1.14A4.26,4.26,0,0,0,14.22-10.2a8.17,8.17,0,0,0-1.23,4.635c0,2.265.63,4.065,1.74,5.025a4.725,4.725,0,0,0,3.045.99,4.04,4.04,0,0,0,4.35-4.05,4.309,4.309,0,0,0-.54-2.25A3.9,3.9,0,0,0,18.1-7.635a3.481,3.481,0,0,0-3.21,1.5A6.6,6.6,0,0,1,15.51-8.79a2.492,2.492,0,0,1,2.355-1.56,1.887,1.887,0,0,1,2.01,1.515ZM17.76-6a2.166,2.166,0,0,1,2.37,2.355,2.559,2.559,0,0,1-.345,1.365A2.387,2.387,0,0,1,17.73-1.23,2.38,2.38,0,0,1,15.195-3.6,2.42,2.42,0,0,1,17.76-6Z" transform="translate(988.4 4579)" fill="url(#linear-gradient)"/>
  </g>
</svg>
