<svg id="维系生态" xmlns="http://www.w3.org/2000/svg" width="88.39" height="88.39" viewBox="0 0 88.39 88.39">
  <path id="路径_880" data-name="路径 880" d="M88.841,258.39l-.021.18H88.8c-.022,2.21-.032,7.207-.035,10.943l1.2,1.2.051-9.509a24.336,24.336,0,0,1,24.293-24.323H132.38v2.531c0,5.879-2.625,11.712-7.392,16.424-4.937,4.879-11.578,7.988-16.93,7.912h-6.766v1.169h6.466c10.41,0,24.233-10.061,25.783-22.555v-6.649H114.47A26.012,26.012,0,0,0,88.841,258.39Z" transform="translate(-45.15 -235.713)" fill="#19d9b4"/>
  <path id="路径_881" data-name="路径 881" d="M74.349,304.91a26.048,26.048,0,0,0-25.686-22.677H29.554v5.115c1.112,13.337,15.043,24.089,25.834,24.089h6.484v-1.168H55.058c-5.359.054-12-3.039-16.948-7.932-4.764-4.709-7.388-10.535-7.388-16.4V283.4H48.828a24.363,24.363,0,0,1,24.336,24.336v28.619h1.174c.03-13.415.049-28.192.024-31.377Z" transform="translate(-29.554 -247.967)" fill="#19d9b4"/>
</svg>
