<svg xmlns="http://www.w3.org/2000/svg" width="85.628" height="85.628" viewBox="0 0 85.628 85.628">
  <g id="刺激市场" transform="translate(0 0)">
    <path id="路径_878" data-name="路径 878" d="M175.992,423.469a6.042,6.042,0,0,0,5.225-9.069l-.533-.919,13.41-13.41.919.532a6.153,6.153,0,0,0,6.075-.006l.918-.535,7,6.972-.54.922a6.038,6.038,0,1,0,10.436.017l-.533-.918,27.192-27.247.922.542a6.032,6.032,0,1,0-2.181-2.207l.524.916-27.2,27.254-.919-.533a6.158,6.158,0,0,0-6.037-.01l-.915.526-7-6.979.53-.92a6.038,6.038,0,1,0-10.457.012l.533.918-13.411,13.41-.919-.533a6.04,6.04,0,1,0-3.031,11.264Zm68.563-48.327a4.988,4.988,0,1,1,4.988,4.988A4.995,4.995,0,0,1,244.555,375.143ZM213.676,406.02a4.989,4.989,0,1,1-4.988,4.988A4.994,4.994,0,0,1,213.676,406.02Zm-20.619-10.642a4.988,4.988,0,1,1,4.988,4.988A4.994,4.994,0,0,1,193.057,395.378Zm-17.065,17.065A4.988,4.988,0,1,1,171,417.431,4.994,4.994,0,0,1,175.992,412.443Z" transform="translate(-169.953 -369.104)" fill="#ef54a1"/>
    <path id="路径_879" data-name="路径 879" d="M250.089,411.625h-1.051v53.257H215.161V439.221H214.11v25.661H198.591V428.165h-1.051v36.717h-21V444.735h-1.05v20.148h-5.455v1.05h85.511v-1.05h-5.455Z" transform="translate(-169.974 -380.305)" fill="#ef54a1"/>
  </g>
</svg>
