<svg xmlns="http://www.w3.org/2000/svg" width="86.55" height="86.549" viewBox="0 0 86.55 86.549">
  <g id="消费发行" transform="translate(-1184 -2350)">
    <g id="组_22208" data-name="组 22208">
      <g id="组_22205" data-name="组 22205" transform="translate(1184 2350)">
        <path id="路径_874" data-name="路径 874" d="M245.352,257.72a9.465,9.465,0,0,0-4.45-4.45l-.524-.25v-8.035h-1.1v7.633l-1.059-.16a9.39,9.39,0,0,0-1.343-.108h-3.859v-7.366h-1.1v7.366h-6.261v-7.366h-1.106v7.366H218.28v-7.366h-1.1v7.366h-6.261v-7.366h-1.1v7.366h-6.261v-7.366h-1.1v7.366h-6.261v-7.366h-1.1v7.366h-6.261v-7.366h-1.1v7.366h-3.867a9.471,9.471,0,0,0-1.335.107l-1.059.161v-7.633h-1.1v8.035l-.524.25a9.471,9.471,0,0,0-4.45,4.45l-.25.524h-8.035v1.1h7.635l-.162,1.059a9.562,9.562,0,0,0-.108,1.344v3.858h-7.366v1.1h7.366v6.261h-7.366v1.1h7.366v6.261h-7.366v1.1h7.366v6.261h-7.366v1.1h7.366v6.261h-7.366v1.1h7.366v6.261h-7.366v1.1h7.366V309.8h-7.366v1.1h7.366v3.867a9.552,9.552,0,0,0,.108,1.335l.162,1.059h-7.635v1.1h8.035l.25.524a9.478,9.478,0,0,0,4.45,4.45l.524.25v8.035h1.1V323.9l1.059.161a9.677,9.677,0,0,0,1.344.108h3.858v7.366h1.1v-7.366h6.261v7.366h1.1v-7.366h6.261v7.366h1.1v-7.366h6.261v7.366h1.1v-7.366h6.261v7.366h1.1v-7.366h6.261v7.366h1.106v-7.366h6.261v7.366h1.1v-7.366h3.867a9.667,9.667,0,0,0,1.335-.108l1.059-.161v7.634h1.1V323.5l.524-.25a9.471,9.471,0,0,0,4.45-4.45l.25-.524h8.035v-1.1H246l.162-1.06a9.563,9.563,0,0,0,.108-1.344V310.91h7.366v-1.1h-7.366v-6.261h7.366v-1.1h-7.366v-6.261h7.366v-1.1h-7.366v-6.261h7.366v-1.1h-7.366v-6.261h7.366v-1.1h-7.366V274.08h7.366v-1.1h-7.366v-6.261h7.366v-1.1h-7.366v-3.867a9.534,9.534,0,0,0-.108-1.334l-.162-1.06h7.635v-1.1H245.6Zm-.186,57.058a8.31,8.31,0,0,1-8.285,8.285H183.844a8.311,8.311,0,0,1-8.287-8.285V261.742a8.311,8.311,0,0,1,8.286-8.287h53.036a8.31,8.31,0,0,1,8.287,8.285Z" transform="translate(-167.087 -244.985)" fill="#6287de"/>
        <path id="路径_875" data-name="路径 875" d="M240.674,264.985H190.586a3.5,3.5,0,0,0-3.5,3.5v50.088a3.5,3.5,0,0,0,3.5,3.5h50.089a3.5,3.5,0,0,0,3.5-3.5V268.484A3.5,3.5,0,0,0,240.674,264.985Zm2.394,53.587a2.4,2.4,0,0,1-2.394,2.394H190.586a2.4,2.4,0,0,1-2.394-2.394V268.484a2.4,2.4,0,0,1,2.394-2.394h50.089a2.4,2.4,0,0,1,2.394,2.394Z" transform="translate(-172.355 -250.253)" fill="#6287de"/>
        <rect id="矩形_44" data-name="矩形 44" width="1.105" height="1.105" transform="translate(64.82 20.624)" fill="#6287de"/>
        <rect id="矩形_45" data-name="矩形 45" width="1.105" height="1.105" transform="translate(20.625 64.82)" fill="#6287de"/>
        <path id="路径_876" data-name="路径 876" d="M196.192,274.09h4.42v-1.1h-3.5a2.028,2.028,0,0,0-2.026,2.026v3.5h1.1Z" transform="translate(-174.463 -252.361)" fill="#6287de"/>
        <path id="路径_877" data-name="路径 877" d="M254.612,326.985h-1.1v4.42h-4.42v1.1h5.524Z" transform="translate(-188.687 -266.585)" fill="#6287de"/>
      </g>
      <g id="组_22209" data-name="组 22209" transform="translate(900.96 2106.398)">
        <g id="组_22206" data-name="组 22206">
          <path id="路径_40319" data-name="路径 40319" d="M310.83,294.654a.7.7,0,0,0,0,1.4h31.5a.75.75,0,0,0,.787-.7.655.655,0,0,0-.23-.494.834.834,0,0,0-.558-.206Z" fill="#668adf"/>
          <path id="路径_40320" data-name="路径 40320" d="M343.116,300.13a.656.656,0,0,0-.231-.5.837.837,0,0,0-.556-.2h-31.5a.75.75,0,0,0-.79.7.659.659,0,0,0,.232.5.83.83,0,0,0,.557.2h31.5A.749.749,0,0,0,343.116,300.13Z" fill="#668adf"/>
        </g>
        <path id="路径_40324" data-name="路径 40324" d="M310.883,276.565v12.064a2.9,2.9,0,0,0,.89,2.037,2.7,2.7,0,0,0,2.069.814h26.385a2.918,2.918,0,0,0,2.852-2.964V276.454a2.911,2.911,0,0,0-2.907-2.852H313.735A2.913,2.913,0,0,0,310.883,276.565Zm29.22-1.789c.049,0,.11,0,.169,0a1.737,1.737,0,0,1,1.629,1.832V288.5a1.438,1.438,0,0,1,0,.173h0a1.735,1.735,0,0,1-1.729,1.632H313.853c-.022,0-.048,0-.077,0s-.062,0-.093,0a1.735,1.735,0,0,1-1.625-1.833v-11.9a1.194,1.194,0,0,1,0-.179,1.721,1.721,0,0,1,.58-1.186,1.672,1.672,0,0,1,1.238-.434Z" fill="#668adf"/>
        <path id="路径_40322" data-name="路径 40322" d="M322.82,280.306l1.125-.328q-.56-2.578-3.606-2.579-3.094.141-3.281,2.532-.187,1.968,3.375,2.672,2.859.563,2.625,1.875-.095,1.734-2.391,1.781a2.482,2.482,0,0,1-2.871-2.021,2.352,2.352,0,0,1-.035-.323l-1.078.375q.563,2.905,4.031,2.813,3.234-.141,3.469-2.579.188-2.2-3.656-2.906-2.437-.515-2.391-1.687.095-1.547,2.3-1.594A2.308,2.308,0,0,1,322.82,280.306Zm3.238,6.656h1.031v-9.375h-1.031Zm4.312-.844h5.95v.844h-7.028v-9.375h6.75v.891H330.37v3.188h5.344v.938H330.37Z" fill="#668adf"/>
      </g>
    </g>
  </g>
</svg>
