<svg xmlns="http://www.w3.org/2000/svg" width="86.181" height="76.859" viewBox="0 0 86.181 76.859">
  <g id="数字管理" transform="translate(0 0)">
    <path id="路径_858" data-name="路径 858" d="M396.9,256.859H369.7a.622.622,0,0,0,0,1.243h27.2a3.785,3.785,0,0,1,3.781,3.781v45.79H323.894V296.009a.622.622,0,1,0-1.243,0v11.664h-5.662v-45.79a3.785,3.785,0,0,1,3.78-3.781h34.779a.622.622,0,0,0,0-1.243H320.769a5.03,5.03,0,0,0-5.024,5.024v53.345a5.03,5.03,0,0,0,5.024,5.024h30.885v12.223H344.7a.621.621,0,1,0,0,1.243h28.278a.621.621,0,1,0,0-1.243h-6.957V320.252H396.9a5.029,5.029,0,0,0,5.024-5.024V261.883A5.029,5.029,0,0,0,396.9,256.859Zm-32.128,75.616H352.9V320.252h11.877Zm35.909-17.246a3.785,3.785,0,0,1-3.781,3.78H320.769a3.784,3.784,0,0,1-3.78-3.78v-6.312h83.695Z" transform="translate(-315.745 -256.859)" fill="#91f0d2"/>
    <path id="路径_859" data-name="路径 859" d="M379.612,257.92a.622.622,0,1,0-.881,0A.649.649,0,0,0,379.612,257.92Z" transform="translate(-332.289 -256.859)" fill="#91f0d2"/>
    <path id="路径_860" data-name="路径 860" d="M374.013,334.46a.615.615,0,0,0,.629-.621.625.625,0,1,0-.629.621Z" transform="translate(-330.93 -276.973)" fill="#91f0d2"/>
    <path id="路径_861" data-name="路径 861" d="M348.706,268.109a.623.623,0,0,0-.622.622v12.43a.621.621,0,1,0,1.243,0v-12.43A.622.622,0,0,0,348.706,268.109Z" transform="translate(-324.264 -259.822)" fill="#91f0d2"/>
    <path id="路径_862" data-name="路径 862" d="M377.768,281.782a.623.623,0,0,0,.622-.622v-12.43a.622.622,0,0,0-1.243,0v12.43A.623.623,0,0,0,377.768,281.782Z" transform="translate(-331.919 -259.822)" fill="#91f0d2"/>
    <path id="路径_863" data-name="路径 863" d="M336.545,272.184a4.074,4.074,0,1,0-8.149,0v5.524a4.074,4.074,0,0,0,8.149,0Zm-1.243,5.524a2.831,2.831,0,0,1-5.662,0v-5.524a2.831,2.831,0,1,1,5.662,0Z" transform="translate(-319.077 -259.822)" fill="#91f0d2"/>
    <path id="路径_864" data-name="路径 864" d="M362.471,268.109a4.08,4.08,0,0,0-4.075,4.075v5.524a4.074,4.074,0,0,0,8.149,0v-5.524A4.079,4.079,0,0,0,362.471,268.109Zm2.831,9.6a2.831,2.831,0,0,1-5.662,0v-5.524a2.831,2.831,0,1,1,5.662,0Z" transform="translate(-326.98 -259.822)" fill="#91f0d2"/>
    <path id="路径_865" data-name="路径 865" d="M405.893,268.109a.623.623,0,0,0-.622.622v12.43a.622.622,0,0,0,1.243,0v-12.43A.623.623,0,0,0,405.893,268.109Z" transform="translate(-339.327 -259.822)" fill="#91f0d2"/>
    <path id="路径_866" data-name="路径 866" d="M390.6,281.782a4.079,4.079,0,0,0,4.074-4.074v-5.524a4.074,4.074,0,1,0-8.149,0v5.524A4.08,4.08,0,0,0,390.6,281.782Zm-2.831-9.6a2.831,2.831,0,1,1,5.662,0v5.524a2.831,2.831,0,0,1-5.662,0Z" transform="translate(-334.388 -259.822)" fill="#91f0d2"/>
    <path id="路径_867" data-name="路径 867" d="M361.214,296.856v12.43a.621.621,0,1,0,1.243,0v-12.43a.621.621,0,1,0-1.243,0Z" transform="translate(-327.722 -267.231)" fill="#91f0d2"/>
    <path id="路径_868" data-name="路径 868" d="M390.276,296.856v12.43a.622.622,0,0,0,1.243,0v-12.43a.622.622,0,1,0-1.243,0Z" transform="translate(-335.377 -267.231)" fill="#91f0d2"/>
    <path id="路径_869" data-name="路径 869" d="M345.6,309.907a4.079,4.079,0,0,0,4.074-4.074v-5.524a4.074,4.074,0,1,0-8.149,0v5.524A4.08,4.08,0,0,0,345.6,309.907Zm-2.831-9.6a2.831,2.831,0,1,1,5.662,0v5.524a2.831,2.831,0,0,1-5.662,0Z" transform="translate(-322.536 -267.231)" fill="#91f0d2"/>
    <path id="路径_870" data-name="路径 870" d="M375.6,309.907a4.079,4.079,0,0,0,4.074-4.074v-5.524a4.074,4.074,0,1,0-8.149,0v5.524A4.08,4.08,0,0,0,375.6,309.907Zm-2.831-9.6a2.831,2.831,0,1,1,5.662,0v5.524a2.831,2.831,0,0,1-5.662,0Z" transform="translate(-330.438 -267.231)" fill="#91f0d2"/>
    <path id="路径_871" data-name="路径 871" d="M419.644,309.286v-12.43a.622.622,0,1,0-1.243,0v12.43a.622.622,0,0,0,1.243,0Z" transform="translate(-342.786 -267.231)" fill="#91f0d2"/>
    <path id="路径_872" data-name="路径 872" d="M403.726,309.907a4.079,4.079,0,0,0,4.074-4.074v-5.524a4.074,4.074,0,1,0-8.149,0v5.524A4.08,4.08,0,0,0,403.726,309.907Zm-2.831-9.6a2.831,2.831,0,1,1,5.662,0v5.524a2.831,2.831,0,0,1-5.662,0Z" transform="translate(-337.847 -267.231)" fill="#91f0d2"/>
    <path id="路径_873" data-name="路径 873" d="M325.3,300.05a.622.622,0,0,0,0,.882.654.654,0,0,0,.877,0,.622.622,0,0,0,0-.88.622.622,0,0,0-.878,0Z" transform="translate(-318.215 -268.188)" fill="#91f0d2"/>
  </g>
</svg>
