<svg xmlns="http://www.w3.org/2000/svg" width="162" height="86" viewBox="0 0 162 86">
  <path id="社群桥梁" d="M1412.7,100.314a.754.754,0,0,0,0-1.508h-11.233l-.115-.063C1376.584,85,1371.5,56.354,1371.3,55.141l-.007-16.458a.752.752,0,0,0-.748-.751h0a.749.749,0,0,0-.751.751V54.794l-.2.152A74.6,74.6,0,0,1,1349.828,66.3a1.065,1.065,0,0,0-.343.117l-.091.044a50.123,50.123,0,0,1-16.56,3.052h-.08l-.075-.023a.658.658,0,0,0-.44,0l-.076.024h-.08a50.14,50.14,0,0,1-16.6-3.066,1.061,1.061,0,0,0-.307-.119,74.471,74.471,0,0,1-19.86-11.379l-.2-.152V38.683a.75.75,0,1,0-1.5,0v16.38c-.21,1.3-5.282,29.931-30.072,43.68l-.114.063H1252.2a.754.754,0,0,0,0,1.508h41.413v22.861a.753.753,0,0,0,.75.754h0a.749.749,0,0,0,.75-.753V100.314h74.675v22.86a.748.748,0,0,0,.749.753h0a.749.749,0,0,0,.752-.753v-22.86h29.867l.137.506h0l-.021-.5Zm-119.087-1.508h-27.174l1.41-.928c14.19-9.351,21.312-23.322,24.785-33.395l.98-2.84Zm20.663,0h-19.163V56.693l.8.6a74.324,74.324,0,0,0,18.033,10.1l.327.123Zm17.429,0H1315.78V68.054l.659.215a51.907,51.907,0,0,0,14.779,2.59l.491.012Zm17.4,0h-15.9V70.871l.491-.012a52.009,52.009,0,0,0,14.752-2.579l.659-.215Zm20.68,0h-19.179V67.532l.328-.123a73.967,73.967,0,0,0,18.047-10.114l.8-.6Zm1.5,0V61.647l.98,2.84c3.473,10.067,10.592,24.033,24.782,33.391l1.409.928Z" transform="translate(-1251.453 -37.929)" fill="#6287de"/>
</svg>
