<svg xmlns="http://www.w3.org/2000/svg" width="87.584" height="87.573" viewBox="0 0 87.584 87.573">
  <g id="价值媒介" transform="translate(-3.023 -3.299)">
    <g id="组_791" data-name="组 791" transform="translate(3.858 55.62)">
      <rect id="矩形_86" data-name="矩形 86" width="12.205" height="27.969" transform="translate(73.795 2.47)" fill="none" stroke="#ff7675" stroke-linecap="round" stroke-miterlimit="10" stroke-width="1.5"/>
      <path id="路径_1936" data-name="路径 1936" d="M143.615,196.871s-35.2,9.523-40.97,7.075c-5.231-2.22-27.731-18.815-31.867-21.879a.724.724,0,0,1-.162-1.011.714.714,0,0,1,.083-.1,10.273,10.273,0,0,1,11.36-2.33c7.242,2.951,17.568,7.176,17.568,7.176" transform="translate(-70.478 -169.92)" fill="none" stroke="#ff7675" stroke-linecap="round" stroke-miterlimit="10" stroke-width="1.5"/>
      <path id="路径_1937" data-name="路径 1937" d="M148.726,172.545s-14.888-5.633-18.777-4.963-21.6,13.547-21.6,13.547-4.47,2.235-1.77,5.619a5.9,5.9,0,0,0,6.08,1.91A24.985,24.985,0,0,0,116.4,187.3c4.56-2.011,9.522-4.291,9.522-4.291" transform="translate(-74.931 -167.527)" fill="none" stroke="#ff7675" stroke-linecap="round" stroke-miterlimit="10" stroke-width="1.5"/>
      <path id="路径_1938" data-name="路径 1938" d="M89.083,177.634,84.3,174.289a.537.537,0,0,1-.017-.878,7.79,7.79,0,0,1,7.814-.872c4.963,2.079,12.379,5.961,12.379,5.961" transform="translate(-72.137 -168.057)" fill="none" stroke="#ff7675" stroke-linecap="round" stroke-miterlimit="10" stroke-width="1.5"/>
      <path id="路径_1939" data-name="路径 1939" d="M102.24,173.288l-3.418-2.6a.878.878,0,0,1-.178-1.229.848.848,0,0,1,.167-.169c1.157-.9,3.6-2.037,7.425-.155,5.6,2.75,7.875,4.158,7.875,4.158" transform="translate(-73.948 -167.598)" fill="none" stroke="#ff7675" stroke-linecap="round" stroke-miterlimit="10" stroke-width="1.5"/>
    </g>
    <ellipse id="椭圆_54" data-name="椭圆 54" cx="22.235" cy="22.311" rx="22.235" ry="22.311" transform="translate(24.622 4.049)" fill="none" stroke="#ff7675" stroke-miterlimit="10" stroke-width="1.5"/>
    <text id="SIE" transform="translate(32.727 31.38)" fill="#ff7675" font-size="14" font-family="HiraginoSansGB-W3, Hiragino Sans GB" letter-spacing="0.1em"><tspan x="0" y="0">SIE</tspan></text>
  </g>
</svg>
