<svg xmlns="http://www.w3.org/2000/svg" xmlns:xlink="http://www.w3.org/1999/xlink" width="549.931" height="298" viewBox="0 0 549.931 298">
  <defs>
    <linearGradient id="linear-gradient" x1="0.5" x2="0.5" y2="1" gradientUnits="objectBoundingBox">
      <stop offset="0" stop-color="#ef54a1"/>
      <stop offset="1" stop-color="#6287de"/>
    </linearGradient>
  </defs>
  <g id="机器人" transform="translate(-372.942 -1355)">
    <path id="路径_36942" data-name="路径 36942" d="M1223.646,639.112a14.076,14.076,0,1,0,14.076,14.076A14.123,14.123,0,0,0,1223.646,639.112Zm0,26.038h0a11.964,11.964,0,1,1,11.965-11.966A12,12,0,0,1,1223.646,665.15Z" transform="translate(-623.17 767.673)"/>
    <path id="路径_36943" data-name="路径 36943" d="M1302.98,639.112a14.076,14.076,0,1,0,14.076,14.076A14.123,14.123,0,0,0,1302.98,639.112Zm0,26.038h0a11.964,11.964,0,1,1,11.965-11.966A12,12,0,0,1,1302.98,665.15Z" transform="translate(-643.103 767.673)"/>
    <rect id="矩形_2201" data-name="矩形 2201" width="23.343" height="2.116" transform="translate(618.123 1440.303)"/>
    <g id="组_21407" data-name="组 21407" transform="translate(518.259 1355)">
      <path id="路径_36944" data-name="路径 36944" d="M1367.243,749.578h-32.731V721.3l.708-.038a8.626,8.626,0,0,0,8.169-8.6v-2.17a21.459,21.459,0,0,0-21.4-21.4l-22.738,0c-.5-.05-1.006-.076-1.491-.077h-41.238V672.726h29.822a7.839,7.839,0,0,0,7.818-7.817v-9.5h9.195a9.271,9.271,0,0,0,9.247-9.249V624.3a9.27,9.27,0,0,0-9.248-9.242h-9.194V587.531a7.838,7.838,0,0,0-7.819-7.813h-21.09v-7.843a1.927,1.927,0,0,0-1.924-1.925H1198.28a1.927,1.927,0,0,0-1.925,1.925v7.843h-21.261a7.834,7.834,0,0,0-7.812,7.814v27.53h-9.2a9.268,9.268,0,0,0-9.242,9.243v21.862a9.27,9.27,0,0,0,9.242,9.245h9.2v9.5a7.836,7.836,0,0,0,7.812,7.816h28.28v16.283h-39.129c-.455,0-.926.025-1.436.075l-22.845,0a21.458,21.458,0,0,0-21.4,21.4v2.171a8.623,8.623,0,0,0,8.169,8.6l.709.038v58.839l-.656.082a9.082,9.082,0,0,0-7.943,8.983,12.353,12.353,0,0,0,12.32,12.319h9.034a11.355,11.355,0,0,0,11.319-11.319v-5.193l1.325,1.591a14.879,14.879,0,0,0,8.564,5.077l.606.117v45.893h-4.284a12.947,12.947,0,0,0-12.913,12.914v9a8.383,8.383,0,0,0,8.358,8.357h50.6A15.265,15.265,0,0,0,1219,852.722V791.955h18.832v60.769a15.267,15.267,0,0,0,15.226,15.226h50.6a8.383,8.383,0,0,0,8.363-8.359V850.6a12.949,12.949,0,0,0-12.919-12.913h-4.284v-45.73h2.967a14.782,14.782,0,0,0,6.677-1.608l.35-.178.346.186a23.769,23.769,0,0,0,34.994-19.151l.052-.693h27.039a10.467,10.467,0,1,0,0-20.933Zm-73.079-132.4h9.2a7.147,7.147,0,0,1,7.13,7.125v21.864a7.149,7.149,0,0,1-7.13,7.13h-9.2Zm-126.886,36.116h-9.2a7.147,7.147,0,0,1-7.126-7.13V624.3a7.147,7.147,0,0,1,7.125-7.126h9.2Zm154.713,37.913a19.336,19.336,0,0,1,19.283,19.282v2.172a6.525,6.525,0,0,1-6.506,6.507H1312.6V703.85c-.005-.072-.008-.114-.009-.157-.006-.323-.022-.65-.05-.976a14.739,14.739,0,0,0-5.213-10.19l-1.561-1.32Zm10.4,30.078v28.2H1312.6v-28.2Zm-157.3-139.45h111.253a5.711,5.711,0,0,1,5.7,5.7v9.913H1169.4l0-9.911A5.712,5.712,0,0,1,1175.092,581.834Zm0,88.776a5.716,5.716,0,0,1-5.7-5.7V599.559h122.649v65.35a5.715,5.715,0,0,1-5.7,5.7Zm79.314,2.115v16.283h-48.918V672.726ZM1126.63,719.136a6.471,6.471,0,0,1-5.953-6.478v-2.172a19.335,19.335,0,0,1,19.283-19.283h16.279l-1.561,1.32a14.839,14.839,0,0,0-5.274,11.328v15.257h-21.961v.067Zm2.928,30.476V721.281H1149.4v28.332Zm19.842,2.171v28.353h-19.842V751.783Zm.01,38.409a9.229,9.229,0,0,1-9.209,9.209h-9.035a10.231,10.231,0,0,1-10.2-10.2,6.945,6.945,0,0,1,6.181-6.9l.082,0h22.185Zm67.472,62.531a13.144,13.144,0,0,1-13.111,13.11h-50.6a6.254,6.254,0,0,1-6.242-6.241v-9a10.826,10.826,0,0,1,10.8-10.8l59.159,0Zm0-15.529h-52.757V825.016c.017-6.784,7.267-11.59,16.162-11.59h20.435c8.911,0,16.16,4.817,16.16,11.613Zm0-18.664L1215.6,817.2c-3.44-3.567-9-5.7-14.873-5.7h-20.435c-5.873,0-11.434,2.129-14.874,5.7l-1.288,1.334V791.955h52.758Zm82.22,21.27a10.829,10.829,0,0,1,10.8,10.8v8.994a6.259,6.259,0,0,1-6.245,6.242h-50.6a13.144,13.144,0,0,1-13.111-13.111V839.8Zm-43-26.374h20.442c8.91,0,16.158,4.817,16.158,11.613v12.155h-52.758v-12.2C1239.981,818.221,1247.229,813.427,1256.1,813.427Zm-16.159,5.1V791.955H1292.7v26.574l-1.288-1.334c-3.441-3.566-9-5.694-14.87-5.694H1256.1c-5.87,0-11.43,2.128-14.872,5.694Zm61.415-29.223a12.578,12.578,0,0,1-3.576.539H1164.242a12.775,12.775,0,0,1-12.723-12.632l-.005-73.362a12.759,12.759,0,0,1,12.728-12.729h133.517a12.76,12.76,0,0,1,12.729,12.728v15.328h-.052v30.4h-44.808a10.467,10.467,0,1,0,0,20.933h27.046l.052.693a23.882,23.882,0,0,0,8.891,16.8l1.12.895Zm36.661-17.979a21.575,21.575,0,0,1-21.584,19.766h0a21.573,21.573,0,0,1-21.581-19.766l-.072-.815H1338.1Zm29.222-2.933H1265.627a8.35,8.35,0,1,1,0-16.7h101.618a8.35,8.35,0,1,1,0,16.7Z" transform="translate(-1118.564 -569.95)" fill="#d5d5d7"/>
      <rect id="矩形_2211" data-name="矩形 2211" width="65" height="8" transform="translate(79.741 2)" fill="#fff"/>
    </g>
    <path id="路径_36945" data-name="路径 36945" d="M1298.98,762.152H1197.363a10.468,10.468,0,0,0,0,20.936h101.617a10.468,10.468,0,0,0,0-20.936Zm0,18.818H1197.363a8.374,8.374,0,0,1-8.351-8.354v0a8.372,8.372,0,0,1,8.35-8.349h101.619a8.352,8.352,0,0,1,0,16.7Z" transform="translate(-617.473 736.758)"/>
    <g id="组_21786" data-name="组 21786" transform="translate(-3)">
      <g id="组_756" data-name="组 756" transform="translate(490.872 1534.342) rotate(180)" opacity="0.28">
        <path id="路径_1869" data-name="路径 1869" d="M21.549,0A21.549,21.549,0,1,0,43.1,21.549,21.549,21.549,0,0,0,21.549,0Zm0,28.732a7.183,7.183,0,1,1,7.183-7.183h0A7.183,7.183,0,0,1,21.549,28.732Z" transform="translate(71.831 0)" fill="#ef54a1"/>
        <path id="路径_1870" data-name="路径 1870" d="M0,7.188A7.183,7.183,0,0,0,14.366,7.2V7.188A7.183,7.183,0,0,0,0,7.178Z" transform="translate(0 14.361)" fill="#ef54a1"/>
        <path id="路径_1871" data-name="路径 1871" d="M0,7.188A7.183,7.183,0,0,0,14.366,7.2V7.188A7.183,7.183,0,0,0,0,7.178Z" transform="translate(43.098 14.361)" fill="#ef54a1"/>
      </g>
    </g>
    <g id="组_21787" data-name="组 21787" transform="translate(1298.815 3025.585) rotate(180)">
      <g id="组_756-2" data-name="组 756" transform="translate(490.872 1534.342) rotate(180)" opacity="0.28">
        <path id="路径_1869-2" data-name="路径 1869" d="M21.549,0A21.549,21.549,0,1,0,43.1,21.549,21.549,21.549,0,0,0,21.549,0Zm0,28.732a7.183,7.183,0,1,1,7.183-7.183h0A7.183,7.183,0,0,1,21.549,28.732Z" transform="translate(71.831 0)" fill="#ef54a1"/>
        <path id="路径_1870-2" data-name="路径 1870" d="M0,7.188A7.183,7.183,0,0,0,14.366,7.2V7.188A7.183,7.183,0,0,0,0,7.178Z" transform="translate(0 14.361)" fill="#ef54a1"/>
        <path id="路径_1871-2" data-name="路径 1871" d="M0,7.188A7.183,7.183,0,0,0,14.366,7.2V7.188A7.183,7.183,0,0,0,0,7.178Z" transform="translate(43.098 14.361)" fill="#ef54a1"/>
      </g>
    </g>
    <g id="SIE" transform="translate(676.169 1464.884)">
      <ellipse id="椭圆_54" data-name="椭圆 54" cx="39.486" cy="39.486" rx="39.486" ry="39.486" transform="translate(0 0)" fill="url(#linear-gradient)"/>
      <path id="路径_1863" data-name="路径 1863" d="M-371.127,442.9v5.066l-20.912,12.315V435.192l20.912-13.289.011,5.2-16.62,10.359v4.989l16.609-9.691v4.726l-16.622,10.04v5.034Z" transform="translate(435.718 -392.947)" fill="#fff"/>
      <path id="路径_1864" data-name="路径 1864" d="M-392.171,425.553l22.684,12.149-4.459,2.927-22.684-12.148-4.454,2.744,27.322,14.632,13.484-8.539-22.9-12.267,4.461-3.019,23.082,12.348,4.775-3.024-27.63-14.8Z" transform="translate(415.455 -404.923)" fill="#fff"/>
      <path id="路径_1865" data-name="路径 1865" d="M-394.481,450.406V425.364l3.879,2.086v25.067Z" transform="translate(430.248 -385.193)" fill="#fff"/>
      <path id="路径_1866" data-name="路径 1866" d="M-401.084,446.832V421.905l4.3,2.3v24.952Z" transform="translate(415.455 -392.943)" fill="#fff"/>
      <g id="组_746" data-name="组 746" transform="translate(25.068 34.691)">
        <path id="路径_1867" data-name="路径 1867" d="M-393.385,430.413v-4.384l-4.4-2.355V427.9Z" transform="translate(397.783 -423.673)" fill="#fff"/>
        <path id="路径_1868" data-name="路径 1868" d="M-397.783,425.978V443.5l4.4,2.382V428.524Z" transform="translate(397.783 -418.51)" fill="#fff"/>
      </g>
    </g>
  </g>
</svg>
