<svg xmlns="http://www.w3.org/2000/svg" width="70.501" height="70.501" viewBox="0 0 70.501 70.501">
  <g id="产品-社群应用__支付" data-name="产品-社群应用 _支付" transform="translate(-418.75 -2641.749)">
    <path id="路径_950" data-name="路径 950" d="M99.239,236.638H70.513v-12.05a3.015,3.015,0,0,0-3.012-3.011H32.9a3.015,3.015,0,0,0-3.011,3.011v63.979a3.015,3.015,0,0,0,3.011,3.011H67.5a3.015,3.015,0,0,0,3.012-3.011V272.081H99.239a.652.652,0,0,0,.652-.652V237.29A.652.652,0,0,0,99.239,236.638Zm-68.046-12.05A1.71,1.71,0,0,1,32.9,222.88H67.5a1.71,1.71,0,0,1,1.709,1.708v63.979a1.711,1.711,0,0,1-1.709,1.709H32.9a1.71,1.71,0,0,1-1.708-1.709Zm67.395,46.189H70.513v-24.9H98.587Zm0-26.208H70.513v-6.629H98.587Z" transform="translate(389.111 2420.422)" fill="#ef54a1" stroke="#ef54a1" stroke-width="0.5"/>
    <path id="路径_951" data-name="路径 951" d="M107.166,283a6.333,6.333,0,0,0,3.272-.889l.378-.225.379.223a6.448,6.448,0,1,0,0-11.116l-.379.224-.379-.225a6.336,6.336,0,0,0-3.272-.89,6.448,6.448,0,0,0,0,12.9Zm7.295-11.593a5.145,5.145,0,1,1-5.145,5.145A5.15,5.15,0,0,1,114.461,271.41Zm-7.295,0a5.134,5.134,0,0,1,1.674.277l.942.325-.577.811a6.432,6.432,0,0,0,0,7.463l.578.813-.944.323a5.146,5.146,0,1,1-1.674-10.013Z" transform="translate(363.355 2402.775)" fill="#ef54a1" stroke="#ef54a1" stroke-width="0.5"/>
    <path id="路径_952" data-name="路径 952" d="M49.057,279.641a37.024,37.024,0,0,0,5.718,3.074.65.65,0,0,0,.5,0,37.111,37.111,0,0,0,5.722-3.076c3.915-2.6,5.9-5.221,5.9-7.795V258.033a.648.648,0,0,0-.3-.548h0a.647.647,0,0,0-.623-.044,6.507,6.507,0,0,1-2.733.6,6.591,6.591,0,0,1-5.93-3.757.656.656,0,0,0-.589-.372H53.332a.655.655,0,0,0-.589.373,6.592,6.592,0,0,1-5.93,3.757,6.507,6.507,0,0,1-2.733-.6.652.652,0,0,0-.923.592v13.813C43.157,274.419,45.142,277.042,49.057,279.641Zm-4.6-20.6.883.167a7.874,7.874,0,0,0,8.183-3.636l.218-.356h2.561l.218.356a7.875,7.875,0,0,0,8.184,3.636l.883-.167v12.81c0,4.7-9.21,8.957-10.26,9.427l-.3.136-.3-.136c-1.05-.47-10.261-4.725-10.261-9.427Z" transform="translate(384.286 2408.666)" fill="#ef54a1" stroke="#ef54a1" stroke-width="0.5"/>
    <path id="路径_953" data-name="路径 953" d="M57.208,278.328a.667.667,0,0,0,.921,0l5.741-5.741a.652.652,0,1,0-.922-.921l-5.28,5.28-3.015-3.015a.652.652,0,1,0-.921.921Z" transform="translate(380.51 2402.278)" fill="#ef54a1" stroke="#ef54a1" stroke-width="0.5"/>
  </g>
</svg>
