<svg xmlns="http://www.w3.org/2000/svg" width="76.949" height="46.51" viewBox="0 0 76.949 46.51">
  <g id="产品-社群应用__商城" data-name="产品-社群应用 _商城" transform="translate(-157.728 -415.745)">
    <path id="路径_928" data-name="路径 928" d="M179.964,465.218a.57.57,0,0,0,.569-.569v-5.421l2.427,2.441a.582.582,0,0,0,.807,0l2.428-2.441v5.421a.569.569,0,1,0,1.138,0v-6.8a.57.57,0,0,0-.972-.4l-3,3.013-3-3.013a.57.57,0,0,0-.972.4v6.8A.57.57,0,0,0,179.964,465.218Z" transform="translate(-7.571 -14.622)" fill="#6287de" stroke="#6287de" stroke-width="0.7"/>
    <path id="路径_929" data-name="路径 929" d="M195.833,465.183a.573.573,0,0,0,.733-.333l.285-.764h3.462l.286.764a.569.569,0,0,0,1.066-.4l-2.55-6.8a.57.57,0,0,0-1.065,0l-2.55,6.8A.57.57,0,0,0,195.833,465.183Zm2.749-5.711,1.3,3.476h-2.608Z" transform="translate(-13.279 -14.624)" fill="#6287de" stroke="#6287de" stroke-width="0.7"/>
    <path id="路径_930" data-name="路径 930" d="M210.02,457.849a.569.569,0,0,0-1.139,0v6.8a.57.57,0,0,0,.569.569h3.475a.569.569,0,1,0,0-1.139H210.02Z" transform="translate(-18.044 -14.622)" fill="#6287de" stroke="#6287de" stroke-width="0.7"/>
    <path id="路径_931" data-name="路径 931" d="M219.589,465.218h3.475a.569.569,0,1,0,0-1.139h-2.906v-6.231a.569.569,0,0,0-1.138,0v6.8A.57.57,0,0,0,219.589,465.218Z" transform="translate(-21.646 -14.622)" fill="#6287de" stroke="#6287de" stroke-width="0.7"/>
    <path id="路径_932" data-name="路径 932" d="M233.757,460.766h-8.272V449.133a4.344,4.344,0,0,0-3.222-4.2l-48.539-13.005v-1.842a1.7,1.7,0,0,1,1.259-1.639l41.56-11.137a1.7,1.7,0,0,1,1.631.431,1.677,1.677,0,0,1,.506,1.207v21.233a.569.569,0,1,0,1.138,0V418.952a2.833,2.833,0,0,0-.847-2.022,2.8,2.8,0,0,0-2.724-.717l-16.7,4.476v-.913a2.839,2.839,0,0,0-2.836-2.837h-18.2a2.839,2.839,0,0,0-2.836,2.837v7.308l-.983.264a2.84,2.84,0,0,0-2.1,2.739l.008,2.352a.573.573,0,0,0,.415.476l48.961,13.12a3.209,3.209,0,0,1,2.378,3.1v11.632H201.305V456.8a2.837,2.837,0,0,0-2.836-2.837h-4.534A2.837,2.837,0,0,0,191.1,456.8v3.964H168.057V433.8a1.7,1.7,0,0,1,.952-1.525.567.567,0,0,0,.265-.763.562.562,0,0,0-.322-.289.574.574,0,0,0-.439.027l-.058.028a2.832,2.832,0,0,0-1.536,2.521v26.966h-8.272a.569.569,0,1,0,0,1.139h33.021a.571.571,0,0,0,.569-.569V456.8a1.705,1.705,0,0,1,1.7-1.7h4.536a1.7,1.7,0,0,1,1.7,1.7v4.535a.57.57,0,0,0,.569.569h33.021a.569.569,0,1,0,0-1.138Zm-56.947-40.991a1.7,1.7,0,0,1,1.7-1.7h18.2a1.7,1.7,0,0,1,1.7,1.7v1.218l-21.594,5.785Z" fill="#6287de" stroke="#6287de" stroke-width="0.7"/>
  </g>
</svg>
