<svg xmlns="http://www.w3.org/2000/svg" width="76.5" height="49.611" viewBox="0 0 76.5 49.611">
  <g id="产品-社群应用__游戏" data-name="产品-社群应用 _游戏" transform="translate(-426.691 -400.903)">
    <path id="路径_919" data-name="路径 919" d="M500.789,421.677a52.577,52.577,0,0,0-4.283-11.626c-6.432-11.3-13.219-9.509-21.816-7.243l-.772.187a58.257,58.257,0,0,1-8.382,1.6l-.106.005-1.082-.005a58.184,58.184,0,0,1-8.379-1.6l-.913-.222a39.339,39.339,0,0,0-9.215-1.621c-4.565,0-8.532,2.03-12.472,9.01a48.653,48.653,0,0,0-4.272,11.6,72.39,72.39,0,0,0-2.115,13.922c-.181,4.617.249,8.192,1.276,10.621a6.235,6.235,0,0,0,3.944,3.735,8.434,8.434,0,0,0,5.471-.632c3.354-1.377,7.55-4.368,12.158-8.661,3.031-2.934,8.686-4.694,15.111-4.694s12.08,1.76,15.127,4.709c4.591,4.278,8.787,7.269,12.12,8.637a9,9,0,0,0,5.516.635,6.156,6.156,0,0,0,3.919-3.826c1.029-2.341,1.457-5.91,1.275-10.625A72.276,72.276,0,0,0,500.789,421.677Zm-.378,24.062h0a4.987,4.987,0,0,1-3.062,3.08,5.317,5.317,0,0,1-1.406.179,9.585,9.585,0,0,1-3.32-.691c-4.176-1.67-8.663-5.453-11.7-8.335-3.292-3.291-9.26-5.244-15.985-5.244-6.546,0-12.713,1.939-16.094,5.06-4.765,4.416-8.584,7.138-11.677,8.32a7.248,7.248,0,0,1-4.764.506,5,5,0,0,1-3.03-3.073c-.9-2.136-1.258-5.452-1.067-9.86a68.558,68.558,0,0,1,2.084-13.694A47.043,47.043,0,0,1,434.6,410.7c5.828-10.493,12.856-8.643,20.3-6.684a56.207,56.207,0,0,0,9.314,1.815h1.365a56.342,56.342,0,0,0,9.416-1.816l.2-.051c7.382-1.847,14.353-3.589,20.094,6.745A45.737,45.737,0,0,1,499.494,422a75.2,75.2,0,0,1,2.08,13.681C501.771,440.23,501.4,443.424,500.41,445.739Z" fill="#6287de" stroke="#6287de" stroke-width="0.5"/>
    <path id="路径_920" data-name="路径 920" d="M457.754,421.185l-.981-.07-.076-.981a4.4,4.4,0,0,0-1.23-2.693l-.1-.1a4.367,4.367,0,0,0-3.19-1.323,4.611,4.611,0,0,0-3.191,1.324,4.547,4.547,0,0,0-1.326,2.784l-.07.986-.987.07a4.679,4.679,0,0,0-2.828,1.27l-.054.056A4.366,4.366,0,0,0,442.4,425.7a4.6,4.6,0,0,0,1.323,3.189,4.267,4.267,0,0,0,2.876,1.326l.992.067.07.992a4.089,4.089,0,0,0,1.283,2.743,4.413,4.413,0,0,0,3.234,1.364,4.6,4.6,0,0,0,3.19-1.323,4.693,4.693,0,0,0,1.327-2.784l.07-.987.987-.07a4.091,4.091,0,0,0,2.743-1.282,4.416,4.416,0,0,0,1.365-3.234,4.609,4.609,0,0,0-1.3-3.17A4.719,4.719,0,0,0,457.754,421.185Zm1.961,6.787a3.138,3.138,0,0,1-2.27.919H456.08a.712.712,0,0,0-.71.711v1.268a3.19,3.19,0,1,1-6.379,0V429.5a.712.712,0,0,0-.711-.711h-1.364a3.141,3.141,0,0,1-2.271-5.361l.221-.2a3.462,3.462,0,0,1,2.05-.716h1.364a.712.712,0,0,0,.711-.711v-1.365a3.21,3.21,0,0,1,5.46-2.268l.2.218a3.455,3.455,0,0,1,.718,2.05V421.8a.713.713,0,0,0,.71.711h1.365a3.21,3.21,0,0,1,2.27,5.459Z" transform="translate(-5.374 -5.179)" fill="#6287de" stroke="#6287de" stroke-width="0.5"/>
    <path id="路径_921" data-name="路径 921" d="M509.987,421.31a2.271,2.271,0,1,0-2.27-2.271A2.274,2.274,0,0,0,509.987,421.31Z" transform="translate(-28.081 -5.439)" fill="#6287de" stroke="#6287de" stroke-width="0.5"/>
    <path id="路径_922" data-name="路径 922" d="M509.987,437.991a2.271,2.271,0,1,0,2.272,2.271A2.274,2.274,0,0,0,509.987,437.991Z" transform="translate(-28.081 -12.817)" fill="#6287de" stroke="#6287de" stroke-width="0.5"/>
    <path id="路径_923" data-name="路径 923" d="M499.376,427.379a2.271,2.271,0,1,0,2.271,2.271A2.273,2.273,0,0,0,499.376,427.379Z" transform="translate(-24.391 -9.128)" fill="#6287de" stroke="#6287de" stroke-width="0.5"/>
    <circle id="椭圆_19" data-name="椭圆 19" cx="2.271" cy="2.271" r="2.271" transform="translate(486.559 418.251)" fill="#6287de" stroke="#6287de" stroke-width="0.5"/>
  </g>
</svg>
